<?xml version="1.0" encoding="UTF-8" standalone="no"?>
<!DOCTYPE svg PUBLIC "-//W3C//DTD SVG 1.1//EN"
 "http://www.w3.org/Graphics/SVG/1.1/DTD/svg11.dtd">
<!-- Generated by graphviz version 2.28.0 (20110507.0327)
 -->
<!-- Title: MMT Pages: 1 -->
<svg
 viewBox="0.00 0.00 532.63 294.00" xmlns="http://www.w3.org/2000/svg" xmlns:xlink="http://www.w3.org/1999/xlink">
<g id="graph1" class="graph" transform="scale(1 1) rotate(0) translate(4 290)">
<title>MMT</title>
<polygon fill="white" stroke="white" points="-4,5 -4,-290 529.626,-290 529.626,5 -4,5"/>
<g id="graph2" class="cluster"><title>cluster_local</title>
<polygon fill="none" stroke="black" points="123,-80 123,-220 289,-220 289,-80 123,-80"/>
</g>
<!-- http://latin.omdoc.org/category_theory/dfol_based?Product -->
<g id="node2" class="node"><title>http://latin.omdoc.org/category_theory/dfol_based?Product</title>
<a xlink:href="http://latin.omdoc.org/category_theory/dfol_based?Product" class="graphtheory">
<ellipse fill="none" stroke="black" cx="235" cy="-194" rx="39.9464" ry="18"/>
<text text-anchor="middle" x="235" y="-190.3" font-family="Times New Roman,serif" font-size="14.00">Product</text>
</a>
</g>
<!-- http://latin.omdoc.org/category_theory/dfol_based?Coproduct -->
<g id="node3" class="node"><title>http://latin.omdoc.org/category_theory/dfol_based?Coproduct</title>
<a xlink:href="http://latin.omdoc.org/category_theory/dfol_based?Coproduct" class="graphtheory">
<ellipse fill="none" stroke="black" cx="182" cy="-106" rx="50.5427" ry="18"/>
<text text-anchor="middle" x="182" y="-102.3" font-family="Times New Roman,serif" font-size="14.00">Coproduct</text>
</a>
</g>
<!-- http://latin.omdoc.org/category_theory/dfol_based?Product&#45;&gt;http://latin.omdoc.org/category_theory/dfol_based?Coproduct -->
<g id="edge3" class="edge"><title>http://latin.omdoc.org/category_theory/dfol_based?Product&#45;&gt;http://latin.omdoc.org/category_theory/dfol_based?Coproduct</title>
<a xlink:href="http://latin.omdoc.org/category_theory/dfol_based?CoprodOp" class="graphview">
<path fill="none" stroke="black" d="M205.678,-181.367C181.441,-171.683 150.855,-159.276 150,-158 144.033,-149.09 147.988,-139.13 154.871,-130.393"/>
<polygon fill="black" stroke="black" points="157.662,-132.526 161.814,-122.779 152.49,-127.81 157.662,-132.526"/>
</a>
<a xlink:href="http://latin.omdoc.org/category_theory/dfol_based?CoprodOp" class="CoprodOp">
<text text-anchor="middle" x="181.5" y="-146.3" font-family="Times New Roman,serif" font-size="14.00">CoprodOp</text>
</a>
</g>
<!-- http://latin.omdoc.org/category_theory/dfol_based?Exponential -->
<g id="node5" class="node"><title>http://latin.omdoc.org/category_theory/dfol_based?Exponential</title>
<a xlink:href="http://latin.omdoc.org/category_theory/dfol_based?Exponential" class="graphtheory">
<ellipse fill="gray" stroke="black" cx="350" cy="-106" rx="52.9443" ry="18"/>
<text text-anchor="middle" x="350" y="-102.3" font-family="Times New Roman,serif" font-size="14.00">Exponential</text>
</a>
</g>
<!-- http://latin.omdoc.org/category_theory/dfol_based?Product&#45;&gt;http://latin.omdoc.org/category_theory/dfol_based?Exponential -->
<g id="edge5" class="edge"><title>http://latin.omdoc.org/category_theory/dfol_based?Product&#45;&gt;http://latin.omdoc.org/category_theory/dfol_based?Exponential</title>
<a xlink:href="http://latin.omdoc.org/category_theory/dfol_based?Exponential?prod" class="graphstructure">
<path fill="none" stroke="black" d="M254.769,-178.216C272.944,-164.625 300.122,-144.3 320.798,-128.838"/>
<polygon fill="black" stroke="black" points="323.021,-131.546 328.933,-122.754 318.829,-125.94 323.021,-131.546"/>
</a>
<a xlink:href="http://latin.omdoc.org/category_theory/dfol_based?Exponential?prod" class="prod">
<text text-anchor="middle" x="317" y="-146.3" font-family="Times New Roman,serif" font-size="14.00">prod</text>
</a>
</g>
<!-- http://latin.omdoc.org/category_theory/dfol_based?ProdTop -->
<g id="node7" class="node"><title>http://latin.omdoc.org/category_theory/dfol_based?ProdTop</title>
<a xlink:href="http://latin.omdoc.org/category_theory/dfol_based?ProdTop" class="graphtheory">
<ellipse fill="gray" stroke="black" cx="465" cy="-106" rx="44.2946" ry="18"/>
<text text-anchor="middle" x="465" y="-102.3" font-family="Times New Roman,serif" font-size="14.00">ProdTop</text>
</a>
</g>
<!-- http://latin.omdoc.org/category_theory/dfol_based?Product&#45;&gt;http://latin.omdoc.org/category_theory/dfol_based?ProdTop -->
<g id="edge7" class="edge"><title>http://latin.omdoc.org/category_theory/dfol_based?Product&#45;&gt;http://latin.omdoc.org/category_theory/dfol_based?ProdTop</title>
<a xlink:href="http://latin.omdoc.org/category_theory/dfol_based?ProdTop?prod" class="graphstructure">
<path fill="none" stroke="black" d="M264.276,-181.469C269.178,-179.601 274.222,-177.718 279,-176 302.806,-167.439 309.194,-166.561 333,-158 364.159,-146.794 399.097,-133.251 425.199,-122.938"/>
<polygon fill="black" stroke="black" points="426.736,-126.094 434.743,-119.155 424.157,-119.586 426.736,-126.094"/>
</a>
<a xlink:href="http://latin.omdoc.org/category_theory/dfol_based?ProdTop?prod" class="prod">
<text text-anchor="middle" x="388" y="-146.3" font-family="Times New Roman,serif" font-size="14.00">prod</text>
</a>
</g>
<!-- http://latin.omdoc.org/category_theory/dfol_based?Coproduct&#45;&gt;http://latin.omdoc.org/category_theory/dfol_based?Product -->
<g id="edge9" class="edge"><title>http://latin.omdoc.org/category_theory/dfol_based?Coproduct&#45;&gt;http://latin.omdoc.org/category_theory/dfol_based?Product</title>
<a xlink:href="http://latin.omdoc.org/category_theory/dfol_based?ProdOp" class="graphview">
<path fill="none" stroke="black" d="M192.368,-123.824C200.056,-136.298 210.667,-153.516 219.38,-167.654"/>
<polygon fill="black" stroke="black" points="216.555,-169.741 224.781,-176.418 222.514,-166.069 216.555,-169.741"/>
</a>
<a xlink:href="http://latin.omdoc.org/category_theory/dfol_based?ProdOp" class="ProdOp">
<text text-anchor="middle" x="247" y="-146.3" font-family="Times New Roman,serif" font-size="14.00">ProdOp</text>
</a>
</g>
<!-- http://latin.omdoc.org/category_theory/dfol_based?CoprodTop -->
<g id="node15" class="node"><title>http://latin.omdoc.org/category_theory/dfol_based?CoprodTop</title>
<a xlink:href="http://latin.omdoc.org/category_theory/dfol_based?CoprodTop" class="graphtheory">
<ellipse fill="gray" stroke="black" cx="434" cy="-18" rx="55.3682" ry="18"/>
<text text-anchor="middle" x="434" y="-14.3" font-family="Times New Roman,serif" font-size="14.00">CoprodTop</text>
</a>
</g>
<!-- http://latin.omdoc.org/category_theory/dfol_based?Coproduct&#45;&gt;http://latin.omdoc.org/category_theory/dfol_based?CoprodTop -->
<g id="edge17" class="edge"><title>http://latin.omdoc.org/category_theory/dfol_based?Coproduct&#45;&gt;http://latin.omdoc.org/category_theory/dfol_based?CoprodTop</title>
<a xlink:href="http://latin.omdoc.org/category_theory/dfol_based?CoprodTop?coprod" class="graphstructure">
<path fill="none" stroke="black" d="M210.277,-91.0374C218.478,-87.2269 227.512,-83.2555 236,-80 284.917,-61.2393 342.268,-44.0798 382.619,-32.7728"/>
<polygon fill="black" stroke="black" points="383.799,-36.0776 392.496,-30.0268 381.924,-29.3334 383.799,-36.0776"/>
</a>
<a xlink:href="http://latin.omdoc.org/category_theory/dfol_based?CoprodTop?coprod" class="coprod">
<text text-anchor="middle" x="327" y="-58.3" font-family="Times New Roman,serif" font-size="14.00">coprod</text>
</a>
</g>
<!-- http://latin.omdoc.org/category_theory/dfol_based?Category -->
<g id="node10" class="node"><title>http://latin.omdoc.org/category_theory/dfol_based?Category</title>
<a xlink:href="http://latin.omdoc.org/category_theory/dfol_based?Category" class="graphtheory">
<ellipse fill="gray" stroke="black" cx="44" cy="-194" rx="44.2946" ry="18"/>
<text text-anchor="middle" x="44" y="-190.3" font-family="Times New Roman,serif" font-size="14.00">Category</text>
</a>
</g>
<!-- http://latin.omdoc.org/category_theory/dfol_based?Category&#45;&gt;http://latin.omdoc.org/category_theory/dfol_based?Product -->
<g id="edge11" class="edge"><title>http://latin.omdoc.org/category_theory/dfol_based?Category&#45;&gt;http://latin.omdoc.org/category_theory/dfol_based?Product</title>
<a xlink:href="http://latin.omdoc.org/category_theory/dfol_based?Product?cat" class="graphstructure">
<path fill="none" stroke="black" d="M88.2993,-194C117.084,-194 154.68,-194 184.606,-194"/>
<polygon fill="black" stroke="black" points="184.844,-197.5 194.844,-194 184.844,-190.5 184.844,-197.5"/>
</a>
<a xlink:href="http://latin.omdoc.org/category_theory/dfol_based?Product?cat" class="cat">
<text text-anchor="middle" x="141.352" y="-200.8" font-family="Times New Roman,serif" font-size="14.00">cat</text>
</a>
</g>
<!-- http://latin.omdoc.org/category_theory/dfol_based?Category&#45;&gt;http://latin.omdoc.org/category_theory/dfol_based?Coproduct -->
<g id="edge15" class="edge"><title>http://latin.omdoc.org/category_theory/dfol_based?Category&#45;&gt;http://latin.omdoc.org/category_theory/dfol_based?Coproduct</title>
<a xlink:href="http://latin.omdoc.org/category_theory/dfol_based?Coproduct?cat" class="graphstructure">
<path fill="none" stroke="black" d="M53.9695,-176.288C61.3229,-165.217 72.2401,-151.109 85,-142 98.756,-132.18 115.558,-124.843 131.288,-119.493"/>
<polygon fill="black" stroke="black" points="132.45,-122.796 140.907,-116.414 130.316,-116.129 132.45,-122.796"/>
</a>
<a xlink:href="http://latin.omdoc.org/category_theory/dfol_based?Coproduct?cat" class="cat">
<text text-anchor="middle" x="93.5" y="-146.3" font-family="Times New Roman,serif" font-size="14.00">cat</text>
</a>
</g>
<!-- http://latin.omdoc.org/logics/proof_theory?DFOL -->
<g id="node12" class="node"><title>http://latin.omdoc.org/logics/proof_theory?DFOL</title>
<a xlink:href="http://latin.omdoc.org/logics/proof_theory?DFOL" class="graphtheory">
<ellipse fill="gray" stroke="black" cx="116" cy="-268" rx="34.1708" ry="18"/>
<text text-anchor="middle" x="116" y="-264.3" font-family="Times New Roman,serif" font-size="14.00">DFOL</text>
</a>
</g>
<!-- http://latin.omdoc.org/logics/proof_theory?DFOL&#45;&gt;http://latin.omdoc.org/category_theory/dfol_based?Product -->
<g id="edge13" class="edge"><title>http://latin.omdoc.org/logics/proof_theory?DFOL&#45;&gt;http://latin.omdoc.org/category_theory/dfol_based?Product</title>
<a class="graphmeta">
<path fill="none" stroke="black" d="M137.55,-253.961C155.87,-242.877 182.428,-226.808 203.193,-214.244"/>
<polygon fill="black" stroke="black" points="205.242,-217.096 211.986,-208.924 201.618,-211.106 205.242,-217.096"/>
</a>
</g>
<!-- http://latin.omdoc.org/logics/proof_theory?DFOL&#45;&gt;http://latin.omdoc.org/category_theory/dfol_based?Coproduct -->
<g id="edge19" class="edge"><title>http://latin.omdoc.org/logics/proof_theory?DFOL&#45;&gt;http://latin.omdoc.org/category_theory/dfol_based?Coproduct</title>
<a class="graphmeta">
<path fill="none" stroke="black" d="M116.648,-249.658C118.277,-224.384 123.991,-176.671 144,-142 146.502,-137.664 149.72,-133.556 153.221,-129.781"/>
<polygon fill="black" stroke="black" points="155.942,-132.017 160.67,-122.536 151.061,-126.999 155.942,-132.017"/>
</a>
</g>
<!-- http://latin.omdoc.org/logics/proof_theory?DFOL&#45;&gt;http://latin.omdoc.org/category_theory/dfol_based?Exponential -->
<g id="edge23" class="edge"><title>http://latin.omdoc.org/logics/proof_theory?DFOL&#45;&gt;http://latin.omdoc.org/category_theory/dfol_based?Exponential</title>
<a class="graphmeta">
<path fill="none" stroke="black" d="M148.45,-261.794C184.827,-255.192 245,-241.945 293,-220 337.508,-199.651 361.125,-201.264 384,-158 389.027,-148.493 384.786,-138.544 377.811,-129.983"/>
<polygon fill="black" stroke="black" points="380.228,-127.445 370.825,-122.565 375.133,-132.244 380.228,-127.445"/>
</a>
</g>
<!-- http://latin.omdoc.org/logics/proof_theory?DFOL&#45;&gt;http://latin.omdoc.org/category_theory/dfol_based?ProdTop -->
<g id="edge21" class="edge"><title>http://latin.omdoc.org/logics/proof_theory?DFOL&#45;&gt;http://latin.omdoc.org/category_theory/dfol_based?ProdTop</title>
<a class="graphmeta">
<path fill="none" stroke="black" d="M150.083,-265.933C196.962,-263.202 282.822,-253.595 347,-220 388.497,-198.278 425.556,-157.563 446.637,-131.395"/>
<polygon fill="black" stroke="black" points="449.457,-133.471 452.905,-123.453 443.963,-129.134 449.457,-133.471"/>
</a>
</g>
<!-- http://latin.omdoc.org/logics/proof_theory?DFOL&#45;&gt;http://latin.omdoc.org/category_theory/dfol_based?Category -->
<g id="edge25" class="edge"><title>http://latin.omdoc.org/logics/proof_theory?DFOL&#45;&gt;http://latin.omdoc.org/category_theory/dfol_based?Category</title>
<a class="graphmeta">
<path fill="none" stroke="black" d="M100.731,-251.731C91.0713,-242.071 78.3915,-229.391 67.4696,-218.47"/>
<polygon fill="black" stroke="black" points="69.794,-215.844 60.248,-211.248 64.8442,-220.794 69.794,-215.844"/>
</a>
</g>
<!-- http://latin.omdoc.org/logics/proof_theory?DFOL&#45;&gt;http://latin.omdoc.org/category_theory/dfol_based?CoprodTop -->
<g id="edge27" class="edge"><title>http://latin.omdoc.org/logics/proof_theory?DFOL&#45;&gt;http://latin.omdoc.org/category_theory/dfol_based?CoprodTop</title>
<a class="graphmeta">
<path fill="none" stroke="black" d="M150.577,-266.756C204.264,-265.157 309.831,-257.067 390,-220 454.546,-190.157 486.198,-187.604 518,-124 526.746,-106.509 526.88,-97.4231 518,-80 508.816,-61.9803 491.543,-48.0372 475.037,-38.0593"/>
<polygon fill="black" stroke="black" points="476.425,-34.8226 466.002,-32.9232 472.966,-40.908 476.425,-34.8226"/>
</a>
</g>
</g>
</svg>
