<?xml version="1.0" encoding="UTF-8" standalone="no"?>
<!DOCTYPE svg PUBLIC "-//W3C//DTD SVG 1.1//EN"
 "http://www.w3.org/Graphics/SVG/1.1/DTD/svg11.dtd">
<!-- Generated by graphviz version 2.28.0 (20110507.0327)
 -->
<!-- Title: MMT Pages: 1 -->
<svg width="334pt" height="294pt"
 viewBox="0.00 0.00 333.94 294.00" xmlns="http://www.w3.org/2000/svg" xmlns:xlink="http://www.w3.org/1999/xlink">
<g id="graph1" class="graph" transform="scale(1 1) rotate(0) translate(4 290)">
<title>MMT</title>
<polygon fill="white" stroke="white" points="-4,5 -4,-290 330.941,-290 330.941,5 -4,5"/>
<g id="graph2" class="cluster"><title>cluster_local</title>
<polygon fill="none" stroke="black" points="189.941,-80 189.941,-132 285.941,-132 285.941,-80 189.941,-80"/>
</g>
<!-- http://latin.omdoc.org/category_theory/dfol_based?Product -->
<g id="node2" class="node"><title>http://latin.omdoc.org/category_theory/dfol_based?Product</title>
<a xlink:href="http://latin.omdoc.org/category_theory/dfol_based?Product" class="graphtheory">
<ellipse fill="none" stroke="black" cx="237.941" cy="-106" rx="39.9464" ry="18"/>
<text text-anchor="middle" x="237.941" y="-102.3" font-family="Times New Roman,serif" font-size="14.00">Product</text>
</a>
</g>
<!-- http://latin.omdoc.org/category_theory/dfol_based?Exponential -->
<g id="node3" class="node"><title>http://latin.omdoc.org/category_theory/dfol_based?Exponential</title>
<a xlink:href="http://latin.omdoc.org/category_theory/dfol_based?Exponential" class="graphtheory">
<ellipse fill="gray" stroke="black" cx="77.9412" cy="-18" rx="52.9443" ry="18"/>
<text text-anchor="middle" x="77.9412" y="-14.3" font-family="Times New Roman,serif" font-size="14.00">Exponential</text>
</a>
</g>
<!-- http://latin.omdoc.org/category_theory/dfol_based?Product&#45;&gt;http://latin.omdoc.org/category_theory/dfol_based?Exponential -->
<g id="edge3" class="edge"><title>http://latin.omdoc.org/category_theory/dfol_based?Product&#45;&gt;http://latin.omdoc.org/category_theory/dfol_based?Exponential</title>
<a xlink:href="http://latin.omdoc.org/category_theory/dfol_based?Exponential?prod" class="graphstructure">
<path fill="none" stroke="black" d="M214.272,-91.3643C207.711,-87.636 200.571,-83.6252 193.941,-80 167.797,-65.7036 138.046,-50.0712 115.219,-38.2107"/>
<polygon fill="black" stroke="black" points="116.695,-35.0332 106.206,-33.5365 113.472,-41.2473 116.695,-35.0332"/>
</a>
<a xlink:href="http://latin.omdoc.org/category_theory/dfol_based?Exponential?prod" class="prod">
<text text-anchor="middle" x="188.941" y="-58.3" font-family="Times New Roman,serif" font-size="14.00">prod</text>
</a>
</g>
<!-- http://latin.omdoc.org/category_theory/dfol_based?ProdTop -->
<g id="node5" class="node"><title>http://latin.omdoc.org/category_theory/dfol_based?ProdTop</title>
<a xlink:href="http://latin.omdoc.org/category_theory/dfol_based?ProdTop" class="graphtheory">
<ellipse fill="gray" stroke="black" cx="281.941" cy="-18" rx="44.2946" ry="18"/>
<text text-anchor="middle" x="281.941" y="-14.3" font-family="Times New Roman,serif" font-size="14.00">ProdTop</text>
</a>
</g>
<!-- http://latin.omdoc.org/category_theory/dfol_based?Product&#45;&gt;http://latin.omdoc.org/category_theory/dfol_based?ProdTop -->
<g id="edge5" class="edge"><title>http://latin.omdoc.org/category_theory/dfol_based?Product&#45;&gt;http://latin.omdoc.org/category_theory/dfol_based?ProdTop</title>
<a xlink:href="http://latin.omdoc.org/category_theory/dfol_based?ProdTop?prod" class="graphstructure">
<path fill="none" stroke="black" d="M246.593,-87.9923C251.643,-78.0731 258.143,-65.3231 263.941,-54 265.467,-51.0199 267.068,-47.8983 268.66,-44.7986"/>
<polygon fill="black" stroke="black" points="271.864,-46.2224 273.323,-35.7285 265.638,-43.0221 271.864,-46.2224"/>
</a>
<a xlink:href="http://latin.omdoc.org/category_theory/dfol_based?ProdTop?prod" class="prod">
<text text-anchor="middle" x="277.941" y="-58.3" font-family="Times New Roman,serif" font-size="14.00">prod</text>
</a>
</g>
<!-- http://latin.omdoc.org/category_theory/dfol_based?Coproduct -->
<g id="node7" class="node"><title>http://latin.omdoc.org/category_theory/dfol_based?Coproduct</title>
<a xlink:href="http://latin.omdoc.org/category_theory/dfol_based?Coproduct" class="graphtheory">
<ellipse fill="gray" stroke="black" cx="66.9412" cy="-106" rx="50.5427" ry="18"/>
<text text-anchor="middle" x="66.9412" y="-102.3" font-family="Times New Roman,serif" font-size="14.00">Coproduct</text>
</a>
</g>
<!-- http://latin.omdoc.org/category_theory/dfol_based?Product&#45;&gt;http://latin.omdoc.org/category_theory/dfol_based?Coproduct -->
<g id="edge9" class="edge"><title>http://latin.omdoc.org/category_theory/dfol_based?Product&#45;&gt;http://latin.omdoc.org/category_theory/dfol_based?Coproduct</title>
<a xlink:href="http://latin.omdoc.org/category_theory/dfol_based?CoprodOp" class="graphview">
<path fill="none" stroke="black" d="M197.66,-106C176.737,-106 150.741,-106 127.456,-106"/>
<polygon fill="black" stroke="black" points="127.322,-102.5 117.322,-106 127.322,-109.5 127.322,-102.5"/>
</a>
<a xlink:href="http://latin.omdoc.org/category_theory/dfol_based?CoprodOp" class="CoprodOp">
<text text-anchor="middle" x="157.293" y="-112.8" font-family="Times New Roman,serif" font-size="14.00">CoprodOp</text>
</a>
</g>
<!-- http://latin.omdoc.org/category_theory/dfol_based?Coproduct&#45;&gt;http://latin.omdoc.org/category_theory/dfol_based?Product -->
<g id="edge7" class="edge"><title>http://latin.omdoc.org/category_theory/dfol_based?Coproduct&#45;&gt;http://latin.omdoc.org/category_theory/dfol_based?Product</title>
<a xlink:href="http://latin.omdoc.org/category_theory/dfol_based?ProdOp" class="graphview">
<path fill="none" stroke="black" d="M117.322,-106C139.434,-106 165.34,-106 187.464,-106"/>
<polygon fill="black" stroke="black" points="187.66,-109.5 197.66,-106 187.66,-102.5 187.66,-109.5"/>
</a>
<a xlink:href="http://latin.omdoc.org/category_theory/dfol_based?ProdOp" class="ProdOp">
<text text-anchor="middle" x="157.293" y="-112.8" font-family="Times New Roman,serif" font-size="14.00">ProdOp</text>
</a>
</g>
<!-- http://latin.omdoc.org/category_theory/dfol_based?Category -->
<g id="node10" class="node"><title>http://latin.omdoc.org/category_theory/dfol_based?Category</title>
<a xlink:href="http://latin.omdoc.org/category_theory/dfol_based?Category" class="graphtheory">
<ellipse fill="gray" stroke="black" cx="158.941" cy="-194" rx="44.2946" ry="18"/>
<text text-anchor="middle" x="158.941" y="-190.3" font-family="Times New Roman,serif" font-size="14.00">Category</text>
</a>
</g>
<!-- http://latin.omdoc.org/category_theory/dfol_based?Category&#45;&gt;http://latin.omdoc.org/category_theory/dfol_based?Product -->
<g id="edge11" class="edge"><title>http://latin.omdoc.org/category_theory/dfol_based?Category&#45;&gt;http://latin.omdoc.org/category_theory/dfol_based?Product</title>
<a xlink:href="http://latin.omdoc.org/category_theory/dfol_based?Product?cat" class="graphstructure">
<path fill="none" stroke="black" d="M172.933,-176.745C181.718,-166.639 193.352,-153.437 203.941,-142 207.519,-138.136 211.363,-134.086 215.134,-130.166"/>
<polygon fill="black" stroke="black" points="217.756,-132.49 222.206,-122.875 212.731,-127.617 217.756,-132.49"/>
</a>
<a xlink:href="http://latin.omdoc.org/category_theory/dfol_based?Product?cat" class="cat">
<text text-anchor="middle" x="212.441" y="-146.3" font-family="Times New Roman,serif" font-size="14.00">cat</text>
</a>
</g>
<!-- http://latin.omdoc.org/category_theory/dfol_based?Category&#45;&gt;http://latin.omdoc.org/category_theory/dfol_based?Coproduct -->
<g id="edge23" class="edge"><title>http://latin.omdoc.org/category_theory/dfol_based?Category&#45;&gt;http://latin.omdoc.org/category_theory/dfol_based?Coproduct</title>
<a xlink:href="http://latin.omdoc.org/category_theory/dfol_based?Coproduct?cat" class="graphstructure">
<path fill="none" stroke="black" d="M142.067,-177.226C127.891,-163.975 107.445,-144.862 91.4612,-129.921"/>
<polygon fill="black" stroke="black" points="93.7154,-127.237 84.02,-122.965 88.9352,-132.351 93.7154,-127.237"/>
</a>
<a xlink:href="http://latin.omdoc.org/category_theory/dfol_based?Coproduct?cat" class="cat">
<text text-anchor="middle" x="130.441" y="-146.3" font-family="Times New Roman,serif" font-size="14.00">cat</text>
</a>
</g>
<!-- http://latin.omdoc.org/logics/proof_theory?DFOL -->
<g id="node12" class="node"><title>http://latin.omdoc.org/logics/proof_theory?DFOL</title>
<a xlink:href="http://latin.omdoc.org/logics/proof_theory?DFOL" class="graphtheory">
<ellipse fill="gray" stroke="black" cx="158.941" cy="-268" rx="34.1708" ry="18"/>
<text text-anchor="middle" x="158.941" y="-264.3" font-family="Times New Roman,serif" font-size="14.00">DFOL</text>
</a>
</g>
<!-- http://latin.omdoc.org/logics/proof_theory?DFOL&#45;&gt;http://latin.omdoc.org/category_theory/dfol_based?Product -->
<g id="edge13" class="edge"><title>http://latin.omdoc.org/logics/proof_theory?DFOL&#45;&gt;http://latin.omdoc.org/category_theory/dfol_based?Product</title>
<a class="graphmeta">
<path fill="none" stroke="black" d="M177.211,-252.48C188.806,-242.321 203.219,-227.785 211.941,-212 225.366,-187.704 231.956,-156.459 235.129,-134.39"/>
<polygon fill="black" stroke="black" points="238.614,-134.731 236.426,-124.364 231.672,-133.832 238.614,-134.731"/>
</a>
</g>
<!-- http://latin.omdoc.org/logics/proof_theory?DFOL&#45;&gt;http://latin.omdoc.org/category_theory/dfol_based?Exponential -->
<g id="edge19" class="edge"><title>http://latin.omdoc.org/logics/proof_theory?DFOL&#45;&gt;http://latin.omdoc.org/category_theory/dfol_based?Exponential</title>
<a class="graphmeta">
<path fill="none" stroke="black" d="M134.848,-254.923C98.4942,-235.105 31.2801,-191.827 6.94121,-132 -1.76772,-110.593 -2.70375,-101.002 6.94121,-80 14.5233,-63.4897 29.0237,-49.7662 42.9538,-39.5443"/>
<polygon fill="black" stroke="black" points="45.2559,-42.2076 51.4867,-33.6385 41.2721,-36.4517 45.2559,-42.2076"/>
</a>
</g>
<!-- http://latin.omdoc.org/logics/proof_theory?DFOL&#45;&gt;http://latin.omdoc.org/category_theory/dfol_based?ProdTop -->
<g id="edge17" class="edge"><title>http://latin.omdoc.org/logics/proof_theory?DFOL&#45;&gt;http://latin.omdoc.org/category_theory/dfol_based?ProdTop</title>
<a class="graphmeta">
<path fill="none" stroke="black" d="M180.694,-253.867C190.521,-247.626 202.106,-239.829 211.941,-232 256.04,-196.895 271.908,-185.403 289.941,-132 301.036,-99.1446 296.751,-88.3429 291.941,-54 291.56,-51.2776 291.019,-48.4698 290.385,-45.6842"/>
<polygon fill="black" stroke="black" points="293.734,-44.6564 287.791,-35.885 286.967,-46.4477 293.734,-44.6564"/>
</a>
</g>
<!-- http://latin.omdoc.org/logics/proof_theory?DFOL&#45;&gt;http://latin.omdoc.org/category_theory/dfol_based?Coproduct -->
<g id="edge15" class="edge"><title>http://latin.omdoc.org/logics/proof_theory?DFOL&#45;&gt;http://latin.omdoc.org/category_theory/dfol_based?Coproduct</title>
<a class="graphmeta">
<path fill="none" stroke="black" d="M141.25,-252.139C129.898,-241.836 115.54,-227.268 105.941,-212 90.4835,-187.413 79.7881,-155.778 73.5594,-133.686"/>
<polygon fill="black" stroke="black" points="76.9225,-132.714 70.935,-123.974 70.1649,-134.54 76.9225,-132.714"/>
</a>
</g>
<!-- http://latin.omdoc.org/logics/proof_theory?DFOL&#45;&gt;http://latin.omdoc.org/category_theory/dfol_based?Category -->
<g id="edge21" class="edge"><title>http://latin.omdoc.org/logics/proof_theory?DFOL&#45;&gt;http://latin.omdoc.org/category_theory/dfol_based?Category</title>
<a class="graphmeta">
<path fill="none" stroke="black" d="M158.941,-249.937C158.941,-241.807 158.941,-231.876 158.941,-222.705"/>
<polygon fill="black" stroke="black" points="162.441,-222.441 158.941,-212.441 155.441,-222.441 162.441,-222.441"/>
</a>
</g>
</g>
</svg>
