<?xml version="1.0" encoding="UTF-8" standalone="no"?>
<!DOCTYPE svg PUBLIC "-//W3C//DTD SVG 1.1//EN"
 "http://www.w3.org/Graphics/SVG/1.1/DTD/svg11.dtd">
<!-- Generated by graphviz version 2.28.0 (20110507.0327)
 -->
<!-- Title: MMT Pages: 1 -->
<svg width="1646pt" height="280pt"
 viewBox="0.00 0.00 1646.23 280.00" xmlns="http://www.w3.org/2000/svg" xmlns:xlink="http://www.w3.org/1999/xlink">
<g id="graph1" class="graph" transform="scale(1 1) rotate(0) translate(4 276)">
<title>MMT</title>
<polygon fill="white" stroke="white" points="-4,5 -4,-276 1643.23,-276 1643.23,5 -4,5"/>
<g id="graph2" class="cluster"><title>cluster_local</title>
<polygon fill="none" stroke="black" points="737,-154 737,-206 829,-206 829,-154 737,-154"/>
</g>
<!-- http://latin.omdoc.org/foundations/ftt?Church -->
<g id="node2" class="node"><title>http://latin.omdoc.org/foundations/ftt?Church</title>
<a xlink:href="http://latin.omdoc.org/foundations/ftt?Church" class="graphtheory">
<ellipse fill="none" stroke="black" cx="783" cy="-180" rx="37.5442" ry="18"/>
<text text-anchor="middle" x="783" y="-176.3" font-family="Times New Roman,serif" font-size="14.00">Church</text>
</a>
</g>
<!-- http://latin.omdoc.org/foundations/ftt?Curry -->
<g id="node3" class="node"><title>http://latin.omdoc.org/foundations/ftt?Curry</title>
<a xlink:href="http://latin.omdoc.org/foundations/ftt?Curry" class="graphtheory">
<ellipse fill="gray" stroke="black" cx="1578" cy="-92" rx="31.2735" ry="18"/>
<text text-anchor="middle" x="1578" y="-88.3" font-family="Times New Roman,serif" font-size="14.00">Curry</text>
</a>
</g>
<!-- http://latin.omdoc.org/foundations/ftt?Church&#45;&gt;http://latin.omdoc.org/foundations/ftt?Curry -->
<g id="edge3" class="edge"><title>http://latin.omdoc.org/foundations/ftt?Church&#45;&gt;http://latin.omdoc.org/foundations/ftt?Curry</title>
<a xlink:href="http://latin.omdoc.org/foundations/ftt?ChurchInCurry" class="graphview">
<path fill="none" stroke="black" d="M802.473,-164.391C808.988,-160.272 816.506,-156.293 824,-154 869.949,-139.942 992.028,-146.764 1040,-144 1143.18,-138.054 1168.89,-135.058 1272,-128 1389.77,-119.939 1422.07,-136.963 1537,-110 1539.65,-109.378 1542.35,-108.604 1545.04,-107.731"/>
<polygon fill="black" stroke="black" points="1546.4,-110.96 1554.59,-104.236 1543.99,-104.387 1546.4,-110.96"/>
</a>
<a xlink:href="http://latin.omdoc.org/foundations/ftt?ChurchInCurry" class="ChurchInCurry">
<text text-anchor="middle" x="1314.5" y="-132.3" font-family="Times New Roman,serif" font-size="14.00">ChurchInCurry</text>
</a>
</g>
<!-- http://latin.omdoc.org/foundations/ftt?Bool -->
<g id="node5" class="node"><title>http://latin.omdoc.org/foundations/ftt?Bool</title>
<a xlink:href="http://latin.omdoc.org/foundations/ftt?Bool" class="graphtheory">
<ellipse fill="gray" stroke="black" cx="28" cy="-92" rx="28.3955" ry="18"/>
<text text-anchor="middle" x="28" y="-88.3" font-family="Times New Roman,serif" font-size="14.00">Bool</text>
</a>
</g>
<!-- http://latin.omdoc.org/foundations/ftt?Church&#45;&gt;http://latin.omdoc.org/foundations/ftt?Bool -->
<g id="edge5" class="edge"><title>http://latin.omdoc.org/foundations/ftt?Church&#45;&gt;http://latin.omdoc.org/foundations/ftt?Bool</title>
<a class="graphinclude">
<path fill="none" stroke="black" d="M763.454,-164.582C756.682,-160.365 748.821,-156.28 741,-154 705.889,-143.765 448.497,-146.345 412,-144 257.8,-134.092 215.353,-149.62 66,-110 63.555,-109.351 61.0683,-108.562 58.5969,-107.683"/>
<polygon fill="black" stroke="black" points="59.847,-104.414 49.2621,-103.955 57.2505,-110.915 59.847,-104.414"/>
</a>
</g>
<!-- http://latin.omdoc.org/foundations/ftt?UniversalQuantifier -->
<g id="node7" class="node"><title>http://latin.omdoc.org/foundations/ftt?UniversalQuantifier</title>
<a xlink:href="http://latin.omdoc.org/foundations/ftt?UniversalQuantifier" class="graphtheory">
<ellipse fill="gray" stroke="black" cx="155" cy="-92" rx="79.4147" ry="18"/>
<text text-anchor="middle" x="155" y="-88.3" font-family="Times New Roman,serif" font-size="14.00">UniversalQuantifier</text>
</a>
</g>
<!-- http://latin.omdoc.org/foundations/ftt?Church&#45;&gt;http://latin.omdoc.org/foundations/ftt?UniversalQuantifier -->
<g id="edge7" class="edge"><title>http://latin.omdoc.org/foundations/ftt?Church&#45;&gt;http://latin.omdoc.org/foundations/ftt?UniversalQuantifier</title>
<a class="graphinclude">
<path fill="none" stroke="black" d="M763.428,-164.668C756.655,-160.457 748.799,-156.353 741,-154 697.76,-140.952 582.992,-147.959 538,-144 481.768,-139.052 468.067,-134.563 412,-128 337.415,-119.27 318.276,-121.054 244,-110 236.833,-108.933 229.364,-107.7 221.933,-106.395"/>
<polygon fill="black" stroke="black" points="222.318,-102.908 211.856,-104.579 221.077,-109.797 222.318,-102.908"/>
</a>
</g>
<!-- http://latin.omdoc.org/foundations/ftt?PowerTypes -->
<g id="node9" class="node"><title>http://latin.omdoc.org/foundations/ftt?PowerTypes</title>
<a xlink:href="http://latin.omdoc.org/foundations/ftt?PowerTypes" class="graphtheory">
<ellipse fill="gray" stroke="black" cx="310" cy="-92" rx="57.2927" ry="18"/>
<text text-anchor="middle" x="310" y="-88.3" font-family="Times New Roman,serif" font-size="14.00">PowerTypes</text>
</a>
</g>
<!-- http://latin.omdoc.org/foundations/ftt?Church&#45;&gt;http://latin.omdoc.org/foundations/ftt?PowerTypes -->
<g id="edge9" class="edge"><title>http://latin.omdoc.org/foundations/ftt?Church&#45;&gt;http://latin.omdoc.org/foundations/ftt?PowerTypes</title>
<a class="graphinclude">
<path fill="none" stroke="black" d="M762.968,-164.521C756.29,-160.409 748.607,-156.401 741,-154 684.048,-136.026 666.04,-152.994 607,-144 575.879,-139.259 569.03,-133.303 538,-128 466.592,-115.797 447.255,-123.068 376,-110 371.232,-109.126 366.3,-108.096 361.378,-106.982"/>
<polygon fill="black" stroke="black" points="361.884,-103.505 351.346,-104.603 360.268,-110.316 361.884,-103.505"/>
</a>
</g>
<!-- http://latin.omdoc.org/foundations/ftt?DisjUnion -->
<g id="node11" class="node"><title>http://latin.omdoc.org/foundations/ftt?DisjUnion</title>
<a xlink:href="http://latin.omdoc.org/foundations/ftt?DisjUnion" class="graphtheory">
<ellipse fill="gray" stroke="black" cx="432" cy="-92" rx="46.1964" ry="18"/>
<text text-anchor="middle" x="432" y="-88.3" font-family="Times New Roman,serif" font-size="14.00">DisjUnion</text>
</a>
</g>
<!-- http://latin.omdoc.org/foundations/ftt?Church&#45;&gt;http://latin.omdoc.org/foundations/ftt?DisjUnion -->
<g id="edge11" class="edge"><title>http://latin.omdoc.org/foundations/ftt?Church&#45;&gt;http://latin.omdoc.org/foundations/ftt?DisjUnion</title>
<a class="graphinclude">
<path fill="none" stroke="black" d="M762.883,-164.777C756.201,-160.679 748.536,-156.614 741,-154 708.812,-142.836 698.39,-150.768 665,-144 638.792,-138.688 633.155,-133.565 607,-128 554.681,-116.868 540.173,-121.8 488,-110 484.098,-109.117 480.071,-108.104 476.051,-107.021"/>
<polygon fill="black" stroke="black" points="476.719,-103.573 466.144,-104.221 474.815,-110.309 476.719,-103.573"/>
</a>
</g>
<!-- http://latin.omdoc.org/foundations/ftt?OptionTypes -->
<g id="node13" class="node"><title>http://latin.omdoc.org/foundations/ftt?OptionTypes</title>
<a xlink:href="http://latin.omdoc.org/foundations/ftt?OptionTypes" class="graphtheory">
<ellipse fill="gray" stroke="black" cx="556" cy="-92" rx="59.2173" ry="18"/>
<text text-anchor="middle" x="556" y="-88.3" font-family="Times New Roman,serif" font-size="14.00">OptionTypes</text>
</a>
</g>
<!-- http://latin.omdoc.org/foundations/ftt?Church&#45;&gt;http://latin.omdoc.org/foundations/ftt?OptionTypes -->
<g id="edge13" class="edge"><title>http://latin.omdoc.org/foundations/ftt?Church&#45;&gt;http://latin.omdoc.org/foundations/ftt?OptionTypes</title>
<a class="graphinclude">
<path fill="none" stroke="black" d="M761.689,-165.093C755.203,-161.198 747.949,-157.168 741,-154 716.775,-142.957 652.37,-122.424 606.372,-108.251"/>
<polygon fill="black" stroke="black" points="607.154,-104.83 596.567,-105.24 605.099,-111.521 607.154,-104.83"/>
</a>
</g>
<!-- http://latin.omdoc.org/foundations/ftt?Products -->
<g id="node15" class="node"><title>http://latin.omdoc.org/foundations/ftt?Products</title>
<a xlink:href="http://latin.omdoc.org/foundations/ftt?Products" class="graphtheory">
<ellipse fill="gray" stroke="black" cx="677" cy="-92" rx="44.2946" ry="18"/>
<text text-anchor="middle" x="677" y="-88.3" font-family="Times New Roman,serif" font-size="14.00">Products</text>
</a>
</g>
<!-- http://latin.omdoc.org/foundations/ftt?Church&#45;&gt;http://latin.omdoc.org/foundations/ftt?Products -->
<g id="edge15" class="edge"><title>http://latin.omdoc.org/foundations/ftt?Church&#45;&gt;http://latin.omdoc.org/foundations/ftt?Products</title>
<a class="graphinclude">
<path fill="none" stroke="black" d="M763.612,-164.16C755.629,-157.988 746.32,-150.71 738,-144 726.441,-134.677 713.825,-124.184 703.081,-115.15"/>
<polygon fill="black" stroke="black" points="705.179,-112.341 695.279,-108.57 700.666,-117.692 705.179,-112.341"/>
</a>
</g>
<!-- http://latin.omdoc.org/foundations/ftt?ExistentialQuantifier -->
<g id="node17" class="node"><title>http://latin.omdoc.org/foundations/ftt?ExistentialQuantifier</title>
<a xlink:href="http://latin.omdoc.org/foundations/ftt?ExistentialQuantifier" class="graphtheory">
<ellipse fill="gray" stroke="black" cx="1370" cy="-92" rx="83.2892" ry="18"/>
<text text-anchor="middle" x="1370" y="-88.3" font-family="Times New Roman,serif" font-size="14.00">ExistentialQuantifier</text>
</a>
</g>
<!-- http://latin.omdoc.org/foundations/ftt?Church&#45;&gt;http://latin.omdoc.org/foundations/ftt?ExistentialQuantifier -->
<g id="edge17" class="edge"><title>http://latin.omdoc.org/foundations/ftt?Church&#45;&gt;http://latin.omdoc.org/foundations/ftt?ExistentialQuantifier</title>
<a class="graphinclude">
<path fill="none" stroke="black" d="M802.526,-164.56C809.044,-160.45 816.551,-156.433 824,-154 874.452,-137.521 890.595,-152.41 943,-144 973.228,-139.149 979.732,-132.597 1010,-128 1128.03,-110.073 1159.55,-124.871 1278,-110 1285.59,-109.047 1293.51,-107.869 1301.36,-106.581"/>
<polygon fill="black" stroke="black" points="1301.99,-110.025 1311.26,-104.9 1300.82,-103.124 1301.99,-110.025"/>
</a>
</g>
<!-- http://latin.omdoc.org/foundations/ftt?Void -->
<g id="node19" class="node"><title>http://latin.omdoc.org/foundations/ftt?Void</title>
<a xlink:href="http://latin.omdoc.org/foundations/ftt?Void" class="graphtheory">
<ellipse fill="gray" stroke="black" cx="1500" cy="-92" rx="28.3955" ry="18"/>
<text text-anchor="middle" x="1500" y="-88.3" font-family="Times New Roman,serif" font-size="14.00">Void</text>
</a>
</g>
<!-- http://latin.omdoc.org/foundations/ftt?Church&#45;&gt;http://latin.omdoc.org/foundations/ftt?Void -->
<g id="edge19" class="edge"><title>http://latin.omdoc.org/foundations/ftt?Church&#45;&gt;http://latin.omdoc.org/foundations/ftt?Void</title>
<a class="graphinclude">
<path fill="none" stroke="black" d="M802.492,-164.452C809.008,-160.337 816.522,-156.343 824,-154 859.476,-142.882 954.206,-149.329 991,-144 1022.16,-139.488 1028.81,-132.278 1060,-128 1237.19,-103.698 1287.97,-151.244 1462,-110 1464.46,-109.417 1466.96,-108.675 1469.44,-107.829"/>
<polygon fill="black" stroke="black" points="1470.76,-111.073 1478.79,-104.166 1468.2,-104.555 1470.76,-111.073"/>
</a>
</g>
<!-- http://latin.omdoc.org/foundations/ftt?Unit -->
<g id="node21" class="node"><title>http://latin.omdoc.org/foundations/ftt?Unit</title>
<a xlink:href="http://latin.omdoc.org/foundations/ftt?Unit" class="graphtheory">
<ellipse fill="gray" stroke="black" cx="804" cy="-92" rx="27" ry="18"/>
<text text-anchor="middle" x="804" y="-88.3" font-family="Times New Roman,serif" font-size="14.00">Unit</text>
</a>
</g>
<!-- http://latin.omdoc.org/foundations/ftt?Church&#45;&gt;http://latin.omdoc.org/foundations/ftt?Unit -->
<g id="edge21" class="edge"><title>http://latin.omdoc.org/foundations/ftt?Church&#45;&gt;http://latin.omdoc.org/foundations/ftt?Unit</title>
<a class="graphinclude">
<path fill="none" stroke="black" d="M787.149,-162.009C790.083,-149.995 794.076,-133.641 797.439,-119.869"/>
<polygon fill="black" stroke="black" points="800.888,-120.5 799.86,-109.956 794.087,-118.84 800.888,-120.5"/>
</a>
</g>
<!-- http://latin.omdoc.org/foundations/ftt?NonEmpty -->
<g id="node23" class="node"><title>http://latin.omdoc.org/foundations/ftt?NonEmpty</title>
<a xlink:href="http://latin.omdoc.org/foundations/ftt?NonEmpty" class="graphtheory">
<ellipse fill="gray" stroke="black" cx="899" cy="-92" rx="50.0684" ry="18"/>
<text text-anchor="middle" x="899" y="-88.3" font-family="Times New Roman,serif" font-size="14.00">NonEmpty</text>
</a>
</g>
<!-- http://latin.omdoc.org/foundations/ftt?Church&#45;&gt;http://latin.omdoc.org/foundations/ftt?NonEmpty -->
<g id="edge23" class="edge"><title>http://latin.omdoc.org/foundations/ftt?Church&#45;&gt;http://latin.omdoc.org/foundations/ftt?NonEmpty</title>
<a class="graphinclude">
<path fill="none" stroke="black" d="M802.416,-164.606C820.782,-150.989 848.596,-130.369 869.666,-114.747"/>
<polygon fill="black" stroke="black" points="872,-117.374 877.949,-108.607 867.832,-111.751 872,-117.374"/>
</a>
</g>
<!-- http://latin.omdoc.org/foundations/ftt?PredSubTypes -->
<g id="node25" class="node"><title>http://latin.omdoc.org/foundations/ftt?PredSubTypes</title>
<a xlink:href="http://latin.omdoc.org/foundations/ftt?PredSubTypes" class="graphtheory">
<ellipse fill="gray" stroke="black" cx="1033" cy="-92" rx="65.4659" ry="18"/>
<text text-anchor="middle" x="1033" y="-88.3" font-family="Times New Roman,serif" font-size="14.00">PredSubTypes</text>
</a>
</g>
<!-- http://latin.omdoc.org/foundations/ftt?Church&#45;&gt;http://latin.omdoc.org/foundations/ftt?PredSubTypes -->
<g id="edge25" class="edge"><title>http://latin.omdoc.org/foundations/ftt?Church&#45;&gt;http://latin.omdoc.org/foundations/ftt?PredSubTypes</title>
<a class="graphinclude">
<path fill="none" stroke="black" d="M803.721,-164.961C810.05,-161.063 817.151,-157.063 824,-154 833.113,-149.924 900.421,-130.811 910,-128 932.631,-121.36 957.66,-114.203 979.2,-108.103"/>
<polygon fill="black" stroke="black" points="980.159,-111.469 988.83,-105.38 978.254,-104.733 980.159,-111.469"/>
</a>
</g>
<!-- http://latin.omdoc.org/foundations/ftt?ConditionalTerms -->
<g id="node27" class="node"><title>http://latin.omdoc.org/foundations/ftt?ConditionalTerms</title>
<a xlink:href="http://latin.omdoc.org/foundations/ftt?ConditionalTerms" class="graphtheory">
<ellipse fill="gray" stroke="black" cx="1193" cy="-92" rx="76.0649" ry="18"/>
<text text-anchor="middle" x="1193" y="-88.3" font-family="Times New Roman,serif" font-size="14.00">ConditionalTerms</text>
</a>
</g>
<!-- http://latin.omdoc.org/foundations/ftt?Church&#45;&gt;http://latin.omdoc.org/foundations/ftt?ConditionalTerms -->
<g id="edge27" class="edge"><title>http://latin.omdoc.org/foundations/ftt?Church&#45;&gt;http://latin.omdoc.org/foundations/ftt?ConditionalTerms</title>
<a class="graphinclude">
<path fill="none" stroke="black" d="M803.024,-164.531C809.446,-160.523 816.774,-156.571 824,-154 854.853,-143.022 864.857,-150.263 897,-144 925.356,-138.475 931.606,-133.322 960,-128 1024.69,-115.875 1042,-120.389 1107,-110 1113.77,-108.919 1120.81,-107.692 1127.83,-106.404"/>
<polygon fill="black" stroke="black" points="1128.87,-109.77 1138.05,-104.484 1127.58,-102.89 1128.87,-109.77"/>
</a>
</g>
<!-- http://latin.omdoc.org/foundations/ftt?Reflection -->
<g id="node29" class="node"><title>http://latin.omdoc.org/foundations/ftt?Reflection</title>
<a xlink:href="http://latin.omdoc.org/foundations/ftt?Reflection" class="graphtheory">
<ellipse fill="gray" stroke="black" cx="749" cy="-18" rx="48.1437" ry="18"/>
<text text-anchor="middle" x="749" y="-14.3" font-family="Times New Roman,serif" font-size="14.00">Reflection</text>
</a>
</g>
<!-- http://latin.omdoc.org/foundations/ftt?Church&#45;&gt;http://latin.omdoc.org/foundations/ftt?Reflection -->
<g id="edge29" class="edge"><title>http://latin.omdoc.org/foundations/ftt?Church&#45;&gt;http://latin.omdoc.org/foundations/ftt?Reflection</title>
<a class="graphinclude">
<path fill="none" stroke="black" d="M779.262,-161.995C776.204,-148.034 771.781,-127.745 768,-110 763.417,-88.4918 758.33,-64.0993 754.574,-45.9861"/>
<polygon fill="black" stroke="black" points="757.985,-45.1987 752.53,-36.1162 751.131,-46.6182 757.985,-45.1987"/>
</a>
</g>
<!-- http://latin.omdoc.org/foundations/ftt?Bool&#45;&gt;http://latin.omdoc.org/foundations/ftt?Reflection -->
<g id="edge67" class="edge"><title>http://latin.omdoc.org/foundations/ftt?Bool&#45;&gt;http://latin.omdoc.org/foundations/ftt?Reflection</title>
<a class="graphinclude">
<path fill="none" stroke="black" d="M49.2439,-79.9752C54.5872,-77.6309 60.3986,-75.4333 66,-74 183.633,-43.8995 547.972,-26.831 690.754,-21.1509"/>
<polygon fill="black" stroke="black" points="691.196,-24.6364 701.05,-20.7459 690.92,-17.6418 691.196,-24.6364"/>
</a>
</g>
<!-- http://latin.omdoc.org/logics/proof_theory?Base -->
<g id="node31" class="node"><title>http://latin.omdoc.org/logics/proof_theory?Base</title>
<a xlink:href="http://latin.omdoc.org/logics/proof_theory?Base" class="graphtheory">
<ellipse fill="gray" stroke="black" cx="1239" cy="-180" rx="28.3955" ry="18"/>
<text text-anchor="middle" x="1239" y="-176.3" font-family="Times New Roman,serif" font-size="14.00">Base</text>
</a>
</g>
<!-- http://latin.omdoc.org/logics/proof_theory?Base&#45;&gt;http://latin.omdoc.org/foundations/ftt?Church -->
<g id="edge31" class="edge"><title>http://latin.omdoc.org/logics/proof_theory?Base&#45;&gt;http://latin.omdoc.org/foundations/ftt?Church</title>
<a class="graphinclude">
<path fill="none" stroke="black" d="M1210.39,-180C1083.82,-180 957.254,-180 830.689,-180"/>
<polygon fill="black" stroke="black" points="830.406,-176.5 820.406,-180 830.406,-183.5 830.406,-176.5"/>
</a>
</g>
<!-- http://latin.omdoc.org/logics/proof_theory?Base&#45;&gt;http://latin.omdoc.org/foundations/ftt?Curry -->
<g id="edge65" class="edge"><title>http://latin.omdoc.org/logics/proof_theory?Base&#45;&gt;http://latin.omdoc.org/foundations/ftt?Curry</title>
<a class="graphinclude">
<path fill="none" stroke="black" d="M1263.78,-171.163C1298.9,-160.275 1365.33,-140.502 1423,-128 1473.13,-117.132 1487.63,-123.92 1537,-110 1539.47,-109.305 1541.98,-108.503 1544.5,-107.635"/>
<polygon fill="black" stroke="black" points="1545.93,-110.836 1554.05,-104.038 1543.46,-104.284 1545.93,-110.836"/>
</a>
</g>
<!-- http://cds.omdoc.org/urtheories?LF -->
<g id="node33" class="node"><title>http://cds.omdoc.org/urtheories?LF</title>
<a xlink:href="http://cds.omdoc.org/urtheories?LF" class="graphtheory">
<ellipse fill="gray" stroke="black" cx="874" cy="-254" rx="27" ry="18"/>
<text text-anchor="middle" x="874" y="-250.3" font-family="Times New Roman,serif" font-size="14.00">LF</text>
</a>
</g>
<!-- http://cds.omdoc.org/urtheories?LF&#45;&gt;http://latin.omdoc.org/foundations/ftt?Church -->
<g id="edge33" class="edge"><title>http://cds.omdoc.org/urtheories?LF&#45;&gt;http://latin.omdoc.org/foundations/ftt?Church</title>
<a class="graphmeta">
<path fill="none" stroke="black" d="M857.309,-239.794C844.061,-229.312 825.279,-214.451 809.912,-202.293"/>
<polygon fill="black" stroke="black" points="811.797,-199.321 801.783,-195.861 807.453,-204.811 811.797,-199.321"/>
</a>
</g>
<!-- http://cds.omdoc.org/urtheories?LF&#45;&gt;http://latin.omdoc.org/foundations/ftt?Curry -->
<g id="edge55" class="edge"><title>http://cds.omdoc.org/urtheories?LF&#45;&gt;http://latin.omdoc.org/foundations/ftt?Curry</title>
<a class="graphmeta">
<path fill="none" stroke="black" d="M901.367,-252.679C967.153,-251.291 1138.88,-244 1276,-206 1376,-178.287 1489.53,-131.459 1544.56,-107.73"/>
<polygon fill="black" stroke="black" points="1546.04,-110.903 1553.82,-103.714 1543.25,-104.48 1546.04,-110.903"/>
</a>
</g>
<!-- http://cds.omdoc.org/urtheories?LF&#45;&gt;http://latin.omdoc.org/foundations/ftt?Bool -->
<g id="edge51" class="edge"><title>http://cds.omdoc.org/urtheories?LF&#45;&gt;http://latin.omdoc.org/foundations/ftt?Bool</title>
<a class="graphmeta">
<path fill="none" stroke="black" d="M847.034,-252.202C744.608,-248.972 379.831,-235.597 268,-206 186.949,-184.549 99.8029,-136.462 56.2195,-110.47"/>
<polygon fill="black" stroke="black" points="57.9702,-107.439 47.5984,-105.276 54.3581,-113.435 57.9702,-107.439"/>
</a>
</g>
<!-- http://cds.omdoc.org/urtheories?LF&#45;&gt;http://latin.omdoc.org/foundations/ftt?UniversalQuantifier -->
<g id="edge35" class="edge"><title>http://cds.omdoc.org/urtheories?LF&#45;&gt;http://latin.omdoc.org/foundations/ftt?UniversalQuantifier</title>
<a class="graphmeta">
<path fill="none" stroke="black" d="M846.994,-253.233C774.678,-253.228 571.134,-249.072 409,-206 327.929,-184.463 239.866,-140.086 191.671,-113.809"/>
<polygon fill="black" stroke="black" points="193.311,-110.716 182.862,-108.964 189.938,-116.85 193.311,-110.716"/>
</a>
</g>
<!-- http://cds.omdoc.org/urtheories?LF&#45;&gt;http://latin.omdoc.org/foundations/ftt?PowerTypes -->
<g id="edge57" class="edge"><title>http://cds.omdoc.org/urtheories?LF&#45;&gt;http://latin.omdoc.org/foundations/ftt?PowerTypes</title>
<a class="graphmeta">
<path fill="none" stroke="black" d="M846.754,-252.477C787.296,-250.659 642.019,-242.51 527,-206 457.034,-183.791 382.64,-140.071 341.682,-114.003"/>
<polygon fill="black" stroke="black" points="343.526,-111.028 333.221,-108.566 339.741,-116.917 343.526,-111.028"/>
</a>
</g>
<!-- http://cds.omdoc.org/urtheories?LF&#45;&gt;http://latin.omdoc.org/foundations/ftt?DisjUnion -->
<g id="edge37" class="edge"><title>http://cds.omdoc.org/urtheories?LF&#45;&gt;http://latin.omdoc.org/foundations/ftt?DisjUnion</title>
<a class="graphmeta">
<path fill="none" stroke="black" d="M847.017,-251.413C798.925,-247.87 695.854,-237.021 615,-206 610.94,-204.442 515.86,-145.299 464.396,-113.215"/>
<polygon fill="black" stroke="black" points="465.964,-110.068 455.627,-107.747 462.26,-116.008 465.964,-110.068"/>
</a>
</g>
<!-- http://cds.omdoc.org/urtheories?LF&#45;&gt;http://latin.omdoc.org/foundations/ftt?OptionTypes -->
<g id="edge59" class="edge"><title>http://cds.omdoc.org/urtheories?LF&#45;&gt;http://latin.omdoc.org/foundations/ftt?OptionTypes</title>
<a class="graphmeta">
<path fill="none" stroke="black" d="M847.711,-249.743C811.492,-244.471 744.948,-231.929 694,-206 648.286,-182.735 603.952,-142.265 578.353,-116.597"/>
<polygon fill="black" stroke="black" points="580.842,-114.137 571.336,-109.46 575.85,-119.045 580.842,-114.137"/>
</a>
</g>
<!-- http://cds.omdoc.org/urtheories?LF&#45;&gt;http://latin.omdoc.org/foundations/ftt?Products -->
<g id="edge63" class="edge"><title>http://cds.omdoc.org/urtheories?LF&#45;&gt;http://latin.omdoc.org/foundations/ftt?Products</title>
<a class="graphmeta">
<path fill="none" stroke="black" d="M847.337,-250.286C816.504,-245.875 765.795,-234.545 733,-206 706.872,-183.258 691.651,-145.47 683.834,-119.917"/>
<polygon fill="black" stroke="black" points="687.145,-118.765 681.016,-110.123 680.418,-120.701 687.145,-118.765"/>
</a>
</g>
<!-- http://cds.omdoc.org/urtheories?LF&#45;&gt;http://latin.omdoc.org/foundations/ftt?ExistentialQuantifier -->
<g id="edge45" class="edge"><title>http://cds.omdoc.org/urtheories?LF&#45;&gt;http://latin.omdoc.org/foundations/ftt?ExistentialQuantifier</title>
<a class="graphmeta">
<path fill="none" stroke="black" d="M898.828,-246.208C923.187,-238.801 960.693,-225.359 989,-206 1028.44,-179.024 1019.92,-148.682 1063,-128 1106.22,-107.249 1230.48,-116.364 1278,-110 1285.58,-108.984 1293.49,-107.767 1301.35,-106.456"/>
<polygon fill="black" stroke="black" points="1301.98,-109.899 1311.24,-104.754 1300.8,-103 1301.98,-109.899"/>
</a>
</g>
<!-- http://cds.omdoc.org/urtheories?LF&#45;&gt;http://latin.omdoc.org/foundations/ftt?Void -->
<g id="edge61" class="edge"><title>http://cds.omdoc.org/urtheories?LF&#45;&gt;http://latin.omdoc.org/foundations/ftt?Void</title>
<a class="graphmeta">
<path fill="none" stroke="black" d="M897.936,-245.561C968.148,-223.767 1170.54,-161.148 1201,-154 1208.16,-152.32 1454.96,-112.129 1462,-110 1464.28,-109.311 1466.6,-108.519 1468.91,-107.66"/>
<polygon fill="black" stroke="black" points="1470.31,-110.867 1478.26,-103.859 1467.68,-104.383 1470.31,-110.867"/>
</a>
</g>
<!-- http://cds.omdoc.org/urtheories?LF&#45;&gt;http://latin.omdoc.org/foundations/ftt?Unit -->
<g id="edge41" class="edge"><title>http://cds.omdoc.org/urtheories?LF&#45;&gt;http://latin.omdoc.org/foundations/ftt?Unit</title>
<a class="graphmeta">
<path fill="none" stroke="black" d="M867.437,-236.424C859.547,-216.672 845.768,-182.73 833,-154 827.733,-142.148 821.604,-129.151 816.341,-118.211"/>
<polygon fill="black" stroke="black" points="819.49,-116.682 811.982,-109.206 813.189,-119.732 819.49,-116.682"/>
</a>
</g>
<!-- http://cds.omdoc.org/urtheories?LF&#45;&gt;http://latin.omdoc.org/foundations/ftt?NonEmpty -->
<g id="edge39" class="edge"><title>http://cds.omdoc.org/urtheories?LF&#45;&gt;http://latin.omdoc.org/foundations/ftt?NonEmpty</title>
<a class="graphmeta">
<path fill="none" stroke="black" d="M876.675,-235.877C881.017,-208.089 889.631,-152.959 894.797,-119.896"/>
<polygon fill="black" stroke="black" points="898.258,-120.42 896.344,-110 891.342,-119.339 898.258,-120.42"/>
</a>
</g>
<!-- http://cds.omdoc.org/urtheories?LF&#45;&gt;http://latin.omdoc.org/foundations/ftt?PredSubTypes -->
<g id="edge53" class="edge"><title>http://cds.omdoc.org/urtheories?LF&#45;&gt;http://latin.omdoc.org/foundations/ftt?PredSubTypes</title>
<a class="graphmeta">
<path fill="none" stroke="black" d="M886.021,-237.419C905.421,-212.771 945.469,-163.903 985,-128 989.91,-123.541 995.382,-119.113 1000.82,-114.982"/>
<polygon fill="black" stroke="black" points="1003.28,-117.518 1009.27,-108.774 999.137,-111.879 1003.28,-117.518"/>
</a>
</g>
<!-- http://cds.omdoc.org/urtheories?LF&#45;&gt;http://latin.omdoc.org/foundations/ftt?ConditionalTerms -->
<g id="edge47" class="edge"><title>http://cds.omdoc.org/urtheories?LF&#45;&gt;http://latin.omdoc.org/foundations/ftt?ConditionalTerms</title>
<a class="graphmeta">
<path fill="none" stroke="black" d="M894.056,-241.742C909.536,-232.744 931.238,-219.453 949,-206 990.134,-174.844 989.166,-151.706 1035,-128 1043.45,-123.627 1087.23,-114.076 1126.57,-106.055"/>
<polygon fill="black" stroke="black" points="1127.34,-109.469 1136.45,-104.052 1125.95,-102.608 1127.34,-109.469"/>
</a>
</g>
<!-- http://cds.omdoc.org/urtheories?LF&#45;&gt;http://latin.omdoc.org/foundations/ftt?Reflection -->
<g id="edge43" class="edge"><title>http://cds.omdoc.org/urtheories?LF&#45;&gt;http://latin.omdoc.org/foundations/ftt?Reflection</title>
<a class="graphmeta">
<path fill="none" stroke="black" d="M901.084,-252.987C976.065,-252.404 1192.3,-247.005 1366,-206 1489.05,-176.951 1704.53,-166.183 1618,-74 1590.2,-44.39 996.593,-25.7322 806.8,-20.5068"/>
<polygon fill="black" stroke="black" points="806.832,-17.0065 796.74,-20.232 806.641,-24.0039 806.832,-17.0065"/>
</a>
</g>
<!-- http://cds.omdoc.org/urtheories?LF&#45;&gt;http://latin.omdoc.org/logics/proof_theory?Base -->
<g id="edge49" class="edge"><title>http://cds.omdoc.org/urtheories?LF&#45;&gt;http://latin.omdoc.org/logics/proof_theory?Base</title>
<a class="graphmeta">
<path fill="none" stroke="black" d="M900.951,-252.118C968.45,-249.585 1143.13,-240.943 1196,-218 1204,-214.527 1211.62,-209.026 1218.15,-203.318"/>
<polygon fill="black" stroke="black" points="1220.92,-205.517 1225.8,-196.112 1216.12,-200.421 1220.92,-205.517"/>
</a>
</g>
</g>
</svg>
