<?xml version="1.0" encoding="UTF-8" standalone="no"?>
<!DOCTYPE svg PUBLIC "-//W3C//DTD SVG 1.1//EN"
 "http://www.w3.org/Graphics/SVG/1.1/DTD/svg11.dtd">
<!-- Generated by graphviz version 2.28.0 (20110507.0327)
 -->
<!-- Title: MMT Pages: 1 -->
<svg
 viewBox="0.00 0.00 141.00 204.00" xmlns="http://www.w3.org/2000/svg" xmlns:xlink="http://www.w3.org/1999/xlink">
<g id="graph1" class="graph" transform="scale(1 1) rotate(0) translate(4 200)">
<title>MMT</title>
<polygon fill="white" stroke="white" points="-4,5 -4,-200 138,-200 138,5 -4,5"/>
<g id="graph2" class="cluster"><title>cluster_local</title>
<polygon fill="none" stroke="black" points="8,-8 8,-60 118,-60 118,-8 8,-8"/>
</g>
<!-- http://latin.omdoc.org/foundations/ftt?DisjUnion -->
<g id="node2" class="node"><title>http://latin.omdoc.org/foundations/ftt?DisjUnion</title>
<a xlink:href="http://latin.omdoc.org/foundations/ftt?DisjUnion" class="graphtheory">
<ellipse fill="none" stroke="black" cx="63" cy="-34" rx="46.1964" ry="18"/>
<text text-anchor="middle" x="63" y="-30.3" font-family="Times New Roman,serif" font-size="14.00">DisjUnion</text>
</a>
</g>
<!-- http://latin.omdoc.org/foundations/ftt?Church -->
<g id="node3" class="node"><title>http://latin.omdoc.org/foundations/ftt?Church</title>
<a xlink:href="http://latin.omdoc.org/foundations/ftt?Church" class="graphtheory">
<ellipse fill="gray" stroke="black" cx="96" cy="-106" rx="37.5442" ry="18"/>
<text text-anchor="middle" x="96" y="-102.3" font-family="Times New Roman,serif" font-size="14.00">Church</text>
</a>
</g>
<!-- http://latin.omdoc.org/foundations/ftt?Church&#45;&gt;http://latin.omdoc.org/foundations/ftt?DisjUnion -->
<g id="edge3" class="edge"><title>http://latin.omdoc.org/foundations/ftt?Church&#45;&gt;http://latin.omdoc.org/foundations/ftt?DisjUnion</title>
<a class="graphinclude">
<path fill="none" stroke="black" d="M88.0116,-88.055C84.2014,-79.9726 79.5572,-70.1214 75.3098,-61.1117"/>
<polygon fill="black" stroke="black" points="78.3449,-59.3418 70.9148,-51.789 72.0132,-62.3268 78.3449,-59.3418"/>
</a>
</g>
<!-- http://cds.omdoc.org/urtheories?LF -->
<g id="node5" class="node"><title>http://cds.omdoc.org/urtheories?LF</title>
<a xlink:href="http://cds.omdoc.org/urtheories?LF" class="graphtheory">
<ellipse fill="gray" stroke="black" cx="63" cy="-178" rx="27" ry="18"/>
<text text-anchor="middle" x="63" y="-174.3" font-family="Times New Roman,serif" font-size="14.00">LF</text>
</a>
</g>
<!-- http://cds.omdoc.org/urtheories?LF&#45;&gt;http://latin.omdoc.org/foundations/ftt?DisjUnion -->
<g id="edge5" class="edge"><title>http://cds.omdoc.org/urtheories?LF&#45;&gt;http://latin.omdoc.org/foundations/ftt?DisjUnion</title>
<a class="graphmeta">
<path fill="none" stroke="black" d="M57.3218,-160.038C54.1785,-149.745 50.5931,-136.269 49,-124 46.9397,-108.133 46.9397,-103.867 49,-88 50.1326,-79.2774 52.2722,-69.9451 54.5439,-61.5801"/>
<polygon fill="black" stroke="black" points="57.9094,-62.541 57.3218,-51.9624 51.1843,-60.5985 57.9094,-62.541"/>
</a>
</g>
<!-- http://cds.omdoc.org/urtheories?LF&#45;&gt;http://latin.omdoc.org/foundations/ftt?Church -->
<g id="edge7" class="edge"><title>http://cds.omdoc.org/urtheories?LF&#45;&gt;http://latin.omdoc.org/foundations/ftt?Church</title>
<a class="graphmeta">
<path fill="none" stroke="black" d="M70.8205,-160.411C74.6682,-152.249 79.3962,-142.22 83.7121,-133.065"/>
<polygon fill="black" stroke="black" points="86.908,-134.494 88.0064,-123.956 80.5763,-131.509 86.908,-134.494"/>
</a>
</g>
</g>
</svg>
