<?xml version="1.0" encoding="UTF-8" standalone="no"?>
<!DOCTYPE svg PUBLIC "-//W3C//DTD SVG 1.1//EN"
 "http://www.w3.org/Graphics/SVG/1.1/DTD/svg11.dtd">
<!-- Generated by graphviz version 2.28.0 (20110507.0327)
 -->
<!-- Title: MMT Pages: 1 -->
<svg width="152pt" height="204pt"
 viewBox="0.00 0.00 152.00 204.00" xmlns="http://www.w3.org/2000/svg" xmlns:xlink="http://www.w3.org/1999/xlink">
<g id="graph1" class="graph" transform="scale(1 1) rotate(0) translate(4 200)">
<title>MMT</title>
<polygon fill="white" stroke="white" points="-4,5 -4,-200 149,-200 149,5 -4,5"/>
<g id="graph2" class="cluster"><title>cluster_local</title>
<polygon fill="none" stroke="black" points="8,-8 8,-60 136,-60 136,-8 8,-8"/>
</g>
<!-- http://latin.omdoc.org/foundations/ftt?ImageTypes -->
<g id="node2" class="node"><title>http://latin.omdoc.org/foundations/ftt?ImageTypes</title>
<a xlink:href="http://latin.omdoc.org/foundations/ftt?ImageTypes" class="graphtheory">
<ellipse fill="none" stroke="black" cx="72" cy="-34" rx="55.3436" ry="18"/>
<text text-anchor="middle" x="72" y="-30.3" font-family="Times New Roman,serif" font-size="14.00">ImageTypes</text>
</a>
</g>
<!-- http://latin.omdoc.org/foundations/ftt?Curry -->
<g id="node3" class="node"><title>http://latin.omdoc.org/foundations/ftt?Curry</title>
<a xlink:href="http://latin.omdoc.org/foundations/ftt?Curry" class="graphtheory">
<ellipse fill="gray" stroke="black" cx="102" cy="-106" rx="31.2735" ry="18"/>
<text text-anchor="middle" x="102" y="-102.3" font-family="Times New Roman,serif" font-size="14.00">Curry</text>
</a>
</g>
<!-- http://latin.omdoc.org/foundations/ftt?Curry&#45;&gt;http://latin.omdoc.org/foundations/ftt?ImageTypes -->
<g id="edge3" class="edge"><title>http://latin.omdoc.org/foundations/ftt?Curry&#45;&gt;http://latin.omdoc.org/foundations/ftt?ImageTypes</title>
<a class="graphinclude">
<path fill="none" stroke="black" d="M94.8904,-88.411C91.4294,-80.3352 87.1848,-70.4312 83.2949,-61.3547"/>
<polygon fill="black" stroke="black" points="86.4232,-59.7689 79.2669,-51.9562 79.9892,-62.5264 86.4232,-59.7689"/>
</a>
</g>
<!-- http://cds.omdoc.org/urtheories?LF -->
<g id="node5" class="node"><title>http://cds.omdoc.org/urtheories?LF</title>
<a xlink:href="http://cds.omdoc.org/urtheories?LF" class="graphtheory">
<ellipse fill="gray" stroke="black" cx="72" cy="-178" rx="27" ry="18"/>
<text text-anchor="middle" x="72" y="-174.3" font-family="Times New Roman,serif" font-size="14.00">LF</text>
</a>
</g>
<!-- http://cds.omdoc.org/urtheories?LF&#45;&gt;http://latin.omdoc.org/foundations/ftt?ImageTypes -->
<g id="edge5" class="edge"><title>http://cds.omdoc.org/urtheories?LF&#45;&gt;http://latin.omdoc.org/foundations/ftt?ImageTypes</title>
<a class="graphmeta">
<path fill="none" stroke="black" d="M67.5358,-159.953C65.065,-149.63 62.2478,-136.153 61,-124 59.3657,-108.084 59.3657,-103.916 61,-88 61.8774,-79.455 63.5306,-70.2552 65.2938,-61.9576"/>
<polygon fill="black" stroke="black" points="68.743,-62.5728 67.5358,-52.0469 61.9155,-61.0282 68.743,-62.5728"/>
</a>
</g>
<!-- http://cds.omdoc.org/urtheories?LF&#45;&gt;http://latin.omdoc.org/foundations/ftt?Curry -->
<g id="edge7" class="edge"><title>http://cds.omdoc.org/urtheories?LF&#45;&gt;http://latin.omdoc.org/foundations/ftt?Curry</title>
<a class="graphmeta">
<path fill="none" stroke="black" d="M79.1096,-160.411C82.5706,-152.335 86.8152,-142.431 90.7051,-133.355"/>
<polygon fill="black" stroke="black" points="94.0108,-134.526 94.7331,-123.956 87.5768,-131.769 94.0108,-134.526"/>
</a>
</g>
</g>
</svg>
