<?xml version="1.0" encoding="UTF-8" standalone="no"?>
<!DOCTYPE svg PUBLIC "-//W3C//DTD SVG 1.1//EN"
 "http://www.w3.org/Graphics/SVG/1.1/DTD/svg11.dtd">
<!-- Generated by graphviz version 2.28.0 (20110507.0327)
 -->
<!-- Title: MMT Pages: 1 -->
<svg
 viewBox="0.00 0.00 154.00 204.00" xmlns="http://www.w3.org/2000/svg" xmlns:xlink="http://www.w3.org/1999/xlink">
<g id="graph1" class="graph" transform="scale(1 1) rotate(0) translate(4 200)">
<title>MMT</title>
<polygon fill="white" stroke="white" points="-4,5 -4,-200 151,-200 151,5 -4,5"/>
<g id="graph2" class="cluster"><title>cluster_local</title>
<polygon fill="none" stroke="black" points="8,-8 8,-60 138,-60 138,-8 8,-8"/>
</g>
<!-- http://latin.omdoc.org/foundations/ftt?PowerTypes -->
<g id="node2" class="node"><title>http://latin.omdoc.org/foundations/ftt?PowerTypes</title>
<a xlink:href="http://latin.omdoc.org/foundations/ftt?PowerTypes" class="graphtheory">
<ellipse fill="none" stroke="black" cx="73" cy="-34" rx="57.2927" ry="18"/>
<text text-anchor="middle" x="73" y="-30.3" font-family="Times New Roman,serif" font-size="14.00">PowerTypes</text>
</a>
</g>
<!-- http://latin.omdoc.org/foundations/ftt?Church -->
<g id="node3" class="node"><title>http://latin.omdoc.org/foundations/ftt?Church</title>
<a xlink:href="http://latin.omdoc.org/foundations/ftt?Church" class="graphtheory">
<ellipse fill="gray" stroke="black" cx="106" cy="-106" rx="37.5442" ry="18"/>
<text text-anchor="middle" x="106" y="-102.3" font-family="Times New Roman,serif" font-size="14.00">Church</text>
</a>
</g>
<!-- http://latin.omdoc.org/foundations/ftt?Church&#45;&gt;http://latin.omdoc.org/foundations/ftt?PowerTypes -->
<g id="edge3" class="edge"><title>http://latin.omdoc.org/foundations/ftt?Church&#45;&gt;http://latin.omdoc.org/foundations/ftt?PowerTypes</title>
<a class="graphinclude">
<path fill="none" stroke="black" d="M98.0116,-88.055C94.2574,-80.0915 89.6936,-70.4107 85.4974,-61.5097"/>
<polygon fill="black" stroke="black" points="88.5742,-59.8281 81.1441,-52.2753 82.2425,-62.8131 88.5742,-59.8281"/>
</a>
</g>
<!-- http://cds.omdoc.org/urtheories?LF -->
<g id="node5" class="node"><title>http://cds.omdoc.org/urtheories?LF</title>
<a xlink:href="http://cds.omdoc.org/urtheories?LF" class="graphtheory">
<ellipse fill="gray" stroke="black" cx="73" cy="-178" rx="27" ry="18"/>
<text text-anchor="middle" x="73" y="-174.3" font-family="Times New Roman,serif" font-size="14.00">LF</text>
</a>
</g>
<!-- http://cds.omdoc.org/urtheories?LF&#45;&gt;http://latin.omdoc.org/foundations/ftt?PowerTypes -->
<g id="edge5" class="edge"><title>http://cds.omdoc.org/urtheories?LF&#45;&gt;http://latin.omdoc.org/foundations/ftt?PowerTypes</title>
<a class="graphmeta">
<path fill="none" stroke="black" d="M67.3218,-160.038C64.1785,-149.745 60.5931,-136.269 59,-124 56.9397,-108.133 56.9397,-103.867 59,-88 60.1326,-79.2774 62.2722,-69.9451 64.5439,-61.5801"/>
<polygon fill="black" stroke="black" points="67.9094,-62.541 67.3218,-51.9624 61.1843,-60.5985 67.9094,-62.541"/>
</a>
</g>
<!-- http://cds.omdoc.org/urtheories?LF&#45;&gt;http://latin.omdoc.org/foundations/ftt?Church -->
<g id="edge7" class="edge"><title>http://cds.omdoc.org/urtheories?LF&#45;&gt;http://latin.omdoc.org/foundations/ftt?Church</title>
<a class="graphmeta">
<path fill="none" stroke="black" d="M80.8205,-160.411C84.6682,-152.249 89.3962,-142.22 93.7121,-133.065"/>
<polygon fill="black" stroke="black" points="96.908,-134.494 98.0064,-123.956 90.5763,-131.509 96.908,-134.494"/>
</a>
</g>
</g>
</svg>
