<?xml version="1.0" encoding="UTF-8" standalone="no"?>
<!DOCTYPE svg PUBLIC "-//W3C//DTD SVG 1.1//EN"
 "http://www.w3.org/Graphics/SVG/1.1/DTD/svg11.dtd">
<!-- Generated by graphviz version 2.28.0 (20110507.0327)
 -->
<!-- Title: MMT Pages: 1 -->
<svg
 viewBox="0.00 0.00 172.00 204.00" xmlns="http://www.w3.org/2000/svg" xmlns:xlink="http://www.w3.org/1999/xlink">
<g id="graph1" class="graph" transform="scale(1 1) rotate(0) translate(4 200)">
<title>MMT</title>
<polygon fill="white" stroke="white" points="-4,5 -4,-200 169,-200 169,5 -4,5"/>
<g id="graph2" class="cluster"><title>cluster_local</title>
<polygon fill="none" stroke="black" points="8,-8 8,-60 156,-60 156,-8 8,-8"/>
</g>
<!-- http://latin.omdoc.org/foundations/ftt?PredSubTypes -->
<g id="node2" class="node"><title>http://latin.omdoc.org/foundations/ftt?PredSubTypes</title>
<a xlink:href="http://latin.omdoc.org/foundations/ftt?PredSubTypes" class="graphtheory">
<ellipse fill="none" stroke="black" cx="82" cy="-34" rx="65.4659" ry="18"/>
<text text-anchor="middle" x="82" y="-30.3" font-family="Times New Roman,serif" font-size="14.00">PredSubTypes</text>
</a>
</g>
<!-- http://latin.omdoc.org/foundations/ftt?Church -->
<g id="node3" class="node"><title>http://latin.omdoc.org/foundations/ftt?Church</title>
<a xlink:href="http://latin.omdoc.org/foundations/ftt?Church" class="graphtheory">
<ellipse fill="gray" stroke="black" cx="115" cy="-106" rx="37.5442" ry="18"/>
<text text-anchor="middle" x="115" y="-102.3" font-family="Times New Roman,serif" font-size="14.00">Church</text>
</a>
</g>
<!-- http://latin.omdoc.org/foundations/ftt?Church&#45;&gt;http://latin.omdoc.org/foundations/ftt?PredSubTypes -->
<g id="edge3" class="edge"><title>http://latin.omdoc.org/foundations/ftt?Church&#45;&gt;http://latin.omdoc.org/foundations/ftt?PredSubTypes</title>
<a class="graphinclude">
<path fill="none" stroke="black" d="M107.012,-88.055C103.257,-80.0915 98.6936,-70.4107 94.4974,-61.5097"/>
<polygon fill="black" stroke="black" points="97.5742,-59.8281 90.1441,-52.2753 91.2425,-62.8131 97.5742,-59.8281"/>
</a>
</g>
<!-- http://cds.omdoc.org/urtheories?LF -->
<g id="node5" class="node"><title>http://cds.omdoc.org/urtheories?LF</title>
<a xlink:href="http://cds.omdoc.org/urtheories?LF" class="graphtheory">
<ellipse fill="gray" stroke="black" cx="82" cy="-178" rx="27" ry="18"/>
<text text-anchor="middle" x="82" y="-174.3" font-family="Times New Roman,serif" font-size="14.00">LF</text>
</a>
</g>
<!-- http://cds.omdoc.org/urtheories?LF&#45;&gt;http://latin.omdoc.org/foundations/ftt?PredSubTypes -->
<g id="edge5" class="edge"><title>http://cds.omdoc.org/urtheories?LF&#45;&gt;http://latin.omdoc.org/foundations/ftt?PredSubTypes</title>
<a class="graphmeta">
<path fill="none" stroke="black" d="M76.3218,-160.038C73.1785,-149.745 69.5931,-136.269 68,-124 65.9397,-108.133 65.9397,-103.867 68,-88 69.1326,-79.2774 71.2722,-69.9451 73.5439,-61.5801"/>
<polygon fill="black" stroke="black" points="76.9094,-62.541 76.3218,-51.9624 70.1843,-60.5985 76.9094,-62.541"/>
</a>
</g>
<!-- http://cds.omdoc.org/urtheories?LF&#45;&gt;http://latin.omdoc.org/foundations/ftt?Church -->
<g id="edge7" class="edge"><title>http://cds.omdoc.org/urtheories?LF&#45;&gt;http://latin.omdoc.org/foundations/ftt?Church</title>
<a class="graphmeta">
<path fill="none" stroke="black" d="M89.8205,-160.411C93.6682,-152.249 98.3962,-142.22 102.712,-133.065"/>
<polygon fill="black" stroke="black" points="105.908,-134.494 107.006,-123.956 99.5763,-131.509 105.908,-134.494"/>
</a>
</g>
</g>
</svg>
