<?xml version="1.0" encoding="UTF-8" standalone="no"?>
<!DOCTYPE svg PUBLIC "-//W3C//DTD SVG 1.1//EN"
 "http://www.w3.org/Graphics/SVG/1.1/DTD/svg11.dtd">
<!-- Generated by graphviz version 2.28.0 (20110507.0327)
 -->
<!-- Title: MMT Pages: 1 -->
<svg width="216pt" height="276pt"
 viewBox="0.00 0.00 215.68 276.00" xmlns="http://www.w3.org/2000/svg" xmlns:xlink="http://www.w3.org/1999/xlink">
<g id="graph1" class="graph" transform="scale(1 1) rotate(0) translate(4 272)">
<title>MMT</title>
<polygon fill="white" stroke="white" points="-4,5 -4,-272 212.68,-272 212.68,5 -4,5"/>
<g id="graph2" class="cluster"><title>cluster_local</title>
<polygon fill="none" stroke="black" points="17.6796,-8 17.6796,-60 129.68,-60 129.68,-8 17.6796,-8"/>
</g>
<!-- http://latin.omdoc.org/foundations/ftt?Reflection -->
<g id="node2" class="node"><title>http://latin.omdoc.org/foundations/ftt?Reflection</title>
<a xlink:href="http://latin.omdoc.org/foundations/ftt?Reflection" class="graphtheory">
<ellipse fill="none" stroke="black" cx="73.6796" cy="-34" rx="48.1437" ry="18"/>
<text text-anchor="middle" x="73.6796" y="-30.3" font-family="Times New Roman,serif" font-size="14.00">Reflection</text>
</a>
</g>
<!-- http://latin.omdoc.org/foundations/ftt?Bool -->
<g id="node3" class="node"><title>http://latin.omdoc.org/foundations/ftt?Bool</title>
<a xlink:href="http://latin.omdoc.org/foundations/ftt?Bool" class="graphtheory">
<ellipse fill="gray" stroke="black" cx="45.6796" cy="-106" rx="28.3955" ry="18"/>
<text text-anchor="middle" x="45.6796" y="-102.3" font-family="Times New Roman,serif" font-size="14.00">Bool</text>
</a>
</g>
<!-- http://latin.omdoc.org/foundations/ftt?Bool&#45;&gt;http://latin.omdoc.org/foundations/ftt?Reflection -->
<g id="edge3" class="edge"><title>http://latin.omdoc.org/foundations/ftt?Bool&#45;&gt;http://latin.omdoc.org/foundations/ftt?Reflection</title>
<a class="graphinclude">
<path fill="none" stroke="black" d="M52.3152,-88.411C55.5455,-80.3352 59.5071,-70.4312 63.1377,-61.3547"/>
<polygon fill="black" stroke="black" points="66.4328,-62.5409 66.8971,-51.9562 59.9335,-59.9411 66.4328,-62.5409"/>
</a>
</g>
<!-- http://latin.omdoc.org/logics/proof_theory?NEG -->
<g id="node5" class="node"><title>http://latin.omdoc.org/logics/proof_theory?NEG</title>
<a xlink:href="http://latin.omdoc.org/logics/proof_theory?NEG" class="graphtheory">
<ellipse fill="gray" stroke="black" cx="177.68" cy="-178" rx="29.3722" ry="18"/>
<text text-anchor="middle" x="177.68" y="-174.3" font-family="Times New Roman,serif" font-size="14.00">NEG</text>
</a>
</g>
<!-- http://latin.omdoc.org/logics/proof_theory?NEG&#45;&gt;http://latin.omdoc.org/foundations/ftt?Reflection -->
<g id="edge5" class="edge"><title>http://latin.omdoc.org/logics/proof_theory?NEG&#45;&gt;http://latin.omdoc.org/foundations/ftt?Reflection</title>
<a class="graphinclude">
<path fill="none" stroke="black" d="M166.152,-161.261C148.15,-136.681 113.211,-88.9754 91.8128,-59.7588"/>
<polygon fill="black" stroke="black" points="94.6336,-57.6867 85.9011,-51.6871 88.9862,-61.8228 94.6336,-57.6867"/>
</a>
</g>
<!-- http://latin.omdoc.org/foundations/ftt?Church -->
<g id="node7" class="node"><title>http://latin.omdoc.org/foundations/ftt?Church</title>
<a xlink:href="http://latin.omdoc.org/foundations/ftt?Church" class="graphtheory">
<ellipse fill="gray" stroke="black" cx="92.6796" cy="-178" rx="37.5442" ry="18"/>
<text text-anchor="middle" x="92.6796" y="-174.3" font-family="Times New Roman,serif" font-size="14.00">Church</text>
</a>
</g>
<!-- http://latin.omdoc.org/foundations/ftt?Church&#45;&gt;http://latin.omdoc.org/foundations/ftt?Reflection -->
<g id="edge7" class="edge"><title>http://latin.omdoc.org/foundations/ftt?Church&#45;&gt;http://latin.omdoc.org/foundations/ftt?Reflection</title>
<a class="graphinclude">
<path fill="none" stroke="black" d="M91.0471,-159.902C89.2663,-141.957 86.1957,-112.942 82.6796,-88 81.4887,-79.5525 80.0009,-70.3805 78.5799,-62.0784"/>
<polygon fill="black" stroke="black" points="82.0137,-61.3952 76.8433,-52.1477 75.1183,-62.6011 82.0137,-61.3952"/>
</a>
</g>
<!-- http://latin.omdoc.org/foundations/ftt?Church&#45;&gt;http://latin.omdoc.org/foundations/ftt?Bool -->
<g id="edge17" class="edge"><title>http://latin.omdoc.org/foundations/ftt?Church&#45;&gt;http://latin.omdoc.org/foundations/ftt?Bool</title>
<a class="graphinclude">
<path fill="none" stroke="black" d="M81.7787,-160.765C75.9653,-152.106 68.6915,-141.273 62.1994,-131.604"/>
<polygon fill="black" stroke="black" points="65.0015,-129.499 56.5214,-123.147 59.19,-133.401 65.0015,-129.499"/>
</a>
</g>
<!-- http://cds.omdoc.org/urtheories?LF -->
<g id="node9" class="node"><title>http://cds.omdoc.org/urtheories?LF</title>
<a xlink:href="http://cds.omdoc.org/urtheories?LF" class="graphtheory">
<ellipse fill="gray" stroke="black" cx="59.6796" cy="-250" rx="27" ry="18"/>
<text text-anchor="middle" x="59.6796" y="-246.3" font-family="Times New Roman,serif" font-size="14.00">LF</text>
</a>
</g>
<!-- http://cds.omdoc.org/urtheories?LF&#45;&gt;http://latin.omdoc.org/foundations/ftt?Reflection -->
<g id="edge9" class="edge"><title>http://cds.omdoc.org/urtheories?LF&#45;&gt;http://latin.omdoc.org/foundations/ftt?Reflection</title>
<a class="graphmeta">
<path fill="none" stroke="black" d="M47.3287,-233.835C25.1714,-204.668 -16.8308,-139.118 7.67959,-88 14.1728,-74.4581 25.9996,-63.2819 37.867,-54.7407"/>
<polygon fill="black" stroke="black" points="40.0843,-57.468 46.4397,-48.991 36.1851,-51.6544 40.0843,-57.468"/>
</a>
</g>
<!-- http://cds.omdoc.org/urtheories?LF&#45;&gt;http://latin.omdoc.org/foundations/ftt?Bool -->
<g id="edge11" class="edge"><title>http://cds.omdoc.org/urtheories?LF&#45;&gt;http://latin.omdoc.org/foundations/ftt?Bool</title>
<a class="graphmeta">
<path fill="none" stroke="black" d="M54.0014,-232.038C50.8581,-221.745 47.2727,-208.269 45.6796,-196 43.0104,-175.444 43.1387,-151.991 43.8656,-134.322"/>
<polygon fill="black" stroke="black" points="47.3706,-134.309 44.3759,-124.146 40.3794,-133.958 47.3706,-134.309"/>
</a>
</g>
<!-- http://cds.omdoc.org/urtheories?LF&#45;&gt;http://latin.omdoc.org/logics/proof_theory?NEG -->
<g id="edge15" class="edge"><title>http://cds.omdoc.org/urtheories?LF&#45;&gt;http://latin.omdoc.org/logics/proof_theory?NEG</title>
<a class="graphmeta">
<path fill="none" stroke="black" d="M79.1649,-237.441C98.0663,-226.228 126.982,-209.075 148.604,-196.248"/>
<polygon fill="black" stroke="black" points="150.559,-199.158 157.374,-191.046 146.987,-193.138 150.559,-199.158"/>
</a>
</g>
<!-- http://cds.omdoc.org/urtheories?LF&#45;&gt;http://latin.omdoc.org/foundations/ftt?Church -->
<g id="edge13" class="edge"><title>http://cds.omdoc.org/urtheories?LF&#45;&gt;http://latin.omdoc.org/foundations/ftt?Church</title>
<a class="graphmeta">
<path fill="none" stroke="black" d="M67.5001,-232.411C71.3478,-224.249 76.0758,-214.22 80.3917,-205.065"/>
<polygon fill="black" stroke="black" points="83.5875,-206.494 84.6859,-195.956 77.2559,-203.509 83.5875,-206.494"/>
</a>
</g>
</g>
</svg>
