<?xml version="1.0" encoding="UTF-8" standalone="no"?>
<!DOCTYPE svg PUBLIC "-//W3C//DTD SVG 1.1//EN"
 "http://www.w3.org/Graphics/SVG/1.1/DTD/svg11.dtd">
<!-- Generated by graphviz version 2.28.0 (20110507.0327)
 -->
<!-- Title: MMT Pages: 1 -->
<svg
 viewBox="0.00 0.00 309.70 348.00" xmlns="http://www.w3.org/2000/svg" xmlns:xlink="http://www.w3.org/1999/xlink">
<g id="graph1" class="graph" transform="scale(1 1) rotate(0) translate(4 344)">
<title>MMT</title>
<polygon fill="white" stroke="white" points="-4,5 -4,-344 306.7,-344 306.7,5 -4,5"/>
<g id="graph2" class="cluster"><title>cluster_local</title>
<polygon fill="none" stroke="black" points="8,-8 8,-204 232,-204 232,-8 8,-8"/>
</g>
<!-- http://latin.omdoc.org/logics/proof_theory?S5 -->
<g id="node2" class="node"><title>http://latin.omdoc.org/logics/proof_theory?S5</title>
<a xlink:href="http://latin.omdoc.org/logics/proof_theory?S5" class="graphtheory">
<ellipse fill="none" stroke="black" cx="115" cy="-106" rx="27" ry="18"/>
<text text-anchor="middle" x="115" y="-102.3" font-family="Times New Roman,serif" font-size="14.00">S5</text>
</a>
</g>
<!-- http://latin.omdoc.org/logics/proof_theory?T -->
<g id="node3" class="node"><title>http://latin.omdoc.org/logics/proof_theory?T</title>
<a xlink:href="http://latin.omdoc.org/logics/proof_theory?T" class="graphtheory">
<ellipse fill="none" stroke="black" cx="115" cy="-178" rx="27" ry="18"/>
<text text-anchor="middle" x="115" y="-174.3" font-family="Times New Roman,serif" font-size="14.00">T</text>
</a>
</g>
<!-- http://latin.omdoc.org/logics/proof_theory?T&#45;&gt;http://latin.omdoc.org/logics/proof_theory?S5 -->
<g id="edge3" class="edge"><title>http://latin.omdoc.org/logics/proof_theory?T&#45;&gt;http://latin.omdoc.org/logics/proof_theory?S5</title>
<a class="graphinclude">
<path fill="none" stroke="black" d="M115,-159.697C115,-151.983 115,-142.712 115,-134.112"/>
<polygon fill="black" stroke="black" points="118.5,-134.104 115,-124.104 111.5,-134.104 118.5,-134.104"/>
</a>
</g>
<!-- http://latin.omdoc.org/logics/proof_theory?S4 -->
<g id="node7" class="node"><title>http://latin.omdoc.org/logics/proof_theory?S4</title>
<a xlink:href="http://latin.omdoc.org/logics/proof_theory?S4" class="graphtheory">
<ellipse fill="none" stroke="black" cx="197" cy="-106" rx="27" ry="18"/>
<text text-anchor="middle" x="197" y="-102.3" font-family="Times New Roman,serif" font-size="14.00">S4</text>
</a>
</g>
<!-- http://latin.omdoc.org/logics/proof_theory?T&#45;&gt;http://latin.omdoc.org/logics/proof_theory?S4 -->
<g id="edge25" class="edge"><title>http://latin.omdoc.org/logics/proof_theory?T&#45;&gt;http://latin.omdoc.org/logics/proof_theory?S4</title>
<a class="graphinclude">
<path fill="none" stroke="black" d="M131.201,-163.17C143.183,-152.942 159.691,-138.849 173.175,-127.338"/>
<polygon fill="black" stroke="black" points="175.779,-129.717 181.112,-120.563 171.234,-124.394 175.779,-129.717"/>
</a>
</g>
<!-- http://latin.omdoc.org/logics/proof_theory?MLPf -->
<g id="node4" class="node"><title>http://latin.omdoc.org/logics/proof_theory?MLPf</title>
<a xlink:href="http://latin.omdoc.org/logics/proof_theory?MLPf" class="graphtheory">
<ellipse fill="none" stroke="black" cx="192" cy="-178" rx="32.2457" ry="18"/>
<text text-anchor="middle" x="192" y="-174.3" font-family="Times New Roman,serif" font-size="14.00">MLPf</text>
</a>
</g>
<!-- http://latin.omdoc.org/logics/proof_theory?S4b -->
<g id="node5" class="node"><title>http://latin.omdoc.org/logics/proof_theory?S4b</title>
<a xlink:href="http://latin.omdoc.org/logics/proof_theory?S4b" class="graphtheory">
<ellipse fill="none" stroke="black" cx="197" cy="-34" rx="27" ry="18"/>
<text text-anchor="middle" x="197" y="-30.3" font-family="Times New Roman,serif" font-size="14.00">S4b</text>
</a>
</g>
<!-- http://latin.omdoc.org/logics/proof_theory?D -->
<g id="node6" class="node"><title>http://latin.omdoc.org/logics/proof_theory?D</title>
<a xlink:href="http://latin.omdoc.org/logics/proof_theory?D" class="graphtheory">
<ellipse fill="none" stroke="black" cx="43" cy="-178" rx="27" ry="18"/>
<text text-anchor="middle" x="43" y="-174.3" font-family="Times New Roman,serif" font-size="14.00">D</text>
</a>
</g>
<!-- http://latin.omdoc.org/logics/proof_theory?S4&#45;&gt;http://latin.omdoc.org/logics/proof_theory?S4b -->
<g id="edge17" class="edge"><title>http://latin.omdoc.org/logics/proof_theory?S4&#45;&gt;http://latin.omdoc.org/logics/proof_theory?S4b</title>
<a class="graphinclude">
<path fill="none" stroke="black" d="M197,-87.6966C197,-79.9827 197,-70.7125 197,-62.1124"/>
<polygon fill="black" stroke="black" points="200.5,-62.1043 197,-52.1043 193.5,-62.1044 200.5,-62.1043"/>
</a>
</g>
<!-- http://cds.omdoc.org/urtheories?LF -->
<g id="node9" class="node"><title>http://cds.omdoc.org/urtheories?LF</title>
<a xlink:href="http://cds.omdoc.org/urtheories?LF" class="graphtheory">
<ellipse fill="gray" stroke="black" cx="214" cy="-322" rx="27" ry="18"/>
<text text-anchor="middle" x="214" y="-318.3" font-family="Times New Roman,serif" font-size="14.00">LF</text>
</a>
</g>
<!-- http://cds.omdoc.org/urtheories?LF&#45;&gt;http://latin.omdoc.org/logics/proof_theory?S5 -->
<g id="edge5" class="edge"><title>http://cds.omdoc.org/urtheories?LF&#45;&gt;http://latin.omdoc.org/logics/proof_theory?S5</title>
<a class="graphmeta">
<path fill="none" stroke="black" d="M222.247,-304.833C236.726,-273.955 262.511,-205.605 233,-160 227.975,-152.235 180.553,-132.516 147.381,-119.444"/>
<polygon fill="black" stroke="black" points="148.616,-116.169 138.028,-115.785 146.066,-122.688 148.616,-116.169"/>
</a>
</g>
<!-- http://cds.omdoc.org/urtheories?LF&#45;&gt;http://latin.omdoc.org/logics/proof_theory?T -->
<g id="edge9" class="edge"><title>http://cds.omdoc.org/urtheories?LF&#45;&gt;http://latin.omdoc.org/logics/proof_theory?T</title>
<a class="graphmeta">
<path fill="none" stroke="black" d="M188.926,-314.53C166.375,-307.263 134.485,-293.065 119,-268 107.598,-249.545 107.489,-224.598 109.721,-205.811"/>
<polygon fill="black" stroke="black" points="113.198,-206.227 111.192,-195.824 106.272,-205.207 113.198,-206.227"/>
</a>
</g>
<!-- http://cds.omdoc.org/urtheories?LF&#45;&gt;http://latin.omdoc.org/logics/proof_theory?MLPf -->
<g id="edge15" class="edge"><title>http://cds.omdoc.org/urtheories?LF&#45;&gt;http://latin.omdoc.org/logics/proof_theory?MLPf</title>
<a class="graphmeta">
<path fill="none" stroke="black" d="M211.346,-303.871C207.597,-279.67 200.709,-235.211 196.244,-206.393"/>
<polygon fill="black" stroke="black" points="199.653,-205.535 194.663,-196.189 192.736,-206.607 199.653,-205.535"/>
</a>
</g>
<!-- http://cds.omdoc.org/urtheories?LF&#45;&gt;http://latin.omdoc.org/logics/proof_theory?S4b -->
<g id="edge19" class="edge"><title>http://cds.omdoc.org/urtheories?LF&#45;&gt;http://latin.omdoc.org/logics/proof_theory?S4b</title>
<a class="graphmeta">
<path fill="none" stroke="black" d="M236.308,-311.642C253.584,-303.069 276.312,-288.568 287,-268 309.133,-225.405 302.855,-205.646 288,-160 274.491,-118.492 241.425,-79.2788 219.1,-56.1942"/>
<polygon fill="black" stroke="black" points="221.506,-53.6497 211.984,-49.0038 216.53,-58.5736 221.506,-53.6497"/>
</a>
</g>
<!-- http://cds.omdoc.org/urtheories?LF&#45;&gt;http://latin.omdoc.org/logics/proof_theory?D -->
<g id="edge23" class="edge"><title>http://cds.omdoc.org/urtheories?LF&#45;&gt;http://latin.omdoc.org/logics/proof_theory?D</title>
<a class="graphmeta">
<path fill="none" stroke="black" d="M187.593,-318.141C137.302,-312.093 30.8313,-296.193 9,-268 -6.34934,-248.178 8.39579,-220.629 22.9799,-201.452"/>
<polygon fill="black" stroke="black" points="25.8037,-203.525 29.3459,-193.54 20.35,-199.137 25.8037,-203.525"/>
</a>
</g>
<!-- http://cds.omdoc.org/urtheories?LF&#45;&gt;http://latin.omdoc.org/logics/proof_theory?S4 -->
<g id="edge27" class="edge"><title>http://cds.omdoc.org/urtheories?LF&#45;&gt;http://latin.omdoc.org/logics/proof_theory?S4</title>
<a class="graphmeta">
<path fill="none" stroke="black" d="M232.149,-308.506C244.262,-298.99 259.173,-284.706 266,-268 284.157,-223.567 287.219,-203.055 266,-160 257.927,-143.618 242.088,-130.888 227.62,-122.015"/>
<polygon fill="black" stroke="black" points="229.285,-118.935 218.871,-116.99 225.799,-125.005 229.285,-118.935"/>
</a>
</g>
<!-- http://latin.omdoc.org/logics/syntax?ML -->
<g id="node11" class="node"><title>http://latin.omdoc.org/logics/syntax?ML</title>
<a xlink:href="http://latin.omdoc.org/logics/syntax?ML" class="graphtheory">
<ellipse fill="gray" stroke="black" cx="45" cy="-250" rx="27" ry="18"/>
<text text-anchor="middle" x="45" y="-246.3" font-family="Times New Roman,serif" font-size="14.00">ML</text>
</a>
</g>
<!-- http://cds.omdoc.org/urtheories?LF&#45;&gt;http://latin.omdoc.org/logics/syntax?ML -->
<g id="edge29" class="edge"><title>http://cds.omdoc.org/urtheories?LF&#45;&gt;http://latin.omdoc.org/logics/syntax?ML</title>
<a class="graphmeta">
<path fill="none" stroke="black" d="M191.339,-311.621C165.755,-301.031 122.885,-283.283 86,-268 83.1035,-266.8 80.0921,-265.552 77.0754,-264.301"/>
<polygon fill="black" stroke="black" points="78.1339,-260.951 67.5559,-260.355 75.4531,-267.418 78.1339,-260.951"/>
</a>
</g>
<!-- http://latin.omdoc.org/logics/proof_theory?MPL -->
<g id="node14" class="node"><title>http://latin.omdoc.org/logics/proof_theory?MPL</title>
<a xlink:href="http://latin.omdoc.org/logics/proof_theory?MPL" class="graphtheory">
<ellipse fill="gray" stroke="black" cx="157" cy="-250" rx="29.3722" ry="18"/>
<text text-anchor="middle" x="157" y="-246.3" font-family="Times New Roman,serif" font-size="14.00">MPL</text>
</a>
</g>
<!-- http://cds.omdoc.org/urtheories?LF&#45;&gt;http://latin.omdoc.org/logics/proof_theory?MPL -->
<g id="edge31" class="edge"><title>http://cds.omdoc.org/urtheories?LF&#45;&gt;http://latin.omdoc.org/logics/proof_theory?MPL</title>
<a class="graphmeta">
<path fill="none" stroke="black" d="M201.632,-305.811C194.191,-296.673 184.563,-284.849 176.155,-274.524"/>
<polygon fill="black" stroke="black" points="178.767,-272.188 169.739,-266.644 173.339,-276.608 178.767,-272.188"/>
</a>
</g>
<!-- http://latin.omdoc.org/logics/syntax?ML&#45;&gt;http://latin.omdoc.org/logics/proof_theory?T -->
<g id="edge7" class="edge"><title>http://latin.omdoc.org/logics/syntax?ML&#45;&gt;http://latin.omdoc.org/logics/proof_theory?T</title>
<a class="graphinclude">
<path fill="none" stroke="black" d="M59.504,-234.496C69.2652,-224.735 82.3103,-211.69 93.3001,-200.7"/>
<polygon fill="black" stroke="black" points="95.9183,-203.031 100.515,-193.485 90.9686,-198.082 95.9183,-203.031"/>
</a>
</g>
<!-- http://latin.omdoc.org/logics/syntax?ML&#45;&gt;http://latin.omdoc.org/logics/proof_theory?MLPf -->
<g id="edge13" class="edge"><title>http://latin.omdoc.org/logics/syntax?ML&#45;&gt;http://latin.omdoc.org/logics/proof_theory?MLPf</title>
<a class="graphinclude">
<path fill="none" stroke="black" d="M68.1873,-240.288C89.9645,-231.843 123.258,-218.25 151,-204 154.838,-202.029 158.799,-199.833 162.678,-197.584"/>
<polygon fill="black" stroke="black" points="164.694,-200.456 171.48,-192.32 161.101,-194.449 164.694,-200.456"/>
</a>
</g>
<!-- http://latin.omdoc.org/logics/syntax?ML&#45;&gt;http://latin.omdoc.org/logics/proof_theory?D -->
<g id="edge21" class="edge"><title>http://latin.omdoc.org/logics/syntax?ML&#45;&gt;http://latin.omdoc.org/logics/proof_theory?D</title>
<a class="graphinclude">
<path fill="none" stroke="black" d="M44.5056,-231.697C44.2852,-223.983 44.0204,-214.712 43.7746,-206.112"/>
<polygon fill="black" stroke="black" points="47.273,-206 43.4887,-196.104 40.2758,-206.2 47.273,-206"/>
</a>
</g>
<!-- http://latin.omdoc.org/logics/proof_theory?MPL&#45;&gt;http://latin.omdoc.org/logics/proof_theory?MLPf -->
<g id="edge11" class="edge"><title>http://latin.omdoc.org/logics/proof_theory?MPL&#45;&gt;http://latin.omdoc.org/logics/proof_theory?MLPf</title>
<a class="graphinclude">
<path fill="none" stroke="black" d="M165.295,-232.411C169.435,-224.129 174.538,-213.925 179.169,-204.662"/>
<polygon fill="black" stroke="black" points="182.423,-205.979 183.765,-195.47 176.162,-202.849 182.423,-205.979"/>
</a>
</g>
</g>
</svg>
