<?xml version="1.0" encoding="UTF-8" standalone="no"?>
<!DOCTYPE svg PUBLIC "-//W3C//DTD SVG 1.1//EN"
 "http://www.w3.org/Graphics/SVG/1.1/DTD/svg11.dtd">
<!-- Generated by graphviz version 2.28.0 (20110507.0327)
 -->
<!-- Title: MMT Pages: 1 -->
<svg width="1736pt" height="354pt"
 viewBox="0.00 0.00 1736.00 354.00" xmlns="http://www.w3.org/2000/svg" xmlns:xlink="http://www.w3.org/1999/xlink">
<g id="graph1" class="graph" transform="scale(1 1) rotate(0) translate(4 350)">
<title>MMT</title>
<polygon fill="white" stroke="white" points="-4,5 -4,-350 1733,-350 1733,5 -4,5"/>
<g id="graph2" class="cluster"><title>cluster_local</title>
<polygon fill="none" stroke="black" points="1391,-66 1391,-206 1613,-206 1613,-66 1391,-66"/>
</g>
<!-- http://latin.omdoc.org/logics/syntax?Possibility -->
<g id="node2" class="node"><title>http://latin.omdoc.org/logics/syntax?Possibility</title>
<a xlink:href="http://latin.omdoc.org/logics/syntax?Possibility" class="graphtheory">
<ellipse fill="none" stroke="black" cx="1447" cy="-180" rx="48.1437" ry="18"/>
<text text-anchor="middle" x="1447" y="-176.3" font-family="Times New Roman,serif" font-size="14.00">Possibility</text>
</a>
</g>
<!-- http://latin.omdoc.org/logics/syntax?ML -->
<g id="node4" class="node"><title>http://latin.omdoc.org/logics/syntax?ML</title>
<a xlink:href="http://latin.omdoc.org/logics/syntax?ML" class="graphtheory">
<ellipse fill="none" stroke="black" cx="1578" cy="-92" rx="27" ry="18"/>
<text text-anchor="middle" x="1578" y="-88.3" font-family="Times New Roman,serif" font-size="14.00">ML</text>
</a>
</g>
<!-- http://latin.omdoc.org/logics/syntax?Possibility&#45;&gt;http://latin.omdoc.org/logics/syntax?ML -->
<g id="edge25" class="edge"><title>http://latin.omdoc.org/logics/syntax?Possibility&#45;&gt;http://latin.omdoc.org/logics/syntax?ML</title>
<a class="graphinclude">
<path fill="none" stroke="black" d="M1483.48,-168.078C1490.3,-166.049 1497.36,-163.953 1504,-162 1531.53,-153.9 1546.24,-164.805 1566,-144 1572.06,-137.623 1575.25,-128.788 1576.88,-120.262"/>
<polygon fill="black" stroke="black" points="1580.37,-120.566 1578.18,-110.2 1573.43,-119.67 1580.37,-120.566"/>
</a>
</g>
<!-- http://latin.omdoc.org/translations/ml_fol?ML&#45;FOL -->
<g id="node5" class="node"><title>http://latin.omdoc.org/translations/ml_fol?ML&#45;FOL</title>
<a xlink:href="http://latin.omdoc.org/translations/ml_fol?ML-FOL" class="graphtheory">
<ellipse fill="gray" stroke="black" cx="88" cy="-92" rx="44.2946" ry="18"/>
<text text-anchor="middle" x="88" y="-88.3" font-family="Times New Roman,serif" font-size="14.00">ML&#45;FOL</text>
</a>
</g>
<!-- http://latin.omdoc.org/logics/syntax?Possibility&#45;&gt;http://latin.omdoc.org/translations/ml_fol?ML&#45;FOL -->
<g id="edge3" class="edge"><title>http://latin.omdoc.org/logics/syntax?Possibility&#45;&gt;http://latin.omdoc.org/translations/ml_fol?ML&#45;FOL</title>
<a xlink:href="http://latin.omdoc.org/translations/ml_fol?Possibility" class="graphview">
<path fill="none" stroke="black" d="M1414.36,-166.69C1408.02,-164.769 1401.37,-163.069 1395,-162 1155.43,-121.808 539.939,-192.949 302,-144 283.649,-140.225 281.016,-133.141 263,-128 216.628,-114.766 203.206,-119.856 156,-110 148.793,-108.495 141.195,-106.752 133.793,-104.968"/>
<polygon fill="black" stroke="black" points="134.422,-101.518 123.875,-102.527 132.749,-108.316 134.422,-101.518"/>
</a>
<a xlink:href="http://latin.omdoc.org/translations/ml_fol?Possibility" class="Possibility">
<text text-anchor="middle" x="331" y="-132.3" font-family="Times New Roman,serif" font-size="14.00">Possibility</text>
</a>
</g>
<!-- http://latin.omdoc.org/logics/model_theory/kripke?Kripke -->
<g id="node7" class="node"><title>http://latin.omdoc.org/logics/model_theory/kripke?Kripke</title>
<a xlink:href="http://latin.omdoc.org/logics/model_theory/kripke?Kripke" class="graphtheory">
<ellipse fill="gray" stroke="black" cx="200" cy="-92" rx="35.1455" ry="18"/>
<text text-anchor="middle" x="200" y="-88.3" font-family="Times New Roman,serif" font-size="14.00">Kripke</text>
</a>
</g>
<!-- http://latin.omdoc.org/logics/syntax?Possibility&#45;&gt;http://latin.omdoc.org/logics/model_theory/kripke?Kripke -->
<g id="edge5" class="edge"><title>http://latin.omdoc.org/logics/syntax?Possibility&#45;&gt;http://latin.omdoc.org/logics/model_theory/kripke?Kripke</title>
<a xlink:href="http://latin.omdoc.org/logics/model_theory/kripke?Possibility" class="graphview">
<path fill="none" stroke="black" d="M1414.36,-166.729C1408.02,-164.804 1401.37,-163.092 1395,-162 1230.47,-133.763 806.873,-180.609 644,-144 626.917,-140.16 624.957,-132.364 608,-128 540.379,-110.597 336.318,-99.2942 245.011,-94.9765"/>
<polygon fill="black" stroke="black" points="245.123,-91.478 234.971,-94.5084 244.797,-98.4704 245.123,-91.478"/>
</a>
<a xlink:href="http://latin.omdoc.org/logics/model_theory/kripke?Possibility" class="Possibility">
<text text-anchor="middle" x="673" y="-132.3" font-family="Times New Roman,serif" font-size="14.00">Possibility</text>
</a>
</g>
<!-- http://latin.omdoc.org/logics/model_theory/kripke?ML -->
<g id="node9" class="node"><title>http://latin.omdoc.org/logics/model_theory/kripke?ML</title>
<a xlink:href="http://latin.omdoc.org/logics/model_theory/kripke?ML" class="graphtheory">
<ellipse fill="gray" stroke="black" cx="1002" cy="-92" rx="27" ry="18"/>
<text text-anchor="middle" x="1002" y="-88.3" font-family="Times New Roman,serif" font-size="14.00">ML</text>
</a>
</g>
<!-- http://latin.omdoc.org/logics/syntax?Possibility&#45;&gt;http://latin.omdoc.org/logics/model_theory/kripke?ML -->
<g id="edge7" class="edge"><title>http://latin.omdoc.org/logics/syntax?Possibility&#45;&gt;http://latin.omdoc.org/logics/model_theory/kripke?ML</title>
<a xlink:href="http://latin.omdoc.org/logics/model_theory/kripke?ML?[http://latin.omdoc.org/logics/syntax?Possibility]" class="graphstructure">
<path fill="none" stroke="black" d="M1413.08,-167.131C1407.1,-165.262 1400.9,-163.467 1395,-162 1349.48,-150.682 1336.19,-156.59 1291,-144 1272.16,-138.75 1268.92,-132.956 1250,-128 1176.52,-108.757 1087.85,-99.4789 1038.93,-95.5261"/>
<polygon fill="black" stroke="black" points="1039.07,-92.0263 1028.83,-94.7402 1038.52,-99.0052 1039.07,-92.0263"/>
</a>
<a xlink:href="http://latin.omdoc.org/logics/model_theory/kripke?ML?[http://latin.omdoc.org/logics/syntax?Possibility]" class="[http://latin.omdoc.org/logics/syntax?Possibility]">
<text text-anchor="middle" x="1426.5" y="-132.3" font-family="Times New Roman,serif" font-size="14.00">[http://latin.omdoc.org/logics/syntax?Possibility]</text>
</a>
</g>
<!-- http://latin.omdoc.org/translations/ml_fol?ML -->
<g id="node11" class="node"><title>http://latin.omdoc.org/translations/ml_fol?ML</title>
<a xlink:href="http://latin.omdoc.org/translations/ml_fol?ML" class="graphtheory">
<ellipse fill="gray" stroke="black" cx="648" cy="-92" rx="27" ry="18"/>
<text text-anchor="middle" x="648" y="-88.3" font-family="Times New Roman,serif" font-size="14.00">ML</text>
</a>
</g>
<!-- http://latin.omdoc.org/logics/syntax?Possibility&#45;&gt;http://latin.omdoc.org/translations/ml_fol?ML -->
<g id="edge9" class="edge"><title>http://latin.omdoc.org/logics/syntax?Possibility&#45;&gt;http://latin.omdoc.org/translations/ml_fol?ML</title>
<a xlink:href="http://latin.omdoc.org/translations/ml_fol?ML?[http://latin.omdoc.org/logics/syntax?Possibility]" class="graphstructure">
<path fill="none" stroke="black" d="M1414.06,-166.741C1407.81,-164.841 1401.26,-163.136 1395,-162 1303.08,-145.33 1063.2,-174.785 975,-144 963.585,-140.016 964.265,-132.389 953,-128 904.936,-109.273 755.187,-98.8559 685.001,-94.8884"/>
<polygon fill="black" stroke="black" points="685.023,-91.3844 674.845,-94.3282 684.637,-98.3738 685.023,-91.3844"/>
</a>
<a xlink:href="http://latin.omdoc.org/translations/ml_fol?ML?[http://latin.omdoc.org/logics/syntax?Possibility]" class="[http://latin.omdoc.org/logics/syntax?Possibility]">
<text text-anchor="middle" x="1110.5" y="-132.3" font-family="Times New Roman,serif" font-size="14.00">[http://latin.omdoc.org/logics/syntax?Possibility]</text>
</a>
</g>
<!-- http://latin.omdoc.org/logics/syntax?Necessity -->
<g id="node3" class="node"><title>http://latin.omdoc.org/logics/syntax?Necessity</title>
<a xlink:href="http://latin.omdoc.org/logics/syntax?Necessity" class="graphtheory">
<ellipse fill="none" stroke="black" cx="1559" cy="-180" rx="46.2191" ry="18"/>
<text text-anchor="middle" x="1559" y="-176.3" font-family="Times New Roman,serif" font-size="14.00">Necessity</text>
</a>
</g>
<!-- http://latin.omdoc.org/logics/syntax?Necessity&#45;&gt;http://latin.omdoc.org/logics/syntax?ML -->
<g id="edge27" class="edge"><title>http://latin.omdoc.org/logics/syntax?Necessity&#45;&gt;http://latin.omdoc.org/logics/syntax?ML</title>
<a class="graphinclude">
<path fill="none" stroke="black" d="M1566.83,-162.227C1569.17,-156.552 1571.51,-150.104 1573,-144 1574.85,-136.394 1576.02,-127.99 1576.76,-120.237"/>
<polygon fill="black" stroke="black" points="1580.26,-120.438 1577.52,-110.202 1573.28,-119.909 1580.26,-120.438"/>
</a>
</g>
<!-- http://latin.omdoc.org/logics/proof_theory?T -->
<g id="node19" class="node"><title>http://latin.omdoc.org/logics/proof_theory?T</title>
<a xlink:href="http://latin.omdoc.org/logics/proof_theory?T" class="graphtheory">
<ellipse fill="gray" stroke="black" cx="1525" cy="-18" rx="27" ry="18"/>
<text text-anchor="middle" x="1525" y="-14.3" font-family="Times New Roman,serif" font-size="14.00">T</text>
</a>
</g>
<!-- http://latin.omdoc.org/logics/syntax?ML&#45;&gt;http://latin.omdoc.org/logics/proof_theory?T -->
<g id="edge19" class="edge"><title>http://latin.omdoc.org/logics/syntax?ML&#45;&gt;http://latin.omdoc.org/logics/proof_theory?T</title>
<a class="graphinclude">
<path fill="none" stroke="black" d="M1566.5,-75.3771C1559.49,-65.8477 1550.38,-53.478 1542.49,-42.7542"/>
<polygon fill="black" stroke="black" points="1545.22,-40.571 1536.48,-34.5924 1539.59,-44.7207 1545.22,-40.571"/>
</a>
</g>
<!-- http://latin.omdoc.org/logics/proof_theory?MLPf -->
<g id="node21" class="node"><title>http://latin.omdoc.org/logics/proof_theory?MLPf</title>
<a xlink:href="http://latin.omdoc.org/logics/proof_theory?MLPf" class="graphtheory">
<ellipse fill="gray" stroke="black" cx="1617" cy="-18" rx="32.2457" ry="18"/>
<text text-anchor="middle" x="1617" y="-14.3" font-family="Times New Roman,serif" font-size="14.00">MLPf</text>
</a>
</g>
<!-- http://latin.omdoc.org/logics/syntax?ML&#45;&gt;http://latin.omdoc.org/logics/proof_theory?MLPf -->
<g id="edge21" class="edge"><title>http://latin.omdoc.org/logics/syntax?ML&#45;&gt;http://latin.omdoc.org/logics/proof_theory?MLPf</title>
<a class="graphinclude">
<path fill="none" stroke="black" d="M1586.85,-74.6621C1591.62,-65.8584 1597.61,-54.7917 1603,-44.8497"/>
<polygon fill="black" stroke="black" points="1606.23,-46.2329 1607.91,-35.7729 1600.07,-42.8988 1606.23,-46.2329"/>
</a>
</g>
<!-- http://latin.omdoc.org/logics/proof_theory?D -->
<g id="node23" class="node"><title>http://latin.omdoc.org/logics/proof_theory?D</title>
<a xlink:href="http://latin.omdoc.org/logics/proof_theory?D" class="graphtheory">
<ellipse fill="gray" stroke="black" cx="1701" cy="-18" rx="27" ry="18"/>
<text text-anchor="middle" x="1701" y="-14.3" font-family="Times New Roman,serif" font-size="14.00">D</text>
</a>
</g>
<!-- http://latin.omdoc.org/logics/syntax?ML&#45;&gt;http://latin.omdoc.org/logics/proof_theory?D -->
<g id="edge23" class="edge"><title>http://latin.omdoc.org/logics/syntax?ML&#45;&gt;http://latin.omdoc.org/logics/proof_theory?D</title>
<a class="graphinclude">
<path fill="none" stroke="black" d="M1593.93,-77.1096C1598.64,-73.3002 1603.9,-69.3113 1609,-66 1628.39,-53.4231 1651.56,-41.6005 1669.8,-32.9589"/>
<polygon fill="black" stroke="black" points="1671.52,-36.0186 1679.11,-28.6219 1668.57,-29.6738 1671.52,-36.0186"/>
</a>
</g>
<!-- http://latin.omdoc.org/logics/syntax?Logic -->
<g id="node13" class="node"><title>http://latin.omdoc.org/logics/syntax?Logic</title>
<a xlink:href="http://latin.omdoc.org/logics/syntax?Logic" class="graphtheory">
<ellipse fill="gray" stroke="black" cx="1459" cy="-254" rx="31.2735" ry="18"/>
<text text-anchor="middle" x="1459" y="-250.3" font-family="Times New Roman,serif" font-size="14.00">Logic</text>
</a>
</g>
<!-- http://latin.omdoc.org/logics/syntax?Logic&#45;&gt;http://latin.omdoc.org/logics/syntax?Possibility -->
<g id="edge11" class="edge"><title>http://latin.omdoc.org/logics/syntax?Logic&#45;&gt;http://latin.omdoc.org/logics/syntax?Possibility</title>
<a class="graphinclude">
<path fill="none" stroke="black" d="M1456.16,-235.937C1454.79,-227.719 1453.11,-217.66 1451.57,-208.406"/>
<polygon fill="black" stroke="black" points="1455,-207.729 1449.91,-198.441 1448.1,-208.88 1455,-207.729"/>
</a>
</g>
<!-- http://latin.omdoc.org/logics/syntax?Logic&#45;&gt;http://latin.omdoc.org/logics/syntax?Necessity -->
<g id="edge15" class="edge"><title>http://latin.omdoc.org/logics/syntax?Logic&#45;&gt;http://latin.omdoc.org/logics/syntax?Necessity</title>
<a class="graphinclude">
<path fill="none" stroke="black" d="M1477.81,-239.457C1492.36,-228.981 1512.78,-214.281 1529.5,-202.243"/>
<polygon fill="black" stroke="black" points="1531.78,-204.91 1537.85,-196.227 1527.69,-199.229 1531.78,-204.91"/>
</a>
</g>
<!-- http://latin.omdoc.org/logics/syntax?Logic&#45;&gt;http://latin.omdoc.org/translations/ml_fol?ML&#45;FOL -->
<g id="edge59" class="edge"><title>http://latin.omdoc.org/logics/syntax?Logic&#45;&gt;http://latin.omdoc.org/translations/ml_fol?ML&#45;FOL</title>
<a xlink:href="http://latin.omdoc.org/translations/ml_fol?Base" class="graphview">
<path fill="none" stroke="black" d="M1427.6,-252.689C1259.36,-250.932 463.128,-241.496 218,-218 185.27,-214.863 171.504,-225.458 145,-206 116.698,-185.223 101.52,-146.358 94.1088,-120.081"/>
<polygon fill="black" stroke="black" points="97.4798,-119.137 91.5556,-110.353 90.7091,-120.914 97.4798,-119.137"/>
</a>
<a xlink:href="http://latin.omdoc.org/translations/ml_fol?Base" class="Base">
<text text-anchor="middle" x="159" y="-176.3" font-family="Times New Roman,serif" font-size="14.00">Base</text>
</a>
</g>
<!-- http://latin.omdoc.org/logics/syntax?Logic&#45;&gt;http://latin.omdoc.org/logics/model_theory/kripke?Kripke -->
<g id="edge55" class="edge"><title>http://latin.omdoc.org/logics/syntax?Logic&#45;&gt;http://latin.omdoc.org/logics/model_theory/kripke?Kripke</title>
<a xlink:href="http://latin.omdoc.org/logics/model_theory/kripke?Base" class="graphview">
<path fill="none" stroke="black" d="M1427.5,-252.147C1318.71,-248.996 948.87,-236.573 645,-206 452.445,-186.627 359.127,-272.027 214,-144 207.171,-137.975 203.532,-128.963 201.636,-120.183"/>
<polygon fill="black" stroke="black" points="205.079,-119.54 200.125,-110.175 198.157,-120.586 205.079,-119.54"/>
</a>
<a xlink:href="http://latin.omdoc.org/logics/model_theory/kripke?Base" class="Base">
<text text-anchor="middle" x="659" y="-176.3" font-family="Times New Roman,serif" font-size="14.00">Base</text>
</a>
</g>
<!-- http://latin.omdoc.org/logics/syntax?Logic&#45;&gt;http://latin.omdoc.org/logics/model_theory/kripke?Kripke -->
<g id="edge57" class="edge"><title>http://latin.omdoc.org/logics/syntax?Logic&#45;&gt;http://latin.omdoc.org/logics/model_theory/kripke?Kripke</title>
<a xlink:href="http://latin.omdoc.org/logics/model_theory/kripke?BasePL" class="graphview">
<path fill="none" stroke="black" d="M1427.56,-253.069C1236.09,-253.334 233.681,-252.497 190,-206 168.453,-183.064 177.7,-144.736 187.694,-119.166"/>
<polygon fill="black" stroke="black" points="191.014,-120.3 191.643,-109.724 184.556,-117.599 191.014,-120.3"/>
</a>
<a xlink:href="http://latin.omdoc.org/logics/model_theory/kripke?BasePL" class="BasePL">
<text text-anchor="middle" x="212" y="-176.3" font-family="Times New Roman,serif" font-size="14.00">BasePL</text>
</a>
</g>
<!-- http://latin.omdoc.org/logics/syntax?MPL -->
<g id="node27" class="node"><title>http://latin.omdoc.org/logics/syntax?MPL</title>
<a xlink:href="http://latin.omdoc.org/logics/syntax?MPL" class="graphtheory">
<ellipse fill="gray" stroke="black" cx="711" cy="-180" rx="29.3722" ry="18"/>
<text text-anchor="middle" x="711" y="-176.3" font-family="Times New Roman,serif" font-size="14.00">MPL</text>
</a>
</g>
<!-- http://latin.omdoc.org/logics/syntax?Logic&#45;&gt;http://latin.omdoc.org/logics/syntax?MPL -->
<g id="edge61" class="edge"><title>http://latin.omdoc.org/logics/syntax?Logic&#45;&gt;http://latin.omdoc.org/logics/syntax?MPL</title>
<a class="graphinclude">
<path fill="none" stroke="black" d="M1428.28,-250.043C1309.58,-238.617 880.911,-197.355 749.541,-184.71"/>
<polygon fill="black" stroke="black" points="749.824,-181.221 739.535,-183.747 749.153,-188.189 749.824,-181.221"/>
</a>
</g>
<!-- http://cds.omdoc.org/urtheories?LF -->
<g id="node15" class="node"><title>http://cds.omdoc.org/urtheories?LF</title>
<a xlink:href="http://cds.omdoc.org/urtheories?LF" class="graphtheory">
<ellipse fill="gray" stroke="black" cx="1595" cy="-328" rx="27" ry="18"/>
<text text-anchor="middle" x="1595" y="-324.3" font-family="Times New Roman,serif" font-size="14.00">LF</text>
</a>
</g>
<!-- http://cds.omdoc.org/urtheories?LF&#45;&gt;http://latin.omdoc.org/logics/syntax?Possibility -->
<g id="edge13" class="edge"><title>http://cds.omdoc.org/urtheories?LF&#45;&gt;http://latin.omdoc.org/logics/syntax?Possibility</title>
<a class="graphmeta">
<path fill="none" stroke="black" d="M1587.65,-310.664C1576.32,-287.055 1552.55,-243.247 1521,-216 1517.88,-213.302 1502.34,-205.842 1486.31,-198.5"/>
<polygon fill="black" stroke="black" points="1487.45,-195.175 1476.9,-194.227 1484.56,-201.549 1487.45,-195.175"/>
</a>
</g>
<!-- http://cds.omdoc.org/urtheories?LF&#45;&gt;http://latin.omdoc.org/logics/syntax?Necessity -->
<g id="edge17" class="edge"><title>http://cds.omdoc.org/urtheories?LF&#45;&gt;http://latin.omdoc.org/logics/syntax?Necessity</title>
<a class="graphmeta">
<path fill="none" stroke="black" d="M1591.95,-309.924C1587.89,-287.998 1580.15,-248.858 1571,-216 1570.22,-213.215 1569.35,-210.328 1568.44,-207.461"/>
<polygon fill="black" stroke="black" points="1571.75,-206.339 1565.26,-197.964 1565.11,-208.558 1571.75,-206.339"/>
</a>
</g>
<!-- http://cds.omdoc.org/urtheories?LF&#45;&gt;http://latin.omdoc.org/logics/syntax?ML -->
<g id="edge31" class="edge"><title>http://cds.omdoc.org/urtheories?LF&#45;&gt;http://latin.omdoc.org/logics/syntax?ML</title>
<a class="graphmeta">
<path fill="none" stroke="black" d="M1600.74,-310.364C1610.26,-280.326 1627.05,-215.211 1614,-162 1610.12,-146.16 1601.89,-129.918 1594.28,-117.174"/>
<polygon fill="black" stroke="black" points="1597.18,-115.206 1588.92,-108.569 1591.24,-118.907 1597.18,-115.206"/>
</a>
</g>
<!-- http://cds.omdoc.org/urtheories?LF&#45;&gt;http://latin.omdoc.org/translations/ml_fol?ML&#45;FOL -->
<g id="edge49" class="edge"><title>http://cds.omdoc.org/urtheories?LF&#45;&gt;http://latin.omdoc.org/translations/ml_fol?ML&#45;FOL</title>
<a class="graphmeta">
<path fill="none" stroke="black" d="M1567.77,-327.136C1381.38,-327.915 297.329,-329.919 164,-272 125.077,-255.092 112.873,-244.489 95,-206 82.3649,-178.791 82.3076,-143.86 84.3216,-120.087"/>
<polygon fill="black" stroke="black" points="87.8158,-120.321 85.3549,-110.016 80.8523,-119.607 87.8158,-120.321"/>
</a>
</g>
<!-- http://cds.omdoc.org/urtheories?LF&#45;&gt;http://latin.omdoc.org/logics/model_theory/kripke?Kripke -->
<g id="edge45" class="edge"><title>http://cds.omdoc.org/urtheories?LF&#45;&gt;http://latin.omdoc.org/logics/model_theory/kripke?Kripke</title>
<a class="graphmeta">
<path fill="none" stroke="black" d="M1567.74,-326.976C1373.85,-326.529 208.559,-319.13 107,-206 93.9364,-191.448 97.4935,-179.089 107,-162 114.374,-148.743 123.602,-152.742 136,-144 149.081,-134.776 163.043,-123.794 174.577,-114.388"/>
<polygon fill="black" stroke="black" points="177.005,-116.923 182.5,-107.864 172.555,-111.519 177.005,-116.923"/>
</a>
</g>
<!-- http://cds.omdoc.org/urtheories?LF&#45;&gt;http://latin.omdoc.org/logics/syntax?Logic -->
<g id="edge53" class="edge"><title>http://cds.omdoc.org/urtheories?LF&#45;&gt;http://latin.omdoc.org/logics/syntax?Logic</title>
<a class="graphmeta">
<path fill="none" stroke="black" d="M1570.78,-319.828C1552.12,-313.779 1526.05,-304.166 1505,-292 1497.22,-287.502 1489.37,-281.745 1482.42,-276.118"/>
<polygon fill="black" stroke="black" points="1484.63,-273.405 1474.72,-269.656 1480.13,-278.766 1484.63,-273.405"/>
</a>
</g>
<!-- http://cds.omdoc.org/urtheories?LF&#45;&gt;http://latin.omdoc.org/logics/proof_theory?T -->
<g id="edge47" class="edge"><title>http://cds.omdoc.org/urtheories?LF&#45;&gt;http://latin.omdoc.org/logics/proof_theory?T</title>
<a class="graphmeta">
<path fill="none" stroke="black" d="M1567.95,-326.747C1401.53,-325.122 514.712,-315.472 244,-292 134.726,-282.525 0,-364.684 0,-255 0,-255 0,-255 0,-91 0,-71.8837 16.8899,-72.1201 35,-66 176.279,-18.256 1270.94,-18.3848 1487.75,-18.8847"/>
<polygon fill="black" stroke="black" points="1487.97,-22.3852 1497.98,-18.9102 1487.98,-15.3852 1487.97,-22.3852"/>
</a>
</g>
<!-- http://cds.omdoc.org/urtheories?LF&#45;&gt;http://latin.omdoc.org/logics/proof_theory?MLPf -->
<g id="edge51" class="edge"><title>http://cds.omdoc.org/urtheories?LF&#45;&gt;http://latin.omdoc.org/logics/proof_theory?MLPf</title>
<a class="graphmeta">
<path fill="none" stroke="black" d="M1616.98,-317.543C1639.43,-306.231 1671,-284.989 1671,-255 1671,-255 1671,-255 1671,-91 1671,-70.6973 1657.09,-52.4555 1643.39,-39.4131"/>
<polygon fill="black" stroke="black" points="1645.68,-36.7673 1635.89,-32.7222 1641.02,-41.9909 1645.68,-36.7673"/>
</a>
</g>
<!-- http://cds.omdoc.org/urtheories?LF&#45;&gt;http://latin.omdoc.org/logics/proof_theory?D -->
<g id="edge43" class="edge"><title>http://cds.omdoc.org/urtheories?LF&#45;&gt;http://latin.omdoc.org/logics/proof_theory?D</title>
<a class="graphmeta">
<path fill="none" stroke="black" d="M1620.87,-322.499C1654.5,-314.991 1709,-296.433 1709,-255 1709,-255 1709,-255 1709,-91 1709,-76.114 1707.29,-59.6022 1705.45,-46.1499"/>
<polygon fill="black" stroke="black" points="1708.89,-45.4935 1703.98,-36.1069 1701.97,-46.5088 1708.89,-45.4935"/>
</a>
</g>
<!-- http://cds.omdoc.org/urtheories?LF&#45;&gt;http://latin.omdoc.org/logics/syntax?MPL -->
<g id="edge41" class="edge"><title>http://cds.omdoc.org/urtheories?LF&#45;&gt;http://latin.omdoc.org/logics/syntax?MPL</title>
<a class="graphmeta">
<path fill="none" stroke="black" d="M1580.03,-312.794C1553.08,-287.222 1499.16,-236.069 1499,-236 1430.11,-205.717 900.124,-186.933 750.323,-182.19"/>
<polygon fill="black" stroke="black" points="750.311,-178.688 740.206,-181.872 750.092,-185.684 750.311,-178.688"/>
</a>
</g>
<!-- http://latin.omdoc.org/logics/syntax?MPL&#45;&gt;http://latin.omdoc.org/logics/syntax?ML -->
<g id="edge29" class="edge"><title>http://latin.omdoc.org/logics/syntax?MPL&#45;&gt;http://latin.omdoc.org/logics/syntax?ML</title>
<a class="graphinclude">
<path fill="none" stroke="black" d="M740.114,-178.819C837.462,-177.948 1150.89,-172.909 1247,-144 1260.73,-139.872 1261.28,-132.134 1275,-128 1391,-93.0527 1430.69,-143.929 1547,-110 1547.9,-109.737 1548.81,-109.444 1549.71,-109.127"/>
<polygon fill="black" stroke="black" points="1551.45,-112.185 1559.22,-104.976 1548.65,-105.77 1551.45,-112.185"/>
</a>
</g>
<!-- http://latin.omdoc.org/logics/syntax?MPL&#45;&gt;http://latin.omdoc.org/translations/ml_fol?ML&#45;FOL -->
<g id="edge37" class="edge"><title>http://latin.omdoc.org/logics/syntax?MPL&#45;&gt;http://latin.omdoc.org/translations/ml_fol?ML&#45;FOL</title>
<a xlink:href="http://latin.omdoc.org/translations/ml_fol?MPL" class="graphview">
<path fill="none" stroke="black" d="M681.797,-178.647C585.623,-177.237 279.572,-170.709 185,-144 161.24,-137.29 136.644,-124.278 118.165,-113.078"/>
<polygon fill="black" stroke="black" points="119.955,-110.069 109.615,-107.76 116.258,-116.014 119.955,-110.069"/>
</a>
<a xlink:href="http://latin.omdoc.org/translations/ml_fol?MPL" class="MPL">
<text text-anchor="middle" x="199.5" y="-132.3" font-family="Times New Roman,serif" font-size="14.00">MPL</text>
</a>
</g>
<!-- http://latin.omdoc.org/logics/syntax?MPL&#45;&gt;http://latin.omdoc.org/logics/model_theory/kripke?Kripke -->
<g id="edge33" class="edge"><title>http://latin.omdoc.org/logics/syntax?MPL&#45;&gt;http://latin.omdoc.org/logics/model_theory/kripke?Kripke</title>
<a xlink:href="http://latin.omdoc.org/logics/model_theory/kripke?MPL" class="graphview">
<path fill="none" stroke="black" d="M681.863,-178.342C584.239,-175.933 272.643,-166.539 234,-144 224.108,-138.231 216.525,-128.3 211.057,-118.726"/>
<polygon fill="black" stroke="black" points="214.15,-117.088 206.457,-109.804 207.929,-120.296 214.15,-117.088"/>
</a>
<a xlink:href="http://latin.omdoc.org/logics/model_theory/kripke?MPL" class="MPL">
<text text-anchor="middle" x="248.5" y="-132.3" font-family="Times New Roman,serif" font-size="14.00">MPL</text>
</a>
</g>
<!-- http://latin.omdoc.org/logics/syntax?MPL&#45;&gt;http://latin.omdoc.org/logics/model_theory/kripke?ML -->
<g id="edge39" class="edge"><title>http://latin.omdoc.org/logics/syntax?MPL&#45;&gt;http://latin.omdoc.org/logics/model_theory/kripke?ML</title>
<a xlink:href="http://latin.omdoc.org/logics/model_theory/kripke?ML?[http://latin.omdoc.org/logics/syntax?MPL]" class="graphstructure">
<path fill="none" stroke="black" d="M706.128,-161.776C704.145,-150.769 703.922,-136.933 712,-128 728.695,-109.536 890.371,-98.8063 964.815,-94.8081"/>
<polygon fill="black" stroke="black" points="965.335,-98.2858 975.138,-94.267 964.969,-91.2954 965.335,-98.2858"/>
</a>
<a xlink:href="http://latin.omdoc.org/logics/model_theory/kripke?ML?[http://latin.omdoc.org/logics/syntax?MPL]" class="[http://latin.omdoc.org/logics/syntax?MPL]">
<text text-anchor="middle" x="832.5" y="-132.3" font-family="Times New Roman,serif" font-size="14.00">[http://latin.omdoc.org/logics/syntax?MPL]</text>
</a>
</g>
<!-- http://latin.omdoc.org/logics/syntax?MPL&#45;&gt;http://latin.omdoc.org/translations/ml_fol?ML -->
<g id="edge35" class="edge"><title>http://latin.omdoc.org/logics/syntax?MPL&#45;&gt;http://latin.omdoc.org/translations/ml_fol?ML</title>
<a xlink:href="http://latin.omdoc.org/translations/ml_fol?ML?[http://latin.omdoc.org/logics/syntax?MPL]" class="graphstructure">
<path fill="none" stroke="black" d="M681.747,-178.222C602.456,-175.812 387.951,-167.191 367,-144 362.233,-138.723 362.293,-133.33 367,-128 382.897,-110 538.222,-99.088 610.879,-94.9298"/>
<polygon fill="black" stroke="black" points="611.183,-98.4183 620.972,-94.3653 610.792,-91.4293 611.183,-98.4183"/>
</a>
<a xlink:href="http://latin.omdoc.org/translations/ml_fol?ML?[http://latin.omdoc.org/logics/syntax?MPL]" class="[http://latin.omdoc.org/logics/syntax?MPL]">
<text text-anchor="middle" x="487.5" y="-132.3" font-family="Times New Roman,serif" font-size="14.00">[http://latin.omdoc.org/logics/syntax?MPL]</text>
</a>
</g>
</g>
</svg>
