<?xml version="1.0" encoding="UTF-8" standalone="no"?>
<!DOCTYPE svg PUBLIC "-//W3C//DTD SVG 1.1//EN"
 "http://www.w3.org/Graphics/SVG/1.1/DTD/svg11.dtd">
<!-- Generated by graphviz version 2.28.0 (20110507.0327)
 -->
<!-- Title: MMT Pages: 1 -->
<svg width="471pt" height="354pt"
 viewBox="0.00 0.00 470.93 354.00" xmlns="http://www.w3.org/2000/svg" xmlns:xlink="http://www.w3.org/1999/xlink">
<g id="graph1" class="graph" transform="scale(1 1) rotate(0) translate(4 350)">
<title>MMT</title>
<polygon fill="white" stroke="white" points="-4,5 -4,-350 467.925,-350 467.925,5 -4,5"/>
<g id="graph2" class="cluster"><title>cluster_local</title>
<polygon fill="none" stroke="black" points="14.9252,-80 14.9252,-280 146.925,-280 146.925,-80 14.9252,-80"/>
</g>
<!-- http://latin.omdoc.org/logics/syntax?CASLSorted -->
<g id="node2" class="node"><title>http://latin.omdoc.org/logics/syntax?CASLSorted</title>
<a xlink:href="javascript:parent.navigate(&#39;http://latin.omdoc.org/logics/syntax?CASLSorted&#39;)" xlink:title="theory http://latin.omdoc.org/logics/syntax?CASLSorted">
<ellipse fill="none" stroke="black" cx="80.9252" cy="-180" rx="58.2422" ry="18"/>
<text text-anchor="middle" x="80.9252" y="-176.3" font-family="Times New Roman,serif" font-size="14.00">CASLSorted</text>
</a>
</g>
<!-- http://latin.omdoc.org/logics/syntax?Typing -->
<g id="node4" class="node"><title>http://latin.omdoc.org/logics/syntax?Typing</title>
<a xlink:href="javascript:parent.navigate(&#39;http://latin.omdoc.org/logics/syntax?Typing&#39;)" xlink:title="theory http://latin.omdoc.org/logics/syntax?Typing">
<ellipse fill="none" stroke="black" cx="58.9252" cy="-106" rx="36.096" ry="18"/>
<text text-anchor="middle" x="58.9252" y="-102.3" font-family="Times New Roman,serif" font-size="14.00">Typing</text>
</a>
</g>
<!-- http://latin.omdoc.org/logics/syntax?CASLSorted&#45;&gt;http://latin.omdoc.org/logics/syntax?Typing -->
<g id="edge17" class="edge"><title>http://latin.omdoc.org/logics/syntax?CASLSorted&#45;&gt;http://latin.omdoc.org/logics/syntax?Typing</title>
<a xlink:title="include">
<path fill="none" stroke="black" d="M75.7116,-161.937C73.1361,-153.508 69.9691,-143.143 67.0825,-133.696"/>
<polygon fill="black" stroke="black" points="70.371,-132.481 64.1015,-123.941 63.6765,-134.527 70.371,-132.481"/>
</a>
</g>
<!-- http://latin.omdoc.org/logics/syntax?Subsorted&#45;Sorted -->
<g id="node5" class="node"><title>http://latin.omdoc.org/logics/syntax?Subsorted&#45;Sorted</title>
<a xlink:href="javascript:parent.navigate(&#39;http://latin.omdoc.org/logics/syntax?Subsorted-Sorted&#39;)" xlink:title="theory http://latin.omdoc.org/logics/syntax?Subsorted&#45;Sorted">
<ellipse fill="gray" stroke="black" cx="206.925" cy="-18" rx="75.0904" ry="18"/>
<text text-anchor="middle" x="206.925" y="-14.3" font-family="Times New Roman,serif" font-size="14.00">Subsorted&#45;Sorted</text>
</a>
</g>
<!-- http://latin.omdoc.org/logics/syntax?CASLSorted&#45;&gt;http://latin.omdoc.org/logics/syntax?Subsorted&#45;Sorted -->
<g id="edge3" class="edge"><title>http://latin.omdoc.org/logics/syntax?CASLSorted&#45;&gt;http://latin.omdoc.org/logics/syntax?Subsorted&#45;Sorted</title>
<a xlink:href="javascript:parent.navigate(&#39;http://latin.omdoc.org/logics/syntax?Subsorted-Sorted?s&#39;)" xlink:title="structure http://latin.omdoc.org/logics/syntax?Subsorted&#45;Sorted?s">
<path fill="none" stroke="red" stroke-width="2" d="M89.1633,-161.878C101.932,-136.461 128.348,-88.0888 159.925,-54 164,-49.6011 168.69,-45.3726 173.495,-41.4691"/>
<polygon fill="red" stroke="red" points="175.81,-44.1044 181.604,-35.2341 171.543,-38.5553 175.81,-44.1044"/>
</a>
<a xlink:href="javascript:parent.navigate(&#39;http://latin.omdoc.org/logics/syntax?Subsorted-Sorted?s&#39;)" xlink:title="s">
<text text-anchor="middle" x="142.425" y="-102.3" font-family="Times New Roman,serif" font-size="14.00">s</text>
</a>
</g>
<!-- http://latin.omdoc.org/logics/syntax?CASLSorted&#45;&gt;http://latin.omdoc.org/logics/syntax?Subsorted&#45;Sorted -->
<g id="edge5" class="edge"><title>http://latin.omdoc.org/logics/syntax?CASLSorted&#45;&gt;http://latin.omdoc.org/logics/syntax?Subsorted&#45;Sorted</title>
<a xlink:href="javascript:parent.navigate(&#39;http://latin.omdoc.org/logics/syntax?Subsorted-Sorted?s&#39;&#39;)" xlink:title="structure http://latin.omdoc.org/logics/syntax?Subsorted&#45;Sorted?s&#39;">
<path fill="none" stroke="red" stroke-width="2" d="M104.992,-163.467C119.268,-153.422 137.034,-139.38 149.925,-124 170.004,-100.044 186.196,-67.9065 196.119,-45.5215"/>
<polygon fill="red" stroke="red" points="199.357,-46.8509 200.104,-36.2825 192.93,-44.0781 199.357,-46.8509"/>
</a>
<a xlink:href="javascript:parent.navigate(&#39;http://latin.omdoc.org/logics/syntax?Subsorted-Sorted?s&#39;&#39;)" xlink:title="s&#39;">
<text text-anchor="middle" x="184.925" y="-102.3" font-family="Times New Roman,serif" font-size="14.00">s&#39;</text>
</a>
</g>
<!-- http://latin.omdoc.org/logics/proof_theory?CASL -->
<g id="node8" class="node"><title>http://latin.omdoc.org/logics/proof_theory?CASL</title>
<a xlink:href="javascript:parent.navigate(&#39;http://latin.omdoc.org/logics/proof_theory?CASL&#39;)" xlink:title="theory http://latin.omdoc.org/logics/proof_theory?CASL">
<ellipse fill="gray" stroke="black" cx="400.925" cy="-106" rx="34.1708" ry="18"/>
<text text-anchor="middle" x="400.925" y="-102.3" font-family="Times New Roman,serif" font-size="14.00">CASL</text>
</a>
</g>
<!-- http://latin.omdoc.org/logics/syntax?CASLSorted&#45;&gt;http://latin.omdoc.org/logics/proof_theory?CASL -->
<g id="edge7" class="edge"><title>http://latin.omdoc.org/logics/syntax?CASLSorted&#45;&gt;http://latin.omdoc.org/logics/proof_theory?CASL</title>
<a xlink:title="include">
<path fill="none" stroke="black" d="M122.147,-167.13C129.057,-165.303 136.175,-163.521 142.925,-162 237.16,-140.761 263.883,-149.972 356.925,-124 359.735,-123.216 362.615,-122.32 365.491,-121.36"/>
<polygon fill="black" stroke="black" points="366.906,-124.571 375.147,-117.913 364.553,-117.979 366.906,-124.571"/>
</a>
</g>
<!-- http://latin.omdoc.org/logics/syntax?CASLSubSorted -->
<g id="node10" class="node"><title>http://latin.omdoc.org/logics/syntax?CASLSubSorted</title>
<a xlink:href="javascript:parent.navigate(&#39;http://latin.omdoc.org/logics/syntax?CASLSubSorted&#39;)" xlink:title="theory http://latin.omdoc.org/logics/syntax?CASLSubSorted">
<ellipse fill="gray" stroke="black" cx="274.925" cy="-106" rx="73.1654" ry="18"/>
<text text-anchor="middle" x="274.925" y="-102.3" font-family="Times New Roman,serif" font-size="14.00">CASLSubSorted</text>
</a>
</g>
<!-- http://latin.omdoc.org/logics/syntax?CASLSorted&#45;&gt;http://latin.omdoc.org/logics/syntax?CASLSubSorted -->
<g id="edge9" class="edge"><title>http://latin.omdoc.org/logics/syntax?CASLSorted&#45;&gt;http://latin.omdoc.org/logics/syntax?CASLSubSorted</title>
<a xlink:title="include">
<path fill="none" stroke="black" d="M120.843,-166.841C141.084,-160.449 165.968,-152.243 187.925,-144 202.408,-138.563 218.019,-132.114 231.965,-126.136"/>
<polygon fill="black" stroke="black" points="233.53,-129.272 241.319,-122.09 230.751,-122.847 233.53,-129.272"/>
</a>
</g>
<!-- http://latin.omdoc.org/logics/syntax?CASLSorts -->
<g id="node3" class="node"><title>http://latin.omdoc.org/logics/syntax?CASLSorts</title>
<a xlink:href="javascript:parent.navigate(&#39;http://latin.omdoc.org/logics/syntax?CASLSorts&#39;)" xlink:title="theory http://latin.omdoc.org/logics/syntax?CASLSorts">
<ellipse fill="none" stroke="black" cx="80.9252" cy="-254" rx="53.4184" ry="18"/>
<text text-anchor="middle" x="80.9252" y="-250.3" font-family="Times New Roman,serif" font-size="14.00">CASLSorts</text>
</a>
</g>
<!-- http://latin.omdoc.org/logics/syntax?CASLSorts&#45;&gt;http://latin.omdoc.org/logics/syntax?CASLSorted -->
<g id="edge11" class="edge"><title>http://latin.omdoc.org/logics/syntax?CASLSorts&#45;&gt;http://latin.omdoc.org/logics/syntax?CASLSorted</title>
<a xlink:title="include">
<path fill="none" stroke="black" d="M80.9252,-235.937C80.9252,-227.807 80.9252,-217.876 80.9252,-208.705"/>
<polygon fill="black" stroke="black" points="84.4253,-208.441 80.9252,-198.441 77.4253,-208.441 84.4253,-208.441"/>
</a>
</g>
<!-- http://latin.omdoc.org/logics/syntax?CASLSubSorted&#45;&gt;http://latin.omdoc.org/logics/syntax?Subsorted&#45;Sorted -->
<g id="edge27" class="edge"><title>http://latin.omdoc.org/logics/syntax?CASLSubSorted&#45;&gt;http://latin.omdoc.org/logics/syntax?Subsorted&#45;Sorted</title>
<a xlink:href="javascript:parent.navigate(&#39;http://latin.omdoc.org/logics/syntax?Subsorted-Sorted?ss&#39;)" xlink:title="structure http://latin.omdoc.org/logics/syntax?Subsorted&#45;Sorted?ss">
<path fill="none" stroke="red" stroke-width="2" d="M261.491,-88.0092C251.525,-75.4058 237.784,-58.0272 226.585,-43.8632"/>
<polygon fill="red" stroke="red" points="229.28,-41.6289 220.332,-35.9555 223.789,-45.9706 229.28,-41.6289"/>
</a>
<a xlink:href="javascript:parent.navigate(&#39;http://latin.omdoc.org/logics/syntax?Subsorted-Sorted?ss&#39;)" xlink:title="ss">
<text text-anchor="middle" x="253.425" y="-58.3" font-family="Times New Roman,serif" font-size="14.00">ss</text>
</a>
</g>
<!-- http://cds.omdoc.org/urtheories?LF -->
<g id="node13" class="node"><title>http://cds.omdoc.org/urtheories?LF</title>
<a xlink:href="javascript:parent.navigate(&#39;http://cds.omdoc.org/urtheories?LF&#39;)" xlink:title="theory http://cds.omdoc.org/urtheories?LF">
<ellipse fill="gray" stroke="black" cx="80.9252" cy="-328" rx="27" ry="18"/>
<text text-anchor="middle" x="80.9252" y="-324.3" font-family="Times New Roman,serif" font-size="14.00">LF</text>
</a>
</g>
<!-- http://cds.omdoc.org/urtheories?LF&#45;&gt;http://latin.omdoc.org/logics/syntax?CASLSorted -->
<g id="edge13" class="edge"><title>http://cds.omdoc.org/urtheories?LF&#45;&gt;http://latin.omdoc.org/logics/syntax?CASLSorted</title>
<a xlink:title="meta">
<path fill="none" stroke="green" d="M102.705,-317.058C117.011,-309.226 134.572,-296.814 142.925,-280 151.626,-262.487 150.945,-253.835 142.925,-236 136.942,-222.694 125.973,-211.301 114.906,-202.392"/>
<polygon fill="green" stroke="green" points="116.991,-199.581 106.9,-196.353 112.775,-205.169 116.991,-199.581"/>
</a>
</g>
<!-- http://cds.omdoc.org/urtheories?LF&#45;&gt;http://latin.omdoc.org/logics/syntax?CASLSorts -->
<g id="edge15" class="edge"><title>http://cds.omdoc.org/urtheories?LF&#45;&gt;http://latin.omdoc.org/logics/syntax?CASLSorts</title>
<a xlink:title="meta">
<path fill="none" stroke="green" d="M80.9252,-309.937C80.9252,-301.807 80.9252,-291.876 80.9252,-282.705"/>
<polygon fill="green" stroke="green" points="84.4253,-282.441 80.9252,-272.441 77.4253,-282.441 84.4253,-282.441"/>
</a>
</g>
<!-- http://cds.omdoc.org/urtheories?LF&#45;&gt;http://latin.omdoc.org/logics/syntax?Typing -->
<g id="edge19" class="edge"><title>http://cds.omdoc.org/urtheories?LF&#45;&gt;http://latin.omdoc.org/logics/syntax?Typing</title>
<a xlink:title="meta">
<path fill="none" stroke="green" d="M59.0621,-317.013C44.6473,-309.16 26.8401,-296.742 17.9252,-280 -6.7378,-233.682 -3.716,-211.42 13.9252,-162 18.2239,-149.958 26.4175,-138.651 34.6478,-129.459"/>
<polygon fill="green" stroke="green" points="37.4289,-131.614 41.7929,-121.96 32.3609,-126.785 37.4289,-131.614"/>
</a>
</g>
<!-- http://cds.omdoc.org/urtheories?LF&#45;&gt;http://latin.omdoc.org/logics/syntax?Subsorted&#45;Sorted -->
<g id="edge25" class="edge"><title>http://cds.omdoc.org/urtheories?LF&#45;&gt;http://latin.omdoc.org/logics/syntax?Subsorted&#45;Sorted</title>
<a xlink:title="meta">
<path fill="none" stroke="green" d="M108.092,-327.648C195.363,-329.011 462.925,-327.296 462.925,-255 462.925,-255 462.925,-255 462.925,-105 462.925,-66.299 356.464,-41.7484 280.85,-29.192"/>
<polygon fill="green" stroke="green" points="281.296,-25.7186 270.864,-27.573 280.175,-32.6284 281.296,-25.7186"/>
</a>
</g>
<!-- http://cds.omdoc.org/urtheories?LF&#45;&gt;http://latin.omdoc.org/logics/proof_theory?CASL -->
<g id="edge23" class="edge"><title>http://cds.omdoc.org/urtheories?LF&#45;&gt;http://latin.omdoc.org/logics/proof_theory?CASL</title>
<a xlink:title="meta">
<path fill="none" stroke="green" d="M105.31,-319.521C129.333,-311.591 166.59,-297.763 195.925,-280 269.191,-235.637 342.993,-165.725 378.745,-129.872"/>
<polygon fill="green" stroke="green" points="381.237,-132.33 385.783,-122.76 376.262,-127.406 381.237,-132.33"/>
</a>
</g>
<!-- http://cds.omdoc.org/urtheories?LF&#45;&gt;http://latin.omdoc.org/logics/syntax?CASLSubSorted -->
<g id="edge21" class="edge"><title>http://cds.omdoc.org/urtheories?LF&#45;&gt;http://latin.omdoc.org/logics/syntax?CASLSubSorted</title>
<a xlink:title="meta">
<path fill="none" stroke="green" d="M104.128,-318.711C118.429,-312.805 136.53,-303.82 149.925,-292 202.576,-245.541 243.303,-172.2 262.619,-133.283"/>
<polygon fill="green" stroke="green" points="265.826,-134.691 267.062,-124.168 259.534,-131.623 265.826,-134.691"/>
</a>
</g>
</g>
</svg>
