<?xml version="1.0" encoding="UTF-8" standalone="no"?>
<!DOCTYPE svg PUBLIC "-//W3C//DTD SVG 1.1//EN"
 "http://www.w3.org/Graphics/SVG/1.1/DTD/svg11.dtd">
<!-- Generated by graphviz version 2.28.0 (20110507.0327)
 -->
<!-- Title: MMT Pages: 1 -->
<svg width="301pt" height="370pt"
 viewBox="0.00 0.00 301.00 370.00" xmlns="http://www.w3.org/2000/svg" xmlns:xlink="http://www.w3.org/1999/xlink">
<g id="graph1" class="graph" transform="scale(1 1) rotate(0) translate(4 366)">
<title>MMT</title>
<polygon fill="white" stroke="white" points="-4,5 -4,-366 298,-366 298,5 -4,5"/>
<g id="graph2" class="cluster"><title>cluster_local</title>
<polygon fill="none" stroke="black" points="8,-8 8,-60 174,-60 174,-8 8,-8"/>
</g>
<!-- http://latin.omdoc.org/logics/syntax?Subsorted&#45;Sorted -->
<g id="node2" class="node"><title>http://latin.omdoc.org/logics/syntax?Subsorted&#45;Sorted</title>
<a xlink:href="javascript:parent.navigate(&#39;http://latin.omdoc.org/logics/syntax?Subsorted-Sorted&#39;)" xlink:title="theory http://latin.omdoc.org/logics/syntax?Subsorted&#45;Sorted">
<ellipse fill="none" stroke="black" cx="91" cy="-34" rx="75.0904" ry="18"/>
<text text-anchor="middle" x="91" y="-30.3" font-family="Times New Roman,serif" font-size="14.00">Subsorted&#45;Sorted</text>
</a>
</g>
<!-- http://latin.omdoc.org/logics/syntax?CASLSorted -->
<g id="node3" class="node"><title>http://latin.omdoc.org/logics/syntax?CASLSorted</title>
<a xlink:href="javascript:parent.navigate(&#39;http://latin.omdoc.org/logics/syntax?CASLSorted&#39;)" xlink:title="theory http://latin.omdoc.org/logics/syntax?CASLSorted">
<ellipse fill="gray" stroke="black" cx="91" cy="-196" rx="58.2422" ry="18"/>
<text text-anchor="middle" x="91" y="-192.3" font-family="Times New Roman,serif" font-size="14.00">CASLSorted</text>
</a>
</g>
<!-- http://latin.omdoc.org/logics/syntax?CASLSorted&#45;&gt;http://latin.omdoc.org/logics/syntax?Subsorted&#45;Sorted -->
<g id="edge3" class="edge"><title>http://latin.omdoc.org/logics/syntax?CASLSorted&#45;&gt;http://latin.omdoc.org/logics/syntax?Subsorted&#45;Sorted</title>
<a xlink:href="javascript:parent.navigate(&#39;http://latin.omdoc.org/logics/syntax?Subsorted-Sorted?s&#39;)" xlink:title="structure http://latin.omdoc.org/logics/syntax?Subsorted&#45;Sorted?s">
<path fill="none" stroke="red" stroke-width="2" d="M79.2899,-178.044C72.797,-167.592 65.3713,-153.622 62,-140 55.3021,-112.937 65.9355,-82.2226 76.1602,-61.0375"/>
<polygon fill="red" stroke="red" points="79.3335,-62.5192 80.7656,-52.0216 73.0997,-59.3349 79.3335,-62.5192"/>
</a>
<a xlink:href="javascript:parent.navigate(&#39;http://latin.omdoc.org/logics/syntax?Subsorted-Sorted?s&#39;)" xlink:title="s">
<text text-anchor="middle" x="65.5" y="-118.3" font-family="Times New Roman,serif" font-size="14.00">s</text>
</a>
</g>
<!-- http://latin.omdoc.org/logics/syntax?CASLSorted&#45;&gt;http://latin.omdoc.org/logics/syntax?Subsorted&#45;Sorted -->
<g id="edge5" class="edge"><title>http://latin.omdoc.org/logics/syntax?CASLSorted&#45;&gt;http://latin.omdoc.org/logics/syntax?Subsorted&#45;Sorted</title>
<a xlink:href="javascript:parent.navigate(&#39;http://latin.omdoc.org/logics/syntax?Subsorted-Sorted?s&#39;&#39;)" xlink:title="structure http://latin.omdoc.org/logics/syntax?Subsorted&#45;Sorted?s&#39;">
<path fill="none" stroke="red" stroke-width="2" d="M91,-177.877C91,-150.354 91,-96.0083 91,-62.8486"/>
<polygon fill="red" stroke="red" points="94.5001,-62.4847 91,-52.4847 87.5001,-62.4848 94.5001,-62.4847"/>
</a>
<a xlink:href="javascript:parent.navigate(&#39;http://latin.omdoc.org/logics/syntax?Subsorted-Sorted?s&#39;&#39;)" xlink:title="s&#39;">
<text text-anchor="middle" x="96" y="-118.3" font-family="Times New Roman,serif" font-size="14.00">s&#39;</text>
</a>
</g>
<!-- http://latin.omdoc.org/logics/syntax?CASLSubSorted -->
<g id="node6" class="node"><title>http://latin.omdoc.org/logics/syntax?CASLSubSorted</title>
<a xlink:href="javascript:parent.navigate(&#39;http://latin.omdoc.org/logics/syntax?CASLSubSorted&#39;)" xlink:title="theory http://latin.omdoc.org/logics/syntax?CASLSubSorted">
<ellipse fill="gray" stroke="black" cx="192" cy="-122" rx="73.1654" ry="18"/>
<text text-anchor="middle" x="192" y="-118.3" font-family="Times New Roman,serif" font-size="14.00">CASLSubSorted</text>
</a>
</g>
<!-- http://latin.omdoc.org/logics/syntax?CASLSorted&#45;&gt;http://latin.omdoc.org/logics/syntax?CASLSubSorted -->
<g id="edge21" class="edge"><title>http://latin.omdoc.org/logics/syntax?CASLSorted&#45;&gt;http://latin.omdoc.org/logics/syntax?CASLSubSorted</title>
<a xlink:title="include">
<path fill="none" stroke="black" d="M113.415,-179.021C127.439,-169.023 145.7,-156.006 161.089,-145.035"/>
<polygon fill="black" stroke="black" points="163.187,-147.838 169.298,-139.183 159.124,-142.138 163.187,-147.838"/>
</a>
</g>
<!-- http://latin.omdoc.org/logics/syntax?CASLSubSorted&#45;&gt;http://latin.omdoc.org/logics/syntax?Subsorted&#45;Sorted -->
<g id="edge7" class="edge"><title>http://latin.omdoc.org/logics/syntax?CASLSubSorted&#45;&gt;http://latin.omdoc.org/logics/syntax?Subsorted&#45;Sorted</title>
<a xlink:href="javascript:parent.navigate(&#39;http://latin.omdoc.org/logics/syntax?Subsorted-Sorted?ss&#39;)" xlink:title="structure http://latin.omdoc.org/logics/syntax?Subsorted&#45;Sorted?ss">
<path fill="none" stroke="red" stroke-width="2" d="M172.526,-104.418C157.156,-91.3312 135.526,-72.9136 118.408,-58.3375"/>
<polygon fill="red" stroke="red" points="120.297,-55.349 110.414,-51.5308 115.759,-60.6787 120.297,-55.349"/>
</a>
<a xlink:href="javascript:parent.navigate(&#39;http://latin.omdoc.org/logics/syntax?Subsorted-Sorted?ss&#39;)" xlink:title="ss">
<text text-anchor="middle" x="157.5" y="-74.3" font-family="Times New Roman,serif" font-size="14.00">ss</text>
</a>
</g>
<!-- http://latin.omdoc.org/logics/syntax?CASLSorts -->
<g id="node8" class="node"><title>http://latin.omdoc.org/logics/syntax?CASLSorts</title>
<a xlink:href="javascript:parent.navigate(&#39;http://latin.omdoc.org/logics/syntax?CASLSorts&#39;)" xlink:title="theory http://latin.omdoc.org/logics/syntax?CASLSorts">
<ellipse fill="gray" stroke="black" cx="72" cy="-270" rx="53.4184" ry="18"/>
<text text-anchor="middle" x="72" y="-266.3" font-family="Times New Roman,serif" font-size="14.00">CASLSorts</text>
</a>
</g>
<!-- http://latin.omdoc.org/logics/syntax?CASLSorts&#45;&gt;http://latin.omdoc.org/logics/syntax?Subsorted&#45;Sorted -->
<g id="edge9" class="edge"><title>http://latin.omdoc.org/logics/syntax?CASLSorts&#45;&gt;http://latin.omdoc.org/logics/syntax?Subsorted&#45;Sorted</title>
<a xlink:title="include">
<path fill="none" stroke="black" d="M52.272,-252.892C41.696,-242.939 29.696,-229.189 24,-214 18.382,-199.019 21.2415,-193.76 24,-178 32.7984,-127.73 38.058,-114.523 63,-70 64.955,-66.5101 67.254,-63.0105 69.6798,-59.6457"/>
<polygon fill="black" stroke="black" points="72.5159,-61.6994 75.8478,-51.6421 66.9713,-57.4265 72.5159,-61.6994"/>
</a>
</g>
<!-- http://latin.omdoc.org/logics/syntax?CASLSorts&#45;&gt;http://latin.omdoc.org/logics/syntax?CASLSorted -->
<g id="edge19" class="edge"><title>http://latin.omdoc.org/logics/syntax?CASLSorts&#45;&gt;http://latin.omdoc.org/logics/syntax?CASLSorted</title>
<a xlink:title="include">
<path fill="none" stroke="black" d="M76.5027,-251.937C78.6714,-243.719 81.3258,-233.66 83.7679,-224.406"/>
<polygon fill="black" stroke="black" points="87.2301,-225.003 86.3976,-214.441 80.4618,-223.217 87.2301,-225.003"/>
</a>
</g>
<!-- http://cds.omdoc.org/urtheories?LF -->
<g id="node10" class="node"><title>http://cds.omdoc.org/urtheories?LF</title>
<a xlink:href="javascript:parent.navigate(&#39;http://cds.omdoc.org/urtheories?LF&#39;)" xlink:title="theory http://cds.omdoc.org/urtheories?LF">
<ellipse fill="gray" stroke="black" cx="173" cy="-344" rx="27" ry="18"/>
<text text-anchor="middle" x="173" y="-340.3" font-family="Times New Roman,serif" font-size="14.00">LF</text>
</a>
</g>
<!-- http://cds.omdoc.org/urtheories?LF&#45;&gt;http://latin.omdoc.org/logics/syntax?Subsorted&#45;Sorted -->
<g id="edge11" class="edge"><title>http://cds.omdoc.org/urtheories?LF&#45;&gt;http://latin.omdoc.org/logics/syntax?Subsorted&#45;Sorted</title>
<a xlink:title="meta">
<path fill="none" stroke="green" d="M199.038,-339.18C234.331,-332.363 293,-314.489 293,-271 293,-271 293,-271 293,-121 293,-66.818 230.716,-46.2915 175.318,-38.7503"/>
<polygon fill="green" stroke="green" points="175.423,-35.2369 165.07,-37.4881 174.567,-42.1844 175.423,-35.2369"/>
</a>
</g>
<!-- http://cds.omdoc.org/urtheories?LF&#45;&gt;http://latin.omdoc.org/logics/syntax?CASLSorted -->
<g id="edge17" class="edge"><title>http://cds.omdoc.org/urtheories?LF&#45;&gt;http://latin.omdoc.org/logics/syntax?CASLSorted</title>
<a xlink:title="meta">
<path fill="none" stroke="green" d="M167.315,-326.272C160.613,-307.53 148.528,-276.557 134,-252 127.763,-241.457 119.749,-230.667 112.333,-221.468"/>
<polygon fill="green" stroke="green" points="114.829,-218.994 105.759,-213.519 109.435,-223.456 114.829,-218.994"/>
</a>
</g>
<!-- http://cds.omdoc.org/urtheories?LF&#45;&gt;http://latin.omdoc.org/logics/syntax?CASLSubSorted -->
<g id="edge13" class="edge"><title>http://cds.omdoc.org/urtheories?LF&#45;&gt;http://latin.omdoc.org/logics/syntax?CASLSubSorted</title>
<a xlink:title="meta">
<path fill="none" stroke="green" d="M174.491,-325.737C177.779,-287.664 185.676,-196.231 189.642,-150.301"/>
<polygon fill="green" stroke="green" points="193.143,-150.447 190.516,-140.183 186.168,-149.845 193.143,-150.447"/>
</a>
</g>
<!-- http://cds.omdoc.org/urtheories?LF&#45;&gt;http://latin.omdoc.org/logics/syntax?CASLSorts -->
<g id="edge15" class="edge"><title>http://cds.omdoc.org/urtheories?LF&#45;&gt;http://latin.omdoc.org/logics/syntax?CASLSorts</title>
<a xlink:title="meta">
<path fill="none" stroke="green" d="M154.943,-330.128C140.351,-319.726 119.492,-304.856 102.343,-292.63"/>
<polygon fill="green" stroke="green" points="103.94,-289.471 93.7659,-286.516 99.877,-295.171 103.94,-289.471"/>
</a>
</g>
</g>
</svg>
