<?xml version="1.0" encoding="UTF-8" standalone="no"?>
<!DOCTYPE svg PUBLIC "-//W3C//DTD SVG 1.1//EN"
 "http://www.w3.org/Graphics/SVG/1.1/DTD/svg11.dtd">
<!-- Generated by graphviz version 2.28.0 (20110507.0327)
 -->
<!-- Title: MMT Pages: 1 -->
<svg
 viewBox="0.00 0.00 932.00 260.00" xmlns="http://www.w3.org/2000/svg" xmlns:xlink="http://www.w3.org/1999/xlink">
<g id="graph1" class="graph" transform="scale(1 1) rotate(0) translate(4 256)">
<title>MMT</title>
<polygon fill="white" stroke="white" points="-4,5 -4,-256 929,-256 929,5 -4,5"/>
<g id="graph2" class="cluster"><title>cluster_local</title>
<polygon fill="none" stroke="black" points="463,-136 463,-188 587,-188 587,-136 463,-136"/>
</g>
<!-- http://latin.omdoc.org/logics/syntax?PowerSorts -->
<g id="node2" class="node"><title>http://latin.omdoc.org/logics/syntax?PowerSorts</title>
<a xlink:href="http://latin.omdoc.org/logics/syntax?PowerSorts" class="graphtheory">
<ellipse fill="none" stroke="black" cx="525" cy="-162" rx="53.4184" ry="18"/>
<text text-anchor="middle" x="525" y="-158.3" font-family="Times New Roman,serif" font-size="14.00">PowerSorts</text>
</a>
</g>
<!-- http://latin.omdoc.org/math?Closeness -->
<g id="node5" class="node"><title>http://latin.omdoc.org/math?Closeness</title>
<a xlink:href="http://latin.omdoc.org/math?Closeness" class="graphtheory">
<ellipse fill="gray" stroke="black" cx="121" cy="-90" rx="48.1437" ry="18"/>
<text text-anchor="middle" x="121" y="-86.3" font-family="Times New Roman,serif" font-size="14.00">Closeness</text>
</a>
</g>
<!-- http://latin.omdoc.org/logics/syntax?PowerSorts&#45;&gt;http://latin.omdoc.org/math?Closeness -->
<g id="edge5" class="edge"><title>http://latin.omdoc.org/logics/syntax?PowerSorts&#45;&gt;http://latin.omdoc.org/math?Closeness</title>
<a class="graphmeta">
<path fill="none" stroke="black" d="M475.052,-155.468C407.443,-147.498 283.263,-131.157 179,-108 174.851,-107.079 170.564,-106.023 166.285,-104.899"/>
<polygon fill="black" stroke="black" points="166.956,-101.454 156.387,-102.184 165.104,-108.205 166.956,-101.454"/>
</a>
</g>
<!-- http://latin.omdoc.org/math?ClosureOperator -->
<g id="node7" class="node"><title>http://latin.omdoc.org/math?ClosureOperator</title>
<a xlink:href="http://latin.omdoc.org/math?ClosureOperator" class="graphtheory">
<ellipse fill="gray" stroke="black" cx="476" cy="-90" rx="71.2405" ry="18"/>
<text text-anchor="middle" x="476" y="-86.3" font-family="Times New Roman,serif" font-size="14.00">ClosureOperator</text>
</a>
</g>
<!-- http://latin.omdoc.org/logics/syntax?PowerSorts&#45;&gt;http://latin.omdoc.org/math?ClosureOperator -->
<g id="edge7" class="edge"><title>http://latin.omdoc.org/logics/syntax?PowerSorts&#45;&gt;http://latin.omdoc.org/math?ClosureOperator</title>
<a class="graphmeta">
<path fill="none" stroke="black" d="M513.388,-144.411C507.494,-135.992 500.209,-125.585 493.64,-116.201"/>
<polygon fill="black" stroke="black" points="496.471,-114.141 487.869,-107.956 490.737,-118.156 496.471,-114.141"/>
</a>
</g>
<!-- http://latin.omdoc.org/math?NeighborhoodTopology -->
<g id="node9" class="node"><title>http://latin.omdoc.org/math?NeighborhoodTopology</title>
<a xlink:href="http://latin.omdoc.org/math?NeighborhoodTopology" class="graphtheory">
<ellipse fill="gray" stroke="black" cx="287" cy="-90" rx="99.1619" ry="18"/>
<text text-anchor="middle" x="287" y="-86.3" font-family="Times New Roman,serif" font-size="14.00">NeighborhoodTopology</text>
</a>
</g>
<!-- http://latin.omdoc.org/logics/syntax?PowerSorts&#45;&gt;http://latin.omdoc.org/math?NeighborhoodTopology -->
<g id="edge9" class="edge"><title>http://latin.omdoc.org/logics/syntax?PowerSorts&#45;&gt;http://latin.omdoc.org/math?NeighborhoodTopology</title>
<a class="graphmeta">
<path fill="none" stroke="black" d="M486.231,-149.597C448.392,-138.468 390.294,-121.381 346.583,-108.525"/>
<polygon fill="black" stroke="black" points="347.509,-105.149 336.928,-105.685 345.534,-111.864 347.509,-105.149"/>
</a>
</g>
<!-- http://latin.omdoc.org/math?ClosenessTopology -->
<g id="node11" class="node"><title>http://latin.omdoc.org/math?ClosenessTopology</title>
<a xlink:href="http://latin.omdoc.org/math?ClosenessTopology" class="graphtheory">
<ellipse fill="gray" stroke="black" cx="83" cy="-18" rx="83.2649" ry="18"/>
<text text-anchor="middle" x="83" y="-14.3" font-family="Times New Roman,serif" font-size="14.00">ClosenessTopology</text>
</a>
</g>
<!-- http://latin.omdoc.org/logics/syntax?PowerSorts&#45;&gt;http://latin.omdoc.org/math?ClosenessTopology -->
<g id="edge11" class="edge"><title>http://latin.omdoc.org/logics/syntax?PowerSorts&#45;&gt;http://latin.omdoc.org/math?ClosenessTopology</title>
<a class="graphmeta">
<path fill="none" stroke="black" d="M472.321,-158.817C357.1,-153.502 90.807,-138.066 64,-108 48.7291,-90.8729 56.9005,-64.5339 66.8305,-44.9477"/>
<polygon fill="black" stroke="black" points="70.0262,-46.3985 71.7515,-35.9451 63.8839,-43.041 70.0262,-46.3985"/>
</a>
</g>
<!-- http://latin.omdoc.org/math?ClosedTopology -->
<g id="node13" class="node"><title>http://latin.omdoc.org/math?ClosedTopology</title>
<a xlink:href="http://latin.omdoc.org/math?ClosedTopology" class="graphtheory">
<ellipse fill="gray" stroke="black" cx="690" cy="-18" rx="72.192" ry="18"/>
<text text-anchor="middle" x="690" y="-14.3" font-family="Times New Roman,serif" font-size="14.00">ClosedTopology</text>
</a>
</g>
<!-- http://latin.omdoc.org/logics/syntax?PowerSorts&#45;&gt;http://latin.omdoc.org/math?ClosedTopology -->
<g id="edge13" class="edge"><title>http://latin.omdoc.org/logics/syntax?PowerSorts&#45;&gt;http://latin.omdoc.org/math?ClosedTopology</title>
<a class="graphmeta">
<path fill="none" stroke="black" d="M543.607,-144.987C572.866,-119.806 629.753,-70.8486 663.349,-41.9362"/>
<polygon fill="black" stroke="black" points="665.657,-44.5675 670.953,-35.3916 661.091,-39.2618 665.657,-44.5675"/>
</a>
</g>
<!-- http://latin.omdoc.org/math?ClosureTopology -->
<g id="node15" class="node"><title>http://latin.omdoc.org/math?ClosureTopology</title>
<a xlink:href="http://latin.omdoc.org/math?ClosureTopology" class="graphtheory">
<ellipse fill="gray" stroke="black" cx="492" cy="-18" rx="75.0904" ry="18"/>
<text text-anchor="middle" x="492" y="-14.3" font-family="Times New Roman,serif" font-size="14.00">ClosureTopology</text>
</a>
</g>
<!-- http://latin.omdoc.org/logics/syntax?PowerSorts&#45;&gt;http://latin.omdoc.org/math?ClosureTopology -->
<g id="edge15" class="edge"><title>http://latin.omdoc.org/logics/syntax?PowerSorts&#45;&gt;http://latin.omdoc.org/math?ClosureTopology</title>
<a class="graphmeta">
<path fill="none" stroke="black" d="M538.322,-144.519C551.29,-126.341 567.489,-96.4306 556,-72 550.129,-59.5162 539.715,-48.9636 528.97,-40.6414"/>
<polygon fill="black" stroke="black" points="530.916,-37.7297 520.759,-34.7171 526.82,-43.4065 530.916,-37.7297"/>
</a>
</g>
<!-- http://latin.omdoc.org/math?ClosureSystem -->
<g id="node17" class="node"><title>http://latin.omdoc.org/math?ClosureSystem</title>
<a xlink:href="http://latin.omdoc.org/math?ClosureSystem" class="graphtheory">
<ellipse fill="gray" stroke="black" cx="707" cy="-90" rx="65.4659" ry="18"/>
<text text-anchor="middle" x="707" y="-86.3" font-family="Times New Roman,serif" font-size="14.00">ClosureSystem</text>
</a>
</g>
<!-- http://latin.omdoc.org/logics/syntax?PowerSorts&#45;&gt;http://latin.omdoc.org/math?ClosureSystem -->
<g id="edge17" class="edge"><title>http://latin.omdoc.org/logics/syntax?PowerSorts&#45;&gt;http://latin.omdoc.org/math?ClosureSystem</title>
<a class="graphmeta">
<path fill="none" stroke="black" d="M558.806,-147.998C587.593,-136.926 629.221,-120.915 661.033,-108.68"/>
<polygon fill="black" stroke="black" points="662.488,-111.87 670.565,-105.013 659.975,-105.337 662.488,-111.87"/>
</a>
</g>
<!-- http://latin.omdoc.org/math?OpenTopology -->
<g id="node19" class="node"><title>http://latin.omdoc.org/math?OpenTopology</title>
<a xlink:href="http://latin.omdoc.org/math?OpenTopology" class="graphtheory">
<ellipse fill="gray" stroke="black" cx="858" cy="-90" rx="66.4165" ry="18"/>
<text text-anchor="middle" x="858" y="-86.3" font-family="Times New Roman,serif" font-size="14.00">OpenTopology</text>
</a>
</g>
<!-- http://latin.omdoc.org/logics/syntax?PowerSorts&#45;&gt;http://latin.omdoc.org/math?OpenTopology -->
<g id="edge19" class="edge"><title>http://latin.omdoc.org/logics/syntax?PowerSorts&#45;&gt;http://latin.omdoc.org/math?OpenTopology</title>
<a class="graphmeta">
<path fill="none" stroke="black" d="M569.435,-151.985C620.522,-141.578 706.88,-123.854 781,-108 786.66,-106.789 792.551,-105.515 798.442,-104.231"/>
<polygon fill="black" stroke="black" points="799.295,-107.627 808.316,-102.07 797.799,-100.789 799.295,-107.627"/>
</a>
</g>
<!-- http://latin.omdoc.org/logics/syntax?BaseSFOL -->
<g id="node3" class="node"><title>http://latin.omdoc.org/logics/syntax?BaseSFOL</title>
<a xlink:href="http://latin.omdoc.org/logics/syntax?BaseSFOL" class="graphtheory">
<ellipse fill="gray" stroke="black" cx="525" cy="-234" rx="51.0191" ry="18"/>
<text text-anchor="middle" x="525" y="-230.3" font-family="Times New Roman,serif" font-size="14.00">BaseSFOL</text>
</a>
</g>
<!-- http://latin.omdoc.org/logics/syntax?BaseSFOL&#45;&gt;http://latin.omdoc.org/logics/syntax?PowerSorts -->
<g id="edge3" class="edge"><title>http://latin.omdoc.org/logics/syntax?BaseSFOL&#45;&gt;http://latin.omdoc.org/logics/syntax?PowerSorts</title>
<a class="graphinclude">
<path fill="none" stroke="black" d="M525,-215.697C525,-207.983 525,-198.712 525,-190.112"/>
<polygon fill="black" stroke="black" points="528.5,-190.104 525,-180.104 521.5,-190.104 528.5,-190.104"/>
</a>
</g>
<!-- http://latin.omdoc.org/math?Closeness&#45;&gt;http://latin.omdoc.org/math?ClosenessTopology -->
<g id="edge25" class="edge"><title>http://latin.omdoc.org/math?Closeness&#45;&gt;http://latin.omdoc.org/math?ClosenessTopology</title>
<a class="graphinclude">
<path fill="none" stroke="black" d="M111.801,-72.055C107.432,-64.0067 102.111,-54.2046 97.2369,-45.2259"/>
<polygon fill="black" stroke="black" points="100.225,-43.394 92.378,-36.2753 94.073,-46.7337 100.225,-43.394"/>
</a>
</g>
<!-- http://latin.omdoc.org/math?ClosureOperator&#45;&gt;http://latin.omdoc.org/math?ClosureTopology -->
<g id="edge23" class="edge"><title>http://latin.omdoc.org/math?ClosureOperator&#45;&gt;http://latin.omdoc.org/math?ClosureTopology</title>
<a class="graphinclude">
<path fill="none" stroke="black" d="M479.955,-71.6966C481.718,-63.9827 483.837,-54.7125 485.803,-46.1124"/>
<polygon fill="black" stroke="black" points="489.274,-46.6328 488.09,-36.1043 482.45,-45.073 489.274,-46.6328"/>
</a>
</g>
<!-- http://latin.omdoc.org/math?ClosureSystem&#45;&gt;http://latin.omdoc.org/math?ClosedTopology -->
<g id="edge21" class="edge"><title>http://latin.omdoc.org/math?ClosureSystem&#45;&gt;http://latin.omdoc.org/math?ClosedTopology</title>
<a class="graphinclude">
<path fill="none" stroke="black" d="M702.798,-71.6966C700.904,-63.8979 698.623,-54.5085 696.516,-45.8292"/>
<polygon fill="black" stroke="black" points="699.915,-44.9959 694.154,-36.1043 693.113,-46.6479 699.915,-44.9959"/>
</a>
</g>
</g>
</svg>
