<?xml version="1.0" encoding="UTF-8" standalone="no"?>
<!DOCTYPE svg PUBLIC "-//W3C//DTD SVG 1.1//EN"
 "http://www.w3.org/Graphics/SVG/1.1/DTD/svg11.dtd">
<!-- Generated by graphviz version 2.28.0 (20110507.0327)
 -->
<!-- Title: MMT Pages: 1 -->
<svg width="2358pt" height="382pt"
 viewBox="0.00 0.00 2358.00 382.00" xmlns="http://www.w3.org/2000/svg" xmlns:xlink="http://www.w3.org/1999/xlink">
<g id="graph1" class="graph" transform="scale(1 1) rotate(0) translate(4 378)">
<title>MMT</title>
<polygon fill="white" stroke="white" points="-4,5 -4,-378 2355,-378 2355,5 -4,5"/>
<g id="graph2" class="cluster"><title>cluster_local</title>
<polygon fill="none" stroke="black" points="1001,-168 1001,-220 1097,-220 1097,-168 1001,-168"/>
</g>
<!-- http://latin.omdoc.org/foundations/type_theory/church?Equality -->
<g id="node2" class="node"><title>http://latin.omdoc.org/foundations/type_theory/church?Equality</title>
<a xlink:href="http://latin.omdoc.org/foundations/type_theory/church?Equality" class="graphtheory">
<ellipse fill="none" stroke="black" cx="1049" cy="-194" rx="39.9464" ry="18"/>
<text text-anchor="middle" x="1049" y="-190.3" font-family="Times New Roman,serif" font-size="14.00">Equality</text>
</a>
</g>
<!-- http://latin.omdoc.org/foundations/zfc?TypedZF -->
<g id="node3" class="node"><title>http://latin.omdoc.org/foundations/zfc?TypedZF</title>
<a xlink:href="http://latin.omdoc.org/foundations/zfc?TypedZF" class="graphtheory">
<ellipse fill="gray" stroke="black" cx="2140" cy="-18" rx="45.244" ry="18"/>
<text text-anchor="middle" x="2140" y="-14.3" font-family="Times New Roman,serif" font-size="14.00">TypedZF</text>
</a>
</g>
<!-- http://latin.omdoc.org/foundations/type_theory/church?Equality&#45;&gt;http://latin.omdoc.org/foundations/zfc?TypedZF -->
<g id="edge3" class="edge"><title>http://latin.omdoc.org/foundations/type_theory/church?Equality&#45;&gt;http://latin.omdoc.org/foundations/zfc?TypedZF</title>
<a xlink:href="http://latin.omdoc.org/foundations/type_theory/church?_Equality" class="graphview">
<path fill="none" stroke="black" d="M1070,-178.295C1077,-174.171 1085.04,-170.213 1093,-168 1113.72,-162.237 1464.99,-173.403 1480,-158 1484.96,-152.907 1484.42,-147.571 1480,-142 1458.16,-114.465 1424.84,-151.535 1403,-124 1393.06,-111.465 1392.23,-99.8293 1403,-88 1448.7,-37.8249 1920.78,-23.4736 2084.47,-19.9889"/>
<polygon fill="black" stroke="black" points="2084.87,-23.4814 2094.8,-19.7748 2084.73,-16.4829 2084.87,-23.4814"/>
</a>
<a xlink:href="http://latin.omdoc.org/foundations/type_theory/church?_Equality" class="_Equality">
<text text-anchor="middle" x="1429.5" y="-102.3" font-family="Times New Roman,serif" font-size="14.00">_Equality</text>
</a>
</g>
<!-- http://latin.omdoc.org/foundations/type_theory/church?ReflectedEquality -->
<g id="node5" class="node"><title>http://latin.omdoc.org/foundations/type_theory/church?ReflectedEquality</title>
<a xlink:href="http://latin.omdoc.org/foundations/type_theory/church?ReflectedEquality" class="graphtheory">
<ellipse fill="gray" stroke="black" cx="186" cy="-106" rx="74.6146" ry="18"/>
<text text-anchor="middle" x="186" y="-102.3" font-family="Times New Roman,serif" font-size="14.00">ReflectedEquality</text>
</a>
</g>
<!-- http://latin.omdoc.org/foundations/type_theory/church?Equality&#45;&gt;http://latin.omdoc.org/foundations/type_theory/church?ReflectedEquality -->
<g id="edge5" class="edge"><title>http://latin.omdoc.org/foundations/type_theory/church?Equality&#45;&gt;http://latin.omdoc.org/foundations/type_theory/church?ReflectedEquality</title>
<a xlink:href="http://latin.omdoc.org/foundations/type_theory/church?ReflectedEquality?object" class="graphstructure">
<path fill="none" stroke="black" d="M1028,-178.289C1021,-174.164 1012.96,-170.207 1005,-168 961.196,-155.85 641.179,-163.032 596,-158 559.963,-153.986 551.929,-146.883 516,-142 406.934,-127.178 378.032,-139.074 269,-124 262.343,-123.08 255.419,-121.946 248.534,-120.705"/>
<polygon fill="black" stroke="black" points="248.987,-117.229 238.513,-118.823 247.694,-124.109 248.987,-117.229"/>
</a>
<a xlink:href="http://latin.omdoc.org/foundations/type_theory/church?ReflectedEquality?object" class="object">
<text text-anchor="middle" x="613.5" y="-146.3" font-family="Times New Roman,serif" font-size="14.00">object</text>
</a>
</g>
<!-- http://latin.omdoc.org/foundations/type_theory/church?Equality&#45;&gt;http://latin.omdoc.org/foundations/type_theory/church?ReflectedEquality -->
<g id="edge7" class="edge"><title>http://latin.omdoc.org/foundations/type_theory/church?Equality&#45;&gt;http://latin.omdoc.org/foundations/type_theory/church?ReflectedEquality</title>
<a xlink:href="http://latin.omdoc.org/foundations/type_theory/church?ReflectedEquality?meta" class="graphstructure">
<path fill="none" stroke="black" d="M1028.45,-178.527C1021.35,-174.307 1013.13,-170.233 1005,-168 949.274,-152.7 542.324,-165.309 485,-158 454.631,-154.128 448.135,-147.4 418,-142 352.342,-130.234 334.84,-134.701 269,-124 262.712,-122.978 256.175,-121.815 249.655,-120.588"/>
<polygon fill="black" stroke="black" points="249.942,-117.079 239.46,-118.619 248.614,-123.952 249.942,-117.079"/>
</a>
<a xlink:href="http://latin.omdoc.org/foundations/type_theory/church?ReflectedEquality?meta" class="meta">
<text text-anchor="middle" x="498.5" y="-146.3" font-family="Times New Roman,serif" font-size="14.00">meta</text>
</a>
</g>
<!-- http://latin.omdoc.org/foundations/type_theory/church?KindsTypesTerms -->
<g id="node8" class="node"><title>http://latin.omdoc.org/foundations/type_theory/church?KindsTypesTerms</title>
<a xlink:href="http://latin.omdoc.org/foundations/type_theory/church?KindsTypesTerms" class="graphtheory">
<ellipse fill="gray" stroke="black" cx="357" cy="-106" rx="78.4642" ry="18"/>
<text text-anchor="middle" x="357" y="-102.3" font-family="Times New Roman,serif" font-size="14.00">KindsTypesTerms</text>
</a>
</g>
<!-- http://latin.omdoc.org/foundations/type_theory/church?Equality&#45;&gt;http://latin.omdoc.org/foundations/type_theory/church?KindsTypesTerms -->
<g id="edge9" class="edge"><title>http://latin.omdoc.org/foundations/type_theory/church?Equality&#45;&gt;http://latin.omdoc.org/foundations/type_theory/church?KindsTypesTerms</title>
<a xlink:href="http://latin.omdoc.org/foundations/type_theory/church?KindsTypesTerms?□" class="graphstructure">
<path fill="none" stroke="black" d="M1027.99,-178.345C1020.99,-174.224 1012.94,-170.255 1005,-168 946.172,-151.305 790.238,-168.528 730,-158 707.016,-153.983 702.899,-146.477 680,-142 577.196,-121.901 548.816,-137.957 445,-124 437.709,-123.02 430.109,-121.822 422.563,-120.52"/>
<polygon fill="black" stroke="black" points="423.165,-117.072 412.705,-118.758 421.933,-123.963 423.165,-117.072"/>
</a>
<a xlink:href="http://latin.omdoc.org/foundations/type_theory/church?KindsTypesTerms?□" class="□">
<text text-anchor="middle" x="734.5" y="-146.3" font-family="Times New Roman,serif" font-size="14.00">□</text>
</a>
</g>
<!-- http://latin.omdoc.org/foundations/type_theory/church?Equality&#45;&gt;http://latin.omdoc.org/foundations/type_theory/church?KindsTypesTerms -->
<g id="edge11" class="edge"><title>http://latin.omdoc.org/foundations/type_theory/church?Equality&#45;&gt;http://latin.omdoc.org/foundations/type_theory/church?KindsTypesTerms</title>
<a xlink:href="http://latin.omdoc.org/foundations/type_theory/church?KindsTypesTerms?∗" class="graphstructure">
<path fill="none" stroke="black" d="M1028,-178.31C1021,-174.187 1012.95,-170.225 1005,-168 931.138,-147.332 733.293,-180.603 660,-158 647.394,-154.112 647.472,-146.298 635,-142 554.806,-114.363 528.961,-136.058 445,-124 437.905,-122.981 430.515,-121.778 423.164,-120.491"/>
<polygon fill="black" stroke="black" points="423.66,-117.024 413.198,-118.693 422.417,-123.913 423.66,-117.024"/>
</a>
<a xlink:href="http://latin.omdoc.org/foundations/type_theory/church?KindsTypesTerms?∗" class="∗">
<text text-anchor="middle" x="668" y="-146.3" font-family="Times New Roman,serif" font-size="14.00">∗</text>
</a>
</g>
<!-- http://latin.omdoc.org/foundations/type_theory/church?_AxiomaticEquality -->
<g id="node11" class="node"><title>http://latin.omdoc.org/foundations/type_theory/church?_AxiomaticEquality</title>
<a xlink:href="http://latin.omdoc.org/foundations/type_theory/church?_AxiomaticEquality" class="graphtheory">
<ellipse fill="gray" stroke="black" cx="1086" cy="-106" rx="81.3398" ry="18"/>
<text text-anchor="middle" x="1086" y="-102.3" font-family="Times New Roman,serif" font-size="14.00">_AxiomaticEquality</text>
</a>
</g>
<!-- http://latin.omdoc.org/foundations/type_theory/church?Equality&#45;&gt;http://latin.omdoc.org/foundations/type_theory/church?_AxiomaticEquality -->
<g id="edge13" class="edge"><title>http://latin.omdoc.org/foundations/type_theory/church?Equality&#45;&gt;http://latin.omdoc.org/foundations/type_theory/church?_AxiomaticEquality</title>
<a xlink:href="http://latin.omdoc.org/foundations/type_theory/church?_AxiomaticEquality?equality" class="graphstructure">
<path fill="none" stroke="black" d="M1046.16,-175.772C1045.23,-165.547 1045.42,-152.561 1050,-142 1051.72,-138.042 1054.12,-134.306 1056.87,-130.854"/>
<polygon fill="black" stroke="black" points="1059.59,-133.073 1063.78,-123.345 1054.44,-128.332 1059.59,-133.073"/>
</a>
<a xlink:href="http://latin.omdoc.org/foundations/type_theory/church?_AxiomaticEquality?equality" class="equality">
<text text-anchor="middle" x="1071.5" y="-146.3" font-family="Times New Roman,serif" font-size="14.00">equality</text>
</a>
</g>
<!-- http://latin.omdoc.org/foundations/type_theory/church?AxiomaticEquality -->
<g id="node13" class="node"><title>http://latin.omdoc.org/foundations/type_theory/church?AxiomaticEquality</title>
<a xlink:href="http://latin.omdoc.org/foundations/type_theory/church?AxiomaticEquality" class="graphtheory">
<ellipse fill="gray" stroke="black" cx="2245" cy="-106" rx="77.0154" ry="18"/>
<text text-anchor="middle" x="2245" y="-102.3" font-family="Times New Roman,serif" font-size="14.00">AxiomaticEquality</text>
</a>
</g>
<!-- http://latin.omdoc.org/foundations/type_theory/church?Equality&#45;&gt;http://latin.omdoc.org/foundations/type_theory/church?AxiomaticEquality -->
<g id="edge15" class="edge"><title>http://latin.omdoc.org/foundations/type_theory/church?Equality&#45;&gt;http://latin.omdoc.org/foundations/type_theory/church?AxiomaticEquality</title>
<a xlink:href="http://latin.omdoc.org/foundations/type_theory/church?AxiomaticEquality?equality" class="graphstructure">
<path fill="none" stroke="black" d="M1069.54,-178.503C1076.64,-174.281 1084.86,-170.212 1093,-168 1131.01,-157.667 1762.68,-160.368 1802,-158 1944.32,-149.43 1979.47,-141.241 2121,-124 2137.17,-122.031 2154.49,-119.758 2170.92,-117.527"/>
<polygon fill="black" stroke="black" points="2171.58,-120.97 2181.01,-116.147 2170.63,-114.035 2171.58,-120.97"/>
</a>
<a xlink:href="http://latin.omdoc.org/foundations/type_theory/church?AxiomaticEquality?equality" class="equality">
<text text-anchor="middle" x="1999.5" y="-146.3" font-family="Times New Roman,serif" font-size="14.00">equality</text>
</a>
</g>
<!-- http://latin.omdoc.org/foundations/type_theory/church?PTSRule -->
<g id="node15" class="node"><title>http://latin.omdoc.org/foundations/type_theory/church?PTSRule</title>
<a xlink:href="http://latin.omdoc.org/foundations/type_theory/church?PTSRule" class="graphtheory">
<ellipse fill="gray" stroke="black" cx="942" cy="-106" rx="44.2946" ry="18"/>
<text text-anchor="middle" x="942" y="-102.3" font-family="Times New Roman,serif" font-size="14.00">PTSRule</text>
</a>
</g>
<!-- http://latin.omdoc.org/foundations/type_theory/church?Equality&#45;&gt;http://latin.omdoc.org/foundations/type_theory/church?PTSRule -->
<g id="edge17" class="edge"><title>http://latin.omdoc.org/foundations/type_theory/church?Equality&#45;&gt;http://latin.omdoc.org/foundations/type_theory/church?PTSRule</title>
<a xlink:href="http://latin.omdoc.org/foundations/type_theory/church?PTSRule?domain" class="graphstructure">
<path fill="none" stroke="black" d="M1027.4,-178.524C1020.5,-174.515 1012.67,-170.565 1005,-168 988.637,-162.524 939.388,-170.963 928,-158 921.859,-151.009 922.774,-141.561 926.121,-132.696"/>
<polygon fill="black" stroke="black" points="929.382,-133.987 930.488,-123.45 923.052,-130.997 929.382,-133.987"/>
</a>
<a xlink:href="http://latin.omdoc.org/foundations/type_theory/church?PTSRule?domain" class="domain">
<text text-anchor="middle" x="949" y="-146.3" font-family="Times New Roman,serif" font-size="14.00">domain</text>
</a>
</g>
<!-- http://latin.omdoc.org/foundations/type_theory/church?Equality&#45;&gt;http://latin.omdoc.org/foundations/type_theory/church?PTSRule -->
<g id="edge19" class="edge"><title>http://latin.omdoc.org/foundations/type_theory/church?Equality&#45;&gt;http://latin.omdoc.org/foundations/type_theory/church?PTSRule</title>
<a xlink:href="http://latin.omdoc.org/foundations/type_theory/church?PTSRule?scope" class="graphstructure">
<path fill="none" stroke="black" d="M1030.36,-178.02C1013.39,-164.377 988.119,-144.068 968.947,-128.658"/>
<polygon fill="black" stroke="black" points="971.132,-125.924 961.145,-122.387 966.747,-131.38 971.132,-125.924"/>
</a>
<a xlink:href="http://latin.omdoc.org/foundations/type_theory/church?PTSRule?scope" class="scope">
<text text-anchor="middle" x="1023" y="-146.3" font-family="Times New Roman,serif" font-size="14.00">scope</text>
</a>
</g>
<!-- http://latin.omdoc.org/foundations/type_theory/church?_DefinitionalEquality -->
<g id="node18" class="node"><title>http://latin.omdoc.org/foundations/type_theory/church?_DefinitionalEquality</title>
<a xlink:href="http://latin.omdoc.org/foundations/type_theory/church?_DefinitionalEquality" class="graphtheory">
<ellipse fill="gray" stroke="black" cx="1272" cy="-106" rx="85.19" ry="18"/>
<text text-anchor="middle" x="1272" y="-102.3" font-family="Times New Roman,serif" font-size="14.00">_DefinitionalEquality</text>
</a>
</g>
<!-- http://latin.omdoc.org/foundations/type_theory/church?Equality&#45;&gt;http://latin.omdoc.org/foundations/type_theory/church?_DefinitionalEquality -->
<g id="edge21" class="edge"><title>http://latin.omdoc.org/foundations/type_theory/church?Equality&#45;&gt;http://latin.omdoc.org/foundations/type_theory/church?_DefinitionalEquality</title>
<a xlink:href="http://latin.omdoc.org/foundations/type_theory/church?_DefinitionalEquality?[http://latin.omdoc.org/foundations/type_theory/church?Equality]" class="graphstructure">
<path fill="none" stroke="black" d="M1067.96,-177.904C1085.85,-163.773 1110.7,-144.468 1116,-142 1131.05,-134.994 1166.1,-126.893 1199.17,-120.25"/>
<polygon fill="black" stroke="black" points="1200.21,-123.612 1209.34,-118.238 1198.86,-116.745 1200.21,-123.612"/>
</a>
<a xlink:href="http://latin.omdoc.org/foundations/type_theory/church?_DefinitionalEquality?[http://latin.omdoc.org/foundations/type_theory/church?Equality]" class="[http://latin.omdoc.org/foundations/type_theory/church?Equality]">
<text text-anchor="middle" x="1298" y="-146.3" font-family="Times New Roman,serif" font-size="14.00">[http://latin.omdoc.org/foundations/type_theory/church?Equality]</text>
</a>
</g>
<!-- http://latin.omdoc.org/foundations/type_theory/church?Unit -->
<g id="node22" class="node"><title>http://latin.omdoc.org/foundations/type_theory/church?Unit</title>
<a xlink:href="http://latin.omdoc.org/foundations/type_theory/church?Unit" class="graphtheory">
<ellipse fill="gray" stroke="black" cx="481" cy="-106" rx="27" ry="18"/>
<text text-anchor="middle" x="481" y="-102.3" font-family="Times New Roman,serif" font-size="14.00">Unit</text>
</a>
</g>
<!-- http://latin.omdoc.org/foundations/type_theory/church?Equality&#45;&gt;http://latin.omdoc.org/foundations/type_theory/church?Unit -->
<g id="edge25" class="edge"><title>http://latin.omdoc.org/foundations/type_theory/church?Equality&#45;&gt;http://latin.omdoc.org/foundations/type_theory/church?Unit</title>
<a class="graphinclude">
<path fill="none" stroke="black" d="M1027.97,-178.397C1020.97,-174.278 1012.93,-170.298 1005,-168 959.698,-154.879 839.438,-166.238 793,-158 769.609,-153.851 765.32,-146.531 742,-142 643.522,-122.865 613.935,-149.839 517,-124 514.829,-123.421 512.63,-122.716 510.443,-121.925"/>
<polygon fill="black" stroke="black" points="511.652,-118.637 501.074,-118.038 508.97,-125.103 511.652,-118.637"/>
</a>
</g>
<!-- http://latin.omdoc.org/foundations/type_theory/church?PartialFunctionsDom -->
<g id="node24" class="node"><title>http://latin.omdoc.org/foundations/type_theory/church?PartialFunctionsDom</title>
<a xlink:href="http://latin.omdoc.org/foundations/type_theory/church?PartialFunctionsDom" class="graphtheory">
<ellipse fill="gray" stroke="black" cx="613" cy="-106" rx="87.1385" ry="18"/>
<text text-anchor="middle" x="613" y="-102.3" font-family="Times New Roman,serif" font-size="14.00">PartialFunctionsDom</text>
</a>
</g>
<!-- http://latin.omdoc.org/foundations/type_theory/church?Equality&#45;&gt;http://latin.omdoc.org/foundations/type_theory/church?PartialFunctionsDom -->
<g id="edge27" class="edge"><title>http://latin.omdoc.org/foundations/type_theory/church?Equality&#45;&gt;http://latin.omdoc.org/foundations/type_theory/church?PartialFunctionsDom</title>
<a class="graphinclude">
<path fill="none" stroke="black" d="M1027.93,-178.53C1020.93,-174.418 1012.9,-170.408 1005,-168 948.298,-150.716 930.719,-166.121 872,-158 836.514,-153.092 828.139,-148.974 793,-142 757.202,-134.895 717.369,-127.134 684.294,-120.73"/>
<polygon fill="black" stroke="black" points="684.741,-117.252 674.258,-118.789 683.411,-124.125 684.741,-117.252"/>
</a>
</g>
<!-- http://latin.omdoc.org/foundations/type_theory/church?IdentityTypes -->
<g id="node26" class="node"><title>http://latin.omdoc.org/foundations/type_theory/church?IdentityTypes</title>
<a xlink:href="http://latin.omdoc.org/foundations/type_theory/church?IdentityTypes" class="graphtheory">
<ellipse fill="gray" stroke="black" cx="1526" cy="-106" rx="61.1419" ry="18"/>
<text text-anchor="middle" x="1526" y="-102.3" font-family="Times New Roman,serif" font-size="14.00">IdentityTypes</text>
</a>
</g>
<!-- http://latin.omdoc.org/foundations/type_theory/church?Equality&#45;&gt;http://latin.omdoc.org/foundations/type_theory/church?IdentityTypes -->
<g id="edge29" class="edge"><title>http://latin.omdoc.org/foundations/type_theory/church?Equality&#45;&gt;http://latin.omdoc.org/foundations/type_theory/church?IdentityTypes</title>
<a class="graphinclude">
<path fill="none" stroke="black" d="M1070,-178.288C1077,-174.163 1085.04,-170.207 1093,-168 1115.06,-161.882 1486.13,-170.97 1505,-158 1513.11,-152.423 1518.1,-143.1 1521.16,-133.939"/>
<polygon fill="black" stroke="black" points="1524.54,-134.814 1523.78,-124.247 1517.79,-132.986 1524.54,-134.814"/>
</a>
</g>
<!-- http://latin.omdoc.org/foundations/type_theory/church?DisjUnion -->
<g id="node28" class="node"><title>http://latin.omdoc.org/foundations/type_theory/church?DisjUnion</title>
<a xlink:href="http://latin.omdoc.org/foundations/type_theory/church?DisjUnion" class="graphtheory">
<ellipse fill="gray" stroke="black" cx="46" cy="-106" rx="46.1964" ry="18"/>
<text text-anchor="middle" x="46" y="-102.3" font-family="Times New Roman,serif" font-size="14.00">DisjUnion</text>
</a>
</g>
<!-- http://latin.omdoc.org/foundations/type_theory/church?Equality&#45;&gt;http://latin.omdoc.org/foundations/type_theory/church?DisjUnion -->
<g id="edge31" class="edge"><title>http://latin.omdoc.org/foundations/type_theory/church?Equality&#45;&gt;http://latin.omdoc.org/foundations/type_theory/church?DisjUnion</title>
<a class="graphinclude">
<path fill="none" stroke="black" d="M1028.46,-178.517C1021.36,-174.296 1013.14,-170.224 1005,-168 942.077,-150.798 483.106,-162.049 418,-158 277.017,-149.233 240.412,-152.195 102,-124 97.9119,-123.167 93.6944,-122.164 89.4944,-121.067"/>
<polygon fill="black" stroke="black" points="90.3667,-117.677 79.7947,-118.372 88.4925,-124.421 90.3667,-117.677"/>
</a>
</g>
<!-- http://latin.omdoc.org/foundations/type_theory/church?PartialFunctions -->
<g id="node30" class="node"><title>http://latin.omdoc.org/foundations/type_theory/church?PartialFunctions</title>
<a xlink:href="http://latin.omdoc.org/foundations/type_theory/church?PartialFunctions" class="graphtheory">
<ellipse fill="gray" stroke="black" cx="1786" cy="-106" rx="69.3156" ry="18"/>
<text text-anchor="middle" x="1786" y="-102.3" font-family="Times New Roman,serif" font-size="14.00">PartialFunctions</text>
</a>
</g>
<!-- http://latin.omdoc.org/foundations/type_theory/church?Equality&#45;&gt;http://latin.omdoc.org/foundations/type_theory/church?PartialFunctions -->
<g id="edge33" class="edge"><title>http://latin.omdoc.org/foundations/type_theory/church?Equality&#45;&gt;http://latin.omdoc.org/foundations/type_theory/church?PartialFunctions</title>
<a class="graphinclude">
<path fill="none" stroke="black" d="M1069.55,-178.536C1076.65,-174.317 1084.87,-170.241 1093,-168 1143.57,-154.062 1512.95,-164.487 1565,-158 1622.94,-150.779 1687.91,-134.812 1732.32,-122.654"/>
<polygon fill="black" stroke="black" points="1733.33,-126.006 1742.03,-119.966 1731.46,-119.26 1733.33,-126.006"/>
</a>
</g>
<!-- http://latin.omdoc.org/foundations/type_theory/church?Products -->
<g id="node32" class="node"><title>http://latin.omdoc.org/foundations/type_theory/church?Products</title>
<a xlink:href="http://latin.omdoc.org/foundations/type_theory/church?Products" class="graphtheory">
<ellipse fill="gray" stroke="black" cx="1918" cy="-106" rx="44.2946" ry="18"/>
<text text-anchor="middle" x="1918" y="-102.3" font-family="Times New Roman,serif" font-size="14.00">Products</text>
</a>
</g>
<!-- http://latin.omdoc.org/foundations/type_theory/church?Equality&#45;&gt;http://latin.omdoc.org/foundations/type_theory/church?Products -->
<g id="edge35" class="edge"><title>http://latin.omdoc.org/foundations/type_theory/church?Equality&#45;&gt;http://latin.omdoc.org/foundations/type_theory/church?Products</title>
<a class="graphinclude">
<path fill="none" stroke="black" d="M1069.55,-178.526C1076.65,-174.305 1084.87,-170.232 1093,-168 1149.69,-152.444 1563.4,-162.654 1622,-158 1730.27,-149.402 1758.06,-147.945 1864,-124 1867.83,-123.135 1871.77,-122.126 1875.71,-121.04"/>
<polygon fill="black" stroke="black" points="1876.78,-124.375 1885.4,-118.216 1874.82,-117.654 1876.78,-124.375"/>
</a>
</g>
<!-- http://latin.omdoc.org/foundations/type_theory/church?DefinitionalEquality -->
<g id="node34" class="node"><title>http://latin.omdoc.org/foundations/type_theory/church?DefinitionalEquality</title>
<a xlink:href="http://latin.omdoc.org/foundations/type_theory/church?DefinitionalEquality" class="graphtheory">
<ellipse fill="gray" stroke="black" cx="799" cy="-106" rx="81.3646" ry="18"/>
<text text-anchor="middle" x="799" y="-102.3" font-family="Times New Roman,serif" font-size="14.00">DefinitionalEquality</text>
</a>
</g>
<!-- http://latin.omdoc.org/foundations/type_theory/church?Equality&#45;&gt;http://latin.omdoc.org/foundations/type_theory/church?DefinitionalEquality -->
<g id="edge37" class="edge"><title>http://latin.omdoc.org/foundations/type_theory/church?Equality&#45;&gt;http://latin.omdoc.org/foundations/type_theory/church?DefinitionalEquality</title>
<a class="graphinclude">
<path fill="none" stroke="black" d="M1027.42,-178.467C1020.52,-174.456 1012.68,-170.519 1005,-168 968.856,-156.146 956.779,-167.705 920,-158 891.909,-150.587 861.8,-137.916 838.644,-127.059"/>
<polygon fill="black" stroke="black" points="840.024,-123.84 829.492,-122.693 837.01,-130.158 840.024,-123.84"/>
</a>
</g>
<!-- http://latin.omdoc.org/foundations/type_theory/church?DependentSum -->
<g id="node36" class="node"><title>http://latin.omdoc.org/foundations/type_theory/church?DependentSum</title>
<a xlink:href="http://latin.omdoc.org/foundations/type_theory/church?DependentSum" class="graphtheory">
<ellipse fill="gray" stroke="black" cx="2046" cy="-106" rx="65.9423" ry="18"/>
<text text-anchor="middle" x="2046" y="-102.3" font-family="Times New Roman,serif" font-size="14.00">DependentSum</text>
</a>
</g>
<!-- http://latin.omdoc.org/foundations/type_theory/church?Equality&#45;&gt;http://latin.omdoc.org/foundations/type_theory/church?DependentSum -->
<g id="edge39" class="edge"><title>http://latin.omdoc.org/foundations/type_theory/church?Equality&#45;&gt;http://latin.omdoc.org/foundations/type_theory/church?DependentSum</title>
<a class="graphinclude">
<path fill="none" stroke="black" d="M1069.54,-178.512C1076.64,-174.291 1084.86,-170.221 1093,-168 1159.36,-149.89 1643.4,-163.04 1712,-158 1827.79,-149.493 1856.71,-144.41 1971,-124 1976.5,-123.017 1982.21,-121.901 1987.92,-120.721"/>
<polygon fill="black" stroke="black" points="1989.07,-124.054 1998.12,-118.545 1987.61,-117.207 1989.07,-124.054"/>
</a>
</g>
<!-- http://latin.omdoc.org/foundations/type_theory/church?Functions -->
<g id="node38" class="node"><title>http://latin.omdoc.org/foundations/type_theory/church?Functions</title>
<a xlink:href="http://latin.omdoc.org/foundations/type_theory/church?Functions" class="graphtheory">
<ellipse fill="gray" stroke="black" cx="1652" cy="-106" rx="46.1964" ry="18"/>
<text text-anchor="middle" x="1652" y="-102.3" font-family="Times New Roman,serif" font-size="14.00">Functions</text>
</a>
</g>
<!-- http://latin.omdoc.org/foundations/type_theory/church?Equality&#45;&gt;http://latin.omdoc.org/foundations/type_theory/church?Functions -->
<g id="edge41" class="edge"><title>http://latin.omdoc.org/foundations/type_theory/church?Equality&#45;&gt;http://latin.omdoc.org/foundations/type_theory/church?Functions</title>
<a class="graphinclude">
<path fill="none" stroke="black" d="M1070,-178.282C1076.99,-174.158 1085.04,-170.202 1093,-168 1185.76,-142.338 1431.74,-177.484 1526,-158 1557.62,-151.463 1591.44,-137.343 1616.07,-125.614"/>
<polygon fill="black" stroke="black" points="1617.9,-128.615 1625.37,-121.093 1614.84,-122.32 1617.9,-128.615"/>
</a>
</g>
<!-- http://latin.omdoc.org/foundations/type_theory/church?AxiomaticEquality&#45;&gt;http://latin.omdoc.org/foundations/zfc?TypedZF -->
<g id="edge85" class="edge"><title>http://latin.omdoc.org/foundations/type_theory/church?AxiomaticEquality&#45;&gt;http://latin.omdoc.org/foundations/zfc?TypedZF</title>
<a xlink:href="http://latin.omdoc.org/foundations/type_theory/church?_AxiomaticEquality" class="graphview">
<path fill="none" stroke="black" d="M2224.75,-88.4183C2208.32,-74.9583 2185,-55.8596 2166.98,-41.101"/>
<polygon fill="black" stroke="black" points="2169.08,-38.29 2159.12,-34.6612 2164.64,-43.7054 2169.08,-38.29"/>
</a>
<a xlink:href="http://latin.omdoc.org/foundations/type_theory/church?_AxiomaticEquality" class="_AxiomaticEquality">
<text text-anchor="middle" x="2257" y="-58.3" font-family="Times New Roman,serif" font-size="14.00">_AxiomaticEquality</text>
</a>
</g>
<!-- http://latin.omdoc.org/math?EqUniverse -->
<g id="node20" class="node"><title>http://latin.omdoc.org/math?EqUniverse</title>
<a xlink:href="http://latin.omdoc.org/math?EqUniverse" class="graphtheory">
<ellipse fill="gray" stroke="black" cx="1130" cy="-282" rx="52.4675" ry="18"/>
<text text-anchor="middle" x="1130" y="-278.3" font-family="Times New Roman,serif" font-size="14.00">EqUniverse</text>
</a>
</g>
<!-- http://latin.omdoc.org/math?EqUniverse&#45;&gt;http://latin.omdoc.org/foundations/type_theory/church?Equality -->
<g id="edge23" class="edge"><title>http://latin.omdoc.org/math?EqUniverse&#45;&gt;http://latin.omdoc.org/foundations/type_theory/church?Equality</title>
<a xlink:href="http://latin.omdoc.org/foundations/type_theory/church?Equality?teq" class="graphstructure">
<path fill="none" stroke="black" d="M1114.38,-264.418C1102.13,-251.404 1084.9,-233.12 1071.21,-218.583"/>
<polygon fill="black" stroke="black" points="1073.43,-215.829 1064.02,-210.949 1068.33,-220.629 1073.43,-215.829"/>
</a>
<a xlink:href="http://latin.omdoc.org/foundations/type_theory/church?Equality?teq" class="teq">
<text text-anchor="middle" x="1106" y="-234.3" font-family="Times New Roman,serif" font-size="14.00">teq</text>
</a>
</g>
<!-- http://latin.omdoc.org/foundations/type_theory/church?DefinitionalEquality&#45;&gt;http://latin.omdoc.org/foundations/zfc?TypedZF -->
<g id="edge83" class="edge"><title>http://latin.omdoc.org/foundations/type_theory/church?DefinitionalEquality&#45;&gt;http://latin.omdoc.org/foundations/zfc?TypedZF</title>
<a xlink:href="http://latin.omdoc.org/foundations/type_theory/church?_DefinitionalEquality" class="graphview">
<path fill="none" stroke="black" d="M856.479,-93.2899C867.255,-91.3371 878.448,-89.4714 889,-88 1054.75,-64.887 1097.01,-64.8995 1264,-54 1573.74,-33.7835 1945.91,-23.5655 2084.48,-20.2455"/>
<polygon fill="black" stroke="black" points="2084.91,-23.7363 2094.82,-20 2084.74,-16.7383 2084.91,-23.7363"/>
</a>
<a xlink:href="http://latin.omdoc.org/foundations/type_theory/church?_DefinitionalEquality" class="_DefinitionalEquality">
<text text-anchor="middle" x="1322" y="-58.3" font-family="Times New Roman,serif" font-size="14.00">_DefinitionalEquality</text>
</a>
</g>
<!-- http://latin.omdoc.org/foundations/type_theory/church?IndexedUniverse -->
<g id="node40" class="node"><title>http://latin.omdoc.org/foundations/type_theory/church?IndexedUniverse</title>
<a xlink:href="http://latin.omdoc.org/foundations/type_theory/church?IndexedUniverse" class="graphtheory">
<ellipse fill="gray" stroke="black" cx="2104" cy="-282" rx="71.2405" ry="18"/>
<text text-anchor="middle" x="2104" y="-278.3" font-family="Times New Roman,serif" font-size="14.00">IndexedUniverse</text>
</a>
</g>
<!-- http://latin.omdoc.org/foundations/type_theory/church?IndexedUniverse&#45;&gt;http://latin.omdoc.org/foundations/type_theory/church?Equality -->
<g id="edge43" class="edge"><title>http://latin.omdoc.org/foundations/type_theory/church?IndexedUniverse&#45;&gt;http://latin.omdoc.org/foundations/type_theory/church?Equality</title>
<a class="graphinclude">
<path fill="none" stroke="black" d="M2032.81,-280.877C1832.88,-279.871 1269.37,-272.339 1093,-220 1088.3,-218.605 1083.56,-216.63 1079.01,-214.394"/>
<polygon fill="black" stroke="black" points="1080.51,-211.223 1070.05,-209.541 1077.18,-217.379 1080.51,-211.223"/>
</a>
</g>
<!-- http://latin.omdoc.org/foundations/type_theory/church?IndexedUniverse&#45;&gt;http://latin.omdoc.org/foundations/zfc?TypedZF -->
<g id="edge79" class="edge"><title>http://latin.omdoc.org/foundations/type_theory/church?IndexedUniverse&#45;&gt;http://latin.omdoc.org/foundations/zfc?TypedZF</title>
<a xlink:href="http://latin.omdoc.org/foundations/type_theory/church?_IndexedUniverse" class="graphview">
<path fill="none" stroke="black" d="M2106.36,-263.809C2112.46,-219.396 2128.8,-100.533 2136.23,-46.4614"/>
<polygon fill="black" stroke="black" points="2139.74,-46.6372 2137.63,-36.2538 2132.8,-45.6843 2139.74,-46.6372"/>
</a>
<a xlink:href="http://latin.omdoc.org/foundations/type_theory/church?_IndexedUniverse" class="_IndexedUniverse">
<text text-anchor="middle" x="2174" y="-146.3" font-family="Times New Roman,serif" font-size="14.00">_IndexedUniverse</text>
</a>
</g>
<!-- http://latin.omdoc.org/foundations/type_theory/church?IndexedUniverse&#45;&gt;http://latin.omdoc.org/foundations/type_theory/church?AxiomaticEquality -->
<g id="edge81" class="edge"><title>http://latin.omdoc.org/foundations/type_theory/church?IndexedUniverse&#45;&gt;http://latin.omdoc.org/foundations/type_theory/church?AxiomaticEquality</title>
<a class="graphinclude">
<path fill="none" stroke="black" d="M2127.43,-264.679C2156.17,-243.426 2204.33,-203.565 2231,-158 2235.19,-150.837 2238.17,-142.374 2240.27,-134.422"/>
<polygon fill="black" stroke="black" points="2243.74,-134.943 2242.55,-124.416 2236.91,-133.389 2243.74,-134.943"/>
</a>
</g>
<!-- http://cds.omdoc.org/urtheories?LF -->
<g id="node42" class="node"><title>http://cds.omdoc.org/urtheories?LF</title>
<a xlink:href="http://cds.omdoc.org/urtheories?LF" class="graphtheory">
<ellipse fill="gray" stroke="black" cx="1130" cy="-356" rx="27" ry="18"/>
<text text-anchor="middle" x="1130" y="-352.3" font-family="Times New Roman,serif" font-size="14.00">LF</text>
</a>
</g>
<!-- http://cds.omdoc.org/urtheories?LF&#45;&gt;http://latin.omdoc.org/foundations/type_theory/church?Equality -->
<g id="edge45" class="edge"><title>http://cds.omdoc.org/urtheories?LF&#45;&gt;http://latin.omdoc.org/foundations/type_theory/church?Equality</title>
<a class="graphmeta">
<path fill="none" stroke="black" d="M1110.91,-343.204C1096.76,-333.417 1078.22,-318.187 1068,-300 1054.5,-275.991 1050.28,-244.455 1049.1,-222.232"/>
<polygon fill="black" stroke="black" points="1052.6,-222.014 1048.74,-212.145 1045.6,-222.263 1052.6,-222.014"/>
</a>
</g>
<!-- http://cds.omdoc.org/urtheories?LF&#45;&gt;http://latin.omdoc.org/foundations/zfc?TypedZF -->
<g id="edge61" class="edge"><title>http://cds.omdoc.org/urtheories?LF&#45;&gt;http://latin.omdoc.org/foundations/zfc?TypedZF</title>
<a class="graphmeta">
<path fill="none" stroke="black" d="M1157.19,-354.861C1337.2,-353.767 2350,-344.862 2350,-283 2350,-283 2350,-283 2350,-105 2350,-38.1048 2257.62,-22.115 2195.4,-18.9316"/>
<polygon fill="black" stroke="black" points="2195.45,-15.4307 2185.31,-18.5124 2195.15,-22.4246 2195.45,-15.4307"/>
</a>
</g>
<!-- http://cds.omdoc.org/urtheories?LF&#45;&gt;http://latin.omdoc.org/foundations/type_theory/church?ReflectedEquality -->
<g id="edge71" class="edge"><title>http://cds.omdoc.org/urtheories?LF&#45;&gt;http://latin.omdoc.org/foundations/type_theory/church?ReflectedEquality</title>
<a class="graphmeta">
<path fill="none" stroke="black" d="M1103.18,-353.032C1039.45,-347.963 874.242,-332.519 740,-300 545.686,-252.929 323.626,-164.564 230.627,-125.911"/>
<polygon fill="black" stroke="black" points="231.822,-122.618 221.246,-121.999 229.128,-129.078 231.822,-122.618"/>
</a>
</g>
<!-- http://cds.omdoc.org/urtheories?LF&#45;&gt;http://latin.omdoc.org/foundations/type_theory/church?KindsTypesTerms -->
<g id="edge65" class="edge"><title>http://cds.omdoc.org/urtheories?LF&#45;&gt;http://latin.omdoc.org/foundations/type_theory/church?KindsTypesTerms</title>
<a class="graphmeta">
<path fill="none" stroke="black" d="M1103.95,-350.661C1065.59,-344.228 991.682,-331.662 929,-320 884.011,-311.63 871.26,-314.92 828,-300 681.061,-249.32 662.394,-194.233 516,-142 499.149,-135.988 460.081,-127.362 424.89,-120.179"/>
<polygon fill="black" stroke="black" points="425.584,-116.749 415.089,-118.194 424.195,-123.609 425.584,-116.749"/>
</a>
</g>
<!-- http://cds.omdoc.org/urtheories?LF&#45;&gt;http://latin.omdoc.org/foundations/type_theory/church?AxiomaticEquality -->
<g id="edge47" class="edge"><title>http://cds.omdoc.org/urtheories?LF&#45;&gt;http://latin.omdoc.org/foundations/type_theory/church?AxiomaticEquality</title>
<a class="graphmeta">
<path fill="none" stroke="black" d="M1157.22,-355.277C1313.98,-356.654 2097.57,-360.454 2184,-300 2240.88,-260.218 2234.22,-225.816 2249,-158 2250.66,-150.364 2250.71,-141.951 2250.06,-134.198"/>
<polygon fill="black" stroke="black" points="2253.52,-133.664 2248.82,-124.17 2246.57,-134.524 2253.52,-133.664"/>
</a>
</g>
<!-- http://cds.omdoc.org/urtheories?LF&#45;&gt;http://latin.omdoc.org/foundations/type_theory/church?PTSRule -->
<g id="edge59" class="edge"><title>http://cds.omdoc.org/urtheories?LF&#45;&gt;http://latin.omdoc.org/foundations/type_theory/church?PTSRule</title>
<a class="graphmeta">
<path fill="none" stroke="black" d="M1109.5,-344.202C1064.17,-318.949 956.569,-251.051 920,-158 916.669,-149.523 918.79,-140.359 922.795,-132.168"/>
<polygon fill="black" stroke="black" points="925.884,-133.82 927.926,-123.423 919.846,-130.277 925.884,-133.82"/>
</a>
</g>
<!-- http://cds.omdoc.org/urtheories?LF&#45;&gt;http://latin.omdoc.org/math?EqUniverse -->
<g id="edge73" class="edge"><title>http://cds.omdoc.org/urtheories?LF&#45;&gt;http://latin.omdoc.org/math?EqUniverse</title>
<a class="graphmeta">
<path fill="none" stroke="black" d="M1130,-337.937C1130,-329.807 1130,-319.876 1130,-310.705"/>
<polygon fill="black" stroke="black" points="1133.5,-310.441 1130,-300.441 1126.5,-310.441 1133.5,-310.441"/>
</a>
</g>
<!-- http://cds.omdoc.org/urtheories?LF&#45;&gt;http://latin.omdoc.org/foundations/type_theory/church?Unit -->
<g id="edge67" class="edge"><title>http://cds.omdoc.org/urtheories?LF&#45;&gt;http://latin.omdoc.org/foundations/type_theory/church?Unit</title>
<a class="graphmeta">
<path fill="none" stroke="black" d="M1103.16,-352.724C1056.9,-347.993 959.986,-334.506 886,-300 832.83,-275.203 827.55,-255.708 781,-220 758.499,-202.74 706.295,-152.619 680,-142 612.418,-114.709 587.135,-143.832 517,-124 515.055,-123.45 513.084,-122.804 511.119,-122.09"/>
<polygon fill="black" stroke="black" points="512.064,-118.693 501.486,-118.099 509.385,-125.16 512.064,-118.693"/>
</a>
</g>
<!-- http://cds.omdoc.org/urtheories?LF&#45;&gt;http://latin.omdoc.org/foundations/type_theory/church?PartialFunctionsDom -->
<g id="edge55" class="edge"><title>http://cds.omdoc.org/urtheories?LF&#45;&gt;http://latin.omdoc.org/foundations/type_theory/church?PartialFunctionsDom</title>
<a class="graphmeta">
<path fill="none" stroke="black" d="M1104.04,-350.419C1067.18,-343.231 998.249,-327.237 945,-300 842.588,-247.616 842.933,-193.354 740,-142 722.739,-133.389 703.067,-126.652 684.446,-121.49"/>
<polygon fill="black" stroke="black" points="685.091,-118.04 674.528,-118.858 683.295,-124.806 685.091,-118.04"/>
</a>
</g>
<!-- http://cds.omdoc.org/urtheories?LF&#45;&gt;http://latin.omdoc.org/foundations/type_theory/church?IdentityTypes -->
<g id="edge53" class="edge"><title>http://cds.omdoc.org/urtheories?LF&#45;&gt;http://latin.omdoc.org/foundations/type_theory/church?IdentityTypes</title>
<a class="graphmeta">
<path fill="none" stroke="black" d="M1156.33,-351.356C1230.52,-339.508 1441.39,-294.595 1526,-158 1530.28,-151.092 1531.49,-142.581 1531.28,-134.506"/>
<polygon fill="black" stroke="black" points="1534.75,-133.943 1530.33,-124.312 1527.78,-134.594 1534.75,-133.943"/>
</a>
</g>
<!-- http://cds.omdoc.org/urtheories?LF&#45;&gt;http://latin.omdoc.org/foundations/type_theory/church?DisjUnion -->
<g id="edge75" class="edge"><title>http://cds.omdoc.org/urtheories?LF&#45;&gt;http://latin.omdoc.org/foundations/type_theory/church?DisjUnion</title>
<a class="graphmeta">
<path fill="none" stroke="black" d="M1103.01,-353.831C1025.7,-350.119 797.03,-336.615 611,-300 486.107,-275.418 456.531,-260.925 336,-220 245.257,-189.189 141.06,-146.835 85.6022,-123.719"/>
<polygon fill="black" stroke="black" points="86.7297,-120.397 76.1534,-119.77 84.0303,-126.855 86.7297,-120.397"/>
</a>
</g>
<!-- http://cds.omdoc.org/urtheories?LF&#45;&gt;http://latin.omdoc.org/foundations/type_theory/church?PartialFunctions -->
<g id="edge77" class="edge"><title>http://cds.omdoc.org/urtheories?LF&#45;&gt;http://latin.omdoc.org/foundations/type_theory/church?PartialFunctions</title>
<a class="graphmeta">
<path fill="none" stroke="black" d="M1157.04,-353.138C1211.46,-348.75 1337.5,-335.332 1437,-300 1562.05,-255.594 1695.48,-169.5 1754.64,-129.03"/>
<polygon fill="black" stroke="black" points="1756.91,-131.722 1763.16,-123.17 1752.94,-125.956 1756.91,-131.722"/>
</a>
</g>
<!-- http://cds.omdoc.org/urtheories?LF&#45;&gt;http://latin.omdoc.org/foundations/type_theory/church?Products -->
<g id="edge63" class="edge"><title>http://cds.omdoc.org/urtheories?LF&#45;&gt;http://latin.omdoc.org/foundations/type_theory/church?Products</title>
<a class="graphmeta">
<path fill="none" stroke="black" d="M1156.54,-351.892C1203.52,-346.285 1304.36,-333.77 1389,-320 1435.89,-312.372 1448.73,-314.388 1494,-300 1645.22,-251.943 1813.69,-164.191 1884.15,-125.812"/>
<polygon fill="black" stroke="black" points="1885.94,-128.819 1893.04,-120.949 1882.58,-122.678 1885.94,-128.819"/>
</a>
</g>
<!-- http://cds.omdoc.org/urtheories?LF&#45;&gt;http://latin.omdoc.org/foundations/type_theory/church?DefinitionalEquality -->
<g id="edge51" class="edge"><title>http://cds.omdoc.org/urtheories?LF&#45;&gt;http://latin.omdoc.org/foundations/type_theory/church?DefinitionalEquality</title>
<a class="graphmeta">
<path fill="none" stroke="black" d="M1105.45,-348.184C1077.27,-339.664 1030.41,-323.312 995,-300 921.084,-251.331 851.473,-171.987 818.669,-131.883"/>
<polygon fill="black" stroke="black" points="821.254,-129.514 812.24,-123.946 815.815,-133.92 821.254,-129.514"/>
</a>
</g>
<!-- http://cds.omdoc.org/urtheories?LF&#45;&gt;http://latin.omdoc.org/foundations/type_theory/church?DependentSum -->
<g id="edge49" class="edge"><title>http://cds.omdoc.org/urtheories?LF&#45;&gt;http://latin.omdoc.org/foundations/type_theory/church?DependentSum</title>
<a class="graphmeta">
<path fill="none" stroke="black" d="M1156.26,-351.814C1205.87,-345.774 1316.73,-332.174 1410,-320 1475.38,-311.466 1493.13,-316.389 1557,-300 1652.94,-275.381 1674.87,-261.065 1765,-220 1832.3,-189.336 1843.09,-168.86 1912,-142 1926.04,-136.528 1958.45,-128.025 1987.88,-120.77"/>
<polygon fill="black" stroke="black" points="1988.83,-124.14 1997.71,-118.364 1987.17,-117.341 1988.83,-124.14"/>
</a>
</g>
<!-- http://cds.omdoc.org/urtheories?LF&#45;&gt;http://latin.omdoc.org/foundations/type_theory/church?Functions -->
<g id="edge57" class="edge"><title>http://cds.omdoc.org/urtheories?LF&#45;&gt;http://latin.omdoc.org/foundations/type_theory/church?Functions</title>
<a class="graphmeta">
<path fill="none" stroke="black" d="M1155.7,-350.06C1189.69,-343.474 1251.44,-331.326 1304,-320 1342.79,-311.643 1354.6,-315.775 1391,-300 1449.48,-274.66 1458.58,-257.65 1510,-220 1551.18,-189.846 1597.11,-152.602 1625.28,-129.318"/>
<polygon fill="black" stroke="black" points="1627.62,-131.927 1633.09,-122.851 1623.15,-126.538 1627.62,-131.927"/>
</a>
</g>
<!-- http://cds.omdoc.org/urtheories?LF&#45;&gt;http://latin.omdoc.org/foundations/type_theory/church?IndexedUniverse -->
<g id="edge69" class="edge"><title>http://cds.omdoc.org/urtheories?LF&#45;&gt;http://latin.omdoc.org/foundations/type_theory/church?IndexedUniverse</title>
<a class="graphmeta">
<path fill="none" stroke="black" d="M1157.13,-355.212C1257.58,-355.696 1617.78,-354.746 1912,-320 1956.41,-314.756 2005.95,-305.112 2043.59,-296.984"/>
<polygon fill="black" stroke="black" points="2044.36,-300.399 2053.38,-294.846 2042.86,-293.56 2044.36,-300.399"/>
</a>
</g>
</g>
</svg>
