<?xml version="1.0" encoding="UTF-8" standalone="no"?>
<!DOCTYPE svg PUBLIC "-//W3C//DTD SVG 1.1//EN"
 "http://www.w3.org/Graphics/SVG/1.1/DTD/svg11.dtd">
<!-- Generated by graphviz version 2.28.0 (20110507.0327)
 -->
<!-- Title: MMT Pages: 1 -->
<svg
 viewBox="0.00 0.00 230.68 280.00" xmlns="http://www.w3.org/2000/svg" xmlns:xlink="http://www.w3.org/1999/xlink">
<g id="graph1" class="graph" transform="scale(1 1) rotate(0) translate(4 276)">
<title>MMT</title>
<polygon fill="white" stroke="white" points="-4,5 -4,-276 227.681,-276 227.681,5 -4,5"/>
<g id="graph2" class="cluster"><title>cluster_local</title>
<polygon fill="none" stroke="black" points="12.681,-80 12.681,-132 150.681,-132 150.681,-80 12.681,-80"/>
</g>
<!-- http://latin.omdoc.org/foundations/type_theory/church?ExternalLogic -->
<g id="node2" class="node"><title>http://latin.omdoc.org/foundations/type_theory/church?ExternalLogic</title>
<a xlink:href="http://latin.omdoc.org/foundations/type_theory/church?ExternalLogic" class="graphtheory">
<ellipse fill="none" stroke="black" cx="81.681" cy="-106" rx="61.1419" ry="18"/>
<text text-anchor="middle" x="81.681" y="-102.3" font-family="Times New Roman,serif" font-size="14.00">ExternalLogic</text>
</a>
</g>
<!-- http://latin.omdoc.org/foundations/zfc?TypedZF -->
<g id="node3" class="node"><title>http://latin.omdoc.org/foundations/zfc?TypedZF</title>
<a xlink:href="http://latin.omdoc.org/foundations/zfc?TypedZF" class="graphtheory">
<ellipse fill="gray" stroke="black" cx="78.681" cy="-18" rx="45.244" ry="18"/>
<text text-anchor="middle" x="78.681" y="-14.3" font-family="Times New Roman,serif" font-size="14.00">TypedZF</text>
</a>
</g>
<!-- http://latin.omdoc.org/foundations/type_theory/church?ExternalLogic&#45;&gt;http://latin.omdoc.org/foundations/zfc?TypedZF -->
<g id="edge3" class="edge"><title>http://latin.omdoc.org/foundations/type_theory/church?ExternalLogic&#45;&gt;http://latin.omdoc.org/foundations/zfc?TypedZF</title>
<a xlink:href="http://latin.omdoc.org/foundations/type_theory/church?_ExternalLogic" class="graphview">
<path fill="none" stroke="black" d="M80.5763,-87.9163C80.2422,-82.2201 79.9049,-75.8386 79.681,-70 79.3856,-62.3011 79.1755,-53.9448 79.0268,-46.2672"/>
<polygon fill="black" stroke="black" points="82.522,-45.9446 78.8551,-36.0046 75.523,-46.0618 82.522,-45.9446"/>
</a>
<a xlink:href="http://latin.omdoc.org/foundations/type_theory/church?_ExternalLogic" class="_ExternalLogic">
<text text-anchor="middle" x="122.181" y="-58.3" font-family="Times New Roman,serif" font-size="14.00">_ExternalLogic</text>
</a>
</g>
<!-- http://latin.omdoc.org/foundations/type_theory/church?Logic -->
<g id="node5" class="node"><title>http://latin.omdoc.org/foundations/type_theory/church?Logic</title>
<a xlink:href="http://latin.omdoc.org/foundations/type_theory/church?Logic" class="graphtheory">
<ellipse fill="gray" stroke="black" cx="105.681" cy="-180" rx="31.2735" ry="18"/>
<text text-anchor="middle" x="105.681" y="-176.3" font-family="Times New Roman,serif" font-size="14.00">Logic</text>
</a>
</g>
<!-- http://latin.omdoc.org/foundations/type_theory/church?Logic&#45;&gt;http://latin.omdoc.org/foundations/type_theory/church?ExternalLogic -->
<g id="edge5" class="edge"><title>http://latin.omdoc.org/foundations/type_theory/church?Logic&#45;&gt;http://latin.omdoc.org/foundations/type_theory/church?ExternalLogic</title>
<a class="graphinclude">
<path fill="none" stroke="black" d="M99.9933,-161.937C97.1837,-153.508 93.7288,-143.143 90.5798,-133.696"/>
<polygon fill="black" stroke="black" points="93.8105,-132.321 87.3278,-123.941 87.1698,-134.534 93.8105,-132.321"/>
</a>
</g>
<!-- http://latin.omdoc.org/foundations/type_theory/church?Logic&#45;&gt;http://latin.omdoc.org/foundations/zfc?TypedZF -->
<g id="edge13" class="edge"><title>http://latin.omdoc.org/foundations/type_theory/church?Logic&#45;&gt;http://latin.omdoc.org/foundations/zfc?TypedZF</title>
<a xlink:href="http://latin.omdoc.org/foundations/type_theory/church?_ELogic" class="graphview">
<path fill="none" stroke="black" d="M124.925,-165.521C135.422,-157.112 147.672,-145.362 154.681,-132 170.915,-101.049 184.188,-82.9999 164.681,-54 156.572,-41.9456 143.514,-34.0408 129.996,-28.8579"/>
<polygon fill="black" stroke="black" points="130.73,-25.4123 120.136,-25.5446 128.501,-32.0477 130.73,-25.4123"/>
</a>
<a xlink:href="http://latin.omdoc.org/foundations/type_theory/church?_ELogic" class="_ELogic">
<text text-anchor="middle" x="198.181" y="-102.3" font-family="Times New Roman,serif" font-size="14.00">_ELogic</text>
</a>
</g>
<!-- http://cds.omdoc.org/urtheories?LF -->
<g id="node7" class="node"><title>http://cds.omdoc.org/urtheories?LF</title>
<a xlink:href="http://cds.omdoc.org/urtheories?LF" class="graphtheory">
<ellipse fill="gray" stroke="black" cx="45.681" cy="-254" rx="27" ry="18"/>
<text text-anchor="middle" x="45.681" y="-250.3" font-family="Times New Roman,serif" font-size="14.00">LF</text>
</a>
</g>
<!-- http://cds.omdoc.org/urtheories?LF&#45;&gt;http://latin.omdoc.org/foundations/type_theory/church?ExternalLogic -->
<g id="edge7" class="edge"><title>http://cds.omdoc.org/urtheories?LF&#45;&gt;http://latin.omdoc.org/foundations/type_theory/church?ExternalLogic</title>
<a class="graphmeta">
<path fill="none" stroke="black" d="M48.7765,-235.781C52.1974,-217.399 58.101,-187.471 64.681,-162 67.0526,-152.819 70.0013,-142.889 72.7736,-134.026"/>
<polygon fill="black" stroke="black" points="76.1968,-134.812 75.9018,-124.221 69.5279,-132.684 76.1968,-134.812"/>
</a>
</g>
<!-- http://cds.omdoc.org/urtheories?LF&#45;&gt;http://latin.omdoc.org/foundations/zfc?TypedZF -->
<g id="edge11" class="edge"><title>http://cds.omdoc.org/urtheories?LF&#45;&gt;http://latin.omdoc.org/foundations/zfc?TypedZF</title>
<a class="graphmeta">
<path fill="none" stroke="black" d="M35.8793,-237.017C17.9766,-205.621 -15.9955,-134.235 8.68097,-80 16.3101,-63.2323 31.0776,-49.2789 45.0898,-38.9686"/>
<polygon fill="black" stroke="black" points="47.4285,-41.6058 53.6462,-33.0273 43.436,-35.856 47.4285,-41.6058"/>
</a>
</g>
<!-- http://cds.omdoc.org/urtheories?LF&#45;&gt;http://latin.omdoc.org/foundations/type_theory/church?Logic -->
<g id="edge9" class="edge"><title>http://cds.omdoc.org/urtheories?LF&#45;&gt;http://latin.omdoc.org/foundations/type_theory/church?Logic</title>
<a class="graphmeta">
<path fill="none" stroke="black" d="M58.4054,-237.731C66.4097,-228.125 76.903,-215.534 85.9696,-204.654"/>
<polygon fill="black" stroke="black" points="88.847,-206.668 92.5601,-196.745 83.4694,-202.187 88.847,-206.668"/>
</a>
</g>
</g>
</svg>
