<?xml version="1.0" encoding="UTF-8" standalone="no"?>
<!DOCTYPE svg PUBLIC "-//W3C//DTD SVG 1.1//EN"
 "http://www.w3.org/Graphics/SVG/1.1/DTD/svg11.dtd">
<!-- Generated by graphviz version 2.28.0 (20110507.0327)
 -->
<!-- Title: MMT Pages: 1 -->
<svg width="145pt" height="204pt"
 viewBox="0.00 0.00 145.00 204.00" xmlns="http://www.w3.org/2000/svg" xmlns:xlink="http://www.w3.org/1999/xlink">
<g id="graph1" class="graph" transform="scale(1 1) rotate(0) translate(4 200)">
<title>MMT</title>
<polygon fill="white" stroke="white" points="-4,5 -4,-200 142,-200 142,5 -4,5"/>
<g id="graph2" class="cluster"><title>cluster_local</title>
<polygon fill="none" stroke="black" points="8,-8 8,-60 118,-60 118,-8 8,-8"/>
</g>
<!-- http://latin.omdoc.org/foundations/type_theory/church?Functions -->
<g id="node2" class="node"><title>http://latin.omdoc.org/foundations/type_theory/church?Functions</title>
<a xlink:href="http://latin.omdoc.org/foundations/type_theory/church?Functions" class="graphtheory">
<ellipse fill="none" stroke="black" cx="63" cy="-34" rx="46.1964" ry="18"/>
<text text-anchor="middle" x="63" y="-30.3" font-family="Times New Roman,serif" font-size="14.00">Functions</text>
</a>
</g>
<!-- http://latin.omdoc.org/foundations/type_theory/church?Equality -->
<g id="node3" class="node"><title>http://latin.omdoc.org/foundations/type_theory/church?Equality</title>
<a xlink:href="http://latin.omdoc.org/foundations/type_theory/church?Equality" class="graphtheory">
<ellipse fill="gray" stroke="black" cx="97" cy="-106" rx="39.9464" ry="18"/>
<text text-anchor="middle" x="97" y="-102.3" font-family="Times New Roman,serif" font-size="14.00">Equality</text>
</a>
</g>
<!-- http://latin.omdoc.org/foundations/type_theory/church?Equality&#45;&gt;http://latin.omdoc.org/foundations/type_theory/church?Functions -->
<g id="edge3" class="edge"><title>http://latin.omdoc.org/foundations/type_theory/church?Equality&#45;&gt;http://latin.omdoc.org/foundations/type_theory/church?Functions</title>
<a class="graphinclude">
<path fill="none" stroke="black" d="M88.7695,-88.055C84.8021,-79.8866 79.9571,-69.9116 75.5433,-60.8244"/>
<polygon fill="black" stroke="black" points="78.672,-59.2549 71.1547,-51.789 72.3755,-62.3133 78.672,-59.2549"/>
</a>
</g>
<!-- http://cds.omdoc.org/urtheories?LF -->
<g id="node5" class="node"><title>http://cds.omdoc.org/urtheories?LF</title>
<a xlink:href="http://cds.omdoc.org/urtheories?LF" class="graphtheory">
<ellipse fill="gray" stroke="black" cx="63" cy="-178" rx="27" ry="18"/>
<text text-anchor="middle" x="63" y="-174.3" font-family="Times New Roman,serif" font-size="14.00">LF</text>
</a>
</g>
<!-- http://cds.omdoc.org/urtheories?LF&#45;&gt;http://latin.omdoc.org/foundations/type_theory/church?Functions -->
<g id="edge5" class="edge"><title>http://cds.omdoc.org/urtheories?LF&#45;&gt;http://latin.omdoc.org/foundations/type_theory/church?Functions</title>
<a class="graphmeta">
<path fill="none" stroke="black" d="M56.9177,-160.07C53.5503,-149.789 49.7089,-136.314 48,-124 45.8005,-108.152 45.8005,-103.848 48,-88 49.2149,-79.2458 51.5077,-69.9046 53.9417,-61.5413"/>
<polygon fill="black" stroke="black" points="57.3032,-62.5179 56.9177,-51.9301 50.6164,-60.4474 57.3032,-62.5179"/>
</a>
</g>
<!-- http://cds.omdoc.org/urtheories?LF&#45;&gt;http://latin.omdoc.org/foundations/type_theory/church?Equality -->
<g id="edge7" class="edge"><title>http://cds.omdoc.org/urtheories?LF&#45;&gt;http://latin.omdoc.org/foundations/type_theory/church?Equality</title>
<a class="graphmeta">
<path fill="none" stroke="black" d="M70.8857,-160.765C74.9042,-152.491 79.8872,-142.232 84.4198,-132.9"/>
<polygon fill="black" stroke="black" points="87.7001,-134.158 88.9209,-123.633 81.4035,-131.099 87.7001,-134.158"/>
</a>
</g>
</g>
</svg>
