<?xml version="1.0" encoding="UTF-8" standalone="no"?>
<!DOCTYPE svg PUBLIC "-//W3C//DTD SVG 1.1//EN"
 "http://www.w3.org/Graphics/SVG/1.1/DTD/svg11.dtd">
<!-- Generated by graphviz version 2.28.0 (20110507.0327)
 -->
<!-- Title: MMT Pages: 1 -->
<svg width="162pt" height="204pt"
 viewBox="0.00 0.00 162.00 204.00" xmlns="http://www.w3.org/2000/svg" xmlns:xlink="http://www.w3.org/1999/xlink">
<g id="graph1" class="graph" transform="scale(1 1) rotate(0) translate(4 200)">
<title>MMT</title>
<polygon fill="white" stroke="white" points="-4,5 -4,-200 159,-200 159,5 -4,5"/>
<g id="graph2" class="cluster"><title>cluster_local</title>
<polygon fill="none" stroke="black" points="8,-8 8,-60 146,-60 146,-8 8,-8"/>
</g>
<!-- http://latin.omdoc.org/foundations/type_theory/church?IdentityTypes -->
<g id="node2" class="node"><title>http://latin.omdoc.org/foundations/type_theory/church?IdentityTypes</title>
<a xlink:href="http://latin.omdoc.org/foundations/type_theory/church?IdentityTypes" class="graphtheory">
<ellipse fill="none" stroke="black" cx="77" cy="-34" rx="61.1419" ry="18"/>
<text text-anchor="middle" x="77" y="-30.3" font-family="Times New Roman,serif" font-size="14.00">IdentityTypes</text>
</a>
</g>
<!-- http://latin.omdoc.org/foundations/type_theory/church?Equality -->
<g id="node3" class="node"><title>http://latin.omdoc.org/foundations/type_theory/church?Equality</title>
<a xlink:href="http://latin.omdoc.org/foundations/type_theory/church?Equality" class="graphtheory">
<ellipse fill="gray" stroke="black" cx="111" cy="-106" rx="39.9464" ry="18"/>
<text text-anchor="middle" x="111" y="-102.3" font-family="Times New Roman,serif" font-size="14.00">Equality</text>
</a>
</g>
<!-- http://latin.omdoc.org/foundations/type_theory/church?Equality&#45;&gt;http://latin.omdoc.org/foundations/type_theory/church?IdentityTypes -->
<g id="edge3" class="edge"><title>http://latin.omdoc.org/foundations/type_theory/church?Equality&#45;&gt;http://latin.omdoc.org/foundations/type_theory/church?IdentityTypes</title>
<a class="graphinclude">
<path fill="none" stroke="black" d="M102.77,-88.055C98.9016,-80.0915 94.1995,-70.4107 89.8761,-61.5097"/>
<polygon fill="black" stroke="black" points="92.9082,-59.7412 85.3909,-52.2753 86.6117,-62.7996 92.9082,-59.7412"/>
</a>
</g>
<!-- http://cds.omdoc.org/urtheories?LF -->
<g id="node5" class="node"><title>http://cds.omdoc.org/urtheories?LF</title>
<a xlink:href="http://cds.omdoc.org/urtheories?LF" class="graphtheory">
<ellipse fill="gray" stroke="black" cx="77" cy="-178" rx="27" ry="18"/>
<text text-anchor="middle" x="77" y="-174.3" font-family="Times New Roman,serif" font-size="14.00">LF</text>
</a>
</g>
<!-- http://cds.omdoc.org/urtheories?LF&#45;&gt;http://latin.omdoc.org/foundations/type_theory/church?IdentityTypes -->
<g id="edge5" class="edge"><title>http://cds.omdoc.org/urtheories?LF&#45;&gt;http://latin.omdoc.org/foundations/type_theory/church?IdentityTypes</title>
<a class="graphmeta">
<path fill="none" stroke="black" d="M70.9177,-160.07C67.5503,-149.789 63.7089,-136.314 62,-124 59.8005,-108.152 59.8005,-103.848 62,-88 63.2149,-79.2458 65.5077,-69.9046 67.9417,-61.5413"/>
<polygon fill="black" stroke="black" points="71.3032,-62.5179 70.9177,-51.9301 64.6164,-60.4474 71.3032,-62.5179"/>
</a>
</g>
<!-- http://cds.omdoc.org/urtheories?LF&#45;&gt;http://latin.omdoc.org/foundations/type_theory/church?Equality -->
<g id="edge7" class="edge"><title>http://cds.omdoc.org/urtheories?LF&#45;&gt;http://latin.omdoc.org/foundations/type_theory/church?Equality</title>
<a class="graphmeta">
<path fill="none" stroke="black" d="M84.8857,-160.765C88.9042,-152.491 93.8872,-142.232 98.4198,-132.9"/>
<polygon fill="black" stroke="black" points="101.7,-134.158 102.921,-123.633 95.4035,-131.099 101.7,-134.158"/>
</a>
</g>
</g>
</svg>
