<?xml version="1.0" encoding="UTF-8" standalone="no"?>
<!DOCTYPE svg PUBLIC "-//W3C//DTD SVG 1.1//EN"
 "http://www.w3.org/Graphics/SVG/1.1/DTD/svg11.dtd">
<!-- Generated by graphviz version 2.28.0 (20110507.0327)
 -->
<!-- Title: MMT Pages: 1 -->
<svg
 viewBox="0.00 0.00 1820.00 470.00" xmlns="http://www.w3.org/2000/svg" xmlns:xlink="http://www.w3.org/1999/xlink">
<g id="graph1" class="graph" transform="scale(1 1) rotate(0) translate(4 466)">
<title>MMT</title>
<polygon fill="white" stroke="white" points="-4,5 -4,-466 1817,-466 1817,5 -4,5"/>
<g id="graph2" class="cluster"><title>cluster_local</title>
<polygon fill="none" stroke="black" points="835,-256 835,-308 993,-308 993,-256 835,-256"/>
</g>
<!-- http://latin.omdoc.org/foundations/type_theory/church?IndexedUniverse -->
<g id="node2" class="node"><title>http://latin.omdoc.org/foundations/type_theory/church?IndexedUniverse</title>
<a xlink:href="http://latin.omdoc.org/foundations/type_theory/church?IndexedUniverse" class="graphtheory">
<ellipse fill="none" stroke="black" cx="914" cy="-282" rx="71.2405" ry="18"/>
<text text-anchor="middle" x="914" y="-278.3" font-family="Times New Roman,serif" font-size="14.00">IndexedUniverse</text>
</a>
</g>
<!-- http://latin.omdoc.org/foundations/type_theory/church?_Equality -->
<g id="node3" class="node"><title>http://latin.omdoc.org/foundations/type_theory/church?_Equality</title>
<a xlink:href="http://latin.omdoc.org/foundations/type_theory/church?_Equality" class="graphtheory">
<ellipse fill="gray" stroke="black" cx="715" cy="-194" rx="44.271" ry="18"/>
<text text-anchor="middle" x="715" y="-190.3" font-family="Times New Roman,serif" font-size="14.00">_Equality</text>
</a>
</g>
<!-- http://latin.omdoc.org/foundations/type_theory/church?IndexedUniverse&#45;&gt;http://latin.omdoc.org/foundations/type_theory/church?_Equality -->
<g id="edge3" class="edge"><title>http://latin.omdoc.org/foundations/type_theory/church?IndexedUniverse&#45;&gt;http://latin.omdoc.org/foundations/type_theory/church?_Equality</title>
<a xlink:href="http://latin.omdoc.org/foundations/type_theory/church?_Equality?[http://latin.omdoc.org/foundations/type_theory/church?IndexedUniverse]" class="graphstructure">
<path fill="none" stroke="black" d="M877.568,-266.388C865.493,-262.214 851.851,-258.203 839,-256 823.666,-253.371 289.903,-257.099 279,-246 274.017,-240.927 274.093,-235.147 279,-230 307.938,-199.647 614.627,-218.852 656,-212 661.127,-211.151 666.441,-210.009 671.684,-208.716"/>
<polygon fill="black" stroke="black" points="672.846,-212.029 681.614,-206.081 671.051,-205.263 672.846,-212.029"/>
</a>
<a xlink:href="http://latin.omdoc.org/foundations/type_theory/church?_Equality?[http://latin.omdoc.org/foundations/type_theory/church?IndexedUniverse]" class="[http://latin.omdoc.org/foundations/type_theory/church?IndexedUniverse]">
<text text-anchor="middle" x="485" y="-234.3" font-family="Times New Roman,serif" font-size="14.00">[http://latin.omdoc.org/foundations/type_theory/church?IndexedUniverse]</text>
</a>
</g>
<!-- http://latin.omdoc.org/foundations/type_theory/church?_ELogic -->
<g id="node5" class="node"><title>http://latin.omdoc.org/foundations/type_theory/church?_ELogic</title>
<a xlink:href="http://latin.omdoc.org/foundations/type_theory/church?_ELogic" class="graphtheory">
<ellipse fill="gray" stroke="black" cx="820" cy="-194" rx="42.3701" ry="18"/>
<text text-anchor="middle" x="820" y="-190.3" font-family="Times New Roman,serif" font-size="14.00">_ELogic</text>
</a>
</g>
<!-- http://latin.omdoc.org/foundations/type_theory/church?IndexedUniverse&#45;&gt;http://latin.omdoc.org/foundations/type_theory/church?_ELogic -->
<g id="edge5" class="edge"><title>http://latin.omdoc.org/foundations/type_theory/church?IndexedUniverse&#45;&gt;http://latin.omdoc.org/foundations/type_theory/church?_ELogic</title>
<a xlink:href="http://latin.omdoc.org/foundations/type_theory/church?_ELogic?[http://latin.omdoc.org/foundations/type_theory/church?IndexedUniverse]" class="graphstructure">
<path fill="none" stroke="black" d="M876.729,-266.528C864.841,-262.469 851.519,-258.489 839,-256 823.596,-252.937 708.706,-257.492 698,-246 693.153,-240.797 693.643,-235.62 698,-230 717.684,-204.614 737.162,-220.996 768,-212 771.338,-211.026 774.785,-209.983 778.241,-208.911"/>
<polygon fill="black" stroke="black" points="779.447,-212.2 787.923,-205.844 777.333,-205.527 779.447,-212.2"/>
</a>
<a xlink:href="http://latin.omdoc.org/foundations/type_theory/church?_ELogic?[http://latin.omdoc.org/foundations/type_theory/church?IndexedUniverse]" class="[http://latin.omdoc.org/foundations/type_theory/church?IndexedUniverse]">
<text text-anchor="middle" x="904" y="-234.3" font-family="Times New Roman,serif" font-size="14.00">[http://latin.omdoc.org/foundations/type_theory/church?IndexedUniverse]</text>
</a>
</g>
<!-- http://latin.omdoc.org/foundations/type_theory/church?_ILogic -->
<g id="node7" class="node"><title>http://latin.omdoc.org/foundations/type_theory/church?_ILogic</title>
<a xlink:href="http://latin.omdoc.org/foundations/type_theory/church?_ILogic" class="graphtheory">
<ellipse fill="gray" stroke="black" cx="1132" cy="-194" rx="39.4691" ry="18"/>
<text text-anchor="middle" x="1132" y="-190.3" font-family="Times New Roman,serif" font-size="14.00">_ILogic</text>
</a>
</g>
<!-- http://latin.omdoc.org/foundations/type_theory/church?IndexedUniverse&#45;&gt;http://latin.omdoc.org/foundations/type_theory/church?_ILogic -->
<g id="edge7" class="edge"><title>http://latin.omdoc.org/foundations/type_theory/church?IndexedUniverse&#45;&gt;http://latin.omdoc.org/foundations/type_theory/church?_ILogic</title>
<a xlink:href="http://latin.omdoc.org/foundations/type_theory/church?_ILogic?[http://latin.omdoc.org/foundations/type_theory/church?IndexedUniverse]" class="graphstructure">
<path fill="none" stroke="black" d="M951.289,-266.617C963.178,-262.562 976.495,-258.562 989,-256 1015.43,-250.584 1088.09,-261.742 1110,-246 1118.05,-240.215 1123.18,-230.851 1126.44,-221.716"/>
<polygon fill="black" stroke="black" points="1129.82,-222.655 1129.3,-212.073 1123.1,-220.67 1129.82,-222.655"/>
</a>
<a xlink:href="http://latin.omdoc.org/foundations/type_theory/church?_ILogic?[http://latin.omdoc.org/foundations/type_theory/church?IndexedUniverse]" class="[http://latin.omdoc.org/foundations/type_theory/church?IndexedUniverse]">
<text text-anchor="middle" x="1329" y="-234.3" font-family="Times New Roman,serif" font-size="14.00">[http://latin.omdoc.org/foundations/type_theory/church?IndexedUniverse]</text>
</a>
</g>
<!-- http://latin.omdoc.org/foundations/type_theory/church?_InternalLogic -->
<g id="node9" class="node"><title>http://latin.omdoc.org/foundations/type_theory/church?_InternalLogic</title>
<a xlink:href="http://latin.omdoc.org/foundations/type_theory/church?_InternalLogic" class="graphtheory">
<ellipse fill="gray" stroke="black" cx="837" cy="-106" rx="63.5411" ry="18"/>
<text text-anchor="middle" x="837" y="-102.3" font-family="Times New Roman,serif" font-size="14.00">_InternalLogic</text>
</a>
</g>
<!-- http://latin.omdoc.org/foundations/type_theory/church?IndexedUniverse&#45;&gt;http://latin.omdoc.org/foundations/type_theory/church?_InternalLogic -->
<g id="edge9" class="edge"><title>http://latin.omdoc.org/foundations/type_theory/church?IndexedUniverse&#45;&gt;http://latin.omdoc.org/foundations/type_theory/church?_InternalLogic</title>
<a xlink:href="http://latin.omdoc.org/foundations/type_theory/church?_InternalLogic?[http://latin.omdoc.org/foundations/type_theory/church?IndexedUniverse]" class="graphstructure">
<path fill="none" stroke="black" d="M877.569,-266.386C865.493,-262.212 851.852,-258.202 839,-256 807.948,-250.679 299.696,-261.017 272,-246 255.962,-237.304 254.346,-229.443 249,-212 244.312,-196.702 238.366,-187.955 249,-176 282.786,-138.018 615.493,-117.534 764.95,-110.186"/>
<polygon fill="black" stroke="black" points="765.138,-113.681 774.957,-109.7 764.799,-106.689 765.138,-113.681"/>
</a>
<a xlink:href="http://latin.omdoc.org/foundations/type_theory/church?_InternalLogic?[http://latin.omdoc.org/foundations/type_theory/church?IndexedUniverse]" class="[http://latin.omdoc.org/foundations/type_theory/church?IndexedUniverse]">
<text text-anchor="middle" x="455" y="-190.3" font-family="Times New Roman,serif" font-size="14.00">[http://latin.omdoc.org/foundations/type_theory/church?IndexedUniverse]</text>
</a>
</g>
<!-- http://latin.omdoc.org/foundations/zfc?TypedZF -->
<g id="node11" class="node"><title>http://latin.omdoc.org/foundations/zfc?TypedZF</title>
<a xlink:href="http://latin.omdoc.org/foundations/zfc?TypedZF" class="graphtheory">
<ellipse fill="gray" stroke="black" cx="1517" cy="-18" rx="45.244" ry="18"/>
<text text-anchor="middle" x="1517" y="-14.3" font-family="Times New Roman,serif" font-size="14.00">TypedZF</text>
</a>
</g>
<!-- http://latin.omdoc.org/foundations/type_theory/church?IndexedUniverse&#45;&gt;http://latin.omdoc.org/foundations/zfc?TypedZF -->
<g id="edge11" class="edge"><title>http://latin.omdoc.org/foundations/type_theory/church?IndexedUniverse&#45;&gt;http://latin.omdoc.org/foundations/zfc?TypedZF</title>
<a xlink:href="http://latin.omdoc.org/foundations/type_theory/church?_IndexedUniverse" class="graphview">
<path fill="none" stroke="black" d="M950.431,-266.386C962.507,-262.212 976.148,-258.202 989,-256 1004.53,-253.34 1544.96,-257.236 1556,-246 1569.92,-231.836 1538.76,-102.985 1524.09,-45.9514"/>
<polygon fill="black" stroke="black" points="1527.46,-44.9841 1521.56,-36.1816 1520.68,-46.7399 1527.46,-44.9841"/>
</a>
<a xlink:href="http://latin.omdoc.org/foundations/type_theory/church?_IndexedUniverse" class="_IndexedUniverse">
<text text-anchor="middle" x="1601" y="-146.3" font-family="Times New Roman,serif" font-size="14.00">_IndexedUniverse</text>
</a>
</g>
<!-- http://latin.omdoc.org/foundations/type_theory/church?AxiomaticEquality -->
<g id="node15" class="node"><title>http://latin.omdoc.org/foundations/type_theory/church?AxiomaticEquality</title>
<a xlink:href="http://latin.omdoc.org/foundations/type_theory/church?AxiomaticEquality" class="graphtheory">
<ellipse fill="gray" stroke="black" cx="1659" cy="-106" rx="77.0154" ry="18"/>
<text text-anchor="middle" x="1659" y="-102.3" font-family="Times New Roman,serif" font-size="14.00">AxiomaticEquality</text>
</a>
</g>
<!-- http://latin.omdoc.org/foundations/type_theory/church?IndexedUniverse&#45;&gt;http://latin.omdoc.org/foundations/type_theory/church?AxiomaticEquality -->
<g id="edge15" class="edge"><title>http://latin.omdoc.org/foundations/type_theory/church?IndexedUniverse&#45;&gt;http://latin.omdoc.org/foundations/type_theory/church?AxiomaticEquality</title>
<a class="graphinclude">
<path fill="none" stroke="black" d="M950.429,-266.372C962.504,-262.198 976.146,-258.191 989,-256 1006.28,-253.055 1606.11,-256.7 1620,-246 1653.89,-219.885 1659.92,-166.793 1660.18,-134.313"/>
<polygon fill="black" stroke="black" points="1663.68,-134.121 1660.08,-124.157 1656.68,-134.192 1663.68,-134.121"/>
</a>
</g>
<!-- http://latin.omdoc.org/foundations/type_theory/church?NonEmpty -->
<g id="node17" class="node"><title>http://latin.omdoc.org/foundations/type_theory/church?NonEmpty</title>
<a xlink:href="http://latin.omdoc.org/foundations/type_theory/church?NonEmpty" class="graphtheory">
<ellipse fill="gray" stroke="black" cx="116" cy="-194" rx="50.0684" ry="18"/>
<text text-anchor="middle" x="116" y="-190.3" font-family="Times New Roman,serif" font-size="14.00">NonEmpty</text>
</a>
</g>
<!-- http://latin.omdoc.org/foundations/type_theory/church?IndexedUniverse&#45;&gt;http://latin.omdoc.org/foundations/type_theory/church?NonEmpty -->
<g id="edge17" class="edge"><title>http://latin.omdoc.org/foundations/type_theory/church?IndexedUniverse&#45;&gt;http://latin.omdoc.org/foundations/type_theory/church?NonEmpty</title>
<a class="graphinclude">
<path fill="none" stroke="black" d="M877.572,-266.367C865.497,-262.193 851.854,-258.186 839,-256 802.903,-249.861 214.47,-258.349 180,-246 164.134,-240.316 149.23,-228.949 137.803,-218.386"/>
<polygon fill="black" stroke="black" points="140.093,-215.732 130.478,-211.282 135.219,-220.756 140.093,-215.732"/>
</a>
</g>
<!-- http://latin.omdoc.org/foundations/type_theory/church?Logic -->
<g id="node19" class="node"><title>http://latin.omdoc.org/foundations/type_theory/church?Logic</title>
<a xlink:href="http://latin.omdoc.org/foundations/type_theory/church?Logic" class="graphtheory">
<ellipse fill="gray" stroke="black" cx="1470" cy="-194" rx="31.2735" ry="18"/>
<text text-anchor="middle" x="1470" y="-190.3" font-family="Times New Roman,serif" font-size="14.00">Logic</text>
</a>
</g>
<!-- http://latin.omdoc.org/foundations/type_theory/church?IndexedUniverse&#45;&gt;http://latin.omdoc.org/foundations/type_theory/church?Logic -->
<g id="edge19" class="edge"><title>http://latin.omdoc.org/foundations/type_theory/church?IndexedUniverse&#45;&gt;http://latin.omdoc.org/foundations/type_theory/church?Logic</title>
<a class="graphinclude">
<path fill="none" stroke="black" d="M950.432,-266.39C962.508,-262.217 976.149,-258.206 989,-256 1004.06,-253.415 1528.29,-256.903 1539,-246 1554.04,-230.68 1530.27,-216.444 1506.63,-206.927"/>
<polygon fill="black" stroke="black" points="1507.55,-203.536 1496.96,-203.272 1505.08,-210.083 1507.55,-203.536"/>
</a>
</g>
<!-- http://latin.omdoc.org/foundations/type_theory/church?Equality -->
<g id="node21" class="node"><title>http://latin.omdoc.org/foundations/type_theory/church?Equality</title>
<a xlink:href="http://latin.omdoc.org/foundations/type_theory/church?Equality" class="graphtheory">
<ellipse fill="gray" stroke="black" cx="1752" cy="-194" rx="39.9464" ry="18"/>
<text text-anchor="middle" x="1752" y="-190.3" font-family="Times New Roman,serif" font-size="14.00">Equality</text>
</a>
</g>
<!-- http://latin.omdoc.org/foundations/type_theory/church?IndexedUniverse&#45;&gt;http://latin.omdoc.org/foundations/type_theory/church?Equality -->
<g id="edge21" class="edge"><title>http://latin.omdoc.org/foundations/type_theory/church?IndexedUniverse&#45;&gt;http://latin.omdoc.org/foundations/type_theory/church?Equality</title>
<a class="graphinclude">
<path fill="none" stroke="black" d="M950.428,-266.368C962.503,-262.193 976.146,-258.187 989,-256 1060.86,-243.775 1574.02,-262.62 1645,-246 1671.93,-239.694 1700.08,-225.95 1720.74,-214.317"/>
<polygon fill="black" stroke="black" points="1722.77,-217.188 1729.68,-209.155 1719.27,-211.127 1722.77,-217.188"/>
</a>
</g>
<!-- http://latin.omdoc.org/foundations/type_theory/church?InternalLogic -->
<g id="node23" class="node"><title>http://latin.omdoc.org/foundations/type_theory/church?InternalLogic</title>
<a xlink:href="http://latin.omdoc.org/foundations/type_theory/church?InternalLogic" class="graphtheory">
<ellipse fill="gray" stroke="black" cx="194" cy="-106" rx="58.2422" ry="18"/>
<text text-anchor="middle" x="194" y="-102.3" font-family="Times New Roman,serif" font-size="14.00">InternalLogic</text>
</a>
</g>
<!-- http://latin.omdoc.org/foundations/type_theory/church?IndexedUniverse&#45;&gt;http://latin.omdoc.org/foundations/type_theory/church?InternalLogic -->
<g id="edge23" class="edge"><title>http://latin.omdoc.org/foundations/type_theory/church?IndexedUniverse&#45;&gt;http://latin.omdoc.org/foundations/type_theory/church?InternalLogic</title>
<a class="graphinclude">
<path fill="none" stroke="black" d="M877.569,-266.381C865.494,-262.208 851.852,-258.198 839,-256 806.851,-250.502 278.988,-264.316 252,-246 215.066,-220.934 201.599,-167.492 196.725,-134.663"/>
<polygon fill="black" stroke="black" points="200.149,-133.851 195.38,-124.39 193.208,-134.76 200.149,-133.851"/>
</a>
</g>
<!-- http://latin.omdoc.org/math?Universe -->
<g id="node13" class="node"><title>http://latin.omdoc.org/math?Universe</title>
<a xlink:href="http://latin.omdoc.org/math?Universe" class="graphtheory">
<ellipse fill="gray" stroke="black" cx="958" cy="-370" rx="42.3701" ry="18"/>
<text text-anchor="middle" x="958" y="-366.3" font-family="Times New Roman,serif" font-size="14.00">Universe</text>
</a>
</g>
<!-- http://latin.omdoc.org/math?Universe&#45;&gt;http://latin.omdoc.org/foundations/type_theory/church?IndexedUniverse -->
<g id="edge13" class="edge"><title>http://latin.omdoc.org/math?Universe&#45;&gt;http://latin.omdoc.org/foundations/type_theory/church?IndexedUniverse</title>
<a xlink:href="http://latin.omdoc.org/foundations/type_theory/church?IndexedUniverse?types" class="graphstructure">
<path fill="none" stroke="black" d="M949.307,-352.009C943.04,-339.759 934.464,-322.998 927.334,-309.062"/>
<polygon fill="black" stroke="black" points="930.346,-307.264 922.675,-299.956 924.114,-310.452 930.346,-307.264"/>
</a>
<a xlink:href="http://latin.omdoc.org/foundations/type_theory/church?IndexedUniverse?types" class="types">
<text text-anchor="middle" x="955.5" y="-322.3" font-family="Times New Roman,serif" font-size="14.00">types</text>
</a>
</g>
<!-- http://latin.omdoc.org/foundations/type_theory/church?AxiomaticEquality&#45;&gt;http://latin.omdoc.org/foundations/zfc?TypedZF -->
<g id="edge53" class="edge"><title>http://latin.omdoc.org/foundations/type_theory/church?AxiomaticEquality&#45;&gt;http://latin.omdoc.org/foundations/zfc?TypedZF</title>
<a xlink:href="http://latin.omdoc.org/foundations/type_theory/church?_AxiomaticEquality" class="graphview">
<path fill="none" stroke="black" d="M1632.62,-89.0256C1609.19,-74.8355 1574.86,-54.0422 1549.69,-38.8"/>
<polygon fill="black" stroke="black" points="1551.24,-35.6447 1540.87,-33.4581 1547.61,-41.6323 1551.24,-35.6447"/>
</a>
<a xlink:href="http://latin.omdoc.org/foundations/type_theory/church?_AxiomaticEquality" class="_AxiomaticEquality">
<text text-anchor="middle" x="1656" y="-58.3" font-family="Times New Roman,serif" font-size="14.00">_AxiomaticEquality</text>
</a>
</g>
<!-- http://latin.omdoc.org/foundations/type_theory/church?Logic&#45;&gt;http://latin.omdoc.org/foundations/type_theory/church?_InternalLogic -->
<g id="edge45" class="edge"><title>http://latin.omdoc.org/foundations/type_theory/church?Logic&#45;&gt;http://latin.omdoc.org/foundations/type_theory/church?_InternalLogic</title>
<a xlink:href="http://latin.omdoc.org/foundations/type_theory/church?_InternalLogic?log" class="graphstructure">
<path fill="none" stroke="black" d="M1439.47,-188.852C1342.23,-175.641 1038.25,-134.342 903.012,-115.968"/>
<polygon fill="black" stroke="black" points="903.173,-112.458 892.793,-114.58 902.231,-119.395 903.173,-112.458"/>
</a>
<a xlink:href="http://latin.omdoc.org/foundations/type_theory/church?_InternalLogic?log" class="log">
<text text-anchor="middle" x="1220" y="-146.3" font-family="Times New Roman,serif" font-size="14.00">log</text>
</a>
</g>
<!-- http://latin.omdoc.org/foundations/type_theory/church?Logic&#45;&gt;http://latin.omdoc.org/foundations/zfc?TypedZF -->
<g id="edge47" class="edge"><title>http://latin.omdoc.org/foundations/type_theory/church?Logic&#45;&gt;http://latin.omdoc.org/foundations/zfc?TypedZF</title>
<a xlink:href="http://latin.omdoc.org/foundations/type_theory/church?_ELogic" class="graphview">
<path fill="none" stroke="black" d="M1462.41,-176.424C1453.83,-155.237 1442.46,-117.742 1454,-88 1461.11,-69.6685 1475.61,-53.2276 1488.91,-40.9965"/>
<polygon fill="black" stroke="black" points="1491.33,-43.5276 1496.54,-34.2991 1486.71,-38.2679 1491.33,-43.5276"/>
</a>
<a xlink:href="http://latin.omdoc.org/foundations/type_theory/church?_ELogic" class="_ELogic">
<text text-anchor="middle" x="1478.5" y="-102.3" font-family="Times New Roman,serif" font-size="14.00">_ELogic</text>
</a>
</g>
<!-- http://latin.omdoc.org/foundations/type_theory/church?Logic&#45;&gt;http://latin.omdoc.org/foundations/type_theory/church?AxiomaticEquality -->
<g id="edge51" class="edge"><title>http://latin.omdoc.org/foundations/type_theory/church?Logic&#45;&gt;http://latin.omdoc.org/foundations/type_theory/church?AxiomaticEquality</title>
<a class="graphinclude">
<path fill="none" stroke="black" d="M1501.4,-191.794C1533.52,-189.231 1583.72,-181.436 1620,-158 1629.79,-151.675 1638.09,-142.006 1644.48,-132.782"/>
<polygon fill="black" stroke="black" points="1647.54,-134.499 1650.02,-124.197 1641.66,-130.708 1647.54,-134.499"/>
</a>
</g>
<!-- http://latin.omdoc.org/foundations/type_theory/church?Logic&#45;&gt;http://latin.omdoc.org/foundations/type_theory/church?InternalLogic -->
<g id="edge49" class="edge"><title>http://latin.omdoc.org/foundations/type_theory/church?Logic&#45;&gt;http://latin.omdoc.org/foundations/type_theory/church?InternalLogic</title>
<a xlink:href="http://latin.omdoc.org/foundations/type_theory/church?InternalLogic?log" class="graphstructure">
<path fill="none" stroke="black" d="M1438.78,-190.896C1272.89,-179.715 493.669,-127.197 260.241,-111.465"/>
<polygon fill="black" stroke="black" points="260.409,-107.968 250.196,-110.788 259.938,-114.952 260.409,-107.968"/>
</a>
<a xlink:href="http://latin.omdoc.org/foundations/type_theory/church?InternalLogic?log" class="log">
<text text-anchor="middle" x="956" y="-146.3" font-family="Times New Roman,serif" font-size="14.00">log</text>
</a>
</g>
<!-- http://latin.omdoc.org/foundations/type_theory/church?Equality&#45;&gt;http://latin.omdoc.org/foundations/zfc?TypedZF -->
<g id="edge41" class="edge"><title>http://latin.omdoc.org/foundations/type_theory/church?Equality&#45;&gt;http://latin.omdoc.org/foundations/zfc?TypedZF</title>
<a xlink:href="http://latin.omdoc.org/foundations/type_theory/church?_Equality" class="graphview">
<path fill="none" stroke="black" d="M1757.74,-176.042C1760.4,-166.139 1762.65,-153.389 1761,-142 1754.67,-98.3247 1753.49,-75.5978 1715,-54 1671.22,-29.4317 1614.14,-21.4214 1572.53,-19.1189"/>
<polygon fill="black" stroke="black" points="1572.44,-15.6116 1562.29,-18.6499 1572.12,-22.6042 1572.44,-15.6116"/>
</a>
<a xlink:href="http://latin.omdoc.org/foundations/type_theory/church?_Equality" class="_Equality">
<text text-anchor="middle" x="1785.5" y="-102.3" font-family="Times New Roman,serif" font-size="14.00">_Equality</text>
</a>
</g>
<!-- http://latin.omdoc.org/foundations/type_theory/church?Equality&#45;&gt;http://latin.omdoc.org/foundations/type_theory/church?AxiomaticEquality -->
<g id="edge43" class="edge"><title>http://latin.omdoc.org/foundations/type_theory/church?Equality&#45;&gt;http://latin.omdoc.org/foundations/type_theory/church?AxiomaticEquality</title>
<a xlink:href="http://latin.omdoc.org/foundations/type_theory/church?AxiomaticEquality?equality" class="graphstructure">
<path fill="none" stroke="black" d="M1734.94,-177.226C1720.79,-164.141 1700.46,-145.342 1684.4,-130.487"/>
<polygon fill="black" stroke="black" points="1686.62,-127.773 1676.9,-123.553 1681.87,-132.912 1686.62,-127.773"/>
</a>
<a xlink:href="http://latin.omdoc.org/foundations/type_theory/church?AxiomaticEquality?equality" class="equality">
<text text-anchor="middle" x="1735.5" y="-146.3" font-family="Times New Roman,serif" font-size="14.00">equality</text>
</a>
</g>
<!-- http://cds.omdoc.org/urtheories?LF -->
<g id="node25" class="node"><title>http://cds.omdoc.org/urtheories?LF</title>
<a xlink:href="http://cds.omdoc.org/urtheories?LF" class="graphtheory">
<ellipse fill="gray" stroke="black" cx="912" cy="-444" rx="27" ry="18"/>
<text text-anchor="middle" x="912" y="-440.3" font-family="Times New Roman,serif" font-size="14.00">LF</text>
</a>
</g>
<!-- http://cds.omdoc.org/urtheories?LF&#45;&gt;http://latin.omdoc.org/foundations/type_theory/church?IndexedUniverse -->
<g id="edge25" class="edge"><title>http://cds.omdoc.org/urtheories?LF&#45;&gt;http://latin.omdoc.org/foundations/type_theory/church?IndexedUniverse</title>
<a class="graphmeta">
<path fill="none" stroke="black" d="M910.021,-425.688C908.885,-414.871 907.574,-400.643 907,-388 906.275,-372.016 906.192,-367.98 907,-352 907.699,-338.19 909.179,-322.884 910.6,-310.204"/>
<polygon fill="black" stroke="black" points="914.077,-310.599 911.76,-300.261 907.124,-309.788 914.077,-310.599"/>
</a>
</g>
<!-- http://cds.omdoc.org/urtheories?LF&#45;&gt;http://latin.omdoc.org/foundations/zfc?TypedZF -->
<g id="edge35" class="edge"><title>http://cds.omdoc.org/urtheories?LF&#45;&gt;http://latin.omdoc.org/foundations/zfc?TypedZF</title>
<a class="graphmeta">
<path fill="none" stroke="black" d="M884.934,-442.25C791.468,-439.532 473.665,-429.221 212,-408 116.667,-400.268 0,-466.646 0,-371 0,-371 0,-371 0,-105 0,-30.2857 1188.43,-20.4581 1461.52,-19.1861"/>
<polygon fill="black" stroke="black" points="1461.61,-22.6858 1471.6,-19.1411 1461.58,-15.6859 1461.61,-22.6858"/>
</a>
</g>
<!-- http://cds.omdoc.org/urtheories?LF&#45;&gt;http://latin.omdoc.org/math?Universe -->
<g id="edge31" class="edge"><title>http://cds.omdoc.org/urtheories?LF&#45;&gt;http://latin.omdoc.org/math?Universe</title>
<a class="graphmeta">
<path fill="none" stroke="black" d="M922.209,-427.021C928.023,-417.921 935.436,-406.318 942.006,-396.035"/>
<polygon fill="black" stroke="black" points="945.066,-397.745 947.501,-387.434 939.167,-393.976 945.066,-397.745"/>
</a>
</g>
<!-- http://cds.omdoc.org/urtheories?LF&#45;&gt;http://latin.omdoc.org/foundations/type_theory/church?AxiomaticEquality -->
<g id="edge27" class="edge"><title>http://cds.omdoc.org/urtheories?LF&#45;&gt;http://latin.omdoc.org/foundations/type_theory/church?AxiomaticEquality</title>
<a class="graphmeta">
<path fill="none" stroke="black" d="M939.023,-443.373C1075.66,-444.913 1684,-447.475 1684,-371 1684,-371 1684,-371 1684,-193 1684,-172.527 1677.39,-150.363 1670.96,-133.664"/>
<polygon fill="black" stroke="black" points="1674.06,-131.981 1667.05,-124.036 1667.57,-134.618 1674.06,-131.981"/>
</a>
</g>
<!-- http://cds.omdoc.org/urtheories?LF&#45;&gt;http://latin.omdoc.org/foundations/type_theory/church?NonEmpty -->
<g id="edge39" class="edge"><title>http://cds.omdoc.org/urtheories?LF&#45;&gt;http://latin.omdoc.org/foundations/type_theory/church?NonEmpty</title>
<a class="graphmeta">
<path fill="none" stroke="black" d="M884.747,-442.837C779.401,-440.903 392.603,-421.601 149,-246 140.146,-239.617 133.057,-230.059 127.753,-220.937"/>
<polygon fill="black" stroke="black" points="130.834,-219.276 123.045,-212.093 124.655,-222.565 130.834,-219.276"/>
</a>
</g>
<!-- http://cds.omdoc.org/urtheories?LF&#45;&gt;http://latin.omdoc.org/foundations/type_theory/church?Logic -->
<g id="edge33" class="edge"><title>http://cds.omdoc.org/urtheories?LF&#45;&gt;http://latin.omdoc.org/foundations/type_theory/church?Logic</title>
<a class="graphmeta">
<path fill="none" stroke="black" d="M938.223,-439.134C1049.27,-422.182 1478.64,-350.566 1556,-246 1571.63,-224.875 1538.7,-210.9 1509.18,-203.006"/>
<polygon fill="black" stroke="black" points="1509.92,-199.584 1499.37,-200.56 1508.23,-206.376 1509.92,-199.584"/>
</a>
</g>
<!-- http://cds.omdoc.org/urtheories?LF&#45;&gt;http://latin.omdoc.org/foundations/type_theory/church?Equality -->
<g id="edge37" class="edge"><title>http://cds.omdoc.org/urtheories?LF&#45;&gt;http://latin.omdoc.org/foundations/type_theory/church?Equality</title>
<a class="graphmeta">
<path fill="none" stroke="black" d="M939.263,-442.691C1074.49,-441.046 1667.98,-432.449 1698,-408 1753.73,-362.612 1756.68,-268.671 1754.35,-222.221"/>
<polygon fill="black" stroke="black" points="1757.83,-221.777 1753.71,-212.014 1750.84,-222.213 1757.83,-221.777"/>
</a>
</g>
<!-- http://cds.omdoc.org/urtheories?LF&#45;&gt;http://latin.omdoc.org/foundations/type_theory/church?InternalLogic -->
<g id="edge29" class="edge"><title>http://cds.omdoc.org/urtheories?LF&#45;&gt;http://latin.omdoc.org/foundations/type_theory/church?InternalLogic</title>
<a class="graphmeta">
<path fill="none" stroke="black" d="M884.885,-442.221C737.363,-437.806 38,-414.582 38,-371 38,-371 38,-371 38,-193 38,-148.098 88.1788,-126.466 131.619,-116.151"/>
<polygon fill="black" stroke="black" points="132.611,-119.517 141.62,-113.941 131.101,-112.682 132.611,-119.517"/>
</a>
</g>
</g>
</svg>
