<?xml version="1.0" encoding="UTF-8" standalone="no"?>
<!DOCTYPE svg PUBLIC "-//W3C//DTD SVG 1.1//EN"
 "http://www.w3.org/Graphics/SVG/1.1/DTD/svg11.dtd">
<!-- Generated by graphviz version 2.28.0 (20110507.0327)
 -->
<!-- Title: MMT Pages: 1 -->
<svg
 viewBox="0.00 0.00 1969.55 368.00" xmlns="http://www.w3.org/2000/svg" xmlns:xlink="http://www.w3.org/1999/xlink">
<g id="graph1" class="graph" transform="scale(1 1) rotate(0) translate(4 364)">
<title>MMT</title>
<polygon fill="white" stroke="white" points="-4,5 -4,-364 1966.55,-364 1966.55,5 -4,5"/>
<g id="graph2" class="cluster"><title>cluster_local</title>
<polygon fill="none" stroke="black" points="904.699,-168 904.699,-220 984.699,-220 984.699,-168 904.699,-168"/>
</g>
<!-- http://latin.omdoc.org/foundations/type_theory/church?Logic -->
<g id="node2" class="node"><title>http://latin.omdoc.org/foundations/type_theory/church?Logic</title>
<a xlink:href="http://latin.omdoc.org/foundations/type_theory/church?Logic" class="graphtheory">
<ellipse fill="none" stroke="black" cx="944.699" cy="-194" rx="31.2735" ry="18"/>
<text text-anchor="middle" x="944.699" y="-190.3" font-family="Times New Roman,serif" font-size="14.00">Logic</text>
</a>
</g>
<!-- http://latin.omdoc.org/foundations/type_theory/church?_ExternalLogic -->
<g id="node3" class="node"><title>http://latin.omdoc.org/foundations/type_theory/church?_ExternalLogic</title>
<a xlink:href="http://latin.omdoc.org/foundations/type_theory/church?_ExternalLogic" class="graphtheory">
<ellipse fill="gray" stroke="black" cx="923.699" cy="-106" rx="65.4659" ry="18"/>
<text text-anchor="middle" x="923.699" y="-102.3" font-family="Times New Roman,serif" font-size="14.00">_ExternalLogic</text>
</a>
</g>
<!-- http://latin.omdoc.org/foundations/type_theory/church?Logic&#45;&gt;http://latin.omdoc.org/foundations/type_theory/church?_ExternalLogic -->
<g id="edge3" class="edge"><title>http://latin.omdoc.org/foundations/type_theory/church?Logic&#45;&gt;http://latin.omdoc.org/foundations/type_theory/church?_ExternalLogic</title>
<a xlink:href="http://latin.omdoc.org/foundations/type_theory/church?_ExternalLogic?[http://latin.omdoc.org/foundations/type_theory/church?Logic]" class="graphstructure">
<path fill="none" stroke="black" d="M933.973,-176.926C930.701,-171.194 927.495,-164.533 925.699,-158 923.633,-150.481 922.75,-142.105 922.483,-134.35"/>
<polygon fill="black" stroke="black" points="925.982,-134.284 922.445,-124.298 918.982,-134.311 925.982,-134.284"/>
</a>
<a xlink:href="http://latin.omdoc.org/foundations/type_theory/church?_ExternalLogic?[http://latin.omdoc.org/foundations/type_theory/church?Logic]" class="[http://latin.omdoc.org/foundations/type_theory/church?Logic]">
<text text-anchor="middle" x="1101.2" y="-146.3" font-family="Times New Roman,serif" font-size="14.00">[http://latin.omdoc.org/foundations/type_theory/church?Logic]</text>
</a>
</g>
<!-- http://latin.omdoc.org/foundations/zfc?Boolean -->
<g id="node5" class="node"><title>http://latin.omdoc.org/foundations/zfc?Boolean</title>
<a xlink:href="http://latin.omdoc.org/foundations/zfc?Boolean" class="graphtheory">
<ellipse fill="gray" stroke="black" cx="1599.7" cy="-18" rx="39.9464" ry="18"/>
<text text-anchor="middle" x="1599.7" y="-14.3" font-family="Times New Roman,serif" font-size="14.00">Boolean</text>
</a>
</g>
<!-- http://latin.omdoc.org/foundations/type_theory/church?Logic&#45;&gt;http://latin.omdoc.org/foundations/zfc?Boolean -->
<g id="edge5" class="edge"><title>http://latin.omdoc.org/foundations/type_theory/church?Logic&#45;&gt;http://latin.omdoc.org/foundations/zfc?Boolean</title>
<a xlink:href="http://latin.omdoc.org/foundations/type_theory/church?_ILogic" class="graphview">
<path fill="none" stroke="black" d="M929.155,-178.163C916.311,-166.687 897.099,-151.243 877.699,-142 847.142,-127.442 824.615,-150.613 803.699,-124 793.813,-111.42 792.885,-99.7921 803.699,-88 854.149,-32.988 1382.48,-21.705 1549.43,-19.5068"/>
<polygon fill="black" stroke="black" points="1549.48,-23.0065 1559.44,-19.3803 1549.39,-16.0071 1549.48,-23.0065"/>
</a>
<a xlink:href="http://latin.omdoc.org/foundations/type_theory/church?_ILogic" class="_ILogic">
<text text-anchor="middle" x="826.199" y="-102.3" font-family="Times New Roman,serif" font-size="14.00">_ILogic</text>
</a>
</g>
<!-- http://latin.omdoc.org/foundations/type_theory/church?_InternalLogic -->
<g id="node7" class="node"><title>http://latin.omdoc.org/foundations/type_theory/church?_InternalLogic</title>
<a xlink:href="http://latin.omdoc.org/foundations/type_theory/church?_InternalLogic" class="graphtheory">
<ellipse fill="gray" stroke="black" cx="259.699" cy="-106" rx="63.5411" ry="18"/>
<text text-anchor="middle" x="259.699" y="-102.3" font-family="Times New Roman,serif" font-size="14.00">_InternalLogic</text>
</a>
</g>
<!-- http://latin.omdoc.org/foundations/type_theory/church?Logic&#45;&gt;http://latin.omdoc.org/foundations/type_theory/church?_InternalLogic -->
<g id="edge7" class="edge"><title>http://latin.omdoc.org/foundations/type_theory/church?Logic&#45;&gt;http://latin.omdoc.org/foundations/type_theory/church?_InternalLogic</title>
<a xlink:href="http://latin.omdoc.org/foundations/type_theory/church?_InternalLogic?log" class="graphstructure">
<path fill="none" stroke="black" d="M928.237,-178.539C922.452,-174.319 915.651,-170.243 908.699,-168 847.253,-148.175 388.773,-178.944 327.699,-158 311.096,-152.306 295.241,-140.894 283.024,-130.305"/>
<polygon fill="black" stroke="black" points="285.311,-127.654 275.55,-123.535 280.612,-132.843 285.311,-127.654"/>
</a>
<a xlink:href="http://latin.omdoc.org/foundations/type_theory/church?_InternalLogic?log" class="log">
<text text-anchor="middle" x="336.699" y="-146.3" font-family="Times New Roman,serif" font-size="14.00">log</text>
</a>
</g>
<!-- http://latin.omdoc.org/foundations/zfc?TypedZF -->
<g id="node9" class="node"><title>http://latin.omdoc.org/foundations/zfc?TypedZF</title>
<a xlink:href="http://latin.omdoc.org/foundations/zfc?TypedZF" class="graphtheory">
<ellipse fill="gray" stroke="black" cx="359.699" cy="-18" rx="45.244" ry="18"/>
<text text-anchor="middle" x="359.699" y="-14.3" font-family="Times New Roman,serif" font-size="14.00">TypedZF</text>
</a>
</g>
<!-- http://latin.omdoc.org/foundations/type_theory/church?Logic&#45;&gt;http://latin.omdoc.org/foundations/zfc?TypedZF -->
<g id="edge9" class="edge"><title>http://latin.omdoc.org/foundations/type_theory/church?Logic&#45;&gt;http://latin.omdoc.org/foundations/zfc?TypedZF</title>
<a xlink:href="http://latin.omdoc.org/foundations/type_theory/church?_ELogic" class="graphview">
<path fill="none" stroke="black" d="M928.233,-178.55C922.448,-174.331 915.648,-170.252 908.699,-168 855.523,-150.765 457.58,-178.814 405.699,-158 384.972,-149.685 378.545,-144.046 368.699,-124 356.707,-99.5851 355.609,-68.1148 356.795,-46.0182"/>
<polygon fill="black" stroke="black" points="360.289,-46.2233 357.524,-35.9959 353.308,-45.7158 360.289,-46.2233"/>
</a>
<a xlink:href="http://latin.omdoc.org/foundations/type_theory/church?_ELogic" class="_ELogic">
<text text-anchor="middle" x="393.199" y="-102.3" font-family="Times New Roman,serif" font-size="14.00">_ELogic</text>
</a>
</g>
<!-- http://latin.omdoc.org/foundations/type_theory/church?ReflectedLogic -->
<g id="node11" class="node"><title>http://latin.omdoc.org/foundations/type_theory/church?ReflectedLogic</title>
<a xlink:href="http://latin.omdoc.org/foundations/type_theory/church?ReflectedLogic" class="graphtheory">
<ellipse fill="gray" stroke="black" cx="692.699" cy="-106" rx="65.9423" ry="18"/>
<text text-anchor="middle" x="692.699" y="-102.3" font-family="Times New Roman,serif" font-size="14.00">ReflectedLogic</text>
</a>
</g>
<!-- http://latin.omdoc.org/foundations/type_theory/church?Logic&#45;&gt;http://latin.omdoc.org/foundations/type_theory/church?ReflectedLogic -->
<g id="edge11" class="edge"><title>http://latin.omdoc.org/foundations/type_theory/church?Logic&#45;&gt;http://latin.omdoc.org/foundations/type_theory/church?ReflectedLogic</title>
<a xlink:href="http://latin.omdoc.org/foundations/type_theory/church?ReflectedLogic?meta" class="graphstructure">
<path fill="none" stroke="black" d="M927.281,-178.633C921.649,-174.629 915.177,-170.654 908.699,-168 884.494,-158.083 874.901,-167.927 850.699,-158 839.179,-153.274 839.014,-147.199 827.699,-142 814.011,-135.71 781.734,-127.266 752.174,-120.247"/>
<polygon fill="black" stroke="black" points="752.819,-116.804 742.284,-117.927 751.22,-123.619 752.819,-116.804"/>
</a>
<a xlink:href="http://latin.omdoc.org/foundations/type_theory/church?ReflectedLogic?meta" class="meta">
<text text-anchor="middle" x="864.199" y="-146.3" font-family="Times New Roman,serif" font-size="14.00">meta</text>
</a>
</g>
<!-- http://latin.omdoc.org/foundations/type_theory/church?Logic&#45;&gt;http://latin.omdoc.org/foundations/type_theory/church?ReflectedLogic -->
<g id="edge13" class="edge"><title>http://latin.omdoc.org/foundations/type_theory/church?Logic&#45;&gt;http://latin.omdoc.org/foundations/type_theory/church?ReflectedLogic</title>
<a xlink:href="http://latin.omdoc.org/foundations/type_theory/church?ReflectedLogic?object" class="graphstructure">
<path fill="none" stroke="black" d="M927.783,-178.543C922.072,-174.433 915.43,-170.419 908.699,-168 858.336,-149.897 838.168,-178.422 788.699,-158 778.495,-153.787 779.034,-147.895 769.699,-142 759.905,-135.815 748.834,-130.118 738.205,-125.195"/>
<polygon fill="black" stroke="black" points="739.577,-121.975 729.02,-121.076 736.712,-128.362 739.577,-121.975"/>
</a>
<a xlink:href="http://latin.omdoc.org/foundations/type_theory/church?ReflectedLogic?object" class="object">
<text text-anchor="middle" x="806.199" y="-146.3" font-family="Times New Roman,serif" font-size="14.00">object</text>
</a>
</g>
<!-- http://latin.omdoc.org/foundations/type_theory/church?_AxiomaticEquality -->
<g id="node14" class="node"><title>http://latin.omdoc.org/foundations/type_theory/church?_AxiomaticEquality</title>
<a xlink:href="http://latin.omdoc.org/foundations/type_theory/church?_AxiomaticEquality" class="graphtheory">
<ellipse fill="gray" stroke="black" cx="508.699" cy="-106" rx="81.3398" ry="18"/>
<text text-anchor="middle" x="508.699" y="-102.3" font-family="Times New Roman,serif" font-size="14.00">_AxiomaticEquality</text>
</a>
</g>
<!-- http://latin.omdoc.org/foundations/type_theory/church?Logic&#45;&gt;http://latin.omdoc.org/foundations/type_theory/church?_AxiomaticEquality -->
<g id="edge15" class="edge"><title>http://latin.omdoc.org/foundations/type_theory/church?Logic&#45;&gt;http://latin.omdoc.org/foundations/type_theory/church?_AxiomaticEquality</title>
<a xlink:href="http://latin.omdoc.org/foundations/type_theory/church?_AxiomaticEquality?[http://latin.omdoc.org/foundations/type_theory/church?Logic]" class="graphstructure">
<path fill="none" stroke="black" d="M928.233,-178.551C922.448,-174.333 915.648,-170.254 908.699,-168 882.588,-159.532 433.912,-177.606 414.699,-158 399.489,-142.479 417.838,-130.489 442.238,-122.047"/>
<polygon fill="black" stroke="black" points="443.367,-125.36 451.828,-118.985 441.237,-118.692 443.367,-125.36"/>
</a>
<a xlink:href="http://latin.omdoc.org/foundations/type_theory/church?_AxiomaticEquality?[http://latin.omdoc.org/foundations/type_theory/church?Logic]" class="[http://latin.omdoc.org/foundations/type_theory/church?Logic]">
<text text-anchor="middle" x="590.199" y="-146.3" font-family="Times New Roman,serif" font-size="14.00">[http://latin.omdoc.org/foundations/type_theory/church?Logic]</text>
</a>
</g>
<!-- http://latin.omdoc.org/foundations/type_theory/church?InternalLogic -->
<g id="node16" class="node"><title>http://latin.omdoc.org/foundations/type_theory/church?InternalLogic</title>
<a xlink:href="http://latin.omdoc.org/foundations/type_theory/church?InternalLogic" class="graphtheory">
<ellipse fill="gray" stroke="black" cx="1599.7" cy="-106" rx="58.2422" ry="18"/>
<text text-anchor="middle" x="1599.7" y="-102.3" font-family="Times New Roman,serif" font-size="14.00">InternalLogic</text>
</a>
</g>
<!-- http://latin.omdoc.org/foundations/type_theory/church?Logic&#45;&gt;http://latin.omdoc.org/foundations/type_theory/church?InternalLogic -->
<g id="edge17" class="edge"><title>http://latin.omdoc.org/foundations/type_theory/church?Logic&#45;&gt;http://latin.omdoc.org/foundations/type_theory/church?InternalLogic</title>
<a xlink:href="http://latin.omdoc.org/foundations/type_theory/church?InternalLogic?log" class="graphstructure">
<path fill="none" stroke="black" d="M961.01,-178.31C966.555,-174.187 973.042,-170.225 979.699,-168 1021.97,-153.87 1336.47,-163.477 1380.7,-158 1439.47,-150.723 1505.48,-134.165 1549.52,-121.878"/>
<polygon fill="black" stroke="black" points="1550.72,-125.175 1559.4,-119.091 1548.82,-118.438 1550.72,-125.175"/>
</a>
<a xlink:href="http://latin.omdoc.org/foundations/type_theory/church?InternalLogic?log" class="log">
<text text-anchor="middle" x="1475.7" y="-146.3" font-family="Times New Roman,serif" font-size="14.00">log</text>
</a>
</g>
<!-- http://latin.omdoc.org/foundations/type_theory/church?ExternalLogic -->
<g id="node18" class="node"><title>http://latin.omdoc.org/foundations/type_theory/church?ExternalLogic</title>
<a xlink:href="http://latin.omdoc.org/foundations/type_theory/church?ExternalLogic" class="graphtheory">
<ellipse fill="gray" stroke="black" cx="1737.7" cy="-106" rx="61.1419" ry="18"/>
<text text-anchor="middle" x="1737.7" y="-102.3" font-family="Times New Roman,serif" font-size="14.00">ExternalLogic</text>
</a>
</g>
<!-- http://latin.omdoc.org/foundations/type_theory/church?Logic&#45;&gt;http://latin.omdoc.org/foundations/type_theory/church?ExternalLogic -->
<g id="edge19" class="edge"><title>http://latin.omdoc.org/foundations/type_theory/church?Logic&#45;&gt;http://latin.omdoc.org/foundations/type_theory/church?ExternalLogic</title>
<a class="graphinclude">
<path fill="none" stroke="black" d="M961.003,-178.289C966.548,-174.165 973.036,-170.208 979.699,-168 1033.4,-150.209 1432.44,-163.883 1488.7,-158 1556.86,-150.873 1633.96,-133.624 1684.06,-121.157"/>
<polygon fill="black" stroke="black" points="1685.18,-124.486 1694.03,-118.653 1683.47,-117.697 1685.18,-124.486"/>
</a>
</g>
<!-- http://latin.omdoc.org/foundations/type_theory/church?Unit -->
<g id="node20" class="node"><title>http://latin.omdoc.org/foundations/type_theory/church?Unit</title>
<a xlink:href="http://latin.omdoc.org/foundations/type_theory/church?Unit" class="graphtheory">
<ellipse fill="gray" stroke="black" cx="1384.7" cy="-106" rx="27" ry="18"/>
<text text-anchor="middle" x="1384.7" y="-102.3" font-family="Times New Roman,serif" font-size="14.00">Unit</text>
</a>
</g>
<!-- http://latin.omdoc.org/foundations/type_theory/church?Logic&#45;&gt;http://latin.omdoc.org/foundations/type_theory/church?Unit -->
<g id="edge21" class="edge"><title>http://latin.omdoc.org/foundations/type_theory/church?Logic&#45;&gt;http://latin.omdoc.org/foundations/type_theory/church?Unit</title>
<a class="graphinclude">
<path fill="none" stroke="black" d="M961.018,-178.331C966.563,-174.21 973.048,-170.243 979.699,-168 1049.22,-144.554 1239.91,-180.642 1309.7,-158 1328.92,-151.762 1347.73,-138.958 1361.7,-127.741"/>
<polygon fill="black" stroke="black" points="1364.3,-130.129 1369.73,-121.034 1359.81,-124.756 1364.3,-130.129"/>
</a>
</g>
<!-- http://latin.omdoc.org/foundations/type_theory/church?PartialFunctionsDom -->
<g id="node22" class="node"><title>http://latin.omdoc.org/foundations/type_theory/church?PartialFunctionsDom</title>
<a xlink:href="http://latin.omdoc.org/foundations/type_theory/church?PartialFunctionsDom" class="graphtheory">
<ellipse fill="gray" stroke="black" cx="1094.7" cy="-106" rx="87.1385" ry="18"/>
<text text-anchor="middle" x="1094.7" y="-102.3" font-family="Times New Roman,serif" font-size="14.00">PartialFunctionsDom</text>
</a>
</g>
<!-- http://latin.omdoc.org/foundations/type_theory/church?Logic&#45;&gt;http://latin.omdoc.org/foundations/type_theory/church?PartialFunctionsDom -->
<g id="edge23" class="edge"><title>http://latin.omdoc.org/foundations/type_theory/church?Logic&#45;&gt;http://latin.omdoc.org/foundations/type_theory/church?PartialFunctionsDom</title>
<a class="graphinclude">
<path fill="none" stroke="black" d="M961.022,-178.345C966.567,-174.224 973.052,-170.254 979.699,-168 995.334,-162.698 1265.22,-169.869 1276.7,-158 1281.64,-152.888 1281.23,-147.483 1276.7,-142 1274.87,-139.781 1218.18,-129.101 1168.56,-120.116"/>
<polygon fill="black" stroke="black" points="1168.89,-116.618 1158.43,-118.286 1167.65,-123.507 1168.89,-116.618"/>
</a>
</g>
<!-- http://latin.omdoc.org/foundations/type_theory/church?AxiomaticEquality -->
<g id="node24" class="node"><title>http://latin.omdoc.org/foundations/type_theory/church?AxiomaticEquality</title>
<a xlink:href="http://latin.omdoc.org/foundations/type_theory/church?AxiomaticEquality" class="graphtheory">
<ellipse fill="gray" stroke="black" cx="100.699" cy="-106" rx="77.0154" ry="18"/>
<text text-anchor="middle" x="100.699" y="-102.3" font-family="Times New Roman,serif" font-size="14.00">AxiomaticEquality</text>
</a>
</g>
<!-- http://latin.omdoc.org/foundations/type_theory/church?Logic&#45;&gt;http://latin.omdoc.org/foundations/type_theory/church?AxiomaticEquality -->
<g id="edge25" class="edge"><title>http://latin.omdoc.org/foundations/type_theory/church?Logic&#45;&gt;http://latin.omdoc.org/foundations/type_theory/church?AxiomaticEquality</title>
<a class="graphinclude">
<path fill="none" stroke="black" d="M928.238,-178.535C922.453,-174.315 915.652,-170.24 908.699,-168 843.861,-147.112 363.19,-167.24 295.699,-158 246.37,-151.246 191.637,-136.246 152.745,-124.251"/>
<polygon fill="black" stroke="black" points="153.303,-120.759 142.714,-121.116 151.214,-127.44 153.303,-120.759"/>
</a>
</g>
<!-- http://latin.omdoc.org/foundations/type_theory/church?DisjUnion -->
<g id="node26" class="node"><title>http://latin.omdoc.org/foundations/type_theory/church?DisjUnion</title>
<a xlink:href="http://latin.omdoc.org/foundations/type_theory/church?DisjUnion" class="graphtheory">
<ellipse fill="gray" stroke="black" cx="1476.7" cy="-106" rx="46.1964" ry="18"/>
<text text-anchor="middle" x="1476.7" y="-102.3" font-family="Times New Roman,serif" font-size="14.00">DisjUnion</text>
</a>
</g>
<!-- http://latin.omdoc.org/foundations/type_theory/church?Logic&#45;&gt;http://latin.omdoc.org/foundations/type_theory/church?DisjUnion -->
<g id="edge27" class="edge"><title>http://latin.omdoc.org/foundations/type_theory/church?Logic&#45;&gt;http://latin.omdoc.org/foundations/type_theory/church?DisjUnion</title>
<a class="graphinclude">
<path fill="none" stroke="black" d="M961.014,-178.321C966.559,-174.199 973.045,-170.235 979.699,-168 1017.63,-155.26 1300.42,-165.639 1339.7,-158 1374.65,-151.204 1412.43,-136.543 1439.45,-124.677"/>
<polygon fill="black" stroke="black" points="1441.19,-127.731 1448.89,-120.452 1438.33,-121.342 1441.19,-127.731"/>
</a>
</g>
<!-- http://latin.omdoc.org/foundations/type_theory/church?PartialFunctions -->
<g id="node28" class="node"><title>http://latin.omdoc.org/foundations/type_theory/church?PartialFunctions</title>
<a xlink:href="http://latin.omdoc.org/foundations/type_theory/church?PartialFunctions" class="graphtheory">
<ellipse fill="gray" stroke="black" cx="1269.7" cy="-106" rx="69.3156" ry="18"/>
<text text-anchor="middle" x="1269.7" y="-102.3" font-family="Times New Roman,serif" font-size="14.00">PartialFunctions</text>
</a>
</g>
<!-- http://latin.omdoc.org/foundations/type_theory/church?Logic&#45;&gt;http://latin.omdoc.org/foundations/type_theory/church?PartialFunctions -->
<g id="edge29" class="edge"><title>http://latin.omdoc.org/foundations/type_theory/church?Logic&#45;&gt;http://latin.omdoc.org/foundations/type_theory/church?PartialFunctions</title>
<a class="graphinclude">
<path fill="none" stroke="black" d="M961.02,-178.338C966.565,-174.217 973.05,-170.249 979.699,-168 996.18,-162.427 1280.6,-170.497 1292.7,-158 1299.66,-150.809 1297.29,-141.143 1291.97,-132.159"/>
<polygon fill="black" stroke="black" points="1294.77,-130.055 1286.18,-123.858 1289.03,-134.061 1294.77,-130.055"/>
</a>
</g>
<!-- http://latin.omdoc.org/foundations/type_theory/church?Void -->
<g id="node30" class="node"><title>http://latin.omdoc.org/foundations/type_theory/church?Void</title>
<a xlink:href="http://latin.omdoc.org/foundations/type_theory/church?Void" class="graphtheory">
<ellipse fill="gray" stroke="black" cx="1845.7" cy="-106" rx="28.3955" ry="18"/>
<text text-anchor="middle" x="1845.7" y="-102.3" font-family="Times New Roman,serif" font-size="14.00">Void</text>
</a>
</g>
<!-- http://latin.omdoc.org/foundations/type_theory/church?Logic&#45;&gt;http://latin.omdoc.org/foundations/type_theory/church?Void -->
<g id="edge31" class="edge"><title>http://latin.omdoc.org/foundations/type_theory/church?Logic&#45;&gt;http://latin.omdoc.org/foundations/type_theory/church?Void</title>
<a class="graphinclude">
<path fill="none" stroke="black" d="M961.001,-178.28C966.545,-174.156 973.034,-170.2 979.699,-168 1009.88,-158.036 1520.01,-160.374 1551.7,-158 1666.16,-149.427 1697.28,-155.317 1807.7,-124 1809.99,-123.351 1812.32,-122.588 1814.63,-121.751"/>
<polygon fill="black" stroke="black" points="1816.02,-124.967 1824,-117.996 1813.41,-118.469 1816.02,-124.967"/>
</a>
</g>
<!-- http://latin.omdoc.org/foundations/type_theory/church?InternalLogic&#45;&gt;http://latin.omdoc.org/foundations/zfc?Boolean -->
<g id="edge77" class="edge"><title>http://latin.omdoc.org/foundations/type_theory/church?InternalLogic&#45;&gt;http://latin.omdoc.org/foundations/zfc?Boolean</title>
<a xlink:href="http://latin.omdoc.org/foundations/type_theory/church?_InternalLogic" class="graphview">
<path fill="none" stroke="black" d="M1599.7,-87.5966C1599.7,-75.7459 1599.7,-59.8169 1599.7,-46.2917"/>
<polygon fill="black" stroke="black" points="1603.2,-46.084 1599.7,-36.084 1596.2,-46.084 1603.2,-46.084"/>
</a>
<a xlink:href="http://latin.omdoc.org/foundations/type_theory/church?_InternalLogic" class="_InternalLogic">
<text text-anchor="middle" x="1640.7" y="-58.3" font-family="Times New Roman,serif" font-size="14.00">_InternalLogic</text>
</a>
</g>
<!-- http://latin.omdoc.org/foundations/type_theory/church?ExternalLogic&#45;&gt;http://latin.omdoc.org/foundations/zfc?TypedZF -->
<g id="edge75" class="edge"><title>http://latin.omdoc.org/foundations/type_theory/church?ExternalLogic&#45;&gt;http://latin.omdoc.org/foundations/zfc?TypedZF</title>
<a xlink:href="http://latin.omdoc.org/foundations/type_theory/church?_ExternalLogic" class="graphview">
<path fill="none" stroke="black" d="M1694.39,-93.3057C1685.3,-91.2257 1675.73,-89.3085 1666.7,-88 1419.17,-52.1383 630.839,-26.9291 414.868,-20.571"/>
<polygon fill="black" stroke="black" points="414.82,-17.0683 404.722,-20.2739 414.615,-24.0652 414.82,-17.0683"/>
</a>
<a xlink:href="http://latin.omdoc.org/foundations/type_theory/church?_ExternalLogic" class="_ExternalLogic">
<text text-anchor="middle" x="1522.2" y="-58.3" font-family="Times New Roman,serif" font-size="14.00">_ExternalLogic</text>
</a>
</g>
<!-- http://latin.omdoc.org/foundations/type_theory/church?AxiomaticEquality&#45;&gt;http://latin.omdoc.org/foundations/zfc?TypedZF -->
<g id="edge73" class="edge"><title>http://latin.omdoc.org/foundations/type_theory/church?AxiomaticEquality&#45;&gt;http://latin.omdoc.org/foundations/zfc?TypedZF</title>
<a xlink:href="http://latin.omdoc.org/foundations/type_theory/church?_AxiomaticEquality" class="graphview">
<path fill="none" stroke="black" d="M137.639,-90.0613C164.6,-79.3996 202.146,-65.0505 235.699,-54 261.075,-45.6426 289.764,-37.4651 313.151,-31.1187"/>
<polygon fill="black" stroke="black" points="314.077,-34.4941 322.824,-28.5158 312.258,-27.7345 314.077,-34.4941"/>
</a>
<a xlink:href="http://latin.omdoc.org/foundations/type_theory/church?_AxiomaticEquality" class="_AxiomaticEquality">
<text text-anchor="middle" x="290.699" y="-58.3" font-family="Times New Roman,serif" font-size="14.00">_AxiomaticEquality</text>
</a>
</g>
<!-- http://latin.omdoc.org/foundations/type_theory/church?IndexedUniverse -->
<g id="node32" class="node"><title>http://latin.omdoc.org/foundations/type_theory/church?IndexedUniverse</title>
<a xlink:href="http://latin.omdoc.org/foundations/type_theory/church?IndexedUniverse" class="graphtheory">
<ellipse fill="gray" stroke="black" cx="329.699" cy="-268" rx="71.2405" ry="18"/>
<text text-anchor="middle" x="329.699" y="-264.3" font-family="Times New Roman,serif" font-size="14.00">IndexedUniverse</text>
</a>
</g>
<!-- http://latin.omdoc.org/foundations/type_theory/church?IndexedUniverse&#45;&gt;http://latin.omdoc.org/foundations/type_theory/church?Logic -->
<g id="edge33" class="edge"><title>http://latin.omdoc.org/foundations/type_theory/church?IndexedUniverse&#45;&gt;http://latin.omdoc.org/foundations/type_theory/church?Logic</title>
<a class="graphinclude">
<path fill="none" stroke="black" d="M400.473,-265.836C533.784,-262.894 816.961,-252.864 908.699,-220 912.277,-218.719 915.828,-216.986 919.228,-215.026"/>
<polygon fill="black" stroke="black" points="921.308,-217.849 927.786,-209.465 917.493,-211.979 921.308,-217.849"/>
</a>
</g>
<!-- http://latin.omdoc.org/foundations/type_theory/church?IndexedUniverse&#45;&gt;http://latin.omdoc.org/foundations/type_theory/church?_InternalLogic -->
<g id="edge65" class="edge"><title>http://latin.omdoc.org/foundations/type_theory/church?IndexedUniverse&#45;&gt;http://latin.omdoc.org/foundations/type_theory/church?_InternalLogic</title>
<a xlink:href="http://latin.omdoc.org/foundations/type_theory/church?_InternalLogic?[http://latin.omdoc.org/foundations/type_theory/church?IndexedUniverse]" class="graphstructure">
<path fill="none" stroke="black" d="M259.901,-264.294C227.968,-259.122 192.833,-247.044 172.699,-220 158.898,-201.462 162.034,-188.503 172.699,-168 182.037,-150.049 199.344,-136.283 216.078,-126.41"/>
<polygon fill="black" stroke="black" points="218.209,-129.231 225.261,-121.324 214.818,-123.107 218.209,-129.231"/>
</a>
<a xlink:href="http://latin.omdoc.org/foundations/type_theory/church?_InternalLogic?[http://latin.omdoc.org/foundations/type_theory/church?IndexedUniverse]" class="[http://latin.omdoc.org/foundations/type_theory/church?IndexedUniverse]">
<text text-anchor="middle" x="378.699" y="-190.3" font-family="Times New Roman,serif" font-size="14.00">[http://latin.omdoc.org/foundations/type_theory/church?IndexedUniverse]</text>
</a>
</g>
<!-- http://latin.omdoc.org/foundations/type_theory/church?IndexedUniverse&#45;&gt;http://latin.omdoc.org/foundations/zfc?TypedZF -->
<g id="edge67" class="edge"><title>http://latin.omdoc.org/foundations/type_theory/church?IndexedUniverse&#45;&gt;http://latin.omdoc.org/foundations/zfc?TypedZF</title>
<a xlink:href="http://latin.omdoc.org/foundations/type_theory/church?_IndexedUniverse" class="graphview">
<path fill="none" stroke="black" d="M276.307,-256.059C244.66,-249.426 203.806,-240.606 167.699,-232 147.147,-227.101 141.333,-227.808 121.699,-220 68.469,-198.831 37.8804,-207.296 8.69943,-158 5.07703,-151.881 8.30618,-149.1 8.69943,-142 10.0348,-117.889 -1.61922,-105.799 14.6994,-88 53.1151,-46.0988 218.047,-28.6523 305.215,-22.2502"/>
<polygon fill="black" stroke="black" points="305.464,-25.7414 315.191,-21.5408 304.968,-18.759 305.464,-25.7414"/>
</a>
<a xlink:href="http://latin.omdoc.org/foundations/type_theory/church?_IndexedUniverse" class="_IndexedUniverse">
<text text-anchor="middle" x="59.6994" y="-146.3" font-family="Times New Roman,serif" font-size="14.00">_IndexedUniverse</text>
</a>
</g>
<!-- http://latin.omdoc.org/foundations/type_theory/church?IndexedUniverse&#45;&gt;http://latin.omdoc.org/foundations/type_theory/church?InternalLogic -->
<g id="edge71" class="edge"><title>http://latin.omdoc.org/foundations/type_theory/church?IndexedUniverse&#45;&gt;http://latin.omdoc.org/foundations/type_theory/church?InternalLogic</title>
<a class="graphinclude">
<path fill="none" stroke="black" d="M399.289,-263.79C616.801,-253.234 1281.67,-216.868 1488.7,-158 1514.82,-150.573 1542.58,-137.815 1563.81,-126.919"/>
<polygon fill="black" stroke="black" points="1565.54,-129.964 1572.77,-122.227 1562.29,-123.762 1565.54,-129.964"/>
</a>
</g>
<!-- http://latin.omdoc.org/foundations/type_theory/church?IndexedUniverse&#45;&gt;http://latin.omdoc.org/foundations/type_theory/church?AxiomaticEquality -->
<g id="edge69" class="edge"><title>http://latin.omdoc.org/foundations/type_theory/church?IndexedUniverse&#45;&gt;http://latin.omdoc.org/foundations/type_theory/church?AxiomaticEquality</title>
<a class="graphinclude">
<path fill="none" stroke="black" d="M259.53,-264.435C224.804,-259.44 185.009,-247.478 159.699,-220 136.243,-194.533 119.421,-157.992 109.886,-133.422"/>
<polygon fill="black" stroke="black" points="113.145,-132.146 106.361,-124.009 106.59,-134.601 113.145,-132.146"/>
</a>
</g>
<!-- http://latin.omdoc.org/logics/syntax?Logic -->
<g id="node34" class="node"><title>http://latin.omdoc.org/logics/syntax?Logic</title>
<a xlink:href="http://latin.omdoc.org/logics/syntax?Logic" class="graphtheory">
<ellipse fill="gray" stroke="black" cx="1182.7" cy="-268" rx="31.2735" ry="18"/>
<text text-anchor="middle" x="1182.7" y="-264.3" font-family="Times New Roman,serif" font-size="14.00">Logic</text>
</a>
</g>
<!-- http://latin.omdoc.org/logics/syntax?Logic&#45;&gt;http://latin.omdoc.org/foundations/type_theory/church?Logic -->
<g id="edge35" class="edge"><title>http://latin.omdoc.org/logics/syntax?Logic&#45;&gt;http://latin.omdoc.org/foundations/type_theory/church?Logic</title>
<a class="graphinclude">
<path fill="none" stroke="black" d="M1151.92,-263.682C1111.08,-258.44 1037.4,-246.038 979.699,-220 976.471,-218.543 973.237,-216.768 970.11,-214.842"/>
<polygon fill="black" stroke="black" points="971.926,-211.845 961.678,-209.155 968.012,-217.648 971.926,-211.845"/>
</a>
</g>
<!-- http://cds.omdoc.org/urtheories?LF -->
<g id="node36" class="node"><title>http://cds.omdoc.org/urtheories?LF</title>
<a xlink:href="http://cds.omdoc.org/urtheories?LF" class="graphtheory">
<ellipse fill="gray" stroke="black" cx="1415.7" cy="-342" rx="27" ry="18"/>
<text text-anchor="middle" x="1415.7" y="-338.3" font-family="Times New Roman,serif" font-size="14.00">LF</text>
</a>
</g>
<!-- http://cds.omdoc.org/urtheories?LF&#45;&gt;http://latin.omdoc.org/foundations/type_theory/church?Logic -->
<g id="edge37" class="edge"><title>http://cds.omdoc.org/urtheories?LF&#45;&gt;http://latin.omdoc.org/foundations/type_theory/church?Logic</title>
<a class="graphmeta">
<path fill="none" stroke="black" d="M1392.33,-332.679C1374.19,-326.013 1348.54,-316.13 1326.7,-306 1279.08,-283.91 1272.72,-265.934 1222.7,-250 1170.86,-233.485 1030.4,-239.754 979.699,-220 976.399,-218.714 973.12,-217.046 969.967,-215.182"/>
<polygon fill="black" stroke="black" points="971.773,-212.18 961.506,-209.564 967.901,-218.011 971.773,-212.18"/>
</a>
</g>
<!-- http://cds.omdoc.org/urtheories?LF&#45;&gt;http://latin.omdoc.org/foundations/zfc?Boolean -->
<g id="edge45" class="edge"><title>http://cds.omdoc.org/urtheories?LF&#45;&gt;http://latin.omdoc.org/foundations/zfc?Boolean</title>
<a class="graphmeta">
<path fill="none" stroke="black" d="M1442.83,-340.51C1541.24,-338.543 1875.76,-330.127 1916.7,-306 1933.59,-296.048 1940.7,-288.601 1940.7,-269 1940.7,-269 1940.7,-269 1940.7,-105 1940.7,-79.9489 1937.08,-68.5649 1916.7,-54 1875.1,-24.2694 1728.5,-19.2205 1650.08,-18.7141"/>
<polygon fill="black" stroke="black" points="1649.96,-15.2137 1639.95,-18.6716 1649.93,-22.2136 1649.96,-15.2137"/>
</a>
</g>
<!-- http://cds.omdoc.org/urtheories?LF&#45;&gt;http://latin.omdoc.org/foundations/zfc?TypedZF -->
<g id="edge51" class="edge"><title>http://cds.omdoc.org/urtheories?LF&#45;&gt;http://latin.omdoc.org/foundations/zfc?TypedZF</title>
<a class="graphmeta">
<path fill="none" stroke="black" d="M1442.58,-339.887C1544.67,-335.306 1902.7,-315.9 1902.7,-269 1902.7,-269 1902.7,-269 1902.7,-105 1902.7,-36.7791 2130.23,-97.994 1685.7,-54 1433.31,-29.0211 633.573,-21.1156 415.237,-19.3954"/>
<polygon fill="black" stroke="black" points="415.01,-15.8936 404.983,-19.3158 414.955,-22.8934 415.01,-15.8936"/>
</a>
</g>
<!-- http://cds.omdoc.org/urtheories?LF&#45;&gt;http://latin.omdoc.org/foundations/type_theory/church?ReflectedLogic -->
<g id="edge43" class="edge"><title>http://cds.omdoc.org/urtheories?LF&#45;&gt;http://latin.omdoc.org/foundations/type_theory/church?ReflectedLogic</title>
<a class="graphmeta">
<path fill="none" stroke="black" d="M1389.99,-335.935C1341.44,-326.348 1232.93,-304.82 1141.7,-286 893.868,-234.876 835.538,-201.377 584.699,-168 564.954,-165.373 419.386,-172.473 405.699,-158 400.813,-152.833 400.91,-147.257 405.699,-142 420.204,-126.079 577.361,-126.919 598.699,-124 609.034,-122.586 619.965,-120.841 630.575,-119.012"/>
<polygon fill="black" stroke="black" points="631.379,-122.425 640.62,-117.242 630.164,-115.531 631.379,-122.425"/>
</a>
</g>
<!-- http://cds.omdoc.org/urtheories?LF&#45;&gt;http://latin.omdoc.org/foundations/type_theory/church?InternalLogic -->
<g id="edge41" class="edge"><title>http://cds.omdoc.org/urtheories?LF&#45;&gt;http://latin.omdoc.org/foundations/type_theory/church?InternalLogic</title>
<a class="graphmeta">
<path fill="none" stroke="black" d="M1430.15,-326.562C1436.27,-320.328 1443.43,-312.896 1449.7,-306 1457.55,-297.367 1459.44,-295.131 1466.7,-286 1509.35,-232.362 1556.6,-167.326 1581.7,-132.294"/>
<polygon fill="black" stroke="black" points="1584.62,-134.229 1587.59,-124.059 1578.93,-130.158 1584.62,-134.229"/>
</a>
</g>
<!-- http://cds.omdoc.org/urtheories?LF&#45;&gt;http://latin.omdoc.org/foundations/type_theory/church?ExternalLogic -->
<g id="edge47" class="edge"><title>http://cds.omdoc.org/urtheories?LF&#45;&gt;http://latin.omdoc.org/foundations/type_theory/church?ExternalLogic</title>
<a class="graphmeta">
<path fill="none" stroke="black" d="M1434,-328.467C1450.07,-317.407 1474.05,-300.791 1494.7,-286 1572.34,-230.394 1662.59,-163.238 1708.15,-129.161"/>
<polygon fill="black" stroke="black" points="1710.48,-131.791 1716.39,-122.997 1706.28,-126.187 1710.48,-131.791"/>
</a>
</g>
<!-- http://cds.omdoc.org/urtheories?LF&#45;&gt;http://latin.omdoc.org/foundations/type_theory/church?Unit -->
<g id="edge53" class="edge"><title>http://cds.omdoc.org/urtheories?LF&#45;&gt;http://latin.omdoc.org/foundations/type_theory/church?Unit</title>
<a class="graphmeta">
<path fill="none" stroke="black" d="M1417.36,-323.78C1420.17,-288.719 1423.86,-206.875 1404.7,-142 1403.68,-138.539 1402.26,-135.053 1400.64,-131.691"/>
<polygon fill="black" stroke="black" points="1403.58,-129.778 1395.72,-122.673 1397.43,-133.129 1403.58,-129.778"/>
</a>
</g>
<!-- http://cds.omdoc.org/urtheories?LF&#45;&gt;http://latin.omdoc.org/foundations/type_theory/church?PartialFunctionsDom -->
<g id="edge49" class="edge"><title>http://cds.omdoc.org/urtheories?LF&#45;&gt;http://latin.omdoc.org/foundations/type_theory/church?PartialFunctionsDom</title>
<a class="graphmeta">
<path fill="none" stroke="black" d="M1410.56,-324.028C1397.74,-284.847 1360.43,-187.935 1292.7,-142 1254.6,-116.162 1236.03,-132.013 1190.7,-124 1183.46,-122.72 1175.91,-121.384 1168.36,-120.049"/>
<polygon fill="black" stroke="black" points="1168.93,-116.595 1158.47,-118.299 1167.71,-123.488 1168.93,-116.595"/>
</a>
</g>
<!-- http://cds.omdoc.org/urtheories?LF&#45;&gt;http://latin.omdoc.org/foundations/type_theory/church?AxiomaticEquality -->
<g id="edge39" class="edge"><title>http://cds.omdoc.org/urtheories?LF&#45;&gt;http://latin.omdoc.org/foundations/type_theory/church?AxiomaticEquality</title>
<a class="graphmeta">
<path fill="none" stroke="black" d="M1388.55,-340.437C1223.91,-336.931 362.694,-317.204 249.699,-286 130.898,-253.192 67.4363,-263.488 3.69943,-158 -7.06218,-140.189 9.07823,-128.288 31.0975,-120.498"/>
<polygon fill="black" stroke="black" points="32.3617,-123.769 40.833,-117.406 30.2426,-117.097 32.3617,-123.769"/>
</a>
</g>
<!-- http://cds.omdoc.org/urtheories?LF&#45;&gt;http://latin.omdoc.org/foundations/type_theory/church?DisjUnion -->
<g id="edge57" class="edge"><title>http://cds.omdoc.org/urtheories?LF&#45;&gt;http://latin.omdoc.org/foundations/type_theory/church?DisjUnion</title>
<a class="graphmeta">
<path fill="none" stroke="black" d="M1424.63,-325.005C1441.36,-293.975 1476.82,-222.94 1488.7,-158 1490.16,-150.037 1489.15,-141.446 1487.22,-133.627"/>
<polygon fill="black" stroke="black" points="1490.52,-132.465 1484.27,-123.91 1483.82,-134.496 1490.52,-132.465"/>
</a>
</g>
<!-- http://cds.omdoc.org/urtheories?LF&#45;&gt;http://latin.omdoc.org/foundations/type_theory/church?PartialFunctions -->
<g id="edge61" class="edge"><title>http://cds.omdoc.org/urtheories?LF&#45;&gt;http://latin.omdoc.org/foundations/type_theory/church?PartialFunctions</title>
<a class="graphmeta">
<path fill="none" stroke="black" d="M1415.19,-323.987C1413.17,-286.378 1403.25,-195.294 1354.7,-142 1347.38,-133.961 1337.93,-127.722 1328.01,-122.894"/>
<polygon fill="black" stroke="black" points="1329.37,-119.671 1318.81,-118.845 1326.55,-126.077 1329.37,-119.671"/>
</a>
</g>
<!-- http://cds.omdoc.org/urtheories?LF&#45;&gt;http://latin.omdoc.org/foundations/type_theory/church?Void -->
<g id="edge59" class="edge"><title>http://cds.omdoc.org/urtheories?LF&#45;&gt;http://latin.omdoc.org/foundations/type_theory/church?Void</title>
<a class="graphmeta">
<path fill="none" stroke="black" d="M1437.72,-331.409C1461.62,-320.84 1500.8,-303.068 1533.7,-286 1640.34,-230.684 1762.89,-157.425 1817.22,-124.426"/>
<polygon fill="black" stroke="black" points="1819.23,-127.302 1825.95,-119.114 1815.59,-121.323 1819.23,-127.302"/>
</a>
</g>
<!-- http://cds.omdoc.org/urtheories?LF&#45;&gt;http://latin.omdoc.org/foundations/type_theory/church?IndexedUniverse -->
<g id="edge55" class="edge"><title>http://cds.omdoc.org/urtheories?LF&#45;&gt;http://latin.omdoc.org/foundations/type_theory/church?IndexedUniverse</title>
<a class="graphmeta">
<path fill="none" stroke="black" d="M1388.73,-340.863C1284.74,-340.122 899.923,-335.43 584.699,-306 520.498,-300.006 447.753,-289.032 396.438,-280.586"/>
<polygon fill="black" stroke="black" points="396.907,-277.116 386.469,-278.933 395.762,-284.022 396.907,-277.116"/>
</a>
</g>
<!-- http://cds.omdoc.org/urtheories?LF&#45;&gt;http://latin.omdoc.org/logics/syntax?Logic -->
<g id="edge63" class="edge"><title>http://cds.omdoc.org/urtheories?LF&#45;&gt;http://latin.omdoc.org/logics/syntax?Logic</title>
<a class="graphmeta">
<path fill="none" stroke="black" d="M1389.83,-336.248C1360.17,-330.477 1310.29,-319.782 1268.7,-306 1250.68,-300.03 1231.21,-291.808 1215.36,-284.631"/>
<polygon fill="black" stroke="black" points="1216.55,-281.326 1206,-280.327 1213.62,-287.685 1216.55,-281.326"/>
</a>
</g>
</g>
</svg>
