<?xml version="1.0" encoding="UTF-8" standalone="no"?>
<!DOCTYPE svg PUBLIC "-//W3C//DTD SVG 1.1//EN"
 "http://www.w3.org/Graphics/SVG/1.1/DTD/svg11.dtd">
<!-- Generated by graphviz version 2.28.0 (20110507.0327)
 -->
<!-- Title: MMT Pages: 1 -->
<svg width="195pt" height="204pt"
 viewBox="0.00 0.00 195.00 204.00" xmlns="http://www.w3.org/2000/svg" xmlns:xlink="http://www.w3.org/1999/xlink">
<g id="graph1" class="graph" transform="scale(1 1) rotate(0) translate(4 200)">
<title>MMT</title>
<polygon fill="white" stroke="white" points="-4,5 -4,-200 192,-200 192,5 -4,5"/>
<g id="graph2" class="cluster"><title>cluster_local</title>
<polygon fill="none" stroke="black" points="8,-8 8,-60 124,-60 124,-8 8,-8"/>
</g>
<!-- http://latin.omdoc.org/foundations/type_theory/church?NonEmpty -->
<g id="node2" class="node"><title>http://latin.omdoc.org/foundations/type_theory/church?NonEmpty</title>
<a xlink:href="http://latin.omdoc.org/foundations/type_theory/church?NonEmpty" class="graphtheory">
<ellipse fill="none" stroke="black" cx="66" cy="-34" rx="50.0684" ry="18"/>
<text text-anchor="middle" x="66" y="-30.3" font-family="Times New Roman,serif" font-size="14.00">NonEmpty</text>
</a>
</g>
<!-- http://latin.omdoc.org/foundations/type_theory/church?IndexedUniverse -->
<g id="node3" class="node"><title>http://latin.omdoc.org/foundations/type_theory/church?IndexedUniverse</title>
<a xlink:href="http://latin.omdoc.org/foundations/type_theory/church?IndexedUniverse" class="graphtheory">
<ellipse fill="gray" stroke="black" cx="116" cy="-106" rx="71.2405" ry="18"/>
<text text-anchor="middle" x="116" y="-102.3" font-family="Times New Roman,serif" font-size="14.00">IndexedUniverse</text>
</a>
</g>
<!-- http://latin.omdoc.org/foundations/type_theory/church?IndexedUniverse&#45;&gt;http://latin.omdoc.org/foundations/type_theory/church?NonEmpty -->
<g id="edge3" class="edge"><title>http://latin.omdoc.org/foundations/type_theory/church?IndexedUniverse&#45;&gt;http://latin.omdoc.org/foundations/type_theory/church?NonEmpty</title>
<a class="graphinclude">
<path fill="none" stroke="black" d="M103.896,-88.055C97.8776,-79.6287 90.4856,-69.2798 83.8331,-59.9663"/>
<polygon fill="black" stroke="black" points="86.6526,-57.892 77.9921,-51.789 80.9565,-61.9607 86.6526,-57.892"/>
</a>
</g>
<!-- http://cds.omdoc.org/urtheories?LF -->
<g id="node5" class="node"><title>http://cds.omdoc.org/urtheories?LF</title>
<a xlink:href="http://cds.omdoc.org/urtheories?LF" class="graphtheory">
<ellipse fill="gray" stroke="black" cx="66" cy="-178" rx="27" ry="18"/>
<text text-anchor="middle" x="66" y="-174.3" font-family="Times New Roman,serif" font-size="14.00">LF</text>
</a>
</g>
<!-- http://cds.omdoc.org/urtheories?LF&#45;&gt;http://latin.omdoc.org/foundations/type_theory/church?NonEmpty -->
<g id="edge5" class="edge"><title>http://cds.omdoc.org/urtheories?LF&#45;&gt;http://latin.omdoc.org/foundations/type_theory/church?NonEmpty</title>
<a class="graphmeta">
<path fill="none" stroke="black" d="M54.5126,-161.697C47.659,-151.58 39.6086,-137.701 36,-124 31.9248,-108.528 31.9248,-103.472 36,-88 38.5314,-78.389 43.2486,-68.6902 48.2051,-60.264"/>
<polygon fill="black" stroke="black" points="51.2377,-62.016 53.5853,-51.6845 45.3073,-58.297 51.2377,-62.016"/>
</a>
</g>
<!-- http://cds.omdoc.org/urtheories?LF&#45;&gt;http://latin.omdoc.org/foundations/type_theory/church?IndexedUniverse -->
<g id="edge7" class="edge"><title>http://cds.omdoc.org/urtheories?LF&#45;&gt;http://latin.omdoc.org/foundations/type_theory/church?IndexedUniverse</title>
<a class="graphmeta">
<path fill="none" stroke="black" d="M77.0966,-161.465C83.2382,-152.867 91.0212,-141.97 98.0093,-132.187"/>
<polygon fill="black" stroke="black" points="100.92,-134.133 103.884,-123.962 95.2239,-130.065 100.92,-134.133"/>
</a>
</g>
</g>
</svg>
