<?xml version="1.0" encoding="UTF-8" standalone="no"?>
<!DOCTYPE svg PUBLIC "-//W3C//DTD SVG 1.1//EN"
 "http://www.w3.org/Graphics/SVG/1.1/DTD/svg11.dtd">
<!-- Generated by graphviz version 2.28.0 (20110507.0327)
 -->
<!-- Title: MMT Pages: 1 -->
<svg width="241pt" height="204pt"
 viewBox="0.00 0.00 241.00 204.00" xmlns="http://www.w3.org/2000/svg" xmlns:xlink="http://www.w3.org/1999/xlink">
<g id="graph1" class="graph" transform="scale(1 1) rotate(0) translate(4 200)">
<title>MMT</title>
<polygon fill="white" stroke="white" points="-4,5 -4,-200 238,-200 238,5 -4,5"/>
<g id="graph2" class="cluster"><title>cluster_local</title>
<polygon fill="none" stroke="black" points="8,-8 8,-60 198,-60 198,-8 8,-8"/>
</g>
<!-- http://latin.omdoc.org/foundations/type_theory/church?PartialFunctionsDom -->
<g id="node2" class="node"><title>http://latin.omdoc.org/foundations/type_theory/church?PartialFunctionsDom</title>
<a xlink:href="http://latin.omdoc.org/foundations/type_theory/church?PartialFunctionsDom" class="graphtheory">
<ellipse fill="none" stroke="black" cx="103" cy="-34" rx="87.1385" ry="18"/>
<text text-anchor="middle" x="103" y="-30.3" font-family="Times New Roman,serif" font-size="14.00">PartialFunctionsDom</text>
</a>
</g>
<!-- http://latin.omdoc.org/foundations/type_theory/church?Logic -->
<g id="node3" class="node"><title>http://latin.omdoc.org/foundations/type_theory/church?Logic</title>
<a xlink:href="http://latin.omdoc.org/foundations/type_theory/church?Logic" class="graphtheory">
<ellipse fill="gray" stroke="black" cx="103" cy="-106" rx="31.2735" ry="18"/>
<text text-anchor="middle" x="103" y="-102.3" font-family="Times New Roman,serif" font-size="14.00">Logic</text>
</a>
</g>
<!-- http://latin.omdoc.org/foundations/type_theory/church?Logic&#45;&gt;http://latin.omdoc.org/foundations/type_theory/church?PartialFunctionsDom -->
<g id="edge3" class="edge"><title>http://latin.omdoc.org/foundations/type_theory/church?Logic&#45;&gt;http://latin.omdoc.org/foundations/type_theory/church?PartialFunctionsDom</title>
<a class="graphinclude">
<path fill="none" stroke="black" d="M103,-87.6966C103,-79.9827 103,-70.7125 103,-62.1124"/>
<polygon fill="black" stroke="black" points="106.5,-62.1043 103,-52.1043 99.5001,-62.1044 106.5,-62.1043"/>
</a>
</g>
<!-- http://latin.omdoc.org/foundations/type_theory/church?Equality -->
<g id="node5" class="node"><title>http://latin.omdoc.org/foundations/type_theory/church?Equality</title>
<a xlink:href="http://latin.omdoc.org/foundations/type_theory/church?Equality" class="graphtheory">
<ellipse fill="gray" stroke="black" cx="193" cy="-106" rx="39.9464" ry="18"/>
<text text-anchor="middle" x="193" y="-102.3" font-family="Times New Roman,serif" font-size="14.00">Equality</text>
</a>
</g>
<!-- http://latin.omdoc.org/foundations/type_theory/church?Equality&#45;&gt;http://latin.omdoc.org/foundations/type_theory/church?PartialFunctionsDom -->
<g id="edge5" class="edge"><title>http://latin.omdoc.org/foundations/type_theory/church?Equality&#45;&gt;http://latin.omdoc.org/foundations/type_theory/church?PartialFunctionsDom</title>
<a class="graphinclude">
<path fill="none" stroke="black" d="M173.913,-90.1548C161.863,-80.7826 146.053,-68.4855 132.419,-57.8815"/>
<polygon fill="black" stroke="black" points="134.307,-54.9158 124.265,-51.5391 130.009,-60.4413 134.307,-54.9158"/>
</a>
</g>
<!-- http://cds.omdoc.org/urtheories?LF -->
<g id="node7" class="node"><title>http://cds.omdoc.org/urtheories?LF</title>
<a xlink:href="http://cds.omdoc.org/urtheories?LF" class="graphtheory">
<ellipse fill="gray" stroke="black" cx="103" cy="-178" rx="27" ry="18"/>
<text text-anchor="middle" x="103" y="-174.3" font-family="Times New Roman,serif" font-size="14.00">LF</text>
</a>
</g>
<!-- http://cds.omdoc.org/urtheories?LF&#45;&gt;http://latin.omdoc.org/foundations/type_theory/church?PartialFunctionsDom -->
<g id="edge7" class="edge"><title>http://cds.omdoc.org/urtheories?LF&#45;&gt;http://latin.omdoc.org/foundations/type_theory/church?PartialFunctionsDom</title>
<a class="graphmeta">
<path fill="none" stroke="black" d="M87.7911,-162.85C78.3666,-152.994 67.115,-138.972 62,-124 56.8272,-108.859 56.8272,-103.141 62,-88 65.4977,-77.7621 71.865,-67.9681 78.5554,-59.6466"/>
<polygon fill="black" stroke="black" points="81.3908,-61.7174 85.2591,-51.854 76.0842,-57.1523 81.3908,-61.7174"/>
</a>
</g>
<!-- http://cds.omdoc.org/urtheories?LF&#45;&gt;http://latin.omdoc.org/foundations/type_theory/church?Logic -->
<g id="edge9" class="edge"><title>http://cds.omdoc.org/urtheories?LF&#45;&gt;http://latin.omdoc.org/foundations/type_theory/church?Logic</title>
<a class="graphmeta">
<path fill="none" stroke="black" d="M103,-159.697C103,-151.983 103,-142.712 103,-134.112"/>
<polygon fill="black" stroke="black" points="106.5,-134.104 103,-124.104 99.5001,-134.104 106.5,-134.104"/>
</a>
</g>
<!-- http://cds.omdoc.org/urtheories?LF&#45;&gt;http://latin.omdoc.org/foundations/type_theory/church?Equality -->
<g id="edge11" class="edge"><title>http://cds.omdoc.org/urtheories?LF&#45;&gt;http://latin.omdoc.org/foundations/type_theory/church?Equality</title>
<a class="graphmeta">
<path fill="none" stroke="black" d="M119.928,-163.834C132.817,-153.809 150.822,-139.805 165.734,-128.207"/>
<polygon fill="black" stroke="black" points="167.903,-130.954 173.648,-122.052 163.605,-125.428 167.903,-130.954"/>
</a>
</g>
</g>
</svg>
