<?xml version="1.0" encoding="UTF-8" standalone="no"?>
<!DOCTYPE svg PUBLIC "-//W3C//DTD SVG 1.1//EN"
 "http://www.w3.org/Graphics/SVG/1.1/DTD/svg11.dtd">
<!-- Generated by graphviz version 2.28.0 (20110507.0327)
 -->
<!-- Title: MMT Pages: 1 -->
<svg width="183pt" height="204pt"
 viewBox="0.00 0.00 182.88 204.00" xmlns="http://www.w3.org/2000/svg" xmlns:xlink="http://www.w3.org/1999/xlink">
<g id="graph1" class="graph" transform="scale(1 1) rotate(0) translate(4 200)">
<title>MMT</title>
<polygon fill="white" stroke="white" points="-4,5 -4,-200 179.88,-200 179.88,5 -4,5"/>
<g id="graph2" class="cluster"><title>cluster_local</title>
<polygon fill="none" stroke="black" points="9.87958,-8 9.87958,-60 79.8796,-60 79.8796,-8 9.87958,-8"/>
</g>
<!-- http://latin.omdoc.org/foundations/type_theory/church?Unit -->
<g id="node2" class="node"><title>http://latin.omdoc.org/foundations/type_theory/church?Unit</title>
<a xlink:href="http://latin.omdoc.org/foundations/type_theory/church?Unit" class="graphtheory">
<ellipse fill="none" stroke="black" cx="44.8796" cy="-34" rx="27" ry="18"/>
<text text-anchor="middle" x="44.8796" y="-30.3" font-family="Times New Roman,serif" font-size="14.00">Unit</text>
</a>
</g>
<!-- http://latin.omdoc.org/foundations/type_theory/church?Logic -->
<g id="node3" class="node"><title>http://latin.omdoc.org/foundations/type_theory/church?Logic</title>
<a xlink:href="http://latin.omdoc.org/foundations/type_theory/church?Logic" class="graphtheory">
<ellipse fill="gray" stroke="black" cx="44.8796" cy="-106" rx="31.2735" ry="18"/>
<text text-anchor="middle" x="44.8796" y="-102.3" font-family="Times New Roman,serif" font-size="14.00">Logic</text>
</a>
</g>
<!-- http://latin.omdoc.org/foundations/type_theory/church?Logic&#45;&gt;http://latin.omdoc.org/foundations/type_theory/church?Unit -->
<g id="edge3" class="edge"><title>http://latin.omdoc.org/foundations/type_theory/church?Logic&#45;&gt;http://latin.omdoc.org/foundations/type_theory/church?Unit</title>
<a class="graphinclude">
<path fill="none" stroke="black" d="M44.8796,-87.6966C44.8796,-79.9827 44.8796,-70.7125 44.8796,-62.1124"/>
<polygon fill="black" stroke="black" points="48.3797,-62.1043 44.8796,-52.1043 41.3797,-62.1044 48.3797,-62.1043"/>
</a>
</g>
<!-- http://latin.omdoc.org/foundations/type_theory/church?Equality -->
<g id="node5" class="node"><title>http://latin.omdoc.org/foundations/type_theory/church?Equality</title>
<a xlink:href="http://latin.omdoc.org/foundations/type_theory/church?Equality" class="graphtheory">
<ellipse fill="gray" stroke="black" cx="134.88" cy="-106" rx="39.9464" ry="18"/>
<text text-anchor="middle" x="134.88" y="-102.3" font-family="Times New Roman,serif" font-size="14.00">Equality</text>
</a>
</g>
<!-- http://latin.omdoc.org/foundations/type_theory/church?Equality&#45;&gt;http://latin.omdoc.org/foundations/type_theory/church?Unit -->
<g id="edge5" class="edge"><title>http://latin.omdoc.org/foundations/type_theory/church?Equality&#45;&gt;http://latin.omdoc.org/foundations/type_theory/church?Unit</title>
<a class="graphinclude">
<path fill="none" stroke="black" d="M115.793,-90.1548C102.421,-79.7548 84.4196,-65.7533 69.8998,-54.4602"/>
<polygon fill="black" stroke="black" points="71.8568,-51.5483 61.8145,-48.1716 67.5592,-57.0738 71.8568,-51.5483"/>
</a>
</g>
<!-- http://cds.omdoc.org/urtheories?LF -->
<g id="node7" class="node"><title>http://cds.omdoc.org/urtheories?LF</title>
<a xlink:href="http://cds.omdoc.org/urtheories?LF" class="graphtheory">
<ellipse fill="gray" stroke="black" cx="44.8796" cy="-178" rx="27" ry="18"/>
<text text-anchor="middle" x="44.8796" y="-174.3" font-family="Times New Roman,serif" font-size="14.00">LF</text>
</a>
</g>
<!-- http://cds.omdoc.org/urtheories?LF&#45;&gt;http://latin.omdoc.org/foundations/type_theory/church?Unit -->
<g id="edge7" class="edge"><title>http://cds.omdoc.org/urtheories?LF&#45;&gt;http://latin.omdoc.org/foundations/type_theory/church?Unit</title>
<a class="graphmeta">
<path fill="none" stroke="black" d="M29.6706,-162.85C20.2461,-152.994 8.99454,-138.972 3.87958,-124 -1.29319,-108.859 -1.29319,-103.141 3.87958,-88 7.79572,-76.5374 15.3091,-65.6312 22.8455,-56.7252"/>
<polygon fill="black" stroke="black" points="25.5772,-58.9221 29.6706,-49.1499 20.3767,-54.2365 25.5772,-58.9221"/>
</a>
</g>
<!-- http://cds.omdoc.org/urtheories?LF&#45;&gt;http://latin.omdoc.org/foundations/type_theory/church?Logic -->
<g id="edge9" class="edge"><title>http://cds.omdoc.org/urtheories?LF&#45;&gt;http://latin.omdoc.org/foundations/type_theory/church?Logic</title>
<a class="graphmeta">
<path fill="none" stroke="black" d="M44.8796,-159.697C44.8796,-151.983 44.8796,-142.712 44.8796,-134.112"/>
<polygon fill="black" stroke="black" points="48.3797,-134.104 44.8796,-124.104 41.3797,-134.104 48.3797,-134.104"/>
</a>
</g>
<!-- http://cds.omdoc.org/urtheories?LF&#45;&gt;http://latin.omdoc.org/foundations/type_theory/church?Equality -->
<g id="edge11" class="edge"><title>http://cds.omdoc.org/urtheories?LF&#45;&gt;http://latin.omdoc.org/foundations/type_theory/church?Equality</title>
<a class="graphmeta">
<path fill="none" stroke="black" d="M61.8079,-163.834C74.6969,-153.809 92.7016,-139.805 107.613,-128.207"/>
<polygon fill="black" stroke="black" points="109.783,-130.954 115.527,-122.052 105.485,-125.428 109.783,-130.954"/>
</a>
</g>
</g>
</svg>
