<?xml version="1.0" encoding="UTF-8" standalone="no"?>
<!DOCTYPE svg PUBLIC "-//W3C//DTD SVG 1.1//EN"
 "http://www.w3.org/Graphics/SVG/1.1/DTD/svg11.dtd">
<!-- Generated by graphviz version 2.28.0 (20110507.0327)
 -->
<!-- Title: MMT Pages: 1 -->
<svg
 viewBox="0.00 0.00 114.00 204.00" xmlns="http://www.w3.org/2000/svg" xmlns:xlink="http://www.w3.org/1999/xlink">
<g id="graph1" class="graph" transform="scale(1 1) rotate(0) translate(4 200)">
<title>MMT</title>
<polygon fill="white" stroke="white" points="-4,5 -4,-200 111,-200 111,5 -4,5"/>
<g id="graph2" class="cluster"><title>cluster_local</title>
<polygon fill="none" stroke="black" points="8,-8 8,-60 82,-60 82,-8 8,-8"/>
</g>
<!-- http://latin.omdoc.org/foundations/type_theory/church?Void -->
<g id="node2" class="node"><title>http://latin.omdoc.org/foundations/type_theory/church?Void</title>
<a xlink:href="http://latin.omdoc.org/foundations/type_theory/church?Void" class="graphtheory">
<ellipse fill="none" stroke="black" cx="45" cy="-34" rx="28.3955" ry="18"/>
<text text-anchor="middle" x="45" y="-30.3" font-family="Times New Roman,serif" font-size="14.00">Void</text>
</a>
</g>
<!-- http://latin.omdoc.org/foundations/type_theory/church?Logic -->
<g id="node3" class="node"><title>http://latin.omdoc.org/foundations/type_theory/church?Logic</title>
<a xlink:href="http://latin.omdoc.org/foundations/type_theory/church?Logic" class="graphtheory">
<ellipse fill="gray" stroke="black" cx="75" cy="-106" rx="31.2735" ry="18"/>
<text text-anchor="middle" x="75" y="-102.3" font-family="Times New Roman,serif" font-size="14.00">Logic</text>
</a>
</g>
<!-- http://latin.omdoc.org/foundations/type_theory/church?Logic&#45;&gt;http://latin.omdoc.org/foundations/type_theory/church?Void -->
<g id="edge3" class="edge"><title>http://latin.omdoc.org/foundations/type_theory/church?Logic&#45;&gt;http://latin.omdoc.org/foundations/type_theory/church?Void</title>
<a class="graphinclude">
<path fill="none" stroke="black" d="M67.8904,-88.411C64.3411,-80.1292 59.9678,-69.9249 55.998,-60.662"/>
<polygon fill="black" stroke="black" points="59.2148,-59.2827 52.0585,-51.4699 52.7808,-62.0401 59.2148,-59.2827"/>
</a>
</g>
<!-- http://cds.omdoc.org/urtheories?LF -->
<g id="node5" class="node"><title>http://cds.omdoc.org/urtheories?LF</title>
<a xlink:href="http://cds.omdoc.org/urtheories?LF" class="graphtheory">
<ellipse fill="gray" stroke="black" cx="45" cy="-178" rx="27" ry="18"/>
<text text-anchor="middle" x="45" y="-174.3" font-family="Times New Roman,serif" font-size="14.00">LF</text>
</a>
</g>
<!-- http://cds.omdoc.org/urtheories?LF&#45;&gt;http://latin.omdoc.org/foundations/type_theory/church?Void -->
<g id="edge5" class="edge"><title>http://cds.omdoc.org/urtheories?LF&#45;&gt;http://latin.omdoc.org/foundations/type_theory/church?Void</title>
<a class="graphmeta">
<path fill="none" stroke="black" d="M40.5358,-159.953C38.065,-149.63 35.2478,-136.153 34,-124 32.3657,-108.084 32.3657,-103.916 34,-88 34.8774,-79.455 36.5306,-70.2552 38.2938,-61.9576"/>
<polygon fill="black" stroke="black" points="41.743,-62.5728 40.5358,-52.0469 34.9155,-61.0282 41.743,-62.5728"/>
</a>
</g>
<!-- http://cds.omdoc.org/urtheories?LF&#45;&gt;http://latin.omdoc.org/foundations/type_theory/church?Logic -->
<g id="edge7" class="edge"><title>http://cds.omdoc.org/urtheories?LF&#45;&gt;http://latin.omdoc.org/foundations/type_theory/church?Logic</title>
<a class="graphmeta">
<path fill="none" stroke="black" d="M52.1096,-160.411C55.5706,-152.335 59.8152,-142.431 63.7051,-133.355"/>
<polygon fill="black" stroke="black" points="67.0108,-134.526 67.7331,-123.956 60.5768,-131.769 67.0108,-134.526"/>
</a>
</g>
</g>
</svg>
