<?xml version="1.0" encoding="UTF-8" standalone="no"?>
<!DOCTYPE svg PUBLIC "-//W3C//DTD SVG 1.1//EN"
 "http://www.w3.org/Graphics/SVG/1.1/DTD/svg11.dtd">
<!-- Generated by graphviz version 2.28.0 (20110507.0327)
 -->
<!-- Title: MMT Pages: 1 -->
<svg width="364pt" height="296pt"
 viewBox="0.00 0.00 363.78 296.00" xmlns="http://www.w3.org/2000/svg" xmlns:xlink="http://www.w3.org/1999/xlink">
<g id="graph1" class="graph" transform="scale(1 1) rotate(0) translate(4 292)">
<title>MMT</title>
<polygon fill="white" stroke="white" points="-4,5 -4,-292 360.78,-292 360.78,5 -4,5"/>
<g id="graph2" class="cluster"><title>cluster_local</title>
<polygon fill="none" stroke="black" points="84.7798,-8 84.7798,-60 180.78,-60 180.78,-8 84.7798,-8"/>
</g>
<!-- http://latin.omdoc.org/translations/stt_prop?CH&#45;IPL -->
<g id="node2" class="node"><title>http://latin.omdoc.org/translations/stt_prop?CH&#45;IPL</title>
<a xlink:href="javascript:parent.navigate(&#39;http://latin.omdoc.org/translations/stt_prop?CH-IPL&#39;)" xlink:title="theory http://latin.omdoc.org/translations/stt_prop?CH&#45;IPL">
<ellipse fill="none" stroke="black" cx="132.78" cy="-34" rx="39.9464" ry="18"/>
<text text-anchor="middle" x="132.78" y="-30.3" font-family="Times New Roman,serif" font-size="14.00">CH&#45;IPL</text>
</a>
</g>
<!-- http://latin.omdoc.org/type_theories?TypesTerms -->
<g id="node3" class="node"><title>http://latin.omdoc.org/type_theories?TypesTerms</title>
<a xlink:href="javascript:parent.navigate(&#39;http://latin.omdoc.org/type_theories?TypesTerms&#39;)" xlink:title="theory http://latin.omdoc.org/type_theories?TypesTerms">
<ellipse fill="gray" stroke="black" cx="132.78" cy="-196" rx="57.2927" ry="18"/>
<text text-anchor="middle" x="132.78" y="-192.3" font-family="Times New Roman,serif" font-size="14.00">TypesTerms</text>
</a>
</g>
<!-- http://latin.omdoc.org/type_theories?TypesTerms&#45;&gt;http://latin.omdoc.org/translations/stt_prop?CH&#45;IPL -->
<g id="edge3" class="edge"><title>http://latin.omdoc.org/type_theories?TypesTerms&#45;&gt;http://latin.omdoc.org/translations/stt_prop?CH&#45;IPL</title>
<a xlink:href="javascript:parent.navigate(&#39;http://latin.omdoc.org/translations/stt_prop?TypesTerms&#39;)" xlink:title="view http://latin.omdoc.org/translations/stt_prop?TypesTerms">
<path fill="none" stroke="blue" stroke-dasharray="5,2" d="M131.78,-177.877C131.78,-150.354 131.78,-96.0083 131.78,-62.8486"/>
<path fill="none" stroke="blue" stroke-dasharray="5,2" d="M133.78,-177.877C133.78,-150.354 133.78,-96.0083 133.78,-62.8486"/>
<polygon fill="blue" stroke="blue" points="136.28,-62.4847 132.78,-52.4847 129.28,-62.4848 136.28,-62.4847"/>
</a>
<a xlink:href="javascript:parent.navigate(&#39;http://latin.omdoc.org/translations/stt_prop?TypesTerms&#39;)" xlink:title="TypesTerms">
<text text-anchor="middle" x="168.78" y="-118.3" font-family="Times New Roman,serif" font-size="14.00">TypesTerms</text>
</a>
</g>
<!-- http://latin.omdoc.org/type_theories?Product -->
<g id="node5" class="node"><title>http://latin.omdoc.org/type_theories?Product</title>
<a xlink:href="javascript:parent.navigate(&#39;http://latin.omdoc.org/type_theories?Product&#39;)" xlink:title="theory http://latin.omdoc.org/type_theories?Product">
<ellipse fill="gray" stroke="black" cx="56.7798" cy="-122" rx="39.9464" ry="18"/>
<text text-anchor="middle" x="56.7798" y="-118.3" font-family="Times New Roman,serif" font-size="14.00">Product</text>
</a>
</g>
<!-- http://latin.omdoc.org/type_theories?TypesTerms&#45;&gt;http://latin.omdoc.org/type_theories?Product -->
<g id="edge21" class="edge"><title>http://latin.omdoc.org/type_theories?TypesTerms&#45;&gt;http://latin.omdoc.org/type_theories?Product</title>
<a xlink:title="include">
<path fill="none" stroke="black" d="M115.534,-178.662C105.215,-168.886 91.9501,-156.319 80.6364,-145.601"/>
<polygon fill="black" stroke="black" points="82.8423,-142.87 73.1756,-138.533 78.0281,-147.951 82.8423,-142.87"/>
</a>
</g>
<!-- http://latin.omdoc.org/type_theories?SimpTypes -->
<g id="node7" class="node"><title>http://latin.omdoc.org/type_theories?SimpTypes</title>
<a xlink:href="javascript:parent.navigate(&#39;http://latin.omdoc.org/type_theories?SimpTypes&#39;)" xlink:title="theory http://latin.omdoc.org/type_theories?SimpTypes">
<ellipse fill="gray" stroke="black" cx="275.78" cy="-122" rx="52.4675" ry="18"/>
<text text-anchor="middle" x="275.78" y="-118.3" font-family="Times New Roman,serif" font-size="14.00">SimpTypes</text>
</a>
</g>
<!-- http://latin.omdoc.org/type_theories?TypesTerms&#45;&gt;http://latin.omdoc.org/type_theories?SimpTypes -->
<g id="edge23" class="edge"><title>http://latin.omdoc.org/type_theories?TypesTerms&#45;&gt;http://latin.omdoc.org/type_theories?SimpTypes</title>
<a xlink:title="include">
<path fill="none" stroke="black" d="M161.718,-180.43C183.765,-169.329 214.299,-153.955 238.228,-141.907"/>
<polygon fill="black" stroke="black" points="240.015,-144.926 247.373,-137.303 236.867,-138.674 240.015,-144.926"/>
</a>
</g>
<!-- http://latin.omdoc.org/type_theories?Product&#45;&gt;http://latin.omdoc.org/translations/stt_prop?CH&#45;IPL -->
<g id="edge5" class="edge"><title>http://latin.omdoc.org/type_theories?Product&#45;&gt;http://latin.omdoc.org/translations/stt_prop?CH&#45;IPL</title>
<a xlink:href="javascript:parent.navigate(&#39;http://latin.omdoc.org/translations/stt_prop?Product&#39;)" xlink:title="view http://latin.omdoc.org/translations/stt_prop?Product">
<path fill="none" stroke="blue" stroke-dasharray="5,2" d="M57.9526,-103.724C60.0465,-92.9532 64.0668,-79.4356 71.9981,-69.3764 78.0761,-61.8023 86.0108,-55.6445 94.2629,-50.6037"/>
<path fill="none" stroke="blue" stroke-dasharray="5,2" d="M59.916,-104.105C61.9635,-93.5234 65.9838,-80.0057 73.5615,-70.6236 79.3023,-63.3823 87.237,-57.2246 95.3044,-52.3111"/>
<polygon fill="blue" stroke="blue" points="96.6129,-54.4448 103.641,-46.5167 93.2029,-48.3315 96.6129,-54.4448"/>
</a>
<a xlink:href="javascript:parent.navigate(&#39;http://latin.omdoc.org/translations/stt_prop?Product&#39;)" xlink:title="Product">
<text text-anchor="middle" x="95.7798" y="-74.3" font-family="Times New Roman,serif" font-size="14.00">Product</text>
</a>
</g>
<!-- http://latin.omdoc.org/type_theories?SimpTypes&#45;&gt;http://latin.omdoc.org/translations/stt_prop?CH&#45;IPL -->
<g id="edge7" class="edge"><title>http://latin.omdoc.org/type_theories?SimpTypes&#45;&gt;http://latin.omdoc.org/translations/stt_prop?CH&#45;IPL</title>
<a xlink:href="javascript:parent.navigate(&#39;http://latin.omdoc.org/translations/stt_prop?SimpTypes&#39;)" xlink:title="view http://latin.omdoc.org/translations/stt_prop?SimpTypes">
<path fill="none" stroke="blue" stroke-dasharray="5,2" d="M250.356,-106.877C226.448,-92.4987 190.23,-70.7173 164.21,-55.0689"/>
<path fill="none" stroke="blue" stroke-dasharray="5,2" d="M251.386,-105.163C227.479,-90.7848 191.261,-69.0033 165.241,-53.355"/>
<polygon fill="blue" stroke="blue" points="166.357,-51.1093 155.984,-48.9549 162.75,-57.1081 166.357,-51.1093"/>
</a>
<a xlink:href="javascript:parent.navigate(&#39;http://latin.omdoc.org/translations/stt_prop?SimpTypes&#39;)" xlink:title="SimpTypes">
<text text-anchor="middle" x="250.28" y="-74.3" font-family="Times New Roman,serif" font-size="14.00">SimpTypes</text>
</a>
</g>
<!-- http://latin.omdoc.org/logics/proof_theory?IPL -->
<g id="node9" class="node"><title>http://latin.omdoc.org/logics/proof_theory?IPL</title>
<a xlink:href="javascript:parent.navigate(&#39;http://latin.omdoc.org/logics/proof_theory?IPL&#39;)" xlink:title="theory http://latin.omdoc.org/logics/proof_theory?IPL">
<ellipse fill="gray" stroke="black" cx="328.78" cy="-196" rx="27" ry="18"/>
<text text-anchor="middle" x="328.78" y="-192.3" font-family="Times New Roman,serif" font-size="14.00">IPL</text>
</a>
</g>
<!-- http://latin.omdoc.org/logics/proof_theory?IPL&#45;&gt;http://latin.omdoc.org/translations/stt_prop?CH&#45;IPL -->
<g id="edge9" class="edge"><title>http://latin.omdoc.org/logics/proof_theory?IPL&#45;&gt;http://latin.omdoc.org/translations/stt_prop?CH&#45;IPL</title>
<a xlink:title="include">
<path fill="none" stroke="black" d="M335.384,-178.482C341.904,-159.38 349.244,-127.549 336.78,-104 324.208,-80.2486 311.422,-80.72 286.78,-70 253.01,-55.3095 212.283,-46.3995 181.195,-41.2484"/>
<polygon fill="black" stroke="black" points="181.47,-37.7484 171.046,-39.6426 180.376,-44.6624 181.47,-37.7484"/>
</a>
</g>
<!-- http://cds.omdoc.org/urtheories?LF -->
<g id="node11" class="node"><title>http://cds.omdoc.org/urtheories?LF</title>
<a xlink:href="javascript:parent.navigate(&#39;http://cds.omdoc.org/urtheories?LF&#39;)" xlink:title="theory http://cds.omdoc.org/urtheories?LF">
<ellipse fill="gray" stroke="black" cx="132.78" cy="-270" rx="27" ry="18"/>
<text text-anchor="middle" x="132.78" y="-266.3" font-family="Times New Roman,serif" font-size="14.00">LF</text>
</a>
</g>
<!-- http://cds.omdoc.org/urtheories?LF&#45;&gt;http://latin.omdoc.org/translations/stt_prop?CH&#45;IPL -->
<g id="edge11" class="edge"><title>http://cds.omdoc.org/urtheories?LF&#45;&gt;http://latin.omdoc.org/translations/stt_prop?CH&#45;IPL</title>
<a xlink:title="meta">
<path fill="none" stroke="green" d="M112.504,-257.822C68.9922,-232.301 -26.6923,-167.07 7.77981,-104 24.2821,-73.8075 59.6391,-56.0708 88.5522,-46.159"/>
<polygon fill="green" stroke="green" points="89.6293,-49.4892 98.0739,-43.0908 87.4824,-42.8265 89.6293,-49.4892"/>
</a>
</g>
<!-- http://cds.omdoc.org/urtheories?LF&#45;&gt;http://latin.omdoc.org/type_theories?TypesTerms -->
<g id="edge13" class="edge"><title>http://cds.omdoc.org/urtheories?LF&#45;&gt;http://latin.omdoc.org/type_theories?TypesTerms</title>
<a xlink:title="meta">
<path fill="none" stroke="green" d="M132.78,-251.937C132.78,-243.807 132.78,-233.876 132.78,-224.705"/>
<polygon fill="green" stroke="green" points="136.28,-224.441 132.78,-214.441 129.28,-224.441 136.28,-224.441"/>
</a>
</g>
<!-- http://cds.omdoc.org/urtheories?LF&#45;&gt;http://latin.omdoc.org/type_theories?Product -->
<g id="edge15" class="edge"><title>http://cds.omdoc.org/urtheories?LF&#45;&gt;http://latin.omdoc.org/type_theories?Product</title>
<a xlink:title="meta">
<path fill="none" stroke="green" d="M112.401,-257.889C97.0995,-248.377 77.0813,-233.186 66.7798,-214 56.2978,-194.478 54.2668,-169.231 54.5908,-150.283"/>
<polygon fill="green" stroke="green" points="58.091,-150.346 54.9909,-140.215 51.0966,-150.068 58.091,-150.346"/>
</a>
</g>
<!-- http://cds.omdoc.org/urtheories?LF&#45;&gt;http://latin.omdoc.org/type_theories?SimpTypes -->
<g id="edge17" class="edge"><title>http://cds.omdoc.org/urtheories?LF&#45;&gt;http://latin.omdoc.org/type_theories?SimpTypes</title>
<a xlink:title="meta">
<path fill="none" stroke="green" d="M150.022,-255.978C163.766,-245.288 183.218,-229.445 198.78,-214 220.052,-192.887 241.898,-166.539 256.862,-147.636"/>
<polygon fill="green" stroke="green" points="259.809,-149.55 263.226,-139.521 254.301,-145.23 259.809,-149.55"/>
</a>
</g>
<!-- http://cds.omdoc.org/urtheories?LF&#45;&gt;http://latin.omdoc.org/logics/proof_theory?IPL -->
<g id="edge19" class="edge"><title>http://cds.omdoc.org/urtheories?LF&#45;&gt;http://latin.omdoc.org/logics/proof_theory?IPL</title>
<a xlink:title="meta">
<path fill="none" stroke="green" d="M158.363,-263.839C184.615,-258.121 226.371,-247.848 260.78,-234 274.491,-228.482 288.97,-220.877 301.028,-213.997"/>
<polygon fill="green" stroke="green" points="302.85,-216.986 309.723,-208.923 299.322,-210.94 302.85,-216.986"/>
</a>
</g>
</g>
</svg>
