<?xml version="1.0" encoding="UTF-8" standalone="no"?>
<!DOCTYPE svg PUBLIC "-//W3C//DTD SVG 1.1//EN"
 "http://www.w3.org/Graphics/SVG/1.1/DTD/svg11.dtd">
<!-- Generated by graphviz version 2.28.0 (20110507.0327)
 -->
<!-- Title: MMT Pages: 1 -->
<svg
 viewBox="0.00 0.00 640.00 294.00" xmlns="http://www.w3.org/2000/svg" xmlns:xlink="http://www.w3.org/1999/xlink">
<g id="graph1" class="graph" transform="scale(1 1) rotate(0) translate(4 290)">
<title>MMT</title>
<polygon fill="white" stroke="white" points="-4,5 -4,-290 637,-290 637,5 -4,5"/>
<!-- http://latin.omdoc.org/logics/proof_theory?NEG -->
<g id="node2" class="node"><title>http://latin.omdoc.org/logics/proof_theory?NEG</title>
<a xlink:href="http://latin.omdoc.org/logics/proof_theory?NEG" class="graphtheory">
<ellipse fill="gray" stroke="black" cx="211" cy="-194" rx="29.3722" ry="18"/>
<text text-anchor="middle" x="211" y="-190.3" font-family="Times New Roman,serif" font-size="14.00">NEG</text>
</a>
</g>
<!-- http://latin.omdoc.org/foundations/hol?SFOL&#45;Pf -->
<g id="node3" class="node"><title>http://latin.omdoc.org/foundations/hol?SFOL&#45;Pf</title>
<a xlink:href="http://latin.omdoc.org/foundations/hol?SFOL-Pf" class="graphtheory">
<ellipse fill="gray" stroke="black" cx="336" cy="-18" rx="44.271" ry="18"/>
<text text-anchor="middle" x="336" y="-14.3" font-family="Times New Roman,serif" font-size="14.00">SFOL&#45;Pf</text>
</a>
</g>
<!-- http://latin.omdoc.org/logics/proof_theory?NEG&#45;&gt;http://latin.omdoc.org/foundations/hol?SFOL&#45;Pf -->
<g id="edge3" class="edge"><title>http://latin.omdoc.org/logics/proof_theory?NEG&#45;&gt;http://latin.omdoc.org/foundations/hol?SFOL&#45;Pf</title>
<a xlink:href="http://latin.omdoc.org/translations/prop_hol?NEGPF" class="graphview">
<path fill="none" stroke="black" d="M207.975,-175.885C205.012,-153.788 203.094,-114.975 220,-88 236.441,-61.7672 266.809,-44.2332 292.35,-33.4064"/>
<polygon fill="black" stroke="black" points="293.891,-36.5592 301.863,-29.5811 291.279,-30.0645 293.891,-36.5592"/>
</a>
<a xlink:href="http://latin.omdoc.org/translations/prop_hol?NEGPF" class="NEGPF">
<text text-anchor="middle" x="243" y="-102.3" font-family="Times New Roman,serif" font-size="14.00">NEGPF</text>
</a>
</g>
<!-- http://latin.omdoc.org/logics/proof_theory?IPL -->
<g id="node15" class="node"><title>http://latin.omdoc.org/logics/proof_theory?IPL</title>
<a xlink:href="http://latin.omdoc.org/logics/proof_theory?IPL" class="graphtheory">
<ellipse fill="gray" stroke="black" cx="302" cy="-106" rx="27" ry="18"/>
<text text-anchor="middle" x="302" y="-102.3" font-family="Times New Roman,serif" font-size="14.00">IPL</text>
</a>
</g>
<!-- http://latin.omdoc.org/logics/proof_theory?NEG&#45;&gt;http://latin.omdoc.org/logics/proof_theory?IPL -->
<g id="edge41" class="edge"><title>http://latin.omdoc.org/logics/proof_theory?NEG&#45;&gt;http://latin.omdoc.org/logics/proof_theory?IPL</title>
<a class="graphinclude">
<path fill="none" stroke="black" d="M226.437,-178.411C240.992,-164.656 262.976,-143.88 279.485,-128.278"/>
<polygon fill="black" stroke="black" points="282.229,-130.501 287.093,-121.088 277.421,-125.413 282.229,-130.501"/>
</a>
</g>
<!-- http://latin.omdoc.org/logics/proof_theory?Falsity -->
<g id="node5" class="node"><title>http://latin.omdoc.org/logics/proof_theory?Falsity</title>
<a xlink:href="http://latin.omdoc.org/logics/proof_theory?Falsity" class="graphtheory">
<ellipse fill="gray" stroke="black" cx="121" cy="-194" rx="34.1708" ry="18"/>
<text text-anchor="middle" x="121" y="-190.3" font-family="Times New Roman,serif" font-size="14.00">Falsity</text>
</a>
</g>
<!-- http://latin.omdoc.org/logics/proof_theory?Falsity&#45;&gt;http://latin.omdoc.org/foundations/hol?SFOL&#45;Pf -->
<g id="edge5" class="edge"><title>http://latin.omdoc.org/logics/proof_theory?Falsity&#45;&gt;http://latin.omdoc.org/foundations/hol?SFOL&#45;Pf</title>
<a xlink:href="http://latin.omdoc.org/translations/prop_hol?FalsityPF" class="graphview">
<path fill="none" stroke="black" d="M121.27,-175.955C122.52,-153.219 127.963,-112.944 150,-88 183.917,-49.6087 241.209,-32.5364 283.265,-24.9698"/>
<polygon fill="black" stroke="black" points="284.05,-28.3872 293.336,-23.2854 282.895,-21.4831 284.05,-28.3872"/>
</a>
<a xlink:href="http://latin.omdoc.org/translations/prop_hol?FalsityPF" class="FalsityPF">
<text text-anchor="middle" x="177" y="-102.3" font-family="Times New Roman,serif" font-size="14.00">FalsityPF</text>
</a>
</g>
<!-- http://latin.omdoc.org/logics/proof_theory?Falsity&#45;&gt;http://latin.omdoc.org/logics/proof_theory?IPL -->
<g id="edge39" class="edge"><title>http://latin.omdoc.org/logics/proof_theory?Falsity&#45;&gt;http://latin.omdoc.org/logics/proof_theory?IPL</title>
<a class="graphinclude">
<path fill="none" stroke="black" d="M145.788,-181.222C178.444,-165.706 235.867,-138.423 271.253,-121.609"/>
<polygon fill="black" stroke="black" points="273.08,-124.616 280.611,-117.163 270.076,-118.293 273.08,-124.616"/>
</a>
</g>
<!-- http://latin.omdoc.org/logics/proof_theory?CONJ -->
<g id="node7" class="node"><title>http://latin.omdoc.org/logics/proof_theory?CONJ</title>
<a xlink:href="http://latin.omdoc.org/logics/proof_theory?CONJ" class="graphtheory">
<ellipse fill="gray" stroke="black" cx="33" cy="-194" rx="33.1991" ry="18"/>
<text text-anchor="middle" x="33" y="-190.3" font-family="Times New Roman,serif" font-size="14.00">CONJ</text>
</a>
</g>
<!-- http://latin.omdoc.org/logics/proof_theory?CONJ&#45;&gt;http://latin.omdoc.org/foundations/hol?SFOL&#45;Pf -->
<g id="edge7" class="edge"><title>http://latin.omdoc.org/logics/proof_theory?CONJ&#45;&gt;http://latin.omdoc.org/foundations/hol?SFOL&#45;Pf</title>
<a xlink:href="http://latin.omdoc.org/translations/prop_hol?CONJPF" class="graphview">
<path fill="none" stroke="black" d="M35.4762,-175.697C39.6498,-152.669 50.2022,-112.065 75,-88 130.369,-34.2684 222.451,-21.1082 281.136,-18.5596"/>
<polygon fill="black" stroke="black" points="281.456,-22.0507 291.33,-18.2088 281.216,-15.0548 281.456,-22.0507"/>
</a>
<a xlink:href="http://latin.omdoc.org/translations/prop_hol?CONJPF" class="CONJPF">
<text text-anchor="middle" x="101" y="-102.3" font-family="Times New Roman,serif" font-size="14.00">CONJPF</text>
</a>
</g>
<!-- http://latin.omdoc.org/logics/proof_theory?CONJ&#45;&gt;http://latin.omdoc.org/logics/proof_theory?IPL -->
<g id="edge37" class="edge"><title>http://latin.omdoc.org/logics/proof_theory?CONJ&#45;&gt;http://latin.omdoc.org/logics/proof_theory?IPL</title>
<a class="graphinclude">
<path fill="none" stroke="black" d="M59.5374,-182.616C65.5771,-180.353 71.9863,-178.03 78,-176 128.095,-159.091 141.079,-156.231 192,-142 222.523,-133.47 230.957,-134.093 261,-124 264.141,-122.945 267.383,-121.764 270.605,-120.531"/>
<polygon fill="black" stroke="black" points="272.097,-123.704 280.083,-116.741 269.498,-117.204 272.097,-123.704"/>
</a>
</g>
<!-- http://latin.omdoc.org/logics/proof_theory?Truth -->
<g id="node9" class="node"><title>http://latin.omdoc.org/logics/proof_theory?Truth</title>
<a xlink:href="http://latin.omdoc.org/logics/proof_theory?Truth" class="graphtheory">
<ellipse fill="gray" stroke="black" cx="365" cy="-194" rx="30.3206" ry="18"/>
<text text-anchor="middle" x="365" y="-190.3" font-family="Times New Roman,serif" font-size="14.00">Truth</text>
</a>
</g>
<!-- http://latin.omdoc.org/logics/proof_theory?Truth&#45;&gt;http://latin.omdoc.org/foundations/hol?SFOL&#45;Pf -->
<g id="edge9" class="edge"><title>http://latin.omdoc.org/logics/proof_theory?Truth&#45;&gt;http://latin.omdoc.org/foundations/hol?SFOL&#45;Pf</title>
<a xlink:href="http://latin.omdoc.org/translations/prop_hol?TruthPF" class="graphview">
<path fill="none" stroke="black" d="M364.933,-175.585C364.455,-148.965 362.034,-96.7411 351,-54 350.256,-51.1195 349.311,-48.1702 348.257,-45.2654"/>
<polygon fill="black" stroke="black" points="351.391,-43.6806 344.395,-35.7246 344.903,-46.3072 351.391,-43.6806"/>
</a>
<a xlink:href="http://latin.omdoc.org/translations/prop_hol?TruthPF" class="TruthPF">
<text text-anchor="middle" x="387" y="-102.3" font-family="Times New Roman,serif" font-size="14.00">TruthPF</text>
</a>
</g>
<!-- http://latin.omdoc.org/logics/proof_theory?Truth&#45;&gt;http://latin.omdoc.org/logics/proof_theory?IPL -->
<g id="edge35" class="edge"><title>http://latin.omdoc.org/logics/proof_theory?Truth&#45;&gt;http://latin.omdoc.org/logics/proof_theory?IPL</title>
<a class="graphinclude">
<path fill="none" stroke="black" d="M345.629,-180.045C337.803,-174.061 329.179,-166.416 323,-158 317.682,-150.757 313.441,-141.971 310.202,-133.746"/>
<polygon fill="black" stroke="black" points="313.422,-132.358 306.743,-124.134 306.836,-134.728 313.422,-132.358"/>
</a>
</g>
<!-- http://latin.omdoc.org/logics/proof_theory?DISJ -->
<g id="node11" class="node"><title>http://latin.omdoc.org/logics/proof_theory?DISJ</title>
<a xlink:href="http://latin.omdoc.org/logics/proof_theory?DISJ" class="graphtheory">
<ellipse fill="gray" stroke="black" cx="527" cy="-194" rx="28.3955" ry="18"/>
<text text-anchor="middle" x="527" y="-190.3" font-family="Times New Roman,serif" font-size="14.00">DISJ</text>
</a>
</g>
<!-- http://latin.omdoc.org/logics/proof_theory?DISJ&#45;&gt;http://latin.omdoc.org/foundations/hol?SFOL&#45;Pf -->
<g id="edge11" class="edge"><title>http://latin.omdoc.org/logics/proof_theory?DISJ&#45;&gt;http://latin.omdoc.org/foundations/hol?SFOL&#45;Pf</title>
<a xlink:href="http://latin.omdoc.org/translations/prop_hol?DISJPF" class="graphview">
<path fill="none" stroke="black" d="M523.099,-176.03C517.115,-153.38 503.684,-113.202 479,-88 452.197,-60.6342 412.357,-42.6468 381.532,-31.9196"/>
<polygon fill="black" stroke="black" points="382.462,-28.5402 371.868,-28.6892 380.242,-35.1791 382.462,-28.5402"/>
</a>
<a xlink:href="http://latin.omdoc.org/translations/prop_hol?DISJPF" class="DISJPF">
<text text-anchor="middle" x="525.5" y="-102.3" font-family="Times New Roman,serif" font-size="14.00">DISJPF</text>
</a>
</g>
<!-- http://latin.omdoc.org/logics/proof_theory?DISJ&#45;&gt;http://latin.omdoc.org/logics/proof_theory?IPL -->
<g id="edge33" class="edge"><title>http://latin.omdoc.org/logics/proof_theory?DISJ&#45;&gt;http://latin.omdoc.org/logics/proof_theory?IPL</title>
<a class="graphinclude">
<path fill="none" stroke="black" d="M503.948,-183.508C497.807,-181.023 491.166,-178.376 485,-176 422.286,-151.833 405.612,-148.432 343,-124 340.079,-122.86 337.051,-121.653 334.024,-120.43"/>
<polygon fill="black" stroke="black" points="335.068,-117.075 324.488,-116.524 332.415,-123.553 335.068,-117.075"/>
</a>
</g>
<!-- http://latin.omdoc.org/logics/proof_theory?Base -->
<g id="node13" class="node"><title>http://latin.omdoc.org/logics/proof_theory?Base</title>
<a xlink:href="http://latin.omdoc.org/logics/proof_theory?Base" class="graphtheory">
<ellipse fill="gray" stroke="black" cx="600" cy="-268" rx="28.3955" ry="18"/>
<text text-anchor="middle" x="600" y="-264.3" font-family="Times New Roman,serif" font-size="14.00">Base</text>
</a>
</g>
<!-- http://latin.omdoc.org/logics/proof_theory?Base&#45;&gt;http://latin.omdoc.org/logics/proof_theory?NEG -->
<g id="edge31" class="edge"><title>http://latin.omdoc.org/logics/proof_theory?Base&#45;&gt;http://latin.omdoc.org/logics/proof_theory?NEG</title>
<a class="graphinclude">
<path fill="none" stroke="black" d="M573.262,-262.051C505.416,-249.493 326.43,-216.365 248.333,-201.91"/>
<polygon fill="black" stroke="black" points="248.913,-198.458 238.443,-200.079 247.639,-205.341 248.913,-198.458"/>
</a>
</g>
<!-- http://latin.omdoc.org/logics/proof_theory?Base&#45;&gt;http://latin.omdoc.org/foundations/hol?SFOL&#45;Pf -->
<g id="edge13" class="edge"><title>http://latin.omdoc.org/logics/proof_theory?Base&#45;&gt;http://latin.omdoc.org/foundations/hol?SFOL&#45;Pf</title>
<a xlink:href="http://latin.omdoc.org/translations/prop_hol?BasePF" class="graphview">
<path fill="none" stroke="black" d="M600.355,-249.765C600.131,-214.699 594.655,-134.447 552,-88 510.485,-42.7938 439.42,-27.0581 390.198,-21.6639"/>
<polygon fill="black" stroke="black" points="390.339,-18.1609 380.044,-20.6629 389.652,-25.1272 390.339,-18.1609"/>
</a>
<a xlink:href="http://latin.omdoc.org/translations/prop_hol?BasePF" class="BasePF">
<text text-anchor="middle" x="610" y="-146.3" font-family="Times New Roman,serif" font-size="14.00">BasePF</text>
</a>
</g>
<!-- http://latin.omdoc.org/logics/proof_theory?Base&#45;&gt;http://latin.omdoc.org/logics/proof_theory?Falsity -->
<g id="edge25" class="edge"><title>http://latin.omdoc.org/logics/proof_theory?Base&#45;&gt;http://latin.omdoc.org/logics/proof_theory?Falsity</title>
<a class="graphinclude">
<path fill="none" stroke="black" d="M571.958,-265.218C503.229,-260.456 321.189,-245.455 173,-212 168.159,-210.907 163.128,-209.552 158.186,-208.088"/>
<polygon fill="black" stroke="black" points="158.846,-204.627 148.257,-204.977 156.753,-211.307 158.846,-204.627"/>
</a>
</g>
<!-- http://latin.omdoc.org/logics/proof_theory?Base&#45;&gt;http://latin.omdoc.org/logics/proof_theory?CONJ -->
<g id="edge29" class="edge"><title>http://latin.omdoc.org/logics/proof_theory?Base&#45;&gt;http://latin.omdoc.org/logics/proof_theory?CONJ</title>
<a class="graphinclude">
<path fill="none" stroke="black" d="M571.556,-266.58C492.283,-264.862 262.567,-256.138 78,-212 74.7511,-211.223 71.4188,-210.274 68.1085,-209.225"/>
<polygon fill="black" stroke="black" points="68.9439,-205.811 58.3492,-205.854 66.6582,-212.427 68.9439,-205.811"/>
</a>
</g>
<!-- http://latin.omdoc.org/logics/proof_theory?Base&#45;&gt;http://latin.omdoc.org/logics/proof_theory?Truth -->
<g id="edge23" class="edge"><title>http://latin.omdoc.org/logics/proof_theory?Base&#45;&gt;http://latin.omdoc.org/logics/proof_theory?Truth</title>
<a class="graphinclude">
<path fill="none" stroke="black" d="M574.458,-259.963C538.327,-249.9 470.305,-230.56 413,-212 408.721,-210.614 404.247,-209.108 399.825,-207.583"/>
<polygon fill="black" stroke="black" points="400.916,-204.257 390.322,-204.258 398.604,-210.864 400.916,-204.257"/>
</a>
</g>
<!-- http://latin.omdoc.org/logics/proof_theory?Base&#45;&gt;http://latin.omdoc.org/logics/proof_theory?DISJ -->
<g id="edge27" class="edge"><title>http://latin.omdoc.org/logics/proof_theory?Base&#45;&gt;http://latin.omdoc.org/logics/proof_theory?DISJ</title>
<a class="graphinclude">
<path fill="none" stroke="black" d="M585.227,-252.43C574.838,-242.183 560.756,-228.294 549.043,-216.741"/>
<polygon fill="black" stroke="black" points="551.328,-214.079 541.751,-209.549 546.413,-219.063 551.328,-214.079"/>
</a>
</g>
<!-- http://latin.omdoc.org/logics/proof_theory?IMP -->
<g id="node17" class="node"><title>http://latin.omdoc.org/logics/proof_theory?IMP</title>
<a xlink:href="http://latin.omdoc.org/logics/proof_theory?IMP" class="graphtheory">
<ellipse fill="gray" stroke="black" cx="449" cy="-194" rx="27" ry="18"/>
<text text-anchor="middle" x="449" y="-190.3" font-family="Times New Roman,serif" font-size="14.00">IMP</text>
</a>
</g>
<!-- http://latin.omdoc.org/logics/proof_theory?Base&#45;&gt;http://latin.omdoc.org/logics/proof_theory?IMP -->
<g id="edge21" class="edge"><title>http://latin.omdoc.org/logics/proof_theory?Base&#45;&gt;http://latin.omdoc.org/logics/proof_theory?IMP</title>
<a class="graphinclude">
<path fill="none" stroke="black" d="M578.043,-256.531C552.175,-244.196 509.03,-223.624 479.821,-209.696"/>
<polygon fill="black" stroke="black" points="481.027,-206.394 470.494,-205.249 478.014,-212.712 481.027,-206.394"/>
</a>
</g>
<!-- http://latin.omdoc.org/logics/proof_theory?IPL&#45;&gt;http://latin.omdoc.org/foundations/hol?SFOL&#45;Pf -->
<g id="edge15" class="edge"><title>http://latin.omdoc.org/logics/proof_theory?IPL&#45;&gt;http://latin.omdoc.org/foundations/hol?SFOL&#45;Pf</title>
<a xlink:href="http://latin.omdoc.org/translations/prop_hol?IPLPF" class="graphview">
<path fill="none" stroke="black" d="M304.063,-87.9899C305.683,-77.8416 308.448,-64.8597 313,-54 314.391,-50.6807 316.104,-47.3364 317.963,-44.101"/>
<polygon fill="black" stroke="black" points="321.084,-45.7116 323.439,-35.3818 315.157,-41.9885 321.084,-45.7116"/>
</a>
<a xlink:href="http://latin.omdoc.org/translations/prop_hol?IPLPF" class="IPLPF">
<text text-anchor="middle" x="332" y="-58.3" font-family="Times New Roman,serif" font-size="14.00">IPLPF</text>
</a>
</g>
<!-- http://latin.omdoc.org/logics/proof_theory?IMP&#45;&gt;http://latin.omdoc.org/foundations/hol?SFOL&#45;Pf -->
<g id="edge17" class="edge"><title>http://latin.omdoc.org/logics/proof_theory?IMP&#45;&gt;http://latin.omdoc.org/foundations/hol?SFOL&#45;Pf</title>
<a xlink:href="http://latin.omdoc.org/translations/prop_hol?IMPPF" class="graphview">
<path fill="none" stroke="black" d="M446.351,-175.772C442.361,-153.895 433.25,-115.673 415,-88 402.45,-68.9702 383.284,-52.0527 366.974,-39.7318"/>
<polygon fill="black" stroke="black" points="368.892,-36.799 358.755,-33.721 364.76,-42.4492 368.892,-36.799"/>
</a>
<a xlink:href="http://latin.omdoc.org/translations/prop_hol?IMPPF" class="IMPPF">
<text text-anchor="middle" x="454" y="-102.3" font-family="Times New Roman,serif" font-size="14.00">IMPPF</text>
</a>
</g>
<!-- http://latin.omdoc.org/logics/proof_theory?IMP&#45;&gt;http://latin.omdoc.org/logics/proof_theory?IPL -->
<g id="edge19" class="edge"><title>http://latin.omdoc.org/logics/proof_theory?IMP&#45;&gt;http://latin.omdoc.org/logics/proof_theory?IPL</title>
<a class="graphinclude">
<path fill="none" stroke="black" d="M429.175,-181.402C403.859,-166.591 359.863,-140.852 330.836,-123.87"/>
<polygon fill="black" stroke="black" points="332.379,-120.718 321.98,-118.689 328.844,-126.76 332.379,-120.718"/>
</a>
</g>
</g>
</svg>
