<?xml version="1.0" encoding="UTF-8" standalone="no"?>
<!DOCTYPE svg PUBLIC "-//W3C//DTD SVG 1.1//EN"
 "http://www.w3.org/Graphics/SVG/1.1/DTD/svg11.dtd">
<!-- Generated by graphviz version 2.28.0 (20110507.0327)
 -->
<!-- Title: MMT Pages: 1 -->
<svg width="1107pt" height="714pt"
 viewBox="0.00 0.00 1107.00 714.00" xmlns="http://www.w3.org/2000/svg" xmlns:xlink="http://www.w3.org/1999/xlink">
<g id="graph1" class="graph" transform="scale(1 1) rotate(0) translate(4 710)">
<title>MMT</title>
<polygon fill="white" stroke="white" points="-4,5 -4,-710 1104,-710 1104,5 -4,5"/>
<g id="graph2" class="cluster"><title>cluster_local</title>
<polygon fill="none" stroke="black" points="439,-8 439,-464 1003,-464 1003,-8 439,-8"/>
</g>
<!-- http://latin.omdoc.org/math?SemiLattice -->
<g id="node2" class="node"><title>http://latin.omdoc.org/math?SemiLattice</title>
<a xlink:href="javascript:parent.navigate(&#39;http://latin.omdoc.org/math?SemiLattice&#39;)" xlink:title="theory http://latin.omdoc.org/math?SemiLattice">
<ellipse fill="none" stroke="black" cx="584" cy="-438" rx="52.9443" ry="18"/>
<text text-anchor="middle" x="584" y="-434.3" font-family="Times New Roman,serif" font-size="14.00">SemiLattice</text>
</a>
</g>
<!-- http://latin.omdoc.org/math?Lattice -->
<g id="node12" class="node"><title>http://latin.omdoc.org/math?Lattice</title>
<a xlink:href="javascript:parent.navigate(&#39;http://latin.omdoc.org/math?Lattice&#39;)" xlink:title="theory http://latin.omdoc.org/math?Lattice">
<ellipse fill="none" stroke="black" cx="771" cy="-364" rx="35.1455" ry="18"/>
<text text-anchor="middle" x="771" y="-360.3" font-family="Times New Roman,serif" font-size="14.00">Lattice</text>
</a>
</g>
<!-- http://latin.omdoc.org/math?SemiLattice&#45;&gt;http://latin.omdoc.org/math?Lattice -->
<g id="edge57" class="edge"><title>http://latin.omdoc.org/math?SemiLattice&#45;&gt;http://latin.omdoc.org/math?Lattice</title>
<a xlink:title="include">
<path fill="none" stroke="black" d="M617.967,-424.028C636.806,-416.871 660.671,-407.865 682,-400 704.16,-391.829 710.052,-390.723 732,-382 733.373,-381.454 734.769,-380.89 736.177,-380.314"/>
<polygon fill="black" stroke="black" points="737.641,-383.495 745.507,-376.397 734.931,-377.041 737.641,-383.495"/>
</a>
</g>
<!-- http://latin.omdoc.org/math?HeytingAlgebra -->
<g id="node3" class="node"><title>http://latin.omdoc.org/math?HeytingAlgebra</title>
<a xlink:href="javascript:parent.navigate(&#39;http://latin.omdoc.org/math?HeytingAlgebra&#39;)" xlink:title="theory http://latin.omdoc.org/math?HeytingAlgebra">
<ellipse fill="none" stroke="black" cx="730" cy="-182" rx="66.4165" ry="18"/>
<text text-anchor="middle" x="730" y="-178.3" font-family="Times New Roman,serif" font-size="14.00">HeytingAlgebra</text>
</a>
</g>
<!-- http://latin.omdoc.org/math?RelationAlgebra -->
<g id="node4" class="node"><title>http://latin.omdoc.org/math?RelationAlgebra</title>
<a xlink:href="javascript:parent.navigate(&#39;http://latin.omdoc.org/math?RelationAlgebra&#39;)" xlink:title="theory http://latin.omdoc.org/math?RelationAlgebra">
<ellipse fill="none" stroke="black" cx="615" cy="-34" rx="68.3417" ry="18"/>
<text text-anchor="middle" x="615" y="-30.3" font-family="Times New Roman,serif" font-size="14.00">RelationAlgebra</text>
</a>
</g>
<!-- http://latin.omdoc.org/math?OrthocomplementedLattice -->
<g id="node5" class="node"><title>http://latin.omdoc.org/math?OrthocomplementedLattice</title>
<a xlink:href="javascript:parent.navigate(&#39;http://latin.omdoc.org/math?OrthocomplementedLattice&#39;)" xlink:title="theory http://latin.omdoc.org/math?OrthocomplementedLattice">
<ellipse fill="none" stroke="black" cx="729" cy="-108" rx="109.261" ry="18"/>
<text text-anchor="middle" x="729" y="-104.3" font-family="Times New Roman,serif" font-size="14.00">OrthocomplementedLattice</text>
</a>
</g>
<!-- http://latin.omdoc.org/math?DeMorganAlgebra -->
<g id="node6" class="node"><title>http://latin.omdoc.org/math?DeMorganAlgebra</title>
<a xlink:href="javascript:parent.navigate(&#39;http://latin.omdoc.org/math?DeMorganAlgebra&#39;)" xlink:title="theory http://latin.omdoc.org/math?DeMorganAlgebra">
<ellipse fill="none" stroke="black" cx="524" cy="-108" rx="77.0154" ry="18"/>
<text text-anchor="middle" x="524" y="-104.3" font-family="Times New Roman,serif" font-size="14.00">DeMorganAlgebra</text>
</a>
</g>
<!-- http://latin.omdoc.org/math?BooleanAlgebra -->
<g id="node7" class="node"><title>http://latin.omdoc.org/math?BooleanAlgebra</title>
<a xlink:href="javascript:parent.navigate(&#39;http://latin.omdoc.org/math?BooleanAlgebra&#39;)" xlink:title="theory http://latin.omdoc.org/math?BooleanAlgebra">
<ellipse fill="none" stroke="black" cx="926" cy="-108" rx="68.3417" ry="18"/>
<text text-anchor="middle" x="926" y="-104.3" font-family="Times New Roman,serif" font-size="14.00">BooleanAlgebra</text>
</a>
</g>
<!-- http://latin.omdoc.org/math?BooleanAlgebra&#45;&gt;http://latin.omdoc.org/math?RelationAlgebra -->
<g id="edge23" class="edge"><title>http://latin.omdoc.org/math?BooleanAlgebra&#45;&gt;http://latin.omdoc.org/math?RelationAlgebra</title>
<a xlink:title="include">
<path fill="none" stroke="black" d="M876.377,-95.5118C821.421,-82.7887 732.864,-62.2869 674.297,-48.7279"/>
<polygon fill="black" stroke="black" points="674.978,-45.293 664.446,-46.4473 673.399,-52.1127 674.978,-45.293"/>
</a>
</g>
<!-- http://latin.omdoc.org/math?ModalAlgebra -->
<g id="node9" class="node"><title>http://latin.omdoc.org/math?ModalAlgebra</title>
<a xlink:href="javascript:parent.navigate(&#39;http://latin.omdoc.org/math?ModalAlgebra&#39;)" xlink:title="theory http://latin.omdoc.org/math?ModalAlgebra">
<ellipse fill="none" stroke="black" cx="764" cy="-34" rx="62.0922" ry="18"/>
<text text-anchor="middle" x="764" y="-30.3" font-family="Times New Roman,serif" font-size="14.00">ModalAlgebra</text>
</a>
</g>
<!-- http://latin.omdoc.org/math?BooleanAlgebra&#45;&gt;http://latin.omdoc.org/math?ModalAlgebra -->
<g id="edge45" class="edge"><title>http://latin.omdoc.org/math?BooleanAlgebra&#45;&gt;http://latin.omdoc.org/math?ModalAlgebra</title>
<a xlink:title="include">
<path fill="none" stroke="black" d="M892.433,-92.0816C867.231,-80.8805 832.569,-65.4753 805.606,-53.4916"/>
<polygon fill="black" stroke="black" points="806.978,-50.2711 796.418,-49.408 804.135,-56.6678 806.978,-50.2711"/>
</a>
</g>
<!-- http://latin.omdoc.org/math?DerivativeAlgebra -->
<g id="node13" class="node"><title>http://latin.omdoc.org/math?DerivativeAlgebra</title>
<a xlink:href="javascript:parent.navigate(&#39;http://latin.omdoc.org/math?DerivativeAlgebra&#39;)" xlink:title="theory http://latin.omdoc.org/math?DerivativeAlgebra">
<ellipse fill="none" stroke="black" cx="920" cy="-34" rx="75.0904" ry="18"/>
<text text-anchor="middle" x="920" y="-30.3" font-family="Times New Roman,serif" font-size="14.00">DerivativeAlgebra</text>
</a>
</g>
<!-- http://latin.omdoc.org/math?BooleanAlgebra&#45;&gt;http://latin.omdoc.org/math?DerivativeAlgebra -->
<g id="edge61" class="edge"><title>http://latin.omdoc.org/math?BooleanAlgebra&#45;&gt;http://latin.omdoc.org/math?DerivativeAlgebra</title>
<a xlink:title="include">
<path fill="none" stroke="black" d="M924.578,-89.937C923.901,-81.8072 923.073,-71.8761 922.309,-62.7047"/>
<polygon fill="black" stroke="black" points="925.772,-62.1154 921.453,-52.4407 918.796,-62.6968 925.772,-62.1154"/>
</a>
</g>
<!-- http://latin.omdoc.org/math?BoundedLattice -->
<g id="node8" class="node"><title>http://latin.omdoc.org/math?BoundedLattice</title>
<a xlink:href="javascript:parent.navigate(&#39;http://latin.omdoc.org/math?BoundedLattice&#39;)" xlink:title="theory http://latin.omdoc.org/math?BoundedLattice">
<ellipse fill="none" stroke="black" cx="813" cy="-290" rx="68.3664" ry="18"/>
<text text-anchor="middle" x="813" y="-286.3" font-family="Times New Roman,serif" font-size="14.00">BoundedLattice</text>
</a>
</g>
<!-- http://latin.omdoc.org/math?BoundedLattice&#45;&gt;http://latin.omdoc.org/math?HeytingAlgebra -->
<g id="edge19" class="edge"><title>http://latin.omdoc.org/math?BoundedLattice&#45;&gt;http://latin.omdoc.org/math?HeytingAlgebra</title>
<a xlink:title="include">
<path fill="none" stroke="black" d="M815.791,-271.869C817.353,-256.368 817.135,-233.639 806,-218 800.617,-210.44 793.187,-204.473 785.067,-199.775"/>
<polygon fill="black" stroke="black" points="786.546,-196.601 776.05,-195.161 783.357,-202.832 786.546,-196.601"/>
</a>
</g>
<!-- http://latin.omdoc.org/math?ComplementedLattice -->
<g id="node10" class="node"><title>http://latin.omdoc.org/math?ComplementedLattice</title>
<a xlink:href="javascript:parent.navigate(&#39;http://latin.omdoc.org/math?ComplementedLattice&#39;)" xlink:title="theory http://latin.omdoc.org/math?ComplementedLattice">
<ellipse fill="none" stroke="black" cx="905" cy="-182" rx="90.0136" ry="18"/>
<text text-anchor="middle" x="905" y="-178.3" font-family="Times New Roman,serif" font-size="14.00">ComplementedLattice</text>
</a>
</g>
<!-- http://latin.omdoc.org/math?BoundedLattice&#45;&gt;http://latin.omdoc.org/math?ComplementedLattice -->
<g id="edge49" class="edge"><title>http://latin.omdoc.org/math?BoundedLattice&#45;&gt;http://latin.omdoc.org/math?ComplementedLattice</title>
<a xlink:title="include">
<path fill="none" stroke="black" d="M824.126,-272.206C834.295,-257.342 850.125,-235.374 866,-218 869.515,-214.153 873.41,-210.275 877.338,-206.573"/>
<polygon fill="black" stroke="black" points="879.816,-209.05 884.843,-199.724 875.097,-203.879 879.816,-209.05"/>
</a>
</g>
<!-- http://latin.omdoc.org/math?ComplementedLattice&#45;&gt;http://latin.omdoc.org/math?OrthocomplementedLattice -->
<g id="edge27" class="edge"><title>http://latin.omdoc.org/math?ComplementedLattice&#45;&gt;http://latin.omdoc.org/math?OrthocomplementedLattice</title>
<a xlink:title="include">
<path fill="none" stroke="black" d="M867.244,-165.554C840.927,-154.788 805.595,-140.334 777.238,-128.734"/>
<polygon fill="black" stroke="black" points="778.492,-125.465 767.912,-124.918 775.842,-131.944 778.492,-125.465"/>
</a>
</g>
<!-- http://latin.omdoc.org/math?ComplementedLattice&#45;&gt;http://latin.omdoc.org/math?DeMorganAlgebra -->
<g id="edge31" class="edge"><title>http://latin.omdoc.org/math?ComplementedLattice&#45;&gt;http://latin.omdoc.org/math?DeMorganAlgebra</title>
<a xlink:title="include">
<path fill="none" stroke="black" d="M841.087,-169.29C781.309,-158.289 689.558,-141.279 610,-126 603.821,-124.813 597.394,-123.566 590.962,-122.31"/>
<polygon fill="black" stroke="black" points="591.369,-118.823 580.883,-120.335 590.023,-125.693 591.369,-118.823"/>
</a>
</g>
<!-- http://latin.omdoc.org/math?ComplementedLattice&#45;&gt;http://latin.omdoc.org/math?BooleanAlgebra -->
<g id="edge35" class="edge"><title>http://latin.omdoc.org/math?ComplementedLattice&#45;&gt;http://latin.omdoc.org/math?BooleanAlgebra</title>
<a xlink:title="include">
<path fill="none" stroke="black" d="M909.977,-163.937C912.399,-155.63 915.371,-145.444 918.094,-136.108"/>
<polygon fill="black" stroke="black" points="921.473,-137.021 920.913,-126.441 914.753,-135.061 921.473,-137.021"/>
</a>
</g>
<!-- http://latin.omdoc.org/math?DistributiveLattice -->
<g id="node11" class="node"><title>http://latin.omdoc.org/math?DistributiveLattice</title>
<a xlink:href="javascript:parent.navigate(&#39;http://latin.omdoc.org/math?DistributiveLattice&#39;)" xlink:title="theory http://latin.omdoc.org/math?DistributiveLattice">
<ellipse fill="none" stroke="black" cx="726" cy="-236" rx="76.5394" ry="18"/>
<text text-anchor="middle" x="726" y="-232.3" font-family="Times New Roman,serif" font-size="14.00">DistributiveLattice</text>
</a>
</g>
<!-- http://latin.omdoc.org/math?DistributiveLattice&#45;&gt;http://latin.omdoc.org/math?BooleanAlgebra -->
<g id="edge37" class="edge"><title>http://latin.omdoc.org/math?DistributiveLattice&#45;&gt;http://latin.omdoc.org/math?BooleanAlgebra</title>
<a xlink:title="include">
<path fill="none" stroke="black" d="M679.435,-221.673C669.373,-216.551 659.972,-209.543 654,-200 645.512,-186.437 643.838,-176.358 654,-164 709.527,-96.4738 761.374,-143.641 847,-126 852.81,-124.803 858.855,-123.538 864.9,-122.259"/>
<polygon fill="black" stroke="black" points="865.978,-125.608 875.032,-120.105 864.522,-118.762 865.978,-125.608"/>
</a>
</g>
<!-- http://latin.omdoc.org/math?Lattice&#45;&gt;http://latin.omdoc.org/math?BoundedLattice -->
<g id="edge41" class="edge"><title>http://latin.omdoc.org/math?Lattice&#45;&gt;http://latin.omdoc.org/math?BoundedLattice</title>
<a xlink:title="include">
<path fill="none" stroke="black" d="M780.53,-346.662C785.682,-337.831 792.161,-326.723 797.975,-316.757"/>
<polygon fill="black" stroke="black" points="801.054,-318.426 803.069,-308.025 795.007,-314.899 801.054,-318.426"/>
</a>
</g>
<!-- http://latin.omdoc.org/math?Lattice&#45;&gt;http://latin.omdoc.org/math?DistributiveLattice -->
<g id="edge53" class="edge"><title>http://latin.omdoc.org/math?Lattice&#45;&gt;http://latin.omdoc.org/math?DistributiveLattice</title>
<a xlink:title="include">
<path fill="none" stroke="black" d="M758.305,-347.127C750.591,-336.632 741.248,-322.229 736,-308 730.868,-294.085 728.347,-277.742 727.118,-264.247"/>
<polygon fill="black" stroke="black" points="730.599,-263.855 726.384,-254.134 723.617,-264.361 730.599,-263.855"/>
</a>
</g>
<!-- http://latin.omdoc.org/math?Antisymmetric -->
<g id="node14" class="node"><title>http://latin.omdoc.org/math?Antisymmetric</title>
<a xlink:href="javascript:parent.navigate(&#39;http://latin.omdoc.org/math?Antisymmetric&#39;)" xlink:title="theory http://latin.omdoc.org/math?Antisymmetric">
<ellipse fill="gray" stroke="black" cx="266" cy="-526" rx="63.5411" ry="18"/>
<text text-anchor="middle" x="266" y="-522.3" font-family="Times New Roman,serif" font-size="14.00">Antisymmetric</text>
</a>
</g>
<!-- http://latin.omdoc.org/math?Antisymmetric&#45;&gt;http://latin.omdoc.org/math?SemiLattice -->
<g id="edge3" class="edge"><title>http://latin.omdoc.org/math?Antisymmetric&#45;&gt;http://latin.omdoc.org/math?SemiLattice</title>
<a xlink:href="javascript:parent.navigate(&#39;http://latin.omdoc.org/math?ASL&#39;)" xlink:title="view http://latin.omdoc.org/math?ASL">
<path fill="none" stroke="blue" stroke-dasharray="5,2" d="M320.837,-515.989C385.108,-506.539 483.799,-491.768 491.676,-489.054 513,-481.768 535.315,-469.528 552.545,-458.908"/>
<path fill="none" stroke="blue" stroke-dasharray="5,2" d="M321.128,-517.968C385.404,-508.517 484.096,-493.746 492.324,-490.946 513.962,-483.521 536.277,-471.281 553.594,-460.611"/>
<polygon fill="blue" stroke="blue" points="555.02,-462.667 561.611,-454.372 551.286,-456.746 555.02,-462.667"/>
</a>
<a xlink:href="javascript:parent.navigate(&#39;http://latin.omdoc.org/math?ASL&#39;)" xlink:title="ASL">
<text text-anchor="middle" x="540.5" y="-478.3" font-family="Times New Roman,serif" font-size="14.00">ASL</text>
</a>
</g>
<!-- http://latin.omdoc.org/math?Order -->
<g id="node24" class="node"><title>http://latin.omdoc.org/math?Order</title>
<a xlink:href="javascript:parent.navigate(&#39;http://latin.omdoc.org/math?Order&#39;)" xlink:title="theory http://latin.omdoc.org/math?Order">
<ellipse fill="gray" stroke="black" cx="174" cy="-438" rx="32.2457" ry="18"/>
<text text-anchor="middle" x="174" y="-434.3" font-family="Times New Roman,serif" font-size="14.00">Order</text>
</a>
</g>
<!-- http://latin.omdoc.org/math?Antisymmetric&#45;&gt;http://latin.omdoc.org/math?Order -->
<g id="edge83" class="edge"><title>http://latin.omdoc.org/math?Antisymmetric&#45;&gt;http://latin.omdoc.org/math?Order</title>
<a xlink:title="include">
<path fill="none" stroke="black" d="M263.376,-507.656C260.966,-496.876 256.429,-483.341 248,-474 238.44,-463.406 224.996,-455.739 212.185,-450.331"/>
<polygon fill="black" stroke="black" points="213.176,-446.962 202.586,-446.626 210.655,-453.492 213.176,-446.962"/>
</a>
</g>
<!-- http://latin.omdoc.org/math?Preorder -->
<g id="node16" class="node"><title>http://latin.omdoc.org/math?Preorder</title>
<a xlink:href="javascript:parent.navigate(&#39;http://latin.omdoc.org/math?Preorder&#39;)" xlink:title="theory http://latin.omdoc.org/math?Preorder">
<ellipse fill="gray" stroke="black" cx="42" cy="-526" rx="42.3701" ry="18"/>
<text text-anchor="middle" x="42" y="-522.3" font-family="Times New Roman,serif" font-size="14.00">Preorder</text>
</a>
</g>
<!-- http://latin.omdoc.org/math?Preorder&#45;&gt;http://latin.omdoc.org/math?SemiLattice -->
<g id="edge5" class="edge"><title>http://latin.omdoc.org/math?Preorder&#45;&gt;http://latin.omdoc.org/math?SemiLattice</title>
<a xlink:href="javascript:parent.navigate(&#39;http://latin.omdoc.org/math?POSL&#39;)" xlink:title="view http://latin.omdoc.org/math?POSL">
<path fill="none" stroke="blue" stroke-dasharray="5,2" d="M73.7221,-513.172C81.5285,-510.844 89.8736,-508.618 97.8026,-507.02 242.793,-477.928 281.57,-487.997 427.899,-473.005 472.42,-468.606 484.653,-474.335 526.746,-463.033 533.199,-461.34 539.937,-458.973 546.351,-456.389"/>
<path fill="none" stroke="blue" stroke-dasharray="5,2" d="M74.2938,-515.088C82.0438,-512.776 90.3889,-510.551 98.1974,-508.98 242.291,-479.864 281.067,-489.932 428.101,-474.995 471.571,-470.417 483.804,-476.146 527.254,-464.967 533.862,-463.227 540.6,-460.859 547.097,-458.245"/>
<polygon fill="blue" stroke="blue" points="548.098,-460.536 555.923,-453.392 545.351,-454.097 548.098,-460.536"/>
</a>
<a xlink:href="javascript:parent.navigate(&#39;http://latin.omdoc.org/math?POSL&#39;)" xlink:title="POSL">
<text text-anchor="middle" x="446" y="-478.3" font-family="Times New Roman,serif" font-size="14.00">POSL</text>
</a>
</g>
<!-- http://latin.omdoc.org/math?Preorder&#45;&gt;http://latin.omdoc.org/math?Order -->
<g id="edge81" class="edge"><title>http://latin.omdoc.org/math?Preorder&#45;&gt;http://latin.omdoc.org/math?Order</title>
<a xlink:title="include">
<path fill="none" stroke="black" d="M64.0938,-510.606C86.3181,-496.126 120.698,-473.727 145.082,-457.841"/>
<polygon fill="black" stroke="black" points="147.104,-460.701 153.572,-452.309 143.283,-454.836 147.104,-460.701"/>
</a>
</g>
<!-- http://latin.omdoc.org/math?Reflexive -->
<g id="node18" class="node"><title>http://latin.omdoc.org/math?Reflexive</title>
<a xlink:href="javascript:parent.navigate(&#39;http://latin.omdoc.org/math?Reflexive&#39;)" xlink:title="theory http://latin.omdoc.org/math?Reflexive">
<ellipse fill="gray" stroke="black" cx="390" cy="-614" rx="44.2946" ry="18"/>
<text text-anchor="middle" x="390" y="-610.3" font-family="Times New Roman,serif" font-size="14.00">Reflexive</text>
</a>
</g>
<!-- http://latin.omdoc.org/math?Reflexive&#45;&gt;http://latin.omdoc.org/math?SemiLattice -->
<g id="edge7" class="edge"><title>http://latin.omdoc.org/math?Reflexive&#45;&gt;http://latin.omdoc.org/math?SemiLattice</title>
<a xlink:href="javascript:parent.navigate(&#39;http://latin.omdoc.org/math?ReSL&#39;)" xlink:title="view http://latin.omdoc.org/math?ReSL">
<path fill="none" stroke="blue" stroke-dasharray="5,2" d="M401.028,-595.939C418.579,-572.713 453.657,-530.663 493.493,-507.138 520.17,-492.301 535.858,-508.028 557.366,-489.227 564.935,-483.093 570.632,-473.77 574.615,-464.946"/>
<path fill="none" stroke="blue" stroke-dasharray="5,2" d="M402.623,-597.144C420.114,-573.994 455.192,-531.944 494.507,-508.862 518.754,-493.713 534.442,-509.441 558.634,-490.773 566.642,-484.136 572.339,-474.813 576.437,-465.771"/>
<polygon fill="blue" stroke="blue" points="578.815,-466.56 579.28,-455.975 572.316,-463.959 578.815,-466.56"/>
</a>
<a xlink:href="javascript:parent.navigate(&#39;http://latin.omdoc.org/math?ReSL&#39;)" xlink:title="ReSL">
<text text-anchor="middle" x="510.5" y="-522.3" font-family="Times New Roman,serif" font-size="14.00">ReSL</text>
</a>
</g>
<!-- http://latin.omdoc.org/math?Reflexive&#45;&gt;http://latin.omdoc.org/math?Preorder -->
<g id="edge79" class="edge"><title>http://latin.omdoc.org/math?Reflexive&#45;&gt;http://latin.omdoc.org/math?Preorder</title>
<a xlink:title="include">
<path fill="none" stroke="black" d="M349.286,-606.696C311.603,-600.532 254.152,-590.295 205,-578 163.03,-567.502 115.952,-552.404 83.223,-541.359"/>
<polygon fill="black" stroke="black" points="84.1422,-537.975 73.5478,-538.071 81.8899,-544.603 84.1422,-537.975"/>
</a>
</g>
<!-- http://latin.omdoc.org/math?Transitive -->
<g id="node20" class="node"><title>http://latin.omdoc.org/math?Transitive</title>
<a xlink:href="javascript:parent.navigate(&#39;http://latin.omdoc.org/math?Transitive&#39;)" xlink:title="theory http://latin.omdoc.org/math?Transitive">
<ellipse fill="gray" stroke="black" cx="120" cy="-614" rx="46.2191" ry="18"/>
<text text-anchor="middle" x="120" y="-610.3" font-family="Times New Roman,serif" font-size="14.00">Transitive</text>
</a>
</g>
<!-- http://latin.omdoc.org/math?Transitive&#45;&gt;http://latin.omdoc.org/math?SemiLattice -->
<g id="edge9" class="edge"><title>http://latin.omdoc.org/math?Transitive&#45;&gt;http://latin.omdoc.org/math?SemiLattice</title>
<a xlink:href="javascript:parent.navigate(&#39;http://latin.omdoc.org/math?TSL&#39;)" xlink:title="view http://latin.omdoc.org/math?TSL">
<path fill="none" stroke="blue" stroke-dasharray="5,2" d="M121.233,-595.569C125.368,-571.319 136.632,-528.088 166.431,-507.178 221.586,-469.403 400.847,-507.92 463.714,-489.042 476.749,-485.739 477.805,-479.4 491.612,-473.078 507.25,-466.779 512.12,-468.544 526.661,-463.059 532.363,-461.006 538.334,-458.638 544.144,-456.208"/>
<path fill="none" stroke="blue" stroke-dasharray="5,2" d="M123.205,-595.905C127.303,-571.823 138.568,-528.592 167.569,-508.822 221.166,-471.358 400.427,-509.875 464.286,-490.958 478.721,-486.068 479.778,-479.729 492.388,-474.922 506.568,-468.659 511.439,-470.424 527.339,-464.941 533.1,-462.865 539.071,-460.497 544.916,-458.053"/>
<polygon fill="blue" stroke="blue" points="546.327,-460.167 554.134,-453.004 543.564,-453.736 546.327,-460.167"/>
</a>
<a xlink:href="javascript:parent.navigate(&#39;http://latin.omdoc.org/math?TSL&#39;)" xlink:title="TSL">
<text text-anchor="middle" x="180" y="-522.3" font-family="Times New Roman,serif" font-size="14.00">TSL</text>
</a>
</g>
<!-- http://latin.omdoc.org/math?Transitive&#45;&gt;http://latin.omdoc.org/math?Preorder -->
<g id="edge77" class="edge"><title>http://latin.omdoc.org/math?Transitive&#45;&gt;http://latin.omdoc.org/math?Preorder</title>
<a xlink:title="include">
<path fill="none" stroke="black" d="M102.206,-597.089C95.9531,-591.261 88.9958,-584.499 83,-578 75.3736,-569.734 67.5142,-560.234 60.7425,-551.69"/>
<polygon fill="black" stroke="black" points="63.2961,-549.274 54.3822,-543.547 57.7794,-553.583 63.2961,-549.274"/>
</a>
</g>
<!-- http://latin.omdoc.org/math?Relation -->
<g id="node22" class="node"><title>http://latin.omdoc.org/math?Relation</title>
<a xlink:href="javascript:parent.navigate(&#39;http://latin.omdoc.org/math?Relation&#39;)" xlink:title="theory http://latin.omdoc.org/math?Relation">
<ellipse fill="gray" stroke="black" cx="779" cy="-688" rx="39.9464" ry="18"/>
<text text-anchor="middle" x="779" y="-684.3" font-family="Times New Roman,serif" font-size="14.00">Relation</text>
</a>
</g>
<!-- http://latin.omdoc.org/math?Relation&#45;&gt;http://latin.omdoc.org/math?SemiLattice -->
<g id="edge11" class="edge"><title>http://latin.omdoc.org/math?Relation&#45;&gt;http://latin.omdoc.org/math?SemiLattice</title>
<a xlink:href="javascript:parent.navigate(&#39;http://latin.omdoc.org/math?RSL&#39;)" xlink:title="view http://latin.omdoc.org/math?RSL">
<path fill="none" stroke="blue" stroke-dasharray="5,2" d="M783.538,-669.636C793.46,-635.258 810.213,-556.609 774.197,-508.596 738.271,-458.443 700.15,-487.191 640.643,-464.934 634.997,-462.774 629.119,-460.375 623.354,-457.932"/>
<path fill="none" stroke="blue" stroke-dasharray="5,2" d="M785.46,-670.19C795.417,-635.674 812.169,-557.026 775.803,-507.404 737.067,-456.846 698.946,-485.594 641.357,-463.066 635.753,-460.923 629.875,-458.523 624.134,-456.09"/>
<polygon fill="blue" stroke="blue" points="624.813,-453.661 614.245,-452.91 622.038,-460.087 624.813,-453.661"/>
</a>
<a xlink:href="javascript:parent.navigate(&#39;http://latin.omdoc.org/math?RSL&#39;)" xlink:title="RSL">
<text text-anchor="middle" x="810.5" y="-566.3" font-family="Times New Roman,serif" font-size="14.00">RSL</text>
</a>
</g>
<!-- http://latin.omdoc.org/math?Relation&#45;&gt;http://latin.omdoc.org/math?Antisymmetric -->
<g id="edge71" class="edge"><title>http://latin.omdoc.org/math?Relation&#45;&gt;http://latin.omdoc.org/math?Antisymmetric</title>
<a xlink:title="include">
<path fill="none" stroke="black" d="M738.967,-686.189C643.223,-683.597 403.995,-673.076 337,-632 307.486,-613.904 287.433,-578.395 276.359,-553.709"/>
<polygon fill="black" stroke="black" points="279.441,-552.014 272.292,-544.195 273.005,-554.766 279.441,-552.014"/>
</a>
</g>
<!-- http://latin.omdoc.org/math?Relation&#45;&gt;http://latin.omdoc.org/math?Preorder -->
<g id="edge75" class="edge"><title>http://latin.omdoc.org/math?Relation&#45;&gt;http://latin.omdoc.org/math?Preorder</title>
<a xlink:title="include">
<path fill="none" stroke="black" d="M738.701,-686.838C594.977,-685.868 113.494,-679.1 65,-632 44.4527,-612.043 40.2765,-578.271 40.2265,-554.424"/>
<polygon fill="black" stroke="black" points="43.7294,-554.326 40.4499,-544.251 36.7311,-554.172 43.7294,-554.326"/>
</a>
</g>
<!-- http://latin.omdoc.org/math?Relation&#45;&gt;http://latin.omdoc.org/math?Reflexive -->
<g id="edge69" class="edge"><title>http://latin.omdoc.org/math?Relation&#45;&gt;http://latin.omdoc.org/math?Reflexive</title>
<a xlink:title="include">
<path fill="none" stroke="black" d="M742.404,-680.226C672.264,-667.244 518.848,-638.848 439.59,-624.179"/>
<polygon fill="black" stroke="black" points="439.847,-620.667 429.377,-622.288 438.573,-627.55 439.847,-620.667"/>
</a>
</g>
<!-- http://latin.omdoc.org/math?Relation&#45;&gt;http://latin.omdoc.org/math?Transitive -->
<g id="edge73" class="edge"><title>http://latin.omdoc.org/math?Relation&#45;&gt;http://latin.omdoc.org/math?Transitive</title>
<a xlink:title="include">
<path fill="none" stroke="black" d="M738.869,-687.201C622.165,-687.385 284.564,-684.974 180,-652 168.741,-648.449 157.447,-642.321 147.744,-636.061"/>
<polygon fill="black" stroke="black" points="149.565,-633.068 139.326,-630.346 145.633,-638.859 149.565,-633.068"/>
</a>
</g>
<!-- http://latin.omdoc.org/math?Order&#45;&gt;http://latin.omdoc.org/math?SemiLattice -->
<g id="edge13" class="edge"><title>http://latin.omdoc.org/math?Order&#45;&gt;http://latin.omdoc.org/math?SemiLattice</title>
<a xlink:href="javascript:parent.navigate(&#39;http://latin.omdoc.org/math?OSL&#39;)" xlink:title="view http://latin.omdoc.org/math?OSL">
<path fill="none" stroke="blue" stroke-dasharray="5,2" d="M206.515,-437C274.289,-437 431.712,-437 520.37,-437"/>
<path fill="none" stroke="blue" stroke-dasharray="5,2" d="M206.515,-439C274.289,-439 431.712,-439 520.37,-439"/>
<polygon fill="blue" stroke="blue" points="520.567,-441.5 530.567,-438 520.567,-434.5 520.567,-441.5"/>
</a>
<a xlink:href="javascript:parent.navigate(&#39;http://latin.omdoc.org/math?OSL&#39;)" xlink:title="OSL">
<text text-anchor="middle" x="368.352" y="-444.8" font-family="Times New Roman,serif" font-size="14.00">OSL</text>
</a>
</g>
<!-- http://latin.omdoc.org/math?CommutativeSemigroup -->
<g id="node26" class="node"><title>http://latin.omdoc.org/math?CommutativeSemigroup</title>
<a xlink:href="javascript:parent.navigate(&#39;http://latin.omdoc.org/math?CommutativeSemigroup&#39;)" xlink:title="theory http://latin.omdoc.org/math?CommutativeSemigroup">
<ellipse fill="gray" stroke="black" cx="668" cy="-526" rx="98.1881" ry="18"/>
<text text-anchor="middle" x="668" y="-522.3" font-family="Times New Roman,serif" font-size="14.00">CommutativeSemigroup</text>
</a>
</g>
<!-- http://latin.omdoc.org/math?CommutativeSemigroup&#45;&gt;http://latin.omdoc.org/math?SemiLattice -->
<g id="edge15" class="edge"><title>http://latin.omdoc.org/math?CommutativeSemigroup&#45;&gt;http://latin.omdoc.org/math?SemiLattice</title>
<a xlink:title="include">
<path fill="none" stroke="black" d="M651.404,-508.009C638.818,-495.123 621.355,-477.244 607.358,-462.914"/>
<polygon fill="black" stroke="black" points="609.483,-460.08 599.991,-455.372 604.475,-464.971 609.483,-460.08"/>
</a>
</g>
<!-- http://latin.omdoc.org/math?EqUniverse -->
<g id="node28" class="node"><title>http://latin.omdoc.org/math?EqUniverse</title>
<a xlink:href="javascript:parent.navigate(&#39;http://latin.omdoc.org/math?EqUniverse&#39;)" xlink:title="theory http://latin.omdoc.org/math?EqUniverse">
<ellipse fill="gray" stroke="black" cx="909" cy="-614" rx="52.4675" ry="18"/>
<text text-anchor="middle" x="909" y="-610.3" font-family="Times New Roman,serif" font-size="14.00">EqUniverse</text>
</a>
</g>
<!-- http://latin.omdoc.org/math?EqUniverse&#45;&gt;http://latin.omdoc.org/math?SemiLattice -->
<g id="edge17" class="edge"><title>http://latin.omdoc.org/math?EqUniverse&#45;&gt;http://latin.omdoc.org/math?SemiLattice</title>
<a xlink:title="meta">
<path fill="none" stroke="green" d="M878.497,-599.219C865.043,-592.976 849.115,-585.357 835,-578 822.29,-571.375 820.71,-566.18 807,-562 780.679,-553.975 578.737,-564.152 560,-544 549.105,-532.282 553.678,-522.698 560,-508 564.596,-497.314 573.887,-500.448 579,-490 582.535,-482.777 584.196,-474.296 584.867,-466.347"/>
<polygon fill="green" stroke="green" points="588.365,-466.48 585.253,-456.353 581.37,-466.21 588.365,-466.48"/>
</a>
</g>
<!-- http://latin.omdoc.org/math?EqUniverse&#45;&gt;http://latin.omdoc.org/math?HeytingAlgebra -->
<g id="edge21" class="edge"><title>http://latin.omdoc.org/math?EqUniverse&#45;&gt;http://latin.omdoc.org/math?HeytingAlgebra</title>
<a xlink:title="meta">
<path fill="none" stroke="green" d="M921.233,-596.494C932.341,-579.843 947,-552.954 947,-527 947,-527 947,-527 947,-289 947,-252.958 849.129,-217.518 784.843,-198.127"/>
<polygon fill="green" stroke="green" points="785.809,-194.763 775.226,-195.27 783.815,-201.473 785.809,-194.763"/>
</a>
</g>
<!-- http://latin.omdoc.org/math?EqUniverse&#45;&gt;http://latin.omdoc.org/math?RelationAlgebra -->
<g id="edge25" class="edge"><title>http://latin.omdoc.org/math?EqUniverse&#45;&gt;http://latin.omdoc.org/math?RelationAlgebra</title>
<a xlink:title="meta">
<path fill="none" stroke="green" d="M947.277,-601.708C980.396,-589.3 1023,-565.799 1023,-527 1023,-527 1023,-527 1023,-107 1023,-95.3339 1013.68,-94.6848 1003,-90 875.875,-34.2581 829.848,-75.249 693,-52 686.903,-50.9641 680.561,-49.7728 674.245,-48.5117"/>
<polygon fill="green" stroke="green" points="674.881,-45.0693 664.381,-46.4849 673.472,-51.926 674.881,-45.0693"/>
</a>
</g>
<!-- http://latin.omdoc.org/math?EqUniverse&#45;&gt;http://latin.omdoc.org/math?OrthocomplementedLattice -->
<g id="edge29" class="edge"><title>http://latin.omdoc.org/math?EqUniverse&#45;&gt;http://latin.omdoc.org/math?OrthocomplementedLattice</title>
<a xlink:title="meta">
<path fill="none" stroke="green" d="M856.713,-613.118C765.775,-612.522 582.85,-607.547 527,-578 483.862,-555.178 453,-442.016 453,-439 453,-439 453,-439 453,-181 453,-160.995 562.964,-137.558 644.073,-122.992"/>
<polygon fill="green" stroke="green" points="645.077,-126.369 654.31,-121.173 643.852,-119.477 645.077,-126.369"/>
</a>
</g>
<!-- http://latin.omdoc.org/math?EqUniverse&#45;&gt;http://latin.omdoc.org/math?DeMorganAlgebra -->
<g id="edge33" class="edge"><title>http://latin.omdoc.org/math?EqUniverse&#45;&gt;http://latin.omdoc.org/math?DeMorganAlgebra</title>
<a xlink:title="meta">
<path fill="none" stroke="green" d="M857.02,-611.194C763.399,-607.494 570.205,-597.689 506,-578 431.272,-555.084 358,-561.163 358,-483 358,-483 358,-483 358,-181 358,-141.158 398.746,-123.121 439.864,-115.063"/>
<polygon fill="green" stroke="green" points="440.504,-118.504 449.739,-113.311 439.282,-111.612 440.504,-118.504"/>
</a>
</g>
<!-- http://latin.omdoc.org/math?EqUniverse&#45;&gt;http://latin.omdoc.org/math?BooleanAlgebra -->
<g id="edge39" class="edge"><title>http://latin.omdoc.org/math?EqUniverse&#45;&gt;http://latin.omdoc.org/math?BooleanAlgebra</title>
<a xlink:title="meta">
<path fill="none" stroke="green" d="M856.754,-612.756C747.1,-610.829 503,-598.51 503,-527 503,-527 503,-527 503,-181 503,-144.702 845.066,-126.305 847,-126 853.275,-125.011 859.802,-123.839 866.295,-122.582"/>
<polygon fill="green" stroke="green" points="867.314,-125.947 876.43,-120.548 865.937,-119.084 867.314,-125.947"/>
</a>
</g>
<!-- http://latin.omdoc.org/math?EqUniverse&#45;&gt;http://latin.omdoc.org/math?BoundedLattice -->
<g id="edge43" class="edge"><title>http://latin.omdoc.org/math?EqUniverse&#45;&gt;http://latin.omdoc.org/math?BoundedLattice</title>
<a xlink:title="meta">
<path fill="none" stroke="green" d="M896.767,-596.494C885.659,-579.843 871,-552.954 871,-527 871,-527 871,-527 871,-363 871,-343.498 857.935,-326.289 844.207,-313.59"/>
<polygon fill="green" stroke="green" points="846.447,-310.9 836.591,-307.013 841.872,-316.198 846.447,-310.9"/>
</a>
</g>
<!-- http://latin.omdoc.org/math?EqUniverse&#45;&gt;http://latin.omdoc.org/math?ModalAlgebra -->
<g id="edge47" class="edge"><title>http://latin.omdoc.org/math?EqUniverse&#45;&gt;http://latin.omdoc.org/math?ModalAlgebra</title>
<a xlink:title="meta">
<path fill="none" stroke="green" d="M959.497,-609.187C985.158,-604.952 1015.4,-596.158 1037,-578 1056.18,-561.882 1061,-552.051 1061,-527 1061,-527 1061,-527 1061,-107 1061,-87.399 1053.79,-80.1169 1037,-70 998.59,-46.8533 880.268,-59.1708 836,-52 830.315,-51.079 824.412,-49.9591 818.542,-48.7381"/>
<polygon fill="green" stroke="green" points="819.255,-45.3114 808.739,-46.6052 817.766,-52.1514 819.255,-45.3114"/>
</a>
</g>
<!-- http://latin.omdoc.org/math?EqUniverse&#45;&gt;http://latin.omdoc.org/math?ComplementedLattice -->
<g id="edge51" class="edge"><title>http://latin.omdoc.org/math?EqUniverse&#45;&gt;http://latin.omdoc.org/math?ComplementedLattice</title>
<a xlink:title="meta">
<path fill="none" stroke="green" d="M936.306,-598.538C944.996,-592.976 954.127,-586.011 961,-578 977.312,-558.988 985,-552.051 985,-527 985,-527 985,-527 985,-289 985,-255.69 981.661,-244.128 961,-218 957.033,-212.984 952.136,-208.492 946.903,-204.534"/>
<polygon fill="green" stroke="green" points="948.712,-201.53 938.488,-198.755 944.75,-207.301 948.712,-201.53"/>
</a>
</g>
<!-- http://latin.omdoc.org/math?EqUniverse&#45;&gt;http://latin.omdoc.org/math?DistributiveLattice -->
<g id="edge55" class="edge"><title>http://latin.omdoc.org/math?EqUniverse&#45;&gt;http://latin.omdoc.org/math?DistributiveLattice</title>
<a xlink:title="meta">
<path fill="none" stroke="green" d="M909,-595.867C909,-578.51 909,-550.889 909,-527 909,-527 909,-527 909,-326 909,-300.558 909.105,-288.802 890,-272 889.875,-271.89 836.355,-260.48 790.496,-250.719"/>
<polygon fill="green" stroke="green" points="791.059,-247.26 780.549,-248.602 789.602,-254.107 791.059,-247.26"/>
</a>
</g>
<!-- http://latin.omdoc.org/math?EqUniverse&#45;&gt;http://latin.omdoc.org/math?Lattice -->
<g id="edge59" class="edge"><title>http://latin.omdoc.org/math?EqUniverse&#45;&gt;http://latin.omdoc.org/math?Lattice</title>
<a xlink:title="meta">
<path fill="none" stroke="green" d="M882.836,-598.27C874.712,-592.73 866.257,-585.847 860,-578 835.805,-547.659 797.285,-441.332 779.959,-391.345"/>
<polygon fill="green" stroke="green" points="783.257,-390.174 776.691,-381.859 776.639,-392.454 783.257,-390.174"/>
</a>
</g>
<!-- http://latin.omdoc.org/math?EqUniverse&#45;&gt;http://latin.omdoc.org/math?DerivativeAlgebra -->
<g id="edge63" class="edge"><title>http://latin.omdoc.org/math?EqUniverse&#45;&gt;http://latin.omdoc.org/math?DerivativeAlgebra</title>
<a xlink:title="meta">
<path fill="none" stroke="green" d="M958.178,-607.515C1000.39,-601.943 1057.16,-592.118 1075,-578 1094.65,-562.456 1099,-552.051 1099,-527 1099,-527 1099,-527 1099,-107 1099,-62.5309 1050.86,-44.8209 1004.51,-38.0753"/>
<polygon fill="green" stroke="green" points="1004.72,-34.5737 994.357,-36.7613 1003.83,-41.5158 1004.72,-34.5737"/>
</a>
</g>
<!-- http://latin.omdoc.org/math?EqUniverse&#45;&gt;http://latin.omdoc.org/math?Antisymmetric -->
<g id="edge65" class="edge"><title>http://latin.omdoc.org/math?EqUniverse&#45;&gt;http://latin.omdoc.org/math?Antisymmetric</title>
<a xlink:title="meta">
<path fill="none" stroke="green" d="M856.638,-613.107C767.863,-612.418 582.494,-607.203 429,-578 388.479,-570.291 343.865,-555.9 311.572,-544.367"/>
<polygon fill="green" stroke="green" points="312.558,-541.001 301.964,-540.889 310.176,-547.583 312.558,-541.001"/>
</a>
</g>
<!-- http://latin.omdoc.org/math?EqUniverse&#45;&gt;http://latin.omdoc.org/math?Order -->
<g id="edge67" class="edge"><title>http://latin.omdoc.org/math?EqUniverse&#45;&gt;http://latin.omdoc.org/math?Order</title>
<a xlink:title="meta">
<path fill="none" stroke="green" d="M856.924,-611.774C699.957,-607.564 239.342,-591.256 193,-544 173.091,-523.698 170.225,-489.995 171.123,-466.258"/>
<polygon fill="green" stroke="green" points="174.625,-466.336 171.752,-456.138 167.638,-465.901 174.625,-466.336"/>
</a>
</g>
</g>
</svg>
