<?xml version="1.0" encoding="UTF-8" standalone="no"?>
<!DOCTYPE svg PUBLIC "-//W3C//DTD SVG 1.1//EN"
 "http://www.w3.org/Graphics/SVG/1.1/DTD/svg11.dtd">
<!-- Generated by graphviz version 2.28.0 (20110507.0327)
 -->
<!-- Title: MMT Pages: 1 -->
<svg width="1016pt" height="370pt"
 viewBox="0.00 0.00 1016.00 370.00" xmlns="http://www.w3.org/2000/svg" xmlns:xlink="http://www.w3.org/1999/xlink">
<g id="graph1" class="graph" transform="scale(1 1) rotate(0) translate(4 366)">
<title>MMT</title>
<polygon fill="white" stroke="white" points="-4,5 -4,-366 1013,-366 1013,5 -4,5"/>
<g id="graph2" class="cluster"><title>cluster_local</title>
<polygon fill="none" stroke="black" points="211,-8 211,-296 473,-296 473,-8 211,-8"/>
</g>
<!-- http://latin.omdoc.org/math?Addition -->
<g id="node2" class="node"><title>http://latin.omdoc.org/math?Addition</title>
<a xlink:href="javascript:parent.navigate(&#39;http://latin.omdoc.org/math?Addition&#39;)" xlink:title="theory http://latin.omdoc.org/math?Addition">
<ellipse fill="none" stroke="black" cx="373" cy="-122" rx="42.3701" ry="18"/>
<text text-anchor="middle" x="373" y="-118.3" font-family="Times New Roman,serif" font-size="14.00">Addition</text>
</a>
</g>
<!-- http://latin.omdoc.org/math?Multiplication -->
<g id="node5" class="node"><title>http://latin.omdoc.org/math?Multiplication</title>
<a xlink:href="javascript:parent.navigate(&#39;http://latin.omdoc.org/math?Multiplication&#39;)" xlink:title="theory http://latin.omdoc.org/math?Multiplication">
<ellipse fill="none" stroke="black" cx="279" cy="-34" rx="59.1941" ry="18"/>
<text text-anchor="middle" x="279" y="-30.3" font-family="Times New Roman,serif" font-size="14.00">Multiplication</text>
</a>
</g>
<!-- http://latin.omdoc.org/math?Addition&#45;&gt;http://latin.omdoc.org/math?Multiplication -->
<g id="edge25" class="edge"><title>http://latin.omdoc.org/math?Addition&#45;&gt;http://latin.omdoc.org/math?Multiplication</title>
<a xlink:title="include">
<path fill="none" stroke="black" d="M357.389,-105.035C347.226,-94.8059 333.567,-81.3654 321,-70 316.49,-65.9215 311.607,-61.6924 306.82,-57.6436"/>
<polygon fill="black" stroke="black" points="308.856,-54.7838 298.938,-51.0583 304.368,-60.1558 308.856,-54.7838"/>
</a>
</g>
<!-- http://latin.omdoc.org/math?OrderedNat -->
<g id="node6" class="node"><title>http://latin.omdoc.org/math?OrderedNat</title>
<a xlink:href="javascript:parent.navigate(&#39;http://latin.omdoc.org/math?OrderedNat&#39;)" xlink:title="theory http://latin.omdoc.org/math?OrderedNat">
<ellipse fill="none" stroke="black" cx="411" cy="-34" rx="53.4184" ry="18"/>
<text text-anchor="middle" x="411" y="-30.3" font-family="Times New Roman,serif" font-size="14.00">OrderedNat</text>
</a>
</g>
<!-- http://latin.omdoc.org/math?Addition&#45;&gt;http://latin.omdoc.org/math?OrderedNat -->
<g id="edge33" class="edge"><title>http://latin.omdoc.org/math?Addition&#45;&gt;http://latin.omdoc.org/math?OrderedNat</title>
<a xlink:title="include">
<path fill="none" stroke="black" d="M380.508,-104.009C385.868,-91.8769 393.184,-75.3199 399.306,-61.4648"/>
<polygon fill="black" stroke="black" points="402.668,-62.517 403.508,-51.9555 396.265,-59.6878 402.668,-62.517"/>
</a>
</g>
<!-- http://latin.omdoc.org/math?Recursion -->
<g id="node3" class="node"><title>http://latin.omdoc.org/math?Recursion</title>
<a xlink:href="javascript:parent.navigate(&#39;http://latin.omdoc.org/math?Recursion&#39;)" xlink:title="theory http://latin.omdoc.org/math?Recursion">
<ellipse fill="none" stroke="black" cx="339" cy="-196" rx="48.1437" ry="18"/>
<text text-anchor="middle" x="339" y="-192.3" font-family="Times New Roman,serif" font-size="14.00">Recursion</text>
</a>
</g>
<!-- http://latin.omdoc.org/math?Recursion&#45;&gt;http://latin.omdoc.org/math?Addition -->
<g id="edge7" class="edge"><title>http://latin.omdoc.org/math?Recursion&#45;&gt;http://latin.omdoc.org/math?Addition</title>
<a xlink:title="include">
<path fill="none" stroke="black" d="M347.058,-177.937C351.122,-169.329 356.141,-158.702 360.678,-149.095"/>
<polygon fill="black" stroke="black" points="363.895,-150.478 365,-139.941 357.565,-147.488 363.895,-150.478"/>
</a>
</g>
<!-- http://latin.omdoc.org/math?Nat -->
<g id="node4" class="node"><title>http://latin.omdoc.org/math?Nat</title>
<a xlink:href="javascript:parent.navigate(&#39;http://latin.omdoc.org/math?Nat&#39;)" xlink:title="theory http://latin.omdoc.org/math?Nat">
<ellipse fill="none" stroke="black" cx="394" cy="-270" rx="27" ry="18"/>
<text text-anchor="middle" x="394" y="-266.3" font-family="Times New Roman,serif" font-size="14.00">Nat</text>
</a>
</g>
<!-- http://latin.omdoc.org/math?Nat&#45;&gt;http://latin.omdoc.org/math?Addition -->
<g id="edge9" class="edge"><title>http://latin.omdoc.org/math?Nat&#45;&gt;http://latin.omdoc.org/math?Addition</title>
<a xlink:title="include">
<path fill="none" stroke="black" d="M396.565,-252.034C398.844,-233.609 401.099,-203.409 396,-178 394.026,-168.163 390.249,-157.89 386.318,-148.921"/>
<polygon fill="black" stroke="black" points="389.459,-147.375 382.069,-139.783 383.112,-150.327 389.459,-147.375"/>
</a>
</g>
<!-- http://latin.omdoc.org/math?Nat&#45;&gt;http://latin.omdoc.org/math?Recursion -->
<g id="edge13" class="edge"><title>http://latin.omdoc.org/math?Nat&#45;&gt;http://latin.omdoc.org/math?Recursion</title>
<a xlink:title="include">
<path fill="none" stroke="black" d="M383.926,-253.241C379.513,-246.566 374.17,-238.781 369,-232 366.251,-228.394 363.249,-224.67 360.241,-221.057"/>
<polygon fill="black" stroke="black" points="362.886,-218.764 353.743,-213.412 357.553,-223.298 362.886,-218.764"/>
</a>
</g>
<!-- http://latin.omdoc.org/math?CommutativeSemigroup -->
<g id="node7" class="node"><title>http://latin.omdoc.org/math?CommutativeSemigroup</title>
<a xlink:href="javascript:parent.navigate(&#39;http://latin.omdoc.org/math?CommutativeSemigroup&#39;)" xlink:title="theory http://latin.omdoc.org/math?CommutativeSemigroup">
<ellipse fill="gray" stroke="black" cx="98" cy="-122" rx="98.1881" ry="18"/>
<text text-anchor="middle" x="98" y="-118.3" font-family="Times New Roman,serif" font-size="14.00">CommutativeSemigroup</text>
</a>
</g>
<!-- http://latin.omdoc.org/math?CommutativeSemigroup&#45;&gt;http://latin.omdoc.org/math?Addition -->
<g id="edge3" class="edge"><title>http://latin.omdoc.org/math?CommutativeSemigroup&#45;&gt;http://latin.omdoc.org/math?Addition</title>
<a xlink:href="javascript:parent.navigate(&#39;http://latin.omdoc.org/math?Addition?+semigroupCommut&#39;)" xlink:title="structure http://latin.omdoc.org/math?Addition?+semigroupCommut">
<path fill="none" stroke="red" stroke-width="2" d="M196.505,-122C238.446,-122 285.664,-122 320.7,-122"/>
<polygon fill="red" stroke="red" points="320.703,-125.5 330.703,-122 320.703,-118.5 320.703,-125.5"/>
</a>
<a xlink:href="javascript:parent.navigate(&#39;http://latin.omdoc.org/math?Addition?+semigroupCommut&#39;)" xlink:title="+semigroupCommut">
<text text-anchor="middle" x="263.377" y="-128.8" font-family="Times New Roman,serif" font-size="14.00">+semigroupCommut</text>
</a>
</g>
<!-- http://latin.omdoc.org/math?CommutativeSemigroup&#45;&gt;http://latin.omdoc.org/math?Multiplication -->
<g id="edge21" class="edge"><title>http://latin.omdoc.org/math?CommutativeSemigroup&#45;&gt;http://latin.omdoc.org/math?Multiplication</title>
<a xlink:href="javascript:parent.navigate(&#39;http://latin.omdoc.org/math?Multiplication?*commutativeSemigroup&#39;)" xlink:title="structure http://latin.omdoc.org/math?Multiplication?*commutativeSemigroup">
<path fill="none" stroke="red" stroke-width="2" d="M120.962,-104.318C136.517,-93.5387 157.835,-79.7549 178,-70 193.633,-62.4376 211.332,-55.7273 227.499,-50.2565"/>
<polygon fill="red" stroke="red" points="228.933,-53.469 237.335,-47.0139 226.741,-46.821 228.933,-53.469"/>
</a>
<a xlink:href="javascript:parent.navigate(&#39;http://latin.omdoc.org/math?Multiplication?*commutativeSemigroup&#39;)" xlink:title="*commutativeSemigroup">
<text text-anchor="middle" x="247.5" y="-74.3" font-family="Times New Roman,serif" font-size="14.00">*commutativeSemigroup</text>
</a>
</g>
<!-- http://latin.omdoc.org/math?Magma -->
<g id="node9" class="node"><title>http://latin.omdoc.org/math?Magma</title>
<a xlink:href="javascript:parent.navigate(&#39;http://latin.omdoc.org/math?Magma&#39;)" xlink:title="theory http://latin.omdoc.org/math?Magma">
<ellipse fill="gray" stroke="black" cx="519" cy="-122" rx="37.5442" ry="18"/>
<text text-anchor="middle" x="519" y="-118.3" font-family="Times New Roman,serif" font-size="14.00">Magma</text>
</a>
</g>
<!-- http://latin.omdoc.org/math?Magma&#45;&gt;http://latin.omdoc.org/math?Addition -->
<g id="edge5" class="edge"><title>http://latin.omdoc.org/math?Magma&#45;&gt;http://latin.omdoc.org/math?Addition</title>
<a xlink:href="javascript:parent.navigate(&#39;http://latin.omdoc.org/math?Addition?+magma&#39;)" xlink:title="structure http://latin.omdoc.org/math?Addition?+magma">
<path fill="none" stroke="red" stroke-width="2" d="M481.342,-122C464.275,-122 443.811,-122 425.287,-122"/>
<polygon fill="red" stroke="red" points="425.229,-118.5 415.229,-122 425.229,-125.5 425.229,-118.5"/>
</a>
<a xlink:href="javascript:parent.navigate(&#39;http://latin.omdoc.org/math?Addition?+magma&#39;)" xlink:title="+magma">
<text text-anchor="middle" x="448.152" y="-128.8" font-family="Times New Roman,serif" font-size="14.00">+magma</text>
</a>
</g>
<!-- http://latin.omdoc.org/math?Magma&#45;&gt;http://latin.omdoc.org/math?Multiplication -->
<g id="edge23" class="edge"><title>http://latin.omdoc.org/math?Magma&#45;&gt;http://latin.omdoc.org/math?Multiplication</title>
<a xlink:href="javascript:parent.navigate(&#39;http://latin.omdoc.org/math?Multiplication?*magma&#39;)" xlink:title="structure http://latin.omdoc.org/math?Multiplication?*magma">
<path fill="none" stroke="red" stroke-width="2" d="M491.514,-109.649C486.693,-107.723 481.712,-105.773 477,-104 426.169,-84.8691 367.334,-64.6007 327.09,-51.0187"/>
<polygon fill="red" stroke="red" points="328.123,-47.6737 317.529,-47.7999 325.89,-54.3078 328.123,-47.6737"/>
</a>
<a xlink:href="javascript:parent.navigate(&#39;http://latin.omdoc.org/math?Multiplication?*magma&#39;)" xlink:title="*magma">
<text text-anchor="middle" x="446.5" y="-74.3" font-family="Times New Roman,serif" font-size="14.00">*magma</text>
</a>
</g>
<!-- http://latin.omdoc.org/logics/proof_theory?FOLEQ -->
<g id="node13" class="node"><title>http://latin.omdoc.org/logics/proof_theory?FOLEQ</title>
<a xlink:href="javascript:parent.navigate(&#39;http://latin.omdoc.org/logics/proof_theory?FOLEQ&#39;)" xlink:title="theory http://latin.omdoc.org/logics/proof_theory?FOLEQ">
<ellipse fill="gray" stroke="black" cx="615" cy="-122" rx="39.9464" ry="18"/>
<text text-anchor="middle" x="615" y="-118.3" font-family="Times New Roman,serif" font-size="14.00">FOLEQ</text>
</a>
</g>
<!-- http://latin.omdoc.org/logics/proof_theory?FOLEQ&#45;&gt;http://latin.omdoc.org/math?Addition -->
<g id="edge11" class="edge"><title>http://latin.omdoc.org/logics/proof_theory?FOLEQ&#45;&gt;http://latin.omdoc.org/math?Addition</title>
<a xlink:title="meta">
<path fill="none" stroke="green" d="M595.873,-137.869C584.932,-145.903 570.524,-154.822 556,-159 501.328,-174.725 482.413,-175.599 428,-159 417.928,-155.927 408.03,-150.325 399.468,-144.393"/>
<polygon fill="green" stroke="green" points="401.518,-141.556 391.394,-138.433 397.361,-147.188 401.518,-141.556"/>
</a>
</g>
<!-- http://latin.omdoc.org/logics/proof_theory?FOLEQ&#45;&gt;http://latin.omdoc.org/math?Multiplication -->
<g id="edge27" class="edge"><title>http://latin.omdoc.org/logics/proof_theory?FOLEQ&#45;&gt;http://latin.omdoc.org/math?Multiplication</title>
<a xlink:title="meta">
<path fill="none" stroke="green" d="M587.172,-109.007C559.106,-97.3743 514.285,-80.0499 474,-70 419.114,-56.3075 403.532,-62.7796 348,-52 342.908,-51.0115 337.627,-49.8891 332.356,-48.7034"/>
<polygon fill="green" stroke="green" points="332.82,-45.2179 322.287,-46.364 331.235,-52.0363 332.82,-45.2179"/>
</a>
</g>
<!-- http://latin.omdoc.org/logics/proof_theory?FOLEQ&#45;&gt;http://latin.omdoc.org/math?OrderedNat -->
<g id="edge37" class="edge"><title>http://latin.omdoc.org/logics/proof_theory?FOLEQ&#45;&gt;http://latin.omdoc.org/math?OrderedNat</title>
<a xlink:title="meta">
<path fill="none" stroke="green" d="M599.541,-105.204C587.561,-93.8306 570.014,-78.9682 552,-70 526.386,-57.2486 495.786,-48.9255 469.647,-43.61"/>
<polygon fill="green" stroke="green" points="469.979,-40.1093 459.496,-41.6489 468.651,-46.9823 469.979,-40.1093"/>
</a>
</g>
<!-- http://latin.omdoc.org/logics/proof_theory?InEqLogic -->
<g id="node16" class="node"><title>http://latin.omdoc.org/logics/proof_theory?InEqLogic</title>
<a xlink:href="javascript:parent.navigate(&#39;http://latin.omdoc.org/logics/proof_theory?InEqLogic&#39;)" xlink:title="theory http://latin.omdoc.org/logics/proof_theory?InEqLogic">
<ellipse fill="gray" stroke="black" cx="394" cy="-344" rx="49.0941" ry="18"/>
<text text-anchor="middle" x="394" y="-340.3" font-family="Times New Roman,serif" font-size="14.00">InEqLogic</text>
</a>
</g>
<!-- http://latin.omdoc.org/logics/proof_theory?InEqLogic&#45;&gt;http://latin.omdoc.org/math?Recursion -->
<g id="edge15" class="edge"><title>http://latin.omdoc.org/logics/proof_theory?InEqLogic&#45;&gt;http://latin.omdoc.org/math?Recursion</title>
<a xlink:title="meta">
<path fill="none" stroke="green" d="M378.588,-326.828C371.273,-318.284 363.048,-307.254 358,-296 347.74,-273.124 343.013,-244.85 340.84,-224.382"/>
<polygon fill="green" stroke="green" points="344.302,-223.816 339.898,-214.18 337.332,-224.459 344.302,-223.816"/>
</a>
</g>
<!-- http://latin.omdoc.org/logics/proof_theory?InEqLogic&#45;&gt;http://latin.omdoc.org/math?Nat -->
<g id="edge19" class="edge"><title>http://latin.omdoc.org/logics/proof_theory?InEqLogic&#45;&gt;http://latin.omdoc.org/math?Nat</title>
<a xlink:title="meta">
<path fill="none" stroke="green" d="M394,-325.937C394,-317.807 394,-307.876 394,-298.705"/>
<polygon fill="green" stroke="green" points="397.5,-298.441 394,-288.441 390.5,-298.441 397.5,-298.441"/>
</a>
</g>
<!-- http://latin.omdoc.org/logics/proof_theory?NEGExt -->
<g id="node18" class="node"><title>http://latin.omdoc.org/logics/proof_theory?NEGExt</title>
<a xlink:href="javascript:parent.navigate(&#39;http://latin.omdoc.org/logics/proof_theory?NEGExt&#39;)" xlink:title="theory http://latin.omdoc.org/logics/proof_theory?NEGExt">
<ellipse fill="gray" stroke="black" cx="503" cy="-344" rx="41.394" ry="18"/>
<text text-anchor="middle" x="503" y="-340.3" font-family="Times New Roman,serif" font-size="14.00">NEGExt</text>
</a>
</g>
<!-- http://latin.omdoc.org/logics/proof_theory?NEGExt&#45;&gt;http://latin.omdoc.org/math?Nat -->
<g id="edge17" class="edge"><title>http://latin.omdoc.org/logics/proof_theory?NEGExt&#45;&gt;http://latin.omdoc.org/math?Nat</title>
<a xlink:title="include">
<path fill="none" stroke="black" d="M481.204,-328.603C463.906,-317.176 439.632,-301.142 421.085,-288.891"/>
<polygon fill="black" stroke="black" points="422.769,-285.809 412.496,-283.218 418.911,-291.65 422.769,-285.809"/>
</a>
</g>
<!-- http://latin.omdoc.org/math?RelationEqLogic -->
<g id="node25" class="node"><title>http://latin.omdoc.org/math?RelationEqLogic</title>
<a xlink:href="javascript:parent.navigate(&#39;http://latin.omdoc.org/math?RelationEqLogic&#39;)" xlink:title="theory http://latin.omdoc.org/math?RelationEqLogic">
<ellipse fill="gray" stroke="black" cx="745" cy="-122" rx="71.2405" ry="18"/>
<text text-anchor="middle" x="745" y="-118.3" font-family="Times New Roman,serif" font-size="14.00">RelationEqLogic</text>
</a>
</g>
<!-- http://latin.omdoc.org/math?RelationEqLogic&#45;&gt;http://latin.omdoc.org/math?OrderedNat -->
<g id="edge29" class="edge"><title>http://latin.omdoc.org/math?RelationEqLogic&#45;&gt;http://latin.omdoc.org/math?OrderedNat</title>
<a xlink:href="javascript:parent.navigate(&#39;http://latin.omdoc.org/math?OrderedNat?leq&#39;)" xlink:title="structure http://latin.omdoc.org/math?OrderedNat?leq">
<path fill="none" stroke="red" stroke-width="2" d="M703.772,-107.278C670.15,-96.3627 621.308,-81.1272 578,-70 541.237,-60.5545 499.439,-51.7961 466.855,-45.4033"/>
<polygon fill="red" stroke="red" points="467.102,-41.8859 456.618,-43.413 465.766,-48.7572 467.102,-41.8859"/>
</a>
<a xlink:href="javascript:parent.navigate(&#39;http://latin.omdoc.org/math?OrderedNat?leq&#39;)" xlink:title="leq">
<text text-anchor="middle" x="641.5" y="-74.3" font-family="Times New Roman,serif" font-size="14.00">leq</text>
</a>
</g>
<!-- http://latin.omdoc.org/logics/proof_theory?Inequal -->
<g id="node27" class="node"><title>http://latin.omdoc.org/logics/proof_theory?Inequal</title>
<a xlink:href="javascript:parent.navigate(&#39;http://latin.omdoc.org/logics/proof_theory?Inequal&#39;)" xlink:title="theory http://latin.omdoc.org/logics/proof_theory?Inequal">
<ellipse fill="gray" stroke="black" cx="872" cy="-122" rx="37.0701" ry="18"/>
<text text-anchor="middle" x="872" y="-118.3" font-family="Times New Roman,serif" font-size="14.00">Inequal</text>
</a>
</g>
<!-- http://latin.omdoc.org/logics/proof_theory?Inequal&#45;&gt;http://latin.omdoc.org/math?OrderedNat -->
<g id="edge31" class="edge"><title>http://latin.omdoc.org/logics/proof_theory?Inequal&#45;&gt;http://latin.omdoc.org/math?OrderedNat</title>
<a xlink:title="include">
<path fill="none" stroke="black" d="M843.89,-110.053C837.722,-107.87 831.186,-105.723 825,-104 701.982,-69.733 553.372,-50.0459 471.863,-41.0359"/>
<polygon fill="black" stroke="black" points="472.101,-37.5412 461.781,-39.9382 471.343,-44.5001 472.101,-37.5412"/>
</a>
</g>
<!-- http://latin.omdoc.org/logics/proof_theory?DISJExt -->
<g id="node30" class="node"><title>http://latin.omdoc.org/logics/proof_theory?DISJExt</title>
<a xlink:href="javascript:parent.navigate(&#39;http://latin.omdoc.org/logics/proof_theory?DISJExt&#39;)" xlink:title="theory http://latin.omdoc.org/logics/proof_theory?DISJExt">
<ellipse fill="gray" stroke="black" cx="968" cy="-122" rx="40.4202" ry="18"/>
<text text-anchor="middle" x="968" y="-118.3" font-family="Times New Roman,serif" font-size="14.00">DISJExt</text>
</a>
</g>
<!-- http://latin.omdoc.org/logics/proof_theory?DISJExt&#45;&gt;http://latin.omdoc.org/math?OrderedNat -->
<g id="edge35" class="edge"><title>http://latin.omdoc.org/logics/proof_theory?DISJExt&#45;&gt;http://latin.omdoc.org/math?OrderedNat</title>
<a xlink:title="include">
<path fill="none" stroke="black" d="M937.816,-109.912C931.334,-107.764 924.482,-105.666 918,-104 760.898,-63.6338 569.971,-45.7476 473.397,-38.8092"/>
<polygon fill="black" stroke="black" points="473.443,-35.3039 463.222,-38.0938 472.952,-42.2867 473.443,-35.3039"/>
</a>
</g>
</g>
</svg>
