<?xml version="1.0" encoding="UTF-8" standalone="no"?>
<!DOCTYPE svg PUBLIC "-//W3C//DTD SVG 1.1//EN"
 "http://www.w3.org/Graphics/SVG/1.1/DTD/svg11.dtd">
<!-- Generated by graphviz version 2.28.0 (20110507.0327)
 -->
<!-- Title: MMT Pages: 1 -->
<svg width="752pt" height="222pt"
 viewBox="0.00 0.00 752.00 222.00" xmlns="http://www.w3.org/2000/svg" xmlns:xlink="http://www.w3.org/1999/xlink">
<g id="graph1" class="graph" transform="scale(1 1) rotate(0) translate(4 218)">
<title>MMT</title>
<polygon fill="white" stroke="white" points="-4,5 -4,-218 749,-218 749,5 -4,5"/>
<g id="graph2" class="cluster"><title>cluster_local</title>
<polygon fill="none" stroke="black" points="305,-8 305,-60 375,-60 375,-8 305,-8"/>
</g>
<!-- http://latin.omdoc.org/math?Rat -->
<g id="node2" class="node"><title>http://latin.omdoc.org/math?Rat</title>
<a xlink:href="javascript:parent.navigate(&#39;http://latin.omdoc.org/math?Rat&#39;)" xlink:title="theory http://latin.omdoc.org/math?Rat">
<ellipse fill="none" stroke="black" cx="340" cy="-34" rx="27" ry="18"/>
<text text-anchor="middle" x="340" y="-30.3" font-family="Times New Roman,serif" font-size="14.00">Rat</text>
</a>
</g>
<!-- http://latin.omdoc.org/math?Monotonous -->
<g id="node3" class="node"><title>http://latin.omdoc.org/math?Monotonous</title>
<a xlink:href="javascript:parent.navigate(&#39;http://latin.omdoc.org/math?Monotonous&#39;)" xlink:title="theory http://latin.omdoc.org/math?Monotonous">
<ellipse fill="gray" stroke="black" cx="57" cy="-122" rx="57.2688" ry="18"/>
<text text-anchor="middle" x="57" y="-118.3" font-family="Times New Roman,serif" font-size="14.00">Monotonous</text>
</a>
</g>
<!-- http://latin.omdoc.org/math?Monotonous&#45;&gt;http://latin.omdoc.org/math?Rat -->
<g id="edge3" class="edge"><title>http://latin.omdoc.org/math?Monotonous&#45;&gt;http://latin.omdoc.org/math?Rat</title>
<a xlink:href="javascript:parent.navigate(&#39;http://latin.omdoc.org/math?Rat?+monotonous&#39;)" xlink:title="structure http://latin.omdoc.org/math?Rat?+monotonous">
<path fill="none" stroke="red" stroke-width="2" d="M52.1384,-103.785C50.1589,-92.7814 49.9372,-78.947 58,-70 74.1326,-52.0981 229.916,-41.1343 302.777,-36.9462"/>
<polygon fill="red" stroke="red" points="303.111,-40.4331 312.898,-36.3775 302.718,-33.4441 303.111,-40.4331"/>
</a>
<a xlink:href="javascript:parent.navigate(&#39;http://latin.omdoc.org/math?Rat?+monotonous&#39;)" xlink:title="+monotonous">
<text text-anchor="middle" x="97.5" y="-74.3" font-family="Times New Roman,serif" font-size="14.00">+monotonous</text>
</a>
</g>
<!-- http://latin.omdoc.org/math?Dense -->
<g id="node5" class="node"><title>http://latin.omdoc.org/math?Dense</title>
<a xlink:href="javascript:parent.navigate(&#39;http://latin.omdoc.org/math?Dense&#39;)" xlink:title="theory http://latin.omdoc.org/math?Dense">
<ellipse fill="gray" stroke="black" cx="212" cy="-122" rx="33.2209" ry="18"/>
<text text-anchor="middle" x="212" y="-118.3" font-family="Times New Roman,serif" font-size="14.00">Dense</text>
</a>
</g>
<!-- http://latin.omdoc.org/math?Dense&#45;&gt;http://latin.omdoc.org/math?Rat -->
<g id="edge5" class="edge"><title>http://latin.omdoc.org/math?Dense&#45;&gt;http://latin.omdoc.org/math?Rat</title>
<a xlink:title="include">
<path fill="none" stroke="black" d="M232,-107.563C253.792,-92.9207 288.777,-69.4155 312.996,-53.1431"/>
<polygon fill="black" stroke="black" points="315.039,-55.9873 321.388,-47.5051 311.135,-50.1769 315.039,-55.9873"/>
</a>
</g>
<!-- http://latin.omdoc.org/math?UnboundedBelow -->
<g id="node7" class="node"><title>http://latin.omdoc.org/math?UnboundedBelow</title>
<a xlink:href="javascript:parent.navigate(&#39;http://latin.omdoc.org/math?UnboundedBelow&#39;)" xlink:title="theory http://latin.omdoc.org/math?UnboundedBelow">
<ellipse fill="gray" stroke="black" cx="340" cy="-122" rx="76.5394" ry="18"/>
<text text-anchor="middle" x="340" y="-118.3" font-family="Times New Roman,serif" font-size="14.00">UnboundedBelow</text>
</a>
</g>
<!-- http://latin.omdoc.org/math?UnboundedBelow&#45;&gt;http://latin.omdoc.org/math?Rat -->
<g id="edge7" class="edge"><title>http://latin.omdoc.org/math?UnboundedBelow&#45;&gt;http://latin.omdoc.org/math?Rat</title>
<a xlink:title="include">
<path fill="none" stroke="black" d="M340,-103.597C340,-91.7459 340,-75.8169 340,-62.2917"/>
<polygon fill="black" stroke="black" points="343.5,-62.084 340,-52.084 336.5,-62.084 343.5,-62.084"/>
</a>
</g>
<!-- http://latin.omdoc.org/math?Total -->
<g id="node9" class="node"><title>http://latin.omdoc.org/math?Total</title>
<a xlink:href="javascript:parent.navigate(&#39;http://latin.omdoc.org/math?Total&#39;)" xlink:title="theory http://latin.omdoc.org/math?Total">
<ellipse fill="gray" stroke="black" cx="465" cy="-122" rx="29.3479" ry="18"/>
<text text-anchor="middle" x="465" y="-118.3" font-family="Times New Roman,serif" font-size="14.00">Total</text>
</a>
</g>
<!-- http://latin.omdoc.org/math?Total&#45;&gt;http://latin.omdoc.org/math?Rat -->
<g id="edge9" class="edge"><title>http://latin.omdoc.org/math?Total&#45;&gt;http://latin.omdoc.org/math?Rat</title>
<a xlink:title="include">
<path fill="none" stroke="black" d="M446.015,-107.938C424.847,-93.3749 390.458,-69.7154 366.612,-53.3092"/>
<polygon fill="black" stroke="black" points="368.57,-50.4078 358.348,-47.6232 364.602,-56.1748 368.57,-50.4078"/>
</a>
</g>
<!-- http://latin.omdoc.org/math?Field -->
<g id="node11" class="node"><title>http://latin.omdoc.org/math?Field</title>
<a xlink:href="javascript:parent.navigate(&#39;http://latin.omdoc.org/math?Field&#39;)" xlink:title="theory http://latin.omdoc.org/math?Field">
<ellipse fill="gray" stroke="black" cx="716" cy="-122" rx="28.3955" ry="18"/>
<text text-anchor="middle" x="716" y="-118.3" font-family="Times New Roman,serif" font-size="14.00">Field</text>
</a>
</g>
<!-- http://latin.omdoc.org/math?Field&#45;&gt;http://latin.omdoc.org/math?Rat -->
<g id="edge11" class="edge"><title>http://latin.omdoc.org/math?Field&#45;&gt;http://latin.omdoc.org/math?Rat</title>
<a xlink:title="include">
<path fill="none" stroke="black" d="M694.034,-110.471C688.555,-108.112 682.634,-105.783 677,-104 570.16,-70.1869 438.885,-48.8713 376.398,-39.899"/>
<polygon fill="black" stroke="black" points="376.653,-36.4003 366.262,-38.4657 375.673,-43.3314 376.653,-36.4003"/>
</a>
</g>
<!-- http://latin.omdoc.org/math?UnboundedAbove -->
<g id="node13" class="node"><title>http://latin.omdoc.org/math?UnboundedAbove</title>
<a xlink:href="javascript:parent.navigate(&#39;http://latin.omdoc.org/math?UnboundedAbove&#39;)" xlink:title="theory http://latin.omdoc.org/math?UnboundedAbove">
<ellipse fill="gray" stroke="black" cx="591" cy="-122" rx="77.4897" ry="18"/>
<text text-anchor="middle" x="591" y="-118.3" font-family="Times New Roman,serif" font-size="14.00">UnboundedAbove</text>
</a>
</g>
<!-- http://latin.omdoc.org/math?UnboundedAbove&#45;&gt;http://latin.omdoc.org/math?Rat -->
<g id="edge13" class="edge"><title>http://latin.omdoc.org/math?UnboundedAbove&#45;&gt;http://latin.omdoc.org/math?Rat</title>
<a xlink:title="include">
<path fill="none" stroke="black" d="M549.271,-106.702C499.894,-89.7843 418.677,-61.957 373.308,-46.4121"/>
<polygon fill="black" stroke="black" points="374.253,-43.0363 363.658,-43.1059 371.984,-49.6584 374.253,-43.0363"/>
</a>
</g>
<!-- http://latin.omdoc.org/logics/proof_theory?IFOLEQ -->
<g id="node15" class="node"><title>http://latin.omdoc.org/logics/proof_theory?IFOLEQ</title>
<a xlink:href="javascript:parent.navigate(&#39;http://latin.omdoc.org/logics/proof_theory?IFOLEQ&#39;)" xlink:title="theory http://latin.omdoc.org/logics/proof_theory?IFOLEQ">
<ellipse fill="gray" stroke="black" cx="340" cy="-196" rx="43.319" ry="18"/>
<text text-anchor="middle" x="340" y="-192.3" font-family="Times New Roman,serif" font-size="14.00">IFOLEQ</text>
</a>
</g>
<!-- http://latin.omdoc.org/logics/proof_theory?IFOLEQ&#45;&gt;http://latin.omdoc.org/math?Rat -->
<g id="edge15" class="edge"><title>http://latin.omdoc.org/logics/proof_theory?IFOLEQ&#45;&gt;http://latin.omdoc.org/math?Rat</title>
<a xlink:title="meta">
<path fill="none" stroke="green" d="M296.63,-194.385C256.465,-191.221 198.742,-179.508 170,-140 131.224,-86.6996 243.659,-54.677 304.204,-41.7093"/>
<polygon fill="green" stroke="green" points="305.068,-45.1045 314.151,-39.6495 303.649,-38.2499 305.068,-45.1045"/>
</a>
</g>
<!-- http://latin.omdoc.org/logics/proof_theory?IFOLEQ&#45;&gt;http://latin.omdoc.org/math?Dense -->
<g id="edge19" class="edge"><title>http://latin.omdoc.org/logics/proof_theory?IFOLEQ&#45;&gt;http://latin.omdoc.org/math?Dense</title>
<a xlink:title="meta">
<path fill="none" stroke="green" d="M315.32,-181.118C294.761,-169.553 265.362,-153.016 243.177,-140.537"/>
<polygon fill="green" stroke="green" points="244.892,-137.486 234.461,-135.634 241.461,-143.587 244.892,-137.486"/>
</a>
</g>
<!-- http://latin.omdoc.org/logics/proof_theory?IFOLEQ&#45;&gt;http://latin.omdoc.org/math?UnboundedBelow -->
<g id="edge21" class="edge"><title>http://latin.omdoc.org/logics/proof_theory?IFOLEQ&#45;&gt;http://latin.omdoc.org/math?UnboundedBelow</title>
<a xlink:title="meta">
<path fill="none" stroke="green" d="M340,-177.937C340,-169.807 340,-159.876 340,-150.705"/>
<polygon fill="green" stroke="green" points="343.5,-150.441 340,-140.441 336.5,-150.441 343.5,-150.441"/>
</a>
</g>
<!-- http://latin.omdoc.org/logics/proof_theory?IFOLEQ&#45;&gt;http://latin.omdoc.org/math?Total -->
<g id="edge23" class="edge"><title>http://latin.omdoc.org/logics/proof_theory?IFOLEQ&#45;&gt;http://latin.omdoc.org/math?Total</title>
<a xlink:title="meta">
<path fill="none" stroke="green" d="M364.398,-180.947C384.789,-169.201 413.93,-152.416 435.605,-139.932"/>
<polygon fill="green" stroke="green" points="437.471,-142.896 444.389,-134.872 433.977,-136.83 437.471,-142.896"/>
</a>
</g>
<!-- http://latin.omdoc.org/logics/proof_theory?IFOLEQ&#45;&gt;http://latin.omdoc.org/math?UnboundedAbove -->
<g id="edge17" class="edge"><title>http://latin.omdoc.org/logics/proof_theory?IFOLEQ&#45;&gt;http://latin.omdoc.org/math?UnboundedAbove</title>
<a xlink:title="meta">
<path fill="none" stroke="green" d="M374.637,-185.064C415.905,-173.227 485.424,-153.285 534.507,-139.205"/>
<polygon fill="green" stroke="green" points="535.698,-142.505 544.345,-136.383 533.768,-135.776 535.698,-142.505"/>
</a>
</g>
</g>
</svg>
