<?xml version="1.0" encoding="UTF-8" standalone="no"?>
<!DOCTYPE svg PUBLIC "-//W3C//DTD SVG 1.1//EN"
 "http://www.w3.org/Graphics/SVG/1.1/DTD/svg11.dtd">
<!-- Generated by graphviz version 2.28.0 (20110507.0327)
 -->
<!-- Title: MMT Pages: 1 -->
<svg width="1980pt" height="382pt"
 viewBox="0.00 0.00 1979.50 382.00" xmlns="http://www.w3.org/2000/svg" xmlns:xlink="http://www.w3.org/1999/xlink">
<g id="graph1" class="graph" transform="scale(1 1) rotate(0) translate(4 378)">
<title>MMT</title>
<polygon fill="white" stroke="white" points="-4,5 -4,-378 1976.5,-378 1976.5,5 -4,5"/>
<g id="graph2" class="cluster"><title>cluster_local</title>
<polygon fill="none" stroke="black" points="645.503,-66 645.503,-294 1782.5,-294 1782.5,-66 645.503,-66"/>
</g>
<!-- http://latin.omdoc.org/math?Dense -->
<g id="node2" class="node"><title>http://latin.omdoc.org/math?Dense</title>
<a xlink:href="javascript:parent.navigate(&#39;http://latin.omdoc.org/math?Dense&#39;)" xlink:title="theory http://latin.omdoc.org/math?Dense">
<ellipse fill="none" stroke="black" cx="938.503" cy="-92" rx="33.2209" ry="18"/>
<text text-anchor="middle" x="938.503" y="-88.3" font-family="Times New Roman,serif" font-size="14.00">Dense</text>
</a>
</g>
<!-- http://latin.omdoc.org/math?Rat -->
<g id="node14" class="node"><title>http://latin.omdoc.org/math?Rat</title>
<a xlink:href="javascript:parent.navigate(&#39;http://latin.omdoc.org/math?Rat&#39;)" xlink:title="theory http://latin.omdoc.org/math?Rat">
<ellipse fill="gray" stroke="black" cx="216.503" cy="-18" rx="27" ry="18"/>
<text text-anchor="middle" x="216.503" y="-14.3" font-family="Times New Roman,serif" font-size="14.00">Rat</text>
</a>
</g>
<!-- http://latin.omdoc.org/math?Dense&#45;&gt;http://latin.omdoc.org/math?Rat -->
<g id="edge3" class="edge"><title>http://latin.omdoc.org/math?Dense&#45;&gt;http://latin.omdoc.org/math?Rat</title>
<a xlink:title="include">
<path fill="none" stroke="black" d="M919.257,-77.2871C912.125,-72.9034 903.758,-68.5343 895.503,-66 774.079,-28.7227 377.741,-20.909 253.857,-19.3621"/>
<polygon fill="black" stroke="black" points="253.773,-15.861 243.732,-19.2423 253.69,-22.8605 253.773,-15.861"/>
</a>
</g>
<!-- http://latin.omdoc.org/math?Irreflexive -->
<g id="node3" class="node"><title>http://latin.omdoc.org/math?Irreflexive</title>
<a xlink:href="javascript:parent.navigate(&#39;http://latin.omdoc.org/math?Irreflexive&#39;)" xlink:title="theory http://latin.omdoc.org/math?Irreflexive">
<ellipse fill="none" stroke="black" cx="1727.5" cy="-180" rx="46.1964" ry="18"/>
<text text-anchor="middle" x="1727.5" y="-176.3" font-family="Times New Roman,serif" font-size="14.00">Irreflexive</text>
</a>
</g>
<!-- http://latin.omdoc.org/math?Strict -->
<g id="node12" class="node"><title>http://latin.omdoc.org/math?Strict</title>
<a xlink:href="javascript:parent.navigate(&#39;http://latin.omdoc.org/math?Strict&#39;)" xlink:title="theory http://latin.omdoc.org/math?Strict">
<ellipse fill="none" stroke="black" cx="1743.5" cy="-92" rx="30.3206" ry="18"/>
<text text-anchor="middle" x="1743.5" y="-88.3" font-family="Times New Roman,serif" font-size="14.00">Strict</text>
</a>
</g>
<!-- http://latin.omdoc.org/math?Irreflexive&#45;&gt;http://latin.omdoc.org/math?Strict -->
<g id="edge55" class="edge"><title>http://latin.omdoc.org/math?Irreflexive&#45;&gt;http://latin.omdoc.org/math?Strict</title>
<a xlink:title="include">
<path fill="none" stroke="black" d="M1730.66,-162.009C1732.9,-149.995 1735.94,-133.641 1738.5,-119.869"/>
<polygon fill="black" stroke="black" points="1741.96,-120.427 1740.35,-109.956 1735.08,-119.147 1741.96,-120.427"/>
</a>
</g>
<!-- http://latin.omdoc.org/math?SupremumLogic -->
<g id="node4" class="node"><title>http://latin.omdoc.org/math?SupremumLogic</title>
<a xlink:href="javascript:parent.navigate(&#39;http://latin.omdoc.org/math?SupremumLogic&#39;)" xlink:title="theory http://latin.omdoc.org/math?SupremumLogic">
<ellipse fill="none" stroke="black" cx="1061.5" cy="-92" rx="71.2405" ry="18"/>
<text text-anchor="middle" x="1061.5" y="-88.3" font-family="Times New Roman,serif" font-size="14.00">SupremumLogic</text>
</a>
</g>
<!-- http://latin.omdoc.org/math?UnboundedBelow -->
<g id="node5" class="node"><title>http://latin.omdoc.org/math?UnboundedBelow</title>
<a xlink:href="javascript:parent.navigate(&#39;http://latin.omdoc.org/math?UnboundedBelow&#39;)" xlink:title="theory http://latin.omdoc.org/math?UnboundedBelow">
<ellipse fill="none" stroke="black" cx="1227.5" cy="-92" rx="76.5394" ry="18"/>
<text text-anchor="middle" x="1227.5" y="-88.3" font-family="Times New Roman,serif" font-size="14.00">UnboundedBelow</text>
</a>
</g>
<!-- http://latin.omdoc.org/math?RelationEqLogic -->
<g id="node6" class="node"><title>http://latin.omdoc.org/math?RelationEqLogic</title>
<a xlink:href="javascript:parent.navigate(&#39;http://latin.omdoc.org/math?RelationEqLogic&#39;)" xlink:title="theory http://latin.omdoc.org/math?RelationEqLogic">
<ellipse fill="none" stroke="black" cx="1700.5" cy="-268" rx="71.2405" ry="18"/>
<text text-anchor="middle" x="1700.5" y="-264.3" font-family="Times New Roman,serif" font-size="14.00">RelationEqLogic</text>
</a>
</g>
<!-- http://latin.omdoc.org/math?RelationEqLogic&#45;&gt;http://latin.omdoc.org/math?Irreflexive -->
<g id="edge9" class="edge"><title>http://latin.omdoc.org/math?RelationEqLogic&#45;&gt;http://latin.omdoc.org/math?Irreflexive</title>
<a xlink:title="include">
<path fill="none" stroke="black" d="M1705.84,-250.009C1709.61,-237.995 1714.74,-221.641 1719.07,-207.869"/>
<polygon fill="black" stroke="black" points="1722.52,-208.545 1722.18,-197.956 1715.84,-206.448 1722.52,-208.545"/>
</a>
</g>
<!-- http://latin.omdoc.org/math?OrderLogic -->
<g id="node8" class="node"><title>http://latin.omdoc.org/math?OrderLogic</title>
<a xlink:href="javascript:parent.navigate(&#39;http://latin.omdoc.org/math?OrderLogic&#39;)" xlink:title="theory http://latin.omdoc.org/math?OrderLogic">
<ellipse fill="none" stroke="black" cx="1227.5" cy="-180" rx="52.9443" ry="18"/>
<text text-anchor="middle" x="1227.5" y="-176.3" font-family="Times New Roman,serif" font-size="14.00">OrderLogic</text>
</a>
</g>
<!-- http://latin.omdoc.org/math?RelationEqLogic&#45;&gt;http://latin.omdoc.org/math?OrderLogic -->
<g id="edge33" class="edge"><title>http://latin.omdoc.org/math?RelationEqLogic&#45;&gt;http://latin.omdoc.org/math?OrderLogic</title>
<a xlink:title="include">
<path fill="none" stroke="black" d="M1649.7,-255.326C1641.61,-253.513 1633.33,-251.685 1625.5,-250 1551.45,-234.071 1533.08,-229.233 1458.5,-216 1399.9,-205.602 1332.59,-195.625 1285.8,-189.003"/>
<polygon fill="black" stroke="black" points="1286.23,-185.529 1275.84,-187.6 1285.26,-192.461 1286.23,-185.529"/>
</a>
</g>
<!-- http://latin.omdoc.org/math?OrderedNat -->
<g id="node26" class="node"><title>http://latin.omdoc.org/math?OrderedNat</title>
<a xlink:href="javascript:parent.navigate(&#39;http://latin.omdoc.org/math?OrderedNat&#39;)" xlink:title="theory http://latin.omdoc.org/math?OrderedNat">
<ellipse fill="gray" stroke="black" cx="86.503" cy="-92" rx="53.4184" ry="18"/>
<text text-anchor="middle" x="86.503" y="-88.3" font-family="Times New Roman,serif" font-size="14.00">OrderedNat</text>
</a>
</g>
<!-- http://latin.omdoc.org/math?RelationEqLogic&#45;&gt;http://latin.omdoc.org/math?OrderedNat -->
<g id="edge21" class="edge"><title>http://latin.omdoc.org/math?RelationEqLogic&#45;&gt;http://latin.omdoc.org/math?OrderedNat</title>
<a xlink:href="javascript:parent.navigate(&#39;http://latin.omdoc.org/math?OrderedNat?leq&#39;)" xlink:title="structure http://latin.omdoc.org/math?OrderedNat?leq">
<path fill="none" stroke="red" stroke-width="2" d="M1652.33,-254.661C1643.46,-252.795 1634.24,-251.122 1625.5,-250 1537.18,-238.662 85.4388,-261.979 23.503,-198 -0.34919,-173.361 30.8732,-138.082 57.233,-115.355"/>
<polygon fill="red" stroke="red" points="59.7446,-117.819 65.1911,-108.731 55.2662,-112.439 59.7446,-117.819"/>
</a>
<a xlink:href="javascript:parent.navigate(&#39;http://latin.omdoc.org/math?OrderedNat?leq&#39;)" xlink:title="leq">
<text text-anchor="middle" x="32.003" y="-176.3" font-family="Times New Roman,serif" font-size="14.00">leq</text>
</a>
</g>
<!-- http://latin.omdoc.org/math?TopLogic -->
<g id="node7" class="node"><title>http://latin.omdoc.org/math?TopLogic</title>
<a xlink:href="javascript:parent.navigate(&#39;http://latin.omdoc.org/math?TopLogic&#39;)" xlink:title="theory http://latin.omdoc.org/math?TopLogic">
<ellipse fill="none" stroke="black" cx="1369.5" cy="-92" rx="47.169" ry="18"/>
<text text-anchor="middle" x="1369.5" y="-88.3" font-family="Times New Roman,serif" font-size="14.00">TopLogic</text>
</a>
</g>
<!-- http://latin.omdoc.org/math?OrderLogic&#45;&gt;http://latin.omdoc.org/math?Dense -->
<g id="edge5" class="edge"><title>http://latin.omdoc.org/math?OrderLogic&#45;&gt;http://latin.omdoc.org/math?Dense</title>
<a xlink:title="include">
<path fill="none" stroke="black" d="M1189.21,-167.457C1182.96,-165.61 1176.56,-163.736 1170.5,-162 1086.75,-137.993 1064.13,-137.611 981.503,-110 978.95,-109.147 976.328,-108.226 973.699,-107.269"/>
<polygon fill="black" stroke="black" points="974.85,-103.962 964.258,-103.705 972.378,-110.511 974.85,-103.962"/>
</a>
</g>
<!-- http://latin.omdoc.org/math?OrderLogic&#45;&gt;http://latin.omdoc.org/math?SupremumLogic -->
<g id="edge13" class="edge"><title>http://latin.omdoc.org/math?OrderLogic&#45;&gt;http://latin.omdoc.org/math?SupremumLogic</title>
<a xlink:title="include">
<path fill="none" stroke="black" d="M1199.72,-164.606C1172.53,-150.522 1130.89,-128.946 1100.41,-113.158"/>
<polygon fill="black" stroke="black" points="1101.83,-109.952 1091.34,-108.459 1098.61,-116.167 1101.83,-109.952"/>
</a>
</g>
<!-- http://latin.omdoc.org/math?OrderLogic&#45;&gt;http://latin.omdoc.org/math?UnboundedBelow -->
<g id="edge17" class="edge"><title>http://latin.omdoc.org/math?OrderLogic&#45;&gt;http://latin.omdoc.org/math?UnboundedBelow</title>
<a xlink:title="include">
<path fill="none" stroke="black" d="M1227.5,-161.597C1227.5,-149.746 1227.5,-133.817 1227.5,-120.292"/>
<polygon fill="black" stroke="black" points="1231,-120.084 1227.5,-110.084 1224,-120.084 1231,-120.084"/>
</a>
</g>
<!-- http://latin.omdoc.org/math?OrderLogic&#45;&gt;http://latin.omdoc.org/math?TopLogic -->
<g id="edge27" class="edge"><title>http://latin.omdoc.org/math?OrderLogic&#45;&gt;http://latin.omdoc.org/math?TopLogic</title>
<a xlink:title="include">
<path fill="none" stroke="black" d="M1252.24,-164.02C1275.69,-149.814 1311.08,-128.381 1336.85,-112.777"/>
<polygon fill="black" stroke="black" points="1338.78,-115.696 1345.53,-107.522 1335.16,-109.708 1338.78,-115.696"/>
</a>
</g>
<!-- http://latin.omdoc.org/math?InfimumLogic -->
<g id="node9" class="node"><title>http://latin.omdoc.org/math?InfimumLogic</title>
<a xlink:href="javascript:parent.navigate(&#39;http://latin.omdoc.org/math?InfimumLogic&#39;)" xlink:title="theory http://latin.omdoc.org/math?InfimumLogic">
<ellipse fill="none" stroke="black" cx="1496.5" cy="-92" rx="61.6163" ry="18"/>
<text text-anchor="middle" x="1496.5" y="-88.3" font-family="Times New Roman,serif" font-size="14.00">InfimumLogic</text>
</a>
</g>
<!-- http://latin.omdoc.org/math?OrderLogic&#45;&gt;http://latin.omdoc.org/math?InfimumLogic -->
<g id="edge37" class="edge"><title>http://latin.omdoc.org/math?OrderLogic&#45;&gt;http://latin.omdoc.org/math?InfimumLogic</title>
<a xlink:title="include">
<path fill="none" stroke="black" d="M1264.91,-167.042C1312.24,-151.91 1393.92,-125.795 1446.55,-108.969"/>
<polygon fill="black" stroke="black" points="1447.89,-112.216 1456.35,-105.837 1445.76,-105.549 1447.89,-112.216"/>
</a>
</g>
<!-- http://latin.omdoc.org/math?BottomLogic -->
<g id="node10" class="node"><title>http://latin.omdoc.org/math?BottomLogic</title>
<a xlink:href="javascript:parent.navigate(&#39;http://latin.omdoc.org/math?BottomLogic&#39;)" xlink:title="theory http://latin.omdoc.org/math?BottomLogic">
<ellipse fill="none" stroke="black" cx="1635.5" cy="-92" rx="59.2173" ry="18"/>
<text text-anchor="middle" x="1635.5" y="-88.3" font-family="Times New Roman,serif" font-size="14.00">BottomLogic</text>
</a>
</g>
<!-- http://latin.omdoc.org/math?OrderLogic&#45;&gt;http://latin.omdoc.org/math?BottomLogic -->
<g id="edge41" class="edge"><title>http://latin.omdoc.org/math?OrderLogic&#45;&gt;http://latin.omdoc.org/math?BottomLogic</title>
<a xlink:title="include">
<path fill="none" stroke="black" d="M1272.59,-170.429C1337.67,-157.923 1461.61,-133.586 1566.5,-110 1571.42,-108.895 1576.52,-107.71 1581.62,-106.499"/>
<polygon fill="black" stroke="black" points="1582.49,-109.89 1591.4,-104.151 1580.85,-103.084 1582.49,-109.89"/>
</a>
</g>
<!-- http://latin.omdoc.org/math?Total -->
<g id="node11" class="node"><title>http://latin.omdoc.org/math?Total</title>
<a xlink:href="javascript:parent.navigate(&#39;http://latin.omdoc.org/math?Total&#39;)" xlink:title="theory http://latin.omdoc.org/math?Total">
<ellipse fill="none" stroke="black" cx="683.503" cy="-92" rx="29.3479" ry="18"/>
<text text-anchor="middle" x="683.503" y="-88.3" font-family="Times New Roman,serif" font-size="14.00">Total</text>
</a>
</g>
<!-- http://latin.omdoc.org/math?OrderLogic&#45;&gt;http://latin.omdoc.org/math?Total -->
<g id="edge47" class="edge"><title>http://latin.omdoc.org/math?OrderLogic&#45;&gt;http://latin.omdoc.org/math?Total</title>
<a xlink:title="include">
<path fill="none" stroke="black" d="M1190.98,-166.904C1184.23,-165.014 1177.2,-163.269 1170.5,-162 1077.6,-144.394 1052.45,-154.747 958.503,-144 853.218,-131.957 824.433,-138.988 722.503,-110 720.079,-109.311 717.608,-108.503 715.145,-107.621"/>
<polygon fill="black" stroke="black" points="716.397,-104.352 705.81,-103.941 713.831,-110.864 716.397,-104.352"/>
</a>
</g>
<!-- http://latin.omdoc.org/math?UnboundedAbove -->
<g id="node13" class="node"><title>http://latin.omdoc.org/math?UnboundedAbove</title>
<a xlink:href="javascript:parent.navigate(&#39;http://latin.omdoc.org/math?UnboundedAbove&#39;)" xlink:title="theory http://latin.omdoc.org/math?UnboundedAbove">
<ellipse fill="none" stroke="black" cx="809.503" cy="-92" rx="77.4897" ry="18"/>
<text text-anchor="middle" x="809.503" y="-88.3" font-family="Times New Roman,serif" font-size="14.00">UnboundedAbove</text>
</a>
</g>
<!-- http://latin.omdoc.org/math?OrderLogic&#45;&gt;http://latin.omdoc.org/math?UnboundedAbove -->
<g id="edge59" class="edge"><title>http://latin.omdoc.org/math?OrderLogic&#45;&gt;http://latin.omdoc.org/math?UnboundedAbove</title>
<a xlink:title="include">
<path fill="none" stroke="black" d="M1190.31,-167.01C1183.76,-165.155 1176.96,-163.395 1170.5,-162 1112.63,-149.502 1096.78,-154.445 1038.5,-144 981.168,-133.725 916.429,-119.015 870.45,-108.031"/>
<polygon fill="black" stroke="black" points="871.183,-104.607 860.642,-105.676 869.549,-111.414 871.183,-104.607"/>
</a>
</g>
<!-- http://latin.omdoc.org/logics/proof_theory?IFOLEQ -->
<g id="node17" class="node"><title>http://latin.omdoc.org/logics/proof_theory?IFOLEQ</title>
<a xlink:href="javascript:parent.navigate(&#39;http://latin.omdoc.org/logics/proof_theory?IFOLEQ&#39;)" xlink:title="theory http://latin.omdoc.org/logics/proof_theory?IFOLEQ">
<ellipse fill="gray" stroke="black" cx="403.503" cy="-268" rx="43.319" ry="18"/>
<text text-anchor="middle" x="403.503" y="-264.3" font-family="Times New Roman,serif" font-size="14.00">IFOLEQ</text>
</a>
</g>
<!-- http://latin.omdoc.org/logics/proof_theory?IFOLEQ&#45;&gt;http://latin.omdoc.org/math?Dense -->
<g id="edge7" class="edge"><title>http://latin.omdoc.org/logics/proof_theory?IFOLEQ&#45;&gt;http://latin.omdoc.org/math?Dense</title>
<a xlink:title="meta">
<path fill="none" stroke="green" d="M374.53,-254.385C365.489,-248.899 356.565,-241.51 351.503,-232 329.783,-191.199 319.364,-161.22 351.503,-128 372.528,-106.267 865.896,-116.149 895.503,-110 898.377,-109.403 901.307,-108.63 904.218,-107.743"/>
<polygon fill="green" stroke="green" points="905.632,-110.958 913.938,-104.38 903.343,-104.342 905.632,-110.958"/>
</a>
</g>
<!-- http://latin.omdoc.org/logics/proof_theory?IFOLEQ&#45;&gt;http://latin.omdoc.org/math?SupremumLogic -->
<g id="edge15" class="edge"><title>http://latin.omdoc.org/logics/proof_theory?IFOLEQ&#45;&gt;http://latin.omdoc.org/math?SupremumLogic</title>
<a xlink:title="meta">
<path fill="none" stroke="green" d="M394.57,-250.182C380.427,-220.986 357.586,-160.904 389.503,-128 412.374,-104.422 947.885,-113.889 980.503,-110 987.309,-109.189 994.391,-108.089 1001.41,-106.838"/>
<polygon fill="green" stroke="green" points="1002.43,-110.206 1011.61,-104.91 1001.13,-103.328 1002.43,-110.206"/>
</a>
</g>
<!-- http://latin.omdoc.org/logics/proof_theory?IFOLEQ&#45;&gt;http://latin.omdoc.org/math?UnboundedBelow -->
<g id="edge19" class="edge"><title>http://latin.omdoc.org/logics/proof_theory?IFOLEQ&#45;&gt;http://latin.omdoc.org/math?UnboundedBelow</title>
<a xlink:title="meta">
<path fill="none" stroke="green" d="M400.377,-249.638C396.089,-219.601 392.479,-158.258 427.503,-128 457.529,-102.06 1102.06,-114.363 1141.5,-110 1148.87,-109.185 1156.54,-108.066 1164.13,-106.787"/>
<polygon fill="green" stroke="green" points="1164.81,-110.222 1174.05,-105.027 1163.59,-103.33 1164.81,-110.222"/>
</a>
</g>
<!-- http://latin.omdoc.org/logics/proof_theory?IFOLEQ&#45;&gt;http://latin.omdoc.org/math?TopLogic -->
<g id="edge29" class="edge"><title>http://latin.omdoc.org/logics/proof_theory?IFOLEQ&#45;&gt;http://latin.omdoc.org/math?TopLogic</title>
<a xlink:title="meta">
<path fill="none" stroke="green" d="M408.569,-250.034C419.048,-216.195 443.932,-142.326 465.503,-128 504.71,-101.961 1266.01,-117.292 1312.5,-110 1316.93,-109.306 1321.49,-108.36 1326.01,-107.266"/>
<polygon fill="green" stroke="green" points="1327.02,-110.621 1335.79,-104.678 1325.23,-103.854 1327.02,-110.621"/>
</a>
</g>
<!-- http://latin.omdoc.org/logics/proof_theory?IFOLEQ&#45;&gt;http://latin.omdoc.org/math?OrderLogic -->
<g id="edge35" class="edge"><title>http://latin.omdoc.org/logics/proof_theory?IFOLEQ&#45;&gt;http://latin.omdoc.org/math?OrderLogic</title>
<a xlink:title="meta">
<path fill="none" stroke="green" d="M445.742,-263.698C595.96,-251.885 1099.15,-211.706 1170.5,-198 1173.9,-197.347 1177.39,-196.574 1180.88,-195.723"/>
<polygon fill="green" stroke="green" points="1181.88,-199.078 1190.67,-193.154 1180.11,-192.307 1181.88,-199.078"/>
</a>
</g>
<!-- http://latin.omdoc.org/logics/proof_theory?IFOLEQ&#45;&gt;http://latin.omdoc.org/math?InfimumLogic -->
<g id="edge39" class="edge"><title>http://latin.omdoc.org/logics/proof_theory?IFOLEQ&#45;&gt;http://latin.omdoc.org/math?InfimumLogic</title>
<a xlink:title="meta">
<path fill="none" stroke="green" d="M416.845,-250.802C421.566,-244.947 426.855,-238.241 431.503,-232 465.083,-186.912 453.963,-154.576 503.503,-128 548.649,-103.781 1374.69,-116.503 1425.5,-110 1431.3,-109.258 1437.32,-108.231 1443.28,-107.047"/>
<polygon fill="green" stroke="green" points="1444.17,-110.436 1453.22,-104.927 1442.71,-103.59 1444.17,-110.436"/>
</a>
</g>
<!-- http://latin.omdoc.org/logics/proof_theory?IFOLEQ&#45;&gt;http://latin.omdoc.org/math?BottomLogic -->
<g id="edge43" class="edge"><title>http://latin.omdoc.org/logics/proof_theory?IFOLEQ&#45;&gt;http://latin.omdoc.org/math?BottomLogic</title>
<a xlink:title="meta">
<path fill="none" stroke="green" d="M424.731,-251.932C433.149,-245.85 442.863,-238.698 451.503,-232 490.18,-202.015 491.762,-181.831 536.503,-162 631.776,-119.771 664.658,-136.747 768.503,-128 945.255,-113.112 1390.67,-133.356 1566.5,-110 1572.22,-109.24 1578.15,-108.191 1584.03,-106.983"/>
<polygon fill="green" stroke="green" points="1584.81,-110.395 1593.82,-104.823 1583.3,-103.56 1584.81,-110.395"/>
</a>
</g>
<!-- http://latin.omdoc.org/logics/proof_theory?IFOLEQ&#45;&gt;http://latin.omdoc.org/math?Total -->
<g id="edge51" class="edge"><title>http://latin.omdoc.org/logics/proof_theory?IFOLEQ&#45;&gt;http://latin.omdoc.org/math?Total</title>
<a xlink:title="meta">
<path fill="none" stroke="green" d="M363.208,-261.365C329.828,-255.775 286.196,-246.01 275.503,-232 247.459,-195.258 243.614,-161.46 275.503,-128 304.205,-97.883 609.254,-120.529 649.503,-110 650.76,-109.671 652.025,-109.292 653.289,-108.873"/>
<polygon fill="green" stroke="green" points="654.852,-112.017 662.817,-105.03 652.234,-105.525 654.852,-112.017"/>
</a>
</g>
<!-- http://latin.omdoc.org/logics/proof_theory?IFOLEQ&#45;&gt;http://latin.omdoc.org/math?UnboundedAbove -->
<g id="edge61" class="edge"><title>http://latin.omdoc.org/logics/proof_theory?IFOLEQ&#45;&gt;http://latin.omdoc.org/math?UnboundedAbove</title>
<a xlink:title="meta">
<path fill="none" stroke="green" d="M362.977,-261.687C344.667,-257.04 324.672,-248.328 313.503,-232 287.406,-193.85 281.547,-161.397 313.503,-128 329.189,-111.607 698.971,-112.659 721.503,-110 729.109,-109.102 737.043,-107.922 744.898,-106.6"/>
<polygon fill="green" stroke="green" points="745.533,-110.042 754.774,-104.86 744.319,-103.148 745.533,-110.042"/>
</a>
</g>
<!-- http://latin.omdoc.org/logics/proof_theory?IFOLEQ&#45;&gt;http://latin.omdoc.org/math?Rat -->
<g id="edge71" class="edge"><title>http://latin.omdoc.org/logics/proof_theory?IFOLEQ&#45;&gt;http://latin.omdoc.org/math?Rat</title>
<a xlink:title="meta">
<path fill="none" stroke="green" d="M360.147,-266.84C266.176,-265.396 49.133,-255.751 11.503,-198 -5.42557,-172.02 -4.00657,-96.8551 23.503,-66 43.9647,-43.0498 129.561,-29.268 179.625,-23.0171"/>
<polygon fill="green" stroke="green" points="180.225,-26.4703 189.733,-21.797 179.386,-19.5207 180.225,-26.4703"/>
</a>
</g>
<!-- http://latin.omdoc.org/logics/proof_theory?InEqLogic -->
<g id="node20" class="node"><title>http://latin.omdoc.org/logics/proof_theory?InEqLogic</title>
<a xlink:href="javascript:parent.navigate(&#39;http://latin.omdoc.org/logics/proof_theory?InEqLogic&#39;)" xlink:title="theory http://latin.omdoc.org/logics/proof_theory?InEqLogic">
<ellipse fill="gray" stroke="black" cx="1922.5" cy="-268" rx="49.0941" ry="18"/>
<text text-anchor="middle" x="1922.5" y="-264.3" font-family="Times New Roman,serif" font-size="14.00">InEqLogic</text>
</a>
</g>
<!-- http://latin.omdoc.org/logics/proof_theory?InEqLogic&#45;&gt;http://latin.omdoc.org/math?Irreflexive -->
<g id="edge11" class="edge"><title>http://latin.omdoc.org/logics/proof_theory?InEqLogic&#45;&gt;http://latin.omdoc.org/math?Irreflexive</title>
<a xlink:title="meta">
<path fill="none" stroke="green" d="M1906.26,-250.864C1893.89,-239.472 1875.9,-224.736 1857.5,-216 1824.58,-200.368 1812.58,-207.88 1777.5,-198 1775.07,-197.315 1772.58,-196.58 1770.08,-195.815"/>
<polygon fill="green" stroke="green" points="1771.02,-192.441 1760.43,-192.748 1768.9,-199.113 1771.02,-192.441"/>
</a>
</g>
<!-- http://latin.omdoc.org/logics/proof_theory?InEqLogic&#45;&gt;http://latin.omdoc.org/math?Strict -->
<g id="edge57" class="edge"><title>http://latin.omdoc.org/logics/proof_theory?InEqLogic&#45;&gt;http://latin.omdoc.org/math?Strict</title>
<a xlink:title="meta">
<path fill="none" stroke="green" d="M1910.99,-250.262C1903.6,-239.975 1893.55,-226.751 1883.5,-216 1846.72,-176.622 1798.53,-136.418 1769.36,-113.131"/>
<polygon fill="green" stroke="green" points="1771.31,-110.215 1761.3,-106.747 1766.97,-115.701 1771.31,-110.215"/>
</a>
</g>
<!-- http://latin.omdoc.org/logics/syntax?RelationLogic -->
<g id="node28" class="node"><title>http://latin.omdoc.org/logics/syntax?RelationLogic</title>
<a xlink:href="javascript:parent.navigate(&#39;http://latin.omdoc.org/logics/syntax?RelationLogic&#39;)" xlink:title="theory http://latin.omdoc.org/logics/syntax?RelationLogic">
<ellipse fill="gray" stroke="black" cx="1762.5" cy="-356" rx="61.6163" ry="18"/>
<text text-anchor="middle" x="1762.5" y="-352.3" font-family="Times New Roman,serif" font-size="14.00">RelationLogic</text>
</a>
</g>
<!-- http://latin.omdoc.org/logics/syntax?RelationLogic&#45;&gt;http://latin.omdoc.org/math?RelationEqLogic -->
<g id="edge23" class="edge"><title>http://latin.omdoc.org/logics/syntax?RelationLogic&#45;&gt;http://latin.omdoc.org/math?RelationEqLogic</title>
<a xlink:title="include">
<path fill="none" stroke="black" d="M1750.25,-338.009C1741.25,-325.524 1728.87,-308.352 1718.71,-294.261"/>
<polygon fill="black" stroke="black" points="1721.41,-292.02 1712.73,-285.956 1715.74,-296.114 1721.41,-292.02"/>
</a>
</g>
<!-- http://latin.omdoc.org/logics/syntax?RelationLogic&#45;&gt;http://latin.omdoc.org/logics/proof_theory?InEqLogic -->
<g id="edge69" class="edge"><title>http://latin.omdoc.org/logics/syntax?RelationLogic&#45;&gt;http://latin.omdoc.org/logics/proof_theory?InEqLogic</title>
<a xlink:href="javascript:parent.navigate(&#39;http://latin.omdoc.org/logics/proof_theory?InEqLogic?ineq&#39;)" xlink:title="structure http://latin.omdoc.org/logics/proof_theory?InEqLogic?ineq">
<path fill="none" stroke="red" stroke-width="2" d="M1790.74,-339.823C1817.53,-325.421 1857.91,-303.721 1886.9,-288.138"/>
<polygon fill="red" stroke="red" points="1888.73,-291.128 1895.88,-283.311 1885.41,-284.963 1888.73,-291.128"/>
</a>
<a xlink:href="javascript:parent.navigate(&#39;http://latin.omdoc.org/logics/proof_theory?InEqLogic?ineq&#39;)" xlink:title="ineq">
<text text-anchor="middle" x="1868.5" y="-308.3" font-family="Times New Roman,serif" font-size="14.00">ineq</text>
</a>
</g>
<!-- http://latin.omdoc.org/logics/proof_theory?EqLogic -->
<g id="node30" class="node"><title>http://latin.omdoc.org/logics/proof_theory?EqLogic</title>
<a xlink:href="javascript:parent.navigate(&#39;http://latin.omdoc.org/logics/proof_theory?EqLogic&#39;)" xlink:title="theory http://latin.omdoc.org/logics/proof_theory?EqLogic">
<ellipse fill="gray" stroke="black" cx="1890.5" cy="-356" rx="42.3701" ry="18"/>
<text text-anchor="middle" x="1890.5" y="-352.3" font-family="Times New Roman,serif" font-size="14.00">EqLogic</text>
</a>
</g>
<!-- http://latin.omdoc.org/logics/proof_theory?EqLogic&#45;&gt;http://latin.omdoc.org/math?RelationEqLogic -->
<g id="edge25" class="edge"><title>http://latin.omdoc.org/logics/proof_theory?EqLogic&#45;&gt;http://latin.omdoc.org/math?RelationEqLogic</title>
<a xlink:title="meta">
<path fill="none" stroke="green" d="M1862.47,-342.31C1831.01,-328.071 1779.61,-304.808 1743.16,-288.31"/>
<polygon fill="green" stroke="green" points="1744.33,-284.995 1733.78,-284.06 1741.44,-291.372 1744.33,-284.995"/>
</a>
</g>
<!-- http://latin.omdoc.org/logics/proof_theory?EqLogic&#45;&gt;http://latin.omdoc.org/logics/proof_theory?InEqLogic -->
<g id="edge67" class="edge"><title>http://latin.omdoc.org/logics/proof_theory?EqLogic&#45;&gt;http://latin.omdoc.org/logics/proof_theory?InEqLogic</title>
<a xlink:title="include">
<path fill="none" stroke="black" d="M1896.83,-338.009C1901.34,-325.877 1907.5,-309.32 1912.66,-295.465"/>
<polygon fill="black" stroke="black" points="1915.99,-296.548 1916.19,-285.956 1909.43,-294.107 1915.99,-296.548"/>
</a>
</g>
<!-- http://latin.omdoc.org/math?Order -->
<g id="node34" class="node"><title>http://latin.omdoc.org/math?Order</title>
<a xlink:href="javascript:parent.navigate(&#39;http://latin.omdoc.org/math?Order&#39;)" xlink:title="theory http://latin.omdoc.org/math?Order">
<ellipse fill="gray" stroke="black" cx="1822.5" cy="-268" rx="32.2457" ry="18"/>
<text text-anchor="middle" x="1822.5" y="-264.3" font-family="Times New Roman,serif" font-size="14.00">Order</text>
</a>
</g>
<!-- http://latin.omdoc.org/math?Order&#45;&gt;http://latin.omdoc.org/math?OrderLogic -->
<g id="edge31" class="edge"><title>http://latin.omdoc.org/math?Order&#45;&gt;http://latin.omdoc.org/math?OrderLogic</title>
<a xlink:href="javascript:parent.navigate(&#39;http://latin.omdoc.org/math?OrderLogic?order&#39;)" xlink:title="structure http://latin.omdoc.org/math?OrderLogic?order">
<path fill="none" stroke="red" stroke-width="2" d="M1799.69,-254.905C1795.4,-253.014 1790.88,-251.269 1786.5,-250 1611.76,-199.373 1395.75,-185.889 1290.75,-182.3"/>
<polygon fill="red" stroke="red" points="1290.75,-178.798 1280.64,-181.973 1290.52,-185.794 1290.75,-178.798"/>
</a>
<a xlink:href="javascript:parent.navigate(&#39;http://latin.omdoc.org/math?OrderLogic?order&#39;)" xlink:title="order">
<text text-anchor="middle" x="1727" y="-220.3" font-family="Times New Roman,serif" font-size="14.00">order</text>
</a>
</g>
<!-- http://latin.omdoc.org/logics/proof_theory?Inequal -->
<g id="node42" class="node"><title>http://latin.omdoc.org/logics/proof_theory?Inequal</title>
<a xlink:href="javascript:parent.navigate(&#39;http://latin.omdoc.org/logics/proof_theory?Inequal&#39;)" xlink:title="theory http://latin.omdoc.org/logics/proof_theory?Inequal">
<ellipse fill="gray" stroke="black" cx="86.503" cy="-180" rx="37.0701" ry="18"/>
<text text-anchor="middle" x="86.503" y="-176.3" font-family="Times New Roman,serif" font-size="14.00">Inequal</text>
</a>
</g>
<!-- http://latin.omdoc.org/logics/proof_theory?Inequal&#45;&gt;http://latin.omdoc.org/math?Total -->
<g id="edge45" class="edge"><title>http://latin.omdoc.org/logics/proof_theory?Inequal&#45;&gt;http://latin.omdoc.org/math?Total</title>
<a xlink:title="include">
<path fill="none" stroke="black" d="M110.389,-166.225C134.779,-153.897 174.121,-135.967 210.503,-128 401.257,-86.226 460.411,-158.749 649.503,-110 650.761,-109.676 652.027,-109.301 653.292,-108.885"/>
<polygon fill="black" stroke="black" points="654.849,-112.031 662.823,-105.056 652.24,-105.535 654.849,-112.031"/>
</a>
</g>
<!-- http://latin.omdoc.org/logics/proof_theory?Inequal&#45;&gt;http://latin.omdoc.org/math?OrderedNat -->
<g id="edge65" class="edge"><title>http://latin.omdoc.org/logics/proof_theory?Inequal&#45;&gt;http://latin.omdoc.org/math?OrderedNat</title>
<a xlink:title="include">
<path fill="none" stroke="black" d="M86.503,-161.597C86.503,-149.746 86.503,-133.817 86.503,-120.292"/>
<polygon fill="black" stroke="black" points="90.0031,-120.084 86.503,-110.084 83.0031,-120.084 90.0031,-120.084"/>
</a>
</g>
<!-- http://latin.omdoc.org/logics/proof_theory?DISJExt -->
<g id="node45" class="node"><title>http://latin.omdoc.org/logics/proof_theory?DISJExt</title>
<a xlink:href="javascript:parent.navigate(&#39;http://latin.omdoc.org/logics/proof_theory?DISJExt&#39;)" xlink:title="theory http://latin.omdoc.org/logics/proof_theory?DISJExt">
<ellipse fill="gray" stroke="black" cx="182.503" cy="-180" rx="40.4202" ry="18"/>
<text text-anchor="middle" x="182.503" y="-176.3" font-family="Times New Roman,serif" font-size="14.00">DISJExt</text>
</a>
</g>
<!-- http://latin.omdoc.org/logics/proof_theory?DISJExt&#45;&gt;http://latin.omdoc.org/math?Total -->
<g id="edge49" class="edge"><title>http://latin.omdoc.org/logics/proof_theory?DISJExt&#45;&gt;http://latin.omdoc.org/math?Total</title>
<a xlink:title="include">
<path fill="none" stroke="black" d="M194.938,-162.406C204.961,-150.461 220.2,-135.227 237.503,-128 322.065,-92.6783 560.792,-132.997 649.503,-110 650.761,-109.674 652.026,-109.298 653.29,-108.88"/>
<polygon fill="black" stroke="black" points="654.85,-112.026 662.821,-105.046 652.237,-105.531 654.85,-112.026"/>
</a>
</g>
<!-- http://latin.omdoc.org/logics/proof_theory?DISJExt&#45;&gt;http://latin.omdoc.org/math?OrderedNat -->
<g id="edge63" class="edge"><title>http://latin.omdoc.org/logics/proof_theory?DISJExt&#45;&gt;http://latin.omdoc.org/math?OrderedNat</title>
<a xlink:title="include">
<path fill="none" stroke="black" d="M165.34,-163.625C150.602,-150.422 129.136,-131.193 112.324,-116.132"/>
<polygon fill="black" stroke="black" points="114.278,-113.183 104.495,-109.118 109.608,-118.397 114.278,-113.183"/>
</a>
</g>
<!-- http://latin.omdoc.org/math?Transitive -->
<g id="node48" class="node"><title>http://latin.omdoc.org/math?Transitive</title>
<a xlink:href="javascript:parent.navigate(&#39;http://latin.omdoc.org/math?Transitive&#39;)" xlink:title="theory http://latin.omdoc.org/math?Transitive">
<ellipse fill="gray" stroke="black" cx="591.503" cy="-180" rx="46.2191" ry="18"/>
<text text-anchor="middle" x="591.503" y="-176.3" font-family="Times New Roman,serif" font-size="14.00">Transitive</text>
</a>
</g>
<!-- http://latin.omdoc.org/math?Transitive&#45;&gt;http://latin.omdoc.org/math?Strict -->
<g id="edge53" class="edge"><title>http://latin.omdoc.org/math?Transitive&#45;&gt;http://latin.omdoc.org/math?Strict</title>
<a xlink:href="javascript:parent.navigate(&#39;http://latin.omdoc.org/math?Strict?transitive&#39;)" xlink:title="structure http://latin.omdoc.org/math?Strict?transitive">
<path fill="none" stroke="red" stroke-width="2" d="M623.154,-166.764C629.168,-164.863 635.469,-163.15 641.503,-162 1105.71,-73.5261 1242.89,-215.616 1703.5,-110 1706.17,-109.389 1708.88,-108.61 1711.58,-107.723"/>
<polygon fill="red" stroke="red" points="1712.99,-110.931 1721.12,-104.144 1710.53,-104.376 1712.99,-110.931"/>
</a>
<a xlink:href="javascript:parent.navigate(&#39;http://latin.omdoc.org/math?Strict?transitive&#39;)" xlink:title="transitive">
<text text-anchor="middle" x="1623.5" y="-132.3" font-family="Times New Roman,serif" font-size="14.00">transitive</text>
</a>
</g>
</g>
</svg>
