<?xml version="1.0" encoding="UTF-8" standalone="no"?>
<!DOCTYPE svg PUBLIC "-//W3C//DTD SVG 1.1//EN"
 "http://www.w3.org/Graphics/SVG/1.1/DTD/svg11.dtd">
<!-- Generated by graphviz version 2.28.0 (20110507.0327)
 -->
<!-- Title: MMT Pages: 1 -->
<svg width="1375pt" height="706pt"
 viewBox="0.00 0.00 1375.00 706.00" xmlns="http://www.w3.org/2000/svg" xmlns:xlink="http://www.w3.org/1999/xlink">
<g id="graph1" class="graph" transform="scale(1 1) rotate(0) translate(4 702)">
<title>MMT</title>
<polygon fill="white" stroke="white" points="-4,5 -4,-702 1372,-702 1372,5 -4,5"/>
<g id="graph2" class="cluster"><title>cluster_local</title>
<polygon fill="none" stroke="black" points="8,-66 8,-632 492,-632 492,-66 8,-66"/>
</g>
<!-- http://latin.omdoc.org/math?Ring -->
<g id="node2" class="node"><title>http://latin.omdoc.org/math?Ring</title>
<a xlink:href="javascript:parent.navigate(&#39;http://latin.omdoc.org/math?Ring&#39;)" xlink:title="theory http://latin.omdoc.org/math?Ring">
<ellipse fill="none" stroke="black" cx="238" cy="-430" rx="27.4223" ry="18"/>
<text text-anchor="middle" x="238" y="-426.3" font-family="Times New Roman,serif" font-size="14.00">Ring</text>
</a>
</g>
<!-- http://latin.omdoc.org/math?RingCommut -->
<g id="node5" class="node"><title>http://latin.omdoc.org/math?RingCommut</title>
<a xlink:href="javascript:parent.navigate(&#39;http://latin.omdoc.org/math?RingCommut&#39;)" xlink:title="theory http://latin.omdoc.org/math?RingCommut">
<ellipse fill="none" stroke="black" cx="150" cy="-342" rx="59.1941" ry="18"/>
<text text-anchor="middle" x="150" y="-338.3" font-family="Times New Roman,serif" font-size="14.00">RingCommut</text>
</a>
</g>
<!-- http://latin.omdoc.org/math?Ring&#45;&gt;http://latin.omdoc.org/math?RingCommut -->
<g id="edge25" class="edge"><title>http://latin.omdoc.org/math?Ring&#45;&gt;http://latin.omdoc.org/math?RingCommut</title>
<a xlink:title="include">
<path fill="none" stroke="black" d="M223.072,-414.411C209.671,-401.315 189.758,-381.855 174.103,-366.555"/>
<polygon fill="black" stroke="black" points="176.404,-363.911 166.806,-359.424 171.512,-368.917 176.404,-363.911"/>
</a>
</g>
<!-- http://latin.omdoc.org/math?RingUnit -->
<g id="node11" class="node"><title>http://latin.omdoc.org/math?RingUnit</title>
<a xlink:href="javascript:parent.navigate(&#39;http://latin.omdoc.org/math?RingUnit&#39;)" xlink:title="theory http://latin.omdoc.org/math?RingUnit">
<ellipse fill="none" stroke="black" cx="271" cy="-342" rx="42.3456" ry="18"/>
<text text-anchor="middle" x="271" y="-338.3" font-family="Times New Roman,serif" font-size="14.00">RingUnit</text>
</a>
</g>
<!-- http://latin.omdoc.org/math?Ring&#45;&gt;http://latin.omdoc.org/math?RingUnit -->
<g id="edge57" class="edge"><title>http://latin.omdoc.org/math?Ring&#45;&gt;http://latin.omdoc.org/math?RingUnit</title>
<a xlink:title="include">
<path fill="none" stroke="black" d="M244.363,-412.418C249.035,-400.243 255.477,-383.453 260.856,-369.435"/>
<polygon fill="black" stroke="black" points="264.229,-370.414 264.544,-359.824 257.694,-367.907 264.229,-370.414"/>
</a>
</g>
<!-- http://latin.omdoc.org/math?RingUnitCommut -->
<g id="node3" class="node"><title>http://latin.omdoc.org/math?RingUnitCommut</title>
<a xlink:href="javascript:parent.navigate(&#39;http://latin.omdoc.org/math?RingUnitCommut&#39;)" xlink:title="theory http://latin.omdoc.org/math?RingUnitCommut">
<ellipse fill="none" stroke="black" cx="111" cy="-254" rx="74.6146" ry="18"/>
<text text-anchor="middle" x="111" y="-250.3" font-family="Times New Roman,serif" font-size="14.00">RingUnitCommut</text>
</a>
</g>
<!-- http://latin.omdoc.org/math?RightDistrib -->
<g id="node4" class="node"><title>http://latin.omdoc.org/math?RightDistrib</title>
<a xlink:href="javascript:parent.navigate(&#39;http://latin.omdoc.org/math?RightDistrib&#39;)" xlink:title="theory http://latin.omdoc.org/math?RightDistrib">
<ellipse fill="none" stroke="black" cx="404" cy="-606" rx="54.3924" ry="18"/>
<text text-anchor="middle" x="404" y="-602.3" font-family="Times New Roman,serif" font-size="14.00">RightDistrib</text>
</a>
</g>
<!-- http://latin.omdoc.org/math?Distrib -->
<g id="node7" class="node"><title>http://latin.omdoc.org/math?Distrib</title>
<a xlink:href="javascript:parent.navigate(&#39;http://latin.omdoc.org/math?Distrib&#39;)" xlink:title="theory http://latin.omdoc.org/math?Distrib">
<ellipse fill="none" stroke="black" cx="409" cy="-518" rx="35.1455" ry="18"/>
<text text-anchor="middle" x="409" y="-514.3" font-family="Times New Roman,serif" font-size="14.00">Distrib</text>
</a>
</g>
<!-- http://latin.omdoc.org/math?RightDistrib&#45;&gt;http://latin.omdoc.org/math?Distrib -->
<g id="edge33" class="edge"><title>http://latin.omdoc.org/math?RightDistrib&#45;&gt;http://latin.omdoc.org/math?Distrib</title>
<a xlink:href="javascript:parent.navigate(&#39;http://latin.omdoc.org/math?Distrib?left&#39;)" xlink:title="structure http://latin.omdoc.org/math?Distrib?left">
<path fill="none" stroke="red" stroke-width="2" d="M385.053,-589.115C375.834,-579.366 367.758,-566.408 373,-554 375.067,-549.107 378.19,-544.56 381.749,-540.472"/>
<polygon fill="red" stroke="red" points="384.403,-542.767 388.967,-533.205 379.437,-537.834 384.403,-542.767"/>
</a>
<a xlink:href="javascript:parent.navigate(&#39;http://latin.omdoc.org/math?Distrib?left&#39;)" xlink:title="left">
<text text-anchor="middle" x="382" y="-558.3" font-family="Times New Roman,serif" font-size="14.00">left</text>
</a>
</g>
<!-- http://latin.omdoc.org/math?RightDistrib&#45;&gt;http://latin.omdoc.org/math?Distrib -->
<g id="edge35" class="edge"><title>http://latin.omdoc.org/math?RightDistrib&#45;&gt;http://latin.omdoc.org/math?Distrib</title>
<a xlink:href="javascript:parent.navigate(&#39;http://latin.omdoc.org/math?Distrib?right&#39;)" xlink:title="structure http://latin.omdoc.org/math?Distrib?right">
<path fill="none" stroke="red" stroke-width="2" d="M399.702,-587.96C397.769,-578.029 396.269,-565.279 398,-554 398.42,-551.261 399.015,-548.443 399.714,-545.651"/>
<polygon fill="red" stroke="red" points="403.134,-546.423 402.567,-535.843 396.413,-544.467 403.134,-546.423"/>
</a>
<a xlink:href="javascript:parent.navigate(&#39;http://latin.omdoc.org/math?Distrib?right&#39;)" xlink:title="right">
<text text-anchor="middle" x="410.5" y="-558.3" font-family="Times New Roman,serif" font-size="14.00">right</text>
</a>
</g>
<!-- http://latin.omdoc.org/math?RingCommut&#45;&gt;http://latin.omdoc.org/math?RingUnitCommut -->
<g id="edge11" class="edge"><title>http://latin.omdoc.org/math?RingCommut&#45;&gt;http://latin.omdoc.org/math?RingUnitCommut</title>
<a xlink:title="include">
<path fill="none" stroke="black" d="M142.295,-324.009C136.793,-311.877 129.285,-295.32 123.001,-281.465"/>
<polygon fill="black" stroke="black" points="126.007,-279.617 118.689,-271.956 119.632,-282.508 126.007,-279.617"/>
</a>
</g>
<!-- http://latin.omdoc.org/math?Field -->
<g id="node12" class="node"><title>http://latin.omdoc.org/math?Field</title>
<a xlink:href="javascript:parent.navigate(&#39;http://latin.omdoc.org/math?Field&#39;)" xlink:title="theory http://latin.omdoc.org/math?Field">
<ellipse fill="none" stroke="black" cx="277" cy="-92" rx="28.3955" ry="18"/>
<text text-anchor="middle" x="277" y="-88.3" font-family="Times New Roman,serif" font-size="14.00">Field</text>
</a>
</g>
<!-- http://latin.omdoc.org/math?RingCommut&#45;&gt;http://latin.omdoc.org/math?Field -->
<g id="edge61" class="edge"><title>http://latin.omdoc.org/math?RingCommut&#45;&gt;http://latin.omdoc.org/math?Field</title>
<a xlink:href="javascript:parent.navigate(&#39;http://latin.omdoc.org/math?Field?com&#39;)" xlink:title="structure http://latin.omdoc.org/math?Field?com">
<path fill="none" stroke="red" stroke-width="2" d="M111.523,-328.146C66.9952,-311.005 2.69952,-277.895 27,-236 73.5053,-155.823 183.742,-116.781 241.031,-101.34"/>
<polygon fill="red" stroke="red" points="241.956,-104.716 250.752,-98.8101 240.193,-97.9415 241.956,-104.716"/>
</a>
<a xlink:href="javascript:parent.navigate(&#39;http://latin.omdoc.org/math?Field?com&#39;)" xlink:title="com">
<text text-anchor="middle" x="64.5" y="-206.3" font-family="Times New Roman,serif" font-size="14.00">com</text>
</a>
</g>
<!-- http://latin.omdoc.org/math?IntegralDomain -->
<g id="node6" class="node"><title>http://latin.omdoc.org/math?IntegralDomain</title>
<a xlink:href="javascript:parent.navigate(&#39;http://latin.omdoc.org/math?IntegralDomain&#39;)" xlink:title="theory http://latin.omdoc.org/math?IntegralDomain">
<ellipse fill="none" stroke="black" cx="418" cy="-166" rx="65.4659" ry="18"/>
<text text-anchor="middle" x="418" y="-162.3" font-family="Times New Roman,serif" font-size="14.00">IntegralDomain</text>
</a>
</g>
<!-- http://latin.omdoc.org/math?Distrib&#45;&gt;http://latin.omdoc.org/math?Ring -->
<g id="edge3" class="edge"><title>http://latin.omdoc.org/math?Distrib&#45;&gt;http://latin.omdoc.org/math?Ring</title>
<a xlink:href="javascript:parent.navigate(&#39;http://latin.omdoc.org/math?Ring?dis&#39;)" xlink:title="structure http://latin.omdoc.org/math?Ring?dis">
<path fill="none" stroke="red" stroke-width="2" d="M381.022,-506.867C363.966,-500.384 341.889,-491.44 323,-482 303.127,-472.068 281.682,-459.184 265.304,-448.851"/>
<polygon fill="red" stroke="red" points="267.082,-445.834 256.769,-443.408 263.318,-451.736 267.082,-445.834"/>
</a>
<a xlink:href="javascript:parent.navigate(&#39;http://latin.omdoc.org/math?Ring?dis&#39;)" xlink:title="dis">
<text text-anchor="middle" x="331.5" y="-470.3" font-family="Times New Roman,serif" font-size="14.00">dis</text>
</a>
</g>
<!-- http://latin.omdoc.org/math?LieRing -->
<g id="node13" class="node"><title>http://latin.omdoc.org/math?LieRing</title>
<a xlink:href="javascript:parent.navigate(&#39;http://latin.omdoc.org/math?LieRing&#39;)" xlink:title="theory http://latin.omdoc.org/math?LieRing">
<ellipse fill="none" stroke="black" cx="323" cy="-430" rx="38.4949" ry="18"/>
<text text-anchor="middle" x="323" y="-426.3" font-family="Times New Roman,serif" font-size="14.00">LieRing</text>
</a>
</g>
<!-- http://latin.omdoc.org/math?Distrib&#45;&gt;http://latin.omdoc.org/math?LieRing -->
<g id="edge69" class="edge"><title>http://latin.omdoc.org/math?Distrib&#45;&gt;http://latin.omdoc.org/math?LieRing</title>
<a xlink:href="javascript:parent.navigate(&#39;http://latin.omdoc.org/math?LieRing?bilinearity&#39;)" xlink:title="structure http://latin.omdoc.org/math?LieRing?bilinearity">
<path fill="none" stroke="red" stroke-width="2" d="M385.543,-504.403C375.723,-498.43 364.614,-490.695 356,-482 348.618,-474.549 341.991,-465.19 336.647,-456.53"/>
<polygon fill="red" stroke="red" points="339.644,-454.722 331.564,-447.868 333.607,-458.264 339.644,-454.722"/>
</a>
<a xlink:href="javascript:parent.navigate(&#39;http://latin.omdoc.org/math?LieRing?bilinearity&#39;)" xlink:title="bilinearity">
<text text-anchor="middle" x="383" y="-470.3" font-family="Times New Roman,serif" font-size="14.00">bilinearity</text>
</a>
</g>
<!-- http://latin.omdoc.org/math?JordanRing -->
<g id="node14" class="node"><title>http://latin.omdoc.org/math?JordanRing</title>
<a xlink:href="javascript:parent.navigate(&#39;http://latin.omdoc.org/math?JordanRing&#39;)" xlink:title="theory http://latin.omdoc.org/math?JordanRing">
<ellipse fill="none" stroke="black" cx="432" cy="-430" rx="51.4931" ry="18"/>
<text text-anchor="middle" x="432" y="-426.3" font-family="Times New Roman,serif" font-size="14.00">JordanRing</text>
</a>
</g>
<!-- http://latin.omdoc.org/math?Distrib&#45;&gt;http://latin.omdoc.org/math?JordanRing -->
<g id="edge77" class="edge"><title>http://latin.omdoc.org/math?Distrib&#45;&gt;http://latin.omdoc.org/math?JordanRing</title>
<a xlink:href="javascript:parent.navigate(&#39;http://latin.omdoc.org/math?JordanRing?bilinearity&#39;)" xlink:title="structure http://latin.omdoc.org/math?JordanRing?bilinearity">
<path fill="none" stroke="red" stroke-width="2" d="M413.544,-500.009C416.757,-487.995 421.131,-471.641 424.814,-457.869"/>
<polygon fill="red" stroke="red" points="428.263,-458.52 427.465,-447.956 421.501,-456.712 428.263,-458.52"/>
</a>
<a xlink:href="javascript:parent.navigate(&#39;http://latin.omdoc.org/math?JordanRing?bilinearity&#39;)" xlink:title="bilinearity">
<text text-anchor="middle" x="450" y="-470.3" font-family="Times New Roman,serif" font-size="14.00">bilinearity</text>
</a>
</g>
<!-- http://latin.omdoc.org/math?DifferentialRing -->
<g id="node8" class="node"><title>http://latin.omdoc.org/math?DifferentialRing</title>
<a xlink:href="javascript:parent.navigate(&#39;http://latin.omdoc.org/math?DifferentialRing&#39;)" xlink:title="theory http://latin.omdoc.org/math?DifferentialRing">
<ellipse fill="none" stroke="black" cx="271" cy="-254" rx="67.3907" ry="18"/>
<text text-anchor="middle" x="271" y="-250.3" font-family="Times New Roman,serif" font-size="14.00">DifferentialRing</text>
</a>
</g>
<!-- http://latin.omdoc.org/math?RingDivision -->
<g id="node9" class="node"><title>http://latin.omdoc.org/math?RingDivision</title>
<a xlink:href="javascript:parent.navigate(&#39;http://latin.omdoc.org/math?RingDivision&#39;)" xlink:title="theory http://latin.omdoc.org/math?RingDivision">
<ellipse fill="none" stroke="black" cx="277" cy="-166" rx="57.2688" ry="18"/>
<text text-anchor="middle" x="277" y="-162.3" font-family="Times New Roman,serif" font-size="14.00">RingDivision</text>
</a>
</g>
<!-- http://latin.omdoc.org/math?RingDivision&#45;&gt;http://latin.omdoc.org/math?Field -->
<g id="edge65" class="edge"><title>http://latin.omdoc.org/math?RingDivision&#45;&gt;http://latin.omdoc.org/math?Field</title>
<a xlink:title="include">
<path fill="none" stroke="black" d="M277,-147.937C277,-139.807 277,-129.876 277,-120.705"/>
<polygon fill="black" stroke="black" points="280.5,-120.441 277,-110.441 273.5,-120.441 280.5,-120.441"/>
</a>
</g>
<!-- http://latin.omdoc.org/math?RingUnitLogic -->
<g id="node10" class="node"><title>http://latin.omdoc.org/math?RingUnitLogic</title>
<a xlink:href="javascript:parent.navigate(&#39;http://latin.omdoc.org/math?RingUnitLogic&#39;)" xlink:title="theory http://latin.omdoc.org/math?RingUnitLogic">
<ellipse fill="none" stroke="black" cx="420" cy="-254" rx="63.5411" ry="18"/>
<text text-anchor="middle" x="420" y="-250.3" font-family="Times New Roman,serif" font-size="14.00">RingUnitLogic</text>
</a>
</g>
<!-- http://latin.omdoc.org/math?RingUnitLogic&#45;&gt;http://latin.omdoc.org/math?IntegralDomain -->
<g id="edge29" class="edge"><title>http://latin.omdoc.org/math?RingUnitLogic&#45;&gt;http://latin.omdoc.org/math?IntegralDomain</title>
<a xlink:title="include">
<path fill="none" stroke="black" d="M419.595,-235.597C419.32,-223.746 418.949,-207.817 418.635,-194.292"/>
<polygon fill="black" stroke="black" points="422.129,-194 418.397,-184.084 415.131,-194.163 422.129,-194"/>
</a>
</g>
<!-- http://latin.omdoc.org/math?RingUnitLogic&#45;&gt;http://latin.omdoc.org/math?RingDivision -->
<g id="edge47" class="edge"><title>http://latin.omdoc.org/math?RingUnitLogic&#45;&gt;http://latin.omdoc.org/math?RingDivision</title>
<a xlink:title="include">
<path fill="none" stroke="black" d="M394.104,-237.426C370.921,-223.484 336.76,-202.939 311.31,-187.634"/>
<polygon fill="black" stroke="black" points="313.077,-184.613 302.704,-182.458 309.469,-190.611 313.077,-184.613"/>
</a>
</g>
<!-- http://latin.omdoc.org/math?RingUnit&#45;&gt;http://latin.omdoc.org/math?RingUnitCommut -->
<g id="edge13" class="edge"><title>http://latin.omdoc.org/math?RingUnit&#45;&gt;http://latin.omdoc.org/math?RingUnitCommut</title>
<a xlink:title="include">
<path fill="none" stroke="black" d="M245.648,-327.373C219.615,-313.38 178.793,-291.439 148.917,-275.381"/>
<polygon fill="black" stroke="black" points="150.491,-272.253 140.026,-270.601 147.177,-278.419 150.491,-272.253"/>
</a>
</g>
<!-- http://latin.omdoc.org/math?RingUnit&#45;&gt;http://latin.omdoc.org/math?DifferentialRing -->
<g id="edge43" class="edge"><title>http://latin.omdoc.org/math?RingUnit&#45;&gt;http://latin.omdoc.org/math?DifferentialRing</title>
<a xlink:title="include">
<path fill="none" stroke="black" d="M271,-323.597C271,-311.746 271,-295.817 271,-282.292"/>
<polygon fill="black" stroke="black" points="274.5,-282.084 271,-272.084 267.5,-282.084 274.5,-282.084"/>
</a>
</g>
<!-- http://latin.omdoc.org/math?RingUnit&#45;&gt;http://latin.omdoc.org/math?RingUnitLogic -->
<g id="edge51" class="edge"><title>http://latin.omdoc.org/math?RingUnit&#45;&gt;http://latin.omdoc.org/math?RingUnitLogic</title>
<a xlink:href="javascript:parent.navigate(&#39;http://latin.omdoc.org/math?RingUnitLogic?ring&#39;)" xlink:title="structure http://latin.omdoc.org/math?RingUnitLogic?ring">
<path fill="none" stroke="red" stroke-width="2" d="M290.825,-325.99C305.399,-315.293 325.908,-300.932 345,-290 355.126,-284.202 366.376,-278.56 377.016,-273.559"/>
<polygon fill="red" stroke="red" points="378.55,-276.706 386.167,-269.341 375.62,-270.348 378.55,-276.706"/>
</a>
<a xlink:href="javascript:parent.navigate(&#39;http://latin.omdoc.org/math?RingUnitLogic?ring&#39;)" xlink:title="ring">
<text text-anchor="middle" x="356" y="-294.3" font-family="Times New Roman,serif" font-size="14.00">ring</text>
</a>
</g>
<!-- http://latin.omdoc.org/math?Rat -->
<g id="node53" class="node"><title>http://latin.omdoc.org/math?Rat</title>
<a xlink:href="javascript:parent.navigate(&#39;http://latin.omdoc.org/math?Rat&#39;)" xlink:title="theory http://latin.omdoc.org/math?Rat">
<ellipse fill="gray" stroke="black" cx="277" cy="-18" rx="27" ry="18"/>
<text text-anchor="middle" x="277" y="-14.3" font-family="Times New Roman,serif" font-size="14.00">Rat</text>
</a>
</g>
<!-- http://latin.omdoc.org/math?Field&#45;&gt;http://latin.omdoc.org/math?Rat -->
<g id="edge63" class="edge"><title>http://latin.omdoc.org/math?Field&#45;&gt;http://latin.omdoc.org/math?Rat</title>
<a xlink:title="include">
<path fill="none" stroke="black" d="M277,-73.937C277,-65.8072 277,-55.8761 277,-46.7047"/>
<polygon fill="black" stroke="black" points="280.5,-46.4406 277,-36.4407 273.5,-46.4407 280.5,-46.4406"/>
</a>
</g>
<!-- http://latin.omdoc.org/math?Semigroup -->
<g id="node16" class="node"><title>http://latin.omdoc.org/math?Semigroup</title>
<a xlink:href="javascript:parent.navigate(&#39;http://latin.omdoc.org/math?Semigroup&#39;)" xlink:title="theory http://latin.omdoc.org/math?Semigroup">
<ellipse fill="gray" stroke="black" cx="550" cy="-518" rx="50.0684" ry="18"/>
<text text-anchor="middle" x="550" y="-514.3" font-family="Times New Roman,serif" font-size="14.00">Semigroup</text>
</a>
</g>
<!-- http://latin.omdoc.org/math?Semigroup&#45;&gt;http://latin.omdoc.org/math?Ring -->
<g id="edge5" class="edge"><title>http://latin.omdoc.org/math?Semigroup&#45;&gt;http://latin.omdoc.org/math?Ring</title>
<a xlink:href="javascript:parent.navigate(&#39;http://latin.omdoc.org/math?Ring?mult&#39;)" xlink:title="structure http://latin.omdoc.org/math?Ring?mult">
<path fill="none" stroke="red" stroke-width="2" d="M536.612,-500.594C525.899,-488.747 509.769,-473.555 492,-466 402.94,-428.134 368.604,-472.573 275,-448 272.692,-447.394 270.35,-446.653 268.022,-445.822"/>
<polygon fill="red" stroke="red" points="269.244,-442.54 258.662,-442.021 266.611,-449.026 269.244,-442.54"/>
</a>
<a xlink:href="javascript:parent.navigate(&#39;http://latin.omdoc.org/math?Ring?mult&#39;)" xlink:title="mult">
<text text-anchor="middle" x="529.5" y="-470.3" font-family="Times New Roman,serif" font-size="14.00">mult</text>
</a>
</g>
<!-- http://latin.omdoc.org/math?AbelianGroup -->
<g id="node18" class="node"><title>http://latin.omdoc.org/math?AbelianGroup</title>
<a xlink:href="javascript:parent.navigate(&#39;http://latin.omdoc.org/math?AbelianGroup&#39;)" xlink:title="theory http://latin.omdoc.org/math?AbelianGroup">
<ellipse fill="gray" stroke="black" cx="779" cy="-518" rx="61.6163" ry="18"/>
<text text-anchor="middle" x="779" y="-514.3" font-family="Times New Roman,serif" font-size="14.00">AbelianGroup</text>
</a>
</g>
<!-- http://latin.omdoc.org/math?AbelianGroup&#45;&gt;http://latin.omdoc.org/math?Ring -->
<g id="edge7" class="edge"><title>http://latin.omdoc.org/math?AbelianGroup&#45;&gt;http://latin.omdoc.org/math?Ring</title>
<a xlink:title="include">
<path fill="none" stroke="black" d="M735.122,-505.342C688.548,-493.452 612.623,-475.45 546,-466 426.486,-449.048 392.002,-477.69 275,-448 272.687,-447.413 270.342,-446.686 268.011,-445.865"/>
<polygon fill="black" stroke="black" points="269.229,-442.582 258.646,-442.085 266.609,-449.073 269.229,-442.582"/>
</a>
</g>
<!-- http://latin.omdoc.org/math?AbelianGroup&#45;&gt;http://latin.omdoc.org/math?LieRing -->
<g id="edge73" class="edge"><title>http://latin.omdoc.org/math?AbelianGroup&#45;&gt;http://latin.omdoc.org/math?LieRing</title>
<a xlink:title="include">
<path fill="none" stroke="black" d="M760.85,-500.67C746.332,-488.696 724.852,-473.305 703,-466 632.925,-442.576 443.453,-462.481 371,-448 367.603,-447.321 364.121,-446.452 360.66,-445.466"/>
<polygon fill="black" stroke="black" points="361.638,-442.104 351.049,-442.442 359.537,-448.782 361.638,-442.104"/>
</a>
</g>
<!-- http://latin.omdoc.org/math?AbelianGroup&#45;&gt;http://latin.omdoc.org/math?JordanRing -->
<g id="edge81" class="edge"><title>http://latin.omdoc.org/math?AbelianGroup&#45;&gt;http://latin.omdoc.org/math?JordanRing</title>
<a xlink:title="include">
<path fill="none" stroke="black" d="M770.351,-500.121C763.341,-488.36 752.289,-473.487 738,-466 688.466,-440.046 541.96,-458.324 487,-448 483.759,-447.391 480.439,-446.657 477.115,-445.839"/>
<polygon fill="black" stroke="black" points="477.77,-442.391 467.205,-443.18 475.956,-449.152 477.77,-442.391"/>
</a>
</g>
<!-- http://latin.omdoc.org/math?EqUniverse -->
<g id="node20" class="node"><title>http://latin.omdoc.org/math?EqUniverse</title>
<a xlink:href="javascript:parent.navigate(&#39;http://latin.omdoc.org/math?EqUniverse&#39;)" xlink:title="theory http://latin.omdoc.org/math?EqUniverse">
<ellipse fill="gray" stroke="black" cx="869" cy="-680" rx="52.4675" ry="18"/>
<text text-anchor="middle" x="869" y="-676.3" font-family="Times New Roman,serif" font-size="14.00">EqUniverse</text>
</a>
</g>
<!-- http://latin.omdoc.org/math?EqUniverse&#45;&gt;http://latin.omdoc.org/math?Ring -->
<g id="edge9" class="edge"><title>http://latin.omdoc.org/math?EqUniverse&#45;&gt;http://latin.omdoc.org/math?Ring</title>
<a xlink:title="meta">
<path fill="none" stroke="green" d="M837.15,-665.61C815.145,-656.304 785.229,-643.549 759,-632 682.18,-598.175 667.05,-579.25 587,-554 545.6,-540.941 524.369,-563.766 491,-536 465.368,-514.672 490.57,-486.148 464,-466 430.383,-440.507 315.741,-458.961 275,-448 272.696,-447.38 270.357,-446.628 268.031,-445.79"/>
<polygon fill="green" stroke="green" points="269.256,-442.51 258.675,-441.974 266.612,-448.991 269.256,-442.51"/>
</a>
</g>
<!-- http://latin.omdoc.org/math?EqUniverse&#45;&gt;http://latin.omdoc.org/math?RingUnitCommut -->
<g id="edge15" class="edge"><title>http://latin.omdoc.org/math?EqUniverse&#45;&gt;http://latin.omdoc.org/math?RingUnitCommut</title>
<a xlink:title="meta">
<path fill="none" stroke="green" d="M921.476,-678.888C1018.69,-677.254 1217,-666.614 1217,-607 1217,-607 1217,-607 1217,-341 1217,-284.038 250.447,-279.649 194,-272 187.341,-271.098 180.415,-269.976 173.53,-268.742"/>
<polygon fill="green" stroke="green" points="173.98,-265.265 163.507,-266.866 172.692,-272.146 173.98,-265.265"/>
</a>
</g>
<!-- http://latin.omdoc.org/math?EqUniverse&#45;&gt;http://latin.omdoc.org/math?RightDistrib -->
<g id="edge21" class="edge"><title>http://latin.omdoc.org/math?EqUniverse&#45;&gt;http://latin.omdoc.org/math?RightDistrib</title>
<a xlink:title="meta">
<path fill="none" stroke="green" d="M817.022,-677.827C738.758,-674.986 586.557,-665.264 462,-632 455.381,-630.232 448.537,-627.838 441.973,-625.229"/>
<polygon fill="green" stroke="green" points="443.191,-621.944 432.616,-621.299 440.481,-628.398 443.191,-621.944"/>
</a>
</g>
<!-- http://latin.omdoc.org/math?EqUniverse&#45;&gt;http://latin.omdoc.org/math?RingCommut -->
<g id="edge27" class="edge"><title>http://latin.omdoc.org/math?EqUniverse&#45;&gt;http://latin.omdoc.org/math?RingCommut</title>
<a xlink:title="meta">
<path fill="none" stroke="green" d="M921.206,-678.496C972.459,-674.907 1043,-660.289 1043,-607 1043,-607 1043,-607 1043,-429 1043,-323.427 915.77,-390.994 811,-378 549.769,-345.602 479.803,-395.684 219,-360 213.499,-359.247 207.801,-358.234 202.143,-357.075"/>
<polygon fill="green" stroke="green" points="202.575,-353.586 192.056,-354.856 201.071,-360.423 202.575,-353.586"/>
</a>
</g>
<!-- http://latin.omdoc.org/math?EqUniverse&#45;&gt;http://latin.omdoc.org/math?Distrib -->
<g id="edge41" class="edge"><title>http://latin.omdoc.org/math?EqUniverse&#45;&gt;http://latin.omdoc.org/math?Distrib</title>
<a xlink:title="meta">
<path fill="none" stroke="green" d="M818.238,-675.592C759.536,-670.921 667.108,-661.096 637,-644 591.722,-618.29 607.427,-579.446 562,-554 517.248,-528.932 497.242,-550.364 448,-536 446.538,-535.573 445.058,-535.105 443.573,-534.605"/>
<polygon fill="green" stroke="green" points="444.418,-531.184 433.826,-530.937 441.953,-537.735 444.418,-531.184"/>
</a>
</g>
<!-- http://latin.omdoc.org/math?EqUniverse&#45;&gt;http://latin.omdoc.org/math?DifferentialRing -->
<g id="edge45" class="edge"><title>http://latin.omdoc.org/math?EqUniverse&#45;&gt;http://latin.omdoc.org/math?DifferentialRing</title>
<a xlink:title="meta">
<path fill="none" stroke="green" d="M921.318,-679.426C1008.82,-679.245 1180.27,-674.814 1231,-644 1247.75,-633.824 1255,-626.601 1255,-607 1255,-607 1255,-607 1255,-341 1255,-315.949 1252.01,-303.637 1231,-290 1189.8,-263.259 395.767,-277.891 347,-272 340.746,-271.245 334.251,-270.201 327.809,-268.999"/>
<polygon fill="green" stroke="green" points="328.265,-265.521 317.774,-266.999 326.897,-272.386 328.265,-265.521"/>
</a>
</g>
<!-- http://latin.omdoc.org/math?EqUniverse&#45;&gt;http://latin.omdoc.org/math?RingUnit -->
<g id="edge59" class="edge"><title>http://latin.omdoc.org/math?EqUniverse&#45;&gt;http://latin.omdoc.org/math?RingUnit</title>
<a xlink:title="meta">
<path fill="none" stroke="green" d="M918.724,-674.208C966.582,-668.812 1034.86,-658.817 1057,-644 1073.29,-633.099 1081,-626.601 1081,-607 1081,-607 1081,-607 1081,-429 1081,-403.949 1077.99,-391.679 1057,-378 1022.55,-355.545 357.39,-367.733 317,-360 314.512,-359.524 311.981,-358.929 309.451,-358.249"/>
<polygon fill="green" stroke="green" points="310.375,-354.871 299.787,-355.278 308.317,-361.562 310.375,-354.871"/>
</a>
</g>
<!-- http://latin.omdoc.org/math?EqUniverse&#45;&gt;http://latin.omdoc.org/math?LieRing -->
<g id="edge75" class="edge"><title>http://latin.omdoc.org/math?EqUniverse&#45;&gt;http://latin.omdoc.org/math?LieRing</title>
<a xlink:title="meta">
<path fill="none" stroke="green" d="M851.071,-663.048C798.748,-616.922 646.042,-485.433 584,-466 493.339,-437.603 463.87,-468.022 371,-448 367.759,-447.301 364.438,-446.443 361.129,-445.486"/>
<polygon fill="green" stroke="green" points="361.924,-442.066 351.334,-442.382 359.81,-448.739 361.924,-442.066"/>
</a>
</g>
<!-- http://latin.omdoc.org/math?EqUniverse&#45;&gt;http://latin.omdoc.org/math?JordanRing -->
<g id="edge83" class="edge"><title>http://latin.omdoc.org/math?EqUniverse&#45;&gt;http://latin.omdoc.org/math?JordanRing</title>
<a xlink:title="meta">
<path fill="none" stroke="green" d="M872.43,-661.846C878.304,-627.277 886.321,-548.418 849,-500 792.14,-426.233 587.19,-466.51 487,-448 483.757,-447.401 480.436,-446.674 477.111,-445.861"/>
<polygon fill="green" stroke="green" points="477.763,-442.413 467.199,-443.212 475.956,-449.176 477.763,-442.413"/>
</a>
</g>
<!-- http://latin.omdoc.org/math?Magma -->
<g id="node25" class="node"><title>http://latin.omdoc.org/math?Magma</title>
<a xlink:href="javascript:parent.navigate(&#39;http://latin.omdoc.org/math?Magma&#39;)" xlink:title="theory http://latin.omdoc.org/math?Magma">
<ellipse fill="gray" stroke="black" cx="545" cy="-606" rx="37.5442" ry="18"/>
<text text-anchor="middle" x="545" y="-602.3" font-family="Times New Roman,serif" font-size="14.00">Magma</text>
</a>
</g>
<!-- http://latin.omdoc.org/math?Magma&#45;&gt;http://latin.omdoc.org/math?RightDistrib -->
<g id="edge17" class="edge"><title>http://latin.omdoc.org/math?Magma&#45;&gt;http://latin.omdoc.org/math?RightDistrib</title>
<a xlink:href="javascript:parent.navigate(&#39;http://latin.omdoc.org/math?RightDistrib?mag2&#39;)" xlink:title="structure http://latin.omdoc.org/math?RightDistrib?mag2">
<path fill="none" stroke="red" stroke-width="2" d="M507.64,-606C495.651,-606 482.007,-606 468.645,-606"/>
<polygon fill="red" stroke="red" points="468.514,-602.5 458.514,-606 468.514,-609.5 468.514,-602.5"/>
</a>
<a xlink:href="javascript:parent.navigate(&#39;http://latin.omdoc.org/math?RightDistrib?mag2&#39;)" xlink:title="mag2">
<text text-anchor="middle" x="482.652" y="-612.8" font-family="Times New Roman,serif" font-size="14.00">mag2</text>
</a>
</g>
<!-- http://latin.omdoc.org/math?Magma&#45;&gt;http://latin.omdoc.org/math?RightDistrib -->
<g id="edge19" class="edge"><title>http://latin.omdoc.org/math?Magma&#45;&gt;http://latin.omdoc.org/math?RightDistrib</title>
<a xlink:href="javascript:parent.navigate(&#39;http://latin.omdoc.org/math?RightDistrib?mag1&#39;)" xlink:title="structure http://latin.omdoc.org/math?RightDistrib?mag1">
<path fill="none" stroke="red" stroke-width="2" d="M517.744,-593.609C511.437,-591.285 504.663,-589.208 498.152,-588 482.582,-585.112 465.578,-586.858 450.358,-590.192"/>
<polygon fill="red" stroke="red" points="449.522,-586.793 440.647,-592.579 451.193,-593.59 449.522,-586.793"/>
</a>
<a xlink:href="javascript:parent.navigate(&#39;http://latin.omdoc.org/math?RightDistrib?mag1&#39;)" xlink:title="mag1">
<text text-anchor="middle" x="482.652" y="-591.8" font-family="Times New Roman,serif" font-size="14.00">mag1</text>
</a>
</g>
<!-- http://latin.omdoc.org/math?Magma&#45;&gt;http://latin.omdoc.org/math?Distrib -->
<g id="edge37" class="edge"><title>http://latin.omdoc.org/math?Magma&#45;&gt;http://latin.omdoc.org/math?Distrib</title>
<a xlink:href="javascript:parent.navigate(&#39;http://latin.omdoc.org/math?Distrib?mag2&#39;)" xlink:title="structure http://latin.omdoc.org/math?Distrib?mag2">
<path fill="none" stroke="red" stroke-width="2" d="M520.306,-592.355C508.262,-585.972 493.674,-577.917 481,-570 465.76,-560.48 449.369,-548.976 436.082,-539.306"/>
<polygon fill="red" stroke="red" points="437.973,-536.352 427.842,-533.255 433.83,-541.995 437.973,-536.352"/>
</a>
<a xlink:href="javascript:parent.navigate(&#39;http://latin.omdoc.org/math?Distrib?mag2&#39;)" xlink:title="mag2">
<text text-anchor="middle" x="496.5" y="-558.3" font-family="Times New Roman,serif" font-size="14.00">mag2</text>
</a>
</g>
<!-- http://latin.omdoc.org/math?Magma&#45;&gt;http://latin.omdoc.org/math?Distrib -->
<g id="edge39" class="edge"><title>http://latin.omdoc.org/math?Magma&#45;&gt;http://latin.omdoc.org/math?Distrib</title>
<a xlink:href="javascript:parent.navigate(&#39;http://latin.omdoc.org/math?Distrib?mag1&#39;)" xlink:title="structure http://latin.omdoc.org/math?Distrib?mag1">
<path fill="none" stroke="red" stroke-width="2" d="M537.896,-587.987C532.388,-576.782 523.714,-562.637 512,-554 488.217,-536.465 475.831,-545.927 448,-536 446.609,-535.504 445.197,-534.981 443.776,-534.44"/>
<polygon fill="red" stroke="red" points="444.977,-531.15 434.393,-530.664 442.363,-537.644 444.977,-531.15"/>
</a>
<a xlink:href="javascript:parent.navigate(&#39;http://latin.omdoc.org/math?Distrib?mag1&#39;)" xlink:title="mag1">
<text text-anchor="middle" x="542.5" y="-558.3" font-family="Times New Roman,serif" font-size="14.00">mag1</text>
</a>
</g>
<!-- http://latin.omdoc.org/math?Magma&#45;&gt;http://latin.omdoc.org/math?LieRing -->
<g id="edge71" class="edge"><title>http://latin.omdoc.org/math?Magma&#45;&gt;http://latin.omdoc.org/math?LieRing</title>
<a xlink:href="javascript:parent.navigate(&#39;http://latin.omdoc.org/math?LieRing?mult&#39;)" xlink:title="structure http://latin.omdoc.org/math?LieRing?mult">
<path fill="none" stroke="red" stroke-width="2" d="M565.054,-590.444C590.355,-570.222 628.361,-532.45 609,-500 592.697,-472.677 576.409,-475.363 546,-466 471.274,-442.992 447.279,-465.173 371,-448 367.766,-447.272 364.449,-446.392 361.143,-445.421"/>
<polygon fill="red" stroke="red" points="361.945,-442.003 351.354,-442.294 359.814,-448.671 361.945,-442.003"/>
</a>
<a xlink:href="javascript:parent.navigate(&#39;http://latin.omdoc.org/math?LieRing?mult&#39;)" xlink:title="mult">
<text text-anchor="middle" x="626.5" y="-514.3" font-family="Times New Roman,serif" font-size="14.00">mult</text>
</a>
</g>
<!-- http://latin.omdoc.org/math?Commutative -->
<g id="node29" class="node"><title>http://latin.omdoc.org/math?Commutative</title>
<a xlink:href="javascript:parent.navigate(&#39;http://latin.omdoc.org/math?Commutative&#39;)" xlink:title="theory http://latin.omdoc.org/math?Commutative">
<ellipse fill="gray" stroke="black" cx="956" cy="-518" rx="59.2173" ry="18"/>
<text text-anchor="middle" x="956" y="-514.3" font-family="Times New Roman,serif" font-size="14.00">Commutative</text>
</a>
</g>
<!-- http://latin.omdoc.org/math?Commutative&#45;&gt;http://latin.omdoc.org/math?RingCommut -->
<g id="edge23" class="edge"><title>http://latin.omdoc.org/math?Commutative&#45;&gt;http://latin.omdoc.org/math?RingCommut</title>
<a xlink:href="javascript:parent.navigate(&#39;http://latin.omdoc.org/math?RingCommut?mc&#39;)" xlink:title="structure http://latin.omdoc.org/math?RingCommut?mc">
<path fill="none" stroke="red" stroke-width="2" d="M953.363,-499.67C950.699,-488.323 945.41,-474.139 935,-466 681.575,-267.857 534.639,-422.103 219,-360 213.91,-358.999 208.631,-357.867 203.362,-356.676"/>
<polygon fill="red" stroke="red" points="203.827,-353.191 193.294,-354.33 202.238,-360.008 203.827,-353.191"/>
</a>
<a xlink:href="javascript:parent.navigate(&#39;http://latin.omdoc.org/math?RingCommut?mc&#39;)" xlink:title="mc">
<text text-anchor="middle" x="919" y="-426.3" font-family="Times New Roman,serif" font-size="14.00">mc</text>
</a>
</g>
<!-- http://latin.omdoc.org/math?Commutative&#45;&gt;http://latin.omdoc.org/math?JordanRing -->
<g id="edge79" class="edge"><title>http://latin.omdoc.org/math?Commutative&#45;&gt;http://latin.omdoc.org/math?JordanRing</title>
<a xlink:href="javascript:parent.navigate(&#39;http://latin.omdoc.org/math?JordanRing?mult&#39;)" xlink:title="structure http://latin.omdoc.org/math?JordanRing?mult">
<path fill="none" stroke="red" stroke-width="2" d="M934.639,-501.165C915.234,-486.931 888.782,-467.965 883,-466 799.594,-437.654 573.782,-463.129 487,-448 483.751,-447.434 480.425,-446.731 477.097,-445.936"/>
<polygon fill="red" stroke="red" points="477.741,-442.486 467.179,-443.321 475.956,-449.255 477.741,-442.486"/>
</a>
<a xlink:href="javascript:parent.navigate(&#39;http://latin.omdoc.org/math?JordanRing?mult&#39;)" xlink:title="mult">
<text text-anchor="middle" x="918.5" y="-470.3" font-family="Times New Roman,serif" font-size="14.00">mult</text>
</a>
</g>
<!-- http://latin.omdoc.org/logics/proof_theory?InEqLogic -->
<g id="node34" class="node"><title>http://latin.omdoc.org/logics/proof_theory?InEqLogic</title>
<a xlink:href="javascript:parent.navigate(&#39;http://latin.omdoc.org/logics/proof_theory?InEqLogic&#39;)" xlink:title="theory http://latin.omdoc.org/logics/proof_theory?InEqLogic">
<ellipse fill="gray" stroke="black" cx="551" cy="-254" rx="49.0941" ry="18"/>
<text text-anchor="middle" x="551" y="-250.3" font-family="Times New Roman,serif" font-size="14.00">InEqLogic</text>
</a>
</g>
<!-- http://latin.omdoc.org/logics/proof_theory?InEqLogic&#45;&gt;http://latin.omdoc.org/math?IntegralDomain -->
<g id="edge31" class="edge"><title>http://latin.omdoc.org/logics/proof_theory?InEqLogic&#45;&gt;http://latin.omdoc.org/math?IntegralDomain</title>
<a xlink:title="meta">
<path fill="none" stroke="green" d="M527.833,-238.02C506.622,-224.305 474.993,-203.853 451.117,-188.414"/>
<polygon fill="green" stroke="green" points="453.002,-185.465 442.705,-182.974 449.202,-191.343 453.002,-185.465"/>
</a>
</g>
<!-- http://latin.omdoc.org/logics/proof_theory?InEqLogic&#45;&gt;http://latin.omdoc.org/math?RingDivision -->
<g id="edge49" class="edge"><title>http://latin.omdoc.org/logics/proof_theory?InEqLogic&#45;&gt;http://latin.omdoc.org/math?RingDivision</title>
<a xlink:title="meta">
<path fill="none" stroke="green" d="M514.898,-241.669C466.469,-226.468 380.296,-199.421 326.031,-182.389"/>
<polygon fill="green" stroke="green" points="326.875,-178.986 316.286,-179.331 324.779,-185.665 326.875,-178.986"/>
</a>
</g>
<!-- http://latin.omdoc.org/logics/proof_theory?InEqLogic&#45;&gt;http://latin.omdoc.org/math?Field -->
<g id="edge67" class="edge"><title>http://latin.omdoc.org/logics/proof_theory?InEqLogic&#45;&gt;http://latin.omdoc.org/math?Field</title>
<a xlink:title="meta">
<path fill="none" stroke="green" d="M546.129,-236.009C538.516,-212.573 521.525,-170.662 492,-148 439.97,-108.063 362.062,-96.9199 315.702,-93.9359"/>
<polygon fill="green" stroke="green" points="315.646,-90.4277 305.47,-93.3773 315.265,-97.4173 315.646,-90.4277"/>
</a>
</g>
<!-- http://latin.omdoc.org/logics/proof_theory?EqLogic -->
<g id="node46" class="node"><title>http://latin.omdoc.org/logics/proof_theory?EqLogic</title>
<a xlink:href="javascript:parent.navigate(&#39;http://latin.omdoc.org/logics/proof_theory?EqLogic&#39;)" xlink:title="theory http://latin.omdoc.org/logics/proof_theory?EqLogic">
<ellipse fill="gray" stroke="black" cx="1325" cy="-342" rx="42.3701" ry="18"/>
<text text-anchor="middle" x="1325" y="-338.3" font-family="Times New Roman,serif" font-size="14.00">EqLogic</text>
</a>
</g>
<!-- http://latin.omdoc.org/logics/proof_theory?EqLogic&#45;&gt;http://latin.omdoc.org/math?RingUnitLogic -->
<g id="edge53" class="edge"><title>http://latin.omdoc.org/logics/proof_theory?EqLogic&#45;&gt;http://latin.omdoc.org/math?RingUnitLogic</title>
<a xlink:title="meta">
<path fill="none" stroke="green" d="M1312.32,-324.298C1302.1,-312.296 1286.58,-297.039 1269,-290 1188.32,-257.693 573.112,-283.762 487,-272 482.27,-271.354 477.392,-270.498 472.527,-269.513"/>
<polygon fill="green" stroke="green" points="473.126,-266.062 462.608,-267.337 471.625,-272.899 473.126,-266.062"/>
</a>
</g>
<!-- http://latin.omdoc.org/logics/proof_theory?EqLogic&#45;&gt;http://latin.omdoc.org/logics/proof_theory?InEqLogic -->
<g id="edge85" class="edge"><title>http://latin.omdoc.org/logics/proof_theory?EqLogic&#45;&gt;http://latin.omdoc.org/logics/proof_theory?InEqLogic</title>
<a xlink:title="include">
<path fill="none" stroke="black" d="M1321.02,-323.722C1317.37,-312.089 1310.69,-297.544 1299,-290 1241.79,-253.084 777.321,-253.149 610.435,-254.39"/>
<polygon fill="black" stroke="black" points="610.323,-250.891 600.351,-254.47 610.378,-257.891 610.323,-250.891"/>
</a>
</g>
<!-- http://latin.omdoc.org/math?Monoid -->
<g id="node48" class="node"><title>http://latin.omdoc.org/math?Monoid</title>
<a xlink:href="javascript:parent.navigate(&#39;http://latin.omdoc.org/math?Monoid&#39;)" xlink:title="theory http://latin.omdoc.org/math?Monoid">
<ellipse fill="gray" stroke="black" cx="1149" cy="-430" rx="39.4691" ry="18"/>
<text text-anchor="middle" x="1149" y="-426.3" font-family="Times New Roman,serif" font-size="14.00">Monoid</text>
</a>
</g>
<!-- http://latin.omdoc.org/math?Monoid&#45;&gt;http://latin.omdoc.org/math?RingUnit -->
<g id="edge55" class="edge"><title>http://latin.omdoc.org/math?Monoid&#45;&gt;http://latin.omdoc.org/math?RingUnit</title>
<a xlink:href="javascript:parent.navigate(&#39;http://latin.omdoc.org/math?RingUnit?mon&#39;)" xlink:title="structure http://latin.omdoc.org/math?RingUnit?mon">
<path fill="none" stroke="red" stroke-width="2" d="M1137.3,-412.808C1127.53,-400.739 1112.41,-385.158 1095,-378 1015.02,-345.127 401.935,-376.208 317,-360 314.512,-359.525 311.981,-358.931 309.451,-358.252"/>
<polygon fill="red" stroke="red" points="310.373,-354.874 299.786,-355.283 308.318,-361.565 310.373,-354.874"/>
</a>
<a xlink:href="javascript:parent.navigate(&#39;http://latin.omdoc.org/math?RingUnit?mon&#39;)" xlink:title="mon">
<text text-anchor="middle" x="1130.5" y="-382.3" font-family="Times New Roman,serif" font-size="14.00">mon</text>
</a>
</g>
</g>
</svg>
