<?xml version="1.0" encoding="UTF-8" standalone="no"?>
<!DOCTYPE svg PUBLIC "-//W3C//DTD SVG 1.1//EN"
 "http://www.w3.org/Graphics/SVG/1.1/DTD/svg11.dtd">
<!-- Generated by graphviz version 2.28.0 (20110507.0327)
 -->
<!-- Title: MMT Pages: 1 -->
<svg width="700pt" height="456pt"
 viewBox="0.00 0.00 700.00 456.00" xmlns="http://www.w3.org/2000/svg" xmlns:xlink="http://www.w3.org/1999/xlink">
<g id="graph1" class="graph" transform="scale(1 1) rotate(0) translate(4 452)">
<title>MMT</title>
<polygon fill="white" stroke="white" points="-4,5 -4,-452 697,-452 697,5 -4,5"/>
<g id="graph2" class="cluster"><title>cluster_local</title>
<polygon fill="none" stroke="black" points="8,-154 8,-294 170,-294 170,-154 8,-154"/>
</g>
<!-- http://latin.omdoc.org/foundations/minimal?STTIFOLEQ -->
<g id="node2" class="node"><title>http://latin.omdoc.org/foundations/minimal?STTIFOLEQ</title>
<a xlink:href="javascript:parent.navigate(&#39;http://latin.omdoc.org/foundations/minimal?STTIFOLEQ&#39;)" xlink:title="theory http://latin.omdoc.org/foundations/minimal?STTIFOLEQ">
<ellipse fill="none" stroke="black" cx="102" cy="-268" rx="60.1672" ry="18"/>
<text text-anchor="middle" x="102" y="-264.3" font-family="Times New Roman,serif" font-size="14.00">STTIFOLEQ</text>
</a>
</g>
<!-- http://latin.omdoc.org/foundations/minimal?STTIFOLEQExt -->
<g id="node3" class="node"><title>http://latin.omdoc.org/foundations/minimal?STTIFOLEQExt</title>
<a xlink:href="javascript:parent.navigate(&#39;http://latin.omdoc.org/foundations/minimal?STTIFOLEQExt&#39;)" xlink:title="theory http://latin.omdoc.org/foundations/minimal?STTIFOLEQExt">
<ellipse fill="none" stroke="black" cx="89" cy="-180" rx="72.192" ry="18"/>
<text text-anchor="middle" x="89" y="-176.3" font-family="Times New Roman,serif" font-size="14.00">STTIFOLEQExt</text>
</a>
</g>
<!-- http://latin.omdoc.org/foundations/minimal?STTIFOLEQ&#45;&gt;http://latin.omdoc.org/foundations/minimal?STTIFOLEQExt -->
<g id="edge23" class="edge"><title>http://latin.omdoc.org/foundations/minimal?STTIFOLEQ&#45;&gt;http://latin.omdoc.org/foundations/minimal?STTIFOLEQExt</title>
<a xlink:title="include">
<path fill="none" stroke="black" d="M99.4316,-250.009C97.6273,-238.073 95.1755,-221.853 93.1022,-208.138"/>
<polygon fill="black" stroke="black" points="96.563,-207.614 91.6075,-198.25 89.6416,-208.661 96.563,-207.614"/>
</a>
</g>
<!-- http://latin.omdoc.org/foundations/zfc?TypedZF -->
<g id="node7" class="node"><title>http://latin.omdoc.org/foundations/zfc?TypedZF</title>
<a xlink:href="javascript:parent.navigate(&#39;http://latin.omdoc.org/foundations/zfc?TypedZF&#39;)" xlink:title="theory http://latin.omdoc.org/foundations/zfc?TypedZF">
<ellipse fill="gray" stroke="black" cx="512" cy="-180" rx="45.244" ry="18"/>
<text text-anchor="middle" x="512" y="-176.3" font-family="Times New Roman,serif" font-size="14.00">TypedZF</text>
</a>
</g>
<!-- http://latin.omdoc.org/foundations/minimal?STTIFOLEQ&#45;&gt;http://latin.omdoc.org/foundations/zfc?TypedZF -->
<g id="edge5" class="edge"><title>http://latin.omdoc.org/foundations/minimal?STTIFOLEQ&#45;&gt;http://latin.omdoc.org/foundations/zfc?TypedZF</title>
<a xlink:href="javascript:parent.navigate(&#39;http://latin.omdoc.org/foundations/minimal?STTIFOLEQ-ZF&#39;)" xlink:title="view http://latin.omdoc.org/foundations/minimal?STTIFOLEQ&#45;ZF">
<path fill="none" stroke="blue" stroke-dasharray="5,2" d="M140.665,-253.142C157.778,-247.067 177.978,-239.334 195.576,-231.094 208.007,-225.698 209.328,-219.994 223.706,-215.044 322.267,-185.232 353.247,-215.511 452.821,-197.016 457.767,-196.12 462.935,-194.965 468.021,-193.69"/>
<path fill="none" stroke="blue" stroke-dasharray="5,2" d="M141.334,-255.027C158.493,-248.935 178.693,-241.202 196.424,-232.906 209.955,-226.149 211.276,-220.445 224.294,-216.956 320.869,-186.663 351.849,-216.941 453.179,-198.984 458.203,-198.071 463.371,-196.917 468.507,-195.63"/>
<polygon fill="blue" stroke="blue" points="469.199,-198.033 477.96,-192.074 467.395,-191.269 469.199,-198.033"/>
</a>
<a xlink:href="javascript:parent.navigate(&#39;http://latin.omdoc.org/foundations/minimal?STTIFOLEQ-ZF&#39;)" xlink:title="STTIFOLEQ&#45;ZF">
<text text-anchor="middle" x="273" y="-220.3" font-family="Times New Roman,serif" font-size="14.00">STTIFOLEQ&#45;ZF</text>
</a>
</g>
<!-- http://latin.omdoc.org/foundations/minimal?Bool -->
<g id="node11" class="node"><title>http://latin.omdoc.org/foundations/minimal?Bool</title>
<a xlink:href="javascript:parent.navigate(&#39;http://latin.omdoc.org/foundations/minimal?Bool&#39;)" xlink:title="theory http://latin.omdoc.org/foundations/minimal?Bool">
<ellipse fill="gray" stroke="black" cx="416" cy="-180" rx="28.3955" ry="18"/>
<text text-anchor="middle" x="416" y="-176.3" font-family="Times New Roman,serif" font-size="14.00">Bool</text>
</a>
</g>
<!-- http://latin.omdoc.org/foundations/minimal?STTIFOLEQ&#45;&gt;http://latin.omdoc.org/foundations/minimal?Bool -->
<g id="edge9" class="edge"><title>http://latin.omdoc.org/foundations/minimal?STTIFOLEQ&#45;&gt;http://latin.omdoc.org/foundations/minimal?Bool</title>
<a xlink:title="include">
<path fill="none" stroke="black" d="M126.139,-251.292C145.544,-239.49 173.939,-224.032 201,-216 276.804,-193.501 301.606,-218.405 378,-198 380.444,-197.347 382.93,-196.555 385.401,-195.674"/>
<polygon fill="black" stroke="black" points="386.749,-198.905 394.734,-191.941 384.15,-192.405 386.749,-198.905"/>
</a>
</g>
<!-- http://latin.omdoc.org/logics/model_theory?CLMOD -->
<g id="node13" class="node"><title>http://latin.omdoc.org/logics/model_theory?CLMOD</title>
<a xlink:href="javascript:parent.navigate(&#39;http://latin.omdoc.org/logics/model_theory?CLMOD&#39;)" xlink:title="theory http://latin.omdoc.org/logics/model_theory?CLMOD">
<ellipse fill="gray" stroke="black" cx="326" cy="-180" rx="43.319" ry="18"/>
<text text-anchor="middle" x="326" y="-176.3" font-family="Times New Roman,serif" font-size="14.00">CLMOD</text>
</a>
</g>
<!-- http://latin.omdoc.org/foundations/minimal?STTIFOLEQ&#45;&gt;http://latin.omdoc.org/logics/model_theory?CLMOD -->
<g id="edge11" class="edge"><title>http://latin.omdoc.org/foundations/minimal?STTIFOLEQ&#45;&gt;http://latin.omdoc.org/logics/model_theory?CLMOD</title>
<a xlink:title="include">
<path fill="none" stroke="black" d="M114.598,-249.945C124.093,-238.417 138.16,-223.905 154,-216 201.861,-192.114 220.921,-210.208 273,-198 276.649,-197.145 280.408,-196.158 284.161,-195.1"/>
<polygon fill="black" stroke="black" points="285.413,-198.38 294,-192.173 283.417,-191.67 285.413,-198.38"/>
</a>
</g>
<!-- http://latin.omdoc.org/foundations/minimal?Bool&#45;ZF -->
<g id="node15" class="node"><title>http://latin.omdoc.org/foundations/minimal?Bool&#45;ZF</title>
<a xlink:href="javascript:parent.navigate(&#39;http://latin.omdoc.org/foundations/minimal?Bool-ZF&#39;)" xlink:title="theory http://latin.omdoc.org/foundations/minimal?Bool&#45;ZF">
<ellipse fill="gray" stroke="black" cx="222" cy="-180" rx="42.3701" ry="18"/>
<text text-anchor="middle" x="222" y="-176.3" font-family="Times New Roman,serif" font-size="14.00">Bool&#45;ZF</text>
</a>
</g>
<!-- http://latin.omdoc.org/foundations/minimal?STTIFOLEQ&#45;&gt;http://latin.omdoc.org/foundations/minimal?Bool&#45;ZF -->
<g id="edge13" class="edge"><title>http://latin.omdoc.org/foundations/minimal?STTIFOLEQ&#45;&gt;http://latin.omdoc.org/foundations/minimal?Bool&#45;ZF</title>
<a xlink:title="include">
<path fill="none" stroke="black" d="M107.495,-249.823C111.793,-238.835 118.774,-225.004 129,-216 131.191,-214.071 157.062,-204.398 180.961,-195.709"/>
<polygon fill="black" stroke="black" points="182.45,-198.892 190.66,-192.196 180.066,-192.311 182.45,-198.892"/>
</a>
</g>
<!-- http://latin.omdoc.org/logics/model_theory/kripke?Kripke -->
<g id="node21" class="node"><title>http://latin.omdoc.org/logics/model_theory/kripke?Kripke</title>
<a xlink:href="javascript:parent.navigate(&#39;http://latin.omdoc.org/logics/model_theory/kripke?Kripke&#39;)" xlink:title="theory http://latin.omdoc.org/logics/model_theory/kripke?Kripke">
<ellipse fill="gray" stroke="black" cx="486" cy="-106" rx="35.1455" ry="18"/>
<text text-anchor="middle" x="486" y="-102.3" font-family="Times New Roman,serif" font-size="14.00">Kripke</text>
</a>
</g>
<!-- http://latin.omdoc.org/foundations/minimal?STTIFOLEQExt&#45;&gt;http://latin.omdoc.org/logics/model_theory/kripke?Kripke -->
<g id="edge19" class="edge"><title>http://latin.omdoc.org/foundations/minimal?STTIFOLEQExt&#45;&gt;http://latin.omdoc.org/logics/model_theory/kripke?Kripke</title>
<a xlink:title="include">
<path fill="none" stroke="black" d="M126.776,-164.502C138.823,-160.441 152.32,-156.467 165,-154 230.585,-141.238 248.837,-153.312 315,-144 359.976,-137.67 410.752,-126.111 445.208,-117.591"/>
<polygon fill="black" stroke="black" points="446.501,-120.876 455.353,-115.054 444.802,-114.085 446.501,-120.876"/>
</a>
</g>
<!-- http://latin.omdoc.org/translations/ml_fol?ML&#45;FOLMOD -->
<g id="node23" class="node"><title>http://latin.omdoc.org/translations/ml_fol?ML&#45;FOLMOD</title>
<a xlink:href="javascript:parent.navigate(&#39;http://latin.omdoc.org/translations/ml_fol?ML-FOLMOD&#39;)" xlink:title="theory http://latin.omdoc.org/translations/ml_fol?ML&#45;FOLMOD">
<ellipse fill="gray" stroke="black" cx="470" cy="-18" rx="65.4659" ry="18"/>
<text text-anchor="middle" x="470" y="-14.3" font-family="Times New Roman,serif" font-size="14.00">ML&#45;FOLMOD</text>
</a>
</g>
<!-- http://latin.omdoc.org/foundations/minimal?STTIFOLEQExt&#45;&gt;http://latin.omdoc.org/translations/ml_fol?ML&#45;FOLMOD -->
<g id="edge21" class="edge"><title>http://latin.omdoc.org/foundations/minimal?STTIFOLEQExt&#45;&gt;http://latin.omdoc.org/translations/ml_fol?ML&#45;FOLMOD</title>
<a xlink:title="include">
<path fill="none" stroke="black" d="M124.161,-164.234C194.031,-134.893 350.164,-69.3247 426.416,-37.303"/>
<polygon fill="black" stroke="black" points="427.884,-40.4828 435.748,-33.3839 425.173,-34.0288 427.884,-40.4828"/>
</a>
</g>
<!-- http://latin.omdoc.org/type_theories?Level -->
<g id="node4" class="node"><title>http://latin.omdoc.org/type_theories?Level</title>
<a xlink:href="javascript:parent.navigate(&#39;http://latin.omdoc.org/type_theories?Level&#39;)" xlink:title="theory http://latin.omdoc.org/type_theories?Level">
<ellipse fill="gray" stroke="black" cx="519" cy="-356" rx="30.3206" ry="18"/>
<text text-anchor="middle" x="519" y="-352.3" font-family="Times New Roman,serif" font-size="14.00">Level</text>
</a>
</g>
<!-- http://latin.omdoc.org/logics/proof_theory?SEqual -->
<g id="node5" class="node"><title>http://latin.omdoc.org/logics/proof_theory?SEqual</title>
<a xlink:href="javascript:parent.navigate(&#39;http://latin.omdoc.org/logics/proof_theory?SEqual&#39;)" xlink:title="theory http://latin.omdoc.org/logics/proof_theory?SEqual">
<ellipse fill="gray" stroke="black" cx="550" cy="-268" rx="36.096" ry="18"/>
<text text-anchor="middle" x="550" y="-264.3" font-family="Times New Roman,serif" font-size="14.00">SEqual</text>
</a>
</g>
<!-- http://latin.omdoc.org/type_theories?Level&#45;&gt;http://latin.omdoc.org/logics/proof_theory?SEqual -->
<g id="edge3" class="edge"><title>http://latin.omdoc.org/type_theories?Level&#45;&gt;http://latin.omdoc.org/logics/proof_theory?SEqual</title>
<a xlink:href="javascript:parent.navigate(&#39;http://latin.omdoc.org/foundations/minimal?IntExt&#39;)" xlink:title="view http://latin.omdoc.org/foundations/minimal?IntExt">
<path fill="none" stroke="blue" stroke-dasharray="5,2" d="M520.404,-337.452C522.125,-327.366 524.875,-314.616 529.066,-303.642 530.356,-300.28 531.901,-296.918 533.584,-293.611"/>
<path fill="none" stroke="blue" stroke-dasharray="5,2" d="M522.376,-337.788C524.081,-327.788 526.831,-315.038 530.934,-304.358 532.174,-301.115 533.718,-297.753 535.366,-294.519"/>
<polygon fill="blue" stroke="blue" points="537.588,-295.667 539.352,-285.221 531.458,-292.287 537.588,-295.667"/>
</a>
<a xlink:href="javascript:parent.navigate(&#39;http://latin.omdoc.org/foundations/minimal?IntExt&#39;)" xlink:title="IntExt">
<text text-anchor="middle" x="547" y="-308.3" font-family="Times New Roman,serif" font-size="14.00">IntExt</text>
</a>
</g>
<!-- http://latin.omdoc.org/type_theories?SimpFun -->
<g id="node9" class="node"><title>http://latin.omdoc.org/type_theories?SimpFun</title>
<a xlink:href="javascript:parent.navigate(&#39;http://latin.omdoc.org/type_theories?SimpFun&#39;)" xlink:title="theory http://latin.omdoc.org/type_theories?SimpFun">
<ellipse fill="gray" stroke="black" cx="451" cy="-268" rx="44.2946" ry="18"/>
<text text-anchor="middle" x="451" y="-264.3" font-family="Times New Roman,serif" font-size="14.00">SimpFun</text>
</a>
</g>
<!-- http://latin.omdoc.org/type_theories?Level&#45;&gt;http://latin.omdoc.org/type_theories?SimpFun -->
<g id="edge53" class="edge"><title>http://latin.omdoc.org/type_theories?Level&#45;&gt;http://latin.omdoc.org/type_theories?SimpFun</title>
<a xlink:href="javascript:parent.navigate(&#39;http://latin.omdoc.org/type_theories?SimpFun?level&#39;)" xlink:title="structure http://latin.omdoc.org/type_theories?SimpFun?level">
<path fill="none" stroke="red" stroke-width="2" d="M506.528,-339.226C496.4,-326.417 481.942,-308.132 470.318,-293.431"/>
<polygon fill="red" stroke="red" points="472.803,-290.931 463.855,-285.258 467.312,-295.273 472.803,-290.931"/>
</a>
<a xlink:href="javascript:parent.navigate(&#39;http://latin.omdoc.org/type_theories?SimpFun?level&#39;)" xlink:title="level">
<text text-anchor="middle" x="504.5" y="-308.3" font-family="Times New Roman,serif" font-size="14.00">level</text>
</a>
</g>
<!-- http://latin.omdoc.org/logics/proof_theory?SEqual&#45;&gt;http://latin.omdoc.org/foundations/zfc?TypedZF -->
<g id="edge51" class="edge"><title>http://latin.omdoc.org/logics/proof_theory?SEqual&#45;&gt;http://latin.omdoc.org/foundations/zfc?TypedZF</title>
<a xlink:href="javascript:parent.navigate(&#39;http://latin.omdoc.org/foundations/minimal?SEqualPF-ZF&#39;)" xlink:title="view http://latin.omdoc.org/foundations/minimal?SEqualPF&#45;ZF">
<path fill="none" stroke="blue" stroke-dasharray="5,2" d="M535.295,-251.759C530.841,-245.994 526.298,-239.288 523.093,-232.421 519.576,-224.826 517.062,-216.277 515.243,-208.276"/>
<path fill="none" stroke="blue" stroke-dasharray="5,2" d="M536.877,-250.536C532.497,-244.872 527.954,-238.166 524.907,-231.579 521.495,-224.262 518.98,-215.713 517.193,-207.833"/>
<polygon fill="blue" stroke="blue" points="519.624,-207.233 514.238,-198.109 512.758,-208.6 519.624,-207.233"/>
</a>
<a xlink:href="javascript:parent.navigate(&#39;http://latin.omdoc.org/foundations/minimal?SEqualPF-ZF&#39;)" xlink:title="SEqualPF&#45;ZF">
<text text-anchor="middle" x="563" y="-220.3" font-family="Times New Roman,serif" font-size="14.00">SEqualPF&#45;ZF</text>
</a>
</g>
<!-- http://latin.omdoc.org/type_theories?SimpFun&#45;&gt;http://latin.omdoc.org/foundations/minimal?STTIFOLEQ -->
<g id="edge7" class="edge"><title>http://latin.omdoc.org/type_theories?SimpFun&#45;&gt;http://latin.omdoc.org/foundations/minimal?STTIFOLEQ</title>
<a xlink:href="javascript:parent.navigate(&#39;http://latin.omdoc.org/foundations/minimal?STTIFOLEQ?fun&#39;)" xlink:title="structure http://latin.omdoc.org/foundations/minimal?STTIFOLEQ?fun">
<path fill="none" stroke="red" stroke-width="2" d="M420.394,-281.037C393.767,-291.63 353.853,-305.727 317.5,-311.5 250.558,-322.131 231.527,-311.333 166,-294 158.826,-292.102 151.381,-289.603 144.216,-286.904"/>
<polygon fill="red" stroke="red" points="145.255,-283.552 134.669,-283.137 142.686,-290.063 145.255,-283.552"/>
</a>
<a xlink:href="javascript:parent.navigate(&#39;http://latin.omdoc.org/foundations/minimal?STTIFOLEQ?fun&#39;)" xlink:title="fun">
<text text-anchor="middle" x="308" y="-308.3" font-family="Times New Roman,serif" font-size="14.00">fun</text>
</a>
</g>
<!-- http://latin.omdoc.org/logics/proof_theory?SIFOLEQExt -->
<g id="node17" class="node"><title>http://latin.omdoc.org/logics/proof_theory?SIFOLEQExt</title>
<a xlink:href="javascript:parent.navigate(&#39;http://latin.omdoc.org/logics/proof_theory?SIFOLEQExt&#39;)" xlink:title="theory http://latin.omdoc.org/logics/proof_theory?SIFOLEQExt">
<ellipse fill="gray" stroke="black" cx="255" cy="-356" rx="61.1419" ry="18"/>
<text text-anchor="middle" x="255" y="-352.3" font-family="Times New Roman,serif" font-size="14.00">SIFOLEQExt</text>
</a>
</g>
<!-- http://latin.omdoc.org/logics/proof_theory?SIFOLEQExt&#45;&gt;http://latin.omdoc.org/foundations/minimal?STTIFOLEQ -->
<g id="edge15" class="edge"><title>http://latin.omdoc.org/logics/proof_theory?SIFOLEQExt&#45;&gt;http://latin.omdoc.org/foundations/minimal?STTIFOLEQ</title>
<a xlink:title="include">
<path fill="none" stroke="black" d="M227.999,-339.823C202.95,-325.743 165.492,-304.688 137.925,-289.193"/>
<polygon fill="black" stroke="black" points="139.42,-286.019 128.988,-284.17 135.99,-292.121 139.42,-286.019"/>
</a>
</g>
<!-- http://latin.omdoc.org/logics/proof_theory?SIFOLEQExt&#45;&gt;http://latin.omdoc.org/foundations/zfc?TypedZF -->
<g id="edge49" class="edge"><title>http://latin.omdoc.org/logics/proof_theory?SIFOLEQExt&#45;&gt;http://latin.omdoc.org/foundations/zfc?TypedZF</title>
<a xlink:href="javascript:parent.navigate(&#39;http://latin.omdoc.org/foundations/minimal?SIFOLEQPFExt-ZF&#39;)" xlink:title="view http://latin.omdoc.org/foundations/minimal?SIFOLEQPFExt&#45;ZF">
<path fill="none" stroke="blue" stroke-dasharray="5,2" d="M253.727,-337.609C254.335,-314.425 258.906,-273.741 282.282,-249.304 286.008,-245.645 400.551,-212.149 466.366,-193.105"/>
<path fill="none" stroke="blue" stroke-dasharray="5,2" d="M255.726,-337.661C256.322,-314.648 260.894,-273.964 283.718,-250.696 286.569,-247.564 401.112,-214.069 466.922,-195.026"/>
<polygon fill="blue" stroke="blue" points="467.738,-197.393 476.373,-191.253 465.794,-190.668 467.738,-197.393"/>
</a>
<a xlink:href="javascript:parent.navigate(&#39;http://latin.omdoc.org/foundations/minimal?SIFOLEQPFExt-ZF&#39;)" xlink:title="SIFOLEQPFExt&#45;ZF">
<text text-anchor="middle" x="340.5" y="-264.3" font-family="Times New Roman,serif" font-size="14.00">SIFOLEQPFExt&#45;ZF</text>
</a>
</g>
<!-- http://cds.omdoc.org/urtheories?LF -->
<g id="node19" class="node"><title>http://cds.omdoc.org/urtheories?LF</title>
<a xlink:href="javascript:parent.navigate(&#39;http://cds.omdoc.org/urtheories?LF&#39;)" xlink:title="theory http://cds.omdoc.org/urtheories?LF">
<ellipse fill="gray" stroke="black" cx="45" cy="-430" rx="27" ry="18"/>
<text text-anchor="middle" x="45" y="-426.3" font-family="Times New Roman,serif" font-size="14.00">LF</text>
</a>
</g>
<!-- http://cds.omdoc.org/urtheories?LF&#45;&gt;http://latin.omdoc.org/foundations/minimal?STTIFOLEQ -->
<g id="edge17" class="edge"><title>http://cds.omdoc.org/urtheories?LF&#45;&gt;http://latin.omdoc.org/foundations/minimal?STTIFOLEQ</title>
<a xlink:title="meta">
<path fill="none" stroke="green" d="M50.9923,-412.18C60.8874,-384.404 80.7209,-328.731 92.5293,-295.584"/>
<polygon fill="green" stroke="green" points="95.8575,-296.671 95.9165,-286.077 89.2635,-294.322 95.8575,-296.671"/>
</a>
</g>
<!-- http://cds.omdoc.org/urtheories?LF&#45;&gt;http://latin.omdoc.org/foundations/minimal?STTIFOLEQExt -->
<g id="edge25" class="edge"><title>http://cds.omdoc.org/urtheories?LF&#45;&gt;http://latin.omdoc.org/foundations/minimal?STTIFOLEQExt</title>
<a xlink:title="meta">
<path fill="none" stroke="green" d="M39.6006,-412.359C30.0176,-380.001 12.8512,-306.8 33,-250 39.0654,-232.902 51.3746,-216.952 62.9117,-204.704"/>
<polygon fill="green" stroke="green" points="65.4068,-207.159 69.9327,-197.579 60.4208,-202.246 65.4068,-207.159"/>
</a>
</g>
<!-- http://cds.omdoc.org/urtheories?LF&#45;&gt;http://latin.omdoc.org/type_theories?Level -->
<g id="edge41" class="edge"><title>http://cds.omdoc.org/urtheories?LF&#45;&gt;http://latin.omdoc.org/type_theories?Level</title>
<a xlink:title="meta">
<path fill="none" stroke="green" d="M72.4656,-429.564C136.9,-430.238 302.353,-428.182 435,-394 453.402,-389.258 472.887,-380.905 488.453,-373.335"/>
<polygon fill="green" stroke="green" points="490.217,-376.366 497.594,-368.761 487.085,-370.106 490.217,-376.366"/>
</a>
</g>
<!-- http://cds.omdoc.org/urtheories?LF&#45;&gt;http://latin.omdoc.org/logics/proof_theory?SEqual -->
<g id="edge39" class="edge"><title>http://cds.omdoc.org/urtheories?LF&#45;&gt;http://latin.omdoc.org/logics/proof_theory?SEqual</title>
<a xlink:title="meta">
<path fill="none" stroke="green" d="M71.9617,-428.139C172.936,-424.647 524.662,-409.967 558,-374 577.357,-353.117 570.199,-318.779 561.625,-295.087"/>
<polygon fill="green" stroke="green" points="564.838,-293.695 557.936,-285.656 558.319,-296.244 564.838,-293.695"/>
</a>
</g>
<!-- http://cds.omdoc.org/urtheories?LF&#45;&gt;http://latin.omdoc.org/foundations/zfc?TypedZF -->
<g id="edge35" class="edge"><title>http://cds.omdoc.org/urtheories?LF&#45;&gt;http://latin.omdoc.org/foundations/zfc?TypedZF</title>
<a xlink:title="meta">
<path fill="none" stroke="green" d="M71.9866,-428.296C175.617,-425.319 543.949,-412.11 578,-374 625.325,-321.035 642.102,-274.624 602,-216 593.148,-203.06 578.754,-194.904 564.047,-189.762"/>
<polygon fill="green" stroke="green" points="564.98,-186.388 554.393,-186.799 562.926,-193.079 564.98,-186.388"/>
</a>
</g>
<!-- http://cds.omdoc.org/urtheories?LF&#45;&gt;http://latin.omdoc.org/type_theories?SimpFun -->
<g id="edge37" class="edge"><title>http://cds.omdoc.org/urtheories?LF&#45;&gt;http://latin.omdoc.org/type_theories?SimpFun</title>
<a xlink:title="meta">
<path fill="none" stroke="green" d="M72.2113,-429.639C144.918,-430.831 341.665,-430.517 393,-394 425.294,-371.028 440.08,-325.445 446.494,-296.132"/>
<polygon fill="green" stroke="green" points="449.963,-296.634 448.495,-286.141 443.099,-295.259 449.963,-296.634"/>
</a>
</g>
<!-- http://cds.omdoc.org/urtheories?LF&#45;&gt;http://latin.omdoc.org/foundations/minimal?Bool -->
<g id="edge47" class="edge"><title>http://cds.omdoc.org/urtheories?LF&#45;&gt;http://latin.omdoc.org/foundations/minimal?Bool</title>
<a xlink:title="meta">
<path fill="none" stroke="green" d="M71.8048,-426.736C133.869,-421.028 285.184,-404.303 325,-374 353.218,-352.524 390.126,-255.226 406.943,-207.526"/>
<polygon fill="green" stroke="green" points="410.32,-208.472 410.31,-197.877 403.711,-206.166 410.32,-208.472"/>
</a>
</g>
<!-- http://cds.omdoc.org/urtheories?LF&#45;&gt;http://latin.omdoc.org/logics/model_theory?CLMOD -->
<g id="edge33" class="edge"><title>http://cds.omdoc.org/urtheories?LF&#45;&gt;http://latin.omdoc.org/logics/model_theory?CLMOD</title>
<a xlink:title="meta">
<path fill="none" stroke="green" d="M61.4201,-415.662C88.2488,-393.117 141.72,-344.928 174,-294 193.884,-262.628 176.308,-240.753 204,-216 227.629,-194.879 242.566,-206.843 273,-198 276.397,-197.013 279.906,-195.96 283.427,-194.882"/>
<polygon fill="green" stroke="green" points="284.788,-198.123 293.291,-191.803 282.702,-191.441 284.788,-198.123"/>
</a>
</g>
<!-- http://cds.omdoc.org/urtheories?LF&#45;&gt;http://latin.omdoc.org/logics/proof_theory?SIFOLEQExt -->
<g id="edge43" class="edge"><title>http://cds.omdoc.org/urtheories?LF&#45;&gt;http://latin.omdoc.org/logics/proof_theory?SIFOLEQExt</title>
<a xlink:title="meta">
<path fill="none" stroke="green" d="M70.6058,-423.997C98.1189,-418.247 142.895,-407.797 180,-394 192.778,-389.249 206.273,-383.005 218.239,-377.003"/>
<polygon fill="green" stroke="green" points="220.162,-379.95 227.465,-372.274 216.97,-373.721 220.162,-379.95"/>
</a>
</g>
<!-- http://cds.omdoc.org/urtheories?LF&#45;&gt;http://latin.omdoc.org/logics/model_theory/kripke?Kripke -->
<g id="edge31" class="edge"><title>http://cds.omdoc.org/urtheories?LF&#45;&gt;http://latin.omdoc.org/logics/model_theory/kripke?Kripke</title>
<a xlink:title="meta">
<path fill="none" stroke="green" d="M71.9538,-428.69C189.814,-426.983 654,-416.488 654,-357 654,-357 654,-357 654,-179 654,-125.527 581.205,-111.254 531.451,-107.744"/>
<polygon fill="green" stroke="green" points="531.405,-104.235 521.218,-107.148 530.998,-111.223 531.405,-104.235"/>
</a>
</g>
<!-- http://cds.omdoc.org/urtheories?LF&#45;&gt;http://latin.omdoc.org/translations/ml_fol?ML&#45;FOLMOD -->
<g id="edge45" class="edge"><title>http://cds.omdoc.org/urtheories?LF&#45;&gt;http://latin.omdoc.org/translations/ml_fol?ML&#45;FOLMOD</title>
<a xlink:title="meta">
<path fill="none" stroke="green" d="M71.9771,-428.879C194.427,-427.982 692,-420.432 692,-357 692,-357 692,-357 692,-105 692,-70.6491 598.411,-44.6501 532.765,-30.6388"/>
<polygon fill="green" stroke="green" points="533.397,-27.1954 522.892,-28.5763 531.965,-34.0474 533.397,-27.1954"/>
</a>
</g>
<!-- http://latin.omdoc.org/logics/model_theory/kripke?Kripke&#45;&gt;http://latin.omdoc.org/translations/ml_fol?ML&#45;FOLMOD -->
<g id="edge29" class="edge"><title>http://latin.omdoc.org/logics/model_theory/kripke?Kripke&#45;&gt;http://latin.omdoc.org/translations/ml_fol?ML&#45;FOLMOD</title>
<a xlink:href="javascript:parent.navigate(&#39;http://latin.omdoc.org/translations/ml_fol?Kripke&#39;)" xlink:title="view http://latin.omdoc.org/translations/ml_fol?Kripke">
<path fill="none" stroke="blue" stroke-dasharray="5,2" d="M460.204,-94.1926C450.883,-88.4642 441.483,-80.718 436.111,-70.4576 431.384,-60.5502 434.988,-51.0252 441.408,-42.4536"/>
<path fill="none" stroke="blue" stroke-dasharray="5,2" d="M461.249,-92.4877C452.154,-86.9207 442.754,-79.1745 437.889,-69.5424 433.254,-61.258 436.859,-51.733 443.004,-43.6586"/>
<polygon fill="blue" stroke="blue" points="444.881,-45.3142 448.867,-35.4979 439.63,-40.6858 444.881,-45.3142"/>
</a>
<a xlink:href="javascript:parent.navigate(&#39;http://latin.omdoc.org/translations/ml_fol?Kripke&#39;)" xlink:title="Kripke">
<text text-anchor="middle" x="456" y="-58.3" font-family="Times New Roman,serif" font-size="14.00">Kripke</text>
</a>
</g>
<!-- http://latin.omdoc.org/translations/ml_fol?ML&#45;FOLMOD&#45;&gt;http://latin.omdoc.org/logics/model_theory/kripke?Kripke -->
<g id="edge27" class="edge"><title>http://latin.omdoc.org/translations/ml_fol?ML&#45;FOLMOD&#45;&gt;http://latin.omdoc.org/logics/model_theory/kripke?Kripke</title>
<a xlink:href="javascript:parent.navigate(&#39;http://latin.omdoc.org/translations/ml_fol?FOL-Kripke&#39;)" xlink:title="view http://latin.omdoc.org/translations/ml_fol?FOL&#45;Kripke">
<path fill="none" stroke="blue" stroke-dasharray="5,2" d="M475.759,-35.7464C477.254,-41.4543 478.81,-47.8537 479.981,-53.8072 481.505,-61.5647 482.806,-70.0027 483.863,-77.7716"/>
<path fill="none" stroke="blue" stroke-dasharray="5,2" d="M473.824,-36.2534C475.311,-41.9268 476.867,-48.3262 478.019,-54.1928 479.528,-61.8695 480.829,-70.3075 481.881,-78.0412"/>
<polygon fill="blue" stroke="blue" points="479.412,-78.4443 484.154,-87.9187 486.356,-77.555 479.412,-78.4443"/>
</a>
<a xlink:href="javascript:parent.navigate(&#39;http://latin.omdoc.org/translations/ml_fol?FOL-Kripke&#39;)" xlink:title="FOL&#45;Kripke">
<text text-anchor="middle" x="517" y="-58.3" font-family="Times New Roman,serif" font-size="14.00">FOL&#45;Kripke</text>
</a>
</g>
</g>
</svg>
