<?xml version="1.0" encoding="UTF-8" standalone="no"?>
<!DOCTYPE svg PUBLIC "-//W3C//DTD SVG 1.1//EN"
 "http://www.w3.org/Graphics/SVG/1.1/DTD/svg11.dtd">
<!-- Generated by graphviz version 2.28.0 (20110507.0327)
 -->
<!-- Title: MMT Pages: 1 -->
<svg
 viewBox="0.00 0.00 471.42 294.00" xmlns="http://www.w3.org/2000/svg" xmlns:xlink="http://www.w3.org/1999/xlink">
<g id="graph1" class="graph" transform="scale(1 1) rotate(0) translate(4 290)">
<title>MMT</title>
<polygon fill="white" stroke="white" points="-4,5 -4,-290 468.419,-290 468.419,5 -4,5"/>
<g id="graph2" class="cluster"><title>cluster_local</title>
<polygon fill="none" stroke="black" points="218.419,-80 218.419,-220 416.419,-220 416.419,-80 218.419,-80"/>
</g>
<!-- http://latin.omdoc.org/foundations/hol?BooleanExtensionality -->
<g id="node2" class="node"><title>http://latin.omdoc.org/foundations/hol?BooleanExtensionality</title>
<a xlink:href="http://latin.omdoc.org/foundations/hol?BooleanExtensionality" class="graphtheory">
<ellipse fill="none" stroke="black" cx="317.419" cy="-194" rx="90.4879" ry="18"/>
<text text-anchor="middle" x="317.419" y="-190.3" font-family="Times New Roman,serif" font-size="14.00">BooleanExtensionality</text>
</a>
</g>
<!-- http://latin.omdoc.org/foundations/hol?Classical -->
<g id="node3" class="node"><title>http://latin.omdoc.org/foundations/hol?Classical</title>
<a xlink:href="http://latin.omdoc.org/foundations/hol?Classical" class="graphtheory">
<ellipse fill="none" stroke="black" cx="275.419" cy="-106" rx="42.3456" ry="18"/>
<text text-anchor="middle" x="275.419" y="-102.3" font-family="Times New Roman,serif" font-size="14.00">Classical</text>
</a>
</g>
<!-- http://latin.omdoc.org/foundations/hol?BooleanExtensionality&#45;&gt;http://latin.omdoc.org/foundations/hol?Classical -->
<g id="edge3" class="edge"><title>http://latin.omdoc.org/foundations/hol?BooleanExtensionality&#45;&gt;http://latin.omdoc.org/foundations/hol?Classical</title>
<a xlink:href="http://latin.omdoc.org/foundations/hol?BC" class="graphview">
<path fill="none" stroke="black" d="M291.318,-176.456C285.351,-171.317 279.781,-165.106 276.419,-158 272.996,-150.764 271.865,-142.28 271.835,-134.331"/>
<polygon fill="black" stroke="black" points="275.331,-134.5 272.329,-124.339 268.34,-134.154 275.331,-134.5"/>
</a>
<a xlink:href="http://latin.omdoc.org/foundations/hol?BC" class="BC">
<text text-anchor="middle" x="285.919" y="-146.3" font-family="Times New Roman,serif" font-size="14.00">BC</text>
</a>
</g>
<!-- http://latin.omdoc.org/foundations/hol?Classical&#45;&gt;http://latin.omdoc.org/foundations/hol?BooleanExtensionality -->
<g id="edge5" class="edge"><title>http://latin.omdoc.org/foundations/hol?Classical&#45;&gt;http://latin.omdoc.org/foundations/hol?BooleanExtensionality</title>
<a xlink:href="http://latin.omdoc.org/foundations/hol?CB" class="graphview">
<path fill="none" stroke="black" d="M285.368,-123.528C288.705,-129.297 292.355,-135.864 295.419,-142 299.34,-149.85 303.253,-158.564 306.669,-166.535"/>
<polygon fill="black" stroke="black" points="303.454,-167.919 310.555,-175.782 309.907,-165.207 303.454,-167.919"/>
</a>
<a xlink:href="http://latin.omdoc.org/foundations/hol?CB" class="CB">
<text text-anchor="middle" x="312.919" y="-146.3" font-family="Times New Roman,serif" font-size="14.00">CB</text>
</a>
</g>
<!-- http://latin.omdoc.org/foundations/hol?Choice -->
<g id="node12" class="node"><title>http://latin.omdoc.org/foundations/hol?Choice</title>
<a xlink:href="http://latin.omdoc.org/foundations/hol?Choice" class="graphtheory">
<ellipse fill="gray" stroke="black" cx="100.419" cy="-18" rx="36.096" ry="18"/>
<text text-anchor="middle" x="100.419" y="-14.3" font-family="Times New Roman,serif" font-size="14.00">Choice</text>
</a>
</g>
<!-- http://latin.omdoc.org/foundations/hol?Classical&#45;&gt;http://latin.omdoc.org/foundations/hol?Choice -->
<g id="edge13" class="edge"><title>http://latin.omdoc.org/foundations/hol?Classical&#45;&gt;http://latin.omdoc.org/foundations/hol?Choice</title>
<a xlink:href="http://latin.omdoc.org/foundations/hol?DiaconescuTheorem" class="graphview">
<path fill="none" stroke="black" d="M250.874,-91.0771C243.737,-87.2672 235.859,-83.2862 228.419,-80 216.332,-74.6608 212.552,-75.2348 200.419,-70 177.352,-60.0479 152.161,-47.1872 132.832,-36.8705"/>
<polygon fill="black" stroke="black" points="134.314,-33.6932 123.85,-32.0341 130.995,-39.8566 134.314,-33.6932"/>
</a>
<a xlink:href="http://latin.omdoc.org/foundations/hol?DiaconescuTheorem" class="DiaconescuTheorem">
<text text-anchor="middle" x="258.419" y="-58.3" font-family="Times New Roman,serif" font-size="14.00">DiaconescuTheorem</text>
</a>
</g>
<!-- http://latin.omdoc.org/foundations/hol?IFTE -->
<g id="node14" class="node"><title>http://latin.omdoc.org/foundations/hol?IFTE</title>
<a xlink:href="http://latin.omdoc.org/foundations/hol?IFTE" class="graphtheory">
<ellipse fill="gray" stroke="black" cx="383.419" cy="-18" rx="30.3206" ry="18"/>
<text text-anchor="middle" x="383.419" y="-14.3" font-family="Times New Roman,serif" font-size="14.00">IFTE</text>
</a>
</g>
<!-- http://latin.omdoc.org/foundations/hol?Classical&#45;&gt;http://latin.omdoc.org/foundations/hol?IFTE -->
<g id="edge15" class="edge"><title>http://latin.omdoc.org/foundations/hol?Classical&#45;&gt;http://latin.omdoc.org/foundations/hol?IFTE</title>
<a class="graphinclude">
<path fill="none" stroke="black" d="M294.479,-89.8229C312.176,-75.7304 338.648,-54.6509 358.112,-39.1523"/>
<polygon fill="black" stroke="black" points="360.335,-41.8556 365.978,-32.8883 355.975,-36.3796 360.335,-41.8556"/>
</a>
</g>
<!-- http://latin.omdoc.org/logics/proof_theory?HOL -->
<g id="node6" class="node"><title>http://latin.omdoc.org/logics/proof_theory?HOL</title>
<a xlink:href="http://latin.omdoc.org/logics/proof_theory?HOL" class="graphtheory">
<ellipse fill="gray" stroke="black" cx="54.4191" cy="-194" rx="29.3722" ry="18"/>
<text text-anchor="middle" x="54.4191" y="-190.3" font-family="Times New Roman,serif" font-size="14.00">HOL</text>
</a>
</g>
<!-- http://latin.omdoc.org/logics/proof_theory?HOL&#45;&gt;http://latin.omdoc.org/foundations/hol?BooleanExtensionality -->
<g id="edge7" class="edge"><title>http://latin.omdoc.org/logics/proof_theory?HOL&#45;&gt;http://latin.omdoc.org/foundations/hol?BooleanExtensionality</title>
<a class="graphinclude">
<path fill="none" stroke="black" d="M67.7893,-210.429C76.3242,-219.563 88.2383,-230.059 101.419,-235 159.523,-256.782 230.939,-234.364 275.327,-215.1"/>
<polygon fill="black" stroke="black" points="276.948,-218.209 284.645,-210.929 274.088,-211.82 276.948,-218.209"/>
</a>
</g>
<!-- http://latin.omdoc.org/logics/proof_theory?HOL&#45;&gt;http://latin.omdoc.org/foundations/hol?Classical -->
<g id="edge17" class="edge"><title>http://latin.omdoc.org/logics/proof_theory?HOL&#45;&gt;http://latin.omdoc.org/foundations/hol?Classical</title>
<a class="graphinclude">
<path fill="none" stroke="black" d="M77.2306,-182.528C82.2123,-180.316 87.4738,-178.036 92.4191,-176 118.818,-165.13 189.498,-138.768 234.893,-121.957"/>
<polygon fill="black" stroke="black" points="236.286,-125.173 244.45,-118.42 233.857,-118.608 236.286,-125.173"/>
</a>
</g>
<!-- http://latin.omdoc.org/logics/proof_theory?HOL&#45;&gt;http://latin.omdoc.org/foundations/hol?Choice -->
<g id="edge33" class="edge"><title>http://latin.omdoc.org/logics/proof_theory?HOL&#45;&gt;http://latin.omdoc.org/foundations/hol?Choice</title>
<a class="graphinclude">
<path fill="none" stroke="black" d="M58.9135,-175.999C66.9176,-145.723 83.6991,-82.2454 93.2913,-45.9616"/>
<polygon fill="black" stroke="black" points="96.7343,-46.6321 95.9064,-36.0697 89.9667,-44.843 96.7343,-46.6321"/>
</a>
</g>
<!-- http://latin.omdoc.org/foundations/hol?SFOL&#45;Pf -->
<g id="node8" class="node"><title>http://latin.omdoc.org/foundations/hol?SFOL&#45;Pf</title>
<a xlink:href="http://latin.omdoc.org/foundations/hol?SFOL-Pf" class="graphtheory">
<ellipse fill="gray" stroke="black" cx="146.419" cy="-194" rx="44.271" ry="18"/>
<text text-anchor="middle" x="146.419" y="-190.3" font-family="Times New Roman,serif" font-size="14.00">SFOL&#45;Pf</text>
</a>
</g>
<!-- http://latin.omdoc.org/foundations/hol?SFOL&#45;Pf&#45;&gt;http://latin.omdoc.org/foundations/hol?BooleanExtensionality -->
<g id="edge9" class="edge"><title>http://latin.omdoc.org/foundations/hol?SFOL&#45;Pf&#45;&gt;http://latin.omdoc.org/foundations/hol?BooleanExtensionality</title>
<a class="graphinclude">
<path fill="none" stroke="black" d="M191.173,-194C199.587,-194 208.002,-194 216.416,-194"/>
<polygon fill="black" stroke="black" points="216.68,-197.5 226.68,-194 216.68,-190.5 216.68,-197.5"/>
</a>
</g>
<!-- http://latin.omdoc.org/foundations/hol?SFOL&#45;Pf&#45;&gt;http://latin.omdoc.org/foundations/hol?Classical -->
<g id="edge19" class="edge"><title>http://latin.omdoc.org/foundations/hol?SFOL&#45;Pf&#45;&gt;http://latin.omdoc.org/foundations/hol?Classical</title>
<a class="graphinclude">
<path fill="none" stroke="black" d="M168.595,-178.216C189.674,-164.163 221.551,-142.912 244.999,-127.28"/>
<polygon fill="black" stroke="black" points="247.154,-130.05 253.533,-121.591 243.271,-124.226 247.154,-130.05"/>
</a>
</g>
<!-- http://latin.omdoc.org/foundations/hol?SFOL&#45;Pf&#45;&gt;http://latin.omdoc.org/foundations/hol?Choice -->
<g id="edge31" class="edge"><title>http://latin.omdoc.org/foundations/hol?SFOL&#45;Pf&#45;&gt;http://latin.omdoc.org/foundations/hol?Choice</title>
<a class="graphinclude">
<path fill="none" stroke="black" d="M141.925,-175.999C133.921,-145.723 117.139,-82.2454 107.547,-45.9616"/>
<polygon fill="black" stroke="black" points="110.871,-44.843 104.932,-36.0697 104.104,-46.6321 110.871,-44.843"/>
</a>
</g>
<!-- http://cds.omdoc.org/urtheories?LF -->
<g id="node10" class="node"><title>http://cds.omdoc.org/urtheories?LF</title>
<a xlink:href="http://cds.omdoc.org/urtheories?LF" class="graphtheory">
<ellipse fill="gray" stroke="black" cx="436.419" cy="-268" rx="27" ry="18"/>
<text text-anchor="middle" x="436.419" y="-264.3" font-family="Times New Roman,serif" font-size="14.00">LF</text>
</a>
</g>
<!-- http://cds.omdoc.org/urtheories?LF&#45;&gt;http://latin.omdoc.org/foundations/hol?BooleanExtensionality -->
<g id="edge11" class="edge"><title>http://cds.omdoc.org/urtheories?LF&#45;&gt;http://latin.omdoc.org/foundations/hol?BooleanExtensionality</title>
<a class="graphmeta">
<path fill="none" stroke="black" d="M417.035,-255.272C399.747,-244.812 374.001,-229.234 353.014,-216.537"/>
<polygon fill="black" stroke="black" points="354.718,-213.476 344.35,-211.294 351.094,-219.466 354.718,-213.476"/>
</a>
</g>
<!-- http://cds.omdoc.org/urtheories?LF&#45;&gt;http://latin.omdoc.org/foundations/hol?Classical -->
<g id="edge21" class="edge"><title>http://cds.omdoc.org/urtheories?LF&#45;&gt;http://latin.omdoc.org/foundations/hol?Classical</title>
<a class="graphmeta">
<path fill="none" stroke="black" d="M436.906,-249.708C436.576,-229.881 433.21,-197.367 416.419,-176 392.944,-146.126 353.221,-128.326 321.909,-118.31"/>
<polygon fill="black" stroke="black" points="322.655,-114.879 312.069,-115.326 320.623,-121.577 322.655,-114.879"/>
</a>
</g>
<!-- http://cds.omdoc.org/urtheories?LF&#45;&gt;http://latin.omdoc.org/logics/proof_theory?HOL -->
<g id="edge25" class="edge"><title>http://cds.omdoc.org/urtheories?LF&#45;&gt;http://latin.omdoc.org/logics/proof_theory?HOL</title>
<a class="graphmeta">
<path fill="none" stroke="black" d="M409.107,-267.311C349.568,-267.134 204.448,-262.02 92.4191,-220 88.3432,-218.471 84.2607,-216.442 80.3634,-214.198"/>
<polygon fill="black" stroke="black" points="82.0169,-211.102 71.696,-208.708 78.2713,-217.016 82.0169,-211.102"/>
</a>
</g>
<!-- http://cds.omdoc.org/urtheories?LF&#45;&gt;http://latin.omdoc.org/foundations/hol?SFOL&#45;Pf -->
<g id="edge29" class="edge"><title>http://cds.omdoc.org/urtheories?LF&#45;&gt;http://latin.omdoc.org/foundations/hol?SFOL&#45;Pf</title>
<a class="graphmeta">
<path fill="none" stroke="black" d="M410.485,-262.757C368.744,-255.651 284.264,-240.12 214.419,-220 205.277,-217.366 195.6,-214.107 186.504,-210.82"/>
<polygon fill="black" stroke="black" points="187.506,-207.46 176.913,-207.273 185.078,-214.025 187.506,-207.46"/>
</a>
</g>
<!-- http://cds.omdoc.org/urtheories?LF&#45;&gt;http://latin.omdoc.org/foundations/hol?Choice -->
<g id="edge23" class="edge"><title>http://cds.omdoc.org/urtheories?LF&#45;&gt;http://latin.omdoc.org/foundations/hol?Choice</title>
<a class="graphmeta">
<path fill="none" stroke="black" d="M409.574,-266.032C321.082,-262.567 42.7092,-249.396 16.4191,-220 -31.4448,-166.481 37.8755,-81.8017 76.8999,-41.6097"/>
<polygon fill="black" stroke="black" points="79.7033,-43.7531 84.2571,-34.1868 74.7317,-38.8254 79.7033,-43.7531"/>
</a>
</g>
<!-- http://cds.omdoc.org/urtheories?LF&#45;&gt;http://latin.omdoc.org/foundations/hol?IFTE -->
<g id="edge27" class="edge"><title>http://cds.omdoc.org/urtheories?LF&#45;&gt;http://latin.omdoc.org/foundations/hol?IFTE</title>
<a class="graphmeta">
<path fill="none" stroke="black" d="M445.411,-250.815C448.042,-244.48 450.067,-237.051 449.419,-230 447.228,-206.131 424.314,-90.0332 420.419,-80 415.446,-67.1905 407.835,-54.0277 400.806,-43.2233"/>
<polygon fill="black" stroke="black" points="403.597,-41.1023 395.109,-34.7618 397.791,-45.0117 403.597,-41.1023"/>
</a>
</g>
</g>
</svg>
