<?xml version="1.0" encoding="UTF-8" standalone="no"?>
<!DOCTYPE svg PUBLIC "-//W3C//DTD SVG 1.1//EN"
 "http://www.w3.org/Graphics/SVG/1.1/DTD/svg11.dtd">
<!-- Generated by graphviz version 2.28.0 (20110507.0327)
 -->
<!-- Title: MMT Pages: 1 -->
<svg width="468pt" height="222pt"
 viewBox="0.00 0.00 468.04 222.00" xmlns="http://www.w3.org/2000/svg" xmlns:xlink="http://www.w3.org/1999/xlink">
<g id="graph1" class="graph" transform="scale(1 1) rotate(0) translate(4 218)">
<title>MMT</title>
<polygon fill="white" stroke="white" points="-4,5 -4,-218 465.039,-218 465.039,5 -4,5"/>
<g id="graph2" class="cluster"><title>cluster_local</title>
<polygon fill="none" stroke="black" points="71,-8 71,-148 269,-148 269,-8 71,-8"/>
</g>
<!-- http://latin.omdoc.org/foundations/hol?Classical -->
<g id="node2" class="node"><title>http://latin.omdoc.org/foundations/hol?Classical</title>
<a xlink:href="http://latin.omdoc.org/foundations/hol?Classical" class="graphtheory">
<ellipse fill="none" stroke="black" cx="161" cy="-122" rx="42.3456" ry="18"/>
<text text-anchor="middle" x="161" y="-118.3" font-family="Times New Roman,serif" font-size="14.00">Classical</text>
</a>
</g>
<!-- http://latin.omdoc.org/foundations/hol?BooleanExtensionality -->
<g id="node3" class="node"><title>http://latin.omdoc.org/foundations/hol?BooleanExtensionality</title>
<a xlink:href="http://latin.omdoc.org/foundations/hol?BooleanExtensionality" class="graphtheory">
<ellipse fill="none" stroke="black" cx="170" cy="-34" rx="90.4879" ry="18"/>
<text text-anchor="middle" x="170" y="-30.3" font-family="Times New Roman,serif" font-size="14.00">BooleanExtensionality</text>
</a>
</g>
<!-- http://latin.omdoc.org/foundations/hol?Classical&#45;&gt;http://latin.omdoc.org/foundations/hol?BooleanExtensionality -->
<g id="edge3" class="edge"><title>http://latin.omdoc.org/foundations/hol?Classical&#45;&gt;http://latin.omdoc.org/foundations/hol?BooleanExtensionality</title>
<a xlink:href="http://latin.omdoc.org/foundations/hol?CB" class="graphview">
<path fill="none" stroke="black" d="M144.51,-105.269C136.193,-95.3604 128.853,-82.1817 134,-70 135.596,-66.2235 137.82,-62.6533 140.388,-59.3411"/>
<polygon fill="black" stroke="black" points="143.213,-61.4356 147.318,-51.6686 138.018,-56.7435 143.213,-61.4356"/>
</a>
<a xlink:href="http://latin.omdoc.org/foundations/hol?CB" class="CB">
<text text-anchor="middle" x="143.5" y="-74.3" font-family="Times New Roman,serif" font-size="14.00">CB</text>
</a>
</g>
<!-- http://latin.omdoc.org/foundations/hol?Choice -->
<g id="node5" class="node"><title>http://latin.omdoc.org/foundations/hol?Choice</title>
<a xlink:href="http://latin.omdoc.org/foundations/hol?Choice" class="graphtheory">
<ellipse fill="gray" stroke="black" cx="398" cy="-34" rx="36.096" ry="18"/>
<text text-anchor="middle" x="398" y="-30.3" font-family="Times New Roman,serif" font-size="14.00">Choice</text>
</a>
</g>
<!-- http://latin.omdoc.org/foundations/hol?Classical&#45;&gt;http://latin.omdoc.org/foundations/hol?Choice -->
<g id="edge5" class="edge"><title>http://latin.omdoc.org/foundations/hol?Classical&#45;&gt;http://latin.omdoc.org/foundations/hol?Choice</title>
<a xlink:href="http://latin.omdoc.org/foundations/hol?DiaconescuTheorem" class="graphview">
<path fill="none" stroke="black" d="M176.344,-104.967C188.266,-93.4723 205.789,-78.5623 224,-70 264.734,-50.8474 315.637,-42.1563 351.84,-38.2238"/>
<polygon fill="black" stroke="black" points="352.507,-41.6745 362.108,-37.1928 351.808,-34.7095 352.507,-41.6745"/>
</a>
<a xlink:href="http://latin.omdoc.org/foundations/hol?DiaconescuTheorem" class="DiaconescuTheorem">
<text text-anchor="middle" x="282" y="-74.3" font-family="Times New Roman,serif" font-size="14.00">DiaconescuTheorem</text>
</a>
</g>
<!-- http://latin.omdoc.org/foundations/hol?IFTE -->
<g id="node8" class="node"><title>http://latin.omdoc.org/foundations/hol?IFTE</title>
<a xlink:href="http://latin.omdoc.org/foundations/hol?IFTE" class="graphtheory">
<ellipse fill="gray" stroke="black" cx="30" cy="-34" rx="30.3206" ry="18"/>
<text text-anchor="middle" x="30" y="-30.3" font-family="Times New Roman,serif" font-size="14.00">IFTE</text>
</a>
</g>
<!-- http://latin.omdoc.org/foundations/hol?Classical&#45;&gt;http://latin.omdoc.org/foundations/hol?IFTE -->
<g id="edge9" class="edge"><title>http://latin.omdoc.org/foundations/hol?Classical&#45;&gt;http://latin.omdoc.org/foundations/hol?IFTE</title>
<a class="graphinclude">
<path fill="none" stroke="black" d="M138.778,-106.411C116.543,-91.8145 82.2652,-69.3115 58.1427,-53.4754"/>
<polygon fill="black" stroke="black" points="60.0365,-50.5318 49.7561,-47.9696 56.1949,-56.3835 60.0365,-50.5318"/>
</a>
</g>
<!-- http://latin.omdoc.org/foundations/hol?BooleanExtensionality&#45;&gt;http://latin.omdoc.org/foundations/hol?Classical -->
<g id="edge7" class="edge"><title>http://latin.omdoc.org/foundations/hol?BooleanExtensionality&#45;&gt;http://latin.omdoc.org/foundations/hol?Classical</title>
<a xlink:href="http://latin.omdoc.org/foundations/hol?BC" class="graphview">
<path fill="none" stroke="black" d="M167.992,-52.0838C167.337,-57.78 166.62,-64.1615 166,-70 165.174,-77.7853 164.324,-86.2445 163.566,-93.9945"/>
<polygon fill="black" stroke="black" points="160.078,-93.7024 162.598,-103.993 167.045,-94.3767 160.078,-93.7024"/>
</a>
<a xlink:href="http://latin.omdoc.org/foundations/hol?BC" class="BC">
<text text-anchor="middle" x="175.5" y="-74.3" font-family="Times New Roman,serif" font-size="14.00">BC</text>
</a>
</g>
<!-- http://latin.omdoc.org/logics/proof_theory?HOL -->
<g id="node10" class="node"><title>http://latin.omdoc.org/logics/proof_theory?HOL</title>
<a xlink:href="http://latin.omdoc.org/logics/proof_theory?HOL" class="graphtheory">
<ellipse fill="gray" stroke="black" cx="306" cy="-122" rx="29.3722" ry="18"/>
<text text-anchor="middle" x="306" y="-118.3" font-family="Times New Roman,serif" font-size="14.00">HOL</text>
</a>
</g>
<!-- http://latin.omdoc.org/logics/proof_theory?HOL&#45;&gt;http://latin.omdoc.org/foundations/hol?Classical -->
<g id="edge11" class="edge"><title>http://latin.omdoc.org/logics/proof_theory?HOL&#45;&gt;http://latin.omdoc.org/foundations/hol?Classical</title>
<a class="graphinclude">
<path fill="none" stroke="black" d="M276.766,-122C255.677,-122 234.589,-122 213.5,-122"/>
<polygon fill="black" stroke="black" points="213.481,-118.5 203.48,-122 213.48,-125.5 213.481,-118.5"/>
</a>
</g>
<!-- http://latin.omdoc.org/logics/proof_theory?HOL&#45;&gt;http://latin.omdoc.org/foundations/hol?BooleanExtensionality -->
<g id="edge17" class="edge"><title>http://latin.omdoc.org/logics/proof_theory?HOL&#45;&gt;http://latin.omdoc.org/foundations/hol?BooleanExtensionality</title>
<a class="graphinclude">
<path fill="none" stroke="black" d="M284.538,-109.435C280.735,-107.532 276.782,-105.646 273,-104 251.345,-94.572 243.063,-98.4629 223,-86 211.475,-78.8407 200.387,-68.839 191.359,-59.5876"/>
<polygon fill="black" stroke="black" points="193.694,-56.9616 184.295,-52.0718 188.593,-61.7556 193.694,-56.9616"/>
</a>
</g>
<!-- http://latin.omdoc.org/logics/proof_theory?HOL&#45;&gt;http://latin.omdoc.org/foundations/hol?Choice -->
<g id="edge33" class="edge"><title>http://latin.omdoc.org/logics/proof_theory?HOL&#45;&gt;http://latin.omdoc.org/foundations/hol?Choice</title>
<a class="graphinclude">
<path fill="none" stroke="black" d="M321.607,-106.411C335.969,-92.9856 357.486,-72.8714 374.028,-57.4082"/>
<polygon fill="black" stroke="black" points="376.781,-59.6261 381.696,-50.2404 372.001,-54.5124 376.781,-59.6261"/>
</a>
</g>
<!-- http://latin.omdoc.org/foundations/hol?SFOL&#45;Pf -->
<g id="node12" class="node"><title>http://latin.omdoc.org/foundations/hol?SFOL&#45;Pf</title>
<a xlink:href="http://latin.omdoc.org/foundations/hol?SFOL-Pf" class="graphtheory">
<ellipse fill="gray" stroke="black" cx="398" cy="-122" rx="44.271" ry="18"/>
<text text-anchor="middle" x="398" y="-118.3" font-family="Times New Roman,serif" font-size="14.00">SFOL&#45;Pf</text>
</a>
</g>
<!-- http://latin.omdoc.org/foundations/hol?SFOL&#45;Pf&#45;&gt;http://latin.omdoc.org/foundations/hol?Classical -->
<g id="edge13" class="edge"><title>http://latin.omdoc.org/foundations/hol?SFOL&#45;Pf&#45;&gt;http://latin.omdoc.org/foundations/hol?Classical</title>
<a class="graphinclude">
<path fill="none" stroke="black" d="M379.058,-138.512C367.256,-147.676 351.264,-158.174 335,-163 284.296,-178.046 266.199,-179.652 216,-163 204.922,-159.325 194.266,-152.456 185.331,-145.376"/>
<polygon fill="black" stroke="black" points="187.55,-142.668 177.648,-138.9 183.039,-148.021 187.55,-142.668"/>
</a>
</g>
<!-- http://latin.omdoc.org/foundations/hol?SFOL&#45;Pf&#45;&gt;http://latin.omdoc.org/foundations/hol?BooleanExtensionality -->
<g id="edge19" class="edge"><title>http://latin.omdoc.org/foundations/hol?SFOL&#45;Pf&#45;&gt;http://latin.omdoc.org/foundations/hol?BooleanExtensionality</title>
<a class="graphinclude">
<path fill="none" stroke="black" d="M390.401,-104.105C384.356,-92.6523 374.789,-78.1651 362,-70 361.672,-69.7905 298.332,-58.2664 244.5,-48.4994"/>
<polygon fill="black" stroke="black" points="245.04,-45.0404 234.576,-46.6992 243.791,-51.928 245.04,-45.0404"/>
</a>
</g>
<!-- http://latin.omdoc.org/foundations/hol?SFOL&#45;Pf&#45;&gt;http://latin.omdoc.org/foundations/hol?Choice -->
<g id="edge31" class="edge"><title>http://latin.omdoc.org/foundations/hol?SFOL&#45;Pf&#45;&gt;http://latin.omdoc.org/foundations/hol?Choice</title>
<a class="graphinclude">
<path fill="none" stroke="black" d="M404.433,-104.157C406.294,-98.4768 408.073,-92.0439 409,-86 410.079,-78.9712 410.079,-77.0288 409,-70 408.58,-67.2614 407.985,-64.4428 407.286,-61.6507"/>
<polygon fill="black" stroke="black" points="410.587,-60.467 404.433,-51.8431 403.866,-62.4227 410.587,-60.467"/>
</a>
</g>
<!-- http://cds.omdoc.org/urtheories?LF -->
<g id="node14" class="node"><title>http://cds.omdoc.org/urtheories?LF</title>
<a xlink:href="http://cds.omdoc.org/urtheories?LF" class="graphtheory">
<ellipse fill="gray" stroke="black" cx="75" cy="-196" rx="27" ry="18"/>
<text text-anchor="middle" x="75" y="-192.3" font-family="Times New Roman,serif" font-size="14.00">LF</text>
</a>
</g>
<!-- http://cds.omdoc.org/urtheories?LF&#45;&gt;http://latin.omdoc.org/foundations/hol?Classical -->
<g id="edge15" class="edge"><title>http://cds.omdoc.org/urtheories?LF&#45;&gt;http://latin.omdoc.org/foundations/hol?Classical</title>
<a class="graphmeta">
<path fill="none" stroke="black" d="M91.1759,-181.457C103.378,-171.242 120.378,-157.009 134.549,-145.145"/>
<polygon fill="black" stroke="black" points="137.087,-147.585 142.508,-138.482 132.594,-142.217 137.087,-147.585"/>
</a>
</g>
<!-- http://cds.omdoc.org/urtheories?LF&#45;&gt;http://latin.omdoc.org/foundations/hol?BooleanExtensionality -->
<g id="edge21" class="edge"><title>http://cds.omdoc.org/urtheories?LF&#45;&gt;http://latin.omdoc.org/foundations/hol?BooleanExtensionality</title>
<a class="graphmeta">
<path fill="none" stroke="black" d="M78.9967,-177.967C85.7217,-152.236 101.35,-102.964 129,-70 132.372,-65.9801 136.233,-62.0423 140.208,-58.3435"/>
<polygon fill="black" stroke="black" points="142.708,-60.8057 147.892,-51.5662 138.077,-55.5558 142.708,-60.8057"/>
</a>
</g>
<!-- http://cds.omdoc.org/urtheories?LF&#45;&gt;http://latin.omdoc.org/foundations/hol?Choice -->
<g id="edge23" class="edge"><title>http://cds.omdoc.org/urtheories?LF&#45;&gt;http://latin.omdoc.org/foundations/hol?Choice</title>
<a class="graphmeta">
<path fill="none" stroke="black" d="M101.876,-193.66C184.065,-189.288 427.871,-174.2 451,-148 474.783,-121.059 445.508,-81.6007 421.939,-57.1494"/>
<polygon fill="black" stroke="black" points="424.416,-54.6761 414.873,-50.0734 419.463,-59.6225 424.416,-54.6761"/>
</a>
</g>
<!-- http://cds.omdoc.org/urtheories?LF&#45;&gt;http://latin.omdoc.org/foundations/hol?IFTE -->
<g id="edge27" class="edge"><title>http://cds.omdoc.org/urtheories?LF&#45;&gt;http://latin.omdoc.org/foundations/hol?IFTE</title>
<a class="graphmeta">
<path fill="none" stroke="black" d="M67.8325,-178.436C65.4803,-172.664 62.9675,-166.104 61,-160 50.317,-126.855 41.1584,-87.7724 35.6237,-62.2453"/>
<polygon fill="black" stroke="black" points="38.9885,-61.242 33.4796,-52.1919 32.1424,-62.702 38.9885,-61.242"/>
</a>
</g>
<!-- http://cds.omdoc.org/urtheories?LF&#45;&gt;http://latin.omdoc.org/logics/proof_theory?HOL -->
<g id="edge25" class="edge"><title>http://cds.omdoc.org/urtheories?LF&#45;&gt;http://latin.omdoc.org/logics/proof_theory?HOL</title>
<a class="graphmeta">
<path fill="none" stroke="black" d="M101.457,-192.245C140.546,-187.411 215.322,-175.203 273,-148 275.99,-146.59 278.972,-144.879 281.85,-143.021"/>
<polygon fill="black" stroke="black" points="283.967,-145.811 290.086,-137.162 279.909,-140.107 283.967,-145.811"/>
</a>
</g>
<!-- http://cds.omdoc.org/urtheories?LF&#45;&gt;http://latin.omdoc.org/foundations/hol?SFOL&#45;Pf -->
<g id="edge29" class="edge"><title>http://cds.omdoc.org/urtheories?LF&#45;&gt;http://latin.omdoc.org/foundations/hol?SFOL&#45;Pf</title>
<a class="graphmeta">
<path fill="none" stroke="black" d="M101.891,-192.641C150.936,-187.828 257.808,-174.972 344,-148 350.147,-146.076 356.502,-143.607 362.6,-140.972"/>
<polygon fill="black" stroke="black" points="364.245,-144.069 371.904,-136.749 361.351,-137.695 364.245,-144.069"/>
</a>
</g>
</g>
</svg>
