<?xml version="1.0" encoding="UTF-8" standalone="no"?>
<!DOCTYPE svg PUBLIC "-//W3C//DTD SVG 1.1//EN"
 "http://www.w3.org/Graphics/SVG/1.1/DTD/svg11.dtd">
<!-- Generated by graphviz version 2.28.0 (20110507.0327)
 -->
<!-- Title: MMT Pages: 1 -->
<svg width="411pt" height="280pt"
 viewBox="0.00 0.00 411.38 280.00" xmlns="http://www.w3.org/2000/svg" xmlns:xlink="http://www.w3.org/1999/xlink">
<g id="graph1" class="graph" transform="scale(1 1) rotate(0) translate(4 276)">
<title>MMT</title>
<polygon fill="white" stroke="white" points="-4,5 -4,-276 408.384,-276 408.384,5 -4,5"/>
<g id="graph2" class="cluster"><title>cluster_local</title>
<polygon fill="none" stroke="black" points="37,-80 37,-132 139,-132 139,-80 37,-80"/>
</g>
<!-- http://latin.omdoc.org/foundations/hol?Classical -->
<g id="node2" class="node"><title>http://latin.omdoc.org/foundations/hol?Classical</title>
<a xlink:href="http://latin.omdoc.org/foundations/hol?Classical" class="graphtheory">
<ellipse fill="none" stroke="black" cx="88" cy="-106" rx="42.3456" ry="18"/>
<text text-anchor="middle" x="88" y="-102.3" font-family="Times New Roman,serif" font-size="14.00">Classical</text>
</a>
</g>
<!-- http://latin.omdoc.org/foundations/hol?Choice -->
<g id="node3" class="node"><title>http://latin.omdoc.org/foundations/hol?Choice</title>
<a xlink:href="http://latin.omdoc.org/foundations/hol?Choice" class="graphtheory">
<ellipse fill="gray" stroke="black" cx="301" cy="-18" rx="36.096" ry="18"/>
<text text-anchor="middle" x="301" y="-14.3" font-family="Times New Roman,serif" font-size="14.00">Choice</text>
</a>
</g>
<!-- http://latin.omdoc.org/foundations/hol?Classical&#45;&gt;http://latin.omdoc.org/foundations/hol?Choice -->
<g id="edge3" class="edge"><title>http://latin.omdoc.org/foundations/hol?Classical&#45;&gt;http://latin.omdoc.org/foundations/hol?Choice</title>
<a xlink:href="http://latin.omdoc.org/foundations/hol?DiaconescuTheorem" class="graphview">
<path fill="none" stroke="black" d="M77.4972,-88.5589C71.9597,-77.6089 67.8347,-63.5337 76,-54 98.5003,-27.7291 195.374,-21.0198 254.429,-19.4042"/>
<polygon fill="black" stroke="black" points="254.718,-22.8985 264.633,-19.1652 254.554,-15.9004 254.718,-22.8985"/>
</a>
<a xlink:href="http://latin.omdoc.org/foundations/hol?DiaconescuTheorem" class="DiaconescuTheorem">
<text text-anchor="middle" x="134" y="-58.3" font-family="Times New Roman,serif" font-size="14.00">DiaconescuTheorem</text>
</a>
</g>
<!-- http://latin.omdoc.org/foundations/hol?BooleanExtensionality -->
<g id="node5" class="node"><title>http://latin.omdoc.org/foundations/hol?BooleanExtensionality</title>
<a xlink:href="http://latin.omdoc.org/foundations/hol?BooleanExtensionality" class="graphtheory">
<ellipse fill="gray" stroke="black" cx="278" cy="-106" rx="90.4879" ry="18"/>
<text text-anchor="middle" x="278" y="-102.3" font-family="Times New Roman,serif" font-size="14.00">BooleanExtensionality</text>
</a>
</g>
<!-- http://latin.omdoc.org/foundations/hol?Classical&#45;&gt;http://latin.omdoc.org/foundations/hol?BooleanExtensionality -->
<g id="edge7" class="edge"><title>http://latin.omdoc.org/foundations/hol?Classical&#45;&gt;http://latin.omdoc.org/foundations/hol?BooleanExtensionality</title>
<a xlink:href="http://latin.omdoc.org/foundations/hol?CB" class="graphview">
<path fill="none" stroke="black" d="M130.64,-106C144.593,-106 160.738,-106 177.117,-106"/>
<polygon fill="black" stroke="black" points="177.328,-109.5 187.328,-106 177.328,-102.5 177.328,-109.5"/>
</a>
<a xlink:href="http://latin.omdoc.org/foundations/hol?CB" class="CB">
<text text-anchor="middle" x="158.504" y="-112.8" font-family="Times New Roman,serif" font-size="14.00">CB</text>
</a>
</g>
<!-- http://latin.omdoc.org/foundations/hol?IFTE -->
<g id="node8" class="node"><title>http://latin.omdoc.org/foundations/hol?IFTE</title>
<a xlink:href="http://latin.omdoc.org/foundations/hol?IFTE" class="graphtheory">
<ellipse fill="gray" stroke="black" cx="30" cy="-18" rx="30.3206" ry="18"/>
<text text-anchor="middle" x="30" y="-14.3" font-family="Times New Roman,serif" font-size="14.00">IFTE</text>
</a>
</g>
<!-- http://latin.omdoc.org/foundations/hol?Classical&#45;&gt;http://latin.omdoc.org/foundations/hol?IFTE -->
<g id="edge9" class="edge"><title>http://latin.omdoc.org/foundations/hol?Classical&#45;&gt;http://latin.omdoc.org/foundations/hol?IFTE</title>
<a class="graphinclude">
<path fill="none" stroke="black" d="M71.7303,-89.0386C66.3628,-83.315 60.5961,-76.6316 56,-70 50.6289,-62.2503 45.6679,-53.2399 41.5507,-44.9678"/>
<polygon fill="black" stroke="black" points="44.5997,-43.2306 37.131,-35.7159 38.2834,-46.2479 44.5997,-43.2306"/>
</a>
</g>
<!-- http://latin.omdoc.org/foundations/hol?BooleanExtensionality&#45;&gt;http://latin.omdoc.org/foundations/hol?Classical -->
<g id="edge5" class="edge"><title>http://latin.omdoc.org/foundations/hol?BooleanExtensionality&#45;&gt;http://latin.omdoc.org/foundations/hol?Classical</title>
<a xlink:href="http://latin.omdoc.org/foundations/hol?BC" class="graphview">
<path fill="none" stroke="black" d="M187.328,-106C171.4,-106 155.309,-106 140.852,-106"/>
<polygon fill="black" stroke="black" points="140.64,-102.5 130.64,-106 140.64,-109.5 140.64,-102.5"/>
</a>
<a xlink:href="http://latin.omdoc.org/foundations/hol?BC" class="BC">
<text text-anchor="middle" x="158.504" y="-112.8" font-family="Times New Roman,serif" font-size="14.00">BC</text>
</a>
</g>
<!-- http://latin.omdoc.org/logics/proof_theory?HOL -->
<g id="node10" class="node"><title>http://latin.omdoc.org/logics/proof_theory?HOL</title>
<a xlink:href="http://latin.omdoc.org/logics/proof_theory?HOL" class="graphtheory">
<ellipse fill="gray" stroke="black" cx="264" cy="-180" rx="29.3722" ry="18"/>
<text text-anchor="middle" x="264" y="-176.3" font-family="Times New Roman,serif" font-size="14.00">HOL</text>
</a>
</g>
<!-- http://latin.omdoc.org/logics/proof_theory?HOL&#45;&gt;http://latin.omdoc.org/foundations/hol?Classical -->
<g id="edge11" class="edge"><title>http://latin.omdoc.org/logics/proof_theory?HOL&#45;&gt;http://latin.omdoc.org/foundations/hol?Classical</title>
<a class="graphinclude">
<path fill="none" stroke="black" d="M240.693,-169.015C234.94,-166.639 228.771,-164.166 223,-162 183.92,-147.331 172.258,-148.695 134,-132 129.762,-130.151 125.391,-128.049 121.109,-125.868"/>
<polygon fill="black" stroke="black" points="122.436,-122.611 111.959,-121.035 119.167,-128.801 122.436,-122.611"/>
</a>
</g>
<!-- http://latin.omdoc.org/logics/proof_theory?HOL&#45;&gt;http://latin.omdoc.org/foundations/hol?Choice -->
<g id="edge31" class="edge"><title>http://latin.omdoc.org/logics/proof_theory?HOL&#45;&gt;http://latin.omdoc.org/foundations/hol?Choice</title>
<a class="graphinclude">
<path fill="none" stroke="black" d="M292.555,-175.932C319.447,-171.356 358.311,-160.015 377,-132 389.826,-112.774 386.995,-100.838 377,-80 368.11,-61.4653 350.539,-46.7836 334.53,-36.4726"/>
<polygon fill="black" stroke="black" points="336.224,-33.4062 325.862,-31.1972 332.585,-39.3859 336.224,-33.4062"/>
</a>
</g>
<!-- http://latin.omdoc.org/logics/proof_theory?HOL&#45;&gt;http://latin.omdoc.org/foundations/hol?BooleanExtensionality -->
<g id="edge33" class="edge"><title>http://latin.omdoc.org/logics/proof_theory?HOL&#45;&gt;http://latin.omdoc.org/foundations/hol?BooleanExtensionality</title>
<a class="graphinclude">
<path fill="none" stroke="black" d="M267.318,-161.937C268.916,-153.719 270.872,-143.66 272.671,-134.406"/>
<polygon fill="black" stroke="black" points="276.136,-134.925 274.609,-124.441 269.264,-133.589 276.136,-134.925"/>
</a>
</g>
<!-- http://latin.omdoc.org/foundations/hol?SFOL&#45;Pf -->
<g id="node12" class="node"><title>http://latin.omdoc.org/foundations/hol?SFOL&#45;Pf</title>
<a xlink:href="http://latin.omdoc.org/foundations/hol?SFOL-Pf" class="graphtheory">
<ellipse fill="gray" stroke="black" cx="170" cy="-180" rx="44.271" ry="18"/>
<text text-anchor="middle" x="170" y="-176.3" font-family="Times New Roman,serif" font-size="14.00">SFOL&#45;Pf</text>
</a>
</g>
<!-- http://latin.omdoc.org/foundations/hol?SFOL&#45;Pf&#45;&gt;http://latin.omdoc.org/foundations/hol?Classical -->
<g id="edge13" class="edge"><title>http://latin.omdoc.org/foundations/hol?SFOL&#45;Pf&#45;&gt;http://latin.omdoc.org/foundations/hol?Classical</title>
<a class="graphinclude">
<path fill="none" stroke="black" d="M152.207,-163.377C140.925,-153.47 126.146,-140.494 113.611,-129.488"/>
<polygon fill="black" stroke="black" points="115.582,-126.56 105.758,-122.592 110.963,-131.821 115.582,-126.56"/>
</a>
</g>
<!-- http://latin.omdoc.org/foundations/hol?SFOL&#45;Pf&#45;&gt;http://latin.omdoc.org/foundations/hol?Choice -->
<g id="edge27" class="edge"><title>http://latin.omdoc.org/foundations/hol?SFOL&#45;Pf&#45;&gt;http://latin.omdoc.org/foundations/hol?Choice</title>
<a class="graphinclude">
<path fill="none" stroke="black" d="M166.645,-161.949C163.471,-140.803 161.363,-104.553 178,-80 183.393,-72.0412 230.839,-49.8872 265.192,-34.5906"/>
<polygon fill="black" stroke="black" points="266.761,-37.7238 274.488,-30.4755 263.927,-31.3228 266.761,-37.7238"/>
</a>
</g>
<!-- http://latin.omdoc.org/foundations/hol?SFOL&#45;Pf&#45;&gt;http://latin.omdoc.org/foundations/hol?BooleanExtensionality -->
<g id="edge29" class="edge"><title>http://latin.omdoc.org/foundations/hol?SFOL&#45;Pf&#45;&gt;http://latin.omdoc.org/foundations/hol?BooleanExtensionality</title>
<a class="graphinclude">
<path fill="none" stroke="black" d="M192.116,-164.256C207.251,-154.166 227.592,-140.605 244.679,-129.214"/>
<polygon fill="black" stroke="black" points="246.894,-131.944 253.273,-123.484 243.011,-126.119 246.894,-131.944"/>
</a>
</g>
<!-- http://cds.omdoc.org/urtheories?LF -->
<g id="node14" class="node"><title>http://cds.omdoc.org/urtheories?LF</title>
<a xlink:href="http://cds.omdoc.org/urtheories?LF" class="graphtheory">
<ellipse fill="gray" stroke="black" cx="208" cy="-254" rx="27" ry="18"/>
<text text-anchor="middle" x="208" y="-250.3" font-family="Times New Roman,serif" font-size="14.00">LF</text>
</a>
</g>
<!-- http://cds.omdoc.org/urtheories?LF&#45;&gt;http://latin.omdoc.org/foundations/hol?Classical -->
<g id="edge15" class="edge"><title>http://cds.omdoc.org/urtheories?LF&#45;&gt;http://latin.omdoc.org/foundations/hol?Classical</title>
<a class="graphmeta">
<path fill="none" stroke="black" d="M184.652,-244.669C163.775,-236.069 133.804,-220.693 116,-198 101.538,-179.565 94.5064,-153.646 91.1112,-134.182"/>
<polygon fill="black" stroke="black" points="94.5444,-133.478 89.5749,-124.121 87.6246,-134.535 94.5444,-133.478"/>
</a>
</g>
<!-- http://cds.omdoc.org/urtheories?LF&#45;&gt;http://latin.omdoc.org/foundations/hol?Choice -->
<g id="edge17" class="edge"><title>http://cds.omdoc.org/urtheories?LF&#45;&gt;http://latin.omdoc.org/foundations/hol?Choice</title>
<a class="graphmeta">
<path fill="none" stroke="black" d="M232.594,-246.514C276.164,-233.46 365.128,-199.336 395,-132 409.388,-99.5677 404.926,-77.1052 378,-54 367.166,-44.7035 353.456,-37.4202 340.617,-31.9618"/>
<polygon fill="black" stroke="black" points="341.615,-28.5921 331.03,-28.1404 339.023,-35.0946 341.615,-28.5921"/>
</a>
</g>
<!-- http://cds.omdoc.org/urtheories?LF&#45;&gt;http://latin.omdoc.org/foundations/hol?BooleanExtensionality -->
<g id="edge23" class="edge"><title>http://cds.omdoc.org/urtheories?LF&#45;&gt;http://latin.omdoc.org/foundations/hol?BooleanExtensionality</title>
<a class="graphmeta">
<path fill="none" stroke="black" d="M232.675,-246.239C255.223,-238.603 287.232,-223.751 302,-198 313.596,-177.781 304.815,-151.838 294.767,-132.829"/>
<polygon fill="black" stroke="black" points="297.798,-131.077 289.816,-124.11 291.71,-134.534 297.798,-131.077"/>
</a>
</g>
<!-- http://cds.omdoc.org/urtheories?LF&#45;&gt;http://latin.omdoc.org/foundations/hol?IFTE -->
<g id="edge21" class="edge"><title>http://cds.omdoc.org/urtheories?LF&#45;&gt;http://latin.omdoc.org/foundations/hol?IFTE</title>
<a class="graphmeta">
<path fill="none" stroke="black" d="M183.718,-245.762C142.153,-231.801 59.302,-196.667 33,-132 21.7792,-104.412 22.8076,-69.8227 25.5057,-46.2275"/>
<polygon fill="black" stroke="black" points="28.9872,-46.5966 26.8248,-36.2248 22.0473,-45.6813 28.9872,-46.5966"/>
</a>
</g>
<!-- http://cds.omdoc.org/urtheories?LF&#45;&gt;http://latin.omdoc.org/logics/proof_theory?HOL -->
<g id="edge19" class="edge"><title>http://cds.omdoc.org/urtheories?LF&#45;&gt;http://latin.omdoc.org/logics/proof_theory?HOL</title>
<a class="graphmeta">
<path fill="none" stroke="black" d="M219.876,-237.731C227.347,-228.125 237.141,-215.534 245.603,-204.654"/>
<polygon fill="black" stroke="black" points="248.377,-206.787 251.754,-196.745 242.852,-202.49 248.377,-206.787"/>
</a>
</g>
<!-- http://cds.omdoc.org/urtheories?LF&#45;&gt;http://latin.omdoc.org/foundations/hol?SFOL&#45;Pf -->
<g id="edge25" class="edge"><title>http://cds.omdoc.org/urtheories?LF&#45;&gt;http://latin.omdoc.org/foundations/hol?SFOL&#45;Pf</title>
<a class="graphmeta">
<path fill="none" stroke="black" d="M199.377,-236.662C194.731,-227.858 188.89,-216.792 183.643,-206.85"/>
<polygon fill="black" stroke="black" points="186.615,-204.983 178.852,-197.773 180.425,-208.25 186.615,-204.983"/>
</a>
</g>
</g>
</svg>
