<?xml version="1.0" encoding="UTF-8" standalone="no"?>
<!DOCTYPE svg PUBLIC "-//W3C//DTD SVG 1.1//EN"
 "http://www.w3.org/Graphics/SVG/1.1/DTD/svg11.dtd">
<!-- Generated by graphviz version 2.28.0 (20110507.0327)
 -->
<!-- Title: MMT Pages: 1 -->
<svg width="296pt" height="222pt"
 viewBox="0.00 0.00 296.00 222.00" xmlns="http://www.w3.org/2000/svg" xmlns:xlink="http://www.w3.org/1999/xlink">
<g id="graph1" class="graph" transform="scale(1 1) rotate(0) translate(4 218)">
<title>MMT</title>
<polygon fill="white" stroke="white" points="-4,5 -4,-218 293,-218 293,5 -4,5"/>
<g id="graph2" class="cluster"><title>cluster_local</title>
<polygon fill="none" stroke="black" points="8,-8 8,-148 222,-148 222,-8 8,-8"/>
</g>
<!-- http://latin.omdoc.org/foundations/hol?Eta -->
<g id="node2" class="node"><title>http://latin.omdoc.org/foundations/hol?Eta</title>
<a xlink:href="http://latin.omdoc.org/foundations/hol?Eta" class="graphtheory">
<ellipse fill="none" stroke="black" cx="92" cy="-122" rx="27" ry="18"/>
<text text-anchor="middle" x="92" y="-118.3" font-family="Times New Roman,serif" font-size="14.00">Eta</text>
</a>
</g>
<!-- http://latin.omdoc.org/foundations/hol?FunctionalExtensionality -->
<g id="node3" class="node"><title>http://latin.omdoc.org/foundations/hol?FunctionalExtensionality</title>
<a xlink:href="http://latin.omdoc.org/foundations/hol?FunctionalExtensionality" class="graphtheory">
<ellipse fill="none" stroke="black" cx="115" cy="-34" rx="98.1881" ry="18"/>
<text text-anchor="middle" x="115" y="-30.3" font-family="Times New Roman,serif" font-size="14.00">FunctionalExtensionality</text>
</a>
</g>
<!-- http://latin.omdoc.org/foundations/hol?Eta&#45;&gt;http://latin.omdoc.org/foundations/hol?FunctionalExtensionality -->
<g id="edge3" class="edge"><title>http://latin.omdoc.org/foundations/hol?Eta&#45;&gt;http://latin.omdoc.org/foundations/hol?FunctionalExtensionality</title>
<a xlink:href="http://latin.omdoc.org/foundations/hol?EF" class="graphview">
<path fill="none" stroke="black" d="M81.1098,-105.029C75.5543,-94.7966 70.933,-81.3556 76,-70 77.7516,-66.0744 80.1852,-62.4057 82.9894,-59.0326"/>
<polygon fill="black" stroke="black" points="85.6265,-61.3404 90.0585,-51.717 80.5926,-56.4761 85.6265,-61.3404"/>
</a>
<a xlink:href="http://latin.omdoc.org/foundations/hol?EF" class="EF">
<text text-anchor="middle" x="84.5" y="-74.3" font-family="Times New Roman,serif" font-size="14.00">EF</text>
</a>
</g>
<!-- http://latin.omdoc.org/foundations/hol?FunctionalExtensionality&#45;&gt;http://latin.omdoc.org/foundations/hol?Eta -->
<g id="edge5" class="edge"><title>http://latin.omdoc.org/foundations/hol?FunctionalExtensionality&#45;&gt;http://latin.omdoc.org/foundations/hol?Eta</title>
<a xlink:href="http://latin.omdoc.org/foundations/hol?FE" class="graphview">
<path fill="none" stroke="black" d="M110.387,-52.2499C107.178,-64.2478 102.837,-80.4798 99.1785,-94.1588"/>
<polygon fill="black" stroke="black" points="95.7466,-93.4444 96.5441,-104.009 102.509,-95.253 95.7466,-93.4444"/>
</a>
<a xlink:href="http://latin.omdoc.org/foundations/hol?FE" class="FE">
<text text-anchor="middle" x="114.5" y="-74.3" font-family="Times New Roman,serif" font-size="14.00">FE</text>
</a>
</g>
<!-- http://latin.omdoc.org/logics/proof_theory?HOL -->
<g id="node6" class="node"><title>http://latin.omdoc.org/logics/proof_theory?HOL</title>
<a xlink:href="http://latin.omdoc.org/logics/proof_theory?HOL" class="graphtheory">
<ellipse fill="gray" stroke="black" cx="259" cy="-122" rx="29.3722" ry="18"/>
<text text-anchor="middle" x="259" y="-118.3" font-family="Times New Roman,serif" font-size="14.00">HOL</text>
</a>
</g>
<!-- http://latin.omdoc.org/logics/proof_theory?HOL&#45;&gt;http://latin.omdoc.org/foundations/hol?Eta -->
<g id="edge7" class="edge"><title>http://latin.omdoc.org/logics/proof_theory?HOL&#45;&gt;http://latin.omdoc.org/foundations/hol?Eta</title>
<a class="graphinclude">
<path fill="none" stroke="black" d="M229.757,-122C196.321,-122 162.885,-122 129.449,-122"/>
<polygon fill="black" stroke="black" points="129.072,-118.5 119.072,-122 129.072,-125.5 129.072,-118.5"/>
</a>
</g>
<!-- http://latin.omdoc.org/logics/proof_theory?HOL&#45;&gt;http://latin.omdoc.org/foundations/hol?FunctionalExtensionality -->
<g id="edge11" class="edge"><title>http://latin.omdoc.org/logics/proof_theory?HOL&#45;&gt;http://latin.omdoc.org/foundations/hol?FunctionalExtensionality</title>
<a class="graphinclude">
<path fill="none" stroke="black" d="M238.674,-108.861C215.938,-95.2825 178.673,-73.0271 150.982,-56.4894"/>
<polygon fill="black" stroke="black" points="152.739,-53.4617 142.359,-51.3392 149.149,-59.4715 152.739,-53.4617"/>
</a>
</g>
<!-- http://cds.omdoc.org/urtheories?LF -->
<g id="node8" class="node"><title>http://cds.omdoc.org/urtheories?LF</title>
<a xlink:href="http://cds.omdoc.org/urtheories?LF" class="graphtheory">
<ellipse fill="gray" stroke="black" cx="147" cy="-196" rx="27" ry="18"/>
<text text-anchor="middle" x="147" y="-192.3" font-family="Times New Roman,serif" font-size="14.00">LF</text>
</a>
</g>
<!-- http://cds.omdoc.org/urtheories?LF&#45;&gt;http://latin.omdoc.org/foundations/hol?Eta -->
<g id="edge9" class="edge"><title>http://cds.omdoc.org/urtheories?LF&#45;&gt;http://latin.omdoc.org/foundations/hol?Eta</title>
<a class="graphmeta">
<path fill="none" stroke="black" d="M135.336,-179.731C127.898,-169.994 118.116,-157.188 109.728,-146.207"/>
<polygon fill="black" stroke="black" points="112.499,-144.069 103.647,-138.247 106.936,-148.319 112.499,-144.069"/>
</a>
</g>
<!-- http://cds.omdoc.org/urtheories?LF&#45;&gt;http://latin.omdoc.org/foundations/hol?FunctionalExtensionality -->
<g id="edge13" class="edge"><title>http://cds.omdoc.org/urtheories?LF&#45;&gt;http://latin.omdoc.org/foundations/hol?FunctionalExtensionality</title>
<a class="graphmeta">
<path fill="none" stroke="black" d="M145.198,-177.829C142.439,-153.562 136.469,-107.957 127,-70 126.338,-67.3453 125.564,-64.6051 124.733,-61.8813"/>
<polygon fill="black" stroke="black" points="128.023,-60.68 121.579,-52.2704 121.372,-62.8632 128.023,-60.68"/>
</a>
</g>
<!-- http://cds.omdoc.org/urtheories?LF&#45;&gt;http://latin.omdoc.org/logics/proof_theory?HOL -->
<g id="edge15" class="edge"><title>http://cds.omdoc.org/urtheories?LF&#45;&gt;http://latin.omdoc.org/logics/proof_theory?HOL</title>
<a class="graphmeta">
<path fill="none" stroke="black" d="M167.186,-183.819C183.379,-174.653 206.539,-161.101 226,-148 228.541,-146.289 231.151,-144.455 233.737,-142.586"/>
<polygon fill="black" stroke="black" points="235.852,-145.375 241.796,-136.605 231.68,-139.754 235.852,-145.375"/>
</a>
</g>
</g>
</svg>
