<?xml version="1.0" encoding="UTF-8" standalone="no"?>
<!DOCTYPE svg PUBLIC "-//W3C//DTD SVG 1.1//EN"
 "http://www.w3.org/Graphics/SVG/1.1/DTD/svg11.dtd">
<!-- Generated by graphviz version 2.28.0 (20110507.0327)
 -->
<!-- Title: MMT Pages: 1 -->
<svg
 viewBox="0.00 0.00 310.00 208.00" xmlns="http://www.w3.org/2000/svg" xmlns:xlink="http://www.w3.org/1999/xlink">
<g id="graph1" class="graph" transform="scale(1 1) rotate(0) translate(4 204)">
<title>MMT</title>
<polygon fill="white" stroke="white" points="-4,5 -4,-204 307,-204 307,5 -4,5"/>
<g id="graph2" class="cluster"><title>cluster_local</title>
<polygon fill="none" stroke="black" points="8,-8 8,-60 78,-60 78,-8 8,-8"/>
</g>
<!-- http://latin.omdoc.org/foundations/hol?Eta -->
<g id="node2" class="node"><title>http://latin.omdoc.org/foundations/hol?Eta</title>
<a xlink:href="http://latin.omdoc.org/foundations/hol?Eta" class="graphtheory">
<ellipse fill="none" stroke="black" cx="43" cy="-34" rx="27" ry="18"/>
<text text-anchor="middle" x="43" y="-30.3" font-family="Times New Roman,serif" font-size="14.00">Eta</text>
</a>
</g>
<!-- http://latin.omdoc.org/foundations/hol?FunctionalExtensionality -->
<g id="node3" class="node"><title>http://latin.omdoc.org/foundations/hol?FunctionalExtensionality</title>
<a xlink:href="http://latin.omdoc.org/foundations/hol?FunctionalExtensionality" class="graphtheory">
<ellipse fill="gray" stroke="black" cx="204" cy="-34" rx="98.1881" ry="18"/>
<text text-anchor="middle" x="204" y="-30.3" font-family="Times New Roman,serif" font-size="14.00">FunctionalExtensionality</text>
</a>
</g>
<!-- http://latin.omdoc.org/foundations/hol?Eta&#45;&gt;http://latin.omdoc.org/foundations/hol?FunctionalExtensionality -->
<g id="edge5" class="edge"><title>http://latin.omdoc.org/foundations/hol?Eta&#45;&gt;http://latin.omdoc.org/foundations/hol?FunctionalExtensionality</title>
<a xlink:href="http://latin.omdoc.org/foundations/hol?EF" class="graphview">
<path fill="none" stroke="black" d="M70.3115,-34C77.7564,-34 86.2999,-34 95.3904,-34"/>
<polygon fill="black" stroke="black" points="95.4431,-37.5001 105.443,-34 95.443,-30.5001 95.4431,-37.5001"/>
</a>
<a xlink:href="http://latin.omdoc.org/foundations/hol?EF" class="EF">
<text text-anchor="middle" x="87.6044" y="-40.8" font-family="Times New Roman,serif" font-size="14.00">EF</text>
</a>
</g>
<!-- http://latin.omdoc.org/foundations/hol?FunctionalExtensionality&#45;&gt;http://latin.omdoc.org/foundations/hol?Eta -->
<g id="edge3" class="edge"><title>http://latin.omdoc.org/foundations/hol?FunctionalExtensionality&#45;&gt;http://latin.omdoc.org/foundations/hol?Eta</title>
<a xlink:href="http://latin.omdoc.org/foundations/hol?FE" class="graphview">
<path fill="none" stroke="black" d="M105.443,-34C96.63,-34 88.1214,-34 80.3699,-34"/>
<polygon fill="black" stroke="black" points="80.3115,-30.5001 70.3115,-34 80.3114,-37.5001 80.3115,-30.5001"/>
</a>
<a xlink:href="http://latin.omdoc.org/foundations/hol?FE" class="FE">
<text text-anchor="middle" x="87.6044" y="-40.8" font-family="Times New Roman,serif" font-size="14.00">FE</text>
</a>
</g>
<!-- http://latin.omdoc.org/logics/proof_theory?HOL -->
<g id="node6" class="node"><title>http://latin.omdoc.org/logics/proof_theory?HOL</title>
<a xlink:href="http://latin.omdoc.org/logics/proof_theory?HOL" class="graphtheory">
<ellipse fill="gray" stroke="black" cx="135" cy="-108" rx="29.3722" ry="18"/>
<text text-anchor="middle" x="135" y="-104.3" font-family="Times New Roman,serif" font-size="14.00">HOL</text>
</a>
</g>
<!-- http://latin.omdoc.org/logics/proof_theory?HOL&#45;&gt;http://latin.omdoc.org/foundations/hol?Eta -->
<g id="edge7" class="edge"><title>http://latin.omdoc.org/logics/proof_theory?HOL&#45;&gt;http://latin.omdoc.org/foundations/hol?Eta</title>
<a class="graphinclude">
<path fill="none" stroke="black" d="M117.302,-93.5284C105.083,-84.1871 88.4888,-71.4218 74,-60 71.9571,-58.3895 69.845,-56.7124 67.7283,-55.023"/>
<polygon fill="black" stroke="black" points="69.6672,-52.0913 59.6776,-48.5617 65.2857,-57.5506 69.6672,-52.0913"/>
</a>
</g>
<!-- http://latin.omdoc.org/logics/proof_theory?HOL&#45;&gt;http://latin.omdoc.org/foundations/hol?FunctionalExtensionality -->
<g id="edge15" class="edge"><title>http://latin.omdoc.org/logics/proof_theory?HOL&#45;&gt;http://latin.omdoc.org/foundations/hol?FunctionalExtensionality</title>
<a class="graphinclude">
<path fill="none" stroke="black" d="M149.297,-92.0816C158.405,-82.577 170.415,-70.0454 180.86,-59.1457"/>
<polygon fill="black" stroke="black" points="183.395,-61.5593 187.787,-51.9178 178.341,-56.716 183.395,-61.5593"/>
</a>
</g>
<!-- http://cds.omdoc.org/urtheories?LF -->
<g id="node8" class="node"><title>http://cds.omdoc.org/urtheories?LF</title>
<a xlink:href="http://cds.omdoc.org/urtheories?LF" class="graphtheory">
<ellipse fill="gray" stroke="black" cx="135" cy="-182" rx="27" ry="18"/>
<text text-anchor="middle" x="135" y="-178.3" font-family="Times New Roman,serif" font-size="14.00">LF</text>
</a>
</g>
<!-- http://cds.omdoc.org/urtheories?LF&#45;&gt;http://latin.omdoc.org/foundations/hol?Eta -->
<g id="edge9" class="edge"><title>http://cds.omdoc.org/urtheories?LF&#45;&gt;http://latin.omdoc.org/foundations/hol?Eta</title>
<a class="graphmeta">
<path fill="none" stroke="black" d="M123.732,-165.31C116.011,-154.412 105.644,-139.483 97,-126 82.8356,-103.905 67.6631,-78.1307 57.0189,-59.6644"/>
<polygon fill="black" stroke="black" points="60.0507,-57.9156 52.0383,-50.9836 53.9791,-61.3992 60.0507,-57.9156"/>
</a>
</g>
<!-- http://cds.omdoc.org/urtheories?LF&#45;&gt;http://latin.omdoc.org/foundations/hol?FunctionalExtensionality -->
<g id="edge11" class="edge"><title>http://cds.omdoc.org/urtheories?LF&#45;&gt;http://latin.omdoc.org/foundations/hol?FunctionalExtensionality</title>
<a class="graphmeta">
<path fill="none" stroke="black" d="M147.187,-165.834C155.317,-155.17 165.797,-140.305 173,-126 183.401,-105.343 191.626,-80.3851 196.982,-61.8357"/>
<polygon fill="black" stroke="black" points="200.411,-62.5699 199.728,-51.997 193.668,-60.6876 200.411,-62.5699"/>
</a>
</g>
<!-- http://cds.omdoc.org/urtheories?LF&#45;&gt;http://latin.omdoc.org/logics/proof_theory?HOL -->
<g id="edge13" class="edge"><title>http://cds.omdoc.org/urtheories?LF&#45;&gt;http://latin.omdoc.org/logics/proof_theory?HOL</title>
<a class="graphmeta">
<path fill="none" stroke="black" d="M135,-163.937C135,-155.807 135,-145.876 135,-136.705"/>
<polygon fill="black" stroke="black" points="138.5,-136.441 135,-126.441 131.5,-136.441 138.5,-136.441"/>
</a>
</g>
</g>
</svg>
