<?xml version="1.0" encoding="UTF-8" standalone="no"?>
<!DOCTYPE svg PUBLIC "-//W3C//DTD SVG 1.1//EN"
 "http://www.w3.org/Graphics/SVG/1.1/DTD/svg11.dtd">
<!-- Generated by graphviz version 2.28.0 (20110507.0327)
 -->
<!-- Title: MMT Pages: 1 -->
<svg width="1062pt" height="516pt"
 viewBox="0.00 0.00 1062.00 516.00" xmlns="http://www.w3.org/2000/svg" xmlns:xlink="http://www.w3.org/1999/xlink">
<g id="graph1" class="graph" transform="scale(1 1) rotate(0) translate(4 512)">
<title>MMT</title>
<polygon fill="white" stroke="white" points="-4,5 -4,-512 1059,-512 1059,5 -4,5"/>
<g id="graph2" class="cluster"><title>cluster_local</title>
<polygon fill="none" stroke="black" points="497,-66 497,-118 615,-118 615,-66 497,-66"/>
</g>
<!-- http://latin.omdoc.org/foundations/hol?SFOL&#45;Syn -->
<g id="node2" class="node"><title>http://latin.omdoc.org/foundations/hol?SFOL&#45;Syn</title>
<a xlink:href="http://latin.omdoc.org/foundations/hol?SFOL-Syn" class="graphtheory">
<ellipse fill="none" stroke="black" cx="556" cy="-92" rx="50.5427" ry="18"/>
<text text-anchor="middle" x="556" y="-88.3" font-family="Times New Roman,serif" font-size="14.00">SFOL&#45;Syn</text>
</a>
</g>
<!-- http://latin.omdoc.org/foundations/hol?SFOL&#45;Pf1 -->
<g id="node31" class="node"><title>http://latin.omdoc.org/foundations/hol?SFOL&#45;Pf1</title>
<a xlink:href="http://latin.omdoc.org/foundations/hol?SFOL-Pf1" class="graphtheory">
<ellipse fill="gray" stroke="black" cx="931" cy="-18" rx="49.0941" ry="18"/>
<text text-anchor="middle" x="931" y="-14.3" font-family="Times New Roman,serif" font-size="14.00">SFOL&#45;Pf1</text>
</a>
</g>
<!-- http://latin.omdoc.org/foundations/hol?SFOL&#45;Syn&#45;&gt;http://latin.omdoc.org/foundations/hol?SFOL&#45;Pf1 -->
<g id="edge31" class="edge"><title>http://latin.omdoc.org/foundations/hol?SFOL&#45;Syn&#45;&gt;http://latin.omdoc.org/foundations/hol?SFOL&#45;Pf1</title>
<a class="graphinclude">
<path fill="none" stroke="black" d="M599.384,-82.6703C668.618,-69.3772 803.869,-43.4092 878.47,-29.0857"/>
<polygon fill="black" stroke="black" points="879.42,-32.4673 888.581,-27.1444 878.1,-25.5929 879.42,-32.4673"/>
</a>
</g>
<!-- http://latin.omdoc.org/logics/syntax?SForall -->
<g id="node3" class="node"><title>http://latin.omdoc.org/logics/syntax?SForall</title>
<a xlink:href="http://latin.omdoc.org/logics/syntax?SForall" class="graphtheory">
<ellipse fill="gray" stroke="black" cx="339" cy="-268" rx="37.0701" ry="18"/>
<text text-anchor="middle" x="339" y="-264.3" font-family="Times New Roman,serif" font-size="14.00">SForall</text>
</a>
</g>
<!-- http://latin.omdoc.org/logics/syntax?SForall&#45;&gt;http://latin.omdoc.org/foundations/hol?SFOL&#45;Syn -->
<g id="edge3" class="edge"><title>http://latin.omdoc.org/logics/syntax?SForall&#45;&gt;http://latin.omdoc.org/foundations/hol?SFOL&#45;Syn</title>
<a xlink:href="http://latin.omdoc.org/translations/sfol_hol?SForall" class="graphview">
<path fill="none" stroke="black" d="M343.536,-250.092C349.979,-228.217 363.345,-189.645 384,-162 398.169,-143.036 403.304,-137.47 425,-128 456.224,-114.37 468.246,-127.373 501,-118 507.154,-116.239 513.5,-113.896 519.597,-111.35"/>
<polygon fill="black" stroke="black" points="521.176,-114.479 528.908,-107.235 518.346,-108.076 521.176,-114.479"/>
</a>
<a xlink:href="http://latin.omdoc.org/translations/sfol_hol?SForall" class="SForall">
<text text-anchor="middle" x="404.5" y="-176.3" font-family="Times New Roman,serif" font-size="14.00">SForall</text>
</a>
</g>
<!-- http://latin.omdoc.org/logics/syntax?SFOL -->
<g id="node25" class="node"><title>http://latin.omdoc.org/logics/syntax?SFOL</title>
<a xlink:href="http://latin.omdoc.org/logics/syntax?SFOL" class="graphtheory">
<ellipse fill="gray" stroke="black" cx="300" cy="-180" rx="33.1991" ry="18"/>
<text text-anchor="middle" x="300" y="-176.3" font-family="Times New Roman,serif" font-size="14.00">SFOL</text>
</a>
</g>
<!-- http://latin.omdoc.org/logics/syntax?SForall&#45;&gt;http://latin.omdoc.org/logics/syntax?SFOL -->
<g id="edge113" class="edge"><title>http://latin.omdoc.org/logics/syntax?SForall&#45;&gt;http://latin.omdoc.org/logics/syntax?SFOL</title>
<a class="graphinclude">
<path fill="none" stroke="black" d="M335.891,-249.931C333.658,-239.762 330.128,-226.778 325,-216 323.246,-212.312 321.1,-208.603 318.81,-205.05"/>
<polygon fill="black" stroke="black" points="321.544,-202.851 312.962,-196.639 315.797,-206.847 321.544,-202.851"/>
</a>
</g>
<!-- http://latin.omdoc.org/logics/syntax?BaseSFOL -->
<g id="node5" class="node"><title>http://latin.omdoc.org/logics/syntax?BaseSFOL</title>
<a xlink:href="http://latin.omdoc.org/logics/syntax?BaseSFOL" class="graphtheory">
<ellipse fill="gray" stroke="black" cx="194" cy="-342" rx="51.0191" ry="18"/>
<text text-anchor="middle" x="194" y="-338.3" font-family="Times New Roman,serif" font-size="14.00">BaseSFOL</text>
</a>
</g>
<!-- http://latin.omdoc.org/logics/syntax?BaseSFOL&#45;&gt;http://latin.omdoc.org/foundations/hol?SFOL&#45;Syn -->
<g id="edge5" class="edge"><title>http://latin.omdoc.org/logics/syntax?BaseSFOL&#45;&gt;http://latin.omdoc.org/foundations/hol?SFOL&#45;Syn</title>
<a xlink:href="http://latin.omdoc.org/translations/sfol_hol?BaseSFOL" class="graphview">
<path fill="none" stroke="black" d="M188.175,-323.712C180.818,-298.913 170.733,-252.239 185,-216 204.584,-166.257 218.445,-150.368 267,-128 314.273,-106.223 450.379,-130.102 501,-118 507.36,-116.48 513.884,-114.217 520.115,-111.664"/>
<polygon fill="black" stroke="black" points="521.865,-114.717 529.6,-107.478 519.038,-108.313 521.865,-114.717"/>
</a>
<a xlink:href="http://latin.omdoc.org/translations/sfol_hol?BaseSFOL" class="BaseSFOL">
<text text-anchor="middle" x="216.5" y="-220.3" font-family="Times New Roman,serif" font-size="14.00">BaseSFOL</text>
</a>
</g>
<!-- http://latin.omdoc.org/logics/syntax?BaseSFOL&#45;&gt;http://latin.omdoc.org/logics/syntax?SForall -->
<g id="edge105" class="edge"><title>http://latin.omdoc.org/logics/syntax?BaseSFOL&#45;&gt;http://latin.omdoc.org/logics/syntax?SForall</title>
<a class="graphinclude">
<path fill="none" stroke="black" d="M219.925,-326.326C232.514,-319.347 247.927,-311.016 262,-304 275.09,-297.474 289.652,-290.728 302.557,-284.92"/>
<polygon fill="black" stroke="black" points="304.347,-287.954 312.051,-280.682 301.493,-281.562 304.347,-287.954"/>
</a>
</g>
<!-- http://latin.omdoc.org/logics/syntax?SExists -->
<g id="node11" class="node"><title>http://latin.omdoc.org/logics/syntax?SExists</title>
<a xlink:href="http://latin.omdoc.org/logics/syntax?SExists" class="graphtheory">
<ellipse fill="gray" stroke="black" cx="606" cy="-268" rx="38.0212" ry="18"/>
<text text-anchor="middle" x="606" y="-264.3" font-family="Times New Roman,serif" font-size="14.00">SExists</text>
</a>
</g>
<!-- http://latin.omdoc.org/logics/syntax?BaseSFOL&#45;&gt;http://latin.omdoc.org/logics/syntax?SExists -->
<g id="edge109" class="edge"><title>http://latin.omdoc.org/logics/syntax?BaseSFOL&#45;&gt;http://latin.omdoc.org/logics/syntax?SExists</title>
<a class="graphinclude">
<path fill="none" stroke="black" d="M238.347,-333.013C255.136,-330.067 274.432,-326.773 292,-324 410.396,-305.31 442.694,-314.982 559,-286 561.936,-285.268 564.945,-284.42 567.952,-283.502"/>
<polygon fill="black" stroke="black" points="569.048,-286.826 577.457,-280.381 566.864,-280.175 569.048,-286.826"/>
</a>
</g>
<!-- http://latin.omdoc.org/logics/syntax?SEqual -->
<g id="node13" class="node"><title>http://latin.omdoc.org/logics/syntax?SEqual</title>
<a xlink:href="http://latin.omdoc.org/logics/syntax?SEqual" class="graphtheory">
<ellipse fill="gray" stroke="black" cx="82" cy="-268" rx="36.096" ry="18"/>
<text text-anchor="middle" x="82" y="-264.3" font-family="Times New Roman,serif" font-size="14.00">SEqual</text>
</a>
</g>
<!-- http://latin.omdoc.org/logics/syntax?BaseSFOL&#45;&gt;http://latin.omdoc.org/logics/syntax?SEqual -->
<g id="edge107" class="edge"><title>http://latin.omdoc.org/logics/syntax?BaseSFOL&#45;&gt;http://latin.omdoc.org/logics/syntax?SEqual</title>
<a class="graphinclude">
<path fill="none" stroke="black" d="M170.521,-325.906C153.433,-314.921 130.161,-299.961 111.768,-288.136"/>
<polygon fill="black" stroke="black" points="113.483,-285.078 103.178,-282.615 109.698,-290.966 113.483,-285.078"/>
</a>
</g>
<!-- http://latin.omdoc.org/logics/syntax?BaseSFOL&#45;&gt;http://latin.omdoc.org/logics/syntax?SFOL -->
<g id="edge111" class="edge"><title>http://latin.omdoc.org/logics/syntax?BaseSFOL&#45;&gt;http://latin.omdoc.org/logics/syntax?SFOL</title>
<a class="graphinclude">
<path fill="none" stroke="black" d="M217.051,-325.78C242.879,-307.19 283.316,-273.088 300,-232 302.977,-224.668 303.876,-216.239 303.784,-208.373"/>
<polygon fill="black" stroke="black" points="307.262,-207.915 303.147,-198.152 300.276,-208.35 307.262,-207.915"/>
</a>
</g>
<!-- http://latin.omdoc.org/logics/syntax?Falsity -->
<g id="node7" class="node"><title>http://latin.omdoc.org/logics/syntax?Falsity</title>
<a xlink:href="http://latin.omdoc.org/logics/syntax?Falsity" class="graphtheory">
<ellipse fill="gray" stroke="black" cx="577" cy="-342" rx="34.1708" ry="18"/>
<text text-anchor="middle" x="577" y="-338.3" font-family="Times New Roman,serif" font-size="14.00">Falsity</text>
</a>
</g>
<!-- http://latin.omdoc.org/logics/syntax?Falsity&#45;&gt;http://latin.omdoc.org/foundations/hol?SFOL&#45;Syn -->
<g id="edge7" class="edge"><title>http://latin.omdoc.org/logics/syntax?Falsity&#45;&gt;http://latin.omdoc.org/foundations/hol?SFOL&#45;Syn</title>
<a xlink:href="http://latin.omdoc.org/translations/prop_hol?Falsity" class="graphview">
<path fill="none" stroke="black" d="M602.908,-330.057C620.56,-321.06 642.555,-306.452 653,-286 660.277,-271.751 654.784,-265.9 653,-250 648.528,-210.142 653.339,-196.569 633,-162 621.761,-142.897 603.45,-126.169 587.504,-113.97"/>
<polygon fill="black" stroke="black" points="589.556,-111.135 579.431,-108.015 585.401,-116.768 589.556,-111.135"/>
</a>
<a xlink:href="http://latin.omdoc.org/translations/prop_hol?Falsity" class="Falsity">
<text text-anchor="middle" x="670.5" y="-220.3" font-family="Times New Roman,serif" font-size="14.00">Falsity</text>
</a>
</g>
<!-- http://latin.omdoc.org/logics/syntax?PL -->
<g id="node19" class="node"><title>http://latin.omdoc.org/logics/syntax?PL</title>
<a xlink:href="http://latin.omdoc.org/logics/syntax?PL" class="graphtheory">
<ellipse fill="gray" stroke="black" cx="523" cy="-268" rx="27" ry="18"/>
<text text-anchor="middle" x="523" y="-264.3" font-family="Times New Roman,serif" font-size="14.00">PL</text>
</a>
</g>
<!-- http://latin.omdoc.org/logics/syntax?Falsity&#45;&gt;http://latin.omdoc.org/logics/syntax?PL -->
<g id="edge103" class="edge"><title>http://latin.omdoc.org/logics/syntax?Falsity&#45;&gt;http://latin.omdoc.org/logics/syntax?PL</title>
<a class="graphinclude">
<path fill="none" stroke="black" d="M565.016,-325.021C557.856,-315.475 548.632,-303.176 540.651,-292.535"/>
<polygon fill="black" stroke="black" points="543.38,-290.34 534.58,-284.44 537.78,-294.54 543.38,-290.34"/>
</a>
</g>
<!-- http://latin.omdoc.org/logics/syntax?CONJ -->
<g id="node9" class="node"><title>http://latin.omdoc.org/logics/syntax?CONJ</title>
<a xlink:href="http://latin.omdoc.org/logics/syntax?CONJ" class="graphtheory">
<ellipse fill="gray" stroke="black" cx="335" cy="-342" rx="33.1991" ry="18"/>
<text text-anchor="middle" x="335" y="-338.3" font-family="Times New Roman,serif" font-size="14.00">CONJ</text>
</a>
</g>
<!-- http://latin.omdoc.org/logics/syntax?CONJ&#45;&gt;http://latin.omdoc.org/foundations/hol?SFOL&#45;Syn -->
<g id="edge9" class="edge"><title>http://latin.omdoc.org/logics/syntax?CONJ&#45;&gt;http://latin.omdoc.org/foundations/hol?SFOL&#45;Syn</title>
<a xlink:href="http://latin.omdoc.org/translations/prop_hol?CONJ" class="graphview">
<path fill="none" stroke="black" d="M319.174,-325.862C288.554,-294.662 226.775,-221.169 257,-162 268.728,-139.04 279.681,-136.561 304,-128 345.347,-113.444 458.408,-128.363 501,-118 507.354,-116.454 513.875,-114.178 520.105,-111.62"/>
<polygon fill="black" stroke="black" points="521.855,-114.673 529.589,-107.432 519.027,-108.27 521.855,-114.673"/>
</a>
<a xlink:href="http://latin.omdoc.org/translations/prop_hol?CONJ" class="CONJ">
<text text-anchor="middle" x="274" y="-220.3" font-family="Times New Roman,serif" font-size="14.00">CONJ</text>
</a>
</g>
<!-- http://latin.omdoc.org/logics/syntax?CONJ&#45;&gt;http://latin.omdoc.org/logics/syntax?PL -->
<g id="edge101" class="edge"><title>http://latin.omdoc.org/logics/syntax?CONJ&#45;&gt;http://latin.omdoc.org/logics/syntax?PL</title>
<a class="graphinclude">
<path fill="none" stroke="black" d="M361.537,-330.837C395.398,-317.869 453.945,-295.447 490.461,-281.462"/>
<polygon fill="black" stroke="black" points="492.05,-284.601 500.137,-277.756 489.547,-278.064 492.05,-284.601"/>
</a>
</g>
<!-- http://latin.omdoc.org/logics/syntax?SExists&#45;&gt;http://latin.omdoc.org/foundations/hol?SFOL&#45;Syn -->
<g id="edge11" class="edge"><title>http://latin.omdoc.org/logics/syntax?SExists&#45;&gt;http://latin.omdoc.org/foundations/hol?SFOL&#45;Syn</title>
<a xlink:href="http://latin.omdoc.org/translations/sfol_hol?SExists" class="graphview">
<path fill="none" stroke="black" d="M601.115,-249.999C592.415,-219.723 574.174,-156.245 563.748,-119.962"/>
<polygon fill="black" stroke="black" points="567.031,-118.714 560.905,-110.07 560.303,-120.647 567.031,-118.714"/>
</a>
<a xlink:href="http://latin.omdoc.org/translations/sfol_hol?SExists" class="SExists">
<text text-anchor="middle" x="607.5" y="-176.3" font-family="Times New Roman,serif" font-size="14.00">SExists</text>
</a>
</g>
<!-- http://latin.omdoc.org/logics/syntax?SExists&#45;&gt;http://latin.omdoc.org/logics/syntax?SFOL -->
<g id="edge99" class="edge"><title>http://latin.omdoc.org/logics/syntax?SExists&#45;&gt;http://latin.omdoc.org/logics/syntax?SFOL</title>
<a class="graphinclude">
<path fill="none" stroke="black" d="M577.415,-255.783C571.393,-253.668 565.035,-251.616 559,-250 514.956,-238.203 501.368,-246.079 458,-232 442.497,-226.967 440.364,-221.444 425,-216 391.873,-204.261 381.727,-207.882 348,-198 344.149,-196.872 340.155,-195.609 336.189,-194.295"/>
<polygon fill="black" stroke="black" points="337.082,-190.902 326.488,-190.971 334.813,-197.524 337.082,-190.902"/>
</a>
</g>
<!-- http://latin.omdoc.org/logics/syntax?SEqual&#45;&gt;http://latin.omdoc.org/foundations/hol?SFOL&#45;Syn -->
<g id="edge13" class="edge"><title>http://latin.omdoc.org/logics/syntax?SEqual&#45;&gt;http://latin.omdoc.org/foundations/hol?SFOL&#45;Syn</title>
<a xlink:href="http://latin.omdoc.org/translations/sfol_hol?SEqual" class="graphview">
<path fill="none" stroke="black" d="M82.6395,-249.766C84.1558,-227.884 89.2153,-189.655 106,-162 118.106,-142.054 124.216,-136.357 146,-128 182.842,-113.866 462.556,-126.896 501,-118 507.438,-116.51 514.038,-114.24 520.331,-111.663"/>
<polygon fill="black" stroke="black" points="522.17,-114.677 529.898,-107.43 519.337,-108.275 522.17,-114.677"/>
</a>
<a xlink:href="http://latin.omdoc.org/translations/sfol_hol?SEqual" class="SEqual">
<text text-anchor="middle" x="126" y="-176.3" font-family="Times New Roman,serif" font-size="14.00">SEqual</text>
</a>
</g>
<!-- http://latin.omdoc.org/logics/syntax?SFOLEQ -->
<g id="node23" class="node"><title>http://latin.omdoc.org/logics/syntax?SFOLEQ</title>
<a xlink:href="http://latin.omdoc.org/logics/syntax?SFOLEQ" class="graphtheory">
<ellipse fill="gray" stroke="black" cx="46" cy="-92" rx="46.2191" ry="18"/>
<text text-anchor="middle" x="46" y="-88.3" font-family="Times New Roman,serif" font-size="14.00">SFOLEQ</text>
</a>
</g>
<!-- http://latin.omdoc.org/logics/syntax?SEqual&#45;&gt;http://latin.omdoc.org/logics/syntax?SFOLEQ -->
<g id="edge97" class="edge"><title>http://latin.omdoc.org/logics/syntax?SEqual&#45;&gt;http://latin.omdoc.org/logics/syntax?SFOLEQ</title>
<a class="graphinclude">
<path fill="none" stroke="black" d="M78.4826,-249.999C72.2186,-219.723 59.0853,-156.245 51.5783,-119.962"/>
<polygon fill="black" stroke="black" points="54.9852,-119.153 49.5317,-110.07 48.1304,-120.571 54.9852,-119.153"/>
</a>
</g>
<!-- http://latin.omdoc.org/logics/syntax?Truth -->
<g id="node15" class="node"><title>http://latin.omdoc.org/logics/syntax?Truth</title>
<a xlink:href="http://latin.omdoc.org/logics/syntax?Truth" class="graphtheory">
<ellipse fill="gray" stroke="black" cx="456" cy="-342" rx="30.3206" ry="18"/>
<text text-anchor="middle" x="456" y="-338.3" font-family="Times New Roman,serif" font-size="14.00">Truth</text>
</a>
</g>
<!-- http://latin.omdoc.org/logics/syntax?Truth&#45;&gt;http://latin.omdoc.org/foundations/hol?SFOL&#45;Syn -->
<g id="edge15" class="edge"><title>http://latin.omdoc.org/logics/syntax?Truth&#45;&gt;http://latin.omdoc.org/foundations/hol?SFOL&#45;Syn</title>
<a xlink:href="http://latin.omdoc.org/translations/prop_hol?Truth" class="graphview">
<path fill="none" stroke="black" d="M459.944,-324.085C465.858,-299.74 477.952,-253.613 493,-216 506.847,-181.389 527.093,-143.482 540.869,-119.029"/>
<polygon fill="black" stroke="black" points="544.08,-120.464 545.983,-110.042 537.996,-117.002 544.08,-120.464"/>
</a>
<a xlink:href="http://latin.omdoc.org/translations/prop_hol?Truth" class="Truth">
<text text-anchor="middle" x="508.5" y="-220.3" font-family="Times New Roman,serif" font-size="14.00">Truth</text>
</a>
</g>
<!-- http://latin.omdoc.org/logics/syntax?Truth&#45;&gt;http://latin.omdoc.org/logics/syntax?PL -->
<g id="edge95" class="edge"><title>http://latin.omdoc.org/logics/syntax?Truth&#45;&gt;http://latin.omdoc.org/logics/syntax?PL</title>
<a class="graphinclude">
<path fill="none" stroke="black" d="M470.209,-325.731C479.572,-315.669 491.985,-302.33 502.422,-291.114"/>
<polygon fill="black" stroke="black" points="505.02,-293.46 509.27,-283.755 499.895,-288.691 505.02,-293.46"/>
</a>
</g>
<!-- http://latin.omdoc.org/logics/syntax?Logic -->
<g id="node17" class="node"><title>http://latin.omdoc.org/logics/syntax?Logic</title>
<a xlink:href="http://latin.omdoc.org/logics/syntax?Logic" class="graphtheory">
<ellipse fill="gray" stroke="black" cx="516" cy="-416" rx="31.2735" ry="18"/>
<text text-anchor="middle" x="516" y="-412.3" font-family="Times New Roman,serif" font-size="14.00">Logic</text>
</a>
</g>
<!-- http://latin.omdoc.org/logics/syntax?Logic&#45;&gt;http://latin.omdoc.org/foundations/hol?SFOL&#45;Syn -->
<g id="edge17" class="edge"><title>http://latin.omdoc.org/logics/syntax?Logic&#45;&gt;http://latin.omdoc.org/foundations/hol?SFOL&#45;Syn</title>
<a xlink:href="http://latin.omdoc.org/translations/prop_hol?Base" class="graphview">
<path fill="none" stroke="black" d="M491.198,-404.843C464.41,-393.308 424.42,-374.241 416,-360 407.857,-346.227 413.696,-339.833 416,-324 427.591,-244.34 449.517,-227.003 497,-162 508.382,-146.418 511.482,-142.685 524,-128 527.171,-124.28 530.593,-120.402 533.978,-116.641"/>
<polygon fill="black" stroke="black" points="536.637,-118.92 540.784,-109.17 531.462,-114.206 536.637,-118.92"/>
</a>
<a xlink:href="http://latin.omdoc.org/translations/prop_hol?Base" class="Base">
<text text-anchor="middle" x="451" y="-264.3" font-family="Times New Roman,serif" font-size="14.00">Base</text>
</a>
</g>
<!-- http://latin.omdoc.org/logics/syntax?Logic&#45;&gt;http://latin.omdoc.org/logics/syntax?BaseSFOL -->
<g id="edge91" class="edge"><title>http://latin.omdoc.org/logics/syntax?Logic&#45;&gt;http://latin.omdoc.org/logics/syntax?BaseSFOL</title>
<a class="graphinclude">
<path fill="none" stroke="black" d="M487.141,-408.547C432.815,-396.4 314.67,-369.982 246.109,-354.652"/>
<polygon fill="black" stroke="black" points="246.481,-351.148 235.958,-352.382 244.953,-357.98 246.481,-351.148"/>
</a>
</g>
<!-- http://latin.omdoc.org/logics/syntax?Logic&#45;&gt;http://latin.omdoc.org/logics/syntax?Falsity -->
<g id="edge85" class="edge"><title>http://latin.omdoc.org/logics/syntax?Logic&#45;&gt;http://latin.omdoc.org/logics/syntax?Falsity</title>
<a class="graphinclude">
<path fill="none" stroke="black" d="M529.236,-399.377C537.278,-389.885 547.707,-377.575 556.768,-366.881"/>
<polygon fill="black" stroke="black" points="559.574,-368.983 563.367,-359.091 554.233,-364.458 559.574,-368.983"/>
</a>
</g>
<!-- http://latin.omdoc.org/logics/syntax?Logic&#45;&gt;http://latin.omdoc.org/logics/syntax?CONJ -->
<g id="edge83" class="edge"><title>http://latin.omdoc.org/logics/syntax?Logic&#45;&gt;http://latin.omdoc.org/logics/syntax?CONJ</title>
<a class="graphinclude">
<path fill="none" stroke="black" d="M490.833,-404.989C459.579,-392.556 406.066,-371.269 370.613,-357.166"/>
<polygon fill="black" stroke="black" points="371.711,-353.837 361.126,-353.393 369.124,-360.341 371.711,-353.837"/>
</a>
</g>
<!-- http://latin.omdoc.org/logics/syntax?Logic&#45;&gt;http://latin.omdoc.org/logics/syntax?Truth -->
<g id="edge93" class="edge"><title>http://latin.omdoc.org/logics/syntax?Logic&#45;&gt;http://latin.omdoc.org/logics/syntax?Truth</title>
<a class="graphinclude">
<path fill="none" stroke="black" d="M502.981,-399.377C494.961,-389.753 484.527,-377.233 475.53,-366.436"/>
<polygon fill="black" stroke="black" points="478.084,-364.034 468.994,-358.592 472.707,-368.515 478.084,-364.034"/>
</a>
</g>
<!-- http://latin.omdoc.org/logics/syntax?Logic&#45;&gt;http://latin.omdoc.org/logics/syntax?PL -->
<g id="edge79" class="edge"><title>http://latin.omdoc.org/logics/syntax?Logic&#45;&gt;http://latin.omdoc.org/logics/syntax?PL</title>
<a class="graphinclude">
<path fill="none" stroke="black" d="M516.817,-397.966C518.012,-373.045 520.249,-326.374 521.68,-296.537"/>
<polygon fill="black" stroke="black" points="525.184,-296.534 522.167,-286.378 518.192,-296.199 525.184,-296.534"/>
</a>
</g>
<!-- http://latin.omdoc.org/logics/syntax?DISJ -->
<g id="node21" class="node"><title>http://latin.omdoc.org/logics/syntax?DISJ</title>
<a xlink:href="http://latin.omdoc.org/logics/syntax?DISJ" class="graphtheory">
<ellipse fill="gray" stroke="black" cx="773" cy="-342" rx="28.3955" ry="18"/>
<text text-anchor="middle" x="773" y="-338.3" font-family="Times New Roman,serif" font-size="14.00">DISJ</text>
</a>
</g>
<!-- http://latin.omdoc.org/logics/syntax?Logic&#45;&gt;http://latin.omdoc.org/logics/syntax?DISJ -->
<g id="edge87" class="edge"><title>http://latin.omdoc.org/logics/syntax?Logic&#45;&gt;http://latin.omdoc.org/logics/syntax?DISJ</title>
<a class="graphinclude">
<path fill="none" stroke="black" d="M543.993,-407.158C591.071,-393.968 686.001,-367.373 737.623,-352.911"/>
<polygon fill="black" stroke="black" points="738.657,-356.256 747.342,-350.188 736.769,-349.516 738.657,-356.256"/>
</a>
</g>
<!-- http://latin.omdoc.org/logics/syntax?NEG -->
<g id="node27" class="node"><title>http://latin.omdoc.org/logics/syntax?NEG</title>
<a xlink:href="http://latin.omdoc.org/logics/syntax?NEG" class="graphtheory">
<ellipse fill="gray" stroke="black" cx="659" cy="-342" rx="29.3722" ry="18"/>
<text text-anchor="middle" x="659" y="-338.3" font-family="Times New Roman,serif" font-size="14.00">NEG</text>
</a>
</g>
<!-- http://latin.omdoc.org/logics/syntax?Logic&#45;&gt;http://latin.omdoc.org/logics/syntax?NEG -->
<g id="edge81" class="edge"><title>http://latin.omdoc.org/logics/syntax?Logic&#45;&gt;http://latin.omdoc.org/logics/syntax?NEG</title>
<a class="graphinclude">
<path fill="none" stroke="black" d="M538.975,-403.432C563.129,-391.271 601.27,-372.067 628.06,-358.578"/>
<polygon fill="black" stroke="black" points="629.663,-361.69 637.021,-354.066 626.515,-355.437 629.663,-361.69"/>
</a>
</g>
<!-- http://latin.omdoc.org/logics/syntax?IMP -->
<g id="node29" class="node"><title>http://latin.omdoc.org/logics/syntax?IMP</title>
<a xlink:href="http://latin.omdoc.org/logics/syntax?IMP" class="graphtheory">
<ellipse fill="gray" stroke="black" cx="847" cy="-342" rx="27" ry="18"/>
<text text-anchor="middle" x="847" y="-338.3" font-family="Times New Roman,serif" font-size="14.00">IMP</text>
</a>
</g>
<!-- http://latin.omdoc.org/logics/syntax?Logic&#45;&gt;http://latin.omdoc.org/logics/syntax?IMP -->
<g id="edge89" class="edge"><title>http://latin.omdoc.org/logics/syntax?Logic&#45;&gt;http://latin.omdoc.org/logics/syntax?IMP</title>
<a class="graphinclude">
<path fill="none" stroke="black" d="M546.654,-411.78C600.796,-405.543 716.471,-389.735 810,-360 812.274,-359.277 814.591,-358.449 816.901,-357.557"/>
<polygon fill="black" stroke="black" points="818.368,-360.737 826.224,-353.628 815.649,-354.286 818.368,-360.737"/>
</a>
</g>
<!-- http://latin.omdoc.org/logics/syntax?PL&#45;&gt;http://latin.omdoc.org/foundations/hol?SFOL&#45;Syn -->
<g id="edge19" class="edge"><title>http://latin.omdoc.org/logics/syntax?PL&#45;&gt;http://latin.omdoc.org/foundations/hol?SFOL&#45;Syn</title>
<a xlink:href="http://latin.omdoc.org/translations/prop_hol?Prop" class="graphview">
<path fill="none" stroke="black" d="M525.133,-249.821C527.835,-228.959 532.883,-192.745 539,-162 541.765,-148.104 545.47,-132.789 548.716,-120.125"/>
<polygon fill="black" stroke="black" points="552.167,-120.76 551.303,-110.201 545.394,-118.994 552.167,-120.76"/>
</a>
<a xlink:href="http://latin.omdoc.org/translations/prop_hol?Prop" class="Prop">
<text text-anchor="middle" x="553" y="-176.3" font-family="Times New Roman,serif" font-size="14.00">Prop</text>
</a>
</g>
<!-- http://latin.omdoc.org/logics/syntax?PL&#45;&gt;http://latin.omdoc.org/logics/syntax?SFOL -->
<g id="edge77" class="edge"><title>http://latin.omdoc.org/logics/syntax?PL&#45;&gt;http://latin.omdoc.org/logics/syntax?SFOL</title>
<a class="graphinclude">
<path fill="none" stroke="black" d="M500.035,-258.459C481.192,-251.426 453.833,-241.159 430,-232 398.094,-219.738 361.901,-205.514 335.821,-195.207"/>
<polygon fill="black" stroke="black" points="336.937,-191.885 326.35,-191.461 334.362,-198.394 336.937,-191.885"/>
</a>
</g>
<!-- http://latin.omdoc.org/logics/syntax?DISJ&#45;&gt;http://latin.omdoc.org/foundations/hol?SFOL&#45;Syn -->
<g id="edge21" class="edge"><title>http://latin.omdoc.org/logics/syntax?DISJ&#45;&gt;http://latin.omdoc.org/foundations/hol?SFOL&#45;Syn</title>
<a xlink:href="http://latin.omdoc.org/translations/prop_hol?DISJ" class="graphview">
<path fill="none" stroke="black" d="M768.909,-324.187C762.55,-299.572 749.017,-252.671 730,-216 716.371,-189.719 711.091,-183.744 691,-162 675.166,-144.863 671.146,-139.77 651,-128 636.421,-119.483 619.407,-112.429 603.837,-106.94"/>
<polygon fill="black" stroke="black" points="604.959,-103.625 594.365,-103.726 602.71,-110.254 604.959,-103.625"/>
</a>
<a xlink:href="http://latin.omdoc.org/translations/prop_hol?DISJ" class="DISJ">
<text text-anchor="middle" x="752" y="-220.3" font-family="Times New Roman,serif" font-size="14.00">DISJ</text>
</a>
</g>
<!-- http://latin.omdoc.org/logics/syntax?DISJ&#45;&gt;http://latin.omdoc.org/logics/syntax?PL -->
<g id="edge75" class="edge"><title>http://latin.omdoc.org/logics/syntax?DISJ&#45;&gt;http://latin.omdoc.org/logics/syntax?PL</title>
<a class="graphinclude">
<path fill="none" stroke="black" d="M750.029,-331.144C743.619,-328.607 736.6,-326.024 730,-324 692.784,-312.586 595.828,-298.611 559,-286 557.087,-285.345 555.142,-284.618 553.196,-283.843"/>
<polygon fill="black" stroke="black" points="554.18,-280.456 543.613,-279.694 551.399,-286.879 554.18,-280.456"/>
</a>
</g>
<!-- http://latin.omdoc.org/logics/syntax?SFOLEQ&#45;&gt;http://latin.omdoc.org/foundations/hol?SFOL&#45;Syn -->
<g id="edge23" class="edge"><title>http://latin.omdoc.org/logics/syntax?SFOLEQ&#45;&gt;http://latin.omdoc.org/foundations/hol?SFOL&#45;Syn</title>
<a xlink:href="http://latin.omdoc.org/translations/sfol_hol?SFOLEQ" class="graphview">
<path fill="none" stroke="black" d="M92.1586,-92C184.492,-92 391.914,-92 495.187,-92"/>
<polygon fill="black" stroke="black" points="495.45,-95.5001 505.45,-92 495.45,-88.5001 495.45,-95.5001"/>
</a>
<a xlink:href="http://latin.omdoc.org/translations/sfol_hol?SFOLEQ" class="SFOLEQ">
<text text-anchor="middle" x="298.652" y="-98.8" font-family="Times New Roman,serif" font-size="14.00">SFOLEQ</text>
</a>
</g>
<!-- http://latin.omdoc.org/logics/syntax?SFOL&#45;&gt;http://latin.omdoc.org/foundations/hol?SFOL&#45;Syn -->
<g id="edge25" class="edge"><title>http://latin.omdoc.org/logics/syntax?SFOL&#45;&gt;http://latin.omdoc.org/foundations/hol?SFOL&#45;Syn</title>
<a xlink:href="http://latin.omdoc.org/translations/sfol_hol?SFOL" class="graphview">
<path fill="none" stroke="black" d="M301.952,-161.882C304.241,-150.324 309.211,-135.803 320,-128 336.321,-116.197 481.44,-122.806 501,-118 507.35,-116.44 513.869,-114.157 520.099,-111.596"/>
<polygon fill="black" stroke="black" points="521.85,-114.648 529.583,-107.406 519.021,-108.245 521.85,-114.648"/>
</a>
<a xlink:href="http://latin.omdoc.org/translations/sfol_hol?SFOL" class="SFOL">
<text text-anchor="middle" x="338" y="-132.3" font-family="Times New Roman,serif" font-size="14.00">SFOL</text>
</a>
</g>
<!-- http://latin.omdoc.org/logics/syntax?SFOL&#45;&gt;http://latin.omdoc.org/logics/syntax?SFOLEQ -->
<g id="edge73" class="edge"><title>http://latin.omdoc.org/logics/syntax?SFOL&#45;&gt;http://latin.omdoc.org/logics/syntax?SFOLEQ</title>
<a class="graphinclude">
<path fill="none" stroke="black" d="M272.334,-169.633C228.245,-154.705 141.693,-125.4 89.33,-107.671"/>
<polygon fill="black" stroke="black" points="90.2467,-104.286 79.6524,-104.394 88.0018,-110.916 90.2467,-104.286"/>
</a>
</g>
<!-- http://latin.omdoc.org/logics/syntax?NEG&#45;&gt;http://latin.omdoc.org/foundations/hol?SFOL&#45;Syn -->
<g id="edge27" class="edge"><title>http://latin.omdoc.org/logics/syntax?NEG&#45;&gt;http://latin.omdoc.org/foundations/hol?SFOL&#45;Syn</title>
<a xlink:href="http://latin.omdoc.org/translations/prop_hol?NEG" class="graphview">
<path fill="none" stroke="black" d="M669.208,-325.093C683.203,-301.226 705.286,-254.808 693,-216 678.244,-169.391 665.322,-158.357 627,-128 618.428,-121.21 608.326,-115.26 598.472,-110.283"/>
<polygon fill="black" stroke="black" points="599.689,-106.985 589.16,-105.814 596.661,-113.296 599.689,-106.985"/>
</a>
<a xlink:href="http://latin.omdoc.org/translations/prop_hol?NEG" class="NEG">
<text text-anchor="middle" x="711.5" y="-220.3" font-family="Times New Roman,serif" font-size="14.00">NEG</text>
</a>
</g>
<!-- http://latin.omdoc.org/logics/syntax?NEG&#45;&gt;http://latin.omdoc.org/logics/syntax?PL -->
<g id="edge71" class="edge"><title>http://latin.omdoc.org/logics/syntax?NEG&#45;&gt;http://latin.omdoc.org/logics/syntax?PL</title>
<a class="graphinclude">
<path fill="none" stroke="black" d="M637.45,-329.591C614.503,-317.443 578.038,-298.138 552.449,-284.59"/>
<polygon fill="black" stroke="black" points="554.034,-281.47 543.559,-279.884 550.759,-287.656 554.034,-281.47"/>
</a>
</g>
<!-- http://latin.omdoc.org/logics/syntax?IMP&#45;&gt;http://latin.omdoc.org/foundations/hol?SFOL&#45;Syn -->
<g id="edge29" class="edge"><title>http://latin.omdoc.org/logics/syntax?IMP&#45;&gt;http://latin.omdoc.org/foundations/hol?SFOL&#45;Syn</title>
<a xlink:href="http://latin.omdoc.org/translations/prop_hol?IMP" class="graphview">
<path fill="none" stroke="black" d="M839.856,-324.598C820.653,-282.807 763.451,-172.493 677,-128 655.839,-117.109 630.801,-109.153 609.008,-103.604"/>
<polygon fill="black" stroke="black" points="609.793,-100.193 599.249,-101.222 608.134,-106.993 609.793,-100.193"/>
</a>
<a xlink:href="http://latin.omdoc.org/translations/prop_hol?IMP" class="IMP">
<text text-anchor="middle" x="799.5" y="-220.3" font-family="Times New Roman,serif" font-size="14.00">IMP</text>
</a>
</g>
<!-- http://latin.omdoc.org/logics/syntax?IMP&#45;&gt;http://latin.omdoc.org/logics/syntax?PL -->
<g id="edge69" class="edge"><title>http://latin.omdoc.org/logics/syntax?IMP&#45;&gt;http://latin.omdoc.org/logics/syntax?PL</title>
<a class="graphinclude">
<path fill="none" stroke="black" d="M826.265,-330.24C821.064,-327.887 815.418,-325.62 810,-324 701.9,-291.686 666.929,-318.881 559,-286 557.066,-285.411 555.104,-284.734 553.146,-283.998"/>
<polygon fill="black" stroke="black" points="554.105,-280.605 543.531,-279.948 551.388,-287.056 554.105,-280.605"/>
</a>
</g>
<!-- http://latin.omdoc.org/logics/syntax?HOL -->
<g id="node33" class="node"><title>http://latin.omdoc.org/logics/syntax?HOL</title>
<a xlink:href="http://latin.omdoc.org/logics/syntax?HOL" class="graphtheory">
<ellipse fill="gray" stroke="black" cx="997" cy="-416" rx="29.3722" ry="18"/>
<text text-anchor="middle" x="997" y="-412.3" font-family="Times New Roman,serif" font-size="14.00">HOL</text>
</a>
</g>
<!-- http://latin.omdoc.org/logics/syntax?HOL&#45;&gt;http://latin.omdoc.org/foundations/hol?SFOL&#45;Syn -->
<g id="edge33" class="edge"><title>http://latin.omdoc.org/logics/syntax?HOL&#45;&gt;http://latin.omdoc.org/foundations/hol?SFOL&#45;Syn</title>
<a class="graphinclude">
<path fill="none" stroke="black" d="M993.649,-397.909C991.09,-383.367 988,-361.896 988,-343 988,-343 988,-343 988,-179 988,-151.758 977.432,-141.895 954,-128 925.635,-111.18 719.79,-100.036 615.796,-95.4163"/>
<polygon fill="black" stroke="black" points="615.899,-91.9176 605.756,-94.9766 615.593,-98.9109 615.899,-91.9176"/>
</a>
</g>
<!-- http://cds.omdoc.org/urtheories?LF -->
<g id="node35" class="node"><title>http://cds.omdoc.org/urtheories?LF</title>
<a xlink:href="http://cds.omdoc.org/urtheories?LF" class="graphtheory">
<ellipse fill="gray" stroke="black" cx="577" cy="-490" rx="27" ry="18"/>
<text text-anchor="middle" x="577" y="-486.3" font-family="Times New Roman,serif" font-size="14.00">LF</text>
</a>
</g>
<!-- http://cds.omdoc.org/urtheories?LF&#45;&gt;http://latin.omdoc.org/foundations/hol?SFOL&#45;Syn -->
<g id="edge35" class="edge"><title>http://cds.omdoc.org/urtheories?LF&#45;&gt;http://latin.omdoc.org/foundations/hol?SFOL&#45;Syn</title>
<a class="graphmeta">
<path fill="none" stroke="black" d="M603.987,-489.378C688.114,-489.841 940,-485.505 940,-417 940,-417 940,-417 940,-179 940,-113.479 724.422,-97.8628 616.317,-94.1511"/>
<polygon fill="black" stroke="black" points="616.308,-90.6491 606.201,-93.8278 616.084,-97.6455 616.308,-90.6491"/>
</a>
</g>
<!-- http://cds.omdoc.org/urtheories?LF&#45;&gt;http://latin.omdoc.org/logics/syntax?SForall -->
<g id="edge49" class="edge"><title>http://cds.omdoc.org/urtheories?LF&#45;&gt;http://latin.omdoc.org/logics/syntax?SForall</title>
<a class="graphmeta">
<path fill="none" stroke="black" d="M550.207,-487.084C489.474,-481.069 342.688,-456.685 292,-360 284.571,-345.829 286.46,-339.01 292,-324 296.553,-311.664 305.242,-300.22 313.923,-291.001"/>
<polygon fill="black" stroke="black" points="316.52,-293.353 321.122,-283.81 311.573,-288.401 316.52,-293.353"/>
</a>
</g>
<!-- http://cds.omdoc.org/urtheories?LF&#45;&gt;http://latin.omdoc.org/logics/syntax?BaseSFOL -->
<g id="edge61" class="edge"><title>http://cds.omdoc.org/urtheories?LF&#45;&gt;http://latin.omdoc.org/logics/syntax?BaseSFOL</title>
<a class="graphmeta">
<path fill="none" stroke="black" d="M549.853,-489.074C481.949,-488.786 306.765,-484.977 259,-454 229.061,-434.584 211.173,-396.161 201.956,-370.023"/>
<polygon fill="black" stroke="black" points="205.211,-368.721 198.736,-360.336 198.569,-370.93 205.211,-368.721"/>
</a>
</g>
<!-- http://cds.omdoc.org/urtheories?LF&#45;&gt;http://latin.omdoc.org/logics/syntax?Falsity -->
<g id="edge63" class="edge"><title>http://cds.omdoc.org/urtheories?LF&#45;&gt;http://latin.omdoc.org/logics/syntax?Falsity</title>
<a class="graphmeta">
<path fill="none" stroke="black" d="M577,-471.966C577,-447.045 577,-400.374 577,-370.537"/>
<polygon fill="black" stroke="black" points="580.5,-370.378 577,-360.378 573.5,-370.378 580.5,-370.378"/>
</a>
</g>
<!-- http://cds.omdoc.org/urtheories?LF&#45;&gt;http://latin.omdoc.org/logics/syntax?CONJ -->
<g id="edge47" class="edge"><title>http://cds.omdoc.org/urtheories?LF&#45;&gt;http://latin.omdoc.org/logics/syntax?CONJ</title>
<a class="graphmeta">
<path fill="none" stroke="black" d="M553.694,-480.706C535.935,-474.128 511.037,-464.347 490,-454 440.048,-429.431 388.829,-389.234 359.569,-364.549"/>
<polygon fill="black" stroke="black" points="361.797,-361.849 351.917,-358.023 357.255,-367.176 361.797,-361.849"/>
</a>
</g>
<!-- http://cds.omdoc.org/urtheories?LF&#45;&gt;http://latin.omdoc.org/logics/syntax?SExists -->
<g id="edge45" class="edge"><title>http://cds.omdoc.org/urtheories?LF&#45;&gt;http://latin.omdoc.org/logics/syntax?SExists</title>
<a class="graphmeta">
<path fill="none" stroke="black" d="M604.131,-488.626C670.254,-485.997 837.628,-468.507 883,-360 889.173,-345.239 893.152,-336.366 883,-324 854.571,-289.372 725.555,-276.155 654.062,-271.426"/>
<polygon fill="black" stroke="black" points="654.15,-267.925 643.95,-270.789 653.71,-274.911 654.15,-267.925"/>
</a>
</g>
<!-- http://cds.omdoc.org/urtheories?LF&#45;&gt;http://latin.omdoc.org/logics/syntax?SEqual -->
<g id="edge55" class="edge"><title>http://cds.omdoc.org/urtheories?LF&#45;&gt;http://latin.omdoc.org/logics/syntax?SEqual</title>
<a class="graphmeta">
<path fill="none" stroke="black" d="M549.802,-488.993C453.577,-488.7 133.28,-485.359 101,-454 58.8015,-413.006 67.0494,-336.642 75.3091,-296.029"/>
<polygon fill="black" stroke="black" points="78.7744,-296.564 77.4876,-286.048 71.9355,-295.071 78.7744,-296.564"/>
</a>
</g>
<!-- http://cds.omdoc.org/urtheories?LF&#45;&gt;http://latin.omdoc.org/logics/syntax?Truth -->
<g id="edge37" class="edge"><title>http://cds.omdoc.org/urtheories?LF&#45;&gt;http://latin.omdoc.org/logics/syntax?Truth</title>
<a class="graphmeta">
<path fill="none" stroke="black" d="M552.405,-482.337C528.845,-474.645 494.13,-459.638 475,-434 461.318,-415.664 456.963,-389.734 455.8,-370.241"/>
<polygon fill="black" stroke="black" points="459.295,-370.033 455.444,-360.163 452.299,-370.28 459.295,-370.033"/>
</a>
</g>
<!-- http://cds.omdoc.org/urtheories?LF&#45;&gt;http://latin.omdoc.org/logics/syntax?Logic -->
<g id="edge67" class="edge"><title>http://cds.omdoc.org/urtheories?LF&#45;&gt;http://latin.omdoc.org/logics/syntax?Logic</title>
<a class="graphmeta">
<path fill="none" stroke="black" d="M564.361,-474.082C556.049,-464.271 545.004,-451.234 535.568,-440.097"/>
<polygon fill="black" stroke="black" points="538.179,-437.764 529.044,-432.396 532.838,-442.288 538.179,-437.764"/>
</a>
</g>
<!-- http://cds.omdoc.org/urtheories?LF&#45;&gt;http://latin.omdoc.org/logics/syntax?PL -->
<g id="edge51" class="edge"><title>http://cds.omdoc.org/urtheories?LF&#45;&gt;http://latin.omdoc.org/logics/syntax?PL</title>
<a class="graphmeta">
<path fill="none" stroke="black" d="M596.881,-477.469C641.071,-450.397 740.253,-380.773 697,-324 694.59,-320.837 562.728,-287.382 559,-286 557.153,-285.315 555.271,-284.573 553.385,-283.793"/>
<polygon fill="black" stroke="black" points="554.623,-280.514 544.06,-279.687 551.802,-286.92 554.623,-280.514"/>
</a>
</g>
<!-- http://cds.omdoc.org/urtheories?LF&#45;&gt;http://latin.omdoc.org/logics/syntax?DISJ -->
<g id="edge39" class="edge"><title>http://cds.omdoc.org/urtheories?LF&#45;&gt;http://latin.omdoc.org/logics/syntax?DISJ</title>
<a class="graphmeta">
<path fill="none" stroke="black" d="M603.579,-485.943C642.207,-481.008 711.296,-470.176 730,-454 754.619,-432.708 765.221,-395.6 769.735,-370.197"/>
<polygon fill="black" stroke="black" points="773.226,-370.528 771.32,-360.106 766.311,-369.442 773.226,-370.528"/>
</a>
</g>
<!-- http://cds.omdoc.org/urtheories?LF&#45;&gt;http://latin.omdoc.org/logics/syntax?SFOLEQ -->
<g id="edge65" class="edge"><title>http://cds.omdoc.org/urtheories?LF&#45;&gt;http://latin.omdoc.org/logics/syntax?SFOLEQ</title>
<a class="graphmeta">
<path fill="none" stroke="black" d="M549.939,-488.46C436.86,-485.855 8,-472.325 8,-417 8,-417 8,-417 8,-179 8,-157.101 18.4358,-134.537 28.3697,-118.018"/>
<polygon fill="black" stroke="black" points="31.3681,-119.825 33.7674,-109.506 25.4564,-116.077 31.3681,-119.825"/>
</a>
</g>
<!-- http://cds.omdoc.org/urtheories?LF&#45;&gt;http://latin.omdoc.org/logics/syntax?SFOL -->
<g id="edge53" class="edge"><title>http://cds.omdoc.org/urtheories?LF&#45;&gt;http://latin.omdoc.org/logics/syntax?SFOL</title>
<a class="graphmeta">
<path fill="none" stroke="black" d="M549.66,-488.945C493.318,-488.203 360.628,-483.198 254,-454 188.657,-436.107 160.343,-422.417 134,-360 101.09,-282.023 218.923,-295.394 275,-232 281.361,-224.809 286.499,-215.711 290.425,-207.197"/>
<polygon fill="black" stroke="black" points="293.658,-208.538 294.343,-197.965 287.215,-205.803 293.658,-208.538"/>
</a>
</g>
<!-- http://cds.omdoc.org/urtheories?LF&#45;&gt;http://latin.omdoc.org/logics/syntax?NEG -->
<g id="edge57" class="edge"><title>http://cds.omdoc.org/urtheories?LF&#45;&gt;http://latin.omdoc.org/logics/syntax?NEG</title>
<a class="graphmeta">
<path fill="none" stroke="black" d="M586.089,-472.818C600.312,-447.494 627.942,-398.298 644.805,-368.274"/>
<polygon fill="black" stroke="black" points="648.025,-369.688 649.871,-359.255 641.922,-366.26 648.025,-369.688"/>
</a>
</g>
<!-- http://cds.omdoc.org/urtheories?LF&#45;&gt;http://latin.omdoc.org/logics/syntax?IMP -->
<g id="edge41" class="edge"><title>http://cds.omdoc.org/urtheories?LF&#45;&gt;http://latin.omdoc.org/logics/syntax?IMP</title>
<a class="graphmeta">
<path fill="none" stroke="black" d="M603.823,-487.272C638.04,-484.221 698.369,-475.957 745,-454 784.184,-435.55 815.332,-394.568 832.459,-367.896"/>
<polygon fill="black" stroke="black" points="835.61,-369.458 837.923,-359.119 829.667,-365.759 835.61,-369.458"/>
</a>
</g>
<!-- http://cds.omdoc.org/urtheories?LF&#45;&gt;http://latin.omdoc.org/foundations/hol?SFOL&#45;Pf1 -->
<g id="edge43" class="edge"><title>http://cds.omdoc.org/urtheories?LF&#45;&gt;http://latin.omdoc.org/foundations/hol?SFOL&#45;Pf1</title>
<a class="graphmeta">
<path fill="none" stroke="black" d="M604.034,-488.586C668.284,-487.174 834.931,-480.98 971,-454 1010.62,-446.145 1054,-457.388 1054,-417 1054,-417 1054,-417 1054,-91 1054,-56.656 1017.84,-38.3882 984.736,-28.8599"/>
<polygon fill="black" stroke="black" points="985.622,-25.4741 975.058,-26.2867 983.823,-32.239 985.622,-25.4741"/>
</a>
</g>
<!-- http://cds.omdoc.org/urtheories?LF&#45;&gt;http://latin.omdoc.org/logics/syntax?HOL -->
<g id="edge59" class="edge"><title>http://cds.omdoc.org/urtheories?LF&#45;&gt;http://latin.omdoc.org/logics/syntax?HOL</title>
<a class="graphmeta">
<path fill="none" stroke="black" d="M604.063,-488.609C679.506,-487.186 890.773,-480.848 954,-454 962.031,-450.59 969.653,-445.109 976.188,-439.398"/>
<polygon fill="black" stroke="black" points="978.964,-441.591 983.832,-432.181 974.158,-436.501 978.964,-441.591"/>
</a>
</g>
</g>
</svg>
