<?xml version="1.0" encoding="UTF-8" standalone="no"?>
<!DOCTYPE svg PUBLIC "-//W3C//DTD SVG 1.1//EN"
 "http://www.w3.org/Graphics/SVG/1.1/DTD/svg11.dtd">
<!-- Generated by graphviz version 2.28.0 (20110507.0327)
 -->
<!-- Title: MMT Pages: 1 -->
<svg width="439pt" height="294pt"
 viewBox="0.00 0.00 439.31 294.00" xmlns="http://www.w3.org/2000/svg" xmlns:xlink="http://www.w3.org/1999/xlink">
<g id="graph1" class="graph" transform="scale(1 1) rotate(0) translate(4 290)">
<title>MMT</title>
<polygon fill="white" stroke="white" points="-4,5 -4,-290 436.309,-290 436.309,5 -4,5"/>
<g id="graph2" class="cluster"><title>cluster_local</title>
<polygon fill="none" stroke="black" points="218.309,-80 218.309,-220 384.309,-220 384.309,-80 218.309,-80"/>
</g>
<!-- http://latin.omdoc.org/foundations/hol?Types&#45;Nonempty -->
<g id="node2" class="node"><title>http://latin.omdoc.org/foundations/hol?Types&#45;Nonempty</title>
<a xlink:href="http://latin.omdoc.org/foundations/hol?Types-Nonempty" class="graphtheory">
<ellipse fill="none" stroke="black" cx="301.309" cy="-194" rx="74.6146" ry="18"/>
<text text-anchor="middle" x="301.309" y="-190.3" font-family="Times New Roman,serif" font-size="14.00">Types&#45;Nonempty</text>
</a>
</g>
<!-- http://latin.omdoc.org/foundations/hol?Description -->
<g id="node3" class="node"><title>http://latin.omdoc.org/foundations/hol?Description</title>
<a xlink:href="http://latin.omdoc.org/foundations/hol?Description" class="graphtheory">
<ellipse fill="none" stroke="black" cx="284.309" cy="-106" rx="52.4675" ry="18"/>
<text text-anchor="middle" x="284.309" y="-102.3" font-family="Times New Roman,serif" font-size="14.00">Description</text>
</a>
</g>
<!-- http://latin.omdoc.org/foundations/hol?Types&#45;Nonempty&#45;&gt;http://latin.omdoc.org/foundations/hol?Description -->
<g id="edge3" class="edge"><title>http://latin.omdoc.org/foundations/hol?Types&#45;Nonempty&#45;&gt;http://latin.omdoc.org/foundations/hol?Description</title>
<a xlink:href="http://latin.omdoc.org/foundations/hol?TC" class="graphview">
<path fill="none" stroke="black" d="M292.535,-175.974C290.063,-170.391 287.677,-164.062 286.309,-158 284.591,-150.394 283.818,-141.99 283.543,-134.237"/>
<polygon fill="black" stroke="black" points="287.043,-134.164 283.435,-124.202 280.043,-134.239 287.043,-134.164"/>
</a>
<a xlink:href="http://latin.omdoc.org/foundations/hol?TC" class="TC">
<text text-anchor="middle" x="295.809" y="-146.3" font-family="Times New Roman,serif" font-size="14.00">TC</text>
</a>
</g>
<!-- http://latin.omdoc.org/foundations/hol?Choice -->
<g id="node11" class="node"><title>http://latin.omdoc.org/foundations/hol?Choice</title>
<a xlink:href="http://latin.omdoc.org/foundations/hol?Choice" class="graphtheory">
<ellipse fill="gray" stroke="black" cx="100.309" cy="-18" rx="36.096" ry="18"/>
<text text-anchor="middle" x="100.309" y="-14.3" font-family="Times New Roman,serif" font-size="14.00">Choice</text>
</a>
</g>
<!-- http://latin.omdoc.org/foundations/hol?Description&#45;&gt;http://latin.omdoc.org/foundations/hol?Choice -->
<g id="edge11" class="edge"><title>http://latin.omdoc.org/foundations/hol?Description&#45;&gt;http://latin.omdoc.org/foundations/hol?Choice</title>
<a xlink:href="http://latin.omdoc.org/foundations/hol?DC" class="graphview">
<path fill="none" stroke="black" d="M254.336,-90.9912C221.665,-75.7207 169.457,-51.3195 135.027,-35.2271"/>
<polygon fill="black" stroke="black" points="136.36,-31.9865 125.818,-30.923 133.396,-38.328 136.36,-31.9865"/>
</a>
<a xlink:href="http://latin.omdoc.org/foundations/hol?DC" class="DC">
<text text-anchor="middle" x="219.309" y="-58.3" font-family="Times New Roman,serif" font-size="14.00">DC</text>
</a>
</g>
<!-- http://latin.omdoc.org/foundations/hol?IFTE -->
<g id="node13" class="node"><title>http://latin.omdoc.org/foundations/hol?IFTE</title>
<a xlink:href="http://latin.omdoc.org/foundations/hol?IFTE" class="graphtheory">
<ellipse fill="gray" stroke="black" cx="381.309" cy="-18" rx="30.3206" ry="18"/>
<text text-anchor="middle" x="381.309" y="-14.3" font-family="Times New Roman,serif" font-size="14.00">IFTE</text>
</a>
</g>
<!-- http://latin.omdoc.org/foundations/hol?Description&#45;&gt;http://latin.omdoc.org/foundations/hol?IFTE -->
<g id="edge13" class="edge"><title>http://latin.omdoc.org/foundations/hol?Description&#45;&gt;http://latin.omdoc.org/foundations/hol?IFTE</title>
<a class="graphinclude">
<path fill="none" stroke="black" d="M302.554,-88.8241C318.023,-75.109 340.329,-55.3322 357.256,-40.325"/>
<polygon fill="black" stroke="black" points="359.919,-42.6414 365.08,-33.3884 355.275,-37.4036 359.919,-42.6414"/>
</a>
</g>
<!-- http://latin.omdoc.org/logics/proof_theory?HOL -->
<g id="node5" class="node"><title>http://latin.omdoc.org/logics/proof_theory?HOL</title>
<a xlink:href="http://latin.omdoc.org/logics/proof_theory?HOL" class="graphtheory">
<ellipse fill="gray" stroke="black" cx="54.3086" cy="-194" rx="29.3722" ry="18"/>
<text text-anchor="middle" x="54.3086" y="-190.3" font-family="Times New Roman,serif" font-size="14.00">HOL</text>
</a>
</g>
<!-- http://latin.omdoc.org/logics/proof_theory?HOL&#45;&gt;http://latin.omdoc.org/foundations/hol?Types&#45;Nonempty -->
<g id="edge5" class="edge"><title>http://latin.omdoc.org/logics/proof_theory?HOL&#45;&gt;http://latin.omdoc.org/foundations/hol?Types&#45;Nonempty</title>
<a class="graphinclude">
<path fill="none" stroke="black" d="M67.6788,-210.429C76.2137,-219.563 88.1278,-230.059 101.309,-235 147.919,-252.473 164.709,-245.766 213.309,-235 230.888,-231.106 249.12,-223.322 264.398,-215.573"/>
<polygon fill="black" stroke="black" points="266.276,-218.54 273.497,-210.788 263.017,-212.345 266.276,-218.54"/>
</a>
</g>
<!-- http://latin.omdoc.org/logics/proof_theory?HOL&#45;&gt;http://latin.omdoc.org/foundations/hol?Description -->
<g id="edge15" class="edge"><title>http://latin.omdoc.org/logics/proof_theory?HOL&#45;&gt;http://latin.omdoc.org/foundations/hol?Description</title>
<a class="graphinclude">
<path fill="none" stroke="black" d="M77.0963,-182.469C82.0795,-180.261 87.3476,-177.998 92.3086,-176 141.681,-156.118 199.244,-135.803 238.372,-122.414"/>
<polygon fill="black" stroke="black" points="239.57,-125.703 247.906,-119.163 237.312,-119.077 239.57,-125.703"/>
</a>
</g>
<!-- http://latin.omdoc.org/logics/proof_theory?HOL&#45;&gt;http://latin.omdoc.org/foundations/hol?Choice -->
<g id="edge31" class="edge"><title>http://latin.omdoc.org/logics/proof_theory?HOL&#45;&gt;http://latin.omdoc.org/foundations/hol?Choice</title>
<a class="graphinclude">
<path fill="none" stroke="black" d="M58.8031,-175.999C66.8071,-145.723 83.5886,-82.2454 93.1809,-45.9616"/>
<polygon fill="black" stroke="black" points="96.6238,-46.6321 95.796,-36.0697 89.8563,-44.843 96.6238,-46.6321"/>
</a>
</g>
<!-- http://latin.omdoc.org/foundations/hol?SFOL&#45;Pf -->
<g id="node7" class="node"><title>http://latin.omdoc.org/foundations/hol?SFOL&#45;Pf</title>
<a xlink:href="http://latin.omdoc.org/foundations/hol?SFOL-Pf" class="graphtheory">
<ellipse fill="gray" stroke="black" cx="146.309" cy="-194" rx="44.271" ry="18"/>
<text text-anchor="middle" x="146.309" y="-190.3" font-family="Times New Roman,serif" font-size="14.00">SFOL&#45;Pf</text>
</a>
</g>
<!-- http://latin.omdoc.org/foundations/hol?SFOL&#45;Pf&#45;&gt;http://latin.omdoc.org/foundations/hol?Types&#45;Nonempty -->
<g id="edge7" class="edge"><title>http://latin.omdoc.org/foundations/hol?SFOL&#45;Pf&#45;&gt;http://latin.omdoc.org/foundations/hol?Types&#45;Nonempty</title>
<a class="graphinclude">
<path fill="none" stroke="black" d="M190.811,-194C199.394,-194 207.977,-194 216.56,-194"/>
<polygon fill="black" stroke="black" points="216.636,-197.5 226.636,-194 216.636,-190.5 216.636,-197.5"/>
</a>
</g>
<!-- http://latin.omdoc.org/foundations/hol?SFOL&#45;Pf&#45;&gt;http://latin.omdoc.org/foundations/hol?Description -->
<g id="edge17" class="edge"><title>http://latin.omdoc.org/foundations/hol?SFOL&#45;Pf&#45;&gt;http://latin.omdoc.org/foundations/hol?Description</title>
<a class="graphinclude">
<path fill="none" stroke="black" d="M169.407,-178.606C191.919,-164.576 226.363,-143.111 251.671,-127.34"/>
<polygon fill="black" stroke="black" points="253.571,-130.279 260.207,-122.02 249.869,-124.339 253.571,-130.279"/>
</a>
</g>
<!-- http://latin.omdoc.org/foundations/hol?SFOL&#45;Pf&#45;&gt;http://latin.omdoc.org/foundations/hol?Choice -->
<g id="edge29" class="edge"><title>http://latin.omdoc.org/foundations/hol?SFOL&#45;Pf&#45;&gt;http://latin.omdoc.org/foundations/hol?Choice</title>
<a class="graphinclude">
<path fill="none" stroke="black" d="M141.814,-175.999C133.81,-145.723 117.029,-82.2454 107.436,-45.9616"/>
<polygon fill="black" stroke="black" points="110.761,-44.843 104.821,-36.0697 103.993,-46.6321 110.761,-44.843"/>
</a>
</g>
<!-- http://cds.omdoc.org/urtheories?LF -->
<g id="node9" class="node"><title>http://cds.omdoc.org/urtheories?LF</title>
<a xlink:href="http://cds.omdoc.org/urtheories?LF" class="graphtheory">
<ellipse fill="gray" stroke="black" cx="404.309" cy="-268" rx="27" ry="18"/>
<text text-anchor="middle" x="404.309" y="-264.3" font-family="Times New Roman,serif" font-size="14.00">LF</text>
</a>
</g>
<!-- http://cds.omdoc.org/urtheories?LF&#45;&gt;http://latin.omdoc.org/foundations/hol?Types&#45;Nonempty -->
<g id="edge9" class="edge"><title>http://cds.omdoc.org/urtheories?LF&#45;&gt;http://latin.omdoc.org/foundations/hol?Types&#45;Nonempty</title>
<a class="graphmeta">
<path fill="none" stroke="black" d="M386.367,-254.459C371.607,-244.141 350.332,-229.269 332.752,-216.98"/>
<polygon fill="black" stroke="black" points="334.665,-214.047 324.464,-211.186 330.655,-219.784 334.665,-214.047"/>
</a>
</g>
<!-- http://cds.omdoc.org/urtheories?LF&#45;&gt;http://latin.omdoc.org/foundations/hol?Description -->
<g id="edge19" class="edge"><title>http://cds.omdoc.org/urtheories?LF&#45;&gt;http://latin.omdoc.org/foundations/hol?Description</title>
<a class="graphmeta">
<path fill="none" stroke="black" d="M404.2,-249.782C403.294,-230.316 399.373,-198.423 384.309,-176 369.554,-154.038 345.249,-137.032 324.296,-125.398"/>
<polygon fill="black" stroke="black" points="325.728,-122.196 315.256,-120.588 322.44,-128.375 325.728,-122.196"/>
</a>
</g>
<!-- http://cds.omdoc.org/urtheories?LF&#45;&gt;http://latin.omdoc.org/logics/proof_theory?HOL -->
<g id="edge23" class="edge"><title>http://cds.omdoc.org/urtheories?LF&#45;&gt;http://latin.omdoc.org/logics/proof_theory?HOL</title>
<a class="graphmeta">
<path fill="none" stroke="black" d="M377.025,-266.783C321.535,-265.511 192.317,-258.297 92.3086,-220 88.2433,-218.443 84.1668,-216.398 80.2725,-214.146"/>
<polygon fill="black" stroke="black" points="81.9266,-211.051 71.607,-208.651 78.178,-216.962 81.9266,-211.051"/>
</a>
</g>
<!-- http://cds.omdoc.org/urtheories?LF&#45;&gt;http://latin.omdoc.org/foundations/hol?SFOL&#45;Pf -->
<g id="edge27" class="edge"><title>http://cds.omdoc.org/urtheories?LF&#45;&gt;http://latin.omdoc.org/foundations/hol?SFOL&#45;Pf</title>
<a class="graphmeta">
<path fill="none" stroke="black" d="M378.865,-261.639C342.185,-253.701 272.463,-237.824 214.309,-220 205.3,-217.239 195.742,-213.953 186.727,-210.687"/>
<polygon fill="black" stroke="black" points="187.802,-207.353 177.209,-207.175 185.379,-213.92 187.802,-207.353"/>
</a>
</g>
<!-- http://cds.omdoc.org/urtheories?LF&#45;&gt;http://latin.omdoc.org/foundations/hol?Choice -->
<g id="edge21" class="edge"><title>http://cds.omdoc.org/urtheories?LF&#45;&gt;http://latin.omdoc.org/foundations/hol?Choice</title>
<a class="graphmeta">
<path fill="none" stroke="black" d="M377.47,-265.771C293.556,-261.656 40.3005,-247.074 16.3086,-220 -31.3111,-166.264 37.8912,-81.6894 76.8384,-41.5661"/>
<polygon fill="black" stroke="black" points="79.6281,-43.7233 84.1808,-34.1564 74.6559,-38.7961 79.6281,-43.7233"/>
</a>
</g>
<!-- http://cds.omdoc.org/urtheories?LF&#45;&gt;http://latin.omdoc.org/foundations/hol?IFTE -->
<g id="edge25" class="edge"><title>http://cds.omdoc.org/urtheories?LF&#45;&gt;http://latin.omdoc.org/foundations/hol?IFTE</title>
<a class="graphmeta">
<path fill="none" stroke="black" d="M412.586,-250.761C415.013,-244.418 416.885,-236.999 416.309,-230 410.821,-163.388 395.748,-86.1359 387.281,-46.1369"/>
<polygon fill="black" stroke="black" points="390.65,-45.1553 385.131,-36.1114 383.806,-46.623 390.65,-45.1553"/>
</a>
</g>
</g>
</svg>
