<?xml version="1.0" encoding="UTF-8" standalone="no"?>
<!DOCTYPE svg PUBLIC "-//W3C//DTD SVG 1.1//EN"
 "http://www.w3.org/Graphics/SVG/1.1/DTD/svg11.dtd">
<!-- Generated by graphviz version 2.28.0 (20110507.0327)
 -->
<!-- Title: MMT Pages: 1 -->
<svg width="275pt" height="280pt"
 viewBox="0.00 0.00 274.84 280.00" xmlns="http://www.w3.org/2000/svg" xmlns:xlink="http://www.w3.org/1999/xlink">
<g id="graph1" class="graph" transform="scale(1 1) rotate(0) translate(4 276)">
<title>MMT</title>
<polygon fill="white" stroke="white" points="-4,5 -4,-276 271.845,-276 271.845,5 -4,5"/>
<g id="graph2" class="cluster"><title>cluster_local</title>
<polygon fill="none" stroke="black" points="86,-80 86,-132 252,-132 252,-80 86,-80"/>
</g>
<!-- http://latin.omdoc.org/foundations/hol?Types&#45;Nonempty -->
<g id="node2" class="node"><title>http://latin.omdoc.org/foundations/hol?Types&#45;Nonempty</title>
<a xlink:href="http://latin.omdoc.org/foundations/hol?Types-Nonempty" class="graphtheory">
<ellipse fill="none" stroke="black" cx="169" cy="-106" rx="74.6146" ry="18"/>
<text text-anchor="middle" x="169" y="-102.3" font-family="Times New Roman,serif" font-size="14.00">Types&#45;Nonempty</text>
</a>
</g>
<!-- http://latin.omdoc.org/foundations/hol?Description -->
<g id="node3" class="node"><title>http://latin.omdoc.org/foundations/hol?Description</title>
<a xlink:href="http://latin.omdoc.org/foundations/hol?Description" class="graphtheory">
<ellipse fill="gray" stroke="black" cx="100" cy="-18" rx="52.4675" ry="18"/>
<text text-anchor="middle" x="100" y="-14.3" font-family="Times New Roman,serif" font-size="14.00">Description</text>
</a>
</g>
<!-- http://latin.omdoc.org/foundations/hol?Types&#45;Nonempty&#45;&gt;http://latin.omdoc.org/foundations/hol?Description -->
<g id="edge3" class="edge"><title>http://latin.omdoc.org/foundations/hol?Types&#45;Nonempty&#45;&gt;http://latin.omdoc.org/foundations/hol?Description</title>
<a xlink:href="http://latin.omdoc.org/foundations/hol?TC" class="graphview">
<path fill="none" stroke="black" d="M155.368,-88.0092C145.19,-75.3239 131.131,-57.8013 119.727,-43.5877"/>
<polygon fill="black" stroke="black" points="122.357,-41.2724 113.369,-35.6629 116.897,-45.6531 122.357,-41.2724"/>
</a>
<a xlink:href="http://latin.omdoc.org/foundations/hol?TC" class="TC">
<text text-anchor="middle" x="150.5" y="-58.3" font-family="Times New Roman,serif" font-size="14.00">TC</text>
</a>
</g>
<!-- http://latin.omdoc.org/logics/proof_theory?HOL -->
<g id="node5" class="node"><title>http://latin.omdoc.org/logics/proof_theory?HOL</title>
<a xlink:href="http://latin.omdoc.org/logics/proof_theory?HOL" class="graphtheory">
<ellipse fill="gray" stroke="black" cx="29" cy="-180" rx="29.3722" ry="18"/>
<text text-anchor="middle" x="29" y="-176.3" font-family="Times New Roman,serif" font-size="14.00">HOL</text>
</a>
</g>
<!-- http://latin.omdoc.org/logics/proof_theory?HOL&#45;&gt;http://latin.omdoc.org/foundations/hol?Types&#45;Nonempty -->
<g id="edge5" class="edge"><title>http://latin.omdoc.org/logics/proof_theory?HOL&#45;&gt;http://latin.omdoc.org/foundations/hol?Types&#45;Nonempty</title>
<a class="graphinclude">
<path fill="none" stroke="black" d="M50.875,-167.75C71.9023,-156.936 104.159,-140.347 129.654,-127.235"/>
<polygon fill="black" stroke="black" points="131.416,-130.265 138.708,-122.579 128.215,-124.04 131.416,-130.265"/>
</a>
</g>
<!-- http://latin.omdoc.org/logics/proof_theory?HOL&#45;&gt;http://latin.omdoc.org/foundations/hol?Description -->
<g id="edge19" class="edge"><title>http://latin.omdoc.org/logics/proof_theory?HOL&#45;&gt;http://latin.omdoc.org/foundations/hol?Description</title>
<a class="graphinclude">
<path fill="none" stroke="black" d="M34.5302,-161.986C42.7352,-137.521 59.2017,-91.2487 78,-54 79.6006,-50.8284 81.4048,-47.5747 83.274,-44.3892"/>
<polygon fill="black" stroke="black" points="86.3487,-46.0706 88.5988,-35.7175 80.3835,-42.4078 86.3487,-46.0706"/>
</a>
</g>
<!-- http://latin.omdoc.org/foundations/hol?SFOL&#45;Pf -->
<g id="node7" class="node"><title>http://latin.omdoc.org/foundations/hol?SFOL&#45;Pf</title>
<a xlink:href="http://latin.omdoc.org/foundations/hol?SFOL-Pf" class="graphtheory">
<ellipse fill="gray" stroke="black" cx="121" cy="-180" rx="44.271" ry="18"/>
<text text-anchor="middle" x="121" y="-176.3" font-family="Times New Roman,serif" font-size="14.00">SFOL&#45;Pf</text>
</a>
</g>
<!-- http://latin.omdoc.org/foundations/hol?SFOL&#45;Pf&#45;&gt;http://latin.omdoc.org/foundations/hol?Types&#45;Nonempty -->
<g id="edge7" class="edge"><title>http://latin.omdoc.org/foundations/hol?SFOL&#45;Pf&#45;&gt;http://latin.omdoc.org/foundations/hol?Types&#45;Nonempty</title>
<a class="graphinclude">
<path fill="none" stroke="black" d="M132.133,-162.301C138.045,-153.433 145.436,-142.347 152.045,-132.433"/>
<polygon fill="black" stroke="black" points="154.959,-134.371 157.594,-124.109 149.135,-130.488 154.959,-134.371"/>
</a>
</g>
<!-- http://latin.omdoc.org/foundations/hol?SFOL&#45;Pf&#45;&gt;http://latin.omdoc.org/foundations/hol?Description -->
<g id="edge17" class="edge"><title>http://latin.omdoc.org/foundations/hol?SFOL&#45;Pf&#45;&gt;http://latin.omdoc.org/foundations/hol?Description</title>
<a class="graphinclude">
<path fill="none" stroke="black" d="M103.331,-163.433C95.1582,-155.043 86.3189,-143.968 82,-132 71.7207,-103.515 80.0662,-68.8855 88.5001,-45.5298"/>
<polygon fill="black" stroke="black" points="91.8587,-46.5479 92.1901,-35.9582 85.3272,-44.0299 91.8587,-46.5479"/>
</a>
</g>
<!-- http://cds.omdoc.org/urtheories?LF -->
<g id="node9" class="node"><title>http://cds.omdoc.org/urtheories?LF</title>
<a xlink:href="http://cds.omdoc.org/urtheories?LF" class="graphtheory">
<ellipse fill="gray" stroke="black" cx="169" cy="-254" rx="27" ry="18"/>
<text text-anchor="middle" x="169" y="-250.3" font-family="Times New Roman,serif" font-size="14.00">LF</text>
</a>
</g>
<!-- http://cds.omdoc.org/urtheories?LF&#45;&gt;http://latin.omdoc.org/foundations/hol?Types&#45;Nonempty -->
<g id="edge9" class="edge"><title>http://cds.omdoc.org/urtheories?LF&#45;&gt;http://latin.omdoc.org/foundations/hol?Types&#45;Nonempty</title>
<a class="graphmeta">
<path fill="none" stroke="black" d="M170.979,-235.688C172.115,-224.871 173.426,-210.643 174,-198 174.725,-182.016 174.725,-177.984 174,-162 173.592,-153.012 172.812,-143.222 171.986,-134.427"/>
<polygon fill="black" stroke="black" points="175.453,-133.916 170.979,-124.312 168.487,-134.61 175.453,-133.916"/>
</a>
</g>
<!-- http://cds.omdoc.org/urtheories?LF&#45;&gt;http://latin.omdoc.org/foundations/hol?Description -->
<g id="edge13" class="edge"><title>http://cds.omdoc.org/urtheories?LF&#45;&gt;http://latin.omdoc.org/foundations/hol?Description</title>
<a class="graphmeta">
<path fill="none" stroke="black" d="M185.369,-239.534C219.857,-209.514 293.816,-135.392 256,-80 234.436,-48.4135 193.855,-33.1818 159.489,-25.8373"/>
<polygon fill="black" stroke="black" points="160.004,-22.3718 149.518,-23.8848 158.659,-29.2413 160.004,-22.3718"/>
</a>
</g>
<!-- http://cds.omdoc.org/urtheories?LF&#45;&gt;http://latin.omdoc.org/logics/proof_theory?HOL -->
<g id="edge11" class="edge"><title>http://cds.omdoc.org/urtheories?LF&#45;&gt;http://latin.omdoc.org/logics/proof_theory?HOL</title>
<a class="graphmeta">
<path fill="none" stroke="black" d="M148.343,-242.376C124.937,-230.339 86.557,-210.601 59.6567,-196.766"/>
<polygon fill="black" stroke="black" points="61.1575,-193.602 50.6639,-192.141 57.956,-199.827 61.1575,-193.602"/>
</a>
</g>
<!-- http://cds.omdoc.org/urtheories?LF&#45;&gt;http://latin.omdoc.org/foundations/hol?SFOL&#45;Pf -->
<g id="edge15" class="edge"><title>http://cds.omdoc.org/urtheories?LF&#45;&gt;http://latin.omdoc.org/foundations/hol?SFOL&#45;Pf</title>
<a class="graphmeta">
<path fill="none" stroke="black" d="M158.585,-237.377C152.467,-228.201 144.593,-216.39 137.635,-205.952"/>
<polygon fill="black" stroke="black" points="140.522,-203.974 132.063,-197.595 134.698,-207.857 140.522,-203.974"/>
</a>
</g>
</g>
</svg>
