<?xml version="1.0" encoding="UTF-8" standalone="no"?>
<!DOCTYPE svg PUBLIC "-//W3C//DTD SVG 1.1//EN"
 "http://www.w3.org/Graphics/SVG/1.1/DTD/svg11.dtd">
<!-- Generated by graphviz version 2.28.0 (20110507.0327)
 -->
<!-- Title: MMT Pages: 1 -->
<svg width="939pt" height="368pt"
 viewBox="0.00 0.00 939.00 368.00" xmlns="http://www.w3.org/2000/svg" xmlns:xlink="http://www.w3.org/1999/xlink">
<g id="graph1" class="graph" transform="scale(1 1) rotate(0) translate(4 364)">
<title>MMT</title>
<polygon fill="white" stroke="white" points="-4,5 -4,-364 936,-364 936,5 -4,5"/>
<g id="graph2" class="cluster"><title>cluster_local</title>
<polygon fill="none" stroke="black" points="308,-168 308,-220 533,-220 533,-168 308,-168"/>
</g>
<!-- http://latin.omdoc.org/logics/syntax?ExistsUnique -->
<g id="node2" class="node"><title>http://latin.omdoc.org/logics/syntax?ExistsUnique</title>
<a xlink:href="javascript:parent.navigate(&#39;http://latin.omdoc.org/logics/syntax?ExistsUnique&#39;)" xlink:title="theory http://latin.omdoc.org/logics/syntax?ExistsUnique">
<ellipse fill="none" stroke="black" cx="374" cy="-194" rx="58.2422" ry="18"/>
<text text-anchor="middle" x="374" y="-190.3" font-family="Times New Roman,serif" font-size="14.00">ExistsUnique</text>
</a>
</g>
<!-- http://latin.omdoc.org/foundations/mizar?Mizar -->
<g id="node4" class="node"><title>http://latin.omdoc.org/foundations/mizar?Mizar</title>
<a xlink:href="javascript:parent.navigate(&#39;http://latin.omdoc.org/foundations/mizar?Mizar&#39;)" xlink:title="theory http://latin.omdoc.org/foundations/mizar?Mizar">
<ellipse fill="gray" stroke="black" cx="587" cy="-18" rx="31.2965" ry="18"/>
<text text-anchor="middle" x="587" y="-14.3" font-family="Times New Roman,serif" font-size="14.00">Mizar</text>
</a>
</g>
<!-- http://latin.omdoc.org/logics/syntax?ExistsUnique&#45;&gt;http://latin.omdoc.org/foundations/mizar?Mizar -->
<g id="edge3" class="edge"><title>http://latin.omdoc.org/logics/syntax?ExistsUnique&#45;&gt;http://latin.omdoc.org/foundations/mizar?Mizar</title>
<a xlink:href="javascript:parent.navigate(&#39;http://latin.omdoc.org/foundations/mizar?ExistsUniqueMizarView&#39;)" xlink:title="view http://latin.omdoc.org/foundations/mizar?ExistsUniqueMizarView">
<path fill="none" stroke="blue" stroke-dasharray="5,2" d="M369.213,-175.853C365.294,-153.086 362.244,-113.27 382.213,-87.3829 421.749,-37.3752 497.988,-23.197 545.54,-19.2856"/>
<path fill="none" stroke="blue" stroke-dasharray="5,2" d="M371.184,-175.513C367.288,-152.933 364.238,-113.118 383.787,-88.6171 422.115,-39.3415 498.354,-25.1632 545.703,-21.2788"/>
<polygon fill="blue" stroke="blue" points="546.135,-23.7549 555.865,-19.5633 545.644,-16.7721 546.135,-23.7549"/>
</a>
<a xlink:href="javascript:parent.navigate(&#39;http://latin.omdoc.org/foundations/mizar?ExistsUniqueMizarView&#39;)" xlink:title="ExistsUniqueMizarView">
<text text-anchor="middle" x="450" y="-102.3" font-family="Times New Roman,serif" font-size="14.00">ExistsUniqueMizarView</text>
</a>
</g>
<!-- http://latin.omdoc.org/logics/proof_theory?ExistsUnique -->
<g id="node6" class="node"><title>http://latin.omdoc.org/logics/proof_theory?ExistsUnique</title>
<a xlink:href="javascript:parent.navigate(&#39;http://latin.omdoc.org/logics/proof_theory?ExistsUnique&#39;)" xlink:title="theory http://latin.omdoc.org/logics/proof_theory?ExistsUnique">
<ellipse fill="gray" stroke="black" cx="584" cy="-106" rx="58.2422" ry="18"/>
<text text-anchor="middle" x="584" y="-102.3" font-family="Times New Roman,serif" font-size="14.00">ExistsUnique</text>
</a>
</g>
<!-- http://latin.omdoc.org/logics/syntax?ExistsUnique&#45;&gt;http://latin.omdoc.org/logics/proof_theory?ExistsUnique -->
<g id="edge5" class="edge"><title>http://latin.omdoc.org/logics/syntax?ExistsUnique&#45;&gt;http://latin.omdoc.org/logics/proof_theory?ExistsUnique</title>
<a xlink:title="include">
<path fill="none" stroke="black" d="M407.74,-179.183C443.867,-164.388 501.303,-140.866 540.731,-124.72"/>
<polygon fill="black" stroke="black" points="542.416,-127.812 550.344,-120.783 539.763,-121.334 542.416,-127.812"/>
</a>
</g>
<!-- http://latin.omdoc.org/foundations/mizar?ExistsUniquePFMizarView -->
<g id="node8" class="node"><title>http://latin.omdoc.org/foundations/mizar?ExistsUniquePFMizarView</title>
<a xlink:href="javascript:parent.navigate(&#39;http://latin.omdoc.org/foundations/mizar?ExistsUniquePFMizarView&#39;)" xlink:title="theory http://latin.omdoc.org/foundations/mizar?ExistsUniquePFMizarView">
<ellipse fill="gray" stroke="black" cx="137" cy="-106" rx="108.31" ry="18"/>
<text text-anchor="middle" x="137" y="-102.3" font-family="Times New Roman,serif" font-size="14.00">ExistsUniquePFMizarView</text>
</a>
</g>
<!-- http://latin.omdoc.org/logics/syntax?ExistsUnique&#45;&gt;http://latin.omdoc.org/foundations/mizar?ExistsUniquePFMizarView -->
<g id="edge7" class="edge"><title>http://latin.omdoc.org/logics/syntax?ExistsUnique&#45;&gt;http://latin.omdoc.org/foundations/mizar?ExistsUniquePFMizarView</title>
<a xlink:title="include">
<path fill="none" stroke="black" d="M337.747,-179.845C298.243,-165.51 234.678,-142.444 189.67,-126.112"/>
<polygon fill="black" stroke="black" points="190.674,-122.753 180.079,-122.632 188.286,-129.333 190.674,-122.753"/>
</a>
</g>
<!-- http://latin.omdoc.org/logics/syntax?Inequal -->
<g id="node3" class="node"><title>http://latin.omdoc.org/logics/syntax?Inequal</title>
<a xlink:href="javascript:parent.navigate(&#39;http://latin.omdoc.org/logics/syntax?Inequal&#39;)" xlink:title="theory http://latin.omdoc.org/logics/syntax?Inequal">
<ellipse fill="none" stroke="black" cx="488" cy="-194" rx="37.0701" ry="18"/>
<text text-anchor="middle" x="488" y="-190.3" font-family="Times New Roman,serif" font-size="14.00">Inequal</text>
</a>
</g>
<!-- http://latin.omdoc.org/logics/proof_theory?Inequal -->
<g id="node14" class="node"><title>http://latin.omdoc.org/logics/proof_theory?Inequal</title>
<a xlink:href="javascript:parent.navigate(&#39;http://latin.omdoc.org/logics/proof_theory?Inequal&#39;)" xlink:title="theory http://latin.omdoc.org/logics/proof_theory?Inequal">
<ellipse fill="gray" stroke="black" cx="301" cy="-106" rx="37.0701" ry="18"/>
<text text-anchor="middle" x="301" y="-102.3" font-family="Times New Roman,serif" font-size="14.00">Inequal</text>
</a>
</g>
<!-- http://latin.omdoc.org/logics/syntax?Inequal&#45;&gt;http://latin.omdoc.org/logics/proof_theory?Inequal -->
<g id="edge13" class="edge"><title>http://latin.omdoc.org/logics/syntax?Inequal&#45;&gt;http://latin.omdoc.org/logics/proof_theory?Inequal</title>
<a xlink:title="include">
<path fill="none" stroke="black" d="M464.274,-179.918C456.88,-175.966 448.657,-171.698 441,-168 406.509,-151.344 366.362,-134.061 337.926,-122.162"/>
<polygon fill="black" stroke="black" points="338.962,-118.802 328.385,-118.188 336.27,-125.264 338.962,-118.802"/>
</a>
</g>
<!-- http://latin.omdoc.org/logics/proof_theory?ExistsUnique&#45;&gt;http://latin.omdoc.org/foundations/mizar?Mizar -->
<g id="edge41" class="edge"><title>http://latin.omdoc.org/logics/proof_theory?ExistsUnique&#45;&gt;http://latin.omdoc.org/foundations/mizar?Mizar</title>
<a xlink:href="javascript:parent.navigate(&#39;http://latin.omdoc.org/foundations/mizar?ExistsUniquePFMizarView&#39;)" xlink:title="view http://latin.omdoc.org/foundations/mizar?ExistsUniquePFMizarView">
<path fill="none" stroke="blue" stroke-dasharray="5,2" d="M539.808,-95.0455C515.327,-86.6291 492.267,-73.3934 504.166,-53.4489 514.086,-38.6676 530.932,-30.1648 547.036,-25.1058"/>
<path fill="none" stroke="blue" stroke-dasharray="5,2" d="M540.457,-93.1537C516.323,-84.8945 493.262,-71.6588 505.834,-54.5511 514.987,-40.4531 531.833,-31.9503 547.633,-27.0144"/>
<polygon fill="blue" stroke="blue" points="548.365,-29.4068 557.078,-23.3797 546.508,-22.6575 548.365,-29.4068"/>
</a>
<a xlink:href="javascript:parent.navigate(&#39;http://latin.omdoc.org/foundations/mizar?ExistsUniquePFMizarView&#39;)" xlink:title="ExistsUniquePFMizarView">
<text text-anchor="middle" x="580.5" y="-58.3" font-family="Times New Roman,serif" font-size="14.00">ExistsUniquePFMizarView</text>
</a>
</g>
<!-- http://latin.omdoc.org/logics/syntax?FOLEQ -->
<g id="node10" class="node"><title>http://latin.omdoc.org/logics/syntax?FOLEQ</title>
<a xlink:href="javascript:parent.navigate(&#39;http://latin.omdoc.org/logics/syntax?FOLEQ&#39;)" xlink:title="theory http://latin.omdoc.org/logics/syntax?FOLEQ">
<ellipse fill="gray" stroke="black" cx="808" cy="-194" rx="39.9464" ry="18"/>
<text text-anchor="middle" x="808" y="-190.3" font-family="Times New Roman,serif" font-size="14.00">FOLEQ</text>
</a>
</g>
<!-- http://latin.omdoc.org/logics/syntax?FOLEQ&#45;&gt;http://latin.omdoc.org/logics/syntax?ExistsUnique -->
<g id="edge9" class="edge"><title>http://latin.omdoc.org/logics/syntax?FOLEQ&#45;&gt;http://latin.omdoc.org/logics/syntax?ExistsUnique</title>
<a xlink:title="include">
<path fill="none" stroke="black" d="M775.986,-205.208C712.896,-225.654 568.426,-264.314 451,-235 435.479,-231.125 419.658,-223.468 406.426,-215.81"/>
<polygon fill="black" stroke="black" points="408.086,-212.723 397.715,-210.554 404.469,-218.717 408.086,-212.723"/>
</a>
</g>
<!-- http://latin.omdoc.org/logics/syntax?FOLEQ&#45;&gt;http://latin.omdoc.org/foundations/mizar?Mizar -->
<g id="edge39" class="edge"><title>http://latin.omdoc.org/logics/syntax?FOLEQ&#45;&gt;http://latin.omdoc.org/foundations/mizar?Mizar</title>
<a xlink:href="javascript:parent.navigate(&#39;http://latin.omdoc.org/foundations/mizar?FOLEQMizarView&#39;)" xlink:title="view http://latin.omdoc.org/foundations/mizar?FOLEQMizarView">
<path fill="none" stroke="blue" stroke-dasharray="5,2" d="M822.4,-176.638C829.974,-166.876 836.767,-153.697 832.066,-142.358 813.547,-93.6746 798.882,-81.0052 753.501,-54.8664 714.836,-32.5016 663.278,-24.3789 627.898,-21.4991"/>
<path fill="none" stroke="blue" stroke-dasharray="5,2" d="M823.982,-177.862C831.752,-167.793 838.544,-154.613 833.934,-141.642 814.855,-92.1611 800.189,-79.4917 754.499,-53.1336 715.147,-30.526 663.589,-22.4032 628.06,-19.5057"/>
<polygon fill="blue" stroke="blue" points="628.201,-17.0095 617.978,-19.7912 627.705,-23.9919 628.201,-17.0095"/>
</a>
<a xlink:href="javascript:parent.navigate(&#39;http://latin.omdoc.org/foundations/mizar?FOLEQMizarView&#39;)" xlink:title="FOLEQMizarView">
<text text-anchor="middle" x="878" y="-102.3" font-family="Times New Roman,serif" font-size="14.00">FOLEQMizarView</text>
</a>
</g>
<!-- http://cds.omdoc.org/urtheories?LF -->
<g id="node12" class="node"><title>http://cds.omdoc.org/urtheories?LF</title>
<a xlink:href="javascript:parent.navigate(&#39;http://cds.omdoc.org/urtheories?LF&#39;)" xlink:title="theory http://cds.omdoc.org/urtheories?LF">
<ellipse fill="gray" stroke="black" cx="488" cy="-342" rx="27" ry="18"/>
<text text-anchor="middle" x="488" y="-338.3" font-family="Times New Roman,serif" font-size="14.00">LF</text>
</a>
</g>
<!-- http://cds.omdoc.org/urtheories?LF&#45;&gt;http://latin.omdoc.org/logics/syntax?ExistsUnique -->
<g id="edge11" class="edge"><title>http://cds.omdoc.org/urtheories?LF&#45;&gt;http://latin.omdoc.org/logics/syntax?ExistsUnique</title>
<a xlink:title="meta">
<path fill="none" stroke="green" d="M476.015,-325.651C456.368,-300.489 417.13,-250.237 393.456,-219.917"/>
<polygon fill="green" stroke="green" points="396.133,-217.659 387.22,-211.931 390.616,-221.967 396.133,-217.659"/>
</a>
</g>
<!-- http://cds.omdoc.org/urtheories?LF&#45;&gt;http://latin.omdoc.org/logics/syntax?Inequal -->
<g id="edge19" class="edge"><title>http://cds.omdoc.org/urtheories?LF&#45;&gt;http://latin.omdoc.org/logics/syntax?Inequal</title>
<a xlink:title="meta">
<path fill="none" stroke="green" d="M488,-323.966C488,-299.045 488,-252.374 488,-222.537"/>
<polygon fill="green" stroke="green" points="491.5,-222.378 488,-212.378 484.5,-222.378 491.5,-222.378"/>
</a>
</g>
<!-- http://cds.omdoc.org/urtheories?LF&#45;&gt;http://latin.omdoc.org/foundations/mizar?Mizar -->
<g id="edge33" class="edge"><title>http://cds.omdoc.org/urtheories?LF&#45;&gt;http://latin.omdoc.org/foundations/mizar?Mizar</title>
<a xlink:title="meta">
<path fill="none" stroke="green" d="M461.068,-339.892C358.764,-335.333 0,-315.995 0,-269 0,-269 0,-269 0,-105 0,-49.7823 411.889,-26.7277 545.616,-20.6978"/>
<polygon fill="green" stroke="green" points="546.019,-24.1834 555.855,-20.245 545.71,-17.1903 546.019,-24.1834"/>
</a>
</g>
<!-- http://cds.omdoc.org/urtheories?LF&#45;&gt;http://latin.omdoc.org/logics/proof_theory?ExistsUnique -->
<g id="edge29" class="edge"><title>http://cds.omdoc.org/urtheories?LF&#45;&gt;http://latin.omdoc.org/logics/proof_theory?ExistsUnique</title>
<a xlink:title="meta">
<path fill="none" stroke="green" d="M512.896,-334.297C535.654,-326.702 567.983,-311.879 583,-286 610.611,-238.417 600.514,-171.048 591.656,-134.01"/>
<polygon fill="green" stroke="green" points="594.962,-132.807 589.107,-123.976 588.178,-134.53 594.962,-132.807"/>
</a>
</g>
<!-- http://cds.omdoc.org/urtheories?LF&#45;&gt;http://latin.omdoc.org/logics/syntax?FOLEQ -->
<g id="edge31" class="edge"><title>http://cds.omdoc.org/urtheories?LF&#45;&gt;http://latin.omdoc.org/logics/syntax?FOLEQ</title>
<a xlink:title="meta">
<path fill="none" stroke="green" d="M514.755,-338.085C573.735,-331.239 712.73,-312.672 751,-286 773.709,-270.173 789.251,-242.091 798.3,-221.296"/>
<polygon fill="green" stroke="green" points="801.539,-222.621 802.113,-212.041 795.067,-219.954 801.539,-222.621"/>
</a>
</g>
<!-- http://cds.omdoc.org/urtheories?LF&#45;&gt;http://latin.omdoc.org/logics/proof_theory?Inequal -->
<g id="edge35" class="edge"><title>http://cds.omdoc.org/urtheories?LF&#45;&gt;http://latin.omdoc.org/logics/proof_theory?Inequal</title>
<a xlink:title="meta">
<path fill="none" stroke="green" d="M464.007,-333.449C422.683,-319.003 339.138,-283.141 304,-220 289.286,-193.56 291.208,-157.979 295.064,-133.858"/>
<polygon fill="green" stroke="green" points="298.516,-134.434 296.855,-123.97 291.629,-133.186 298.516,-134.434"/>
</a>
</g>
<!-- http://latin.omdoc.org/logics/syntax?Equal -->
<g id="node16" class="node"><title>http://latin.omdoc.org/logics/syntax?Equal</title>
<a xlink:href="javascript:parent.navigate(&#39;http://latin.omdoc.org/logics/syntax?Equal&#39;)" xlink:title="theory http://latin.omdoc.org/logics/syntax?Equal">
<ellipse fill="gray" stroke="black" cx="711" cy="-268" rx="31.2965" ry="18"/>
<text text-anchor="middle" x="711" y="-264.3" font-family="Times New Roman,serif" font-size="14.00">Equal</text>
</a>
</g>
<!-- http://cds.omdoc.org/urtheories?LF&#45;&gt;http://latin.omdoc.org/logics/syntax?Equal -->
<g id="edge27" class="edge"><title>http://cds.omdoc.org/urtheories?LF&#45;&gt;http://latin.omdoc.org/logics/syntax?Equal</title>
<a xlink:title="meta">
<path fill="none" stroke="green" d="M513.249,-334.926C539.235,-328.481 580.782,-317.638 616,-306 636.561,-299.206 659.167,-290.455 677.167,-283.169"/>
<polygon fill="green" stroke="green" points="678.718,-286.317 686.651,-279.294 676.07,-279.837 678.718,-286.317"/>
</a>
</g>
<!-- http://latin.omdoc.org/logics/syntax?NEG -->
<g id="node18" class="node"><title>http://latin.omdoc.org/logics/syntax?NEG</title>
<a xlink:href="javascript:parent.navigate(&#39;http://latin.omdoc.org/logics/syntax?NEG&#39;)" xlink:title="theory http://latin.omdoc.org/logics/syntax?NEG">
<ellipse fill="gray" stroke="black" cx="545" cy="-268" rx="29.3722" ry="18"/>
<text text-anchor="middle" x="545" y="-264.3" font-family="Times New Roman,serif" font-size="14.00">NEG</text>
</a>
</g>
<!-- http://cds.omdoc.org/urtheories?LF&#45;&gt;http://latin.omdoc.org/logics/syntax?NEG -->
<g id="edge37" class="edge"><title>http://cds.omdoc.org/urtheories?LF&#45;&gt;http://latin.omdoc.org/logics/syntax?NEG</title>
<a xlink:title="meta">
<path fill="none" stroke="green" d="M500.088,-325.731C507.692,-316.125 517.661,-303.534 526.274,-292.654"/>
<polygon fill="green" stroke="green" points="529.072,-294.758 532.535,-284.745 523.584,-290.413 529.072,-294.758"/>
</a>
</g>
<!-- http://latin.omdoc.org/logics/syntax?Equal&#45;&gt;http://latin.omdoc.org/logics/syntax?Inequal -->
<g id="edge15" class="edge"><title>http://latin.omdoc.org/logics/syntax?Equal&#45;&gt;http://latin.omdoc.org/logics/syntax?Inequal</title>
<a xlink:title="include">
<path fill="none" stroke="black" d="M681.451,-262.144C644.709,-255.486 580.546,-241.802 529,-220 525.113,-218.356 521.16,-216.384 517.319,-214.279"/>
<polygon fill="black" stroke="black" points="519.045,-211.234 508.644,-209.216 515.516,-217.28 519.045,-211.234"/>
</a>
</g>
<!-- http://latin.omdoc.org/logics/syntax?Equal&#45;&gt;http://latin.omdoc.org/foundations/mizar?Mizar -->
<g id="edge23" class="edge"><title>http://latin.omdoc.org/logics/syntax?Equal&#45;&gt;http://latin.omdoc.org/foundations/mizar?Mizar</title>
<a xlink:href="javascript:parent.navigate(&#39;http://latin.omdoc.org/foundations/mizar?EqualMizarView&#39;)" xlink:title="view http://latin.omdoc.org/foundations/mizar?EqualMizarView">
<path fill="none" stroke="blue" stroke-dasharray="5,2" d="M714.013,-249.938C719.069,-225.716 726.122,-179.673 717.028,-142.234 706.725,-99.4416 704.382,-83.8433 672.324,-54.7369 659.306,-42.7283 641.224,-34.5112 625.163,-29.1576"/>
<path fill="none" stroke="blue" stroke-dasharray="5,2" d="M715.97,-250.347C721.046,-226.019 728.099,-179.976 718.972,-141.766 708.703,-99.1446 706.36,-83.5463 673.676,-53.2631 660.134,-40.9074 642.051,-32.6904 625.796,-27.2604"/>
<polygon fill="blue" stroke="blue" points="626.316,-24.8042 615.728,-25.2067 624.256,-31.4943 626.316,-24.8042"/>
</a>
<a xlink:href="javascript:parent.navigate(&#39;http://latin.omdoc.org/foundations/mizar?EqualMizarView&#39;)" xlink:title="EqualMizarView">
<text text-anchor="middle" x="766" y="-146.3" font-family="Times New Roman,serif" font-size="14.00">EqualMizarView</text>
</a>
</g>
<!-- http://latin.omdoc.org/logics/syntax?Equal&#45;&gt;http://latin.omdoc.org/logics/syntax?FOLEQ -->
<g id="edge25" class="edge"><title>http://latin.omdoc.org/logics/syntax?Equal&#45;&gt;http://latin.omdoc.org/logics/syntax?FOLEQ</title>
<a xlink:title="include">
<path fill="none" stroke="black" d="M729.703,-253.118C743.954,-242.539 763.811,-227.8 779.961,-215.813"/>
<polygon fill="black" stroke="black" points="782.076,-218.602 788.019,-209.831 777.903,-212.981 782.076,-218.602"/>
</a>
</g>
<!-- http://latin.omdoc.org/logics/syntax?NEG&#45;&gt;http://latin.omdoc.org/logics/syntax?Inequal -->
<g id="edge17" class="edge"><title>http://latin.omdoc.org/logics/syntax?NEG&#45;&gt;http://latin.omdoc.org/logics/syntax?Inequal</title>
<a xlink:title="include">
<path fill="none" stroke="black" d="M532.632,-251.377C525.191,-241.978 515.563,-229.816 507.155,-219.196"/>
<polygon fill="black" stroke="black" points="509.69,-216.759 500.739,-211.091 504.202,-221.104 509.69,-216.759"/>
</a>
</g>
<!-- http://latin.omdoc.org/logics/syntax?NEG&#45;&gt;http://latin.omdoc.org/foundations/mizar?Mizar -->
<g id="edge21" class="edge"><title>http://latin.omdoc.org/logics/syntax?NEG&#45;&gt;http://latin.omdoc.org/foundations/mizar?Mizar</title>
<a xlink:href="javascript:parent.navigate(&#39;http://latin.omdoc.org/foundations/mizar?NEGMizarView&#39;)" xlink:title="view http://latin.omdoc.org/foundations/mizar?NEGMizarView">
<path fill="none" stroke="blue" stroke-dasharray="5,2" d="M553.098,-250.036C567.169,-225.011 596.112,-176.679 628.26,-141.327 637.817,-131.707 645.382,-134.205 650.117,-123.531 664.721,-96.073 671.399,-80.1918 655.148,-54.5233 648.465,-43.4569 636.498,-35.637 624.616,-30.4063"/>
<path fill="none" stroke="blue" stroke-dasharray="5,2" d="M554.841,-251.016C568.885,-226.039 597.828,-177.707 629.74,-142.673 637.19,-133.606 644.755,-136.104 651.883,-124.469 666.565,-96.8482 673.243,-80.967 656.852,-53.4767 649.559,-41.7826 637.592,-33.9628 625.423,-28.5766"/>
<polygon fill="blue" stroke="blue" points="626.045,-26.1345 615.457,-25.7526 623.496,-32.6539 626.045,-26.1345"/>
</a>
<a xlink:href="javascript:parent.navigate(&#39;http://latin.omdoc.org/foundations/mizar?NEGMizarView&#39;)" xlink:title="NEGMizarView">
<text text-anchor="middle" x="673.5" y="-146.3" font-family="Times New Roman,serif" font-size="14.00">NEGMizarView</text>
</a>
</g>
</g>
</svg>
