<?xml version="1.0" encoding="UTF-8" standalone="no"?>
<!DOCTYPE svg PUBLIC "-//W3C//DTD SVG 1.1//EN"
 "http://www.w3.org/Graphics/SVG/1.1/DTD/svg11.dtd">
<!-- Generated by graphviz version 2.28.0 (20110507.0327)
 -->
<!-- Title: MMT Pages: 1 -->
<svg
 viewBox="0.00 0.00 472.00 294.00" xmlns="http://www.w3.org/2000/svg" xmlns:xlink="http://www.w3.org/1999/xlink">
<g id="graph1" class="graph" transform="scale(1 1) rotate(0) translate(4 290)">
<title>MMT</title>
<polygon fill="white" stroke="white" points="-4,5 -4,-290 469,-290 469,5 -4,5"/>
<g id="graph2" class="cluster"><title>cluster_local</title>
<polygon fill="none" stroke="black" points="181,-80 181,-132 277,-132 277,-80 181,-80"/>
</g>
<!-- http://latin.omdoc.org/type_theories?DepFun -->
<g id="node2" class="node"><title>http://latin.omdoc.org/type_theories?DepFun</title>
<a xlink:href="http://latin.omdoc.org/type_theories?DepFun" class="graphtheory">
<ellipse fill="none" stroke="black" cx="229" cy="-106" rx="39.9464" ry="18"/>
<text text-anchor="middle" x="229" y="-102.3" font-family="Times New Roman,serif" font-size="14.00">DepFun</text>
</a>
</g>
<!-- http://latin.omdoc.org/type_theories?DepTypes -->
<g id="node3" class="node"><title>http://latin.omdoc.org/type_theories?DepTypes</title>
<a xlink:href="http://latin.omdoc.org/type_theories?DepTypes" class="graphtheory">
<ellipse fill="gray" stroke="black" cx="48" cy="-18" rx="48.6179" ry="18"/>
<text text-anchor="middle" x="48" y="-14.3" font-family="Times New Roman,serif" font-size="14.00">DepTypes</text>
</a>
</g>
<!-- http://latin.omdoc.org/type_theories?DepFun&#45;&gt;http://latin.omdoc.org/type_theories?DepTypes -->
<g id="edge3" class="edge"><title>http://latin.omdoc.org/type_theories?DepFun&#45;&gt;http://latin.omdoc.org/type_theories?DepTypes</title>
<a xlink:href="http://latin.omdoc.org/type_theories?DepTypes?deptypes" class="graphstructure">
<path fill="none" stroke="black" d="M207.312,-90.7771C200.411,-86.779 192.593,-82.7709 185,-80 162.071,-71.6328 153.782,-78.7591 131,-70 111.866,-62.6434 92.2434,-50.8198 76.8851,-40.4086"/>
<polygon fill="black" stroke="black" points="78.5789,-37.3233 68.3709,-34.4863 74.5816,-43.0698 78.5789,-37.3233"/>
</a>
<a xlink:href="http://latin.omdoc.org/type_theories?DepTypes?deptypes" class="deptypes">
<text text-anchor="middle" x="157" y="-58.3" font-family="Times New Roman,serif" font-size="14.00">deptypes</text>
</a>
</g>
<!-- http://latin.omdoc.org/type_theories?DepKinds -->
<g id="node5" class="node"><title>http://latin.omdoc.org/type_theories?DepKinds</title>
<a xlink:href="http://latin.omdoc.org/type_theories?DepKinds" class="graphtheory">
<ellipse fill="gray" stroke="black" cx="165" cy="-18" rx="47.169" ry="18"/>
<text text-anchor="middle" x="165" y="-14.3" font-family="Times New Roman,serif" font-size="14.00">DepKinds</text>
</a>
</g>
<!-- http://latin.omdoc.org/type_theories?DepFun&#45;&gt;http://latin.omdoc.org/type_theories?DepKinds -->
<g id="edge5" class="edge"><title>http://latin.omdoc.org/type_theories?DepFun&#45;&gt;http://latin.omdoc.org/type_theories?DepKinds</title>
<a xlink:href="http://latin.omdoc.org/type_theories?DepKinds?depkinds" class="graphstructure">
<path fill="none" stroke="black" d="M213.388,-89.1483C207.959,-83.3256 201.986,-76.5518 197,-70 190.957,-62.0588 184.971,-52.9479 179.839,-44.644"/>
<polygon fill="black" stroke="black" points="182.811,-42.7939 174.645,-36.0437 176.819,-46.4131 182.811,-42.7939"/>
</a>
<a xlink:href="http://latin.omdoc.org/type_theories?DepKinds?depkinds" class="depkinds">
<text text-anchor="middle" x="223" y="-58.3" font-family="Times New Roman,serif" font-size="14.00">depkinds</text>
</a>
</g>
<!-- http://latin.omdoc.org/type_theories?PolyTypes -->
<g id="node7" class="node"><title>http://latin.omdoc.org/type_theories?PolyTypes</title>
<a xlink:href="http://latin.omdoc.org/type_theories?PolyTypes" class="graphtheory">
<ellipse fill="gray" stroke="black" cx="286" cy="-18" rx="50.0684" ry="18"/>
<text text-anchor="middle" x="286" y="-14.3" font-family="Times New Roman,serif" font-size="14.00">PolyTypes</text>
</a>
</g>
<!-- http://latin.omdoc.org/type_theories?DepFun&#45;&gt;http://latin.omdoc.org/type_theories?PolyTypes -->
<g id="edge7" class="edge"><title>http://latin.omdoc.org/type_theories?DepFun&#45;&gt;http://latin.omdoc.org/type_theories?PolyTypes</title>
<a xlink:href="http://latin.omdoc.org/type_theories?PolyTypes?poly" class="graphstructure">
<path fill="none" stroke="black" d="M239.99,-88.4183C248.295,-75.888 259.839,-58.471 269.286,-44.2179"/>
<polygon fill="black" stroke="black" points="272.242,-46.0932 274.849,-35.8242 266.407,-42.226 272.242,-46.0932"/>
</a>
<a xlink:href="http://latin.omdoc.org/type_theories?PolyTypes?poly" class="poly">
<text text-anchor="middle" x="275.5" y="-58.3" font-family="Times New Roman,serif" font-size="14.00">poly</text>
</a>
</g>
<!-- http://latin.omdoc.org/type_theories?TypeOper -->
<g id="node9" class="node"><title>http://latin.omdoc.org/type_theories?TypeOper</title>
<a xlink:href="http://latin.omdoc.org/type_theories?TypeOper" class="graphtheory">
<ellipse fill="gray" stroke="black" cx="415" cy="-18" rx="48.1437" ry="18"/>
<text text-anchor="middle" x="415" y="-14.3" font-family="Times New Roman,serif" font-size="14.00">TypeOper</text>
</a>
</g>
<!-- http://latin.omdoc.org/type_theories?DepFun&#45;&gt;http://latin.omdoc.org/type_theories?TypeOper -->
<g id="edge9" class="edge"><title>http://latin.omdoc.org/type_theories?DepFun&#45;&gt;http://latin.omdoc.org/type_theories?TypeOper</title>
<a xlink:href="http://latin.omdoc.org/type_theories?TypeOper?funkinds" class="graphstructure">
<path fill="none" stroke="black" d="M252.488,-91.017C259.048,-87.2873 266.234,-83.3626 273,-80 306.244,-63.4786 345.033,-46.9974 373.661,-35.3389"/>
<polygon fill="black" stroke="black" points="375.001,-38.5725 382.958,-31.5769 372.375,-32.0836 375.001,-38.5725"/>
</a>
<a xlink:href="http://latin.omdoc.org/type_theories?TypeOper?funkinds" class="funkinds">
<text text-anchor="middle" x="351.5" y="-58.3" font-family="Times New Roman,serif" font-size="14.00">funkinds</text>
</a>
</g>
<!-- http://latin.omdoc.org/type_theories?Level -->
<g id="node11" class="node"><title>http://latin.omdoc.org/type_theories?Level</title>
<a xlink:href="http://latin.omdoc.org/type_theories?Level" class="graphtheory">
<ellipse fill="gray" stroke="black" cx="219" cy="-194" rx="30.3206" ry="18"/>
<text text-anchor="middle" x="219" y="-190.3" font-family="Times New Roman,serif" font-size="14.00">Level</text>
</a>
</g>
<!-- http://latin.omdoc.org/type_theories?Level&#45;&gt;http://latin.omdoc.org/type_theories?DepFun -->
<g id="edge11" class="edge"><title>http://latin.omdoc.org/type_theories?Level&#45;&gt;http://latin.omdoc.org/type_theories?DepFun</title>
<a xlink:href="http://latin.omdoc.org/type_theories?DepFun?domain" class="graphstructure">
<path fill="none" stroke="black" d="M194.772,-183.026C175.942,-173.722 154.627,-158.783 165,-142 170.225,-133.546 176.232,-136.679 185,-132 188.75,-129.999 192.653,-127.862 196.519,-125.711"/>
<polygon fill="black" stroke="black" points="198.38,-128.68 205.379,-120.726 194.948,-122.579 198.38,-128.68"/>
</a>
<a xlink:href="http://latin.omdoc.org/type_theories?DepFun?domain" class="domain">
<text text-anchor="middle" x="186" y="-146.3" font-family="Times New Roman,serif" font-size="14.00">domain</text>
</a>
</g>
<!-- http://latin.omdoc.org/type_theories?Level&#45;&gt;http://latin.omdoc.org/type_theories?DepFun -->
<g id="edge13" class="edge"><title>http://latin.omdoc.org/type_theories?Level&#45;&gt;http://latin.omdoc.org/type_theories?DepFun</title>
<a xlink:href="http://latin.omdoc.org/type_theories?DepFun?scope" class="graphstructure">
<path fill="none" stroke="black" d="M220.976,-176.009C222.35,-164.19 224.213,-148.171 225.797,-134.542"/>
<polygon fill="black" stroke="black" points="229.316,-134.587 226.994,-124.25 222.363,-133.779 229.316,-134.587"/>
</a>
<a xlink:href="http://latin.omdoc.org/type_theories?DepFun?scope" class="scope">
<text text-anchor="middle" x="242" y="-146.3" font-family="Times New Roman,serif" font-size="14.00">scope</text>
</a>
</g>
<!-- http://cds.omdoc.org/urtheories?LF -->
<g id="node14" class="node"><title>http://cds.omdoc.org/urtheories?LF</title>
<a xlink:href="http://cds.omdoc.org/urtheories?LF" class="graphtheory">
<ellipse fill="gray" stroke="black" cx="257" cy="-268" rx="27" ry="18"/>
<text text-anchor="middle" x="257" y="-264.3" font-family="Times New Roman,serif" font-size="14.00">LF</text>
</a>
</g>
<!-- http://cds.omdoc.org/urtheories?LF&#45;&gt;http://latin.omdoc.org/type_theories?DepFun -->
<g id="edge15" class="edge"><title>http://cds.omdoc.org/urtheories?LF&#45;&gt;http://latin.omdoc.org/type_theories?DepFun</title>
<a class="graphmeta">
<path fill="none" stroke="black" d="M262.16,-250.072C268.764,-225.314 277.704,-178.238 263,-142 261.232,-137.643 258.633,-133.531 255.646,-129.761"/>
<polygon fill="black" stroke="black" points="257.982,-127.128 248.659,-122.095 252.808,-131.843 257.982,-127.128"/>
</a>
</g>
<!-- http://cds.omdoc.org/urtheories?LF&#45;&gt;http://latin.omdoc.org/type_theories?DepTypes -->
<g id="edge23" class="edge"><title>http://cds.omdoc.org/urtheories?LF&#45;&gt;http://latin.omdoc.org/type_theories?DepTypes</title>
<a class="graphmeta">
<path fill="none" stroke="black" d="M232.521,-259.752C207.836,-251.454 169.791,-235.849 144,-212 93.8268,-165.605 66.3862,-87.1994 54.7759,-46.0552"/>
<polygon fill="black" stroke="black" points="58.0987,-44.9357 52.0992,-36.2032 51.3435,-46.7711 58.0987,-44.9357"/>
</a>
</g>
<!-- http://cds.omdoc.org/urtheories?LF&#45;&gt;http://latin.omdoc.org/type_theories?DepKinds -->
<g id="edge21" class="edge"><title>http://cds.omdoc.org/urtheories?LF&#45;&gt;http://latin.omdoc.org/type_theories?DepKinds</title>
<a class="graphmeta">
<path fill="none" stroke="black" d="M236.552,-255.982C219.62,-246.117 195.713,-230.396 179,-212 130.142,-158.224 116.622,-140.23 98,-70 96.1774,-63.1264 94.3153,-60.082 98,-54 103.097,-45.5862 110.954,-39.0988 119.517,-34.1312"/>
<polygon fill="black" stroke="black" points="121.297,-37.1525 128.611,-29.4874 118.113,-30.9184 121.297,-37.1525"/>
</a>
</g>
<!-- http://cds.omdoc.org/urtheories?LF&#45;&gt;http://latin.omdoc.org/type_theories?PolyTypes -->
<g id="edge17" class="edge"><title>http://cds.omdoc.org/urtheories?LF&#45;&gt;http://latin.omdoc.org/type_theories?PolyTypes</title>
<a class="graphmeta">
<path fill="none" stroke="black" d="M269.032,-251.848C293.203,-220.292 346.889,-144.271 365,-70 366.685,-63.0913 368.878,-59.9603 365,-54 358.545,-44.0807 348.567,-36.9512 337.849,-31.834"/>
<polygon fill="black" stroke="black" points="338.885,-28.4735 328.31,-27.8355 336.179,-34.9293 338.885,-28.4735"/>
</a>
</g>
<!-- http://cds.omdoc.org/urtheories?LF&#45;&gt;http://latin.omdoc.org/type_theories?TypeOper -->
<g id="edge19" class="edge"><title>http://cds.omdoc.org/urtheories?LF&#45;&gt;http://latin.omdoc.org/type_theories?TypeOper</title>
<a class="graphmeta">
<path fill="none" stroke="black" d="M275.412,-254.569C289.629,-244.329 309.148,-228.803 323,-212 365.7,-160.206 393.982,-85.2783 406.908,-45.7463"/>
<polygon fill="black" stroke="black" points="410.3,-46.6287 410.005,-36.038 403.631,-44.5014 410.3,-46.6287"/>
</a>
</g>
<!-- http://cds.omdoc.org/urtheories?LF&#45;&gt;http://latin.omdoc.org/type_theories?Level -->
<g id="edge25" class="edge"><title>http://cds.omdoc.org/urtheories?LF&#45;&gt;http://latin.omdoc.org/type_theories?Level</title>
<a class="graphmeta">
<path fill="none" stroke="black" d="M248.377,-250.662C243.664,-241.733 237.723,-230.475 232.418,-220.424"/>
<polygon fill="black" stroke="black" points="235.352,-218.483 227.589,-211.273 229.161,-221.751 235.352,-218.483"/>
</a>
</g>
</g>
</svg>
