<?xml version="1.0" encoding="UTF-8" standalone="no"?>
<!DOCTYPE svg PUBLIC "-//W3C//DTD SVG 1.1//EN"
 "http://www.w3.org/Graphics/SVG/1.1/DTD/svg11.dtd">
<!-- Generated by graphviz version 2.28.0 (20110507.0327)
 -->
<!-- Title: MMT Pages: 1 -->
<svg
 viewBox="0.00 0.00 203.45 280.00" xmlns="http://www.w3.org/2000/svg" xmlns:xlink="http://www.w3.org/1999/xlink">
<g id="graph1" class="graph" transform="scale(1 1) rotate(0) translate(4 276)">
<title>MMT</title>
<polygon fill="white" stroke="white" points="-4,5 -4,-276 200.45,-276 200.45,5 -4,5"/>
<g id="graph2" class="cluster"><title>cluster_local</title>
<polygon fill="none" stroke="black" points="87,-80 87,-132 179,-132 179,-80 87,-80"/>
</g>
<!-- http://latin.omdoc.org/type_theories?IDENT -->
<g id="node2" class="node"><title>http://latin.omdoc.org/type_theories?IDENT</title>
<a xlink:href="http://latin.omdoc.org/type_theories?IDENT" class="graphtheory">
<ellipse fill="none" stroke="black" cx="133" cy="-106" rx="37.5442" ry="18"/>
<text text-anchor="middle" x="133" y="-102.3" font-family="Times New Roman,serif" font-size="14.00">IDENT</text>
</a>
</g>
<!-- http://latin.omdoc.org/foundations/zfc?Boolean -->
<g id="node3" class="node"><title>http://latin.omdoc.org/foundations/zfc?Boolean</title>
<a xlink:href="http://latin.omdoc.org/foundations/zfc?Boolean" class="graphtheory">
<ellipse fill="gray" stroke="black" cx="40" cy="-18" rx="39.9464" ry="18"/>
<text text-anchor="middle" x="40" y="-14.3" font-family="Times New Roman,serif" font-size="14.00">Boolean</text>
</a>
</g>
<!-- http://latin.omdoc.org/type_theories?IDENT&#45;&gt;http://latin.omdoc.org/foundations/zfc?Boolean -->
<g id="edge3" class="edge"><title>http://latin.omdoc.org/type_theories?IDENT&#45;&gt;http://latin.omdoc.org/foundations/zfc?Boolean</title>
<a xlink:href="http://latin.omdoc.org/translations/tt_zfc?IDENT" class="graphview">
<path fill="none" stroke="black" d="M115.317,-89.8443C108.303,-83.7507 100.207,-76.6134 93,-70 83.1506,-60.9614 72.4937,-50.7865 63.3367,-41.9163"/>
<polygon fill="black" stroke="black" points="65.6566,-39.2902 56.0483,-34.8257 60.7754,-44.3075 65.6566,-39.2902"/>
</a>
<a xlink:href="http://latin.omdoc.org/translations/tt_zfc?IDENT" class="IDENT">
<text text-anchor="middle" x="114" y="-58.3" font-family="Times New Roman,serif" font-size="14.00">IDENT</text>
</a>
</g>
<!-- http://latin.omdoc.org/type_theories?MLTT -->
<g id="node5" class="node"><title>http://latin.omdoc.org/type_theories?MLTT</title>
<a xlink:href="http://latin.omdoc.org/type_theories?MLTT" class="graphtheory">
<ellipse fill="gray" stroke="black" cx="147" cy="-18" rx="35.6194" ry="18"/>
<text text-anchor="middle" x="147" y="-14.3" font-family="Times New Roman,serif" font-size="14.00">MLTT</text>
</a>
</g>
<!-- http://latin.omdoc.org/type_theories?IDENT&#45;&gt;http://latin.omdoc.org/type_theories?MLTT -->
<g id="edge5" class="edge"><title>http://latin.omdoc.org/type_theories?IDENT&#45;&gt;http://latin.omdoc.org/type_theories?MLTT</title>
<a class="graphinclude">
<path fill="none" stroke="black" d="M135.766,-88.0092C137.722,-75.9947 140.384,-59.641 142.626,-45.8691"/>
<polygon fill="black" stroke="black" points="146.087,-46.388 144.24,-35.9555 139.178,-45.2632 146.087,-46.388"/>
</a>
</g>
<!-- http://latin.omdoc.org/type_theories?TypesTerms -->
<g id="node7" class="node"><title>http://latin.omdoc.org/type_theories?TypesTerms</title>
<a xlink:href="http://latin.omdoc.org/type_theories?TypesTerms" class="graphtheory">
<ellipse fill="gray" stroke="black" cx="100" cy="-180" rx="57.2927" ry="18"/>
<text text-anchor="middle" x="100" y="-176.3" font-family="Times New Roman,serif" font-size="14.00">TypesTerms</text>
</a>
</g>
<!-- http://latin.omdoc.org/type_theories?TypesTerms&#45;&gt;http://latin.omdoc.org/type_theories?IDENT -->
<g id="edge7" class="edge"><title>http://latin.omdoc.org/type_theories?TypesTerms&#45;&gt;http://latin.omdoc.org/type_theories?IDENT</title>
<a class="graphinclude">
<path fill="none" stroke="black" d="M107.821,-161.937C111.766,-153.329 116.637,-142.702 121.04,-133.095"/>
<polygon fill="black" stroke="black" points="124.251,-134.489 125.236,-123.941 117.887,-131.573 124.251,-134.489"/>
</a>
</g>
<!-- http://cds.omdoc.org/urtheories?LF -->
<g id="node9" class="node"><title>http://cds.omdoc.org/urtheories?LF</title>
<a xlink:href="http://cds.omdoc.org/urtheories?LF" class="graphtheory">
<ellipse fill="gray" stroke="black" cx="157" cy="-254" rx="27" ry="18"/>
<text text-anchor="middle" x="157" y="-250.3" font-family="Times New Roman,serif" font-size="14.00">LF</text>
</a>
</g>
<!-- http://cds.omdoc.org/urtheories?LF&#45;&gt;http://latin.omdoc.org/type_theories?IDENT -->
<g id="edge9" class="edge"><title>http://cds.omdoc.org/urtheories?LF&#45;&gt;http://latin.omdoc.org/type_theories?IDENT</title>
<a class="graphmeta">
<path fill="none" stroke="black" d="M162.254,-236.249C167.232,-217.75 172.992,-187.244 166,-162 163.057,-151.376 157.455,-140.744 151.691,-131.698"/>
<polygon fill="black" stroke="black" points="154.47,-129.559 145.965,-123.241 148.673,-133.484 154.47,-129.559"/>
</a>
</g>
<!-- http://cds.omdoc.org/urtheories?LF&#45;&gt;http://latin.omdoc.org/foundations/zfc?Boolean -->
<g id="edge11" class="edge"><title>http://cds.omdoc.org/urtheories?LF&#45;&gt;http://latin.omdoc.org/foundations/zfc?Boolean</title>
<a class="graphmeta">
<path fill="none" stroke="black" d="M130.706,-249.613C101.393,-244.277 55.3133,-230.877 34,-198 3.85216,-151.495 18.5944,-82.9739 30.3314,-45.6393"/>
<polygon fill="black" stroke="black" points="33.7088,-46.5734 33.5224,-35.9802 27.0621,-44.3775 33.7088,-46.5734"/>
</a>
</g>
<!-- http://cds.omdoc.org/urtheories?LF&#45;&gt;http://latin.omdoc.org/type_theories?MLTT -->
<g id="edge15" class="edge"><title>http://cds.omdoc.org/urtheories?LF&#45;&gt;http://latin.omdoc.org/type_theories?MLTT</title>
<a class="graphmeta">
<path fill="none" stroke="black" d="M169.997,-237.971C174.298,-232.123 178.597,-225.12 181,-218 200.616,-159.881 199.159,-139.173 183,-80 179.457,-67.0252 172.37,-54.0024 165.414,-43.341"/>
<polygon fill="black" stroke="black" points="168.228,-41.2564 159.683,-34.9937 162.458,-45.2187 168.228,-41.2564"/>
</a>
</g>
<!-- http://cds.omdoc.org/urtheories?LF&#45;&gt;http://latin.omdoc.org/type_theories?TypesTerms -->
<g id="edge13" class="edge"><title>http://cds.omdoc.org/urtheories?LF&#45;&gt;http://latin.omdoc.org/type_theories?TypesTerms</title>
<a class="graphmeta">
<path fill="none" stroke="black" d="M144.912,-237.731C137.589,-228.48 128.072,-216.46 119.685,-205.866"/>
<polygon fill="black" stroke="black" points="122.216,-203.424 113.265,-197.756 116.728,-207.769 122.216,-203.424"/>
</a>
</g>
</g>
</svg>
