<?xml version="1.0" encoding="UTF-8" standalone="no"?>
<!DOCTYPE svg PUBLIC "-//W3C//DTD SVG 1.1//EN"
 "http://www.w3.org/Graphics/SVG/1.1/DTD/svg11.dtd">
<!-- Generated by graphviz version 2.28.0 (20110507.0327)
 -->
<!-- Title: MMT Pages: 1 -->
<svg width="1252pt" height="382pt"
 viewBox="0.00 0.00 1252.00 382.00" xmlns="http://www.w3.org/2000/svg" xmlns:xlink="http://www.w3.org/1999/xlink">
<g id="graph1" class="graph" transform="scale(1 1) rotate(0) translate(4 378)">
<title>MMT</title>
<polygon fill="white" stroke="white" points="-4,5 -4,-378 1249,-378 1249,5 -4,5"/>
<g id="graph2" class="cluster"><title>cluster_local</title>
<polygon fill="none" stroke="black" points="851,-80 851,-220 995,-220 995,-80 851,-80"/>
</g>
<!-- http://latin.omdoc.org/type_theories?LambdaArrow -->
<g id="node2" class="node"><title>http://latin.omdoc.org/type_theories?LambdaArrow</title>
<a xlink:href="http://latin.omdoc.org/type_theories?LambdaArrow" class="graphtheory">
<ellipse fill="none" stroke="black" cx="923" cy="-194" rx="63.5411" ry="18"/>
<text text-anchor="middle" x="923" y="-190.3" font-family="Times New Roman,serif" font-size="14.00">LambdaArrow</text>
</a>
</g>
<!-- http://latin.omdoc.org/type_theories?LambdaP -->
<g id="node3" class="node"><title>http://latin.omdoc.org/type_theories?LambdaP</title>
<a xlink:href="http://latin.omdoc.org/type_theories?LambdaP" class="graphtheory">
<ellipse fill="none" stroke="black" cx="941" cy="-106" rx="46.2191" ry="18"/>
<text text-anchor="middle" x="941" y="-102.3" font-family="Times New Roman,serif" font-size="14.00">LambdaP</text>
</a>
</g>
<!-- http://latin.omdoc.org/type_theories?LambdaArrow&#45;&gt;http://latin.omdoc.org/type_theories?LambdaP -->
<g id="edge3" class="edge"><title>http://latin.omdoc.org/type_theories?LambdaArrow&#45;&gt;http://latin.omdoc.org/type_theories?LambdaP</title>
<a xlink:href="http://latin.omdoc.org/type_theories?LambdaArrowToP" class="graphview">
<path fill="none" stroke="black" d="M926.556,-176.009C929.071,-163.995 932.494,-147.641 935.376,-133.869"/>
<polygon fill="black" stroke="black" points="938.828,-134.46 937.451,-123.956 931.977,-133.026 938.828,-134.46"/>
</a>
<a xlink:href="http://latin.omdoc.org/type_theories?LambdaArrowToP" class="LambdaArrowToP">
<text text-anchor="middle" x="987.5" y="-146.3" font-family="Times New Roman,serif" font-size="14.00">LambdaArrowToP</text>
</a>
</g>
<!-- http://latin.omdoc.org/type_theories?Lambda2ToP2 -->
<g id="node5" class="node"><title>http://latin.omdoc.org/type_theories?Lambda2ToP2</title>
<a xlink:href="http://latin.omdoc.org/type_theories?Lambda2ToP2" class="graphtheory">
<ellipse fill="gray" stroke="black" cx="362" cy="-106" rx="65.4659" ry="18"/>
<text text-anchor="middle" x="362" y="-102.3" font-family="Times New Roman,serif" font-size="14.00">Lambda2ToP2</text>
</a>
</g>
<!-- http://latin.omdoc.org/type_theories?LambdaArrow&#45;&gt;http://latin.omdoc.org/type_theories?Lambda2ToP2 -->
<g id="edge5" class="edge"><title>http://latin.omdoc.org/type_theories?LambdaArrow&#45;&gt;http://latin.omdoc.org/type_theories?Lambda2ToP2</title>
<a xlink:href="http://latin.omdoc.org/type_theories?Lambda2ToP2?[http://latin.omdoc.org/type_theories?LambdaArrow]" class="graphstructure">
<path fill="none" stroke="black" d="M879.739,-180.727C871.581,-178.829 863.075,-177.127 855,-176 824.392,-171.728 320.497,-180.204 299,-158 287.768,-146.399 299.263,-134.951 315.368,-125.85"/>
<polygon fill="black" stroke="black" points="317.392,-128.744 324.674,-121.049 314.183,-122.523 317.392,-128.744"/>
</a>
<a xlink:href="http://latin.omdoc.org/type_theories?Lambda2ToP2?[http://latin.omdoc.org/type_theories?LambdaArrow]" class="[http://latin.omdoc.org/type_theories?LambdaArrow]">
<text text-anchor="middle" x="447.5" y="-146.3" font-family="Times New Roman,serif" font-size="14.00">[http://latin.omdoc.org/type_theories?LambdaArrow]</text>
</a>
</g>
<!-- http://latin.omdoc.org/type_theories?LambdaOmega_ToPOmega_ -->
<g id="node7" class="node"><title>http://latin.omdoc.org/type_theories?LambdaOmega_ToPOmega_</title>
<a xlink:href="http://latin.omdoc.org/type_theories?LambdaOmega_ToPOmega_" class="graphtheory">
<ellipse fill="gray" stroke="black" cx="564" cy="-106" rx="117.935" ry="18"/>
<text text-anchor="middle" x="564" y="-102.3" font-family="Times New Roman,serif" font-size="14.00">LambdaOmega_ToPOmega_</text>
</a>
</g>
<!-- http://latin.omdoc.org/type_theories?LambdaArrow&#45;&gt;http://latin.omdoc.org/type_theories?LambdaOmega_ToPOmega_ -->
<g id="edge7" class="edge"><title>http://latin.omdoc.org/type_theories?LambdaArrow&#45;&gt;http://latin.omdoc.org/type_theories?LambdaOmega_ToPOmega_</title>
<a xlink:href="http://latin.omdoc.org/type_theories?LambdaOmega_ToPOmega_?[http://latin.omdoc.org/type_theories?LambdaArrow]" class="graphstructure">
<path fill="none" stroke="black" d="M879.328,-180.944C871.286,-179.049 862.927,-177.293 855,-176 804.62,-167.781 673.34,-177.095 626,-158 611.23,-152.042 597.293,-141.243 586.388,-131.11"/>
<polygon fill="black" stroke="black" points="588.621,-128.399 579.015,-123.929 583.737,-133.413 588.621,-128.399"/>
</a>
<a xlink:href="http://latin.omdoc.org/type_theories?LambdaOmega_ToPOmega_?[http://latin.omdoc.org/type_theories?LambdaArrow]" class="[http://latin.omdoc.org/type_theories?LambdaArrow]">
<text text-anchor="middle" x="774.5" y="-146.3" font-family="Times New Roman,serif" font-size="14.00">[http://latin.omdoc.org/type_theories?LambdaArrow]</text>
</a>
</g>
<!-- http://latin.omdoc.org/type_theories?Lambda2 -->
<g id="node9" class="node"><title>http://latin.omdoc.org/type_theories?Lambda2</title>
<a xlink:href="http://latin.omdoc.org/type_theories?Lambda2" class="graphtheory">
<ellipse fill="gray" stroke="black" cx="73" cy="-106" rx="44.271" ry="18"/>
<text text-anchor="middle" x="73" y="-102.3" font-family="Times New Roman,serif" font-size="14.00">Lambda2</text>
</a>
</g>
<!-- http://latin.omdoc.org/type_theories?LambdaArrow&#45;&gt;http://latin.omdoc.org/type_theories?Lambda2 -->
<g id="edge9" class="edge"><title>http://latin.omdoc.org/type_theories?LambdaArrow&#45;&gt;http://latin.omdoc.org/type_theories?Lambda2</title>
<a class="graphinclude">
<path fill="none" stroke="black" d="M879.741,-180.71C871.583,-178.814 863.076,-177.117 855,-176 589.849,-139.328 517.799,-197.135 253,-158 204.393,-150.816 150.377,-134.314 114.318,-122.014"/>
<polygon fill="black" stroke="black" points="115.238,-118.629 104.644,-118.668 112.95,-125.245 115.238,-118.629"/>
</a>
</g>
<!-- http://latin.omdoc.org/type_theories?LambdaOmega_ -->
<g id="node11" class="node"><title>http://latin.omdoc.org/type_theories?LambdaOmega_</title>
<a xlink:href="http://latin.omdoc.org/type_theories?LambdaOmega_" class="graphtheory">
<ellipse fill="gray" stroke="black" cx="207" cy="-106" rx="71.2405" ry="18"/>
<text text-anchor="middle" x="207" y="-102.3" font-family="Times New Roman,serif" font-size="14.00">LambdaOmega_</text>
</a>
</g>
<!-- http://latin.omdoc.org/type_theories?LambdaArrow&#45;&gt;http://latin.omdoc.org/type_theories?LambdaOmega_ -->
<g id="edge11" class="edge"><title>http://latin.omdoc.org/type_theories?LambdaArrow&#45;&gt;http://latin.omdoc.org/type_theories?LambdaOmega_</title>
<a class="graphinclude">
<path fill="none" stroke="black" d="M879.74,-180.724C871.581,-178.826 863.075,-177.125 855,-176 730.803,-158.695 411.205,-193.711 291,-158 270.992,-152.056 250.922,-140.145 235.42,-129.328"/>
<polygon fill="black" stroke="black" points="237.465,-126.488 227.307,-123.476 233.37,-132.165 237.465,-126.488"/>
</a>
</g>
<!-- http://latin.omdoc.org/logics/syntax?LambdaPHOL -->
<g id="node17" class="node"><title>http://latin.omdoc.org/logics/syntax?LambdaPHOL</title>
<a xlink:href="http://latin.omdoc.org/logics/syntax?LambdaPHOL" class="graphtheory">
<ellipse fill="gray" stroke="black" cx="1140" cy="-18" rx="64.0172" ry="18"/>
<text text-anchor="middle" x="1140" y="-14.3" font-family="Times New Roman,serif" font-size="14.00">LambdaPHOL</text>
</a>
</g>
<!-- http://latin.omdoc.org/type_theories?LambdaP&#45;&gt;http://latin.omdoc.org/logics/syntax?LambdaPHOL -->
<g id="edge17" class="edge"><title>http://latin.omdoc.org/type_theories?LambdaP&#45;&gt;http://latin.omdoc.org/logics/syntax?LambdaPHOL</title>
<a class="graphinclude">
<path fill="none" stroke="black" d="M970.792,-92.1249C1004.38,-77.6108 1059.26,-53.8944 1097.37,-37.4223"/>
<polygon fill="black" stroke="black" points="1098.89,-40.5804 1106.68,-33.4005 1096.11,-34.1548 1098.89,-40.5804"/>
</a>
</g>
<!-- http://latin.omdoc.org/type_theories?LambdaPOmega_ -->
<g id="node19" class="node"><title>http://latin.omdoc.org/type_theories?LambdaPOmega_</title>
<a xlink:href="http://latin.omdoc.org/type_theories?LambdaPOmega_" class="graphtheory">
<ellipse fill="gray" stroke="black" cx="941" cy="-18" rx="76.5394" ry="18"/>
<text text-anchor="middle" x="941" y="-14.3" font-family="Times New Roman,serif" font-size="14.00">LambdaPOmega_</text>
</a>
</g>
<!-- http://latin.omdoc.org/type_theories?LambdaP&#45;&gt;http://latin.omdoc.org/type_theories?LambdaPOmega_ -->
<g id="edge19" class="edge"><title>http://latin.omdoc.org/type_theories?LambdaP&#45;&gt;http://latin.omdoc.org/type_theories?LambdaPOmega_</title>
<a class="graphinclude">
<path fill="none" stroke="black" d="M941,-87.5966C941,-75.7459 941,-59.8169 941,-46.2917"/>
<polygon fill="black" stroke="black" points="944.5,-46.084 941,-36.084 937.5,-46.084 944.5,-46.084"/>
</a>
</g>
<!-- http://latin.omdoc.org/type_theories?LambdaP2 -->
<g id="node21" class="node"><title>http://latin.omdoc.org/type_theories?LambdaP2</title>
<a xlink:href="http://latin.omdoc.org/type_theories?LambdaP2" class="graphtheory">
<ellipse fill="gray" stroke="black" cx="73" cy="-18" rx="50.0684" ry="18"/>
<text text-anchor="middle" x="73" y="-14.3" font-family="Times New Roman,serif" font-size="14.00">LambdaP2</text>
</a>
</g>
<!-- http://latin.omdoc.org/type_theories?LambdaP&#45;&gt;http://latin.omdoc.org/type_theories?LambdaP2 -->
<g id="edge21" class="edge"><title>http://latin.omdoc.org/type_theories?LambdaP&#45;&gt;http://latin.omdoc.org/type_theories?LambdaP2</title>
<a class="graphinclude">
<path fill="none" stroke="black" d="M916.818,-90.6257C908.85,-86.5196 899.777,-82.4881 891,-80 748.471,-39.5967 297.312,-24.5752 133.326,-20.3658"/>
<polygon fill="black" stroke="black" points="133.032,-16.8574 122.947,-20.104 132.855,-23.8551 133.032,-16.8574"/>
</a>
</g>
<!-- http://latin.omdoc.org/type_theories?Lambda2&#45;&gt;http://latin.omdoc.org/type_theories?LambdaP2 -->
<g id="edge49" class="edge"><title>http://latin.omdoc.org/type_theories?Lambda2&#45;&gt;http://latin.omdoc.org/type_theories?LambdaP2</title>
<a xlink:href="http://latin.omdoc.org/type_theories?Lambda2ToP2" class="graphview">
<path fill="none" stroke="black" d="M73,-87.5966C73,-75.7459 73,-59.8169 73,-46.2917"/>
<polygon fill="black" stroke="black" points="76.5001,-46.084 73,-36.084 69.5001,-46.084 76.5001,-46.084"/>
</a>
<a xlink:href="http://latin.omdoc.org/type_theories?Lambda2ToP2" class="Lambda2ToP2">
<text text-anchor="middle" x="115.5" y="-58.3" font-family="Times New Roman,serif" font-size="14.00">Lambda2ToP2</text>
</a>
</g>
<!-- http://latin.omdoc.org/type_theories?LambdaOmega_&#45;&gt;http://latin.omdoc.org/type_theories?LambdaPOmega_ -->
<g id="edge47" class="edge"><title>http://latin.omdoc.org/type_theories?LambdaOmega_&#45;&gt;http://latin.omdoc.org/type_theories?LambdaPOmega_</title>
<a xlink:href="http://latin.omdoc.org/type_theories?LambdaOmega_ToPOmega_" class="graphview">
<path fill="none" stroke="black" d="M246.451,-90.8682C259.24,-86.775 273.589,-82.6899 287,-80 487.917,-39.7021 729.012,-25.9217 854.883,-21.287"/>
<polygon fill="black" stroke="black" points="855.353,-24.7725 865.222,-20.9174 855.103,-17.777 855.353,-24.7725"/>
</a>
<a xlink:href="http://latin.omdoc.org/type_theories?LambdaOmega_ToPOmega_" class="LambdaOmega_ToPOmega_">
<text text-anchor="middle" x="512" y="-58.3" font-family="Times New Roman,serif" font-size="14.00">LambdaOmega_ToPOmega_</text>
</a>
</g>
<!-- http://latin.omdoc.org/type_theories?SimpTypes -->
<g id="node13" class="node"><title>http://latin.omdoc.org/type_theories?SimpTypes</title>
<a xlink:href="http://latin.omdoc.org/type_theories?SimpTypes" class="graphtheory">
<ellipse fill="gray" stroke="black" cx="937" cy="-282" rx="52.4675" ry="18"/>
<text text-anchor="middle" x="937" y="-278.3" font-family="Times New Roman,serif" font-size="14.00">SimpTypes</text>
</a>
</g>
<!-- http://latin.omdoc.org/type_theories?SimpTypes&#45;&gt;http://latin.omdoc.org/type_theories?LambdaArrow -->
<g id="edge13" class="edge"><title>http://latin.omdoc.org/type_theories?SimpTypes&#45;&gt;http://latin.omdoc.org/type_theories?LambdaArrow</title>
<a class="graphinclude">
<path fill="none" stroke="black" d="M925.725,-264.259C922.586,-258.691 919.6,-252.299 918,-246 916.073,-238.412 916.062,-230.014 916.877,-222.26"/>
<polygon fill="black" stroke="black" points="920.36,-222.634 918.398,-212.222 913.439,-221.585 920.36,-222.634"/>
</a>
</g>
<!-- http://latin.omdoc.org/type_theories?DepTypes -->
<g id="node23" class="node"><title>http://latin.omdoc.org/type_theories?DepTypes</title>
<a xlink:href="http://latin.omdoc.org/type_theories?DepTypes" class="graphtheory">
<ellipse fill="gray" stroke="black" cx="1053" cy="-194" rx="48.6179" ry="18"/>
<text text-anchor="middle" x="1053" y="-190.3" font-family="Times New Roman,serif" font-size="14.00">DepTypes</text>
</a>
</g>
<!-- http://latin.omdoc.org/type_theories?SimpTypes&#45;&gt;http://latin.omdoc.org/type_theories?DepTypes -->
<g id="edge45" class="edge"><title>http://latin.omdoc.org/type_theories?SimpTypes&#45;&gt;http://latin.omdoc.org/type_theories?DepTypes</title>
<a xlink:href="http://latin.omdoc.org/type_theories?SimpToDep" class="graphview">
<path fill="none" stroke="black" d="M932.254,-263.888C930.324,-252.927 930.113,-239.103 938,-230 946.995,-219.618 985.869,-224.034 999,-220 1005.03,-218.149 1011.25,-215.759 1017.23,-213.193"/>
<polygon fill="black" stroke="black" points="1018.7,-216.372 1026.37,-209.068 1015.82,-209.992 1018.7,-216.372"/>
</a>
<a xlink:href="http://latin.omdoc.org/type_theories?SimpToDep" class="SimpToDep">
<text text-anchor="middle" x="973" y="-234.3" font-family="Times New Roman,serif" font-size="14.00">SimpToDep</text>
</a>
</g>
<!-- http://cds.omdoc.org/urtheories?LF -->
<g id="node15" class="node"><title>http://cds.omdoc.org/urtheories?LF</title>
<a xlink:href="http://cds.omdoc.org/urtheories?LF" class="graphtheory">
<ellipse fill="gray" stroke="black" cx="1168" cy="-356" rx="27" ry="18"/>
<text text-anchor="middle" x="1168" y="-352.3" font-family="Times New Roman,serif" font-size="14.00">LF</text>
</a>
</g>
<!-- http://cds.omdoc.org/urtheories?LF&#45;&gt;http://latin.omdoc.org/type_theories?LambdaArrow -->
<g id="edge15" class="edge"><title>http://cds.omdoc.org/urtheories?LF&#45;&gt;http://latin.omdoc.org/type_theories?LambdaArrow</title>
<a class="graphmeta">
<path fill="none" stroke="black" d="M1140.82,-354.143C1074.75,-351.43 908.71,-340.627 875,-300 854.85,-275.715 877.638,-241.588 898.172,-218.909"/>
<polygon fill="black" stroke="black" points="900.944,-221.072 905.268,-211.399 895.856,-216.264 900.944,-221.072"/>
</a>
</g>
<!-- http://cds.omdoc.org/urtheories?LF&#45;&gt;http://latin.omdoc.org/type_theories?LambdaP -->
<g id="edge27" class="edge"><title>http://cds.omdoc.org/urtheories?LF&#45;&gt;http://latin.omdoc.org/type_theories?LambdaP</title>
<a class="graphmeta">
<path fill="none" stroke="black" d="M1169.06,-337.954C1170.65,-295.139 1167.87,-183.544 1100,-142 1068.89,-122.959 1028.75,-114.221 996.581,-110.237"/>
<polygon fill="black" stroke="black" points="996.766,-106.736 986.439,-109.104 995.988,-113.693 996.766,-106.736"/>
</a>
</g>
<!-- http://cds.omdoc.org/urtheories?LF&#45;&gt;http://latin.omdoc.org/type_theories?Lambda2 -->
<g id="edge37" class="edge"><title>http://cds.omdoc.org/urtheories?LF&#45;&gt;http://latin.omdoc.org/type_theories?Lambda2</title>
<a class="graphmeta">
<path fill="none" stroke="black" d="M1140.84,-355.411C1049.21,-356.239 743.565,-354.464 499,-300 399.482,-277.837 376.93,-261.941 284,-220 219.209,-190.759 146.793,-150.141 105.872,-126.407"/>
<polygon fill="black" stroke="black" points="107.548,-123.332 97.1449,-121.324 104.024,-129.381 107.548,-123.332"/>
</a>
</g>
<!-- http://cds.omdoc.org/urtheories?LF&#45;&gt;http://latin.omdoc.org/type_theories?LambdaOmega_ -->
<g id="edge33" class="edge"><title>http://cds.omdoc.org/urtheories?LF&#45;&gt;http://latin.omdoc.org/type_theories?LambdaOmega_</title>
<a class="graphmeta">
<path fill="none" stroke="black" d="M1141.31,-352.525C1093.07,-347.824 988.267,-336.572 901,-320 609.348,-264.617 507.479,-310.867 253,-158 242.09,-151.447 232.282,-141.492 224.552,-132.112"/>
<polygon fill="black" stroke="black" points="227.228,-129.852 218.32,-124.117 221.707,-134.156 227.228,-129.852"/>
</a>
</g>
<!-- http://cds.omdoc.org/urtheories?LF&#45;&gt;http://latin.omdoc.org/type_theories?SimpTypes -->
<g id="edge31" class="edge"><title>http://cds.omdoc.org/urtheories?LF&#45;&gt;http://latin.omdoc.org/type_theories?SimpTypes</title>
<a class="graphmeta">
<path fill="none" stroke="black" d="M1141.48,-351.787C1108.48,-347.239 1050.77,-337.468 1004,-320 992.135,-315.569 979.818,-309.309 969.03,-303.195"/>
<polygon fill="black" stroke="black" points="970.771,-300.159 960.371,-298.138 967.241,-306.204 970.771,-300.159"/>
</a>
</g>
<!-- http://cds.omdoc.org/urtheories?LF&#45;&gt;http://latin.omdoc.org/logics/syntax?LambdaPHOL -->
<g id="edge39" class="edge"><title>http://cds.omdoc.org/urtheories?LF&#45;&gt;http://latin.omdoc.org/logics/syntax?LambdaPHOL</title>
<a class="graphmeta">
<path fill="none" stroke="black" d="M1189.98,-345.543C1212.43,-334.231 1244,-312.989 1244,-283 1244,-283 1244,-283 1244,-105 1244,-79.9489 1237.96,-71.4692 1220,-54 1212.18,-46.3917 1202.43,-40.2951 1192.46,-35.4615"/>
<polygon fill="black" stroke="black" points="1193.85,-32.2479 1183.29,-31.3704 1191,-38.6407 1193.85,-32.2479"/>
</a>
</g>
<!-- http://cds.omdoc.org/urtheories?LF&#45;&gt;http://latin.omdoc.org/type_theories?LambdaPOmega_ -->
<g id="edge29" class="edge"><title>http://cds.omdoc.org/urtheories?LF&#45;&gt;http://latin.omdoc.org/type_theories?LambdaPOmega_</title>
<a class="graphmeta">
<path fill="none" stroke="black" d="M1181.29,-340.184C1192.25,-326.4 1206,-304.767 1206,-283 1206,-283 1206,-283 1206,-105 1206,-65.0165 1095.48,-40.8084 1017.18,-28.6759"/>
<polygon fill="black" stroke="black" points="1017.26,-25.1472 1006.85,-27.1144 1016.21,-32.0687 1017.26,-25.1472"/>
</a>
</g>
<!-- http://cds.omdoc.org/urtheories?LF&#45;&gt;http://latin.omdoc.org/type_theories?LambdaP2 -->
<g id="edge35" class="edge"><title>http://cds.omdoc.org/urtheories?LF&#45;&gt;http://latin.omdoc.org/type_theories?LambdaP2</title>
<a class="graphmeta">
<path fill="none" stroke="black" d="M1140.85,-354.789C965.478,-353.252 0,-342.108 0,-283 0,-283 0,-283 0,-105 0,-78.0962 21.0212,-55.3019 40.5028,-39.954"/>
<polygon fill="black" stroke="black" points="42.7715,-42.6281 48.6921,-33.8419 38.5846,-37.0183 42.7715,-42.6281"/>
</a>
</g>
<!-- http://cds.omdoc.org/urtheories?LF&#45;&gt;http://latin.omdoc.org/type_theories?DepTypes -->
<g id="edge43" class="edge"><title>http://cds.omdoc.org/urtheories?LF&#45;&gt;http://latin.omdoc.org/type_theories?DepTypes</title>
<a class="graphmeta">
<path fill="none" stroke="black" d="M1141.44,-352.372C1110.36,-347.717 1060.21,-334.921 1037,-300 1021.44,-276.59 1030.08,-243.828 1039.62,-221.153"/>
<polygon fill="black" stroke="black" points="1042.92,-222.367 1043.84,-211.812 1036.54,-219.485 1042.92,-222.367"/>
</a>
</g>
<!-- http://latin.omdoc.org/type_theories?DepKinds -->
<g id="node25" class="node"><title>http://latin.omdoc.org/type_theories?DepKinds</title>
<a xlink:href="http://latin.omdoc.org/type_theories?DepKinds" class="graphtheory">
<ellipse fill="gray" stroke="black" cx="1093" cy="-282" rx="47.169" ry="18"/>
<text text-anchor="middle" x="1093" y="-278.3" font-family="Times New Roman,serif" font-size="14.00">DepKinds</text>
</a>
</g>
<!-- http://cds.omdoc.org/urtheories?LF&#45;&gt;http://latin.omdoc.org/type_theories?DepKinds -->
<g id="edge41" class="edge"><title>http://cds.omdoc.org/urtheories?LF&#45;&gt;http://latin.omdoc.org/type_theories?DepKinds</title>
<a class="graphmeta">
<path fill="none" stroke="black" d="M1153.18,-340.775C1142.89,-330.891 1128.94,-317.5 1117.06,-306.098"/>
<polygon fill="black" stroke="black" points="1119.25,-303.35 1109.61,-298.95 1114.4,-308.4 1119.25,-303.35"/>
</a>
</g>
<!-- http://latin.omdoc.org/type_theories?DepTypes&#45;&gt;http://latin.omdoc.org/type_theories?LambdaP -->
<g id="edge23" class="edge"><title>http://latin.omdoc.org/type_theories?DepTypes&#45;&gt;http://latin.omdoc.org/type_theories?LambdaP</title>
<a class="graphinclude">
<path fill="none" stroke="black" d="M1043.08,-176.19C1036.03,-165.357 1025.76,-151.561 1014,-142 1004.81,-134.526 993.75,-128.179 983.056,-123.027"/>
<polygon fill="black" stroke="black" points="984.359,-119.775 973.808,-118.809 981.454,-126.144 984.359,-119.775"/>
</a>
</g>
<!-- http://latin.omdoc.org/type_theories?DepKinds&#45;&gt;http://latin.omdoc.org/type_theories?LambdaP -->
<g id="edge25" class="edge"><title>http://latin.omdoc.org/type_theories?DepKinds&#45;&gt;http://latin.omdoc.org/type_theories?LambdaP</title>
<a class="graphinclude">
<path fill="none" stroke="black" d="M1102.27,-264.288C1113.09,-242.283 1127.44,-203.206 1110,-176 1085.3,-137.466 1034.68,-120.45 995.246,-112.937"/>
<polygon fill="black" stroke="black" points="995.681,-109.46 985.227,-111.183 994.474,-116.355 995.681,-109.46"/>
</a>
</g>
</g>
</svg>
