<?xml version="1.0" encoding="UTF-8" standalone="no"?>
<!DOCTYPE svg PUBLIC "-//W3C//DTD SVG 1.1//EN"
 "http://www.w3.org/Graphics/SVG/1.1/DTD/svg11.dtd">
<!-- Generated by graphviz version 2.28.0 (20110507.0327)
 -->
<!-- Title: MMT Pages: 1 -->
<svg width="438pt" height="294pt"
 viewBox="0.00 0.00 438.33 294.00" xmlns="http://www.w3.org/2000/svg" xmlns:xlink="http://www.w3.org/1999/xlink">
<g id="graph1" class="graph" transform="scale(1 1) rotate(0) translate(4 290)">
<title>MMT</title>
<polygon fill="white" stroke="white" points="-4,5 -4,-290 435.331,-290 435.331,5 -4,5"/>
<g id="graph2" class="cluster"><title>cluster_local</title>
<polygon fill="none" stroke="black" points="137,-80 137,-132 285,-132 285,-80 137,-80"/>
</g>
<!-- http://latin.omdoc.org/type_theories?LambdaOmega -->
<g id="node2" class="node"><title>http://latin.omdoc.org/type_theories?LambdaOmega</title>
<a xlink:href="http://latin.omdoc.org/type_theories?LambdaOmega" class="graphtheory">
<ellipse fill="none" stroke="black" cx="211" cy="-106" rx="65.9423" ry="18"/>
<text text-anchor="middle" x="211" y="-102.3" font-family="Times New Roman,serif" font-size="14.00">LambdaOmega</text>
</a>
</g>
<!-- http://latin.omdoc.org/type_theories?LambdaPOmega -->
<g id="node3" class="node"><title>http://latin.omdoc.org/type_theories?LambdaPOmega</title>
<a xlink:href="http://latin.omdoc.org/type_theories?LambdaPOmega" class="graphtheory">
<ellipse fill="gray" stroke="black" cx="71" cy="-18" rx="71.2405" ry="18"/>
<text text-anchor="middle" x="71" y="-14.3" font-family="Times New Roman,serif" font-size="14.00">LambdaPOmega</text>
</a>
</g>
<!-- http://latin.omdoc.org/type_theories?LambdaOmega&#45;&gt;http://latin.omdoc.org/type_theories?LambdaPOmega -->
<g id="edge3" class="edge"><title>http://latin.omdoc.org/type_theories?LambdaOmega&#45;&gt;http://latin.omdoc.org/type_theories?LambdaPOmega</title>
<a xlink:href="http://latin.omdoc.org/type_theories?LambdaOmegaToPOmega" class="graphview">
<path fill="none" stroke="black" d="M185.322,-89.2263C162.965,-75.4927 130.361,-55.4645 105.687,-40.3079"/>
<polygon fill="black" stroke="black" points="107.342,-37.2169 96.9895,-34.965 103.678,-43.1815 107.342,-37.2169"/>
</a>
<a xlink:href="http://latin.omdoc.org/type_theories?LambdaOmegaToPOmega" class="LambdaOmegaToPOmega">
<text text-anchor="middle" x="229.5" y="-58.3" font-family="Times New Roman,serif" font-size="14.00">LambdaOmegaToPOmega</text>
</a>
</g>
<!-- http://latin.omdoc.org/type_theories?Lambda2 -->
<g id="node5" class="node"><title>http://latin.omdoc.org/type_theories?Lambda2</title>
<a xlink:href="http://latin.omdoc.org/type_theories?Lambda2" class="graphtheory">
<ellipse fill="gray" stroke="black" cx="87" cy="-194" rx="44.271" ry="18"/>
<text text-anchor="middle" x="87" y="-190.3" font-family="Times New Roman,serif" font-size="14.00">Lambda2</text>
</a>
</g>
<!-- http://latin.omdoc.org/type_theories?Lambda2&#45;&gt;http://latin.omdoc.org/type_theories?LambdaOmega -->
<g id="edge5" class="edge"><title>http://latin.omdoc.org/type_theories?Lambda2&#45;&gt;http://latin.omdoc.org/type_theories?LambdaOmega</title>
<a xlink:href="http://latin.omdoc.org/type_theories?Lambda2ToOmega" class="graphview">
<path fill="none" stroke="black" d="M83.9258,-175.812C82.994,-164.819 83.8988,-150.987 92,-142 106.882,-125.491 119.592,-137.975 141,-132 148.865,-129.805 157.118,-127.168 165.087,-124.441"/>
<polygon fill="black" stroke="black" points="166.345,-127.709 174.622,-121.094 164.027,-121.104 166.345,-127.709"/>
</a>
<a xlink:href="http://latin.omdoc.org/type_theories?Lambda2ToOmega" class="Lambda2ToOmega">
<text text-anchor="middle" x="146.5" y="-146.3" font-family="Times New Roman,serif" font-size="14.00">Lambda2ToOmega</text>
</a>
</g>
<!-- http://latin.omdoc.org/type_theories?PolyTypes -->
<g id="node7" class="node"><title>http://latin.omdoc.org/type_theories?PolyTypes</title>
<a xlink:href="http://latin.omdoc.org/type_theories?PolyTypes" class="graphtheory">
<ellipse fill="gray" stroke="black" cx="200" cy="-194" rx="50.0684" ry="18"/>
<text text-anchor="middle" x="200" y="-190.3" font-family="Times New Roman,serif" font-size="14.00">PolyTypes</text>
</a>
</g>
<!-- http://latin.omdoc.org/type_theories?PolyTypes&#45;&gt;http://latin.omdoc.org/type_theories?LambdaOmega -->
<g id="edge7" class="edge"><title>http://latin.omdoc.org/type_theories?PolyTypes&#45;&gt;http://latin.omdoc.org/type_theories?LambdaOmega</title>
<a class="graphinclude">
<path fill="none" stroke="black" d="M202.173,-176.009C203.685,-164.19 205.734,-148.171 207.477,-134.542"/>
<polygon fill="black" stroke="black" points="210.997,-134.613 208.794,-124.25 204.053,-133.725 210.997,-134.613"/>
</a>
</g>
<!-- http://latin.omdoc.org/type_theories?LambdaOmega_ -->
<g id="node9" class="node"><title>http://latin.omdoc.org/type_theories?LambdaOmega_</title>
<a xlink:href="http://latin.omdoc.org/type_theories?LambdaOmega_" class="graphtheory">
<ellipse fill="gray" stroke="black" cx="340" cy="-194" rx="71.2405" ry="18"/>
<text text-anchor="middle" x="340" y="-190.3" font-family="Times New Roman,serif" font-size="14.00">LambdaOmega_</text>
</a>
</g>
<!-- http://latin.omdoc.org/type_theories?LambdaOmega_&#45;&gt;http://latin.omdoc.org/type_theories?LambdaOmega -->
<g id="edge9" class="edge"><title>http://latin.omdoc.org/type_theories?LambdaOmega_&#45;&gt;http://latin.omdoc.org/type_theories?LambdaOmega</title>
<a class="graphinclude">
<path fill="none" stroke="black" d="M316.038,-177.026C295.583,-163.389 265.981,-143.654 243.411,-128.608"/>
<polygon fill="black" stroke="black" points="245.095,-125.524 234.833,-122.889 241.212,-131.348 245.095,-125.524"/>
</a>
</g>
<!-- http://cds.omdoc.org/urtheories?LF -->
<g id="node11" class="node"><title>http://cds.omdoc.org/urtheories?LF</title>
<a xlink:href="http://cds.omdoc.org/urtheories?LF" class="graphtheory">
<ellipse fill="gray" stroke="black" cx="200" cy="-268" rx="27" ry="18"/>
<text text-anchor="middle" x="200" y="-264.3" font-family="Times New Roman,serif" font-size="14.00">LF</text>
</a>
</g>
<!-- http://cds.omdoc.org/urtheories?LF&#45;&gt;http://latin.omdoc.org/type_theories?LambdaOmega -->
<g id="edge11" class="edge"><title>http://cds.omdoc.org/urtheories?LF&#45;&gt;http://latin.omdoc.org/type_theories?LambdaOmega</title>
<a class="graphmeta">
<path fill="none" stroke="black" d="M226.677,-264.364C279.91,-258.495 396.256,-242.411 420,-212 462.57,-157.477 355.939,-129.023 279.824,-116.086"/>
<polygon fill="black" stroke="black" points="280.207,-112.602 269.772,-114.436 279.073,-119.51 280.207,-112.602"/>
</a>
</g>
<!-- http://cds.omdoc.org/urtheories?LF&#45;&gt;http://latin.omdoc.org/type_theories?LambdaPOmega -->
<g id="edge19" class="edge"><title>http://cds.omdoc.org/urtheories?LF&#45;&gt;http://latin.omdoc.org/type_theories?LambdaPOmega</title>
<a class="graphmeta">
<path fill="none" stroke="black" d="M172.778,-267.094C134.299,-265.572 65.1175,-256.392 33,-212 -3.69355,-161.283 31.6433,-84.2442 54.6711,-44.581"/>
<polygon fill="black" stroke="black" points="57.797,-46.1734 59.9287,-35.7953 51.7903,-42.5789 57.797,-46.1734"/>
</a>
</g>
<!-- http://cds.omdoc.org/urtheories?LF&#45;&gt;http://latin.omdoc.org/type_theories?Lambda2 -->
<g id="edge17" class="edge"><title>http://cds.omdoc.org/urtheories?LF&#45;&gt;http://latin.omdoc.org/type_theories?Lambda2</title>
<a class="graphmeta">
<path fill="none" stroke="black" d="M181.086,-254.949C164.011,-244.069 138.552,-227.847 118.422,-215.021"/>
<polygon fill="black" stroke="black" points="120.194,-212 109.88,-209.578 116.433,-217.904 120.194,-212"/>
</a>
</g>
<!-- http://cds.omdoc.org/urtheories?LF&#45;&gt;http://latin.omdoc.org/type_theories?PolyTypes -->
<g id="edge13" class="edge"><title>http://cds.omdoc.org/urtheories?LF&#45;&gt;http://latin.omdoc.org/type_theories?PolyTypes</title>
<a class="graphmeta">
<path fill="none" stroke="black" d="M200,-249.937C200,-241.807 200,-231.876 200,-222.705"/>
<polygon fill="black" stroke="black" points="203.5,-222.441 200,-212.441 196.5,-222.441 203.5,-222.441"/>
</a>
</g>
<!-- http://cds.omdoc.org/urtheories?LF&#45;&gt;http://latin.omdoc.org/type_theories?LambdaOmega_ -->
<g id="edge15" class="edge"><title>http://cds.omdoc.org/urtheories?LF&#45;&gt;http://latin.omdoc.org/type_theories?LambdaOmega_</title>
<a class="graphmeta">
<path fill="none" stroke="black" d="M220.657,-256.376C241.658,-245.576 274.712,-228.577 300.714,-215.204"/>
<polygon fill="black" stroke="black" points="302.647,-218.146 309.94,-210.46 299.446,-211.921 302.647,-218.146"/>
</a>
</g>
</g>
</svg>
