<?xml version="1.0" encoding="UTF-8" standalone="no"?>
<!DOCTYPE svg PUBLIC "-//W3C//DTD SVG 1.1//EN"
 "http://www.w3.org/Graphics/SVG/1.1/DTD/svg11.dtd">
<!-- Generated by graphviz version 2.28.0 (20110507.0327)
 -->
<!-- Title: MMT Pages: 1 -->
<svg width="917pt" height="382pt"
 viewBox="0.00 0.00 917.00 382.00" xmlns="http://www.w3.org/2000/svg" xmlns:xlink="http://www.w3.org/1999/xlink">
<g id="graph1" class="graph" transform="scale(1 1) rotate(0) translate(4 378)">
<title>MMT</title>
<polygon fill="white" stroke="white" points="-4,5 -4,-378 914,-378 914,5 -4,5"/>
<g id="graph2" class="cluster"><title>cluster_local</title>
<polygon fill="none" stroke="black" points="429,-80 429,-220 629,-220 629,-80 429,-80"/>
</g>
<!-- http://latin.omdoc.org/type_theories?LambdaOmega_ -->
<g id="node2" class="node"><title>http://latin.omdoc.org/type_theories?LambdaOmega_</title>
<a xlink:href="http://latin.omdoc.org/type_theories?LambdaOmega_" class="graphtheory">
<ellipse fill="none" stroke="black" cx="508" cy="-194" rx="71.2405" ry="18"/>
<text text-anchor="middle" x="508" y="-190.3" font-family="Times New Roman,serif" font-size="14.00">LambdaOmega_</text>
</a>
</g>
<!-- http://latin.omdoc.org/type_theories?LambdaPOmega_ -->
<g id="node3" class="node"><title>http://latin.omdoc.org/type_theories?LambdaPOmega_</title>
<a xlink:href="http://latin.omdoc.org/type_theories?LambdaPOmega_" class="graphtheory">
<ellipse fill="none" stroke="black" cx="544" cy="-106" rx="76.5394" ry="18"/>
<text text-anchor="middle" x="544" y="-102.3" font-family="Times New Roman,serif" font-size="14.00">LambdaPOmega_</text>
</a>
</g>
<!-- http://latin.omdoc.org/type_theories?LambdaOmega_&#45;&gt;http://latin.omdoc.org/type_theories?LambdaPOmega_ -->
<g id="edge3" class="edge"><title>http://latin.omdoc.org/type_theories?LambdaOmega_&#45;&gt;http://latin.omdoc.org/type_theories?LambdaPOmega_</title>
<a xlink:href="http://latin.omdoc.org/type_theories?LambdaOmega_ToPOmega_" class="graphview">
<path fill="none" stroke="black" d="M515.112,-176.009C520.191,-163.877 527.122,-147.32 532.922,-133.465"/>
<polygon fill="black" stroke="black" points="536.269,-134.531 536.902,-123.956 529.812,-131.828 536.269,-134.531"/>
</a>
<a xlink:href="http://latin.omdoc.org/type_theories?LambdaOmega_ToPOmega_" class="LambdaOmega_ToPOmega_">
<text text-anchor="middle" x="612" y="-146.3" font-family="Times New Roman,serif" font-size="14.00">LambdaOmega_ToPOmega_</text>
</a>
</g>
<!-- http://latin.omdoc.org/type_theories?LambdaOmegaToPOmega -->
<g id="node5" class="node"><title>http://latin.omdoc.org/type_theories?LambdaOmegaToPOmega</title>
<a xlink:href="http://latin.omdoc.org/type_theories?LambdaOmegaToPOmega" class="graphtheory">
<ellipse fill="gray" stroke="black" cx="259" cy="-106" rx="108.31" ry="18"/>
<text text-anchor="middle" x="259" y="-102.3" font-family="Times New Roman,serif" font-size="14.00">LambdaOmegaToPOmega</text>
</a>
</g>
<!-- http://latin.omdoc.org/type_theories?LambdaOmega_&#45;&gt;http://latin.omdoc.org/type_theories?LambdaOmegaToPOmega -->
<g id="edge5" class="edge"><title>http://latin.omdoc.org/type_theories?LambdaOmega_&#45;&gt;http://latin.omdoc.org/type_theories?LambdaOmegaToPOmega</title>
<a xlink:href="http://latin.omdoc.org/type_theories?LambdaOmegaToPOmega?[http://latin.omdoc.org/type_theories?LambdaOmega_]" class="graphstructure">
<path fill="none" stroke="black" d="M458.975,-180.821C450.359,-178.986 441.448,-177.283 433,-176 407.766,-172.169 221.326,-176.741 204,-158 194.646,-147.882 202.422,-137.414 214.766,-128.615"/>
<polygon fill="black" stroke="black" points="216.862,-131.429 223.403,-123.094 213.092,-125.531 216.862,-131.429"/>
</a>
<a xlink:href="http://latin.omdoc.org/type_theories?LambdaOmegaToPOmega?[http://latin.omdoc.org/type_theories?LambdaOmega_]" class="[http://latin.omdoc.org/type_theories?LambdaOmega_]">
<text text-anchor="middle" x="358" y="-146.3" font-family="Times New Roman,serif" font-size="14.00">[http://latin.omdoc.org/type_theories?LambdaOmega_]</text>
</a>
</g>
<!-- http://latin.omdoc.org/type_theories?LambdaOmega -->
<g id="node7" class="node"><title>http://latin.omdoc.org/type_theories?LambdaOmega</title>
<a xlink:href="http://latin.omdoc.org/type_theories?LambdaOmega" class="graphtheory">
<ellipse fill="gray" stroke="black" cx="66" cy="-106" rx="65.9423" ry="18"/>
<text text-anchor="middle" x="66" y="-102.3" font-family="Times New Roman,serif" font-size="14.00">LambdaOmega</text>
</a>
</g>
<!-- http://latin.omdoc.org/type_theories?LambdaOmega_&#45;&gt;http://latin.omdoc.org/type_theories?LambdaOmega -->
<g id="edge7" class="edge"><title>http://latin.omdoc.org/type_theories?LambdaOmega_&#45;&gt;http://latin.omdoc.org/type_theories?LambdaOmega</title>
<a class="graphinclude">
<path fill="none" stroke="black" d="M458.977,-180.802C450.362,-178.97 441.45,-177.271 433,-176 328.539,-160.282 298.978,-181.551 196,-158 164.775,-150.859 131.154,-137.505 105.927,-126.252"/>
<polygon fill="black" stroke="black" points="107.244,-123.007 96.6917,-122.06 104.351,-129.381 107.244,-123.007"/>
</a>
</g>
<!-- http://latin.omdoc.org/type_theories?LambdaPOmega -->
<g id="node15" class="node"><title>http://latin.omdoc.org/type_theories?LambdaPOmega</title>
<a xlink:href="http://latin.omdoc.org/type_theories?LambdaPOmega" class="graphtheory">
<ellipse fill="gray" stroke="black" cx="544" cy="-18" rx="71.2405" ry="18"/>
<text text-anchor="middle" x="544" y="-14.3" font-family="Times New Roman,serif" font-size="14.00">LambdaPOmega</text>
</a>
</g>
<!-- http://latin.omdoc.org/type_theories?LambdaPOmega_&#45;&gt;http://latin.omdoc.org/type_theories?LambdaPOmega -->
<g id="edge15" class="edge"><title>http://latin.omdoc.org/type_theories?LambdaPOmega_&#45;&gt;http://latin.omdoc.org/type_theories?LambdaPOmega</title>
<a class="graphinclude">
<path fill="none" stroke="black" d="M544,-87.5966C544,-75.7459 544,-59.8169 544,-46.2917"/>
<polygon fill="black" stroke="black" points="547.5,-46.084 544,-36.084 540.5,-46.084 547.5,-46.084"/>
</a>
</g>
<!-- http://latin.omdoc.org/type_theories?LambdaOmega&#45;&gt;http://latin.omdoc.org/type_theories?LambdaPOmega -->
<g id="edge39" class="edge"><title>http://latin.omdoc.org/type_theories?LambdaOmega&#45;&gt;http://latin.omdoc.org/type_theories?LambdaPOmega</title>
<a xlink:href="http://latin.omdoc.org/type_theories?LambdaOmegaToPOmega" class="graphview">
<path fill="none" stroke="black" d="M103.403,-91.1305C115.298,-87.0997 128.589,-82.9844 141,-80 253.659,-52.909 387.078,-35.5176 468.606,-26.5012"/>
<polygon fill="black" stroke="black" points="469.215,-29.9555 478.776,-25.3902 468.455,-22.9969 469.215,-29.9555"/>
</a>
<a xlink:href="http://latin.omdoc.org/type_theories?LambdaOmegaToPOmega" class="LambdaOmegaToPOmega">
<text text-anchor="middle" x="337.5" y="-58.3" font-family="Times New Roman,serif" font-size="14.00">LambdaOmegaToPOmega</text>
</a>
</g>
<!-- http://latin.omdoc.org/type_theories?SimpKinds -->
<g id="node9" class="node"><title>http://latin.omdoc.org/type_theories?SimpKinds</title>
<a xlink:href="http://latin.omdoc.org/type_theories?SimpKinds" class="graphtheory">
<ellipse fill="gray" stroke="black" cx="712" cy="-282" rx="51.0191" ry="18"/>
<text text-anchor="middle" x="712" y="-278.3" font-family="Times New Roman,serif" font-size="14.00">SimpKinds</text>
</a>
</g>
<!-- http://latin.omdoc.org/type_theories?SimpKinds&#45;&gt;http://latin.omdoc.org/type_theories?LambdaOmega_ -->
<g id="edge9" class="edge"><title>http://latin.omdoc.org/type_theories?SimpKinds&#45;&gt;http://latin.omdoc.org/type_theories?LambdaOmega_</title>
<a class="graphinclude">
<path fill="none" stroke="black" d="M699.246,-264.353C689.337,-252.707 674.53,-237.877 658,-230 627.642,-215.534 615.764,-227.573 583,-220 574.063,-217.934 564.682,-215.244 555.696,-212.395"/>
<polygon fill="black" stroke="black" points="556.734,-209.052 546.141,-209.264 554.554,-215.704 556.734,-209.052"/>
</a>
</g>
<!-- http://latin.omdoc.org/type_theories?TypeOper -->
<g id="node17" class="node"><title>http://latin.omdoc.org/type_theories?TypeOper</title>
<a xlink:href="http://latin.omdoc.org/type_theories?TypeOper" class="graphtheory">
<ellipse fill="gray" stroke="black" cx="795" cy="-194" rx="48.1437" ry="18"/>
<text text-anchor="middle" x="795" y="-190.3" font-family="Times New Roman,serif" font-size="14.00">TypeOper</text>
</a>
</g>
<!-- http://latin.omdoc.org/type_theories?SimpKinds&#45;&gt;http://latin.omdoc.org/type_theories?TypeOper -->
<g id="edge37" class="edge"><title>http://latin.omdoc.org/type_theories?SimpKinds&#45;&gt;http://latin.omdoc.org/type_theories?TypeOper</title>
<a xlink:href="http://latin.omdoc.org/type_theories?SimpToOper" class="graphview">
<path fill="none" stroke="black" d="M720.268,-264.177C725.988,-253.605 734.301,-240.106 744,-230 749.163,-224.62 755.278,-219.584 761.447,-215.1"/>
<polygon fill="black" stroke="black" points="763.554,-217.899 769.811,-209.349 759.588,-212.131 763.554,-217.899"/>
</a>
<a xlink:href="http://latin.omdoc.org/type_theories?SimpToOper" class="SimpToOper">
<text text-anchor="middle" x="781.5" y="-234.3" font-family="Times New Roman,serif" font-size="14.00">SimpToOper</text>
</a>
</g>
<!-- http://latin.omdoc.org/type_theories?LambdaArrow -->
<g id="node11" class="node"><title>http://latin.omdoc.org/type_theories?LambdaArrow</title>
<a xlink:href="http://latin.omdoc.org/type_theories?LambdaArrow" class="graphtheory">
<ellipse fill="gray" stroke="black" cx="579" cy="-282" rx="63.5411" ry="18"/>
<text text-anchor="middle" x="579" y="-278.3" font-family="Times New Roman,serif" font-size="14.00">LambdaArrow</text>
</a>
</g>
<!-- http://latin.omdoc.org/type_theories?LambdaArrow&#45;&gt;http://latin.omdoc.org/type_theories?LambdaOmega_ -->
<g id="edge11" class="edge"><title>http://latin.omdoc.org/type_theories?LambdaArrow&#45;&gt;http://latin.omdoc.org/type_theories?LambdaOmega_</title>
<a class="graphinclude">
<path fill="none" stroke="black" d="M550.594,-265.834C542.462,-260.43 534.147,-253.734 528,-246 522.447,-239.013 518.277,-230.295 515.224,-222.054"/>
<polygon fill="black" stroke="black" points="518.491,-220.787 512.034,-212.387 511.844,-222.981 518.491,-220.787"/>
</a>
</g>
<!-- http://latin.omdoc.org/type_theories?LambdaP -->
<g id="node19" class="node"><title>http://latin.omdoc.org/type_theories?LambdaP</title>
<a xlink:href="http://latin.omdoc.org/type_theories?LambdaP" class="graphtheory">
<ellipse fill="gray" stroke="black" cx="683" cy="-194" rx="46.2191" ry="18"/>
<text text-anchor="middle" x="683" y="-190.3" font-family="Times New Roman,serif" font-size="14.00">LambdaP</text>
</a>
</g>
<!-- http://latin.omdoc.org/type_theories?LambdaArrow&#45;&gt;http://latin.omdoc.org/type_theories?LambdaP -->
<g id="edge35" class="edge"><title>http://latin.omdoc.org/type_theories?LambdaArrow&#45;&gt;http://latin.omdoc.org/type_theories?LambdaP</title>
<a xlink:href="http://latin.omdoc.org/type_theories?LambdaArrowToP" class="graphview">
<path fill="none" stroke="black" d="M590.129,-263.977C597.673,-253.325 608.36,-239.812 620,-230 627.526,-223.656 636.376,-217.905 645.026,-212.983"/>
<polygon fill="black" stroke="black" points="646.785,-216.011 653.903,-208.163 643.445,-209.859 646.785,-216.011"/>
</a>
<a xlink:href="http://latin.omdoc.org/type_theories?LambdaArrowToP" class="LambdaArrowToP">
<text text-anchor="middle" x="673.5" y="-234.3" font-family="Times New Roman,serif" font-size="14.00">LambdaArrowToP</text>
</a>
</g>
<!-- http://cds.omdoc.org/urtheories?LF -->
<g id="node13" class="node"><title>http://cds.omdoc.org/urtheories?LF</title>
<a xlink:href="http://cds.omdoc.org/urtheories?LF" class="graphtheory">
<ellipse fill="gray" stroke="black" cx="871" cy="-356" rx="27" ry="18"/>
<text text-anchor="middle" x="871" y="-352.3" font-family="Times New Roman,serif" font-size="14.00">LF</text>
</a>
</g>
<!-- http://cds.omdoc.org/urtheories?LF&#45;&gt;http://latin.omdoc.org/type_theories?LambdaOmega_ -->
<g id="edge13" class="edge"><title>http://cds.omdoc.org/urtheories?LF&#45;&gt;http://latin.omdoc.org/type_theories?LambdaOmega_</title>
<a class="graphmeta">
<path fill="none" stroke="black" d="M843.857,-355.251C766.869,-355.328 549.84,-350.941 506,-300 487.766,-278.813 492.089,-245.344 498.491,-221.903"/>
<polygon fill="black" stroke="black" points="501.873,-222.812 501.404,-212.227 495.17,-220.794 501.873,-222.812"/>
</a>
</g>
<!-- http://cds.omdoc.org/urtheories?LF&#45;&gt;http://latin.omdoc.org/type_theories?LambdaPOmega_ -->
<g id="edge21" class="edge"><title>http://cds.omdoc.org/urtheories?LF&#45;&gt;http://latin.omdoc.org/type_theories?LambdaPOmega_</title>
<a class="graphmeta">
<path fill="none" stroke="black" d="M875,-337.933C882.132,-302.822 892.739,-221.949 852,-176 822.324,-142.528 705.224,-123.685 624.282,-114.426"/>
<polygon fill="black" stroke="black" points="624.431,-110.921 614.105,-113.29 623.655,-117.878 624.431,-110.921"/>
</a>
</g>
<!-- http://cds.omdoc.org/urtheories?LF&#45;&gt;http://latin.omdoc.org/type_theories?LambdaOmega -->
<g id="edge31" class="edge"><title>http://cds.omdoc.org/urtheories?LF&#45;&gt;http://latin.omdoc.org/type_theories?LambdaOmega</title>
<a class="graphmeta">
<path fill="none" stroke="black" d="M843.928,-354.905C785.487,-354.121 643.539,-349.095 529,-320 347.88,-273.993 305.321,-246.992 141,-158 125.44,-149.573 109.087,-138.716 95.6371,-129.187"/>
<polygon fill="black" stroke="black" points="97.4164,-126.155 87.255,-123.156 93.3278,-131.837 97.4164,-126.155"/>
</a>
</g>
<!-- http://cds.omdoc.org/urtheories?LF&#45;&gt;http://latin.omdoc.org/type_theories?SimpKinds -->
<g id="edge25" class="edge"><title>http://cds.omdoc.org/urtheories?LF&#45;&gt;http://latin.omdoc.org/type_theories?SimpKinds</title>
<a class="graphmeta">
<path fill="none" stroke="black" d="M847.744,-346.838C829.379,-340.182 803.233,-330.238 781,-320 769.522,-314.714 757.28,-308.388 746.344,-302.474"/>
<polygon fill="black" stroke="black" points="747.961,-299.369 737.509,-297.635 744.598,-305.509 747.961,-299.369"/>
</a>
</g>
<!-- http://cds.omdoc.org/urtheories?LF&#45;&gt;http://latin.omdoc.org/type_theories?LambdaArrow -->
<g id="edge23" class="edge"><title>http://cds.omdoc.org/urtheories?LF&#45;&gt;http://latin.omdoc.org/type_theories?LambdaArrow</title>
<a class="graphmeta">
<path fill="none" stroke="black" d="M846.104,-348.861C799.63,-337.402 698.63,-312.498 635.008,-296.81"/>
<polygon fill="black" stroke="black" points="635.679,-293.371 625.132,-294.375 634.004,-300.167 635.679,-293.371"/>
</a>
</g>
<!-- http://cds.omdoc.org/urtheories?LF&#45;&gt;http://latin.omdoc.org/type_theories?LambdaPOmega -->
<g id="edge33" class="edge"><title>http://cds.omdoc.org/urtheories?LF&#45;&gt;http://latin.omdoc.org/type_theories?LambdaPOmega</title>
<a class="graphmeta">
<path fill="none" stroke="black" d="M884.291,-340.184C895.249,-326.4 909,-304.767 909,-283 909,-283 909,-283 909,-105 909,-46.9767 732.041,-28.061 624.553,-21.9233"/>
<polygon fill="black" stroke="black" points="624.551,-18.4181 614.376,-21.3683 624.17,-25.4077 624.551,-18.4181"/>
</a>
</g>
<!-- http://cds.omdoc.org/urtheories?LF&#45;&gt;http://latin.omdoc.org/type_theories?TypeOper -->
<g id="edge27" class="edge"><title>http://cds.omdoc.org/urtheories?LF&#45;&gt;http://latin.omdoc.org/type_theories?TypeOper</title>
<a class="graphmeta">
<path fill="none" stroke="black" d="M863.153,-338.48C849.967,-310.72 823.262,-254.499 807.479,-221.272"/>
<polygon fill="black" stroke="black" points="810.6,-219.685 803.148,-212.154 804.277,-222.688 810.6,-219.685"/>
</a>
</g>
<!-- http://cds.omdoc.org/urtheories?LF&#45;&gt;http://latin.omdoc.org/type_theories?LambdaP -->
<g id="edge29" class="edge"><title>http://cds.omdoc.org/urtheories?LF&#45;&gt;http://latin.omdoc.org/type_theories?LambdaP</title>
<a class="graphmeta">
<path fill="none" stroke="black" d="M856.795,-340.193C846.815,-329.451 833.439,-314.348 823,-300 801.655,-270.662 810.328,-251.359 781,-230 765.139,-218.449 756.578,-226.313 738,-220 731.939,-217.94 725.642,-215.442 719.566,-212.831"/>
<polygon fill="black" stroke="black" points="720.824,-209.56 710.265,-208.682 717.972,-215.952 720.824,-209.56"/>
</a>
</g>
<!-- http://latin.omdoc.org/type_theories?TypeOper&#45;&gt;http://latin.omdoc.org/type_theories?LambdaPOmega_ -->
<g id="edge17" class="edge"><title>http://latin.omdoc.org/type_theories?TypeOper&#45;&gt;http://latin.omdoc.org/type_theories?LambdaPOmega_</title>
<a class="graphinclude">
<path fill="none" stroke="black" d="M764.805,-179.814C739.286,-168.927 701.622,-153.459 668,-142 647.257,-134.93 624.23,-128.146 603.706,-122.463"/>
<polygon fill="black" stroke="black" points="604.421,-119.031 593.852,-119.766 602.573,-125.782 604.421,-119.031"/>
</a>
</g>
<!-- http://latin.omdoc.org/type_theories?LambdaP&#45;&gt;http://latin.omdoc.org/type_theories?LambdaPOmega_ -->
<g id="edge19" class="edge"><title>http://latin.omdoc.org/type_theories?LambdaP&#45;&gt;http://latin.omdoc.org/type_theories?LambdaPOmega_</title>
<a class="graphinclude">
<path fill="none" stroke="black" d="M674.399,-176.204C667.94,-165.096 658.136,-150.977 646,-142 634.675,-133.623 621.197,-127.147 607.809,-122.178"/>
<polygon fill="black" stroke="black" points="608.703,-118.784 598.108,-118.821 606.413,-125.399 608.703,-118.784"/>
</a>
</g>
</g>
</svg>
