<?xml version="1.0" encoding="UTF-8" standalone="no"?>
<!DOCTYPE svg PUBLIC "-//W3C//DTD SVG 1.1//EN"
 "http://www.w3.org/Graphics/SVG/1.1/DTD/svg11.dtd">
<!-- Generated by graphviz version 2.28.0 (20110507.0327)
 -->
<!-- Title: MMT Pages: 1 -->
<svg
 viewBox="0.00 0.00 749.37 280.00" xmlns="http://www.w3.org/2000/svg" xmlns:xlink="http://www.w3.org/1999/xlink">
<g id="graph1" class="graph" transform="scale(1 1) rotate(0) translate(4 276)">
<title>MMT</title>
<polygon fill="white" stroke="white" points="-4,5 -4,-276 746.371,-276 746.371,5 -4,5"/>
<g id="graph2" class="cluster"><title>cluster_local</title>
<polygon fill="none" stroke="black" points="161,-80 161,-132 319,-132 319,-80 161,-80"/>
</g>
<!-- http://latin.omdoc.org/type_theories?LambdaOmega_ -->
<g id="node2" class="node"><title>http://latin.omdoc.org/type_theories?LambdaOmega_</title>
<a xlink:href="http://latin.omdoc.org/type_theories?LambdaOmega_" class="graphtheory">
<ellipse fill="none" stroke="black" cx="240" cy="-106" rx="71.2405" ry="18"/>
<text text-anchor="middle" x="240" y="-102.3" font-family="Times New Roman,serif" font-size="14.00">LambdaOmega_</text>
</a>
</g>
<!-- http://latin.omdoc.org/type_theories?LambdaOmegaToPOmega -->
<g id="node3" class="node"><title>http://latin.omdoc.org/type_theories?LambdaOmegaToPOmega</title>
<a xlink:href="http://latin.omdoc.org/type_theories?LambdaOmegaToPOmega" class="graphtheory">
<ellipse fill="gray" stroke="black" cx="259" cy="-18" rx="108.31" ry="18"/>
<text text-anchor="middle" x="259" y="-14.3" font-family="Times New Roman,serif" font-size="14.00">LambdaOmegaToPOmega</text>
</a>
</g>
<!-- http://latin.omdoc.org/type_theories?LambdaOmega_&#45;&gt;http://latin.omdoc.org/type_theories?LambdaOmegaToPOmega -->
<g id="edge3" class="edge"><title>http://latin.omdoc.org/type_theories?LambdaOmega_&#45;&gt;http://latin.omdoc.org/type_theories?LambdaOmegaToPOmega</title>
<a xlink:href="http://latin.omdoc.org/type_theories?LambdaOmegaToPOmega?[http://latin.omdoc.org/type_theories?LambdaOmega_]" class="graphstructure">
<path fill="none" stroke="black" d="M238.419,-87.743C237.975,-77.7406 238.225,-64.9906 241,-54 241.721,-51.143 242.71,-48.2553 243.857,-45.4284"/>
<polygon fill="black" stroke="black" points="247.115,-46.7234 248.198,-36.184 240.779,-43.7478 247.115,-46.7234"/>
</a>
<a xlink:href="http://latin.omdoc.org/type_theories?LambdaOmegaToPOmega?[http://latin.omdoc.org/type_theories?LambdaOmega_]" class="[http://latin.omdoc.org/type_theories?LambdaOmega_]">
<text text-anchor="middle" x="395" y="-58.3" font-family="Times New Roman,serif" font-size="14.00">[http://latin.omdoc.org/type_theories?LambdaOmega_]</text>
</a>
</g>
<!-- http://latin.omdoc.org/type_theories?LambdaPOmega_ -->
<g id="node5" class="node"><title>http://latin.omdoc.org/type_theories?LambdaPOmega_</title>
<a xlink:href="http://latin.omdoc.org/type_theories?LambdaPOmega_" class="graphtheory">
<ellipse fill="gray" stroke="black" cx="661" cy="-18" rx="76.5394" ry="18"/>
<text text-anchor="middle" x="661" y="-14.3" font-family="Times New Roman,serif" font-size="14.00">LambdaPOmega_</text>
</a>
</g>
<!-- http://latin.omdoc.org/type_theories?LambdaOmega_&#45;&gt;http://latin.omdoc.org/type_theories?LambdaPOmega_ -->
<g id="edge5" class="edge"><title>http://latin.omdoc.org/type_theories?LambdaOmega_&#45;&gt;http://latin.omdoc.org/type_theories?LambdaPOmega_</title>
<a xlink:href="http://latin.omdoc.org/type_theories?LambdaOmega_ToPOmega_" class="graphview">
<path fill="none" stroke="black" d="M308.702,-101.149C386.034,-96.1252 506.435,-86.036 549,-70 560.653,-65.6099 561.02,-59.874 572,-54 583.899,-47.634 597.215,-41.7821 609.847,-36.7597"/>
<polygon fill="black" stroke="black" points="611.277,-39.9594 619.339,-33.0859 608.75,-33.4313 611.277,-39.9594"/>
</a>
<a xlink:href="http://latin.omdoc.org/type_theories?LambdaOmega_ToPOmega_" class="LambdaOmega_ToPOmega_">
<text text-anchor="middle" x="655" y="-58.3" font-family="Times New Roman,serif" font-size="14.00">LambdaOmega_ToPOmega_</text>
</a>
</g>
<!-- http://latin.omdoc.org/type_theories?LambdaOmega -->
<g id="node7" class="node"><title>http://latin.omdoc.org/type_theories?LambdaOmega</title>
<a xlink:href="http://latin.omdoc.org/type_theories?LambdaOmega" class="graphtheory">
<ellipse fill="gray" stroke="black" cx="66" cy="-18" rx="65.9423" ry="18"/>
<text text-anchor="middle" x="66" y="-14.3" font-family="Times New Roman,serif" font-size="14.00">LambdaOmega</text>
</a>
</g>
<!-- http://latin.omdoc.org/type_theories?LambdaOmega_&#45;&gt;http://latin.omdoc.org/type_theories?LambdaOmega -->
<g id="edge7" class="edge"><title>http://latin.omdoc.org/type_theories?LambdaOmega_&#45;&gt;http://latin.omdoc.org/type_theories?LambdaOmega</title>
<a class="graphinclude">
<path fill="none" stroke="black" d="M208.892,-89.6249C180.102,-75.395 137.149,-54.1656 105.855,-38.6987"/>
<polygon fill="black" stroke="black" points="107.062,-35.391 96.5465,-34.0977 103.961,-41.6663 107.062,-35.391"/>
</a>
</g>
<!-- http://latin.omdoc.org/type_theories?SimpKinds -->
<g id="node9" class="node"><title>http://latin.omdoc.org/type_theories?SimpKinds</title>
<a xlink:href="http://latin.omdoc.org/type_theories?SimpKinds" class="graphtheory">
<ellipse fill="gray" stroke="black" cx="240" cy="-180" rx="51.0191" ry="18"/>
<text text-anchor="middle" x="240" y="-176.3" font-family="Times New Roman,serif" font-size="14.00">SimpKinds</text>
</a>
</g>
<!-- http://latin.omdoc.org/type_theories?SimpKinds&#45;&gt;http://latin.omdoc.org/type_theories?LambdaOmega_ -->
<g id="edge9" class="edge"><title>http://latin.omdoc.org/type_theories?SimpKinds&#45;&gt;http://latin.omdoc.org/type_theories?LambdaOmega_</title>
<a class="graphinclude">
<path fill="none" stroke="black" d="M240,-161.937C240,-153.807 240,-143.876 240,-134.705"/>
<polygon fill="black" stroke="black" points="243.5,-134.441 240,-124.441 236.5,-134.441 243.5,-134.441"/>
</a>
</g>
<!-- http://latin.omdoc.org/type_theories?LambdaArrow -->
<g id="node11" class="node"><title>http://latin.omdoc.org/type_theories?LambdaArrow</title>
<a xlink:href="http://latin.omdoc.org/type_theories?LambdaArrow" class="graphtheory">
<ellipse fill="gray" stroke="black" cx="373" cy="-180" rx="63.5411" ry="18"/>
<text text-anchor="middle" x="373" y="-176.3" font-family="Times New Roman,serif" font-size="14.00">LambdaArrow</text>
</a>
</g>
<!-- http://latin.omdoc.org/type_theories?LambdaArrow&#45;&gt;http://latin.omdoc.org/type_theories?LambdaOmega_ -->
<g id="edge11" class="edge"><title>http://latin.omdoc.org/type_theories?LambdaArrow&#45;&gt;http://latin.omdoc.org/type_theories?LambdaOmega_</title>
<a class="graphinclude">
<path fill="none" stroke="black" d="M344.794,-163.731C325.178,-153.112 298.819,-138.842 277.445,-127.271"/>
<polygon fill="black" stroke="black" points="279.084,-124.178 268.624,-122.496 275.752,-130.334 279.084,-124.178"/>
</a>
</g>
<!-- http://cds.omdoc.org/urtheories?LF -->
<g id="node13" class="node"><title>http://cds.omdoc.org/urtheories?LF</title>
<a xlink:href="http://cds.omdoc.org/urtheories?LF" class="graphtheory">
<ellipse fill="gray" stroke="black" cx="240" cy="-254" rx="27" ry="18"/>
<text text-anchor="middle" x="240" y="-250.3" font-family="Times New Roman,serif" font-size="14.00">LF</text>
</a>
</g>
<!-- http://cds.omdoc.org/urtheories?LF&#45;&gt;http://latin.omdoc.org/type_theories?LambdaOmega_ -->
<g id="edge13" class="edge"><title>http://cds.omdoc.org/urtheories?LF&#45;&gt;http://latin.omdoc.org/type_theories?LambdaOmega_</title>
<a class="graphmeta">
<path fill="none" stroke="black" d="M220.301,-241.325C206.154,-231.7 188.194,-216.626 180,-198 173.557,-183.354 173.557,-176.646 180,-162 185.622,-149.219 195.844,-138.11 206.276,-129.287"/>
<polygon fill="black" stroke="black" points="208.554,-131.947 214.222,-122.996 204.209,-126.459 208.554,-131.947"/>
</a>
</g>
<!-- http://cds.omdoc.org/urtheories?LF&#45;&gt;http://latin.omdoc.org/type_theories?LambdaPOmega_ -->
<g id="edge15" class="edge"><title>http://cds.omdoc.org/urtheories?LF&#45;&gt;http://latin.omdoc.org/type_theories?LambdaPOmega_</title>
<a class="graphmeta">
<path fill="none" stroke="black" d="M267.099,-253.158C354.585,-252 630.064,-234.94 738,-70 747.421,-55.6041 735.418,-44.3166 718.295,-36.0607"/>
<polygon fill="black" stroke="black" points="719.528,-32.7806 708.961,-32.0193 716.747,-39.2044 719.528,-32.7806"/>
</a>
</g>
<!-- http://cds.omdoc.org/urtheories?LF&#45;&gt;http://latin.omdoc.org/type_theories?LambdaOmega -->
<g id="edge21" class="edge"><title>http://cds.omdoc.org/urtheories?LF&#45;&gt;http://latin.omdoc.org/type_theories?LambdaOmega</title>
<a class="graphmeta">
<path fill="none" stroke="black" d="M220.201,-241.663C210.034,-235.364 197.766,-226.994 188,-218 133.197,-167.532 94.1886,-86.9225 76.5521,-45.4895"/>
<polygon fill="black" stroke="black" points="79.7073,-43.9618 72.6287,-36.0787 73.2463,-46.6555 79.7073,-43.9618"/>
</a>
</g>
<!-- http://cds.omdoc.org/urtheories?LF&#45;&gt;http://latin.omdoc.org/type_theories?SimpKinds -->
<g id="edge19" class="edge"><title>http://cds.omdoc.org/urtheories?LF&#45;&gt;http://latin.omdoc.org/type_theories?SimpKinds</title>
<a class="graphmeta">
<path fill="none" stroke="black" d="M240,-235.937C240,-227.807 240,-217.876 240,-208.705"/>
<polygon fill="black" stroke="black" points="243.5,-208.441 240,-198.441 236.5,-208.441 243.5,-208.441"/>
</a>
</g>
<!-- http://cds.omdoc.org/urtheories?LF&#45;&gt;http://latin.omdoc.org/type_theories?LambdaArrow -->
<g id="edge17" class="edge"><title>http://cds.omdoc.org/urtheories?LF&#45;&gt;http://latin.omdoc.org/type_theories?LambdaArrow</title>
<a class="graphmeta">
<path fill="none" stroke="black" d="M260.49,-241.908C280.519,-231.065 311.472,-214.308 335.846,-201.114"/>
<polygon fill="black" stroke="black" points="337.701,-204.089 344.828,-196.251 334.368,-197.934 337.701,-204.089"/>
</a>
</g>
</g>
</svg>
