<?xml version="1.0" encoding="UTF-8" standalone="no"?>
<!DOCTYPE svg PUBLIC "-//W3C//DTD SVG 1.1//EN"
 "http://www.w3.org/Graphics/SVG/1.1/DTD/svg11.dtd">
<!-- Generated by graphviz version 2.28.0 (20110507.0327)
 -->
<!-- Title: MMT Pages: 1 -->
<svg
 viewBox="0.00 0.00 528.00 382.00" xmlns="http://www.w3.org/2000/svg" xmlns:xlink="http://www.w3.org/1999/xlink">
<g id="graph1" class="graph" transform="scale(1 1) rotate(0) translate(4 378)">
<title>MMT</title>
<polygon fill="white" stroke="white" points="-4,5 -4,-378 525,-378 525,5 -4,5"/>
<g id="graph2" class="cluster"><title>cluster_local</title>
<polygon fill="none" stroke="black" points="156,-80 156,-220 304,-220 304,-80 156,-80"/>
</g>
<!-- http://latin.omdoc.org/type_theories?Lambda2 -->
<g id="node2" class="node"><title>http://latin.omdoc.org/type_theories?Lambda2</title>
<a xlink:href="http://latin.omdoc.org/type_theories?Lambda2" class="graphtheory">
<ellipse fill="none" stroke="black" cx="209" cy="-194" rx="44.271" ry="18"/>
<text text-anchor="middle" x="209" y="-190.3" font-family="Times New Roman,serif" font-size="14.00">Lambda2</text>
</a>
</g>
<!-- http://latin.omdoc.org/type_theories?LambdaOmega -->
<g id="node3" class="node"><title>http://latin.omdoc.org/type_theories?LambdaOmega</title>
<a xlink:href="http://latin.omdoc.org/type_theories?LambdaOmega" class="graphtheory">
<ellipse fill="none" stroke="black" cx="230" cy="-106" rx="65.9423" ry="18"/>
<text text-anchor="middle" x="230" y="-102.3" font-family="Times New Roman,serif" font-size="14.00">LambdaOmega</text>
</a>
</g>
<!-- http://latin.omdoc.org/type_theories?Lambda2&#45;&gt;http://latin.omdoc.org/type_theories?LambdaOmega -->
<g id="edge3" class="edge"><title>http://latin.omdoc.org/type_theories?Lambda2&#45;&gt;http://latin.omdoc.org/type_theories?LambdaOmega</title>
<a xlink:href="http://latin.omdoc.org/type_theories?Lambda2ToOmega" class="graphview">
<path fill="none" stroke="black" d="M213.149,-176.009C216.064,-164.073 220.024,-147.853 223.373,-134.138"/>
<polygon fill="black" stroke="black" points="226.816,-134.795 225.788,-124.25 220.015,-133.134 226.816,-134.795"/>
</a>
<a xlink:href="http://latin.omdoc.org/type_theories?Lambda2ToOmega" class="Lambda2ToOmega">
<text text-anchor="middle" x="276.5" y="-146.3" font-family="Times New Roman,serif" font-size="14.00">Lambda2ToOmega</text>
</a>
</g>
<!-- http://latin.omdoc.org/type_theories?LambdaP2 -->
<g id="node5" class="node"><title>http://latin.omdoc.org/type_theories?LambdaP2</title>
<a xlink:href="http://latin.omdoc.org/type_theories?LambdaP2" class="graphtheory">
<ellipse fill="gray" stroke="black" cx="50" cy="-106" rx="50.0684" ry="18"/>
<text text-anchor="middle" x="50" y="-102.3" font-family="Times New Roman,serif" font-size="14.00">LambdaP2</text>
</a>
</g>
<!-- http://latin.omdoc.org/type_theories?Lambda2&#45;&gt;http://latin.omdoc.org/type_theories?LambdaP2 -->
<g id="edge5" class="edge"><title>http://latin.omdoc.org/type_theories?Lambda2&#45;&gt;http://latin.omdoc.org/type_theories?LambdaP2</title>
<a xlink:href="http://latin.omdoc.org/type_theories?Lambda2ToP2" class="graphview">
<path fill="none" stroke="black" d="M176.784,-181.344C160.848,-175.139 141.535,-166.947 125,-158 109.096,-149.394 92.3673,-138.246 78.7549,-128.568"/>
<polygon fill="black" stroke="black" points="80.4558,-125.479 70.2996,-122.463 76.3577,-131.154 80.4558,-125.479"/>
</a>
<a xlink:href="http://latin.omdoc.org/type_theories?Lambda2ToP2" class="Lambda2ToP2">
<text text-anchor="middle" x="167.5" y="-146.3" font-family="Times New Roman,serif" font-size="14.00">Lambda2ToP2</text>
</a>
</g>
<!-- http://latin.omdoc.org/type_theories?LambdaPOmega -->
<g id="node13" class="node"><title>http://latin.omdoc.org/type_theories?LambdaPOmega</title>
<a xlink:href="http://latin.omdoc.org/type_theories?LambdaPOmega" class="graphtheory">
<ellipse fill="gray" stroke="black" cx="230" cy="-18" rx="71.2405" ry="18"/>
<text text-anchor="middle" x="230" y="-14.3" font-family="Times New Roman,serif" font-size="14.00">LambdaPOmega</text>
</a>
</g>
<!-- http://latin.omdoc.org/type_theories?LambdaOmega&#45;&gt;http://latin.omdoc.org/type_theories?LambdaPOmega -->
<g id="edge13" class="edge"><title>http://latin.omdoc.org/type_theories?LambdaOmega&#45;&gt;http://latin.omdoc.org/type_theories?LambdaPOmega</title>
<a xlink:href="http://latin.omdoc.org/type_theories?LambdaOmegaToPOmega" class="graphview">
<path fill="none" stroke="black" d="M230,-87.5966C230,-75.7459 230,-59.8169 230,-46.2917"/>
<polygon fill="black" stroke="black" points="233.5,-46.084 230,-36.084 226.5,-46.084 233.5,-46.084"/>
</a>
<a xlink:href="http://latin.omdoc.org/type_theories?LambdaOmegaToPOmega" class="LambdaOmegaToPOmega">
<text text-anchor="middle" x="305.5" y="-58.3" font-family="Times New Roman,serif" font-size="14.00">LambdaOmegaToPOmega</text>
</a>
</g>
<!-- http://latin.omdoc.org/type_theories?LambdaP2&#45;&gt;http://latin.omdoc.org/type_theories?LambdaPOmega -->
<g id="edge39" class="edge"><title>http://latin.omdoc.org/type_theories?LambdaP2&#45;&gt;http://latin.omdoc.org/type_theories?LambdaPOmega</title>
<a class="graphinclude">
<path fill="none" stroke="black" d="M78.9201,-91.1826C108.715,-76.9473 155.42,-54.6326 189.015,-38.5818"/>
<polygon fill="black" stroke="black" points="190.603,-41.7018 198.118,-34.2327 187.586,-35.3857 190.603,-41.7018"/>
</a>
</g>
<!-- http://latin.omdoc.org/type_theories?UnivTypes -->
<g id="node7" class="node"><title>http://latin.omdoc.org/type_theories?UnivTypes</title>
<a xlink:href="http://latin.omdoc.org/type_theories?UnivTypes" class="graphtheory">
<ellipse fill="gray" stroke="black" cx="182" cy="-282" rx="50.5427" ry="18"/>
<text text-anchor="middle" x="182" y="-278.3" font-family="Times New Roman,serif" font-size="14.00">UnivTypes</text>
</a>
</g>
<!-- http://latin.omdoc.org/type_theories?UnivTypes&#45;&gt;http://latin.omdoc.org/type_theories?Lambda2 -->
<g id="edge7" class="edge"><title>http://latin.omdoc.org/type_theories?UnivTypes&#45;&gt;http://latin.omdoc.org/type_theories?Lambda2</title>
<a class="graphinclude">
<path fill="none" stroke="black" d="M187.334,-264.009C191.106,-251.995 196.241,-235.641 200.564,-221.869"/>
<polygon fill="black" stroke="black" points="204.021,-222.545 203.677,-211.956 197.342,-220.448 204.021,-222.545"/>
</a>
</g>
<!-- http://latin.omdoc.org/type_theories?PolyTypes -->
<g id="node15" class="node"><title>http://latin.omdoc.org/type_theories?PolyTypes</title>
<a xlink:href="http://latin.omdoc.org/type_theories?PolyTypes" class="graphtheory">
<ellipse fill="gray" stroke="black" cx="83" cy="-194" rx="50.0684" ry="18"/>
<text text-anchor="middle" x="83" y="-190.3" font-family="Times New Roman,serif" font-size="14.00">PolyTypes</text>
</a>
</g>
<!-- http://latin.omdoc.org/type_theories?UnivTypes&#45;&gt;http://latin.omdoc.org/type_theories?PolyTypes -->
<g id="edge37" class="edge"><title>http://latin.omdoc.org/type_theories?UnivTypes&#45;&gt;http://latin.omdoc.org/type_theories?PolyTypes</title>
<a xlink:href="http://latin.omdoc.org/type_theories?UnivToPoly" class="graphview">
<path fill="none" stroke="black" d="M152.449,-267.214C141.892,-261.5 130.316,-254.265 121,-246 112.699,-238.636 105.059,-229.193 98.8405,-220.44"/>
<polygon fill="black" stroke="black" points="101.636,-218.326 93.1239,-212.018 95.8444,-222.258 101.636,-218.326"/>
</a>
<a xlink:href="http://latin.omdoc.org/type_theories?UnivToPoly" class="UnivToPoly">
<text text-anchor="middle" x="155.5" y="-234.3" font-family="Times New Roman,serif" font-size="14.00">UnivToPoly</text>
</a>
</g>
<!-- http://latin.omdoc.org/type_theories?LambdaArrow -->
<g id="node9" class="node"><title>http://latin.omdoc.org/type_theories?LambdaArrow</title>
<a xlink:href="http://latin.omdoc.org/type_theories?LambdaArrow" class="graphtheory">
<ellipse fill="gray" stroke="black" cx="314" cy="-282" rx="63.5411" ry="18"/>
<text text-anchor="middle" x="314" y="-278.3" font-family="Times New Roman,serif" font-size="14.00">LambdaArrow</text>
</a>
</g>
<!-- http://latin.omdoc.org/type_theories?LambdaArrow&#45;&gt;http://latin.omdoc.org/type_theories?Lambda2 -->
<g id="edge9" class="edge"><title>http://latin.omdoc.org/type_theories?LambdaArrow&#45;&gt;http://latin.omdoc.org/type_theories?Lambda2</title>
<a class="graphinclude">
<path fill="none" stroke="black" d="M294.25,-264.824C277.765,-251.322 254.107,-231.945 235.894,-217.027"/>
<polygon fill="black" stroke="black" points="237.908,-214.153 227.954,-210.524 233.472,-219.568 237.908,-214.153"/>
</a>
</g>
<!-- http://latin.omdoc.org/type_theories?LambdaOmega_ -->
<g id="node17" class="node"><title>http://latin.omdoc.org/type_theories?LambdaOmega_</title>
<a xlink:href="http://latin.omdoc.org/type_theories?LambdaOmega_" class="graphtheory">
<ellipse fill="gray" stroke="black" cx="383" cy="-194" rx="71.2405" ry="18"/>
<text text-anchor="middle" x="383" y="-190.3" font-family="Times New Roman,serif" font-size="14.00">LambdaOmega_</text>
</a>
</g>
<!-- http://latin.omdoc.org/type_theories?LambdaArrow&#45;&gt;http://latin.omdoc.org/type_theories?LambdaOmega_ -->
<g id="edge35" class="edge"><title>http://latin.omdoc.org/type_theories?LambdaArrow&#45;&gt;http://latin.omdoc.org/type_theories?LambdaOmega_</title>
<a class="graphinclude">
<path fill="none" stroke="black" d="M327.632,-264.009C337.744,-251.406 351.687,-234.027 363.052,-219.863"/>
<polygon fill="black" stroke="black" points="365.868,-221.946 369.396,-211.956 360.408,-217.565 365.868,-221.946"/>
</a>
</g>
<!-- http://cds.omdoc.org/urtheories?LF -->
<g id="node11" class="node"><title>http://cds.omdoc.org/urtheories?LF</title>
<a xlink:href="http://cds.omdoc.org/urtheories?LF" class="graphtheory">
<ellipse fill="gray" stroke="black" cx="482" cy="-356" rx="27" ry="18"/>
<text text-anchor="middle" x="482" y="-352.3" font-family="Times New Roman,serif" font-size="14.00">LF</text>
</a>
</g>
<!-- http://cds.omdoc.org/urtheories?LF&#45;&gt;http://latin.omdoc.org/type_theories?Lambda2 -->
<g id="edge11" class="edge"><title>http://cds.omdoc.org/urtheories?LF&#45;&gt;http://latin.omdoc.org/type_theories?Lambda2</title>
<a class="graphmeta">
<path fill="none" stroke="black" d="M469.579,-339.678C452.625,-319.68 420.393,-284.789 386,-264 334.158,-232.664 312.689,-243.837 257,-220 252.487,-218.068 247.816,-215.883 243.241,-213.63"/>
<polygon fill="black" stroke="black" points="244.563,-210.376 234.063,-208.965 241.392,-216.616 244.563,-210.376"/>
</a>
</g>
<!-- http://cds.omdoc.org/urtheories?LF&#45;&gt;http://latin.omdoc.org/type_theories?LambdaOmega -->
<g id="edge19" class="edge"><title>http://cds.omdoc.org/urtheories?LF&#45;&gt;http://latin.omdoc.org/type_theories?LambdaOmega</title>
<a class="graphmeta">
<path fill="none" stroke="black" d="M485.729,-337.94C492.26,-303.196 501.661,-223.509 463,-176 441.749,-149.885 356.42,-129.512 295.179,-117.872"/>
<polygon fill="black" stroke="black" points="295.663,-114.402 285.19,-116.01 294.38,-121.284 295.663,-114.402"/>
</a>
</g>
<!-- http://cds.omdoc.org/urtheories?LF&#45;&gt;http://latin.omdoc.org/type_theories?LambdaP2 -->
<g id="edge31" class="edge"><title>http://cds.omdoc.org/urtheories?LF&#45;&gt;http://latin.omdoc.org/type_theories?LambdaP2</title>
<a class="graphmeta">
<path fill="none" stroke="black" d="M454.969,-354.139C377.033,-351.201 153.652,-339.458 94,-300 54.5954,-273.935 40.6174,-264.226 24,-220 11.7818,-187.482 17.3101,-174.712 29,-142 30.1208,-138.864 31.5379,-135.699 33.1047,-132.623"/>
<polygon fill="black" stroke="black" points="36.2331,-134.201 38.1077,-123.773 30.1395,-130.756 36.2331,-134.201"/>
</a>
</g>
<!-- http://cds.omdoc.org/urtheories?LF&#45;&gt;http://latin.omdoc.org/type_theories?UnivTypes -->
<g id="edge25" class="edge"><title>http://cds.omdoc.org/urtheories?LF&#45;&gt;http://latin.omdoc.org/type_theories?UnivTypes</title>
<a class="graphmeta">
<path fill="none" stroke="black" d="M456.558,-349.686C412.477,-340.368 319.125,-320.153 241,-300 237.162,-299.01 233.193,-297.949 229.214,-296.858"/>
<polygon fill="black" stroke="black" points="229.94,-293.427 219.367,-294.109 228.058,-300.169 229.94,-293.427"/>
</a>
</g>
<!-- http://cds.omdoc.org/urtheories?LF&#45;&gt;http://latin.omdoc.org/type_theories?LambdaArrow -->
<g id="edge27" class="edge"><title>http://cds.omdoc.org/urtheories?LF&#45;&gt;http://latin.omdoc.org/type_theories?LambdaArrow</title>
<a class="graphmeta">
<path fill="none" stroke="black" d="M458.88,-346.533C440.59,-339.709 414.478,-329.687 392,-320 379.277,-314.517 365.572,-308.169 353.254,-302.296"/>
<polygon fill="black" stroke="black" points="354.672,-299.095 344.143,-297.92 351.642,-305.405 354.672,-299.095"/>
</a>
</g>
<!-- http://cds.omdoc.org/urtheories?LF&#45;&gt;http://latin.omdoc.org/type_theories?LambdaPOmega -->
<g id="edge33" class="edge"><title>http://cds.omdoc.org/urtheories?LF&#45;&gt;http://latin.omdoc.org/type_theories?LambdaPOmega</title>
<a class="graphmeta">
<path fill="none" stroke="black" d="M495.291,-340.184C506.249,-326.4 520,-304.767 520,-283 520,-283 520,-283 520,-105 520,-60.2316 391.364,-36.9486 305.438,-26.3899"/>
<polygon fill="black" stroke="black" points="305.788,-22.9069 295.443,-25.195 304.957,-29.8574 305.788,-22.9069"/>
</a>
</g>
<!-- http://cds.omdoc.org/urtheories?LF&#45;&gt;http://latin.omdoc.org/type_theories?PolyTypes -->
<g id="edge23" class="edge"><title>http://cds.omdoc.org/urtheories?LF&#45;&gt;http://latin.omdoc.org/type_theories?PolyTypes</title>
<a class="graphmeta">
<path fill="none" stroke="black" d="M454.965,-354.329C380.263,-351.952 173.172,-341.668 122,-300 98.619,-280.961 89.2537,-246.466 85.5033,-222.222"/>
<polygon fill="black" stroke="black" points="88.961,-221.671 84.18,-212.216 82.0214,-222.589 88.961,-221.671"/>
</a>
</g>
<!-- http://cds.omdoc.org/urtheories?LF&#45;&gt;http://latin.omdoc.org/type_theories?LambdaOmega_ -->
<g id="edge29" class="edge"><title>http://cds.omdoc.org/urtheories?LF&#45;&gt;http://latin.omdoc.org/type_theories?LambdaOmega_</title>
<a class="graphmeta">
<path fill="none" stroke="black" d="M474.699,-338.514C461.498,-309.027 433.756,-248.6 420,-230 417.128,-226.117 413.797,-222.297 410.333,-218.691"/>
<polygon fill="black" stroke="black" points="412.732,-216.141 403.143,-211.636 407.83,-221.138 412.732,-216.141"/>
</a>
</g>
<!-- http://latin.omdoc.org/type_theories?PolyTypes&#45;&gt;http://latin.omdoc.org/type_theories?LambdaOmega -->
<g id="edge15" class="edge"><title>http://latin.omdoc.org/type_theories?PolyTypes&#45;&gt;http://latin.omdoc.org/type_theories?LambdaOmega</title>
<a class="graphinclude">
<path fill="none" stroke="black" d="M66.9915,-176.568C58.5478,-165.894 51.5271,-152.134 60,-142 74.4829,-124.677 137.908,-128.666 160,-124 164.315,-123.089 168.77,-122.106 173.244,-121.088"/>
<polygon fill="black" stroke="black" points="174.071,-124.489 183.021,-118.82 172.489,-117.67 174.071,-124.489"/>
</a>
</g>
<!-- http://latin.omdoc.org/type_theories?PolyTypes&#45;&gt;http://latin.omdoc.org/type_theories?LambdaP2 -->
<g id="edge21" class="edge"><title>http://latin.omdoc.org/type_theories?PolyTypes&#45;&gt;http://latin.omdoc.org/type_theories?LambdaP2</title>
<a class="graphinclude">
<path fill="none" stroke="black" d="M54.941,-179.073C47.0327,-173.656 39.3939,-166.642 35,-158 31.0315,-150.195 32.0647,-141.17 34.9374,-132.902"/>
<polygon fill="black" stroke="black" points="38.1777,-134.227 38.9651,-123.662 31.7608,-131.43 38.1777,-134.227"/>
</a>
</g>
<!-- http://latin.omdoc.org/type_theories?LambdaOmega_&#45;&gt;http://latin.omdoc.org/type_theories?LambdaOmega -->
<g id="edge17" class="edge"><title>http://latin.omdoc.org/type_theories?LambdaOmega_&#45;&gt;http://latin.omdoc.org/type_theories?LambdaOmega</title>
<a class="graphinclude">
<path fill="none" stroke="black" d="M370.156,-176.289C360.882,-165.218 347.485,-151.11 333,-142 319.427,-133.463 303.527,-126.739 288.338,-121.564"/>
<polygon fill="black" stroke="black" points="289.082,-118.127 278.49,-118.384 286.931,-124.788 289.082,-118.127"/>
</a>
</g>
</g>
</svg>
