<?xml version="1.0" encoding="UTF-8" standalone="no"?>
<!DOCTYPE svg PUBLIC "-//W3C//DTD SVG 1.1//EN"
 "http://www.w3.org/Graphics/SVG/1.1/DTD/svg11.dtd">
<!-- Generated by graphviz version 2.28.0 (20110507.0327)
 -->
<!-- Title: MMT Pages: 1 -->
<svg width="500pt" height="280pt"
 viewBox="0.00 0.00 500.00 280.00" xmlns="http://www.w3.org/2000/svg" xmlns:xlink="http://www.w3.org/1999/xlink">
<g id="graph1" class="graph" transform="scale(1 1) rotate(0) translate(4 276)">
<title>MMT</title>
<polygon fill="white" stroke="white" points="-4,5 -4,-276 497,-276 497,5 -4,5"/>
<g id="graph2" class="cluster"><title>cluster_local</title>
<polygon fill="none" stroke="black" points="202,-66 202,-118 372,-118 372,-66 202,-66"/>
</g>
<!-- http://latin.omdoc.org/type_theories?LambdaPOmega_ -->
<g id="node2" class="node"><title>http://latin.omdoc.org/type_theories?LambdaPOmega_</title>
<a xlink:href="http://latin.omdoc.org/type_theories?LambdaPOmega_" class="graphtheory">
<ellipse fill="none" stroke="black" cx="287" cy="-92" rx="76.5394" ry="18"/>
<text text-anchor="middle" x="287" y="-88.3" font-family="Times New Roman,serif" font-size="14.00">LambdaPOmega_</text>
</a>
</g>
<!-- http://latin.omdoc.org/type_theories?LambdaPOmega -->
<g id="node5" class="node"><title>http://latin.omdoc.org/type_theories?LambdaPOmega</title>
<a xlink:href="http://latin.omdoc.org/type_theories?LambdaPOmega" class="graphtheory">
<ellipse fill="gray" stroke="black" cx="420" cy="-18" rx="71.2405" ry="18"/>
<text text-anchor="middle" x="420" y="-14.3" font-family="Times New Roman,serif" font-size="14.00">LambdaPOmega</text>
</a>
</g>
<!-- http://latin.omdoc.org/type_theories?LambdaPOmega_&#45;&gt;http://latin.omdoc.org/type_theories?LambdaPOmega -->
<g id="edge5" class="edge"><title>http://latin.omdoc.org/type_theories?LambdaPOmega_&#45;&gt;http://latin.omdoc.org/type_theories?LambdaPOmega</title>
<a class="graphinclude">
<path fill="none" stroke="black" d="M316.187,-75.1993C335.637,-64.67 361.384,-50.7322 382.37,-39.3713"/>
<polygon fill="black" stroke="black" points="384.21,-42.355 391.338,-34.5163 380.878,-36.1991 384.21,-42.355"/>
</a>
</g>
<!-- http://latin.omdoc.org/type_theories?LambdaOmega_ -->
<g id="node3" class="node"><title>http://latin.omdoc.org/type_theories?LambdaOmega_</title>
<a xlink:href="http://latin.omdoc.org/type_theories?LambdaOmega_" class="graphtheory">
<ellipse fill="gray" stroke="black" cx="71" cy="-180" rx="71.2405" ry="18"/>
<text text-anchor="middle" x="71" y="-176.3" font-family="Times New Roman,serif" font-size="14.00">LambdaOmega_</text>
</a>
</g>
<!-- http://latin.omdoc.org/type_theories?LambdaOmega_&#45;&gt;http://latin.omdoc.org/type_theories?LambdaPOmega_ -->
<g id="edge3" class="edge"><title>http://latin.omdoc.org/type_theories?LambdaOmega_&#45;&gt;http://latin.omdoc.org/type_theories?LambdaPOmega_</title>
<a xlink:href="http://latin.omdoc.org/type_theories?LambdaOmega_ToPOmega_" class="graphview">
<path fill="none" stroke="black" d="M45.6507,-163.033C32.5105,-152.802 21.0863,-139.361 31,-128 52.8012,-103.015 134.8,-95.2152 200.198,-93.0841"/>
<polygon fill="black" stroke="black" points="200.643,-96.5729 210.539,-92.789 200.443,-89.5758 200.643,-96.5729"/>
</a>
<a xlink:href="http://latin.omdoc.org/type_theories?LambdaOmega_ToPOmega_" class="LambdaOmega_ToPOmega_">
<text text-anchor="middle" x="114" y="-132.3" font-family="Times New Roman,serif" font-size="14.00">LambdaOmega_ToPOmega_</text>
</a>
</g>
<!-- http://latin.omdoc.org/type_theories?TypeOper -->
<g id="node7" class="node"><title>http://latin.omdoc.org/type_theories?TypeOper</title>
<a xlink:href="http://latin.omdoc.org/type_theories?TypeOper" class="graphtheory">
<ellipse fill="gray" stroke="black" cx="287" cy="-180" rx="48.1437" ry="18"/>
<text text-anchor="middle" x="287" y="-176.3" font-family="Times New Roman,serif" font-size="14.00">TypeOper</text>
</a>
</g>
<!-- http://latin.omdoc.org/type_theories?TypeOper&#45;&gt;http://latin.omdoc.org/type_theories?LambdaPOmega_ -->
<g id="edge7" class="edge"><title>http://latin.omdoc.org/type_theories?TypeOper&#45;&gt;http://latin.omdoc.org/type_theories?LambdaPOmega_</title>
<a class="graphinclude">
<path fill="none" stroke="black" d="M287,-161.597C287,-149.746 287,-133.817 287,-120.292"/>
<polygon fill="black" stroke="black" points="290.5,-120.084 287,-110.084 283.5,-120.084 290.5,-120.084"/>
</a>
</g>
<!-- http://latin.omdoc.org/type_theories?LambdaP -->
<g id="node9" class="node"><title>http://latin.omdoc.org/type_theories?LambdaP</title>
<a xlink:href="http://latin.omdoc.org/type_theories?LambdaP" class="graphtheory">
<ellipse fill="gray" stroke="black" cx="399" cy="-180" rx="46.2191" ry="18"/>
<text text-anchor="middle" x="399" y="-176.3" font-family="Times New Roman,serif" font-size="14.00">LambdaP</text>
</a>
</g>
<!-- http://latin.omdoc.org/type_theories?LambdaP&#45;&gt;http://latin.omdoc.org/type_theories?LambdaPOmega_ -->
<g id="edge9" class="edge"><title>http://latin.omdoc.org/type_theories?LambdaP&#45;&gt;http://latin.omdoc.org/type_theories?LambdaPOmega_</title>
<a class="graphinclude">
<path fill="none" stroke="black" d="M378.977,-163.625C361.579,-150.266 336.148,-130.739 316.434,-115.601"/>
<polygon fill="black" stroke="black" points="318.439,-112.728 308.375,-109.413 314.175,-118.28 318.439,-112.728"/>
</a>
</g>
<!-- http://cds.omdoc.org/urtheories?LF -->
<g id="node11" class="node"><title>http://cds.omdoc.org/urtheories?LF</title>
<a xlink:href="http://cds.omdoc.org/urtheories?LF" class="graphtheory">
<ellipse fill="gray" stroke="black" cx="287" cy="-254" rx="27" ry="18"/>
<text text-anchor="middle" x="287" y="-250.3" font-family="Times New Roman,serif" font-size="14.00">LF</text>
</a>
</g>
<!-- http://cds.omdoc.org/urtheories?LF&#45;&gt;http://latin.omdoc.org/type_theories?LambdaPOmega_ -->
<g id="edge11" class="edge"><title>http://cds.omdoc.org/urtheories?LF&#45;&gt;http://latin.omdoc.org/type_theories?LambdaPOmega_</title>
<a class="graphmeta">
<path fill="none" stroke="black" d="M267.98,-240.892C254.572,-231.14 237.687,-216.1 230,-198 223.745,-183.273 224.585,-177.056 230,-162 236.183,-144.806 248.713,-128.849 260.454,-116.621"/>
<polygon fill="black" stroke="black" points="262.98,-119.046 267.599,-109.511 258.042,-114.084 262.98,-119.046"/>
</a>
</g>
<!-- http://cds.omdoc.org/urtheories?LF&#45;&gt;http://latin.omdoc.org/type_theories?LambdaOmega_ -->
<g id="edge13" class="edge"><title>http://cds.omdoc.org/urtheories?LF&#45;&gt;http://latin.omdoc.org/type_theories?LambdaOmega_</title>
<a class="graphmeta">
<path fill="none" stroke="black" d="M263.473,-245.158C229.653,-233.884 166.452,-212.817 121.712,-197.904"/>
<polygon fill="black" stroke="black" points="122.774,-194.569 112.18,-194.727 120.56,-201.209 122.774,-194.569"/>
</a>
</g>
<!-- http://cds.omdoc.org/urtheories?LF&#45;&gt;http://latin.omdoc.org/type_theories?LambdaPOmega -->
<g id="edge19" class="edge"><title>http://cds.omdoc.org/urtheories?LF&#45;&gt;http://latin.omdoc.org/type_theories?LambdaPOmega</title>
<a class="graphmeta">
<path fill="none" stroke="black" d="M314.222,-253.094C352.701,-251.572 421.882,-242.392 454,-198 487.417,-151.812 456.931,-81.9396 435.956,-44.6234"/>
<polygon fill="black" stroke="black" points="438.922,-42.7612 430.873,-35.8718 432.869,-46.277 438.922,-42.7612"/>
</a>
</g>
<!-- http://cds.omdoc.org/urtheories?LF&#45;&gt;http://latin.omdoc.org/type_theories?TypeOper -->
<g id="edge15" class="edge"><title>http://cds.omdoc.org/urtheories?LF&#45;&gt;http://latin.omdoc.org/type_theories?TypeOper</title>
<a class="graphmeta">
<path fill="none" stroke="black" d="M287,-235.937C287,-227.807 287,-217.876 287,-208.705"/>
<polygon fill="black" stroke="black" points="290.5,-208.441 287,-198.441 283.5,-208.441 290.5,-208.441"/>
</a>
</g>
<!-- http://cds.omdoc.org/urtheories?LF&#45;&gt;http://latin.omdoc.org/type_theories?LambdaP -->
<g id="edge17" class="edge"><title>http://cds.omdoc.org/urtheories?LF&#45;&gt;http://latin.omdoc.org/type_theories?LambdaP</title>
<a class="graphmeta">
<path fill="none" stroke="black" d="M305.746,-240.949C322.562,-230.138 347.581,-214.055 367.472,-201.268"/>
<polygon fill="black" stroke="black" points="369.403,-204.188 375.922,-195.836 365.617,-198.299 369.403,-204.188"/>
</a>
</g>
</g>
</svg>
