<?xml version="1.0" encoding="UTF-8" standalone="no"?>
<!DOCTYPE svg PUBLIC "-//W3C//DTD SVG 1.1//EN"
 "http://www.w3.org/Graphics/SVG/1.1/DTD/svg11.dtd">
<!-- Generated by graphviz version 2.28.0 (20110507.0327)
 -->
<!-- Title: MMT Pages: 1 -->
<svg
 viewBox="0.00 0.00 141.00 206.00" xmlns="http://www.w3.org/2000/svg" xmlns:xlink="http://www.w3.org/1999/xlink">
<g id="graph1" class="graph" transform="scale(1 1) rotate(0) translate(4 202)">
<title>MMT</title>
<polygon fill="white" stroke="white" points="-4,5 -4,-202 138,-202 138,5 -4,5"/>
<g id="graph2" class="cluster"><title>cluster_local</title>
<polygon fill="none" stroke="black" points="8,-80 8,-132 88,-132 88,-80 8,-80"/>
</g>
<!-- http://latin.omdoc.org/type_theories?Level&#39; -->
<g id="node2" class="node"><title>http://latin.omdoc.org/type_theories?Level&#39;</title>
<a xlink:href="http://latin.omdoc.org/type_theories?Level&#39;" class="graphtheory">
<ellipse fill="none" stroke="black" cx="48" cy="-106" rx="32.2457" ry="18"/>
<text text-anchor="middle" x="48" y="-102.3" font-family="Times New Roman,serif" font-size="14.00">Level&#39;</text>
</a>
</g>
<!-- http://latin.omdoc.org/logics/syntax?BaseSFOL -->
<g id="node3" class="node"><title>http://latin.omdoc.org/logics/syntax?BaseSFOL</title>
<a xlink:href="http://latin.omdoc.org/logics/syntax?BaseSFOL" class="graphtheory">
<ellipse fill="gray" stroke="black" cx="82" cy="-18" rx="51.0191" ry="18"/>
<text text-anchor="middle" x="82" y="-14.3" font-family="Times New Roman,serif" font-size="14.00">BaseSFOL</text>
</a>
</g>
<!-- http://latin.omdoc.org/type_theories?Level&#39;&#45;&gt;http://latin.omdoc.org/logics/syntax?BaseSFOL -->
<g id="edge3" class="edge"><title>http://latin.omdoc.org/type_theories?Level&#39;&#45;&gt;http://latin.omdoc.org/logics/syntax?BaseSFOL</title>
<a xlink:href="http://latin.omdoc.org/logics/syntax?BaseSFOL?sorts" class="graphstructure">
<path fill="none" stroke="black" d="M53.6228,-87.8573C56.9971,-77.8931 61.4971,-65.1431 66,-54 67.164,-51.1195 68.433,-48.1307 69.7305,-45.168"/>
<polygon fill="black" stroke="black" points="72.9637,-46.5122 73.8786,-35.9569 66.581,-43.6378 72.9637,-46.5122"/>
</a>
<a xlink:href="http://latin.omdoc.org/logics/syntax?BaseSFOL?sorts" class="sorts">
<text text-anchor="middle" x="80" y="-58.3" font-family="Times New Roman,serif" font-size="14.00">sorts</text>
</a>
</g>
<!-- http://cds.omdoc.org/urtheories?LF -->
<g id="node5" class="node"><title>http://cds.omdoc.org/urtheories?LF</title>
<a xlink:href="http://cds.omdoc.org/urtheories?LF" class="graphtheory">
<ellipse fill="gray" stroke="black" cx="87" cy="-180" rx="27" ry="18"/>
<text text-anchor="middle" x="87" y="-176.3" font-family="Times New Roman,serif" font-size="14.00">LF</text>
</a>
</g>
<!-- http://cds.omdoc.org/urtheories?LF&#45;&gt;http://latin.omdoc.org/type_theories?Level&#39; -->
<g id="edge5" class="edge"><title>http://cds.omdoc.org/urtheories?LF&#45;&gt;http://latin.omdoc.org/type_theories?Level&#39;</title>
<a class="graphmeta">
<path fill="none" stroke="black" d="M78.1503,-162.662C73.3816,-153.858 67.3871,-142.792 62.0019,-132.85"/>
<polygon fill="black" stroke="black" points="64.9257,-130.899 57.0853,-123.773 58.7707,-134.233 64.9257,-130.899"/>
</a>
</g>
<!-- http://cds.omdoc.org/urtheories?LF&#45;&gt;http://latin.omdoc.org/logics/syntax?BaseSFOL -->
<g id="edge7" class="edge"><title>http://cds.omdoc.org/urtheories?LF&#45;&gt;http://latin.omdoc.org/logics/syntax?BaseSFOL</title>
<a class="graphmeta">
<path fill="none" stroke="black" d="M90.3249,-161.887C94.4917,-137.688 100.36,-92.1626 94,-54 93.5502,-51.3012 92.9179,-48.5315 92.1762,-45.7893"/>
<polygon fill="black" stroke="black" points="95.4839,-44.6403 89.1418,-36.1534 88.8071,-46.7429 95.4839,-44.6403"/>
</a>
</g>
</g>
</svg>
