<?xml version="1.0" encoding="UTF-8" standalone="no"?>
<!DOCTYPE svg PUBLIC "-//W3C//DTD SVG 1.1//EN"
 "http://www.w3.org/Graphics/SVG/1.1/DTD/svg11.dtd">
<!-- Generated by graphviz version 2.28.0 (20110507.0327)
 -->
<!-- Title: MMT Pages: 1 -->
<svg width="167pt" height="260pt"
 viewBox="0.00 0.00 167.19 260.00" xmlns="http://www.w3.org/2000/svg" xmlns:xlink="http://www.w3.org/1999/xlink">
<g id="graph1" class="graph" transform="scale(1 1) rotate(0) translate(4 256)">
<title>MMT</title>
<polygon fill="white" stroke="white" points="-4,5 -4,-256 164.188,-256 164.188,5 -4,5"/>
<g id="graph2" class="cluster"><title>cluster_local</title>
<polygon fill="none" stroke="black" points="23.1883,-64 23.1883,-116 119.188,-116 119.188,-64 23.1883,-64"/>
</g>
<!-- http://latin.omdoc.org/type_theories?Naturals -->
<g id="node2" class="node"><title>http://latin.omdoc.org/type_theories?Naturals</title>
<a xlink:href="http://latin.omdoc.org/type_theories?Naturals" class="graphtheory">
<ellipse fill="none" stroke="black" cx="71.1883" cy="-90" rx="39.9464" ry="18"/>
<text text-anchor="middle" x="71.1883" y="-86.3" font-family="Times New Roman,serif" font-size="14.00">Naturals</text>
</a>
</g>
<!-- http://latin.omdoc.org/type_theories?NatTypes -->
<g id="node3" class="node"><title>http://latin.omdoc.org/type_theories?NatTypes</title>
<a xlink:href="http://latin.omdoc.org/type_theories?NatTypes" class="graphtheory">
<ellipse fill="gray" stroke="black" cx="113.188" cy="-18" rx="46.2191" ry="18"/>
<text text-anchor="middle" x="113.188" y="-14.3" font-family="Times New Roman,serif" font-size="14.00">NatTypes</text>
</a>
</g>
<!-- http://latin.omdoc.org/type_theories?Naturals&#45;&gt;http://latin.omdoc.org/type_theories?NatTypes -->
<g id="edge3" class="edge"><title>http://latin.omdoc.org/type_theories?Naturals&#45;&gt;http://latin.omdoc.org/type_theories?NatTypes</title>
<a class="graphinclude">
<path fill="none" stroke="black" d="M81.1417,-72.411C86.0903,-64.1633 92.1829,-54.0089 97.7224,-44.7765"/>
<polygon fill="black" stroke="black" points="100.871,-46.3319 103.015,-35.9562 94.8683,-42.7304 100.871,-46.3319"/>
</a>
</g>
<!-- http://latin.omdoc.org/type_theories?TypesTerms -->
<g id="node5" class="node"><title>http://latin.omdoc.org/type_theories?TypesTerms</title>
<a xlink:href="http://latin.omdoc.org/type_theories?TypesTerms" class="graphtheory">
<ellipse fill="gray" stroke="black" cx="71.1883" cy="-162" rx="57.2927" ry="18"/>
<text text-anchor="middle" x="71.1883" y="-158.3" font-family="Times New Roman,serif" font-size="14.00">TypesTerms</text>
</a>
</g>
<!-- http://latin.omdoc.org/type_theories?TypesTerms&#45;&gt;http://latin.omdoc.org/type_theories?Naturals -->
<g id="edge5" class="edge"><title>http://latin.omdoc.org/type_theories?TypesTerms&#45;&gt;http://latin.omdoc.org/type_theories?Naturals</title>
<a class="graphinclude">
<path fill="none" stroke="black" d="M71.1883,-143.697C71.1883,-135.983 71.1883,-126.712 71.1883,-118.112"/>
<polygon fill="black" stroke="black" points="74.6884,-118.104 71.1883,-108.104 67.6884,-118.104 74.6884,-118.104"/>
</a>
</g>
<!-- http://cds.omdoc.org/urtheories?LF -->
<g id="node7" class="node"><title>http://cds.omdoc.org/urtheories?LF</title>
<a xlink:href="http://cds.omdoc.org/urtheories?LF" class="graphtheory">
<ellipse fill="gray" stroke="black" cx="71.1883" cy="-234" rx="27" ry="18"/>
<text text-anchor="middle" x="71.1883" y="-230.3" font-family="Times New Roman,serif" font-size="14.00">LF</text>
</a>
</g>
<!-- http://cds.omdoc.org/urtheories?LF&#45;&gt;http://latin.omdoc.org/type_theories?Naturals -->
<g id="edge7" class="edge"><title>http://cds.omdoc.org/urtheories?LF&#45;&gt;http://latin.omdoc.org/type_theories?Naturals</title>
<a class="graphmeta">
<path fill="none" stroke="black" d="M49.92,-222.585C34.3515,-213.665 14.4012,-199.214 5.18829,-180 -1.72943,-165.573 -1.72943,-158.427 5.18829,-144 12.0027,-129.788 24.6913,-118.182 37.1363,-109.493"/>
<polygon fill="black" stroke="black" points="39.1747,-112.342 45.6378,-103.947 35.3501,-106.479 39.1747,-112.342"/>
</a>
</g>
<!-- http://cds.omdoc.org/urtheories?LF&#45;&gt;http://latin.omdoc.org/type_theories?NatTypes -->
<g id="edge11" class="edge"><title>http://cds.omdoc.org/urtheories?LF&#45;&gt;http://latin.omdoc.org/type_theories?NatTypes</title>
<a class="graphmeta">
<path fill="none" stroke="black" d="M92.4565,-222.585C108.025,-213.665 127.975,-199.214 137.188,-180 158.227,-136.123 140.107,-78.4332 125.986,-45.3621"/>
<polygon fill="black" stroke="black" points="129.05,-43.6388 121.781,-35.9316 122.657,-46.4901 129.05,-43.6388"/>
</a>
</g>
<!-- http://cds.omdoc.org/urtheories?LF&#45;&gt;http://latin.omdoc.org/type_theories?TypesTerms -->
<g id="edge9" class="edge"><title>http://cds.omdoc.org/urtheories?LF&#45;&gt;http://latin.omdoc.org/type_theories?TypesTerms</title>
<a class="graphmeta">
<path fill="none" stroke="black" d="M71.1883,-215.697C71.1883,-207.983 71.1883,-198.712 71.1883,-190.112"/>
<polygon fill="black" stroke="black" points="74.6884,-190.104 71.1883,-180.104 67.6884,-190.104 74.6884,-190.104"/>
</a>
</g>
</g>
</svg>
