<?xml version="1.0" encoding="UTF-8" standalone="no"?>
<!DOCTYPE svg PUBLIC "-//W3C//DTD SVG 1.1//EN"
 "http://www.w3.org/Graphics/SVG/1.1/DTD/svg11.dtd">
<!-- Generated by graphviz version 2.28.0 (20110507.0327)
 -->
<!-- Title: MMT Pages: 1 -->
<svg
 viewBox="0.00 0.00 238.63 276.00" xmlns="http://www.w3.org/2000/svg" xmlns:xlink="http://www.w3.org/1999/xlink">
<g id="graph1" class="graph" transform="scale(1 1) rotate(0) translate(4 272)">
<title>MMT</title>
<polygon fill="white" stroke="white" points="-4,5 -4,-272 235.631,-272 235.631,5 -4,5"/>
<g id="graph2" class="cluster"><title>cluster_local</title>
<polygon fill="none" stroke="black" points="56.6313,-8 56.6313,-60 144.631,-60 144.631,-8 56.6313,-8"/>
</g>
<!-- http://latin.omdoc.org/type_theories?Option -->
<g id="node2" class="node"><title>http://latin.omdoc.org/type_theories?Option</title>
<a xlink:href="http://latin.omdoc.org/type_theories?Option" class="graphtheory">
<ellipse fill="none" stroke="black" cx="100.631" cy="-34" rx="36.096" ry="18"/>
<text text-anchor="middle" x="100.631" y="-30.3" font-family="Times New Roman,serif" font-size="14.00">Option</text>
</a>
</g>
<!-- http://latin.omdoc.org/type_theories?DUNION -->
<g id="node3" class="node"><title>http://latin.omdoc.org/type_theories?DUNION</title>
<a xlink:href="http://latin.omdoc.org/type_theories?DUNION" class="graphtheory">
<ellipse fill="gray" stroke="black" cx="63.6313" cy="-106" rx="46.2191" ry="18"/>
<text text-anchor="middle" x="63.6313" y="-102.3" font-family="Times New Roman,serif" font-size="14.00">DUNION</text>
</a>
</g>
<!-- http://latin.omdoc.org/type_theories?DUNION&#45;&gt;http://latin.omdoc.org/type_theories?Option -->
<g id="edge3" class="edge"><title>http://latin.omdoc.org/type_theories?DUNION&#45;&gt;http://latin.omdoc.org/type_theories?Option</title>
<a class="graphinclude">
<path fill="none" stroke="black" d="M72.5879,-88.055C76.9055,-79.8866 82.178,-69.9116 86.9812,-60.8244"/>
<polygon fill="black" stroke="black" points="90.1783,-62.2656 91.7571,-51.789 83.9896,-58.9944 90.1783,-62.2656"/>
</a>
</g>
<!-- http://latin.omdoc.org/type_theories?TypesTerms -->
<g id="node5" class="node"><title>http://latin.omdoc.org/type_theories?TypesTerms</title>
<a xlink:href="http://latin.omdoc.org/type_theories?TypesTerms" class="graphtheory">
<ellipse fill="gray" stroke="black" cx="124.631" cy="-178" rx="57.2927" ry="18"/>
<text text-anchor="middle" x="124.631" y="-174.3" font-family="Times New Roman,serif" font-size="14.00">TypesTerms</text>
</a>
</g>
<!-- http://latin.omdoc.org/type_theories?TypesTerms&#45;&gt;http://latin.omdoc.org/type_theories?Option -->
<g id="edge5" class="edge"><title>http://latin.omdoc.org/type_theories?TypesTerms&#45;&gt;http://latin.omdoc.org/type_theories?Option</title>
<a class="graphinclude">
<path fill="none" stroke="black" d="M124.788,-159.764C124.647,-141.707 123.551,-112.601 118.631,-88 116.87,-79.1932 114.035,-69.8374 111.13,-61.4769"/>
<polygon fill="black" stroke="black" points="114.341,-60.0666 107.62,-51.8763 107.767,-62.4701 114.341,-60.0666"/>
</a>
</g>
<!-- http://latin.omdoc.org/type_theories?TypesTerms&#45;&gt;http://latin.omdoc.org/type_theories?DUNION -->
<g id="edge17" class="edge"><title>http://latin.omdoc.org/type_theories?TypesTerms&#45;&gt;http://latin.omdoc.org/type_theories?DUNION</title>
<a class="graphinclude">
<path fill="none" stroke="black" d="M110.175,-160.411C102.578,-151.693 93.1251,-140.845 84.7265,-131.208"/>
<polygon fill="black" stroke="black" points="87.1922,-128.71 77.9837,-123.47 81.9148,-133.309 87.1922,-128.71"/>
</a>
</g>
<!-- http://latin.omdoc.org/type_theories?UNIT -->
<g id="node7" class="node"><title>http://latin.omdoc.org/type_theories?UNIT</title>
<a xlink:href="http://latin.omdoc.org/type_theories?UNIT" class="graphtheory">
<ellipse fill="gray" stroke="black" cx="197.631" cy="-106" rx="32.2457" ry="18"/>
<text text-anchor="middle" x="197.631" y="-102.3" font-family="Times New Roman,serif" font-size="14.00">UNIT</text>
</a>
</g>
<!-- http://latin.omdoc.org/type_theories?TypesTerms&#45;&gt;http://latin.omdoc.org/type_theories?UNIT -->
<g id="edge19" class="edge"><title>http://latin.omdoc.org/type_theories?TypesTerms&#45;&gt;http://latin.omdoc.org/type_theories?UNIT</title>
<a class="graphinclude">
<path fill="none" stroke="black" d="M141.562,-160.765C151.324,-151.405 163.736,-139.503 174.399,-129.278"/>
<polygon fill="black" stroke="black" points="176.996,-131.636 181.791,-122.189 172.151,-126.584 176.996,-131.636"/>
</a>
</g>
<!-- http://latin.omdoc.org/type_theories?UNIT&#45;&gt;http://latin.omdoc.org/type_theories?Option -->
<g id="edge7" class="edge"><title>http://latin.omdoc.org/type_theories?UNIT&#45;&gt;http://latin.omdoc.org/type_theories?Option</title>
<a class="graphinclude">
<path fill="none" stroke="black" d="M178.467,-91.1703C164.305,-80.9503 144.798,-66.8728 128.855,-55.3678"/>
<polygon fill="black" stroke="black" points="130.579,-52.2953 120.422,-49.2816 126.482,-57.9716 130.579,-52.2953"/>
</a>
</g>
<!-- http://cds.omdoc.org/urtheories?LF -->
<g id="node9" class="node"><title>http://cds.omdoc.org/urtheories?LF</title>
<a xlink:href="http://cds.omdoc.org/urtheories?LF" class="graphtheory">
<ellipse fill="gray" stroke="black" cx="81.6313" cy="-250" rx="27" ry="18"/>
<text text-anchor="middle" x="81.6313" y="-246.3" font-family="Times New Roman,serif" font-size="14.00">LF</text>
</a>
</g>
<!-- http://cds.omdoc.org/urtheories?LF&#45;&gt;http://latin.omdoc.org/type_theories?Option -->
<g id="edge9" class="edge"><title>http://cds.omdoc.org/urtheories?LF&#45;&gt;http://latin.omdoc.org/type_theories?Option</title>
<a class="graphmeta">
<path fill="none" stroke="black" d="M66.0711,-234.758C36.7151,-206.107 -21.3164,-139.814 8.63128,-88 19.8364,-68.6134 41.1228,-55.6915 60.4,-47.4643"/>
<polygon fill="black" stroke="black" points="61.9305,-50.6228 69.9403,-43.6879 59.3541,-44.1142 61.9305,-50.6228"/>
</a>
</g>
<!-- http://cds.omdoc.org/urtheories?LF&#45;&gt;http://latin.omdoc.org/type_theories?DUNION -->
<g id="edge15" class="edge"><title>http://cds.omdoc.org/urtheories?LF&#45;&gt;http://latin.omdoc.org/type_theories?DUNION</title>
<a class="graphmeta">
<path fill="none" stroke="black" d="M72.5647,-232.866C67.3538,-222.65 61.3229,-208.964 58.6313,-196 54.3907,-175.576 56.0017,-151.986 58.478,-134.227"/>
<polygon fill="black" stroke="black" points="61.9497,-134.679 60.0424,-124.258 55.0343,-133.594 61.9497,-134.679"/>
</a>
</g>
<!-- http://cds.omdoc.org/urtheories?LF&#45;&gt;http://latin.omdoc.org/type_theories?TypesTerms -->
<g id="edge11" class="edge"><title>http://cds.omdoc.org/urtheories?LF&#45;&gt;http://latin.omdoc.org/type_theories?TypesTerms</title>
<a class="graphmeta">
<path fill="none" stroke="black" d="M91.3886,-233.116C96.5713,-224.679 103.067,-214.104 108.938,-204.547"/>
<polygon fill="black" stroke="black" points="112.061,-206.15 114.313,-195.797 106.096,-202.486 112.061,-206.15"/>
</a>
</g>
<!-- http://cds.omdoc.org/urtheories?LF&#45;&gt;http://latin.omdoc.org/type_theories?UNIT -->
<g id="edge13" class="edge"><title>http://cds.omdoc.org/urtheories?LF&#45;&gt;http://latin.omdoc.org/type_theories?UNIT</title>
<a class="graphmeta">
<path fill="none" stroke="black" d="M107.638,-244.085C133.356,-237.738 171.549,-223.992 190.631,-196 202.876,-178.039 203.805,-153.044 202.142,-134.114"/>
<polygon fill="black" stroke="black" points="205.601,-133.565 200.968,-124.037 198.648,-134.375 205.601,-133.565"/>
</a>
</g>
</g>
</svg>
