<?xml version="1.0" encoding="UTF-8" standalone="no"?>
<!DOCTYPE svg PUBLIC "-//W3C//DTD SVG 1.1//EN"
 "http://www.w3.org/Graphics/SVG/1.1/DTD/svg11.dtd">
<!-- Generated by graphviz version 2.28.0 (20110507.0327)
 -->
<!-- Title: MMT Pages: 1 -->
<svg width="1476pt" height="368pt"
 viewBox="0.00 0.00 1476.00 368.00" xmlns="http://www.w3.org/2000/svg" xmlns:xlink="http://www.w3.org/1999/xlink">
<g id="graph1" class="graph" transform="scale(1 1) rotate(0) translate(4 364)">
<title>MMT</title>
<polygon fill="white" stroke="white" points="-4,5 -4,-364 1473,-364 1473,5 -4,5"/>
<g id="graph2" class="cluster"><title>cluster_local</title>
<polygon fill="none" stroke="black" points="317,-80 317,-132 413,-132 413,-80 317,-80"/>
</g>
<!-- http://latin.omdoc.org/type_theories?Product -->
<g id="node2" class="node"><title>http://latin.omdoc.org/type_theories?Product</title>
<a xlink:href="http://latin.omdoc.org/type_theories?Product" class="graphtheory">
<ellipse fill="none" stroke="black" cx="365" cy="-106" rx="39.9464" ry="18"/>
<text text-anchor="middle" x="365" y="-102.3" font-family="Times New Roman,serif" font-size="14.00">Product</text>
</a>
</g>
<!-- http://latin.omdoc.org/type_theories?SIGMA -->
<g id="node3" class="node"><title>http://latin.omdoc.org/type_theories?SIGMA</title>
<a xlink:href="http://latin.omdoc.org/type_theories?SIGMA" class="graphtheory">
<ellipse fill="gray" stroke="black" cx="146" cy="-18" rx="39.9464" ry="18"/>
<text text-anchor="middle" x="146" y="-14.3" font-family="Times New Roman,serif" font-size="14.00">SIGMA</text>
</a>
</g>
<!-- http://latin.omdoc.org/type_theories?Product&#45;&gt;http://latin.omdoc.org/type_theories?SIGMA -->
<g id="edge3" class="edge"><title>http://latin.omdoc.org/type_theories?Product&#45;&gt;http://latin.omdoc.org/type_theories?SIGMA</title>
<a xlink:href="http://latin.omdoc.org/type_theories?Product-Sigma" class="graphview">
<path fill="none" stroke="black" d="M343.377,-90.5933C336.479,-86.5877 328.646,-82.6216 321,-80 291.688,-69.9498 281.638,-79.0442 252,-70 226.253,-62.1432 198.918,-48.8564 178.456,-37.8142"/>
<polygon fill="black" stroke="black" points="180.017,-34.6786 169.568,-32.9264 176.644,-40.8122 180.017,-34.6786"/>
</a>
<a xlink:href="http://latin.omdoc.org/type_theories?Product-Sigma" class="Product&#45;Sigma">
<text text-anchor="middle" x="294.5" y="-58.3" font-family="Times New Roman,serif" font-size="14.00">Product&#45;Sigma</text>
</a>
</g>
<!-- http://latin.omdoc.org/translations/stt_prop?CH&#45;IPL -->
<g id="node5" class="node"><title>http://latin.omdoc.org/translations/stt_prop?CH&#45;IPL</title>
<a xlink:href="http://latin.omdoc.org/translations/stt_prop?CH-IPL" class="graphtheory">
<ellipse fill="gray" stroke="black" cx="342" cy="-18" rx="39.9464" ry="18"/>
<text text-anchor="middle" x="342" y="-14.3" font-family="Times New Roman,serif" font-size="14.00">CH&#45;IPL</text>
</a>
</g>
<!-- http://latin.omdoc.org/type_theories?Product&#45;&gt;http://latin.omdoc.org/translations/stt_prop?CH&#45;IPL -->
<g id="edge5" class="edge"><title>http://latin.omdoc.org/type_theories?Product&#45;&gt;http://latin.omdoc.org/translations/stt_prop?CH&#45;IPL</title>
<a xlink:href="http://latin.omdoc.org/translations/stt_prop?Product" class="graphview">
<path fill="none" stroke="black" d="M352.273,-88.8104C348.56,-83.1738 344.973,-76.6016 343,-70 340.769,-62.5331 339.953,-54.1733 339.844,-46.4169"/>
<polygon fill="black" stroke="black" points="343.344,-46.4291 340.066,-36.3543 336.346,-46.2747 343.344,-46.4291"/>
</a>
<a xlink:href="http://latin.omdoc.org/translations/stt_prop?Product" class="Product">
<text text-anchor="middle" x="366" y="-58.3" font-family="Times New Roman,serif" font-size="14.00">Product</text>
</a>
</g>
<!-- http://latin.omdoc.org/translations/tt_zfc?STT -->
<g id="node7" class="node"><title>http://latin.omdoc.org/translations/tt_zfc?STT</title>
<a xlink:href="http://latin.omdoc.org/translations/tt_zfc?STT" class="graphtheory">
<ellipse fill="gray" stroke="black" cx="917" cy="-18" rx="27.4223" ry="18"/>
<text text-anchor="middle" x="917" y="-14.3" font-family="Times New Roman,serif" font-size="14.00">STT</text>
</a>
</g>
<!-- http://latin.omdoc.org/type_theories?Product&#45;&gt;http://latin.omdoc.org/translations/tt_zfc?STT -->
<g id="edge7" class="edge"><title>http://latin.omdoc.org/type_theories?Product&#45;&gt;http://latin.omdoc.org/translations/tt_zfc?STT</title>
<a xlink:href="http://latin.omdoc.org/translations/tt_zfc?STT?[http://latin.omdoc.org/type_theories?Product]" class="graphstructure">
<path fill="none" stroke="black" d="M386.013,-90.3375C393.01,-86.216 401.053,-82.2482 409,-80 470.62,-62.5673 633.512,-78.381 697,-70 732.53,-65.3097 829.505,-41.3105 882.05,-27.9716"/>
<polygon fill="black" stroke="black" points="883.107,-31.314 891.935,-25.4549 881.38,-24.5305 883.107,-31.314"/>
</a>
<a xlink:href="http://latin.omdoc.org/translations/tt_zfc?STT?[http://latin.omdoc.org/type_theories?Product]" class="[http://latin.omdoc.org/type_theories?Product]">
<text text-anchor="middle" x="903" y="-58.3" font-family="Times New Roman,serif" font-size="14.00">[http://latin.omdoc.org/type_theories?Product]</text>
</a>
</g>
<!-- http://latin.omdoc.org/foundations/zfc?Products -->
<g id="node9" class="node"><title>http://latin.omdoc.org/foundations/zfc?Products</title>
<a xlink:href="http://latin.omdoc.org/foundations/zfc?Products" class="graphtheory">
<ellipse fill="gray" stroke="black" cx="44" cy="-18" rx="44.2946" ry="18"/>
<text text-anchor="middle" x="44" y="-14.3" font-family="Times New Roman,serif" font-size="14.00">Products</text>
</a>
</g>
<!-- http://latin.omdoc.org/type_theories?Product&#45;&gt;http://latin.omdoc.org/foundations/zfc?Products -->
<g id="edge9" class="edge"><title>http://latin.omdoc.org/type_theories?Product&#45;&gt;http://latin.omdoc.org/foundations/zfc?Products</title>
<a xlink:href="http://latin.omdoc.org/translations/tt_zfc?Product" class="graphview">
<path fill="none" stroke="black" d="M343.948,-90.4733C336.948,-86.3591 328.914,-82.3612 321,-80 253.574,-59.8829 231.444,-86.3184 163,-70 133.406,-62.9443 101.841,-49.0929 78.6607,-37.6042"/>
<polygon fill="black" stroke="black" points="80.0877,-34.4038 69.5844,-33.014 76.9285,-40.6504 80.0877,-34.4038"/>
</a>
<a xlink:href="http://latin.omdoc.org/translations/tt_zfc?Product" class="Product">
<text text-anchor="middle" x="186" y="-58.3" font-family="Times New Roman,serif" font-size="14.00">Product</text>
</a>
</g>
<!-- http://latin.omdoc.org/type_theories?STT&#45;MLTT -->
<g id="node11" class="node"><title>http://latin.omdoc.org/type_theories?STT&#45;MLTT</title>
<a xlink:href="http://latin.omdoc.org/type_theories?STT-MLTT" class="graphtheory">
<ellipse fill="gray" stroke="black" cx="735" cy="-18" rx="55.3436" ry="18"/>
<text text-anchor="middle" x="735" y="-14.3" font-family="Times New Roman,serif" font-size="14.00">STT&#45;MLTT</text>
</a>
</g>
<!-- http://latin.omdoc.org/type_theories?Product&#45;&gt;http://latin.omdoc.org/type_theories?STT&#45;MLTT -->
<g id="edge11" class="edge"><title>http://latin.omdoc.org/type_theories?Product&#45;&gt;http://latin.omdoc.org/type_theories?STT&#45;MLTT</title>
<a xlink:href="http://latin.omdoc.org/type_theories?STT-MLTT?[http://latin.omdoc.org/type_theories?Product]" class="graphstructure">
<path fill="none" stroke="black" d="M381.61,-89.5258C395.359,-77.6894 415.979,-62.0714 437,-54 478.337,-38.1283 596.19,-27.9017 670.704,-22.822"/>
<polygon fill="black" stroke="black" points="671.174,-26.2985 680.918,-22.1394 670.707,-19.3141 671.174,-26.2985"/>
</a>
<a xlink:href="http://latin.omdoc.org/type_theories?STT-MLTT?[http://latin.omdoc.org/type_theories?Product]" class="[http://latin.omdoc.org/type_theories?Product]">
<text text-anchor="middle" x="567" y="-58.3" font-family="Times New Roman,serif" font-size="14.00">[http://latin.omdoc.org/type_theories?Product]</text>
</a>
</g>
<!-- http://latin.omdoc.org/type_theories?STT -->
<g id="node17" class="node"><title>http://latin.omdoc.org/type_theories?STT</title>
<a xlink:href="http://latin.omdoc.org/type_theories?STT" class="graphtheory">
<ellipse fill="gray" stroke="black" cx="1430" cy="-18" rx="27.4223" ry="18"/>
<text text-anchor="middle" x="1430" y="-14.3" font-family="Times New Roman,serif" font-size="14.00">STT</text>
</a>
</g>
<!-- http://latin.omdoc.org/type_theories?Product&#45;&gt;http://latin.omdoc.org/type_theories?STT -->
<g id="edge17" class="edge"><title>http://latin.omdoc.org/type_theories?Product&#45;&gt;http://latin.omdoc.org/type_theories?STT</title>
<a class="graphinclude">
<path fill="none" stroke="black" d="M385.543,-90.5114C392.641,-86.2902 400.863,-82.2197 409,-80 442.663,-70.8171 1002.2,-72.5271 1037,-70 1168.85,-60.4263 1324.16,-36.495 1393.45,-25.1507"/>
<polygon fill="black" stroke="black" points="1394.12,-28.5863 1403.42,-23.5068 1392.98,-21.6795 1394.12,-28.5863"/>
</a>
</g>
<!-- http://latin.omdoc.org/logics/syntax?CONJ -->
<g id="node13" class="node"><title>http://latin.omdoc.org/logics/syntax?CONJ</title>
<a xlink:href="http://latin.omdoc.org/logics/syntax?CONJ" class="graphtheory">
<ellipse fill="gray" stroke="black" cx="325" cy="-268" rx="33.1991" ry="18"/>
<text text-anchor="middle" x="325" y="-264.3" font-family="Times New Roman,serif" font-size="14.00">CONJ</text>
</a>
</g>
<!-- http://latin.omdoc.org/logics/syntax?CONJ&#45;&gt;http://latin.omdoc.org/type_theories?Product -->
<g id="edge13" class="edge"><title>http://latin.omdoc.org/logics/syntax?CONJ&#45;&gt;http://latin.omdoc.org/type_theories?Product</title>
<a xlink:href="http://latin.omdoc.org/translations/prop_stt?CONJ" class="graphview">
<path fill="none" stroke="black" d="M329.044,-249.87C333.39,-231.561 340.543,-201.695 347,-176 350.489,-162.117 354.498,-146.699 357.846,-133.965"/>
<polygon fill="black" stroke="black" points="361.31,-134.554 360.476,-123.992 354.542,-132.768 361.31,-134.554"/>
</a>
<a xlink:href="http://latin.omdoc.org/translations/prop_stt?CONJ" class="CONJ">
<text text-anchor="middle" x="365" y="-190.3" font-family="Times New Roman,serif" font-size="14.00">CONJ</text>
</a>
</g>
<!-- http://latin.omdoc.org/logics/proof_theory?CONJ -->
<g id="node15" class="node"><title>http://latin.omdoc.org/logics/proof_theory?CONJ</title>
<a xlink:href="http://latin.omdoc.org/logics/proof_theory?CONJ" class="graphtheory">
<ellipse fill="gray" stroke="black" cx="263" cy="-194" rx="33.1991" ry="18"/>
<text text-anchor="middle" x="263" y="-190.3" font-family="Times New Roman,serif" font-size="14.00">CONJ</text>
</a>
</g>
<!-- http://latin.omdoc.org/logics/syntax?CONJ&#45;&gt;http://latin.omdoc.org/logics/proof_theory?CONJ -->
<g id="edge47" class="edge"><title>http://latin.omdoc.org/logics/syntax?CONJ&#45;&gt;http://latin.omdoc.org/logics/proof_theory?CONJ</title>
<a class="graphinclude">
<path fill="none" stroke="black" d="M311.547,-251.377C303.26,-241.753 292.478,-229.233 283.181,-218.436"/>
<polygon fill="black" stroke="black" points="285.604,-215.886 276.427,-210.592 280.3,-220.454 285.604,-215.886"/>
</a>
</g>
<!-- http://latin.omdoc.org/logics/proof_theory?CONJ&#45;&gt;http://latin.omdoc.org/type_theories?Product -->
<g id="edge15" class="edge"><title>http://latin.omdoc.org/logics/proof_theory?CONJ&#45;&gt;http://latin.omdoc.org/type_theories?Product</title>
<a xlink:href="http://latin.omdoc.org/translations/prop_stt?CONJPF" class="graphview">
<path fill="none" stroke="black" d="M259.485,-175.805C258.295,-164.809 258.918,-150.977 267,-142 283.331,-123.86 298.071,-140.367 321,-132 325.508,-130.355 330.096,-128.273 334.524,-126.017"/>
<polygon fill="black" stroke="black" points="336.21,-129.084 343.312,-121.223 332.857,-122.939 336.21,-129.084"/>
</a>
<a xlink:href="http://latin.omdoc.org/translations/prop_stt?CONJPF" class="CONJPF">
<text text-anchor="middle" x="293" y="-146.3" font-family="Times New Roman,serif" font-size="14.00">CONJPF</text>
</a>
</g>
<!-- http://latin.omdoc.org/type_theories?TypesTerms -->
<g id="node19" class="node"><title>http://latin.omdoc.org/type_theories?TypesTerms</title>
<a xlink:href="http://latin.omdoc.org/type_theories?TypesTerms" class="graphtheory">
<ellipse fill="gray" stroke="black" cx="686" cy="-194" rx="57.2927" ry="18"/>
<text text-anchor="middle" x="686" y="-190.3" font-family="Times New Roman,serif" font-size="14.00">TypesTerms</text>
</a>
</g>
<!-- http://latin.omdoc.org/type_theories?TypesTerms&#45;&gt;http://latin.omdoc.org/type_theories?Product -->
<g id="edge19" class="edge"><title>http://latin.omdoc.org/type_theories?TypesTerms&#45;&gt;http://latin.omdoc.org/type_theories?Product</title>
<a class="graphinclude">
<path fill="none" stroke="black" d="M634.116,-186.324C577.43,-177.95 484.618,-161.045 409,-132 404.733,-130.361 400.382,-128.355 396.159,-126.2"/>
<polygon fill="black" stroke="black" points="397.655,-123.03 387.198,-121.326 394.311,-129.179 397.655,-123.03"/>
</a>
</g>
<!-- http://latin.omdoc.org/type_theories?TypesTerms&#45;&gt;http://latin.omdoc.org/type_theories?SIGMA -->
<g id="edge45" class="edge"><title>http://latin.omdoc.org/type_theories?TypesTerms&#45;&gt;http://latin.omdoc.org/type_theories?SIGMA</title>
<a class="graphinclude">
<path fill="none" stroke="black" d="M633.214,-186.817C582.104,-180.56 502.507,-170.101 434,-158 362.849,-145.432 163.522,-128.415 121,-70 114.931,-61.6628 117.993,-51.6264 123.738,-42.6703"/>
<polygon fill="black" stroke="black" points="126.66,-44.6064 129.857,-34.5054 121.059,-40.4081 126.66,-44.6064"/>
</a>
</g>
<!-- http://latin.omdoc.org/type_theories?TypesTerms&#45;&gt;http://latin.omdoc.org/translations/stt_prop?CH&#45;IPL -->
<g id="edge37" class="edge"><title>http://latin.omdoc.org/type_theories?TypesTerms&#45;&gt;http://latin.omdoc.org/translations/stt_prop?CH&#45;IPL</title>
<a xlink:href="http://latin.omdoc.org/translations/stt_prop?TypesTerms" class="graphview">
<path fill="none" stroke="black" d="M685.464,-175.872C684.192,-140.611 680.446,-62.4903 672,-54 652.673,-34.571 479.788,-24.6888 392.277,-20.8948"/>
<polygon fill="black" stroke="black" points="392.184,-17.3878 382.045,-20.4621 391.888,-24.3816 392.184,-17.3878"/>
</a>
<a xlink:href="http://latin.omdoc.org/translations/stt_prop?TypesTerms" class="TypesTerms">
<text text-anchor="middle" x="720" y="-102.3" font-family="Times New Roman,serif" font-size="14.00">TypesTerms</text>
</a>
</g>
<!-- http://latin.omdoc.org/type_theories?TypesTerms&#45;&gt;http://latin.omdoc.org/translations/tt_zfc?STT -->
<g id="edge41" class="edge"><title>http://latin.omdoc.org/type_theories?TypesTerms&#45;&gt;http://latin.omdoc.org/translations/tt_zfc?STT</title>
<a xlink:href="http://latin.omdoc.org/translations/tt_zfc?STT?[http://latin.omdoc.org/type_theories?TypesTerms]" class="graphstructure">
<path fill="none" stroke="black" d="M743.316,-193.217C844.749,-192.247 1049.41,-183.749 1094,-132 1109.09,-114.491 1107.42,-98.8169 1094,-80 1062.43,-35.7209 996.513,-23.2646 954.637,-19.9481"/>
<polygon fill="black" stroke="black" points="954.751,-16.4482 944.544,-19.2881 954.294,-23.4333 954.751,-16.4482"/>
</a>
<a xlink:href="http://latin.omdoc.org/translations/tt_zfc?STT?[http://latin.omdoc.org/type_theories?TypesTerms]" class="[http://latin.omdoc.org/type_theories?TypesTerms]">
<text text-anchor="middle" x="1248" y="-102.3" font-family="Times New Roman,serif" font-size="14.00">[http://latin.omdoc.org/type_theories?TypesTerms]</text>
</a>
</g>
<!-- http://latin.omdoc.org/type_theories?TypesTerms&#45;&gt;http://latin.omdoc.org/type_theories?STT&#45;MLTT -->
<g id="edge39" class="edge"><title>http://latin.omdoc.org/type_theories?TypesTerms&#45;&gt;http://latin.omdoc.org/type_theories?STT&#45;MLTT</title>
<a xlink:href="http://latin.omdoc.org/type_theories?STT-MLTT?[http://latin.omdoc.org/type_theories?TypesTerms]" class="graphstructure">
<path fill="none" stroke="black" d="M707.777,-177.095C723.431,-165.293 744.732,-148.46 762,-132 784.335,-110.71 780.247,-93.4855 808,-80 825.218,-71.6335 966.862,-83.9237 980,-70 984.88,-64.8278 984.659,-59.3721 980,-54 976.977,-50.5147 867.671,-35.9443 796.095,-26.7369"/>
<polygon fill="black" stroke="black" points="796.19,-23.2205 785.826,-25.4193 795.299,-30.1636 796.19,-23.2205"/>
</a>
<a xlink:href="http://latin.omdoc.org/type_theories?STT-MLTT?[http://latin.omdoc.org/type_theories?TypesTerms]" class="[http://latin.omdoc.org/type_theories?TypesTerms]">
<text text-anchor="middle" x="951" y="-102.3" font-family="Times New Roman,serif" font-size="14.00">[http://latin.omdoc.org/type_theories?TypesTerms]</text>
</a>
</g>
<!-- http://latin.omdoc.org/type_theories?TypesTerms&#45;&gt;http://latin.omdoc.org/type_theories?STT -->
<g id="edge43" class="edge"><title>http://latin.omdoc.org/type_theories?TypesTerms&#45;&gt;http://latin.omdoc.org/type_theories?STT</title>
<a class="graphinclude">
<path fill="none" stroke="black" d="M742.691,-191.711C901.868,-187.599 1344.61,-172.593 1395,-132 1420.44,-111.504 1427.78,-72.8454 1429.69,-46.5119"/>
<polygon fill="black" stroke="black" points="1433.19,-46.5736 1430.2,-36.409 1426.2,-46.2186 1433.19,-46.5736"/>
</a>
</g>
<!-- http://cds.omdoc.org/urtheories?LF -->
<g id="node21" class="node"><title>http://cds.omdoc.org/urtheories?LF</title>
<a xlink:href="http://cds.omdoc.org/urtheories?LF" class="graphtheory">
<ellipse fill="gray" stroke="black" cx="285" cy="-342" rx="27" ry="18"/>
<text text-anchor="middle" x="285" y="-338.3" font-family="Times New Roman,serif" font-size="14.00">LF</text>
</a>
</g>
<!-- http://cds.omdoc.org/urtheories?LF&#45;&gt;http://latin.omdoc.org/type_theories?Product -->
<g id="edge21" class="edge"><title>http://cds.omdoc.org/urtheories?LF&#45;&gt;http://latin.omdoc.org/type_theories?Product</title>
<a class="graphmeta">
<path fill="none" stroke="black" d="M307.357,-331.817C326.2,-322.904 352.364,-307.557 367,-286 398.196,-240.053 384.865,-171.032 373.97,-133.538"/>
<polygon fill="black" stroke="black" points="377.276,-132.381 371.001,-123.844 370.583,-134.431 377.276,-132.381"/>
</a>
</g>
<!-- http://cds.omdoc.org/urtheories?LF&#45;&gt;http://latin.omdoc.org/type_theories?SIGMA -->
<g id="edge31" class="edge"><title>http://cds.omdoc.org/urtheories?LF&#45;&gt;http://latin.omdoc.org/type_theories?SIGMA</title>
<a class="graphmeta">
<path fill="none" stroke="black" d="M258.877,-337.352C204.05,-328.961 82,-306.114 82,-269 82,-269 82,-269 82,-105 82,-79.1769 100.8,-56.0827 118.022,-40.3449"/>
<polygon fill="black" stroke="black" points="120.485,-42.8421 125.75,-33.6484 115.9,-37.5519 120.485,-42.8421"/>
</a>
</g>
<!-- http://cds.omdoc.org/urtheories?LF&#45;&gt;http://latin.omdoc.org/translations/stt_prop?CH&#45;IPL -->
<g id="edge33" class="edge"><title>http://cds.omdoc.org/urtheories?LF&#45;&gt;http://latin.omdoc.org/translations/stt_prop?CH&#45;IPL</title>
<a class="graphmeta">
<path fill="none" stroke="black" d="M261.601,-332.575C236.746,-321.943 201,-301.076 201,-269 201,-269 201,-269 201,-105 201,-81.4948 198.388,-70.629 215,-54 235.12,-33.8596 265.7,-25.0303 291.811,-21.2741"/>
<polygon fill="black" stroke="black" points="292.439,-24.7234 301.938,-20.0318 291.586,-17.7755 292.439,-24.7234"/>
</a>
</g>
<!-- http://cds.omdoc.org/urtheories?LF&#45;&gt;http://latin.omdoc.org/foundations/zfc?Products -->
<g id="edge35" class="edge"><title>http://cds.omdoc.org/urtheories?LF&#45;&gt;http://latin.omdoc.org/foundations/zfc?Products</title>
<a class="graphmeta">
<path fill="none" stroke="black" d="M258.288,-338.719C195.541,-332.626 44,-313.323 44,-269 44,-269 44,-269 44,-105 44,-85.4036 44,-63.2956 44,-46.4023"/>
<polygon fill="black" stroke="black" points="47.5001,-46.1328 44,-36.1328 40.5001,-46.1328 47.5001,-46.1328"/>
</a>
</g>
<!-- http://cds.omdoc.org/urtheories?LF&#45;&gt;http://latin.omdoc.org/logics/syntax?CONJ -->
<g id="edge29" class="edge"><title>http://cds.omdoc.org/urtheories?LF&#45;&gt;http://latin.omdoc.org/logics/syntax?CONJ</title>
<a class="graphmeta">
<path fill="none" stroke="black" d="M294.077,-324.662C299.018,-315.768 305.243,-304.563 310.81,-294.543"/>
<polygon fill="black" stroke="black" points="313.885,-296.214 315.682,-285.773 307.766,-292.815 313.885,-296.214"/>
</a>
</g>
<!-- http://cds.omdoc.org/urtheories?LF&#45;&gt;http://latin.omdoc.org/logics/proof_theory?CONJ -->
<g id="edge27" class="edge"><title>http://cds.omdoc.org/urtheories?LF&#45;&gt;http://latin.omdoc.org/logics/proof_theory?CONJ</title>
<a class="graphmeta">
<path fill="none" stroke="black" d="M282.433,-323.966C278.678,-299.045 271.645,-252.374 267.149,-222.537"/>
<polygon fill="black" stroke="black" points="270.57,-221.745 265.619,-212.378 263.648,-222.788 270.57,-221.745"/>
</a>
</g>
<!-- http://cds.omdoc.org/urtheories?LF&#45;&gt;http://latin.omdoc.org/type_theories?STT -->
<g id="edge23" class="edge"><title>http://cds.omdoc.org/urtheories?LF&#45;&gt;http://latin.omdoc.org/type_theories?STT</title>
<a class="graphmeta">
<path fill="none" stroke="black" d="M312.215,-340.81C489.072,-339.401 1468,-328.896 1468,-269 1468,-269 1468,-269 1468,-105 1468,-82.6883 1457.17,-59.6851 1447.07,-43.0897"/>
<polygon fill="black" stroke="black" points="1449.95,-41.1026 1441.61,-34.5743 1444.06,-44.8815 1449.95,-41.1026"/>
</a>
</g>
<!-- http://cds.omdoc.org/urtheories?LF&#45;&gt;http://latin.omdoc.org/type_theories?TypesTerms -->
<g id="edge25" class="edge"><title>http://cds.omdoc.org/urtheories?LF&#45;&gt;http://latin.omdoc.org/type_theories?TypesTerms</title>
<a class="graphmeta">
<path fill="none" stroke="black" d="M309.877,-334.972C335.476,-328.565 376.388,-317.751 411,-306 495.449,-277.33 591.52,-236.638 644.822,-213.32"/>
<polygon fill="black" stroke="black" points="646.515,-216.399 654.265,-209.175 643.701,-209.99 646.515,-216.399"/>
</a>
</g>
</g>
</svg>
