<?xml version="1.0" encoding="UTF-8" standalone="no"?>
<!DOCTYPE svg PUBLIC "-//W3C//DTD SVG 1.1//EN"
 "http://www.w3.org/Graphics/SVG/1.1/DTD/svg11.dtd">
<!-- Generated by graphviz version 2.28.0 (20110507.0327)
 -->
<!-- Title: MMT Pages: 1 -->
<svg width="1946pt" height="382pt"
 viewBox="0.00 0.00 1945.66 382.00" xmlns="http://www.w3.org/2000/svg" xmlns:xlink="http://www.w3.org/1999/xlink">
<g id="graph1" class="graph" transform="scale(1 1) rotate(0) translate(4 378)">
<title>MMT</title>
<polygon fill="white" stroke="white" points="-4,5 -4,-378 1942.66,-378 1942.66,5 -4,5"/>
<g id="graph2" class="cluster"><title>cluster_local</title>
<polygon fill="none" stroke="black" points="53.6611,-80 53.6611,-220 172.661,-220 172.661,-80 53.6611,-80"/>
</g>
<!-- http://latin.omdoc.org/type_theories?Product -->
<g id="node2" class="node"><title>http://latin.omdoc.org/type_theories?Product</title>
<a xlink:href="http://latin.omdoc.org/type_theories?Product" class="graphtheory">
<ellipse fill="none" stroke="black" cx="101.661" cy="-194" rx="39.9464" ry="18"/>
<text text-anchor="middle" x="101.661" y="-190.3" font-family="Times New Roman,serif" font-size="14.00">Product</text>
</a>
</g>
<!-- http://latin.omdoc.org/type_theories?SIGMA -->
<g id="node3" class="node"><title>http://latin.omdoc.org/type_theories?SIGMA</title>
<a xlink:href="http://latin.omdoc.org/type_theories?SIGMA" class="graphtheory">
<ellipse fill="none" stroke="black" cx="124.661" cy="-106" rx="39.9464" ry="18"/>
<text text-anchor="middle" x="124.661" y="-102.3" font-family="Times New Roman,serif" font-size="14.00">SIGMA</text>
</a>
</g>
<!-- http://latin.omdoc.org/type_theories?Product&#45;&gt;http://latin.omdoc.org/type_theories?SIGMA -->
<g id="edge3" class="edge"><title>http://latin.omdoc.org/type_theories?Product&#45;&gt;http://latin.omdoc.org/type_theories?SIGMA</title>
<a xlink:href="http://latin.omdoc.org/type_theories?Product-Sigma" class="graphview">
<path fill="none" stroke="black" d="M64.2298,-187.331C29.6544,-180.445 -13.7751,-166.582 4.66112,-142 20.6828,-120.638 49.026,-111.725 74.1444,-108.23"/>
<polygon fill="black" stroke="black" points="74.7618,-111.682 84.3025,-107.075 73.9711,-104.727 74.7618,-111.682"/>
</a>
<a xlink:href="http://latin.omdoc.org/type_theories?Product-Sigma" class="Product&#45;Sigma">
<text text-anchor="middle" x="47.1611" y="-146.3" font-family="Times New Roman,serif" font-size="14.00">Product&#45;Sigma</text>
</a>
</g>
<!-- http://latin.omdoc.org/translations/stt_prop?CH&#45;IPL -->
<g id="node5" class="node"><title>http://latin.omdoc.org/translations/stt_prop?CH&#45;IPL</title>
<a xlink:href="http://latin.omdoc.org/translations/stt_prop?CH-IPL" class="graphtheory">
<ellipse fill="gray" stroke="black" cx="1712.66" cy="-106" rx="39.9464" ry="18"/>
<text text-anchor="middle" x="1712.66" y="-102.3" font-family="Times New Roman,serif" font-size="14.00">CH&#45;IPL</text>
</a>
</g>
<!-- http://latin.omdoc.org/type_theories?Product&#45;&gt;http://latin.omdoc.org/translations/stt_prop?CH&#45;IPL -->
<g id="edge5" class="edge"><title>http://latin.omdoc.org/type_theories?Product&#45;&gt;http://latin.omdoc.org/translations/stt_prop?CH&#45;IPL</title>
<a xlink:href="http://latin.omdoc.org/translations/stt_prop?Product" class="graphview">
<path fill="none" stroke="black" d="M129.153,-180.682C134.528,-178.762 140.195,-177.064 145.661,-176 271.211,-151.572 1171.9,-186.188 1296.66,-158 1313.34,-154.231 1315.13,-146.4 1331.66,-142 1446.98,-111.298 1588.1,-106.451 1662,-106.29"/>
<polygon fill="black" stroke="black" points="1662.4,-109.791 1672.4,-106.298 1662.4,-102.791 1662.4,-109.791"/>
</a>
<a xlink:href="http://latin.omdoc.org/translations/stt_prop?Product" class="Product">
<text text-anchor="middle" x="1354.66" y="-146.3" font-family="Times New Roman,serif" font-size="14.00">Product</text>
</a>
</g>
<!-- http://latin.omdoc.org/translations/tt_zfc?STT -->
<g id="node7" class="node"><title>http://latin.omdoc.org/translations/tt_zfc?STT</title>
<a xlink:href="http://latin.omdoc.org/translations/tt_zfc?STT" class="graphtheory">
<ellipse fill="gray" stroke="black" cx="964.661" cy="-106" rx="27.4223" ry="18"/>
<text text-anchor="middle" x="964.661" y="-102.3" font-family="Times New Roman,serif" font-size="14.00">STT</text>
</a>
</g>
<!-- http://latin.omdoc.org/type_theories?Product&#45;&gt;http://latin.omdoc.org/translations/tt_zfc?STT -->
<g id="edge7" class="edge"><title>http://latin.omdoc.org/type_theories?Product&#45;&gt;http://latin.omdoc.org/translations/tt_zfc?STT</title>
<a xlink:href="http://latin.omdoc.org/translations/tt_zfc?STT?[http://latin.omdoc.org/type_theories?Product]" class="graphstructure">
<path fill="none" stroke="black" d="M129.168,-180.755C134.541,-178.827 140.204,-177.108 145.661,-176 267.896,-151.173 585.558,-187.862 706.661,-158 722.487,-154.098 724.071,-146.756 739.661,-142 794.188,-125.364 810.347,-132.873 866.661,-124 887.147,-120.772 909.98,-116.832 928.449,-113.557"/>
<polygon fill="black" stroke="black" points="929.262,-116.967 938.493,-111.766 928.034,-110.076 929.262,-116.967"/>
</a>
<a xlink:href="http://latin.omdoc.org/translations/tt_zfc?STT?[http://latin.omdoc.org/type_theories?Product]" class="[http://latin.omdoc.org/type_theories?Product]">
<text text-anchor="middle" x="869.661" y="-146.3" font-family="Times New Roman,serif" font-size="14.00">[http://latin.omdoc.org/type_theories?Product]</text>
</a>
</g>
<!-- http://latin.omdoc.org/foundations/zfc?Products -->
<g id="node9" class="node"><title>http://latin.omdoc.org/foundations/zfc?Products</title>
<a xlink:href="http://latin.omdoc.org/foundations/zfc?Products" class="graphtheory">
<ellipse fill="gray" stroke="black" cx="371.661" cy="-106" rx="44.2946" ry="18"/>
<text text-anchor="middle" x="371.661" y="-102.3" font-family="Times New Roman,serif" font-size="14.00">Products</text>
</a>
</g>
<!-- http://latin.omdoc.org/type_theories?Product&#45;&gt;http://latin.omdoc.org/foundations/zfc?Products -->
<g id="edge9" class="edge"><title>http://latin.omdoc.org/type_theories?Product&#45;&gt;http://latin.omdoc.org/foundations/zfc?Products</title>
<a xlink:href="http://latin.omdoc.org/translations/tt_zfc?Product" class="graphview">
<path fill="none" stroke="black" d="M130.9,-181.364C135.806,-179.509 140.862,-177.657 145.661,-176 207.798,-154.542 280.695,-132.912 326.536,-119.733"/>
<polygon fill="black" stroke="black" points="327.525,-123.091 336.175,-116.972 325.597,-116.361 327.525,-123.091"/>
</a>
<a xlink:href="http://latin.omdoc.org/translations/tt_zfc?Product" class="Product">
<text text-anchor="middle" x="273.661" y="-146.3" font-family="Times New Roman,serif" font-size="14.00">Product</text>
</a>
</g>
<!-- http://latin.omdoc.org/type_theories?STT&#45;MLTT -->
<g id="node11" class="node"><title>http://latin.omdoc.org/type_theories?STT&#45;MLTT</title>
<a xlink:href="http://latin.omdoc.org/type_theories?STT-MLTT" class="graphtheory">
<ellipse fill="gray" stroke="black" cx="802.661" cy="-106" rx="55.3436" ry="18"/>
<text text-anchor="middle" x="802.661" y="-102.3" font-family="Times New Roman,serif" font-size="14.00">STT&#45;MLTT</text>
</a>
</g>
<!-- http://latin.omdoc.org/type_theories?Product&#45;&gt;http://latin.omdoc.org/type_theories?STT&#45;MLTT -->
<g id="edge11" class="edge"><title>http://latin.omdoc.org/type_theories?Product&#45;&gt;http://latin.omdoc.org/type_theories?STT&#45;MLTT</title>
<a xlink:href="http://latin.omdoc.org/type_theories?STT-MLTT?[http://latin.omdoc.org/type_theories?Product]" class="graphstructure">
<path fill="none" stroke="black" d="M129.716,-180.914C134.94,-179.022 140.409,-177.275 145.661,-176 160.052,-172.507 579.075,-129.717 740.291,-113.329"/>
<polygon fill="black" stroke="black" points="740.935,-116.781 750.53,-112.288 740.228,-109.817 740.935,-116.781"/>
</a>
<a xlink:href="http://latin.omdoc.org/type_theories?STT-MLTT?[http://latin.omdoc.org/type_theories?Product]" class="[http://latin.omdoc.org/type_theories?Product]">
<text text-anchor="middle" x="572.661" y="-146.3" font-family="Times New Roman,serif" font-size="14.00">[http://latin.omdoc.org/type_theories?Product]</text>
</a>
</g>
<!-- http://latin.omdoc.org/type_theories?STT -->
<g id="node17" class="node"><title>http://latin.omdoc.org/type_theories?STT</title>
<a xlink:href="http://latin.omdoc.org/type_theories?STT" class="graphtheory">
<ellipse fill="gray" stroke="black" cx="1818.66" cy="-106" rx="27.4223" ry="18"/>
<text text-anchor="middle" x="1818.66" y="-102.3" font-family="Times New Roman,serif" font-size="14.00">STT</text>
</a>
</g>
<!-- http://latin.omdoc.org/type_theories?Product&#45;&gt;http://latin.omdoc.org/type_theories?STT -->
<g id="edge17" class="edge"><title>http://latin.omdoc.org/type_theories?Product&#45;&gt;http://latin.omdoc.org/type_theories?STT</title>
<a class="graphinclude">
<path fill="none" stroke="black" d="M129.149,-180.662C134.525,-178.743 140.193,-177.051 145.661,-176 234.212,-158.98 1685.72,-193.38 1768.66,-158 1781.98,-152.319 1793.55,-141.208 1802.2,-130.803"/>
<polygon fill="black" stroke="black" points="1805.11,-132.769 1808.49,-122.728 1799.58,-128.469 1805.11,-132.769"/>
</a>
</g>
<!-- http://latin.omdoc.org/foundations/zfc?DependentProducts -->
<g id="node23" class="node"><title>http://latin.omdoc.org/foundations/zfc?DependentProducts</title>
<a xlink:href="http://latin.omdoc.org/foundations/zfc?DependentProducts" class="graphtheory">
<ellipse fill="gray" stroke="black" cx="1270.66" cy="-18" rx="83.2892" ry="18"/>
<text text-anchor="middle" x="1270.66" y="-14.3" font-family="Times New Roman,serif" font-size="14.00">DependentProducts</text>
</a>
</g>
<!-- http://latin.omdoc.org/type_theories?SIGMA&#45;&gt;http://latin.omdoc.org/foundations/zfc?DependentProducts -->
<g id="edge23" class="edge"><title>http://latin.omdoc.org/type_theories?SIGMA&#45;&gt;http://latin.omdoc.org/foundations/zfc?DependentProducts</title>
<a xlink:href="http://latin.omdoc.org/translations/tt_zfc?SIGMA" class="graphview">
<path fill="none" stroke="black" d="M145.702,-90.4357C152.701,-86.3194 160.738,-82.3299 168.661,-80 356.59,-24.738 947.275,-18.838 1177.5,-18.7022"/>
<polygon fill="black" stroke="black" points="1177.53,-22.2023 1187.52,-18.6998 1177.52,-15.2023 1177.53,-22.2023"/>
</a>
<a xlink:href="http://latin.omdoc.org/translations/tt_zfc?SIGMA" class="SIGMA">
<text text-anchor="middle" x="323.661" y="-58.3" font-family="Times New Roman,serif" font-size="14.00">SIGMA</text>
</a>
</g>
<!-- http://latin.omdoc.org/type_theories?MLTT -->
<g id="node25" class="node"><title>http://latin.omdoc.org/type_theories?MLTT</title>
<a xlink:href="http://latin.omdoc.org/type_theories?MLTT" class="graphtheory">
<ellipse fill="gray" stroke="black" cx="1789.66" cy="-18" rx="35.6194" ry="18"/>
<text text-anchor="middle" x="1789.66" y="-14.3" font-family="Times New Roman,serif" font-size="14.00">MLTT</text>
</a>
</g>
<!-- http://latin.omdoc.org/type_theories?SIGMA&#45;&gt;http://latin.omdoc.org/type_theories?MLTT -->
<g id="edge25" class="edge"><title>http://latin.omdoc.org/type_theories?SIGMA&#45;&gt;http://latin.omdoc.org/type_theories?MLTT</title>
<a class="graphinclude">
<path fill="none" stroke="black" d="M145.677,-90.3477C152.674,-86.2267 160.717,-82.2566 168.661,-80 200.587,-70.9312 1329.5,-37.2713 1362.66,-36 1501.62,-30.6736 1666,-24.0337 1744.08,-20.859"/>
<polygon fill="black" stroke="black" points="1744.66,-24.3382 1754.51,-20.4345 1744.38,-17.344 1744.66,-24.3382"/>
</a>
</g>
<!-- http://latin.omdoc.org/logics/syntax?CONJ -->
<g id="node13" class="node"><title>http://latin.omdoc.org/logics/syntax?CONJ</title>
<a xlink:href="http://latin.omdoc.org/logics/syntax?CONJ" class="graphtheory">
<ellipse fill="gray" stroke="black" cx="207.661" cy="-282" rx="33.1991" ry="18"/>
<text text-anchor="middle" x="207.661" y="-278.3" font-family="Times New Roman,serif" font-size="14.00">CONJ</text>
</a>
</g>
<!-- http://latin.omdoc.org/logics/syntax?CONJ&#45;&gt;http://latin.omdoc.org/type_theories?Product -->
<g id="edge13" class="edge"><title>http://latin.omdoc.org/logics/syntax?CONJ&#45;&gt;http://latin.omdoc.org/type_theories?Product</title>
<a xlink:href="http://latin.omdoc.org/translations/prop_stt?CONJ" class="graphview">
<path fill="none" stroke="black" d="M189.68,-266.411C172.831,-252.741 147.436,-232.138 128.247,-216.569"/>
<polygon fill="black" stroke="black" points="130.417,-213.823 120.446,-210.24 126.006,-219.259 130.417,-213.823"/>
</a>
<a xlink:href="http://latin.omdoc.org/translations/prop_stt?CONJ" class="CONJ">
<text text-anchor="middle" x="182.661" y="-234.3" font-family="Times New Roman,serif" font-size="14.00">CONJ</text>
</a>
</g>
<!-- http://latin.omdoc.org/logics/proof_theory?CONJ -->
<g id="node15" class="node"><title>http://latin.omdoc.org/logics/proof_theory?CONJ</title>
<a xlink:href="http://latin.omdoc.org/logics/proof_theory?CONJ" class="graphtheory">
<ellipse fill="gray" stroke="black" cx="245.661" cy="-194" rx="33.1991" ry="18"/>
<text text-anchor="middle" x="245.661" y="-190.3" font-family="Times New Roman,serif" font-size="14.00">CONJ</text>
</a>
</g>
<!-- http://latin.omdoc.org/logics/syntax?CONJ&#45;&gt;http://latin.omdoc.org/logics/proof_theory?CONJ -->
<g id="edge57" class="edge"><title>http://latin.omdoc.org/logics/syntax?CONJ&#45;&gt;http://latin.omdoc.org/logics/proof_theory?CONJ</title>
<a class="graphinclude">
<path fill="none" stroke="black" d="M214.988,-264.418C220.42,-252.124 227.931,-235.126 234.16,-221.028"/>
<polygon fill="black" stroke="black" points="237.387,-222.386 238.227,-211.824 230.984,-219.556 237.387,-222.386"/>
</a>
</g>
<!-- http://latin.omdoc.org/logics/proof_theory?CONJ&#45;&gt;http://latin.omdoc.org/type_theories?Product -->
<g id="edge15" class="edge"><title>http://latin.omdoc.org/logics/proof_theory?CONJ&#45;&gt;http://latin.omdoc.org/type_theories?Product</title>
<a xlink:href="http://latin.omdoc.org/translations/prop_stt?CONJPF" class="graphview">
<path fill="none" stroke="black" d="M211.791,-194C194.044,-194 171.952,-194 152.222,-194"/>
<polygon fill="black" stroke="black" points="152.156,-190.5 142.156,-194 152.156,-197.5 152.156,-190.5"/>
</a>
<a xlink:href="http://latin.omdoc.org/translations/prop_stt?CONJPF" class="CONJPF">
<text text-anchor="middle" x="176.763" y="-200.8" font-family="Times New Roman,serif" font-size="14.00">CONJPF</text>
</a>
</g>
<!-- http://latin.omdoc.org/type_theories?STT&#45;&gt;http://latin.omdoc.org/type_theories?MLTT -->
<g id="edge55" class="edge"><title>http://latin.omdoc.org/type_theories?STT&#45;&gt;http://latin.omdoc.org/type_theories?MLTT</title>
<a xlink:href="http://latin.omdoc.org/type_theories?STT-MLTT" class="graphview">
<path fill="none" stroke="black" d="M1812.93,-88.0092C1808.84,-75.8769 1803.26,-59.3199 1798.59,-45.4648"/>
<polygon fill="black" stroke="black" points="1801.89,-44.3129 1795.38,-35.9555 1795.26,-46.5497 1801.89,-44.3129"/>
</a>
<a xlink:href="http://latin.omdoc.org/type_theories?STT-MLTT" class="STT&#45;MLTT">
<text text-anchor="middle" x="1841.66" y="-58.3" font-family="Times New Roman,serif" font-size="14.00">STT&#45;MLTT</text>
</a>
</g>
<!-- http://latin.omdoc.org/type_theories?TypesTerms -->
<g id="node19" class="node"><title>http://latin.omdoc.org/type_theories?TypesTerms</title>
<a xlink:href="http://latin.omdoc.org/type_theories?TypesTerms" class="graphtheory">
<ellipse fill="gray" stroke="black" cx="709.661" cy="-194" rx="57.2927" ry="18"/>
<text text-anchor="middle" x="709.661" y="-190.3" font-family="Times New Roman,serif" font-size="14.00">TypesTerms</text>
</a>
</g>
<!-- http://latin.omdoc.org/type_theories?TypesTerms&#45;&gt;http://latin.omdoc.org/type_theories?Product -->
<g id="edge19" class="edge"><title>http://latin.omdoc.org/type_theories?TypesTerms&#45;&gt;http://latin.omdoc.org/type_theories?Product</title>
<a class="graphinclude">
<path fill="none" stroke="black" d="M661.228,-203.612C543.755,-226.062 246.593,-277.442 154.661,-242 142.173,-237.186 130.803,-227.913 121.825,-218.791"/>
<polygon fill="black" stroke="black" points="124.23,-216.236 114.873,-211.265 119.088,-220.986 124.23,-216.236"/>
</a>
</g>
<!-- http://latin.omdoc.org/type_theories?TypesTerms&#45;&gt;http://latin.omdoc.org/type_theories?SIGMA -->
<g id="edge27" class="edge"><title>http://latin.omdoc.org/type_theories?TypesTerms&#45;&gt;http://latin.omdoc.org/type_theories?SIGMA</title>
<a class="graphinclude">
<path fill="none" stroke="black" d="M709.856,-175.983C708.99,-164.473 705.749,-149.967 695.661,-142 672.672,-123.842 197.364,-129.861 168.661,-124 166.445,-123.547 164.194,-122.995 161.943,-122.368"/>
<polygon fill="black" stroke="black" points="162.76,-118.955 152.169,-119.236 160.624,-125.621 162.76,-118.955"/>
</a>
</g>
<!-- http://latin.omdoc.org/type_theories?TypesTerms&#45;&gt;http://latin.omdoc.org/translations/stt_prop?CH&#45;IPL -->
<g id="edge47" class="edge"><title>http://latin.omdoc.org/type_theories?TypesTerms&#45;&gt;http://latin.omdoc.org/translations/stt_prop?CH&#45;IPL</title>
<a xlink:href="http://latin.omdoc.org/translations/stt_prop?TypesTerms" class="graphview">
<path fill="none" stroke="black" d="M766.527,-192.291C967.486,-189.611 1634.35,-179.158 1674.66,-158 1685.37,-152.382 1693.86,-142.241 1700.09,-132.473"/>
<polygon fill="black" stroke="black" points="1703.16,-134.153 1705.16,-123.749 1697.11,-130.635 1703.16,-134.153"/>
</a>
<a xlink:href="http://latin.omdoc.org/translations/stt_prop?TypesTerms" class="TypesTerms">
<text text-anchor="middle" x="1728.66" y="-146.3" font-family="Times New Roman,serif" font-size="14.00">TypesTerms</text>
</a>
</g>
<!-- http://latin.omdoc.org/type_theories?TypesTerms&#45;&gt;http://latin.omdoc.org/translations/tt_zfc?STT -->
<g id="edge51" class="edge"><title>http://latin.omdoc.org/type_theories?TypesTerms&#45;&gt;http://latin.omdoc.org/translations/tt_zfc?STT</title>
<a xlink:href="http://latin.omdoc.org/translations/tt_zfc?STT?[http://latin.omdoc.org/type_theories?TypesTerms]" class="graphstructure">
<path fill="none" stroke="black" d="M766.603,-192.142C925.004,-189.478 1360.62,-180.162 1381.66,-158 1386.56,-152.843 1386.47,-147.234 1381.66,-142 1356.25,-114.363 1099.97,-108.538 1002.25,-107.319"/>
<polygon fill="black" stroke="black" points="1002.25,-103.819 992.215,-107.204 1002.17,-110.819 1002.25,-103.819"/>
</a>
<a xlink:href="http://latin.omdoc.org/translations/tt_zfc?STT?[http://latin.omdoc.org/type_theories?TypesTerms]" class="[http://latin.omdoc.org/type_theories?TypesTerms]">
<text text-anchor="middle" x="1527.66" y="-146.3" font-family="Times New Roman,serif" font-size="14.00">[http://latin.omdoc.org/type_theories?TypesTerms]</text>
</a>
</g>
<!-- http://latin.omdoc.org/type_theories?TypesTerms&#45;&gt;http://latin.omdoc.org/type_theories?STT&#45;MLTT -->
<g id="edge49" class="edge"><title>http://latin.omdoc.org/type_theories?TypesTerms&#45;&gt;http://latin.omdoc.org/type_theories?STT&#45;MLTT</title>
<a xlink:href="http://latin.omdoc.org/type_theories?STT-MLTT?[http://latin.omdoc.org/type_theories?TypesTerms]" class="graphstructure">
<path fill="none" stroke="black" d="M765.597,-190.282C846.476,-185.772 988.153,-175.464 1003.66,-158 1008.38,-152.683 1008.24,-147.443 1003.66,-142 999.051,-136.518 919.989,-123.986 862.421,-115.504"/>
<polygon fill="black" stroke="black" points="862.706,-112.009 852.305,-114.023 861.692,-118.935 862.706,-112.009"/>
</a>
<a xlink:href="http://latin.omdoc.org/type_theories?STT-MLTT?[http://latin.omdoc.org/type_theories?TypesTerms]" class="[http://latin.omdoc.org/type_theories?TypesTerms]">
<text text-anchor="middle" x="1149.66" y="-146.3" font-family="Times New Roman,serif" font-size="14.00">[http://latin.omdoc.org/type_theories?TypesTerms]</text>
</a>
</g>
<!-- http://latin.omdoc.org/type_theories?TypesTerms&#45;&gt;http://latin.omdoc.org/type_theories?STT -->
<g id="edge53" class="edge"><title>http://latin.omdoc.org/type_theories?TypesTerms&#45;&gt;http://latin.omdoc.org/type_theories?STT</title>
<a class="graphinclude">
<path fill="none" stroke="black" d="M766.83,-193.403C990.807,-194.703 1798.16,-196.684 1835.66,-158 1842.75,-150.687 1840.71,-140.342 1836.03,-130.878"/>
<polygon fill="black" stroke="black" points="1839.02,-129.063 1830.95,-122.203 1832.98,-132.6 1839.02,-129.063"/>
</a>
</g>
<!-- http://cds.omdoc.org/urtheories?LF -->
<g id="node21" class="node"><title>http://cds.omdoc.org/urtheories?LF</title>
<a xlink:href="http://cds.omdoc.org/urtheories?LF" class="graphtheory">
<ellipse fill="gray" stroke="black" cx="307.661" cy="-356" rx="27" ry="18"/>
<text text-anchor="middle" x="307.661" y="-352.3" font-family="Times New Roman,serif" font-size="14.00">LF</text>
</a>
</g>
<!-- http://cds.omdoc.org/urtheories?LF&#45;&gt;http://latin.omdoc.org/type_theories?Product -->
<g id="edge21" class="edge"><title>http://cds.omdoc.org/urtheories?LF&#45;&gt;http://latin.omdoc.org/type_theories?Product</title>
<a class="graphmeta">
<path fill="none" stroke="black" d="M281.811,-350.398C250.982,-343.798 199.282,-329.088 164.661,-300 139.453,-278.82 121.688,-244.837 111.586,-221.294"/>
<polygon fill="black" stroke="black" points="114.767,-219.828 107.726,-211.911 108.294,-222.491 114.767,-219.828"/>
</a>
</g>
<!-- http://cds.omdoc.org/urtheories?LF&#45;&gt;http://latin.omdoc.org/type_theories?SIGMA -->
<g id="edge29" class="edge"><title>http://cds.omdoc.org/urtheories?LF&#45;&gt;http://latin.omdoc.org/type_theories?SIGMA</title>
<a class="graphmeta">
<path fill="none" stroke="black" d="M310.962,-337.944C316.6,-303.554 324.209,-225.004 287.661,-176 283.684,-170.667 210.493,-140.973 163.553,-122.318"/>
<polygon fill="black" stroke="black" points="164.555,-118.95 153.969,-118.517 161.974,-125.457 164.555,-118.95"/>
</a>
</g>
<!-- http://cds.omdoc.org/urtheories?LF&#45;&gt;http://latin.omdoc.org/translations/stt_prop?CH&#45;IPL -->
<g id="edge43" class="edge"><title>http://cds.omdoc.org/urtheories?LF&#45;&gt;http://latin.omdoc.org/translations/stt_prop?CH&#45;IPL</title>
<a class="graphmeta">
<path fill="none" stroke="black" d="M334.45,-353.473C524.951,-342.35 1669.85,-271.025 1768.66,-158 1779.4,-145.721 1766.58,-133.368 1750.52,-123.896"/>
<polygon fill="black" stroke="black" points="1751.85,-120.636 1741.39,-118.949 1748.52,-126.791 1751.85,-120.636"/>
</a>
</g>
<!-- http://cds.omdoc.org/urtheories?LF&#45;&gt;http://latin.omdoc.org/foundations/zfc?Products -->
<g id="edge45" class="edge"><title>http://cds.omdoc.org/urtheories?LF&#45;&gt;http://latin.omdoc.org/foundations/zfc?Products</title>
<a class="graphmeta">
<path fill="none" stroke="black" d="M314.872,-338.45C317.228,-332.679 319.732,-326.117 321.661,-320 342.376,-254.324 358.828,-174.842 366.665,-134.049"/>
<polygon fill="black" stroke="black" points="370.132,-134.554 368.557,-124.077 363.254,-133.249 370.132,-134.554"/>
</a>
</g>
<!-- http://cds.omdoc.org/urtheories?LF&#45;&gt;http://latin.omdoc.org/logics/syntax?CONJ -->
<g id="edge37" class="edge"><title>http://cds.omdoc.org/urtheories?LF&#45;&gt;http://latin.omdoc.org/logics/syntax?CONJ</title>
<a class="graphmeta">
<path fill="none" stroke="black" d="M288.687,-342.652C278.746,-336.076 266.431,-327.763 255.661,-320 248.422,-314.782 240.711,-308.96 233.636,-303.508"/>
<polygon fill="black" stroke="black" points="235.732,-300.704 225.688,-297.335 231.438,-306.233 235.732,-300.704"/>
</a>
</g>
<!-- http://cds.omdoc.org/urtheories?LF&#45;&gt;http://latin.omdoc.org/logics/proof_theory?CONJ -->
<g id="edge35" class="edge"><title>http://cds.omdoc.org/urtheories?LF&#45;&gt;http://latin.omdoc.org/logics/proof_theory?CONJ</title>
<a class="graphmeta">
<path fill="none" stroke="black" d="M300.92,-338.284C298.602,-332.5 296.002,-325.971 293.661,-320 280.389,-286.14 265.412,-246.982 255.771,-221.647"/>
<polygon fill="black" stroke="black" points="258.933,-220.116 252.108,-212.012 252.39,-222.603 258.933,-220.116"/>
</a>
</g>
<!-- http://cds.omdoc.org/urtheories?LF&#45;&gt;http://latin.omdoc.org/type_theories?STT -->
<g id="edge31" class="edge"><title>http://cds.omdoc.org/urtheories?LF&#45;&gt;http://latin.omdoc.org/type_theories?STT</title>
<a class="graphmeta">
<path fill="none" stroke="black" d="M334.688,-354.917C540.089,-354.226 1847.6,-348.699 1875.66,-320 1931.47,-262.927 1890.71,-211.625 1851.66,-142 1848.9,-137.083 1845.31,-132.326 1841.5,-127.986"/>
<polygon fill="black" stroke="black" points="1843.99,-125.527 1834.57,-120.68 1838.92,-130.344 1843.99,-125.527"/>
</a>
</g>
<!-- http://cds.omdoc.org/urtheories?LF&#45;&gt;http://latin.omdoc.org/type_theories?TypesTerms -->
<g id="edge33" class="edge"><title>http://cds.omdoc.org/urtheories?LF&#45;&gt;http://latin.omdoc.org/type_theories?TypesTerms</title>
<a class="graphmeta">
<path fill="none" stroke="black" d="M331.893,-347.82C353.921,-341.134 387.229,-330.627 415.661,-320 507.746,-285.58 613.253,-238.901 669.453,-213.439"/>
<polygon fill="black" stroke="black" points="671.042,-216.561 678.7,-209.239 668.148,-210.188 671.042,-216.561"/>
</a>
</g>
<!-- http://cds.omdoc.org/urtheories?LF&#45;&gt;http://latin.omdoc.org/foundations/zfc?DependentProducts -->
<g id="edge39" class="edge"><title>http://cds.omdoc.org/urtheories?LF&#45;&gt;http://latin.omdoc.org/foundations/zfc?DependentProducts</title>
<a class="graphmeta">
<path fill="none" stroke="black" d="M334.596,-354.299C442.837,-351.278 856.557,-337.766 1194.66,-300 1415.7,-275.31 1473.84,-277.611 1688.66,-220 1763.52,-199.924 1804.47,-219.485 1851.66,-158 1879.91,-121.196 1892.48,-87.7636 1860.66,-54 1843.9,-36.2121 1525.16,-25.5122 1363.31,-21.2046"/>
<polygon fill="black" stroke="black" points="1362.97,-17.6945 1352.88,-20.9301 1362.78,-24.6921 1362.97,-17.6945"/>
</a>
</g>
<!-- http://cds.omdoc.org/urtheories?LF&#45;&gt;http://latin.omdoc.org/type_theories?MLTT -->
<g id="edge41" class="edge"><title>http://cds.omdoc.org/urtheories?LF&#45;&gt;http://latin.omdoc.org/type_theories?MLTT</title>
<a class="graphmeta">
<path fill="none" stroke="black" d="M334.68,-354.882C537.317,-353.939 1813.36,-346.939 1889.66,-320 1915.06,-311.032 1937.66,-309.936 1937.66,-283 1937.66,-283 1937.66,-283 1937.66,-105 1937.66,-56.3392 1877.11,-34.7433 1833.47,-25.4977"/>
<polygon fill="black" stroke="black" points="1834.1,-22.0555 1823.62,-23.555 1832.75,-28.9233 1834.1,-22.0555"/>
</a>
</g>
</g>
</svg>
