<?xml version="1.0" encoding="UTF-8" standalone="no"?>
<!DOCTYPE svg PUBLIC "-//W3C//DTD SVG 1.1//EN"
 "http://www.w3.org/Graphics/SVG/1.1/DTD/svg11.dtd">
<!-- Generated by graphviz version 2.28.0 (20110507.0327)
 -->
<!-- Title: MMT Pages: 1 -->
<svg width="289pt" height="368pt"
 viewBox="0.00 0.00 289.00 368.00" xmlns="http://www.w3.org/2000/svg" xmlns:xlink="http://www.w3.org/1999/xlink">
<g id="graph1" class="graph" transform="scale(1 1) rotate(0) translate(4 364)">
<title>MMT</title>
<polygon fill="white" stroke="white" points="-4,5 -4,-364 286,-364 286,5 -4,5"/>
<g id="graph2" class="cluster"><title>cluster_local</title>
<polygon fill="none" stroke="black" points="152,-80 152,-132 248,-132 248,-80 152,-80"/>
</g>
<!-- http://latin.omdoc.org/type_theories?SIGMA -->
<g id="node2" class="node"><title>http://latin.omdoc.org/type_theories?SIGMA</title>
<a xlink:href="http://latin.omdoc.org/type_theories?SIGMA" class="graphtheory">
<ellipse fill="none" stroke="black" cx="200" cy="-106" rx="39.9464" ry="18"/>
<text text-anchor="middle" x="200" y="-102.3" font-family="Times New Roman,serif" font-size="14.00">SIGMA</text>
</a>
</g>
<!-- http://latin.omdoc.org/foundations/zfc?DependentProducts -->
<g id="node3" class="node"><title>http://latin.omdoc.org/foundations/zfc?DependentProducts</title>
<a xlink:href="http://latin.omdoc.org/foundations/zfc?DependentProducts" class="graphtheory">
<ellipse fill="gray" stroke="black" cx="83" cy="-18" rx="83.2892" ry="18"/>
<text text-anchor="middle" x="83" y="-14.3" font-family="Times New Roman,serif" font-size="14.00">DependentProducts</text>
</a>
</g>
<!-- http://latin.omdoc.org/type_theories?SIGMA&#45;&gt;http://latin.omdoc.org/foundations/zfc?DependentProducts -->
<g id="edge3" class="edge"><title>http://latin.omdoc.org/type_theories?SIGMA&#45;&gt;http://latin.omdoc.org/foundations/zfc?DependentProducts</title>
<a xlink:href="http://latin.omdoc.org/translations/tt_zfc?SIGMA" class="graphview">
<path fill="none" stroke="black" d="M179.887,-90.2161C161.626,-76.7935 134.431,-56.8037 113.497,-41.4163"/>
<polygon fill="black" stroke="black" points="115.371,-38.45 105.24,-35.3475 111.225,-44.0902 115.371,-38.45"/>
</a>
<a xlink:href="http://latin.omdoc.org/translations/tt_zfc?SIGMA" class="SIGMA">
<text text-anchor="middle" x="175" y="-58.3" font-family="Times New Roman,serif" font-size="14.00">SIGMA</text>
</a>
</g>
<!-- http://latin.omdoc.org/type_theories?MLTT -->
<g id="node7" class="node"><title>http://latin.omdoc.org/type_theories?MLTT</title>
<a xlink:href="http://latin.omdoc.org/type_theories?MLTT" class="graphtheory">
<ellipse fill="gray" stroke="black" cx="245" cy="-18" rx="35.6194" ry="18"/>
<text text-anchor="middle" x="245" y="-14.3" font-family="Times New Roman,serif" font-size="14.00">MLTT</text>
</a>
</g>
<!-- http://latin.omdoc.org/type_theories?SIGMA&#45;&gt;http://latin.omdoc.org/type_theories?MLTT -->
<g id="edge7" class="edge"><title>http://latin.omdoc.org/type_theories?SIGMA&#45;&gt;http://latin.omdoc.org/type_theories?MLTT</title>
<a class="graphinclude">
<path fill="none" stroke="black" d="M208.676,-88.4183C215.151,-76.0451 224.118,-58.9069 231.523,-44.7555"/>
<polygon fill="black" stroke="black" points="234.815,-46.0138 236.35,-35.5308 228.613,-42.7684 234.815,-46.0138"/>
</a>
</g>
<!-- http://latin.omdoc.org/type_theories?Product -->
<g id="node5" class="node"><title>http://latin.omdoc.org/type_theories?Product</title>
<a xlink:href="http://latin.omdoc.org/type_theories?Product" class="graphtheory">
<ellipse fill="gray" stroke="black" cx="100" cy="-194" rx="39.9464" ry="18"/>
<text text-anchor="middle" x="100" y="-190.3" font-family="Times New Roman,serif" font-size="14.00">Product</text>
</a>
</g>
<!-- http://latin.omdoc.org/type_theories?Product&#45;&gt;http://latin.omdoc.org/type_theories?SIGMA -->
<g id="edge5" class="edge"><title>http://latin.omdoc.org/type_theories?Product&#45;&gt;http://latin.omdoc.org/type_theories?SIGMA</title>
<a xlink:href="http://latin.omdoc.org/type_theories?Product-Sigma" class="graphview">
<path fill="none" stroke="black" d="M95.3067,-175.933C93.3983,-164.991 93.1926,-151.171 101,-142 117.106,-123.082 132.646,-140.479 156,-132 160.511,-130.362 165.1,-128.285 169.529,-126.031"/>
<polygon fill="black" stroke="black" points="171.214,-129.098 178.318,-121.238 167.863,-122.953 171.214,-129.098"/>
</a>
<a xlink:href="http://latin.omdoc.org/type_theories?Product-Sigma" class="Product&#45;Sigma">
<text text-anchor="middle" x="143.5" y="-146.3" font-family="Times New Roman,serif" font-size="14.00">Product&#45;Sigma</text>
</a>
</g>
<!-- http://latin.omdoc.org/type_theories?TypesTerms -->
<g id="node9" class="node"><title>http://latin.omdoc.org/type_theories?TypesTerms</title>
<a xlink:href="http://latin.omdoc.org/type_theories?TypesTerms" class="graphtheory">
<ellipse fill="gray" stroke="black" cx="154" cy="-268" rx="57.2927" ry="18"/>
<text text-anchor="middle" x="154" y="-264.3" font-family="Times New Roman,serif" font-size="14.00">TypesTerms</text>
</a>
</g>
<!-- http://latin.omdoc.org/type_theories?TypesTerms&#45;&gt;http://latin.omdoc.org/type_theories?SIGMA -->
<g id="edge9" class="edge"><title>http://latin.omdoc.org/type_theories?TypesTerms&#45;&gt;http://latin.omdoc.org/type_theories?SIGMA</title>
<a class="graphinclude">
<path fill="none" stroke="black" d="M159.081,-250.035C165.473,-228.619 176.732,-190.632 186,-158 188.233,-150.139 190.605,-141.58 192.75,-133.758"/>
<polygon fill="black" stroke="black" points="196.151,-134.59 195.408,-124.021 189.398,-132.746 196.151,-134.59"/>
</a>
</g>
<!-- http://latin.omdoc.org/type_theories?TypesTerms&#45;&gt;http://latin.omdoc.org/type_theories?Product -->
<g id="edge21" class="edge"><title>http://latin.omdoc.org/type_theories?TypesTerms&#45;&gt;http://latin.omdoc.org/type_theories?Product</title>
<a class="graphinclude">
<path fill="none" stroke="black" d="M141.476,-250.301C134.66,-241.213 126.097,-229.797 118.525,-219.7"/>
<polygon fill="black" stroke="black" points="121.257,-217.509 112.456,-211.609 115.657,-221.709 121.257,-217.509"/>
</a>
</g>
<!-- http://cds.omdoc.org/urtheories?LF -->
<g id="node11" class="node"><title>http://cds.omdoc.org/urtheories?LF</title>
<a xlink:href="http://cds.omdoc.org/urtheories?LF" class="graphtheory">
<ellipse fill="gray" stroke="black" cx="154" cy="-342" rx="27" ry="18"/>
<text text-anchor="middle" x="154" y="-338.3" font-family="Times New Roman,serif" font-size="14.00">LF</text>
</a>
</g>
<!-- http://cds.omdoc.org/urtheories?LF&#45;&gt;http://latin.omdoc.org/type_theories?SIGMA -->
<g id="edge11" class="edge"><title>http://cds.omdoc.org/urtheories?LF&#45;&gt;http://latin.omdoc.org/type_theories?SIGMA</title>
<a class="graphmeta">
<path fill="none" stroke="black" d="M174.648,-330.377C190.319,-321.043 210.7,-305.856 220,-286 243.519,-235.785 224.859,-169.249 211.169,-133.097"/>
<polygon fill="black" stroke="black" points="214.405,-131.763 207.479,-123.745 207.894,-134.332 214.405,-131.763"/>
</a>
</g>
<!-- http://cds.omdoc.org/urtheories?LF&#45;&gt;http://latin.omdoc.org/foundations/zfc?DependentProducts -->
<g id="edge17" class="edge"><title>http://cds.omdoc.org/urtheories?LF&#45;&gt;http://latin.omdoc.org/foundations/zfc?DependentProducts</title>
<a class="graphmeta">
<path fill="none" stroke="black" d="M127.613,-337.453C91.472,-330.943 31,-313.415 31,-269 31,-269 31,-269 31,-105 31,-81.8218 45.0025,-59.5409 58.4751,-43.4675"/>
<polygon fill="black" stroke="black" points="61.3839,-45.4622 65.3952,-35.6561 56.1442,-40.8204 61.3839,-45.4622"/>
</a>
</g>
<!-- http://cds.omdoc.org/urtheories?LF&#45;&gt;http://latin.omdoc.org/type_theories?Product -->
<g id="edge15" class="edge"><title>http://cds.omdoc.org/urtheories?LF&#45;&gt;http://latin.omdoc.org/type_theories?Product</title>
<a class="graphmeta">
<path fill="none" stroke="black" d="M133.352,-330.377C117.681,-321.043 97.2999,-305.856 88,-286 78.4892,-265.694 83.0591,-240.218 89.1041,-221.39"/>
<polygon fill="black" stroke="black" points="92.4076,-222.546 92.4331,-211.951 85.8061,-220.218 92.4076,-222.546"/>
</a>
</g>
<!-- http://cds.omdoc.org/urtheories?LF&#45;&gt;http://latin.omdoc.org/type_theories?MLTT -->
<g id="edge19" class="edge"><title>http://cds.omdoc.org/urtheories?LF&#45;&gt;http://latin.omdoc.org/type_theories?MLTT</title>
<a class="graphmeta">
<path fill="none" stroke="black" d="M180.387,-337.453C216.528,-330.943 277,-313.415 277,-269 277,-269 277,-269 277,-105 277,-83.6928 268.265,-61.1749 259.923,-44.5275"/>
<polygon fill="black" stroke="black" points="262.895,-42.6607 255.125,-35.4577 256.707,-45.9338 262.895,-42.6607"/>
</a>
</g>
<!-- http://cds.omdoc.org/urtheories?LF&#45;&gt;http://latin.omdoc.org/type_theories?TypesTerms -->
<g id="edge13" class="edge"><title>http://cds.omdoc.org/urtheories?LF&#45;&gt;http://latin.omdoc.org/type_theories?TypesTerms</title>
<a class="graphmeta">
<path fill="none" stroke="black" d="M154,-323.937C154,-315.807 154,-305.876 154,-296.705"/>
<polygon fill="black" stroke="black" points="157.5,-296.441 154,-286.441 150.5,-296.441 157.5,-296.441"/>
</a>
</g>
</g>
</svg>
