<?xml version="1.0" encoding="UTF-8" standalone="no"?>
<!DOCTYPE svg PUBLIC "-//W3C//DTD SVG 1.1//EN"
 "http://www.w3.org/Graphics/SVG/1.1/DTD/svg11.dtd">
<!-- Generated by graphviz version 2.28.0 (20110507.0327)
 -->
<!-- Title: MMT Pages: 1 -->
<svg width="372pt" height="294pt"
 viewBox="0.00 0.00 372.00 294.00" xmlns="http://www.w3.org/2000/svg" xmlns:xlink="http://www.w3.org/1999/xlink">
<g id="graph1" class="graph" transform="scale(1 1) rotate(0) translate(4 290)">
<title>MMT</title>
<polygon fill="white" stroke="white" points="-4,5 -4,-290 369,-290 369,5 -4,5"/>
<g id="graph2" class="cluster"><title>cluster_local</title>
<polygon fill="none" stroke="black" points="147,-80 147,-132 251,-132 251,-80 147,-80"/>
</g>
<!-- http://latin.omdoc.org/type_theories?SimpFun -->
<g id="node2" class="node"><title>http://latin.omdoc.org/type_theories?SimpFun</title>
<a xlink:href="http://latin.omdoc.org/type_theories?SimpFun" class="graphtheory">
<ellipse fill="none" stroke="black" cx="199" cy="-106" rx="44.2946" ry="18"/>
<text text-anchor="middle" x="199" y="-102.3" font-family="Times New Roman,serif" font-size="14.00">SimpFun</text>
</a>
</g>
<!-- http://latin.omdoc.org/type_theories?SimpKinds -->
<g id="node3" class="node"><title>http://latin.omdoc.org/type_theories?SimpKinds</title>
<a xlink:href="http://latin.omdoc.org/type_theories?SimpKinds" class="graphtheory">
<ellipse fill="gray" stroke="black" cx="51" cy="-18" rx="51.0191" ry="18"/>
<text text-anchor="middle" x="51" y="-14.3" font-family="Times New Roman,serif" font-size="14.00">SimpKinds</text>
</a>
</g>
<!-- http://latin.omdoc.org/type_theories?SimpFun&#45;&gt;http://latin.omdoc.org/type_theories?SimpKinds -->
<g id="edge3" class="edge"><title>http://latin.omdoc.org/type_theories?SimpFun&#45;&gt;http://latin.omdoc.org/type_theories?SimpKinds</title>
<a xlink:href="http://latin.omdoc.org/type_theories?SimpKinds?funkinds" class="graphstructure">
<path fill="none" stroke="black" d="M173.754,-91.2251C162.196,-84.8547 148.352,-77.1338 136,-70 118.809,-60.0709 99.8508,-48.7343 84.2093,-39.2748"/>
<polygon fill="black" stroke="black" points="85.7873,-36.1385 75.4215,-33.947 82.1582,-42.1243 85.7873,-36.1385"/>
</a>
<a xlink:href="http://latin.omdoc.org/type_theories?SimpKinds?funkinds" class="funkinds">
<text text-anchor="middle" x="160.5" y="-58.3" font-family="Times New Roman,serif" font-size="14.00">funkinds</text>
</a>
</g>
<!-- http://latin.omdoc.org/type_theories?SimpTypes -->
<g id="node5" class="node"><title>http://latin.omdoc.org/type_theories?SimpTypes</title>
<a xlink:href="http://latin.omdoc.org/type_theories?SimpTypes" class="graphtheory">
<ellipse fill="gray" stroke="black" cx="312" cy="-18" rx="52.4675" ry="18"/>
<text text-anchor="middle" x="312" y="-14.3" font-family="Times New Roman,serif" font-size="14.00">SimpTypes</text>
</a>
</g>
<!-- http://latin.omdoc.org/type_theories?SimpFun&#45;&gt;http://latin.omdoc.org/type_theories?SimpTypes -->
<g id="edge5" class="edge"><title>http://latin.omdoc.org/type_theories?SimpFun&#45;&gt;http://latin.omdoc.org/type_theories?SimpTypes</title>
<a xlink:href="http://latin.omdoc.org/type_theories?SimpTypes?funtypes" class="graphstructure">
<path fill="none" stroke="black" d="M212.463,-88.5747C221.736,-77.9042 234.736,-64.1447 248,-54 255.765,-48.0616 264.665,-42.5223 273.311,-37.6814"/>
<polygon fill="black" stroke="black" points="275.031,-40.7303 282.17,-32.9019 271.707,-34.5697 275.031,-40.7303"/>
</a>
<a xlink:href="http://latin.omdoc.org/type_theories?SimpTypes?funtypes" class="funtypes">
<text text-anchor="middle" x="272.5" y="-58.3" font-family="Times New Roman,serif" font-size="14.00">funtypes</text>
</a>
</g>
<!-- http://latin.omdoc.org/foundations/minimal?STTIFOLEQ -->
<g id="node7" class="node"><title>http://latin.omdoc.org/foundations/minimal?STTIFOLEQ</title>
<a xlink:href="http://latin.omdoc.org/foundations/minimal?STTIFOLEQ" class="graphtheory">
<ellipse fill="gray" stroke="black" cx="181" cy="-18" rx="60.1672" ry="18"/>
<text text-anchor="middle" x="181" y="-14.3" font-family="Times New Roman,serif" font-size="14.00">STTIFOLEQ</text>
</a>
</g>
<!-- http://latin.omdoc.org/type_theories?SimpFun&#45;&gt;http://latin.omdoc.org/foundations/minimal?STTIFOLEQ -->
<g id="edge7" class="edge"><title>http://latin.omdoc.org/type_theories?SimpFun&#45;&gt;http://latin.omdoc.org/foundations/minimal?STTIFOLEQ</title>
<a xlink:href="http://latin.omdoc.org/foundations/minimal?STTIFOLEQ?fun" class="graphstructure">
<path fill="none" stroke="black" d="M195.444,-88.0092C192.945,-76.0727 189.551,-59.8532 186.68,-46.1377"/>
<polygon fill="black" stroke="black" points="190.085,-45.3208 184.61,-36.2499 183.233,-46.7549 190.085,-45.3208"/>
</a>
<a xlink:href="http://latin.omdoc.org/foundations/minimal?STTIFOLEQ?fun" class="fun">
<text text-anchor="middle" x="201.5" y="-58.3" font-family="Times New Roman,serif" font-size="14.00">fun</text>
</a>
</g>
<!-- http://latin.omdoc.org/type_theories?Level -->
<g id="node9" class="node"><title>http://latin.omdoc.org/type_theories?Level</title>
<a xlink:href="http://latin.omdoc.org/type_theories?Level" class="graphtheory">
<ellipse fill="gray" stroke="black" cx="199" cy="-194" rx="30.3206" ry="18"/>
<text text-anchor="middle" x="199" y="-190.3" font-family="Times New Roman,serif" font-size="14.00">Level</text>
</a>
</g>
<!-- http://latin.omdoc.org/type_theories?Level&#45;&gt;http://latin.omdoc.org/type_theories?SimpFun -->
<g id="edge9" class="edge"><title>http://latin.omdoc.org/type_theories?Level&#45;&gt;http://latin.omdoc.org/type_theories?SimpFun</title>
<a xlink:href="http://latin.omdoc.org/type_theories?SimpFun?level" class="graphstructure">
<path fill="none" stroke="black" d="M199,-175.597C199,-163.746 199,-147.817 199,-134.292"/>
<polygon fill="black" stroke="black" points="202.5,-134.084 199,-124.084 195.5,-134.084 202.5,-134.084"/>
</a>
<a xlink:href="http://latin.omdoc.org/type_theories?SimpFun?level" class="level">
<text text-anchor="middle" x="211.5" y="-146.3" font-family="Times New Roman,serif" font-size="14.00">level</text>
</a>
</g>
<!-- http://cds.omdoc.org/urtheories?LF -->
<g id="node11" class="node"><title>http://cds.omdoc.org/urtheories?LF</title>
<a xlink:href="http://cds.omdoc.org/urtheories?LF" class="graphtheory">
<ellipse fill="gray" stroke="black" cx="140" cy="-268" rx="27" ry="18"/>
<text text-anchor="middle" x="140" y="-264.3" font-family="Times New Roman,serif" font-size="14.00">LF</text>
</a>
</g>
<!-- http://cds.omdoc.org/urtheories?LF&#45;&gt;http://latin.omdoc.org/type_theories?SimpFun -->
<g id="edge11" class="edge"><title>http://cds.omdoc.org/urtheories?LF&#45;&gt;http://latin.omdoc.org/type_theories?SimpFun</title>
<a class="graphmeta">
<path fill="none" stroke="black" d="M141.932,-249.767C144.401,-231.113 149.537,-200.719 159,-176 164.856,-160.704 173.84,-144.811 181.812,-132.139"/>
<polygon fill="black" stroke="black" points="184.884,-133.833 187.378,-123.536 179.007,-130.031 184.884,-133.833"/>
</a>
</g>
<!-- http://cds.omdoc.org/urtheories?LF&#45;&gt;http://latin.omdoc.org/type_theories?SimpKinds -->
<g id="edge17" class="edge"><title>http://cds.omdoc.org/urtheories?LF&#45;&gt;http://latin.omdoc.org/type_theories?SimpKinds</title>
<a class="graphmeta">
<path fill="none" stroke="black" d="M126.75,-252.118C118.004,-241.58 106.921,-226.75 100,-212 73.8711,-156.313 60.3922,-84.7976 54.6013,-46.3601"/>
<polygon fill="black" stroke="black" points="57.9977,-45.3895 53.1064,-35.9913 51.0693,-46.3884 57.9977,-45.3895"/>
</a>
</g>
<!-- http://cds.omdoc.org/urtheories?LF&#45;&gt;http://latin.omdoc.org/type_theories?SimpTypes -->
<g id="edge13" class="edge"><title>http://cds.omdoc.org/urtheories?LF&#45;&gt;http://latin.omdoc.org/type_theories?SimpTypes</title>
<a class="graphmeta">
<path fill="none" stroke="black" d="M163.503,-258.958C185.402,-250.394 217.651,-234.895 238,-212 281.33,-163.248 300.435,-86.434 307.871,-45.9809"/>
<polygon fill="black" stroke="black" points="311.333,-46.5043 309.595,-36.0531 304.436,-45.3072 311.333,-46.5043"/>
</a>
</g>
<!-- http://cds.omdoc.org/urtheories?LF&#45;&gt;http://latin.omdoc.org/foundations/minimal?STTIFOLEQ -->
<g id="edge15" class="edge"><title>http://cds.omdoc.org/urtheories?LF&#45;&gt;http://latin.omdoc.org/foundations/minimal?STTIFOLEQ</title>
<a class="graphmeta">
<path fill="none" stroke="black" d="M131.386,-250.857C112.603,-213.231 72.6741,-118.044 112,-54 116.547,-46.5956 123.201,-40.6984 130.608,-36.0195"/>
<polygon fill="black" stroke="black" points="132.507,-38.9689 139.567,-31.0692 129.122,-32.8419 132.507,-38.9689"/>
</a>
</g>
<!-- http://cds.omdoc.org/urtheories?LF&#45;&gt;http://latin.omdoc.org/type_theories?Level -->
<g id="edge19" class="edge"><title>http://cds.omdoc.org/urtheories?LF&#45;&gt;http://latin.omdoc.org/type_theories?Level</title>
<a class="graphmeta">
<path fill="none" stroke="black" d="M152.512,-251.731C160.383,-242.125 170.702,-229.534 179.617,-218.654"/>
<polygon fill="black" stroke="black" points="182.467,-220.698 186.098,-210.745 177.052,-216.261 182.467,-220.698"/>
</a>
</g>
</g>
</svg>
