<?xml version="1.0" encoding="UTF-8" standalone="no"?>
<!DOCTYPE svg PUBLIC "-//W3C//DTD SVG 1.1//EN"
 "http://www.w3.org/Graphics/SVG/1.1/DTD/svg11.dtd">
<!-- Generated by graphviz version 2.28.0 (20110507.0327)
 -->
<!-- Title: MMT Pages: 1 -->
<svg width="852pt" height="280pt"
 viewBox="0.00 0.00 852.00 280.00" xmlns="http://www.w3.org/2000/svg" xmlns:xlink="http://www.w3.org/1999/xlink">
<g id="graph1" class="graph" transform="scale(1 1) rotate(0) translate(4 276)">
<title>MMT</title>
<polygon fill="white" stroke="white" points="-4,5 -4,-276 849,-276 849,5 -4,5"/>
<g id="graph2" class="cluster"><title>cluster_local</title>
<polygon fill="none" stroke="black" points="157,-80 157,-132 275,-132 275,-80 157,-80"/>
</g>
<!-- http://latin.omdoc.org/type_theories?UnivTypes -->
<g id="node2" class="node"><title>http://latin.omdoc.org/type_theories?UnivTypes</title>
<a xlink:href="http://latin.omdoc.org/type_theories?UnivTypes" class="graphtheory">
<ellipse fill="none" stroke="black" cx="216" cy="-106" rx="50.5427" ry="18"/>
<text text-anchor="middle" x="216" y="-102.3" font-family="Times New Roman,serif" font-size="14.00">UnivTypes</text>
</a>
</g>
<!-- http://latin.omdoc.org/type_theories?Lambda2ToOmega -->
<g id="node3" class="node"><title>http://latin.omdoc.org/type_theories?Lambda2ToOmega</title>
<a xlink:href="http://latin.omdoc.org/type_theories?Lambda2ToOmega" class="graphtheory">
<ellipse fill="gray" stroke="black" cx="199" cy="-18" rx="81.3646" ry="18"/>
<text text-anchor="middle" x="199" y="-14.3" font-family="Times New Roman,serif" font-size="14.00">Lambda2ToOmega</text>
</a>
</g>
<!-- http://latin.omdoc.org/type_theories?UnivTypes&#45;&gt;http://latin.omdoc.org/type_theories?Lambda2ToOmega -->
<g id="edge3" class="edge"><title>http://latin.omdoc.org/type_theories?UnivTypes&#45;&gt;http://latin.omdoc.org/type_theories?Lambda2ToOmega</title>
<a xlink:href="http://latin.omdoc.org/type_theories?Lambda2ToOmega?[http://latin.omdoc.org/type_theories?UnivTypes]" class="graphstructure">
<path fill="none" stroke="black" d="M204.725,-88.259C201.586,-82.6914 198.6,-76.2992 197,-70 195.081,-62.4422 194.717,-54.054 195.067,-46.2994"/>
<polygon fill="black" stroke="black" points="198.561,-46.5119 195.906,-36.2551 191.586,-45.9289 198.561,-46.5119"/>
</a>
<a xlink:href="http://latin.omdoc.org/type_theories?Lambda2ToOmega?[http://latin.omdoc.org/type_theories?UnivTypes]" class="[http://latin.omdoc.org/type_theories?UnivTypes]">
<text text-anchor="middle" x="335.5" y="-58.3" font-family="Times New Roman,serif" font-size="14.00">[http://latin.omdoc.org/type_theories?UnivTypes]</text>
</a>
</g>
<!-- http://latin.omdoc.org/type_theories?Lambda2ToP2 -->
<g id="node5" class="node"><title>http://latin.omdoc.org/type_theories?Lambda2ToP2</title>
<a xlink:href="http://latin.omdoc.org/type_theories?Lambda2ToP2" class="graphtheory">
<ellipse fill="gray" stroke="black" cx="496" cy="-18" rx="65.4659" ry="18"/>
<text text-anchor="middle" x="496" y="-14.3" font-family="Times New Roman,serif" font-size="14.00">Lambda2ToP2</text>
</a>
</g>
<!-- http://latin.omdoc.org/type_theories?UnivTypes&#45;&gt;http://latin.omdoc.org/type_theories?Lambda2ToP2 -->
<g id="edge5" class="edge"><title>http://latin.omdoc.org/type_theories?UnivTypes&#45;&gt;http://latin.omdoc.org/type_theories?Lambda2ToP2</title>
<a xlink:href="http://latin.omdoc.org/type_theories?Lambda2ToP2?[http://latin.omdoc.org/type_theories?UnivTypes]" class="graphstructure">
<path fill="none" stroke="black" d="M241.902,-90.5558C250.577,-86.3925 260.47,-82.3451 270,-80 292.037,-74.5774 455.351,-82.9309 474,-70 482.147,-64.351 487.299,-55.0135 490.547,-45.8614"/>
<polygon fill="black" stroke="black" points="493.929,-46.7668 493.376,-36.1864 487.21,-44.8022 493.929,-46.7668"/>
</a>
<a xlink:href="http://latin.omdoc.org/type_theories?Lambda2ToP2?[http://latin.omdoc.org/type_theories?UnivTypes]" class="[http://latin.omdoc.org/type_theories?UnivTypes]">
<text text-anchor="middle" x="626.5" y="-58.3" font-family="Times New Roman,serif" font-size="14.00">[http://latin.omdoc.org/type_theories?UnivTypes]</text>
</a>
</g>
<!-- http://latin.omdoc.org/type_theories?PolyTypes -->
<g id="node7" class="node"><title>http://latin.omdoc.org/type_theories?PolyTypes</title>
<a xlink:href="http://latin.omdoc.org/type_theories?PolyTypes" class="graphtheory">
<ellipse fill="gray" stroke="black" cx="50" cy="-18" rx="50.0684" ry="18"/>
<text text-anchor="middle" x="50" y="-14.3" font-family="Times New Roman,serif" font-size="14.00">PolyTypes</text>
</a>
</g>
<!-- http://latin.omdoc.org/type_theories?UnivTypes&#45;&gt;http://latin.omdoc.org/type_theories?PolyTypes -->
<g id="edge7" class="edge"><title>http://latin.omdoc.org/type_theories?UnivTypes&#45;&gt;http://latin.omdoc.org/type_theories?PolyTypes</title>
<a xlink:href="http://latin.omdoc.org/type_theories?UnivToPoly" class="graphview">
<path fill="none" stroke="black" d="M187.548,-90.9604C179.122,-87.1059 169.794,-83.1305 161,-80 144.547,-74.1435 138.848,-77.3367 123,-70 106.658,-62.4344 90.0734,-51.1947 76.8509,-41.1908"/>
<polygon fill="black" stroke="black" points="78.7281,-38.217 68.6837,-34.8463 74.4338,-43.7451 78.7281,-38.217"/>
</a>
<a xlink:href="http://latin.omdoc.org/type_theories?UnivToPoly" class="UnivToPoly">
<text text-anchor="middle" x="157.5" y="-58.3" font-family="Times New Roman,serif" font-size="14.00">UnivToPoly</text>
</a>
</g>
<!-- http://latin.omdoc.org/type_theories?Lambda2 -->
<g id="node9" class="node"><title>http://latin.omdoc.org/type_theories?Lambda2</title>
<a xlink:href="http://latin.omdoc.org/type_theories?Lambda2" class="graphtheory">
<ellipse fill="gray" stroke="black" cx="800" cy="-18" rx="44.271" ry="18"/>
<text text-anchor="middle" x="800" y="-14.3" font-family="Times New Roman,serif" font-size="14.00">Lambda2</text>
</a>
</g>
<!-- http://latin.omdoc.org/type_theories?UnivTypes&#45;&gt;http://latin.omdoc.org/type_theories?Lambda2 -->
<g id="edge9" class="edge"><title>http://latin.omdoc.org/type_theories?UnivTypes&#45;&gt;http://latin.omdoc.org/type_theories?Lambda2</title>
<a class="graphinclude">
<path fill="none" stroke="black" d="M241.863,-90.3918C250.535,-86.2187 260.437,-82.207 270,-80 297.018,-73.7649 744.97,-83.8335 769,-70 778.564,-64.4946 785.535,-54.7433 790.416,-45.2317"/>
<polygon fill="black" stroke="black" points="793.675,-46.5189 794.619,-35.9661 787.301,-43.6273 793.675,-46.5189"/>
</a>
</g>
<!-- http://latin.omdoc.org/type_theories?TypesTerms -->
<g id="node11" class="node"><title>http://latin.omdoc.org/type_theories?TypesTerms</title>
<a xlink:href="http://latin.omdoc.org/type_theories?TypesTerms" class="graphtheory">
<ellipse fill="gray" stroke="black" cx="152" cy="-180" rx="57.2927" ry="18"/>
<text text-anchor="middle" x="152" y="-176.3" font-family="Times New Roman,serif" font-size="14.00">TypesTerms</text>
</a>
</g>
<!-- http://latin.omdoc.org/type_theories?TypesTerms&#45;&gt;http://latin.omdoc.org/type_theories?UnivTypes -->
<g id="edge11" class="edge"><title>http://latin.omdoc.org/type_theories?TypesTerms&#45;&gt;http://latin.omdoc.org/type_theories?UnivTypes</title>
<a class="graphinclude">
<path fill="none" stroke="black" d="M166.844,-162.301C175.083,-153.032 185.476,-141.339 194.582,-131.095"/>
<polygon fill="black" stroke="black" points="197.209,-133.408 201.237,-123.609 191.977,-128.757 197.209,-133.408"/>
</a>
</g>
<!-- http://cds.omdoc.org/urtheories?LF -->
<g id="node13" class="node"><title>http://cds.omdoc.org/urtheories?LF</title>
<a xlink:href="http://cds.omdoc.org/urtheories?LF" class="graphtheory">
<ellipse fill="gray" stroke="black" cx="209" cy="-254" rx="27" ry="18"/>
<text text-anchor="middle" x="209" y="-250.3" font-family="Times New Roman,serif" font-size="14.00">LF</text>
</a>
</g>
<!-- http://cds.omdoc.org/urtheories?LF&#45;&gt;http://latin.omdoc.org/type_theories?UnivTypes -->
<g id="edge13" class="edge"><title>http://cds.omdoc.org/urtheories?LF&#45;&gt;http://latin.omdoc.org/type_theories?UnivTypes</title>
<a class="graphmeta">
<path fill="none" stroke="black" d="M212.561,-235.749C214.605,-224.955 216.965,-210.73 218,-198 219.736,-176.639 219.071,-152.371 218.062,-134.271"/>
<polygon fill="black" stroke="black" points="221.546,-133.899 217.426,-124.138 214.56,-134.338 221.546,-133.899"/>
</a>
</g>
<!-- http://cds.omdoc.org/urtheories?LF&#45;&gt;http://latin.omdoc.org/type_theories?PolyTypes -->
<g id="edge15" class="edge"><title>http://cds.omdoc.org/urtheories?LF&#45;&gt;http://latin.omdoc.org/type_theories?PolyTypes</title>
<a class="graphmeta">
<path fill="none" stroke="black" d="M183.072,-248.632C154.766,-242.452 110.247,-228.33 86,-198 50.7807,-153.944 47.1285,-84.6547 48.1762,-46.4932"/>
<polygon fill="black" stroke="black" points="51.6872,-46.2907 48.5979,-36.1563 44.6931,-46.0053 51.6872,-46.2907"/>
</a>
</g>
<!-- http://cds.omdoc.org/urtheories?LF&#45;&gt;http://latin.omdoc.org/type_theories?Lambda2 -->
<g id="edge19" class="edge"><title>http://cds.omdoc.org/urtheories?LF&#45;&gt;http://latin.omdoc.org/type_theories?Lambda2</title>
<a class="graphmeta">
<path fill="none" stroke="black" d="M236.292,-253.464C329.509,-253.46 637.906,-240.076 790,-70 795.815,-63.4971 798.664,-54.6313 799.958,-46.1152"/>
<polygon fill="black" stroke="black" points="803.451,-46.3562 800.86,-36.083 796.479,-45.7295 803.451,-46.3562"/>
</a>
</g>
<!-- http://cds.omdoc.org/urtheories?LF&#45;&gt;http://latin.omdoc.org/type_theories?TypesTerms -->
<g id="edge17" class="edge"><title>http://cds.omdoc.org/urtheories?LF&#45;&gt;http://latin.omdoc.org/type_theories?TypesTerms</title>
<a class="graphmeta">
<path fill="none" stroke="black" d="M196.912,-237.731C189.589,-228.48 180.072,-216.46 171.685,-205.866"/>
<polygon fill="black" stroke="black" points="174.216,-203.424 165.265,-197.756 168.728,-207.769 174.216,-203.424"/>
</a>
</g>
</g>
</svg>
