<?xml version="1.0" encoding="UTF-8" standalone="no"?>
<!DOCTYPE svg PUBLIC "-//W3C//DTD SVG 1.1//EN"
 "http://www.w3.org/Graphics/SVG/1.1/DTD/svg11.dtd">
<!-- Generated by graphviz version 2.28.0 (20110507.0327)
 -->
<!-- Title: MMT Pages: 1 -->
<svg
 viewBox="0.00 0.00 1122.00 382.00" xmlns="http://www.w3.org/2000/svg" xmlns:xlink="http://www.w3.org/1999/xlink">
<g id="graph1" class="graph" transform="scale(1 1) rotate(0) translate(4 378)">
<title>MMT</title>
<polygon fill="white" stroke="white" points="-4,5 -4,-378 1119,-378 1119,5 -4,5"/>
<g id="graph2" class="cluster"><title>cluster_local</title>
<polygon fill="none" stroke="black" points="665,-80 665,-220 783,-220 783,-80 665,-80"/>
</g>
<!-- http://latin.omdoc.org/type_theories?UnivTypes -->
<g id="node2" class="node"><title>http://latin.omdoc.org/type_theories?UnivTypes</title>
<a xlink:href="http://latin.omdoc.org/type_theories?UnivTypes" class="graphtheory">
<ellipse fill="none" stroke="black" cx="724" cy="-194" rx="50.5427" ry="18"/>
<text text-anchor="middle" x="724" y="-190.3" font-family="Times New Roman,serif" font-size="14.00">UnivTypes</text>
</a>
</g>
<!-- http://latin.omdoc.org/type_theories?PolyTypes -->
<g id="node3" class="node"><title>http://latin.omdoc.org/type_theories?PolyTypes</title>
<a xlink:href="http://latin.omdoc.org/type_theories?PolyTypes" class="graphtheory">
<ellipse fill="none" stroke="black" cx="725" cy="-106" rx="50.0684" ry="18"/>
<text text-anchor="middle" x="725" y="-102.3" font-family="Times New Roman,serif" font-size="14.00">PolyTypes</text>
</a>
</g>
<!-- http://latin.omdoc.org/type_theories?UnivTypes&#45;&gt;http://latin.omdoc.org/type_theories?PolyTypes -->
<g id="edge3" class="edge"><title>http://latin.omdoc.org/type_theories?UnivTypes&#45;&gt;http://latin.omdoc.org/type_theories?PolyTypes</title>
<a xlink:href="http://latin.omdoc.org/type_theories?UnivToPoly" class="graphview">
<path fill="none" stroke="black" d="M724.202,-175.597C724.34,-163.746 724.525,-147.817 724.683,-134.292"/>
<polygon fill="black" stroke="black" points="728.185,-134.124 724.801,-124.084 721.185,-134.043 728.185,-134.124"/>
</a>
<a xlink:href="http://latin.omdoc.org/type_theories?UnivToPoly" class="UnivToPoly">
<text text-anchor="middle" x="759.5" y="-146.3" font-family="Times New Roman,serif" font-size="14.00">UnivToPoly</text>
</a>
</g>
<!-- http://latin.omdoc.org/type_theories?Lambda2ToOmega -->
<g id="node5" class="node"><title>http://latin.omdoc.org/type_theories?Lambda2ToOmega</title>
<a xlink:href="http://latin.omdoc.org/type_theories?Lambda2ToOmega" class="graphtheory">
<ellipse fill="gray" stroke="black" cx="406" cy="-106" rx="81.3646" ry="18"/>
<text text-anchor="middle" x="406" y="-102.3" font-family="Times New Roman,serif" font-size="14.00">Lambda2ToOmega</text>
</a>
</g>
<!-- http://latin.omdoc.org/type_theories?UnivTypes&#45;&gt;http://latin.omdoc.org/type_theories?Lambda2ToOmega -->
<g id="edge5" class="edge"><title>http://latin.omdoc.org/type_theories?UnivTypes&#45;&gt;http://latin.omdoc.org/type_theories?Lambda2ToOmega</title>
<a xlink:href="http://latin.omdoc.org/type_theories?Lambda2ToOmega?[http://latin.omdoc.org/type_theories?UnivTypes]" class="graphstructure">
<path fill="none" stroke="black" d="M689.083,-180.95C682.477,-179.03 675.576,-177.263 669,-176 619.741,-166.537 487.895,-182.274 444,-158 433.748,-152.331 425.467,-142.602 419.284,-133.151"/>
<polygon fill="black" stroke="black" points="422.139,-131.104 414.003,-124.317 416.13,-134.696 422.139,-131.104"/>
</a>
<a xlink:href="http://latin.omdoc.org/type_theories?Lambda2ToOmega?[http://latin.omdoc.org/type_theories?UnivTypes]" class="[http://latin.omdoc.org/type_theories?UnivTypes]">
<text text-anchor="middle" x="582.5" y="-146.3" font-family="Times New Roman,serif" font-size="14.00">[http://latin.omdoc.org/type_theories?UnivTypes]</text>
</a>
</g>
<!-- http://latin.omdoc.org/type_theories?Lambda2ToP2 -->
<g id="node7" class="node"><title>http://latin.omdoc.org/type_theories?Lambda2ToP2</title>
<a xlink:href="http://latin.omdoc.org/type_theories?Lambda2ToP2" class="graphtheory">
<ellipse fill="gray" stroke="black" cx="201" cy="-106" rx="65.4659" ry="18"/>
<text text-anchor="middle" x="201" y="-102.3" font-family="Times New Roman,serif" font-size="14.00">Lambda2ToP2</text>
</a>
</g>
<!-- http://latin.omdoc.org/type_theories?UnivTypes&#45;&gt;http://latin.omdoc.org/type_theories?Lambda2ToP2 -->
<g id="edge7" class="edge"><title>http://latin.omdoc.org/type_theories?UnivTypes&#45;&gt;http://latin.omdoc.org/type_theories?Lambda2ToP2</title>
<a xlink:href="http://latin.omdoc.org/type_theories?Lambda2ToP2?[http://latin.omdoc.org/type_theories?UnivTypes]" class="graphstructure">
<path fill="none" stroke="black" d="M689.423,-180.79C682.723,-178.859 675.702,-177.13 669,-176 640.277,-171.157 165.24,-178.947 145,-158 134.612,-147.249 144.495,-135.989 158.693,-126.792"/>
<polygon fill="black" stroke="black" points="160.597,-129.732 167.43,-121.635 157.039,-123.704 160.597,-129.732"/>
</a>
<a xlink:href="http://latin.omdoc.org/type_theories?Lambda2ToP2?[http://latin.omdoc.org/type_theories?UnivTypes]" class="[http://latin.omdoc.org/type_theories?UnivTypes]">
<text text-anchor="middle" x="283.5" y="-146.3" font-family="Times New Roman,serif" font-size="14.00">[http://latin.omdoc.org/type_theories?UnivTypes]</text>
</a>
</g>
<!-- http://latin.omdoc.org/type_theories?Lambda2 -->
<g id="node9" class="node"><title>http://latin.omdoc.org/type_theories?Lambda2</title>
<a xlink:href="http://latin.omdoc.org/type_theories?Lambda2" class="graphtheory">
<ellipse fill="gray" stroke="black" cx="73" cy="-106" rx="44.271" ry="18"/>
<text text-anchor="middle" x="73" y="-102.3" font-family="Times New Roman,serif" font-size="14.00">Lambda2</text>
</a>
</g>
<!-- http://latin.omdoc.org/type_theories?UnivTypes&#45;&gt;http://latin.omdoc.org/type_theories?Lambda2 -->
<g id="edge9" class="edge"><title>http://latin.omdoc.org/type_theories?UnivTypes&#45;&gt;http://latin.omdoc.org/type_theories?Lambda2</title>
<a class="graphinclude">
<path fill="none" stroke="black" d="M689.423,-180.787C682.724,-178.857 675.702,-177.128 669,-176 610.676,-166.18 192.491,-178.465 137,-158 121.187,-152.168 106.287,-140.79 94.8491,-130.259"/>
<polygon fill="black" stroke="black" points="97.1411,-127.606 87.5148,-123.181 92.2803,-132.644 97.1411,-127.606"/>
</a>
</g>
<!-- http://latin.omdoc.org/type_theories?LambdaP2 -->
<g id="node17" class="node"><title>http://latin.omdoc.org/type_theories?LambdaP2</title>
<a xlink:href="http://latin.omdoc.org/type_theories?LambdaP2" class="graphtheory">
<ellipse fill="gray" stroke="black" cx="725" cy="-18" rx="50.0684" ry="18"/>
<text text-anchor="middle" x="725" y="-14.3" font-family="Times New Roman,serif" font-size="14.00">LambdaP2</text>
</a>
</g>
<!-- http://latin.omdoc.org/type_theories?PolyTypes&#45;&gt;http://latin.omdoc.org/type_theories?LambdaP2 -->
<g id="edge17" class="edge"><title>http://latin.omdoc.org/type_theories?PolyTypes&#45;&gt;http://latin.omdoc.org/type_theories?LambdaP2</title>
<a class="graphinclude">
<path fill="none" stroke="black" d="M725,-87.5966C725,-75.7459 725,-59.8169 725,-46.2917"/>
<polygon fill="black" stroke="black" points="728.5,-46.084 725,-36.084 721.5,-46.084 728.5,-46.084"/>
</a>
</g>
<!-- http://latin.omdoc.org/type_theories?LambdaOmega -->
<g id="node19" class="node"><title>http://latin.omdoc.org/type_theories?LambdaOmega</title>
<a xlink:href="http://latin.omdoc.org/type_theories?LambdaOmega" class="graphtheory">
<ellipse fill="gray" stroke="black" cx="73" cy="-18" rx="65.9423" ry="18"/>
<text text-anchor="middle" x="73" y="-14.3" font-family="Times New Roman,serif" font-size="14.00">LambdaOmega</text>
</a>
</g>
<!-- http://latin.omdoc.org/type_theories?PolyTypes&#45;&gt;http://latin.omdoc.org/type_theories?LambdaOmega -->
<g id="edge19" class="edge"><title>http://latin.omdoc.org/type_theories?PolyTypes&#45;&gt;http://latin.omdoc.org/type_theories?LambdaOmega</title>
<a class="graphinclude">
<path fill="none" stroke="black" d="M698.471,-90.5908C689.926,-86.5347 680.266,-82.5406 671,-80 488.555,-29.9743 264.638,-20.2096 149.468,-18.7711"/>
<polygon fill="black" stroke="black" points="149.378,-15.2701 139.341,-18.6628 149.303,-22.2697 149.378,-15.2701"/>
</a>
</g>
<!-- http://latin.omdoc.org/type_theories?Lambda2&#45;&gt;http://latin.omdoc.org/type_theories?LambdaP2 -->
<g id="edge39" class="edge"><title>http://latin.omdoc.org/type_theories?Lambda2&#45;&gt;http://latin.omdoc.org/type_theories?LambdaP2</title>
<a xlink:href="http://latin.omdoc.org/type_theories?Lambda2ToP2" class="graphview">
<path fill="none" stroke="black" d="M98.2032,-90.9753C106.784,-86.7852 116.59,-82.6156 126,-80 177.276,-65.7471 526.05,-35.567 666.539,-23.8206"/>
<polygon fill="black" stroke="black" points="667.013,-27.2934 676.687,-22.9739 666.431,-20.3176 667.013,-27.2934"/>
</a>
<a xlink:href="http://latin.omdoc.org/type_theories?Lambda2ToP2" class="Lambda2ToP2">
<text text-anchor="middle" x="374.5" y="-58.3" font-family="Times New Roman,serif" font-size="14.00">Lambda2ToP2</text>
</a>
</g>
<!-- http://latin.omdoc.org/type_theories?Lambda2&#45;&gt;http://latin.omdoc.org/type_theories?LambdaOmega -->
<g id="edge41" class="edge"><title>http://latin.omdoc.org/type_theories?Lambda2&#45;&gt;http://latin.omdoc.org/type_theories?LambdaOmega</title>
<a xlink:href="http://latin.omdoc.org/type_theories?Lambda2ToOmega" class="graphview">
<path fill="none" stroke="black" d="M73,-87.5966C73,-75.7459 73,-59.8169 73,-46.2917"/>
<polygon fill="black" stroke="black" points="76.5001,-46.084 73,-36.084 69.5001,-46.084 76.5001,-46.084"/>
</a>
<a xlink:href="http://latin.omdoc.org/type_theories?Lambda2ToOmega" class="Lambda2ToOmega">
<text text-anchor="middle" x="127.5" y="-58.3" font-family="Times New Roman,serif" font-size="14.00">Lambda2ToOmega</text>
</a>
</g>
<!-- http://latin.omdoc.org/type_theories?TypesTerms -->
<g id="node11" class="node"><title>http://latin.omdoc.org/type_theories?TypesTerms</title>
<a xlink:href="http://latin.omdoc.org/type_theories?TypesTerms" class="graphtheory">
<ellipse fill="gray" stroke="black" cx="837" cy="-282" rx="57.2927" ry="18"/>
<text text-anchor="middle" x="837" y="-278.3" font-family="Times New Roman,serif" font-size="14.00">TypesTerms</text>
</a>
</g>
<!-- http://latin.omdoc.org/type_theories?TypesTerms&#45;&gt;http://latin.omdoc.org/type_theories?UnivTypes -->
<g id="edge11" class="edge"><title>http://latin.omdoc.org/type_theories?TypesTerms&#45;&gt;http://latin.omdoc.org/type_theories?UnivTypes</title>
<a class="graphinclude">
<path fill="none" stroke="black" d="M816.274,-265.226C798.434,-251.649 772.51,-231.919 752.679,-216.827"/>
<polygon fill="black" stroke="black" points="754.672,-213.945 744.595,-210.674 750.432,-219.515 754.672,-213.945"/>
</a>
</g>
<!-- http://latin.omdoc.org/type_theories?KindsTypesTerms -->
<g id="node21" class="node"><title>http://latin.omdoc.org/type_theories?KindsTypesTerms</title>
<a xlink:href="http://latin.omdoc.org/type_theories?KindsTypesTerms" class="graphtheory">
<ellipse fill="gray" stroke="black" cx="871" cy="-194" rx="78.4642" ry="18"/>
<text text-anchor="middle" x="871" y="-190.3" font-family="Times New Roman,serif" font-size="14.00">KindsTypesTerms</text>
</a>
</g>
<!-- http://latin.omdoc.org/type_theories?TypesTerms&#45;&gt;http://latin.omdoc.org/type_theories?KindsTypesTerms -->
<g id="edge37" class="edge"><title>http://latin.omdoc.org/type_theories?TypesTerms&#45;&gt;http://latin.omdoc.org/type_theories?KindsTypesTerms</title>
<a xlink:href="http://latin.omdoc.org/type_theories?TypesToTypes" class="graphview">
<path fill="none" stroke="black" d="M834.324,-263.843C833.457,-253.643 833.646,-240.658 838,-230 839.52,-226.279 841.634,-222.721 844.067,-219.395"/>
<polygon fill="black" stroke="black" points="846.832,-221.545 850.608,-211.646 841.483,-217.029 846.832,-221.545"/>
</a>
<a xlink:href="http://latin.omdoc.org/type_theories?TypesToTypes" class="TypesToTypes">
<text text-anchor="middle" x="882" y="-234.3" font-family="Times New Roman,serif" font-size="14.00">TypesToTypes</text>
</a>
</g>
<!-- http://cds.omdoc.org/urtheories?LF -->
<g id="node13" class="node"><title>http://cds.omdoc.org/urtheories?LF</title>
<a xlink:href="http://cds.omdoc.org/urtheories?LF" class="graphtheory">
<ellipse fill="gray" stroke="black" cx="978" cy="-356" rx="27" ry="18"/>
<text text-anchor="middle" x="978" y="-352.3" font-family="Times New Roman,serif" font-size="14.00">LF</text>
</a>
</g>
<!-- http://cds.omdoc.org/urtheories?LF&#45;&gt;http://latin.omdoc.org/type_theories?UnivTypes -->
<g id="edge13" class="edge"><title>http://cds.omdoc.org/urtheories?LF&#45;&gt;http://latin.omdoc.org/type_theories?UnivTypes</title>
<a class="graphmeta">
<path fill="none" stroke="black" d="M950.807,-354.927C907.71,-353.396 823.259,-344.449 771,-300 747.543,-280.049 735.293,-246.042 729.259,-222.148"/>
<polygon fill="black" stroke="black" points="732.64,-221.234 726.972,-212.283 725.821,-222.815 732.64,-221.234"/>
</a>
</g>
<!-- http://cds.omdoc.org/urtheories?LF&#45;&gt;http://latin.omdoc.org/type_theories?PolyTypes -->
<g id="edge23" class="edge"><title>http://cds.omdoc.org/urtheories?LF&#45;&gt;http://latin.omdoc.org/type_theories?PolyTypes</title>
<a class="graphmeta">
<path fill="none" stroke="black" d="M981.654,-338.121C988.12,-303.362 997.447,-223.111 958,-176 916.017,-125.86 839.45,-111.142 785.572,-107.333"/>
<polygon fill="black" stroke="black" points="785.645,-103.831 775.453,-106.726 785.225,-110.819 785.645,-103.831"/>
</a>
</g>
<!-- http://cds.omdoc.org/urtheories?LF&#45;&gt;http://latin.omdoc.org/type_theories?Lambda2 -->
<g id="edge31" class="edge"><title>http://cds.omdoc.org/urtheories?LF&#45;&gt;http://latin.omdoc.org/type_theories?Lambda2</title>
<a class="graphmeta">
<path fill="none" stroke="black" d="M952.028,-350.425C916.33,-344.054 850.137,-331.942 794,-320 486.736,-254.634 362.786,-338.956 106,-158 97.0777,-151.712 89.9758,-142.173 84.6809,-133.038"/>
<polygon fill="black" stroke="black" points="87.7602,-131.374 79.9877,-124.174 81.5738,-134.65 87.7602,-131.374"/>
</a>
</g>
<!-- http://cds.omdoc.org/urtheories?LF&#45;&gt;http://latin.omdoc.org/type_theories?TypesTerms -->
<g id="edge27" class="edge"><title>http://cds.omdoc.org/urtheories?LF&#45;&gt;http://latin.omdoc.org/type_theories?TypesTerms</title>
<a class="graphmeta">
<path fill="none" stroke="black" d="M957.195,-344.376C935.541,-333.319 901.161,-315.763 874.707,-302.255"/>
<polygon fill="black" stroke="black" points="876.212,-299.093 865.714,-297.662 873.028,-305.327 876.212,-299.093"/>
</a>
</g>
<!-- http://latin.omdoc.org/type_theories?DepFun -->
<g id="node15" class="node"><title>http://latin.omdoc.org/type_theories?DepFun</title>
<a xlink:href="http://latin.omdoc.org/type_theories?DepFun" class="graphtheory">
<ellipse fill="gray" stroke="black" cx="1046" cy="-282" rx="39.9464" ry="18"/>
<text text-anchor="middle" x="1046" y="-278.3" font-family="Times New Roman,serif" font-size="14.00">DepFun</text>
</a>
</g>
<!-- http://cds.omdoc.org/urtheories?LF&#45;&gt;http://latin.omdoc.org/type_theories?DepFun -->
<g id="edge35" class="edge"><title>http://cds.omdoc.org/urtheories?LF&#45;&gt;http://latin.omdoc.org/type_theories?DepFun</title>
<a class="graphmeta">
<path fill="none" stroke="black" d="M991.761,-340.43C1001.03,-330.614 1013.46,-317.457 1024.08,-306.212"/>
<polygon fill="black" stroke="black" points="1026.76,-308.471 1031.08,-298.798 1021.67,-303.665 1026.76,-308.471"/>
</a>
</g>
<!-- http://cds.omdoc.org/urtheories?LF&#45;&gt;http://latin.omdoc.org/type_theories?LambdaP2 -->
<g id="edge29" class="edge"><title>http://cds.omdoc.org/urtheories?LF&#45;&gt;http://latin.omdoc.org/type_theories?LambdaP2</title>
<a class="graphmeta">
<path fill="none" stroke="black" d="M1004.87,-352.701C1044.5,-347.675 1114,-331.89 1114,-283 1114,-283 1114,-283 1114,-105 1114,-38.4985 894.51,-23.3788 785.275,-19.9719"/>
<polygon fill="black" stroke="black" points="785.155,-16.4671 775.059,-19.6774 784.954,-23.4642 785.155,-16.4671"/>
</a>
</g>
<!-- http://cds.omdoc.org/urtheories?LF&#45;&gt;http://latin.omdoc.org/type_theories?LambdaOmega -->
<g id="edge33" class="edge"><title>http://cds.omdoc.org/urtheories?LF&#45;&gt;http://latin.omdoc.org/type_theories?LambdaOmega</title>
<a class="graphmeta">
<path fill="none" stroke="black" d="M951.078,-354.465C793.728,-351.164 0,-332.08 0,-283 0,-283 0,-283 0,-105 0,-78.6103 20.2256,-56.1745 39.3845,-40.8419"/>
<polygon fill="black" stroke="black" points="41.6129,-43.5447 47.4681,-34.7148 37.3845,-37.9661 41.6129,-43.5447"/>
</a>
</g>
<!-- http://cds.omdoc.org/urtheories?LF&#45;&gt;http://latin.omdoc.org/type_theories?KindsTypesTerms -->
<g id="edge25" class="edge"><title>http://cds.omdoc.org/urtheories?LF&#45;&gt;http://latin.omdoc.org/type_theories?KindsTypesTerms</title>
<a class="graphmeta">
<path fill="none" stroke="black" d="M971.284,-338.495C957.652,-305.043 927.862,-232.215 926,-230 921.794,-224.997 916.686,-220.47 911.298,-216.46"/>
<polygon fill="black" stroke="black" points="912.923,-213.331 902.69,-210.587 908.978,-219.114 912.923,-213.331"/>
</a>
</g>
<!-- http://latin.omdoc.org/type_theories?DepFun&#45;&gt;http://latin.omdoc.org/type_theories?PolyTypes -->
<g id="edge15" class="edge"><title>http://latin.omdoc.org/type_theories?DepFun&#45;&gt;http://latin.omdoc.org/type_theories?PolyTypes</title>
<a xlink:href="http://latin.omdoc.org/type_theories?PolyTypes?poly" class="graphstructure">
<path fill="none" stroke="black" d="M1044.75,-263.627C1041.58,-233.573 1030.5,-172.204 992,-142 960.82,-117.535 853.827,-110.124 785.117,-107.909"/>
<polygon fill="black" stroke="black" points="784.952,-104.402 774.854,-107.607 784.747,-111.399 784.952,-104.402"/>
</a>
<a xlink:href="http://latin.omdoc.org/type_theories?PolyTypes?poly" class="poly">
<text text-anchor="middle" x="1048.5" y="-190.3" font-family="Times New Roman,serif" font-size="14.00">poly</text>
</a>
</g>
<!-- http://latin.omdoc.org/type_theories?KindsTypesTerms&#45;&gt;http://latin.omdoc.org/type_theories?PolyTypes -->
<g id="edge21" class="edge"><title>http://latin.omdoc.org/type_theories?KindsTypesTerms&#45;&gt;http://latin.omdoc.org/type_theories?PolyTypes</title>
<a class="graphinclude">
<path fill="none" stroke="black" d="M849.571,-176.642C835.339,-166.13 816.024,-152.523 798,-142 787.579,-135.916 775.938,-129.977 765.067,-124.769"/>
<polygon fill="black" stroke="black" points="766.301,-121.481 755.762,-120.395 763.323,-127.817 766.301,-121.481"/>
</a>
</g>
</g>
</svg>
