<?xml version="1.0" encoding="UTF-8" standalone="no"?>
<!DOCTYPE svg PUBLIC "-//W3C//DTD SVG 1.1//EN"
 "http://www.w3.org/Graphics/SVG/1.1/DTD/svg11.dtd">
<!-- Generated by graphviz version 2.28.0 (20110507.0327)
 -->
<!-- Title: MMT Pages: 1 -->
<svg width="469pt" height="260pt"
 viewBox="0.00 0.00 469.00 260.00" xmlns="http://www.w3.org/2000/svg" xmlns:xlink="http://www.w3.org/1999/xlink">
<g id="graph1" class="graph" transform="scale(1 1) rotate(0) translate(4 256)">
<title>MMT</title>
<polygon fill="white" stroke="white" points="-4,5 -4,-256 466,-256 466,5 -4,5"/>
<g id="graph2" class="cluster"><title>cluster_local</title>
<polygon fill="none" stroke="black" points="172,-64 172,-116 242,-116 242,-64 172,-64"/>
</g>
<!-- http://latin.omdoc.org/logics/tptp?B -->
<g id="node2" class="node"><title>http://latin.omdoc.org/logics/tptp?B</title>
<a xlink:href="http://latin.omdoc.org/logics/tptp?B" class="graphtheory">
<ellipse fill="none" stroke="black" cx="207" cy="-90" rx="27" ry="18"/>
<text text-anchor="middle" x="207" y="-86.3" font-family="Times New Roman,serif" font-size="14.00">B</text>
</a>
</g>
<!-- http://latin.omdoc.org/logics/tptp?Henkin&#45;FuncExt -->
<g id="node3" class="node"><title>http://latin.omdoc.org/logics/tptp?Henkin&#45;FuncExt</title>
<a xlink:href="http://latin.omdoc.org/logics/tptp?Henkin-FuncExt" class="graphtheory">
<ellipse fill="gray" stroke="black" cx="69" cy="-18" rx="69.3156" ry="18"/>
<text text-anchor="middle" x="69" y="-14.3" font-family="Times New Roman,serif" font-size="14.00">Henkin&#45;FuncExt</text>
</a>
</g>
<!-- http://latin.omdoc.org/logics/tptp?B&#45;&gt;http://latin.omdoc.org/logics/tptp?Henkin&#45;FuncExt -->
<g id="edge3" class="edge"><title>http://latin.omdoc.org/logics/tptp?B&#45;&gt;http://latin.omdoc.org/logics/tptp?Henkin&#45;FuncExt</title>
<a class="graphinclude">
<path fill="none" stroke="black" d="M191.539,-75.1218C186.76,-71.2278 181.342,-67.1906 176,-64 158.025,-53.2649 137.018,-43.8317 118.399,-36.4118"/>
<polygon fill="black" stroke="black" points="119.498,-33.0837 108.909,-32.7189 116.959,-39.6072 119.498,-33.0837"/>
</a>
</g>
<!-- http://latin.omdoc.org/logics/tptp?Henkin&#45;Xi -->
<g id="node5" class="node"><title>http://latin.omdoc.org/logics/tptp?Henkin&#45;Xi</title>
<a xlink:href="http://latin.omdoc.org/logics/tptp?Henkin-Xi" class="graphtheory">
<ellipse fill="gray" stroke="black" cx="414" cy="-18" rx="47.169" ry="18"/>
<text text-anchor="middle" x="414" y="-14.3" font-family="Times New Roman,serif" font-size="14.00">Henkin&#45;Xi</text>
</a>
</g>
<!-- http://latin.omdoc.org/logics/tptp?B&#45;&gt;http://latin.omdoc.org/logics/tptp?Henkin&#45;Xi -->
<g id="edge5" class="edge"><title>http://latin.omdoc.org/logics/tptp?B&#45;&gt;http://latin.omdoc.org/logics/tptp?Henkin&#45;Xi</title>
<a class="graphinclude">
<path fill="none" stroke="black" d="M221.831,-74.8064C226.675,-70.8094 232.286,-66.7947 238,-64 286.808,-40.1286 304.499,-49.9926 357,-36 360.82,-34.9819 364.772,-33.8882 368.731,-32.7642"/>
<polygon fill="black" stroke="black" points="369.883,-36.0746 378.516,-29.9338 367.938,-29.3503 369.883,-36.0746"/>
</a>
</g>
<!-- http://latin.omdoc.org/logics/tptp?Henkin -->
<g id="node7" class="node"><title>http://latin.omdoc.org/logics/tptp?Henkin</title>
<a xlink:href="http://latin.omdoc.org/logics/tptp?Henkin" class="graphtheory">
<ellipse fill="gray" stroke="black" cx="312" cy="-18" rx="36.096" ry="18"/>
<text text-anchor="middle" x="312" y="-14.3" font-family="Times New Roman,serif" font-size="14.00">Henkin</text>
</a>
</g>
<!-- http://latin.omdoc.org/logics/tptp?B&#45;&gt;http://latin.omdoc.org/logics/tptp?Henkin -->
<g id="edge7" class="edge"><title>http://latin.omdoc.org/logics/tptp?B&#45;&gt;http://latin.omdoc.org/logics/tptp?Henkin</title>
<a class="graphinclude">
<path fill="none" stroke="black" d="M223.097,-75.3508C227.803,-71.5453 233.022,-67.498 238,-64 251.395,-54.5881 266.781,-45.0425 280.041,-37.1793"/>
<polygon fill="black" stroke="black" points="281.975,-40.1031 288.832,-32.0267 278.435,-34.0641 281.975,-40.1031"/>
</a>
</g>
<!-- http://latin.omdoc.org/logics/tptp?Henkin&#45;Eta -->
<g id="node9" class="node"><title>http://latin.omdoc.org/logics/tptp?Henkin&#45;Eta</title>
<a xlink:href="http://latin.omdoc.org/logics/tptp?Henkin-Eta" class="graphtheory">
<ellipse fill="gray" stroke="black" cx="207" cy="-18" rx="50.5427" ry="18"/>
<text text-anchor="middle" x="207" y="-14.3" font-family="Times New Roman,serif" font-size="14.00">Henkin&#45;Eta</text>
</a>
</g>
<!-- http://latin.omdoc.org/logics/tptp?B&#45;&gt;http://latin.omdoc.org/logics/tptp?Henkin&#45;Eta -->
<g id="edge9" class="edge"><title>http://latin.omdoc.org/logics/tptp?B&#45;&gt;http://latin.omdoc.org/logics/tptp?Henkin&#45;Eta</title>
<a class="graphinclude">
<path fill="none" stroke="black" d="M207,-71.6966C207,-63.9827 207,-54.7125 207,-46.1124"/>
<polygon fill="black" stroke="black" points="210.5,-46.1043 207,-36.1043 203.5,-46.1044 210.5,-46.1043"/>
</a>
</g>
<!-- http://latin.omdoc.org/logics/tptp?CHOL -->
<g id="node11" class="node"><title>http://latin.omdoc.org/logics/tptp?CHOL</title>
<a xlink:href="http://latin.omdoc.org/logics/tptp?CHOL" class="graphtheory">
<ellipse fill="gray" stroke="black" cx="266" cy="-162" rx="35.6194" ry="18"/>
<text text-anchor="middle" x="266" y="-158.3" font-family="Times New Roman,serif" font-size="14.00">CHOL</text>
</a>
</g>
<!-- http://latin.omdoc.org/logics/tptp?CHOL&#45;&gt;http://latin.omdoc.org/logics/tptp?B -->
<g id="edge11" class="edge"><title>http://latin.omdoc.org/logics/tptp?CHOL&#45;&gt;http://latin.omdoc.org/logics/tptp?B</title>
<a class="graphinclude">
<path fill="none" stroke="black" d="M252.612,-145.116C244.886,-135.949 235.032,-124.259 226.462,-114.091"/>
<polygon fill="black" stroke="black" points="229.051,-111.731 219.93,-106.34 223.698,-116.242 229.051,-111.731"/>
</a>
</g>
<!-- http://latin.omdoc.org/logics/tptp?CHOL&#45;&gt;http://latin.omdoc.org/logics/tptp?Henkin&#45;FuncExt -->
<g id="edge25" class="edge"><title>http://latin.omdoc.org/logics/tptp?CHOL&#45;&gt;http://latin.omdoc.org/logics/tptp?Henkin&#45;FuncExt</title>
<a class="graphinclude">
<path fill="none" stroke="black" d="M237.603,-150.977C217.266,-143.098 189.745,-130.967 168,-116 137.77,-95.1925 108.421,-64.749 89.6334,-43.5364"/>
<polygon fill="black" stroke="black" points="92.1813,-41.1329 82.9701,-35.8978 86.9062,-45.7344 92.1813,-41.1329"/>
</a>
</g>
<!-- http://latin.omdoc.org/logics/tptp?CHOL&#45;&gt;http://latin.omdoc.org/logics/tptp?Henkin&#45;Xi -->
<g id="edge27" class="edge"><title>http://latin.omdoc.org/logics/tptp?CHOL&#45;&gt;http://latin.omdoc.org/logics/tptp?Henkin&#45;Xi</title>
<a class="graphinclude">
<path fill="none" stroke="black" d="M281.839,-145.804C307.824,-120.872 359.658,-71.1392 390.118,-41.9138"/>
<polygon fill="black" stroke="black" points="392.58,-44.4019 397.373,-34.953 387.734,-39.3508 392.58,-44.4019"/>
</a>
</g>
<!-- http://latin.omdoc.org/logics/tptp?CHOL&#45;&gt;http://latin.omdoc.org/logics/tptp?Henkin -->
<g id="edge29" class="edge"><title>http://latin.omdoc.org/logics/tptp?CHOL&#45;&gt;http://latin.omdoc.org/logics/tptp?Henkin</title>
<a class="graphinclude">
<path fill="none" stroke="black" d="M271.457,-144.153C279.342,-119.813 293.999,-74.5681 303.362,-45.6651"/>
<polygon fill="black" stroke="black" points="306.797,-46.4169 306.55,-35.825 300.138,-44.2596 306.797,-46.4169"/>
</a>
</g>
<!-- http://latin.omdoc.org/logics/tptp?CHOL&#45;&gt;http://latin.omdoc.org/logics/tptp?Henkin&#45;Eta -->
<g id="edge31" class="edge"><title>http://latin.omdoc.org/logics/tptp?CHOL&#45;&gt;http://latin.omdoc.org/logics/tptp?Henkin&#45;Eta</title>
<a class="graphinclude">
<path fill="none" stroke="black" d="M265.069,-143.676C263.407,-123.581 258.791,-89.9006 246,-64 242.266,-56.4396 236.953,-49.1288 231.445,-42.6761"/>
<polygon fill="black" stroke="black" points="233.788,-40.0497 224.47,-35.0074 228.61,-44.7599 233.788,-40.0497"/>
</a>
</g>
<!-- http://cds.omdoc.org/urtheories?LF -->
<g id="node13" class="node"><title>http://cds.omdoc.org/urtheories?LF</title>
<a xlink:href="http://cds.omdoc.org/urtheories?LF" class="graphtheory">
<ellipse fill="gray" stroke="black" cx="234" cy="-234" rx="27" ry="18"/>
<text text-anchor="middle" x="234" y="-230.3" font-family="Times New Roman,serif" font-size="14.00">LF</text>
</a>
</g>
<!-- http://cds.omdoc.org/urtheories?LF&#45;&gt;http://latin.omdoc.org/logics/tptp?B -->
<g id="edge13" class="edge"><title>http://cds.omdoc.org/urtheories?LF&#45;&gt;http://latin.omdoc.org/logics/tptp?B</title>
<a class="graphmeta">
<path fill="none" stroke="black" d="M229.416,-215.897C226.741,-205.554 223.426,-192.075 221,-180 216.867,-159.427 213.221,-135.975 210.686,-118.311"/>
<polygon fill="black" stroke="black" points="214.114,-117.554 209.258,-108.138 207.182,-118.528 214.114,-117.554"/>
</a>
</g>
<!-- http://cds.omdoc.org/urtheories?LF&#45;&gt;http://latin.omdoc.org/logics/tptp?Henkin&#45;FuncExt -->
<g id="edge17" class="edge"><title>http://cds.omdoc.org/urtheories?LF&#45;&gt;http://latin.omdoc.org/logics/tptp?Henkin&#45;FuncExt</title>
<a class="graphmeta">
<path fill="none" stroke="black" d="M217.169,-219.86C204.748,-209.713 187.843,-194.924 175,-180 137.252,-136.134 102.133,-78.0659 83.3163,-44.9992"/>
<polygon fill="black" stroke="black" points="86.1908,-42.9708 78.2336,-35.9755 80.0917,-46.4062 86.1908,-42.9708"/>
</a>
</g>
<!-- http://cds.omdoc.org/urtheories?LF&#45;&gt;http://latin.omdoc.org/logics/tptp?Henkin&#45;Xi -->
<g id="edge15" class="edge"><title>http://cds.omdoc.org/urtheories?LF&#45;&gt;http://latin.omdoc.org/logics/tptp?Henkin&#45;Xi</title>
<a class="graphmeta">
<path fill="none" stroke="black" d="M257.41,-224.618C278.538,-216.087 309.381,-201.11 330,-180 368.33,-140.756 393.361,-80.4814 405.464,-45.8943"/>
<polygon fill="black" stroke="black" points="408.91,-46.6311 408.805,-36.0368 402.28,-44.3839 408.91,-46.6311"/>
</a>
</g>
<!-- http://cds.omdoc.org/urtheories?LF&#45;&gt;http://latin.omdoc.org/logics/tptp?Henkin -->
<g id="edge23" class="edge"><title>http://cds.omdoc.org/urtheories?LF&#45;&gt;http://latin.omdoc.org/logics/tptp?Henkin</title>
<a class="graphmeta">
<path fill="none" stroke="black" d="M256.852,-224.063C274.876,-215.66 298.781,-201.18 310,-180 332.433,-137.65 325.716,-79.8141 318.832,-46.229"/>
<polygon fill="black" stroke="black" points="322.198,-45.2395 316.627,-36.2272 315.362,-46.7462 322.198,-45.2395"/>
</a>
</g>
<!-- http://cds.omdoc.org/urtheories?LF&#45;&gt;http://latin.omdoc.org/logics/tptp?Henkin&#45;Eta -->
<g id="edge19" class="edge"><title>http://cds.omdoc.org/urtheories?LF&#45;&gt;http://latin.omdoc.org/logics/tptp?Henkin&#45;Eta</title>
<a class="graphmeta">
<path fill="none" stroke="black" d="M222.019,-217.857C206.022,-196.572 178.484,-155.925 168,-116 162.13,-93.6468 159.922,-85.6536 168,-64 170.896,-56.2359 175.802,-48.9221 181.176,-42.5378"/>
<polygon fill="black" stroke="black" points="183.927,-44.7161 188.116,-34.9842 178.773,-39.9801 183.927,-44.7161"/>
</a>
</g>
<!-- http://cds.omdoc.org/urtheories?LF&#45;&gt;http://latin.omdoc.org/logics/tptp?CHOL -->
<g id="edge21" class="edge"><title>http://cds.omdoc.org/urtheories?LF&#45;&gt;http://latin.omdoc.org/logics/tptp?CHOL</title>
<a class="graphmeta">
<path fill="none" stroke="black" d="M241.584,-216.411C245.315,-208.249 249.899,-198.22 254.084,-189.065"/>
<polygon fill="black" stroke="black" points="257.274,-190.506 258.249,-179.956 250.908,-187.596 257.274,-190.506"/>
</a>
</g>
</g>
</svg>
