<?xml version="1.0" encoding="UTF-8" standalone="no"?>
<!DOCTYPE svg PUBLIC "-//W3C//DTD SVG 1.1//EN"
 "http://www.w3.org/Graphics/SVG/1.1/DTD/svg11.dtd">
<!-- Generated by graphviz version 2.28.0 (20110507.0327)
 -->
<!-- Title: MMT Pages: 1 -->
<svg width="815pt" height="260pt"
 viewBox="0.00 0.00 815.00 260.00" xmlns="http://www.w3.org/2000/svg" xmlns:xlink="http://www.w3.org/1999/xlink">
<g id="graph1" class="graph" transform="scale(1 1) rotate(0) translate(4 256)">
<title>MMT</title>
<polygon fill="white" stroke="white" points="-4,5 -4,-256 812,-256 812,5 -4,5"/>
<g id="graph2" class="cluster"><title>cluster_local</title>
<polygon fill="none" stroke="black" points="339,-136 339,-188 427,-188 427,-136 339,-136"/>
</g>
<!-- http://latin.omdoc.org/logics/tptp?CHOL -->
<g id="node2" class="node"><title>http://latin.omdoc.org/logics/tptp?CHOL</title>
<a xlink:href="http://latin.omdoc.org/logics/tptp?CHOL" class="graphtheory">
<ellipse fill="none" stroke="black" cx="383" cy="-162" rx="35.6194" ry="18"/>
<text text-anchor="middle" x="383" y="-158.3" font-family="Times New Roman,serif" font-size="14.00">CHOL</text>
</a>
</g>
<!-- http://latin.omdoc.org/logics/tptp?B -->
<g id="node3" class="node"><title>http://latin.omdoc.org/logics/tptp?B</title>
<a xlink:href="http://latin.omdoc.org/logics/tptp?B" class="graphtheory">
<ellipse fill="gray" stroke="black" cx="164" cy="-90" rx="27" ry="18"/>
<text text-anchor="middle" x="164" y="-86.3" font-family="Times New Roman,serif" font-size="14.00">B</text>
</a>
</g>
<!-- http://latin.omdoc.org/logics/tptp?CHOL&#45;&gt;http://latin.omdoc.org/logics/tptp?B -->
<g id="edge3" class="edge"><title>http://latin.omdoc.org/logics/tptp?CHOL&#45;&gt;http://latin.omdoc.org/logics/tptp?B</title>
<a class="graphinclude">
<path fill="none" stroke="black" d="M363.401,-146.801C357.133,-142.804 349.998,-138.79 343,-136 284.867,-112.822 264.85,-126.292 205,-108 201.831,-107.032 198.57,-105.909 195.337,-104.711"/>
<polygon fill="black" stroke="black" points="196.431,-101.38 185.844,-100.971 193.865,-107.893 196.431,-101.38"/>
</a>
</g>
<!-- http://latin.omdoc.org/logics/tptp?Eta -->
<g id="node5" class="node"><title>http://latin.omdoc.org/logics/tptp?Eta</title>
<a xlink:href="http://latin.omdoc.org/logics/tptp?Eta" class="graphtheory">
<ellipse fill="gray" stroke="black" cx="312" cy="-90" rx="27" ry="18"/>
<text text-anchor="middle" x="312" y="-86.3" font-family="Times New Roman,serif" font-size="14.00">Eta</text>
</a>
</g>
<!-- http://latin.omdoc.org/logics/tptp?CHOL&#45;&gt;http://latin.omdoc.org/logics/tptp?Eta -->
<g id="edge5" class="edge"><title>http://latin.omdoc.org/logics/tptp?CHOL&#45;&gt;http://latin.omdoc.org/logics/tptp?Eta</title>
<a class="graphinclude">
<path fill="none" stroke="black" d="M367.243,-145.465C357.512,-135.871 344.879,-123.416 334.15,-112.839"/>
<polygon fill="black" stroke="black" points="336.322,-110.064 326.744,-105.536 331.407,-115.049 336.322,-110.064"/>
</a>
</g>
<!-- http://latin.omdoc.org/logics/tptp?Description -->
<g id="node7" class="node"><title>http://latin.omdoc.org/logics/tptp?Description</title>
<a xlink:href="http://latin.omdoc.org/logics/tptp?Description" class="graphtheory">
<ellipse fill="gray" stroke="black" cx="596" cy="-90" rx="52.4675" ry="18"/>
<text text-anchor="middle" x="596" y="-86.3" font-family="Times New Roman,serif" font-size="14.00">Description</text>
</a>
</g>
<!-- http://latin.omdoc.org/logics/tptp?CHOL&#45;&gt;http://latin.omdoc.org/logics/tptp?Description -->
<g id="edge7" class="edge"><title>http://latin.omdoc.org/logics/tptp?CHOL&#45;&gt;http://latin.omdoc.org/logics/tptp?Description</title>
<a class="graphinclude">
<path fill="none" stroke="black" d="M402.56,-146.75C408.576,-142.845 415.366,-138.896 422,-136 424.924,-134.724 495.167,-116.702 545.496,-103.858"/>
<polygon fill="black" stroke="black" points="546.446,-107.228 555.271,-101.365 544.716,-100.445 546.446,-107.228"/>
</a>
</g>
<!-- http://latin.omdoc.org/logics/tptp?Henkin&#45;FuncExt -->
<g id="node9" class="node"><title>http://latin.omdoc.org/logics/tptp?Henkin&#45;FuncExt</title>
<a xlink:href="http://latin.omdoc.org/logics/tptp?Henkin-FuncExt" class="graphtheory">
<ellipse fill="gray" stroke="black" cx="69" cy="-18" rx="69.3156" ry="18"/>
<text text-anchor="middle" x="69" y="-14.3" font-family="Times New Roman,serif" font-size="14.00">Henkin&#45;FuncExt</text>
</a>
</g>
<!-- http://latin.omdoc.org/logics/tptp?CHOL&#45;&gt;http://latin.omdoc.org/logics/tptp?Henkin&#45;FuncExt -->
<g id="edge9" class="edge"><title>http://latin.omdoc.org/logics/tptp?CHOL&#45;&gt;http://latin.omdoc.org/logics/tptp?Henkin&#45;FuncExt</title>
<a class="graphinclude">
<path fill="none" stroke="black" d="M363.925,-146.756C357.565,-142.657 350.247,-138.597 343,-136 252.285,-103.497 209.774,-158.978 128,-108 104.641,-93.438 88.5304,-65.827 79.1183,-45.2033"/>
<polygon fill="black" stroke="black" points="82.3261,-43.803 75.1483,-36.01 75.8997,-46.5782 82.3261,-43.803"/>
</a>
</g>
<!-- http://latin.omdoc.org/logics/tptp?Henkin&#45;B -->
<g id="node11" class="node"><title>http://latin.omdoc.org/logics/tptp?Henkin&#45;B</title>
<a xlink:href="http://latin.omdoc.org/logics/tptp?Henkin-B" class="graphtheory">
<ellipse fill="gray" stroke="black" cx="525" cy="-18" rx="44.271" ry="18"/>
<text text-anchor="middle" x="525" y="-14.3" font-family="Times New Roman,serif" font-size="14.00">Henkin&#45;B</text>
</a>
</g>
<!-- http://latin.omdoc.org/logics/tptp?CHOL&#45;&gt;http://latin.omdoc.org/logics/tptp?Henkin&#45;B -->
<g id="edge11" class="edge"><title>http://latin.omdoc.org/logics/tptp?CHOL&#45;&gt;http://latin.omdoc.org/logics/tptp?Henkin&#45;B</title>
<a class="graphinclude">
<path fill="none" stroke="black" d="M403.174,-146.939C409.092,-143.127 415.677,-139.179 422,-136 453.417,-120.204 471.723,-133.439 496,-108 511.904,-91.3351 519.087,-65.8383 522.33,-46.3995"/>
<polygon fill="black" stroke="black" points="525.821,-46.71 523.757,-36.3181 518.89,-45.7288 525.821,-46.71"/>
</a>
</g>
<!-- http://latin.omdoc.org/logics/tptp?Henkin&#45;Xi -->
<g id="node13" class="node"><title>http://latin.omdoc.org/logics/tptp?Henkin&#45;Xi</title>
<a xlink:href="http://latin.omdoc.org/logics/tptp?Henkin-Xi" class="graphtheory">
<ellipse fill="gray" stroke="black" cx="204" cy="-18" rx="47.169" ry="18"/>
<text text-anchor="middle" x="204" y="-14.3" font-family="Times New Roman,serif" font-size="14.00">Henkin&#45;Xi</text>
</a>
</g>
<!-- http://latin.omdoc.org/logics/tptp?CHOL&#45;&gt;http://latin.omdoc.org/logics/tptp?Henkin&#45;Xi -->
<g id="edge13" class="edge"><title>http://latin.omdoc.org/logics/tptp?CHOL&#45;&gt;http://latin.omdoc.org/logics/tptp?Henkin&#45;Xi</title>
<a class="graphinclude">
<path fill="none" stroke="black" d="M362.201,-147.108C356.128,-143.299 349.401,-139.31 343,-136 314.332,-121.176 301.824,-127.357 276,-108 252.694,-90.5302 232.475,-63.8944 219.448,-44.3127"/>
<polygon fill="black" stroke="black" points="222.355,-42.3631 213.983,-35.8704 216.479,-46.167 222.355,-42.3631"/>
</a>
</g>
<!-- http://latin.omdoc.org/logics/tptp?Henkin -->
<g id="node15" class="node"><title>http://latin.omdoc.org/logics/tptp?Henkin</title>
<a xlink:href="http://latin.omdoc.org/logics/tptp?Henkin" class="graphtheory">
<ellipse fill="gray" stroke="black" cx="306" cy="-18" rx="36.096" ry="18"/>
<text text-anchor="middle" x="306" y="-14.3" font-family="Times New Roman,serif" font-size="14.00">Henkin</text>
</a>
</g>
<!-- http://latin.omdoc.org/logics/tptp?CHOL&#45;&gt;http://latin.omdoc.org/logics/tptp?Henkin -->
<g id="edge15" class="edge"><title>http://latin.omdoc.org/logics/tptp?CHOL&#45;&gt;http://latin.omdoc.org/logics/tptp?Henkin</title>
<a class="graphinclude">
<path fill="none" stroke="black" d="M377.952,-143.921C372.129,-125.486 361.586,-95.5976 348,-72 342.14,-61.8224 334.447,-51.5064 327.248,-42.714"/>
<polygon fill="black" stroke="black" points="329.698,-40.1899 320.573,-34.8053 324.348,-44.7048 329.698,-40.1899"/>
</a>
</g>
<!-- http://latin.omdoc.org/logics/tptp?Henkin&#45;Eta -->
<g id="node17" class="node"><title>http://latin.omdoc.org/logics/tptp?Henkin&#45;Eta</title>
<a xlink:href="http://latin.omdoc.org/logics/tptp?Henkin-Eta" class="graphtheory">
<ellipse fill="gray" stroke="black" cx="411" cy="-18" rx="50.5427" ry="18"/>
<text text-anchor="middle" x="411" y="-14.3" font-family="Times New Roman,serif" font-size="14.00">Henkin&#45;Eta</text>
</a>
</g>
<!-- http://latin.omdoc.org/logics/tptp?CHOL&#45;&gt;http://latin.omdoc.org/logics/tptp?Henkin&#45;Eta -->
<g id="edge17" class="edge"><title>http://latin.omdoc.org/logics/tptp?CHOL&#45;&gt;http://latin.omdoc.org/logics/tptp?Henkin&#45;Eta</title>
<a class="graphinclude">
<path fill="none" stroke="black" d="M386.377,-143.871C391.171,-119.564 399.993,-74.8187 405.673,-46.0132"/>
<polygon fill="black" stroke="black" points="409.11,-46.6775 407.611,-36.1893 402.242,-45.3232 409.11,-46.6775"/>
</a>
</g>
<!-- http://latin.omdoc.org/logics/tptp?Xi -->
<g id="node19" class="node"><title>http://latin.omdoc.org/logics/tptp?Xi</title>
<a xlink:href="http://latin.omdoc.org/logics/tptp?Xi" class="graphtheory">
<ellipse fill="gray" stroke="black" cx="460" cy="-90" rx="27" ry="18"/>
<text text-anchor="middle" x="460" y="-86.3" font-family="Times New Roman,serif" font-size="14.00">Xi</text>
</a>
</g>
<!-- http://latin.omdoc.org/logics/tptp?CHOL&#45;&gt;http://latin.omdoc.org/logics/tptp?Xi -->
<g id="edge19" class="edge"><title>http://latin.omdoc.org/logics/tptp?CHOL&#45;&gt;http://latin.omdoc.org/logics/tptp?Xi</title>
<a class="graphinclude">
<path fill="none" stroke="black" d="M399.708,-145.811C410.665,-135.85 425.135,-122.696 437.152,-111.771"/>
<polygon fill="black" stroke="black" points="439.588,-114.286 444.633,-104.97 434.879,-109.107 439.588,-114.286"/>
</a>
</g>
<!-- http://latin.omdoc.org/logics/tptp?B&#45;&gt;http://latin.omdoc.org/logics/tptp?Henkin&#45;FuncExt -->
<g id="edge57" class="edge"><title>http://latin.omdoc.org/logics/tptp?B&#45;&gt;http://latin.omdoc.org/logics/tptp?Henkin&#45;FuncExt</title>
<a class="graphinclude">
<path fill="none" stroke="black" d="M146.576,-76.1609C133.378,-66.4366 114.919,-52.8351 99.318,-41.3396"/>
<polygon fill="black" stroke="black" points="101.123,-38.3221 90.9963,-35.2078 96.9707,-43.9576 101.123,-38.3221"/>
</a>
</g>
<!-- http://latin.omdoc.org/logics/tptp?B&#45;&gt;http://latin.omdoc.org/logics/tptp?Henkin&#45;Xi -->
<g id="edge59" class="edge"><title>http://latin.omdoc.org/logics/tptp?B&#45;&gt;http://latin.omdoc.org/logics/tptp?Henkin&#45;Xi</title>
<a class="graphinclude">
<path fill="none" stroke="black" d="M173.277,-72.7646C178.055,-64.4043 183.991,-54.0159 189.368,-44.6059"/>
<polygon fill="black" stroke="black" points="192.573,-46.0523 194.495,-35.6334 186.495,-42.5793 192.573,-46.0523"/>
</a>
</g>
<!-- http://latin.omdoc.org/logics/tptp?B&#45;&gt;http://latin.omdoc.org/logics/tptp?Henkin -->
<g id="edge61" class="edge"><title>http://latin.omdoc.org/logics/tptp?B&#45;&gt;http://latin.omdoc.org/logics/tptp?Henkin</title>
<a class="graphinclude">
<path fill="none" stroke="black" d="M185.259,-78.5203C208.236,-67.1933 245.182,-48.9808 272.16,-35.6816"/>
<polygon fill="black" stroke="black" points="273.826,-38.7627 281.248,-31.2018 270.731,-32.4841 273.826,-38.7627"/>
</a>
</g>
<!-- http://latin.omdoc.org/logics/tptp?B&#45;&gt;http://latin.omdoc.org/logics/tptp?Henkin&#45;Eta -->
<g id="edge63" class="edge"><title>http://latin.omdoc.org/logics/tptp?B&#45;&gt;http://latin.omdoc.org/logics/tptp?Henkin&#45;Eta</title>
<a class="graphinclude">
<path fill="none" stroke="black" d="M188.586,-82.0322C229.167,-70.5316 310.868,-47.3776 363.149,-32.5611"/>
<polygon fill="black" stroke="black" points="364.205,-35.8997 372.872,-29.8056 362.296,-29.1649 364.205,-35.8997"/>
</a>
</g>
<!-- http://latin.omdoc.org/logics/tptp?Eta&#45;&gt;http://latin.omdoc.org/logics/tptp?Henkin&#45;B -->
<g id="edge51" class="edge"><title>http://latin.omdoc.org/logics/tptp?Eta&#45;&gt;http://latin.omdoc.org/logics/tptp?Henkin&#45;B</title>
<a class="graphinclude">
<path fill="none" stroke="black" d="M335.609,-81.2413C370.853,-69.6586 437.794,-47.6591 481.909,-33.1614"/>
<polygon fill="black" stroke="black" points="483.095,-36.4557 491.503,-30.0085 480.91,-29.8056 483.095,-36.4557"/>
</a>
</g>
<!-- http://latin.omdoc.org/logics/tptp?Eta&#45;&gt;http://latin.omdoc.org/logics/tptp?Henkin&#45;Xi -->
<g id="edge53" class="edge"><title>http://latin.omdoc.org/logics/tptp?Eta&#45;&gt;http://latin.omdoc.org/logics/tptp?Henkin&#45;Xi</title>
<a class="graphinclude">
<path fill="none" stroke="black" d="M293.188,-76.8069C277.327,-66.527 254.294,-51.5978 235.608,-39.4864"/>
<polygon fill="black" stroke="black" points="237.398,-36.4758 227.102,-33.9738 233.59,-42.3498 237.398,-36.4758"/>
</a>
</g>
<!-- http://latin.omdoc.org/logics/tptp?Eta&#45;&gt;http://latin.omdoc.org/logics/tptp?Henkin -->
<g id="edge55" class="edge"><title>http://latin.omdoc.org/logics/tptp?Eta&#45;&gt;http://latin.omdoc.org/logics/tptp?Henkin</title>
<a class="graphinclude">
<path fill="none" stroke="black" d="M310.517,-71.6966C309.856,-63.9827 309.061,-54.7125 308.324,-46.1124"/>
<polygon fill="black" stroke="black" points="311.807,-45.7689 307.466,-36.1043 304.833,-46.3667 311.807,-45.7689"/>
</a>
</g>
<!-- http://latin.omdoc.org/logics/tptp?Xi&#45;&gt;http://latin.omdoc.org/logics/tptp?Henkin&#45;B -->
<g id="edge45" class="edge"><title>http://latin.omdoc.org/logics/tptp?Xi&#45;&gt;http://latin.omdoc.org/logics/tptp?Henkin&#45;B</title>
<a class="graphinclude">
<path fill="none" stroke="black" d="M473.785,-74.1548C482.219,-65.0723 493.203,-53.243 502.835,-42.8696"/>
<polygon fill="black" stroke="black" points="505.633,-45 509.873,-35.2905 500.504,-40.2368 505.633,-45"/>
</a>
</g>
<!-- http://latin.omdoc.org/logics/tptp?Xi&#45;&gt;http://latin.omdoc.org/logics/tptp?Henkin -->
<g id="edge47" class="edge"><title>http://latin.omdoc.org/logics/tptp?Xi&#45;&gt;http://latin.omdoc.org/logics/tptp?Henkin</title>
<a class="graphinclude">
<path fill="none" stroke="black" d="M438.262,-79.1192C412.975,-67.6251 370.882,-48.4918 340.978,-34.8991"/>
<polygon fill="black" stroke="black" points="342.286,-31.6491 331.734,-30.6973 339.389,-38.0217 342.286,-31.6491"/>
</a>
</g>
<!-- http://latin.omdoc.org/logics/tptp?Xi&#45;&gt;http://latin.omdoc.org/logics/tptp?Henkin&#45;Eta -->
<g id="edge49" class="edge"><title>http://latin.omdoc.org/logics/tptp?Xi&#45;&gt;http://latin.omdoc.org/logics/tptp?Henkin&#45;Eta</title>
<a class="graphinclude">
<path fill="none" stroke="black" d="M449.125,-73.4647C443.107,-64.8665 435.479,-53.9704 428.631,-44.187"/>
<polygon fill="black" stroke="black" points="431.475,-42.147 422.873,-35.9618 425.741,-46.1613 431.475,-42.147"/>
</a>
</g>
<!-- http://latin.omdoc.org/logics/tptp?IHOL -->
<g id="node21" class="node"><title>http://latin.omdoc.org/logics/tptp?IHOL</title>
<a xlink:href="http://latin.omdoc.org/logics/tptp?IHOL" class="graphtheory">
<ellipse fill="gray" stroke="black" cx="775" cy="-162" rx="32.2457" ry="18"/>
<text text-anchor="middle" x="775" y="-158.3" font-family="Times New Roman,serif" font-size="14.00">IHOL</text>
</a>
</g>
<!-- http://latin.omdoc.org/logics/tptp?IHOL&#45;&gt;http://latin.omdoc.org/logics/tptp?CHOL -->
<g id="edge21" class="edge"><title>http://latin.omdoc.org/logics/tptp?IHOL&#45;&gt;http://latin.omdoc.org/logics/tptp?CHOL</title>
<a class="graphinclude">
<path fill="none" stroke="black" d="M742.632,-162C637.997,-162 533.362,-162 428.728,-162"/>
<polygon fill="black" stroke="black" points="428.602,-158.5 418.602,-162 428.602,-165.5 428.602,-158.5"/>
</a>
</g>
<!-- http://cds.omdoc.org/urtheories?LF -->
<g id="node23" class="node"><title>http://cds.omdoc.org/urtheories?LF</title>
<a xlink:href="http://cds.omdoc.org/urtheories?LF" class="graphtheory">
<ellipse fill="gray" stroke="black" cx="383" cy="-234" rx="27" ry="18"/>
<text text-anchor="middle" x="383" y="-230.3" font-family="Times New Roman,serif" font-size="14.00">LF</text>
</a>
</g>
<!-- http://cds.omdoc.org/urtheories?LF&#45;&gt;http://latin.omdoc.org/logics/tptp?CHOL -->
<g id="edge23" class="edge"><title>http://cds.omdoc.org/urtheories?LF&#45;&gt;http://latin.omdoc.org/logics/tptp?CHOL</title>
<a class="graphmeta">
<path fill="none" stroke="black" d="M383,-215.697C383,-207.983 383,-198.712 383,-190.112"/>
<polygon fill="black" stroke="black" points="386.5,-190.104 383,-180.104 379.5,-190.104 386.5,-190.104"/>
</a>
</g>
<!-- http://cds.omdoc.org/urtheories?LF&#45;&gt;http://latin.omdoc.org/logics/tptp?B -->
<g id="edge39" class="edge"><title>http://cds.omdoc.org/urtheories?LF&#45;&gt;http://latin.omdoc.org/logics/tptp?B</title>
<a class="graphmeta">
<path fill="none" stroke="black" d="M356.769,-229.183C327.059,-223.868 278.209,-212.044 243,-188 215.379,-169.138 192.401,-137.867 178.476,-115.943"/>
<polygon fill="black" stroke="black" points="181.302,-113.858 173.075,-107.182 175.343,-117.531 181.302,-113.858"/>
</a>
</g>
<!-- http://cds.omdoc.org/urtheories?LF&#45;&gt;http://latin.omdoc.org/logics/tptp?Eta -->
<g id="edge29" class="edge"><title>http://cds.omdoc.org/urtheories?LF&#45;&gt;http://latin.omdoc.org/logics/tptp?Eta</title>
<a class="graphmeta">
<path fill="none" stroke="black" d="M364.974,-220.365C354.707,-212.252 342.446,-200.848 335,-188 322.568,-166.549 316.848,-138.731 314.22,-118.389"/>
<polygon fill="black" stroke="black" points="317.673,-117.774 313.082,-108.226 310.717,-118.553 317.673,-117.774"/>
</a>
</g>
<!-- http://cds.omdoc.org/urtheories?LF&#45;&gt;http://latin.omdoc.org/logics/tptp?Description -->
<g id="edge31" class="edge"><title>http://cds.omdoc.org/urtheories?LF&#45;&gt;http://latin.omdoc.org/logics/tptp?Description</title>
<a class="graphmeta">
<path fill="none" stroke="black" d="M402.389,-221.435C417.203,-212.506 438.057,-199.734 456,-188 494.575,-162.773 538.078,-132.305 566.207,-112.33"/>
<polygon fill="black" stroke="black" points="568.302,-115.135 574.421,-106.486 564.244,-109.432 568.302,-115.135"/>
</a>
</g>
<!-- http://cds.omdoc.org/urtheories?LF&#45;&gt;http://latin.omdoc.org/logics/tptp?Henkin&#45;FuncExt -->
<g id="edge27" class="edge"><title>http://cds.omdoc.org/urtheories?LF&#45;&gt;http://latin.omdoc.org/logics/tptp?Henkin&#45;FuncExt</title>
<a class="graphmeta">
<path fill="none" stroke="black" d="M355.98,-231.693C297.21,-228.32 160.283,-217.432 126,-188 84.1963,-152.111 72.9676,-84.4664 70.0067,-46.5488"/>
<polygon fill="black" stroke="black" points="73.4792,-46.0052 69.3501,-36.2482 66.4934,-46.4506 73.4792,-46.0052"/>
</a>
</g>
<!-- http://cds.omdoc.org/urtheories?LF&#45;&gt;http://latin.omdoc.org/logics/tptp?Henkin&#45;B -->
<g id="edge37" class="edge"><title>http://cds.omdoc.org/urtheories?LF&#45;&gt;http://latin.omdoc.org/logics/tptp?Henkin&#45;B</title>
<a class="graphmeta">
<path fill="none" stroke="black" d="M410.201,-233.661C455.899,-233.546 549.498,-227.949 615,-188 653.638,-164.435 663.183,-150.763 678,-108 683.238,-92.8818 687.279,-85.0345 678,-72 655.668,-40.6308 613.431,-27.6572 578.983,-22.3743"/>
<polygon fill="black" stroke="black" points="579.416,-18.901 569.036,-21.0243 578.474,-25.8374 579.416,-18.901"/>
</a>
</g>
<!-- http://cds.omdoc.org/urtheories?LF&#45;&gt;http://latin.omdoc.org/logics/tptp?Henkin&#45;Xi -->
<g id="edge25" class="edge"><title>http://cds.omdoc.org/urtheories?LF&#45;&gt;http://latin.omdoc.org/logics/tptp?Henkin&#45;Xi</title>
<a class="graphmeta">
<path fill="none" stroke="black" d="M355.853,-232.297C316.368,-230.099 242.13,-221.434 190,-188 140.793,-156.441 100.958,-123.827 128,-72 135.813,-57.0256 150.003,-45.4188 164.023,-36.9362"/>
<polygon fill="black" stroke="black" points="166.142,-39.7604 173.144,-31.8091 162.711,-33.6585 166.142,-39.7604"/>
</a>
</g>
<!-- http://cds.omdoc.org/urtheories?LF&#45;&gt;http://latin.omdoc.org/logics/tptp?Henkin -->
<g id="edge43" class="edge"><title>http://cds.omdoc.org/urtheories?LF&#45;&gt;http://latin.omdoc.org/logics/tptp?Henkin</title>
<a class="graphmeta">
<path fill="none" stroke="black" d="M361.453,-222.942C346.576,-215.122 327.175,-203.077 314,-188 288.099,-158.359 284.656,-146.399 276,-108 272.481,-92.3917 271.925,-87.4723 276,-72 278.571,-62.2388 283.397,-52.3871 288.438,-43.87"/>
<polygon fill="black" stroke="black" points="291.52,-45.5442 293.896,-35.2192 285.6,-41.8089 291.52,-45.5442"/>
</a>
</g>
<!-- http://cds.omdoc.org/urtheories?LF&#45;&gt;http://latin.omdoc.org/logics/tptp?Henkin&#45;Eta -->
<g id="edge41" class="edge"><title>http://cds.omdoc.org/urtheories?LF&#45;&gt;http://latin.omdoc.org/logics/tptp?Henkin&#45;Eta</title>
<a class="graphmeta">
<path fill="none" stroke="black" d="M409.741,-230.438C467.593,-223.264 603.467,-197.221 657,-108 727.579,9.63088 578.715,-61.6347 471,-36 466.853,-35.013 462.562,-33.9275 458.27,-32.7971"/>
<polygon fill="black" stroke="black" points="458.886,-29.338 448.319,-30.1032 457.057,-36.0948 458.886,-29.338"/>
</a>
</g>
<!-- http://cds.omdoc.org/urtheories?LF&#45;&gt;http://latin.omdoc.org/logics/tptp?Xi -->
<g id="edge33" class="edge"><title>http://cds.omdoc.org/urtheories?LF&#45;&gt;http://latin.omdoc.org/logics/tptp?Xi</title>
<a class="graphmeta">
<path fill="none" stroke="black" d="M400.759,-220.205C410.931,-212.035 423.187,-200.628 431,-188 444.309,-166.489 451.82,-138.509 455.844,-118.131"/>
<polygon fill="black" stroke="black" points="459.297,-118.707 457.644,-108.242 452.41,-117.454 459.297,-118.707"/>
</a>
</g>
<!-- http://cds.omdoc.org/urtheories?LF&#45;&gt;http://latin.omdoc.org/logics/tptp?IHOL -->
<g id="edge35" class="edge"><title>http://cds.omdoc.org/urtheories?LF&#45;&gt;http://latin.omdoc.org/logics/tptp?IHOL</title>
<a class="graphmeta">
<path fill="none" stroke="black" d="M410.214,-232.823C469.593,-231.717 614.621,-225.09 729,-188 734.512,-186.213 740.131,-183.765 745.463,-181.097"/>
<polygon fill="black" stroke="black" points="747.512,-183.969 754.663,-176.152 744.198,-177.804 747.512,-183.969"/>
</a>
</g>
</g>
</svg>
