<?xml version="1.0" encoding="UTF-8" standalone="no"?>
<!DOCTYPE svg PUBLIC "-//W3C//DTD SVG 1.1//EN"
 "http://www.w3.org/Graphics/SVG/1.1/DTD/svg11.dtd">
<!-- Generated by graphviz version 2.28.0 (20110507.0327)
 -->
<!-- Title: MMT Pages: 1 -->
<svg
 viewBox="0.00 0.00 176.00 260.00" xmlns="http://www.w3.org/2000/svg" xmlns:xlink="http://www.w3.org/1999/xlink">
<g id="graph1" class="graph" transform="scale(1 1) rotate(0) translate(4 256)">
<title>MMT</title>
<polygon fill="white" stroke="white" points="-4,5 -4,-256 173,-256 173,5 -4,5"/>
<g id="graph2" class="cluster"><title>cluster_local</title>
<polygon fill="none" stroke="black" points="8,-64 8,-116 130,-116 130,-64 8,-64"/>
</g>
<!-- http://latin.omdoc.org/logics/tptp?Description -->
<g id="node2" class="node"><title>http://latin.omdoc.org/logics/tptp?Description</title>
<a xlink:href="http://latin.omdoc.org/logics/tptp?Description" class="graphtheory">
<ellipse fill="none" stroke="black" cx="69" cy="-90" rx="52.4675" ry="18"/>
<text text-anchor="middle" x="69" y="-86.3" font-family="Times New Roman,serif" font-size="14.00">Description</text>
</a>
</g>
<!-- http://latin.omdoc.org/logics/tptp?Henkin+Desc -->
<g id="node3" class="node"><title>http://latin.omdoc.org/logics/tptp?Henkin+Desc</title>
<a xlink:href="http://latin.omdoc.org/logics/tptp?Henkin+Desc" class="graphtheory">
<ellipse fill="gray" stroke="black" cx="109" cy="-18" rx="59.1941" ry="18"/>
<text text-anchor="middle" x="109" y="-14.3" font-family="Times New Roman,serif" font-size="14.00">Henkin+Desc</text>
</a>
</g>
<!-- http://latin.omdoc.org/logics/tptp?Description&#45;&gt;http://latin.omdoc.org/logics/tptp?Henkin+Desc -->
<g id="edge3" class="edge"><title>http://latin.omdoc.org/logics/tptp?Description&#45;&gt;http://latin.omdoc.org/logics/tptp?Henkin+Desc</title>
<a class="graphinclude">
<path fill="none" stroke="black" d="M78.6829,-72.055C83.3996,-63.8006 89.1706,-53.7014 94.407,-44.5378"/>
<polygon fill="black" stroke="black" points="97.4837,-46.2079 99.4063,-35.789 91.406,-42.7349 97.4837,-46.2079"/>
</a>
</g>
<!-- http://latin.omdoc.org/logics/tptp?CHOL -->
<g id="node5" class="node"><title>http://latin.omdoc.org/logics/tptp?CHOL</title>
<a xlink:href="http://latin.omdoc.org/logics/tptp?CHOL" class="graphtheory">
<ellipse fill="gray" stroke="black" cx="86" cy="-162" rx="35.6194" ry="18"/>
<text text-anchor="middle" x="86" y="-158.3" font-family="Times New Roman,serif" font-size="14.00">CHOL</text>
</a>
</g>
<!-- http://latin.omdoc.org/logics/tptp?CHOL&#45;&gt;http://latin.omdoc.org/logics/tptp?Description -->
<g id="edge5" class="edge"><title>http://latin.omdoc.org/logics/tptp?CHOL&#45;&gt;http://latin.omdoc.org/logics/tptp?Description</title>
<a class="graphinclude">
<path fill="none" stroke="black" d="M81.8848,-144.055C79.9919,-136.261 77.6996,-126.822 75.5763,-118.079"/>
<polygon fill="black" stroke="black" points="78.9566,-117.167 73.1954,-108.275 72.1543,-118.819 78.9566,-117.167"/>
</a>
</g>
<!-- http://cds.omdoc.org/urtheories?LF -->
<g id="node7" class="node"><title>http://cds.omdoc.org/urtheories?LF</title>
<a xlink:href="http://cds.omdoc.org/urtheories?LF" class="graphtheory">
<ellipse fill="gray" stroke="black" cx="86" cy="-234" rx="27" ry="18"/>
<text text-anchor="middle" x="86" y="-230.3" font-family="Times New Roman,serif" font-size="14.00">LF</text>
</a>
</g>
<!-- http://cds.omdoc.org/urtheories?LF&#45;&gt;http://latin.omdoc.org/logics/tptp?Description -->
<g id="edge7" class="edge"><title>http://cds.omdoc.org/urtheories?LF&#45;&gt;http://latin.omdoc.org/logics/tptp?Description</title>
<a class="graphmeta">
<path fill="none" stroke="black" d="M69.7917,-219.566C59.3705,-209.816 46.7427,-195.636 41,-180 33.2012,-158.765 42.2444,-134.212 52.0748,-116.281"/>
<polygon fill="black" stroke="black" points="55.1508,-117.954 57.2022,-107.56 49.1166,-114.406 55.1508,-117.954"/>
</a>
</g>
<!-- http://cds.omdoc.org/urtheories?LF&#45;&gt;http://latin.omdoc.org/logics/tptp?Henkin+Desc -->
<g id="edge11" class="edge"><title>http://cds.omdoc.org/urtheories?LF&#45;&gt;http://latin.omdoc.org/logics/tptp?Henkin+Desc</title>
<a class="graphmeta">
<path fill="none" stroke="black" d="M101.987,-218.947C111.96,-209.131 124.003,-195.118 130,-180 149.022,-132.049 146.94,-113.937 134,-64 132.293,-57.4141 129.391,-50.7659 126.155,-44.6748"/>
<polygon fill="black" stroke="black" points="128.965,-42.5437 120.919,-35.6506 122.911,-46.0567 128.965,-42.5437"/>
</a>
</g>
<!-- http://cds.omdoc.org/urtheories?LF&#45;&gt;http://latin.omdoc.org/logics/tptp?CHOL -->
<g id="edge9" class="edge"><title>http://cds.omdoc.org/urtheories?LF&#45;&gt;http://latin.omdoc.org/logics/tptp?CHOL</title>
<a class="graphmeta">
<path fill="none" stroke="black" d="M86,-215.697C86,-207.983 86,-198.712 86,-190.112"/>
<polygon fill="black" stroke="black" points="89.5001,-190.104 86,-180.104 82.5001,-190.104 89.5001,-190.104"/>
</a>
</g>
</g>
</svg>
