<?xml version="1.0" encoding="UTF-8" standalone="no"?>
<!DOCTYPE svg PUBLIC "-//W3C//DTD SVG 1.1//EN"
 "http://www.w3.org/Graphics/SVG/1.1/DTD/svg11.dtd">
<!-- Generated by graphviz version 2.28.0 (20110507.0327)
 -->
<!-- Title: MMT Pages: 1 -->
<svg width="300pt" height="260pt"
 viewBox="0.00 0.00 300.00 260.00" xmlns="http://www.w3.org/2000/svg" xmlns:xlink="http://www.w3.org/1999/xlink">
<g id="graph1" class="graph" transform="scale(1 1) rotate(0) translate(4 256)">
<title>MMT</title>
<polygon fill="white" stroke="white" points="-4,5 -4,-256 297,-256 297,5 -4,5"/>
<g id="graph2" class="cluster"><title>cluster_local</title>
<polygon fill="none" stroke="black" points="114,-64 114,-116 184,-116 184,-64 114,-64"/>
</g>
<!-- http://latin.omdoc.org/logics/tptp?Eta -->
<g id="node2" class="node"><title>http://latin.omdoc.org/logics/tptp?Eta</title>
<a xlink:href="http://latin.omdoc.org/logics/tptp?Eta" class="graphtheory">
<ellipse fill="none" stroke="black" cx="149" cy="-90" rx="27" ry="18"/>
<text text-anchor="middle" x="149" y="-86.3" font-family="Times New Roman,serif" font-size="14.00">Eta</text>
</a>
</g>
<!-- http://latin.omdoc.org/logics/tptp?Henkin&#45;B -->
<g id="node3" class="node"><title>http://latin.omdoc.org/logics/tptp?Henkin&#45;B</title>
<a xlink:href="http://latin.omdoc.org/logics/tptp?Henkin-B" class="graphtheory">
<ellipse fill="gray" stroke="black" cx="248" cy="-18" rx="44.271" ry="18"/>
<text text-anchor="middle" x="248" y="-14.3" font-family="Times New Roman,serif" font-size="14.00">Henkin&#45;B</text>
</a>
</g>
<!-- http://latin.omdoc.org/logics/tptp?Eta&#45;&gt;http://latin.omdoc.org/logics/tptp?Henkin&#45;B -->
<g id="edge3" class="edge"><title>http://latin.omdoc.org/logics/tptp?Eta&#45;&gt;http://latin.omdoc.org/logics/tptp?Henkin&#45;B</title>
<a class="graphinclude">
<path fill="none" stroke="black" d="M165.185,-75.4729C169.892,-71.6693 175.09,-67.5926 180,-64 191.654,-55.4739 204.816,-46.5982 216.435,-39.005"/>
<polygon fill="black" stroke="black" points="218.479,-41.8508 224.968,-33.4755 214.673,-35.9762 218.479,-41.8508"/>
</a>
</g>
<!-- http://latin.omdoc.org/logics/tptp?Henkin&#45;Xi -->
<g id="node5" class="node"><title>http://latin.omdoc.org/logics/tptp?Henkin&#45;Xi</title>
<a xlink:href="http://latin.omdoc.org/logics/tptp?Henkin-Xi" class="graphtheory">
<ellipse fill="gray" stroke="black" cx="47" cy="-18" rx="47.169" ry="18"/>
<text text-anchor="middle" x="47" y="-14.3" font-family="Times New Roman,serif" font-size="14.00">Henkin&#45;Xi</text>
</a>
</g>
<!-- http://latin.omdoc.org/logics/tptp?Eta&#45;&gt;http://latin.omdoc.org/logics/tptp?Henkin&#45;Xi -->
<g id="edge5" class="edge"><title>http://latin.omdoc.org/logics/tptp?Eta&#45;&gt;http://latin.omdoc.org/logics/tptp?Henkin&#45;Xi</title>
<a class="graphinclude">
<path fill="none" stroke="black" d="M132.861,-75.4102C128.154,-71.6056 122.946,-67.544 118,-64 105.877,-55.3128 92.1187,-46.3902 79.9622,-38.8046"/>
<polygon fill="black" stroke="black" points="81.787,-35.8178 71.4399,-33.5398 78.108,-41.7731 81.787,-35.8178"/>
</a>
</g>
<!-- http://latin.omdoc.org/logics/tptp?Henkin -->
<g id="node7" class="node"><title>http://latin.omdoc.org/logics/tptp?Henkin</title>
<a xlink:href="http://latin.omdoc.org/logics/tptp?Henkin" class="graphtheory">
<ellipse fill="gray" stroke="black" cx="149" cy="-18" rx="36.096" ry="18"/>
<text text-anchor="middle" x="149" y="-14.3" font-family="Times New Roman,serif" font-size="14.00">Henkin</text>
</a>
</g>
<!-- http://latin.omdoc.org/logics/tptp?Eta&#45;&gt;http://latin.omdoc.org/logics/tptp?Henkin -->
<g id="edge7" class="edge"><title>http://latin.omdoc.org/logics/tptp?Eta&#45;&gt;http://latin.omdoc.org/logics/tptp?Henkin</title>
<a class="graphinclude">
<path fill="none" stroke="black" d="M149,-71.6966C149,-63.9827 149,-54.7125 149,-46.1124"/>
<polygon fill="black" stroke="black" points="152.5,-46.1043 149,-36.1043 145.5,-46.1044 152.5,-46.1043"/>
</a>
</g>
<!-- http://latin.omdoc.org/logics/tptp?CHOL -->
<g id="node9" class="node"><title>http://latin.omdoc.org/logics/tptp?CHOL</title>
<a xlink:href="http://latin.omdoc.org/logics/tptp?CHOL" class="graphtheory">
<ellipse fill="gray" stroke="black" cx="117" cy="-162" rx="35.6194" ry="18"/>
<text text-anchor="middle" x="117" y="-158.3" font-family="Times New Roman,serif" font-size="14.00">CHOL</text>
</a>
</g>
<!-- http://latin.omdoc.org/logics/tptp?CHOL&#45;&gt;http://latin.omdoc.org/logics/tptp?Eta -->
<g id="edge9" class="edge"><title>http://latin.omdoc.org/logics/tptp?CHOL&#45;&gt;http://latin.omdoc.org/logics/tptp?Eta</title>
<a class="graphinclude">
<path fill="none" stroke="black" d="M124.584,-144.411C128.369,-136.129 133.034,-125.925 137.269,-116.662"/>
<polygon fill="black" stroke="black" points="140.496,-118.02 141.471,-107.47 134.13,-115.11 140.496,-118.02"/>
</a>
</g>
<!-- http://latin.omdoc.org/logics/tptp?CHOL&#45;&gt;http://latin.omdoc.org/logics/tptp?Henkin&#45;B -->
<g id="edge21" class="edge"><title>http://latin.omdoc.org/logics/tptp?CHOL&#45;&gt;http://latin.omdoc.org/logics/tptp?Henkin&#45;B</title>
<a class="graphinclude">
<path fill="none" stroke="black" d="M141.636,-149.013C156.279,-141.057 174.556,-129.592 188,-116 208.556,-95.2175 225.356,-66.1489 235.897,-45.261"/>
<polygon fill="black" stroke="black" points="239.169,-46.5381 240.424,-36.0179 232.882,-43.4591 239.169,-46.5381"/>
</a>
</g>
<!-- http://latin.omdoc.org/logics/tptp?CHOL&#45;&gt;http://latin.omdoc.org/logics/tptp?Henkin&#45;Xi -->
<g id="edge23" class="edge"><title>http://latin.omdoc.org/logics/tptp?CHOL&#45;&gt;http://latin.omdoc.org/logics/tptp?Henkin&#45;Xi</title>
<a class="graphinclude">
<path fill="none" stroke="black" d="M108.833,-144.433C96.7795,-119.981 74.1147,-74.0041 59.8282,-45.0229"/>
<polygon fill="black" stroke="black" points="62.8927,-43.3236 55.3318,-35.9017 56.6141,-46.4187 62.8927,-43.3236"/>
</a>
</g>
<!-- http://latin.omdoc.org/logics/tptp?CHOL&#45;&gt;http://latin.omdoc.org/logics/tptp?Henkin -->
<g id="edge25" class="edge"><title>http://latin.omdoc.org/logics/tptp?CHOL&#45;&gt;http://latin.omdoc.org/logics/tptp?Henkin</title>
<a class="graphinclude">
<path fill="none" stroke="black" d="M111.573,-143.915C106.199,-124.046 100.086,-90.5763 110,-64 113.116,-55.6456 118.56,-47.8126 124.409,-41.0981"/>
<polygon fill="black" stroke="black" points="127.016,-43.435 131.345,-33.7652 121.931,-38.6245 127.016,-43.435"/>
</a>
</g>
<!-- http://cds.omdoc.org/urtheories?LF -->
<g id="node11" class="node"><title>http://cds.omdoc.org/urtheories?LF</title>
<a xlink:href="http://cds.omdoc.org/urtheories?LF" class="graphtheory">
<ellipse fill="gray" stroke="black" cx="181" cy="-234" rx="27" ry="18"/>
<text text-anchor="middle" x="181" y="-230.3" font-family="Times New Roman,serif" font-size="14.00">LF</text>
</a>
</g>
<!-- http://cds.omdoc.org/urtheories?LF&#45;&gt;http://latin.omdoc.org/logics/tptp?Eta -->
<g id="edge11" class="edge"><title>http://cds.omdoc.org/urtheories?LF&#45;&gt;http://latin.omdoc.org/logics/tptp?Eta</title>
<a class="graphmeta">
<path fill="none" stroke="black" d="M177.174,-215.936C173.155,-198.019 166.645,-169.027 161,-144 159.102,-135.588 157.03,-126.426 155.15,-118.122"/>
<polygon fill="black" stroke="black" points="158.521,-117.164 152.898,-108.184 151.694,-118.71 158.521,-117.164"/>
</a>
</g>
<!-- http://cds.omdoc.org/urtheories?LF&#45;&gt;http://latin.omdoc.org/logics/tptp?Henkin&#45;B -->
<g id="edge15" class="edge"><title>http://cds.omdoc.org/urtheories?LF&#45;&gt;http://latin.omdoc.org/logics/tptp?Henkin&#45;B</title>
<a class="graphmeta">
<path fill="none" stroke="black" d="M191.331,-216.841C197.487,-206.614 205.042,-192.927 210,-180 227.371,-134.708 238.362,-79.0954 243.83,-46.4978"/>
<polygon fill="black" stroke="black" points="247.325,-46.8051 245.473,-36.3734 240.416,-45.6831 247.325,-46.8051"/>
</a>
</g>
<!-- http://cds.omdoc.org/urtheories?LF&#45;&gt;http://latin.omdoc.org/logics/tptp?Henkin&#45;Xi -->
<g id="edge13" class="edge"><title>http://cds.omdoc.org/urtheories?LF&#45;&gt;http://latin.omdoc.org/logics/tptp?Henkin&#45;Xi</title>
<a class="graphmeta">
<path fill="none" stroke="black" d="M155.424,-227.779C130.05,-221.188 92.1264,-207.251 72,-180 42.9618,-140.682 41.7344,-81.0884 44.0039,-46.505"/>
<polygon fill="black" stroke="black" points="47.5186,-46.4616 44.8328,-36.2128 40.5412,-45.8996 47.5186,-46.4616"/>
</a>
</g>
<!-- http://cds.omdoc.org/urtheories?LF&#45;&gt;http://latin.omdoc.org/logics/tptp?Henkin -->
<g id="edge19" class="edge"><title>http://cds.omdoc.org/urtheories?LF&#45;&gt;http://latin.omdoc.org/logics/tptp?Henkin</title>
<a class="graphmeta">
<path fill="none" stroke="black" d="M185.916,-216.011C194.058,-184.761 207.603,-116.551 188,-64 184.884,-55.6456 179.44,-47.8126 173.591,-41.0981"/>
<polygon fill="black" stroke="black" points="176.069,-38.6245 166.655,-33.7652 170.984,-43.435 176.069,-38.6245"/>
</a>
</g>
<!-- http://cds.omdoc.org/urtheories?LF&#45;&gt;http://latin.omdoc.org/logics/tptp?CHOL -->
<g id="edge17" class="edge"><title>http://cds.omdoc.org/urtheories?LF&#45;&gt;http://latin.omdoc.org/logics/tptp?CHOL</title>
<a class="graphmeta">
<path fill="none" stroke="black" d="M167.427,-218.155C159.006,-208.944 148.003,-196.909 138.424,-186.432"/>
<polygon fill="black" stroke="black" points="140.773,-183.815 131.443,-178.797 135.607,-188.539 140.773,-183.815"/>
</a>
</g>
</g>
</svg>
