<?xml version="1.0" encoding="UTF-8" standalone="no"?>
<!DOCTYPE svg PUBLIC "-//W3C//DTD SVG 1.1//EN"
 "http://www.w3.org/Graphics/SVG/1.1/DTD/svg11.dtd">
<!-- Generated by graphviz version 2.28.0 (20110507.0327)
 -->
<!-- Title: MMT Pages: 1 -->
<svg
 viewBox="0.00 0.00 349.00 368.00" xmlns="http://www.w3.org/2000/svg" xmlns:xlink="http://www.w3.org/1999/xlink">
<g id="graph1" class="graph" transform="scale(1 1) rotate(0) translate(4 364)">
<title>MMT</title>
<polygon fill="white" stroke="white" points="-4,5 -4,-364 346,-364 346,5 -4,5"/>
<g id="graph2" class="cluster"><title>cluster_local</title>
<polygon fill="none" stroke="black" points="75,-66 75,-206 246,-206 246,-66 75,-66"/>
</g>
<!-- http://latin.omdoc.org/logics/tptp?TFF&#45;Arithmetic -->
<g id="node2" class="node"><title>http://latin.omdoc.org/logics/tptp?TFF&#45;Arithmetic</title>
<a xlink:href="http://latin.omdoc.org/logics/tptp?TFF-Arithmetic" class="graphtheory">
<ellipse fill="none" stroke="black" cx="151" cy="-180" rx="67.3907" ry="18"/>
<text text-anchor="middle" x="151" y="-176.3" font-family="Times New Roman,serif" font-size="14.00">TFF&#45;Arithmetic</text>
</a>
</g>
<!-- http://latin.omdoc.org/logics/tptp?THF&#45;Arithmetic -->
<g id="node3" class="node"><title>http://latin.omdoc.org/logics/tptp?THF&#45;Arithmetic</title>
<a xlink:href="http://latin.omdoc.org/logics/tptp?THF-Arithmetic" class="graphtheory">
<ellipse fill="none" stroke="black" cx="169" cy="-92" rx="68.3417" ry="18"/>
<text text-anchor="middle" x="169" y="-88.3" font-family="Times New Roman,serif" font-size="14.00">THF&#45;Arithmetic</text>
</a>
</g>
<!-- http://latin.omdoc.org/logics/tptp?TFF&#45;Arithmetic&#45;&gt;http://latin.omdoc.org/logics/tptp?THF&#45;Arithmetic -->
<g id="edge3" class="edge"><title>http://latin.omdoc.org/logics/tptp?TFF&#45;Arithmetic&#45;&gt;http://latin.omdoc.org/logics/tptp?THF&#45;Arithmetic</title>
<a xlink:href="http://latin.omdoc.org/logics/tptp?FirstToHigherArithmetic" class="graphview">
<path fill="none" stroke="black" d="M154.556,-162.009C157.055,-150.073 160.449,-133.853 163.32,-120.138"/>
<polygon fill="black" stroke="black" points="166.767,-120.755 165.39,-110.25 159.915,-119.321 166.767,-120.755"/>
</a>
<a xlink:href="http://latin.omdoc.org/logics/tptp?FirstToHigherArithmetic" class="FirstToHigherArithmetic">
<text text-anchor="middle" x="230.5" y="-132.3" font-family="Times New Roman,serif" font-size="14.00">FirstToHigherArithmetic</text>
</a>
</g>
<!-- http://latin.omdoc.org/logics/tptp?THF -->
<g id="node11" class="node"><title>http://latin.omdoc.org/logics/tptp?THF</title>
<a xlink:href="http://latin.omdoc.org/logics/tptp?THF" class="graphtheory">
<ellipse fill="gray" stroke="black" cx="169" cy="-18" rx="28.3955" ry="18"/>
<text text-anchor="middle" x="169" y="-14.3" font-family="Times New Roman,serif" font-size="14.00">THF</text>
</a>
</g>
<!-- http://latin.omdoc.org/logics/tptp?THF&#45;Arithmetic&#45;&gt;http://latin.omdoc.org/logics/tptp?THF -->
<g id="edge11" class="edge"><title>http://latin.omdoc.org/logics/tptp?THF&#45;Arithmetic&#45;&gt;http://latin.omdoc.org/logics/tptp?THF</title>
<a class="graphinclude">
<path fill="none" stroke="black" d="M169,-73.937C169,-65.8072 169,-55.8761 169,-46.7047"/>
<polygon fill="black" stroke="black" points="172.5,-46.4406 169,-36.4407 165.5,-46.4407 172.5,-46.4406"/>
</a>
</g>
<!-- http://latin.omdoc.org/logics/tptp?TFF -->
<g id="node5" class="node"><title>http://latin.omdoc.org/logics/tptp?TFF</title>
<a xlink:href="http://latin.omdoc.org/logics/tptp?TFF" class="graphtheory">
<ellipse fill="gray" stroke="black" cx="96" cy="-268" rx="26.949" ry="18"/>
<text text-anchor="middle" x="96" y="-264.3" font-family="Times New Roman,serif" font-size="14.00">TFF</text>
</a>
</g>
<!-- http://latin.omdoc.org/logics/tptp?TFF&#45;&gt;http://latin.omdoc.org/logics/tptp?TFF&#45;Arithmetic -->
<g id="edge5" class="edge"><title>http://latin.omdoc.org/logics/tptp?TFF&#45;&gt;http://latin.omdoc.org/logics/tptp?TFF&#45;Arithmetic</title>
<a class="graphinclude">
<path fill="none" stroke="black" d="M106.088,-251.226C114.101,-238.697 125.464,-220.93 134.755,-206.401"/>
<polygon fill="black" stroke="black" points="137.785,-208.16 140.224,-197.85 131.888,-204.389 137.785,-208.16"/>
</a>
</g>
<!-- http://latin.omdoc.org/logics/tptp?THF0 -->
<g id="node14" class="node"><title>http://latin.omdoc.org/logics/tptp?THF0</title>
<a xlink:href="http://latin.omdoc.org/logics/tptp?THF0" class="graphtheory">
<ellipse fill="gray" stroke="black" cx="32" cy="-180" rx="32.2457" ry="18"/>
<text text-anchor="middle" x="32" y="-176.3" font-family="Times New Roman,serif" font-size="14.00">THF0</text>
</a>
</g>
<!-- http://latin.omdoc.org/logics/tptp?TFF&#45;&gt;http://latin.omdoc.org/logics/tptp?THF0 -->
<g id="edge29" class="edge"><title>http://latin.omdoc.org/logics/tptp?TFF&#45;&gt;http://latin.omdoc.org/logics/tptp?THF0</title>
<a xlink:href="http://latin.omdoc.org/logics/tptp?FirstToHigher" class="graphview">
<path fill="none" stroke="black" d="M72.1544,-259.306C59.2059,-253.824 44.2059,-245.074 36,-232 31.6666,-225.096 29.9263,-216.587 29.4768,-208.511"/>
<polygon fill="black" stroke="black" points="32.9774,-208.331 29.5197,-198.316 25.9775,-208.301 32.9774,-208.331"/>
</a>
<a xlink:href="http://latin.omdoc.org/logics/tptp?FirstToHigher" class="FirstToHigher">
<text text-anchor="middle" x="75.5" y="-220.3" font-family="Times New Roman,serif" font-size="14.00">FirstToHigher</text>
</a>
</g>
<!-- http://latin.omdoc.org/logics/tptp?Arithmetic -->
<g id="node7" class="node"><title>http://latin.omdoc.org/logics/tptp?Arithmetic</title>
<a xlink:href="http://latin.omdoc.org/logics/tptp?Arithmetic" class="graphtheory">
<ellipse fill="gray" stroke="black" cx="227" cy="-268" rx="48.1437" ry="18"/>
<text text-anchor="middle" x="227" y="-264.3" font-family="Times New Roman,serif" font-size="14.00">Arithmetic</text>
</a>
</g>
<!-- http://latin.omdoc.org/logics/tptp?Arithmetic&#45;&gt;http://latin.omdoc.org/logics/tptp?TFF&#45;Arithmetic -->
<g id="edge7" class="edge"><title>http://latin.omdoc.org/logics/tptp?Arithmetic&#45;&gt;http://latin.omdoc.org/logics/tptp?TFF&#45;Arithmetic</title>
<a class="graphinclude">
<path fill="none" stroke="black" d="M212.346,-250.418C201.064,-237.652 185.299,-219.812 172.576,-205.415"/>
<polygon fill="black" stroke="black" points="175.113,-203 165.868,-197.824 169.867,-207.635 175.113,-203"/>
</a>
</g>
<!-- http://latin.omdoc.org/logics/tptp?Arithmetic&#45;&gt;http://latin.omdoc.org/logics/tptp?THF&#45;Arithmetic -->
<g id="edge13" class="edge"><title>http://latin.omdoc.org/logics/tptp?Arithmetic&#45;&gt;http://latin.omdoc.org/logics/tptp?THF&#45;Arithmetic</title>
<a class="graphinclude">
<path fill="none" stroke="black" d="M234.514,-250.101C245.618,-222.335 262.685,-166.324 239,-128 234.731,-121.092 228.64,-115.502 221.81,-110.991"/>
<polygon fill="black" stroke="black" points="223.26,-107.787 212.846,-105.836 219.77,-113.856 223.26,-107.787"/>
</a>
</g>
<!-- http://cds.omdoc.org/urtheories?LF -->
<g id="node9" class="node"><title>http://cds.omdoc.org/urtheories?LF</title>
<a xlink:href="http://cds.omdoc.org/urtheories?LF" class="graphtheory">
<ellipse fill="gray" stroke="black" cx="303" cy="-342" rx="27" ry="18"/>
<text text-anchor="middle" x="303" y="-338.3" font-family="Times New Roman,serif" font-size="14.00">LF</text>
</a>
</g>
<!-- http://cds.omdoc.org/urtheories?LF&#45;&gt;http://latin.omdoc.org/logics/tptp?TFF&#45;Arithmetic -->
<g id="edge9" class="edge"><title>http://cds.omdoc.org/urtheories?LF&#45;&gt;http://latin.omdoc.org/logics/tptp?TFF&#45;Arithmetic</title>
<a class="graphmeta">
<path fill="none" stroke="black" d="M276.545,-337.648C245.984,-332.308 196.515,-318.866 170,-286 152.427,-264.218 148.978,-231.577 149.103,-208.48"/>
<polygon fill="black" stroke="black" points="152.606,-208.4 149.389,-198.305 145.609,-208.203 152.606,-208.4"/>
</a>
</g>
<!-- http://cds.omdoc.org/urtheories?LF&#45;&gt;http://latin.omdoc.org/logics/tptp?THF&#45;Arithmetic -->
<g id="edge17" class="edge"><title>http://cds.omdoc.org/urtheories?LF&#45;&gt;http://latin.omdoc.org/logics/tptp?THF&#45;Arithmetic</title>
<a class="graphmeta">
<path fill="none" stroke="black" d="M304.366,-323.749C306.532,-284.193 306.279,-185.913 257,-128 249.74,-119.467 240.109,-112.997 229.886,-108.097"/>
<polygon fill="black" stroke="black" points="230.951,-104.745 220.38,-104.023 228.193,-111.179 230.951,-104.745"/>
</a>
</g>
<!-- http://cds.omdoc.org/urtheories?LF&#45;&gt;http://latin.omdoc.org/logics/tptp?TFF -->
<g id="edge25" class="edge"><title>http://cds.omdoc.org/urtheories?LF&#45;&gt;http://latin.omdoc.org/logics/tptp?TFF</title>
<a class="graphmeta">
<path fill="none" stroke="black" d="M275.99,-339.616C241.906,-336.931 182.275,-329.054 137,-306 129.551,-302.207 122.42,-296.706 116.254,-291.1"/>
<polygon fill="black" stroke="black" points="118.622,-288.52 109.01,-284.064 113.745,-293.542 118.622,-288.52"/>
</a>
</g>
<!-- http://cds.omdoc.org/urtheories?LF&#45;&gt;http://latin.omdoc.org/logics/tptp?Arithmetic -->
<g id="edge27" class="edge"><title>http://cds.omdoc.org/urtheories?LF&#45;&gt;http://latin.omdoc.org/logics/tptp?Arithmetic</title>
<a class="graphmeta">
<path fill="none" stroke="black" d="M287.985,-326.775C277.552,-316.891 263.416,-303.5 251.381,-292.098"/>
<polygon fill="black" stroke="black" points="253.503,-289.286 243.836,-284.95 248.688,-294.368 253.503,-289.286"/>
</a>
</g>
<!-- http://cds.omdoc.org/urtheories?LF&#45;&gt;http://latin.omdoc.org/logics/tptp?THF -->
<g id="edge23" class="edge"><title>http://cds.omdoc.org/urtheories?LF&#45;&gt;http://latin.omdoc.org/logics/tptp?THF</title>
<a class="graphmeta">
<path fill="none" stroke="black" d="M316.291,-326.184C327.249,-312.4 341,-290.767 341,-269 341,-269 341,-269 341,-91 341,-33.5779 258.421,-21.1634 207.701,-18.9539"/>
<polygon fill="black" stroke="black" points="207.509,-15.4461 197.402,-18.6248 207.285,-22.4425 207.509,-15.4461"/>
</a>
</g>
<!-- http://cds.omdoc.org/urtheories?LF&#45;&gt;http://latin.omdoc.org/logics/tptp?THF0 -->
<g id="edge21" class="edge"><title>http://cds.omdoc.org/urtheories?LF&#45;&gt;http://latin.omdoc.org/logics/tptp?THF0</title>
<a class="graphmeta">
<path fill="none" stroke="black" d="M275.935,-341.815C227.63,-341.888 125.504,-335.632 60,-286 37.5818,-269.014 34.6181,-259.075 27,-232 24.8219,-224.259 24.8053,-215.626 25.6953,-207.696"/>
<polygon fill="black" stroke="black" points="29.1528,-208.24 27.282,-197.811 22.2413,-207.13 29.1528,-208.24"/>
</a>
</g>
<!-- http://latin.omdoc.org/logics/tptp?THF0&#45;&gt;http://latin.omdoc.org/logics/tptp?THF&#45;Arithmetic -->
<g id="edge15" class="edge"><title>http://latin.omdoc.org/logics/tptp?THF0&#45;&gt;http://latin.omdoc.org/logics/tptp?THF&#45;Arithmetic</title>
<a class="graphinclude">
<path fill="none" stroke="black" d="M52.8074,-165.938C74.6361,-152.236 109.292,-130.481 135.083,-114.291"/>
<polygon fill="black" stroke="black" points="137.191,-117.1 143.8,-108.819 133.469,-111.171 137.191,-117.1"/>
</a>
</g>
<!-- http://latin.omdoc.org/logics/tptp?THF0&#45;&gt;http://latin.omdoc.org/logics/tptp?THF -->
<g id="edge19" class="edge"><title>http://latin.omdoc.org/logics/tptp?THF0&#45;&gt;http://latin.omdoc.org/logics/tptp?THF</title>
<a class="graphinclude">
<path fill="none" stroke="black" d="M33.754,-162.008C37.0636,-137.929 46.2827,-93.7327 71,-66 87.3998,-47.5995 112.579,-35.74 133.308,-28.5371"/>
<polygon fill="black" stroke="black" points="134.639,-31.7849 143.068,-25.3669 132.476,-25.1272 134.639,-31.7849"/>
</a>
</g>
</g>
</svg>
