<?xml version="1.0" encoding="UTF-8" standalone="no"?>
<!DOCTYPE svg PUBLIC "-//W3C//DTD SVG 1.1//EN"
 "http://www.w3.org/Graphics/SVG/1.1/DTD/svg11.dtd">
<!-- Generated by graphviz version 2.28.0 (20110507.0327)
 -->
<!-- Title: MMT Pages: 1 -->
<svg
 viewBox="0.00 0.00 227.00 204.00" xmlns="http://www.w3.org/2000/svg" xmlns:xlink="http://www.w3.org/1999/xlink">
<g id="graph1" class="graph" transform="scale(1 1) rotate(0) translate(4 200)">
<title>MMT</title>
<polygon fill="white" stroke="white" points="-4,5 -4,-200 224,-200 224,5 -4,5"/>
<g id="graph2" class="cluster"><title>cluster_local</title>
<polygon fill="none" stroke="black" points="8,-8 8,-60 144,-60 144,-8 8,-8"/>
</g>
<!-- http://latin.omdoc.org/logics/tptp?Henkin+Desc -->
<g id="node2" class="node"><title>http://latin.omdoc.org/logics/tptp?Henkin+Desc</title>
<a xlink:href="http://latin.omdoc.org/logics/tptp?Henkin+Desc" class="graphtheory">
<ellipse fill="none" stroke="black" cx="76" cy="-34" rx="59.1941" ry="18"/>
<text text-anchor="middle" x="76" y="-30.3" font-family="Times New Roman,serif" font-size="14.00">Henkin+Desc</text>
</a>
</g>
<!-- http://latin.omdoc.org/logics/tptp?Description -->
<g id="node3" class="node"><title>http://latin.omdoc.org/logics/tptp?Description</title>
<a xlink:href="http://latin.omdoc.org/logics/tptp?Description" class="graphtheory">
<ellipse fill="gray" stroke="black" cx="76" cy="-106" rx="52.4675" ry="18"/>
<text text-anchor="middle" x="76" y="-102.3" font-family="Times New Roman,serif" font-size="14.00">Description</text>
</a>
</g>
<!-- http://latin.omdoc.org/logics/tptp?Description&#45;&gt;http://latin.omdoc.org/logics/tptp?Henkin+Desc -->
<g id="edge3" class="edge"><title>http://latin.omdoc.org/logics/tptp?Description&#45;&gt;http://latin.omdoc.org/logics/tptp?Henkin+Desc</title>
<a class="graphinclude">
<path fill="none" stroke="black" d="M76,-87.6966C76,-79.9827 76,-70.7125 76,-62.1124"/>
<polygon fill="black" stroke="black" points="79.5001,-62.1043 76,-52.1043 72.5001,-62.1044 79.5001,-62.1043"/>
</a>
</g>
<!-- http://latin.omdoc.org/logics/tptp?Henkin -->
<g id="node5" class="node"><title>http://latin.omdoc.org/logics/tptp?Henkin</title>
<a xlink:href="http://latin.omdoc.org/logics/tptp?Henkin" class="graphtheory">
<ellipse fill="gray" stroke="black" cx="183" cy="-106" rx="36.096" ry="18"/>
<text text-anchor="middle" x="183" y="-102.3" font-family="Times New Roman,serif" font-size="14.00">Henkin</text>
</a>
</g>
<!-- http://latin.omdoc.org/logics/tptp?Henkin&#45;&gt;http://latin.omdoc.org/logics/tptp?Henkin+Desc -->
<g id="edge5" class="edge"><title>http://latin.omdoc.org/logics/tptp?Henkin&#45;&gt;http://latin.omdoc.org/logics/tptp?Henkin+Desc</title>
<a class="graphinclude">
<path fill="none" stroke="black" d="M161.86,-91.1703C146.612,-81.1949 125.747,-67.5446 108.403,-56.1984"/>
<polygon fill="black" stroke="black" points="109.988,-53.0525 99.7032,-50.5068 106.155,-58.9103 109.988,-53.0525"/>
</a>
</g>
<!-- http://cds.omdoc.org/urtheories?LF -->
<g id="node7" class="node"><title>http://cds.omdoc.org/urtheories?LF</title>
<a xlink:href="http://cds.omdoc.org/urtheories?LF" class="graphtheory">
<ellipse fill="gray" stroke="black" cx="76" cy="-178" rx="27" ry="18"/>
<text text-anchor="middle" x="76" y="-174.3" font-family="Times New Roman,serif" font-size="14.00">LF</text>
</a>
</g>
<!-- http://cds.omdoc.org/urtheories?LF&#45;&gt;http://latin.omdoc.org/logics/tptp?Henkin+Desc -->
<g id="edge7" class="edge"><title>http://cds.omdoc.org/urtheories?LF&#45;&gt;http://latin.omdoc.org/logics/tptp?Henkin+Desc</title>
<a class="graphmeta">
<path fill="none" stroke="black" d="M55.6821,-166.078C41.0836,-156.975 22.533,-142.52 14,-124 7.30463,-109.468 7.30463,-102.532 14,-88 19.8081,-75.3939 30.2574,-64.6715 40.9425,-56.2384"/>
<polygon fill="black" stroke="black" points="43.1087,-58.9898 49.0864,-50.2424 38.9584,-53.3528 43.1087,-58.9898"/>
</a>
</g>
<!-- http://cds.omdoc.org/urtheories?LF&#45;&gt;http://latin.omdoc.org/logics/tptp?Description -->
<g id="edge9" class="edge"><title>http://cds.omdoc.org/urtheories?LF&#45;&gt;http://latin.omdoc.org/logics/tptp?Description</title>
<a class="graphmeta">
<path fill="none" stroke="black" d="M76,-159.697C76,-151.983 76,-142.712 76,-134.112"/>
<polygon fill="black" stroke="black" points="79.5001,-134.104 76,-124.104 72.5001,-134.104 79.5001,-134.104"/>
</a>
</g>
<!-- http://cds.omdoc.org/urtheories?LF&#45;&gt;http://latin.omdoc.org/logics/tptp?Henkin -->
<g id="edge11" class="edge"><title>http://cds.omdoc.org/urtheories?LF&#45;&gt;http://latin.omdoc.org/logics/tptp?Henkin</title>
<a class="graphmeta">
<path fill="none" stroke="black" d="M94.638,-164.807C110.868,-154.189 134.681,-138.611 153.498,-126.301"/>
<polygon fill="black" stroke="black" points="155.56,-129.134 162.012,-120.731 151.727,-123.276 155.56,-129.134"/>
</a>
</g>
</g>
</svg>
