<?xml version="1.0" encoding="UTF-8" standalone="no"?>
<!DOCTYPE svg PUBLIC "-//W3C//DTD SVG 1.1//EN"
 "http://www.w3.org/Graphics/SVG/1.1/DTD/svg11.dtd">
<!-- Generated by graphviz version 2.28.0 (20110507.0327)
 -->
<!-- Title: MMT Pages: 1 -->
<svg
 viewBox="0.00 0.00 181.00 276.00" xmlns="http://www.w3.org/2000/svg" xmlns:xlink="http://www.w3.org/1999/xlink">
<g id="graph1" class="graph" transform="scale(1 1) rotate(0) translate(4 272)">
<title>MMT</title>
<polygon fill="white" stroke="white" points="-4,5 -4,-272 178,-272 178,5 -4,5"/>
<g id="graph2" class="cluster"><title>cluster_local</title>
<polygon fill="none" stroke="black" points="8,-8 8,-60 164,-60 164,-8 8,-8"/>
</g>
<!-- http://latin.omdoc.org/logics/tptp?Henkin&#45;FuncExt -->
<g id="node2" class="node"><title>http://latin.omdoc.org/logics/tptp?Henkin&#45;FuncExt</title>
<a xlink:href="http://latin.omdoc.org/logics/tptp?Henkin-FuncExt" class="graphtheory">
<ellipse fill="none" stroke="black" cx="86" cy="-34" rx="69.3156" ry="18"/>
<text text-anchor="middle" x="86" y="-30.3" font-family="Times New Roman,serif" font-size="14.00">Henkin&#45;FuncExt</text>
</a>
</g>
<!-- http://latin.omdoc.org/logics/tptp?B -->
<g id="node3" class="node"><title>http://latin.omdoc.org/logics/tptp?B</title>
<a xlink:href="http://latin.omdoc.org/logics/tptp?B" class="graphtheory">
<ellipse fill="gray" stroke="black" cx="86" cy="-106" rx="27" ry="18"/>
<text text-anchor="middle" x="86" y="-102.3" font-family="Times New Roman,serif" font-size="14.00">B</text>
</a>
</g>
<!-- http://latin.omdoc.org/logics/tptp?B&#45;&gt;http://latin.omdoc.org/logics/tptp?Henkin&#45;FuncExt -->
<g id="edge3" class="edge"><title>http://latin.omdoc.org/logics/tptp?B&#45;&gt;http://latin.omdoc.org/logics/tptp?Henkin&#45;FuncExt</title>
<a class="graphinclude">
<path fill="none" stroke="black" d="M86,-87.6966C86,-79.9827 86,-70.7125 86,-62.1124"/>
<polygon fill="black" stroke="black" points="89.5001,-62.1043 86,-52.1043 82.5001,-62.1044 89.5001,-62.1043"/>
</a>
</g>
<!-- http://latin.omdoc.org/logics/tptp?CHOL -->
<g id="node5" class="node"><title>http://latin.omdoc.org/logics/tptp?CHOL</title>
<a xlink:href="http://latin.omdoc.org/logics/tptp?CHOL" class="graphtheory">
<ellipse fill="gray" stroke="black" cx="137" cy="-178" rx="35.6194" ry="18"/>
<text text-anchor="middle" x="137" y="-174.3" font-family="Times New Roman,serif" font-size="14.00">CHOL</text>
</a>
</g>
<!-- http://latin.omdoc.org/logics/tptp?CHOL&#45;&gt;http://latin.omdoc.org/logics/tptp?Henkin&#45;FuncExt -->
<g id="edge5" class="edge"><title>http://latin.omdoc.org/logics/tptp?CHOL&#45;&gt;http://latin.omdoc.org/logics/tptp?Henkin&#45;FuncExt</title>
<a class="graphinclude">
<path fill="none" stroke="black" d="M136.267,-159.681C134.996,-141.302 131.517,-111.702 122,-88 118.124,-78.347 112.276,-68.6741 106.414,-60.2838"/>
<polygon fill="black" stroke="black" points="109.118,-58.053 100.382,-52.0592 103.474,-62.1929 109.118,-58.053"/>
</a>
</g>
<!-- http://latin.omdoc.org/logics/tptp?CHOL&#45;&gt;http://latin.omdoc.org/logics/tptp?B -->
<g id="edge13" class="edge"><title>http://latin.omdoc.org/logics/tptp?CHOL&#45;&gt;http://latin.omdoc.org/logics/tptp?B</title>
<a class="graphinclude">
<path fill="none" stroke="black" d="M125.171,-160.765C118.708,-151.893 110.581,-140.738 103.407,-130.892"/>
<polygon fill="black" stroke="black" points="106.131,-128.687 97.4136,-122.666 100.473,-132.809 106.131,-128.687"/>
</a>
</g>
<!-- http://cds.omdoc.org/urtheories?LF -->
<g id="node7" class="node"><title>http://cds.omdoc.org/urtheories?LF</title>
<a xlink:href="http://cds.omdoc.org/urtheories?LF" class="graphtheory">
<ellipse fill="gray" stroke="black" cx="73" cy="-250" rx="27" ry="18"/>
<text text-anchor="middle" x="73" y="-246.3" font-family="Times New Roman,serif" font-size="14.00">LF</text>
</a>
</g>
<!-- http://cds.omdoc.org/urtheories?LF&#45;&gt;http://latin.omdoc.org/logics/tptp?Henkin&#45;FuncExt -->
<g id="edge7" class="edge"><title>http://cds.omdoc.org/urtheories?LF&#45;&gt;http://latin.omdoc.org/logics/tptp?Henkin&#45;FuncExt</title>
<a class="graphmeta">
<path fill="none" stroke="black" d="M65.8752,-232.17C54.3262,-202.454 34.3149,-139.007 50,-88 53.0574,-78.0574 58.685,-68.3065 64.597,-59.9338"/>
<polygon fill="black" stroke="black" points="67.5368,-61.8485 70.7651,-51.7574 61.9486,-57.6328 67.5368,-61.8485"/>
</a>
</g>
<!-- http://cds.omdoc.org/urtheories?LF&#45;&gt;http://latin.omdoc.org/logics/tptp?B -->
<g id="edge9" class="edge"><title>http://cds.omdoc.org/urtheories?LF&#45;&gt;http://latin.omdoc.org/logics/tptp?B</title>
<a class="graphmeta">
<path fill="none" stroke="black" d="M74.5681,-231.871C76.7837,-207.67 80.8539,-163.211 83.4922,-134.393"/>
<polygon fill="black" stroke="black" points="87,-134.467 84.4263,-124.189 80.0291,-133.829 87,-134.467"/>
</a>
</g>
<!-- http://cds.omdoc.org/urtheories?LF&#45;&gt;http://latin.omdoc.org/logics/tptp?CHOL -->
<g id="edge11" class="edge"><title>http://cds.omdoc.org/urtheories?LF&#45;&gt;http://latin.omdoc.org/logics/tptp?CHOL</title>
<a class="graphmeta">
<path fill="none" stroke="black" d="M86.5728,-234.155C94.9937,-224.944 105.997,-212.909 115.576,-202.432"/>
<polygon fill="black" stroke="black" points="118.393,-204.539 122.557,-194.797 113.227,-199.815 118.393,-204.539"/>
</a>
</g>
</g>
</svg>
