<?xml version="1.0" encoding="UTF-8" standalone="no"?>
<!DOCTYPE svg PUBLIC "-//W3C//DTD SVG 1.1//EN"
 "http://www.w3.org/Graphics/SVG/1.1/DTD/svg11.dtd">
<!-- Generated by graphviz version 2.28.0 (20110507.0327)
 -->
<!-- Title: MMT Pages: 1 -->
<svg
 viewBox="0.00 0.00 293.00 280.00" xmlns="http://www.w3.org/2000/svg" xmlns:xlink="http://www.w3.org/1999/xlink">
<g id="graph1" class="graph" transform="scale(1 1) rotate(0) translate(4 276)">
<title>MMT</title>
<polygon fill="white" stroke="white" points="-4,5 -4,-276 290,-276 290,5 -4,5"/>
<g id="graph2" class="cluster"><title>cluster_local</title>
<polygon fill="none" stroke="black" points="8,-80 8,-132 160,-132 160,-80 8,-80"/>
</g>
<!-- http://latin.omdoc.org/logics/tptp?TFF&#45;Arithmetic -->
<g id="node2" class="node"><title>http://latin.omdoc.org/logics/tptp?TFF&#45;Arithmetic</title>
<a xlink:href="http://latin.omdoc.org/logics/tptp?TFF-Arithmetic" class="graphtheory">
<ellipse fill="none" stroke="black" cx="84" cy="-106" rx="67.3907" ry="18"/>
<text text-anchor="middle" x="84" y="-102.3" font-family="Times New Roman,serif" font-size="14.00">TFF&#45;Arithmetic</text>
</a>
</g>
<!-- http://latin.omdoc.org/logics/tptp?THF&#45;Arithmetic -->
<g id="node3" class="node"><title>http://latin.omdoc.org/logics/tptp?THF&#45;Arithmetic</title>
<a xlink:href="http://latin.omdoc.org/logics/tptp?THF-Arithmetic" class="graphtheory">
<ellipse fill="gray" stroke="black" cx="217" cy="-18" rx="68.3417" ry="18"/>
<text text-anchor="middle" x="217" y="-14.3" font-family="Times New Roman,serif" font-size="14.00">THF&#45;Arithmetic</text>
</a>
</g>
<!-- http://latin.omdoc.org/logics/tptp?TFF&#45;Arithmetic&#45;&gt;http://latin.omdoc.org/logics/tptp?THF&#45;Arithmetic -->
<g id="edge3" class="edge"><title>http://latin.omdoc.org/logics/tptp?TFF&#45;Arithmetic&#45;&gt;http://latin.omdoc.org/logics/tptp?THF&#45;Arithmetic</title>
<a xlink:href="http://latin.omdoc.org/logics/tptp?FirstToHigherArithmetic" class="graphview">
<path fill="none" stroke="black" d="M70.2988,-88.0029C63.4706,-77.3617 58.1719,-63.8501 66,-54 76.248,-41.105 111.223,-32.5392 144.934,-27.111"/>
<polygon fill="black" stroke="black" points="145.499,-30.5653 154.855,-25.594 144.441,-23.6458 145.499,-30.5653"/>
</a>
<a xlink:href="http://latin.omdoc.org/logics/tptp?FirstToHigherArithmetic" class="FirstToHigherArithmetic">
<text text-anchor="middle" x="134.5" y="-58.3" font-family="Times New Roman,serif" font-size="14.00">FirstToHigherArithmetic</text>
</a>
</g>
<!-- http://latin.omdoc.org/logics/tptp?TFF -->
<g id="node5" class="node"><title>http://latin.omdoc.org/logics/tptp?TFF</title>
<a xlink:href="http://latin.omdoc.org/logics/tptp?TFF" class="graphtheory">
<ellipse fill="gray" stroke="black" cx="48" cy="-180" rx="26.949" ry="18"/>
<text text-anchor="middle" x="48" y="-176.3" font-family="Times New Roman,serif" font-size="14.00">TFF</text>
</a>
</g>
<!-- http://latin.omdoc.org/logics/tptp?TFF&#45;&gt;http://latin.omdoc.org/logics/tptp?TFF&#45;Arithmetic -->
<g id="edge5" class="edge"><title>http://latin.omdoc.org/logics/tptp?TFF&#45;&gt;http://latin.omdoc.org/logics/tptp?TFF&#45;Arithmetic</title>
<a class="graphinclude">
<path fill="none" stroke="black" d="M56.169,-162.662C60.5394,-153.921 66.0252,-142.95 70.9686,-133.063"/>
<polygon fill="black" stroke="black" points="74.1461,-134.534 75.4877,-124.025 67.8851,-131.404 74.1461,-134.534"/>
</a>
</g>
<!-- http://latin.omdoc.org/logics/tptp?Arithmetic -->
<g id="node7" class="node"><title>http://latin.omdoc.org/logics/tptp?Arithmetic</title>
<a xlink:href="http://latin.omdoc.org/logics/tptp?Arithmetic" class="graphtheory">
<ellipse fill="gray" stroke="black" cx="179" cy="-180" rx="48.1437" ry="18"/>
<text text-anchor="middle" x="179" y="-176.3" font-family="Times New Roman,serif" font-size="14.00">Arithmetic</text>
</a>
</g>
<!-- http://latin.omdoc.org/logics/tptp?Arithmetic&#45;&gt;http://latin.omdoc.org/logics/tptp?TFF&#45;Arithmetic -->
<g id="edge7" class="edge"><title>http://latin.omdoc.org/logics/tptp?Arithmetic&#45;&gt;http://latin.omdoc.org/logics/tptp?TFF&#45;Arithmetic</title>
<a class="graphinclude">
<path fill="none" stroke="black" d="M158.386,-163.377C145.248,-153.42 128.019,-140.362 113.45,-129.32"/>
<polygon fill="black" stroke="black" points="115.315,-126.342 105.231,-123.091 111.087,-131.921 115.315,-126.342"/>
</a>
</g>
<!-- http://latin.omdoc.org/logics/tptp?Arithmetic&#45;&gt;http://latin.omdoc.org/logics/tptp?THF&#45;Arithmetic -->
<g id="edge17" class="edge"><title>http://latin.omdoc.org/logics/tptp?Arithmetic&#45;&gt;http://latin.omdoc.org/logics/tptp?THF&#45;Arithmetic</title>
<a class="graphinclude">
<path fill="none" stroke="black" d="M183.067,-161.877C189.666,-134.089 202.76,-78.9587 210.612,-45.8962"/>
<polygon fill="black" stroke="black" points="214.057,-46.5378 212.963,-35.9997 207.246,-44.9203 214.057,-46.5378"/>
</a>
</g>
<!-- http://cds.omdoc.org/urtheories?LF -->
<g id="node9" class="node"><title>http://cds.omdoc.org/urtheories?LF</title>
<a xlink:href="http://cds.omdoc.org/urtheories?LF" class="graphtheory">
<ellipse fill="gray" stroke="black" cx="128" cy="-254" rx="27" ry="18"/>
<text text-anchor="middle" x="128" y="-250.3" font-family="Times New Roman,serif" font-size="14.00">LF</text>
</a>
</g>
<!-- http://cds.omdoc.org/urtheories?LF&#45;&gt;http://latin.omdoc.org/logics/tptp?TFF&#45;Arithmetic -->
<g id="edge9" class="edge"><title>http://cds.omdoc.org/urtheories?LF&#45;&gt;http://latin.omdoc.org/logics/tptp?TFF&#45;Arithmetic</title>
<a class="graphmeta">
<path fill="none" stroke="black" d="M122.953,-236.252C115.401,-211.193 101.087,-163.696 92.0719,-133.784"/>
<polygon fill="black" stroke="black" points="95.3607,-132.567 89.124,-124.002 88.6585,-134.587 95.3607,-132.567"/>
</a>
</g>
<!-- http://cds.omdoc.org/urtheories?LF&#45;&gt;http://latin.omdoc.org/logics/tptp?THF&#45;Arithmetic -->
<g id="edge13" class="edge"><title>http://cds.omdoc.org/urtheories?LF&#45;&gt;http://latin.omdoc.org/logics/tptp?THF&#45;Arithmetic</title>
<a class="graphmeta">
<path fill="none" stroke="black" d="M153.785,-247.954C179.669,-241.367 218.187,-227.062 236,-198 265.035,-150.631 244.578,-82.7244 229.368,-45.6517"/>
<polygon fill="black" stroke="black" points="232.414,-43.8729 225.262,-36.0557 225.978,-46.6263 232.414,-43.8729"/>
</a>
</g>
<!-- http://cds.omdoc.org/urtheories?LF&#45;&gt;http://latin.omdoc.org/logics/tptp?TFF -->
<g id="edge11" class="edge"><title>http://cds.omdoc.org/urtheories?LF&#45;&gt;http://latin.omdoc.org/logics/tptp?TFF</title>
<a class="graphmeta">
<path fill="none" stroke="black" d="M112.429,-239.044C105.286,-232.637 96.7092,-224.938 89,-218 83.2183,-212.797 76.9836,-207.176 71.1638,-201.924"/>
<polygon fill="black" stroke="black" points="73.3344,-199.168 63.5661,-195.066 68.6439,-204.365 73.3344,-199.168"/>
</a>
</g>
<!-- http://cds.omdoc.org/urtheories?LF&#45;&gt;http://latin.omdoc.org/logics/tptp?Arithmetic -->
<g id="edge15" class="edge"><title>http://cds.omdoc.org/urtheories?LF&#45;&gt;http://latin.omdoc.org/logics/tptp?Arithmetic</title>
<a class="graphmeta">
<path fill="none" stroke="black" d="M139.066,-237.377C145.566,-228.201 153.932,-216.39 161.326,-205.952"/>
<polygon fill="black" stroke="black" points="164.321,-207.778 167.246,-197.595 158.609,-203.732 164.321,-207.778"/>
</a>
</g>
</g>
</svg>
