<?xml version="1.0" encoding="UTF-8" standalone="no"?>
<!DOCTYPE svg PUBLIC "-//W3C//DTD SVG 1.1//EN"
 "http://www.w3.org/Graphics/SVG/1.1/DTD/svg11.dtd">
<!-- Generated by graphviz version 2.28.0 (20110507.0327)
 -->
<!-- Title: MMT Pages: 1 -->
<svg
 viewBox="0.00 0.00 330.00 354.00" xmlns="http://www.w3.org/2000/svg" xmlns:xlink="http://www.w3.org/1999/xlink">
<g id="graph1" class="graph" transform="scale(1 1) rotate(0) translate(4 350)">
<title>MMT</title>
<polygon fill="white" stroke="white" points="-4,5 -4,-350 327,-350 327,5 -4,5"/>
<g id="graph2" class="cluster"><title>cluster_local</title>
<polygon fill="none" stroke="black" points="53,-66 53,-118 207,-118 207,-66 53,-66"/>
</g>
<!-- http://latin.omdoc.org/logics/tptp?THF&#45;Arithmetic -->
<g id="node2" class="node"><title>http://latin.omdoc.org/logics/tptp?THF&#45;Arithmetic</title>
<a xlink:href="http://latin.omdoc.org/logics/tptp?THF-Arithmetic" class="graphtheory">
<ellipse fill="none" stroke="black" cx="130" cy="-92" rx="68.3417" ry="18"/>
<text text-anchor="middle" x="130" y="-88.3" font-family="Times New Roman,serif" font-size="14.00">THF&#45;Arithmetic</text>
</a>
</g>
<!-- http://latin.omdoc.org/logics/tptp?THF -->
<g id="node5" class="node"><title>http://latin.omdoc.org/logics/tptp?THF</title>
<a xlink:href="http://latin.omdoc.org/logics/tptp?THF" class="graphtheory">
<ellipse fill="gray" stroke="black" cx="130" cy="-18" rx="28.3955" ry="18"/>
<text text-anchor="middle" x="130" y="-14.3" font-family="Times New Roman,serif" font-size="14.00">THF</text>
</a>
</g>
<!-- http://latin.omdoc.org/logics/tptp?THF&#45;Arithmetic&#45;&gt;http://latin.omdoc.org/logics/tptp?THF -->
<g id="edge5" class="edge"><title>http://latin.omdoc.org/logics/tptp?THF&#45;Arithmetic&#45;&gt;http://latin.omdoc.org/logics/tptp?THF</title>
<a class="graphinclude">
<path fill="none" stroke="black" d="M130,-73.937C130,-65.8072 130,-55.8761 130,-46.7047"/>
<polygon fill="black" stroke="black" points="133.5,-46.4406 130,-36.4407 126.5,-46.4407 133.5,-46.4406"/>
</a>
</g>
<!-- http://latin.omdoc.org/logics/tptp?TFF&#45;Arithmetic -->
<g id="node3" class="node"><title>http://latin.omdoc.org/logics/tptp?TFF&#45;Arithmetic</title>
<a xlink:href="http://latin.omdoc.org/logics/tptp?TFF-Arithmetic" class="graphtheory">
<ellipse fill="gray" stroke="black" cx="226" cy="-180" rx="67.3907" ry="18"/>
<text text-anchor="middle" x="226" y="-176.3" font-family="Times New Roman,serif" font-size="14.00">TFF&#45;Arithmetic</text>
</a>
</g>
<!-- http://latin.omdoc.org/logics/tptp?TFF&#45;Arithmetic&#45;&gt;http://latin.omdoc.org/logics/tptp?THF&#45;Arithmetic -->
<g id="edge3" class="edge"><title>http://latin.omdoc.org/logics/tptp?TFF&#45;Arithmetic&#45;&gt;http://latin.omdoc.org/logics/tptp?THF&#45;Arithmetic</title>
<a xlink:href="http://latin.omdoc.org/logics/tptp?FirstToHigherArithmetic" class="graphview">
<path fill="none" stroke="black" d="M197.889,-163.567C188.853,-157.981 179.095,-151.247 171,-144 162.405,-136.305 154.178,-126.69 147.378,-117.889"/>
<polygon fill="black" stroke="black" points="150.119,-115.71 141.332,-109.79 144.51,-119.897 150.119,-115.71"/>
</a>
<a xlink:href="http://latin.omdoc.org/logics/tptp?FirstToHigherArithmetic" class="FirstToHigherArithmetic">
<text text-anchor="middle" x="239.5" y="-132.3" font-family="Times New Roman,serif" font-size="14.00">FirstToHigherArithmetic</text>
</a>
</g>
<!-- http://latin.omdoc.org/logics/tptp?Arithmetic -->
<g id="node7" class="node"><title>http://latin.omdoc.org/logics/tptp?Arithmetic</title>
<a xlink:href="http://latin.omdoc.org/logics/tptp?Arithmetic" class="graphtheory">
<ellipse fill="gray" stroke="black" cx="168" cy="-254" rx="48.1437" ry="18"/>
<text text-anchor="middle" x="168" y="-250.3" font-family="Times New Roman,serif" font-size="14.00">Arithmetic</text>
</a>
</g>
<!-- http://latin.omdoc.org/logics/tptp?Arithmetic&#45;&gt;http://latin.omdoc.org/logics/tptp?THF&#45;Arithmetic -->
<g id="edge7" class="edge"><title>http://latin.omdoc.org/logics/tptp?Arithmetic&#45;&gt;http://latin.omdoc.org/logics/tptp?THF&#45;Arithmetic</title>
<a class="graphinclude">
<path fill="none" stroke="black" d="M161.32,-235.869C157.32,-225.121 152.374,-210.901 149,-198 142.183,-171.936 136.98,-141.599 133.756,-120.256"/>
<polygon fill="black" stroke="black" points="137.206,-119.659 132.294,-110.272 130.28,-120.674 137.206,-119.659"/>
</a>
</g>
<!-- http://latin.omdoc.org/logics/tptp?Arithmetic&#45;&gt;http://latin.omdoc.org/logics/tptp?TFF&#45;Arithmetic -->
<g id="edge23" class="edge"><title>http://latin.omdoc.org/logics/tptp?Arithmetic&#45;&gt;http://latin.omdoc.org/logics/tptp?TFF&#45;Arithmetic</title>
<a class="graphinclude">
<path fill="none" stroke="black" d="M181.161,-236.662C188.545,-227.495 197.906,-215.875 206.163,-205.626"/>
<polygon fill="black" stroke="black" points="208.941,-207.756 212.488,-197.773 203.49,-203.365 208.941,-207.756"/>
</a>
</g>
<!-- http://latin.omdoc.org/logics/tptp?THF0 -->
<g id="node9" class="node"><title>http://latin.omdoc.org/logics/tptp?THF0</title>
<a xlink:href="http://latin.omdoc.org/logics/tptp?THF0" class="graphtheory">
<ellipse fill="gray" stroke="black" cx="32" cy="-180" rx="32.2457" ry="18"/>
<text text-anchor="middle" x="32" y="-176.3" font-family="Times New Roman,serif" font-size="14.00">THF0</text>
</a>
</g>
<!-- http://latin.omdoc.org/logics/tptp?THF0&#45;&gt;http://latin.omdoc.org/logics/tptp?THF&#45;Arithmetic -->
<g id="edge9" class="edge"><title>http://latin.omdoc.org/logics/tptp?THF0&#45;&gt;http://latin.omdoc.org/logics/tptp?THF&#45;Arithmetic</title>
<a class="graphinclude">
<path fill="none" stroke="black" d="M44.3884,-163.356C53.1755,-152.761 65.5715,-138.784 78,-128 83.3568,-123.352 89.3563,-118.802 95.324,-114.602"/>
<polygon fill="black" stroke="black" points="97.6637,-117.244 103.966,-108.727 93.7284,-111.455 97.6637,-117.244"/>
</a>
</g>
<!-- http://latin.omdoc.org/logics/tptp?THF0&#45;&gt;http://latin.omdoc.org/logics/tptp?THF -->
<g id="edge21" class="edge"><title>http://latin.omdoc.org/logics/tptp?THF0&#45;&gt;http://latin.omdoc.org/logics/tptp?THF</title>
<a class="graphinclude">
<path fill="none" stroke="black" d="M30.2165,-161.654C28.6867,-137.94 29.2547,-95.0373 49,-66 60.0814,-49.7038 78.828,-38.3028 95.4969,-30.8148"/>
<polygon fill="black" stroke="black" points="97.1164,-33.9316 104.998,-26.8508 94.4209,-27.4714 97.1164,-33.9316"/>
</a>
</g>
<!-- http://cds.omdoc.org/urtheories?LF -->
<g id="node11" class="node"><title>http://cds.omdoc.org/urtheories?LF</title>
<a xlink:href="http://cds.omdoc.org/urtheories?LF" class="graphtheory">
<ellipse fill="gray" stroke="black" cx="168" cy="-328" rx="27" ry="18"/>
<text text-anchor="middle" x="168" y="-324.3" font-family="Times New Roman,serif" font-size="14.00">LF</text>
</a>
</g>
<!-- http://cds.omdoc.org/urtheories?LF&#45;&gt;http://latin.omdoc.org/logics/tptp?THF&#45;Arithmetic -->
<g id="edge11" class="edge"><title>http://cds.omdoc.org/urtheories?LF&#45;&gt;http://latin.omdoc.org/logics/tptp?THF&#45;Arithmetic</title>
<a class="graphmeta">
<path fill="none" stroke="black" d="M148.98,-314.892C135.572,-305.14 118.687,-290.1 111,-272 89.5405,-221.473 106.477,-156.007 119.22,-119.894"/>
<polygon fill="black" stroke="black" points="122.656,-120.693 122.831,-110.1 116.088,-118.272 122.656,-120.693"/>
</a>
</g>
<!-- http://cds.omdoc.org/urtheories?LF&#45;&gt;http://latin.omdoc.org/logics/tptp?TFF&#45;Arithmetic -->
<g id="edge19" class="edge"><title>http://cds.omdoc.org/urtheories?LF&#45;&gt;http://latin.omdoc.org/logics/tptp?TFF&#45;Arithmetic</title>
<a class="graphmeta">
<path fill="none" stroke="black" d="M186.962,-314.867C200.34,-305.103 217.213,-290.057 225,-272 233.669,-251.895 233.246,-226.892 231.034,-208.185"/>
<polygon fill="black" stroke="black" points="234.494,-207.656 229.624,-198.247 227.563,-208.639 234.494,-207.656"/>
</a>
</g>
<!-- http://cds.omdoc.org/urtheories?LF&#45;&gt;http://latin.omdoc.org/logics/tptp?THF -->
<g id="edge15" class="edge"><title>http://cds.omdoc.org/urtheories?LF&#45;&gt;http://latin.omdoc.org/logics/tptp?THF</title>
<a class="graphmeta">
<path fill="none" stroke="black" d="M195.178,-326.18C239.388,-323.239 322,-310.339 322,-255 322,-255 322,-255 322,-91 322,-58.24 222.764,-35.3705 166.979,-25.1026"/>
<polygon fill="black" stroke="black" points="167.562,-21.6515 157.102,-23.3325 166.327,-28.5417 167.562,-21.6515"/>
</a>
</g>
<!-- http://cds.omdoc.org/urtheories?LF&#45;&gt;http://latin.omdoc.org/logics/tptp?Arithmetic -->
<g id="edge17" class="edge"><title>http://cds.omdoc.org/urtheories?LF&#45;&gt;http://latin.omdoc.org/logics/tptp?Arithmetic</title>
<a class="graphmeta">
<path fill="none" stroke="black" d="M168,-309.937C168,-301.807 168,-291.876 168,-282.705"/>
<polygon fill="black" stroke="black" points="171.5,-282.441 168,-272.441 164.5,-282.441 171.5,-282.441"/>
</a>
</g>
<!-- http://cds.omdoc.org/urtheories?LF&#45;&gt;http://latin.omdoc.org/logics/tptp?THF0 -->
<g id="edge13" class="edge"><title>http://cds.omdoc.org/urtheories?LF&#45;&gt;http://latin.omdoc.org/logics/tptp?THF0</title>
<a class="graphmeta">
<path fill="none" stroke="black" d="M142.121,-322.648C122.309,-318.093 95.4969,-309.116 78,-292 54.6448,-269.153 42.6491,-232.713 36.8554,-207.865"/>
<polygon fill="black" stroke="black" points="40.2584,-207.041 34.737,-197.999 33.4144,-208.51 40.2584,-207.041"/>
</a>
</g>
</g>
</svg>
