<?xml version="1.0" encoding="UTF-8" standalone="no"?>
<!DOCTYPE svg PUBLIC "-//W3C//DTD SVG 1.1//EN"
 "http://www.w3.org/Graphics/SVG/1.1/DTD/svg11.dtd">
<!-- Generated by graphviz version 2.28.0 (20110507.0327)
 -->
<!-- Title: MMT Pages: 1 -->
<svg width="690pt" height="428pt"
 viewBox="0.00 0.00 690.00 428.00" xmlns="http://www.w3.org/2000/svg" xmlns:xlink="http://www.w3.org/1999/xlink">
<g id="graph1" class="graph" transform="scale(1 1) rotate(0) translate(4 424)">
<title>MMT</title>
<polygon fill="white" stroke="white" points="-4,5 -4,-424 687,-424 687,5 -4,5"/>
<g id="graph2" class="cluster"><title>cluster_local</title>
<polygon fill="none" stroke="black" points="287,-140 287,-192 367,-192 367,-140 287,-140"/>
</g>
<!-- http://latin.omdoc.org/logics/tptp?THF0 -->
<g id="node2" class="node"><title>http://latin.omdoc.org/logics/tptp?THF0</title>
<a xlink:href="http://latin.omdoc.org/logics/tptp?THF0" class="graphtheory">
<ellipse fill="none" stroke="black" cx="327" cy="-166" rx="32.2457" ry="18"/>
<text text-anchor="middle" x="327" y="-162.3" font-family="Times New Roman,serif" font-size="14.00">THF0</text>
</a>
</g>
<!-- http://latin.omdoc.org/logics/tptp?PTHF -->
<g id="node5" class="node"><title>http://latin.omdoc.org/logics/tptp?PTHF</title>
<a xlink:href="http://latin.omdoc.org/logics/tptp?PTHF" class="graphtheory">
<ellipse fill="gray" stroke="black" cx="33" cy="-92" rx="33.1991" ry="18"/>
<text text-anchor="middle" x="33" y="-88.3" font-family="Times New Roman,serif" font-size="14.00">PTHF</text>
</a>
</g>
<!-- http://latin.omdoc.org/logics/tptp?THF0&#45;&gt;http://latin.omdoc.org/logics/tptp?PTHF -->
<g id="edge5" class="edge"><title>http://latin.omdoc.org/logics/tptp?THF0&#45;&gt;http://latin.omdoc.org/logics/tptp?PTHF</title>
<a class="graphinclude">
<path fill="none" stroke="black" d="M309.633,-150.505C304.003,-146.496 297.52,-142.55 291,-140 246.073,-122.429 122.649,-122.288 76,-110 73.2345,-109.272 70.406,-108.417 67.5856,-107.485"/>
<polygon fill="black" stroke="black" points="68.7252,-104.175 58.1307,-104.09 66.3597,-110.763 68.7252,-104.175"/>
</a>
</g>
<!-- http://latin.omdoc.org/logics/tptp?THF -->
<g id="node7" class="node"><title>http://latin.omdoc.org/logics/tptp?THF</title>
<a xlink:href="http://latin.omdoc.org/logics/tptp?THF" class="graphtheory">
<ellipse fill="gray" stroke="black" cx="382" cy="-18" rx="28.3955" ry="18"/>
<text text-anchor="middle" x="382" y="-14.3" font-family="Times New Roman,serif" font-size="14.00">THF</text>
</a>
</g>
<!-- http://latin.omdoc.org/logics/tptp?THF0&#45;&gt;http://latin.omdoc.org/logics/tptp?THF -->
<g id="edge7" class="edge"><title>http://latin.omdoc.org/logics/tptp?THF0&#45;&gt;http://latin.omdoc.org/logics/tptp?THF</title>
<a class="graphinclude">
<path fill="none" stroke="black" d="M329.866,-147.777C333.307,-129.132 339.908,-98.7455 350,-74 354.255,-63.5663 360.2,-52.7155 365.812,-43.4365"/>
<polygon fill="black" stroke="black" points="368.906,-45.0899 371.238,-34.755 362.97,-41.3797 368.906,-45.0899"/>
</a>
</g>
<!-- http://latin.omdoc.org/logics/tptp?Products -->
<g id="node9" class="node"><title>http://latin.omdoc.org/logics/tptp?Products</title>
<a xlink:href="http://latin.omdoc.org/logics/tptp?Products" class="graphtheory">
<ellipse fill="gray" stroke="black" cx="129" cy="-92" rx="44.2946" ry="18"/>
<text text-anchor="middle" x="129" y="-88.3" font-family="Times New Roman,serif" font-size="14.00">Products</text>
</a>
</g>
<!-- http://latin.omdoc.org/logics/tptp?THF0&#45;&gt;http://latin.omdoc.org/logics/tptp?Products -->
<g id="edge9" class="edge"><title>http://latin.omdoc.org/logics/tptp?THF0&#45;&gt;http://latin.omdoc.org/logics/tptp?Products</title>
<a class="graphinclude">
<path fill="none" stroke="black" d="M309.044,-150.759C303.493,-146.855 297.202,-142.903 291,-140 245.493,-118.699 230.155,-124.343 182,-110 178.705,-109.019 175.302,-107.982 171.885,-106.924"/>
<polygon fill="black" stroke="black" points="172.885,-103.569 162.296,-103.914 170.789,-110.248 172.885,-103.569"/>
</a>
</g>
<!-- http://latin.omdoc.org/logics/tptp?DTT -->
<g id="node11" class="node"><title>http://latin.omdoc.org/logics/tptp?DTT</title>
<a xlink:href="http://latin.omdoc.org/logics/tptp?DTT" class="graphtheory">
<ellipse fill="gray" stroke="black" cx="625" cy="-92" rx="28.3955" ry="18"/>
<text text-anchor="middle" x="625" y="-88.3" font-family="Times New Roman,serif" font-size="14.00">DTT</text>
</a>
</g>
<!-- http://latin.omdoc.org/logics/tptp?THF0&#45;&gt;http://latin.omdoc.org/logics/tptp?DTT -->
<g id="edge11" class="edge"><title>http://latin.omdoc.org/logics/tptp?THF0&#45;&gt;http://latin.omdoc.org/logics/tptp?DTT</title>
<a class="graphinclude">
<path fill="none" stroke="black" d="M344.358,-150.483C349.988,-146.473 356.473,-142.532 363,-140 409.822,-121.836 538.691,-123.729 587,-110 589.288,-109.35 591.615,-108.586 593.934,-107.748"/>
<polygon fill="black" stroke="black" points="595.32,-110.963 603.298,-103.992 592.714,-104.467 595.32,-110.963"/>
</a>
</g>
<!-- http://latin.omdoc.org/logics/tptp?IHOL -->
<g id="node13" class="node"><title>http://latin.omdoc.org/logics/tptp?IHOL</title>
<a xlink:href="http://latin.omdoc.org/logics/tptp?IHOL" class="graphtheory">
<ellipse fill="gray" stroke="black" cx="391" cy="-92" rx="32.2457" ry="18"/>
<text text-anchor="middle" x="391" y="-88.3" font-family="Times New Roman,serif" font-size="14.00">IHOL</text>
</a>
</g>
<!-- http://latin.omdoc.org/logics/tptp?THF0&#45;&gt;http://latin.omdoc.org/logics/tptp?IHOL -->
<g id="edge13" class="edge"><title>http://latin.omdoc.org/logics/tptp?THF0&#45;&gt;http://latin.omdoc.org/logics/tptp?IHOL</title>
<a class="graphinclude">
<path fill="none" stroke="black" d="M340.887,-149.377C349.525,-139.659 360.789,-126.987 370.45,-116.119"/>
<polygon fill="black" stroke="black" points="373.112,-118.392 377.14,-108.592 367.88,-113.741 373.112,-118.392"/>
</a>
</g>
<!-- http://latin.omdoc.org/logics/tptp?QuantTypes -->
<g id="node15" class="node"><title>http://latin.omdoc.org/logics/tptp?QuantTypes</title>
<a xlink:href="http://latin.omdoc.org/logics/tptp?QuantTypes" class="graphtheory">
<ellipse fill="gray" stroke="black" cx="247" cy="-92" rx="55.3436" ry="18"/>
<text text-anchor="middle" x="247" y="-88.3" font-family="Times New Roman,serif" font-size="14.00">QuantTypes</text>
</a>
</g>
<!-- http://latin.omdoc.org/logics/tptp?THF0&#45;&gt;http://latin.omdoc.org/logics/tptp?QuantTypes -->
<g id="edge15" class="edge"><title>http://latin.omdoc.org/logics/tptp?THF0&#45;&gt;http://latin.omdoc.org/logics/tptp?QuantTypes</title>
<a class="graphinclude">
<path fill="none" stroke="black" d="M312.093,-149.963C305.187,-143.133 296.798,-135.027 289,-128 284.483,-123.93 279.596,-119.705 274.808,-115.657"/>
<polygon fill="black" stroke="black" points="276.844,-112.798 266.925,-109.072 272.356,-118.17 276.844,-112.798"/>
</a>
</g>
<!-- http://latin.omdoc.org/logics/tptp?THF&#45;Arithmetic -->
<g id="node17" class="node"><title>http://latin.omdoc.org/logics/tptp?THF&#45;Arithmetic</title>
<a xlink:href="http://latin.omdoc.org/logics/tptp?THF-Arithmetic" class="graphtheory">
<ellipse fill="gray" stroke="black" cx="510" cy="-92" rx="68.3417" ry="18"/>
<text text-anchor="middle" x="510" y="-88.3" font-family="Times New Roman,serif" font-size="14.00">THF&#45;Arithmetic</text>
</a>
</g>
<!-- http://latin.omdoc.org/logics/tptp?THF0&#45;&gt;http://latin.omdoc.org/logics/tptp?THF&#45;Arithmetic -->
<g id="edge17" class="edge"><title>http://latin.omdoc.org/logics/tptp?THF0&#45;&gt;http://latin.omdoc.org/logics/tptp?THF&#45;Arithmetic</title>
<a class="graphinclude">
<path fill="none" stroke="black" d="M345.033,-150.918C350.585,-147.019 356.858,-143.029 363,-140 390.929,-126.225 423.798,-115.27 451.365,-107.414"/>
<polygon fill="black" stroke="black" points="452.566,-110.712 461.262,-104.66 450.69,-103.968 452.566,-110.712"/>
</a>
</g>
<!-- http://latin.omdoc.org/logics/tptp?TFF -->
<g id="node3" class="node"><title>http://latin.omdoc.org/logics/tptp?TFF</title>
<a xlink:href="http://latin.omdoc.org/logics/tptp?TFF" class="graphtheory">
<ellipse fill="gray" stroke="black" cx="346" cy="-254" rx="26.949" ry="18"/>
<text text-anchor="middle" x="346" y="-250.3" font-family="Times New Roman,serif" font-size="14.00">TFF</text>
</a>
</g>
<!-- http://latin.omdoc.org/logics/tptp?TFF&#45;&gt;http://latin.omdoc.org/logics/tptp?THF0 -->
<g id="edge3" class="edge"><title>http://latin.omdoc.org/logics/tptp?TFF&#45;&gt;http://latin.omdoc.org/logics/tptp?THF0</title>
<a xlink:href="http://latin.omdoc.org/logics/tptp?FirstToHigher" class="graphview">
<path fill="none" stroke="black" d="M334.217,-237.457C330.51,-231.664 326.892,-224.829 325,-218 322.919,-210.485 322.504,-202.111 322.857,-194.355"/>
<polygon fill="black" stroke="black" points="326.352,-194.567 323.729,-184.302 319.378,-193.962 326.352,-194.567"/>
</a>
<a xlink:href="http://latin.omdoc.org/logics/tptp?FirstToHigher" class="FirstToHigher">
<text text-anchor="middle" x="364.5" y="-206.3" font-family="Times New Roman,serif" font-size="14.00">FirstToHigher</text>
</a>
</g>
<!-- http://latin.omdoc.org/logics/tptp?QuantTypes&#45;&gt;http://latin.omdoc.org/logics/tptp?THF -->
<g id="edge45" class="edge"><title>http://latin.omdoc.org/logics/tptp?QuantTypes&#45;&gt;http://latin.omdoc.org/logics/tptp?THF</title>
<a class="graphinclude">
<path fill="none" stroke="black" d="M274.645,-76.256C297.154,-64.251 328.876,-47.3327 351.999,-35.0007"/>
<polygon fill="black" stroke="black" points="353.843,-37.9837 361.02,-30.1895 350.549,-31.8072 353.843,-37.9837"/>
</a>
</g>
<!-- http://latin.omdoc.org/logics/tptp?THF&#45;Arithmetic&#45;&gt;http://latin.omdoc.org/logics/tptp?THF -->
<g id="edge43" class="edge"><title>http://latin.omdoc.org/logics/tptp?THF&#45;Arithmetic&#45;&gt;http://latin.omdoc.org/logics/tptp?THF</title>
<a class="graphinclude">
<path fill="none" stroke="black" d="M482.226,-75.3771C461.346,-63.6321 432.796,-47.5725 411.507,-35.5975"/>
<polygon fill="black" stroke="black" points="413.013,-32.4289 402.581,-30.5768 409.581,-38.53 413.013,-32.4289"/>
</a>
</g>
<!-- http://latin.omdoc.org/logics/tptp?Types -->
<g id="node19" class="node"><title>http://latin.omdoc.org/logics/tptp?Types</title>
<a xlink:href="http://latin.omdoc.org/logics/tptp?Types" class="graphtheory">
<ellipse fill="gray" stroke="black" cx="318" cy="-328" rx="33.1991" ry="18"/>
<text text-anchor="middle" x="318" y="-324.3" font-family="Times New Roman,serif" font-size="14.00">Types</text>
</a>
</g>
<!-- http://latin.omdoc.org/logics/tptp?Types&#45;&gt;http://latin.omdoc.org/logics/tptp?THF0 -->
<g id="edge19" class="edge"><title>http://latin.omdoc.org/logics/tptp?Types&#45;&gt;http://latin.omdoc.org/logics/tptp?THF0</title>
<a class="graphinclude">
<path fill="none" stroke="black" d="M314.834,-309.73C313.017,-298.929 310.919,-284.704 310,-272 308.845,-256.042 308.072,-251.883 310,-236 311.719,-221.839 315.353,-206.394 318.822,-193.714"/>
<polygon fill="black" stroke="black" points="322.272,-194.378 321.651,-183.802 315.54,-192.457 322.272,-194.378"/>
</a>
</g>
<!-- http://latin.omdoc.org/logics/tptp?Types&#45;&gt;http://latin.omdoc.org/logics/tptp?TFF -->
<g id="edge41" class="edge"><title>http://latin.omdoc.org/logics/tptp?Types&#45;&gt;http://latin.omdoc.org/logics/tptp?TFF</title>
<a class="graphinclude">
<path fill="none" stroke="black" d="M324.494,-310.301C327.851,-301.668 332.026,-290.932 335.802,-281.224"/>
<polygon fill="black" stroke="black" points="339.179,-282.197 339.541,-271.609 332.655,-279.66 339.179,-282.197"/>
</a>
</g>
<!-- http://cds.omdoc.org/urtheories?LF -->
<g id="node21" class="node"><title>http://cds.omdoc.org/urtheories?LF</title>
<a xlink:href="http://cds.omdoc.org/urtheories?LF" class="graphtheory">
<ellipse fill="gray" stroke="black" cx="399" cy="-402" rx="27" ry="18"/>
<text text-anchor="middle" x="399" y="-398.3" font-family="Times New Roman,serif" font-size="14.00">LF</text>
</a>
</g>
<!-- http://cds.omdoc.org/urtheories?LF&#45;&gt;http://latin.omdoc.org/logics/tptp?THF0 -->
<g id="edge21" class="edge"><title>http://cds.omdoc.org/urtheories?LF&#45;&gt;http://latin.omdoc.org/logics/tptp?THF0</title>
<a class="graphmeta">
<path fill="none" stroke="black" d="M405.742,-384.402C419.626,-347.241 446.693,-256.358 404,-202 392.415,-187.249 380.102,-199.701 363,-192 359.78,-190.55 356.545,-188.804 353.405,-186.918"/>
<polygon fill="black" stroke="black" points="355.188,-183.901 344.903,-181.356 351.356,-189.759 355.188,-183.901"/>
</a>
</g>
<!-- http://cds.omdoc.org/urtheories?LF&#45;&gt;http://latin.omdoc.org/logics/tptp?TFF -->
<g id="edge27" class="edge"><title>http://cds.omdoc.org/urtheories?LF&#45;&gt;http://latin.omdoc.org/logics/tptp?TFF</title>
<a class="graphmeta">
<path fill="none" stroke="black" d="M392.92,-384.252C383.824,-359.193 366.582,-311.696 355.723,-281.784"/>
<polygon fill="black" stroke="black" points="358.874,-280.208 352.172,-272.002 352.295,-282.597 358.874,-280.208"/>
</a>
</g>
<!-- http://cds.omdoc.org/urtheories?LF&#45;&gt;http://latin.omdoc.org/logics/tptp?PTHF -->
<g id="edge37" class="edge"><title>http://cds.omdoc.org/urtheories?LF&#45;&gt;http://latin.omdoc.org/logics/tptp?PTHF</title>
<a class="graphmeta">
<path fill="none" stroke="black" d="M371.879,-400.805C293.295,-399.514 71,-390.434 71,-329 71,-329 71,-329 71,-165 71,-147.492 62.1036,-130.071 52.9199,-116.751"/>
<polygon fill="black" stroke="black" points="55.6848,-114.603 46.934,-108.63 50.0502,-118.756 55.6848,-114.603"/>
</a>
</g>
<!-- http://cds.omdoc.org/urtheories?LF&#45;&gt;http://latin.omdoc.org/logics/tptp?THF -->
<g id="edge25" class="edge"><title>http://cds.omdoc.org/urtheories?LF&#45;&gt;http://latin.omdoc.org/logics/tptp?THF</title>
<a class="graphmeta">
<path fill="none" stroke="black" d="M425.879,-399.877C496.521,-396.198 682,-381.535 682,-329 682,-329 682,-329 682,-91 682,-37.8169 501.478,-23.8188 420.503,-20.215"/>
<polygon fill="black" stroke="black" points="420.359,-16.7062 410.223,-19.7898 420.07,-23.7002 420.359,-16.7062"/>
</a>
</g>
<!-- http://cds.omdoc.org/urtheories?LF&#45;&gt;http://latin.omdoc.org/logics/tptp?Products -->
<g id="edge31" class="edge"><title>http://cds.omdoc.org/urtheories?LF&#45;&gt;http://latin.omdoc.org/logics/tptp?Products</title>
<a class="graphmeta">
<path fill="none" stroke="black" d="M372.032,-399.039C307.022,-393.575 147,-375.411 147,-329 147,-329 147,-329 147,-165 147,-149.599 143.076,-132.883 138.892,-119.438"/>
<polygon fill="black" stroke="black" points="142.185,-118.249 135.703,-109.869 135.544,-120.463 142.185,-118.249"/>
</a>
</g>
<!-- http://cds.omdoc.org/urtheories?LF&#45;&gt;http://latin.omdoc.org/logics/tptp?DTT -->
<g id="edge33" class="edge"><title>http://cds.omdoc.org/urtheories?LF&#45;&gt;http://latin.omdoc.org/logics/tptp?DTT</title>
<a class="graphmeta">
<path fill="none" stroke="black" d="M425.002,-396.607C476.384,-387.186 586,-363.093 586,-329 586,-329 586,-329 586,-165 586,-147.158 595.374,-129.505 604.931,-116.143"/>
<polygon fill="black" stroke="black" points="607.845,-118.094 611.14,-108.024 602.285,-113.841 607.845,-118.094"/>
</a>
</g>
<!-- http://cds.omdoc.org/urtheories?LF&#45;&gt;http://latin.omdoc.org/logics/tptp?IHOL -->
<g id="edge35" class="edge"><title>http://cds.omdoc.org/urtheories?LF&#45;&gt;http://latin.omdoc.org/logics/tptp?IHOL</title>
<a class="graphmeta">
<path fill="none" stroke="black" d="M417.349,-388.741C434.012,-375.985 456,-354.349 456,-329 456,-329 456,-329 456,-165 456,-142.629 438.497,-124.087 421.656,-111.425"/>
<polygon fill="black" stroke="black" points="423.201,-108.233 413.006,-105.35 419.178,-113.962 423.201,-108.233"/>
</a>
</g>
<!-- http://cds.omdoc.org/urtheories?LF&#45;&gt;http://latin.omdoc.org/logics/tptp?QuantTypes -->
<g id="edge23" class="edge"><title>http://cds.omdoc.org/urtheories?LF&#45;&gt;http://latin.omdoc.org/logics/tptp?QuantTypes</title>
<a class="graphmeta">
<path fill="none" stroke="black" d="M372.004,-399.964C328.571,-396.695 248,-383.31 248,-329 248,-329 248,-329 248,-165 248,-150.204 247.786,-133.699 247.556,-120.228"/>
<polygon fill="black" stroke="black" points="251.055,-120.1 247.372,-110.165 244.056,-120.228 251.055,-120.1"/>
</a>
</g>
<!-- http://cds.omdoc.org/urtheories?LF&#45;&gt;http://latin.omdoc.org/logics/tptp?THF&#45;Arithmetic -->
<g id="edge29" class="edge"><title>http://cds.omdoc.org/urtheories?LF&#45;&gt;http://latin.omdoc.org/logics/tptp?THF&#45;Arithmetic</title>
<a class="graphmeta">
<path fill="none" stroke="black" d="M424.513,-396.07C457.008,-388.138 509,-369.171 509,-329 509,-329 509,-329 509,-165 509,-150.204 509.214,-133.699 509.444,-120.228"/>
<polygon fill="black" stroke="black" points="512.944,-120.228 509.628,-110.165 505.945,-120.1 512.944,-120.228"/>
</a>
</g>
<!-- http://cds.omdoc.org/urtheories?LF&#45;&gt;http://latin.omdoc.org/logics/tptp?Types -->
<g id="edge39" class="edge"><title>http://cds.omdoc.org/urtheories?LF&#45;&gt;http://latin.omdoc.org/logics/tptp?Types</title>
<a class="graphmeta">
<path fill="none" stroke="black" d="M383.382,-387.118C371.7,-376.733 355.507,-362.34 342.16,-350.475"/>
<polygon fill="black" stroke="black" points="344.484,-347.859 334.685,-343.831 339.834,-353.091 344.484,-347.859"/>
</a>
</g>
</g>
</svg>
