<?xml version="1.0" encoding="UTF-8" standalone="no"?>
<!DOCTYPE svg PUBLIC "-//W3C//DTD SVG 1.1//EN"
 "http://www.w3.org/Graphics/SVG/1.1/DTD/svg11.dtd">
<!-- Generated by graphviz version 2.28.0 (20110507.0327)
 -->
<!-- Title: MMT Pages: 1 -->
<svg width="246pt" height="280pt"
 viewBox="0.00 0.00 246.36 280.00" xmlns="http://www.w3.org/2000/svg" xmlns:xlink="http://www.w3.org/1999/xlink">
<g id="graph1" class="graph" transform="scale(1 1) rotate(0) translate(4 276)">
<title>MMT</title>
<polygon fill="white" stroke="white" points="-4,5 -4,-276 243.362,-276 243.362,5 -4,5"/>
<g id="graph2" class="cluster"><title>cluster_local</title>
<polygon fill="none" stroke="black" points="64.2072,-154 64.2072,-206 148.207,-206 148.207,-154 64.2072,-154"/>
</g>
<!-- http://latin.omdoc.org/logics/tptp?Types -->
<g id="node2" class="node"><title>http://latin.omdoc.org/logics/tptp?Types</title>
<a xlink:href="http://latin.omdoc.org/logics/tptp?Types" class="graphtheory">
<ellipse fill="none" stroke="black" cx="106.207" cy="-180" rx="33.1991" ry="18"/>
<text text-anchor="middle" x="106.207" y="-176.3" font-family="Times New Roman,serif" font-size="14.00">Types</text>
</a>
</g>
<!-- http://latin.omdoc.org/logics/tptp?TFF -->
<g id="node3" class="node"><title>http://latin.omdoc.org/logics/tptp?TFF</title>
<a xlink:href="http://latin.omdoc.org/logics/tptp?TFF" class="graphtheory">
<ellipse fill="gray" stroke="black" cx="41.2072" cy="-106" rx="26.949" ry="18"/>
<text text-anchor="middle" x="41.2072" y="-102.3" font-family="Times New Roman,serif" font-size="14.00">TFF</text>
</a>
</g>
<!-- http://latin.omdoc.org/logics/tptp?Types&#45;&gt;http://latin.omdoc.org/logics/tptp?TFF -->
<g id="edge3" class="edge"><title>http://latin.omdoc.org/logics/tptp?Types&#45;&gt;http://latin.omdoc.org/logics/tptp?TFF</title>
<a class="graphinclude">
<path fill="none" stroke="black" d="M92.1032,-163.377C83.2097,-153.526 71.576,-140.639 61.6763,-129.674"/>
<polygon fill="black" stroke="black" points="64.1373,-127.176 54.8383,-122.099 58.9414,-131.867 64.1373,-127.176"/>
</a>
</g>
<!-- http://latin.omdoc.org/logics/tptp?Arithmetic -->
<g id="node5" class="node"><title>http://latin.omdoc.org/logics/tptp?Arithmetic</title>
<a xlink:href="http://latin.omdoc.org/logics/tptp?Arithmetic" class="graphtheory">
<ellipse fill="gray" stroke="black" cx="172.207" cy="-106" rx="48.1437" ry="18"/>
<text text-anchor="middle" x="172.207" y="-102.3" font-family="Times New Roman,serif" font-size="14.00">Arithmetic</text>
</a>
</g>
<!-- http://latin.omdoc.org/logics/tptp?Types&#45;&gt;http://latin.omdoc.org/logics/tptp?Arithmetic -->
<g id="edge5" class="edge"><title>http://latin.omdoc.org/logics/tptp?Types&#45;&gt;http://latin.omdoc.org/logics/tptp?Arithmetic</title>
<a class="graphinclude">
<path fill="none" stroke="black" d="M120.528,-163.377C129.253,-153.859 140.576,-141.507 150.399,-130.791"/>
<polygon fill="black" stroke="black" points="153.05,-133.079 157.227,-123.342 147.89,-128.349 153.05,-133.079"/>
</a>
</g>
<!-- http://latin.omdoc.org/logics/tptp?THF0 -->
<g id="node7" class="node"><title>http://latin.omdoc.org/logics/tptp?THF0</title>
<a xlink:href="http://latin.omdoc.org/logics/tptp?THF0" class="graphtheory">
<ellipse fill="gray" stroke="black" cx="96.2072" cy="-18" rx="32.2457" ry="18"/>
<text text-anchor="middle" x="96.2072" y="-14.3" font-family="Times New Roman,serif" font-size="14.00">THF0</text>
</a>
</g>
<!-- http://latin.omdoc.org/logics/tptp?Types&#45;&gt;http://latin.omdoc.org/logics/tptp?THF0 -->
<g id="edge7" class="edge"><title>http://latin.omdoc.org/logics/tptp?Types&#45;&gt;http://latin.omdoc.org/logics/tptp?THF0</title>
<a class="graphinclude">
<path fill="none" stroke="black" d="M105.137,-161.877C103.408,-134.209 99.9844,-79.4355 97.9151,-46.3268"/>
<polygon fill="black" stroke="black" points="101.387,-45.7619 97.2697,-35.9997 94.4004,-46.1986 101.387,-45.7619"/>
</a>
</g>
<!-- http://latin.omdoc.org/logics/tptp?TFF&#45;&gt;http://latin.omdoc.org/logics/tptp?THF0 -->
<g id="edge17" class="edge"><title>http://latin.omdoc.org/logics/tptp?TFF&#45;&gt;http://latin.omdoc.org/logics/tptp?THF0</title>
<a xlink:href="http://latin.omdoc.org/logics/tptp?FirstToHigher" class="graphview">
<path fill="none" stroke="black" d="M22.2092,-93.0142C8.44761,-82.7875 -6.21874,-67.6188 3.2072,-54 14.7751,-37.2865 35.395,-28.5437 54.2841,-23.975"/>
<polygon fill="black" stroke="black" points="55.166,-27.3664 64.2382,-21.8942 53.7336,-20.5145 55.166,-27.3664"/>
</a>
<a xlink:href="http://latin.omdoc.org/logics/tptp?FirstToHigher" class="FirstToHigher">
<text text-anchor="middle" x="42.7072" y="-58.3" font-family="Times New Roman,serif" font-size="14.00">FirstToHigher</text>
</a>
</g>
<!-- http://cds.omdoc.org/urtheories?LF -->
<g id="node9" class="node"><title>http://cds.omdoc.org/urtheories?LF</title>
<a xlink:href="http://cds.omdoc.org/urtheories?LF" class="graphtheory">
<ellipse fill="gray" stroke="black" cx="147.207" cy="-254" rx="27" ry="18"/>
<text text-anchor="middle" x="147.207" y="-250.3" font-family="Times New Roman,serif" font-size="14.00">LF</text>
</a>
</g>
<!-- http://cds.omdoc.org/urtheories?LF&#45;&gt;http://latin.omdoc.org/logics/tptp?Types -->
<g id="edge9" class="edge"><title>http://cds.omdoc.org/urtheories?LF&#45;&gt;http://latin.omdoc.org/logics/tptp?Types</title>
<a class="graphmeta">
<path fill="none" stroke="black" d="M138.108,-237.021C132.978,-228.013 126.452,-216.552 120.641,-206.347"/>
<polygon fill="black" stroke="black" points="123.555,-204.392 115.565,-197.434 117.472,-207.855 123.555,-204.392"/>
</a>
</g>
<!-- http://cds.omdoc.org/urtheories?LF&#45;&gt;http://latin.omdoc.org/logics/tptp?TFF -->
<g id="edge13" class="edge"><title>http://cds.omdoc.org/urtheories?LF&#45;&gt;http://latin.omdoc.org/logics/tptp?TFF</title>
<a class="graphmeta">
<path fill="none" stroke="black" d="M122.642,-246.181C102.684,-239.335 75.4313,-226.769 60.2072,-206 44.9829,-185.231 40.9827,-155.631 40.3335,-134.213"/>
<polygon fill="black" stroke="black" points="43.8329,-134.112 40.2535,-124.14 36.8332,-134.168 43.8329,-134.112"/>
</a>
</g>
<!-- http://cds.omdoc.org/urtheories?LF&#45;&gt;http://latin.omdoc.org/logics/tptp?Arithmetic -->
<g id="edge15" class="edge"><title>http://cds.omdoc.org/urtheories?LF&#45;&gt;http://latin.omdoc.org/logics/tptp?Arithmetic</title>
<a class="graphmeta">
<path fill="none" stroke="black" d="M150.124,-235.966C154.391,-211.045 162.383,-164.374 167.492,-134.537"/>
<polygon fill="black" stroke="black" points="170.993,-134.825 169.232,-124.378 164.094,-133.644 170.993,-134.825"/>
</a>
</g>
<!-- http://cds.omdoc.org/urtheories?LF&#45;&gt;http://latin.omdoc.org/logics/tptp?THF0 -->
<g id="edge11" class="edge"><title>http://cds.omdoc.org/urtheories?LF&#45;&gt;http://latin.omdoc.org/logics/tptp?THF0</title>
<a class="graphmeta">
<path fill="none" stroke="black" d="M163.481,-239.328C195.735,-210.531 261.936,-141.851 229.207,-88 209.031,-54.8034 167.135,-36.8568 135.725,-27.6647"/>
<polygon fill="black" stroke="black" points="136.506,-24.2497 125.937,-24.9796 134.655,-31.0003 136.506,-24.2497"/>
</a>
</g>
</g>
</svg>
