<?xml version="1.0" encoding="UTF-8" standalone="no"?>
<!DOCTYPE svg PUBLIC "-//W3C//DTD SVG 1.1//EN"
 "http://www.w3.org/Graphics/SVG/1.1/DTD/svg11.dtd">
<!-- Generated by graphviz version 2.28.0 (20110507.0327)
 -->
<!-- Title: MMT Pages: 1 -->
<svg width="779pt" height="458pt"
 viewBox="0.00 0.00 779.00 458.00" xmlns="http://www.w3.org/2000/svg" xmlns:xlink="http://www.w3.org/1999/xlink">
<g id="graph1" class="graph" transform="scale(1 1) rotate(0) translate(4 454)">
<title>MMT</title>
<polygon fill="white" stroke="white" points="-4,5 -4,-454 776,-454 776,5 -4,5"/>
<g id="graph2" class="cluster"><title>cluster_local</title>
<polygon fill="none" stroke="black" points="284,-8 284,-60 410,-60 410,-8 284,-8"/>
</g>
<!-- http://latin.omdoc.org/logics/model_theory?SFOLMOD -->
<g id="node2" class="node"><title>http://latin.omdoc.org/logics/model_theory?SFOLMOD</title>
<a xlink:href="http://latin.omdoc.org/logics/model_theory?SFOLMOD" class="graphtheory">
<ellipse fill="none" stroke="black" cx="347" cy="-34" rx="54.3924" ry="18"/>
<text text-anchor="middle" x="347" y="-30.3" font-family="Times New Roman,serif" font-size="14.00">SFOLMOD</text>
</a>
</g>
<!-- http://latin.omdoc.org/logics/syntax?SExists -->
<g id="node3" class="node"><title>http://latin.omdoc.org/logics/syntax?SExists</title>
<a xlink:href="http://latin.omdoc.org/logics/syntax?SExists" class="graphtheory">
<ellipse fill="gray" stroke="black" cx="66" cy="-284" rx="38.0212" ry="18"/>
<text text-anchor="middle" x="66" y="-280.3" font-family="Times New Roman,serif" font-size="14.00">SExists</text>
</a>
</g>
<!-- http://latin.omdoc.org/logics/syntax?SExists&#45;&gt;http://latin.omdoc.org/logics/model_theory?SFOLMOD -->
<g id="edge3" class="edge"><title>http://latin.omdoc.org/logics/syntax?SExists&#45;&gt;http://latin.omdoc.org/logics/model_theory?SFOLMOD</title>
<a xlink:href="http://latin.omdoc.org/logics/model_theory?SExists" class="graphview">
<path fill="none" stroke="black" d="M67.6255,-265.723C72.52,-224.322 91.0629,-119.238 156,-70 175.938,-54.8823 236.973,-45.5287 284.741,-40.3375"/>
<polygon fill="black" stroke="black" points="285.133,-43.8157 294.713,-39.2924 284.403,-36.8539 285.133,-43.8157"/>
</a>
<a xlink:href="http://latin.omdoc.org/logics/model_theory?SExists" class="SExists">
<text text-anchor="middle" x="115.5" y="-162.3" font-family="Times New Roman,serif" font-size="14.00">SExists</text>
</a>
</g>
<!-- http://latin.omdoc.org/logics/syntax?SFOL -->
<g id="node7" class="node"><title>http://latin.omdoc.org/logics/syntax?SFOL</title>
<a xlink:href="http://latin.omdoc.org/logics/syntax?SFOL" class="graphtheory">
<ellipse fill="gray" stroke="black" cx="285" cy="-210" rx="33.1991" ry="18"/>
<text text-anchor="middle" x="285" y="-206.3" font-family="Times New Roman,serif" font-size="14.00">SFOL</text>
</a>
</g>
<!-- http://latin.omdoc.org/logics/syntax?SExists&#45;&gt;http://latin.omdoc.org/logics/syntax?SFOL -->
<g id="edge61" class="edge"><title>http://latin.omdoc.org/logics/syntax?SExists&#45;&gt;http://latin.omdoc.org/logics/syntax?SFOL</title>
<a class="graphinclude">
<path fill="none" stroke="black" d="M96.5096,-272.987C103.564,-270.683 111.041,-268.249 118,-266 131.208,-261.732 223.845,-232.429 237,-228 240.711,-226.751 244.576,-225.424 248.429,-224.086"/>
<polygon fill="black" stroke="black" points="249.611,-227.38 257.889,-220.768 247.295,-220.774 249.611,-227.38"/>
</a>
</g>
<!-- http://latin.omdoc.org/logics/syntax?BaseSFOL -->
<g id="node5" class="node"><title>http://latin.omdoc.org/logics/syntax?BaseSFOL</title>
<a xlink:href="http://latin.omdoc.org/logics/syntax?BaseSFOL" class="graphtheory">
<ellipse fill="gray" stroke="black" cx="183" cy="-358" rx="51.0191" ry="18"/>
<text text-anchor="middle" x="183" y="-354.3" font-family="Times New Roman,serif" font-size="14.00">BaseSFOL</text>
</a>
</g>
<!-- http://latin.omdoc.org/logics/syntax?BaseSFOL&#45;&gt;http://latin.omdoc.org/logics/model_theory?SFOLMOD -->
<g id="edge5" class="edge"><title>http://latin.omdoc.org/logics/syntax?BaseSFOL&#45;&gt;http://latin.omdoc.org/logics/model_theory?SFOLMOD</title>
<a xlink:href="http://latin.omdoc.org/logics/model_theory?BaseSFOL" class="graphview">
<path fill="none" stroke="black" d="M178.159,-339.99C174.463,-325.498 170,-304.053 170,-285 170,-285 170,-285 170,-121 170,-68.6324 233.456,-48.1439 284.378,-40.1331"/>
<polygon fill="black" stroke="black" points="284.975,-43.5833 294.373,-38.6916 283.976,-36.655 284.975,-43.5833"/>
</a>
<a xlink:href="http://latin.omdoc.org/logics/model_theory?BaseSFOL" class="BaseSFOL">
<text text-anchor="middle" x="201.5" y="-206.3" font-family="Times New Roman,serif" font-size="14.00">BaseSFOL</text>
</a>
</g>
<!-- http://latin.omdoc.org/logics/syntax?BaseSFOL&#45;&gt;http://latin.omdoc.org/logics/syntax?SExists -->
<g id="edge55" class="edge"><title>http://latin.omdoc.org/logics/syntax?BaseSFOL&#45;&gt;http://latin.omdoc.org/logics/syntax?SExists</title>
<a class="graphinclude">
<path fill="none" stroke="black" d="M158.758,-342.082C140.845,-331.058 116.316,-315.964 96.9811,-304.065"/>
<polygon fill="black" stroke="black" points="98.5836,-300.942 88.2326,-298.682 94.9149,-306.903 98.5836,-300.942"/>
</a>
</g>
<!-- http://latin.omdoc.org/logics/syntax?BaseSFOL&#45;&gt;http://latin.omdoc.org/logics/syntax?SFOL -->
<g id="edge59" class="edge"><title>http://latin.omdoc.org/logics/syntax?BaseSFOL&#45;&gt;http://latin.omdoc.org/logics/syntax?SFOL</title>
<a class="graphinclude">
<path fill="none" stroke="black" d="M194.701,-340.252C212.626,-314.594 246.988,-265.41 267.767,-235.667"/>
<polygon fill="black" stroke="black" points="270.889,-237.31 273.747,-227.108 265.15,-233.301 270.889,-237.31"/>
</a>
</g>
<!-- http://latin.omdoc.org/logics/syntax?SForall -->
<g id="node11" class="node"><title>http://latin.omdoc.org/logics/syntax?SForall</title>
<a xlink:href="http://latin.omdoc.org/logics/syntax?SForall" class="graphtheory">
<ellipse fill="gray" stroke="black" cx="347" cy="-284" rx="37.0701" ry="18"/>
<text text-anchor="middle" x="347" y="-280.3" font-family="Times New Roman,serif" font-size="14.00">SForall</text>
</a>
</g>
<!-- http://latin.omdoc.org/logics/syntax?BaseSFOL&#45;&gt;http://latin.omdoc.org/logics/syntax?SForall -->
<g id="edge51" class="edge"><title>http://latin.omdoc.org/logics/syntax?BaseSFOL&#45;&gt;http://latin.omdoc.org/logics/syntax?SForall</title>
<a class="graphinclude">
<path fill="none" stroke="black" d="M214.606,-343.688C229.864,-337.216 248.417,-329.279 265,-322 280.222,-315.318 296.961,-307.797 311.324,-301.288"/>
<polygon fill="black" stroke="black" points="313.183,-304.289 320.841,-296.968 310.289,-297.915 313.183,-304.289"/>
</a>
</g>
<!-- http://latin.omdoc.org/logics/syntax?SEqual -->
<g id="node13" class="node"><title>http://latin.omdoc.org/logics/syntax?SEqual</title>
<a xlink:href="http://latin.omdoc.org/logics/syntax?SEqual" class="graphtheory">
<ellipse fill="gray" stroke="black" cx="411" cy="-210" rx="36.096" ry="18"/>
<text text-anchor="middle" x="411" y="-206.3" font-family="Times New Roman,serif" font-size="14.00">SEqual</text>
</a>
</g>
<!-- http://latin.omdoc.org/logics/syntax?BaseSFOL&#45;&gt;http://latin.omdoc.org/logics/syntax?SEqual -->
<g id="edge53" class="edge"><title>http://latin.omdoc.org/logics/syntax?BaseSFOL&#45;&gt;http://latin.omdoc.org/logics/syntax?SEqual</title>
<a class="graphinclude">
<path fill="none" stroke="black" d="M229.777,-350.598C284.638,-342.124 370.919,-325.468 393,-302 408.903,-285.098 412.606,-258.391 412.804,-238.272"/>
<polygon fill="black" stroke="black" points="416.302,-238.094 412.623,-228.158 409.303,-238.22 416.302,-238.094"/>
</a>
</g>
<!-- http://latin.omdoc.org/logics/proof_theory?BaseSFOL -->
<g id="node15" class="node"><title>http://latin.omdoc.org/logics/proof_theory?BaseSFOL</title>
<a xlink:href="http://latin.omdoc.org/logics/proof_theory?BaseSFOL" class="graphtheory">
<ellipse fill="gray" stroke="black" cx="572" cy="-284" rx="51.0191" ry="18"/>
<text text-anchor="middle" x="572" y="-280.3" font-family="Times New Roman,serif" font-size="14.00">BaseSFOL</text>
</a>
</g>
<!-- http://latin.omdoc.org/logics/syntax?BaseSFOL&#45;&gt;http://latin.omdoc.org/logics/proof_theory?BaseSFOL -->
<g id="edge57" class="edge"><title>http://latin.omdoc.org/logics/syntax?BaseSFOL&#45;&gt;http://latin.omdoc.org/logics/proof_theory?BaseSFOL</title>
<a class="graphinclude">
<path fill="none" stroke="black" d="M227.557,-349.144C267.097,-342.14 326.423,-331.547 378,-322 425.352,-313.235 479.14,-302.951 518.049,-295.452"/>
<polygon fill="black" stroke="black" points="518.952,-298.843 528.108,-293.512 517.626,-291.97 518.952,-298.843"/>
</a>
</g>
<!-- http://latin.omdoc.org/logics/syntax?SFOL&#45;&gt;http://latin.omdoc.org/logics/model_theory?SFOLMOD -->
<g id="edge7" class="edge"><title>http://latin.omdoc.org/logics/syntax?SFOL&#45;&gt;http://latin.omdoc.org/logics/model_theory?SFOLMOD</title>
<a xlink:href="http://latin.omdoc.org/logics/model_theory?SFOL" class="graphview">
<path fill="none" stroke="black" d="M284.334,-191.633C284.103,-170.271 285.642,-133.247 297,-104 303.37,-87.5972 314.615,-71.541 324.829,-59.0505"/>
<polygon fill="black" stroke="black" points="327.529,-61.2786 331.331,-51.3895 322.192,-56.749 327.529,-61.2786"/>
</a>
<a xlink:href="http://latin.omdoc.org/logics/model_theory?SFOL" class="SFOL">
<text text-anchor="middle" x="315" y="-118.3" font-family="Times New Roman,serif" font-size="14.00">SFOL</text>
</a>
</g>
<!-- http://latin.omdoc.org/logics/syntax?SFOLEQ -->
<g id="node9" class="node"><title>http://latin.omdoc.org/logics/syntax?SFOLEQ</title>
<a xlink:href="http://latin.omdoc.org/logics/syntax?SFOLEQ" class="graphtheory">
<ellipse fill="gray" stroke="black" cx="507" cy="-122" rx="46.2191" ry="18"/>
<text text-anchor="middle" x="507" y="-118.3" font-family="Times New Roman,serif" font-size="14.00">SFOLEQ</text>
</a>
</g>
<!-- http://latin.omdoc.org/logics/syntax?SFOL&#45;&gt;http://latin.omdoc.org/logics/syntax?SFOLEQ -->
<g id="edge49" class="edge"><title>http://latin.omdoc.org/logics/syntax?SFOL&#45;&gt;http://latin.omdoc.org/logics/syntax?SFOLEQ</title>
<a class="graphinclude">
<path fill="none" stroke="black" d="M313.888,-200.421C335.58,-193.769 365.91,-184.023 392,-174 418.402,-163.857 447.521,-150.926 469.851,-140.622"/>
<polygon fill="black" stroke="black" points="471.383,-143.77 478.978,-136.383 468.434,-137.421 471.383,-143.77"/>
</a>
</g>
<!-- http://latin.omdoc.org/logics/syntax?SFOLEQ&#45;&gt;http://latin.omdoc.org/logics/model_theory?SFOLMOD -->
<g id="edge9" class="edge"><title>http://latin.omdoc.org/logics/syntax?SFOLEQ&#45;&gt;http://latin.omdoc.org/logics/model_theory?SFOLMOD</title>
<a xlink:href="http://latin.omdoc.org/logics/model_theory?SFOLEQ" class="graphview">
<path fill="none" stroke="black" d="M482.361,-106.581C464.38,-96.1704 439.348,-81.9085 417,-70 406.901,-64.6187 395.871,-58.9901 385.616,-53.8593"/>
<polygon fill="black" stroke="black" points="386.976,-50.6271 376.464,-49.3087 383.859,-56.895 386.976,-50.6271"/>
</a>
<a xlink:href="http://latin.omdoc.org/logics/model_theory?SFOLEQ" class="SFOLEQ">
<text text-anchor="middle" x="472.5" y="-74.3" font-family="Times New Roman,serif" font-size="14.00">SFOLEQ</text>
</a>
</g>
<!-- http://latin.omdoc.org/logics/syntax?SForall&#45;&gt;http://latin.omdoc.org/logics/model_theory?SFOLMOD -->
<g id="edge11" class="edge"><title>http://latin.omdoc.org/logics/syntax?SForall&#45;&gt;http://latin.omdoc.org/logics/model_theory?SFOLMOD</title>
<a xlink:href="http://latin.omdoc.org/logics/model_theory?SForall" class="graphview">
<path fill="none" stroke="black" d="M347,-265.954C347,-223.657 347,-113.606 347,-62.1993"/>
<polygon fill="black" stroke="black" points="350.5,-62.1653 347,-52.1653 343.5,-62.1654 350.5,-62.1653"/>
</a>
<a xlink:href="http://latin.omdoc.org/logics/model_theory?SForall" class="SForall">
<text text-anchor="middle" x="367.5" y="-162.3" font-family="Times New Roman,serif" font-size="14.00">SForall</text>
</a>
</g>
<!-- http://latin.omdoc.org/logics/syntax?SForall&#45;&gt;http://latin.omdoc.org/logics/syntax?SFOL -->
<g id="edge47" class="edge"><title>http://latin.omdoc.org/logics/syntax?SForall&#45;&gt;http://latin.omdoc.org/logics/syntax?SFOL</title>
<a class="graphinclude">
<path fill="none" stroke="black" d="M333.24,-267.021C325.053,-257.513 314.513,-245.273 305.374,-234.66"/>
<polygon fill="black" stroke="black" points="307.899,-232.228 298.721,-226.934 302.594,-236.796 307.899,-232.228"/>
</a>
</g>
<!-- http://latin.omdoc.org/logics/proof_theory?SForall -->
<g id="node17" class="node"><title>http://latin.omdoc.org/logics/proof_theory?SForall</title>
<a xlink:href="http://latin.omdoc.org/logics/proof_theory?SForall" class="graphtheory">
<ellipse fill="gray" stroke="black" cx="573" cy="-210" rx="37.0701" ry="18"/>
<text text-anchor="middle" x="573" y="-206.3" font-family="Times New Roman,serif" font-size="14.00">SForall</text>
</a>
</g>
<!-- http://latin.omdoc.org/logics/syntax?SForall&#45;&gt;http://latin.omdoc.org/logics/proof_theory?SForall -->
<g id="edge45" class="edge"><title>http://latin.omdoc.org/logics/syntax?SForall&#45;&gt;http://latin.omdoc.org/logics/proof_theory?SForall</title>
<a class="graphinclude">
<path fill="none" stroke="black" d="M377.011,-273.439C417.197,-260.636 488.592,-237.891 533.223,-223.672"/>
<polygon fill="black" stroke="black" points="534.399,-226.971 542.865,-220.601 532.274,-220.301 534.399,-226.971"/>
</a>
</g>
<!-- http://latin.omdoc.org/logics/syntax?SEqual&#45;&gt;http://latin.omdoc.org/logics/model_theory?SFOLMOD -->
<g id="edge13" class="edge"><title>http://latin.omdoc.org/logics/syntax?SEqual&#45;&gt;http://latin.omdoc.org/logics/model_theory?SFOLMOD</title>
<a xlink:href="http://latin.omdoc.org/logics/model_theory?SEqual" class="graphview">
<path fill="none" stroke="black" d="M405.035,-191.809C395.851,-165.482 377.569,-113.635 361,-70 359.955,-67.2468 358.844,-64.38 357.724,-61.5247"/>
<polygon fill="black" stroke="black" points="360.902,-60.044 353.957,-52.0428 354.396,-62.6285 360.902,-60.044"/>
</a>
<a xlink:href="http://latin.omdoc.org/logics/model_theory?SEqual" class="SEqual">
<text text-anchor="middle" x="407" y="-118.3" font-family="Times New Roman,serif" font-size="14.00">SEqual</text>
</a>
</g>
<!-- http://latin.omdoc.org/logics/syntax?SEqual&#45;&gt;http://latin.omdoc.org/logics/syntax?SFOLEQ -->
<g id="edge43" class="edge"><title>http://latin.omdoc.org/logics/syntax?SEqual&#45;&gt;http://latin.omdoc.org/logics/syntax?SFOLEQ</title>
<a class="graphinclude">
<path fill="none" stroke="black" d="M427.722,-194.02C442.722,-180.582 464.941,-160.678 482.043,-145.357"/>
<polygon fill="black" stroke="black" points="484.384,-147.959 489.497,-138.68 479.713,-142.746 484.384,-147.959"/>
</a>
</g>
<!-- http://latin.omdoc.org/logics/proof_theory?BaseSFOL&#45;&gt;http://latin.omdoc.org/logics/model_theory?SFOLMOD -->
<g id="edge15" class="edge"><title>http://latin.omdoc.org/logics/proof_theory?BaseSFOL&#45;&gt;http://latin.omdoc.org/logics/model_theory?SFOLMOD</title>
<a xlink:href="http://latin.omdoc.org/logics/soundness?BaseSFOL" class="graphview">
<path fill="none" stroke="black" d="M590.777,-267.253C601.229,-257.23 613.26,-243.286 619,-228 638.376,-176.405 650.511,-149.897 620,-104 596.737,-69.0057 481.604,-49.8949 408.481,-41.116"/>
<polygon fill="black" stroke="black" points="408.795,-37.6289 398.456,-39.9453 407.983,-44.5817 408.795,-37.6289"/>
</a>
<a xlink:href="http://latin.omdoc.org/logics/soundness?BaseSFOL" class="BaseSFOL">
<text text-anchor="middle" x="670.5" y="-162.3" font-family="Times New Roman,serif" font-size="14.00">BaseSFOL</text>
</a>
</g>
<!-- http://latin.omdoc.org/logics/proof_theory?BaseSFOL&#45;&gt;http://latin.omdoc.org/logics/proof_theory?SForall -->
<g id="edge41" class="edge"><title>http://latin.omdoc.org/logics/proof_theory?BaseSFOL&#45;&gt;http://latin.omdoc.org/logics/proof_theory?SForall</title>
<a class="graphinclude">
<path fill="none" stroke="black" d="M572.237,-265.937C572.35,-257.807 572.488,-247.876 572.615,-238.705"/>
<polygon fill="black" stroke="black" points="576.118,-238.488 572.758,-228.441 569.119,-238.391 576.118,-238.488"/>
</a>
</g>
<!-- http://latin.omdoc.org/logics/proof_theory?SForall&#45;&gt;http://latin.omdoc.org/logics/model_theory?SFOLMOD -->
<g id="edge17" class="edge"><title>http://latin.omdoc.org/logics/proof_theory?SForall&#45;&gt;http://latin.omdoc.org/logics/model_theory?SFOLMOD</title>
<a xlink:href="http://latin.omdoc.org/logics/soundness?SForall" class="graphview">
<path fill="none" stroke="black" d="M575.655,-191.834C578.15,-169.681 579.277,-130.807 562,-104 545.813,-78.8837 531.806,-80.9382 504,-70 472.597,-57.6468 435.858,-49.1573 405.819,-43.6364"/>
<polygon fill="black" stroke="black" points="406.363,-40.1785 395.905,-41.8766 405.14,-47.0707 406.363,-40.1785"/>
</a>
<a xlink:href="http://latin.omdoc.org/logics/soundness?SForall" class="SForall">
<text text-anchor="middle" x="595.5" y="-118.3" font-family="Times New Roman,serif" font-size="14.00">SForall</text>
</a>
</g>
<!-- http://latin.omdoc.org/foundations/minimal?Universes -->
<g id="node19" class="node"><title>http://latin.omdoc.org/foundations/minimal?Universes</title>
<a xlink:href="http://latin.omdoc.org/foundations/minimal?Universes" class="graphtheory">
<ellipse fill="gray" stroke="black" cx="725" cy="-358" rx="46.2191" ry="18"/>
<text text-anchor="middle" x="725" y="-354.3" font-family="Times New Roman,serif" font-size="14.00">Universes</text>
</a>
</g>
<!-- http://latin.omdoc.org/foundations/minimal?Universes&#45;&gt;http://latin.omdoc.org/logics/model_theory?SFOLMOD -->
<g id="edge19" class="edge"><title>http://latin.omdoc.org/foundations/minimal?Universes&#45;&gt;http://latin.omdoc.org/logics/model_theory?SFOLMOD</title>
<a class="graphinclude">
<path fill="none" stroke="black" d="M724.628,-339.835C724.343,-325.248 724,-303.752 724,-285 724,-285 724,-285 724,-121 724,-57.591 518.716,-40.9343 411.113,-36.5588"/>
<polygon fill="black" stroke="black" points="411.141,-33.0575 401.015,-36.1726 410.874,-40.0524 411.141,-33.0575"/>
</a>
</g>
<!-- http://cds.omdoc.org/urtheories?LF -->
<g id="node21" class="node"><title>http://cds.omdoc.org/urtheories?LF</title>
<a xlink:href="http://cds.omdoc.org/urtheories?LF" class="graphtheory">
<ellipse fill="gray" stroke="black" cx="436" cy="-432" rx="27" ry="18"/>
<text text-anchor="middle" x="436" y="-428.3" font-family="Times New Roman,serif" font-size="14.00">LF</text>
</a>
</g>
<!-- http://cds.omdoc.org/urtheories?LF&#45;&gt;http://latin.omdoc.org/logics/model_theory?SFOLMOD -->
<g id="edge21" class="edge"><title>http://cds.omdoc.org/urtheories?LF&#45;&gt;http://latin.omdoc.org/logics/model_theory?SFOLMOD</title>
<a class="graphmeta">
<path fill="none" stroke="black" d="M408.635,-431.136C348.874,-430.816 202.631,-426.66 85,-396 45.1303,-385.608 0,-400.202 0,-359 0,-359 0,-359 0,-121 0,-63.2453 183.392,-44.0126 283.53,-37.8158"/>
<polygon fill="black" stroke="black" points="283.766,-41.308 293.542,-37.2224 283.352,-34.3203 283.766,-41.308"/>
</a>
</g>
<!-- http://cds.omdoc.org/urtheories?LF&#45;&gt;http://latin.omdoc.org/logics/syntax?SExists -->
<g id="edge25" class="edge"><title>http://cds.omdoc.org/urtheories?LF&#45;&gt;http://latin.omdoc.org/logics/syntax?SExists</title>
<a class="graphmeta">
<path fill="none" stroke="black" d="M409.066,-430.072C331.84,-427.167 113.662,-417.147 90,-396 66.8464,-375.307 63.0983,-338.061 63.6417,-312.463"/>
<polygon fill="black" stroke="black" points="67.1464,-312.433 64.0933,-302.287 60.1533,-312.122 67.1464,-312.433"/>
</a>
</g>
<!-- http://cds.omdoc.org/urtheories?LF&#45;&gt;http://latin.omdoc.org/logics/syntax?BaseSFOL -->
<g id="edge35" class="edge"><title>http://cds.omdoc.org/urtheories?LF&#45;&gt;http://latin.omdoc.org/logics/syntax?BaseSFOL</title>
<a class="graphmeta">
<path fill="none" stroke="black" d="M411.741,-424.096C370.291,-412.3 285.098,-388.056 231.187,-372.713"/>
<polygon fill="black" stroke="black" points="232.079,-369.328 221.503,-369.957 230.163,-376.061 232.079,-369.328"/>
</a>
</g>
<!-- http://cds.omdoc.org/urtheories?LF&#45;&gt;http://latin.omdoc.org/logics/syntax?SFOL -->
<g id="edge31" class="edge"><title>http://cds.omdoc.org/urtheories?LF&#45;&gt;http://latin.omdoc.org/logics/syntax?SFOL</title>
<a class="graphmeta">
<path fill="none" stroke="black" d="M409.026,-430.506C339.948,-428.614 159.541,-419.522 123,-376 73.5044,-317.049 189.033,-253.842 250.148,-225.826"/>
<polygon fill="black" stroke="black" points="251.773,-228.933 259.456,-221.638 248.901,-222.549 251.773,-228.933"/>
</a>
</g>
<!-- http://cds.omdoc.org/urtheories?LF&#45;&gt;http://latin.omdoc.org/logics/syntax?SFOLEQ -->
<g id="edge39" class="edge"><title>http://cds.omdoc.org/urtheories?LF&#45;&gt;http://latin.omdoc.org/logics/syntax?SFOLEQ</title>
<a class="graphmeta">
<path fill="none" stroke="black" d="M454.349,-418.741C471.012,-405.985 493,-384.349 493,-359 493,-359 493,-359 493,-209 493,-189.146 496.68,-167.044 500.267,-150.218"/>
<polygon fill="black" stroke="black" points="503.785,-150.525 502.57,-140 496.957,-148.986 503.785,-150.525"/>
</a>
</g>
<!-- http://cds.omdoc.org/urtheories?LF&#45;&gt;http://latin.omdoc.org/logics/syntax?SForall -->
<g id="edge27" class="edge"><title>http://cds.omdoc.org/urtheories?LF&#45;&gt;http://latin.omdoc.org/logics/syntax?SForall</title>
<a class="graphmeta">
<path fill="none" stroke="black" d="M426.306,-415.098C410.954,-389.914 380.91,-340.627 362.529,-310.475"/>
<polygon fill="black" stroke="black" points="365.422,-308.496 357.228,-301.779 359.445,-312.14 365.422,-308.496"/>
</a>
</g>
<!-- http://cds.omdoc.org/urtheories?LF&#45;&gt;http://latin.omdoc.org/logics/syntax?SEqual -->
<g id="edge33" class="edge"><title>http://cds.omdoc.org/urtheories?LF&#45;&gt;http://latin.omdoc.org/logics/syntax?SEqual</title>
<a class="graphmeta">
<path fill="none" stroke="black" d="M437.299,-413.858C439.337,-380.829 441.673,-306.302 427,-246 426.265,-242.981 425.27,-239.905 424.132,-236.89"/>
<polygon fill="black" stroke="black" points="427.317,-235.435 420.16,-227.623 420.883,-238.193 427.317,-235.435"/>
</a>
</g>
<!-- http://cds.omdoc.org/urtheories?LF&#45;&gt;http://latin.omdoc.org/logics/proof_theory?BaseSFOL -->
<g id="edge29" class="edge"><title>http://cds.omdoc.org/urtheories?LF&#45;&gt;http://latin.omdoc.org/logics/proof_theory?BaseSFOL</title>
<a class="graphmeta">
<path fill="none" stroke="black" d="M459.821,-423.278C474.699,-417.548 493.52,-408.546 507,-396 532.574,-372.198 551.166,-336.033 561.758,-311.505"/>
<polygon fill="black" stroke="black" points="565.065,-312.669 565.678,-302.092 558.603,-309.978 565.065,-312.669"/>
</a>
</g>
<!-- http://cds.omdoc.org/urtheories?LF&#45;&gt;http://latin.omdoc.org/logics/proof_theory?SForall -->
<g id="edge37" class="edge"><title>http://cds.omdoc.org/urtheories?LF&#45;&gt;http://latin.omdoc.org/logics/proof_theory?SForall</title>
<a class="graphmeta">
<path fill="none" stroke="black" d="M460.709,-424.262C505.973,-410.346 600.446,-373.567 632,-302 638.455,-287.36 638.381,-280.672 632,-266 625.933,-252.05 614.391,-240.035 603.113,-230.826"/>
<polygon fill="black" stroke="black" points="605.095,-227.935 595.029,-224.628 600.835,-233.49 605.095,-227.935"/>
</a>
</g>
<!-- http://cds.omdoc.org/urtheories?LF&#45;&gt;http://latin.omdoc.org/foundations/minimal?Universes -->
<g id="edge23" class="edge"><title>http://cds.omdoc.org/urtheories?LF&#45;&gt;http://latin.omdoc.org/foundations/minimal?Universes</title>
<a class="graphmeta">
<path fill="none" stroke="black" d="M462.957,-430.338C506.67,-428.512 595.161,-421.662 665,-396 675.707,-392.066 686.572,-386.091 696.059,-380.084"/>
<polygon fill="black" stroke="black" points="698.274,-382.815 704.684,-374.38 694.412,-376.977 698.274,-382.815"/>
</a>
</g>
</g>
</svg>
