<?xml version="1.0" encoding="UTF-8" standalone="no"?>
<!DOCTYPE svg PUBLIC "-//W3C//DTD SVG 1.1//EN"
 "http://www.w3.org/Graphics/SVG/1.1/DTD/svg11.dtd">
<!-- Generated by graphviz version 2.28.0 (20110507.0327)
 -->
<!-- Title: MMT Pages: 1 -->
<svg
 viewBox="0.00 0.00 163.88 260.00" xmlns="http://www.w3.org/2000/svg" xmlns:xlink="http://www.w3.org/1999/xlink">
<g id="graph1" class="graph" transform="scale(1 1) rotate(0) translate(4 256)">
<title>MMT</title>
<polygon fill="white" stroke="white" points="-4,5 -4,-256 160.882,-256 160.882,5 -4,5"/>
<g id="graph2" class="cluster"><title>cluster_local</title>
<polygon fill="none" stroke="black" points="8,-64 8,-116 140,-116 140,-64 8,-64"/>
</g>
<!-- http://latin.omdoc.org/logics/description/owl/owl2.omdoc?OWL2ELRL -->
<g id="node2" class="node"><title>http://latin.omdoc.org/logics/description/owl/owl2.omdoc?OWL2ELRL</title>
<a xlink:href="http://latin.omdoc.org/logics/description/owl/owl2.omdoc?OWL2ELRL" class="graphtheory">
<ellipse fill="none" stroke="black" cx="74" cy="-90" rx="58.2422" ry="18"/>
<text text-anchor="middle" x="74" y="-86.3" font-family="Times New Roman,serif" font-size="14.00">OWL2ELRL</text>
</a>
</g>
<!-- http://latin.omdoc.org/logics/description/owl/owl2.omdoc?OWL2 -->
<g id="node3" class="node"><title>http://latin.omdoc.org/logics/description/owl/owl2.omdoc?OWL2</title>
<a xlink:href="http://latin.omdoc.org/logics/description/owl/owl2.omdoc?OWL2" class="graphtheory">
<ellipse fill="gray" stroke="black" cx="117" cy="-18" rx="36.096" ry="18"/>
<text text-anchor="middle" x="117" y="-14.3" font-family="Times New Roman,serif" font-size="14.00">OWL2</text>
</a>
</g>
<!-- http://latin.omdoc.org/logics/description/owl/owl2.omdoc?OWL2ELRL&#45;&gt;http://latin.omdoc.org/logics/description/owl/owl2.omdoc?OWL2 -->
<g id="edge3" class="edge"><title>http://latin.omdoc.org/logics/description/owl/owl2.omdoc?OWL2ELRL&#45;&gt;http://latin.omdoc.org/logics/description/owl/owl2.omdoc?OWL2</title>
<a class="graphinclude">
<path fill="none" stroke="black" d="M84.4091,-72.055C89.6078,-63.592 95.9978,-53.1897 101.738,-43.8447"/>
<polygon fill="black" stroke="black" points="104.731,-45.6598 106.983,-35.307 98.7663,-41.9958 104.731,-45.6598"/>
</a>
</g>
<!-- http://latin.omdoc.org/logics/description/owl/owl2.omdoc?OWL2SUB -->
<g id="node5" class="node"><title>http://latin.omdoc.org/logics/description/owl/owl2.omdoc?OWL2SUB</title>
<a xlink:href="http://latin.omdoc.org/logics/description/owl/owl2.omdoc?OWL2SUB" class="graphtheory">
<ellipse fill="gray" stroke="black" cx="78" cy="-162" rx="53.4184" ry="18"/>
<text text-anchor="middle" x="78" y="-158.3" font-family="Times New Roman,serif" font-size="14.00">OWL2SUB</text>
</a>
</g>
<!-- http://latin.omdoc.org/logics/description/owl/owl2.omdoc?OWL2SUB&#45;&gt;http://latin.omdoc.org/logics/description/owl/owl2.omdoc?OWL2ELRL -->
<g id="edge5" class="edge"><title>http://latin.omdoc.org/logics/description/owl/owl2.omdoc?OWL2SUB&#45;&gt;http://latin.omdoc.org/logics/description/owl/owl2.omdoc?OWL2ELRL</title>
<a class="graphinclude">
<path fill="none" stroke="black" d="M77.0112,-143.697C76.5704,-135.983 76.0407,-126.712 75.5493,-118.112"/>
<polygon fill="black" stroke="black" points="79.0423,-117.888 74.9774,-108.104 72.0537,-118.288 79.0423,-117.888"/>
</a>
</g>
<!-- http://cds.omdoc.org/urtheories?LF -->
<g id="node7" class="node"><title>http://cds.omdoc.org/urtheories?LF</title>
<a xlink:href="http://cds.omdoc.org/urtheories?LF" class="graphtheory">
<ellipse fill="gray" stroke="black" cx="78" cy="-234" rx="27" ry="18"/>
<text text-anchor="middle" x="78" y="-230.3" font-family="Times New Roman,serif" font-size="14.00">LF</text>
</a>
</g>
<!-- http://cds.omdoc.org/urtheories?LF&#45;&gt;http://latin.omdoc.org/logics/description/owl/owl2.omdoc?OWL2ELRL -->
<g id="edge7" class="edge"><title>http://cds.omdoc.org/urtheories?LF&#45;&gt;http://latin.omdoc.org/logics/description/owl/owl2.omdoc?OWL2ELRL</title>
<a class="graphmeta">
<path fill="none" stroke="black" d="M57.3635,-222.157C42.5343,-213.096 23.6865,-198.659 15,-180 8.24733,-165.495 8.48373,-158.613 15,-144 20.4867,-131.696 30.398,-121.055 40.5502,-112.603"/>
<polygon fill="black" stroke="black" points="42.911,-115.201 48.6638,-106.304 38.6184,-109.672 42.911,-115.201"/>
</a>
</g>
<!-- http://cds.omdoc.org/urtheories?LF&#45;&gt;http://latin.omdoc.org/logics/description/owl/owl2.omdoc?OWL2 -->
<g id="edge11" class="edge"><title>http://cds.omdoc.org/urtheories?LF&#45;&gt;http://latin.omdoc.org/logics/description/owl/owl2.omdoc?OWL2</title>
<a class="graphmeta">
<path fill="none" stroke="black" d="M98.2896,-221.727C112.671,-212.532 130.956,-198.118 140,-180 163.038,-133.844 157.77,-113.714 144,-64 142.072,-57.0389 138.748,-50.0735 135.079,-43.774"/>
<polygon fill="black" stroke="black" points="137.889,-41.6694 129.577,-35.0992 131.977,-45.4186 137.889,-41.6694"/>
</a>
</g>
<!-- http://cds.omdoc.org/urtheories?LF&#45;&gt;http://latin.omdoc.org/logics/description/owl/owl2.omdoc?OWL2SUB -->
<g id="edge9" class="edge"><title>http://cds.omdoc.org/urtheories?LF&#45;&gt;http://latin.omdoc.org/logics/description/owl/owl2.omdoc?OWL2SUB</title>
<a class="graphmeta">
<path fill="none" stroke="black" d="M78,-215.697C78,-207.983 78,-198.712 78,-190.112"/>
<polygon fill="black" stroke="black" points="81.5001,-190.104 78,-180.104 74.5001,-190.104 81.5001,-190.104"/>
</a>
</g>
</g>
</svg>
