<?xml version="1.0" encoding="UTF-8" standalone="no"?>
<!DOCTYPE svg PUBLIC "-//W3C//DTD SVG 1.1//EN"
 "http://www.w3.org/Graphics/SVG/1.1/DTD/svg11.dtd">
<!-- Generated by graphviz version 2.28.0 (20110507.0327)
 -->
<!-- Title: MMT Pages: 1 -->
<svg width="738pt" height="260pt"
 viewBox="0.00 0.00 738.00 260.00" xmlns="http://www.w3.org/2000/svg" xmlns:xlink="http://www.w3.org/1999/xlink">
<g id="graph1" class="graph" transform="scale(1 1) rotate(0) translate(4 256)">
<title>MMT</title>
<polygon fill="white" stroke="white" points="-4,5 -4,-256 735,-256 735,5 -4,5"/>
<g id="graph2" class="cluster"><title>cluster_local</title>
<polygon fill="none" stroke="black" points="346,-64 346,-116 470,-116 470,-64 346,-64"/>
</g>
<!-- http://latin.omdoc.org/logics/description/owl/owl2.omdoc?OWL2SUB -->
<g id="node2" class="node"><title>http://latin.omdoc.org/logics/description/owl/owl2.omdoc?OWL2SUB</title>
<a xlink:href="http://latin.omdoc.org/logics/description/owl/owl2.omdoc?OWL2SUB" class="graphtheory">
<ellipse fill="none" stroke="black" cx="408" cy="-90" rx="53.4184" ry="18"/>
<text text-anchor="middle" x="408" y="-86.3" font-family="Times New Roman,serif" font-size="14.00">OWL2SUB</text>
</a>
</g>
<!-- http://latin.omdoc.org/logics/description/owl/owl2.omdoc?OWL2EL -->
<g id="node3" class="node"><title>http://latin.omdoc.org/logics/description/owl/owl2.omdoc?OWL2EL</title>
<a xlink:href="http://latin.omdoc.org/logics/description/owl/owl2.omdoc?OWL2EL" class="graphtheory">
<ellipse fill="gray" stroke="black" cx="46" cy="-18" rx="46.1964" ry="18"/>
<text text-anchor="middle" x="46" y="-14.3" font-family="Times New Roman,serif" font-size="14.00">OWL2EL</text>
</a>
</g>
<!-- http://latin.omdoc.org/logics/description/owl/owl2.omdoc?OWL2SUB&#45;&gt;http://latin.omdoc.org/logics/description/owl/owl2.omdoc?OWL2EL -->
<g id="edge3" class="edge"><title>http://latin.omdoc.org/logics/description/owl/owl2.omdoc?OWL2SUB&#45;&gt;http://latin.omdoc.org/logics/description/owl/owl2.omdoc?OWL2EL</title>
<a class="graphinclude">
<path fill="none" stroke="black" d="M379.389,-74.6857C370.205,-70.634 359.856,-66.6186 350,-64 242.797,-35.5163 210.632,-58.4258 102,-36 97.9141,-35.1565 93.6981,-34.1462 89.499,-33.0444"/>
<polygon fill="black" stroke="black" points="90.3731,-29.6547 79.8006,-30.3425 88.4945,-36.3979 90.3731,-29.6547"/>
</a>
</g>
<!-- http://latin.omdoc.org/logics/description/owl/owl2.omdoc?OWL2ELQL -->
<g id="node5" class="node"><title>http://latin.omdoc.org/logics/description/owl/owl2.omdoc?OWL2ELQL</title>
<a xlink:href="http://latin.omdoc.org/logics/description/owl/owl2.omdoc?OWL2ELQL" class="graphtheory">
<ellipse fill="gray" stroke="black" cx="170" cy="-18" rx="59.2173" ry="18"/>
<text text-anchor="middle" x="170" y="-14.3" font-family="Times New Roman,serif" font-size="14.00">OWL2ELQL</text>
</a>
</g>
<!-- http://latin.omdoc.org/logics/description/owl/owl2.omdoc?OWL2SUB&#45;&gt;http://latin.omdoc.org/logics/description/owl/owl2.omdoc?OWL2ELQL -->
<g id="edge5" class="edge"><title>http://latin.omdoc.org/logics/description/owl/owl2.omdoc?OWL2SUB&#45;&gt;http://latin.omdoc.org/logics/description/owl/owl2.omdoc?OWL2ELQL</title>
<a class="graphinclude">
<path fill="none" stroke="black" d="M377.959,-74.9536C369.072,-71.0989 359.245,-67.1251 350,-64 346.918,-62.9583 276.014,-45.3033 224.133,-32.4225"/>
<polygon fill="black" stroke="black" points="224.911,-29.0094 214.362,-29.9972 223.224,-35.8033 224.911,-29.0094"/>
</a>
</g>
<!-- http://latin.omdoc.org/logics/description/owl/owl2.omdoc?OWL2ELRL -->
<g id="node7" class="node"><title>http://latin.omdoc.org/logics/description/owl/owl2.omdoc?OWL2ELRL</title>
<a xlink:href="http://latin.omdoc.org/logics/description/owl/owl2.omdoc?OWL2ELRL" class="graphtheory">
<ellipse fill="gray" stroke="black" cx="306" cy="-18" rx="58.2422" ry="18"/>
<text text-anchor="middle" x="306" y="-14.3" font-family="Times New Roman,serif" font-size="14.00">OWL2ELRL</text>
</a>
</g>
<!-- http://latin.omdoc.org/logics/description/owl/owl2.omdoc?OWL2SUB&#45;&gt;http://latin.omdoc.org/logics/description/owl/owl2.omdoc?OWL2ELRL -->
<g id="edge7" class="edge"><title>http://latin.omdoc.org/logics/description/owl/owl2.omdoc?OWL2SUB&#45;&gt;http://latin.omdoc.org/logics/description/owl/owl2.omdoc?OWL2ELRL</title>
<a class="graphinclude">
<path fill="none" stroke="black" d="M385.616,-73.6382C371.464,-63.9265 352.967,-51.2322 337.364,-40.524"/>
<polygon fill="black" stroke="black" points="339.264,-37.5836 329.039,-34.811 335.304,-43.3553 339.264,-37.5836"/>
</a>
</g>
<!-- http://latin.omdoc.org/logics/description/owl/owl2.omdoc?OWL2QLRL -->
<g id="node9" class="node"><title>http://latin.omdoc.org/logics/description/owl/owl2.omdoc?OWL2QLRL</title>
<a xlink:href="http://latin.omdoc.org/logics/description/owl/owl2.omdoc?OWL2QLRL" class="graphtheory">
<ellipse fill="gray" stroke="black" cx="442" cy="-18" rx="59.1941" ry="18"/>
<text text-anchor="middle" x="442" y="-14.3" font-family="Times New Roman,serif" font-size="14.00">OWL2QLRL</text>
</a>
</g>
<!-- http://latin.omdoc.org/logics/description/owl/owl2.omdoc?OWL2SUB&#45;&gt;http://latin.omdoc.org/logics/description/owl/owl2.omdoc?OWL2QLRL -->
<g id="edge9" class="edge"><title>http://latin.omdoc.org/logics/description/owl/owl2.omdoc?OWL2SUB&#45;&gt;http://latin.omdoc.org/logics/description/owl/owl2.omdoc?OWL2QLRL</title>
<a class="graphinclude">
<path fill="none" stroke="black" d="M416.23,-72.055C420.098,-64.0915 424.8,-54.4107 429.124,-45.5097"/>
<polygon fill="black" stroke="black" points="432.388,-46.7996 433.609,-36.2753 426.092,-43.7412 432.388,-46.7996"/>
</a>
</g>
<!-- http://latin.omdoc.org/logics/description/owl/owl2.omdoc?OWL2RL -->
<g id="node11" class="node"><title>http://latin.omdoc.org/logics/description/owl/owl2.omdoc?OWL2RL</title>
<a xlink:href="http://latin.omdoc.org/logics/description/owl/owl2.omdoc?OWL2RL" class="graphtheory">
<ellipse fill="gray" stroke="black" cx="568" cy="-18" rx="48.1437" ry="18"/>
<text text-anchor="middle" x="568" y="-14.3" font-family="Times New Roman,serif" font-size="14.00">OWL2RL</text>
</a>
</g>
<!-- http://latin.omdoc.org/logics/description/owl/owl2.omdoc?OWL2SUB&#45;&gt;http://latin.omdoc.org/logics/description/owl/owl2.omdoc?OWL2RL -->
<g id="edge11" class="edge"><title>http://latin.omdoc.org/logics/description/owl/owl2.omdoc?OWL2SUB&#45;&gt;http://latin.omdoc.org/logics/description/owl/owl2.omdoc?OWL2RL</title>
<a class="graphinclude">
<path fill="none" stroke="black" d="M439.356,-75.2379C447.69,-71.5828 456.685,-67.6399 465,-64 485.951,-54.8288 509.307,-44.6234 528.474,-36.2529"/>
<polygon fill="black" stroke="black" points="530.035,-39.3906 537.798,-32.1813 527.233,-32.9755 530.035,-39.3906"/>
</a>
</g>
<!-- http://latin.omdoc.org/logics/description/owl/owl2.omdoc?OWL2QL -->
<g id="node13" class="node"><title>http://latin.omdoc.org/logics/description/owl/owl2.omdoc?OWL2QL</title>
<a xlink:href="http://latin.omdoc.org/logics/description/owl/owl2.omdoc?OWL2QL" class="graphtheory">
<ellipse fill="gray" stroke="black" cx="682" cy="-18" rx="48.1437" ry="18"/>
<text text-anchor="middle" x="682" y="-14.3" font-family="Times New Roman,serif" font-size="14.00">OWL2QL</text>
</a>
</g>
<!-- http://latin.omdoc.org/logics/description/owl/owl2.omdoc?OWL2SUB&#45;&gt;http://latin.omdoc.org/logics/description/owl/owl2.omdoc?OWL2QL -->
<g id="edge13" class="edge"><title>http://latin.omdoc.org/logics/description/owl/owl2.omdoc?OWL2SUB&#45;&gt;http://latin.omdoc.org/logics/description/owl/owl2.omdoc?OWL2QL</title>
<a class="graphinclude">
<path fill="none" stroke="black" d="M436.782,-74.7739C445.663,-70.8235 455.587,-66.8428 465,-64 534.109,-43.1293 554.735,-52.5668 625,-36 628.848,-35.0928 632.819,-34.0768 636.791,-33.0048"/>
<polygon fill="black" stroke="black" points="637.914,-36.3252 646.597,-30.2549 636.023,-29.5853 637.914,-36.3252"/>
</a>
</g>
<!-- http://latin.omdoc.org/logics/description/owl/owl.omdoc?OWLBase -->
<g id="node15" class="node"><title>http://latin.omdoc.org/logics/description/owl/owl.omdoc?OWLBase</title>
<a xlink:href="http://latin.omdoc.org/logics/description/owl/owl.omdoc?OWLBase" class="graphtheory">
<ellipse fill="gray" stroke="black" cx="272" cy="-162" rx="49.0941" ry="18"/>
<text text-anchor="middle" x="272" y="-158.3" font-family="Times New Roman,serif" font-size="14.00">OWLBase</text>
</a>
</g>
<!-- http://latin.omdoc.org/logics/description/owl/owl.omdoc?OWLBase&#45;&gt;http://latin.omdoc.org/logics/description/owl/owl2.omdoc?OWL2SUB -->
<g id="edge15" class="edge"><title>http://latin.omdoc.org/logics/description/owl/owl.omdoc?OWLBase&#45;&gt;http://latin.omdoc.org/logics/description/owl/owl2.omdoc?OWL2SUB</title>
<a class="graphinclude">
<path fill="none" stroke="black" d="M299.522,-146.834C320.123,-136.231 348.519,-121.615 371.09,-109.998"/>
<polygon fill="black" stroke="black" points="372.763,-113.073 380.053,-105.385 369.559,-106.849 372.763,-113.073"/>
</a>
</g>
<!-- http://latin.omdoc.org/logics/description/owl/owl2.omdoc?OWL2Datatype -->
<g id="node17" class="node"><title>http://latin.omdoc.org/logics/description/owl/owl2.omdoc?OWL2Datatype</title>
<a xlink:href="http://latin.omdoc.org/logics/description/owl/owl2.omdoc?OWL2Datatype" class="graphtheory">
<ellipse fill="gray" stroke="black" cx="408" cy="-162" rx="68.3664" ry="18"/>
<text text-anchor="middle" x="408" y="-158.3" font-family="Times New Roman,serif" font-size="14.00">OWL2Datatype</text>
</a>
</g>
<!-- http://latin.omdoc.org/logics/description/owl/owl2.omdoc?OWL2Datatype&#45;&gt;http://latin.omdoc.org/logics/description/owl/owl2.omdoc?OWL2SUB -->
<g id="edge17" class="edge"><title>http://latin.omdoc.org/logics/description/owl/owl2.omdoc?OWL2Datatype&#45;&gt;http://latin.omdoc.org/logics/description/owl/owl2.omdoc?OWL2SUB</title>
<a class="graphinclude">
<path fill="none" stroke="black" d="M408,-143.697C408,-135.983 408,-126.712 408,-118.112"/>
<polygon fill="black" stroke="black" points="411.5,-118.104 408,-108.104 404.5,-118.104 411.5,-118.104"/>
</a>
</g>
<!-- http://cds.omdoc.org/urtheories?LF -->
<g id="node19" class="node"><title>http://cds.omdoc.org/urtheories?LF</title>
<a xlink:href="http://cds.omdoc.org/urtheories?LF" class="graphtheory">
<ellipse fill="gray" stroke="black" cx="408" cy="-234" rx="27" ry="18"/>
<text text-anchor="middle" x="408" y="-230.3" font-family="Times New Roman,serif" font-size="14.00">LF</text>
</a>
</g>
<!-- http://cds.omdoc.org/urtheories?LF&#45;&gt;http://latin.omdoc.org/logics/description/owl/owl2.omdoc?OWL2SUB -->
<g id="edge19" class="edge"><title>http://cds.omdoc.org/urtheories?LF&#45;&gt;http://latin.omdoc.org/logics/description/owl/owl2.omdoc?OWL2SUB</title>
<a class="graphmeta">
<path fill="none" stroke="black" d="M430.846,-224.347C449.184,-216.04 473.673,-201.547 485,-180 492.445,-165.838 492.445,-158.162 485,-144 477.257,-129.27 463.363,-117.837 449.488,-109.423"/>
<polygon fill="black" stroke="black" points="450.869,-106.184 440.438,-104.326 447.433,-112.283 450.869,-106.184"/>
</a>
</g>
<!-- http://cds.omdoc.org/urtheories?LF&#45;&gt;http://latin.omdoc.org/logics/description/owl/owl2.omdoc?OWL2EL -->
<g id="edge23" class="edge"><title>http://cds.omdoc.org/urtheories?LF&#45;&gt;http://latin.omdoc.org/logics/description/owl/owl2.omdoc?OWL2EL</title>
<a class="graphmeta">
<path fill="none" stroke="black" d="M381.041,-232.514C335.271,-230.525 240.924,-221.283 175,-180 120.662,-145.972 79.242,-80.8136 59.2422,-44.6969"/>
<polygon fill="black" stroke="black" points="62.2389,-42.8806 54.3998,-35.7533 56.0833,-46.2135 62.2389,-42.8806"/>
</a>
</g>
<!-- http://cds.omdoc.org/urtheories?LF&#45;&gt;http://latin.omdoc.org/logics/description/owl/owl2.omdoc?OWL2ELQL -->
<g id="edge35" class="edge"><title>http://cds.omdoc.org/urtheories?LF&#45;&gt;http://latin.omdoc.org/logics/description/owl/owl2.omdoc?OWL2ELQL</title>
<a class="graphmeta">
<path fill="none" stroke="black" d="M381.657,-229.822C331.42,-223.215 224.712,-206.38 200,-180 166.002,-143.707 164.457,-81.8518 166.889,-46.3058"/>
<polygon fill="black" stroke="black" points="170.391,-46.4343 167.74,-36.1763 163.415,-45.8481 170.391,-46.4343"/>
</a>
</g>
<!-- http://cds.omdoc.org/urtheories?LF&#45;&gt;http://latin.omdoc.org/logics/description/owl/owl2.omdoc?OWL2ELRL -->
<g id="edge29" class="edge"><title>http://cds.omdoc.org/urtheories?LF&#45;&gt;http://latin.omdoc.org/logics/description/owl/owl2.omdoc?OWL2ELRL</title>
<a class="graphmeta">
<path fill="none" stroke="black" d="M381.501,-229.714C333.295,-223.133 234.34,-206.642 214,-180 178.983,-134.133 238.109,-73.5637 276.708,-41.3684"/>
<polygon fill="black" stroke="black" points="279.051,-43.9746 284.592,-34.9445 274.629,-38.5479 279.051,-43.9746"/>
</a>
</g>
<!-- http://cds.omdoc.org/urtheories?LF&#45;&gt;http://latin.omdoc.org/logics/description/owl/owl2.omdoc?OWL2QLRL -->
<g id="edge21" class="edge"><title>http://cds.omdoc.org/urtheories?LF&#45;&gt;http://latin.omdoc.org/logics/description/owl/owl2.omdoc?OWL2QLRL</title>
<a class="graphmeta">
<path fill="none" stroke="black" d="M433.076,-226.609C455.577,-219.396 487.258,-205.236 502,-180 528.354,-134.886 490.557,-76.1365 464.056,-43.53"/>
<polygon fill="black" stroke="black" points="466.711,-41.2487 457.608,-35.8277 461.344,-45.7421 466.711,-41.2487"/>
</a>
</g>
<!-- http://cds.omdoc.org/urtheories?LF&#45;&gt;http://latin.omdoc.org/logics/description/owl/owl2.omdoc?OWL2RL -->
<g id="edge25" class="edge"><title>http://cds.omdoc.org/urtheories?LF&#45;&gt;http://latin.omdoc.org/logics/description/owl/owl2.omdoc?OWL2RL</title>
<a class="graphmeta">
<path fill="none" stroke="black" d="M433.283,-227.595C458.982,-220.805 498.168,-206.664 521,-180 553.812,-141.682 563.738,-81.4895 566.727,-46.5801"/>
<polygon fill="black" stroke="black" points="570.248,-46.4193 567.474,-36.194 563.266,-45.9171 570.248,-46.4193"/>
</a>
</g>
<!-- http://cds.omdoc.org/urtheories?LF&#45;&gt;http://latin.omdoc.org/logics/description/owl/owl2.omdoc?OWL2QL -->
<g id="edge27" class="edge"><title>http://cds.omdoc.org/urtheories?LF&#45;&gt;http://latin.omdoc.org/logics/description/owl/owl2.omdoc?OWL2QL</title>
<a class="graphmeta">
<path fill="none" stroke="black" d="M433.19,-227.503C462.546,-220.213 511.547,-205.237 547,-180 599.649,-142.521 644.083,-79.8068 666.457,-44.7364"/>
<polygon fill="black" stroke="black" points="669.567,-46.3655 671.917,-36.0346 663.637,-42.6452 669.567,-46.3655"/>
</a>
</g>
<!-- http://cds.omdoc.org/urtheories?LF&#45;&gt;http://latin.omdoc.org/logics/description/owl/owl.omdoc?OWLBase -->
<g id="edge33" class="edge"><title>http://cds.omdoc.org/urtheories?LF&#45;&gt;http://latin.omdoc.org/logics/description/owl/owl.omdoc?OWLBase</title>
<a class="graphmeta">
<path fill="none" stroke="black" d="M387.345,-222.369C366.432,-211.604 333.658,-194.736 308.382,-181.726"/>
<polygon fill="black" stroke="black" points="309.938,-178.591 299.445,-177.126 306.735,-184.815 309.938,-178.591"/>
</a>
</g>
<!-- http://cds.omdoc.org/urtheories?LF&#45;&gt;http://latin.omdoc.org/logics/description/owl/owl2.omdoc?OWL2Datatype -->
<g id="edge31" class="edge"><title>http://cds.omdoc.org/urtheories?LF&#45;&gt;http://latin.omdoc.org/logics/description/owl/owl2.omdoc?OWL2Datatype</title>
<a class="graphmeta">
<path fill="none" stroke="black" d="M408,-215.697C408,-207.983 408,-198.712 408,-190.112"/>
<polygon fill="black" stroke="black" points="411.5,-190.104 408,-180.104 404.5,-190.104 411.5,-190.104"/>
</a>
</g>
</g>
</svg>
