<?xml version="1.0" encoding="UTF-8" standalone="no"?>
<!DOCTYPE svg PUBLIC "-//W3C//DTD SVG 1.1//EN"
 "http://www.w3.org/Graphics/SVG/1.1/DTD/svg11.dtd">
<!-- Generated by graphviz version 2.28.0 (20110507.0327)
 -->
<!-- Title: MMT Pages: 1 -->
<svg width="168pt" height="260pt"
 viewBox="0.00 0.00 168.01 260.00" xmlns="http://www.w3.org/2000/svg" xmlns:xlink="http://www.w3.org/1999/xlink">
<g id="graph1" class="graph" transform="scale(1 1) rotate(0) translate(4 256)">
<title>MMT</title>
<polygon fill="white" stroke="white" points="-4,5 -4,-256 165.008,-256 165.008,5 -4,5"/>
<g id="graph2" class="cluster"><title>cluster_local</title>
<polygon fill="none" stroke="black" points="8,-64 8,-116 144,-116 144,-64 8,-64"/>
</g>
<!-- http://latin.omdoc.org/logics/description/owl/owl2.omdoc?OWL2QLRL -->
<g id="node2" class="node"><title>http://latin.omdoc.org/logics/description/owl/owl2.omdoc?OWL2QLRL</title>
<a xlink:href="http://latin.omdoc.org/logics/description/owl/owl2.omdoc?OWL2QLRL" class="graphtheory">
<ellipse fill="none" stroke="black" cx="76" cy="-90" rx="59.1941" ry="18"/>
<text text-anchor="middle" x="76" y="-86.3" font-family="Times New Roman,serif" font-size="14.00">OWL2QLRL</text>
</a>
</g>
<!-- http://latin.omdoc.org/logics/description/owl/owl2.omdoc?OWL2 -->
<g id="node3" class="node"><title>http://latin.omdoc.org/logics/description/owl/owl2.omdoc?OWL2</title>
<a xlink:href="http://latin.omdoc.org/logics/description/owl/owl2.omdoc?OWL2" class="graphtheory">
<ellipse fill="gray" stroke="black" cx="120" cy="-18" rx="36.096" ry="18"/>
<text text-anchor="middle" x="120" y="-14.3" font-family="Times New Roman,serif" font-size="14.00">OWL2</text>
</a>
</g>
<!-- http://latin.omdoc.org/logics/description/owl/owl2.omdoc?OWL2QLRL&#45;&gt;http://latin.omdoc.org/logics/description/owl/owl2.omdoc?OWL2 -->
<g id="edge3" class="edge"><title>http://latin.omdoc.org/logics/description/owl/owl2.omdoc?OWL2QLRL&#45;&gt;http://latin.omdoc.org/logics/description/owl/owl2.omdoc?OWL2</title>
<a class="graphinclude">
<path fill="none" stroke="black" d="M86.6512,-72.055C91.9707,-63.592 98.5093,-53.1897 104.383,-43.8447"/>
<polygon fill="black" stroke="black" points="107.391,-45.636 109.75,-35.307 101.465,-41.9108 107.391,-45.636"/>
</a>
</g>
<!-- http://latin.omdoc.org/logics/description/owl/owl2.omdoc?OWL2SUB -->
<g id="node5" class="node"><title>http://latin.omdoc.org/logics/description/owl/owl2.omdoc?OWL2SUB</title>
<a xlink:href="http://latin.omdoc.org/logics/description/owl/owl2.omdoc?OWL2SUB" class="graphtheory">
<ellipse fill="gray" stroke="black" cx="82" cy="-162" rx="53.4184" ry="18"/>
<text text-anchor="middle" x="82" y="-158.3" font-family="Times New Roman,serif" font-size="14.00">OWL2SUB</text>
</a>
</g>
<!-- http://latin.omdoc.org/logics/description/owl/owl2.omdoc?OWL2SUB&#45;&gt;http://latin.omdoc.org/logics/description/owl/owl2.omdoc?OWL2QLRL -->
<g id="edge5" class="edge"><title>http://latin.omdoc.org/logics/description/owl/owl2.omdoc?OWL2SUB&#45;&gt;http://latin.omdoc.org/logics/description/owl/owl2.omdoc?OWL2QLRL</title>
<a class="graphinclude">
<path fill="none" stroke="black" d="M80.5169,-143.697C79.8557,-135.983 79.0611,-126.712 78.3239,-118.112"/>
<polygon fill="black" stroke="black" points="81.8074,-117.769 77.4661,-108.104 74.833,-118.367 81.8074,-117.769"/>
</a>
</g>
<!-- http://cds.omdoc.org/urtheories?LF -->
<g id="node7" class="node"><title>http://cds.omdoc.org/urtheories?LF</title>
<a xlink:href="http://cds.omdoc.org/urtheories?LF" class="graphtheory">
<ellipse fill="gray" stroke="black" cx="82" cy="-234" rx="27" ry="18"/>
<text text-anchor="middle" x="82" y="-230.3" font-family="Times New Roman,serif" font-size="14.00">LF</text>
</a>
</g>
<!-- http://cds.omdoc.org/urtheories?LF&#45;&gt;http://latin.omdoc.org/logics/description/owl/owl2.omdoc?OWL2QLRL -->
<g id="edge7" class="edge"><title>http://cds.omdoc.org/urtheories?LF&#45;&gt;http://latin.omdoc.org/logics/description/owl/owl2.omdoc?OWL2QLRL</title>
<a class="graphmeta">
<path fill="none" stroke="black" d="M61.3635,-222.157C46.5343,-213.096 27.6865,-198.659 19,-180 12.2473,-165.495 12.6094,-158.668 19,-144 24.2807,-131.879 33.8513,-121.281 43.6612,-112.813"/>
<polygon fill="black" stroke="black" points="45.9152,-115.491 51.5024,-106.49 41.521,-110.042 45.9152,-115.491"/>
</a>
</g>
<!-- http://cds.omdoc.org/urtheories?LF&#45;&gt;http://latin.omdoc.org/logics/description/owl/owl2.omdoc?OWL2 -->
<g id="edge11" class="edge"><title>http://cds.omdoc.org/urtheories?LF&#45;&gt;http://latin.omdoc.org/logics/description/owl/owl2.omdoc?OWL2</title>
<a class="graphmeta">
<path fill="none" stroke="black" d="M102.29,-221.727C116.671,-212.532 134.956,-198.118 144,-180 167.038,-133.844 162.172,-113.601 148,-64 145.996,-56.9857 142.548,-50 138.742,-43.698"/>
<polygon fill="black" stroke="black" points="141.458,-41.459 133.037,-35.0302 135.611,-45.3076 141.458,-41.459"/>
</a>
</g>
<!-- http://cds.omdoc.org/urtheories?LF&#45;&gt;http://latin.omdoc.org/logics/description/owl/owl2.omdoc?OWL2SUB -->
<g id="edge9" class="edge"><title>http://cds.omdoc.org/urtheories?LF&#45;&gt;http://latin.omdoc.org/logics/description/owl/owl2.omdoc?OWL2SUB</title>
<a class="graphmeta">
<path fill="none" stroke="black" d="M82,-215.697C82,-207.983 82,-198.712 82,-190.112"/>
<polygon fill="black" stroke="black" points="85.5001,-190.104 82,-180.104 78.5001,-190.104 85.5001,-190.104"/>
</a>
</g>
</g>
</svg>
