<?xml version="1.0" encoding="UTF-8" standalone="no"?>
<!DOCTYPE svg PUBLIC "-//W3C//DTD SVG 1.1//EN"
 "http://www.w3.org/Graphics/SVG/1.1/DTD/svg11.dtd">
<!-- Generated by graphviz version 2.28.0 (20110507.0327)
 -->
<!-- Title: MMT Pages: 1 -->
<svg width="153pt" height="260pt"
 viewBox="0.00 0.00 153.06 260.00" xmlns="http://www.w3.org/2000/svg" xmlns:xlink="http://www.w3.org/1999/xlink">
<g id="graph1" class="graph" transform="scale(1 1) rotate(0) translate(4 256)">
<title>MMT</title>
<polygon fill="white" stroke="white" points="-4,5 -4,-256 150.065,-256 150.065,5 -4,5"/>
<g id="graph2" class="cluster"><title>cluster_local</title>
<polygon fill="none" stroke="black" points="13.0645,-64 13.0645,-116 123.065,-116 123.065,-64 13.0645,-64"/>
</g>
<!-- http://latin.omdoc.org/logics/description/owl/owl2.omdoc?OWL2EL -->
<g id="node2" class="node"><title>http://latin.omdoc.org/logics/description/owl/owl2.omdoc?OWL2EL</title>
<a xlink:href="http://latin.omdoc.org/logics/description/owl/owl2.omdoc?OWL2EL" class="graphtheory">
<ellipse fill="none" stroke="black" cx="68.0645" cy="-90" rx="46.1964" ry="18"/>
<text text-anchor="middle" x="68.0645" y="-86.3" font-family="Times New Roman,serif" font-size="14.00">OWL2EL</text>
</a>
</g>
<!-- http://latin.omdoc.org/logics/description/owl/owl2.omdoc?OWL2 -->
<g id="node3" class="node"><title>http://latin.omdoc.org/logics/description/owl/owl2.omdoc?OWL2</title>
<a xlink:href="http://latin.omdoc.org/logics/description/owl/owl2.omdoc?OWL2" class="graphtheory">
<ellipse fill="gray" stroke="black" cx="109.065" cy="-18" rx="36.096" ry="18"/>
<text text-anchor="middle" x="109.065" y="-14.3" font-family="Times New Roman,serif" font-size="14.00">OWL2</text>
</a>
</g>
<!-- http://latin.omdoc.org/logics/description/owl/owl2.omdoc?OWL2EL&#45;&gt;http://latin.omdoc.org/logics/description/owl/owl2.omdoc?OWL2 -->
<g id="edge3" class="edge"><title>http://latin.omdoc.org/logics/description/owl/owl2.omdoc?OWL2EL&#45;&gt;http://latin.omdoc.org/logics/description/owl/owl2.omdoc?OWL2</title>
<a class="graphinclude">
<path fill="none" stroke="black" d="M77.9895,-72.055C82.8241,-63.8006 88.7394,-53.7014 94.1067,-44.5378"/>
<polygon fill="black" stroke="black" points="97.197,-46.1868 99.2309,-35.789 91.1568,-42.6489 97.197,-46.1868"/>
</a>
</g>
<!-- http://latin.omdoc.org/logics/description/owl/owl2.omdoc?OWL2SUB -->
<g id="node5" class="node"><title>http://latin.omdoc.org/logics/description/owl/owl2.omdoc?OWL2SUB</title>
<a xlink:href="http://latin.omdoc.org/logics/description/owl/owl2.omdoc?OWL2SUB" class="graphtheory">
<ellipse fill="gray" stroke="black" cx="68.0645" cy="-162" rx="53.4184" ry="18"/>
<text text-anchor="middle" x="68.0645" y="-158.3" font-family="Times New Roman,serif" font-size="14.00">OWL2SUB</text>
</a>
</g>
<!-- http://latin.omdoc.org/logics/description/owl/owl2.omdoc?OWL2SUB&#45;&gt;http://latin.omdoc.org/logics/description/owl/owl2.omdoc?OWL2EL -->
<g id="edge5" class="edge"><title>http://latin.omdoc.org/logics/description/owl/owl2.omdoc?OWL2SUB&#45;&gt;http://latin.omdoc.org/logics/description/owl/owl2.omdoc?OWL2EL</title>
<a class="graphinclude">
<path fill="none" stroke="black" d="M68.0645,-143.697C68.0645,-135.983 68.0645,-126.712 68.0645,-118.112"/>
<polygon fill="black" stroke="black" points="71.5646,-118.104 68.0645,-108.104 64.5646,-118.104 71.5646,-118.104"/>
</a>
</g>
<!-- http://cds.omdoc.org/urtheories?LF -->
<g id="node7" class="node"><title>http://cds.omdoc.org/urtheories?LF</title>
<a xlink:href="http://cds.omdoc.org/urtheories?LF" class="graphtheory">
<ellipse fill="gray" stroke="black" cx="68.0645" cy="-234" rx="27" ry="18"/>
<text text-anchor="middle" x="68.0645" y="-230.3" font-family="Times New Roman,serif" font-size="14.00">LF</text>
</a>
</g>
<!-- http://cds.omdoc.org/urtheories?LF&#45;&gt;http://latin.omdoc.org/logics/description/owl/owl2.omdoc?OWL2EL -->
<g id="edge7" class="edge"><title>http://cds.omdoc.org/urtheories?LF&#45;&gt;http://latin.omdoc.org/logics/description/owl/owl2.omdoc?OWL2EL</title>
<a class="graphmeta">
<path fill="none" stroke="black" d="M47.428,-222.157C32.5988,-213.096 13.751,-198.659 5.0645,-180 -1.68817,-165.495 -1.68817,-158.505 5.0645,-144 11.2778,-130.653 22.6898,-119.467 34.1114,-110.863"/>
<polygon fill="black" stroke="black" points="36.1925,-113.678 42.3555,-105.06 32.1635,-107.954 36.1925,-113.678"/>
</a>
</g>
<!-- http://cds.omdoc.org/urtheories?LF&#45;&gt;http://latin.omdoc.org/logics/description/owl/owl2.omdoc?OWL2 -->
<g id="edge11" class="edge"><title>http://cds.omdoc.org/urtheories?LF&#45;&gt;http://latin.omdoc.org/logics/description/owl/owl2.omdoc?OWL2</title>
<a class="graphmeta">
<path fill="none" stroke="black" d="M88.3824,-222.078C102.981,-212.975 121.531,-198.52 130.065,-180 150.375,-135.917 133.863,-78.2989 120.874,-45.2961"/>
<polygon fill="black" stroke="black" points="124.044,-43.8014 117.001,-35.8864 117.571,-46.4659 124.044,-43.8014"/>
</a>
</g>
<!-- http://cds.omdoc.org/urtheories?LF&#45;&gt;http://latin.omdoc.org/logics/description/owl/owl2.omdoc?OWL2SUB -->
<g id="edge9" class="edge"><title>http://cds.omdoc.org/urtheories?LF&#45;&gt;http://latin.omdoc.org/logics/description/owl/owl2.omdoc?OWL2SUB</title>
<a class="graphmeta">
<path fill="none" stroke="black" d="M68.0645,-215.697C68.0645,-207.983 68.0645,-198.712 68.0645,-190.112"/>
<polygon fill="black" stroke="black" points="71.5646,-190.104 68.0645,-180.104 64.5646,-190.104 71.5646,-190.104"/>
</a>
</g>
</g>
</svg>
