<?xml version="1.0" encoding="UTF-8" standalone="no"?>
<!DOCTYPE svg PUBLIC "-//W3C//DTD SVG 1.1//EN"
 "http://www.w3.org/Graphics/SVG/1.1/DTD/svg11.dtd">
<!-- Generated by graphviz version 2.28.0 (20110507.0327)
 -->
<!-- Title: MMT Pages: 1 -->
<svg
 viewBox="0.00 0.00 945.00 384.00" xmlns="http://www.w3.org/2000/svg" xmlns:xlink="http://www.w3.org/1999/xlink">
<g id="graph1" class="graph" transform="scale(1 1) rotate(0) translate(4 380)">
<title>MMT</title>
<polygon fill="white" stroke="white" points="-4,5 -4,-380 942,-380 942,5 -4,5"/>
<g id="graph2" class="cluster"><title>cluster_local</title>
<polygon fill="none" stroke="black" points="356,-8 356,-60 444,-60 444,-8 356,-8"/>
</g>
<!-- http://latin.omdoc.org/logics/description/owl/owl2.omdoc?OWL2 -->
<g id="node2" class="node"><title>http://latin.omdoc.org/logics/description/owl/owl2.omdoc?OWL2</title>
<a xlink:href="http://latin.omdoc.org/logics/description/owl/owl2.omdoc?OWL2" class="graphtheory">
<ellipse fill="none" stroke="black" cx="400" cy="-34" rx="36.096" ry="18"/>
<text text-anchor="middle" x="400" y="-30.3" font-family="Times New Roman,serif" font-size="14.00">OWL2</text>
</a>
</g>
<!-- http://latin.omdoc.org/logics/syntax?FLminus -->
<g id="node3" class="node"><title>http://latin.omdoc.org/logics/syntax?FLminus</title>
<a xlink:href="http://latin.omdoc.org/logics/syntax?FLminus" class="graphtheory">
<ellipse fill="gray" stroke="black" cx="71" cy="-122" rx="42.3456" ry="18"/>
<text text-anchor="middle" x="71" y="-118.3" font-family="Times New Roman,serif" font-size="14.00">FLminus</text>
</a>
</g>
<!-- http://latin.omdoc.org/logics/syntax?FLminus&#45;&gt;http://latin.omdoc.org/logics/description/owl/owl2.omdoc?OWL2 -->
<g id="edge3" class="edge"><title>http://latin.omdoc.org/logics/syntax?FLminus&#45;&gt;http://latin.omdoc.org/logics/description/owl/owl2.omdoc?OWL2</title>
<a xlink:href="http://latin.omdoc.org/logics/description/owl/owl2.omdoc?FLminustoOWL2" class="graphview">
<path fill="none" stroke="black" d="M57.989,-104.572C50.9779,-93.6282 45.3631,-79.5546 54,-70 73.7402,-48.1622 264.215,-39.2843 353.827,-36.2942"/>
<polygon fill="black" stroke="black" points="354.099,-39.7873 363.98,-35.9662 353.873,-32.791 354.099,-39.7873"/>
</a>
<a xlink:href="http://latin.omdoc.org/logics/description/owl/owl2.omdoc?FLminustoOWL2" class="FLminustoOWL2">
<text text-anchor="middle" x="104" y="-74.3" font-family="Times New Roman,serif" font-size="14.00">FLminustoOWL2</text>
</a>
</g>
<!-- http://latin.omdoc.org/logics/syntax?FL0 -->
<g id="node5" class="node"><title>http://latin.omdoc.org/logics/syntax?FL0</title>
<a xlink:href="http://latin.omdoc.org/logics/syntax?FL0" class="graphtheory">
<ellipse fill="gray" stroke="black" cx="117" cy="-210" rx="27" ry="18"/>
<text text-anchor="middle" x="117" y="-206.3" font-family="Times New Roman,serif" font-size="14.00">FL0</text>
</a>
</g>
<!-- http://latin.omdoc.org/logics/syntax?FL0&#45;&gt;http://latin.omdoc.org/logics/description/owl/owl2.omdoc?OWL2 -->
<g id="edge5" class="edge"><title>http://latin.omdoc.org/logics/syntax?FL0&#45;&gt;http://latin.omdoc.org/logics/description/owl/owl2.omdoc?OWL2</title>
<a xlink:href="http://latin.omdoc.org/logics/description/owl/owl2.omdoc?FL0toOWL2" class="graphview">
<path fill="none" stroke="black" d="M123.625,-192.352C133.375,-169.701 153.561,-129.124 182,-104 230.643,-61.0264 306.077,-44.7996 354.238,-38.6838"/>
<polygon fill="black" stroke="black" points="354.853,-42.1357 364.377,-37.4943 354.037,-35.1833 354.853,-42.1357"/>
</a>
<a xlink:href="http://latin.omdoc.org/logics/description/owl/owl2.omdoc?FL0toOWL2" class="FL0toOWL2">
<text text-anchor="middle" x="219" y="-118.3" font-family="Times New Roman,serif" font-size="14.00">FL0toOWL2</text>
</a>
</g>
<!-- http://latin.omdoc.org/logics/syntax?FL0&#45;&gt;http://latin.omdoc.org/logics/syntax?FLminus -->
<g id="edge43" class="edge"><title>http://latin.omdoc.org/logics/syntax?FL0&#45;&gt;http://latin.omdoc.org/logics/syntax?FLminus</title>
<a class="graphinclude">
<path fill="none" stroke="black" d="M108.348,-192.824C101.687,-180.371 92.3528,-162.921 84.6826,-148.58"/>
<polygon fill="black" stroke="black" points="87.73,-146.857 79.9272,-139.69 81.5575,-150.159 87.73,-146.857"/>
</a>
</g>
<!-- http://latin.omdoc.org/logics/syntax?DLBase -->
<g id="node7" class="node"><title>http://latin.omdoc.org/logics/syntax?DLBase</title>
<a xlink:href="http://latin.omdoc.org/logics/syntax?DLBase" class="graphtheory">
<ellipse fill="gray" stroke="black" cx="144" cy="-284" rx="39.9464" ry="18"/>
<text text-anchor="middle" x="144" y="-280.3" font-family="Times New Roman,serif" font-size="14.00">DLBase</text>
</a>
</g>
<!-- http://latin.omdoc.org/logics/syntax?DLBase&#45;&gt;http://latin.omdoc.org/logics/description/owl/owl2.omdoc?OWL2 -->
<g id="edge7" class="edge"><title>http://latin.omdoc.org/logics/syntax?DLBase&#45;&gt;http://latin.omdoc.org/logics/description/owl/owl2.omdoc?OWL2</title>
<a xlink:href="http://latin.omdoc.org/logics/description/owl/owl2.omdoc?DLBasetoOWL2" class="graphview">
<path fill="none" stroke="black" d="M159.298,-266.977C182.33,-242.962 227.435,-196.358 267,-158 304.199,-121.935 348.598,-81.3518 375.526,-56.9998"/>
<polygon fill="black" stroke="black" points="377.889,-59.5818 382.966,-50.2827 373.198,-54.3861 377.889,-59.5818"/>
</a>
<a xlink:href="http://latin.omdoc.org/logics/description/owl/owl2.omdoc?DLBasetoOWL2" class="DLBasetoOWL2">
<text text-anchor="middle" x="315" y="-162.3" font-family="Times New Roman,serif" font-size="14.00">DLBasetoOWL2</text>
</a>
</g>
<!-- http://latin.omdoc.org/logics/syntax?DLBase&#45;&gt;http://latin.omdoc.org/logics/syntax?FL0 -->
<g id="edge41" class="edge"><title>http://latin.omdoc.org/logics/syntax?DLBase&#45;&gt;http://latin.omdoc.org/logics/syntax?FL0</title>
<a class="graphinclude">
<path fill="none" stroke="black" d="M137.601,-265.937C134.407,-257.419 130.471,-246.923 126.898,-237.395"/>
<polygon fill="black" stroke="black" points="130.141,-236.075 123.353,-227.941 123.587,-238.533 130.141,-236.075"/>
</a>
</g>
<!-- http://latin.omdoc.org/logics/description/owl/owl2.omdoc?OWL2EL -->
<g id="node9" class="node"><title>http://latin.omdoc.org/logics/description/owl/owl2.omdoc?OWL2EL</title>
<a xlink:href="http://latin.omdoc.org/logics/description/owl/owl2.omdoc?OWL2EL" class="graphtheory">
<ellipse fill="gray" stroke="black" cx="249" cy="-284" rx="46.1964" ry="18"/>
<text text-anchor="middle" x="249" y="-280.3" font-family="Times New Roman,serif" font-size="14.00">OWL2EL</text>
</a>
</g>
<!-- http://latin.omdoc.org/logics/description/owl/owl2.omdoc?OWL2EL&#45;&gt;http://latin.omdoc.org/logics/description/owl/owl2.omdoc?OWL2 -->
<g id="edge9" class="edge"><title>http://latin.omdoc.org/logics/description/owl/owl2.omdoc?OWL2EL&#45;&gt;http://latin.omdoc.org/logics/description/owl/owl2.omdoc?OWL2</title>
<a class="graphinclude">
<path fill="none" stroke="black" d="M271.902,-268.219C298.887,-249.566 343.071,-214.929 367,-174 387.536,-138.876 395.303,-91.6906 398.234,-62.3243"/>
<polygon fill="black" stroke="black" points="401.752,-62.2711 399.137,-52.0041 394.779,-61.6609 401.752,-62.2711"/>
</a>
</g>
<!-- http://latin.omdoc.org/logics/description/owl/owl2.omdoc?OWL2ELQL -->
<g id="node11" class="node"><title>http://latin.omdoc.org/logics/description/owl/owl2.omdoc?OWL2ELQL</title>
<a xlink:href="http://latin.omdoc.org/logics/description/owl/owl2.omdoc?OWL2ELQL" class="graphtheory">
<ellipse fill="gray" stroke="black" cx="373" cy="-284" rx="59.2173" ry="18"/>
<text text-anchor="middle" x="373" y="-280.3" font-family="Times New Roman,serif" font-size="14.00">OWL2ELQL</text>
</a>
</g>
<!-- http://latin.omdoc.org/logics/description/owl/owl2.omdoc?OWL2ELQL&#45;&gt;http://latin.omdoc.org/logics/description/owl/owl2.omdoc?OWL2 -->
<g id="edge11" class="edge"><title>http://latin.omdoc.org/logics/description/owl/owl2.omdoc?OWL2ELQL&#45;&gt;http://latin.omdoc.org/logics/description/owl/owl2.omdoc?OWL2</title>
<a class="graphinclude">
<path fill="none" stroke="black" d="M386.176,-266.097C389.721,-260.621 393.097,-254.323 395,-248 414.374,-183.621 408.758,-103.288 403.871,-62.1086"/>
<polygon fill="black" stroke="black" points="407.325,-61.5273 402.596,-52.0463 400.381,-62.4068 407.325,-61.5273"/>
</a>
</g>
<!-- http://latin.omdoc.org/logics/description/owl/owl2.omdoc?OWL2ELRL -->
<g id="node13" class="node"><title>http://latin.omdoc.org/logics/description/owl/owl2.omdoc?OWL2ELRL</title>
<a xlink:href="http://latin.omdoc.org/logics/description/owl/owl2.omdoc?OWL2ELRL" class="graphtheory">
<ellipse fill="gray" stroke="black" cx="509" cy="-284" rx="58.2422" ry="18"/>
<text text-anchor="middle" x="509" y="-280.3" font-family="Times New Roman,serif" font-size="14.00">OWL2ELRL</text>
</a>
</g>
<!-- http://latin.omdoc.org/logics/description/owl/owl2.omdoc?OWL2ELRL&#45;&gt;http://latin.omdoc.org/logics/description/owl/owl2.omdoc?OWL2 -->
<g id="edge13" class="edge"><title>http://latin.omdoc.org/logics/description/owl/owl2.omdoc?OWL2ELRL&#45;&gt;http://latin.omdoc.org/logics/description/owl/owl2.omdoc?OWL2</title>
<a class="graphinclude">
<path fill="none" stroke="black" d="M502.658,-265.84C488.95,-229.231 454.96,-141.014 420,-70 418.438,-66.8272 416.713,-63.5433 414.951,-60.3157"/>
<polygon fill="black" stroke="black" points="417.947,-58.5027 409.99,-51.508 411.848,-61.9385 417.947,-58.5027"/>
</a>
</g>
<!-- http://latin.omdoc.org/logics/description/owl/owl2.omdoc?OWL2QLRL -->
<g id="node15" class="node"><title>http://latin.omdoc.org/logics/description/owl/owl2.omdoc?OWL2QLRL</title>
<a xlink:href="http://latin.omdoc.org/logics/description/owl/owl2.omdoc?OWL2QLRL" class="graphtheory">
<ellipse fill="gray" stroke="black" cx="645" cy="-284" rx="59.1941" ry="18"/>
<text text-anchor="middle" x="645" y="-280.3" font-family="Times New Roman,serif" font-size="14.00">OWL2QLRL</text>
</a>
</g>
<!-- http://latin.omdoc.org/logics/description/owl/owl2.omdoc?OWL2QLRL&#45;&gt;http://latin.omdoc.org/logics/description/owl/owl2.omdoc?OWL2 -->
<g id="edge15" class="edge"><title>http://latin.omdoc.org/logics/description/owl/owl2.omdoc?OWL2QLRL&#45;&gt;http://latin.omdoc.org/logics/description/owl/owl2.omdoc?OWL2</title>
<a class="graphinclude">
<path fill="none" stroke="black" d="M629.462,-266.396C595.4,-230.137 511.34,-141.401 438,-70 433.636,-65.7513 428.913,-61.294 424.33,-57.0376"/>
<polygon fill="black" stroke="black" points="426.561,-54.335 416.834,-50.1365 421.82,-59.4847 426.561,-54.335"/>
</a>
</g>
<!-- http://latin.omdoc.org/logics/description/owl/owl2.omdoc?OWL2QL -->
<g id="node17" class="node"><title>http://latin.omdoc.org/logics/description/owl/owl2.omdoc?OWL2QL</title>
<a xlink:href="http://latin.omdoc.org/logics/description/owl/owl2.omdoc?OWL2QL" class="graphtheory">
<ellipse fill="gray" stroke="black" cx="771" cy="-284" rx="48.1437" ry="18"/>
<text text-anchor="middle" x="771" y="-280.3" font-family="Times New Roman,serif" font-size="14.00">OWL2QL</text>
</a>
</g>
<!-- http://latin.omdoc.org/logics/description/owl/owl2.omdoc?OWL2QL&#45;&gt;http://latin.omdoc.org/logics/description/owl/owl2.omdoc?OWL2 -->
<g id="edge17" class="edge"><title>http://latin.omdoc.org/logics/description/owl/owl2.omdoc?OWL2QL&#45;&gt;http://latin.omdoc.org/logics/description/owl/owl2.omdoc?OWL2</title>
<a class="graphinclude">
<path fill="none" stroke="black" d="M749.866,-267.738C700.119,-231.99 571.423,-140.525 460,-70 450.982,-64.2921 441.028,-58.3478 431.864,-53.0127"/>
<polygon fill="black" stroke="black" points="433.437,-49.8795 423.026,-47.912 429.938,-55.9422 433.437,-49.8795"/>
</a>
</g>
<!-- http://latin.omdoc.org/logics/description/owl/owl2.omdoc?OWL2Full -->
<g id="node19" class="node"><title>http://latin.omdoc.org/logics/description/owl/owl2.omdoc?OWL2Full</title>
<a xlink:href="http://latin.omdoc.org/logics/description/owl/owl2.omdoc?OWL2Full" class="graphtheory">
<ellipse fill="gray" stroke="black" cx="887" cy="-284" rx="50.0684" ry="18"/>
<text text-anchor="middle" x="887" y="-280.3" font-family="Times New Roman,serif" font-size="14.00">OWL2Full</text>
</a>
</g>
<!-- http://latin.omdoc.org/logics/description/owl/owl2.omdoc?OWL2Full&#45;&gt;http://latin.omdoc.org/logics/description/owl/owl2.omdoc?OWL2 -->
<g id="edge19" class="edge"><title>http://latin.omdoc.org/logics/description/owl/owl2.omdoc?OWL2Full&#45;&gt;http://latin.omdoc.org/logics/description/owl/owl2.omdoc?OWL2</title>
<a class="graphinclude">
<path fill="none" stroke="black" d="M861.762,-268.147C799.333,-231.729 632.142,-136.155 486,-70 470.219,-62.8564 452.533,-55.5429 437.322,-49.4609"/>
<polygon fill="black" stroke="black" points="438.315,-46.0894 427.729,-45.6562 435.734,-52.5963 438.315,-46.0894"/>
</a>
</g>
<!-- http://cds.omdoc.org/urtheories?LF -->
<g id="node21" class="node"><title>http://cds.omdoc.org/urtheories?LF</title>
<a xlink:href="http://cds.omdoc.org/urtheories?LF" class="graphtheory">
<ellipse fill="gray" stroke="black" cx="311" cy="-358" rx="27" ry="18"/>
<text text-anchor="middle" x="311" y="-354.3" font-family="Times New Roman,serif" font-size="14.00">LF</text>
</a>
</g>
<!-- http://cds.omdoc.org/urtheories?LF&#45;&gt;http://latin.omdoc.org/logics/description/owl/owl2.omdoc?OWL2 -->
<g id="edge21" class="edge"><title>http://cds.omdoc.org/urtheories?LF&#45;&gt;http://latin.omdoc.org/logics/description/owl/owl2.omdoc?OWL2</title>
<a class="graphmeta">
<path fill="none" stroke="black" d="M283.945,-356.483C208.28,-354.309 0,-343.054 0,-285 0,-285 0,-285 0,-121 0,-90.4754 18.7538,-83.7622 46,-70 98.6657,-43.3982 269.929,-37.0086 353.407,-35.4787"/>
<polygon fill="black" stroke="black" points="353.68,-38.9747 363.62,-35.3078 353.563,-31.9756 353.68,-38.9747"/>
</a>
</g>
<!-- http://cds.omdoc.org/urtheories?LF&#45;&gt;http://latin.omdoc.org/logics/syntax?FLminus -->
<g id="edge29" class="edge"><title>http://cds.omdoc.org/urtheories?LF&#45;&gt;http://latin.omdoc.org/logics/syntax?FLminus</title>
<a class="graphmeta">
<path fill="none" stroke="black" d="M284.262,-354.965C229.043,-350.105 105.739,-335.628 84,-302 53.9784,-255.559 59.3354,-187.477 65.4459,-150.082"/>
<polygon fill="black" stroke="black" points="68.9417,-150.413 67.2441,-139.955 62.0495,-149.189 68.9417,-150.413"/>
</a>
</g>
<!-- http://cds.omdoc.org/urtheories?LF&#45;&gt;http://latin.omdoc.org/logics/syntax?FL0 -->
<g id="edge23" class="edge"><title>http://cds.omdoc.org/urtheories?LF&#45;&gt;http://latin.omdoc.org/logics/syntax?FL0</title>
<a class="graphmeta">
<path fill="none" stroke="black" d="M284.4,-354.24C231.942,-348.192 118.214,-331.865 95,-302 80.1028,-282.834 90.0749,-255.059 100.969,-235.243"/>
<polygon fill="black" stroke="black" points="104.064,-236.887 106.12,-226.493 98.031,-233.336 104.064,-236.887"/>
</a>
</g>
<!-- http://cds.omdoc.org/urtheories?LF&#45;&gt;http://latin.omdoc.org/logics/syntax?DLBase -->
<g id="edge31" class="edge"><title>http://cds.omdoc.org/urtheories?LF&#45;&gt;http://latin.omdoc.org/logics/syntax?DLBase</title>
<a class="graphmeta">
<path fill="none" stroke="black" d="M288.824,-347.439C261.367,-335.602 214.196,-315.264 181.171,-301.026"/>
<polygon fill="black" stroke="black" points="182.406,-297.747 171.837,-297.002 179.635,-304.175 182.406,-297.747"/>
</a>
</g>
<!-- http://cds.omdoc.org/urtheories?LF&#45;&gt;http://latin.omdoc.org/logics/description/owl/owl2.omdoc?OWL2EL -->
<g id="edge27" class="edge"><title>http://cds.omdoc.org/urtheories?LF&#45;&gt;http://latin.omdoc.org/logics/description/owl/owl2.omdoc?OWL2EL</title>
<a class="graphmeta">
<path fill="none" stroke="black" d="M298.154,-342.082C289.934,-332.536 279.084,-319.937 269.67,-309.004"/>
<polygon fill="black" stroke="black" points="272.304,-306.699 263.127,-301.405 267,-311.267 272.304,-306.699"/>
</a>
</g>
<!-- http://cds.omdoc.org/urtheories?LF&#45;&gt;http://latin.omdoc.org/logics/description/owl/owl2.omdoc?OWL2ELQL -->
<g id="edge39" class="edge"><title>http://cds.omdoc.org/urtheories?LF&#45;&gt;http://latin.omdoc.org/logics/description/owl/owl2.omdoc?OWL2ELQL</title>
<a class="graphmeta">
<path fill="none" stroke="black" d="M323.846,-342.082C331.93,-332.694 342.556,-320.354 351.86,-309.549"/>
<polygon fill="black" stroke="black" points="354.78,-311.523 358.653,-301.661 349.476,-306.955 354.78,-311.523"/>
</a>
</g>
<!-- http://cds.omdoc.org/urtheories?LF&#45;&gt;http://latin.omdoc.org/logics/description/owl/owl2.omdoc?OWL2ELRL -->
<g id="edge37" class="edge"><title>http://cds.omdoc.org/urtheories?LF&#45;&gt;http://latin.omdoc.org/logics/description/owl/owl2.omdoc?OWL2ELRL</title>
<a class="graphmeta">
<path fill="none" stroke="black" d="M334.101,-348.6C365.577,-337.154 422.637,-316.405 463.012,-301.723"/>
<polygon fill="black" stroke="black" points="464.433,-304.93 472.635,-298.224 462.041,-298.352 464.433,-304.93"/>
</a>
</g>
<!-- http://cds.omdoc.org/urtheories?LF&#45;&gt;http://latin.omdoc.org/logics/description/owl/owl2.omdoc?OWL2QLRL -->
<g id="edge25" class="edge"><title>http://cds.omdoc.org/urtheories?LF&#45;&gt;http://latin.omdoc.org/logics/description/owl/owl2.omdoc?OWL2QLRL</title>
<a class="graphmeta">
<path fill="none" stroke="black" d="M336.65,-352.004C384.042,-342.7 488.478,-321.857 576,-302 580.912,-300.885 586.013,-299.694 591.116,-298.479"/>
<polygon fill="black" stroke="black" points="591.984,-301.87 600.886,-296.126 590.345,-295.064 591.984,-301.87"/>
</a>
</g>
<!-- http://cds.omdoc.org/urtheories?LF&#45;&gt;http://latin.omdoc.org/logics/description/owl/owl2.omdoc?OWL2QL -->
<g id="edge33" class="edge"><title>http://cds.omdoc.org/urtheories?LF&#45;&gt;http://latin.omdoc.org/logics/description/owl/owl2.omdoc?OWL2QL</title>
<a class="graphmeta">
<path fill="none" stroke="black" d="M337.576,-354.747C402.32,-348.958 573.161,-331.885 713,-302 717.156,-301.112 721.448,-300.079 725.73,-298.97"/>
<polygon fill="black" stroke="black" points="726.903,-302.278 735.633,-296.275 725.065,-295.524 726.903,-302.278"/>
</a>
</g>
<!-- http://cds.omdoc.org/urtheories?LF&#45;&gt;http://latin.omdoc.org/logics/description/owl/owl2.omdoc?OWL2Full -->
<g id="edge35" class="edge"><title>http://cds.omdoc.org/urtheories?LF&#45;&gt;http://latin.omdoc.org/logics/description/owl/owl2.omdoc?OWL2Full</title>
<a class="graphmeta">
<path fill="none" stroke="black" d="M337.882,-355.797C414.885,-351.995 642.64,-338.276 828,-302 832.178,-301.182 836.488,-300.206 840.788,-299.141"/>
<polygon fill="black" stroke="black" points="841.953,-302.453 850.734,-296.525 840.173,-295.683 841.953,-302.453"/>
</a>
</g>
</g>
</svg>
