<?xml version="1.0" encoding="UTF-8" standalone="no"?>
<!DOCTYPE svg PUBLIC "-//W3C//DTD SVG 1.1//EN"
 "http://www.w3.org/Graphics/SVG/1.1/DTD/svg11.dtd">
<!-- Generated by graphviz version 2.28.0 (20110507.0327)
 -->
<!-- Title: MMT Pages: 1 -->
<svg width="164pt" height="204pt"
 viewBox="0.00 0.00 164.00 204.00" xmlns="http://www.w3.org/2000/svg" xmlns:xlink="http://www.w3.org/1999/xlink">
<g id="graph1" class="graph" transform="scale(1 1) rotate(0) translate(4 200)">
<title>MMT</title>
<polygon fill="white" stroke="white" points="-4,5 -4,-200 161,-200 161,5 -4,5"/>
<g id="graph2" class="cluster"><title>cluster_local</title>
<polygon fill="none" stroke="black" points="8,-8 8,-60 148,-60 148,-8 8,-8"/>
</g>
<!-- http://latin.omdoc.org/logics/proof_theory?TableauxProp -->
<g id="node2" class="node"><title>http://latin.omdoc.org/logics/proof_theory?TableauxProp</title>
<a xlink:href="javascript:parent.navigate(&#39;http://latin.omdoc.org/logics/proof_theory?TableauxProp&#39;)" xlink:title="theory http://latin.omdoc.org/logics/proof_theory?TableauxProp">
<ellipse fill="none" stroke="black" cx="78" cy="-34" rx="61.6163" ry="18"/>
<text text-anchor="middle" x="78" y="-30.3" font-family="Times New Roman,serif" font-size="14.00">TableauxProp</text>
</a>
</g>
<!-- http://latin.omdoc.org/logics/syntax?PL -->
<g id="node3" class="node"><title>http://latin.omdoc.org/logics/syntax?PL</title>
<a xlink:href="javascript:parent.navigate(&#39;http://latin.omdoc.org/logics/syntax?PL&#39;)" xlink:title="theory http://latin.omdoc.org/logics/syntax?PL">
<ellipse fill="gray" stroke="black" cx="106" cy="-106" rx="27" ry="18"/>
<text text-anchor="middle" x="106" y="-102.3" font-family="Times New Roman,serif" font-size="14.00">PL</text>
</a>
</g>
<!-- http://latin.omdoc.org/logics/syntax?PL&#45;&gt;http://latin.omdoc.org/logics/proof_theory?TableauxProp -->
<g id="edge3" class="edge"><title>http://latin.omdoc.org/logics/syntax?PL&#45;&gt;http://latin.omdoc.org/logics/proof_theory?TableauxProp</title>
<a xlink:title="include">
<path fill="none" stroke="black" d="M99.3644,-88.411C96.1341,-80.3352 92.1725,-70.4312 88.5419,-61.3547"/>
<polygon fill="black" stroke="black" points="91.7461,-59.9411 84.7825,-51.9562 85.2468,-62.5409 91.7461,-59.9411"/>
</a>
</g>
<!-- http://cds.omdoc.org/urtheories?LF -->
<g id="node5" class="node"><title>http://cds.omdoc.org/urtheories?LF</title>
<a xlink:href="javascript:parent.navigate(&#39;http://cds.omdoc.org/urtheories?LF&#39;)" xlink:title="theory http://cds.omdoc.org/urtheories?LF">
<ellipse fill="gray" stroke="black" cx="78" cy="-178" rx="27" ry="18"/>
<text text-anchor="middle" x="78" y="-174.3" font-family="Times New Roman,serif" font-size="14.00">LF</text>
</a>
</g>
<!-- http://cds.omdoc.org/urtheories?LF&#45;&gt;http://latin.omdoc.org/logics/proof_theory?TableauxProp -->
<g id="edge5" class="edge"><title>http://cds.omdoc.org/urtheories?LF&#45;&gt;http://latin.omdoc.org/logics/proof_theory?TableauxProp</title>
<a xlink:title="meta">
<path fill="none" stroke="green" d="M74.7517,-159.888C72.9542,-149.542 70.9053,-136.063 70,-124 68.8026,-108.045 68.8026,-103.955 70,-88 70.6366,-79.5179 71.8384,-70.3361 73.1208,-62.0356"/>
<polygon fill="green" stroke="green" points="76.5836,-62.5472 74.7517,-52.1119 69.6763,-61.412 76.5836,-62.5472"/>
</a>
</g>
<!-- http://cds.omdoc.org/urtheories?LF&#45;&gt;http://latin.omdoc.org/logics/syntax?PL -->
<g id="edge7" class="edge"><title>http://cds.omdoc.org/urtheories?LF&#45;&gt;http://latin.omdoc.org/logics/syntax?PL</title>
<a xlink:title="meta">
<path fill="none" stroke="green" d="M84.6356,-160.411C87.9134,-152.216 91.9442,-142.14 95.6181,-132.955"/>
<polygon fill="green" stroke="green" points="98.9477,-134.055 99.412,-123.47 92.4484,-131.455 98.9477,-134.055"/>
</a>
</g>
</g>
</svg>
