<?xml version="1.0" encoding="UTF-8" standalone="no"?>
<!DOCTYPE svg PUBLIC "-//W3C//DTD SVG 1.1//EN"
 "http://www.w3.org/Graphics/SVG/1.1/DTD/svg11.dtd">
<!-- Generated by graphviz version 2.28.0 (20110507.0327)
 -->
<!-- Title: MMT Pages: 1 -->
<svg width="948pt" height="470pt"
 viewBox="0.00 0.00 948.00 470.00" xmlns="http://www.w3.org/2000/svg" xmlns:xlink="http://www.w3.org/1999/xlink">
<g id="graph1" class="graph" transform="scale(1 1) rotate(0) translate(4 466)">
<title>MMT</title>
<polygon fill="white" stroke="white" points="-4,5 -4,-466 945,-466 945,5 -4,5"/>
<!-- http://latin.omdoc.org/logics/syntax?E -->
<g id="node2" class="node"><title>http://latin.omdoc.org/logics/syntax?E</title>
<a xlink:href="http://latin.omdoc.org/logics/syntax?E" class="graphtheory">
<ellipse fill="gray" stroke="black" cx="27" cy="-370" rx="27" ry="18"/>
<text text-anchor="middle" x="27" y="-366.3" font-family="Times New Roman,serif" font-size="14.00">E</text>
</a>
</g>
<!-- http://latin.omdoc.org/logics/syntax?FOLEQ -->
<g id="node3" class="node"><title>http://latin.omdoc.org/logics/syntax?FOLEQ</title>
<a xlink:href="http://latin.omdoc.org/logics/syntax?FOLEQ" class="graphtheory">
<ellipse fill="gray" stroke="black" cx="460" cy="-18" rx="39.9464" ry="18"/>
<text text-anchor="middle" x="460" y="-14.3" font-family="Times New Roman,serif" font-size="14.00">FOLEQ</text>
</a>
</g>
<!-- http://latin.omdoc.org/logics/syntax?E&#45;&gt;http://latin.omdoc.org/logics/syntax?FOLEQ -->
<g id="edge3" class="edge"><title>http://latin.omdoc.org/logics/syntax?E&#45;&gt;http://latin.omdoc.org/logics/syntax?FOLEQ</title>
<a xlink:href="http://latin.omdoc.org/logics/model_theory?E" class="graphview">
<path fill="none" stroke="black" d="M27,-351.867C27,-334.51 27,-306.889 27,-283 27,-283 27,-283 27,-105 27,-27.7983 295.157,-18.8455 409.415,-18.5348"/>
<polygon fill="black" stroke="black" points="409.655,-22.0348 419.653,-18.5292 409.651,-15.0348 409.655,-22.0348"/>
</a>
<a xlink:href="http://latin.omdoc.org/logics/model_theory?E" class="E">
<text text-anchor="middle" x="31.5" y="-190.3" font-family="Times New Roman,serif" font-size="14.00">E</text>
</a>
</g>
<!-- http://latin.omdoc.org/logics/syntax?AL -->
<g id="node5" class="node"><title>http://latin.omdoc.org/logics/syntax?AL</title>
<a xlink:href="http://latin.omdoc.org/logics/syntax?AL" class="graphtheory">
<ellipse fill="gray" stroke="black" cx="269" cy="-106" rx="27" ry="18"/>
<text text-anchor="middle" x="269" y="-102.3" font-family="Times New Roman,serif" font-size="14.00">AL</text>
</a>
</g>
<!-- http://latin.omdoc.org/logics/syntax?AL&#45;&gt;http://latin.omdoc.org/logics/syntax?FOLEQ -->
<g id="edge5" class="edge"><title>http://latin.omdoc.org/logics/syntax?AL&#45;&gt;http://latin.omdoc.org/logics/syntax?FOLEQ</title>
<a xlink:href="http://latin.omdoc.org/logics/model_theory?AL" class="graphview">
<path fill="none" stroke="black" d="M285.413,-91.4394C299.827,-80.0988 321.755,-64.1853 343,-54 365.631,-43.1504 392.348,-34.8511 414.534,-29.0634"/>
<polygon fill="black" stroke="black" points="415.537,-32.42 424.378,-26.5808 413.825,-25.6326 415.537,-32.42"/>
</a>
<a xlink:href="http://latin.omdoc.org/logics/model_theory?AL" class="AL">
<text text-anchor="middle" x="352.5" y="-58.3" font-family="Times New Roman,serif" font-size="14.00">AL</text>
</a>
</g>
<!-- http://latin.omdoc.org/logics/syntax?R -->
<g id="node7" class="node"><title>http://latin.omdoc.org/logics/syntax?R</title>
<a xlink:href="http://latin.omdoc.org/logics/syntax?R" class="graphtheory">
<ellipse fill="gray" stroke="black" cx="515" cy="-106" rx="27" ry="18"/>
<text text-anchor="middle" x="515" y="-102.3" font-family="Times New Roman,serif" font-size="14.00">R</text>
</a>
</g>
<!-- http://latin.omdoc.org/logics/syntax?R&#45;&gt;http://latin.omdoc.org/logics/syntax?FOLEQ -->
<g id="edge7" class="edge"><title>http://latin.omdoc.org/logics/syntax?R&#45;&gt;http://latin.omdoc.org/logics/syntax?FOLEQ</title>
<a xlink:href="http://latin.omdoc.org/logics/model_theory?R" class="graphview">
<path fill="none" stroke="black" d="M504.912,-89.2263C496.848,-76.6171 485.391,-58.7018 476.067,-44.1224"/>
<polygon fill="black" stroke="black" points="478.923,-42.0918 470.586,-35.553 473.025,-45.8633 478.923,-42.0918"/>
</a>
<a xlink:href="http://latin.omdoc.org/logics/model_theory?R" class="R">
<text text-anchor="middle" x="498" y="-58.3" font-family="Times New Roman,serif" font-size="14.00">R</text>
</a>
</g>
<!-- http://latin.omdoc.org/logics/syntax?Catom -->
<g id="node9" class="node"><title>http://latin.omdoc.org/logics/syntax?Catom</title>
<a xlink:href="http://latin.omdoc.org/logics/syntax?Catom" class="graphtheory">
<ellipse fill="gray" stroke="black" cx="214" cy="-370" rx="35.1455" ry="18"/>
<text text-anchor="middle" x="214" y="-366.3" font-family="Times New Roman,serif" font-size="14.00">Catom</text>
</a>
</g>
<!-- http://latin.omdoc.org/logics/syntax?Catom&#45;&gt;http://latin.omdoc.org/logics/syntax?FOLEQ -->
<g id="edge9" class="edge"><title>http://latin.omdoc.org/logics/syntax?Catom&#45;&gt;http://latin.omdoc.org/logics/syntax?FOLEQ</title>
<a xlink:href="http://latin.omdoc.org/logics/model_theory?Catom" class="graphview">
<path fill="none" stroke="black" d="M214,-351.867C214,-334.51 214,-306.889 214,-283 214,-283 214,-283 214,-105 214,-63.4949 340.362,-37.3083 411.957,-25.8023"/>
<polygon fill="black" stroke="black" points="412.765,-29.2186 422.102,-24.2112 411.68,-22.3031 412.765,-29.2186"/>
</a>
<a xlink:href="http://latin.omdoc.org/logics/model_theory?Catom" class="Catom">
<text text-anchor="middle" x="233" y="-190.3" font-family="Times New Roman,serif" font-size="14.00">Catom</text>
</a>
</g>
<!-- http://latin.omdoc.org/logics/syntax?Catom&#45;&gt;http://latin.omdoc.org/logics/syntax?AL -->
<g id="edge65" class="edge"><title>http://latin.omdoc.org/logics/syntax?Catom&#45;&gt;http://latin.omdoc.org/logics/syntax?AL</title>
<a class="graphinclude">
<path fill="none" stroke="black" d="M221.373,-352.101C223.688,-346.417 226.125,-339.996 228,-334 244.603,-280.903 246.347,-266.788 256,-212 260.614,-185.812 264.167,-155.666 266.383,-134.412"/>
<polygon fill="black" stroke="black" points="269.894,-134.477 267.419,-124.176 262.93,-133.773 269.894,-134.477"/>
</a>
</g>
<!-- http://latin.omdoc.org/logics/syntax?C -->
<g id="node31" class="node"><title>http://latin.omdoc.org/logics/syntax?C</title>
<a xlink:href="http://latin.omdoc.org/logics/syntax?C" class="graphtheory">
<ellipse fill="gray" stroke="black" cx="460" cy="-282" rx="27" ry="18"/>
<text text-anchor="middle" x="460" y="-278.3" font-family="Times New Roman,serif" font-size="14.00">C</text>
</a>
</g>
<!-- http://latin.omdoc.org/logics/syntax?Catom&#45;&gt;http://latin.omdoc.org/logics/syntax?C -->
<g id="edge63" class="edge"><title>http://latin.omdoc.org/logics/syntax?Catom&#45;&gt;http://latin.omdoc.org/logics/syntax?C</title>
<a xlink:href="http://latin.omdoc.org/logics/syntax?Cview" class="graphview">
<path fill="none" stroke="black" d="M242.219,-359.135C288.03,-343.12 378.349,-311.545 427.04,-294.523"/>
<polygon fill="black" stroke="black" points="428.197,-297.826 436.482,-291.222 425.887,-291.218 428.197,-297.826"/>
</a>
<a xlink:href="http://latin.omdoc.org/logics/syntax?Cview" class="Cview">
<text text-anchor="middle" x="378" y="-322.3" font-family="Times New Roman,serif" font-size="14.00">Cview</text>
</a>
</g>
<!-- http://latin.omdoc.org/logics/syntax?FLminus -->
<g id="node11" class="node"><title>http://latin.omdoc.org/logics/syntax?FLminus</title>
<a xlink:href="http://latin.omdoc.org/logics/syntax?FLminus" class="graphtheory">
<ellipse fill="gray" stroke="black" cx="143" cy="-282" rx="42.3456" ry="18"/>
<text text-anchor="middle" x="143" y="-278.3" font-family="Times New Roman,serif" font-size="14.00">FLminus</text>
</a>
</g>
<!-- http://latin.omdoc.org/logics/syntax?FLminus&#45;&gt;http://latin.omdoc.org/logics/syntax?FOLEQ -->
<g id="edge11" class="edge"><title>http://latin.omdoc.org/logics/syntax?FLminus&#45;&gt;http://latin.omdoc.org/logics/syntax?FOLEQ</title>
<a xlink:href="http://latin.omdoc.org/logics/model_theory?FLminus" class="graphview">
<path fill="none" stroke="black" d="M140.855,-263.939C136.403,-219.878 131.679,-102.359 200,-54 232.818,-30.771 344.035,-22.9351 409.904,-20.3088"/>
<polygon fill="black" stroke="black" points="410.204,-23.8001 420.067,-19.9304 409.944,-16.805 410.204,-23.8001"/>
</a>
<a xlink:href="http://latin.omdoc.org/logics/model_theory?FLminus" class="FLminus">
<text text-anchor="middle" x="172" y="-146.3" font-family="Times New Roman,serif" font-size="14.00">FLminus</text>
</a>
</g>
<!-- http://latin.omdoc.org/logics/syntax?FLminus&#45;&gt;http://latin.omdoc.org/logics/syntax?AL -->
<g id="edge61" class="edge"><title>http://latin.omdoc.org/logics/syntax?FLminus&#45;&gt;http://latin.omdoc.org/logics/syntax?AL</title>
<a class="graphinclude">
<path fill="none" stroke="black" d="M148.573,-263.858C156.175,-242.074 171.262,-203.948 192,-176 206.392,-156.605 226.925,-138.537 243.169,-125.759"/>
<polygon fill="black" stroke="black" points="245.417,-128.446 251.217,-119.58 241.154,-122.894 245.417,-128.446"/>
</a>
</g>
<!-- http://latin.omdoc.org/logics/syntax?ALC -->
<g id="node23" class="node"><title>http://latin.omdoc.org/logics/syntax?ALC</title>
<a xlink:href="http://latin.omdoc.org/logics/syntax?ALC" class="graphtheory">
<ellipse fill="gray" stroke="black" cx="403" cy="-194" rx="28.3955" ry="18"/>
<text text-anchor="middle" x="403" y="-190.3" font-family="Times New Roman,serif" font-size="14.00">ALC</text>
</a>
</g>
<!-- http://latin.omdoc.org/logics/syntax?FLminus&#45;&gt;http://latin.omdoc.org/logics/syntax?ALC -->
<g id="edge59" class="edge"><title>http://latin.omdoc.org/logics/syntax?FLminus&#45;&gt;http://latin.omdoc.org/logics/syntax?ALC</title>
<a class="graphinclude">
<path fill="none" stroke="black" d="M175.403,-270.282C224.69,-253.98 318.081,-223.089 368.554,-206.394"/>
<polygon fill="black" stroke="black" points="369.952,-209.618 378.347,-203.155 367.753,-202.972 369.952,-209.618"/>
</a>
</g>
<!-- http://latin.omdoc.org/logics/syntax?U -->
<g id="node13" class="node"><title>http://latin.omdoc.org/logics/syntax?U</title>
<a xlink:href="http://latin.omdoc.org/logics/syntax?U" class="graphtheory">
<ellipse fill="gray" stroke="black" cx="587" cy="-106" rx="27" ry="18"/>
<text text-anchor="middle" x="587" y="-102.3" font-family="Times New Roman,serif" font-size="14.00">U</text>
</a>
</g>
<!-- http://latin.omdoc.org/logics/syntax?U&#45;&gt;http://latin.omdoc.org/logics/syntax?FOLEQ -->
<g id="edge13" class="edge"><title>http://latin.omdoc.org/logics/syntax?U&#45;&gt;http://latin.omdoc.org/logics/syntax?FOLEQ</title>
<a xlink:href="http://latin.omdoc.org/logics/model_theory?U" class="graphview">
<path fill="none" stroke="black" d="M568.804,-92.6783C548.279,-78.7797 514.578,-55.9587 490.115,-39.3929"/>
<polygon fill="black" stroke="black" points="491.804,-36.3099 481.562,-33.6009 487.879,-42.106 491.804,-36.3099"/>
</a>
<a xlink:href="http://latin.omdoc.org/logics/model_theory?U" class="U">
<text text-anchor="middle" x="540" y="-58.3" font-family="Times New Roman,serif" font-size="14.00">U</text>
</a>
</g>
<!-- http://latin.omdoc.org/logics/syntax?H -->
<g id="node15" class="node"><title>http://latin.omdoc.org/logics/syntax?H</title>
<a xlink:href="http://latin.omdoc.org/logics/syntax?H" class="graphtheory">
<ellipse fill="gray" stroke="black" cx="659" cy="-106" rx="27" ry="18"/>
<text text-anchor="middle" x="659" y="-102.3" font-family="Times New Roman,serif" font-size="14.00">H</text>
</a>
</g>
<!-- http://latin.omdoc.org/logics/syntax?H&#45;&gt;http://latin.omdoc.org/logics/syntax?FOLEQ -->
<g id="edge15" class="edge"><title>http://latin.omdoc.org/logics/syntax?H&#45;&gt;http://latin.omdoc.org/logics/syntax?FOLEQ</title>
<a xlink:href="http://latin.omdoc.org/logics/model_theory?H" class="graphview">
<path fill="none" stroke="black" d="M637.697,-94.8951C632.869,-92.6175 627.762,-90.2181 623,-88 590.191,-72.7166 582.299,-68.1842 549,-54 532.808,-47.1029 514.767,-39.9168 499.183,-33.8635"/>
<polygon fill="black" stroke="black" points="500.425,-30.5915 489.836,-30.2536 497.903,-37.1214 500.425,-30.5915"/>
</a>
<a xlink:href="http://latin.omdoc.org/logics/model_theory?H" class="H">
<text text-anchor="middle" x="589" y="-58.3" font-family="Times New Roman,serif" font-size="14.00">H</text>
</a>
</g>
<!-- http://latin.omdoc.org/logics/syntax?FL0 -->
<g id="node17" class="node"><title>http://latin.omdoc.org/logics/syntax?FL0</title>
<a xlink:href="http://latin.omdoc.org/logics/syntax?FL0" class="graphtheory">
<ellipse fill="gray" stroke="black" cx="99" cy="-370" rx="27" ry="18"/>
<text text-anchor="middle" x="99" y="-366.3" font-family="Times New Roman,serif" font-size="14.00">FL0</text>
</a>
</g>
<!-- http://latin.omdoc.org/logics/syntax?FL0&#45;&gt;http://latin.omdoc.org/logics/syntax?FOLEQ -->
<g id="edge17" class="edge"><title>http://latin.omdoc.org/logics/syntax?FL0&#45;&gt;http://latin.omdoc.org/logics/syntax?FOLEQ</title>
<a xlink:href="http://latin.omdoc.org/logics/model_theory?FL0" class="graphview">
<path fill="none" stroke="black" d="M90.605,-352.669C82.6791,-335.714 72,-308.195 72,-283 72,-283 72,-283 72,-105 72,-36.5582 305.027,-22.5474 409.901,-19.7074"/>
<polygon fill="black" stroke="black" points="410.028,-23.2054 419.939,-19.4593 409.855,-16.2076 410.028,-23.2054"/>
</a>
<a xlink:href="http://latin.omdoc.org/logics/model_theory?FL0" class="FL0">
<text text-anchor="middle" x="84" y="-190.3" font-family="Times New Roman,serif" font-size="14.00">FL0</text>
</a>
</g>
<!-- http://latin.omdoc.org/logics/syntax?FL0&#45;&gt;http://latin.omdoc.org/logics/syntax?FLminus -->
<g id="edge57" class="edge"><title>http://latin.omdoc.org/logics/syntax?FL0&#45;&gt;http://latin.omdoc.org/logics/syntax?FLminus</title>
<a class="graphinclude">
<path fill="none" stroke="black" d="M107.276,-352.824C113.587,-340.49 122.406,-323.252 129.702,-308.991"/>
<polygon fill="black" stroke="black" points="133.022,-310.187 134.461,-299.69 126.79,-306.998 133.022,-310.187"/>
</a>
</g>
<!-- http://latin.omdoc.org/logics/syntax?F -->
<g id="node19" class="node"><title>http://latin.omdoc.org/logics/syntax?F</title>
<a xlink:href="http://latin.omdoc.org/logics/syntax?F" class="graphtheory">
<ellipse fill="gray" stroke="black" cx="731" cy="-106" rx="27" ry="18"/>
<text text-anchor="middle" x="731" y="-102.3" font-family="Times New Roman,serif" font-size="14.00">F</text>
</a>
</g>
<!-- http://latin.omdoc.org/logics/syntax?F&#45;&gt;http://latin.omdoc.org/logics/syntax?FOLEQ -->
<g id="edge19" class="edge"><title>http://latin.omdoc.org/logics/syntax?F&#45;&gt;http://latin.omdoc.org/logics/syntax?FOLEQ</title>
<a xlink:href="http://latin.omdoc.org/logics/model_theory?F" class="graphview">
<path fill="none" stroke="black" d="M709.843,-94.5612C705.008,-92.301 699.86,-89.993 695,-88 652.733,-70.6676 641.739,-67.1838 598,-54 567.258,-44.7337 532.181,-35.8593 505.085,-29.365"/>
<polygon fill="black" stroke="black" points="505.654,-25.903 495.116,-26.9967 504.036,-32.7134 505.654,-25.903"/>
</a>
<a xlink:href="http://latin.omdoc.org/logics/model_theory?F" class="F">
<text text-anchor="middle" x="652.5" y="-58.3" font-family="Times New Roman,serif" font-size="14.00">F</text>
</a>
</g>
<!-- http://latin.omdoc.org/logics/syntax?S -->
<g id="node21" class="node"><title>http://latin.omdoc.org/logics/syntax?S</title>
<a xlink:href="http://latin.omdoc.org/logics/syntax?S" class="graphtheory">
<ellipse fill="gray" stroke="black" cx="341" cy="-106" rx="27" ry="18"/>
<text text-anchor="middle" x="341" y="-102.3" font-family="Times New Roman,serif" font-size="14.00">S</text>
</a>
</g>
<!-- http://latin.omdoc.org/logics/syntax?S&#45;&gt;http://latin.omdoc.org/logics/syntax?FOLEQ -->
<g id="edge21" class="edge"><title>http://latin.omdoc.org/logics/syntax?S&#45;&gt;http://latin.omdoc.org/logics/syntax?FOLEQ</title>
<a xlink:href="http://latin.omdoc.org/logics/model_theory?S" class="graphview">
<path fill="none" stroke="black" d="M350.538,-89.0355C357.771,-78.0215 368.568,-63.6759 381,-54 392.131,-45.3363 405.744,-38.3151 418.513,-32.8985"/>
<polygon fill="black" stroke="black" points="420.081,-36.0408 428.058,-29.0687 417.474,-29.5443 420.081,-36.0408"/>
</a>
<a xlink:href="http://latin.omdoc.org/logics/model_theory?S" class="S">
<text text-anchor="middle" x="385.5" y="-58.3" font-family="Times New Roman,serif" font-size="14.00">S</text>
</a>
</g>
<!-- http://latin.omdoc.org/logics/syntax?ALC&#45;&gt;http://latin.omdoc.org/logics/syntax?FOLEQ -->
<g id="edge23" class="edge"><title>http://latin.omdoc.org/logics/syntax?ALC&#45;&gt;http://latin.omdoc.org/logics/syntax?FOLEQ</title>
<a xlink:href="http://latin.omdoc.org/logics/model_theory?ALC" class="graphview">
<path fill="none" stroke="black" d="M403.347,-175.763C404.248,-154.532 407.37,-117.64 418,-88 423.6,-72.3851 432.992,-56.4686 441.476,-43.863"/>
<polygon fill="black" stroke="black" points="444.582,-45.5271 447.426,-35.321 438.839,-41.526 444.582,-45.5271"/>
</a>
<a xlink:href="http://latin.omdoc.org/logics/model_theory?ALC" class="ALC">
<text text-anchor="middle" x="432" y="-102.3" font-family="Times New Roman,serif" font-size="14.00">ALC</text>
</a>
</g>
<!-- http://latin.omdoc.org/logics/syntax?ALC&#45;&gt;http://latin.omdoc.org/logics/syntax?S -->
<g id="edge55" class="edge"><title>http://latin.omdoc.org/logics/syntax?ALC&#45;&gt;http://latin.omdoc.org/logics/syntax?S</title>
<a class="graphinclude">
<path fill="none" stroke="black" d="M391.628,-177.226C382.277,-164.255 368.877,-145.668 358.212,-130.875"/>
<polygon fill="black" stroke="black" points="360.987,-128.739 352.3,-122.674 355.309,-132.832 360.987,-128.739"/>
</a>
</g>
<!-- http://latin.omdoc.org/logics/syntax?O -->
<g id="node25" class="node"><title>http://latin.omdoc.org/logics/syntax?O</title>
<a xlink:href="http://latin.omdoc.org/logics/syntax?O" class="graphtheory">
<ellipse fill="gray" stroke="black" cx="803" cy="-106" rx="27" ry="18"/>
<text text-anchor="middle" x="803" y="-102.3" font-family="Times New Roman,serif" font-size="14.00">O</text>
</a>
</g>
<!-- http://latin.omdoc.org/logics/syntax?O&#45;&gt;http://latin.omdoc.org/logics/syntax?FOLEQ -->
<g id="edge25" class="edge"><title>http://latin.omdoc.org/logics/syntax?O&#45;&gt;http://latin.omdoc.org/logics/syntax?FOLEQ</title>
<a xlink:href="http://latin.omdoc.org/logics/model_theory?O" class="graphview">
<path fill="none" stroke="black" d="M781.882,-94.4646C777.044,-92.2093 771.886,-89.9279 767,-88 720.977,-69.8425 709.041,-65.8274 661,-54 609.318,-41.2761 549.055,-31.4305 508.092,-25.4682"/>
<polygon fill="black" stroke="black" points="508.506,-21.9918 498.111,-24.0366 507.512,-28.9209 508.506,-21.9918"/>
</a>
<a xlink:href="http://latin.omdoc.org/logics/model_theory?O" class="O">
<text text-anchor="middle" x="723.5" y="-58.3" font-family="Times New Roman,serif" font-size="14.00">O</text>
</a>
</g>
<!-- http://latin.omdoc.org/logics/syntax?DLBase -->
<g id="node27" class="node"><title>http://latin.omdoc.org/logics/syntax?DLBase</title>
<a xlink:href="http://latin.omdoc.org/logics/syntax?DLBase" class="graphtheory">
<ellipse fill="gray" stroke="black" cx="858" cy="-444" rx="39.9464" ry="18"/>
<text text-anchor="middle" x="858" y="-440.3" font-family="Times New Roman,serif" font-size="14.00">DLBase</text>
</a>
</g>
<!-- http://latin.omdoc.org/logics/syntax?DLBase&#45;&gt;http://latin.omdoc.org/logics/syntax?E -->
<g id="edge39" class="edge"><title>http://latin.omdoc.org/logics/syntax?DLBase&#45;&gt;http://latin.omdoc.org/logics/syntax?E</title>
<a class="graphinclude">
<path fill="none" stroke="black" d="M818.225,-440.724C727.526,-435.481 498.439,-421.925 307,-408 198.479,-400.106 168.11,-416.128 63,-388 61.047,-387.477 59.0703,-386.852 57.1009,-386.155"/>
<polygon fill="black" stroke="black" points="58.0375,-382.756 47.4569,-382.206 55.3848,-389.234 58.0375,-382.756"/>
</a>
</g>
<!-- http://latin.omdoc.org/logics/syntax?DLBase&#45;&gt;http://latin.omdoc.org/logics/syntax?FOLEQ -->
<g id="edge27" class="edge"><title>http://latin.omdoc.org/logics/syntax?DLBase&#45;&gt;http://latin.omdoc.org/logics/syntax?FOLEQ</title>
<a xlink:href="http://latin.omdoc.org/logics/model_theory?DLBase" class="graphview">
<path fill="none" stroke="black" d="M858,-425.834C858,-411.247 858,-389.75 858,-371 858,-371 858,-371 858,-105 858,-34.7049 617.799,-21.7267 510.605,-19.4349"/>
<polygon fill="black" stroke="black" points="510.417,-15.9308 500.353,-19.2398 510.284,-22.9296 510.417,-15.9308"/>
</a>
<a xlink:href="http://latin.omdoc.org/logics/model_theory?DLBase" class="DLBase">
<text text-anchor="middle" x="881" y="-234.3" font-family="Times New Roman,serif" font-size="14.00">DLBase</text>
</a>
</g>
<!-- http://latin.omdoc.org/logics/syntax?DLBase&#45;&gt;http://latin.omdoc.org/logics/syntax?R -->
<g id="edge45" class="edge"><title>http://latin.omdoc.org/logics/syntax?DLBase&#45;&gt;http://latin.omdoc.org/logics/syntax?R</title>
<a class="graphinclude">
<path fill="none" stroke="black" d="M818.449,-440.756C743.01,-435.386 586,-418.505 586,-371 586,-371 586,-371 586,-193 586,-164.539 562.589,-140.407 542.654,-125.017"/>
<polygon fill="black" stroke="black" points="544.536,-122.057 534.401,-118.969 540.398,-127.703 544.536,-122.057"/>
</a>
</g>
<!-- http://latin.omdoc.org/logics/syntax?DLBase&#45;&gt;http://latin.omdoc.org/logics/syntax?Catom -->
<g id="edge51" class="edge"><title>http://latin.omdoc.org/logics/syntax?DLBase&#45;&gt;http://latin.omdoc.org/logics/syntax?Catom</title>
<a class="graphinclude">
<path fill="none" stroke="black" d="M818.421,-440.548C745.292,-435.81 584.128,-424.399 449,-408 381.532,-399.812 303.702,-386.863 256.708,-378.656"/>
<polygon fill="black" stroke="black" points="257.047,-375.162 246.592,-376.88 255.836,-382.057 257.047,-375.162"/>
</a>
</g>
<!-- http://latin.omdoc.org/logics/syntax?DLBase&#45;&gt;http://latin.omdoc.org/logics/syntax?U -->
<g id="edge49" class="edge"><title>http://latin.omdoc.org/logics/syntax?DLBase&#45;&gt;http://latin.omdoc.org/logics/syntax?U</title>
<a class="graphinclude">
<path fill="none" stroke="black" d="M819.665,-438.62C755.906,-430.257 635,-409.344 635,-371 635,-371 635,-371 635,-193 635,-169.121 620.715,-145.701 607.731,-129.346"/>
<polygon fill="black" stroke="black" points="610.244,-126.896 601.142,-121.473 604.875,-131.388 610.244,-126.896"/>
</a>
</g>
<!-- http://latin.omdoc.org/logics/syntax?DLBase&#45;&gt;http://latin.omdoc.org/logics/syntax?H -->
<g id="edge47" class="edge"><title>http://latin.omdoc.org/logics/syntax?DLBase&#45;&gt;http://latin.omdoc.org/logics/syntax?H</title>
<a class="graphinclude">
<path fill="none" stroke="black" d="M817.604,-443.694C764.535,-442.252 678,-430.742 678,-371 678,-371 678,-371 678,-193 678,-172.613 672.846,-150.135 667.907,-133.273"/>
<polygon fill="black" stroke="black" points="671.205,-132.089 664.908,-123.569 664.517,-134.157 671.205,-132.089"/>
</a>
</g>
<!-- http://latin.omdoc.org/logics/syntax?DLBase&#45;&gt;http://latin.omdoc.org/logics/syntax?FL0 -->
<g id="edge43" class="edge"><title>http://latin.omdoc.org/logics/syntax?DLBase&#45;&gt;http://latin.omdoc.org/logics/syntax?FL0</title>
<a class="graphinclude">
<path fill="none" stroke="black" d="M817.804,-441.965C711.446,-438.756 414.085,-426.738 170,-388 157.898,-386.079 144.81,-383.185 133.207,-380.326"/>
<polygon fill="black" stroke="black" points="134.009,-376.918 123.456,-377.848 132.286,-383.703 134.009,-376.918"/>
</a>
</g>
<!-- http://latin.omdoc.org/logics/syntax?DLBase&#45;&gt;http://latin.omdoc.org/logics/syntax?F -->
<g id="edge41" class="edge"><title>http://latin.omdoc.org/logics/syntax?DLBase&#45;&gt;http://latin.omdoc.org/logics/syntax?F</title>
<a class="graphinclude">
<path fill="none" stroke="black" d="M824.423,-433.998C795.372,-423.933 758,-404.48 758,-371 758,-371 758,-371 758,-193 758,-171.939 750.538,-149.253 743.459,-132.472"/>
<polygon fill="black" stroke="black" points="746.656,-131.046 739.395,-123.331 740.259,-133.89 746.656,-131.046"/>
</a>
</g>
<!-- http://latin.omdoc.org/logics/syntax?DLBase&#45;&gt;http://latin.omdoc.org/logics/syntax?O -->
<g id="edge37" class="edge"><title>http://latin.omdoc.org/logics/syntax?DLBase&#45;&gt;http://latin.omdoc.org/logics/syntax?O</title>
<a class="graphinclude">
<path fill="none" stroke="black" d="M842.733,-427.288C831.076,-413.588 817,-392.577 817,-371 817,-371 817,-371 817,-193 817,-173.146 813.32,-151.044 809.733,-134.218"/>
<polygon fill="black" stroke="black" points="813.043,-132.986 807.43,-124 806.215,-134.525 813.043,-132.986"/>
</a>
</g>
<!-- http://latin.omdoc.org/logics/syntax?I -->
<g id="node29" class="node"><title>http://latin.omdoc.org/logics/syntax?I</title>
<a xlink:href="http://latin.omdoc.org/logics/syntax?I" class="graphtheory">
<ellipse fill="gray" stroke="black" cx="913" cy="-106" rx="27" ry="18"/>
<text text-anchor="middle" x="913" y="-102.3" font-family="Times New Roman,serif" font-size="14.00">I</text>
</a>
</g>
<!-- http://latin.omdoc.org/logics/syntax?DLBase&#45;&gt;http://latin.omdoc.org/logics/syntax?I -->
<g id="edge53" class="edge"><title>http://latin.omdoc.org/logics/syntax?DLBase&#45;&gt;http://latin.omdoc.org/logics/syntax?I</title>
<a class="graphinclude">
<path fill="none" stroke="black" d="M880.714,-428.83C898.057,-416.07 919,-395.575 919,-371 919,-371 919,-371 919,-193 919,-173.356 917.423,-151.249 915.886,-134.368"/>
<polygon fill="black" stroke="black" points="919.34,-133.727 914.898,-124.108 912.373,-134.398 919.34,-133.727"/>
</a>
</g>
<!-- http://latin.omdoc.org/logics/syntax?DLBase&#45;&gt;http://latin.omdoc.org/logics/syntax?C -->
<g id="edge35" class="edge"><title>http://latin.omdoc.org/logics/syntax?DLBase&#45;&gt;http://latin.omdoc.org/logics/syntax?C</title>
<a class="graphinclude">
<path fill="none" stroke="black" d="M818.096,-441.557C749.823,-438.525 613.908,-429.87 572,-408 528.178,-385.131 493.253,-337.681 474.677,-308.27"/>
<polygon fill="black" stroke="black" points="477.448,-306.095 469.229,-299.409 471.485,-309.761 477.448,-306.095"/>
</a>
</g>
<!-- http://latin.omdoc.org/logics/syntax?I&#45;&gt;http://latin.omdoc.org/logics/syntax?FOLEQ -->
<g id="edge29" class="edge"><title>http://latin.omdoc.org/logics/syntax?I&#45;&gt;http://latin.omdoc.org/logics/syntax?FOLEQ</title>
<a xlink:href="http://latin.omdoc.org/logics/model_theory?I" class="graphview">
<path fill="none" stroke="black" d="M904.616,-88.6707C897.608,-76.8634 886.44,-61.6877 872,-54 810.633,-21.33 606.274,-18.0608 510.432,-18.4048"/>
<polygon fill="black" stroke="black" points="510.382,-14.9049 500.4,-18.4556 510.418,-21.9048 510.382,-14.9049"/>
</a>
<a xlink:href="http://latin.omdoc.org/logics/model_theory?I" class="I">
<text text-anchor="middle" x="893.5" y="-58.3" font-family="Times New Roman,serif" font-size="14.00">I</text>
</a>
</g>
<!-- http://latin.omdoc.org/logics/syntax?C&#45;&gt;http://latin.omdoc.org/logics/syntax?FOLEQ -->
<g id="edge31" class="edge"><title>http://latin.omdoc.org/logics/syntax?C&#45;&gt;http://latin.omdoc.org/logics/syntax?FOLEQ</title>
<a xlink:href="http://latin.omdoc.org/logics/model_theory?C" class="graphview">
<path fill="none" stroke="black" d="M460,-263.809C460,-219.396 460,-100.533 460,-46.4614"/>
<polygon fill="black" stroke="black" points="463.5,-46.2538 460,-36.2538 456.5,-46.2539 463.5,-46.2538"/>
</a>
<a xlink:href="http://latin.omdoc.org/logics/model_theory?C" class="C">
<text text-anchor="middle" x="465" y="-146.3" font-family="Times New Roman,serif" font-size="14.00">C</text>
</a>
</g>
<!-- http://latin.omdoc.org/logics/syntax?C&#45;&gt;http://latin.omdoc.org/logics/syntax?ALC -->
<g id="edge33" class="edge"><title>http://latin.omdoc.org/logics/syntax?C&#45;&gt;http://latin.omdoc.org/logics/syntax?ALC</title>
<a class="graphinclude">
<path fill="none" stroke="black" d="M449.545,-265.226C441.082,-252.456 429.011,-234.244 419.283,-219.567"/>
<polygon fill="black" stroke="black" points="422.023,-217.367 413.581,-210.965 416.189,-221.234 422.023,-217.367"/>
</a>
</g>
</g>
</svg>
