<?xml version="1.0" encoding="UTF-8" standalone="no"?>
<!DOCTYPE svg PUBLIC "-//W3C//DTD SVG 1.1//EN"
 "http://www.w3.org/Graphics/SVG/1.1/DTD/svg11.dtd">
<!-- Generated by graphviz version 2.28.0 (20110507.0327)
 -->
<!-- Title: MMT Pages: 1 -->
<svg width="164pt" height="188pt"
 viewBox="0.00 0.00 164.00 188.00" xmlns="http://www.w3.org/2000/svg" xmlns:xlink="http://www.w3.org/1999/xlink">
<g id="graph1" class="graph" transform="scale(1 1) rotate(0) translate(4 184)">
<title>MMT</title>
<polygon fill="white" stroke="white" points="-4,5 -4,-184 161,-184 161,5 -4,5"/>
<g id="graph2" class="cluster"><title>cluster_local</title>
<polygon fill="none" stroke="black" points="8,-64 8,-116 134,-116 134,-64 8,-64"/>
</g>
<!-- http://latin.omdoc.org/foundations/mizar?Mizar&#45;Curry -->
<g id="node2" class="node"><title>http://latin.omdoc.org/foundations/mizar?Mizar&#45;Curry</title>
<a xlink:href="javascript:parent.navigate(&#39;http://latin.omdoc.org/foundations/mizar?Mizar-Curry&#39;)" xlink:title="theory http://latin.omdoc.org/foundations/mizar?Mizar&#45;Curry">
<ellipse fill="none" stroke="black" cx="71" cy="-90" rx="55.3682" ry="18"/>
<text text-anchor="middle" x="71" y="-86.3" font-family="Times New Roman,serif" font-size="14.00">Mizar&#45;Curry</text>
</a>
</g>
<!-- http://latin.omdoc.org/foundations/mizar?HIDDEN -->
<g id="node3" class="node"><title>http://latin.omdoc.org/foundations/mizar?HIDDEN</title>
<a xlink:href="javascript:parent.navigate(&#39;http://latin.omdoc.org/foundations/mizar?HIDDEN&#39;)" xlink:title="theory http://latin.omdoc.org/foundations/mizar?HIDDEN">
<ellipse fill="gray" stroke="black" cx="112" cy="-18" rx="44.2946" ry="18"/>
<text text-anchor="middle" x="112" y="-14.3" font-family="Times New Roman,serif" font-size="14.00">HIDDEN</text>
</a>
</g>
<!-- http://latin.omdoc.org/foundations/mizar?Mizar&#45;Curry&#45;&gt;http://latin.omdoc.org/foundations/mizar?HIDDEN -->
<g id="edge3" class="edge"><title>http://latin.omdoc.org/foundations/mizar?Mizar&#45;Curry&#45;&gt;http://latin.omdoc.org/foundations/mizar?HIDDEN</title>
<a xlink:title="include">
<path fill="none" stroke="black" d="M80.925,-72.055C85.7596,-63.8006 91.6749,-53.7014 97.0422,-44.5378"/>
<polygon fill="black" stroke="black" points="100.132,-46.1868 102.166,-35.789 94.0923,-42.6489 100.132,-46.1868"/>
</a>
</g>
<!-- http://cds.omdoc.org/urtheories?LF -->
<g id="node5" class="node"><title>http://cds.omdoc.org/urtheories?LF</title>
<a xlink:href="javascript:parent.navigate(&#39;http://cds.omdoc.org/urtheories?LF&#39;)" xlink:title="theory http://cds.omdoc.org/urtheories?LF">
<ellipse fill="gray" stroke="black" cx="112" cy="-162" rx="27" ry="18"/>
<text text-anchor="middle" x="112" y="-158.3" font-family="Times New Roman,serif" font-size="14.00">LF</text>
</a>
</g>
<!-- http://cds.omdoc.org/urtheories?LF&#45;&gt;http://latin.omdoc.org/foundations/mizar?Mizar&#45;Curry -->
<g id="edge5" class="edge"><title>http://cds.omdoc.org/urtheories?LF&#45;&gt;http://latin.omdoc.org/foundations/mizar?Mizar&#45;Curry</title>
<a xlink:title="meta">
<path fill="none" stroke="green" d="M102.491,-144.765C97.6649,-136.525 91.6855,-126.317 86.2377,-117.016"/>
<polygon fill="green" stroke="green" points="89.1039,-114.984 81.0297,-108.124 83.0637,-118.522 89.1039,-114.984"/>
</a>
</g>
<!-- http://cds.omdoc.org/urtheories?LF&#45;&gt;http://latin.omdoc.org/foundations/mizar?HIDDEN -->
<g id="edge7" class="edge"><title>http://cds.omdoc.org/urtheories?LF&#45;&gt;http://latin.omdoc.org/foundations/mizar?HIDDEN</title>
<a xlink:title="meta">
<path fill="none" stroke="green" d="M123.57,-145.658C129.111,-137.351 135.149,-126.632 138,-116 143.985,-93.6773 143.985,-86.3227 138,-64 136.179,-57.2078 133.057,-50.3804 129.595,-44.1688"/>
<polygon fill="green" stroke="green" points="132.568,-42.3216 124.391,-35.5845 126.582,-45.9504 132.568,-42.3216"/>
</a>
</g>
</g>
</svg>
