<?xml version="1.0" encoding="UTF-8" standalone="no"?>
<!DOCTYPE svg PUBLIC "-//W3C//DTD SVG 1.1//EN"
 "http://www.w3.org/Graphics/SVG/1.1/DTD/svg11.dtd">
<!-- Generated by graphviz version 2.28.0 (20110507.0327)
 -->
<!-- Title: MMT Pages: 1 -->
<svg width="197pt" height="280pt"
 viewBox="0.00 0.00 197.00 280.00" xmlns="http://www.w3.org/2000/svg" xmlns:xlink="http://www.w3.org/1999/xlink">
<g id="graph1" class="graph" transform="scale(1 1) rotate(0) translate(4 276)">
<title>MMT</title>
<polygon fill="white" stroke="white" points="-4,5 -4,-276 194,-276 194,5 -4,5"/>
<g id="graph2" class="cluster"><title>cluster_local</title>
<polygon fill="none" stroke="black" points="20,-80 20,-132 104,-132 104,-80 20,-80"/>
</g>
<!-- http://latin.omdoc.org/foundations/mizar?Tarski -->
<g id="node2" class="node"><title>http://latin.omdoc.org/foundations/mizar?Tarski</title>
<a xlink:href="javascript:parent.navigate(&#39;http://latin.omdoc.org/foundations/mizar?Tarski&#39;)" xlink:title="theory http://latin.omdoc.org/foundations/mizar?Tarski">
<ellipse fill="none" stroke="black" cx="62" cy="-106" rx="33.1991" ry="18"/>
<text text-anchor="middle" x="62" y="-102.3" font-family="Times New Roman,serif" font-size="14.00">Tarski</text>
</a>
</g>
<!-- http://latin.omdoc.org/foundations/mizar?Mizar_ZFC -->
<g id="node3" class="node"><title>http://latin.omdoc.org/foundations/mizar?Mizar_ZFC</title>
<a xlink:href="javascript:parent.navigate(&#39;http://latin.omdoc.org/foundations/mizar?Mizar_ZFC&#39;)" xlink:title="theory http://latin.omdoc.org/foundations/mizar?Mizar_ZFC">
<ellipse fill="gray" stroke="black" cx="53" cy="-18" rx="52.9443" ry="18"/>
<text text-anchor="middle" x="53" y="-14.3" font-family="Times New Roman,serif" font-size="14.00">Mizar_ZFC</text>
</a>
</g>
<!-- http://latin.omdoc.org/foundations/mizar?Tarski&#45;&gt;http://latin.omdoc.org/foundations/mizar?Mizar_ZFC -->
<g id="edge3" class="edge"><title>http://latin.omdoc.org/foundations/mizar?Tarski&#45;&gt;http://latin.omdoc.org/foundations/mizar?Mizar_ZFC</title>
<a xlink:href="javascript:parent.navigate(&#39;http://latin.omdoc.org/foundations/mizar?TarskiView&#39;)" xlink:title="view http://latin.omdoc.org/foundations/mizar?TarskiView">
<path fill="none" stroke="blue" stroke-dasharray="5,2" d="M56.4127,-88.265C55.0566,-82.5458 53.7493,-76.1391 53.0075,-70.1219 52.0516,-62.314 51.6366,-53.8704 51.5,-46.0878"/>
<path fill="none" stroke="blue" stroke-dasharray="5,2" d="M58.3587,-87.8034C57.0162,-82.1459 55.709,-75.7393 54.9925,-69.8781 54.0492,-62.2158 53.6342,-53.7722 53.4997,-46.0529"/>
<polygon fill="blue" stroke="blue" points="55.9999,-46.0491 52.464,-36.0617 48.9999,-46.0742 55.9999,-46.0491"/>
</a>
<a xlink:href="javascript:parent.navigate(&#39;http://latin.omdoc.org/foundations/mizar?TarskiView&#39;)" xlink:title="TarskiView">
<text text-anchor="middle" x="86" y="-58.3" font-family="Times New Roman,serif" font-size="14.00">TarskiView</text>
</a>
</g>
<!-- http://latin.omdoc.org/foundations/mizar?Mizar -->
<g id="node5" class="node"><title>http://latin.omdoc.org/foundations/mizar?Mizar</title>
<a xlink:href="javascript:parent.navigate(&#39;http://latin.omdoc.org/foundations/mizar?Mizar&#39;)" xlink:title="theory http://latin.omdoc.org/foundations/mizar?Mizar">
<ellipse fill="gray" stroke="black" cx="109" cy="-180" rx="31.2965" ry="18"/>
<text text-anchor="middle" x="109" y="-176.3" font-family="Times New Roman,serif" font-size="14.00">Mizar</text>
</a>
</g>
<!-- http://latin.omdoc.org/foundations/mizar?Mizar&#45;&gt;http://latin.omdoc.org/foundations/mizar?Tarski -->
<g id="edge5" class="edge"><title>http://latin.omdoc.org/foundations/mizar?Mizar&#45;&gt;http://latin.omdoc.org/foundations/mizar?Tarski</title>
<a xlink:title="include">
<path fill="none" stroke="black" d="M98.5692,-163.021C92.5869,-153.857 84.9479,-142.154 78.2004,-131.818"/>
<polygon fill="black" stroke="black" points="80.9613,-129.644 72.5642,-123.183 75.0996,-133.47 80.9613,-129.644"/>
</a>
</g>
<!-- http://latin.omdoc.org/foundations/mizar?Mizar&#45;&gt;http://latin.omdoc.org/foundations/mizar?Mizar_ZFC -->
<g id="edge13" class="edge"><title>http://latin.omdoc.org/foundations/mizar?Mizar&#45;&gt;http://latin.omdoc.org/foundations/mizar?Mizar_ZFC</title>
<a xlink:href="javascript:parent.navigate(&#39;http://latin.omdoc.org/foundations/mizar?MizarView&#39;)" xlink:title="view http://latin.omdoc.org/foundations/mizar?MizarView">
<path fill="none" stroke="blue" stroke-dasharray="5,2" d="M114.972,-161.883C124.225,-136.574 137.34,-87.7368 117.141,-54.5128 112.892,-47.3099 106.268,-41.362 99.0487,-36.7303"/>
<path fill="none" stroke="blue" stroke-dasharray="5,2" d="M116.851,-162.569C126.156,-137.092 139.271,-88.2555 118.859,-53.4872 114.228,-45.8218 107.604,-39.8739 100.131,-35.0486"/>
<polygon fill="blue" stroke="blue" points="101.152,-32.7518 90.7228,-30.8829 97.7099,-38.8473 101.152,-32.7518"/>
</a>
<a xlink:href="javascript:parent.navigate(&#39;http://latin.omdoc.org/foundations/mizar?MizarView&#39;)" xlink:title="MizarView">
<text text-anchor="middle" x="158.5" y="-102.3" font-family="Times New Roman,serif" font-size="14.00">MizarView</text>
</a>
</g>
<!-- http://cds.omdoc.org/urtheories?LF -->
<g id="node7" class="node"><title>http://cds.omdoc.org/urtheories?LF</title>
<a xlink:href="javascript:parent.navigate(&#39;http://cds.omdoc.org/urtheories?LF&#39;)" xlink:title="theory http://cds.omdoc.org/urtheories?LF">
<ellipse fill="gray" stroke="black" cx="50" cy="-254" rx="27" ry="18"/>
<text text-anchor="middle" x="50" y="-250.3" font-family="Times New Roman,serif" font-size="14.00">LF</text>
</a>
</g>
<!-- http://cds.omdoc.org/urtheories?LF&#45;&gt;http://latin.omdoc.org/foundations/mizar?Tarski -->
<g id="edge7" class="edge"><title>http://cds.omdoc.org/urtheories?LF&#45;&gt;http://latin.omdoc.org/foundations/mizar?Tarski</title>
<a xlink:title="meta">
<path fill="none" stroke="green" d="M51.4,-235.966C53.4484,-211.045 57.2843,-164.374 59.7367,-134.537"/>
<polygon fill="green" stroke="green" points="63.2407,-134.631 60.5717,-124.378 56.2642,-134.058 63.2407,-134.631"/>
</a>
</g>
<!-- http://cds.omdoc.org/urtheories?LF&#45;&gt;http://latin.omdoc.org/foundations/mizar?Mizar_ZFC -->
<g id="edge11" class="edge"><title>http://cds.omdoc.org/urtheories?LF&#45;&gt;http://latin.omdoc.org/foundations/mizar?Mizar_ZFC</title>
<a xlink:title="meta">
<path fill="none" stroke="green" d="M41.7206,-236.581C27.2131,-205.612 0.176267,-136.599 16,-80 19.5955,-67.1393 26.7249,-54.292 33.774,-43.7277"/>
<polygon fill="green" stroke="green" points="36.7115,-45.6349 39.597,-35.4406 30.984,-41.6105 36.7115,-45.6349"/>
</a>
</g>
<!-- http://cds.omdoc.org/urtheories?LF&#45;&gt;http://latin.omdoc.org/foundations/mizar?Mizar -->
<g id="edge9" class="edge"><title>http://cds.omdoc.org/urtheories?LF&#45;&gt;http://latin.omdoc.org/foundations/mizar?Mizar</title>
<a xlink:title="meta">
<path fill="none" stroke="green" d="M62.5124,-237.731C70.3833,-228.125 80.7016,-215.534 89.6172,-204.654"/>
<polygon fill="green" stroke="green" points="92.4667,-206.698 96.0978,-196.745 87.0523,-202.261 92.4667,-206.698"/>
</a>
</g>
</g>
</svg>
