<?xml version="1.0" encoding="UTF-8" standalone="no"?>
<!DOCTYPE svg PUBLIC "-//W3C//DTD SVG 1.1//EN"
 "http://www.w3.org/Graphics/SVG/1.1/DTD/svg11.dtd">
<!-- Generated by graphviz version 2.28.0 (20110507.0327)
 -->
<!-- Title: MMT Pages: 1 -->
<svg width="248pt" height="188pt"
 viewBox="0.00 0.00 248.00 188.00" xmlns="http://www.w3.org/2000/svg" xmlns:xlink="http://www.w3.org/1999/xlink">
<g id="graph1" class="graph" transform="scale(1 1) rotate(0) translate(4 184)">
<title>MMT</title>
<polygon fill="white" stroke="white" points="-4,5 -4,-184 245,-184 245,5 -4,5"/>
<g id="graph2" class="cluster"><title>cluster_local</title>
<polygon fill="none" stroke="black" points="40,-64 40,-116 144,-116 144,-64 40,-64"/>
</g>
<!-- http://latin.omdoc.org/logics/model_theory/categorical?Cartesian -->
<g id="node2" class="node"><title>http://latin.omdoc.org/logics/model_theory/categorical?Cartesian</title>
<a xlink:href="javascript:parent.navigate(&#39;http://latin.omdoc.org/logics/model_theory/categorical?Cartesian&#39;)" xlink:title="theory http://latin.omdoc.org/logics/model_theory/categorical?Cartesian">
<ellipse fill="none" stroke="black" cx="92" cy="-90" rx="44.2946" ry="18"/>
<text text-anchor="middle" x="92" y="-86.3" font-family="Times New Roman,serif" font-size="14.00">Cartesian</text>
</a>
</g>
<!-- http://latin.omdoc.org/logics/model_theory/categorical?CartesianClosed -->
<g id="node3" class="node"><title>http://latin.omdoc.org/logics/model_theory/categorical?CartesianClosed</title>
<a xlink:href="javascript:parent.navigate(&#39;http://latin.omdoc.org/logics/model_theory/categorical?CartesianClosed&#39;)" xlink:title="theory http://latin.omdoc.org/logics/model_theory/categorical?CartesianClosed">
<ellipse fill="gray" stroke="black" cx="70" cy="-18" rx="70.2909" ry="18"/>
<text text-anchor="middle" x="70" y="-14.3" font-family="Times New Roman,serif" font-size="14.00">CartesianClosed</text>
</a>
</g>
<!-- http://latin.omdoc.org/logics/model_theory/categorical?Cartesian&#45;&gt;http://latin.omdoc.org/logics/model_theory/categorical?CartesianClosed -->
<g id="edge3" class="edge"><title>http://latin.omdoc.org/logics/model_theory/categorical?Cartesian&#45;&gt;http://latin.omdoc.org/logics/model_theory/categorical?CartesianClosed</title>
<a xlink:title="include">
<path fill="none" stroke="black" d="M86.6744,-72.055C84.2249,-64.2609 81.2583,-54.8219 78.5105,-46.0789"/>
<polygon fill="black" stroke="black" points="81.7667,-44.7658 75.4294,-36.2753 75.0887,-46.8647 81.7667,-44.7658"/>
</a>
</g>
<!-- http://latin.omdoc.org/logics/model_theory/categorical?ILL -->
<g id="node5" class="node"><title>http://latin.omdoc.org/logics/model_theory/categorical?ILL</title>
<a xlink:href="javascript:parent.navigate(&#39;http://latin.omdoc.org/logics/model_theory/categorical?ILL&#39;)" xlink:title="theory http://latin.omdoc.org/logics/model_theory/categorical?ILL">
<ellipse fill="gray" stroke="black" cx="185" cy="-18" rx="27" ry="18"/>
<text text-anchor="middle" x="185" y="-14.3" font-family="Times New Roman,serif" font-size="14.00">ILL</text>
</a>
</g>
<!-- http://latin.omdoc.org/logics/model_theory/categorical?Cartesian&#45;&gt;http://latin.omdoc.org/logics/model_theory/categorical?ILL -->
<g id="edge5" class="edge"><title>http://latin.omdoc.org/logics/model_theory/categorical?Cartesian&#45;&gt;http://latin.omdoc.org/logics/model_theory/categorical?ILL</title>
<a xlink:title="include">
<path fill="none" stroke="black" d="M112.18,-73.811C126.023,-63.391 144.508,-49.4778 159.389,-38.2768"/>
<polygon fill="black" stroke="black" points="161.788,-40.8522 167.673,-32.0421 157.578,-35.2595 161.788,-40.8522"/>
</a>
</g>
<!-- http://latin.omdoc.org/logics/model_theory/categorical?CatLog -->
<g id="node7" class="node"><title>http://latin.omdoc.org/logics/model_theory/categorical?CatLog</title>
<a xlink:href="javascript:parent.navigate(&#39;http://latin.omdoc.org/logics/model_theory/categorical?CatLog&#39;)" xlink:title="theory http://latin.omdoc.org/logics/model_theory/categorical?CatLog">
<ellipse fill="gray" stroke="black" cx="202" cy="-162" rx="38.0212" ry="18"/>
<text text-anchor="middle" x="202" y="-158.3" font-family="Times New Roman,serif" font-size="14.00">CatLog</text>
</a>
</g>
<!-- http://latin.omdoc.org/logics/model_theory/categorical?CatLog&#45;&gt;http://latin.omdoc.org/logics/model_theory/categorical?Cartesian -->
<g id="edge7" class="edge"><title>http://latin.omdoc.org/logics/model_theory/categorical?CatLog&#45;&gt;http://latin.omdoc.org/logics/model_theory/categorical?Cartesian</title>
<a xlink:title="include">
<path fill="none" stroke="black" d="M180.268,-147.17C164.018,-136.829 141.562,-122.539 123.367,-110.961"/>
<polygon fill="black" stroke="black" points="125.139,-107.94 114.823,-105.524 121.381,-113.846 125.139,-107.94"/>
</a>
</g>
<!-- http://latin.omdoc.org/logics/model_theory/categorical?CatLog&#45;&gt;http://latin.omdoc.org/logics/model_theory/categorical?CartesianClosed -->
<g id="edge15" class="edge"><title>http://latin.omdoc.org/logics/model_theory/categorical?CatLog&#45;&gt;http://latin.omdoc.org/logics/model_theory/categorical?CartesianClosed</title>
<a xlink:title="include">
<path fill="none" stroke="black" d="M195.887,-144.152C187.642,-123.288 171.261,-87.6201 148,-64 138.209,-54.0585 125.765,-45.5793 113.707,-38.7512"/>
<polygon fill="black" stroke="black" points="115.076,-35.5134 104.612,-33.8547 111.758,-41.6769 115.076,-35.5134"/>
</a>
</g>
<!-- http://latin.omdoc.org/logics/model_theory/categorical?CatLog&#45;&gt;http://latin.omdoc.org/logics/model_theory/categorical?ILL -->
<g id="edge17" class="edge"><title>http://latin.omdoc.org/logics/model_theory/categorical?CatLog&#45;&gt;http://latin.omdoc.org/logics/model_theory/categorical?ILL</title>
<a xlink:title="include">
<path fill="none" stroke="black" d="M208.836,-144.17C215.809,-124.539 224.491,-91.2944 216,-64 213.636,-56.4021 209.494,-48.9523 204.992,-42.3692"/>
<polygon fill="black" stroke="black" points="207.54,-39.931 198.763,-33.997 201.924,-44.1093 207.54,-39.931"/>
</a>
</g>
<!-- http://cds.omdoc.org/urtheories?LF -->
<g id="node9" class="node"><title>http://cds.omdoc.org/urtheories?LF</title>
<a xlink:href="javascript:parent.navigate(&#39;http://cds.omdoc.org/urtheories?LF&#39;)" xlink:title="theory http://cds.omdoc.org/urtheories?LF">
<ellipse fill="gray" stroke="black" cx="92" cy="-162" rx="27" ry="18"/>
<text text-anchor="middle" x="92" y="-158.3" font-family="Times New Roman,serif" font-size="14.00">LF</text>
</a>
</g>
<!-- http://cds.omdoc.org/urtheories?LF&#45;&gt;http://latin.omdoc.org/logics/model_theory/categorical?Cartesian -->
<g id="edge9" class="edge"><title>http://cds.omdoc.org/urtheories?LF&#45;&gt;http://latin.omdoc.org/logics/model_theory/categorical?Cartesian</title>
<a xlink:title="meta">
<path fill="none" stroke="green" d="M92,-143.697C92,-135.983 92,-126.712 92,-118.112"/>
<polygon fill="green" stroke="green" points="95.5001,-118.104 92,-108.104 88.5001,-118.104 95.5001,-118.104"/>
</a>
</g>
<!-- http://cds.omdoc.org/urtheories?LF&#45;&gt;http://latin.omdoc.org/logics/model_theory/categorical?CartesianClosed -->
<g id="edge11" class="edge"><title>http://cds.omdoc.org/urtheories?LF&#45;&gt;http://latin.omdoc.org/logics/model_theory/categorical?CartesianClosed</title>
<a xlink:title="meta">
<path fill="none" stroke="green" d="M71.1719,-150.52C58.4525,-142.867 43.2773,-131.184 36,-116 26.0112,-95.159 28.6528,-85.9121 36,-64 38.3969,-56.8515 42.4279,-49.9322 46.8931,-43.7508"/>
<polygon fill="green" stroke="green" points="49.6971,-45.8474 53.1385,-35.827 44.1995,-41.5142 49.6971,-45.8474"/>
</a>
</g>
<!-- http://cds.omdoc.org/urtheories?LF&#45;&gt;http://latin.omdoc.org/logics/model_theory/categorical?ILL -->
<g id="edge13" class="edge"><title>http://cds.omdoc.org/urtheories?LF&#45;&gt;http://latin.omdoc.org/logics/model_theory/categorical?ILL</title>
<a xlink:title="meta">
<path fill="none" stroke="green" d="M111.332,-149.288C123.283,-141.209 138.165,-129.513 148,-116 163.425,-94.8068 173.265,-66.3888 178.888,-45.7941"/>
<polygon fill="green" stroke="green" points="182.28,-46.6549 181.383,-36.0981 175.501,-44.9102 182.28,-46.6549"/>
</a>
</g>
</g>
</svg>
