<?xml version="1.0" encoding="UTF-8" standalone="no"?>
<!DOCTYPE svg PUBLIC "-//W3C//DTD SVG 1.1//EN"
 "http://www.w3.org/Graphics/SVG/1.1/DTD/svg11.dtd">
<!-- Generated by graphviz version 2.28.0 (20110507.0327)
 -->
<!-- Title: MMT Pages: 1 -->
<svg width="1256pt" height="276pt"
 viewBox="0.00 0.00 1256.00 276.00" xmlns="http://www.w3.org/2000/svg" xmlns:xlink="http://www.w3.org/1999/xlink">
<g id="graph1" class="graph" transform="scale(1 1) rotate(0) translate(4 272)">
<title>MMT</title>
<polygon fill="white" stroke="white" points="-4,5 -4,-272 1253,-272 1253,5 -4,5"/>
<g id="graph2" class="cluster"><title>cluster_local</title>
<polygon fill="none" stroke="black" points="8,-8 8,-60 1240,-60 1240,-8 8,-8"/>
</g>
<!-- http://latin.omdoc.org/foundations/type_theory/church?Unit -->
<g id="node2" class="node"><title>http://latin.omdoc.org/foundations/type_theory/church?Unit</title>
<a xlink:href="http://latin.omdoc.org/foundations/type_theory/church?Unit" class="graphtheory">
<ellipse fill="none" stroke="black" cx="669" cy="-34" rx="27" ry="18"/>
<text text-anchor="middle" x="669" y="-30.3" font-family="Times New Roman,serif" font-size="14.00">Unit</text>
</a>
</g>
<!-- http://latin.omdoc.org/foundations/type_theory/church?PartialFunctionsDom -->
<g id="node3" class="node"><title>http://latin.omdoc.org/foundations/type_theory/church?PartialFunctionsDom</title>
<a xlink:href="http://latin.omdoc.org/foundations/type_theory/church?PartialFunctionsDom" class="graphtheory">
<ellipse fill="none" stroke="black" cx="801" cy="-34" rx="87.1385" ry="18"/>
<text text-anchor="middle" x="801" y="-30.3" font-family="Times New Roman,serif" font-size="14.00">PartialFunctionsDom</text>
</a>
</g>
<!-- http://latin.omdoc.org/foundations/type_theory/church?IdentityTypes -->
<g id="node4" class="node"><title>http://latin.omdoc.org/foundations/type_theory/church?IdentityTypes</title>
<a xlink:href="http://latin.omdoc.org/foundations/type_theory/church?IdentityTypes" class="graphtheory">
<ellipse fill="none" stroke="black" cx="195" cy="-34" rx="61.1419" ry="18"/>
<text text-anchor="middle" x="195" y="-30.3" font-family="Times New Roman,serif" font-size="14.00">IdentityTypes</text>
</a>
</g>
<!-- http://latin.omdoc.org/foundations/type_theory/church?DisjUnion -->
<g id="node5" class="node"><title>http://latin.omdoc.org/foundations/type_theory/church?DisjUnion</title>
<a xlink:href="http://latin.omdoc.org/foundations/type_theory/church?DisjUnion" class="graphtheory">
<ellipse fill="none" stroke="black" cx="953" cy="-34" rx="46.1964" ry="18"/>
<text text-anchor="middle" x="953" y="-30.3" font-family="Times New Roman,serif" font-size="14.00">DisjUnion</text>
</a>
</g>
<!-- http://latin.omdoc.org/foundations/type_theory/church?PartialFunctions -->
<g id="node6" class="node"><title>http://latin.omdoc.org/foundations/type_theory/church?PartialFunctions</title>
<a xlink:href="http://latin.omdoc.org/foundations/type_theory/church?PartialFunctions" class="graphtheory">
<ellipse fill="none" stroke="black" cx="1162" cy="-34" rx="69.3156" ry="18"/>
<text text-anchor="middle" x="1162" y="-30.3" font-family="Times New Roman,serif" font-size="14.00">PartialFunctions</text>
</a>
</g>
<!-- http://latin.omdoc.org/foundations/type_theory/church?NonEmpty -->
<g id="node7" class="node"><title>http://latin.omdoc.org/foundations/type_theory/church?NonEmpty</title>
<a xlink:href="http://latin.omdoc.org/foundations/type_theory/church?NonEmpty" class="graphtheory">
<ellipse fill="none" stroke="black" cx="66" cy="-34" rx="50.0684" ry="18"/>
<text text-anchor="middle" x="66" y="-30.3" font-family="Times New Roman,serif" font-size="14.00">NonEmpty</text>
</a>
</g>
<!-- http://latin.omdoc.org/foundations/type_theory/church?Products -->
<g id="node8" class="node"><title>http://latin.omdoc.org/foundations/type_theory/church?Products</title>
<a xlink:href="http://latin.omdoc.org/foundations/type_theory/church?Products" class="graphtheory">
<ellipse fill="none" stroke="black" cx="318" cy="-34" rx="44.2946" ry="18"/>
<text text-anchor="middle" x="318" y="-30.3" font-family="Times New Roman,serif" font-size="14.00">Products</text>
</a>
</g>
<!-- http://latin.omdoc.org/foundations/type_theory/church?DependentSum -->
<g id="node9" class="node"><title>http://latin.omdoc.org/foundations/type_theory/church?DependentSum</title>
<a xlink:href="http://latin.omdoc.org/foundations/type_theory/church?DependentSum" class="graphtheory">
<ellipse fill="none" stroke="black" cx="446" cy="-34" rx="65.9423" ry="18"/>
<text text-anchor="middle" x="446" y="-30.3" font-family="Times New Roman,serif" font-size="14.00">DependentSum</text>
</a>
</g>
<!-- http://latin.omdoc.org/foundations/type_theory/church?Functions -->
<g id="node10" class="node"><title>http://latin.omdoc.org/foundations/type_theory/church?Functions</title>
<a xlink:href="http://latin.omdoc.org/foundations/type_theory/church?Functions" class="graphtheory">
<ellipse fill="none" stroke="black" cx="577" cy="-34" rx="46.1964" ry="18"/>
<text text-anchor="middle" x="577" y="-30.3" font-family="Times New Roman,serif" font-size="14.00">Functions</text>
</a>
</g>
<!-- http://latin.omdoc.org/foundations/type_theory/church?Void -->
<g id="node11" class="node"><title>http://latin.omdoc.org/foundations/type_theory/church?Void</title>
<a xlink:href="http://latin.omdoc.org/foundations/type_theory/church?Void" class="graphtheory">
<ellipse fill="none" stroke="black" cx="1046" cy="-34" rx="28.3955" ry="18"/>
<text text-anchor="middle" x="1046" y="-30.3" font-family="Times New Roman,serif" font-size="14.00">Void</text>
</a>
</g>
<!-- http://latin.omdoc.org/foundations/type_theory/church?Logic -->
<g id="node12" class="node"><title>http://latin.omdoc.org/foundations/type_theory/church?Logic</title>
<a xlink:href="http://latin.omdoc.org/foundations/type_theory/church?Logic" class="graphtheory">
<ellipse fill="gray" stroke="black" cx="893" cy="-106" rx="31.2735" ry="18"/>
<text text-anchor="middle" x="893" y="-102.3" font-family="Times New Roman,serif" font-size="14.00">Logic</text>
</a>
</g>
<!-- http://latin.omdoc.org/foundations/type_theory/church?Logic&#45;&gt;http://latin.omdoc.org/foundations/type_theory/church?Unit -->
<g id="edge3" class="edge"><title>http://latin.omdoc.org/foundations/type_theory/church?Logic&#45;&gt;http://latin.omdoc.org/foundations/type_theory/church?Unit</title>
<a class="graphinclude">
<path fill="none" stroke="black" d="M862.577,-101.264C824.441,-95.7938 757.685,-83.5887 705,-60 701.278,-58.3335 697.537,-56.2691 693.947,-54.0464"/>
<polygon fill="black" stroke="black" points="695.688,-50.9997 685.435,-48.3318 691.786,-56.8115 695.688,-50.9997"/>
</a>
</g>
<!-- http://latin.omdoc.org/foundations/type_theory/church?Logic&#45;&gt;http://latin.omdoc.org/foundations/type_theory/church?PartialFunctionsDom -->
<g id="edge9" class="edge"><title>http://latin.omdoc.org/foundations/type_theory/church?Logic&#45;&gt;http://latin.omdoc.org/foundations/type_theory/church?PartialFunctionsDom</title>
<a class="graphinclude">
<path fill="none" stroke="black" d="M874.824,-91.1703C862.304,-81.6444 845.38,-68.7673 830.894,-57.7457"/>
<polygon fill="black" stroke="black" points="832.777,-54.7799 822.699,-51.5101 828.538,-60.3507 832.777,-54.7799"/>
</a>
</g>
<!-- http://latin.omdoc.org/foundations/type_theory/church?Logic&#45;&gt;http://latin.omdoc.org/foundations/type_theory/church?DisjUnion -->
<g id="edge19" class="edge"><title>http://latin.omdoc.org/foundations/type_theory/church?Logic&#45;&gt;http://latin.omdoc.org/foundations/type_theory/church?DisjUnion</title>
<a class="graphinclude">
<path fill="none" stroke="black" d="M906.316,-89.4647C913.944,-80.5657 923.681,-69.2051 932.288,-59.1644"/>
<polygon fill="black" stroke="black" points="935.035,-61.3376 938.885,-51.4672 929.72,-56.782 935.035,-61.3376"/>
</a>
</g>
<!-- http://latin.omdoc.org/foundations/type_theory/church?Logic&#45;&gt;http://latin.omdoc.org/foundations/type_theory/church?PartialFunctions -->
<g id="edge27" class="edge"><title>http://latin.omdoc.org/foundations/type_theory/church?Logic&#45;&gt;http://latin.omdoc.org/foundations/type_theory/church?PartialFunctions</title>
<a class="graphinclude">
<path fill="none" stroke="black" d="M922.14,-98.8007C959.576,-90.6762 1026.47,-75.6153 1083,-60 1092.26,-57.4414 1102.07,-54.5159 1111.51,-51.5893"/>
<polygon fill="black" stroke="black" points="1112.68,-54.8902 1121.17,-48.5543 1110.58,-48.2119 1112.68,-54.8902"/>
</a>
</g>
<!-- http://latin.omdoc.org/foundations/type_theory/church?Logic&#45;&gt;http://latin.omdoc.org/foundations/type_theory/church?Void -->
<g id="edge49" class="edge"><title>http://latin.omdoc.org/foundations/type_theory/church?Logic&#45;&gt;http://latin.omdoc.org/foundations/type_theory/church?Void</title>
<a class="graphinclude">
<path fill="none" stroke="black" d="M919.72,-96.3281C943.479,-88.2028 978.866,-75.0731 1008,-60 1011.79,-58.0405 1015.67,-55.7953 1019.43,-53.4721"/>
<polygon fill="black" stroke="black" points="1021.4,-56.3662 1027.91,-48.0075 1017.61,-50.482 1021.4,-56.3662"/>
</a>
</g>
<!-- http://latin.omdoc.org/foundations/type_theory/church?Equality -->
<g id="node14" class="node"><title>http://latin.omdoc.org/foundations/type_theory/church?Equality</title>
<a xlink:href="http://latin.omdoc.org/foundations/type_theory/church?Equality" class="graphtheory">
<ellipse fill="gray" stroke="black" cx="633" cy="-106" rx="39.9464" ry="18"/>
<text text-anchor="middle" x="633" y="-102.3" font-family="Times New Roman,serif" font-size="14.00">Equality</text>
</a>
</g>
<!-- http://latin.omdoc.org/foundations/type_theory/church?Equality&#45;&gt;http://latin.omdoc.org/foundations/type_theory/church?Unit -->
<g id="edge5" class="edge"><title>http://latin.omdoc.org/foundations/type_theory/church?Equality&#45;&gt;http://latin.omdoc.org/foundations/type_theory/church?Unit</title>
<a class="graphinclude">
<path fill="none" stroke="black" d="M641.531,-88.411C645.836,-80.0421 651.149,-69.7098 655.953,-60.3698"/>
<polygon fill="black" stroke="black" points="659.069,-61.9636 660.53,-51.4699 652.844,-58.7621 659.069,-61.9636"/>
</a>
</g>
<!-- http://latin.omdoc.org/foundations/type_theory/church?Equality&#45;&gt;http://latin.omdoc.org/foundations/type_theory/church?PartialFunctionsDom -->
<g id="edge11" class="edge"><title>http://latin.omdoc.org/foundations/type_theory/church?Equality&#45;&gt;http://latin.omdoc.org/foundations/type_theory/church?PartialFunctionsDom</title>
<a class="graphinclude">
<path fill="none" stroke="black" d="M661.499,-93.1255C687.01,-82.4959 724.883,-66.7155 754.732,-54.2783"/>
<polygon fill="black" stroke="black" points="756.231,-57.4455 764.115,-50.3686 753.539,-50.984 756.231,-57.4455"/>
</a>
</g>
<!-- http://latin.omdoc.org/foundations/type_theory/church?Equality&#45;&gt;http://latin.omdoc.org/foundations/type_theory/church?IdentityTypes -->
<g id="edge15" class="edge"><title>http://latin.omdoc.org/foundations/type_theory/church?Equality&#45;&gt;http://latin.omdoc.org/foundations/type_theory/church?IdentityTypes</title>
<a class="graphinclude">
<path fill="none" stroke="black" d="M602.458,-94.1247C594.876,-91.7759 586.711,-89.5387 579,-88 441.6,-60.5815 401.854,-90.0261 265,-60 256.3,-58.0911 247.202,-55.3942 238.554,-52.473"/>
<polygon fill="black" stroke="black" points="239.621,-49.138 229.027,-49.1095 237.291,-55.7388 239.621,-49.138"/>
</a>
</g>
<!-- http://latin.omdoc.org/foundations/type_theory/church?Equality&#45;&gt;http://latin.omdoc.org/foundations/type_theory/church?DisjUnion -->
<g id="edge21" class="edge"><title>http://latin.omdoc.org/foundations/type_theory/church?Equality&#45;&gt;http://latin.omdoc.org/foundations/type_theory/church?DisjUnion</title>
<a class="graphinclude">
<path fill="none" stroke="black" d="M672.178,-101.425C724.358,-95.9667 819.134,-83.606 897,-60 903.504,-58.0284 910.245,-55.4858 916.702,-52.7795"/>
<polygon fill="black" stroke="black" points="918.146,-55.968 925.897,-48.7449 915.334,-49.5579 918.146,-55.968"/>
</a>
</g>
<!-- http://latin.omdoc.org/foundations/type_theory/church?Equality&#45;&gt;http://latin.omdoc.org/foundations/type_theory/church?PartialFunctions -->
<g id="edge29" class="edge"><title>http://latin.omdoc.org/foundations/type_theory/church?Equality&#45;&gt;http://latin.omdoc.org/foundations/type_theory/church?PartialFunctions</title>
<a class="graphinclude">
<path fill="none" stroke="black" d="M672.491,-102.105C767.136,-94.9976 1004.85,-76.0924 1083,-60 1093.04,-57.9328 1103.61,-55.0797 1113.64,-52.0384"/>
<polygon fill="black" stroke="black" points="1114.96,-55.2933 1123.45,-48.9564 1112.86,-48.6152 1114.96,-55.2933"/>
</a>
</g>
<!-- http://latin.omdoc.org/foundations/type_theory/church?Equality&#45;&gt;http://latin.omdoc.org/foundations/type_theory/church?Products -->
<g id="edge37" class="edge"><title>http://latin.omdoc.org/foundations/type_theory/church?Equality&#45;&gt;http://latin.omdoc.org/foundations/type_theory/church?Products</title>
<a class="graphinclude">
<path fill="none" stroke="black" d="M602.122,-94.2811C594.622,-91.9558 586.578,-89.6899 579,-88 487.958,-67.6984 460.456,-86.43 371,-60 364.853,-58.1839 358.522,-55.7476 352.469,-53.1064"/>
<polygon fill="black" stroke="black" points="353.8,-49.8656 343.254,-48.8468 350.863,-56.2196 353.8,-49.8656"/>
</a>
</g>
<!-- http://latin.omdoc.org/foundations/type_theory/church?Equality&#45;&gt;http://latin.omdoc.org/foundations/type_theory/church?DependentSum -->
<g id="edge41" class="edge"><title>http://latin.omdoc.org/foundations/type_theory/church?Equality&#45;&gt;http://latin.omdoc.org/foundations/type_theory/church?DependentSum</title>
<a class="graphinclude">
<path fill="none" stroke="black" d="M602.955,-93.7533C573.228,-82.6256 527.299,-65.4327 492.791,-52.5154"/>
<polygon fill="black" stroke="black" points="493.976,-49.222 483.384,-48.994 491.522,-55.7777 493.976,-49.222"/>
</a>
</g>
<!-- http://latin.omdoc.org/foundations/type_theory/church?Equality&#45;&gt;http://latin.omdoc.org/foundations/type_theory/church?Functions -->
<g id="edge45" class="edge"><title>http://latin.omdoc.org/foundations/type_theory/church?Equality&#45;&gt;http://latin.omdoc.org/foundations/type_theory/church?Functions</title>
<a class="graphinclude">
<path fill="none" stroke="black" d="M620.012,-88.7646C613.114,-80.143 604.492,-69.3647 596.781,-59.7267"/>
<polygon fill="black" stroke="black" points="599.287,-57.2557 590.307,-51.6334 593.821,-61.6286 599.287,-57.2557"/>
</a>
</g>
<!-- http://cds.omdoc.org/urtheories?LF -->
<g id="node16" class="node"><title>http://cds.omdoc.org/urtheories?LF</title>
<a xlink:href="http://cds.omdoc.org/urtheories?LF" class="graphtheory">
<ellipse fill="gray" stroke="black" cx="527" cy="-250" rx="27" ry="18"/>
<text text-anchor="middle" x="527" y="-246.3" font-family="Times New Roman,serif" font-size="14.00">LF</text>
</a>
</g>
<!-- http://cds.omdoc.org/urtheories?LF&#45;&gt;http://latin.omdoc.org/foundations/type_theory/church?Unit -->
<g id="edge7" class="edge"><title>http://cds.omdoc.org/urtheories?LF&#45;&gt;http://latin.omdoc.org/foundations/type_theory/church?Unit</title>
<a class="graphmeta">
<path fill="none" stroke="black" d="M553.389,-245.808C601.944,-239.333 702.377,-222.941 723,-196 755.38,-153.701 715.151,-90.9071 688.678,-57.6213"/>
<polygon fill="black" stroke="black" points="691.339,-55.3465 682.297,-49.825 685.922,-59.7802 691.339,-55.3465"/>
</a>
</g>
<!-- http://cds.omdoc.org/urtheories?LF&#45;&gt;http://latin.omdoc.org/foundations/type_theory/church?PartialFunctionsDom -->
<g id="edge13" class="edge"><title>http://cds.omdoc.org/urtheories?LF&#45;&gt;http://latin.omdoc.org/foundations/type_theory/church?PartialFunctionsDom</title>
<a class="graphmeta">
<path fill="none" stroke="black" d="M554.128,-249.981C598.899,-250.108 688.602,-243.846 742,-196 780.879,-161.164 794.178,-98.5082 798.699,-62.4917"/>
<polygon fill="black" stroke="black" points="802.213,-62.555 799.838,-52.2297 795.256,-61.7822 802.213,-62.555"/>
</a>
</g>
<!-- http://cds.omdoc.org/urtheories?LF&#45;&gt;http://latin.omdoc.org/foundations/type_theory/church?IdentityTypes -->
<g id="edge17" class="edge"><title>http://cds.omdoc.org/urtheories?LF&#45;&gt;http://latin.omdoc.org/foundations/type_theory/church?IdentityTypes</title>
<a class="graphmeta">
<path fill="none" stroke="black" d="M507.15,-237.728C488.788,-227.203 460.819,-210.921 437,-196 360.065,-147.805 271.747,-87.8364 226.041,-56.4439"/>
<polygon fill="black" stroke="black" points="227.972,-53.5241 217.75,-50.7411 224.006,-59.2917 227.972,-53.5241"/>
</a>
</g>
<!-- http://cds.omdoc.org/urtheories?LF&#45;&gt;http://latin.omdoc.org/foundations/type_theory/church?DisjUnion -->
<g id="edge23" class="edge"><title>http://cds.omdoc.org/urtheories?LF&#45;&gt;http://latin.omdoc.org/foundations/type_theory/church?DisjUnion</title>
<a class="graphmeta">
<path fill="none" stroke="black" d="M554.304,-249.361C611.683,-249.106 747.825,-243.123 849,-196 893.573,-175.24 907.652,-166.134 933,-124 944.261,-105.283 949.193,-80.8987 951.347,-62.3878"/>
<polygon fill="black" stroke="black" points="954.848,-62.5438 952.322,-52.2547 947.88,-61.8738 954.848,-62.5438"/>
</a>
</g>
<!-- http://cds.omdoc.org/urtheories?LF&#45;&gt;http://latin.omdoc.org/foundations/type_theory/church?PartialFunctions -->
<g id="edge31" class="edge"><title>http://cds.omdoc.org/urtheories?LF&#45;&gt;http://latin.omdoc.org/foundations/type_theory/church?PartialFunctions</title>
<a class="graphmeta">
<path fill="none" stroke="black" d="M554.486,-249.765C621.265,-250.705 796.375,-247.63 930,-196 1014.03,-163.532 1096.96,-94.7261 1137.07,-58.4748"/>
<polygon fill="black" stroke="black" points="1139.49,-61.0075 1144.51,-51.679 1134.77,-55.8391 1139.49,-61.0075"/>
</a>
</g>
<!-- http://cds.omdoc.org/urtheories?LF&#45;&gt;http://latin.omdoc.org/foundations/type_theory/church?NonEmpty -->
<g id="edge35" class="edge"><title>http://cds.omdoc.org/urtheories?LF&#45;&gt;http://latin.omdoc.org/foundations/type_theory/church?NonEmpty</title>
<a class="graphmeta">
<path fill="none" stroke="black" d="M503.129,-241.351C473.923,-231.761 423.159,-214.342 381,-196 276.438,-150.51 157.857,-86.319 100.59,-54.4802"/>
<polygon fill="black" stroke="black" points="102.047,-51.2856 91.6089,-49.4724 98.6384,-57.3994 102.047,-51.2856"/>
</a>
</g>
<!-- http://cds.omdoc.org/urtheories?LF&#45;&gt;http://latin.omdoc.org/foundations/type_theory/church?Products -->
<g id="edge39" class="edge"><title>http://cds.omdoc.org/urtheories?LF&#45;&gt;http://latin.omdoc.org/foundations/type_theory/church?Products</title>
<a class="graphmeta">
<path fill="none" stroke="black" d="M512.635,-234.291C476.964,-197.767 384.115,-102.697 340.831,-58.3776"/>
<polygon fill="black" stroke="black" points="343.085,-55.6759 333.594,-50.9672 338.077,-60.5669 343.085,-55.6759"/>
</a>
</g>
<!-- http://cds.omdoc.org/urtheories?LF&#45;&gt;http://latin.omdoc.org/foundations/type_theory/church?DependentSum -->
<g id="edge43" class="edge"><title>http://cds.omdoc.org/urtheories?LF&#45;&gt;http://latin.omdoc.org/foundations/type_theory/church?DependentSum</title>
<a class="graphmeta">
<path fill="none" stroke="black" d="M520.644,-232.208C506.631,-195.186 472.986,-106.297 456.07,-61.6044"/>
<polygon fill="black" stroke="black" points="459.252,-60.1238 452.438,-52.0103 452.705,-62.6018 459.252,-60.1238"/>
</a>
</g>
<!-- http://cds.omdoc.org/urtheories?LF&#45;&gt;http://latin.omdoc.org/foundations/type_theory/church?Functions -->
<g id="edge47" class="edge"><title>http://cds.omdoc.org/urtheories?LF&#45;&gt;http://latin.omdoc.org/foundations/type_theory/church?Functions</title>
<a class="graphmeta">
<path fill="none" stroke="black" d="M530.477,-231.901C534.166,-213.956 540.247,-184.94 546,-160 553.827,-126.067 563.605,-87.1552 570.063,-61.8828"/>
<polygon fill="black" stroke="black" points="573.518,-62.4971 572.611,-51.9411 566.738,-60.7586 573.518,-62.4971"/>
</a>
</g>
<!-- http://cds.omdoc.org/urtheories?LF&#45;&gt;http://latin.omdoc.org/foundations/type_theory/church?Void -->
<g id="edge51" class="edge"><title>http://cds.omdoc.org/urtheories?LF&#45;&gt;http://latin.omdoc.org/foundations/type_theory/church?Void</title>
<a class="graphmeta">
<path fill="none" stroke="black" d="M553.828,-247.345C627.57,-242.444 831.78,-226.417 891,-196 953.839,-163.725 1005.7,-95.9211 1030.41,-59.4511"/>
<polygon fill="black" stroke="black" points="1033.47,-61.1603 1036.1,-50.8949 1027.64,-57.2851 1033.47,-61.1603"/>
</a>
</g>
<!-- http://cds.omdoc.org/urtheories?LF&#45;&gt;http://latin.omdoc.org/foundations/type_theory/church?Logic -->
<g id="edge57" class="edge"><title>http://cds.omdoc.org/urtheories?LF&#45;&gt;http://latin.omdoc.org/foundations/type_theory/church?Logic</title>
<a class="graphmeta">
<path fill="none" stroke="black" d="M554.405,-249.752C608.068,-250.033 729.241,-244.714 815,-196 841.922,-180.708 864.177,-152.578 877.931,-132.025"/>
<polygon fill="black" stroke="black" points="880.975,-133.762 883.465,-123.464 875.097,-129.961 880.975,-133.762"/>
</a>
</g>
<!-- http://cds.omdoc.org/urtheories?LF&#45;&gt;http://latin.omdoc.org/foundations/type_theory/church?Equality -->
<g id="edge59" class="edge"><title>http://cds.omdoc.org/urtheories?LF&#45;&gt;http://latin.omdoc.org/foundations/type_theory/church?Equality</title>
<a class="graphmeta">
<path fill="none" stroke="black" d="M553.241,-245.11C598.371,-237.824 687.625,-220.604 706,-196 715.574,-183.18 713.266,-174.255 706,-160 698.24,-144.777 683.836,-132.903 669.859,-124.288"/>
<polygon fill="black" stroke="black" points="671.226,-121.037 660.811,-119.096 667.742,-127.109 671.226,-121.037"/>
</a>
</g>
<!-- http://latin.omdoc.org/logics/proof_theory?Truth -->
<g id="node26" class="node"><title>http://latin.omdoc.org/logics/proof_theory?Truth</title>
<a xlink:href="http://latin.omdoc.org/logics/proof_theory?Truth" class="graphtheory">
<ellipse fill="gray" stroke="black" cx="1152" cy="-106" rx="30.3206" ry="18"/>
<text text-anchor="middle" x="1152" y="-102.3" font-family="Times New Roman,serif" font-size="14.00">Truth</text>
</a>
</g>
<!-- http://cds.omdoc.org/urtheories?LF&#45;&gt;http://latin.omdoc.org/logics/proof_theory?Truth -->
<g id="edge63" class="edge"><title>http://cds.omdoc.org/urtheories?LF&#45;&gt;http://latin.omdoc.org/logics/proof_theory?Truth</title>
<a class="graphmeta">
<path fill="none" stroke="black" d="M554.019,-249.376C653.224,-250.314 996.427,-249.549 1089,-196 1113.47,-181.844 1130.83,-153.914 1141.05,-133.1"/>
<polygon fill="black" stroke="black" points="1144.32,-134.372 1145.37,-123.829 1137.97,-131.417 1144.32,-134.372"/>
</a>
</g>
<!-- http://latin.omdoc.org/foundations/type_theory/church?IndexedUniverse -->
<g id="node31" class="node"><title>http://latin.omdoc.org/foundations/type_theory/church?IndexedUniverse</title>
<a xlink:href="http://latin.omdoc.org/foundations/type_theory/church?IndexedUniverse" class="graphtheory">
<ellipse fill="gray" stroke="black" cx="626" cy="-178" rx="71.2405" ry="18"/>
<text text-anchor="middle" x="626" y="-174.3" font-family="Times New Roman,serif" font-size="14.00">IndexedUniverse</text>
</a>
</g>
<!-- http://cds.omdoc.org/urtheories?LF&#45;&gt;http://latin.omdoc.org/foundations/type_theory/church?IndexedUniverse -->
<g id="edge61" class="edge"><title>http://cds.omdoc.org/urtheories?LF&#45;&gt;http://latin.omdoc.org/foundations/type_theory/church?IndexedUniverse</title>
<a class="graphmeta">
<path fill="none" stroke="black" d="M545.158,-236.161C559.038,-226.347 578.504,-212.583 594.856,-201.021"/>
<polygon fill="black" stroke="black" points="596.933,-203.839 603.078,-195.208 592.892,-198.123 596.933,-203.839"/>
</a>
</g>
<!-- http://latin.omdoc.org/logics/proof_theory?Truth&#45;&gt;http://latin.omdoc.org/foundations/type_theory/church?PartialFunctions -->
<g id="edge25" class="edge"><title>http://latin.omdoc.org/logics/proof_theory?Truth&#45;&gt;http://latin.omdoc.org/foundations/type_theory/church?PartialFunctions</title>
<a class="graphinclude">
<path fill="none" stroke="black" d="M1154.42,-88.055C1155.52,-80.3456 1156.85,-71.0269 1158.09,-62.3642"/>
<polygon fill="black" stroke="black" points="1161.58,-62.6698 1159.53,-52.2753 1154.65,-61.6798 1161.58,-62.6698"/>
</a>
</g>
<!-- http://latin.omdoc.org/foundations/type_theory/church?IndexedUniverse&#45;&gt;http://latin.omdoc.org/foundations/type_theory/church?NonEmpty -->
<g id="edge33" class="edge"><title>http://latin.omdoc.org/foundations/type_theory/church?IndexedUniverse&#45;&gt;http://latin.omdoc.org/foundations/type_theory/church?NonEmpty</title>
<a class="graphinclude">
<path fill="none" stroke="black" d="M569.16,-167.02C475.337,-149.818 282.742,-111.419 125,-60 118.391,-57.8457 111.493,-55.2537 104.842,-52.5659"/>
<polygon fill="black" stroke="black" points="105.911,-49.2198 95.3345,-48.5995 103.216,-55.6801 105.911,-49.2198"/>
</a>
</g>
<!-- http://latin.omdoc.org/foundations/type_theory/church?IndexedUniverse&#45;&gt;http://latin.omdoc.org/foundations/type_theory/church?Logic -->
<g id="edge53" class="edge"><title>http://latin.omdoc.org/foundations/type_theory/church?IndexedUniverse&#45;&gt;http://latin.omdoc.org/foundations/type_theory/church?Logic</title>
<a class="graphinclude">
<path fill="none" stroke="black" d="M673.427,-164.566C725.222,-150.987 807.151,-129.507 854.925,-116.982"/>
<polygon fill="black" stroke="black" points="856.078,-120.298 864.864,-114.377 854.303,-113.527 856.078,-120.298"/>
</a>
</g>
<!-- http://latin.omdoc.org/foundations/type_theory/church?IndexedUniverse&#45;&gt;http://latin.omdoc.org/foundations/type_theory/church?Equality -->
<g id="edge55" class="edge"><title>http://latin.omdoc.org/foundations/type_theory/church?IndexedUniverse&#45;&gt;http://latin.omdoc.org/foundations/type_theory/church?Equality</title>
<a class="graphinclude">
<path fill="none" stroke="black" d="M627.73,-159.697C628.502,-151.983 629.429,-142.712 630.289,-134.112"/>
<polygon fill="black" stroke="black" points="633.777,-134.403 631.29,-124.104 626.812,-133.706 633.777,-134.403"/>
</a>
</g>
</g>
</svg>
