<?xml version="1.0" encoding="UTF-8" standalone="no"?>
<!DOCTYPE svg PUBLIC "-//W3C//DTD SVG 1.1//EN"
 "http://www.w3.org/Graphics/SVG/1.1/DTD/svg11.dtd">
<!-- Generated by graphviz version 2.28.0 (20110507.0327)
 -->
<!-- Title: MMT Pages: 1 -->
<svg width="450pt" height="294pt"
 viewBox="0.00 0.00 450.00 294.00" xmlns="http://www.w3.org/2000/svg" xmlns:xlink="http://www.w3.org/1999/xlink">
<g id="graph1" class="graph" transform="scale(1 1) rotate(0) translate(4 290)">
<title>MMT</title>
<polygon fill="white" stroke="white" points="-4,5 -4,-290 447,-290 447,5 -4,5"/>
<g id="graph2" class="cluster"><title>cluster_local</title>
<polygon fill="none" stroke="black" points="311,-80 311,-220 385,-220 385,-80 311,-80"/>
</g>
<!-- http://latin.omdoc.org/foundations/isabelle?HOL -->
<g id="node2" class="node"><title>http://latin.omdoc.org/foundations/isabelle?HOL</title>
<a xlink:href="http://latin.omdoc.org/foundations/isabelle?HOL" class="graphtheory">
<ellipse fill="none" stroke="black" cx="348" cy="-106" rx="29.3722" ry="18"/>
<text text-anchor="middle" x="348" y="-102.3" font-family="Times New Roman,serif" font-size="14.00">HOL</text>
</a>
</g>
<!-- http://latin.omdoc.org/foundations/isabelle?NesetZFC -->
<g id="node4" class="node"><title>http://latin.omdoc.org/foundations/isabelle?NesetZFC</title>
<a xlink:href="http://latin.omdoc.org/foundations/isabelle?NesetZFC" class="graphtheory">
<ellipse fill="gray" stroke="black" cx="394" cy="-18" rx="48.1437" ry="18"/>
<text text-anchor="middle" x="394" y="-14.3" font-family="Times New Roman,serif" font-size="14.00">NesetZFC</text>
</a>
</g>
<!-- http://latin.omdoc.org/foundations/isabelle?HOL&#45;&gt;http://latin.omdoc.org/foundations/isabelle?NesetZFC -->
<g id="edge3" class="edge"><title>http://latin.omdoc.org/foundations/isabelle?HOL&#45;&gt;http://latin.omdoc.org/foundations/isabelle?NesetZFC</title>
<a xlink:href="http://latin.omdoc.org/foundations/isabelle?HOLSemantics" class="graphview">
<path fill="none" stroke="black" d="M342.8,-88.0222C340.608,-77.6441 339.643,-64.4101 345,-54 347.982,-48.2048 352.418,-43.1565 357.423,-38.8349"/>
<polygon fill="black" stroke="black" points="359.756,-41.4585 365.628,-32.6393 355.538,-35.8722 359.756,-41.4585"/>
</a>
<a xlink:href="http://latin.omdoc.org/foundations/isabelle?HOLSemantics" class="HOLSemantics">
<text text-anchor="middle" x="388" y="-58.3" font-family="Times New Roman,serif" font-size="14.00">HOLSemantics</text>
</a>
</g>
<!-- http://latin.omdoc.org/foundations/isabelle?Pure -->
<g id="node3" class="node"><title>http://latin.omdoc.org/foundations/isabelle?Pure</title>
<a xlink:href="http://latin.omdoc.org/foundations/isabelle?Pure" class="graphtheory">
<ellipse fill="none" stroke="black" cx="348" cy="-194" rx="26.949" ry="18"/>
<text text-anchor="middle" x="348" y="-190.3" font-family="Times New Roman,serif" font-size="14.00">Pure</text>
</a>
</g>
<!-- http://latin.omdoc.org/foundations/isabelle?Pure&#45;&gt;http://latin.omdoc.org/foundations/isabelle?HOL -->
<g id="edge5" class="edge"><title>http://latin.omdoc.org/foundations/isabelle?Pure&#45;&gt;http://latin.omdoc.org/foundations/isabelle?HOL</title>
<a class="graphinclude">
<path fill="none" stroke="black" d="M348,-175.597C348,-163.746 348,-147.817 348,-134.292"/>
<polygon fill="black" stroke="black" points="351.5,-134.084 348,-124.084 344.5,-134.084 351.5,-134.084"/>
</a>
</g>
<!-- http://latin.omdoc.org/foundations/isabelle?HOLSemantics -->
<g id="node9" class="node"><title>http://latin.omdoc.org/foundations/isabelle?HOLSemantics</title>
<a xlink:href="http://latin.omdoc.org/foundations/isabelle?HOLSemantics" class="graphtheory">
<ellipse fill="gray" stroke="black" cx="66" cy="-106" rx="65.9423" ry="18"/>
<text text-anchor="middle" x="66" y="-102.3" font-family="Times New Roman,serif" font-size="14.00">HOLSemantics</text>
</a>
</g>
<!-- http://latin.omdoc.org/foundations/isabelle?Pure&#45;&gt;http://latin.omdoc.org/foundations/isabelle?HOLSemantics -->
<g id="edge9" class="edge"><title>http://latin.omdoc.org/foundations/isabelle?Pure&#45;&gt;http://latin.omdoc.org/foundations/isabelle?HOLSemantics</title>
<a xlink:href="http://latin.omdoc.org/foundations/isabelle?HOLSemantics?[http://latin.omdoc.org/foundations/isabelle?Pure]" class="graphstructure">
<path fill="none" stroke="black" d="M320.621,-191.56C253.491,-187.757 84.9402,-176.448 68,-158 62.2053,-151.69 60.5024,-142.871 60.6271,-134.339"/>
<polygon fill="black" stroke="black" points="64.1236,-134.535 61.5335,-124.261 57.1517,-133.908 64.1236,-134.535"/>
</a>
<a xlink:href="http://latin.omdoc.org/foundations/isabelle?HOLSemantics?[http://latin.omdoc.org/foundations/isabelle?Pure]" class="[http://latin.omdoc.org/foundations/isabelle?Pure]">
<text text-anchor="middle" x="206" y="-146.3" font-family="Times New Roman,serif" font-size="14.00">[http://latin.omdoc.org/foundations/isabelle?Pure]</text>
</a>
</g>
<!-- http://cds.omdoc.org/urtheories?LF -->
<g id="node7" class="node"><title>http://cds.omdoc.org/urtheories?LF</title>
<a xlink:href="http://cds.omdoc.org/urtheories?LF" class="graphtheory">
<ellipse fill="gray" stroke="black" cx="348" cy="-268" rx="27" ry="18"/>
<text text-anchor="middle" x="348" y="-264.3" font-family="Times New Roman,serif" font-size="14.00">LF</text>
</a>
</g>
<!-- http://cds.omdoc.org/urtheories?LF&#45;&gt;http://latin.omdoc.org/foundations/isabelle?HOL -->
<g id="edge7" class="edge"><title>http://cds.omdoc.org/urtheories?LF&#45;&gt;http://latin.omdoc.org/foundations/isabelle?HOL</title>
<a class="graphmeta">
<path fill="none" stroke="black" d="M362.832,-252.845C370.776,-244.21 379.776,-232.46 384,-220 394.283,-189.665 378.774,-154.47 365.023,-131.523"/>
<polygon fill="black" stroke="black" points="367.805,-129.373 359.511,-122.781 361.884,-133.107 367.805,-129.373"/>
</a>
</g>
<!-- http://cds.omdoc.org/urtheories?LF&#45;&gt;http://latin.omdoc.org/foundations/isabelle?Pure -->
<g id="edge11" class="edge"><title>http://cds.omdoc.org/urtheories?LF&#45;&gt;http://latin.omdoc.org/foundations/isabelle?Pure</title>
<a class="graphmeta">
<path fill="none" stroke="black" d="M348,-249.937C348,-241.807 348,-231.876 348,-222.705"/>
<polygon fill="black" stroke="black" points="351.5,-222.441 348,-212.441 344.5,-222.441 351.5,-222.441"/>
</a>
</g>
<!-- http://cds.omdoc.org/urtheories?LF&#45;&gt;http://latin.omdoc.org/foundations/isabelle?NesetZFC -->
<g id="edge13" class="edge"><title>http://cds.omdoc.org/urtheories?LF&#45;&gt;http://latin.omdoc.org/foundations/isabelle?NesetZFC</title>
<a class="graphmeta">
<path fill="none" stroke="black" d="M367.561,-255.088C376.431,-248.989 386.572,-240.963 394,-232 426.739,-192.494 408.408,-290.947 431,-70 431.723,-62.9258 433.812,-60.5314 431,-54 429.048,-49.4672 426.189,-45.2473 422.91,-41.4193"/>
<polygon fill="black" stroke="black" points="425.256,-38.8129 415.749,-34.1374 420.265,-43.7213 425.256,-38.8129"/>
</a>
</g>
</g>
</svg>
