<?xml version="1.0" encoding="UTF-8" standalone="no"?>
<!DOCTYPE svg PUBLIC "-//W3C//DTD SVG 1.1//EN"
 "http://www.w3.org/Graphics/SVG/1.1/DTD/svg11.dtd">
<!-- Generated by graphviz version 2.28.0 (20110507.0327)
 -->
<!-- Title: MMT Pages: 1 -->
<svg width="236pt" height="280pt"
 viewBox="0.00 0.00 236.00 280.00" xmlns="http://www.w3.org/2000/svg" xmlns:xlink="http://www.w3.org/1999/xlink">
<g id="graph1" class="graph" transform="scale(1 1) rotate(0) translate(4 276)">
<title>MMT</title>
<polygon fill="white" stroke="white" points="-4,5 -4,-276 233,-276 233,5 -4,5"/>
<g id="graph2" class="cluster"><title>cluster_local</title>
<polygon fill="none" stroke="black" points="35,-80 35,-132 109,-132 109,-80 35,-80"/>
</g>
<!-- http://latin.omdoc.org/foundations/isabelle?HOL -->
<g id="node2" class="node"><title>http://latin.omdoc.org/foundations/isabelle?HOL</title>
<a xlink:href="http://latin.omdoc.org/foundations/isabelle?HOL" class="graphtheory">
<ellipse fill="none" stroke="black" cx="72" cy="-106" rx="29.3722" ry="18"/>
<text text-anchor="middle" x="72" y="-102.3" font-family="Times New Roman,serif" font-size="14.00">HOL</text>
</a>
</g>
<!-- http://latin.omdoc.org/foundations/isabelle?NesetZFC -->
<g id="node3" class="node"><title>http://latin.omdoc.org/foundations/isabelle?NesetZFC</title>
<a xlink:href="http://latin.omdoc.org/foundations/isabelle?NesetZFC" class="graphtheory">
<ellipse fill="gray" stroke="black" cx="48" cy="-18" rx="48.1437" ry="18"/>
<text text-anchor="middle" x="48" y="-14.3" font-family="Times New Roman,serif" font-size="14.00">NesetZFC</text>
</a>
</g>
<!-- http://latin.omdoc.org/foundations/isabelle?HOL&#45;&gt;http://latin.omdoc.org/foundations/isabelle?NesetZFC -->
<g id="edge3" class="edge"><title>http://latin.omdoc.org/foundations/isabelle?HOL&#45;&gt;http://latin.omdoc.org/foundations/isabelle?NesetZFC</title>
<a xlink:href="http://latin.omdoc.org/foundations/isabelle?HOLSemantics" class="graphview">
<path fill="none" stroke="black" d="M59.1843,-89.5864C55.1324,-83.805 51.1521,-76.9452 49,-70 46.6933,-62.556 45.8543,-54.2034 45.7465,-46.4465"/>
<polygon fill="black" stroke="black" points="49.2471,-46.459 45.9836,-36.3793 42.249,-46.2941 49.2471,-46.459"/>
</a>
<a xlink:href="http://latin.omdoc.org/foundations/isabelle?HOLSemantics" class="HOLSemantics">
<text text-anchor="middle" x="92" y="-58.3" font-family="Times New Roman,serif" font-size="14.00">HOLSemantics</text>
</a>
</g>
<!-- http://latin.omdoc.org/foundations/isabelle?Pure -->
<g id="node5" class="node"><title>http://latin.omdoc.org/foundations/isabelle?Pure</title>
<a xlink:href="http://latin.omdoc.org/foundations/isabelle?Pure" class="graphtheory">
<ellipse fill="gray" stroke="black" cx="117" cy="-180" rx="26.949" ry="18"/>
<text text-anchor="middle" x="117" y="-176.3" font-family="Times New Roman,serif" font-size="14.00">Pure</text>
</a>
</g>
<!-- http://latin.omdoc.org/foundations/isabelle?Pure&#45;&gt;http://latin.omdoc.org/foundations/isabelle?HOL -->
<g id="edge5" class="edge"><title>http://latin.omdoc.org/foundations/isabelle?Pure&#45;&gt;http://latin.omdoc.org/foundations/isabelle?HOL</title>
<a class="graphinclude">
<path fill="none" stroke="black" d="M107.013,-163.021C101.245,-153.792 93.8691,-141.99 87.3756,-131.601"/>
<polygon fill="black" stroke="black" points="90.2271,-129.559 81.959,-122.934 84.2911,-133.269 90.2271,-129.559"/>
</a>
</g>
<!-- http://latin.omdoc.org/foundations/isabelle?Pure&#45;&gt;http://latin.omdoc.org/foundations/isabelle?NesetZFC -->
<g id="edge13" class="edge"><title>http://latin.omdoc.org/foundations/isabelle?Pure&#45;&gt;http://latin.omdoc.org/foundations/isabelle?NesetZFC</title>
<a xlink:href="http://latin.omdoc.org/foundations/isabelle?PureSemantics" class="graphview">
<path fill="none" stroke="black" d="M125.83,-162.832C138.405,-137.379 157.584,-87.4286 135,-54 127.006,-42.1674 114.277,-34.3343 100.996,-29.1492"/>
<polygon fill="black" stroke="black" points="101.882,-25.7532 91.2876,-25.8223 99.6129,-32.3752 101.882,-25.7532"/>
</a>
<a xlink:href="http://latin.omdoc.org/foundations/isabelle?PureSemantics" class="PureSemantics">
<text text-anchor="middle" x="186.5" y="-102.3" font-family="Times New Roman,serif" font-size="14.00">PureSemantics</text>
</a>
</g>
<!-- http://cds.omdoc.org/urtheories?LF -->
<g id="node7" class="node"><title>http://cds.omdoc.org/urtheories?LF</title>
<a xlink:href="http://cds.omdoc.org/urtheories?LF" class="graphtheory">
<ellipse fill="gray" stroke="black" cx="62" cy="-254" rx="27" ry="18"/>
<text text-anchor="middle" x="62" y="-250.3" font-family="Times New Roman,serif" font-size="14.00">LF</text>
</a>
</g>
<!-- http://cds.omdoc.org/urtheories?LF&#45;&gt;http://latin.omdoc.org/foundations/isabelle?HOL -->
<g id="edge7" class="edge"><title>http://cds.omdoc.org/urtheories?LF&#45;&gt;http://latin.omdoc.org/foundations/isabelle?HOL</title>
<a class="graphmeta">
<path fill="none" stroke="black" d="M63.1667,-235.966C64.8737,-211.045 68.0703,-164.374 70.1139,-134.537"/>
<polygon fill="black" stroke="black" points="73.6181,-134.594 70.8097,-124.378 66.6345,-134.115 73.6181,-134.594"/>
</a>
</g>
<!-- http://cds.omdoc.org/urtheories?LF&#45;&gt;http://latin.omdoc.org/foundations/isabelle?NesetZFC -->
<g id="edge11" class="edge"><title>http://cds.omdoc.org/urtheories?LF&#45;&gt;http://latin.omdoc.org/foundations/isabelle?NesetZFC</title>
<a class="graphmeta">
<path fill="none" stroke="black" d="M55.4922,-236.372C44.2468,-205.624 23.1043,-137.743 31,-80 32.5527,-68.6446 35.66,-56.4218 38.7982,-45.9211"/>
<polygon fill="black" stroke="black" points="42.2286,-46.6799 41.8903,-36.0905 35.5511,-44.5795 42.2286,-46.6799"/>
</a>
</g>
<!-- http://cds.omdoc.org/urtheories?LF&#45;&gt;http://latin.omdoc.org/foundations/isabelle?Pure -->
<g id="edge9" class="edge"><title>http://cds.omdoc.org/urtheories?LF&#45;&gt;http://latin.omdoc.org/foundations/isabelle?Pure</title>
<a class="graphmeta">
<path fill="none" stroke="black" d="M73.6641,-237.731C80.9294,-228.22 90.4318,-215.78 98.6865,-204.974"/>
<polygon fill="black" stroke="black" points="101.683,-206.816 104.973,-196.745 96.1207,-202.567 101.683,-206.816"/>
</a>
</g>
</g>
</svg>
