<?xml version="1.0" encoding="UTF-8" standalone="no"?>
<!DOCTYPE svg PUBLIC "-//W3C//DTD SVG 1.1//EN"
 "http://www.w3.org/Graphics/SVG/1.1/DTD/svg11.dtd">
<!-- Generated by graphviz version 2.28.0 (20110507.0327)
 -->
<!-- Title: MMT Pages: 1 -->
<svg
 viewBox="0.00 0.00 596.00 222.00" xmlns="http://www.w3.org/2000/svg" xmlns:xlink="http://www.w3.org/1999/xlink">
<g id="graph1" class="graph" transform="scale(1 1) rotate(0) translate(4 218)">
<title>MMT</title>
<polygon fill="white" stroke="white" points="-4,5 -4,-218 593,-218 593,5 -4,5"/>
<g id="graph2" class="cluster"><title>cluster_local</title>
<polygon fill="none" stroke="black" points="103,-8 103,-148 223,-148 223,-8 103,-8"/>
</g>
<!-- http://latin.omdoc.org/foundations/isabelle?HOL -->
<g id="node2" class="node"><title>http://latin.omdoc.org/foundations/isabelle?HOL</title>
<a xlink:href="http://latin.omdoc.org/foundations/isabelle?HOL" class="graphtheory">
<ellipse fill="none" stroke="black" cx="140" cy="-122" rx="29.3722" ry="18"/>
<text text-anchor="middle" x="140" y="-118.3" font-family="Times New Roman,serif" font-size="14.00">HOL</text>
</a>
</g>
<!-- http://latin.omdoc.org/foundations/isabelle?NesetZFC -->
<g id="node3" class="node"><title>http://latin.omdoc.org/foundations/isabelle?NesetZFC</title>
<a xlink:href="http://latin.omdoc.org/foundations/isabelle?NesetZFC" class="graphtheory">
<ellipse fill="none" stroke="black" cx="167" cy="-34" rx="48.1437" ry="18"/>
<text text-anchor="middle" x="167" y="-30.3" font-family="Times New Roman,serif" font-size="14.00">NesetZFC</text>
</a>
</g>
<!-- http://latin.omdoc.org/foundations/isabelle?HOL&#45;&gt;http://latin.omdoc.org/foundations/isabelle?NesetZFC -->
<g id="edge3" class="edge"><title>http://latin.omdoc.org/foundations/isabelle?HOL&#45;&gt;http://latin.omdoc.org/foundations/isabelle?NesetZFC</title>
<a xlink:href="http://latin.omdoc.org/foundations/isabelle?HOLSemantics" class="graphview">
<path fill="none" stroke="black" d="M145.334,-104.009C149.106,-91.9947 154.241,-75.641 158.564,-61.8691"/>
<polygon fill="black" stroke="black" points="162.021,-62.5448 161.677,-51.9555 155.342,-60.448 162.021,-62.5448"/>
</a>
<a xlink:href="http://latin.omdoc.org/foundations/isabelle?HOLSemantics" class="HOLSemantics">
<text text-anchor="middle" x="199" y="-74.3" font-family="Times New Roman,serif" font-size="14.00">HOLSemantics</text>
</a>
</g>
<!-- http://latin.omdoc.org/foundations/isabelle?Pure -->
<g id="node5" class="node"><title>http://latin.omdoc.org/foundations/isabelle?Pure</title>
<a xlink:href="http://latin.omdoc.org/foundations/isabelle?Pure" class="graphtheory">
<ellipse fill="gray" stroke="black" cx="357" cy="-122" rx="26.949" ry="18"/>
<text text-anchor="middle" x="357" y="-118.3" font-family="Times New Roman,serif" font-size="14.00">Pure</text>
</a>
</g>
<!-- http://latin.omdoc.org/foundations/isabelle?Pure&#45;&gt;http://latin.omdoc.org/foundations/isabelle?HOL -->
<g id="edge5" class="edge"><title>http://latin.omdoc.org/foundations/isabelle?Pure&#45;&gt;http://latin.omdoc.org/foundations/isabelle?HOL</title>
<a class="graphinclude">
<path fill="none" stroke="black" d="M344.339,-138.414C336.217,-147.543 324.812,-158.038 312,-163 285.06,-173.432 208.756,-173.894 182,-163 173.317,-159.465 165.451,-153.175 158.936,-146.568"/>
<polygon fill="black" stroke="black" points="161.236,-143.893 151.94,-138.811 156.038,-148.581 161.236,-143.893"/>
</a>
</g>
<!-- http://latin.omdoc.org/foundations/isabelle?Pure&#45;&gt;http://latin.omdoc.org/foundations/isabelle?NesetZFC -->
<g id="edge9" class="edge"><title>http://latin.omdoc.org/foundations/isabelle?Pure&#45;&gt;http://latin.omdoc.org/foundations/isabelle?NesetZFC</title>
<a xlink:href="http://latin.omdoc.org/foundations/isabelle?PureSemantics" class="graphview">
<path fill="none" stroke="black" d="M337.972,-109.07C319.897,-98.0455 291.735,-81.6574 266,-70 255.812,-65.385 232.645,-57.1529 211.282,-49.8314"/>
<polygon fill="black" stroke="black" points="212.242,-46.4608 201.647,-46.5479 209.984,-53.0866 212.242,-46.4608"/>
</a>
<a xlink:href="http://latin.omdoc.org/foundations/isabelle?PureSemantics" class="PureSemantics">
<text text-anchor="middle" x="338.5" y="-74.3" font-family="Times New Roman,serif" font-size="14.00">PureSemantics</text>
</a>
</g>
<!-- http://cds.omdoc.org/urtheories?LF -->
<g id="node7" class="node"><title>http://cds.omdoc.org/urtheories?LF</title>
<a xlink:href="http://cds.omdoc.org/urtheories?LF" class="graphtheory">
<ellipse fill="gray" stroke="black" cx="230" cy="-196" rx="27" ry="18"/>
<text text-anchor="middle" x="230" y="-192.3" font-family="Times New Roman,serif" font-size="14.00">LF</text>
</a>
</g>
<!-- http://cds.omdoc.org/urtheories?LF&#45;&gt;http://latin.omdoc.org/foundations/isabelle?HOL -->
<g id="edge7" class="edge"><title>http://cds.omdoc.org/urtheories?LF&#45;&gt;http://latin.omdoc.org/foundations/isabelle?HOL</title>
<a class="graphmeta">
<path fill="none" stroke="black" d="M213.072,-181.457C199.581,-170.665 180.486,-155.389 165.2,-143.16"/>
<polygon fill="black" stroke="black" points="167.154,-140.241 157.158,-136.727 162.781,-145.707 167.154,-140.241"/>
</a>
</g>
<!-- http://cds.omdoc.org/urtheories?LF&#45;&gt;http://latin.omdoc.org/foundations/isabelle?NesetZFC -->
<g id="edge19" class="edge"><title>http://cds.omdoc.org/urtheories?LF&#45;&gt;http://latin.omdoc.org/foundations/isabelle?NesetZFC</title>
<a class="graphmeta">
<path fill="none" stroke="black" d="M232.253,-177.876C234.727,-152.456 236.017,-104.082 216,-70 212.665,-64.3209 208.003,-59.3173 202.871,-55.0007"/>
<polygon fill="black" stroke="black" points="204.648,-51.9598 194.54,-48.7845 200.462,-57.5701 204.648,-51.9598"/>
</a>
</g>
<!-- http://cds.omdoc.org/urtheories?LF&#45;&gt;http://latin.omdoc.org/foundations/isabelle?Pure -->
<g id="edge33" class="edge"><title>http://cds.omdoc.org/urtheories?LF&#45;&gt;http://latin.omdoc.org/foundations/isabelle?Pure</title>
<a class="graphmeta">
<path fill="none" stroke="black" d="M251.388,-184.933C270.105,-175.895 297.844,-161.939 321,-148 324.256,-146.04 327.611,-143.894 330.903,-141.708"/>
<polygon fill="black" stroke="black" points="333.076,-144.463 339.359,-135.932 329.127,-138.682 333.076,-144.463"/>
</a>
</g>
<!-- http://latin.omdoc.org/foundations/zfc?Functions -->
<g id="node10" class="node"><title>http://latin.omdoc.org/foundations/zfc?Functions</title>
<a xlink:href="http://latin.omdoc.org/foundations/zfc?Functions" class="graphtheory">
<ellipse fill="gray" stroke="black" cx="46" cy="-122" rx="46.1964" ry="18"/>
<text text-anchor="middle" x="46" y="-118.3" font-family="Times New Roman,serif" font-size="14.00">Functions</text>
</a>
</g>
<!-- http://cds.omdoc.org/urtheories?LF&#45;&gt;http://latin.omdoc.org/foundations/zfc?Functions -->
<g id="edge31" class="edge"><title>http://cds.omdoc.org/urtheories?LF&#45;&gt;http://latin.omdoc.org/foundations/zfc?Functions</title>
<a class="graphmeta">
<path fill="none" stroke="black" d="M206.072,-187.188C179.607,-178.369 135.835,-163.254 99,-148 93.7715,-145.835 88.3128,-143.43 82.9709,-140.993"/>
<polygon fill="black" stroke="black" points="84.0998,-137.658 73.5565,-136.613 81.1474,-144.004 84.0998,-137.658"/>
</a>
</g>
<!-- http://latin.omdoc.org/foundations/zfc?UniversalQuantifier -->
<g id="node12" class="node"><title>http://latin.omdoc.org/foundations/zfc?UniversalQuantifier</title>
<a xlink:href="http://latin.omdoc.org/foundations/zfc?UniversalQuantifier" class="graphtheory">
<ellipse fill="gray" stroke="black" cx="482" cy="-122" rx="79.4147" ry="18"/>
<text text-anchor="middle" x="482" y="-118.3" font-family="Times New Roman,serif" font-size="14.00">UniversalQuantifier</text>
</a>
</g>
<!-- http://cds.omdoc.org/urtheories?LF&#45;&gt;http://latin.omdoc.org/foundations/zfc?UniversalQuantifier -->
<g id="edge29" class="edge"><title>http://cds.omdoc.org/urtheories?LF&#45;&gt;http://latin.omdoc.org/foundations/zfc?UniversalQuantifier</title>
<a class="graphmeta">
<path fill="none" stroke="black" d="M254.622,-187.965C293.796,-176.773 371.351,-154.614 424.912,-139.311"/>
<polygon fill="black" stroke="black" points="425.966,-142.65 434.619,-136.537 424.042,-135.919 425.966,-142.65"/>
</a>
</g>
<!-- http://latin.omdoc.org/foundations/zfc?If -->
<g id="node14" class="node"><title>http://latin.omdoc.org/foundations/zfc?If</title>
<a xlink:href="http://latin.omdoc.org/foundations/zfc?If" class="graphtheory">
<ellipse fill="gray" stroke="black" cx="285" cy="-122" rx="27" ry="18"/>
<text text-anchor="middle" x="285" y="-118.3" font-family="Times New Roman,serif" font-size="14.00">If</text>
</a>
</g>
<!-- http://cds.omdoc.org/urtheories?LF&#45;&gt;http://latin.omdoc.org/foundations/zfc?If -->
<g id="edge27" class="edge"><title>http://cds.omdoc.org/urtheories?LF&#45;&gt;http://latin.omdoc.org/foundations/zfc?If</title>
<a class="graphmeta">
<path fill="none" stroke="black" d="M241.664,-179.731C249.102,-169.994 258.884,-157.188 267.272,-146.207"/>
<polygon fill="black" stroke="black" points="270.064,-148.319 273.353,-138.247 264.501,-144.069 270.064,-148.319"/>
</a>
</g>
<!-- http://latin.omdoc.org/foundations/zfc?TypedZFBase -->
<g id="node16" class="node"><title>http://latin.omdoc.org/foundations/zfc?TypedZFBase</title>
<a xlink:href="http://latin.omdoc.org/foundations/zfc?TypedZFBase" class="graphtheory">
<ellipse fill="gray" stroke="black" cx="525" cy="-34" rx="63.0666" ry="18"/>
<text text-anchor="middle" x="525" y="-30.3" font-family="Times New Roman,serif" font-size="14.00">TypedZFBase</text>
</a>
</g>
<!-- http://cds.omdoc.org/urtheories?LF&#45;&gt;http://latin.omdoc.org/foundations/zfc?TypedZFBase -->
<g id="edge25" class="edge"><title>http://cds.omdoc.org/urtheories?LF&#45;&gt;http://latin.omdoc.org/foundations/zfc?TypedZFBase</title>
<a class="graphmeta">
<path fill="none" stroke="black" d="M257.083,-195.591C330.28,-196.549 529.289,-194.725 570,-148 592.308,-122.396 568.83,-84.3664 548.287,-59.6276"/>
<polygon fill="black" stroke="black" points="550.692,-57.0583 541.503,-51.7845 545.398,-61.6376 550.692,-57.0583"/>
</a>
</g>
<!-- http://latin.omdoc.org/foundations/zfc?Functions&#45;&gt;http://latin.omdoc.org/foundations/isabelle?NesetZFC -->
<g id="edge11" class="edge"><title>http://latin.omdoc.org/foundations/zfc?Functions&#45;&gt;http://latin.omdoc.org/foundations/isabelle?NesetZFC</title>
<a class="graphinclude">
<path fill="none" stroke="black" d="M67.3538,-105.823C86.7597,-92.0303 115.582,-71.5448 137.244,-56.1491"/>
<polygon fill="black" stroke="black" points="139.329,-58.9608 145.453,-50.3147 135.274,-53.2551 139.329,-58.9608"/>
</a>
</g>
<!-- http://latin.omdoc.org/foundations/zfc?UniversalQuantifier&#45;&gt;http://latin.omdoc.org/foundations/isabelle?NesetZFC -->
<g id="edge13" class="edge"><title>http://latin.omdoc.org/foundations/zfc?UniversalQuantifier&#45;&gt;http://latin.omdoc.org/foundations/isabelle?NesetZFC</title>
<a class="graphinclude">
<path fill="none" stroke="black" d="M457.317,-104.856C438.136,-93.1456 410.432,-78.0102 384,-70 313.402,-48.6055 291.112,-67.5448 219,-52 216.032,-51.3602 212.994,-50.615 209.95,-49.8009"/>
<polygon fill="black" stroke="black" points="210.865,-46.4221 200.287,-47.0099 208.923,-53.1473 210.865,-46.4221"/>
</a>
</g>
<!-- http://latin.omdoc.org/foundations/zfc?UniversalQuantifier&#45;&gt;http://latin.omdoc.org/foundations/zfc?TypedZFBase -->
<g id="edge23" class="edge"><title>http://latin.omdoc.org/foundations/zfc?UniversalQuantifier&#45;&gt;http://latin.omdoc.org/foundations/zfc?TypedZFBase</title>
<a xlink:href="http://latin.omdoc.org/foundations/zfc?_UQ" class="graphview">
<path fill="none" stroke="black" d="M476.814,-103.605C474.733,-93.3209 473.879,-80.3308 479,-70 481.451,-65.0549 484.972,-60.6192 488.991,-56.7021"/>
<polygon fill="black" stroke="black" points="491.277,-59.3527 496.637,-50.2137 486.747,-54.0154 491.277,-59.3527"/>
</a>
<a xlink:href="http://latin.omdoc.org/foundations/zfc?_UQ" class="_UQ">
<text text-anchor="middle" x="493" y="-74.3" font-family="Times New Roman,serif" font-size="14.00">_UQ</text>
</a>
</g>
<!-- http://latin.omdoc.org/foundations/zfc?If&#45;&gt;http://latin.omdoc.org/foundations/isabelle?NesetZFC -->
<g id="edge15" class="edge"><title>http://latin.omdoc.org/foundations/zfc?If&#45;&gt;http://latin.omdoc.org/foundations/isabelle?NesetZFC</title>
<a class="graphinclude">
<path fill="none" stroke="black" d="M275.113,-105.083C267.647,-94.0917 256.563,-79.7534 244,-70 234.123,-62.3318 222.296,-55.8923 210.911,-50.7127"/>
<polygon fill="black" stroke="black" points="212.072,-47.4019 201.503,-46.6587 209.302,-53.8304 212.072,-47.4019"/>
</a>
</g>
<!-- http://latin.omdoc.org/foundations/zfc?TypedZFBase&#45;&gt;http://latin.omdoc.org/foundations/isabelle?NesetZFC -->
<g id="edge17" class="edge"><title>http://latin.omdoc.org/foundations/zfc?TypedZFBase&#45;&gt;http://latin.omdoc.org/foundations/isabelle?NesetZFC</title>
<a class="graphinclude">
<path fill="none" stroke="black" d="M461.779,-34C382.972,-34 304.165,-34 225.358,-34"/>
<polygon fill="black" stroke="black" points="225.246,-30.5001 215.246,-34 225.246,-37.5001 225.246,-30.5001"/>
</a>
</g>
<!-- http://latin.omdoc.org/foundations/zfc?TypedZFBase&#45;&gt;http://latin.omdoc.org/foundations/zfc?UniversalQuantifier -->
<g id="edge21" class="edge"><title>http://latin.omdoc.org/foundations/zfc?TypedZFBase&#45;&gt;http://latin.omdoc.org/foundations/zfc?UniversalQuantifier</title>
<a class="graphinclude">
<path fill="none" stroke="black" d="M522.169,-52.2077C520.035,-62.426 516.511,-75.4122 511,-86 509.167,-89.5218 506.934,-93.0111 504.53,-96.3448"/>
<polygon fill="black" stroke="black" points="501.753,-94.2141 498.329,-104.241 507.258,-98.5376 501.753,-94.2141"/>
</a>
</g>
</g>
</svg>
