<?xml version="1.0" encoding="UTF-8" standalone="no"?>
<!DOCTYPE svg PUBLIC "-//W3C//DTD SVG 1.1//EN"
 "http://www.w3.org/Graphics/SVG/1.1/DTD/svg11.dtd">
<!-- Generated by graphviz version 2.28.0 (20110507.0327)
 -->
<!-- Title: MMT Pages: 1 -->
<svg width="555pt" height="294pt"
 viewBox="0.00 0.00 554.66 294.00" xmlns="http://www.w3.org/2000/svg" xmlns:xlink="http://www.w3.org/1999/xlink">
<g id="graph1" class="graph" transform="scale(1 1) rotate(0) translate(4 290)">
<title>MMT</title>
<polygon fill="white" stroke="white" points="-4,5 -4,-290 551.659,-290 551.659,5 -4,5"/>
<g id="graph2" class="cluster"><title>cluster_local</title>
<polygon fill="none" stroke="black" points="354,-168 354,-220 424,-220 424,-168 354,-168"/>
</g>
<!-- http://latin.omdoc.org/foundations/isabelle?Pure -->
<g id="node2" class="node"><title>http://latin.omdoc.org/foundations/isabelle?Pure</title>
<a xlink:href="http://latin.omdoc.org/foundations/isabelle?Pure" class="graphtheory">
<ellipse fill="none" stroke="black" cx="389" cy="-194" rx="26.949" ry="18"/>
<text text-anchor="middle" x="389" y="-190.3" font-family="Times New Roman,serif" font-size="14.00">Pure</text>
</a>
</g>
<!-- http://latin.omdoc.org/foundations/isabelle?HOLSemantics -->
<g id="node3" class="node"><title>http://latin.omdoc.org/foundations/isabelle?HOLSemantics</title>
<a xlink:href="http://latin.omdoc.org/foundations/isabelle?HOLSemantics" class="graphtheory">
<ellipse fill="gray" stroke="black" cx="66" cy="-106" rx="65.9423" ry="18"/>
<text text-anchor="middle" x="66" y="-102.3" font-family="Times New Roman,serif" font-size="14.00">HOLSemantics</text>
</a>
</g>
<!-- http://latin.omdoc.org/foundations/isabelle?Pure&#45;&gt;http://latin.omdoc.org/foundations/isabelle?HOLSemantics -->
<g id="edge3" class="edge"><title>http://latin.omdoc.org/foundations/isabelle?Pure&#45;&gt;http://latin.omdoc.org/foundations/isabelle?HOLSemantics</title>
<a xlink:href="http://latin.omdoc.org/foundations/isabelle?HOLSemantics?[http://latin.omdoc.org/foundations/isabelle?Pure]" class="graphstructure">
<path fill="none" stroke="black" d="M361.9,-192.066C287.936,-189.241 86.7871,-179.624 67,-158 61.2197,-151.683 59.663,-142.863 59.9641,-134.331"/>
<polygon fill="black" stroke="black" points="63.4577,-134.583 61.0937,-124.255 56.5012,-133.803 63.4577,-134.583"/>
</a>
<a xlink:href="http://latin.omdoc.org/foundations/isabelle?HOLSemantics?[http://latin.omdoc.org/foundations/isabelle?Pure]" class="[http://latin.omdoc.org/foundations/isabelle?Pure]">
<text text-anchor="middle" x="205" y="-146.3" font-family="Times New Roman,serif" font-size="14.00">[http://latin.omdoc.org/foundations/isabelle?Pure]</text>
</a>
</g>
<!-- http://latin.omdoc.org/foundations/isabelle?NesetZFC -->
<g id="node5" class="node"><title>http://latin.omdoc.org/foundations/isabelle?NesetZFC</title>
<a xlink:href="http://latin.omdoc.org/foundations/isabelle?NesetZFC" class="graphtheory">
<ellipse fill="gray" stroke="black" cx="443" cy="-18" rx="48.1437" ry="18"/>
<text text-anchor="middle" x="443" y="-14.3" font-family="Times New Roman,serif" font-size="14.00">NesetZFC</text>
</a>
</g>
<!-- http://latin.omdoc.org/foundations/isabelle?Pure&#45;&gt;http://latin.omdoc.org/foundations/isabelle?NesetZFC -->
<g id="edge5" class="edge"><title>http://latin.omdoc.org/foundations/isabelle?Pure&#45;&gt;http://latin.omdoc.org/foundations/isabelle?NesetZFC</title>
<a xlink:href="http://latin.omdoc.org/foundations/isabelle?PureSemantics" class="graphview">
<path fill="none" stroke="black" d="M379.549,-177.072C368.32,-155.936 352.682,-117.818 366,-88 374.977,-67.9024 393.021,-51.2267 409.386,-39.3061"/>
<polygon fill="black" stroke="black" points="411.514,-42.0896 417.734,-33.5129 407.523,-36.3387 411.514,-42.0896"/>
</a>
<a xlink:href="http://latin.omdoc.org/foundations/isabelle?PureSemantics" class="PureSemantics">
<text text-anchor="middle" x="407.5" y="-102.3" font-family="Times New Roman,serif" font-size="14.00">PureSemantics</text>
</a>
</g>
<!-- http://latin.omdoc.org/foundations/isabelle?HOL -->
<g id="node7" class="node"><title>http://latin.omdoc.org/foundations/isabelle?HOL</title>
<a xlink:href="http://latin.omdoc.org/foundations/isabelle?HOL" class="graphtheory">
<ellipse fill="gray" stroke="black" cx="487" cy="-106" rx="29.3722" ry="18"/>
<text text-anchor="middle" x="487" y="-102.3" font-family="Times New Roman,serif" font-size="14.00">HOL</text>
</a>
</g>
<!-- http://latin.omdoc.org/foundations/isabelle?Pure&#45;&gt;http://latin.omdoc.org/foundations/isabelle?HOL -->
<g id="edge7" class="edge"><title>http://latin.omdoc.org/foundations/isabelle?Pure&#45;&gt;http://latin.omdoc.org/foundations/isabelle?HOL</title>
<a class="graphinclude">
<path fill="none" stroke="black" d="M404.745,-179.183C420.511,-165.348 444.972,-143.882 463.125,-127.952"/>
<polygon fill="black" stroke="black" points="465.76,-130.295 470.968,-121.069 461.143,-125.034 465.76,-130.295"/>
</a>
</g>
<!-- http://latin.omdoc.org/foundations/isabelle?HOL&#45;&gt;http://latin.omdoc.org/foundations/isabelle?NesetZFC -->
<g id="edge15" class="edge"><title>http://latin.omdoc.org/foundations/isabelle?HOL&#45;&gt;http://latin.omdoc.org/foundations/isabelle?NesetZFC</title>
<a xlink:href="http://latin.omdoc.org/foundations/isabelle?HOLSemantics" class="graphview">
<path fill="none" stroke="black" d="M465.974,-93.4342C457.545,-87.601 448.724,-79.6905 444,-70 440.492,-62.8046 439.337,-54.3322 439.31,-46.3816"/>
<polygon fill="black" stroke="black" points="442.806,-46.5476 439.822,-36.3817 435.815,-46.1897 442.806,-46.5476"/>
</a>
<a xlink:href="http://latin.omdoc.org/foundations/isabelle?HOLSemantics" class="HOLSemantics">
<text text-anchor="middle" x="487" y="-58.3" font-family="Times New Roman,serif" font-size="14.00">HOLSemantics</text>
</a>
</g>
<!-- http://cds.omdoc.org/urtheories?LF -->
<g id="node9" class="node"><title>http://cds.omdoc.org/urtheories?LF</title>
<a xlink:href="http://cds.omdoc.org/urtheories?LF" class="graphtheory">
<ellipse fill="gray" stroke="black" cx="487" cy="-268" rx="27" ry="18"/>
<text text-anchor="middle" x="487" y="-264.3" font-family="Times New Roman,serif" font-size="14.00">LF</text>
</a>
</g>
<!-- http://cds.omdoc.org/urtheories?LF&#45;&gt;http://latin.omdoc.org/foundations/isabelle?Pure -->
<g id="edge9" class="edge"><title>http://cds.omdoc.org/urtheories?LF&#45;&gt;http://latin.omdoc.org/foundations/isabelle?Pure</title>
<a class="graphmeta">
<path fill="none" stroke="black" d="M468.564,-254.558C454.972,-245.267 436.12,-232.133 420,-220 417.873,-218.399 415.685,-216.715 413.502,-215.007"/>
<polygon fill="black" stroke="black" points="415.253,-211.928 405.248,-208.441 410.895,-217.406 415.253,-211.928"/>
</a>
</g>
<!-- http://cds.omdoc.org/urtheories?LF&#45;&gt;http://latin.omdoc.org/foundations/isabelle?NesetZFC -->
<g id="edge13" class="edge"><title>http://cds.omdoc.org/urtheories?LF&#45;&gt;http://latin.omdoc.org/foundations/isabelle?NesetZFC</title>
<a class="graphmeta">
<path fill="none" stroke="black" d="M497.452,-251.274C520.969,-213.733 572.766,-117.301 530,-54 522.006,-42.1674 509.277,-34.3343 495.996,-29.1492"/>
<polygon fill="black" stroke="black" points="496.882,-25.7532 486.288,-25.8223 494.613,-32.3752 496.882,-25.7532"/>
</a>
</g>
<!-- http://cds.omdoc.org/urtheories?LF&#45;&gt;http://latin.omdoc.org/foundations/isabelle?HOL -->
<g id="edge11" class="edge"><title>http://cds.omdoc.org/urtheories?LF&#45;&gt;http://latin.omdoc.org/foundations/isabelle?HOL</title>
<a class="graphmeta">
<path fill="none" stroke="black" d="M487,-249.877C487,-222.354 487,-168.008 487,-134.849"/>
<polygon fill="black" stroke="black" points="490.5,-134.485 487,-124.485 483.5,-134.485 490.5,-134.485"/>
</a>
</g>
</g>
</svg>
