<?xml version="1.0" encoding="UTF-8" standalone="no"?>
<!DOCTYPE svg PUBLIC "-//W3C//DTD SVG 1.1//EN"
 "http://www.w3.org/Graphics/SVG/1.1/DTD/svg11.dtd">
<!-- Generated by graphviz version 2.28.0 (20110507.0327)
 -->
<!-- Title: MMT Pages: 1 -->
<svg
 viewBox="0.00 0.00 936.16 222.00" xmlns="http://www.w3.org/2000/svg" xmlns:xlink="http://www.w3.org/1999/xlink">
<g id="graph1" class="graph" transform="scale(1 1) rotate(0) translate(4 218)">
<title>MMT</title>
<polygon fill="white" stroke="white" points="-4,5 -4,-218 933.165,-218 933.165,5 -4,5"/>
<g id="graph2" class="cluster"><title>cluster_local</title>
<polygon fill="none" stroke="black" points="339,-8 339,-148 456,-148 456,-8 339,-8"/>
</g>
<!-- http://latin.omdoc.org/foundations/isabelle?Pure -->
<g id="node2" class="node"><title>http://latin.omdoc.org/foundations/isabelle?Pure</title>
<a xlink:href="http://latin.omdoc.org/foundations/isabelle?Pure" class="graphtheory">
<ellipse fill="none" stroke="black" cx="374" cy="-122" rx="26.949" ry="18"/>
<text text-anchor="middle" x="374" y="-118.3" font-family="Times New Roman,serif" font-size="14.00">Pure</text>
</a>
</g>
<!-- http://latin.omdoc.org/foundations/isabelle?NesetZFC -->
<g id="node3" class="node"><title>http://latin.omdoc.org/foundations/isabelle?NesetZFC</title>
<a xlink:href="http://latin.omdoc.org/foundations/isabelle?NesetZFC" class="graphtheory">
<ellipse fill="none" stroke="black" cx="400" cy="-34" rx="48.1437" ry="18"/>
<text text-anchor="middle" x="400" y="-30.3" font-family="Times New Roman,serif" font-size="14.00">NesetZFC</text>
</a>
</g>
<!-- http://latin.omdoc.org/foundations/isabelle?Pure&#45;&gt;http://latin.omdoc.org/foundations/isabelle?NesetZFC -->
<g id="edge3" class="edge"><title>http://latin.omdoc.org/foundations/isabelle?Pure&#45;&gt;http://latin.omdoc.org/foundations/isabelle?NesetZFC</title>
<a xlink:href="http://latin.omdoc.org/foundations/isabelle?PureSemantics" class="graphview">
<path fill="none" stroke="black" d="M379.137,-104.009C382.769,-91.9947 387.713,-75.641 391.877,-61.8691"/>
<polygon fill="black" stroke="black" points="395.33,-62.5405 394.874,-51.9555 388.63,-60.5148 395.33,-62.5405"/>
</a>
<a xlink:href="http://latin.omdoc.org/foundations/isabelle?PureSemantics" class="PureSemantics">
<text text-anchor="middle" x="430.5" y="-74.3" font-family="Times New Roman,serif" font-size="14.00">PureSemantics</text>
</a>
</g>
<!-- http://latin.omdoc.org/foundations/isabelle?HOLSemantics -->
<g id="node5" class="node"><title>http://latin.omdoc.org/foundations/isabelle?HOLSemantics</title>
<a xlink:href="http://latin.omdoc.org/foundations/isabelle?HOLSemantics" class="graphtheory">
<ellipse fill="gray" stroke="black" cx="66" cy="-34" rx="65.9423" ry="18"/>
<text text-anchor="middle" x="66" y="-30.3" font-family="Times New Roman,serif" font-size="14.00">HOLSemantics</text>
</a>
</g>
<!-- http://latin.omdoc.org/foundations/isabelle?Pure&#45;&gt;http://latin.omdoc.org/foundations/isabelle?HOLSemantics -->
<g id="edge5" class="edge"><title>http://latin.omdoc.org/foundations/isabelle?Pure&#45;&gt;http://latin.omdoc.org/foundations/isabelle?HOLSemantics</title>
<a xlink:href="http://latin.omdoc.org/foundations/isabelle?HOLSemantics?[http://latin.omdoc.org/foundations/isabelle?Pure]" class="graphstructure">
<path fill="none" stroke="black" d="M346.711,-120.35C285.791,-118.452 140.862,-111.33 100,-86 90.5032,-80.113 83.077,-70.4755 77.6205,-61.1545"/>
<polygon fill="black" stroke="black" points="80.5918,-59.2868 72.8168,-52.0896 74.4066,-62.5645 80.5918,-59.2868"/>
</a>
<a xlink:href="http://latin.omdoc.org/foundations/isabelle?HOLSemantics?[http://latin.omdoc.org/foundations/isabelle?Pure]" class="[http://latin.omdoc.org/foundations/isabelle?Pure]">
<text text-anchor="middle" x="238" y="-74.3" font-family="Times New Roman,serif" font-size="14.00">[http://latin.omdoc.org/foundations/isabelle?Pure]</text>
</a>
</g>
<!-- http://latin.omdoc.org/foundations/isabelle?HOL -->
<g id="node7" class="node"><title>http://latin.omdoc.org/foundations/isabelle?HOL</title>
<a xlink:href="http://latin.omdoc.org/foundations/isabelle?HOL" class="graphtheory">
<ellipse fill="gray" stroke="black" cx="592" cy="-122" rx="29.3722" ry="18"/>
<text text-anchor="middle" x="592" y="-118.3" font-family="Times New Roman,serif" font-size="14.00">HOL</text>
</a>
</g>
<!-- http://latin.omdoc.org/foundations/isabelle?Pure&#45;&gt;http://latin.omdoc.org/foundations/isabelle?HOL -->
<g id="edge7" class="edge"><title>http://latin.omdoc.org/foundations/isabelle?Pure&#45;&gt;http://latin.omdoc.org/foundations/isabelle?HOL</title>
<a class="graphinclude">
<path fill="none" stroke="black" d="M385.203,-138.792C392.27,-147.806 402.27,-158.056 414,-163 440.826,-174.306 517.741,-173.219 545,-163 554.68,-159.371 563.676,-152.747 571.153,-145.866"/>
<polygon fill="black" stroke="black" points="574.008,-147.962 578.63,-138.429 569.072,-143 574.008,-147.962"/>
</a>
</g>
<!-- http://latin.omdoc.org/foundations/isabelle?HOL&#45;&gt;http://latin.omdoc.org/foundations/isabelle?NesetZFC -->
<g id="edge11" class="edge"><title>http://latin.omdoc.org/foundations/isabelle?HOL&#45;&gt;http://latin.omdoc.org/foundations/isabelle?NesetZFC</title>
<a xlink:href="http://latin.omdoc.org/foundations/isabelle?HOLSemantics" class="graphview">
<path fill="none" stroke="black" d="M571.801,-108.679C553.282,-97.6849 524.885,-81.5817 499,-70 488.791,-65.432 465.623,-57.2018 444.265,-49.8697"/>
<polygon fill="black" stroke="black" points="445.227,-46.4998 434.633,-46.5804 442.965,-53.1242 445.227,-46.4998"/>
</a>
<a xlink:href="http://latin.omdoc.org/foundations/isabelle?HOLSemantics" class="HOLSemantics">
<text text-anchor="middle" x="574" y="-74.3" font-family="Times New Roman,serif" font-size="14.00">HOLSemantics</text>
</a>
</g>
<!-- http://cds.omdoc.org/urtheories?LF -->
<g id="node9" class="node"><title>http://cds.omdoc.org/urtheories?LF</title>
<a xlink:href="http://cds.omdoc.org/urtheories?LF" class="graphtheory">
<ellipse fill="gray" stroke="black" cx="463" cy="-196" rx="27" ry="18"/>
<text text-anchor="middle" x="463" y="-192.3" font-family="Times New Roman,serif" font-size="14.00">LF</text>
</a>
</g>
<!-- http://cds.omdoc.org/urtheories?LF&#45;&gt;http://latin.omdoc.org/foundations/isabelle?Pure -->
<g id="edge9" class="edge"><title>http://cds.omdoc.org/urtheories?LF&#45;&gt;http://latin.omdoc.org/foundations/isabelle?Pure</title>
<a class="graphmeta">
<path fill="none" stroke="black" d="M446.26,-181.457C432.834,-170.596 413.796,-155.194 398.631,-142.926"/>
<polygon fill="black" stroke="black" points="400.641,-140.05 390.665,-136.482 396.238,-145.493 400.641,-140.05"/>
</a>
</g>
<!-- http://cds.omdoc.org/urtheories?LF&#45;&gt;http://latin.omdoc.org/foundations/isabelle?NesetZFC -->
<g id="edge21" class="edge"><title>http://cds.omdoc.org/urtheories?LF&#45;&gt;http://latin.omdoc.org/foundations/isabelle?NesetZFC</title>
<a class="graphmeta">
<path fill="none" stroke="black" d="M465.253,-177.876C467.727,-152.456 469.017,-104.082 449,-70 445.665,-64.3209 441.003,-59.3173 435.871,-55.0007"/>
<polygon fill="black" stroke="black" points="437.648,-51.9598 427.54,-48.7845 433.462,-57.5701 437.648,-51.9598"/>
</a>
</g>
<!-- http://cds.omdoc.org/urtheories?LF&#45;&gt;http://latin.omdoc.org/foundations/isabelle?HOL -->
<g id="edge27" class="edge"><title>http://cds.omdoc.org/urtheories?LF&#45;&gt;http://latin.omdoc.org/foundations/isabelle?HOL</title>
<a class="graphmeta">
<path fill="none" stroke="black" d="M484.303,-184.789C502.964,-175.658 530.671,-161.648 554,-148 557.504,-145.95 561.133,-143.715 564.695,-141.453"/>
<polygon fill="black" stroke="black" points="566.826,-144.243 573.305,-135.86 563.012,-138.373 566.826,-144.243"/>
</a>
</g>
<!-- http://latin.omdoc.org/foundations/zfc?Functions -->
<g id="node12" class="node"><title>http://latin.omdoc.org/foundations/zfc?Functions</title>
<a xlink:href="http://latin.omdoc.org/foundations/zfc?Functions" class="graphtheory">
<ellipse fill="gray" stroke="black" cx="686" cy="-122" rx="46.1964" ry="18"/>
<text text-anchor="middle" x="686" y="-118.3" font-family="Times New Roman,serif" font-size="14.00">Functions</text>
</a>
</g>
<!-- http://cds.omdoc.org/urtheories?LF&#45;&gt;http://latin.omdoc.org/foundations/zfc?Functions -->
<g id="edge35" class="edge"><title>http://cds.omdoc.org/urtheories?LF&#45;&gt;http://latin.omdoc.org/foundations/zfc?Functions</title>
<a class="graphmeta">
<path fill="none" stroke="black" d="M488.257,-189.11C521.279,-181.134 580.718,-165.828 630,-148 636.11,-145.789 642.49,-143.212 648.664,-140.568"/>
<polygon fill="black" stroke="black" points="650.384,-143.635 658.126,-136.402 647.564,-137.228 650.384,-143.635"/>
</a>
</g>
<!-- http://latin.omdoc.org/foundations/zfc?UniversalQuantifier -->
<g id="node14" class="node"><title>http://latin.omdoc.org/foundations/zfc?UniversalQuantifier</title>
<a xlink:href="http://latin.omdoc.org/foundations/zfc?UniversalQuantifier" class="graphtheory">
<ellipse fill="gray" stroke="black" cx="831" cy="-122" rx="79.4147" ry="18"/>
<text text-anchor="middle" x="831" y="-118.3" font-family="Times New Roman,serif" font-size="14.00">UniversalQuantifier</text>
</a>
</g>
<!-- http://cds.omdoc.org/urtheories?LF&#45;&gt;http://latin.omdoc.org/foundations/zfc?UniversalQuantifier -->
<g id="edge33" class="edge"><title>http://cds.omdoc.org/urtheories?LF&#45;&gt;http://latin.omdoc.org/foundations/zfc?UniversalQuantifier</title>
<a class="graphmeta">
<path fill="none" stroke="black" d="M489.238,-191.488C538.759,-184.656 649.267,-168.437 741,-148 752.141,-145.518 763.958,-142.511 775.239,-139.455"/>
<polygon fill="black" stroke="black" points="776.272,-142.801 784.983,-136.77 774.412,-136.053 776.272,-142.801"/>
</a>
</g>
<!-- http://latin.omdoc.org/foundations/zfc?If -->
<g id="node16" class="node"><title>http://latin.omdoc.org/foundations/zfc?If</title>
<a xlink:href="http://latin.omdoc.org/foundations/zfc?If" class="graphtheory">
<ellipse fill="gray" stroke="black" cx="518" cy="-122" rx="27" ry="18"/>
<text text-anchor="middle" x="518" y="-118.3" font-family="Times New Roman,serif" font-size="14.00">If</text>
</a>
</g>
<!-- http://cds.omdoc.org/urtheories?LF&#45;&gt;http://latin.omdoc.org/foundations/zfc?If -->
<g id="edge31" class="edge"><title>http://cds.omdoc.org/urtheories?LF&#45;&gt;http://latin.omdoc.org/foundations/zfc?If</title>
<a class="graphmeta">
<path fill="none" stroke="black" d="M474.664,-179.731C482.102,-169.994 491.884,-157.188 500.272,-146.207"/>
<polygon fill="black" stroke="black" points="503.064,-148.319 506.353,-138.247 497.501,-144.069 503.064,-148.319"/>
</a>
</g>
<!-- http://latin.omdoc.org/foundations/zfc?TypedZFBase -->
<g id="node18" class="node"><title>http://latin.omdoc.org/foundations/zfc?TypedZFBase</title>
<a xlink:href="http://latin.omdoc.org/foundations/zfc?TypedZFBase" class="graphtheory">
<ellipse fill="gray" stroke="black" cx="864" cy="-34" rx="63.0666" ry="18"/>
<text text-anchor="middle" x="864" y="-30.3" font-family="Times New Roman,serif" font-size="14.00">TypedZFBase</text>
</a>
</g>
<!-- http://cds.omdoc.org/urtheories?LF&#45;&gt;http://latin.omdoc.org/foundations/zfc?TypedZFBase -->
<g id="edge29" class="edge"><title>http://cds.omdoc.org/urtheories?LF&#45;&gt;http://latin.omdoc.org/foundations/zfc?TypedZFBase</title>
<a class="graphmeta">
<path fill="none" stroke="black" d="M490.158,-194.273C583.958,-191.485 890.144,-179.983 919,-148 942.842,-121.574 913.968,-82.9443 889.879,-58.3929"/>
<polygon fill="black" stroke="black" points="892.204,-55.7709 882.62,-51.2546 887.296,-60.7618 892.204,-55.7709"/>
</a>
</g>
<!-- http://latin.omdoc.org/foundations/zfc?Functions&#45;&gt;http://latin.omdoc.org/foundations/isabelle?NesetZFC -->
<g id="edge13" class="edge"><title>http://latin.omdoc.org/foundations/zfc?Functions&#45;&gt;http://latin.omdoc.org/foundations/isabelle?NesetZFC</title>
<a class="graphinclude">
<path fill="none" stroke="black" d="M670.551,-104.718C658.312,-92.9359 640.138,-77.7705 621,-70 551.013,-41.5828 525.86,-67.823 452,-52 449.031,-51.3639 445.993,-50.6216 442.948,-49.8096"/>
<polygon fill="black" stroke="black" points="443.862,-46.4305 433.284,-47.0228 441.923,-53.1565 443.862,-46.4305"/>
</a>
</g>
<!-- http://latin.omdoc.org/foundations/zfc?UniversalQuantifier&#45;&gt;http://latin.omdoc.org/foundations/isabelle?NesetZFC -->
<g id="edge15" class="edge"><title>http://latin.omdoc.org/foundations/zfc?UniversalQuantifier&#45;&gt;http://latin.omdoc.org/foundations/isabelle?NesetZFC</title>
<a class="graphinclude">
<path fill="none" stroke="black" d="M788.493,-106.713C751.933,-95.0004 697.568,-78.9467 649,-70 562.534,-54.0724 538.105,-69.7723 452,-52 449.026,-51.3862 445.984,-50.6606 442.938,-49.8607"/>
<polygon fill="black" stroke="black" points="443.845,-46.4799 433.268,-47.0988 441.922,-53.2107 443.845,-46.4799"/>
</a>
</g>
<!-- http://latin.omdoc.org/foundations/zfc?UniversalQuantifier&#45;&gt;http://latin.omdoc.org/foundations/zfc?TypedZFBase -->
<g id="edge25" class="edge"><title>http://latin.omdoc.org/foundations/zfc?UniversalQuantifier&#45;&gt;http://latin.omdoc.org/foundations/zfc?TypedZFBase</title>
<a xlink:href="http://latin.omdoc.org/foundations/zfc?_UQ" class="graphview">
<path fill="none" stroke="black" d="M837.52,-104.009C842.175,-91.8769 848.528,-75.3199 853.845,-61.4648"/>
<polygon fill="black" stroke="black" points="857.179,-62.5457 857.494,-51.9555 850.644,-60.0379 857.179,-62.5457"/>
</a>
<a xlink:href="http://latin.omdoc.org/foundations/zfc?_UQ" class="_UQ">
<text text-anchor="middle" x="864" y="-74.3" font-family="Times New Roman,serif" font-size="14.00">_UQ</text>
</a>
</g>
<!-- http://latin.omdoc.org/foundations/zfc?If&#45;&gt;http://latin.omdoc.org/foundations/isabelle?NesetZFC -->
<g id="edge17" class="edge"><title>http://latin.omdoc.org/foundations/zfc?If&#45;&gt;http://latin.omdoc.org/foundations/isabelle?NesetZFC</title>
<a class="graphinclude">
<path fill="none" stroke="black" d="M508.113,-105.083C500.647,-94.0917 489.563,-79.7534 477,-70 467.123,-62.3318 455.296,-55.8923 443.911,-50.7127"/>
<polygon fill="black" stroke="black" points="445.072,-47.4019 434.503,-46.6587 442.302,-53.8304 445.072,-47.4019"/>
</a>
</g>
<!-- http://latin.omdoc.org/foundations/zfc?TypedZFBase&#45;&gt;http://latin.omdoc.org/foundations/isabelle?NesetZFC -->
<g id="edge19" class="edge"><title>http://latin.omdoc.org/foundations/zfc?TypedZFBase&#45;&gt;http://latin.omdoc.org/foundations/isabelle?NesetZFC</title>
<a class="graphinclude">
<path fill="none" stroke="black" d="M800.699,-34C686.734,-34 572.768,-34 458.803,-34"/>
<polygon fill="black" stroke="black" points="458.484,-30.5001 448.484,-34 458.484,-37.5001 458.484,-30.5001"/>
</a>
</g>
<!-- http://latin.omdoc.org/foundations/zfc?TypedZFBase&#45;&gt;http://latin.omdoc.org/foundations/zfc?UniversalQuantifier -->
<g id="edge23" class="edge"><title>http://latin.omdoc.org/foundations/zfc?TypedZFBase&#45;&gt;http://latin.omdoc.org/foundations/zfc?UniversalQuantifier</title>
<a class="graphinclude">
<path fill="none" stroke="black" d="M853.719,-52.0655C850.633,-57.6504 847.427,-63.9708 845,-70 841.949,-77.5808 839.327,-86.0547 837.205,-93.8844"/>
<polygon fill="black" stroke="black" points="833.788,-93.1224 834.709,-103.677 840.571,-94.8514 833.788,-93.1224"/>
</a>
</g>
</g>
</svg>
