<?xml version="1.0" encoding="UTF-8" standalone="no"?>
<!DOCTYPE svg PUBLIC "-//W3C//DTD SVG 1.1//EN"
 "http://www.w3.org/Graphics/SVG/1.1/DTD/svg11.dtd">
<!-- Generated by graphviz version 2.28.0 (20110507.0327)
 -->
<!-- Title: MMT Pages: 1 -->
<svg width="559pt" height="368pt"
 viewBox="0.00 0.00 559.00 368.00" xmlns="http://www.w3.org/2000/svg" xmlns:xlink="http://www.w3.org/1999/xlink">
<g id="graph1" class="graph" transform="scale(1 1) rotate(0) translate(4 364)">
<title>MMT</title>
<polygon fill="white" stroke="white" points="-4,5 -4,-364 556,-364 556,5 -4,5"/>
<!-- http://latin.omdoc.org/logics/proof_theory?DISJ -->
<g id="node2" class="node"><title>http://latin.omdoc.org/logics/proof_theory?DISJ</title>
<a xlink:href="http://latin.omdoc.org/logics/proof_theory?DISJ" class="graphtheory">
<ellipse fill="gray" stroke="black" cx="28" cy="-268" rx="28.3955" ry="18"/>
<text text-anchor="middle" x="28" y="-264.3" font-family="Times New Roman,serif" font-size="14.00">DISJ</text>
</a>
</g>
<!-- http://latin.omdoc.org/foundations/minimal?Bool -->
<g id="node3" class="node"><title>http://latin.omdoc.org/foundations/minimal?Bool</title>
<a xlink:href="http://latin.omdoc.org/foundations/minimal?Bool" class="graphtheory">
<ellipse fill="gray" stroke="black" cx="277" cy="-18" rx="28.3955" ry="18"/>
<text text-anchor="middle" x="277" y="-14.3" font-family="Times New Roman,serif" font-size="14.00">Bool</text>
</a>
</g>
<!-- http://latin.omdoc.org/logics/proof_theory?DISJ&#45;&gt;http://latin.omdoc.org/foundations/minimal?Bool -->
<g id="edge3" class="edge"><title>http://latin.omdoc.org/logics/proof_theory?DISJ&#45;&gt;http://latin.omdoc.org/foundations/minimal?Bool</title>
<a xlink:href="http://latin.omdoc.org/logics/soundness?DISJ" class="graphview">
<path fill="none" stroke="black" d="M28.1764,-249.742C29.6654,-207.43 40.1228,-98.7336 107,-54 146.437,-27.6208 201.674,-20.4508 238.355,-18.8395"/>
<polygon fill="black" stroke="black" points="238.758,-22.3285 248.642,-18.5117 238.535,-15.3321 238.758,-22.3285"/>
</a>
<a xlink:href="http://latin.omdoc.org/logics/soundness?DISJ" class="DISJ">
<text text-anchor="middle" x="61" y="-146.3" font-family="Times New Roman,serif" font-size="14.00">DISJ</text>
</a>
</g>
<!-- http://latin.omdoc.org/logics/proof_theory?TND -->
<g id="node15" class="node"><title>http://latin.omdoc.org/logics/proof_theory?TND</title>
<a xlink:href="http://latin.omdoc.org/logics/proof_theory?TND" class="graphtheory">
<ellipse fill="gray" stroke="black" cx="85" cy="-194" rx="29.3722" ry="18"/>
<text text-anchor="middle" x="85" y="-190.3" font-family="Times New Roman,serif" font-size="14.00">TND</text>
</a>
</g>
<!-- http://latin.omdoc.org/logics/proof_theory?DISJ&#45;&gt;http://latin.omdoc.org/logics/proof_theory?TND -->
<g id="edge55" class="edge"><title>http://latin.omdoc.org/logics/proof_theory?DISJ&#45;&gt;http://latin.omdoc.org/logics/proof_theory?TND</title>
<a class="graphinclude">
<path fill="none" stroke="black" d="M40.3682,-251.377C47.9869,-241.753 57.899,-229.233 66.4464,-218.436"/>
<polygon fill="black" stroke="black" points="69.1931,-220.605 72.656,-210.592 63.7048,-216.26 69.1931,-220.605"/>
</a>
</g>
<!-- http://latin.omdoc.org/logics/proof_theory?IPL -->
<g id="node21" class="node"><title>http://latin.omdoc.org/logics/proof_theory?IPL</title>
<a xlink:href="http://latin.omdoc.org/logics/proof_theory?IPL" class="graphtheory">
<ellipse fill="gray" stroke="black" cx="295" cy="-194" rx="27" ry="18"/>
<text text-anchor="middle" x="295" y="-190.3" font-family="Times New Roman,serif" font-size="14.00">IPL</text>
</a>
</g>
<!-- http://latin.omdoc.org/logics/proof_theory?DISJ&#45;&gt;http://latin.omdoc.org/logics/proof_theory?IPL -->
<g id="edge53" class="edge"><title>http://latin.omdoc.org/logics/proof_theory?DISJ&#45;&gt;http://latin.omdoc.org/logics/proof_theory?IPL</title>
<a class="graphinclude">
<path fill="none" stroke="black" d="M53.6011,-260.096C101.791,-247.101 206.006,-218.998 260.388,-204.333"/>
<polygon fill="black" stroke="black" points="261.51,-207.656 270.254,-201.673 259.687,-200.898 261.51,-207.656"/>
</a>
</g>
<!-- http://latin.omdoc.org/logics/proof_theory?Falsity -->
<g id="node5" class="node"><title>http://latin.omdoc.org/logics/proof_theory?Falsity</title>
<a xlink:href="http://latin.omdoc.org/logics/proof_theory?Falsity" class="graphtheory">
<ellipse fill="gray" stroke="black" cx="224" cy="-268" rx="34.1708" ry="18"/>
<text text-anchor="middle" x="224" y="-264.3" font-family="Times New Roman,serif" font-size="14.00">Falsity</text>
</a>
</g>
<!-- http://latin.omdoc.org/logics/proof_theory?Falsity&#45;&gt;http://latin.omdoc.org/foundations/minimal?Bool -->
<g id="edge5" class="edge"><title>http://latin.omdoc.org/logics/proof_theory?Falsity&#45;&gt;http://latin.omdoc.org/foundations/minimal?Bool</title>
<a xlink:href="http://latin.omdoc.org/logics/soundness?Falsity" class="graphview">
<path fill="none" stroke="black" d="M227.255,-249.987C231.895,-225.907 240.764,-180.523 249,-142 256.091,-108.831 264.85,-70.7771 270.664,-45.8887"/>
<polygon fill="black" stroke="black" points="274.088,-46.6156 272.962,-36.0809 267.273,-45.0188 274.088,-46.6156"/>
</a>
<a xlink:href="http://latin.omdoc.org/logics/soundness?Falsity" class="Falsity">
<text text-anchor="middle" x="267.5" y="-146.3" font-family="Times New Roman,serif" font-size="14.00">Falsity</text>
</a>
</g>
<!-- http://latin.omdoc.org/logics/proof_theory?Falsity&#45;&gt;http://latin.omdoc.org/logics/proof_theory?IPL -->
<g id="edge51" class="edge"><title>http://latin.omdoc.org/logics/proof_theory?Falsity&#45;&gt;http://latin.omdoc.org/logics/proof_theory?IPL</title>
<a class="graphinclude">
<path fill="none" stroke="black" d="M239.057,-251.731C248.979,-241.669 262.133,-228.33 273.193,-217.114"/>
<polygon fill="black" stroke="black" points="275.921,-219.333 280.45,-209.755 270.936,-214.418 275.921,-219.333"/>
</a>
</g>
<!-- http://latin.omdoc.org/logics/proof_theory?NEG -->
<g id="node7" class="node"><title>http://latin.omdoc.org/logics/proof_theory?NEG</title>
<a xlink:href="http://latin.omdoc.org/logics/proof_theory?NEG" class="graphtheory">
<ellipse fill="gray" stroke="black" cx="142" cy="-268" rx="29.3722" ry="18"/>
<text text-anchor="middle" x="142" y="-264.3" font-family="Times New Roman,serif" font-size="14.00">NEG</text>
</a>
</g>
<!-- http://latin.omdoc.org/logics/proof_theory?NEG&#45;&gt;http://latin.omdoc.org/foundations/minimal?Bool -->
<g id="edge7" class="edge"><title>http://latin.omdoc.org/logics/proof_theory?NEG&#45;&gt;http://latin.omdoc.org/foundations/minimal?Bool</title>
<a xlink:href="http://latin.omdoc.org/logics/soundness?NEG" class="graphview">
<path fill="none" stroke="black" d="M139.82,-250.021C136.371,-216.762 132.68,-141.606 161,-88 177.28,-57.184 213.799,-38.8846 241.544,-28.9597"/>
<polygon fill="black" stroke="black" points="242.952,-32.1789 251.315,-25.6744 240.721,-25.5439 242.952,-32.1789"/>
</a>
<a xlink:href="http://latin.omdoc.org/logics/soundness?NEG" class="NEG">
<text text-anchor="middle" x="157.5" y="-146.3" font-family="Times New Roman,serif" font-size="14.00">NEG</text>
</a>
</g>
<!-- http://latin.omdoc.org/logics/proof_theory?NEG&#45;&gt;http://latin.omdoc.org/logics/proof_theory?TND -->
<g id="edge49" class="edge"><title>http://latin.omdoc.org/logics/proof_theory?NEG&#45;&gt;http://latin.omdoc.org/logics/proof_theory?TND</title>
<a class="graphinclude">
<path fill="none" stroke="black" d="M129.632,-251.377C122.013,-241.753 112.101,-229.233 103.554,-218.436"/>
<polygon fill="black" stroke="black" points="106.295,-216.26 97.344,-210.592 100.807,-220.605 106.295,-216.26"/>
</a>
</g>
<!-- http://latin.omdoc.org/logics/proof_theory?NEG&#45;&gt;http://latin.omdoc.org/logics/proof_theory?IPL -->
<g id="edge47" class="edge"><title>http://latin.omdoc.org/logics/proof_theory?NEG&#45;&gt;http://latin.omdoc.org/logics/proof_theory?IPL</title>
<a class="graphinclude">
<path fill="none" stroke="black" d="M164.576,-256.376C190.864,-244.005 234.437,-223.5 263.912,-209.63"/>
<polygon fill="black" stroke="black" points="265.764,-212.626 273.322,-205.201 262.784,-206.292 265.764,-212.626"/>
</a>
</g>
<!-- http://latin.omdoc.org/logics/proof_theory?IMP -->
<g id="node9" class="node"><title>http://latin.omdoc.org/logics/proof_theory?IMP</title>
<a xlink:href="http://latin.omdoc.org/logics/proof_theory?IMP" class="graphtheory">
<ellipse fill="gray" stroke="black" cx="303" cy="-268" rx="27" ry="18"/>
<text text-anchor="middle" x="303" y="-264.3" font-family="Times New Roman,serif" font-size="14.00">IMP</text>
</a>
</g>
<!-- http://latin.omdoc.org/logics/proof_theory?IMP&#45;&gt;http://latin.omdoc.org/foundations/minimal?Bool -->
<g id="edge9" class="edge"><title>http://latin.omdoc.org/logics/proof_theory?IMP&#45;&gt;http://latin.omdoc.org/foundations/minimal?Bool</title>
<a xlink:href="http://latin.omdoc.org/logics/soundness?IMP" class="graphview">
<path fill="none" stroke="black" d="M313.734,-250.945C320.136,-240.376 327.651,-225.962 331,-212 334.732,-196.441 332.524,-191.927 331,-176 327.205,-136.347 327.242,-125.569 314,-88 308.316,-71.8742 304.079,-69.0691 296,-54 294.316,-50.858 292.539,-47.5618 290.775,-44.301"/>
<polygon fill="black" stroke="black" points="293.772,-42.4846 285.928,-35.3623 287.618,-45.8215 293.772,-42.4846"/>
</a>
<a xlink:href="http://latin.omdoc.org/logics/soundness?IMP" class="IMP">
<text text-anchor="middle" x="342.5" y="-146.3" font-family="Times New Roman,serif" font-size="14.00">IMP</text>
</a>
</g>
<!-- http://latin.omdoc.org/logics/proof_theory?IMP&#45;&gt;http://latin.omdoc.org/logics/proof_theory?IPL -->
<g id="edge45" class="edge"><title>http://latin.omdoc.org/logics/proof_theory?IMP&#45;&gt;http://latin.omdoc.org/logics/proof_theory?IPL</title>
<a class="graphinclude">
<path fill="none" stroke="black" d="M301.104,-249.937C300.191,-241.719 299.073,-231.66 298.045,-222.406"/>
<polygon fill="black" stroke="black" points="301.521,-221.993 296.938,-212.441 294.564,-222.766 301.521,-221.993"/>
</a>
</g>
<!-- http://latin.omdoc.org/logics/proof_theory?CPL -->
<g id="node11" class="node"><title>http://latin.omdoc.org/logics/proof_theory?CPL</title>
<a xlink:href="http://latin.omdoc.org/logics/proof_theory?CPL" class="graphtheory">
<ellipse fill="gray" stroke="black" cx="198" cy="-106" rx="27.4223" ry="18"/>
<text text-anchor="middle" x="198" y="-102.3" font-family="Times New Roman,serif" font-size="14.00">CPL</text>
</a>
</g>
<!-- http://latin.omdoc.org/logics/proof_theory?CPL&#45;&gt;http://latin.omdoc.org/foundations/minimal?Bool -->
<g id="edge11" class="edge"><title>http://latin.omdoc.org/logics/proof_theory?CPL&#45;&gt;http://latin.omdoc.org/foundations/minimal?Bool</title>
<a xlink:href="http://latin.omdoc.org/logics/soundness?CPL" class="graphview">
<path fill="none" stroke="black" d="M199.687,-87.8531C201.495,-77.1522 205.241,-63.6303 213,-54 220.804,-44.3133 232.042,-36.9073 242.929,-31.4579"/>
<polygon fill="black" stroke="black" points="244.675,-34.5083 252.312,-27.1646 241.762,-28.1431 244.675,-34.5083"/>
</a>
<a xlink:href="http://latin.omdoc.org/logics/soundness?CPL" class="CPL">
<text text-anchor="middle" x="226.5" y="-58.3" font-family="Times New Roman,serif" font-size="14.00">CPL</text>
</a>
</g>
<!-- http://latin.omdoc.org/logics/proof_theory?Truth -->
<g id="node13" class="node"><title>http://latin.omdoc.org/logics/proof_theory?Truth</title>
<a xlink:href="http://latin.omdoc.org/logics/proof_theory?Truth" class="graphtheory">
<ellipse fill="gray" stroke="black" cx="379" cy="-268" rx="30.3206" ry="18"/>
<text text-anchor="middle" x="379" y="-264.3" font-family="Times New Roman,serif" font-size="14.00">Truth</text>
</a>
</g>
<!-- http://latin.omdoc.org/logics/proof_theory?Truth&#45;&gt;http://latin.omdoc.org/foundations/minimal?Bool -->
<g id="edge13" class="edge"><title>http://latin.omdoc.org/logics/proof_theory?Truth&#45;&gt;http://latin.omdoc.org/foundations/minimal?Bool</title>
<a xlink:href="http://latin.omdoc.org/logics/soundness?Truth" class="graphview">
<path fill="none" stroke="black" d="M377.741,-249.679C375.626,-225.234 370.416,-179.417 359,-142 351.282,-116.704 346.015,-111.56 334,-88 326.136,-72.5789 325.723,-67.5895 315,-54 310.989,-48.9172 306.219,-43.9179 301.436,-39.3592"/>
<polygon fill="black" stroke="black" points="303.77,-36.7505 294.018,-32.6095 299.059,-41.9282 303.77,-36.7505"/>
</a>
<a xlink:href="http://latin.omdoc.org/logics/soundness?Truth" class="Truth">
<text text-anchor="middle" x="379.5" y="-146.3" font-family="Times New Roman,serif" font-size="14.00">Truth</text>
</a>
</g>
<!-- http://latin.omdoc.org/logics/proof_theory?Truth&#45;&gt;http://latin.omdoc.org/logics/proof_theory?IPL -->
<g id="edge43" class="edge"><title>http://latin.omdoc.org/logics/proof_theory?Truth&#45;&gt;http://latin.omdoc.org/logics/proof_theory?IPL</title>
<a class="graphinclude">
<path fill="none" stroke="black" d="M362.404,-252.775C349.934,-242.086 332.678,-227.295 318.748,-215.355"/>
<polygon fill="black" stroke="black" points="320.862,-212.557 310.991,-208.707 316.306,-217.872 320.862,-212.557"/>
</a>
</g>
<!-- http://latin.omdoc.org/logics/proof_theory?TND&#45;&gt;http://latin.omdoc.org/foundations/minimal?Bool -->
<g id="edge15" class="edge"><title>http://latin.omdoc.org/logics/proof_theory?TND&#45;&gt;http://latin.omdoc.org/foundations/minimal?Bool</title>
<a xlink:href="http://latin.omdoc.org/logics/soundness?TND" class="graphview">
<path fill="none" stroke="black" d="M83.9422,-175.526C83.1466,-144.132 86.8092,-79.1217 128,-54 161.936,-33.303 207.088,-24.8433 238.76,-21.3865"/>
<polygon fill="black" stroke="black" points="239.335,-24.8472 248.949,-20.3955 238.657,-17.8801 239.335,-24.8472"/>
</a>
<a xlink:href="http://latin.omdoc.org/logics/soundness?TND" class="TND">
<text text-anchor="middle" x="113.5" y="-102.3" font-family="Times New Roman,serif" font-size="14.00">TND</text>
</a>
</g>
<!-- http://latin.omdoc.org/logics/proof_theory?TND&#45;&gt;http://latin.omdoc.org/logics/proof_theory?CPL -->
<g id="edge41" class="edge"><title>http://latin.omdoc.org/logics/proof_theory?TND&#45;&gt;http://latin.omdoc.org/logics/proof_theory?CPL</title>
<a class="graphinclude">
<path fill="none" stroke="black" d="M94.2476,-176.616C101.066,-165.691 111.186,-151.623 123,-142 135.103,-132.142 150.439,-124.348 164.086,-118.641"/>
<polygon fill="black" stroke="black" points="165.643,-121.789 173.653,-114.855 163.067,-115.281 165.643,-121.789"/>
</a>
</g>
<!-- http://latin.omdoc.org/logics/proof_theory?CONJ -->
<g id="node17" class="node"><title>http://latin.omdoc.org/logics/proof_theory?CONJ</title>
<a xlink:href="http://latin.omdoc.org/logics/proof_theory?CONJ" class="graphtheory">
<ellipse fill="gray" stroke="black" cx="461" cy="-268" rx="33.1991" ry="18"/>
<text text-anchor="middle" x="461" y="-264.3" font-family="Times New Roman,serif" font-size="14.00">CONJ</text>
</a>
</g>
<!-- http://latin.omdoc.org/logics/proof_theory?CONJ&#45;&gt;http://latin.omdoc.org/foundations/minimal?Bool -->
<g id="edge17" class="edge"><title>http://latin.omdoc.org/logics/proof_theory?CONJ&#45;&gt;http://latin.omdoc.org/foundations/minimal?Bool</title>
<a xlink:href="http://latin.omdoc.org/logics/soundness?CONJ" class="graphview">
<path fill="none" stroke="black" d="M454.973,-250.108C440.222,-210.885 398.788,-112.534 335,-54 327.006,-46.6646 317.242,-40.071 308.022,-34.6371"/>
<polygon fill="black" stroke="black" points="309.5,-31.4533 299.068,-29.6052 306.071,-37.5557 309.5,-31.4533"/>
</a>
<a xlink:href="http://latin.omdoc.org/logics/soundness?CONJ" class="CONJ">
<text text-anchor="middle" x="430" y="-146.3" font-family="Times New Roman,serif" font-size="14.00">CONJ</text>
</a>
</g>
<!-- http://latin.omdoc.org/logics/proof_theory?CONJ&#45;&gt;http://latin.omdoc.org/logics/proof_theory?IPL -->
<g id="edge39" class="edge"><title>http://latin.omdoc.org/logics/proof_theory?CONJ&#45;&gt;http://latin.omdoc.org/logics/proof_theory?IPL</title>
<a class="graphinclude">
<path fill="none" stroke="black" d="M435.788,-256.065C406.444,-243.337 357.969,-222.312 326.258,-208.557"/>
<polygon fill="black" stroke="black" points="327.561,-205.308 316.994,-204.54 324.775,-211.73 327.561,-205.308"/>
</a>
</g>
<!-- http://latin.omdoc.org/logics/proof_theory?Base -->
<g id="node19" class="node"><title>http://latin.omdoc.org/logics/proof_theory?Base</title>
<a xlink:href="http://latin.omdoc.org/logics/proof_theory?Base" class="graphtheory">
<ellipse fill="gray" stroke="black" cx="523" cy="-342" rx="28.3955" ry="18"/>
<text text-anchor="middle" x="523" y="-338.3" font-family="Times New Roman,serif" font-size="14.00">Base</text>
</a>
</g>
<!-- http://latin.omdoc.org/logics/proof_theory?Base&#45;&gt;http://latin.omdoc.org/logics/proof_theory?DISJ -->
<g id="edge31" class="edge"><title>http://latin.omdoc.org/logics/proof_theory?Base&#45;&gt;http://latin.omdoc.org/logics/proof_theory?DISJ</title>
<a class="graphinclude">
<path fill="none" stroke="black" d="M494.667,-341.092C408.072,-341.017 148.131,-338.058 71,-306 62.943,-302.651 55.3128,-297.189 48.7788,-291.477"/>
<polygon fill="black" stroke="black" points="50.8086,-288.579 41.1391,-284.249 45.9977,-293.664 50.8086,-288.579"/>
</a>
</g>
<!-- http://latin.omdoc.org/logics/proof_theory?Base&#45;&gt;http://latin.omdoc.org/foundations/minimal?Bool -->
<g id="edge19" class="edge"><title>http://latin.omdoc.org/logics/proof_theory?Base&#45;&gt;http://latin.omdoc.org/foundations/minimal?Bool</title>
<a xlink:href="http://latin.omdoc.org/logics/soundness?Base" class="graphview">
<path fill="none" stroke="black" d="M523,-323.834C523,-309.247 523,-287.75 523,-269 523,-269 523,-269 523,-105 523,-61.4283 383.741,-34.7385 314.778,-24.1927"/>
<polygon fill="black" stroke="black" points="315.148,-20.7093 304.741,-22.6961 314.116,-27.6328 315.148,-20.7093"/>
</a>
<a xlink:href="http://latin.omdoc.org/logics/soundness?Base" class="Base">
<text text-anchor="middle" x="537" y="-190.3" font-family="Times New Roman,serif" font-size="14.00">Base</text>
</a>
</g>
<!-- http://latin.omdoc.org/logics/proof_theory?Base&#45;&gt;http://latin.omdoc.org/logics/proof_theory?Falsity -->
<g id="edge29" class="edge"><title>http://latin.omdoc.org/logics/proof_theory?Base&#45;&gt;http://latin.omdoc.org/logics/proof_theory?Falsity</title>
<a class="graphinclude">
<path fill="none" stroke="black" d="M495.721,-336.663C448.515,-328.821 348.794,-310.77 267,-286 264.424,-285.22 261.785,-284.352 259.144,-283.434"/>
<polygon fill="black" stroke="black" points="260.271,-280.119 249.678,-279.949 257.853,-286.688 260.271,-280.119"/>
</a>
</g>
<!-- http://latin.omdoc.org/logics/proof_theory?Base&#45;&gt;http://latin.omdoc.org/logics/proof_theory?NEG -->
<g id="edge37" class="edge"><title>http://latin.omdoc.org/logics/proof_theory?Base&#45;&gt;http://latin.omdoc.org/logics/proof_theory?NEG</title>
<a class="graphinclude">
<path fill="none" stroke="black" d="M494.992,-338.895C435.926,-333.937 294.684,-319.339 181,-286 178.581,-285.291 176.115,-284.468 173.655,-283.576"/>
<polygon fill="black" stroke="black" points="174.912,-280.309 164.326,-279.876 172.331,-286.816 174.912,-280.309"/>
</a>
</g>
<!-- http://latin.omdoc.org/logics/proof_theory?Base&#45;&gt;http://latin.omdoc.org/logics/proof_theory?IMP -->
<g id="edge25" class="edge"><title>http://latin.omdoc.org/logics/proof_theory?Base&#45;&gt;http://latin.omdoc.org/logics/proof_theory?IMP</title>
<a class="graphinclude">
<path fill="none" stroke="black" d="M496.992,-334.551C460.972,-325.321 394.109,-307.11 339,-286 337.16,-285.295 335.284,-284.537 333.403,-283.745"/>
<polygon fill="black" stroke="black" points="334.65,-280.47 324.09,-279.608 331.807,-286.867 334.65,-280.47"/>
</a>
</g>
<!-- http://latin.omdoc.org/logics/proof_theory?Base&#45;&gt;http://latin.omdoc.org/logics/proof_theory?Truth -->
<g id="edge27" class="edge"><title>http://latin.omdoc.org/logics/proof_theory?Base&#45;&gt;http://latin.omdoc.org/logics/proof_theory?Truth</title>
<a class="graphinclude">
<path fill="none" stroke="black" d="M501.442,-330.221C477.439,-318.219 438.405,-298.702 410.873,-284.936"/>
<polygon fill="black" stroke="black" points="412.167,-281.67 401.657,-280.329 409.036,-287.931 412.167,-281.67"/>
</a>
</g>
<!-- http://latin.omdoc.org/logics/proof_theory?Base&#45;&gt;http://latin.omdoc.org/logics/proof_theory?TND -->
<g id="edge35" class="edge"><title>http://latin.omdoc.org/logics/proof_theory?Base&#45;&gt;http://latin.omdoc.org/logics/proof_theory?TND</title>
<a class="graphinclude">
<path fill="none" stroke="black" d="M494.565,-341.387C409.727,-341.929 160.764,-338.891 104,-286 86.8056,-269.979 83.0247,-242.741 82.9608,-222.23"/>
<polygon fill="black" stroke="black" points="86.4601,-222.298 83.2149,-212.212 79.4624,-222.12 86.4601,-222.298"/>
</a>
</g>
<!-- http://latin.omdoc.org/logics/proof_theory?Base&#45;&gt;http://latin.omdoc.org/logics/proof_theory?CONJ -->
<g id="edge33" class="edge"><title>http://latin.omdoc.org/logics/proof_theory?Base&#45;&gt;http://latin.omdoc.org/logics/proof_theory?CONJ</title>
<a class="graphinclude">
<path fill="none" stroke="black" d="M509.851,-325.731C501.499,-316.031 490.524,-303.286 481.093,-292.334"/>
<polygon fill="black" stroke="black" points="483.736,-290.039 474.558,-284.745 478.431,-294.607 483.736,-290.039"/>
</a>
</g>
<!-- http://latin.omdoc.org/logics/proof_theory?IPL&#45;&gt;http://latin.omdoc.org/foundations/minimal?Bool -->
<g id="edge21" class="edge"><title>http://latin.omdoc.org/logics/proof_theory?IPL&#45;&gt;http://latin.omdoc.org/foundations/minimal?Bool</title>
<a xlink:href="http://latin.omdoc.org/logics/soundness?IPL" class="graphview">
<path fill="none" stroke="black" d="M293.241,-175.999C290.123,-145.853 283.599,-82.7897 279.838,-46.4303"/>
<polygon fill="black" stroke="black" points="283.276,-45.6564 278.766,-36.0697 276.313,-46.3768 283.276,-45.6564"/>
</a>
<a xlink:href="http://latin.omdoc.org/logics/soundness?IPL" class="IPL">
<text text-anchor="middle" x="299" y="-102.3" font-family="Times New Roman,serif" font-size="14.00">IPL</text>
</a>
</g>
<!-- http://latin.omdoc.org/logics/proof_theory?IPL&#45;&gt;http://latin.omdoc.org/logics/proof_theory?CPL -->
<g id="edge23" class="edge"><title>http://latin.omdoc.org/logics/proof_theory?IPL&#45;&gt;http://latin.omdoc.org/logics/proof_theory?CPL</title>
<a class="graphinclude">
<path fill="none" stroke="black" d="M286.869,-176.828C280.832,-165.998 271.795,-151.956 261,-142 251.894,-133.603 240.409,-126.466 229.747,-120.87"/>
<polygon fill="black" stroke="black" points="231.183,-117.675 220.67,-116.357 228.066,-123.943 231.183,-117.675"/>
</a>
</g>
</g>
</svg>
