<?xml version="1.0" encoding="UTF-8" standalone="no"?>
<!DOCTYPE svg PUBLIC "-//W3C//DTD SVG 1.1//EN"
 "http://www.w3.org/Graphics/SVG/1.1/DTD/svg11.dtd">
<!-- Generated by graphviz version 2.28.0 (20110507.0327)
 -->
<!-- Title: MMT Pages: 1 -->
<svg width="356pt" height="260pt"
 viewBox="0.00 0.00 356.44 260.00" xmlns="http://www.w3.org/2000/svg" xmlns:xlink="http://www.w3.org/1999/xlink">
<g id="graph1" class="graph" transform="scale(1 1) rotate(0) translate(4 256)">
<title>MMT</title>
<polygon fill="white" stroke="white" points="-4,5 -4,-256 353.44,-256 353.44,5 -4,5"/>
<g id="graph2" class="cluster"><title>cluster_local</title>
<polygon fill="none" stroke="black" points="154.44,-136 154.44,-188 226.44,-188 226.44,-136 154.44,-136"/>
</g>
<!-- http://latin.omdoc.org/foundations/zfc?ZFC -->
<g id="node2" class="node"><title>http://latin.omdoc.org/foundations/zfc?ZFC</title>
<a xlink:href="javascript:parent.navigate(&#39;http://latin.omdoc.org/foundations/zfc?ZFC&#39;)" xlink:title="theory http://latin.omdoc.org/foundations/zfc?ZFC">
<ellipse fill="none" stroke="black" cx="190.44" cy="-162" rx="27.4223" ry="18"/>
<text text-anchor="middle" x="190.44" y="-158.3" font-family="Times New Roman,serif" font-size="14.00">ZFC</text>
</a>
</g>
<!-- http://latin.omdoc.org/foundations/zfc?Lists -->
<g id="node3" class="node"><title>http://latin.omdoc.org/foundations/zfc?Lists</title>
<a xlink:href="javascript:parent.navigate(&#39;http://latin.omdoc.org/foundations/zfc?Lists&#39;)" xlink:title="theory http://latin.omdoc.org/foundations/zfc?Lists">
<ellipse fill="gray" stroke="black" cx="248.44" cy="-18" rx="28.3955" ry="18"/>
<text text-anchor="middle" x="248.44" y="-14.3" font-family="Times New Roman,serif" font-size="14.00">Lists</text>
</a>
</g>
<!-- http://latin.omdoc.org/foundations/zfc?ZFC&#45;&gt;http://latin.omdoc.org/foundations/zfc?Lists -->
<g id="edge3" class="edge"><title>http://latin.omdoc.org/foundations/zfc?ZFC&#45;&gt;http://latin.omdoc.org/foundations/zfc?Lists</title>
<a xlink:title="include">
<path fill="none" stroke="black" d="M204.295,-145.875C212.774,-135.83 223.165,-121.963 229.44,-108 238.277,-88.3355 243.092,-64.3483 245.661,-46.2335"/>
<polygon fill="black" stroke="black" points="249.165,-46.4267 246.958,-36.0644 242.221,-45.5415 249.165,-46.4267"/>
</a>
</g>
<!-- http://latin.omdoc.org/foundations/zfc?Operations -->
<g id="node5" class="node"><title>http://latin.omdoc.org/foundations/zfc?Operations</title>
<a xlink:href="javascript:parent.navigate(&#39;http://latin.omdoc.org/foundations/zfc?Operations&#39;)" xlink:title="theory http://latin.omdoc.org/foundations/zfc?Operations">
<ellipse fill="gray" stroke="black" cx="71.4402" cy="-90" rx="50.5427" ry="18"/>
<text text-anchor="middle" x="71.4402" y="-86.3" font-family="Times New Roman,serif" font-size="14.00">Operations</text>
</a>
</g>
<!-- http://latin.omdoc.org/foundations/zfc?ZFC&#45;&gt;http://latin.omdoc.org/foundations/zfc?Operations -->
<g id="edge5" class="edge"><title>http://latin.omdoc.org/foundations/zfc?ZFC&#45;&gt;http://latin.omdoc.org/foundations/zfc?Operations</title>
<a xlink:title="include">
<path fill="none" stroke="black" d="M174.262,-147.418C169.322,-143.532 163.781,-139.425 158.44,-136 143.267,-126.269 125.744,-116.881 110.417,-109.221"/>
<polygon fill="black" stroke="black" points="111.717,-105.96 101.199,-104.687 108.627,-112.241 111.717,-105.96"/>
</a>
</g>
<!-- http://latin.omdoc.org/foundations/zfc?Option -->
<g id="node7" class="node"><title>http://latin.omdoc.org/foundations/zfc?Option</title>
<a xlink:href="javascript:parent.navigate(&#39;http://latin.omdoc.org/foundations/zfc?Option&#39;)" xlink:title="theory http://latin.omdoc.org/foundations/zfc?Option">
<ellipse fill="gray" stroke="black" cx="312.44" cy="-90" rx="36.096" ry="18"/>
<text text-anchor="middle" x="312.44" y="-86.3" font-family="Times New Roman,serif" font-size="14.00">Option</text>
</a>
</g>
<!-- http://latin.omdoc.org/foundations/zfc?ZFC&#45;&gt;http://latin.omdoc.org/foundations/zfc?Option -->
<g id="edge7" class="edge"><title>http://latin.omdoc.org/foundations/zfc?ZFC&#45;&gt;http://latin.omdoc.org/foundations/zfc?Option</title>
<a xlink:title="include">
<path fill="none" stroke="black" d="M206.347,-147.066C211.05,-143.256 216.314,-139.278 221.44,-136 238.854,-124.864 259.412,-114.486 276.578,-106.51"/>
<polygon fill="black" stroke="black" points="278.08,-109.672 285.724,-102.336 275.174,-103.304 278.08,-109.672"/>
</a>
</g>
<!-- http://latin.omdoc.org/foundations/zfc?Boolean -->
<g id="node9" class="node"><title>http://latin.omdoc.org/foundations/zfc?Boolean</title>
<a xlink:href="javascript:parent.navigate(&#39;http://latin.omdoc.org/foundations/zfc?Boolean&#39;)" xlink:title="theory http://latin.omdoc.org/foundations/zfc?Boolean">
<ellipse fill="gray" stroke="black" cx="180.44" cy="-90" rx="39.9464" ry="18"/>
<text text-anchor="middle" x="180.44" y="-86.3" font-family="Times New Roman,serif" font-size="14.00">Boolean</text>
</a>
</g>
<!-- http://latin.omdoc.org/foundations/zfc?ZFC&#45;&gt;http://latin.omdoc.org/foundations/zfc?Boolean -->
<g id="edge9" class="edge"><title>http://latin.omdoc.org/foundations/zfc?ZFC&#45;&gt;http://latin.omdoc.org/foundations/zfc?Boolean</title>
<a xlink:title="include">
<path fill="none" stroke="black" d="M188.02,-144.055C186.918,-136.346 185.587,-127.027 184.349,-118.364"/>
<polygon fill="black" stroke="black" points="187.787,-117.68 182.908,-108.275 180.858,-118.67 187.787,-117.68"/>
</a>
</g>
<!-- http://latin.omdoc.org/foundations/zfc?Option&#45;&gt;http://latin.omdoc.org/foundations/zfc?Lists -->
<g id="edge23" class="edge"><title>http://latin.omdoc.org/foundations/zfc?Option&#45;&gt;http://latin.omdoc.org/foundations/zfc?Lists</title>
<a xlink:title="include">
<path fill="none" stroke="black" d="M297.918,-73.1159C289.336,-63.7298 278.335,-51.6979 268.887,-41.3637"/>
<polygon fill="black" stroke="black" points="271.361,-38.8825 262.03,-33.8639 266.195,-43.6059 271.361,-38.8825"/>
</a>
</g>
<!-- http://latin.omdoc.org/foundations/zfc?ZFC_FOL -->
<g id="node11" class="node"><title>http://latin.omdoc.org/foundations/zfc?ZFC_FOL</title>
<a xlink:href="javascript:parent.navigate(&#39;http://latin.omdoc.org/foundations/zfc?ZFC_FOL&#39;)" xlink:title="theory http://latin.omdoc.org/foundations/zfc?ZFC_FOL">
<ellipse fill="gray" stroke="black" cx="205.44" cy="-234" rx="50.0684" ry="18"/>
<text text-anchor="middle" x="205.44" y="-230.3" font-family="Times New Roman,serif" font-size="14.00">ZFC_FOL</text>
</a>
</g>
<!-- http://latin.omdoc.org/foundations/zfc?ZFC_FOL&#45;&gt;http://latin.omdoc.org/foundations/zfc?ZFC -->
<g id="edge11" class="edge"><title>http://latin.omdoc.org/foundations/zfc?ZFC_FOL&#45;&gt;http://latin.omdoc.org/foundations/zfc?ZFC</title>
<a xlink:title="include">
<path fill="none" stroke="black" d="M201.732,-215.697C200.079,-207.983 198.093,-198.712 196.25,-190.112"/>
<polygon fill="black" stroke="black" points="199.623,-189.149 194.105,-180.104 192.779,-190.616 199.623,-189.149"/>
</a>
</g>
<!-- http://cds.omdoc.org/urtheories?LF -->
<g id="node13" class="node"><title>http://cds.omdoc.org/urtheories?LF</title>
<a xlink:href="javascript:parent.navigate(&#39;http://cds.omdoc.org/urtheories?LF&#39;)" xlink:title="theory http://cds.omdoc.org/urtheories?LF">
<ellipse fill="gray" stroke="black" cx="110.44" cy="-234" rx="27" ry="18"/>
<text text-anchor="middle" x="110.44" y="-230.3" font-family="Times New Roman,serif" font-size="14.00">LF</text>
</a>
</g>
<!-- http://cds.omdoc.org/urtheories?LF&#45;&gt;http://latin.omdoc.org/foundations/zfc?ZFC -->
<g id="edge13" class="edge"><title>http://cds.omdoc.org/urtheories?LF&#45;&gt;http://latin.omdoc.org/foundations/zfc?ZFC</title>
<a xlink:title="meta">
<path fill="none" stroke="green" d="M126.246,-219.17C137.86,-209.008 153.834,-195.03 166.941,-183.561"/>
<polygon fill="green" stroke="green" points="169.447,-186.02 174.668,-176.801 164.837,-180.752 169.447,-186.02"/>
</a>
</g>
<!-- http://cds.omdoc.org/urtheories?LF&#45;&gt;http://latin.omdoc.org/foundations/zfc?Lists -->
<g id="edge15" class="edge"><title>http://cds.omdoc.org/urtheories?LF&#45;&gt;http://latin.omdoc.org/foundations/zfc?Lists</title>
<a xlink:title="meta">
<path fill="none" stroke="green" d="M92.1213,-220.401C53.4978,-192.328 -29.4868,-123.09 11.4402,-72 35.872,-41.5012 149.186,-27.3817 209.853,-21.9122"/>
<polygon fill="green" stroke="green" points="210.519,-25.3677 220.18,-21.0189 209.916,-18.3938 210.519,-25.3677"/>
</a>
</g>
<!-- http://cds.omdoc.org/urtheories?LF&#45;&gt;http://latin.omdoc.org/foundations/zfc?Operations -->
<g id="edge19" class="edge"><title>http://cds.omdoc.org/urtheories?LF&#45;&gt;http://latin.omdoc.org/foundations/zfc?Operations</title>
<a xlink:title="meta">
<path fill="none" stroke="green" d="M105.813,-216.153C99.1643,-191.944 86.8354,-147.054 78.8922,-118.133"/>
<polygon fill="green" stroke="green" points="82.2063,-116.984 76.1828,-108.268 75.4563,-118.838 82.2063,-116.984"/>
</a>
</g>
<!-- http://cds.omdoc.org/urtheories?LF&#45;&gt;http://latin.omdoc.org/foundations/zfc?Option -->
<g id="edge21" class="edge"><title>http://cds.omdoc.org/urtheories?LF&#45;&gt;http://latin.omdoc.org/foundations/zfc?Option</title>
<a xlink:title="meta">
<path fill="none" stroke="green" d="M131.575,-222.506C136.411,-220.248 141.565,-217.956 146.44,-216 182.964,-201.35 197.859,-210.07 230.44,-188 258.521,-168.979 282.46,-137.799 297.096,-115.937"/>
<polygon fill="green" stroke="green" points="300.075,-117.777 302.603,-107.488 294.211,-113.955 300.075,-117.777"/>
</a>
</g>
<!-- http://cds.omdoc.org/urtheories?LF&#45;&gt;http://latin.omdoc.org/foundations/zfc?Boolean -->
<g id="edge17" class="edge"><title>http://cds.omdoc.org/urtheories?LF&#45;&gt;http://latin.omdoc.org/foundations/zfc?Boolean</title>
<a xlink:title="meta">
<path fill="none" stroke="green" d="M116.269,-216.068C123.32,-196.342 136.05,-163.008 150.44,-136 154.022,-129.278 158.347,-122.297 162.583,-115.896"/>
<polygon fill="green" stroke="green" points="165.492,-117.843 168.228,-107.607 159.706,-113.903 165.492,-117.843"/>
</a>
</g>
</g>
</svg>
