<?xml version="1.0" encoding="UTF-8" standalone="no"?>
<!DOCTYPE svg PUBLIC "-//W3C//DTD SVG 1.1//EN"
 "http://www.w3.org/Graphics/SVG/1.1/DTD/svg11.dtd">
<!-- Generated by graphviz version 2.28.0 (20110507.0327)
 -->
<!-- Title: MMT Pages: 1 -->
<svg width="360pt" height="276pt"
 viewBox="0.00 0.00 360.17 276.00" xmlns="http://www.w3.org/2000/svg" xmlns:xlink="http://www.w3.org/1999/xlink">
<g id="graph1" class="graph" transform="scale(1 1) rotate(0) translate(4 272)">
<title>MMT</title>
<polygon fill="white" stroke="white" points="-4,5 -4,-272 357.171,-272 357.171,5 -4,5"/>
<g id="graph2" class="cluster"><title>cluster_local</title>
<polygon fill="none" stroke="black" points="135,-8 135,-132 213,-132 213,-8 135,-8"/>
</g>
<!-- http://latin.omdoc.org/foundations/zfc?Lists -->
<g id="node2" class="node"><title>http://latin.omdoc.org/foundations/zfc?Lists</title>
<a xlink:href="javascript:parent.navigate(&#39;http://latin.omdoc.org/foundations/zfc?Lists&#39;)" xlink:title="theory http://latin.omdoc.org/foundations/zfc?Lists">
<ellipse fill="none" stroke="black" cx="174" cy="-106" rx="28.3955" ry="18"/>
<text text-anchor="middle" x="174" y="-102.3" font-family="Times New Roman,serif" font-size="14.00">Lists</text>
</a>
</g>
<!-- http://latin.omdoc.org/foundations/zfc?Trees -->
<g id="node3" class="node"><title>http://latin.omdoc.org/foundations/zfc?Trees</title>
<a xlink:href="javascript:parent.navigate(&#39;http://latin.omdoc.org/foundations/zfc?Trees&#39;)" xlink:title="theory http://latin.omdoc.org/foundations/zfc?Trees">
<ellipse fill="none" stroke="black" cx="174" cy="-34" rx="31.2965" ry="18"/>
<text text-anchor="middle" x="174" y="-30.3" font-family="Times New Roman,serif" font-size="14.00">Trees</text>
</a>
</g>
<!-- http://latin.omdoc.org/foundations/zfc?Lists&#45;&gt;http://latin.omdoc.org/foundations/zfc?Trees -->
<g id="edge13" class="edge"><title>http://latin.omdoc.org/foundations/zfc?Lists&#45;&gt;http://latin.omdoc.org/foundations/zfc?Trees</title>
<a xlink:title="include">
<path fill="none" stroke="black" d="M174,-87.6966C174,-79.9827 174,-70.7125 174,-62.1124"/>
<polygon fill="black" stroke="black" points="177.5,-62.1043 174,-52.1043 170.5,-62.1044 177.5,-62.1043"/>
</a>
</g>
<!-- http://latin.omdoc.org/foundations/zfc?Nat -->
<g id="node4" class="node"><title>http://latin.omdoc.org/foundations/zfc?Nat</title>
<a xlink:href="javascript:parent.navigate(&#39;http://latin.omdoc.org/foundations/zfc?Nat&#39;)" xlink:title="theory http://latin.omdoc.org/foundations/zfc?Nat">
<ellipse fill="gray" stroke="black" cx="120" cy="-178" rx="27" ry="18"/>
<text text-anchor="middle" x="120" y="-174.3" font-family="Times New Roman,serif" font-size="14.00">Nat</text>
</a>
</g>
<!-- http://latin.omdoc.org/foundations/zfc?Nat&#45;&gt;http://latin.omdoc.org/foundations/zfc?Lists -->
<g id="edge3" class="edge"><title>http://latin.omdoc.org/foundations/zfc?Nat&#45;&gt;http://latin.omdoc.org/foundations/zfc?Lists</title>
<a xlink:title="include">
<path fill="none" stroke="black" d="M131.984,-161.465C138.976,-152.402 147.936,-140.786 155.785,-130.612"/>
<polygon fill="black" stroke="black" points="158.712,-132.548 162.049,-122.492 153.17,-128.272 158.712,-132.548"/>
</a>
</g>
<!-- http://latin.omdoc.org/foundations/zfc?Option -->
<g id="node10" class="node"><title>http://latin.omdoc.org/foundations/zfc?Option</title>
<a xlink:href="javascript:parent.navigate(&#39;http://latin.omdoc.org/foundations/zfc?Option&#39;)" xlink:title="theory http://latin.omdoc.org/foundations/zfc?Option">
<ellipse fill="gray" stroke="black" cx="91" cy="-106" rx="36.096" ry="18"/>
<text text-anchor="middle" x="91" y="-102.3" font-family="Times New Roman,serif" font-size="14.00">Option</text>
</a>
</g>
<!-- http://latin.omdoc.org/foundations/zfc?Nat&#45;&gt;http://latin.omdoc.org/foundations/zfc?Option -->
<g id="edge29" class="edge"><title>http://latin.omdoc.org/foundations/zfc?Nat&#45;&gt;http://latin.omdoc.org/foundations/zfc?Option</title>
<a xlink:title="include">
<path fill="none" stroke="black" d="M113.127,-160.411C109.782,-152.335 105.679,-142.431 101.918,-133.355"/>
<polygon fill="black" stroke="black" points="105.086,-131.855 98.0247,-123.956 98.6187,-134.534 105.086,-131.855"/>
</a>
</g>
<!-- http://latin.omdoc.org/foundations/zfc?Powersets -->
<g id="node6" class="node"><title>http://latin.omdoc.org/foundations/zfc?Powersets</title>
<a xlink:href="javascript:parent.navigate(&#39;http://latin.omdoc.org/foundations/zfc?Powersets&#39;)" xlink:title="theory http://latin.omdoc.org/foundations/zfc?Powersets">
<ellipse fill="gray" stroke="black" cx="213" cy="-178" rx="48.1437" ry="18"/>
<text text-anchor="middle" x="213" y="-174.3" font-family="Times New Roman,serif" font-size="14.00">Powersets</text>
</a>
</g>
<!-- http://latin.omdoc.org/foundations/zfc?Powersets&#45;&gt;http://latin.omdoc.org/foundations/zfc?Lists -->
<g id="edge5" class="edge"><title>http://latin.omdoc.org/foundations/zfc?Powersets&#45;&gt;http://latin.omdoc.org/foundations/zfc?Lists</title>
<a xlink:title="include">
<path fill="none" stroke="black" d="M203.559,-160.055C198.893,-151.679 193.168,-141.404 188.003,-132.134"/>
<polygon fill="black" stroke="black" points="191.01,-130.339 183.085,-123.307 184.895,-133.746 191.01,-130.339"/>
</a>
</g>
<!-- http://latin.omdoc.org/foundations/zfc?Powersets&#45;&gt;http://latin.omdoc.org/foundations/zfc?Option -->
<g id="edge27" class="edge"><title>http://latin.omdoc.org/foundations/zfc?Powersets&#45;&gt;http://latin.omdoc.org/foundations/zfc?Option</title>
<a xlink:title="include">
<path fill="none" stroke="black" d="M186.196,-162.787C170.073,-154.114 149.212,-142.677 131,-132 127.772,-130.108 124.423,-128.095 121.097,-126.064"/>
<polygon fill="black" stroke="black" points="122.799,-123.001 112.453,-120.719 119.118,-128.955 122.799,-123.001"/>
</a>
</g>
<!-- http://latin.omdoc.org/foundations/zfc?ZFC -->
<g id="node8" class="node"><title>http://latin.omdoc.org/foundations/zfc?ZFC</title>
<a xlink:href="javascript:parent.navigate(&#39;http://latin.omdoc.org/foundations/zfc?ZFC&#39;)" xlink:title="theory http://latin.omdoc.org/foundations/zfc?ZFC">
<ellipse fill="gray" stroke="black" cx="307" cy="-178" rx="27.4223" ry="18"/>
<text text-anchor="middle" x="307" y="-174.3" font-family="Times New Roman,serif" font-size="14.00">ZFC</text>
</a>
</g>
<!-- http://latin.omdoc.org/foundations/zfc?ZFC&#45;&gt;http://latin.omdoc.org/foundations/zfc?Lists -->
<g id="edge7" class="edge"><title>http://latin.omdoc.org/foundations/zfc?ZFC&#45;&gt;http://latin.omdoc.org/foundations/zfc?Lists</title>
<a xlink:title="include">
<path fill="none" stroke="black" d="M286.219,-166.063C264.193,-154.47 229.197,-136.051 204.142,-122.864"/>
<polygon fill="black" stroke="black" points="205.554,-119.652 195.074,-118.092 202.293,-125.846 205.554,-119.652"/>
</a>
</g>
<!-- http://latin.omdoc.org/foundations/zfc?ZFC&#45;&gt;http://latin.omdoc.org/foundations/zfc?Option -->
<g id="edge25" class="edge"><title>http://latin.omdoc.org/foundations/zfc?ZFC&#45;&gt;http://latin.omdoc.org/foundations/zfc?Option</title>
<a xlink:title="include">
<path fill="none" stroke="black" d="M285.816,-166.249C280.726,-163.952 275.243,-161.707 270,-160 210.077,-140.492 189.554,-155.298 131,-132 127.062,-130.433 123.082,-128.478 119.237,-126.356"/>
<polygon fill="black" stroke="black" points="120.978,-123.319 110.596,-121.205 117.394,-129.332 120.978,-123.319"/>
</a>
</g>
<!-- http://latin.omdoc.org/foundations/zfc?Option&#45;&gt;http://latin.omdoc.org/foundations/zfc?Lists -->
<g id="edge9" class="edge"><title>http://latin.omdoc.org/foundations/zfc?Option&#45;&gt;http://latin.omdoc.org/foundations/zfc?Lists</title>
<a xlink:title="include">
<path fill="none" stroke="black" d="M127.313,-106C129.972,-106 132.632,-106 135.291,-106"/>
<polygon fill="black" stroke="black" points="135.55,-109.5 145.55,-106 135.55,-102.5 135.55,-109.5"/>
</a>
</g>
<!-- http://cds.omdoc.org/urtheories?LF -->
<g id="node12" class="node"><title>http://cds.omdoc.org/urtheories?LF</title>
<a xlink:href="javascript:parent.navigate(&#39;http://cds.omdoc.org/urtheories?LF&#39;)" xlink:title="theory http://cds.omdoc.org/urtheories?LF">
<ellipse fill="gray" stroke="black" cx="27" cy="-250" rx="27" ry="18"/>
<text text-anchor="middle" x="27" y="-246.3" font-family="Times New Roman,serif" font-size="14.00">LF</text>
</a>
</g>
<!-- http://cds.omdoc.org/urtheories?LF&#45;&gt;http://latin.omdoc.org/foundations/zfc?Lists -->
<g id="edge11" class="edge"><title>http://cds.omdoc.org/urtheories?LF&#45;&gt;http://latin.omdoc.org/foundations/zfc?Lists</title>
<a xlink:title="meta">
<path fill="none" stroke="green" d="M53.9655,-248.735C123.483,-247.422 305.943,-239.79 343,-196 383.296,-148.382 273.114,-122.688 211.847,-112.41"/>
<polygon fill="green" stroke="green" points="212.174,-108.918 201.744,-110.78 211.059,-115.829 212.174,-108.918"/>
</a>
</g>
<!-- http://cds.omdoc.org/urtheories?LF&#45;&gt;http://latin.omdoc.org/foundations/zfc?Trees -->
<g id="edge15" class="edge"><title>http://cds.omdoc.org/urtheories?LF&#45;&gt;http://latin.omdoc.org/foundations/zfc?Trees</title>
<a xlink:title="meta">
<path fill="none" stroke="green" d="M23.8542,-231.923C19.007,-200.107 13.389,-131.09 46,-88 66.9039,-60.3791 104.799,-47.0618 133.951,-40.6962"/>
<polygon fill="green" stroke="green" points="134.733,-44.1094 143.856,-38.7225 133.365,-37.2444 134.733,-44.1094"/>
</a>
</g>
<!-- http://cds.omdoc.org/urtheories?LF&#45;&gt;http://latin.omdoc.org/foundations/zfc?Nat -->
<g id="edge19" class="edge"><title>http://cds.omdoc.org/urtheories?LF&#45;&gt;http://latin.omdoc.org/foundations/zfc?Nat</title>
<a xlink:title="meta">
<path fill="none" stroke="green" d="M44.4926,-235.834C58.5216,-225.274 78.4156,-210.3 94.2618,-198.373"/>
<polygon fill="green" stroke="green" points="96.701,-200.918 102.586,-192.107 92.4913,-195.325 96.701,-200.918"/>
</a>
</g>
<!-- http://cds.omdoc.org/urtheories?LF&#45;&gt;http://latin.omdoc.org/foundations/zfc?Powersets -->
<g id="edge21" class="edge"><title>http://cds.omdoc.org/urtheories?LF&#45;&gt;http://latin.omdoc.org/foundations/zfc?Powersets</title>
<a xlink:title="meta">
<path fill="none" stroke="green" d="M50.181,-240.276C80.3072,-228.938 133.469,-208.931 170.831,-194.87"/>
<polygon fill="green" stroke="green" points="172.315,-198.051 180.441,-191.253 169.849,-191.5 172.315,-198.051"/>
</a>
</g>
<!-- http://cds.omdoc.org/urtheories?LF&#45;&gt;http://latin.omdoc.org/foundations/zfc?ZFC -->
<g id="edge17" class="edge"><title>http://cds.omdoc.org/urtheories?LF&#45;&gt;http://latin.omdoc.org/foundations/zfc?ZFC</title>
<a xlink:title="meta">
<path fill="none" stroke="green" d="M53.0317,-245.218C98.0494,-238.26 193.014,-221.745 270,-196 272.124,-195.29 274.29,-194.495 276.453,-193.647"/>
<polygon fill="green" stroke="green" points="277.952,-196.813 285.796,-189.691 275.223,-190.367 277.952,-196.813"/>
</a>
</g>
<!-- http://cds.omdoc.org/urtheories?LF&#45;&gt;http://latin.omdoc.org/foundations/zfc?Option -->
<g id="edge23" class="edge"><title>http://cds.omdoc.org/urtheories?LF&#45;&gt;http://latin.omdoc.org/foundations/zfc?Option</title>
<a xlink:title="meta">
<path fill="none" stroke="green" d="M34.4669,-232.433C45.4873,-207.981 66.2094,-162.004 79.2714,-133.023"/>
<polygon fill="green" stroke="green" points="82.4642,-134.457 83.3823,-123.902 76.0824,-131.58 82.4642,-134.457"/>
</a>
</g>
</g>
</svg>
