<?xml version="1.0" encoding="UTF-8" standalone="no"?>
<!DOCTYPE svg PUBLIC "-//W3C//DTD SVG 1.1//EN"
 "http://www.w3.org/Graphics/SVG/1.1/DTD/svg11.dtd">
<!-- Generated by graphviz version 2.28.0 (20110507.0327)
 -->
<!-- Title: MMT Pages: 1 -->
<svg width="253pt" height="332pt"
 viewBox="0.00 0.00 253.10 332.00" xmlns="http://www.w3.org/2000/svg" xmlns:xlink="http://www.w3.org/1999/xlink">
<g id="graph1" class="graph" transform="scale(1 1) rotate(0) translate(4 328)">
<title>MMT</title>
<polygon fill="white" stroke="white" points="-4,5 -4,-328 250.101,-328 250.101,5 -4,5"/>
<g id="graph2" class="cluster"><title>cluster_local</title>
<polygon fill="none" stroke="black" points="77.1014,-136 77.1014,-188 147.101,-188 147.101,-136 77.1014,-136"/>
</g>
<!-- http://latin.omdoc.org/foundations/zfc?Nat -->
<g id="node2" class="node"><title>http://latin.omdoc.org/foundations/zfc?Nat</title>
<a xlink:href="javascript:parent.navigate(&#39;http://latin.omdoc.org/foundations/zfc?Nat&#39;)" xlink:title="theory http://latin.omdoc.org/foundations/zfc?Nat">
<ellipse fill="none" stroke="black" cx="112.101" cy="-162" rx="27" ry="18"/>
<text text-anchor="middle" x="112.101" y="-158.3" font-family="Times New Roman,serif" font-size="14.00">Nat</text>
</a>
</g>
<!-- http://latin.omdoc.org/foundations/zfc?Lists -->
<g id="node3" class="node"><title>http://latin.omdoc.org/foundations/zfc?Lists</title>
<a xlink:href="javascript:parent.navigate(&#39;http://latin.omdoc.org/foundations/zfc?Lists&#39;)" xlink:title="theory http://latin.omdoc.org/foundations/zfc?Lists">
<ellipse fill="gray" stroke="black" cx="48.1014" cy="-18" rx="28.3955" ry="18"/>
<text text-anchor="middle" x="48.1014" y="-14.3" font-family="Times New Roman,serif" font-size="14.00">Lists</text>
</a>
</g>
<!-- http://latin.omdoc.org/foundations/zfc?Nat&#45;&gt;http://latin.omdoc.org/foundations/zfc?Lists -->
<g id="edge3" class="edge"><title>http://latin.omdoc.org/foundations/zfc?Nat&#45;&gt;http://latin.omdoc.org/foundations/zfc?Lists</title>
<a xlink:title="include">
<path fill="none" stroke="black" d="M110.935,-143.787C109.119,-125.237 104.538,-95.2507 93.1014,-72 87.4973,-60.6069 78.9011,-49.6284 70.7179,-40.6473"/>
<polygon fill="black" stroke="black" points="73.1532,-38.1294 63.7185,-33.3088 68.0877,-42.9608 73.1532,-38.1294"/>
</a>
</g>
<!-- http://latin.omdoc.org/foundations/zfc?Recursion -->
<g id="node5" class="node"><title>http://latin.omdoc.org/foundations/zfc?Recursion</title>
<a xlink:href="javascript:parent.navigate(&#39;http://latin.omdoc.org/foundations/zfc?Recursion&#39;)" xlink:title="theory http://latin.omdoc.org/foundations/zfc?Recursion">
<ellipse fill="gray" stroke="black" cx="197.101" cy="-90" rx="48.1437" ry="18"/>
<text text-anchor="middle" x="197.101" y="-86.3" font-family="Times New Roman,serif" font-size="14.00">Recursion</text>
</a>
</g>
<!-- http://latin.omdoc.org/foundations/zfc?Nat&#45;&gt;http://latin.omdoc.org/foundations/zfc?Recursion -->
<g id="edge5" class="edge"><title>http://latin.omdoc.org/foundations/zfc?Nat&#45;&gt;http://latin.omdoc.org/foundations/zfc?Recursion</title>
<a xlink:title="include">
<path fill="none" stroke="black" d="M128.49,-147.503C140.347,-137.739 156.629,-124.33 170.357,-113.025"/>
<polygon fill="black" stroke="black" points="172.598,-115.714 178.092,-106.655 168.148,-110.31 172.598,-115.714"/>
</a>
</g>
<!-- http://latin.omdoc.org/foundations/zfc?Option -->
<g id="node7" class="node"><title>http://latin.omdoc.org/foundations/zfc?Option</title>
<a xlink:href="javascript:parent.navigate(&#39;http://latin.omdoc.org/foundations/zfc?Option&#39;)" xlink:title="theory http://latin.omdoc.org/foundations/zfc?Option">
<ellipse fill="gray" stroke="black" cx="48.1014" cy="-90" rx="36.096" ry="18"/>
<text text-anchor="middle" x="48.1014" y="-86.3" font-family="Times New Roman,serif" font-size="14.00">Option</text>
</a>
</g>
<!-- http://latin.omdoc.org/foundations/zfc?Nat&#45;&gt;http://latin.omdoc.org/foundations/zfc?Option -->
<g id="edge7" class="edge"><title>http://latin.omdoc.org/foundations/zfc?Nat&#45;&gt;http://latin.omdoc.org/foundations/zfc?Option</title>
<a xlink:title="include">
<path fill="none" stroke="black" d="M98.5286,-146.155C90.1077,-136.944 79.1041,-124.909 69.5251,-114.432"/>
<polygon fill="black" stroke="black" points="71.8749,-111.815 62.544,-106.797 66.7086,-116.539 71.8749,-111.815"/>
</a>
</g>
<!-- http://latin.omdoc.org/foundations/zfc?Option&#45;&gt;http://latin.omdoc.org/foundations/zfc?Lists -->
<g id="edge21" class="edge"><title>http://latin.omdoc.org/foundations/zfc?Option&#45;&gt;http://latin.omdoc.org/foundations/zfc?Lists</title>
<a xlink:title="include">
<path fill="none" stroke="black" d="M48.1014,-71.6966C48.1014,-63.9827 48.1014,-54.7125 48.1014,-46.1124"/>
<polygon fill="black" stroke="black" points="51.6015,-46.1043 48.1014,-36.1043 44.6015,-46.1044 51.6015,-46.1043"/>
</a>
</g>
<!-- http://latin.omdoc.org/foundations/zfc?TypedZF -->
<g id="node9" class="node"><title>http://latin.omdoc.org/foundations/zfc?TypedZF</title>
<a xlink:href="javascript:parent.navigate(&#39;http://latin.omdoc.org/foundations/zfc?TypedZF&#39;)" xlink:title="theory http://latin.omdoc.org/foundations/zfc?TypedZF">
<ellipse fill="gray" stroke="black" cx="95.1014" cy="-234" rx="45.244" ry="18"/>
<text text-anchor="middle" x="95.1014" y="-230.3" font-family="Times New Roman,serif" font-size="14.00">TypedZF</text>
</a>
</g>
<!-- http://latin.omdoc.org/foundations/zfc?TypedZF&#45;&gt;http://latin.omdoc.org/foundations/zfc?Nat -->
<g id="edge9" class="edge"><title>http://latin.omdoc.org/foundations/zfc?TypedZF&#45;&gt;http://latin.omdoc.org/foundations/zfc?Nat</title>
<a xlink:title="include">
<path fill="none" stroke="black" d="M99.2166,-216.055C101.109,-208.261 103.402,-198.822 105.525,-190.079"/>
<polygon fill="black" stroke="black" points="108.947,-190.819 107.906,-180.275 102.145,-189.167 108.947,-190.819"/>
</a>
</g>
<!-- http://cds.omdoc.org/urtheories?LF -->
<g id="node11" class="node"><title>http://cds.omdoc.org/urtheories?LF</title>
<a xlink:href="javascript:parent.navigate(&#39;http://cds.omdoc.org/urtheories?LF&#39;)" xlink:title="theory http://cds.omdoc.org/urtheories?LF">
<ellipse fill="gray" stroke="black" cx="95.1014" cy="-306" rx="27" ry="18"/>
<text text-anchor="middle" x="95.1014" y="-302.3" font-family="Times New Roman,serif" font-size="14.00">LF</text>
</a>
</g>
<!-- http://cds.omdoc.org/urtheories?LF&#45;&gt;http://latin.omdoc.org/foundations/zfc?Nat -->
<g id="edge11" class="edge"><title>http://cds.omdoc.org/urtheories?LF&#45;&gt;http://latin.omdoc.org/foundations/zfc?Nat</title>
<a xlink:title="meta">
<path fill="none" stroke="green" d="M113.663,-292.863C126.28,-283.422 141.933,-269.079 149.101,-252 155.293,-237.247 153.902,-231.263 149.101,-216 145.682,-205.13 139.154,-194.544 132.521,-185.727"/>
<polygon fill="green" stroke="green" points="135.209,-183.485 126.228,-177.865 129.744,-187.859 135.209,-183.485"/>
</a>
</g>
<!-- http://cds.omdoc.org/urtheories?LF&#45;&gt;http://latin.omdoc.org/foundations/zfc?Lists -->
<g id="edge13" class="edge"><title>http://cds.omdoc.org/urtheories?LF&#45;&gt;http://latin.omdoc.org/foundations/zfc?Lists</title>
<a xlink:title="meta">
<path fill="none" stroke="green" d="M74.4379,-294.172C59.1317,-285.03 39.0975,-270.482 28.1014,-252 -5.11254,-196.176 8.67752,-172.718 3.10138,-108 1.72789,-92.0591 -2.41463,-87.0191 3.10138,-72 7.47861,-60.0816 15.8561,-49.0095 24.2074,-40.1004"/>
<polygon fill="green" stroke="green" points="26.8477,-42.4097 31.4386,-32.8611 21.8952,-37.4627 26.8477,-42.4097"/>
</a>
</g>
<!-- http://cds.omdoc.org/urtheories?LF&#45;&gt;http://latin.omdoc.org/foundations/zfc?Recursion -->
<g id="edge17" class="edge"><title>http://cds.omdoc.org/urtheories?LF&#45;&gt;http://latin.omdoc.org/foundations/zfc?Recursion</title>
<a xlink:title="meta">
<path fill="none" stroke="green" d="M116.224,-294.777C132.465,-285.791 154.093,-271.159 166.101,-252 192.019,-210.65 197.126,-152.475 197.672,-118.556"/>
<polygon fill="green" stroke="green" points="201.172,-118.461 197.71,-108.448 194.172,-118.435 201.172,-118.461"/>
</a>
</g>
<!-- http://cds.omdoc.org/urtheories?LF&#45;&gt;http://latin.omdoc.org/foundations/zfc?Option -->
<g id="edge19" class="edge"><title>http://cds.omdoc.org/urtheories?LF&#45;&gt;http://latin.omdoc.org/foundations/zfc?Option</title>
<a xlink:title="meta">
<path fill="none" stroke="green" d="M76.5399,-292.863C63.9227,-283.422 48.2693,-269.079 41.1014,-252 22.5385,-207.771 31.9786,-150.573 40.2397,-117.614"/>
<polygon fill="green" stroke="green" points="43.6587,-118.375 42.8434,-107.812 36.8933,-116.578 43.6587,-118.375"/>
</a>
</g>
<!-- http://cds.omdoc.org/urtheories?LF&#45;&gt;http://latin.omdoc.org/foundations/zfc?TypedZF -->
<g id="edge15" class="edge"><title>http://cds.omdoc.org/urtheories?LF&#45;&gt;http://latin.omdoc.org/foundations/zfc?TypedZF</title>
<a xlink:title="meta">
<path fill="none" stroke="green" d="M95.1014,-287.697C95.1014,-279.983 95.1014,-270.712 95.1014,-262.112"/>
<polygon fill="green" stroke="green" points="98.6015,-262.104 95.1014,-252.104 91.6015,-262.104 98.6015,-262.104"/>
</a>
</g>
</g>
</svg>
