<?xml version="1.0" encoding="UTF-8" standalone="no"?>
<!DOCTYPE svg PUBLIC "-//W3C//DTD SVG 1.1//EN"
 "http://www.w3.org/Graphics/SVG/1.1/DTD/svg11.dtd">
<!-- Generated by graphviz version 2.28.0 (20110507.0327)
 -->
<!-- Title: MMT Pages: 1 -->
<svg width="441pt" height="332pt"
 viewBox="0.00 0.00 441.17 332.00" xmlns="http://www.w3.org/2000/svg" xmlns:xlink="http://www.w3.org/1999/xlink">
<g id="graph1" class="graph" transform="scale(1 1) rotate(0) translate(4 328)">
<title>MMT</title>
<polygon fill="white" stroke="white" points="-4,5 -4,-328 438.166,-328 438.166,5 -4,5"/>
<g id="graph2" class="cluster"><title>cluster_local</title>
<polygon fill="none" stroke="black" points="218.166,-136 218.166,-188 330.166,-188 330.166,-136 218.166,-136"/>
</g>
<!-- http://latin.omdoc.org/foundations/zfc?Powersets -->
<g id="node2" class="node"><title>http://latin.omdoc.org/foundations/zfc?Powersets</title>
<a xlink:href="javascript:parent.navigate(&#39;http://latin.omdoc.org/foundations/zfc?Powersets&#39;)" xlink:title="theory http://latin.omdoc.org/foundations/zfc?Powersets">
<ellipse fill="none" stroke="black" cx="274.166" cy="-162" rx="48.1437" ry="18"/>
<text text-anchor="middle" x="274.166" y="-158.3" font-family="Times New Roman,serif" font-size="14.00">Powersets</text>
</a>
</g>
<!-- http://latin.omdoc.org/foundations/zfc?Lists -->
<g id="node3" class="node"><title>http://latin.omdoc.org/foundations/zfc?Lists</title>
<a xlink:href="javascript:parent.navigate(&#39;http://latin.omdoc.org/foundations/zfc?Lists&#39;)" xlink:title="theory http://latin.omdoc.org/foundations/zfc?Lists">
<ellipse fill="gray" stroke="black" cx="261.166" cy="-18" rx="28.3955" ry="18"/>
<text text-anchor="middle" x="261.166" y="-14.3" font-family="Times New Roman,serif" font-size="14.00">Lists</text>
</a>
</g>
<!-- http://latin.omdoc.org/foundations/zfc?Powersets&#45;&gt;http://latin.omdoc.org/foundations/zfc?Lists -->
<g id="edge3" class="edge"><title>http://latin.omdoc.org/foundations/zfc?Powersets&#45;&gt;http://latin.omdoc.org/foundations/zfc?Lists</title>
<a xlink:title="include">
<path fill="none" stroke="black" d="M287.398,-144.44C294.475,-134.504 302.475,-121.254 306.166,-108 310.458,-92.5865 311.682,-87.0191 306.166,-72 301.788,-60.0816 293.411,-49.0095 285.06,-40.1004"/>
<polygon fill="black" stroke="black" points="287.372,-37.4627 277.828,-32.8611 282.419,-42.4097 287.372,-37.4627"/>
</a>
</g>
<!-- http://latin.omdoc.org/foundations/zfc?Option -->
<g id="node5" class="node"><title>http://latin.omdoc.org/foundations/zfc?Option</title>
<a xlink:href="javascript:parent.navigate(&#39;http://latin.omdoc.org/foundations/zfc?Option&#39;)" xlink:title="theory http://latin.omdoc.org/foundations/zfc?Option">
<ellipse fill="gray" stroke="black" cx="261.166" cy="-90" rx="36.096" ry="18"/>
<text text-anchor="middle" x="261.166" y="-86.3" font-family="Times New Roman,serif" font-size="14.00">Option</text>
</a>
</g>
<!-- http://latin.omdoc.org/foundations/zfc?Powersets&#45;&gt;http://latin.omdoc.org/foundations/zfc?Option -->
<g id="edge5" class="edge"><title>http://latin.omdoc.org/foundations/zfc?Powersets&#45;&gt;http://latin.omdoc.org/foundations/zfc?Option</title>
<a xlink:title="include">
<path fill="none" stroke="black" d="M270.952,-143.697C269.52,-135.983 267.798,-126.712 266.201,-118.112"/>
<polygon fill="black" stroke="black" points="269.609,-117.297 264.342,-108.104 262.727,-118.575 269.609,-117.297"/>
</a>
</g>
<!-- http://latin.omdoc.org/foundations/zfc?ConditionalTermsAux -->
<g id="node7" class="node"><title>http://latin.omdoc.org/foundations/zfc?ConditionalTermsAux</title>
<a xlink:href="javascript:parent.navigate(&#39;http://latin.omdoc.org/foundations/zfc?ConditionalTermsAux&#39;)" xlink:title="theory http://latin.omdoc.org/foundations/zfc?ConditionalTermsAux">
<ellipse fill="gray" stroke="black" cx="116.166" cy="-90" rx="90.4879" ry="18"/>
<text text-anchor="middle" x="116.166" y="-86.3" font-family="Times New Roman,serif" font-size="14.00">ConditionalTermsAux</text>
</a>
</g>
<!-- http://latin.omdoc.org/foundations/zfc?Powersets&#45;&gt;http://latin.omdoc.org/foundations/zfc?ConditionalTermsAux -->
<g id="edge7" class="edge"><title>http://latin.omdoc.org/foundations/zfc?Powersets&#45;&gt;http://latin.omdoc.org/foundations/zfc?ConditionalTermsAux</title>
<a xlink:title="include">
<path fill="none" stroke="black" d="M246.212,-147.265C238.458,-143.537 230.015,-139.55 222.166,-136 202.931,-127.299 181.53,-118.12 163.022,-110.337"/>
<polygon fill="black" stroke="black" points="164.209,-107.04 153.634,-106.405 161.505,-113.497 164.209,-107.04"/>
</a>
</g>
<!-- http://latin.omdoc.org/foundations/zfc?Boolean -->
<g id="node9" class="node"><title>http://latin.omdoc.org/foundations/zfc?Boolean</title>
<a xlink:href="javascript:parent.navigate(&#39;http://latin.omdoc.org/foundations/zfc?Boolean&#39;)" xlink:title="theory http://latin.omdoc.org/foundations/zfc?Boolean">
<ellipse fill="gray" stroke="black" cx="393.166" cy="-90" rx="39.9464" ry="18"/>
<text text-anchor="middle" x="393.166" y="-86.3" font-family="Times New Roman,serif" font-size="14.00">Boolean</text>
</a>
</g>
<!-- http://latin.omdoc.org/foundations/zfc?Powersets&#45;&gt;http://latin.omdoc.org/foundations/zfc?Boolean -->
<g id="edge9" class="edge"><title>http://latin.omdoc.org/foundations/zfc?Powersets&#45;&gt;http://latin.omdoc.org/foundations/zfc?Boolean</title>
<a xlink:title="include">
<path fill="none" stroke="black" d="M298.823,-146.496C316.806,-135.917 341.347,-121.482 360.891,-109.985"/>
<polygon fill="black" stroke="black" points="362.91,-112.858 369.755,-104.771 359.361,-106.824 362.91,-112.858"/>
</a>
</g>
<!-- http://latin.omdoc.org/foundations/zfc?Option&#45;&gt;http://latin.omdoc.org/foundations/zfc?Lists -->
<g id="edge25" class="edge"><title>http://latin.omdoc.org/foundations/zfc?Option&#45;&gt;http://latin.omdoc.org/foundations/zfc?Lists</title>
<a xlink:title="include">
<path fill="none" stroke="black" d="M261.166,-71.6966C261.166,-63.9827 261.166,-54.7125 261.166,-46.1124"/>
<polygon fill="black" stroke="black" points="264.666,-46.1043 261.166,-36.1043 257.666,-46.1044 264.666,-46.1043"/>
</a>
</g>
<!-- http://latin.omdoc.org/foundations/zfc?TypedZF -->
<g id="node11" class="node"><title>http://latin.omdoc.org/foundations/zfc?TypedZF</title>
<a xlink:href="javascript:parent.navigate(&#39;http://latin.omdoc.org/foundations/zfc?TypedZF&#39;)" xlink:title="theory http://latin.omdoc.org/foundations/zfc?TypedZF">
<ellipse fill="gray" stroke="black" cx="288.166" cy="-234" rx="45.244" ry="18"/>
<text text-anchor="middle" x="288.166" y="-230.3" font-family="Times New Roman,serif" font-size="14.00">TypedZF</text>
</a>
</g>
<!-- http://latin.omdoc.org/foundations/zfc?TypedZF&#45;&gt;http://latin.omdoc.org/foundations/zfc?Powersets -->
<g id="edge11" class="edge"><title>http://latin.omdoc.org/foundations/zfc?TypedZF&#45;&gt;http://latin.omdoc.org/foundations/zfc?Powersets</title>
<a xlink:title="include">
<path fill="none" stroke="black" d="M284.705,-215.697C283.162,-207.983 281.308,-198.712 279.588,-190.112"/>
<polygon fill="black" stroke="black" points="282.98,-189.224 277.587,-180.104 276.116,-190.597 282.98,-189.224"/>
</a>
</g>
<!-- http://cds.omdoc.org/urtheories?LF -->
<g id="node13" class="node"><title>http://cds.omdoc.org/urtheories?LF</title>
<a xlink:href="javascript:parent.navigate(&#39;http://cds.omdoc.org/urtheories?LF&#39;)" xlink:title="theory http://cds.omdoc.org/urtheories?LF">
<ellipse fill="gray" stroke="black" cx="196.166" cy="-306" rx="27" ry="18"/>
<text text-anchor="middle" x="196.166" y="-302.3" font-family="Times New Roman,serif" font-size="14.00">LF</text>
</a>
</g>
<!-- http://cds.omdoc.org/urtheories?LF&#45;&gt;http://latin.omdoc.org/foundations/zfc?Powersets -->
<g id="edge13" class="edge"><title>http://cds.omdoc.org/urtheories?LF&#45;&gt;http://latin.omdoc.org/foundations/zfc?Powersets</title>
<a xlink:title="meta">
<path fill="none" stroke="green" d="M201.89,-288.351C208.501,-270.026 220.271,-239.988 234.166,-216 239.858,-206.173 247.093,-196.06 253.84,-187.337"/>
<polygon fill="green" stroke="green" points="256.621,-189.464 260.093,-179.455 251.137,-185.114 256.621,-189.464"/>
</a>
</g>
<!-- http://cds.omdoc.org/urtheories?LF&#45;&gt;http://latin.omdoc.org/foundations/zfc?Lists -->
<g id="edge15" class="edge"><title>http://cds.omdoc.org/urtheories?LF&#45;&gt;http://latin.omdoc.org/foundations/zfc?Lists</title>
<a xlink:title="meta">
<path fill="none" stroke="green" d="M175.586,-293.954C115.426,-260.288 -51.7193,-156.14 16.1657,-72 41.6745,-40.3829 160.284,-26.693 222.632,-21.5981"/>
<polygon fill="green" stroke="green" points="223.162,-25.0674 232.859,-20.7984 222.616,-18.0887 223.162,-25.0674"/>
</a>
</g>
<!-- http://cds.omdoc.org/urtheories?LF&#45;&gt;http://latin.omdoc.org/foundations/zfc?Option -->
<g id="edge23" class="edge"><title>http://cds.omdoc.org/urtheories?LF&#45;&gt;http://latin.omdoc.org/foundations/zfc?Option</title>
<a xlink:title="meta">
<path fill="none" stroke="green" d="M194.273,-287.88C191.539,-256.124 189.252,-186.715 214.166,-136 218.555,-127.065 225.492,-118.949 232.702,-112.147"/>
<polygon fill="green" stroke="green" points="235.302,-114.522 240.526,-105.305 230.694,-109.253 235.302,-114.522"/>
</a>
</g>
<!-- http://cds.omdoc.org/urtheories?LF&#45;&gt;http://latin.omdoc.org/foundations/zfc?ConditionalTermsAux -->
<g id="edge19" class="edge"><title>http://cds.omdoc.org/urtheories?LF&#45;&gt;http://latin.omdoc.org/foundations/zfc?ConditionalTermsAux</title>
<a xlink:title="meta">
<path fill="none" stroke="green" d="M189.888,-288.208C176.048,-251.186 142.819,-162.297 126.111,-117.604"/>
<polygon fill="green" stroke="green" points="129.305,-116.152 122.525,-108.01 122.748,-118.603 129.305,-116.152"/>
</a>
</g>
<!-- http://cds.omdoc.org/urtheories?LF&#45;&gt;http://latin.omdoc.org/foundations/zfc?Boolean -->
<g id="edge21" class="edge"><title>http://cds.omdoc.org/urtheories?LF&#45;&gt;http://latin.omdoc.org/foundations/zfc?Boolean</title>
<a xlink:title="meta">
<path fill="none" stroke="green" d="M222.636,-302.436C255.187,-297.889 310.056,-285.469 342.166,-252 377.669,-214.994 388.465,-153.4 391.743,-118.091"/>
<polygon fill="green" stroke="green" points="395.239,-118.278 392.538,-108.033 388.261,-117.727 395.239,-118.278"/>
</a>
</g>
<!-- http://cds.omdoc.org/urtheories?LF&#45;&gt;http://latin.omdoc.org/foundations/zfc?TypedZF -->
<g id="edge17" class="edge"><title>http://cds.omdoc.org/urtheories?LF&#45;&gt;http://latin.omdoc.org/foundations/zfc?TypedZF</title>
<a xlink:title="meta">
<path fill="none" stroke="green" d="M213.47,-291.834C226.558,-281.876 244.805,-267.992 259.988,-256.439"/>
<polygon fill="green" stroke="green" points="262.217,-259.142 268.056,-250.301 257.978,-253.571 262.217,-259.142"/>
</a>
</g>
</g>
</svg>
