<?xml version="1.0" encoding="UTF-8" standalone="no"?>
<!DOCTYPE svg PUBLIC "-//W3C//DTD SVG 1.1//EN"
 "http://www.w3.org/Graphics/SVG/1.1/DTD/svg11.dtd">
<!-- Generated by graphviz version 2.28.0 (20110507.0327)
 -->
<!-- Title: MMT Pages: 1 -->
<svg width="142pt" height="188pt"
 viewBox="0.00 0.00 142.00 188.00" xmlns="http://www.w3.org/2000/svg" xmlns:xlink="http://www.w3.org/1999/xlink">
<g id="graph1" class="graph" transform="scale(1 1) rotate(0) translate(4 184)">
<title>MMT</title>
<polygon fill="white" stroke="white" points="-4,5 -4,-184 139,-184 139,5 -4,5"/>
<g id="graph2" class="cluster"><title>cluster_local</title>
<polygon fill="none" stroke="black" points="8,-64 8,-116 112,-116 112,-64 8,-64"/>
</g>
<!-- http://latin.omdoc.org/logics/model_theory/categorical?Category -->
<g id="node2" class="node"><title>http://latin.omdoc.org/logics/model_theory/categorical?Category</title>
<a xlink:href="http://latin.omdoc.org/logics/model_theory/categorical?Category" class="graphtheory">
<ellipse fill="none" stroke="black" cx="60" cy="-90" rx="44.2946" ry="18"/>
<text text-anchor="middle" x="60" y="-86.3" font-family="Times New Roman,serif" font-size="14.00">Category</text>
</a>
</g>
<!-- http://latin.omdoc.org/logics/model_theory/categorical?CatLog -->
<g id="node3" class="node"><title>http://latin.omdoc.org/logics/model_theory/categorical?CatLog</title>
<a xlink:href="http://latin.omdoc.org/logics/model_theory/categorical?CatLog" class="graphtheory">
<ellipse fill="gray" stroke="black" cx="96" cy="-18" rx="38.0212" ry="18"/>
<text text-anchor="middle" x="96" y="-14.3" font-family="Times New Roman,serif" font-size="14.00">CatLog</text>
</a>
</g>
<!-- http://latin.omdoc.org/logics/model_theory/categorical?Category&#45;&gt;http://latin.omdoc.org/logics/model_theory/categorical?CatLog -->
<g id="edge3" class="edge"><title>http://latin.omdoc.org/logics/model_theory/categorical?Category&#45;&gt;http://latin.omdoc.org/logics/model_theory/categorical?CatLog</title>
<a class="graphinclude">
<path fill="none" stroke="black" d="M68.7146,-72.055C72.9154,-63.8866 78.0455,-53.9116 82.7189,-44.8244"/>
<polygon fill="black" stroke="black" points="85.9046,-46.2826 87.3657,-35.789 79.6796,-43.0812 85.9046,-46.2826"/>
</a>
</g>
<!-- http://latin.omdoc.org/logics/proof_theory?DFOL -->
<g id="node5" class="node"><title>http://latin.omdoc.org/logics/proof_theory?DFOL</title>
<a xlink:href="http://latin.omdoc.org/logics/proof_theory?DFOL" class="graphtheory">
<ellipse fill="gray" stroke="black" cx="96" cy="-162" rx="34.1708" ry="18"/>
<text text-anchor="middle" x="96" y="-158.3" font-family="Times New Roman,serif" font-size="14.00">DFOL</text>
</a>
</g>
<!-- http://latin.omdoc.org/logics/proof_theory?DFOL&#45;&gt;http://latin.omdoc.org/logics/model_theory/categorical?Category -->
<g id="edge5" class="edge"><title>http://latin.omdoc.org/logics/proof_theory?DFOL&#45;&gt;http://latin.omdoc.org/logics/model_theory/categorical?Category</title>
<a class="graphmeta">
<path fill="none" stroke="black" d="M87.4685,-144.411C83.271,-136.249 78.1133,-126.22 73.405,-117.065"/>
<polygon fill="black" stroke="black" points="76.4064,-115.248 68.7203,-107.956 70.1814,-118.45 76.4064,-115.248"/>
</a>
</g>
<!-- http://latin.omdoc.org/logics/proof_theory?DFOL&#45;&gt;http://latin.omdoc.org/logics/model_theory/categorical?CatLog -->
<g id="edge7" class="edge"><title>http://latin.omdoc.org/logics/proof_theory?DFOL&#45;&gt;http://latin.omdoc.org/logics/model_theory/categorical?CatLog</title>
<a class="graphmeta">
<path fill="none" stroke="black" d="M105.344,-144.472C109.493,-136.2 113.906,-125.868 116,-116 120.798,-93.3924 120.798,-86.6076 116,-64 114.626,-57.5238 112.253,-50.8481 109.611,-44.6861"/>
<polygon fill="black" stroke="black" points="112.74,-43.1142 105.344,-35.5284 106.395,-46.0709 112.74,-43.1142"/>
</a>
</g>
</g>
</svg>
