<?xml version="1.0" encoding="UTF-8" standalone="no"?>
<!DOCTYPE svg PUBLIC "-//W3C//DTD SVG 1.1//EN"
 "http://www.w3.org/Graphics/SVG/1.1/DTD/svg11.dtd">
<!-- Generated by graphviz version 2.28.0 (20110507.0327)
 -->
<!-- Title: MMT Pages: 1 -->
<svg width="219pt" height="260pt"
 viewBox="0.00 0.00 219.00 260.00" xmlns="http://www.w3.org/2000/svg" xmlns:xlink="http://www.w3.org/1999/xlink">
<g id="graph1" class="graph" transform="scale(1 1) rotate(0) translate(4 256)">
<title>MMT</title>
<polygon fill="white" stroke="white" points="-4,5 -4,-256 216,-256 216,5 -4,5"/>
<g id="graph2" class="cluster"><title>cluster_local</title>
<polygon fill="none" stroke="black" points="32,-64 32,-116 190,-116 190,-64 32,-64"/>
</g>
<!-- http://latin.omdoc.org/logics/model_theory/categorical?MonoidalClosed -->
<g id="node2" class="node"><title>http://latin.omdoc.org/logics/model_theory/categorical?MonoidalClosed</title>
<a xlink:href="http://latin.omdoc.org/logics/model_theory/categorical?MonoidalClosed" class="graphtheory">
<ellipse fill="none" stroke="black" cx="111" cy="-90" rx="71.2405" ry="18"/>
<text text-anchor="middle" x="111" y="-86.3" font-family="Times New Roman,serif" font-size="14.00">MonoidalClosed</text>
</a>
</g>
<!-- http://latin.omdoc.org/logics/model_theory/categorical?MILL -->
<g id="node3" class="node"><title>http://latin.omdoc.org/logics/model_theory/categorical?MILL</title>
<a xlink:href="http://latin.omdoc.org/logics/model_theory/categorical?MILL" class="graphtheory">
<ellipse fill="gray" stroke="black" cx="111" cy="-18" rx="32.2457" ry="18"/>
<text text-anchor="middle" x="111" y="-14.3" font-family="Times New Roman,serif" font-size="14.00">MILL</text>
</a>
</g>
<!-- http://latin.omdoc.org/logics/model_theory/categorical?MonoidalClosed&#45;&gt;http://latin.omdoc.org/logics/model_theory/categorical?MILL -->
<g id="edge3" class="edge"><title>http://latin.omdoc.org/logics/model_theory/categorical?MonoidalClosed&#45;&gt;http://latin.omdoc.org/logics/model_theory/categorical?MILL</title>
<a class="graphinclude">
<path fill="none" stroke="black" d="M111,-71.6966C111,-63.9827 111,-54.7125 111,-46.1124"/>
<polygon fill="black" stroke="black" points="114.5,-46.1043 111,-36.1043 107.5,-46.1044 114.5,-46.1043"/>
</a>
</g>
<!-- http://latin.omdoc.org/logics/model_theory/categorical?Monoidal -->
<g id="node5" class="node"><title>http://latin.omdoc.org/logics/model_theory/categorical?Monoidal</title>
<a xlink:href="http://latin.omdoc.org/logics/model_theory/categorical?Monoidal" class="graphtheory">
<ellipse fill="gray" stroke="black" cx="111" cy="-162" rx="45.244" ry="18"/>
<text text-anchor="middle" x="111" y="-158.3" font-family="Times New Roman,serif" font-size="14.00">Monoidal</text>
</a>
</g>
<!-- http://latin.omdoc.org/logics/model_theory/categorical?Monoidal&#45;&gt;http://latin.omdoc.org/logics/model_theory/categorical?MonoidalClosed -->
<g id="edge5" class="edge"><title>http://latin.omdoc.org/logics/model_theory/categorical?Monoidal&#45;&gt;http://latin.omdoc.org/logics/model_theory/categorical?MonoidalClosed</title>
<a class="graphinclude">
<path fill="none" stroke="black" d="M111,-143.697C111,-135.983 111,-126.712 111,-118.112"/>
<polygon fill="black" stroke="black" points="114.5,-118.104 111,-108.104 107.5,-118.104 114.5,-118.104"/>
</a>
</g>
<!-- http://latin.omdoc.org/logics/model_theory/categorical?CatLog -->
<g id="node7" class="node"><title>http://latin.omdoc.org/logics/model_theory/categorical?CatLog</title>
<a xlink:href="http://latin.omdoc.org/logics/model_theory/categorical?CatLog" class="graphtheory">
<ellipse fill="gray" stroke="black" cx="38" cy="-234" rx="38.0212" ry="18"/>
<text text-anchor="middle" x="38" y="-230.3" font-family="Times New Roman,serif" font-size="14.00">CatLog</text>
</a>
</g>
<!-- http://latin.omdoc.org/logics/model_theory/categorical?CatLog&#45;&gt;http://latin.omdoc.org/logics/model_theory/categorical?MonoidalClosed -->
<g id="edge7" class="edge"><title>http://latin.omdoc.org/logics/model_theory/categorical?CatLog&#45;&gt;http://latin.omdoc.org/logics/model_theory/categorical?MonoidalClosed</title>
<a class="graphinclude">
<path fill="none" stroke="black" d="M38.7358,-215.918C40.1803,-197.215 44.4438,-166.846 57,-144 63.1292,-132.848 72.3525,-122.546 81.4503,-114.049"/>
<polygon fill="black" stroke="black" points="83.8358,-116.611 88.9924,-107.356 79.1896,-111.376 83.8358,-116.611"/>
</a>
</g>
<!-- http://latin.omdoc.org/logics/model_theory/categorical?CatLog&#45;&gt;http://latin.omdoc.org/logics/model_theory/categorical?MILL -->
<g id="edge17" class="edge"><title>http://latin.omdoc.org/logics/model_theory/categorical?CatLog&#45;&gt;http://latin.omdoc.org/logics/model_theory/categorical?MILL</title>
<a class="graphinclude">
<path fill="none" stroke="black" d="M31.209,-216.188C19.4013,-184.045 -1.01832,-112.742 28,-64 37.743,-47.6348 55.7408,-36.8548 72.4926,-29.9615"/>
<polygon fill="black" stroke="black" points="74.0085,-33.131 82.14,-26.3391 71.5478,-26.5777 74.0085,-33.131"/>
</a>
</g>
<!-- http://latin.omdoc.org/logics/model_theory/categorical?CatLog&#45;&gt;http://latin.omdoc.org/logics/model_theory/categorical?Monoidal -->
<g id="edge15" class="edge"><title>http://latin.omdoc.org/logics/model_theory/categorical?CatLog&#45;&gt;http://latin.omdoc.org/logics/model_theory/categorical?Monoidal</title>
<a class="graphinclude">
<path fill="none" stroke="black" d="M54.2011,-217.465C63.8004,-208.26 76.1464,-196.421 86.8746,-186.134"/>
<polygon fill="black" stroke="black" points="89.5427,-188.425 94.3381,-178.977 84.6978,-183.372 89.5427,-188.425"/>
</a>
</g>
<!-- http://cds.omdoc.org/urtheories?LF -->
<g id="node9" class="node"><title>http://cds.omdoc.org/urtheories?LF</title>
<a xlink:href="http://cds.omdoc.org/urtheories?LF" class="graphtheory">
<ellipse fill="gray" stroke="black" cx="184" cy="-234" rx="27" ry="18"/>
<text text-anchor="middle" x="184" y="-230.3" font-family="Times New Roman,serif" font-size="14.00">LF</text>
</a>
</g>
<!-- http://cds.omdoc.org/urtheories?LF&#45;&gt;http://latin.omdoc.org/logics/model_theory/categorical?MonoidalClosed -->
<g id="edge9" class="edge"><title>http://cds.omdoc.org/urtheories?LF&#45;&gt;http://latin.omdoc.org/logics/model_theory/categorical?MonoidalClosed</title>
<a class="graphmeta">
<path fill="none" stroke="black" d="M183.264,-215.918C181.82,-197.215 177.556,-166.846 165,-144 158.871,-132.848 149.648,-122.546 140.55,-114.049"/>
<polygon fill="black" stroke="black" points="142.81,-111.376 133.008,-107.356 138.164,-116.611 142.81,-111.376"/>
</a>
</g>
<!-- http://cds.omdoc.org/urtheories?LF&#45;&gt;http://latin.omdoc.org/logics/model_theory/categorical?MILL -->
<g id="edge13" class="edge"><title>http://cds.omdoc.org/urtheories?LF&#45;&gt;http://latin.omdoc.org/logics/model_theory/categorical?MILL</title>
<a class="graphmeta">
<path fill="none" stroke="black" d="M190.791,-216.188C202.599,-184.045 223.018,-112.742 194,-64 184.257,-47.6348 166.259,-36.8548 149.507,-29.9615"/>
<polygon fill="black" stroke="black" points="150.452,-26.5777 139.86,-26.3391 147.992,-33.131 150.452,-26.5777"/>
</a>
</g>
<!-- http://cds.omdoc.org/urtheories?LF&#45;&gt;http://latin.omdoc.org/logics/model_theory/categorical?Monoidal -->
<g id="edge11" class="edge"><title>http://cds.omdoc.org/urtheories?LF&#45;&gt;http://latin.omdoc.org/logics/model_theory/categorical?Monoidal</title>
<a class="graphmeta">
<path fill="none" stroke="black" d="M169.227,-218.834C159.411,-209.421 146.298,-196.847 135.001,-186.015"/>
<polygon fill="black" stroke="black" points="137.174,-183.249 127.533,-178.854 132.329,-188.301 137.174,-183.249"/>
</a>
</g>
</g>
</svg>
