<?xml version="1.0" encoding="UTF-8" standalone="no"?>
<!DOCTYPE svg PUBLIC "-//W3C//DTD SVG 1.1//EN"
 "http://www.w3.org/Graphics/SVG/1.1/DTD/svg11.dtd">
<!-- Generated by graphviz version 2.28.0 (20110507.0327)
 -->
<!-- Title: MMT Pages: 1 -->
<svg width="353pt" height="276pt"
 viewBox="0.00 0.00 352.76 276.00" xmlns="http://www.w3.org/2000/svg" xmlns:xlink="http://www.w3.org/1999/xlink">
<g id="graph1" class="graph" transform="scale(1 1) rotate(0) translate(4 272)">
<title>MMT</title>
<polygon fill="white" stroke="white" points="-4,5 -4,-272 349.765,-272 349.765,5 -4,5"/>
<g id="graph2" class="cluster"><title>cluster_local</title>
<polygon fill="none" stroke="black" points="258.765,-8 258.765,-132 336.765,-132 336.765,-8 258.765,-8"/>
</g>
<!-- http://latin.omdoc.org/foundations/zfc?Trees -->
<g id="node2" class="node"><title>http://latin.omdoc.org/foundations/zfc?Trees</title>
<a xlink:href="http://latin.omdoc.org/foundations/zfc?Trees" class="graphtheory">
<ellipse fill="none" stroke="black" cx="297.765" cy="-34" rx="31.2965" ry="18"/>
<text text-anchor="middle" x="297.765" y="-30.3" font-family="Times New Roman,serif" font-size="14.00">Trees</text>
</a>
</g>
<!-- http://latin.omdoc.org/foundations/zfc?Lists -->
<g id="node3" class="node"><title>http://latin.omdoc.org/foundations/zfc?Lists</title>
<a xlink:href="http://latin.omdoc.org/foundations/zfc?Lists" class="graphtheory">
<ellipse fill="none" stroke="black" cx="297.765" cy="-106" rx="28.3955" ry="18"/>
<text text-anchor="middle" x="297.765" y="-102.3" font-family="Times New Roman,serif" font-size="14.00">Lists</text>
</a>
</g>
<!-- http://latin.omdoc.org/foundations/zfc?Lists&#45;&gt;http://latin.omdoc.org/foundations/zfc?Trees -->
<g id="edge3" class="edge"><title>http://latin.omdoc.org/foundations/zfc?Lists&#45;&gt;http://latin.omdoc.org/foundations/zfc?Trees</title>
<a class="graphinclude">
<path fill="none" stroke="black" d="M297.765,-87.6966C297.765,-79.9827 297.765,-70.7125 297.765,-62.1124"/>
<polygon fill="black" stroke="black" points="301.265,-62.1043 297.765,-52.1043 294.265,-62.1044 301.265,-62.1043"/>
</a>
</g>
<!-- http://cds.omdoc.org/urtheories?LF -->
<g id="node5" class="node"><title>http://cds.omdoc.org/urtheories?LF</title>
<a xlink:href="http://cds.omdoc.org/urtheories?LF" class="graphtheory">
<ellipse fill="gray" stroke="black" cx="297.765" cy="-250" rx="27" ry="18"/>
<text text-anchor="middle" x="297.765" y="-246.3" font-family="Times New Roman,serif" font-size="14.00">LF</text>
</a>
</g>
<!-- http://cds.omdoc.org/urtheories?LF&#45;&gt;http://latin.omdoc.org/foundations/zfc?Trees -->
<g id="edge5" class="edge"><title>http://cds.omdoc.org/urtheories?LF&#45;&gt;http://latin.omdoc.org/foundations/zfc?Trees</title>
<a class="graphmeta">
<path fill="none" stroke="black" d="M270.479,-248.258C205.012,-245.845 41.9911,-235.874 8.76469,-196 -24.4569,-156.132 51.7297,-92.0872 57.7647,-88 118.291,-47.0086 205.287,-37.1452 256.221,-35.1051"/>
<polygon fill="black" stroke="black" points="256.635,-38.5939 266.52,-34.7802 256.414,-31.5974 256.635,-38.5939"/>
</a>
</g>
<!-- http://cds.omdoc.org/urtheories?LF&#45;&gt;http://latin.omdoc.org/foundations/zfc?Lists -->
<g id="edge15" class="edge"><title>http://cds.omdoc.org/urtheories?LF&#45;&gt;http://latin.omdoc.org/foundations/zfc?Lists</title>
<a class="graphmeta">
<path fill="none" stroke="black" d="M297.765,-231.871C297.765,-207.67 297.765,-163.211 297.765,-134.393"/>
<polygon fill="black" stroke="black" points="301.265,-134.189 297.765,-124.189 294.265,-134.189 301.265,-134.189"/>
</a>
</g>
<!-- http://latin.omdoc.org/foundations/zfc?ZFC -->
<g id="node7" class="node"><title>http://latin.omdoc.org/foundations/zfc?ZFC</title>
<a xlink:href="http://latin.omdoc.org/foundations/zfc?ZFC" class="graphtheory">
<ellipse fill="gray" stroke="black" cx="55.7647" cy="-178" rx="27.4223" ry="18"/>
<text text-anchor="middle" x="55.7647" y="-174.3" font-family="Times New Roman,serif" font-size="14.00">ZFC</text>
</a>
</g>
<!-- http://cds.omdoc.org/urtheories?LF&#45;&gt;http://latin.omdoc.org/foundations/zfc?ZFC -->
<g id="edge23" class="edge"><title>http://cds.omdoc.org/urtheories?LF&#45;&gt;http://latin.omdoc.org/foundations/zfc?ZFC</title>
<a class="graphmeta">
<path fill="none" stroke="black" d="M272.08,-243.897C232.819,-235.754 155.798,-218.428 92.7647,-196 90.6543,-195.249 88.4994,-194.424 86.3434,-193.554"/>
<polygon fill="black" stroke="black" points="87.5881,-190.279 77.0186,-189.546 84.8242,-196.71 87.5881,-190.279"/>
</a>
</g>
<!-- http://latin.omdoc.org/foundations/zfc?Option -->
<g id="node9" class="node"><title>http://latin.omdoc.org/foundations/zfc?Option</title>
<a xlink:href="http://latin.omdoc.org/foundations/zfc?Option" class="graphtheory">
<ellipse fill="gray" stroke="black" cx="102.765" cy="-106" rx="36.096" ry="18"/>
<text text-anchor="middle" x="102.765" y="-102.3" font-family="Times New Roman,serif" font-size="14.00">Option</text>
</a>
</g>
<!-- http://cds.omdoc.org/urtheories?LF&#45;&gt;http://latin.omdoc.org/foundations/zfc?Option -->
<g id="edge25" class="edge"><title>http://cds.omdoc.org/urtheories?LF&#45;&gt;http://latin.omdoc.org/foundations/zfc?Option</title>
<a class="graphmeta">
<path fill="none" stroke="black" d="M270.473,-248.061C206.643,-245.234 50.5997,-234.452 18.7647,-196 8.56117,-183.676 11.0383,-174.011 18.7647,-160 28.5306,-142.291 46.9786,-129.684 64.1039,-121.221"/>
<polygon fill="black" stroke="black" points="65.7939,-124.297 73.4183,-116.94 62.8704,-117.936 65.7939,-124.297"/>
</a>
</g>
<!-- http://latin.omdoc.org/foundations/zfc?Powersets -->
<g id="node11" class="node"><title>http://latin.omdoc.org/foundations/zfc?Powersets</title>
<a xlink:href="http://latin.omdoc.org/foundations/zfc?Powersets" class="graphtheory">
<ellipse fill="gray" stroke="black" cx="149.765" cy="-178" rx="48.1437" ry="18"/>
<text text-anchor="middle" x="149.765" y="-174.3" font-family="Times New Roman,serif" font-size="14.00">Powersets</text>
</a>
</g>
<!-- http://cds.omdoc.org/urtheories?LF&#45;&gt;http://latin.omdoc.org/foundations/zfc?Powersets -->
<g id="edge29" class="edge"><title>http://cds.omdoc.org/urtheories?LF&#45;&gt;http://latin.omdoc.org/foundations/zfc?Powersets</title>
<a class="graphmeta">
<path fill="none" stroke="black" d="M276.244,-238.821C253.051,-227.852 215.688,-210.18 187.572,-196.882"/>
<polygon fill="black" stroke="black" points="188.962,-193.667 178.425,-192.556 185.969,-199.995 188.962,-193.667"/>
</a>
</g>
<!-- http://latin.omdoc.org/foundations/zfc?Nat -->
<g id="node13" class="node"><title>http://latin.omdoc.org/foundations/zfc?Nat</title>
<a xlink:href="http://latin.omdoc.org/foundations/zfc?Nat" class="graphtheory">
<ellipse fill="gray" stroke="black" cx="242.765" cy="-178" rx="27" ry="18"/>
<text text-anchor="middle" x="242.765" y="-174.3" font-family="Times New Roman,serif" font-size="14.00">Nat</text>
</a>
</g>
<!-- http://cds.omdoc.org/urtheories?LF&#45;&gt;http://latin.omdoc.org/foundations/zfc?Nat -->
<g id="edge27" class="edge"><title>http://cds.omdoc.org/urtheories?LF&#45;&gt;http://latin.omdoc.org/foundations/zfc?Nat</title>
<a class="graphmeta">
<path fill="none" stroke="black" d="M285.831,-233.811C278.551,-224.546 269.102,-212.52 260.91,-202.094"/>
<polygon fill="black" stroke="black" points="263.606,-199.86 254.676,-194.159 258.102,-204.185 263.606,-199.86"/>
</a>
</g>
<!-- http://latin.omdoc.org/foundations/zfc?ZFC&#45;&gt;http://latin.omdoc.org/foundations/zfc?Lists -->
<g id="edge7" class="edge"><title>http://latin.omdoc.org/foundations/zfc?ZFC&#45;&gt;http://latin.omdoc.org/foundations/zfc?Lists</title>
<a class="graphinclude">
<path fill="none" stroke="black" d="M76.9037,-166.106C81.9955,-163.815 87.4906,-161.609 92.7647,-160 166.846,-137.405 193.575,-162.507 264.765,-132 267.87,-130.669 270.947,-128.985 273.902,-127.121"/>
<polygon fill="black" stroke="black" points="276.17,-129.804 282.306,-121.166 272.123,-124.092 276.17,-129.804"/>
</a>
</g>
<!-- http://latin.omdoc.org/foundations/zfc?ZFC&#45;&gt;http://latin.omdoc.org/foundations/zfc?Option -->
<g id="edge21" class="edge"><title>http://latin.omdoc.org/foundations/zfc?ZFC&#45;&gt;http://latin.omdoc.org/foundations/zfc?Option</title>
<a class="graphinclude">
<path fill="none" stroke="black" d="M66.4297,-161.116C72.2358,-152.469 79.5498,-141.575 86.0911,-131.833"/>
<polygon fill="black" stroke="black" points="89.1471,-133.56 91.8157,-123.307 83.3355,-129.658 89.1471,-133.56"/>
</a>
</g>
<!-- http://latin.omdoc.org/foundations/zfc?Option&#45;&gt;http://latin.omdoc.org/foundations/zfc?Lists -->
<g id="edge9" class="edge"><title>http://latin.omdoc.org/foundations/zfc?Option&#45;&gt;http://latin.omdoc.org/foundations/zfc?Lists</title>
<a class="graphinclude">
<path fill="none" stroke="black" d="M139.327,-106C179.265,-106 219.204,-106 259.142,-106"/>
<polygon fill="black" stroke="black" points="259.295,-109.5 269.295,-106 259.295,-102.5 259.295,-109.5"/>
</a>
</g>
<!-- http://latin.omdoc.org/foundations/zfc?Powersets&#45;&gt;http://latin.omdoc.org/foundations/zfc?Lists -->
<g id="edge11" class="edge"><title>http://latin.omdoc.org/foundations/zfc?Powersets&#45;&gt;http://latin.omdoc.org/foundations/zfc?Lists</title>
<a class="graphinclude">
<path fill="none" stroke="black" d="M185.371,-165.913C208.688,-157.974 239.421,-146.198 264.765,-132 267.498,-130.469 270.258,-128.734 272.955,-126.909"/>
<polygon fill="black" stroke="black" points="275.196,-129.608 281.252,-120.915 271.096,-123.934 275.196,-129.608"/>
</a>
</g>
<!-- http://latin.omdoc.org/foundations/zfc?Powersets&#45;&gt;http://latin.omdoc.org/foundations/zfc?Option -->
<g id="edge19" class="edge"><title>http://latin.omdoc.org/foundations/zfc?Powersets&#45;&gt;http://latin.omdoc.org/foundations/zfc?Option</title>
<a class="graphinclude">
<path fill="none" stroke="black" d="M138.626,-160.411C132.89,-151.868 125.78,-141.278 119.408,-131.787"/>
<polygon fill="black" stroke="black" points="122.303,-129.821 113.823,-123.47 116.492,-133.723 122.303,-129.821"/>
</a>
</g>
<!-- http://latin.omdoc.org/foundations/zfc?Nat&#45;&gt;http://latin.omdoc.org/foundations/zfc?Lists -->
<g id="edge13" class="edge"><title>http://latin.omdoc.org/foundations/zfc?Nat&#45;&gt;http://latin.omdoc.org/foundations/zfc?Lists</title>
<a class="graphinclude">
<path fill="none" stroke="black" d="M254.699,-161.811C261.879,-152.673 271.169,-140.849 279.282,-130.524"/>
<polygon fill="black" stroke="black" points="282.047,-132.67 285.473,-122.644 276.543,-128.345 282.047,-132.67"/>
</a>
</g>
<!-- http://latin.omdoc.org/foundations/zfc?Nat&#45;&gt;http://latin.omdoc.org/foundations/zfc?Option -->
<g id="edge17" class="edge"><title>http://latin.omdoc.org/foundations/zfc?Nat&#45;&gt;http://latin.omdoc.org/foundations/zfc?Option</title>
<a class="graphinclude">
<path fill="none" stroke="black" d="M221.805,-166.52C199.288,-155.262 163.165,-137.2 136.61,-123.923"/>
<polygon fill="black" stroke="black" points="138.164,-120.786 127.654,-119.445 135.033,-127.047 138.164,-120.786"/>
</a>
</g>
</g>
</svg>
