<?xml version="1.0" encoding="UTF-8" standalone="no"?>
<!DOCTYPE svg PUBLIC "-//W3C//DTD SVG 1.1//EN"
 "http://www.w3.org/Graphics/SVG/1.1/DTD/svg11.dtd">
<!-- Generated by graphviz version 2.28.0 (20110507.0327)
 -->
<!-- Title: MMT Pages: 1 -->
<svg
 viewBox="0.00 0.00 1257.89 398.00" xmlns="http://www.w3.org/2000/svg" xmlns:xlink="http://www.w3.org/1999/xlink">
<g id="graph1" class="graph" transform="scale(1 1) rotate(0) translate(4 394)">
<title>MMT</title>
<polygon fill="white" stroke="white" points="-4,5 -4,-394 1254.89,-394 1254.89,5 -4,5"/>
<g id="graph2" class="cluster"><title>cluster_local</title>
<polygon fill="none" stroke="black" points="354,-8 354,-60 552,-60 552,-8 354,-8"/>
</g>
<!-- http://latin.omdoc.org/foundations/zfc?ConditionalTermsAux -->
<g id="node2" class="node"><title>http://latin.omdoc.org/foundations/zfc?ConditionalTermsAux</title>
<a xlink:href="http://latin.omdoc.org/foundations/zfc?ConditionalTermsAux" class="graphtheory">
<ellipse fill="none" stroke="black" cx="453" cy="-34" rx="90.4879" ry="18"/>
<text text-anchor="middle" x="453" y="-30.3" font-family="Times New Roman,serif" font-size="14.00">ConditionalTermsAux</text>
</a>
</g>
<!-- http://latin.omdoc.org/foundations/zfc?UniversalQuantifier -->
<g id="node3" class="node"><title>http://latin.omdoc.org/foundations/zfc?UniversalQuantifier</title>
<a xlink:href="http://latin.omdoc.org/foundations/zfc?UniversalQuantifier" class="graphtheory">
<ellipse fill="gray" stroke="black" cx="308" cy="-210" rx="79.4147" ry="18"/>
<text text-anchor="middle" x="308" y="-206.3" font-family="Times New Roman,serif" font-size="14.00">UniversalQuantifier</text>
</a>
</g>
<!-- http://latin.omdoc.org/foundations/zfc?TypedZFBase -->
<g id="node4" class="node"><title>http://latin.omdoc.org/foundations/zfc?TypedZFBase</title>
<a xlink:href="http://latin.omdoc.org/foundations/zfc?TypedZFBase" class="graphtheory">
<ellipse fill="gray" stroke="black" cx="723" cy="-298" rx="63.0666" ry="18"/>
<text text-anchor="middle" x="723" y="-294.3" font-family="Times New Roman,serif" font-size="14.00">TypedZFBase</text>
</a>
</g>
<!-- http://latin.omdoc.org/foundations/zfc?UniversalQuantifier&#45;&gt;http://latin.omdoc.org/foundations/zfc?TypedZFBase -->
<g id="edge3" class="edge"><title>http://latin.omdoc.org/foundations/zfc?UniversalQuantifier&#45;&gt;http://latin.omdoc.org/foundations/zfc?TypedZFBase</title>
<a xlink:href="http://latin.omdoc.org/foundations/zfc?_UQ" class="graphview">
<path fill="none" stroke="black" d="M359.846,-223.793C404.326,-234.583 470.201,-250.121 528,-262 571.917,-271.026 621.668,-279.934 659.925,-286.505"/>
<polygon fill="black" stroke="black" points="659.447,-289.974 669.894,-288.209 660.626,-283.074 659.447,-289.974"/>
</a>
<a xlink:href="http://latin.omdoc.org/foundations/zfc?_UQ" class="_UQ">
<text text-anchor="middle" x="542" y="-250.3" font-family="Times New Roman,serif" font-size="14.00">_UQ</text>
</a>
</g>
<!-- http://latin.omdoc.org/foundations/zfc?TypedZFBase&#45;&gt;http://latin.omdoc.org/foundations/zfc?UniversalQuantifier -->
<g id="edge47" class="edge"><title>http://latin.omdoc.org/foundations/zfc?TypedZFBase&#45;&gt;http://latin.omdoc.org/foundations/zfc?UniversalQuantifier</title>
<a class="graphinclude">
<path fill="none" stroke="black" d="M662.329,-292.863C606.965,-288.218 523.174,-278.996 452,-262 418.31,-253.955 381.516,-240.845 353.554,-229.932"/>
<polygon fill="black" stroke="black" points="354.638,-226.596 344.052,-226.175 352.064,-233.106 354.638,-226.596"/>
</a>
</g>
<!-- http://latin.omdoc.org/foundations/zfc?BigInter -->
<g id="node6" class="node"><title>http://latin.omdoc.org/foundations/zfc?BigInter</title>
<a xlink:href="http://latin.omdoc.org/foundations/zfc?BigInter" class="graphtheory">
<ellipse fill="gray" stroke="black" cx="1192" cy="-210" rx="39.4691" ry="18"/>
<text text-anchor="middle" x="1192" y="-206.3" font-family="Times New Roman,serif" font-size="14.00">BigInter</text>
</a>
</g>
<!-- http://latin.omdoc.org/foundations/zfc?TypedZFBase&#45;&gt;http://latin.omdoc.org/foundations/zfc?BigInter -->
<g id="edge49" class="edge"><title>http://latin.omdoc.org/foundations/zfc?TypedZFBase&#45;&gt;http://latin.omdoc.org/foundations/zfc?BigInter</title>
<a class="graphinclude">
<path fill="none" stroke="black" d="M781.942,-291.339C863.988,-282.556 1016.76,-262.91 1143,-228 1146.17,-227.124 1149.43,-226.152 1152.69,-225.13"/>
<polygon fill="black" stroke="black" points="1153.98,-228.392 1162.39,-221.956 1151.8,-221.739 1153.98,-228.392"/>
</a>
</g>
<!-- http://latin.omdoc.org/foundations/zfc?ImageTypes -->
<g id="node7" class="node"><title>http://latin.omdoc.org/foundations/zfc?ImageTypes</title>
<a xlink:href="http://latin.omdoc.org/foundations/zfc?ImageTypes" class="graphtheory">
<ellipse fill="gray" stroke="black" cx="983" cy="-122" rx="55.3436" ry="18"/>
<text text-anchor="middle" x="983" y="-118.3" font-family="Times New Roman,serif" font-size="14.00">ImageTypes</text>
</a>
</g>
<!-- http://latin.omdoc.org/foundations/zfc?TypedZFBase&#45;&gt;http://latin.omdoc.org/foundations/zfc?ImageTypes -->
<g id="edge59" class="edge"><title>http://latin.omdoc.org/foundations/zfc?TypedZFBase&#45;&gt;http://latin.omdoc.org/foundations/zfc?ImageTypes</title>
<a class="graphinclude">
<path fill="none" stroke="black" d="M716.419,-280.026C709.152,-258.418 700.185,-220.478 714,-192 724.184,-171.007 732.773,-167.686 754,-158 805.644,-134.435 869.952,-126.216 917.261,-123.584"/>
<polygon fill="black" stroke="black" points="917.57,-127.073 927.388,-123.091 917.23,-120.081 917.57,-127.073"/>
</a>
</g>
<!-- http://latin.omdoc.org/foundations/zfc?ExistentialQuantifier -->
<g id="node9" class="node"><title>http://latin.omdoc.org/foundations/zfc?ExistentialQuantifier</title>
<a xlink:href="http://latin.omdoc.org/foundations/zfc?ExistentialQuantifier" class="graphtheory">
<ellipse fill="gray" stroke="black" cx="837" cy="-210" rx="83.2892" ry="18"/>
<text text-anchor="middle" x="837" y="-206.3" font-family="Times New Roman,serif" font-size="14.00">ExistentialQuantifier</text>
</a>
</g>
<!-- http://latin.omdoc.org/foundations/zfc?TypedZFBase&#45;&gt;http://latin.omdoc.org/foundations/zfc?ExistentialQuantifier -->
<g id="edge53" class="edge"><title>http://latin.omdoc.org/foundations/zfc?TypedZFBase&#45;&gt;http://latin.omdoc.org/foundations/zfc?ExistentialQuantifier</title>
<a class="graphinclude">
<path fill="none" stroke="black" d="M752.467,-282.011C762.788,-276.269 774.233,-269.326 784,-262 794.694,-253.979 805.505,-243.989 814.549,-234.983"/>
<polygon fill="black" stroke="black" points="817.178,-237.3 821.688,-227.713 812.184,-232.395 817.178,-237.3"/>
</a>
</g>
<!-- http://latin.omdoc.org/foundations/zfc?Products -->
<g id="node11" class="node"><title>http://latin.omdoc.org/foundations/zfc?Products</title>
<a xlink:href="http://latin.omdoc.org/foundations/zfc?Products" class="graphtheory">
<ellipse fill="gray" stroke="black" cx="1090" cy="-210" rx="44.2946" ry="18"/>
<text text-anchor="middle" x="1090" y="-206.3" font-family="Times New Roman,serif" font-size="14.00">Products</text>
</a>
</g>
<!-- http://latin.omdoc.org/foundations/zfc?TypedZFBase&#45;&gt;http://latin.omdoc.org/foundations/zfc?Products -->
<g id="edge55" class="edge"><title>http://latin.omdoc.org/foundations/zfc?TypedZFBase&#45;&gt;http://latin.omdoc.org/foundations/zfc?Products</title>
<a class="graphinclude">
<path fill="none" stroke="black" d="M770.502,-286.008C796.062,-279.716 827.999,-271.245 856,-262 874.182,-255.997 877.468,-250.815 896,-246 956.719,-230.225 974.729,-241.472 1036,-228 1039.83,-227.157 1043.78,-226.164 1047.72,-225.088"/>
<polygon fill="black" stroke="black" points="1048.78,-228.425 1057.41,-222.279 1046.83,-221.701 1048.78,-228.425"/>
</a>
</g>
<!-- http://latin.omdoc.org/foundations/zfc?DisjUnion -->
<g id="node13" class="node"><title>http://latin.omdoc.org/foundations/zfc?DisjUnion</title>
<a xlink:href="http://latin.omdoc.org/foundations/zfc?DisjUnion" class="graphtheory">
<ellipse fill="gray" stroke="black" cx="453" cy="-210" rx="46.1964" ry="18"/>
<text text-anchor="middle" x="453" y="-206.3" font-family="Times New Roman,serif" font-size="14.00">DisjUnion</text>
</a>
</g>
<!-- http://latin.omdoc.org/foundations/zfc?TypedZFBase&#45;&gt;http://latin.omdoc.org/foundations/zfc?DisjUnion -->
<g id="edge51" class="edge"><title>http://latin.omdoc.org/foundations/zfc?TypedZFBase&#45;&gt;http://latin.omdoc.org/foundations/zfc?DisjUnion</title>
<a class="graphinclude">
<path fill="none" stroke="black" d="M680.388,-284.599C658.164,-278.044 630.562,-269.765 606,-262 568.781,-250.233 526.725,-236.157 496.138,-225.777"/>
<polygon fill="black" stroke="black" points="497.225,-222.45 486.631,-222.544 494.972,-229.077 497.225,-222.45"/>
</a>
</g>
<!-- http://latin.omdoc.org/foundations/zfc?ConditionalTerms -->
<g id="node14" class="node"><title>http://latin.omdoc.org/foundations/zfc?ConditionalTerms</title>
<a xlink:href="http://latin.omdoc.org/foundations/zfc?ConditionalTerms" class="graphtheory">
<ellipse fill="gray" stroke="black" cx="453" cy="-122" rx="76.0649" ry="18"/>
<text text-anchor="middle" x="453" y="-118.3" font-family="Times New Roman,serif" font-size="14.00">ConditionalTerms</text>
</a>
</g>
<!-- http://latin.omdoc.org/foundations/zfc?TypedZFBase&#45;&gt;http://latin.omdoc.org/foundations/zfc?ConditionalTerms -->
<g id="edge61" class="edge"><title>http://latin.omdoc.org/foundations/zfc?TypedZFBase&#45;&gt;http://latin.omdoc.org/foundations/zfc?ConditionalTerms</title>
<a class="graphinclude">
<path fill="none" stroke="black" d="M661.884,-293.202C533.836,-284.605 246.879,-261.745 219,-228 170.986,-169.885 288.814,-142.714 374.135,-130.976"/>
<polygon fill="black" stroke="black" points="374.651,-134.438 384.104,-129.653 373.73,-127.499 374.651,-134.438"/>
</a>
</g>
<!-- http://latin.omdoc.org/foundations/zfc?PredSubTypes -->
<g id="node16" class="node"><title>http://latin.omdoc.org/foundations/zfc?PredSubTypes</title>
<a xlink:href="http://latin.omdoc.org/foundations/zfc?PredSubTypes" class="graphtheory">
<ellipse fill="gray" stroke="black" cx="583" cy="-210" rx="65.4659" ry="18"/>
<text text-anchor="middle" x="583" y="-206.3" font-family="Times New Roman,serif" font-size="14.00">PredSubTypes</text>
</a>
</g>
<!-- http://latin.omdoc.org/foundations/zfc?TypedZFBase&#45;&gt;http://latin.omdoc.org/foundations/zfc?PredSubTypes -->
<g id="edge57" class="edge"><title>http://latin.omdoc.org/foundations/zfc?TypedZFBase&#45;&gt;http://latin.omdoc.org/foundations/zfc?PredSubTypes</title>
<a class="graphinclude">
<path fill="none" stroke="black" d="M677.229,-285.563C660.514,-280.075 642.036,-272.382 627,-262 616.98,-255.082 607.832,-245.354 600.504,-236.247"/>
<polygon fill="black" stroke="black" points="603.17,-233.971 594.313,-228.156 597.61,-238.225 603.17,-233.971"/>
</a>
</g>
<!-- http://latin.omdoc.org/foundations/zfc?BigUnion -->
<g id="node19" class="node"><title>http://latin.omdoc.org/foundations/zfc?BigUnion</title>
<a xlink:href="http://latin.omdoc.org/foundations/zfc?BigUnion" class="graphtheory">
<ellipse fill="gray" stroke="black" cx="983" cy="-210" rx="44.271" ry="18"/>
<text text-anchor="middle" x="983" y="-206.3" font-family="Times New Roman,serif" font-size="14.00">BigUnion</text>
</a>
</g>
<!-- http://latin.omdoc.org/foundations/zfc?TypedZFBase&#45;&gt;http://latin.omdoc.org/foundations/zfc?BigUnion -->
<g id="edge63" class="edge"><title>http://latin.omdoc.org/foundations/zfc?TypedZFBase&#45;&gt;http://latin.omdoc.org/foundations/zfc?BigUnion</title>
<a class="graphinclude">
<path fill="none" stroke="black" d="M759.239,-283.185C787.79,-272.496 828.698,-257.608 865,-246 893.144,-237.001 900.682,-236.437 929,-228 932.503,-226.956 936.127,-225.857 939.765,-224.741"/>
<polygon fill="black" stroke="black" points="940.831,-228.074 949.347,-221.771 938.759,-221.388 940.831,-228.074"/>
</a>
</g>
<!-- http://latin.omdoc.org/foundations/zfc?BigInter&#45;&gt;http://latin.omdoc.org/foundations/zfc?ImageTypes -->
<g id="edge5" class="edge"><title>http://latin.omdoc.org/foundations/zfc?BigInter&#45;&gt;http://latin.omdoc.org/foundations/zfc?ImageTypes</title>
<a xlink:href="http://latin.omdoc.org/foundations/zfc?_BI" class="graphview">
<path fill="none" stroke="black" d="M1163.81,-197.402C1128.15,-182.727 1066.42,-157.324 1025.14,-140.341"/>
<polygon fill="black" stroke="black" points="1026.47,-137.103 1015.89,-136.534 1023.81,-143.576 1026.47,-137.103"/>
</a>
<a xlink:href="http://latin.omdoc.org/foundations/zfc?_BI" class="_BI">
<text text-anchor="middle" x="1118" y="-162.3" font-family="Times New Roman,serif" font-size="14.00">_BI</text>
</a>
</g>
<!-- http://latin.omdoc.org/foundations/zfc?ImageTypes&#45;&gt;http://latin.omdoc.org/foundations/zfc?TypedZFBase -->
<g id="edge15" class="edge"><title>http://latin.omdoc.org/foundations/zfc?ImageTypes&#45;&gt;http://latin.omdoc.org/foundations/zfc?TypedZFBase</title>
<a xlink:href="http://latin.omdoc.org/foundations/zfc?_I" class="graphview">
<path fill="none" stroke="black" d="M933.075,-129.917C867.467,-140.1 757.546,-161.299 732,-192 714.139,-213.465 714.376,-246.657 717.48,-269.964"/>
<polygon fill="black" stroke="black" points="714.032,-270.569 719.053,-279.899 720.946,-269.474 714.032,-270.569"/>
</a>
<a xlink:href="http://latin.omdoc.org/foundations/zfc?_I" class="_I">
<text text-anchor="middle" x="738.5" y="-206.3" font-family="Times New Roman,serif" font-size="14.00">_I</text>
</a>
</g>
<!-- http://latin.omdoc.org/foundations/zfc?ExistentialQuantifier&#45;&gt;http://latin.omdoc.org/foundations/zfc?TypedZFBase -->
<g id="edge7" class="edge"><title>http://latin.omdoc.org/foundations/zfc?ExistentialQuantifier&#45;&gt;http://latin.omdoc.org/foundations/zfc?TypedZFBase</title>
<a xlink:href="http://latin.omdoc.org/foundations/zfc?_EQ" class="graphview">
<path fill="none" stroke="black" d="M792.07,-225.364C779.872,-230.616 767.224,-237.43 757,-246 748.768,-252.9 741.742,-262.287 736.251,-271.128"/>
<polygon fill="black" stroke="black" points="733.085,-269.609 731.097,-280.016 739.141,-273.12 733.085,-269.609"/>
</a>
<a xlink:href="http://latin.omdoc.org/foundations/zfc?_EQ" class="_EQ">
<text text-anchor="middle" x="770.5" y="-250.3" font-family="Times New Roman,serif" font-size="14.00">_EQ</text>
</a>
</g>
<!-- http://latin.omdoc.org/foundations/zfc?Products&#45;&gt;http://latin.omdoc.org/foundations/zfc?TypedZFBase -->
<g id="edge9" class="edge"><title>http://latin.omdoc.org/foundations/zfc?Products&#45;&gt;http://latin.omdoc.org/foundations/zfc?TypedZFBase</title>
<a xlink:href="http://latin.omdoc.org/foundations/zfc?_P" class="graphview">
<path fill="none" stroke="black" d="M1056.7,-221.895C1049.88,-224.01 1042.73,-226.144 1036,-228 949.314,-251.917 847.342,-273.135 783.927,-285.53"/>
<polygon fill="black" stroke="black" points="783.237,-282.098 774.089,-287.442 784.573,-288.97 783.237,-282.098"/>
</a>
<a xlink:href="http://latin.omdoc.org/foundations/zfc?_P" class="_P">
<text text-anchor="middle" x="968" y="-250.3" font-family="Times New Roman,serif" font-size="14.00">_P</text>
</a>
</g>
<!-- http://latin.omdoc.org/foundations/zfc?DisjUnion&#45;&gt;http://latin.omdoc.org/foundations/zfc?ConditionalTerms -->
<g id="edge11" class="edge"><title>http://latin.omdoc.org/foundations/zfc?DisjUnion&#45;&gt;http://latin.omdoc.org/foundations/zfc?ConditionalTerms</title>
<a xlink:href="http://latin.omdoc.org/foundations/zfc?_DU" class="graphview">
<path fill="none" stroke="black" d="M453,-191.597C453,-179.746 453,-163.817 453,-150.292"/>
<polygon fill="black" stroke="black" points="456.5,-150.084 453,-140.084 449.5,-150.084 456.5,-150.084"/>
</a>
<a xlink:href="http://latin.omdoc.org/foundations/zfc?_DU" class="_DU">
<text text-anchor="middle" x="467" y="-162.3" font-family="Times New Roman,serif" font-size="14.00">_DU</text>
</a>
</g>
<!-- http://latin.omdoc.org/foundations/zfc?ConditionalTerms&#45;&gt;http://latin.omdoc.org/foundations/zfc?ConditionalTermsAux -->
<g id="edge19" class="edge"><title>http://latin.omdoc.org/foundations/zfc?ConditionalTerms&#45;&gt;http://latin.omdoc.org/foundations/zfc?ConditionalTermsAux</title>
<a xlink:href="http://latin.omdoc.org/foundations/zfc?_C" class="graphview">
<path fill="none" stroke="black" d="M453,-103.597C453,-91.7459 453,-75.8169 453,-62.2917"/>
<polygon fill="black" stroke="black" points="456.5,-62.084 453,-52.084 449.5,-62.084 456.5,-62.084"/>
</a>
<a xlink:href="http://latin.omdoc.org/foundations/zfc?_C" class="_C">
<text text-anchor="middle" x="462" y="-74.3" font-family="Times New Roman,serif" font-size="14.00">_C</text>
</a>
</g>
<!-- http://latin.omdoc.org/foundations/zfc?PredSubTypes&#45;&gt;http://latin.omdoc.org/foundations/zfc?TypedZFBase -->
<g id="edge13" class="edge"><title>http://latin.omdoc.org/foundations/zfc?PredSubTypes&#45;&gt;http://latin.omdoc.org/foundations/zfc?TypedZFBase</title>
<a xlink:href="http://latin.omdoc.org/foundations/zfc?_F" class="graphview">
<path fill="none" stroke="black" d="M602.473,-227.371C617.786,-240.082 637.989,-256.448 647,-262 656.948,-268.129 668.148,-273.862 678.831,-278.843"/>
<polygon fill="black" stroke="black" points="677.488,-282.077 688.041,-283.017 680.377,-275.701 677.488,-282.077"/>
</a>
<a xlink:href="http://latin.omdoc.org/foundations/zfc?_F" class="_F">
<text text-anchor="middle" x="655" y="-250.3" font-family="Times New Roman,serif" font-size="14.00">_F</text>
</a>
</g>
<!-- http://latin.omdoc.org/foundations/zfc?BigUnion&#45;&gt;http://latin.omdoc.org/foundations/zfc?ImageTypes -->
<g id="edge17" class="edge"><title>http://latin.omdoc.org/foundations/zfc?BigUnion&#45;&gt;http://latin.omdoc.org/foundations/zfc?ImageTypes</title>
<a xlink:href="http://latin.omdoc.org/foundations/zfc?_BU" class="graphview">
<path fill="none" stroke="black" d="M983,-191.597C983,-179.746 983,-163.817 983,-150.292"/>
<polygon fill="black" stroke="black" points="986.5,-150.084 983,-140.084 979.5,-150.084 986.5,-150.084"/>
</a>
<a xlink:href="http://latin.omdoc.org/foundations/zfc?_BU" class="_BU">
<text text-anchor="middle" x="996.5" y="-162.3" font-family="Times New Roman,serif" font-size="14.00">_BU</text>
</a>
</g>
<!-- http://latin.omdoc.org/foundations/zfc?Powersets -->
<g id="node22" class="node"><title>http://latin.omdoc.org/foundations/zfc?Powersets</title>
<a xlink:href="http://latin.omdoc.org/foundations/zfc?Powersets" class="graphtheory">
<ellipse fill="gray" stroke="black" cx="48" cy="-298" rx="48.1437" ry="18"/>
<text text-anchor="middle" x="48" y="-294.3" font-family="Times New Roman,serif" font-size="14.00">Powersets</text>
</a>
</g>
<!-- http://latin.omdoc.org/foundations/zfc?Powersets&#45;&gt;http://latin.omdoc.org/foundations/zfc?ConditionalTermsAux -->
<g id="edge21" class="edge"><title>http://latin.omdoc.org/foundations/zfc?Powersets&#45;&gt;http://latin.omdoc.org/foundations/zfc?ConditionalTermsAux</title>
<a class="graphinclude">
<path fill="none" stroke="black" d="M46.7791,-279.693C44.7905,-236.585 46.2593,-124.008 110,-70 128.479,-54.3426 260.697,-44.4933 355.447,-39.3665"/>
<polygon fill="black" stroke="black" points="355.848,-42.8502 365.648,-38.8248 355.476,-35.8601 355.848,-42.8502"/>
</a>
</g>
<!-- http://cds.omdoc.org/urtheories?LF -->
<g id="node24" class="node"><title>http://cds.omdoc.org/urtheories?LF</title>
<a xlink:href="http://cds.omdoc.org/urtheories?LF" class="graphtheory">
<ellipse fill="gray" stroke="black" cx="609" cy="-372" rx="27" ry="18"/>
<text text-anchor="middle" x="609" y="-368.3" font-family="Times New Roman,serif" font-size="14.00">LF</text>
</a>
</g>
<!-- http://cds.omdoc.org/urtheories?LF&#45;&gt;http://latin.omdoc.org/foundations/zfc?ConditionalTermsAux -->
<g id="edge23" class="edge"><title>http://cds.omdoc.org/urtheories?LF&#45;&gt;http://latin.omdoc.org/foundations/zfc?ConditionalTermsAux</title>
<a class="graphmeta">
<path fill="none" stroke="black" d="M581.885,-369.859C479.747,-365.208 124,-345.659 124,-299 124,-299 124,-299 124,-121 124,-72.2485 260.931,-50.6064 358.114,-41.3857"/>
<polygon fill="black" stroke="black" points="358.636,-44.8525 368.274,-40.4527 357.996,-37.8818 358.636,-44.8525"/>
</a>
</g>
<!-- http://cds.omdoc.org/urtheories?LF&#45;&gt;http://latin.omdoc.org/foundations/zfc?UniversalQuantifier -->
<g id="edge35" class="edge"><title>http://cds.omdoc.org/urtheories?LF&#45;&gt;http://latin.omdoc.org/foundations/zfc?UniversalQuantifier</title>
<a class="graphmeta">
<path fill="none" stroke="black" d="M587.419,-360.675C564.784,-349.782 528.228,-332.01 497,-316 451.704,-292.778 440.471,-286.765 396,-262 378.848,-252.448 359.996,-241.574 344.156,-232.327"/>
<polygon fill="black" stroke="black" points="345.612,-229.124 335.213,-227.093 342.076,-235.165 345.612,-229.124"/>
</a>
</g>
<!-- http://cds.omdoc.org/urtheories?LF&#45;&gt;http://latin.omdoc.org/foundations/zfc?TypedZFBase -->
<g id="edge27" class="edge"><title>http://cds.omdoc.org/urtheories?LF&#45;&gt;http://latin.omdoc.org/foundations/zfc?TypedZFBase</title>
<a class="graphmeta">
<path fill="none" stroke="black" d="M628.081,-358.949C644.866,-348.348 669.68,-332.676 689.727,-320.014"/>
<polygon fill="black" stroke="black" points="691.687,-322.917 698.272,-314.617 687.949,-316.998 691.687,-322.917"/>
</a>
</g>
<!-- http://cds.omdoc.org/urtheories?LF&#45;&gt;http://latin.omdoc.org/foundations/zfc?BigInter -->
<g id="edge31" class="edge"><title>http://cds.omdoc.org/urtheories?LF&#45;&gt;http://latin.omdoc.org/foundations/zfc?BigInter</title>
<a class="graphmeta">
<path fill="none" stroke="black" d="M636.052,-369.507C695.095,-365.643 839.399,-352.899 954,-316 1029.05,-291.836 1112.42,-251.797 1157.87,-228.774"/>
<polygon fill="black" stroke="black" points="1159.65,-231.792 1166.97,-224.131 1156.47,-225.556 1159.65,-231.792"/>
</a>
</g>
<!-- http://cds.omdoc.org/urtheories?LF&#45;&gt;http://latin.omdoc.org/foundations/zfc?ImageTypes -->
<g id="edge41" class="edge"><title>http://cds.omdoc.org/urtheories?LF&#45;&gt;http://latin.omdoc.org/foundations/zfc?ImageTypes</title>
<a class="graphmeta">
<path fill="none" stroke="black" d="M636.091,-369.529C747.758,-362.819 1169.78,-330.86 1240,-228 1289.44,-155.579 1138.81,-133.062 1047.51,-126.095"/>
<polygon fill="black" stroke="black" points="1047.73,-122.602 1037.51,-125.376 1047.23,-129.584 1047.73,-122.602"/>
</a>
</g>
<!-- http://cds.omdoc.org/urtheories?LF&#45;&gt;http://latin.omdoc.org/foundations/zfc?ExistentialQuantifier -->
<g id="edge45" class="edge"><title>http://cds.omdoc.org/urtheories?LF&#45;&gt;http://latin.omdoc.org/foundations/zfc?ExistentialQuantifier</title>
<a class="graphmeta">
<path fill="none" stroke="black" d="M635.938,-370.173C675.621,-367.546 749.945,-357.048 795,-316 817.277,-295.704 827.939,-261.999 832.906,-238.261"/>
<polygon fill="black" stroke="black" points="836.401,-238.614 834.808,-228.14 829.521,-237.321 836.401,-238.614"/>
</a>
</g>
<!-- http://cds.omdoc.org/urtheories?LF&#45;&gt;http://latin.omdoc.org/foundations/zfc?Products -->
<g id="edge39" class="edge"><title>http://cds.omdoc.org/urtheories?LF&#45;&gt;http://latin.omdoc.org/foundations/zfc?Products</title>
<a class="graphmeta">
<path fill="none" stroke="black" d="M635.779,-369.321C688.444,-365.304 808.493,-352.581 902,-316 960.574,-293.085 1023.36,-254.939 1059.52,-231.479"/>
<polygon fill="black" stroke="black" points="1061.67,-234.254 1068.12,-225.849 1057.84,-228.397 1061.67,-234.254"/>
</a>
</g>
<!-- http://cds.omdoc.org/urtheories?LF&#45;&gt;http://latin.omdoc.org/foundations/zfc?DisjUnion -->
<g id="edge43" class="edge"><title>http://cds.omdoc.org/urtheories?LF&#45;&gt;http://latin.omdoc.org/foundations/zfc?DisjUnion</title>
<a class="graphmeta">
<path fill="none" stroke="black" d="M591.318,-358.366C565.621,-339.426 517.385,-301.643 484,-262 477.53,-254.317 471.515,-245.14 466.538,-236.702"/>
<polygon fill="black" stroke="black" points="469.548,-234.915 461.573,-227.942 463.459,-238.367 469.548,-234.915"/>
</a>
</g>
<!-- http://cds.omdoc.org/urtheories?LF&#45;&gt;http://latin.omdoc.org/foundations/zfc?ConditionalTerms -->
<g id="edge33" class="edge"><title>http://cds.omdoc.org/urtheories?LF&#45;&gt;http://latin.omdoc.org/foundations/zfc?ConditionalTerms</title>
<a class="graphmeta">
<path fill="none" stroke="black" d="M581.904,-371.352C506.059,-370.673 291.472,-356.981 204,-228 185.906,-201.32 196.506,-176.364 223,-158 246.438,-141.754 314.001,-132.782 369.878,-128.001"/>
<polygon fill="black" stroke="black" points="370.482,-131.464 380.162,-127.157 369.909,-124.487 370.482,-131.464"/>
</a>
</g>
<!-- http://cds.omdoc.org/urtheories?LF&#45;&gt;http://latin.omdoc.org/foundations/zfc?PredSubTypes -->
<g id="edge25" class="edge"><title>http://cds.omdoc.org/urtheories?LF&#45;&gt;http://latin.omdoc.org/foundations/zfc?PredSubTypes</title>
<a class="graphmeta">
<path fill="none" stroke="black" d="M606.218,-353.877C601.702,-326.089 592.743,-270.959 587.371,-237.896"/>
<polygon fill="black" stroke="black" points="590.821,-237.309 585.762,-228 583.912,-238.432 590.821,-237.309"/>
</a>
</g>
<!-- http://cds.omdoc.org/urtheories?LF&#45;&gt;http://latin.omdoc.org/foundations/zfc?BigUnion -->
<g id="edge29" class="edge"><title>http://cds.omdoc.org/urtheories?LF&#45;&gt;http://latin.omdoc.org/foundations/zfc?BigUnion</title>
<a class="graphmeta">
<path fill="none" stroke="black" d="M635.737,-368.907C697.149,-362.829 850.349,-340.276 946,-262 954.635,-254.934 962.263,-245.402 968.315,-236.491"/>
<polygon fill="black" stroke="black" points="971.371,-238.209 973.821,-227.902 965.478,-234.432 971.371,-238.209"/>
</a>
</g>
<!-- http://cds.omdoc.org/urtheories?LF&#45;&gt;http://latin.omdoc.org/foundations/zfc?Powersets -->
<g id="edge37" class="edge"><title>http://cds.omdoc.org/urtheories?LF&#45;&gt;http://latin.omdoc.org/foundations/zfc?Powersets</title>
<a class="graphmeta">
<path fill="none" stroke="black" d="M581.873,-370.749C491.174,-369.652 199.18,-363.981 110,-336 98.4371,-332.372 86.7651,-326.207 76.7156,-319.939"/>
<polygon fill="black" stroke="black" points="78.6303,-317.009 68.3454,-314.465 74.7991,-322.868 78.6303,-317.009"/>
</a>
</g>
</g>
</svg>
