<?xml version="1.0" encoding="UTF-8" standalone="no"?>
<!DOCTYPE svg PUBLIC "-//W3C//DTD SVG 1.1//EN"
 "http://www.w3.org/Graphics/SVG/1.1/DTD/svg11.dtd">
<!-- Generated by graphviz version 2.28.0 (20110507.0327)
 -->
<!-- Title: MMT Pages: 1 -->
<svg width="392pt" height="354pt"
 viewBox="0.00 0.00 392.09 354.00" xmlns="http://www.w3.org/2000/svg" xmlns:xlink="http://www.w3.org/1999/xlink">
<g id="graph1" class="graph" transform="scale(1 1) rotate(0) translate(4 350)">
<title>MMT</title>
<polygon fill="white" stroke="white" points="-4,5 -4,-350 389.087,-350 389.087,5 -4,5"/>
<g id="graph2" class="cluster"><title>cluster_local</title>
<polygon fill="none" stroke="black" points="58,-140 58,-280 186,-280 186,-140 58,-140"/>
</g>
<!-- http://latin.omdoc.org/foundations/zfc?BigInter -->
<g id="node2" class="node"><title>http://latin.omdoc.org/foundations/zfc?BigInter</title>
<a xlink:href="http://latin.omdoc.org/foundations/zfc?BigInter" class="graphtheory">
<ellipse fill="none" stroke="black" cx="106" cy="-254" rx="39.4691" ry="18"/>
<text text-anchor="middle" x="106" y="-250.3" font-family="Times New Roman,serif" font-size="14.00">BigInter</text>
</a>
</g>
<!-- http://latin.omdoc.org/foundations/zfc?ImageTypes -->
<g id="node3" class="node"><title>http://latin.omdoc.org/foundations/zfc?ImageTypes</title>
<a xlink:href="http://latin.omdoc.org/foundations/zfc?ImageTypes" class="graphtheory">
<ellipse fill="none" stroke="black" cx="122" cy="-166" rx="55.3436" ry="18"/>
<text text-anchor="middle" x="122" y="-162.3" font-family="Times New Roman,serif" font-size="14.00">ImageTypes</text>
</a>
</g>
<!-- http://latin.omdoc.org/foundations/zfc?BigInter&#45;&gt;http://latin.omdoc.org/foundations/zfc?ImageTypes -->
<g id="edge3" class="edge"><title>http://latin.omdoc.org/foundations/zfc?BigInter&#45;&gt;http://latin.omdoc.org/foundations/zfc?ImageTypes</title>
<a xlink:href="http://latin.omdoc.org/foundations/zfc?_BI" class="graphview">
<path fill="none" stroke="black" d="M101.812,-235.74C100.082,-225.737 99.0822,-212.987 102,-202 102.844,-198.821 104.053,-195.629 105.463,-192.537"/>
<polygon fill="black" stroke="black" points="108.57,-194.148 110.138,-183.67 102.378,-190.884 108.57,-194.148"/>
</a>
<a xlink:href="http://latin.omdoc.org/foundations/zfc?_BI" class="_BI">
<text text-anchor="middle" x="113" y="-206.3" font-family="Times New Roman,serif" font-size="14.00">_BI</text>
</a>
</g>
<!-- http://latin.omdoc.org/foundations/zfc?TypedZF -->
<g id="node5" class="node"><title>http://latin.omdoc.org/foundations/zfc?TypedZF</title>
<a xlink:href="http://latin.omdoc.org/foundations/zfc?TypedZF" class="graphtheory">
<ellipse fill="gray" stroke="black" cx="170" cy="-18" rx="45.244" ry="18"/>
<text text-anchor="middle" x="170" y="-14.3" font-family="Times New Roman,serif" font-size="14.00">TypedZF</text>
</a>
</g>
<!-- http://latin.omdoc.org/foundations/zfc?BigInter&#45;&gt;http://latin.omdoc.org/foundations/zfc?TypedZF -->
<g id="edge5" class="edge"><title>http://latin.omdoc.org/foundations/zfc?BigInter&#45;&gt;http://latin.omdoc.org/foundations/zfc?TypedZF</title>
<a class="graphinclude">
<path fill="none" stroke="black" d="M90.4844,-237.316C78.7454,-224.273 63.5629,-204.577 57,-184 51.0577,-165.369 50.1811,-158.328 57,-140 72.8043,-97.5206 112.013,-61.4638 139.796,-40.0347"/>
<polygon fill="black" stroke="black" points="142.12,-42.667 148.014,-33.863 137.916,-37.0699 142.12,-42.667"/>
</a>
</g>
<!-- http://latin.omdoc.org/foundations/zfc?Functions -->
<g id="node11" class="node"><title>http://latin.omdoc.org/foundations/zfc?Functions</title>
<a xlink:href="http://latin.omdoc.org/foundations/zfc?Functions" class="graphtheory">
<ellipse fill="gray" stroke="black" cx="170" cy="-92" rx="46.1964" ry="18"/>
<text text-anchor="middle" x="170" y="-88.3" font-family="Times New Roman,serif" font-size="14.00">Functions</text>
</a>
</g>
<!-- http://latin.omdoc.org/foundations/zfc?ImageTypes&#45;&gt;http://latin.omdoc.org/foundations/zfc?Functions -->
<g id="edge11" class="edge"><title>http://latin.omdoc.org/foundations/zfc?ImageTypes&#45;&gt;http://latin.omdoc.org/foundations/zfc?Functions</title>
<a class="graphinclude">
<path fill="none" stroke="black" d="M133.133,-148.301C139.13,-139.304 146.65,-128.025 153.331,-118.003"/>
<polygon fill="black" stroke="black" points="156.293,-119.871 158.928,-109.609 150.468,-115.988 156.293,-119.871"/>
</a>
</g>
<!-- http://latin.omdoc.org/foundations/zfc?TypedZFBase -->
<g id="node7" class="node"><title>http://latin.omdoc.org/foundations/zfc?TypedZFBase</title>
<a xlink:href="http://latin.omdoc.org/foundations/zfc?TypedZFBase" class="graphtheory">
<ellipse fill="gray" stroke="black" cx="303" cy="-254" rx="63.0666" ry="18"/>
<text text-anchor="middle" x="303" y="-250.3" font-family="Times New Roman,serif" font-size="14.00">TypedZFBase</text>
</a>
</g>
<!-- http://latin.omdoc.org/foundations/zfc?TypedZFBase&#45;&gt;http://latin.omdoc.org/foundations/zfc?BigInter -->
<g id="edge7" class="edge"><title>http://latin.omdoc.org/foundations/zfc?TypedZFBase&#45;&gt;http://latin.omdoc.org/foundations/zfc?BigInter</title>
<a class="graphinclude">
<path fill="none" stroke="black" d="M239.684,-254C211.762,-254 183.84,-254 155.918,-254"/>
<polygon fill="black" stroke="black" points="155.631,-250.5 145.631,-254 155.631,-257.5 155.631,-250.5"/>
</a>
</g>
<!-- http://latin.omdoc.org/foundations/zfc?TypedZFBase&#45;&gt;http://latin.omdoc.org/foundations/zfc?ImageTypes -->
<g id="edge15" class="edge"><title>http://latin.omdoc.org/foundations/zfc?TypedZFBase&#45;&gt;http://latin.omdoc.org/foundations/zfc?ImageTypes</title>
<a class="graphinclude">
<path fill="none" stroke="black" d="M271.885,-238.216C241.343,-223.704 194.645,-201.516 161.499,-185.767"/>
<polygon fill="black" stroke="black" points="162.642,-182.436 152.108,-181.305 159.638,-188.758 162.642,-182.436"/>
</a>
</g>
<!-- http://latin.omdoc.org/foundations/zfc?TypedZFBase&#45;&gt;http://latin.omdoc.org/foundations/zfc?TypedZF -->
<g id="edge31" class="edge"><title>http://latin.omdoc.org/foundations/zfc?TypedZFBase&#45;&gt;http://latin.omdoc.org/foundations/zfc?TypedZF</title>
<a class="graphinclude">
<path fill="none" stroke="black" d="M297.928,-235.894C287.599,-202.734 261.938,-128.205 225,-74 217.02,-62.2891 206.339,-50.9369 196.514,-41.6173"/>
<polygon fill="black" stroke="black" points="198.618,-38.7975 188.885,-34.611 193.883,-43.9531 198.618,-38.7975"/>
</a>
</g>
<!-- http://latin.omdoc.org/foundations/zfc?BigUnion -->
<g id="node13" class="node"><title>http://latin.omdoc.org/foundations/zfc?BigUnion</title>
<a xlink:href="http://latin.omdoc.org/foundations/zfc?BigUnion" class="graphtheory">
<ellipse fill="gray" stroke="black" cx="335" cy="-166" rx="44.271" ry="18"/>
<text text-anchor="middle" x="335" y="-162.3" font-family="Times New Roman,serif" font-size="14.00">BigUnion</text>
</a>
</g>
<!-- http://latin.omdoc.org/foundations/zfc?TypedZFBase&#45;&gt;http://latin.omdoc.org/foundations/zfc?BigUnion -->
<g id="edge33" class="edge"><title>http://latin.omdoc.org/foundations/zfc?TypedZFBase&#45;&gt;http://latin.omdoc.org/foundations/zfc?BigUnion</title>
<a class="graphinclude">
<path fill="none" stroke="black" d="M309.322,-236.009C313.836,-223.877 319.997,-207.32 325.153,-193.465"/>
<polygon fill="black" stroke="black" points="328.484,-194.548 328.691,-183.956 321.923,-192.107 328.484,-194.548"/>
</a>
</g>
<!-- http://cds.omdoc.org/urtheories?LF -->
<g id="node9" class="node"><title>http://cds.omdoc.org/urtheories?LF</title>
<a xlink:href="http://cds.omdoc.org/urtheories?LF" class="graphtheory">
<ellipse fill="gray" stroke="black" cx="174" cy="-328" rx="27" ry="18"/>
<text text-anchor="middle" x="174" y="-324.3" font-family="Times New Roman,serif" font-size="14.00">LF</text>
</a>
</g>
<!-- http://cds.omdoc.org/urtheories?LF&#45;&gt;http://latin.omdoc.org/foundations/zfc?BigInter -->
<g id="edge9" class="edge"><title>http://cds.omdoc.org/urtheories?LF&#45;&gt;http://latin.omdoc.org/foundations/zfc?BigInter</title>
<a class="graphmeta">
<path fill="none" stroke="black" d="M160.239,-312.43C150.969,-302.614 138.542,-289.457 127.923,-278.212"/>
<polygon fill="black" stroke="black" points="130.331,-275.665 120.92,-270.798 125.242,-280.471 130.331,-275.665"/>
</a>
</g>
<!-- http://cds.omdoc.org/urtheories?LF&#45;&gt;http://latin.omdoc.org/foundations/zfc?ImageTypes -->
<g id="edge17" class="edge"><title>http://cds.omdoc.org/urtheories?LF&#45;&gt;http://latin.omdoc.org/foundations/zfc?ImageTypes</title>
<a class="graphmeta">
<path fill="none" stroke="black" d="M171.392,-309.929C168.302,-291.414 162.478,-261.137 154,-236 149.057,-221.343 141.937,-205.652 135.668,-192.943"/>
<polygon fill="black" stroke="black" points="138.72,-191.222 131.09,-183.871 132.471,-194.376 138.72,-191.222"/>
</a>
</g>
<!-- http://cds.omdoc.org/urtheories?LF&#45;&gt;http://latin.omdoc.org/foundations/zfc?TypedZF -->
<g id="edge27" class="edge"><title>http://cds.omdoc.org/urtheories?LF&#45;&gt;http://latin.omdoc.org/foundations/zfc?TypedZF</title>
<a class="graphmeta">
<path fill="none" stroke="black" d="M146.813,-327.519C97.875,-326.885 0,-317.769 0,-255 0,-255 0,-255 0,-91 0,-40.1738 65.2288,-24.6882 114.877,-20.2629"/>
<polygon fill="black" stroke="black" points="115.185,-23.7496 124.889,-19.4978 114.652,-16.7699 115.185,-23.7496"/>
</a>
</g>
<!-- http://cds.omdoc.org/urtheories?LF&#45;&gt;http://latin.omdoc.org/foundations/zfc?TypedZFBase -->
<g id="edge23" class="edge"><title>http://cds.omdoc.org/urtheories?LF&#45;&gt;http://latin.omdoc.org/foundations/zfc?TypedZFBase</title>
<a class="graphmeta">
<path fill="none" stroke="black" d="M194.156,-315.75C213.424,-304.996 242.924,-288.531 266.355,-275.453"/>
<polygon fill="black" stroke="black" points="268.3,-278.376 275.326,-270.446 264.888,-272.263 268.3,-278.376"/>
</a>
</g>
<!-- http://cds.omdoc.org/urtheories?LF&#45;&gt;http://latin.omdoc.org/foundations/zfc?Functions -->
<g id="edge29" class="edge"><title>http://cds.omdoc.org/urtheories?LF&#45;&gt;http://latin.omdoc.org/foundations/zfc?Functions</title>
<a class="graphmeta">
<path fill="none" stroke="black" d="M181.15,-310.376C184.568,-301.535 188.282,-290.375 190,-280 200.162,-218.613 202.432,-200.968 190,-140 188.571,-132.995 186.059,-125.74 183.287,-119.088"/>
<polygon fill="black" stroke="black" points="186.434,-117.553 179.136,-109.872 180.052,-120.427 186.434,-117.553"/>
</a>
</g>
<!-- http://cds.omdoc.org/urtheories?LF&#45;&gt;http://latin.omdoc.org/foundations/zfc?BigUnion -->
<g id="edge25" class="edge"><title>http://cds.omdoc.org/urtheories?LF&#45;&gt;http://latin.omdoc.org/foundations/zfc?BigUnion</title>
<a class="graphmeta">
<path fill="none" stroke="black" d="M200.623,-324.785C250.179,-320.049 353.51,-307.095 375,-280 395.823,-253.746 374.628,-215.815 356.033,-191.282"/>
<polygon fill="black" stroke="black" points="358.589,-188.872 349.638,-183.204 353.101,-193.217 358.589,-188.872"/>
</a>
</g>
<!-- http://latin.omdoc.org/foundations/zfc?Functions&#45;&gt;http://latin.omdoc.org/foundations/zfc?TypedZF -->
<g id="edge21" class="edge"><title>http://latin.omdoc.org/foundations/zfc?Functions&#45;&gt;http://latin.omdoc.org/foundations/zfc?TypedZF</title>
<a class="graphinclude">
<path fill="none" stroke="black" d="M170,-73.937C170,-65.8072 170,-55.8761 170,-46.7047"/>
<polygon fill="black" stroke="black" points="173.5,-46.4406 170,-36.4407 166.5,-46.4407 173.5,-46.4406"/>
</a>
</g>
<!-- http://latin.omdoc.org/foundations/zfc?BigUnion&#45;&gt;http://latin.omdoc.org/foundations/zfc?ImageTypes -->
<g id="edge13" class="edge"><title>http://latin.omdoc.org/foundations/zfc?BigUnion&#45;&gt;http://latin.omdoc.org/foundations/zfc?ImageTypes</title>
<a xlink:href="http://latin.omdoc.org/foundations/zfc?_BU" class="graphview">
<path fill="none" stroke="black" d="M290.367,-166C260.653,-166 221.103,-166 187.801,-166"/>
<polygon fill="black" stroke="black" points="187.685,-162.5 177.685,-166 187.685,-169.5 187.685,-162.5"/>
</a>
<a xlink:href="http://latin.omdoc.org/foundations/zfc?_BU" class="_BU">
<text text-anchor="middle" x="233.577" y="-172.8" font-family="Times New Roman,serif" font-size="14.00">_BU</text>
</a>
</g>
<!-- http://latin.omdoc.org/foundations/zfc?BigUnion&#45;&gt;http://latin.omdoc.org/foundations/zfc?TypedZF -->
<g id="edge19" class="edge"><title>http://latin.omdoc.org/foundations/zfc?BigUnion&#45;&gt;http://latin.omdoc.org/foundations/zfc?TypedZF</title>
<a class="graphinclude">
<path fill="none" stroke="black" d="M330.303,-147.75C322.81,-123.418 305.864,-79.1836 276,-54 260.616,-41.027 240.272,-32.8197 221.524,-27.6465"/>
<polygon fill="black" stroke="black" points="222.16,-24.1974 211.607,-25.1412 220.445,-30.9841 222.16,-24.1974"/>
</a>
</g>
</g>
</svg>
