<?xml version="1.0" encoding="UTF-8" standalone="no"?>
<!DOCTYPE svg PUBLIC "-//W3C//DTD SVG 1.1//EN"
 "http://www.w3.org/Graphics/SVG/1.1/DTD/svg11.dtd">
<!-- Generated by graphviz version 2.28.0 (20110507.0327)
 -->
<!-- Title: MMT Pages: 1 -->
<svg
 viewBox="0.00 0.00 652.00 354.00" xmlns="http://www.w3.org/2000/svg" xmlns:xlink="http://www.w3.org/1999/xlink">
<g id="graph1" class="graph" transform="scale(1 1) rotate(0) translate(4 350)">
<title>MMT</title>
<polygon fill="white" stroke="white" points="-4,5 -4,-350 649,-350 649,5 -4,5"/>
<g id="graph2" class="cluster"><title>cluster_local</title>
<polygon fill="none" stroke="black" points="242,-140 242,-280 370,-280 370,-140 242,-140"/>
</g>
<!-- http://latin.omdoc.org/foundations/zfc?BigUnion -->
<g id="node2" class="node"><title>http://latin.omdoc.org/foundations/zfc?BigUnion</title>
<a xlink:href="http://latin.omdoc.org/foundations/zfc?BigUnion" class="graphtheory">
<ellipse fill="none" stroke="black" cx="295" cy="-254" rx="44.271" ry="18"/>
<text text-anchor="middle" x="295" y="-250.3" font-family="Times New Roman,serif" font-size="14.00">BigUnion</text>
</a>
</g>
<!-- http://latin.omdoc.org/foundations/zfc?ImageTypes -->
<g id="node3" class="node"><title>http://latin.omdoc.org/foundations/zfc?ImageTypes</title>
<a xlink:href="http://latin.omdoc.org/foundations/zfc?ImageTypes" class="graphtheory">
<ellipse fill="none" stroke="black" cx="306" cy="-166" rx="55.3436" ry="18"/>
<text text-anchor="middle" x="306" y="-162.3" font-family="Times New Roman,serif" font-size="14.00">ImageTypes</text>
</a>
</g>
<!-- http://latin.omdoc.org/foundations/zfc?BigUnion&#45;&gt;http://latin.omdoc.org/foundations/zfc?ImageTypes -->
<g id="edge3" class="edge"><title>http://latin.omdoc.org/foundations/zfc?BigUnion&#45;&gt;http://latin.omdoc.org/foundations/zfc?ImageTypes</title>
<a xlink:href="http://latin.omdoc.org/foundations/zfc?_BU" class="graphview">
<path fill="none" stroke="black" d="M286.497,-235.866C282.663,-225.904 279.663,-213.154 283,-202 283.959,-198.796 285.315,-195.613 286.896,-192.547"/>
<polygon fill="black" stroke="black" points="290.001,-194.175 292.137,-183.798 283.996,-190.578 290.001,-194.175"/>
</a>
<a xlink:href="http://latin.omdoc.org/foundations/zfc?_BU" class="_BU">
<text text-anchor="middle" x="296.5" y="-206.3" font-family="Times New Roman,serif" font-size="14.00">_BU</text>
</a>
</g>
<!-- http://latin.omdoc.org/foundations/zfc?DependentProducts -->
<g id="node5" class="node"><title>http://latin.omdoc.org/foundations/zfc?DependentProducts</title>
<a xlink:href="http://latin.omdoc.org/foundations/zfc?DependentProducts" class="graphtheory">
<ellipse fill="gray" stroke="black" cx="111" cy="-166" rx="83.2892" ry="18"/>
<text text-anchor="middle" x="111" y="-162.3" font-family="Times New Roman,serif" font-size="14.00">DependentProducts</text>
</a>
</g>
<!-- http://latin.omdoc.org/foundations/zfc?BigUnion&#45;&gt;http://latin.omdoc.org/foundations/zfc?DependentProducts -->
<g id="edge5" class="edge"><title>http://latin.omdoc.org/foundations/zfc?BigUnion&#45;&gt;http://latin.omdoc.org/foundations/zfc?DependentProducts</title>
<a class="graphinclude">
<path fill="none" stroke="black" d="M263.261,-241.125C246.631,-234.679 226.027,-226.339 208,-218 188.001,-208.749 166.245,-197.431 148.415,-187.809"/>
<polygon fill="black" stroke="black" points="149.936,-184.652 139.479,-182.951 146.593,-190.802 149.936,-184.652"/>
</a>
</g>
<!-- http://latin.omdoc.org/foundations/zfc?TypedZF -->
<g id="node7" class="node"><title>http://latin.omdoc.org/foundations/zfc?TypedZF</title>
<a xlink:href="http://latin.omdoc.org/foundations/zfc?TypedZF" class="graphtheory">
<ellipse fill="gray" stroke="black" cx="320" cy="-18" rx="45.244" ry="18"/>
<text text-anchor="middle" x="320" y="-14.3" font-family="Times New Roman,serif" font-size="14.00">TypedZF</text>
</a>
</g>
<!-- http://latin.omdoc.org/foundations/zfc?BigUnion&#45;&gt;http://latin.omdoc.org/foundations/zfc?TypedZF -->
<g id="edge7" class="edge"><title>http://latin.omdoc.org/foundations/zfc?BigUnion&#45;&gt;http://latin.omdoc.org/foundations/zfc?TypedZF</title>
<a class="graphinclude">
<path fill="none" stroke="black" d="M277.667,-237.359C264.785,-224.486 248.239,-204.996 241,-184 234.626,-165.512 235.423,-158.743 241,-140 252.151,-102.522 279.007,-65.8283 298.311,-42.8557"/>
<polygon fill="black" stroke="black" points="301.17,-44.9 305.039,-35.0369 295.863,-40.3345 301.17,-44.9"/>
</a>
</g>
<!-- http://latin.omdoc.org/foundations/zfc?Functions -->
<g id="node13" class="node"><title>http://latin.omdoc.org/foundations/zfc?Functions</title>
<a xlink:href="http://latin.omdoc.org/foundations/zfc?Functions" class="graphtheory">
<ellipse fill="gray" stroke="black" cx="493" cy="-92" rx="46.1964" ry="18"/>
<text text-anchor="middle" x="493" y="-88.3" font-family="Times New Roman,serif" font-size="14.00">Functions</text>
</a>
</g>
<!-- http://latin.omdoc.org/foundations/zfc?ImageTypes&#45;&gt;http://latin.omdoc.org/foundations/zfc?Functions -->
<g id="edge13" class="edge"><title>http://latin.omdoc.org/foundations/zfc?ImageTypes&#45;&gt;http://latin.omdoc.org/foundations/zfc?Functions</title>
<a class="graphinclude">
<path fill="none" stroke="black" d="M337.727,-151.22C346.524,-147.491 356.102,-143.516 365,-140 393.28,-128.824 425.405,-117.031 450.398,-108.053"/>
<polygon fill="black" stroke="black" points="451.712,-111.3 459.948,-104.635 449.353,-104.71 451.712,-111.3"/>
</a>
</g>
<!-- http://latin.omdoc.org/foundations/zfc?DependentProducts&#45;&gt;http://latin.omdoc.org/foundations/zfc?TypedZF -->
<g id="edge39" class="edge"><title>http://latin.omdoc.org/foundations/zfc?DependentProducts&#45;&gt;http://latin.omdoc.org/foundations/zfc?TypedZF</title>
<a class="graphinclude">
<path fill="none" stroke="black" d="M121.368,-148.112C137.132,-123.814 169.411,-79.1583 208,-54 226.395,-42.0077 249.155,-33.9091 269.343,-28.5515"/>
<polygon fill="black" stroke="black" points="270.465,-31.8791 279.322,-26.0652 268.773,-25.0868 270.465,-31.8791"/>
</a>
</g>
<!-- http://latin.omdoc.org/foundations/zfc?TypedZFBase -->
<g id="node9" class="node"><title>http://latin.omdoc.org/foundations/zfc?TypedZFBase</title>
<a xlink:href="http://latin.omdoc.org/foundations/zfc?TypedZFBase" class="graphtheory">
<ellipse fill="gray" stroke="black" cx="459" cy="-254" rx="63.0666" ry="18"/>
<text text-anchor="middle" x="459" y="-250.3" font-family="Times New Roman,serif" font-size="14.00">TypedZFBase</text>
</a>
</g>
<!-- http://latin.omdoc.org/foundations/zfc?TypedZFBase&#45;&gt;http://latin.omdoc.org/foundations/zfc?BigUnion -->
<g id="edge9" class="edge"><title>http://latin.omdoc.org/foundations/zfc?TypedZFBase&#45;&gt;http://latin.omdoc.org/foundations/zfc?BigUnion</title>
<a class="graphinclude">
<path fill="none" stroke="black" d="M395.528,-254C380.214,-254 364.901,-254 349.587,-254"/>
<polygon fill="black" stroke="black" points="349.523,-250.5 339.523,-254 349.523,-257.5 349.523,-250.5"/>
</a>
</g>
<!-- http://latin.omdoc.org/foundations/zfc?TypedZFBase&#45;&gt;http://latin.omdoc.org/foundations/zfc?ImageTypes -->
<g id="edge17" class="edge"><title>http://latin.omdoc.org/foundations/zfc?TypedZFBase&#45;&gt;http://latin.omdoc.org/foundations/zfc?ImageTypes</title>
<a class="graphinclude">
<path fill="none" stroke="black" d="M435.652,-237.061C419.934,-226.596 398.579,-212.883 379,-202 368.643,-196.243 357.191,-190.483 346.488,-185.345"/>
<polygon fill="black" stroke="black" points="347.858,-182.121 337.322,-181.006 344.863,-188.448 347.858,-182.121"/>
</a>
</g>
<!-- http://latin.omdoc.org/foundations/zfc?TypedZFBase&#45;&gt;http://latin.omdoc.org/foundations/zfc?TypedZF -->
<g id="edge35" class="edge"><title>http://latin.omdoc.org/foundations/zfc?TypedZFBase&#45;&gt;http://latin.omdoc.org/foundations/zfc?TypedZF</title>
<a class="graphinclude">
<path fill="none" stroke="black" d="M449.003,-236.171C424.96,-195.695 363.776,-92.6943 335.172,-44.5408"/>
<polygon fill="black" stroke="black" points="338.022,-42.4863 329.906,-35.6762 332.004,-46.0613 338.022,-42.4863"/>
</a>
</g>
<!-- http://latin.omdoc.org/foundations/zfc?BigInter -->
<g id="node15" class="node"><title>http://latin.omdoc.org/foundations/zfc?BigInter</title>
<a xlink:href="http://latin.omdoc.org/foundations/zfc?BigInter" class="graphtheory">
<ellipse fill="gray" stroke="black" cx="605" cy="-166" rx="39.4691" ry="18"/>
<text text-anchor="middle" x="605" y="-162.3" font-family="Times New Roman,serif" font-size="14.00">BigInter</text>
</a>
</g>
<!-- http://latin.omdoc.org/foundations/zfc?TypedZFBase&#45;&gt;http://latin.omdoc.org/foundations/zfc?BigInter -->
<g id="edge37" class="edge"><title>http://latin.omdoc.org/foundations/zfc?TypedZFBase&#45;&gt;http://latin.omdoc.org/foundations/zfc?BigInter</title>
<a class="graphinclude">
<path fill="none" stroke="black" d="M485.439,-237.426C509.991,-222.964 546.602,-201.399 572.837,-185.945"/>
<polygon fill="black" stroke="black" points="574.808,-188.847 581.648,-180.756 571.255,-182.815 574.808,-188.847"/>
</a>
</g>
<!-- http://cds.omdoc.org/urtheories?LF -->
<g id="node11" class="node"><title>http://cds.omdoc.org/urtheories?LF</title>
<a xlink:href="http://cds.omdoc.org/urtheories?LF" class="graphtheory">
<ellipse fill="gray" stroke="black" cx="368" cy="-328" rx="27" ry="18"/>
<text text-anchor="middle" x="368" y="-324.3" font-family="Times New Roman,serif" font-size="14.00">LF</text>
</a>
</g>
<!-- http://cds.omdoc.org/urtheories?LF&#45;&gt;http://latin.omdoc.org/foundations/zfc?BigUnion -->
<g id="edge11" class="edge"><title>http://cds.omdoc.org/urtheories?LF&#45;&gt;http://latin.omdoc.org/foundations/zfc?BigUnion</title>
<a class="graphmeta">
<path fill="none" stroke="black" d="M353.578,-312.775C343.556,-302.891 329.979,-289.5 318.419,-278.098"/>
<polygon fill="black" stroke="black" points="320.749,-275.48 311.171,-270.95 315.833,-280.464 320.749,-275.48"/>
</a>
</g>
<!-- http://cds.omdoc.org/urtheories?LF&#45;&gt;http://latin.omdoc.org/foundations/zfc?ImageTypes -->
<g id="edge19" class="edge"><title>http://cds.omdoc.org/urtheories?LF&#45;&gt;http://latin.omdoc.org/foundations/zfc?ImageTypes</title>
<a class="graphmeta">
<path fill="none" stroke="black" d="M365.935,-309.728C363.308,-291.042 357.878,-260.62 348,-236 341.865,-220.709 332.515,-204.921 324.194,-192.312"/>
<polygon fill="black" stroke="black" points="326.89,-190.052 318.376,-183.745 321.099,-193.985 326.89,-190.052"/>
</a>
</g>
<!-- http://cds.omdoc.org/urtheories?LF&#45;&gt;http://latin.omdoc.org/foundations/zfc?DependentProducts -->
<g id="edge31" class="edge"><title>http://cds.omdoc.org/urtheories?LF&#45;&gt;http://latin.omdoc.org/foundations/zfc?DependentProducts</title>
<a class="graphmeta">
<path fill="none" stroke="black" d="M342.802,-320.954C315.659,-313.761 271.818,-300.135 238,-280 196.634,-255.371 156.419,-216.248 132.685,-191.102"/>
<polygon fill="black" stroke="black" points="135.241,-188.712 125.865,-183.779 130.118,-193.482 135.241,-188.712"/>
</a>
</g>
<!-- http://cds.omdoc.org/urtheories?LF&#45;&gt;http://latin.omdoc.org/foundations/zfc?TypedZF -->
<g id="edge29" class="edge"><title>http://cds.omdoc.org/urtheories?LF&#45;&gt;http://latin.omdoc.org/foundations/zfc?TypedZF</title>
<a class="graphmeta">
<path fill="none" stroke="black" d="M340.94,-327.452C255.955,-328.153 0,-324.494 0,-255 0,-255 0,-255 0,-91 0,-37.4024 173.028,-23.6975 264.618,-20.1975"/>
<polygon fill="black" stroke="black" points="264.96,-23.6877 274.831,-19.8366 264.713,-16.6921 264.96,-23.6877"/>
</a>
</g>
<!-- http://cds.omdoc.org/urtheories?LF&#45;&gt;http://latin.omdoc.org/foundations/zfc?TypedZFBase -->
<g id="edge25" class="edge"><title>http://cds.omdoc.org/urtheories?LF&#45;&gt;http://latin.omdoc.org/foundations/zfc?TypedZFBase</title>
<a class="graphmeta">
<path fill="none" stroke="black" d="M384.691,-313.794C397.506,-303.655 415.5,-289.418 430.571,-277.493"/>
<polygon fill="black" stroke="black" points="432.921,-280.097 438.592,-271.147 428.578,-274.607 432.921,-280.097"/>
</a>
</g>
<!-- http://cds.omdoc.org/urtheories?LF&#45;&gt;http://latin.omdoc.org/foundations/zfc?Functions -->
<g id="edge33" class="edge"><title>http://cds.omdoc.org/urtheories?LF&#45;&gt;http://latin.omdoc.org/foundations/zfc?Functions</title>
<a class="graphmeta">
<path fill="none" stroke="black" d="M394.203,-323.289C435.948,-316.78 514.532,-301.887 531,-280 567.418,-231.597 532.43,-156.943 509.459,-118.228"/>
<polygon fill="black" stroke="black" points="512.411,-116.347 504.209,-109.642 506.439,-119.999 512.411,-116.347"/>
</a>
</g>
<!-- http://cds.omdoc.org/urtheories?LF&#45;&gt;http://latin.omdoc.org/foundations/zfc?BigInter -->
<g id="edge27" class="edge"><title>http://cds.omdoc.org/urtheories?LF&#45;&gt;http://latin.omdoc.org/foundations/zfc?BigInter</title>
<a class="graphmeta">
<path fill="none" stroke="black" d="M395.046,-325.539C442.747,-322.43 539.145,-313.593 564,-292 592.283,-267.429 601.154,-223.021 603.878,-194.288"/>
<polygon fill="black" stroke="black" points="607.383,-194.353 604.649,-184.117 600.403,-193.824 607.383,-194.353"/>
</a>
</g>
<!-- http://latin.omdoc.org/foundations/zfc?Functions&#45;&gt;http://latin.omdoc.org/foundations/zfc?TypedZF -->
<g id="edge23" class="edge"><title>http://latin.omdoc.org/foundations/zfc?Functions&#45;&gt;http://latin.omdoc.org/foundations/zfc?TypedZF</title>
<a class="graphinclude">
<path fill="none" stroke="black" d="M471.114,-75.9459C459.797,-68.6278 445.547,-60.1157 432,-54 411.337,-44.6716 387.473,-36.8392 367.096,-30.9652"/>
<polygon fill="black" stroke="black" points="367.976,-27.5771 357.402,-28.2409 366.082,-34.316 367.976,-27.5771"/>
</a>
</g>
<!-- http://latin.omdoc.org/foundations/zfc?BigInter&#45;&gt;http://latin.omdoc.org/foundations/zfc?ImageTypes -->
<g id="edge15" class="edge"><title>http://latin.omdoc.org/foundations/zfc?BigInter&#45;&gt;http://latin.omdoc.org/foundations/zfc?ImageTypes</title>
<a xlink:href="http://latin.omdoc.org/foundations/zfc?_BI" class="graphview">
<path fill="none" stroke="black" d="M565.504,-166C516.098,-166 430.806,-166 371.55,-166"/>
<polygon fill="black" stroke="black" points="371.539,-162.5 361.539,-166 371.539,-169.5 371.539,-162.5"/>
</a>
<a xlink:href="http://latin.omdoc.org/foundations/zfc?_BI" class="_BI">
<text text-anchor="middle" x="463.177" y="-172.8" font-family="Times New Roman,serif" font-size="14.00">_BI</text>
</a>
</g>
<!-- http://latin.omdoc.org/foundations/zfc?BigInter&#45;&gt;http://latin.omdoc.org/foundations/zfc?TypedZF -->
<g id="edge21" class="edge"><title>http://latin.omdoc.org/foundations/zfc?BigInter&#45;&gt;http://latin.omdoc.org/foundations/zfc?TypedZF</title>
<a class="graphinclude">
<path fill="none" stroke="black" d="M599.022,-148.088C590.808,-127.373 574.022,-92.7336 548,-74 497.095,-37.3532 424.898,-24.895 375.465,-20.7844"/>
<polygon fill="black" stroke="black" points="375.509,-17.2782 365.278,-20.0283 374.991,-24.259 375.509,-17.2782"/>
</a>
</g>
</g>
</svg>
