<?xml version="1.0" encoding="UTF-8" standalone="no"?>
<!DOCTYPE svg PUBLIC "-//W3C//DTD SVG 1.1//EN"
 "http://www.w3.org/Graphics/SVG/1.1/DTD/svg11.dtd">
<!-- Generated by graphviz version 2.28.0 (20110507.0327)
 -->
<!-- Title: MMT Pages: 1 -->
<svg
 viewBox="0.00 0.00 429.79 354.00" xmlns="http://www.w3.org/2000/svg" xmlns:xlink="http://www.w3.org/1999/xlink">
<g id="graph1" class="graph" transform="scale(1 1) rotate(0) translate(4 350)">
<title>MMT</title>
<polygon fill="white" stroke="white" points="-4,5 -4,-350 426.794,-350 426.794,5 -4,5"/>
<g id="graph2" class="cluster"><title>cluster_local</title>
<polygon fill="none" stroke="black" points="195.794,-66 195.794,-206 393.794,-206 393.794,-66 195.794,-66"/>
</g>
<!-- http://latin.omdoc.org/foundations/zfc?ConditionalTerms -->
<g id="node2" class="node"><title>http://latin.omdoc.org/foundations/zfc?ConditionalTerms</title>
<a xlink:href="http://latin.omdoc.org/foundations/zfc?ConditionalTerms" class="graphtheory">
<ellipse fill="none" stroke="black" cx="279.794" cy="-180" rx="76.0649" ry="18"/>
<text text-anchor="middle" x="279.794" y="-176.3" font-family="Times New Roman,serif" font-size="14.00">ConditionalTerms</text>
</a>
</g>
<!-- http://latin.omdoc.org/foundations/zfc?ConditionalTermsAux -->
<g id="node3" class="node"><title>http://latin.omdoc.org/foundations/zfc?ConditionalTermsAux</title>
<a xlink:href="http://latin.omdoc.org/foundations/zfc?ConditionalTermsAux" class="graphtheory">
<ellipse fill="none" stroke="black" cx="294.794" cy="-92" rx="90.4879" ry="18"/>
<text text-anchor="middle" x="294.794" y="-88.3" font-family="Times New Roman,serif" font-size="14.00">ConditionalTermsAux</text>
</a>
</g>
<!-- http://latin.omdoc.org/foundations/zfc?ConditionalTerms&#45;&gt;http://latin.omdoc.org/foundations/zfc?ConditionalTermsAux -->
<g id="edge3" class="edge"><title>http://latin.omdoc.org/foundations/zfc?ConditionalTerms&#45;&gt;http://latin.omdoc.org/foundations/zfc?ConditionalTermsAux</title>
<a xlink:href="http://latin.omdoc.org/foundations/zfc?_C" class="graphview">
<path fill="none" stroke="black" d="M277.485,-161.807C276.632,-151.826 276.382,-139.076 278.794,-128 279.42,-125.123 280.305,-122.2 281.341,-119.332"/>
<polygon fill="black" stroke="black" points="284.641,-120.512 285.287,-109.936 278.187,-117.801 284.641,-120.512"/>
</a>
<a xlink:href="http://latin.omdoc.org/foundations/zfc?_C" class="_C">
<text text-anchor="middle" x="287.794" y="-132.3" font-family="Times New Roman,serif" font-size="14.00">_C</text>
</a>
</g>
<!-- http://latin.omdoc.org/foundations/zfc?TypedZF -->
<g id="node7" class="node"><title>http://latin.omdoc.org/foundations/zfc?TypedZF</title>
<a xlink:href="http://latin.omdoc.org/foundations/zfc?TypedZF" class="graphtheory">
<ellipse fill="gray" stroke="black" cx="68.7939" cy="-92" rx="45.244" ry="18"/>
<text text-anchor="middle" x="68.7939" y="-88.3" font-family="Times New Roman,serif" font-size="14.00">TypedZF</text>
</a>
</g>
<!-- http://latin.omdoc.org/foundations/zfc?ConditionalTerms&#45;&gt;http://latin.omdoc.org/foundations/zfc?TypedZF -->
<g id="edge7" class="edge"><title>http://latin.omdoc.org/foundations/zfc?ConditionalTerms&#45;&gt;http://latin.omdoc.org/foundations/zfc?TypedZF</title>
<a class="graphinclude">
<path fill="none" stroke="black" d="M243.041,-164.02C205.488,-148.714 147.353,-125.019 108.697,-109.264"/>
<polygon fill="black" stroke="black" points="109.894,-105.972 99.3131,-105.439 107.252,-112.455 109.894,-105.972"/>
</a>
</g>
<!-- http://latin.omdoc.org/foundations/zfc?If -->
<g id="node9" class="node"><title>http://latin.omdoc.org/foundations/zfc?If</title>
<a xlink:href="http://latin.omdoc.org/foundations/zfc?If" class="graphtheory">
<ellipse fill="gray" stroke="black" cx="158.794" cy="-92" rx="27" ry="18"/>
<text text-anchor="middle" x="158.794" y="-88.3" font-family="Times New Roman,serif" font-size="14.00">If</text>
</a>
</g>
<!-- http://latin.omdoc.org/foundations/zfc?ConditionalTerms&#45;&gt;http://latin.omdoc.org/foundations/zfc?If -->
<g id="edge9" class="edge"><title>http://latin.omdoc.org/foundations/zfc?ConditionalTerms&#45;&gt;http://latin.omdoc.org/foundations/zfc?If</title>
<a class="graphinclude">
<path fill="none" stroke="black" d="M265.396,-161.926C255.792,-151.254 242.459,-137.737 228.794,-128 213.901,-117.388 208.146,-118.188 191.794,-110 190.659,-109.432 189.504,-108.851 188.338,-108.262"/>
<polygon fill="black" stroke="black" points="189.852,-105.105 179.353,-103.683 186.674,-111.342 189.852,-105.105"/>
</a>
</g>
<!-- http://latin.omdoc.org/foundations/zfc?DisjUnion -->
<g id="node5" class="node"><title>http://latin.omdoc.org/foundations/zfc?DisjUnion</title>
<a xlink:href="http://latin.omdoc.org/foundations/zfc?DisjUnion" class="graphtheory">
<ellipse fill="gray" stroke="black" cx="62.7939" cy="-180" rx="46.1964" ry="18"/>
<text text-anchor="middle" x="62.7939" y="-176.3" font-family="Times New Roman,serif" font-size="14.00">DisjUnion</text>
</a>
</g>
<!-- http://latin.omdoc.org/foundations/zfc?DisjUnion&#45;&gt;http://latin.omdoc.org/foundations/zfc?ConditionalTerms -->
<g id="edge5" class="edge"><title>http://latin.omdoc.org/foundations/zfc?DisjUnion&#45;&gt;http://latin.omdoc.org/foundations/zfc?ConditionalTerms</title>
<a xlink:href="http://latin.omdoc.org/foundations/zfc?_DU" class="graphview">
<path fill="none" stroke="black" d="M109.346,-180C133.854,-180 164.704,-180 193.399,-180"/>
<polygon fill="black" stroke="black" points="193.445,-183.5 203.445,-180 193.445,-176.5 193.445,-183.5"/>
</a>
<a xlink:href="http://latin.omdoc.org/foundations/zfc?_DU" class="_DU">
<text text-anchor="middle" x="156.272" y="-186.8" font-family="Times New Roman,serif" font-size="14.00">_DU</text>
</a>
</g>
<!-- http://latin.omdoc.org/foundations/zfc?DisjUnion&#45;&gt;http://latin.omdoc.org/foundations/zfc?TypedZF -->
<g id="edge35" class="edge"><title>http://latin.omdoc.org/foundations/zfc?DisjUnion&#45;&gt;http://latin.omdoc.org/foundations/zfc?TypedZF</title>
<a class="graphinclude">
<path fill="none" stroke="black" d="M64.0081,-161.597C64.8349,-149.746 65.9462,-133.817 66.8898,-120.292"/>
<polygon fill="black" stroke="black" points="70.3974,-120.303 67.602,-110.084 63.4144,-119.816 70.3974,-120.303"/>
</a>
</g>
<!-- http://latin.omdoc.org/foundations/zfc?Powersets -->
<g id="node15" class="node"><title>http://latin.omdoc.org/foundations/zfc?Powersets</title>
<a xlink:href="http://latin.omdoc.org/foundations/zfc?Powersets" class="graphtheory">
<ellipse fill="gray" stroke="black" cx="294.794" cy="-18" rx="48.1437" ry="18"/>
<text text-anchor="middle" x="294.794" y="-14.3" font-family="Times New Roman,serif" font-size="14.00">Powersets</text>
</a>
</g>
<!-- http://latin.omdoc.org/foundations/zfc?TypedZF&#45;&gt;http://latin.omdoc.org/foundations/zfc?Powersets -->
<g id="edge33" class="edge"><title>http://latin.omdoc.org/foundations/zfc?TypedZF&#45;&gt;http://latin.omdoc.org/foundations/zfc?Powersets</title>
<a class="graphinclude">
<path fill="none" stroke="black" d="M95.8924,-77.38C104.381,-73.4063 113.866,-69.2605 122.794,-66 163.021,-51.3087 210,-38.7701 244.687,-30.348"/>
<polygon fill="black" stroke="black" points="245.672,-33.711 254.581,-27.9761 244.041,-26.9038 245.672,-33.711"/>
</a>
</g>
<!-- http://latin.omdoc.org/foundations/zfc?TypedZFBase -->
<g id="node11" class="node"><title>http://latin.omdoc.org/foundations/zfc?TypedZFBase</title>
<a xlink:href="http://latin.omdoc.org/foundations/zfc?TypedZFBase" class="graphtheory">
<ellipse fill="gray" stroke="black" cx="137.794" cy="-254" rx="63.0666" ry="18"/>
<text text-anchor="middle" x="137.794" y="-250.3" font-family="Times New Roman,serif" font-size="14.00">TypedZFBase</text>
</a>
</g>
<!-- http://latin.omdoc.org/foundations/zfc?TypedZFBase&#45;&gt;http://latin.omdoc.org/foundations/zfc?ConditionalTerms -->
<g id="edge11" class="edge"><title>http://latin.omdoc.org/foundations/zfc?TypedZFBase&#45;&gt;http://latin.omdoc.org/foundations/zfc?ConditionalTerms</title>
<a class="graphinclude">
<path fill="none" stroke="black" d="M167.216,-238.082C188.208,-227.438 216.685,-212.999 239.746,-201.306"/>
<polygon fill="black" stroke="black" points="241.599,-204.291 248.936,-196.647 238.434,-198.047 241.599,-204.291"/>
</a>
</g>
<!-- http://latin.omdoc.org/foundations/zfc?TypedZFBase&#45;&gt;http://latin.omdoc.org/foundations/zfc?DisjUnion -->
<g id="edge31" class="edge"><title>http://latin.omdoc.org/foundations/zfc?TypedZFBase&#45;&gt;http://latin.omdoc.org/foundations/zfc?DisjUnion</title>
<a class="graphinclude">
<path fill="none" stroke="black" d="M120.775,-236.662C110.732,-227.021 97.862,-214.665 86.7996,-204.046"/>
<polygon fill="black" stroke="black" points="89.1246,-201.426 79.4869,-197.025 84.2769,-206.475 89.1246,-201.426"/>
</a>
</g>
<!-- http://latin.omdoc.org/foundations/zfc?TypedZFBase&#45;&gt;http://latin.omdoc.org/foundations/zfc?TypedZF -->
<g id="edge29" class="edge"><title>http://latin.omdoc.org/foundations/zfc?TypedZFBase&#45;&gt;http://latin.omdoc.org/foundations/zfc?TypedZF</title>
<a class="graphinclude">
<path fill="none" stroke="black" d="M136.106,-235.93C133.786,-217.153 128.602,-186.404 117.794,-162 110.688,-145.955 99.5465,-129.862 89.6821,-117.259"/>
<polygon fill="black" stroke="black" points="92.1275,-114.716 83.1222,-109.135 86.6812,-119.114 92.1275,-114.716"/>
</a>
</g>
<!-- http://cds.omdoc.org/urtheories?LF -->
<g id="node13" class="node"><title>http://cds.omdoc.org/urtheories?LF</title>
<a xlink:href="http://cds.omdoc.org/urtheories?LF" class="graphtheory">
<ellipse fill="gray" stroke="black" cx="383.794" cy="-328" rx="27" ry="18"/>
<text text-anchor="middle" x="383.794" y="-324.3" font-family="Times New Roman,serif" font-size="14.00">LF</text>
</a>
</g>
<!-- http://cds.omdoc.org/urtheories?LF&#45;&gt;http://latin.omdoc.org/foundations/zfc?ConditionalTerms -->
<g id="edge13" class="edge"><title>http://cds.omdoc.org/urtheories?LF&#45;&gt;http://latin.omdoc.org/foundations/zfc?ConditionalTerms</title>
<a class="graphmeta">
<path fill="none" stroke="black" d="M372.664,-311.375C354.732,-286.201 319.281,-236.434 297.742,-206.196"/>
<polygon fill="black" stroke="black" points="300.453,-203.969 291.8,-197.855 294.751,-208.031 300.453,-203.969"/>
</a>
</g>
<!-- http://cds.omdoc.org/urtheories?LF&#45;&gt;http://latin.omdoc.org/foundations/zfc?ConditionalTermsAux -->
<g id="edge17" class="edge"><title>http://cds.omdoc.org/urtheories?LF&#45;&gt;http://latin.omdoc.org/foundations/zfc?ConditionalTermsAux</title>
<a class="graphmeta">
<path fill="none" stroke="black" d="M385.444,-309.573C387.639,-278.281 388.803,-211.246 364.794,-162 356.042,-144.049 340.663,-128.091 326.545,-116.054"/>
<polygon fill="black" stroke="black" points="328.398,-113.048 318.438,-109.435 323.971,-118.471 328.398,-113.048"/>
</a>
</g>
<!-- http://cds.omdoc.org/urtheories?LF&#45;&gt;http://latin.omdoc.org/foundations/zfc?DisjUnion -->
<g id="edge27" class="edge"><title>http://cds.omdoc.org/urtheories?LF&#45;&gt;http://latin.omdoc.org/foundations/zfc?DisjUnion</title>
<a class="graphmeta">
<path fill="none" stroke="black" d="M356.731,-326.514C286.95,-324.639 103.729,-315.581 65.7939,-272 50.7697,-254.74 51.7782,-227.9 55.4912,-207.835"/>
<polygon fill="black" stroke="black" points="58.9152,-208.561 57.6088,-198.047 52.0735,-207.081 58.9152,-208.561"/>
</a>
</g>
<!-- http://cds.omdoc.org/urtheories?LF&#45;&gt;http://latin.omdoc.org/foundations/zfc?TypedZF -->
<g id="edge23" class="edge"><title>http://cds.omdoc.org/urtheories?LF&#45;&gt;http://latin.omdoc.org/foundations/zfc?TypedZF</title>
<a class="graphmeta">
<path fill="none" stroke="black" d="M356.799,-326.129C285.693,-323.294 95.5662,-312.055 49.7939,-272 10.292,-237.432 -11.9923,-211.015 6.7939,-162 13.7801,-143.772 28.0501,-127.337 41.1401,-115.083"/>
<polygon fill="black" stroke="black" points="43.5263,-117.644 48.647,-108.369 38.8599,-112.427 43.5263,-117.644"/>
</a>
</g>
<!-- http://cds.omdoc.org/urtheories?LF&#45;&gt;http://latin.omdoc.org/foundations/zfc?If -->
<g id="edge21" class="edge"><title>http://cds.omdoc.org/urtheories?LF&#45;&gt;http://latin.omdoc.org/foundations/zfc?If</title>
<a class="graphmeta">
<path fill="none" stroke="black" d="M360.439,-318.69C319.92,-303.07 236.641,-265.448 191.794,-206 172.71,-180.702 164.637,-144.595 161.238,-120.053"/>
<polygon fill="black" stroke="black" points="164.696,-119.495 160.016,-109.99 157.748,-120.339 164.696,-119.495"/>
</a>
</g>
<!-- http://cds.omdoc.org/urtheories?LF&#45;&gt;http://latin.omdoc.org/foundations/zfc?TypedZFBase -->
<g id="edge19" class="edge"><title>http://cds.omdoc.org/urtheories?LF&#45;&gt;http://latin.omdoc.org/foundations/zfc?TypedZFBase</title>
<a class="graphmeta">
<path fill="none" stroke="black" d="M357.504,-323.585C323.814,-318.751 263.898,-308.605 214.794,-292 201.247,-287.419 186.981,-281.04 174.46,-274.867"/>
<polygon fill="black" stroke="black" points="175.77,-271.607 165.266,-270.22 172.612,-277.855 175.77,-271.607"/>
</a>
</g>
<!-- http://cds.omdoc.org/urtheories?LF&#45;&gt;http://latin.omdoc.org/foundations/zfc?Powersets -->
<g id="edge25" class="edge"><title>http://cds.omdoc.org/urtheories?LF&#45;&gt;http://latin.omdoc.org/foundations/zfc?Powersets</title>
<a class="graphmeta">
<path fill="none" stroke="black" d="M397.084,-312.184C408.043,-298.4 421.794,-276.767 421.794,-255 421.794,-255 421.794,-255 421.794,-91 421.794,-55.3595 383.475,-37.1491 348.934,-27.9739"/>
<polygon fill="black" stroke="black" points="349.401,-24.4851 338.856,-25.5128 347.74,-31.2853 349.401,-24.4851"/>
</a>
</g>
<!-- http://latin.omdoc.org/foundations/zfc?Powersets&#45;&gt;http://latin.omdoc.org/foundations/zfc?ConditionalTermsAux -->
<g id="edge15" class="edge"><title>http://latin.omdoc.org/foundations/zfc?Powersets&#45;&gt;http://latin.omdoc.org/foundations/zfc?ConditionalTermsAux</title>
<a class="graphinclude">
<path fill="none" stroke="black" d="M294.794,-36.4407C294.794,-44.6255 294.794,-54.572 294.794,-63.7193"/>
<polygon fill="black" stroke="black" points="291.294,-63.937 294.794,-73.937 298.294,-63.937 291.294,-63.937"/>
</a>
</g>
</g>
</svg>
