<?xml version="1.0" encoding="UTF-8" standalone="no"?>
<!DOCTYPE svg PUBLIC "-//W3C//DTD SVG 1.1//EN"
 "http://www.w3.org/Graphics/SVG/1.1/DTD/svg11.dtd">
<!-- Generated by graphviz version 2.28.0 (20110507.0327)
 -->
<!-- Title: MMT Pages: 1 -->
<svg width="1167pt" height="456pt"
 viewBox="0.00 0.00 1167.00 456.00" xmlns="http://www.w3.org/2000/svg" xmlns:xlink="http://www.w3.org/1999/xlink">
<g id="graph1" class="graph" transform="scale(1 1) rotate(0) translate(4 452)">
<title>MMT</title>
<polygon fill="white" stroke="white" points="-4,5 -4,-452 1164,-452 1164,5 -4,5"/>
<g id="graph2" class="cluster"><title>cluster_local</title>
<polygon fill="none" stroke="black" points="375,-242 375,-382 557,-382 557,-242 375,-242"/>
</g>
<!-- http://latin.omdoc.org/foundations/zfc?ExistentialQuantifier -->
<g id="node2" class="node"><title>http://latin.omdoc.org/foundations/zfc?ExistentialQuantifier</title>
<a xlink:href="http://latin.omdoc.org/foundations/zfc?ExistentialQuantifier" class="graphtheory">
<ellipse fill="none" stroke="black" cx="466" cy="-356" rx="83.2892" ry="18"/>
<text text-anchor="middle" x="466" y="-352.3" font-family="Times New Roman,serif" font-size="14.00">ExistentialQuantifier</text>
</a>
</g>
<!-- http://latin.omdoc.org/foundations/zfc?TypedZFBase -->
<g id="node3" class="node"><title>http://latin.omdoc.org/foundations/zfc?TypedZFBase</title>
<a xlink:href="http://latin.omdoc.org/foundations/zfc?TypedZFBase" class="graphtheory">
<ellipse fill="none" stroke="black" cx="446" cy="-268" rx="63.0666" ry="18"/>
<text text-anchor="middle" x="446" y="-264.3" font-family="Times New Roman,serif" font-size="14.00">TypedZFBase</text>
</a>
</g>
<!-- http://latin.omdoc.org/foundations/zfc?ExistentialQuantifier&#45;&gt;http://latin.omdoc.org/foundations/zfc?TypedZFBase -->
<g id="edge3" class="edge"><title>http://latin.omdoc.org/foundations/zfc?ExistentialQuantifier&#45;&gt;http://latin.omdoc.org/foundations/zfc?TypedZFBase</title>
<a xlink:href="http://latin.omdoc.org/foundations/zfc?_EQ" class="graphview">
<path fill="none" stroke="black" d="M454.6,-337.883C451.537,-332.399 448.626,-326.15 447,-320 445.008,-312.466 444.267,-304.085 444.153,-296.33"/>
<polygon fill="black" stroke="black" points="447.653,-296.34 444.327,-286.281 440.654,-296.219 447.653,-296.34"/>
</a>
<a xlink:href="http://latin.omdoc.org/foundations/zfc?_EQ" class="_EQ">
<text text-anchor="middle" x="460.5" y="-308.3" font-family="Times New Roman,serif" font-size="14.00">_EQ</text>
</a>
</g>
<!-- http://latin.omdoc.org/foundations/zfc?TypedZF -->
<g id="node5" class="node"><title>http://latin.omdoc.org/foundations/zfc?TypedZF</title>
<a xlink:href="http://latin.omdoc.org/foundations/zfc?TypedZF" class="graphtheory">
<ellipse fill="gray" stroke="black" cx="583" cy="-18" rx="45.244" ry="18"/>
<text text-anchor="middle" x="583" y="-14.3" font-family="Times New Roman,serif" font-size="14.00">TypedZF</text>
</a>
</g>
<!-- http://latin.omdoc.org/foundations/zfc?ExistentialQuantifier&#45;&gt;http://latin.omdoc.org/foundations/zfc?TypedZF -->
<g id="edge5" class="edge"><title>http://latin.omdoc.org/foundations/zfc?ExistentialQuantifier&#45;&gt;http://latin.omdoc.org/foundations/zfc?TypedZF</title>
<a class="graphinclude">
<path fill="none" stroke="black" d="M483.746,-337.988C511.327,-312.617 567.24,-265.357 624,-242 649.812,-231.378 659.044,-239.241 686,-232 726.894,-221.016 750.988,-232.877 775,-198 816.037,-138.394 763.673,-86.4698 699,-54 677.983,-43.4484 653.201,-35.4378 631.949,-29.7612"/>
<polygon fill="black" stroke="black" points="632.704,-26.3414 622.147,-27.239 630.959,-33.1206 632.704,-26.3414"/>
</a>
</g>
<!-- http://latin.omdoc.org/foundations/zfc?TypedZFBase&#45;&gt;http://latin.omdoc.org/foundations/zfc?ExistentialQuantifier -->
<g id="edge7" class="edge"><title>http://latin.omdoc.org/foundations/zfc?TypedZFBase&#45;&gt;http://latin.omdoc.org/foundations/zfc?ExistentialQuantifier</title>
<a class="graphinclude">
<path fill="none" stroke="black" d="M462.833,-285.371C467.348,-290.824 471.63,-297.245 474,-304 476.64,-311.527 476.478,-319.984 475.142,-327.816"/>
<polygon fill="black" stroke="black" points="471.719,-327.084 472.848,-337.619 478.535,-328.68 471.719,-327.084"/>
</a>
</g>
<!-- http://latin.omdoc.org/foundations/isabelle?NesetZFC -->
<g id="node10" class="node"><title>http://latin.omdoc.org/foundations/isabelle?NesetZFC</title>
<a xlink:href="http://latin.omdoc.org/foundations/isabelle?NesetZFC" class="graphtheory">
<ellipse fill="gray" stroke="black" cx="978" cy="-180" rx="48.1437" ry="18"/>
<text text-anchor="middle" x="978" y="-176.3" font-family="Times New Roman,serif" font-size="14.00">NesetZFC</text>
</a>
</g>
<!-- http://latin.omdoc.org/foundations/zfc?TypedZFBase&#45;&gt;http://latin.omdoc.org/foundations/isabelle?NesetZFC -->
<g id="edge11" class="edge"><title>http://latin.omdoc.org/foundations/zfc?TypedZFBase&#45;&gt;http://latin.omdoc.org/foundations/isabelle?NesetZFC</title>
<a class="graphinclude">
<path fill="none" stroke="black" d="M478.814,-252.524C489.513,-248.413 501.58,-244.404 513,-242 588.366,-226.138 609.494,-240.862 686,-232 771.116,-222.14 869.036,-203.532 927.098,-191.726"/>
<polygon fill="black" stroke="black" points="928.018,-195.11 937.114,-189.677 926.615,-188.252 928.018,-195.11"/>
</a>
</g>
<!-- http://latin.omdoc.org/foundations/zfc?UniversalQuantifier -->
<g id="node21" class="node"><title>http://latin.omdoc.org/foundations/zfc?UniversalQuantifier</title>
<a xlink:href="http://latin.omdoc.org/foundations/zfc?UniversalQuantifier" class="graphtheory">
<ellipse fill="gray" stroke="black" cx="1051" cy="-268" rx="79.4147" ry="18"/>
<text text-anchor="middle" x="1051" y="-264.3" font-family="Times New Roman,serif" font-size="14.00">UniversalQuantifier</text>
</a>
</g>
<!-- http://latin.omdoc.org/foundations/zfc?TypedZFBase&#45;&gt;http://latin.omdoc.org/foundations/zfc?UniversalQuantifier -->
<g id="edge25" class="edge"><title>http://latin.omdoc.org/foundations/zfc?TypedZFBase&#45;&gt;http://latin.omdoc.org/foundations/zfc?UniversalQuantifier</title>
<a class="graphinclude">
<path fill="none" stroke="black" d="M468.212,-285.069C482.668,-295.069 502.417,-306.74 522,-312 689.148,-356.894 895.745,-312.241 993.96,-285.263"/>
<polygon fill="black" stroke="black" points="994.997,-288.608 1003.69,-282.55 993.117,-281.865 994.997,-288.608"/>
</a>
</g>
<!-- http://latin.omdoc.org/foundations/zfc?BigInter -->
<g id="node24" class="node"><title>http://latin.omdoc.org/foundations/zfc?BigInter</title>
<a xlink:href="http://latin.omdoc.org/foundations/zfc?BigInter" class="graphtheory">
<ellipse fill="gray" stroke="black" cx="568" cy="-180" rx="39.4691" ry="18"/>
<text text-anchor="middle" x="568" y="-176.3" font-family="Times New Roman,serif" font-size="14.00">BigInter</text>
</a>
</g>
<!-- http://latin.omdoc.org/foundations/zfc?TypedZFBase&#45;&gt;http://latin.omdoc.org/foundations/zfc?BigInter -->
<g id="edge27" class="edge"><title>http://latin.omdoc.org/foundations/zfc?TypedZFBase&#45;&gt;http://latin.omdoc.org/foundations/zfc?BigInter</title>
<a class="graphinclude">
<path fill="none" stroke="black" d="M478.561,-252.567C490.162,-246.832 503.055,-239.749 514,-232 525.46,-223.886 536.941,-213.447 546.352,-204.13"/>
<polygon fill="black" stroke="black" points="548.888,-206.543 553.415,-196.963 543.902,-201.629 548.888,-206.543"/>
</a>
</g>
<!-- http://latin.omdoc.org/foundations/zfc?DisjUnion -->
<g id="node26" class="node"><title>http://latin.omdoc.org/foundations/zfc?DisjUnion</title>
<a xlink:href="http://latin.omdoc.org/foundations/zfc?DisjUnion" class="graphtheory">
<ellipse fill="gray" stroke="black" cx="76" cy="-180" rx="46.1964" ry="18"/>
<text text-anchor="middle" x="76" y="-176.3" font-family="Times New Roman,serif" font-size="14.00">DisjUnion</text>
</a>
</g>
<!-- http://latin.omdoc.org/foundations/zfc?TypedZFBase&#45;&gt;http://latin.omdoc.org/foundations/zfc?DisjUnion -->
<g id="edge29" class="edge"><title>http://latin.omdoc.org/foundations/zfc?TypedZFBase&#45;&gt;http://latin.omdoc.org/foundations/zfc?DisjUnion</title>
<a class="graphinclude">
<path fill="none" stroke="black" d="M413.193,-252.493C402.494,-248.379 390.426,-244.377 379,-242 297.081,-224.956 272.368,-251.506 191,-232 162.567,-225.184 132.422,-211.55 110.132,-200.092"/>
<polygon fill="black" stroke="black" points="111.568,-196.893 101.087,-195.341 108.313,-203.09 111.568,-196.893"/>
</a>
</g>
<!-- http://latin.omdoc.org/foundations/zfc?PredSubTypes -->
<g id="node28" class="node"><title>http://latin.omdoc.org/foundations/zfc?PredSubTypes</title>
<a xlink:href="http://latin.omdoc.org/foundations/zfc?PredSubTypes" class="graphtheory">
<ellipse fill="gray" stroke="black" cx="406" cy="-180" rx="65.4659" ry="18"/>
<text text-anchor="middle" x="406" y="-176.3" font-family="Times New Roman,serif" font-size="14.00">PredSubTypes</text>
</a>
</g>
<!-- http://latin.omdoc.org/foundations/zfc?TypedZFBase&#45;&gt;http://latin.omdoc.org/foundations/zfc?PredSubTypes -->
<g id="edge33" class="edge"><title>http://latin.omdoc.org/foundations/zfc?TypedZFBase&#45;&gt;http://latin.omdoc.org/foundations/zfc?PredSubTypes</title>
<a class="graphinclude">
<path fill="none" stroke="black" d="M432.969,-250.174C429.068,-244.602 425.028,-238.229 422,-232 418.291,-224.372 415.191,-215.689 412.738,-207.677"/>
<polygon fill="black" stroke="black" points="416.091,-206.672 409.979,-198.018 409.36,-208.594 416.091,-206.672"/>
</a>
</g>
<!-- http://latin.omdoc.org/foundations/zfc?ImageTypes -->
<g id="node31" class="node"><title>http://latin.omdoc.org/foundations/zfc?ImageTypes</title>
<a xlink:href="http://latin.omdoc.org/foundations/zfc?ImageTypes" class="graphtheory">
<ellipse fill="gray" stroke="black" cx="640" cy="-92" rx="55.3436" ry="18"/>
<text text-anchor="middle" x="640" y="-88.3" font-family="Times New Roman,serif" font-size="14.00">ImageTypes</text>
</a>
</g>
<!-- http://latin.omdoc.org/foundations/zfc?TypedZFBase&#45;&gt;http://latin.omdoc.org/foundations/zfc?ImageTypes -->
<g id="edge37" class="edge"><title>http://latin.omdoc.org/foundations/zfc?TypedZFBase&#45;&gt;http://latin.omdoc.org/foundations/zfc?ImageTypes</title>
<a class="graphinclude">
<path fill="none" stroke="black" d="M454.689,-249.991C466.743,-227.659 490.328,-188.22 519,-162 542.34,-140.655 573.415,-123.11 598.229,-111.054"/>
<polygon fill="black" stroke="black" points="599.866,-114.151 607.403,-106.705 596.868,-107.826 599.866,-114.151"/>
</a>
</g>
<!-- http://latin.omdoc.org/foundations/zfc?Products -->
<g id="node34" class="node"><title>http://latin.omdoc.org/foundations/zfc?Products</title>
<a xlink:href="http://latin.omdoc.org/foundations/zfc?Products" class="graphtheory">
<ellipse fill="gray" stroke="black" cx="278" cy="-180" rx="44.2946" ry="18"/>
<text text-anchor="middle" x="278" y="-176.3" font-family="Times New Roman,serif" font-size="14.00">Products</text>
</a>
</g>
<!-- http://latin.omdoc.org/foundations/zfc?TypedZFBase&#45;&gt;http://latin.omdoc.org/foundations/zfc?Products -->
<g id="edge41" class="edge"><title>http://latin.omdoc.org/foundations/zfc?TypedZFBase&#45;&gt;http://latin.omdoc.org/foundations/zfc?Products</title>
<a class="graphinclude">
<path fill="none" stroke="black" d="M410.386,-253.062C400.302,-249.293 389.273,-245.337 379,-242 363.206,-236.87 357.819,-239.493 343,-232 328.231,-224.533 313.572,-213.438 301.923,-203.501"/>
<polygon fill="black" stroke="black" points="304.197,-200.84 294.376,-196.866 299.575,-206.097 304.197,-200.84"/>
</a>
</g>
<!-- http://latin.omdoc.org/foundations/zfc?ConditionalTerms -->
<g id="node37" class="node"><title>http://latin.omdoc.org/foundations/zfc?ConditionalTerms</title>
<a xlink:href="http://latin.omdoc.org/foundations/zfc?ConditionalTerms" class="graphtheory">
<ellipse fill="gray" stroke="black" cx="76" cy="-92" rx="76.0649" ry="18"/>
<text text-anchor="middle" x="76" y="-88.3" font-family="Times New Roman,serif" font-size="14.00">ConditionalTerms</text>
</a>
</g>
<!-- http://latin.omdoc.org/foundations/zfc?TypedZFBase&#45;&gt;http://latin.omdoc.org/foundations/zfc?ConditionalTerms -->
<g id="edge43" class="edge"><title>http://latin.omdoc.org/foundations/zfc?TypedZFBase&#45;&gt;http://latin.omdoc.org/foundations/zfc?ConditionalTerms</title>
<a class="graphinclude">
<path fill="none" stroke="black" d="M412,-252.797C401.555,-248.848 389.93,-244.861 379,-242 351.149,-234.708 342.836,-239.348 315,-232 273.657,-221.086 262.777,-218.031 225,-198 180.214,-174.253 133.136,-139.113 104.171,-116.135"/>
<polygon fill="black" stroke="black" points="106.136,-113.226 96.1419,-109.709 101.762,-118.691 106.136,-113.226"/>
</a>
</g>
<!-- http://latin.omdoc.org/foundations/zfc?BigUnion -->
<g id="node39" class="node"><title>http://latin.omdoc.org/foundations/zfc?BigUnion</title>
<a xlink:href="http://latin.omdoc.org/foundations/zfc?BigUnion" class="graphtheory">
<ellipse fill="gray" stroke="black" cx="722" cy="-180" rx="44.271" ry="18"/>
<text text-anchor="middle" x="722" y="-176.3" font-family="Times New Roman,serif" font-size="14.00">BigUnion</text>
</a>
</g>
<!-- http://latin.omdoc.org/foundations/zfc?TypedZFBase&#45;&gt;http://latin.omdoc.org/foundations/zfc?BigUnion -->
<g id="edge45" class="edge"><title>http://latin.omdoc.org/foundations/zfc?TypedZFBase&#45;&gt;http://latin.omdoc.org/foundations/zfc?BigUnion</title>
<a class="graphinclude">
<path fill="none" stroke="black" d="M478.83,-252.6C489.53,-248.493 501.593,-244.467 513,-242 576.138,-228.345 597.794,-255.41 658,-232 673.493,-225.976 688.192,-214.805 699.588,-204.451"/>
<polygon fill="black" stroke="black" points="702.079,-206.912 706.918,-197.486 697.258,-201.837 702.079,-206.912"/>
</a>
</g>
<!-- http://cds.omdoc.org/urtheories?LF -->
<g id="node8" class="node"><title>http://cds.omdoc.org/urtheories?LF</title>
<a xlink:href="http://cds.omdoc.org/urtheories?LF" class="graphtheory">
<ellipse fill="gray" stroke="black" cx="153" cy="-430" rx="27" ry="18"/>
<text text-anchor="middle" x="153" y="-426.3" font-family="Times New Roman,serif" font-size="14.00">LF</text>
</a>
</g>
<!-- http://cds.omdoc.org/urtheories?LF&#45;&gt;http://latin.omdoc.org/foundations/zfc?ExistentialQuantifier -->
<g id="edge9" class="edge"><title>http://cds.omdoc.org/urtheories?LF&#45;&gt;http://latin.omdoc.org/foundations/zfc?ExistentialQuantifier</title>
<a class="graphmeta">
<path fill="none" stroke="black" d="M178.901,-424.267C221.054,-416.417 307.028,-399.798 379,-382 389.058,-379.513 399.706,-376.648 409.972,-373.766"/>
<polygon fill="black" stroke="black" points="411.006,-377.111 419.667,-371.009 409.091,-370.378 411.006,-377.111"/>
</a>
</g>
<!-- http://cds.omdoc.org/urtheories?LF&#45;&gt;http://latin.omdoc.org/foundations/zfc?TypedZFBase -->
<g id="edge49" class="edge"><title>http://cds.omdoc.org/urtheories?LF&#45;&gt;http://latin.omdoc.org/foundations/zfc?TypedZFBase</title>
<a class="graphmeta">
<path fill="none" stroke="black" d="M152.378,-411.952C152.403,-383.273 157.322,-326.323 194,-304 229.284,-282.525 338.309,-293.1 379,-286 383.374,-285.237 387.883,-284.339 392.397,-283.362"/>
<polygon fill="black" stroke="black" points="393.266,-286.754 402.236,-281.116 391.708,-279.929 393.266,-286.754"/>
</a>
</g>
<!-- http://cds.omdoc.org/urtheories?LF&#45;&gt;http://latin.omdoc.org/foundations/zfc?TypedZF -->
<g id="edge95" class="edge"><title>http://cds.omdoc.org/urtheories?LF&#45;&gt;http://latin.omdoc.org/foundations/zfc?TypedZF</title>
<a class="graphmeta">
<path fill="none" stroke="black" d="M180.168,-428.516C340.777,-425.48 1159,-407.533 1159,-357 1159,-357 1159,-357 1159,-91 1159,-38.8916 783.037,-23.9853 638.597,-20.1813"/>
<polygon fill="black" stroke="black" points="638.284,-16.6722 628.198,-19.9161 638.105,-23.67 638.284,-16.6722"/>
</a>
</g>
<!-- http://cds.omdoc.org/urtheories?LF&#45;&gt;http://latin.omdoc.org/foundations/isabelle?NesetZFC -->
<g id="edge107" class="edge"><title>http://cds.omdoc.org/urtheories?LF&#45;&gt;http://latin.omdoc.org/foundations/isabelle?NesetZFC</title>
<a class="graphmeta">
<path fill="none" stroke="black" d="M179.997,-428.649C312.575,-426.814 889.53,-417.498 919,-394 920.867,-392.512 955.52,-264.491 970.83,-207.663"/>
<polygon fill="black" stroke="black" points="974.231,-208.493 973.451,-197.927 967.472,-206.673 974.231,-208.493"/>
</a>
</g>
<!-- http://latin.omdoc.org/foundations/zfc?Curry -->
<g id="node12" class="node"><title>http://latin.omdoc.org/foundations/zfc?Curry</title>
<a xlink:href="http://latin.omdoc.org/foundations/zfc?Curry" class="graphtheory">
<ellipse fill="gray" stroke="black" cx="213" cy="-356" rx="31.2735" ry="18"/>
<text text-anchor="middle" x="213" y="-352.3" font-family="Times New Roman,serif" font-size="14.00">Curry</text>
</a>
</g>
<!-- http://cds.omdoc.org/urtheories?LF&#45;&gt;http://latin.omdoc.org/foundations/zfc?Curry -->
<g id="edge105" class="edge"><title>http://cds.omdoc.org/urtheories?LF&#45;&gt;http://latin.omdoc.org/foundations/zfc?Curry</title>
<a class="graphmeta">
<path fill="none" stroke="black" d="M165.724,-413.731C173.729,-404.125 184.222,-391.534 193.289,-380.654"/>
<polygon fill="black" stroke="black" points="196.166,-382.668 199.879,-372.745 190.788,-378.187 196.166,-382.668"/>
</a>
</g>
<!-- http://latin.omdoc.org/type_theories?VOID -->
<g id="node15" class="node"><title>http://latin.omdoc.org/type_theories?VOID</title>
<a xlink:href="http://latin.omdoc.org/type_theories?VOID" class="graphtheory">
<ellipse fill="gray" stroke="black" cx="666" cy="-268" rx="33.2209" ry="18"/>
<text text-anchor="middle" x="666" y="-264.3" font-family="Times New Roman,serif" font-size="14.00">VOID</text>
</a>
</g>
<!-- http://cds.omdoc.org/urtheories?LF&#45;&gt;http://latin.omdoc.org/type_theories?VOID -->
<g id="edge91" class="edge"><title>http://cds.omdoc.org/urtheories?LF&#45;&gt;http://latin.omdoc.org/type_theories?VOID</title>
<a class="graphmeta">
<path fill="none" stroke="black" d="M180.054,-429.477C261.408,-430.371 501.848,-428.904 561,-382 589.861,-359.115 564.045,-331.09 589,-304 599.087,-293.05 613.263,-285.283 626.706,-279.896"/>
<polygon fill="black" stroke="black" points="628.11,-283.109 636.296,-276.383 625.702,-276.536 628.11,-283.109"/>
</a>
</g>
<!-- http://latin.omdoc.org/type_theories?TypesTerms -->
<g id="node17" class="node"><title>http://latin.omdoc.org/type_theories?TypesTerms</title>
<a xlink:href="http://latin.omdoc.org/type_theories?TypesTerms" class="graphtheory">
<ellipse fill="gray" stroke="black" cx="681" cy="-356" rx="57.2927" ry="18"/>
<text text-anchor="middle" x="681" y="-352.3" font-family="Times New Roman,serif" font-size="14.00">TypesTerms</text>
</a>
</g>
<!-- http://cds.omdoc.org/urtheories?LF&#45;&gt;http://latin.omdoc.org/type_theories?TypesTerms -->
<g id="edge81" class="edge"><title>http://cds.omdoc.org/urtheories?LF&#45;&gt;http://latin.omdoc.org/type_theories?TypesTerms</title>
<a class="graphmeta">
<path fill="none" stroke="black" d="M180.106,-427.934C263.004,-424.499 512.267,-412.842 591,-394 608.552,-389.8 627.127,-382.662 642.816,-375.77"/>
<polygon fill="black" stroke="black" points="644.505,-378.847 652.176,-371.538 641.622,-372.468 644.505,-378.847"/>
</a>
</g>
<!-- http://latin.omdoc.org/type_theories?UNIT -->
<g id="node19" class="node"><title>http://latin.omdoc.org/type_theories?UNIT</title>
<a xlink:href="http://latin.omdoc.org/type_theories?UNIT" class="graphtheory">
<ellipse fill="gray" stroke="black" cx="769" cy="-268" rx="32.2457" ry="18"/>
<text text-anchor="middle" x="769" y="-264.3" font-family="Times New Roman,serif" font-size="14.00">UNIT</text>
</a>
</g>
<!-- http://cds.omdoc.org/urtheories?LF&#45;&gt;http://latin.omdoc.org/type_theories?UNIT -->
<g id="edge83" class="edge"><title>http://cds.omdoc.org/urtheories?LF&#45;&gt;http://latin.omdoc.org/type_theories?UNIT</title>
<a class="graphmeta">
<path fill="none" stroke="black" d="M180.136,-428.757C290.835,-427.512 704.414,-420.313 747,-382 770.637,-360.735 773.393,-322.263 772.091,-296.181"/>
<polygon fill="black" stroke="black" points="775.581,-295.904 771.366,-286.184 768.599,-296.411 775.581,-295.904"/>
</a>
</g>
<!-- http://cds.omdoc.org/urtheories?LF&#45;&gt;http://latin.omdoc.org/foundations/zfc?UniversalQuantifier -->
<g id="edge93" class="edge"><title>http://cds.omdoc.org/urtheories?LF&#45;&gt;http://latin.omdoc.org/foundations/zfc?UniversalQuantifier</title>
<a class="graphmeta">
<path fill="none" stroke="black" d="M180.218,-429.184C312.758,-429.897 887.078,-430.826 957,-394 997.363,-372.742 1025.23,-325.548 1039.62,-295.617"/>
<polygon fill="black" stroke="black" points="1042.96,-296.736 1043.99,-286.191 1036.61,-293.796 1042.96,-296.736"/>
</a>
</g>
<!-- http://cds.omdoc.org/urtheories?LF&#45;&gt;http://latin.omdoc.org/foundations/zfc?BigInter -->
<g id="edge87" class="edge"><title>http://cds.omdoc.org/urtheories?LF&#45;&gt;http://latin.omdoc.org/foundations/zfc?BigInter</title>
<a class="graphmeta">
<path fill="none" stroke="black" d="M179.909,-428.322C279.643,-425.663 628.048,-415.045 737,-394 753.559,-390.801 758.925,-391.291 773,-382 803.741,-361.707 814.927,-354.437 828,-320 837.486,-295.011 822.295,-253.533 810,-242 744.253,-180.325 698.287,-224.096 612,-198 610.06,-197.413 608.084,-196.781 606.097,-196.118"/>
<polygon fill="black" stroke="black" points="606.78,-192.647 596.185,-192.607 604.443,-199.245 606.78,-192.647"/>
</a>
</g>
<!-- http://cds.omdoc.org/urtheories?LF&#45;&gt;http://latin.omdoc.org/foundations/zfc?DisjUnion -->
<g id="edge103" class="edge"><title>http://cds.omdoc.org/urtheories?LF&#45;&gt;http://latin.omdoc.org/foundations/zfc?DisjUnion</title>
<a class="graphmeta">
<path fill="none" stroke="black" d="M126.366,-426.573C105.278,-423.091 77.1037,-414.617 63,-394 24.1733,-337.241 48.4856,-250.81 64.7885,-207.576"/>
<polygon fill="black" stroke="black" points="68.1321,-208.636 68.5183,-198.048 61.6137,-206.084 68.1321,-208.636"/>
</a>
</g>
<!-- http://cds.omdoc.org/urtheories?LF&#45;&gt;http://latin.omdoc.org/foundations/zfc?PredSubTypes -->
<g id="edge79" class="edge"><title>http://cds.omdoc.org/urtheories?LF&#45;&gt;http://latin.omdoc.org/foundations/zfc?PredSubTypes</title>
<a class="graphmeta">
<path fill="none" stroke="black" d="M151.242,-411.929C150.735,-406.234 150.25,-399.849 150,-394 148.936,-369.13 143.486,-361.732 151,-338 156.507,-320.607 160.427,-316.19 174,-304 229.169,-254.453 307.891,-218.212 357.964,-198.371"/>
<polygon fill="black" stroke="black" points="359.535,-201.516 367.581,-194.623 356.993,-194.993 359.535,-201.516"/>
</a>
</g>
<!-- http://cds.omdoc.org/urtheories?LF&#45;&gt;http://latin.omdoc.org/foundations/zfc?ImageTypes -->
<g id="edge99" class="edge"><title>http://cds.omdoc.org/urtheories?LF&#45;&gt;http://latin.omdoc.org/foundations/zfc?ImageTypes</title>
<a class="graphmeta">
<path fill="none" stroke="black" d="M180.336,-429.081C302.39,-429.189 793.748,-426.82 844,-382 890.668,-340.377 886.979,-297.412 858,-242 822.2,-173.545 739.073,-130.651 686.437,-109.327"/>
<polygon fill="black" stroke="black" points="687.568,-106.011 676.982,-105.595 684.998,-112.522 687.568,-106.011"/>
</a>
</g>
<!-- http://cds.omdoc.org/urtheories?LF&#45;&gt;http://latin.omdoc.org/foundations/zfc?Products -->
<g id="edge101" class="edge"><title>http://cds.omdoc.org/urtheories?LF&#45;&gt;http://latin.omdoc.org/foundations/zfc?Products</title>
<a class="graphmeta">
<path fill="none" stroke="black" d="M130.301,-419.903C119.341,-414.217 107.239,-405.719 101,-394 82.162,-358.613 87.8013,-339.193 107,-304 135.596,-251.581 197.279,-215.992 238.208,-197.088"/>
<polygon fill="black" stroke="black" points="239.681,-200.264 247.37,-192.975 236.813,-193.878 239.681,-200.264"/>
</a>
</g>
<!-- http://cds.omdoc.org/urtheories?LF&#45;&gt;http://latin.omdoc.org/foundations/zfc?ConditionalTerms -->
<g id="edge89" class="edge"><title>http://cds.omdoc.org/urtheories?LF&#45;&gt;http://latin.omdoc.org/foundations/zfc?ConditionalTerms</title>
<a class="graphmeta">
<path fill="none" stroke="black" d="M125.825,-428.028C82.1049,-424.853 1,-411.603 1,-357 1,-357 1,-357 1,-179 1,-152.652 21.2435,-130.469 40.6961,-115.234"/>
<polygon fill="black" stroke="black" points="42.9718,-117.904 48.9233,-109.139 38.8047,-112.28 42.9718,-117.904"/>
</a>
</g>
<!-- http://cds.omdoc.org/urtheories?LF&#45;&gt;http://latin.omdoc.org/foundations/zfc?BigUnion -->
<g id="edge85" class="edge"><title>http://cds.omdoc.org/urtheories?LF&#45;&gt;http://latin.omdoc.org/foundations/zfc?BigUnion</title>
<a class="graphmeta">
<path fill="none" stroke="black" d="M180.053,-428.789C297.569,-427.644 760.121,-420.693 811,-382 861.192,-343.831 866.362,-296.119 834,-242 819.718,-218.116 792.464,-202.981 768.417,-193.761"/>
<polygon fill="black" stroke="black" points="769.298,-190.358 758.703,-190.279 766.936,-196.948 769.298,-190.358"/>
</a>
</g>
<!-- http://latin.omdoc.org/foundations/zfc?Operations -->
<g id="node41" class="node"><title>http://latin.omdoc.org/foundations/zfc?Operations</title>
<a xlink:href="http://latin.omdoc.org/foundations/zfc?Operations" class="graphtheory">
<ellipse fill="gray" stroke="black" cx="314" cy="-356" rx="50.5427" ry="18"/>
<text text-anchor="middle" x="314" y="-352.3" font-family="Times New Roman,serif" font-size="14.00">Operations</text>
</a>
</g>
<!-- http://cds.omdoc.org/urtheories?LF&#45;&gt;http://latin.omdoc.org/foundations/zfc?Operations -->
<g id="edge97" class="edge"><title>http://cds.omdoc.org/urtheories?LF&#45;&gt;http://latin.omdoc.org/foundations/zfc?Operations</title>
<a class="graphmeta">
<path fill="none" stroke="black" d="M174.713,-419.29C200.227,-407.88 243.063,-388.723 274.509,-374.661"/>
<polygon fill="black" stroke="black" points="276.171,-377.752 283.871,-370.474 273.313,-371.361 276.171,-377.752"/>
</a>
</g>
<!-- http://latin.omdoc.org/foundations/zfc?Curry&#45;&gt;http://latin.omdoc.org/foundations/zfc?TypedZFBase -->
<g id="edge13" class="edge"><title>http://latin.omdoc.org/foundations/zfc?Curry&#45;&gt;http://latin.omdoc.org/foundations/zfc?TypedZFBase</title>
<a xlink:href="http://latin.omdoc.org/foundations/zfc?TypesAsSets" class="graphview">
<path fill="none" stroke="black" d="M237.683,-344.672C243.054,-342.451 248.711,-340.131 254,-338 274.363,-329.795 281.13,-331.22 300,-320 309.489,-314.358 309.23,-309.141 319,-304 325.712,-300.468 359.564,-291.2 390.63,-283.088"/>
<polygon fill="black" stroke="black" points="391.781,-286.405 400.58,-280.503 390.021,-279.63 391.781,-286.405"/>
</a>
<a xlink:href="http://latin.omdoc.org/foundations/zfc?TypesAsSets" class="TypesAsSets">
<text text-anchor="middle" x="357" y="-308.3" font-family="Times New Roman,serif" font-size="14.00">TypesAsSets</text>
</a>
</g>
<!-- http://latin.omdoc.org/foundations/zfc?Curry&#45;&gt;http://latin.omdoc.org/foundations/zfc?TypedZFBase -->
<g id="edge15" class="edge"><title>http://latin.omdoc.org/foundations/zfc?Curry&#45;&gt;http://latin.omdoc.org/foundations/zfc?TypedZFBase</title>
<a xlink:href="http://latin.omdoc.org/foundations/zfc?TypesAsClasses" class="graphview">
<path fill="none" stroke="black" d="M203.035,-338.871C197.586,-327.78 193.499,-313.409 202,-304 228.504,-274.664 340.067,-292.88 379,-286 383.372,-285.227 387.881,-284.323 392.394,-283.341"/>
<polygon fill="black" stroke="black" points="393.265,-286.732 402.232,-281.088 391.703,-279.909 393.265,-286.732"/>
</a>
<a xlink:href="http://latin.omdoc.org/foundations/zfc?TypesAsClasses" class="TypesAsClasses">
<text text-anchor="middle" x="249" y="-308.3" font-family="Times New Roman,serif" font-size="14.00">TypesAsClasses</text>
</a>
</g>
<!-- http://latin.omdoc.org/type_theories?VOID&#45;&gt;http://latin.omdoc.org/foundations/zfc?TypedZFBase -->
<g id="edge17" class="edge"><title>http://latin.omdoc.org/type_theories?VOID&#45;&gt;http://latin.omdoc.org/foundations/zfc?TypedZFBase</title>
<a xlink:href="http://latin.omdoc.org/translations/tt_zfc?VOID" class="graphview">
<path fill="none" stroke="black" d="M632.865,-268C602.869,-268 557.628,-268 519.174,-268"/>
<polygon fill="black" stroke="black" points="519.043,-264.5 509.043,-268 519.043,-271.5 519.043,-264.5"/>
</a>
<a xlink:href="http://latin.omdoc.org/translations/tt_zfc?VOID" class="VOID">
<text text-anchor="middle" x="570.926" y="-274.8" font-family="Times New Roman,serif" font-size="14.00">VOID</text>
</a>
</g>
<!-- http://latin.omdoc.org/type_theories?TypesTerms&#45;&gt;http://latin.omdoc.org/foundations/zfc?TypedZFBase -->
<g id="edge19" class="edge"><title>http://latin.omdoc.org/type_theories?TypesTerms&#45;&gt;http://latin.omdoc.org/foundations/zfc?TypedZFBase</title>
<a xlink:href="http://latin.omdoc.org/translations/tt_zfc?TypesTerms" class="graphview">
<path fill="none" stroke="black" d="M645.309,-341.938C604.517,-327.011 537.612,-302.526 492.705,-286.092"/>
<polygon fill="black" stroke="black" points="493.788,-282.761 483.194,-282.611 491.382,-289.335 493.788,-282.761"/>
</a>
<a xlink:href="http://latin.omdoc.org/translations/tt_zfc?TypesTerms" class="TypesTerms">
<text text-anchor="middle" x="621" y="-308.3" font-family="Times New Roman,serif" font-size="14.00">TypesTerms</text>
</a>
</g>
<!-- http://latin.omdoc.org/type_theories?TypesTerms&#45;&gt;http://latin.omdoc.org/type_theories?VOID -->
<g id="edge75" class="edge"><title>http://latin.omdoc.org/type_theories?TypesTerms&#45;&gt;http://latin.omdoc.org/type_theories?VOID</title>
<a class="graphinclude">
<path fill="none" stroke="black" d="M704.802,-339.572C716.597,-329.883 726.973,-316.829 720,-304 715.667,-296.028 708.648,-289.591 701.083,-284.518"/>
<polygon fill="black" stroke="black" points="702.468,-281.27 692.081,-279.179 698.897,-287.291 702.468,-281.27"/>
</a>
</g>
<!-- http://latin.omdoc.org/type_theories?TypesTerms&#45;&gt;http://latin.omdoc.org/type_theories?UNIT -->
<g id="edge77" class="edge"><title>http://latin.omdoc.org/type_theories?TypesTerms&#45;&gt;http://latin.omdoc.org/type_theories?UNIT</title>
<a class="graphinclude">
<path fill="none" stroke="black" d="M709.277,-340.217C718.424,-334.631 728.208,-327.734 736,-320 743.556,-312.501 750.283,-302.987 755.661,-294.213"/>
<polygon fill="black" stroke="black" points="758.754,-295.857 760.755,-285.453 752.703,-292.338 758.754,-295.857"/>
</a>
</g>
<!-- http://latin.omdoc.org/type_theories?UNIT&#45;&gt;http://latin.omdoc.org/foundations/zfc?TypedZFBase -->
<g id="edge21" class="edge"><title>http://latin.omdoc.org/type_theories?UNIT&#45;&gt;http://latin.omdoc.org/foundations/zfc?TypedZFBase</title>
<a xlink:href="http://latin.omdoc.org/translations/tt_zfc?UNIT" class="graphview">
<path fill="none" stroke="black" d="M756.154,-284.823C747.068,-295.259 733.887,-307.74 719,-313.5 679.972,-328.6 567.668,-302.087 499.871,-283.599"/>
<polygon fill="black" stroke="black" points="500.776,-280.217 490.205,-280.935 498.916,-286.966 500.776,-280.217"/>
</a>
<a xlink:href="http://latin.omdoc.org/translations/tt_zfc?UNIT" class="UNIT">
<text text-anchor="middle" x="702" y="-308.3" font-family="Times New Roman,serif" font-size="14.00">UNIT</text>
</a>
</g>
<!-- http://latin.omdoc.org/foundations/zfc?UniversalQuantifier&#45;&gt;http://latin.omdoc.org/foundations/zfc?TypedZFBase -->
<g id="edge23" class="edge"><title>http://latin.omdoc.org/foundations/zfc?UniversalQuantifier&#45;&gt;http://latin.omdoc.org/foundations/zfc?TypedZFBase</title>
<a xlink:href="http://latin.omdoc.org/foundations/zfc?_UQ" class="graphview">
<path fill="none" stroke="black" d="M998.952,-281.659C953.841,-292.753 886.621,-307.506 827,-313.5 687.613,-327.513 650.847,-310.964 513,-286 508.8,-285.239 504.479,-284.344 500.151,-283.367"/>
<polygon fill="black" stroke="black" points="500.633,-279.883 490.093,-280.961 499.004,-286.691 500.633,-279.883"/>
</a>
<a xlink:href="http://latin.omdoc.org/foundations/zfc?_UQ" class="_UQ">
<text text-anchor="middle" x="813" y="-308.3" font-family="Times New Roman,serif" font-size="14.00">_UQ</text>
</a>
</g>
<!-- http://latin.omdoc.org/foundations/zfc?UniversalQuantifier&#45;&gt;http://latin.omdoc.org/foundations/zfc?TypedZF -->
<g id="edge71" class="edge"><title>http://latin.omdoc.org/foundations/zfc?UniversalQuantifier&#45;&gt;http://latin.omdoc.org/foundations/zfc?TypedZF</title>
<a class="graphinclude">
<path fill="none" stroke="black" d="M1052.48,-249.883C1053.53,-227.783 1052.38,-188.967 1035,-162 987.31,-88.0217 951.703,-84.1221 869,-54 792.402,-26.1015 697.428,-19.5391 638.514,-18.4539"/>
<polygon fill="black" stroke="black" points="638.351,-14.9515 628.304,-18.3143 638.255,-21.9508 638.351,-14.9515"/>
</a>
</g>
<!-- http://latin.omdoc.org/foundations/zfc?UniversalQuantifier&#45;&gt;http://latin.omdoc.org/foundations/isabelle?NesetZFC -->
<g id="edge73" class="edge"><title>http://latin.omdoc.org/foundations/zfc?UniversalQuantifier&#45;&gt;http://latin.omdoc.org/foundations/isabelle?NesetZFC</title>
<a class="graphinclude">
<path fill="none" stroke="black" d="M1036.58,-250.009C1025.74,-237.242 1010.74,-219.575 998.638,-205.313"/>
<polygon fill="black" stroke="black" points="1001.04,-202.731 991.897,-197.372 995.7,-207.261 1001.04,-202.731"/>
</a>
</g>
<!-- http://latin.omdoc.org/foundations/zfc?BigInter&#45;&gt;http://latin.omdoc.org/foundations/zfc?TypedZF -->
<g id="edge69" class="edge"><title>http://latin.omdoc.org/foundations/zfc?BigInter&#45;&gt;http://latin.omdoc.org/foundations/zfc?TypedZF</title>
<a class="graphinclude">
<path fill="none" stroke="black" d="M568.732,-161.869C569.716,-141.054 571.729,-104.886 575,-74 575.954,-64.9953 577.283,-55.2016 578.585,-46.4074"/>
<polygon fill="black" stroke="black" points="582.079,-46.7106 580.132,-36.2963 575.159,-45.652 582.079,-46.7106"/>
</a>
</g>
<!-- http://latin.omdoc.org/foundations/zfc?BigInter&#45;&gt;http://latin.omdoc.org/foundations/zfc?ImageTypes -->
<g id="edge67" class="edge"><title>http://latin.omdoc.org/foundations/zfc?BigInter&#45;&gt;http://latin.omdoc.org/foundations/zfc?ImageTypes</title>
<a xlink:href="http://latin.omdoc.org/foundations/zfc?_BI" class="graphview">
<path fill="none" stroke="black" d="M580.305,-162.672C588.064,-152.538 598.398,-139.333 608,-128 611.015,-124.441 614.263,-120.743 617.493,-117.142"/>
<polygon fill="black" stroke="black" points="620.3,-119.258 624.438,-109.505 615.121,-114.548 620.3,-119.258"/>
</a>
<a xlink:href="http://latin.omdoc.org/foundations/zfc?_BI" class="_BI">
<text text-anchor="middle" x="619" y="-132.3" font-family="Times New Roman,serif" font-size="14.00">_BI</text>
</a>
</g>
<!-- http://latin.omdoc.org/foundations/zfc?DisjUnion&#45;&gt;http://latin.omdoc.org/foundations/zfc?TypedZF -->
<g id="edge65" class="edge"><title>http://latin.omdoc.org/foundations/zfc?DisjUnion&#45;&gt;http://latin.omdoc.org/foundations/zfc?TypedZF</title>
<a class="graphinclude">
<path fill="none" stroke="black" d="M110.773,-167.915C171.057,-148.71 298.892,-108.039 407,-74 451.937,-59.8513 503.37,-43.7942 538.981,-32.6984"/>
<polygon fill="black" stroke="black" points="540.081,-36.0218 548.587,-29.706 537.999,-29.3386 540.081,-36.0218"/>
</a>
</g>
<!-- http://latin.omdoc.org/foundations/zfc?DisjUnion&#45;&gt;http://latin.omdoc.org/foundations/zfc?ConditionalTerms -->
<g id="edge63" class="edge"><title>http://latin.omdoc.org/foundations/zfc?DisjUnion&#45;&gt;http://latin.omdoc.org/foundations/zfc?ConditionalTerms</title>
<a xlink:href="http://latin.omdoc.org/foundations/zfc?_DU" class="graphview">
<path fill="none" stroke="black" d="M76,-161.597C76,-149.746 76,-133.817 76,-120.292"/>
<polygon fill="black" stroke="black" points="79.5001,-120.084 76,-110.084 72.5001,-120.084 79.5001,-120.084"/>
</a>
<a xlink:href="http://latin.omdoc.org/foundations/zfc?_DU" class="_DU">
<text text-anchor="middle" x="90" y="-132.3" font-family="Times New Roman,serif" font-size="14.00">_DU</text>
</a>
</g>
<!-- http://latin.omdoc.org/foundations/zfc?PredSubTypes&#45;&gt;http://latin.omdoc.org/foundations/zfc?TypedZFBase -->
<g id="edge31" class="edge"><title>http://latin.omdoc.org/foundations/zfc?PredSubTypes&#45;&gt;http://latin.omdoc.org/foundations/zfc?TypedZFBase</title>
<a xlink:href="http://latin.omdoc.org/foundations/zfc?_F" class="graphview">
<path fill="none" stroke="black" d="M413.886,-197.956C419.58,-210.197 427.375,-226.956 433.859,-240.898"/>
<polygon fill="black" stroke="black" points="430.706,-242.418 438.097,-250.009 437.053,-239.466 430.706,-242.418"/>
</a>
<a xlink:href="http://latin.omdoc.org/foundations/zfc?_F" class="_F">
<text text-anchor="middle" x="438" y="-220.3" font-family="Times New Roman,serif" font-size="14.00">_F</text>
</a>
</g>
<!-- http://latin.omdoc.org/foundations/zfc?PredSubTypes&#45;&gt;http://latin.omdoc.org/foundations/zfc?TypedZF -->
<g id="edge61" class="edge"><title>http://latin.omdoc.org/foundations/zfc?PredSubTypes&#45;&gt;http://latin.omdoc.org/foundations/zfc?TypedZF</title>
<a class="graphinclude">
<path fill="none" stroke="black" d="M424.275,-162.48C456.136,-133.679 521.888,-74.2424 557.962,-41.6332"/>
<polygon fill="black" stroke="black" points="560.539,-44.022 565.61,-34.7197 555.845,-38.8292 560.539,-44.022"/>
</a>
</g>
<!-- http://latin.omdoc.org/foundations/zfc?ImageTypes&#45;&gt;http://latin.omdoc.org/foundations/zfc?TypedZFBase -->
<g id="edge35" class="edge"><title>http://latin.omdoc.org/foundations/zfc?ImageTypes&#45;&gt;http://latin.omdoc.org/foundations/zfc?TypedZFBase</title>
<a xlink:href="http://latin.omdoc.org/foundations/zfc?_I" class="graphview">
<path fill="none" stroke="black" d="M640.694,-110.02C640.7,-132.728 637.37,-172.971 616,-198 591.444,-226.76 573.016,-217.717 538,-232 523.472,-237.926 507.532,-244.103 493.06,-249.589"/>
<polygon fill="black" stroke="black" points="491.433,-246.462 483.311,-253.265 493.903,-253.012 491.433,-246.462"/>
</a>
<a xlink:href="http://latin.omdoc.org/foundations/zfc?_I" class="_I">
<text text-anchor="middle" x="641.5" y="-176.3" font-family="Times New Roman,serif" font-size="14.00">_I</text>
</a>
</g>
<!-- http://latin.omdoc.org/foundations/zfc?ImageTypes&#45;&gt;http://latin.omdoc.org/foundations/zfc?TypedZF -->
<g id="edge59" class="edge"><title>http://latin.omdoc.org/foundations/zfc?ImageTypes&#45;&gt;http://latin.omdoc.org/foundations/zfc?TypedZF</title>
<a class="graphinclude">
<path fill="none" stroke="black" d="M626.78,-74.3008C619.586,-65.2135 610.547,-53.7966 602.554,-43.6996"/>
<polygon fill="black" stroke="black" points="605.1,-41.2767 596.149,-35.6087 599.611,-45.6216 605.1,-41.2767"/>
</a>
</g>
<!-- http://latin.omdoc.org/foundations/zfc?Products&#45;&gt;http://latin.omdoc.org/foundations/zfc?TypedZFBase -->
<g id="edge39" class="edge"><title>http://latin.omdoc.org/foundations/zfc?Products&#45;&gt;http://latin.omdoc.org/foundations/zfc?TypedZFBase</title>
<a xlink:href="http://latin.omdoc.org/foundations/zfc?_P" class="graphview">
<path fill="none" stroke="black" d="M304.441,-194.535C332.231,-208.761 376.214,-231.276 407.779,-247.435"/>
<polygon fill="black" stroke="black" points="406.24,-250.579 416.737,-252.02 409.43,-244.348 406.24,-250.579"/>
</a>
<a xlink:href="http://latin.omdoc.org/foundations/zfc?_P" class="_P">
<text text-anchor="middle" x="386" y="-220.3" font-family="Times New Roman,serif" font-size="14.00">_P</text>
</a>
</g>
<!-- http://latin.omdoc.org/foundations/zfc?Products&#45;&gt;http://latin.omdoc.org/foundations/zfc?TypedZF -->
<g id="edge57" class="edge"><title>http://latin.omdoc.org/foundations/zfc?Products&#45;&gt;http://latin.omdoc.org/foundations/zfc?TypedZF</title>
<a class="graphinclude">
<path fill="none" stroke="black" d="M304.004,-165.358C358.677,-136.678 485.59,-70.1001 547.609,-37.5658"/>
<polygon fill="black" stroke="black" points="549.399,-40.5792 556.628,-32.8342 546.147,-34.3804 549.399,-40.5792"/>
</a>
</g>
<!-- http://latin.omdoc.org/foundations/zfc?ConditionalTerms&#45;&gt;http://latin.omdoc.org/foundations/zfc?TypedZF -->
<g id="edge55" class="edge"><title>http://latin.omdoc.org/foundations/zfc?ConditionalTerms&#45;&gt;http://latin.omdoc.org/foundations/zfc?TypedZF</title>
<a class="graphinclude">
<path fill="none" stroke="black" d="M107.279,-75.3653C124.235,-67.6085 145.801,-58.8766 166,-54 292.556,-23.4461 446.269,-18.5178 527.103,-18.3106"/>
<polygon fill="black" stroke="black" points="527.542,-21.8107 537.541,-18.3094 527.541,-14.8107 527.542,-21.8107"/>
</a>
</g>
<!-- http://latin.omdoc.org/foundations/zfc?BigUnion&#45;&gt;http://latin.omdoc.org/foundations/zfc?TypedZF -->
<g id="edge53" class="edge"><title>http://latin.omdoc.org/foundations/zfc?BigUnion&#45;&gt;http://latin.omdoc.org/foundations/zfc?TypedZF</title>
<a class="graphinclude">
<path fill="none" stroke="black" d="M723.671,-161.814C724.92,-139.285 723.767,-99.6291 704,-74 686.52,-51.3363 657.574,-37.7229 632.376,-29.7102"/>
<polygon fill="black" stroke="black" points="633.157,-26.2914 622.575,-26.8073 631.169,-33.0032 633.157,-26.2914"/>
</a>
</g>
<!-- http://latin.omdoc.org/foundations/zfc?BigUnion&#45;&gt;http://latin.omdoc.org/foundations/zfc?ImageTypes -->
<g id="edge51" class="edge"><title>http://latin.omdoc.org/foundations/zfc?BigUnion&#45;&gt;http://latin.omdoc.org/foundations/zfc?ImageTypes</title>
<a xlink:href="http://latin.omdoc.org/foundations/zfc?_BU" class="graphview">
<path fill="none" stroke="black" d="M703.653,-163.474C696.963,-157.572 689.459,-150.662 683,-144 674.936,-135.683 666.608,-126.078 659.455,-117.463"/>
<polygon fill="black" stroke="black" points="662.045,-115.101 653.002,-109.58 656.628,-119.535 662.045,-115.101"/>
</a>
<a xlink:href="http://latin.omdoc.org/foundations/zfc?_BU" class="_BU">
<text text-anchor="middle" x="696.5" y="-132.3" font-family="Times New Roman,serif" font-size="14.00">_BU</text>
</a>
</g>
<!-- http://latin.omdoc.org/foundations/zfc?Operations&#45;&gt;http://latin.omdoc.org/foundations/zfc?TypedZFBase -->
<g id="edge47" class="edge"><title>http://latin.omdoc.org/foundations/zfc?Operations&#45;&gt;http://latin.omdoc.org/foundations/zfc?TypedZFBase</title>
<a class="graphinclude">
<path fill="none" stroke="black" d="M351.35,-343.623C366.876,-337.907 384.595,-330.034 399,-320 409.393,-312.761 419.18,-302.861 427.105,-293.708"/>
<polygon fill="black" stroke="black" points="429.858,-295.871 433.558,-285.943 424.474,-291.397 429.858,-295.871"/>
</a>
</g>
</g>
</svg>
