<?xml version="1.0" encoding="UTF-8" standalone="no"?>
<!DOCTYPE svg PUBLIC "-//W3C//DTD SVG 1.1//EN"
 "http://www.w3.org/Graphics/SVG/1.1/DTD/svg11.dtd">
<!-- Generated by graphviz version 2.28.0 (20110507.0327)
 -->
<!-- Title: MMT Pages: 1 -->
<svg
 viewBox="0.00 0.00 1382.00 456.00" xmlns="http://www.w3.org/2000/svg" xmlns:xlink="http://www.w3.org/1999/xlink">
<g id="graph1" class="graph" transform="scale(1 1) rotate(0) translate(4 452)">
<title>MMT</title>
<polygon fill="white" stroke="white" points="-4,5 -4,-452 1379,-452 1379,5 -4,5"/>
<g id="graph2" class="cluster"><title>cluster_local</title>
<polygon fill="none" stroke="black" points="420,-242 420,-382 568,-382 568,-242 420,-242"/>
</g>
<!-- http://latin.omdoc.org/foundations/zfc?PredSubTypes -->
<g id="node2" class="node"><title>http://latin.omdoc.org/foundations/zfc?PredSubTypes</title>
<a xlink:href="http://latin.omdoc.org/foundations/zfc?PredSubTypes" class="graphtheory">
<ellipse fill="none" stroke="black" cx="494" cy="-356" rx="65.4659" ry="18"/>
<text text-anchor="middle" x="494" y="-352.3" font-family="Times New Roman,serif" font-size="14.00">PredSubTypes</text>
</a>
</g>
<!-- http://latin.omdoc.org/foundations/zfc?TypedZFBase -->
<g id="node3" class="node"><title>http://latin.omdoc.org/foundations/zfc?TypedZFBase</title>
<a xlink:href="http://latin.omdoc.org/foundations/zfc?TypedZFBase" class="graphtheory">
<ellipse fill="none" stroke="black" cx="497" cy="-268" rx="63.0666" ry="18"/>
<text text-anchor="middle" x="497" y="-264.3" font-family="Times New Roman,serif" font-size="14.00">TypedZFBase</text>
</a>
</g>
<!-- http://latin.omdoc.org/foundations/zfc?PredSubTypes&#45;&gt;http://latin.omdoc.org/foundations/zfc?TypedZFBase -->
<g id="edge3" class="edge"><title>http://latin.omdoc.org/foundations/zfc?PredSubTypes&#45;&gt;http://latin.omdoc.org/foundations/zfc?TypedZFBase</title>
<a xlink:href="http://latin.omdoc.org/foundations/zfc?_F" class="graphview">
<path fill="none" stroke="black" d="M488.695,-338.004C486.26,-328.089 484.26,-315.339 486,-304 486.411,-301.318 486.991,-298.56 487.67,-295.825"/>
<polygon fill="black" stroke="black" points="491.038,-296.778 490.451,-286.199 484.313,-294.835 491.038,-296.778"/>
</a>
<a xlink:href="http://latin.omdoc.org/foundations/zfc?_F" class="_F">
<text text-anchor="middle" x="494" y="-308.3" font-family="Times New Roman,serif" font-size="14.00">_F</text>
</a>
</g>
<!-- http://latin.omdoc.org/foundations/zfc?TypedZF -->
<g id="node5" class="node"><title>http://latin.omdoc.org/foundations/zfc?TypedZF</title>
<a xlink:href="http://latin.omdoc.org/foundations/zfc?TypedZF" class="graphtheory">
<ellipse fill="gray" stroke="black" cx="610" cy="-18" rx="45.244" ry="18"/>
<text text-anchor="middle" x="610" y="-14.3" font-family="Times New Roman,serif" font-size="14.00">TypedZF</text>
</a>
</g>
<!-- http://latin.omdoc.org/foundations/zfc?PredSubTypes&#45;&gt;http://latin.omdoc.org/foundations/zfc?TypedZF -->
<g id="edge5" class="edge"><title>http://latin.omdoc.org/foundations/zfc?PredSubTypes&#45;&gt;http://latin.omdoc.org/foundations/zfc?TypedZF</title>
<a class="graphinclude">
<path fill="none" stroke="black" d="M454.094,-341.711C377.352,-313.919 221.329,-245.28 275,-162 336.88,-65.9816 478.23,-34.2686 556.088,-23.9181"/>
<polygon fill="black" stroke="black" points="556.693,-27.3697 566.178,-22.6493 555.82,-20.4244 556.693,-27.3697"/>
</a>
</g>
<!-- http://latin.omdoc.org/foundations/zfc?DependentFunctions -->
<g id="node7" class="node"><title>http://latin.omdoc.org/foundations/zfc?DependentFunctions</title>
<a xlink:href="http://latin.omdoc.org/foundations/zfc?DependentFunctions" class="graphtheory">
<ellipse fill="gray" stroke="black" cx="1105" cy="-180" rx="85.19" ry="18"/>
<text text-anchor="middle" x="1105" y="-176.3" font-family="Times New Roman,serif" font-size="14.00">DependentFunctions</text>
</a>
</g>
<!-- http://latin.omdoc.org/foundations/zfc?PredSubTypes&#45;&gt;http://latin.omdoc.org/foundations/zfc?DependentFunctions -->
<g id="edge7" class="edge"><title>http://latin.omdoc.org/foundations/zfc?PredSubTypes&#45;&gt;http://latin.omdoc.org/foundations/zfc?DependentFunctions</title>
<a class="graphinclude">
<path fill="none" stroke="black" d="M538.69,-342.848C546.736,-340.987 555.081,-339.267 563,-338 667.309,-321.307 697.692,-346.31 800,-320 803.434,-319.117 978.576,-238.941 1061.87,-200.773"/>
<polygon fill="black" stroke="black" points="1063.44,-203.903 1071.07,-196.555 1060.52,-197.539 1063.44,-203.903"/>
</a>
</g>
<!-- http://latin.omdoc.org/foundations/zfc?TypedZFBase&#45;&gt;http://latin.omdoc.org/foundations/zfc?PredSubTypes -->
<g id="edge9" class="edge"><title>http://latin.omdoc.org/foundations/zfc?TypedZFBase&#45;&gt;http://latin.omdoc.org/foundations/zfc?PredSubTypes</title>
<a class="graphinclude">
<path fill="none" stroke="black" d="M500.458,-286.013C502.027,-295.934 503.277,-308.684 502,-320 501.696,-322.694 501.264,-325.484 500.757,-328.258"/>
<polygon fill="black" stroke="black" points="497.333,-327.534 498.683,-338.042 504.181,-328.986 497.333,-327.534"/>
</a>
</g>
<!-- http://latin.omdoc.org/foundations/isabelle?NesetZFC -->
<g id="node12" class="node"><title>http://latin.omdoc.org/foundations/isabelle?NesetZFC</title>
<a xlink:href="http://latin.omdoc.org/foundations/isabelle?NesetZFC" class="graphtheory">
<ellipse fill="gray" stroke="black" cx="953" cy="-180" rx="48.1437" ry="18"/>
<text text-anchor="middle" x="953" y="-176.3" font-family="Times New Roman,serif" font-size="14.00">NesetZFC</text>
</a>
</g>
<!-- http://latin.omdoc.org/foundations/zfc?TypedZFBase&#45;&gt;http://latin.omdoc.org/foundations/isabelle?NesetZFC -->
<g id="edge13" class="edge"><title>http://latin.omdoc.org/foundations/zfc?TypedZFBase&#45;&gt;http://latin.omdoc.org/foundations/isabelle?NesetZFC</title>
<a class="graphinclude">
<path fill="none" stroke="black" d="M529.801,-252.461C540.499,-248.346 552.569,-244.351 564,-242 653.784,-223.536 679.51,-246.617 770,-232 818.511,-224.164 872.542,-208.174 909.235,-196.176"/>
<polygon fill="black" stroke="black" points="910.713,-199.373 919.106,-192.908 908.513,-192.728 910.713,-199.373"/>
</a>
</g>
<!-- http://latin.omdoc.org/foundations/zfc?UniversalQuantifier -->
<g id="node23" class="node"><title>http://latin.omdoc.org/foundations/zfc?UniversalQuantifier</title>
<a xlink:href="http://latin.omdoc.org/foundations/zfc?UniversalQuantifier" class="graphtheory">
<ellipse fill="gray" stroke="black" cx="1061" cy="-268" rx="79.4147" ry="18"/>
<text text-anchor="middle" x="1061" y="-264.3" font-family="Times New Roman,serif" font-size="14.00">UniversalQuantifier</text>
</a>
</g>
<!-- http://latin.omdoc.org/foundations/zfc?TypedZFBase&#45;&gt;http://latin.omdoc.org/foundations/zfc?UniversalQuantifier -->
<g id="edge27" class="edge"><title>http://latin.omdoc.org/foundations/zfc?TypedZFBase&#45;&gt;http://latin.omdoc.org/foundations/zfc?UniversalQuantifier</title>
<a class="graphinclude">
<path fill="none" stroke="black" d="M560.064,-268C697.036,-268 834.007,-268 970.978,-268"/>
<polygon fill="black" stroke="black" points="971.261,-271.5 981.261,-268 971.261,-264.5 971.261,-271.5"/>
</a>
</g>
<!-- http://latin.omdoc.org/foundations/zfc?BigInter -->
<g id="node26" class="node"><title>http://latin.omdoc.org/foundations/zfc?BigInter</title>
<a xlink:href="http://latin.omdoc.org/foundations/zfc?BigInter" class="graphtheory">
<ellipse fill="gray" stroke="black" cx="508" cy="-180" rx="39.4691" ry="18"/>
<text text-anchor="middle" x="508" y="-176.3" font-family="Times New Roman,serif" font-size="14.00">BigInter</text>
</a>
</g>
<!-- http://latin.omdoc.org/foundations/zfc?TypedZFBase&#45;&gt;http://latin.omdoc.org/foundations/zfc?BigInter -->
<g id="edge29" class="edge"><title>http://latin.omdoc.org/foundations/zfc?TypedZFBase&#45;&gt;http://latin.omdoc.org/foundations/zfc?BigInter</title>
<a class="graphinclude">
<path fill="none" stroke="black" d="M499.173,-250.009C500.685,-238.19 502.734,-222.171 504.477,-208.542"/>
<polygon fill="black" stroke="black" points="507.997,-208.613 505.794,-198.25 501.053,-207.725 507.997,-208.613"/>
</a>
</g>
<!-- http://latin.omdoc.org/foundations/zfc?DisjUnion -->
<g id="node28" class="node"><title>http://latin.omdoc.org/foundations/zfc?DisjUnion</title>
<a xlink:href="http://latin.omdoc.org/foundations/zfc?DisjUnion" class="graphtheory">
<ellipse fill="gray" stroke="black" cx="143" cy="-180" rx="46.1964" ry="18"/>
<text text-anchor="middle" x="143" y="-176.3" font-family="Times New Roman,serif" font-size="14.00">DisjUnion</text>
</a>
</g>
<!-- http://latin.omdoc.org/foundations/zfc?TypedZFBase&#45;&gt;http://latin.omdoc.org/foundations/zfc?DisjUnion -->
<g id="edge31" class="edge"><title>http://latin.omdoc.org/foundations/zfc?TypedZFBase&#45;&gt;http://latin.omdoc.org/foundations/zfc?DisjUnion</title>
<a class="graphinclude">
<path fill="none" stroke="black" d="M464.187,-252.517C453.489,-248.406 441.421,-244.398 430,-242 353.323,-225.902 330.033,-250.907 254,-232 226.75,-225.224 197.994,-211.814 176.581,-200.445"/>
<polygon fill="black" stroke="black" points="178.043,-197.257 167.585,-195.561 174.703,-203.409 178.043,-197.257"/>
</a>
</g>
<!-- http://latin.omdoc.org/foundations/zfc?ImageTypes -->
<g id="node30" class="node"><title>http://latin.omdoc.org/foundations/zfc?ImageTypes</title>
<a xlink:href="http://latin.omdoc.org/foundations/zfc?ImageTypes" class="graphtheory">
<ellipse fill="gray" stroke="black" cx="707" cy="-92" rx="55.3436" ry="18"/>
<text text-anchor="middle" x="707" y="-88.3" font-family="Times New Roman,serif" font-size="14.00">ImageTypes</text>
</a>
</g>
<!-- http://latin.omdoc.org/foundations/zfc?TypedZFBase&#45;&gt;http://latin.omdoc.org/foundations/zfc?ImageTypes -->
<g id="edge35" class="edge"><title>http://latin.omdoc.org/foundations/zfc?TypedZFBase&#45;&gt;http://latin.omdoc.org/foundations/zfc?ImageTypes</title>
<a class="graphinclude">
<path fill="none" stroke="black" d="M532.211,-253.017C542.388,-249.206 553.566,-245.24 564,-242 609.984,-227.722 631.163,-234.123 663,-198 682.833,-175.497 694.614,-142.775 700.92,-119.858"/>
<polygon fill="black" stroke="black" points="704.331,-120.648 703.441,-110.09 697.553,-118.898 704.331,-120.648"/>
</a>
</g>
<!-- http://latin.omdoc.org/foundations/zfc?ExistentialQuantifier -->
<g id="node33" class="node"><title>http://latin.omdoc.org/foundations/zfc?ExistentialQuantifier</title>
<a xlink:href="http://latin.omdoc.org/foundations/zfc?ExistentialQuantifier" class="graphtheory">
<ellipse fill="gray" stroke="black" cx="367" cy="-180" rx="83.2892" ry="18"/>
<text text-anchor="middle" x="367" y="-176.3" font-family="Times New Roman,serif" font-size="14.00">ExistentialQuantifier</text>
</a>
</g>
<!-- http://latin.omdoc.org/foundations/zfc?TypedZFBase&#45;&gt;http://latin.omdoc.org/foundations/zfc?ExistentialQuantifier -->
<g id="edge39" class="edge"><title>http://latin.omdoc.org/foundations/zfc?TypedZFBase&#45;&gt;http://latin.omdoc.org/foundations/zfc?ExistentialQuantifier</title>
<a class="graphinclude">
<path fill="none" stroke="black" d="M458.393,-253.607C444.715,-247.976 429.604,-240.694 417,-232 406.155,-224.519 395.7,-214.463 387.178,-205.258"/>
<polygon fill="black" stroke="black" points="389.784,-202.921 380.509,-197.801 384.567,-207.588 389.784,-202.921"/>
</a>
</g>
<!-- http://latin.omdoc.org/foundations/zfc?Products -->
<g id="node36" class="node"><title>http://latin.omdoc.org/foundations/zfc?Products</title>
<a xlink:href="http://latin.omdoc.org/foundations/zfc?Products" class="graphtheory">
<ellipse fill="gray" stroke="black" cx="610" cy="-180" rx="44.2946" ry="18"/>
<text text-anchor="middle" x="610" y="-176.3" font-family="Times New Roman,serif" font-size="14.00">Products</text>
</a>
</g>
<!-- http://latin.omdoc.org/foundations/zfc?TypedZFBase&#45;&gt;http://latin.omdoc.org/foundations/zfc?Products -->
<g id="edge43" class="edge"><title>http://latin.omdoc.org/foundations/zfc?TypedZFBase&#45;&gt;http://latin.omdoc.org/foundations/zfc?Products</title>
<a class="graphinclude">
<path fill="none" stroke="black" d="M517.99,-251.026C535.972,-237.34 562.026,-217.511 581.823,-202.444"/>
<polygon fill="black" stroke="black" points="584.044,-205.152 589.882,-196.311 579.805,-199.582 584.044,-205.152"/>
</a>
</g>
<!-- http://latin.omdoc.org/foundations/zfc?ConditionalTerms -->
<g id="node39" class="node"><title>http://latin.omdoc.org/foundations/zfc?ConditionalTerms</title>
<a xlink:href="http://latin.omdoc.org/foundations/zfc?ConditionalTerms" class="graphtheory">
<ellipse fill="gray" stroke="black" cx="76" cy="-92" rx="76.0649" ry="18"/>
<text text-anchor="middle" x="76" y="-88.3" font-family="Times New Roman,serif" font-size="14.00">ConditionalTerms</text>
</a>
</g>
<!-- http://latin.omdoc.org/foundations/zfc?TypedZFBase&#45;&gt;http://latin.omdoc.org/foundations/zfc?ConditionalTerms -->
<g id="edge45" class="edge"><title>http://latin.omdoc.org/foundations/zfc?TypedZFBase&#45;&gt;http://latin.omdoc.org/foundations/zfc?ConditionalTerms</title>
<a class="graphinclude">
<path fill="none" stroke="black" d="M461.374,-253.1C451.289,-249.331 440.264,-245.366 430,-242 395.977,-230.843 308.114,-211.618 275,-198 215.393,-173.486 205.223,-157.654 148,-128 138.174,-122.908 127.495,-117.598 117.444,-112.697"/>
<polygon fill="black" stroke="black" points="118.959,-109.542 108.433,-108.33 115.906,-115.841 118.959,-109.542"/>
</a>
</g>
<!-- http://latin.omdoc.org/foundations/zfc?BigUnion -->
<g id="node41" class="node"><title>http://latin.omdoc.org/foundations/zfc?BigUnion</title>
<a xlink:href="http://latin.omdoc.org/foundations/zfc?BigUnion" class="graphtheory">
<ellipse fill="gray" stroke="black" cx="804" cy="-180" rx="44.271" ry="18"/>
<text text-anchor="middle" x="804" y="-176.3" font-family="Times New Roman,serif" font-size="14.00">BigUnion</text>
</a>
</g>
<!-- http://latin.omdoc.org/foundations/zfc?TypedZFBase&#45;&gt;http://latin.omdoc.org/foundations/zfc?BigUnion -->
<g id="edge47" class="edge"><title>http://latin.omdoc.org/foundations/zfc?TypedZFBase&#45;&gt;http://latin.omdoc.org/foundations/zfc?BigUnion</title>
<a class="graphinclude">
<path fill="none" stroke="black" d="M529.812,-252.513C540.51,-248.401 552.578,-244.394 564,-242 602.775,-233.872 705.095,-246.409 742,-232 757.044,-226.126 771.172,-215.121 782.13,-204.833"/>
<polygon fill="black" stroke="black" points="784.852,-207.064 789.518,-197.552 779.939,-202.079 784.852,-207.064"/>
</a>
</g>
<!-- http://latin.omdoc.org/foundations/zfc?DependentFunctions&#45;&gt;http://latin.omdoc.org/foundations/zfc?TypedZF -->
<g id="edge115" class="edge"><title>http://latin.omdoc.org/foundations/zfc?DependentFunctions&#45;&gt;http://latin.omdoc.org/foundations/zfc?TypedZF</title>
<a class="graphinclude">
<path fill="none" stroke="black" d="M1067.69,-163.683C1005.23,-138.428 875.186,-87.517 762,-54 728.322,-44.0271 689.75,-35.1751 659.89,-28.8684"/>
<polygon fill="black" stroke="black" points="660.218,-25.3615 649.714,-26.7461 658.789,-32.2141 660.218,-25.3615"/>
</a>
</g>
<!-- http://cds.omdoc.org/urtheories?LF -->
<g id="node10" class="node"><title>http://cds.omdoc.org/urtheories?LF</title>
<a xlink:href="http://cds.omdoc.org/urtheories?LF" class="graphtheory">
<ellipse fill="gray" stroke="black" cx="588" cy="-430" rx="27" ry="18"/>
<text text-anchor="middle" x="588" y="-426.3" font-family="Times New Roman,serif" font-size="14.00">LF</text>
</a>
</g>
<!-- http://cds.omdoc.org/urtheories?LF&#45;&gt;http://latin.omdoc.org/foundations/zfc?PredSubTypes -->
<g id="edge11" class="edge"><title>http://cds.omdoc.org/urtheories?LF&#45;&gt;http://latin.omdoc.org/foundations/zfc?PredSubTypes</title>
<a class="graphmeta">
<path fill="none" stroke="black" d="M570.759,-415.794C557.522,-405.655 538.934,-391.418 523.366,-379.493"/>
<polygon fill="black" stroke="black" points="525.148,-376.449 515.081,-373.147 520.891,-382.006 525.148,-376.449"/>
</a>
</g>
<!-- http://cds.omdoc.org/urtheories?LF&#45;&gt;http://latin.omdoc.org/foundations/zfc?TypedZFBase -->
<g id="edge51" class="edge"><title>http://cds.omdoc.org/urtheories?LF&#45;&gt;http://latin.omdoc.org/foundations/zfc?TypedZFBase</title>
<a class="graphmeta">
<path fill="none" stroke="black" d="M587.165,-411.865C585.593,-392.759 581.062,-361.461 568,-338 557.912,-319.88 541.561,-303.513 527.092,-291.272"/>
<polygon fill="black" stroke="black" points="529.26,-288.523 519.3,-284.911 524.833,-293.946 529.26,-288.523"/>
</a>
</g>
<!-- http://cds.omdoc.org/urtheories?LF&#45;&gt;http://latin.omdoc.org/foundations/zfc?TypedZF -->
<g id="edge97" class="edge"><title>http://cds.omdoc.org/urtheories?LF&#45;&gt;http://latin.omdoc.org/foundations/zfc?TypedZF</title>
<a class="graphmeta">
<path fill="none" stroke="black" d="M614.994,-428.792C702.799,-427.842 988.111,-422.602 1222,-394 1291.01,-385.56 1374,-426.528 1374,-357 1374,-357 1374,-357 1374,-91 1374,-19.8096 841.409,-17.3054 665.58,-18.4185"/>
<polygon fill="black" stroke="black" points="665.479,-14.919 655.504,-18.4888 665.528,-21.9188 665.479,-14.919"/>
</a>
</g>
<!-- http://cds.omdoc.org/urtheories?LF&#45;&gt;http://latin.omdoc.org/foundations/zfc?DependentFunctions -->
<g id="edge99" class="edge"><title>http://cds.omdoc.org/urtheories?LF&#45;&gt;http://latin.omdoc.org/foundations/zfc?DependentFunctions</title>
<a class="graphmeta">
<path fill="none" stroke="black" d="M615.125,-428.547C731.907,-426.398 1188.34,-415.879 1242,-382 1301.69,-344.317 1359.46,-298.394 1317,-242 1300.41,-219.965 1235.38,-203.415 1181.67,-193.153"/>
<polygon fill="black" stroke="black" points="1182.25,-189.703 1171.78,-191.311 1180.97,-196.584 1182.25,-189.703"/>
</a>
</g>
<!-- http://cds.omdoc.org/urtheories?LF&#45;&gt;http://latin.omdoc.org/foundations/isabelle?NesetZFC -->
<g id="edge113" class="edge"><title>http://cds.omdoc.org/urtheories?LF&#45;&gt;http://latin.omdoc.org/foundations/isabelle?NesetZFC</title>
<a class="graphmeta">
<path fill="none" stroke="black" d="M615.026,-429.61C681.675,-430.548 851.502,-429.326 893,-394 947.978,-347.198 954.571,-254.321 954.19,-208.241"/>
<polygon fill="black" stroke="black" points="957.687,-208.035 953.986,-198.108 950.689,-208.177 957.687,-208.035"/>
</a>
</g>
<!-- http://latin.omdoc.org/foundations/zfc?Curry -->
<g id="node14" class="node"><title>http://latin.omdoc.org/foundations/zfc?Curry</title>
<a xlink:href="http://latin.omdoc.org/foundations/zfc?Curry" class="graphtheory">
<ellipse fill="gray" stroke="black" cx="648" cy="-356" rx="31.2735" ry="18"/>
<text text-anchor="middle" x="648" y="-352.3" font-family="Times New Roman,serif" font-size="14.00">Curry</text>
</a>
</g>
<!-- http://cds.omdoc.org/urtheories?LF&#45;&gt;http://latin.omdoc.org/foundations/zfc?Curry -->
<g id="edge109" class="edge"><title>http://cds.omdoc.org/urtheories?LF&#45;&gt;http://latin.omdoc.org/foundations/zfc?Curry</title>
<a class="graphmeta">
<path fill="none" stroke="black" d="M600.724,-413.731C608.729,-404.125 619.222,-391.534 628.289,-380.654"/>
<polygon fill="black" stroke="black" points="631.166,-382.668 634.879,-372.745 625.788,-378.187 631.166,-382.668"/>
</a>
</g>
<!-- http://latin.omdoc.org/type_theories?VOID -->
<g id="node17" class="node"><title>http://latin.omdoc.org/type_theories?VOID</title>
<a xlink:href="http://latin.omdoc.org/type_theories?VOID" class="graphtheory">
<ellipse fill="gray" stroke="black" cx="1275" cy="-268" rx="33.2209" ry="18"/>
<text text-anchor="middle" x="1275" y="-264.3" font-family="Times New Roman,serif" font-size="14.00">VOID</text>
</a>
</g>
<!-- http://cds.omdoc.org/urtheories?LF&#45;&gt;http://latin.omdoc.org/type_theories?VOID -->
<g id="edge93" class="edge"><title>http://cds.omdoc.org/urtheories?LF&#45;&gt;http://latin.omdoc.org/type_theories?VOID</title>
<a class="graphmeta">
<path fill="none" stroke="black" d="M615.26,-428.417C728.485,-425.796 1158.12,-413.817 1209,-382 1240.26,-362.453 1258.41,-322.284 1267.51,-295.491"/>
<polygon fill="black" stroke="black" points="1270.85,-296.539 1270.56,-285.948 1264.18,-294.406 1270.85,-296.539"/>
</a>
</g>
<!-- http://latin.omdoc.org/type_theories?TypesTerms -->
<g id="node19" class="node"><title>http://latin.omdoc.org/type_theories?TypesTerms</title>
<a xlink:href="http://latin.omdoc.org/type_theories?TypesTerms" class="graphtheory">
<ellipse fill="gray" stroke="black" cx="1143" cy="-356" rx="57.2927" ry="18"/>
<text text-anchor="middle" x="1143" y="-352.3" font-family="Times New Roman,serif" font-size="14.00">TypesTerms</text>
</a>
</g>
<!-- http://cds.omdoc.org/urtheories?LF&#45;&gt;http://latin.omdoc.org/type_theories?TypesTerms -->
<g id="edge83" class="edge"><title>http://cds.omdoc.org/urtheories?LF&#45;&gt;http://latin.omdoc.org/type_theories?TypesTerms</title>
<a class="graphmeta">
<path fill="none" stroke="black" d="M614.955,-428.548C682.286,-427.034 863.049,-420.605 1011,-394 1039.54,-388.868 1070.81,-380.241 1095.75,-372.608"/>
<polygon fill="black" stroke="black" points="1096.81,-375.942 1105.32,-369.631 1094.73,-369.258 1096.81,-375.942"/>
</a>
</g>
<!-- http://latin.omdoc.org/type_theories?UNIT -->
<g id="node21" class="node"><title>http://latin.omdoc.org/type_theories?UNIT</title>
<a xlink:href="http://latin.omdoc.org/type_theories?UNIT" class="graphtheory">
<ellipse fill="gray" stroke="black" cx="1191" cy="-268" rx="32.2457" ry="18"/>
<text text-anchor="middle" x="1191" y="-264.3" font-family="Times New Roman,serif" font-size="14.00">UNIT</text>
</a>
</g>
<!-- http://cds.omdoc.org/urtheories?LF&#45;&gt;http://latin.omdoc.org/type_theories?UNIT -->
<g id="edge85" class="edge"><title>http://cds.omdoc.org/urtheories?LF&#45;&gt;http://latin.omdoc.org/type_theories?UNIT</title>
<a class="graphmeta">
<path fill="none" stroke="black" d="M614.846,-427.841C687.208,-424.487 885.016,-413.73 947,-394 957.243,-390.739 960.457,-389.659 968,-382 995.776,-353.795 978.292,-326.297 1011,-304 1062.11,-269.16 1089.18,-301.731 1149,-286 1151.62,-285.311 1154.29,-284.5 1156.96,-283.612"/>
<polygon fill="black" stroke="black" points="1158.29,-286.854 1166.48,-280.14 1155.89,-280.278 1158.29,-286.854"/>
</a>
</g>
<!-- http://cds.omdoc.org/urtheories?LF&#45;&gt;http://latin.omdoc.org/foundations/zfc?UniversalQuantifier -->
<g id="edge95" class="edge"><title>http://cds.omdoc.org/urtheories?LF&#45;&gt;http://latin.omdoc.org/foundations/zfc?UniversalQuantifier</title>
<a class="graphmeta">
<path fill="none" stroke="black" d="M615.156,-429.319C686.773,-429.685 878.846,-427.439 931,-394 970.078,-368.945 949.489,-335.047 984,-304 991.13,-297.586 999.634,-292.166 1008.35,-287.651"/>
<polygon fill="black" stroke="black" points="1009.96,-290.76 1017.45,-283.27 1006.92,-284.452 1009.96,-290.76"/>
</a>
</g>
<!-- http://cds.omdoc.org/urtheories?LF&#45;&gt;http://latin.omdoc.org/foundations/zfc?BigInter -->
<g id="edge89" class="edge"><title>http://cds.omdoc.org/urtheories?LF&#45;&gt;http://latin.omdoc.org/foundations/zfc?BigInter</title>
<a class="graphmeta">
<path fill="none" stroke="black" d="M560.843,-428.836C495.681,-427.809 333.386,-421.276 300,-382 236.393,-307.172 342.177,-265.746 417,-216 421.687,-212.884 446.066,-203.559 468.411,-195.317"/>
<polygon fill="black" stroke="black" points="469.616,-198.603 477.799,-191.873 467.205,-192.031 469.616,-198.603"/>
</a>
</g>
<!-- http://cds.omdoc.org/urtheories?LF&#45;&gt;http://latin.omdoc.org/foundations/zfc?DisjUnion -->
<g id="edge107" class="edge"><title>http://cds.omdoc.org/urtheories?LF&#45;&gt;http://latin.omdoc.org/foundations/zfc?DisjUnion</title>
<a class="graphmeta">
<path fill="none" stroke="black" d="M560.927,-428.893C490.098,-428.049 301.716,-422.007 257,-382 201.759,-332.576 166.874,-249.792 151.737,-207.548"/>
<polygon fill="black" stroke="black" points="154.993,-206.256 148.395,-197.966 148.383,-208.561 154.993,-206.256"/>
</a>
</g>
<!-- http://cds.omdoc.org/urtheories?LF&#45;&gt;http://latin.omdoc.org/foundations/zfc?ImageTypes -->
<g id="edge103" class="edge"><title>http://cds.omdoc.org/urtheories?LF&#45;&gt;http://latin.omdoc.org/foundations/zfc?ImageTypes</title>
<a class="graphmeta">
<path fill="none" stroke="black" d="M614.765,-426.677C667.046,-421.61 780.079,-407.894 808,-382 829.909,-361.682 825.407,-348.618 834,-320 854.408,-252.036 893.559,-222.82 857,-162 837.728,-129.939 799.125,-112.635 765.908,-103.374"/>
<polygon fill="black" stroke="black" points="766.358,-99.8746 755.8,-100.75 764.6,-106.65 766.358,-99.8746"/>
</a>
</g>
<!-- http://cds.omdoc.org/urtheories?LF&#45;&gt;http://latin.omdoc.org/foundations/zfc?ExistentialQuantifier -->
<g id="edge111" class="edge"><title>http://cds.omdoc.org/urtheories?LF&#45;&gt;http://latin.omdoc.org/foundations/zfc?ExistentialQuantifier</title>
<a class="graphmeta">
<path fill="none" stroke="black" d="M560.989,-429.591C491.425,-430.434 309.306,-428.124 277,-382 240.439,-329.801 272.558,-294.965 308,-242 317.054,-228.469 329.284,-215.254 340.262,-204.603"/>
<polygon fill="black" stroke="black" points="342.74,-207.078 347.608,-197.667 337.934,-201.988 342.74,-207.078"/>
</a>
</g>
<!-- http://cds.omdoc.org/urtheories?LF&#45;&gt;http://latin.omdoc.org/foundations/zfc?Products -->
<g id="edge105" class="edge"><title>http://cds.omdoc.org/urtheories?LF&#45;&gt;http://latin.omdoc.org/foundations/zfc?Products</title>
<a class="graphmeta">
<path fill="none" stroke="black" d="M613.928,-424.731C661.091,-415.398 759.757,-388.275 800,-320 838.028,-255.482 724.274,-212.111 656.538,-192.668"/>
<polygon fill="black" stroke="black" points="657.475,-189.296 646.902,-189.973 655.59,-196.037 657.475,-189.296"/>
</a>
</g>
<!-- http://cds.omdoc.org/urtheories?LF&#45;&gt;http://latin.omdoc.org/foundations/zfc?ConditionalTerms -->
<g id="edge91" class="edge"><title>http://cds.omdoc.org/urtheories?LF&#45;&gt;http://latin.omdoc.org/foundations/zfc?ConditionalTerms</title>
<a class="graphmeta">
<path fill="none" stroke="black" d="M561.138,-428.141C454.656,-424.388 68,-407.297 68,-357 68,-357 68,-357 68,-179 68,-159.319 70.1029,-137.213 72.1523,-120.342"/>
<polygon fill="black" stroke="black" points="75.6666,-120.454 73.4688,-110.089 68.7236,-119.562 75.6666,-120.454"/>
</a>
</g>
<!-- http://cds.omdoc.org/urtheories?LF&#45;&gt;http://latin.omdoc.org/foundations/zfc?BigUnion -->
<g id="edge87" class="edge"><title>http://cds.omdoc.org/urtheories?LF&#45;&gt;http://latin.omdoc.org/foundations/zfc?BigUnion</title>
<a class="graphmeta">
<path fill="none" stroke="black" d="M614.879,-428.077C653.532,-425.542 725.589,-416.192 775,-382 802.576,-362.918 807.988,-352.005 818,-320 829.802,-282.273 820.902,-236.243 812.876,-207.774"/>
<polygon fill="black" stroke="black" points="816.211,-206.711 809.999,-198.128 809.503,-208.712 816.211,-206.711"/>
</a>
</g>
<!-- http://latin.omdoc.org/foundations/zfc?Operations -->
<g id="node43" class="node"><title>http://latin.omdoc.org/foundations/zfc?Operations</title>
<a xlink:href="http://latin.omdoc.org/foundations/zfc?Operations" class="graphtheory">
<ellipse fill="gray" stroke="black" cx="360" cy="-356" rx="50.5427" ry="18"/>
<text text-anchor="middle" x="360" y="-352.3" font-family="Times New Roman,serif" font-size="14.00">Operations</text>
</a>
</g>
<!-- http://cds.omdoc.org/urtheories?LF&#45;&gt;http://latin.omdoc.org/foundations/zfc?Operations -->
<g id="edge101" class="edge"><title>http://cds.omdoc.org/urtheories?LF&#45;&gt;http://latin.omdoc.org/foundations/zfc?Operations</title>
<a class="graphmeta">
<path fill="none" stroke="black" d="M562.849,-423.405C529.009,-415.59 467.157,-400.287 416,-382 410.079,-379.883 403.909,-377.413 397.92,-374.864"/>
<polygon fill="black" stroke="black" points="399.285,-371.641 388.72,-370.834 396.476,-378.052 399.285,-371.641"/>
</a>
</g>
<!-- http://latin.omdoc.org/foundations/zfc?Curry&#45;&gt;http://latin.omdoc.org/foundations/zfc?TypedZFBase -->
<g id="edge15" class="edge"><title>http://latin.omdoc.org/foundations/zfc?Curry&#45;&gt;http://latin.omdoc.org/foundations/zfc?TypedZFBase</title>
<a xlink:href="http://latin.omdoc.org/foundations/zfc?TypesAsSets" class="graphview">
<path fill="none" stroke="black" d="M636.248,-339.247C627.167,-328.045 613.698,-313.379 599,-304 585.341,-295.284 569.261,-288.462 553.957,-283.248"/>
<polygon fill="black" stroke="black" points="554.636,-279.79 544.045,-280.05 552.487,-286.452 554.636,-279.79"/>
</a>
<a xlink:href="http://latin.omdoc.org/foundations/zfc?TypesAsSets" class="TypesAsSets">
<text text-anchor="middle" x="657" y="-308.3" font-family="Times New Roman,serif" font-size="14.00">TypesAsSets</text>
</a>
</g>
<!-- http://latin.omdoc.org/foundations/zfc?Curry&#45;&gt;http://latin.omdoc.org/foundations/zfc?TypedZFBase -->
<g id="edge17" class="edge"><title>http://latin.omdoc.org/foundations/zfc?Curry&#45;&gt;http://latin.omdoc.org/foundations/zfc?TypedZFBase</title>
<a xlink:href="http://latin.omdoc.org/foundations/zfc?TypesAsClasses" class="graphview">
<path fill="none" stroke="black" d="M671.475,-344.008C689.924,-333.909 710.572,-318.373 698,-304 678.22,-281.385 593.499,-291.704 564,-286 559.825,-285.193 555.521,-284.283 551.206,-283.315"/>
<polygon fill="black" stroke="black" points="551.701,-279.837 541.167,-280.971 550.109,-286.653 551.701,-279.837"/>
</a>
<a xlink:href="http://latin.omdoc.org/foundations/zfc?TypesAsClasses" class="TypesAsClasses">
<text text-anchor="middle" x="749" y="-308.3" font-family="Times New Roman,serif" font-size="14.00">TypesAsClasses</text>
</a>
</g>
<!-- http://latin.omdoc.org/type_theories?VOID&#45;&gt;http://latin.omdoc.org/foundations/zfc?TypedZFBase -->
<g id="edge19" class="edge"><title>http://latin.omdoc.org/type_theories?VOID&#45;&gt;http://latin.omdoc.org/foundations/zfc?TypedZFBase</title>
<a xlink:href="http://latin.omdoc.org/translations/tt_zfc?VOID" class="graphview">
<path fill="none" stroke="black" d="M1253.76,-281.815C1235.45,-292.844 1207.89,-307.42 1181.5,-313.5 1166.34,-316.992 1162.05,-313.867 1146.5,-313.5 887.395,-307.387 820.077,-325.965 564,-286 559.528,-285.302 554.925,-284.421 550.327,-283.426"/>
<polygon fill="black" stroke="black" points="550.851,-279.955 540.318,-281.092 549.261,-286.772 550.851,-279.955"/>
</a>
<a xlink:href="http://latin.omdoc.org/translations/tt_zfc?VOID" class="VOID">
<text text-anchor="middle" x="1164" y="-308.3" font-family="Times New Roman,serif" font-size="14.00">VOID</text>
</a>
</g>
<!-- http://latin.omdoc.org/type_theories?TypesTerms&#45;&gt;http://latin.omdoc.org/foundations/zfc?TypedZFBase -->
<g id="edge21" class="edge"><title>http://latin.omdoc.org/type_theories?TypesTerms&#45;&gt;http://latin.omdoc.org/foundations/zfc?TypedZFBase</title>
<a xlink:href="http://latin.omdoc.org/translations/tt_zfc?TypesTerms" class="graphview">
<path fill="none" stroke="black" d="M1094.01,-346.589C1027.58,-335.442 905.146,-315.811 800,-304 695.464,-292.257 667.811,-302.999 564,-286 559.55,-285.271 554.962,-284.39 550.374,-283.417"/>
<polygon fill="black" stroke="black" points="550.905,-279.949 540.38,-281.164 549.365,-286.778 550.905,-279.949"/>
</a>
<a xlink:href="http://latin.omdoc.org/translations/tt_zfc?TypesTerms" class="TypesTerms">
<text text-anchor="middle" x="959" y="-308.3" font-family="Times New Roman,serif" font-size="14.00">TypesTerms</text>
</a>
</g>
<!-- http://latin.omdoc.org/type_theories?TypesTerms&#45;&gt;http://latin.omdoc.org/type_theories?VOID -->
<g id="edge79" class="edge"><title>http://latin.omdoc.org/type_theories?TypesTerms&#45;&gt;http://latin.omdoc.org/type_theories?VOID</title>
<a class="graphinclude">
<path fill="none" stroke="black" d="M1167.92,-339.665C1177.66,-333.609 1188.9,-326.545 1199,-320 1214.9,-309.698 1232.48,-297.927 1246.72,-288.292"/>
<polygon fill="black" stroke="black" points="1248.8,-291.11 1255.12,-282.6 1244.87,-285.317 1248.8,-291.11"/>
</a>
</g>
<!-- http://latin.omdoc.org/type_theories?TypesTerms&#45;&gt;http://latin.omdoc.org/type_theories?UNIT -->
<g id="edge81" class="edge"><title>http://latin.omdoc.org/type_theories?TypesTerms&#45;&gt;http://latin.omdoc.org/type_theories?UNIT</title>
<a class="graphinclude">
<path fill="none" stroke="black" d="M1166.17,-339.465C1172.58,-334.046 1178.9,-327.435 1183,-320 1186.97,-312.796 1189.12,-304.202 1190.25,-296.141"/>
<polygon fill="black" stroke="black" points="1193.75,-296.298 1191.21,-286.013 1186.78,-295.639 1193.75,-296.298"/>
</a>
</g>
<!-- http://latin.omdoc.org/type_theories?UNIT&#45;&gt;http://latin.omdoc.org/foundations/zfc?TypedZFBase -->
<g id="edge23" class="edge"><title>http://latin.omdoc.org/type_theories?UNIT&#45;&gt;http://latin.omdoc.org/foundations/zfc?TypedZFBase</title>
<a xlink:href="http://latin.omdoc.org/translations/tt_zfc?UNIT" class="graphview">
<path fill="none" stroke="black" d="M1178.15,-284.823C1169.07,-295.259 1155.89,-307.74 1141,-313.5 1126.91,-318.953 1122.11,-313.882 1107,-313.5 865.435,-307.387 802.688,-323.67 564,-286 559.598,-285.305 555.069,-284.435 550.541,-283.455"/>
<polygon fill="black" stroke="black" points="551.216,-280.019 540.682,-281.16 549.628,-286.836 551.216,-280.019"/>
</a>
<a xlink:href="http://latin.omdoc.org/translations/tt_zfc?UNIT" class="UNIT">
<text text-anchor="middle" x="1124" y="-308.3" font-family="Times New Roman,serif" font-size="14.00">UNIT</text>
</a>
</g>
<!-- http://latin.omdoc.org/foundations/zfc?UniversalQuantifier&#45;&gt;http://latin.omdoc.org/foundations/zfc?TypedZFBase -->
<g id="edge25" class="edge"><title>http://latin.omdoc.org/foundations/zfc?UniversalQuantifier&#45;&gt;http://latin.omdoc.org/foundations/zfc?TypedZFBase</title>
<a xlink:href="http://latin.omdoc.org/foundations/zfc?_UQ" class="graphview">
<path fill="none" stroke="black" d="M981.18,-268C871.663,-268 676.353,-268 570.343,-268"/>
<polygon fill="black" stroke="black" points="570.056,-264.5 560.056,-268 570.056,-271.5 570.056,-264.5"/>
</a>
<a xlink:href="http://latin.omdoc.org/foundations/zfc?_UQ" class="_UQ">
<text text-anchor="middle" x="770.529" y="-274.8" font-family="Times New Roman,serif" font-size="14.00">_UQ</text>
</a>
</g>
<!-- http://latin.omdoc.org/foundations/zfc?UniversalQuantifier&#45;&gt;http://latin.omdoc.org/foundations/zfc?TypedZF -->
<g id="edge73" class="edge"><title>http://latin.omdoc.org/foundations/zfc?UniversalQuantifier&#45;&gt;http://latin.omdoc.org/foundations/zfc?TypedZF</title>
<a class="graphinclude">
<path fill="none" stroke="black" d="M1107.69,-253.25C1158.84,-235.763 1229.8,-202.871 1199,-162 1134.26,-76.0893 797.212,-36.1905 664.13,-23.6077"/>
<polygon fill="black" stroke="black" points="664.058,-20.086 653.777,-22.6452 663.41,-27.0559 664.058,-20.086"/>
</a>
</g>
<!-- http://latin.omdoc.org/foundations/zfc?UniversalQuantifier&#45;&gt;http://latin.omdoc.org/foundations/zfc?DependentFunctions -->
<g id="edge77" class="edge"><title>http://latin.omdoc.org/foundations/zfc?UniversalQuantifier&#45;&gt;http://latin.omdoc.org/foundations/zfc?DependentFunctions</title>
<a class="graphinclude">
<path fill="none" stroke="black" d="M1069.69,-250.009C1075.96,-237.759 1084.54,-220.998 1091.67,-207.062"/>
<polygon fill="black" stroke="black" points="1094.89,-208.452 1096.33,-197.956 1088.65,-205.264 1094.89,-208.452"/>
</a>
</g>
<!-- http://latin.omdoc.org/foundations/zfc?UniversalQuantifier&#45;&gt;http://latin.omdoc.org/foundations/isabelle?NesetZFC -->
<g id="edge75" class="edge"><title>http://latin.omdoc.org/foundations/zfc?UniversalQuantifier&#45;&gt;http://latin.omdoc.org/foundations/isabelle?NesetZFC</title>
<a class="graphinclude">
<path fill="none" stroke="black" d="M1040.18,-250.418C1023.2,-236.898 999.073,-217.687 980.505,-202.902"/>
<polygon fill="black" stroke="black" points="982.671,-200.153 972.668,-196.661 978.31,-205.629 982.671,-200.153"/>
</a>
</g>
<!-- http://latin.omdoc.org/foundations/zfc?BigInter&#45;&gt;http://latin.omdoc.org/foundations/zfc?TypedZF -->
<g id="edge71" class="edge"><title>http://latin.omdoc.org/foundations/zfc?BigInter&#45;&gt;http://latin.omdoc.org/foundations/zfc?TypedZF</title>
<a class="graphinclude">
<path fill="none" stroke="black" d="M518.532,-162.48C536.398,-134.455 572.755,-77.4229 593.855,-44.3263"/>
<polygon fill="black" stroke="black" points="596.949,-45.9838 599.373,-35.67 591.046,-42.2208 596.949,-45.9838"/>
</a>
</g>
<!-- http://latin.omdoc.org/foundations/zfc?BigInter&#45;&gt;http://latin.omdoc.org/foundations/zfc?ImageTypes -->
<g id="edge69" class="edge"><title>http://latin.omdoc.org/foundations/zfc?BigInter&#45;&gt;http://latin.omdoc.org/foundations/zfc?ImageTypes</title>
<a xlink:href="http://latin.omdoc.org/foundations/zfc?_BI" class="graphview">
<path fill="none" stroke="black" d="M535.67,-167.042C569.341,-152.491 626.51,-127.784 665.471,-110.947"/>
<polygon fill="black" stroke="black" points="667.167,-114.027 674.958,-106.847 664.39,-107.601 667.167,-114.027"/>
</a>
<a xlink:href="http://latin.omdoc.org/foundations/zfc?_BI" class="_BI">
<text text-anchor="middle" x="637" y="-132.3" font-family="Times New Roman,serif" font-size="14.00">_BI</text>
</a>
</g>
<!-- http://latin.omdoc.org/foundations/zfc?DisjUnion&#45;&gt;http://latin.omdoc.org/foundations/zfc?TypedZF -->
<g id="edge67" class="edge"><title>http://latin.omdoc.org/foundations/zfc?DisjUnion&#45;&gt;http://latin.omdoc.org/foundations/zfc?TypedZF</title>
<a class="graphinclude">
<path fill="none" stroke="black" d="M145.881,-161.773C151.546,-133.884 166.966,-79.4123 204,-54 232.298,-34.5823 450.949,-24.4926 555.134,-20.746"/>
<polygon fill="black" stroke="black" points="555.279,-24.2431 565.15,-20.3927 555.033,-17.2475 555.279,-24.2431"/>
</a>
</g>
<!-- http://latin.omdoc.org/foundations/zfc?DisjUnion&#45;&gt;http://latin.omdoc.org/foundations/zfc?ConditionalTerms -->
<g id="edge65" class="edge"><title>http://latin.omdoc.org/foundations/zfc?DisjUnion&#45;&gt;http://latin.omdoc.org/foundations/zfc?ConditionalTerms</title>
<a xlink:href="http://latin.omdoc.org/foundations/zfc?_DU" class="graphview">
<path fill="none" stroke="black" d="M130.082,-162.418C120.228,-149.77 106.494,-132.142 95.3329,-117.815"/>
<polygon fill="black" stroke="black" points="98.014,-115.562 89.1072,-109.824 92.492,-119.864 98.014,-115.562"/>
</a>
<a xlink:href="http://latin.omdoc.org/foundations/zfc?_DU" class="_DU">
<text text-anchor="middle" x="130" y="-132.3" font-family="Times New Roman,serif" font-size="14.00">_DU</text>
</a>
</g>
<!-- http://latin.omdoc.org/foundations/zfc?ImageTypes&#45;&gt;http://latin.omdoc.org/foundations/zfc?TypedZFBase -->
<g id="edge33" class="edge"><title>http://latin.omdoc.org/foundations/zfc?ImageTypes&#45;&gt;http://latin.omdoc.org/foundations/zfc?TypedZFBase</title>
<a xlink:href="http://latin.omdoc.org/foundations/zfc?_I" class="graphview">
<path fill="none" stroke="black" d="M711.793,-109.943C718.958,-139.331 728.406,-199.703 696,-232 685.582,-242.383 578.366,-238.842 564,-242 555.983,-243.762 547.638,-246.282 539.669,-249.05"/>
<polygon fill="black" stroke="black" points="538.374,-245.797 530.182,-252.516 540.776,-252.372 538.374,-245.797"/>
</a>
<a xlink:href="http://latin.omdoc.org/foundations/zfc?_I" class="_I">
<text text-anchor="middle" x="725.5" y="-176.3" font-family="Times New Roman,serif" font-size="14.00">_I</text>
</a>
</g>
<!-- http://latin.omdoc.org/foundations/zfc?ImageTypes&#45;&gt;http://latin.omdoc.org/foundations/zfc?TypedZF -->
<g id="edge63" class="edge"><title>http://latin.omdoc.org/foundations/zfc?ImageTypes&#45;&gt;http://latin.omdoc.org/foundations/zfc?TypedZF</title>
<a class="graphinclude">
<path fill="none" stroke="black" d="M685.473,-75.0209C671.755,-64.839 653.817,-51.5241 638.871,-40.43"/>
<polygon fill="black" stroke="black" points="640.587,-37.3449 630.471,-34.1951 636.415,-42.9657 640.587,-37.3449"/>
</a>
</g>
<!-- http://latin.omdoc.org/foundations/zfc?ExistentialQuantifier&#45;&gt;http://latin.omdoc.org/foundations/zfc?TypedZFBase -->
<g id="edge37" class="edge"><title>http://latin.omdoc.org/foundations/zfc?ExistentialQuantifier&#45;&gt;http://latin.omdoc.org/foundations/zfc?TypedZFBase</title>
<a xlink:href="http://latin.omdoc.org/foundations/zfc?_EQ" class="graphview">
<path fill="none" stroke="black" d="M391.576,-197.258C412.242,-210.929 441.947,-230.581 464.562,-245.541"/>
<polygon fill="black" stroke="black" points="462.885,-248.628 473.156,-251.226 466.747,-242.79 462.885,-248.628"/>
</a>
<a xlink:href="http://latin.omdoc.org/foundations/zfc?_EQ" class="_EQ">
<text text-anchor="middle" x="457.5" y="-220.3" font-family="Times New Roman,serif" font-size="14.00">_EQ</text>
</a>
</g>
<!-- http://latin.omdoc.org/foundations/zfc?ExistentialQuantifier&#45;&gt;http://latin.omdoc.org/foundations/zfc?TypedZF -->
<g id="edge61" class="edge"><title>http://latin.omdoc.org/foundations/zfc?ExistentialQuantifier&#45;&gt;http://latin.omdoc.org/foundations/zfc?TypedZF</title>
<a class="graphinclude">
<path fill="none" stroke="black" d="M391.637,-162.778C436.165,-133.46 529.944,-71.7117 578.845,-39.5133"/>
<polygon fill="black" stroke="black" points="581.005,-42.2821 587.432,-33.8595 577.155,-36.4356 581.005,-42.2821"/>
</a>
</g>
<!-- http://latin.omdoc.org/foundations/zfc?Products&#45;&gt;http://latin.omdoc.org/foundations/zfc?TypedZFBase -->
<g id="edge41" class="edge"><title>http://latin.omdoc.org/foundations/zfc?Products&#45;&gt;http://latin.omdoc.org/foundations/zfc?TypedZFBase</title>
<a xlink:href="http://latin.omdoc.org/foundations/zfc?_P" class="graphview">
<path fill="none" stroke="black" d="M599.027,-197.728C591.317,-208.526 580.228,-222.314 568,-232 560.082,-238.272 550.858,-243.828 541.731,-248.561"/>
<polygon fill="black" stroke="black" points="540.111,-245.457 532.688,-253.017 543.205,-251.737 540.111,-245.457"/>
</a>
<a xlink:href="http://latin.omdoc.org/foundations/zfc?_P" class="_P">
<text text-anchor="middle" x="592" y="-220.3" font-family="Times New Roman,serif" font-size="14.00">_P</text>
</a>
</g>
<!-- http://latin.omdoc.org/foundations/zfc?Products&#45;&gt;http://latin.omdoc.org/foundations/zfc?TypedZF -->
<g id="edge59" class="edge"><title>http://latin.omdoc.org/foundations/zfc?Products&#45;&gt;http://latin.omdoc.org/foundations/zfc?TypedZF</title>
<a class="graphinclude">
<path fill="none" stroke="black" d="M610,-161.877C610,-134.354 610,-80.0083 610,-46.8486"/>
<polygon fill="black" stroke="black" points="613.5,-46.4847 610,-36.4847 606.5,-46.4848 613.5,-46.4847"/>
</a>
</g>
<!-- http://latin.omdoc.org/foundations/zfc?ConditionalTerms&#45;&gt;http://latin.omdoc.org/foundations/zfc?TypedZF -->
<g id="edge57" class="edge"><title>http://latin.omdoc.org/foundations/zfc?ConditionalTerms&#45;&gt;http://latin.omdoc.org/foundations/zfc?TypedZF</title>
<a class="graphinclude">
<path fill="none" stroke="black" d="M106.857,-75.5131C123.872,-67.6975 145.624,-58.8646 166,-54 238.439,-36.7056 453.263,-25.6207 555.173,-21.1928"/>
<polygon fill="black" stroke="black" points="555.422,-24.6854 565.263,-20.7601 555.122,-17.6918 555.422,-24.6854"/>
</a>
</g>
<!-- http://latin.omdoc.org/foundations/zfc?BigUnion&#45;&gt;http://latin.omdoc.org/foundations/zfc?TypedZF -->
<g id="edge55" class="edge"><title>http://latin.omdoc.org/foundations/zfc?BigUnion&#45;&gt;http://latin.omdoc.org/foundations/zfc?TypedZF</title>
<a class="graphinclude">
<path fill="none" stroke="black" d="M803.287,-161.64C801.405,-138.547 794.692,-97.8686 771,-74 742.497,-45.2844 698.402,-31.552 663.561,-24.99"/>
<polygon fill="black" stroke="black" points="663.989,-21.512 653.537,-23.2488 662.791,-28.4087 663.989,-21.512"/>
</a>
</g>
<!-- http://latin.omdoc.org/foundations/zfc?BigUnion&#45;&gt;http://latin.omdoc.org/foundations/zfc?ImageTypes -->
<g id="edge53" class="edge"><title>http://latin.omdoc.org/foundations/zfc?BigUnion&#45;&gt;http://latin.omdoc.org/foundations/zfc?ImageTypes</title>
<a xlink:href="http://latin.omdoc.org/foundations/zfc?_BU" class="graphview">
<path fill="none" stroke="black" d="M785.004,-163.529C777.735,-157.516 769.413,-150.518 762,-144 751.915,-135.133 741.03,-125.134 731.626,-116.354"/>
<polygon fill="black" stroke="black" points="733.813,-113.606 724.125,-109.316 729.023,-118.711 733.813,-113.606"/>
</a>
<a xlink:href="http://latin.omdoc.org/foundations/zfc?_BU" class="_BU">
<text text-anchor="middle" x="775.5" y="-132.3" font-family="Times New Roman,serif" font-size="14.00">_BU</text>
</a>
</g>
<!-- http://latin.omdoc.org/foundations/zfc?Operations&#45;&gt;http://latin.omdoc.org/foundations/zfc?TypedZFBase -->
<g id="edge49" class="edge"><title>http://latin.omdoc.org/foundations/zfc?Operations&#45;&gt;http://latin.omdoc.org/foundations/zfc?TypedZFBase</title>
<a class="graphinclude">
<path fill="none" stroke="black" d="M383.864,-340.02C405.849,-326.219 438.7,-305.597 463.347,-290.125"/>
<polygon fill="black" stroke="black" points="465.413,-292.961 472.021,-284.68 461.691,-287.032 465.413,-292.961"/>
</a>
</g>
</g>
</svg>
