<?xml version="1.0" encoding="UTF-8" standalone="no"?>
<!DOCTYPE svg PUBLIC "-//W3C//DTD SVG 1.1//EN"
 "http://www.w3.org/Graphics/SVG/1.1/DTD/svg11.dtd">
<!-- Generated by graphviz version 2.28.0 (20110507.0327)
 -->
<!-- Title: MMT Pages: 1 -->
<svg width="1095pt" height="530pt"
 viewBox="0.00 0.00 1095.00 530.00" xmlns="http://www.w3.org/2000/svg" xmlns:xlink="http://www.w3.org/1999/xlink">
<g id="graph1" class="graph" transform="scale(1 1) rotate(0) translate(4 526)">
<title>MMT</title>
<polygon fill="white" stroke="white" points="-4,5 -4,-526 1092,-526 1092,5 -4,5"/>
<g id="graph2" class="cluster"><title>cluster_local</title>
<polygon fill="none" stroke="black" points="172,-242 172,-382 314,-382 314,-242 172,-242"/>
</g>
<!-- http://latin.omdoc.org/foundations/zfc?Products -->
<g id="node2" class="node"><title>http://latin.omdoc.org/foundations/zfc?Products</title>
<a xlink:href="http://latin.omdoc.org/foundations/zfc?Products" class="graphtheory">
<ellipse fill="none" stroke="black" cx="224" cy="-356" rx="44.2946" ry="18"/>
<text text-anchor="middle" x="224" y="-352.3" font-family="Times New Roman,serif" font-size="14.00">Products</text>
</a>
</g>
<!-- http://latin.omdoc.org/foundations/zfc?TypedZFBase -->
<g id="node3" class="node"><title>http://latin.omdoc.org/foundations/zfc?TypedZFBase</title>
<a xlink:href="http://latin.omdoc.org/foundations/zfc?TypedZFBase" class="graphtheory">
<ellipse fill="none" stroke="black" cx="243" cy="-268" rx="63.0666" ry="18"/>
<text text-anchor="middle" x="243" y="-264.3" font-family="Times New Roman,serif" font-size="14.00">TypedZFBase</text>
</a>
</g>
<!-- http://latin.omdoc.org/foundations/zfc?Products&#45;&gt;http://latin.omdoc.org/foundations/zfc?TypedZFBase -->
<g id="edge3" class="edge"><title>http://latin.omdoc.org/foundations/zfc?Products&#45;&gt;http://latin.omdoc.org/foundations/zfc?TypedZFBase</title>
<a xlink:href="http://latin.omdoc.org/foundations/zfc?_P" class="graphview">
<path fill="none" stroke="black" d="M221.908,-337.739C221.211,-327.735 221.211,-314.985 224,-304 224.775,-300.949 225.875,-297.876 227.16,-294.885"/>
<polygon fill="black" stroke="black" points="230.39,-296.251 231.725,-285.741 224.127,-293.125 230.39,-296.251"/>
</a>
<a xlink:href="http://latin.omdoc.org/foundations/zfc?_P" class="_P">
<text text-anchor="middle" x="232" y="-308.3" font-family="Times New Roman,serif" font-size="14.00">_P</text>
</a>
</g>
<!-- http://latin.omdoc.org/foundations/zfc?TypedZF -->
<g id="node5" class="node"><title>http://latin.omdoc.org/foundations/zfc?TypedZF</title>
<a xlink:href="http://latin.omdoc.org/foundations/zfc?TypedZF" class="graphtheory">
<ellipse fill="gray" stroke="black" cx="556" cy="-18" rx="45.244" ry="18"/>
<text text-anchor="middle" x="556" y="-14.3" font-family="Times New Roman,serif" font-size="14.00">TypedZF</text>
</a>
</g>
<!-- http://latin.omdoc.org/foundations/zfc?Products&#45;&gt;http://latin.omdoc.org/foundations/zfc?TypedZF -->
<g id="edge5" class="edge"><title>http://latin.omdoc.org/foundations/zfc?Products&#45;&gt;http://latin.omdoc.org/foundations/zfc?TypedZF</title>
<a class="graphinclude">
<path fill="none" stroke="black" d="M201.887,-340.409C138.301,-296.767 -35.4109,-164.663 46,-74 75.9854,-40.6071 374.974,-25.7007 500.729,-20.8724"/>
<polygon fill="black" stroke="black" points="501.053,-24.3628 510.914,-20.4889 500.79,-17.3677 501.053,-24.3628"/>
</a>
</g>
<!-- http://latin.omdoc.org/foundations/zfc?TypedZFBase&#45;&gt;http://latin.omdoc.org/foundations/zfc?Products -->
<g id="edge9" class="edge"><title>http://latin.omdoc.org/foundations/zfc?TypedZFBase&#45;&gt;http://latin.omdoc.org/foundations/zfc?Products</title>
<a class="graphinclude">
<path fill="none" stroke="black" d="M243.555,-286.237C243.49,-296.233 242.74,-308.983 240,-320 239.25,-323.015 238.245,-326.089 237.102,-329.102"/>
<polygon fill="black" stroke="black" points="233.852,-327.799 233.123,-338.368 240.285,-330.56 233.852,-327.799"/>
</a>
</g>
<!-- http://latin.omdoc.org/foundations/isabelle?NesetZFC -->
<g id="node12" class="node"><title>http://latin.omdoc.org/foundations/isabelle?NesetZFC</title>
<a xlink:href="http://latin.omdoc.org/foundations/isabelle?NesetZFC" class="graphtheory">
<ellipse fill="gray" stroke="black" cx="942" cy="-180" rx="48.1437" ry="18"/>
<text text-anchor="middle" x="942" y="-176.3" font-family="Times New Roman,serif" font-size="14.00">NesetZFC</text>
</a>
</g>
<!-- http://latin.omdoc.org/foundations/zfc?TypedZFBase&#45;&gt;http://latin.omdoc.org/foundations/isabelle?NesetZFC -->
<g id="edge13" class="edge"><title>http://latin.omdoc.org/foundations/zfc?TypedZFBase&#45;&gt;http://latin.omdoc.org/foundations/isabelle?NesetZFC</title>
<a class="graphinclude">
<path fill="none" stroke="black" d="M275.427,-252.428C286.207,-248.257 298.42,-244.238 310,-242 398.61,-224.878 626.317,-242.101 716,-232 791.702,-223.474 810.047,-216.286 884,-198 887.899,-197.036 891.93,-195.98 895.964,-194.881"/>
<polygon fill="black" stroke="black" points="897.245,-198.157 905.93,-192.09 895.357,-191.417 897.245,-198.157"/>
</a>
</g>
<!-- http://latin.omdoc.org/foundations/zfc?UniversalQuantifier -->
<g id="node23" class="node"><title>http://latin.omdoc.org/foundations/zfc?UniversalQuantifier</title>
<a xlink:href="http://latin.omdoc.org/foundations/zfc?UniversalQuantifier" class="graphtheory">
<ellipse fill="gray" stroke="black" cx="941" cy="-268" rx="79.4147" ry="18"/>
<text text-anchor="middle" x="941" y="-264.3" font-family="Times New Roman,serif" font-size="14.00">UniversalQuantifier</text>
</a>
</g>
<!-- http://latin.omdoc.org/foundations/zfc?TypedZFBase&#45;&gt;http://latin.omdoc.org/foundations/zfc?UniversalQuantifier -->
<g id="edge27" class="edge"><title>http://latin.omdoc.org/foundations/zfc?TypedZFBase&#45;&gt;http://latin.omdoc.org/foundations/zfc?UniversalQuantifier</title>
<a class="graphinclude">
<path fill="none" stroke="black" d="M306.052,-268C487.798,-268 669.544,-268 851.29,-268"/>
<polygon fill="black" stroke="black" points="851.321,-271.5 861.321,-268 851.321,-264.5 851.321,-271.5"/>
</a>
</g>
<!-- http://latin.omdoc.org/foundations/zfc?BigInter -->
<g id="node26" class="node"><title>http://latin.omdoc.org/foundations/zfc?BigInter</title>
<a xlink:href="http://latin.omdoc.org/foundations/zfc?BigInter" class="graphtheory">
<ellipse fill="gray" stroke="black" cx="729" cy="-180" rx="39.4691" ry="18"/>
<text text-anchor="middle" x="729" y="-176.3" font-family="Times New Roman,serif" font-size="14.00">BigInter</text>
</a>
</g>
<!-- http://latin.omdoc.org/foundations/zfc?TypedZFBase&#45;&gt;http://latin.omdoc.org/foundations/zfc?BigInter -->
<g id="edge29" class="edge"><title>http://latin.omdoc.org/foundations/zfc?TypedZFBase&#45;&gt;http://latin.omdoc.org/foundations/zfc?BigInter</title>
<a class="graphinclude">
<path fill="none" stroke="black" d="M275.435,-252.469C286.216,-248.301 298.426,-244.272 310,-242 381.339,-227.995 566.902,-251.278 637,-232 659.792,-225.732 683.056,-212.764 700.487,-201.474"/>
<polygon fill="black" stroke="black" points="702.663,-204.23 709.038,-195.768 698.777,-198.408 702.663,-204.23"/>
</a>
</g>
<!-- http://latin.omdoc.org/foundations/zfc?DisjUnion -->
<g id="node28" class="node"><title>http://latin.omdoc.org/foundations/zfc?DisjUnion</title>
<a xlink:href="http://latin.omdoc.org/foundations/zfc?DisjUnion" class="graphtheory">
<ellipse fill="gray" stroke="black" cx="165" cy="-180" rx="46.1964" ry="18"/>
<text text-anchor="middle" x="165" y="-176.3" font-family="Times New Roman,serif" font-size="14.00">DisjUnion</text>
</a>
</g>
<!-- http://latin.omdoc.org/foundations/zfc?TypedZFBase&#45;&gt;http://latin.omdoc.org/foundations/zfc?DisjUnion -->
<g id="edge31" class="edge"><title>http://latin.omdoc.org/foundations/zfc?TypedZFBase&#45;&gt;http://latin.omdoc.org/foundations/zfc?DisjUnion</title>
<a class="graphinclude">
<path fill="none" stroke="black" d="M217.483,-251.321C209.711,-245.811 201.51,-239.184 195,-232 188.212,-224.509 182.21,-215.242 177.392,-206.67"/>
<polygon fill="black" stroke="black" points="180.437,-204.941 172.648,-197.759 174.258,-208.231 180.437,-204.941"/>
</a>
</g>
<!-- http://latin.omdoc.org/foundations/zfc?PredSubTypes -->
<g id="node30" class="node"><title>http://latin.omdoc.org/foundations/zfc?PredSubTypes</title>
<a xlink:href="http://latin.omdoc.org/foundations/zfc?PredSubTypes" class="graphtheory">
<ellipse fill="gray" stroke="black" cx="480" cy="-180" rx="65.4659" ry="18"/>
<text text-anchor="middle" x="480" y="-176.3" font-family="Times New Roman,serif" font-size="14.00">PredSubTypes</text>
</a>
</g>
<!-- http://latin.omdoc.org/foundations/zfc?TypedZFBase&#45;&gt;http://latin.omdoc.org/foundations/zfc?PredSubTypes -->
<g id="edge35" class="edge"><title>http://latin.omdoc.org/foundations/zfc?TypedZFBase&#45;&gt;http://latin.omdoc.org/foundations/zfc?PredSubTypes</title>
<a class="graphinclude">
<path fill="none" stroke="black" d="M276.595,-252.688C287.127,-248.686 298.901,-244.699 310,-242 346.104,-233.221 357.79,-243.866 393,-232 413.158,-225.206 433.779,-213.373 449.883,-202.815"/>
<polygon fill="black" stroke="black" points="451.996,-205.611 458.333,-197.12 448.084,-199.806 451.996,-205.611"/>
</a>
</g>
<!-- http://latin.omdoc.org/foundations/zfc?ImageTypes -->
<g id="node33" class="node"><title>http://latin.omdoc.org/foundations/zfc?ImageTypes</title>
<a xlink:href="http://latin.omdoc.org/foundations/zfc?ImageTypes" class="graphtheory">
<ellipse fill="gray" stroke="black" cx="642" cy="-92" rx="55.3436" ry="18"/>
<text text-anchor="middle" x="642" y="-88.3" font-family="Times New Roman,serif" font-size="14.00">ImageTypes</text>
</a>
</g>
<!-- http://latin.omdoc.org/foundations/zfc?TypedZFBase&#45;&gt;http://latin.omdoc.org/foundations/zfc?ImageTypes -->
<g id="edge39" class="edge"><title>http://latin.omdoc.org/foundations/zfc?TypedZFBase&#45;&gt;http://latin.omdoc.org/foundations/zfc?ImageTypes</title>
<a class="graphinclude">
<path fill="none" stroke="black" d="M275.804,-252.476C286.502,-248.362 298.571,-244.363 310,-242 395.852,-224.246 420.975,-248.895 507,-232 551.826,-223.196 571.535,-230.139 604,-198 625.027,-177.184 634.489,-143.867 638.702,-120.354"/>
<polygon fill="black" stroke="black" points="642.183,-120.745 640.29,-110.321 635.269,-119.65 642.183,-120.745"/>
</a>
</g>
<!-- http://latin.omdoc.org/foundations/zfc?ExistentialQuantifier -->
<g id="node36" class="node"><title>http://latin.omdoc.org/foundations/zfc?ExistentialQuantifier</title>
<a xlink:href="http://latin.omdoc.org/foundations/zfc?ExistentialQuantifier" class="graphtheory">
<ellipse fill="gray" stroke="black" cx="313" cy="-180" rx="83.2892" ry="18"/>
<text text-anchor="middle" x="313" y="-176.3" font-family="Times New Roman,serif" font-size="14.00">ExistentialQuantifier</text>
</a>
</g>
<!-- http://latin.omdoc.org/foundations/zfc?TypedZFBase&#45;&gt;http://latin.omdoc.org/foundations/zfc?ExistentialQuantifier -->
<g id="edge43" class="edge"><title>http://latin.omdoc.org/foundations/zfc?TypedZFBase&#45;&gt;http://latin.omdoc.org/foundations/zfc?ExistentialQuantifier</title>
<a class="graphinclude">
<path fill="none" stroke="black" d="M256.83,-250.009C267.088,-237.406 281.234,-220.027 292.762,-205.863"/>
<polygon fill="black" stroke="black" points="295.601,-207.921 299.199,-197.956 290.172,-203.502 295.601,-207.921"/>
</a>
</g>
<!-- http://latin.omdoc.org/foundations/zfc?ConditionalTerms -->
<g id="node39" class="node"><title>http://latin.omdoc.org/foundations/zfc?ConditionalTerms</title>
<a xlink:href="http://latin.omdoc.org/foundations/zfc?ConditionalTerms" class="graphtheory">
<ellipse fill="gray" stroke="black" cx="131" cy="-92" rx="76.0649" ry="18"/>
<text text-anchor="middle" x="131" y="-88.3" font-family="Times New Roman,serif" font-size="14.00">ConditionalTerms</text>
</a>
</g>
<!-- http://latin.omdoc.org/foundations/zfc?TypedZFBase&#45;&gt;http://latin.omdoc.org/foundations/zfc?ConditionalTerms -->
<g id="edge45" class="edge"><title>http://latin.omdoc.org/foundations/zfc?TypedZFBase&#45;&gt;http://latin.omdoc.org/foundations/zfc?ConditionalTerms</title>
<a class="graphinclude">
<path fill="none" stroke="black" d="M195.487,-256.079C165,-246.343 127.734,-228.718 109,-198 94.2355,-173.79 104.814,-141.239 115.814,-118.83"/>
<polygon fill="black" stroke="black" points="118.95,-120.385 120.481,-109.901 112.746,-117.142 118.95,-120.385"/>
</a>
</g>
<!-- http://latin.omdoc.org/foundations/zfc?BigUnion -->
<g id="node41" class="node"><title>http://latin.omdoc.org/foundations/zfc?BigUnion</title>
<a xlink:href="http://latin.omdoc.org/foundations/zfc?BigUnion" class="graphtheory">
<ellipse fill="gray" stroke="black" cx="831" cy="-180" rx="44.271" ry="18"/>
<text text-anchor="middle" x="831" y="-176.3" font-family="Times New Roman,serif" font-size="14.00">BigUnion</text>
</a>
</g>
<!-- http://latin.omdoc.org/foundations/zfc?TypedZFBase&#45;&gt;http://latin.omdoc.org/foundations/zfc?BigUnion -->
<g id="edge47" class="edge"><title>http://latin.omdoc.org/foundations/zfc?TypedZFBase&#45;&gt;http://latin.omdoc.org/foundations/zfc?BigUnion</title>
<a class="graphinclude">
<path fill="none" stroke="black" d="M275.431,-252.45C286.212,-248.28 298.423,-244.256 310,-242 388.553,-226.693 591.086,-245.324 670,-232 712.445,-224.833 759.157,-209.113 791.283,-197.008"/>
<polygon fill="black" stroke="black" points="792.675,-200.223 800.764,-193.38 790.174,-193.685 792.675,-200.223"/>
</a>
</g>
<!-- http://latin.omdoc.org/type_theories?Product -->
<g id="node7" class="node"><title>http://latin.omdoc.org/type_theories?Product</title>
<a xlink:href="http://latin.omdoc.org/type_theories?Product" class="graphtheory">
<ellipse fill="gray" stroke="black" cx="402" cy="-356" rx="39.9464" ry="18"/>
<text text-anchor="middle" x="402" y="-352.3" font-family="Times New Roman,serif" font-size="14.00">Product</text>
</a>
</g>
<!-- http://latin.omdoc.org/type_theories?Product&#45;&gt;http://latin.omdoc.org/foundations/zfc?Products -->
<g id="edge7" class="edge"><title>http://latin.omdoc.org/type_theories?Product&#45;&gt;http://latin.omdoc.org/foundations/zfc?Products</title>
<a xlink:href="http://latin.omdoc.org/translations/tt_zfc?Product" class="graphview">
<path fill="none" stroke="black" d="M361.753,-356C337.139,-356 305.329,-356 278.48,-356"/>
<polygon fill="black" stroke="black" points="278.458,-352.5 268.458,-356 278.458,-359.5 278.458,-352.5"/>
</a>
<a xlink:href="http://latin.omdoc.org/translations/tt_zfc?Product" class="Product">
<text text-anchor="middle" x="314.852" y="-362.8" font-family="Times New Roman,serif" font-size="14.00">Product</text>
</a>
</g>
<!-- http://cds.omdoc.org/urtheories?LF -->
<g id="node10" class="node"><title>http://cds.omdoc.org/urtheories?LF</title>
<a xlink:href="http://cds.omdoc.org/urtheories?LF" class="graphtheory">
<ellipse fill="gray" stroke="black" cx="334" cy="-504" rx="27" ry="18"/>
<text text-anchor="middle" x="334" y="-500.3" font-family="Times New Roman,serif" font-size="14.00">LF</text>
</a>
</g>
<!-- http://cds.omdoc.org/urtheories?LF&#45;&gt;http://latin.omdoc.org/foundations/zfc?Products -->
<g id="edge11" class="edge"><title>http://cds.omdoc.org/urtheories?LF&#45;&gt;http://latin.omdoc.org/foundations/zfc?Products</title>
<a class="graphmeta">
<path fill="none" stroke="black" d="M307.315,-501.08C274.53,-497.125 220.167,-485.024 195,-448 181.339,-427.903 192.823,-400.992 205.14,-381.656"/>
<polygon fill="black" stroke="black" points="208.053,-383.597 210.77,-373.357 202.26,-379.667 208.053,-383.597"/>
</a>
</g>
<!-- http://cds.omdoc.org/urtheories?LF&#45;&gt;http://latin.omdoc.org/foundations/zfc?TypedZFBase -->
<g id="edge51" class="edge"><title>http://cds.omdoc.org/urtheories?LF&#45;&gt;http://latin.omdoc.org/foundations/zfc?TypedZFBase</title>
<a class="graphmeta">
<path fill="none" stroke="black" d="M333.114,-485.839C330.51,-449.471 320.422,-363.14 282,-304 279.293,-299.833 275.965,-295.85 272.405,-292.163"/>
<polygon fill="black" stroke="black" points="274.561,-289.385 264.896,-285.047 269.746,-294.466 274.561,-289.385"/>
</a>
</g>
<!-- http://cds.omdoc.org/urtheories?LF&#45;&gt;http://latin.omdoc.org/foundations/zfc?TypedZF -->
<g id="edge101" class="edge"><title>http://cds.omdoc.org/urtheories?LF&#45;&gt;http://latin.omdoc.org/foundations/zfc?TypedZF</title>
<a class="graphmeta">
<path fill="none" stroke="black" d="M361.245,-503.311C496.242,-504.499 1087,-505.445 1087,-431 1087,-431 1087,-431 1087,-91 1087,-43.3988 747.598,-25.8898 611.487,-20.782"/>
<polygon fill="black" stroke="black" points="611.394,-17.2764 601.273,-20.4078 611.138,-24.2717 611.394,-17.2764"/>
</a>
</g>
<!-- http://cds.omdoc.org/urtheories?LF&#45;&gt;http://latin.omdoc.org/type_theories?Product -->
<g id="edge91" class="edge"><title>http://cds.omdoc.org/urtheories?LF&#45;&gt;http://latin.omdoc.org/type_theories?Product</title>
<a class="graphmeta">
<path fill="none" stroke="black" d="M341.668,-486.536C353.339,-461.477 375.677,-413.518 389.653,-383.509"/>
<polygon fill="black" stroke="black" points="392.996,-384.622 394.045,-374.08 386.65,-381.667 392.996,-384.622"/>
</a>
</g>
<!-- http://cds.omdoc.org/urtheories?LF&#45;&gt;http://latin.omdoc.org/foundations/isabelle?NesetZFC -->
<g id="edge113" class="edge"><title>http://cds.omdoc.org/urtheories?LF&#45;&gt;http://latin.omdoc.org/foundations/isabelle?NesetZFC</title>
<a class="graphmeta">
<path fill="none" stroke="black" d="M361.156,-503.17C491.759,-503.635 1049,-501.489 1049,-431 1049,-431 1049,-431 1049,-311 1049,-279.071 1047.57,-267.973 1029,-242 1016.3,-224.238 996.745,-209.86 979.389,-199.534"/>
<polygon fill="black" stroke="black" points="980.983,-196.414 970.561,-194.508 977.519,-202.497 980.983,-196.414"/>
</a>
</g>
<!-- http://latin.omdoc.org/foundations/zfc?Curry -->
<g id="node14" class="node"><title>http://latin.omdoc.org/foundations/zfc?Curry</title>
<a xlink:href="http://latin.omdoc.org/foundations/zfc?Curry" class="graphtheory">
<ellipse fill="gray" stroke="black" cx="766" cy="-356" rx="31.2735" ry="18"/>
<text text-anchor="middle" x="766" y="-352.3" font-family="Times New Roman,serif" font-size="14.00">Curry</text>
</a>
</g>
<!-- http://cds.omdoc.org/urtheories?LF&#45;&gt;http://latin.omdoc.org/foundations/zfc?Curry -->
<g id="edge109" class="edge"><title>http://cds.omdoc.org/urtheories?LF&#45;&gt;http://latin.omdoc.org/foundations/zfc?Curry</title>
<a class="graphmeta">
<path fill="none" stroke="black" d="M361.098,-501.733C413.162,-498.457 529.906,-487.002 619,-448 663.604,-428.474 710.705,-397.155 739.229,-376.828"/>
<polygon fill="black" stroke="black" points="741.393,-379.583 747.461,-370.898 737.302,-373.903 741.393,-379.583"/>
</a>
</g>
<!-- http://latin.omdoc.org/type_theories?VOID -->
<g id="node17" class="node"><title>http://latin.omdoc.org/type_theories?VOID</title>
<a xlink:href="http://latin.omdoc.org/type_theories?VOID" class="graphtheory">
<ellipse fill="gray" stroke="black" cx="493" cy="-356" rx="33.2209" ry="18"/>
<text text-anchor="middle" x="493" y="-352.3" font-family="Times New Roman,serif" font-size="14.00">VOID</text>
</a>
</g>
<!-- http://cds.omdoc.org/urtheories?LF&#45;&gt;http://latin.omdoc.org/type_theories?VOID -->
<g id="edge97" class="edge"><title>http://cds.omdoc.org/urtheories?LF&#45;&gt;http://latin.omdoc.org/type_theories?VOID</title>
<a class="graphmeta">
<path fill="none" stroke="black" d="M349.246,-489.001C377.022,-463.496 436.053,-409.291 469.18,-378.873"/>
<polygon fill="black" stroke="black" points="471.619,-381.384 476.618,-372.043 466.885,-376.228 471.619,-381.384"/>
</a>
</g>
<!-- http://latin.omdoc.org/type_theories?TypesTerms -->
<g id="node19" class="node"><title>http://latin.omdoc.org/type_theories?TypesTerms</title>
<a xlink:href="http://latin.omdoc.org/type_theories?TypesTerms" class="graphtheory">
<ellipse fill="gray" stroke="black" cx="512" cy="-430" rx="57.2927" ry="18"/>
<text text-anchor="middle" x="512" y="-426.3" font-family="Times New Roman,serif" font-size="14.00">TypesTerms</text>
</a>
</g>
<!-- http://cds.omdoc.org/urtheories?LF&#45;&gt;http://latin.omdoc.org/type_theories?TypesTerms -->
<g id="edge85" class="edge"><title>http://cds.omdoc.org/urtheories?LF&#45;&gt;http://latin.omdoc.org/type_theories?TypesTerms</title>
<a class="graphmeta">
<path fill="none" stroke="black" d="M358.64,-496.194C380.601,-489.834 413.437,-479.597 441,-468 452.811,-463.03 465.323,-456.842 476.499,-450.957"/>
<polygon fill="black" stroke="black" points="478.367,-453.927 485.528,-446.118 475.06,-447.757 478.367,-453.927"/>
</a>
</g>
<!-- http://latin.omdoc.org/type_theories?UNIT -->
<g id="node21" class="node"><title>http://latin.omdoc.org/type_theories?UNIT</title>
<a xlink:href="http://latin.omdoc.org/type_theories?UNIT" class="graphtheory">
<ellipse fill="gray" stroke="black" cx="684" cy="-356" rx="32.2457" ry="18"/>
<text text-anchor="middle" x="684" y="-352.3" font-family="Times New Roman,serif" font-size="14.00">UNIT</text>
</a>
</g>
<!-- http://cds.omdoc.org/urtheories?LF&#45;&gt;http://latin.omdoc.org/type_theories?UNIT -->
<g id="edge87" class="edge"><title>http://cds.omdoc.org/urtheories?LF&#45;&gt;http://latin.omdoc.org/type_theories?UNIT</title>
<a class="graphmeta">
<path fill="none" stroke="black" d="M360.69,-501.209C407.137,-497.197 504.857,-484.746 578,-448 611.823,-431.008 643.801,-400.914 663.614,-380.008"/>
<polygon fill="black" stroke="black" points="666.352,-382.202 670.59,-372.492 661.222,-377.44 666.352,-382.202"/>
</a>
</g>
<!-- http://cds.omdoc.org/urtheories?LF&#45;&gt;http://latin.omdoc.org/foundations/zfc?UniversalQuantifier -->
<g id="edge99" class="edge"><title>http://cds.omdoc.org/urtheories?LF&#45;&gt;http://latin.omdoc.org/foundations/zfc?UniversalQuantifier</title>
<a class="graphmeta">
<path fill="none" stroke="black" d="M361.002,-503.357C470.189,-504.537 875.146,-506.285 916,-468 963.079,-423.881 955.103,-339.372 947.106,-296.057"/>
<polygon fill="black" stroke="black" points="950.486,-295.109 945.106,-285.982 943.62,-296.473 950.486,-295.109"/>
</a>
</g>
<!-- http://cds.omdoc.org/urtheories?LF&#45;&gt;http://latin.omdoc.org/foundations/zfc?BigInter -->
<g id="edge93" class="edge"><title>http://cds.omdoc.org/urtheories?LF&#45;&gt;http://latin.omdoc.org/foundations/zfc?BigInter</title>
<a class="graphmeta">
<path fill="none" stroke="black" d="M361.279,-503.231C461.77,-503.8 807.182,-503.167 840,-468 889.73,-414.711 870.457,-370.22 840,-304 834.863,-292.832 827.692,-294.692 819,-286 792.806,-259.806 765.495,-227.046 747.927,-205.149"/>
<polygon fill="black" stroke="black" points="750.663,-202.966 741.694,-197.325 745.188,-207.327 750.663,-202.966"/>
</a>
</g>
<!-- http://cds.omdoc.org/urtheories?LF&#45;&gt;http://latin.omdoc.org/foundations/zfc?DisjUnion -->
<g id="edge107" class="edge"><title>http://cds.omdoc.org/urtheories?LF&#45;&gt;http://latin.omdoc.org/foundations/zfc?DisjUnion</title>
<a class="graphmeta">
<path fill="none" stroke="black" d="M306.98,-502.096C268.863,-499.337 199.553,-488.64 160,-448 111.277,-397.939 89.7937,-373.484 97,-304 99.9044,-275.995 97.244,-267.099 110,-242 117.174,-227.884 128.473,-214.536 138.969,-203.947"/>
<polygon fill="black" stroke="black" points="141.65,-206.223 146.399,-196.752 136.78,-201.194 141.65,-206.223"/>
</a>
</g>
<!-- http://cds.omdoc.org/urtheories?LF&#45;&gt;http://latin.omdoc.org/foundations/zfc?PredSubTypes -->
<g id="edge83" class="edge"><title>http://cds.omdoc.org/urtheories?LF&#45;&gt;http://latin.omdoc.org/foundations/zfc?PredSubTypes</title>
<a class="graphmeta">
<path fill="none" stroke="black" d="M307.043,-502.259C271.642,-499.629 210.946,-489.012 185,-448 135.885,-370.365 108.183,-311.724 168,-242 177.516,-230.908 218.606,-234.529 233,-232 309.748,-218.517 328.773,-214.17 405,-198 410.387,-196.857 415.986,-195.641 421.588,-194.405"/>
<polygon fill="black" stroke="black" points="422.628,-197.76 431.629,-192.171 421.108,-190.927 422.628,-197.76"/>
</a>
</g>
<!-- http://cds.omdoc.org/urtheories?LF&#45;&gt;http://latin.omdoc.org/foundations/zfc?ImageTypes -->
<g id="edge105" class="edge"><title>http://cds.omdoc.org/urtheories?LF&#45;&gt;http://latin.omdoc.org/foundations/zfc?ImageTypes</title>
<a class="graphmeta">
<path fill="none" stroke="black" d="M360.805,-500.569C452.88,-491.591 753.453,-456.867 806,-382 825.975,-353.541 830.593,-333.38 812,-304 802.007,-288.209 789.451,-296.512 774,-286 726.684,-253.809 711.496,-245.781 680,-198 664.065,-173.826 653.79,-142.122 647.994,-119.901"/>
<polygon fill="black" stroke="black" points="651.374,-118.99 645.572,-110.125 644.579,-120.673 651.374,-118.99"/>
</a>
</g>
<!-- http://cds.omdoc.org/urtheories?LF&#45;&gt;http://latin.omdoc.org/foundations/zfc?ExistentialQuantifier -->
<g id="edge111" class="edge"><title>http://cds.omdoc.org/urtheories?LF&#45;&gt;http://latin.omdoc.org/foundations/zfc?ExistentialQuantifier</title>
<a class="graphmeta">
<path fill="none" stroke="black" d="M306.694,-502.639C255.264,-501.319 147.114,-495.286 124,-468 94.1971,-432.819 67.9299,-341.721 138,-242 151.027,-223.46 202.693,-206.856 246.537,-195.67"/>
<polygon fill="black" stroke="black" points="247.475,-199.043 256.33,-193.226 245.781,-192.251 247.475,-199.043"/>
</a>
</g>
<!-- http://cds.omdoc.org/urtheories?LF&#45;&gt;http://latin.omdoc.org/foundations/zfc?ConditionalTerms -->
<g id="edge95" class="edge"><title>http://cds.omdoc.org/urtheories?LF&#45;&gt;http://latin.omdoc.org/foundations/zfc?ConditionalTerms</title>
<a class="graphmeta">
<path fill="none" stroke="black" d="M306.95,-502.912C227.436,-501.933 0,-493.655 0,-431 0,-431 0,-431 0,-311 0,-230.616 66.2486,-154.314 104.522,-116.94"/>
<polygon fill="black" stroke="black" points="107.423,-119.009 112.231,-109.568 102.585,-113.95 107.423,-119.009"/>
</a>
</g>
<!-- http://cds.omdoc.org/urtheories?LF&#45;&gt;http://latin.omdoc.org/foundations/zfc?BigUnion -->
<g id="edge89" class="edge"><title>http://cds.omdoc.org/urtheories?LF&#45;&gt;http://latin.omdoc.org/foundations/zfc?BigUnion</title>
<a class="graphmeta">
<path fill="none" stroke="black" d="M360.933,-502.224C461.069,-499.196 808.472,-487.384 854,-468 886.653,-454.098 881.393,-429.393 884,-394 885.847,-368.926 883.183,-362.094 876,-338 868.728,-313.607 859.884,-310.202 852,-286 843.577,-260.143 837.923,-229.551 834.624,-208.079"/>
<polygon fill="black" stroke="black" points="838.066,-207.429 833.152,-198.043 831.141,-208.446 838.066,-207.429"/>
</a>
</g>
<!-- http://latin.omdoc.org/foundations/zfc?Operations -->
<g id="node43" class="node"><title>http://latin.omdoc.org/foundations/zfc?Operations</title>
<a xlink:href="http://latin.omdoc.org/foundations/zfc?Operations" class="graphtheory">
<ellipse fill="gray" stroke="black" cx="255" cy="-430" rx="50.5427" ry="18"/>
<text text-anchor="middle" x="255" y="-426.3" font-family="Times New Roman,serif" font-size="14.00">Operations</text>
</a>
</g>
<!-- http://cds.omdoc.org/urtheories?LF&#45;&gt;http://latin.omdoc.org/foundations/zfc?Operations -->
<g id="edge103" class="edge"><title>http://cds.omdoc.org/urtheories?LF&#45;&gt;http://latin.omdoc.org/foundations/zfc?Operations</title>
<a class="graphmeta">
<path fill="none" stroke="black" d="M318.768,-489.118C307.852,-479.169 292.898,-465.54 280.215,-453.981"/>
<polygon fill="black" stroke="black" points="282.416,-451.251 272.668,-447.102 277.701,-456.425 282.416,-451.251"/>
</a>
</g>
<!-- http://latin.omdoc.org/foundations/zfc?Curry&#45;&gt;http://latin.omdoc.org/foundations/zfc?TypedZFBase -->
<g id="edge15" class="edge"><title>http://latin.omdoc.org/foundations/zfc?Curry&#45;&gt;http://latin.omdoc.org/foundations/zfc?TypedZFBase</title>
<a xlink:href="http://latin.omdoc.org/foundations/zfc?TypesAsSets" class="graphview">
<path fill="none" stroke="black" d="M742.041,-344.011C736.527,-341.779 730.627,-339.622 725,-338 679.084,-324.765 663.233,-338.079 619,-320 607.473,-315.289 607.759,-308.098 596,-304 535.866,-283.044 372.911,-295.873 310,-286 305.354,-285.271 300.561,-284.367 295.774,-283.358"/>
<polygon fill="black" stroke="black" points="296.53,-279.941 286.006,-281.164 294.996,-286.77 296.53,-279.941"/>
</a>
<a xlink:href="http://latin.omdoc.org/foundations/zfc?TypesAsSets" class="TypesAsSets">
<text text-anchor="middle" x="657" y="-308.3" font-family="Times New Roman,serif" font-size="14.00">TypesAsSets</text>
</a>
</g>
<!-- http://latin.omdoc.org/foundations/zfc?Curry&#45;&gt;http://latin.omdoc.org/foundations/zfc?TypedZFBase -->
<g id="edge17" class="edge"><title>http://latin.omdoc.org/foundations/zfc?Curry&#45;&gt;http://latin.omdoc.org/foundations/zfc?TypedZFBase</title>
<a xlink:href="http://latin.omdoc.org/foundations/zfc?TypesAsClasses" class="graphview">
<path fill="none" stroke="black" d="M747.132,-341.25C726.612,-326.324 696.505,-304.524 695,-304 614.107,-275.856 394.718,-298.596 310,-286 305.348,-285.308 300.551,-284.43 295.761,-283.439"/>
<polygon fill="black" stroke="black" points="296.511,-280.02 285.99,-281.268 294.993,-286.853 296.511,-280.02"/>
</a>
<a xlink:href="http://latin.omdoc.org/foundations/zfc?TypesAsClasses" class="TypesAsClasses">
<text text-anchor="middle" x="764" y="-308.3" font-family="Times New Roman,serif" font-size="14.00">TypesAsClasses</text>
</a>
</g>
<!-- http://latin.omdoc.org/type_theories?VOID&#45;&gt;http://latin.omdoc.org/foundations/zfc?TypedZFBase -->
<g id="edge19" class="edge"><title>http://latin.omdoc.org/type_theories?VOID&#45;&gt;http://latin.omdoc.org/foundations/zfc?TypedZFBase</title>
<a xlink:href="http://latin.omdoc.org/translations/tt_zfc?VOID" class="graphview">
<path fill="none" stroke="black" d="M467.336,-344.308C461.963,-342.155 456.316,-339.955 451,-338 397.778,-318.424 336.021,-298.253 293.709,-284.816"/>
<polygon fill="black" stroke="black" points="294.512,-281.399 283.922,-281.718 292.399,-288.073 294.512,-281.399"/>
</a>
<a xlink:href="http://latin.omdoc.org/translations/tt_zfc?VOID" class="VOID">
<text text-anchor="middle" x="418.5" y="-308.3" font-family="Times New Roman,serif" font-size="14.00">VOID</text>
</a>
</g>
<!-- http://latin.omdoc.org/type_theories?TypesTerms&#45;&gt;http://latin.omdoc.org/foundations/zfc?TypedZFBase -->
<g id="edge21" class="edge"><title>http://latin.omdoc.org/type_theories?TypesTerms&#45;&gt;http://latin.omdoc.org/foundations/zfc?TypedZFBase</title>
<a xlink:href="http://latin.omdoc.org/translations/tt_zfc?TypesTerms" class="graphview">
<path fill="none" stroke="black" d="M523.873,-412.068C535.932,-392.579 550.763,-360.383 535,-338 475.905,-254.084 410.73,-305.69 310,-286 305.826,-285.184 301.524,-284.268 297.209,-283.296"/>
<polygon fill="black" stroke="black" points="297.707,-279.818 287.172,-280.945 296.11,-286.634 297.707,-279.818"/>
</a>
<a xlink:href="http://latin.omdoc.org/translations/tt_zfc?TypesTerms" class="TypesTerms">
<text text-anchor="middle" x="578" y="-352.3" font-family="Times New Roman,serif" font-size="14.00">TypesTerms</text>
</a>
</g>
<!-- http://latin.omdoc.org/type_theories?TypesTerms&#45;&gt;http://latin.omdoc.org/type_theories?Product -->
<g id="edge81" class="edge"><title>http://latin.omdoc.org/type_theories?TypesTerms&#45;&gt;http://latin.omdoc.org/type_theories?Product</title>
<a class="graphinclude">
<path fill="none" stroke="black" d="M488.402,-413.554C472.06,-402.857 450.155,-388.52 432.49,-376.957"/>
<polygon fill="black" stroke="black" points="433.975,-373.746 423.691,-371.198 430.142,-379.603 433.975,-373.746"/>
</a>
</g>
<!-- http://latin.omdoc.org/type_theories?TypesTerms&#45;&gt;http://latin.omdoc.org/type_theories?VOID -->
<g id="edge77" class="edge"><title>http://latin.omdoc.org/type_theories?TypesTerms&#45;&gt;http://latin.omdoc.org/type_theories?VOID</title>
<a class="graphinclude">
<path fill="none" stroke="black" d="M507.497,-411.937C505.273,-403.508 502.538,-393.143 500.045,-383.696"/>
<polygon fill="black" stroke="black" points="503.406,-382.716 497.47,-373.941 496.638,-384.503 503.406,-382.716"/>
</a>
</g>
<!-- http://latin.omdoc.org/type_theories?TypesTerms&#45;&gt;http://latin.omdoc.org/type_theories?UNIT -->
<g id="edge79" class="edge"><title>http://latin.omdoc.org/type_theories?TypesTerms&#45;&gt;http://latin.omdoc.org/type_theories?UNIT</title>
<a class="graphinclude">
<path fill="none" stroke="black" d="M549.775,-416.473C575.101,-407.696 608.998,-395.211 638,-382 643.066,-379.692 648.342,-377.058 653.436,-374.385"/>
<polygon fill="black" stroke="black" points="655.183,-377.419 662.326,-369.594 651.862,-371.257 655.183,-377.419"/>
</a>
</g>
<!-- http://latin.omdoc.org/type_theories?UNIT&#45;&gt;http://latin.omdoc.org/foundations/zfc?TypedZFBase -->
<g id="edge23" class="edge"><title>http://latin.omdoc.org/type_theories?UNIT&#45;&gt;http://latin.omdoc.org/foundations/zfc?TypedZFBase</title>
<a xlink:href="http://latin.omdoc.org/translations/tt_zfc?UNIT" class="graphview">
<path fill="none" stroke="black" d="M658.398,-344.912C651.805,-342.488 644.683,-340.018 638,-338 604.77,-327.965 593.693,-334.16 562,-320 550.631,-314.92 550.727,-308.189 539,-304 442.859,-269.653 410.731,-302.614 310,-286 305.551,-285.266 300.964,-284.381 296.376,-283.406"/>
<polygon fill="black" stroke="black" points="296.908,-279.938 286.383,-281.149 295.366,-286.766 296.908,-279.938"/>
</a>
<a xlink:href="http://latin.omdoc.org/translations/tt_zfc?UNIT" class="UNIT">
<text text-anchor="middle" x="579" y="-308.3" font-family="Times New Roman,serif" font-size="14.00">UNIT</text>
</a>
</g>
<!-- http://latin.omdoc.org/foundations/zfc?UniversalQuantifier&#45;&gt;http://latin.omdoc.org/foundations/zfc?TypedZFBase -->
<g id="edge25" class="edge"><title>http://latin.omdoc.org/foundations/zfc?UniversalQuantifier&#45;&gt;http://latin.omdoc.org/foundations/zfc?TypedZFBase</title>
<a xlink:href="http://latin.omdoc.org/foundations/zfc?_UQ" class="graphview">
<path fill="none" stroke="black" d="M861.323,-268C724.795,-268 448.123,-268 316.186,-268"/>
<polygon fill="black" stroke="black" points="316.174,-264.5 306.174,-268 316.174,-271.5 316.174,-264.5"/>
</a>
<a xlink:href="http://latin.omdoc.org/foundations/zfc?_UQ" class="_UQ">
<text text-anchor="middle" x="583.529" y="-274.8" font-family="Times New Roman,serif" font-size="14.00">_UQ</text>
</a>
</g>
<!-- http://latin.omdoc.org/foundations/zfc?UniversalQuantifier&#45;&gt;http://latin.omdoc.org/foundations/zfc?TypedZF -->
<g id="edge73" class="edge"><title>http://latin.omdoc.org/foundations/zfc?UniversalQuantifier&#45;&gt;http://latin.omdoc.org/foundations/zfc?TypedZF</title>
<a class="graphinclude">
<path fill="none" stroke="black" d="M961.644,-250.495C985.482,-229.383 1019,-191.966 999,-162 929.534,-57.9249 858.855,-89.9409 739,-54 695.811,-41.0488 645.397,-31.8245 608.433,-26.1084"/>
<polygon fill="black" stroke="black" points="608.791,-22.6229 598.38,-24.589 607.745,-29.5443 608.791,-22.6229"/>
</a>
</g>
<!-- http://latin.omdoc.org/foundations/zfc?UniversalQuantifier&#45;&gt;http://latin.omdoc.org/foundations/isabelle?NesetZFC -->
<g id="edge75" class="edge"><title>http://latin.omdoc.org/foundations/zfc?UniversalQuantifier&#45;&gt;http://latin.omdoc.org/foundations/isabelle?NesetZFC</title>
<a class="graphinclude">
<path fill="none" stroke="black" d="M941.202,-249.597C941.34,-237.746 941.525,-221.817 941.683,-208.292"/>
<polygon fill="black" stroke="black" points="945.185,-208.124 941.801,-198.084 938.185,-208.043 945.185,-208.124"/>
</a>
</g>
<!-- http://latin.omdoc.org/foundations/zfc?BigInter&#45;&gt;http://latin.omdoc.org/foundations/zfc?TypedZF -->
<g id="edge71" class="edge"><title>http://latin.omdoc.org/foundations/zfc?BigInter&#45;&gt;http://latin.omdoc.org/foundations/zfc?TypedZF</title>
<a class="graphinclude">
<path fill="none" stroke="black" d="M750.545,-164.699C762.218,-155.031 773.12,-141.592 767,-128 739.248,-66.3681 660.513,-38.9726 607.472,-27.2392"/>
<polygon fill="black" stroke="black" points="608.063,-23.787 597.558,-25.1608 606.627,-30.6381 608.063,-23.787"/>
</a>
</g>
<!-- http://latin.omdoc.org/foundations/zfc?BigInter&#45;&gt;http://latin.omdoc.org/foundations/zfc?ImageTypes -->
<g id="edge69" class="edge"><title>http://latin.omdoc.org/foundations/zfc?BigInter&#45;&gt;http://latin.omdoc.org/foundations/zfc?ImageTypes</title>
<a xlink:href="http://latin.omdoc.org/foundations/zfc?_BI" class="graphview">
<path fill="none" stroke="black" d="M713.043,-163.226C699.842,-150.178 680.894,-131.447 665.885,-116.611"/>
<polygon fill="black" stroke="black" points="668.02,-113.799 658.447,-109.258 663.098,-118.777 668.02,-113.799"/>
</a>
<a xlink:href="http://latin.omdoc.org/foundations/zfc?_BI" class="_BI">
<text text-anchor="middle" x="705" y="-132.3" font-family="Times New Roman,serif" font-size="14.00">_BI</text>
</a>
</g>
<!-- http://latin.omdoc.org/foundations/zfc?DisjUnion&#45;&gt;http://latin.omdoc.org/foundations/zfc?TypedZF -->
<g id="edge67" class="edge"><title>http://latin.omdoc.org/foundations/zfc?DisjUnion&#45;&gt;http://latin.omdoc.org/foundations/zfc?TypedZF</title>
<a class="graphinclude">
<path fill="none" stroke="black" d="M194.913,-166.143C241.711,-146.097 335.151,-106.336 415,-74 448.55,-60.4136 486.822,-45.5231 515.018,-34.6661"/>
<polygon fill="black" stroke="black" points="516.469,-37.8581 524.547,-31.0028 513.957,-31.3243 516.469,-37.8581"/>
</a>
</g>
<!-- http://latin.omdoc.org/foundations/zfc?DisjUnion&#45;&gt;http://latin.omdoc.org/foundations/zfc?ConditionalTerms -->
<g id="edge65" class="edge"><title>http://latin.omdoc.org/foundations/zfc?DisjUnion&#45;&gt;http://latin.omdoc.org/foundations/zfc?ConditionalTerms</title>
<a xlink:href="http://latin.omdoc.org/foundations/zfc?_DU" class="graphview">
<path fill="none" stroke="black" d="M158.283,-162.009C153.486,-149.877 146.94,-133.32 141.463,-119.465"/>
<polygon fill="black" stroke="black" points="144.635,-117.968 137.703,-109.956 138.125,-120.542 144.635,-117.968"/>
</a>
<a xlink:href="http://latin.omdoc.org/foundations/zfc?_DU" class="_DU">
<text text-anchor="middle" x="166" y="-132.3" font-family="Times New Roman,serif" font-size="14.00">_DU</text>
</a>
</g>
<!-- http://latin.omdoc.org/foundations/zfc?PredSubTypes&#45;&gt;http://latin.omdoc.org/foundations/zfc?TypedZFBase -->
<g id="edge33" class="edge"><title>http://latin.omdoc.org/foundations/zfc?PredSubTypes&#45;&gt;http://latin.omdoc.org/foundations/zfc?TypedZFBase</title>
<a xlink:href="http://latin.omdoc.org/foundations/zfc?_F" class="graphview">
<path fill="none" stroke="black" d="M439.773,-194.295C420.693,-200.696 397.612,-208.578 377,-216 347.303,-226.693 314.15,-239.305 288.25,-249.312"/>
<polygon fill="black" stroke="black" points="286.762,-246.135 278.701,-253.011 289.29,-252.663 286.762,-246.135"/>
</a>
<a xlink:href="http://latin.omdoc.org/foundations/zfc?_F" class="_F">
<text text-anchor="middle" x="385" y="-220.3" font-family="Times New Roman,serif" font-size="14.00">_F</text>
</a>
</g>
<!-- http://latin.omdoc.org/foundations/zfc?PredSubTypes&#45;&gt;http://latin.omdoc.org/foundations/zfc?TypedZF -->
<g id="edge63" class="edge"><title>http://latin.omdoc.org/foundations/zfc?PredSubTypes&#45;&gt;http://latin.omdoc.org/foundations/zfc?TypedZF</title>
<a class="graphinclude">
<path fill="none" stroke="black" d="M488.133,-161.877C501.447,-133.848 527.974,-78.002 543.63,-45.0424"/>
<polygon fill="black" stroke="black" points="546.796,-46.5342 547.925,-35.9997 540.473,-43.5308 546.796,-46.5342"/>
</a>
</g>
<!-- http://latin.omdoc.org/foundations/zfc?ImageTypes&#45;&gt;http://latin.omdoc.org/foundations/zfc?TypedZFBase -->
<g id="edge37" class="edge"><title>http://latin.omdoc.org/foundations/zfc?ImageTypes&#45;&gt;http://latin.omdoc.org/foundations/zfc?TypedZFBase</title>
<a xlink:href="http://latin.omdoc.org/foundations/zfc?_I" class="graphview">
<path fill="none" stroke="black" d="M625.909,-109.453C620.429,-115.216 614.341,-121.799 609,-128 583.18,-157.98 587.068,-176.275 554,-198 461.904,-258.505 417.491,-217.744 310,-242 301.993,-243.807 293.652,-246.348 285.685,-249.124"/>
<polygon fill="black" stroke="black" points="284.389,-245.871 276.199,-252.592 286.793,-252.445 284.389,-245.871"/>
</a>
<a xlink:href="http://latin.omdoc.org/foundations/zfc?_I" class="_I">
<text text-anchor="middle" x="593.5" y="-176.3" font-family="Times New Roman,serif" font-size="14.00">_I</text>
</a>
</g>
<!-- http://latin.omdoc.org/foundations/zfc?ImageTypes&#45;&gt;http://latin.omdoc.org/foundations/zfc?TypedZF -->
<g id="edge61" class="edge"><title>http://latin.omdoc.org/foundations/zfc?ImageTypes&#45;&gt;http://latin.omdoc.org/foundations/zfc?TypedZF</title>
<a class="graphinclude">
<path fill="none" stroke="black" d="M622.914,-75.0209C610.948,-65.0028 595.359,-51.9517 582.238,-40.9671"/>
<polygon fill="black" stroke="black" points="584.357,-38.176 574.443,-34.4403 579.863,-43.5433 584.357,-38.176"/>
</a>
</g>
<!-- http://latin.omdoc.org/foundations/zfc?ExistentialQuantifier&#45;&gt;http://latin.omdoc.org/foundations/zfc?TypedZFBase -->
<g id="edge41" class="edge"><title>http://latin.omdoc.org/foundations/zfc?ExistentialQuantifier&#45;&gt;http://latin.omdoc.org/foundations/zfc?TypedZFBase</title>
<a xlink:href="http://latin.omdoc.org/foundations/zfc?_EQ" class="graphview">
<path fill="none" stroke="black" d="M241.585,-189.299C226.163,-194.554 211.618,-202.882 202,-216 194.95,-225.615 200.571,-235.917 209.658,-244.728"/>
<polygon fill="black" stroke="black" points="207.635,-247.602 217.513,-251.432 212.179,-242.278 207.635,-247.602"/>
</a>
<a xlink:href="http://latin.omdoc.org/foundations/zfc?_EQ" class="_EQ">
<text text-anchor="middle" x="215.5" y="-220.3" font-family="Times New Roman,serif" font-size="14.00">_EQ</text>
</a>
</g>
<!-- http://latin.omdoc.org/foundations/zfc?ExistentialQuantifier&#45;&gt;http://latin.omdoc.org/foundations/zfc?TypedZF -->
<g id="edge59" class="edge"><title>http://latin.omdoc.org/foundations/zfc?ExistentialQuantifier&#45;&gt;http://latin.omdoc.org/foundations/zfc?TypedZF</title>
<a class="graphinclude">
<path fill="none" stroke="black" d="M337.637,-162.778C382.165,-133.46 475.944,-71.7117 524.845,-39.5133"/>
<polygon fill="black" stroke="black" points="527.005,-42.2821 533.432,-33.8595 523.155,-36.4356 527.005,-42.2821"/>
</a>
</g>
<!-- http://latin.omdoc.org/foundations/zfc?ConditionalTerms&#45;&gt;http://latin.omdoc.org/foundations/zfc?TypedZF -->
<g id="edge57" class="edge"><title>http://latin.omdoc.org/foundations/zfc?ConditionalTerms&#45;&gt;http://latin.omdoc.org/foundations/zfc?TypedZF</title>
<a class="graphinclude">
<path fill="none" stroke="black" d="M186.928,-79.7486C225.63,-72.1064 278.36,-61.9779 325,-54 386.273,-43.519 456.97,-33.0435 503.849,-26.3231"/>
<polygon fill="black" stroke="black" points="504.366,-29.7849 513.77,-24.9059 503.376,-22.8553 504.366,-29.7849"/>
</a>
</g>
<!-- http://latin.omdoc.org/foundations/zfc?BigUnion&#45;&gt;http://latin.omdoc.org/foundations/zfc?TypedZF -->
<g id="edge55" class="edge"><title>http://latin.omdoc.org/foundations/zfc?BigUnion&#45;&gt;http://latin.omdoc.org/foundations/zfc?TypedZF</title>
<a class="graphinclude">
<path fill="none" stroke="black" d="M822.563,-162.176C810.329,-139.321 785.627,-98.509 754,-74 712.49,-41.8318 653.253,-28.4727 610.399,-22.9278"/>
<polygon fill="black" stroke="black" points="610.77,-19.4473 600.426,-21.7392 609.942,-26.3981 610.77,-19.4473"/>
</a>
</g>
<!-- http://latin.omdoc.org/foundations/zfc?BigUnion&#45;&gt;http://latin.omdoc.org/foundations/zfc?ImageTypes -->
<g id="edge53" class="edge"><title>http://latin.omdoc.org/foundations/zfc?BigUnion&#45;&gt;http://latin.omdoc.org/foundations/zfc?ImageTypes</title>
<a xlink:href="http://latin.omdoc.org/foundations/zfc?_BU" class="graphview">
<path fill="none" stroke="black" d="M802.295,-165.938C770.254,-151.359 718.18,-127.664 682.12,-111.256"/>
<polygon fill="black" stroke="black" points="683.414,-107.999 672.863,-107.043 680.515,-114.371 683.414,-107.999"/>
</a>
<a xlink:href="http://latin.omdoc.org/foundations/zfc?_BU" class="_BU">
<text text-anchor="middle" x="767.5" y="-132.3" font-family="Times New Roman,serif" font-size="14.00">_BU</text>
</a>
</g>
<!-- http://latin.omdoc.org/foundations/zfc?Operations&#45;&gt;http://latin.omdoc.org/foundations/zfc?TypedZFBase -->
<g id="edge49" class="edge"><title>http://latin.omdoc.org/foundations/zfc?Operations&#45;&gt;http://latin.omdoc.org/foundations/zfc?TypedZFBase</title>
<a class="graphinclude">
<path fill="none" stroke="black" d="M265.042,-412.235C269.672,-403.54 274.652,-392.553 277,-382 281.247,-362.911 281.438,-357.045 277,-338 273.474,-322.868 266.131,-307.239 259.168,-294.69"/>
<polygon fill="black" stroke="black" points="262.03,-292.649 253.987,-285.753 255.974,-296.16 262.03,-292.649"/>
</a>
</g>
</g>
</svg>
