<?xml version="1.0" encoding="UTF-8" standalone="no"?>
<!DOCTYPE svg PUBLIC "-//W3C//DTD SVG 1.1//EN"
 "http://www.w3.org/Graphics/SVG/1.1/DTD/svg11.dtd">
<!-- Generated by graphviz version 2.28.0 (20110507.0327)
 -->
<!-- Title: MMT Pages: 1 -->
<svg
 viewBox="0.00 0.00 697.00 456.00" xmlns="http://www.w3.org/2000/svg" xmlns:xlink="http://www.w3.org/1999/xlink">
<g id="graph1" class="graph" transform="scale(1 1) rotate(0) translate(4 452)">
<title>MMT</title>
<polygon fill="white" stroke="white" points="-4,5 -4,-452 694,-452 694,5 -4,5"/>
<g id="graph2" class="cluster"><title>cluster_local</title>
<polygon fill="none" stroke="black" points="317,-66 317,-118 413,-118 413,-66 317,-66"/>
</g>
<!-- http://latin.omdoc.org/foundations/zfc?Boolean -->
<g id="node2" class="node"><title>http://latin.omdoc.org/foundations/zfc?Boolean</title>
<a xlink:href="http://latin.omdoc.org/foundations/zfc?Boolean" class="graphtheory">
<ellipse fill="none" stroke="black" cx="365" cy="-92" rx="39.9464" ry="18"/>
<text text-anchor="middle" x="365" y="-88.3" font-family="Times New Roman,serif" font-size="14.00">Boolean</text>
</a>
</g>
<!-- http://latin.omdoc.org/logics/model_theory?CASLMOD -->
<g id="node13" class="node"><title>http://latin.omdoc.org/logics/model_theory?CASLMOD</title>
<a xlink:href="http://latin.omdoc.org/logics/model_theory?CASLMOD" class="graphtheory">
<ellipse fill="gray" stroke="black" cx="143" cy="-18" rx="55.3682" ry="18"/>
<text text-anchor="middle" x="143" y="-14.3" font-family="Times New Roman,serif" font-size="14.00">CASLMOD</text>
</a>
</g>
<!-- http://latin.omdoc.org/foundations/zfc?Boolean&#45;&gt;http://latin.omdoc.org/logics/model_theory?CASLMOD -->
<g id="edge13" class="edge"><title>http://latin.omdoc.org/foundations/zfc?Boolean&#45;&gt;http://latin.omdoc.org/logics/model_theory?CASLMOD</title>
<a class="graphinclude">
<path fill="none" stroke="black" d="M333.193,-80.6842C295.82,-68.5633 233.456,-48.337 190.384,-34.3677"/>
<polygon fill="black" stroke="black" points="191.283,-30.9798 180.691,-31.224 189.123,-37.6384 191.283,-30.9798"/>
</a>
</g>
<!-- http://latin.omdoc.org/foundations/zfc?TNDBool -->
<g id="node15" class="node"><title>http://latin.omdoc.org/foundations/zfc?TNDBool</title>
<a xlink:href="http://latin.omdoc.org/foundations/zfc?TNDBool" class="graphtheory">
<ellipse fill="gray" stroke="black" cx="425" cy="-18" rx="46.1964" ry="18"/>
<text text-anchor="middle" x="425" y="-14.3" font-family="Times New Roman,serif" font-size="14.00">TNDBool</text>
</a>
</g>
<!-- http://latin.omdoc.org/foundations/zfc?Boolean&#45;&gt;http://latin.omdoc.org/foundations/zfc?TNDBool -->
<g id="edge15" class="edge"><title>http://latin.omdoc.org/foundations/zfc?Boolean&#45;&gt;http://latin.omdoc.org/foundations/zfc?TNDBool</title>
<a class="graphinclude">
<path fill="none" stroke="black" d="M378.615,-74.6621C386.363,-65.3644 396.215,-53.5426 404.844,-43.1873"/>
<polygon fill="black" stroke="black" points="407.726,-45.1962 411.439,-35.2733 402.348,-40.7148 407.726,-45.1962"/>
</a>
</g>
<!-- http://latin.omdoc.org/foundations/type_theory/church?Logic -->
<g id="node3" class="node"><title>http://latin.omdoc.org/foundations/type_theory/church?Logic</title>
<a xlink:href="http://latin.omdoc.org/foundations/type_theory/church?Logic" class="graphtheory">
<ellipse fill="gray" stroke="black" cx="158" cy="-356" rx="31.2735" ry="18"/>
<text text-anchor="middle" x="158" y="-352.3" font-family="Times New Roman,serif" font-size="14.00">Logic</text>
</a>
</g>
<!-- http://latin.omdoc.org/foundations/type_theory/church?Logic&#45;&gt;http://latin.omdoc.org/foundations/zfc?Boolean -->
<g id="edge3" class="edge"><title>http://latin.omdoc.org/foundations/type_theory/church?Logic&#45;&gt;http://latin.omdoc.org/foundations/zfc?Boolean</title>
<a xlink:href="http://latin.omdoc.org/foundations/type_theory/church?_ILogic" class="graphview">
<path fill="none" stroke="black" d="M140.104,-341.068C115.198,-320.412 71.2086,-279.005 54,-232 42.4229,-200.377 63.5417,-189.485 83,-162 94.816,-145.31 95.9094,-137.534 114,-128 147.921,-110.123 252.004,-100.365 314.985,-95.9567"/>
<polygon fill="black" stroke="black" points="315.362,-99.4392 325.102,-95.2698 314.888,-92.4553 315.362,-99.4392"/>
</a>
<a xlink:href="http://latin.omdoc.org/foundations/type_theory/church?_ILogic" class="_ILogic">
<text text-anchor="middle" x="76.5" y="-220.3" font-family="Times New Roman,serif" font-size="14.00">_ILogic</text>
</a>
</g>
<!-- http://latin.omdoc.org/foundations/type_theory/church?InternalLogic -->
<g id="node9" class="node"><title>http://latin.omdoc.org/foundations/type_theory/church?InternalLogic</title>
<a xlink:href="http://latin.omdoc.org/foundations/type_theory/church?InternalLogic" class="graphtheory">
<ellipse fill="gray" stroke="black" cx="167" cy="-268" rx="58.2422" ry="18"/>
<text text-anchor="middle" x="167" y="-264.3" font-family="Times New Roman,serif" font-size="14.00">InternalLogic</text>
</a>
</g>
<!-- http://latin.omdoc.org/foundations/type_theory/church?Logic&#45;&gt;http://latin.omdoc.org/foundations/type_theory/church?InternalLogic -->
<g id="edge43" class="edge"><title>http://latin.omdoc.org/foundations/type_theory/church?Logic&#45;&gt;http://latin.omdoc.org/foundations/type_theory/church?InternalLogic</title>
<a xlink:href="http://latin.omdoc.org/foundations/type_theory/church?InternalLogic?log" class="graphstructure">
<path fill="none" stroke="black" d="M159.778,-338.009C161.015,-326.19 162.691,-310.171 164.118,-296.542"/>
<polygon fill="black" stroke="black" points="167.635,-296.56 165.195,-286.25 160.673,-295.831 167.635,-296.56"/>
</a>
<a xlink:href="http://latin.omdoc.org/foundations/type_theory/church?InternalLogic?log" class="log">
<text text-anchor="middle" x="173" y="-308.3" font-family="Times New Roman,serif" font-size="14.00">log</text>
</a>
</g>
<!-- http://latin.omdoc.org/type_theories?IDENT -->
<g id="node5" class="node"><title>http://latin.omdoc.org/type_theories?IDENT</title>
<a xlink:href="http://latin.omdoc.org/type_theories?IDENT" class="graphtheory">
<ellipse fill="gray" stroke="black" cx="360" cy="-356" rx="37.5442" ry="18"/>
<text text-anchor="middle" x="360" y="-352.3" font-family="Times New Roman,serif" font-size="14.00">IDENT</text>
</a>
</g>
<!-- http://latin.omdoc.org/type_theories?IDENT&#45;&gt;http://latin.omdoc.org/foundations/zfc?Boolean -->
<g id="edge5" class="edge"><title>http://latin.omdoc.org/type_theories?IDENT&#45;&gt;http://latin.omdoc.org/foundations/zfc?Boolean</title>
<a xlink:href="http://latin.omdoc.org/translations/tt_zfc?IDENT" class="graphview">
<path fill="none" stroke="black" d="M360.328,-337.809C361.176,-293.396 363.444,-174.533 364.476,-120.461"/>
<polygon fill="black" stroke="black" points="367.979,-120.319 364.671,-110.254 360.98,-120.185 367.979,-120.319"/>
</a>
<a xlink:href="http://latin.omdoc.org/translations/tt_zfc?IDENT" class="IDENT">
<text text-anchor="middle" x="384" y="-220.3" font-family="Times New Roman,serif" font-size="14.00">IDENT</text>
</a>
</g>
<!-- http://latin.omdoc.org/foundations/type_theory/church?InternalEquality -->
<g id="node7" class="node"><title>http://latin.omdoc.org/foundations/type_theory/church?InternalEquality</title>
<a xlink:href="http://latin.omdoc.org/foundations/type_theory/church?InternalEquality" class="graphtheory">
<ellipse fill="gray" stroke="black" cx="251" cy="-180" rx="66.4165" ry="18"/>
<text text-anchor="middle" x="251" y="-176.3" font-family="Times New Roman,serif" font-size="14.00">InternalEquality</text>
</a>
</g>
<!-- http://latin.omdoc.org/foundations/type_theory/church?InternalEquality&#45;&gt;http://latin.omdoc.org/foundations/zfc?Boolean -->
<g id="edge7" class="edge"><title>http://latin.omdoc.org/foundations/type_theory/church?InternalEquality&#45;&gt;http://latin.omdoc.org/foundations/zfc?Boolean</title>
<a xlink:href="http://latin.omdoc.org/foundations/type_theory/church?_InternalEquality" class="graphview">
<path fill="none" stroke="black" d="M239.902,-161.928C234.491,-151.257 230.581,-137.74 238,-128 247.785,-115.154 285.42,-105.83 317.202,-100.051"/>
<polygon fill="black" stroke="black" points="318.02,-103.462 327.272,-98.2998 316.82,-96.5652 318.02,-103.462"/>
</a>
<a xlink:href="http://latin.omdoc.org/foundations/type_theory/church?_InternalEquality" class="_InternalEquality">
<text text-anchor="middle" x="285" y="-132.3" font-family="Times New Roman,serif" font-size="14.00">_InternalEquality</text>
</a>
</g>
<!-- http://latin.omdoc.org/foundations/type_theory/church?InternalLogic&#45;&gt;http://latin.omdoc.org/foundations/zfc?Boolean -->
<g id="edge9" class="edge"><title>http://latin.omdoc.org/foundations/type_theory/church?InternalLogic&#45;&gt;http://latin.omdoc.org/foundations/zfc?Boolean</title>
<a xlink:href="http://latin.omdoc.org/foundations/type_theory/church?_InternalLogic" class="graphview">
<path fill="none" stroke="black" d="M142.521,-251.546C112.663,-230.775 68.9667,-192.891 93,-162 120.159,-127.092 245.621,-106.991 316.28,-98.2538"/>
<polygon fill="black" stroke="black" points="316.78,-101.719 326.289,-97.0467 315.942,-94.7693 316.78,-101.719"/>
</a>
<a xlink:href="http://latin.omdoc.org/foundations/type_theory/church?_InternalLogic" class="_InternalLogic">
<text text-anchor="middle" x="134" y="-176.3" font-family="Times New Roman,serif" font-size="14.00">_InternalLogic</text>
</a>
</g>
<!-- http://latin.omdoc.org/foundations/type_theory/church?InternalLogic&#45;&gt;http://latin.omdoc.org/foundations/type_theory/church?InternalEquality -->
<g id="edge41" class="edge"><title>http://latin.omdoc.org/foundations/type_theory/church?InternalLogic&#45;&gt;http://latin.omdoc.org/foundations/type_theory/church?InternalEquality</title>
<a class="graphinclude">
<path fill="none" stroke="black" d="M183.196,-250.418C195.863,-237.45 213.641,-219.248 227.816,-204.736"/>
<polygon fill="black" stroke="black" points="230.37,-207.13 234.854,-197.531 225.362,-202.239 230.37,-207.13"/>
</a>
</g>
<!-- http://latin.omdoc.org/foundations/minimal?Bool -->
<g id="node11" class="node"><title>http://latin.omdoc.org/foundations/minimal?Bool</title>
<a xlink:href="http://latin.omdoc.org/foundations/minimal?Bool" class="graphtheory">
<ellipse fill="gray" stroke="black" cx="444" cy="-356" rx="28.3955" ry="18"/>
<text text-anchor="middle" x="444" y="-352.3" font-family="Times New Roman,serif" font-size="14.00">Bool</text>
</a>
</g>
<!-- http://latin.omdoc.org/foundations/minimal?Bool&#45;&gt;http://latin.omdoc.org/foundations/zfc?Boolean -->
<g id="edge11" class="edge"><title>http://latin.omdoc.org/foundations/minimal?Bool&#45;&gt;http://latin.omdoc.org/foundations/zfc?Boolean</title>
<a xlink:href="http://latin.omdoc.org/foundations/minimal?Bool-ZF" class="graphview">
<path fill="none" stroke="black" d="M440.138,-337.758C434.118,-311.363 421.847,-259.431 409,-216 397.279,-176.376 393.345,-166.752 379,-128 377.978,-125.238 376.882,-122.366 375.771,-119.507"/>
<polygon fill="black" stroke="black" points="378.95,-118.03 372.014,-110.021 372.442,-120.607 378.95,-118.03"/>
</a>
<a xlink:href="http://latin.omdoc.org/foundations/minimal?Bool-ZF" class="Bool&#45;ZF">
<text text-anchor="middle" x="438.5" y="-220.3" font-family="Times New Roman,serif" font-size="14.00">Bool&#45;ZF</text>
</a>
</g>
<!-- http://latin.omdoc.org/foundations/zfc?ZFC -->
<g id="node17" class="node"><title>http://latin.omdoc.org/foundations/zfc?ZFC</title>
<a xlink:href="http://latin.omdoc.org/foundations/zfc?ZFC" class="graphtheory">
<ellipse fill="gray" stroke="black" cx="519" cy="-356" rx="27.4223" ry="18"/>
<text text-anchor="middle" x="519" y="-352.3" font-family="Times New Roman,serif" font-size="14.00">ZFC</text>
</a>
</g>
<!-- http://latin.omdoc.org/foundations/zfc?ZFC&#45;&gt;http://latin.omdoc.org/foundations/zfc?Boolean -->
<g id="edge17" class="edge"><title>http://latin.omdoc.org/foundations/zfc?ZFC&#45;&gt;http://latin.omdoc.org/foundations/zfc?Boolean</title>
<a class="graphinclude">
<path fill="none" stroke="black" d="M514.549,-337.971C507.077,-310.971 490.492,-257.179 467,-216 442.098,-172.35 428.446,-166.375 396,-128 392.826,-124.246 389.419,-120.309 386.066,-116.487"/>
<polygon fill="black" stroke="black" points="388.6,-114.068 379.354,-108.895 383.356,-118.705 388.6,-114.068"/>
</a>
</g>
<!-- http://latin.omdoc.org/foundations/zfc?Powersets -->
<g id="node19" class="node"><title>http://latin.omdoc.org/foundations/zfc?Powersets</title>
<a xlink:href="http://latin.omdoc.org/foundations/zfc?Powersets" class="graphtheory">
<ellipse fill="gray" stroke="black" cx="613" cy="-356" rx="48.1437" ry="18"/>
<text text-anchor="middle" x="613" y="-352.3" font-family="Times New Roman,serif" font-size="14.00">Powersets</text>
</a>
</g>
<!-- http://latin.omdoc.org/foundations/zfc?Powersets&#45;&gt;http://latin.omdoc.org/foundations/zfc?Boolean -->
<g id="edge19" class="edge"><title>http://latin.omdoc.org/foundations/zfc?Powersets&#45;&gt;http://latin.omdoc.org/foundations/zfc?Boolean</title>
<a class="graphinclude">
<path fill="none" stroke="black" d="M602.256,-338.416C575.325,-297.905 501.047,-192.521 417,-128 410.324,-122.875 402.935,-117.652 395.874,-112.858"/>
<polygon fill="black" stroke="black" points="397.443,-109.697 387.183,-107.054 393.556,-115.518 397.443,-109.697"/>
</a>
</g>
<!-- http://cds.omdoc.org/urtheories?LF -->
<g id="node21" class="node"><title>http://cds.omdoc.org/urtheories?LF</title>
<a xlink:href="http://cds.omdoc.org/urtheories?LF" class="graphtheory">
<ellipse fill="gray" stroke="black" cx="317" cy="-430" rx="27" ry="18"/>
<text text-anchor="middle" x="317" y="-426.3" font-family="Times New Roman,serif" font-size="14.00">LF</text>
</a>
</g>
<!-- http://cds.omdoc.org/urtheories?LF&#45;&gt;http://latin.omdoc.org/foundations/zfc?Boolean -->
<g id="edge21" class="edge"><title>http://cds.omdoc.org/urtheories?LF&#45;&gt;http://latin.omdoc.org/foundations/zfc?Boolean</title>
<a class="graphmeta">
<path fill="none" stroke="black" d="M314.735,-411.847C312.667,-393.518 310.309,-363.636 313,-338 321.446,-257.529 345.088,-164.596 357.372,-119.836"/>
<polygon fill="black" stroke="black" points="360.792,-120.602 360.094,-110.03 354.047,-118.73 360.792,-120.602"/>
</a>
</g>
<!-- http://cds.omdoc.org/urtheories?LF&#45;&gt;http://latin.omdoc.org/foundations/type_theory/church?Logic -->
<g id="edge33" class="edge"><title>http://cds.omdoc.org/urtheories?LF&#45;&gt;http://latin.omdoc.org/foundations/type_theory/church?Logic</title>
<a class="graphmeta">
<path fill="none" stroke="black" d="M291.236,-423.936C267.601,-418.627 232.104,-408.95 204,-394 196.066,-389.779 188.17,-384.109 181.217,-378.477"/>
<polygon fill="black" stroke="black" points="183.434,-375.768 173.542,-371.973 178.908,-381.109 183.434,-375.768"/>
</a>
</g>
<!-- http://cds.omdoc.org/urtheories?LF&#45;&gt;http://latin.omdoc.org/type_theories?IDENT -->
<g id="edge25" class="edge"><title>http://cds.omdoc.org/urtheories?LF&#45;&gt;http://latin.omdoc.org/type_theories?IDENT</title>
<a class="graphmeta">
<path fill="none" stroke="black" d="M326.543,-413.021C331.978,-403.921 338.907,-392.318 345.049,-382.035"/>
<polygon fill="black" stroke="black" points="348.063,-383.814 350.185,-373.434 342.053,-380.224 348.063,-383.814"/>
</a>
</g>
<!-- http://cds.omdoc.org/urtheories?LF&#45;&gt;http://latin.omdoc.org/foundations/type_theory/church?InternalEquality -->
<g id="edge27" class="edge"><title>http://cds.omdoc.org/urtheories?LF&#45;&gt;http://latin.omdoc.org/foundations/type_theory/church?InternalEquality</title>
<a class="graphmeta">
<path fill="none" stroke="black" d="M298.957,-416.276C291.898,-410.332 284.442,-402.653 280,-394 248.8,-333.22 247.393,-250.447 249.123,-208.216"/>
<polygon fill="black" stroke="black" points="252.623,-208.313 249.629,-198.15 245.631,-207.962 252.623,-208.313"/>
</a>
</g>
<!-- http://cds.omdoc.org/urtheories?LF&#45;&gt;http://latin.omdoc.org/foundations/type_theory/church?InternalLogic -->
<g id="edge23" class="edge"><title>http://cds.omdoc.org/urtheories?LF&#45;&gt;http://latin.omdoc.org/foundations/type_theory/church?InternalLogic</title>
<a class="graphmeta">
<path fill="none" stroke="black" d="M292.58,-421.762C276.776,-416.143 256.516,-407.083 242,-394 233.666,-386.489 200.891,-329.406 181.534,-295.031"/>
<polygon fill="black" stroke="black" points="184.41,-293.004 176.462,-285.998 178.306,-296.431 184.41,-293.004"/>
</a>
</g>
<!-- http://cds.omdoc.org/urtheories?LF&#45;&gt;http://latin.omdoc.org/foundations/minimal?Bool -->
<g id="edge31" class="edge"><title>http://cds.omdoc.org/urtheories?LF&#45;&gt;http://latin.omdoc.org/foundations/minimal?Bool</title>
<a class="graphmeta">
<path fill="none" stroke="black" d="M336.844,-417.75C357.66,-405.948 390.609,-387.269 414.478,-373.737"/>
<polygon fill="black" stroke="black" points="416.481,-376.625 423.454,-368.648 413.029,-370.535 416.481,-376.625"/>
</a>
</g>
<!-- http://cds.omdoc.org/urtheories?LF&#45;&gt;http://latin.omdoc.org/logics/model_theory?CASLMOD -->
<g id="edge39" class="edge"><title>http://cds.omdoc.org/urtheories?LF&#45;&gt;http://latin.omdoc.org/logics/model_theory?CASLMOD</title>
<a class="graphmeta">
<path fill="none" stroke="black" d="M289.973,-428.601C213.313,-426.746 0,-416.258 0,-357 0,-357 0,-357 0,-91 0,-52.3439 42.2024,-34.439 80.7542,-26.1473"/>
<polygon fill="black" stroke="black" points="81.8283,-29.5035 90.9692,-24.1468 80.4829,-22.634 81.8283,-29.5035"/>
</a>
</g>
<!-- http://cds.omdoc.org/urtheories?LF&#45;&gt;http://latin.omdoc.org/foundations/zfc?TNDBool -->
<g id="edge35" class="edge"><title>http://cds.omdoc.org/urtheories?LF&#45;&gt;http://latin.omdoc.org/foundations/zfc?TNDBool</title>
<a class="graphmeta">
<path fill="none" stroke="black" d="M344.053,-429.509C429.657,-430.401 689,-427.304 689,-357 689,-357 689,-357 689,-91 689,-48.1483 557.901,-29.9366 480.471,-22.9174"/>
<polygon fill="black" stroke="black" points="480.649,-19.4198 470.383,-22.0385 480.042,-26.3933 480.649,-19.4198"/>
</a>
</g>
<!-- http://cds.omdoc.org/urtheories?LF&#45;&gt;http://latin.omdoc.org/foundations/zfc?ZFC -->
<g id="edge29" class="edge"><title>http://cds.omdoc.org/urtheories?LF&#45;&gt;http://latin.omdoc.org/foundations/zfc?ZFC</title>
<a class="graphmeta">
<path fill="none" stroke="black" d="M341.162,-421.705C373.382,-411.793 432.043,-393.108 481,-374 483.215,-373.135 485.489,-372.212 487.77,-371.259"/>
<polygon fill="black" stroke="black" points="489.255,-374.43 497.05,-367.254 486.482,-368.003 489.255,-374.43"/>
</a>
</g>
<!-- http://cds.omdoc.org/urtheories?LF&#45;&gt;http://latin.omdoc.org/foundations/zfc?Powersets -->
<g id="edge37" class="edge"><title>http://cds.omdoc.org/urtheories?LF&#45;&gt;http://latin.omdoc.org/foundations/zfc?Powersets</title>
<a class="graphmeta">
<path fill="none" stroke="black" d="M342.479,-423.62C386.161,-414.284 478.078,-394.143 555,-374 558.886,-372.982 562.906,-371.889 566.935,-370.765"/>
<polygon fill="black" stroke="black" points="568.229,-374.036 576.891,-367.935 566.315,-367.303 568.229,-374.036"/>
</a>
</g>
</g>
</svg>
