<?xml version="1.0" encoding="UTF-8" standalone="no"?>
<!DOCTYPE svg PUBLIC "-//W3C//DTD SVG 1.1//EN"
 "http://www.w3.org/Graphics/SVG/1.1/DTD/svg11.dtd">
<!-- Generated by graphviz version 2.28.0 (20110507.0327)
 -->
<!-- Title: MMT Pages: 1 -->
<svg
 viewBox="0.00 0.00 246.30 236.00" xmlns="http://www.w3.org/2000/svg" xmlns:xlink="http://www.w3.org/1999/xlink">
<g id="graph1" class="graph" transform="scale(1 1) rotate(0) translate(4 232)">
<title>MMT</title>
<polygon fill="white" stroke="white" points="-4,5 -4,-232 243.3,-232 243.3,5 -4,5"/>
<g id="graph2" class="cluster"><title>cluster_local</title>
<polygon fill="none" stroke="black" points="57.3004,-80 57.3004,-220 176.3,-220 176.3,-80 57.3004,-80"/>
</g>
<!-- http://latin.omdoc.org/foundations/zfc?Church -->
<g id="node2" class="node"><title>http://latin.omdoc.org/foundations/zfc?Church</title>
<a xlink:href="http://latin.omdoc.org/foundations/zfc?Church" class="graphtheory">
<ellipse fill="none" stroke="black" cx="103.3" cy="-194" rx="37.5442" ry="18"/>
<text text-anchor="middle" x="103.3" y="-190.3" font-family="Times New Roman,serif" font-size="14.00">Church</text>
</a>
</g>
<!-- http://latin.omdoc.org/foundations/zfc?Curry -->
<g id="node3" class="node"><title>http://latin.omdoc.org/foundations/zfc?Curry</title>
<a xlink:href="http://latin.omdoc.org/foundations/zfc?Curry" class="graphtheory">
<ellipse fill="none" stroke="black" cx="99.3004" cy="-106" rx="31.2735" ry="18"/>
<text text-anchor="middle" x="99.3004" y="-102.3" font-family="Times New Roman,serif" font-size="14.00">Curry</text>
</a>
</g>
<!-- http://latin.omdoc.org/foundations/zfc?Church&#45;&gt;http://latin.omdoc.org/foundations/zfc?Curry -->
<g id="edge3" class="edge"><title>http://latin.omdoc.org/foundations/zfc?Church&#45;&gt;http://latin.omdoc.org/foundations/zfc?Curry</title>
<a xlink:href="http://latin.omdoc.org/foundations/zfc?ChurchInCurry" class="graphview">
<path fill="none" stroke="black" d="M66.8898,-189.624C46.0379,-185.61 21.4703,-176.887 8.30039,-158 -7.58964,-135.212 28.2374,-121.422 59.5079,-114.028"/>
<polygon fill="black" stroke="black" points="60.4128,-117.413 69.4292,-111.849 58.9112,-110.576 60.4128,-117.413"/>
</a>
<a xlink:href="http://latin.omdoc.org/foundations/zfc?ChurchInCurry" class="ChurchInCurry">
<text text-anchor="middle" x="50.8004" y="-146.3" font-family="Times New Roman,serif" font-size="14.00">ChurchInCurry</text>
</a>
</g>
<!-- http://latin.omdoc.org/foundations/zfc?TypedZFBase -->
<g id="node7" class="node"><title>http://latin.omdoc.org/foundations/zfc?TypedZFBase</title>
<a xlink:href="http://latin.omdoc.org/foundations/zfc?TypedZFBase" class="graphtheory">
<ellipse fill="gray" stroke="black" cx="102.3" cy="-18" rx="63.0666" ry="18"/>
<text text-anchor="middle" x="102.3" y="-14.3" font-family="Times New Roman,serif" font-size="14.00">TypedZFBase</text>
</a>
</g>
<!-- http://latin.omdoc.org/foundations/zfc?Curry&#45;&gt;http://latin.omdoc.org/foundations/zfc?TypedZFBase -->
<g id="edge7" class="edge"><title>http://latin.omdoc.org/foundations/zfc?Curry&#45;&gt;http://latin.omdoc.org/foundations/zfc?TypedZFBase</title>
<a xlink:href="http://latin.omdoc.org/foundations/zfc?TypesAsSets" class="graphview">
<path fill="none" stroke="black" d="M69.0374,-100.576C34.7274,-94.2125 -14.193,-80.2422 4.30039,-54 12.2561,-42.7107 24.1992,-35.0428 37.0388,-29.84"/>
<polygon fill="black" stroke="black" points="38.2555,-33.1222 46.5023,-26.4708 35.9076,-26.5276 38.2555,-33.1222"/>
</a>
<a xlink:href="http://latin.omdoc.org/foundations/zfc?TypesAsSets" class="TypesAsSets">
<text text-anchor="middle" x="42.3004" y="-58.3" font-family="Times New Roman,serif" font-size="14.00">TypesAsSets</text>
</a>
</g>
<!-- http://latin.omdoc.org/foundations/zfc?Curry&#45;&gt;http://latin.omdoc.org/foundations/zfc?TypedZFBase -->
<g id="edge9" class="edge"><title>http://latin.omdoc.org/foundations/zfc?Curry&#45;&gt;http://latin.omdoc.org/foundations/zfc?TypedZFBase</title>
<a xlink:href="http://latin.omdoc.org/foundations/zfc?TypesAsClasses" class="graphview">
<path fill="none" stroke="black" d="M99.9075,-87.5966C100.321,-75.7459 100.877,-59.8169 101.348,-46.2917"/>
<polygon fill="black" stroke="black" points="104.854,-46.2 101.704,-36.084 97.8578,-45.9559 104.854,-46.2"/>
</a>
<a xlink:href="http://latin.omdoc.org/foundations/zfc?TypesAsClasses" class="TypesAsClasses">
<text text-anchor="middle" x="148.3" y="-58.3" font-family="Times New Roman,serif" font-size="14.00">TypesAsClasses</text>
</a>
</g>
<!-- http://cds.omdoc.org/urtheories?LF -->
<g id="node5" class="node"><title>http://cds.omdoc.org/urtheories?LF</title>
<a xlink:href="http://cds.omdoc.org/urtheories?LF" class="graphtheory">
<ellipse fill="gray" stroke="black" cx="211.3" cy="-194" rx="27" ry="18"/>
<text text-anchor="middle" x="211.3" y="-190.3" font-family="Times New Roman,serif" font-size="14.00">LF</text>
</a>
</g>
<!-- http://cds.omdoc.org/urtheories?LF&#45;&gt;http://latin.omdoc.org/foundations/zfc?Church -->
<g id="edge5" class="edge"><title>http://cds.omdoc.org/urtheories?LF&#45;&gt;http://latin.omdoc.org/foundations/zfc?Church</title>
<a class="graphmeta">
<path fill="none" stroke="black" d="M184.055,-194C173.028,-194 162.001,-194 150.974,-194"/>
<polygon fill="black" stroke="black" points="150.847,-190.5 140.847,-194 150.847,-197.5 150.847,-190.5"/>
</a>
</g>
<!-- http://cds.omdoc.org/urtheories?LF&#45;&gt;http://latin.omdoc.org/foundations/zfc?Curry -->
<g id="edge11" class="edge"><title>http://cds.omdoc.org/urtheories?LF&#45;&gt;http://latin.omdoc.org/foundations/zfc?Curry</title>
<a class="graphmeta">
<path fill="none" stroke="black" d="M194.29,-179.938C176.03,-165.917 146.791,-143.466 125.571,-127.172"/>
<polygon fill="black" stroke="black" points="127.652,-124.358 117.589,-121.043 123.389,-129.91 127.652,-124.358"/>
</a>
</g>
<!-- http://cds.omdoc.org/urtheories?LF&#45;&gt;http://latin.omdoc.org/foundations/zfc?TypedZFBase -->
<g id="edge13" class="edge"><title>http://cds.omdoc.org/urtheories?LF&#45;&gt;http://latin.omdoc.org/foundations/zfc?TypedZFBase</title>
<a class="graphmeta">
<path fill="none" stroke="black" d="M214.851,-175.964C219.743,-147.497 225.076,-89.8553 197.3,-54 189.237,-43.5916 177.759,-36.2776 165.555,-31.1384"/>
<polygon fill="black" stroke="black" points="166.718,-27.8366 156.126,-27.6171 164.269,-34.3943 166.718,-27.8366"/>
</a>
</g>
</g>
</svg>
