<?xml version="1.0" encoding="UTF-8" standalone="no"?>
<!DOCTYPE svg PUBLIC "-//W3C//DTD SVG 1.1//EN"
 "http://www.w3.org/Graphics/SVG/1.1/DTD/svg11.dtd">
<!-- Generated by graphviz version 2.28.0 (20110507.0327)
 -->
<!-- Title: MMT Pages: 1 -->
<svg width="145pt" height="206pt"
 viewBox="0.00 0.00 145.00 206.00" xmlns="http://www.w3.org/2000/svg" xmlns:xlink="http://www.w3.org/1999/xlink">
<g id="graph1" class="graph" transform="scale(1 1) rotate(0) translate(4 202)">
<title>MMT</title>
<polygon fill="white" stroke="white" points="-4,5 -4,-202 142,-202 142,5 -4,5"/>
<g id="graph2" class="cluster"><title>cluster_local</title>
<polygon fill="none" stroke="black" points="8,-80 8,-132 100,-132 100,-80 8,-80"/>
</g>
<!-- http://latin.omdoc.org/foundations/zfc?Church -->
<g id="node2" class="node"><title>http://latin.omdoc.org/foundations/zfc?Church</title>
<a xlink:href="http://latin.omdoc.org/foundations/zfc?Church" class="graphtheory">
<ellipse fill="none" stroke="black" cx="54" cy="-106" rx="37.5442" ry="18"/>
<text text-anchor="middle" x="54" y="-102.3" font-family="Times New Roman,serif" font-size="14.00">Church</text>
</a>
</g>
<!-- http://latin.omdoc.org/foundations/zfc?Curry -->
<g id="node3" class="node"><title>http://latin.omdoc.org/foundations/zfc?Curry</title>
<a xlink:href="http://latin.omdoc.org/foundations/zfc?Curry" class="graphtheory">
<ellipse fill="gray" stroke="black" cx="87" cy="-18" rx="31.2735" ry="18"/>
<text text-anchor="middle" x="87" y="-14.3" font-family="Times New Roman,serif" font-size="14.00">Curry</text>
</a>
</g>
<!-- http://latin.omdoc.org/foundations/zfc?Church&#45;&gt;http://latin.omdoc.org/foundations/zfc?Curry -->
<g id="edge3" class="edge"><title>http://latin.omdoc.org/foundations/zfc?Church&#45;&gt;http://latin.omdoc.org/foundations/zfc?Curry</title>
<a xlink:href="http://latin.omdoc.org/foundations/zfc?ChurchInCurry" class="graphview">
<path fill="none" stroke="black" d="M42.6853,-88.8249C36.9606,-78.5116 32.3101,-65.0566 38,-54 41.7671,-46.6798 47.8534,-40.5512 54.4755,-35.5738"/>
<polygon fill="black" stroke="black" points="56.6357,-38.3403 63.0158,-29.8818 52.7535,-32.5154 56.6357,-38.3403"/>
</a>
<a xlink:href="http://latin.omdoc.org/foundations/zfc?ChurchInCurry" class="ChurchInCurry">
<text text-anchor="middle" x="80.5" y="-58.3" font-family="Times New Roman,serif" font-size="14.00">ChurchInCurry</text>
</a>
</g>
<!-- http://cds.omdoc.org/urtheories?LF -->
<g id="node5" class="node"><title>http://cds.omdoc.org/urtheories?LF</title>
<a xlink:href="http://cds.omdoc.org/urtheories?LF" class="graphtheory">
<ellipse fill="gray" stroke="black" cx="110" cy="-180" rx="27" ry="18"/>
<text text-anchor="middle" x="110" y="-176.3" font-family="Times New Roman,serif" font-size="14.00">LF</text>
</a>
</g>
<!-- http://cds.omdoc.org/urtheories?LF&#45;&gt;http://latin.omdoc.org/foundations/zfc?Church -->
<g id="edge5" class="edge"><title>http://cds.omdoc.org/urtheories?LF&#45;&gt;http://latin.omdoc.org/foundations/zfc?Church</title>
<a class="graphmeta">
<path fill="none" stroke="black" d="M98.1238,-163.731C90.8277,-154.35 81.3159,-142.12 72.9926,-131.419"/>
<polygon fill="black" stroke="black" points="75.5395,-128.993 66.6373,-123.248 70.014,-133.29 75.5395,-128.993"/>
</a>
</g>
<!-- http://cds.omdoc.org/urtheories?LF&#45;&gt;http://latin.omdoc.org/foundations/zfc?Curry -->
<g id="edge7" class="edge"><title>http://cds.omdoc.org/urtheories?LF&#45;&gt;http://latin.omdoc.org/foundations/zfc?Curry</title>
<a class="graphmeta">
<path fill="none" stroke="black" d="M116.651,-162.467C125.507,-137.802 138.369,-90.3779 123,-54 120.795,-48.7807 117.389,-43.9554 113.534,-39.6606"/>
<polygon fill="black" stroke="black" points="115.86,-37.0397 106.272,-32.5321 110.956,-42.0351 115.86,-37.0397"/>
</a>
</g>
</g>
</svg>
