<?xml version="1.0" encoding="UTF-8" standalone="no"?>
<!DOCTYPE svg PUBLIC "-//W3C//DTD SVG 1.1//EN"
 "http://www.w3.org/Graphics/SVG/1.1/DTD/svg11.dtd">
<!-- Generated by graphviz version 2.28.0 (20110507.0327)
 -->
<!-- Title: MMT Pages: 1 -->
<svg
 viewBox="0.00 0.00 376.00 368.00" xmlns="http://www.w3.org/2000/svg" xmlns:xlink="http://www.w3.org/1999/xlink">
<g id="graph1" class="graph" transform="scale(1 1) rotate(0) translate(4 364)">
<title>MMT</title>
<polygon fill="white" stroke="white" points="-4,5 -4,-364 373,-364 373,5 -4,5"/>
<g id="graph2" class="cluster"><title>cluster_local</title>
<polygon fill="none" stroke="black" points="201,-154 201,-206 311,-206 311,-154 201,-154"/>
</g>
<!-- http://latin.omdoc.org/foundations/zfc?DisjUnion -->
<g id="node2" class="node"><title>http://latin.omdoc.org/foundations/zfc?DisjUnion</title>
<a xlink:href="http://latin.omdoc.org/foundations/zfc?DisjUnion" class="graphtheory">
<ellipse fill="none" stroke="black" cx="256" cy="-180" rx="46.1964" ry="18"/>
<text text-anchor="middle" x="256" y="-176.3" font-family="Times New Roman,serif" font-size="14.00">DisjUnion</text>
</a>
</g>
<!-- http://latin.omdoc.org/foundations/zfc?ConditionalTerms -->
<g id="node3" class="node"><title>http://latin.omdoc.org/foundations/zfc?ConditionalTerms</title>
<a xlink:href="http://latin.omdoc.org/foundations/zfc?ConditionalTerms" class="graphtheory">
<ellipse fill="gray" stroke="black" cx="76" cy="-92" rx="76.0649" ry="18"/>
<text text-anchor="middle" x="76" y="-88.3" font-family="Times New Roman,serif" font-size="14.00">ConditionalTerms</text>
</a>
</g>
<!-- http://latin.omdoc.org/foundations/zfc?DisjUnion&#45;&gt;http://latin.omdoc.org/foundations/zfc?ConditionalTerms -->
<g id="edge3" class="edge"><title>http://latin.omdoc.org/foundations/zfc?DisjUnion&#45;&gt;http://latin.omdoc.org/foundations/zfc?ConditionalTerms</title>
<a xlink:href="http://latin.omdoc.org/foundations/zfc?_DU" class="graphview">
<path fill="none" stroke="black" d="M228.508,-165.436C220.903,-161.708 212.641,-157.679 205,-154 176.004,-140.039 143.219,-124.539 117.956,-112.658"/>
<polygon fill="black" stroke="black" points="119.205,-109.377 108.666,-108.292 116.228,-115.713 119.205,-109.377"/>
</a>
<a xlink:href="http://latin.omdoc.org/foundations/zfc?_DU" class="_DU">
<text text-anchor="middle" x="198" y="-132.3" font-family="Times New Roman,serif" font-size="14.00">_DU</text>
</a>
</g>
<!-- http://latin.omdoc.org/foundations/zfc?TypedZF -->
<g id="node7" class="node"><title>http://latin.omdoc.org/foundations/zfc?TypedZF</title>
<a xlink:href="http://latin.omdoc.org/foundations/zfc?TypedZF" class="graphtheory">
<ellipse fill="gray" stroke="black" cx="218" cy="-18" rx="45.244" ry="18"/>
<text text-anchor="middle" x="218" y="-14.3" font-family="Times New Roman,serif" font-size="14.00">TypedZF</text>
</a>
</g>
<!-- http://latin.omdoc.org/foundations/zfc?DisjUnion&#45;&gt;http://latin.omdoc.org/foundations/zfc?TypedZF -->
<g id="edge7" class="edge"><title>http://latin.omdoc.org/foundations/zfc?DisjUnion&#45;&gt;http://latin.omdoc.org/foundations/zfc?TypedZF</title>
<a class="graphinclude">
<path fill="none" stroke="black" d="M251.933,-161.877C245.334,-134.089 232.24,-78.9587 224.388,-45.8962"/>
<polygon fill="black" stroke="black" points="227.754,-44.9203 222.037,-35.9997 220.943,-46.5378 227.754,-44.9203"/>
</a>
</g>
<!-- http://latin.omdoc.org/foundations/zfc?ConditionalTerms&#45;&gt;http://latin.omdoc.org/foundations/zfc?TypedZF -->
<g id="edge25" class="edge"><title>http://latin.omdoc.org/foundations/zfc?ConditionalTerms&#45;&gt;http://latin.omdoc.org/foundations/zfc?TypedZF</title>
<a class="graphinclude">
<path fill="none" stroke="black" d="M106.812,-75.3771C128.893,-64.1811 158.706,-49.0644 181.903,-37.3026"/>
<polygon fill="black" stroke="black" points="183.741,-40.2952 191.077,-32.6511 180.575,-34.0518 183.741,-40.2952"/>
</a>
</g>
<!-- http://latin.omdoc.org/type_theories?DUNION -->
<g id="node5" class="node"><title>http://latin.omdoc.org/type_theories?DUNION</title>
<a xlink:href="http://latin.omdoc.org/type_theories?DUNION" class="graphtheory">
<ellipse fill="gray" stroke="black" cx="256" cy="-268" rx="46.2191" ry="18"/>
<text text-anchor="middle" x="256" y="-264.3" font-family="Times New Roman,serif" font-size="14.00">DUNION</text>
</a>
</g>
<!-- http://latin.omdoc.org/type_theories?DUNION&#45;&gt;http://latin.omdoc.org/foundations/zfc?DisjUnion -->
<g id="edge5" class="edge"><title>http://latin.omdoc.org/type_theories?DUNION&#45;&gt;http://latin.omdoc.org/foundations/zfc?DisjUnion</title>
<a xlink:href="http://latin.omdoc.org/translations/tt_zfc?DUNION" class="graphview">
<path fill="none" stroke="black" d="M256,-249.597C256,-237.746 256,-221.817 256,-208.292"/>
<polygon fill="black" stroke="black" points="259.5,-208.084 256,-198.084 252.5,-208.084 259.5,-208.084"/>
</a>
<a xlink:href="http://latin.omdoc.org/translations/tt_zfc?DUNION" class="DUNION">
<text text-anchor="middle" x="283.5" y="-220.3" font-family="Times New Roman,serif" font-size="14.00">DUNION</text>
</a>
</g>
<!-- http://latin.omdoc.org/foundations/zfc?TypedZFBase -->
<g id="node9" class="node"><title>http://latin.omdoc.org/foundations/zfc?TypedZFBase</title>
<a xlink:href="http://latin.omdoc.org/foundations/zfc?TypedZFBase" class="graphtheory">
<ellipse fill="gray" stroke="black" cx="129" cy="-268" rx="63.0666" ry="18"/>
<text text-anchor="middle" x="129" y="-264.3" font-family="Times New Roman,serif" font-size="14.00">TypedZFBase</text>
</a>
</g>
<!-- http://latin.omdoc.org/foundations/zfc?TypedZFBase&#45;&gt;http://latin.omdoc.org/foundations/zfc?DisjUnion -->
<g id="edge9" class="edge"><title>http://latin.omdoc.org/foundations/zfc?TypedZFBase&#45;&gt;http://latin.omdoc.org/foundations/zfc?DisjUnion</title>
<a class="graphinclude">
<path fill="none" stroke="black" d="M159.482,-252.151C170.622,-246.322 183.145,-239.286 194,-232 206.634,-223.52 219.768,-212.998 230.677,-203.717"/>
<polygon fill="black" stroke="black" points="233.267,-206.105 238.541,-196.917 228.688,-200.81 233.267,-206.105"/>
</a>
</g>
<!-- http://latin.omdoc.org/foundations/zfc?TypedZFBase&#45;&gt;http://latin.omdoc.org/foundations/zfc?ConditionalTerms -->
<g id="edge23" class="edge"><title>http://latin.omdoc.org/foundations/zfc?TypedZFBase&#45;&gt;http://latin.omdoc.org/foundations/zfc?ConditionalTerms</title>
<a class="graphinclude">
<path fill="none" stroke="black" d="M123.822,-249.999C114.6,-219.723 95.2644,-156.245 84.2124,-119.962"/>
<polygon fill="black" stroke="black" points="87.4614,-118.616 81.1994,-110.07 80.7651,-120.656 87.4614,-118.616"/>
</a>
</g>
<!-- http://latin.omdoc.org/foundations/zfc?TypedZFBase&#45;&gt;http://latin.omdoc.org/foundations/zfc?TypedZF -->
<g id="edge21" class="edge"><title>http://latin.omdoc.org/foundations/zfc?TypedZFBase&#45;&gt;http://latin.omdoc.org/foundations/zfc?TypedZF</title>
<a class="graphinclude">
<path fill="none" stroke="black" d="M135.117,-249.954C150.328,-207.568 189.956,-97.145 208.354,-45.8774"/>
<polygon fill="black" stroke="black" points="211.756,-46.7598 211.84,-36.1653 205.168,-44.3953 211.756,-46.7598"/>
</a>
</g>
<!-- http://cds.omdoc.org/urtheories?LF -->
<g id="node11" class="node"><title>http://cds.omdoc.org/urtheories?LF</title>
<a xlink:href="http://cds.omdoc.org/urtheories?LF" class="graphtheory">
<ellipse fill="gray" stroke="black" cx="256" cy="-342" rx="27" ry="18"/>
<text text-anchor="middle" x="256" y="-338.3" font-family="Times New Roman,serif" font-size="14.00">LF</text>
</a>
</g>
<!-- http://cds.omdoc.org/urtheories?LF&#45;&gt;http://latin.omdoc.org/foundations/zfc?DisjUnion -->
<g id="edge11" class="edge"><title>http://cds.omdoc.org/urtheories?LF&#45;&gt;http://latin.omdoc.org/foundations/zfc?DisjUnion</title>
<a class="graphmeta">
<path fill="none" stroke="black" d="M273.986,-328.573C286.737,-318.659 302.956,-303.555 311,-286 321.025,-264.122 314.111,-256.049 315,-232 315.263,-224.894 318.519,-222.179 315,-216 310.897,-208.796 304.664,-202.922 297.761,-198.187"/>
<polygon fill="black" stroke="black" points="299.144,-194.935 288.77,-192.785 295.539,-200.935 299.144,-194.935"/>
</a>
</g>
<!-- http://cds.omdoc.org/urtheories?LF&#45;&gt;http://latin.omdoc.org/foundations/zfc?ConditionalTerms -->
<g id="edge15" class="edge"><title>http://cds.omdoc.org/urtheories?LF&#45;&gt;http://latin.omdoc.org/foundations/zfc?ConditionalTerms</title>
<a class="graphmeta">
<path fill="none" stroke="black" d="M229.582,-337.647C180.417,-330.808 77.9488,-313.524 57,-286 19.7006,-236.993 45.4041,-159.485 63.1194,-119.225"/>
<polygon fill="black" stroke="black" points="66.3328,-120.613 67.2987,-110.063 59.9641,-117.708 66.3328,-120.613"/>
</a>
</g>
<!-- http://cds.omdoc.org/urtheories?LF&#45;&gt;http://latin.omdoc.org/type_theories?DUNION -->
<g id="edge19" class="edge"><title>http://cds.omdoc.org/urtheories?LF&#45;&gt;http://latin.omdoc.org/type_theories?DUNION</title>
<a class="graphmeta">
<path fill="none" stroke="black" d="M256,-323.937C256,-315.807 256,-305.876 256,-296.705"/>
<polygon fill="black" stroke="black" points="259.5,-296.441 256,-286.441 252.5,-296.441 259.5,-296.441"/>
</a>
</g>
<!-- http://cds.omdoc.org/urtheories?LF&#45;&gt;http://latin.omdoc.org/foundations/zfc?TypedZF -->
<g id="edge17" class="edge"><title>http://cds.omdoc.org/urtheories?LF&#45;&gt;http://latin.omdoc.org/foundations/zfc?TypedZF</title>
<a class="graphmeta">
<path fill="none" stroke="black" d="M281.695,-336.286C314.761,-328.565 368,-309.799 368,-269 368,-269 368,-269 368,-91 368,-47.2762 315.56,-30.0863 272.692,-23.3388"/>
<polygon fill="black" stroke="black" points="272.991,-19.8462 262.599,-21.909 272.009,-26.777 272.991,-19.8462"/>
</a>
</g>
<!-- http://cds.omdoc.org/urtheories?LF&#45;&gt;http://latin.omdoc.org/foundations/zfc?TypedZFBase -->
<g id="edge13" class="edge"><title>http://cds.omdoc.org/urtheories?LF&#45;&gt;http://latin.omdoc.org/foundations/zfc?TypedZFBase</title>
<a class="graphmeta">
<path fill="none" stroke="black" d="M236.156,-329.75C217.187,-318.996 188.144,-302.531 165.077,-289.453"/>
<polygon fill="black" stroke="black" points="166.67,-286.333 156.245,-284.446 163.218,-292.422 166.67,-286.333"/>
</a>
</g>
</g>
</svg>
