<?xml version="1.0" encoding="UTF-8" standalone="no"?>
<!DOCTYPE svg PUBLIC "-//W3C//DTD SVG 1.1//EN"
 "http://www.w3.org/Graphics/SVG/1.1/DTD/svg11.dtd">
<!-- Generated by graphviz version 2.28.0 (20110507.0327)
 -->
<!-- Title: MMT Pages: 1 -->
<svg
 viewBox="0.00 0.00 423.00 354.00" xmlns="http://www.w3.org/2000/svg" xmlns:xlink="http://www.w3.org/1999/xlink">
<g id="graph1" class="graph" transform="scale(1 1) rotate(0) translate(4 350)">
<title>MMT</title>
<polygon fill="white" stroke="white" points="-4,5 -4,-350 420,-350 420,5 -4,5"/>
<g id="graph2" class="cluster"><title>cluster_local</title>
<polygon fill="none" stroke="black" points="129,-140 129,-192 239,-192 239,-140 129,-140"/>
</g>
<!-- http://latin.omdoc.org/foundations/zfc?Functions -->
<g id="node2" class="node"><title>http://latin.omdoc.org/foundations/zfc?Functions</title>
<a xlink:href="http://latin.omdoc.org/foundations/zfc?Functions" class="graphtheory">
<ellipse fill="none" stroke="black" cx="184" cy="-166" rx="46.1964" ry="18"/>
<text text-anchor="middle" x="184" y="-162.3" font-family="Times New Roman,serif" font-size="14.00">Functions</text>
</a>
</g>
<!-- http://latin.omdoc.org/foundations/zfc?DependentFunctions -->
<g id="node5" class="node"><title>http://latin.omdoc.org/foundations/zfc?DependentFunctions</title>
<a xlink:href="http://latin.omdoc.org/foundations/zfc?DependentFunctions" class="graphtheory">
<ellipse fill="gray" stroke="black" cx="187" cy="-92" rx="85.19" ry="18"/>
<text text-anchor="middle" x="187" y="-88.3" font-family="Times New Roman,serif" font-size="14.00">DependentFunctions</text>
</a>
</g>
<!-- http://latin.omdoc.org/foundations/zfc?Functions&#45;&gt;http://latin.omdoc.org/foundations/zfc?DependentFunctions -->
<g id="edge5" class="edge"><title>http://latin.omdoc.org/foundations/zfc?Functions&#45;&gt;http://latin.omdoc.org/foundations/zfc?DependentFunctions</title>
<a class="graphinclude">
<path fill="none" stroke="black" d="M184.711,-147.937C185.05,-139.807 185.463,-129.876 185.846,-120.705"/>
<polygon fill="black" stroke="black" points="189.354,-120.578 186.273,-110.441 182.36,-120.286 189.354,-120.578"/>
</a>
</g>
<!-- http://latin.omdoc.org/foundations/isabelle?NesetZFC -->
<g id="node7" class="node"><title>http://latin.omdoc.org/foundations/isabelle?NesetZFC</title>
<a xlink:href="http://latin.omdoc.org/foundations/isabelle?NesetZFC" class="graphtheory">
<ellipse fill="gray" stroke="black" cx="339" cy="-92" rx="48.1437" ry="18"/>
<text text-anchor="middle" x="339" y="-88.3" font-family="Times New Roman,serif" font-size="14.00">NesetZFC</text>
</a>
</g>
<!-- http://latin.omdoc.org/foundations/zfc?Functions&#45;&gt;http://latin.omdoc.org/foundations/isabelle?NesetZFC -->
<g id="edge7" class="edge"><title>http://latin.omdoc.org/foundations/zfc?Functions&#45;&gt;http://latin.omdoc.org/foundations/isabelle?NesetZFC</title>
<a class="graphinclude">
<path fill="none" stroke="black" d="M210.884,-151.294C218.339,-147.566 226.457,-143.572 234,-140 255.407,-129.863 279.514,-119.031 299.225,-110.324"/>
<polygon fill="black" stroke="black" points="300.775,-113.466 308.517,-106.233 297.954,-107.06 300.775,-113.466"/>
</a>
</g>
<!-- http://latin.omdoc.org/foundations/zfc?TypedZF -->
<g id="node9" class="node"><title>http://latin.omdoc.org/foundations/zfc?TypedZF</title>
<a xlink:href="http://latin.omdoc.org/foundations/zfc?TypedZF" class="graphtheory">
<ellipse fill="gray" stroke="black" cx="108" cy="-18" rx="45.244" ry="18"/>
<text text-anchor="middle" x="108" y="-14.3" font-family="Times New Roman,serif" font-size="14.00">TypedZF</text>
</a>
</g>
<!-- http://latin.omdoc.org/foundations/zfc?Functions&#45;&gt;http://latin.omdoc.org/foundations/zfc?TypedZF -->
<g id="edge9" class="edge"><title>http://latin.omdoc.org/foundations/zfc?Functions&#45;&gt;http://latin.omdoc.org/foundations/zfc?TypedZF</title>
<a class="graphinclude">
<path fill="none" stroke="black" d="M157.878,-151.11C132.016,-137.09 95.7415,-116.596 92,-110 80.7447,-90.158 86.9318,-64.279 94.6557,-45.1933"/>
<polygon fill="black" stroke="black" points="97.9212,-46.4622 98.7506,-35.8999 91.5155,-43.6396 97.9212,-46.4622"/>
</a>
</g>
<!-- http://latin.omdoc.org/type_theories?SimpTypes -->
<g id="node3" class="node"><title>http://latin.omdoc.org/type_theories?SimpTypes</title>
<a xlink:href="http://latin.omdoc.org/type_theories?SimpTypes" class="graphtheory">
<ellipse fill="gray" stroke="black" cx="182" cy="-254" rx="52.4675" ry="18"/>
<text text-anchor="middle" x="182" y="-250.3" font-family="Times New Roman,serif" font-size="14.00">SimpTypes</text>
</a>
</g>
<!-- http://latin.omdoc.org/type_theories?SimpTypes&#45;&gt;http://latin.omdoc.org/foundations/zfc?Functions -->
<g id="edge3" class="edge"><title>http://latin.omdoc.org/type_theories?SimpTypes&#45;&gt;http://latin.omdoc.org/foundations/zfc?Functions</title>
<a xlink:href="http://latin.omdoc.org/translations/tt_zfc?SimpTypes" class="graphview">
<path fill="none" stroke="black" d="M182.405,-235.597C182.68,-223.746 183.051,-207.817 183.365,-194.292"/>
<polygon fill="black" stroke="black" points="186.869,-194.163 183.603,-184.084 179.871,-194 186.869,-194.163"/>
</a>
<a xlink:href="http://latin.omdoc.org/translations/tt_zfc?SimpTypes" class="SimpTypes">
<text text-anchor="middle" x="216.5" y="-206.3" font-family="Times New Roman,serif" font-size="14.00">SimpTypes</text>
</a>
</g>
<!-- http://latin.omdoc.org/foundations/zfc?DependentFunctions&#45;&gt;http://latin.omdoc.org/foundations/zfc?TypedZF -->
<g id="edge27" class="edge"><title>http://latin.omdoc.org/foundations/zfc?DependentFunctions&#45;&gt;http://latin.omdoc.org/foundations/zfc?TypedZF</title>
<a class="graphinclude">
<path fill="none" stroke="black" d="M168.677,-74.3008C158.085,-64.6474 144.609,-52.3654 133.049,-41.8292"/>
<polygon fill="black" stroke="black" points="135.159,-39.0168 125.41,-34.8675 130.444,-44.1904 135.159,-39.0168"/>
</a>
</g>
<!-- http://latin.omdoc.org/foundations/zfc?ImageTypes -->
<g id="node11" class="node"><title>http://latin.omdoc.org/foundations/zfc?ImageTypes</title>
<a xlink:href="http://latin.omdoc.org/foundations/zfc?ImageTypes" class="graphtheory">
<ellipse fill="gray" stroke="black" cx="55" cy="-254" rx="55.3436" ry="18"/>
<text text-anchor="middle" x="55" y="-250.3" font-family="Times New Roman,serif" font-size="14.00">ImageTypes</text>
</a>
</g>
<!-- http://latin.omdoc.org/foundations/zfc?ImageTypes&#45;&gt;http://latin.omdoc.org/foundations/zfc?Functions -->
<g id="edge11" class="edge"><title>http://latin.omdoc.org/foundations/zfc?ImageTypes&#45;&gt;http://latin.omdoc.org/foundations/zfc?Functions</title>
<a class="graphinclude">
<path fill="none" stroke="black" d="M78.0626,-237.625C99.0117,-223.659 130.074,-202.95 153.153,-187.565"/>
<polygon fill="black" stroke="black" points="155.19,-190.413 161.569,-181.954 151.307,-184.589 155.19,-190.413"/>
</a>
</g>
<!-- http://latin.omdoc.org/foundations/zfc?ImageTypes&#45;&gt;http://latin.omdoc.org/foundations/zfc?TypedZF -->
<g id="edge25" class="edge"><title>http://latin.omdoc.org/foundations/zfc?ImageTypes&#45;&gt;http://latin.omdoc.org/foundations/zfc?TypedZF</title>
<a class="graphinclude">
<path fill="none" stroke="black" d="M56.7704,-235.821C60.2559,-203.756 68.8317,-132.726 82,-74 84.0305,-64.9446 84.3408,-62.5284 88,-54 89.3245,-50.9129 90.8555,-47.753 92.4689,-44.6561"/>
<polygon fill="black" stroke="black" points="95.6511,-46.1344 97.4325,-35.6903 89.5269,-42.7439 95.6511,-46.1344"/>
</a>
</g>
<!-- http://cds.omdoc.org/urtheories?LF -->
<g id="node13" class="node"><title>http://cds.omdoc.org/urtheories?LF</title>
<a xlink:href="http://cds.omdoc.org/urtheories?LF" class="graphtheory">
<ellipse fill="gray" stroke="black" cx="282" cy="-328" rx="27" ry="18"/>
<text text-anchor="middle" x="282" y="-324.3" font-family="Times New Roman,serif" font-size="14.00">LF</text>
</a>
</g>
<!-- http://cds.omdoc.org/urtheories?LF&#45;&gt;http://latin.omdoc.org/foundations/zfc?Functions -->
<g id="edge13" class="edge"><title>http://cds.omdoc.org/urtheories?LF&#45;&gt;http://latin.omdoc.org/foundations/zfc?Functions</title>
<a class="graphmeta">
<path fill="none" stroke="black" d="M281.661,-309.747C280.298,-283.727 274.286,-234.083 249,-202 246.787,-199.193 234.159,-192.185 220.613,-185.171"/>
<polygon fill="black" stroke="black" points="222.176,-182.04 211.679,-180.606 218.991,-188.273 222.176,-182.04"/>
</a>
</g>
<!-- http://cds.omdoc.org/urtheories?LF&#45;&gt;http://latin.omdoc.org/type_theories?SimpTypes -->
<g id="edge15" class="edge"><title>http://cds.omdoc.org/urtheories?LF&#45;&gt;http://latin.omdoc.org/type_theories?SimpTypes</title>
<a class="graphmeta">
<path fill="none" stroke="black" d="M264.122,-314.128C249.674,-303.726 229.022,-288.856 212.042,-276.63"/>
<polygon fill="black" stroke="black" points="213.711,-273.519 203.55,-270.516 209.621,-279.2 213.711,-273.519"/>
</a>
</g>
<!-- http://cds.omdoc.org/urtheories?LF&#45;&gt;http://latin.omdoc.org/foundations/zfc?DependentFunctions -->
<g id="edge19" class="edge"><title>http://cds.omdoc.org/urtheories?LF&#45;&gt;http://latin.omdoc.org/foundations/zfc?DependentFunctions</title>
<a class="graphmeta">
<path fill="none" stroke="black" d="M285.617,-310.012C288.925,-291.568 292.533,-261.352 287,-236 276.992,-190.145 271.448,-177.331 243,-140 236.237,-131.125 227.516,-122.804 218.978,-115.702"/>
<polygon fill="black" stroke="black" points="220.923,-112.776 210.919,-109.288 216.564,-118.254 220.923,-112.776"/>
</a>
</g>
<!-- http://cds.omdoc.org/urtheories?LF&#45;&gt;http://latin.omdoc.org/foundations/isabelle?NesetZFC -->
<g id="edge23" class="edge"><title>http://cds.omdoc.org/urtheories?LF&#45;&gt;http://latin.omdoc.org/foundations/isabelle?NesetZFC</title>
<a class="graphmeta">
<path fill="none" stroke="black" d="M298.5,-313.622C304.703,-307.674 311.174,-300.168 315,-292 341.567,-235.276 342.639,-159.939 340.935,-120.206"/>
<polygon fill="black" stroke="black" points="344.43,-120.021 340.413,-110.217 337.439,-120.386 344.43,-120.021"/>
</a>
</g>
<!-- http://cds.omdoc.org/urtheories?LF&#45;&gt;http://latin.omdoc.org/foundations/zfc?TypedZF -->
<g id="edge17" class="edge"><title>http://cds.omdoc.org/urtheories?LF&#45;&gt;http://latin.omdoc.org/foundations/zfc?TypedZF</title>
<a class="graphmeta">
<path fill="none" stroke="black" d="M308.595,-324.453C347.408,-319.107 415,-302.918 415,-255 415,-255 415,-255 415,-91 415,-39.8542 251.449,-25.0128 163.096,-20.7267"/>
<polygon fill="black" stroke="black" points="163.118,-17.2242 152.969,-20.2656 162.8,-24.217 163.118,-17.2242"/>
</a>
</g>
<!-- http://cds.omdoc.org/urtheories?LF&#45;&gt;http://latin.omdoc.org/foundations/zfc?ImageTypes -->
<g id="edge21" class="edge"><title>http://cds.omdoc.org/urtheories?LF&#45;&gt;http://latin.omdoc.org/foundations/zfc?ImageTypes</title>
<a class="graphmeta">
<path fill="none" stroke="black" d="M258.136,-319.431C221.472,-307.802 150.548,-285.306 102.977,-270.218"/>
<polygon fill="black" stroke="black" points="103.792,-266.804 93.2017,-267.117 101.676,-273.476 103.792,-266.804"/>
</a>
</g>
</g>
</svg>
