<?xml version="1.0" encoding="UTF-8" standalone="no"?>
<!DOCTYPE svg PUBLIC "-//W3C//DTD SVG 1.1//EN"
 "http://www.w3.org/Graphics/SVG/1.1/DTD/svg11.dtd">
<!-- Generated by graphviz version 2.28.0 (20110507.0327)
 -->
<!-- Title: MMT Pages: 1 -->
<svg width="309pt" height="260pt"
 viewBox="0.00 0.00 308.91 260.00" xmlns="http://www.w3.org/2000/svg" xmlns:xlink="http://www.w3.org/1999/xlink">
<g id="graph1" class="graph" transform="scale(1 1) rotate(0) translate(4 256)">
<title>MMT</title>
<polygon fill="white" stroke="white" points="-4,5 -4,-256 305.907,-256 305.907,5 -4,5"/>
<g id="graph2" class="cluster"><title>cluster_local</title>
<polygon fill="none" stroke="black" points="88.5941,-64 88.5941,-116 158.594,-116 158.594,-64 88.5941,-64"/>
</g>
<!-- http://latin.omdoc.org/foundations/zfc?If -->
<g id="node2" class="node"><title>http://latin.omdoc.org/foundations/zfc?If</title>
<a xlink:href="http://latin.omdoc.org/foundations/zfc?If" class="graphtheory">
<ellipse fill="none" stroke="black" cx="123.594" cy="-90" rx="27" ry="18"/>
<text text-anchor="middle" x="123.594" y="-86.3" font-family="Times New Roman,serif" font-size="14.00">If</text>
</a>
</g>
<!-- http://latin.omdoc.org/foundations/isabelle?NesetZFC -->
<g id="node3" class="node"><title>http://latin.omdoc.org/foundations/isabelle?NesetZFC</title>
<a xlink:href="http://latin.omdoc.org/foundations/isabelle?NesetZFC" class="graphtheory">
<ellipse fill="gray" stroke="black" cx="245.594" cy="-18" rx="48.1437" ry="18"/>
<text text-anchor="middle" x="245.594" y="-14.3" font-family="Times New Roman,serif" font-size="14.00">NesetZFC</text>
</a>
</g>
<!-- http://latin.omdoc.org/foundations/zfc?If&#45;&gt;http://latin.omdoc.org/foundations/isabelle?NesetZFC -->
<g id="edge3" class="edge"><title>http://latin.omdoc.org/foundations/zfc?If&#45;&gt;http://latin.omdoc.org/foundations/isabelle?NesetZFC</title>
<a class="graphinclude">
<path fill="none" stroke="black" d="M143.467,-77.5975C161.864,-67.0421 189.601,-51.127 211.529,-38.5456"/>
<polygon fill="black" stroke="black" points="213.29,-41.5704 220.222,-33.5578 209.806,-35.4988 213.29,-41.5704"/>
</a>
</g>
<!-- http://latin.omdoc.org/foundations/zfc?TNDBool -->
<g id="node5" class="node"><title>http://latin.omdoc.org/foundations/zfc?TNDBool</title>
<a xlink:href="http://latin.omdoc.org/foundations/zfc?TNDBool" class="graphtheory">
<ellipse fill="gray" stroke="black" cx="62.5941" cy="-162" rx="46.1964" ry="18"/>
<text text-anchor="middle" x="62.5941" y="-158.3" font-family="Times New Roman,serif" font-size="14.00">TNDBool</text>
</a>
</g>
<!-- http://latin.omdoc.org/foundations/zfc?TNDBool&#45;&gt;http://latin.omdoc.org/foundations/zfc?If -->
<g id="edge5" class="edge"><title>http://latin.omdoc.org/foundations/zfc?TNDBool&#45;&gt;http://latin.omdoc.org/foundations/zfc?If</title>
<a class="graphinclude">
<path fill="none" stroke="black" d="M76.742,-144.765C84.7402,-135.586 94.8683,-123.964 103.66,-113.875"/>
<polygon fill="black" stroke="black" points="106.427,-116.028 110.358,-106.189 101.149,-111.429 106.427,-116.028"/>
</a>
</g>
<!-- http://latin.omdoc.org/foundations/zfc?ConditionalTerms -->
<g id="node7" class="node"><title>http://latin.omdoc.org/foundations/zfc?ConditionalTerms</title>
<a xlink:href="http://latin.omdoc.org/foundations/zfc?ConditionalTerms" class="graphtheory">
<ellipse fill="gray" stroke="black" cx="203.594" cy="-162" rx="76.0649" ry="18"/>
<text text-anchor="middle" x="203.594" y="-158.3" font-family="Times New Roman,serif" font-size="14.00">ConditionalTerms</text>
</a>
</g>
<!-- http://latin.omdoc.org/foundations/zfc?ConditionalTerms&#45;&gt;http://latin.omdoc.org/foundations/zfc?If -->
<g id="edge7" class="edge"><title>http://latin.omdoc.org/foundations/zfc?ConditionalTerms&#45;&gt;http://latin.omdoc.org/foundations/zfc?If</title>
<a class="graphinclude">
<path fill="none" stroke="black" d="M184.635,-144.411C173.448,-134.622 159.19,-122.147 147.269,-111.715"/>
<polygon fill="black" stroke="black" points="149.285,-108.829 139.455,-104.878 144.676,-114.097 149.285,-108.829"/>
</a>
</g>
<!-- http://cds.omdoc.org/urtheories?LF -->
<g id="node9" class="node"><title>http://cds.omdoc.org/urtheories?LF</title>
<a xlink:href="http://cds.omdoc.org/urtheories?LF" class="graphtheory">
<ellipse fill="gray" stroke="black" cx="132.594" cy="-234" rx="27" ry="18"/>
<text text-anchor="middle" x="132.594" y="-230.3" font-family="Times New Roman,serif" font-size="14.00">LF</text>
</a>
</g>
<!-- http://cds.omdoc.org/urtheories?LF&#45;&gt;http://latin.omdoc.org/foundations/zfc?If -->
<g id="edge9" class="edge"><title>http://cds.omdoc.org/urtheories?LF&#45;&gt;http://latin.omdoc.org/foundations/zfc?If</title>
<a class="graphmeta">
<path fill="none" stroke="black" d="M105.984,-230.29C76.0234,-225.657 28.6533,-213.21 6.59407,-180 -2.25865,-166.672 -2.07677,-157.447 6.59407,-144 24.275,-116.58 59.962,-103.191 87.2983,-96.7506"/>
<polygon fill="black" stroke="black" points="88.2653,-100.123 97.3114,-94.6078 86.8004,-93.278 88.2653,-100.123"/>
</a>
</g>
<!-- http://cds.omdoc.org/urtheories?LF&#45;&gt;http://latin.omdoc.org/foundations/isabelle?NesetZFC -->
<g id="edge15" class="edge"><title>http://cds.omdoc.org/urtheories?LF&#45;&gt;http://latin.omdoc.org/foundations/isabelle?NesetZFC</title>
<a class="graphmeta">
<path fill="none" stroke="black" d="M159.569,-232.732C195.822,-230.738 259.109,-221.157 288.594,-180 318.29,-138.548 286.714,-77.8596 264.159,-44.0705"/>
<polygon fill="black" stroke="black" points="266.937,-41.9343 258.378,-35.6895 261.175,-45.9086 266.937,-41.9343"/>
</a>
</g>
<!-- http://cds.omdoc.org/urtheories?LF&#45;&gt;http://latin.omdoc.org/foundations/zfc?TNDBool -->
<g id="edge13" class="edge"><title>http://cds.omdoc.org/urtheories?LF&#45;&gt;http://latin.omdoc.org/foundations/zfc?TNDBool</title>
<a class="graphmeta">
<path fill="none" stroke="black" d="M118.09,-218.496C108.719,-209.125 96.3222,-196.728 85.6222,-186.028"/>
<polygon fill="black" stroke="black" points="88.0898,-183.546 78.5438,-178.95 83.14,-188.496 88.0898,-183.546"/>
</a>
</g>
<!-- http://cds.omdoc.org/urtheories?LF&#45;&gt;http://latin.omdoc.org/foundations/zfc?ConditionalTerms -->
<g id="edge11" class="edge"><title>http://cds.omdoc.org/urtheories?LF&#45;&gt;http://latin.omdoc.org/foundations/zfc?ConditionalTerms</title>
<a class="graphmeta">
<path fill="none" stroke="black" d="M147.305,-218.496C156.522,-209.409 168.626,-197.475 179.247,-187.004"/>
<polygon fill="black" stroke="black" points="181.993,-189.212 186.657,-179.699 177.079,-184.227 181.993,-189.212"/>
</a>
</g>
</g>
</svg>
