<?xml version="1.0" encoding="UTF-8" standalone="no"?>
<!DOCTYPE svg PUBLIC "-//W3C//DTD SVG 1.1//EN"
 "http://www.w3.org/Graphics/SVG/1.1/DTD/svg11.dtd">
<!-- Generated by graphviz version 2.28.0 (20110507.0327)
 -->
<!-- Title: MMT Pages: 1 -->
<svg
 viewBox="0.00 0.00 337.31 332.00" xmlns="http://www.w3.org/2000/svg" xmlns:xlink="http://www.w3.org/1999/xlink">
<g id="graph1" class="graph" transform="scale(1 1) rotate(0) translate(4 328)">
<title>MMT</title>
<polygon fill="white" stroke="white" points="-4,5 -4,-328 334.309,-328 334.309,5 -4,5"/>
<g id="graph2" class="cluster"><title>cluster_local</title>
<polygon fill="none" stroke="black" points="176,-64 176,-116 250,-116 250,-64 176,-64"/>
</g>
<!-- http://latin.omdoc.org/foundations/zfc?Lists -->
<g id="node2" class="node"><title>http://latin.omdoc.org/foundations/zfc?Lists</title>
<a xlink:href="http://latin.omdoc.org/foundations/zfc?Lists" class="graphtheory">
<ellipse fill="none" stroke="black" cx="213" cy="-90" rx="28.3955" ry="18"/>
<text text-anchor="middle" x="213" y="-86.3" font-family="Times New Roman,serif" font-size="14.00">Lists</text>
</a>
</g>
<!-- http://latin.omdoc.org/foundations/zfc?Trees -->
<g id="node3" class="node"><title>http://latin.omdoc.org/foundations/zfc?Trees</title>
<a xlink:href="http://latin.omdoc.org/foundations/zfc?Trees" class="graphtheory">
<ellipse fill="gray" stroke="black" cx="289" cy="-18" rx="31.2965" ry="18"/>
<text text-anchor="middle" x="289" y="-14.3" font-family="Times New Roman,serif" font-size="14.00">Trees</text>
</a>
</g>
<!-- http://latin.omdoc.org/foundations/zfc?Lists&#45;&gt;http://latin.omdoc.org/foundations/zfc?Trees -->
<g id="edge3" class="edge"><title>http://latin.omdoc.org/foundations/zfc?Lists&#45;&gt;http://latin.omdoc.org/foundations/zfc?Trees</title>
<a class="graphinclude">
<path fill="none" stroke="black" d="M228.38,-74.8345C239.054,-65.0031 253.472,-51.7234 265.568,-40.5816"/>
<polygon fill="black" stroke="black" points="268.136,-42.9756 273.12,-33.6263 263.393,-37.8267 268.136,-42.9756"/>
</a>
</g>
<!-- http://latin.omdoc.org/foundations/zfc?ZFC -->
<g id="node5" class="node"><title>http://latin.omdoc.org/foundations/zfc?ZFC</title>
<a xlink:href="http://latin.omdoc.org/foundations/zfc?ZFC" class="graphtheory">
<ellipse fill="gray" stroke="black" cx="138" cy="-234" rx="27.4223" ry="18"/>
<text text-anchor="middle" x="138" y="-230.3" font-family="Times New Roman,serif" font-size="14.00">ZFC</text>
</a>
</g>
<!-- http://latin.omdoc.org/foundations/zfc?ZFC&#45;&gt;http://latin.omdoc.org/foundations/zfc?Lists -->
<g id="edge5" class="edge"><title>http://latin.omdoc.org/foundations/zfc?ZFC&#45;&gt;http://latin.omdoc.org/foundations/zfc?Lists</title>
<a class="graphinclude">
<path fill="none" stroke="black" d="M150.23,-217.321C157.91,-207.054 167.705,-193.149 175,-180 186.226,-159.765 196.372,-135.541 203.351,-117.478"/>
<polygon fill="black" stroke="black" points="206.715,-118.478 206.983,-107.886 200.168,-115.998 206.715,-118.478"/>
</a>
</g>
<!-- http://latin.omdoc.org/foundations/zfc?Option -->
<g id="node7" class="node"><title>http://latin.omdoc.org/foundations/zfc?Option</title>
<a xlink:href="http://latin.omdoc.org/foundations/zfc?Option" class="graphtheory">
<ellipse fill="gray" stroke="black" cx="130" cy="-162" rx="36.096" ry="18"/>
<text text-anchor="middle" x="130" y="-158.3" font-family="Times New Roman,serif" font-size="14.00">Option</text>
</a>
</g>
<!-- http://latin.omdoc.org/foundations/zfc?ZFC&#45;&gt;http://latin.omdoc.org/foundations/zfc?Option -->
<g id="edge29" class="edge"><title>http://latin.omdoc.org/foundations/zfc?ZFC&#45;&gt;http://latin.omdoc.org/foundations/zfc?Option</title>
<a class="graphinclude">
<path fill="none" stroke="black" d="M136.022,-215.697C135.141,-207.983 134.081,-198.712 133.099,-190.112"/>
<polygon fill="black" stroke="black" points="136.568,-189.642 131.955,-180.104 129.613,-190.437 136.568,-189.642"/>
</a>
</g>
<!-- http://latin.omdoc.org/foundations/zfc?Option&#45;&gt;http://latin.omdoc.org/foundations/zfc?Lists -->
<g id="edge7" class="edge"><title>http://latin.omdoc.org/foundations/zfc?Option&#45;&gt;http://latin.omdoc.org/foundations/zfc?Lists</title>
<a class="graphinclude">
<path fill="none" stroke="black" d="M147.602,-146.155C159.582,-136.051 175.592,-122.549 188.772,-111.433"/>
<polygon fill="black" stroke="black" points="191.164,-113.994 196.552,-104.872 186.651,-108.643 191.164,-113.994"/>
</a>
</g>
<!-- http://latin.omdoc.org/foundations/zfc?Powersets -->
<g id="node9" class="node"><title>http://latin.omdoc.org/foundations/zfc?Powersets</title>
<a xlink:href="http://latin.omdoc.org/foundations/zfc?Powersets" class="graphtheory">
<ellipse fill="gray" stroke="black" cx="232" cy="-234" rx="48.1437" ry="18"/>
<text text-anchor="middle" x="232" y="-230.3" font-family="Times New Roman,serif" font-size="14.00">Powersets</text>
</a>
</g>
<!-- http://latin.omdoc.org/foundations/zfc?Powersets&#45;&gt;http://latin.omdoc.org/foundations/zfc?Lists -->
<g id="edge9" class="edge"><title>http://latin.omdoc.org/foundations/zfc?Powersets&#45;&gt;http://latin.omdoc.org/foundations/zfc?Lists</title>
<a class="graphinclude">
<path fill="none" stroke="black" d="M229.708,-215.871C226.47,-191.67 220.521,-147.211 216.665,-118.393"/>
<polygon fill="black" stroke="black" points="220.095,-117.637 215.3,-108.189 213.157,-118.565 220.095,-117.637"/>
</a>
</g>
<!-- http://latin.omdoc.org/foundations/zfc?Powersets&#45;&gt;http://latin.omdoc.org/foundations/zfc?Option -->
<g id="edge27" class="edge"><title>http://latin.omdoc.org/foundations/zfc?Powersets&#45;&gt;http://latin.omdoc.org/foundations/zfc?Option</title>
<a class="graphinclude">
<path fill="none" stroke="black" d="M209.868,-217.811C194.938,-207.565 175.086,-193.942 158.91,-182.84"/>
<polygon fill="black" stroke="black" points="160.582,-179.742 150.356,-176.97 156.621,-185.514 160.582,-179.742"/>
</a>
</g>
<!-- http://latin.omdoc.org/foundations/zfc?Nat -->
<g id="node11" class="node"><title>http://latin.omdoc.org/foundations/zfc?Nat</title>
<a xlink:href="http://latin.omdoc.org/foundations/zfc?Nat" class="graphtheory">
<ellipse fill="gray" stroke="black" cx="27" cy="-234" rx="27" ry="18"/>
<text text-anchor="middle" x="27" y="-230.3" font-family="Times New Roman,serif" font-size="14.00">Nat</text>
</a>
</g>
<!-- http://latin.omdoc.org/foundations/zfc?Nat&#45;&gt;http://latin.omdoc.org/foundations/zfc?Lists -->
<g id="edge11" class="edge"><title>http://latin.omdoc.org/foundations/zfc?Nat&#45;&gt;http://latin.omdoc.org/foundations/zfc?Lists</title>
<a class="graphinclude">
<path fill="none" stroke="black" d="M34.0718,-216.397C43.2158,-196.703 60.8773,-164.027 85,-144 111.829,-121.726 149.322,-107.682 176.797,-99.6906"/>
<polygon fill="black" stroke="black" points="178.091,-102.964 186.793,-96.9195 176.221,-96.2182 178.091,-102.964"/>
</a>
</g>
<!-- http://latin.omdoc.org/foundations/zfc?Nat&#45;&gt;http://latin.omdoc.org/foundations/zfc?Option -->
<g id="edge25" class="edge"><title>http://latin.omdoc.org/foundations/zfc?Nat&#45;&gt;http://latin.omdoc.org/foundations/zfc?Option</title>
<a class="graphinclude">
<path fill="none" stroke="black" d="M45.4143,-220.485C60.8297,-210.009 83.1036,-194.871 100.925,-182.76"/>
<polygon fill="black" stroke="black" points="102.963,-185.606 109.267,-177.091 99.0287,-179.817 102.963,-185.606"/>
</a>
</g>
<!-- http://cds.omdoc.org/urtheories?LF -->
<g id="node13" class="node"><title>http://cds.omdoc.org/urtheories?LF</title>
<a xlink:href="http://cds.omdoc.org/urtheories?LF" class="graphtheory">
<ellipse fill="gray" stroke="black" cx="185" cy="-306" rx="27" ry="18"/>
<text text-anchor="middle" x="185" y="-302.3" font-family="Times New Roman,serif" font-size="14.00">LF</text>
</a>
</g>
<!-- http://cds.omdoc.org/urtheories?LF&#45;&gt;http://latin.omdoc.org/foundations/zfc?Lists -->
<g id="edge13" class="edge"><title>http://cds.omdoc.org/urtheories?LF&#45;&gt;http://latin.omdoc.org/foundations/zfc?Lists</title>
<a class="graphmeta">
<path fill="none" stroke="black" d="M210.759,-299.894C235.67,-293.438 272.06,-279.647 289,-252 318.153,-204.422 268.396,-143.884 236.524,-112.324"/>
<polygon fill="black" stroke="black" points="238.881,-109.735 229.253,-105.314 234.023,-114.774 238.881,-109.735"/>
</a>
</g>
<!-- http://cds.omdoc.org/urtheories?LF&#45;&gt;http://latin.omdoc.org/foundations/zfc?Trees -->
<g id="edge21" class="edge"><title>http://cds.omdoc.org/urtheories?LF&#45;&gt;http://latin.omdoc.org/foundations/zfc?Trees</title>
<a class="graphmeta">
<path fill="none" stroke="black" d="M211.523,-301.999C240.816,-297.109 286.656,-284.439 308,-252 350.295,-187.721 319.523,-90.8582 300.712,-44.9281"/>
<polygon fill="black" stroke="black" points="303.916,-43.5201 296.797,-35.6734 297.469,-46.2469 303.916,-43.5201"/>
</a>
</g>
<!-- http://cds.omdoc.org/urtheories?LF&#45;&gt;http://latin.omdoc.org/foundations/zfc?ZFC -->
<g id="edge15" class="edge"><title>http://cds.omdoc.org/urtheories?LF&#45;&gt;http://latin.omdoc.org/foundations/zfc?ZFC</title>
<a class="graphmeta">
<path fill="none" stroke="black" d="M174.335,-289.116C168.446,-280.345 161.006,-269.264 154.394,-259.416"/>
<polygon fill="black" stroke="black" points="157.103,-257.172 148.623,-250.821 151.291,-261.074 157.103,-257.172"/>
</a>
</g>
<!-- http://cds.omdoc.org/urtheories?LF&#45;&gt;http://latin.omdoc.org/foundations/zfc?Option -->
<g id="edge17" class="edge"><title>http://cds.omdoc.org/urtheories?LF&#45;&gt;http://latin.omdoc.org/foundations/zfc?Option</title>
<a class="graphmeta">
<path fill="none" stroke="black" d="M160.941,-297.23C140.897,-289.333 113.657,-274.952 101,-252 89.7375,-231.577 100.217,-206.081 111.6,-187.619"/>
<polygon fill="black" stroke="black" points="114.586,-189.449 117.17,-179.174 108.743,-185.595 114.586,-189.449"/>
</a>
</g>
<!-- http://cds.omdoc.org/urtheories?LF&#45;&gt;http://latin.omdoc.org/foundations/zfc?Powersets -->
<g id="edge23" class="edge"><title>http://cds.omdoc.org/urtheories?LF&#45;&gt;http://latin.omdoc.org/foundations/zfc?Powersets</title>
<a class="graphmeta">
<path fill="none" stroke="black" d="M195.665,-289.116C201.388,-280.592 208.576,-269.886 215.046,-260.251"/>
<polygon fill="black" stroke="black" points="218.053,-262.051 220.722,-251.797 212.242,-258.149 218.053,-262.051"/>
</a>
</g>
<!-- http://cds.omdoc.org/urtheories?LF&#45;&gt;http://latin.omdoc.org/foundations/zfc?Nat -->
<g id="edge19" class="edge"><title>http://cds.omdoc.org/urtheories?LF&#45;&gt;http://latin.omdoc.org/foundations/zfc?Nat</title>
<a class="graphmeta">
<path fill="none" stroke="black" d="M163.031,-295.267C135.792,-283.199 89.1855,-262.551 58.2365,-248.839"/>
<polygon fill="black" stroke="black" points="59.3433,-245.501 48.7826,-244.651 56.5078,-251.901 59.3433,-245.501"/>
</a>
</g>
</g>
</svg>
