<?xml version="1.0" encoding="UTF-8" standalone="no"?>
<!DOCTYPE svg PUBLIC "-//W3C//DTD SVG 1.1//EN"
 "http://www.w3.org/Graphics/SVG/1.1/DTD/svg11.dtd">
<!-- Generated by graphviz version 2.28.0 (20110507.0327)
 -->
<!-- Title: MMT Pages: 1 -->
<svg width="177pt" height="260pt"
 viewBox="0.00 0.00 177.00 260.00" xmlns="http://www.w3.org/2000/svg" xmlns:xlink="http://www.w3.org/1999/xlink">
<g id="graph1" class="graph" transform="scale(1 1) rotate(0) translate(4 256)">
<title>MMT</title>
<polygon fill="white" stroke="white" points="-4,5 -4,-256 174,-256 174,5 -4,5"/>
<g id="graph2" class="cluster"><title>cluster_local</title>
<polygon fill="none" stroke="black" points="8,-64 8,-116 126,-116 126,-64 8,-64"/>
</g>
<!-- http://latin.omdoc.org/foundations/zfc?Operations -->
<g id="node2" class="node"><title>http://latin.omdoc.org/foundations/zfc?Operations</title>
<a xlink:href="http://latin.omdoc.org/foundations/zfc?Operations" class="graphtheory">
<ellipse fill="none" stroke="black" cx="67" cy="-90" rx="50.5427" ry="18"/>
<text text-anchor="middle" x="67" y="-86.3" font-family="Times New Roman,serif" font-size="14.00">Operations</text>
</a>
</g>
<!-- http://latin.omdoc.org/foundations/zfc?TypedZFBase -->
<g id="node3" class="node"><title>http://latin.omdoc.org/foundations/zfc?TypedZFBase</title>
<a xlink:href="http://latin.omdoc.org/foundations/zfc?TypedZFBase" class="graphtheory">
<ellipse fill="gray" stroke="black" cx="106" cy="-18" rx="63.0666" ry="18"/>
<text text-anchor="middle" x="106" y="-14.3" font-family="Times New Roman,serif" font-size="14.00">TypedZFBase</text>
</a>
</g>
<!-- http://latin.omdoc.org/foundations/zfc?Operations&#45;&gt;http://latin.omdoc.org/foundations/zfc?TypedZFBase -->
<g id="edge3" class="edge"><title>http://latin.omdoc.org/foundations/zfc?Operations&#45;&gt;http://latin.omdoc.org/foundations/zfc?TypedZFBase</title>
<a class="graphinclude">
<path fill="none" stroke="black" d="M76.4408,-72.055C80.9248,-64.0067 86.386,-54.2046 91.3884,-45.2259"/>
<polygon fill="black" stroke="black" points="94.5656,-46.7145 96.3752,-36.2753 88.4506,-43.3075 94.5656,-46.7145"/>
</a>
</g>
<!-- http://latin.omdoc.org/foundations/zfc?ZFC -->
<g id="node5" class="node"><title>http://latin.omdoc.org/foundations/zfc?ZFC</title>
<a xlink:href="http://latin.omdoc.org/foundations/zfc?ZFC" class="graphtheory">
<ellipse fill="gray" stroke="black" cx="90" cy="-162" rx="27.4223" ry="18"/>
<text text-anchor="middle" x="90" y="-158.3" font-family="Times New Roman,serif" font-size="14.00">ZFC</text>
</a>
</g>
<!-- http://latin.omdoc.org/foundations/zfc?ZFC&#45;&gt;http://latin.omdoc.org/foundations/zfc?Operations -->
<g id="edge5" class="edge"><title>http://latin.omdoc.org/foundations/zfc?ZFC&#45;&gt;http://latin.omdoc.org/foundations/zfc?Operations</title>
<a class="graphinclude">
<path fill="none" stroke="black" d="M84.4323,-144.055C81.8436,-136.176 78.7026,-126.617 75.8038,-117.794"/>
<polygon fill="black" stroke="black" points="79.1229,-116.683 72.6762,-108.275 72.4727,-118.868 79.1229,-116.683"/>
</a>
</g>
<!-- http://cds.omdoc.org/urtheories?LF -->
<g id="node7" class="node"><title>http://cds.omdoc.org/urtheories?LF</title>
<a xlink:href="http://cds.omdoc.org/urtheories?LF" class="graphtheory">
<ellipse fill="gray" stroke="black" cx="90" cy="-234" rx="27" ry="18"/>
<text text-anchor="middle" x="90" y="-230.3" font-family="Times New Roman,serif" font-size="14.00">LF</text>
</a>
</g>
<!-- http://cds.omdoc.org/urtheories?LF&#45;&gt;http://latin.omdoc.org/foundations/zfc?Operations -->
<g id="edge7" class="edge"><title>http://cds.omdoc.org/urtheories?LF&#45;&gt;http://latin.omdoc.org/foundations/zfc?Operations</title>
<a class="graphmeta">
<path fill="none" stroke="black" d="M75.8738,-218.135C67.4377,-208.193 57.5117,-194.344 53,-180 46.5756,-159.574 51.0253,-135.544 56.5565,-117.605"/>
<polygon fill="black" stroke="black" points="59.8916,-118.668 59.7709,-108.074 53.2587,-116.431 59.8916,-118.668"/>
</a>
</g>
<!-- http://cds.omdoc.org/urtheories?LF&#45;&gt;http://latin.omdoc.org/foundations/zfc?TypedZFBase -->
<g id="edge9" class="edge"><title>http://cds.omdoc.org/urtheories?LF&#45;&gt;http://latin.omdoc.org/foundations/zfc?TypedZFBase</title>
<a class="graphmeta">
<path fill="none" stroke="black" d="M103.449,-217.971C111.539,-207.963 121.177,-194.103 126,-180 142.694,-131.19 142.511,-114.046 130,-64 128.365,-57.461 125.581,-50.8318 122.474,-44.7443"/>
<polygon fill="black" stroke="black" points="125.37,-42.7496 117.448,-35.7148 119.254,-46.1545 125.37,-42.7496"/>
</a>
</g>
<!-- http://cds.omdoc.org/urtheories?LF&#45;&gt;http://latin.omdoc.org/foundations/zfc?ZFC -->
<g id="edge11" class="edge"><title>http://cds.omdoc.org/urtheories?LF&#45;&gt;http://latin.omdoc.org/foundations/zfc?ZFC</title>
<a class="graphmeta">
<path fill="none" stroke="black" d="M90,-215.697C90,-207.983 90,-198.712 90,-190.112"/>
<polygon fill="black" stroke="black" points="93.5001,-190.104 90,-180.104 86.5001,-190.104 93.5001,-190.104"/>
</a>
</g>
</g>
</svg>
