<?xml version="1.0" encoding="UTF-8" standalone="no"?>
<!DOCTYPE svg PUBLIC "-//W3C//DTD SVG 1.1//EN"
 "http://www.w3.org/Graphics/SVG/1.1/DTD/svg11.dtd">
<!-- Generated by graphviz version 2.28.0 (20110507.0327)
 -->
<!-- Title: MMT Pages: 1 -->
<svg width="377pt" height="266pt"
 viewBox="0.00 0.00 377.43 266.00" xmlns="http://www.w3.org/2000/svg" xmlns:xlink="http://www.w3.org/1999/xlink">
<g id="graph1" class="graph" transform="scale(1 1) rotate(0) translate(4 262)">
<title>MMT</title>
<polygon fill="white" stroke="white" points="-4,5 -4,-262 374.425,-262 374.425,5 -4,5"/>
<g id="graph2" class="cluster"><title>cluster_local</title>
<polygon fill="none" stroke="black" points="9.42504,-140 9.42504,-192 157.425,-192 157.425,-140 9.42504,-140"/>
</g>
<!-- http://latin.omdoc.org/foundations/zfc?PredSubTypes -->
<g id="node2" class="node"><title>http://latin.omdoc.org/foundations/zfc?PredSubTypes</title>
<a xlink:href="http://latin.omdoc.org/foundations/zfc?PredSubTypes" class="graphtheory">
<ellipse fill="none" stroke="black" cx="83.425" cy="-166" rx="65.4659" ry="18"/>
<text text-anchor="middle" x="83.425" y="-162.3" font-family="Times New Roman,serif" font-size="14.00">PredSubTypes</text>
</a>
</g>
<!-- http://latin.omdoc.org/foundations/zfc?TypedZF -->
<g id="node3" class="node"><title>http://latin.omdoc.org/foundations/zfc?TypedZF</title>
<a xlink:href="http://latin.omdoc.org/foundations/zfc?TypedZF" class="graphtheory">
<ellipse fill="gray" stroke="black" cx="180.425" cy="-18" rx="45.244" ry="18"/>
<text text-anchor="middle" x="180.425" y="-14.3" font-family="Times New Roman,serif" font-size="14.00">TypedZF</text>
</a>
</g>
<!-- http://latin.omdoc.org/foundations/zfc?PredSubTypes&#45;&gt;http://latin.omdoc.org/foundations/zfc?TypedZF -->
<g id="edge3" class="edge"><title>http://latin.omdoc.org/foundations/zfc?PredSubTypes&#45;&gt;http://latin.omdoc.org/foundations/zfc?TypedZF</title>
<a class="graphinclude">
<path fill="none" stroke="black" d="M50.1573,-150.438C33.8078,-141.366 15.6712,-127.967 6.42504,-110 -0.896266,-95.7733 -3.03126,-86.9065 6.42504,-74 33.3821,-37.2074 85.0493,-24.4026 125.108,-20.2417"/>
<polygon fill="black" stroke="black" points="125.629,-23.7093 135.282,-19.3414 125.012,-16.7366 125.629,-23.7093"/>
</a>
</g>
<!-- http://latin.omdoc.org/foundations/zfc?DependentFunctions -->
<g id="node5" class="node"><title>http://latin.omdoc.org/foundations/zfc?DependentFunctions</title>
<a xlink:href="http://latin.omdoc.org/foundations/zfc?DependentFunctions" class="graphtheory">
<ellipse fill="gray" stroke="black" cx="101.425" cy="-92" rx="85.19" ry="18"/>
<text text-anchor="middle" x="101.425" y="-88.3" font-family="Times New Roman,serif" font-size="14.00">DependentFunctions</text>
</a>
</g>
<!-- http://latin.omdoc.org/foundations/zfc?PredSubTypes&#45;&gt;http://latin.omdoc.org/foundations/zfc?DependentFunctions -->
<g id="edge5" class="edge"><title>http://latin.omdoc.org/foundations/zfc?PredSubTypes&#45;&gt;http://latin.omdoc.org/foundations/zfc?DependentFunctions</title>
<a class="graphinclude">
<path fill="none" stroke="black" d="M87.6908,-147.937C89.7453,-139.719 92.26,-129.66 94.5736,-120.406"/>
<polygon fill="black" stroke="black" points="98.0349,-120.991 97.0649,-110.441 91.2439,-119.293 98.0349,-120.991"/>
</a>
</g>
<!-- http://latin.omdoc.org/foundations/zfc?TypedZFBase -->
<g id="node7" class="node"><title>http://latin.omdoc.org/foundations/zfc?TypedZFBase</title>
<a xlink:href="http://latin.omdoc.org/foundations/zfc?TypedZFBase" class="graphtheory">
<ellipse fill="gray" stroke="black" cx="306.425" cy="-166" rx="63.0666" ry="18"/>
<text text-anchor="middle" x="306.425" y="-162.3" font-family="Times New Roman,serif" font-size="14.00">TypedZFBase</text>
</a>
</g>
<!-- http://latin.omdoc.org/foundations/zfc?PredSubTypes&#45;&gt;http://latin.omdoc.org/foundations/zfc?TypedZFBase -->
<g id="edge9" class="edge"><title>http://latin.omdoc.org/foundations/zfc?PredSubTypes&#45;&gt;http://latin.omdoc.org/foundations/zfc?TypedZFBase</title>
<a xlink:href="http://latin.omdoc.org/foundations/zfc?_F" class="graphview">
<path fill="none" stroke="black" d="M148.826,-166C175.264,-166 205.9,-166 233.091,-166"/>
<polygon fill="black" stroke="black" points="233.328,-169.5 243.328,-166 233.328,-162.5 233.328,-169.5"/>
</a>
<a xlink:href="http://latin.omdoc.org/foundations/zfc?_F" class="_F">
<text text-anchor="middle" x="195.903" y="-172.8" font-family="Times New Roman,serif" font-size="14.00">_F</text>
</a>
</g>
<!-- http://latin.omdoc.org/foundations/zfc?DependentFunctions&#45;&gt;http://latin.omdoc.org/foundations/zfc?TypedZF -->
<g id="edge21" class="edge"><title>http://latin.omdoc.org/foundations/zfc?DependentFunctions&#45;&gt;http://latin.omdoc.org/foundations/zfc?TypedZF</title>
<a class="graphinclude">
<path fill="none" stroke="black" d="M119.748,-74.3008C130.34,-64.6474 143.816,-52.3654 155.376,-41.8292"/>
<polygon fill="black" stroke="black" points="157.981,-44.1904 163.015,-34.8675 153.266,-39.0168 157.981,-44.1904"/>
</a>
</g>
<!-- http://latin.omdoc.org/foundations/zfc?TypedZFBase&#45;&gt;http://latin.omdoc.org/foundations/zfc?PredSubTypes -->
<g id="edge7" class="edge"><title>http://latin.omdoc.org/foundations/zfc?TypedZFBase&#45;&gt;http://latin.omdoc.org/foundations/zfc?PredSubTypes</title>
<a class="graphinclude">
<path fill="none" stroke="black" d="M243.296,-166C215.23,-166 187.164,-166 159.097,-166"/>
<polygon fill="black" stroke="black" points="158.757,-162.5 148.757,-166 158.757,-169.5 158.757,-162.5"/>
</a>
</g>
<!-- http://latin.omdoc.org/foundations/zfc?TypedZFBase&#45;&gt;http://latin.omdoc.org/foundations/zfc?TypedZF -->
<g id="edge19" class="edge"><title>http://latin.omdoc.org/foundations/zfc?TypedZFBase&#45;&gt;http://latin.omdoc.org/foundations/zfc?TypedZF</title>
<a class="graphinclude">
<path fill="none" stroke="black" d="M297.058,-147.865C283.936,-124.833 258.412,-83.3884 229.425,-54 224.394,-48.8992 218.545,-44.0212 212.677,-39.6122"/>
<polygon fill="black" stroke="black" points="214.327,-36.4895 204.158,-33.5168 210.254,-42.1823 214.327,-36.4895"/>
</a>
</g>
<!-- http://cds.omdoc.org/urtheories?LF -->
<g id="node10" class="node"><title>http://cds.omdoc.org/urtheories?LF</title>
<a xlink:href="http://cds.omdoc.org/urtheories?LF" class="graphtheory">
<ellipse fill="gray" stroke="black" cx="196.425" cy="-240" rx="27" ry="18"/>
<text text-anchor="middle" x="196.425" y="-236.3" font-family="Times New Roman,serif" font-size="14.00">LF</text>
</a>
</g>
<!-- http://cds.omdoc.org/urtheories?LF&#45;&gt;http://latin.omdoc.org/foundations/zfc?PredSubTypes -->
<g id="edge11" class="edge"><title>http://cds.omdoc.org/urtheories?LF&#45;&gt;http://latin.omdoc.org/foundations/zfc?PredSubTypes</title>
<a class="graphmeta">
<path fill="none" stroke="black" d="M177.511,-226.949C160.983,-216.417 136.601,-200.882 116.799,-188.265"/>
<polygon fill="black" stroke="black" points="118.663,-185.303 108.349,-182.881 114.902,-191.206 118.663,-185.303"/>
</a>
</g>
<!-- http://cds.omdoc.org/urtheories?LF&#45;&gt;http://latin.omdoc.org/foundations/zfc?TypedZF -->
<g id="edge15" class="edge"><title>http://cds.omdoc.org/urtheories?LF&#45;&gt;http://latin.omdoc.org/foundations/zfc?TypedZF</title>
<a class="graphmeta">
<path fill="none" stroke="black" d="M199.844,-222.117C200.818,-215.826 201.58,-208.61 201.425,-202 200.091,-145.064 204.304,-130.255 195.425,-74 193.961,-64.7247 191.522,-54.7702 189.032,-45.9139"/>
<polygon fill="black" stroke="black" points="192.33,-44.7264 186.14,-36.1283 185.617,-46.7102 192.33,-44.7264"/>
</a>
</g>
<!-- http://cds.omdoc.org/urtheories?LF&#45;&gt;http://latin.omdoc.org/foundations/zfc?DependentFunctions -->
<g id="edge17" class="edge"><title>http://cds.omdoc.org/urtheories?LF&#45;&gt;http://latin.omdoc.org/foundations/zfc?DependentFunctions</title>
<a class="graphmeta">
<path fill="none" stroke="black" d="M193.428,-221.878C189.121,-200.983 179.615,-165.316 161.425,-140 154.745,-130.703 145.727,-122.322 136.715,-115.3"/>
<polygon fill="black" stroke="black" points="138.632,-112.365 128.507,-109.245 134.477,-117.998 138.632,-112.365"/>
</a>
</g>
<!-- http://cds.omdoc.org/urtheories?LF&#45;&gt;http://latin.omdoc.org/foundations/zfc?TypedZFBase -->
<g id="edge13" class="edge"><title>http://cds.omdoc.org/urtheories?LF&#45;&gt;http://latin.omdoc.org/foundations/zfc?TypedZFBase</title>
<a class="graphmeta">
<path fill="none" stroke="black" d="M215.085,-226.786C231.138,-216.279 254.666,-200.878 273.823,-188.34"/>
<polygon fill="black" stroke="black" points="275.824,-191.213 282.274,-182.808 271.991,-185.356 275.824,-191.213"/>
</a>
</g>
</g>
</svg>
