<?xml version="1.0" encoding="UTF-8" standalone="no"?>
<!DOCTYPE svg PUBLIC "-//W3C//DTD SVG 1.1//EN"
 "http://www.w3.org/Graphics/SVG/1.1/DTD/svg11.dtd">
<!-- Generated by graphviz version 2.28.0 (20110507.0327)
 -->
<!-- Title: MMT Pages: 1 -->
<svg
 viewBox="0.00 0.00 1192.00 544.00" xmlns="http://www.w3.org/2000/svg" xmlns:xlink="http://www.w3.org/1999/xlink">
<g id="graph1" class="graph" transform="scale(1 1) rotate(0) translate(4 540)">
<title>MMT</title>
<polygon fill="white" stroke="white" points="-4,5 -4,-540 1189,-540 1189,5 -4,5"/>
<g id="graph2" class="cluster"><title>cluster_local</title>
<polygon fill="none" stroke="black" points="498,-242 498,-382 725,-382 725,-242 498,-242"/>
</g>
<!-- http://latin.omdoc.org/foundations/zfc?Curry -->
<g id="node2" class="node"><title>http://latin.omdoc.org/foundations/zfc?Curry</title>
<a xlink:href="http://latin.omdoc.org/foundations/zfc?Curry" class="graphtheory">
<ellipse fill="none" stroke="black" cx="632" cy="-356" rx="31.2735" ry="18"/>
<text text-anchor="middle" x="632" y="-352.3" font-family="Times New Roman,serif" font-size="14.00">Curry</text>
</a>
</g>
<!-- http://latin.omdoc.org/foundations/zfc?TypedZFBase -->
<g id="node3" class="node"><title>http://latin.omdoc.org/foundations/zfc?TypedZFBase</title>
<a xlink:href="http://latin.omdoc.org/foundations/zfc?TypedZFBase" class="graphtheory">
<ellipse fill="none" stroke="black" cx="641" cy="-268" rx="63.0666" ry="18"/>
<text text-anchor="middle" x="641" y="-264.3" font-family="Times New Roman,serif" font-size="14.00">TypedZFBase</text>
</a>
</g>
<!-- http://latin.omdoc.org/foundations/zfc?Curry&#45;&gt;http://latin.omdoc.org/foundations/zfc?TypedZFBase -->
<g id="edge3" class="edge"><title>http://latin.omdoc.org/foundations/zfc?Curry&#45;&gt;http://latin.omdoc.org/foundations/zfc?TypedZFBase</title>
<a xlink:href="http://latin.omdoc.org/foundations/zfc?TypesAsClasses" class="graphview">
<path fill="none" stroke="black" d="M609.04,-343.355C604.766,-341.418 600.293,-339.542 596,-338 563.071,-326.176 504.137,-332.086 525,-304 527.071,-301.212 557.879,-291.986 587.221,-283.706"/>
<polygon fill="black" stroke="black" points="588.388,-287.013 597.073,-280.945 586.499,-280.273 588.388,-287.013"/>
</a>
<a xlink:href="http://latin.omdoc.org/foundations/zfc?TypesAsClasses" class="TypesAsClasses">
<text text-anchor="middle" x="572" y="-308.3" font-family="Times New Roman,serif" font-size="14.00">TypesAsClasses</text>
</a>
</g>
<!-- http://latin.omdoc.org/foundations/zfc?Curry&#45;&gt;http://latin.omdoc.org/foundations/zfc?TypedZFBase -->
<g id="edge11" class="edge"><title>http://latin.omdoc.org/foundations/zfc?Curry&#45;&gt;http://latin.omdoc.org/foundations/zfc?TypedZFBase</title>
<a xlink:href="http://latin.omdoc.org/foundations/zfc?TypesAsSets" class="graphview">
<path fill="none" stroke="black" d="M633.778,-338.009C635.015,-326.19 636.691,-310.171 638.118,-296.542"/>
<polygon fill="black" stroke="black" points="641.635,-296.56 639.195,-286.25 634.673,-295.831 641.635,-296.56"/>
</a>
<a xlink:href="http://latin.omdoc.org/foundations/zfc?TypesAsSets" class="TypesAsSets">
<text text-anchor="middle" x="676" y="-308.3" font-family="Times New Roman,serif" font-size="14.00">TypesAsSets</text>
</a>
</g>
<!-- http://latin.omdoc.org/foundations/isabelle?NesetZFC -->
<g id="node9" class="node"><title>http://latin.omdoc.org/foundations/isabelle?NesetZFC</title>
<a xlink:href="http://latin.omdoc.org/foundations/isabelle?NesetZFC" class="graphtheory">
<ellipse fill="gray" stroke="black" cx="1045" cy="-180" rx="48.1437" ry="18"/>
<text text-anchor="middle" x="1045" y="-176.3" font-family="Times New Roman,serif" font-size="14.00">NesetZFC</text>
</a>
</g>
<!-- http://latin.omdoc.org/foundations/zfc?TypedZFBase&#45;&gt;http://latin.omdoc.org/foundations/isabelle?NesetZFC -->
<g id="edge9" class="edge"><title>http://latin.omdoc.org/foundations/zfc?TypedZFBase&#45;&gt;http://latin.omdoc.org/foundations/isabelle?NesetZFC</title>
<a class="graphinclude">
<path fill="none" stroke="black" d="M673.826,-252.579C684.525,-248.47 696.589,-244.449 708,-242 774.194,-227.793 793.244,-243.277 860,-232 908.945,-223.732 963.582,-207.813 1000.71,-195.949"/>
<polygon fill="black" stroke="black" points="1002.26,-199.127 1010.69,-192.72 1000.1,-192.466 1002.26,-199.127"/>
</a>
</g>
<!-- http://latin.omdoc.org/foundations/zfc?UniversalQuantifier -->
<g id="node18" class="node"><title>http://latin.omdoc.org/foundations/zfc?UniversalQuantifier</title>
<a xlink:href="http://latin.omdoc.org/foundations/zfc?UniversalQuantifier" class="graphtheory">
<ellipse fill="gray" stroke="black" cx="1038" cy="-268" rx="79.4147" ry="18"/>
<text text-anchor="middle" x="1038" y="-264.3" font-family="Times New Roman,serif" font-size="14.00">UniversalQuantifier</text>
</a>
</g>
<!-- http://latin.omdoc.org/foundations/zfc?TypedZFBase&#45;&gt;http://latin.omdoc.org/foundations/zfc?UniversalQuantifier -->
<g id="edge21" class="edge"><title>http://latin.omdoc.org/foundations/zfc?TypedZFBase&#45;&gt;http://latin.omdoc.org/foundations/zfc?UniversalQuantifier</title>
<a class="graphinclude">
<path fill="none" stroke="black" d="M704.194,-268C785.473,-268 866.752,-268 948.031,-268"/>
<polygon fill="black" stroke="black" points="948.46,-271.5 958.46,-268 948.46,-264.5 948.46,-271.5"/>
</a>
</g>
<!-- http://latin.omdoc.org/foundations/zfc?TypedZF -->
<g id="node21" class="node"><title>http://latin.omdoc.org/foundations/zfc?TypedZF</title>
<a xlink:href="http://latin.omdoc.org/foundations/zfc?TypedZF" class="graphtheory">
<ellipse fill="gray" stroke="black" cx="597" cy="-18" rx="45.244" ry="18"/>
<text text-anchor="middle" x="597" y="-14.3" font-family="Times New Roman,serif" font-size="14.00">TypedZF</text>
</a>
</g>
<!-- http://latin.omdoc.org/foundations/zfc?TypedZFBase&#45;&gt;http://latin.omdoc.org/foundations/zfc?TypedZF -->
<g id="edge23" class="edge"><title>http://latin.omdoc.org/foundations/zfc?TypedZFBase&#45;&gt;http://latin.omdoc.org/foundations/zfc?TypedZF</title>
<a class="graphinclude">
<path fill="none" stroke="black" d="M606.506,-252.69C584.24,-241.416 557.075,-223.346 544,-198 517.358,-146.354 554.037,-79.2422 578.406,-43.6654"/>
<polygon fill="black" stroke="black" points="581.383,-45.5168 584.29,-35.3285 575.664,-41.4803 581.383,-45.5168"/>
</a>
</g>
<!-- http://latin.omdoc.org/foundations/zfc?BigInter -->
<g id="node23" class="node"><title>http://latin.omdoc.org/foundations/zfc?BigInter</title>
<a xlink:href="http://latin.omdoc.org/foundations/zfc?BigInter" class="graphtheory">
<ellipse fill="gray" stroke="black" cx="224" cy="-180" rx="39.4691" ry="18"/>
<text text-anchor="middle" x="224" y="-176.3" font-family="Times New Roman,serif" font-size="14.00">BigInter</text>
</a>
</g>
<!-- http://latin.omdoc.org/foundations/zfc?TypedZFBase&#45;&gt;http://latin.omdoc.org/foundations/zfc?BigInter -->
<g id="edge25" class="edge"><title>http://latin.omdoc.org/foundations/zfc?TypedZFBase&#45;&gt;http://latin.omdoc.org/foundations/zfc?BigInter</title>
<a class="graphinclude">
<path fill="none" stroke="black" d="M608.186,-252.522C597.488,-248.41 585.421,-244.402 574,-242 498.197,-226.059 476.348,-245.084 400,-232 352.198,-223.808 298.914,-207.286 263.629,-195.261"/>
<polygon fill="black" stroke="black" points="264.323,-191.798 253.728,-191.844 262.039,-198.415 264.323,-191.798"/>
</a>
</g>
<!-- http://latin.omdoc.org/foundations/zfc?DisjUnion -->
<g id="node25" class="node"><title>http://latin.omdoc.org/foundations/zfc?DisjUnion</title>
<a xlink:href="http://latin.omdoc.org/foundations/zfc?DisjUnion" class="graphtheory">
<ellipse fill="gray" stroke="black" cx="894" cy="-180" rx="46.1964" ry="18"/>
<text text-anchor="middle" x="894" y="-176.3" font-family="Times New Roman,serif" font-size="14.00">DisjUnion</text>
</a>
</g>
<!-- http://latin.omdoc.org/foundations/zfc?TypedZFBase&#45;&gt;http://latin.omdoc.org/foundations/zfc?DisjUnion -->
<g id="edge27" class="edge"><title>http://latin.omdoc.org/foundations/zfc?TypedZFBase&#45;&gt;http://latin.omdoc.org/foundations/zfc?DisjUnion</title>
<a class="graphinclude">
<path fill="none" stroke="black" d="M674.189,-252.545C684.804,-248.486 696.728,-244.503 708,-242 762.408,-229.92 781.412,-253.091 833,-232 847.806,-225.947 861.706,-214.925 872.487,-204.672"/>
<polygon fill="black" stroke="black" points="875.145,-206.964 879.754,-197.424 870.202,-202.008 875.145,-206.964"/>
</a>
</g>
<!-- http://latin.omdoc.org/foundations/zfc?PredSubTypes -->
<g id="node27" class="node"><title>http://latin.omdoc.org/foundations/zfc?PredSubTypes</title>
<a xlink:href="http://latin.omdoc.org/foundations/zfc?PredSubTypes" class="graphtheory">
<ellipse fill="gray" stroke="black" cx="725" cy="-180" rx="65.4659" ry="18"/>
<text text-anchor="middle" x="725" y="-176.3" font-family="Times New Roman,serif" font-size="14.00">PredSubTypes</text>
</a>
</g>
<!-- http://latin.omdoc.org/foundations/zfc?TypedZFBase&#45;&gt;http://latin.omdoc.org/foundations/zfc?PredSubTypes -->
<g id="edge31" class="edge"><title>http://latin.omdoc.org/foundations/zfc?TypedZFBase&#45;&gt;http://latin.omdoc.org/foundations/zfc?PredSubTypes</title>
<a class="graphinclude">
<path fill="none" stroke="black" d="M680.974,-254.032C692.04,-248.74 703.153,-241.555 711,-232 716.551,-225.24 719.909,-216.449 721.938,-208.074"/>
<polygon fill="black" stroke="black" points="725.38,-208.708 723.812,-198.23 718.504,-207.399 725.38,-208.708"/>
</a>
</g>
<!-- http://latin.omdoc.org/foundations/zfc?ImageTypes -->
<g id="node30" class="node"><title>http://latin.omdoc.org/foundations/zfc?ImageTypes</title>
<a xlink:href="http://latin.omdoc.org/foundations/zfc?ImageTypes" class="graphtheory">
<ellipse fill="gray" stroke="black" cx="403" cy="-92" rx="55.3436" ry="18"/>
<text text-anchor="middle" x="403" y="-88.3" font-family="Times New Roman,serif" font-size="14.00">ImageTypes</text>
</a>
</g>
<!-- http://latin.omdoc.org/foundations/zfc?TypedZFBase&#45;&gt;http://latin.omdoc.org/foundations/zfc?ImageTypes -->
<g id="edge35" class="edge"><title>http://latin.omdoc.org/foundations/zfc?TypedZFBase&#45;&gt;http://latin.omdoc.org/foundations/zfc?ImageTypes</title>
<a class="graphinclude">
<path fill="none" stroke="black" d="M606.996,-252.814C596.55,-248.865 584.926,-244.875 574,-242 546.583,-234.786 534.326,-248.114 511,-232 481.518,-211.634 492.537,-190.638 471,-162 458.343,-145.17 452.779,-143.001 438,-128 434.325,-124.27 430.416,-120.332 426.594,-116.497"/>
<polygon fill="black" stroke="black" points="428.977,-113.93 419.432,-109.331 424.025,-118.879 428.977,-113.93"/>
</a>
</g>
<!-- http://latin.omdoc.org/foundations/zfc?ExistentialQuantifier -->
<g id="node33" class="node"><title>http://latin.omdoc.org/foundations/zfc?ExistentialQuantifier</title>
<a xlink:href="http://latin.omdoc.org/foundations/zfc?ExistentialQuantifier" class="graphtheory">
<ellipse fill="gray" stroke="black" cx="83" cy="-180" rx="83.2892" ry="18"/>
<text text-anchor="middle" x="83" y="-176.3" font-family="Times New Roman,serif" font-size="14.00">ExistentialQuantifier</text>
</a>
</g>
<!-- http://latin.omdoc.org/foundations/zfc?TypedZFBase&#45;&gt;http://latin.omdoc.org/foundations/zfc?ExistentialQuantifier -->
<g id="edge39" class="edge"><title>http://latin.omdoc.org/foundations/zfc?TypedZFBase&#45;&gt;http://latin.omdoc.org/foundations/zfc?ExistentialQuantifier</title>
<a class="graphinclude">
<path fill="none" stroke="black" d="M608.551,-252.538C597.77,-248.374 585.562,-244.33 574,-242 466.733,-220.381 436.598,-245.418 328,-232 264.667,-224.175 193.357,-208.54 144.072,-196.634"/>
<polygon fill="black" stroke="black" points="144.754,-193.197 134.209,-194.23 143.096,-199.998 144.754,-193.197"/>
</a>
</g>
<!-- http://latin.omdoc.org/foundations/zfc?Products -->
<g id="node36" class="node"><title>http://latin.omdoc.org/foundations/zfc?Products</title>
<a xlink:href="http://latin.omdoc.org/foundations/zfc?Products" class="graphtheory">
<ellipse fill="gray" stroke="black" cx="597" cy="-180" rx="44.2946" ry="18"/>
<text text-anchor="middle" x="597" y="-176.3" font-family="Times New Roman,serif" font-size="14.00">Products</text>
</a>
</g>
<!-- http://latin.omdoc.org/foundations/zfc?TypedZFBase&#45;&gt;http://latin.omdoc.org/foundations/zfc?Products -->
<g id="edge43" class="edge"><title>http://latin.omdoc.org/foundations/zfc?TypedZFBase&#45;&gt;http://latin.omdoc.org/foundations/zfc?Products</title>
<a class="graphinclude">
<path fill="none" stroke="black" d="M636.379,-249.928C633.287,-239.758 628.735,-226.775 623,-216 621.133,-212.492 618.938,-208.951 616.629,-205.538"/>
<polygon fill="black" stroke="black" points="619.457,-203.477 610.772,-197.408 613.778,-207.568 619.457,-203.477"/>
</a>
</g>
<!-- http://latin.omdoc.org/foundations/zfc?ConditionalTerms -->
<g id="node39" class="node"><title>http://latin.omdoc.org/foundations/zfc?ConditionalTerms</title>
<a xlink:href="http://latin.omdoc.org/foundations/zfc?ConditionalTerms" class="graphtheory">
<ellipse fill="gray" stroke="black" cx="805" cy="-92" rx="76.0649" ry="18"/>
<text text-anchor="middle" x="805" y="-88.3" font-family="Times New Roman,serif" font-size="14.00">ConditionalTerms</text>
</a>
</g>
<!-- http://latin.omdoc.org/foundations/zfc?TypedZFBase&#45;&gt;http://latin.omdoc.org/foundations/zfc?ConditionalTerms -->
<g id="edge45" class="edge"><title>http://latin.omdoc.org/foundations/zfc?TypedZFBase&#45;&gt;http://latin.omdoc.org/foundations/zfc?ConditionalTerms</title>
<a class="graphinclude">
<path fill="none" stroke="black" d="M677.802,-253.347C722.209,-236.509 791.851,-208.793 799,-198 814.146,-175.134 813.583,-142.952 810.532,-120.258"/>
<polygon fill="black" stroke="black" points="813.97,-119.593 808.948,-110.265 807.057,-120.69 813.97,-119.593"/>
</a>
</g>
<!-- http://latin.omdoc.org/foundations/zfc?BigUnion -->
<g id="node41" class="node"><title>http://latin.omdoc.org/foundations/zfc?BigUnion</title>
<a xlink:href="http://latin.omdoc.org/foundations/zfc?BigUnion" class="graphtheory">
<ellipse fill="gray" stroke="black" cx="365" cy="-180" rx="44.271" ry="18"/>
<text text-anchor="middle" x="365" y="-176.3" font-family="Times New Roman,serif" font-size="14.00">BigUnion</text>
</a>
</g>
<!-- http://latin.omdoc.org/foundations/zfc?TypedZFBase&#45;&gt;http://latin.omdoc.org/foundations/zfc?BigUnion -->
<g id="edge47" class="edge"><title>http://latin.omdoc.org/foundations/zfc?TypedZFBase&#45;&gt;http://latin.omdoc.org/foundations/zfc?BigUnion</title>
<a class="graphinclude">
<path fill="none" stroke="black" d="M608.168,-252.61C597.468,-248.503 585.405,-244.475 574,-242 512.172,-228.581 491.201,-254.315 432,-232 415.773,-225.884 400.199,-214.485 388.156,-204.013"/>
<polygon fill="black" stroke="black" points="390.174,-201.118 380.418,-196.987 385.469,-206.3 390.174,-201.118"/>
</a>
</g>
<!-- http://latin.omdoc.org/foundations/zfc?Church -->
<g id="node5" class="node"><title>http://latin.omdoc.org/foundations/zfc?Church</title>
<a xlink:href="http://latin.omdoc.org/foundations/zfc?Church" class="graphtheory">
<ellipse fill="gray" stroke="black" cx="666" cy="-444" rx="37.5442" ry="18"/>
<text text-anchor="middle" x="666" y="-440.3" font-family="Times New Roman,serif" font-size="14.00">Church</text>
</a>
</g>
<!-- http://latin.omdoc.org/foundations/zfc?Church&#45;&gt;http://latin.omdoc.org/foundations/zfc?Curry -->
<g id="edge5" class="edge"><title>http://latin.omdoc.org/foundations/zfc?Church&#45;&gt;http://latin.omdoc.org/foundations/zfc?Curry</title>
<a xlink:href="http://latin.omdoc.org/foundations/zfc?ChurchInCurry" class="graphview">
<path fill="none" stroke="black" d="M647.342,-428.119C641.656,-422.481 636.095,-415.577 633,-408 630.007,-400.673 628.982,-392.246 628.915,-384.38"/>
<polygon fill="black" stroke="black" points="632.422,-384.289 629.324,-374.157 625.427,-384.009 632.422,-384.289"/>
</a>
<a xlink:href="http://latin.omdoc.org/foundations/zfc?ChurchInCurry" class="ChurchInCurry">
<text text-anchor="middle" x="675.5" y="-396.3" font-family="Times New Roman,serif" font-size="14.00">ChurchInCurry</text>
</a>
</g>
<!-- http://cds.omdoc.org/urtheories?LF -->
<g id="node7" class="node"><title>http://cds.omdoc.org/urtheories?LF</title>
<a xlink:href="http://cds.omdoc.org/urtheories?LF" class="graphtheory">
<ellipse fill="gray" stroke="black" cx="732" cy="-518" rx="27" ry="18"/>
<text text-anchor="middle" x="732" y="-514.3" font-family="Times New Roman,serif" font-size="14.00">LF</text>
</a>
</g>
<!-- http://cds.omdoc.org/urtheories?LF&#45;&gt;http://latin.omdoc.org/foundations/zfc?Curry -->
<g id="edge7" class="edge"><title>http://cds.omdoc.org/urtheories?LF&#45;&gt;http://latin.omdoc.org/foundations/zfc?Curry</title>
<a class="graphmeta">
<path fill="none" stroke="black" d="M706.059,-512.55C679.013,-506.377 637.974,-492.337 619,-462 604.152,-438.26 611.597,-405.561 620.05,-382.991"/>
<polygon fill="black" stroke="black" points="623.303,-384.282 623.8,-373.698 616.812,-381.662 623.303,-384.282"/>
</a>
</g>
<!-- http://cds.omdoc.org/urtheories?LF&#45;&gt;http://latin.omdoc.org/foundations/zfc?TypedZFBase -->
<g id="edge51" class="edge"><title>http://cds.omdoc.org/urtheories?LF&#45;&gt;http://latin.omdoc.org/foundations/zfc?TypedZFBase</title>
<a class="graphmeta">
<path fill="none" stroke="black" d="M736.205,-500.214C744.832,-461.636 760.36,-365.271 718,-304 712.484,-296.021 704.688,-289.83 696.156,-285.035"/>
<polygon fill="black" stroke="black" points="697.577,-281.833 687.063,-280.526 694.468,-288.104 697.577,-281.833"/>
</a>
</g>
<!-- http://cds.omdoc.org/urtheories?LF&#45;&gt;http://latin.omdoc.org/foundations/zfc?Church -->
<g id="edge109" class="edge"><title>http://cds.omdoc.org/urtheories?LF&#45;&gt;http://latin.omdoc.org/foundations/zfc?Church</title>
<a class="graphmeta">
<path fill="none" stroke="black" d="M718.325,-502.082C709.392,-492.337 697.543,-479.41 687.379,-468.323"/>
<polygon fill="black" stroke="black" points="689.68,-465.653 680.343,-460.647 684.52,-470.383 689.68,-465.653"/>
</a>
</g>
<!-- http://cds.omdoc.org/urtheories?LF&#45;&gt;http://latin.omdoc.org/foundations/isabelle?NesetZFC -->
<g id="edge113" class="edge"><title>http://cds.omdoc.org/urtheories?LF&#45;&gt;http://latin.omdoc.org/foundations/isabelle?NesetZFC</title>
<a class="graphmeta">
<path fill="none" stroke="black" d="M758.845,-515.184C850.585,-508.625 1146,-484.441 1146,-445 1146,-445 1146,-445 1146,-267 1146,-234.308 1114.95,-211.429 1087.28,-197.532"/>
<polygon fill="black" stroke="black" points="1088.61,-194.289 1078.07,-193.162 1085.6,-200.613 1088.61,-194.289"/>
</a>
</g>
<!-- http://latin.omdoc.org/type_theories?VOID -->
<g id="node12" class="node"><title>http://latin.omdoc.org/type_theories?VOID</title>
<a xlink:href="http://latin.omdoc.org/type_theories?VOID" class="graphtheory">
<ellipse fill="gray" stroke="black" cx="441" cy="-356" rx="33.2209" ry="18"/>
<text text-anchor="middle" x="441" y="-352.3" font-family="Times New Roman,serif" font-size="14.00">VOID</text>
</a>
</g>
<!-- http://cds.omdoc.org/urtheories?LF&#45;&gt;http://latin.omdoc.org/type_theories?VOID -->
<g id="edge95" class="edge"><title>http://cds.omdoc.org/urtheories?LF&#45;&gt;http://latin.omdoc.org/type_theories?VOID</title>
<a class="graphmeta">
<path fill="none" stroke="black" d="M704.977,-515.783C640.938,-512.295 482.781,-499.943 449,-462 430.34,-441.042 431.18,-407.469 434.845,-383.942"/>
<polygon fill="black" stroke="black" points="438.322,-384.386 436.668,-373.921 431.435,-383.134 438.322,-384.386"/>
</a>
</g>
<!-- http://latin.omdoc.org/type_theories?TypesTerms -->
<g id="node14" class="node"><title>http://latin.omdoc.org/type_theories?TypesTerms</title>
<a xlink:href="http://latin.omdoc.org/type_theories?TypesTerms" class="graphtheory">
<ellipse fill="gray" stroke="black" cx="515" cy="-444" rx="57.2927" ry="18"/>
<text text-anchor="middle" x="515" y="-440.3" font-family="Times New Roman,serif" font-size="14.00">TypesTerms</text>
</a>
</g>
<!-- http://cds.omdoc.org/urtheories?LF&#45;&gt;http://latin.omdoc.org/type_theories?TypesTerms -->
<g id="edge85" class="edge"><title>http://cds.omdoc.org/urtheories?LF&#45;&gt;http://latin.omdoc.org/type_theories?TypesTerms</title>
<a class="graphmeta">
<path fill="none" stroke="black" d="M706.114,-512.779C676.48,-507.495 626.772,-497.246 586,-482 573.794,-477.436 561.007,-471.252 549.7,-465.248"/>
<polygon fill="black" stroke="black" points="551.052,-461.998 540.596,-460.286 547.701,-468.145 551.052,-461.998"/>
</a>
</g>
<!-- http://latin.omdoc.org/type_theories?UNIT -->
<g id="node16" class="node"><title>http://latin.omdoc.org/type_theories?UNIT</title>
<a xlink:href="http://latin.omdoc.org/type_theories?UNIT" class="graphtheory">
<ellipse fill="gray" stroke="black" cx="357" cy="-356" rx="32.2457" ry="18"/>
<text text-anchor="middle" x="357" y="-352.3" font-family="Times New Roman,serif" font-size="14.00">UNIT</text>
</a>
</g>
<!-- http://cds.omdoc.org/urtheories?LF&#45;&gt;http://latin.omdoc.org/type_theories?UNIT -->
<g id="edge87" class="edge"><title>http://cds.omdoc.org/urtheories?LF&#45;&gt;http://latin.omdoc.org/type_theories?UNIT</title>
<a class="graphmeta">
<path fill="none" stroke="black" d="M704.867,-515.401C638.794,-510.995 471.898,-496.633 430,-462 403.379,-439.995 382.155,-405.96 369.599,-382.642"/>
<polygon fill="black" stroke="black" points="372.646,-380.915 364.912,-373.673 366.442,-384.157 372.646,-380.915"/>
</a>
</g>
<!-- http://cds.omdoc.org/urtheories?LF&#45;&gt;http://latin.omdoc.org/foundations/zfc?UniversalQuantifier -->
<g id="edge97" class="edge"><title>http://cds.omdoc.org/urtheories?LF&#45;&gt;http://latin.omdoc.org/foundations/zfc?UniversalQuantifier</title>
<a class="graphmeta">
<path fill="none" stroke="black" d="M759.029,-515.691C809.501,-512.748 915.549,-504.054 944,-482 1004.04,-435.462 1026.59,-342.461 1034.33,-296.296"/>
<polygon fill="black" stroke="black" points="1037.83,-296.566 1035.92,-286.145 1030.92,-295.483 1037.83,-296.566"/>
</a>
</g>
<!-- http://cds.omdoc.org/urtheories?LF&#45;&gt;http://latin.omdoc.org/foundations/zfc?TypedZF -->
<g id="edge99" class="edge"><title>http://cds.omdoc.org/urtheories?LF&#45;&gt;http://latin.omdoc.org/foundations/zfc?TypedZF</title>
<a class="graphmeta">
<path fill="none" stroke="black" d="M758.921,-515.574C856.228,-510.068 1184,-488.307 1184,-445 1184,-445 1184,-445 1184,-91 1184,-37.7331 798.276,-23.5131 652.182,-20.0375"/>
<polygon fill="black" stroke="black" points="652.164,-16.5363 642.086,-19.8054 652.003,-23.5344 652.164,-16.5363"/>
</a>
</g>
<!-- http://cds.omdoc.org/urtheories?LF&#45;&gt;http://latin.omdoc.org/foundations/zfc?BigInter -->
<g id="edge91" class="edge"><title>http://cds.omdoc.org/urtheories?LF&#45;&gt;http://latin.omdoc.org/foundations/zfc?BigInter</title>
<a class="graphmeta">
<path fill="none" stroke="black" d="M704.768,-516.69C600.114,-515.308 227.367,-508.548 182,-482 165.083,-472.1 158,-464.601 158,-445 158,-445 158,-445 158,-267 158,-240.886 177.388,-217.817 195.147,-202.162"/>
<polygon fill="black" stroke="black" points="197.685,-204.603 203.117,-195.507 193.198,-199.23 197.685,-204.603"/>
</a>
</g>
<!-- http://cds.omdoc.org/urtheories?LF&#45;&gt;http://latin.omdoc.org/foundations/zfc?DisjUnion -->
<g id="edge107" class="edge"><title>http://cds.omdoc.org/urtheories?LF&#45;&gt;http://latin.omdoc.org/foundations/zfc?DisjUnion</title>
<a class="graphmeta">
<path fill="none" stroke="black" d="M759.178,-516.18C803.388,-513.239 886,-500.339 886,-445 886,-445 886,-445 886,-267 886,-247.319 888.103,-225.213 890.152,-208.342"/>
<polygon fill="black" stroke="black" points="893.667,-208.454 891.469,-198.089 886.724,-207.562 893.667,-208.454"/>
</a>
</g>
<!-- http://cds.omdoc.org/urtheories?LF&#45;&gt;http://latin.omdoc.org/foundations/zfc?PredSubTypes -->
<g id="edge83" class="edge"><title>http://cds.omdoc.org/urtheories?LF&#45;&gt;http://latin.omdoc.org/foundations/zfc?PredSubTypes</title>
<a class="graphmeta">
<path fill="none" stroke="black" d="M754.699,-507.903C765.659,-502.217 777.761,-493.719 784,-482 814.074,-425.506 788.668,-401.83 784,-338 780.834,-294.705 782.874,-281.996 766,-242 760.691,-229.417 752.655,-216.693 745.099,-206.145"/>
<polygon fill="black" stroke="black" points="747.709,-203.788 738.937,-197.848 742.09,-207.962 747.709,-203.788"/>
</a>
</g>
<!-- http://cds.omdoc.org/urtheories?LF&#45;&gt;http://latin.omdoc.org/foundations/zfc?ImageTypes -->
<g id="edge103" class="edge"><title>http://cds.omdoc.org/urtheories?LF&#45;&gt;http://latin.omdoc.org/foundations/zfc?ImageTypes</title>
<a class="graphmeta">
<path fill="none" stroke="black" d="M705.052,-516.251C596.361,-512.879 196,-496.934 196,-445 196,-445 196,-445 196,-267 196,-221.378 238.349,-228.806 272,-198 289.399,-182.072 292.874,-177.096 311,-162 330.908,-145.42 354.272,-127.919 372.473,-114.692"/>
<polygon fill="black" stroke="black" points="374.899,-117.257 380.956,-108.564 370.8,-111.583 374.899,-117.257"/>
</a>
</g>
<!-- http://cds.omdoc.org/urtheories?LF&#45;&gt;http://latin.omdoc.org/foundations/zfc?ExistentialQuantifier -->
<g id="edge111" class="edge"><title>http://cds.omdoc.org/urtheories?LF&#45;&gt;http://latin.omdoc.org/foundations/zfc?ExistentialQuantifier</title>
<a class="graphmeta">
<path fill="none" stroke="black" d="M704.94,-516.888C582.111,-516.029 83,-508.626 83,-445 83,-445 83,-445 83,-267 83,-247.404 83,-225.296 83,-208.402"/>
<polygon fill="black" stroke="black" points="86.5001,-208.133 83,-198.133 79.5001,-208.133 86.5001,-208.133"/>
</a>
</g>
<!-- http://cds.omdoc.org/urtheories?LF&#45;&gt;http://latin.omdoc.org/foundations/zfc?Products -->
<g id="edge105" class="edge"><title>http://cds.omdoc.org/urtheories?LF&#45;&gt;http://latin.omdoc.org/foundations/zfc?Products</title>
<a class="graphmeta">
<path fill="none" stroke="black" d="M743.727,-501.759C747.65,-495.888 751.625,-488.925 754,-482 756.898,-473.55 755.555,-470.922 756,-462 760.907,-363.611 793.042,-316.854 729,-242 721.754,-233.53 716.16,-236.585 706,-232 681.889,-221.12 654.966,-208.528 633.91,-198.578"/>
<polygon fill="black" stroke="black" points="635.215,-195.323 624.679,-194.207 632.22,-201.65 635.215,-195.323"/>
</a>
</g>
<!-- http://cds.omdoc.org/urtheories?LF&#45;&gt;http://latin.omdoc.org/foundations/zfc?ConditionalTerms -->
<g id="edge93" class="edge"><title>http://cds.omdoc.org/urtheories?LF&#45;&gt;http://latin.omdoc.org/foundations/zfc?ConditionalTerms</title>
<a class="graphmeta">
<path fill="none" stroke="black" d="M758.293,-513.097C812.153,-504.362 930,-481.12 930,-445 930,-445 930,-445 930,-311 930,-244.242 982.403,-219.801 949,-162 932.8,-133.966 901.408,-117.15 872.058,-107.151"/>
<polygon fill="black" stroke="black" points="872.799,-103.714 862.208,-104.015 870.675,-110.384 872.799,-103.714"/>
</a>
</g>
<!-- http://cds.omdoc.org/urtheories?LF&#45;&gt;http://latin.omdoc.org/foundations/zfc?BigUnion -->
<g id="edge89" class="edge"><title>http://cds.omdoc.org/urtheories?LF&#45;&gt;http://latin.omdoc.org/foundations/zfc?BigUnion</title>
<a class="graphmeta">
<path fill="none" stroke="black" d="M705.081,-516.017C608.327,-512.207 282.356,-496.851 253,-462 185.419,-381.77 291.485,-255.666 341.363,-204.12"/>
<polygon fill="black" stroke="black" points="344.056,-206.373 348.569,-196.788 339.063,-201.467 344.056,-206.373"/>
</a>
</g>
<!-- http://latin.omdoc.org/foundations/zfc?Operations -->
<g id="node43" class="node"><title>http://latin.omdoc.org/foundations/zfc?Operations</title>
<a xlink:href="http://latin.omdoc.org/foundations/zfc?Operations" class="graphtheory">
<ellipse fill="gray" stroke="black" cx="313" cy="-444" rx="50.5427" ry="18"/>
<text text-anchor="middle" x="313" y="-440.3" font-family="Times New Roman,serif" font-size="14.00">Operations</text>
</a>
</g>
<!-- http://cds.omdoc.org/urtheories?LF&#45;&gt;http://latin.omdoc.org/foundations/zfc?Operations -->
<g id="edge101" class="edge"><title>http://cds.omdoc.org/urtheories?LF&#45;&gt;http://latin.omdoc.org/foundations/zfc?Operations</title>
<a class="graphmeta">
<path fill="none" stroke="black" d="M705.012,-515.786C633.24,-512.329 438.985,-501.402 378,-482 366.037,-478.194 353.839,-471.986 343.29,-465.732"/>
<polygon fill="black" stroke="black" points="344.837,-462.573 334.492,-460.285 341.152,-468.525 344.837,-462.573"/>
</a>
</g>
<!-- http://latin.omdoc.org/type_theories?VOID&#45;&gt;http://latin.omdoc.org/foundations/zfc?TypedZFBase -->
<g id="edge13" class="edge"><title>http://latin.omdoc.org/type_theories?VOID&#45;&gt;http://latin.omdoc.org/foundations/zfc?TypedZFBase</title>
<a xlink:href="http://latin.omdoc.org/translations/tt_zfc?VOID" class="graphview">
<path fill="none" stroke="black" d="M436.174,-337.817C434.21,-326.827 433.991,-312.995 442,-304 461.686,-281.889 544.939,-291.649 574,-286 578.175,-285.188 582.477,-284.276 586.793,-283.306"/>
<polygon fill="black" stroke="black" points="587.89,-286.643 596.83,-280.958 586.296,-279.827 587.89,-286.643"/>
</a>
<a xlink:href="http://latin.omdoc.org/translations/tt_zfc?VOID" class="VOID">
<text text-anchor="middle" x="459.5" y="-308.3" font-family="Times New Roman,serif" font-size="14.00">VOID</text>
</a>
</g>
<!-- http://latin.omdoc.org/type_theories?TypesTerms&#45;&gt;http://latin.omdoc.org/foundations/zfc?TypedZFBase -->
<g id="edge15" class="edge"><title>http://latin.omdoc.org/type_theories?TypesTerms&#45;&gt;http://latin.omdoc.org/foundations/zfc?TypedZFBase</title>
<a xlink:href="http://latin.omdoc.org/translations/tt_zfc?TypesTerms" class="graphview">
<path fill="none" stroke="black" d="M509.366,-425.95C501.112,-397.461 489.506,-339.79 517,-304 519.3,-301.006 553.673,-291.433 585.644,-283.054"/>
<polygon fill="black" stroke="black" points="586.656,-286.407 595.451,-280.5 584.892,-279.633 586.656,-286.407"/>
</a>
<a xlink:href="http://latin.omdoc.org/translations/tt_zfc?TypesTerms" class="TypesTerms">
<text text-anchor="middle" x="538" y="-352.3" font-family="Times New Roman,serif" font-size="14.00">TypesTerms</text>
</a>
</g>
<!-- http://latin.omdoc.org/type_theories?TypesTerms&#45;&gt;http://latin.omdoc.org/type_theories?VOID -->
<g id="edge79" class="edge"><title>http://latin.omdoc.org/type_theories?TypesTerms&#45;&gt;http://latin.omdoc.org/type_theories?VOID</title>
<a class="graphinclude">
<path fill="none" stroke="black" d="M500.732,-426.418C489.463,-413.322 473.601,-394.888 461.055,-380.307"/>
<polygon fill="black" stroke="black" points="463.651,-377.959 454.476,-372.661 458.345,-382.524 463.651,-377.959"/>
</a>
</g>
<!-- http://latin.omdoc.org/type_theories?TypesTerms&#45;&gt;http://latin.omdoc.org/type_theories?UNIT -->
<g id="edge81" class="edge"><title>http://latin.omdoc.org/type_theories?TypesTerms&#45;&gt;http://latin.omdoc.org/type_theories?UNIT</title>
<a class="graphinclude">
<path fill="none" stroke="black" d="M486.171,-428.376C462.561,-416.272 428.382,-398.455 399,-382 395.062,-379.795 390.948,-377.427 386.9,-375.059"/>
<polygon fill="black" stroke="black" points="388.629,-372.015 378.24,-369.938 385.066,-378.04 388.629,-372.015"/>
</a>
</g>
<!-- http://latin.omdoc.org/type_theories?UNIT&#45;&gt;http://latin.omdoc.org/foundations/zfc?TypedZFBase -->
<g id="edge17" class="edge"><title>http://latin.omdoc.org/type_theories?UNIT&#45;&gt;http://latin.omdoc.org/foundations/zfc?TypedZFBase</title>
<a xlink:href="http://latin.omdoc.org/translations/tt_zfc?UNIT" class="graphview">
<path fill="none" stroke="black" d="M365.718,-338.249C372.761,-326.552 383.826,-311.703 398,-304 432.544,-285.227 535.287,-292.853 574,-286 578.372,-285.226 582.88,-284.321 587.393,-283.338"/>
<polygon fill="black" stroke="black" points="588.265,-286.729 597.231,-281.085 586.702,-279.906 588.265,-286.729"/>
</a>
<a xlink:href="http://latin.omdoc.org/translations/tt_zfc?UNIT" class="UNIT">
<text text-anchor="middle" x="415" y="-308.3" font-family="Times New Roman,serif" font-size="14.00">UNIT</text>
</a>
</g>
<!-- http://latin.omdoc.org/foundations/zfc?UniversalQuantifier&#45;&gt;http://latin.omdoc.org/foundations/zfc?TypedZFBase -->
<g id="edge19" class="edge"><title>http://latin.omdoc.org/foundations/zfc?UniversalQuantifier&#45;&gt;http://latin.omdoc.org/foundations/zfc?TypedZFBase</title>
<a xlink:href="http://latin.omdoc.org/foundations/zfc?_UQ" class="graphview">
<path fill="none" stroke="black" d="M958.451,-268C887.353,-268 783.999,-268 714.734,-268"/>
<polygon fill="black" stroke="black" points="714.345,-264.5 704.345,-268 714.345,-271.5 714.345,-264.5"/>
</a>
<a xlink:href="http://latin.omdoc.org/foundations/zfc?_UQ" class="_UQ">
<text text-anchor="middle" x="831.029" y="-274.8" font-family="Times New Roman,serif" font-size="14.00">_UQ</text>
</a>
</g>
<!-- http://latin.omdoc.org/foundations/zfc?UniversalQuantifier&#45;&gt;http://latin.omdoc.org/foundations/isabelle?NesetZFC -->
<g id="edge77" class="edge"><title>http://latin.omdoc.org/foundations/zfc?UniversalQuantifier&#45;&gt;http://latin.omdoc.org/foundations/isabelle?NesetZFC</title>
<a class="graphinclude">
<path fill="none" stroke="black" d="M1039.42,-249.597C1040.38,-237.746 1041.68,-221.817 1042.78,-208.292"/>
<polygon fill="black" stroke="black" points="1046.29,-208.335 1043.61,-198.084 1039.31,-207.767 1046.29,-208.335"/>
</a>
</g>
<!-- http://latin.omdoc.org/foundations/zfc?UniversalQuantifier&#45;&gt;http://latin.omdoc.org/foundations/zfc?TypedZF -->
<g id="edge75" class="edge"><title>http://latin.omdoc.org/foundations/zfc?UniversalQuantifier&#45;&gt;http://latin.omdoc.org/foundations/zfc?TypedZF</title>
<a class="graphinclude">
<path fill="none" stroke="black" d="M1060.49,-250.526C1086,-229.761 1121.64,-193.028 1102,-162 1042.04,-67.2516 981.634,-85.421 874,-54 799.095,-32.1334 708.862,-23.9276 652.197,-20.8486"/>
<polygon fill="black" stroke="black" points="652.184,-17.3435 642.019,-20.3312 651.828,-24.3345 652.184,-17.3435"/>
</a>
</g>
<!-- http://latin.omdoc.org/foundations/zfc?BigInter&#45;&gt;http://latin.omdoc.org/foundations/zfc?TypedZF -->
<g id="edge73" class="edge"><title>http://latin.omdoc.org/foundations/zfc?BigInter&#45;&gt;http://latin.omdoc.org/foundations/zfc?TypedZF</title>
<a class="graphinclude">
<path fill="none" stroke="black" d="M228.731,-161.822C236.178,-138.164 252.972,-95.9916 283,-74 323.435,-44.3866 463.826,-29.1457 542.498,-22.7633"/>
<polygon fill="black" stroke="black" points="543.013,-26.2336 552.707,-21.9567 542.462,-19.2553 543.013,-26.2336"/>
</a>
</g>
<!-- http://latin.omdoc.org/foundations/zfc?BigInter&#45;&gt;http://latin.omdoc.org/foundations/zfc?ImageTypes -->
<g id="edge71" class="edge"><title>http://latin.omdoc.org/foundations/zfc?BigInter&#45;&gt;http://latin.omdoc.org/foundations/zfc?ImageTypes</title>
<a xlink:href="http://latin.omdoc.org/foundations/zfc?_BI" class="graphview">
<path fill="none" stroke="black" d="M241.971,-163.95C255.978,-152.813 276.296,-137.915 296,-128 313.235,-119.327 333.089,-112.138 350.979,-106.579"/>
<polygon fill="black" stroke="black" points="352.119,-109.891 360.687,-103.659 350.103,-103.188 352.119,-109.891"/>
</a>
<a xlink:href="http://latin.omdoc.org/foundations/zfc?_BI" class="_BI">
<text text-anchor="middle" x="307" y="-132.3" font-family="Times New Roman,serif" font-size="14.00">_BI</text>
</a>
</g>
<!-- http://latin.omdoc.org/foundations/zfc?DisjUnion&#45;&gt;http://latin.omdoc.org/foundations/zfc?TypedZF -->
<g id="edge69" class="edge"><title>http://latin.omdoc.org/foundations/zfc?DisjUnion&#45;&gt;http://latin.omdoc.org/foundations/zfc?TypedZF</title>
<a class="graphinclude">
<path fill="none" stroke="black" d="M899.215,-161.77C904.996,-138.825 910.969,-98.3137 890,-74 859.734,-38.9062 728.438,-25.9969 652.267,-21.4076"/>
<polygon fill="black" stroke="black" points="652.085,-17.8915 641.901,-20.8138 651.685,-24.8801 652.085,-17.8915"/>
</a>
</g>
<!-- http://latin.omdoc.org/foundations/zfc?DisjUnion&#45;&gt;http://latin.omdoc.org/foundations/zfc?ConditionalTerms -->
<g id="edge67" class="edge"><title>http://latin.omdoc.org/foundations/zfc?DisjUnion&#45;&gt;http://latin.omdoc.org/foundations/zfc?ConditionalTerms</title>
<a xlink:href="http://latin.omdoc.org/foundations/zfc?_DU" class="graphview">
<path fill="none" stroke="black" d="M877.26,-162.824C863.881,-149.897 844.93,-131.584 829.791,-116.956"/>
<polygon fill="black" stroke="black" points="831.896,-114.122 822.272,-109.69 827.031,-119.156 831.896,-114.122"/>
</a>
<a xlink:href="http://latin.omdoc.org/foundations/zfc?_DU" class="_DU">
<text text-anchor="middle" x="872" y="-132.3" font-family="Times New Roman,serif" font-size="14.00">_DU</text>
</a>
</g>
<!-- http://latin.omdoc.org/foundations/zfc?PredSubTypes&#45;&gt;http://latin.omdoc.org/foundations/zfc?TypedZFBase -->
<g id="edge29" class="edge"><title>http://latin.omdoc.org/foundations/zfc?PredSubTypes&#45;&gt;http://latin.omdoc.org/foundations/zfc?TypedZFBase</title>
<a xlink:href="http://latin.omdoc.org/foundations/zfc?_F" class="graphview">
<path fill="none" stroke="black" d="M708.854,-197.531C696.201,-210.485 678.424,-228.685 664.24,-243.207"/>
<polygon fill="black" stroke="black" points="661.68,-240.819 657.196,-250.418 666.687,-245.71 661.68,-240.819"/>
</a>
<a xlink:href="http://latin.omdoc.org/foundations/zfc?_F" class="_F">
<text text-anchor="middle" x="699" y="-220.3" font-family="Times New Roman,serif" font-size="14.00">_F</text>
</a>
</g>
<!-- http://latin.omdoc.org/foundations/zfc?PredSubTypes&#45;&gt;http://latin.omdoc.org/foundations/zfc?TypedZF -->
<g id="edge65" class="edge"><title>http://latin.omdoc.org/foundations/zfc?PredSubTypes&#45;&gt;http://latin.omdoc.org/foundations/zfc?TypedZF</title>
<a class="graphinclude">
<path fill="none" stroke="black" d="M711.544,-162.18C688.918,-133.897 643.153,-76.6913 616.835,-43.794"/>
<polygon fill="black" stroke="black" points="619.256,-41.2173 610.276,-35.595 613.79,-45.5902 619.256,-41.2173"/>
</a>
</g>
<!-- http://latin.omdoc.org/foundations/zfc?ImageTypes&#45;&gt;http://latin.omdoc.org/foundations/zfc?TypedZFBase -->
<g id="edge33" class="edge"><title>http://latin.omdoc.org/foundations/zfc?ImageTypes&#45;&gt;http://latin.omdoc.org/foundations/zfc?TypedZFBase</title>
<a xlink:href="http://latin.omdoc.org/foundations/zfc?_I" class="graphview">
<path fill="none" stroke="black" d="M411.041,-110.039C428.234,-146.314 467.459,-228.197 473,-232 491.596,-244.763 552.029,-236.904 574,-242 581.996,-243.855 590.331,-246.419 598.297,-249.203"/>
<polygon fill="black" stroke="black" points="597.188,-252.524 607.782,-252.674 599.594,-245.95 597.188,-252.524"/>
</a>
<a xlink:href="http://latin.omdoc.org/foundations/zfc?_I" class="_I">
<text text-anchor="middle" x="460.5" y="-176.3" font-family="Times New Roman,serif" font-size="14.00">_I</text>
</a>
</g>
<!-- http://latin.omdoc.org/foundations/zfc?ImageTypes&#45;&gt;http://latin.omdoc.org/foundations/zfc?TypedZF -->
<g id="edge63" class="edge"><title>http://latin.omdoc.org/foundations/zfc?ImageTypes&#45;&gt;http://latin.omdoc.org/foundations/zfc?TypedZF</title>
<a class="graphinclude">
<path fill="none" stroke="black" d="M438.132,-77.9613C471.168,-65.7005 520.636,-47.3412 555.58,-34.3724"/>
<polygon fill="black" stroke="black" points="556.868,-37.6278 565.025,-30.867 554.432,-31.0652 556.868,-37.6278"/>
</a>
</g>
<!-- http://latin.omdoc.org/foundations/zfc?ExistentialQuantifier&#45;&gt;http://latin.omdoc.org/foundations/zfc?TypedZFBase -->
<g id="edge37" class="edge"><title>http://latin.omdoc.org/foundations/zfc?ExistentialQuantifier&#45;&gt;http://latin.omdoc.org/foundations/zfc?TypedZFBase</title>
<a xlink:href="http://latin.omdoc.org/foundations/zfc?_EQ" class="graphview">
<path fill="none" stroke="black" d="M106.447,-197.28C125.349,-209.397 153.118,-225.001 180,-232 264.758,-254.068 488.013,-225.351 574,-242 582.323,-243.611 590.972,-246.142 599.182,-248.986"/>
<polygon fill="black" stroke="black" points="597.978,-252.273 608.572,-252.433 600.391,-245.701 597.978,-252.273"/>
</a>
<a xlink:href="http://latin.omdoc.org/foundations/zfc?_EQ" class="_EQ">
<text text-anchor="middle" x="193.5" y="-220.3" font-family="Times New Roman,serif" font-size="14.00">_EQ</text>
</a>
</g>
<!-- http://latin.omdoc.org/foundations/zfc?ExistentialQuantifier&#45;&gt;http://latin.omdoc.org/foundations/zfc?TypedZF -->
<g id="edge61" class="edge"><title>http://latin.omdoc.org/foundations/zfc?ExistentialQuantifier&#45;&gt;http://latin.omdoc.org/foundations/zfc?TypedZF</title>
<a class="graphinclude">
<path fill="none" stroke="black" d="M104.364,-162.497C134.882,-139.642 193.428,-98.4167 249,-74 345.875,-31.4359 470.734,-21.2821 541.519,-19.1725"/>
<polygon fill="black" stroke="black" points="541.653,-22.6703 551.561,-18.9167 541.475,-15.6725 541.653,-22.6703"/>
</a>
</g>
<!-- http://latin.omdoc.org/foundations/zfc?Products&#45;&gt;http://latin.omdoc.org/foundations/zfc?TypedZFBase -->
<g id="edge41" class="edge"><title>http://latin.omdoc.org/foundations/zfc?Products&#45;&gt;http://latin.omdoc.org/foundations/zfc?TypedZFBase</title>
<a xlink:href="http://latin.omdoc.org/foundations/zfc?_P" class="graphview">
<path fill="none" stroke="black" d="M597.929,-198.35C599.066,-208.619 601.56,-221.608 607,-232 609.09,-235.992 611.779,-239.836 614.728,-243.421"/>
<polygon fill="black" stroke="black" points="612.144,-245.782 621.468,-250.813 617.316,-241.065 612.144,-245.782"/>
</a>
<a xlink:href="http://latin.omdoc.org/foundations/zfc?_P" class="_P">
<text text-anchor="middle" x="615" y="-220.3" font-family="Times New Roman,serif" font-size="14.00">_P</text>
</a>
</g>
<!-- http://latin.omdoc.org/foundations/zfc?Products&#45;&gt;http://latin.omdoc.org/foundations/zfc?TypedZF -->
<g id="edge59" class="edge"><title>http://latin.omdoc.org/foundations/zfc?Products&#45;&gt;http://latin.omdoc.org/foundations/zfc?TypedZF</title>
<a class="graphinclude">
<path fill="none" stroke="black" d="M597,-161.877C597,-134.354 597,-80.0083 597,-46.8486"/>
<polygon fill="black" stroke="black" points="600.5,-46.4847 597,-36.4847 593.5,-46.4848 600.5,-46.4847"/>
</a>
</g>
<!-- http://latin.omdoc.org/foundations/zfc?ConditionalTerms&#45;&gt;http://latin.omdoc.org/foundations/zfc?TypedZF -->
<g id="edge57" class="edge"><title>http://latin.omdoc.org/foundations/zfc?ConditionalTerms&#45;&gt;http://latin.omdoc.org/foundations/zfc?TypedZF</title>
<a class="graphinclude">
<path fill="none" stroke="black" d="M763.906,-76.7751C728.085,-64.3757 676.317,-46.4558 639.957,-33.8697"/>
<polygon fill="black" stroke="black" points="640.731,-30.4339 630.136,-30.4702 638.441,-37.0488 640.731,-30.4339"/>
</a>
</g>
<!-- http://latin.omdoc.org/foundations/zfc?BigUnion&#45;&gt;http://latin.omdoc.org/foundations/zfc?TypedZF -->
<g id="edge55" class="edge"><title>http://latin.omdoc.org/foundations/zfc?BigUnion&#45;&gt;http://latin.omdoc.org/foundations/zfc?TypedZF</title>
<a class="graphinclude">
<path fill="none" stroke="black" d="M324.726,-172.166C296.322,-165.196 265.118,-151.908 276,-128 291.138,-94.7411 305.304,-90.3174 338,-74 403.688,-41.2177 488.218,-27.9325 542.515,-22.5763"/>
<polygon fill="black" stroke="black" points="542.991,-26.0473 552.624,-21.6365 542.343,-19.0774 542.991,-26.0473"/>
</a>
</g>
<!-- http://latin.omdoc.org/foundations/zfc?BigUnion&#45;&gt;http://latin.omdoc.org/foundations/zfc?ImageTypes -->
<g id="edge53" class="edge"><title>http://latin.omdoc.org/foundations/zfc?BigUnion&#45;&gt;http://latin.omdoc.org/foundations/zfc?ImageTypes</title>
<a xlink:href="http://latin.omdoc.org/foundations/zfc?_BU" class="graphview">
<path fill="none" stroke="black" d="M372.508,-162.009C377.868,-149.877 385.184,-133.32 391.306,-119.465"/>
<polygon fill="black" stroke="black" points="394.668,-120.517 395.508,-109.956 388.265,-117.688 394.668,-120.517"/>
</a>
<a xlink:href="http://latin.omdoc.org/foundations/zfc?_BU" class="_BU">
<text text-anchor="middle" x="401.5" y="-132.3" font-family="Times New Roman,serif" font-size="14.00">_BU</text>
</a>
</g>
<!-- http://latin.omdoc.org/foundations/zfc?Operations&#45;&gt;http://latin.omdoc.org/foundations/zfc?TypedZFBase -->
<g id="edge49" class="edge"><title>http://latin.omdoc.org/foundations/zfc?Operations&#45;&gt;http://latin.omdoc.org/foundations/zfc?TypedZFBase</title>
<a class="graphinclude">
<path fill="none" stroke="black" d="M308.689,-425.95C304.129,-403.923 299.634,-365.185 316,-338 331.809,-311.741 346.747,-313.149 376,-304 460.335,-277.625 486.905,-300.912 574,-286 578.445,-285.239 583.029,-284.335 587.614,-283.347"/>
<polygon fill="black" stroke="black" points="588.632,-286.705 597.604,-281.07 587.077,-279.88 588.632,-286.705"/>
</a>
</g>
</g>
</svg>
