<?xml version="1.0" encoding="UTF-8" standalone="no"?>
<!DOCTYPE svg PUBLIC "-//W3C//DTD SVG 1.1//EN"
 "http://www.w3.org/Graphics/SVG/1.1/DTD/svg11.dtd">
<!-- Generated by graphviz version 2.28.0 (20110507.0327)
 -->
<!-- Title: MMT Pages: 1 -->
<svg
 viewBox="0.00 0.00 453.81 266.00" xmlns="http://www.w3.org/2000/svg" xmlns:xlink="http://www.w3.org/1999/xlink">
<g id="graph1" class="graph" transform="scale(1 1) rotate(0) translate(4 262)">
<title>MMT</title>
<polygon fill="white" stroke="white" points="-4,5 -4,-262 450.814,-262 450.814,5 -4,5"/>
<g id="graph2" class="cluster"><title>cluster_local</title>
<polygon fill="none" stroke="black" points="75,-140 75,-192 251,-192 251,-140 75,-140"/>
</g>
<!-- http://latin.omdoc.org/foundations/zfc?UniversalQuantifier -->
<g id="node2" class="node"><title>http://latin.omdoc.org/foundations/zfc?UniversalQuantifier</title>
<a xlink:href="http://latin.omdoc.org/foundations/zfc?UniversalQuantifier" class="graphtheory">
<ellipse fill="none" stroke="black" cx="163" cy="-166" rx="79.4147" ry="18"/>
<text text-anchor="middle" x="163" y="-162.3" font-family="Times New Roman,serif" font-size="14.00">UniversalQuantifier</text>
</a>
</g>
<!-- http://latin.omdoc.org/foundations/zfc?TypedZF -->
<g id="node3" class="node"><title>http://latin.omdoc.org/foundations/zfc?TypedZF</title>
<a xlink:href="http://latin.omdoc.org/foundations/zfc?TypedZF" class="graphtheory">
<ellipse fill="gray" stroke="black" cx="277" cy="-18" rx="45.244" ry="18"/>
<text text-anchor="middle" x="277" y="-14.3" font-family="Times New Roman,serif" font-size="14.00">TypedZF</text>
</a>
</g>
<!-- http://latin.omdoc.org/foundations/zfc?UniversalQuantifier&#45;&gt;http://latin.omdoc.org/foundations/zfc?TypedZF -->
<g id="edge3" class="edge"><title>http://latin.omdoc.org/foundations/zfc?UniversalQuantifier&#45;&gt;http://latin.omdoc.org/foundations/zfc?TypedZF</title>
<a class="graphinclude">
<path fill="none" stroke="black" d="M171.451,-147.987C181.291,-128.989 198.682,-97.7879 218,-74 227.497,-62.3057 239.431,-50.7274 250.076,-41.2328"/>
<polygon fill="black" stroke="black" points="252.665,-43.6195 257.905,-34.4109 248.066,-38.3421 252.665,-43.6195"/>
</a>
</g>
<!-- http://latin.omdoc.org/foundations/isabelle?NesetZFC -->
<g id="node5" class="node"><title>http://latin.omdoc.org/foundations/isabelle?NesetZFC</title>
<a xlink:href="http://latin.omdoc.org/foundations/isabelle?NesetZFC" class="graphtheory">
<ellipse fill="gray" stroke="black" cx="275" cy="-92" rx="48.1437" ry="18"/>
<text text-anchor="middle" x="275" y="-88.3" font-family="Times New Roman,serif" font-size="14.00">NesetZFC</text>
</a>
</g>
<!-- http://latin.omdoc.org/foundations/zfc?UniversalQuantifier&#45;&gt;http://latin.omdoc.org/foundations/isabelle?NesetZFC -->
<g id="edge5" class="edge"><title>http://latin.omdoc.org/foundations/zfc?UniversalQuantifier&#45;&gt;http://latin.omdoc.org/foundations/isabelle?NesetZFC</title>
<a class="graphinclude">
<path fill="none" stroke="black" d="M188.135,-148.842C204.392,-138.391 225.695,-124.696 243.136,-113.484"/>
<polygon fill="black" stroke="black" points="245.338,-116.229 251.857,-107.878 241.553,-110.341 245.338,-116.229"/>
</a>
</g>
<!-- http://latin.omdoc.org/foundations/zfc?DependentFunctions -->
<g id="node7" class="node"><title>http://latin.omdoc.org/foundations/zfc?DependentFunctions</title>
<a xlink:href="http://latin.omdoc.org/foundations/zfc?DependentFunctions" class="graphtheory">
<ellipse fill="gray" stroke="black" cx="85" cy="-92" rx="85.19" ry="18"/>
<text text-anchor="middle" x="85" y="-88.3" font-family="Times New Roman,serif" font-size="14.00">DependentFunctions</text>
</a>
</g>
<!-- http://latin.omdoc.org/foundations/zfc?UniversalQuantifier&#45;&gt;http://latin.omdoc.org/foundations/zfc?DependentFunctions -->
<g id="edge7" class="edge"><title>http://latin.omdoc.org/foundations/zfc?UniversalQuantifier&#45;&gt;http://latin.omdoc.org/foundations/zfc?DependentFunctions</title>
<a class="graphinclude">
<path fill="none" stroke="black" d="M144.909,-148.301C134.671,-138.85 121.703,-126.88 110.452,-116.495"/>
<polygon fill="black" stroke="black" points="112.715,-113.82 102.993,-109.609 107.967,-118.963 112.715,-113.82"/>
</a>
</g>
<!-- http://latin.omdoc.org/foundations/zfc?TypedZFBase -->
<g id="node9" class="node"><title>http://latin.omdoc.org/foundations/zfc?TypedZFBase</title>
<a xlink:href="http://latin.omdoc.org/foundations/zfc?TypedZFBase" class="graphtheory">
<ellipse fill="gray" stroke="black" cx="362" cy="-166" rx="63.0666" ry="18"/>
<text text-anchor="middle" x="362" y="-162.3" font-family="Times New Roman,serif" font-size="14.00">TypedZFBase</text>
</a>
</g>
<!-- http://latin.omdoc.org/foundations/zfc?UniversalQuantifier&#45;&gt;http://latin.omdoc.org/foundations/zfc?TypedZFBase -->
<g id="edge11" class="edge"><title>http://latin.omdoc.org/foundations/zfc?UniversalQuantifier&#45;&gt;http://latin.omdoc.org/foundations/zfc?TypedZFBase</title>
<a xlink:href="http://latin.omdoc.org/foundations/zfc?_UQ" class="graphview">
<path fill="none" stroke="black" d="M242.508,-166C257.725,-166 273.593,-166 288.608,-166"/>
<polygon fill="black" stroke="black" points="288.848,-169.5 298.848,-166 288.848,-162.5 288.848,-169.5"/>
</a>
<a xlink:href="http://latin.omdoc.org/foundations/zfc?_UQ" class="_UQ">
<text text-anchor="middle" x="270.478" y="-172.8" font-family="Times New Roman,serif" font-size="14.00">_UQ</text>
</a>
</g>
<!-- http://latin.omdoc.org/foundations/zfc?DependentFunctions&#45;&gt;http://latin.omdoc.org/foundations/zfc?TypedZF -->
<g id="edge27" class="edge"><title>http://latin.omdoc.org/foundations/zfc?DependentFunctions&#45;&gt;http://latin.omdoc.org/foundations/zfc?TypedZF</title>
<a class="graphinclude">
<path fill="none" stroke="black" d="M125.249,-75.9064C157.537,-63.7986 202.7,-46.8623 235.352,-34.6179"/>
<polygon fill="black" stroke="black" points="236.922,-37.7675 245.056,-30.979 234.464,-31.2132 236.922,-37.7675"/>
</a>
</g>
<!-- http://latin.omdoc.org/foundations/zfc?TypedZFBase&#45;&gt;http://latin.omdoc.org/foundations/zfc?UniversalQuantifier -->
<g id="edge9" class="edge"><title>http://latin.omdoc.org/foundations/zfc?TypedZFBase&#45;&gt;http://latin.omdoc.org/foundations/zfc?UniversalQuantifier</title>
<a class="graphinclude">
<path fill="none" stroke="black" d="M298.61,-166C283.316,-166 268.022,-166 252.728,-166"/>
<polygon fill="black" stroke="black" points="252.678,-162.5 242.678,-166 252.678,-169.5 252.678,-162.5"/>
</a>
</g>
<!-- http://latin.omdoc.org/foundations/zfc?TypedZFBase&#45;&gt;http://latin.omdoc.org/foundations/zfc?TypedZF -->
<g id="edge25" class="edge"><title>http://latin.omdoc.org/foundations/zfc?TypedZFBase&#45;&gt;http://latin.omdoc.org/foundations/zfc?TypedZF</title>
<a class="graphinclude">
<path fill="none" stroke="black" d="M358.852,-147.885C354.795,-128.796 346.479,-97.5139 332,-74 324.569,-61.9327 313.988,-50.5162 304.088,-41.245"/>
<polygon fill="black" stroke="black" points="306.143,-38.3853 296.368,-34.2981 301.46,-43.5888 306.143,-38.3853"/>
</a>
</g>
<!-- http://latin.omdoc.org/foundations/zfc?TypedZFBase&#45;&gt;http://latin.omdoc.org/foundations/isabelle?NesetZFC -->
<g id="edge23" class="edge"><title>http://latin.omdoc.org/foundations/zfc?TypedZFBase&#45;&gt;http://latin.omdoc.org/foundations/isabelle?NesetZFC</title>
<a class="graphinclude">
<path fill="none" stroke="black" d="M342.258,-148.662C330.301,-138.767 314.89,-126.012 301.836,-115.209"/>
<polygon fill="black" stroke="black" points="304.001,-112.458 294.066,-108.778 299.538,-117.851 304.001,-112.458"/>
</a>
</g>
<!-- http://cds.omdoc.org/urtheories?LF -->
<g id="node12" class="node"><title>http://cds.omdoc.org/urtheories?LF</title>
<a xlink:href="http://cds.omdoc.org/urtheories?LF" class="graphtheory">
<ellipse fill="gray" stroke="black" cx="271" cy="-240" rx="27" ry="18"/>
<text text-anchor="middle" x="271" y="-236.3" font-family="Times New Roman,serif" font-size="14.00">LF</text>
</a>
</g>
<!-- http://cds.omdoc.org/urtheories?LF&#45;&gt;http://latin.omdoc.org/foundations/zfc?UniversalQuantifier -->
<g id="edge13" class="edge"><title>http://cds.omdoc.org/urtheories?LF&#45;&gt;http://latin.omdoc.org/foundations/zfc?UniversalQuantifier</title>
<a class="graphmeta">
<path fill="none" stroke="black" d="M252.188,-226.459C236.64,-216.094 214.2,-201.133 195.719,-188.813"/>
<polygon fill="black" stroke="black" points="197.541,-185.821 187.279,-183.186 193.658,-191.645 197.541,-185.821"/>
</a>
</g>
<!-- http://cds.omdoc.org/urtheories?LF&#45;&gt;http://latin.omdoc.org/foundations/zfc?TypedZF -->
<g id="edge17" class="edge"><title>http://cds.omdoc.org/urtheories?LF&#45;&gt;http://latin.omdoc.org/foundations/zfc?TypedZF</title>
<a class="graphmeta">
<path fill="none" stroke="black" d="M297.203,-235.289C338.948,-228.78 417.532,-213.887 434,-192 479.599,-131.395 374.813,-67.022 315.01,-36.7222"/>
<polygon fill="black" stroke="black" points="316.341,-33.4752 305.829,-32.1576 313.225,-39.7434 316.341,-33.4752"/>
</a>
</g>
<!-- http://cds.omdoc.org/urtheories?LF&#45;&gt;http://latin.omdoc.org/foundations/isabelle?NesetZFC -->
<g id="edge21" class="edge"><title>http://cds.omdoc.org/urtheories?LF&#45;&gt;http://latin.omdoc.org/foundations/isabelle?NesetZFC</title>
<a class="graphmeta">
<path fill="none" stroke="black" d="M271.467,-221.966C272.149,-197.045 273.428,-150.374 274.246,-120.537"/>
<polygon fill="black" stroke="black" points="277.749,-120.47 274.524,-110.378 270.751,-120.278 277.749,-120.47"/>
</a>
</g>
<!-- http://cds.omdoc.org/urtheories?LF&#45;&gt;http://latin.omdoc.org/foundations/zfc?DependentFunctions -->
<g id="edge19" class="edge"><title>http://cds.omdoc.org/urtheories?LF&#45;&gt;http://latin.omdoc.org/foundations/zfc?DependentFunctions</title>
<a class="graphmeta">
<path fill="none" stroke="black" d="M244.123,-236.726C194.663,-231.925 92.3186,-218.909 71,-192 54.8285,-171.588 62.419,-141.1 71.4748,-119.356"/>
<polygon fill="black" stroke="black" points="74.7509,-120.605 75.6586,-110.049 68.3663,-117.735 74.7509,-120.605"/>
</a>
</g>
<!-- http://cds.omdoc.org/urtheories?LF&#45;&gt;http://latin.omdoc.org/foundations/zfc?TypedZFBase -->
<g id="edge15" class="edge"><title>http://cds.omdoc.org/urtheories?LF&#45;&gt;http://latin.omdoc.org/foundations/zfc?TypedZFBase</title>
<a class="graphmeta">
<path fill="none" stroke="black" d="M287.691,-225.794C300.506,-215.655 318.5,-201.418 333.571,-189.493"/>
<polygon fill="black" stroke="black" points="335.921,-192.097 341.592,-183.147 331.578,-186.607 335.921,-192.097"/>
</a>
</g>
</g>
</svg>
