<?xml version="1.0" encoding="UTF-8" standalone="no"?>
<!DOCTYPE svg PUBLIC "-//W3C//DTD SVG 1.1//EN"
 "http://www.w3.org/Graphics/SVG/1.1/DTD/svg11.dtd">
<!-- Generated by graphviz version 2.28.0 (20110507.0327)
 -->
<!-- Title: MMT Pages: 1 -->
<svg width="1787pt" height="398pt"
 viewBox="0.00 0.00 1787.04 398.00" xmlns="http://www.w3.org/2000/svg" xmlns:xlink="http://www.w3.org/1999/xlink">
<g id="graph1" class="graph" transform="scale(1 1) rotate(0) translate(4 394)">
<title>MMT</title>
<polygon fill="white" stroke="white" points="-4,5 -4,-394 1784.04,-394 1784.04,5 -4,5"/>
<g id="graph2" class="cluster"><title>cluster_local</title>
<polygon fill="none" stroke="black" points="747.04,-8 747.04,-324 1208.04,-324 1208.04,-8 747.04,-8"/>
</g>
<!-- http://latin.omdoc.org/type_theories?LambdaOmega -->
<g id="node2" class="node"><title>http://latin.omdoc.org/type_theories?LambdaOmega</title>
<a xlink:href="javascript:parent.navigate(&#39;http://latin.omdoc.org/type_theories?LambdaOmega&#39;)" xlink:title="theory http://latin.omdoc.org/type_theories?LambdaOmega">
<ellipse fill="none" stroke="black" cx="821.04" cy="-122" rx="65.9423" ry="18"/>
<text text-anchor="middle" x="821.04" y="-118.3" font-family="Times New Roman,serif" font-size="14.00">LambdaOmega</text>
</a>
</g>
<!-- http://latin.omdoc.org/type_theories?LambdaPOmega -->
<g id="node8" class="node"><title>http://latin.omdoc.org/type_theories?LambdaPOmega</title>
<a xlink:href="javascript:parent.navigate(&#39;http://latin.omdoc.org/type_theories?LambdaPOmega&#39;)" xlink:title="theory http://latin.omdoc.org/type_theories?LambdaPOmega">
<ellipse fill="none" stroke="black" cx="1037.04" cy="-34" rx="71.2405" ry="18"/>
<text text-anchor="middle" x="1037.04" y="-30.3" font-family="Times New Roman,serif" font-size="14.00">LambdaPOmega</text>
</a>
</g>
<!-- http://latin.omdoc.org/type_theories?LambdaOmega&#45;&gt;http://latin.omdoc.org/type_theories?LambdaPOmega -->
<g id="edge7" class="edge"><title>http://latin.omdoc.org/type_theories?LambdaOmega&#45;&gt;http://latin.omdoc.org/type_theories?LambdaPOmega</title>
<a xlink:href="javascript:parent.navigate(&#39;http://latin.omdoc.org/type_theories?LambdaOmegaToPOmega&#39;)" xlink:title="view http://latin.omdoc.org/type_theories?LambdaOmegaToPOmega">
<path fill="none" stroke="blue" stroke-dasharray="5,2" d="M825.62,-103.314C830.179,-91.8735 837.712,-77.691 849.459,-69.1858 867.765,-56.2521 917.619,-47.2982 961.401,-41.636"/>
<path fill="none" stroke="blue" stroke-dasharray="5,2" d="M827.478,-104.053C831.945,-92.8117 839.478,-78.6292 850.62,-70.8142 868.118,-58.2206 917.973,-49.2667 961.657,-43.6195"/>
<polygon fill="blue" stroke="blue" points="962.131,-46.0798 971.619,-41.3661 961.262,-39.1339 962.131,-46.0798"/>
</a>
<a xlink:href="javascript:parent.navigate(&#39;http://latin.omdoc.org/type_theories?LambdaOmegaToPOmega&#39;)" xlink:title="LambdaOmegaToPOmega">
<text text-anchor="middle" x="925.54" y="-74.3" font-family="Times New Roman,serif" font-size="14.00">LambdaOmegaToPOmega</text>
</a>
</g>
<!-- http://latin.omdoc.org/type_theories?LambdaOmega_ -->
<g id="node3" class="node"><title>http://latin.omdoc.org/type_theories?LambdaOmega_</title>
<a xlink:href="javascript:parent.navigate(&#39;http://latin.omdoc.org/type_theories?LambdaOmega_&#39;)" xlink:title="theory http://latin.omdoc.org/type_theories?LambdaOmega_">
<ellipse fill="none" stroke="black" cx="829.04" cy="-210" rx="71.2405" ry="18"/>
<text text-anchor="middle" x="829.04" y="-206.3" font-family="Times New Roman,serif" font-size="14.00">LambdaOmega_</text>
</a>
</g>
<!-- http://latin.omdoc.org/type_theories?LambdaOmega_&#45;&gt;http://latin.omdoc.org/type_theories?LambdaOmega -->
<g id="edge15" class="edge"><title>http://latin.omdoc.org/type_theories?LambdaOmega_&#45;&gt;http://latin.omdoc.org/type_theories?LambdaOmega</title>
<a xlink:title="include">
<path fill="none" stroke="black" d="M785.711,-195.541C775.944,-190.395 766.779,-183.408 761.04,-174 753.434,-161.532 762.625,-150.588 775.917,-142.069"/>
<polygon fill="black" stroke="black" points="777.676,-145.095 784.611,-137.085 774.194,-139.022 777.676,-145.095"/>
</a>
</g>
<!-- http://latin.omdoc.org/type_theories?LambdaPOmega_ -->
<g id="node9" class="node"><title>http://latin.omdoc.org/type_theories?LambdaPOmega_</title>
<a xlink:href="javascript:parent.navigate(&#39;http://latin.omdoc.org/type_theories?LambdaPOmega_&#39;)" xlink:title="theory http://latin.omdoc.org/type_theories?LambdaPOmega_">
<ellipse fill="none" stroke="black" cx="982.04" cy="-122" rx="76.5394" ry="18"/>
<text text-anchor="middle" x="982.04" y="-118.3" font-family="Times New Roman,serif" font-size="14.00">LambdaPOmega_</text>
</a>
</g>
<!-- http://latin.omdoc.org/type_theories?LambdaOmega_&#45;&gt;http://latin.omdoc.org/type_theories?LambdaPOmega_ -->
<g id="edge3" class="edge"><title>http://latin.omdoc.org/type_theories?LambdaOmega_&#45;&gt;http://latin.omdoc.org/type_theories?LambdaPOmega_</title>
<a xlink:href="javascript:parent.navigate(&#39;http://latin.omdoc.org/type_theories?LambdaOmega_ToPOmega_&#39;)" xlink:title="view http://latin.omdoc.org/type_theories?LambdaOmega_ToPOmega_">
<path fill="none" stroke="blue" stroke-dasharray="5,2" d="M796.455,-194.682C779.861,-184.755 765.397,-171.487 776.282,-157.348 794.571,-136.727 869.783,-143.599 895.868,-139.015 902.408,-137.875 909.224,-136.628 916.022,-135.346"/>
<path fill="none" stroke="blue" stroke-dasharray="5,2" d="M797.48,-192.965C781.213,-183.281 766.749,-170.013 777.798,-158.652 794.389,-138.719 869.601,-145.59 896.212,-140.985 902.768,-139.842 909.584,-138.595 916.393,-137.311"/>
<polygon fill="blue" stroke="blue" points="916.967,-139.746 926.132,-134.431 915.653,-132.871 916.967,-139.746"/>
</a>
<a xlink:href="javascript:parent.navigate(&#39;http://latin.omdoc.org/type_theories?LambdaOmega_ToPOmega_&#39;)" xlink:title="LambdaOmega_ToPOmega_">
<text text-anchor="middle" x="860.04" y="-162.3" font-family="Times New Roman,serif" font-size="14.00">LambdaOmega_ToPOmega_</text>
</a>
</g>
<!-- http://latin.omdoc.org/type_theories?LambdaOmegaToPOmega -->
<g id="node20" class="node"><title>http://latin.omdoc.org/type_theories?LambdaOmegaToPOmega</title>
<a xlink:href="javascript:parent.navigate(&#39;http://latin.omdoc.org/type_theories?LambdaOmegaToPOmega&#39;)" xlink:title="theory http://latin.omdoc.org/type_theories?LambdaOmegaToPOmega">
<ellipse fill="gray" stroke="black" cx="1325.04" cy="-122" rx="108.31" ry="18"/>
<text text-anchor="middle" x="1325.04" y="-118.3" font-family="Times New Roman,serif" font-size="14.00">LambdaOmegaToPOmega</text>
</a>
</g>
<!-- http://latin.omdoc.org/type_theories?LambdaOmega_&#45;&gt;http://latin.omdoc.org/type_theories?LambdaOmegaToPOmega -->
<g id="edge19" class="edge"><title>http://latin.omdoc.org/type_theories?LambdaOmega_&#45;&gt;http://latin.omdoc.org/type_theories?LambdaOmegaToPOmega</title>
<a xlink:title="include">
<path fill="none" stroke="black" d="M881.163,-197.585C892.299,-195.459 904.025,-193.453 915.04,-192 1033.39,-176.393 1066.18,-198.411 1183.04,-174 1216.3,-167.052 1252.31,-154.053 1279.74,-142.917"/>
<polygon fill="black" stroke="black" points="1281.16,-146.118 1289.07,-139.069 1278.49,-139.647 1281.16,-146.118"/>
</a>
</g>
<!-- http://latin.omdoc.org/type_theories?LambdaP2 -->
<g id="node4" class="node"><title>http://latin.omdoc.org/type_theories?LambdaP2</title>
<a xlink:href="javascript:parent.navigate(&#39;http://latin.omdoc.org/type_theories?LambdaP2&#39;)" xlink:title="theory http://latin.omdoc.org/type_theories?LambdaP2">
<ellipse fill="none" stroke="black" cx="1127.04" cy="-122" rx="50.0684" ry="18"/>
<text text-anchor="middle" x="1127.04" y="-118.3" font-family="Times New Roman,serif" font-size="14.00">LambdaP2</text>
</a>
</g>
<!-- http://latin.omdoc.org/type_theories?LambdaP2&#45;&gt;http://latin.omdoc.org/type_theories?LambdaPOmega -->
<g id="edge55" class="edge"><title>http://latin.omdoc.org/type_theories?LambdaP2&#45;&gt;http://latin.omdoc.org/type_theories?LambdaPOmega</title>
<a xlink:title="include">
<path fill="none" stroke="black" d="M1094.87,-108.135C1083.79,-102.558 1071.95,-95.1745 1063.04,-86 1056.3,-79.0597 1050.92,-70.0218 1046.85,-61.4858"/>
<polygon fill="black" stroke="black" points="1050.01,-59.9686 1042.8,-52.2 1043.59,-62.7656 1050.01,-59.9686"/>
</a>
</g>
<!-- http://latin.omdoc.org/type_theories?LambdaArrow -->
<g id="node5" class="node"><title>http://latin.omdoc.org/type_theories?LambdaArrow</title>
<a xlink:href="javascript:parent.navigate(&#39;http://latin.omdoc.org/type_theories?LambdaArrow&#39;)" xlink:title="theory http://latin.omdoc.org/type_theories?LambdaArrow">
<ellipse fill="none" stroke="black" cx="1009.04" cy="-298" rx="63.5411" ry="18"/>
<text text-anchor="middle" x="1009.04" y="-294.3" font-family="Times New Roman,serif" font-size="14.00">LambdaArrow</text>
</a>
</g>
<!-- http://latin.omdoc.org/type_theories?LambdaArrow&#45;&gt;http://latin.omdoc.org/type_theories?LambdaOmega_ -->
<g id="edge21" class="edge"><title>http://latin.omdoc.org/type_theories?LambdaArrow&#45;&gt;http://latin.omdoc.org/type_theories?LambdaOmega_</title>
<a xlink:title="include">
<path fill="none" stroke="black" d="M995.667,-280.052C991.26,-274.365 986.378,-267.954 982.04,-262 976.958,-255.025 978.137,-250.909 971.04,-246 964.174,-241.251 926.885,-232.144 892.243,-224.41"/>
<polygon fill="black" stroke="black" points="892.614,-220.908 882.094,-222.166 891.102,-227.743 892.614,-220.908"/>
</a>
</g>
<!-- http://latin.omdoc.org/type_theories?Lambda2 -->
<g id="node6" class="node"><title>http://latin.omdoc.org/type_theories?Lambda2</title>
<a xlink:href="javascript:parent.navigate(&#39;http://latin.omdoc.org/type_theories?Lambda2&#39;)" xlink:title="theory http://latin.omdoc.org/type_theories?Lambda2">
<ellipse fill="none" stroke="black" cx="969.04" cy="-210" rx="44.271" ry="18"/>
<text text-anchor="middle" x="969.04" y="-206.3" font-family="Times New Roman,serif" font-size="14.00">Lambda2</text>
</a>
</g>
<!-- http://latin.omdoc.org/type_theories?LambdaArrow&#45;&gt;http://latin.omdoc.org/type_theories?Lambda2 -->
<g id="edge41" class="edge"><title>http://latin.omdoc.org/type_theories?LambdaArrow&#45;&gt;http://latin.omdoc.org/type_theories?Lambda2</title>
<a xlink:title="include">
<path fill="none" stroke="black" d="M1001.14,-280.009C995.439,-267.759 987.644,-250.998 981.162,-237.062"/>
<polygon fill="black" stroke="black" points="984.317,-235.547 976.926,-227.956 977.97,-238.499 984.317,-235.547"/>
</a>
</g>
<!-- http://latin.omdoc.org/type_theories?LambdaP -->
<g id="node7" class="node"><title>http://latin.omdoc.org/type_theories?LambdaP</title>
<a xlink:href="javascript:parent.navigate(&#39;http://latin.omdoc.org/type_theories?LambdaP&#39;)" xlink:title="theory http://latin.omdoc.org/type_theories?LambdaP">
<ellipse fill="none" stroke="black" cx="1154.04" cy="-210" rx="46.2191" ry="18"/>
<text text-anchor="middle" x="1154.04" y="-206.3" font-family="Times New Roman,serif" font-size="14.00">LambdaP</text>
</a>
</g>
<!-- http://latin.omdoc.org/type_theories?LambdaArrow&#45;&gt;http://latin.omdoc.org/type_theories?LambdaP -->
<g id="edge9" class="edge"><title>http://latin.omdoc.org/type_theories?LambdaArrow&#45;&gt;http://latin.omdoc.org/type_theories?LambdaP</title>
<a xlink:href="javascript:parent.navigate(&#39;http://latin.omdoc.org/type_theories?LambdaArrowToP&#39;)" xlink:title="view http://latin.omdoc.org/type_theories?LambdaArrowToP">
<path fill="none" stroke="blue" stroke-dasharray="5,2" d="M1034.79,-280.566C1058.73,-266.364 1094.23,-245.311 1120.17,-229.924"/>
<path fill="none" stroke="blue" stroke-dasharray="5,2" d="M1035.81,-282.286C1059.75,-268.084 1095.25,-247.032 1121.19,-231.644"/>
<polygon fill="blue" stroke="blue" points="1122.61,-233.71 1129.43,-225.598 1119.04,-227.689 1122.61,-233.71"/>
</a>
<a xlink:href="javascript:parent.navigate(&#39;http://latin.omdoc.org/type_theories?LambdaArrowToP&#39;)" xlink:title="LambdaArrowToP">
<text text-anchor="middle" x="1146.54" y="-250.3" font-family="Times New Roman,serif" font-size="14.00">LambdaArrowToP</text>
</a>
</g>
<!-- http://latin.omdoc.org/type_theories?LambdaOmega_ToPOmega_ -->
<g id="node29" class="node"><title>http://latin.omdoc.org/type_theories?LambdaOmega_ToPOmega_</title>
<a xlink:href="javascript:parent.navigate(&#39;http://latin.omdoc.org/type_theories?LambdaOmega_ToPOmega_&#39;)" xlink:title="theory http://latin.omdoc.org/type_theories?LambdaOmega_ToPOmega_">
<ellipse fill="gray" stroke="black" cx="621.04" cy="-210" rx="117.935" ry="18"/>
<text text-anchor="middle" x="621.04" y="-206.3" font-family="Times New Roman,serif" font-size="14.00">LambdaOmega_ToPOmega_</text>
</a>
</g>
<!-- http://latin.omdoc.org/type_theories?LambdaArrow&#45;&gt;http://latin.omdoc.org/type_theories?LambdaOmega_ToPOmega_ -->
<g id="edge33" class="edge"><title>http://latin.omdoc.org/type_theories?LambdaArrow&#45;&gt;http://latin.omdoc.org/type_theories?LambdaOmega_ToPOmega_</title>
<a xlink:title="include">
<path fill="none" stroke="black" d="M963.367,-285.365C955.915,-283.529 948.27,-281.683 941.04,-280 858.418,-260.77 763.355,-240.507 698.448,-226.953"/>
<polygon fill="black" stroke="black" points="698.8,-223.451 688.296,-224.837 697.371,-230.304 698.8,-223.451"/>
</a>
</g>
<!-- http://latin.omdoc.org/type_theories?Lambda2ToP2 -->
<g id="node31" class="node"><title>http://latin.omdoc.org/type_theories?Lambda2ToP2</title>
<a xlink:href="javascript:parent.navigate(&#39;http://latin.omdoc.org/type_theories?Lambda2ToP2&#39;)" xlink:title="theory http://latin.omdoc.org/type_theories?Lambda2ToP2">
<ellipse fill="gray" stroke="black" cx="419.04" cy="-210" rx="65.4659" ry="18"/>
<text text-anchor="middle" x="419.04" y="-206.3" font-family="Times New Roman,serif" font-size="14.00">Lambda2ToP2</text>
</a>
</g>
<!-- http://latin.omdoc.org/type_theories?LambdaArrow&#45;&gt;http://latin.omdoc.org/type_theories?Lambda2ToP2 -->
<g id="edge35" class="edge"><title>http://latin.omdoc.org/type_theories?LambdaArrow&#45;&gt;http://latin.omdoc.org/type_theories?Lambda2ToP2</title>
<a xlink:title="include">
<path fill="none" stroke="black" d="M964.594,-285.014C956.782,-283.158 948.702,-281.397 941.04,-280 928.742,-277.757 506.361,-230.107 494.04,-228 488.307,-227.02 482.353,-225.881 476.42,-224.666"/>
<polygon fill="black" stroke="black" points="477.006,-221.212 466.497,-222.563 475.555,-228.06 477.006,-221.212"/>
</a>
</g>
<!-- http://latin.omdoc.org/type_theories?Lambda2&#45;&gt;http://latin.omdoc.org/type_theories?LambdaOmega -->
<g id="edge11" class="edge"><title>http://latin.omdoc.org/type_theories?Lambda2&#45;&gt;http://latin.omdoc.org/type_theories?LambdaOmega</title>
<a xlink:href="javascript:parent.navigate(&#39;http://latin.omdoc.org/type_theories?Lambda2ToOmega&#39;)" xlink:title="view http://latin.omdoc.org/type_theories?Lambda2ToOmega">
<path fill="none" stroke="blue" stroke-dasharray="5,2" d="M964.621,-191.836C961.587,-180.849 955.996,-166.994 946.383,-158.754 941.254,-154.15 909.287,-145.297 878.96,-137.705"/>
<path fill="none" stroke="blue" stroke-dasharray="5,2" d="M966.548,-191.303C963.442,-180.101 957.85,-166.246 947.697,-157.246 941.787,-152.222 909.82,-143.369 879.446,-135.765"/>
<polygon fill="blue" stroke="blue" points="879.989,-133.324 869.441,-134.32 878.307,-140.119 879.989,-133.324"/>
</a>
<a xlink:href="javascript:parent.navigate(&#39;http://latin.omdoc.org/type_theories?Lambda2ToOmega&#39;)" xlink:title="Lambda2ToOmega">
<text text-anchor="middle" x="1013.54" y="-162.3" font-family="Times New Roman,serif" font-size="14.00">Lambda2ToOmega</text>
</a>
</g>
<!-- http://latin.omdoc.org/type_theories?Lambda2&#45;&gt;http://latin.omdoc.org/type_theories?LambdaP2 -->
<g id="edge5" class="edge"><title>http://latin.omdoc.org/type_theories?Lambda2&#45;&gt;http://latin.omdoc.org/type_theories?LambdaP2</title>
<a xlink:href="javascript:parent.navigate(&#39;http://latin.omdoc.org/type_theories?Lambda2ToP2&#39;)" xlink:title="view http://latin.omdoc.org/type_theories?Lambda2ToP2">
<path fill="none" stroke="blue" stroke-dasharray="5,2" d="M1006.64,-199.282C1026.8,-193.634 1051.6,-185.048 1071.53,-173.141 1083.56,-165.986 1095.33,-155.675 1104.79,-146.265"/>
<path fill="none" stroke="blue" stroke-dasharray="5,2" d="M1007.18,-201.208C1027.46,-195.524 1052.25,-186.938 1072.55,-174.859 1084.88,-167.491 1096.65,-157.179 1106.2,-147.684"/>
<polygon fill="blue" stroke="blue" points="1108.14,-149.267 1112.59,-139.652 1103.12,-144.394 1108.14,-149.267"/>
</a>
<a xlink:href="javascript:parent.navigate(&#39;http://latin.omdoc.org/type_theories?Lambda2ToP2&#39;)" xlink:title="Lambda2ToP2">
<text text-anchor="middle" x="1136.54" y="-162.3" font-family="Times New Roman,serif" font-size="14.00">Lambda2ToP2</text>
</a>
</g>
<!-- http://latin.omdoc.org/type_theories?LambdaP&#45;&gt;http://latin.omdoc.org/type_theories?LambdaP2 -->
<g id="edge29" class="edge"><title>http://latin.omdoc.org/type_theories?LambdaP&#45;&gt;http://latin.omdoc.org/type_theories?LambdaP2</title>
<a xlink:title="include">
<path fill="none" stroke="black" d="M1177.68,-194.298C1190.36,-184.465 1201.91,-170.993 1194.04,-158 1189.15,-149.922 1181.71,-143.62 1173.54,-138.733"/>
<polygon fill="black" stroke="black" points="1174.97,-135.527 1164.49,-133.97 1171.71,-141.722 1174.97,-135.527"/>
</a>
</g>
<!-- http://latin.omdoc.org/type_theories?LambdaP&#45;&gt;http://latin.omdoc.org/type_theories?LambdaPOmega_ -->
<g id="edge63" class="edge"><title>http://latin.omdoc.org/type_theories?LambdaP&#45;&gt;http://latin.omdoc.org/type_theories?LambdaPOmega_</title>
<a xlink:title="include">
<path fill="none" stroke="black" d="M1172.67,-193.29C1183.04,-182.666 1192.18,-168.68 1183.04,-158 1166.22,-138.346 1093.51,-144.509 1068.04,-140 1061.49,-138.841 1054.68,-137.583 1047.88,-136.294"/>
<polygon fill="black" stroke="black" points="1048.44,-132.837 1037.95,-134.389 1047.12,-139.711 1048.44,-132.837"/>
</a>
</g>
<!-- http://latin.omdoc.org/logics/syntax?LambdaPHOL -->
<g id="node40" class="node"><title>http://latin.omdoc.org/logics/syntax?LambdaPHOL</title>
<a xlink:href="javascript:parent.navigate(&#39;http://latin.omdoc.org/logics/syntax?LambdaPHOL&#39;)" xlink:title="theory http://latin.omdoc.org/logics/syntax?LambdaPHOL">
<ellipse fill="gray" stroke="black" cx="1516.04" cy="-122" rx="64.0172" ry="18"/>
<text text-anchor="middle" x="1516.04" y="-118.3" font-family="Times New Roman,serif" font-size="14.00">LambdaPHOL</text>
</a>
</g>
<!-- http://latin.omdoc.org/type_theories?LambdaP&#45;&gt;http://latin.omdoc.org/logics/syntax?LambdaPHOL -->
<g id="edge47" class="edge"><title>http://latin.omdoc.org/type_theories?LambdaP&#45;&gt;http://latin.omdoc.org/logics/syntax?LambdaPHOL</title>
<a xlink:title="include">
<path fill="none" stroke="black" d="M1186.32,-197.002C1192.16,-195.125 1198.24,-193.359 1204.04,-192 1262.97,-178.192 1279.8,-186.414 1339.04,-174 1382.81,-164.828 1431.58,-150.457 1466.83,-139.305"/>
<polygon fill="black" stroke="black" points="1467.93,-142.626 1476.39,-136.251 1465.8,-135.957 1467.93,-142.626"/>
</a>
</g>
<!-- http://latin.omdoc.org/type_theories?LambdaPOmega_&#45;&gt;http://latin.omdoc.org/type_theories?LambdaPOmega -->
<g id="edge57" class="edge"><title>http://latin.omdoc.org/type_theories?LambdaPOmega_&#45;&gt;http://latin.omdoc.org/type_theories?LambdaPOmega</title>
<a xlink:title="include">
<path fill="none" stroke="black" d="M992.906,-104.009C1000.82,-91.6413 1011.67,-74.6752 1020.63,-60.6608"/>
<polygon fill="black" stroke="black" points="1023.76,-62.2658 1026.2,-51.9555 1017.86,-58.4943 1023.76,-62.2658"/>
</a>
</g>
<!-- http://latin.omdoc.org/type_theories?PolyTypes -->
<g id="node15" class="node"><title>http://latin.omdoc.org/type_theories?PolyTypes</title>
<a xlink:href="javascript:parent.navigate(&#39;http://latin.omdoc.org/type_theories?PolyTypes&#39;)" xlink:title="theory http://latin.omdoc.org/type_theories?PolyTypes">
<ellipse fill="gray" stroke="black" cx="133.04" cy="-210" rx="50.0684" ry="18"/>
<text text-anchor="middle" x="133.04" y="-206.3" font-family="Times New Roman,serif" font-size="14.00">PolyTypes</text>
</a>
</g>
<!-- http://latin.omdoc.org/type_theories?PolyTypes&#45;&gt;http://latin.omdoc.org/type_theories?LambdaOmega -->
<g id="edge13" class="edge"><title>http://latin.omdoc.org/type_theories?PolyTypes&#45;&gt;http://latin.omdoc.org/type_theories?LambdaOmega</title>
<a xlink:title="include">
<path fill="none" stroke="black" d="M148.98,-192.934C162.018,-180.935 181.584,-165.386 202.04,-158 251.863,-140.011 591.07,-128.992 745.157,-124.861"/>
<polygon fill="black" stroke="black" points="745.575,-128.351 755.479,-124.587 745.39,-121.354 745.575,-128.351"/>
</a>
</g>
<!-- http://latin.omdoc.org/type_theories?PolyTypes&#45;&gt;http://latin.omdoc.org/type_theories?LambdaP2 -->
<g id="edge27" class="edge"><title>http://latin.omdoc.org/type_theories?PolyTypes&#45;&gt;http://latin.omdoc.org/type_theories?LambdaP2</title>
<a xlink:title="include">
<path fill="none" stroke="black" d="M166.589,-196.591C201.951,-184.178 259.556,-165.836 311.04,-158 643.308,-107.425 734.716,-190.209 1067.04,-140 1071.74,-139.289 1076.6,-138.322 1081.42,-137.207"/>
<polygon fill="black" stroke="black" points="1082.35,-140.581 1091.19,-134.745 1080.64,-133.793 1082.35,-140.581"/>
</a>
</g>
<!-- http://cds.omdoc.org/urtheories?LF -->
<g id="node18" class="node"><title>http://cds.omdoc.org/urtheories?LF</title>
<a xlink:href="javascript:parent.navigate(&#39;http://cds.omdoc.org/urtheories?LF&#39;)" xlink:title="theory http://cds.omdoc.org/urtheories?LF">
<ellipse fill="gray" stroke="black" cx="879.04" cy="-372" rx="27" ry="18"/>
<text text-anchor="middle" x="879.04" y="-368.3" font-family="Times New Roman,serif" font-size="14.00">LF</text>
</a>
</g>
<!-- http://cds.omdoc.org/urtheories?LF&#45;&gt;http://latin.omdoc.org/type_theories?LambdaOmega -->
<g id="edge17" class="edge"><title>http://cds.omdoc.org/urtheories?LF&#45;&gt;http://latin.omdoc.org/type_theories?LambdaOmega</title>
<a xlink:title="meta">
<path fill="none" stroke="green" d="M851.726,-370.908C710.628,-370.305 69.7343,-365.918 41.0398,-336 -13.7205,-278.905 -13.632,-215.18 41.0398,-158 65.0997,-132.836 553.008,-125.519 744.681,-123.611"/>
<polygon fill="green" stroke="green" points="744.99,-127.109 754.955,-123.511 744.921,-120.109 744.99,-127.109"/>
</a>
</g>
<!-- http://cds.omdoc.org/urtheories?LF&#45;&gt;http://latin.omdoc.org/type_theories?LambdaOmega_ -->
<g id="edge25" class="edge"><title>http://cds.omdoc.org/urtheories?LF&#45;&gt;http://latin.omdoc.org/type_theories?LambdaOmega_</title>
<a xlink:title="meta">
<path fill="none" stroke="green" d="M872.002,-354.393C869.66,-348.618 867.121,-342.067 865.04,-336 853.576,-302.581 842.679,-263.325 835.937,-237.847"/>
<polygon fill="green" stroke="green" points="839.317,-236.938 833.397,-228.152 832.546,-238.712 839.317,-236.938"/>
</a>
</g>
<!-- http://cds.omdoc.org/urtheories?LF&#45;&gt;http://latin.omdoc.org/type_theories?LambdaP2 -->
<g id="edge31" class="edge"><title>http://cds.omdoc.org/urtheories?LF&#45;&gt;http://latin.omdoc.org/type_theories?LambdaP2</title>
<a xlink:title="meta">
<path fill="none" stroke="green" d="M851.687,-370.893C723.451,-369.553 194.209,-354.266 344.04,-192 398.678,-132.827 987.637,-153.492 1067.04,-140 1071.54,-139.235 1076.19,-138.259 1080.82,-137.165"/>
<polygon fill="green" stroke="green" points="1082.01,-140.473 1090.84,-134.612 1080.28,-133.689 1082.01,-140.473"/>
</a>
</g>
<!-- http://cds.omdoc.org/urtheories?LF&#45;&gt;http://latin.omdoc.org/type_theories?LambdaArrow -->
<g id="edge39" class="edge"><title>http://cds.omdoc.org/urtheories?LF&#45;&gt;http://latin.omdoc.org/type_theories?LambdaArrow</title>
<a xlink:title="meta">
<path fill="none" stroke="green" d="M899.067,-359.908C918.645,-349.065 948.9,-332.308 972.724,-319.114"/>
<polygon fill="green" stroke="green" points="974.452,-322.158 981.504,-314.251 971.06,-316.034 974.452,-322.158"/>
</a>
</g>
<!-- http://cds.omdoc.org/urtheories?LF&#45;&gt;http://latin.omdoc.org/type_theories?Lambda2 -->
<g id="edge45" class="edge"><title>http://cds.omdoc.org/urtheories?LF&#45;&gt;http://latin.omdoc.org/type_theories?Lambda2</title>
<a xlink:title="meta">
<path fill="none" stroke="green" d="M877.905,-353.812C877.09,-327.878 879.137,-278.344 903.04,-246 909.052,-237.864 917.528,-231.437 926.408,-226.432"/>
<polygon fill="green" stroke="green" points="928.016,-229.541 935.346,-221.891 924.845,-223.301 928.016,-229.541"/>
</a>
</g>
<!-- http://cds.omdoc.org/urtheories?LF&#45;&gt;http://latin.omdoc.org/type_theories?LambdaP -->
<g id="edge53" class="edge"><title>http://cds.omdoc.org/urtheories?LF&#45;&gt;http://latin.omdoc.org/type_theories?LambdaP</title>
<a xlink:title="meta">
<path fill="none" stroke="green" d="M885.292,-354.452C893.789,-334.112 910.867,-299.86 936.04,-280 983.803,-242.317 1052.51,-225.024 1099.96,-217.212"/>
<polygon fill="green" stroke="green" points="1100.71,-220.639 1110.05,-215.641 1099.63,-213.722 1100.71,-220.639"/>
</a>
</g>
<!-- http://cds.omdoc.org/urtheories?LF&#45;&gt;http://latin.omdoc.org/type_theories?LambdaPOmega -->
<g id="edge59" class="edge"><title>http://cds.omdoc.org/urtheories?LF&#45;&gt;http://latin.omdoc.org/type_theories?LambdaPOmega</title>
<a xlink:title="meta">
<path fill="none" stroke="green" d="M906.287,-371.223C1038.63,-371.957 1608.04,-370.935 1608.04,-299 1608.04,-299 1608.04,-299 1608.04,-121 1608.04,-71.8906 1273.51,-47.5752 1116.56,-38.8698"/>
<polygon fill="green" stroke="green" points="1116.66,-35.3701 1106.48,-38.3188 1116.28,-42.3597 1116.66,-35.3701"/>
</a>
</g>
<!-- http://cds.omdoc.org/urtheories?LF&#45;&gt;http://latin.omdoc.org/type_theories?LambdaPOmega_ -->
<g id="edge65" class="edge"><title>http://cds.omdoc.org/urtheories?LF&#45;&gt;http://latin.omdoc.org/type_theories?LambdaPOmega_</title>
<a xlink:title="meta">
<path fill="none" stroke="green" d="M851.872,-371.416C740.519,-372.774 319.221,-374.416 198.04,-324 123.723,-293.081 23.2276,-254.427 74.0398,-192 121.031,-134.268 164.1,-166.607 238.04,-158 528.631,-124.173 605.295,-172.481 896.04,-140 903.402,-139.178 911.073,-138.053 918.67,-136.772"/>
<polygon fill="green" stroke="green" points="919.349,-140.206 928.581,-135.009 918.123,-133.314 919.349,-140.206"/>
</a>
</g>
<!-- http://cds.omdoc.org/urtheories?LF&#45;&gt;http://latin.omdoc.org/type_theories?PolyTypes -->
<g id="edge87" class="edge"><title>http://cds.omdoc.org/urtheories?LF&#45;&gt;http://latin.omdoc.org/type_theories?PolyTypes</title>
<a xlink:title="meta">
<path fill="none" stroke="green" d="M851.961,-371.363C769.415,-372.04 513.913,-370.951 306.04,-336 286.473,-332.71 280.51,-333.405 263.04,-324 219.61,-300.62 178.179,-260.46 154.199,-234.847"/>
<polygon fill="green" stroke="green" points="156.686,-232.381 147.335,-227.4 151.539,-237.125 156.686,-232.381"/>
</a>
</g>
<!-- http://latin.omdoc.org/type_theories?SimpKinds -->
<g id="node23" class="node"><title>http://latin.omdoc.org/type_theories?SimpKinds</title>
<a xlink:href="javascript:parent.navigate(&#39;http://latin.omdoc.org/type_theories?SimpKinds&#39;)" xlink:title="theory http://latin.omdoc.org/type_theories?SimpKinds">
<ellipse fill="gray" stroke="black" cx="663.04" cy="-298" rx="51.0191" ry="18"/>
<text text-anchor="middle" x="663.04" y="-294.3" font-family="Times New Roman,serif" font-size="14.00">SimpKinds</text>
</a>
</g>
<!-- http://cds.omdoc.org/urtheories?LF&#45;&gt;http://latin.omdoc.org/type_theories?SimpKinds -->
<g id="edge79" class="edge"><title>http://cds.omdoc.org/urtheories?LF&#45;&gt;http://latin.omdoc.org/type_theories?SimpKinds</title>
<a xlink:title="meta">
<path fill="none" stroke="green" d="M855.513,-363.158C820.369,-351.443 753.498,-329.153 708.584,-314.181"/>
<polygon fill="green" stroke="green" points="709.666,-310.853 699.073,-311.011 707.453,-317.494 709.666,-310.853"/>
</a>
</g>
<!-- http://latin.omdoc.org/type_theories?SimpTypes -->
<g id="node33" class="node"><title>http://latin.omdoc.org/type_theories?SimpTypes</title>
<a xlink:href="javascript:parent.navigate(&#39;http://latin.omdoc.org/type_theories?SimpTypes&#39;)" xlink:title="theory http://latin.omdoc.org/type_theories?SimpTypes">
<ellipse fill="gray" stroke="black" cx="1727.04" cy="-298" rx="52.4675" ry="18"/>
<text text-anchor="middle" x="1727.04" y="-294.3" font-family="Times New Roman,serif" font-size="14.00">SimpTypes</text>
</a>
</g>
<!-- http://cds.omdoc.org/urtheories?LF&#45;&gt;http://latin.omdoc.org/type_theories?SimpTypes -->
<g id="edge91" class="edge"><title>http://cds.omdoc.org/urtheories?LF&#45;&gt;http://latin.omdoc.org/type_theories?SimpTypes</title>
<a xlink:title="meta">
<path fill="none" stroke="green" d="M906.089,-370.52C1035.28,-368.127 1586.31,-356.776 1660.04,-336 1672.63,-332.452 1685.44,-326.162 1696.45,-319.763"/>
<polygon fill="green" stroke="green" points="1698.5,-322.611 1705.22,-314.42 1694.86,-316.632 1698.5,-322.611"/>
</a>
</g>
<!-- http://latin.omdoc.org/type_theories?UnivTypes -->
<g id="node37" class="node"><title>http://latin.omdoc.org/type_theories?UnivTypes</title>
<a xlink:href="javascript:parent.navigate(&#39;http://latin.omdoc.org/type_theories?UnivTypes&#39;)" xlink:title="theory http://latin.omdoc.org/type_theories?UnivTypes">
<ellipse fill="gray" stroke="black" cx="493.04" cy="-298" rx="50.5427" ry="18"/>
<text text-anchor="middle" x="493.04" y="-294.3" font-family="Times New Roman,serif" font-size="14.00">UnivTypes</text>
</a>
</g>
<!-- http://cds.omdoc.org/urtheories?LF&#45;&gt;http://latin.omdoc.org/type_theories?UnivTypes -->
<g id="edge83" class="edge"><title>http://cds.omdoc.org/urtheories?LF&#45;&gt;http://latin.omdoc.org/type_theories?UnivTypes</title>
<a xlink:title="meta">
<path fill="none" stroke="green" d="M852.694,-367.006C803.488,-359.438 694.338,-342.134 603.04,-324 583.501,-320.119 562.122,-315.375 543.451,-311.067"/>
<polygon fill="green" stroke="green" points="544.206,-307.649 533.673,-308.794 542.621,-314.467 544.206,-307.649"/>
</a>
</g>
<!-- http://cds.omdoc.org/urtheories?LF&#45;&gt;http://latin.omdoc.org/logics/syntax?LambdaPHOL -->
<g id="edge85" class="edge"><title>http://cds.omdoc.org/urtheories?LF&#45;&gt;http://latin.omdoc.org/logics/syntax?LambdaPHOL</title>
<a xlink:title="meta">
<path fill="none" stroke="green" d="M906.174,-370.478C990.3,-368.494 1245.49,-359.614 1319.04,-324 1402.35,-283.659 1470.24,-192.948 1499.91,-148.511"/>
<polygon fill="green" stroke="green" points="1502.93,-150.296 1505.49,-140.017 1497.08,-146.453 1502.93,-150.296"/>
</a>
</g>
<!-- http://latin.omdoc.org/type_theories?DepTypes -->
<g id="node42" class="node"><title>http://latin.omdoc.org/type_theories?DepTypes</title>
<a xlink:href="javascript:parent.navigate(&#39;http://latin.omdoc.org/type_theories?DepTypes&#39;)" xlink:title="theory http://latin.omdoc.org/type_theories?DepTypes">
<ellipse fill="gray" stroke="black" cx="1685.04" cy="-210" rx="48.6179" ry="18"/>
<text text-anchor="middle" x="1685.04" y="-206.3" font-family="Times New Roman,serif" font-size="14.00">DepTypes</text>
</a>
</g>
<!-- http://cds.omdoc.org/urtheories?LF&#45;&gt;http://latin.omdoc.org/type_theories?DepTypes -->
<g id="edge77" class="edge"><title>http://cds.omdoc.org/urtheories?LF&#45;&gt;http://latin.omdoc.org/type_theories?DepTypes</title>
<a xlink:title="meta">
<path fill="none" stroke="green" d="M906.406,-371.324C1033.33,-372.612 1561.1,-375.535 1622.04,-336 1639.78,-324.493 1662.51,-270.881 1675.25,-237.717"/>
<polygon fill="green" stroke="green" points="1678.6,-238.742 1678.87,-228.15 1672.06,-236.266 1678.6,-238.742"/>
</a>
</g>
<!-- http://latin.omdoc.org/type_theories?DepKinds -->
<g id="node44" class="node"><title>http://latin.omdoc.org/type_theories?DepKinds</title>
<a xlink:href="javascript:parent.navigate(&#39;http://latin.omdoc.org/type_theories?DepKinds&#39;)" xlink:title="theory http://latin.omdoc.org/type_theories?DepKinds">
<ellipse fill="gray" stroke="black" cx="1263.04" cy="-298" rx="47.169" ry="18"/>
<text text-anchor="middle" x="1263.04" y="-294.3" font-family="Times New Roman,serif" font-size="14.00">DepKinds</text>
</a>
</g>
<!-- http://cds.omdoc.org/urtheories?LF&#45;&gt;http://latin.omdoc.org/type_theories?DepKinds -->
<g id="edge81" class="edge"><title>http://cds.omdoc.org/urtheories?LF&#45;&gt;http://latin.omdoc.org/type_theories?DepKinds</title>
<a xlink:title="meta">
<path fill="none" stroke="green" d="M905.991,-370.063C963.464,-367.447 1101.81,-357.856 1212.04,-324 1217.46,-322.335 1223.02,-320.157 1228.38,-317.78"/>
<polygon fill="green" stroke="green" points="1230.2,-320.792 1237.74,-313.355 1227.21,-314.463 1230.2,-320.792"/>
</a>
</g>
<!-- http://latin.omdoc.org/type_theories?TypeOper -->
<g id="node50" class="node"><title>http://latin.omdoc.org/type_theories?TypeOper</title>
<a xlink:href="javascript:parent.navigate(&#39;http://latin.omdoc.org/type_theories?TypeOper&#39;)" xlink:title="theory http://latin.omdoc.org/type_theories?TypeOper">
<ellipse fill="gray" stroke="black" cx="249.04" cy="-210" rx="48.1437" ry="18"/>
<text text-anchor="middle" x="249.04" y="-206.3" font-family="Times New Roman,serif" font-size="14.00">TypeOper</text>
</a>
</g>
<!-- http://cds.omdoc.org/urtheories?LF&#45;&gt;http://latin.omdoc.org/type_theories?TypeOper -->
<g id="edge89" class="edge"><title>http://cds.omdoc.org/urtheories?LF&#45;&gt;http://latin.omdoc.org/type_theories?TypeOper</title>
<a xlink:title="meta">
<path fill="none" stroke="green" d="M852.022,-370.739C745.511,-369.52 358.202,-363.237 311.04,-336 275.95,-315.735 260.245,-268.582 253.575,-238.333"/>
<polygon fill="green" stroke="green" points="256.982,-237.522 251.575,-228.41 250.12,-238.904 256.982,-237.522"/>
</a>
</g>
<!-- http://latin.omdoc.org/type_theories?SimpKinds&#45;&gt;http://latin.omdoc.org/type_theories?LambdaOmega_ -->
<g id="edge23" class="edge"><title>http://latin.omdoc.org/type_theories?SimpKinds&#45;&gt;http://latin.omdoc.org/type_theories?LambdaOmega_</title>
<a xlink:title="include">
<path fill="none" stroke="black" d="M690.451,-282.799C717.657,-268.704 759.611,-246.969 790.233,-231.105"/>
<polygon fill="black" stroke="black" points="792.075,-234.092 799.344,-226.384 788.855,-227.877 792.075,-234.092"/>
</a>
</g>
<!-- http://latin.omdoc.org/type_theories?SimpKinds&#45;&gt;http://latin.omdoc.org/type_theories?LambdaOmega_ToPOmega_ -->
<g id="edge75" class="edge"><title>http://latin.omdoc.org/type_theories?SimpKinds&#45;&gt;http://latin.omdoc.org/type_theories?LambdaOmega_ToPOmega_</title>
<a xlink:title="include">
<path fill="none" stroke="black" d="M654.742,-280.009C648.798,-267.839 640.68,-251.215 633.901,-237.334"/>
<polygon fill="black" stroke="black" points="636.998,-235.7 629.464,-228.25 630.708,-238.772 636.998,-235.7"/>
</a>
</g>
<!-- http://latin.omdoc.org/type_theories?SimpKinds&#45;&gt;http://latin.omdoc.org/type_theories?TypeOper -->
<g id="edge73" class="edge"><title>http://latin.omdoc.org/type_theories?SimpKinds&#45;&gt;http://latin.omdoc.org/type_theories?TypeOper</title>
<a xlink:href="javascript:parent.navigate(&#39;http://latin.omdoc.org/type_theories?SimpToOper&#39;)" xlink:title="view http://latin.omdoc.org/type_theories?SimpToOper">
<path fill="none" stroke="blue" stroke-dasharray="5,2" d="M619.703,-289.019C542.664,-273.016 381.806,-239.601 299.588,-222.522"/>
<path fill="none" stroke="blue" stroke-dasharray="5,2" d="M620.11,-287.061C543.071,-271.058 382.213,-237.643 299.995,-220.564"/>
<polygon fill="blue" stroke="blue" points="300.429,-218.1 289.926,-219.493 299.005,-224.954 300.429,-218.1"/>
</a>
<a xlink:href="javascript:parent.navigate(&#39;http://latin.omdoc.org/type_theories?SimpToOper&#39;)" xlink:title="SimpToOper">
<text text-anchor="middle" x="531.54" y="-250.3" font-family="Times New Roman,serif" font-size="14.00">SimpToOper</text>
</a>
</g>
<!-- http://latin.omdoc.org/type_theories?SimpTypes&#45;&gt;http://latin.omdoc.org/type_theories?LambdaArrow -->
<g id="edge37" class="edge"><title>http://latin.omdoc.org/type_theories?SimpTypes&#45;&gt;http://latin.omdoc.org/type_theories?LambdaArrow</title>
<a xlink:title="include">
<path fill="none" stroke="black" d="M1678.27,-304.977C1548.55,-322.921 1197.25,-367.337 1085.04,-339 1069.8,-335.153 1054.31,-327.583 1041.31,-319.984"/>
<polygon fill="black" stroke="black" points="1043.11,-316.981 1032.75,-314.764 1039.47,-322.958 1043.11,-316.981"/>
</a>
</g>
<!-- http://latin.omdoc.org/type_theories?SimpTypes&#45;&gt;http://latin.omdoc.org/type_theories?DepTypes -->
<g id="edge71" class="edge"><title>http://latin.omdoc.org/type_theories?SimpTypes&#45;&gt;http://latin.omdoc.org/type_theories?DepTypes</title>
<a xlink:href="javascript:parent.navigate(&#39;http://latin.omdoc.org/type_theories?SimpToDep&#39;)" xlink:title="view http://latin.omdoc.org/type_theories?SimpToDep">
<path fill="none" stroke="blue" stroke-dasharray="5,2" d="M1717.84,-280.448C1711.86,-268.198 1703.68,-251.437 1696.87,-237.501"/>
<path fill="none" stroke="blue" stroke-dasharray="5,2" d="M1719.64,-279.57C1713.66,-267.32 1705.47,-250.559 1698.67,-236.623"/>
<polygon fill="blue" stroke="blue" points="1700.85,-235.405 1693.32,-227.956 1694.56,-238.477 1700.85,-235.405"/>
</a>
<a xlink:href="javascript:parent.navigate(&#39;http://latin.omdoc.org/type_theories?SimpToDep&#39;)" xlink:title="SimpToDep">
<text text-anchor="middle" x="1744.04" y="-250.3" font-family="Times New Roman,serif" font-size="14.00">SimpToDep</text>
</a>
</g>
<!-- http://latin.omdoc.org/type_theories?UnivTypes&#45;&gt;http://latin.omdoc.org/type_theories?Lambda2 -->
<g id="edge43" class="edge"><title>http://latin.omdoc.org/type_theories?UnivTypes&#45;&gt;http://latin.omdoc.org/type_theories?Lambda2</title>
<a xlink:title="include">
<path fill="none" stroke="black" d="M538.17,-289.807C638.336,-273.801 873.23,-236.016 909.04,-228 914.126,-226.861 919.421,-225.55 924.666,-224.171"/>
<polygon fill="black" stroke="black" points="925.894,-227.464 934.625,-221.463 924.057,-220.709 925.894,-227.464"/>
</a>
</g>
<!-- http://latin.omdoc.org/type_theories?UnivTypes&#45;&gt;http://latin.omdoc.org/type_theories?PolyTypes -->
<g id="edge67" class="edge"><title>http://latin.omdoc.org/type_theories?UnivTypes&#45;&gt;http://latin.omdoc.org/type_theories?PolyTypes</title>
<a xlink:href="javascript:parent.navigate(&#39;http://latin.omdoc.org/type_theories?UnivToPoly&#39;)" xlink:title="view http://latin.omdoc.org/type_theories?UnivToPoly">
<path fill="none" stroke="blue" stroke-dasharray="5,2" d="M450.281,-288.999C391.806,-276.483 283.44,-252.657 191.79,-228.968 187.943,-227.974 183.975,-226.911 179.99,-225.818"/>
<path fill="none" stroke="blue" stroke-dasharray="5,2" d="M450.7,-287.043C392.235,-274.53 283.87,-250.704 192.29,-227.032 188.461,-226.042 184.493,-224.979 180.519,-223.889"/>
<polygon fill="blue" stroke="blue" points="180.981,-221.423 170.408,-222.104 179.098,-228.165 180.981,-221.423"/>
</a>
<a xlink:href="javascript:parent.navigate(&#39;http://latin.omdoc.org/type_theories?UnivToPoly&#39;)" xlink:title="UnivToPoly">
<text text-anchor="middle" x="366.54" y="-250.3" font-family="Times New Roman,serif" font-size="14.00">UnivToPoly</text>
</a>
</g>
<!-- http://latin.omdoc.org/type_theories?UnivTypes&#45;&gt;http://latin.omdoc.org/type_theories?Lambda2ToP2 -->
<g id="edge69" class="edge"><title>http://latin.omdoc.org/type_theories?UnivTypes&#45;&gt;http://latin.omdoc.org/type_theories?Lambda2ToP2</title>
<a xlink:title="include">
<path fill="none" stroke="black" d="M478.772,-280.418C467.787,-267.652 452.436,-249.812 440.048,-235.415"/>
<polygon fill="black" stroke="black" points="442.692,-233.121 433.516,-227.824 437.386,-237.687 442.692,-233.121"/>
</a>
</g>
<!-- http://latin.omdoc.org/type_theories?DepTypes&#45;&gt;http://latin.omdoc.org/type_theories?LambdaP -->
<g id="edge49" class="edge"><title>http://latin.omdoc.org/type_theories?DepTypes&#45;&gt;http://latin.omdoc.org/type_theories?LambdaP</title>
<a xlink:title="include">
<path fill="none" stroke="black" d="M1636.27,-210C1494.32,-210 1352.36,-210 1210.41,-210"/>
<polygon fill="black" stroke="black" points="1210.19,-206.5 1200.19,-210 1210.19,-213.5 1210.19,-206.5"/>
</a>
</g>
<!-- http://latin.omdoc.org/type_theories?DepKinds&#45;&gt;http://latin.omdoc.org/type_theories?LambdaP -->
<g id="edge51" class="edge"><title>http://latin.omdoc.org/type_theories?DepKinds&#45;&gt;http://latin.omdoc.org/type_theories?LambdaP</title>
<a xlink:title="include">
<path fill="none" stroke="black" d="M1243.3,-281.426C1226.09,-267.849 1200.95,-248.011 1181.73,-232.848"/>
<polygon fill="black" stroke="black" points="1183.65,-229.904 1173.63,-226.458 1179.31,-235.4 1183.65,-229.904"/>
</a>
</g>
<!-- http://latin.omdoc.org/type_theories?TypeOper&#45;&gt;http://latin.omdoc.org/type_theories?LambdaPOmega_ -->
<g id="edge61" class="edge"><title>http://latin.omdoc.org/type_theories?TypeOper&#45;&gt;http://latin.omdoc.org/type_theories?LambdaPOmega_</title>
<a xlink:title="include">
<path fill="none" stroke="black" d="M263.47,-192.311C274.984,-180.316 292.253,-165.062 311.04,-158 371.912,-135.118 831.424,-147.33 896.04,-140 903.4,-139.165 911.071,-138.033 918.667,-136.747"/>
<polygon fill="black" stroke="black" points="919.348,-140.181 928.578,-134.98 918.119,-133.29 919.348,-140.181"/>
</a>
</g>
</g>
</svg>
