<?xml version="1.0" encoding="UTF-8" standalone="no"?>
<!DOCTYPE svg PUBLIC "-//W3C//DTD SVG 1.1//EN"
 "http://www.w3.org/Graphics/SVG/1.1/DTD/svg11.dtd">
<!-- Generated by graphviz version 2.28.0 (20110507.0327)
 -->
<!-- Title: MMT Pages: 1 -->
<svg width="744pt" height="296pt"
 viewBox="0.00 0.00 743.98 296.00" xmlns="http://www.w3.org/2000/svg" xmlns:xlink="http://www.w3.org/1999/xlink">
<g id="graph1" class="graph" transform="scale(1 1) rotate(0) translate(4 292)">
<title>MMT</title>
<polygon fill="white" stroke="white" points="-4,5 -4,-292 740.984,-292 740.984,5 -4,5"/>
<g id="graph2" class="cluster"><title>cluster_local</title>
<polygon fill="none" stroke="black" points="34.7959,-8 34.7959,-60 122.796,-60 122.796,-8 34.7959,-8"/>
</g>
<!-- http://latin.omdoc.org/type_theories?MLTT -->
<g id="node2" class="node"><title>http://latin.omdoc.org/type_theories?MLTT</title>
<a xlink:href="javascript:parent.navigate(&#39;http://latin.omdoc.org/type_theories?MLTT&#39;)" xlink:title="theory http://latin.omdoc.org/type_theories?MLTT">
<ellipse fill="none" stroke="black" cx="78.7959" cy="-34" rx="35.6194" ry="18"/>
<text text-anchor="middle" x="78.7959" y="-30.3" font-family="Times New Roman,serif" font-size="14.00">MLTT</text>
</a>
</g>
<!-- http://latin.omdoc.org/type_theories?STT -->
<g id="node3" class="node"><title>http://latin.omdoc.org/type_theories?STT</title>
<a xlink:href="javascript:parent.navigate(&#39;http://latin.omdoc.org/type_theories?STT&#39;)" xlink:title="theory http://latin.omdoc.org/type_theories?STT">
<ellipse fill="gray" stroke="black" cx="78.7959" cy="-122" rx="27.4223" ry="18"/>
<text text-anchor="middle" x="78.7959" y="-118.3" font-family="Times New Roman,serif" font-size="14.00">STT</text>
</a>
</g>
<!-- http://latin.omdoc.org/type_theories?STT&#45;&gt;http://latin.omdoc.org/type_theories?MLTT -->
<g id="edge3" class="edge"><title>http://latin.omdoc.org/type_theories?STT&#45;&gt;http://latin.omdoc.org/type_theories?MLTT</title>
<a xlink:href="javascript:parent.navigate(&#39;http://latin.omdoc.org/type_theories?STT-MLTT&#39;)" xlink:title="view http://latin.omdoc.org/type_theories?STT&#45;MLTT">
<path fill="none" stroke="blue" stroke-dasharray="5,2" d="M77.7959,-103.597C77.7959,-91.7459 77.7959,-75.8169 77.7959,-62.2917"/>
<path fill="none" stroke="blue" stroke-dasharray="5,2" d="M79.7959,-103.597C79.7959,-91.7459 79.7959,-75.8169 79.7959,-62.2917"/>
<polygon fill="blue" stroke="blue" points="82.296,-62.084 78.7959,-52.084 75.296,-62.084 82.296,-62.084"/>
</a>
<a xlink:href="javascript:parent.navigate(&#39;http://latin.omdoc.org/type_theories?STT-MLTT&#39;)" xlink:title="STT&#45;MLTT">
<text text-anchor="middle" x="113.796" y="-74.3" font-family="Times New Roman,serif" font-size="14.00">STT&#45;MLTT</text>
</a>
</g>
<!-- http://latin.omdoc.org/type_theories?VOID -->
<g id="node5" class="node"><title>http://latin.omdoc.org/type_theories?VOID</title>
<a xlink:href="javascript:parent.navigate(&#39;http://latin.omdoc.org/type_theories?VOID&#39;)" xlink:title="theory http://latin.omdoc.org/type_theories?VOID">
<ellipse fill="gray" stroke="black" cx="48.7959" cy="-196" rx="33.2209" ry="18"/>
<text text-anchor="middle" x="48.7959" y="-192.3" font-family="Times New Roman,serif" font-size="14.00">VOID</text>
</a>
</g>
<!-- http://latin.omdoc.org/type_theories?VOID&#45;&gt;http://latin.omdoc.org/type_theories?MLTT -->
<g id="edge5" class="edge"><title>http://latin.omdoc.org/type_theories?VOID&#45;&gt;http://latin.omdoc.org/type_theories?MLTT</title>
<a xlink:title="include">
<path fill="none" stroke="black" d="M69.3268,-181.864C94.981,-163.932 137.066,-129.047 149.796,-86 151.813,-79.1808 153.551,-76.0385 149.796,-70 142.923,-58.9502 131.422,-51.2862 119.655,-46.0151"/>
<polygon fill="black" stroke="black" points="120.831,-42.7163 110.245,-42.2818 118.25,-49.223 120.831,-42.7163"/>
</a>
</g>
<!-- http://latin.omdoc.org/type_theories?IDENT -->
<g id="node7" class="node"><title>http://latin.omdoc.org/type_theories?IDENT</title>
<a xlink:href="javascript:parent.navigate(&#39;http://latin.omdoc.org/type_theories?IDENT&#39;)" xlink:title="theory http://latin.omdoc.org/type_theories?IDENT">
<ellipse fill="gray" stroke="black" cx="137.796" cy="-196" rx="37.5442" ry="18"/>
<text text-anchor="middle" x="137.796" y="-192.3" font-family="Times New Roman,serif" font-size="14.00">IDENT</text>
</a>
</g>
<!-- http://latin.omdoc.org/type_theories?IDENT&#45;&gt;http://latin.omdoc.org/type_theories?MLTT -->
<g id="edge7" class="edge"><title>http://latin.omdoc.org/type_theories?IDENT&#45;&gt;http://latin.omdoc.org/type_theories?MLTT</title>
<a xlink:title="include">
<path fill="none" stroke="black" d="M148.885,-178.53C164.481,-153.108 188.579,-103.723 165.796,-70 155.984,-55.4767 139.039,-46.9787 122.695,-42.0069"/>
<polygon fill="black" stroke="black" points="123.229,-38.5274 112.666,-39.3445 121.433,-45.2931 123.229,-38.5274"/>
</a>
</g>
<!-- http://latin.omdoc.org/type_theories?DepTypes -->
<g id="node9" class="node"><title>http://latin.omdoc.org/type_theories?DepTypes</title>
<a xlink:href="javascript:parent.navigate(&#39;http://latin.omdoc.org/type_theories?DepTypes&#39;)" xlink:title="theory http://latin.omdoc.org/type_theories?DepTypes">
<ellipse fill="gray" stroke="black" cx="303.796" cy="-122" rx="48.6179" ry="18"/>
<text text-anchor="middle" x="303.796" y="-118.3" font-family="Times New Roman,serif" font-size="14.00">DepTypes</text>
</a>
</g>
<!-- http://latin.omdoc.org/type_theories?DepTypes&#45;&gt;http://latin.omdoc.org/type_theories?MLTT -->
<g id="edge9" class="edge"><title>http://latin.omdoc.org/type_theories?DepTypes&#45;&gt;http://latin.omdoc.org/type_theories?MLTT</title>
<a xlink:title="include">
<path fill="none" stroke="black" d="M288.165,-104.802C276.231,-93.3789 258.818,-78.6313 240.796,-70 203.519,-52.1472 157.072,-43.3097 123.481,-38.9911"/>
<polygon fill="black" stroke="black" points="123.839,-35.5091 113.493,-37.791 123.004,-42.4591 123.839,-35.5091"/>
</a>
</g>
<!-- http://latin.omdoc.org/type_theories?DUNION -->
<g id="node11" class="node"><title>http://latin.omdoc.org/type_theories?DUNION</title>
<a xlink:href="javascript:parent.navigate(&#39;http://latin.omdoc.org/type_theories?DUNION&#39;)" xlink:title="theory http://latin.omdoc.org/type_theories?DUNION">
<ellipse fill="gray" stroke="black" cx="491.796" cy="-196" rx="46.2191" ry="18"/>
<text text-anchor="middle" x="491.796" y="-192.3" font-family="Times New Roman,serif" font-size="14.00">DUNION</text>
</a>
</g>
<!-- http://latin.omdoc.org/type_theories?DUNION&#45;&gt;http://latin.omdoc.org/type_theories?MLTT -->
<g id="edge11" class="edge"><title>http://latin.omdoc.org/type_theories?DUNION&#45;&gt;http://latin.omdoc.org/type_theories?MLTT</title>
<a xlink:title="include">
<path fill="none" stroke="black" d="M493.599,-177.667C494.696,-157.18 493.09,-123.424 473.796,-104 425.495,-55.372 217.799,-40.7283 124.493,-36.559"/>
<polygon fill="black" stroke="black" points="124.371,-33.0507 114.231,-36.1223 124.073,-40.0444 124.371,-33.0507"/>
</a>
</g>
<!-- http://latin.omdoc.org/type_theories?UNIT -->
<g id="node13" class="node"><title>http://latin.omdoc.org/type_theories?UNIT</title>
<a xlink:href="javascript:parent.navigate(&#39;http://latin.omdoc.org/type_theories?UNIT&#39;)" xlink:title="theory http://latin.omdoc.org/type_theories?UNIT">
<ellipse fill="gray" stroke="black" cx="588.796" cy="-196" rx="32.2457" ry="18"/>
<text text-anchor="middle" x="588.796" y="-192.3" font-family="Times New Roman,serif" font-size="14.00">UNIT</text>
</a>
</g>
<!-- http://latin.omdoc.org/type_theories?UNIT&#45;&gt;http://latin.omdoc.org/type_theories?MLTT -->
<g id="edge13" class="edge"><title>http://latin.omdoc.org/type_theories?UNIT&#45;&gt;http://latin.omdoc.org/type_theories?MLTT</title>
<a xlink:title="include">
<path fill="none" stroke="black" d="M576.759,-179.222C553.531,-150.322 499.265,-90.0192 436.796,-70 379.694,-51.7009 206.809,-41.1607 123.981,-37.036"/>
<polygon fill="black" stroke="black" points="124.023,-33.5339 113.864,-36.5418 123.681,-40.5256 124.023,-33.5339"/>
</a>
</g>
<!-- http://latin.omdoc.org/type_theories?SIGMA -->
<g id="node15" class="node"><title>http://latin.omdoc.org/type_theories?SIGMA</title>
<a xlink:href="javascript:parent.navigate(&#39;http://latin.omdoc.org/type_theories?SIGMA&#39;)" xlink:title="theory http://latin.omdoc.org/type_theories?SIGMA">
<ellipse fill="gray" stroke="black" cx="679.796" cy="-196" rx="39.9464" ry="18"/>
<text text-anchor="middle" x="679.796" y="-192.3" font-family="Times New Roman,serif" font-size="14.00">SIGMA</text>
</a>
</g>
<!-- http://latin.omdoc.org/type_theories?SIGMA&#45;&gt;http://latin.omdoc.org/type_theories?MLTT -->
<g id="edge15" class="edge"><title>http://latin.omdoc.org/type_theories?SIGMA&#45;&gt;http://latin.omdoc.org/type_theories?MLTT</title>
<a xlink:title="include">
<path fill="none" stroke="black" d="M658.064,-180.492C630.03,-161.98 579.542,-129.326 534.796,-104 505.735,-87.5522 499.891,-79.2175 467.796,-70 404.386,-51.7891 212.618,-41.0408 124.264,-36.9321"/>
<polygon fill="black" stroke="black" points="124.166,-33.4241 114.017,-36.4639 123.847,-40.4168 124.166,-33.4241"/>
</a>
</g>
<!-- http://latin.omdoc.org/type_theories?KindsTypesTerms -->
<g id="node17" class="node"><title>http://latin.omdoc.org/type_theories?KindsTypesTerms</title>
<a xlink:href="javascript:parent.navigate(&#39;http://latin.omdoc.org/type_theories?KindsTypesTerms&#39;)" xlink:title="theory http://latin.omdoc.org/type_theories?KindsTypesTerms">
<ellipse fill="gray" stroke="black" cx="310.796" cy="-196" rx="78.4642" ry="18"/>
<text text-anchor="middle" x="310.796" y="-192.3" font-family="Times New Roman,serif" font-size="14.00">KindsTypesTerms</text>
</a>
</g>
<!-- http://latin.omdoc.org/type_theories?KindsTypesTerms&#45;&gt;http://latin.omdoc.org/type_theories?MLTT -->
<g id="edge17" class="edge"><title>http://latin.omdoc.org/type_theories?KindsTypesTerms&#45;&gt;http://latin.omdoc.org/type_theories?MLTT</title>
<a xlink:title="include">
<path fill="none" stroke="black" d="M289.935,-178.629C276.849,-168.052 259.854,-153.744 245.796,-140 216.078,-110.947 218.471,-92.9091 183.796,-70 165.006,-57.5862 141.414,-49.2031 121.354,-43.7619"/>
<polygon fill="black" stroke="black" points="122.085,-40.3362 111.53,-41.2507 120.352,-47.1182 122.085,-40.3362"/>
</a>
</g>
<!-- http://latin.omdoc.org/type_theories?KindsTypesTerms&#45;&gt;http://latin.omdoc.org/type_theories?DepTypes -->
<g id="edge41" class="edge"><title>http://latin.omdoc.org/type_theories?KindsTypesTerms&#45;&gt;http://latin.omdoc.org/type_theories?DepTypes</title>
<a xlink:title="include">
<path fill="none" stroke="black" d="M309.137,-177.937C308.338,-169.719 307.36,-159.66 306.46,-150.406"/>
<polygon fill="black" stroke="black" points="309.943,-150.055 305.491,-140.441 302.976,-150.732 309.943,-150.055"/>
</a>
</g>
<!-- http://latin.omdoc.org/type_theories?DepKinds -->
<g id="node19" class="node"><title>http://latin.omdoc.org/type_theories?DepKinds</title>
<a xlink:href="javascript:parent.navigate(&#39;http://latin.omdoc.org/type_theories?DepKinds&#39;)" xlink:title="theory http://latin.omdoc.org/type_theories?DepKinds">
<ellipse fill="gray" stroke="black" cx="417.796" cy="-122" rx="47.169" ry="18"/>
<text text-anchor="middle" x="417.796" y="-118.3" font-family="Times New Roman,serif" font-size="14.00">DepKinds</text>
</a>
</g>
<!-- http://latin.omdoc.org/type_theories?KindsTypesTerms&#45;&gt;http://latin.omdoc.org/type_theories?DepKinds -->
<g id="edge43" class="edge"><title>http://latin.omdoc.org/type_theories?KindsTypesTerms&#45;&gt;http://latin.omdoc.org/type_theories?DepKinds</title>
<a xlink:title="include">
<path fill="none" stroke="black" d="M334.809,-178.842C350.235,-168.462 370.417,-154.881 387.016,-143.712"/>
<polygon fill="black" stroke="black" points="388.983,-146.607 395.325,-138.12 385.075,-140.799 388.983,-146.607"/>
</a>
</g>
<!-- http://latin.omdoc.org/type_theories?DepKinds&#45;&gt;http://latin.omdoc.org/type_theories?MLTT -->
<g id="edge19" class="edge"><title>http://latin.omdoc.org/type_theories?DepKinds&#45;&gt;http://latin.omdoc.org/type_theories?MLTT</title>
<a xlink:title="include">
<path fill="none" stroke="black" d="M385.728,-108.588C355.633,-97.3018 309.18,-80.8065 267.796,-70 218.804,-57.2069 161.491,-47.2833 122.932,-41.3219"/>
<polygon fill="black" stroke="black" points="122.989,-37.7904 112.577,-39.7465 121.937,-44.7108 122.989,-37.7904"/>
</a>
</g>
<!-- http://cds.omdoc.org/urtheories?LF -->
<g id="node21" class="node"><title>http://cds.omdoc.org/urtheories?LF</title>
<a xlink:href="javascript:parent.navigate(&#39;http://cds.omdoc.org/urtheories?LF&#39;)" xlink:title="theory http://cds.omdoc.org/urtheories?LF">
<ellipse fill="gray" stroke="black" cx="384.796" cy="-270" rx="27" ry="18"/>
<text text-anchor="middle" x="384.796" y="-266.3" font-family="Times New Roman,serif" font-size="14.00">LF</text>
</a>
</g>
<!-- http://cds.omdoc.org/urtheories?LF&#45;&gt;http://latin.omdoc.org/type_theories?MLTT -->
<g id="edge21" class="edge"><title>http://cds.omdoc.org/urtheories?LF&#45;&gt;http://latin.omdoc.org/type_theories?MLTT</title>
<a xlink:title="meta">
<path fill="none" stroke="green" d="M411.97,-268.975C485.912,-268.271 687.932,-261.917 728.796,-214 739.178,-201.826 737.262,-191.577 728.796,-178 689.251,-114.582 645.624,-135.384 577.796,-104 543.475,-88.1196 536.465,-79.2463 499.796,-70 429.621,-52.3052 217.444,-41.0921 123.91,-36.8831"/>
<polygon fill="green" stroke="green" points="124.05,-33.386 113.905,-36.4393 123.74,-40.3791 124.05,-33.386"/>
</a>
</g>
<!-- http://cds.omdoc.org/urtheories?LF&#45;&gt;http://latin.omdoc.org/type_theories?STT -->
<g id="edge29" class="edge"><title>http://cds.omdoc.org/urtheories?LF&#45;&gt;http://latin.omdoc.org/type_theories?STT</title>
<a xlink:title="meta">
<path fill="none" stroke="green" d="M357.545,-269.408C278.601,-269.951 52.459,-266.788 6.79586,-214 -3.6717,-201.899 -0.296309,-192.342 6.79586,-178 15.422,-160.556 32.5266,-147.127 47.9,-137.906"/>
<polygon fill="green" stroke="green" points="49.6784,-140.921 56.6744,-132.965 46.2436,-134.822 49.6784,-140.921"/>
</a>
</g>
<!-- http://cds.omdoc.org/urtheories?LF&#45;&gt;http://latin.omdoc.org/type_theories?VOID -->
<g id="edge23" class="edge"><title>http://cds.omdoc.org/urtheories?LF&#45;&gt;http://latin.omdoc.org/type_theories?VOID</title>
<a xlink:title="meta">
<path fill="none" stroke="green" d="M358.353,-266.112C306.26,-259.974 187.055,-243.706 90.7959,-214 88.3624,-213.249 85.8727,-212.416 83.3799,-211.534"/>
<polygon fill="green" stroke="green" points="84.4546,-208.199 73.8625,-207.957 81.9919,-214.751 84.4546,-208.199"/>
</a>
</g>
<!-- http://cds.omdoc.org/urtheories?LF&#45;&gt;http://latin.omdoc.org/type_theories?IDENT -->
<g id="edge33" class="edge"><title>http://cds.omdoc.org/urtheories?LF&#45;&gt;http://latin.omdoc.org/type_theories?IDENT</title>
<a xlink:title="meta">
<path fill="none" stroke="green" d="M357.887,-267.882C319.274,-265.467 246.551,-257.863 189.796,-234 180.396,-230.048 171.034,-224.155 162.898,-218.229"/>
<polygon fill="green" stroke="green" points="164.981,-215.416 154.912,-212.12 160.728,-220.976 164.981,-215.416"/>
</a>
</g>
<!-- http://cds.omdoc.org/urtheories?LF&#45;&gt;http://latin.omdoc.org/type_theories?DepTypes -->
<g id="edge25" class="edge"><title>http://cds.omdoc.org/urtheories?LF&#45;&gt;http://latin.omdoc.org/type_theories?DepTypes</title>
<a xlink:title="meta">
<path fill="none" stroke="green" d="M357.735,-268.779C320.254,-266.833 253.676,-257.096 222.796,-214 213.477,-200.994 215.306,-192.139 222.796,-178 231.443,-161.677 247.345,-149.301 262.784,-140.463"/>
<polygon fill="green" stroke="green" points="264.592,-143.465 271.762,-135.665 261.293,-137.291 264.592,-143.465"/>
</a>
</g>
<!-- http://cds.omdoc.org/urtheories?LF&#45;&gt;http://latin.omdoc.org/type_theories?DUNION -->
<g id="edge35" class="edge"><title>http://cds.omdoc.org/urtheories?LF&#45;&gt;http://latin.omdoc.org/type_theories?DUNION</title>
<a xlink:title="meta">
<path fill="none" stroke="green" d="M403.434,-256.459C419.354,-245.746 442.569,-230.124 461.209,-217.582"/>
<polygon fill="green" stroke="green" points="463.331,-220.372 469.674,-211.886 459.424,-214.565 463.331,-220.372"/>
</a>
</g>
<!-- http://cds.omdoc.org/urtheories?LF&#45;&gt;http://latin.omdoc.org/type_theories?UNIT -->
<g id="edge27" class="edge"><title>http://cds.omdoc.org/urtheories?LF&#45;&gt;http://latin.omdoc.org/type_theories?UNIT</title>
<a xlink:title="meta">
<path fill="none" stroke="green" d="M408.555,-261.406C440.263,-251.164 498.076,-232.113 546.796,-214 549.183,-213.113 551.638,-212.178 554.106,-211.221"/>
<polygon fill="green" stroke="green" points="555.553,-214.413 563.568,-207.484 552.982,-207.902 555.553,-214.413"/>
</a>
</g>
<!-- http://cds.omdoc.org/urtheories?LF&#45;&gt;http://latin.omdoc.org/type_theories?SIGMA -->
<g id="edge39" class="edge"><title>http://cds.omdoc.org/urtheories?LF&#45;&gt;http://latin.omdoc.org/type_theories?SIGMA</title>
<a xlink:title="meta">
<path fill="none" stroke="green" d="M410.415,-264.187C455.248,-255.557 550.694,-236.257 629.796,-214 633.118,-213.065 636.544,-212.038 639.972,-210.965"/>
<polygon fill="green" stroke="green" points="641.116,-214.274 649.551,-207.862 638.959,-207.614 641.116,-214.274"/>
</a>
</g>
<!-- http://cds.omdoc.org/urtheories?LF&#45;&gt;http://latin.omdoc.org/type_theories?KindsTypesTerms -->
<g id="edge37" class="edge"><title>http://cds.omdoc.org/urtheories?LF&#45;&gt;http://latin.omdoc.org/type_theories?KindsTypesTerms</title>
<a xlink:title="meta">
<path fill="none" stroke="green" d="M370.176,-254.775C360.225,-245.093 346.814,-232.045 335.256,-220.799"/>
<polygon fill="green" stroke="green" points="337.59,-218.187 327.982,-213.722 332.709,-223.204 337.59,-218.187"/>
</a>
</g>
<!-- http://cds.omdoc.org/urtheories?LF&#45;&gt;http://latin.omdoc.org/type_theories?DepKinds -->
<g id="edge31" class="edge"><title>http://cds.omdoc.org/urtheories?LF&#45;&gt;http://latin.omdoc.org/type_theories?DepKinds</title>
<a xlink:title="meta">
<path fill="none" stroke="green" d="M388.847,-252.166C391.448,-241.287 394.872,-226.819 397.796,-214 402.697,-192.511 408.046,-168.117 411.979,-149.999"/>
<polygon fill="green" stroke="green" points="415.421,-150.64 414.116,-140.125 408.58,-149.158 415.421,-150.64"/>
</a>
</g>
</g>
</svg>
