<?xml version="1.0" encoding="UTF-8" standalone="no"?>
<!DOCTYPE svg PUBLIC "-//W3C//DTD SVG 1.1//EN"
 "http://www.w3.org/Graphics/SVG/1.1/DTD/svg11.dtd">
<!-- Generated by graphviz version 2.28.0 (20110507.0327)
 -->
<!-- Title: MMT Pages: 1 -->
<svg width="385pt" height="354pt"
 viewBox="0.00 0.00 385.00 354.00" xmlns="http://www.w3.org/2000/svg" xmlns:xlink="http://www.w3.org/1999/xlink">
<g id="graph1" class="graph" transform="scale(1 1) rotate(0) translate(4 350)">
<title>MMT</title>
<polygon fill="white" stroke="white" points="-4,5 -4,-350 382,-350 382,5 -4,5"/>
<g id="graph2" class="cluster"><title>cluster_local</title>
<polygon fill="none" stroke="black" points="131,-80 131,-132 203,-132 203,-80 131,-80"/>
</g>
<!-- http://latin.omdoc.org/type_theories?STT -->
<g id="node2" class="node"><title>http://latin.omdoc.org/type_theories?STT</title>
<a xlink:href="javascript:parent.navigate(&#39;http://latin.omdoc.org/type_theories?STT&#39;)" xlink:title="theory http://latin.omdoc.org/type_theories?STT">
<ellipse fill="none" stroke="black" cx="167" cy="-106" rx="27.4223" ry="18"/>
<text text-anchor="middle" x="167" y="-102.3" font-family="Times New Roman,serif" font-size="14.00">STT</text>
</a>
</g>
<!-- http://latin.omdoc.org/type_theories?MLTT -->
<g id="node3" class="node"><title>http://latin.omdoc.org/type_theories?MLTT</title>
<a xlink:href="javascript:parent.navigate(&#39;http://latin.omdoc.org/type_theories?MLTT&#39;)" xlink:title="theory http://latin.omdoc.org/type_theories?MLTT">
<ellipse fill="gray" stroke="black" cx="35" cy="-18" rx="35.6194" ry="18"/>
<text text-anchor="middle" x="35" y="-14.3" font-family="Times New Roman,serif" font-size="14.00">MLTT</text>
</a>
</g>
<!-- http://latin.omdoc.org/type_theories?STT&#45;&gt;http://latin.omdoc.org/type_theories?MLTT -->
<g id="edge3" class="edge"><title>http://latin.omdoc.org/type_theories?STT&#45;&gt;http://latin.omdoc.org/type_theories?MLTT</title>
<a xlink:href="javascript:parent.navigate(&#39;http://latin.omdoc.org/type_theories?STT-MLTT&#39;)" xlink:title="view http://latin.omdoc.org/type_theories?STT&#45;MLTT">
<path fill="none" stroke="blue" stroke-dasharray="5,2" d="M151.073,-91.4505C146.132,-87.4913 140.338,-83.5077 134.586,-80.9104 114.319,-70.9303 104.365,-82.01 82.5181,-70.8762 70.4786,-64.2115 59.8891,-53.7676 51.6202,-43.9507"/>
<path fill="none" stroke="blue" stroke-dasharray="5,2" d="M152.323,-89.8892C147.265,-85.8433 141.471,-81.8597 135.414,-79.0896 112.831,-69.5937 102.877,-80.6734 83.4819,-69.1238 71.883,-62.7875 61.2935,-52.3436 53.1503,-42.6628"/>
<polygon fill="blue" stroke="blue" points="55.0443,-41.0273 46.0781,-35.3831 49.5675,-45.3868 55.0443,-41.0273"/>
</a>
<a xlink:href="javascript:parent.navigate(&#39;http://latin.omdoc.org/type_theories?STT-MLTT&#39;)" xlink:title="STT&#45;MLTT">
<text text-anchor="middle" x="118" y="-58.3" font-family="Times New Roman,serif" font-size="14.00">STT&#45;MLTT</text>
</a>
</g>
<!-- http://latin.omdoc.org/foundations/zfc?TypedZF -->
<g id="node5" class="node"><title>http://latin.omdoc.org/foundations/zfc?TypedZF</title>
<a xlink:href="javascript:parent.navigate(&#39;http://latin.omdoc.org/foundations/zfc?TypedZF&#39;)" xlink:title="theory http://latin.omdoc.org/foundations/zfc?TypedZF">
<ellipse fill="gray" stroke="black" cx="150" cy="-18" rx="45.244" ry="18"/>
<text text-anchor="middle" x="150" y="-14.3" font-family="Times New Roman,serif" font-size="14.00">TypedZF</text>
</a>
</g>
<!-- http://latin.omdoc.org/type_theories?STT&#45;&gt;http://latin.omdoc.org/foundations/zfc?TypedZF -->
<g id="edge5" class="edge"><title>http://latin.omdoc.org/type_theories?STT&#45;&gt;http://latin.omdoc.org/foundations/zfc?TypedZF</title>
<a xlink:href="javascript:parent.navigate(&#39;http://latin.omdoc.org/translations/tt_zfc?STT&#39;)" xlink:title="view http://latin.omdoc.org/translations/tt_zfc?STT">
<path fill="none" stroke="blue" stroke-dasharray="5,2" d="M162.66,-88.2031C160.285,-76.1886 157.053,-59.8349 154.33,-46.063"/>
<path fill="none" stroke="blue" stroke-dasharray="5,2" d="M164.622,-87.8152C162.247,-75.8008 159.015,-59.4471 156.292,-45.6752"/>
<polygon fill="blue" stroke="blue" points="158.725,-45.087 153.352,-35.9555 151.857,-46.4445 158.725,-45.087"/>
</a>
<a xlink:href="javascript:parent.navigate(&#39;http://latin.omdoc.org/translations/tt_zfc?STT&#39;)" xlink:title="STT">
<text text-anchor="middle" x="174.5" y="-58.3" font-family="Times New Roman,serif" font-size="14.00">STT</text>
</a>
</g>
<!-- http://latin.omdoc.org/logics/syntax?STTHOL -->
<g id="node7" class="node"><title>http://latin.omdoc.org/logics/syntax?STTHOL</title>
<a xlink:href="javascript:parent.navigate(&#39;http://latin.omdoc.org/logics/syntax?STTHOL&#39;)" xlink:title="theory http://latin.omdoc.org/logics/syntax?STTHOL">
<ellipse fill="gray" stroke="black" cx="306" cy="-18" rx="46.2191" ry="18"/>
<text text-anchor="middle" x="306" y="-14.3" font-family="Times New Roman,serif" font-size="14.00">STTHOL</text>
</a>
</g>
<!-- http://latin.omdoc.org/type_theories?STT&#45;&gt;http://latin.omdoc.org/logics/syntax?STTHOL -->
<g id="edge7" class="edge"><title>http://latin.omdoc.org/type_theories?STT&#45;&gt;http://latin.omdoc.org/logics/syntax?STTHOL</title>
<a xlink:title="include">
<path fill="none" stroke="black" d="M186.327,-93.0421C208.846,-79.1096 246.412,-55.8672 273.454,-39.1365"/>
<polygon fill="black" stroke="black" points="275.522,-41.9729 282.184,-33.735 271.839,-36.0201 275.522,-41.9729"/>
</a>
</g>
<!-- http://latin.omdoc.org/type_theories?Product -->
<g id="node9" class="node"><title>http://latin.omdoc.org/type_theories?Product</title>
<a xlink:href="javascript:parent.navigate(&#39;http://latin.omdoc.org/type_theories?Product&#39;)" xlink:title="theory http://latin.omdoc.org/type_theories?Product">
<ellipse fill="gray" stroke="black" cx="147" cy="-180" rx="39.9464" ry="18"/>
<text text-anchor="middle" x="147" y="-176.3" font-family="Times New Roman,serif" font-size="14.00">Product</text>
</a>
</g>
<!-- http://latin.omdoc.org/type_theories?Product&#45;&gt;http://latin.omdoc.org/type_theories?STT -->
<g id="edge9" class="edge"><title>http://latin.omdoc.org/type_theories?Product&#45;&gt;http://latin.omdoc.org/type_theories?STT</title>
<a xlink:title="include">
<path fill="none" stroke="black" d="M151.74,-161.937C154.081,-153.508 156.96,-143.143 159.584,-133.696"/>
<polygon fill="black" stroke="black" points="162.99,-134.512 162.294,-123.941 156.245,-132.639 162.99,-134.512"/>
</a>
</g>
<!-- http://latin.omdoc.org/type_theories?TypesTerms -->
<g id="node11" class="node"><title>http://latin.omdoc.org/type_theories?TypesTerms</title>
<a xlink:href="javascript:parent.navigate(&#39;http://latin.omdoc.org/type_theories?TypesTerms&#39;)" xlink:title="theory http://latin.omdoc.org/type_theories?TypesTerms">
<ellipse fill="gray" stroke="black" cx="211" cy="-254" rx="57.2927" ry="18"/>
<text text-anchor="middle" x="211" y="-250.3" font-family="Times New Roman,serif" font-size="14.00">TypesTerms</text>
</a>
</g>
<!-- http://latin.omdoc.org/type_theories?TypesTerms&#45;&gt;http://latin.omdoc.org/type_theories?STT -->
<g id="edge11" class="edge"><title>http://latin.omdoc.org/type_theories?TypesTerms&#45;&gt;http://latin.omdoc.org/type_theories?STT</title>
<a xlink:title="include">
<path fill="none" stroke="black" d="M209.823,-235.833C208.17,-217.237 204.367,-186.891 196,-162 192.492,-151.563 187.175,-140.712 182.048,-131.433"/>
<polygon fill="black" stroke="black" points="185.077,-129.678 177.059,-122.752 179.008,-133.167 185.077,-129.678"/>
</a>
</g>
<!-- http://latin.omdoc.org/type_theories?TypesTerms&#45;&gt;http://latin.omdoc.org/type_theories?Product -->
<g id="edge29" class="edge"><title>http://latin.omdoc.org/type_theories?TypesTerms&#45;&gt;http://latin.omdoc.org/type_theories?Product</title>
<a xlink:title="include">
<path fill="none" stroke="black" d="M196.156,-236.301C187.799,-226.899 177.226,-215.004 168.029,-204.657"/>
<polygon fill="black" stroke="black" points="170.583,-202.262 161.323,-197.113 165.351,-206.913 170.583,-202.262"/>
</a>
</g>
<!-- http://latin.omdoc.org/type_theories?SimpTypes -->
<g id="node13" class="node"><title>http://latin.omdoc.org/type_theories?SimpTypes</title>
<a xlink:href="javascript:parent.navigate(&#39;http://latin.omdoc.org/type_theories?SimpTypes&#39;)" xlink:title="theory http://latin.omdoc.org/type_theories?SimpTypes">
<ellipse fill="gray" stroke="black" cx="296" cy="-180" rx="52.4675" ry="18"/>
<text text-anchor="middle" x="296" y="-176.3" font-family="Times New Roman,serif" font-size="14.00">SimpTypes</text>
</a>
</g>
<!-- http://latin.omdoc.org/type_theories?TypesTerms&#45;&gt;http://latin.omdoc.org/type_theories?SimpTypes -->
<g id="edge31" class="edge"><title>http://latin.omdoc.org/type_theories?TypesTerms&#45;&gt;http://latin.omdoc.org/type_theories?SimpTypes</title>
<a xlink:title="include">
<path fill="none" stroke="black" d="M230.288,-236.662C241.779,-226.928 256.537,-214.428 269.155,-203.74"/>
<polygon fill="black" stroke="black" points="271.713,-206.159 277.081,-197.025 267.189,-200.818 271.713,-206.159"/>
</a>
</g>
<!-- http://latin.omdoc.org/type_theories?SimpTypes&#45;&gt;http://latin.omdoc.org/type_theories?STT -->
<g id="edge13" class="edge"><title>http://latin.omdoc.org/type_theories?SimpTypes&#45;&gt;http://latin.omdoc.org/type_theories?STT</title>
<a xlink:title="include">
<path fill="none" stroke="black" d="M269.584,-164.256C248.299,-152.376 218.395,-135.685 196.363,-123.388"/>
<polygon fill="black" stroke="black" points="197.888,-120.232 187.45,-118.414 194.477,-126.344 197.888,-120.232"/>
</a>
</g>
<!-- http://cds.omdoc.org/urtheories?LF -->
<g id="node15" class="node"><title>http://cds.omdoc.org/urtheories?LF</title>
<a xlink:href="javascript:parent.navigate(&#39;http://cds.omdoc.org/urtheories?LF&#39;)" xlink:title="theory http://cds.omdoc.org/urtheories?LF">
<ellipse fill="gray" stroke="black" cx="126" cy="-328" rx="27" ry="18"/>
<text text-anchor="middle" x="126" y="-324.3" font-family="Times New Roman,serif" font-size="14.00">LF</text>
</a>
</g>
<!-- http://cds.omdoc.org/urtheories?LF&#45;&gt;http://latin.omdoc.org/type_theories?STT -->
<g id="edge15" class="edge"><title>http://cds.omdoc.org/urtheories?LF&#45;&gt;http://latin.omdoc.org/type_theories?STT</title>
<a xlink:title="meta">
<path fill="none" stroke="green" d="M117.086,-310.642C101.645,-279.942 73.7895,-212.259 98,-162 98.6254,-160.702 122.363,-141.921 141.822,-126.662"/>
<polygon fill="green" stroke="green" points="144.104,-129.321 149.819,-120.4 139.788,-123.809 144.104,-129.321"/>
</a>
</g>
<!-- http://cds.omdoc.org/urtheories?LF&#45;&gt;http://latin.omdoc.org/type_theories?MLTT -->
<g id="edge17" class="edge"><title>http://cds.omdoc.org/urtheories?LF&#45;&gt;http://latin.omdoc.org/type_theories?MLTT</title>
<a xlink:title="meta">
<path fill="none" stroke="green" d="M99.6134,-323.453C63.472,-316.943 3,-299.415 3,-255 3,-255 3,-255 3,-105 3,-83.6928 11.7349,-61.1749 20.0774,-44.5275"/>
<polygon fill="green" stroke="green" points="23.293,-45.9338 24.875,-35.4577 17.1053,-42.6607 23.293,-45.9338"/>
</a>
</g>
<!-- http://cds.omdoc.org/urtheories?LF&#45;&gt;http://latin.omdoc.org/foundations/zfc?TypedZF -->
<g id="edge19" class="edge"><title>http://cds.omdoc.org/urtheories?LF&#45;&gt;http://latin.omdoc.org/foundations/zfc?TypedZF</title>
<a xlink:title="meta">
<path fill="none" stroke="green" d="M102.323,-318.655C77.172,-308.096 41,-287.297 41,-255 41,-255 41,-255 41,-105 41,-80.8114 43.0186,-71.2255 60,-54 70.9017,-42.9416 85.6966,-35.3035 100.14,-30.0584"/>
<polygon fill="green" stroke="green" points="101.63,-33.2524 110.031,-26.7968 99.4383,-26.6045 101.63,-33.2524"/>
</a>
</g>
<!-- http://cds.omdoc.org/urtheories?LF&#45;&gt;http://latin.omdoc.org/logics/syntax?STTHOL -->
<g id="edge23" class="edge"><title>http://cds.omdoc.org/urtheories?LF&#45;&gt;http://latin.omdoc.org/logics/syntax?STTHOL</title>
<a xlink:title="meta">
<path fill="none" stroke="green" d="M152.861,-325.018C217.613,-319.506 377,-301.24 377,-255 377,-255 377,-255 377,-105 377,-78.233 356.293,-55.2952 337.245,-39.8572"/>
<polygon fill="green" stroke="green" points="339.31,-37.0297 329.248,-33.7107 335.044,-42.5798 339.31,-37.0297"/>
</a>
</g>
<!-- http://cds.omdoc.org/urtheories?LF&#45;&gt;http://latin.omdoc.org/type_theories?Product -->
<g id="edge25" class="edge"><title>http://cds.omdoc.org/urtheories?LF&#45;&gt;http://latin.omdoc.org/type_theories?Product</title>
<a xlink:title="meta">
<path fill="none" stroke="green" d="M128.45,-309.966C132.035,-285.045 138.748,-238.374 143.039,-208.537"/>
<polygon fill="green" stroke="green" points="146.541,-208.774 144.5,-198.378 139.612,-207.778 146.541,-208.774"/>
</a>
</g>
<!-- http://cds.omdoc.org/urtheories?LF&#45;&gt;http://latin.omdoc.org/type_theories?TypesTerms -->
<g id="edge21" class="edge"><title>http://cds.omdoc.org/urtheories?LF&#45;&gt;http://latin.omdoc.org/type_theories?TypesTerms</title>
<a xlink:title="meta">
<path fill="none" stroke="green" d="M141.988,-313.457C153.887,-303.378 170.403,-289.388 184.295,-277.621"/>
<polygon fill="green" stroke="green" points="186.748,-280.13 192.116,-270.996 182.223,-274.789 186.748,-280.13"/>
</a>
</g>
<!-- http://cds.omdoc.org/urtheories?LF&#45;&gt;http://latin.omdoc.org/type_theories?SimpTypes -->
<g id="edge27" class="edge"><title>http://cds.omdoc.org/urtheories?LF&#45;&gt;http://latin.omdoc.org/type_theories?SimpTypes</title>
<a xlink:title="meta">
<path fill="none" stroke="green" d="M152.771,-324.982C186.884,-320.919 245.221,-308.699 277,-272 292.065,-254.602 296.242,-228.353 296.987,-208.51"/>
<polygon fill="green" stroke="green" points="300.489,-208.278 297.095,-198.242 293.49,-208.205 300.489,-208.278"/>
</a>
</g>
</g>
</svg>
