<?xml version="1.0" encoding="UTF-8" standalone="no"?>
<!DOCTYPE svg PUBLIC "-//W3C//DTD SVG 1.1//EN"
 "http://www.w3.org/Graphics/SVG/1.1/DTD/svg11.dtd">
<!-- Generated by graphviz version 2.28.0 (20110507.0327)
 -->
<!-- Title: MMT Pages: 1 -->
<svg width="730pt" height="382pt"
 viewBox="0.00 0.00 730.00 382.00" xmlns="http://www.w3.org/2000/svg" xmlns:xlink="http://www.w3.org/1999/xlink">
<g id="graph1" class="graph" transform="scale(1 1) rotate(0) translate(4 378)">
<title>MMT</title>
<polygon fill="white" stroke="white" points="-4,5 -4,-378 727,-378 727,5 -4,5"/>
<!-- http://latin.omdoc.org/logics/proof_theory?Base -->
<g id="node2" class="node"><title>http://latin.omdoc.org/logics/proof_theory?Base</title>
<a xlink:href="javascript:parent.navigate(&#39;http://latin.omdoc.org/logics/proof_theory?Base&#39;)" xlink:title="theory http://latin.omdoc.org/logics/proof_theory?Base">
<ellipse fill="gray" stroke="black" cx="692" cy="-356" rx="28.3955" ry="18"/>
<text text-anchor="middle" x="692" y="-352.3" font-family="Times New Roman,serif" font-size="14.00">Base</text>
</a>
</g>
<!-- http://latin.omdoc.org/foundations/hol?SFOL&#45;Pf -->
<g id="node3" class="node"><title>http://latin.omdoc.org/foundations/hol?SFOL&#45;Pf</title>
<a xlink:href="javascript:parent.navigate(&#39;http://latin.omdoc.org/foundations/hol?SFOL-Pf&#39;)" xlink:title="theory http://latin.omdoc.org/foundations/hol?SFOL&#45;Pf">
<ellipse fill="gray" stroke="black" cx="404" cy="-106" rx="44.271" ry="18"/>
<text text-anchor="middle" x="404" y="-102.3" font-family="Times New Roman,serif" font-size="14.00">SFOL&#45;Pf</text>
</a>
</g>
<!-- http://latin.omdoc.org/logics/proof_theory?Base&#45;&gt;http://latin.omdoc.org/foundations/hol?SFOL&#45;Pf -->
<g id="edge3" class="edge"><title>http://latin.omdoc.org/logics/proof_theory?Base&#45;&gt;http://latin.omdoc.org/foundations/hol?SFOL&#45;Pf</title>
<a xlink:href="javascript:parent.navigate(&#39;http://latin.omdoc.org/translations/prop_hol?BasePF&#39;)" xlink:title="view http://latin.omdoc.org/translations/prop_hol?BasePF">
<path fill="none" stroke="blue" stroke-dasharray="5,2" d="M690.977,-337.985C690.001,-302.981 682.802,-222.19 639.275,-176.689 592.728,-127.413 512.175,-112.862 458.575,-108.927"/>
<path fill="none" stroke="blue" stroke-dasharray="5,2" d="M692.976,-337.929C691.993,-302.804 684.794,-222.013 640.725,-175.311 593.083,-125.445 512.53,-110.893 458.721,-106.932"/>
<polygon fill="blue" stroke="blue" points="458.817,-104.433 448.615,-107.291 458.373,-111.419 458.817,-104.433"/>
</a>
<a xlink:href="javascript:parent.navigate(&#39;http://latin.omdoc.org/translations/prop_hol?BasePF&#39;)" xlink:title="BasePF">
<text text-anchor="middle" x="700" y="-234.3" font-family="Times New Roman,serif" font-size="14.00">BasePF</text>
</a>
</g>
<!-- http://latin.omdoc.org/logics/proof_theory?Falsity -->
<g id="node5" class="node"><title>http://latin.omdoc.org/logics/proof_theory?Falsity</title>
<a xlink:href="javascript:parent.navigate(&#39;http://latin.omdoc.org/logics/proof_theory?Falsity&#39;)" xlink:title="theory http://latin.omdoc.org/logics/proof_theory?Falsity">
<ellipse fill="gray" stroke="black" cx="532" cy="-282" rx="34.1708" ry="18"/>
<text text-anchor="middle" x="532" y="-278.3" font-family="Times New Roman,serif" font-size="14.00">Falsity</text>
</a>
</g>
<!-- http://latin.omdoc.org/logics/proof_theory?Base&#45;&gt;http://latin.omdoc.org/logics/proof_theory?Falsity -->
<g id="edge51" class="edge"><title>http://latin.omdoc.org/logics/proof_theory?Base&#45;&gt;http://latin.omdoc.org/logics/proof_theory?Falsity</title>
<a xlink:title="include">
<path fill="none" stroke="black" d="M669.415,-344.837C642.561,-332.752 597.463,-312.458 566.295,-298.433"/>
<polygon fill="black" stroke="black" points="567.66,-295.209 557.104,-294.297 564.787,-301.592 567.66,-295.209"/>
</a>
</g>
<!-- http://latin.omdoc.org/logics/proof_theory?TND -->
<g id="node7" class="node"><title>http://latin.omdoc.org/logics/proof_theory?TND</title>
<a xlink:href="javascript:parent.navigate(&#39;http://latin.omdoc.org/logics/proof_theory?TND&#39;)" xlink:title="theory http://latin.omdoc.org/logics/proof_theory?TND">
<ellipse fill="gray" stroke="black" cx="60" cy="-194" rx="29.3722" ry="18"/>
<text text-anchor="middle" x="60" y="-190.3" font-family="Times New Roman,serif" font-size="14.00">TND</text>
</a>
</g>
<!-- http://latin.omdoc.org/logics/proof_theory?Base&#45;&gt;http://latin.omdoc.org/logics/proof_theory?TND -->
<g id="edge53" class="edge"><title>http://latin.omdoc.org/logics/proof_theory?Base&#45;&gt;http://latin.omdoc.org/logics/proof_theory?TND</title>
<a xlink:title="include">
<path fill="none" stroke="black" d="M663.632,-354.341C549.902,-351.445 130.969,-338.239 87,-300 65.0771,-280.934 59.7754,-246.686 59.0213,-222.496"/>
<polygon fill="black" stroke="black" points="62.5192,-222.156 58.9515,-212.18 55.5194,-222.203 62.5192,-222.156"/>
</a>
</g>
<!-- http://latin.omdoc.org/logics/proof_theory?DISJ -->
<g id="node12" class="node"><title>http://latin.omdoc.org/logics/proof_theory?DISJ</title>
<a xlink:href="javascript:parent.navigate(&#39;http://latin.omdoc.org/logics/proof_theory?DISJ&#39;)" xlink:title="theory http://latin.omdoc.org/logics/proof_theory?DISJ">
<ellipse fill="gray" stroke="black" cx="207" cy="-282" rx="28.3955" ry="18"/>
<text text-anchor="middle" x="207" y="-278.3" font-family="Times New Roman,serif" font-size="14.00">DISJ</text>
</a>
</g>
<!-- http://latin.omdoc.org/logics/proof_theory?Base&#45;&gt;http://latin.omdoc.org/logics/proof_theory?DISJ -->
<g id="edge55" class="edge"><title>http://latin.omdoc.org/logics/proof_theory?Base&#45;&gt;http://latin.omdoc.org/logics/proof_theory?DISJ</title>
<a xlink:title="include">
<path fill="none" stroke="black" d="M664.699,-351.069C602.815,-342.144 447.134,-319.599 317,-300 292.696,-296.34 265.39,-292.12 244.064,-288.801"/>
<polygon fill="black" stroke="black" points="244.534,-285.332 234.114,-287.25 243.456,-292.248 244.534,-285.332"/>
</a>
</g>
<!-- http://latin.omdoc.org/logics/proof_theory?CONJ -->
<g id="node14" class="node"><title>http://latin.omdoc.org/logics/proof_theory?CONJ</title>
<a xlink:href="javascript:parent.navigate(&#39;http://latin.omdoc.org/logics/proof_theory?CONJ&#39;)" xlink:title="theory http://latin.omdoc.org/logics/proof_theory?CONJ">
<ellipse fill="gray" stroke="black" cx="360" cy="-282" rx="33.1991" ry="18"/>
<text text-anchor="middle" x="360" y="-278.3" font-family="Times New Roman,serif" font-size="14.00">CONJ</text>
</a>
</g>
<!-- http://latin.omdoc.org/logics/proof_theory?Base&#45;&gt;http://latin.omdoc.org/logics/proof_theory?CONJ -->
<g id="edge47" class="edge"><title>http://latin.omdoc.org/logics/proof_theory?Base&#45;&gt;http://latin.omdoc.org/logics/proof_theory?CONJ</title>
<a xlink:title="include">
<path fill="none" stroke="black" d="M664.672,-351.097C613.68,-343.509 500.796,-325.267 408,-300 404.128,-298.946 400.12,-297.731 396.146,-296.446"/>
<polygon fill="black" stroke="black" points="397.029,-293.049 386.435,-293.157 394.784,-299.68 397.029,-293.049"/>
</a>
</g>
<!-- http://latin.omdoc.org/logics/proof_theory?NEG -->
<g id="node16" class="node"><title>http://latin.omdoc.org/logics/proof_theory?NEG</title>
<a xlink:href="javascript:parent.navigate(&#39;http://latin.omdoc.org/logics/proof_theory?NEG&#39;)" xlink:title="theory http://latin.omdoc.org/logics/proof_theory?NEG">
<ellipse fill="gray" stroke="black" cx="125" cy="-282" rx="29.3722" ry="18"/>
<text text-anchor="middle" x="125" y="-278.3" font-family="Times New Roman,serif" font-size="14.00">NEG</text>
</a>
</g>
<!-- http://latin.omdoc.org/logics/proof_theory?Base&#45;&gt;http://latin.omdoc.org/logics/proof_theory?NEG -->
<g id="edge45" class="edge"><title>http://latin.omdoc.org/logics/proof_theory?Base&#45;&gt;http://latin.omdoc.org/logics/proof_theory?NEG</title>
<a xlink:title="include">
<path fill="none" stroke="black" d="M663.777,-354.633C584.594,-353.051 354.05,-344.645 169,-300 165.169,-299.076 161.223,-297.898 157.341,-296.595"/>
<polygon fill="black" stroke="black" points="158.52,-293.3 147.926,-293.171 156.127,-299.878 158.52,-293.3"/>
</a>
</g>
<!-- http://latin.omdoc.org/logics/proof_theory?IMP -->
<g id="node18" class="node"><title>http://latin.omdoc.org/logics/proof_theory?IMP</title>
<a xlink:href="javascript:parent.navigate(&#39;http://latin.omdoc.org/logics/proof_theory?IMP&#39;)" xlink:title="theory http://latin.omdoc.org/logics/proof_theory?IMP">
<ellipse fill="gray" stroke="black" cx="622" cy="-282" rx="27" ry="18"/>
<text text-anchor="middle" x="622" y="-278.3" font-family="Times New Roman,serif" font-size="14.00">IMP</text>
</a>
</g>
<!-- http://latin.omdoc.org/logics/proof_theory?Base&#45;&gt;http://latin.omdoc.org/logics/proof_theory?IMP -->
<g id="edge43" class="edge"><title>http://latin.omdoc.org/logics/proof_theory?Base&#45;&gt;http://latin.omdoc.org/logics/proof_theory?IMP</title>
<a xlink:title="include">
<path fill="none" stroke="black" d="M677.496,-340.082C667.605,-329.908 654.341,-316.265 643.261,-304.869"/>
<polygon fill="black" stroke="black" points="645.488,-302.138 636.008,-297.408 640.469,-307.018 645.488,-302.138"/>
</a>
</g>
<!-- http://latin.omdoc.org/logics/proof_theory?Truth -->
<g id="node20" class="node"><title>http://latin.omdoc.org/logics/proof_theory?Truth</title>
<a xlink:href="javascript:parent.navigate(&#39;http://latin.omdoc.org/logics/proof_theory?Truth&#39;)" xlink:title="theory http://latin.omdoc.org/logics/proof_theory?Truth">
<ellipse fill="gray" stroke="black" cx="448" cy="-282" rx="30.3206" ry="18"/>
<text text-anchor="middle" x="448" y="-278.3" font-family="Times New Roman,serif" font-size="14.00">Truth</text>
</a>
</g>
<!-- http://latin.omdoc.org/logics/proof_theory?Base&#45;&gt;http://latin.omdoc.org/logics/proof_theory?Truth -->
<g id="edge49" class="edge"><title>http://latin.omdoc.org/logics/proof_theory?Base&#45;&gt;http://latin.omdoc.org/logics/proof_theory?Truth</title>
<a xlink:title="include">
<path fill="none" stroke="black" d="M665.721,-349.024C626.711,-339.896 551.376,-321.283 489,-300 486.422,-299.121 483.775,-298.16 481.126,-297.157"/>
<polygon fill="black" stroke="black" points="482.237,-293.833 471.65,-293.412 479.664,-300.343 482.237,-293.833"/>
</a>
</g>
<!-- http://latin.omdoc.org/logics/proof_theory?Falsity&#45;&gt;http://latin.omdoc.org/foundations/hol?SFOL&#45;Pf -->
<g id="edge5" class="edge"><title>http://latin.omdoc.org/logics/proof_theory?Falsity&#45;&gt;http://latin.omdoc.org/foundations/hol?SFOL&#45;Pf</title>
<a xlink:href="javascript:parent.navigate(&#39;http://latin.omdoc.org/translations/prop_hol?FalsityPF&#39;)" xlink:title="view http://latin.omdoc.org/translations/prop_hol?FalsityPF">
<path fill="none" stroke="blue" stroke-dasharray="5,2" d="M526.5,-264.378C520.065,-242.553 506.693,-203.985 486.199,-176.598 472.234,-157.839 451.9,-140.825 434.947,-128.468"/>
<path fill="none" stroke="blue" stroke-dasharray="5,2" d="M528.418,-263.813C521.955,-241.898 508.583,-203.33 487.801,-175.402 473.518,-156.305 453.184,-139.291 436.125,-126.852"/>
<polygon fill="blue" stroke="blue" points="437.18,-124.536 426.997,-121.612 433.134,-130.248 437.18,-124.536"/>
</a>
<a xlink:href="javascript:parent.navigate(&#39;http://latin.omdoc.org/translations/prop_hol?FalsityPF&#39;)" xlink:title="FalsityPF">
<text text-anchor="middle" x="535" y="-190.3" font-family="Times New Roman,serif" font-size="14.00">FalsityPF</text>
</a>
</g>
<!-- http://latin.omdoc.org/logics/proof_theory?IPL -->
<g id="node22" class="node"><title>http://latin.omdoc.org/logics/proof_theory?IPL</title>
<a xlink:href="javascript:parent.navigate(&#39;http://latin.omdoc.org/logics/proof_theory?IPL&#39;)" xlink:title="theory http://latin.omdoc.org/logics/proof_theory?IPL">
<ellipse fill="gray" stroke="black" cx="297" cy="-194" rx="27" ry="18"/>
<text text-anchor="middle" x="297" y="-190.3" font-family="Times New Roman,serif" font-size="14.00">IPL</text>
</a>
</g>
<!-- http://latin.omdoc.org/logics/proof_theory?Falsity&#45;&gt;http://latin.omdoc.org/logics/proof_theory?IPL -->
<g id="edge41" class="edge"><title>http://latin.omdoc.org/logics/proof_theory?Falsity&#45;&gt;http://latin.omdoc.org/logics/proof_theory?IPL</title>
<a xlink:title="include">
<path fill="none" stroke="black" d="M504.914,-270.64C499.019,-268.421 492.809,-266.11 487,-264 421.077,-240.049 403.533,-236.998 338,-212 334.904,-210.819 331.692,-209.555 328.489,-208.27"/>
<polygon fill="black" stroke="black" points="329.618,-204.95 319.037,-204.409 326.971,-211.43 329.618,-204.95"/>
</a>
</g>
<!-- http://cds.omdoc.org/mmt?[(http:%2F%2Fcds.omdoc.org%2Fmmt%3Fmmt%3Ftheory&#45;union___http:%2F%2Flatin.omdoc.org%2Ffoundations%2Fhol%3FSFOL&#45;Pf___http:%2F%2Flatin.omdoc.org%2Ffoundations%2Fhol%3FClassical)] -->
<g id="node8" class="node"><title>http://cds.omdoc.org/mmt?[(http:%2F%2Fcds.omdoc.org%2Fmmt%3Fmmt%3Ftheory&#45;union___http:%2F%2Flatin.omdoc.org%2Ffoundations%2Fhol%3FSFOL&#45;Pf___http:%2F%2Flatin.omdoc.org%2Ffoundations%2Fhol%3FClassical)]</title>
<a xlink:href="javascript:parent.navigate(&#39;http://cds.omdoc.org/mmt?[(http:%2F%2Fcds.omdoc.org%2Fmmt%3Fmmt%3Ftheory-union___http:%2F%2Flatin.omdoc.org%2Ffoundations%2Fhol%3FSFOL-Pf___http:%2F%2Flatin.omdoc.org%2Ffoundations%2Fhol%3FClassical)]&#39;)" xlink:title="theory http://cds.omdoc.org/mmt?[(http:%2F%2Fcds.omdoc.org%2Fmmt%3Fmmt%3Ftheory&#45;union___http:%2F%2Flatin.omdoc.org%2Ffoundations%2Fhol%3FSFOL&#45;Pf___http:%2F%2Flatin.omdoc.org%2Ffoundations%2Fhol%3FClassical)]">
<ellipse fill="gray" stroke="black" cx="87" cy="-18" rx="87.1385" ry="18"/>
<text text-anchor="middle" x="87" y="-14.3" font-family="Times New Roman,serif" font-size="14.00">SFOL&#45;Pf + Classical</text>
</a>
</g>
<!-- http://latin.omdoc.org/logics/proof_theory?TND&#45;&gt;http://cds.omdoc.org/mmt?[(http:%2F%2Fcds.omdoc.org%2Fmmt%3Fmmt%3Ftheory&#45;union___http:%2F%2Flatin.omdoc.org%2Ffoundations%2Fhol%3FSFOL&#45;Pf___http:%2F%2Flatin.omdoc.org%2Ffoundations%2Fhol%3FClassical)] -->
<g id="edge7" class="edge"><title>http://latin.omdoc.org/logics/proof_theory?TND&#45;&gt;http://cds.omdoc.org/mmt?[(http:%2F%2Fcds.omdoc.org%2Fmmt%3Fmmt%3Ftheory&#45;union___http:%2F%2Flatin.omdoc.org%2Ffoundations%2Fhol%3FSFOL&#45;Pf___http:%2F%2Flatin.omdoc.org%2Ffoundations%2Fhol%3FClassical)]</title>
<a xlink:href="javascript:parent.navigate(&#39;http://latin.omdoc.org/translations/prop_hol?TND&#39;)" xlink:title="view http://latin.omdoc.org/translations/prop_hol?TND">
<path fill="none" stroke="blue" stroke-dasharray="5,2" d="M59.5805,-175.747C60.4905,-154.836 62.7292,-118.591 68.0145,-87.8305 70.4406,-73.7432 74.3109,-58.4168 77.8526,-45.7507"/>
<path fill="none" stroke="blue" stroke-dasharray="5,2" d="M61.5786,-175.834C62.4867,-154.959 64.7254,-118.715 69.9855,-88.1695 72.3798,-74.2329 76.25,-58.9065 79.7787,-46.2893"/>
<polygon fill="blue" stroke="blue" points="82.2625,-46.6984 81.6671,-36.1203 75.5359,-44.7609 82.2625,-46.6984"/>
</a>
<a xlink:href="javascript:parent.navigate(&#39;http://latin.omdoc.org/translations/prop_hol?TND&#39;)" xlink:title="TND">
<text text-anchor="middle" x="83.5" y="-102.3" font-family="Times New Roman,serif" font-size="14.00">TND</text>
</a>
</g>
<!-- http://latin.omdoc.org/logics/proof_theory?CPL -->
<g id="node10" class="node"><title>http://latin.omdoc.org/logics/proof_theory?CPL</title>
<a xlink:href="javascript:parent.navigate(&#39;http://latin.omdoc.org/logics/proof_theory?CPL&#39;)" xlink:title="theory http://latin.omdoc.org/logics/proof_theory?CPL">
<ellipse fill="gray" stroke="black" cx="135" cy="-106" rx="27.4223" ry="18"/>
<text text-anchor="middle" x="135" y="-102.3" font-family="Times New Roman,serif" font-size="14.00">CPL</text>
</a>
</g>
<!-- http://latin.omdoc.org/logics/proof_theory?TND&#45;&gt;http://latin.omdoc.org/logics/proof_theory?CPL -->
<g id="edge39" class="edge"><title>http://latin.omdoc.org/logics/proof_theory?TND&#45;&gt;http://latin.omdoc.org/logics/proof_theory?CPL</title>
<a xlink:title="include">
<path fill="none" stroke="black" d="M73.4085,-177.625C84.998,-164.336 101.911,-144.942 115.083,-129.838"/>
<polygon fill="black" stroke="black" points="118.024,-131.791 121.959,-121.954 112.748,-127.19 118.024,-131.791"/>
</a>
</g>
<!-- http://latin.omdoc.org/logics/proof_theory?CPL&#45;&gt;http://cds.omdoc.org/mmt?[(http:%2F%2Fcds.omdoc.org%2Fmmt%3Fmmt%3Ftheory&#45;union___http:%2F%2Flatin.omdoc.org%2Ffoundations%2Fhol%3FSFOL&#45;Pf___http:%2F%2Flatin.omdoc.org%2Ffoundations%2Fhol%3FClassical)] -->
<g id="edge9" class="edge"><title>http://latin.omdoc.org/logics/proof_theory?CPL&#45;&gt;http://cds.omdoc.org/mmt?[(http:%2F%2Fcds.omdoc.org%2Fmmt%3Fmmt%3Ftheory&#45;union___http:%2F%2Flatin.omdoc.org%2Ffoundations%2Fhol%3FSFOL&#45;Pf___http:%2F%2Flatin.omdoc.org%2Ffoundations%2Fhol%3FClassical)]</title>
<a xlink:href="javascript:parent.navigate(&#39;http://latin.omdoc.org/translations/prop_hol?CPLPF&#39;)" xlink:title="view http://latin.omdoc.org/translations/prop_hol?CPLPF">
<path fill="none" stroke="blue" stroke-dasharray="5,2" d="M125.098,-89.3114C118.192,-76.9382 108.533,-59.6314 100.558,-45.344"/>
<path fill="none" stroke="blue" stroke-dasharray="5,2" d="M126.845,-88.3367C119.939,-75.9635 110.279,-58.6567 102.305,-44.3693"/>
<polygon fill="blue" stroke="blue" points="104.41,-43.0122 96.4806,-35.986 98.2981,-46.4238 104.41,-43.0122"/>
</a>
<a xlink:href="javascript:parent.navigate(&#39;http://latin.omdoc.org/translations/prop_hol?CPLPF&#39;)" xlink:title="CPLPF">
<text text-anchor="middle" x="137.5" y="-58.3" font-family="Times New Roman,serif" font-size="14.00">CPLPF</text>
</a>
</g>
<!-- http://latin.omdoc.org/logics/proof_theory?DISJ&#45;&gt;http://latin.omdoc.org/foundations/hol?SFOL&#45;Pf -->
<g id="edge11" class="edge"><title>http://latin.omdoc.org/logics/proof_theory?DISJ&#45;&gt;http://latin.omdoc.org/foundations/hol?SFOL&#45;Pf</title>
<a xlink:href="javascript:parent.navigate(&#39;http://latin.omdoc.org/translations/prop_hol?DISJPF&#39;)" xlink:title="view http://latin.omdoc.org/translations/prop_hol?DISJPF">
<path fill="none" stroke="blue" stroke-dasharray="5,2" d="M202.485,-264.048C198.869,-241.513 196.154,-201.95 215.192,-175.411 246.591,-132.666 306.303,-116.27 350.306,-109.924"/>
<path fill="none" stroke="blue" stroke-dasharray="5,2" d="M204.459,-263.731C200.864,-241.377 198.149,-201.813 216.808,-176.589 247.121,-134.594 306.833,-118.198 350.591,-111.904"/>
<polygon fill="blue" stroke="blue" points="350.932,-114.381 360.394,-109.613 350.024,-107.44 350.932,-114.381"/>
</a>
<a xlink:href="javascript:parent.navigate(&#39;http://latin.omdoc.org/translations/prop_hol?DISJPF&#39;)" xlink:title="DISJPF">
<text text-anchor="middle" x="238.5" y="-190.3" font-family="Times New Roman,serif" font-size="14.00">DISJPF</text>
</a>
</g>
<!-- http://latin.omdoc.org/logics/proof_theory?DISJ&#45;&gt;http://latin.omdoc.org/logics/proof_theory?TND -->
<g id="edge37" class="edge"><title>http://latin.omdoc.org/logics/proof_theory?DISJ&#45;&gt;http://latin.omdoc.org/logics/proof_theory?TND</title>
<a xlink:title="include">
<path fill="none" stroke="black" d="M186.869,-269.222C161.609,-254.445 118.105,-228.993 89.1927,-212.079"/>
<polygon fill="black" stroke="black" points="90.7589,-208.94 80.3601,-206.911 87.2241,-214.982 90.7589,-208.94"/>
</a>
</g>
<!-- http://latin.omdoc.org/logics/proof_theory?DISJ&#45;&gt;http://latin.omdoc.org/logics/proof_theory?IPL -->
<g id="edge35" class="edge"><title>http://latin.omdoc.org/logics/proof_theory?DISJ&#45;&gt;http://latin.omdoc.org/logics/proof_theory?IPL</title>
<a xlink:title="include">
<path fill="none" stroke="black" d="M225.111,-267.675C233.28,-261.395 242.892,-253.621 251,-246 260.273,-237.284 269.81,-226.97 277.779,-217.907"/>
<polygon fill="black" stroke="black" points="280.434,-220.187 284.332,-210.335 275.141,-215.606 280.434,-220.187"/>
</a>
</g>
<!-- http://latin.omdoc.org/logics/proof_theory?CONJ&#45;&gt;http://latin.omdoc.org/foundations/hol?SFOL&#45;Pf -->
<g id="edge13" class="edge"><title>http://latin.omdoc.org/logics/proof_theory?CONJ&#45;&gt;http://latin.omdoc.org/foundations/hol?SFOL&#45;Pf</title>
<a xlink:href="javascript:parent.navigate(&#39;http://latin.omdoc.org/translations/prop_hol?CONJPF&#39;)" xlink:title="view http://latin.omdoc.org/translations/prop_hol?CONJPF">
<path fill="none" stroke="blue" stroke-dasharray="5,2" d="M359.82,-263.917C361.161,-242.876 364.576,-206.204 373.037,-175.732 377.18,-160.869 383.809,-145.172 389.811,-132.442"/>
<path fill="none" stroke="blue" stroke-dasharray="5,2" d="M361.816,-264.044C363.152,-243.061 366.567,-206.39 374.963,-176.268 379.022,-161.647 385.652,-145.95 391.62,-133.295"/>
<polygon fill="blue" stroke="blue" points="393.893,-134.338 395.114,-123.814 387.596,-131.279 393.893,-134.338"/>
</a>
<a xlink:href="javascript:parent.navigate(&#39;http://latin.omdoc.org/translations/prop_hol?CONJPF&#39;)" xlink:title="CONJPF">
<text text-anchor="middle" x="400" y="-190.3" font-family="Times New Roman,serif" font-size="14.00">CONJPF</text>
</a>
</g>
<!-- http://latin.omdoc.org/logics/proof_theory?CONJ&#45;&gt;http://latin.omdoc.org/logics/proof_theory?IPL -->
<g id="edge33" class="edge"><title>http://latin.omdoc.org/logics/proof_theory?CONJ&#45;&gt;http://latin.omdoc.org/logics/proof_theory?IPL</title>
<a xlink:title="include">
<path fill="none" stroke="black" d="M339.772,-267.386C332.179,-261.504 323.955,-254.11 318,-246 312.682,-238.757 308.441,-229.971 305.202,-221.746"/>
<polygon fill="black" stroke="black" points="308.422,-220.358 301.743,-212.134 301.836,-222.728 308.422,-220.358"/>
</a>
</g>
<!-- http://latin.omdoc.org/logics/proof_theory?NEG&#45;&gt;http://latin.omdoc.org/foundations/hol?SFOL&#45;Pf -->
<g id="edge15" class="edge"><title>http://latin.omdoc.org/logics/proof_theory?NEG&#45;&gt;http://latin.omdoc.org/foundations/hol?SFOL&#45;Pf</title>
<a xlink:href="javascript:parent.navigate(&#39;http://latin.omdoc.org/translations/prop_hol?NEGPF&#39;)" xlink:title="view http://latin.omdoc.org/translations/prop_hol?NEGPF">
<path fill="none" stroke="blue" stroke-dasharray="5,2" d="M124.19,-263.6C125.34,-240.811 130.543,-200.956 152.24,-175.35 178.536,-144.951 286.53,-123.73 352.229,-113.317"/>
<path fill="none" stroke="blue" stroke-dasharray="5,2" d="M126.187,-263.701C127.324,-241.07 132.526,-201.215 153.76,-176.65 178.922,-146.913 286.916,-125.693 352.542,-115.293"/>
<polygon fill="blue" stroke="blue" points="353.197,-117.721 362.541,-112.728 352.123,-110.804 353.197,-117.721"/>
</a>
<a xlink:href="javascript:parent.navigate(&#39;http://latin.omdoc.org/translations/prop_hol?NEGPF&#39;)" xlink:title="NEGPF">
<text text-anchor="middle" x="176" y="-190.3" font-family="Times New Roman,serif" font-size="14.00">NEGPF</text>
</a>
</g>
<!-- http://latin.omdoc.org/logics/proof_theory?NEG&#45;&gt;http://latin.omdoc.org/logics/proof_theory?TND -->
<g id="edge31" class="edge"><title>http://latin.omdoc.org/logics/proof_theory?NEG&#45;&gt;http://latin.omdoc.org/logics/proof_theory?TND</title>
<a xlink:title="include">
<path fill="none" stroke="black" d="M108.59,-266.899C102.066,-260.84 94.7591,-253.447 89,-246 82.9337,-238.155 77.2871,-228.901 72.6184,-220.444"/>
<polygon fill="black" stroke="black" points="75.5724,-218.544 67.7925,-211.352 69.3894,-221.826 75.5724,-218.544"/>
</a>
</g>
<!-- http://latin.omdoc.org/logics/proof_theory?NEG&#45;&gt;http://latin.omdoc.org/logics/proof_theory?IPL -->
<g id="edge29" class="edge"><title>http://latin.omdoc.org/logics/proof_theory?NEG&#45;&gt;http://latin.omdoc.org/logics/proof_theory?IPL</title>
<a xlink:title="include">
<path fill="none" stroke="black" d="M147.134,-269.933C177.654,-254.673 232.758,-227.121 266.97,-210.015"/>
<polygon fill="black" stroke="black" points="268.649,-213.089 276.028,-205.486 265.518,-206.828 268.649,-213.089"/>
</a>
</g>
<!-- http://latin.omdoc.org/logics/proof_theory?IMP&#45;&gt;http://latin.omdoc.org/foundations/hol?SFOL&#45;Pf -->
<g id="edge17" class="edge"><title>http://latin.omdoc.org/logics/proof_theory?IMP&#45;&gt;http://latin.omdoc.org/foundations/hol?SFOL&#45;Pf</title>
<a xlink:href="javascript:parent.navigate(&#39;http://latin.omdoc.org/translations/prop_hol?IMPPF&#39;)" xlink:title="view http://latin.omdoc.org/translations/prop_hol?IMPPF">
<path fill="none" stroke="blue" stroke-dasharray="5,2" d="M616.046,-264.547C608.483,-241.816 592.034,-201.079 565.324,-176.737 533.433,-147.422 486.707,-129.358 451.785,-119.183"/>
<path fill="none" stroke="blue" stroke-dasharray="5,2" d="M617.944,-263.916C610.338,-241.067 593.888,-200.33 566.676,-175.263 534.154,-145.556 487.428,-127.492 452.345,-117.263"/>
<polygon fill="blue" stroke="blue" points="452.641,-114.75 442.068,-115.429 450.756,-121.492 452.641,-114.75"/>
</a>
<a xlink:href="javascript:parent.navigate(&#39;http://latin.omdoc.org/translations/prop_hol?IMPPF&#39;)" xlink:title="IMPPF">
<text text-anchor="middle" x="615" y="-190.3" font-family="Times New Roman,serif" font-size="14.00">IMPPF</text>
</a>
</g>
<!-- http://latin.omdoc.org/logics/proof_theory?IMP&#45;&gt;http://latin.omdoc.org/logics/proof_theory?IPL -->
<g id="edge27" class="edge"><title>http://latin.omdoc.org/logics/proof_theory?IMP&#45;&gt;http://latin.omdoc.org/logics/proof_theory?IPL</title>
<a xlink:title="include">
<path fill="none" stroke="black" d="M599.237,-272.13C591.6,-269.325 582.992,-266.348 575,-264 509.829,-244.857 492.389,-244.362 426,-230 386.982,-221.559 376.168,-223.699 338,-212 334.832,-211.029 331.572,-209.905 328.339,-208.706"/>
<polygon fill="black" stroke="black" points="329.433,-205.375 318.846,-204.964 326.866,-211.887 329.433,-205.375"/>
</a>
</g>
<!-- http://latin.omdoc.org/logics/proof_theory?Truth&#45;&gt;http://latin.omdoc.org/foundations/hol?SFOL&#45;Pf -->
<g id="edge19" class="edge"><title>http://latin.omdoc.org/logics/proof_theory?Truth&#45;&gt;http://latin.omdoc.org/foundations/hol?SFOL&#45;Pf</title>
<a xlink:href="javascript:parent.navigate(&#39;http://latin.omdoc.org/translations/prop_hol?TruthPF&#39;)" xlink:title="view http://latin.omdoc.org/translations/prop_hol?TruthPF">
<path fill="none" stroke="blue" stroke-dasharray="5,2" d="M443.967,-263.959C440.139,-243.065 433.085,-206.809 425.033,-176.255 421.305,-162.101 416.399,-146.498 412.174,-133.741"/>
<path fill="none" stroke="blue" stroke-dasharray="5,2" d="M445.934,-263.598C442.103,-242.683 435.048,-206.427 426.967,-175.745 423.213,-161.501 418.307,-145.898 414.073,-133.112"/>
<polygon fill="blue" stroke="blue" points="416.416,-132.235 409.912,-123.872 409.781,-134.466 416.416,-132.235"/>
</a>
<a xlink:href="javascript:parent.navigate(&#39;http://latin.omdoc.org/translations/prop_hol?TruthPF&#39;)" xlink:title="TruthPF">
<text text-anchor="middle" x="459" y="-190.3" font-family="Times New Roman,serif" font-size="14.00">TruthPF</text>
</a>
</g>
<!-- http://latin.omdoc.org/logics/proof_theory?Truth&#45;&gt;http://latin.omdoc.org/logics/proof_theory?IPL -->
<g id="edge25" class="edge"><title>http://latin.omdoc.org/logics/proof_theory?Truth&#45;&gt;http://latin.omdoc.org/logics/proof_theory?IPL</title>
<a xlink:title="include">
<path fill="none" stroke="black" d="M426.686,-268.861C400.424,-253.904 355.676,-228.418 326.223,-211.644"/>
<polygon fill="black" stroke="black" points="327.663,-208.436 317.241,-206.528 324.198,-214.518 327.663,-208.436"/>
</a>
</g>
<!-- http://latin.omdoc.org/logics/proof_theory?IPL&#45;&gt;http://latin.omdoc.org/foundations/hol?SFOL&#45;Pf -->
<g id="edge21" class="edge"><title>http://latin.omdoc.org/logics/proof_theory?IPL&#45;&gt;http://latin.omdoc.org/foundations/hol?SFOL&#45;Pf</title>
<a xlink:href="javascript:parent.navigate(&#39;http://latin.omdoc.org/translations/prop_hol?IPLPF&#39;)" xlink:title="view http://latin.omdoc.org/translations/prop_hol?IPLPF">
<path fill="none" stroke="blue" stroke-dasharray="5,2" d="M295.683,-175.461C296.404,-164.504 299.044,-150.959 307.246,-141.343 318.948,-128.033 335.63,-119.842 352.045,-114.652"/>
<path fill="none" stroke="blue" stroke-dasharray="5,2" d="M297.678,-175.591C298.367,-164.886 301.007,-151.342 308.754,-142.657 319.83,-129.829 336.512,-121.637 352.647,-116.56"/>
<polygon fill="blue" stroke="blue" points="353.695,-118.863 362.375,-112.789 351.802,-112.124 353.695,-118.863"/>
</a>
<a xlink:href="javascript:parent.navigate(&#39;http://latin.omdoc.org/translations/prop_hol?IPLPF&#39;)" xlink:title="IPLPF">
<text text-anchor="middle" x="327" y="-146.3" font-family="Times New Roman,serif" font-size="14.00">IPLPF</text>
</a>
</g>
<!-- http://latin.omdoc.org/logics/proof_theory?IPL&#45;&gt;http://latin.omdoc.org/logics/proof_theory?CPL -->
<g id="edge23" class="edge"><title>http://latin.omdoc.org/logics/proof_theory?IPL&#45;&gt;http://latin.omdoc.org/logics/proof_theory?CPL</title>
<a xlink:title="include">
<path fill="none" stroke="black" d="M276.483,-182.108C248.198,-167.093 197.055,-139.943 164.623,-122.726"/>
<polygon fill="black" stroke="black" points="166.08,-119.537 155.606,-117.939 162.797,-125.719 166.08,-119.537"/>
</a>
</g>
</g>
</svg>
