<?xml version="1.0" encoding="UTF-8" standalone="no"?>
<!DOCTYPE svg PUBLIC "-//W3C//DTD SVG 1.1//EN"
 "http://www.w3.org/Graphics/SVG/1.1/DTD/svg11.dtd">
<!-- Generated by graphviz version 2.28.0 (20110507.0327)
 -->
<!-- Title: MMT Pages: 1 -->
<svg
 viewBox="0.00 0.00 465.00 294.00" xmlns="http://www.w3.org/2000/svg" xmlns:xlink="http://www.w3.org/1999/xlink">
<g id="graph1" class="graph" transform="scale(1 1) rotate(0) translate(4 290)">
<title>MMT</title>
<polygon fill="white" stroke="white" points="-4,5 -4,-290 462,-290 462,5 -4,5"/>
<g id="graph2" class="cluster"><title>cluster_local</title>
<polygon fill="none" stroke="black" points="97,-168 97,-220 241,-220 241,-168 97,-168"/>
</g>
<!-- http://latin.omdoc.org/math?Antisymmetric -->
<g id="node2" class="node"><title>http://latin.omdoc.org/math?Antisymmetric</title>
<a xlink:href="http://latin.omdoc.org/math?Antisymmetric" class="graphtheory">
<ellipse fill="none" stroke="black" cx="169" cy="-194" rx="63.5411" ry="18"/>
<text text-anchor="middle" x="169" y="-190.3" font-family="Times New Roman,serif" font-size="14.00">Antisymmetric</text>
</a>
</g>
<!-- http://latin.omdoc.org/math?OSL -->
<g id="node3" class="node"><title>http://latin.omdoc.org/math?OSL</title>
<a xlink:href="http://latin.omdoc.org/math?OSL" class="graphtheory">
<ellipse fill="gray" stroke="black" cx="197" cy="-106" rx="28.3955" ry="18"/>
<text text-anchor="middle" x="197" y="-102.3" font-family="Times New Roman,serif" font-size="14.00">OSL</text>
</a>
</g>
<!-- http://latin.omdoc.org/math?Antisymmetric&#45;&gt;http://latin.omdoc.org/math?OSL -->
<g id="edge3" class="edge"><title>http://latin.omdoc.org/math?Antisymmetric&#45;&gt;http://latin.omdoc.org/math?OSL</title>
<a xlink:href="http://latin.omdoc.org/math?OSL?[http://latin.omdoc.org/math?Antisymmetric]" class="graphstructure">
<path fill="none" stroke="black" d="M162.903,-175.902C160.258,-165.723 158.642,-152.739 163,-142 165.11,-136.799 168.405,-131.947 172.13,-127.61"/>
<polygon fill="black" stroke="black" points="174.68,-130.008 179.138,-120.397 169.659,-125.131 174.68,-130.008"/>
</a>
<a xlink:href="http://latin.omdoc.org/math?OSL?[http://latin.omdoc.org/math?Antisymmetric]" class="[http://latin.omdoc.org/math?Antisymmetric]">
<text text-anchor="middle" x="287" y="-146.3" font-family="Times New Roman,serif" font-size="14.00">[http://latin.omdoc.org/math?Antisymmetric]</text>
</a>
</g>
<!-- http://latin.omdoc.org/math?SemiLattice -->
<g id="node5" class="node"><title>http://latin.omdoc.org/math?SemiLattice</title>
<a xlink:href="http://latin.omdoc.org/math?SemiLattice" class="graphtheory">
<ellipse fill="gray" stroke="black" cx="100" cy="-18" rx="52.9443" ry="18"/>
<text text-anchor="middle" x="100" y="-14.3" font-family="Times New Roman,serif" font-size="14.00">SemiLattice</text>
</a>
</g>
<!-- http://latin.omdoc.org/math?Antisymmetric&#45;&gt;http://latin.omdoc.org/math?SemiLattice -->
<g id="edge5" class="edge"><title>http://latin.omdoc.org/math?Antisymmetric&#45;&gt;http://latin.omdoc.org/math?SemiLattice</title>
<a xlink:href="http://latin.omdoc.org/math?ASL" class="graphview">
<path fill="none" stroke="black" d="M158.761,-176.16C150.732,-162.463 139.671,-142.45 132,-124 121.249,-98.1411 112.296,-67.3708 106.62,-45.8487"/>
<polygon fill="black" stroke="black" points="109.989,-44.8975 104.103,-36.0882 103.211,-46.6454 109.989,-44.8975"/>
</a>
<a xlink:href="http://latin.omdoc.org/math?ASL" class="ASL">
<text text-anchor="middle" x="145.5" y="-102.3" font-family="Times New Roman,serif" font-size="14.00">ASL</text>
</a>
</g>
<!-- http://latin.omdoc.org/math?Order -->
<g id="node7" class="node"><title>http://latin.omdoc.org/math?Order</title>
<a xlink:href="http://latin.omdoc.org/math?Order" class="graphtheory">
<ellipse fill="gray" stroke="black" cx="425" cy="-106" rx="32.2457" ry="18"/>
<text text-anchor="middle" x="425" y="-102.3" font-family="Times New Roman,serif" font-size="14.00">Order</text>
</a>
</g>
<!-- http://latin.omdoc.org/math?Antisymmetric&#45;&gt;http://latin.omdoc.org/math?Order -->
<g id="edge7" class="edge"><title>http://latin.omdoc.org/math?Antisymmetric&#45;&gt;http://latin.omdoc.org/math?Order</title>
<a class="graphinclude">
<path fill="none" stroke="black" d="M201.813,-178.52C212.512,-174.408 224.579,-170.4 236,-168 255.06,-163.995 395.856,-170.246 411,-158 418.082,-152.274 421.777,-143.329 423.648,-134.519"/>
<polygon fill="black" stroke="black" points="427.138,-134.836 425.099,-124.44 420.209,-133.839 427.138,-134.836"/>
</a>
</g>
<!-- http://latin.omdoc.org/math?Order&#45;&gt;http://latin.omdoc.org/math?SemiLattice -->
<g id="edge19" class="edge"><title>http://latin.omdoc.org/math?Order&#45;&gt;http://latin.omdoc.org/math?SemiLattice</title>
<a xlink:href="http://latin.omdoc.org/math?OSL" class="graphview">
<path fill="none" stroke="black" d="M396.443,-97.4434C341.302,-82.8522 219.528,-50.6289 150.438,-32.3466"/>
<polygon fill="black" stroke="black" points="151.203,-28.9287 140.64,-29.7541 149.412,-35.6958 151.203,-28.9287"/>
</a>
<a xlink:href="http://latin.omdoc.org/math?OSL" class="OSL">
<text text-anchor="middle" x="305" y="-58.3" font-family="Times New Roman,serif" font-size="14.00">OSL</text>
</a>
</g>
<!-- http://latin.omdoc.org/math?Relation -->
<g id="node9" class="node"><title>http://latin.omdoc.org/math?Relation</title>
<a xlink:href="http://latin.omdoc.org/math?Relation" class="graphtheory">
<ellipse fill="gray" stroke="black" cx="40" cy="-268" rx="39.9464" ry="18"/>
<text text-anchor="middle" x="40" y="-264.3" font-family="Times New Roman,serif" font-size="14.00">Relation</text>
</a>
</g>
<!-- http://latin.omdoc.org/math?Relation&#45;&gt;http://latin.omdoc.org/math?Antisymmetric -->
<g id="edge9" class="edge"><title>http://latin.omdoc.org/math?Relation&#45;&gt;http://latin.omdoc.org/math?Antisymmetric</title>
<a class="graphinclude">
<path fill="none" stroke="black" d="M64.2639,-253.457C83.4224,-242.764 110.467,-227.67 132.274,-215.498"/>
<polygon fill="black" stroke="black" points="134.236,-218.412 141.262,-210.482 130.824,-212.299 134.236,-218.412"/>
</a>
</g>
<!-- http://latin.omdoc.org/math?Relation&#45;&gt;http://latin.omdoc.org/math?SemiLattice -->
<g id="edge17" class="edge"><title>http://latin.omdoc.org/math?Relation&#45;&gt;http://latin.omdoc.org/math?SemiLattice</title>
<a xlink:href="http://latin.omdoc.org/math?RSL" class="graphview">
<path fill="none" stroke="black" d="M37.516,-249.903C34.4412,-225.723 30.2684,-180.221 36,-142 42.0671,-101.542 41.4273,-88.7606 63,-54 65.6023,-49.8068 68.8286,-45.7784 72.2831,-42.0422"/>
<polygon fill="black" stroke="black" points="74.9275,-44.3492 79.5676,-34.8244 70.0006,-39.3766 74.9275,-44.3492"/>
</a>
<a xlink:href="http://latin.omdoc.org/math?RSL" class="RSL">
<text text-anchor="middle" x="49.5" y="-146.3" font-family="Times New Roman,serif" font-size="14.00">RSL</text>
</a>
</g>
<!-- http://latin.omdoc.org/math?EqUniverse -->
<g id="node11" class="node"><title>http://latin.omdoc.org/math?EqUniverse</title>
<a xlink:href="http://latin.omdoc.org/math?EqUniverse" class="graphtheory">
<ellipse fill="gray" stroke="black" cx="169" cy="-268" rx="52.4675" ry="18"/>
<text text-anchor="middle" x="169" y="-264.3" font-family="Times New Roman,serif" font-size="14.00">EqUniverse</text>
</a>
</g>
<!-- http://latin.omdoc.org/math?EqUniverse&#45;&gt;http://latin.omdoc.org/math?Antisymmetric -->
<g id="edge11" class="edge"><title>http://latin.omdoc.org/math?EqUniverse&#45;&gt;http://latin.omdoc.org/math?Antisymmetric</title>
<a class="graphmeta">
<path fill="none" stroke="black" d="M169,-249.937C169,-241.807 169,-231.876 169,-222.705"/>
<polygon fill="black" stroke="black" points="172.5,-222.441 169,-212.441 165.5,-222.441 172.5,-222.441"/>
</a>
</g>
<!-- http://latin.omdoc.org/math?EqUniverse&#45;&gt;http://latin.omdoc.org/math?SemiLattice -->
<g id="edge13" class="edge"><title>http://latin.omdoc.org/math?EqUniverse&#45;&gt;http://latin.omdoc.org/math?SemiLattice</title>
<a class="graphmeta">
<path fill="none" stroke="black" d="M133.929,-254.501C118.471,-247.034 101.837,-235.855 93,-220 62.0371,-164.447 78.6782,-86.1926 90.8571,-45.6642"/>
<polygon fill="black" stroke="black" points="94.242,-46.5672 93.9018,-35.9778 87.5642,-44.4681 94.242,-46.5672"/>
</a>
</g>
<!-- http://latin.omdoc.org/math?EqUniverse&#45;&gt;http://latin.omdoc.org/math?Order -->
<g id="edge15" class="edge"><title>http://latin.omdoc.org/math?EqUniverse&#45;&gt;http://latin.omdoc.org/math?Order</title>
<a class="graphmeta">
<path fill="none" stroke="black" d="M218.933,-262.315C280.565,-253.553 382.974,-228.601 430,-158 434.698,-150.946 435.208,-142.08 433.995,-133.726"/>
<polygon fill="black" stroke="black" points="437.409,-132.954 431.827,-123.948 430.574,-134.469 437.409,-132.954"/>
</a>
</g>
</g>
</svg>
