<?xml version="1.0" encoding="UTF-8" standalone="no"?>
<!DOCTYPE svg PUBLIC "-//W3C//DTD SVG 1.1//EN"
 "http://www.w3.org/Graphics/SVG/1.1/DTD/svg11.dtd">
<!-- Generated by graphviz version 2.28.0 (20110507.0327)
 -->
<!-- Title: MMT Pages: 1 -->
<svg
 viewBox="0.00 0.00 543.09 260.00" xmlns="http://www.w3.org/2000/svg" xmlns:xlink="http://www.w3.org/1999/xlink">
<g id="graph1" class="graph" transform="scale(1 1) rotate(0) translate(4 256)">
<title>MMT</title>
<polygon fill="white" stroke="white" points="-4,5 -4,-256 540.094,-256 540.094,5 -4,5"/>
<g id="graph2" class="cluster"><title>cluster_local</title>
<polygon fill="none" stroke="black" points="212.094,-64 212.094,-116 366.094,-116 366.094,-64 212.094,-64"/>
</g>
<!-- http://latin.omdoc.org/math?BooleanAlgebra -->
<g id="node2" class="node"><title>http://latin.omdoc.org/math?BooleanAlgebra</title>
<a xlink:href="http://latin.omdoc.org/math?BooleanAlgebra" class="graphtheory">
<ellipse fill="none" stroke="black" cx="289.094" cy="-90" rx="68.3417" ry="18"/>
<text text-anchor="middle" x="289.094" y="-86.3" font-family="Times New Roman,serif" font-size="14.00">BooleanAlgebra</text>
</a>
</g>
<!-- http://latin.omdoc.org/math?RelationAlgebra -->
<g id="node3" class="node"><title>http://latin.omdoc.org/math?RelationAlgebra</title>
<a xlink:href="http://latin.omdoc.org/math?RelationAlgebra" class="graphtheory">
<ellipse fill="gray" stroke="black" cx="72.0943" cy="-18" rx="68.3417" ry="18"/>
<text text-anchor="middle" x="72.0943" y="-14.3" font-family="Times New Roman,serif" font-size="14.00">RelationAlgebra</text>
</a>
</g>
<!-- http://latin.omdoc.org/math?BooleanAlgebra&#45;&gt;http://latin.omdoc.org/math?RelationAlgebra -->
<g id="edge3" class="edge"><title>http://latin.omdoc.org/math?BooleanAlgebra&#45;&gt;http://latin.omdoc.org/math?RelationAlgebra</title>
<a class="graphinclude">
<path fill="none" stroke="black" d="M247.511,-75.5861C212.152,-64.1798 161.235,-47.7552 123.358,-35.5367"/>
<polygon fill="black" stroke="black" points="124.128,-32.1076 113.537,-32.3685 121.979,-38.7696 124.128,-32.1076"/>
</a>
</g>
<!-- http://latin.omdoc.org/math?DerivativeAlgebra -->
<g id="node5" class="node"><title>http://latin.omdoc.org/math?DerivativeAlgebra</title>
<a xlink:href="http://latin.omdoc.org/math?DerivativeAlgebra" class="graphtheory">
<ellipse fill="gray" stroke="black" cx="298.094" cy="-18" rx="75.0904" ry="18"/>
<text text-anchor="middle" x="298.094" y="-14.3" font-family="Times New Roman,serif" font-size="14.00">DerivativeAlgebra</text>
</a>
</g>
<!-- http://latin.omdoc.org/math?BooleanAlgebra&#45;&gt;http://latin.omdoc.org/math?DerivativeAlgebra -->
<g id="edge5" class="edge"><title>http://latin.omdoc.org/math?BooleanAlgebra&#45;&gt;http://latin.omdoc.org/math?DerivativeAlgebra</title>
<a class="graphinclude">
<path fill="none" stroke="black" d="M291.319,-71.6966C292.311,-63.9827 293.503,-54.7125 294.608,-46.1124"/>
<polygon fill="black" stroke="black" points="298.091,-46.469 295.895,-36.1043 291.148,-45.5763 298.091,-46.469"/>
</a>
</g>
<!-- http://latin.omdoc.org/math?ModalAlgebra -->
<g id="node7" class="node"><title>http://latin.omdoc.org/math?ModalAlgebra</title>
<a xlink:href="http://latin.omdoc.org/math?ModalAlgebra" class="graphtheory">
<ellipse fill="gray" stroke="black" cx="473.094" cy="-18" rx="62.0922" ry="18"/>
<text text-anchor="middle" x="473.094" y="-14.3" font-family="Times New Roman,serif" font-size="14.00">ModalAlgebra</text>
</a>
</g>
<!-- http://latin.omdoc.org/math?BooleanAlgebra&#45;&gt;http://latin.omdoc.org/math?ModalAlgebra -->
<g id="edge7" class="edge"><title>http://latin.omdoc.org/math?BooleanAlgebra&#45;&gt;http://latin.omdoc.org/math?ModalAlgebra</title>
<a class="graphinclude">
<path fill="none" stroke="black" d="M326.329,-74.8345C355.419,-63.7676 395.995,-48.3314 427.111,-36.4936"/>
<polygon fill="black" stroke="black" points="428.753,-39.6137 436.855,-32.7867 426.264,-33.0712 428.753,-39.6137"/>
</a>
</g>
<!-- http://latin.omdoc.org/math?DistributiveLattice -->
<g id="node9" class="node"><title>http://latin.omdoc.org/math?DistributiveLattice</title>
<a xlink:href="http://latin.omdoc.org/math?DistributiveLattice" class="graphtheory">
<ellipse fill="gray" stroke="black" cx="99.0943" cy="-162" rx="76.5394" ry="18"/>
<text text-anchor="middle" x="99.0943" y="-158.3" font-family="Times New Roman,serif" font-size="14.00">DistributiveLattice</text>
</a>
</g>
<!-- http://latin.omdoc.org/math?DistributiveLattice&#45;&gt;http://latin.omdoc.org/math?BooleanAlgebra -->
<g id="edge9" class="edge"><title>http://latin.omdoc.org/math?DistributiveLattice&#45;&gt;http://latin.omdoc.org/math?BooleanAlgebra</title>
<a class="graphinclude">
<path fill="none" stroke="black" d="M138.462,-146.496C168.408,-135.463 209.74,-120.236 241.535,-108.522"/>
<polygon fill="black" stroke="black" points="242.9,-111.749 251.073,-105.008 240.48,-105.181 242.9,-111.749"/>
</a>
</g>
<!-- http://latin.omdoc.org/math?ComplementedLattice -->
<g id="node11" class="node"><title>http://latin.omdoc.org/math?ComplementedLattice</title>
<a xlink:href="http://latin.omdoc.org/math?ComplementedLattice" class="graphtheory">
<ellipse fill="gray" stroke="black" cx="284.094" cy="-162" rx="90.0136" ry="18"/>
<text text-anchor="middle" x="284.094" y="-158.3" font-family="Times New Roman,serif" font-size="14.00">ComplementedLattice</text>
</a>
</g>
<!-- http://latin.omdoc.org/math?ComplementedLattice&#45;&gt;http://latin.omdoc.org/math?BooleanAlgebra -->
<g id="edge11" class="edge"><title>http://latin.omdoc.org/math?ComplementedLattice&#45;&gt;http://latin.omdoc.org/math?BooleanAlgebra</title>
<a class="graphinclude">
<path fill="none" stroke="black" d="M285.33,-143.697C285.881,-135.983 286.543,-126.712 287.158,-118.112"/>
<polygon fill="black" stroke="black" points="290.651,-118.328 287.873,-108.104 283.669,-117.83 290.651,-118.328"/>
</a>
</g>
<!-- http://latin.omdoc.org/math?EqUniverse -->
<g id="node13" class="node"><title>http://latin.omdoc.org/math?EqUniverse</title>
<a xlink:href="http://latin.omdoc.org/math?EqUniverse" class="graphtheory">
<ellipse fill="gray" stroke="black" cx="343.094" cy="-234" rx="52.4675" ry="18"/>
<text text-anchor="middle" x="343.094" y="-230.3" font-family="Times New Roman,serif" font-size="14.00">EqUniverse</text>
</a>
</g>
<!-- http://latin.omdoc.org/math?EqUniverse&#45;&gt;http://latin.omdoc.org/math?BooleanAlgebra -->
<g id="edge13" class="edge"><title>http://latin.omdoc.org/math?EqUniverse&#45;&gt;http://latin.omdoc.org/math?BooleanAlgebra</title>
<a class="graphmeta">
<path fill="none" stroke="black" d="M359.709,-216.737C376.249,-198.495 397.279,-168.281 383.094,-144 373.852,-128.178 357.951,-116.71 341.829,-108.578"/>
<polygon fill="black" stroke="black" points="342.902,-105.217 332.359,-104.168 339.947,-111.563 342.902,-105.217"/>
</a>
</g>
<!-- http://latin.omdoc.org/math?EqUniverse&#45;&gt;http://latin.omdoc.org/math?RelationAlgebra -->
<g id="edge21" class="edge"><title>http://latin.omdoc.org/math?EqUniverse&#45;&gt;http://latin.omdoc.org/math?RelationAlgebra</title>
<a class="graphmeta">
<path fill="none" stroke="black" d="M290.757,-232.5C206.867,-230.465 48.1437,-221.128 13.0943,-180 -21.2274,-139.726 20.5565,-77.761 49.3069,-43.6427"/>
<polygon fill="black" stroke="black" points="52.0248,-45.8507 55.9243,-35.9995 46.7327,-41.2688 52.0248,-45.8507"/>
</a>
</g>
<!-- http://latin.omdoc.org/math?EqUniverse&#45;&gt;http://latin.omdoc.org/math?DerivativeAlgebra -->
<g id="edge17" class="edge"><title>http://latin.omdoc.org/math?EqUniverse&#45;&gt;http://latin.omdoc.org/math?DerivativeAlgebra</title>
<a class="graphmeta">
<path fill="none" stroke="black" d="M367.001,-217.954C379.379,-208.692 393.294,-195.609 400.094,-180 406.485,-165.332 402.949,-159.743 400.094,-144 393.319,-106.636 394.133,-93.3957 370.094,-64 362.148,-54.2829 351.521,-46.0512 340.877,-39.3918"/>
<polygon fill="black" stroke="black" points="342.385,-36.2183 331.99,-34.1697 338.838,-42.2535 342.385,-36.2183"/>
</a>
</g>
<!-- http://latin.omdoc.org/math?EqUniverse&#45;&gt;http://latin.omdoc.org/math?ModalAlgebra -->
<g id="edge23" class="edge"><title>http://latin.omdoc.org/math?EqUniverse&#45;&gt;http://latin.omdoc.org/math?ModalAlgebra</title>
<a class="graphmeta">
<path fill="none" stroke="black" d="M370.597,-218.546C385.848,-209.311 404.098,-196.061 416.094,-180 446.676,-139.057 461.915,-80.2704 468.609,-46.223"/>
<polygon fill="black" stroke="black" points="472.106,-46.5629 470.491,-36.0919 465.224,-45.2846 472.106,-46.5629"/>
</a>
</g>
<!-- http://latin.omdoc.org/math?EqUniverse&#45;&gt;http://latin.omdoc.org/math?DistributiveLattice -->
<g id="edge15" class="edge"><title>http://latin.omdoc.org/math?EqUniverse&#45;&gt;http://latin.omdoc.org/math?DistributiveLattice</title>
<a class="graphmeta">
<path fill="none" stroke="black" d="M304.162,-221.831C264.05,-210.323 201.124,-192.271 155.551,-179.197"/>
<polygon fill="black" stroke="black" points="156.393,-175.797 145.815,-176.404 154.462,-182.526 156.393,-175.797"/>
</a>
</g>
<!-- http://latin.omdoc.org/math?EqUniverse&#45;&gt;http://latin.omdoc.org/math?ComplementedLattice -->
<g id="edge19" class="edge"><title>http://latin.omdoc.org/math?EqUniverse&#45;&gt;http://latin.omdoc.org/math?ComplementedLattice</title>
<a class="graphmeta">
<path fill="none" stroke="black" d="M329.112,-216.411C321.871,-207.82 312.886,-197.159 304.852,-187.627"/>
<polygon fill="black" stroke="black" points="307.507,-185.347 298.386,-179.956 302.154,-189.858 307.507,-185.347"/>
</a>
</g>
</g>
</svg>
