<?xml version="1.0" encoding="UTF-8" standalone="no"?>
<!DOCTYPE svg PUBLIC "-//W3C//DTD SVG 1.1//EN"
 "http://www.w3.org/Graphics/SVG/1.1/DTD/svg11.dtd">
<!-- Generated by graphviz version 2.28.0 (20110507.0327)
 -->
<!-- Title: MMT Pages: 1 -->
<svg
 viewBox="0.00 0.00 209.00 188.00" xmlns="http://www.w3.org/2000/svg" xmlns:xlink="http://www.w3.org/1999/xlink">
<g id="graph1" class="graph" transform="scale(1 1) rotate(0) translate(4 184)">
<title>MMT</title>
<polygon fill="white" stroke="white" points="-4,5 -4,-184 206,-184 206,5 -4,5"/>
<g id="graph2" class="cluster"><title>cluster_local</title>
<polygon fill="none" stroke="black" points="8,-64 8,-116 156,-116 156,-64 8,-64"/>
</g>
<!-- http://latin.omdoc.org/math?ClosureSystem -->
<g id="node2" class="node"><title>http://latin.omdoc.org/math?ClosureSystem</title>
<a xlink:href="http://latin.omdoc.org/math?ClosureSystem" class="graphtheory">
<ellipse fill="none" stroke="black" cx="82" cy="-90" rx="65.4659" ry="18"/>
<text text-anchor="middle" x="82" y="-86.3" font-family="Times New Roman,serif" font-size="14.00">ClosureSystem</text>
</a>
</g>
<!-- http://latin.omdoc.org/math?ClosedTopology -->
<g id="node3" class="node"><title>http://latin.omdoc.org/math?ClosedTopology</title>
<a xlink:href="http://latin.omdoc.org/math?ClosedTopology" class="graphtheory">
<ellipse fill="gray" stroke="black" cx="129" cy="-18" rx="72.192" ry="18"/>
<text text-anchor="middle" x="129" y="-14.3" font-family="Times New Roman,serif" font-size="14.00">ClosedTopology</text>
</a>
</g>
<!-- http://latin.omdoc.org/math?ClosureSystem&#45;&gt;http://latin.omdoc.org/math?ClosedTopology -->
<g id="edge3" class="edge"><title>http://latin.omdoc.org/math?ClosureSystem&#45;&gt;http://latin.omdoc.org/math?ClosedTopology</title>
<a class="graphinclude">
<path fill="none" stroke="black" d="M93.3774,-72.055C98.9773,-63.7147 105.842,-53.4908 112.045,-44.2517"/>
<polygon fill="black" stroke="black" points="115.059,-46.0423 117.727,-35.789 109.247,-42.1402 115.059,-46.0423"/>
</a>
</g>
<!-- http://latin.omdoc.org/logics/syntax?PowerSorts -->
<g id="node5" class="node"><title>http://latin.omdoc.org/logics/syntax?PowerSorts</title>
<a xlink:href="http://latin.omdoc.org/logics/syntax?PowerSorts" class="graphtheory">
<ellipse fill="gray" stroke="black" cx="129" cy="-162" rx="53.4184" ry="18"/>
<text text-anchor="middle" x="129" y="-158.3" font-family="Times New Roman,serif" font-size="14.00">PowerSorts</text>
</a>
</g>
<!-- http://latin.omdoc.org/logics/syntax?PowerSorts&#45;&gt;http://latin.omdoc.org/math?ClosureSystem -->
<g id="edge5" class="edge"><title>http://latin.omdoc.org/logics/syntax?PowerSorts&#45;&gt;http://latin.omdoc.org/math?ClosureSystem</title>
<a class="graphmeta">
<path fill="none" stroke="black" d="M117.623,-144.055C112.023,-135.715 105.158,-125.491 98.9547,-116.252"/>
<polygon fill="black" stroke="black" points="101.753,-114.14 93.2726,-107.789 95.9412,-118.042 101.753,-114.14"/>
</a>
</g>
<!-- http://latin.omdoc.org/logics/syntax?PowerSorts&#45;&gt;http://latin.omdoc.org/math?ClosedTopology -->
<g id="edge7" class="edge"><title>http://latin.omdoc.org/logics/syntax?PowerSorts&#45;&gt;http://latin.omdoc.org/math?ClosedTopology</title>
<a class="graphmeta">
<path fill="none" stroke="black" d="M144.067,-144.355C150.288,-136.38 156.787,-126.327 160,-116 166.865,-93.9322 166.865,-86.0678 160,-64 157.841,-57.0617 154.2,-50.2469 150.155,-44.1028"/>
<polygon fill="black" stroke="black" points="152.75,-41.7164 144.067,-35.6447 147.068,-45.8056 152.75,-41.7164"/>
</a>
</g>
</g>
</svg>
