<?xml version="1.0" encoding="UTF-8" standalone="no"?>
<!DOCTYPE svg PUBLIC "-//W3C//DTD SVG 1.1//EN"
 "http://www.w3.org/Graphics/SVG/1.1/DTD/svg11.dtd">
<!-- Generated by graphviz version 2.28.0 (20110507.0327)
 -->
<!-- Title: MMT Pages: 1 -->
<svg
 viewBox="0.00 0.00 208.00 204.00" xmlns="http://www.w3.org/2000/svg" xmlns:xlink="http://www.w3.org/1999/xlink">
<g id="graph1" class="graph" transform="scale(1 1) rotate(0) translate(4 200)">
<title>MMT</title>
<polygon fill="white" stroke="white" points="-4,5 -4,-200 205,-200 205,5 -4,5"/>
<g id="graph2" class="cluster"><title>cluster_local</title>
<polygon fill="none" stroke="black" points="8,-8 8,-60 192,-60 192,-8 8,-8"/>
</g>
<!-- http://latin.omdoc.org/math?ClosenessTopology -->
<g id="node2" class="node"><title>http://latin.omdoc.org/math?ClosenessTopology</title>
<a xlink:href="http://latin.omdoc.org/math?ClosenessTopology" class="graphtheory">
<ellipse fill="none" stroke="black" cx="100" cy="-34" rx="83.2649" ry="18"/>
<text text-anchor="middle" x="100" y="-30.3" font-family="Times New Roman,serif" font-size="14.00">ClosenessTopology</text>
</a>
</g>
<!-- http://latin.omdoc.org/math?Closeness -->
<g id="node3" class="node"><title>http://latin.omdoc.org/math?Closeness</title>
<a xlink:href="http://latin.omdoc.org/math?Closeness" class="graphtheory">
<ellipse fill="gray" stroke="black" cx="138" cy="-106" rx="48.1437" ry="18"/>
<text text-anchor="middle" x="138" y="-102.3" font-family="Times New Roman,serif" font-size="14.00">Closeness</text>
</a>
</g>
<!-- http://latin.omdoc.org/math?Closeness&#45;&gt;http://latin.omdoc.org/math?ClosenessTopology -->
<g id="edge3" class="edge"><title>http://latin.omdoc.org/math?Closeness&#45;&gt;http://latin.omdoc.org/math?ClosenessTopology</title>
<a class="graphinclude">
<path fill="none" stroke="black" d="M128.801,-88.055C124.432,-80.0067 119.111,-70.2046 114.237,-61.2259"/>
<polygon fill="black" stroke="black" points="117.225,-59.394 109.378,-52.2753 111.073,-62.7337 117.225,-59.394"/>
</a>
</g>
<!-- http://latin.omdoc.org/logics/syntax?PowerSorts -->
<g id="node5" class="node"><title>http://latin.omdoc.org/logics/syntax?PowerSorts</title>
<a xlink:href="http://latin.omdoc.org/logics/syntax?PowerSorts" class="graphtheory">
<ellipse fill="gray" stroke="black" cx="100" cy="-178" rx="53.4184" ry="18"/>
<text text-anchor="middle" x="100" y="-174.3" font-family="Times New Roman,serif" font-size="14.00">PowerSorts</text>
</a>
</g>
<!-- http://latin.omdoc.org/logics/syntax?PowerSorts&#45;&gt;http://latin.omdoc.org/math?ClosenessTopology -->
<g id="edge5" class="edge"><title>http://latin.omdoc.org/logics/syntax?PowerSorts&#45;&gt;http://latin.omdoc.org/math?ClosenessTopology</title>
<a class="graphmeta">
<path fill="none" stroke="black" d="M92.1071,-159.745C87.8928,-149.577 83.1428,-136.327 81,-124 78.2598,-108.236 78.2598,-103.764 81,-88 82.5234,-79.2364 85.3645,-70.0062 88.3941,-61.7484"/>
<polygon fill="black" stroke="black" points="91.7242,-62.8428 92.1071,-52.2548 85.2051,-60.2931 91.7242,-62.8428"/>
</a>
</g>
<!-- http://latin.omdoc.org/logics/syntax?PowerSorts&#45;&gt;http://latin.omdoc.org/math?Closeness -->
<g id="edge7" class="edge"><title>http://latin.omdoc.org/logics/syntax?PowerSorts&#45;&gt;http://latin.omdoc.org/math?Closeness</title>
<a class="graphmeta">
<path fill="none" stroke="black" d="M109.199,-160.055C113.633,-151.887 119.048,-141.912 123.981,-132.824"/>
<polygon fill="black" stroke="black" points="127.191,-134.247 128.886,-123.789 121.039,-130.908 127.191,-134.247"/>
</a>
</g>
</g>
</svg>
