<?xml version="1.0" encoding="UTF-8" standalone="no"?>
<!DOCTYPE svg PUBLIC "-//W3C//DTD SVG 1.1//EN"
 "http://www.w3.org/Graphics/SVG/1.1/DTD/svg11.dtd">
<!-- Generated by graphviz version 2.28.0 (20110507.0327)
 -->
<!-- Title: MMT Pages: 1 -->
<svg width="219pt" height="188pt"
 viewBox="0.00 0.00 219.00 188.00" xmlns="http://www.w3.org/2000/svg" xmlns:xlink="http://www.w3.org/1999/xlink">
<g id="graph1" class="graph" transform="scale(1 1) rotate(0) translate(4 184)">
<title>MMT</title>
<polygon fill="white" stroke="white" points="-4,5 -4,-184 216,-184 216,5 -4,5"/>
<g id="graph2" class="cluster"><title>cluster_local</title>
<polygon fill="none" stroke="black" points="8,-64 8,-116 166,-116 166,-64 8,-64"/>
</g>
<!-- http://latin.omdoc.org/math?ClosureOperator -->
<g id="node2" class="node"><title>http://latin.omdoc.org/math?ClosureOperator</title>
<a xlink:href="http://latin.omdoc.org/math?ClosureOperator" class="graphtheory">
<ellipse fill="none" stroke="black" cx="87" cy="-90" rx="71.2405" ry="18"/>
<text text-anchor="middle" x="87" y="-86.3" font-family="Times New Roman,serif" font-size="14.00">ClosureOperator</text>
</a>
</g>
<!-- http://latin.omdoc.org/math?ClosureTopology -->
<g id="node3" class="node"><title>http://latin.omdoc.org/math?ClosureTopology</title>
<a xlink:href="http://latin.omdoc.org/math?ClosureTopology" class="graphtheory">
<ellipse fill="gray" stroke="black" cx="136" cy="-18" rx="75.0904" ry="18"/>
<text text-anchor="middle" x="136" y="-14.3" font-family="Times New Roman,serif" font-size="14.00">ClosureTopology</text>
</a>
</g>
<!-- http://latin.omdoc.org/math?ClosureOperator&#45;&gt;http://latin.omdoc.org/math?ClosureTopology -->
<g id="edge3" class="edge"><title>http://latin.omdoc.org/math?ClosureOperator&#45;&gt;http://latin.omdoc.org/math?ClosureTopology</title>
<a class="graphinclude">
<path fill="none" stroke="black" d="M98.8615,-72.055C104.7,-63.7147 111.856,-53.4908 118.324,-44.2517"/>
<polygon fill="black" stroke="black" points="121.38,-45.9885 124.248,-35.789 115.646,-41.9742 121.38,-45.9885"/>
</a>
</g>
<!-- http://latin.omdoc.org/logics/syntax?PowerSorts -->
<g id="node5" class="node"><title>http://latin.omdoc.org/logics/syntax?PowerSorts</title>
<a xlink:href="http://latin.omdoc.org/logics/syntax?PowerSorts" class="graphtheory">
<ellipse fill="gray" stroke="black" cx="136" cy="-162" rx="53.4184" ry="18"/>
<text text-anchor="middle" x="136" y="-158.3" font-family="Times New Roman,serif" font-size="14.00">PowerSorts</text>
</a>
</g>
<!-- http://latin.omdoc.org/logics/syntax?PowerSorts&#45;&gt;http://latin.omdoc.org/math?ClosureOperator -->
<g id="edge5" class="edge"><title>http://latin.omdoc.org/logics/syntax?PowerSorts&#45;&gt;http://latin.omdoc.org/math?ClosureOperator</title>
<a class="graphmeta">
<path fill="none" stroke="black" d="M124.388,-144.411C118.494,-135.992 111.209,-125.585 104.64,-116.201"/>
<polygon fill="black" stroke="black" points="107.471,-114.141 98.8693,-107.956 101.737,-118.156 107.471,-114.141"/>
</a>
</g>
<!-- http://latin.omdoc.org/logics/syntax?PowerSorts&#45;&gt;http://latin.omdoc.org/math?ClosureTopology -->
<g id="edge7" class="edge"><title>http://latin.omdoc.org/logics/syntax?PowerSorts&#45;&gt;http://latin.omdoc.org/math?ClosureTopology</title>
<a class="graphmeta">
<path fill="none" stroke="black" d="M152.502,-144.592C159.321,-136.665 166.451,-126.583 170,-116 177.347,-94.0879 177.347,-85.9121 170,-64 167.603,-56.8515 163.572,-49.9322 159.107,-43.7508"/>
<polygon fill="black" stroke="black" points="161.801,-41.5142 152.862,-35.827 156.303,-45.8474 161.801,-41.5142"/>
</a>
</g>
</g>
</svg>
