<?xml version="1.0" encoding="UTF-8" standalone="no"?>
<!DOCTYPE svg PUBLIC "-//W3C//DTD SVG 1.1//EN"
 "http://www.w3.org/Graphics/SVG/1.1/DTD/svg11.dtd">
<!-- Generated by graphviz version 2.28.0 (20110507.0327)
 -->
<!-- Title: MMT Pages: 1 -->
<svg
 viewBox="0.00 0.00 220.00 204.00" xmlns="http://www.w3.org/2000/svg" xmlns:xlink="http://www.w3.org/1999/xlink">
<g id="graph1" class="graph" transform="scale(1 1) rotate(0) translate(4 200)">
<title>MMT</title>
<polygon fill="white" stroke="white" points="-4,5 -4,-200 217,-200 217,5 -4,5"/>
<g id="graph2" class="cluster"><title>cluster_local</title>
<polygon fill="none" stroke="black" points="8,-8 8,-60 174,-60 174,-8 8,-8"/>
</g>
<!-- http://latin.omdoc.org/math?ClosureTopology -->
<g id="node2" class="node"><title>http://latin.omdoc.org/math?ClosureTopology</title>
<a xlink:href="http://latin.omdoc.org/math?ClosureTopology" class="graphtheory">
<ellipse fill="none" stroke="black" cx="91" cy="-34" rx="75.0904" ry="18"/>
<text text-anchor="middle" x="91" y="-30.3" font-family="Times New Roman,serif" font-size="14.00">ClosureTopology</text>
</a>
</g>
<!-- http://latin.omdoc.org/math?ClosureOperator -->
<g id="node3" class="node"><title>http://latin.omdoc.org/math?ClosureOperator</title>
<a xlink:href="http://latin.omdoc.org/math?ClosureOperator" class="graphtheory">
<ellipse fill="gray" stroke="black" cx="141" cy="-106" rx="71.2405" ry="18"/>
<text text-anchor="middle" x="141" y="-102.3" font-family="Times New Roman,serif" font-size="14.00">ClosureOperator</text>
</a>
</g>
<!-- http://latin.omdoc.org/math?ClosureOperator&#45;&gt;http://latin.omdoc.org/math?ClosureTopology -->
<g id="edge3" class="edge"><title>http://latin.omdoc.org/math?ClosureOperator&#45;&gt;http://latin.omdoc.org/math?ClosureTopology</title>
<a class="graphinclude">
<path fill="none" stroke="black" d="M128.896,-88.055C122.878,-79.6287 115.486,-69.2798 108.833,-59.9663"/>
<polygon fill="black" stroke="black" points="111.653,-57.892 102.992,-51.789 105.956,-61.9607 111.653,-57.892"/>
</a>
</g>
<!-- http://latin.omdoc.org/logics/syntax?PowerSorts -->
<g id="node5" class="node"><title>http://latin.omdoc.org/logics/syntax?PowerSorts</title>
<a xlink:href="http://latin.omdoc.org/logics/syntax?PowerSorts" class="graphtheory">
<ellipse fill="gray" stroke="black" cx="91" cy="-178" rx="53.4184" ry="18"/>
<text text-anchor="middle" x="91" y="-174.3" font-family="Times New Roman,serif" font-size="14.00">PowerSorts</text>
</a>
</g>
<!-- http://latin.omdoc.org/logics/syntax?PowerSorts&#45;&gt;http://latin.omdoc.org/math?ClosureTopology -->
<g id="edge5" class="edge"><title>http://latin.omdoc.org/logics/syntax?PowerSorts&#45;&gt;http://latin.omdoc.org/math?ClosureTopology</title>
<a class="graphmeta">
<path fill="none" stroke="black" d="M78.5853,-160.316C71.947,-150.337 64.447,-137.087 61,-124 56.9248,-108.528 56.9248,-103.472 61,-88 63.4918,-78.5392 68.1017,-68.9933 72.973,-60.6599"/>
<polygon fill="black" stroke="black" points="75.9548,-62.4926 78.2735,-52.1546 70.014,-58.7903 75.9548,-62.4926"/>
</a>
</g>
<!-- http://latin.omdoc.org/logics/syntax?PowerSorts&#45;&gt;http://latin.omdoc.org/math?ClosureOperator -->
<g id="edge7" class="edge"><title>http://latin.omdoc.org/logics/syntax?PowerSorts&#45;&gt;http://latin.omdoc.org/math?ClosureOperator</title>
<a class="graphmeta">
<path fill="none" stroke="black" d="M102.849,-160.411C108.863,-151.992 116.296,-141.585 122.999,-132.201"/>
<polygon fill="black" stroke="black" points="125.924,-134.128 128.888,-123.956 120.228,-130.059 125.924,-134.128"/>
</a>
</g>
</g>
</svg>
