<?xml version="1.0" encoding="UTF-8" standalone="no"?>
<!DOCTYPE svg PUBLIC "-//W3C//DTD SVG 1.1//EN"
 "http://www.w3.org/Graphics/SVG/1.1/DTD/svg11.dtd">
<!-- Generated by graphviz version 2.28.0 (20110507.0327)
 -->
<!-- Title: MMT Pages: 1 -->
<svg width="161pt" height="260pt"
 viewBox="0.00 0.00 161.00 260.00" xmlns="http://www.w3.org/2000/svg" xmlns:xlink="http://www.w3.org/1999/xlink">
<g id="graph1" class="graph" transform="scale(1 1) rotate(0) translate(4 256)">
<title>MMT</title>
<polygon fill="white" stroke="white" points="-4,5 -4,-256 158,-256 158,5 -4,5"/>
<g id="graph2" class="cluster"><title>cluster_local</title>
<polygon fill="none" stroke="black" points="8,-64 8,-116 134,-116 134,-64 8,-64"/>
</g>
<!-- http://latin.omdoc.org/math?Congruence -->
<g id="node2" class="node"><title>http://latin.omdoc.org/math?Congruence</title>
<a xlink:href="http://latin.omdoc.org/math?Congruence" class="graphtheory">
<ellipse fill="none" stroke="black" cx="71" cy="-90" rx="54.3924" ry="18"/>
<text text-anchor="middle" x="71" y="-86.3" font-family="Times New Roman,serif" font-size="14.00">Congruence</text>
</a>
</g>
<!-- http://latin.omdoc.org/math?Equality -->
<g id="node3" class="node"><title>http://latin.omdoc.org/math?Equality</title>
<a xlink:href="http://latin.omdoc.org/math?Equality" class="graphtheory">
<ellipse fill="gray" stroke="black" cx="112" cy="-18" rx="39.9464" ry="18"/>
<text text-anchor="middle" x="112" y="-14.3" font-family="Times New Roman,serif" font-size="14.00">Equality</text>
</a>
</g>
<!-- http://latin.omdoc.org/math?Congruence&#45;&gt;http://latin.omdoc.org/math?Equality -->
<g id="edge3" class="edge"><title>http://latin.omdoc.org/math?Congruence&#45;&gt;http://latin.omdoc.org/math?Equality</title>
<a class="graphinclude">
<path fill="none" stroke="black" d="M80.925,-72.055C85.7596,-63.8006 91.6749,-53.7014 97.0422,-44.5378"/>
<polygon fill="black" stroke="black" points="100.132,-46.1868 102.166,-35.789 94.0923,-42.6489 100.132,-46.1868"/>
</a>
</g>
<!-- http://latin.omdoc.org/math?Relation -->
<g id="node5" class="node"><title>http://latin.omdoc.org/math?Relation</title>
<a xlink:href="http://latin.omdoc.org/math?Relation" class="graphtheory">
<ellipse fill="gray" stroke="black" cx="86" cy="-162" rx="39.9464" ry="18"/>
<text text-anchor="middle" x="86" y="-158.3" font-family="Times New Roman,serif" font-size="14.00">Relation</text>
</a>
</g>
<!-- http://latin.omdoc.org/math?Relation&#45;&gt;http://latin.omdoc.org/math?Congruence -->
<g id="edge5" class="edge"><title>http://latin.omdoc.org/math?Relation&#45;&gt;http://latin.omdoc.org/math?Congruence</title>
<a class="graphinclude">
<path fill="none" stroke="black" d="M82.3689,-144.055C80.6988,-136.261 78.6761,-126.822 76.8026,-118.079"/>
<polygon fill="black" stroke="black" points="80.2195,-117.32 74.7018,-108.275 73.3749,-118.787 80.2195,-117.32"/>
</a>
</g>
<!-- http://latin.omdoc.org/math?Universe -->
<g id="node7" class="node"><title>http://latin.omdoc.org/math?Universe</title>
<a xlink:href="http://latin.omdoc.org/math?Universe" class="graphtheory">
<ellipse fill="gray" stroke="black" cx="86" cy="-234" rx="42.3701" ry="18"/>
<text text-anchor="middle" x="86" y="-230.3" font-family="Times New Roman,serif" font-size="14.00">Universe</text>
</a>
</g>
<!-- http://latin.omdoc.org/math?Universe&#45;&gt;http://latin.omdoc.org/math?Congruence -->
<g id="edge7" class="edge"><title>http://latin.omdoc.org/math?Universe&#45;&gt;http://latin.omdoc.org/math?Congruence</title>
<a class="graphmeta">
<path fill="none" stroke="black" d="M66.1376,-217.925C55.2885,-208.393 42.8924,-195.053 37,-180 31.1679,-165.101 32.4985,-159.354 37,-144 39.9218,-134.034 45.3573,-124.166 51.0384,-115.696"/>
<polygon fill="black" stroke="black" points="53.9805,-117.599 56.9526,-107.429 48.2875,-113.526 53.9805,-117.599"/>
</a>
</g>
<!-- http://latin.omdoc.org/math?Universe&#45;&gt;http://latin.omdoc.org/math?Equality -->
<g id="edge11" class="edge"><title>http://latin.omdoc.org/math?Universe&#45;&gt;http://latin.omdoc.org/math?Equality</title>
<a class="graphmeta">
<path fill="none" stroke="black" d="M105.854,-217.597C116.555,-208.046 128.805,-194.796 135,-180 154.918,-132.429 151.356,-113.813 138,-64 136.147,-57.0907 132.949,-50.145 129.415,-43.8481"/>
<polygon fill="black" stroke="black" points="132.314,-41.8789 124.117,-35.1664 126.339,-45.5256 132.314,-41.8789"/>
</a>
</g>
<!-- http://latin.omdoc.org/math?Universe&#45;&gt;http://latin.omdoc.org/math?Relation -->
<g id="edge9" class="edge"><title>http://latin.omdoc.org/math?Universe&#45;&gt;http://latin.omdoc.org/math?Relation</title>
<a class="graphmeta">
<path fill="none" stroke="black" d="M86,-215.697C86,-207.983 86,-198.712 86,-190.112"/>
<polygon fill="black" stroke="black" points="89.5001,-190.104 86,-180.104 82.5001,-190.104 89.5001,-190.104"/>
</a>
</g>
</g>
</svg>
