<?xml version="1.0" encoding="UTF-8" standalone="no"?>
<!DOCTYPE svg PUBLIC "-//W3C//DTD SVG 1.1//EN"
 "http://www.w3.org/Graphics/SVG/1.1/DTD/svg11.dtd">
<!-- Generated by graphviz version 2.28.0 (20110507.0327)
 -->
<!-- Title: MMT Pages: 1 -->
<svg
 viewBox="0.00 0.00 250.00 204.00" xmlns="http://www.w3.org/2000/svg" xmlns:xlink="http://www.w3.org/1999/xlink">
<g id="graph1" class="graph" transform="scale(1 1) rotate(0) translate(4 200)">
<title>MMT</title>
<polygon fill="white" stroke="white" points="-4,5 -4,-200 247,-200 247,5 -4,5"/>
<g id="graph2" class="cluster"><title>cluster_local</title>
<polygon fill="none" stroke="black" points="8,-8 8,-60 178,-60 178,-8 8,-8"/>
</g>
<!-- http://latin.omdoc.org/math?DeMorganAlgebra -->
<g id="node2" class="node"><title>http://latin.omdoc.org/math?DeMorganAlgebra</title>
<a xlink:href="http://latin.omdoc.org/math?DeMorganAlgebra" class="graphtheory">
<ellipse fill="none" stroke="black" cx="93" cy="-34" rx="77.0154" ry="18"/>
<text text-anchor="middle" x="93" y="-30.3" font-family="Times New Roman,serif" font-size="14.00">DeMorganAlgebra</text>
</a>
</g>
<!-- http://latin.omdoc.org/math?ComplementedLattice -->
<g id="node3" class="node"><title>http://latin.omdoc.org/math?ComplementedLattice</title>
<a xlink:href="http://latin.omdoc.org/math?ComplementedLattice" class="graphtheory">
<ellipse fill="gray" stroke="black" cx="152" cy="-106" rx="90.0136" ry="18"/>
<text text-anchor="middle" x="152" y="-102.3" font-family="Times New Roman,serif" font-size="14.00">ComplementedLattice</text>
</a>
</g>
<!-- http://latin.omdoc.org/math?ComplementedLattice&#45;&gt;http://latin.omdoc.org/math?DeMorganAlgebra -->
<g id="edge3" class="edge"><title>http://latin.omdoc.org/math?ComplementedLattice&#45;&gt;http://latin.omdoc.org/math?DeMorganAlgebra</title>
<a class="graphinclude">
<path fill="none" stroke="black" d="M137.718,-88.055C130.543,-79.5427 121.715,-69.0684 113.803,-59.6815"/>
<polygon fill="black" stroke="black" points="116.272,-57.1796 107.151,-51.789 110.919,-61.691 116.272,-57.1796"/>
</a>
</g>
<!-- http://latin.omdoc.org/math?EqUniverse -->
<g id="node5" class="node"><title>http://latin.omdoc.org/math?EqUniverse</title>
<a xlink:href="http://latin.omdoc.org/math?EqUniverse" class="graphtheory">
<ellipse fill="gray" stroke="black" cx="93" cy="-178" rx="52.4675" ry="18"/>
<text text-anchor="middle" x="93" y="-174.3" font-family="Times New Roman,serif" font-size="14.00">EqUniverse</text>
</a>
</g>
<!-- http://latin.omdoc.org/math?EqUniverse&#45;&gt;http://latin.omdoc.org/math?DeMorganAlgebra -->
<g id="edge5" class="edge"><title>http://latin.omdoc.org/math?EqUniverse&#45;&gt;http://latin.omdoc.org/math?DeMorganAlgebra</title>
<a class="graphmeta">
<path fill="none" stroke="black" d="M76.1008,-160.534C67.376,-150.827 57.614,-137.773 53,-124 47.9175,-108.829 47.9175,-103.171 53,-88 56.4056,-77.8344 62.6157,-68.0602 69.1433,-59.7345"/>
<polygon fill="black" stroke="black" points="71.9428,-61.843 75.6845,-51.9309 66.5782,-57.3462 71.9428,-61.843"/>
</a>
</g>
<!-- http://latin.omdoc.org/math?EqUniverse&#45;&gt;http://latin.omdoc.org/math?ComplementedLattice -->
<g id="edge7" class="edge"><title>http://latin.omdoc.org/math?EqUniverse&#45;&gt;http://latin.omdoc.org/math?ComplementedLattice</title>
<a class="graphmeta">
<path fill="none" stroke="black" d="M106.982,-160.411C114.223,-151.82 123.209,-141.159 131.243,-131.627"/>
<polygon fill="black" stroke="black" points="133.94,-133.858 137.708,-123.956 128.587,-129.347 133.94,-133.858"/>
</a>
</g>
</g>
</svg>
