<?xml version="1.0" encoding="UTF-8" standalone="no"?>
<!DOCTYPE svg PUBLIC "-//W3C//DTD SVG 1.1//EN"
 "http://www.w3.org/Graphics/SVG/1.1/DTD/svg11.dtd">
<!-- Generated by graphviz version 2.28.0 (20110507.0327)
 -->
<!-- Title: MMT Pages: 1 -->
<svg
 viewBox="0.00 0.00 146.98 260.00" xmlns="http://www.w3.org/2000/svg" xmlns:xlink="http://www.w3.org/1999/xlink">
<g id="graph1" class="graph" transform="scale(1 1) rotate(0) translate(4 256)">
<title>MMT</title>
<polygon fill="white" stroke="white" points="-4,5 -4,-256 143.978,-256 143.978,5 -4,5"/>
<g id="graph2" class="cluster"><title>cluster_local</title>
<polygon fill="none" stroke="black" points="26.0215,-64 26.0215,-116 108.022,-116 108.022,-64 26.0215,-64"/>
</g>
<!-- http://latin.omdoc.org/math?Dense -->
<g id="node2" class="node"><title>http://latin.omdoc.org/math?Dense</title>
<a xlink:href="http://latin.omdoc.org/math?Dense" class="graphtheory">
<ellipse fill="none" stroke="black" cx="67.0215" cy="-90" rx="33.2209" ry="18"/>
<text text-anchor="middle" x="67.0215" y="-86.3" font-family="Times New Roman,serif" font-size="14.00">Dense</text>
</a>
</g>
<!-- http://latin.omdoc.org/math?Rat -->
<g id="node3" class="node"><title>http://latin.omdoc.org/math?Rat</title>
<a xlink:href="http://latin.omdoc.org/math?Rat" class="graphtheory">
<ellipse fill="gray" stroke="black" cx="107.022" cy="-18" rx="27" ry="18"/>
<text text-anchor="middle" x="107.022" y="-14.3" font-family="Times New Roman,serif" font-size="14.00">Rat</text>
</a>
</g>
<!-- http://latin.omdoc.org/math?Dense&#45;&gt;http://latin.omdoc.org/math?Rat -->
<g id="edge3" class="edge"><title>http://latin.omdoc.org/math?Dense&#45;&gt;http://latin.omdoc.org/math?Rat</title>
<a class="graphinclude">
<path fill="none" stroke="black" d="M76.501,-72.411C81.3525,-63.9208 87.3587,-53.4099 92.7562,-43.9643"/>
<polygon fill="black" stroke="black" points="95.9629,-45.4071 97.8855,-34.9881 89.8852,-41.9341 95.9629,-45.4071"/>
</a>
</g>
<!-- http://latin.omdoc.org/math?OrderLogic -->
<g id="node5" class="node"><title>http://latin.omdoc.org/math?OrderLogic</title>
<a xlink:href="http://latin.omdoc.org/math?OrderLogic" class="graphtheory">
<ellipse fill="gray" stroke="black" cx="67.0215" cy="-162" rx="52.9443" ry="18"/>
<text text-anchor="middle" x="67.0215" y="-158.3" font-family="Times New Roman,serif" font-size="14.00">OrderLogic</text>
</a>
</g>
<!-- http://latin.omdoc.org/math?OrderLogic&#45;&gt;http://latin.omdoc.org/math?Dense -->
<g id="edge5" class="edge"><title>http://latin.omdoc.org/math?OrderLogic&#45;&gt;http://latin.omdoc.org/math?Dense</title>
<a class="graphinclude">
<path fill="none" stroke="black" d="M67.0215,-143.697C67.0215,-135.983 67.0215,-126.712 67.0215,-118.112"/>
<polygon fill="black" stroke="black" points="70.5216,-118.104 67.0215,-108.104 63.5216,-118.104 70.5216,-118.104"/>
</a>
</g>
<!-- http://latin.omdoc.org/logics/proof_theory?IFOLEQ -->
<g id="node7" class="node"><title>http://latin.omdoc.org/logics/proof_theory?IFOLEQ</title>
<a xlink:href="http://latin.omdoc.org/logics/proof_theory?IFOLEQ" class="graphtheory">
<ellipse fill="gray" stroke="black" cx="67.0215" cy="-234" rx="43.319" ry="18"/>
<text text-anchor="middle" x="67.0215" y="-230.3" font-family="Times New Roman,serif" font-size="14.00">IFOLEQ</text>
</a>
</g>
<!-- http://latin.omdoc.org/logics/proof_theory?IFOLEQ&#45;&gt;http://latin.omdoc.org/math?Dense -->
<g id="edge7" class="edge"><title>http://latin.omdoc.org/logics/proof_theory?IFOLEQ&#45;&gt;http://latin.omdoc.org/math?Dense</title>
<a class="graphmeta">
<path fill="none" stroke="black" d="M42.0287,-219.06C28.3491,-209.919 12.6657,-196.591 5.02153,-180 -1.67384,-165.468 -1.67384,-158.532 5.02153,-144 11.5542,-129.821 23.9581,-118.026 35.9651,-109.19"/>
<polygon fill="black" stroke="black" points="38.2916,-111.838 44.5482,-103.288 34.3252,-106.07 38.2916,-111.838"/>
</a>
</g>
<!-- http://latin.omdoc.org/logics/proof_theory?IFOLEQ&#45;&gt;http://latin.omdoc.org/math?Rat -->
<g id="edge9" class="edge"><title>http://latin.omdoc.org/logics/proof_theory?IFOLEQ&#45;&gt;http://latin.omdoc.org/math?Rat</title>
<a class="graphmeta">
<path fill="none" stroke="black" d="M92.0144,-219.06C105.694,-209.919 121.377,-196.591 129.022,-180 149.456,-135.649 132.199,-77.6686 118.879,-44.7657"/>
<polygon fill="black" stroke="black" points="122.037,-43.2483 114.917,-35.4024 115.59,-45.9759 122.037,-43.2483"/>
</a>
</g>
<!-- http://latin.omdoc.org/logics/proof_theory?IFOLEQ&#45;&gt;http://latin.omdoc.org/math?OrderLogic -->
<g id="edge11" class="edge"><title>http://latin.omdoc.org/logics/proof_theory?IFOLEQ&#45;&gt;http://latin.omdoc.org/math?OrderLogic</title>
<a class="graphmeta">
<path fill="none" stroke="black" d="M67.0215,-215.697C67.0215,-207.983 67.0215,-198.712 67.0215,-190.112"/>
<polygon fill="black" stroke="black" points="70.5216,-190.104 67.0215,-180.104 63.5216,-190.104 70.5216,-190.104"/>
</a>
</g>
</g>
</svg>
