<?xml version="1.0" encoding="UTF-8" standalone="no"?>
<!DOCTYPE svg PUBLIC "-//W3C//DTD SVG 1.1//EN"
 "http://www.w3.org/Graphics/SVG/1.1/DTD/svg11.dtd">
<!-- Generated by graphviz version 2.28.0 (20110507.0327)
 -->
<!-- Title: MMT Pages: 1 -->
<svg width="176pt" height="204pt"
 viewBox="0.00 0.00 176.00 204.00" xmlns="http://www.w3.org/2000/svg" xmlns:xlink="http://www.w3.org/1999/xlink">
<g id="graph1" class="graph" transform="scale(1 1) rotate(0) translate(4 200)">
<title>MMT</title>
<polygon fill="white" stroke="white" points="-4,5 -4,-200 173,-200 173,5 -4,5"/>
<g id="graph2" class="cluster"><title>cluster_local</title>
<polygon fill="none" stroke="black" points="8,-8 8,-60 160,-60 160,-8 8,-8"/>
</g>
<!-- http://latin.omdoc.org/math?DifferentialRing -->
<g id="node2" class="node"><title>http://latin.omdoc.org/math?DifferentialRing</title>
<a xlink:href="http://latin.omdoc.org/math?DifferentialRing" class="graphtheory">
<ellipse fill="none" stroke="black" cx="84" cy="-34" rx="67.3907" ry="18"/>
<text text-anchor="middle" x="84" y="-30.3" font-family="Times New Roman,serif" font-size="14.00">DifferentialRing</text>
</a>
</g>
<!-- http://latin.omdoc.org/math?RingUnit -->
<g id="node3" class="node"><title>http://latin.omdoc.org/math?RingUnit</title>
<a xlink:href="http://latin.omdoc.org/math?RingUnit" class="graphtheory">
<ellipse fill="gray" stroke="black" cx="120" cy="-106" rx="42.3456" ry="18"/>
<text text-anchor="middle" x="120" y="-102.3" font-family="Times New Roman,serif" font-size="14.00">RingUnit</text>
</a>
</g>
<!-- http://latin.omdoc.org/math?RingUnit&#45;&gt;http://latin.omdoc.org/math?DifferentialRing -->
<g id="edge3" class="edge"><title>http://latin.omdoc.org/math?RingUnit&#45;&gt;http://latin.omdoc.org/math?DifferentialRing</title>
<a class="graphinclude">
<path fill="none" stroke="black" d="M111.285,-88.055C107.146,-80.0067 102.105,-70.2046 97.4876,-61.2259"/>
<polygon fill="black" stroke="black" points="100.57,-59.5675 92.8844,-52.2753 94.3455,-62.7689 100.57,-59.5675"/>
</a>
</g>
<!-- http://latin.omdoc.org/math?EqUniverse -->
<g id="node5" class="node"><title>http://latin.omdoc.org/math?EqUniverse</title>
<a xlink:href="http://latin.omdoc.org/math?EqUniverse" class="graphtheory">
<ellipse fill="gray" stroke="black" cx="84" cy="-178" rx="52.4675" ry="18"/>
<text text-anchor="middle" x="84" y="-174.3" font-family="Times New Roman,serif" font-size="14.00">EqUniverse</text>
</a>
</g>
<!-- http://latin.omdoc.org/math?EqUniverse&#45;&gt;http://latin.omdoc.org/math?DifferentialRing -->
<g id="edge5" class="edge"><title>http://latin.omdoc.org/math?EqUniverse&#45;&gt;http://latin.omdoc.org/math?DifferentialRing</title>
<a class="graphmeta">
<path fill="none" stroke="black" d="M77.5139,-160.104C73.9226,-149.835 69.8251,-136.361 68,-124 65.6629,-108.172 65.6629,-103.828 68,-88 69.2776,-79.3473 71.6686,-70.1492 74.2201,-61.8867"/>
<polygon fill="black" stroke="black" points="77.5499,-62.9648 77.3478,-52.3719 70.8999,-60.7788 77.5499,-62.9648"/>
</a>
</g>
<!-- http://latin.omdoc.org/math?EqUniverse&#45;&gt;http://latin.omdoc.org/math?RingUnit -->
<g id="edge7" class="edge"><title>http://latin.omdoc.org/math?EqUniverse&#45;&gt;http://latin.omdoc.org/math?RingUnit</title>
<a class="graphmeta">
<path fill="none" stroke="black" d="M92.7146,-160.055C96.9154,-151.887 102.045,-141.912 106.719,-132.824"/>
<polygon fill="black" stroke="black" points="109.905,-134.283 111.366,-123.789 103.68,-131.081 109.905,-134.283"/>
</a>
</g>
</g>
</svg>
