<?xml version="1.0" encoding="UTF-8" standalone="no"?>
<!DOCTYPE svg PUBLIC "-//W3C//DTD SVG 1.1//EN"
 "http://www.w3.org/Graphics/SVG/1.1/DTD/svg11.dtd">
<!-- Generated by graphviz version 2.28.0 (20110507.0327)
 -->
<!-- Title: MMT Pages: 1 -->
<svg
 viewBox="0.00 0.00 180.00 204.00" xmlns="http://www.w3.org/2000/svg" xmlns:xlink="http://www.w3.org/1999/xlink">
<g id="graph1" class="graph" transform="scale(1 1) rotate(0) translate(4 200)">
<title>MMT</title>
<polygon fill="white" stroke="white" points="-4,5 -4,-200 177,-200 177,5 -4,5"/>
<g id="graph2" class="cluster"><title>cluster_local</title>
<polygon fill="none" stroke="black" points="8,-8 8,-60 148,-60 148,-8 8,-8"/>
</g>
<!-- http://latin.omdoc.org/math?InfimumLogic -->
<g id="node2" class="node"><title>http://latin.omdoc.org/math?InfimumLogic</title>
<a xlink:href="http://latin.omdoc.org/math?InfimumLogic" class="graphtheory">
<ellipse fill="none" stroke="black" cx="78" cy="-34" rx="61.6163" ry="18"/>
<text text-anchor="middle" x="78" y="-30.3" font-family="Times New Roman,serif" font-size="14.00">InfimumLogic</text>
</a>
</g>
<!-- http://latin.omdoc.org/math?OrderLogic -->
<g id="node3" class="node"><title>http://latin.omdoc.org/math?OrderLogic</title>
<a xlink:href="http://latin.omdoc.org/math?OrderLogic" class="graphtheory">
<ellipse fill="gray" stroke="black" cx="119" cy="-106" rx="52.9443" ry="18"/>
<text text-anchor="middle" x="119" y="-102.3" font-family="Times New Roman,serif" font-size="14.00">OrderLogic</text>
</a>
</g>
<!-- http://latin.omdoc.org/math?OrderLogic&#45;&gt;http://latin.omdoc.org/math?InfimumLogic -->
<g id="edge3" class="edge"><title>http://latin.omdoc.org/math?OrderLogic&#45;&gt;http://latin.omdoc.org/math?InfimumLogic</title>
<a class="graphinclude">
<path fill="none" stroke="black" d="M109.075,-88.055C104.24,-79.8006 98.3251,-69.7014 92.9578,-60.5378"/>
<polygon fill="black" stroke="black" points="95.9077,-58.6489 87.8336,-51.789 89.8675,-62.1868 95.9077,-58.6489"/>
</a>
</g>
<!-- http://latin.omdoc.org/logics/proof_theory?IFOLEQ -->
<g id="node5" class="node"><title>http://latin.omdoc.org/logics/proof_theory?IFOLEQ</title>
<a xlink:href="http://latin.omdoc.org/logics/proof_theory?IFOLEQ" class="graphtheory">
<ellipse fill="gray" stroke="black" cx="78" cy="-178" rx="43.319" ry="18"/>
<text text-anchor="middle" x="78" y="-174.3" font-family="Times New Roman,serif" font-size="14.00">IFOLEQ</text>
</a>
</g>
<!-- http://latin.omdoc.org/logics/proof_theory?IFOLEQ&#45;&gt;http://latin.omdoc.org/math?InfimumLogic -->
<g id="edge5" class="edge"><title>http://latin.omdoc.org/logics/proof_theory?IFOLEQ&#45;&gt;http://latin.omdoc.org/math?InfimumLogic</title>
<a class="graphmeta">
<path fill="none" stroke="black" d="M69.4994,-160.306C64.7902,-150.108 59.4126,-136.638 57,-124 53.9999,-108.284 53.9999,-103.716 57,-88 58.7074,-79.0559 61.8997,-69.6954 65.2892,-61.373"/>
<polygon fill="black" stroke="black" points="68.5139,-62.7341 69.2816,-52.1671 62.0918,-59.9489 68.5139,-62.7341"/>
</a>
</g>
<!-- http://latin.omdoc.org/logics/proof_theory?IFOLEQ&#45;&gt;http://latin.omdoc.org/math?OrderLogic -->
<g id="edge7" class="edge"><title>http://latin.omdoc.org/logics/proof_theory?IFOLEQ&#45;&gt;http://latin.omdoc.org/math?OrderLogic</title>
<a class="graphmeta">
<path fill="none" stroke="black" d="M87.7164,-160.411C92.5472,-152.163 98.4948,-142.009 103.902,-132.777"/>
<polygon fill="black" stroke="black" points="107.035,-134.354 109.069,-123.956 100.994,-130.816 107.035,-134.354"/>
</a>
</g>
</g>
</svg>
