<?xml version="1.0" encoding="UTF-8" standalone="no"?>
<!DOCTYPE svg PUBLIC "-//W3C//DTD SVG 1.1//EN"
 "http://www.w3.org/Graphics/SVG/1.1/DTD/svg11.dtd">
<!-- Generated by graphviz version 2.28.0 (20110507.0327)
 -->
<!-- Title: MMT Pages: 1 -->
<svg
 viewBox="0.00 0.00 267.00 188.00" xmlns="http://www.w3.org/2000/svg" xmlns:xlink="http://www.w3.org/1999/xlink">
<g id="graph1" class="graph" transform="scale(1 1) rotate(0) translate(4 184)">
<title>MMT</title>
<polygon fill="white" stroke="white" points="-4,5 -4,-184 264,-184 264,5 -4,5"/>
<g id="graph2" class="cluster"><title>cluster_local</title>
<polygon fill="none" stroke="black" points="80,-64 80,-116 190,-116 190,-64 80,-64"/>
</g>
<!-- http://latin.omdoc.org/math?Irreflexive -->
<g id="node2" class="node"><title>http://latin.omdoc.org/math?Irreflexive</title>
<a xlink:href="http://latin.omdoc.org/math?Irreflexive" class="graphtheory">
<ellipse fill="none" stroke="black" cx="135" cy="-90" rx="46.1964" ry="18"/>
<text text-anchor="middle" x="135" y="-86.3" font-family="Times New Roman,serif" font-size="14.00">Irreflexive</text>
</a>
</g>
<!-- http://latin.omdoc.org/math?Strict -->
<g id="node3" class="node"><title>http://latin.omdoc.org/math?Strict</title>
<a xlink:href="http://latin.omdoc.org/math?Strict" class="graphtheory">
<ellipse fill="gray" stroke="black" cx="172" cy="-18" rx="30.3206" ry="18"/>
<text text-anchor="middle" x="172" y="-14.3" font-family="Times New Roman,serif" font-size="14.00">Strict</text>
</a>
</g>
<!-- http://latin.omdoc.org/math?Irreflexive&#45;&gt;http://latin.omdoc.org/math?Strict -->
<g id="edge3" class="edge"><title>http://latin.omdoc.org/math?Irreflexive&#45;&gt;http://latin.omdoc.org/math?Strict</title>
<a class="graphinclude">
<path fill="none" stroke="black" d="M143.957,-72.055C148.338,-63.7665 153.702,-53.6178 158.562,-44.4241"/>
<polygon fill="black" stroke="black" points="161.802,-45.7836 163.381,-35.307 155.613,-42.5124 161.802,-45.7836"/>
</a>
</g>
<!-- http://latin.omdoc.org/math?RelationEqLogic -->
<g id="node5" class="node"><title>http://latin.omdoc.org/math?RelationEqLogic</title>
<a xlink:href="http://latin.omdoc.org/math?RelationEqLogic" class="graphtheory">
<ellipse fill="gray" stroke="black" cx="71" cy="-162" rx="71.2405" ry="18"/>
<text text-anchor="middle" x="71" y="-158.3" font-family="Times New Roman,serif" font-size="14.00">RelationEqLogic</text>
</a>
</g>
<!-- http://latin.omdoc.org/math?RelationEqLogic&#45;&gt;http://latin.omdoc.org/math?Irreflexive -->
<g id="edge5" class="edge"><title>http://latin.omdoc.org/math?RelationEqLogic&#45;&gt;http://latin.omdoc.org/math?Irreflexive</title>
<a class="graphinclude">
<path fill="none" stroke="black" d="M86.1671,-144.411C94.2172,-135.606 104.254,-124.628 113.131,-114.919"/>
<polygon fill="black" stroke="black" points="115.777,-117.212 119.942,-107.47 110.611,-112.489 115.777,-117.212"/>
</a>
</g>
<!-- http://latin.omdoc.org/logics/proof_theory?InEqLogic -->
<g id="node7" class="node"><title>http://latin.omdoc.org/logics/proof_theory?InEqLogic</title>
<a xlink:href="http://latin.omdoc.org/logics/proof_theory?InEqLogic" class="graphtheory">
<ellipse fill="gray" stroke="black" cx="210" cy="-162" rx="49.0941" ry="18"/>
<text text-anchor="middle" x="210" y="-158.3" font-family="Times New Roman,serif" font-size="14.00">InEqLogic</text>
</a>
</g>
<!-- http://latin.omdoc.org/logics/proof_theory?InEqLogic&#45;&gt;http://latin.omdoc.org/math?Irreflexive -->
<g id="edge7" class="edge"><title>http://latin.omdoc.org/logics/proof_theory?InEqLogic&#45;&gt;http://latin.omdoc.org/math?Irreflexive</title>
<a class="graphmeta">
<path fill="none" stroke="black" d="M192.605,-144.765C182.785,-135.6 170.355,-123.998 159.556,-113.919"/>
<polygon fill="black" stroke="black" points="161.741,-111.17 152.042,-106.906 156.965,-116.288 161.741,-111.17"/>
</a>
</g>
<!-- http://latin.omdoc.org/logics/proof_theory?InEqLogic&#45;&gt;http://latin.omdoc.org/math?Strict -->
<g id="edge9" class="edge"><title>http://latin.omdoc.org/logics/proof_theory?InEqLogic&#45;&gt;http://latin.omdoc.org/math?Strict</title>
<a class="graphmeta">
<path fill="none" stroke="black" d="M208.687,-143.825C206.838,-124.158 202.671,-91.1525 194,-64 191.917,-57.4763 189.033,-50.708 186.039,-44.4628"/>
<polygon fill="black" stroke="black" points="188.983,-42.5291 181.342,-35.1899 182.739,-45.6923 188.983,-42.5291"/>
</a>
</g>
</g>
</svg>
