<?xml version="1.0" encoding="UTF-8" standalone="no"?>
<!DOCTYPE svg PUBLIC "-//W3C//DTD SVG 1.1//EN"
 "http://www.w3.org/Graphics/SVG/1.1/DTD/svg11.dtd">
<!-- Generated by graphviz version 2.28.0 (20110507.0327)
 -->
<!-- Title: MMT Pages: 1 -->
<svg
 viewBox="0.00 0.00 324.00 260.00" xmlns="http://www.w3.org/2000/svg" xmlns:xlink="http://www.w3.org/1999/xlink">
<g id="graph1" class="graph" transform="scale(1 1) rotate(0) translate(4 256)">
<title>MMT</title>
<polygon fill="white" stroke="white" points="-4,5 -4,-256 321,-256 321,5 -4,5"/>
<g id="graph2" class="cluster"><title>cluster_local</title>
<polygon fill="none" stroke="black" points="98,-64 98,-116 184,-116 184,-64 98,-64"/>
</g>
<!-- http://latin.omdoc.org/math?Lattice -->
<g id="node2" class="node"><title>http://latin.omdoc.org/math?Lattice</title>
<a xlink:href="http://latin.omdoc.org/math?Lattice" class="graphtheory">
<ellipse fill="none" stroke="black" cx="141" cy="-90" rx="35.1455" ry="18"/>
<text text-anchor="middle" x="141" y="-86.3" font-family="Times New Roman,serif" font-size="14.00">Lattice</text>
</a>
</g>
<!-- http://latin.omdoc.org/math?BoundedLattice -->
<g id="node3" class="node"><title>http://latin.omdoc.org/math?BoundedLattice</title>
<a xlink:href="http://latin.omdoc.org/math?BoundedLattice" class="graphtheory">
<ellipse fill="gray" stroke="black" cx="68" cy="-18" rx="68.3664" ry="18"/>
<text text-anchor="middle" x="68" y="-14.3" font-family="Times New Roman,serif" font-size="14.00">BoundedLattice</text>
</a>
</g>
<!-- http://latin.omdoc.org/math?Lattice&#45;&gt;http://latin.omdoc.org/math?BoundedLattice -->
<g id="edge3" class="edge"><title>http://latin.omdoc.org/math?Lattice&#45;&gt;http://latin.omdoc.org/math?BoundedLattice</title>
<a class="graphinclude">
<path fill="none" stroke="black" d="M125.16,-73.811C115.712,-64.7512 103.51,-53.0507 92.8076,-42.7881"/>
<polygon fill="black" stroke="black" points="94.9808,-40.0228 85.3405,-35.6278 90.1359,-45.0753 94.9808,-40.0228"/>
</a>
</g>
<!-- http://latin.omdoc.org/math?DistributiveLattice -->
<g id="node5" class="node"><title>http://latin.omdoc.org/math?DistributiveLattice</title>
<a xlink:href="http://latin.omdoc.org/math?DistributiveLattice" class="graphtheory">
<ellipse fill="gray" stroke="black" cx="240" cy="-18" rx="76.5394" ry="18"/>
<text text-anchor="middle" x="240" y="-14.3" font-family="Times New Roman,serif" font-size="14.00">DistributiveLattice</text>
</a>
</g>
<!-- http://latin.omdoc.org/math?Lattice&#45;&gt;http://latin.omdoc.org/math?DistributiveLattice -->
<g id="edge5" class="edge"><title>http://latin.omdoc.org/math?Lattice&#45;&gt;http://latin.omdoc.org/math?DistributiveLattice</title>
<a class="graphinclude">
<path fill="none" stroke="black" d="M161.034,-74.8345C174.668,-65.1941 192.992,-52.2382 208.556,-41.2334"/>
<polygon fill="black" stroke="black" points="210.726,-43.985 216.871,-35.3539 206.685,-38.2695 210.726,-43.985"/>
</a>
</g>
<!-- http://latin.omdoc.org/math?SemiLattice -->
<g id="node7" class="node"><title>http://latin.omdoc.org/math?SemiLattice</title>
<a xlink:href="http://latin.omdoc.org/math?SemiLattice" class="graphtheory">
<ellipse fill="gray" stroke="black" cx="169" cy="-162" rx="52.9443" ry="18"/>
<text text-anchor="middle" x="169" y="-158.3" font-family="Times New Roman,serif" font-size="14.00">SemiLattice</text>
</a>
</g>
<!-- http://latin.omdoc.org/math?SemiLattice&#45;&gt;http://latin.omdoc.org/math?Lattice -->
<g id="edge7" class="edge"><title>http://latin.omdoc.org/math?SemiLattice&#45;&gt;http://latin.omdoc.org/math?Lattice</title>
<a class="graphinclude">
<path fill="none" stroke="black" d="M162.222,-144.055C158.989,-135.973 155.049,-126.121 151.445,-117.112"/>
<polygon fill="black" stroke="black" points="154.679,-115.774 147.716,-107.789 148.18,-118.374 154.679,-115.774"/>
</a>
</g>
<!-- http://latin.omdoc.org/math?EqUniverse -->
<g id="node9" class="node"><title>http://latin.omdoc.org/math?EqUniverse</title>
<a xlink:href="http://latin.omdoc.org/math?EqUniverse" class="graphtheory">
<ellipse fill="gray" stroke="black" cx="128" cy="-234" rx="52.4675" ry="18"/>
<text text-anchor="middle" x="128" y="-230.3" font-family="Times New Roman,serif" font-size="14.00">EqUniverse</text>
</a>
</g>
<!-- http://latin.omdoc.org/math?EqUniverse&#45;&gt;http://latin.omdoc.org/math?Lattice -->
<g id="edge9" class="edge"><title>http://latin.omdoc.org/math?EqUniverse&#45;&gt;http://latin.omdoc.org/math?Lattice</title>
<a class="graphmeta">
<path fill="none" stroke="black" d="M118.817,-216.129C110.224,-198.124 99.7196,-168.832 107,-144 109.967,-133.878 115.528,-123.858 121.305,-115.3"/>
<polygon fill="black" stroke="black" points="124.301,-117.128 127.304,-106.968 118.621,-113.038 124.301,-117.128"/>
</a>
</g>
<!-- http://latin.omdoc.org/math?EqUniverse&#45;&gt;http://latin.omdoc.org/math?BoundedLattice -->
<g id="edge11" class="edge"><title>http://latin.omdoc.org/math?EqUniverse&#45;&gt;http://latin.omdoc.org/math?BoundedLattice</title>
<a class="graphmeta">
<path fill="none" stroke="black" d="M117.775,-215.857C112.116,-205.726 105.366,-192.476 101,-180 85.0797,-134.512 75.8019,-78.9623 71.3317,-46.4298"/>
<polygon fill="black" stroke="black" points="74.7767,-45.7829 69.9974,-36.3273 67.837,-46.6995 74.7767,-45.7829"/>
</a>
</g>
<!-- http://latin.omdoc.org/math?EqUniverse&#45;&gt;http://latin.omdoc.org/math?DistributiveLattice -->
<g id="edge13" class="edge"><title>http://latin.omdoc.org/math?EqUniverse&#45;&gt;http://latin.omdoc.org/math?DistributiveLattice</title>
<a class="graphmeta">
<path fill="none" stroke="black" d="M168.989,-222.694C191.236,-214.842 216.986,-201.592 231,-180 257.268,-139.528 252.246,-80.5784 246.159,-46.374"/>
<polygon fill="black" stroke="black" points="249.525,-45.3432 244.184,-36.1929 242.653,-46.6765 249.525,-45.3432"/>
</a>
</g>
<!-- http://latin.omdoc.org/math?EqUniverse&#45;&gt;http://latin.omdoc.org/math?SemiLattice -->
<g id="edge15" class="edge"><title>http://latin.omdoc.org/math?EqUniverse&#45;&gt;http://latin.omdoc.org/math?SemiLattice</title>
<a class="graphmeta">
<path fill="none" stroke="black" d="M137.925,-216.055C142.76,-207.801 148.675,-197.701 154.042,-188.538"/>
<polygon fill="black" stroke="black" points="157.132,-190.187 159.166,-179.789 151.092,-186.649 157.132,-190.187"/>
</a>
</g>
</g>
</svg>
