<?xml version="1.0" encoding="UTF-8" standalone="no"?>
<!DOCTYPE svg PUBLIC "-//W3C//DTD SVG 1.1//EN"
 "http://www.w3.org/Graphics/SVG/1.1/DTD/svg11.dtd">
<!-- Generated by graphviz version 2.28.0 (20110507.0327)
 -->
<!-- Title: MMT Pages: 1 -->
<svg width="203pt" height="204pt"
 viewBox="0.00 0.00 203.00 204.00" xmlns="http://www.w3.org/2000/svg" xmlns:xlink="http://www.w3.org/1999/xlink">
<g id="graph1" class="graph" transform="scale(1 1) rotate(0) translate(4 200)">
<title>MMT</title>
<polygon fill="white" stroke="white" points="-4,5 -4,-200 200,-200 200,5 -4,5"/>
<g id="graph2" class="cluster"><title>cluster_local</title>
<polygon fill="none" stroke="black" points="8,-8 8,-60 148,-60 148,-8 8,-8"/>
</g>
<!-- http://latin.omdoc.org/math?ModalAlgebra -->
<g id="node2" class="node"><title>http://latin.omdoc.org/math?ModalAlgebra</title>
<a xlink:href="http://latin.omdoc.org/math?ModalAlgebra" class="graphtheory">
<ellipse fill="none" stroke="black" cx="78" cy="-34" rx="62.0922" ry="18"/>
<text text-anchor="middle" x="78" y="-30.3" font-family="Times New Roman,serif" font-size="14.00">ModalAlgebra</text>
</a>
</g>
<!-- http://latin.omdoc.org/math?BooleanAlgebra -->
<g id="node3" class="node"><title>http://latin.omdoc.org/math?BooleanAlgebra</title>
<a xlink:href="http://latin.omdoc.org/math?BooleanAlgebra" class="graphtheory">
<ellipse fill="gray" stroke="black" cx="127" cy="-106" rx="68.3417" ry="18"/>
<text text-anchor="middle" x="127" y="-102.3" font-family="Times New Roman,serif" font-size="14.00">BooleanAlgebra</text>
</a>
</g>
<!-- http://latin.omdoc.org/math?BooleanAlgebra&#45;&gt;http://latin.omdoc.org/math?ModalAlgebra -->
<g id="edge3" class="edge"><title>http://latin.omdoc.org/math?BooleanAlgebra&#45;&gt;http://latin.omdoc.org/math?ModalAlgebra</title>
<a class="graphinclude">
<path fill="none" stroke="black" d="M115.138,-88.055C109.3,-79.7147 102.144,-69.4908 95.6762,-60.2517"/>
<polygon fill="black" stroke="black" points="98.3543,-57.9742 89.7523,-51.789 92.6196,-61.9885 98.3543,-57.9742"/>
</a>
</g>
<!-- http://latin.omdoc.org/math?EqUniverse -->
<g id="node5" class="node"><title>http://latin.omdoc.org/math?EqUniverse</title>
<a xlink:href="http://latin.omdoc.org/math?EqUniverse" class="graphtheory">
<ellipse fill="gray" stroke="black" cx="78" cy="-178" rx="52.4675" ry="18"/>
<text text-anchor="middle" x="78" y="-174.3" font-family="Times New Roman,serif" font-size="14.00">EqUniverse</text>
</a>
</g>
<!-- http://latin.omdoc.org/math?EqUniverse&#45;&gt;http://latin.omdoc.org/math?ModalAlgebra -->
<g id="edge5" class="edge"><title>http://latin.omdoc.org/math?EqUniverse&#45;&gt;http://latin.omdoc.org/math?ModalAlgebra</title>
<a class="graphmeta">
<path fill="none" stroke="black" d="M65.9944,-160.255C59.5759,-150.257 52.3259,-137.007 49,-124 45.0364,-108.499 45.0364,-103.501 49,-88 51.4425,-78.4479 56.0012,-68.7648 60.7928,-60.3348"/>
<polygon fill="black" stroke="black" points="63.8085,-62.1116 65.9944,-51.7447 57.8207,-58.4857 63.8085,-62.1116"/>
</a>
</g>
<!-- http://latin.omdoc.org/math?EqUniverse&#45;&gt;http://latin.omdoc.org/math?BooleanAlgebra -->
<g id="edge7" class="edge"><title>http://latin.omdoc.org/math?EqUniverse&#45;&gt;http://latin.omdoc.org/math?BooleanAlgebra</title>
<a class="graphmeta">
<path fill="none" stroke="black" d="M89.6123,-160.411C95.5059,-151.992 102.791,-141.585 109.36,-132.201"/>
<polygon fill="black" stroke="black" points="112.263,-134.156 115.131,-123.956 106.529,-130.141 112.263,-134.156"/>
</a>
</g>
</g>
</svg>
