<?xml version="1.0" encoding="UTF-8" standalone="no"?>
<!DOCTYPE svg PUBLIC "-//W3C//DTD SVG 1.1//EN"
 "http://www.w3.org/Graphics/SVG/1.1/DTD/svg11.dtd">
<!-- Generated by graphviz version 2.28.0 (20110507.0327)
 -->
<!-- Title: MMT Pages: 1 -->
<svg width="207pt" height="260pt"
 viewBox="0.00 0.00 207.00 260.00" xmlns="http://www.w3.org/2000/svg" xmlns:xlink="http://www.w3.org/1999/xlink">
<g id="graph1" class="graph" transform="scale(1 1) rotate(0) translate(4 256)">
<title>MMT</title>
<polygon fill="white" stroke="white" points="-4,5 -4,-256 204,-256 204,5 -4,5"/>
<g id="graph2" class="cluster"><title>cluster_local</title>
<polygon fill="none" stroke="black" points="49,-136 49,-188 119,-188 119,-136 49,-136"/>
</g>
<!-- http://latin.omdoc.org/math?Nat -->
<g id="node2" class="node"><title>http://latin.omdoc.org/math?Nat</title>
<a xlink:href="http://latin.omdoc.org/math?Nat" class="graphtheory">
<ellipse fill="none" stroke="black" cx="84" cy="-162" rx="27" ry="18"/>
<text text-anchor="middle" x="84" y="-158.3" font-family="Times New Roman,serif" font-size="14.00">Nat</text>
</a>
</g>
<!-- http://latin.omdoc.org/math?Addition -->
<g id="node3" class="node"><title>http://latin.omdoc.org/math?Addition</title>
<a xlink:href="http://latin.omdoc.org/math?Addition" class="graphtheory">
<ellipse fill="gray" stroke="black" cx="112" cy="-18" rx="42.3701" ry="18"/>
<text text-anchor="middle" x="112" y="-14.3" font-family="Times New Roman,serif" font-size="14.00">Addition</text>
</a>
</g>
<!-- http://latin.omdoc.org/math?Nat&#45;&gt;http://latin.omdoc.org/math?Addition -->
<g id="edge3" class="edge"><title>http://latin.omdoc.org/math?Nat&#45;&gt;http://latin.omdoc.org/math?Addition</title>
<a class="graphinclude">
<path fill="none" stroke="black" d="M84.5036,-143.739C85.3188,-125.661 87.4482,-96.5387 93,-72 94.9935,-63.1887 98.0241,-53.8316 101.083,-45.4714"/>
<polygon fill="black" stroke="black" points="104.451,-46.462 104.76,-35.8717 97.9147,-43.9578 104.451,-46.462"/>
</a>
</g>
<!-- http://latin.omdoc.org/math?Recursion -->
<g id="node5" class="node"><title>http://latin.omdoc.org/math?Recursion</title>
<a xlink:href="http://latin.omdoc.org/math?Recursion" class="graphtheory">
<ellipse fill="gray" stroke="black" cx="150" cy="-90" rx="48.1437" ry="18"/>
<text text-anchor="middle" x="150" y="-86.3" font-family="Times New Roman,serif" font-size="14.00">Recursion</text>
</a>
</g>
<!-- http://latin.omdoc.org/math?Nat&#45;&gt;http://latin.omdoc.org/math?Recursion -->
<g id="edge5" class="edge"><title>http://latin.omdoc.org/math?Nat&#45;&gt;http://latin.omdoc.org/math?Recursion</title>
<a class="graphinclude">
<path fill="none" stroke="black" d="M97.9969,-146.155C106.56,-137.072 117.714,-125.243 127.494,-114.87"/>
<polygon fill="black" stroke="black" points="130.327,-116.967 134.64,-107.29 125.234,-112.165 130.327,-116.967"/>
</a>
</g>
<!-- http://latin.omdoc.org/math?Recursion&#45;&gt;http://latin.omdoc.org/math?Addition -->
<g id="edge13" class="edge"><title>http://latin.omdoc.org/math?Recursion&#45;&gt;http://latin.omdoc.org/math?Addition</title>
<a class="graphinclude">
<path fill="none" stroke="black" d="M140.801,-72.055C136.367,-63.8866 130.952,-53.9116 126.019,-44.8244"/>
<polygon fill="black" stroke="black" points="128.961,-42.9077 121.114,-35.789 122.809,-46.2474 128.961,-42.9077"/>
</a>
</g>
<!-- http://latin.omdoc.org/logics/proof_theory?NEGExt -->
<g id="node7" class="node"><title>http://latin.omdoc.org/logics/proof_theory?NEGExt</title>
<a xlink:href="http://latin.omdoc.org/logics/proof_theory?NEGExt" class="graphtheory">
<ellipse fill="gray" stroke="black" cx="41" cy="-234" rx="41.394" ry="18"/>
<text text-anchor="middle" x="41" y="-230.3" font-family="Times New Roman,serif" font-size="14.00">NEGExt</text>
</a>
</g>
<!-- http://latin.omdoc.org/logics/proof_theory?NEGExt&#45;&gt;http://latin.omdoc.org/math?Nat -->
<g id="edge7" class="edge"><title>http://latin.omdoc.org/logics/proof_theory?NEGExt&#45;&gt;http://latin.omdoc.org/math?Nat</title>
<a class="graphinclude">
<path fill="none" stroke="black" d="M51.1904,-216.411C56.4601,-207.832 62.9971,-197.191 68.8459,-187.67"/>
<polygon fill="black" stroke="black" points="71.9268,-189.341 74.1787,-178.988 65.9622,-185.677 71.9268,-189.341"/>
</a>
</g>
<!-- http://latin.omdoc.org/logics/proof_theory?InEqLogic -->
<g id="node9" class="node"><title>http://latin.omdoc.org/logics/proof_theory?InEqLogic</title>
<a xlink:href="http://latin.omdoc.org/logics/proof_theory?InEqLogic" class="graphtheory">
<ellipse fill="gray" stroke="black" cx="150" cy="-234" rx="49.0941" ry="18"/>
<text text-anchor="middle" x="150" y="-230.3" font-family="Times New Roman,serif" font-size="14.00">InEqLogic</text>
</a>
</g>
<!-- http://latin.omdoc.org/logics/proof_theory?InEqLogic&#45;&gt;http://latin.omdoc.org/math?Nat -->
<g id="edge9" class="edge"><title>http://latin.omdoc.org/logics/proof_theory?InEqLogic&#45;&gt;http://latin.omdoc.org/math?Nat</title>
<a class="graphmeta">
<path fill="none" stroke="black" d="M134.692,-216.765C125.832,-207.367 114.555,-195.406 104.888,-185.154"/>
<polygon fill="black" stroke="black" points="107.283,-182.592 97.876,-177.717 102.19,-187.394 107.283,-182.592"/>
</a>
</g>
<!-- http://latin.omdoc.org/logics/proof_theory?InEqLogic&#45;&gt;http://latin.omdoc.org/math?Recursion -->
<g id="edge11" class="edge"><title>http://latin.omdoc.org/logics/proof_theory?InEqLogic&#45;&gt;http://latin.omdoc.org/math?Recursion</title>
<a class="graphmeta">
<path fill="none" stroke="black" d="M150,-215.871C150,-191.67 150,-147.211 150,-118.393"/>
<polygon fill="black" stroke="black" points="153.5,-118.189 150,-108.189 146.5,-118.189 153.5,-118.189"/>
</a>
</g>
</g>
</svg>
