<?xml version="1.0" encoding="UTF-8" standalone="no"?>
<!DOCTYPE svg PUBLIC "-//W3C//DTD SVG 1.1//EN"
 "http://www.w3.org/Graphics/SVG/1.1/DTD/svg11.dtd">
<!-- Generated by graphviz version 2.28.0 (20110507.0327)
 -->
<!-- Title: MMT Pages: 1 -->
<svg
 viewBox="0.00 0.00 1093.00 382.00" xmlns="http://www.w3.org/2000/svg" xmlns:xlink="http://www.w3.org/1999/xlink">
<g id="graph1" class="graph" transform="scale(1 1) rotate(0) translate(4 378)">
<title>MMT</title>
<polygon fill="white" stroke="white" points="-4,5 -4,-378 1090,-378 1090,5 -4,5"/>
<g id="graph2" class="cluster"><title>cluster_local</title>
<polygon fill="none" stroke="black" points="400,-80 400,-220 582,-220 582,-80 400,-80"/>
</g>
<!-- http://latin.omdoc.org/math?Reflexive -->
<g id="node2" class="node"><title>http://latin.omdoc.org/math?Reflexive</title>
<a xlink:href="http://latin.omdoc.org/math?Reflexive" class="graphtheory">
<ellipse fill="none" stroke="black" cx="491" cy="-194" rx="44.2946" ry="18"/>
<text text-anchor="middle" x="491" y="-190.3" font-family="Times New Roman,serif" font-size="14.00">Reflexive</text>
</a>
</g>
<!-- http://latin.omdoc.org/math?NeutralElementFOL -->
<g id="node3" class="node"><title>http://latin.omdoc.org/math?NeutralElementFOL</title>
<a xlink:href="http://latin.omdoc.org/math?NeutralElementFOL" class="graphtheory">
<ellipse fill="none" stroke="black" cx="491" cy="-106" rx="83.2892" ry="18"/>
<text text-anchor="middle" x="491" y="-102.3" font-family="Times New Roman,serif" font-size="14.00">NeutralElementFOL</text>
</a>
</g>
<!-- http://latin.omdoc.org/math?Reflexive&#45;&gt;http://latin.omdoc.org/math?NeutralElementFOL -->
<g id="edge3" class="edge"><title>http://latin.omdoc.org/math?Reflexive&#45;&gt;http://latin.omdoc.org/math?NeutralElementFOL</title>
<a xlink:href="http://latin.omdoc.org/math?OMReflexive" class="graphview">
<path fill="none" stroke="black" d="M491,-175.597C491,-163.746 491,-147.817 491,-134.292"/>
<polygon fill="black" stroke="black" points="494.5,-134.084 491,-124.084 487.5,-134.084 494.5,-134.084"/>
</a>
<a xlink:href="http://latin.omdoc.org/math?OMReflexive" class="OMReflexive">
<text text-anchor="middle" x="528.5" y="-146.3" font-family="Times New Roman,serif" font-size="14.00">OMReflexive</text>
</a>
</g>
<!-- http://latin.omdoc.org/math?SemiLattice -->
<g id="node5" class="node"><title>http://latin.omdoc.org/math?SemiLattice</title>
<a xlink:href="http://latin.omdoc.org/math?SemiLattice" class="graphtheory">
<ellipse fill="gray" stroke="black" cx="847" cy="-18" rx="52.9443" ry="18"/>
<text text-anchor="middle" x="847" y="-14.3" font-family="Times New Roman,serif" font-size="14.00">SemiLattice</text>
</a>
</g>
<!-- http://latin.omdoc.org/math?Reflexive&#45;&gt;http://latin.omdoc.org/math?SemiLattice -->
<g id="edge5" class="edge"><title>http://latin.omdoc.org/math?Reflexive&#45;&gt;http://latin.omdoc.org/math?SemiLattice</title>
<a xlink:href="http://latin.omdoc.org/math?ReSL" class="graphview">
<path fill="none" stroke="black" d="M524.728,-182.117C538.826,-176.447 554.742,-168.476 567,-158 598.673,-130.931 585.142,-104.28 619,-80 667.963,-44.8889 735.899,-29.9874 784.859,-23.663"/>
<polygon fill="black" stroke="black" points="785.496,-27.1117 795.005,-22.4395 784.658,-20.162 785.496,-27.1117"/>
</a>
<a xlink:href="http://latin.omdoc.org/math?ReSL" class="ReSL">
<text text-anchor="middle" x="635.5" y="-102.3" font-family="Times New Roman,serif" font-size="14.00">ReSL</text>
</a>
</g>
<!-- http://latin.omdoc.org/math?POSL -->
<g id="node7" class="node"><title>http://latin.omdoc.org/math?POSL</title>
<a xlink:href="http://latin.omdoc.org/math?POSL" class="graphtheory">
<ellipse fill="gray" stroke="black" cx="695" cy="-106" rx="33.1991" ry="18"/>
<text text-anchor="middle" x="695" y="-102.3" font-family="Times New Roman,serif" font-size="14.00">POSL</text>
</a>
</g>
<!-- http://latin.omdoc.org/math?Reflexive&#45;&gt;http://latin.omdoc.org/math?POSL -->
<g id="edge7" class="edge"><title>http://latin.omdoc.org/math?Reflexive&#45;&gt;http://latin.omdoc.org/math?POSL</title>
<a xlink:href="http://latin.omdoc.org/math?POSL?[http://latin.omdoc.org/math?Reflexive]" class="graphstructure">
<path fill="none" stroke="black" d="M522.996,-181.603C528.336,-179.72 533.822,-177.796 539,-176 562.503,-167.847 569.794,-169.213 592,-158 603.116,-152.387 604.133,-148.08 615,-142 628.974,-134.181 645.036,-126.856 659.084,-120.949"/>
<polygon fill="black" stroke="black" points="660.523,-124.141 668.437,-117.097 657.857,-117.669 660.523,-124.141"/>
</a>
<a xlink:href="http://latin.omdoc.org/math?POSL?[http://latin.omdoc.org/math?Reflexive]" class="[http://latin.omdoc.org/math?Reflexive]">
<text text-anchor="middle" x="724.5" y="-146.3" font-family="Times New Roman,serif" font-size="14.00">[http://latin.omdoc.org/math?Reflexive]</text>
</a>
</g>
<!-- http://latin.omdoc.org/math?Equivalence -->
<g id="node9" class="node"><title>http://latin.omdoc.org/math?Equivalence</title>
<a xlink:href="http://latin.omdoc.org/math?Equivalence" class="graphtheory">
<ellipse fill="gray" stroke="black" cx="929" cy="-106" rx="53.4184" ry="18"/>
<text text-anchor="middle" x="929" y="-102.3" font-family="Times New Roman,serif" font-size="14.00">Equivalence</text>
</a>
</g>
<!-- http://latin.omdoc.org/math?Reflexive&#45;&gt;http://latin.omdoc.org/math?Equivalence -->
<g id="edge9" class="edge"><title>http://latin.omdoc.org/math?Reflexive&#45;&gt;http://latin.omdoc.org/math?Equivalence</title>
<a class="graphinclude">
<path fill="none" stroke="black" d="M521.366,-180.814C527.142,-178.908 533.196,-177.181 539,-176 667.719,-149.819 708.132,-195.567 834,-158 847.734,-153.901 849.424,-148.875 862,-142 871.599,-136.753 882.051,-131.212 891.782,-126.124"/>
<polygon fill="black" stroke="black" points="893.585,-129.132 900.84,-121.411 890.354,-122.922 893.585,-129.132"/>
</a>
</g>
<!-- http://latin.omdoc.org/math?Preorder -->
<g id="node11" class="node"><title>http://latin.omdoc.org/math?Preorder</title>
<a xlink:href="http://latin.omdoc.org/math?Preorder" class="graphtheory">
<ellipse fill="gray" stroke="black" cx="1043" cy="-106" rx="42.3701" ry="18"/>
<text text-anchor="middle" x="1043" y="-102.3" font-family="Times New Roman,serif" font-size="14.00">Preorder</text>
</a>
</g>
<!-- http://latin.omdoc.org/math?Reflexive&#45;&gt;http://latin.omdoc.org/math?Preorder -->
<g id="edge11" class="edge"><title>http://latin.omdoc.org/math?Reflexive&#45;&gt;http://latin.omdoc.org/math?Preorder</title>
<a class="graphinclude">
<path fill="none" stroke="black" d="M521.096,-180.839C526.95,-178.904 533.102,-177.161 539,-176 701.848,-143.954 749.667,-192.556 912,-158 930.226,-154.12 973.319,-136.723 1005.13,-123.315"/>
<polygon fill="black" stroke="black" points="1006.76,-126.426 1014.6,-119.301 1004.03,-119.981 1006.76,-126.426"/>
</a>
</g>
<!-- http://latin.omdoc.org/math?Preorder&#45;&gt;http://latin.omdoc.org/math?SemiLattice -->
<g id="edge45" class="edge"><title>http://latin.omdoc.org/math?Preorder&#45;&gt;http://latin.omdoc.org/math?SemiLattice</title>
<a xlink:href="http://latin.omdoc.org/math?POSL" class="graphview">
<path fill="none" stroke="black" d="M1016.39,-91.9091C1008.28,-87.9976 999.307,-83.7536 991,-80 956.879,-64.5811 917.73,-48.0721 888.873,-36.1222"/>
<polygon fill="black" stroke="black" points="890.083,-32.8349 879.504,-32.2525 887.41,-39.3048 890.083,-32.8349"/>
</a>
<a xlink:href="http://latin.omdoc.org/math?POSL" class="POSL">
<text text-anchor="middle" x="985" y="-58.3" font-family="Times New Roman,serif" font-size="14.00">POSL</text>
</a>
</g>
<!-- http://latin.omdoc.org/math?Relation -->
<g id="node13" class="node"><title>http://latin.omdoc.org/math?Relation</title>
<a xlink:href="http://latin.omdoc.org/math?Relation" class="graphtheory">
<ellipse fill="gray" stroke="black" cx="781" cy="-282" rx="39.9464" ry="18"/>
<text text-anchor="middle" x="781" y="-278.3" font-family="Times New Roman,serif" font-size="14.00">Relation</text>
</a>
</g>
<!-- http://latin.omdoc.org/math?Relation&#45;&gt;http://latin.omdoc.org/math?Reflexive -->
<g id="edge13" class="edge"><title>http://latin.omdoc.org/math?Relation&#45;&gt;http://latin.omdoc.org/math?Reflexive</title>
<a class="graphinclude">
<path fill="none" stroke="black" d="M767.275,-264.94C755.952,-252.944 738.748,-237.396 720,-230 682.527,-215.216 577.849,-230.655 539,-220 533.677,-218.54 528.268,-216.433 523.095,-214.054"/>
<polygon fill="black" stroke="black" points="524.614,-210.9 514.105,-209.557 521.483,-217.161 524.614,-210.9"/>
</a>
</g>
<!-- http://latin.omdoc.org/math?Relation&#45;&gt;http://latin.omdoc.org/math?SemiLattice -->
<g id="edge37" class="edge"><title>http://latin.omdoc.org/math?Relation&#45;&gt;http://latin.omdoc.org/math?SemiLattice</title>
<a xlink:href="http://latin.omdoc.org/math?RSL" class="graphview">
<path fill="none" stroke="black" d="M791.226,-264.233C804.671,-241.226 827.78,-198.142 838,-158 847.639,-120.14 848.697,-74.7076 848.165,-46.3382"/>
<polygon fill="black" stroke="black" points="851.654,-45.902 847.885,-36.0003 844.657,-46.0912 851.654,-45.902"/>
</a>
<a xlink:href="http://latin.omdoc.org/math?RSL" class="RSL">
<text text-anchor="middle" x="855.5" y="-146.3" font-family="Times New Roman,serif" font-size="14.00">RSL</text>
</a>
</g>
<!-- http://latin.omdoc.org/math?Relation&#45;&gt;http://latin.omdoc.org/math?Equivalence -->
<g id="edge39" class="edge"><title>http://latin.omdoc.org/math?Relation&#45;&gt;http://latin.omdoc.org/math?Equivalence</title>
<a class="graphinclude">
<path fill="none" stroke="black" d="M820.473,-278.558C845.164,-274.95 875.818,-266.328 895,-246 923.674,-215.613 929.347,-165.165 929.865,-134.126"/>
<polygon fill="black" stroke="black" points="933.365,-134.021 929.863,-124.022 926.365,-134.023 933.365,-134.021"/>
</a>
</g>
<!-- http://latin.omdoc.org/math?Relation&#45;&gt;http://latin.omdoc.org/math?Preorder -->
<g id="edge43" class="edge"><title>http://latin.omdoc.org/math?Relation&#45;&gt;http://latin.omdoc.org/math?Preorder</title>
<a class="graphinclude">
<path fill="none" stroke="black" d="M819.641,-276.821C847.706,-272.43 885.733,-263.584 915,-246 963.628,-216.783 1004.97,-163.612 1026.67,-132.18"/>
<polygon fill="black" stroke="black" points="1029.81,-133.795 1032.52,-123.552 1024.01,-129.87 1029.81,-133.795"/>
</a>
</g>
<!-- http://latin.omdoc.org/math?Bottom -->
<g id="node17" class="node"><title>http://latin.omdoc.org/math?Bottom</title>
<a xlink:href="http://latin.omdoc.org/math?Bottom" class="graphtheory">
<ellipse fill="gray" stroke="black" cx="354" cy="-194" rx="38.0212" ry="18"/>
<text text-anchor="middle" x="354" y="-190.3" font-family="Times New Roman,serif" font-size="14.00">Bottom</text>
</a>
</g>
<!-- http://latin.omdoc.org/math?Relation&#45;&gt;http://latin.omdoc.org/math?Bottom -->
<g id="edge41" class="edge"><title>http://latin.omdoc.org/math?Relation&#45;&gt;http://latin.omdoc.org/math?Bottom</title>
<a class="graphinclude">
<path fill="none" stroke="black" d="M752.119,-269.462C719.97,-257.212 666.185,-238.476 618,-230 569.363,-221.445 443.308,-234.167 396,-220 391.582,-218.677 387.148,-216.789 382.902,-214.636"/>
<polygon fill="black" stroke="black" points="384.421,-211.474 373.991,-209.614 380.984,-217.573 384.421,-211.474"/>
</a>
</g>
<!-- http://latin.omdoc.org/math?MagmaFOL -->
<g id="node21" class="node"><title>http://latin.omdoc.org/math?MagmaFOL</title>
<a xlink:href="http://latin.omdoc.org/math?MagmaFOL" class="graphtheory">
<ellipse fill="gray" stroke="black" cx="242" cy="-194" rx="55.3682" ry="18"/>
<text text-anchor="middle" x="242" y="-190.3" font-family="Times New Roman,serif" font-size="14.00">MagmaFOL</text>
</a>
</g>
<!-- http://latin.omdoc.org/math?Relation&#45;&gt;http://latin.omdoc.org/math?MagmaFOL -->
<g id="edge35" class="edge"><title>http://latin.omdoc.org/math?Relation&#45;&gt;http://latin.omdoc.org/math?MagmaFOL</title>
<a xlink:href="http://latin.omdoc.org/math?OMRelation" class="graphview">
<path fill="none" stroke="black" d="M741.074,-279.086C658.755,-274.438 464.663,-259.852 307,-220 299.083,-217.999 290.819,-215.314 282.943,-212.444"/>
<polygon fill="black" stroke="black" points="284.168,-209.166 273.576,-208.887 281.682,-215.71 284.168,-209.166"/>
</a>
<a xlink:href="http://latin.omdoc.org/math?OMRelation" class="OMRelation">
<text text-anchor="middle" x="457.5" y="-234.3" font-family="Times New Roman,serif" font-size="14.00">OMRelation</text>
</a>
</g>
<!-- http://latin.omdoc.org/math?Universe -->
<g id="node15" class="node"><title>http://latin.omdoc.org/math?Universe</title>
<a xlink:href="http://latin.omdoc.org/math?Universe" class="graphtheory">
<ellipse fill="gray" stroke="black" cx="781" cy="-356" rx="42.3701" ry="18"/>
<text text-anchor="middle" x="781" y="-352.3" font-family="Times New Roman,serif" font-size="14.00">Universe</text>
</a>
</g>
<!-- http://latin.omdoc.org/math?Universe&#45;&gt;http://latin.omdoc.org/math?Reflexive -->
<g id="edge15" class="edge"><title>http://latin.omdoc.org/math?Universe&#45;&gt;http://latin.omdoc.org/math?Reflexive</title>
<a class="graphmeta">
<path fill="none" stroke="black" d="M756.275,-341.358C704.398,-312.737 584.114,-246.373 525.015,-213.767"/>
<polygon fill="black" stroke="black" points="526.521,-210.601 516.075,-208.834 523.14,-216.73 526.521,-210.601"/>
</a>
</g>
<!-- http://latin.omdoc.org/math?Universe&#45;&gt;http://latin.omdoc.org/math?Equivalence -->
<g id="edge27" class="edge"><title>http://latin.omdoc.org/math?Universe&#45;&gt;http://latin.omdoc.org/math?Equivalence</title>
<a class="graphmeta">
<path fill="none" stroke="black" d="M812.084,-343.743C849.861,-328.217 912.017,-296.306 940,-246 962.486,-205.577 953.301,-187.312 944,-142 943.414,-139.147 942.586,-136.238 941.616,-133.379"/>
<polygon fill="black" stroke="black" points="944.84,-132.016 937.917,-123.996 938.328,-134.582 944.84,-132.016"/>
</a>
</g>
<!-- http://latin.omdoc.org/math?Universe&#45;&gt;http://latin.omdoc.org/math?Preorder -->
<g id="edge31" class="edge"><title>http://latin.omdoc.org/math?Universe&#45;&gt;http://latin.omdoc.org/math?Preorder</title>
<a class="graphmeta">
<path fill="none" stroke="black" d="M818.892,-347.896C850.239,-340.42 894.422,-326.007 925,-300 979.883,-253.322 1016.7,-174.432 1033.16,-133.468"/>
<polygon fill="black" stroke="black" points="1036.52,-134.501 1036.91,-123.913 1030,-131.946 1036.52,-134.501"/>
</a>
</g>
<!-- http://latin.omdoc.org/math?Universe&#45;&gt;http://latin.omdoc.org/math?Relation -->
<g id="edge33" class="edge"><title>http://latin.omdoc.org/math?Universe&#45;&gt;http://latin.omdoc.org/math?Relation</title>
<a class="graphmeta">
<path fill="none" stroke="black" d="M781,-337.937C781,-329.807 781,-319.876 781,-310.705"/>
<polygon fill="black" stroke="black" points="784.5,-310.441 781,-300.441 777.5,-310.441 784.5,-310.441"/>
</a>
</g>
<!-- http://latin.omdoc.org/math?Universe&#45;&gt;http://latin.omdoc.org/math?Bottom -->
<g id="edge29" class="edge"><title>http://latin.omdoc.org/math?Universe&#45;&gt;http://latin.omdoc.org/math?Bottom</title>
<a class="graphmeta">
<path fill="none" stroke="black" d="M746.221,-345.592C684.782,-328.546 553.473,-290.197 447,-246 425.421,-237.042 402.387,-224.436 384.641,-213.998"/>
<polygon fill="black" stroke="black" points="386.259,-210.888 375.878,-208.768 382.671,-216.899 386.259,-210.888"/>
</a>
</g>
<!-- http://latin.omdoc.org/math?Bottom&#45;&gt;http://latin.omdoc.org/math?NeutralElementFOL -->
<g id="edge17" class="edge"><title>http://latin.omdoc.org/math?Bottom&#45;&gt;http://latin.omdoc.org/math?NeutralElementFOL</title>
<a xlink:href="http://latin.omdoc.org/math?OMBottom" class="graphview">
<path fill="none" stroke="black" d="M372.142,-178.025C385.498,-167.345 404.332,-152.99 422,-142 430.296,-136.84 439.448,-131.786 448.299,-127.196"/>
<polygon fill="black" stroke="black" points="450.033,-130.241 457.366,-122.594 446.865,-123.999 450.033,-130.241"/>
</a>
<a xlink:href="http://latin.omdoc.org/math?OMBottom" class="OMBottom">
<text text-anchor="middle" x="454.5" y="-146.3" font-family="Times New Roman,serif" font-size="14.00">OMBottom</text>
</a>
</g>
<!-- http://latin.omdoc.org/math?NeutralElement -->
<g id="node19" class="node"><title>http://latin.omdoc.org/math?NeutralElement</title>
<a xlink:href="http://latin.omdoc.org/math?NeutralElement" class="graphtheory">
<ellipse fill="gray" stroke="black" cx="65" cy="-194" rx="65.4659" ry="18"/>
<text text-anchor="middle" x="65" y="-190.3" font-family="Times New Roman,serif" font-size="14.00">NeutralElement</text>
</a>
</g>
<!-- http://latin.omdoc.org/math?NeutralElement&#45;&gt;http://latin.omdoc.org/math?NeutralElementFOL -->
<g id="edge19" class="edge"><title>http://latin.omdoc.org/math?NeutralElement&#45;&gt;http://latin.omdoc.org/math?NeutralElementFOL</title>
<a xlink:href="http://latin.omdoc.org/math?NeutralElementFOL?Neutral" class="graphstructure">
<path fill="none" stroke="black" d="M73.6709,-175.711C80.4948,-164.073 91.1602,-149.526 105,-142 153.744,-115.494 299.871,-108.613 397.687,-107.073"/>
<polygon fill="black" stroke="black" points="397.934,-110.57 407.883,-106.929 397.835,-103.57 397.934,-110.57"/>
</a>
<a xlink:href="http://latin.omdoc.org/math?NeutralElementFOL?Neutral" class="Neutral">
<text text-anchor="middle" x="125" y="-146.3" font-family="Times New Roman,serif" font-size="14.00">Neutral</text>
</a>
</g>
<!-- http://latin.omdoc.org/math?MagmaFOL&#45;&gt;http://latin.omdoc.org/math?NeutralElementFOL -->
<g id="edge21" class="edge"><title>http://latin.omdoc.org/math?MagmaFOL&#45;&gt;http://latin.omdoc.org/math?NeutralElementFOL</title>
<a class="graphinclude">
<path fill="none" stroke="black" d="M278.473,-180.403C320.809,-165.781 390.949,-141.556 438.99,-124.963"/>
<polygon fill="black" stroke="black" points="440.279,-128.221 448.588,-121.648 437.993,-121.605 440.279,-128.221"/>
</a>
</g>
<!-- http://latin.omdoc.org/logics/proof_theory?IFOLEQ -->
<g id="node23" class="node"><title>http://latin.omdoc.org/logics/proof_theory?IFOLEQ</title>
<a xlink:href="http://latin.omdoc.org/logics/proof_theory?IFOLEQ" class="graphtheory">
<ellipse fill="gray" stroke="black" cx="180" cy="-282" rx="43.319" ry="18"/>
<text text-anchor="middle" x="180" y="-278.3" font-family="Times New Roman,serif" font-size="14.00">IFOLEQ</text>
</a>
</g>
<!-- http://latin.omdoc.org/logics/proof_theory?IFOLEQ&#45;&gt;http://latin.omdoc.org/math?NeutralElementFOL -->
<g id="edge23" class="edge"><title>http://latin.omdoc.org/logics/proof_theory?IFOLEQ&#45;&gt;http://latin.omdoc.org/math?NeutralElementFOL</title>
<a class="graphmeta">
<path fill="none" stroke="black" d="M173.647,-263.975C166.383,-241.263 157.9,-201.014 178,-176 205.939,-141.231 321.631,-122.95 404.213,-114.141"/>
<polygon fill="black" stroke="black" points="404.78,-117.601 414.365,-113.088 404.057,-110.638 404.78,-117.601"/>
</a>
</g>
<!-- http://latin.omdoc.org/logics/proof_theory?IFOLEQ&#45;&gt;http://latin.omdoc.org/math?MagmaFOL -->
<g id="edge25" class="edge"><title>http://latin.omdoc.org/logics/proof_theory?IFOLEQ&#45;&gt;http://latin.omdoc.org/math?MagmaFOL</title>
<a class="graphmeta">
<path fill="none" stroke="black" d="M191.954,-264.418C200.988,-251.888 213.544,-234.471 223.82,-220.218"/>
<polygon fill="black" stroke="black" points="226.862,-221.983 229.871,-211.824 221.184,-217.889 226.862,-221.983"/>
</a>
</g>
</g>
</svg>
