<?xml version="1.0" encoding="UTF-8" standalone="no"?>
<!DOCTYPE svg PUBLIC "-//W3C//DTD SVG 1.1//EN"
 "http://www.w3.org/Graphics/SVG/1.1/DTD/svg11.dtd">
<!-- Generated by graphviz version 2.28.0 (20110507.0327)
 -->
<!-- Title: MMT Pages: 1 -->
<svg
 viewBox="0.00 0.00 972.00 382.00" xmlns="http://www.w3.org/2000/svg" xmlns:xlink="http://www.w3.org/1999/xlink">
<g id="graph1" class="graph" transform="scale(1 1) rotate(0) translate(4 378)">
<title>MMT</title>
<polygon fill="white" stroke="white" points="-4,5 -4,-378 969,-378 969,5 -4,5"/>
<g id="graph2" class="cluster"><title>cluster_local</title>
<polygon fill="none" stroke="black" points="428,-80 428,-220 580,-220 580,-80 428,-80"/>
</g>
<!-- http://latin.omdoc.org/math?Transitive -->
<g id="node2" class="node"><title>http://latin.omdoc.org/math?Transitive</title>
<a xlink:href="http://latin.omdoc.org/math?Transitive" class="graphtheory">
<ellipse fill="none" stroke="black" cx="494" cy="-194" rx="46.2191" ry="18"/>
<text text-anchor="middle" x="494" y="-190.3" font-family="Times New Roman,serif" font-size="14.00">Transitive</text>
</a>
</g>
<!-- http://latin.omdoc.org/math?SemigroupFOL -->
<g id="node3" class="node"><title>http://latin.omdoc.org/math?SemigroupFOL</title>
<a xlink:href="http://latin.omdoc.org/math?SemigroupFOL" class="graphtheory">
<ellipse fill="none" stroke="black" cx="504" cy="-106" rx="67.3907" ry="18"/>
<text text-anchor="middle" x="504" y="-102.3" font-family="Times New Roman,serif" font-size="14.00">SemigroupFOL</text>
</a>
</g>
<!-- http://latin.omdoc.org/math?Transitive&#45;&gt;http://latin.omdoc.org/math?SemigroupFOL -->
<g id="edge3" class="edge"><title>http://latin.omdoc.org/math?Transitive&#45;&gt;http://latin.omdoc.org/math?SemigroupFOL</title>
<a xlink:href="http://latin.omdoc.org/math?OMTransitive" class="graphview">
<path fill="none" stroke="black" d="M495.976,-176.009C497.35,-164.19 499.213,-148.171 500.797,-134.542"/>
<polygon fill="black" stroke="black" points="504.316,-134.587 501.994,-124.25 497.363,-133.779 504.316,-134.587"/>
</a>
<a xlink:href="http://latin.omdoc.org/math?OMTransitive" class="OMTransitive">
<text text-anchor="middle" x="539" y="-146.3" font-family="Times New Roman,serif" font-size="14.00">OMTransitive</text>
</a>
</g>
<!-- http://latin.omdoc.org/math?SemiLattice -->
<g id="node5" class="node"><title>http://latin.omdoc.org/math?SemiLattice</title>
<a xlink:href="http://latin.omdoc.org/math?SemiLattice" class="graphtheory">
<ellipse fill="gray" stroke="black" cx="852" cy="-18" rx="52.9443" ry="18"/>
<text text-anchor="middle" x="852" y="-14.3" font-family="Times New Roman,serif" font-size="14.00">SemiLattice</text>
</a>
</g>
<!-- http://latin.omdoc.org/math?Transitive&#45;&gt;http://latin.omdoc.org/math?SemiLattice -->
<g id="edge5" class="edge"><title>http://latin.omdoc.org/math?Transitive&#45;&gt;http://latin.omdoc.org/math?SemiLattice</title>
<a xlink:href="http://latin.omdoc.org/math?TSL" class="graphview">
<path fill="none" stroke="black" d="M462.323,-180.894C456.312,-178.979 450.019,-177.229 444,-176 339.631,-154.685 306.022,-191.789 205,-158 165.252,-144.705 123.679,-110.896 152,-80 194.573,-33.5561 624.296,-22.3465 788.592,-19.7496"/>
<polygon fill="black" stroke="black" points="789.078,-23.2427 799.023,-19.5907 788.971,-16.2435 789.078,-23.2427"/>
</a>
<a xlink:href="http://latin.omdoc.org/math?TSL" class="TSL">
<text text-anchor="middle" x="165" y="-102.3" font-family="Times New Roman,serif" font-size="14.00">TSL</text>
</a>
</g>
<!-- http://latin.omdoc.org/math?Strict -->
<g id="node7" class="node"><title>http://latin.omdoc.org/math?Strict</title>
<a xlink:href="http://latin.omdoc.org/math?Strict" class="graphtheory">
<ellipse fill="gray" stroke="black" cx="218" cy="-106" rx="30.3206" ry="18"/>
<text text-anchor="middle" x="218" y="-102.3" font-family="Times New Roman,serif" font-size="14.00">Strict</text>
</a>
</g>
<!-- http://latin.omdoc.org/math?Transitive&#45;&gt;http://latin.omdoc.org/math?Strict -->
<g id="edge7" class="edge"><title>http://latin.omdoc.org/math?Transitive&#45;&gt;http://latin.omdoc.org/math?Strict</title>
<a xlink:href="http://latin.omdoc.org/math?Strict?transitive" class="graphstructure">
<path fill="none" stroke="black" d="M462.321,-180.908C456.309,-178.992 450.017,-177.238 444,-176 418.892,-170.834 231.404,-176.82 214,-158 208.019,-151.533 207.273,-142.421 208.603,-133.684"/>
<polygon fill="black" stroke="black" points="212.05,-134.318 210.93,-123.782 205.235,-132.717 212.05,-134.318"/>
</a>
<a xlink:href="http://latin.omdoc.org/math?Strict?transitive" class="transitive">
<text text-anchor="middle" x="239" y="-146.3" font-family="Times New Roman,serif" font-size="14.00">transitive</text>
</a>
</g>
<!-- http://latin.omdoc.org/math?POSL -->
<g id="node9" class="node"><title>http://latin.omdoc.org/math?POSL</title>
<a xlink:href="http://latin.omdoc.org/math?POSL" class="graphtheory">
<ellipse fill="gray" stroke="black" cx="300" cy="-106" rx="33.1991" ry="18"/>
<text text-anchor="middle" x="300" y="-102.3" font-family="Times New Roman,serif" font-size="14.00">POSL</text>
</a>
</g>
<!-- http://latin.omdoc.org/math?Transitive&#45;&gt;http://latin.omdoc.org/math?POSL -->
<g id="edge9" class="edge"><title>http://latin.omdoc.org/math?Transitive&#45;&gt;http://latin.omdoc.org/math?POSL</title>
<a xlink:href="http://latin.omdoc.org/math?POSL?[http://latin.omdoc.org/math?Transitive]" class="graphstructure">
<path fill="none" stroke="black" d="M462.025,-180.948C456.098,-179.052 449.911,-177.295 444,-176 406.244,-167.727 296.878,-186.71 271,-158 263.328,-149.489 268,-138.609 275.647,-129.086"/>
<polygon fill="black" stroke="black" points="278.421,-131.238 282.566,-121.488 273.245,-126.525 278.421,-131.238"/>
</a>
<a xlink:href="http://latin.omdoc.org/math?POSL?[http://latin.omdoc.org/math?Transitive]" class="[http://latin.omdoc.org/math?Transitive]">
<text text-anchor="middle" x="382" y="-146.3" font-family="Times New Roman,serif" font-size="14.00">[http://latin.omdoc.org/math?Transitive]</text>
</a>
</g>
<!-- http://latin.omdoc.org/math?Equivalence -->
<g id="node11" class="node"><title>http://latin.omdoc.org/math?Equivalence</title>
<a xlink:href="http://latin.omdoc.org/math?Equivalence" class="graphtheory">
<ellipse fill="gray" stroke="black" cx="53" cy="-106" rx="53.4184" ry="18"/>
<text text-anchor="middle" x="53" y="-102.3" font-family="Times New Roman,serif" font-size="14.00">Equivalence</text>
</a>
</g>
<!-- http://latin.omdoc.org/math?Transitive&#45;&gt;http://latin.omdoc.org/math?Equivalence -->
<g id="edge11" class="edge"><title>http://latin.omdoc.org/math?Transitive&#45;&gt;http://latin.omdoc.org/math?Equivalence</title>
<a class="graphinclude">
<path fill="none" stroke="black" d="M462.341,-180.806C456.328,-178.901 450.029,-177.176 444,-176 375.618,-162.665 197.172,-179.801 131,-158 125.679,-156.247 103.284,-141.462 83.8476,-128.26"/>
<polygon fill="black" stroke="black" points="85.7114,-125.295 75.4781,-122.551 81.7665,-131.078 85.7114,-125.295"/>
</a>
</g>
<!-- http://latin.omdoc.org/math?Preorder -->
<g id="node13" class="node"><title>http://latin.omdoc.org/math?Preorder</title>
<a xlink:href="http://latin.omdoc.org/math?Preorder" class="graphtheory">
<ellipse fill="gray" stroke="black" cx="922" cy="-106" rx="42.3701" ry="18"/>
<text text-anchor="middle" x="922" y="-102.3" font-family="Times New Roman,serif" font-size="14.00">Preorder</text>
</a>
</g>
<!-- http://latin.omdoc.org/math?Transitive&#45;&gt;http://latin.omdoc.org/math?Preorder -->
<g id="edge13" class="edge"><title>http://latin.omdoc.org/math?Transitive&#45;&gt;http://latin.omdoc.org/math?Preorder</title>
<a class="graphinclude">
<path fill="none" stroke="black" d="M526.631,-181.249C532.38,-179.367 538.337,-177.536 544,-176 659.519,-144.665 798.795,-123.359 871.779,-113.417"/>
<polygon fill="black" stroke="black" points="872.612,-116.836 882.055,-112.032 871.677,-109.899 872.612,-116.836"/>
</a>
</g>
<!-- http://latin.omdoc.org/math?Preorder&#45;&gt;http://latin.omdoc.org/math?SemiLattice -->
<g id="edge41" class="edge"><title>http://latin.omdoc.org/math?Preorder&#45;&gt;http://latin.omdoc.org/math?SemiLattice</title>
<a xlink:href="http://latin.omdoc.org/math?POSL" class="graphview">
<path fill="none" stroke="black" d="M908.834,-88.8241C898.504,-76.1338 883.951,-58.2539 872.157,-43.7645"/>
<polygon fill="black" stroke="black" points="874.612,-41.2362 865.585,-35.69 869.183,-45.6551 874.612,-41.2362"/>
</a>
<a xlink:href="http://latin.omdoc.org/math?POSL" class="POSL">
<text text-anchor="middle" x="911" y="-58.3" font-family="Times New Roman,serif" font-size="14.00">POSL</text>
</a>
</g>
<!-- http://latin.omdoc.org/math?Relation -->
<g id="node15" class="node"><title>http://latin.omdoc.org/math?Relation</title>
<a xlink:href="http://latin.omdoc.org/math?Relation" class="graphtheory">
<ellipse fill="gray" stroke="black" cx="670" cy="-282" rx="39.9464" ry="18"/>
<text text-anchor="middle" x="670" y="-278.3" font-family="Times New Roman,serif" font-size="14.00">Relation</text>
</a>
</g>
<!-- http://latin.omdoc.org/math?Relation&#45;&gt;http://latin.omdoc.org/math?Transitive -->
<g id="edge15" class="edge"><title>http://latin.omdoc.org/math?Relation&#45;&gt;http://latin.omdoc.org/math?Transitive</title>
<a class="graphinclude">
<path fill="none" stroke="black" d="M643.404,-268.246C617.87,-255.972 578.237,-236.846 544,-220 539.605,-217.838 535,-215.556 530.438,-213.287"/>
<polygon fill="black" stroke="black" points="531.727,-210.018 521.216,-208.687 528.602,-216.282 531.727,-210.018"/>
</a>
</g>
<!-- http://latin.omdoc.org/math?Relation&#45;&gt;http://latin.omdoc.org/math?SemiLattice -->
<g id="edge35" class="edge"><title>http://latin.omdoc.org/math?Relation&#45;&gt;http://latin.omdoc.org/math?SemiLattice</title>
<a xlink:href="http://latin.omdoc.org/math?RSL" class="graphview">
<path fill="none" stroke="black" d="M709.175,-277.893C747.285,-272.616 803.609,-258.384 833,-220 872.01,-169.053 864.944,-88.1863 857.751,-46.2431"/>
<polygon fill="black" stroke="black" points="861.158,-45.4181 855.901,-36.22 854.275,-46.6894 861.158,-45.4181"/>
</a>
<a xlink:href="http://latin.omdoc.org/math?RSL" class="RSL">
<text text-anchor="middle" x="874.5" y="-146.3" font-family="Times New Roman,serif" font-size="14.00">RSL</text>
</a>
</g>
<!-- http://latin.omdoc.org/math?Relation&#45;&gt;http://latin.omdoc.org/math?Equivalence -->
<g id="edge37" class="edge"><title>http://latin.omdoc.org/math?Relation&#45;&gt;http://latin.omdoc.org/math?Equivalence</title>
<a class="graphinclude">
<path fill="none" stroke="black" d="M639.779,-270.051C633.299,-267.894 626.458,-265.757 620,-264 394.925,-202.784 312.377,-266.697 106,-158 93.5189,-151.426 81.9405,-141.029 72.8097,-131.333"/>
<polygon fill="black" stroke="black" points="75.3259,-128.896 66.0413,-123.793 70.1169,-133.573 75.3259,-128.896"/>
</a>
</g>
<!-- http://latin.omdoc.org/math?Relation&#45;&gt;http://latin.omdoc.org/math?Preorder -->
<g id="edge39" class="edge"><title>http://latin.omdoc.org/math?Relation&#45;&gt;http://latin.omdoc.org/math?Preorder</title>
<a class="graphinclude">
<path fill="none" stroke="black" d="M709.399,-278.433C759.554,-274.424 842.525,-265.071 866,-246 900.288,-218.144 913.728,-166.086 918.891,-134.189"/>
<polygon fill="black" stroke="black" points="922.367,-134.608 920.343,-124.208 915.44,-133.6 922.367,-134.608"/>
</a>
</g>
<!-- http://latin.omdoc.org/math?MagmaFOL -->
<g id="node21" class="node"><title>http://latin.omdoc.org/math?MagmaFOL</title>
<a xlink:href="http://latin.omdoc.org/math?MagmaFOL" class="graphtheory">
<ellipse fill="gray" stroke="black" cx="651" cy="-194" rx="55.3682" ry="18"/>
<text text-anchor="middle" x="651" y="-190.3" font-family="Times New Roman,serif" font-size="14.00">MagmaFOL</text>
</a>
</g>
<!-- http://latin.omdoc.org/math?Relation&#45;&gt;http://latin.omdoc.org/math?MagmaFOL -->
<g id="edge33" class="edge"><title>http://latin.omdoc.org/math?Relation&#45;&gt;http://latin.omdoc.org/math?MagmaFOL</title>
<a xlink:href="http://latin.omdoc.org/math?OMRelation" class="graphview">
<path fill="none" stroke="black" d="M666.246,-264.009C663.609,-252.073 660.026,-235.853 656.996,-222.138"/>
<polygon fill="black" stroke="black" points="660.386,-221.259 654.811,-212.25 653.551,-222.77 660.386,-221.259"/>
</a>
<a xlink:href="http://latin.omdoc.org/math?OMRelation" class="OMRelation">
<text text-anchor="middle" x="697.5" y="-234.3" font-family="Times New Roman,serif" font-size="14.00">OMRelation</text>
</a>
</g>
<!-- http://latin.omdoc.org/math?Universe -->
<g id="node17" class="node"><title>http://latin.omdoc.org/math?Universe</title>
<a xlink:href="http://latin.omdoc.org/math?Universe" class="graphtheory">
<ellipse fill="gray" stroke="black" cx="545" cy="-356" rx="42.3701" ry="18"/>
<text text-anchor="middle" x="545" y="-352.3" font-family="Times New Roman,serif" font-size="14.00">Universe</text>
</a>
</g>
<!-- http://latin.omdoc.org/math?Universe&#45;&gt;http://latin.omdoc.org/math?Transitive -->
<g id="edge17" class="edge"><title>http://latin.omdoc.org/math?Universe&#45;&gt;http://latin.omdoc.org/math?Transitive</title>
<a class="graphmeta">
<path fill="none" stroke="black" d="M534.153,-338.287C527.724,-327.696 519.901,-313.495 515,-300 505.717,-274.439 500.186,-243.805 497.15,-222.242"/>
<polygon fill="black" stroke="black" points="500.598,-221.614 495.819,-212.158 493.658,-222.53 500.598,-221.614"/>
</a>
</g>
<!-- http://latin.omdoc.org/math?Universe&#45;&gt;http://latin.omdoc.org/math?Equivalence -->
<g id="edge27" class="edge"><title>http://latin.omdoc.org/math?Universe&#45;&gt;http://latin.omdoc.org/math?Equivalence</title>
<a class="graphmeta">
<path fill="none" stroke="black" d="M506.61,-348.371C431.805,-334.164 263.247,-295.743 142,-220 109.215,-199.519 104.076,-189.014 81,-158 75.3049,-150.346 70.0007,-141.397 65.5741,-133.151"/>
<polygon fill="black" stroke="black" points="68.6738,-131.525 60.9754,-124.246 62.4542,-134.737 68.6738,-131.525"/>
</a>
</g>
<!-- http://latin.omdoc.org/math?Universe&#45;&gt;http://latin.omdoc.org/math?Preorder -->
<g id="edge29" class="edge"><title>http://latin.omdoc.org/math?Universe&#45;&gt;http://latin.omdoc.org/math?Preorder</title>
<a class="graphmeta">
<path fill="none" stroke="black" d="M583.935,-348.844C650.169,-337.06 787.276,-306.894 887,-246 900.947,-237.483 906.144,-234.834 913,-220 924.598,-194.906 915.808,-185.558 918,-158 918.62,-150.209 919.286,-141.748 919.894,-133.998"/>
<polygon fill="black" stroke="black" points="923.385,-134.243 920.676,-124.001 916.406,-133.697 923.385,-134.243"/>
</a>
</g>
<!-- http://latin.omdoc.org/math?Universe&#45;&gt;http://latin.omdoc.org/math?Relation -->
<g id="edge31" class="edge"><title>http://latin.omdoc.org/math?Universe&#45;&gt;http://latin.omdoc.org/math?Relation</title>
<a class="graphmeta">
<path fill="none" stroke="black" d="M569.101,-341.118C588.593,-329.89 616.221,-313.977 637.639,-301.64"/>
<polygon fill="black" stroke="black" points="639.478,-304.62 646.397,-296.596 635.984,-298.554 639.478,-304.62"/>
</a>
</g>
<!-- http://latin.omdoc.org/math?Semigroup -->
<g id="node19" class="node"><title>http://latin.omdoc.org/math?Semigroup</title>
<a xlink:href="http://latin.omdoc.org/math?Semigroup" class="graphtheory">
<ellipse fill="gray" stroke="black" cx="774" cy="-194" rx="50.0684" ry="18"/>
<text text-anchor="middle" x="774" y="-190.3" font-family="Times New Roman,serif" font-size="14.00">Semigroup</text>
</a>
</g>
<!-- http://latin.omdoc.org/math?Semigroup&#45;&gt;http://latin.omdoc.org/math?SemigroupFOL -->
<g id="edge19" class="edge"><title>http://latin.omdoc.org/math?Semigroup&#45;&gt;http://latin.omdoc.org/math?SemigroupFOL</title>
<a xlink:href="http://latin.omdoc.org/math?SemigroupFOL?Semigroup" class="graphstructure">
<path fill="none" stroke="black" d="M739.83,-180.78C709.73,-170.141 664.632,-154.507 625,-142 603.396,-135.183 579.463,-128.151 558.623,-122.196"/>
<polygon fill="black" stroke="black" points="559.552,-118.821 548.976,-119.452 557.637,-125.554 559.552,-118.821"/>
</a>
<a xlink:href="http://latin.omdoc.org/math?SemigroupFOL?Semigroup" class="Semigroup">
<text text-anchor="middle" x="701.5" y="-146.3" font-family="Times New Roman,serif" font-size="14.00">Semigroup</text>
</a>
</g>
<!-- http://latin.omdoc.org/math?MagmaFOL&#45;&gt;http://latin.omdoc.org/math?SemigroupFOL -->
<g id="edge21" class="edge"><title>http://latin.omdoc.org/math?MagmaFOL&#45;&gt;http://latin.omdoc.org/math?SemigroupFOL</title>
<a class="graphinclude">
<path fill="none" stroke="black" d="M638.101,-176.375C628.803,-165.343 615.399,-151.245 601,-142 588.515,-133.984 573.948,-127.489 559.955,-122.372"/>
<polygon fill="black" stroke="black" points="560.987,-119.025 550.392,-119.047 558.688,-125.637 560.987,-119.025"/>
</a>
</g>
<!-- http://latin.omdoc.org/logics/proof_theory?IFOLEQ -->
<g id="node23" class="node"><title>http://latin.omdoc.org/logics/proof_theory?IFOLEQ</title>
<a xlink:href="http://latin.omdoc.org/logics/proof_theory?IFOLEQ" class="graphtheory">
<ellipse fill="gray" stroke="black" cx="568" cy="-282" rx="43.319" ry="18"/>
<text text-anchor="middle" x="568" y="-278.3" font-family="Times New Roman,serif" font-size="14.00">IFOLEQ</text>
</a>
</g>
<!-- http://latin.omdoc.org/logics/proof_theory?IFOLEQ&#45;&gt;http://latin.omdoc.org/math?SemigroupFOL -->
<g id="edge23" class="edge"><title>http://latin.omdoc.org/logics/proof_theory?IFOLEQ&#45;&gt;http://latin.omdoc.org/math?SemigroupFOL</title>
<a class="graphmeta">
<path fill="none" stroke="black" d="M574.189,-264.09C583.213,-236.309 596.502,-180.275 573,-142 568.799,-135.159 562.799,-129.605 556.069,-125.109"/>
<polygon fill="black" stroke="black" points="557.637,-121.972 547.234,-119.963 554.114,-128.02 557.637,-121.972"/>
</a>
</g>
<!-- http://latin.omdoc.org/logics/proof_theory?IFOLEQ&#45;&gt;http://latin.omdoc.org/math?MagmaFOL -->
<g id="edge25" class="edge"><title>http://latin.omdoc.org/logics/proof_theory?IFOLEQ&#45;&gt;http://latin.omdoc.org/math?MagmaFOL</title>
<a class="graphmeta">
<path fill="none" stroke="black" d="M583.612,-264.824C596.168,-251.814 613.989,-233.349 628.151,-218.675"/>
<polygon fill="black" stroke="black" points="630.75,-221.022 635.176,-211.396 625.713,-216.161 630.75,-221.022"/>
</a>
</g>
</g>
</svg>
