<?xml version="1.0" encoding="UTF-8" standalone="no"?>
<!DOCTYPE svg PUBLIC "-//W3C//DTD SVG 1.1//EN"
 "http://www.w3.org/Graphics/SVG/1.1/DTD/svg11.dtd">
<!-- Generated by graphviz version 2.28.0 (20110507.0327)
 -->
<!-- Title: MMT Pages: 1 -->
<svg width="283pt" height="204pt"
 viewBox="0.00 0.00 283.00 204.00" xmlns="http://www.w3.org/2000/svg" xmlns:xlink="http://www.w3.org/1999/xlink">
<g id="graph1" class="graph" transform="scale(1 1) rotate(0) translate(4 200)">
<title>MMT</title>
<polygon fill="white" stroke="white" points="-4,5 -4,-200 280,-200 280,5 -4,5"/>
<g id="graph2" class="cluster"><title>cluster_local</title>
<polygon fill="none" stroke="black" points="8,-8 8,-60 244,-60 244,-8 8,-8"/>
</g>
<!-- http://latin.omdoc.org/math?OrthocomplementedLattice -->
<g id="node2" class="node"><title>http://latin.omdoc.org/math?OrthocomplementedLattice</title>
<a xlink:href="http://latin.omdoc.org/math?OrthocomplementedLattice" class="graphtheory">
<ellipse fill="none" stroke="black" cx="126" cy="-34" rx="109.261" ry="18"/>
<text text-anchor="middle" x="126" y="-30.3" font-family="Times New Roman,serif" font-size="14.00">OrthocomplementedLattice</text>
</a>
</g>
<!-- http://latin.omdoc.org/math?ComplementedLattice -->
<g id="node3" class="node"><title>http://latin.omdoc.org/math?ComplementedLattice</title>
<a xlink:href="http://latin.omdoc.org/math?ComplementedLattice" class="graphtheory">
<ellipse fill="gray" stroke="black" cx="185" cy="-106" rx="90.0136" ry="18"/>
<text text-anchor="middle" x="185" y="-102.3" font-family="Times New Roman,serif" font-size="14.00">ComplementedLattice</text>
</a>
</g>
<!-- http://latin.omdoc.org/math?ComplementedLattice&#45;&gt;http://latin.omdoc.org/math?OrthocomplementedLattice -->
<g id="edge3" class="edge"><title>http://latin.omdoc.org/math?ComplementedLattice&#45;&gt;http://latin.omdoc.org/math?OrthocomplementedLattice</title>
<a class="graphinclude">
<path fill="none" stroke="black" d="M170.718,-88.055C163.649,-79.6679 154.974,-69.376 147.153,-60.0963"/>
<polygon fill="black" stroke="black" points="149.682,-57.6659 140.561,-52.2753 144.329,-62.1773 149.682,-57.6659"/>
</a>
</g>
<!-- http://latin.omdoc.org/math?EqUniverse -->
<g id="node5" class="node"><title>http://latin.omdoc.org/math?EqUniverse</title>
<a xlink:href="http://latin.omdoc.org/math?EqUniverse" class="graphtheory">
<ellipse fill="gray" stroke="black" cx="126" cy="-178" rx="52.4675" ry="18"/>
<text text-anchor="middle" x="126" y="-174.3" font-family="Times New Roman,serif" font-size="14.00">EqUniverse</text>
</a>
</g>
<!-- http://latin.omdoc.org/math?EqUniverse&#45;&gt;http://latin.omdoc.org/math?OrthocomplementedLattice -->
<g id="edge5" class="edge"><title>http://latin.omdoc.org/math?EqUniverse&#45;&gt;http://latin.omdoc.org/math?OrthocomplementedLattice</title>
<a class="graphmeta">
<path fill="none" stroke="black" d="M109.101,-160.534C100.376,-150.827 90.614,-137.773 86,-124 80.9175,-108.829 80.9175,-103.171 86,-88 89.4056,-77.8344 95.6157,-68.0602 102.143,-59.7345"/>
<polygon fill="black" stroke="black" points="104.943,-61.843 108.685,-51.9309 99.5782,-57.3462 104.943,-61.843"/>
</a>
</g>
<!-- http://latin.omdoc.org/math?EqUniverse&#45;&gt;http://latin.omdoc.org/math?ComplementedLattice -->
<g id="edge7" class="edge"><title>http://latin.omdoc.org/math?EqUniverse&#45;&gt;http://latin.omdoc.org/math?ComplementedLattice</title>
<a class="graphmeta">
<path fill="none" stroke="black" d="M139.982,-160.411C147.223,-151.82 156.209,-141.159 164.243,-131.627"/>
<polygon fill="black" stroke="black" points="166.94,-133.858 170.708,-123.956 161.587,-129.347 166.94,-133.858"/>
</a>
</g>
</g>
</svg>
