<?xml version="1.0" encoding="UTF-8" standalone="no"?>
<!DOCTYPE svg PUBLIC "-//W3C//DTD SVG 1.1//EN"
 "http://www.w3.org/Graphics/SVG/1.1/DTD/svg11.dtd">
<!-- Generated by graphviz version 2.28.0 (20110507.0327)
 -->
<!-- Title: MMT Pages: 1 -->
<svg
 viewBox="0.00 0.00 154.00 260.00" xmlns="http://www.w3.org/2000/svg" xmlns:xlink="http://www.w3.org/1999/xlink">
<g id="graph1" class="graph" transform="scale(1 1) rotate(0) translate(4 256)">
<title>MMT</title>
<polygon fill="white" stroke="white" points="-4,5 -4,-256 151,-256 151,5 -4,5"/>
<g id="graph2" class="cluster"><title>cluster_local</title>
<polygon fill="none" stroke="black" points="8,-64 8,-116 120,-116 120,-64 8,-64"/>
</g>
<!-- http://latin.omdoc.org/math?Recursion -->
<g id="node2" class="node"><title>http://latin.omdoc.org/math?Recursion</title>
<a xlink:href="http://latin.omdoc.org/math?Recursion" class="graphtheory">
<ellipse fill="none" stroke="black" cx="64" cy="-90" rx="48.1437" ry="18"/>
<text text-anchor="middle" x="64" y="-86.3" font-family="Times New Roman,serif" font-size="14.00">Recursion</text>
</a>
</g>
<!-- http://latin.omdoc.org/math?Addition -->
<g id="node3" class="node"><title>http://latin.omdoc.org/math?Addition</title>
<a xlink:href="http://latin.omdoc.org/math?Addition" class="graphtheory">
<ellipse fill="gray" stroke="black" cx="102" cy="-18" rx="42.3701" ry="18"/>
<text text-anchor="middle" x="102" y="-14.3" font-family="Times New Roman,serif" font-size="14.00">Addition</text>
</a>
</g>
<!-- http://latin.omdoc.org/math?Recursion&#45;&gt;http://latin.omdoc.org/math?Addition -->
<g id="edge3" class="edge"><title>http://latin.omdoc.org/math?Recursion&#45;&gt;http://latin.omdoc.org/math?Addition</title>
<a class="graphinclude">
<path fill="none" stroke="black" d="M73.1987,-72.055C77.633,-63.8866 83.048,-53.9116 87.981,-44.8244"/>
<polygon fill="black" stroke="black" points="91.191,-46.2474 92.886,-35.789 85.039,-42.9077 91.191,-46.2474"/>
</a>
</g>
<!-- http://latin.omdoc.org/math?Nat -->
<g id="node5" class="node"><title>http://latin.omdoc.org/math?Nat</title>
<a xlink:href="http://latin.omdoc.org/math?Nat" class="graphtheory">
<ellipse fill="gray" stroke="black" cx="119" cy="-162" rx="27" ry="18"/>
<text text-anchor="middle" x="119" y="-158.3" font-family="Times New Roman,serif" font-size="14.00">Nat</text>
</a>
</g>
<!-- http://latin.omdoc.org/math?Nat&#45;&gt;http://latin.omdoc.org/math?Recursion -->
<g id="edge5" class="edge"><title>http://latin.omdoc.org/math?Nat&#45;&gt;http://latin.omdoc.org/math?Recursion</title>
<a class="graphinclude">
<path fill="none" stroke="black" d="M107.066,-145.811C100.155,-137.015 91.2879,-125.73 83.398,-115.688"/>
<polygon fill="black" stroke="black" points="85.9951,-113.329 77.0647,-107.628 80.4909,-117.653 85.9951,-113.329"/>
</a>
</g>
<!-- http://latin.omdoc.org/math?Nat&#45;&gt;http://latin.omdoc.org/math?Addition -->
<g id="edge11" class="edge"><title>http://latin.omdoc.org/math?Nat&#45;&gt;http://latin.omdoc.org/math?Addition</title>
<a class="graphinclude">
<path fill="none" stroke="black" d="M122.694,-143.928C126.286,-124.355 130.348,-91.4359 124,-64 122.508,-57.5504 119.958,-50.9574 117.111,-44.8767"/>
<polygon fill="black" stroke="black" points="120.162,-43.1563 112.502,-35.837 113.926,-46.3357 120.162,-43.1563"/>
</a>
</g>
<!-- http://latin.omdoc.org/logics/proof_theory?InEqLogic -->
<g id="node7" class="node"><title>http://latin.omdoc.org/logics/proof_theory?InEqLogic</title>
<a xlink:href="http://latin.omdoc.org/logics/proof_theory?InEqLogic" class="graphtheory">
<ellipse fill="gray" stroke="black" cx="91" cy="-234" rx="49.0941" ry="18"/>
<text text-anchor="middle" x="91" y="-230.3" font-family="Times New Roman,serif" font-size="14.00">InEqLogic</text>
</a>
</g>
<!-- http://latin.omdoc.org/logics/proof_theory?InEqLogic&#45;&gt;http://latin.omdoc.org/math?Recursion -->
<g id="edge7" class="edge"><title>http://latin.omdoc.org/logics/proof_theory?InEqLogic&#45;&gt;http://latin.omdoc.org/math?Recursion</title>
<a class="graphmeta">
<path fill="none" stroke="black" d="M87.7432,-215.871C83.1415,-191.67 74.688,-147.211 69.2086,-118.393"/>
<polygon fill="black" stroke="black" points="72.5748,-117.359 67.2684,-108.189 65.698,-118.667 72.5748,-117.359"/>
</a>
</g>
<!-- http://latin.omdoc.org/logics/proof_theory?InEqLogic&#45;&gt;http://latin.omdoc.org/math?Nat -->
<g id="edge9" class="edge"><title>http://latin.omdoc.org/logics/proof_theory?InEqLogic&#45;&gt;http://latin.omdoc.org/math?Nat</title>
<a class="graphmeta">
<path fill="none" stroke="black" d="M97.778,-216.055C101.011,-207.973 104.951,-198.121 108.555,-189.112"/>
<polygon fill="black" stroke="black" points="111.82,-190.374 112.284,-179.789 105.321,-187.774 111.82,-190.374"/>
</a>
</g>
</g>
</svg>
