<?xml version="1.0" encoding="UTF-8" standalone="no"?>
<!DOCTYPE svg PUBLIC "-//W3C//DTD SVG 1.1//EN"
 "http://www.w3.org/Graphics/SVG/1.1/DTD/svg11.dtd">
<!-- Generated by graphviz version 2.28.0 (20110507.0327)
 -->
<!-- Title: MMT Pages: 1 -->
<svg width="660pt" height="368pt"
 viewBox="0.00 0.00 660.00 368.00" xmlns="http://www.w3.org/2000/svg" xmlns:xlink="http://www.w3.org/1999/xlink">
<g id="graph1" class="graph" transform="scale(1 1) rotate(0) translate(4 364)">
<title>MMT</title>
<polygon fill="white" stroke="white" points="-4,5 -4,-364 657,-364 657,5 -4,5"/>
<g id="graph2" class="cluster"><title>cluster_local</title>
<polygon fill="none" stroke="black" points="101,-168 101,-220 205,-220 205,-168 101,-168"/>
</g>
<!-- http://latin.omdoc.org/math?Reflexive -->
<g id="node2" class="node"><title>http://latin.omdoc.org/math?Reflexive</title>
<a xlink:href="http://latin.omdoc.org/math?Reflexive" class="graphtheory">
<ellipse fill="none" stroke="black" cx="153" cy="-194" rx="44.2946" ry="18"/>
<text text-anchor="middle" x="153" y="-190.3" font-family="Times New Roman,serif" font-size="14.00">Reflexive</text>
</a>
</g>
<!-- http://latin.omdoc.org/math?SemiLattice -->
<g id="node3" class="node"><title>http://latin.omdoc.org/math?SemiLattice</title>
<a xlink:href="http://latin.omdoc.org/math?SemiLattice" class="graphtheory">
<ellipse fill="gray" stroke="black" cx="120" cy="-18" rx="52.9443" ry="18"/>
<text text-anchor="middle" x="120" y="-14.3" font-family="Times New Roman,serif" font-size="14.00">SemiLattice</text>
</a>
</g>
<!-- http://latin.omdoc.org/math?Reflexive&#45;&gt;http://latin.omdoc.org/math?SemiLattice -->
<g id="edge3" class="edge"><title>http://latin.omdoc.org/math?Reflexive&#45;&gt;http://latin.omdoc.org/math?SemiLattice</title>
<a xlink:href="http://latin.omdoc.org/math?ReSL" class="graphview">
<path fill="none" stroke="black" d="M145.767,-176.042C140.225,-162.279 132.889,-142.234 129,-124 123.476,-98.0962 121.321,-67.9123 120.492,-46.5724"/>
<polygon fill="black" stroke="black" points="123.981,-46.1737 120.168,-36.2888 116.985,-46.3939 123.981,-46.1737"/>
</a>
<a xlink:href="http://latin.omdoc.org/math?ReSL" class="ReSL">
<text text-anchor="middle" x="145.5" y="-102.3" font-family="Times New Roman,serif" font-size="14.00">ReSL</text>
</a>
</g>
<!-- http://latin.omdoc.org/math?POSL -->
<g id="node5" class="node"><title>http://latin.omdoc.org/math?POSL</title>
<a xlink:href="http://latin.omdoc.org/math?POSL" class="graphtheory">
<ellipse fill="gray" stroke="black" cx="205" cy="-106" rx="33.1991" ry="18"/>
<text text-anchor="middle" x="205" y="-102.3" font-family="Times New Roman,serif" font-size="14.00">POSL</text>
</a>
</g>
<!-- http://latin.omdoc.org/math?Reflexive&#45;&gt;http://latin.omdoc.org/math?POSL -->
<g id="edge5" class="edge"><title>http://latin.omdoc.org/math?Reflexive&#45;&gt;http://latin.omdoc.org/math?POSL</title>
<a xlink:href="http://latin.omdoc.org/math?POSL?[http://latin.omdoc.org/math?Reflexive]" class="graphstructure">
<path fill="none" stroke="black" d="M149.572,-175.937C148.36,-165.527 148.452,-152.29 154,-142 157.942,-134.689 164.157,-128.601 170.912,-123.664"/>
<polygon fill="black" stroke="black" points="173.135,-126.395 179.627,-118.021 169.33,-120.519 173.135,-126.395"/>
</a>
<a xlink:href="http://latin.omdoc.org/math?POSL?[http://latin.omdoc.org/math?Reflexive]" class="[http://latin.omdoc.org/math?Reflexive]">
<text text-anchor="middle" x="263.5" y="-146.3" font-family="Times New Roman,serif" font-size="14.00">[http://latin.omdoc.org/math?Reflexive]</text>
</a>
</g>
<!-- http://latin.omdoc.org/math?NeutralElementFOL -->
<g id="node7" class="node"><title>http://latin.omdoc.org/math?NeutralElementFOL</title>
<a xlink:href="http://latin.omdoc.org/math?NeutralElementFOL" class="graphtheory">
<ellipse fill="gray" stroke="black" cx="395" cy="-106" rx="83.2892" ry="18"/>
<text text-anchor="middle" x="395" y="-102.3" font-family="Times New Roman,serif" font-size="14.00">NeutralElementFOL</text>
</a>
</g>
<!-- http://latin.omdoc.org/math?Reflexive&#45;&gt;http://latin.omdoc.org/math?NeutralElementFOL -->
<g id="edge7" class="edge"><title>http://latin.omdoc.org/math?Reflexive&#45;&gt;http://latin.omdoc.org/math?NeutralElementFOL</title>
<a xlink:href="http://latin.omdoc.org/math?OMReflexive" class="graphview">
<path fill="none" stroke="black" d="M176.109,-178.458C183.753,-174.343 192.486,-170.348 201,-168 219.454,-162.91 357.318,-168.979 373,-158 381.121,-152.314 386.268,-142.969 389.519,-133.822"/>
<polygon fill="black" stroke="black" points="392.898,-134.736 392.354,-124.155 386.181,-132.766 392.898,-134.736"/>
</a>
<a xlink:href="http://latin.omdoc.org/math?OMReflexive" class="OMReflexive">
<text text-anchor="middle" x="424.5" y="-146.3" font-family="Times New Roman,serif" font-size="14.00">OMReflexive</text>
</a>
</g>
<!-- http://latin.omdoc.org/math?Equivalence -->
<g id="node9" class="node"><title>http://latin.omdoc.org/math?Equivalence</title>
<a xlink:href="http://latin.omdoc.org/math?Equivalence" class="graphtheory">
<ellipse fill="gray" stroke="black" cx="599" cy="-106" rx="53.4184" ry="18"/>
<text text-anchor="middle" x="599" y="-102.3" font-family="Times New Roman,serif" font-size="14.00">Equivalence</text>
</a>
</g>
<!-- http://latin.omdoc.org/math?Reflexive&#45;&gt;http://latin.omdoc.org/math?Equivalence -->
<g id="edge9" class="edge"><title>http://latin.omdoc.org/math?Reflexive&#45;&gt;http://latin.omdoc.org/math?Equivalence</title>
<a class="graphinclude">
<path fill="none" stroke="black" d="M176.081,-178.354C183.723,-174.233 192.462,-170.262 201,-168 257.966,-152.91 408.823,-172.27 466,-158 481.815,-154.053 483.95,-148.258 499,-142 516.037,-134.916 535.077,-128.009 551.933,-122.229"/>
<polygon fill="black" stroke="black" points="553.226,-125.487 561.575,-118.963 550.98,-118.857 553.226,-125.487"/>
</a>
</g>
<!-- http://latin.omdoc.org/math?Preorder -->
<g id="node11" class="node"><title>http://latin.omdoc.org/math?Preorder</title>
<a xlink:href="http://latin.omdoc.org/math?Preorder" class="graphtheory">
<ellipse fill="gray" stroke="black" cx="42" cy="-106" rx="42.3701" ry="18"/>
<text text-anchor="middle" x="42" y="-102.3" font-family="Times New Roman,serif" font-size="14.00">Preorder</text>
</a>
</g>
<!-- http://latin.omdoc.org/math?Reflexive&#45;&gt;http://latin.omdoc.org/math?Preorder -->
<g id="edge11" class="edge"><title>http://latin.omdoc.org/math?Reflexive&#45;&gt;http://latin.omdoc.org/math?Preorder</title>
<a class="graphinclude">
<path fill="none" stroke="black" d="M133.411,-177.823C115.658,-164.068 89.3127,-143.657 69.4601,-128.275"/>
<polygon fill="black" stroke="black" points="71.4419,-125.383 61.3932,-122.025 67.1546,-130.917 71.4419,-125.383"/>
</a>
</g>
<!-- http://latin.omdoc.org/math?Preorder&#45;&gt;http://latin.omdoc.org/math?SemiLattice -->
<g id="edge29" class="edge"><title>http://latin.omdoc.org/math?Preorder&#45;&gt;http://latin.omdoc.org/math?SemiLattice</title>
<a xlink:href="http://latin.omdoc.org/math?POSL" class="graphview">
<path fill="none" stroke="black" d="M48.8591,-88.157C53.7149,-77.5773 60.963,-64.0763 70,-54 74.6107,-48.8591 80.1143,-44.0674 85.7574,-39.7802"/>
<polygon fill="black" stroke="black" points="87.9258,-42.5328 94.0372,-33.8782 83.8627,-36.8327 87.9258,-42.5328"/>
</a>
<a xlink:href="http://latin.omdoc.org/math?POSL" class="POSL">
<text text-anchor="middle" x="88" y="-58.3" font-family="Times New Roman,serif" font-size="14.00">POSL</text>
</a>
</g>
<!-- http://latin.omdoc.org/math?Relation -->
<g id="node13" class="node"><title>http://latin.omdoc.org/math?Relation</title>
<a xlink:href="http://latin.omdoc.org/math?Relation" class="graphtheory">
<ellipse fill="gray" stroke="black" cx="153" cy="-268" rx="39.9464" ry="18"/>
<text text-anchor="middle" x="153" y="-264.3" font-family="Times New Roman,serif" font-size="14.00">Relation</text>
</a>
</g>
<!-- http://latin.omdoc.org/math?Relation&#45;&gt;http://latin.omdoc.org/math?Reflexive -->
<g id="edge13" class="edge"><title>http://latin.omdoc.org/math?Relation&#45;&gt;http://latin.omdoc.org/math?Reflexive</title>
<a class="graphinclude">
<path fill="none" stroke="black" d="M153,-249.937C153,-241.807 153,-231.876 153,-222.705"/>
<polygon fill="black" stroke="black" points="156.5,-222.441 153,-212.441 149.5,-222.441 156.5,-222.441"/>
</a>
</g>
<!-- http://latin.omdoc.org/math?Relation&#45;&gt;http://latin.omdoc.org/math?SemiLattice -->
<g id="edge23" class="edge"><title>http://latin.omdoc.org/math?Relation&#45;&gt;http://latin.omdoc.org/math?SemiLattice</title>
<a xlink:href="http://latin.omdoc.org/math?RSL" class="graphview">
<path fill="none" stroke="black" d="M191.141,-261.872C295.95,-246.291 574.89,-193.954 487,-88 449.061,-42.2628 277.263,-26.6473 182.773,-21.4672"/>
<polygon fill="black" stroke="black" points="182.932,-17.9708 172.762,-20.9415 182.564,-24.9612 182.932,-17.9708"/>
</a>
<a xlink:href="http://latin.omdoc.org/math?RSL" class="RSL">
<text text-anchor="middle" x="515.5" y="-146.3" font-family="Times New Roman,serif" font-size="14.00">RSL</text>
</a>
</g>
<!-- http://latin.omdoc.org/math?Relation&#45;&gt;http://latin.omdoc.org/math?Equivalence -->
<g id="edge25" class="edge"><title>http://latin.omdoc.org/math?Relation&#45;&gt;http://latin.omdoc.org/math?Equivalence</title>
<a class="graphinclude">
<path fill="none" stroke="black" d="M192.764,-265.446C284.294,-261.57 504.187,-250.439 532,-232 549.854,-220.164 574.39,-166.67 588.277,-133.616"/>
<polygon fill="black" stroke="black" points="591.632,-134.661 592.225,-124.082 585.165,-131.982 591.632,-134.661"/>
</a>
</g>
<!-- http://latin.omdoc.org/math?Relation&#45;&gt;http://latin.omdoc.org/math?Preorder -->
<g id="edge27" class="edge"><title>http://latin.omdoc.org/math?Relation&#45;&gt;http://latin.omdoc.org/math?Preorder</title>
<a class="graphinclude">
<path fill="none" stroke="black" d="M131.685,-252.499C120.342,-244.006 106.762,-232.507 97,-220 85.8317,-205.692 65.948,-162.25 53.3954,-133.588"/>
<polygon fill="black" stroke="black" points="56.4841,-131.914 49.2874,-124.138 50.0644,-134.704 56.4841,-131.914"/>
</a>
</g>
<!-- http://latin.omdoc.org/math?Universe -->
<g id="node15" class="node"><title>http://latin.omdoc.org/math?Universe</title>
<a xlink:href="http://latin.omdoc.org/math?Universe" class="graphtheory">
<ellipse fill="gray" stroke="black" cx="104" cy="-342" rx="42.3701" ry="18"/>
<text text-anchor="middle" x="104" y="-338.3" font-family="Times New Roman,serif" font-size="14.00">Universe</text>
</a>
</g>
<!-- http://latin.omdoc.org/math?Universe&#45;&gt;http://latin.omdoc.org/math?Reflexive -->
<g id="edge15" class="edge"><title>http://latin.omdoc.org/math?Universe&#45;&gt;http://latin.omdoc.org/math?Reflexive</title>
<a class="graphmeta">
<path fill="none" stroke="black" d="M100.483,-323.914C97.4041,-305.122 94.7223,-274.361 104,-250 108.658,-237.769 117.423,-226.527 126.267,-217.438"/>
<polygon fill="black" stroke="black" points="128.861,-219.798 133.626,-210.335 124,-214.762 128.861,-219.798"/>
</a>
</g>
<!-- http://latin.omdoc.org/math?Universe&#45;&gt;http://latin.omdoc.org/math?Equivalence -->
<g id="edge17" class="edge"><title>http://latin.omdoc.org/math?Universe&#45;&gt;http://latin.omdoc.org/math?Equivalence</title>
<a class="graphmeta">
<path fill="none" stroke="black" d="M142.409,-334.319C220.219,-320.186 401.435,-284.211 547,-232 558.601,-227.839 564.261,-229.592 572,-220 591.639,-195.66 597.393,-159.35 598.877,-134.5"/>
<polygon fill="black" stroke="black" points="602.383,-134.429 599.287,-124.296 595.388,-134.148 602.383,-134.429"/>
</a>
</g>
<!-- http://latin.omdoc.org/math?Universe&#45;&gt;http://latin.omdoc.org/math?Preorder -->
<g id="edge19" class="edge"><title>http://latin.omdoc.org/math?Universe&#45;&gt;http://latin.omdoc.org/math?Preorder</title>
<a class="graphmeta">
<path fill="none" stroke="black" d="M98.07,-323.917C90.1123,-300.618 75.8422,-257.482 66,-220 58.3488,-190.862 51.4135,-157.013 46.9882,-134.014"/>
<polygon fill="black" stroke="black" points="50.3844,-133.137 45.0817,-123.965 43.5071,-134.442 50.3844,-133.137"/>
</a>
</g>
<!-- http://latin.omdoc.org/math?Universe&#45;&gt;http://latin.omdoc.org/math?Relation -->
<g id="edge21" class="edge"><title>http://latin.omdoc.org/math?Universe&#45;&gt;http://latin.omdoc.org/math?Relation</title>
<a class="graphmeta">
<path fill="none" stroke="black" d="M115.365,-324.301C121.487,-315.304 129.164,-304.025 135.984,-294.003"/>
<polygon fill="black" stroke="black" points="138.964,-295.845 141.697,-285.609 133.177,-291.907 138.964,-295.845"/>
</a>
</g>
</g>
</svg>
