<?xml version="1.0" encoding="UTF-8" standalone="no"?>
<!DOCTYPE svg PUBLIC "-//W3C//DTD SVG 1.1//EN"
 "http://www.w3.org/Graphics/SVG/1.1/DTD/svg11.dtd">
<!-- Generated by graphviz version 2.28.0 (20110507.0327)
 -->
<!-- Title: MMT Pages: 1 -->
<svg width="210pt" height="204pt"
 viewBox="0.00 0.00 210.00 204.00" xmlns="http://www.w3.org/2000/svg" xmlns:xlink="http://www.w3.org/1999/xlink">
<g id="graph1" class="graph" transform="scale(1 1) rotate(0) translate(4 200)">
<title>MMT</title>
<polygon fill="white" stroke="white" points="-4,5 -4,-200 207,-200 207,5 -4,5"/>
<g id="graph2" class="cluster"><title>cluster_local</title>
<polygon fill="none" stroke="black" points="8,-8 8,-60 162,-60 162,-8 8,-8"/>
</g>
<!-- http://latin.omdoc.org/math?RelationAlgebra -->
<g id="node2" class="node"><title>http://latin.omdoc.org/math?RelationAlgebra</title>
<a xlink:href="http://latin.omdoc.org/math?RelationAlgebra" class="graphtheory">
<ellipse fill="none" stroke="black" cx="85" cy="-34" rx="68.3417" ry="18"/>
<text text-anchor="middle" x="85" y="-30.3" font-family="Times New Roman,serif" font-size="14.00">RelationAlgebra</text>
</a>
</g>
<!-- http://latin.omdoc.org/math?BooleanAlgebra -->
<g id="node3" class="node"><title>http://latin.omdoc.org/math?BooleanAlgebra</title>
<a xlink:href="http://latin.omdoc.org/math?BooleanAlgebra" class="graphtheory">
<ellipse fill="gray" stroke="black" cx="134" cy="-106" rx="68.3417" ry="18"/>
<text text-anchor="middle" x="134" y="-102.3" font-family="Times New Roman,serif" font-size="14.00">BooleanAlgebra</text>
</a>
</g>
<!-- http://latin.omdoc.org/math?BooleanAlgebra&#45;&gt;http://latin.omdoc.org/math?RelationAlgebra -->
<g id="edge3" class="edge"><title>http://latin.omdoc.org/math?BooleanAlgebra&#45;&gt;http://latin.omdoc.org/math?RelationAlgebra</title>
<a class="graphinclude">
<path fill="none" stroke="black" d="M122.138,-88.055C116.3,-79.7147 109.144,-69.4908 102.676,-60.2517"/>
<polygon fill="black" stroke="black" points="105.354,-57.9742 96.7523,-51.789 99.6196,-61.9885 105.354,-57.9742"/>
</a>
</g>
<!-- http://latin.omdoc.org/math?EqUniverse -->
<g id="node5" class="node"><title>http://latin.omdoc.org/math?EqUniverse</title>
<a xlink:href="http://latin.omdoc.org/math?EqUniverse" class="graphtheory">
<ellipse fill="gray" stroke="black" cx="85" cy="-178" rx="52.4675" ry="18"/>
<text text-anchor="middle" x="85" y="-174.3" font-family="Times New Roman,serif" font-size="14.00">EqUniverse</text>
</a>
</g>
<!-- http://latin.omdoc.org/math?EqUniverse&#45;&gt;http://latin.omdoc.org/math?RelationAlgebra -->
<g id="edge5" class="edge"><title>http://latin.omdoc.org/math?EqUniverse&#45;&gt;http://latin.omdoc.org/math?RelationAlgebra</title>
<a class="graphmeta">
<path fill="none" stroke="black" d="M72.9944,-160.255C66.5759,-150.257 59.3259,-137.007 56,-124 52.0364,-108.499 52.0364,-103.501 56,-88 58.4425,-78.4479 63.0012,-68.7648 67.7928,-60.3348"/>
<polygon fill="black" stroke="black" points="70.8085,-62.1116 72.9944,-51.7447 64.8207,-58.4857 70.8085,-62.1116"/>
</a>
</g>
<!-- http://latin.omdoc.org/math?EqUniverse&#45;&gt;http://latin.omdoc.org/math?BooleanAlgebra -->
<g id="edge7" class="edge"><title>http://latin.omdoc.org/math?EqUniverse&#45;&gt;http://latin.omdoc.org/math?BooleanAlgebra</title>
<a class="graphmeta">
<path fill="none" stroke="black" d="M96.6123,-160.411C102.506,-151.992 109.791,-141.585 116.36,-132.201"/>
<polygon fill="black" stroke="black" points="119.263,-134.156 122.131,-123.956 113.529,-130.141 119.263,-134.156"/>
</a>
</g>
</g>
</svg>
