<?xml version="1.0" encoding="UTF-8" standalone="no"?>
<!DOCTYPE svg PUBLIC "-//W3C//DTD SVG 1.1//EN"
 "http://www.w3.org/Graphics/SVG/1.1/DTD/svg11.dtd">
<!-- Generated by graphviz version 2.28.0 (20110507.0327)
 -->
<!-- Title: MMT Pages: 1 -->
<svg
 viewBox="0.00 0.00 1192.00 442.00" xmlns="http://www.w3.org/2000/svg" xmlns:xlink="http://www.w3.org/1999/xlink">
<g id="graph1" class="graph" transform="scale(1 1) rotate(0) translate(4 438)">
<title>MMT</title>
<polygon fill="white" stroke="white" points="-4,5 -4,-438 1189,-438 1189,5 -4,5"/>
<g id="graph2" class="cluster"><title>cluster_local</title>
<polygon fill="none" stroke="black" points="444,-66 444,-206 566,-206 566,-66 444,-66"/>
</g>
<!-- http://latin.omdoc.org/math?Reflexive -->
<g id="node2" class="node"><title>http://latin.omdoc.org/math?Reflexive</title>
<a xlink:href="http://latin.omdoc.org/math?Reflexive" class="graphtheory">
<ellipse fill="none" stroke="black" cx="496" cy="-180" rx="44.2946" ry="18"/>
<text text-anchor="middle" x="496" y="-176.3" font-family="Times New Roman,serif" font-size="14.00">Reflexive</text>
</a>
</g>
<!-- http://latin.omdoc.org/math?SemiLattice -->
<g id="node3" class="node"><title>http://latin.omdoc.org/math?SemiLattice</title>
<a xlink:href="http://latin.omdoc.org/math?SemiLattice" class="graphtheory">
<ellipse fill="none" stroke="black" cx="505" cy="-92" rx="52.9443" ry="18"/>
<text text-anchor="middle" x="505" y="-88.3" font-family="Times New Roman,serif" font-size="14.00">SemiLattice</text>
</a>
</g>
<!-- http://latin.omdoc.org/math?Reflexive&#45;&gt;http://latin.omdoc.org/math?SemiLattice -->
<g id="edge3" class="edge"><title>http://latin.omdoc.org/math?Reflexive&#45;&gt;http://latin.omdoc.org/math?SemiLattice</title>
<a xlink:href="http://latin.omdoc.org/math?ReSL" class="graphview">
<path fill="none" stroke="black" d="M497.778,-162.009C499.015,-150.19 500.691,-134.171 502.118,-120.542"/>
<polygon fill="black" stroke="black" points="505.635,-120.56 503.195,-110.25 498.673,-119.831 505.635,-120.56"/>
</a>
<a xlink:href="http://latin.omdoc.org/math?ReSL" class="ReSL">
<text text-anchor="middle" x="518.5" y="-132.3" font-family="Times New Roman,serif" font-size="14.00">ReSL</text>
</a>
</g>
<!-- http://latin.omdoc.org/math?POSL -->
<g id="node5" class="node"><title>http://latin.omdoc.org/math?POSL</title>
<a xlink:href="http://latin.omdoc.org/math?POSL" class="graphtheory">
<ellipse fill="gray" stroke="black" cx="161" cy="-92" rx="33.1991" ry="18"/>
<text text-anchor="middle" x="161" y="-88.3" font-family="Times New Roman,serif" font-size="14.00">POSL</text>
</a>
</g>
<!-- http://latin.omdoc.org/math?Reflexive&#45;&gt;http://latin.omdoc.org/math?POSL -->
<g id="edge5" class="edge"><title>http://latin.omdoc.org/math?Reflexive&#45;&gt;http://latin.omdoc.org/math?POSL</title>
<a xlink:href="http://latin.omdoc.org/math?POSL?[http://latin.omdoc.org/math?Reflexive]" class="graphstructure">
<path fill="none" stroke="black" d="M465.629,-166.835C459.854,-164.927 453.802,-163.193 448,-162 418.007,-155.83 196.37,-163.786 173,-144 166.114,-138.17 162.763,-129.202 161.241,-120.402"/>
<polygon fill="black" stroke="black" points="164.711,-119.931 160.192,-110.348 157.748,-120.657 164.711,-119.931"/>
</a>
<a xlink:href="http://latin.omdoc.org/math?POSL?[http://latin.omdoc.org/math?Reflexive]" class="[http://latin.omdoc.org/math?Reflexive]">
<text text-anchor="middle" x="282.5" y="-132.3" font-family="Times New Roman,serif" font-size="14.00">[http://latin.omdoc.org/math?Reflexive]</text>
</a>
</g>
<!-- http://latin.omdoc.org/math?NeutralElementFOL -->
<g id="node7" class="node"><title>http://latin.omdoc.org/math?NeutralElementFOL</title>
<a xlink:href="http://latin.omdoc.org/math?NeutralElementFOL" class="graphtheory">
<ellipse fill="gray" stroke="black" cx="351" cy="-92" rx="83.2892" ry="18"/>
<text text-anchor="middle" x="351" y="-88.3" font-family="Times New Roman,serif" font-size="14.00">NeutralElementFOL</text>
</a>
</g>
<!-- http://latin.omdoc.org/math?Reflexive&#45;&gt;http://latin.omdoc.org/math?NeutralElementFOL -->
<g id="edge7" class="edge"><title>http://latin.omdoc.org/math?Reflexive&#45;&gt;http://latin.omdoc.org/math?NeutralElementFOL</title>
<a xlink:href="http://latin.omdoc.org/math?OMReflexive" class="graphview">
<path fill="none" stroke="black" d="M465.249,-166.839C450.837,-160.686 433.653,-152.685 419,-144 405.076,-135.747 390.6,-125.203 378.602,-115.847"/>
<polygon fill="black" stroke="black" points="380.738,-113.074 370.728,-109.602 376.388,-118.559 380.738,-113.074"/>
</a>
<a xlink:href="http://latin.omdoc.org/math?OMReflexive" class="OMReflexive">
<text text-anchor="middle" x="456.5" y="-132.3" font-family="Times New Roman,serif" font-size="14.00">OMReflexive</text>
</a>
</g>
<!-- http://latin.omdoc.org/math?Equivalence -->
<g id="node9" class="node"><title>http://latin.omdoc.org/math?Equivalence</title>
<a xlink:href="http://latin.omdoc.org/math?Equivalence" class="graphtheory">
<ellipse fill="gray" stroke="black" cx="53" cy="-92" rx="53.4184" ry="18"/>
<text text-anchor="middle" x="53" y="-88.3" font-family="Times New Roman,serif" font-size="14.00">Equivalence</text>
</a>
</g>
<!-- http://latin.omdoc.org/math?Reflexive&#45;&gt;http://latin.omdoc.org/math?Equivalence -->
<g id="edge9" class="edge"><title>http://latin.omdoc.org/math?Reflexive&#45;&gt;http://latin.omdoc.org/math?Equivalence</title>
<a class="graphinclude">
<path fill="none" stroke="black" d="M465.632,-166.821C459.857,-164.914 453.803,-163.185 448,-162 322.343,-136.345 284.148,-176.177 160,-144 134.088,-137.284 106.883,-124.226 86.3891,-113.004"/>
<polygon fill="black" stroke="black" points="87.9084,-109.844 77.474,-108.007 84.4857,-115.95 87.9084,-109.844"/>
</a>
</g>
<!-- http://latin.omdoc.org/math?Preorder -->
<g id="node11" class="node"><title>http://latin.omdoc.org/math?Preorder</title>
<a xlink:href="http://latin.omdoc.org/math?Preorder" class="graphtheory">
<ellipse fill="gray" stroke="black" cx="916" cy="-180" rx="42.3701" ry="18"/>
<text text-anchor="middle" x="916" y="-176.3" font-family="Times New Roman,serif" font-size="14.00">Preorder</text>
</a>
</g>
<!-- http://latin.omdoc.org/math?Reflexive&#45;&gt;http://latin.omdoc.org/math?Preorder -->
<g id="edge11" class="edge"><title>http://latin.omdoc.org/math?Reflexive&#45;&gt;http://latin.omdoc.org/math?Preorder</title>
<a class="graphinclude">
<path fill="none" stroke="black" d="M510.477,-197.292C520.975,-208.409 536.229,-221.879 553,-228 616.044,-251.009 791.583,-249.959 855,-228 869.206,-223.081 882.616,-213.333 893.224,-203.9"/>
<polygon fill="black" stroke="black" points="895.859,-206.227 900.758,-196.832 891.07,-201.122 895.859,-206.227"/>
</a>
</g>
<!-- http://latin.omdoc.org/math?Lattice -->
<g id="node25" class="node"><title>http://latin.omdoc.org/math?Lattice</title>
<a xlink:href="http://latin.omdoc.org/math?Lattice" class="graphtheory">
<ellipse fill="gray" stroke="black" cx="1026" cy="-18" rx="35.1455" ry="18"/>
<text text-anchor="middle" x="1026" y="-14.3" font-family="Times New Roman,serif" font-size="14.00">Lattice</text>
</a>
</g>
<!-- http://latin.omdoc.org/math?SemiLattice&#45;&gt;http://latin.omdoc.org/math?Lattice -->
<g id="edge27" class="edge"><title>http://latin.omdoc.org/math?SemiLattice&#45;&gt;http://latin.omdoc.org/math?Lattice</title>
<a class="graphinclude">
<path fill="none" stroke="black" d="M533.078,-76.6092C542.101,-72.5539 552.281,-68.5557 562,-66 711.625,-26.6546 896.389,-19.8597 980.479,-18.9437"/>
<polygon fill="black" stroke="black" points="980.736,-22.4418 990.706,-18.8564 980.676,-15.442 980.736,-22.4418"/>
</a>
</g>
<!-- http://latin.omdoc.org/math?Preorder&#45;&gt;http://latin.omdoc.org/math?SemiLattice -->
<g id="edge21" class="edge"><title>http://latin.omdoc.org/math?Preorder&#45;&gt;http://latin.omdoc.org/math?SemiLattice</title>
<a xlink:href="http://latin.omdoc.org/math?POSL" class="graphview">
<path fill="none" stroke="black" d="M884.575,-167.977C877.836,-165.824 870.72,-163.708 864,-162 782.976,-141.409 761.433,-141.913 679,-128 627.122,-119.244 613.329,-121.546 562,-110 558.776,-109.275 555.467,-108.465 552.146,-107.604"/>
<polygon fill="black" stroke="black" points="552.781,-104.15 542.213,-104.896 550.94,-110.903 552.781,-104.15"/>
</a>
<a xlink:href="http://latin.omdoc.org/math?POSL" class="POSL">
<text text-anchor="middle" x="797" y="-132.3" font-family="Times New Roman,serif" font-size="14.00">POSL</text>
</a>
</g>
<!-- http://latin.omdoc.org/math?Order -->
<g id="node17" class="node"><title>http://latin.omdoc.org/math?Order</title>
<a xlink:href="http://latin.omdoc.org/math?Order" class="graphtheory">
<ellipse fill="gray" stroke="black" cx="1040" cy="-92" rx="32.2457" ry="18"/>
<text text-anchor="middle" x="1040" y="-88.3" font-family="Times New Roman,serif" font-size="14.00">Order</text>
</a>
</g>
<!-- http://latin.omdoc.org/math?Preorder&#45;&gt;http://latin.omdoc.org/math?Order -->
<g id="edge65" class="edge"><title>http://latin.omdoc.org/math?Preorder&#45;&gt;http://latin.omdoc.org/math?Order</title>
<a class="graphinclude">
<path fill="none" stroke="black" d="M924.683,-161.901C930.986,-150.946 940.423,-137.122 952,-128 966.331,-116.708 984.773,-108.629 1001.07,-103.1"/>
<polygon fill="black" stroke="black" points="1002.41,-106.345 1010.88,-99.98 1000.29,-99.674 1002.41,-106.345"/>
</a>
</g>
<!-- http://latin.omdoc.org/math?Relation -->
<g id="node13" class="node"><title>http://latin.omdoc.org/math?Relation</title>
<a xlink:href="http://latin.omdoc.org/math?Relation" class="graphtheory">
<ellipse fill="gray" stroke="black" cx="630" cy="-342" rx="39.9464" ry="18"/>
<text text-anchor="middle" x="630" y="-338.3" font-family="Times New Roman,serif" font-size="14.00">Relation</text>
</a>
</g>
<!-- http://latin.omdoc.org/math?Relation&#45;&gt;http://latin.omdoc.org/math?Reflexive -->
<g id="edge13" class="edge"><title>http://latin.omdoc.org/math?Relation&#45;&gt;http://latin.omdoc.org/math?Reflexive</title>
<a class="graphinclude">
<path fill="none" stroke="black" d="M616.414,-324.778C592.737,-296.507 543.807,-238.083 516.163,-205.076"/>
<polygon fill="black" stroke="black" points="518.726,-202.684 509.622,-197.265 513.359,-207.179 518.726,-202.684"/>
</a>
</g>
<!-- http://latin.omdoc.org/math?Relation&#45;&gt;http://latin.omdoc.org/math?SemiLattice -->
<g id="edge23" class="edge"><title>http://latin.omdoc.org/math?Relation&#45;&gt;http://latin.omdoc.org/math?SemiLattice</title>
<a xlink:href="http://latin.omdoc.org/math?RSL" class="graphview">
<path fill="none" stroke="black" d="M628.349,-323.844C624.639,-290.911 613.695,-217.206 586,-162 575.913,-141.893 557.095,-125.302 540.134,-113.432"/>
<polygon fill="black" stroke="black" points="541.75,-110.303 531.49,-107.662 537.863,-116.125 541.75,-110.303"/>
</a>
<a xlink:href="http://latin.omdoc.org/math?RSL" class="RSL">
<text text-anchor="middle" x="625.5" y="-220.3" font-family="Times New Roman,serif" font-size="14.00">RSL</text>
</a>
</g>
<!-- http://latin.omdoc.org/math?Relation&#45;&gt;http://latin.omdoc.org/math?Equivalence -->
<g id="edge57" class="edge"><title>http://latin.omdoc.org/math?Relation&#45;&gt;http://latin.omdoc.org/math?Equivalence</title>
<a class="graphinclude">
<path fill="none" stroke="black" d="M592.27,-335.782C485.105,-320.276 181.931,-271.451 109,-206 83.2204,-182.865 67.917,-145.169 59.9868,-119.744"/>
<polygon fill="black" stroke="black" points="63.3014,-118.61 57.1208,-110.005 56.5861,-120.586 63.3014,-118.61"/>
</a>
</g>
<!-- http://latin.omdoc.org/math?Relation&#45;&gt;http://latin.omdoc.org/math?Preorder -->
<g id="edge59" class="edge"><title>http://latin.omdoc.org/math?Relation&#45;&gt;http://latin.omdoc.org/math?Preorder</title>
<a class="graphinclude">
<path fill="none" stroke="black" d="M654.073,-327.467C694.942,-304.5 780.525,-256.444 853,-216 862.522,-210.686 872.862,-204.934 882.359,-199.658"/>
<polygon fill="black" stroke="black" points="884.109,-202.69 891.153,-194.776 880.711,-196.57 884.109,-202.69"/>
</a>
</g>
<!-- http://latin.omdoc.org/math?Transitive -->
<g id="node19" class="node"><title>http://latin.omdoc.org/math?Transitive</title>
<a xlink:href="http://latin.omdoc.org/math?Transitive" class="graphtheory">
<ellipse fill="gray" stroke="black" cx="498" cy="-268" rx="46.2191" ry="18"/>
<text text-anchor="middle" x="498" y="-264.3" font-family="Times New Roman,serif" font-size="14.00">Transitive</text>
</a>
</g>
<!-- http://latin.omdoc.org/math?Relation&#45;&gt;http://latin.omdoc.org/math?Transitive -->
<g id="edge63" class="edge"><title>http://latin.omdoc.org/math?Relation&#45;&gt;http://latin.omdoc.org/math?Transitive</title>
<a class="graphinclude">
<path fill="none" stroke="black" d="M603.005,-328.663C589.35,-322.226 572.616,-314.033 558,-306 548.589,-300.828 538.58,-294.854 529.489,-289.236"/>
<polygon fill="black" stroke="black" points="531.094,-286.112 520.759,-283.779 527.384,-292.048 531.094,-286.112"/>
</a>
</g>
<!-- http://latin.omdoc.org/math?Antisymmetric -->
<g id="node23" class="node"><title>http://latin.omdoc.org/math?Antisymmetric</title>
<a xlink:href="http://latin.omdoc.org/math?Antisymmetric" class="graphtheory">
<ellipse fill="gray" stroke="black" cx="1040" cy="-180" rx="63.5411" ry="18"/>
<text text-anchor="middle" x="1040" y="-176.3" font-family="Times New Roman,serif" font-size="14.00">Antisymmetric</text>
</a>
</g>
<!-- http://latin.omdoc.org/math?Relation&#45;&gt;http://latin.omdoc.org/math?Antisymmetric -->
<g id="edge61" class="edge"><title>http://latin.omdoc.org/math?Relation&#45;&gt;http://latin.omdoc.org/math?Antisymmetric</title>
<a class="graphinclude">
<path fill="none" stroke="black" d="M659.763,-329.857C689.109,-318.835 735.212,-301.427 775,-286 852.751,-255.853 942.965,-219.899 995.546,-198.845"/>
<polygon fill="black" stroke="black" points="996.933,-202.06 1004.91,-195.092 994.33,-195.562 996.933,-202.06"/>
</a>
</g>
<!-- http://latin.omdoc.org/math?Universe -->
<g id="node15" class="node"><title>http://latin.omdoc.org/math?Universe</title>
<a xlink:href="http://latin.omdoc.org/math?Universe" class="graphtheory">
<ellipse fill="gray" stroke="black" cx="543" cy="-416" rx="42.3701" ry="18"/>
<text text-anchor="middle" x="543" y="-412.3" font-family="Times New Roman,serif" font-size="14.00">Universe</text>
</a>
</g>
<!-- http://latin.omdoc.org/math?Universe&#45;&gt;http://latin.omdoc.org/math?Reflexive -->
<g id="edge15" class="edge"><title>http://latin.omdoc.org/math?Universe&#45;&gt;http://latin.omdoc.org/math?Reflexive</title>
<a class="graphmeta">
<path fill="none" stroke="black" d="M524.948,-399.285C500.827,-376.956 459.239,-333.455 443,-286 437.82,-270.862 437.853,-265.15 443,-250 448.819,-232.871 460.794,-216.667 471.89,-204.272"/>
<polygon fill="black" stroke="black" points="474.698,-206.394 478.982,-196.705 469.59,-201.608 474.698,-206.394"/>
</a>
</g>
<!-- http://latin.omdoc.org/math?Universe&#45;&gt;http://latin.omdoc.org/math?Equivalence -->
<g id="edge49" class="edge"><title>http://latin.omdoc.org/math?Universe&#45;&gt;http://latin.omdoc.org/math?Equivalence</title>
<a class="graphmeta">
<path fill="none" stroke="black" d="M500.969,-413.696C375.613,-409.254 13,-392.157 13,-343 13,-343 13,-343 13,-179 13,-157.048 23.8473,-134.637 34.2444,-118.199"/>
<polygon fill="black" stroke="black" points="37.2621,-119.982 39.9025,-109.722 31.4399,-116.096 37.2621,-119.982"/>
</a>
</g>
<!-- http://latin.omdoc.org/math?Universe&#45;&gt;http://latin.omdoc.org/math?Preorder -->
<g id="edge51" class="edge"><title>http://latin.omdoc.org/math?Universe&#45;&gt;http://latin.omdoc.org/math?Preorder</title>
<a class="graphmeta">
<path fill="none" stroke="black" d="M575.643,-404.392C603.866,-394.62 645.311,-378.812 679,-360 762.821,-313.194 777.004,-290.663 853,-232 865.191,-222.59 878.472,-211.905 889.683,-202.755"/>
<polygon fill="black" stroke="black" points="891.918,-205.449 897.436,-196.404 887.482,-200.034 891.918,-205.449"/>
</a>
</g>
<!-- http://latin.omdoc.org/math?Universe&#45;&gt;http://latin.omdoc.org/math?Relation -->
<g id="edge53" class="edge"><title>http://latin.omdoc.org/math?Universe&#45;&gt;http://latin.omdoc.org/math?Relation</title>
<a class="graphmeta">
<path fill="none" stroke="black" d="M561.45,-399.731C573.677,-389.612 589.909,-376.179 603.508,-364.924"/>
<polygon fill="black" stroke="black" points="606.104,-367.319 611.576,-358.247 601.641,-361.927 606.104,-367.319"/>
</a>
</g>
<!-- http://latin.omdoc.org/math?Universe&#45;&gt;http://latin.omdoc.org/math?Transitive -->
<g id="edge55" class="edge"><title>http://latin.omdoc.org/math?Universe&#45;&gt;http://latin.omdoc.org/math?Transitive</title>
<a class="graphmeta">
<path fill="none" stroke="black" d="M537.75,-397.966C529.993,-372.801 515.402,-325.458 506.219,-295.666"/>
<polygon fill="black" stroke="black" points="509.507,-294.451 503.217,-285.925 502.817,-296.513 509.507,-294.451"/>
</a>
</g>
<!-- http://latin.omdoc.org/math?EqUniverse -->
<g id="node29" class="node"><title>http://latin.omdoc.org/math?EqUniverse</title>
<a xlink:href="http://latin.omdoc.org/math?EqUniverse" class="graphtheory">
<ellipse fill="gray" stroke="black" cx="1132" cy="-268" rx="52.4675" ry="18"/>
<text text-anchor="middle" x="1132" y="-264.3" font-family="Times New Roman,serif" font-size="14.00">EqUniverse</text>
</a>
</g>
<!-- http://latin.omdoc.org/math?Universe&#45;&gt;http://latin.omdoc.org/math?EqUniverse -->
<g id="edge47" class="edge"><title>http://latin.omdoc.org/math?Universe&#45;&gt;http://latin.omdoc.org/math?EqUniverse</title>
<a class="graphinclude">
<path fill="none" stroke="black" d="M585.121,-414.836C649.824,-413.651 777.09,-407.618 881,-380 961.729,-358.544 1049.6,-314.419 1096.97,-288.735"/>
<polygon fill="black" stroke="black" points="1098.8,-291.726 1105.89,-283.857 1095.44,-285.584 1098.8,-291.726"/>
</a>
</g>
<!-- http://latin.omdoc.org/math?Order&#45;&gt;http://latin.omdoc.org/math?SemiLattice -->
<g id="edge17" class="edge"><title>http://latin.omdoc.org/math?Order&#45;&gt;http://latin.omdoc.org/math?SemiLattice</title>
<a xlink:href="http://latin.omdoc.org/math?OSL" class="graphview">
<path fill="none" stroke="black" d="M1007.46,-92C920.73,-92 682.833,-92 568.281,-92"/>
<polygon fill="black" stroke="black" points="568.254,-88.5001 558.254,-92 568.254,-95.5001 568.254,-88.5001"/>
</a>
<a xlink:href="http://latin.omdoc.org/math?OSL" class="OSL">
<text text-anchor="middle" x="782.751" y="-98.8" font-family="Times New Roman,serif" font-size="14.00">OSL</text>
</a>
</g>
<!-- http://latin.omdoc.org/math?Transitive&#45;&gt;http://latin.omdoc.org/math?SemiLattice -->
<g id="edge19" class="edge"><title>http://latin.omdoc.org/math?Transitive&#45;&gt;http://latin.omdoc.org/math?SemiLattice</title>
<a xlink:href="http://latin.omdoc.org/math?TSL" class="graphview">
<path fill="none" stroke="black" d="M516.375,-251.48C528.188,-240.233 542.501,-223.906 549,-206 560.924,-173.147 556.623,-158.182 539,-128 536.679,-124.024 533.811,-120.159 530.733,-116.537"/>
<polygon fill="black" stroke="black" points="533.155,-114.002 523.79,-109.047 528.021,-118.761 533.155,-114.002"/>
</a>
<a xlink:href="http://latin.omdoc.org/math?TSL" class="TSL">
<text text-anchor="middle" x="569" y="-176.3" font-family="Times New Roman,serif" font-size="14.00">TSL</text>
</a>
</g>
<!-- http://latin.omdoc.org/math?Transitive&#45;&gt;http://latin.omdoc.org/math?POSL -->
<g id="edge41" class="edge"><title>http://latin.omdoc.org/math?Transitive&#45;&gt;http://latin.omdoc.org/math?POSL</title>
<a xlink:href="http://latin.omdoc.org/math?POSL?[http://latin.omdoc.org/math?Transitive]" class="graphstructure">
<path fill="none" stroke="black" d="M452.387,-265.328C394.398,-261.425 292.837,-248.513 218,-206 185.191,-187.362 173.857,-179.097 160,-144 157.093,-136.638 156.338,-128.2 156.586,-120.335"/>
<polygon fill="black" stroke="black" points="160.095,-120.377 157.439,-110.12 153.119,-119.794 160.095,-120.377"/>
</a>
<a xlink:href="http://latin.omdoc.org/math?POSL?[http://latin.omdoc.org/math?Transitive]" class="[http://latin.omdoc.org/math?Transitive]">
<text text-anchor="middle" x="329" y="-176.3" font-family="Times New Roman,serif" font-size="14.00">[http://latin.omdoc.org/math?Transitive]</text>
</a>
</g>
<!-- http://latin.omdoc.org/math?Transitive&#45;&gt;http://latin.omdoc.org/math?Equivalence -->
<g id="edge43" class="edge"><title>http://latin.omdoc.org/math?Transitive&#45;&gt;http://latin.omdoc.org/math?Equivalence</title>
<a class="graphinclude">
<path fill="none" stroke="black" d="M453.128,-263.906C400.695,-259.621 311.606,-250.251 237,-232 203.952,-223.915 193.677,-224.308 165,-206 127.349,-181.963 92.5725,-143.201 72.0637,-117.91"/>
<polygon fill="black" stroke="black" points="74.6417,-115.529 65.672,-109.89 69.1676,-119.892 74.6417,-115.529"/>
</a>
</g>
<!-- http://latin.omdoc.org/math?Transitive&#45;&gt;http://latin.omdoc.org/math?Preorder -->
<g id="edge45" class="edge"><title>http://latin.omdoc.org/math?Transitive&#45;&gt;http://latin.omdoc.org/math?Preorder</title>
<a class="graphinclude">
<path fill="none" stroke="black" d="M522.593,-252.549C544.846,-240.303 578.949,-223.563 611,-216 720.524,-190.156 754.796,-233.167 864,-206 870.315,-204.429 876.774,-202.045 882.897,-199.362"/>
<polygon fill="black" stroke="black" points="884.631,-202.414 892.174,-194.974 881.637,-196.086 884.631,-202.414"/>
</a>
</g>
<!-- http://latin.omdoc.org/math?Antisymmetric&#45;&gt;http://latin.omdoc.org/math?SemiLattice -->
<g id="edge25" class="edge"><title>http://latin.omdoc.org/math?Antisymmetric&#45;&gt;http://latin.omdoc.org/math?SemiLattice</title>
<a xlink:href="http://latin.omdoc.org/math?ASL" class="graphview">
<path fill="none" stroke="black" d="M992.49,-167.914C984.003,-165.94 975.241,-163.906 967,-162 901.245,-146.791 885.755,-137.943 819,-128 705.747,-111.13 674.654,-130.486 562,-110 558.542,-109.371 554.997,-108.609 551.448,-107.761"/>
<polygon fill="black" stroke="black" points="552.065,-104.305 541.506,-105.178 550.305,-111.08 552.065,-104.305"/>
</a>
<a xlink:href="http://latin.omdoc.org/math?ASL" class="ASL">
<text text-anchor="middle" x="908.5" y="-132.3" font-family="Times New Roman,serif" font-size="14.00">ASL</text>
</a>
</g>
<!-- http://latin.omdoc.org/math?Antisymmetric&#45;&gt;http://latin.omdoc.org/math?Order -->
<g id="edge39" class="edge"><title>http://latin.omdoc.org/math?Antisymmetric&#45;&gt;http://latin.omdoc.org/math?Order</title>
<a class="graphinclude">
<path fill="none" stroke="black" d="M1040,-161.597C1040,-149.746 1040,-133.817 1040,-120.292"/>
<polygon fill="black" stroke="black" points="1043.5,-120.084 1040,-110.084 1036.5,-120.084 1043.5,-120.084"/>
</a>
</g>
<!-- http://latin.omdoc.org/math?CommutativeSemigroup -->
<g id="node27" class="node"><title>http://latin.omdoc.org/math?CommutativeSemigroup</title>
<a xlink:href="http://latin.omdoc.org/math?CommutativeSemigroup" class="graphtheory">
<ellipse fill="gray" stroke="black" cx="757" cy="-180" rx="98.1881" ry="18"/>
<text text-anchor="middle" x="757" y="-176.3" font-family="Times New Roman,serif" font-size="14.00">CommutativeSemigroup</text>
</a>
</g>
<!-- http://latin.omdoc.org/math?CommutativeSemigroup&#45;&gt;http://latin.omdoc.org/math?SemiLattice -->
<g id="edge29" class="edge"><title>http://latin.omdoc.org/math?CommutativeSemigroup&#45;&gt;http://latin.omdoc.org/math?SemiLattice</title>
<a class="graphinclude">
<path fill="none" stroke="black" d="M725.561,-162.677C703.272,-151.638 672.399,-137.412 644,-128 608.582,-116.262 598.125,-119.338 562,-110 558.997,-109.224 555.915,-108.396 552.813,-107.539"/>
<polygon fill="black" stroke="black" points="553.486,-104.092 542.91,-104.731 551.576,-110.826 553.486,-104.092"/>
</a>
</g>
<!-- http://latin.omdoc.org/math?EqUniverse&#45;&gt;http://latin.omdoc.org/math?SemiLattice -->
<g id="edge31" class="edge"><title>http://latin.omdoc.org/math?EqUniverse&#45;&gt;http://latin.omdoc.org/math?SemiLattice</title>
<a class="graphmeta">
<path fill="none" stroke="black" d="M1134.12,-249.784C1135.95,-226.476 1135.31,-185.139 1112,-162 1052.36,-102.798 1009.48,-137.652 926,-128 765.096,-109.397 721.651,-137.344 562,-110 558.377,-109.379 554.66,-108.603 550.944,-107.726"/>
<polygon fill="black" stroke="black" points="551.737,-104.316 541.18,-105.206 549.988,-111.094 551.737,-104.316"/>
</a>
</g>
<!-- http://latin.omdoc.org/math?EqUniverse&#45;&gt;http://latin.omdoc.org/math?Order -->
<g id="edge37" class="edge"><title>http://latin.omdoc.org/math?EqUniverse&#45;&gt;http://latin.omdoc.org/math?Order</title>
<a class="graphmeta">
<path fill="none" stroke="black" d="M1140.29,-250.16C1152.85,-221.982 1172.57,-164.756 1146,-128 1131.53,-107.979 1105.18,-99.2183 1082.38,-95.4684"/>
<polygon fill="black" stroke="black" points="1082.59,-91.9645 1072.21,-94.0755 1081.64,-98.8998 1082.59,-91.9645"/>
</a>
</g>
<!-- http://latin.omdoc.org/math?EqUniverse&#45;&gt;http://latin.omdoc.org/math?Antisymmetric -->
<g id="edge35" class="edge"><title>http://latin.omdoc.org/math?EqUniverse&#45;&gt;http://latin.omdoc.org/math?Antisymmetric</title>
<a class="graphmeta">
<path fill="none" stroke="black" d="M1114.7,-250.824C1100.65,-237.694 1080.66,-219.009 1064.9,-204.272"/>
<polygon fill="black" stroke="black" points="1067.24,-201.668 1057.54,-197.396 1062.45,-206.782 1067.24,-201.668"/>
</a>
</g>
<!-- http://latin.omdoc.org/math?EqUniverse&#45;&gt;http://latin.omdoc.org/math?Lattice -->
<g id="edge33" class="edge"><title>http://latin.omdoc.org/math?EqUniverse&#45;&gt;http://latin.omdoc.org/math?Lattice</title>
<a class="graphmeta">
<path fill="none" stroke="black" d="M1149.75,-250.843C1154.97,-245.306 1160.28,-238.785 1164,-232 1186.24,-191.475 1187.75,-167.043 1163,-128 1137.08,-87.1101 1090.38,-54.9073 1058.79,-36.4105"/>
<polygon fill="black" stroke="black" points="1060.33,-33.2598 1049.91,-31.3384 1056.86,-39.3379 1060.33,-33.2598"/>
</a>
</g>
</g>
</svg>
