<?xml version="1.0" encoding="UTF-8" standalone="no"?>
<!DOCTYPE svg PUBLIC "-//W3C//DTD SVG 1.1//EN"
 "http://www.w3.org/Graphics/SVG/1.1/DTD/svg11.dtd">
<!-- Generated by graphviz version 2.28.0 (20110507.0327)
 -->
<!-- Title: MMT Pages: 1 -->
<svg
 viewBox="0.00 0.00 2344.39 354.00" xmlns="http://www.w3.org/2000/svg" xmlns:xlink="http://www.w3.org/1999/xlink">
<g id="graph1" class="graph" transform="scale(1 1) rotate(0) translate(4 350)">
<title>MMT</title>
<polygon fill="white" stroke="white" points="-4,5 -4,-350 2341.39,-350 2341.39,5 -4,5"/>
<g id="graph2" class="cluster"><title>cluster_local</title>
<polygon fill="none" stroke="black" points="1578,-66 1578,-206 1700,-206 1700,-66 1578,-66"/>
</g>
<!-- http://latin.omdoc.org/math?Relation -->
<g id="node2" class="node"><title>http://latin.omdoc.org/math?Relation</title>
<a xlink:href="http://latin.omdoc.org/math?Relation" class="graphtheory">
<ellipse fill="none" stroke="black" cx="1626" cy="-180" rx="39.9464" ry="18"/>
<text text-anchor="middle" x="1626" y="-176.3" font-family="Times New Roman,serif" font-size="14.00">Relation</text>
</a>
</g>
<!-- http://latin.omdoc.org/math?SemiLattice -->
<g id="node3" class="node"><title>http://latin.omdoc.org/math?SemiLattice</title>
<a xlink:href="http://latin.omdoc.org/math?SemiLattice" class="graphtheory">
<ellipse fill="none" stroke="black" cx="1639" cy="-92" rx="52.9443" ry="18"/>
<text text-anchor="middle" x="1639" y="-88.3" font-family="Times New Roman,serif" font-size="14.00">SemiLattice</text>
</a>
</g>
<!-- http://latin.omdoc.org/math?Relation&#45;&gt;http://latin.omdoc.org/math?SemiLattice -->
<g id="edge3" class="edge"><title>http://latin.omdoc.org/math?Relation&#45;&gt;http://latin.omdoc.org/math?SemiLattice</title>
<a xlink:href="http://latin.omdoc.org/math?RSL" class="graphview">
<path fill="none" stroke="black" d="M1622.09,-161.809C1620.45,-151.829 1619.45,-139.079 1622,-128 1622.67,-125.099 1623.61,-122.16 1624.71,-119.282"/>
<polygon fill="black" stroke="black" points="1628.03,-120.433 1628.9,-109.874 1621.63,-117.583 1628.03,-120.433"/>
</a>
<a xlink:href="http://latin.omdoc.org/math?RSL" class="RSL">
<text text-anchor="middle" x="1635.5" y="-132.3" font-family="Times New Roman,serif" font-size="14.00">RSL</text>
</a>
</g>
<!-- http://latin.omdoc.org/logics/syntax?RelationLogic -->
<g id="node5" class="node"><title>http://latin.omdoc.org/logics/syntax?RelationLogic</title>
<a xlink:href="http://latin.omdoc.org/logics/syntax?RelationLogic" class="graphtheory">
<ellipse fill="gray" stroke="black" cx="712" cy="-92" rx="61.6163" ry="18"/>
<text text-anchor="middle" x="712" y="-88.3" font-family="Times New Roman,serif" font-size="14.00">RelationLogic</text>
</a>
</g>
<!-- http://latin.omdoc.org/math?Relation&#45;&gt;http://latin.omdoc.org/logics/syntax?RelationLogic -->
<g id="edge5" class="edge"><title>http://latin.omdoc.org/math?Relation&#45;&gt;http://latin.omdoc.org/logics/syntax?RelationLogic</title>
<a xlink:href="http://latin.omdoc.org/logics/syntax?RelationInLogic" class="graphview">
<path fill="none" stroke="black" d="M1598.51,-166.697C1593.13,-164.776 1587.46,-163.073 1582,-162 1556.37,-156.967 660.289,-162.643 642,-144 629.365,-131.12 643.954,-119.11 663.023,-109.983"/>
<polygon fill="black" stroke="black" points="664.596,-113.114 672.329,-105.872 661.767,-106.711 664.596,-113.114"/>
</a>
<a xlink:href="http://latin.omdoc.org/logics/syntax?RelationInLogic" class="RelationInLogic">
<text text-anchor="middle" x="687" y="-132.3" font-family="Times New Roman,serif" font-size="14.00">RelationInLogic</text>
</a>
</g>
<!-- http://latin.omdoc.org/math?MagmaFOL -->
<g id="node7" class="node"><title>http://latin.omdoc.org/math?MagmaFOL</title>
<a xlink:href="http://latin.omdoc.org/math?MagmaFOL" class="graphtheory">
<ellipse fill="gray" stroke="black" cx="847" cy="-92" rx="55.3682" ry="18"/>
<text text-anchor="middle" x="847" y="-88.3" font-family="Times New Roman,serif" font-size="14.00">MagmaFOL</text>
</a>
</g>
<!-- http://latin.omdoc.org/math?Relation&#45;&gt;http://latin.omdoc.org/math?MagmaFOL -->
<g id="edge7" class="edge"><title>http://latin.omdoc.org/math?Relation&#45;&gt;http://latin.omdoc.org/math?MagmaFOL</title>
<a xlink:href="http://latin.omdoc.org/math?OMRelation" class="graphview">
<path fill="none" stroke="black" d="M1598.5,-166.707C1593.13,-164.784 1587.46,-163.079 1582,-162 1559.02,-157.461 755.384,-160.738 739,-144 734.026,-138.918 734.818,-133.751 739,-128 742.7,-122.911 769.578,-114.191 795.591,-106.729"/>
<polygon fill="black" stroke="black" points="796.795,-110.026 805.468,-103.94 794.894,-103.289 796.795,-110.026"/>
</a>
<a xlink:href="http://latin.omdoc.org/math?OMRelation" class="OMRelation">
<text text-anchor="middle" x="773.5" y="-132.3" font-family="Times New Roman,serif" font-size="14.00">OMRelation</text>
</a>
</g>
<!-- http://latin.omdoc.org/math?ASL -->
<g id="node9" class="node"><title>http://latin.omdoc.org/math?ASL</title>
<a xlink:href="http://latin.omdoc.org/math?ASL" class="graphtheory">
<ellipse fill="gray" stroke="black" cx="948" cy="-92" rx="27.4223" ry="18"/>
<text text-anchor="middle" x="948" y="-88.3" font-family="Times New Roman,serif" font-size="14.00">ASL</text>
</a>
</g>
<!-- http://latin.omdoc.org/math?Relation&#45;&gt;http://latin.omdoc.org/math?ASL -->
<g id="edge9" class="edge"><title>http://latin.omdoc.org/math?Relation&#45;&gt;http://latin.omdoc.org/math?ASL</title>
<a xlink:href="http://latin.omdoc.org/math?ASL?[http://latin.omdoc.org/math?Relation]" class="graphstructure">
<path fill="none" stroke="black" d="M1598.5,-166.718C1593.13,-164.795 1587.46,-163.086 1582,-162 1540.96,-153.839 858.233,-173.941 829,-144 783.972,-97.883 791.017,-150.213 911,-110 913.124,-109.288 915.289,-108.492 917.452,-107.644"/>
<polygon fill="black" stroke="black" points="918.952,-110.809 926.794,-103.686 916.221,-104.364 918.952,-110.809"/>
</a>
<a xlink:href="http://latin.omdoc.org/math?ASL?[http://latin.omdoc.org/math?Relation]" class="[http://latin.omdoc.org/math?Relation]">
<text text-anchor="middle" x="935.5" y="-132.3" font-family="Times New Roman,serif" font-size="14.00">[http://latin.omdoc.org/math?Relation]</text>
</a>
</g>
<!-- http://latin.omdoc.org/math?ReSL -->
<g id="node11" class="node"><title>http://latin.omdoc.org/math?ReSL</title>
<a xlink:href="http://latin.omdoc.org/math?ReSL" class="graphtheory">
<ellipse fill="gray" stroke="black" cx="1026" cy="-92" rx="31.2735" ry="18"/>
<text text-anchor="middle" x="1026" y="-88.3" font-family="Times New Roman,serif" font-size="14.00">ReSL</text>
</a>
</g>
<!-- http://latin.omdoc.org/math?Relation&#45;&gt;http://latin.omdoc.org/math?ReSL -->
<g id="edge11" class="edge"><title>http://latin.omdoc.org/math?Relation&#45;&gt;http://latin.omdoc.org/math?ReSL</title>
<a xlink:href="http://latin.omdoc.org/math?ReSL?[http://latin.omdoc.org/math?Relation]" class="graphstructure">
<path fill="none" stroke="black" d="M1598.49,-166.766C1593.12,-164.838 1587.46,-163.116 1582,-162 1525.58,-150.462 1115.01,-170.726 1064,-144 1053.22,-138.351 1044.67,-128.108 1038.44,-118.277"/>
<polygon fill="black" stroke="black" points="1041.41,-116.411 1033.37,-109.507 1035.35,-119.915 1041.41,-116.411"/>
</a>
<a xlink:href="http://latin.omdoc.org/math?ReSL?[http://latin.omdoc.org/math?Relation]" class="[http://latin.omdoc.org/math?Relation]">
<text text-anchor="middle" x="1170.5" y="-132.3" font-family="Times New Roman,serif" font-size="14.00">[http://latin.omdoc.org/math?Relation]</text>
</a>
</g>
<!-- http://latin.omdoc.org/math?TSL -->
<g id="node13" class="node"><title>http://latin.omdoc.org/math?TSL</title>
<a xlink:href="http://latin.omdoc.org/math?TSL" class="graphtheory">
<ellipse fill="gray" stroke="black" cx="1103" cy="-92" rx="26.949" ry="18"/>
<text text-anchor="middle" x="1103" y="-88.3" font-family="Times New Roman,serif" font-size="14.00">TSL</text>
</a>
</g>
<!-- http://latin.omdoc.org/math?Relation&#45;&gt;http://latin.omdoc.org/math?TSL -->
<g id="edge13" class="edge"><title>http://latin.omdoc.org/math?Relation&#45;&gt;http://latin.omdoc.org/math?TSL</title>
<a xlink:href="http://latin.omdoc.org/math?TSL?[http://latin.omdoc.org/math?Relation]" class="graphstructure">
<path fill="none" stroke="black" d="M1598.46,-166.894C1593.09,-164.954 1587.44,-163.195 1582,-162 1520.67,-148.528 1358.27,-167.398 1300,-144 1289.76,-139.886 1291.11,-132.431 1281,-128 1222.73,-102.468 1200.07,-127.803 1139,-110 1137.06,-109.434 1135.09,-108.776 1133.13,-108.053"/>
<polygon fill="black" stroke="black" points="1134.08,-104.658 1123.5,-104.039 1131.39,-111.118 1134.08,-104.658"/>
</a>
<a xlink:href="http://latin.omdoc.org/math?TSL?[http://latin.omdoc.org/math?Relation]" class="[http://latin.omdoc.org/math?Relation]">
<text text-anchor="middle" x="1406.5" y="-132.3" font-family="Times New Roman,serif" font-size="14.00">[http://latin.omdoc.org/math?Relation]</text>
</a>
</g>
<!-- http://latin.omdoc.org/math?Equivalence -->
<g id="node15" class="node"><title>http://latin.omdoc.org/math?Equivalence</title>
<a xlink:href="http://latin.omdoc.org/math?Equivalence" class="graphtheory">
<ellipse fill="gray" stroke="black" cx="116" cy="-18" rx="53.4184" ry="18"/>
<text text-anchor="middle" x="116" y="-14.3" font-family="Times New Roman,serif" font-size="14.00">Equivalence</text>
</a>
</g>
<!-- http://latin.omdoc.org/math?Relation&#45;&gt;http://latin.omdoc.org/math?Equivalence -->
<g id="edge15" class="edge"><title>http://latin.omdoc.org/math?Relation&#45;&gt;http://latin.omdoc.org/math?Equivalence</title>
<a class="graphinclude">
<path fill="none" stroke="black" d="M1615.76,-162.58C1609.25,-152.411 1600.47,-139.202 1592,-128 1590.63,-126.193 1541.04,-66.982 1539,-66 1477.07,-36.2178 448.733,-22.7097 179.891,-19.6772"/>
<polygon fill="black" stroke="black" points="179.566,-16.1734 169.527,-19.5612 179.487,-23.1729 179.566,-16.1734"/>
</a>
</g>
<!-- http://latin.omdoc.org/math?Top -->
<g id="node17" class="node"><title>http://latin.omdoc.org/math?Top</title>
<a xlink:href="http://latin.omdoc.org/math?Top" class="graphtheory">
<ellipse fill="gray" stroke="black" cx="339" cy="-92" rx="27" ry="18"/>
<text text-anchor="middle" x="339" y="-88.3" font-family="Times New Roman,serif" font-size="14.00">Top</text>
</a>
</g>
<!-- http://latin.omdoc.org/math?Relation&#45;&gt;http://latin.omdoc.org/math?Top -->
<g id="edge17" class="edge"><title>http://latin.omdoc.org/math?Relation&#45;&gt;http://latin.omdoc.org/math?Top</title>
<a class="graphinclude">
<path fill="none" stroke="black" d="M1598.51,-166.69C1593.13,-164.769 1587.47,-163.069 1582,-162 1358.42,-118.276 783.073,-172.105 557,-144 538.98,-141.76 431.109,-115.615 374.164,-101.658"/>
<polygon fill="black" stroke="black" points="374.702,-98.187 364.156,-99.2028 373.034,-104.985 374.702,-98.187"/>
</a>
</g>
<!-- http://latin.omdoc.org/math?Bottom -->
<g id="node19" class="node"><title>http://latin.omdoc.org/math?Bottom</title>
<a xlink:href="http://latin.omdoc.org/math?Bottom" class="graphtheory">
<ellipse fill="gray" stroke="black" cx="460" cy="-92" rx="38.0212" ry="18"/>
<text text-anchor="middle" x="460" y="-88.3" font-family="Times New Roman,serif" font-size="14.00">Bottom</text>
</a>
</g>
<!-- http://latin.omdoc.org/math?Relation&#45;&gt;http://latin.omdoc.org/math?Bottom -->
<g id="edge19" class="edge"><title>http://latin.omdoc.org/math?Relation&#45;&gt;http://latin.omdoc.org/math?Bottom</title>
<a class="graphinclude">
<path fill="none" stroke="black" d="M1598.51,-166.694C1593.13,-164.773 1587.46,-163.071 1582,-162 1368.91,-120.231 818.786,-182.06 605,-144 594.252,-142.087 538.003,-121.782 498.811,-107.38"/>
<polygon fill="black" stroke="black" points="499.846,-104.031 489.252,-103.86 497.427,-110.6 499.846,-104.031"/>
</a>
</g>
<!-- http://latin.omdoc.org/math?Preorder -->
<g id="node21" class="node"><title>http://latin.omdoc.org/math?Preorder</title>
<a xlink:href="http://latin.omdoc.org/math?Preorder" class="graphtheory">
<ellipse fill="gray" stroke="black" cx="1857" cy="-180" rx="42.3701" ry="18"/>
<text text-anchor="middle" x="1857" y="-176.3" font-family="Times New Roman,serif" font-size="14.00">Preorder</text>
</a>
</g>
<!-- http://latin.omdoc.org/math?Relation&#45;&gt;http://latin.omdoc.org/math?Preorder -->
<g id="edge21" class="edge"><title>http://latin.omdoc.org/math?Relation&#45;&gt;http://latin.omdoc.org/math?Preorder</title>
<a class="graphinclude">
<path fill="none" stroke="black" d="M1641.93,-196.889C1651.66,-205.936 1664.91,-216.186 1679,-221 1726.53,-237.237 1743.75,-234.945 1792,-221 1805.35,-217.141 1818.6,-209.636 1829.61,-202.089"/>
<polygon fill="black" stroke="black" points="1831.86,-204.782 1837.93,-196.097 1827.77,-199.103 1831.86,-204.782"/>
</a>
</g>
<!-- http://latin.omdoc.org/math?Congruence -->
<g id="node23" class="node"><title>http://latin.omdoc.org/math?Congruence</title>
<a xlink:href="http://latin.omdoc.org/math?Congruence" class="graphtheory">
<ellipse fill="gray" stroke="black" cx="239" cy="-92" rx="54.3924" ry="18"/>
<text text-anchor="middle" x="239" y="-88.3" font-family="Times New Roman,serif" font-size="14.00">Congruence</text>
</a>
</g>
<!-- http://latin.omdoc.org/math?Relation&#45;&gt;http://latin.omdoc.org/math?Congruence -->
<g id="edge23" class="edge"><title>http://latin.omdoc.org/math?Relation&#45;&gt;http://latin.omdoc.org/math?Congruence</title>
<a class="graphinclude">
<path fill="none" stroke="black" d="M1598.51,-166.685C1593.13,-164.765 1587.47,-163.066 1582,-162 1462.24,-138.651 605.394,-156.307 484,-144 415.658,-137.071 338.281,-119.248 289.097,-106.63"/>
<polygon fill="black" stroke="black" points="289.903,-103.223 279.345,-104.101 288.146,-109.999 289.903,-103.223"/>
</a>
</g>
<!-- http://latin.omdoc.org/math?OMBottom -->
<g id="node25" class="node"><title>http://latin.omdoc.org/math?OMBottom</title>
<a xlink:href="http://latin.omdoc.org/math?OMBottom" class="graphtheory">
<ellipse fill="gray" stroke="black" cx="1201" cy="-92" rx="52.4675" ry="18"/>
<text text-anchor="middle" x="1201" y="-88.3" font-family="Times New Roman,serif" font-size="14.00">OMBottom</text>
</a>
</g>
<!-- http://latin.omdoc.org/math?Relation&#45;&gt;http://latin.omdoc.org/math?OMBottom -->
<g id="edge25" class="edge"><title>http://latin.omdoc.org/math?Relation&#45;&gt;http://latin.omdoc.org/math?OMBottom</title>
<a class="graphinclude">
<path fill="none" stroke="black" d="M1597.15,-167.454C1581.53,-160.97 1561.99,-152.493 1545,-144 1532.18,-137.592 1530.71,-132.166 1517,-128 1408.72,-95.1021 1374.56,-129.055 1263,-110 1258.3,-109.197 1253.44,-108.187 1248.6,-107.064"/>
<polygon fill="black" stroke="black" points="1249.32,-103.636 1238.77,-104.625 1247.63,-110.43 1249.32,-103.636"/>
</a>
</g>
<!-- http://latin.omdoc.org/math?Symmetric -->
<g id="node27" class="node"><title>http://latin.omdoc.org/math?Symmetric</title>
<a xlink:href="http://latin.omdoc.org/math?Symmetric" class="graphtheory">
<ellipse fill="gray" stroke="black" cx="116" cy="-92" rx="50.0684" ry="18"/>
<text text-anchor="middle" x="116" y="-88.3" font-family="Times New Roman,serif" font-size="14.00">Symmetric</text>
</a>
</g>
<!-- http://latin.omdoc.org/math?Relation&#45;&gt;http://latin.omdoc.org/math?Symmetric -->
<g id="edge27" class="edge"><title>http://latin.omdoc.org/math?Relation&#45;&gt;http://latin.omdoc.org/math?Symmetric</title>
<a class="graphinclude">
<path fill="none" stroke="black" d="M1598.51,-166.679C1593.13,-164.759 1587.47,-163.062 1582,-162 1450.77,-136.513 512.14,-156.022 379,-144 287.455,-135.734 264.644,-130.314 175,-110 170.906,-109.072 166.676,-108.028 162.449,-106.925"/>
<polygon fill="black" stroke="black" points="163.221,-103.508 152.654,-104.27 161.39,-110.264 163.221,-103.508"/>
</a>
</g>
<!-- http://latin.omdoc.org/math?Antisymmetric -->
<g id="node29" class="node"><title>http://latin.omdoc.org/math?Antisymmetric</title>
<a xlink:href="http://latin.omdoc.org/math?Antisymmetric" class="graphtheory">
<ellipse fill="gray" stroke="black" cx="2234" cy="-180" rx="63.5411" ry="18"/>
<text text-anchor="middle" x="2234" y="-176.3" font-family="Times New Roman,serif" font-size="14.00">Antisymmetric</text>
</a>
</g>
<!-- http://latin.omdoc.org/math?Relation&#45;&gt;http://latin.omdoc.org/math?Antisymmetric -->
<g id="edge29" class="edge"><title>http://latin.omdoc.org/math?Relation&#45;&gt;http://latin.omdoc.org/math?Antisymmetric</title>
<a class="graphinclude">
<path fill="none" stroke="black" d="M1641.93,-196.889C1651.66,-205.936 1664.91,-216.186 1679,-221 1728.73,-237.991 2100.85,-233.075 2152,-221 2168.52,-217.1 2185.51,-209.335 2199.7,-201.601"/>
<polygon fill="black" stroke="black" points="2201.62,-204.538 2208.6,-196.565 2198.17,-198.447 2201.62,-204.538"/>
</a>
</g>
<!-- http://latin.omdoc.org/math?Monotonous -->
<g id="node31" class="node"><title>http://latin.omdoc.org/math?Monotonous</title>
<a xlink:href="http://latin.omdoc.org/math?Monotonous" class="graphtheory">
<ellipse fill="gray" stroke="black" cx="574" cy="-92" rx="57.2688" ry="18"/>
<text text-anchor="middle" x="574" y="-88.3" font-family="Times New Roman,serif" font-size="14.00">Monotonous</text>
</a>
</g>
<!-- http://latin.omdoc.org/math?Relation&#45;&gt;http://latin.omdoc.org/math?Monotonous -->
<g id="edge31" class="edge"><title>http://latin.omdoc.org/math?Relation&#45;&gt;http://latin.omdoc.org/math?Monotonous</title>
<a class="graphinclude">
<path fill="none" stroke="black" d="M1598.51,-166.697C1593.13,-164.775 1587.46,-163.073 1582,-162 1478.62,-141.706 732.534,-181.284 634,-144 619.184,-138.394 605.487,-127.414 594.933,-117.073"/>
<polygon fill="black" stroke="black" points="597.303,-114.49 587.831,-109.743 592.276,-119.361 597.303,-114.49"/>
</a>
</g>
<!-- http://latin.omdoc.org/math?OMTransitive -->
<g id="node33" class="node"><title>http://latin.omdoc.org/math?OMTransitive</title>
<a xlink:href="http://latin.omdoc.org/math?OMTransitive" class="graphtheory">
<ellipse fill="gray" stroke="black" cx="1333" cy="-92" rx="61.1419" ry="18"/>
<text text-anchor="middle" x="1333" y="-88.3" font-family="Times New Roman,serif" font-size="14.00">OMTransitive</text>
</a>
</g>
<!-- http://latin.omdoc.org/math?Relation&#45;&gt;http://latin.omdoc.org/math?OMTransitive -->
<g id="edge33" class="edge"><title>http://latin.omdoc.org/math?Relation&#45;&gt;http://latin.omdoc.org/math?OMTransitive</title>
<a class="graphinclude">
<path fill="none" stroke="black" d="M1603.39,-164.956C1579.67,-150.268 1545.34,-129.171 1542,-128 1483.21,-107.389 1464.25,-121.368 1403,-110 1397.9,-109.054 1392.63,-107.969 1387.35,-106.815"/>
<polygon fill="black" stroke="black" points="1387.81,-103.329 1377.28,-104.528 1386.26,-110.155 1387.81,-103.329"/>
</a>
</g>
<!-- http://latin.omdoc.org/math?Transitive -->
<g id="node35" class="node"><title>http://latin.omdoc.org/math?Transitive</title>
<a xlink:href="http://latin.omdoc.org/math?Transitive" class="graphtheory">
<ellipse fill="gray" stroke="black" cx="1771" cy="-254" rx="46.2191" ry="18"/>
<text text-anchor="middle" x="1771" y="-250.3" font-family="Times New Roman,serif" font-size="14.00">Transitive</text>
</a>
</g>
<!-- http://latin.omdoc.org/math?Relation&#45;&gt;http://latin.omdoc.org/math?Transitive -->
<g id="edge35" class="edge"><title>http://latin.omdoc.org/math?Relation&#45;&gt;http://latin.omdoc.org/math?Transitive</title>
<a class="graphinclude">
<path fill="none" stroke="black" d="M1649.56,-194.85C1656.12,-198.579 1663.28,-202.537 1670,-206 1690.29,-216.465 1713.35,-227.273 1732.3,-235.882"/>
<polygon fill="black" stroke="black" points="1730.97,-239.121 1741.53,-240.045 1733.85,-232.741 1730.97,-239.121"/>
</a>
</g>
<!-- http://latin.omdoc.org/math?OMReflexive -->
<g id="node37" class="node"><title>http://latin.omdoc.org/math?OMReflexive</title>
<a xlink:href="http://latin.omdoc.org/math?OMReflexive" class="graphtheory">
<ellipse fill="gray" stroke="black" cx="1471" cy="-92" rx="59.2173" ry="18"/>
<text text-anchor="middle" x="1471" y="-88.3" font-family="Times New Roman,serif" font-size="14.00">OMReflexive</text>
</a>
</g>
<!-- http://latin.omdoc.org/math?Relation&#45;&gt;http://latin.omdoc.org/math?OMReflexive -->
<g id="edge37" class="edge"><title>http://latin.omdoc.org/math?Relation&#45;&gt;http://latin.omdoc.org/math?OMReflexive</title>
<a class="graphinclude">
<path fill="none" stroke="black" d="M1610.7,-162.99C1599.46,-151.955 1583.34,-137.602 1567,-128 1553.32,-119.965 1537.49,-113.273 1522.67,-107.966"/>
<polygon fill="black" stroke="black" points="1523.71,-104.622 1513.12,-104.679 1521.44,-111.241 1523.71,-104.622"/>
</a>
</g>
<!-- http://latin.omdoc.org/math?Reflexive -->
<g id="node39" class="node"><title>http://latin.omdoc.org/math?Reflexive</title>
<a xlink:href="http://latin.omdoc.org/math?Reflexive" class="graphtheory">
<ellipse fill="gray" stroke="black" cx="1663" cy="-254" rx="44.2946" ry="18"/>
<text text-anchor="middle" x="1663" y="-250.3" font-family="Times New Roman,serif" font-size="14.00">Reflexive</text>
</a>
</g>
<!-- http://latin.omdoc.org/math?Relation&#45;&gt;http://latin.omdoc.org/math?Reflexive -->
<g id="edge39" class="edge"><title>http://latin.omdoc.org/math?Relation&#45;&gt;http://latin.omdoc.org/math?Reflexive</title>
<a class="graphinclude">
<path fill="none" stroke="black" d="M1634.54,-197.609C1639.06,-206.408 1644.71,-217.411 1649.79,-227.287"/>
<polygon fill="black" stroke="black" points="1646.73,-229.006 1654.42,-236.301 1652.96,-225.807 1646.73,-229.006"/>
</a>
</g>
<!-- http://latin.omdoc.org/math?Lattice -->
<g id="node49" class="node"><title>http://latin.omdoc.org/math?Lattice</title>
<a xlink:href="http://latin.omdoc.org/math?Lattice" class="graphtheory">
<ellipse fill="gray" stroke="black" cx="2176" cy="-18" rx="35.1455" ry="18"/>
<text text-anchor="middle" x="2176" y="-14.3" font-family="Times New Roman,serif" font-size="14.00">Lattice</text>
</a>
</g>
<!-- http://latin.omdoc.org/math?SemiLattice&#45;&gt;http://latin.omdoc.org/math?Lattice -->
<g id="edge53" class="edge"><title>http://latin.omdoc.org/math?SemiLattice&#45;&gt;http://latin.omdoc.org/math?Lattice</title>
<a class="graphinclude">
<path fill="none" stroke="black" d="M1667.07,-76.5894C1676.1,-72.5332 1686.28,-68.5395 1696,-66 1851.74,-25.3258 2044.24,-19.2352 2130.48,-18.7247"/>
<polygon fill="black" stroke="black" points="2130.72,-22.2239 2140.7,-18.6878 2130.69,-15.224 2130.72,-22.2239"/>
</a>
</g>
<!-- http://latin.omdoc.org/math?Preorder&#45;&gt;http://latin.omdoc.org/math?SemiLattice -->
<g id="edge49" class="edge"><title>http://latin.omdoc.org/math?Preorder&#45;&gt;http://latin.omdoc.org/math?SemiLattice</title>
<a xlink:href="http://latin.omdoc.org/math?POSL" class="graphview">
<path fill="none" stroke="black" d="M1839.63,-163.52C1825.78,-152.003 1805.39,-136.811 1785,-128 1747.95,-111.99 1735.15,-119.777 1696,-110 1692.84,-109.212 1689.6,-108.36 1686.34,-107.473"/>
<polygon fill="black" stroke="black" points="1687.15,-104.066 1676.58,-104.731 1685.26,-110.805 1687.15,-104.066"/>
</a>
<a xlink:href="http://latin.omdoc.org/math?POSL" class="POSL">
<text text-anchor="middle" x="1831" y="-132.3" font-family="Times New Roman,serif" font-size="14.00">POSL</text>
</a>
</g>
<!-- http://latin.omdoc.org/math?Order -->
<g id="node43" class="node"><title>http://latin.omdoc.org/math?Order</title>
<a xlink:href="http://latin.omdoc.org/math?Order" class="graphtheory">
<ellipse fill="gray" stroke="black" cx="2234" cy="-92" rx="32.2457" ry="18"/>
<text text-anchor="middle" x="2234" y="-88.3" font-family="Times New Roman,serif" font-size="14.00">Order</text>
</a>
</g>
<!-- http://latin.omdoc.org/math?Preorder&#45;&gt;http://latin.omdoc.org/math?Order -->
<g id="edge97" class="edge"><title>http://latin.omdoc.org/math?Preorder&#45;&gt;http://latin.omdoc.org/math?Order</title>
<a class="graphinclude">
<path fill="none" stroke="black" d="M1893.15,-170.754C1964.17,-154.552 2121.38,-118.69 2194.8,-101.942"/>
<polygon fill="black" stroke="black" points="2195.61,-105.346 2204.59,-99.7099 2194.06,-98.5217 2195.61,-105.346"/>
</a>
</g>
<!-- http://latin.omdoc.org/math?Symmetric&#45;&gt;http://latin.omdoc.org/math?Equivalence -->
<g id="edge95" class="edge"><title>http://latin.omdoc.org/math?Symmetric&#45;&gt;http://latin.omdoc.org/math?Equivalence</title>
<a class="graphinclude">
<path fill="none" stroke="black" d="M116,-73.937C116,-65.8072 116,-55.8761 116,-46.7047"/>
<polygon fill="black" stroke="black" points="119.5,-46.4406 116,-36.4407 112.5,-46.4407 119.5,-46.4406"/>
</a>
</g>
<!-- http://latin.omdoc.org/math?Antisymmetric&#45;&gt;http://latin.omdoc.org/math?SemiLattice -->
<g id="edge51" class="edge"><title>http://latin.omdoc.org/math?Antisymmetric&#45;&gt;http://latin.omdoc.org/math?SemiLattice</title>
<a xlink:href="http://latin.omdoc.org/math?ASL" class="graphview">
<path fill="none" stroke="black" d="M2187.34,-167.797C2178.6,-165.795 2169.53,-163.781 2161,-162 2079.59,-145.009 2059.53,-138.232 1977,-128 1852.81,-112.603 1819.19,-132.024 1696,-110 1692.54,-109.382 1688.99,-108.627 1685.44,-107.784"/>
<polygon fill="black" stroke="black" points="1686.06,-104.328 1675.5,-105.211 1684.3,-111.104 1686.06,-104.328"/>
</a>
<a xlink:href="http://latin.omdoc.org/math?ASL" class="ASL">
<text text-anchor="middle" x="2088.5" y="-132.3" font-family="Times New Roman,serif" font-size="14.00">ASL</text>
</a>
</g>
<!-- http://latin.omdoc.org/math?Antisymmetric&#45;&gt;http://latin.omdoc.org/math?Order -->
<g id="edge93" class="edge"><title>http://latin.omdoc.org/math?Antisymmetric&#45;&gt;http://latin.omdoc.org/math?Order</title>
<a class="graphinclude">
<path fill="none" stroke="black" d="M2234,-161.597C2234,-149.746 2234,-133.817 2234,-120.292"/>
<polygon fill="black" stroke="black" points="2237.5,-120.084 2234,-110.084 2230.5,-120.084 2237.5,-120.084"/>
</a>
</g>
<!-- http://latin.omdoc.org/math?Transitive&#45;&gt;http://latin.omdoc.org/math?SemiLattice -->
<g id="edge47" class="edge"><title>http://latin.omdoc.org/math?Transitive&#45;&gt;http://latin.omdoc.org/math?SemiLattice</title>
<a xlink:href="http://latin.omdoc.org/math?TSL" class="graphview">
<path fill="none" stroke="black" d="M1762.24,-236.075C1752.09,-217.156 1734.26,-186.026 1715,-162 1701.43,-145.079 1696.03,-142.603 1680,-128 1675.57,-123.963 1670.79,-119.754 1666.11,-115.713"/>
<polygon fill="black" stroke="black" points="1668.29,-112.971 1658.41,-109.13 1663.74,-118.29 1668.29,-112.971"/>
</a>
<a xlink:href="http://latin.omdoc.org/math?TSL" class="TSL">
<text text-anchor="middle" x="1758" y="-176.3" font-family="Times New Roman,serif" font-size="14.00">TSL</text>
</a>
</g>
<!-- http://latin.omdoc.org/math?Transitive&#45;&gt;http://latin.omdoc.org/math?Equivalence -->
<g id="edge89" class="edge"><title>http://latin.omdoc.org/math?Transitive&#45;&gt;http://latin.omdoc.org/math?Equivalence</title>
<a class="graphinclude">
<path fill="none" stroke="black" d="M1738.19,-241.27C1730.97,-239.136 1723.3,-237.207 1716,-236 1481.1,-197.153 877.854,-255.673 645,-206 535.865,-182.719 503.47,-175.326 413,-110 392.051,-94.8735 397.437,-78.8159 375,-66 314.793,-31.6098 234.978,-21.4745 179.944,-18.9236"/>
<polygon fill="black" stroke="black" points="179.753,-15.4136 169.624,-18.5205 179.479,-22.4083 179.753,-15.4136"/>
</a>
</g>
<!-- http://latin.omdoc.org/math?Transitive&#45;&gt;http://latin.omdoc.org/math?Preorder -->
<g id="edge91" class="edge"><title>http://latin.omdoc.org/math?Transitive&#45;&gt;http://latin.omdoc.org/math?Preorder</title>
<a class="graphinclude">
<path fill="none" stroke="black" d="M1789.66,-237.377C1801.69,-227.307 1817.5,-214.066 1830.79,-202.947"/>
<polygon fill="black" stroke="black" points="1833.25,-205.448 1838.67,-196.345 1828.76,-200.081 1833.25,-205.448"/>
</a>
</g>
<!-- http://latin.omdoc.org/math?Reflexive&#45;&gt;http://latin.omdoc.org/math?SemiLattice -->
<g id="edge45" class="edge"><title>http://latin.omdoc.org/math?Reflexive&#45;&gt;http://latin.omdoc.org/math?SemiLattice</title>
<a xlink:href="http://latin.omdoc.org/math?ReSL" class="graphview">
<path fill="none" stroke="black" d="M1668.95,-236.024C1674.55,-217.59 1681.22,-187.382 1675,-162 1671.22,-146.583 1663.33,-130.784 1655.89,-118.201"/>
<polygon fill="black" stroke="black" points="1658.85,-116.334 1650.63,-109.658 1652.9,-120.007 1658.85,-116.334"/>
</a>
<a xlink:href="http://latin.omdoc.org/math?ReSL" class="ReSL">
<text text-anchor="middle" x="1694.5" y="-176.3" font-family="Times New Roman,serif" font-size="14.00">ReSL</text>
</a>
</g>
<!-- http://latin.omdoc.org/math?Reflexive&#45;&gt;http://latin.omdoc.org/math?Equivalence -->
<g id="edge85" class="edge"><title>http://latin.omdoc.org/math?Reflexive&#45;&gt;http://latin.omdoc.org/math?Equivalence</title>
<a class="graphinclude">
<path fill="none" stroke="black" d="M1618.95,-252.245C1434.3,-248.921 721.809,-234.476 499,-206 299.597,-180.516 183.162,-266.505 57,-110 44.727,-94.7752 48.5105,-83.6167 57,-66 62.1007,-55.4155 70.8728,-46.4772 80.1165,-39.3312"/>
<polygon fill="black" stroke="black" points="82.1658,-42.1687 88.2807,-33.5166 78.1049,-36.467 82.1658,-42.1687"/>
</a>
</g>
<!-- http://latin.omdoc.org/math?Reflexive&#45;&gt;http://latin.omdoc.org/math?Preorder -->
<g id="edge87" class="edge"><title>http://latin.omdoc.org/math?Reflexive&#45;&gt;http://latin.omdoc.org/math?Preorder</title>
<a class="graphinclude">
<path fill="none" stroke="black" d="M1696.17,-242.091C1730.48,-230.74 1781.68,-213.584 1801,-206 1807.33,-203.517 1813.98,-200.718 1820.4,-197.915"/>
<polygon fill="black" stroke="black" points="1821.86,-201.096 1829.58,-193.841 1819.02,-194.697 1821.86,-201.096"/>
</a>
</g>
<!-- http://latin.omdoc.org/math?Universe -->
<g id="node41" class="node"><title>http://latin.omdoc.org/math?Universe</title>
<a xlink:href="http://latin.omdoc.org/math?Universe" class="graphtheory">
<ellipse fill="gray" stroke="black" cx="450" cy="-328" rx="42.3701" ry="18"/>
<text text-anchor="middle" x="450" y="-324.3" font-family="Times New Roman,serif" font-size="14.00">Universe</text>
</a>
</g>
<!-- http://latin.omdoc.org/math?Universe&#45;&gt;http://latin.omdoc.org/math?Relation -->
<g id="edge41" class="edge"><title>http://latin.omdoc.org/math?Universe&#45;&gt;http://latin.omdoc.org/math?Relation</title>
<a class="graphmeta">
<path fill="none" stroke="black" d="M491.724,-324.822C670.53,-315.14 1372.47,-273.486 1582,-206 1586.67,-204.497 1591.39,-202.461 1595.92,-200.195"/>
<polygon fill="black" stroke="black" points="1597.77,-203.175 1604.88,-195.322 1594.43,-197.026 1597.77,-203.175"/>
</a>
</g>
<!-- http://latin.omdoc.org/math?Universe&#45;&gt;http://latin.omdoc.org/math?Equivalence -->
<g id="edge69" class="edge"><title>http://latin.omdoc.org/math?Universe&#45;&gt;http://latin.omdoc.org/math?Equivalence</title>
<a class="graphmeta">
<path fill="none" stroke="black" d="M408.472,-324.695C297.07,-317.959 0,-296.142 0,-255 0,-255 0,-255 0,-91 0,-59.4525 31.355,-41.2467 61.4617,-31.0372"/>
<polygon fill="black" stroke="black" points="62.658,-34.3301 71.1514,-27.9965 60.5622,-27.6512 62.658,-34.3301"/>
</a>
</g>
<!-- http://latin.omdoc.org/math?Universe&#45;&gt;http://latin.omdoc.org/math?Top -->
<g id="edge71" class="edge"><title>http://latin.omdoc.org/math?Universe&#45;&gt;http://latin.omdoc.org/math?Top</title>
<a class="graphmeta">
<path fill="none" stroke="black" d="M442.017,-310.171C422.81,-269.681 373.924,-166.624 351.092,-118.492"/>
<polygon fill="black" stroke="black" points="354.211,-116.899 346.763,-109.364 347.886,-119.899 354.211,-116.899"/>
</a>
</g>
<!-- http://latin.omdoc.org/math?Universe&#45;&gt;http://latin.omdoc.org/math?Bottom -->
<g id="edge73" class="edge"><title>http://latin.omdoc.org/math?Universe&#45;&gt;http://latin.omdoc.org/math?Bottom</title>
<a class="graphmeta">
<path fill="none" stroke="black" d="M450.735,-309.793C452.455,-269.562 456.749,-169.077 458.831,-120.351"/>
<polygon fill="black" stroke="black" points="462.333,-120.372 459.264,-110.232 455.34,-120.073 462.333,-120.372"/>
</a>
</g>
<!-- http://latin.omdoc.org/math?Universe&#45;&gt;http://latin.omdoc.org/math?Preorder -->
<g id="edge75" class="edge"><title>http://latin.omdoc.org/math?Universe&#45;&gt;http://latin.omdoc.org/math?Preorder</title>
<a class="graphmeta">
<path fill="none" stroke="black" d="M491.975,-326.353C639.163,-323.939 1145.54,-314.426 1563,-292 1680.06,-285.712 1733.33,-343.798 1826,-272 1845.32,-257.028 1852.68,-229.399 1855.44,-208.498"/>
<polygon fill="black" stroke="black" points="1858.95,-208.593 1856.51,-198.284 1851.99,-207.868 1858.95,-208.593"/>
</a>
</g>
<!-- http://latin.omdoc.org/math?Universe&#45;&gt;http://latin.omdoc.org/math?Congruence -->
<g id="edge77" class="edge"><title>http://latin.omdoc.org/math?Universe&#45;&gt;http://latin.omdoc.org/math?Congruence</title>
<a class="graphmeta">
<path fill="none" stroke="black" d="M435.497,-310.916C399.147,-270.604 303.98,-165.063 260.831,-117.21"/>
<polygon fill="black" stroke="black" points="263.182,-114.591 253.886,-109.508 257.983,-119.279 263.182,-114.591"/>
</a>
</g>
<!-- http://latin.omdoc.org/math?Universe&#45;&gt;http://latin.omdoc.org/math?Symmetric -->
<g id="edge79" class="edge"><title>http://latin.omdoc.org/math?Universe&#45;&gt;http://latin.omdoc.org/math?Symmetric</title>
<a class="graphmeta">
<path fill="none" stroke="black" d="M427.072,-312.593C409.851,-301.668 385.762,-286.167 365,-272 284.23,-216.885 191.191,-148.72 145.061,-114.597"/>
<polygon fill="black" stroke="black" points="146.861,-111.576 136.742,-108.437 142.695,-117.201 146.861,-111.576"/>
</a>
</g>
<!-- http://latin.omdoc.org/math?Universe&#45;&gt;http://latin.omdoc.org/math?Transitive -->
<g id="edge81" class="edge"><title>http://latin.omdoc.org/math?Universe&#45;&gt;http://latin.omdoc.org/math?Transitive</title>
<a class="graphmeta">
<path fill="none" stroke="black" d="M492.054,-326.619C683.386,-324.663 1472.81,-314.144 1716,-272 1720.1,-271.29 1724.32,-270.361 1728.51,-269.303"/>
<polygon fill="black" stroke="black" points="1729.47,-272.671 1738.18,-266.645 1727.61,-265.922 1729.47,-272.671"/>
</a>
</g>
<!-- http://latin.omdoc.org/math?Universe&#45;&gt;http://latin.omdoc.org/math?Reflexive -->
<g id="edge83" class="edge"><title>http://latin.omdoc.org/math?Universe&#45;&gt;http://latin.omdoc.org/math?Reflexive</title>
<a class="graphmeta">
<path fill="none" stroke="black" d="M491.403,-324.542C673.63,-313.726 1404.27,-270.357 1609.27,-258.189"/>
<polygon fill="black" stroke="black" points="1609.71,-261.669 1619.49,-257.583 1609.3,-254.682 1609.71,-261.669"/>
</a>
</g>
<!-- http://latin.omdoc.org/math?EqUniverse -->
<g id="node53" class="node"><title>http://latin.omdoc.org/math?EqUniverse</title>
<a xlink:href="http://latin.omdoc.org/math?EqUniverse" class="graphtheory">
<ellipse fill="gray" stroke="black" cx="2010" cy="-254" rx="52.4675" ry="18"/>
<text text-anchor="middle" x="2010" y="-250.3" font-family="Times New Roman,serif" font-size="14.00">EqUniverse</text>
</a>
</g>
<!-- http://latin.omdoc.org/math?Universe&#45;&gt;http://latin.omdoc.org/math?EqUniverse -->
<g id="edge67" class="edge"><title>http://latin.omdoc.org/math?Universe&#45;&gt;http://latin.omdoc.org/math?EqUniverse</title>
<a class="graphinclude">
<path fill="none" stroke="black" d="M492.409,-327.236C697.74,-328.184 1589.93,-330.002 1865,-292 1898.5,-287.372 1935.41,-277.886 1963.61,-269.678"/>
<polygon fill="black" stroke="black" points="1964.61,-273.033 1973.21,-266.838 1962.62,-266.321 1964.61,-273.033"/>
</a>
</g>
<!-- http://latin.omdoc.org/math?Order&#45;&gt;http://latin.omdoc.org/math?SemiLattice -->
<g id="edge43" class="edge"><title>http://latin.omdoc.org/math?Order&#45;&gt;http://latin.omdoc.org/math?SemiLattice</title>
<a xlink:href="http://latin.omdoc.org/math?OSL" class="graphview">
<path fill="none" stroke="black" d="M2201.53,-92C2106.66,-92 1828.75,-92 1702.6,-92"/>
<polygon fill="black" stroke="black" points="1702.33,-88.5001 1692.33,-92 1702.33,-95.5001 1702.33,-88.5001"/>
</a>
<a xlink:href="http://latin.omdoc.org/math?OSL" class="OSL">
<text text-anchor="middle" x="1946.75" y="-98.8" font-family="Times New Roman,serif" font-size="14.00">OSL</text>
</a>
</g>
<!-- http://latin.omdoc.org/math?CommutativeSemigroup -->
<g id="node51" class="node"><title>http://latin.omdoc.org/math?CommutativeSemigroup</title>
<a xlink:href="http://latin.omdoc.org/math?CommutativeSemigroup" class="graphtheory">
<ellipse fill="gray" stroke="black" cx="2054" cy="-180" rx="98.1881" ry="18"/>
<text text-anchor="middle" x="2054" y="-176.3" font-family="Times New Roman,serif" font-size="14.00">CommutativeSemigroup</text>
</a>
</g>
<!-- http://latin.omdoc.org/math?CommutativeSemigroup&#45;&gt;http://latin.omdoc.org/math?SemiLattice -->
<g id="edge55" class="edge"><title>http://latin.omdoc.org/math?CommutativeSemigroup&#45;&gt;http://latin.omdoc.org/math?SemiLattice</title>
<a class="graphinclude">
<path fill="none" stroke="black" d="M2025.29,-162.636C2003.04,-150.811 1971.04,-135.627 1941,-128 1835.18,-101.131 1803.39,-129.718 1696,-110 1692.54,-109.365 1689,-108.599 1685.45,-107.747"/>
<polygon fill="black" stroke="black" points="1686.07,-104.292 1675.51,-105.159 1684.31,-111.066 1686.07,-104.292"/>
</a>
</g>
<!-- http://latin.omdoc.org/math?EqUniverse&#45;&gt;http://latin.omdoc.org/math?SemiLattice -->
<g id="edge57" class="edge"><title>http://latin.omdoc.org/math?EqUniverse&#45;&gt;http://latin.omdoc.org/math?SemiLattice</title>
<a class="graphmeta">
<path fill="none" stroke="black" d="M1986.82,-237.861C1974.21,-229.174 1958.66,-217.694 1946,-206 1927.02,-188.464 1927.66,-178.765 1908,-162 1886.13,-143.354 1880.15,-137.419 1853,-128 1786.64,-104.981 1764.81,-124.091 1696,-110 1692.61,-109.306 1689.13,-108.502 1685.64,-107.629"/>
<polygon fill="black" stroke="black" points="1686.42,-104.215 1675.86,-105.02 1684.62,-110.979 1686.42,-104.215"/>
</a>
</g>
<!-- http://latin.omdoc.org/math?EqUniverse&#45;&gt;http://latin.omdoc.org/math?Antisymmetric -->
<g id="edge61" class="edge"><title>http://latin.omdoc.org/math?EqUniverse&#45;&gt;http://latin.omdoc.org/math?Antisymmetric</title>
<a class="graphmeta">
<path fill="none" stroke="black" d="M2047.95,-241.512C2078.54,-232.173 2122.64,-218.537 2161,-206 2169.05,-203.368 2177.58,-200.511 2185.86,-197.7"/>
<polygon fill="black" stroke="black" points="2187.09,-200.979 2195.43,-194.438 2184.83,-194.354 2187.09,-200.979"/>
</a>
</g>
<!-- http://latin.omdoc.org/math?EqUniverse&#45;&gt;http://latin.omdoc.org/math?Monotonous -->
<g id="edge65" class="edge"><title>http://latin.omdoc.org/math?EqUniverse&#45;&gt;http://latin.omdoc.org/math?Monotonous</title>
<a class="graphmeta">
<path fill="none" stroke="black" d="M1960.43,-248.191C1923.41,-244.655 1871.55,-239.82 1826,-236 1554.85,-213.26 836.986,-286.205 605,-144 595.724,-138.314 588.843,-128.713 583.951,-119.364"/>
<polygon fill="black" stroke="black" points="587.103,-117.842 579.709,-110.255 580.758,-120.798 587.103,-117.842"/>
</a>
</g>
<!-- http://latin.omdoc.org/math?EqUniverse&#45;&gt;http://latin.omdoc.org/math?Order -->
<g id="edge63" class="edge"><title>http://latin.omdoc.org/math?EqUniverse&#45;&gt;http://latin.omdoc.org/math?Order</title>
<a class="graphmeta">
<path fill="none" stroke="black" d="M2062.19,-252.516C2138.62,-250.574 2275.26,-242.011 2306,-206 2331.68,-175.922 2291.49,-135.955 2261.6,-112.501"/>
<polygon fill="black" stroke="black" points="2263.59,-109.612 2253.51,-106.345 2259.35,-115.184 2263.59,-109.612"/>
</a>
</g>
<!-- http://latin.omdoc.org/math?EqUniverse&#45;&gt;http://latin.omdoc.org/math?Lattice -->
<g id="edge59" class="edge"><title>http://latin.omdoc.org/math?EqUniverse&#45;&gt;http://latin.omdoc.org/math?Lattice</title>
<a class="graphmeta">
<path fill="none" stroke="black" d="M2060.92,-249.853C2133.36,-244.889 2262.24,-234.116 2306,-218 2315.02,-214.677 2319.46,-214.477 2324,-206 2355.11,-147.877 2322.28,-111.941 2275,-66 2258.42,-49.8934 2235.29,-38.4897 2215.55,-30.9523"/>
<polygon fill="black" stroke="black" points="2216.48,-27.5665 2205.88,-27.4591 2214.1,-34.1498 2216.48,-27.5665"/>
</a>
</g>
</g>
</svg>
