<?xml version="1.0" encoding="UTF-8" standalone="no"?>
<!DOCTYPE svg PUBLIC "-//W3C//DTD SVG 1.1//EN"
 "http://www.w3.org/Graphics/SVG/1.1/DTD/svg11.dtd">
<!-- Generated by graphviz version 2.28.0 (20110507.0327)
 -->
<!-- Title: MMT Pages: 1 -->
<svg
 viewBox="0.00 0.00 167.21 260.00" xmlns="http://www.w3.org/2000/svg" xmlns:xlink="http://www.w3.org/1999/xlink">
<g id="graph1" class="graph" transform="scale(1 1) rotate(0) translate(4 256)">
<title>MMT</title>
<polygon fill="white" stroke="white" points="-4,5 -4,-256 164.206,-256 164.206,5 -4,5"/>
<g id="graph2" class="cluster"><title>cluster_local</title>
<polygon fill="none" stroke="black" points="13.2061,-64 13.2061,-116 129.206,-116 129.206,-64 13.2061,-64"/>
</g>
<!-- http://latin.omdoc.org/math?Symmetric -->
<g id="node2" class="node"><title>http://latin.omdoc.org/math?Symmetric</title>
<a xlink:href="http://latin.omdoc.org/math?Symmetric" class="graphtheory">
<ellipse fill="none" stroke="black" cx="71.2061" cy="-90" rx="50.0684" ry="18"/>
<text text-anchor="middle" x="71.2061" y="-86.3" font-family="Times New Roman,serif" font-size="14.00">Symmetric</text>
</a>
</g>
<!-- http://latin.omdoc.org/math?Equivalence -->
<g id="node3" class="node"><title>http://latin.omdoc.org/math?Equivalence</title>
<a xlink:href="http://latin.omdoc.org/math?Equivalence" class="graphtheory">
<ellipse fill="gray" stroke="black" cx="71.2061" cy="-18" rx="53.4184" ry="18"/>
<text text-anchor="middle" x="71.2061" y="-14.3" font-family="Times New Roman,serif" font-size="14.00">Equivalence</text>
</a>
</g>
<!-- http://latin.omdoc.org/math?Symmetric&#45;&gt;http://latin.omdoc.org/math?Equivalence -->
<g id="edge3" class="edge"><title>http://latin.omdoc.org/math?Symmetric&#45;&gt;http://latin.omdoc.org/math?Equivalence</title>
<a class="graphinclude">
<path fill="none" stroke="black" d="M71.2061,-71.6966C71.2061,-63.9827 71.2061,-54.7125 71.2061,-46.1124"/>
<polygon fill="black" stroke="black" points="74.7062,-46.1043 71.2061,-36.1043 67.7062,-46.1044 74.7062,-46.1043"/>
</a>
</g>
<!-- http://latin.omdoc.org/math?Relation -->
<g id="node5" class="node"><title>http://latin.omdoc.org/math?Relation</title>
<a xlink:href="http://latin.omdoc.org/math?Relation" class="graphtheory">
<ellipse fill="gray" stroke="black" cx="119.206" cy="-162" rx="39.9464" ry="18"/>
<text text-anchor="middle" x="119.206" y="-158.3" font-family="Times New Roman,serif" font-size="14.00">Relation</text>
</a>
</g>
<!-- http://latin.omdoc.org/math?Relation&#45;&gt;http://latin.omdoc.org/math?Symmetric -->
<g id="edge5" class="edge"><title>http://latin.omdoc.org/math?Relation&#45;&gt;http://latin.omdoc.org/math?Symmetric</title>
<a class="graphinclude">
<path fill="none" stroke="black" d="M107.831,-144.411C102.116,-136.077 95.067,-125.797 88.6838,-116.488"/>
<polygon fill="black" stroke="black" points="91.3751,-114.224 82.8332,-107.956 85.602,-118.183 91.3751,-114.224"/>
</a>
</g>
<!-- http://latin.omdoc.org/math?Relation&#45;&gt;http://latin.omdoc.org/math?Equivalence -->
<g id="edge13" class="edge"><title>http://latin.omdoc.org/math?Relation&#45;&gt;http://latin.omdoc.org/math?Equivalence</title>
<a class="graphinclude">
<path fill="none" stroke="black" d="M127.332,-144.239C135.859,-124.089 146.344,-89.7693 133.206,-64 127.98,-53.7486 119.205,-45.2867 109.877,-38.5755"/>
<polygon fill="black" stroke="black" points="111.52,-35.4676 101.24,-32.9033 107.677,-41.3185 111.52,-35.4676"/>
</a>
</g>
<!-- http://latin.omdoc.org/math?Universe -->
<g id="node7" class="node"><title>http://latin.omdoc.org/math?Universe</title>
<a xlink:href="http://latin.omdoc.org/math?Universe" class="graphtheory">
<ellipse fill="gray" stroke="black" cx="51.2061" cy="-234" rx="42.3701" ry="18"/>
<text text-anchor="middle" x="51.2061" y="-230.3" font-family="Times New Roman,serif" font-size="14.00">Universe</text>
</a>
</g>
<!-- http://latin.omdoc.org/math?Universe&#45;&gt;http://latin.omdoc.org/math?Symmetric -->
<g id="edge7" class="edge"><title>http://latin.omdoc.org/math?Universe&#45;&gt;http://latin.omdoc.org/math?Symmetric</title>
<a class="graphmeta">
<path fill="none" stroke="black" d="M53.6186,-215.871C57.0272,-191.67 63.2891,-147.211 67.3479,-118.393"/>
<polygon fill="black" stroke="black" points="70.8561,-118.58 68.7851,-108.189 63.9245,-117.603 70.8561,-118.58"/>
</a>
</g>
<!-- http://latin.omdoc.org/math?Universe&#45;&gt;http://latin.omdoc.org/math?Equivalence -->
<g id="edge9" class="edge"><title>http://latin.omdoc.org/math?Universe&#45;&gt;http://latin.omdoc.org/math?Equivalence</title>
<a class="graphmeta">
<path fill="none" stroke="black" d="M39.7001,-216.29C19.6485,-184.919 -17.1591,-115.714 9.2061,-64 14.4325,-53.7486 23.2075,-45.2867 32.5356,-38.5755"/>
<polygon fill="black" stroke="black" points="34.7349,-41.3185 41.1719,-32.9033 30.892,-35.4676 34.7349,-41.3185"/>
</a>
</g>
<!-- http://latin.omdoc.org/math?Universe&#45;&gt;http://latin.omdoc.org/math?Relation -->
<g id="edge11" class="edge"><title>http://latin.omdoc.org/math?Universe&#45;&gt;http://latin.omdoc.org/math?Relation</title>
<a class="graphmeta">
<path fill="none" stroke="black" d="M66.6364,-217.116C75.5045,-207.987 86.8039,-196.355 96.6526,-186.217"/>
<polygon fill="black" stroke="black" points="99.3795,-188.433 103.837,-178.821 94.3585,-183.555 99.3795,-188.433"/>
</a>
</g>
</g>
</svg>
