<?xml version="1.0" encoding="UTF-8" standalone="no"?>
<!DOCTYPE svg PUBLIC "-//W3C//DTD SVG 1.1//EN"
 "http://www.w3.org/Graphics/SVG/1.1/DTD/svg11.dtd">
<!-- Generated by graphviz version 2.28.0 (20110507.0327)
 -->
<!-- Title: MMT Pages: 1 -->
<svg width="1322pt" height="442pt"
 viewBox="0.00 0.00 1321.95 442.00" xmlns="http://www.w3.org/2000/svg" xmlns:xlink="http://www.w3.org/1999/xlink">
<g id="graph1" class="graph" transform="scale(1 1) rotate(0) translate(4 438)">
<title>MMT</title>
<polygon fill="white" stroke="white" points="-4,5 -4,-438 1318.95,-438 1318.95,5 -4,5"/>
<g id="graph2" class="cluster"><title>cluster_local</title>
<polygon fill="none" stroke="black" points="528,-66 528,-206 650,-206 650,-66 528,-66"/>
</g>
<!-- http://latin.omdoc.org/math?Transitive -->
<g id="node2" class="node"><title>http://latin.omdoc.org/math?Transitive</title>
<a xlink:href="http://latin.omdoc.org/math?Transitive" class="graphtheory">
<ellipse fill="none" stroke="black" cx="589" cy="-180" rx="46.2191" ry="18"/>
<text text-anchor="middle" x="589" y="-176.3" font-family="Times New Roman,serif" font-size="14.00">Transitive</text>
</a>
</g>
<!-- http://latin.omdoc.org/math?SemiLattice -->
<g id="node3" class="node"><title>http://latin.omdoc.org/math?SemiLattice</title>
<a xlink:href="http://latin.omdoc.org/math?SemiLattice" class="graphtheory">
<ellipse fill="none" stroke="black" cx="589" cy="-92" rx="52.9443" ry="18"/>
<text text-anchor="middle" x="589" y="-88.3" font-family="Times New Roman,serif" font-size="14.00">SemiLattice</text>
</a>
</g>
<!-- http://latin.omdoc.org/math?Transitive&#45;&gt;http://latin.omdoc.org/math?SemiLattice -->
<g id="edge3" class="edge"><title>http://latin.omdoc.org/math?Transitive&#45;&gt;http://latin.omdoc.org/math?SemiLattice</title>
<a xlink:href="http://latin.omdoc.org/math?TSL" class="graphview">
<path fill="none" stroke="black" d="M579.493,-162.064C576.848,-156.486 574.336,-150.137 573,-144 571.487,-137.052 571.487,-134.948 573,-128 573.626,-125.123 574.511,-122.2 575.547,-119.332"/>
<polygon fill="black" stroke="black" points="578.847,-120.512 579.493,-109.936 572.393,-117.801 578.847,-120.512"/>
</a>
<a xlink:href="http://latin.omdoc.org/math?TSL" class="TSL">
<text text-anchor="middle" x="586" y="-132.3" font-family="Times New Roman,serif" font-size="14.00">TSL</text>
</a>
</g>
<!-- http://latin.omdoc.org/math?Strict -->
<g id="node5" class="node"><title>http://latin.omdoc.org/math?Strict</title>
<a xlink:href="http://latin.omdoc.org/math?Strict" class="graphtheory">
<ellipse fill="gray" stroke="black" cx="487" cy="-92" rx="30.3206" ry="18"/>
<text text-anchor="middle" x="487" y="-88.3" font-family="Times New Roman,serif" font-size="14.00">Strict</text>
</a>
</g>
<!-- http://latin.omdoc.org/math?Transitive&#45;&gt;http://latin.omdoc.org/math?Strict -->
<g id="edge5" class="edge"><title>http://latin.omdoc.org/math?Transitive&#45;&gt;http://latin.omdoc.org/math?Strict</title>
<a xlink:href="http://latin.omdoc.org/math?Strict?transitive" class="graphstructure">
<path fill="none" stroke="black" d="M555.865,-167.323C543.029,-161.673 528.846,-153.929 518,-144 510.286,-136.938 503.836,-127.516 498.852,-118.693"/>
<polygon fill="black" stroke="black" points="501.949,-117.063 494.197,-109.84 495.753,-120.32 501.949,-117.063"/>
</a>
<a xlink:href="http://latin.omdoc.org/math?Strict?transitive" class="transitive">
<text text-anchor="middle" x="543" y="-132.3" font-family="Times New Roman,serif" font-size="14.00">transitive</text>
</a>
</g>
<!-- http://latin.omdoc.org/math?POSL -->
<g id="node7" class="node"><title>http://latin.omdoc.org/math?POSL</title>
<a xlink:href="http://latin.omdoc.org/math?POSL" class="graphtheory">
<ellipse fill="gray" stroke="black" cx="163" cy="-92" rx="33.1991" ry="18"/>
<text text-anchor="middle" x="163" y="-88.3" font-family="Times New Roman,serif" font-size="14.00">POSL</text>
</a>
</g>
<!-- http://latin.omdoc.org/math?Transitive&#45;&gt;http://latin.omdoc.org/math?POSL -->
<g id="edge7" class="edge"><title>http://latin.omdoc.org/math?Transitive&#45;&gt;http://latin.omdoc.org/math?POSL</title>
<a xlink:href="http://latin.omdoc.org/math?POSL?[http://latin.omdoc.org/math?Transitive]" class="graphstructure">
<path fill="none" stroke="black" d="M557.348,-166.768C551.334,-164.866 545.034,-163.152 539,-162 499.443,-154.445 208.408,-169.206 177,-144 169.897,-138.3 166.197,-129.361 164.328,-120.548"/>
<polygon fill="black" stroke="black" points="167.766,-119.865 162.883,-110.463 160.837,-120.858 167.766,-119.865"/>
</a>
<a xlink:href="http://latin.omdoc.org/math?POSL?[http://latin.omdoc.org/math?Transitive]" class="[http://latin.omdoc.org/math?Transitive]">
<text text-anchor="middle" x="288" y="-132.3" font-family="Times New Roman,serif" font-size="14.00">[http://latin.omdoc.org/math?Transitive]</text>
</a>
</g>
<!-- http://latin.omdoc.org/math?SemigroupFOL -->
<g id="node9" class="node"><title>http://latin.omdoc.org/math?SemigroupFOL</title>
<a xlink:href="http://latin.omdoc.org/math?SemigroupFOL" class="graphtheory">
<ellipse fill="gray" stroke="black" cx="371" cy="-92" rx="67.3907" ry="18"/>
<text text-anchor="middle" x="371" y="-88.3" font-family="Times New Roman,serif" font-size="14.00">SemigroupFOL</text>
</a>
</g>
<!-- http://latin.omdoc.org/math?Transitive&#45;&gt;http://latin.omdoc.org/math?SemigroupFOL -->
<g id="edge9" class="edge"><title>http://latin.omdoc.org/math?Transitive&#45;&gt;http://latin.omdoc.org/math?SemigroupFOL</title>
<a xlink:href="http://latin.omdoc.org/math?OMTransitive" class="graphview">
<path fill="none" stroke="black" d="M556.697,-167.112C550.858,-165.223 544.787,-163.425 539,-162 488.768,-149.627 470.339,-167 424,-144 411.364,-137.728 399.765,-127.373 390.66,-117.626"/>
<polygon fill="black" stroke="black" points="393.175,-115.187 383.921,-110.029 387.939,-119.832 393.175,-115.187"/>
</a>
<a xlink:href="http://latin.omdoc.org/math?OMTransitive" class="OMTransitive">
<text text-anchor="middle" x="463" y="-132.3" font-family="Times New Roman,serif" font-size="14.00">OMTransitive</text>
</a>
</g>
<!-- http://latin.omdoc.org/math?Equivalence -->
<g id="node11" class="node"><title>http://latin.omdoc.org/math?Equivalence</title>
<a xlink:href="http://latin.omdoc.org/math?Equivalence" class="graphtheory">
<ellipse fill="gray" stroke="black" cx="53" cy="-92" rx="53.4184" ry="18"/>
<text text-anchor="middle" x="53" y="-88.3" font-family="Times New Roman,serif" font-size="14.00">Equivalence</text>
</a>
</g>
<!-- http://latin.omdoc.org/math?Transitive&#45;&gt;http://latin.omdoc.org/math?Equivalence -->
<g id="edge11" class="edge"><title>http://latin.omdoc.org/math?Transitive&#45;&gt;http://latin.omdoc.org/math?Equivalence</title>
<a class="graphinclude">
<path fill="none" stroke="black" d="M557.35,-166.759C551.336,-164.858 545.035,-163.147 539,-162 374.639,-130.767 325.468,-183.928 163,-144 136.29,-137.436 108.189,-124.286 87.0759,-112.984"/>
<polygon fill="black" stroke="black" points="88.6406,-109.85 78.1889,-108.115 85.2772,-115.989 88.6406,-109.85"/>
</a>
</g>
<!-- http://latin.omdoc.org/math?Preorder -->
<g id="node13" class="node"><title>http://latin.omdoc.org/math?Preorder</title>
<a xlink:href="http://latin.omdoc.org/math?Preorder" class="graphtheory">
<ellipse fill="gray" stroke="black" cx="1023" cy="-180" rx="42.3701" ry="18"/>
<text text-anchor="middle" x="1023" y="-176.3" font-family="Times New Roman,serif" font-size="14.00">Preorder</text>
</a>
</g>
<!-- http://latin.omdoc.org/math?Transitive&#45;&gt;http://latin.omdoc.org/math?Preorder -->
<g id="edge13" class="edge"><title>http://latin.omdoc.org/math?Transitive&#45;&gt;http://latin.omdoc.org/math?Preorder</title>
<a class="graphinclude">
<path fill="none" stroke="black" d="M604.106,-197.304C615.026,-208.426 630.83,-221.898 648,-228 704.954,-248.242 860.987,-241.076 920,-228 944.609,-222.547 970.31,-210.581 989.883,-199.961"/>
<polygon fill="black" stroke="black" points="991.664,-202.976 998.693,-195.048 988.254,-196.862 991.664,-202.976"/>
</a>
</g>
<!-- http://latin.omdoc.org/math?Lattice -->
<g id="node27" class="node"><title>http://latin.omdoc.org/math?Lattice</title>
<a xlink:href="http://latin.omdoc.org/math?Lattice" class="graphtheory">
<ellipse fill="gray" stroke="black" cx="1127" cy="-18" rx="35.1455" ry="18"/>
<text text-anchor="middle" x="1127" y="-14.3" font-family="Times New Roman,serif" font-size="14.00">Lattice</text>
</a>
</g>
<!-- http://latin.omdoc.org/math?SemiLattice&#45;&gt;http://latin.omdoc.org/math?Lattice -->
<g id="edge29" class="edge"><title>http://latin.omdoc.org/math?SemiLattice&#45;&gt;http://latin.omdoc.org/math?Lattice</title>
<a class="graphinclude">
<path fill="none" stroke="black" d="M617.072,-76.5882C626.095,-72.5319 636.276,-68.5385 646,-66 802.256,-25.2067 995.446,-19.1862 1081.71,-18.7102"/>
<polygon fill="black" stroke="black" points="1081.94,-22.2095 1091.93,-18.6774 1081.92,-15.2096 1081.94,-22.2095"/>
</a>
</g>
<!-- http://latin.omdoc.org/math?Preorder&#45;&gt;http://latin.omdoc.org/math?SemiLattice -->
<g id="edge23" class="edge"><title>http://latin.omdoc.org/math?Preorder&#45;&gt;http://latin.omdoc.org/math?SemiLattice</title>
<a xlink:href="http://latin.omdoc.org/math?POSL" class="graphview">
<path fill="none" stroke="black" d="M1010.25,-162.464C999.997,-150.549 984.46,-135.328 967,-128 901.121,-100.352 716.38,-122.294 646,-110 642.538,-109.395 638.989,-108.651 635.438,-107.815"/>
<polygon fill="black" stroke="black" points="636.05,-104.358 625.493,-105.255 634.305,-111.137 636.05,-104.358"/>
</a>
<a xlink:href="http://latin.omdoc.org/math?POSL" class="POSL">
<text text-anchor="middle" x="1009" y="-132.3" font-family="Times New Roman,serif" font-size="14.00">POSL</text>
</a>
</g>
<!-- http://latin.omdoc.org/math?Order -->
<g id="node19" class="node"><title>http://latin.omdoc.org/math?Order</title>
<a xlink:href="http://latin.omdoc.org/math?Order" class="graphtheory">
<ellipse fill="gray" stroke="black" cx="1252" cy="-92" rx="32.2457" ry="18"/>
<text text-anchor="middle" x="1252" y="-88.3" font-family="Times New Roman,serif" font-size="14.00">Order</text>
</a>
</g>
<!-- http://latin.omdoc.org/math?Preorder&#45;&gt;http://latin.omdoc.org/math?Order -->
<g id="edge67" class="edge"><title>http://latin.omdoc.org/math?Preorder&#45;&gt;http://latin.omdoc.org/math?Order</title>
<a class="graphinclude">
<path fill="none" stroke="black" d="M1054.71,-168.011C1061.07,-165.925 1067.73,-163.827 1074,-162 1105.67,-152.778 1114.98,-155.208 1146,-144 1171.98,-134.612 1200.11,-120.904 1220.85,-110.064"/>
<polygon fill="black" stroke="black" points="1222.63,-113.083 1229.83,-105.311 1219.35,-106.896 1222.63,-113.083"/>
</a>
</g>
<!-- http://latin.omdoc.org/math?Relation -->
<g id="node15" class="node"><title>http://latin.omdoc.org/math?Relation</title>
<a xlink:href="http://latin.omdoc.org/math?Relation" class="graphtheory">
<ellipse fill="gray" stroke="black" cx="953" cy="-342" rx="39.9464" ry="18"/>
<text text-anchor="middle" x="953" y="-338.3" font-family="Times New Roman,serif" font-size="14.00">Relation</text>
</a>
</g>
<!-- http://latin.omdoc.org/math?Relation&#45;&gt;http://latin.omdoc.org/math?Transitive -->
<g id="edge15" class="edge"><title>http://latin.omdoc.org/math?Relation&#45;&gt;http://latin.omdoc.org/math?Transitive</title>
<a class="graphinclude">
<path fill="none" stroke="black" d="M943.73,-324.175C931.242,-303.215 906.962,-267.978 876,-250 829.676,-223.103 689.786,-223.034 639,-206 633.767,-204.245 628.391,-202.035 623.194,-199.661"/>
<polygon fill="black" stroke="black" points="624.63,-196.467 614.103,-195.269 621.585,-202.77 624.63,-196.467"/>
</a>
</g>
<!-- http://latin.omdoc.org/math?Relation&#45;&gt;http://latin.omdoc.org/math?SemiLattice -->
<g id="edge25" class="edge"><title>http://latin.omdoc.org/math?Relation&#45;&gt;http://latin.omdoc.org/math?SemiLattice</title>
<a xlink:href="http://latin.omdoc.org/math?RSL" class="graphview">
<path fill="none" stroke="black" d="M953.051,-323.874C952.309,-289.698 946.307,-212.023 909,-162 891.136,-138.047 879.466,-137.084 851,-128 763.867,-100.195 735.838,-127.158 646,-110 642.548,-109.341 639.007,-108.556 635.461,-107.692"/>
<polygon fill="black" stroke="black" points="636.086,-104.237 625.525,-105.08 634.306,-111.007 636.086,-104.237"/>
</a>
<a xlink:href="http://latin.omdoc.org/math?RSL" class="RSL">
<text text-anchor="middle" x="953.5" y="-220.3" font-family="Times New Roman,serif" font-size="14.00">RSL</text>
</a>
</g>
<!-- http://latin.omdoc.org/math?Relation&#45;&gt;http://latin.omdoc.org/math?Equivalence -->
<g id="edge59" class="edge"><title>http://latin.omdoc.org/math?Relation&#45;&gt;http://latin.omdoc.org/math?Equivalence</title>
<a class="graphinclude">
<path fill="none" stroke="black" d="M913.936,-337.171C802.034,-325.81 470.996,-289.459 201,-232 159.44,-223.156 141.909,-232.878 109,-206 82.0235,-183.967 66.9495,-145.681 59.4023,-119.851"/>
<polygon fill="black" stroke="black" points="62.7115,-118.683 56.7,-109.959 55.9589,-120.527 62.7115,-118.683"/>
</a>
</g>
<!-- http://latin.omdoc.org/math?Relation&#45;&gt;http://latin.omdoc.org/math?Preorder -->
<g id="edge61" class="edge"><title>http://latin.omdoc.org/math?Relation&#45;&gt;http://latin.omdoc.org/math?Preorder</title>
<a class="graphinclude">
<path fill="none" stroke="black" d="M960.359,-324.18C972.511,-296.404 996.868,-240.731 1011.37,-207.584"/>
<polygon fill="black" stroke="black" points="1014.73,-208.641 1015.53,-198.077 1008.31,-205.835 1014.73,-208.641"/>
</a>
</g>
<!-- http://latin.omdoc.org/math?Reflexive -->
<g id="node21" class="node"><title>http://latin.omdoc.org/math?Reflexive</title>
<a xlink:href="http://latin.omdoc.org/math?Reflexive" class="graphtheory">
<ellipse fill="gray" stroke="black" cx="823" cy="-268" rx="44.2946" ry="18"/>
<text text-anchor="middle" x="823" y="-264.3" font-family="Times New Roman,serif" font-size="14.00">Reflexive</text>
</a>
</g>
<!-- http://latin.omdoc.org/math?Relation&#45;&gt;http://latin.omdoc.org/math?Reflexive -->
<g id="edge65" class="edge"><title>http://latin.omdoc.org/math?Relation&#45;&gt;http://latin.omdoc.org/math?Reflexive</title>
<a class="graphinclude">
<path fill="none" stroke="black" d="M925.61,-328.596C912.006,-322.207 895.433,-314.076 881,-306 871.854,-300.882 862.163,-294.925 853.376,-289.306"/>
<polygon fill="black" stroke="black" points="855.239,-286.343 844.943,-283.844 851.433,-292.218 855.239,-286.343"/>
</a>
</g>
<!-- http://latin.omdoc.org/math?Antisymmetric -->
<g id="node25" class="node"><title>http://latin.omdoc.org/math?Antisymmetric</title>
<a xlink:href="http://latin.omdoc.org/math?Antisymmetric" class="graphtheory">
<ellipse fill="gray" stroke="black" cx="1147" cy="-180" rx="63.5411" ry="18"/>
<text text-anchor="middle" x="1147" y="-176.3" font-family="Times New Roman,serif" font-size="14.00">Antisymmetric</text>
</a>
</g>
<!-- http://latin.omdoc.org/math?Relation&#45;&gt;http://latin.omdoc.org/math?Antisymmetric -->
<g id="edge63" class="edge"><title>http://latin.omdoc.org/math?Relation&#45;&gt;http://latin.omdoc.org/math?Antisymmetric</title>
<a class="graphinclude">
<path fill="none" stroke="black" d="M971.251,-325.948C1005.4,-297.782 1079.14,-236.97 1119.4,-203.766"/>
<polygon fill="black" stroke="black" points="1121.73,-206.38 1127.22,-197.317 1117.27,-200.979 1121.73,-206.38"/>
</a>
</g>
<!-- http://latin.omdoc.org/math?Universe -->
<g id="node17" class="node"><title>http://latin.omdoc.org/math?Universe</title>
<a xlink:href="http://latin.omdoc.org/math?Universe" class="graphtheory">
<ellipse fill="gray" stroke="black" cx="870" cy="-416" rx="42.3701" ry="18"/>
<text text-anchor="middle" x="870" y="-412.3" font-family="Times New Roman,serif" font-size="14.00">Universe</text>
</a>
</g>
<!-- http://latin.omdoc.org/math?Universe&#45;&gt;http://latin.omdoc.org/math?Transitive -->
<g id="edge17" class="edge"><title>http://latin.omdoc.org/math?Universe&#45;&gt;http://latin.omdoc.org/math?Transitive</title>
<a class="graphmeta">
<path fill="none" stroke="black" d="M851.563,-399.647C803.15,-359.332 672.257,-250.331 615.665,-203.205"/>
<polygon fill="black" stroke="black" points="617.798,-200.426 607.874,-196.717 613.318,-205.806 617.798,-200.426"/>
</a>
</g>
<!-- http://latin.omdoc.org/math?Universe&#45;&gt;http://latin.omdoc.org/math?Equivalence -->
<g id="edge51" class="edge"><title>http://latin.omdoc.org/math?Universe&#45;&gt;http://latin.omdoc.org/math?Equivalence</title>
<a class="graphmeta">
<path fill="none" stroke="black" d="M827.987,-413.706C655.526,-408.123 11,-384.482 11,-343 11,-343 11,-343 11,-179 11,-156.849 22.3897,-134.447 33.3066,-118.062"/>
<polygon fill="black" stroke="black" points="36.3558,-119.81 39.2476,-109.618 30.6308,-115.782 36.3558,-119.81"/>
</a>
</g>
<!-- http://latin.omdoc.org/math?Universe&#45;&gt;http://latin.omdoc.org/math?Preorder -->
<g id="edge53" class="edge"><title>http://latin.omdoc.org/math?Universe&#45;&gt;http://latin.omdoc.org/math?Preorder</title>
<a class="graphmeta">
<path fill="none" stroke="black" d="M909.398,-409.377C939.664,-402.872 979.909,-389.049 1002,-360 1035.7,-315.684 1032.7,-246.496 1027.73,-208.421"/>
<polygon fill="black" stroke="black" points="1031.14,-207.503 1026.24,-198.108 1024.21,-208.507 1031.14,-207.503"/>
</a>
</g>
<!-- http://latin.omdoc.org/math?Universe&#45;&gt;http://latin.omdoc.org/math?Relation -->
<g id="edge55" class="edge"><title>http://latin.omdoc.org/math?Universe&#45;&gt;http://latin.omdoc.org/math?Relation</title>
<a class="graphmeta">
<path fill="none" stroke="black" d="M888.01,-399.377C899.618,-389.307 914.882,-376.066 927.7,-364.947"/>
<polygon fill="black" stroke="black" points="930.05,-367.542 935.311,-358.345 925.463,-362.254 930.05,-367.542"/>
</a>
</g>
<!-- http://latin.omdoc.org/math?Universe&#45;&gt;http://latin.omdoc.org/math?Reflexive -->
<g id="edge57" class="edge"><title>http://latin.omdoc.org/math?Universe&#45;&gt;http://latin.omdoc.org/math?Reflexive</title>
<a class="graphmeta">
<path fill="none" stroke="black" d="M864.517,-397.966C856.415,-372.801 841.175,-325.458 831.584,-295.666"/>
<polygon fill="black" stroke="black" points="834.845,-294.372 828.449,-285.925 828.181,-296.517 834.845,-294.372"/>
</a>
</g>
<!-- http://latin.omdoc.org/math?EqUniverse -->
<g id="node31" class="node"><title>http://latin.omdoc.org/math?EqUniverse</title>
<a xlink:href="http://latin.omdoc.org/math?EqUniverse" class="graphtheory">
<ellipse fill="gray" stroke="black" cx="1239" cy="-268" rx="52.4675" ry="18"/>
<text text-anchor="middle" x="1239" y="-264.3" font-family="Times New Roman,serif" font-size="14.00">EqUniverse</text>
</a>
</g>
<!-- http://latin.omdoc.org/math?Universe&#45;&gt;http://latin.omdoc.org/math?EqUniverse -->
<g id="edge49" class="edge"><title>http://latin.omdoc.org/math?Universe&#45;&gt;http://latin.omdoc.org/math?EqUniverse</title>
<a class="graphinclude">
<path fill="none" stroke="black" d="M910.402,-410.846C946.967,-406.197 1001.85,-396.98 1047,-380 1108.39,-356.914 1173.09,-315.404 1209.52,-290.211"/>
<polygon fill="black" stroke="black" points="1211.52,-293.08 1217.72,-284.484 1207.51,-287.341 1211.52,-293.08"/>
</a>
</g>
<!-- http://latin.omdoc.org/math?Order&#45;&gt;http://latin.omdoc.org/math?SemiLattice -->
<g id="edge19" class="edge"><title>http://latin.omdoc.org/math?Order&#45;&gt;http://latin.omdoc.org/math?SemiLattice</title>
<a xlink:href="http://latin.omdoc.org/math?OSL" class="graphview">
<path fill="none" stroke="black" d="M1219.54,-92C1115.79,-92 790.853,-92 652.449,-92"/>
<polygon fill="black" stroke="black" points="652.415,-88.5001 642.415,-92 652.415,-95.5001 652.415,-88.5001"/>
</a>
<a xlink:href="http://latin.omdoc.org/math?OSL" class="OSL">
<text text-anchor="middle" x="930.751" y="-98.8" font-family="Times New Roman,serif" font-size="14.00">OSL</text>
</a>
</g>
<!-- http://latin.omdoc.org/math?Reflexive&#45;&gt;http://latin.omdoc.org/math?SemiLattice -->
<g id="edge21" class="edge"><title>http://latin.omdoc.org/math?Reflexive&#45;&gt;http://latin.omdoc.org/math?SemiLattice</title>
<a xlink:href="http://latin.omdoc.org/math?ReSL" class="graphview">
<path fill="none" stroke="black" d="M838.436,-250.941C857.648,-228.973 885.464,-189.186 864,-162 802.277,-83.822 742.208,-135.8 646,-110 643.005,-109.197 639.928,-108.348 636.829,-107.475"/>
<polygon fill="black" stroke="black" points="637.513,-104.03 626.935,-104.635 635.581,-110.759 637.513,-104.03"/>
</a>
<a xlink:href="http://latin.omdoc.org/math?ReSL" class="ReSL">
<text text-anchor="middle" x="888.5" y="-176.3" font-family="Times New Roman,serif" font-size="14.00">ReSL</text>
</a>
</g>
<!-- http://latin.omdoc.org/math?Reflexive&#45;&gt;http://latin.omdoc.org/math?POSL -->
<g id="edge43" class="edge"><title>http://latin.omdoc.org/math?Reflexive&#45;&gt;http://latin.omdoc.org/math?POSL</title>
<a xlink:href="http://latin.omdoc.org/math?POSL?[http://latin.omdoc.org/math?Reflexive]" class="graphstructure">
<path fill="none" stroke="black" d="M778.86,-266.153C688.402,-263.474 476.094,-252.33 305,-206 238.529,-188.001 200.714,-201.619 163,-144 158.431,-137.02 157.226,-128.27 157.526,-119.998"/>
<polygon fill="black" stroke="black" points="161.018,-120.253 158.573,-109.945 154.056,-119.528 161.018,-120.253"/>
</a>
<a xlink:href="http://latin.omdoc.org/math?POSL?[http://latin.omdoc.org/math?Reflexive]" class="[http://latin.omdoc.org/math?Reflexive]">
<text text-anchor="middle" x="414.5" y="-176.3" font-family="Times New Roman,serif" font-size="14.00">[http://latin.omdoc.org/math?Reflexive]</text>
</a>
</g>
<!-- http://latin.omdoc.org/math?Reflexive&#45;&gt;http://latin.omdoc.org/math?Equivalence -->
<g id="edge45" class="edge"><title>http://latin.omdoc.org/math?Reflexive&#45;&gt;http://latin.omdoc.org/math?Equivalence</title>
<a class="graphinclude">
<path fill="none" stroke="black" d="M778.87,-266.84C650.628,-265.759 280.322,-258.087 173,-206 130.488,-185.368 92.8913,-144.337 71.5565,-117.807"/>
<polygon fill="black" stroke="black" points="74.1495,-115.442 65.2154,-109.747 68.6481,-119.771 74.1495,-115.442"/>
</a>
</g>
<!-- http://latin.omdoc.org/math?Reflexive&#45;&gt;http://latin.omdoc.org/math?Preorder -->
<g id="edge47" class="edge"><title>http://latin.omdoc.org/math?Reflexive&#45;&gt;http://latin.omdoc.org/math?Preorder</title>
<a class="graphinclude">
<path fill="none" stroke="black" d="M850.634,-253.781C872.976,-243.22 905.319,-228.217 934,-216 949.788,-209.275 967.336,-202.275 982.648,-196.318"/>
<polygon fill="black" stroke="black" points="984.282,-199.439 992.347,-192.568 981.757,-192.91 984.282,-199.439"/>
</a>
</g>
<!-- http://latin.omdoc.org/math?Antisymmetric&#45;&gt;http://latin.omdoc.org/math?SemiLattice -->
<g id="edge27" class="edge"><title>http://latin.omdoc.org/math?Antisymmetric&#45;&gt;http://latin.omdoc.org/math?SemiLattice</title>
<a xlink:href="http://latin.omdoc.org/math?ASL" class="graphview">
<path fill="none" stroke="black" d="M1119.87,-163.643C1096.97,-151.536 1062.91,-135.488 1031,-128 864.231,-88.8698 814.878,-138.691 646,-110 642.376,-109.384 638.658,-108.611 634.942,-107.736"/>
<polygon fill="black" stroke="black" points="635.734,-104.326 625.177,-105.221 633.988,-111.105 635.734,-104.326"/>
</a>
<a xlink:href="http://latin.omdoc.org/math?ASL" class="ASL">
<text text-anchor="middle" x="1090.5" y="-132.3" font-family="Times New Roman,serif" font-size="14.00">ASL</text>
</a>
</g>
<!-- http://latin.omdoc.org/math?Antisymmetric&#45;&gt;http://latin.omdoc.org/math?Order -->
<g id="edge41" class="edge"><title>http://latin.omdoc.org/math?Antisymmetric&#45;&gt;http://latin.omdoc.org/math?Order</title>
<a class="graphinclude">
<path fill="none" stroke="black" d="M1197.37,-168.862C1212.22,-163.647 1227.32,-155.795 1238,-144 1243.96,-137.419 1247.41,-128.534 1249.41,-120.024"/>
<polygon fill="black" stroke="black" points="1252.88,-120.468 1251.18,-110.011 1245.99,-119.246 1252.88,-120.468"/>
</a>
</g>
<!-- http://latin.omdoc.org/math?CommutativeSemigroup -->
<g id="node29" class="node"><title>http://latin.omdoc.org/math?CommutativeSemigroup</title>
<a xlink:href="http://latin.omdoc.org/math?CommutativeSemigroup" class="graphtheory">
<ellipse fill="gray" stroke="black" cx="757" cy="-180" rx="98.1881" ry="18"/>
<text text-anchor="middle" x="757" y="-176.3" font-family="Times New Roman,serif" font-size="14.00">CommutativeSemigroup</text>
</a>
</g>
<!-- http://latin.omdoc.org/math?CommutativeSemigroup&#45;&gt;http://latin.omdoc.org/math?SemiLattice -->
<g id="edge31" class="edge"><title>http://latin.omdoc.org/math?CommutativeSemigroup&#45;&gt;http://latin.omdoc.org/math?SemiLattice</title>
<a class="graphinclude">
<path fill="none" stroke="black" d="M725.4,-162.824C697.269,-148.423 656.082,-127.339 626.333,-112.111"/>
<polygon fill="black" stroke="black" points="627.604,-108.83 617.108,-107.388 624.414,-115.061 627.604,-108.83"/>
</a>
</g>
<!-- http://latin.omdoc.org/math?EqUniverse&#45;&gt;http://latin.omdoc.org/math?SemiLattice -->
<g id="edge33" class="edge"><title>http://latin.omdoc.org/math?EqUniverse&#45;&gt;http://latin.omdoc.org/math?SemiLattice</title>
<a class="graphmeta">
<path fill="none" stroke="black" d="M1240.75,-249.771C1242.08,-226.828 1240.8,-186.318 1219,-162 1184.56,-123.583 1158.87,-136.632 1108,-128 905.407,-93.6224 848.719,-143.629 646,-110 642.374,-109.398 638.654,-108.636 634.937,-107.768"/>
<polygon fill="black" stroke="black" points="635.726,-104.357 625.17,-105.265 633.988,-111.138 635.726,-104.357"/>
</a>
</g>
<!-- http://latin.omdoc.org/math?EqUniverse&#45;&gt;http://latin.omdoc.org/math?Order -->
<g id="edge39" class="edge"><title>http://latin.omdoc.org/math?EqUniverse&#45;&gt;http://latin.omdoc.org/math?Order</title>
<a class="graphmeta">
<path fill="none" stroke="black" d="M1247.2,-249.924C1249.51,-244.338 1251.73,-238.02 1253,-232 1261.02,-193.888 1258.53,-148.588 1255.59,-120.309"/>
<polygon fill="black" stroke="black" points="1259.07,-119.898 1254.47,-110.355 1252.11,-120.685 1259.07,-119.898"/>
</a>
</g>
<!-- http://latin.omdoc.org/math?EqUniverse&#45;&gt;http://latin.omdoc.org/math?Antisymmetric -->
<g id="edge37" class="edge"><title>http://latin.omdoc.org/math?EqUniverse&#45;&gt;http://latin.omdoc.org/math?Antisymmetric</title>
<a class="graphmeta">
<path fill="none" stroke="black" d="M1221.7,-250.824C1207.65,-237.694 1187.66,-219.009 1171.9,-204.272"/>
<polygon fill="black" stroke="black" points="1174.24,-201.668 1164.54,-197.396 1169.45,-206.782 1174.24,-201.668"/>
</a>
</g>
<!-- http://latin.omdoc.org/math?EqUniverse&#45;&gt;http://latin.omdoc.org/math?Lattice -->
<g id="edge35" class="edge"><title>http://latin.omdoc.org/math?EqUniverse&#45;&gt;http://latin.omdoc.org/math?Lattice</title>
<a class="graphmeta">
<path fill="none" stroke="black" d="M1255.29,-250.727C1260.03,-245.185 1264.79,-238.689 1268,-232 1300.25,-164.721 1338,-125.511 1293,-66 1278.21,-46.44 1214.42,-32.6734 1170.37,-25.2914"/>
<polygon fill="black" stroke="black" points="1170.9,-21.8316 1160.47,-23.6829 1169.78,-28.7411 1170.9,-21.8316"/>
</a>
</g>
</g>
</svg>
