<?xml version="1.0" encoding="UTF-8" standalone="no"?>
<!DOCTYPE svg PUBLIC "-//W3C//DTD SVG 1.1//EN"
 "http://www.w3.org/Graphics/SVG/1.1/DTD/svg11.dtd">
<!-- Generated by graphviz version 2.28.0 (20110507.0327)
 -->
<!-- Title: MMT Pages: 1 -->
<svg
 viewBox="0.00 0.00 203.57 260.00" xmlns="http://www.w3.org/2000/svg" xmlns:xlink="http://www.w3.org/1999/xlink">
<g id="graph1" class="graph" transform="scale(1 1) rotate(0) translate(4 256)">
<title>MMT</title>
<polygon fill="white" stroke="white" points="-4,5 -4,-256 200.571,-256 200.571,5 -4,5"/>
<g id="graph2" class="cluster"><title>cluster_local</title>
<polygon fill="none" stroke="black" points="8,-64 8,-116 178,-116 178,-64 8,-64"/>
</g>
<!-- http://latin.omdoc.org/math?UnboundedBelow -->
<g id="node2" class="node"><title>http://latin.omdoc.org/math?UnboundedBelow</title>
<a xlink:href="http://latin.omdoc.org/math?UnboundedBelow" class="graphtheory">
<ellipse fill="none" stroke="black" cx="93" cy="-90" rx="76.5394" ry="18"/>
<text text-anchor="middle" x="93" y="-86.3" font-family="Times New Roman,serif" font-size="14.00">UnboundedBelow</text>
</a>
</g>
<!-- http://latin.omdoc.org/math?Rat -->
<g id="node3" class="node"><title>http://latin.omdoc.org/math?Rat</title>
<a xlink:href="http://latin.omdoc.org/math?Rat" class="graphtheory">
<ellipse fill="gray" stroke="black" cx="145" cy="-18" rx="27" ry="18"/>
<text text-anchor="middle" x="145" y="-14.3" font-family="Times New Roman,serif" font-size="14.00">Rat</text>
</a>
</g>
<!-- http://latin.omdoc.org/math?UnboundedBelow&#45;&gt;http://latin.omdoc.org/math?Rat -->
<g id="edge3" class="edge"><title>http://latin.omdoc.org/math?UnboundedBelow&#45;&gt;http://latin.omdoc.org/math?Rat</title>
<a class="graphinclude">
<path fill="none" stroke="black" d="M105.588,-72.055C112.19,-63.1672 120.381,-52.1404 127.583,-42.4457"/>
<polygon fill="black" stroke="black" points="130.439,-44.471 133.592,-34.3564 124.82,-40.2967 130.439,-44.471"/>
</a>
</g>
<!-- http://latin.omdoc.org/math?OrderLogic -->
<g id="node5" class="node"><title>http://latin.omdoc.org/math?OrderLogic</title>
<a xlink:href="http://latin.omdoc.org/math?OrderLogic" class="graphtheory">
<ellipse fill="gray" stroke="black" cx="117" cy="-162" rx="52.9443" ry="18"/>
<text text-anchor="middle" x="117" y="-158.3" font-family="Times New Roman,serif" font-size="14.00">OrderLogic</text>
</a>
</g>
<!-- http://latin.omdoc.org/math?OrderLogic&#45;&gt;http://latin.omdoc.org/math?UnboundedBelow -->
<g id="edge5" class="edge"><title>http://latin.omdoc.org/math?OrderLogic&#45;&gt;http://latin.omdoc.org/math?UnboundedBelow</title>
<a class="graphinclude">
<path fill="none" stroke="black" d="M111.19,-144.055C108.489,-136.176 105.211,-126.617 102.187,-117.794"/>
<polygon fill="black" stroke="black" points="105.477,-116.6 98.923,-108.275 98.8555,-118.87 105.477,-116.6"/>
</a>
</g>
<!-- http://latin.omdoc.org/logics/proof_theory?IFOLEQ -->
<g id="node7" class="node"><title>http://latin.omdoc.org/logics/proof_theory?IFOLEQ</title>
<a xlink:href="http://latin.omdoc.org/logics/proof_theory?IFOLEQ" class="graphtheory">
<ellipse fill="gray" stroke="black" cx="117" cy="-234" rx="43.319" ry="18"/>
<text text-anchor="middle" x="117" y="-230.3" font-family="Times New Roman,serif" font-size="14.00">IFOLEQ</text>
</a>
</g>
<!-- http://latin.omdoc.org/logics/proof_theory?IFOLEQ&#45;&gt;http://latin.omdoc.org/math?UnboundedBelow -->
<g id="edge7" class="edge"><title>http://latin.omdoc.org/logics/proof_theory?IFOLEQ&#45;&gt;http://latin.omdoc.org/math?UnboundedBelow</title>
<a class="graphmeta">
<path fill="none" stroke="black" d="M92.0072,-219.06C78.3276,-209.919 62.6442,-196.591 55,-180 48.3046,-165.468 50.1036,-159.232 55,-144 58.2743,-133.814 64.3093,-123.926 70.6206,-115.504"/>
<polygon fill="black" stroke="black" points="73.4186,-117.61 76.9321,-107.614 67.9523,-113.237 73.4186,-117.61"/>
</a>
</g>
<!-- http://latin.omdoc.org/logics/proof_theory?IFOLEQ&#45;&gt;http://latin.omdoc.org/math?Rat -->
<g id="edge9" class="edge"><title>http://latin.omdoc.org/logics/proof_theory?IFOLEQ&#45;&gt;http://latin.omdoc.org/math?Rat</title>
<a class="graphmeta">
<path fill="none" stroke="black" d="M141.708,-218.925C155.289,-209.737 170.969,-196.407 179,-180 201.672,-133.678 199.397,-112.55 182,-64 178.91,-55.3771 173.376,-47.2236 167.514,-40.2863"/>
<polygon fill="black" stroke="black" points="169.943,-37.7567 160.608,-32.7462 164.781,-42.4846 169.943,-37.7567"/>
</a>
</g>
<!-- http://latin.omdoc.org/logics/proof_theory?IFOLEQ&#45;&gt;http://latin.omdoc.org/math?OrderLogic -->
<g id="edge11" class="edge"><title>http://latin.omdoc.org/logics/proof_theory?IFOLEQ&#45;&gt;http://latin.omdoc.org/math?OrderLogic</title>
<a class="graphmeta">
<path fill="none" stroke="black" d="M117,-215.697C117,-207.983 117,-198.712 117,-190.112"/>
<polygon fill="black" stroke="black" points="120.5,-190.104 117,-180.104 113.5,-190.104 120.5,-190.104"/>
</a>
</g>
</g>
</svg>
