<?xml version="1.0" encoding="UTF-8" standalone="no"?>
<!DOCTYPE svg PUBLIC "-//W3C//DTD SVG 1.1//EN"
 "http://www.w3.org/Graphics/SVG/1.1/DTD/svg11.dtd">
<!-- Generated by graphviz version 2.28.0 (20110507.0327)
 -->
<!-- Title: MMT Pages: 1 -->
<svg width="845pt" height="294pt"
 viewBox="0.00 0.00 844.77 294.00" xmlns="http://www.w3.org/2000/svg" xmlns:xlink="http://www.w3.org/1999/xlink">
<g id="graph1" class="graph" transform="scale(1 1) rotate(0) translate(4 290)">
<title>MMT</title>
<polygon fill="white" stroke="white" points="-4,5 -4,-290 841.766,-290 841.766,5 -4,5"/>
<g id="graph2" class="cluster"><title>cluster_local</title>
<polygon fill="none" stroke="black" points="360.766,-80 360.766,-220 456.766,-220 456.766,-80 360.766,-80"/>
</g>
<!-- http://latin.omdoc.org/logics/proof_theory?DLBase -->
<g id="node2" class="node"><title>http://latin.omdoc.org/logics/proof_theory?DLBase</title>
<a xlink:href="http://latin.omdoc.org/logics/proof_theory?DLBase" class="graphtheory">
<ellipse fill="none" stroke="black" cx="408.766" cy="-194" rx="39.9464" ry="18"/>
<text text-anchor="middle" x="408.766" y="-190.3" font-family="Times New Roman,serif" font-size="14.00">DLBase</text>
</a>
</g>
<!-- http://latin.omdoc.org/logics/proof_theory?FOL -->
<g id="node3" class="node"><title>http://latin.omdoc.org/logics/proof_theory?FOL</title>
<a xlink:href="http://latin.omdoc.org/logics/proof_theory?FOL" class="graphtheory">
<ellipse fill="none" stroke="black" cx="419.766" cy="-106" rx="28.3955" ry="18"/>
<text text-anchor="middle" x="419.766" y="-102.3" font-family="Times New Roman,serif" font-size="14.00">FOL</text>
</a>
</g>
<!-- http://latin.omdoc.org/logics/proof_theory?DLBase&#45;&gt;http://latin.omdoc.org/logics/proof_theory?FOL -->
<g id="edge3" class="edge"><title>http://latin.omdoc.org/logics/proof_theory?DLBase&#45;&gt;http://latin.omdoc.org/logics/proof_theory?FOL</title>
<a xlink:href="http://latin.omdoc.org/logics/soundness?DLBase" class="graphview">
<path fill="none" stroke="black" d="M410.939,-176.009C412.461,-164.112 414.526,-147.961 416.277,-134.275"/>
<polygon fill="black" stroke="black" points="419.8,-134.319 417.597,-123.956 412.856,-133.431 419.8,-134.319"/>
</a>
<a xlink:href="http://latin.omdoc.org/logics/soundness?DLBase" class="DLBase">
<text text-anchor="middle" x="438.766" y="-146.3" font-family="Times New Roman,serif" font-size="14.00">DLBase</text>
</a>
</g>
<!-- http://latin.omdoc.org/logics/proof_theory?DL -->
<g id="node5" class="node"><title>http://latin.omdoc.org/logics/proof_theory?DL</title>
<a xlink:href="http://latin.omdoc.org/logics/proof_theory?DL" class="graphtheory">
<ellipse fill="gray" stroke="black" cx="161.766" cy="-18" rx="27" ry="18"/>
<text text-anchor="middle" x="161.766" y="-14.3" font-family="Times New Roman,serif" font-size="14.00">DL</text>
</a>
</g>
<!-- http://latin.omdoc.org/logics/proof_theory?DLBase&#45;&gt;http://latin.omdoc.org/logics/proof_theory?DL -->
<g id="edge5" class="edge"><title>http://latin.omdoc.org/logics/proof_theory?DLBase&#45;&gt;http://latin.omdoc.org/logics/proof_theory?DL</title>
<a class="graphinclude">
<path fill="none" stroke="black" d="M397.232,-176.337C379.84,-152.261 344.759,-107.613 305.766,-80 271.725,-55.8937 226.679,-38.7517 196.098,-28.8971"/>
<polygon fill="black" stroke="black" points="196.907,-25.483 186.318,-25.835 194.815,-32.1632 196.907,-25.483"/>
</a>
</g>
<!-- http://latin.omdoc.org/logics/proof_theory?FL0 -->
<g id="node7" class="node"><title>http://latin.omdoc.org/logics/proof_theory?FL0</title>
<a xlink:href="http://latin.omdoc.org/logics/proof_theory?FL0" class="graphtheory">
<ellipse fill="gray" stroke="black" cx="53.7656" cy="-106" rx="27" ry="18"/>
<text text-anchor="middle" x="53.7656" y="-102.3" font-family="Times New Roman,serif" font-size="14.00">FL0</text>
</a>
</g>
<!-- http://latin.omdoc.org/logics/proof_theory?DLBase&#45;&gt;http://latin.omdoc.org/logics/proof_theory?FL0 -->
<g id="edge7" class="edge"><title>http://latin.omdoc.org/logics/proof_theory?DLBase&#45;&gt;http://latin.omdoc.org/logics/proof_theory?FL0</title>
<a class="graphinclude">
<path fill="none" stroke="black" d="M380.702,-180.952C375.478,-179.057 370.012,-177.298 364.766,-176 297.872,-159.451 278.368,-171.362 210.766,-158 183.366,-152.584 115.929,-133.775 89.7656,-124 87.9204,-123.311 86.0398,-122.564 84.1546,-121.781"/>
<polygon fill="black" stroke="black" points="85.3946,-118.503 74.8327,-117.668 82.5686,-124.907 85.3946,-118.503"/>
</a>
</g>
<!-- http://latin.omdoc.org/logics/proof_theory?E -->
<g id="node9" class="node"><title>http://latin.omdoc.org/logics/proof_theory?E</title>
<a xlink:href="http://latin.omdoc.org/logics/proof_theory?E" class="graphtheory">
<ellipse fill="gray" stroke="black" cx="125.766" cy="-106" rx="27" ry="18"/>
<text text-anchor="middle" x="125.766" y="-102.3" font-family="Times New Roman,serif" font-size="14.00">E</text>
</a>
</g>
<!-- http://latin.omdoc.org/logics/proof_theory?DLBase&#45;&gt;http://latin.omdoc.org/logics/proof_theory?E -->
<g id="edge9" class="edge"><title>http://latin.omdoc.org/logics/proof_theory?DLBase&#45;&gt;http://latin.omdoc.org/logics/proof_theory?E</title>
<a class="graphinclude">
<path fill="none" stroke="black" d="M380.128,-181.145C375.06,-179.275 369.795,-177.475 364.766,-176 326.458,-164.767 315.498,-167.668 276.766,-158 225.054,-145.092 211.566,-142.991 161.766,-124 159.925,-123.298 158.048,-122.542 156.166,-121.752"/>
<polygon fill="black" stroke="black" points="157.411,-118.476 146.851,-117.619 154.572,-124.874 157.411,-118.476"/>
</a>
</g>
<!-- http://latin.omdoc.org/logics/proof_theory?U -->
<g id="node11" class="node"><title>http://latin.omdoc.org/logics/proof_theory?U</title>
<a xlink:href="http://latin.omdoc.org/logics/proof_theory?U" class="graphtheory">
<ellipse fill="gray" stroke="black" cx="197.766" cy="-106" rx="27" ry="18"/>
<text text-anchor="middle" x="197.766" y="-102.3" font-family="Times New Roman,serif" font-size="14.00">U</text>
</a>
</g>
<!-- http://latin.omdoc.org/logics/proof_theory?DLBase&#45;&gt;http://latin.omdoc.org/logics/proof_theory?U -->
<g id="edge11" class="edge"><title>http://latin.omdoc.org/logics/proof_theory?DLBase&#45;&gt;http://latin.omdoc.org/logics/proof_theory?U</title>
<a class="graphinclude">
<path fill="none" stroke="black" d="M379.422,-181.552C333.307,-163.542 247.665,-130.014 233.766,-124 231.958,-123.218 230.106,-122.399 228.243,-121.561"/>
<polygon fill="black" stroke="black" points="229.528,-118.3 218.981,-117.301 226.603,-124.66 229.528,-118.3"/>
</a>
</g>
<!-- http://latin.omdoc.org/logics/proof_theory?C -->
<g id="node13" class="node"><title>http://latin.omdoc.org/logics/proof_theory?C</title>
<a xlink:href="http://latin.omdoc.org/logics/proof_theory?C" class="graphtheory">
<ellipse fill="gray" stroke="black" cx="269.766" cy="-106" rx="27" ry="18"/>
<text text-anchor="middle" x="269.766" y="-102.3" font-family="Times New Roman,serif" font-size="14.00">C</text>
</a>
</g>
<!-- http://latin.omdoc.org/logics/proof_theory?DLBase&#45;&gt;http://latin.omdoc.org/logics/proof_theory?C -->
<g id="edge13" class="edge"><title>http://latin.omdoc.org/logics/proof_theory?DLBase&#45;&gt;http://latin.omdoc.org/logics/proof_theory?C</title>
<a class="graphinclude">
<path fill="none" stroke="black" d="M384.967,-179.447C373.892,-173.057 360.584,-165.257 348.766,-158 331.322,-147.289 312.013,-134.835 296.851,-124.916"/>
<polygon fill="black" stroke="black" points="298.73,-121.962 288.449,-119.4 294.888,-127.814 298.73,-121.962"/>
</a>
</g>
<!-- http://latin.omdoc.org/logics/model_theory?FOLMOD -->
<g id="node19" class="node"><title>http://latin.omdoc.org/logics/model_theory?FOLMOD</title>
<a xlink:href="http://latin.omdoc.org/logics/model_theory?FOLMOD" class="graphtheory">
<ellipse fill="gray" stroke="black" cx="419.766" cy="-18" rx="49.0941" ry="18"/>
<text text-anchor="middle" x="419.766" y="-14.3" font-family="Times New Roman,serif" font-size="14.00">FOLMOD</text>
</a>
</g>
<!-- http://latin.omdoc.org/logics/proof_theory?FOL&#45;&gt;http://latin.omdoc.org/logics/model_theory?FOLMOD -->
<g id="edge19" class="edge"><title>http://latin.omdoc.org/logics/proof_theory?FOL&#45;&gt;http://latin.omdoc.org/logics/model_theory?FOLMOD</title>
<a xlink:href="http://latin.omdoc.org/logics/soundness?FOL" class="graphview">
<path fill="none" stroke="black" d="M419.766,-87.5966C419.766,-75.7459 419.766,-59.8169 419.766,-46.2917"/>
<polygon fill="black" stroke="black" points="423.266,-46.084 419.766,-36.084 416.266,-46.084 423.266,-46.084"/>
</a>
<a xlink:href="http://latin.omdoc.org/logics/soundness?FOL" class="FOL">
<text text-anchor="middle" x="433.766" y="-58.3" font-family="Times New Roman,serif" font-size="14.00">FOL</text>
</a>
</g>
<!-- http://latin.omdoc.org/logics/proof_theory?FOLExt -->
<g id="node23" class="node"><title>http://latin.omdoc.org/logics/proof_theory?FOLExt</title>
<a xlink:href="http://latin.omdoc.org/logics/proof_theory?FOLExt" class="graphtheory">
<ellipse fill="gray" stroke="black" cx="679.766" cy="-18" rx="39.9464" ry="18"/>
<text text-anchor="middle" x="679.766" y="-14.3" font-family="Times New Roman,serif" font-size="14.00">FOLExt</text>
</a>
</g>
<!-- http://latin.omdoc.org/logics/proof_theory?FOL&#45;&gt;http://latin.omdoc.org/logics/proof_theory?FOLExt -->
<g id="edge23" class="edge"><title>http://latin.omdoc.org/logics/proof_theory?FOL&#45;&gt;http://latin.omdoc.org/logics/proof_theory?FOLExt</title>
<a class="graphinclude">
<path fill="none" stroke="black" d="M435.518,-90.6669C440.446,-86.76 446.087,-82.83 451.766,-80 510.191,-50.8846 584.196,-34.3834 631.764,-26.072"/>
<polygon fill="black" stroke="black" points="632.516,-29.4945 641.791,-24.373 631.347,-22.5929 632.516,-29.4945"/>
</a>
</g>
<!-- http://latin.omdoc.org/logics/proof_theory?FOLEQ -->
<g id="node25" class="node"><title>http://latin.omdoc.org/logics/proof_theory?FOLEQ</title>
<a xlink:href="http://latin.omdoc.org/logics/proof_theory?FOLEQ" class="graphtheory">
<ellipse fill="gray" stroke="black" cx="796.766" cy="-18" rx="39.9464" ry="18"/>
<text text-anchor="middle" x="796.766" y="-14.3" font-family="Times New Roman,serif" font-size="14.00">FOLEQ</text>
</a>
</g>
<!-- http://latin.omdoc.org/logics/proof_theory?FOL&#45;&gt;http://latin.omdoc.org/logics/proof_theory?FOLEQ -->
<g id="edge25" class="edge"><title>http://latin.omdoc.org/logics/proof_theory?FOL&#45;&gt;http://latin.omdoc.org/logics/proof_theory?FOLEQ</title>
<a class="graphinclude">
<path fill="none" stroke="black" d="M435.015,-90.5514C440.013,-86.5441 445.818,-82.5875 451.766,-80 458.91,-76.8919 721.132,-37.5574 728.766,-36 736.646,-34.3922 744.99,-32.4815 753.033,-30.5314"/>
<polygon fill="black" stroke="black" points="754.138,-33.8635 763.002,-28.0601 752.454,-27.0692 754.138,-33.8635"/>
</a>
</g>
<!-- http://latin.omdoc.org/logics/proof_theory?FL0&#45;&gt;http://latin.omdoc.org/logics/proof_theory?DL -->
<g id="edge65" class="edge"><title>http://latin.omdoc.org/logics/proof_theory?FL0&#45;&gt;http://latin.omdoc.org/logics/proof_theory?DL</title>
<a class="graphinclude">
<path fill="none" stroke="black" d="M70.6406,-91.5625C88.4733,-77.3625 116.775,-54.8258 137.107,-38.6354"/>
<polygon fill="black" stroke="black" points="139.367,-41.3104 145.009,-32.3431 135.006,-35.8345 139.367,-41.3104"/>
</a>
</g>
<!-- http://latin.omdoc.org/logics/proof_theory?E&#45;&gt;http://latin.omdoc.org/logics/proof_theory?DL -->
<g id="edge63" class="edge"><title>http://latin.omdoc.org/logics/proof_theory?E&#45;&gt;http://latin.omdoc.org/logics/proof_theory?DL</title>
<a class="graphinclude">
<path fill="none" stroke="black" d="M132.707,-88.4183C137.886,-76.0451 145.06,-58.9069 150.984,-44.7555"/>
<polygon fill="black" stroke="black" points="154.213,-46.1067 154.846,-35.5308 147.756,-43.4037 154.213,-46.1067"/>
</a>
</g>
<!-- http://latin.omdoc.org/logics/proof_theory?U&#45;&gt;http://latin.omdoc.org/logics/proof_theory?DL -->
<g id="edge61" class="edge"><title>http://latin.omdoc.org/logics/proof_theory?U&#45;&gt;http://latin.omdoc.org/logics/proof_theory?DL</title>
<a class="graphinclude">
<path fill="none" stroke="black" d="M190.824,-88.4183C185.645,-76.0451 178.471,-58.9069 172.547,-44.7555"/>
<polygon fill="black" stroke="black" points="175.775,-43.4037 168.685,-35.5308 169.318,-46.1067 175.775,-43.4037"/>
</a>
</g>
<!-- http://latin.omdoc.org/logics/proof_theory?C&#45;&gt;http://latin.omdoc.org/logics/proof_theory?DL -->
<g id="edge59" class="edge"><title>http://latin.omdoc.org/logics/proof_theory?C&#45;&gt;http://latin.omdoc.org/logics/proof_theory?DL</title>
<a class="graphinclude">
<path fill="none" stroke="black" d="M252.891,-91.5625C235.058,-77.3625 206.756,-54.8258 186.424,-38.6354"/>
<polygon fill="black" stroke="black" points="188.525,-35.8345 178.522,-32.3431 184.165,-41.3104 188.525,-35.8345"/>
</a>
</g>
<!-- http://latin.omdoc.org/logics/syntax?DLBase -->
<g id="node15" class="node"><title>http://latin.omdoc.org/logics/syntax?DLBase</title>
<a xlink:href="http://latin.omdoc.org/logics/syntax?DLBase" class="graphtheory">
<ellipse fill="gray" stroke="black" cx="61.7656" cy="-194" rx="39.9464" ry="18"/>
<text text-anchor="middle" x="61.7656" y="-190.3" font-family="Times New Roman,serif" font-size="14.00">DLBase</text>
</a>
</g>
<!-- http://latin.omdoc.org/logics/syntax?DLBase&#45;&gt;http://latin.omdoc.org/logics/proof_theory?DLBase -->
<g id="edge15" class="edge"><title>http://latin.omdoc.org/logics/syntax?DLBase&#45;&gt;http://latin.omdoc.org/logics/proof_theory?DLBase</title>
<a class="graphinclude">
<path fill="none" stroke="black" d="M102.091,-194C187.459,-194 272.827,-194 358.195,-194"/>
<polygon fill="black" stroke="black" points="358.335,-197.5 368.335,-194 358.335,-190.5 358.335,-197.5"/>
</a>
</g>
<!-- http://latin.omdoc.org/logics/syntax?DLBase&#45;&gt;http://latin.omdoc.org/logics/proof_theory?FL0 -->
<g id="edge57" class="edge"><title>http://latin.omdoc.org/logics/syntax?DLBase&#45;&gt;http://latin.omdoc.org/logics/proof_theory?FL0</title>
<a class="graphinclude">
<path fill="none" stroke="black" d="M60.1851,-176.009C59.0856,-164.19 57.5955,-148.171 56.3277,-134.542"/>
<polygon fill="black" stroke="black" points="59.7816,-133.883 55.3703,-124.25 52.8116,-134.531 59.7816,-133.883"/>
</a>
</g>
<!-- http://cds.omdoc.org/urtheories?LF -->
<g id="node17" class="node"><title>http://cds.omdoc.org/urtheories?LF</title>
<a xlink:href="http://cds.omdoc.org/urtheories?LF" class="graphtheory">
<ellipse fill="gray" stroke="black" cx="597.766" cy="-268" rx="27" ry="18"/>
<text text-anchor="middle" x="597.766" y="-264.3" font-family="Times New Roman,serif" font-size="14.00">LF</text>
</a>
</g>
<!-- http://cds.omdoc.org/urtheories?LF&#45;&gt;http://latin.omdoc.org/logics/proof_theory?DLBase -->
<g id="edge17" class="edge"><title>http://cds.omdoc.org/urtheories?LF&#45;&gt;http://latin.omdoc.org/logics/proof_theory?DLBase</title>
<a class="graphmeta">
<path fill="none" stroke="black" d="M573.088,-260.654C543.774,-252.741 493.691,-238.035 452.766,-220 448.675,-218.198 444.473,-216.124 440.365,-213.959"/>
<polygon fill="black" stroke="black" points="442.051,-210.891 431.602,-209.14 438.678,-217.025 442.051,-210.891"/>
</a>
</g>
<!-- http://cds.omdoc.org/urtheories?LF&#45;&gt;http://latin.omdoc.org/logics/proof_theory?FOL -->
<g id="edge31" class="edge"><title>http://cds.omdoc.org/urtheories?LF&#45;&gt;http://latin.omdoc.org/logics/proof_theory?FOL</title>
<a class="graphmeta">
<path fill="none" stroke="black" d="M599.157,-249.958C600.36,-222.334 598.135,-168.235 565.766,-142 525.916,-109.703 500.416,-140.256 451.766,-124 450.878,-123.703 449.986,-123.384 449.092,-123.045"/>
<polygon fill="black" stroke="black" points="450.187,-119.702 439.627,-118.845 447.348,-126.101 450.187,-119.702"/>
</a>
</g>
<!-- http://cds.omdoc.org/urtheories?LF&#45;&gt;http://latin.omdoc.org/logics/proof_theory?DL -->
<g id="edge39" class="edge"><title>http://cds.omdoc.org/urtheories?LF&#45;&gt;http://latin.omdoc.org/logics/proof_theory?DL</title>
<a class="graphmeta">
<path fill="none" stroke="black" d="M570.788,-266.975C460.771,-266.593 50.0781,-262.322 12.7656,-220 -2.4135,-202.783 -7.71358,-116.372 17.7656,-80 42.3294,-44.9346 91.268,-29.9231 125.233,-23.5648"/>
<polygon fill="black" stroke="black" points="125.981,-26.988 135.25,-21.8567 124.804,-20.0876 125.981,-26.988"/>
</a>
</g>
<!-- http://cds.omdoc.org/urtheories?LF&#45;&gt;http://latin.omdoc.org/logics/proof_theory?FL0 -->
<g id="edge43" class="edge"><title>http://cds.omdoc.org/urtheories?LF&#45;&gt;http://latin.omdoc.org/logics/proof_theory?FL0</title>
<a class="graphmeta">
<path fill="none" stroke="black" d="M570.751,-266.252C489.391,-263.647 247.977,-253.24 177.766,-220 133.583,-199.083 94.0356,-157.023 72.036,-130.533"/>
<polygon fill="black" stroke="black" points="74.5504,-128.078 65.5263,-122.526 69.119,-132.493 74.5504,-128.078"/>
</a>
</g>
<!-- http://cds.omdoc.org/urtheories?LF&#45;&gt;http://latin.omdoc.org/logics/proof_theory?E -->
<g id="edge35" class="edge"><title>http://cds.omdoc.org/urtheories?LF&#45;&gt;http://latin.omdoc.org/logics/proof_theory?E</title>
<a class="graphmeta">
<path fill="none" stroke="black" d="M570.746,-265.967C496.996,-262.764 293.88,-251.262 235.766,-220 195.69,-198.442 161.284,-157.243 142.079,-130.996"/>
<polygon fill="black" stroke="black" points="144.825,-128.818 136.163,-122.717 139.13,-132.888 144.825,-128.818"/>
</a>
</g>
<!-- http://cds.omdoc.org/urtheories?LF&#45;&gt;http://latin.omdoc.org/logics/proof_theory?U -->
<g id="edge53" class="edge"><title>http://cds.omdoc.org/urtheories?LF&#45;&gt;http://latin.omdoc.org/logics/proof_theory?U</title>
<a class="graphmeta">
<path fill="none" stroke="black" d="M570.719,-266.089C503.088,-263.329 328.766,-253.106 282.766,-220 250.61,-196.858 225.217,-157.987 210.839,-132.414"/>
<polygon fill="black" stroke="black" points="213.74,-130.425 205.876,-123.325 207.596,-133.779 213.74,-130.425"/>
</a>
</g>
<!-- http://cds.omdoc.org/urtheories?LF&#45;&gt;http://latin.omdoc.org/logics/proof_theory?C -->
<g id="edge55" class="edge"><title>http://cds.omdoc.org/urtheories?LF&#45;&gt;http://latin.omdoc.org/logics/proof_theory?C</title>
<a class="graphmeta">
<path fill="none" stroke="black" d="M570.591,-266.86C509.227,-266.027 362.278,-260.976 323.766,-232 292.473,-208.456 279.067,-163.041 273.503,-133.919"/>
<polygon fill="black" stroke="black" points="276.94,-133.255 271.789,-123.997 270.042,-134.447 276.94,-133.255"/>
</a>
</g>
<!-- http://cds.omdoc.org/urtheories?LF&#45;&gt;http://latin.omdoc.org/logics/syntax?DLBase -->
<g id="edge51" class="edge"><title>http://cds.omdoc.org/urtheories?LF&#45;&gt;http://latin.omdoc.org/logics/syntax?DLBase</title>
<a class="graphmeta">
<path fill="none" stroke="black" d="M570.568,-266.882C481.696,-266.208 200.7,-261.72 115.766,-232 105.629,-228.453 95.6175,-222.483 87.0203,-216.362"/>
<polygon fill="black" stroke="black" points="89.0351,-213.498 78.9423,-210.275 84.8224,-219.088 89.0351,-213.498"/>
</a>
</g>
<!-- http://cds.omdoc.org/urtheories?LF&#45;&gt;http://latin.omdoc.org/logics/model_theory?FOLMOD -->
<g id="edge45" class="edge"><title>http://cds.omdoc.org/urtheories?LF&#45;&gt;http://latin.omdoc.org/logics/model_theory?FOLMOD</title>
<a class="graphmeta">
<path fill="none" stroke="black" d="M570.824,-265.894C513.747,-262.927 383.667,-252.655 356.766,-220 317.202,-171.976 332.491,-137.292 356.766,-80 363.392,-64.3611 376.207,-50.768 388.559,-40.4077"/>
<polygon fill="black" stroke="black" points="390.88,-43.0341 396.539,-34.0773 386.53,-37.55 390.88,-43.0341"/>
</a>
</g>
<!-- http://latin.omdoc.org/logics/proof_theory?BaseSFOL -->
<g id="node21" class="node"><title>http://latin.omdoc.org/logics/proof_theory?BaseSFOL</title>
<a xlink:href="http://latin.omdoc.org/logics/proof_theory?BaseSFOL" class="graphtheory">
<ellipse fill="gray" stroke="black" cx="518.766" cy="-194" rx="51.0191" ry="18"/>
<text text-anchor="middle" x="518.766" y="-190.3" font-family="Times New Roman,serif" font-size="14.00">BaseSFOL</text>
</a>
</g>
<!-- http://cds.omdoc.org/urtheories?LF&#45;&gt;http://latin.omdoc.org/logics/proof_theory?BaseSFOL -->
<g id="edge47" class="edge"><title>http://cds.omdoc.org/urtheories?LF&#45;&gt;http://latin.omdoc.org/logics/proof_theory?BaseSFOL</title>
<a class="graphmeta">
<path fill="none" stroke="black" d="M582.534,-253.118C571.617,-243.169 556.663,-229.54 543.98,-217.981"/>
<polygon fill="black" stroke="black" points="546.182,-215.251 536.433,-211.102 541.467,-220.425 546.182,-215.251"/>
</a>
</g>
<!-- http://cds.omdoc.org/urtheories?LF&#45;&gt;http://latin.omdoc.org/logics/proof_theory?FOLExt -->
<g id="edge41" class="edge"><title>http://cds.omdoc.org/urtheories?LF&#45;&gt;http://latin.omdoc.org/logics/proof_theory?FOLExt</title>
<a class="graphmeta">
<path fill="none" stroke="black" d="M624.65,-264.827C674.694,-260.164 779.043,-247.327 800.766,-220 849.164,-159.116 758.038,-77.2271 708.606,-39.5437"/>
<polygon fill="black" stroke="black" points="710.583,-36.6517 700.48,-33.4601 706.387,-42.2552 710.583,-36.6517"/>
</a>
</g>
<!-- http://cds.omdoc.org/urtheories?LF&#45;&gt;http://latin.omdoc.org/logics/proof_theory?FOLEQ -->
<g id="edge37" class="edge"><title>http://cds.omdoc.org/urtheories?LF&#45;&gt;http://latin.omdoc.org/logics/proof_theory?FOLEQ</title>
<a class="graphmeta">
<path fill="none" stroke="black" d="M624.781,-266.065C679.859,-263.464 801.564,-253.914 820.766,-220 852.451,-164.037 826.575,-85.3778 809.239,-45.064"/>
<polygon fill="black" stroke="black" points="812.324,-43.3872 805.056,-35.6781 805.93,-46.2368 812.324,-43.3872"/>
</a>
</g>
<!-- http://latin.omdoc.org/logics/proof_theory?IFOL -->
<g id="node27" class="node"><title>http://latin.omdoc.org/logics/proof_theory?IFOL</title>
<a xlink:href="http://latin.omdoc.org/logics/proof_theory?IFOL" class="graphtheory">
<ellipse fill="gray" stroke="black" cx="760.766" cy="-194" rx="31.2965" ry="18"/>
<text text-anchor="middle" x="760.766" y="-190.3" font-family="Times New Roman,serif" font-size="14.00">IFOL</text>
</a>
</g>
<!-- http://cds.omdoc.org/urtheories?LF&#45;&gt;http://latin.omdoc.org/logics/proof_theory?IFOL -->
<g id="edge49" class="edge"><title>http://cds.omdoc.org/urtheories?LF&#45;&gt;http://latin.omdoc.org/logics/proof_theory?IFOL</title>
<a class="graphmeta">
<path fill="none" stroke="black" d="M621.69,-259.214C646.686,-250.752 686.779,-236.247 719.766,-220 723.83,-217.998 728.016,-215.72 732.09,-213.372"/>
<polygon fill="black" stroke="black" points="733.948,-216.339 740.736,-208.204 730.357,-210.331 733.948,-216.339"/>
</a>
</g>
<!-- http://latin.omdoc.org/logics/proof_theory?BaseSFOL&#45;&gt;http://latin.omdoc.org/logics/proof_theory?FOL -->
<g id="edge21" class="edge"><title>http://latin.omdoc.org/logics/proof_theory?BaseSFOL&#45;&gt;http://latin.omdoc.org/logics/proof_theory?FOL</title>
<a xlink:href="http://latin.omdoc.org/translations/sfol_fol?BaseSFOLPF" class="graphview">
<path fill="none" stroke="black" d="M502.982,-176.876C492.673,-166.583 478.761,-153.132 465.766,-142 459.55,-136.675 452.625,-131.191 446.074,-126.189"/>
<polygon fill="black" stroke="black" points="448.154,-123.374 438.059,-120.159 443.946,-128.968 448.154,-123.374"/>
</a>
<a xlink:href="http://latin.omdoc.org/translations/sfol_fol?BaseSFOLPF" class="BaseSFOLPF">
<text text-anchor="middle" x="522.266" y="-146.3" font-family="Times New Roman,serif" font-size="14.00">BaseSFOLPF</text>
</a>
</g>
<!-- http://latin.omdoc.org/logics/proof_theory?IFOL&#45;&gt;http://latin.omdoc.org/logics/proof_theory?FOL -->
<g id="edge27" class="edge"><title>http://latin.omdoc.org/logics/proof_theory?IFOL&#45;&gt;http://latin.omdoc.org/logics/proof_theory?FOL</title>
<a class="graphinclude">
<path fill="none" stroke="black" d="M738.531,-181.306C714.595,-169.296 675.059,-151.111 638.766,-142 557.783,-121.67 531.723,-148.047 451.766,-124 450.87,-123.73 449.97,-123.435 449.069,-123.117"/>
<polygon fill="black" stroke="black" points="450.134,-119.766 439.564,-119.045 447.378,-126.2 450.134,-119.766"/>
</a>
</g>
<!-- http://latin.omdoc.org/logics/proof_theory?IFOL&#45;&gt;http://latin.omdoc.org/logics/model_theory?FOLMOD -->
<g id="edge33" class="edge"><title>http://latin.omdoc.org/logics/proof_theory?IFOL&#45;&gt;http://latin.omdoc.org/logics/model_theory?FOLMOD</title>
<a xlink:href="http://latin.omdoc.org/logics/soundness?IFOL" class="graphview">
<path fill="none" stroke="black" d="M740.726,-180.06C723.911,-169.39 699.123,-154.098 676.766,-142 601.361,-101.195 510.251,-59.2601 459.269,-36.4308"/>
<polygon fill="black" stroke="black" points="460.485,-33.1408 449.927,-32.2604 457.632,-39.5328 460.485,-33.1408"/>
</a>
<a xlink:href="http://latin.omdoc.org/logics/soundness?IFOL" class="IFOL">
<text text-anchor="middle" x="658.766" y="-102.3" font-family="Times New Roman,serif" font-size="14.00">IFOL</text>
</a>
</g>
<!-- http://latin.omdoc.org/logics/proof_theory?IFOL/Classical -->
<g id="node29" class="node"><title>http://latin.omdoc.org/logics/proof_theory?IFOL/Classical</title>
<a xlink:href="http://latin.omdoc.org/logics/proof_theory?IFOL/Classical" class="graphtheory">
<ellipse fill="gray" stroke="black" cx="668.766" cy="-194" rx="42.3456" ry="18"/>
<text text-anchor="middle" x="668.766" y="-190.3" font-family="Times New Roman,serif" font-size="14.00">Classical</text>
</a>
</g>
<!-- http://latin.omdoc.org/logics/proof_theory?IFOL/Classical&#45;&gt;http://latin.omdoc.org/logics/proof_theory?FOL -->
<g id="edge29" class="edge"><title>http://latin.omdoc.org/logics/proof_theory?IFOL/Classical&#45;&gt;http://latin.omdoc.org/logics/proof_theory?FOL</title>
<a class="graphinclude">
<path fill="none" stroke="black" d="M655.603,-176.743C645.071,-164.974 629.218,-149.814 611.766,-142 546.453,-112.758 520.125,-145.16 451.766,-124 450.872,-123.723 449.974,-123.421 449.075,-123.098"/>
<polygon fill="black" stroke="black" points="450.148,-119.749 439.58,-118.992 447.37,-126.174 450.148,-119.749"/>
</a>
</g>
</g>
</svg>
