<?xml version="1.0" encoding="UTF-8" standalone="no"?>
<!DOCTYPE svg PUBLIC "-//W3C//DTD SVG 1.1//EN"
 "http://www.w3.org/Graphics/SVG/1.1/DTD/svg11.dtd">
<!-- Generated by graphviz version 2.28.0 (20110507.0327)
 -->
<!-- Title: MMT Pages: 1 -->
<svg width="2139pt" height="456pt"
 viewBox="0.00 0.00 2139.00 456.00" xmlns="http://www.w3.org/2000/svg" xmlns:xlink="http://www.w3.org/1999/xlink">
<g id="graph1" class="graph" transform="scale(1 1) rotate(0) translate(4 452)">
<title>MMT</title>
<polygon fill="white" stroke="white" points="-4,5 -4,-452 2136,-452 2136,5 -4,5"/>
<g id="graph2" class="cluster"><title>cluster_local</title>
<polygon fill="none" stroke="black" points="462,-80 462,-220 588,-220 588,-80 462,-80"/>
</g>
<!-- http://latin.omdoc.org/logics/proof_theory?SForall -->
<g id="node2" class="node"><title>http://latin.omdoc.org/logics/proof_theory?SForall</title>
<a xlink:href="http://latin.omdoc.org/logics/proof_theory?SForall" class="graphtheory">
<ellipse fill="none" stroke="black" cx="507" cy="-194" rx="37.0701" ry="18"/>
<text text-anchor="middle" x="507" y="-190.3" font-family="Times New Roman,serif" font-size="14.00">SForall</text>
</a>
</g>
<!-- http://latin.omdoc.org/logics/model_theory?SFOLMOD -->
<g id="node3" class="node"><title>http://latin.omdoc.org/logics/model_theory?SFOLMOD</title>
<a xlink:href="http://latin.omdoc.org/logics/model_theory?SFOLMOD" class="graphtheory">
<ellipse fill="none" stroke="black" cx="525" cy="-106" rx="54.3924" ry="18"/>
<text text-anchor="middle" x="525" y="-102.3" font-family="Times New Roman,serif" font-size="14.00">SFOLMOD</text>
</a>
</g>
<!-- http://latin.omdoc.org/logics/proof_theory?SForall&#45;&gt;http://latin.omdoc.org/logics/model_theory?SFOLMOD -->
<g id="edge3" class="edge"><title>http://latin.omdoc.org/logics/proof_theory?SForall&#45;&gt;http://latin.omdoc.org/logics/model_theory?SFOLMOD</title>
<a xlink:href="http://latin.omdoc.org/logics/soundness?SForall" class="graphview">
<path fill="none" stroke="black" d="M510.556,-176.009C513.055,-164.073 516.449,-147.853 519.32,-134.138"/>
<polygon fill="black" stroke="black" points="522.767,-134.755 521.39,-124.25 515.915,-133.321 522.767,-134.755"/>
</a>
<a xlink:href="http://latin.omdoc.org/logics/soundness?SForall" class="SForall">
<text text-anchor="middle" x="538.5" y="-146.3" font-family="Times New Roman,serif" font-size="14.00">SForall</text>
</a>
</g>
<!-- http://latin.omdoc.org/foundations/hol?SFOL&#45;Pf -->
<g id="node5" class="node"><title>http://latin.omdoc.org/foundations/hol?SFOL&#45;Pf</title>
<a xlink:href="http://latin.omdoc.org/foundations/hol?SFOL-Pf" class="graphtheory">
<ellipse fill="gray" stroke="black" cx="519" cy="-18" rx="44.271" ry="18"/>
<text text-anchor="middle" x="519" y="-14.3" font-family="Times New Roman,serif" font-size="14.00">SFOL&#45;Pf</text>
</a>
</g>
<!-- http://latin.omdoc.org/logics/proof_theory?SForall&#45;&gt;http://latin.omdoc.org/foundations/hol?SFOL&#45;Pf -->
<g id="edge5" class="edge"><title>http://latin.omdoc.org/logics/proof_theory?SForall&#45;&gt;http://latin.omdoc.org/foundations/hol?SFOL&#45;Pf</title>
<a xlink:href="http://latin.omdoc.org/translations/sfol_hol?SForallPF" class="graphview">
<path fill="none" stroke="black" d="M493.259,-176.899C483.088,-165.821 468.38,-151.455 453,-142 432.88,-129.631 416.581,-143.323 403,-124 391.755,-108.001 392.89,-96.7393 403,-80 417.954,-55.24 446.661,-40.0286 471.775,-30.988"/>
<polygon fill="black" stroke="black" points="473.18,-34.2082 481.545,-27.7061 470.951,-27.5725 473.18,-34.2082"/>
</a>
<a xlink:href="http://latin.omdoc.org/translations/sfol_hol?SForallPF" class="SForallPF">
<text text-anchor="middle" x="432" y="-102.3" font-family="Times New Roman,serif" font-size="14.00">SForallPF</text>
</a>
</g>
<!-- http://latin.omdoc.org/foundations/zfc?TypedZF -->
<g id="node7" class="node"><title>http://latin.omdoc.org/foundations/zfc?TypedZF</title>
<a xlink:href="http://latin.omdoc.org/foundations/zfc?TypedZF" class="graphtheory">
<ellipse fill="gray" stroke="black" cx="1763" cy="-18" rx="45.244" ry="18"/>
<text text-anchor="middle" x="1763" y="-14.3" font-family="Times New Roman,serif" font-size="14.00">TypedZF</text>
</a>
</g>
<!-- http://latin.omdoc.org/logics/proof_theory?SForall&#45;&gt;http://latin.omdoc.org/foundations/zfc?TypedZF -->
<g id="edge7" class="edge"><title>http://latin.omdoc.org/logics/proof_theory?SForall&#45;&gt;http://latin.omdoc.org/foundations/zfc?TypedZF</title>
<a xlink:href="http://latin.omdoc.org/foundations/minimal?SForallPF-ZF" class="graphview">
<path fill="none" stroke="black" d="M532.605,-180.9C537.615,-178.959 542.899,-177.198 548,-176 576.515,-169.303 791.008,-179.407 811,-158 815.854,-152.803 813.421,-148.686 811,-142 807.455,-132.208 799.545,-133.792 796,-124 789.343,-105.612 784.536,-95.8425 796,-80 817.67,-50.0546 838.625,-60.5693 875,-54 1035.99,-24.9265 1539.59,-20.0033 1707.73,-19.1698"/>
<polygon fill="black" stroke="black" points="1707.86,-22.6694 1717.84,-19.1227 1707.82,-15.6694 1707.86,-22.6694"/>
</a>
<a xlink:href="http://latin.omdoc.org/foundations/minimal?SForallPF-ZF" class="SForallPF&#45;ZF">
<text text-anchor="middle" x="835.5" y="-102.3" font-family="Times New Roman,serif" font-size="14.00">SForallPF&#45;ZF</text>
</a>
</g>
<!-- http://latin.omdoc.org/foundations/minimal?SIFOLPF&#45;ZF -->
<g id="node9" class="node"><title>http://latin.omdoc.org/foundations/minimal?SIFOLPF&#45;ZF</title>
<a xlink:href="http://latin.omdoc.org/foundations/minimal?SIFOLPF-ZF" class="graphtheory">
<ellipse fill="gray" stroke="black" cx="1323" cy="-106" rx="61.1419" ry="18"/>
<text text-anchor="middle" x="1323" y="-102.3" font-family="Times New Roman,serif" font-size="14.00">SIFOLPF&#45;ZF</text>
</a>
</g>
<!-- http://latin.omdoc.org/logics/proof_theory?SForall&#45;&gt;http://latin.omdoc.org/foundations/minimal?SIFOLPF&#45;ZF -->
<g id="edge9" class="edge"><title>http://latin.omdoc.org/logics/proof_theory?SForall&#45;&gt;http://latin.omdoc.org/foundations/minimal?SIFOLPF&#45;ZF</title>
<a xlink:href="http://latin.omdoc.org/foundations/minimal?SIFOLPF-ZF?[http://latin.omdoc.org/logics/proof_theory?SForall]" class="graphstructure">
<path fill="none" stroke="black" d="M532.576,-180.77C537.588,-178.841 542.881,-177.118 548,-176 653.803,-152.895 927.724,-172.832 1035,-158 1064.9,-153.866 1071.4,-147.911 1101,-142 1153.71,-131.473 1213.98,-122.14 1258.41,-115.765"/>
<polygon fill="black" stroke="black" points="1259.09,-119.204 1268.5,-114.329 1258.1,-112.274 1259.09,-119.204"/>
</a>
<a xlink:href="http://latin.omdoc.org/foundations/minimal?SIFOLPF-ZF?[http://latin.omdoc.org/logics/proof_theory?SForall]" class="[http://latin.omdoc.org/logics/proof_theory?SForall]">
<text text-anchor="middle" x="1247" y="-146.3" font-family="Times New Roman,serif" font-size="14.00">[http://latin.omdoc.org/logics/proof_theory?SForall]</text>
</a>
</g>
<!-- http://latin.omdoc.org/foundations/minimal?SForallPFExt&#45;ZF -->
<g id="node11" class="node"><title>http://latin.omdoc.org/foundations/minimal?SForallPFExt&#45;ZF</title>
<a xlink:href="http://latin.omdoc.org/foundations/minimal?SForallPFExt-ZF" class="graphtheory">
<ellipse fill="gray" stroke="black" cx="218" cy="-106" rx="73.1654" ry="18"/>
<text text-anchor="middle" x="218" y="-102.3" font-family="Times New Roman,serif" font-size="14.00">SForallPFExt&#45;ZF</text>
</a>
</g>
<!-- http://latin.omdoc.org/logics/proof_theory?SForall&#45;&gt;http://latin.omdoc.org/foundations/minimal?SForallPFExt&#45;ZF -->
<g id="edge11" class="edge"><title>http://latin.omdoc.org/logics/proof_theory?SForall&#45;&gt;http://latin.omdoc.org/foundations/minimal?SForallPFExt&#45;ZF</title>
<a xlink:href="http://latin.omdoc.org/foundations/minimal?SForallPFExt-ZF?[http://latin.omdoc.org/logics/proof_theory?SForall]" class="graphstructure">
<path fill="none" stroke="black" d="M481.404,-180.861C476.393,-178.924 471.107,-177.174 466,-176 432.915,-168.393 184.287,-182.702 161,-158 150.797,-147.177 160.436,-136.061 174.506,-126.981"/>
<polygon fill="black" stroke="black" points="176.333,-129.967 183.186,-121.887 172.79,-123.929 176.333,-129.967"/>
</a>
<a xlink:href="http://latin.omdoc.org/foundations/minimal?SForallPFExt-ZF?[http://latin.omdoc.org/logics/proof_theory?SForall]" class="[http://latin.omdoc.org/logics/proof_theory?SForall]">
<text text-anchor="middle" x="307" y="-146.3" font-family="Times New Roman,serif" font-size="14.00">[http://latin.omdoc.org/logics/proof_theory?SForall]</text>
</a>
</g>
<!-- http://latin.omdoc.org/logics/proof_theory?SIFOL -->
<g id="node13" class="node"><title>http://latin.omdoc.org/logics/proof_theory?SIFOL</title>
<a xlink:href="http://latin.omdoc.org/logics/proof_theory?SIFOL" class="graphtheory">
<ellipse fill="gray" stroke="black" cx="1686" cy="-106" rx="36.096" ry="18"/>
<text text-anchor="middle" x="1686" y="-102.3" font-family="Times New Roman,serif" font-size="14.00">SIFOL</text>
</a>
</g>
<!-- http://latin.omdoc.org/logics/proof_theory?SForall&#45;&gt;http://latin.omdoc.org/logics/proof_theory?SIFOL -->
<g id="edge13" class="edge"><title>http://latin.omdoc.org/logics/proof_theory?SForall&#45;&gt;http://latin.omdoc.org/logics/proof_theory?SIFOL</title>
<a class="graphinclude">
<path fill="none" stroke="black" d="M532.558,-180.684C537.572,-178.764 542.87,-177.065 548,-176 608.17,-163.51 1600.47,-188.18 1654,-158 1663.7,-152.533 1670.86,-142.788 1675.93,-133.271"/>
<polygon fill="black" stroke="black" points="1679.2,-134.534 1680.31,-123.997 1672.87,-131.545 1679.2,-134.534"/>
</a>
</g>
<!-- http://latin.omdoc.org/logics/proof_theory?SForallExt -->
<g id="node15" class="node"><title>http://latin.omdoc.org/logics/proof_theory?SForallExt</title>
<a xlink:href="http://latin.omdoc.org/logics/proof_theory?SForallExt" class="graphtheory">
<ellipse fill="gray" stroke="black" cx="77" cy="-106" rx="49.0941" ry="18"/>
<text text-anchor="middle" x="77" y="-102.3" font-family="Times New Roman,serif" font-size="14.00">SForallExt</text>
</a>
</g>
<!-- http://latin.omdoc.org/logics/proof_theory?SForall&#45;&gt;http://latin.omdoc.org/logics/proof_theory?SForallExt -->
<g id="edge15" class="edge"><title>http://latin.omdoc.org/logics/proof_theory?SForall&#45;&gt;http://latin.omdoc.org/logics/proof_theory?SForallExt</title>
<a class="graphinclude">
<path fill="none" stroke="black" d="M481.405,-180.855C476.394,-178.918 471.107,-177.17 466,-176 330.179,-144.878 285.08,-202.392 153,-158 134.664,-151.837 116.581,-140.003 102.657,-129.285"/>
<polygon fill="black" stroke="black" points="104.557,-126.324 94.5594,-122.817 100.188,-131.793 104.557,-126.324"/>
</a>
</g>
<!-- http://latin.omdoc.org/translations/sfol_hol?SIFOLPF -->
<g id="node17" class="node"><title>http://latin.omdoc.org/translations/sfol_hol?SIFOLPF</title>
<a xlink:href="http://latin.omdoc.org/translations/sfol_hol?SIFOLPF" class="graphtheory">
<ellipse fill="gray" stroke="black" cx="1100" cy="-106" rx="47.169" ry="18"/>
<text text-anchor="middle" x="1100" y="-102.3" font-family="Times New Roman,serif" font-size="14.00">SIFOLPF</text>
</a>
</g>
<!-- http://latin.omdoc.org/logics/proof_theory?SForall&#45;&gt;http://latin.omdoc.org/translations/sfol_hol?SIFOLPF -->
<g id="edge17" class="edge"><title>http://latin.omdoc.org/logics/proof_theory?SForall&#45;&gt;http://latin.omdoc.org/translations/sfol_hol?SIFOLPF</title>
<a class="graphinclude">
<path fill="none" stroke="black" d="M532.578,-180.779C537.59,-178.85 542.882,-177.124 548,-176 647.704,-154.109 908.874,-186.129 1007,-158 1020.78,-154.05 1022.47,-148.954 1035,-142 1044.6,-136.675 1055.05,-130.997 1064.7,-125.797"/>
<polygon fill="black" stroke="black" points="1066.51,-128.798 1073.67,-120.985 1063.2,-122.631 1066.51,-128.798"/>
</a>
</g>
<!-- http://latin.omdoc.org/logics/proof_theory?SIFOL&#45;&gt;http://latin.omdoc.org/foundations/hol?SFOL&#45;Pf -->
<g id="edge115" class="edge"><title>http://latin.omdoc.org/logics/proof_theory?SIFOL&#45;&gt;http://latin.omdoc.org/foundations/hol?SFOL&#45;Pf</title>
<a xlink:href="http://latin.omdoc.org/translations/sfol_hol?SIFOLPF" class="graphview">
<path fill="none" stroke="black" d="M1650.38,-101.783C1595.25,-96.8421 1485.89,-87.2042 1393,-80 1082.62,-55.9287 709.889,-31.357 572.891,-22.4708"/>
<polygon fill="black" stroke="black" points="572.875,-18.9624 562.669,-21.8085 572.422,-25.9478 572.875,-18.9624"/>
</a>
<a xlink:href="http://latin.omdoc.org/translations/sfol_hol?SIFOLPF" class="SIFOLPF">
<text text-anchor="middle" x="1279.5" y="-58.3" font-family="Times New Roman,serif" font-size="14.00">SIFOLPF</text>
</a>
</g>
<!-- http://latin.omdoc.org/logics/proof_theory?SIFOL&#45;&gt;http://latin.omdoc.org/foundations/zfc?TypedZF -->
<g id="edge113" class="edge"><title>http://latin.omdoc.org/logics/proof_theory?SIFOL&#45;&gt;http://latin.omdoc.org/foundations/zfc?TypedZF</title>
<a xlink:href="http://latin.omdoc.org/foundations/minimal?SIFOLPF-ZF" class="graphview">
<path fill="none" stroke="black" d="M1674.51,-88.6992C1668.55,-78.0812 1663.88,-64.3335 1671,-54 1680.15,-40.7279 1695.05,-32.4846 1710.22,-27.3661"/>
<polygon fill="black" stroke="black" points="1711.57,-30.6178 1720.17,-24.4323 1709.59,-23.9036 1711.57,-30.6178"/>
</a>
<a xlink:href="http://latin.omdoc.org/foundations/minimal?SIFOLPF-ZF" class="SIFOLPF&#45;ZF">
<text text-anchor="middle" x="1710" y="-58.3" font-family="Times New Roman,serif" font-size="14.00">SIFOLPF&#45;ZF</text>
</a>
</g>
<!-- http://latin.omdoc.org/logics/proof_theory?SForallExt&#45;&gt;http://latin.omdoc.org/foundations/zfc?TypedZF -->
<g id="edge111" class="edge"><title>http://latin.omdoc.org/logics/proof_theory?SForallExt&#45;&gt;http://latin.omdoc.org/foundations/zfc?TypedZF</title>
<a xlink:href="http://latin.omdoc.org/foundations/minimal?SForallPFExt-ZF" class="graphview">
<path fill="none" stroke="black" d="M104.535,-90.9573C114.234,-86.6571 125.371,-82.4251 136,-80 371.556,-26.2556 437.584,-63.6766 679,-54 1073.43,-38.1901 1548.82,-24.8019 1708.05,-20.4719"/>
<polygon fill="black" stroke="black" points="1708.17,-23.9699 1718.07,-20.1999 1707.98,-16.9725 1708.17,-23.9699"/>
</a>
<a xlink:href="http://latin.omdoc.org/foundations/minimal?SForallPFExt-ZF" class="SForallPFExt&#45;ZF">
<text text-anchor="middle" x="727.5" y="-58.3" font-family="Times New Roman,serif" font-size="14.00">SForallPFExt&#45;ZF</text>
</a>
</g>
<!-- http://latin.omdoc.org/logics/syntax?SForall -->
<g id="node19" class="node"><title>http://latin.omdoc.org/logics/syntax?SForall</title>
<a xlink:href="http://latin.omdoc.org/logics/syntax?SForall" class="graphtheory">
<ellipse fill="gray" stroke="black" cx="580" cy="-282" rx="37.0701" ry="18"/>
<text text-anchor="middle" x="580" y="-278.3" font-family="Times New Roman,serif" font-size="14.00">SForall</text>
</a>
</g>
<!-- http://latin.omdoc.org/logics/syntax?SForall&#45;&gt;http://latin.omdoc.org/logics/proof_theory?SForall -->
<g id="edge19" class="edge"><title>http://latin.omdoc.org/logics/syntax?SForall&#45;&gt;http://latin.omdoc.org/logics/proof_theory?SForall</title>
<a class="graphinclude">
<path fill="none" stroke="black" d="M566.269,-264.824C555.188,-251.769 539.444,-233.221 526.967,-218.523"/>
<polygon fill="black" stroke="black" points="529.562,-216.172 520.423,-210.813 524.226,-220.702 529.562,-216.172"/>
</a>
</g>
<!-- http://latin.omdoc.org/logics/syntax?SForall&#45;&gt;http://latin.omdoc.org/logics/model_theory?SFOLMOD -->
<g id="edge35" class="edge"><title>http://latin.omdoc.org/logics/syntax?SForall&#45;&gt;http://latin.omdoc.org/logics/model_theory?SFOLMOD</title>
<a xlink:href="http://latin.omdoc.org/logics/model_theory?SForall" class="graphview">
<path fill="none" stroke="black" d="M581.568,-263.644C583.27,-236.195 583.422,-181.8 563,-142 560.763,-137.641 557.751,-133.549 554.396,-129.808"/>
<polygon fill="black" stroke="black" points="556.735,-127.198 547.166,-122.649 551.81,-132.172 556.735,-127.198"/>
</a>
<a xlink:href="http://latin.omdoc.org/logics/model_theory?SForall" class="SForall">
<text text-anchor="middle" x="602.5" y="-190.3" font-family="Times New Roman,serif" font-size="14.00">SForall</text>
</a>
</g>
<!-- http://latin.omdoc.org/logics/syntax?SForall&#45;&gt;http://latin.omdoc.org/foundations/zfc?TypedZF -->
<g id="edge107" class="edge"><title>http://latin.omdoc.org/logics/syntax?SForall&#45;&gt;http://latin.omdoc.org/foundations/zfc?TypedZF</title>
<a xlink:href="http://latin.omdoc.org/foundations/minimal?SForall-ZF" class="graphview">
<path fill="none" stroke="black" d="M615.029,-276.071C635.535,-271.489 660.549,-262.716 677,-246 700.069,-222.559 675.66,-196.965 701,-176 744.585,-139.94 774.448,-178.935 827,-158 851.287,-148.325 854.571,-140.313 875,-124 911.399,-94.9344 909.87,-71.5923 953,-54 1022.37,-25.705 1536.58,-20.2656 1707.75,-19.2361"/>
<polygon fill="black" stroke="black" points="1707.83,-22.7358 1717.81,-19.1784 1707.79,-15.736 1707.83,-22.7358"/>
</a>
<a xlink:href="http://latin.omdoc.org/foundations/minimal?SForall-ZF" class="SForall&#45;ZF">
<text text-anchor="middle" x="886" y="-146.3" font-family="Times New Roman,serif" font-size="14.00">SForall&#45;ZF</text>
</a>
</g>
<!-- http://latin.omdoc.org/logics/syntax?SFOL -->
<g id="node30" class="node"><title>http://latin.omdoc.org/logics/syntax?SFOL</title>
<a xlink:href="http://latin.omdoc.org/logics/syntax?SFOL" class="graphtheory">
<ellipse fill="gray" stroke="black" cx="1010" cy="-194" rx="33.1991" ry="18"/>
<text text-anchor="middle" x="1010" y="-190.3" font-family="Times New Roman,serif" font-size="14.00">SFOL</text>
</a>
</g>
<!-- http://latin.omdoc.org/logics/syntax?SForall&#45;&gt;http://latin.omdoc.org/logics/syntax?SFOL -->
<g id="edge109" class="edge"><title>http://latin.omdoc.org/logics/syntax?SForall&#45;&gt;http://latin.omdoc.org/logics/syntax?SFOL</title>
<a class="graphinclude">
<path fill="none" stroke="black" d="M614.266,-275.129C673.644,-264.83 799.434,-242.461 905,-220 926.695,-215.384 950.775,-209.692 970.397,-204.906"/>
<polygon fill="black" stroke="black" points="971.338,-208.279 980.215,-202.496 969.669,-201.481 971.338,-208.279"/>
</a>
</g>
<!-- http://latin.omdoc.org/logics/proof_theory?BaseSFOL -->
<g id="node21" class="node"><title>http://latin.omdoc.org/logics/proof_theory?BaseSFOL</title>
<a xlink:href="http://latin.omdoc.org/logics/proof_theory?BaseSFOL" class="graphtheory">
<ellipse fill="gray" stroke="black" cx="845" cy="-194" rx="51.0191" ry="18"/>
<text text-anchor="middle" x="845" y="-190.3" font-family="Times New Roman,serif" font-size="14.00">BaseSFOL</text>
</a>
</g>
<!-- http://latin.omdoc.org/logics/proof_theory?BaseSFOL&#45;&gt;http://latin.omdoc.org/logics/proof_theory?SForall -->
<g id="edge21" class="edge"><title>http://latin.omdoc.org/logics/proof_theory?BaseSFOL&#45;&gt;http://latin.omdoc.org/logics/proof_theory?SForall</title>
<a class="graphinclude">
<path fill="none" stroke="black" d="M825.851,-210.888C811.761,-222.131 791.557,-235.917 771,-242 725.399,-255.494 601.119,-259.75 557,-242 545.085,-237.206 534.413,-228.066 526.02,-219.037"/>
<polygon fill="black" stroke="black" points="528.454,-216.502 519.257,-211.243 523.167,-221.089 528.454,-216.502"/>
</a>
</g>
<!-- http://latin.omdoc.org/logics/proof_theory?BaseSFOL&#45;&gt;http://latin.omdoc.org/logics/model_theory?SFOLMOD -->
<g id="edge27" class="edge"><title>http://latin.omdoc.org/logics/proof_theory?BaseSFOL&#45;&gt;http://latin.omdoc.org/logics/model_theory?SFOLMOD</title>
<a xlink:href="http://latin.omdoc.org/logics/soundness?BaseSFOL" class="graphview">
<path fill="none" stroke="black" d="M806.313,-182.192C797.691,-179.976 788.565,-177.78 780,-176 728.919,-165.386 712.434,-177.394 664,-158 652.44,-153.371 652.21,-147.421 641,-142 637.721,-140.414 604.033,-130.299 573.801,-121.348"/>
<polygon fill="black" stroke="black" points="574.732,-117.973 564.15,-118.495 572.747,-124.686 574.732,-117.973"/>
</a>
<a xlink:href="http://latin.omdoc.org/logics/soundness?BaseSFOL" class="BaseSFOL">
<text text-anchor="middle" x="695.5" y="-146.3" font-family="Times New Roman,serif" font-size="14.00">BaseSFOL</text>
</a>
</g>
<!-- http://latin.omdoc.org/logics/proof_theory?BaseSFOL&#45;&gt;http://latin.omdoc.org/foundations/hol?SFOL&#45;Pf -->
<g id="edge99" class="edge"><title>http://latin.omdoc.org/logics/proof_theory?BaseSFOL&#45;&gt;http://latin.omdoc.org/foundations/hol?SFOL&#45;Pf</title>
<a xlink:href="http://latin.omdoc.org/translations/sfol_hol?BaseSFOLPF" class="graphview">
<path fill="none" stroke="black" d="M830.663,-176.552C819.636,-165.005 803.384,-150.212 786,-142 743.188,-121.778 725.102,-141.229 681,-124 629.065,-103.711 576.218,-65.4507 545.575,-41.1437"/>
<polygon fill="black" stroke="black" points="547.527,-38.2222 537.541,-34.6844 543.141,-43.6778 547.527,-38.2222"/>
</a>
<a xlink:href="http://latin.omdoc.org/translations/sfol_hol?BaseSFOLPF" class="BaseSFOLPF">
<text text-anchor="middle" x="720.5" y="-102.3" font-family="Times New Roman,serif" font-size="14.00">BaseSFOLPF</text>
</a>
</g>
<!-- http://latin.omdoc.org/logics/proof_theory?BaseSFOL&#45;&gt;http://latin.omdoc.org/foundations/zfc?TypedZF -->
<g id="edge101" class="edge"><title>http://latin.omdoc.org/logics/proof_theory?BaseSFOL&#45;&gt;http://latin.omdoc.org/foundations/zfc?TypedZF</title>
<a xlink:href="http://latin.omdoc.org/foundations/minimal?BaseSFOLPF-ZF" class="graphview">
<path fill="none" stroke="black" d="M884.291,-182.25C897.549,-176.887 911.403,-169.098 921,-158 944.641,-130.661 917.78,-104.876 944,-80 980.13,-45.7216 1003.7,-61.0339 1053,-54 1294.88,-19.4921 1587.28,-17.4252 1707.4,-18.2609"/>
<polygon fill="black" stroke="black" points="1707.43,-21.7612 1717.45,-18.3406 1707.48,-14.7614 1707.43,-21.7612"/>
</a>
<a xlink:href="http://latin.omdoc.org/foundations/minimal?BaseSFOLPF-ZF" class="BaseSFOLPF&#45;ZF">
<text text-anchor="middle" x="994" y="-102.3" font-family="Times New Roman,serif" font-size="14.00">BaseSFOLPF&#45;ZF</text>
</a>
</g>
<!-- http://latin.omdoc.org/logics/proof_theory?BaseSFOL&#45;&gt;http://latin.omdoc.org/logics/proof_theory?SIFOL -->
<g id="edge103" class="edge"><title>http://latin.omdoc.org/logics/proof_theory?BaseSFOL&#45;&gt;http://latin.omdoc.org/logics/proof_theory?SIFOL</title>
<a class="graphinclude">
<path fill="none" stroke="black" d="M890.343,-185.432C913.255,-181.926 941.53,-178.084 967,-176 987.106,-174.355 1678.91,-172.44 1693,-158 1699.26,-151.586 1699.54,-142.372 1697.57,-133.537"/>
<polygon fill="black" stroke="black" points="1700.88,-132.408 1694.58,-123.891 1694.19,-134.478 1700.88,-132.408"/>
</a>
</g>
<!-- http://latin.omdoc.org/logics/proof_theory?BaseSFOL&#45;&gt;http://latin.omdoc.org/translations/sfol_hol?SIFOLPF -->
<g id="edge105" class="edge"><title>http://latin.omdoc.org/logics/proof_theory?BaseSFOL&#45;&gt;http://latin.omdoc.org/translations/sfol_hol?SIFOLPF</title>
<a class="graphinclude">
<path fill="none" stroke="black" d="M892.216,-186.664C939.13,-179.924 1007.51,-168.769 1032,-158 1047.7,-151.099 1063.15,-139.956 1075.35,-129.844"/>
<polygon fill="black" stroke="black" points="1077.93,-132.242 1083.24,-123.073 1073.37,-126.93 1077.93,-132.242"/>
</a>
</g>
<!-- http://cds.omdoc.org/urtheories?LF -->
<g id="node23" class="node"><title>http://cds.omdoc.org/urtheories?LF</title>
<a xlink:href="http://cds.omdoc.org/urtheories?LF" class="graphtheory">
<ellipse fill="gray" stroke="black" cx="442" cy="-430" rx="27" ry="18"/>
<text text-anchor="middle" x="442" y="-426.3" font-family="Times New Roman,serif" font-size="14.00">LF</text>
</a>
</g>
<!-- http://cds.omdoc.org/urtheories?LF&#45;&gt;http://latin.omdoc.org/logics/proof_theory?SForall -->
<g id="edge23" class="edge"><title>http://cds.omdoc.org/urtheories?LF&#45;&gt;http://latin.omdoc.org/logics/proof_theory?SForall</title>
<a class="graphmeta">
<path fill="none" stroke="black" d="M449.14,-412.427C451.49,-406.655 454.009,-400.097 456,-394 475.788,-333.416 492.801,-260.447 501.271,-221.904"/>
<polygon fill="black" stroke="black" points="504.723,-222.5 503.428,-211.984 497.883,-221.012 504.723,-222.5"/>
</a>
</g>
<!-- http://cds.omdoc.org/urtheories?LF&#45;&gt;http://latin.omdoc.org/logics/model_theory?SFOLMOD -->
<g id="edge41" class="edge"><title>http://cds.omdoc.org/urtheories?LF&#45;&gt;http://latin.omdoc.org/logics/model_theory?SFOLMOD</title>
<a class="graphmeta">
<path fill="none" stroke="black" d="M442,-411.834C442,-397.247 442,-375.75 442,-357 442,-357 442,-357 442,-193 442,-164.607 465.714,-141.996 487.79,-127.098"/>
<polygon fill="black" stroke="black" points="489.891,-129.909 496.436,-121.578 486.124,-124.009 489.891,-129.909"/>
</a>
</g>
<!-- http://cds.omdoc.org/urtheories?LF&#45;&gt;http://latin.omdoc.org/foundations/hol?SFOL&#45;Pf -->
<g id="edge95" class="edge"><title>http://cds.omdoc.org/urtheories?LF&#45;&gt;http://latin.omdoc.org/foundations/hol?SFOL&#45;Pf</title>
<a class="graphmeta">
<path fill="none" stroke="black" d="M415.016,-427.473C319.052,-421.688 0,-399.275 0,-357 0,-357 0,-357 0,-105 0,-91.0442 6.89693,-86.9485 19,-80 93.9225,-36.9865 351.035,-24.0324 464.477,-20.3601"/>
<polygon fill="black" stroke="black" points="464.786,-23.8523 474.672,-20.0427 464.568,-16.8557 464.786,-23.8523"/>
</a>
</g>
<!-- http://cds.omdoc.org/urtheories?LF&#45;&gt;http://latin.omdoc.org/foundations/zfc?TypedZF -->
<g id="edge81" class="edge"><title>http://cds.omdoc.org/urtheories?LF&#45;&gt;http://latin.omdoc.org/foundations/zfc?TypedZF</title>
<a class="graphmeta">
<path fill="none" stroke="black" d="M469.051,-428.772C662.818,-427.091 1836.48,-416.048 1993,-394 2055.88,-385.143 2131,-420.5 2131,-357 2131,-357 2131,-357 2131,-105 2131,-41.5682 1921.06,-24.8953 1818.32,-20.5338"/>
<polygon fill="black" stroke="black" points="1818.26,-17.0287 1808.12,-20.1266 1817.98,-24.0231 1818.26,-17.0287"/>
</a>
</g>
<!-- http://cds.omdoc.org/urtheories?LF&#45;&gt;http://latin.omdoc.org/logics/proof_theory?SIFOL -->
<g id="edge79" class="edge"><title>http://cds.omdoc.org/urtheories?LF&#45;&gt;http://latin.omdoc.org/logics/proof_theory?SIFOL</title>
<a class="graphmeta">
<path fill="none" stroke="black" d="M469.109,-429.122C668.154,-429.849 1896,-431.321 1896,-357 1896,-357 1896,-357 1896,-237 1896,-209.184 1902.3,-195.021 1882,-176 1845.53,-141.824 1817.94,-175.165 1771,-158 1750.54,-150.519 1729.54,-137.97 1713.53,-127.192"/>
<polygon fill="black" stroke="black" points="1715.4,-124.231 1705.18,-121.43 1711.42,-129.992 1715.4,-124.231"/>
</a>
</g>
<!-- http://cds.omdoc.org/urtheories?LF&#45;&gt;http://latin.omdoc.org/logics/proof_theory?SForallExt -->
<g id="edge89" class="edge"><title>http://cds.omdoc.org/urtheories?LF&#45;&gt;http://latin.omdoc.org/logics/proof_theory?SForallExt</title>
<a class="graphmeta">
<path fill="none" stroke="black" d="M415.194,-426.899C327.082,-419.638 52,-394.008 52,-357 52,-357 52,-357 52,-193 52,-172.527 58.6137,-150.363 65.0377,-133.664"/>
<polygon fill="black" stroke="black" points="68.4279,-134.618 68.9522,-124.036 61.9434,-131.981 68.4279,-134.618"/>
</a>
</g>
<!-- http://cds.omdoc.org/urtheories?LF&#45;&gt;http://latin.omdoc.org/logics/syntax?SForall -->
<g id="edge83" class="edge"><title>http://cds.omdoc.org/urtheories?LF&#45;&gt;http://latin.omdoc.org/logics/syntax?SForall</title>
<a class="graphmeta">
<path fill="none" stroke="black" d="M464.878,-420.323C478.481,-414.371 495.47,-405.475 508,-394 534.619,-369.622 555.688,-333.349 567.99,-308.968"/>
<polygon fill="black" stroke="black" points="571.155,-310.463 572.418,-299.944 564.871,-307.38 571.155,-310.463"/>
</a>
</g>
<!-- http://cds.omdoc.org/urtheories?LF&#45;&gt;http://latin.omdoc.org/logics/proof_theory?BaseSFOL -->
<g id="edge85" class="edge"><title>http://cds.omdoc.org/urtheories?LF&#45;&gt;http://latin.omdoc.org/logics/proof_theory?BaseSFOL</title>
<a class="graphmeta">
<path fill="none" stroke="black" d="M464.816,-420.316C481.309,-413.758 503.946,-404.173 523,-394 638.915,-332.11 654.375,-294.246 769,-230 780.088,-223.785 792.475,-217.73 803.977,-212.451"/>
<polygon fill="black" stroke="black" points="805.704,-215.512 813.384,-208.213 802.829,-209.13 805.704,-215.512"/>
</a>
</g>
<!-- http://latin.omdoc.org/logics/syntax?SExists -->
<g id="node25" class="node"><title>http://latin.omdoc.org/logics/syntax?SExists</title>
<a xlink:href="http://latin.omdoc.org/logics/syntax?SExists" class="graphtheory">
<ellipse fill="gray" stroke="black" cx="807" cy="-282" rx="38.0212" ry="18"/>
<text text-anchor="middle" x="807" y="-278.3" font-family="Times New Roman,serif" font-size="14.00">SExists</text>
</a>
</g>
<!-- http://cds.omdoc.org/urtheories?LF&#45;&gt;http://latin.omdoc.org/logics/syntax?SExists -->
<g id="edge77" class="edge"><title>http://cds.omdoc.org/urtheories?LF&#45;&gt;http://latin.omdoc.org/logics/syntax?SExists</title>
<a class="graphmeta">
<path fill="none" stroke="black" d="M469.116,-428.855C511.685,-427.724 596.042,-421.791 661,-394 664.372,-392.557 738.561,-335.66 779.852,-303.903"/>
<polygon fill="black" stroke="black" points="782.093,-306.596 787.884,-297.724 777.824,-301.048 782.093,-306.596"/>
</a>
</g>
<!-- http://latin.omdoc.org/logics/syntax?BaseSFOL -->
<g id="node28" class="node"><title>http://latin.omdoc.org/logics/syntax?BaseSFOL</title>
<a xlink:href="http://latin.omdoc.org/logics/syntax?BaseSFOL" class="graphtheory">
<ellipse fill="gray" stroke="black" cx="796" cy="-356" rx="51.0191" ry="18"/>
<text text-anchor="middle" x="796" y="-352.3" font-family="Times New Roman,serif" font-size="14.00">BaseSFOL</text>
</a>
</g>
<!-- http://cds.omdoc.org/urtheories?LF&#45;&gt;http://latin.omdoc.org/logics/syntax?BaseSFOL -->
<g id="edge93" class="edge"><title>http://cds.omdoc.org/urtheories?LF&#45;&gt;http://latin.omdoc.org/logics/syntax?BaseSFOL</title>
<a class="graphmeta">
<path fill="none" stroke="black" d="M469.134,-429.031C520.793,-428.365 636.297,-423.38 728,-394 740.399,-390.028 753.152,-383.763 764.215,-377.51"/>
<polygon fill="black" stroke="black" points="766.216,-380.394 773.066,-372.311 762.67,-374.359 766.216,-380.394"/>
</a>
</g>
<!-- http://cds.omdoc.org/urtheories?LF&#45;&gt;http://latin.omdoc.org/logics/syntax?SFOL -->
<g id="edge87" class="edge"><title>http://cds.omdoc.org/urtheories?LF&#45;&gt;http://latin.omdoc.org/logics/syntax?SFOL</title>
<a class="graphmeta">
<path fill="none" stroke="black" d="M468.856,-428.048C549.702,-424.782 789.324,-412.045 856,-374 921.762,-336.476 972.792,-259.926 996.118,-220.193"/>
<polygon fill="black" stroke="black" points="999.232,-221.799 1001.19,-211.386 993.165,-218.307 999.232,-221.799"/>
</a>
</g>
<!-- http://latin.omdoc.org/logics/syntax?SFOLEQ -->
<g id="node32" class="node"><title>http://latin.omdoc.org/logics/syntax?SFOLEQ</title>
<a xlink:href="http://latin.omdoc.org/logics/syntax?SFOLEQ" class="graphtheory">
<ellipse fill="gray" stroke="black" cx="2057" cy="-106" rx="46.2191" ry="18"/>
<text text-anchor="middle" x="2057" y="-102.3" font-family="Times New Roman,serif" font-size="14.00">SFOLEQ</text>
</a>
</g>
<!-- http://cds.omdoc.org/urtheories?LF&#45;&gt;http://latin.omdoc.org/logics/syntax?SFOLEQ -->
<g id="edge97" class="edge"><title>http://cds.omdoc.org/urtheories?LF&#45;&gt;http://latin.omdoc.org/logics/syntax?SFOLEQ</title>
<a class="graphmeta">
<path fill="none" stroke="black" d="M469.047,-428.765C657.794,-427.069 1774.92,-416.146 1924,-394 1984.69,-384.984 2057,-418.356 2057,-357 2057,-357 2057,-357 2057,-193 2057,-173.404 2057,-151.296 2057,-134.402"/>
<polygon fill="black" stroke="black" points="2060.5,-134.133 2057,-124.133 2053.5,-134.133 2060.5,-134.133"/>
</a>
</g>
<!-- http://latin.omdoc.org/logics/syntax?SEqual -->
<g id="node35" class="node"><title>http://latin.omdoc.org/logics/syntax?SEqual</title>
<a xlink:href="http://latin.omdoc.org/logics/syntax?SEqual" class="graphtheory">
<ellipse fill="gray" stroke="black" cx="1960" cy="-194" rx="36.096" ry="18"/>
<text text-anchor="middle" x="1960" y="-190.3" font-family="Times New Roman,serif" font-size="14.00">SEqual</text>
</a>
</g>
<!-- http://cds.omdoc.org/urtheories?LF&#45;&gt;http://latin.omdoc.org/logics/syntax?SEqual -->
<g id="edge91" class="edge"><title>http://cds.omdoc.org/urtheories?LF&#45;&gt;http://latin.omdoc.org/logics/syntax?SEqual</title>
<a class="graphmeta">
<path fill="none" stroke="black" d="M469.108,-428.806C666.876,-427.339 1880.73,-417.388 1910,-394 1961.8,-352.602 1964.71,-266.187 1962.43,-222.114"/>
<polygon fill="black" stroke="black" points="1965.93,-221.879 1961.79,-212.124 1958.94,-222.329 1965.93,-221.879"/>
</a>
</g>
<!-- http://latin.omdoc.org/foundations/minimal?Universes -->
<g id="node37" class="node"><title>http://latin.omdoc.org/foundations/minimal?Universes</title>
<a xlink:href="http://latin.omdoc.org/foundations/minimal?Universes" class="graphtheory">
<ellipse fill="gray" stroke="black" cx="368" cy="-356" rx="46.2191" ry="18"/>
<text text-anchor="middle" x="368" y="-352.3" font-family="Times New Roman,serif" font-size="14.00">Universes</text>
</a>
</g>
<!-- http://cds.omdoc.org/urtheories?LF&#45;&gt;http://latin.omdoc.org/foundations/minimal?Universes -->
<g id="edge75" class="edge"><title>http://cds.omdoc.org/urtheories?LF&#45;&gt;http://latin.omdoc.org/foundations/minimal?Universes</title>
<a class="graphmeta">
<path fill="none" stroke="black" d="M427.38,-414.775C417.222,-404.891 403.458,-391.5 391.74,-380.098"/>
<polygon fill="black" stroke="black" points="394.001,-377.415 384.393,-372.95 389.119,-382.432 394.001,-377.415"/>
</a>
</g>
<!-- http://latin.omdoc.org/logics/syntax?SExists&#45;&gt;http://latin.omdoc.org/logics/model_theory?SFOLMOD -->
<g id="edge25" class="edge"><title>http://latin.omdoc.org/logics/syntax?SExists&#45;&gt;http://latin.omdoc.org/logics/model_theory?SFOLMOD</title>
<a xlink:href="http://latin.omdoc.org/logics/model_theory?SExists" class="graphview">
<path fill="none" stroke="black" d="M789.631,-265.887C757.292,-238.331 684.865,-179.328 616,-142 602.337,-134.594 586.77,-127.998 572.421,-122.584"/>
<polygon fill="black" stroke="black" points="573.314,-119.184 562.72,-119.03 570.906,-125.757 573.314,-119.184"/>
</a>
<a xlink:href="http://latin.omdoc.org/logics/model_theory?SExists" class="SExists">
<text text-anchor="middle" x="753.5" y="-190.3" font-family="Times New Roman,serif" font-size="14.00">SExists</text>
</a>
</g>
<!-- http://latin.omdoc.org/logics/syntax?SExists&#45;&gt;http://latin.omdoc.org/foundations/zfc?TypedZF -->
<g id="edge71" class="edge"><title>http://latin.omdoc.org/logics/syntax?SExists&#45;&gt;http://latin.omdoc.org/foundations/zfc?TypedZF</title>
<a xlink:href="http://latin.omdoc.org/foundations/minimal?SExists-ZF" class="graphview">
<path fill="none" stroke="black" d="M845.356,-280.28C975.646,-276.945 1412.19,-258.475 1755,-158 1788.96,-148.047 1808.06,-153.892 1827,-124 1837.47,-107.482 1834.7,-97.9759 1827,-80 1820.16,-64.0274 1806.85,-50.253 1794.14,-39.8559"/>
<polygon fill="black" stroke="black" points="1795.99,-36.8674 1785.94,-33.5222 1791.71,-42.4063 1795.99,-36.8674"/>
</a>
<a xlink:href="http://latin.omdoc.org/foundations/minimal?SExists-ZF" class="SExists&#45;ZF">
<text text-anchor="middle" x="1842" y="-146.3" font-family="Times New Roman,serif" font-size="14.00">SExists&#45;ZF</text>
</a>
</g>
<!-- http://latin.omdoc.org/logics/syntax?SExists&#45;&gt;http://latin.omdoc.org/logics/syntax?SFOL -->
<g id="edge73" class="edge"><title>http://latin.omdoc.org/logics/syntax?SExists&#45;&gt;http://latin.omdoc.org/logics/syntax?SFOL</title>
<a class="graphinclude">
<path fill="none" stroke="black" d="M830.904,-267.938C851.316,-257.055 881.631,-241.527 909,-230 929.535,-221.351 953.026,-213.116 972.182,-206.809"/>
<polygon fill="black" stroke="black" points="973.337,-210.114 981.766,-203.695 971.174,-203.457 973.337,-210.114"/>
</a>
</g>
<!-- http://latin.omdoc.org/logics/syntax?BaseSFOL&#45;&gt;http://latin.omdoc.org/logics/model_theory?SFOLMOD -->
<g id="edge29" class="edge"><title>http://latin.omdoc.org/logics/syntax?BaseSFOL&#45;&gt;http://latin.omdoc.org/logics/model_theory?SFOLMOD</title>
<a xlink:href="http://latin.omdoc.org/logics/model_theory?BaseSFOL" class="graphview">
<path fill="none" stroke="black" d="M780.783,-338.552C742.383,-297.091 643.43,-190.566 627,-176 607.976,-159.135 602.017,-156.303 581,-142 573.847,-137.132 566.045,-132.092 558.597,-127.405"/>
<polygon fill="black" stroke="black" points="560.416,-124.415 550.078,-122.097 556.714,-130.356 560.416,-124.415"/>
</a>
<a xlink:href="http://latin.omdoc.org/logics/model_theory?BaseSFOL" class="BaseSFOL">
<text text-anchor="middle" x="725.5" y="-234.3" font-family="Times New Roman,serif" font-size="14.00">BaseSFOL</text>
</a>
</g>
<!-- http://latin.omdoc.org/logics/syntax?BaseSFOL&#45;&gt;http://latin.omdoc.org/foundations/zfc?TypedZF -->
<g id="edge59" class="edge"><title>http://latin.omdoc.org/logics/syntax?BaseSFOL&#45;&gt;http://latin.omdoc.org/foundations/zfc?TypedZF</title>
<a xlink:href="http://latin.omdoc.org/foundations/minimal?BaseSFOL-ZF" class="graphview">
<path fill="none" stroke="black" d="M842.562,-348.145C966.594,-329.682 1315.15,-276.479 1603,-220 1618.37,-216.985 1868.22,-170.231 1878,-158 1909.91,-118.094 1865.77,-89.4797 1829,-54 1821.58,-46.8403 1812.4,-40.752 1803.28,-35.7602"/>
<polygon fill="black" stroke="black" points="1804.73,-32.5727 1794.23,-31.1349 1801.54,-38.8048 1804.73,-32.5727"/>
</a>
<a xlink:href="http://latin.omdoc.org/foundations/minimal?BaseSFOL-ZF" class="BaseSFOL&#45;ZF">
<text text-anchor="middle" x="1859" y="-190.3" font-family="Times New Roman,serif" font-size="14.00">BaseSFOL&#45;ZF</text>
</a>
</g>
<!-- http://latin.omdoc.org/logics/syntax?BaseSFOL&#45;&gt;http://latin.omdoc.org/logics/syntax?SForall -->
<g id="edge61" class="edge"><title>http://latin.omdoc.org/logics/syntax?BaseSFOL&#45;&gt;http://latin.omdoc.org/logics/syntax?SForall</title>
<a class="graphinclude">
<path fill="none" stroke="black" d="M755.393,-344.875C730.766,-338.428 698.827,-329.519 671,-320 652.52,-313.678 632.362,-305.608 615.727,-298.619"/>
<polygon fill="black" stroke="black" points="616.951,-295.336 606.378,-294.65 614.215,-301.78 616.951,-295.336"/>
</a>
</g>
<!-- http://latin.omdoc.org/logics/syntax?BaseSFOL&#45;&gt;http://latin.omdoc.org/logics/proof_theory?BaseSFOL -->
<g id="edge67" class="edge"><title>http://latin.omdoc.org/logics/syntax?BaseSFOL&#45;&gt;http://latin.omdoc.org/logics/proof_theory?BaseSFOL</title>
<a class="graphinclude">
<path fill="none" stroke="black" d="M781.284,-338.608C766.61,-320.167 747.873,-289.463 760,-264 770.043,-242.912 790.032,-226.169 808.102,-214.46"/>
<polygon fill="black" stroke="black" points="810.091,-217.346 816.768,-209.12 806.418,-211.387 810.091,-217.346"/>
</a>
</g>
<!-- http://latin.omdoc.org/logics/syntax?BaseSFOL&#45;&gt;http://latin.omdoc.org/logics/syntax?SExists -->
<g id="edge65" class="edge"><title>http://latin.omdoc.org/logics/syntax?BaseSFOL&#45;&gt;http://latin.omdoc.org/logics/syntax?SExists</title>
<a class="graphinclude">
<path fill="none" stroke="black" d="M798.607,-337.937C799.862,-329.719 801.399,-319.66 802.813,-310.406"/>
<polygon fill="black" stroke="black" points="806.285,-310.855 804.335,-300.441 799.365,-309.797 806.285,-310.855"/>
</a>
</g>
<!-- http://latin.omdoc.org/logics/syntax?BaseSFOL&#45;&gt;http://latin.omdoc.org/logics/syntax?SFOL -->
<g id="edge69" class="edge"><title>http://latin.omdoc.org/logics/syntax?BaseSFOL&#45;&gt;http://latin.omdoc.org/logics/syntax?SFOL</title>
<a class="graphinclude">
<path fill="none" stroke="black" d="M816.816,-339.394C848.4,-315.72 910.329,-269.323 963,-230 969.535,-225.121 976.585,-219.867 983.187,-214.949"/>
<polygon fill="black" stroke="black" points="985.307,-217.734 991.238,-208.955 981.127,-212.12 985.307,-217.734"/>
</a>
</g>
<!-- http://latin.omdoc.org/logics/syntax?BaseSFOL&#45;&gt;http://latin.omdoc.org/logics/syntax?SEqual -->
<g id="edge63" class="edge"><title>http://latin.omdoc.org/logics/syntax?BaseSFOL&#45;&gt;http://latin.omdoc.org/logics/syntax?SEqual</title>
<a class="graphinclude">
<path fill="none" stroke="black" d="M847.125,-355.044C1038.79,-354.958 1708.35,-352.324 1798,-320 1856.29,-298.984 1910.35,-248.583 1938.89,-218.592"/>
<polygon fill="black" stroke="black" points="1941.64,-220.772 1945.91,-211.076 1936.52,-215.992 1941.64,-220.772"/>
</a>
</g>
<!-- http://latin.omdoc.org/logics/syntax?SFOL&#45;&gt;http://latin.omdoc.org/logics/model_theory?SFOLMOD -->
<g id="edge31" class="edge"><title>http://latin.omdoc.org/logics/syntax?SFOL&#45;&gt;http://latin.omdoc.org/logics/model_theory?SFOLMOD</title>
<a xlink:href="http://latin.omdoc.org/logics/model_theory?SFOL" class="graphview">
<path fill="none" stroke="black" d="M978.247,-187.91C928.29,-179.868 833.571,-164.472 800,-158 767.386,-151.712 759.735,-147.621 727,-142 663.432,-131.084 646.151,-137.113 583,-124 579.61,-123.296 576.13,-122.491 572.639,-121.623"/>
<polygon fill="black" stroke="black" points="573.404,-118.205 562.842,-119.04 571.619,-124.973 573.404,-118.205"/>
</a>
<a xlink:href="http://latin.omdoc.org/logics/model_theory?SFOL" class="SFOL">
<text text-anchor="middle" x="818" y="-146.3" font-family="Times New Roman,serif" font-size="14.00">SFOL</text>
</a>
</g>
<!-- http://latin.omdoc.org/logics/syntax?SFOL&#45;&gt;http://latin.omdoc.org/foundations/zfc?TypedZF -->
<g id="edge51" class="edge"><title>http://latin.omdoc.org/logics/syntax?SFOL&#45;&gt;http://latin.omdoc.org/foundations/zfc?TypedZF</title>
<a xlink:href="http://latin.omdoc.org/foundations/minimal?SFOL-ZF" class="graphview">
<path fill="none" stroke="black" d="M1043.57,-192.518C1182.75,-190.376 1708.48,-180.797 1735,-158 1766.7,-130.749 1768.66,-78.4939 1766.39,-46.3946"/>
<polygon fill="black" stroke="black" points="1769.87,-45.9967 1765.5,-36.3466 1762.9,-46.6178 1769.87,-45.9967"/>
</a>
<a xlink:href="http://latin.omdoc.org/foundations/minimal?SFOL-ZF" class="SFOL&#45;ZF">
<text text-anchor="middle" x="1794.5" y="-102.3" font-family="Times New Roman,serif" font-size="14.00">SFOL&#45;ZF</text>
</a>
</g>
<!-- http://latin.omdoc.org/logics/syntax?SFOL&#45;&gt;http://latin.omdoc.org/foundations/minimal?SIFOLPF&#45;ZF -->
<g id="edge49" class="edge"><title>http://latin.omdoc.org/logics/syntax?SFOL&#45;&gt;http://latin.omdoc.org/foundations/minimal?SIFOLPF&#45;ZF</title>
<a xlink:href="http://latin.omdoc.org/foundations/minimal?SIFOLPF-ZF?[http://latin.omdoc.org/logics/syntax?SFOL]" class="graphstructure">
<path fill="none" stroke="black" d="M1043.54,-192.495C1133.22,-190.801 1373.37,-183.867 1397,-158 1409.64,-144.165 1394.13,-132.086 1374.1,-123.16"/>
<polygon fill="black" stroke="black" points="1375.25,-119.847 1364.67,-119.287 1372.59,-126.323 1375.25,-119.847"/>
</a>
<a xlink:href="http://latin.omdoc.org/foundations/minimal?SIFOLPF-ZF?[http://latin.omdoc.org/logics/syntax?SFOL]" class="[http://latin.omdoc.org/logics/syntax?SFOL]">
<text text-anchor="middle" x="1526" y="-146.3" font-family="Times New Roman,serif" font-size="14.00">[http://latin.omdoc.org/logics/syntax?SFOL]</text>
</a>
</g>
<!-- http://latin.omdoc.org/logics/syntax?SFOL&#45;&gt;http://latin.omdoc.org/logics/proof_theory?SIFOL -->
<g id="edge55" class="edge"><title>http://latin.omdoc.org/logics/syntax?SFOL&#45;&gt;http://latin.omdoc.org/logics/proof_theory?SIFOL</title>
<a class="graphinclude">
<path fill="none" stroke="black" d="M1043.36,-192.615C1180.48,-190.873 1694.48,-182.71 1718,-158 1726.19,-149.397 1720.8,-138.384 1712.28,-128.795"/>
<polygon fill="black" stroke="black" points="1714.52,-126.082 1704.97,-121.483 1709.57,-131.03 1714.52,-126.082"/>
</a>
</g>
<!-- http://latin.omdoc.org/logics/syntax?SFOL&#45;&gt;http://latin.omdoc.org/translations/sfol_hol?SIFOLPF -->
<g id="edge57" class="edge"><title>http://latin.omdoc.org/logics/syntax?SFOL&#45;&gt;http://latin.omdoc.org/translations/sfol_hol?SIFOLPF</title>
<a class="graphinclude">
<path fill="none" stroke="black" d="M1030.47,-179.318C1039.03,-173.211 1048.85,-165.671 1057,-158 1065.56,-149.939 1074.1,-140.249 1081.28,-131.49"/>
<polygon fill="black" stroke="black" points="1084.19,-133.455 1087.71,-123.461 1078.73,-129.079 1084.19,-133.455"/>
</a>
</g>
<!-- http://latin.omdoc.org/logics/syntax?SFOL&#45;&gt;http://latin.omdoc.org/logics/syntax?SFOLEQ -->
<g id="edge53" class="edge"><title>http://latin.omdoc.org/logics/syntax?SFOL&#45;&gt;http://latin.omdoc.org/logics/syntax?SFOLEQ</title>
<a class="graphinclude">
<path fill="none" stroke="black" d="M1043.43,-192.229C1207.63,-188.383 1922.69,-170.951 1968,-158 1989.53,-151.846 2011.37,-139.437 2028.04,-128.4"/>
<polygon fill="black" stroke="black" points="2030.45,-130.993 2036.72,-122.459 2026.49,-125.215 2030.45,-130.993"/>
</a>
</g>
<!-- http://latin.omdoc.org/logics/syntax?SFOLEQ&#45;&gt;http://latin.omdoc.org/logics/model_theory?SFOLMOD -->
<g id="edge33" class="edge"><title>http://latin.omdoc.org/logics/syntax?SFOLEQ&#45;&gt;http://latin.omdoc.org/logics/model_theory?SFOLMOD</title>
<a xlink:href="http://latin.omdoc.org/logics/model_theory?SFOLEQ" class="graphview">
<path fill="none" stroke="black" d="M2022.46,-118.05C2014.22,-120.454 2005.37,-122.652 1997,-124 1767.32,-160.97 1182.97,-160.186 950.5,-151.5 786.824,-145.385 743.91,-154.58 583,-124 579.582,-123.35 576.081,-122.569 572.576,-121.701"/>
<polygon fill="black" stroke="black" points="573.317,-118.276 562.751,-119.062 571.501,-125.036 573.317,-118.276"/>
</a>
<a xlink:href="http://latin.omdoc.org/logics/model_theory?SFOLEQ" class="SFOLEQ">
<text text-anchor="middle" x="978" y="-146.3" font-family="Times New Roman,serif" font-size="14.00">SFOLEQ</text>
</a>
</g>
<!-- http://latin.omdoc.org/logics/syntax?SFOLEQ&#45;&gt;http://latin.omdoc.org/foundations/zfc?TypedZF -->
<g id="edge47" class="edge"><title>http://latin.omdoc.org/logics/syntax?SFOLEQ&#45;&gt;http://latin.omdoc.org/foundations/zfc?TypedZF</title>
<a xlink:href="http://latin.omdoc.org/foundations/minimal?SFOLEQ-ZF" class="graphview">
<path fill="none" stroke="black" d="M2031.25,-90.9982C2009.2,-79.5417 1976.3,-63.6993 1946,-54 1903.2,-40.2973 1852.95,-31.1589 1815.95,-25.6667"/>
<polygon fill="black" stroke="black" points="1816.28,-22.178 1805.88,-24.2135 1815.28,-29.1062 1816.28,-22.178"/>
</a>
<a xlink:href="http://latin.omdoc.org/foundations/minimal?SFOLEQ-ZF" class="SFOLEQ&#45;ZF">
<text text-anchor="middle" x="2024" y="-58.3" font-family="Times New Roman,serif" font-size="14.00">SFOLEQ&#45;ZF</text>
</a>
</g>
<!-- http://latin.omdoc.org/logics/syntax?SEqual&#45;&gt;http://latin.omdoc.org/logics/model_theory?SFOLMOD -->
<g id="edge37" class="edge"><title>http://latin.omdoc.org/logics/syntax?SEqual&#45;&gt;http://latin.omdoc.org/logics/model_theory?SFOLMOD</title>
<a xlink:href="http://latin.omdoc.org/logics/model_theory?SEqual" class="graphview">
<path fill="none" stroke="black" d="M1943.44,-177.903C1928.77,-165.602 1906.13,-149.142 1883,-142 1813.98,-120.695 654.424,-134.757 583,-124 579.307,-123.444 575.519,-122.714 571.735,-121.869"/>
<polygon fill="black" stroke="black" points="572.342,-118.413 561.793,-119.404 570.658,-125.207 572.342,-118.413"/>
</a>
<a xlink:href="http://latin.omdoc.org/logics/model_theory?SEqual" class="SEqual">
<text text-anchor="middle" x="1934" y="-146.3" font-family="Times New Roman,serif" font-size="14.00">SEqual</text>
</a>
</g>
<!-- http://latin.omdoc.org/logics/syntax?SEqual&#45;&gt;http://latin.omdoc.org/foundations/zfc?TypedZF -->
<g id="edge43" class="edge"><title>http://latin.omdoc.org/logics/syntax?SEqual&#45;&gt;http://latin.omdoc.org/foundations/zfc?TypedZF</title>
<a xlink:href="http://latin.omdoc.org/foundations/minimal?SEqual-ZF" class="graphview">
<path fill="none" stroke="black" d="M1962.27,-175.815C1962.91,-165.604 1962.46,-152.619 1958,-142 1953.73,-131.856 1947.6,-132.804 1941,-124 1919.37,-95.1527 1928.8,-75.6915 1900,-54 1876.35,-36.1894 1844.58,-27.3921 1817.59,-23.0687"/>
<polygon fill="black" stroke="black" points="1817.9,-19.5776 1807.51,-21.6212 1816.91,-26.5066 1817.9,-19.5776"/>
</a>
<a xlink:href="http://latin.omdoc.org/foundations/minimal?SEqual-ZF" class="SEqual&#45;ZF">
<text text-anchor="middle" x="1971.5" y="-102.3" font-family="Times New Roman,serif" font-size="14.00">SEqual&#45;ZF</text>
</a>
</g>
<!-- http://latin.omdoc.org/logics/syntax?SEqual&#45;&gt;http://latin.omdoc.org/logics/syntax?SFOLEQ -->
<g id="edge45" class="edge"><title>http://latin.omdoc.org/logics/syntax?SEqual&#45;&gt;http://latin.omdoc.org/logics/syntax?SFOLEQ</title>
<a class="graphinclude">
<path fill="none" stroke="black" d="M1984.81,-180.738C1995.64,-174.725 2008.1,-166.867 2018,-158 2026.34,-150.526 2034.15,-141.06 2040.55,-132.318"/>
<polygon fill="black" stroke="black" points="2043.57,-134.113 2046.45,-123.919 2037.84,-130.089 2043.57,-134.113"/>
</a>
</g>
<!-- http://latin.omdoc.org/foundations/minimal?Universes&#45;&gt;http://latin.omdoc.org/logics/model_theory?SFOLMOD -->
<g id="edge39" class="edge"><title>http://latin.omdoc.org/foundations/minimal?Universes&#45;&gt;http://latin.omdoc.org/logics/model_theory?SFOLMOD</title>
<a class="graphinclude">
<path fill="none" stroke="black" d="M368.141,-337.873C369.394,-298.148 377.979,-198.804 431,-142 437.607,-134.921 456.213,-127.388 475.147,-121.13"/>
<polygon fill="black" stroke="black" points="476.252,-124.451 484.715,-118.076 474.124,-117.783 476.252,-124.451"/>
</a>
</g>
</g>
</svg>
