<?xml version="1.0" encoding="UTF-8" standalone="no"?>
<!DOCTYPE svg PUBLIC "-//W3C//DTD SVG 1.1//EN"
 "http://www.w3.org/Graphics/SVG/1.1/DTD/svg11.dtd">
<!-- Generated by graphviz version 2.28.0 (20110507.0327)
 -->
<!-- Title: MMT Pages: 1 -->
<svg
 viewBox="0.00 0.00 746.00 486.00" xmlns="http://www.w3.org/2000/svg" xmlns:xlink="http://www.w3.org/1999/xlink">
<g id="graph1" class="graph" transform="scale(1 1) rotate(0) translate(4 482)">
<title>MMT</title>
<polygon fill="white" stroke="white" points="-4,5 -4,-482 743,-482 743,5 -4,5"/>
<g id="graph2" class="cluster"><title>cluster_local</title>
<polygon fill="none" stroke="black" points="277,-8 277,-412 642,-412 642,-8 277,-8"/>
</g>
<!-- http://latin.omdoc.org/category_theory/lf_based?CoprodTop -->
<g id="node2" class="node"><title>http://latin.omdoc.org/category_theory/lf_based?CoprodTop</title>
<a xlink:href="http://latin.omdoc.org/category_theory/lf_based?CoprodTop" class="graphtheory">
<ellipse fill="none" stroke="black" cx="437" cy="-210" rx="55.3682" ry="18"/>
<text text-anchor="middle" x="437" y="-206.3" font-family="Times New Roman,serif" font-size="14.00">CoprodTop</text>
</a>
</g>
<!-- http://latin.omdoc.org/category_theory/lf_based?ExpTop -->
<g id="node3" class="node"><title>http://latin.omdoc.org/category_theory/lf_based?ExpTop</title>
<a xlink:href="http://latin.omdoc.org/category_theory/lf_based?ExpTop" class="graphtheory">
<ellipse fill="none" stroke="black" cx="462" cy="-34" rx="40.4202" ry="18"/>
<text text-anchor="middle" x="462" y="-30.3" font-family="Times New Roman,serif" font-size="14.00">ExpTop</text>
</a>
</g>
<!-- http://latin.omdoc.org/category_theory/lf_based?ProdTop -->
<g id="node4" class="node"><title>http://latin.omdoc.org/category_theory/lf_based?ProdTop</title>
<a xlink:href="http://latin.omdoc.org/category_theory/lf_based?ProdTop" class="graphtheory">
<ellipse fill="none" stroke="black" cx="462" cy="-122" rx="44.2946" ry="18"/>
<text text-anchor="middle" x="462" y="-118.3" font-family="Times New Roman,serif" font-size="14.00">ProdTop</text>
</a>
</g>
<!-- http://latin.omdoc.org/category_theory/lf_based?ProdTop&#45;&gt;http://latin.omdoc.org/category_theory/lf_based?ExpTop -->
<g id="edge15" class="edge"><title>http://latin.omdoc.org/category_theory/lf_based?ProdTop&#45;&gt;http://latin.omdoc.org/category_theory/lf_based?ExpTop</title>
<a xlink:href="http://latin.omdoc.org/category_theory/lf_based?ExpTop?prod_top" class="graphstructure">
<path fill="none" stroke="black" d="M462,-103.597C462,-91.7459 462,-75.8169 462,-62.2917"/>
<polygon fill="black" stroke="black" points="465.5,-62.084 462,-52.084 458.5,-62.084 465.5,-62.084"/>
</a>
<a xlink:href="http://latin.omdoc.org/category_theory/lf_based?ExpTop?prod_top" class="prod_top">
<text text-anchor="middle" x="489" y="-74.3" font-family="Times New Roman,serif" font-size="14.00">prod_top</text>
</a>
</g>
<!-- http://latin.omdoc.org/category_theory/lf_based?Product -->
<g id="node5" class="node"><title>http://latin.omdoc.org/category_theory/lf_based?Product</title>
<a xlink:href="http://latin.omdoc.org/category_theory/lf_based?Product" class="graphtheory">
<ellipse fill="none" stroke="black" cx="566" cy="-210" rx="39.9464" ry="18"/>
<text text-anchor="middle" x="566" y="-206.3" font-family="Times New Roman,serif" font-size="14.00">Product</text>
</a>
</g>
<!-- http://latin.omdoc.org/category_theory/lf_based?Product&#45;&gt;http://latin.omdoc.org/category_theory/lf_based?ProdTop -->
<g id="edge23" class="edge"><title>http://latin.omdoc.org/category_theory/lf_based?Product&#45;&gt;http://latin.omdoc.org/category_theory/lf_based?ProdTop</title>
<a xlink:href="http://latin.omdoc.org/category_theory/lf_based?ProdTop?prod" class="graphstructure">
<path fill="none" stroke="black" d="M547.407,-193.625C531.092,-180.134 507.17,-160.352 488.79,-145.153"/>
<polygon fill="black" stroke="black" points="490.72,-142.207 480.783,-138.532 486.259,-147.602 490.72,-142.207"/>
</a>
<a xlink:href="http://latin.omdoc.org/category_theory/lf_based?ProdTop?prod" class="prod">
<text text-anchor="middle" x="538" y="-162.3" font-family="Times New Roman,serif" font-size="14.00">prod</text>
</a>
</g>
<!-- http://latin.omdoc.org/category_theory/lf_based?Exponential -->
<g id="node6" class="node"><title>http://latin.omdoc.org/category_theory/lf_based?Exponential</title>
<a xlink:href="http://latin.omdoc.org/category_theory/lf_based?Exponential" class="graphtheory">
<ellipse fill="none" stroke="black" cx="577" cy="-122" rx="52.9443" ry="18"/>
<text text-anchor="middle" x="577" y="-118.3" font-family="Times New Roman,serif" font-size="14.00">Exponential</text>
</a>
</g>
<!-- http://latin.omdoc.org/category_theory/lf_based?Product&#45;&gt;http://latin.omdoc.org/category_theory/lf_based?Exponential -->
<g id="edge31" class="edge"><title>http://latin.omdoc.org/category_theory/lf_based?Product&#45;&gt;http://latin.omdoc.org/category_theory/lf_based?Exponential</title>
<a xlink:href="http://latin.omdoc.org/category_theory/lf_based?Exponential?prod" class="graphstructure">
<path fill="none" stroke="black" d="M568.173,-192.009C569.685,-180.19 571.734,-164.171 573.477,-150.542"/>
<polygon fill="black" stroke="black" points="576.997,-150.613 574.794,-140.25 570.053,-149.725 576.997,-150.613"/>
</a>
<a xlink:href="http://latin.omdoc.org/category_theory/lf_based?Exponential?prod" class="prod">
<text text-anchor="middle" x="587" y="-162.3" font-family="Times New Roman,serif" font-size="14.00">prod</text>
</a>
</g>
<!-- http://latin.omdoc.org/category_theory/lf_based?Coproduct -->
<g id="node8" class="node"><title>http://latin.omdoc.org/category_theory/lf_based?Coproduct</title>
<a xlink:href="http://latin.omdoc.org/category_theory/lf_based?Coproduct" class="graphtheory">
<ellipse fill="none" stroke="black" cx="583" cy="-298" rx="50.5427" ry="18"/>
<text text-anchor="middle" x="583" y="-294.3" font-family="Times New Roman,serif" font-size="14.00">Coproduct</text>
</a>
</g>
<!-- http://latin.omdoc.org/category_theory/lf_based?Product&#45;&gt;http://latin.omdoc.org/category_theory/lf_based?Coproduct -->
<g id="edge7" class="edge"><title>http://latin.omdoc.org/category_theory/lf_based?Product&#45;&gt;http://latin.omdoc.org/category_theory/lf_based?Coproduct</title>
<a xlink:href="http://latin.omdoc.org/category_theory/lf_based?CoprodOp" class="graphview">
<path fill="none" stroke="black" d="M535.888,-222.049C515.942,-231.185 495.268,-245.333 506,-262 512.21,-271.644 521.8,-278.662 532.129,-283.758"/>
<polygon fill="black" stroke="black" points="530.763,-286.98 541.33,-287.759 533.555,-280.561 530.763,-286.98"/>
</a>
<a xlink:href="http://latin.omdoc.org/category_theory/lf_based?CoprodOp" class="CoprodOp">
<text text-anchor="middle" x="537.5" y="-250.3" font-family="Times New Roman,serif" font-size="14.00">CoprodOp</text>
</a>
</g>
<!-- http://latin.omdoc.org/category_theory/lf_based?Exponential&#45;&gt;http://latin.omdoc.org/category_theory/lf_based?ExpTop -->
<g id="edge17" class="edge"><title>http://latin.omdoc.org/category_theory/lf_based?Exponential&#45;&gt;http://latin.omdoc.org/category_theory/lf_based?ExpTop</title>
<a xlink:href="http://latin.omdoc.org/category_theory/lf_based?ExpTop?exp" class="graphstructure">
<path fill="none" stroke="black" d="M560.252,-104.497C549.256,-94.0527 534.31,-80.5751 520,-70 512.29,-64.3023 503.609,-58.6844 495.358,-53.6732"/>
<polygon fill="black" stroke="black" points="497.025,-50.5925 486.639,-48.4986 493.452,-56.6122 497.025,-50.5925"/>
</a>
<a xlink:href="http://latin.omdoc.org/category_theory/lf_based?ExpTop?exp" class="exp">
<text text-anchor="middle" x="550.5" y="-74.3" font-family="Times New Roman,serif" font-size="14.00">exp</text>
</a>
</g>
<!-- http://latin.omdoc.org/category_theory/lf_based?Category -->
<g id="node7" class="node"><title>http://latin.omdoc.org/category_theory/lf_based?Category</title>
<a xlink:href="http://latin.omdoc.org/category_theory/lf_based?Category" class="graphtheory">
<ellipse fill="none" stroke="black" cx="379" cy="-386" rx="44.2946" ry="18"/>
<text text-anchor="middle" x="379" y="-382.3" font-family="Times New Roman,serif" font-size="14.00">Category</text>
</a>
</g>
<!-- http://latin.omdoc.org/category_theory/lf_based?Category&#45;&gt;http://latin.omdoc.org/category_theory/lf_based?Product -->
<g id="edge27" class="edge"><title>http://latin.omdoc.org/category_theory/lf_based?Category&#45;&gt;http://latin.omdoc.org/category_theory/lf_based?Product</title>
<a xlink:href="http://latin.omdoc.org/category_theory/lf_based?Product?cat" class="graphstructure">
<path fill="none" stroke="black" d="M355.363,-370.788C347.015,-365.028 337.977,-357.873 331,-350 309.618,-325.875 296.539,-308.287 312,-280 353.784,-203.552 415.508,-244.77 501,-228 508.24,-226.58 515.87,-224.824 523.255,-222.984"/>
<polygon fill="black" stroke="black" points="524.303,-226.329 533.116,-220.448 522.559,-219.55 524.303,-226.329"/>
</a>
<a xlink:href="http://latin.omdoc.org/category_theory/lf_based?Product?cat" class="cat">
<text text-anchor="middle" x="320.5" y="-294.3" font-family="Times New Roman,serif" font-size="14.00">cat</text>
</a>
</g>
<!-- http://latin.omdoc.org/category_theory/lf_based?Category&#45;&gt;http://latin.omdoc.org/category_theory/lf_based?Category -->
<g id="edge3" class="edge"><title>http://latin.omdoc.org/category_theory/lf_based?Category&#45;&gt;http://latin.omdoc.org/category_theory/lf_based?Category</title>
<a xlink:href="http://latin.omdoc.org/category_theory/lf_based?CatOp" class="graphview">
<path fill="none" stroke="black" d="M420.14,-392.724C431.918,-392.46 441,-390.219 441,-386 441,-383.1 436.707,-381.134 430.197,-380.103"/>
<polygon fill="black" stroke="black" points="430.393,-376.607 420.14,-379.276 429.819,-383.584 430.393,-376.607"/>
</a>
<a xlink:href="http://latin.omdoc.org/category_theory/lf_based?CatOp" class="CatOp">
<text text-anchor="middle" x="460" y="-382.3" font-family="Times New Roman,serif" font-size="14.00">CatOp</text>
</a>
</g>
<!-- http://latin.omdoc.org/category_theory/lf_based?Category&#45;&gt;http://latin.omdoc.org/category_theory/lf_based?Coproduct -->
<g id="edge41" class="edge"><title>http://latin.omdoc.org/category_theory/lf_based?Category&#45;&gt;http://latin.omdoc.org/category_theory/lf_based?Coproduct</title>
<a xlink:href="http://latin.omdoc.org/category_theory/lf_based?Coproduct?cat" class="graphstructure">
<path fill="none" stroke="black" d="M410.255,-373.067C423.742,-367.166 439.302,-359.304 452,-350 459.863,-344.239 458.717,-339.139 467,-334 470.135,-332.055 504.682,-321.727 535.265,-312.791"/>
<polygon fill="black" stroke="black" points="536.389,-316.109 545.01,-309.95 534.43,-309.388 536.389,-316.109"/>
</a>
<a xlink:href="http://latin.omdoc.org/category_theory/lf_based?Coproduct?cat" class="cat">
<text text-anchor="middle" x="475.5" y="-338.3" font-family="Times New Roman,serif" font-size="14.00">cat</text>
</a>
</g>
<!-- http://latin.omdoc.org/category_theory/lf_based?CatTop -->
<g id="node9" class="node"><title>http://latin.omdoc.org/category_theory/lf_based?CatTop</title>
<a xlink:href="http://latin.omdoc.org/category_theory/lf_based?CatTop" class="graphtheory">
<ellipse fill="none" stroke="black" cx="475" cy="-298" rx="38.4949" ry="18"/>
<text text-anchor="middle" x="475" y="-294.3" font-family="Times New Roman,serif" font-size="14.00">CatTop</text>
</a>
</g>
<!-- http://latin.omdoc.org/category_theory/lf_based?Category&#45;&gt;http://latin.omdoc.org/category_theory/lf_based?CatTop -->
<g id="edge45" class="edge"><title>http://latin.omdoc.org/category_theory/lf_based?Category&#45;&gt;http://latin.omdoc.org/category_theory/lf_based?CatTop</title>
<a xlink:href="http://latin.omdoc.org/category_theory/lf_based?CatTop?cat" class="graphstructure">
<path fill="none" stroke="black" d="M396.077,-369.287C407.128,-359.158 421.855,-345.735 435,-334 439.788,-329.725 444.928,-325.189 449.874,-320.85"/>
<polygon fill="black" stroke="black" points="452.188,-323.477 457.41,-314.258 447.579,-318.208 452.188,-323.477"/>
</a>
<a xlink:href="http://latin.omdoc.org/category_theory/lf_based?CatTop?cat" class="cat">
<text text-anchor="middle" x="443.5" y="-338.3" font-family="Times New Roman,serif" font-size="14.00">cat</text>
</a>
</g>
<!-- http://latin.omdoc.org/category_theory/lf_based?Functor -->
<g id="node10" class="node"><title>http://latin.omdoc.org/category_theory/lf_based?Functor</title>
<a xlink:href="http://latin.omdoc.org/category_theory/lf_based?Functor" class="graphtheory">
<ellipse fill="none" stroke="black" cx="378" cy="-298" rx="39.4691" ry="18"/>
<text text-anchor="middle" x="378" y="-294.3" font-family="Times New Roman,serif" font-size="14.00">Functor</text>
</a>
</g>
<!-- http://latin.omdoc.org/category_theory/lf_based?Category&#45;&gt;http://latin.omdoc.org/category_theory/lf_based?Functor -->
<g id="edge49" class="edge"><title>http://latin.omdoc.org/category_theory/lf_based?Category&#45;&gt;http://latin.omdoc.org/category_theory/lf_based?Functor</title>
<a xlink:href="http://latin.omdoc.org/category_theory/lf_based?Functor?dom" class="graphstructure">
<path fill="none" stroke="black" d="M354.255,-370.854C347.007,-365.354 339.968,-358.345 336,-350 330.676,-338.802 337.337,-327.967 346.812,-319.185"/>
<polygon fill="black" stroke="black" points="349.317,-321.658 354.837,-312.615 344.882,-316.241 349.317,-321.658"/>
</a>
<a xlink:href="http://latin.omdoc.org/category_theory/lf_based?Functor?dom" class="dom">
<text text-anchor="middle" x="349" y="-338.3" font-family="Times New Roman,serif" font-size="14.00">dom</text>
</a>
</g>
<!-- http://latin.omdoc.org/category_theory/lf_based?Category&#45;&gt;http://latin.omdoc.org/category_theory/lf_based?Functor -->
<g id="edge51" class="edge"><title>http://latin.omdoc.org/category_theory/lf_based?Category&#45;&gt;http://latin.omdoc.org/category_theory/lf_based?Functor</title>
<a xlink:href="http://latin.omdoc.org/category_theory/lf_based?Functor?cod" class="graphstructure">
<path fill="none" stroke="black" d="M378.798,-367.597C378.66,-355.746 378.475,-339.817 378.317,-326.292"/>
<polygon fill="black" stroke="black" points="381.815,-326.043 378.199,-316.084 374.815,-326.124 381.815,-326.043"/>
</a>
<a xlink:href="http://latin.omdoc.org/category_theory/lf_based?Functor?cod" class="cod">
<text text-anchor="middle" x="390" y="-338.3" font-family="Times New Roman,serif" font-size="14.00">cod</text>
</a>
</g>
<!-- http://latin.omdoc.org/category_theory/lf_based?ProdOp -->
<g id="node28" class="node"><title>http://latin.omdoc.org/category_theory/lf_based?ProdOp</title>
<a xlink:href="http://latin.omdoc.org/category_theory/lf_based?ProdOp" class="graphtheory">
<ellipse fill="gray" stroke="black" cx="106" cy="-298" rx="39.9464" ry="18"/>
<text text-anchor="middle" x="106" y="-294.3" font-family="Times New Roman,serif" font-size="14.00">ProdOp</text>
</a>
</g>
<!-- http://latin.omdoc.org/category_theory/lf_based?Category&#45;&gt;http://latin.omdoc.org/category_theory/lf_based?ProdOp -->
<g id="edge35" class="edge"><title>http://latin.omdoc.org/category_theory/lf_based?Category&#45;&gt;http://latin.omdoc.org/category_theory/lf_based?ProdOp</title>
<a xlink:href="http://latin.omdoc.org/category_theory/lf_based?ProdOp?cat" class="graphstructure">
<path fill="none" stroke="black" d="M340.638,-376.846C312.078,-370.446 272.272,-360.827 238,-350 205.595,-339.762 169.669,-325.698 143.489,-314.931"/>
<polygon fill="black" stroke="black" points="144.538,-311.577 133.96,-310.981 141.858,-318.044 144.538,-311.577"/>
</a>
<a xlink:href="http://latin.omdoc.org/category_theory/lf_based?ProdOp?cat" class="cat">
<text text-anchor="middle" x="246.5" y="-338.3" font-family="Times New Roman,serif" font-size="14.00">cat</text>
</a>
</g>
<!-- http://latin.omdoc.org/category_theory/lf_based?CoprodOp -->
<g id="node30" class="node"><title>http://latin.omdoc.org/category_theory/lf_based?CoprodOp</title>
<a xlink:href="http://latin.omdoc.org/category_theory/lf_based?CoprodOp" class="graphtheory">
<ellipse fill="gray" stroke="black" cx="216" cy="-298" rx="51.0191" ry="18"/>
<text text-anchor="middle" x="216" y="-294.3" font-family="Times New Roman,serif" font-size="14.00">CoprodOp</text>
</a>
</g>
<!-- http://latin.omdoc.org/category_theory/lf_based?Category&#45;&gt;http://latin.omdoc.org/category_theory/lf_based?CoprodOp -->
<g id="edge37" class="edge"><title>http://latin.omdoc.org/category_theory/lf_based?Category&#45;&gt;http://latin.omdoc.org/category_theory/lf_based?CoprodOp</title>
<a xlink:href="http://latin.omdoc.org/category_theory/lf_based?CoprodOp?cat" class="graphstructure">
<path fill="none" stroke="black" d="M343.349,-375.312C324.221,-369.372 300.615,-360.822 281,-350 266.952,-342.25 252.772,-331.536 241.256,-321.928"/>
<polygon fill="black" stroke="black" points="243.254,-319.031 233.382,-315.186 238.701,-324.348 243.254,-319.031"/>
</a>
<a xlink:href="http://latin.omdoc.org/category_theory/lf_based?CoprodOp?cat" class="cat">
<text text-anchor="middle" x="289.5" y="-338.3" font-family="Times New Roman,serif" font-size="14.00">cat</text>
</a>
</g>
<!-- http://latin.omdoc.org/category_theory/lf_based?Coproduct&#45;&gt;http://latin.omdoc.org/category_theory/lf_based?CoprodTop -->
<g id="edge9" class="edge"><title>http://latin.omdoc.org/category_theory/lf_based?Coproduct&#45;&gt;http://latin.omdoc.org/category_theory/lf_based?CoprodTop</title>
<a xlink:href="http://latin.omdoc.org/category_theory/lf_based?CoprodTop?coprod" class="graphstructure">
<path fill="none" stroke="black" d="M544.563,-286.29C507.905,-276.069 458.213,-262.189 458,-262 451.004,-255.782 446.289,-246.877 443.133,-238.243"/>
<polygon fill="black" stroke="black" points="446.392,-236.934 440.101,-228.41 439.703,-238.997 446.392,-236.934"/>
</a>
<a xlink:href="http://latin.omdoc.org/category_theory/lf_based?CoprodTop?coprod" class="coprod">
<text text-anchor="middle" x="479" y="-250.3" font-family="Times New Roman,serif" font-size="14.00">coprod</text>
</a>
</g>
<!-- http://latin.omdoc.org/category_theory/lf_based?Coproduct&#45;&gt;http://latin.omdoc.org/category_theory/lf_based?Product -->
<g id="edge5" class="edge"><title>http://latin.omdoc.org/category_theory/lf_based?Coproduct&#45;&gt;http://latin.omdoc.org/category_theory/lf_based?Product</title>
<a xlink:href="http://latin.omdoc.org/category_theory/lf_based?ProdOp" class="graphview">
<path fill="none" stroke="black" d="M579.641,-280.009C577.266,-267.995 574.034,-251.641 571.311,-237.869"/>
<polygon fill="black" stroke="black" points="574.725,-237.087 569.352,-227.956 567.857,-238.444 574.725,-237.087"/>
</a>
<a xlink:href="http://latin.omdoc.org/category_theory/lf_based?ProdOp" class="ProdOp">
<text text-anchor="middle" x="600" y="-250.3" font-family="Times New Roman,serif" font-size="14.00">ProdOp</text>
</a>
</g>
<!-- http://latin.omdoc.org/category_theory/lf_based?CatTop&#45;&gt;http://latin.omdoc.org/category_theory/lf_based?CoprodTop -->
<g id="edge11" class="edge"><title>http://latin.omdoc.org/category_theory/lf_based?CatTop&#45;&gt;http://latin.omdoc.org/category_theory/lf_based?CoprodTop</title>
<a xlink:href="http://latin.omdoc.org/category_theory/lf_based?CoprodTop?cat_top" class="graphstructure">
<path fill="none" stroke="black" d="M444.96,-286.513C438.699,-284.346 432.138,-282.088 426,-280 402.049,-271.854 386.792,-282.523 372,-262 362.305,-248.549 374.618,-236.847 391.041,-228.057"/>
<polygon fill="black" stroke="black" points="393.004,-230.995 400.474,-223.481 389.949,-224.697 393.004,-230.995"/>
</a>
<a xlink:href="http://latin.omdoc.org/category_theory/lf_based?CoprodTop?cat_top" class="cat_top">
<text text-anchor="middle" x="393.5" y="-250.3" font-family="Times New Roman,serif" font-size="14.00">cat_top</text>
</a>
</g>
<!-- http://latin.omdoc.org/category_theory/lf_based?CatTop&#45;&gt;http://latin.omdoc.org/category_theory/lf_based?ProdTop -->
<g id="edge21" class="edge"><title>http://latin.omdoc.org/category_theory/lf_based?CatTop&#45;&gt;http://latin.omdoc.org/category_theory/lf_based?ProdTop</title>
<a xlink:href="http://latin.omdoc.org/category_theory/lf_based?ProdTop?cat_top" class="graphstructure">
<path fill="none" stroke="black" d="M445.276,-286.437C438.933,-284.253 432.259,-282.008 426,-280 379.796,-265.177 348.894,-272.695 330,-228 323.77,-213.263 321.711,-205.686 330,-192 348.234,-161.894 384.394,-144.296 414.263,-134.416"/>
<polygon fill="black" stroke="black" points="415.606,-137.664 424.117,-131.355 413.529,-130.98 415.606,-137.664"/>
</a>
<a xlink:href="http://latin.omdoc.org/category_theory/lf_based?ProdTop?cat_top" class="cat_top">
<text text-anchor="middle" x="351.5" y="-206.3" font-family="Times New Roman,serif" font-size="14.00">cat_top</text>
</a>
</g>
<!-- http://cds.omdoc.org/urtheories?LF -->
<g id="node16" class="node"><title>http://cds.omdoc.org/urtheories?LF</title>
<a xlink:href="http://cds.omdoc.org/urtheories?LF" class="graphtheory">
<ellipse fill="gray" stroke="black" cx="545" cy="-460" rx="27" ry="18"/>
<text text-anchor="middle" x="545" y="-456.3" font-family="Times New Roman,serif" font-size="14.00">LF</text>
</a>
</g>
<!-- http://cds.omdoc.org/urtheories?LF&#45;&gt;http://latin.omdoc.org/category_theory/lf_based?CoprodTop -->
<g id="edge13" class="edge"><title>http://cds.omdoc.org/urtheories?LF&#45;&gt;http://latin.omdoc.org/category_theory/lf_based?CoprodTop</title>
<a class="graphmeta">
<path fill="none" stroke="black" d="M518.639,-455.55C425.173,-442.715 112.252,-394.383 57,-316 -2.42799,-231.692 63.0518,-297.742 377,-228 380.593,-227.202 384.291,-226.316 388.001,-225.379"/>
<polygon fill="black" stroke="black" points="389.007,-228.734 397.79,-222.808 387.228,-221.963 389.007,-228.734"/>
</a>
</g>
<!-- http://cds.omdoc.org/urtheories?LF&#45;&gt;http://latin.omdoc.org/category_theory/lf_based?ExpTop -->
<g id="edge19" class="edge"><title>http://cds.omdoc.org/urtheories?LF&#45;&gt;http://latin.omdoc.org/category_theory/lf_based?ExpTop</title>
<a class="graphmeta">
<path fill="none" stroke="black" d="M517.973,-458.309C408.004,-455.146 0,-439.85 0,-387 0,-387 0,-387 0,-121 0,-79.4221 292.937,-49.5302 412.291,-39.0766"/>
<polygon fill="black" stroke="black" points="412.949,-42.5328 422.61,-38.1834 412.346,-35.5588 412.949,-42.5328"/>
</a>
</g>
<!-- http://cds.omdoc.org/urtheories?LF&#45;&gt;http://latin.omdoc.org/category_theory/lf_based?ProdTop -->
<g id="edge25" class="edge"><title>http://cds.omdoc.org/urtheories?LF&#45;&gt;http://latin.omdoc.org/category_theory/lf_based?ProdTop</title>
<a class="graphmeta">
<path fill="none" stroke="black" d="M571.67,-456.946C603.171,-453.624 656.412,-445.143 697,-424 718.769,-412.66 738,-411.545 738,-387 738,-387 738,-387 738,-209 738,-105.253 615.421,-166.058 515,-140 511.624,-139.124 508.146,-138.157 504.663,-137.142"/>
<polygon fill="black" stroke="black" points="505.495,-133.737 494.91,-134.191 503.468,-140.437 505.495,-133.737"/>
</a>
</g>
<!-- http://cds.omdoc.org/urtheories?LF&#45;&gt;http://latin.omdoc.org/category_theory/lf_based?Product -->
<g id="edge29" class="edge"><title>http://cds.omdoc.org/urtheories?LF&#45;&gt;http://latin.omdoc.org/category_theory/lf_based?Product</title>
<a class="graphmeta">
<path fill="none" stroke="black" d="M559.714,-444.413C582.857,-420.27 626.7,-369.348 642,-316 650.771,-285.416 648.282,-269.652 627,-246 620.454,-238.725 612.027,-232.574 603.538,-227.557"/>
<polygon fill="black" stroke="black" points="605.198,-224.475 594.747,-222.739 601.834,-230.614 605.198,-224.475"/>
</a>
</g>
<!-- http://cds.omdoc.org/urtheories?LF&#45;&gt;http://latin.omdoc.org/category_theory/lf_based?Exponential -->
<g id="edge33" class="edge"><title>http://cds.omdoc.org/urtheories?LF&#45;&gt;http://latin.omdoc.org/category_theory/lf_based?Exponential</title>
<a class="graphmeta">
<path fill="none" stroke="black" d="M571.999,-458.266C616.407,-455.464 700,-442.782 700,-387 700,-387 700,-387 700,-209 700,-171.886 661.921,-149.448 628.138,-136.845"/>
<polygon fill="black" stroke="black" points="628.894,-133.401 618.299,-133.396 626.578,-140.007 628.894,-133.401"/>
</a>
</g>
<!-- http://cds.omdoc.org/urtheories?LF&#45;&gt;http://latin.omdoc.org/category_theory/lf_based?Category -->
<g id="edge39" class="edge"><title>http://cds.omdoc.org/urtheories?LF&#45;&gt;http://latin.omdoc.org/category_theory/lf_based?Category</title>
<a class="graphmeta">
<path fill="none" stroke="black" d="M521.645,-450.496C497.627,-441.565 459.276,-426.787 427,-412 422.587,-409.978 418.001,-407.755 413.491,-405.493"/>
<polygon fill="black" stroke="black" points="414.917,-402.291 404.421,-400.849 411.727,-408.522 414.917,-402.291"/>
</a>
</g>
<!-- http://cds.omdoc.org/urtheories?LF&#45;&gt;http://latin.omdoc.org/category_theory/lf_based?Coproduct -->
<g id="edge43" class="edge"><title>http://cds.omdoc.org/urtheories?LF&#45;&gt;http://latin.omdoc.org/category_theory/lf_based?Coproduct</title>
<a class="graphmeta">
<path fill="none" stroke="black" d="M552.355,-442.494C554.722,-436.726 557.196,-430.155 559,-424 568.68,-390.972 575.465,-351.864 579.295,-326.299"/>
<polygon fill="black" stroke="black" points="582.783,-326.628 580.755,-316.229 575.856,-325.623 582.783,-326.628"/>
</a>
</g>
<!-- http://cds.omdoc.org/urtheories?LF&#45;&gt;http://latin.omdoc.org/category_theory/lf_based?CatTop -->
<g id="edge47" class="edge"><title>http://cds.omdoc.org/urtheories?LF&#45;&gt;http://latin.omdoc.org/category_theory/lf_based?CatTop</title>
<a class="graphmeta">
<path fill="none" stroke="black" d="M545.454,-441.853C545.347,-416.404 542.077,-367.993 521,-334 517.376,-328.155 512.396,-322.932 507.045,-318.415"/>
<polygon fill="black" stroke="black" points="509.128,-315.602 499.056,-312.315 504.879,-321.165 509.128,-315.602"/>
</a>
</g>
<!-- http://cds.omdoc.org/urtheories?LF&#45;&gt;http://latin.omdoc.org/category_theory/lf_based?Functor -->
<g id="edge53" class="edge"><title>http://cds.omdoc.org/urtheories?LF&#45;&gt;http://latin.omdoc.org/category_theory/lf_based?Functor</title>
<a class="graphmeta">
<path fill="none" stroke="black" d="M539.336,-442.283C528.708,-411.818 505.29,-349.011 488,-334 466.655,-315.469 453.916,-324.635 427,-316 423.913,-315.01 420.726,-313.962 417.527,-312.892"/>
<polygon fill="black" stroke="black" points="418.579,-309.553 407.985,-309.653 416.329,-316.182 418.579,-309.553"/>
</a>
</g>
</g>
</svg>
