<?xml version="1.0" encoding="UTF-8" standalone="no"?>
<!DOCTYPE svg PUBLIC "-//W3C//DTD SVG 1.1//EN"
 "http://www.w3.org/Graphics/SVG/1.1/DTD/svg11.dtd">
<!-- Generated by graphviz version 2.28.0 (20110507.0327)
 -->
<!-- Title: MMT Pages: 1 -->
<svg width="2030pt" height="368pt"
 viewBox="0.00 0.00 2030.00 368.00" xmlns="http://www.w3.org/2000/svg" xmlns:xlink="http://www.w3.org/1999/xlink">
<g id="graph1" class="graph" transform="scale(1 1) rotate(0) translate(4 364)">
<title>MMT</title>
<polygon fill="white" stroke="white" points="-4,5 -4,-364 2027,-364 2027,5 -4,5"/>
<g id="graph2" class="cluster"><title>cluster_local</title>
<polygon fill="none" stroke="black" points="1634,-80 1634,-220 1786,-220 1786,-80 1634,-80"/>
</g>
<!-- http://latin.omdoc.org/logics/description/owl/owl.omdoc?OWL1Datatype -->
<g id="node2" class="node"><title>http://latin.omdoc.org/logics/description/owl/owl.omdoc?OWL1Datatype</title>
<a xlink:href="http://latin.omdoc.org/logics/description/owl/owl.omdoc?OWL1Datatype" class="graphtheory">
<ellipse fill="none" stroke="black" cx="1710" cy="-194" rx="68.3664" ry="18"/>
<text text-anchor="middle" x="1710" y="-190.3" font-family="Times New Roman,serif" font-size="14.00">OWL1Datatype</text>
</a>
</g>
<!-- http://latin.omdoc.org/logics/description/owl/owl.omdoc?FOLEQD -->
<g id="node3" class="node"><title>http://latin.omdoc.org/logics/description/owl/owl.omdoc?FOLEQD</title>
<a xlink:href="http://latin.omdoc.org/logics/description/owl/owl.omdoc?FOLEQD" class="graphtheory">
<ellipse fill="none" stroke="black" cx="1705" cy="-106" rx="46.1964" ry="18"/>
<text text-anchor="middle" x="1705" y="-102.3" font-family="Times New Roman,serif" font-size="14.00">FOLEQD</text>
</a>
</g>
<!-- http://latin.omdoc.org/logics/description/owl/owl.omdoc?OWL1Datatype&#45;&gt;http://latin.omdoc.org/logics/description/owl/owl.omdoc?FOLEQD -->
<g id="edge3" class="edge"><title>http://latin.omdoc.org/logics/description/owl/owl.omdoc?OWL1Datatype&#45;&gt;http://latin.omdoc.org/logics/description/owl/owl.omdoc?FOLEQD</title>
<a xlink:href="http://latin.omdoc.org/logics/description/owl/owl.omdoc?D1FOLEQD" class="graphview">
<path fill="none" stroke="black" d="M1708.99,-175.597C1708.3,-163.746 1707.37,-147.817 1706.59,-134.292"/>
<polygon fill="black" stroke="black" points="1710.07,-133.864 1705.99,-124.084 1703.08,-134.27 1710.07,-133.864"/>
</a>
<a xlink:href="http://latin.omdoc.org/logics/description/owl/owl.omdoc?D1FOLEQD" class="D1FOLEQD">
<text text-anchor="middle" x="1744.5" y="-146.3" font-family="Times New Roman,serif" font-size="14.00">D1FOLEQD</text>
</a>
</g>
<!-- http://latin.omdoc.org/logics/description/owl/owl.omdoc?OWLLiteFOLEQD -->
<g id="node5" class="node"><title>http://latin.omdoc.org/logics/description/owl/owl.omdoc?OWLLiteFOLEQD</title>
<a xlink:href="http://latin.omdoc.org/logics/description/owl/owl.omdoc?OWLLiteFOLEQD" class="graphtheory">
<ellipse fill="gray" stroke="black" cx="773" cy="-106" rx="81.3646" ry="18"/>
<text text-anchor="middle" x="773" y="-102.3" font-family="Times New Roman,serif" font-size="14.00">OWLLiteFOLEQD</text>
</a>
</g>
<!-- http://latin.omdoc.org/logics/description/owl/owl.omdoc?OWL1Datatype&#45;&gt;http://latin.omdoc.org/logics/description/owl/owl.omdoc?OWLLiteFOLEQD -->
<g id="edge5" class="edge"><title>http://latin.omdoc.org/logics/description/owl/owl.omdoc?OWL1Datatype&#45;&gt;http://latin.omdoc.org/logics/description/owl/owl.omdoc?OWLLiteFOLEQD</title>
<a xlink:href="http://latin.omdoc.org/logics/description/owl/owl.omdoc?OWLLiteFOLEQD?[http://latin.omdoc.org/logics/description/owl/owl.omdoc?OWL1Datatype]" class="graphstructure">
<path fill="none" stroke="black" d="M1663.76,-180.78C1655.24,-178.902 1646.39,-177.194 1638,-176 1482.03,-153.809 1438.29,-189.84 1284,-158 1264.03,-153.879 1260.92,-146.359 1241,-142 1112.37,-113.852 959.632,-107.294 864.49,-106.286"/>
<polygon fill="black" stroke="black" points="864.353,-102.784 854.323,-106.197 864.292,-109.784 864.353,-102.784"/>
</a>
<a xlink:href="http://latin.omdoc.org/logics/description/owl/owl.omdoc?OWLLiteFOLEQD?[http://latin.omdoc.org/logics/description/owl/owl.omdoc?OWL1Datatype]" class="[http://latin.omdoc.org/logics/description/owl/owl.omdoc?OWL1Datatype]">
<text text-anchor="middle" x="1493.5" y="-146.3" font-family="Times New Roman,serif" font-size="14.00">[http://latin.omdoc.org/logics/description/owl/owl.omdoc?OWL1Datatype]</text>
</a>
</g>
<!-- http://latin.omdoc.org/logics/description/owl/owl.omdoc?OWLDLFOLEQD -->
<g id="node7" class="node"><title>http://latin.omdoc.org/logics/description/owl/owl.omdoc?OWLDLFOLEQD</title>
<a xlink:href="http://latin.omdoc.org/logics/description/owl/owl.omdoc?OWLDLFOLEQD" class="graphtheory">
<ellipse fill="gray" stroke="black" cx="571" cy="-106" rx="78.9404" ry="18"/>
<text text-anchor="middle" x="571" y="-102.3" font-family="Times New Roman,serif" font-size="14.00">OWLDLFOLEQD</text>
</a>
</g>
<!-- http://latin.omdoc.org/logics/description/owl/owl.omdoc?OWL1Datatype&#45;&gt;http://latin.omdoc.org/logics/description/owl/owl.omdoc?OWLDLFOLEQD -->
<g id="edge7" class="edge"><title>http://latin.omdoc.org/logics/description/owl/owl.omdoc?OWL1Datatype&#45;&gt;http://latin.omdoc.org/logics/description/owl/owl.omdoc?OWLDLFOLEQD</title>
<a xlink:href="http://latin.omdoc.org/logics/description/owl/owl.omdoc?OWLDLFOLEQD?[http://latin.omdoc.org/logics/description/owl/owl.omdoc?OWL1Datatype]" class="graphstructure">
<path fill="none" stroke="black" d="M1664.17,-180.646C1655.54,-178.755 1646.54,-177.078 1638,-176 1431.6,-149.95 906.086,-198.361 702,-158 670.367,-151.744 636.493,-138.361 611.116,-126.874"/>
<polygon fill="black" stroke="black" points="612.375,-123.6 601.829,-122.583 609.439,-129.955 612.375,-123.6"/>
</a>
<a xlink:href="http://latin.omdoc.org/logics/description/owl/owl.omdoc?OWLDLFOLEQD?[http://latin.omdoc.org/logics/description/owl/owl.omdoc?OWL1Datatype]" class="[http://latin.omdoc.org/logics/description/owl/owl.omdoc?OWL1Datatype]">
<text text-anchor="middle" x="911.5" y="-146.3" font-family="Times New Roman,serif" font-size="14.00">[http://latin.omdoc.org/logics/description/owl/owl.omdoc?OWL1Datatype]</text>
</a>
</g>
<!-- http://latin.omdoc.org/logics/description/owl/owl.omdoc?OWLLite -->
<g id="node9" class="node"><title>http://latin.omdoc.org/logics/description/owl/owl.omdoc?OWLLite</title>
<a xlink:href="http://latin.omdoc.org/logics/description/owl/owl.omdoc?OWLLite" class="graphtheory">
<ellipse fill="gray" stroke="black" cx="1131" cy="-194" rx="45.244" ry="18"/>
<text text-anchor="middle" x="1131" y="-190.3" font-family="Times New Roman,serif" font-size="14.00">OWLLite</text>
</a>
</g>
<!-- http://latin.omdoc.org/logics/description/owl/owl.omdoc?OWL1Datatype&#45;&gt;http://latin.omdoc.org/logics/description/owl/owl.omdoc?OWLLite -->
<g id="edge9" class="edge"><title>http://latin.omdoc.org/logics/description/owl/owl.omdoc?OWL1Datatype&#45;&gt;http://latin.omdoc.org/logics/description/owl/owl.omdoc?OWLLite</title>
<a class="graphinclude">
<path fill="none" stroke="black" d="M1684.58,-210.775C1669.19,-219.906 1648.78,-230.28 1629,-235 1582.53,-246.092 1245.03,-247.803 1199,-235 1185.14,-231.144 1171.27,-223.615 1159.71,-216.05"/>
<polygon fill="black" stroke="black" points="1161.59,-213.091 1151.36,-210.318 1157.63,-218.862 1161.59,-213.091"/>
</a>
</g>
<!-- http://latin.omdoc.org/logics/description/owl/owl2.omdoc?OWL2Datatype -->
<g id="node11" class="node"><title>http://latin.omdoc.org/logics/description/owl/owl2.omdoc?OWL2Datatype</title>
<a xlink:href="http://latin.omdoc.org/logics/description/owl/owl2.omdoc?OWL2Datatype" class="graphtheory">
<ellipse fill="gray" stroke="black" cx="359" cy="-106" rx="68.3664" ry="18"/>
<text text-anchor="middle" x="359" y="-102.3" font-family="Times New Roman,serif" font-size="14.00">OWL2Datatype</text>
</a>
</g>
<!-- http://latin.omdoc.org/logics/description/owl/owl.omdoc?OWL1Datatype&#45;&gt;http://latin.omdoc.org/logics/description/owl/owl2.omdoc?OWL2Datatype -->
<g id="edge11" class="edge"><title>http://latin.omdoc.org/logics/description/owl/owl.omdoc?OWL1Datatype&#45;&gt;http://latin.omdoc.org/logics/description/owl/owl2.omdoc?OWL2Datatype</title>
<a class="graphinclude">
<path fill="none" stroke="black" d="M1664.18,-180.625C1655.54,-178.737 1646.54,-177.065 1638,-176 1516.26,-160.816 652.312,-190.454 534,-158 520.178,-154.208 519.329,-147.269 506,-142 480.262,-131.826 450.773,-124.093 424.996,-118.518"/>
<polygon fill="black" stroke="black" points="425.449,-115.037 414.944,-116.411 424.013,-121.888 425.449,-115.037"/>
</a>
</g>
<!-- http://latin.omdoc.org/logics/description/owl/owl.omdoc?OWLLite&#45;&gt;http://latin.omdoc.org/logics/description/owl/owl.omdoc?FOLEQD -->
<g id="edge17" class="edge"><title>http://latin.omdoc.org/logics/description/owl/owl.omdoc?OWLLite&#45;&gt;http://latin.omdoc.org/logics/description/owl/owl.omdoc?FOLEQD</title>
<a xlink:href="http://latin.omdoc.org/logics/description/owl/owl.omdoc?OWLLiteFOLEQD" class="graphview">
<path fill="none" stroke="black" d="M1125.97,-176.031C1123.8,-164.845 1123.42,-150.706 1132,-142 1152.37,-121.33 1625.44,-129.141 1654,-124 1657.17,-123.43 1660.41,-122.704 1663.65,-121.876"/>
<polygon fill="black" stroke="black" points="1664.61,-125.242 1673.26,-119.134 1662.69,-118.51 1664.61,-125.242"/>
</a>
<a xlink:href="http://latin.omdoc.org/logics/description/owl/owl.omdoc?OWLLiteFOLEQD" class="OWLLiteFOLEQD">
<text text-anchor="middle" x="1186.5" y="-146.3" font-family="Times New Roman,serif" font-size="14.00">OWLLiteFOLEQD</text>
</a>
</g>
<!-- http://latin.omdoc.org/logics/description/owl/owl.omdoc?OWLLite&#45;&gt;http://latin.omdoc.org/logics/description/owl/owl.omdoc?OWLDLFOLEQD -->
<g id="edge45" class="edge"><title>http://latin.omdoc.org/logics/description/owl/owl.omdoc?OWLLite&#45;&gt;http://latin.omdoc.org/logics/description/owl/owl.omdoc?OWLDLFOLEQD</title>
<a xlink:href="http://latin.omdoc.org/logics/description/owl/owl.omdoc?OWLDLFOLEQD?[http://latin.omdoc.org/logics/description/owl/owl.omdoc?OWLLite]" class="graphstructure">
<path fill="none" stroke="black" d="M1085.6,-193.118C896.538,-193.389 179.959,-192.153 147,-158 102.095,-111.469 371.619,-130.053 436,-124 455.227,-122.192 475.941,-119.806 495.231,-117.394"/>
<polygon fill="black" stroke="black" points="495.693,-120.864 505.174,-116.134 494.813,-113.919 495.693,-120.864"/>
</a>
<a xlink:href="http://latin.omdoc.org/logics/description/owl/owl.omdoc?OWLDLFOLEQD?[http://latin.omdoc.org/logics/description/owl/owl.omdoc?OWLLite]" class="[http://latin.omdoc.org/logics/description/owl/owl.omdoc?OWLLite]">
<text text-anchor="middle" x="339" y="-146.3" font-family="Times New Roman,serif" font-size="14.00">[http://latin.omdoc.org/logics/description/owl/owl.omdoc?OWLLite]</text>
</a>
</g>
<!-- http://latin.omdoc.org/logics/description/owl/owl.omdoc?OWLDL -->
<g id="node18" class="node"><title>http://latin.omdoc.org/logics/description/owl/owl.omdoc?OWLDL</title>
<a xlink:href="http://latin.omdoc.org/logics/description/owl/owl.omdoc?OWLDL" class="graphtheory">
<ellipse fill="gray" stroke="black" cx="158" cy="-106" rx="43.319" ry="18"/>
<text text-anchor="middle" x="158" y="-102.3" font-family="Times New Roman,serif" font-size="14.00">OWLDL</text>
</a>
</g>
<!-- http://latin.omdoc.org/logics/description/owl/owl.omdoc?OWLLite&#45;&gt;http://latin.omdoc.org/logics/description/owl/owl.omdoc?OWLDL -->
<g id="edge47" class="edge"><title>http://latin.omdoc.org/logics/description/owl/owl.omdoc?OWLLite&#45;&gt;http://latin.omdoc.org/logics/description/owl/owl.omdoc?OWLDL</title>
<a class="graphinclude">
<path fill="none" stroke="black" d="M1085.51,-193.133C895.209,-193.471 171.285,-192.479 138,-158 130.992,-150.741 133.228,-140.739 138.249,-131.515"/>
<polygon fill="black" stroke="black" points="141.243,-133.329 143.706,-123.024 135.355,-129.544 141.243,-133.329"/>
</a>
</g>
<!-- http://cds.omdoc.org/urtheories?LF -->
<g id="node13" class="node"><title>http://cds.omdoc.org/urtheories?LF</title>
<a xlink:href="http://cds.omdoc.org/urtheories?LF" class="graphtheory">
<ellipse fill="gray" stroke="black" cx="1995" cy="-342" rx="27" ry="18"/>
<text text-anchor="middle" x="1995" y="-338.3" font-family="Times New Roman,serif" font-size="14.00">LF</text>
</a>
</g>
<!-- http://cds.omdoc.org/urtheories?LF&#45;&gt;http://latin.omdoc.org/logics/description/owl/owl.omdoc?OWL1Datatype -->
<g id="edge13" class="edge"><title>http://cds.omdoc.org/urtheories?LF&#45;&gt;http://latin.omdoc.org/logics/description/owl/owl.omdoc?OWL1Datatype</title>
<a class="graphmeta">
<path fill="none" stroke="black" d="M1973.26,-331.228C1949.63,-320.505 1910.85,-302.603 1878,-286 1832.27,-262.888 1780.55,-234.534 1746.73,-215.68"/>
<polygon fill="black" stroke="black" points="1748.12,-212.448 1737.69,-210.626 1744.71,-218.559 1748.12,-212.448"/>
</a>
</g>
<!-- http://cds.omdoc.org/urtheories?LF&#45;&gt;http://latin.omdoc.org/logics/description/owl/owl.omdoc?FOLEQD -->
<g id="edge25" class="edge"><title>http://cds.omdoc.org/urtheories?LF&#45;&gt;http://latin.omdoc.org/logics/description/owl/owl.omdoc?FOLEQD</title>
<a class="graphmeta">
<path fill="none" stroke="black" d="M1993.87,-323.752C1990.06,-282.14 1973.72,-177.089 1905,-142 1860.28,-119.169 1803.42,-110.909 1761.76,-108.073"/>
<polygon fill="black" stroke="black" points="1761.7,-104.564 1751.51,-107.464 1761.29,-111.552 1761.7,-104.564"/>
</a>
</g>
<!-- http://cds.omdoc.org/urtheories?LF&#45;&gt;http://latin.omdoc.org/logics/description/owl/owl.omdoc?OWLLite -->
<g id="edge33" class="edge"><title>http://cds.omdoc.org/urtheories?LF&#45;&gt;http://latin.omdoc.org/logics/description/owl/owl.omdoc?OWLLite</title>
<a class="graphmeta">
<path fill="none" stroke="black" d="M1968,-339.419C1887.4,-334.466 1641.59,-317.655 1440,-286 1327.7,-268.366 1295.29,-274.841 1190,-232 1179.65,-227.787 1169.08,-221.791 1159.8,-215.85"/>
<polygon fill="black" stroke="black" points="1161.61,-212.852 1151.34,-210.23 1157.73,-218.681 1161.61,-212.852"/>
</a>
</g>
<!-- http://cds.omdoc.org/urtheories?LF&#45;&gt;http://latin.omdoc.org/logics/description/owl/owl2.omdoc?OWL2Datatype -->
<g id="edge41" class="edge"><title>http://cds.omdoc.org/urtheories?LF&#45;&gt;http://latin.omdoc.org/logics/description/owl/owl2.omdoc?OWL2Datatype</title>
<a class="graphmeta">
<path fill="none" stroke="black" d="M1967.94,-340.495C1748.53,-336.125 265.626,-301.368 138,-158 133.272,-152.689 133.382,-147.407 138,-142 142.974,-136.176 225.704,-124.244 288.492,-115.94"/>
<polygon fill="black" stroke="black" points="289.318,-119.361 298.776,-114.588 288.406,-112.421 289.318,-119.361"/>
</a>
</g>
<!-- http://latin.omdoc.org/logics/description/owl/owl.omdoc?OWLFull -->
<g id="node15" class="node"><title>http://latin.omdoc.org/logics/description/owl/owl.omdoc?OWLFull</title>
<a xlink:href="http://latin.omdoc.org/logics/description/owl/owl.omdoc?OWLFull" class="graphtheory">
<ellipse fill="gray" stroke="black" cx="158" cy="-18" rx="45.244" ry="18"/>
<text text-anchor="middle" x="158" y="-14.3" font-family="Times New Roman,serif" font-size="14.00">OWLFull</text>
</a>
</g>
<!-- http://cds.omdoc.org/urtheories?LF&#45;&gt;http://latin.omdoc.org/logics/description/owl/owl.omdoc?OWLFull -->
<g id="edge35" class="edge"><title>http://cds.omdoc.org/urtheories?LF&#45;&gt;http://latin.omdoc.org/logics/description/owl/owl.omdoc?OWLFull</title>
<a class="graphmeta">
<path fill="none" stroke="black" d="M1967.93,-340.757C1729.75,-338.537 0,-320.635 0,-269 0,-269 0,-269 0,-105 0,-56.1191 59.0599,-34.8622 104.962,-25.7228"/>
<polygon fill="black" stroke="black" points="105.628,-29.1591 114.826,-23.9005 104.356,-22.2756 105.628,-29.1591"/>
</a>
</g>
<!-- http://cds.omdoc.org/urtheories?LF&#45;&gt;http://latin.omdoc.org/logics/description/owl/owl.omdoc?OWLDL -->
<g id="edge37" class="edge"><title>http://cds.omdoc.org/urtheories?LF&#45;&gt;http://latin.omdoc.org/logics/description/owl/owl.omdoc?OWLDL</title>
<a class="graphmeta">
<path fill="none" stroke="black" d="M1967.79,-340.657C1789.01,-338.306 780.333,-323.535 475,-286 334.324,-268.707 275.713,-305.934 163,-220 133.202,-197.282 118.91,-177.467 131,-142 132.237,-138.373 134.018,-134.829 136.085,-131.473"/>
<polygon fill="black" stroke="black" points="139.094,-133.282 142.044,-123.106 133.392,-129.221 139.094,-133.282"/>
</a>
</g>
<!-- http://latin.omdoc.org/logics/description/owl/owl.omdoc?OWLBase -->
<g id="node20" class="node"><title>http://latin.omdoc.org/logics/description/owl/owl.omdoc?OWLBase</title>
<a xlink:href="http://latin.omdoc.org/logics/description/owl/owl.omdoc?OWLBase" class="graphtheory">
<ellipse fill="gray" stroke="black" cx="1498" cy="-268" rx="49.0941" ry="18"/>
<text text-anchor="middle" x="1498" y="-264.3" font-family="Times New Roman,serif" font-size="14.00">OWLBase</text>
</a>
</g>
<!-- http://cds.omdoc.org/urtheories?LF&#45;&gt;http://latin.omdoc.org/logics/description/owl/owl.omdoc?OWLBase -->
<g id="edge43" class="edge"><title>http://cds.omdoc.org/urtheories?LF&#45;&gt;http://latin.omdoc.org/logics/description/owl/owl.omdoc?OWLBase</title>
<a class="graphmeta">
<path fill="none" stroke="black" d="M1968.63,-337.18C1890.57,-325.872 1659.51,-292.398 1552.96,-276.961"/>
<polygon fill="black" stroke="black" points="1553.44,-273.495 1543.04,-275.525 1552.44,-280.423 1553.44,-273.495"/>
</a>
</g>
<!-- http://latin.omdoc.org/logics/syntax?FOLEQ -->
<g id="node22" class="node"><title>http://latin.omdoc.org/logics/syntax?FOLEQ</title>
<a xlink:href="http://latin.omdoc.org/logics/syntax?FOLEQ" class="graphtheory">
<ellipse fill="gray" stroke="black" cx="1927" cy="-268" rx="39.9464" ry="18"/>
<text text-anchor="middle" x="1927" y="-264.3" font-family="Times New Roman,serif" font-size="14.00">FOLEQ</text>
</a>
</g>
<!-- http://cds.omdoc.org/urtheories?LF&#45;&gt;http://latin.omdoc.org/logics/syntax?FOLEQ -->
<g id="edge39" class="edge"><title>http://cds.omdoc.org/urtheories?LF&#45;&gt;http://latin.omdoc.org/logics/syntax?FOLEQ</title>
<a class="graphmeta">
<path fill="none" stroke="black" d="M1981.24,-326.43C1971.97,-316.614 1959.54,-303.457 1948.92,-292.212"/>
<polygon fill="black" stroke="black" points="1951.33,-289.665 1941.92,-284.798 1946.24,-294.471 1951.33,-289.665"/>
</a>
</g>
<!-- http://latin.omdoc.org/logics/description/owl/owl.omdoc?OWLFull&#45;&gt;http://latin.omdoc.org/logics/description/owl/owl.omdoc?FOLEQD -->
<g id="edge15" class="edge"><title>http://latin.omdoc.org/logics/description/owl/owl.omdoc?OWLFull&#45;&gt;http://latin.omdoc.org/logics/description/owl/owl.omdoc?FOLEQD</title>
<a xlink:href="http://latin.omdoc.org/logics/description/owl/owl.omdoc?OWLFullFOLEQD" class="graphview">
<path fill="none" stroke="black" d="M203.391,-19.736C438.291,-23.6937 1510.54,-43.6328 1654,-80 1659.82,-81.4746 1665.75,-83.661 1671.42,-86.1374"/>
<polygon fill="black" stroke="black" points="1670.1,-89.3847 1680.63,-90.5044 1673.09,-83.0591 1670.1,-89.3847"/>
</a>
<a xlink:href="http://latin.omdoc.org/logics/description/owl/owl.omdoc?OWLFullFOLEQD" class="OWLFullFOLEQD">
<text text-anchor="middle" x="1626.5" y="-58.3" font-family="Times New Roman,serif" font-size="14.00">OWLFullFOLEQD</text>
</a>
</g>
<!-- http://latin.omdoc.org/logics/description/owl/owl.omdoc?OWLDL&#45;&gt;http://latin.omdoc.org/logics/description/owl/owl.omdoc?FOLEQD -->
<g id="edge19" class="edge"><title>http://latin.omdoc.org/logics/description/owl/owl.omdoc?OWLDL&#45;&gt;http://latin.omdoc.org/logics/description/owl/owl.omdoc?FOLEQD</title>
<a xlink:href="http://latin.omdoc.org/logics/description/owl/owl.omdoc?OWLDLFOLEQD" class="graphview">
<path fill="none" stroke="black" d="M198.295,-112.637C267.093,-123.569 411.734,-144.82 535,-151.5 582.042,-154.049 593.893,-152.139 641,-151.5 866.173,-148.444 1432.58,-165.029 1654,-124 1657,-123.445 1660.05,-122.741 1663.11,-121.936"/>
<polygon fill="black" stroke="black" points="1664.17,-125.27 1672.77,-119.072 1662.18,-118.558 1664.17,-125.27"/>
</a>
<a xlink:href="http://latin.omdoc.org/logics/description/owl/owl.omdoc?OWLDLFOLEQD" class="OWLDLFOLEQD">
<text text-anchor="middle" x="588" y="-146.3" font-family="Times New Roman,serif" font-size="14.00">OWLDLFOLEQD</text>
</a>
</g>
<!-- http://latin.omdoc.org/logics/description/owl/owl.omdoc?OWLDL&#45;&gt;http://latin.omdoc.org/logics/description/owl/owl.omdoc?OWLFull -->
<g id="edge31" class="edge"><title>http://latin.omdoc.org/logics/description/owl/owl.omdoc?OWLDL&#45;&gt;http://latin.omdoc.org/logics/description/owl/owl.omdoc?OWLFull</title>
<a class="graphinclude">
<path fill="none" stroke="black" d="M158,-87.5966C158,-75.7459 158,-59.8169 158,-46.2917"/>
<polygon fill="black" stroke="black" points="161.5,-46.084 158,-36.084 154.5,-46.084 161.5,-46.084"/>
</a>
</g>
<!-- http://latin.omdoc.org/logics/description/owl/owl.omdoc?OWLBase&#45;&gt;http://latin.omdoc.org/logics/description/owl/owl.omdoc?FOLEQD -->
<g id="edge21" class="edge"><title>http://latin.omdoc.org/logics/description/owl/owl.omdoc?OWLBase&#45;&gt;http://latin.omdoc.org/logics/description/owl/owl.omdoc?FOLEQD</title>
<a xlink:href="http://latin.omdoc.org/logics/description/owl/owl.omdoc?OWLBaseFOLEQD" class="graphview">
<path fill="none" stroke="black" d="M1547.14,-266.375C1621.4,-264.271 1756.78,-255.527 1787,-220 1809.47,-193.584 1804.83,-170.452 1785,-142 1777.68,-131.498 1766.49,-124.117 1754.77,-118.939"/>
<polygon fill="black" stroke="black" points="1755.92,-115.629 1745.33,-115.242 1753.37,-122.147 1755.92,-115.629"/>
</a>
<a xlink:href="http://latin.omdoc.org/logics/description/owl/owl.omdoc?OWLBaseFOLEQD" class="OWLBaseFOLEQD">
<text text-anchor="middle" x="1858.5" y="-190.3" font-family="Times New Roman,serif" font-size="14.00">OWLBaseFOLEQD</text>
</a>
</g>
<!-- http://latin.omdoc.org/logics/description/owl/owl.omdoc?OWLBase&#45;&gt;http://latin.omdoc.org/logics/description/owl/owl.omdoc?OWLLiteFOLEQD -->
<g id="edge27" class="edge"><title>http://latin.omdoc.org/logics/description/owl/owl.omdoc?OWLBase&#45;&gt;http://latin.omdoc.org/logics/description/owl/owl.omdoc?OWLLiteFOLEQD</title>
<a xlink:href="http://latin.omdoc.org/logics/description/owl/owl.omdoc?OWLLiteFOLEQD?[http://latin.omdoc.org/logics/description/owl/owl.omdoc?OWLBase]" class="graphstructure">
<path fill="none" stroke="black" d="M1449.29,-265.211C1395.78,-261.666 1308.36,-251.143 1240,-220 1211.51,-207.022 1214.35,-186.876 1185,-176 1158.15,-166.053 689.887,-178.594 670,-158 653.571,-140.987 674.434,-128.795 701.579,-120.607"/>
<polygon fill="black" stroke="black" points="702.696,-123.93 711.392,-117.877 700.82,-117.186 702.696,-123.93"/>
</a>
<a xlink:href="http://latin.omdoc.org/logics/description/owl/owl.omdoc?OWLLiteFOLEQD?[http://latin.omdoc.org/logics/description/owl/owl.omdoc?OWLBase]" class="[http://latin.omdoc.org/logics/description/owl/owl.omdoc?OWLBase]">
<text text-anchor="middle" x="1435" y="-190.3" font-family="Times New Roman,serif" font-size="14.00">[http://latin.omdoc.org/logics/description/owl/owl.omdoc?OWLBase]</text>
</a>
</g>
<!-- http://latin.omdoc.org/logics/description/owl/owl.omdoc?OWLBase&#45;&gt;http://latin.omdoc.org/logics/description/owl/owl.omdoc?OWLLite -->
<g id="edge29" class="edge"><title>http://latin.omdoc.org/logics/description/owl/owl.omdoc?OWLBase&#45;&gt;http://latin.omdoc.org/logics/description/owl/owl.omdoc?OWLLite</title>
<a class="graphinclude">
<path fill="none" stroke="black" d="M1448.72,-267.038C1388.25,-265.782 1283.26,-259.344 1198,-232 1185.54,-228.005 1172.76,-221.612 1161.74,-215.255"/>
<polygon fill="black" stroke="black" points="1163.33,-212.123 1152.95,-209.978 1159.72,-218.125 1163.33,-212.123"/>
</a>
</g>
<!-- http://latin.omdoc.org/logics/syntax?FOLEQ&#45;&gt;http://latin.omdoc.org/logics/description/owl/owl.omdoc?FOLEQD -->
<g id="edge23" class="edge"><title>http://latin.omdoc.org/logics/syntax?FOLEQ&#45;&gt;http://latin.omdoc.org/logics/description/owl/owl.omdoc?FOLEQD</title>
<a class="graphinclude">
<path fill="none" stroke="black" d="M1930.87,-249.895C1934.33,-229.942 1936.6,-197.014 1920,-176 1882.38,-128.368 1811.62,-113.113 1761.57,-108.495"/>
<polygon fill="black" stroke="black" points="1761.78,-105.001 1751.53,-107.684 1761.22,-111.978 1761.78,-105.001"/>
</a>
</g>
</g>
</svg>
