<?xml version="1.0" encoding="UTF-8" standalone="no"?>
<!DOCTYPE svg PUBLIC "-//W3C//DTD SVG 1.1//EN"
 "http://www.w3.org/Graphics/SVG/1.1/DTD/svg11.dtd">
<!-- Generated by graphviz version 2.28.0 (20110507.0327)
 -->
<!-- Title: MMT Pages: 1 -->
<svg
 viewBox="0.00 0.00 281.00 280.00" xmlns="http://www.w3.org/2000/svg" xmlns:xlink="http://www.w3.org/1999/xlink">
<g id="graph1" class="graph" transform="scale(1 1) rotate(0) translate(4 276)">
<title>MMT</title>
<polygon fill="white" stroke="white" points="-4,5 -4,-276 278,-276 278,5 -4,5"/>
<g id="graph2" class="cluster"><title>cluster_local</title>
<polygon fill="none" stroke="black" points="33,-80 33,-132 139,-132 139,-80 33,-80"/>
</g>
<!-- http://latin.omdoc.org/logics/description/owl/owl.omdoc?OWLFull -->
<g id="node2" class="node"><title>http://latin.omdoc.org/logics/description/owl/owl.omdoc?OWLFull</title>
<a xlink:href="http://latin.omdoc.org/logics/description/owl/owl.omdoc?OWLFull" class="graphtheory">
<ellipse fill="none" stroke="black" cx="86" cy="-106" rx="45.244" ry="18"/>
<text text-anchor="middle" x="86" y="-102.3" font-family="Times New Roman,serif" font-size="14.00">OWLFull</text>
</a>
</g>
<!-- http://latin.omdoc.org/logics/description/owl/owl.omdoc?FOLEQD -->
<g id="node3" class="node"><title>http://latin.omdoc.org/logics/description/owl/owl.omdoc?FOLEQD</title>
<a xlink:href="http://latin.omdoc.org/logics/description/owl/owl.omdoc?FOLEQD" class="graphtheory">
<ellipse fill="gray" stroke="black" cx="46" cy="-18" rx="46.1964" ry="18"/>
<text text-anchor="middle" x="46" y="-14.3" font-family="Times New Roman,serif" font-size="14.00">FOLEQD</text>
</a>
</g>
<!-- http://latin.omdoc.org/logics/description/owl/owl.omdoc?OWLFull&#45;&gt;http://latin.omdoc.org/logics/description/owl/owl.omdoc?FOLEQD -->
<g id="edge3" class="edge"><title>http://latin.omdoc.org/logics/description/owl/owl.omdoc?OWLFull&#45;&gt;http://latin.omdoc.org/logics/description/owl/owl.omdoc?FOLEQD</title>
<a xlink:href="http://latin.omdoc.org/logics/description/owl/owl.omdoc?OWLFullFOLEQD" class="graphview">
<path fill="none" stroke="black" d="M63.1914,-90.0319C56.7653,-84.5592 50.5611,-77.775 47,-70 43.7041,-62.804 42.5876,-54.4163 42.5306,-46.5462"/>
<polygon fill="black" stroke="black" points="46.0388,-46.4465 43.0042,-36.2956 39.0463,-46.1233 46.0388,-46.4465"/>
</a>
<a xlink:href="http://latin.omdoc.org/logics/description/owl/owl.omdoc?OWLFullFOLEQD" class="OWLFullFOLEQD">
<text text-anchor="middle" x="101.5" y="-58.3" font-family="Times New Roman,serif" font-size="14.00">OWLFullFOLEQD</text>
</a>
</g>
<!-- http://latin.omdoc.org/logics/description/owl/owl.omdoc?OWLDL -->
<g id="node5" class="node"><title>http://latin.omdoc.org/logics/description/owl/owl.omdoc?OWLDL</title>
<a xlink:href="http://latin.omdoc.org/logics/description/owl/owl.omdoc?OWLDL" class="graphtheory">
<ellipse fill="gray" stroke="black" cx="137" cy="-180" rx="43.319" ry="18"/>
<text text-anchor="middle" x="137" y="-176.3" font-family="Times New Roman,serif" font-size="14.00">OWLDL</text>
</a>
</g>
<!-- http://latin.omdoc.org/logics/description/owl/owl.omdoc?OWLDL&#45;&gt;http://latin.omdoc.org/logics/description/owl/owl.omdoc?OWLFull -->
<g id="edge5" class="edge"><title>http://latin.omdoc.org/logics/description/owl/owl.omdoc?OWLDL&#45;&gt;http://latin.omdoc.org/logics/description/owl/owl.omdoc?OWLFull</title>
<a class="graphinclude">
<path fill="none" stroke="black" d="M125.171,-162.301C118.799,-153.304 110.809,-142.025 103.71,-132.003"/>
<polygon fill="black" stroke="black" points="106.401,-129.746 97.7645,-123.609 100.689,-133.792 106.401,-129.746"/>
</a>
</g>
<!-- http://latin.omdoc.org/logics/description/owl/owl.omdoc?OWLDL&#45;&gt;http://latin.omdoc.org/logics/description/owl/owl.omdoc?FOLEQD -->
<g id="edge13" class="edge"><title>http://latin.omdoc.org/logics/description/owl/owl.omdoc?OWLDL&#45;&gt;http://latin.omdoc.org/logics/description/owl/owl.omdoc?FOLEQD</title>
<a xlink:href="http://latin.omdoc.org/logics/description/owl/owl.omdoc?OWLDLFOLEQD" class="graphview">
<path fill="none" stroke="black" d="M146.538,-162.214C159.813,-136.368 179.71,-86.4257 156,-54 143.395,-36.7612 122.224,-27.8095 101.802,-23.2328"/>
<polygon fill="black" stroke="black" points="102.36,-19.7759 91.878,-21.3203 101.035,-26.6494 102.36,-19.7759"/>
</a>
<a xlink:href="http://latin.omdoc.org/logics/description/owl/owl.omdoc?OWLDLFOLEQD" class="OWLDLFOLEQD">
<text text-anchor="middle" x="220" y="-102.3" font-family="Times New Roman,serif" font-size="14.00">OWLDLFOLEQD</text>
</a>
</g>
<!-- http://cds.omdoc.org/urtheories?LF -->
<g id="node7" class="node"><title>http://cds.omdoc.org/urtheories?LF</title>
<a xlink:href="http://cds.omdoc.org/urtheories?LF" class="graphtheory">
<ellipse fill="gray" stroke="black" cx="65" cy="-254" rx="27" ry="18"/>
<text text-anchor="middle" x="65" y="-250.3" font-family="Times New Roman,serif" font-size="14.00">LF</text>
</a>
</g>
<!-- http://cds.omdoc.org/urtheories?LF&#45;&gt;http://latin.omdoc.org/logics/description/owl/owl.omdoc?OWLFull -->
<g id="edge7" class="edge"><title>http://cds.omdoc.org/urtheories?LF&#45;&gt;http://latin.omdoc.org/logics/description/owl/owl.omdoc?OWLFull</title>
<a class="graphmeta">
<path fill="none" stroke="black" d="M67.4501,-235.966C71.0347,-211.045 77.7476,-164.374 82.0392,-134.537"/>
<polygon fill="black" stroke="black" points="85.541,-134.774 83.5004,-124.378 78.6123,-133.778 85.541,-134.774"/>
</a>
</g>
<!-- http://cds.omdoc.org/urtheories?LF&#45;&gt;http://latin.omdoc.org/logics/description/owl/owl.omdoc?FOLEQD -->
<g id="edge11" class="edge"><title>http://cds.omdoc.org/urtheories?LF&#45;&gt;http://latin.omdoc.org/logics/description/owl/owl.omdoc?FOLEQD</title>
<a class="graphmeta">
<path fill="none" stroke="black" d="M58.4279,-236.51C49.6594,-213.536 34.5896,-170.388 29,-132 25.67,-109.13 25.8689,-102.898 29,-80 30.5527,-68.6446 33.66,-56.4218 36.7982,-45.9211"/>
<polygon fill="black" stroke="black" points="40.2286,-46.6799 39.8903,-36.0905 33.5511,-44.5795 40.2286,-46.6799"/>
</a>
</g>
<!-- http://cds.omdoc.org/urtheories?LF&#45;&gt;http://latin.omdoc.org/logics/description/owl/owl.omdoc?OWLDL -->
<g id="edge9" class="edge"><title>http://cds.omdoc.org/urtheories?LF&#45;&gt;http://latin.omdoc.org/logics/description/owl/owl.omdoc?OWLDL</title>
<a class="graphmeta">
<path fill="none" stroke="black" d="M79.5703,-238.43C89.4803,-228.52 102.797,-215.203 114.112,-203.888"/>
<polygon fill="black" stroke="black" points="116.606,-206.344 121.202,-196.798 111.656,-201.394 116.606,-206.344"/>
</a>
</g>
</g>
</svg>
