<?xml version="1.0" encoding="UTF-8" standalone="no"?>
<!DOCTYPE svg PUBLIC "-//W3C//DTD SVG 1.1//EN"
 "http://www.w3.org/Graphics/SVG/1.1/DTD/svg11.dtd">
<!-- Generated by graphviz version 2.28.0 (20110507.0327)
 -->
<!-- Title: MMT Pages: 1 -->
<svg
 viewBox="0.00 0.00 605.05 384.00" xmlns="http://www.w3.org/2000/svg" xmlns:xlink="http://www.w3.org/1999/xlink">
<g id="graph1" class="graph" transform="scale(1 1) rotate(0) translate(4 380)">
<title>MMT</title>
<polygon fill="white" stroke="white" points="-4,5 -4,-380 602.052,-380 602.052,5 -4,5"/>
<g id="graph2" class="cluster"><title>cluster_local</title>
<polygon fill="none" stroke="black" points="79.0518,-8 79.0518,-148 222.052,-148 222.052,-8 79.0518,-8"/>
</g>
<!-- http://latin.omdoc.org/logics/description/owl/owl.omdoc?OWLFull -->
<g id="node2" class="node"><title>http://latin.omdoc.org/logics/description/owl/owl.omdoc?OWLFull</title>
<a xlink:href="http://latin.omdoc.org/logics/description/owl/owl.omdoc?OWLFull" class="graphtheory">
<ellipse fill="none" stroke="black" cx="132.052" cy="-122" rx="45.244" ry="18"/>
<text text-anchor="middle" x="132.052" y="-118.3" font-family="Times New Roman,serif" font-size="14.00">OWLFull</text>
</a>
</g>
<!-- http://latin.omdoc.org/logics/description/owl/owl.omdoc?FOLEQD -->
<g id="node3" class="node"><title>http://latin.omdoc.org/logics/description/owl/owl.omdoc?FOLEQD</title>
<a xlink:href="http://latin.omdoc.org/logics/description/owl/owl.omdoc?FOLEQD" class="graphtheory">
<ellipse fill="none" stroke="black" cx="167.052" cy="-34" rx="46.1964" ry="18"/>
<text text-anchor="middle" x="167.052" y="-30.3" font-family="Times New Roman,serif" font-size="14.00">FOLEQD</text>
</a>
</g>
<!-- http://latin.omdoc.org/logics/description/owl/owl.omdoc?OWLFull&#45;&gt;http://latin.omdoc.org/logics/description/owl/owl.omdoc?FOLEQD -->
<g id="edge3" class="edge"><title>http://latin.omdoc.org/logics/description/owl/owl.omdoc?OWLFull&#45;&gt;http://latin.omdoc.org/logics/description/owl/owl.omdoc?FOLEQD</title>
<a xlink:href="http://latin.omdoc.org/logics/description/owl/owl.omdoc?OWLFullFOLEQD" class="graphview">
<path fill="none" stroke="black" d="M87.5773,-117.876C42.1103,-112.965 -18.6051,-100.593 6.05176,-70 19.2763,-53.5916 70.6167,-44.4766 111.814,-39.6952"/>
<polygon fill="black" stroke="black" points="112.213,-43.1724 121.77,-38.5992 111.447,-36.2145 112.213,-43.1724"/>
</a>
<a xlink:href="http://latin.omdoc.org/logics/description/owl/owl.omdoc?OWLFullFOLEQD" class="OWLFullFOLEQD">
<text text-anchor="middle" x="60.5518" y="-74.3" font-family="Times New Roman,serif" font-size="14.00">OWLFullFOLEQD</text>
</a>
</g>
<!-- http://latin.omdoc.org/logics/description/owl/owl.omdoc?OWLDL -->
<g id="node5" class="node"><title>http://latin.omdoc.org/logics/description/owl/owl.omdoc?OWLDL</title>
<a xlink:href="http://latin.omdoc.org/logics/description/owl/owl.omdoc?OWLDL" class="graphtheory">
<ellipse fill="gray" stroke="black" cx="460.052" cy="-122" rx="43.319" ry="18"/>
<text text-anchor="middle" x="460.052" y="-118.3" font-family="Times New Roman,serif" font-size="14.00">OWLDL</text>
</a>
</g>
<!-- http://latin.omdoc.org/logics/description/owl/owl.omdoc?OWLDL&#45;&gt;http://latin.omdoc.org/logics/description/owl/owl.omdoc?OWLFull -->
<g id="edge5" class="edge"><title>http://latin.omdoc.org/logics/description/owl/owl.omdoc?OWLDL&#45;&gt;http://latin.omdoc.org/logics/description/owl/owl.omdoc?OWLFull</title>
<a class="graphinclude">
<path fill="none" stroke="black" d="M443.267,-138.621C430.635,-149.895 412.261,-163.829 393.052,-170 307.153,-197.594 274.937,-200.57 190.052,-170 176.661,-165.178 164.168,-155.773 154.232,-146.557"/>
<polygon fill="black" stroke="black" points="156.43,-143.81 146.843,-139.298 151.524,-148.803 156.43,-143.81"/>
</a>
</g>
<!-- http://latin.omdoc.org/logics/description/owl/owl.omdoc?OWLDL&#45;&gt;http://latin.omdoc.org/logics/description/owl/owl.omdoc?FOLEQD -->
<g id="edge11" class="edge"><title>http://latin.omdoc.org/logics/description/owl/owl.omdoc?OWLDL&#45;&gt;http://latin.omdoc.org/logics/description/owl/owl.omdoc?FOLEQD</title>
<a xlink:href="http://latin.omdoc.org/logics/description/owl/owl.omdoc?OWLDLFOLEQD" class="graphview">
<path fill="none" stroke="black" d="M439.316,-105.931C418.875,-91.1027 390.482,-70.5873 389.052,-70 335.531,-48.0225 269.528,-39.7624 223.46,-36.7021"/>
<polygon fill="black" stroke="black" points="223.556,-33.2017 213.364,-36.0933 223.135,-40.189 223.556,-33.2017"/>
</a>
<a xlink:href="http://latin.omdoc.org/logics/description/owl/owl.omdoc?OWLDLFOLEQD" class="OWLDLFOLEQD">
<text text-anchor="middle" x="464.052" y="-74.3" font-family="Times New Roman,serif" font-size="14.00">OWLDLFOLEQD</text>
</a>
</g>
<!-- http://cds.omdoc.org/urtheories?LF -->
<g id="node7" class="node"><title>http://cds.omdoc.org/urtheories?LF</title>
<a xlink:href="http://cds.omdoc.org/urtheories?LF" class="graphtheory">
<ellipse fill="gray" stroke="black" cx="570.052" cy="-358" rx="27" ry="18"/>
<text text-anchor="middle" x="570.052" y="-354.3" font-family="Times New Roman,serif" font-size="14.00">LF</text>
</a>
</g>
<!-- http://cds.omdoc.org/urtheories?LF&#45;&gt;http://latin.omdoc.org/logics/description/owl/owl.omdoc?OWLFull -->
<g id="edge7" class="edge"><title>http://cds.omdoc.org/urtheories?LF&#45;&gt;http://latin.omdoc.org/logics/description/owl/owl.omdoc?OWLFull</title>
<a class="graphmeta">
<path fill="none" stroke="black" d="M543.104,-355.859C448.545,-351.582 135.993,-335.027 107.052,-302 69.4955,-259.141 97.8065,-187.007 117.432,-148.703"/>
<polygon fill="black" stroke="black" points="120.596,-150.207 122.188,-139.733 114.412,-146.928 120.596,-150.207"/>
</a>
</g>
<!-- http://cds.omdoc.org/urtheories?LF&#45;&gt;http://latin.omdoc.org/logics/description/owl/owl.omdoc?FOLEQD -->
<g id="edge19" class="edge"><title>http://cds.omdoc.org/urtheories?LF&#45;&gt;http://latin.omdoc.org/logics/description/owl/owl.omdoc?FOLEQD</title>
<a class="graphmeta">
<path fill="none" stroke="black" d="M570.052,-339.834C570.052,-325.247 570.052,-303.75 570.052,-285 570.052,-285 570.052,-285 570.052,-121 570.052,-94.0021 560.133,-84.0055 537.052,-70 485.796,-38.8981 313.976,-34.5077 223.645,-34.4373"/>
<polygon fill="black" stroke="black" points="223.572,-30.9373 213.575,-34.4472 223.579,-37.9373 223.572,-30.9373"/>
</a>
</g>
<!-- http://cds.omdoc.org/urtheories?LF&#45;&gt;http://latin.omdoc.org/logics/description/owl/owl.omdoc?OWLDL -->
<g id="edge31" class="edge"><title>http://cds.omdoc.org/urtheories?LF&#45;&gt;http://latin.omdoc.org/logics/description/owl/owl.omdoc?OWLDL</title>
<a class="graphmeta">
<path fill="none" stroke="black" d="M543.989,-352.997C516.028,-347.159 472.962,-333.36 453.052,-302 440.961,-282.956 466.64,-219.528 471.052,-174 471.738,-166.922 472.13,-165.029 471.052,-158 470.632,-155.261 470.037,-152.443 469.338,-149.651"/>
<polygon fill="black" stroke="black" points="472.639,-148.467 466.485,-139.843 465.918,-150.423 472.639,-148.467"/>
</a>
</g>
<!-- http://latin.omdoc.org/logics/description/owl/owl.omdoc?OWLLite -->
<g id="node9" class="node"><title>http://latin.omdoc.org/logics/description/owl/owl.omdoc?OWLLite</title>
<a xlink:href="http://latin.omdoc.org/logics/description/owl/owl.omdoc?OWLLite" class="graphtheory">
<ellipse fill="gray" stroke="black" cx="280.052" cy="-210" rx="45.244" ry="18"/>
<text text-anchor="middle" x="280.052" y="-206.3" font-family="Times New Roman,serif" font-size="14.00">OWLLite</text>
</a>
</g>
<!-- http://cds.omdoc.org/urtheories?LF&#45;&gt;http://latin.omdoc.org/logics/description/owl/owl.omdoc?OWLLite -->
<g id="edge27" class="edge"><title>http://cds.omdoc.org/urtheories?LF&#45;&gt;http://latin.omdoc.org/logics/description/owl/owl.omdoc?OWLLite</title>
<a class="graphmeta">
<path fill="none" stroke="black" d="M543.097,-355.22C481.55,-350.596 333.349,-336.105 299.052,-302 282.464,-285.504 278.569,-258.515 278.311,-238.203"/>
<polygon fill="black" stroke="black" points="281.814,-238.053 278.472,-227.999 274.815,-237.942 281.814,-238.053"/>
</a>
</g>
<!-- http://latin.omdoc.org/logics/description/owl/owl.omdoc?OWLBase -->
<g id="node12" class="node"><title>http://latin.omdoc.org/logics/description/owl/owl.omdoc?OWLBase</title>
<a xlink:href="http://latin.omdoc.org/logics/description/owl/owl.omdoc?OWLBase" class="graphtheory">
<ellipse fill="gray" stroke="black" cx="357.052" cy="-284" rx="49.0941" ry="18"/>
<text text-anchor="middle" x="357.052" y="-280.3" font-family="Times New Roman,serif" font-size="14.00">OWLBase</text>
</a>
</g>
<!-- http://cds.omdoc.org/urtheories?LF&#45;&gt;http://latin.omdoc.org/logics/description/owl/owl.omdoc?OWLBase -->
<g id="edge35" class="edge"><title>http://cds.omdoc.org/urtheories?LF&#45;&gt;http://latin.omdoc.org/logics/description/owl/owl.omdoc?OWLBase</title>
<a class="graphmeta">
<path fill="none" stroke="black" d="M543.852,-353.345C513.333,-348.533 461.77,-338.669 420.052,-322 409.14,-317.64 397.875,-311.59 387.942,-305.645"/>
<polygon fill="black" stroke="black" points="389.589,-302.548 379.243,-300.265 385.907,-308.501 389.589,-302.548"/>
</a>
</g>
<!-- http://latin.omdoc.org/logics/description/owl/owl.omdoc?OWL1Datatype -->
<g id="node14" class="node"><title>http://latin.omdoc.org/logics/description/owl/owl.omdoc?OWL1Datatype</title>
<a xlink:href="http://latin.omdoc.org/logics/description/owl/owl.omdoc?OWL1Datatype" class="graphtheory">
<ellipse fill="gray" stroke="black" cx="184.052" cy="-284" rx="68.3664" ry="18"/>
<text text-anchor="middle" x="184.052" y="-280.3" font-family="Times New Roman,serif" font-size="14.00">OWL1Datatype</text>
</a>
</g>
<!-- http://cds.omdoc.org/urtheories?LF&#45;&gt;http://latin.omdoc.org/logics/description/owl/owl.omdoc?OWL1Datatype -->
<g id="edge29" class="edge"><title>http://cds.omdoc.org/urtheories?LF&#45;&gt;http://latin.omdoc.org/logics/description/owl/owl.omdoc?OWL1Datatype</title>
<a class="graphmeta">
<path fill="none" stroke="black" d="M543.093,-356.67C489.392,-355.41 365.66,-349.487 266.052,-322 251.006,-317.848 235.21,-311.299 221.544,-304.857"/>
<polygon fill="black" stroke="black" points="222.982,-301.665 212.458,-300.446 219.925,-307.962 222.982,-301.665"/>
</a>
</g>
<!-- http://latin.omdoc.org/logics/syntax?FOLEQ -->
<g id="node16" class="node"><title>http://latin.omdoc.org/logics/syntax?FOLEQ</title>
<a xlink:href="http://latin.omdoc.org/logics/syntax?FOLEQ" class="graphtheory">
<ellipse fill="gray" stroke="black" cx="502.052" cy="-284" rx="39.9464" ry="18"/>
<text text-anchor="middle" x="502.052" y="-280.3" font-family="Times New Roman,serif" font-size="14.00">FOLEQ</text>
</a>
</g>
<!-- http://cds.omdoc.org/urtheories?LF&#45;&gt;http://latin.omdoc.org/logics/syntax?FOLEQ -->
<g id="edge33" class="edge"><title>http://cds.omdoc.org/urtheories?LF&#45;&gt;http://latin.omdoc.org/logics/syntax?FOLEQ</title>
<a class="graphmeta">
<path fill="none" stroke="black" d="M556.291,-342.43C547.021,-332.614 534.594,-319.457 523.974,-308.212"/>
<polygon fill="black" stroke="black" points="526.383,-305.665 516.972,-300.798 521.294,-310.471 526.383,-305.665"/>
</a>
</g>
<!-- http://latin.omdoc.org/logics/description/owl/owl.omdoc?OWLLite&#45;&gt;http://latin.omdoc.org/logics/description/owl/owl.omdoc?FOLEQD -->
<g id="edge9" class="edge"><title>http://latin.omdoc.org/logics/description/owl/owl.omdoc?OWLLite&#45;&gt;http://latin.omdoc.org/logics/description/owl/owl.omdoc?FOLEQD</title>
<a xlink:href="http://latin.omdoc.org/logics/description/owl/owl.omdoc?OWLLiteFOLEQD" class="graphview">
<path fill="none" stroke="black" d="M275.994,-192.025C267.518,-157.058 248.058,-79.4674 240.052,-70 232.756,-61.3724 222.844,-54.712 212.677,-49.634"/>
<polygon fill="black" stroke="black" points="213.891,-46.3414 203.338,-45.4044 211.003,-52.718 213.891,-46.3414"/>
</a>
<a xlink:href="http://latin.omdoc.org/logics/description/owl/owl.omdoc?OWLLiteFOLEQD" class="OWLLiteFOLEQD">
<text text-anchor="middle" x="319.552" y="-118.3" font-family="Times New Roman,serif" font-size="14.00">OWLLiteFOLEQD</text>
</a>
</g>
<!-- http://latin.omdoc.org/logics/description/owl/owl.omdoc?OWLLite&#45;&gt;http://latin.omdoc.org/logics/description/owl/owl.omdoc?OWLDL -->
<g id="edge25" class="edge"><title>http://latin.omdoc.org/logics/description/owl/owl.omdoc?OWLLite&#45;&gt;http://latin.omdoc.org/logics/description/owl/owl.omdoc?OWLDL</title>
<a class="graphinclude">
<path fill="none" stroke="black" d="M293.266,-192.524C303.121,-181.268 317.516,-166.845 333.052,-158 336.771,-155.882 379.58,-144.27 414.483,-134.993"/>
<polygon fill="black" stroke="black" points="415.774,-138.272 424.543,-132.326 413.98,-131.506 415.774,-138.272"/>
</a>
</g>
<!-- http://latin.omdoc.org/logics/description/owl/owl.omdoc?OWLBase&#45;&gt;http://latin.omdoc.org/logics/description/owl/owl.omdoc?FOLEQD -->
<g id="edge13" class="edge"><title>http://latin.omdoc.org/logics/description/owl/owl.omdoc?OWLBase&#45;&gt;http://latin.omdoc.org/logics/description/owl/owl.omdoc?FOLEQD</title>
<a xlink:href="http://latin.omdoc.org/logics/description/owl/owl.omdoc?OWLBaseFOLEQD" class="graphview">
<path fill="none" stroke="black" d="M350.676,-266.035C342.207,-240.393 330.652,-191.234 352.052,-158 357.867,-148.97 368.237,-157.03 374.052,-148 384.639,-131.558 385.486,-119.864 374.052,-104 340.035,-56.8045 272.335,-41.4025 223.608,-36.6328"/>
<polygon fill="black" stroke="black" points="223.779,-33.1348 213.517,-35.7688 223.182,-40.1093 223.779,-33.1348"/>
</a>
<a xlink:href="http://latin.omdoc.org/logics/description/owl/owl.omdoc?OWLBaseFOLEQD" class="OWLBaseFOLEQD">
<text text-anchor="middle" x="409.552" y="-162.3" font-family="Times New Roman,serif" font-size="14.00">OWLBaseFOLEQD</text>
</a>
</g>
<!-- http://latin.omdoc.org/logics/description/owl/owl.omdoc?OWLBase&#45;&gt;http://latin.omdoc.org/logics/description/owl/owl.omdoc?OWLLite -->
<g id="edge23" class="edge"><title>http://latin.omdoc.org/logics/description/owl/owl.omdoc?OWLBase&#45;&gt;http://latin.omdoc.org/logics/description/owl/owl.omdoc?OWLLite</title>
<a class="graphinclude">
<path fill="none" stroke="black" d="M339.963,-267.021C329.595,-257.326 316.19,-244.792 304.69,-234.038"/>
<polygon fill="black" stroke="black" points="306.788,-231.208 297.093,-226.934 302.007,-236.321 306.788,-231.208"/>
</a>
</g>
<!-- http://latin.omdoc.org/logics/description/owl/owl.omdoc?OWL1Datatype&#45;&gt;http://latin.omdoc.org/logics/description/owl/owl.omdoc?FOLEQD -->
<g id="edge15" class="edge"><title>http://latin.omdoc.org/logics/description/owl/owl.omdoc?OWL1Datatype&#45;&gt;http://latin.omdoc.org/logics/description/owl/owl.omdoc?FOLEQD</title>
<a xlink:href="http://latin.omdoc.org/logics/description/owl/owl.omdoc?D1FOLEQD" class="graphview">
<path fill="none" stroke="black" d="M185.887,-265.869C188.95,-233.883 194.024,-162.979 186.052,-104 184.14,-89.8592 180.12,-74.5196 176.268,-61.9025"/>
<polygon fill="black" stroke="black" points="179.493,-60.4955 173.121,-52.0306 172.824,-62.6213 179.493,-60.4955"/>
</a>
<a xlink:href="http://latin.omdoc.org/logics/description/owl/owl.omdoc?D1FOLEQD" class="D1FOLEQD">
<text text-anchor="middle" x="227.552" y="-162.3" font-family="Times New Roman,serif" font-size="14.00">D1FOLEQD</text>
</a>
</g>
<!-- http://latin.omdoc.org/logics/description/owl/owl.omdoc?OWL1Datatype&#45;&gt;http://latin.omdoc.org/logics/description/owl/owl.omdoc?OWLLite -->
<g id="edge21" class="edge"><title>http://latin.omdoc.org/logics/description/owl/owl.omdoc?OWL1Datatype&#45;&gt;http://latin.omdoc.org/logics/description/owl/owl.omdoc?OWLLite</title>
<a class="graphinclude">
<path fill="none" stroke="black" d="M205.836,-266.662C219.339,-256.535 236.835,-243.412 251.448,-232.453"/>
<polygon fill="black" stroke="black" points="253.767,-235.089 259.667,-226.289 249.567,-229.489 253.767,-235.089"/>
</a>
</g>
<!-- http://latin.omdoc.org/logics/syntax?FOLEQ&#45;&gt;http://latin.omdoc.org/logics/description/owl/owl.omdoc?FOLEQD -->
<g id="edge17" class="edge"><title>http://latin.omdoc.org/logics/syntax?FOLEQ&#45;&gt;http://latin.omdoc.org/logics/description/owl/owl.omdoc?FOLEQD</title>
<a class="graphinclude">
<path fill="none" stroke="black" d="M510.459,-266.274C529.105,-226.544 568.448,-125.671 518.052,-70 498.691,-48.6123 317.656,-39.7472 223.447,-36.5576"/>
<polygon fill="black" stroke="black" points="223.341,-33.0524 213.231,-36.2225 223.111,-40.0486 223.341,-33.0524"/>
</a>
</g>
</g>
</svg>
