<?xml version="1.0" encoding="UTF-8" standalone="no"?>
<!DOCTYPE svg PUBLIC "-//W3C//DTD SVG 1.1//EN"
 "http://www.w3.org/Graphics/SVG/1.1/DTD/svg11.dtd">
<!-- Generated by graphviz version 2.28.0 (20110507.0327)
 -->
<!-- Title: MMT Pages: 1 -->
<svg
 viewBox="0.00 0.00 1455.21 222.00" xmlns="http://www.w3.org/2000/svg" xmlns:xlink="http://www.w3.org/1999/xlink">
<g id="graph1" class="graph" transform="scale(1 1) rotate(0) translate(4 218)">
<title>MMT</title>
<polygon fill="white" stroke="white" points="-4,5 -4,-218 1452.21,-218 1452.21,5 -4,5"/>
<g id="graph2" class="cluster"><title>cluster_local</title>
<polygon fill="none" stroke="black" points="1111.21,-8 1111.21,-148 1254.21,-148 1254.21,-8 1111.21,-8"/>
</g>
<!-- http://latin.omdoc.org/logics/description/owl/owl.omdoc?OWLLite -->
<g id="node2" class="node"><title>http://latin.omdoc.org/logics/description/owl/owl.omdoc?OWLLite</title>
<a xlink:href="http://latin.omdoc.org/logics/description/owl/owl.omdoc?OWLLite" class="graphtheory">
<ellipse fill="none" stroke="black" cx="1164.21" cy="-122" rx="45.244" ry="18"/>
<text text-anchor="middle" x="1164.21" y="-118.3" font-family="Times New Roman,serif" font-size="14.00">OWLLite</text>
</a>
</g>
<!-- http://latin.omdoc.org/logics/description/owl/owl.omdoc?FOLEQD -->
<g id="node3" class="node"><title>http://latin.omdoc.org/logics/description/owl/owl.omdoc?FOLEQD</title>
<a xlink:href="http://latin.omdoc.org/logics/description/owl/owl.omdoc?FOLEQD" class="graphtheory">
<ellipse fill="none" stroke="black" cx="1166.21" cy="-34" rx="46.1964" ry="18"/>
<text text-anchor="middle" x="1166.21" y="-30.3" font-family="Times New Roman,serif" font-size="14.00">FOLEQD</text>
</a>
</g>
<!-- http://latin.omdoc.org/logics/description/owl/owl.omdoc?OWLLite&#45;&gt;http://latin.omdoc.org/logics/description/owl/owl.omdoc?FOLEQD -->
<g id="edge3" class="edge"><title>http://latin.omdoc.org/logics/description/owl/owl.omdoc?OWLLite&#45;&gt;http://latin.omdoc.org/logics/description/owl/owl.omdoc?FOLEQD</title>
<a xlink:href="http://latin.omdoc.org/logics/description/owl/owl.omdoc?OWLLiteFOLEQD" class="graphview">
<path fill="none" stroke="black" d="M1164.62,-103.597C1164.9,-91.7459 1165.27,-75.8169 1165.58,-62.2917"/>
<polygon fill="black" stroke="black" points="1169.08,-62.1627 1165.82,-52.084 1162.09,-61.9999 1169.08,-62.1627"/>
</a>
<a xlink:href="http://latin.omdoc.org/logics/description/owl/owl.omdoc?OWLLiteFOLEQD" class="OWLLiteFOLEQD">
<text text-anchor="middle" x="1220.71" y="-74.3" font-family="Times New Roman,serif" font-size="14.00">OWLLiteFOLEQD</text>
</a>
</g>
<!-- http://latin.omdoc.org/logics/description/owl/owl.omdoc?OWLDLFOLEQD -->
<g id="node5" class="node"><title>http://latin.omdoc.org/logics/description/owl/owl.omdoc?OWLDLFOLEQD</title>
<a xlink:href="http://latin.omdoc.org/logics/description/owl/owl.omdoc?OWLDLFOLEQD" class="graphtheory">
<ellipse fill="gray" stroke="black" cx="367.215" cy="-34" rx="78.9404" ry="18"/>
<text text-anchor="middle" x="367.215" y="-30.3" font-family="Times New Roman,serif" font-size="14.00">OWLDLFOLEQD</text>
</a>
</g>
<!-- http://latin.omdoc.org/logics/description/owl/owl.omdoc?OWLLite&#45;&gt;http://latin.omdoc.org/logics/description/owl/owl.omdoc?OWLDLFOLEQD -->
<g id="edge5" class="edge"><title>http://latin.omdoc.org/logics/description/owl/owl.omdoc?OWLLite&#45;&gt;http://latin.omdoc.org/logics/description/owl/owl.omdoc?OWLDLFOLEQD</title>
<a xlink:href="http://latin.omdoc.org/logics/description/owl/owl.omdoc?OWLDLFOLEQD?[http://latin.omdoc.org/logics/description/owl/owl.omdoc?OWLLite]" class="graphstructure">
<path fill="none" stroke="black" d="M1133.21,-108.782C1127.31,-106.878 1121.14,-105.161 1115.21,-104 967.589,-75.0611 926.664,-103.198 777.215,-86 736.854,-81.3554 727.431,-75.7674 687.215,-70 606.741,-58.4591 514.398,-48.7329 449.66,-42.4855"/>
<polygon fill="black" stroke="black" points="449.801,-38.9831 439.512,-41.513 449.133,-45.9512 449.801,-38.9831"/>
</a>
<a xlink:href="http://latin.omdoc.org/logics/description/owl/owl.omdoc?OWLDLFOLEQD?[http://latin.omdoc.org/logics/description/owl/owl.omdoc?OWLLite]" class="[http://latin.omdoc.org/logics/description/owl/owl.omdoc?OWLLite]">
<text text-anchor="middle" x="969.215" y="-74.3" font-family="Times New Roman,serif" font-size="14.00">[http://latin.omdoc.org/logics/description/owl/owl.omdoc?OWLLite]</text>
</a>
</g>
<!-- http://latin.omdoc.org/logics/description/owl/owl.omdoc?OWLDL -->
<g id="node7" class="node"><title>http://latin.omdoc.org/logics/description/owl/owl.omdoc?OWLDL</title>
<a xlink:href="http://latin.omdoc.org/logics/description/owl/owl.omdoc?OWLDL" class="graphtheory">
<ellipse fill="gray" stroke="black" cx="1306.21" cy="-122" rx="43.319" ry="18"/>
<text text-anchor="middle" x="1306.21" y="-118.3" font-family="Times New Roman,serif" font-size="14.00">OWLDL</text>
</a>
</g>
<!-- http://latin.omdoc.org/logics/description/owl/owl.omdoc?OWLLite&#45;&gt;http://latin.omdoc.org/logics/description/owl/owl.omdoc?OWLDL -->
<g id="edge7" class="edge"><title>http://latin.omdoc.org/logics/description/owl/owl.omdoc?OWLLite&#45;&gt;http://latin.omdoc.org/logics/description/owl/owl.omdoc?OWLDL</title>
<a class="graphinclude">
<path fill="none" stroke="black" d="M1209.7,-122C1223.96,-122 1238.22,-122 1252.48,-122"/>
<polygon fill="black" stroke="black" points="1252.86,-125.5 1262.86,-122 1252.86,-118.5 1252.86,-125.5"/>
</a>
</g>
<!-- http://latin.omdoc.org/logics/description/owl/owl.omdoc?OWLDL&#45;&gt;http://latin.omdoc.org/logics/description/owl/owl.omdoc?FOLEQD -->
<g id="edge17" class="edge"><title>http://latin.omdoc.org/logics/description/owl/owl.omdoc?OWLDL&#45;&gt;http://latin.omdoc.org/logics/description/owl/owl.omdoc?FOLEQD</title>
<a xlink:href="http://latin.omdoc.org/logics/description/owl/owl.omdoc?OWLDLFOLEQD" class="graphview">
<path fill="none" stroke="black" d="M1288.51,-105.47C1271.98,-91.0012 1249.51,-71.4392 1247.21,-70 1235.32,-62.5389 1221.57,-55.9346 1208.8,-50.5296"/>
<polygon fill="black" stroke="black" points="1209.86,-47.1823 1199.28,-46.6359 1207.21,-53.6613 1209.86,-47.1823"/>
</a>
<a xlink:href="http://latin.omdoc.org/logics/description/owl/owl.omdoc?OWLDLFOLEQD" class="OWLDLFOLEQD">
<text text-anchor="middle" x="1318.21" y="-74.3" font-family="Times New Roman,serif" font-size="14.00">OWLDLFOLEQD</text>
</a>
</g>
<!-- http://latin.omdoc.org/logics/description/owl/owl.omdoc?OWLFull -->
<g id="node15" class="node"><title>http://latin.omdoc.org/logics/description/owl/owl.omdoc?OWLFull</title>
<a xlink:href="http://latin.omdoc.org/logics/description/owl/owl.omdoc?OWLFull" class="graphtheory">
<ellipse fill="gray" stroke="black" cx="1402.21" cy="-34" rx="45.244" ry="18"/>
<text text-anchor="middle" x="1402.21" y="-30.3" font-family="Times New Roman,serif" font-size="14.00">OWLFull</text>
</a>
</g>
<!-- http://latin.omdoc.org/logics/description/owl/owl.omdoc?OWLDL&#45;&gt;http://latin.omdoc.org/logics/description/owl/owl.omdoc?OWLFull -->
<g id="edge39" class="edge"><title>http://latin.omdoc.org/logics/description/owl/owl.omdoc?OWLDL&#45;&gt;http://latin.omdoc.org/logics/description/owl/owl.omdoc?OWLFull</title>
<a class="graphinclude">
<path fill="none" stroke="black" d="M1338.55,-109.951C1351.45,-104.325 1365.7,-96.4313 1376.21,-86 1383.08,-79.1848 1388.49,-70.177 1392.55,-61.63"/>
<polygon fill="black" stroke="black" points="1395.82,-62.8857 1396.57,-52.3174 1389.39,-60.1112 1395.82,-62.8857"/>
</a>
</g>
<!-- http://latin.omdoc.org/logics/description/owl/owl.omdoc?OWL1Datatype -->
<g id="node9" class="node"><title>http://latin.omdoc.org/logics/description/owl/owl.omdoc?OWL1Datatype</title>
<a xlink:href="http://latin.omdoc.org/logics/description/owl/owl.omdoc?OWL1Datatype" class="graphtheory">
<ellipse fill="gray" stroke="black" cx="385.215" cy="-122" rx="68.3664" ry="18"/>
<text text-anchor="middle" x="385.215" y="-118.3" font-family="Times New Roman,serif" font-size="14.00">OWL1Datatype</text>
</a>
</g>
<!-- http://latin.omdoc.org/logics/description/owl/owl.omdoc?OWL1Datatype&#45;&gt;http://latin.omdoc.org/logics/description/owl/owl.omdoc?OWLLite -->
<g id="edge9" class="edge"><title>http://latin.omdoc.org/logics/description/owl/owl.omdoc?OWL1Datatype&#45;&gt;http://latin.omdoc.org/logics/description/owl/owl.omdoc?OWLLite</title>
<a class="graphinclude">
<path fill="none" stroke="black" d="M412.301,-138.574C428.928,-147.76 451.032,-158.259 472.215,-163 540.958,-178.387 1039.08,-184.333 1106.21,-163 1117.85,-159.303 1129.16,-152.334 1138.66,-145.176"/>
<polygon fill="black" stroke="black" points="1140.87,-147.89 1146.5,-138.915 1136.5,-142.42 1140.87,-147.89"/>
</a>
</g>
<!-- http://latin.omdoc.org/logics/description/owl/owl.omdoc?OWL1Datatype&#45;&gt;http://latin.omdoc.org/logics/description/owl/owl.omdoc?FOLEQD -->
<g id="edge21" class="edge"><title>http://latin.omdoc.org/logics/description/owl/owl.omdoc?OWL1Datatype&#45;&gt;http://latin.omdoc.org/logics/description/owl/owl.omdoc?FOLEQD</title>
<a xlink:href="http://latin.omdoc.org/logics/description/owl/owl.omdoc?D1FOLEQD" class="graphview">
<path fill="none" stroke="black" d="M403.587,-104.504C418.288,-92.4407 440.047,-77.0101 462.215,-70 531.42,-48.1153 1043.74,-64.6126 1115.21,-52 1118.29,-51.458 1121.43,-50.7677 1124.56,-49.9772"/>
<polygon fill="black" stroke="black" points="1125.82,-53.2601 1134.48,-47.1694 1123.91,-46.5245 1125.82,-53.2601"/>
</a>
<a xlink:href="http://latin.omdoc.org/logics/description/owl/owl.omdoc?D1FOLEQD" class="D1FOLEQD">
<text text-anchor="middle" x="498.715" y="-74.3" font-family="Times New Roman,serif" font-size="14.00">D1FOLEQD</text>
</a>
</g>
<!-- http://latin.omdoc.org/logics/description/owl/owl.omdoc?OWL1Datatype&#45;&gt;http://latin.omdoc.org/logics/description/owl/owl.omdoc?OWLDLFOLEQD -->
<g id="edge37" class="edge"><title>http://latin.omdoc.org/logics/description/owl/owl.omdoc?OWL1Datatype&#45;&gt;http://latin.omdoc.org/logics/description/owl/owl.omdoc?OWLDLFOLEQD</title>
<a xlink:href="http://latin.omdoc.org/logics/description/owl/owl.omdoc?OWLDLFOLEQD?[http://latin.omdoc.org/logics/description/owl/owl.omdoc?OWL1Datatype]" class="graphstructure">
<path fill="none" stroke="black" d="M317.665,-119.618C214.095,-116.791 25.8082,-108.577 5.21481,-86 -33.0201,-44.0816 158.718,-35.8389 277.855,-34.6799"/>
<polygon fill="black" stroke="black" points="278.109,-38.178 288.08,-34.596 278.051,-31.1783 278.109,-38.178"/>
</a>
<a xlink:href="http://latin.omdoc.org/logics/description/owl/owl.omdoc?OWLDLFOLEQD?[http://latin.omdoc.org/logics/description/owl/owl.omdoc?OWL1Datatype]" class="[http://latin.omdoc.org/logics/description/owl/owl.omdoc?OWL1Datatype]">
<text text-anchor="middle" x="214.715" y="-74.3" font-family="Times New Roman,serif" font-size="14.00">[http://latin.omdoc.org/logics/description/owl/owl.omdoc?OWL1Datatype]</text>
</a>
</g>
<!-- http://latin.omdoc.org/logics/description/owl/owl.omdoc?OWLBase -->
<g id="node11" class="node"><title>http://latin.omdoc.org/logics/description/owl/owl.omdoc?OWLBase</title>
<a xlink:href="http://latin.omdoc.org/logics/description/owl/owl.omdoc?OWLBase" class="graphtheory">
<ellipse fill="gray" stroke="black" cx="620.215" cy="-122" rx="49.0941" ry="18"/>
<text text-anchor="middle" x="620.215" y="-118.3" font-family="Times New Roman,serif" font-size="14.00">OWLBase</text>
</a>
</g>
<!-- http://latin.omdoc.org/logics/description/owl/owl.omdoc?OWLBase&#45;&gt;http://latin.omdoc.org/logics/description/owl/owl.omdoc?OWLLite -->
<g id="edge11" class="edge"><title>http://latin.omdoc.org/logics/description/owl/owl.omdoc?OWLBase&#45;&gt;http://latin.omdoc.org/logics/description/owl/owl.omdoc?OWLLite</title>
<a class="graphinclude">
<path fill="none" stroke="black" d="M669.621,-122C815.988,-122 962.356,-122 1108.72,-122"/>
<polygon fill="black" stroke="black" points="1108.81,-125.5 1118.81,-122 1108.81,-118.5 1108.81,-125.5"/>
</a>
</g>
<!-- http://latin.omdoc.org/logics/description/owl/owl.omdoc?OWLBase&#45;&gt;http://latin.omdoc.org/logics/description/owl/owl.omdoc?FOLEQD -->
<g id="edge19" class="edge"><title>http://latin.omdoc.org/logics/description/owl/owl.omdoc?OWLBase&#45;&gt;http://latin.omdoc.org/logics/description/owl/owl.omdoc?FOLEQD</title>
<a xlink:href="http://latin.omdoc.org/logics/description/owl/owl.omdoc?OWLBaseFOLEQD" class="graphview">
<path fill="none" stroke="black" d="M591.035,-107.344C573.094,-97.1841 555.729,-82.9039 568.215,-70 589.358,-48.1495 1085.29,-57.3633 1115.21,-52 1118.29,-51.4498 1121.42,-50.7535 1124.56,-49.9586"/>
<polygon fill="black" stroke="black" points="1125.82,-53.2402 1134.48,-47.1424 1123.9,-46.5062 1125.82,-53.2402"/>
</a>
<a xlink:href="http://latin.omdoc.org/logics/description/owl/owl.omdoc?OWLBaseFOLEQD" class="OWLBaseFOLEQD">
<text text-anchor="middle" x="625.715" y="-74.3" font-family="Times New Roman,serif" font-size="14.00">OWLBaseFOLEQD</text>
</a>
</g>
<!-- http://cds.omdoc.org/urtheories?LF -->
<g id="node13" class="node"><title>http://cds.omdoc.org/urtheories?LF</title>
<a xlink:href="http://cds.omdoc.org/urtheories?LF" class="graphtheory">
<ellipse fill="gray" stroke="black" cx="697.215" cy="-196" rx="27" ry="18"/>
<text text-anchor="middle" x="697.215" y="-192.3" font-family="Times New Roman,serif" font-size="14.00">LF</text>
</a>
</g>
<!-- http://cds.omdoc.org/urtheories?LF&#45;&gt;http://latin.omdoc.org/logics/description/owl/owl.omdoc?OWLLite -->
<g id="edge13" class="edge"><title>http://cds.omdoc.org/urtheories?LF&#45;&gt;http://latin.omdoc.org/logics/description/owl/owl.omdoc?OWLLite</title>
<a class="graphmeta">
<path fill="none" stroke="black" d="M724.288,-195.276C791.819,-195.26 972.541,-190.867 1115.21,-148 1120.47,-146.42 1125.84,-144.288 1131.01,-141.933"/>
<polygon fill="black" stroke="black" points="1132.57,-145.064 1140.01,-137.522 1129.49,-138.778 1132.57,-145.064"/>
</a>
</g>
<!-- http://cds.omdoc.org/urtheories?LF&#45;&gt;http://latin.omdoc.org/logics/description/owl/owl.omdoc?FOLEQD -->
<g id="edge25" class="edge"><title>http://cds.omdoc.org/urtheories?LF&#45;&gt;http://latin.omdoc.org/logics/description/owl/owl.omdoc?FOLEQD</title>
<a class="graphmeta">
<path fill="none" stroke="black" d="M693.039,-177.856C687.536,-150.585 681.708,-97.5932 711.215,-70 744.034,-39.3095 1071.03,-60.1831 1115.21,-52 1118.24,-51.4402 1121.33,-50.743 1124.42,-49.953"/>
<polygon fill="black" stroke="black" points="1125.54,-53.2733 1134.19,-47.1688 1123.62,-46.5408 1125.54,-53.2733"/>
</a>
</g>
<!-- http://cds.omdoc.org/urtheories?LF&#45;&gt;http://latin.omdoc.org/logics/description/owl/owl.omdoc?OWLDL -->
<g id="edge31" class="edge"><title>http://cds.omdoc.org/urtheories?LF&#45;&gt;http://latin.omdoc.org/logics/description/owl/owl.omdoc?OWLDL</title>
<a class="graphmeta">
<path fill="none" stroke="black" d="M724.199,-194.148C821.79,-190.849 1156,-177.599 1258.21,-148 1263.52,-146.465 1268.91,-144.317 1274.08,-141.92"/>
<polygon fill="black" stroke="black" points="1275.7,-145.024 1283.07,-137.412 1272.56,-138.767 1275.7,-145.024"/>
</a>
</g>
<!-- http://cds.omdoc.org/urtheories?LF&#45;&gt;http://latin.omdoc.org/logics/description/owl/owl.omdoc?OWL1Datatype -->
<g id="edge29" class="edge"><title>http://cds.omdoc.org/urtheories?LF&#45;&gt;http://latin.omdoc.org/logics/description/owl/owl.omdoc?OWL1Datatype</title>
<a class="graphmeta">
<path fill="none" stroke="black" d="M671.028,-190.727C627.536,-183.41 537.81,-167.381 463.215,-148 453.919,-145.585 444.099,-142.704 434.679,-139.771"/>
<polygon fill="black" stroke="black" points="435.635,-136.403 425.045,-136.714 433.518,-143.075 435.635,-136.403"/>
</a>
</g>
<!-- http://cds.omdoc.org/urtheories?LF&#45;&gt;http://latin.omdoc.org/logics/description/owl/owl.omdoc?OWLBase -->
<g id="edge35" class="edge"><title>http://cds.omdoc.org/urtheories?LF&#45;&gt;http://latin.omdoc.org/logics/description/owl/owl.omdoc?OWLBase</title>
<a class="graphmeta">
<path fill="none" stroke="black" d="M682.002,-180.775C671.432,-170.891 657.11,-157.5 644.917,-146.098"/>
<polygon fill="black" stroke="black" points="646.967,-143.223 637.272,-138.95 642.186,-148.336 646.967,-143.223"/>
</a>
</g>
<!-- http://cds.omdoc.org/urtheories?LF&#45;&gt;http://latin.omdoc.org/logics/description/owl/owl.omdoc?OWLFull -->
<g id="edge27" class="edge"><title>http://cds.omdoc.org/urtheories?LF&#45;&gt;http://latin.omdoc.org/logics/description/owl/owl.omdoc?OWLFull</title>
<a class="graphmeta">
<path fill="none" stroke="black" d="M724.228,-194.561C841.59,-192.454 1303.77,-182.044 1358.21,-148 1387.05,-129.967 1397.02,-89.6918 1400.44,-62.4289"/>
<polygon fill="black" stroke="black" points="1403.94,-62.6504 1401.49,-52.3423 1396.98,-61.9271 1403.94,-62.6504"/>
</a>
</g>
<!-- http://latin.omdoc.org/logics/syntax?FOLEQ -->
<g id="node20" class="node"><title>http://latin.omdoc.org/logics/syntax?FOLEQ</title>
<a xlink:href="http://latin.omdoc.org/logics/syntax?FOLEQ" class="graphtheory">
<ellipse fill="gray" stroke="black" cx="512.215" cy="-122" rx="39.9464" ry="18"/>
<text text-anchor="middle" x="512.215" y="-118.3" font-family="Times New Roman,serif" font-size="14.00">FOLEQ</text>
</a>
</g>
<!-- http://cds.omdoc.org/urtheories?LF&#45;&gt;http://latin.omdoc.org/logics/syntax?FOLEQ -->
<g id="edge33" class="edge"><title>http://cds.omdoc.org/urtheories?LF&#45;&gt;http://latin.omdoc.org/logics/syntax?FOLEQ</title>
<a class="graphmeta">
<path fill="none" stroke="black" d="M672.964,-187.597C645.666,-179.024 600.17,-164.018 562.215,-148 557.018,-145.807 551.603,-143.321 546.337,-140.788"/>
<polygon fill="black" stroke="black" points="547.616,-137.516 537.099,-136.231 544.519,-143.794 547.616,-137.516"/>
</a>
</g>
<!-- http://latin.omdoc.org/logics/description/owl/owl.omdoc?OWLFull&#45;&gt;http://latin.omdoc.org/logics/description/owl/owl.omdoc?FOLEQD -->
<g id="edge15" class="edge"><title>http://latin.omdoc.org/logics/description/owl/owl.omdoc?OWLFull&#45;&gt;http://latin.omdoc.org/logics/description/owl/owl.omdoc?FOLEQD</title>
<a xlink:href="http://latin.omdoc.org/logics/description/owl/owl.omdoc?OWLFullFOLEQD" class="graphview">
<path fill="none" stroke="black" d="M1356.89,-34C1318.75,-34 1264.01,-34 1222.96,-34"/>
<polygon fill="black" stroke="black" points="1222.84,-30.5001 1212.84,-34 1222.84,-37.5001 1222.84,-30.5001"/>
</a>
<a xlink:href="http://latin.omdoc.org/logics/description/owl/owl.omdoc?OWLFullFOLEQD" class="OWLFullFOLEQD">
<text text-anchor="middle" x="1284.47" y="-40.8" font-family="Times New Roman,serif" font-size="14.00">OWLFullFOLEQD</text>
</a>
</g>
<!-- http://latin.omdoc.org/logics/syntax?FOLEQ&#45;&gt;http://latin.omdoc.org/logics/description/owl/owl.omdoc?FOLEQD -->
<g id="edge23" class="edge"><title>http://latin.omdoc.org/logics/syntax?FOLEQ&#45;&gt;http://latin.omdoc.org/logics/description/owl/owl.omdoc?FOLEQD</title>
<a class="graphinclude">
<path fill="none" stroke="black" d="M522.575,-104.393C531.064,-92.4404 544.257,-77.2042 560.215,-70 616.449,-44.6132 1054.48,-62.869 1115.21,-52 1118.29,-51.4505 1121.42,-50.7547 1124.56,-49.9602"/>
<polygon fill="black" stroke="black" points="1125.82,-53.242 1134.48,-47.1448 1123.9,-46.5079 1125.82,-53.242"/>
</a>
</g>
</g>
</svg>
