<?xml version="1.0" encoding="UTF-8" standalone="no"?>
<!DOCTYPE svg PUBLIC "-//W3C//DTD SVG 1.1//EN"
 "http://www.w3.org/Graphics/SVG/1.1/DTD/svg11.dtd">
<!-- Generated by graphviz version 2.28.0 (20110507.0327)
 -->
<!-- Title: MMT Pages: 1 -->
<svg
 viewBox="0.00 0.00 886.27 368.00" xmlns="http://www.w3.org/2000/svg" xmlns:xlink="http://www.w3.org/1999/xlink">
<g id="graph1" class="graph" transform="scale(1 1) rotate(0) translate(4 364)">
<title>MMT</title>
<polygon fill="white" stroke="white" points="-4,5 -4,-364 883.265,-364 883.265,5 -4,5"/>
<g id="graph2" class="cluster"><title>cluster_local</title>
<polygon fill="none" stroke="black" points="508.265,-168 508.265,-220 614.265,-220 614.265,-168 508.265,-168"/>
</g>
<!-- http://latin.omdoc.org/logics/description/owl/owl.omdoc?OWLLite -->
<g id="node2" class="node"><title>http://latin.omdoc.org/logics/description/owl/owl.omdoc?OWLLite</title>
<a xlink:href="http://latin.omdoc.org/logics/description/owl/owl.omdoc?OWLLite" class="graphtheory">
<ellipse fill="none" stroke="black" cx="561.265" cy="-194" rx="45.244" ry="18"/>
<text text-anchor="middle" x="561.265" y="-190.3" font-family="Times New Roman,serif" font-size="14.00">OWLLite</text>
</a>
</g>
<!-- http://latin.omdoc.org/logics/description/owl/owl.omdoc?FOLEQD -->
<g id="node3" class="node"><title>http://latin.omdoc.org/logics/description/owl/owl.omdoc?FOLEQD</title>
<a xlink:href="http://latin.omdoc.org/logics/description/owl/owl.omdoc?FOLEQD" class="graphtheory">
<ellipse fill="gray" stroke="black" cx="630.265" cy="-18" rx="46.1964" ry="18"/>
<text text-anchor="middle" x="630.265" y="-14.3" font-family="Times New Roman,serif" font-size="14.00">FOLEQD</text>
</a>
</g>
<!-- http://latin.omdoc.org/logics/description/owl/owl.omdoc?OWLLite&#45;&gt;http://latin.omdoc.org/logics/description/owl/owl.omdoc?FOLEQD -->
<g id="edge3" class="edge"><title>http://latin.omdoc.org/logics/description/owl/owl.omdoc?OWLLite&#45;&gt;http://latin.omdoc.org/logics/description/owl/owl.omdoc?FOLEQD</title>
<a xlink:href="http://latin.omdoc.org/logics/description/owl/owl.omdoc?OWLLiteFOLEQD" class="graphview">
<path fill="none" stroke="black" d="M545.435,-176.814C526.812,-155.721 500.437,-117.993 517.265,-88 531.926,-61.8698 560.953,-44.4605 585.916,-33.6656"/>
<polygon fill="black" stroke="black" points="587.316,-36.8744 595.245,-29.8478 584.665,-30.3959 587.316,-36.8744"/>
</a>
<a xlink:href="http://latin.omdoc.org/logics/description/owl/owl.omdoc?OWLLiteFOLEQD" class="OWLLiteFOLEQD">
<text text-anchor="middle" x="571.765" y="-102.3" font-family="Times New Roman,serif" font-size="14.00">OWLLiteFOLEQD</text>
</a>
</g>
<!-- http://latin.omdoc.org/logics/description/owl/owl.omdoc?OWLDLFOLEQD -->
<g id="node5" class="node"><title>http://latin.omdoc.org/logics/description/owl/owl.omdoc?OWLDLFOLEQD</title>
<a xlink:href="http://latin.omdoc.org/logics/description/owl/owl.omdoc?OWLDLFOLEQD" class="graphtheory">
<ellipse fill="gray" stroke="black" cx="105.265" cy="-106" rx="78.9404" ry="18"/>
<text text-anchor="middle" x="105.265" y="-102.3" font-family="Times New Roman,serif" font-size="14.00">OWLDLFOLEQD</text>
</a>
</g>
<!-- http://latin.omdoc.org/logics/description/owl/owl.omdoc?OWLLite&#45;&gt;http://latin.omdoc.org/logics/description/owl/owl.omdoc?OWLDLFOLEQD -->
<g id="edge5" class="edge"><title>http://latin.omdoc.org/logics/description/owl/owl.omdoc?OWLLite&#45;&gt;http://latin.omdoc.org/logics/description/owl/owl.omdoc?OWLDLFOLEQD</title>
<a xlink:href="http://latin.omdoc.org/logics/description/owl/owl.omdoc?OWLDLFOLEQD?[http://latin.omdoc.org/logics/description/owl/owl.omdoc?OWLLite]" class="graphstructure">
<path fill="none" stroke="black" d="M537.687,-178.288C529.885,-174.164 520.967,-170.207 512.265,-168 490.773,-162.548 129.934,-172.623 113.265,-158 106.583,-152.137 103.878,-143.162 103.071,-134.365"/>
<polygon fill="black" stroke="black" points="106.57,-134.247 102.872,-124.319 99.5709,-134.386 106.57,-134.247"/>
</a>
<a xlink:href="http://latin.omdoc.org/logics/description/owl/owl.omdoc?OWLDLFOLEQD?[http://latin.omdoc.org/logics/description/owl/owl.omdoc?OWLLite]" class="[http://latin.omdoc.org/logics/description/owl/owl.omdoc?OWLLite]">
<text text-anchor="middle" x="305.265" y="-146.3" font-family="Times New Roman,serif" font-size="14.00">[http://latin.omdoc.org/logics/description/owl/owl.omdoc?OWLLite]</text>
</a>
</g>
<!-- http://latin.omdoc.org/logics/description/owl/owl.omdoc?OWLDL -->
<g id="node7" class="node"><title>http://latin.omdoc.org/logics/description/owl/owl.omdoc?OWLDL</title>
<a xlink:href="http://latin.omdoc.org/logics/description/owl/owl.omdoc?OWLDL" class="graphtheory">
<ellipse fill="gray" stroke="black" cx="679.265" cy="-106" rx="43.319" ry="18"/>
<text text-anchor="middle" x="679.265" y="-102.3" font-family="Times New Roman,serif" font-size="14.00">OWLDL</text>
</a>
</g>
<!-- http://latin.omdoc.org/logics/description/owl/owl.omdoc?OWLLite&#45;&gt;http://latin.omdoc.org/logics/description/owl/owl.omdoc?OWLDL -->
<g id="edge7" class="edge"><title>http://latin.omdoc.org/logics/description/owl/owl.omdoc?OWLLite&#45;&gt;http://latin.omdoc.org/logics/description/owl/owl.omdoc?OWLDL</title>
<a class="graphinclude">
<path fill="none" stroke="black" d="M582.09,-177.823C601.047,-164.007 629.219,-143.474 650.356,-128.07"/>
<polygon fill="black" stroke="black" points="652.629,-130.744 658.649,-122.025 648.506,-125.087 652.629,-130.744"/>
</a>
</g>
<!-- http://latin.omdoc.org/logics/description/owl/owl.omdoc?OWLDL&#45;&gt;http://latin.omdoc.org/logics/description/owl/owl.omdoc?FOLEQD -->
<g id="edge29" class="edge"><title>http://latin.omdoc.org/logics/description/owl/owl.omdoc?OWLDL&#45;&gt;http://latin.omdoc.org/logics/description/owl/owl.omdoc?FOLEQD</title>
<a xlink:href="http://latin.omdoc.org/logics/description/owl/owl.omdoc?OWLDLFOLEQD" class="graphview">
<path fill="none" stroke="black" d="M652.318,-91.7042C644.063,-86.1942 635.934,-78.9641 631.265,-70 627.511,-62.7912 626.32,-54.196 626.337,-46.1351"/>
<polygon fill="black" stroke="black" points="629.839,-46.1984 626.941,-36.0077 622.852,-45.7814 629.839,-46.1984"/>
</a>
<a xlink:href="http://latin.omdoc.org/logics/description/owl/owl.omdoc?OWLDLFOLEQD" class="OWLDLFOLEQD">
<text text-anchor="middle" x="684.265" y="-58.3" font-family="Times New Roman,serif" font-size="14.00">OWLDLFOLEQD</text>
</a>
</g>
<!-- http://latin.omdoc.org/logics/description/owl/owl.omdoc?OWL1Datatype -->
<g id="node9" class="node"><title>http://latin.omdoc.org/logics/description/owl/owl.omdoc?OWL1Datatype</title>
<a xlink:href="http://latin.omdoc.org/logics/description/owl/owl.omdoc?OWL1Datatype" class="graphtheory">
<ellipse fill="gray" stroke="black" cx="272.265" cy="-268" rx="68.3664" ry="18"/>
<text text-anchor="middle" x="272.265" y="-264.3" font-family="Times New Roman,serif" font-size="14.00">OWL1Datatype</text>
</a>
</g>
<!-- http://latin.omdoc.org/logics/description/owl/owl.omdoc?OWL1Datatype&#45;&gt;http://latin.omdoc.org/logics/description/owl/owl.omdoc?OWLLite -->
<g id="edge9" class="edge"><title>http://latin.omdoc.org/logics/description/owl/owl.omdoc?OWL1Datatype&#45;&gt;http://latin.omdoc.org/logics/description/owl/owl.omdoc?OWLLite</title>
<a class="graphinclude">
<path fill="none" stroke="black" d="M333.157,-259.847C382.416,-252.934 453.071,-240.446 512.265,-220 517.271,-218.271 522.407,-216.118 527.383,-213.806"/>
<polygon fill="black" stroke="black" points="529.249,-216.789 536.676,-209.233 526.158,-210.508 529.249,-216.789"/>
</a>
</g>
<!-- http://latin.omdoc.org/logics/description/owl/owl.omdoc?OWL1Datatype&#45;&gt;http://latin.omdoc.org/logics/description/owl/owl.omdoc?FOLEQD -->
<g id="edge27" class="edge"><title>http://latin.omdoc.org/logics/description/owl/owl.omdoc?OWL1Datatype&#45;&gt;http://latin.omdoc.org/logics/description/owl/owl.omdoc?FOLEQD</title>
<a xlink:href="http://latin.omdoc.org/logics/description/owl/owl.omdoc?D1FOLEQD" class="graphview">
<path fill="none" stroke="black" d="M205.804,-263.665C164.075,-258.777 110.86,-247.173 71.2655,-220 37.5443,-196.858 19.7838,-195.414 3.26548,-158 -5.8614,-137.327 5.89516,-97.8645 17.2655,-88 58.9451,-51.8401 430.804,-29.182 574.209,-21.7219"/>
<polygon fill="black" stroke="black" points="574.73,-25.1998 584.537,-21.1904 574.37,-18.209 574.73,-25.1998"/>
</a>
<a xlink:href="http://latin.omdoc.org/logics/description/owl/owl.omdoc?D1FOLEQD" class="D1FOLEQD">
<text text-anchor="middle" x="39.7655" y="-146.3" font-family="Times New Roman,serif" font-size="14.00">D1FOLEQD</text>
</a>
</g>
<!-- http://latin.omdoc.org/logics/description/owl/owl.omdoc?OWL1Datatype&#45;&gt;http://latin.omdoc.org/logics/description/owl/owl.omdoc?OWLDLFOLEQD -->
<g id="edge25" class="edge"><title>http://latin.omdoc.org/logics/description/owl/owl.omdoc?OWL1Datatype&#45;&gt;http://latin.omdoc.org/logics/description/owl/owl.omdoc?OWLDLFOLEQD</title>
<a xlink:href="http://latin.omdoc.org/logics/description/owl/owl.omdoc?OWLDLFOLEQD?[http://latin.omdoc.org/logics/description/owl/owl.omdoc?OWL1Datatype]" class="graphstructure">
<path fill="none" stroke="black" d="M211.539,-259.824C163.074,-252.701 100.807,-239.931 85.2655,-220 65.9061,-195.173 78.0677,-157.939 90.2123,-133.076"/>
<polygon fill="black" stroke="black" points="93.4808,-134.376 94.974,-123.887 87.2657,-131.155 93.4808,-134.376"/>
</a>
<a xlink:href="http://latin.omdoc.org/logics/description/owl/owl.omdoc?OWLDLFOLEQD?[http://latin.omdoc.org/logics/description/owl/owl.omdoc?OWL1Datatype]" class="[http://latin.omdoc.org/logics/description/owl/owl.omdoc?OWL1Datatype]">
<text text-anchor="middle" x="294.765" y="-190.3" font-family="Times New Roman,serif" font-size="14.00">[http://latin.omdoc.org/logics/description/owl/owl.omdoc?OWL1Datatype]</text>
</a>
</g>
<!-- http://latin.omdoc.org/logics/description/owl/owl.omdoc?OWLBase -->
<g id="node11" class="node"><title>http://latin.omdoc.org/logics/description/owl/owl.omdoc?OWLBase</title>
<a xlink:href="http://latin.omdoc.org/logics/description/owl/owl.omdoc?OWLBase" class="graphtheory">
<ellipse fill="gray" stroke="black" cx="638.265" cy="-268" rx="49.0941" ry="18"/>
<text text-anchor="middle" x="638.265" y="-264.3" font-family="Times New Roman,serif" font-size="14.00">OWLBase</text>
</a>
</g>
<!-- http://latin.omdoc.org/logics/description/owl/owl.omdoc?OWLBase&#45;&gt;http://latin.omdoc.org/logics/description/owl/owl.omdoc?OWLLite -->
<g id="edge11" class="edge"><title>http://latin.omdoc.org/logics/description/owl/owl.omdoc?OWLBase&#45;&gt;http://latin.omdoc.org/logics/description/owl/owl.omdoc?OWLLite</title>
<a class="graphinclude">
<path fill="none" stroke="black" d="M621.177,-251.021C610.809,-241.326 597.404,-228.792 585.903,-218.038"/>
<polygon fill="black" stroke="black" points="588.001,-215.208 578.307,-210.934 583.22,-220.321 588.001,-215.208"/>
</a>
</g>
<!-- http://latin.omdoc.org/logics/description/owl/owl.omdoc?OWLBase&#45;&gt;http://latin.omdoc.org/logics/description/owl/owl.omdoc?FOLEQD -->
<g id="edge23" class="edge"><title>http://latin.omdoc.org/logics/description/owl/owl.omdoc?OWLBase&#45;&gt;http://latin.omdoc.org/logics/description/owl/owl.omdoc?FOLEQD</title>
<a xlink:href="http://latin.omdoc.org/logics/description/owl/owl.omdoc?OWLBaseFOLEQD" class="graphview">
<path fill="none" stroke="black" d="M656.374,-251.194C696.467,-214.287 785.497,-120.523 737.265,-54 725.243,-37.4178 705.133,-28.5466 685.572,-23.852"/>
<polygon fill="black" stroke="black" points="686.248,-20.4179 675.746,-21.8132 684.826,-27.2719 686.248,-20.4179"/>
</a>
<a xlink:href="http://latin.omdoc.org/logics/description/owl/owl.omdoc?OWLBaseFOLEQD" class="OWLBaseFOLEQD">
<text text-anchor="middle" x="796.765" y="-146.3" font-family="Times New Roman,serif" font-size="14.00">OWLBaseFOLEQD</text>
</a>
</g>
<!-- http://cds.omdoc.org/urtheories?LF -->
<g id="node13" class="node"><title>http://cds.omdoc.org/urtheories?LF</title>
<a xlink:href="http://cds.omdoc.org/urtheories?LF" class="graphtheory">
<ellipse fill="gray" stroke="black" cx="638.265" cy="-342" rx="27" ry="18"/>
<text text-anchor="middle" x="638.265" y="-338.3" font-family="Times New Roman,serif" font-size="14.00">LF</text>
</a>
</g>
<!-- http://cds.omdoc.org/urtheories?LF&#45;&gt;http://latin.omdoc.org/logics/description/owl/owl.omdoc?OWLLite -->
<g id="edge13" class="edge"><title>http://cds.omdoc.org/urtheories?LF&#45;&gt;http://latin.omdoc.org/logics/description/owl/owl.omdoc?OWLLite</title>
<a class="graphmeta">
<path fill="none" stroke="black" d="M619.991,-328.441C606.898,-318.46 589.934,-303.33 580.265,-286 569.303,-266.351 564.646,-241.115 562.677,-222.204"/>
<polygon fill="black" stroke="black" points="566.158,-221.824 561.819,-212.158 559.183,-222.42 566.158,-221.824"/>
</a>
</g>
<!-- http://cds.omdoc.org/urtheories?LF&#45;&gt;http://latin.omdoc.org/logics/description/owl/owl.omdoc?FOLEQD -->
<g id="edge19" class="edge"><title>http://cds.omdoc.org/urtheories?LF&#45;&gt;http://latin.omdoc.org/logics/description/owl/owl.omdoc?FOLEQD</title>
<a class="graphmeta">
<path fill="none" stroke="black" d="M664.867,-338.697C727.354,-332.556 878.265,-313.154 878.265,-269 878.265,-269 878.265,-269 878.265,-105 878.265,-64.0333 755.939,-38.1903 683.111,-26.4346"/>
<polygon fill="black" stroke="black" points="683.604,-22.9692 673.181,-24.8692 682.514,-29.8838 683.604,-22.9692"/>
</a>
</g>
<!-- http://cds.omdoc.org/urtheories?LF&#45;&gt;http://latin.omdoc.org/logics/description/owl/owl.omdoc?OWLDL -->
<g id="edge17" class="edge"><title>http://cds.omdoc.org/urtheories?LF&#45;&gt;http://latin.omdoc.org/logics/description/owl/owl.omdoc?OWLDL</title>
<a class="graphmeta">
<path fill="none" stroke="black" d="M657.325,-329.171C671.009,-319.466 688.374,-304.359 696.265,-286 717.976,-235.492 701.77,-169.762 689.541,-133.658"/>
<polygon fill="black" stroke="black" points="692.714,-132.133 686.076,-123.875 686.115,-134.47 692.714,-132.133"/>
</a>
</g>
<!-- http://cds.omdoc.org/urtheories?LF&#45;&gt;http://latin.omdoc.org/logics/description/owl/owl.omdoc?OWL1Datatype -->
<g id="edge15" class="edge"><title>http://cds.omdoc.org/urtheories?LF&#45;&gt;http://latin.omdoc.org/logics/description/owl/owl.omdoc?OWL1Datatype</title>
<a class="graphmeta">
<path fill="none" stroke="black" d="M612.529,-335.937C555.497,-324.718 417.084,-297.489 335.443,-281.428"/>
<polygon fill="black" stroke="black" points="335.778,-277.927 325.29,-279.431 334.427,-284.796 335.778,-277.927"/>
</a>
</g>
<!-- http://cds.omdoc.org/urtheories?LF&#45;&gt;http://latin.omdoc.org/logics/description/owl/owl.omdoc?OWLBase -->
<g id="edge21" class="edge"><title>http://cds.omdoc.org/urtheories?LF&#45;&gt;http://latin.omdoc.org/logics/description/owl/owl.omdoc?OWLBase</title>
<a class="graphmeta">
<path fill="none" stroke="black" d="M638.265,-323.937C638.265,-315.807 638.265,-305.876 638.265,-296.705"/>
<polygon fill="black" stroke="black" points="641.766,-296.441 638.265,-286.441 634.766,-296.441 641.766,-296.441"/>
</a>
</g>
</g>
</svg>
