<?xml version="1.0" encoding="UTF-8" standalone="no"?>
<!DOCTYPE svg PUBLIC "-//W3C//DTD SVG 1.1//EN"
 "http://www.w3.org/Graphics/SVG/1.1/DTD/svg11.dtd">
<!-- Generated by graphviz version 2.28.0 (20110507.0327)
 -->
<!-- Title: MMT Pages: 1 -->
<svg width="581pt" height="368pt"
 viewBox="0.00 0.00 581.00 368.00" xmlns="http://www.w3.org/2000/svg" xmlns:xlink="http://www.w3.org/1999/xlink">
<g id="graph1" class="graph" transform="scale(1 1) rotate(0) translate(4 364)">
<title>MMT</title>
<polygon fill="white" stroke="white" points="-4,5 -4,-364 578,-364 578,5 -4,5"/>
<!-- http://latin.omdoc.org/logics/proof_theory?SEqual -->
<g id="node2" class="node"><title>http://latin.omdoc.org/logics/proof_theory?SEqual</title>
<a xlink:href="http://latin.omdoc.org/logics/proof_theory?SEqual" class="graphtheory">
<ellipse fill="gray" stroke="black" cx="158" cy="-268" rx="36.096" ry="18"/>
<text text-anchor="middle" x="158" y="-264.3" font-family="Times New Roman,serif" font-size="14.00">SEqual</text>
</a>
</g>
<!-- http://latin.omdoc.org/foundations/hol?SFOL&#45;Pf -->
<g id="node3" class="node"><title>http://latin.omdoc.org/foundations/hol?SFOL&#45;Pf</title>
<a xlink:href="http://latin.omdoc.org/foundations/hol?SFOL-Pf" class="graphtheory">
<ellipse fill="gray" stroke="black" cx="289" cy="-18" rx="44.271" ry="18"/>
<text text-anchor="middle" x="289" y="-14.3" font-family="Times New Roman,serif" font-size="14.00">SFOL&#45;Pf</text>
</a>
</g>
<!-- http://latin.omdoc.org/logics/proof_theory?SEqual&#45;&gt;http://latin.omdoc.org/foundations/hol?SFOL&#45;Pf -->
<g id="edge3" class="edge"><title>http://latin.omdoc.org/logics/proof_theory?SEqual&#45;&gt;http://latin.omdoc.org/foundations/hol?SFOL&#45;Pf</title>
<a xlink:href="http://latin.omdoc.org/translations/sfol_hol?SEqualPF" class="graphview">
<path fill="none" stroke="black" d="M155.624,-249.918C152.929,-224.968 150.795,-177.654 167,-142 186.822,-98.3877 229.205,-61.4307 258.402,-39.73"/>
<polygon fill="black" stroke="black" points="260.593,-42.465 266.629,-33.7578 256.48,-36.8003 260.593,-42.465"/>
</a>
<a xlink:href="http://latin.omdoc.org/translations/sfol_hol?SEqualPF" class="SEqualPF">
<text text-anchor="middle" x="195.5" y="-146.3" font-family="Times New Roman,serif" font-size="14.00">SEqualPF</text>
</a>
</g>
<!-- http://latin.omdoc.org/logics/proof_theory?SIFOLEQ -->
<g id="node13" class="node"><title>http://latin.omdoc.org/logics/proof_theory?SIFOLEQ</title>
<a xlink:href="http://latin.omdoc.org/logics/proof_theory?SIFOLEQ" class="graphtheory">
<ellipse fill="gray" stroke="black" cx="340" cy="-106" rx="48.6179" ry="18"/>
<text text-anchor="middle" x="340" y="-102.3" font-family="Times New Roman,serif" font-size="14.00">SIFOLEQ</text>
</a>
</g>
<!-- http://latin.omdoc.org/logics/proof_theory?SEqual&#45;&gt;http://latin.omdoc.org/logics/proof_theory?SIFOLEQ -->
<g id="edge29" class="edge"><title>http://latin.omdoc.org/logics/proof_theory?SEqual&#45;&gt;http://latin.omdoc.org/logics/proof_theory?SIFOLEQ</title>
<a class="graphinclude">
<path fill="none" stroke="black" d="M165.488,-249.941C178.016,-223.267 205.677,-171.674 244,-142 257.358,-131.657 274.063,-124.165 289.776,-118.835"/>
<polygon fill="black" stroke="black" points="290.916,-122.146 299.393,-115.79 288.802,-115.472 290.916,-122.146"/>
</a>
</g>
<!-- http://latin.omdoc.org/logics/proof_theory?BaseSFOL -->
<g id="node5" class="node"><title>http://latin.omdoc.org/logics/proof_theory?BaseSFOL</title>
<a xlink:href="http://latin.omdoc.org/logics/proof_theory?BaseSFOL" class="graphtheory">
<ellipse fill="gray" stroke="black" cx="51" cy="-342" rx="51.0191" ry="18"/>
<text text-anchor="middle" x="51" y="-338.3" font-family="Times New Roman,serif" font-size="14.00">BaseSFOL</text>
</a>
</g>
<!-- http://latin.omdoc.org/logics/proof_theory?BaseSFOL&#45;&gt;http://latin.omdoc.org/logics/proof_theory?SEqual -->
<g id="edge21" class="edge"><title>http://latin.omdoc.org/logics/proof_theory?BaseSFOL&#45;&gt;http://latin.omdoc.org/logics/proof_theory?SEqual</title>
<a class="graphinclude">
<path fill="none" stroke="black" d="M73.6919,-325.731C89.6772,-314.974 111.229,-300.472 128.541,-288.823"/>
<polygon fill="black" stroke="black" points="130.812,-291.513 137.155,-283.026 126.905,-285.705 130.812,-291.513"/>
</a>
</g>
<!-- http://latin.omdoc.org/logics/proof_theory?BaseSFOL&#45;&gt;http://latin.omdoc.org/foundations/hol?SFOL&#45;Pf -->
<g id="edge5" class="edge"><title>http://latin.omdoc.org/logics/proof_theory?BaseSFOL&#45;&gt;http://latin.omdoc.org/foundations/hol?SFOL&#45;Pf</title>
<a xlink:href="http://latin.omdoc.org/translations/sfol_hol?BaseSFOLPF" class="graphview">
<path fill="none" stroke="black" d="M51,-323.834C51,-309.247 51,-287.75 51,-269 51,-269 51,-269 51,-105 51,-65.533 168.225,-39.1043 238.135,-26.8522"/>
<polygon fill="black" stroke="black" points="238.821,-30.2857 248.086,-25.1475 237.639,-23.3862 238.821,-30.2857"/>
</a>
<a xlink:href="http://latin.omdoc.org/translations/sfol_hol?BaseSFOLPF" class="BaseSFOLPF">
<text text-anchor="middle" x="90.5" y="-190.3" font-family="Times New Roman,serif" font-size="14.00">BaseSFOLPF</text>
</a>
</g>
<!-- http://latin.omdoc.org/logics/proof_theory?SForall -->
<g id="node7" class="node"><title>http://latin.omdoc.org/logics/proof_theory?SForall</title>
<a xlink:href="http://latin.omdoc.org/logics/proof_theory?SForall" class="graphtheory">
<ellipse fill="gray" stroke="black" cx="263" cy="-268" rx="37.0701" ry="18"/>
<text text-anchor="middle" x="263" y="-264.3" font-family="Times New Roman,serif" font-size="14.00">SForall</text>
</a>
</g>
<!-- http://latin.omdoc.org/logics/proof_theory?BaseSFOL&#45;&gt;http://latin.omdoc.org/logics/proof_theory?SForall -->
<g id="edge23" class="edge"><title>http://latin.omdoc.org/logics/proof_theory?BaseSFOL&#45;&gt;http://latin.omdoc.org/logics/proof_theory?SForall</title>
<a class="graphinclude">
<path fill="none" stroke="black" d="M86.484,-328.949C124.517,-316.032 184.715,-295.587 224.038,-282.233"/>
<polygon fill="black" stroke="black" points="225.216,-285.529 233.559,-278.999 222.964,-278.901 225.216,-285.529"/>
</a>
</g>
<!-- http://latin.omdoc.org/logics/proof_theory?SExists -->
<g id="node9" class="node"><title>http://latin.omdoc.org/logics/proof_theory?SExists</title>
<a xlink:href="http://latin.omdoc.org/logics/proof_theory?SExists" class="graphtheory">
<ellipse fill="gray" stroke="black" cx="510" cy="-268" rx="38.0212" ry="18"/>
<text text-anchor="middle" x="510" y="-264.3" font-family="Times New Roman,serif" font-size="14.00">SExists</text>
</a>
</g>
<!-- http://latin.omdoc.org/logics/proof_theory?BaseSFOL&#45;&gt;http://latin.omdoc.org/logics/proof_theory?SExists -->
<g id="edge27" class="edge"><title>http://latin.omdoc.org/logics/proof_theory?BaseSFOL&#45;&gt;http://latin.omdoc.org/logics/proof_theory?SExists</title>
<a class="graphinclude">
<path fill="none" stroke="black" d="M101.243,-338.23C165.769,-334.077 281.002,-324.65 378,-306 409.259,-299.99 443.885,-290.16 469.828,-282.143"/>
<polygon fill="black" stroke="black" points="471.175,-285.389 479.672,-279.059 469.083,-278.709 471.175,-285.389"/>
</a>
</g>
<!-- http://latin.omdoc.org/logics/proof_theory?SIFOL -->
<g id="node11" class="node"><title>http://latin.omdoc.org/logics/proof_theory?SIFOL</title>
<a xlink:href="http://latin.omdoc.org/logics/proof_theory?SIFOL" class="graphtheory">
<ellipse fill="gray" stroke="black" cx="425" cy="-194" rx="36.096" ry="18"/>
<text text-anchor="middle" x="425" y="-190.3" font-family="Times New Roman,serif" font-size="14.00">SIFOL</text>
</a>
</g>
<!-- http://latin.omdoc.org/logics/proof_theory?BaseSFOL&#45;&gt;http://latin.omdoc.org/logics/proof_theory?SIFOL -->
<g id="edge25" class="edge"><title>http://latin.omdoc.org/logics/proof_theory?BaseSFOL&#45;&gt;http://latin.omdoc.org/logics/proof_theory?SIFOL</title>
<a class="graphinclude">
<path fill="none" stroke="black" d="M100.654,-337.128C154.22,-331.45 240.969,-317.83 309,-286 345.341,-268.997 380.669,-238.698 402.599,-217.761"/>
<polygon fill="black" stroke="black" points="405.323,-219.995 410.05,-210.513 400.442,-214.977 405.323,-219.995"/>
</a>
</g>
<!-- http://latin.omdoc.org/logics/proof_theory?SForall&#45;&gt;http://latin.omdoc.org/foundations/hol?SFOL&#45;Pf -->
<g id="edge7" class="edge"><title>http://latin.omdoc.org/logics/proof_theory?SForall&#45;&gt;http://latin.omdoc.org/foundations/hol?SFOL&#45;Pf</title>
<a xlink:href="http://latin.omdoc.org/translations/sfol_hol?SForallPF" class="graphview">
<path fill="none" stroke="black" d="M264.787,-249.954C269.221,-207.657 280.759,-97.6058 286.148,-46.1993"/>
<polygon fill="black" stroke="black" points="289.639,-46.4758 287.2,-36.1653 282.677,-45.7459 289.639,-46.4758"/>
</a>
<a xlink:href="http://latin.omdoc.org/translations/sfol_hol?SForallPF" class="SForallPF">
<text text-anchor="middle" x="305" y="-146.3" font-family="Times New Roman,serif" font-size="14.00">SForallPF</text>
</a>
</g>
<!-- http://latin.omdoc.org/logics/proof_theory?SForall&#45;&gt;http://latin.omdoc.org/logics/proof_theory?SIFOL -->
<g id="edge19" class="edge"><title>http://latin.omdoc.org/logics/proof_theory?SForall&#45;&gt;http://latin.omdoc.org/logics/proof_theory?SIFOL</title>
<a class="graphinclude">
<path fill="none" stroke="black" d="M289.389,-255.272C316.653,-243.154 359.368,-224.17 389.563,-210.75"/>
<polygon fill="black" stroke="black" points="391.174,-213.864 398.891,-206.604 388.331,-207.467 391.174,-213.864"/>
</a>
</g>
<!-- http://latin.omdoc.org/logics/proof_theory?SExists&#45;&gt;http://latin.omdoc.org/foundations/hol?SFOL&#45;Pf -->
<g id="edge9" class="edge"><title>http://latin.omdoc.org/logics/proof_theory?SExists&#45;&gt;http://latin.omdoc.org/foundations/hol?SFOL&#45;Pf</title>
<a xlink:href="http://latin.omdoc.org/translations/sfol_hol?SExistsPF" class="graphview">
<path fill="none" stroke="black" d="M512.846,-249.85C517.546,-215.629 523.212,-137.878 488,-88 455.582,-42.0799 390.343,-26.4282 343.389,-21.2514"/>
<polygon fill="black" stroke="black" points="343.661,-17.7615 333.368,-20.2733 342.981,-24.7284 343.661,-17.7615"/>
</a>
<a xlink:href="http://latin.omdoc.org/translations/sfol_hol?SExistsPF" class="SExistsPF">
<text text-anchor="middle" x="543.5" y="-146.3" font-family="Times New Roman,serif" font-size="14.00">SExistsPF</text>
</a>
</g>
<!-- http://latin.omdoc.org/logics/proof_theory?SExists&#45;&gt;http://latin.omdoc.org/logics/proof_theory?SIFOL -->
<g id="edge17" class="edge"><title>http://latin.omdoc.org/logics/proof_theory?SExists&#45;&gt;http://latin.omdoc.org/logics/proof_theory?SIFOL</title>
<a class="graphinclude">
<path fill="none" stroke="black" d="M491.974,-251.731C479.947,-241.544 463.955,-227.997 450.614,-216.696"/>
<polygon fill="black" stroke="black" points="452.602,-213.793 442.709,-210 448.077,-219.135 452.602,-213.793"/>
</a>
</g>
<!-- http://latin.omdoc.org/logics/proof_theory?SIFOL&#45;&gt;http://latin.omdoc.org/foundations/hol?SFOL&#45;Pf -->
<g id="edge11" class="edge"><title>http://latin.omdoc.org/logics/proof_theory?SIFOL&#45;&gt;http://latin.omdoc.org/foundations/hol?SFOL&#45;Pf</title>
<a xlink:href="http://latin.omdoc.org/translations/sfol_hol?SIFOLPF" class="graphview">
<path fill="none" stroke="black" d="M427.132,-175.651C429.668,-146.723 430.29,-88.4209 400,-54 385.489,-37.5096 363.285,-28.713 342.539,-24.0496"/>
<polygon fill="black" stroke="black" points="343,-20.5732 332.512,-22.0767 341.649,-27.4415 343,-20.5732"/>
</a>
<a xlink:href="http://latin.omdoc.org/translations/sfol_hol?SIFOLPF" class="SIFOLPF">
<text text-anchor="middle" x="455.5" y="-102.3" font-family="Times New Roman,serif" font-size="14.00">SIFOLPF</text>
</a>
</g>
<!-- http://latin.omdoc.org/logics/proof_theory?SIFOL&#45;&gt;http://latin.omdoc.org/logics/proof_theory?SIFOLEQ -->
<g id="edge15" class="edge"><title>http://latin.omdoc.org/logics/proof_theory?SIFOL&#45;&gt;http://latin.omdoc.org/logics/proof_theory?SIFOLEQ</title>
<a class="graphinclude">
<path fill="none" stroke="black" d="M409.804,-177.625C396.873,-164.542 378.093,-145.542 363.27,-130.543"/>
<polygon fill="black" stroke="black" points="365.449,-127.77 355.93,-123.118 360.47,-132.69 365.449,-127.77"/>
</a>
</g>
<!-- http://latin.omdoc.org/logics/proof_theory?SIFOLEQ&#45;&gt;http://latin.omdoc.org/foundations/hol?SFOL&#45;Pf -->
<g id="edge13" class="edge"><title>http://latin.omdoc.org/logics/proof_theory?SIFOLEQ&#45;&gt;http://latin.omdoc.org/foundations/hol?SFOL&#45;Pf</title>
<a xlink:href="http://latin.omdoc.org/translations/sfol_hol?SIFOLEQPF" class="graphview">
<path fill="none" stroke="black" d="M329.924,-88.0092C322.542,-75.561 312.398,-58.4547 304.056,-44.3882"/>
<polygon fill="black" stroke="black" points="306.993,-42.4789 298.881,-35.6629 300.972,-46.0495 306.993,-42.4789"/>
</a>
<a xlink:href="http://latin.omdoc.org/translations/sfol_hol?SIFOLEQPF" class="SIFOLEQPF">
<text text-anchor="middle" x="358" y="-58.3" font-family="Times New Roman,serif" font-size="14.00">SIFOLEQPF</text>
</a>
</g>
</g>
</svg>
