<?xml version="1.0" encoding="UTF-8" standalone="no"?>
<!DOCTYPE svg PUBLIC "-//W3C//DTD SVG 1.1//EN"
 "http://www.w3.org/Graphics/SVG/1.1/DTD/svg11.dtd">
<!-- Generated by graphviz version 2.28.0 (20110507.0327)
 -->
<!-- Title: MMT Pages: 1 -->
<svg width="563pt" height="280pt"
 viewBox="0.00 0.00 563.00 280.00" xmlns="http://www.w3.org/2000/svg" xmlns:xlink="http://www.w3.org/1999/xlink">
<g id="graph1" class="graph" transform="scale(1 1) rotate(0) translate(4 276)">
<title>MMT</title>
<polygon fill="white" stroke="white" points="-4,5 -4,-276 560,-276 560,5 -4,5"/>
<g id="graph2" class="cluster"><title>cluster_local</title>
<polygon fill="none" stroke="black" points="215,-80 215,-206 323,-206 323,-80 215,-80"/>
</g>
<!-- http://latin.omdoc.org/foundations/minimal?Universes -->
<g id="node2" class="node"><title>http://latin.omdoc.org/foundations/minimal?Universes</title>
<a xlink:href="http://latin.omdoc.org/foundations/minimal?Universes" class="graphtheory">
<ellipse fill="none" stroke="black" cx="269" cy="-180" rx="46.2191" ry="18"/>
<text text-anchor="middle" x="269" y="-176.3" font-family="Times New Roman,serif" font-size="14.00">Universes</text>
</a>
</g>
<!-- http://latin.omdoc.org/foundations/minimal?List -->
<g id="node3" class="node"><title>http://latin.omdoc.org/foundations/minimal?List</title>
<a xlink:href="http://latin.omdoc.org/foundations/minimal?List" class="graphtheory">
<ellipse fill="none" stroke="black" cx="287" cy="-106" rx="27" ry="18"/>
<text text-anchor="middle" x="287" y="-102.3" font-family="Times New Roman,serif" font-size="14.00">List</text>
</a>
</g>
<!-- http://latin.omdoc.org/foundations/minimal?Universes&#45;&gt;http://latin.omdoc.org/foundations/minimal?List -->
<g id="edge15" class="edge"><title>http://latin.omdoc.org/foundations/minimal?Universes&#45;&gt;http://latin.omdoc.org/foundations/minimal?List</title>
<a class="graphinclude">
<path fill="none" stroke="black" d="M273.266,-161.937C275.373,-153.508 277.964,-143.143 280.326,-133.696"/>
<polygon fill="black" stroke="black" points="283.735,-134.491 282.765,-123.941 276.944,-132.793 283.735,-134.491"/>
</a>
</g>
<!-- http://latin.omdoc.org/logics/model_theory?CLMOD -->
<g id="node4" class="node"><title>http://latin.omdoc.org/logics/model_theory?CLMOD</title>
<a xlink:href="http://latin.omdoc.org/logics/model_theory?CLMOD" class="graphtheory">
<ellipse fill="gray" stroke="black" cx="160" cy="-106" rx="43.319" ry="18"/>
<text text-anchor="middle" x="160" y="-102.3" font-family="Times New Roman,serif" font-size="14.00">CLMOD</text>
</a>
</g>
<!-- http://latin.omdoc.org/foundations/minimal?Universes&#45;&gt;http://latin.omdoc.org/logics/model_theory?CLMOD -->
<g id="edge3" class="edge"><title>http://latin.omdoc.org/foundations/minimal?Universes&#45;&gt;http://latin.omdoc.org/logics/model_theory?CLMOD</title>
<a class="graphinclude">
<path fill="none" stroke="black" d="M246.415,-164.082C230.379,-153.489 208.65,-139.136 190.993,-127.473"/>
<polygon fill="black" stroke="black" points="192.456,-124.244 182.183,-121.653 188.598,-130.085 192.456,-124.244"/>
</a>
</g>
<!-- http://latin.omdoc.org/logics/model_theory/kripke?Kripke -->
<g id="node6" class="node"><title>http://latin.omdoc.org/logics/model_theory/kripke?Kripke</title>
<a xlink:href="http://latin.omdoc.org/logics/model_theory/kripke?Kripke" class="graphtheory">
<ellipse fill="gray" stroke="black" cx="232" cy="-18" rx="35.1455" ry="18"/>
<text text-anchor="middle" x="232" y="-14.3" font-family="Times New Roman,serif" font-size="14.00">Kripke</text>
</a>
</g>
<!-- http://latin.omdoc.org/foundations/minimal?Universes&#45;&gt;http://latin.omdoc.org/logics/model_theory/kripke?Kripke -->
<g id="edge5" class="edge"><title>http://latin.omdoc.org/foundations/minimal?Universes&#45;&gt;http://latin.omdoc.org/logics/model_theory/kripke?Kripke</title>
<a class="graphinclude">
<path fill="none" stroke="black" d="M262.71,-161.838C258.935,-151.078 254.251,-136.857 251,-124 244.396,-97.8808 239.164,-67.5518 235.876,-46.2253"/>
<polygon fill="black" stroke="black" points="239.324,-45.6202 234.378,-36.2505 232.402,-46.6593 239.324,-45.6202"/>
</a>
</g>
<!-- http://latin.omdoc.org/logics/model_theory?SFOLMOD -->
<g id="node8" class="node"><title>http://latin.omdoc.org/logics/model_theory?SFOLMOD</title>
<a xlink:href="http://latin.omdoc.org/logics/model_theory?SFOLMOD" class="graphtheory">
<ellipse fill="gray" stroke="black" cx="387" cy="-106" rx="54.3924" ry="18"/>
<text text-anchor="middle" x="387" y="-102.3" font-family="Times New Roman,serif" font-size="14.00">SFOLMOD</text>
</a>
</g>
<!-- http://latin.omdoc.org/foundations/minimal?Universes&#45;&gt;http://latin.omdoc.org/logics/model_theory?SFOLMOD -->
<g id="edge7" class="edge"><title>http://latin.omdoc.org/foundations/minimal?Universes&#45;&gt;http://latin.omdoc.org/logics/model_theory?SFOLMOD</title>
<a class="graphinclude">
<path fill="none" stroke="black" d="M292.879,-164.43C310.399,-153.74 334.415,-139.086 353.802,-127.256"/>
<polygon fill="black" stroke="black" points="355.631,-130.241 362.344,-122.044 351.985,-124.265 355.631,-130.241"/>
</a>
</g>
<!-- http://latin.omdoc.org/logics/model_theory?FOLMOD -->
<g id="node10" class="node"><title>http://latin.omdoc.org/logics/model_theory?FOLMOD</title>
<a xlink:href="http://latin.omdoc.org/logics/model_theory?FOLMOD" class="graphtheory">
<ellipse fill="gray" stroke="black" cx="49" cy="-106" rx="49.0941" ry="18"/>
<text text-anchor="middle" x="49" y="-102.3" font-family="Times New Roman,serif" font-size="14.00">FOLMOD</text>
</a>
</g>
<!-- http://latin.omdoc.org/foundations/minimal?Universes&#45;&gt;http://latin.omdoc.org/logics/model_theory?FOLMOD -->
<g id="edge9" class="edge"><title>http://latin.omdoc.org/foundations/minimal?Universes&#45;&gt;http://latin.omdoc.org/logics/model_theory?FOLMOD</title>
<a class="graphinclude">
<path fill="none" stroke="black" d="M235.404,-167.501C229.926,-165.648 224.308,-163.761 219,-162 176.929,-148.043 128.858,-132.531 94.5932,-121.548"/>
<polygon fill="black" stroke="black" points="95.4599,-118.151 84.8688,-118.434 93.3249,-124.817 95.4599,-118.151"/>
</a>
</g>
<!-- http://latin.omdoc.org/logics/model_theory?FOLMOD&#45;&gt;http://latin.omdoc.org/logics/model_theory/kripke?Kripke -->
<g id="edge29" class="edge"><title>http://latin.omdoc.org/logics/model_theory?FOLMOD&#45;&gt;http://latin.omdoc.org/logics/model_theory/kripke?Kripke</title>
<a xlink:href="http://latin.omdoc.org/translations/ml_fol?FOLMOD-Kripke" class="graphview">
<path fill="none" stroke="black" d="M66.2991,-89.0431C79.1797,-77.8884 97.6401,-63.3685 116,-54 139.236,-42.1435 167.18,-33.561 189.818,-27.8627"/>
<polygon fill="black" stroke="black" points="190.913,-31.1988 199.81,-25.4462 189.268,-24.395 190.913,-31.1988"/>
</a>
<a xlink:href="http://latin.omdoc.org/translations/ml_fol?FOLMOD-Kripke" class="FOLMOD&#45;Kripke">
<text text-anchor="middle" x="167" y="-58.3" font-family="Times New Roman,serif" font-size="14.00">FOLMOD&#45;Kripke</text>
</a>
</g>
<!-- http://latin.omdoc.org/foundations/minimal?Bool -->
<g id="node12" class="node"><title>http://latin.omdoc.org/foundations/minimal?Bool</title>
<a xlink:href="http://latin.omdoc.org/foundations/minimal?Bool" class="graphtheory">
<ellipse fill="gray" stroke="black" cx="527" cy="-180" rx="28.3955" ry="18"/>
<text text-anchor="middle" x="527" y="-176.3" font-family="Times New Roman,serif" font-size="14.00">Bool</text>
</a>
</g>
<!-- http://latin.omdoc.org/foundations/minimal?Bool&#45;&gt;http://latin.omdoc.org/foundations/minimal?Universes -->
<g id="edge11" class="edge"><title>http://latin.omdoc.org/foundations/minimal?Bool&#45;&gt;http://latin.omdoc.org/foundations/minimal?Universes</title>
<a class="graphinclude">
<path fill="none" stroke="black" d="M498.444,-180C440.674,-180 382.904,-180 325.134,-180"/>
<polygon fill="black" stroke="black" points="325.107,-176.5 315.107,-180 325.107,-183.5 325.107,-176.5"/>
</a>
</g>
<!-- http://cds.omdoc.org/urtheories?LF -->
<g id="node14" class="node"><title>http://cds.omdoc.org/urtheories?LF</title>
<a xlink:href="http://cds.omdoc.org/urtheories?LF" class="graphtheory">
<ellipse fill="gray" stroke="black" cx="343" cy="-254" rx="27" ry="18"/>
<text text-anchor="middle" x="343" y="-250.3" font-family="Times New Roman,serif" font-size="14.00">LF</text>
</a>
</g>
<!-- http://cds.omdoc.org/urtheories?LF&#45;&gt;http://latin.omdoc.org/foundations/minimal?Universes -->
<g id="edge13" class="edge"><title>http://cds.omdoc.org/urtheories?LF&#45;&gt;http://latin.omdoc.org/foundations/minimal?Universes</title>
<a class="graphmeta">
<path fill="none" stroke="black" d="M328.38,-238.775C318.222,-228.891 304.458,-215.5 292.74,-204.098"/>
<polygon fill="black" stroke="black" points="295.001,-201.415 285.393,-196.95 290.119,-206.432 295.001,-201.415"/>
</a>
</g>
<!-- http://cds.omdoc.org/urtheories?LF&#45;&gt;http://latin.omdoc.org/foundations/minimal?List -->
<g id="edge17" class="edge"><title>http://cds.omdoc.org/urtheories?LF&#45;&gt;http://latin.omdoc.org/foundations/minimal?List</title>
<a class="graphmeta">
<path fill="none" stroke="black" d="M341.426,-235.981C339.248,-217.248 334.346,-186.538 324,-162 319.392,-151.071 312.497,-140.028 305.904,-130.733"/>
<polygon fill="black" stroke="black" points="308.518,-128.381 299.76,-122.419 302.888,-132.541 308.518,-128.381"/>
</a>
</g>
<!-- http://cds.omdoc.org/urtheories?LF&#45;&gt;http://latin.omdoc.org/logics/model_theory?CLMOD -->
<g id="edge25" class="edge"><title>http://cds.omdoc.org/urtheories?LF&#45;&gt;http://latin.omdoc.org/logics/model_theory?CLMOD</title>
<a class="graphmeta">
<path fill="none" stroke="black" d="M316.798,-249.514C287.875,-244.454 241.397,-232.584 211,-206 189.139,-186.881 175.374,-156.114 167.73,-133.951"/>
<polygon fill="black" stroke="black" points="170.965,-132.581 164.551,-124.148 164.307,-134.74 170.965,-132.581"/>
</a>
</g>
<!-- http://cds.omdoc.org/urtheories?LF&#45;&gt;http://latin.omdoc.org/logics/model_theory/kripke?Kripke -->
<g id="edge19" class="edge"><title>http://cds.omdoc.org/urtheories?LF&#45;&gt;http://latin.omdoc.org/logics/model_theory/kripke?Kripke</title>
<a class="graphmeta">
<path fill="none" stroke="black" d="M361.331,-240.525C402.021,-211.32 493.007,-136.693 450,-80 428.993,-52.3085 332.943,-33.7621 275.579,-24.9432"/>
<polygon fill="black" stroke="black" points="276.098,-21.482 265.689,-23.4601 275.059,-28.4045 276.098,-21.482"/>
</a>
</g>
<!-- http://cds.omdoc.org/urtheories?LF&#45;&gt;http://latin.omdoc.org/logics/model_theory?SFOLMOD -->
<g id="edge23" class="edge"><title>http://cds.omdoc.org/urtheories?LF&#45;&gt;http://latin.omdoc.org/logics/model_theory?SFOLMOD</title>
<a class="graphmeta">
<path fill="none" stroke="black" d="M350.095,-236.412C352.441,-230.638 354.969,-224.083 357,-218 366.441,-189.721 375.077,-156.66 380.634,-134.02"/>
<polygon fill="black" stroke="black" points="384.082,-134.651 383.033,-124.108 377.279,-133.004 384.082,-134.651"/>
</a>
</g>
<!-- http://cds.omdoc.org/urtheories?LF&#45;&gt;http://latin.omdoc.org/logics/model_theory?FOLMOD -->
<g id="edge27" class="edge"><title>http://cds.omdoc.org/urtheories?LF&#45;&gt;http://latin.omdoc.org/logics/model_theory?FOLMOD</title>
<a class="graphmeta">
<path fill="none" stroke="black" d="M316.969,-248.903C283.11,-242.865 222.767,-229.652 176,-206 136.328,-185.936 96.9378,-152.598 72.7874,-130.219"/>
<polygon fill="black" stroke="black" points="74.8852,-127.387 65.2032,-123.085 70.089,-132.486 74.8852,-127.387"/>
</a>
</g>
<!-- http://cds.omdoc.org/urtheories?LF&#45;&gt;http://latin.omdoc.org/foundations/minimal?Bool -->
<g id="edge21" class="edge"><title>http://cds.omdoc.org/urtheories?LF&#45;&gt;http://latin.omdoc.org/foundations/minimal?Bool</title>
<a class="graphmeta">
<path fill="none" stroke="black" d="M369.501,-250.155C398.85,-246.176 446.915,-237.162 484,-218 491.628,-214.058 499.048,-208.51 505.517,-202.906"/>
<polygon fill="black" stroke="black" points="508.151,-205.239 513.146,-195.896 503.415,-200.085 508.151,-205.239"/>
</a>
</g>
</g>
</svg>
