<?xml version="1.0" encoding="UTF-8" standalone="no"?>
<!DOCTYPE svg PUBLIC "-//W3C//DTD SVG 1.1//EN"
 "http://www.w3.org/Graphics/SVG/1.1/DTD/svg11.dtd">
<!-- Generated by graphviz version 2.28.0 (20110507.0327)
 -->
<!-- Title: MMT Pages: 1 -->
<svg width="566pt" height="294pt"
 viewBox="0.00 0.00 566.00 294.00" xmlns="http://www.w3.org/2000/svg" xmlns:xlink="http://www.w3.org/1999/xlink">
<g id="graph1" class="graph" transform="scale(1 1) rotate(0) translate(4 290)">
<title>MMT</title>
<polygon fill="white" stroke="white" points="-4,5 -4,-290 563,-290 563,5 -4,5"/>
<!-- http://latin.omdoc.org/logics/syntax?PL -->
<g id="node2" class="node"><title>http://latin.omdoc.org/logics/syntax?PL</title>
<a xlink:href="http://latin.omdoc.org/logics/syntax?PL" class="graphtheory">
<ellipse fill="gray" stroke="black" cx="266" cy="-106" rx="27" ry="18"/>
<text text-anchor="middle" x="266" y="-102.3" font-family="Times New Roman,serif" font-size="14.00">PL</text>
</a>
</g>
<!-- http://latin.omdoc.org/foundations/minimal?Bool -->
<g id="node3" class="node"><title>http://latin.omdoc.org/foundations/minimal?Bool</title>
<a xlink:href="http://latin.omdoc.org/foundations/minimal?Bool" class="graphtheory">
<ellipse fill="gray" stroke="black" cx="312" cy="-18" rx="28.3955" ry="18"/>
<text text-anchor="middle" x="312" y="-14.3" font-family="Times New Roman,serif" font-size="14.00">Bool</text>
</a>
</g>
<!-- http://latin.omdoc.org/logics/syntax?PL&#45;&gt;http://latin.omdoc.org/foundations/minimal?Bool -->
<g id="edge3" class="edge"><title>http://latin.omdoc.org/logics/syntax?PL&#45;&gt;http://latin.omdoc.org/foundations/minimal?Bool</title>
<a xlink:href="http://latin.omdoc.org/logics/model_theory?PL" class="graphview">
<path fill="none" stroke="black" d="M274.652,-88.8241C281.356,-76.2912 290.767,-58.6966 298.465,-44.3051"/>
<polygon fill="black" stroke="black" points="301.6,-45.8645 303.23,-35.3958 295.427,-42.5629 301.6,-45.8645"/>
</a>
<a xlink:href="http://latin.omdoc.org/logics/model_theory?PL" class="PL">
<text text-anchor="middle" x="302.5" y="-58.3" font-family="Times New Roman,serif" font-size="14.00">PL</text>
</a>
</g>
<!-- http://latin.omdoc.org/logics/syntax?CONJ -->
<g id="node5" class="node"><title>http://latin.omdoc.org/logics/syntax?CONJ</title>
<a xlink:href="http://latin.omdoc.org/logics/syntax?CONJ" class="graphtheory">
<ellipse fill="gray" stroke="black" cx="120" cy="-194" rx="33.1991" ry="18"/>
<text text-anchor="middle" x="120" y="-190.3" font-family="Times New Roman,serif" font-size="14.00">CONJ</text>
</a>
</g>
<!-- http://latin.omdoc.org/logics/syntax?CONJ&#45;&gt;http://latin.omdoc.org/logics/syntax?PL -->
<g id="edge43" class="edge"><title>http://latin.omdoc.org/logics/syntax?CONJ&#45;&gt;http://latin.omdoc.org/logics/syntax?PL</title>
<a class="graphinclude">
<path fill="none" stroke="black" d="M141.858,-180.125C167.301,-165.138 209.401,-140.339 237.419,-123.836"/>
<polygon fill="black" stroke="black" points="239.496,-126.674 246.336,-118.583 235.943,-120.643 239.496,-126.674"/>
</a>
</g>
<!-- http://latin.omdoc.org/logics/syntax?CONJ&#45;&gt;http://latin.omdoc.org/foundations/minimal?Bool -->
<g id="edge5" class="edge"><title>http://latin.omdoc.org/logics/syntax?CONJ&#45;&gt;http://latin.omdoc.org/foundations/minimal?Bool</title>
<a xlink:href="http://latin.omdoc.org/logics/model_theory?CONJ" class="graphview">
<path fill="none" stroke="black" d="M121.349,-175.955C123.909,-153.583 131.24,-114.1 152,-88 182.294,-49.9126 237.699,-32.4461 274.691,-24.7244"/>
<polygon fill="black" stroke="black" points="275.453,-28.1419 284.6,-22.7959 274.116,-21.2708 275.453,-28.1419"/>
</a>
<a xlink:href="http://latin.omdoc.org/logics/model_theory?CONJ" class="CONJ">
<text text-anchor="middle" x="170" y="-102.3" font-family="Times New Roman,serif" font-size="14.00">CONJ</text>
</a>
</g>
<!-- http://latin.omdoc.org/logics/syntax?Falsity -->
<g id="node7" class="node"><title>http://latin.omdoc.org/logics/syntax?Falsity</title>
<a xlink:href="http://latin.omdoc.org/logics/syntax?Falsity" class="graphtheory">
<ellipse fill="gray" stroke="black" cx="34" cy="-194" rx="34.1708" ry="18"/>
<text text-anchor="middle" x="34" y="-190.3" font-family="Times New Roman,serif" font-size="14.00">Falsity</text>
</a>
</g>
<!-- http://latin.omdoc.org/logics/syntax?Falsity&#45;&gt;http://latin.omdoc.org/logics/syntax?PL -->
<g id="edge41" class="edge"><title>http://latin.omdoc.org/logics/syntax?Falsity&#45;&gt;http://latin.omdoc.org/logics/syntax?PL</title>
<a class="graphinclude">
<path fill="none" stroke="black" d="M60.3169,-182.41C65.8145,-180.25 71.585,-178.021 77,-176 142.319,-151.623 159.885,-148.917 225,-124 228.095,-122.816 231.306,-121.55 234.509,-120.263"/>
<polygon fill="black" stroke="black" points="236.027,-123.423 243.96,-116.4 233.379,-116.943 236.027,-123.423"/>
</a>
</g>
<!-- http://latin.omdoc.org/logics/syntax?Falsity&#45;&gt;http://latin.omdoc.org/foundations/minimal?Bool -->
<g id="edge7" class="edge"><title>http://latin.omdoc.org/logics/syntax?Falsity&#45;&gt;http://latin.omdoc.org/foundations/minimal?Bool</title>
<a xlink:href="http://latin.omdoc.org/logics/model_theory?Falsity" class="graphview">
<path fill="none" stroke="black" d="M39.757,-175.955C48.2021,-153.219 65.9422,-112.944 93,-88 143.652,-41.3048 225.72,-26.21 273.705,-21.3306"/>
<polygon fill="black" stroke="black" points="274.053,-24.8134 283.691,-20.413 273.413,-17.8428 274.053,-24.8134"/>
</a>
<a xlink:href="http://latin.omdoc.org/logics/model_theory?Falsity" class="Falsity">
<text text-anchor="middle" x="111.5" y="-102.3" font-family="Times New Roman,serif" font-size="14.00">Falsity</text>
</a>
</g>
<!-- http://latin.omdoc.org/logics/syntax?Logic -->
<g id="node9" class="node"><title>http://latin.omdoc.org/logics/syntax?Logic</title>
<a xlink:href="http://latin.omdoc.org/logics/syntax?Logic" class="graphtheory">
<ellipse fill="gray" stroke="black" cx="527" cy="-268" rx="31.2735" ry="18"/>
<text text-anchor="middle" x="527" y="-264.3" font-family="Times New Roman,serif" font-size="14.00">Logic</text>
</a>
</g>
<!-- http://latin.omdoc.org/logics/syntax?Logic&#45;&gt;http://latin.omdoc.org/logics/syntax?PL -->
<g id="edge27" class="edge"><title>http://latin.omdoc.org/logics/syntax?Logic&#45;&gt;http://latin.omdoc.org/logics/syntax?PL</title>
<a class="graphinclude">
<path fill="none" stroke="black" d="M496.733,-262.788C460.114,-256.546 397.809,-242.166 353,-212 336.343,-200.786 303.559,-158.327 283.335,-130.957"/>
<polygon fill="black" stroke="black" points="285.985,-128.651 277.247,-122.659 280.341,-132.792 285.985,-128.651"/>
</a>
</g>
<!-- http://latin.omdoc.org/logics/syntax?Logic&#45;&gt;http://latin.omdoc.org/foundations/minimal?Bool -->
<g id="edge9" class="edge"><title>http://latin.omdoc.org/logics/syntax?Logic&#45;&gt;http://latin.omdoc.org/foundations/minimal?Bool</title>
<a xlink:href="http://latin.omdoc.org/logics/model_theory?Base" class="graphview">
<path fill="none" stroke="black" d="M525.329,-250.002C520.945,-214.661 505.913,-132.825 458,-88 426.318,-58.3599 379.588,-39.3407 347.581,-28.9328"/>
<polygon fill="black" stroke="black" points="348.333,-25.5008 337.744,-25.8537 346.241,-32.1812 348.333,-25.5008"/>
</a>
<a xlink:href="http://latin.omdoc.org/logics/model_theory?Base" class="Base">
<text text-anchor="middle" x="517" y="-146.3" font-family="Times New Roman,serif" font-size="14.00">Base</text>
</a>
</g>
<!-- http://latin.omdoc.org/logics/syntax?Logic&#45;&gt;http://latin.omdoc.org/logics/syntax?CONJ -->
<g id="edge31" class="edge"><title>http://latin.omdoc.org/logics/syntax?Logic&#45;&gt;http://latin.omdoc.org/logics/syntax?CONJ</title>
<a class="graphinclude">
<path fill="none" stroke="black" d="M495.834,-264.684C432.306,-259.442 283.644,-244.511 163,-212 160.239,-211.256 157.413,-210.39 154.595,-209.45"/>
<polygon fill="black" stroke="black" points="155.738,-206.141 145.144,-206.04 153.363,-212.726 155.738,-206.141"/>
</a>
</g>
<!-- http://latin.omdoc.org/logics/syntax?Logic&#45;&gt;http://latin.omdoc.org/logics/syntax?Falsity -->
<g id="edge33" class="edge"><title>http://latin.omdoc.org/logics/syntax?Logic&#45;&gt;http://latin.omdoc.org/logics/syntax?Falsity</title>
<a class="graphinclude">
<path fill="none" stroke="black" d="M495.667,-265.931C421.693,-262.812 230.852,-251.292 77,-212 74.392,-211.334 71.7294,-210.551 69.0714,-209.692"/>
<polygon fill="black" stroke="black" points="70.1658,-206.367 59.5711,-206.331 67.8309,-212.966 70.1658,-206.367"/>
</a>
</g>
<!-- http://latin.omdoc.org/logics/syntax?Truth -->
<g id="node11" class="node"><title>http://latin.omdoc.org/logics/syntax?Truth</title>
<a xlink:href="http://latin.omdoc.org/logics/syntax?Truth" class="graphtheory">
<ellipse fill="gray" stroke="black" cx="468" cy="-194" rx="30.3206" ry="18"/>
<text text-anchor="middle" x="468" y="-190.3" font-family="Times New Roman,serif" font-size="14.00">Truth</text>
</a>
</g>
<!-- http://latin.omdoc.org/logics/syntax?Logic&#45;&gt;http://latin.omdoc.org/logics/syntax?Truth -->
<g id="edge39" class="edge"><title>http://latin.omdoc.org/logics/syntax?Logic&#45;&gt;http://latin.omdoc.org/logics/syntax?Truth</title>
<a class="graphinclude">
<path fill="none" stroke="black" d="M514.198,-251.377C506.312,-241.753 496.052,-229.233 487.205,-218.436"/>
<polygon fill="black" stroke="black" points="489.823,-216.109 480.777,-210.592 484.408,-220.546 489.823,-216.109"/>
</a>
</g>
<!-- http://latin.omdoc.org/logics/syntax?DISJ -->
<g id="node13" class="node"><title>http://latin.omdoc.org/logics/syntax?DISJ</title>
<a xlink:href="http://latin.omdoc.org/logics/syntax?DISJ" class="graphtheory">
<ellipse fill="gray" stroke="black" cx="391" cy="-194" rx="28.3955" ry="18"/>
<text text-anchor="middle" x="391" y="-190.3" font-family="Times New Roman,serif" font-size="14.00">DISJ</text>
</a>
</g>
<!-- http://latin.omdoc.org/logics/syntax?Logic&#45;&gt;http://latin.omdoc.org/logics/syntax?DISJ -->
<g id="edge35" class="edge"><title>http://latin.omdoc.org/logics/syntax?Logic&#45;&gt;http://latin.omdoc.org/logics/syntax?DISJ</title>
<a class="graphinclude">
<path fill="none" stroke="black" d="M504.542,-255.111C481.797,-243.069 446.47,-224.366 421.265,-211.022"/>
<polygon fill="black" stroke="black" points="422.623,-207.781 412.147,-206.196 419.348,-213.968 422.623,-207.781"/>
</a>
</g>
<!-- http://latin.omdoc.org/logics/syntax?IMP -->
<g id="node15" class="node"><title>http://latin.omdoc.org/logics/syntax?IMP</title>
<a xlink:href="http://latin.omdoc.org/logics/syntax?IMP" class="graphtheory">
<ellipse fill="gray" stroke="black" cx="279" cy="-194" rx="27" ry="18"/>
<text text-anchor="middle" x="279" y="-190.3" font-family="Times New Roman,serif" font-size="14.00">IMP</text>
</a>
</g>
<!-- http://latin.omdoc.org/logics/syntax?Logic&#45;&gt;http://latin.omdoc.org/logics/syntax?IMP -->
<g id="edge37" class="edge"><title>http://latin.omdoc.org/logics/syntax?Logic&#45;&gt;http://latin.omdoc.org/logics/syntax?IMP</title>
<a class="graphinclude">
<path fill="none" stroke="black" d="M495.547,-267.062C453.494,-265.977 377.574,-259.871 320,-232 312.476,-228.358 305.321,-222.905 299.157,-217.297"/>
<polygon fill="black" stroke="black" points="301.525,-214.718 291.925,-210.235 296.635,-219.726 301.525,-214.718"/>
</a>
</g>
<!-- http://latin.omdoc.org/logics/syntax?NEG -->
<g id="node17" class="node"><title>http://latin.omdoc.org/logics/syntax?NEG</title>
<a xlink:href="http://latin.omdoc.org/logics/syntax?NEG" class="graphtheory">
<ellipse fill="gray" stroke="black" cx="201" cy="-194" rx="29.3722" ry="18"/>
<text text-anchor="middle" x="201" y="-190.3" font-family="Times New Roman,serif" font-size="14.00">NEG</text>
</a>
</g>
<!-- http://latin.omdoc.org/logics/syntax?Logic&#45;&gt;http://latin.omdoc.org/logics/syntax?NEG -->
<g id="edge29" class="edge"><title>http://latin.omdoc.org/logics/syntax?Logic&#45;&gt;http://latin.omdoc.org/logics/syntax?NEG</title>
<a class="graphinclude">
<path fill="none" stroke="black" d="M496.018,-263.84C443.03,-257.814 332.097,-242.477 243,-212 240.044,-210.989 236.994,-209.882 233.95,-208.734"/>
<polygon fill="black" stroke="black" points="234.962,-205.372 224.374,-204.991 232.414,-211.891 234.962,-205.372"/>
</a>
</g>
<!-- http://latin.omdoc.org/logics/syntax?Truth&#45;&gt;http://latin.omdoc.org/logics/syntax?PL -->
<g id="edge25" class="edge"><title>http://latin.omdoc.org/logics/syntax?Truth&#45;&gt;http://latin.omdoc.org/logics/syntax?PL</title>
<a class="graphinclude">
<path fill="none" stroke="black" d="M444.035,-182.797C407.54,-167.26 338.008,-137.657 297.482,-120.403"/>
<polygon fill="black" stroke="black" points="298.655,-117.099 288.084,-116.402 295.913,-123.539 298.655,-117.099"/>
</a>
</g>
<!-- http://latin.omdoc.org/logics/syntax?Truth&#45;&gt;http://latin.omdoc.org/foundations/minimal?Bool -->
<g id="edge11" class="edge"><title>http://latin.omdoc.org/logics/syntax?Truth&#45;&gt;http://latin.omdoc.org/foundations/minimal?Bool</title>
<a xlink:href="http://latin.omdoc.org/logics/model_theory?Truth" class="graphview">
<path fill="none" stroke="black" d="M458.389,-176.752C445.28,-155.261 420.391,-116.752 394,-88 377.072,-69.5577 355.288,-51.4412 338.427,-38.4024"/>
<polygon fill="black" stroke="black" points="340.188,-35.344 330.111,-32.0719 335.948,-40.9139 340.188,-35.344"/>
</a>
<a xlink:href="http://latin.omdoc.org/logics/model_theory?Truth" class="Truth">
<text text-anchor="middle" x="438.5" y="-102.3" font-family="Times New Roman,serif" font-size="14.00">Truth</text>
</a>
</g>
<!-- http://latin.omdoc.org/logics/syntax?DISJ&#45;&gt;http://latin.omdoc.org/logics/syntax?PL -->
<g id="edge23" class="edge"><title>http://latin.omdoc.org/logics/syntax?DISJ&#45;&gt;http://latin.omdoc.org/logics/syntax?PL</title>
<a class="graphinclude">
<path fill="none" stroke="black" d="M372.761,-180.127C358.031,-169.761 336.743,-154.853 318,-142 309.827,-136.395 300.889,-130.35 292.765,-124.885"/>
<polygon fill="black" stroke="black" points="294.596,-121.899 284.342,-119.233 290.695,-127.712 294.596,-121.899"/>
</a>
</g>
<!-- http://latin.omdoc.org/logics/syntax?DISJ&#45;&gt;http://latin.omdoc.org/foundations/minimal?Bool -->
<g id="edge13" class="edge"><title>http://latin.omdoc.org/logics/syntax?DISJ&#45;&gt;http://latin.omdoc.org/foundations/minimal?Bool</title>
<a xlink:href="http://latin.omdoc.org/logics/model_theory?DISJ" class="graphview">
<path fill="none" stroke="black" d="M384.005,-176.161C372.993,-149.864 350.728,-97.5451 330,-54 328.486,-50.8188 326.851,-47.4992 325.206,-44.226"/>
<polygon fill="black" stroke="black" points="328.301,-42.5902 320.634,-35.2776 322.067,-45.7751 328.301,-42.5902"/>
</a>
<a xlink:href="http://latin.omdoc.org/logics/model_theory?DISJ" class="DISJ">
<text text-anchor="middle" x="376" y="-102.3" font-family="Times New Roman,serif" font-size="14.00">DISJ</text>
</a>
</g>
<!-- http://latin.omdoc.org/logics/syntax?IMP&#45;&gt;http://latin.omdoc.org/logics/syntax?PL -->
<g id="edge21" class="edge"><title>http://latin.omdoc.org/logics/syntax?IMP&#45;&gt;http://latin.omdoc.org/logics/syntax?PL</title>
<a class="graphinclude">
<path fill="none" stroke="black" d="M276.432,-176.009C274.615,-163.995 272.143,-147.641 270.062,-133.869"/>
<polygon fill="black" stroke="black" points="273.518,-133.32 268.563,-123.956 266.597,-134.366 273.518,-133.32"/>
</a>
</g>
<!-- http://latin.omdoc.org/logics/syntax?IMP&#45;&gt;http://latin.omdoc.org/foundations/minimal?Bool -->
<g id="edge15" class="edge"><title>http://latin.omdoc.org/logics/syntax?IMP&#45;&gt;http://latin.omdoc.org/foundations/minimal?Bool</title>
<a xlink:href="http://latin.omdoc.org/logics/model_theory?IMP" class="graphview">
<path fill="none" stroke="black" d="M285.843,-176.262C294.926,-152.936 310.359,-109.108 315,-70 315.92,-62.2493 315.853,-53.8008 315.369,-46.0501"/>
<polygon fill="black" stroke="black" points="318.852,-45.7059 314.503,-36.0446 311.878,-46.309 318.852,-45.7059"/>
</a>
<a xlink:href="http://latin.omdoc.org/logics/model_theory?IMP" class="IMP">
<text text-anchor="middle" x="324.5" y="-102.3" font-family="Times New Roman,serif" font-size="14.00">IMP</text>
</a>
</g>
<!-- http://latin.omdoc.org/logics/syntax?NEG&#45;&gt;http://latin.omdoc.org/logics/syntax?PL -->
<g id="edge19" class="edge"><title>http://latin.omdoc.org/logics/syntax?NEG&#45;&gt;http://latin.omdoc.org/logics/syntax?PL</title>
<a class="graphinclude">
<path fill="none" stroke="black" d="M215.591,-178.148C221.264,-172.096 227.667,-164.908 233,-158 239.342,-149.785 245.685,-140.35 251.09,-131.847"/>
<polygon fill="black" stroke="black" points="254.23,-133.426 256.543,-123.087 248.287,-129.727 254.23,-133.426"/>
</a>
</g>
<!-- http://latin.omdoc.org/logics/syntax?NEG&#45;&gt;http://latin.omdoc.org/foundations/minimal?Bool -->
<g id="edge17" class="edge"><title>http://latin.omdoc.org/logics/syntax?NEG&#45;&gt;http://latin.omdoc.org/foundations/minimal?Bool</title>
<a xlink:href="http://latin.omdoc.org/logics/model_theory?NEG" class="graphview">
<path fill="none" stroke="black" d="M196.257,-176.116C191.128,-154.268 185.59,-115.724 201,-88 217.129,-58.9829 251.078,-40.5957 277.21,-30.166"/>
<polygon fill="black" stroke="black" points="278.668,-33.3569 286.789,-26.5528 276.198,-26.8073 278.668,-33.3569"/>
</a>
<a xlink:href="http://latin.omdoc.org/logics/model_theory?NEG" class="NEG">
<text text-anchor="middle" x="215.5" y="-102.3" font-family="Times New Roman,serif" font-size="14.00">NEG</text>
</a>
</g>
</g>
</svg>
