<?xml version="1.0" encoding="UTF-8" standalone="no"?>
<!DOCTYPE svg PUBLIC "-//W3C//DTD SVG 1.1//EN"
 "http://www.w3.org/Graphics/SVG/1.1/DTD/svg11.dtd">
<!-- Generated by graphviz version 2.28.0 (20110507.0327)
 -->
<!-- Title: MMT Pages: 1 -->
<svg
 viewBox="0.00 0.00 609.00 294.00" xmlns="http://www.w3.org/2000/svg" xmlns:xlink="http://www.w3.org/1999/xlink">
<g id="graph1" class="graph" transform="scale(1 1) rotate(0) translate(4 290)">
<title>MMT</title>
<polygon fill="white" stroke="white" points="-4,5 -4,-290 606,-290 606,5 -4,5"/>
<!-- http://latin.omdoc.org/logics/syntax?Truth -->
<g id="node2" class="node"><title>http://latin.omdoc.org/logics/syntax?Truth</title>
<a xlink:href="http://latin.omdoc.org/logics/syntax?Truth" class="graphtheory">
<ellipse fill="gray" stroke="black" cx="299" cy="-194" rx="30.3206" ry="18"/>
<text text-anchor="middle" x="299" y="-190.3" font-family="Times New Roman,serif" font-size="14.00">Truth</text>
</a>
</g>
<!-- http://latin.omdoc.org/logics/model_theory/kripke?Kripke -->
<g id="node3" class="node"><title>http://latin.omdoc.org/logics/model_theory/kripke?Kripke</title>
<a xlink:href="http://latin.omdoc.org/logics/model_theory/kripke?Kripke" class="graphtheory">
<ellipse fill="gray" stroke="black" cx="286" cy="-18" rx="35.1455" ry="18"/>
<text text-anchor="middle" x="286" y="-14.3" font-family="Times New Roman,serif" font-size="14.00">Kripke</text>
</a>
</g>
<!-- http://latin.omdoc.org/logics/syntax?Truth&#45;&gt;http://latin.omdoc.org/logics/model_theory/kripke?Kripke -->
<g id="edge3" class="edge"><title>http://latin.omdoc.org/logics/syntax?Truth&#45;&gt;http://latin.omdoc.org/logics/model_theory/kripke?Kripke</title>
<a xlink:href="http://latin.omdoc.org/logics/model_theory/kripke?Truth" class="graphview">
<path fill="none" stroke="black" d="M297.73,-175.999C295.478,-145.853 290.766,-82.7897 288.049,-46.4303"/>
<polygon fill="black" stroke="black" points="291.511,-45.7811 287.275,-36.0697 284.53,-46.3027 291.511,-45.7811"/>
</a>
<a xlink:href="http://latin.omdoc.org/logics/model_theory/kripke?Truth" class="Truth">
<text text-anchor="middle" x="309.5" y="-102.3" font-family="Times New Roman,serif" font-size="14.00">Truth</text>
</a>
</g>
<!-- http://latin.omdoc.org/logics/syntax?PL -->
<g id="node17" class="node"><title>http://latin.omdoc.org/logics/syntax?PL</title>
<a xlink:href="http://latin.omdoc.org/logics/syntax?PL" class="graphtheory">
<ellipse fill="gray" stroke="black" cx="362" cy="-106" rx="27" ry="18"/>
<text text-anchor="middle" x="362" y="-102.3" font-family="Times New Roman,serif" font-size="14.00">PL</text>
</a>
</g>
<!-- http://latin.omdoc.org/logics/syntax?Truth&#45;&gt;http://latin.omdoc.org/logics/syntax?PL -->
<g id="edge45" class="edge"><title>http://latin.omdoc.org/logics/syntax?Truth&#45;&gt;http://latin.omdoc.org/logics/syntax?PL</title>
<a class="graphinclude">
<path fill="none" stroke="black" d="M310.555,-177.226C320.117,-164.174 333.844,-145.436 344.713,-130.598"/>
<polygon fill="black" stroke="black" points="347.644,-132.52 350.73,-122.384 341.997,-128.383 347.644,-132.52"/>
</a>
</g>
<!-- http://latin.omdoc.org/logics/syntax?Logic -->
<g id="node5" class="node"><title>http://latin.omdoc.org/logics/syntax?Logic</title>
<a xlink:href="http://latin.omdoc.org/logics/syntax?Logic" class="graphtheory">
<ellipse fill="gray" stroke="black" cx="31" cy="-268" rx="31.2735" ry="18"/>
<text text-anchor="middle" x="31" y="-264.3" font-family="Times New Roman,serif" font-size="14.00">Logic</text>
</a>
</g>
<!-- http://latin.omdoc.org/logics/syntax?Logic&#45;&gt;http://latin.omdoc.org/logics/syntax?Truth -->
<g id="edge43" class="edge"><title>http://latin.omdoc.org/logics/syntax?Logic&#45;&gt;http://latin.omdoc.org/logics/syntax?Truth</title>
<a class="graphinclude">
<path fill="none" stroke="black" d="M60.5874,-261.49C104.492,-252.95 189.217,-235.07 259,-212 261.382,-211.212 263.82,-210.343 266.26,-209.425"/>
<polygon fill="black" stroke="black" points="267.561,-212.674 275.558,-205.725 264.973,-206.171 267.561,-212.674"/>
</a>
</g>
<!-- http://latin.omdoc.org/logics/syntax?Logic&#45;&gt;http://latin.omdoc.org/logics/model_theory/kripke?Kripke -->
<g id="edge5" class="edge"><title>http://latin.omdoc.org/logics/syntax?Logic&#45;&gt;http://latin.omdoc.org/logics/model_theory/kripke?Kripke</title>
<a xlink:href="http://latin.omdoc.org/logics/model_theory/kripke?BasePL" class="graphview">
<path fill="none" stroke="black" d="M28.5219,-249.746C23.5545,-207.443 17.7508,-98.7654 81,-54 106.142,-36.2053 188.836,-26.5831 241.196,-22.1443"/>
<polygon fill="black" stroke="black" points="241.556,-25.6267 251.238,-21.3248 240.986,-18.6499 241.556,-25.6267"/>
</a>
<a xlink:href="http://latin.omdoc.org/logics/model_theory/kripke?BasePL" class="BasePL">
<text text-anchor="middle" x="54" y="-146.3" font-family="Times New Roman,serif" font-size="14.00">BasePL</text>
</a>
</g>
<!-- http://latin.omdoc.org/logics/syntax?Logic&#45;&gt;http://latin.omdoc.org/logics/model_theory/kripke?Kripke -->
<g id="edge29" class="edge"><title>http://latin.omdoc.org/logics/syntax?Logic&#45;&gt;http://latin.omdoc.org/logics/model_theory/kripke?Kripke</title>
<a xlink:href="http://latin.omdoc.org/logics/model_theory/kripke?Base" class="graphview">
<path fill="none" stroke="black" d="M40.1247,-250.697C50.794,-232.071 69.376,-200.947 88,-176 134.631,-113.537 147.323,-94.3763 214,-54 225.632,-46.956 238.891,-40.1837 250.833,-34.5044"/>
<polygon fill="black" stroke="black" points="252.485,-37.5957 260.071,-30.1997 249.529,-31.2506 252.485,-37.5957"/>
</a>
<a xlink:href="http://latin.omdoc.org/logics/model_theory/kripke?Base" class="Base">
<text text-anchor="middle" x="128" y="-146.3" font-family="Times New Roman,serif" font-size="14.00">Base</text>
</a>
</g>
<!-- http://latin.omdoc.org/logics/syntax?CONJ -->
<g id="node7" class="node"><title>http://latin.omdoc.org/logics/syntax?CONJ</title>
<a xlink:href="http://latin.omdoc.org/logics/syntax?CONJ" class="graphtheory">
<ellipse fill="gray" stroke="black" cx="217" cy="-194" rx="33.1991" ry="18"/>
<text text-anchor="middle" x="217" y="-190.3" font-family="Times New Roman,serif" font-size="14.00">CONJ</text>
</a>
</g>
<!-- http://latin.omdoc.org/logics/syntax?Logic&#45;&gt;http://latin.omdoc.org/logics/syntax?CONJ -->
<g id="edge35" class="edge"><title>http://latin.omdoc.org/logics/syntax?Logic&#45;&gt;http://latin.omdoc.org/logics/syntax?CONJ</title>
<a class="graphinclude">
<path fill="none" stroke="black" d="M56.3422,-257.335C84.9478,-246.406 132.862,-228.042 174,-212 176.356,-211.081 178.783,-210.131 181.228,-209.172"/>
<polygon fill="black" stroke="black" points="182.614,-212.388 190.636,-205.468 180.049,-205.874 182.614,-212.388"/>
</a>
</g>
<!-- http://latin.omdoc.org/logics/syntax?Falsity -->
<g id="node9" class="node"><title>http://latin.omdoc.org/logics/syntax?Falsity</title>
<a xlink:href="http://latin.omdoc.org/logics/syntax?Falsity" class="graphtheory">
<ellipse fill="gray" stroke="black" cx="131" cy="-194" rx="34.1708" ry="18"/>
<text text-anchor="middle" x="131" y="-190.3" font-family="Times New Roman,serif" font-size="14.00">Falsity</text>
</a>
</g>
<!-- http://latin.omdoc.org/logics/syntax?Logic&#45;&gt;http://latin.omdoc.org/logics/syntax?Falsity -->
<g id="edge37" class="edge"><title>http://latin.omdoc.org/logics/syntax?Logic&#45;&gt;http://latin.omdoc.org/logics/syntax?Falsity</title>
<a class="graphinclude">
<path fill="none" stroke="black" d="M50.9596,-253.999C60.7212,-247.532 72.5831,-239.509 83,-232 90.2391,-226.782 97.95,-220.96 105.026,-215.508"/>
<polygon fill="black" stroke="black" points="107.223,-218.233 112.973,-209.335 102.929,-212.704 107.223,-218.233"/>
</a>
</g>
<!-- http://latin.omdoc.org/logics/syntax?IMP -->
<g id="node11" class="node"><title>http://latin.omdoc.org/logics/syntax?IMP</title>
<a xlink:href="http://latin.omdoc.org/logics/syntax?IMP" class="graphtheory">
<ellipse fill="gray" stroke="black" cx="574" cy="-194" rx="27" ry="18"/>
<text text-anchor="middle" x="574" y="-190.3" font-family="Times New Roman,serif" font-size="14.00">IMP</text>
</a>
</g>
<!-- http://latin.omdoc.org/logics/syntax?Logic&#45;&gt;http://latin.omdoc.org/logics/syntax?IMP -->
<g id="edge41" class="edge"><title>http://latin.omdoc.org/logics/syntax?Logic&#45;&gt;http://latin.omdoc.org/logics/syntax?IMP</title>
<a class="graphinclude">
<path fill="none" stroke="black" d="M62.105,-264.817C127.063,-260.107 281.816,-248.104 411,-232 467.701,-224.932 483.39,-228.814 538,-212 539.932,-211.405 541.893,-210.724 543.85,-209.985"/>
<polygon fill="black" stroke="black" points="545.612,-213.04 553.463,-205.926 542.889,-206.592 545.612,-213.04"/>
</a>
</g>
<!-- http://latin.omdoc.org/logics/syntax?DISJ -->
<g id="node13" class="node"><title>http://latin.omdoc.org/logics/syntax?DISJ</title>
<a xlink:href="http://latin.omdoc.org/logics/syntax?DISJ" class="graphtheory">
<ellipse fill="gray" stroke="black" cx="424" cy="-194" rx="28.3955" ry="18"/>
<text text-anchor="middle" x="424" y="-190.3" font-family="Times New Roman,serif" font-size="14.00">DISJ</text>
</a>
</g>
<!-- http://latin.omdoc.org/logics/syntax?Logic&#45;&gt;http://latin.omdoc.org/logics/syntax?DISJ -->
<g id="edge39" class="edge"><title>http://latin.omdoc.org/logics/syntax?Logic&#45;&gt;http://latin.omdoc.org/logics/syntax?DISJ</title>
<a class="graphinclude">
<path fill="none" stroke="black" d="M62.3795,-265.963C136.11,-263.183 318.422,-254.21 375,-232 384.327,-228.338 393.411,-222.377 401.173,-216.299"/>
<polygon fill="black" stroke="black" points="403.58,-218.849 409.026,-209.761 399.101,-213.47 403.58,-218.849"/>
</a>
</g>
<!-- http://latin.omdoc.org/logics/syntax?NEG -->
<g id="node15" class="node"><title>http://latin.omdoc.org/logics/syntax?NEG</title>
<a xlink:href="http://latin.omdoc.org/logics/syntax?NEG" class="graphtheory">
<ellipse fill="gray" stroke="black" cx="500" cy="-194" rx="29.3722" ry="18"/>
<text text-anchor="middle" x="500" y="-190.3" font-family="Times New Roman,serif" font-size="14.00">NEG</text>
</a>
</g>
<!-- http://latin.omdoc.org/logics/syntax?Logic&#45;&gt;http://latin.omdoc.org/logics/syntax?NEG -->
<g id="edge33" class="edge"><title>http://latin.omdoc.org/logics/syntax?Logic&#45;&gt;http://latin.omdoc.org/logics/syntax?NEG</title>
<a class="graphinclude">
<path fill="none" stroke="black" d="M62.6672,-265.903C125.823,-263.281 271.718,-255.056 392,-232 423.358,-225.989 430.97,-222.846 461,-212 463.227,-211.196 465.509,-210.326 467.795,-209.42"/>
<polygon fill="black" stroke="black" points="469.201,-212.626 477.101,-205.567 466.523,-206.159 469.201,-212.626"/>
</a>
</g>
<!-- http://latin.omdoc.org/logics/syntax?Logic&#45;&gt;http://latin.omdoc.org/logics/syntax?PL -->
<g id="edge31" class="edge"><title>http://latin.omdoc.org/logics/syntax?Logic&#45;&gt;http://latin.omdoc.org/logics/syntax?PL</title>
<a class="graphinclude">
<path fill="none" stroke="black" d="M62.2304,-265.662C132.237,-262.012 298.668,-249.509 338,-212 358.771,-192.192 363.262,-158.39 363.529,-134.496"/>
<polygon fill="black" stroke="black" points="367.026,-134.254 363.397,-124.3 360.026,-134.345 367.026,-134.254"/>
</a>
</g>
<!-- http://latin.omdoc.org/logics/syntax?CONJ&#45;&gt;http://latin.omdoc.org/logics/model_theory/kripke?Kripke -->
<g id="edge7" class="edge"><title>http://latin.omdoc.org/logics/syntax?CONJ&#45;&gt;http://latin.omdoc.org/logics/model_theory/kripke?Kripke</title>
<a xlink:href="http://latin.omdoc.org/logics/model_theory/kripke?CONJ" class="graphview">
<path fill="none" stroke="black" d="M221.884,-176.012C228.092,-155.032 239.514,-118.393 252,-88 258.025,-73.333 265.775,-57.4283 272.354,-44.5891"/>
<polygon fill="black" stroke="black" points="275.603,-45.927 277.109,-35.4397 269.392,-42.6992 275.603,-45.927"/>
</a>
<a xlink:href="http://latin.omdoc.org/logics/model_theory/kripke?CONJ" class="CONJ">
<text text-anchor="middle" x="270" y="-102.3" font-family="Times New Roman,serif" font-size="14.00">CONJ</text>
</a>
</g>
<!-- http://latin.omdoc.org/logics/syntax?CONJ&#45;&gt;http://latin.omdoc.org/logics/syntax?PL -->
<g id="edge27" class="edge"><title>http://latin.omdoc.org/logics/syntax?CONJ&#45;&gt;http://latin.omdoc.org/logics/syntax?PL</title>
<a class="graphinclude">
<path fill="none" stroke="black" d="M238.708,-180.125C263.977,-165.138 305.789,-140.339 333.614,-123.836"/>
<polygon fill="black" stroke="black" points="335.655,-126.695 342.471,-118.583 332.084,-120.674 335.655,-126.695"/>
</a>
</g>
<!-- http://latin.omdoc.org/logics/syntax?Falsity&#45;&gt;http://latin.omdoc.org/logics/model_theory/kripke?Kripke -->
<g id="edge9" class="edge"><title>http://latin.omdoc.org/logics/syntax?Falsity&#45;&gt;http://latin.omdoc.org/logics/model_theory/kripke?Kripke</title>
<a xlink:href="http://latin.omdoc.org/logics/model_theory/kripke?Falsity" class="graphview">
<path fill="none" stroke="black" d="M139.436,-176.159C150.85,-154.358 172.716,-115.864 198,-88 215.266,-68.9725 238.198,-51.1776 256.324,-38.426"/>
<polygon fill="black" stroke="black" points="258.545,-41.1463 264.79,-32.588 254.571,-35.3835 258.545,-41.1463"/>
</a>
<a xlink:href="http://latin.omdoc.org/logics/model_theory/kripke?Falsity" class="Falsity">
<text text-anchor="middle" x="216.5" y="-102.3" font-family="Times New Roman,serif" font-size="14.00">Falsity</text>
</a>
</g>
<!-- http://latin.omdoc.org/logics/syntax?Falsity&#45;&gt;http://latin.omdoc.org/logics/syntax?PL -->
<g id="edge25" class="edge"><title>http://latin.omdoc.org/logics/syntax?Falsity&#45;&gt;http://latin.omdoc.org/logics/syntax?PL</title>
<a class="graphinclude">
<path fill="none" stroke="black" d="M157.32,-182.419C162.818,-180.258 168.587,-178.027 174,-176 238.901,-151.701 256.303,-148.836 321,-124 323.927,-122.876 326.959,-121.681 329.989,-120.464"/>
<polygon fill="black" stroke="black" points="331.594,-123.589 339.53,-116.569 328.948,-117.108 331.594,-123.589"/>
</a>
</g>
<!-- http://latin.omdoc.org/logics/syntax?IMP&#45;&gt;http://latin.omdoc.org/logics/model_theory/kripke?Kripke -->
<g id="edge11" class="edge"><title>http://latin.omdoc.org/logics/syntax?IMP&#45;&gt;http://latin.omdoc.org/logics/model_theory/kripke?Kripke</title>
<a xlink:href="http://latin.omdoc.org/logics/model_theory/kripke?IMP" class="graphview">
<path fill="none" stroke="black" d="M566.777,-176.282C556.207,-153.55 534.524,-112.88 505,-88 454.875,-45.7601 378.789,-29.3156 330.772,-22.9558"/>
<polygon fill="black" stroke="black" points="331.03,-19.4612 320.677,-21.7125 330.174,-26.4087 331.03,-19.4612"/>
</a>
<a xlink:href="http://latin.omdoc.org/logics/model_theory/kripke?IMP" class="IMP">
<text text-anchor="middle" x="549.5" y="-102.3" font-family="Times New Roman,serif" font-size="14.00">IMP</text>
</a>
</g>
<!-- http://latin.omdoc.org/logics/syntax?IMP&#45;&gt;http://latin.omdoc.org/logics/syntax?PL -->
<g id="edge23" class="edge"><title>http://latin.omdoc.org/logics/syntax?IMP&#45;&gt;http://latin.omdoc.org/logics/syntax?PL</title>
<a class="graphinclude">
<path fill="none" stroke="black" d="M552.797,-182.671C547.964,-180.405 542.829,-178.067 538,-176 478.89,-150.7 462.702,-147.871 403,-124 400.089,-122.836 397.067,-121.613 394.044,-120.378"/>
<polygon fill="black" stroke="black" points="395.094,-117.025 384.515,-116.456 392.43,-123.499 395.094,-117.025"/>
</a>
</g>
<!-- http://latin.omdoc.org/logics/syntax?DISJ&#45;&gt;http://latin.omdoc.org/logics/model_theory/kripke?Kripke -->
<g id="edge13" class="edge"><title>http://latin.omdoc.org/logics/syntax?DISJ&#45;&gt;http://latin.omdoc.org/logics/model_theory/kripke?Kripke</title>
<a xlink:href="http://latin.omdoc.org/logics/model_theory/kripke?DISJ" class="graphview">
<path fill="none" stroke="black" d="M423.29,-175.948C421.632,-153.919 416.14,-115.179 398,-88 380.35,-61.5546 348.775,-43.4664 323.64,-32.4667"/>
<polygon fill="black" stroke="black" points="324.941,-29.2171 314.364,-28.5954 322.244,-35.677 324.941,-29.2171"/>
</a>
<a xlink:href="http://latin.omdoc.org/logics/model_theory/kripke?DISJ" class="DISJ">
<text text-anchor="middle" x="429" y="-102.3" font-family="Times New Roman,serif" font-size="14.00">DISJ</text>
</a>
</g>
<!-- http://latin.omdoc.org/logics/syntax?DISJ&#45;&gt;http://latin.omdoc.org/logics/syntax?PL -->
<g id="edge21" class="edge"><title>http://latin.omdoc.org/logics/syntax?DISJ&#45;&gt;http://latin.omdoc.org/logics/syntax?PL</title>
<a class="graphinclude">
<path fill="none" stroke="black" d="M412.628,-177.226C403.277,-164.255 389.877,-145.668 379.212,-130.875"/>
<polygon fill="black" stroke="black" points="381.987,-128.739 373.3,-122.674 376.309,-132.832 381.987,-128.739"/>
</a>
</g>
<!-- http://latin.omdoc.org/logics/syntax?NEG&#45;&gt;http://latin.omdoc.org/logics/model_theory/kripke?Kripke -->
<g id="edge15" class="edge"><title>http://latin.omdoc.org/logics/syntax?NEG&#45;&gt;http://latin.omdoc.org/logics/model_theory/kripke?Kripke</title>
<a xlink:href="http://latin.omdoc.org/logics/model_theory/kripke?NEG" class="graphview">
<path fill="none" stroke="black" d="M494.971,-176.269C487.547,-153.889 471.794,-114.016 447,-88 415.07,-54.4964 364.203,-36.4419 328.2,-27.3087"/>
<polygon fill="black" stroke="black" points="329.009,-23.9036 318.467,-24.9638 327.369,-30.7089 329.009,-23.9036"/>
</a>
<a xlink:href="http://latin.omdoc.org/logics/model_theory/kripke?NEG" class="NEG">
<text text-anchor="middle" x="486.5" y="-102.3" font-family="Times New Roman,serif" font-size="14.00">NEG</text>
</a>
</g>
<!-- http://latin.omdoc.org/logics/syntax?NEG&#45;&gt;http://latin.omdoc.org/logics/syntax?PL -->
<g id="edge19" class="edge"><title>http://latin.omdoc.org/logics/syntax?NEG&#45;&gt;http://latin.omdoc.org/logics/syntax?PL</title>
<a class="graphinclude">
<path fill="none" stroke="black" d="M480.228,-180.678C456.525,-165.907 416.649,-141.057 389.839,-124.349"/>
<polygon fill="black" stroke="black" points="391.628,-121.34 381.29,-119.022 387.926,-127.281 391.628,-121.34"/>
</a>
</g>
<!-- http://latin.omdoc.org/logics/syntax?PL&#45;&gt;http://latin.omdoc.org/logics/model_theory/kripke?Kripke -->
<g id="edge17" class="edge"><title>http://latin.omdoc.org/logics/syntax?PL&#45;&gt;http://latin.omdoc.org/logics/model_theory/kripke?Kripke</title>
<a xlink:href="http://latin.omdoc.org/logics/model_theory/kripke?PL" class="graphview">
<path fill="none" stroke="black" d="M348.762,-90.0199C337.1,-76.8241 319.928,-57.3927 306.493,-42.1895"/>
<polygon fill="black" stroke="black" points="309.101,-39.8556 299.857,-34.68 303.856,-44.491 309.101,-39.8556"/>
</a>
<a xlink:href="http://latin.omdoc.org/logics/model_theory/kripke?PL" class="PL">
<text text-anchor="middle" x="339.5" y="-58.3" font-family="Times New Roman,serif" font-size="14.00">PL</text>
</a>
</g>
</g>
</svg>
