<?xml version="1.0" encoding="UTF-8" standalone="no"?>
<!DOCTYPE svg PUBLIC "-//W3C//DTD SVG 1.1//EN"
 "http://www.w3.org/Graphics/SVG/1.1/DTD/svg11.dtd">
<!-- Generated by graphviz version 2.28.0 (20110507.0327)
 -->
<!-- Title: MMT Pages: 1 -->
<svg width="1257pt" height="276pt"
 viewBox="0.00 0.00 1257.00 276.00" xmlns="http://www.w3.org/2000/svg" xmlns:xlink="http://www.w3.org/1999/xlink">
<g id="graph1" class="graph" transform="scale(1 1) rotate(0) translate(4 272)">
<title>MMT</title>
<polygon fill="white" stroke="white" points="-4,5 -4,-272 1254,-272 1254,5 -4,5"/>
<g id="graph2" class="cluster"><title>cluster_local</title>
<polygon fill="none" stroke="black" points="8,-8 8,-60 1241,-60 1241,-8 8,-8"/>
</g>
<!-- http://latin.omdoc.org/foundations/type_theory/church?Unit -->
<g id="node2" class="node"><title>http://latin.omdoc.org/foundations/type_theory/church?Unit</title>
<a xlink:href="javascript:parent.navigate(&#39;http://latin.omdoc.org/foundations/type_theory/church?Unit&#39;)" xlink:title="theory http://latin.omdoc.org/foundations/type_theory/church?Unit">
<ellipse fill="none" stroke="black" cx="744" cy="-34" rx="27" ry="18"/>
<text text-anchor="middle" x="744" y="-30.3" font-family="Times New Roman,serif" font-size="14.00">Unit</text>
</a>
</g>
<!-- http://latin.omdoc.org/foundations/type_theory/church?DisjUnion -->
<g id="node3" class="node"><title>http://latin.omdoc.org/foundations/type_theory/church?DisjUnion</title>
<a xlink:href="javascript:parent.navigate(&#39;http://latin.omdoc.org/foundations/type_theory/church?DisjUnion&#39;)" xlink:title="theory http://latin.omdoc.org/foundations/type_theory/church?DisjUnion">
<ellipse fill="none" stroke="black" cx="836" cy="-34" rx="46.1964" ry="18"/>
<text text-anchor="middle" x="836" y="-30.3" font-family="Times New Roman,serif" font-size="14.00">DisjUnion</text>
</a>
</g>
<!-- http://latin.omdoc.org/foundations/type_theory/church?PartialFunctions -->
<g id="node4" class="node"><title>http://latin.omdoc.org/foundations/type_theory/church?PartialFunctions</title>
<a xlink:href="javascript:parent.navigate(&#39;http://latin.omdoc.org/foundations/type_theory/church?PartialFunctions&#39;)" xlink:title="theory http://latin.omdoc.org/foundations/type_theory/church?PartialFunctions">
<ellipse fill="none" stroke="black" cx="1163" cy="-34" rx="69.3156" ry="18"/>
<text text-anchor="middle" x="1163" y="-30.3" font-family="Times New Roman,serif" font-size="14.00">PartialFunctions</text>
</a>
</g>
<!-- http://latin.omdoc.org/foundations/type_theory/church?IdentityTypes -->
<g id="node5" class="node"><title>http://latin.omdoc.org/foundations/type_theory/church?IdentityTypes</title>
<a xlink:href="javascript:parent.navigate(&#39;http://latin.omdoc.org/foundations/type_theory/church?IdentityTypes&#39;)" xlink:title="theory http://latin.omdoc.org/foundations/type_theory/church?IdentityTypes">
<ellipse fill="none" stroke="black" cx="195" cy="-34" rx="61.1419" ry="18"/>
<text text-anchor="middle" x="195" y="-30.3" font-family="Times New Roman,serif" font-size="14.00">IdentityTypes</text>
</a>
</g>
<!-- http://latin.omdoc.org/foundations/type_theory/church?DependentSum -->
<g id="node6" class="node"><title>http://latin.omdoc.org/foundations/type_theory/church?DependentSum</title>
<a xlink:href="javascript:parent.navigate(&#39;http://latin.omdoc.org/foundations/type_theory/church?DependentSum&#39;)" xlink:title="theory http://latin.omdoc.org/foundations/type_theory/church?DependentSum">
<ellipse fill="none" stroke="black" cx="340" cy="-34" rx="65.9423" ry="18"/>
<text text-anchor="middle" x="340" y="-30.3" font-family="Times New Roman,serif" font-size="14.00">DependentSum</text>
</a>
</g>
<!-- http://latin.omdoc.org/foundations/type_theory/church?Void -->
<g id="node7" class="node"><title>http://latin.omdoc.org/foundations/type_theory/church?Void</title>
<a xlink:href="javascript:parent.navigate(&#39;http://latin.omdoc.org/foundations/type_theory/church?Void&#39;)" xlink:title="theory http://latin.omdoc.org/foundations/type_theory/church?Void">
<ellipse fill="none" stroke="black" cx="670" cy="-34" rx="28.3955" ry="18"/>
<text text-anchor="middle" x="670" y="-30.3" font-family="Times New Roman,serif" font-size="14.00">Void</text>
</a>
</g>
<!-- http://latin.omdoc.org/foundations/type_theory/church?Products -->
<g id="node8" class="node"><title>http://latin.omdoc.org/foundations/type_theory/church?Products</title>
<a xlink:href="javascript:parent.navigate(&#39;http://latin.omdoc.org/foundations/type_theory/church?Products&#39;)" xlink:title="theory http://latin.omdoc.org/foundations/type_theory/church?Products">
<ellipse fill="none" stroke="black" cx="468" cy="-34" rx="44.2946" ry="18"/>
<text text-anchor="middle" x="468" y="-30.3" font-family="Times New Roman,serif" font-size="14.00">Products</text>
</a>
</g>
<!-- http://latin.omdoc.org/foundations/type_theory/church?NonEmpty -->
<g id="node9" class="node"><title>http://latin.omdoc.org/foundations/type_theory/church?NonEmpty</title>
<a xlink:href="javascript:parent.navigate(&#39;http://latin.omdoc.org/foundations/type_theory/church?NonEmpty&#39;)" xlink:title="theory http://latin.omdoc.org/foundations/type_theory/church?NonEmpty">
<ellipse fill="none" stroke="black" cx="66" cy="-34" rx="50.0684" ry="18"/>
<text text-anchor="middle" x="66" y="-30.3" font-family="Times New Roman,serif" font-size="14.00">NonEmpty</text>
</a>
</g>
<!-- http://latin.omdoc.org/foundations/type_theory/church?Functions -->
<g id="node10" class="node"><title>http://latin.omdoc.org/foundations/type_theory/church?Functions</title>
<a xlink:href="javascript:parent.navigate(&#39;http://latin.omdoc.org/foundations/type_theory/church?Functions&#39;)" xlink:title="theory http://latin.omdoc.org/foundations/type_theory/church?Functions">
<ellipse fill="none" stroke="black" cx="577" cy="-34" rx="46.1964" ry="18"/>
<text text-anchor="middle" x="577" y="-30.3" font-family="Times New Roman,serif" font-size="14.00">Functions</text>
</a>
</g>
<!-- http://latin.omdoc.org/foundations/type_theory/church?PartialFunctionsDom -->
<g id="node11" class="node"><title>http://latin.omdoc.org/foundations/type_theory/church?PartialFunctionsDom</title>
<a xlink:href="javascript:parent.navigate(&#39;http://latin.omdoc.org/foundations/type_theory/church?PartialFunctionsDom&#39;)" xlink:title="theory http://latin.omdoc.org/foundations/type_theory/church?PartialFunctionsDom">
<ellipse fill="none" stroke="black" cx="988" cy="-34" rx="87.1385" ry="18"/>
<text text-anchor="middle" x="988" y="-30.3" font-family="Times New Roman,serif" font-size="14.00">PartialFunctionsDom</text>
</a>
</g>
<!-- http://latin.omdoc.org/foundations/type_theory/church?Logic -->
<g id="node12" class="node"><title>http://latin.omdoc.org/foundations/type_theory/church?Logic</title>
<a xlink:href="javascript:parent.navigate(&#39;http://latin.omdoc.org/foundations/type_theory/church?Logic&#39;)" xlink:title="theory http://latin.omdoc.org/foundations/type_theory/church?Logic">
<ellipse fill="gray" stroke="black" cx="831" cy="-106" rx="31.2735" ry="18"/>
<text text-anchor="middle" x="831" y="-102.3" font-family="Times New Roman,serif" font-size="14.00">Logic</text>
</a>
</g>
<!-- http://latin.omdoc.org/foundations/type_theory/church?Logic&#45;&gt;http://latin.omdoc.org/foundations/type_theory/church?Unit -->
<g id="edge3" class="edge"><title>http://latin.omdoc.org/foundations/type_theory/church?Logic&#45;&gt;http://latin.omdoc.org/foundations/type_theory/church?Unit</title>
<a xlink:title="include">
<path fill="none" stroke="black" d="M813.394,-90.8345C800.527,-80.4819 782.908,-66.3057 768.644,-54.8284"/>
<polygon fill="black" stroke="black" points="770.679,-51.9739 760.694,-48.432 766.291,-57.4277 770.679,-51.9739"/>
</a>
</g>
<!-- http://latin.omdoc.org/foundations/type_theory/church?Logic&#45;&gt;http://latin.omdoc.org/foundations/type_theory/church?DisjUnion -->
<g id="edge9" class="edge"><title>http://latin.omdoc.org/foundations/type_theory/church?Logic&#45;&gt;http://latin.omdoc.org/foundations/type_theory/church?DisjUnion</title>
<a xlink:title="include">
<path fill="none" stroke="black" d="M832.236,-87.6966C832.787,-79.9827 833.449,-70.7125 834.063,-62.1124"/>
<polygon fill="black" stroke="black" points="837.557,-62.3283 834.778,-52.1043 830.575,-61.8295 837.557,-62.3283"/>
</a>
</g>
<!-- http://latin.omdoc.org/foundations/type_theory/church?Logic&#45;&gt;http://latin.omdoc.org/foundations/type_theory/church?PartialFunctions -->
<g id="edge15" class="edge"><title>http://latin.omdoc.org/foundations/type_theory/church?Logic&#45;&gt;http://latin.omdoc.org/foundations/type_theory/church?PartialFunctions</title>
<a xlink:title="include">
<path fill="none" stroke="black" d="M861.254,-100.923C908.983,-94.1994 1004.51,-79.5592 1084,-60 1093.64,-57.6284 1103.82,-54.7191 1113.55,-51.7342"/>
<polygon fill="black" stroke="black" points="1114.6,-55.0729 1123.1,-48.7412 1112.51,-48.3935 1114.6,-55.0729"/>
</a>
</g>
<!-- http://latin.omdoc.org/foundations/type_theory/church?Logic&#45;&gt;http://latin.omdoc.org/foundations/type_theory/church?Void -->
<g id="edge31" class="edge"><title>http://latin.omdoc.org/foundations/type_theory/church?Logic&#45;&gt;http://latin.omdoc.org/foundations/type_theory/church?Void</title>
<a xlink:title="include">
<path fill="none" stroke="black" d="M803.371,-96.913C777.932,-89.0001 739.482,-75.8459 708,-60 704.191,-58.0828 700.298,-55.862 696.526,-53.551"/>
<polygon fill="black" stroke="black" points="698.345,-50.5597 688.041,-48.0956 694.56,-56.4477 698.345,-50.5597"/>
</a>
</g>
<!-- http://latin.omdoc.org/foundations/type_theory/church?Logic&#45;&gt;http://latin.omdoc.org/foundations/type_theory/church?PartialFunctionsDom -->
<g id="edge47" class="edge"><title>http://latin.omdoc.org/foundations/type_theory/church?Logic&#45;&gt;http://latin.omdoc.org/foundations/type_theory/church?PartialFunctionsDom</title>
<a xlink:title="include">
<path fill="none" stroke="black" d="M855.187,-94.2159C878.68,-83.7414 914.903,-67.5912 943.588,-54.8014"/>
<polygon fill="black" stroke="black" points="945.29,-57.8748 952.998,-50.6059 942.44,-51.4815 945.29,-57.8748"/>
</a>
</g>
<!-- http://latin.omdoc.org/foundations/type_theory/church?Equality -->
<g id="node14" class="node"><title>http://latin.omdoc.org/foundations/type_theory/church?Equality</title>
<a xlink:href="javascript:parent.navigate(&#39;http://latin.omdoc.org/foundations/type_theory/church?Equality&#39;)" xlink:title="theory http://latin.omdoc.org/foundations/type_theory/church?Equality">
<ellipse fill="gray" stroke="black" cx="612" cy="-106" rx="39.9464" ry="18"/>
<text text-anchor="middle" x="612" y="-102.3" font-family="Times New Roman,serif" font-size="14.00">Equality</text>
</a>
</g>
<!-- http://latin.omdoc.org/foundations/type_theory/church?Equality&#45;&gt;http://latin.omdoc.org/foundations/type_theory/church?Unit -->
<g id="edge5" class="edge"><title>http://latin.omdoc.org/foundations/type_theory/church?Equality&#45;&gt;http://latin.omdoc.org/foundations/type_theory/church?Unit</title>
<a xlink:title="include">
<path fill="none" stroke="black" d="M640.001,-93.0838C659.226,-84.5783 685.123,-72.4765 707,-60 710.536,-57.9837 714.177,-55.743 717.732,-53.4547"/>
<polygon fill="black" stroke="black" points="719.894,-56.2207 726.283,-47.7692 716.018,-50.3916 719.894,-56.2207"/>
</a>
</g>
<!-- http://latin.omdoc.org/foundations/type_theory/church?Equality&#45;&gt;http://latin.omdoc.org/foundations/type_theory/church?DisjUnion -->
<g id="edge11" class="edge"><title>http://latin.omdoc.org/foundations/type_theory/church?Equality&#45;&gt;http://latin.omdoc.org/foundations/type_theory/church?DisjUnion</title>
<a xlink:title="include">
<path fill="none" stroke="black" d="M647.242,-97.2757C681.58,-89.3499 735.036,-75.9458 780,-60 786.124,-57.8281 792.511,-55.2709 798.688,-52.6355"/>
<polygon fill="black" stroke="black" points="800.407,-55.7031 808.152,-48.474 797.589,-49.2952 800.407,-55.7031"/>
</a>
</g>
<!-- http://latin.omdoc.org/foundations/type_theory/church?Equality&#45;&gt;http://latin.omdoc.org/foundations/type_theory/church?PartialFunctions -->
<g id="edge19" class="edge"><title>http://latin.omdoc.org/foundations/type_theory/church?Equality&#45;&gt;http://latin.omdoc.org/foundations/type_theory/church?PartialFunctions</title>
<a xlink:title="include">
<path fill="none" stroke="black" d="M650.89,-101.283C686.951,-97.8367 742.1,-92.5683 790,-88 920.665,-75.5382 955.377,-86.1693 1084,-60 1094.04,-57.9565 1104.62,-55.1139 1114.65,-52.0754"/>
<polygon fill="black" stroke="black" points="1115.96,-55.3304 1124.45,-48.9938 1113.86,-48.6522 1115.96,-55.3304"/>
</a>
</g>
<!-- http://latin.omdoc.org/foundations/type_theory/church?Equality&#45;&gt;http://latin.omdoc.org/foundations/type_theory/church?IdentityTypes -->
<g id="edge23" class="edge"><title>http://latin.omdoc.org/foundations/type_theory/church?Equality&#45;&gt;http://latin.omdoc.org/foundations/type_theory/church?IdentityTypes</title>
<a xlink:title="include">
<path fill="none" stroke="black" d="M573.29,-101.037C495.537,-92.9028 322.882,-73.9193 265,-60 256.431,-57.9393 247.452,-55.1988 238.891,-52.2879"/>
<polygon fill="black" stroke="black" points="240.043,-48.9829 229.448,-48.9561 237.714,-55.5841 240.043,-48.9829"/>
</a>
</g>
<!-- http://latin.omdoc.org/foundations/type_theory/church?Equality&#45;&gt;http://latin.omdoc.org/foundations/type_theory/church?DependentSum -->
<g id="edge27" class="edge"><title>http://latin.omdoc.org/foundations/type_theory/church?Equality&#45;&gt;http://latin.omdoc.org/foundations/type_theory/church?DependentSum</title>
<a xlink:title="include">
<path fill="none" stroke="black" d="M575.787,-97.83C536.067,-89.7102 470.571,-75.569 415,-60 406.358,-57.5788 397.237,-54.7633 388.446,-51.913"/>
<polygon fill="black" stroke="black" points="389.298,-48.5083 378.705,-48.6993 387.105,-55.156 389.298,-48.5083"/>
</a>
</g>
<!-- http://latin.omdoc.org/foundations/type_theory/church?Equality&#45;&gt;http://latin.omdoc.org/foundations/type_theory/church?Products -->
<g id="edge35" class="edge"><title>http://latin.omdoc.org/foundations/type_theory/church?Equality&#45;&gt;http://latin.omdoc.org/foundations/type_theory/church?Products</title>
<a xlink:title="include">
<path fill="none" stroke="black" d="M585.588,-92.1609C562.837,-81.1014 529.77,-65.027 504.492,-52.739"/>
<polygon fill="black" stroke="black" points="505.747,-49.4575 495.223,-48.2333 502.686,-55.7531 505.747,-49.4575"/>
</a>
</g>
<!-- http://latin.omdoc.org/foundations/type_theory/church?Equality&#45;&gt;http://latin.omdoc.org/foundations/type_theory/church?Functions -->
<g id="edge43" class="edge"><title>http://latin.omdoc.org/foundations/type_theory/church?Equality&#45;&gt;http://latin.omdoc.org/foundations/type_theory/church?Functions</title>
<a xlink:title="include">
<path fill="none" stroke="black" d="M603.527,-88.055C599.443,-79.8866 594.456,-69.9116 589.912,-60.8244"/>
<polygon fill="black" stroke="black" points="592.997,-59.168 585.395,-51.789 586.736,-62.2985 592.997,-59.168"/>
</a>
</g>
<!-- http://latin.omdoc.org/foundations/type_theory/church?Equality&#45;&gt;http://latin.omdoc.org/foundations/type_theory/church?PartialFunctionsDom -->
<g id="edge49" class="edge"><title>http://latin.omdoc.org/foundations/type_theory/church?Equality&#45;&gt;http://latin.omdoc.org/foundations/type_theory/church?PartialFunctionsDom</title>
<a xlink:title="include">
<path fill="none" stroke="black" d="M650.111,-99.99C704.022,-92.6454 805.515,-77.8703 891,-60 902.969,-57.4979 915.681,-54.4844 927.824,-51.429"/>
<polygon fill="black" stroke="black" points="929.041,-54.7307 937.862,-48.863 927.307,-47.9488 929.041,-54.7307"/>
</a>
</g>
<!-- http://cds.omdoc.org/urtheories?LF -->
<g id="node16" class="node"><title>http://cds.omdoc.org/urtheories?LF</title>
<a xlink:href="javascript:parent.navigate(&#39;http://cds.omdoc.org/urtheories?LF&#39;)" xlink:title="theory http://cds.omdoc.org/urtheories?LF">
<ellipse fill="gray" stroke="black" cx="506" cy="-250" rx="27" ry="18"/>
<text text-anchor="middle" x="506" y="-246.3" font-family="Times New Roman,serif" font-size="14.00">LF</text>
</a>
</g>
<!-- http://cds.omdoc.org/urtheories?LF&#45;&gt;http://latin.omdoc.org/foundations/type_theory/church?Unit -->
<g id="edge7" class="edge"><title>http://cds.omdoc.org/urtheories?LF&#45;&gt;http://latin.omdoc.org/foundations/type_theory/church?Unit</title>
<a xlink:title="meta">
<path fill="none" stroke="green" d="M533.172,-247.536C592.876,-243.694 732.465,-231.076 761,-196 792.319,-157.502 772.348,-95.5188 756.939,-60.7614"/>
<polygon fill="green" stroke="green" points="759.942,-58.9163 752.563,-51.3132 753.59,-61.8581 759.942,-58.9163"/>
</a>
</g>
<!-- http://cds.omdoc.org/urtheories?LF&#45;&gt;http://latin.omdoc.org/foundations/type_theory/church?DisjUnion -->
<g id="edge13" class="edge"><title>http://cds.omdoc.org/urtheories?LF&#45;&gt;http://latin.omdoc.org/foundations/type_theory/church?DisjUnion</title>
<a xlink:title="meta">
<path fill="none" stroke="green" d="M532.707,-247.117C599.528,-241.996 772.014,-226.142 820,-196 853.207,-175.141 859.106,-161.367 871,-124 875.853,-108.754 875.603,-103.324 871,-88 867.986,-77.9675 862.389,-68.0823 856.542,-59.6167"/>
<polygon fill="green" stroke="green" points="859.206,-57.3331 850.455,-51.3619 853.573,-61.4876 859.206,-57.3331"/>
</a>
</g>
<!-- http://cds.omdoc.org/urtheories?LF&#45;&gt;http://latin.omdoc.org/foundations/type_theory/church?PartialFunctions -->
<g id="edge21" class="edge"><title>http://cds.omdoc.org/urtheories?LF&#45;&gt;http://latin.omdoc.org/foundations/type_theory/church?PartialFunctions</title>
<a xlink:title="meta">
<path fill="none" stroke="green" d="M533.236,-248.826C597.061,-247.654 760.531,-240.197 888,-196 984.894,-162.404 1085.65,-93.0457 1133.88,-57.3314"/>
<polygon fill="green" stroke="green" points="1136.07,-60.0655 1141.98,-51.2773 1131.88,-54.4571 1136.07,-60.0655"/>
</a>
</g>
<!-- http://cds.omdoc.org/urtheories?LF&#45;&gt;http://latin.omdoc.org/foundations/type_theory/church?IdentityTypes -->
<g id="edge25" class="edge"><title>http://cds.omdoc.org/urtheories?LF&#45;&gt;http://latin.omdoc.org/foundations/type_theory/church?IdentityTypes</title>
<a xlink:title="meta">
<path fill="none" stroke="green" d="M487.935,-236.569C436.923,-201.468 291.298,-101.263 226.617,-56.7561"/>
<polygon fill="green" stroke="green" points="228.268,-53.6436 218.046,-50.8582 224.3,-59.4102 228.268,-53.6436"/>
</a>
</g>
<!-- http://cds.omdoc.org/urtheories?LF&#45;&gt;http://latin.omdoc.org/foundations/type_theory/church?DependentSum -->
<g id="edge29" class="edge"><title>http://cds.omdoc.org/urtheories?LF&#45;&gt;http://latin.omdoc.org/foundations/type_theory/church?DependentSum</title>
<a xlink:title="meta">
<path fill="none" stroke="green" d="M494.062,-233.61C465.637,-196.966 393.747,-104.288 359.163,-59.7044"/>
<polygon fill="green" stroke="green" points="361.858,-57.4677 352.963,-51.7114 356.327,-61.7581 361.858,-57.4677"/>
</a>
</g>
<!-- http://cds.omdoc.org/urtheories?LF&#45;&gt;http://latin.omdoc.org/foundations/type_theory/church?Void -->
<g id="edge33" class="edge"><title>http://cds.omdoc.org/urtheories?LF&#45;&gt;http://latin.omdoc.org/foundations/type_theory/church?Void</title>
<a xlink:title="meta">
<path fill="none" stroke="green" d="M511.551,-232.152C524.844,-191.972 557.789,-93.4526 563,-88 585.867,-64.0748 602.701,-75.3913 632,-60 635.775,-58.0168 639.648,-55.758 643.411,-53.4279"/>
<polygon fill="green" stroke="green" points="645.383,-56.3207 651.888,-47.9583 641.588,-50.4386 645.383,-56.3207"/>
</a>
</g>
<!-- http://cds.omdoc.org/urtheories?LF&#45;&gt;http://latin.omdoc.org/foundations/type_theory/church?Products -->
<g id="edge37" class="edge"><title>http://cds.omdoc.org/urtheories?LF&#45;&gt;http://latin.omdoc.org/foundations/type_theory/church?Products</title>
<a xlink:title="meta">
<path fill="none" stroke="green" d="M500.978,-231.928C498.067,-221.596 494.496,-208.118 492,-196 482.371,-149.248 475.001,-94.102 471.1,-61.9908"/>
<polygon fill="green" stroke="green" points="474.572,-61.5445 469.912,-52.0294 467.621,-62.3735 474.572,-61.5445"/>
</a>
</g>
<!-- http://cds.omdoc.org/urtheories?LF&#45;&gt;http://latin.omdoc.org/foundations/type_theory/church?NonEmpty -->
<g id="edge41" class="edge"><title>http://cds.omdoc.org/urtheories?LF&#45;&gt;http://latin.omdoc.org/foundations/type_theory/church?NonEmpty</title>
<a xlink:title="meta">
<path fill="none" stroke="green" d="M482.812,-240.494C456.217,-230.553 411.456,-213.257 374,-196 272.774,-149.363 157.272,-86.2055 100.797,-54.6493"/>
<polygon fill="green" stroke="green" points="102.362,-51.5141 91.9268,-49.6812 98.9413,-57.6215 102.362,-51.5141"/>
</a>
</g>
<!-- http://cds.omdoc.org/urtheories?LF&#45;&gt;http://latin.omdoc.org/foundations/type_theory/church?Functions -->
<g id="edge45" class="edge"><title>http://cds.omdoc.org/urtheories?LF&#45;&gt;http://latin.omdoc.org/foundations/type_theory/church?Functions</title>
<a xlink:title="meta">
<path fill="none" stroke="green" d="M505.429,-231.634C505.093,-201.088 507.408,-136.399 530,-88 535.098,-77.0789 543.18,-66.7524 551.215,-58.1656"/>
<polygon fill="green" stroke="green" points="553.953,-60.3744 558.494,-50.8018 548.975,-55.4535 553.953,-60.3744"/>
</a>
</g>
<!-- http://cds.omdoc.org/urtheories?LF&#45;&gt;http://latin.omdoc.org/foundations/type_theory/church?PartialFunctionsDom -->
<g id="edge51" class="edge"><title>http://cds.omdoc.org/urtheories?LF&#45;&gt;http://latin.omdoc.org/foundations/type_theory/church?PartialFunctionsDom</title>
<a xlink:title="meta">
<path fill="none" stroke="green" d="M532.886,-247.315C604.306,-242.459 797.062,-226.78 852,-196 909.139,-163.987 952.865,-98.0258 973.999,-61.2438"/>
<polygon fill="green" stroke="green" points="977.274,-62.5605 979.117,-52.1272 971.17,-59.1338 977.274,-62.5605"/>
</a>
</g>
<!-- http://cds.omdoc.org/urtheories?LF&#45;&gt;http://latin.omdoc.org/foundations/type_theory/church?Logic -->
<g id="edge57" class="edge"><title>http://cds.omdoc.org/urtheories?LF&#45;&gt;http://latin.omdoc.org/foundations/type_theory/church?Logic</title>
<a xlink:title="meta">
<path fill="none" stroke="green" d="M532.759,-247.295C596.284,-242.751 753.856,-228.423 794,-196 812.956,-180.69 822.319,-154.001 826.868,-133.832"/>
<polygon fill="green" stroke="green" points="830.311,-134.465 828.834,-123.973 823.446,-133.096 830.311,-134.465"/>
</a>
</g>
<!-- http://cds.omdoc.org/urtheories?LF&#45;&gt;http://latin.omdoc.org/foundations/type_theory/church?Equality -->
<g id="edge59" class="edge"><title>http://cds.omdoc.org/urtheories?LF&#45;&gt;http://latin.omdoc.org/foundations/type_theory/church?Equality</title>
<a xlink:title="meta">
<path fill="none" stroke="green" d="M521.533,-234.993C532.413,-224.765 546.926,-210.25 558,-196 573.582,-175.949 588.327,-151.097 598.459,-132.755"/>
<polygon fill="green" stroke="green" points="601.617,-134.274 603.317,-123.817 595.467,-130.931 601.617,-134.274"/>
</a>
</g>
<!-- http://latin.omdoc.org/logics/proof_theory?Truth -->
<g id="node22" class="node"><title>http://latin.omdoc.org/logics/proof_theory?Truth</title>
<a xlink:href="javascript:parent.navigate(&#39;http://latin.omdoc.org/logics/proof_theory?Truth&#39;)" xlink:title="theory http://latin.omdoc.org/logics/proof_theory?Truth">
<ellipse fill="gray" stroke="black" cx="1150" cy="-106" rx="30.3206" ry="18"/>
<text text-anchor="middle" x="1150" y="-102.3" font-family="Times New Roman,serif" font-size="14.00">Truth</text>
</a>
</g>
<!-- http://cds.omdoc.org/urtheories?LF&#45;&gt;http://latin.omdoc.org/logics/proof_theory?Truth -->
<g id="edge61" class="edge"><title>http://cds.omdoc.org/urtheories?LF&#45;&gt;http://latin.omdoc.org/logics/proof_theory?Truth</title>
<a xlink:title="meta">
<path fill="none" stroke="green" d="M533.146,-248.979C632.047,-248.517 972.289,-243.44 1068,-196 1096.82,-181.713 1120.5,-152.675 1134.88,-131.644"/>
<polygon fill="green" stroke="green" points="1137.88,-133.462 1140.46,-123.188 1132.03,-129.607 1137.88,-133.462"/>
</a>
</g>
<!-- http://latin.omdoc.org/foundations/type_theory/church?IndexedUniverse -->
<g id="node34" class="node"><title>http://latin.omdoc.org/foundations/type_theory/church?IndexedUniverse</title>
<a xlink:href="javascript:parent.navigate(&#39;http://latin.omdoc.org/foundations/type_theory/church?IndexedUniverse&#39;)" xlink:title="theory http://latin.omdoc.org/foundations/type_theory/church?IndexedUniverse">
<ellipse fill="gray" stroke="black" cx="681" cy="-178" rx="71.2405" ry="18"/>
<text text-anchor="middle" x="681" y="-174.3" font-family="Times New Roman,serif" font-size="14.00">IndexedUniverse</text>
</a>
</g>
<!-- http://cds.omdoc.org/urtheories?LF&#45;&gt;http://latin.omdoc.org/foundations/type_theory/church?IndexedUniverse -->
<g id="edge63" class="edge"><title>http://cds.omdoc.org/urtheories?LF&#45;&gt;http://latin.omdoc.org/foundations/type_theory/church?IndexedUniverse</title>
<a xlink:title="meta">
<path fill="none" stroke="green" d="M528.52,-239.992C555.353,-229.259 600.864,-211.054 635.197,-197.321"/>
<polygon fill="green" stroke="green" points="636.574,-200.54 644.559,-193.576 633.974,-194.041 636.574,-200.54"/>
</a>
</g>
<!-- http://latin.omdoc.org/logics/proof_theory?Truth&#45;&gt;http://latin.omdoc.org/foundations/type_theory/church?PartialFunctions -->
<g id="edge17" class="edge"><title>http://latin.omdoc.org/logics/proof_theory?Truth&#45;&gt;http://latin.omdoc.org/foundations/type_theory/church?PartialFunctions</title>
<a xlink:title="include">
<path fill="none" stroke="black" d="M1153.15,-88.055C1154.58,-80.3456 1156.31,-71.0269 1157.92,-62.3642"/>
<polygon fill="black" stroke="black" points="1161.41,-62.7463 1159.79,-52.2753 1154.52,-61.4681 1161.41,-62.7463"/>
</a>
</g>
<!-- http://latin.omdoc.org/foundations/type_theory/church?IndexedUniverse&#45;&gt;http://latin.omdoc.org/foundations/type_theory/church?NonEmpty -->
<g id="edge39" class="edge"><title>http://latin.omdoc.org/foundations/type_theory/church?IndexedUniverse&#45;&gt;http://latin.omdoc.org/foundations/type_theory/church?NonEmpty</title>
<a xlink:title="include">
<path fill="none" stroke="black" d="M620.782,-168.248C517.699,-152.401 301.467,-115.381 125,-60 118.368,-57.9186 111.458,-55.3639 104.802,-52.6909"/>
<polygon fill="black" stroke="black" points="105.869,-49.3442 95.2923,-48.7314 103.179,-55.8064 105.869,-49.3442"/>
</a>
</g>
<!-- http://latin.omdoc.org/foundations/type_theory/church?IndexedUniverse&#45;&gt;http://latin.omdoc.org/foundations/type_theory/church?Logic -->
<g id="edge53" class="edge"><title>http://latin.omdoc.org/foundations/type_theory/church?IndexedUniverse&#45;&gt;http://latin.omdoc.org/foundations/type_theory/church?Logic</title>
<a xlink:title="include">
<path fill="none" stroke="black" d="M713.548,-161.811C738.608,-150.116 773.097,-134.021 798.217,-122.299"/>
<polygon fill="black" stroke="black" points="799.764,-125.439 807.346,-118.039 796.804,-119.096 799.764,-125.439"/>
</a>
</g>
<!-- http://latin.omdoc.org/foundations/type_theory/church?IndexedUniverse&#45;&gt;http://latin.omdoc.org/foundations/type_theory/church?Equality -->
<g id="edge55" class="edge"><title>http://latin.omdoc.org/foundations/type_theory/church?IndexedUniverse&#45;&gt;http://latin.omdoc.org/foundations/type_theory/church?Equality</title>
<a xlink:title="include">
<path fill="none" stroke="black" d="M664.648,-160.411C655.756,-151.39 644.616,-140.088 634.875,-130.207"/>
<polygon fill="black" stroke="black" points="637.272,-127.653 627.76,-122.988 632.287,-132.567 637.272,-127.653"/>
</a>
</g>
</g>
</svg>
