<?xml version="1.0" encoding="UTF-8" standalone="no"?>
<!DOCTYPE svg PUBLIC "-//W3C//DTD SVG 1.1//EN"
 "http://www.w3.org/Graphics/SVG/1.1/DTD/svg11.dtd">
<!-- Generated by graphviz version 2.28.0 (20110507.0327)
 -->
<!-- Title: MMT Pages: 1 -->
<svg width="520pt" height="456pt"
 viewBox="0.00 0.00 520.14 456.00" xmlns="http://www.w3.org/2000/svg" xmlns:xlink="http://www.w3.org/1999/xlink">
<g id="graph1" class="graph" transform="scale(1 1) rotate(0) translate(4 452)">
<title>MMT</title>
<polygon fill="white" stroke="white" points="-4,5 -4,-452 517.139,-452 517.139,5 -4,5"/>
<g id="graph2" class="cluster"><title>cluster_local</title>
<polygon fill="none" stroke="black" points="161.139,-80 161.139,-132 265.139,-132 265.139,-80 161.139,-80"/>
</g>
<!-- http://latin.omdoc.org/translations/ml_fol?ML&#45;FOL -->
<g id="node2" class="node"><title>http://latin.omdoc.org/translations/ml_fol?ML&#45;FOL</title>
<a xlink:href="javascript:parent.navigate(&#39;http://latin.omdoc.org/translations/ml_fol?ML-FOL&#39;)" xlink:title="theory http://latin.omdoc.org/translations/ml_fol?ML&#45;FOL">
<ellipse fill="none" stroke="black" cx="213.139" cy="-106" rx="44.2946" ry="18"/>
<text text-anchor="middle" x="213.139" y="-102.3" font-family="Times New Roman,serif" font-size="14.00">ML&#45;FOL</text>
</a>
</g>
<!-- http://latin.omdoc.org/translations/ml_fol?ML&#45;FOLMOD -->
<g id="node13" class="node"><title>http://latin.omdoc.org/translations/ml_fol?ML&#45;FOLMOD</title>
<a xlink:href="javascript:parent.navigate(&#39;http://latin.omdoc.org/translations/ml_fol?ML-FOLMOD&#39;)" xlink:title="theory http://latin.omdoc.org/translations/ml_fol?ML&#45;FOLMOD">
<ellipse fill="gray" stroke="black" cx="429.139" cy="-18" rx="65.4659" ry="18"/>
<text text-anchor="middle" x="429.139" y="-14.3" font-family="Times New Roman,serif" font-size="14.00">ML&#45;FOLMOD</text>
</a>
</g>
<!-- http://latin.omdoc.org/translations/ml_fol?ML&#45;FOL&#45;&gt;http://latin.omdoc.org/translations/ml_fol?ML&#45;FOLMOD -->
<g id="edge13" class="edge"><title>http://latin.omdoc.org/translations/ml_fol?ML&#45;FOL&#45;&gt;http://latin.omdoc.org/translations/ml_fol?ML&#45;FOLMOD</title>
<a xlink:href="javascript:parent.navigate(&#39;http://latin.omdoc.org/translations/ml_fol?ML-FOLMOD?po&#39;)" xlink:title="structure http://latin.omdoc.org/translations/ml_fol?ML&#45;FOLMOD?po">
<path fill="none" stroke="red" stroke-width="2" d="M243.628,-92.8607C280.202,-78.299 341.84,-53.7578 383.951,-36.9915"/>
<polygon fill="red" stroke="red" points="385.419,-40.1743 393.415,-33.2234 382.83,-33.6708 385.419,-40.1743"/>
</a>
<a xlink:href="javascript:parent.navigate(&#39;http://latin.omdoc.org/translations/ml_fol?ML-FOLMOD?po&#39;)" xlink:title="po">
<text text-anchor="middle" x="349.139" y="-58.3" font-family="Times New Roman,serif" font-size="14.00">po</text>
</a>
</g>
<!-- http://latin.omdoc.org/logics/syntax?Possibility -->
<g id="node3" class="node"><title>http://latin.omdoc.org/logics/syntax?Possibility</title>
<a xlink:href="javascript:parent.navigate(&#39;http://latin.omdoc.org/logics/syntax?Possibility&#39;)" xlink:title="theory http://latin.omdoc.org/logics/syntax?Possibility">
<ellipse fill="gray" stroke="black" cx="350.139" cy="-282" rx="48.1437" ry="18"/>
<text text-anchor="middle" x="350.139" y="-278.3" font-family="Times New Roman,serif" font-size="14.00">Possibility</text>
</a>
</g>
<!-- http://latin.omdoc.org/logics/syntax?Possibility&#45;&gt;http://latin.omdoc.org/translations/ml_fol?ML&#45;FOL -->
<g id="edge3" class="edge"><title>http://latin.omdoc.org/logics/syntax?Possibility&#45;&gt;http://latin.omdoc.org/translations/ml_fol?ML&#45;FOL</title>
<a xlink:href="javascript:parent.navigate(&#39;http://latin.omdoc.org/translations/ml_fol?Possibility&#39;)" xlink:title="view http://latin.omdoc.org/translations/ml_fol?Possibility">
<path fill="none" stroke="blue" stroke-dasharray="5,2" d="M347.969,-263.817C345.789,-241.944 339.588,-203.66 322.295,-176.535 306.79,-151.892 278.326,-134.401 254.421,-123.331"/>
<path fill="none" stroke="blue" stroke-dasharray="5,2" d="M349.959,-263.618C347.763,-241.624 341.563,-203.341 323.984,-175.465 307.837,-150.188 279.373,-132.697 255.262,-121.516"/>
<polygon fill="blue" stroke="blue" points="256.118,-119.161 245.556,-118.326 253.292,-125.565 256.118,-119.161"/>
</a>
<a xlink:href="javascript:parent.navigate(&#39;http://latin.omdoc.org/translations/ml_fol?Possibility&#39;)" xlink:title="Possibility">
<text text-anchor="middle" x="368.139" y="-190.3" font-family="Times New Roman,serif" font-size="14.00">Possibility</text>
</a>
</g>
<!-- http://latin.omdoc.org/logics/syntax?ML -->
<g id="node11" class="node"><title>http://latin.omdoc.org/logics/syntax?ML</title>
<a xlink:href="javascript:parent.navigate(&#39;http://latin.omdoc.org/logics/syntax?ML&#39;)" xlink:title="theory http://latin.omdoc.org/logics/syntax?ML">
<ellipse fill="gray" stroke="black" cx="287.139" cy="-194" rx="27" ry="18"/>
<text text-anchor="middle" x="287.139" y="-190.3" font-family="Times New Roman,serif" font-size="14.00">ML</text>
</a>
</g>
<!-- http://latin.omdoc.org/logics/syntax?Possibility&#45;&gt;http://latin.omdoc.org/logics/syntax?ML -->
<g id="edge43" class="edge"><title>http://latin.omdoc.org/logics/syntax?Possibility&#45;&gt;http://latin.omdoc.org/logics/syntax?ML</title>
<a xlink:title="include">
<path fill="none" stroke="black" d="M337.992,-264.418C328.517,-251.484 315.227,-233.342 304.61,-218.849"/>
<polygon fill="black" stroke="black" points="307.135,-216.374 298.402,-210.375 301.488,-220.51 307.135,-216.374"/>
</a>
</g>
<!-- http://latin.omdoc.org/logics/syntax?Logic -->
<g id="node5" class="node"><title>http://latin.omdoc.org/logics/syntax?Logic</title>
<a xlink:href="javascript:parent.navigate(&#39;http://latin.omdoc.org/logics/syntax?Logic&#39;)" xlink:title="theory http://latin.omdoc.org/logics/syntax?Logic">
<ellipse fill="gray" stroke="black" cx="48.1391" cy="-356" rx="31.2735" ry="18"/>
<text text-anchor="middle" x="48.1391" y="-352.3" font-family="Times New Roman,serif" font-size="14.00">Logic</text>
</a>
</g>
<!-- http://latin.omdoc.org/logics/syntax?Logic&#45;&gt;http://latin.omdoc.org/translations/ml_fol?ML&#45;FOL -->
<g id="edge5" class="edge"><title>http://latin.omdoc.org/logics/syntax?Logic&#45;&gt;http://latin.omdoc.org/translations/ml_fol?ML&#45;FOL</title>
<a xlink:href="javascript:parent.navigate(&#39;http://latin.omdoc.org/translations/ml_fol?Base&#39;)" xlink:title="view http://latin.omdoc.org/translations/ml_fol?Base">
<path fill="none" stroke="blue" stroke-dasharray="5,2" d="M48.3819,-337.733C50.2722,-318.82 54.9185,-287.996 66.2324,-263.578 95.6506,-200.633 112.311,-188.484 162.454,-141.272 168.034,-136.023 174.37,-131.001 180.671,-126.433"/>
<path fill="none" stroke="blue" stroke-dasharray="5,2" d="M50.372,-337.931C52.2498,-319.118 56.8962,-288.294 68.0458,-264.422 96.829,-202.249 113.489,-190.1 163.824,-142.728 169.277,-137.591 175.612,-132.568 181.844,-128.052"/>
<polygon fill="blue" stroke="blue" points="183.473,-129.965 189.677,-121.376 179.471,-124.222 183.473,-129.965"/>
</a>
<a xlink:href="javascript:parent.navigate(&#39;http://latin.omdoc.org/translations/ml_fol?Base&#39;)" xlink:title="Base">
<text text-anchor="middle" x="98.1391" y="-234.3" font-family="Times New Roman,serif" font-size="14.00">Base</text>
</a>
</g>
<!-- http://latin.omdoc.org/logics/syntax?Logic&#45;&gt;http://latin.omdoc.org/logics/syntax?Possibility -->
<g id="edge41" class="edge"><title>http://latin.omdoc.org/logics/syntax?Logic&#45;&gt;http://latin.omdoc.org/logics/syntax?Possibility</title>
<a xlink:title="include">
<path fill="none" stroke="black" d="M76.5505,-348.226C127.981,-335.965 237.083,-309.954 300.88,-294.744"/>
<polygon fill="black" stroke="black" points="301.799,-298.123 310.715,-292.399 300.176,-291.314 301.799,-298.123"/>
</a>
</g>
<!-- http://latin.omdoc.org/logics/syntax?Necessity -->
<g id="node7" class="node"><title>http://latin.omdoc.org/logics/syntax?Necessity</title>
<a xlink:href="javascript:parent.navigate(&#39;http://latin.omdoc.org/logics/syntax?Necessity&#39;)" xlink:title="theory http://latin.omdoc.org/logics/syntax?Necessity">
<ellipse fill="gray" stroke="black" cx="122.139" cy="-282" rx="46.2191" ry="18"/>
<text text-anchor="middle" x="122.139" y="-278.3" font-family="Times New Roman,serif" font-size="14.00">Necessity</text>
</a>
</g>
<!-- http://latin.omdoc.org/logics/syntax?Logic&#45;&gt;http://latin.omdoc.org/logics/syntax?Necessity -->
<g id="edge37" class="edge"><title>http://latin.omdoc.org/logics/syntax?Logic&#45;&gt;http://latin.omdoc.org/logics/syntax?Necessity</title>
<a xlink:title="include">
<path fill="none" stroke="black" d="M63.4719,-340.082C73.6123,-330.215 87.105,-317.087 98.594,-305.909"/>
<polygon fill="black" stroke="black" points="101.073,-308.38 105.799,-298.898 96.1912,-303.363 101.073,-308.38"/>
</a>
</g>
<!-- http://latin.omdoc.org/logics/syntax?MPL -->
<g id="node9" class="node"><title>http://latin.omdoc.org/logics/syntax?MPL</title>
<a xlink:href="javascript:parent.navigate(&#39;http://latin.omdoc.org/logics/syntax?MPL&#39;)" xlink:title="theory http://latin.omdoc.org/logics/syntax?MPL">
<ellipse fill="gray" stroke="black" cx="215.139" cy="-282" rx="29.3722" ry="18"/>
<text text-anchor="middle" x="215.139" y="-278.3" font-family="Times New Roman,serif" font-size="14.00">MPL</text>
</a>
</g>
<!-- http://latin.omdoc.org/logics/syntax?Logic&#45;&gt;http://latin.omdoc.org/logics/syntax?MPL -->
<g id="edge39" class="edge"><title>http://latin.omdoc.org/logics/syntax?Logic&#45;&gt;http://latin.omdoc.org/logics/syntax?MPL</title>
<a xlink:title="include">
<path fill="none" stroke="black" d="M72.925,-344.585C98.938,-333.619 140.996,-315.788 177.139,-300 178.977,-299.197 180.863,-298.369 182.765,-297.529"/>
<polygon fill="black" stroke="black" points="184.541,-300.57 192.26,-293.314 181.7,-294.173 184.541,-300.57"/>
</a>
</g>
<!-- http://latin.omdoc.org/logics/syntax?Necessity&#45;&gt;http://latin.omdoc.org/translations/ml_fol?ML&#45;FOL -->
<g id="edge7" class="edge"><title>http://latin.omdoc.org/logics/syntax?Necessity&#45;&gt;http://latin.omdoc.org/translations/ml_fol?ML&#45;FOL</title>
<a xlink:href="javascript:parent.navigate(&#39;http://latin.omdoc.org/translations/ml_fol?Necessity&#39;)" xlink:title="view http://latin.omdoc.org/translations/ml_fol?Necessity">
<path fill="none" stroke="blue" stroke-dasharray="5,2" d="M124.382,-263.606C128.899,-242.064 138.362,-204.57 154.262,-175.519 163.531,-158.661 177.094,-142.241 188.839,-129.568"/>
<path fill="none" stroke="blue" stroke-dasharray="5,2" d="M126.339,-264.016C130.838,-242.553 140.301,-205.06 156.016,-176.481 165.073,-159.935 178.636,-143.515 190.306,-130.928"/>
<polygon fill="blue" stroke="blue" points="192.204,-132.561 196.566,-122.906 187.135,-127.733 192.204,-132.561"/>
</a>
<a xlink:href="javascript:parent.navigate(&#39;http://latin.omdoc.org/translations/ml_fol?Necessity&#39;)" xlink:title="Necessity">
<text text-anchor="middle" x="182.639" y="-190.3" font-family="Times New Roman,serif" font-size="14.00">Necessity</text>
</a>
</g>
<!-- http://latin.omdoc.org/logics/syntax?Necessity&#45;&gt;http://latin.omdoc.org/logics/syntax?ML -->
<g id="edge35" class="edge"><title>http://latin.omdoc.org/logics/syntax?Necessity&#45;&gt;http://latin.omdoc.org/logics/syntax?ML</title>
<a xlink:title="include">
<path fill="none" stroke="black" d="M148.649,-267.183C178.37,-251.692 226.445,-226.634 257.417,-210.492"/>
<polygon fill="black" stroke="black" points="259.19,-213.514 266.44,-205.789 255.955,-207.307 259.19,-213.514"/>
</a>
</g>
<!-- http://latin.omdoc.org/logics/syntax?MPL&#45;&gt;http://latin.omdoc.org/translations/ml_fol?ML&#45;FOL -->
<g id="edge9" class="edge"><title>http://latin.omdoc.org/logics/syntax?MPL&#45;&gt;http://latin.omdoc.org/translations/ml_fol?ML&#45;FOL</title>
<a xlink:href="javascript:parent.navigate(&#39;http://latin.omdoc.org/translations/ml_fol?MPL&#39;)" xlink:title="view http://latin.omdoc.org/translations/ml_fol?MPL">
<path fill="none" stroke="blue" stroke-dasharray="5,2" d="M213.944,-264.011C213.597,-233.865 212.872,-170.801 212.454,-134.442"/>
<path fill="none" stroke="blue" stroke-dasharray="5,2" d="M215.944,-263.988C215.597,-233.842 214.872,-170.778 214.454,-134.419"/>
<polygon fill="blue" stroke="blue" points="216.95,-134.029 213.335,-124.07 209.951,-134.109 216.95,-134.029"/>
</a>
<a xlink:href="javascript:parent.navigate(&#39;http://latin.omdoc.org/translations/ml_fol?MPL&#39;)" xlink:title="MPL">
<text text-anchor="middle" x="229.639" y="-190.3" font-family="Times New Roman,serif" font-size="14.00">MPL</text>
</a>
</g>
<!-- http://latin.omdoc.org/logics/syntax?MPL&#45;&gt;http://latin.omdoc.org/logics/syntax?ML -->
<g id="edge33" class="edge"><title>http://latin.omdoc.org/logics/syntax?MPL&#45;&gt;http://latin.omdoc.org/logics/syntax?ML</title>
<a xlink:title="include">
<path fill="none" stroke="black" d="M228.011,-265.625C239.137,-252.336 255.374,-232.942 268.019,-217.838"/>
<polygon fill="black" stroke="black" points="270.884,-219.868 274.619,-209.954 265.516,-215.375 270.884,-219.868"/>
</a>
</g>
<!-- http://latin.omdoc.org/logics/syntax?ML&#45;&gt;http://latin.omdoc.org/translations/ml_fol?ML&#45;FOL -->
<g id="edge11" class="edge"><title>http://latin.omdoc.org/logics/syntax?ML&#45;&gt;http://latin.omdoc.org/translations/ml_fol?ML&#45;FOL</title>
<a xlink:href="javascript:parent.navigate(&#39;http://latin.omdoc.org/translations/ml_fol?ML&#39;)" xlink:title="view http://latin.omdoc.org/translations/ml_fol?ML">
<path fill="none" stroke="blue" stroke-dasharray="5,2" d="M273.491,-178.672C262.381,-165.76 246.133,-146.877 233.183,-131.827"/>
<path fill="none" stroke="blue" stroke-dasharray="5,2" d="M275.007,-177.368C263.897,-164.455 247.649,-145.572 234.699,-130.523"/>
<polygon fill="blue" stroke="blue" points="236.315,-128.568 227.139,-123.271 231.009,-133.134 236.315,-128.568"/>
</a>
<a xlink:href="javascript:parent.navigate(&#39;http://latin.omdoc.org/translations/ml_fol?ML&#39;)" xlink:title="ML">
<text text-anchor="middle" x="267.639" y="-146.3" font-family="Times New Roman,serif" font-size="14.00">ML</text>
</a>
</g>
<!-- http://latin.omdoc.org/logics/syntax?FOL -->
<g id="node15" class="node"><title>http://latin.omdoc.org/logics/syntax?FOL</title>
<a xlink:href="javascript:parent.navigate(&#39;http://latin.omdoc.org/logics/syntax?FOL&#39;)" xlink:title="theory http://latin.omdoc.org/logics/syntax?FOL">
<ellipse fill="gray" stroke="black" cx="403.139" cy="-356" rx="28.3955" ry="18"/>
<text text-anchor="middle" x="403.139" y="-352.3" font-family="Times New Roman,serif" font-size="14.00">FOL</text>
</a>
</g>
<!-- http://latin.omdoc.org/logics/syntax?FOL&#45;&gt;http://latin.omdoc.org/translations/ml_fol?ML&#45;FOL -->
<g id="edge15" class="edge"><title>http://latin.omdoc.org/logics/syntax?FOL&#45;&gt;http://latin.omdoc.org/translations/ml_fol?ML&#45;FOL</title>
<a xlink:title="include">
<path fill="none" stroke="black" d="M408.816,-338.192C419.251,-303.912 437.276,-225.037 401.139,-176 370.044,-133.805 310.375,-117.378 266.569,-111.003"/>
<polygon fill="black" stroke="black" points="267.015,-107.531 256.642,-109.688 266.096,-114.471 267.015,-107.531"/>
</a>
</g>
<!-- http://cds.omdoc.org/urtheories?LF -->
<g id="node17" class="node"><title>http://cds.omdoc.org/urtheories?LF</title>
<a xlink:href="javascript:parent.navigate(&#39;http://cds.omdoc.org/urtheories?LF&#39;)" xlink:title="theory http://cds.omdoc.org/urtheories?LF">
<ellipse fill="gray" stroke="black" cx="302.139" cy="-430" rx="27" ry="18"/>
<text text-anchor="middle" x="302.139" y="-426.3" font-family="Times New Roman,serif" font-size="14.00">LF</text>
</a>
</g>
<!-- http://cds.omdoc.org/urtheories?LF&#45;&gt;http://latin.omdoc.org/translations/ml_fol?ML&#45;FOL -->
<g id="edge17" class="edge"><title>http://cds.omdoc.org/urtheories?LF&#45;&gt;http://latin.omdoc.org/translations/ml_fol?ML&#45;FOL</title>
<a xlink:title="meta">
<path fill="none" stroke="green" d="M329.393,-429.397C377.892,-428.528 474.139,-418.992 474.139,-357 474.139,-357 474.139,-357 474.139,-193 474.139,-149.428 341.265,-124.252 265.13,-113.403"/>
<polygon fill="green" stroke="green" points="265.17,-109.875 254.784,-111.966 264.208,-116.808 265.17,-109.875"/>
</a>
</g>
<!-- http://cds.omdoc.org/urtheories?LF&#45;&gt;http://latin.omdoc.org/logics/syntax?Possibility -->
<g id="edge23" class="edge"><title>http://cds.omdoc.org/urtheories?LF&#45;&gt;http://latin.omdoc.org/logics/syntax?Possibility</title>
<a xlink:title="meta">
<path fill="none" stroke="green" d="M307.645,-412.252C315.884,-387.193 331.499,-339.696 341.333,-309.784"/>
<polygon fill="green" stroke="green" points="344.751,-310.595 344.549,-300.002 338.101,-308.409 344.751,-310.595"/>
</a>
</g>
<!-- http://cds.omdoc.org/urtheories?LF&#45;&gt;http://latin.omdoc.org/logics/syntax?Logic -->
<g id="edge25" class="edge"><title>http://cds.omdoc.org/urtheories?LF&#45;&gt;http://latin.omdoc.org/logics/syntax?Logic</title>
<a xlink:title="meta">
<path fill="none" stroke="green" d="M277.784,-422.096C233.224,-409.465 138.308,-382.56 85.5189,-367.596"/>
<polygon fill="green" stroke="green" points="86.4374,-364.218 75.8619,-364.858 84.5283,-370.953 86.4374,-364.218"/>
</a>
</g>
<!-- http://cds.omdoc.org/urtheories?LF&#45;&gt;http://latin.omdoc.org/logics/syntax?Necessity -->
<g id="edge19" class="edge"><title>http://cds.omdoc.org/urtheories?LF&#45;&gt;http://latin.omdoc.org/logics/syntax?Necessity</title>
<a xlink:title="meta">
<path fill="none" stroke="green" d="M275.259,-428.193C209.083,-425.583 41.1802,-414.974 7.13907,-374 -3.08541,-361.693 -1.39168,-351.536 7.13907,-338 21.4508,-315.291 48.0155,-301.754 72.01,-293.796"/>
<polygon fill="green" stroke="green" points="73.2062,-297.09 81.7426,-290.815 71.1561,-290.397 73.2062,-297.09"/>
</a>
</g>
<!-- http://cds.omdoc.org/urtheories?LF&#45;&gt;http://latin.omdoc.org/logics/syntax?MPL -->
<g id="edge29" class="edge"><title>http://cds.omdoc.org/urtheories?LF&#45;&gt;http://latin.omdoc.org/logics/syntax?MPL</title>
<a xlink:title="meta">
<path fill="none" stroke="green" d="M283.597,-416.707C275.546,-410.636 266.519,-402.739 260.139,-394 241.341,-368.251 228.919,-333.533 221.978,-309.823"/>
<polygon fill="green" stroke="green" points="225.319,-308.772 219.254,-300.085 218.578,-310.658 225.319,-308.772"/>
</a>
</g>
<!-- http://cds.omdoc.org/urtheories?LF&#45;&gt;http://latin.omdoc.org/logics/syntax?ML -->
<g id="edge27" class="edge"><title>http://cds.omdoc.org/urtheories?LF&#45;&gt;http://latin.omdoc.org/logics/syntax?ML</title>
<a xlink:title="meta">
<path fill="none" stroke="green" d="M300.877,-411.894C299.07,-387.195 295.684,-340.105 293.139,-300 291.465,-273.62 289.766,-243.499 288.605,-222.303"/>
<polygon fill="green" stroke="green" points="292.088,-221.895 288.05,-212.1 285.098,-222.275 292.088,-221.895"/>
</a>
</g>
<!-- http://cds.omdoc.org/urtheories?LF&#45;&gt;http://latin.omdoc.org/translations/ml_fol?ML&#45;FOLMOD -->
<g id="edge31" class="edge"><title>http://cds.omdoc.org/urtheories?LF&#45;&gt;http://latin.omdoc.org/translations/ml_fol?ML&#45;FOLMOD</title>
<a xlink:title="meta">
<path fill="none" stroke="green" d="M329.044,-428.175C364.291,-426.089 427.131,-418.857 474.139,-394 494.977,-382.981 512.139,-380.572 512.139,-357 512.139,-357 512.139,-357 512.139,-105 512.139,-76.9729 489.033,-54.5803 467.204,-39.6786"/>
<polygon fill="green" stroke="green" points="468.935,-36.6299 458.635,-34.1446 465.137,-42.5101 468.935,-36.6299"/>
</a>
</g>
<!-- http://cds.omdoc.org/urtheories?LF&#45;&gt;http://latin.omdoc.org/logics/syntax?FOL -->
<g id="edge21" class="edge"><title>http://cds.omdoc.org/urtheories?LF&#45;&gt;http://latin.omdoc.org/logics/syntax?FOL</title>
<a xlink:title="meta">
<path fill="none" stroke="green" d="M320.196,-416.128C335.897,-404.935 358.854,-388.569 376.638,-375.892"/>
<polygon fill="green" stroke="green" points="378.787,-378.658 384.898,-370.003 374.724,-372.958 378.787,-378.658"/>
</a>
</g>
</g>
</svg>
