<?xml version="1.0" encoding="UTF-8" standalone="no"?>
<!DOCTYPE svg PUBLIC "-//W3C//DTD SVG 1.1//EN"
 "http://www.w3.org/Graphics/SVG/1.1/DTD/svg11.dtd">
<!-- Generated by graphviz version 2.28.0 (20110507.0327)
 -->
<!-- Title: MMT Pages: 1 -->
<svg width="357pt" height="294pt"
 viewBox="0.00 0.00 357.00 294.00" xmlns="http://www.w3.org/2000/svg" xmlns:xlink="http://www.w3.org/1999/xlink">
<g id="graph1" class="graph" transform="scale(1 1) rotate(0) translate(4 290)">
<title>MMT</title>
<polygon fill="white" stroke="white" points="-4,5 -4,-290 354,-290 354,5 -4,5"/>
<!-- http://latin.omdoc.org/logics/proof_theory?Forall -->
<g id="node2" class="node"><title>http://latin.omdoc.org/logics/proof_theory?Forall</title>
<a xlink:href="javascript:parent.navigate(&#39;http://latin.omdoc.org/logics/proof_theory?Forall&#39;)" xlink:title="theory http://latin.omdoc.org/logics/proof_theory?Forall">
<ellipse fill="gray" stroke="black" cx="31" cy="-194" rx="31.2735" ry="18"/>
<text text-anchor="middle" x="31" y="-190.3" font-family="Times New Roman,serif" font-size="14.00">Forall</text>
</a>
</g>
<!-- http://latin.omdoc.org/translations/fol_ifol?DN&#45;IFOL -->
<g id="node3" class="node"><title>http://latin.omdoc.org/translations/fol_ifol?DN&#45;IFOL</title>
<a xlink:href="javascript:parent.navigate(&#39;http://latin.omdoc.org/translations/fol_ifol?DN-IFOL&#39;)" xlink:title="theory http://latin.omdoc.org/translations/fol_ifol?DN&#45;IFOL">
<ellipse fill="gray" stroke="black" cx="132" cy="-18" rx="46.1964" ry="18"/>
<text text-anchor="middle" x="132" y="-14.3" font-family="Times New Roman,serif" font-size="14.00">DN&#45;IFOL</text>
</a>
</g>
<!-- http://latin.omdoc.org/logics/proof_theory?Forall&#45;&gt;http://latin.omdoc.org/translations/fol_ifol?DN&#45;IFOL -->
<g id="edge3" class="edge"><title>http://latin.omdoc.org/logics/proof_theory?Forall&#45;&gt;http://latin.omdoc.org/translations/fol_ifol?DN&#45;IFOL</title>
<a xlink:href="javascript:parent.navigate(&#39;http://latin.omdoc.org/translations/fol_ifol?ForallPF&#39;)" xlink:title="view http://latin.omdoc.org/translations/fol_ifol?ForallPF">
<path fill="none" stroke="blue" stroke-dasharray="5,2" d="M27.3895,-175.885C24.9354,-153.934 23.6483,-115.713 39.1255,-87.515 51.5715,-65.2498 73.982,-48.2158 93.7306,-36.501"/>
<path fill="none" stroke="blue" stroke-dasharray="5,2" d="M29.3771,-175.663C26.9343,-153.866 25.6471,-115.646 40.8745,-88.485 52.7818,-66.8421 75.1923,-49.808 94.7505,-38.2214"/>
<polygon fill="blue" stroke="blue" points="96.0496,-40.3591 103.03,-32.3887 92.6027,-34.2666 96.0496,-40.3591"/>
</a>
<a xlink:href="javascript:parent.navigate(&#39;http://latin.omdoc.org/translations/fol_ifol?ForallPF&#39;)" xlink:title="ForallPF">
<text text-anchor="middle" x="64.5" y="-102.3" font-family="Times New Roman,serif" font-size="14.00">ForallPF</text>
</a>
</g>
<!-- http://latin.omdoc.org/logics/proof_theory?IFOL -->
<g id="node7" class="node"><title>http://latin.omdoc.org/logics/proof_theory?IFOL</title>
<a xlink:href="javascript:parent.navigate(&#39;http://latin.omdoc.org/logics/proof_theory?IFOL&#39;)" xlink:title="theory http://latin.omdoc.org/logics/proof_theory?IFOL">
<ellipse fill="gray" stroke="black" cx="129" cy="-106" rx="31.2965" ry="18"/>
<text text-anchor="middle" x="129" y="-102.3" font-family="Times New Roman,serif" font-size="14.00">IFOL</text>
</a>
</g>
<!-- http://latin.omdoc.org/logics/proof_theory?Forall&#45;&gt;http://latin.omdoc.org/logics/proof_theory?IFOL -->
<g id="edge19" class="edge"><title>http://latin.omdoc.org/logics/proof_theory?Forall&#45;&gt;http://latin.omdoc.org/logics/proof_theory?IFOL</title>
<a xlink:title="include">
<path fill="none" stroke="black" d="M47.6244,-178.411C63.3467,-164.614 87.1181,-143.753 104.915,-128.136"/>
<polygon fill="black" stroke="black" points="107.413,-130.6 112.621,-121.373 102.796,-125.339 107.413,-130.6"/>
</a>
</g>
<!-- http://latin.omdoc.org/logics/proof_theory?BaseFOL -->
<g id="node5" class="node"><title>http://latin.omdoc.org/logics/proof_theory?BaseFOL</title>
<a xlink:href="javascript:parent.navigate(&#39;http://latin.omdoc.org/logics/proof_theory?BaseFOL&#39;)" xlink:title="theory http://latin.omdoc.org/logics/proof_theory?BaseFOL">
<ellipse fill="gray" stroke="black" cx="275" cy="-268" rx="46.2191" ry="18"/>
<text text-anchor="middle" x="275" y="-264.3" font-family="Times New Roman,serif" font-size="14.00">BaseFOL</text>
</a>
</g>
<!-- http://latin.omdoc.org/logics/proof_theory?BaseFOL&#45;&gt;http://latin.omdoc.org/logics/proof_theory?Forall -->
<g id="edge17" class="edge"><title>http://latin.omdoc.org/logics/proof_theory?BaseFOL&#45;&gt;http://latin.omdoc.org/logics/proof_theory?Forall</title>
<a xlink:title="include">
<path fill="none" stroke="black" d="M239.259,-256.453C193.507,-242.953 114.618,-219.674 68.1821,-205.972"/>
<polygon fill="black" stroke="black" points="69.0923,-202.591 58.5105,-203.118 67.1111,-209.305 69.0923,-202.591"/>
</a>
</g>
<!-- http://latin.omdoc.org/logics/proof_theory?BaseFOL&#45;&gt;http://latin.omdoc.org/translations/fol_ifol?DN&#45;IFOL -->
<g id="edge5" class="edge"><title>http://latin.omdoc.org/logics/proof_theory?BaseFOL&#45;&gt;http://latin.omdoc.org/translations/fol_ifol?DN&#45;IFOL</title>
<a xlink:href="javascript:parent.navigate(&#39;http://latin.omdoc.org/translations/fol_ifol?BaseFOLPF&#39;)" xlink:title="view http://latin.omdoc.org/translations/fol_ifol?BaseFOLPF">
<path fill="none" stroke="blue" stroke-dasharray="5,2" d="M276.767,-249.715C281.272,-215.886 286.731,-139.192 254.157,-88.5381 237.154,-61.6755 205.063,-44.1929 178.128,-33.6859"/>
<path fill="none" stroke="blue" stroke-dasharray="5,2" d="M278.75,-249.979C283.267,-216.028 288.726,-139.334 255.843,-87.4619 238.111,-59.9192 206.019,-42.4366 178.856,-31.8228"/>
<polygon fill="blue" stroke="blue" points="179.385,-29.353 168.791,-29.1717 176.96,-35.9195 179.385,-29.353"/>
</a>
<a xlink:href="javascript:parent.navigate(&#39;http://latin.omdoc.org/translations/fol_ifol?BaseFOLPF&#39;)" xlink:title="BaseFOLPF">
<text text-anchor="middle" x="313.5" y="-146.3" font-family="Times New Roman,serif" font-size="14.00">BaseFOLPF</text>
</a>
</g>
<!-- http://latin.omdoc.org/logics/proof_theory?Exists -->
<g id="node9" class="node"><title>http://latin.omdoc.org/logics/proof_theory?Exists</title>
<a xlink:href="javascript:parent.navigate(&#39;http://latin.omdoc.org/logics/proof_theory?Exists&#39;)" xlink:title="theory http://latin.omdoc.org/logics/proof_theory?Exists">
<ellipse fill="gray" stroke="black" cx="196" cy="-194" rx="32.2457" ry="18"/>
<text text-anchor="middle" x="196" y="-190.3" font-family="Times New Roman,serif" font-size="14.00">Exists</text>
</a>
</g>
<!-- http://latin.omdoc.org/logics/proof_theory?BaseFOL&#45;&gt;http://latin.omdoc.org/logics/proof_theory?Exists -->
<g id="edge15" class="edge"><title>http://latin.omdoc.org/logics/proof_theory?BaseFOL&#45;&gt;http://latin.omdoc.org/logics/proof_theory?Exists</title>
<a xlink:title="include">
<path fill="none" stroke="black" d="M257.467,-251.021C246.355,-240.893 231.842,-227.666 219.709,-216.608"/>
<polygon fill="black" stroke="black" points="221.887,-213.858 212.139,-209.709 217.172,-219.032 221.887,-213.858"/>
</a>
</g>
<!-- http://latin.omdoc.org/logics/proof_theory?IFOL&#45;&gt;http://latin.omdoc.org/translations/fol_ifol?DN&#45;IFOL -->
<g id="edge7" class="edge"><title>http://latin.omdoc.org/logics/proof_theory?IFOL&#45;&gt;http://latin.omdoc.org/translations/fol_ifol?DN&#45;IFOL</title>
<a xlink:href="javascript:parent.navigate(&#39;http://latin.omdoc.org/translations/fol_ifol?IFOLPF&#39;)" xlink:title="view http://latin.omdoc.org/translations/fol_ifol?IFOLPF">
<path fill="none" stroke="blue" stroke-dasharray="5,2" d="M128.608,-87.5618C129.021,-75.711 129.577,-59.782 130.049,-46.2569"/>
<path fill="none" stroke="blue" stroke-dasharray="5,2" d="M130.606,-87.6315C131.02,-75.7807 131.576,-59.8518 132.047,-46.3266"/>
<polygon fill="blue" stroke="blue" points="134.553,-46.2 131.404,-36.084 127.557,-45.9559 134.553,-46.2"/>
</a>
<a xlink:href="javascript:parent.navigate(&#39;http://latin.omdoc.org/translations/fol_ifol?IFOLPF&#39;)" xlink:title="IFOLPF">
<text text-anchor="middle" x="154.5" y="-58.3" font-family="Times New Roman,serif" font-size="14.00">IFOLPF</text>
</a>
</g>
<!-- http://latin.omdoc.org/logics/proof_theory?IFOL&#45;&gt;http://latin.omdoc.org/translations/fol_ifol?DN&#45;IFOL -->
<g id="edge13" class="edge"><title>http://latin.omdoc.org/logics/proof_theory?IFOL&#45;&gt;http://latin.omdoc.org/translations/fol_ifol?DN&#45;IFOL</title>
<a xlink:title="include">
<path fill="none" stroke="black" d="M126.778,-87.984C125.787,-78.062 125.037,-65.312 126,-54 126.22,-51.42 126.529,-48.7445 126.892,-46.0743"/>
<polygon fill="black" stroke="black" points="130.377,-46.4398 128.486,-36.0151 123.464,-45.3437 130.377,-46.4398"/>
</a>
</g>
<!-- http://latin.omdoc.org/logics/proof_theory?Exists&#45;&gt;http://latin.omdoc.org/translations/fol_ifol?DN&#45;IFOL -->
<g id="edge9" class="edge"><title>http://latin.omdoc.org/logics/proof_theory?Exists&#45;&gt;http://latin.omdoc.org/translations/fol_ifol?DN&#45;IFOL</title>
<a xlink:href="javascript:parent.navigate(&#39;http://latin.omdoc.org/translations/fol_ifol?ExistsPF&#39;)" xlink:title="view http://latin.omdoc.org/translations/fol_ifol?ExistsPF">
<path fill="none" stroke="blue" stroke-dasharray="5,2" d="M197.61,-175.67C200.899,-148.011 203.693,-92.6586 181.137,-54.5057 177.784,-48.7329 172.829,-43.5404 167.476,-39.1948"/>
<path fill="none" stroke="blue" stroke-dasharray="5,2" d="M199.596,-175.906C202.897,-148.112 205.691,-92.7594 182.863,-53.4943 179.231,-47.3522 174.276,-42.1597 168.738,-37.6434"/>
<polygon fill="blue" stroke="blue" points="170.042,-35.4993 159.889,-32.4718 165.938,-41.1701 170.042,-35.4993"/>
</a>
<a xlink:href="javascript:parent.navigate(&#39;http://latin.omdoc.org/translations/fol_ifol?ExistsPF&#39;)" xlink:title="ExistsPF">
<text text-anchor="middle" x="225.5" y="-102.3" font-family="Times New Roman,serif" font-size="14.00">ExistsPF</text>
</a>
</g>
<!-- http://latin.omdoc.org/logics/proof_theory?Exists&#45;&gt;http://latin.omdoc.org/logics/proof_theory?IFOL -->
<g id="edge11" class="edge"><title>http://latin.omdoc.org/logics/proof_theory?Exists&#45;&gt;http://latin.omdoc.org/logics/proof_theory?IFOL</title>
<a xlink:title="include">
<path fill="none" stroke="black" d="M183.711,-177.226C173.606,-164.255 159.125,-145.668 147.6,-130.875"/>
<polygon fill="black" stroke="black" points="150.118,-128.411 141.211,-122.674 144.596,-132.713 150.118,-128.411"/>
</a>
</g>
</g>
</svg>
