<?xml version="1.0" encoding="UTF-8" standalone="no"?>
<!DOCTYPE svg PUBLIC "-//W3C//DTD SVG 1.1//EN"
 "http://www.w3.org/Graphics/SVG/1.1/DTD/svg11.dtd">
<!-- Generated by graphviz version 2.28.0 (20110507.0327)
 -->
<!-- Title: MMT Pages: 1 -->
<svg width="841pt" height="456pt"
 viewBox="0.00 0.00 841.00 456.00" xmlns="http://www.w3.org/2000/svg" xmlns:xlink="http://www.w3.org/1999/xlink">
<g id="graph1" class="graph" transform="scale(1 1) rotate(0) translate(4 452)">
<title>MMT</title>
<polygon fill="white" stroke="white" points="-4,5 -4,-452 838,-452 838,5 -4,5"/>
<g id="graph2" class="cluster"><title>cluster_local</title>
<polygon fill="none" stroke="black" points="351,-80 351,-132 461,-132 461,-80 351,-80"/>
</g>
<!-- http://latin.omdoc.org/translations/fol_ifol?DN&#45;IFOL -->
<g id="node2" class="node"><title>http://latin.omdoc.org/translations/fol_ifol?DN&#45;IFOL</title>
<a xlink:href="javascript:parent.navigate(&#39;http://latin.omdoc.org/translations/fol_ifol?DN-IFOL&#39;)" xlink:title="theory http://latin.omdoc.org/translations/fol_ifol?DN&#45;IFOL">
<ellipse fill="none" stroke="black" cx="406" cy="-106" rx="46.1964" ry="18"/>
<text text-anchor="middle" x="406" y="-102.3" font-family="Times New Roman,serif" font-size="14.00">DN&#45;IFOL</text>
</a>
</g>
<!-- http://latin.omdoc.org/logics/syntax?UniverseLogic -->
<g id="node3" class="node"><title>http://latin.omdoc.org/logics/syntax?UniverseLogic</title>
<a xlink:href="javascript:parent.navigate(&#39;http://latin.omdoc.org/logics/syntax?UniverseLogic&#39;)" xlink:title="theory http://latin.omdoc.org/logics/syntax?UniverseLogic">
<ellipse fill="gray" stroke="black" cx="427" cy="-282" rx="63.5411" ry="18"/>
<text text-anchor="middle" x="427" y="-278.3" font-family="Times New Roman,serif" font-size="14.00">UniverseLogic</text>
</a>
</g>
<!-- http://latin.omdoc.org/logics/syntax?UniverseLogic&#45;&gt;http://latin.omdoc.org/translations/fol_ifol?DN&#45;IFOL -->
<g id="edge3" class="edge"><title>http://latin.omdoc.org/logics/syntax?UniverseLogic&#45;&gt;http://latin.omdoc.org/translations/fol_ifol?DN&#45;IFOL</title>
<a xlink:href="javascript:parent.navigate(&#39;http://latin.omdoc.org/translations/fol_ifol?UniverseLogic&#39;)" xlink:title="view http://latin.omdoc.org/translations/fol_ifol?UniverseLogic">
<path fill="none" stroke="blue" stroke-dasharray="5,2" d="M411.29,-264.901C400.553,-251.677 387.048,-232.313 381.041,-212.285 373.141,-185.133 382.446,-154.115 391.715,-132.61"/>
<path fill="none" stroke="blue" stroke-dasharray="5,2" d="M412.843,-263.64C402.193,-250.533 388.689,-231.168 382.959,-211.715 375.057,-185.708 384.362,-154.69 393.551,-133.402"/>
<polygon fill="blue" stroke="blue" points="395.82,-134.452 396.806,-123.903 389.457,-131.535 395.82,-134.452"/>
</a>
<a xlink:href="javascript:parent.navigate(&#39;http://latin.omdoc.org/translations/fol_ifol?UniverseLogic&#39;)" xlink:title="UniverseLogic">
<text text-anchor="middle" x="423" y="-190.3" font-family="Times New Roman,serif" font-size="14.00">UniverseLogic</text>
</a>
</g>
<!-- http://latin.omdoc.org/logics/syntax?Forall -->
<g id="node5" class="node"><title>http://latin.omdoc.org/logics/syntax?Forall</title>
<a xlink:href="javascript:parent.navigate(&#39;http://latin.omdoc.org/logics/syntax?Forall&#39;)" xlink:title="theory http://latin.omdoc.org/logics/syntax?Forall">
<ellipse fill="gray" stroke="black" cx="587" cy="-194" rx="31.2735" ry="18"/>
<text text-anchor="middle" x="587" y="-190.3" font-family="Times New Roman,serif" font-size="14.00">Forall</text>
</a>
</g>
<!-- http://latin.omdoc.org/logics/syntax?UniverseLogic&#45;&gt;http://latin.omdoc.org/logics/syntax?Forall -->
<g id="edge63" class="edge"><title>http://latin.omdoc.org/logics/syntax?UniverseLogic&#45;&gt;http://latin.omdoc.org/logics/syntax?Forall</title>
<a xlink:title="include">
<path fill="none" stroke="black" d="M453.241,-265.389C470.839,-255.063 494.621,-241.381 516,-230 528.348,-223.427 542.101,-216.547 554.19,-210.644"/>
<polygon fill="black" stroke="black" points="555.999,-213.657 563.47,-206.144 552.945,-207.359 555.999,-213.657"/>
</a>
</g>
<!-- http://latin.omdoc.org/logics/syntax?Exists -->
<g id="node9" class="node"><title>http://latin.omdoc.org/logics/syntax?Exists</title>
<a xlink:href="javascript:parent.navigate(&#39;http://latin.omdoc.org/logics/syntax?Exists&#39;)" xlink:title="theory http://latin.omdoc.org/logics/syntax?Exists">
<ellipse fill="gray" stroke="black" cx="505" cy="-194" rx="32.2457" ry="18"/>
<text text-anchor="middle" x="505" y="-190.3" font-family="Times New Roman,serif" font-size="14.00">Exists</text>
</a>
</g>
<!-- http://latin.omdoc.org/logics/syntax?UniverseLogic&#45;&gt;http://latin.omdoc.org/logics/syntax?Exists -->
<g id="edge61" class="edge"><title>http://latin.omdoc.org/logics/syntax?UniverseLogic&#45;&gt;http://latin.omdoc.org/logics/syntax?Exists</title>
<a xlink:title="include">
<path fill="none" stroke="black" d="M442.039,-264.418C453.992,-251.24 470.847,-232.656 484.11,-218.032"/>
<polygon fill="black" stroke="black" points="486.93,-220.134 491.055,-210.375 481.744,-215.431 486.93,-220.134"/>
</a>
</g>
<!-- http://latin.omdoc.org/logics/proof_theory?BaseFOL -->
<g id="node13" class="node"><title>http://latin.omdoc.org/logics/proof_theory?BaseFOL</title>
<a xlink:href="javascript:parent.navigate(&#39;http://latin.omdoc.org/logics/proof_theory?BaseFOL&#39;)" xlink:title="theory http://latin.omdoc.org/logics/proof_theory?BaseFOL">
<ellipse fill="gray" stroke="black" cx="683" cy="-194" rx="46.2191" ry="18"/>
<text text-anchor="middle" x="683" y="-190.3" font-family="Times New Roman,serif" font-size="14.00">BaseFOL</text>
</a>
</g>
<!-- http://latin.omdoc.org/logics/syntax?UniverseLogic&#45;&gt;http://latin.omdoc.org/logics/proof_theory?BaseFOL -->
<g id="edge65" class="edge"><title>http://latin.omdoc.org/logics/syntax?UniverseLogic&#45;&gt;http://latin.omdoc.org/logics/proof_theory?BaseFOL</title>
<a xlink:title="include">
<path fill="none" stroke="black" d="M466.16,-267.845C512.94,-252.13 590.96,-225.92 639.556,-209.594"/>
<polygon fill="black" stroke="black" points="640.797,-212.87 649.162,-206.368 638.568,-206.234 640.797,-212.87"/>
</a>
</g>
<!-- http://latin.omdoc.org/logics/syntax?Forall&#45;&gt;http://latin.omdoc.org/translations/fol_ifol?DN&#45;IFOL -->
<g id="edge5" class="edge"><title>http://latin.omdoc.org/logics/syntax?Forall&#45;&gt;http://latin.omdoc.org/translations/fol_ifol?DN&#45;IFOL</title>
<a xlink:href="javascript:parent.navigate(&#39;http://latin.omdoc.org/translations/fol_ifol?Forall&#39;)" xlink:title="view http://latin.omdoc.org/translations/fol_ifol?Forall">
<path fill="none" stroke="blue" stroke-dasharray="5,2" d="M562.041,-183.326C556.676,-181.127 550.99,-178.883 545.658,-176.94 521.301,-167.869 513.427,-170.002 488.585,-158.91 470.093,-150.457 450.78,-138.781 435.385,-128.702"/>
<path fill="none" stroke="blue" stroke-dasharray="5,2" d="M562.8,-181.475C557.411,-179.266 551.725,-177.022 546.342,-175.06 520.778,-165.938 512.904,-168.072 489.415,-157.09 471.127,-148.745 451.814,-137.07 436.481,-127.028"/>
<polygon fill="blue" stroke="blue" points="437.642,-124.798 427.38,-122.165 433.76,-130.623 437.642,-124.798"/>
</a>
<a xlink:href="javascript:parent.navigate(&#39;http://latin.omdoc.org/translations/fol_ifol?Forall&#39;)" xlink:title="Forall">
<text text-anchor="middle" x="505.5" y="-146.3" font-family="Times New Roman,serif" font-size="14.00">Forall</text>
</a>
</g>
<!-- http://latin.omdoc.org/logics/proof_theory?Forall -->
<g id="node11" class="node"><title>http://latin.omdoc.org/logics/proof_theory?Forall</title>
<a xlink:href="javascript:parent.navigate(&#39;http://latin.omdoc.org/logics/proof_theory?Forall&#39;)" xlink:title="theory http://latin.omdoc.org/logics/proof_theory?Forall">
<ellipse fill="gray" stroke="black" cx="719" cy="-106" rx="31.2735" ry="18"/>
<text text-anchor="middle" x="719" y="-102.3" font-family="Times New Roman,serif" font-size="14.00">Forall</text>
</a>
</g>
<!-- http://latin.omdoc.org/logics/syntax?Forall&#45;&gt;http://latin.omdoc.org/logics/proof_theory?Forall -->
<g id="edge59" class="edge"><title>http://latin.omdoc.org/logics/syntax?Forall&#45;&gt;http://latin.omdoc.org/logics/proof_theory?Forall</title>
<a xlink:title="include">
<path fill="none" stroke="black" d="M611.696,-182.702C617.065,-180.479 622.719,-178.151 628,-176 647.949,-167.875 655.328,-170.317 673,-158 683.592,-150.617 693.454,-140.356 701.307,-130.972"/>
<polygon fill="black" stroke="black" points="704.138,-133.037 707.661,-123.045 698.675,-128.659 704.138,-133.037"/>
</a>
</g>
<!-- http://latin.omdoc.org/math?Universe -->
<g id="node7" class="node"><title>http://latin.omdoc.org/math?Universe</title>
<a xlink:href="javascript:parent.navigate(&#39;http://latin.omdoc.org/math?Universe&#39;)" xlink:title="theory http://latin.omdoc.org/math?Universe">
<ellipse fill="gray" stroke="black" cx="284" cy="-356" rx="42.3701" ry="18"/>
<text text-anchor="middle" x="284" y="-352.3" font-family="Times New Roman,serif" font-size="14.00">Universe</text>
</a>
</g>
<!-- http://latin.omdoc.org/math?Universe&#45;&gt;http://latin.omdoc.org/translations/fol_ifol?DN&#45;IFOL -->
<g id="edge7" class="edge"><title>http://latin.omdoc.org/math?Universe&#45;&gt;http://latin.omdoc.org/translations/fol_ifol?DN&#45;IFOL</title>
<a xlink:href="javascript:parent.navigate(&#39;http://latin.omdoc.org/translations/fol_ifol?Universe&#39;)" xlink:title="view http://latin.omdoc.org/translations/fol_ifol?Universe">
<path fill="none" stroke="blue" stroke-dasharray="5,2" d="M285.308,-337.568C289.073,-312.74 297.896,-266.073 315.096,-229.573 333.003,-191.71 362.952,-153.853 383.404,-130.252"/>
<path fill="none" stroke="blue" stroke-dasharray="5,2" d="M287.285,-337.868C291.038,-313.111 299.861,-266.445 316.904,-230.427 334.572,-192.951 364.52,-155.094 384.916,-131.562"/>
<polygon fill="blue" stroke="blue" points="386.972,-133.01 390.952,-123.191 381.717,-128.385 386.972,-133.01"/>
</a>
<a xlink:href="javascript:parent.navigate(&#39;http://latin.omdoc.org/translations/fol_ifol?Universe&#39;)" xlink:title="Universe">
<text text-anchor="middle" x="340.5" y="-234.3" font-family="Times New Roman,serif" font-size="14.00">Universe</text>
</a>
</g>
<!-- http://latin.omdoc.org/math?Universe&#45;&gt;http://latin.omdoc.org/logics/syntax?UniverseLogic -->
<g id="edge57" class="edge"><title>http://latin.omdoc.org/math?Universe&#45;&gt;http://latin.omdoc.org/logics/syntax?UniverseLogic</title>
<a xlink:title="include">
<path fill="none" stroke="black" d="M310.228,-341.794C332.035,-330.815 363.385,-315.03 388.113,-302.58"/>
<polygon fill="black" stroke="black" points="389.874,-305.611 397.232,-297.988 386.726,-299.359 389.874,-305.611"/>
</a>
</g>
<!-- http://latin.omdoc.org/logics/syntax?Exists&#45;&gt;http://latin.omdoc.org/translations/fol_ifol?DN&#45;IFOL -->
<g id="edge9" class="edge"><title>http://latin.omdoc.org/logics/syntax?Exists&#45;&gt;http://latin.omdoc.org/translations/fol_ifol?DN&#45;IFOL</title>
<a xlink:href="javascript:parent.navigate(&#39;http://latin.omdoc.org/translations/fol_ifol?Exists&#39;)" xlink:title="view http://latin.omdoc.org/translations/fol_ifol?Exists">
<path fill="none" stroke="blue" stroke-dasharray="5,2" d="M478.416,-184.135C471.967,-181.755 465.07,-179.234 458.663,-176.942 436.539,-168.585 421.946,-178.606 406.191,-158.588 401.107,-151.413 399.677,-142.724 399.815,-134.256"/>
<path fill="none" stroke="blue" stroke-dasharray="5,2" d="M479.109,-182.259C472.653,-179.876 465.756,-177.355 459.337,-175.058 435.407,-166.936 420.814,-176.958 407.809,-157.412 403.081,-151.089 401.65,-142.399 401.815,-134.293"/>
<polygon fill="blue" stroke="blue" points="404.314,-134.438 401.711,-124.168 397.342,-133.82 404.314,-134.438"/>
</a>
<a xlink:href="javascript:parent.navigate(&#39;http://latin.omdoc.org/translations/fol_ifol?Exists&#39;)" xlink:title="Exists">
<text text-anchor="middle" x="424" y="-146.3" font-family="Times New Roman,serif" font-size="14.00">Exists</text>
</a>
</g>
<!-- http://latin.omdoc.org/logics/proof_theory?Exists -->
<g id="node17" class="node"><title>http://latin.omdoc.org/logics/proof_theory?Exists</title>
<a xlink:href="javascript:parent.navigate(&#39;http://latin.omdoc.org/logics/proof_theory?Exists&#39;)" xlink:title="theory http://latin.omdoc.org/logics/proof_theory?Exists">
<ellipse fill="gray" stroke="black" cx="637" cy="-106" rx="32.2457" ry="18"/>
<text text-anchor="middle" x="637" y="-102.3" font-family="Times New Roman,serif" font-size="14.00">Exists</text>
</a>
</g>
<!-- http://latin.omdoc.org/logics/syntax?Exists&#45;&gt;http://latin.omdoc.org/logics/proof_theory?Exists -->
<g id="edge55" class="edge"><title>http://latin.omdoc.org/logics/syntax?Exists&#45;&gt;http://latin.omdoc.org/logics/proof_theory?Exists</title>
<a xlink:title="include">
<path fill="none" stroke="black" d="M507.825,-175.699C510.483,-164.659 515.536,-150.816 525,-142 544.087,-124.219 572.102,-115.469 595.338,-111.164"/>
<polygon fill="black" stroke="black" points="595.993,-114.604 605.294,-109.531 594.86,-107.696 595.993,-114.604"/>
</a>
</g>
<!-- http://latin.omdoc.org/logics/proof_theory?Forall&#45;&gt;http://latin.omdoc.org/translations/fol_ifol?DN&#45;IFOL -->
<g id="edge11" class="edge"><title>http://latin.omdoc.org/logics/proof_theory?Forall&#45;&gt;http://latin.omdoc.org/translations/fol_ifol?DN&#45;IFOL</title>
<a xlink:href="javascript:parent.navigate(&#39;http://latin.omdoc.org/translations/fol_ifol?ForallPF&#39;)" xlink:title="view http://latin.omdoc.org/translations/fol_ifol?ForallPF">
<path fill="none" stroke="blue" stroke-dasharray="5,2" d="M706.99,-123.12C697.91,-133.397 684.857,-145.604 669.858,-151.434 624.861,-168.534 501.382,-146.865 455.709,-132.957 450.303,-131.306 444.878,-129.121 439.611,-126.684"/>
<path fill="none" stroke="blue" stroke-dasharray="5,2" d="M705.491,-121.796C696.544,-131.936 683.491,-144.143 669.142,-149.566 625.207,-166.564 501.727,-144.895 456.291,-131.043 451.05,-129.45 445.625,-127.266 440.451,-124.869"/>
<polygon fill="blue" stroke="blue" points="441.436,-122.566 430.924,-121.246 438.318,-128.833 441.436,-122.566"/>
</a>
<a xlink:href="javascript:parent.navigate(&#39;http://latin.omdoc.org/translations/fol_ifol?ForallPF&#39;)" xlink:title="ForallPF">
<text text-anchor="middle" x="645" y="-146.3" font-family="Times New Roman,serif" font-size="14.00">ForallPF</text>
</a>
</g>
<!-- http://latin.omdoc.org/logics/proof_theory?IFOL -->
<g id="node19" class="node"><title>http://latin.omdoc.org/logics/proof_theory?IFOL</title>
<a xlink:href="javascript:parent.navigate(&#39;http://latin.omdoc.org/logics/proof_theory?IFOL&#39;)" xlink:title="theory http://latin.omdoc.org/logics/proof_theory?IFOL">
<ellipse fill="gray" stroke="black" cx="637" cy="-18" rx="31.2965" ry="18"/>
<text text-anchor="middle" x="637" y="-14.3" font-family="Times New Roman,serif" font-size="14.00">IFOL</text>
</a>
</g>
<!-- http://latin.omdoc.org/logics/proof_theory?Forall&#45;&gt;http://latin.omdoc.org/logics/proof_theory?IFOL -->
<g id="edge53" class="edge"><title>http://latin.omdoc.org/logics/proof_theory?Forall&#45;&gt;http://latin.omdoc.org/logics/proof_theory?IFOL</title>
<a xlink:title="include">
<path fill="none" stroke="black" d="M704.34,-89.6249C691.63,-76.2949 673.063,-56.8225 658.643,-41.6988"/>
<polygon fill="black" stroke="black" points="660.967,-39.0641 651.533,-34.242 655.901,-43.8946 660.967,-39.0641"/>
</a>
</g>
<!-- http://latin.omdoc.org/logics/proof_theory?BaseFOL&#45;&gt;http://latin.omdoc.org/translations/fol_ifol?DN&#45;IFOL -->
<g id="edge13" class="edge"><title>http://latin.omdoc.org/logics/proof_theory?BaseFOL&#45;&gt;http://latin.omdoc.org/translations/fol_ifol?DN&#45;IFOL</title>
<a xlink:href="javascript:parent.navigate(&#39;http://latin.omdoc.org/translations/fol_ifol?BaseFOLPF&#39;)" xlink:title="view http://latin.omdoc.org/translations/fol_ifol?BaseFOLPF">
<path fill="none" stroke="blue" stroke-dasharray="5,2" d="M648.182,-183.011C641.121,-180.903 633.705,-178.784 626.747,-176.968 591.376,-167.452 579.668,-173.818 544.6,-158.916 532.589,-153.017 532.568,-146.612 521.63,-142.929 495.138,-131.735 484.98,-141.681 455.698,-132.953 450.308,-131.241 444.855,-129.051 439.558,-126.652"/>
<path fill="none" stroke="blue" stroke-dasharray="5,2" d="M648.754,-181.095C641.67,-178.98 634.255,-176.861 627.253,-175.032 590.421,-165.695 578.713,-172.061 545.4,-157.084 534.589,-153.011 534.568,-146.605 522.37,-141.071 493.739,-130.306 483.581,-140.251 456.302,-131.047 451.053,-129.386 445.601,-127.195 440.384,-124.83"/>
<polygon fill="blue" stroke="blue" points="441.317,-122.505 430.79,-121.312 438.276,-128.809 441.317,-122.505"/>
</a>
<a xlink:href="javascript:parent.navigate(&#39;http://latin.omdoc.org/translations/fol_ifol?BaseFOLPF&#39;)" xlink:title="BaseFOLPF">
<text text-anchor="middle" x="580.5" y="-146.3" font-family="Times New Roman,serif" font-size="14.00">BaseFOLPF</text>
</a>
</g>
<!-- http://latin.omdoc.org/logics/proof_theory?BaseFOL&#45;&gt;http://latin.omdoc.org/logics/proof_theory?Forall -->
<g id="edge51" class="edge"><title>http://latin.omdoc.org/logics/proof_theory?BaseFOL&#45;&gt;http://latin.omdoc.org/logics/proof_theory?Forall</title>
<a xlink:title="include">
<path fill="none" stroke="black" d="M705.325,-177.967C711.592,-172.491 717.614,-165.721 721,-158 724.216,-150.665 724.912,-142.151 724.466,-134.206"/>
<polygon fill="black" stroke="black" points="727.94,-133.779 723.338,-124.235 720.985,-134.566 727.94,-133.779"/>
</a>
</g>
<!-- http://latin.omdoc.org/logics/proof_theory?BaseFOL&#45;&gt;http://latin.omdoc.org/logics/proof_theory?Exists -->
<g id="edge49" class="edge"><title>http://latin.omdoc.org/logics/proof_theory?BaseFOL&#45;&gt;http://latin.omdoc.org/logics/proof_theory?Exists</title>
<a xlink:title="include">
<path fill="none" stroke="black" d="M681.268,-175.635C679.685,-165.361 676.679,-152.372 671,-142 668.471,-137.382 665.166,-132.943 661.61,-128.868"/>
<polygon fill="black" stroke="black" points="664.041,-126.345 654.603,-121.531 658.978,-131.18 664.041,-126.345"/>
</a>
</g>
<!-- http://latin.omdoc.org/translations/prop_iprop?DN&#45;IPL -->
<g id="node15" class="node"><title>http://latin.omdoc.org/translations/prop_iprop?DN&#45;IPL</title>
<a xlink:href="javascript:parent.navigate(&#39;http://latin.omdoc.org/translations/prop_iprop?DN-IPL&#39;)" xlink:title="theory http://latin.omdoc.org/translations/prop_iprop?DN&#45;IPL">
<ellipse fill="gray" stroke="black" cx="183" cy="-356" rx="39.9464" ry="18"/>
<text text-anchor="middle" x="183" y="-352.3" font-family="Times New Roman,serif" font-size="14.00">DN&#45;IPL</text>
</a>
</g>
<!-- http://latin.omdoc.org/translations/prop_iprop?DN&#45;IPL&#45;&gt;http://latin.omdoc.org/translations/fol_ifol?DN&#45;IFOL -->
<g id="edge15" class="edge"><title>http://latin.omdoc.org/translations/prop_iprop?DN&#45;IPL&#45;&gt;http://latin.omdoc.org/translations/fol_ifol?DN&#45;IFOL</title>
<a xlink:title="include">
<path fill="none" stroke="black" d="M193.411,-338.532C218.262,-300.211 284.552,-203.648 359,-142 364.475,-137.466 370.463,-132.8 376.276,-128.411"/>
<polygon fill="black" stroke="black" points="378.653,-131.005 384.587,-122.227 374.475,-125.389 378.653,-131.005"/>
</a>
</g>
<!-- http://latin.omdoc.org/logics/proof_theory?Exists&#45;&gt;http://latin.omdoc.org/translations/fol_ifol?DN&#45;IFOL -->
<g id="edge17" class="edge"><title>http://latin.omdoc.org/logics/proof_theory?Exists&#45;&gt;http://latin.omdoc.org/translations/fol_ifol?DN&#45;IFOL</title>
<a xlink:href="javascript:parent.navigate(&#39;http://latin.omdoc.org/translations/fol_ifol?ExistsPF&#39;)" xlink:title="view http://latin.omdoc.org/translations/fol_ifol?ExistsPF">
<path fill="none" stroke="blue" stroke-dasharray="5,2" d="M604.728,-107C567.98,-107 507.263,-107 462.595,-107"/>
<path fill="none" stroke="blue" stroke-dasharray="5,2" d="M604.728,-105C567.98,-105 507.263,-105 462.595,-105"/>
<polygon fill="blue" stroke="blue" points="462.468,-102.5 452.468,-106 462.468,-109.5 462.468,-102.5"/>
</a>
<a xlink:href="javascript:parent.navigate(&#39;http://latin.omdoc.org/translations/fol_ifol?ExistsPF&#39;)" xlink:title="ExistsPF">
<text text-anchor="middle" x="528.251" y="-112.8" font-family="Times New Roman,serif" font-size="14.00">ExistsPF</text>
</a>
</g>
<!-- http://latin.omdoc.org/logics/proof_theory?Exists&#45;&gt;http://latin.omdoc.org/logics/proof_theory?IFOL -->
<g id="edge47" class="edge"><title>http://latin.omdoc.org/logics/proof_theory?Exists&#45;&gt;http://latin.omdoc.org/logics/proof_theory?IFOL</title>
<a xlink:title="include">
<path fill="none" stroke="black" d="M637,-87.5966C637,-75.7459 637,-59.8169 637,-46.2917"/>
<polygon fill="black" stroke="black" points="640.5,-46.084 637,-36.084 633.5,-46.084 640.5,-46.084"/>
</a>
</g>
<!-- http://latin.omdoc.org/logics/proof_theory?IFOL&#45;&gt;http://latin.omdoc.org/translations/fol_ifol?DN&#45;IFOL -->
<g id="edge19" class="edge"><title>http://latin.omdoc.org/logics/proof_theory?IFOL&#45;&gt;http://latin.omdoc.org/translations/fol_ifol?DN&#45;IFOL</title>
<a xlink:href="javascript:parent.navigate(&#39;http://latin.omdoc.org/translations/fol_ifol?IFOLPF&#39;)" xlink:title="view http://latin.omdoc.org/translations/fol_ifol?IFOLPF">
<path fill="none" stroke="blue" stroke-dasharray="5,2" d="M609.033,-26.7617C583.88,-33.1079 546.179,-43.3389 514.342,-54.9396 488.038,-64.4824 482.109,-68.7166 456.428,-80.9037 451.84,-83.0777 447.031,-85.4117 442.292,-87.744"/>
<path fill="none" stroke="blue" stroke-dasharray="5,2" d="M608.544,-24.8224C583.356,-31.1777 545.655,-41.4087 513.658,-53.0604 486.876,-62.8549 480.947,-67.089 455.572,-79.0963 450.967,-81.2784 446.158,-83.6123 441.409,-85.9496"/>
<polygon fill="blue" stroke="blue" points="440.286,-83.7159 432.885,-91.2969 443.398,-89.986 440.286,-83.7159"/>
</a>
<a xlink:href="javascript:parent.navigate(&#39;http://latin.omdoc.org/translations/fol_ifol?IFOLPF&#39;)" xlink:title="IFOLPF">
<text text-anchor="middle" x="538.5" y="-58.3" font-family="Times New Roman,serif" font-size="14.00">IFOLPF</text>
</a>
</g>
<!-- http://latin.omdoc.org/logics/proof_theory?IFOL&#45;&gt;http://latin.omdoc.org/translations/fol_ifol?DN&#45;IFOL -->
<g id="edge21" class="edge"><title>http://latin.omdoc.org/logics/proof_theory?IFOL&#45;&gt;http://latin.omdoc.org/translations/fol_ifol?DN&#45;IFOL</title>
<a xlink:title="include">
<path fill="none" stroke="black" d="M621.042,-33.6426C606.912,-45.6599 585.145,-61.9587 563,-70 518.105,-86.3019 501.924,-66.8731 456,-80 450.576,-81.5504 445.038,-83.6855 439.716,-86.06"/>
<polygon fill="black" stroke="black" points="437.94,-83.0305 430.444,-90.5178 440.973,-89.3393 437.94,-83.0305"/>
</a>
</g>
<!-- http://latin.omdoc.org/logics/proof_theory?IFOLExt -->
<g id="node22" class="node"><title>http://latin.omdoc.org/logics/proof_theory?IFOLExt</title>
<a xlink:href="javascript:parent.navigate(&#39;http://latin.omdoc.org/logics/proof_theory?IFOLExt&#39;)" xlink:title="theory http://latin.omdoc.org/logics/proof_theory?IFOLExt">
<ellipse fill="gray" stroke="black" cx="43" cy="-356" rx="43.319" ry="18"/>
<text text-anchor="middle" x="43" y="-352.3" font-family="Times New Roman,serif" font-size="14.00">IFOLExt</text>
</a>
</g>
<!-- http://latin.omdoc.org/logics/proof_theory?IFOLExt&#45;&gt;http://latin.omdoc.org/translations/fol_ifol?DN&#45;IFOL -->
<g id="edge23" class="edge"><title>http://latin.omdoc.org/logics/proof_theory?IFOLExt&#45;&gt;http://latin.omdoc.org/translations/fol_ifol?DN&#45;IFOL</title>
<a xlink:title="include">
<path fill="none" stroke="black" d="M41.8393,-337.909C40.091,-296.923 41.9783,-192.69 101,-142 137.133,-110.968 271.473,-106.207 349.283,-106.159"/>
<polygon fill="black" stroke="black" points="349.401,-109.66 359.408,-106.18 349.415,-102.66 349.401,-109.66"/>
</a>
</g>
<!-- http://cds.omdoc.org/urtheories?LF -->
<g id="node24" class="node"><title>http://cds.omdoc.org/urtheories?LF</title>
<a xlink:href="javascript:parent.navigate(&#39;http://cds.omdoc.org/urtheories?LF&#39;)" xlink:title="theory http://cds.omdoc.org/urtheories?LF">
<ellipse fill="gray" stroke="black" cx="427" cy="-430" rx="27" ry="18"/>
<text text-anchor="middle" x="427" y="-426.3" font-family="Times New Roman,serif" font-size="14.00">LF</text>
</a>
</g>
<!-- http://cds.omdoc.org/urtheories?LF&#45;&gt;http://latin.omdoc.org/translations/fol_ifol?DN&#45;IFOL -->
<g id="edge25" class="edge"><title>http://cds.omdoc.org/urtheories?LF&#45;&gt;http://latin.omdoc.org/translations/fol_ifol?DN&#45;IFOL</title>
<a xlink:title="meta">
<path fill="none" stroke="green" d="M399.858,-428.5C323.95,-426.373 115,-415.231 115,-357 115,-357 115,-357 115,-193 115,-144.325 266.629,-121.11 350.981,-111.962"/>
<polygon fill="green" stroke="green" points="351.59,-115.417 361.169,-110.89 350.858,-108.456 351.59,-115.417"/>
</a>
</g>
<!-- http://cds.omdoc.org/urtheories?LF&#45;&gt;http://latin.omdoc.org/logics/syntax?UniverseLogic -->
<g id="edge33" class="edge"><title>http://cds.omdoc.org/urtheories?LF&#45;&gt;http://latin.omdoc.org/logics/syntax?UniverseLogic</title>
<a xlink:title="meta">
<path fill="none" stroke="green" d="M427,-411.966C427,-387.045 427,-340.374 427,-310.537"/>
<polygon fill="green" stroke="green" points="430.5,-310.378 427,-300.378 423.5,-310.378 430.5,-310.378"/>
</a>
</g>
<!-- http://cds.omdoc.org/urtheories?LF&#45;&gt;http://latin.omdoc.org/logics/syntax?Forall -->
<g id="edge29" class="edge"><title>http://cds.omdoc.org/urtheories?LF&#45;&gt;http://latin.omdoc.org/logics/syntax?Forall</title>
<a xlink:title="meta">
<path fill="none" stroke="green" d="M437.746,-413.283C465.12,-373.249 537.622,-267.216 570.443,-219.215"/>
<polygon fill="green" stroke="green" points="573.334,-221.187 576.09,-210.956 567.556,-217.236 573.334,-221.187"/>
</a>
</g>
<!-- http://cds.omdoc.org/urtheories?LF&#45;&gt;http://latin.omdoc.org/math?Universe -->
<g id="edge27" class="edge"><title>http://cds.omdoc.org/urtheories?LF&#45;&gt;http://latin.omdoc.org/math?Universe</title>
<a xlink:title="meta">
<path fill="none" stroke="green" d="M403.535,-421.019C385.693,-414.605 360.76,-404.892 340,-394 330.886,-389.219 321.396,-383.332 312.873,-377.673"/>
<polygon fill="green" stroke="green" points="314.636,-374.639 304.398,-371.913 310.701,-380.429 314.636,-374.639"/>
</a>
</g>
<!-- http://cds.omdoc.org/urtheories?LF&#45;&gt;http://latin.omdoc.org/logics/syntax?Exists -->
<g id="edge37" class="edge"><title>http://cds.omdoc.org/urtheories?LF&#45;&gt;http://latin.omdoc.org/logics/syntax?Exists</title>
<a xlink:title="meta">
<path fill="none" stroke="green" d="M411.837,-415.018C381.846,-385.634 320.626,-315.905 354,-264 384.118,-217.158 417.365,-235.181 468,-212 469.157,-211.47 470.334,-210.931 471.523,-210.386"/>
<polygon fill="green" stroke="green" points="473.093,-213.517 480.723,-206.166 470.174,-207.154 473.093,-213.517"/>
</a>
</g>
<!-- http://cds.omdoc.org/urtheories?LF&#45;&gt;http://latin.omdoc.org/logics/proof_theory?Forall -->
<g id="edge31" class="edge"><title>http://cds.omdoc.org/urtheories?LF&#45;&gt;http://latin.omdoc.org/logics/proof_theory?Forall</title>
<a xlink:title="meta">
<path fill="none" stroke="green" d="M454.06,-429.452C539.045,-430.153 795,-426.494 795,-357 795,-357 795,-357 795,-193 795,-163.929 770.315,-140.061 749.082,-124.908"/>
<polygon fill="green" stroke="green" points="750.818,-121.857 740.575,-119.15 746.895,-127.654 750.818,-121.857"/>
</a>
</g>
<!-- http://cds.omdoc.org/urtheories?LF&#45;&gt;http://latin.omdoc.org/logics/proof_theory?BaseFOL -->
<g id="edge43" class="edge"><title>http://cds.omdoc.org/urtheories?LF&#45;&gt;http://latin.omdoc.org/logics/proof_theory?BaseFOL</title>
<a xlink:title="meta">
<path fill="none" stroke="green" d="M443.2,-415.39C456.233,-404.367 474.954,-388.364 491,-374 552.241,-319.178 622.491,-252.755 658.659,-218.289"/>
<polygon fill="green" stroke="green" points="661.441,-220.471 666.261,-211.036 656.61,-215.406 661.441,-220.471"/>
</a>
</g>
<!-- http://cds.omdoc.org/urtheories?LF&#45;&gt;http://latin.omdoc.org/translations/prop_iprop?DN&#45;IPL -->
<g id="edge41" class="edge"><title>http://cds.omdoc.org/urtheories?LF&#45;&gt;http://latin.omdoc.org/translations/prop_iprop?DN&#45;IPL</title>
<a xlink:title="meta">
<path fill="none" stroke="green" d="M402.381,-422.457C365.427,-412.537 293.497,-392.846 233,-374 229.849,-373.018 226.595,-371.976 223.33,-370.911"/>
<polygon fill="green" stroke="green" points="224.185,-367.507 213.592,-367.679 221.98,-374.151 224.185,-367.507"/>
</a>
</g>
<!-- http://cds.omdoc.org/urtheories?LF&#45;&gt;http://latin.omdoc.org/logics/proof_theory?Exists -->
<g id="edge39" class="edge"><title>http://cds.omdoc.org/urtheories?LF&#45;&gt;http://latin.omdoc.org/logics/proof_theory?Exists</title>
<a xlink:title="meta">
<path fill="none" stroke="green" d="M454.005,-428.843C532.819,-427.662 757,-418.865 757,-357 757,-357 757,-357 757,-237 757,-208.604 754.8,-198.893 738,-176 732.955,-169.125 694.483,-143.716 666.514,-125.735"/>
<polygon fill="green" stroke="green" points="668.167,-122.638 657.858,-120.191 664.391,-128.532 668.167,-122.638"/>
</a>
</g>
<!-- http://cds.omdoc.org/urtheories?LF&#45;&gt;http://latin.omdoc.org/logics/proof_theory?IFOL -->
<g id="edge35" class="edge"><title>http://cds.omdoc.org/urtheories?LF&#45;&gt;http://latin.omdoc.org/logics/proof_theory?IFOL</title>
<a xlink:title="meta">
<path fill="none" stroke="green" d="M453.838,-428.002C525.197,-425.083 718.252,-415.384 778,-394 805.738,-384.073 833,-386.461 833,-357 833,-357 833,-357 833,-105 833,-38.0095 735.8,-22.7214 678.299,-19.5384"/>
<polygon fill="green" stroke="green" points="678.205,-16.0306 668.057,-19.0752 677.888,-23.0235 678.205,-16.0306"/>
</a>
</g>
<!-- http://cds.omdoc.org/urtheories?LF&#45;&gt;http://latin.omdoc.org/logics/proof_theory?IFOLExt -->
<g id="edge45" class="edge"><title>http://cds.omdoc.org/urtheories?LF&#45;&gt;http://latin.omdoc.org/logics/proof_theory?IFOLExt</title>
<a xlink:title="meta">
<path fill="none" stroke="green" d="M399.895,-427.686C331.984,-424.139 156.056,-413.314 101,-394 90.3239,-390.255 79.6073,-384.215 70.342,-378.092"/>
<polygon fill="green" stroke="green" points="72.1628,-375.095 61.9522,-372.268 68.171,-380.846 72.1628,-375.095"/>
</a>
</g>
</g>
</svg>
