<?xml version="1.0" encoding="UTF-8" standalone="no"?>
<!DOCTYPE svg PUBLIC "-//W3C//DTD SVG 1.1//EN"
 "http://www.w3.org/Graphics/SVG/1.1/DTD/svg11.dtd">
<!-- Generated by graphviz version 2.28.0 (20110507.0327)
 -->
<!-- Title: MMT Pages: 1 -->
<svg
 viewBox="0.00 0.00 343.50 222.00" xmlns="http://www.w3.org/2000/svg" xmlns:xlink="http://www.w3.org/1999/xlink">
<g id="graph1" class="graph" transform="scale(1 1) rotate(0) translate(4 218)">
<title>MMT</title>
<polygon fill="white" stroke="white" points="-4,5 -4,-218 340.5,-218 340.5,5 -4,5"/>
<g id="graph2" class="cluster"><title>cluster_local</title>
<polygon fill="none" stroke="black" points="31.5,-8 31.5,-148 153.5,-148 153.5,-8 31.5,-8"/>
</g>
<!-- http://latin.omdoc.org/foundations/mizar?Tarski -->
<g id="node2" class="node"><title>http://latin.omdoc.org/foundations/mizar?Tarski</title>
<a xlink:href="http://latin.omdoc.org/foundations/mizar?Tarski" class="graphtheory">
<ellipse fill="none" stroke="black" cx="73.5" cy="-122" rx="33.1991" ry="18"/>
<text text-anchor="middle" x="73.5" y="-118.3" font-family="Times New Roman,serif" font-size="14.00">Tarski</text>
</a>
</g>
<!-- http://latin.omdoc.org/foundations/mizar?Mizar_ZFC -->
<g id="node3" class="node"><title>http://latin.omdoc.org/foundations/mizar?Mizar_ZFC</title>
<a xlink:href="http://latin.omdoc.org/foundations/mizar?Mizar_ZFC" class="graphtheory">
<ellipse fill="none" stroke="black" cx="92.5" cy="-34" rx="52.9443" ry="18"/>
<text text-anchor="middle" x="92.5" y="-30.3" font-family="Times New Roman,serif" font-size="14.00">Mizar_ZFC</text>
</a>
</g>
<!-- http://latin.omdoc.org/foundations/mizar?Tarski&#45;&gt;http://latin.omdoc.org/foundations/mizar?Mizar_ZFC -->
<g id="edge3" class="edge"><title>http://latin.omdoc.org/foundations/mizar?Tarski&#45;&gt;http://latin.omdoc.org/foundations/mizar?Mizar_ZFC</title>
<a xlink:href="http://latin.omdoc.org/foundations/mizar?TarskiView" class="graphview">
<path fill="none" stroke="black" d="M44.2277,-112.771C19.5478,-104.271 -9.79157,-89.5094 3.49995,-70 11.1728,-58.7377 23.0744,-51.0993 35.7044,-45.9188"/>
<polygon fill="black" stroke="black" points="37.2199,-49.0934 45.4465,-42.417 34.8521,-42.506 37.2199,-49.0934"/>
</a>
<a xlink:href="http://latin.omdoc.org/foundations/mizar?TarskiView" class="TarskiView">
<text text-anchor="middle" x="35.5" y="-74.3" font-family="Times New Roman,serif" font-size="14.00">TarskiView</text>
</a>
</g>
<!-- http://latin.omdoc.org/foundations/mizar?Mizar -->
<g id="node5" class="node"><title>http://latin.omdoc.org/foundations/mizar?Mizar</title>
<a xlink:href="http://latin.omdoc.org/foundations/mizar?Mizar" class="graphtheory">
<ellipse fill="gray" stroke="black" cx="195.5" cy="-122" rx="31.2965" ry="18"/>
<text text-anchor="middle" x="195.5" y="-118.3" font-family="Times New Roman,serif" font-size="14.00">Mizar</text>
</a>
</g>
<!-- http://latin.omdoc.org/foundations/mizar?Mizar&#45;&gt;http://latin.omdoc.org/foundations/mizar?Tarski -->
<g id="edge5" class="edge"><title>http://latin.omdoc.org/foundations/mizar?Mizar&#45;&gt;http://latin.omdoc.org/foundations/mizar?Tarski</title>
<a class="graphinclude">
<path fill="none" stroke="black" d="M164.16,-122C148.622,-122 133.084,-122 117.547,-122"/>
<polygon fill="black" stroke="black" points="117.336,-118.5 107.336,-122 117.336,-125.5 117.336,-118.5"/>
</a>
</g>
<!-- http://latin.omdoc.org/foundations/mizar?Mizar&#45;&gt;http://latin.omdoc.org/foundations/mizar?Mizar_ZFC -->
<g id="edge9" class="edge"><title>http://latin.omdoc.org/foundations/mizar?Mizar&#45;&gt;http://latin.omdoc.org/foundations/mizar?Mizar_ZFC</title>
<a xlink:href="http://latin.omdoc.org/foundations/mizar?MizarView" class="graphview">
<path fill="none" stroke="black" d="M183.606,-105.137C175.111,-94.4444 163.012,-80.44 150.5,-70 143.88,-64.476 136.295,-59.2454 128.84,-54.5933"/>
<polygon fill="black" stroke="black" points="130.59,-51.5616 120.215,-49.415 126.987,-57.5631 130.59,-51.5616"/>
</a>
<a xlink:href="http://latin.omdoc.org/foundations/mizar?MizarView" class="MizarView">
<text text-anchor="middle" x="198" y="-74.3" font-family="Times New Roman,serif" font-size="14.00">MizarView</text>
</a>
</g>
<!-- http://cds.omdoc.org/urtheories?LF -->
<g id="node7" class="node"><title>http://cds.omdoc.org/urtheories?LF</title>
<a xlink:href="http://cds.omdoc.org/urtheories?LF" class="graphtheory">
<ellipse fill="gray" stroke="black" cx="136.5" cy="-196" rx="27" ry="18"/>
<text text-anchor="middle" x="136.5" y="-192.3" font-family="Times New Roman,serif" font-size="14.00">LF</text>
</a>
</g>
<!-- http://cds.omdoc.org/urtheories?LF&#45;&gt;http://latin.omdoc.org/foundations/mizar?Tarski -->
<g id="edge7" class="edge"><title>http://cds.omdoc.org/urtheories?LF&#45;&gt;http://latin.omdoc.org/foundations/mizar?Tarski</title>
<a class="graphmeta">
<path fill="none" stroke="black" d="M123.446,-180.082C114.92,-170.337 103.609,-157.41 93.9076,-146.323"/>
<polygon fill="black" stroke="black" points="96.4097,-143.868 87.1906,-138.647 91.1417,-148.477 96.4097,-143.868"/>
</a>
</g>
<!-- http://cds.omdoc.org/urtheories?LF&#45;&gt;http://latin.omdoc.org/foundations/mizar?Mizar_ZFC -->
<g id="edge13" class="edge"><title>http://cds.omdoc.org/urtheories?LF&#45;&gt;http://latin.omdoc.org/foundations/mizar?Mizar_ZFC</title>
<a class="graphmeta">
<path fill="none" stroke="black" d="M133.103,-178.107C129.295,-159.744 122.702,-129.597 115.5,-104 111.533,-89.901 106.439,-74.413 102.054,-61.6892"/>
<polygon fill="black" stroke="black" points="105.326,-60.4432 98.7239,-52.1569 98.7176,-62.7517 105.326,-60.4432"/>
</a>
</g>
<!-- http://cds.omdoc.org/urtheories?LF&#45;&gt;http://latin.omdoc.org/foundations/mizar?Mizar -->
<g id="edge17" class="edge"><title>http://cds.omdoc.org/urtheories?LF&#45;&gt;http://latin.omdoc.org/foundations/mizar?Mizar</title>
<a class="graphmeta">
<path fill="none" stroke="black" d="M149.012,-179.731C156.883,-170.125 167.202,-157.534 176.117,-146.654"/>
<polygon fill="black" stroke="black" points="178.967,-148.698 182.598,-138.745 173.552,-144.261 178.967,-148.698"/>
</a>
</g>
<!-- http://latin.omdoc.org/foundations/zfc?TypedZF -->
<g id="node10" class="node"><title>http://latin.omdoc.org/foundations/zfc?TypedZF</title>
<a xlink:href="http://latin.omdoc.org/foundations/zfc?TypedZF" class="graphtheory">
<ellipse fill="gray" stroke="black" cx="290.5" cy="-122" rx="45.244" ry="18"/>
<text text-anchor="middle" x="290.5" y="-118.3" font-family="Times New Roman,serif" font-size="14.00">TypedZF</text>
</a>
</g>
<!-- http://cds.omdoc.org/urtheories?LF&#45;&gt;http://latin.omdoc.org/foundations/zfc?TypedZF -->
<g id="edge15" class="edge"><title>http://cds.omdoc.org/urtheories?LF&#45;&gt;http://latin.omdoc.org/foundations/zfc?TypedZF</title>
<a class="graphmeta">
<path fill="none" stroke="black" d="M157.913,-184.989C182.448,-173.518 223.107,-154.509 252.942,-140.559"/>
<polygon fill="black" stroke="black" points="254.638,-143.63 262.215,-136.224 251.674,-137.289 254.638,-143.63"/>
</a>
</g>
<!-- http://latin.omdoc.org/foundations/zfc?TypedZF&#45;&gt;http://latin.omdoc.org/foundations/mizar?Mizar_ZFC -->
<g id="edge11" class="edge"><title>http://latin.omdoc.org/foundations/zfc?TypedZF&#45;&gt;http://latin.omdoc.org/foundations/mizar?Mizar_ZFC</title>
<a class="graphinclude">
<path fill="none" stroke="black" d="M275.806,-104.447C264.911,-93.1556 249.123,-78.7205 232.5,-70 207.43,-56.8484 177.214,-48.4878 151.28,-43.2512"/>
<polygon fill="black" stroke="black" points="151.68,-39.7643 141.201,-41.327 150.367,-46.6402 151.68,-39.7643"/>
</a>
</g>
</g>
</svg>
