<?xml version="1.0" encoding="UTF-8" standalone="no"?>
<!DOCTYPE svg PUBLIC "-//W3C//DTD SVG 1.1//EN"
 "http://www.w3.org/Graphics/SVG/1.1/DTD/svg11.dtd">
<!-- Generated by graphviz version 2.28.0 (20110507.0327)
 -->
<!-- Title: MMT Pages: 1 -->
<svg width="485pt" height="368pt"
 viewBox="0.00 0.00 485.00 368.00" xmlns="http://www.w3.org/2000/svg" xmlns:xlink="http://www.w3.org/1999/xlink">
<g id="graph1" class="graph" transform="scale(1 1) rotate(0) translate(4 364)">
<title>MMT</title>
<polygon fill="white" stroke="white" points="-4,5 -4,-364 482,-364 482,5 -4,5"/>
<g id="graph2" class="cluster"><title>cluster_local</title>
<polygon fill="none" stroke="black" points="216,-168 216,-220 290,-220 290,-168 216,-168"/>
</g>
<!-- http://latin.omdoc.org/logics/syntax?ALC -->
<g id="node2" class="node"><title>http://latin.omdoc.org/logics/syntax?ALC</title>
<a xlink:href="http://latin.omdoc.org/logics/syntax?ALC" class="graphtheory">
<ellipse fill="none" stroke="black" cx="253" cy="-194" rx="28.3955" ry="18"/>
<text text-anchor="middle" x="253" y="-190.3" font-family="Times New Roman,serif" font-size="14.00">ALC</text>
</a>
</g>
<!-- http://latin.omdoc.org/logics/model_theory?S -->
<g id="node3" class="node"><title>http://latin.omdoc.org/logics/model_theory?S</title>
<a xlink:href="http://latin.omdoc.org/logics/model_theory?S" class="graphtheory">
<ellipse fill="gray" stroke="black" cx="116" cy="-106" rx="27" ry="18"/>
<text text-anchor="middle" x="116" y="-102.3" font-family="Times New Roman,serif" font-size="14.00">S</text>
</a>
</g>
<!-- http://latin.omdoc.org/logics/syntax?ALC&#45;&gt;http://latin.omdoc.org/logics/model_theory?S -->
<g id="edge3" class="edge"><title>http://latin.omdoc.org/logics/syntax?ALC&#45;&gt;http://latin.omdoc.org/logics/model_theory?S</title>
<a xlink:href="http://latin.omdoc.org/logics/model_theory?S?[http://latin.omdoc.org/logics/syntax?ALC]" class="graphstructure">
<path fill="none" stroke="black" d="M237.64,-178.591C232.414,-174.483 226.293,-170.459 220,-168 198.581,-159.629 132.622,-174.876 117,-158 111.098,-151.624 109.573,-142.644 109.937,-133.994"/>
<polygon fill="black" stroke="black" points="113.443,-134.145 111.15,-123.801 106.492,-133.317 113.443,-134.145"/>
</a>
<a xlink:href="http://latin.omdoc.org/logics/model_theory?S?[http://latin.omdoc.org/logics/syntax?ALC]" class="[http://latin.omdoc.org/logics/syntax?ALC]">
<text text-anchor="middle" x="237.5" y="-146.3" font-family="Times New Roman,serif" font-size="14.00">[http://latin.omdoc.org/logics/syntax?ALC]</text>
</a>
</g>
<!-- http://latin.omdoc.org/logics/syntax?FOLEQ -->
<g id="node5" class="node"><title>http://latin.omdoc.org/logics/syntax?FOLEQ</title>
<a xlink:href="http://latin.omdoc.org/logics/syntax?FOLEQ" class="graphtheory">
<ellipse fill="gray" stroke="black" cx="349" cy="-18" rx="39.9464" ry="18"/>
<text text-anchor="middle" x="349" y="-14.3" font-family="Times New Roman,serif" font-size="14.00">FOLEQ</text>
</a>
</g>
<!-- http://latin.omdoc.org/logics/syntax?ALC&#45;&gt;http://latin.omdoc.org/logics/syntax?FOLEQ -->
<g id="edge5" class="edge"><title>http://latin.omdoc.org/logics/syntax?ALC&#45;&gt;http://latin.omdoc.org/logics/syntax?FOLEQ</title>
<a xlink:href="http://latin.omdoc.org/logics/model_theory?ALC" class="graphview">
<path fill="none" stroke="black" d="M268.216,-178.473C273.212,-174.462 279.025,-170.524 285,-168 300.083,-161.629 347.236,-170.339 358,-158 359.816,-155.919 354.453,-85.9773 351.235,-46.1201"/>
<polygon fill="black" stroke="black" points="354.711,-45.6747 350.411,-35.9914 347.734,-46.2422 354.711,-45.6747"/>
</a>
<a xlink:href="http://latin.omdoc.org/logics/model_theory?ALC" class="ALC">
<text text-anchor="middle" x="371" y="-102.3" font-family="Times New Roman,serif" font-size="14.00">ALC</text>
</a>
</g>
<!-- http://latin.omdoc.org/logics/syntax?S -->
<g id="node7" class="node"><title>http://latin.omdoc.org/logics/syntax?S</title>
<a xlink:href="http://latin.omdoc.org/logics/syntax?S" class="graphtheory">
<ellipse fill="gray" stroke="black" cx="422" cy="-106" rx="27" ry="18"/>
<text text-anchor="middle" x="422" y="-102.3" font-family="Times New Roman,serif" font-size="14.00">S</text>
</a>
</g>
<!-- http://latin.omdoc.org/logics/syntax?ALC&#45;&gt;http://latin.omdoc.org/logics/syntax?S -->
<g id="edge7" class="edge"><title>http://latin.omdoc.org/logics/syntax?ALC&#45;&gt;http://latin.omdoc.org/logics/syntax?S</title>
<a class="graphinclude">
<path fill="none" stroke="black" d="M267.839,-178.608C272.904,-174.501 278.852,-170.473 285,-168 325.619,-151.661 344.786,-179.366 383,-158 393.726,-152.003 402.447,-141.712 408.9,-131.938"/>
<polygon fill="black" stroke="black" points="411.98,-133.609 414.182,-123.246 405.998,-129.975 411.98,-133.609"/>
</a>
</g>
<!-- http://latin.omdoc.org/logics/syntax?S&#45;&gt;http://latin.omdoc.org/logics/syntax?FOLEQ -->
<g id="edge27" class="edge"><title>http://latin.omdoc.org/logics/syntax?S&#45;&gt;http://latin.omdoc.org/logics/syntax?FOLEQ</title>
<a xlink:href="http://latin.omdoc.org/logics/model_theory?S" class="graphview">
<path fill="none" stroke="black" d="M409.284,-90.0199C398.255,-77.0264 382.094,-57.987 369.28,-42.8915"/>
<polygon fill="black" stroke="black" points="371.699,-40.3332 362.56,-34.9744 366.363,-44.8632 371.699,-40.3332"/>
</a>
<a xlink:href="http://latin.omdoc.org/logics/model_theory?S" class="S">
<text text-anchor="middle" x="397.5" y="-58.3" font-family="Times New Roman,serif" font-size="14.00">S</text>
</a>
</g>
<!-- http://latin.omdoc.org/logics/syntax?C -->
<g id="node9" class="node"><title>http://latin.omdoc.org/logics/syntax?C</title>
<a xlink:href="http://latin.omdoc.org/logics/syntax?C" class="graphtheory">
<ellipse fill="gray" stroke="black" cx="27" cy="-268" rx="27" ry="18"/>
<text text-anchor="middle" x="27" y="-264.3" font-family="Times New Roman,serif" font-size="14.00">C</text>
</a>
</g>
<!-- http://latin.omdoc.org/logics/syntax?C&#45;&gt;http://latin.omdoc.org/logics/syntax?ALC -->
<g id="edge9" class="edge"><title>http://latin.omdoc.org/logics/syntax?C&#45;&gt;http://latin.omdoc.org/logics/syntax?ALC</title>
<a class="graphinclude">
<path fill="none" stroke="black" d="M53.425,-264.035C91.6974,-258.986 164.089,-246.568 220,-220 222.986,-218.581 225.965,-216.865 228.842,-215.004"/>
<polygon fill="black" stroke="black" points="230.961,-217.792 237.076,-209.14 226.9,-212.09 230.961,-217.792"/>
</a>
</g>
<!-- http://latin.omdoc.org/logics/syntax?C&#45;&gt;http://latin.omdoc.org/logics/syntax?FOLEQ -->
<g id="edge25" class="edge"><title>http://latin.omdoc.org/logics/syntax?C&#45;&gt;http://latin.omdoc.org/logics/syntax?FOLEQ</title>
<a xlink:href="http://latin.omdoc.org/logics/model_theory?C" class="graphview">
<path fill="none" stroke="black" d="M24.9391,-249.945C21.7449,-215.896 19.1898,-138.438 54,-88 68.8495,-66.4838 77.7077,-63.6613 102,-54 166.571,-28.3197 247.226,-21.0811 298.441,-19.2551"/>
<polygon fill="black" stroke="black" points="298.701,-22.749 308.592,-18.9505 298.491,-15.7521 298.701,-22.749"/>
</a>
<a xlink:href="http://latin.omdoc.org/logics/model_theory?C" class="C">
<text text-anchor="middle" x="36" y="-146.3" font-family="Times New Roman,serif" font-size="14.00">C</text>
</a>
</g>
<!-- http://latin.omdoc.org/logics/syntax?FLminus -->
<g id="node11" class="node"><title>http://latin.omdoc.org/logics/syntax?FLminus</title>
<a xlink:href="http://latin.omdoc.org/logics/syntax?FLminus" class="graphtheory">
<ellipse fill="gray" stroke="black" cx="216" cy="-268" rx="42.3456" ry="18"/>
<text text-anchor="middle" x="216" y="-264.3" font-family="Times New Roman,serif" font-size="14.00">FLminus</text>
</a>
</g>
<!-- http://latin.omdoc.org/logics/syntax?FLminus&#45;&gt;http://latin.omdoc.org/logics/syntax?ALC -->
<g id="edge11" class="edge"><title>http://latin.omdoc.org/logics/syntax?FLminus&#45;&gt;http://latin.omdoc.org/logics/syntax?ALC</title>
<a class="graphinclude">
<path fill="none" stroke="black" d="M224.582,-250.301C229.111,-241.486 234.767,-230.48 239.838,-220.612"/>
<polygon fill="black" stroke="black" points="243.007,-222.103 244.465,-211.609 236.781,-218.903 243.007,-222.103"/>
</a>
</g>
<!-- http://latin.omdoc.org/logics/syntax?FLminus&#45;&gt;http://latin.omdoc.org/logics/syntax?FOLEQ -->
<g id="edge23" class="edge"><title>http://latin.omdoc.org/logics/syntax?FLminus&#45;&gt;http://latin.omdoc.org/logics/syntax?FOLEQ</title>
<a xlink:href="http://latin.omdoc.org/logics/model_theory?FLminus" class="graphview">
<path fill="none" stroke="black" d="M184.211,-255.81C146.021,-240.441 83.7551,-208.78 57,-158 44.7245,-134.702 68.4221,-97.9439 80,-88 141.934,-34.8074 239.629,-21.7948 298.678,-19.0806"/>
<polygon fill="black" stroke="black" points="299.019,-22.5703 308.881,-18.6966 298.756,-15.5753 299.019,-22.5703"/>
</a>
<a xlink:href="http://latin.omdoc.org/logics/model_theory?FLminus" class="FLminus">
<text text-anchor="middle" x="82" y="-146.3" font-family="Times New Roman,serif" font-size="14.00">FLminus</text>
</a>
</g>
<!-- http://cds.omdoc.org/urtheories?LF -->
<g id="node13" class="node"><title>http://cds.omdoc.org/urtheories?LF</title>
<a xlink:href="http://cds.omdoc.org/urtheories?LF" class="graphtheory">
<ellipse fill="gray" stroke="black" cx="287" cy="-342" rx="27" ry="18"/>
<text text-anchor="middle" x="287" y="-338.3" font-family="Times New Roman,serif" font-size="14.00">LF</text>
</a>
</g>
<!-- http://cds.omdoc.org/urtheories?LF&#45;&gt;http://latin.omdoc.org/logics/syntax?ALC -->
<g id="edge13" class="edge"><title>http://cds.omdoc.org/urtheories?LF&#45;&gt;http://latin.omdoc.org/logics/syntax?ALC</title>
<a class="graphmeta">
<path fill="none" stroke="black" d="M283.408,-323.854C279.528,-305.532 273.083,-275.655 267,-250 264.811,-240.766 262.287,-230.696 259.991,-221.725"/>
<polygon fill="black" stroke="black" points="263.321,-220.623 257.433,-211.815 256.543,-222.372 263.321,-220.623"/>
</a>
</g>
<!-- http://cds.omdoc.org/urtheories?LF&#45;&gt;http://latin.omdoc.org/logics/syntax?FOLEQ -->
<g id="edge17" class="edge"><title>http://cds.omdoc.org/urtheories?LF&#45;&gt;http://latin.omdoc.org/logics/syntax?FOLEQ</title>
<a class="graphmeta">
<path fill="none" stroke="black" d="M313.02,-336.756C365.057,-327.531 477,-303.658 477,-269 477,-269 477,-269 477,-105 477,-63.8352 430.824,-41.0951 393.941,-29.4972"/>
<polygon fill="black" stroke="black" points="394.897,-26.1303 384.315,-26.6498 392.912,-32.8428 394.897,-26.1303"/>
</a>
</g>
<!-- http://cds.omdoc.org/urtheories?LF&#45;&gt;http://latin.omdoc.org/logics/syntax?S -->
<g id="edge21" class="edge"><title>http://cds.omdoc.org/urtheories?LF&#45;&gt;http://latin.omdoc.org/logics/syntax?S</title>
<a class="graphmeta">
<path fill="none" stroke="black" d="M299.262,-325.769C323.099,-295.496 376.059,-224.896 407,-158 410.502,-150.428 413.401,-141.845 415.686,-133.909"/>
<polygon fill="black" stroke="black" points="419.137,-134.553 418.336,-123.988 412.374,-132.747 419.137,-134.553"/>
</a>
</g>
<!-- http://cds.omdoc.org/urtheories?LF&#45;&gt;http://latin.omdoc.org/logics/syntax?C -->
<g id="edge19" class="edge"><title>http://cds.omdoc.org/urtheories?LF&#45;&gt;http://latin.omdoc.org/logics/syntax?C</title>
<a class="graphmeta">
<path fill="none" stroke="black" d="M262.54,-334.226C215.986,-321.335 114.546,-293.243 61.2597,-278.487"/>
<polygon fill="black" stroke="black" points="62.156,-275.104 51.5846,-275.808 60.2878,-281.85 62.156,-275.104"/>
</a>
</g>
<!-- http://cds.omdoc.org/urtheories?LF&#45;&gt;http://latin.omdoc.org/logics/syntax?FLminus -->
<g id="edge15" class="edge"><title>http://cds.omdoc.org/urtheories?LF&#45;&gt;http://latin.omdoc.org/logics/syntax?FLminus</title>
<a class="graphmeta">
<path fill="none" stroke="black" d="M272.632,-326.43C262.953,-316.614 249.978,-303.457 238.89,-292.212"/>
<polygon fill="black" stroke="black" points="241.092,-289.461 231.579,-284.798 236.108,-294.376 241.092,-289.461"/>
</a>
</g>
</g>
</svg>
