<?xml version="1.0" encoding="UTF-8" standalone="no"?>
<!DOCTYPE svg PUBLIC "-//W3C//DTD SVG 1.1//EN"
 "http://www.w3.org/Graphics/SVG/1.1/DTD/svg11.dtd">
<!-- Generated by graphviz version 2.28.0 (20110507.0327)
 -->
<!-- Title: MMT Pages: 1 -->
<svg
 viewBox="0.00 0.00 152.00 204.00" xmlns="http://www.w3.org/2000/svg" xmlns:xlink="http://www.w3.org/1999/xlink">
<g id="graph1" class="graph" transform="scale(1 1) rotate(0) translate(4 200)">
<title>MMT</title>
<polygon fill="white" stroke="white" points="-4,5 -4,-200 149,-200 149,5 -4,5"/>
<g id="graph2" class="cluster"><title>cluster_local</title>
<polygon fill="none" stroke="black" points="8,-8 8,-60 82,-60 82,-8 8,-8"/>
</g>
<!-- http://latin.omdoc.org/logics/syntax?ALN -->
<g id="node2" class="node"><title>http://latin.omdoc.org/logics/syntax?ALN</title>
<a xlink:href="http://latin.omdoc.org/logics/syntax?ALN" class="graphtheory">
<ellipse fill="none" stroke="black" cx="45" cy="-34" rx="28.3955" ry="18"/>
<text text-anchor="middle" x="45" y="-30.3" font-family="Times New Roman,serif" font-size="14.00">ALN</text>
</a>
</g>
<!-- http://latin.omdoc.org/logics/syntax?N -->
<g id="node3" class="node"><title>http://latin.omdoc.org/logics/syntax?N</title>
<a xlink:href="http://latin.omdoc.org/logics/syntax?N" class="graphtheory">
<ellipse fill="gray" stroke="black" cx="45" cy="-106" rx="27" ry="18"/>
<text text-anchor="middle" x="45" y="-102.3" font-family="Times New Roman,serif" font-size="14.00">N</text>
</a>
</g>
<!-- http://latin.omdoc.org/logics/syntax?N&#45;&gt;http://latin.omdoc.org/logics/syntax?ALN -->
<g id="edge3" class="edge"><title>http://latin.omdoc.org/logics/syntax?N&#45;&gt;http://latin.omdoc.org/logics/syntax?ALN</title>
<a class="graphinclude">
<path fill="none" stroke="black" d="M45,-87.6966C45,-79.9827 45,-70.7125 45,-62.1124"/>
<polygon fill="black" stroke="black" points="48.5001,-62.1043 45,-52.1043 41.5001,-62.1044 48.5001,-62.1043"/>
</a>
</g>
<!-- http://latin.omdoc.org/logics/syntax?AL -->
<g id="node5" class="node"><title>http://latin.omdoc.org/logics/syntax?AL</title>
<a xlink:href="http://latin.omdoc.org/logics/syntax?AL" class="graphtheory">
<ellipse fill="gray" stroke="black" cx="117" cy="-106" rx="27" ry="18"/>
<text text-anchor="middle" x="117" y="-102.3" font-family="Times New Roman,serif" font-size="14.00">AL</text>
</a>
</g>
<!-- http://latin.omdoc.org/logics/syntax?AL&#45;&gt;http://latin.omdoc.org/logics/syntax?ALN -->
<g id="edge5" class="edge"><title>http://latin.omdoc.org/logics/syntax?AL&#45;&gt;http://latin.omdoc.org/logics/syntax?ALN</title>
<a class="graphinclude">
<path fill="none" stroke="black" d="M102.43,-90.8345C92.2501,-80.9376 78.4761,-67.5462 66.9694,-56.3591"/>
<polygon fill="black" stroke="black" points="69.4055,-53.8461 59.7957,-49.3847 64.5259,-58.865 69.4055,-53.8461"/>
</a>
</g>
<!-- http://cds.omdoc.org/urtheories?LF -->
<g id="node7" class="node"><title>http://cds.omdoc.org/urtheories?LF</title>
<a xlink:href="http://cds.omdoc.org/urtheories?LF" class="graphtheory">
<ellipse fill="gray" stroke="black" cx="45" cy="-178" rx="27" ry="18"/>
<text text-anchor="middle" x="45" y="-174.3" font-family="Times New Roman,serif" font-size="14.00">LF</text>
</a>
</g>
<!-- http://cds.omdoc.org/urtheories?LF&#45;&gt;http://latin.omdoc.org/logics/syntax?ALN -->
<g id="edge7" class="edge"><title>http://cds.omdoc.org/urtheories?LF&#45;&gt;http://latin.omdoc.org/logics/syntax?ALN</title>
<a class="graphmeta">
<path fill="none" stroke="black" d="M31.2496,-162.069C23.0392,-152.1 13.381,-138.247 9,-124 4.29721,-108.707 4.29721,-103.293 9,-88 12.2858,-77.3149 18.5399,-66.851 24.9254,-58.0814"/>
<polygon fill="black" stroke="black" points="27.8844,-59.9774 31.2496,-49.9312 22.354,-55.6861 27.8844,-59.9774"/>
</a>
</g>
<!-- http://cds.omdoc.org/urtheories?LF&#45;&gt;http://latin.omdoc.org/logics/syntax?N -->
<g id="edge9" class="edge"><title>http://cds.omdoc.org/urtheories?LF&#45;&gt;http://latin.omdoc.org/logics/syntax?N</title>
<a class="graphmeta">
<path fill="none" stroke="black" d="M45,-159.697C45,-151.983 45,-142.712 45,-134.112"/>
<polygon fill="black" stroke="black" points="48.5001,-134.104 45,-124.104 41.5001,-134.104 48.5001,-134.104"/>
</a>
</g>
<!-- http://cds.omdoc.org/urtheories?LF&#45;&gt;http://latin.omdoc.org/logics/syntax?AL -->
<g id="edge11" class="edge"><title>http://cds.omdoc.org/urtheories?LF&#45;&gt;http://latin.omdoc.org/logics/syntax?AL</title>
<a class="graphmeta">
<path fill="none" stroke="black" d="M59.5703,-162.834C69.7499,-152.938 83.5239,-139.546 95.0306,-128.359"/>
<polygon fill="black" stroke="black" points="97.4741,-130.865 102.204,-121.385 92.5945,-125.846 97.4741,-130.865"/>
</a>
</g>
</g>
</svg>
