<?xml version="1.0" encoding="UTF-8" standalone="no"?>
<!DOCTYPE svg PUBLIC "-//W3C//DTD SVG 1.1//EN"
 "http://www.w3.org/Graphics/SVG/1.1/DTD/svg11.dtd">
<!-- Generated by graphviz version 2.28.0 (20110507.0327)
 -->
<!-- Title: MMT Pages: 1 -->
<svg
 viewBox="0.00 0.00 305.00 340.00" xmlns="http://www.w3.org/2000/svg" xmlns:xlink="http://www.w3.org/1999/xlink">
<g id="graph1" class="graph" transform="scale(1 1) rotate(0) translate(4 336)">
<title>MMT</title>
<polygon fill="white" stroke="white" points="-4,5 -4,-336 302,-336 302,5 -4,5"/>
<g id="graph2" class="cluster"><title>cluster_local</title>
<polygon fill="none" stroke="black" points="130,-66 130,-118 254,-118 254,-66 130,-66"/>
</g>
<!-- http://latin.omdoc.org/logics/syntax?BaseSecOL -->
<g id="node2" class="node"><title>http://latin.omdoc.org/logics/syntax?BaseSecOL</title>
<a xlink:href="http://latin.omdoc.org/logics/syntax?BaseSecOL" class="graphtheory">
<ellipse fill="none" stroke="black" cx="192" cy="-92" rx="53.4184" ry="18"/>
<text text-anchor="middle" x="192" y="-88.3" font-family="Times New Roman,serif" font-size="14.00">BaseSecOL</text>
</a>
</g>
<!-- http://latin.omdoc.org/logics/syntax?SecOL -->
<g id="node5" class="node"><title>http://latin.omdoc.org/logics/syntax?SecOL</title>
<a xlink:href="http://latin.omdoc.org/logics/syntax?SecOL" class="graphtheory">
<ellipse fill="gray" stroke="black" cx="68" cy="-18" rx="36.096" ry="18"/>
<text text-anchor="middle" x="68" y="-14.3" font-family="Times New Roman,serif" font-size="14.00">SecOL</text>
</a>
</g>
<!-- http://latin.omdoc.org/logics/syntax?BaseSecOL&#45;&gt;http://latin.omdoc.org/logics/syntax?SecOL -->
<g id="edge5" class="edge"><title>http://latin.omdoc.org/logics/syntax?BaseSecOL&#45;&gt;http://latin.omdoc.org/logics/syntax?SecOL</title>
<a class="graphinclude">
<path fill="none" stroke="black" d="M166.307,-76.0816C146.904,-64.8151 120.175,-49.2954 99.4862,-37.2823"/>
<polygon fill="black" stroke="black" points="101.147,-34.1992 90.7413,-32.2046 97.6317,-40.2528 101.147,-34.1992"/>
</a>
</g>
<!-- http://latin.omdoc.org/logics/proof_theory?BaseSecOL -->
<g id="node7" class="node"><title>http://latin.omdoc.org/logics/proof_theory?BaseSecOL</title>
<a xlink:href="http://latin.omdoc.org/logics/proof_theory?BaseSecOL" class="graphtheory">
<ellipse fill="gray" stroke="black" cx="244" cy="-18" rx="53.4184" ry="18"/>
<text text-anchor="middle" x="244" y="-14.3" font-family="Times New Roman,serif" font-size="14.00">BaseSecOL</text>
</a>
</g>
<!-- http://latin.omdoc.org/logics/syntax?BaseSecOL&#45;&gt;http://latin.omdoc.org/logics/proof_theory?BaseSecOL -->
<g id="edge7" class="edge"><title>http://latin.omdoc.org/logics/syntax?BaseSecOL&#45;&gt;http://latin.omdoc.org/logics/proof_theory?BaseSecOL</title>
<a class="graphinclude">
<path fill="none" stroke="black" d="M204.061,-74.3008C210.558,-65.3043 218.704,-54.0247 225.942,-44.0029"/>
<polygon fill="black" stroke="black" points="228.987,-45.7647 232.005,-35.6087 223.313,-41.6662 228.987,-45.7647"/>
</a>
</g>
<!-- http://latin.omdoc.org/math?Universe -->
<g id="node3" class="node"><title>http://latin.omdoc.org/math?Universe</title>
<a xlink:href="http://latin.omdoc.org/math?Universe" class="graphtheory">
<ellipse fill="gray" stroke="black" cx="168" cy="-240" rx="42.3701" ry="18"/>
<text text-anchor="middle" x="168" y="-236.3" font-family="Times New Roman,serif" font-size="14.00">Universe</text>
</a>
</g>
<!-- http://latin.omdoc.org/math?Universe&#45;&gt;http://latin.omdoc.org/logics/syntax?BaseSecOL -->
<g id="edge3" class="edge"><title>http://latin.omdoc.org/math?Universe&#45;&gt;http://latin.omdoc.org/logics/syntax?BaseSecOL</title>
<a xlink:href="http://latin.omdoc.org/logics/syntax?I2II" class="graphview">
<path fill="none" stroke="black" d="M170.8,-221.966C174.897,-197.045 182.569,-150.374 187.473,-120.537"/>
<polygon fill="black" stroke="black" points="190.975,-120.813 189.143,-110.378 184.068,-119.678 190.975,-120.813"/>
</a>
<a xlink:href="http://latin.omdoc.org/logics/syntax?I2II" class="I2II">
<text text-anchor="middle" x="193.5" y="-162.3" font-family="Times New Roman,serif" font-size="14.00">I2II</text>
</a>
</g>
<!-- http://latin.omdoc.org/logics/syntax?UniverseLogic -->
<g id="node9" class="node"><title>http://latin.omdoc.org/logics/syntax?UniverseLogic</title>
<a xlink:href="http://latin.omdoc.org/logics/syntax?UniverseLogic" class="graphtheory">
<ellipse fill="gray" stroke="black" cx="92" cy="-166" rx="63.5411" ry="18"/>
<text text-anchor="middle" x="92" y="-162.3" font-family="Times New Roman,serif" font-size="14.00">UniverseLogic</text>
</a>
</g>
<!-- http://latin.omdoc.org/math?Universe&#45;&gt;http://latin.omdoc.org/logics/syntax?UniverseLogic -->
<g id="edge21" class="edge"><title>http://latin.omdoc.org/math?Universe&#45;&gt;http://latin.omdoc.org/logics/syntax?UniverseLogic</title>
<a class="graphinclude">
<path fill="none" stroke="black" d="M151.509,-223.377C141.364,-213.766 128.17,-201.266 116.784,-190.48"/>
<polygon fill="black" stroke="black" points="118.917,-187.679 109.25,-183.342 114.102,-192.76 118.917,-187.679"/>
</a>
</g>
<!-- http://latin.omdoc.org/logics/syntax?UniverseLogic&#45;&gt;http://latin.omdoc.org/logics/syntax?BaseSecOL -->
<g id="edge9" class="edge"><title>http://latin.omdoc.org/logics/syntax?UniverseLogic&#45;&gt;http://latin.omdoc.org/logics/syntax?BaseSecOL</title>
<a class="graphinclude">
<path fill="none" stroke="black" d="M114.193,-149.021C128.273,-138.884 146.665,-125.641 162.033,-114.576"/>
<polygon fill="black" stroke="black" points="164.143,-117.37 170.213,-108.687 160.052,-111.689 164.143,-117.37"/>
</a>
</g>
<!-- http://cds.omdoc.org/urtheories?LF -->
<g id="node11" class="node"><title>http://cds.omdoc.org/urtheories?LF</title>
<a xlink:href="http://cds.omdoc.org/urtheories?LF" class="graphtheory">
<ellipse fill="gray" stroke="black" cx="168" cy="-314" rx="27" ry="18"/>
<text text-anchor="middle" x="168" y="-310.3" font-family="Times New Roman,serif" font-size="14.00">LF</text>
</a>
</g>
<!-- http://cds.omdoc.org/urtheories?LF&#45;&gt;http://latin.omdoc.org/logics/syntax?BaseSecOL -->
<g id="edge11" class="edge"><title>http://cds.omdoc.org/urtheories?LF&#45;&gt;http://latin.omdoc.org/logics/syntax?BaseSecOL</title>
<a class="graphmeta">
<path fill="none" stroke="black" d="M185.569,-300.023C197.504,-290.042 212.295,-275.093 219,-258 237.253,-211.472 218.737,-152.888 204.656,-119.515"/>
<polygon fill="black" stroke="black" points="207.705,-117.753 200.475,-110.009 201.297,-120.572 207.705,-117.753"/>
</a>
</g>
<!-- http://cds.omdoc.org/urtheories?LF&#45;&gt;http://latin.omdoc.org/math?Universe -->
<g id="edge13" class="edge"><title>http://cds.omdoc.org/urtheories?LF&#45;&gt;http://latin.omdoc.org/math?Universe</title>
<a class="graphmeta">
<path fill="none" stroke="black" d="M168,-295.937C168,-287.807 168,-277.876 168,-268.705"/>
<polygon fill="black" stroke="black" points="171.5,-268.441 168,-258.441 164.5,-268.441 171.5,-268.441"/>
</a>
</g>
<!-- http://cds.omdoc.org/urtheories?LF&#45;&gt;http://latin.omdoc.org/logics/syntax?SecOL -->
<g id="edge15" class="edge"><title>http://cds.omdoc.org/urtheories?LF&#45;&gt;http://latin.omdoc.org/logics/syntax?SecOL</title>
<a class="graphmeta">
<path fill="none" stroke="black" d="M141.008,-313.154C93.5182,-311.857 0,-301.609 0,-241 0,-241 0,-241 0,-91 0,-68.2453 18.1734,-49.7751 35.73,-37.2408"/>
<polygon fill="black" stroke="black" points="37.8456,-40.0367 44.2169,-31.5717 33.9573,-34.2159 37.8456,-40.0367"/>
</a>
</g>
<!-- http://cds.omdoc.org/urtheories?LF&#45;&gt;http://latin.omdoc.org/logics/proof_theory?BaseSecOL -->
<g id="edge19" class="edge"><title>http://cds.omdoc.org/urtheories?LF&#45;&gt;http://latin.omdoc.org/logics/proof_theory?BaseSecOL</title>
<a class="graphmeta">
<path fill="none" stroke="black" d="M193.745,-308.145C226.535,-300.298 279,-281.427 279,-241 279,-241 279,-241 279,-91 279,-74.2869 271.277,-57.3886 263.087,-44.1668"/>
<polygon fill="black" stroke="black" points="265.879,-42.0434 257.432,-35.6481 260.047,-45.9151 265.879,-42.0434"/>
</a>
</g>
<!-- http://cds.omdoc.org/urtheories?LF&#45;&gt;http://latin.omdoc.org/logics/syntax?UniverseLogic -->
<g id="edge17" class="edge"><title>http://cds.omdoc.org/urtheories?LF&#45;&gt;http://latin.omdoc.org/logics/syntax?UniverseLogic</title>
<a class="graphmeta">
<path fill="none" stroke="black" d="M151.537,-299.168C140.288,-288.885 125.866,-273.93 117,-258 105.891,-238.042 99.4675,-212.833 95.9205,-194.012"/>
<polygon fill="black" stroke="black" points="99.3458,-193.279 94.1926,-184.022 92.4482,-194.472 99.3458,-193.279"/>
</a>
</g>
</g>
</svg>
