<?xml version="1.0" encoding="UTF-8" standalone="no"?>
<!DOCTYPE svg PUBLIC "-//W3C//DTD SVG 1.1//EN"
 "http://www.w3.org/Graphics/SVG/1.1/DTD/svg11.dtd">
<!-- Generated by graphviz version 2.28.0 (20110507.0327)
 -->
<!-- Title: MMT Pages: 1 -->
<svg
 viewBox="0.00 0.00 258.98 280.00" xmlns="http://www.w3.org/2000/svg" xmlns:xlink="http://www.w3.org/1999/xlink">
<g id="graph1" class="graph" transform="scale(1 1) rotate(0) translate(4 276)">
<title>MMT</title>
<polygon fill="white" stroke="white" points="-4,5 -4,-276 255.983,-276 255.983,5 -4,5"/>
<g id="graph2" class="cluster"><title>cluster_local</title>
<polygon fill="none" stroke="black" points="14.9831,-80 14.9831,-132 176.983,-132 176.983,-80 14.9831,-80"/>
</g>
<!-- http://latin.omdoc.org/logics/syntax?CASLSubSorted -->
<g id="node2" class="node"><title>http://latin.omdoc.org/logics/syntax?CASLSubSorted</title>
<a xlink:href="http://latin.omdoc.org/logics/syntax?CASLSubSorted" class="graphtheory">
<ellipse fill="none" stroke="black" cx="95.9831" cy="-106" rx="73.1654" ry="18"/>
<text text-anchor="middle" x="95.9831" y="-102.3" font-family="Times New Roman,serif" font-size="14.00">CASLSubSorted</text>
</a>
</g>
<!-- http://latin.omdoc.org/logics/syntax?Subsorted&#45;Sorted -->
<g id="node3" class="node"><title>http://latin.omdoc.org/logics/syntax?Subsorted&#45;Sorted</title>
<a xlink:href="http://latin.omdoc.org/logics/syntax?Subsorted-Sorted" class="graphtheory">
<ellipse fill="gray" stroke="black" cx="169.983" cy="-18" rx="75.0904" ry="18"/>
<text text-anchor="middle" x="169.983" y="-14.3" font-family="Times New Roman,serif" font-size="14.00">Subsorted&#45;Sorted</text>
</a>
</g>
<!-- http://latin.omdoc.org/logics/syntax?CASLSubSorted&#45;&gt;http://latin.omdoc.org/logics/syntax?Subsorted&#45;Sorted -->
<g id="edge3" class="edge"><title>http://latin.omdoc.org/logics/syntax?CASLSubSorted&#45;&gt;http://latin.omdoc.org/logics/syntax?Subsorted&#45;Sorted</title>
<a xlink:href="http://latin.omdoc.org/logics/syntax?Subsorted-Sorted?ss" class="graphstructure">
<path fill="none" stroke="black" d="M110.603,-88.0092C121.448,-75.4058 136.402,-58.0272 148.589,-43.8632"/>
<polygon fill="black" stroke="black" points="151.524,-45.8185 155.393,-35.9555 146.218,-41.2528 151.524,-45.8185"/>
</a>
<a xlink:href="http://latin.omdoc.org/logics/syntax?Subsorted-Sorted?ss" class="ss">
<text text-anchor="middle" x="145.483" y="-58.3" font-family="Times New Roman,serif" font-size="14.00">ss</text>
</a>
</g>
<!-- http://latin.omdoc.org/logics/syntax?CASLSorted -->
<g id="node5" class="node"><title>http://latin.omdoc.org/logics/syntax?CASLSorted</title>
<a xlink:href="http://latin.omdoc.org/logics/syntax?CASLSorted" class="graphtheory">
<ellipse fill="gray" stroke="black" cx="192.983" cy="-180" rx="58.2422" ry="18"/>
<text text-anchor="middle" x="192.983" y="-176.3" font-family="Times New Roman,serif" font-size="14.00">CASLSorted</text>
</a>
</g>
<!-- http://latin.omdoc.org/logics/syntax?CASLSorted&#45;&gt;http://latin.omdoc.org/logics/syntax?CASLSubSorted -->
<g id="edge5" class="edge"><title>http://latin.omdoc.org/logics/syntax?CASLSorted&#45;&gt;http://latin.omdoc.org/logics/syntax?CASLSubSorted</title>
<a class="graphinclude">
<path fill="none" stroke="black" d="M171.456,-163.021C158.205,-153.185 141.016,-140.426 126.389,-129.57"/>
<polygon fill="black" stroke="black" points="128.239,-126.583 118.123,-123.434 124.067,-132.204 128.239,-126.583"/>
</a>
</g>
<!-- http://latin.omdoc.org/logics/syntax?CASLSorted&#45;&gt;http://latin.omdoc.org/logics/syntax?Subsorted&#45;Sorted -->
<g id="edge13" class="edge"><title>http://latin.omdoc.org/logics/syntax?CASLSorted&#45;&gt;http://latin.omdoc.org/logics/syntax?Subsorted&#45;Sorted</title>
<a xlink:href="http://latin.omdoc.org/logics/syntax?Subsorted-Sorted?s" class="graphstructure">
<path fill="none" stroke="black" d="M208.63,-162.452C212.823,-156.991 216.796,-150.612 218.983,-144 231.545,-106.024 237.286,-89.5667 218.983,-54 216.442,-49.0617 212.845,-44.6658 208.74,-40.7998"/>
<polygon fill="black" stroke="black" points="210.88,-38.0281 200.922,-34.4105 206.45,-43.4484 210.88,-38.0281"/>
</a>
<a xlink:href="http://latin.omdoc.org/logics/syntax?Subsorted-Sorted?s" class="s">
<text text-anchor="middle" x="233.483" y="-102.3" font-family="Times New Roman,serif" font-size="14.00">s</text>
</a>
</g>
<!-- http://latin.omdoc.org/logics/syntax?CASLSorted&#45;&gt;http://latin.omdoc.org/logics/syntax?Subsorted&#45;Sorted -->
<g id="edge15" class="edge"><title>http://latin.omdoc.org/logics/syntax?CASLSorted&#45;&gt;http://latin.omdoc.org/logics/syntax?Subsorted&#45;Sorted</title>
<a xlink:href="http://latin.omdoc.org/logics/syntax?Subsorted-Sorted?s&#39;" class="graphstructure">
<path fill="none" stroke="black" d="M191.202,-161.79C189.084,-142.009 185.29,-108.591 180.983,-80 179.3,-68.8269 177.147,-56.5573 175.193,-45.9704"/>
<polygon fill="black" stroke="black" points="178.615,-45.2295 173.33,-36.0472 171.735,-46.5213 178.615,-45.2295"/>
</a>
<a xlink:href="http://latin.omdoc.org/logics/syntax?Subsorted-Sorted?s&#39;" class="s&#39;">
<text text-anchor="middle" x="191.983" y="-102.3" font-family="Times New Roman,serif" font-size="14.00">s&#39;</text>
</a>
</g>
<!-- http://cds.omdoc.org/urtheories?LF -->
<g id="node7" class="node"><title>http://cds.omdoc.org/urtheories?LF</title>
<a xlink:href="http://cds.omdoc.org/urtheories?LF" class="graphtheory">
<ellipse fill="gray" stroke="black" cx="95.9831" cy="-254" rx="27" ry="18"/>
<text text-anchor="middle" x="95.9831" y="-250.3" font-family="Times New Roman,serif" font-size="14.00">LF</text>
</a>
</g>
<!-- http://cds.omdoc.org/urtheories?LF&#45;&gt;http://latin.omdoc.org/logics/syntax?CASLSubSorted -->
<g id="edge7" class="edge"><title>http://cds.omdoc.org/urtheories?LF&#45;&gt;http://latin.omdoc.org/logics/syntax?CASLSubSorted</title>
<a class="graphmeta">
<path fill="none" stroke="black" d="M95.9831,-235.966C95.9831,-211.045 95.9831,-164.374 95.9831,-134.537"/>
<polygon fill="black" stroke="black" points="99.4832,-134.378 95.9831,-124.378 92.4832,-134.378 99.4832,-134.378"/>
</a>
</g>
<!-- http://cds.omdoc.org/urtheories?LF&#45;&gt;http://latin.omdoc.org/logics/syntax?Subsorted&#45;Sorted -->
<g id="edge9" class="edge"><title>http://cds.omdoc.org/urtheories?LF&#45;&gt;http://latin.omdoc.org/logics/syntax?Subsorted&#45;Sorted</title>
<a class="graphmeta">
<path fill="none" stroke="black" d="M79.8632,-239.479C45.9103,-209.348 -26.836,-135.016 10.9831,-80 29.7988,-52.6285 62.7202,-37.533 93.7436,-29.2103"/>
<polygon fill="black" stroke="black" points="94.8628,-32.539 103.729,-26.7392 93.1812,-25.744 94.8628,-32.539"/>
</a>
</g>
<!-- http://cds.omdoc.org/urtheories?LF&#45;&gt;http://latin.omdoc.org/logics/syntax?CASLSorted -->
<g id="edge11" class="edge"><title>http://cds.omdoc.org/urtheories?LF&#45;&gt;http://latin.omdoc.org/logics/syntax?CASLSorted</title>
<a class="graphmeta">
<path fill="none" stroke="black" d="M113.325,-240.128C127.246,-229.794 147.107,-215.052 163.514,-202.874"/>
<polygon fill="black" stroke="black" points="165.786,-205.546 171.73,-196.776 161.614,-199.925 165.786,-205.546"/>
</a>
</g>
</g>
</svg>
