<?xml version="1.0" encoding="UTF-8" standalone="no"?>
<!DOCTYPE svg PUBLIC "-//W3C//DTD SVG 1.1//EN"
 "http://www.w3.org/Graphics/SVG/1.1/DTD/svg11.dtd">
<!-- Generated by graphviz version 2.28.0 (20110507.0327)
 -->
<!-- Title: MMT Pages: 1 -->
<svg width="602pt" height="368pt"
 viewBox="0.00 0.00 602.00 368.00" xmlns="http://www.w3.org/2000/svg" xmlns:xlink="http://www.w3.org/1999/xlink">
<g id="graph1" class="graph" transform="scale(1 1) rotate(0) translate(4 364)">
<title>MMT</title>
<polygon fill="white" stroke="white" points="-4,5 -4,-364 599,-364 599,5 -4,5"/>
<g id="graph2" class="cluster"><title>cluster_local</title>
<polygon fill="none" stroke="black" points="176,-168 176,-220 262,-220 262,-168 176,-168"/>
</g>
<!-- http://latin.omdoc.org/logics/syntax?Catom -->
<g id="node2" class="node"><title>http://latin.omdoc.org/logics/syntax?Catom</title>
<a xlink:href="http://latin.omdoc.org/logics/syntax?Catom" class="graphtheory">
<ellipse fill="none" stroke="black" cx="219" cy="-194" rx="35.1455" ry="18"/>
<text text-anchor="middle" x="219" y="-190.3" font-family="Times New Roman,serif" font-size="14.00">Catom</text>
</a>
</g>
<!-- http://latin.omdoc.org/logics/syntax?FOLEQ -->
<g id="node3" class="node"><title>http://latin.omdoc.org/logics/syntax?FOLEQ</title>
<a xlink:href="http://latin.omdoc.org/logics/syntax?FOLEQ" class="graphtheory">
<ellipse fill="gray" stroke="black" cx="132" cy="-18" rx="39.9464" ry="18"/>
<text text-anchor="middle" x="132" y="-14.3" font-family="Times New Roman,serif" font-size="14.00">FOLEQ</text>
</a>
</g>
<!-- http://latin.omdoc.org/logics/syntax?Catom&#45;&gt;http://latin.omdoc.org/logics/syntax?FOLEQ -->
<g id="edge3" class="edge"><title>http://latin.omdoc.org/logics/syntax?Catom&#45;&gt;http://latin.omdoc.org/logics/syntax?FOLEQ</title>
<a xlink:href="http://latin.omdoc.org/logics/model_theory?Catom" class="graphview">
<path fill="none" stroke="black" d="M237.432,-178.39C243.624,-174.272 250.796,-170.292 258,-168 281.001,-160.682 458.33,-175.456 475,-158 479.911,-152.857 479.093,-147.815 475,-142 408.013,-46.8139 260.14,-24.9153 182.25,-20.127"/>
<polygon fill="black" stroke="black" points="182.371,-16.6285 172.196,-19.5805 181.991,-23.6182 182.371,-16.6285"/>
</a>
<a xlink:href="http://latin.omdoc.org/logics/model_theory?Catom" class="Catom">
<text text-anchor="middle" x="477" y="-102.3" font-family="Times New Roman,serif" font-size="14.00">Catom</text>
</a>
</g>
<!-- http://latin.omdoc.org/logics/syntax?C -->
<g id="node5" class="node"><title>http://latin.omdoc.org/logics/syntax?C</title>
<a xlink:href="http://latin.omdoc.org/logics/syntax?C" class="graphtheory">
<ellipse fill="gray" stroke="black" cx="132" cy="-106" rx="27" ry="18"/>
<text text-anchor="middle" x="132" y="-102.3" font-family="Times New Roman,serif" font-size="14.00">C</text>
</a>
</g>
<!-- http://latin.omdoc.org/logics/syntax?Catom&#45;&gt;http://latin.omdoc.org/logics/syntax?C -->
<g id="edge5" class="edge"><title>http://latin.omdoc.org/logics/syntax?Catom&#45;&gt;http://latin.omdoc.org/logics/syntax?C</title>
<a xlink:href="http://latin.omdoc.org/logics/syntax?Cview" class="graphview">
<path fill="none" stroke="black" d="M202.664,-177.798C196.179,-171.698 188.687,-164.568 182,-158 172.463,-148.632 162.091,-138.109 153.279,-129.066"/>
<polygon fill="black" stroke="black" points="155.773,-126.611 146.296,-121.875 150.751,-131.487 155.773,-126.611"/>
</a>
<a xlink:href="http://latin.omdoc.org/logics/syntax?Cview" class="Cview">
<text text-anchor="middle" x="200" y="-146.3" font-family="Times New Roman,serif" font-size="14.00">Cview</text>
</a>
</g>
<!-- http://latin.omdoc.org/logics/model_theory?AL -->
<g id="node7" class="node"><title>http://latin.omdoc.org/logics/model_theory?AL</title>
<a xlink:href="http://latin.omdoc.org/logics/model_theory?AL" class="graphtheory">
<ellipse fill="gray" stroke="black" cx="224" cy="-106" rx="27" ry="18"/>
<text text-anchor="middle" x="224" y="-102.3" font-family="Times New Roman,serif" font-size="14.00">AL</text>
</a>
</g>
<!-- http://latin.omdoc.org/logics/syntax?Catom&#45;&gt;http://latin.omdoc.org/logics/model_theory?AL -->
<g id="edge7" class="edge"><title>http://latin.omdoc.org/logics/syntax?Catom&#45;&gt;http://latin.omdoc.org/logics/model_theory?AL</title>
<a xlink:href="http://latin.omdoc.org/logics/model_theory?AL?[http://latin.omdoc.org/logics/syntax?Catom]" class="graphstructure">
<path fill="none" stroke="black" d="M220.012,-175.597C220.701,-163.746 221.627,-147.817 222.413,-134.292"/>
<polygon fill="black" stroke="black" points="225.92,-134.27 223.007,-124.084 218.932,-133.864 225.92,-134.27"/>
</a>
<a xlink:href="http://latin.omdoc.org/logics/model_theory?AL?[http://latin.omdoc.org/logics/syntax?Catom]" class="[http://latin.omdoc.org/logics/syntax?Catom]">
<text text-anchor="middle" x="347" y="-146.3" font-family="Times New Roman,serif" font-size="14.00">[http://latin.omdoc.org/logics/syntax?Catom]</text>
</a>
</g>
<!-- http://latin.omdoc.org/logics/syntax?AL -->
<g id="node9" class="node"><title>http://latin.omdoc.org/logics/syntax?AL</title>
<a xlink:href="http://latin.omdoc.org/logics/syntax?AL" class="graphtheory">
<ellipse fill="gray" stroke="black" cx="567" cy="-106" rx="27" ry="18"/>
<text text-anchor="middle" x="567" y="-102.3" font-family="Times New Roman,serif" font-size="14.00">AL</text>
</a>
</g>
<!-- http://latin.omdoc.org/logics/syntax?Catom&#45;&gt;http://latin.omdoc.org/logics/syntax?AL -->
<g id="edge9" class="edge"><title>http://latin.omdoc.org/logics/syntax?Catom&#45;&gt;http://latin.omdoc.org/logics/syntax?AL</title>
<a class="graphinclude">
<path fill="none" stroke="black" d="M237.425,-178.368C243.616,-174.248 250.79,-170.273 258,-168 309.968,-151.615 451.942,-177.033 503,-158 519.225,-151.952 534.507,-140.104 546.066,-129.348"/>
<polygon fill="black" stroke="black" points="548.721,-131.648 553.44,-122.162 543.835,-126.635 548.721,-131.648"/>
</a>
</g>
<!-- http://latin.omdoc.org/logics/syntax?C&#45;&gt;http://latin.omdoc.org/logics/syntax?FOLEQ -->
<g id="edge29" class="edge"><title>http://latin.omdoc.org/logics/syntax?C&#45;&gt;http://latin.omdoc.org/logics/syntax?FOLEQ</title>
<a xlink:href="http://latin.omdoc.org/logics/model_theory?C" class="graphview">
<path fill="none" stroke="black" d="M132,-87.5966C132,-75.7459 132,-59.8169 132,-46.2917"/>
<polygon fill="black" stroke="black" points="135.5,-46.084 132,-36.084 128.5,-46.084 135.5,-46.084"/>
</a>
<a xlink:href="http://latin.omdoc.org/logics/model_theory?C" class="C">
<text text-anchor="middle" x="137" y="-58.3" font-family="Times New Roman,serif" font-size="14.00">C</text>
</a>
</g>
<!-- http://latin.omdoc.org/logics/syntax?AL&#45;&gt;http://latin.omdoc.org/logics/syntax?FOLEQ -->
<g id="edge27" class="edge"><title>http://latin.omdoc.org/logics/syntax?AL&#45;&gt;http://latin.omdoc.org/logics/syntax?FOLEQ</title>
<a xlink:href="http://latin.omdoc.org/logics/model_theory?AL" class="graphview">
<path fill="none" stroke="black" d="M552.558,-90.5991C539.504,-78.5621 519.143,-62.1017 498,-54 441.582,-32.3817 268.468,-23.597 182.095,-20.487"/>
<polygon fill="black" stroke="black" points="182.121,-16.9859 172.005,-20.1354 181.877,-23.9817 182.121,-16.9859"/>
</a>
<a xlink:href="http://latin.omdoc.org/logics/model_theory?AL" class="AL">
<text text-anchor="middle" x="535.5" y="-58.3" font-family="Times New Roman,serif" font-size="14.00">AL</text>
</a>
</g>
<!-- http://latin.omdoc.org/logics/syntax?DLBase -->
<g id="node11" class="node"><title>http://latin.omdoc.org/logics/syntax?DLBase</title>
<a xlink:href="http://latin.omdoc.org/logics/syntax?DLBase" class="graphtheory">
<ellipse fill="gray" stroke="black" cx="132" cy="-268" rx="39.9464" ry="18"/>
<text text-anchor="middle" x="132" y="-264.3" font-family="Times New Roman,serif" font-size="14.00">DLBase</text>
</a>
</g>
<!-- http://latin.omdoc.org/logics/syntax?DLBase&#45;&gt;http://latin.omdoc.org/logics/syntax?Catom -->
<g id="edge11" class="edge"><title>http://latin.omdoc.org/logics/syntax?DLBase&#45;&gt;http://latin.omdoc.org/logics/syntax?Catom</title>
<a class="graphinclude">
<path fill="none" stroke="black" d="M150.45,-251.731C162.959,-241.379 179.66,-227.557 193.445,-216.149"/>
<polygon fill="black" stroke="black" points="195.699,-218.827 201.171,-209.755 191.236,-213.434 195.699,-218.827"/>
</a>
</g>
<!-- http://latin.omdoc.org/logics/syntax?DLBase&#45;&gt;http://latin.omdoc.org/logics/syntax?FOLEQ -->
<g id="edge23" class="edge"><title>http://latin.omdoc.org/logics/syntax?DLBase&#45;&gt;http://latin.omdoc.org/logics/syntax?FOLEQ</title>
<a xlink:href="http://latin.omdoc.org/logics/model_theory?DLBase" class="graphview">
<path fill="none" stroke="black" d="M121.636,-250.433C109.354,-229.731 89.5968,-192.782 82,-158 73.0026,-116.806 96.186,-71.191 113.926,-43.8252"/>
<polygon fill="black" stroke="black" points="116.999,-45.5273 119.679,-35.277 111.192,-41.619 116.999,-45.5273"/>
</a>
<a xlink:href="http://latin.omdoc.org/logics/model_theory?DLBase" class="DLBase">
<text text-anchor="middle" x="105" y="-146.3" font-family="Times New Roman,serif" font-size="14.00">DLBase</text>
</a>
</g>
<!-- http://latin.omdoc.org/logics/syntax?DLBase&#45;&gt;http://latin.omdoc.org/logics/syntax?C -->
<g id="edge25" class="edge"><title>http://latin.omdoc.org/logics/syntax?DLBase&#45;&gt;http://latin.omdoc.org/logics/syntax?C</title>
<a class="graphinclude">
<path fill="none" stroke="black" d="M132,-249.877C132,-222.354 132,-168.008 132,-134.849"/>
<polygon fill="black" stroke="black" points="135.5,-134.485 132,-124.485 128.5,-134.485 135.5,-134.485"/>
</a>
</g>
<!-- http://cds.omdoc.org/urtheories?LF -->
<g id="node13" class="node"><title>http://cds.omdoc.org/urtheories?LF</title>
<a xlink:href="http://cds.omdoc.org/urtheories?LF" class="graphtheory">
<ellipse fill="gray" stroke="black" cx="132" cy="-342" rx="27" ry="18"/>
<text text-anchor="middle" x="132" y="-338.3" font-family="Times New Roman,serif" font-size="14.00">LF</text>
</a>
</g>
<!-- http://cds.omdoc.org/urtheories?LF&#45;&gt;http://latin.omdoc.org/logics/syntax?Catom -->
<g id="edge13" class="edge"><title>http://cds.omdoc.org/urtheories?LF&#45;&gt;http://latin.omdoc.org/logics/syntax?Catom</title>
<a class="graphmeta">
<path fill="none" stroke="black" d="M147.191,-326.69C157.704,-316.182 171.464,-301.153 181,-286 193.772,-265.704 203.943,-240.377 210.536,-221.599"/>
<polygon fill="black" stroke="black" points="213.924,-222.509 213.825,-211.915 207.295,-220.258 213.924,-222.509"/>
</a>
</g>
<!-- http://cds.omdoc.org/urtheories?LF&#45;&gt;http://latin.omdoc.org/logics/syntax?FOLEQ -->
<g id="edge17" class="edge"><title>http://cds.omdoc.org/urtheories?LF&#45;&gt;http://latin.omdoc.org/logics/syntax?FOLEQ</title>
<a class="graphmeta">
<path fill="none" stroke="black" d="M105.288,-338.339C66.717,-332.858 0,-316.509 0,-269 0,-269 0,-269 0,-105 0,-62.8191 47.9036,-40.2493 85.995,-28.9701"/>
<polygon fill="black" stroke="black" points="87.2317,-32.2592 95.9304,-26.2109 85.3585,-25.5145 87.2317,-32.2592"/>
</a>
</g>
<!-- http://cds.omdoc.org/urtheories?LF&#45;&gt;http://latin.omdoc.org/logics/syntax?C -->
<g id="edge19" class="edge"><title>http://cds.omdoc.org/urtheories?LF&#45;&gt;http://latin.omdoc.org/logics/syntax?C</title>
<a class="graphmeta">
<path fill="none" stroke="black" d="M117.328,-326.575C84.4411,-292.458 10.8304,-204.949 52,-142 61.8264,-126.975 79.6805,-118.362 96.0326,-113.443"/>
<polygon fill="black" stroke="black" points="97.1569,-116.766 105.935,-110.833 95.3731,-109.997 97.1569,-116.766"/>
</a>
</g>
<!-- http://cds.omdoc.org/urtheories?LF&#45;&gt;http://latin.omdoc.org/logics/syntax?AL -->
<g id="edge21" class="edge"><title>http://cds.omdoc.org/urtheories?LF&#45;&gt;http://latin.omdoc.org/logics/syntax?AL</title>
<a class="graphmeta">
<path fill="none" stroke="black" d="M156.785,-334.428C223.187,-315.874 408.292,-257.852 530,-158 538.753,-150.819 546.476,-141.108 552.572,-132.087"/>
<polygon fill="black" stroke="black" points="555.676,-133.728 558.102,-123.415 549.774,-129.964 555.676,-133.728"/>
</a>
</g>
<!-- http://cds.omdoc.org/urtheories?LF&#45;&gt;http://latin.omdoc.org/logics/syntax?DLBase -->
<g id="edge15" class="edge"><title>http://cds.omdoc.org/urtheories?LF&#45;&gt;http://latin.omdoc.org/logics/syntax?DLBase</title>
<a class="graphmeta">
<path fill="none" stroke="black" d="M132,-323.937C132,-315.807 132,-305.876 132,-296.705"/>
<polygon fill="black" stroke="black" points="135.5,-296.441 132,-286.441 128.5,-296.441 135.5,-296.441"/>
</a>
</g>
</g>
</svg>
