<?xml version="1.0" encoding="UTF-8" standalone="no"?>
<!DOCTYPE svg PUBLIC "-//W3C//DTD SVG 1.1//EN"
 "http://www.w3.org/Graphics/SVG/1.1/DTD/svg11.dtd">
<!-- Generated by graphviz version 2.28.0 (20110507.0327)
 -->
<!-- Title: MMT Pages: 1 -->
<svg
 viewBox="0.00 0.00 684.00 382.00" xmlns="http://www.w3.org/2000/svg" xmlns:xlink="http://www.w3.org/1999/xlink">
<g id="graph1" class="graph" transform="scale(1 1) rotate(0) translate(4 378)">
<title>MMT</title>
<polygon fill="white" stroke="white" points="-4,5 -4,-378 681,-378 681,5 -4,5"/>
<g id="graph2" class="cluster"><title>cluster_local</title>
<polygon fill="none" stroke="black" points="396,-168 396,-308 482,-308 482,-168 396,-168"/>
</g>
<!-- http://latin.omdoc.org/logics/syntax?Catom -->
<g id="node2" class="node"><title>http://latin.omdoc.org/logics/syntax?Catom</title>
<a xlink:href="http://latin.omdoc.org/logics/syntax?Catom" class="graphtheory">
<ellipse fill="none" stroke="black" cx="439" cy="-282" rx="35.1455" ry="18"/>
<text text-anchor="middle" x="439" y="-278.3" font-family="Times New Roman,serif" font-size="14.00">Catom</text>
</a>
</g>
<!-- http://latin.omdoc.org/logics/syntax?C -->
<g id="node3" class="node"><title>http://latin.omdoc.org/logics/syntax?C</title>
<a xlink:href="http://latin.omdoc.org/logics/syntax?C" class="graphtheory">
<ellipse fill="none" stroke="black" cx="447" cy="-194" rx="27" ry="18"/>
<text text-anchor="middle" x="447" y="-190.3" font-family="Times New Roman,serif" font-size="14.00">C</text>
</a>
</g>
<!-- http://latin.omdoc.org/logics/syntax?Catom&#45;&gt;http://latin.omdoc.org/logics/syntax?C -->
<g id="edge3" class="edge"><title>http://latin.omdoc.org/logics/syntax?Catom&#45;&gt;http://latin.omdoc.org/logics/syntax?C</title>
<a xlink:href="http://latin.omdoc.org/logics/syntax?Cview" class="graphview">
<path fill="none" stroke="black" d="M440.581,-264.009C441.68,-252.19 443.17,-236.171 444.438,-222.542"/>
<polygon fill="black" stroke="black" points="447.954,-222.531 445.395,-212.25 440.984,-221.883 447.954,-222.531"/>
</a>
<a xlink:href="http://latin.omdoc.org/logics/syntax?Cview" class="Cview">
<text text-anchor="middle" x="462" y="-234.3" font-family="Times New Roman,serif" font-size="14.00">Cview</text>
</a>
</g>
<!-- http://latin.omdoc.org/logics/syntax?FOLEQ -->
<g id="node5" class="node"><title>http://latin.omdoc.org/logics/syntax?FOLEQ</title>
<a xlink:href="http://latin.omdoc.org/logics/syntax?FOLEQ" class="graphtheory">
<ellipse fill="gray" stroke="black" cx="139" cy="-18" rx="39.9464" ry="18"/>
<text text-anchor="middle" x="139" y="-14.3" font-family="Times New Roman,serif" font-size="14.00">FOLEQ</text>
</a>
</g>
<!-- http://latin.omdoc.org/logics/syntax?Catom&#45;&gt;http://latin.omdoc.org/logics/syntax?FOLEQ -->
<g id="edge5" class="edge"><title>http://latin.omdoc.org/logics/syntax?Catom&#45;&gt;http://latin.omdoc.org/logics/syntax?FOLEQ</title>
<a xlink:href="http://latin.omdoc.org/logics/model_theory?Catom" class="graphview">
<path fill="none" stroke="black" d="M414.675,-268.939C409.907,-266.995 404.872,-265.222 400,-264 351.778,-251.902 220.648,-269.803 177,-246 108.899,-208.863 122.229,-97.5173 132.652,-45.8634"/>
<polygon fill="black" stroke="black" points="136.075,-46.5912 134.737,-36.0813 129.229,-45.1319 136.075,-46.5912"/>
</a>
<a xlink:href="http://latin.omdoc.org/logics/model_theory?Catom" class="Catom">
<text text-anchor="middle" x="145" y="-146.3" font-family="Times New Roman,serif" font-size="14.00">Catom</text>
</a>
</g>
<!-- http://latin.omdoc.org/logics/model_theory?AL -->
<g id="node7" class="node"><title>http://latin.omdoc.org/logics/model_theory?AL</title>
<a xlink:href="http://latin.omdoc.org/logics/model_theory?AL" class="graphtheory">
<ellipse fill="gray" stroke="black" cx="187" cy="-194" rx="27" ry="18"/>
<text text-anchor="middle" x="187" y="-190.3" font-family="Times New Roman,serif" font-size="14.00">AL</text>
</a>
</g>
<!-- http://latin.omdoc.org/logics/syntax?Catom&#45;&gt;http://latin.omdoc.org/logics/model_theory?AL -->
<g id="edge7" class="edge"><title>http://latin.omdoc.org/logics/syntax?Catom&#45;&gt;http://latin.omdoc.org/logics/model_theory?AL</title>
<a xlink:href="http://latin.omdoc.org/logics/model_theory?AL?[http://latin.omdoc.org/logics/syntax?Catom]" class="graphstructure">
<path fill="none" stroke="black" d="M414.671,-268.953C409.903,-267.008 404.869,-265.231 400,-264 376.974,-258.177 203.072,-263.487 187,-246 181.057,-239.534 179.72,-230.422 180.311,-221.686"/>
<polygon fill="black" stroke="black" points="183.776,-222.179 181.73,-211.784 176.846,-221.186 183.776,-222.179"/>
</a>
<a xlink:href="http://latin.omdoc.org/logics/model_theory?AL?[http://latin.omdoc.org/logics/syntax?Catom]" class="[http://latin.omdoc.org/logics/syntax?Catom]">
<text text-anchor="middle" x="312" y="-234.3" font-family="Times New Roman,serif" font-size="14.00">[http://latin.omdoc.org/logics/syntax?Catom]</text>
</a>
</g>
<!-- http://latin.omdoc.org/logics/syntax?AL -->
<g id="node9" class="node"><title>http://latin.omdoc.org/logics/syntax?AL</title>
<a xlink:href="http://latin.omdoc.org/logics/syntax?AL" class="graphtheory">
<ellipse fill="gray" stroke="black" cx="27" cy="-194" rx="27" ry="18"/>
<text text-anchor="middle" x="27" y="-190.3" font-family="Times New Roman,serif" font-size="14.00">AL</text>
</a>
</g>
<!-- http://latin.omdoc.org/logics/syntax?Catom&#45;&gt;http://latin.omdoc.org/logics/syntax?AL -->
<g id="edge9" class="edge"><title>http://latin.omdoc.org/logics/syntax?Catom&#45;&gt;http://latin.omdoc.org/logics/syntax?AL</title>
<a class="graphinclude">
<path fill="none" stroke="black" d="M414.691,-268.875C409.921,-266.937 404.881,-265.183 400,-264 279.237,-234.736 240.392,-280.431 121,-246 96.6935,-238.99 71.6332,-224.996 53.5067,-213.437"/>
<polygon fill="black" stroke="black" points="54.9825,-210.219 44.7004,-207.664 51.1449,-216.074 54.9825,-210.219"/>
</a>
</g>
<!-- http://latin.omdoc.org/logics/model_theory?ALC -->
<g id="node15" class="node"><title>http://latin.omdoc.org/logics/model_theory?ALC</title>
<a xlink:href="http://latin.omdoc.org/logics/model_theory?ALC" class="graphtheory">
<ellipse fill="gray" stroke="black" cx="277" cy="-106" rx="28.3955" ry="18"/>
<text text-anchor="middle" x="277" y="-102.3" font-family="Times New Roman,serif" font-size="14.00">ALC</text>
</a>
</g>
<!-- http://latin.omdoc.org/logics/syntax?C&#45;&gt;http://latin.omdoc.org/logics/model_theory?ALC -->
<g id="edge15" class="edge"><title>http://latin.omdoc.org/logics/syntax?C&#45;&gt;http://latin.omdoc.org/logics/model_theory?ALC</title>
<a xlink:href="http://latin.omdoc.org/logics/model_theory?ALC?[http://latin.omdoc.org/logics/syntax?C]" class="graphstructure">
<path fill="none" stroke="black" d="M432.736,-178.493C427.835,-174.379 422.049,-170.377 416,-168 401.279,-162.214 284.784,-169.57 274,-158 268.002,-151.565 267.102,-142.46 268.25,-133.72"/>
<polygon fill="black" stroke="black" points="271.701,-134.32 270.356,-123.811 264.854,-132.865 271.701,-134.32"/>
</a>
<a xlink:href="http://latin.omdoc.org/logics/model_theory?ALC?[http://latin.omdoc.org/logics/syntax?C]" class="[http://latin.omdoc.org/logics/syntax?C]">
<text text-anchor="middle" x="385.5" y="-146.3" font-family="Times New Roman,serif" font-size="14.00">[http://latin.omdoc.org/logics/syntax?C]</text>
</a>
</g>
<!-- http://latin.omdoc.org/logics/syntax?ALC -->
<g id="node17" class="node"><title>http://latin.omdoc.org/logics/syntax?ALC</title>
<a xlink:href="http://latin.omdoc.org/logics/syntax?ALC" class="graphtheory">
<ellipse fill="gray" stroke="black" cx="82" cy="-106" rx="28.3955" ry="18"/>
<text text-anchor="middle" x="82" y="-102.3" font-family="Times New Roman,serif" font-size="14.00">ALC</text>
</a>
</g>
<!-- http://latin.omdoc.org/logics/syntax?C&#45;&gt;http://latin.omdoc.org/logics/syntax?ALC -->
<g id="edge17" class="edge"><title>http://latin.omdoc.org/logics/syntax?C&#45;&gt;http://latin.omdoc.org/logics/syntax?ALC</title>
<a class="graphinclude">
<path fill="none" stroke="black" d="M432.743,-178.476C427.842,-174.362 422.054,-170.363 416,-168 384.467,-155.69 297.366,-163.709 264,-158 211.227,-148.971 151.793,-130.734 115.626,-118.695"/>
<polygon fill="black" stroke="black" points="116.661,-115.35 106.067,-115.476 114.427,-121.984 116.661,-115.35"/>
</a>
</g>
<!-- http://latin.omdoc.org/logics/proof_theory?C -->
<g id="node19" class="node"><title>http://latin.omdoc.org/logics/proof_theory?C</title>
<a xlink:href="http://latin.omdoc.org/logics/proof_theory?C" class="graphtheory">
<ellipse fill="gray" stroke="black" cx="515" cy="-106" rx="27" ry="18"/>
<text text-anchor="middle" x="515" y="-102.3" font-family="Times New Roman,serif" font-size="14.00">C</text>
</a>
</g>
<!-- http://latin.omdoc.org/logics/syntax?C&#45;&gt;http://latin.omdoc.org/logics/proof_theory?C -->
<g id="edge19" class="edge"><title>http://latin.omdoc.org/logics/syntax?C&#45;&gt;http://latin.omdoc.org/logics/proof_theory?C</title>
<a class="graphinclude">
<path fill="none" stroke="black" d="M462.485,-179.162C467.265,-175.269 472.677,-171.223 478,-168 487.535,-162.227 493.698,-166.422 501,-158 506.73,-151.391 510.134,-142.638 512.15,-134.253"/>
<polygon fill="black" stroke="black" points="515.6,-134.845 513.983,-124.375 508.717,-133.568 515.6,-134.845"/>
</a>
</g>
<!-- http://latin.omdoc.org/logics/syntax?AL&#45;&gt;http://latin.omdoc.org/logics/syntax?FOLEQ -->
<g id="edge39" class="edge"><title>http://latin.omdoc.org/logics/syntax?AL&#45;&gt;http://latin.omdoc.org/logics/syntax?FOLEQ</title>
<a xlink:href="http://latin.omdoc.org/logics/model_theory?AL" class="graphview">
<path fill="none" stroke="black" d="M21.7212,-176.089C15.9447,-154.212 9.4227,-115.637 25,-88 40.3105,-60.8366 71.0991,-43.1495 96.8238,-32.4898"/>
<polygon fill="black" stroke="black" points="98.3567,-35.6484 106.392,-28.7433 95.8045,-29.1302 98.3567,-35.6484"/>
</a>
<a xlink:href="http://latin.omdoc.org/logics/model_theory?AL" class="AL">
<text text-anchor="middle" x="34.5" y="-102.3" font-family="Times New Roman,serif" font-size="14.00">AL</text>
</a>
</g>
<!-- http://latin.omdoc.org/logics/syntax?DLBase -->
<g id="node11" class="node"><title>http://latin.omdoc.org/logics/syntax?DLBase</title>
<a xlink:href="http://latin.omdoc.org/logics/syntax?DLBase" class="graphtheory">
<ellipse fill="gray" stroke="black" cx="570" cy="-282" rx="39.9464" ry="18"/>
<text text-anchor="middle" x="570" y="-278.3" font-family="Times New Roman,serif" font-size="14.00">DLBase</text>
</a>
</g>
<!-- http://latin.omdoc.org/logics/syntax?DLBase&#45;&gt;http://latin.omdoc.org/logics/syntax?Catom -->
<g id="edge11" class="edge"><title>http://latin.omdoc.org/logics/syntax?DLBase&#45;&gt;http://latin.omdoc.org/logics/syntax?Catom</title>
<a class="graphinclude">
<path fill="none" stroke="black" d="M529.522,-282C514.499,-282 499.476,-282 484.453,-282"/>
<polygon fill="black" stroke="black" points="484.053,-278.5 474.053,-282 484.053,-285.5 484.053,-278.5"/>
</a>
</g>
<!-- http://latin.omdoc.org/logics/syntax?DLBase&#45;&gt;http://latin.omdoc.org/logics/syntax?C -->
<g id="edge21" class="edge"><title>http://latin.omdoc.org/logics/syntax?DLBase&#45;&gt;http://latin.omdoc.org/logics/syntax?C</title>
<a class="graphinclude">
<path fill="none" stroke="black" d="M555.522,-264.883C545.235,-254.078 530.691,-240.042 516,-230 500.572,-219.454 494.645,-220.497 478,-212 477.453,-211.721 476.902,-211.438 476.347,-211.151"/>
<polygon fill="black" stroke="black" points="477.727,-207.921 467.252,-206.33 474.448,-214.106 477.727,-207.921"/>
</a>
</g>
<!-- http://latin.omdoc.org/logics/syntax?DLBase&#45;&gt;http://latin.omdoc.org/logics/syntax?FOLEQ -->
<g id="edge37" class="edge"><title>http://latin.omdoc.org/logics/syntax?DLBase&#45;&gt;http://latin.omdoc.org/logics/syntax?FOLEQ</title>
<a xlink:href="http://latin.omdoc.org/logics/model_theory?DLBase" class="graphview">
<path fill="none" stroke="black" d="M574.397,-263.837C582.851,-226.423 596.744,-136.956 551,-88 502.64,-36.2444 288.205,-23.2981 189.293,-20.0687"/>
<polygon fill="black" stroke="black" points="189.341,-16.5686 179.239,-19.7611 189.127,-23.5653 189.341,-16.5686"/>
</a>
<a xlink:href="http://latin.omdoc.org/logics/model_theory?DLBase" class="DLBase">
<text text-anchor="middle" x="605" y="-146.3" font-family="Times New Roman,serif" font-size="14.00">DLBase</text>
</a>
</g>
<!-- http://cds.omdoc.org/urtheories?LF -->
<g id="node13" class="node"><title>http://cds.omdoc.org/urtheories?LF</title>
<a xlink:href="http://cds.omdoc.org/urtheories?LF" class="graphtheory">
<ellipse fill="gray" stroke="black" cx="502" cy="-356" rx="27" ry="18"/>
<text text-anchor="middle" x="502" y="-352.3" font-family="Times New Roman,serif" font-size="14.00">LF</text>
</a>
</g>
<!-- http://cds.omdoc.org/urtheories?LF&#45;&gt;http://latin.omdoc.org/logics/syntax?Catom -->
<g id="edge13" class="edge"><title>http://cds.omdoc.org/urtheories?LF&#45;&gt;http://latin.omdoc.org/logics/syntax?Catom</title>
<a class="graphmeta">
<path fill="none" stroke="black" d="M488.946,-340.082C480.42,-330.337 469.109,-317.41 459.408,-306.323"/>
<polygon fill="black" stroke="black" points="461.91,-303.868 452.691,-298.647 456.642,-308.477 461.91,-303.868"/>
</a>
</g>
<!-- http://cds.omdoc.org/urtheories?LF&#45;&gt;http://latin.omdoc.org/logics/syntax?C -->
<g id="edge23" class="edge"><title>http://cds.omdoc.org/urtheories?LF&#45;&gt;http://latin.omdoc.org/logics/syntax?C</title>
<a class="graphmeta">
<path fill="none" stroke="black" d="M502.984,-337.756C503.68,-312.603 502.158,-265.04 484,-230 481.133,-224.468 477.041,-219.329 472.615,-214.787"/>
<polygon fill="black" stroke="black" points="474.724,-211.969 465.01,-207.74 469.967,-217.104 474.724,-211.969"/>
</a>
</g>
<!-- http://cds.omdoc.org/urtheories?LF&#45;&gt;http://latin.omdoc.org/logics/syntax?FOLEQ -->
<g id="edge31" class="edge"><title>http://cds.omdoc.org/urtheories?LF&#45;&gt;http://latin.omdoc.org/logics/syntax?FOLEQ</title>
<a class="graphmeta">
<path fill="none" stroke="black" d="M529.188,-355.519C578.125,-354.885 676,-345.769 676,-283 676,-283 676,-283 676,-105 676,-55.9911 322.766,-29.9088 189.274,-21.8018"/>
<polygon fill="black" stroke="black" points="189.115,-18.2861 178.924,-21.1826 188.697,-25.2736 189.115,-18.2861"/>
</a>
</g>
<!-- http://cds.omdoc.org/urtheories?LF&#45;&gt;http://latin.omdoc.org/logics/syntax?AL -->
<g id="edge33" class="edge"><title>http://cds.omdoc.org/urtheories?LF&#45;&gt;http://latin.omdoc.org/logics/syntax?AL</title>
<a class="graphmeta">
<path fill="none" stroke="black" d="M474.94,-354.535C385.002,-352.757 99.9557,-345.17 68,-320 38.4086,-296.692 29.9284,-251.534 27.6397,-222.353"/>
<polygon fill="black" stroke="black" points="31.1139,-221.809 27.0346,-212.031 24.1259,-222.219 31.1139,-221.809"/>
</a>
</g>
<!-- http://cds.omdoc.org/urtheories?LF&#45;&gt;http://latin.omdoc.org/logics/syntax?DLBase -->
<g id="edge29" class="edge"><title>http://cds.omdoc.org/urtheories?LF&#45;&gt;http://latin.omdoc.org/logics/syntax?DLBase</title>
<a class="graphmeta">
<path fill="none" stroke="black" d="M515.761,-340.43C525.031,-330.614 537.458,-317.457 548.077,-306.212"/>
<polygon fill="black" stroke="black" points="550.758,-308.471 555.08,-298.798 545.669,-303.665 550.758,-308.471"/>
</a>
</g>
<!-- http://cds.omdoc.org/urtheories?LF&#45;&gt;http://latin.omdoc.org/logics/syntax?ALC -->
<g id="edge27" class="edge"><title>http://cds.omdoc.org/urtheories?LF&#45;&gt;http://latin.omdoc.org/logics/syntax?ALC</title>
<a class="graphmeta">
<path fill="none" stroke="black" d="M475.495,-351.661C414.398,-342.963 260.744,-315.278 154,-246 114.916,-220.634 95.889,-166.901 87.584,-134.173"/>
<polygon fill="black" stroke="black" points="90.9668,-133.269 85.2524,-124.348 84.1559,-134.886 90.9668,-133.269"/>
</a>
</g>
<!-- http://cds.omdoc.org/urtheories?LF&#45;&gt;http://latin.omdoc.org/logics/proof_theory?C -->
<g id="edge35" class="edge"><title>http://cds.omdoc.org/urtheories?LF&#45;&gt;http://latin.omdoc.org/logics/proof_theory?C</title>
<a class="graphmeta">
<path fill="none" stroke="black" d="M528.643,-352.65C556.462,-348.618 598.796,-337.675 619,-308 660.521,-247.014 663.139,-201.853 620,-142 604.634,-120.681 575.719,-112.152 552.117,-108.831"/>
<polygon fill="black" stroke="black" points="552.384,-105.339 542.049,-107.674 551.585,-112.293 552.384,-105.339"/>
</a>
</g>
<!-- http://latin.omdoc.org/logics/syntax?ALC&#45;&gt;http://latin.omdoc.org/logics/syntax?FOLEQ -->
<g id="edge25" class="edge"><title>http://latin.omdoc.org/logics/syntax?ALC&#45;&gt;http://latin.omdoc.org/logics/syntax?FOLEQ</title>
<a xlink:href="http://latin.omdoc.org/logics/model_theory?ALC" class="graphview">
<path fill="none" stroke="black" d="M84.4418,-87.8624C86.5339,-77.4243 90.3129,-64.1832 97,-54 100.338,-48.9173 104.635,-44.1867 109.203,-39.9502"/>
<polygon fill="black" stroke="black" points="111.664,-42.4517 117.023,-33.3121 107.134,-37.1149 111.664,-42.4517"/>
</a>
<a xlink:href="http://latin.omdoc.org/logics/model_theory?ALC" class="ALC">
<text text-anchor="middle" x="111" y="-58.3" font-family="Times New Roman,serif" font-size="14.00">ALC</text>
</a>
</g>
</g>
</svg>
