<?xml version="1.0" encoding="UTF-8" standalone="no"?>
<!DOCTYPE svg PUBLIC "-//W3C//DTD SVG 1.1//EN"
 "http://www.w3.org/Graphics/SVG/1.1/DTD/svg11.dtd">
<!-- Generated by graphviz version 2.28.0 (20110507.0327)
 -->
<!-- Title: MMT Pages: 1 -->
<svg
 viewBox="0.00 0.00 2181.78 294.00" xmlns="http://www.w3.org/2000/svg" xmlns:xlink="http://www.w3.org/1999/xlink">
<g id="graph1" class="graph" transform="scale(1 1) rotate(0) translate(4 290)">
<title>MMT</title>
<polygon fill="white" stroke="white" points="-4,5 -4,-290 2178.78,-290 2178.78,5 -4,5"/>
<g id="graph2" class="cluster"><title>cluster_local</title>
<polygon fill="none" stroke="black" points="1164.74,-168 1164.74,-220 1244.74,-220 1244.74,-168 1164.74,-168"/>
</g>
<!-- http://latin.omdoc.org/logics/syntax?Exists -->
<g id="node2" class="node"><title>http://latin.omdoc.org/logics/syntax?Exists</title>
<a xlink:href="http://latin.omdoc.org/logics/syntax?Exists" class="graphtheory">
<ellipse fill="none" stroke="black" cx="1204.74" cy="-194" rx="32.2457" ry="18"/>
<text text-anchor="middle" x="1204.74" y="-190.3" font-family="Times New Roman,serif" font-size="14.00">Exists</text>
</a>
</g>
<!-- http://latin.omdoc.org/translations/fol_ifol?ExistsPF -->
<g id="node3" class="node"><title>http://latin.omdoc.org/translations/fol_ifol?ExistsPF</title>
<a xlink:href="http://latin.omdoc.org/translations/fol_ifol?ExistsPF" class="graphtheory">
<ellipse fill="gray" stroke="black" cx="647.735" cy="-106" rx="43.319" ry="18"/>
<text text-anchor="middle" x="647.735" y="-102.3" font-family="Times New Roman,serif" font-size="14.00">ExistsPF</text>
</a>
</g>
<!-- http://latin.omdoc.org/logics/syntax?Exists&#45;&gt;http://latin.omdoc.org/translations/fol_ifol?ExistsPF -->
<g id="edge3" class="edge"><title>http://latin.omdoc.org/logics/syntax?Exists&#45;&gt;http://latin.omdoc.org/translations/fol_ifol?ExistsPF</title>
<a xlink:href="http://latin.omdoc.org/translations/fol_ifol?ExistsPF?[http://latin.omdoc.org/logics/syntax?Exists]" class="graphstructure">
<path fill="none" stroke="black" d="M1187.91,-178.285C1182.2,-174.161 1175.54,-170.205 1168.74,-168 1141.94,-159.316 683.969,-175.302 661.735,-158 654.365,-152.264 650.641,-143.035 648.83,-133.993"/>
<polygon fill="black" stroke="black" points="652.297,-133.511 647.505,-124.062 645.358,-134.437 652.297,-133.511"/>
</a>
<a xlink:href="http://latin.omdoc.org/translations/fol_ifol?ExistsPF?[http://latin.omdoc.org/logics/syntax?Exists]" class="[http://latin.omdoc.org/logics/syntax?Exists]">
<text text-anchor="middle" x="785.235" y="-146.3" font-family="Times New Roman,serif" font-size="14.00">[http://latin.omdoc.org/logics/syntax?Exists]</text>
</a>
</g>
<!-- http://latin.omdoc.org/foundations/mizar?FOLMizarView -->
<g id="node5" class="node"><title>http://latin.omdoc.org/foundations/mizar?FOLMizarView</title>
<a xlink:href="http://latin.omdoc.org/foundations/mizar?FOLMizarView" class="graphtheory">
<ellipse fill="gray" stroke="black" cx="917.735" cy="-106" rx="67.3907" ry="18"/>
<text text-anchor="middle" x="917.735" y="-102.3" font-family="Times New Roman,serif" font-size="14.00">FOLMizarView</text>
</a>
</g>
<!-- http://latin.omdoc.org/logics/syntax?Exists&#45;&gt;http://latin.omdoc.org/foundations/mizar?FOLMizarView -->
<g id="edge5" class="edge"><title>http://latin.omdoc.org/logics/syntax?Exists&#45;&gt;http://latin.omdoc.org/foundations/mizar?FOLMizarView</title>
<a xlink:href="http://latin.omdoc.org/foundations/mizar?FOLMizarView?[http://latin.omdoc.org/logics/syntax?Exists]" class="graphstructure">
<path fill="none" stroke="black" d="M1187.88,-178.368C1182.17,-174.248 1175.52,-170.274 1168.74,-168 1142.38,-159.163 938.192,-177.857 918.735,-158 912.588,-151.726 911.054,-142.658 911.481,-133.902"/>
<polygon fill="black" stroke="black" points="914.957,-134.311 912.725,-123.954 908.011,-133.442 914.957,-134.311"/>
</a>
<a xlink:href="http://latin.omdoc.org/foundations/mizar?FOLMizarView?[http://latin.omdoc.org/logics/syntax?Exists]" class="[http://latin.omdoc.org/logics/syntax?Exists]">
<text text-anchor="middle" x="1042.24" y="-146.3" font-family="Times New Roman,serif" font-size="14.00">[http://latin.omdoc.org/logics/syntax?Exists]</text>
</a>
</g>
<!-- http://latin.omdoc.org/logics/syntax?SecOL -->
<g id="node7" class="node"><title>http://latin.omdoc.org/logics/syntax?SecOL</title>
<a xlink:href="http://latin.omdoc.org/logics/syntax?SecOL" class="graphtheory">
<ellipse fill="gray" stroke="black" cx="51.7353" cy="-106" rx="36.096" ry="18"/>
<text text-anchor="middle" x="51.7353" y="-102.3" font-family="Times New Roman,serif" font-size="14.00">SecOL</text>
</a>
</g>
<!-- http://latin.omdoc.org/logics/syntax?Exists&#45;&gt;http://latin.omdoc.org/logics/syntax?SecOL -->
<g id="edge7" class="edge"><title>http://latin.omdoc.org/logics/syntax?Exists&#45;&gt;http://latin.omdoc.org/logics/syntax?SecOL</title>
<a xlink:href="http://latin.omdoc.org/logics/syntax?SecOL?ee" class="graphstructure">
<path fill="none" stroke="black" d="M1188.28,-178.507C1182.5,-174.286 1175.7,-170.216 1168.74,-168 1112.88,-150.218 168.817,-178.039 113.735,-158 97.9852,-152.27 83.3517,-140.67 72.261,-129.979"/>
<polygon fill="black" stroke="black" points="74.6952,-127.463 65.1786,-122.807 69.7142,-132.382 74.6952,-127.463"/>
</a>
<a xlink:href="http://latin.omdoc.org/logics/syntax?SecOL?ee" class="ee">
<text text-anchor="middle" x="120.235" y="-146.3" font-family="Times New Roman,serif" font-size="14.00">ee</text>
</a>
</g>
<!-- http://latin.omdoc.org/logics/model_theory?FOL -->
<g id="node9" class="node"><title>http://latin.omdoc.org/logics/model_theory?FOL</title>
<a xlink:href="http://latin.omdoc.org/logics/model_theory?FOL" class="graphtheory">
<ellipse fill="gray" stroke="black" cx="1575.74" cy="-106" rx="28.3955" ry="18"/>
<text text-anchor="middle" x="1575.74" y="-102.3" font-family="Times New Roman,serif" font-size="14.00">FOL</text>
</a>
</g>
<!-- http://latin.omdoc.org/logics/syntax?Exists&#45;&gt;http://latin.omdoc.org/logics/model_theory?FOL -->
<g id="edge9" class="edge"><title>http://latin.omdoc.org/logics/syntax?Exists&#45;&gt;http://latin.omdoc.org/logics/model_theory?FOL</title>
<a xlink:href="http://latin.omdoc.org/logics/model_theory?FOL?[http://latin.omdoc.org/logics/syntax?Exists]" class="graphstructure">
<path fill="none" stroke="black" d="M1222.83,-179.045C1228.39,-175.148 1234.64,-171.129 1240.74,-168 1240.97,-167.877 1313.47,-142.058 1313.74,-142 1401.78,-122.725 1427.1,-140.357 1515.74,-124 1524.14,-122.45 1533.06,-120.24 1541.39,-117.924"/>
<polygon fill="black" stroke="black" points="1542.54,-121.233 1551.17,-115.084 1540.59,-114.511 1542.54,-121.233"/>
</a>
<a xlink:href="http://latin.omdoc.org/logics/model_theory?FOL?[http://latin.omdoc.org/logics/syntax?Exists]" class="[http://latin.omdoc.org/logics/syntax?Exists]">
<text text-anchor="middle" x="1437.24" y="-146.3" font-family="Times New Roman,serif" font-size="14.00">[http://latin.omdoc.org/logics/syntax?Exists]</text>
</a>
</g>
<!-- http://latin.omdoc.org/logics/soundness?Exists -->
<g id="node11" class="node"><title>http://latin.omdoc.org/logics/soundness?Exists</title>
<a xlink:href="http://latin.omdoc.org/logics/soundness?Exists" class="graphtheory">
<ellipse fill="gray" stroke="black" cx="138.735" cy="-106" rx="32.2457" ry="18"/>
<text text-anchor="middle" x="138.735" y="-102.3" font-family="Times New Roman,serif" font-size="14.00">Exists</text>
</a>
</g>
<!-- http://latin.omdoc.org/logics/syntax?Exists&#45;&gt;http://latin.omdoc.org/logics/soundness?Exists -->
<g id="edge11" class="edge"><title>http://latin.omdoc.org/logics/syntax?Exists&#45;&gt;http://latin.omdoc.org/logics/soundness?Exists</title>
<a xlink:href="http://latin.omdoc.org/logics/soundness?Exists?[http://latin.omdoc.org/logics/syntax?Exists]" class="graphstructure">
<path fill="none" stroke="black" d="M1188.28,-178.508C1182.5,-174.287 1175.7,-170.217 1168.74,-168 1141.42,-159.3 156.908,-178.369 136.735,-158 130.551,-151.755 129.459,-142.693 130.442,-133.935"/>
<polygon fill="black" stroke="black" points="133.904,-134.463 132.368,-123.98 127.032,-133.133 133.904,-134.463"/>
</a>
<a xlink:href="http://latin.omdoc.org/logics/soundness?Exists?[http://latin.omdoc.org/logics/syntax?Exists]" class="[http://latin.omdoc.org/logics/syntax?Exists]">
<text text-anchor="middle" x="260.235" y="-146.3" font-family="Times New Roman,serif" font-size="14.00">[http://latin.omdoc.org/logics/syntax?Exists]</text>
</a>
</g>
<!-- http://latin.omdoc.org/foundations/mizar?ExistsPFMizarView -->
<g id="node13" class="node"><title>http://latin.omdoc.org/foundations/mizar?ExistsPFMizarView</title>
<a xlink:href="http://latin.omdoc.org/foundations/mizar?ExistsPFMizarView" class="graphtheory">
<ellipse fill="gray" stroke="black" cx="377.735" cy="-106" rx="82.3139" ry="18"/>
<text text-anchor="middle" x="377.735" y="-102.3" font-family="Times New Roman,serif" font-size="14.00">ExistsPFMizarView</text>
</a>
</g>
<!-- http://latin.omdoc.org/logics/syntax?Exists&#45;&gt;http://latin.omdoc.org/foundations/mizar?ExistsPFMizarView -->
<g id="edge13" class="edge"><title>http://latin.omdoc.org/logics/syntax?Exists&#45;&gt;http://latin.omdoc.org/foundations/mizar?ExistsPFMizarView</title>
<a xlink:href="http://latin.omdoc.org/foundations/mizar?ExistsPFMizarView?[http://latin.omdoc.org/logics/syntax?Exists]" class="graphstructure">
<path fill="none" stroke="black" d="M1187.92,-178.258C1182.21,-174.132 1175.55,-170.182 1168.74,-168 1148.42,-161.491 418.581,-169.693 400.735,-158 392.383,-152.527 387.029,-143.224 383.614,-134.05"/>
<polygon fill="black" stroke="black" points="386.909,-132.858 380.617,-124.334 380.22,-134.921 386.909,-132.858"/>
</a>
<a xlink:href="http://latin.omdoc.org/foundations/mizar?ExistsPFMizarView?[http://latin.omdoc.org/logics/syntax?Exists]" class="[http://latin.omdoc.org/logics/syntax?Exists]">
<text text-anchor="middle" x="524.235" y="-146.3" font-family="Times New Roman,serif" font-size="14.00">[http://latin.omdoc.org/logics/syntax?Exists]</text>
</a>
</g>
<!-- http://latin.omdoc.org/logics/model_theory?FOLMOD -->
<g id="node15" class="node"><title>http://latin.omdoc.org/logics/model_theory?FOLMOD</title>
<a xlink:href="http://latin.omdoc.org/logics/model_theory?FOLMOD" class="graphtheory">
<ellipse fill="gray" stroke="black" cx="1847.74" cy="-18" rx="49.0941" ry="18"/>
<text text-anchor="middle" x="1847.74" y="-14.3" font-family="Times New Roman,serif" font-size="14.00">FOLMOD</text>
</a>
</g>
<!-- http://latin.omdoc.org/logics/syntax?Exists&#45;&gt;http://latin.omdoc.org/logics/model_theory?FOLMOD -->
<g id="edge15" class="edge"><title>http://latin.omdoc.org/logics/syntax?Exists&#45;&gt;http://latin.omdoc.org/logics/model_theory?FOLMOD</title>
<a xlink:href="http://latin.omdoc.org/logics/model_theory?Exists" class="graphview">
<path fill="none" stroke="black" d="M1210.14,-176.138C1213.58,-166.043 1218.4,-153.064 1223.74,-142 1243.57,-100.876 1237.69,-77.6679 1276.74,-54 1319.62,-28.0016 1650.31,-21.2404 1787.93,-19.5447"/>
<polygon fill="black" stroke="black" points="1788.33,-23.0403 1798.29,-19.4222 1788.25,-16.0408 1788.33,-23.0403"/>
</a>
<a xlink:href="http://latin.omdoc.org/logics/model_theory?Exists" class="Exists">
<text text-anchor="middle" x="1261.74" y="-102.3" font-family="Times New Roman,serif" font-size="14.00">Exists</text>
</a>
</g>
<!-- http://latin.omdoc.org/translations/fol_ifol?DN&#45;IFOL -->
<g id="node17" class="node"><title>http://latin.omdoc.org/translations/fol_ifol?DN&#45;IFOL</title>
<a xlink:href="http://latin.omdoc.org/translations/fol_ifol?DN-IFOL" class="graphtheory">
<ellipse fill="gray" stroke="black" cx="1243.74" cy="-18" rx="46.1964" ry="18"/>
<text text-anchor="middle" x="1243.74" y="-14.3" font-family="Times New Roman,serif" font-size="14.00">DN&#45;IFOL</text>
</a>
</g>
<!-- http://latin.omdoc.org/logics/syntax?Exists&#45;&gt;http://latin.omdoc.org/translations/fol_ifol?DN&#45;IFOL -->
<g id="edge17" class="edge"><title>http://latin.omdoc.org/logics/syntax?Exists&#45;&gt;http://latin.omdoc.org/translations/fol_ifol?DN&#45;IFOL</title>
<a xlink:href="http://latin.omdoc.org/translations/fol_ifol?Exists" class="graphview">
<path fill="none" stroke="black" d="M1198.3,-176.157C1196.44,-170.477 1194.66,-164.044 1193.74,-158 1189.02,-127.249 1184.14,-117.594 1193.74,-88 1199.2,-71.146 1210.49,-54.9598 1220.97,-42.5054"/>
<polygon fill="black" stroke="black" points="1223.69,-44.7117 1227.66,-34.8904 1218.43,-40.0897 1223.69,-44.7117"/>
</a>
<a xlink:href="http://latin.omdoc.org/translations/fol_ifol?Exists" class="Exists">
<text text-anchor="middle" x="1210.74" y="-102.3" font-family="Times New Roman,serif" font-size="14.00">Exists</text>
</a>
</g>
<!-- http://latin.omdoc.org/foundations/mizar?Mizar -->
<g id="node19" class="node"><title>http://latin.omdoc.org/foundations/mizar?Mizar</title>
<a xlink:href="http://latin.omdoc.org/foundations/mizar?Mizar" class="graphtheory">
<ellipse fill="gray" stroke="black" cx="1946.74" cy="-18" rx="31.2965" ry="18"/>
<text text-anchor="middle" x="1946.74" y="-14.3" font-family="Times New Roman,serif" font-size="14.00">Mizar</text>
</a>
</g>
<!-- http://latin.omdoc.org/logics/syntax?Exists&#45;&gt;http://latin.omdoc.org/foundations/mizar?Mizar -->
<g id="edge19" class="edge"><title>http://latin.omdoc.org/logics/syntax?Exists&#45;&gt;http://latin.omdoc.org/foundations/mizar?Mizar</title>
<a xlink:href="http://latin.omdoc.org/foundations/mizar?ExistsMizarView" class="graphview">
<path fill="none" stroke="black" d="M1219.54,-177.534C1231.65,-165.865 1249.8,-150.468 1268.74,-142 1312.36,-122.492 1329.44,-139.238 1374.74,-124 1407.52,-112.97 1410.46,-97.4387 1443.74,-88 1550.91,-57.6019 1583.08,-82.8324 1693.74,-70 1788.53,-59.0075 1813.92,-62.0083 1905.74,-36 1908.36,-35.2577 1911.03,-34.3964 1913.7,-33.463"/>
<polygon fill="black" stroke="black" points="1915.11,-36.6715 1923.22,-29.8512 1912.63,-30.1269 1915.11,-36.6715"/>
</a>
<a xlink:href="http://latin.omdoc.org/foundations/mizar?ExistsMizarView" class="ExistsMizarView">
<text text-anchor="middle" x="1490.74" y="-102.3" font-family="Times New Roman,serif" font-size="14.00">ExistsMizarView</text>
</a>
</g>
<!-- http://latin.omdoc.org/logics/syntax?FOL -->
<g id="node21" class="node"><title>http://latin.omdoc.org/logics/syntax?FOL</title>
<a xlink:href="http://latin.omdoc.org/logics/syntax?FOL" class="graphtheory">
<ellipse fill="gray" stroke="black" cx="1951.74" cy="-106" rx="28.3955" ry="18"/>
<text text-anchor="middle" x="1951.74" y="-102.3" font-family="Times New Roman,serif" font-size="14.00">FOL</text>
</a>
</g>
<!-- http://latin.omdoc.org/logics/syntax?Exists&#45;&gt;http://latin.omdoc.org/logics/syntax?FOL -->
<g id="edge21" class="edge"><title>http://latin.omdoc.org/logics/syntax?Exists&#45;&gt;http://latin.omdoc.org/logics/syntax?FOL</title>
<a class="graphinclude">
<path fill="none" stroke="black" d="M1221.58,-178.332C1227.29,-174.211 1233.94,-170.244 1240.74,-168 1308.29,-145.68 1492.27,-177.333 1560.74,-158 1574.53,-154.105 1574.99,-146.066 1588.74,-142 1725.33,-101.585 1769.61,-154.577 1908.74,-124 1912.4,-123.194 1916.16,-122.116 1919.86,-120.892"/>
<polygon fill="black" stroke="black" points="1921.21,-124.123 1929.4,-117.396 1918.81,-117.55 1921.21,-124.123"/>
</a>
</g>
<!-- http://latin.omdoc.org/logics/proof_theory?Exists -->
<g id="node23" class="node"><title>http://latin.omdoc.org/logics/proof_theory?Exists</title>
<a xlink:href="http://latin.omdoc.org/logics/proof_theory?Exists" class="graphtheory">
<ellipse fill="gray" stroke="black" cx="1333.74" cy="-106" rx="32.2457" ry="18"/>
<text text-anchor="middle" x="1333.74" y="-102.3" font-family="Times New Roman,serif" font-size="14.00">Exists</text>
</a>
</g>
<!-- http://latin.omdoc.org/logics/syntax?Exists&#45;&gt;http://latin.omdoc.org/logics/proof_theory?Exists -->
<g id="edge23" class="edge"><title>http://latin.omdoc.org/logics/syntax?Exists&#45;&gt;http://latin.omdoc.org/logics/proof_theory?Exists</title>
<a class="graphinclude">
<path fill="none" stroke="black" d="M1214.12,-176.372C1221.07,-165.339 1231.44,-151.24 1243.74,-142 1246.12,-140.208 1273.69,-129.582 1297.7,-120.504"/>
<polygon fill="black" stroke="black" points="1299.22,-123.67 1307.34,-116.866 1296.75,-117.121 1299.22,-123.67"/>
</a>
</g>
<!-- http://latin.omdoc.org/logics/syntax?FOL&#45;&gt;http://latin.omdoc.org/logics/model_theory?FOLMOD -->
<g id="edge59" class="edge"><title>http://latin.omdoc.org/logics/syntax?FOL&#45;&gt;http://latin.omdoc.org/logics/model_theory?FOLMOD</title>
<a xlink:href="http://latin.omdoc.org/logics/model_theory?FOL" class="graphview">
<path fill="none" stroke="black" d="M1935.03,-91.1826C1918.75,-77.7218 1893.73,-57.0369 1874.65,-41.255"/>
<polygon fill="black" stroke="black" points="1876.81,-38.5024 1866.87,-34.8269 1872.35,-43.8969 1876.81,-38.5024"/>
</a>
<a xlink:href="http://latin.omdoc.org/logics/model_theory?FOL" class="FOL">
<text text-anchor="middle" x="1923.74" y="-58.3" font-family="Times New Roman,serif" font-size="14.00">FOL</text>
</a>
</g>
<!-- http://latin.omdoc.org/logics/syntax?FOL&#45;&gt;http://latin.omdoc.org/foundations/mizar?Mizar -->
<g id="edge61" class="edge"><title>http://latin.omdoc.org/logics/syntax?FOL&#45;&gt;http://latin.omdoc.org/foundations/mizar?Mizar</title>
<a xlink:href="http://latin.omdoc.org/foundations/mizar?FOLMizarView" class="graphview">
<path fill="none" stroke="black" d="M1950.75,-88.0092C1950.06,-76.1897 1949.13,-60.1708 1948.34,-46.5418"/>
<polygon fill="black" stroke="black" points="1951.81,-46.0299 1947.74,-36.2499 1944.82,-46.4362 1951.81,-46.0299"/>
</a>
<a xlink:href="http://latin.omdoc.org/foundations/mizar?FOLMizarView" class="FOLMizarView">
<text text-anchor="middle" x="1993.74" y="-58.3" font-family="Times New Roman,serif" font-size="14.00">FOLMizarView</text>
</a>
</g>
<!-- http://latin.omdoc.org/logics/proof_theory?Exists&#45;&gt;http://latin.omdoc.org/logics/model_theory?FOLMOD -->
<g id="edge55" class="edge"><title>http://latin.omdoc.org/logics/proof_theory?Exists&#45;&gt;http://latin.omdoc.org/logics/model_theory?FOLMOD</title>
<a xlink:href="http://latin.omdoc.org/logics/soundness?Exists" class="graphview">
<path fill="none" stroke="black" d="M1362.11,-97.1436C1372.66,-94.2427 1384.74,-90.9455 1395.74,-88 1453.42,-72.548 1467,-64.8117 1525.74,-54 1617.21,-37.1621 1724.9,-27.4716 1789.66,-22.7215"/>
<polygon fill="black" stroke="black" points="1789.96,-26.2095 1799.68,-22.0012 1789.45,-19.2275 1789.96,-26.2095"/>
</a>
<a xlink:href="http://latin.omdoc.org/logics/soundness?Exists" class="Exists">
<text text-anchor="middle" x="1542.74" y="-58.3" font-family="Times New Roman,serif" font-size="14.00">Exists</text>
</a>
</g>
<!-- http://latin.omdoc.org/logics/proof_theory?Exists&#45;&gt;http://latin.omdoc.org/translations/fol_ifol?DN&#45;IFOL -->
<g id="edge57" class="edge"><title>http://latin.omdoc.org/logics/proof_theory?Exists&#45;&gt;http://latin.omdoc.org/translations/fol_ifol?DN&#45;IFOL</title>
<a xlink:href="http://latin.omdoc.org/translations/fol_ifol?ExistsPF" class="graphview">
<path fill="none" stroke="black" d="M1318.06,-90.0199C1304.21,-76.7858 1283.8,-57.2797 1267.86,-42.057"/>
<polygon fill="black" stroke="black" points="1270.1,-39.3525 1260.45,-34.9744 1265.26,-44.4135 1270.1,-39.3525"/>
</a>
<a xlink:href="http://latin.omdoc.org/translations/fol_ifol?ExistsPF" class="ExistsPF">
<text text-anchor="middle" x="1323.24" y="-58.3" font-family="Times New Roman,serif" font-size="14.00">ExistsPF</text>
</a>
</g>
<!-- http://latin.omdoc.org/logics/proof_theory?Exists&#45;&gt;http://latin.omdoc.org/foundations/mizar?Mizar -->
<g id="edge53" class="edge"><title>http://latin.omdoc.org/logics/proof_theory?Exists&#45;&gt;http://latin.omdoc.org/foundations/mizar?Mizar</title>
<a xlink:href="http://latin.omdoc.org/foundations/mizar?ExistsPFMizarView" class="graphview">
<path fill="none" stroke="black" d="M1361.29,-96.4374C1371.96,-93.3882 1384.33,-90.1747 1395.74,-88 1467.76,-74.262 1491.07,-95.7322 1559.74,-70 1571.4,-65.6301 1570.96,-58.0556 1582.74,-54 1650.7,-30.5868 1835.65,-51.9944 1905.74,-36 1908.39,-35.3941 1911.09,-34.6314 1913.78,-33.7668"/>
<polygon fill="black" stroke="black" points="1915.14,-36.9989 1923.33,-30.2876 1912.74,-30.4217 1915.14,-36.9989"/>
</a>
<a xlink:href="http://latin.omdoc.org/foundations/mizar?ExistsPFMizarView" class="ExistsPFMizarView">
<text text-anchor="middle" x="1638.24" y="-58.3" font-family="Times New Roman,serif" font-size="14.00">ExistsPFMizarView</text>
</a>
</g>
<!-- http://latin.omdoc.org/logics/syntax?UniverseLogic -->
<g id="node25" class="node"><title>http://latin.omdoc.org/logics/syntax?UniverseLogic</title>
<a xlink:href="http://latin.omdoc.org/logics/syntax?UniverseLogic" class="graphtheory">
<ellipse fill="gray" stroke="black" cx="1899.74" cy="-194" rx="63.5411" ry="18"/>
<text text-anchor="middle" x="1899.74" y="-190.3" font-family="Times New Roman,serif" font-size="14.00">UniverseLogic</text>
</a>
</g>
<!-- http://latin.omdoc.org/logics/syntax?UniverseLogic&#45;&gt;http://latin.omdoc.org/logics/syntax?Exists -->
<g id="edge25" class="edge"><title>http://latin.omdoc.org/logics/syntax?UniverseLogic&#45;&gt;http://latin.omdoc.org/logics/syntax?Exists</title>
<a class="graphinclude">
<path fill="none" stroke="black" d="M1836.34,-194C1640.08,-194 1443.81,-194 1247.55,-194"/>
<polygon fill="black" stroke="black" points="1247.31,-190.5 1237.31,-194 1247.31,-197.5 1247.31,-190.5"/>
</a>
</g>
<!-- http://latin.omdoc.org/logics/syntax?UniverseLogic&#45;&gt;http://latin.omdoc.org/logics/model_theory?FOL -->
<g id="edge43" class="edge"><title>http://latin.omdoc.org/logics/syntax?UniverseLogic&#45;&gt;http://latin.omdoc.org/logics/model_theory?FOL</title>
<a xlink:href="http://latin.omdoc.org/logics/model_theory?FOL?[http://latin.omdoc.org/logics/syntax?UniverseLogic]" class="graphstructure">
<path fill="none" stroke="black" d="M1836.68,-191.595C1762.74,-188.893 1645.59,-181.006 1608.74,-158 1599.21,-152.052 1591.9,-142.226 1586.61,-132.779"/>
<polygon fill="black" stroke="black" points="1589.61,-130.966 1581.98,-123.615 1583.36,-134.12 1589.61,-130.966"/>
</a>
<a xlink:href="http://latin.omdoc.org/logics/model_theory?FOL?[http://latin.omdoc.org/logics/syntax?UniverseLogic]" class="[http://latin.omdoc.org/logics/syntax?UniverseLogic]">
<text text-anchor="middle" x="1755.74" y="-146.3" font-family="Times New Roman,serif" font-size="14.00">[http://latin.omdoc.org/logics/syntax?UniverseLogic]</text>
</a>
</g>
<!-- http://latin.omdoc.org/logics/syntax?UniverseLogic&#45;&gt;http://latin.omdoc.org/logics/model_theory?FOLMOD -->
<g id="edge49" class="edge"><title>http://latin.omdoc.org/logics/syntax?UniverseLogic&#45;&gt;http://latin.omdoc.org/logics/model_theory?FOLMOD</title>
<a xlink:href="http://latin.omdoc.org/logics/model_theory?BaseFOL" class="graphview">
<path fill="none" stroke="black" d="M1918.39,-176.589C1927.95,-166.182 1936.01,-152.711 1927.74,-142 1908.36,-116.92 1879.39,-148.035 1858.74,-124 1840.5,-102.785 1840.1,-69.5449 1842.75,-46.1588"/>
<polygon fill="black" stroke="black" points="1846.22,-46.5709 1844.13,-36.1858 1839.29,-45.6124 1846.22,-46.5709"/>
</a>
<a xlink:href="http://latin.omdoc.org/logics/model_theory?BaseFOL" class="BaseFOL">
<text text-anchor="middle" x="1886.24" y="-102.3" font-family="Times New Roman,serif" font-size="14.00">BaseFOL</text>
</a>
</g>
<!-- http://latin.omdoc.org/logics/syntax?UniverseLogic&#45;&gt;http://latin.omdoc.org/translations/fol_ifol?DN&#45;IFOL -->
<g id="edge47" class="edge"><title>http://latin.omdoc.org/logics/syntax?UniverseLogic&#45;&gt;http://latin.omdoc.org/translations/fol_ifol?DN&#45;IFOL</title>
<a xlink:href="http://latin.omdoc.org/translations/fol_ifol?UniverseLogic" class="graphview">
<path fill="none" stroke="black" d="M1906.36,-175.846C1909.38,-164.868 1910.72,-151.04 1902.74,-142 1881.24,-117.667 1789.58,-130.35 1757.74,-124 1713.64,-115.207 1604.24,-87.288 1562.74,-70 1549.5,-64.4892 1548.34,-58.5008 1534.74,-54 1456.23,-28.0354 1360.15,-20.931 1300.42,-19.2052"/>
<polygon fill="black" stroke="black" points="1300.16,-15.6976 1290.07,-18.9496 1299.98,-22.6955 1300.16,-15.6976"/>
</a>
<a xlink:href="http://latin.omdoc.org/translations/fol_ifol?UniverseLogic" class="UniverseLogic">
<text text-anchor="middle" x="1798.74" y="-102.3" font-family="Times New Roman,serif" font-size="14.00">UniverseLogic</text>
</a>
</g>
<!-- http://latin.omdoc.org/logics/syntax?UniverseLogic&#45;&gt;http://latin.omdoc.org/foundations/mizar?Mizar -->
<g id="edge45" class="edge"><title>http://latin.omdoc.org/logics/syntax?UniverseLogic&#45;&gt;http://latin.omdoc.org/foundations/mizar?Mizar</title>
<a xlink:href="http://latin.omdoc.org/foundations/mizar?BaseFOLMizarView" class="graphview">
<path fill="none" stroke="black" d="M1934.93,-178.961C1946.64,-173.392 1959.33,-166.314 1969.74,-158 2009.21,-126.447 2024.75,-117.593 2041.74,-70 2051.18,-43.5483 2016.92,-30.5842 1986.94,-24.384"/>
<polygon fill="black" stroke="black" points="1987.48,-20.9243 1977.01,-22.5309 1986.2,-27.8056 1987.48,-20.9243"/>
</a>
<a xlink:href="http://latin.omdoc.org/foundations/mizar?BaseFOLMizarView" class="BaseFOLMizarView">
<text text-anchor="middle" x="2092.24" y="-102.3" font-family="Times New Roman,serif" font-size="14.00">BaseFOLMizarView</text>
</a>
</g>
<!-- http://latin.omdoc.org/logics/syntax?UniverseLogic&#45;&gt;http://latin.omdoc.org/logics/syntax?FOL -->
<g id="edge51" class="edge"><title>http://latin.omdoc.org/logics/syntax?UniverseLogic&#45;&gt;http://latin.omdoc.org/logics/syntax?FOL</title>
<a class="graphinclude">
<path fill="none" stroke="black" d="M1932.59,-178.425C1940.61,-173.197 1948.19,-166.448 1952.74,-158 1956.59,-150.842 1957.55,-142.261 1957.2,-134.198"/>
<polygon fill="black" stroke="black" points="1960.66,-133.63 1956.11,-124.059 1953.69,-134.375 1960.66,-133.63"/>
</a>
</g>
<!-- http://cds.omdoc.org/urtheories?LF -->
<g id="node27" class="node"><title>http://cds.omdoc.org/urtheories?LF</title>
<a xlink:href="http://cds.omdoc.org/urtheories?LF" class="graphtheory">
<ellipse fill="gray" stroke="black" cx="1440.74" cy="-268" rx="27" ry="18"/>
<text text-anchor="middle" x="1440.74" y="-264.3" font-family="Times New Roman,serif" font-size="14.00">LF</text>
</a>
</g>
<!-- http://cds.omdoc.org/urtheories?LF&#45;&gt;http://latin.omdoc.org/logics/syntax?Exists -->
<g id="edge27" class="edge"><title>http://cds.omdoc.org/urtheories?LF&#45;&gt;http://latin.omdoc.org/logics/syntax?Exists</title>
<a class="graphmeta">
<path fill="none" stroke="black" d="M1414.41,-263.826C1379.7,-259.171 1317.02,-249.134 1265.74,-232 1253.74,-227.993 1241.61,-221.297 1231.36,-214.695"/>
<polygon fill="black" stroke="black" points="1233.14,-211.671 1222.89,-208.986 1229.23,-217.477 1233.14,-211.671"/>
</a>
</g>
<!-- http://cds.omdoc.org/urtheories?LF&#45;&gt;http://latin.omdoc.org/logics/syntax?SecOL -->
<g id="edge29" class="edge"><title>http://cds.omdoc.org/urtheories?LF&#45;&gt;http://latin.omdoc.org/logics/syntax?SecOL</title>
<a class="graphmeta">
<path fill="none" stroke="black" d="M1413.57,-266.272C1232.31,-261.227 201.632,-229.522 83.7353,-158 74.3516,-152.307 67.2822,-142.705 62.2072,-133.357"/>
<polygon fill="black" stroke="black" points="65.3013,-131.716 57.7852,-124.249 59.0042,-134.774 65.3013,-131.716"/>
</a>
</g>
<!-- http://cds.omdoc.org/urtheories?LF&#45;&gt;http://latin.omdoc.org/logics/model_theory?FOLMOD -->
<g id="edge35" class="edge"><title>http://cds.omdoc.org/urtheories?LF&#45;&gt;http://latin.omdoc.org/logics/model_theory?FOLMOD</title>
<a class="graphmeta">
<path fill="none" stroke="black" d="M1467.73,-266.394C1560.83,-264.115 1868.06,-254.993 1963.74,-232 1976.9,-228.836 1979.73,-226.266 1991.74,-220 2063.23,-182.673 2106.6,-194.521 2145.74,-124 2200.67,-25.028 2017.43,-59.6701 1906.74,-36 1902.57,-35.1098 1898.27,-34.0835 1893.98,-32.9854"/>
<polygon fill="black" stroke="black" points="1894.61,-29.5305 1884.04,-30.3229 1892.8,-36.292 1894.61,-29.5305"/>
</a>
</g>
<!-- http://cds.omdoc.org/urtheories?LF&#45;&gt;http://latin.omdoc.org/translations/fol_ifol?DN&#45;IFOL -->
<g id="edge41" class="edge"><title>http://cds.omdoc.org/urtheories?LF&#45;&gt;http://latin.omdoc.org/translations/fol_ifol?DN&#45;IFOL</title>
<a class="graphmeta">
<path fill="none" stroke="black" d="M1413.59,-267.227C1234.68,-268.567 228.006,-273.669 103.735,-220 48.0515,-195.952 30.092,-179.977 6.73532,-124 0.574107,-109.234 -4.25883,-99.6245 6.73532,-88 47.8079,-44.5726 950.467,-24.5345 1187.27,-20.0136"/>
<polygon fill="black" stroke="black" points="1187.45,-23.5109 1197.38,-19.8223 1187.32,-16.5122 1187.45,-23.5109"/>
</a>
</g>
<!-- http://cds.omdoc.org/urtheories?LF&#45;&gt;http://latin.omdoc.org/foundations/mizar?Mizar -->
<g id="edge39" class="edge"><title>http://cds.omdoc.org/urtheories?LF&#45;&gt;http://latin.omdoc.org/foundations/mizar?Mizar</title>
<a class="graphmeta">
<path fill="none" stroke="black" d="M1467.78,-267.304C1573.08,-268.131 1955.17,-267.717 2064.74,-220 2105.02,-202.456 2111.66,-190.035 2141.74,-158 2164.24,-134.02 2185.19,-114.521 2165.74,-88 2124.93,-32.3645 2039.2,-20.4183 1987.94,-18.5165"/>
<polygon fill="black" stroke="black" points="1987.95,-15.0157 1977.86,-18.2555 1987.77,-22.0134 1987.95,-15.0157"/>
</a>
</g>
<!-- http://cds.omdoc.org/urtheories?LF&#45;&gt;http://latin.omdoc.org/logics/syntax?FOL -->
<g id="edge33" class="edge"><title>http://cds.omdoc.org/urtheories?LF&#45;&gt;http://latin.omdoc.org/logics/syntax?FOL</title>
<a class="graphmeta">
<path fill="none" stroke="black" d="M1467.95,-266.691C1571.58,-265.235 1937.44,-257.461 1971.74,-220 1993.45,-196.284 1979.83,-157.562 1966.81,-132.179"/>
<polygon fill="black" stroke="black" points="1969.76,-130.285 1961.92,-123.163 1963.61,-133.622 1969.76,-130.285"/>
</a>
</g>
<!-- http://cds.omdoc.org/urtheories?LF&#45;&gt;http://latin.omdoc.org/logics/proof_theory?Exists -->
<g id="edge37" class="edge"><title>http://cds.omdoc.org/urtheories?LF&#45;&gt;http://latin.omdoc.org/logics/proof_theory?Exists</title>
<a class="graphmeta">
<path fill="none" stroke="black" d="M1418.07,-258.134C1383.76,-243.317 1319.88,-209.932 1293.74,-158 1288.01,-146.627 1295.16,-135.344 1304.92,-126.293"/>
<polygon fill="black" stroke="black" points="1307.25,-128.911 1312.73,-119.842 1302.79,-123.515 1307.25,-128.911"/>
</a>
</g>
<!-- http://cds.omdoc.org/urtheories?LF&#45;&gt;http://latin.omdoc.org/logics/syntax?UniverseLogic -->
<g id="edge31" class="edge"><title>http://cds.omdoc.org/urtheories?LF&#45;&gt;http://latin.omdoc.org/logics/syntax?UniverseLogic</title>
<a class="graphmeta">
<path fill="none" stroke="black" d="M1466.73,-262.923C1537.21,-251.867 1733.49,-221.077 1835.83,-205.024"/>
<polygon fill="black" stroke="black" points="1836.4,-208.479 1845.73,-203.471 1835.31,-201.563 1836.4,-208.479"/>
</a>
</g>
</g>
</svg>
