<?xml version="1.0" encoding="UTF-8" standalone="no"?>
<!DOCTYPE svg PUBLIC "-//W3C//DTD SVG 1.1//EN"
 "http://www.w3.org/Graphics/SVG/1.1/DTD/svg11.dtd">
<!-- Generated by graphviz version 2.28.0 (20110507.0327)
 -->
<!-- Title: MMT Pages: 1 -->
<svg
 viewBox="0.00 0.00 733.50 368.00" xmlns="http://www.w3.org/2000/svg" xmlns:xlink="http://www.w3.org/1999/xlink">
<g id="graph1" class="graph" transform="scale(1 1) rotate(0) translate(4 364)">
<title>MMT</title>
<polygon fill="white" stroke="white" points="-4,5 -4,-364 730.501,-364 730.501,5 -4,5"/>
<g id="graph2" class="cluster"><title>cluster_local</title>
<polygon fill="none" stroke="black" points="375.597,-168 375.597,-220 507.597,-220 507.597,-168 375.597,-168"/>
</g>
<!-- http://latin.omdoc.org/logics/syntax?ExistsUnique -->
<g id="node2" class="node"><title>http://latin.omdoc.org/logics/syntax?ExistsUnique</title>
<a xlink:href="http://latin.omdoc.org/logics/syntax?ExistsUnique" class="graphtheory">
<ellipse fill="none" stroke="black" cx="441.597" cy="-194" rx="58.2422" ry="18"/>
<text text-anchor="middle" x="441.597" y="-190.3" font-family="Times New Roman,serif" font-size="14.00">ExistsUnique</text>
</a>
</g>
<!-- http://latin.omdoc.org/foundations/mizar?ExistsUniquePFMizarView -->
<g id="node3" class="node"><title>http://latin.omdoc.org/foundations/mizar?ExistsUniquePFMizarView</title>
<a xlink:href="http://latin.omdoc.org/foundations/mizar?ExistsUniquePFMizarView" class="graphtheory">
<ellipse fill="gray" stroke="black" cx="138.597" cy="-106" rx="108.31" ry="18"/>
<text text-anchor="middle" x="138.597" y="-102.3" font-family="Times New Roman,serif" font-size="14.00">ExistsUniquePFMizarView</text>
</a>
</g>
<!-- http://latin.omdoc.org/logics/syntax?ExistsUnique&#45;&gt;http://latin.omdoc.org/foundations/mizar?ExistsUniquePFMizarView -->
<g id="edge3" class="edge"><title>http://latin.omdoc.org/logics/syntax?ExistsUnique&#45;&gt;http://latin.omdoc.org/foundations/mizar?ExistsUniquePFMizarView</title>
<a xlink:href="http://latin.omdoc.org/foundations/mizar?ExistsUniquePFMizarView?[http://latin.omdoc.org/logics/syntax?ExistsUnique]" class="graphstructure">
<path fill="none" stroke="black" d="M384.425,-190.503C300.436,-186.241 151.838,-176.205 135.597,-158 129.888,-151.601 128.919,-142.76 129.925,-134.236"/>
<polygon fill="black" stroke="black" points="133.407,-134.673 131.944,-124.179 126.544,-133.294 133.407,-134.673"/>
</a>
<a xlink:href="http://latin.omdoc.org/foundations/mizar?ExistsUniquePFMizarView?[http://latin.omdoc.org/logics/syntax?ExistsUnique]" class="[http://latin.omdoc.org/logics/syntax?ExistsUnique]">
<text text-anchor="middle" x="278.597" y="-146.3" font-family="Times New Roman,serif" font-size="14.00">[http://latin.omdoc.org/logics/syntax?ExistsUnique]</text>
</a>
</g>
<!-- http://latin.omdoc.org/foundations/mizar?Mizar -->
<g id="node5" class="node"><title>http://latin.omdoc.org/foundations/mizar?Mizar</title>
<a xlink:href="http://latin.omdoc.org/foundations/mizar?Mizar" class="graphtheory">
<ellipse fill="gray" stroke="black" cx="469.597" cy="-18" rx="31.2965" ry="18"/>
<text text-anchor="middle" x="469.597" y="-14.3" font-family="Times New Roman,serif" font-size="14.00">Mizar</text>
</a>
</g>
<!-- http://latin.omdoc.org/logics/syntax?ExistsUnique&#45;&gt;http://latin.omdoc.org/foundations/mizar?Mizar -->
<g id="edge5" class="edge"><title>http://latin.omdoc.org/logics/syntax?ExistsUnique&#45;&gt;http://latin.omdoc.org/foundations/mizar?Mizar</title>
<a xlink:href="http://latin.omdoc.org/foundations/mizar?ExistsUniqueMizarView" class="graphview">
<path fill="none" stroke="black" d="M438.284,-175.665C434.872,-154.65 430.916,-118.284 437.597,-88 440.952,-72.7923 448.007,-56.9523 454.641,-44.2903"/>
<polygon fill="black" stroke="black" points="457.836,-45.7431 459.564,-35.2902 451.695,-42.3839 457.836,-45.7431"/>
</a>
<a xlink:href="http://latin.omdoc.org/foundations/mizar?ExistsUniqueMizarView" class="ExistsUniqueMizarView">
<text text-anchor="middle" x="504.597" y="-102.3" font-family="Times New Roman,serif" font-size="14.00">ExistsUniqueMizarView</text>
</a>
</g>
<!-- http://latin.omdoc.org/logics/proof_theory?ExistsUnique -->
<g id="node7" class="node"><title>http://latin.omdoc.org/logics/proof_theory?ExistsUnique</title>
<a xlink:href="http://latin.omdoc.org/logics/proof_theory?ExistsUnique" class="graphtheory">
<ellipse fill="gray" stroke="black" cx="638.597" cy="-106" rx="58.2422" ry="18"/>
<text text-anchor="middle" x="638.597" y="-102.3" font-family="Times New Roman,serif" font-size="14.00">ExistsUnique</text>
</a>
</g>
<!-- http://latin.omdoc.org/logics/syntax?ExistsUnique&#45;&gt;http://latin.omdoc.org/logics/proof_theory?ExistsUnique -->
<g id="edge7" class="edge"><title>http://latin.omdoc.org/logics/syntax?ExistsUnique&#45;&gt;http://latin.omdoc.org/logics/proof_theory?ExistsUnique</title>
<a class="graphinclude">
<path fill="none" stroke="black" d="M474.127,-178.799C507.735,-164.128 560.303,-141.179 596.933,-125.189"/>
<polygon fill="black" stroke="black" points="598.581,-128.288 606.345,-121.079 595.78,-121.873 598.581,-128.288"/>
</a>
</g>
<!-- http://latin.omdoc.org/logics/proof_theory?ExistsUnique&#45;&gt;http://latin.omdoc.org/foundations/mizar?Mizar -->
<g id="edge21" class="edge"><title>http://latin.omdoc.org/logics/proof_theory?ExistsUnique&#45;&gt;http://latin.omdoc.org/foundations/mizar?Mizar</title>
<a xlink:href="http://latin.omdoc.org/foundations/mizar?ExistsUniquePFMizarView" class="graphview">
<path fill="none" stroke="black" d="M605.202,-91.0718C590.995,-84.924 574.336,-77.4186 559.597,-70 539.158,-59.7129 516.772,-47.0332 499.439,-36.8904"/>
<polygon fill="black" stroke="black" points="500.766,-33.6099 490.373,-31.5478 497.211,-39.6405 500.766,-33.6099"/>
</a>
<a xlink:href="http://latin.omdoc.org/foundations/mizar?ExistsUniquePFMizarView" class="ExistsUniquePFMizarView">
<text text-anchor="middle" x="635.097" y="-58.3" font-family="Times New Roman,serif" font-size="14.00">ExistsUniquePFMizarView</text>
</a>
</g>
<!-- http://latin.omdoc.org/logics/syntax?FOLEQ -->
<g id="node9" class="node"><title>http://latin.omdoc.org/logics/syntax?FOLEQ</title>
<a xlink:href="http://latin.omdoc.org/logics/syntax?FOLEQ" class="graphtheory">
<ellipse fill="gray" stroke="black" cx="441.597" cy="-268" rx="39.9464" ry="18"/>
<text text-anchor="middle" x="441.597" y="-264.3" font-family="Times New Roman,serif" font-size="14.00">FOLEQ</text>
</a>
</g>
<!-- http://latin.omdoc.org/logics/syntax?FOLEQ&#45;&gt;http://latin.omdoc.org/logics/syntax?ExistsUnique -->
<g id="edge9" class="edge"><title>http://latin.omdoc.org/logics/syntax?FOLEQ&#45;&gt;http://latin.omdoc.org/logics/syntax?ExistsUnique</title>
<a class="graphinclude">
<path fill="none" stroke="black" d="M441.597,-249.937C441.597,-241.807 441.597,-231.876 441.597,-222.705"/>
<polygon fill="black" stroke="black" points="445.097,-222.441 441.597,-212.441 438.097,-222.441 445.097,-222.441"/>
</a>
</g>
<!-- http://latin.omdoc.org/logics/syntax?FOLEQ&#45;&gt;http://latin.omdoc.org/foundations/mizar?Mizar -->
<g id="edge19" class="edge"><title>http://latin.omdoc.org/logics/syntax?FOLEQ&#45;&gt;http://latin.omdoc.org/foundations/mizar?Mizar</title>
<a xlink:href="http://latin.omdoc.org/foundations/mizar?FOLEQMizarView" class="graphview">
<path fill="none" stroke="black" d="M401.947,-264.51C277.611,-255.318 -89.9534,-216.837 20.5969,-88 72.9891,-26.9415 327.071,-19.3807 428.074,-18.8273"/>
<polygon fill="black" stroke="black" points="428.218,-22.3269 438.206,-18.7928 428.195,-15.3269 428.218,-22.3269"/>
</a>
<a xlink:href="http://latin.omdoc.org/foundations/mizar?FOLEQMizarView" class="FOLEQMizarView">
<text text-anchor="middle" x="59.5969" y="-146.3" font-family="Times New Roman,serif" font-size="14.00">FOLEQMizarView</text>
</a>
</g>
<!-- http://cds.omdoc.org/urtheories?LF -->
<g id="node11" class="node"><title>http://cds.omdoc.org/urtheories?LF</title>
<a xlink:href="http://cds.omdoc.org/urtheories?LF" class="graphtheory">
<ellipse fill="gray" stroke="black" cx="593.597" cy="-342" rx="27" ry="18"/>
<text text-anchor="middle" x="593.597" y="-338.3" font-family="Times New Roman,serif" font-size="14.00">LF</text>
</a>
</g>
<!-- http://cds.omdoc.org/urtheories?LF&#45;&gt;http://latin.omdoc.org/logics/syntax?ExistsUnique -->
<g id="edge11" class="edge"><title>http://cds.omdoc.org/urtheories?LF&#45;&gt;http://latin.omdoc.org/logics/syntax?ExistsUnique</title>
<a class="graphmeta">
<path fill="none" stroke="black" d="M578.746,-326.735C552.577,-301.599 498.014,-249.19 466.161,-218.595"/>
<polygon fill="black" stroke="black" points="468.221,-215.72 458.584,-211.316 463.371,-220.768 468.221,-215.72"/>
</a>
</g>
<!-- http://cds.omdoc.org/urtheories?LF&#45;&gt;http://latin.omdoc.org/foundations/mizar?Mizar -->
<g id="edge17" class="edge"><title>http://cds.omdoc.org/urtheories?LF&#45;&gt;http://latin.omdoc.org/foundations/mizar?Mizar</title>
<a class="graphmeta">
<path fill="none" stroke="black" d="M620.107,-338.27C658.385,-332.697 724.597,-316.232 724.597,-269 724.597,-269 724.597,-269 724.597,-105 724.597,-81.4948 728.213,-69.5616 710.597,-54 681.692,-28.4659 571.581,-21.5501 510.692,-19.684"/>
<polygon fill="black" stroke="black" points="510.736,-16.184 500.644,-19.4082 510.544,-23.1813 510.736,-16.184"/>
</a>
</g>
<!-- http://cds.omdoc.org/urtheories?LF&#45;&gt;http://latin.omdoc.org/logics/proof_theory?ExistsUnique -->
<g id="edge15" class="edge"><title>http://cds.omdoc.org/urtheories?LF&#45;&gt;http://latin.omdoc.org/logics/proof_theory?ExistsUnique</title>
<a class="graphmeta">
<path fill="none" stroke="black" d="M596.906,-323.793C604.643,-283.562 623.967,-183.077 633.337,-134.351"/>
<polygon fill="black" stroke="black" points="636.832,-134.713 635.283,-124.232 629.958,-133.391 636.832,-134.713"/>
</a>
</g>
<!-- http://cds.omdoc.org/urtheories?LF&#45;&gt;http://latin.omdoc.org/logics/syntax?FOLEQ -->
<g id="edge13" class="edge"><title>http://cds.omdoc.org/urtheories?LF&#45;&gt;http://latin.omdoc.org/logics/syntax?FOLEQ</title>
<a class="graphmeta">
<path fill="none" stroke="black" d="M572.141,-330.837C547.552,-319.189 506.862,-299.915 477.438,-285.978"/>
<polygon fill="black" stroke="black" points="478.852,-282.774 468.316,-281.656 475.855,-289.1 478.852,-282.774"/>
</a>
</g>
</g>
</svg>
