<?xml version="1.0" encoding="UTF-8" standalone="no"?>
<!DOCTYPE svg PUBLIC "-//W3C//DTD SVG 1.1//EN"
 "http://www.w3.org/Graphics/SVG/1.1/DTD/svg11.dtd">
<!-- Generated by graphviz version 2.28.0 (20110507.0327)
 -->
<!-- Title: MMT Pages: 1 -->
<svg width="151pt" height="280pt"
 viewBox="0.00 0.00 150.60 280.00" xmlns="http://www.w3.org/2000/svg" xmlns:xlink="http://www.w3.org/1999/xlink">
<g id="graph1" class="graph" transform="scale(1 1) rotate(0) translate(4 276)">
<title>MMT</title>
<polygon fill="white" stroke="white" points="-4,5 -4,-276 147.603,-276 147.603,5 -4,5"/>
<g id="graph2" class="cluster"><title>cluster_local</title>
<polygon fill="none" stroke="black" points="9.60347,-80 9.60347,-132 79.6035,-132 79.6035,-80 9.60347,-80"/>
</g>
<!-- http://latin.omdoc.org/logics/syntax?F -->
<g id="node2" class="node"><title>http://latin.omdoc.org/logics/syntax?F</title>
<a xlink:href="http://latin.omdoc.org/logics/syntax?F" class="graphtheory">
<ellipse fill="none" stroke="black" cx="44.6035" cy="-106" rx="27" ry="18"/>
<text text-anchor="middle" x="44.6035" y="-102.3" font-family="Times New Roman,serif" font-size="14.00">F</text>
</a>
</g>
<!-- http://latin.omdoc.org/logics/syntax?FOLEQ -->
<g id="node3" class="node"><title>http://latin.omdoc.org/logics/syntax?FOLEQ</title>
<a xlink:href="http://latin.omdoc.org/logics/syntax?FOLEQ" class="graphtheory">
<ellipse fill="gray" stroke="black" cx="44.6035" cy="-18" rx="39.9464" ry="18"/>
<text text-anchor="middle" x="44.6035" y="-14.3" font-family="Times New Roman,serif" font-size="14.00">FOLEQ</text>
</a>
</g>
<!-- http://latin.omdoc.org/logics/syntax?F&#45;&gt;http://latin.omdoc.org/logics/syntax?FOLEQ -->
<g id="edge3" class="edge"><title>http://latin.omdoc.org/logics/syntax?F&#45;&gt;http://latin.omdoc.org/logics/syntax?FOLEQ</title>
<a xlink:href="http://latin.omdoc.org/logics/model_theory?F" class="graphview">
<path fill="none" stroke="black" d="M44.6035,-87.5966C44.6035,-75.7459 44.6035,-59.8169 44.6035,-46.2917"/>
<polygon fill="black" stroke="black" points="48.1036,-46.084 44.6035,-36.084 41.1036,-46.084 48.1036,-46.084"/>
</a>
<a xlink:href="http://latin.omdoc.org/logics/model_theory?F" class="F">
<text text-anchor="middle" x="49.1035" y="-58.3" font-family="Times New Roman,serif" font-size="14.00">F</text>
</a>
</g>
<!-- http://latin.omdoc.org/logics/syntax?DLBase -->
<g id="node5" class="node"><title>http://latin.omdoc.org/logics/syntax?DLBase</title>
<a xlink:href="http://latin.omdoc.org/logics/syntax?DLBase" class="graphtheory">
<ellipse fill="gray" stroke="black" cx="101.603" cy="-180" rx="39.9464" ry="18"/>
<text text-anchor="middle" x="101.603" y="-176.3" font-family="Times New Roman,serif" font-size="14.00">DLBase</text>
</a>
</g>
<!-- http://latin.omdoc.org/logics/syntax?DLBase&#45;&gt;http://latin.omdoc.org/logics/syntax?F -->
<g id="edge5" class="edge"><title>http://latin.omdoc.org/logics/syntax?DLBase&#45;&gt;http://latin.omdoc.org/logics/syntax?F</title>
<a class="graphinclude">
<path fill="none" stroke="black" d="M88.6693,-162.662C81.1013,-153.102 71.4208,-140.875 63.0618,-130.316"/>
<polygon fill="black" stroke="black" points="65.6582,-127.957 56.707,-122.289 60.1699,-132.302 65.6582,-127.957"/>
</a>
</g>
<!-- http://latin.omdoc.org/logics/syntax?DLBase&#45;&gt;http://latin.omdoc.org/logics/syntax?FOLEQ -->
<g id="edge13" class="edge"><title>http://latin.omdoc.org/logics/syntax?DLBase&#45;&gt;http://latin.omdoc.org/logics/syntax?FOLEQ</title>
<a xlink:href="http://latin.omdoc.org/logics/model_theory?DLBase" class="graphview">
<path fill="none" stroke="black" d="M100.52,-161.991C98.7857,-141.822 94.3991,-107.478 83.6035,-80 78.5762,-67.204 70.7257,-54.2072 63.382,-43.5169"/>
<polygon fill="black" stroke="black" points="66.0608,-41.2452 57.4056,-35.1346 60.3612,-45.3089 66.0608,-41.2452"/>
</a>
<a xlink:href="http://latin.omdoc.org/logics/model_theory?DLBase" class="DLBase">
<text text-anchor="middle" x="119.603" y="-102.3" font-family="Times New Roman,serif" font-size="14.00">DLBase</text>
</a>
</g>
<!-- http://cds.omdoc.org/urtheories?LF -->
<g id="node7" class="node"><title>http://cds.omdoc.org/urtheories?LF</title>
<a xlink:href="http://cds.omdoc.org/urtheories?LF" class="graphtheory">
<ellipse fill="gray" stroke="black" cx="33.6035" cy="-254" rx="27" ry="18"/>
<text text-anchor="middle" x="33.6035" y="-250.3" font-family="Times New Roman,serif" font-size="14.00">LF</text>
</a>
</g>
<!-- http://cds.omdoc.org/urtheories?LF&#45;&gt;http://latin.omdoc.org/logics/syntax?F -->
<g id="edge7" class="edge"><title>http://cds.omdoc.org/urtheories?LF&#45;&gt;http://latin.omdoc.org/logics/syntax?F</title>
<a class="graphmeta">
<path fill="none" stroke="black" d="M34.8868,-235.966C36.7645,-211.045 40.2808,-164.374 42.5287,-134.537"/>
<polygon fill="black" stroke="black" points="46.0329,-134.613 43.2942,-124.378 39.0527,-134.087 46.0329,-134.613"/>
</a>
</g>
<!-- http://cds.omdoc.org/urtheories?LF&#45;&gt;http://latin.omdoc.org/logics/syntax?FOLEQ -->
<g id="edge11" class="edge"><title>http://cds.omdoc.org/urtheories?LF&#45;&gt;http://latin.omdoc.org/logics/syntax?FOLEQ</title>
<a class="graphmeta">
<path fill="none" stroke="black" d="M26.155,-236.482C13.1574,-205.348 -10.7886,-136.07 5.60347,-80 9.43371,-66.8985 17.0321,-53.9357 24.5126,-43.3515"/>
<polygon fill="black" stroke="black" points="27.5152,-45.1796 30.6831,-35.0694 21.9019,-40.9974 27.5152,-45.1796"/>
</a>
</g>
<!-- http://cds.omdoc.org/urtheories?LF&#45;&gt;http://latin.omdoc.org/logics/syntax?DLBase -->
<g id="edge9" class="edge"><title>http://cds.omdoc.org/urtheories?LF&#45;&gt;http://latin.omdoc.org/logics/syntax?DLBase</title>
<a class="graphmeta">
<path fill="none" stroke="black" d="M47.3643,-238.43C56.6346,-228.614 69.0611,-215.457 79.6808,-204.212"/>
<polygon fill="black" stroke="black" points="82.3615,-206.471 86.6832,-196.798 77.2724,-201.665 82.3615,-206.471"/>
</a>
</g>
</g>
</svg>
