<?xml version="1.0" encoding="UTF-8" standalone="no"?>
<!DOCTYPE svg PUBLIC "-//W3C//DTD SVG 1.1//EN"
 "http://www.w3.org/Graphics/SVG/1.1/DTD/svg11.dtd">
<!-- Generated by graphviz version 2.28.0 (20110507.0327)
 -->
<!-- Title: MMT Pages: 1 -->
<svg width="3281pt" height="294pt"
 viewBox="0.00 0.00 3280.84 294.00" xmlns="http://www.w3.org/2000/svg" xmlns:xlink="http://www.w3.org/1999/xlink">
<g id="graph1" class="graph" transform="scale(1 1) rotate(0) translate(4 290)">
<title>MMT</title>
<polygon fill="white" stroke="white" points="-4,5 -4,-290 3277.84,-290 3277.84,5 -4,5"/>
<g id="graph2" class="cluster"><title>cluster_local</title>
<polygon fill="none" stroke="black" points="1995,-168 1995,-220 2079,-220 2079,-168 1995,-168"/>
</g>
<!-- http://latin.omdoc.org/logics/syntax?Falsity -->
<g id="node2" class="node"><title>http://latin.omdoc.org/logics/syntax?Falsity</title>
<a xlink:href="http://latin.omdoc.org/logics/syntax?Falsity" class="graphtheory">
<ellipse fill="none" stroke="black" cx="2037" cy="-194" rx="34.1708" ry="18"/>
<text text-anchor="middle" x="2037" y="-190.3" font-family="Times New Roman,serif" font-size="14.00">Falsity</text>
</a>
</g>
<!-- http://latin.omdoc.org/logics/soundness?Falsity -->
<g id="node3" class="node"><title>http://latin.omdoc.org/logics/soundness?Falsity</title>
<a xlink:href="http://latin.omdoc.org/logics/soundness?Falsity" class="graphtheory">
<ellipse fill="gray" stroke="black" cx="2213" cy="-106" rx="34.1708" ry="18"/>
<text text-anchor="middle" x="2213" y="-102.3" font-family="Times New Roman,serif" font-size="14.00">Falsity</text>
</a>
</g>
<!-- http://latin.omdoc.org/logics/syntax?Falsity&#45;&gt;http://latin.omdoc.org/logics/soundness?Falsity -->
<g id="edge3" class="edge"><title>http://latin.omdoc.org/logics/syntax?Falsity&#45;&gt;http://latin.omdoc.org/logics/soundness?Falsity</title>
<a xlink:href="http://latin.omdoc.org/logics/soundness?Falsity?[http://latin.omdoc.org/logics/syntax?Falsity]" class="graphstructure">
<path fill="none" stroke="black" d="M2047.51,-176.686C2055.77,-165.205 2068.32,-150.437 2083,-142 2116.86,-122.542 2131.55,-135.073 2169,-124 2171.63,-123.221 2174.33,-122.355 2177.03,-121.437"/>
<polygon fill="black" stroke="black" points="2178.49,-124.632 2186.72,-117.954 2176.12,-118.046 2178.49,-124.632"/>
</a>
<a xlink:href="http://latin.omdoc.org/logics/soundness?Falsity?[http://latin.omdoc.org/logics/syntax?Falsity]" class="[http://latin.omdoc.org/logics/syntax?Falsity]">
<text text-anchor="middle" x="2208" y="-146.3" font-family="Times New Roman,serif" font-size="14.00">[http://latin.omdoc.org/logics/syntax?Falsity]</text>
</a>
</g>
<!-- http://latin.omdoc.org/logics/model_theory/kripke?PL -->
<g id="node5" class="node"><title>http://latin.omdoc.org/logics/model_theory/kripke?PL</title>
<a xlink:href="http://latin.omdoc.org/logics/model_theory/kripke?PL" class="graphtheory">
<ellipse fill="gray" stroke="black" cx="781" cy="-106" rx="27" ry="18"/>
<text text-anchor="middle" x="781" y="-102.3" font-family="Times New Roman,serif" font-size="14.00">PL</text>
</a>
</g>
<!-- http://latin.omdoc.org/logics/syntax?Falsity&#45;&gt;http://latin.omdoc.org/logics/model_theory/kripke?PL -->
<g id="edge5" class="edge"><title>http://latin.omdoc.org/logics/syntax?Falsity&#45;&gt;http://latin.omdoc.org/logics/model_theory/kripke?PL</title>
<a xlink:href="http://latin.omdoc.org/logics/model_theory/kripke?PL?[http://latin.omdoc.org/logics/syntax?Falsity]" class="graphstructure">
<path fill="none" stroke="black" d="M2019.52,-178.497C2013.41,-174.275 2006.25,-170.208 1999,-168 1940.38,-150.155 954.388,-176.603 896,-158 884.135,-154.22 884.012,-147.813 873,-142 854.555,-132.264 832.787,-123.856 815.056,-117.723"/>
<polygon fill="black" stroke="black" points="815.733,-114.258 805.139,-114.382 813.498,-120.892 815.733,-114.258"/>
</a>
<a xlink:href="http://latin.omdoc.org/logics/model_theory/kripke?PL?[http://latin.omdoc.org/logics/syntax?Falsity]" class="[http://latin.omdoc.org/logics/syntax?Falsity]">
<text text-anchor="middle" x="1021" y="-146.3" font-family="Times New Roman,serif" font-size="14.00">[http://latin.omdoc.org/logics/syntax?Falsity]</text>
</a>
</g>
<!-- http://latin.omdoc.org/logics/model_theory/kripke?Kripke -->
<g id="node7" class="node"><title>http://latin.omdoc.org/logics/model_theory/kripke?Kripke</title>
<a xlink:href="http://latin.omdoc.org/logics/model_theory/kripke?Kripke" class="graphtheory">
<ellipse fill="gray" stroke="black" cx="215" cy="-18" rx="35.1455" ry="18"/>
<text text-anchor="middle" x="215" y="-14.3" font-family="Times New Roman,serif" font-size="14.00">Kripke</text>
</a>
</g>
<!-- http://latin.omdoc.org/logics/syntax?Falsity&#45;&gt;http://latin.omdoc.org/logics/model_theory/kripke?Kripke -->
<g id="edge7" class="edge"><title>http://latin.omdoc.org/logics/syntax?Falsity&#45;&gt;http://latin.omdoc.org/logics/model_theory/kripke?Kripke</title>
<a xlink:href="http://latin.omdoc.org/logics/model_theory/kripke?Falsity" class="graphview">
<path fill="none" stroke="black" d="M2017.09,-179.095C1996.41,-164.774 1966.23,-144.233 1960,-142 1887.23,-115.904 1862.99,-138.217 1787,-124 1727.23,-112.817 1715.21,-96.4856 1655,-88 1510.96,-67.7022 486.325,-108.3 346,-70 332.173,-66.2261 331.068,-59.8883 318,-54 297.619,-44.8161 274.065,-36.6424 254.629,-30.5081"/>
<polygon fill="black" stroke="black" points="255.468,-27.1038 244.88,-27.4916 253.398,-33.791 255.468,-27.1038"/>
</a>
<a xlink:href="http://latin.omdoc.org/logics/model_theory/kripke?Falsity" class="Falsity">
<text text-anchor="middle" x="1805.5" y="-102.3" font-family="Times New Roman,serif" font-size="14.00">Falsity</text>
</a>
</g>
<!-- http://latin.omdoc.org/foundations/mizar?PLMizarView -->
<g id="node9" class="node"><title>http://latin.omdoc.org/foundations/mizar?PLMizarView</title>
<a xlink:href="http://latin.omdoc.org/foundations/mizar?PLMizarView" class="graphtheory">
<ellipse fill="gray" stroke="black" cx="2355" cy="-106" rx="60.1672" ry="18"/>
<text text-anchor="middle" x="2355" y="-102.3" font-family="Times New Roman,serif" font-size="14.00">PLMizarView</text>
</a>
</g>
<!-- http://latin.omdoc.org/logics/syntax?Falsity&#45;&gt;http://latin.omdoc.org/foundations/mizar?PLMizarView -->
<g id="edge9" class="edge"><title>http://latin.omdoc.org/logics/syntax?Falsity&#45;&gt;http://latin.omdoc.org/foundations/mizar?PLMizarView</title>
<a xlink:href="http://latin.omdoc.org/foundations/mizar?PLMizarView?[http://latin.omdoc.org/logics/syntax?Falsity]" class="graphstructure">
<path fill="none" stroke="black" d="M2071.19,-193.13C2140.04,-192.735 2292.29,-188.349 2333,-158 2340.75,-152.221 2345.81,-143.146 2349.09,-134.242"/>
<polygon fill="black" stroke="black" points="2352.5,-135.035 2352.09,-124.448 2345.81,-132.985 2352.5,-135.035"/>
</a>
<a xlink:href="http://latin.omdoc.org/foundations/mizar?PLMizarView?[http://latin.omdoc.org/logics/syntax?Falsity]" class="[http://latin.omdoc.org/logics/syntax?Falsity]">
<text text-anchor="middle" x="2471" y="-146.3" font-family="Times New Roman,serif" font-size="14.00">[http://latin.omdoc.org/logics/syntax?Falsity]</text>
</a>
</g>
<!-- http://latin.omdoc.org/foundations/hol?SFOL&#45;Syn -->
<g id="node11" class="node"><title>http://latin.omdoc.org/foundations/hol?SFOL&#45;Syn</title>
<a xlink:href="http://latin.omdoc.org/foundations/hol?SFOL-Syn" class="graphtheory">
<ellipse fill="gray" stroke="black" cx="50" cy="-18" rx="50.5427" ry="18"/>
<text text-anchor="middle" x="50" y="-14.3" font-family="Times New Roman,serif" font-size="14.00">SFOL&#45;Syn</text>
</a>
</g>
<!-- http://latin.omdoc.org/logics/syntax?Falsity&#45;&gt;http://latin.omdoc.org/foundations/hol?SFOL&#45;Syn -->
<g id="edge11" class="edge"><title>http://latin.omdoc.org/logics/syntax?Falsity&#45;&gt;http://latin.omdoc.org/foundations/hol?SFOL&#45;Syn</title>
<a xlink:href="http://latin.omdoc.org/translations/prop_hol?Falsity" class="graphview">
<path fill="none" stroke="black" d="M2071.43,-193.238C2253.99,-194.332 3101.94,-197.282 3140,-158 3144.95,-152.893 3144.53,-147.481 3140,-142 3112.9,-109.215 3085.22,-140.462 3046,-124 3020.08,-113.122 3020.8,-96.4688 2994,-88 2921.03,-64.9429 314.609,-81.8348 239,-70 215.53,-66.3263 210.856,-60.4781 188,-54 159.112,-45.812 126.565,-37.5136 100.338,-31.0534"/>
<polygon fill="black" stroke="black" points="101.161,-27.6517 90.6158,-28.6715 99.4956,-34.4507 101.161,-27.6517"/>
</a>
<a xlink:href="http://latin.omdoc.org/translations/prop_hol?Falsity" class="Falsity">
<text text-anchor="middle" x="3064.5" y="-102.3" font-family="Times New Roman,serif" font-size="14.00">Falsity</text>
</a>
</g>
<!-- http://latin.omdoc.org/foundations/minimal?Bool -->
<g id="node13" class="node"><title>http://latin.omdoc.org/foundations/minimal?Bool</title>
<a xlink:href="http://latin.omdoc.org/foundations/minimal?Bool" class="graphtheory">
<ellipse fill="gray" stroke="black" cx="517" cy="-18" rx="28.3955" ry="18"/>
<text text-anchor="middle" x="517" y="-14.3" font-family="Times New Roman,serif" font-size="14.00">Bool</text>
</a>
</g>
<!-- http://latin.omdoc.org/logics/syntax?Falsity&#45;&gt;http://latin.omdoc.org/foundations/minimal?Bool -->
<g id="edge13" class="edge"><title>http://latin.omdoc.org/logics/syntax?Falsity&#45;&gt;http://latin.omdoc.org/foundations/minimal?Bool</title>
<a xlink:href="http://latin.omdoc.org/logics/model_theory?Falsity" class="graphview">
<path fill="none" stroke="black" d="M2024.59,-176.841C2014.99,-165.437 2000.71,-150.697 1985,-142 1955.01,-125.397 1942.49,-134.933 1910,-124 1872.28,-111.305 1866.73,-97.1954 1828,-88 1576.9,-28.3752 744.089,-20.2448 555.288,-19.1624"/>
<polygon fill="black" stroke="black" points="555.298,-15.6625 545.279,-19.1083 555.26,-22.6624 555.298,-15.6625"/>
</a>
<a xlink:href="http://latin.omdoc.org/logics/model_theory?Falsity" class="Falsity">
<text text-anchor="middle" x="1928.5" y="-102.3" font-family="Times New Roman,serif" font-size="14.00">Falsity</text>
</a>
</g>
<!-- http://latin.omdoc.org/translations/prop_iprop?DN&#45;IPL -->
<g id="node15" class="node"><title>http://latin.omdoc.org/translations/prop_iprop?DN&#45;IPL</title>
<a xlink:href="http://latin.omdoc.org/translations/prop_iprop?DN-IPL" class="graphtheory">
<ellipse fill="gray" stroke="black" cx="3166" cy="-18" rx="39.9464" ry="18"/>
<text text-anchor="middle" x="3166" y="-14.3" font-family="Times New Roman,serif" font-size="14.00">DN&#45;IPL</text>
</a>
</g>
<!-- http://latin.omdoc.org/logics/syntax?Falsity&#45;&gt;http://latin.omdoc.org/translations/prop_iprop?DN&#45;IPL -->
<g id="edge15" class="edge"><title>http://latin.omdoc.org/logics/syntax?Falsity&#45;&gt;http://latin.omdoc.org/translations/prop_iprop?DN&#45;IPL</title>
<a xlink:href="http://latin.omdoc.org/translations/prop_iprop?Falsity" class="graphview">
<path fill="none" stroke="black" d="M2071.29,-192.614C2260.98,-190.399 3173.94,-178.677 3194,-158 3223.36,-127.738 3200.9,-75.7473 3182.82,-44.6505"/>
<polygon fill="black" stroke="black" points="3185.58,-42.4589 3177.41,-35.7177 3179.59,-46.0846 3185.58,-42.4589"/>
</a>
<a xlink:href="http://latin.omdoc.org/translations/prop_iprop?Falsity" class="Falsity">
<text text-anchor="middle" x="3227.5" y="-102.3" font-family="Times New Roman,serif" font-size="14.00">Falsity</text>
</a>
</g>
<!-- http://latin.omdoc.org/translations/prop_hol?Prop -->
<g id="node17" class="node"><title>http://latin.omdoc.org/translations/prop_hol?Prop</title>
<a xlink:href="http://latin.omdoc.org/translations/prop_hol?Prop" class="graphtheory">
<ellipse fill="gray" stroke="black" cx="2628" cy="-106" rx="28.3955" ry="18"/>
<text text-anchor="middle" x="2628" y="-102.3" font-family="Times New Roman,serif" font-size="14.00">Prop</text>
</a>
</g>
<!-- http://latin.omdoc.org/logics/syntax?Falsity&#45;&gt;http://latin.omdoc.org/translations/prop_hol?Prop -->
<g id="edge17" class="edge"><title>http://latin.omdoc.org/logics/syntax?Falsity&#45;&gt;http://latin.omdoc.org/translations/prop_hol?Prop</title>
<a xlink:href="http://latin.omdoc.org/translations/prop_hol?Prop?[http://latin.omdoc.org/logics/syntax?Falsity]" class="graphstructure">
<path fill="none" stroke="black" d="M2071.47,-192.772C2186.95,-191.745 2555.45,-186.267 2600,-158 2608.86,-152.377 2615.14,-142.917 2619.48,-133.661"/>
<polygon fill="black" stroke="black" points="2622.78,-134.839 2623.32,-124.258 2616.3,-132.192 2622.78,-134.839"/>
</a>
<a xlink:href="http://latin.omdoc.org/translations/prop_hol?Prop?[http://latin.omdoc.org/logics/syntax?Falsity]" class="[http://latin.omdoc.org/logics/syntax?Falsity]">
<text text-anchor="middle" x="2740" y="-146.3" font-family="Times New Roman,serif" font-size="14.00">[http://latin.omdoc.org/logics/syntax?Falsity]</text>
</a>
</g>
<!-- http://latin.omdoc.org/logics/soundness/kripke?Falsity -->
<g id="node19" class="node"><title>http://latin.omdoc.org/logics/soundness/kripke?Falsity</title>
<a xlink:href="http://latin.omdoc.org/logics/soundness/kripke?Falsity" class="graphtheory">
<ellipse fill="gray" stroke="black" cx="1612" cy="-106" rx="34.1708" ry="18"/>
<text text-anchor="middle" x="1612" y="-102.3" font-family="Times New Roman,serif" font-size="14.00">Falsity</text>
</a>
</g>
<!-- http://latin.omdoc.org/logics/syntax?Falsity&#45;&gt;http://latin.omdoc.org/logics/soundness/kripke?Falsity -->
<g id="edge19" class="edge"><title>http://latin.omdoc.org/logics/syntax?Falsity&#45;&gt;http://latin.omdoc.org/logics/soundness/kripke?Falsity</title>
<a xlink:href="http://latin.omdoc.org/logics/soundness/kripke?Falsity?[http://latin.omdoc.org/logics/syntax?Falsity]" class="graphstructure">
<path fill="none" stroke="black" d="M2019.11,-178.342C2013.08,-174.221 2006.07,-170.252 1999,-168 1937.77,-148.504 1770.97,-178.287 1710,-158 1698.18,-154.069 1697.79,-148.211 1687,-142 1674.4,-134.747 1660.04,-127.758 1647.28,-121.959"/>
<polygon fill="black" stroke="black" points="1648.45,-118.649 1637.89,-117.771 1645.6,-125.041 1648.45,-118.649"/>
</a>
<a xlink:href="http://latin.omdoc.org/logics/soundness/kripke?Falsity?[http://latin.omdoc.org/logics/syntax?Falsity]" class="[http://latin.omdoc.org/logics/syntax?Falsity]">
<text text-anchor="middle" x="1835" y="-146.3" font-family="Times New Roman,serif" font-size="14.00">[http://latin.omdoc.org/logics/syntax?Falsity]</text>
</a>
</g>
<!-- http://latin.omdoc.org/logics/model_theory?PL -->
<g id="node21" class="node"><title>http://latin.omdoc.org/logics/model_theory?PL</title>
<a xlink:href="http://latin.omdoc.org/logics/model_theory?PL" class="graphtheory">
<ellipse fill="gray" stroke="black" cx="1202" cy="-106" rx="27" ry="18"/>
<text text-anchor="middle" x="1202" y="-102.3" font-family="Times New Roman,serif" font-size="14.00">PL</text>
</a>
</g>
<!-- http://latin.omdoc.org/logics/syntax?Falsity&#45;&gt;http://latin.omdoc.org/logics/model_theory?PL -->
<g id="edge21" class="edge"><title>http://latin.omdoc.org/logics/syntax?Falsity&#45;&gt;http://latin.omdoc.org/logics/model_theory?PL</title>
<a xlink:href="http://latin.omdoc.org/logics/model_theory?PL?[http://latin.omdoc.org/logics/syntax?Falsity]" class="graphstructure">
<path fill="none" stroke="black" d="M2019.13,-178.27C2013.1,-174.145 2006.09,-170.192 1999,-168 1938.91,-149.425 1491.89,-180.086 1433,-158 1422.66,-154.124 1424.03,-146.62 1414,-142 1356.88,-115.681 1283.04,-108.848 1239.29,-107.25"/>
<polygon fill="black" stroke="black" points="1239.2,-103.746 1229.1,-106.953 1238.99,-110.743 1239.2,-103.746"/>
</a>
<a xlink:href="http://latin.omdoc.org/logics/model_theory?PL?[http://latin.omdoc.org/logics/syntax?Falsity]" class="[http://latin.omdoc.org/logics/syntax?Falsity]">
<text text-anchor="middle" x="1558" y="-146.3" font-family="Times New Roman,serif" font-size="14.00">[http://latin.omdoc.org/logics/syntax?Falsity]</text>
</a>
</g>
<!-- http://latin.omdoc.org/foundations/mizar?FalsityPFMizarView -->
<g id="node23" class="node"><title>http://latin.omdoc.org/foundations/mizar?FalsityPFMizarView</title>
<a xlink:href="http://latin.omdoc.org/foundations/mizar?FalsityPFMizarView" class="graphtheory">
<ellipse fill="gray" stroke="black" cx="2901" cy="-106" rx="84.2388" ry="18"/>
<text text-anchor="middle" x="2901" y="-102.3" font-family="Times New Roman,serif" font-size="14.00">FalsityPFMizarView</text>
</a>
</g>
<!-- http://latin.omdoc.org/logics/syntax?Falsity&#45;&gt;http://latin.omdoc.org/foundations/mizar?FalsityPFMizarView -->
<g id="edge23" class="edge"><title>http://latin.omdoc.org/logics/syntax?Falsity&#45;&gt;http://latin.omdoc.org/foundations/mizar?FalsityPFMizarView</title>
<a xlink:href="http://latin.omdoc.org/foundations/mizar?FalsityPFMizarView?[http://latin.omdoc.org/logics/syntax?Falsity]" class="graphstructure">
<path fill="none" stroke="black" d="M2071.11,-192.449C2223.25,-189.88 2834,-178.333 2869,-158 2878.49,-152.487 2885.58,-142.917 2890.64,-133.545"/>
<polygon fill="black" stroke="black" points="2893.86,-134.926 2895.04,-124.397 2887.55,-131.893 2893.86,-134.926"/>
</a>
<a xlink:href="http://latin.omdoc.org/foundations/mizar?FalsityPFMizarView?[http://latin.omdoc.org/logics/syntax?Falsity]" class="[http://latin.omdoc.org/logics/syntax?Falsity]">
<text text-anchor="middle" x="3011" y="-146.3" font-family="Times New Roman,serif" font-size="14.00">[http://latin.omdoc.org/logics/syntax?Falsity]</text>
</a>
</g>
<!-- http://latin.omdoc.org/foundations/mizar?Mizar -->
<g id="node25" class="node"><title>http://latin.omdoc.org/foundations/mizar?Mizar</title>
<a xlink:href="http://latin.omdoc.org/foundations/mizar?Mizar" class="graphtheory">
<ellipse fill="gray" stroke="black" cx="1955" cy="-18" rx="31.2965" ry="18"/>
<text text-anchor="middle" x="1955" y="-14.3" font-family="Times New Roman,serif" font-size="14.00">Mizar</text>
</a>
</g>
<!-- http://latin.omdoc.org/logics/syntax?Falsity&#45;&gt;http://latin.omdoc.org/foundations/mizar?Mizar -->
<g id="edge25" class="edge"><title>http://latin.omdoc.org/logics/syntax?Falsity&#45;&gt;http://latin.omdoc.org/foundations/mizar?Mizar</title>
<a xlink:href="http://latin.omdoc.org/foundations/mizar?FalsityMizarView" class="graphview">
<path fill="none" stroke="black" d="M2031.47,-175.866C2027.15,-164.897 2020.17,-151.07 2010,-142 1993.62,-127.385 1977.14,-141.587 1964,-124 1947.46,-101.857 1947.3,-69.2816 1949.96,-46.2983"/>
<polygon fill="black" stroke="black" points="1953.46,-46.569 1951.38,-36.1799 1946.52,-45.5972 1953.46,-46.569"/>
</a>
<a xlink:href="http://latin.omdoc.org/foundations/mizar?FalsityMizarView" class="FalsityMizarView">
<text text-anchor="middle" x="2012.5" y="-102.3" font-family="Times New Roman,serif" font-size="14.00">FalsityMizarView</text>
</a>
</g>
<!-- http://latin.omdoc.org/logics/syntax?PL -->
<g id="node27" class="node"><title>http://latin.omdoc.org/logics/syntax?PL</title>
<a xlink:href="http://latin.omdoc.org/logics/syntax?PL" class="graphtheory">
<ellipse fill="gray" stroke="black" cx="282" cy="-106" rx="27" ry="18"/>
<text text-anchor="middle" x="282" y="-102.3" font-family="Times New Roman,serif" font-size="14.00">PL</text>
</a>
</g>
<!-- http://latin.omdoc.org/logics/syntax?Falsity&#45;&gt;http://latin.omdoc.org/logics/syntax?PL -->
<g id="edge27" class="edge"><title>http://latin.omdoc.org/logics/syntax?Falsity&#45;&gt;http://latin.omdoc.org/logics/syntax?PL</title>
<a class="graphinclude">
<path fill="none" stroke="black" d="M2019.53,-178.484C2013.41,-174.261 2006.26,-170.197 1999,-168 1954.76,-154.607 377.821,-175.406 335,-158 321.048,-152.329 308.703,-141.059 299.445,-130.552"/>
<polygon fill="black" stroke="black" points="302.07,-128.235 292.992,-122.772 296.682,-132.704 302.07,-128.235"/>
</a>
</g>
<!-- http://latin.omdoc.org/translations/prop_hol?FalsityPF -->
<g id="node29" class="node"><title>http://latin.omdoc.org/translations/prop_hol?FalsityPF</title>
<a xlink:href="http://latin.omdoc.org/translations/prop_hol?FalsityPF" class="graphtheory">
<ellipse fill="gray" stroke="black" cx="2115" cy="-106" rx="45.244" ry="18"/>
<text text-anchor="middle" x="2115" y="-102.3" font-family="Times New Roman,serif" font-size="14.00">FalsityPF</text>
</a>
</g>
<!-- http://latin.omdoc.org/logics/syntax?Falsity&#45;&gt;http://latin.omdoc.org/translations/prop_hol?FalsityPF -->
<g id="edge29" class="edge"><title>http://latin.omdoc.org/logics/syntax?Falsity&#45;&gt;http://latin.omdoc.org/translations/prop_hol?FalsityPF</title>
<a class="graphinclude">
<path fill="none" stroke="black" d="M2043.07,-176.084C2047.46,-165.475 2054.17,-151.969 2063,-142 2068.01,-136.344 2074.13,-131.181 2080.38,-126.66"/>
<polygon fill="black" stroke="black" points="2082.58,-129.401 2088.91,-120.907 2078.66,-123.599 2082.58,-129.401"/>
</a>
</g>
<!-- http://latin.omdoc.org/logics/proof_theory?Falsity -->
<g id="node31" class="node"><title>http://latin.omdoc.org/logics/proof_theory?Falsity</title>
<a xlink:href="http://latin.omdoc.org/logics/proof_theory?Falsity" class="graphtheory">
<ellipse fill="gray" stroke="black" cx="3126" cy="-106" rx="34.1708" ry="18"/>
<text text-anchor="middle" x="3126" y="-102.3" font-family="Times New Roman,serif" font-size="14.00">Falsity</text>
</a>
</g>
<!-- http://latin.omdoc.org/logics/syntax?Falsity&#45;&gt;http://latin.omdoc.org/logics/proof_theory?Falsity -->
<g id="edge31" class="edge"><title>http://latin.omdoc.org/logics/syntax?Falsity&#45;&gt;http://latin.omdoc.org/logics/proof_theory?Falsity</title>
<a class="graphinclude">
<path fill="none" stroke="black" d="M2071.4,-192.597C2259.65,-190.311 3157.26,-178.356 3177,-158 3188.18,-146.472 3175.36,-133.694 3159.78,-123.813"/>
<polygon fill="black" stroke="black" points="3161.37,-120.689 3150.97,-118.647 3157.83,-126.726 3161.37,-120.689"/>
</a>
</g>
<!-- http://latin.omdoc.org/logics/syntax?PL&#45;&gt;http://latin.omdoc.org/logics/model_theory/kripke?Kripke -->
<g id="edge87" class="edge"><title>http://latin.omdoc.org/logics/syntax?PL&#45;&gt;http://latin.omdoc.org/logics/model_theory/kripke?Kripke</title>
<a xlink:href="http://latin.omdoc.org/logics/model_theory/kripke?PL" class="graphview">
<path fill="none" stroke="black" d="M270.022,-89.6249C260.016,-76.7818 245.568,-58.2369 233.988,-43.373"/>
<polygon fill="black" stroke="black" points="236.464,-40.8552 227.557,-35.1176 230.942,-45.1572 236.464,-40.8552"/>
</a>
<a xlink:href="http://latin.omdoc.org/logics/model_theory/kripke?PL" class="PL">
<text text-anchor="middle" x="263.5" y="-58.3" font-family="Times New Roman,serif" font-size="14.00">PL</text>
</a>
</g>
<!-- http://latin.omdoc.org/logics/syntax?PL&#45;&gt;http://latin.omdoc.org/foundations/hol?SFOL&#45;Syn -->
<g id="edge83" class="edge"><title>http://latin.omdoc.org/logics/syntax?PL&#45;&gt;http://latin.omdoc.org/foundations/hol?SFOL&#45;Syn</title>
<a xlink:href="http://latin.omdoc.org/translations/prop_hol?Prop" class="graphview">
<path fill="none" stroke="black" d="M256.867,-99.0032C231.941,-92.7739 192.829,-82.2358 160,-70 135.027,-60.6924 107.85,-48.1168 86.7573,-37.7823"/>
<polygon fill="black" stroke="black" points="88.0388,-34.5114 77.524,-33.2115 84.9332,-40.7848 88.0388,-34.5114"/>
</a>
<a xlink:href="http://latin.omdoc.org/translations/prop_hol?Prop" class="Prop">
<text text-anchor="middle" x="174" y="-58.3" font-family="Times New Roman,serif" font-size="14.00">Prop</text>
</a>
</g>
<!-- http://latin.omdoc.org/logics/syntax?PL&#45;&gt;http://latin.omdoc.org/foundations/minimal?Bool -->
<g id="edge81" class="edge"><title>http://latin.omdoc.org/logics/syntax?PL&#45;&gt;http://latin.omdoc.org/foundations/minimal?Bool</title>
<a xlink:href="http://latin.omdoc.org/logics/model_theory?PL" class="graphview">
<path fill="none" stroke="black" d="M291.506,-89.0617C299.292,-77.4591 311.387,-62.3685 326,-54 373.634,-26.721 437.942,-19.9839 478.443,-18.6934"/>
<polygon fill="black" stroke="black" points="478.533,-22.1924 488.452,-18.4703 478.377,-15.1941 478.533,-22.1924"/>
</a>
<a xlink:href="http://latin.omdoc.org/logics/model_theory?PL" class="PL">
<text text-anchor="middle" x="334.5" y="-58.3" font-family="Times New Roman,serif" font-size="14.00">PL</text>
</a>
</g>
<!-- http://latin.omdoc.org/logics/syntax?PL&#45;&gt;http://latin.omdoc.org/foundations/mizar?Mizar -->
<g id="edge85" class="edge"><title>http://latin.omdoc.org/logics/syntax?PL&#45;&gt;http://latin.omdoc.org/foundations/mizar?Mizar</title>
<a xlink:href="http://latin.omdoc.org/foundations/mizar?PLMizarView" class="graphview">
<path fill="none" stroke="black" d="M305.9,-97.4391C315.799,-94.3872 327.419,-90.9073 338,-88 368.455,-79.632 444.694,-58.1761 476,-54 765.023,-15.4455 1704.79,-17.7486 1913.63,-18.7624"/>
<polygon fill="black" stroke="black" points="1913.84,-22.2634 1923.85,-18.8139 1913.87,-15.2635 1913.84,-22.2634"/>
</a>
<a xlink:href="http://latin.omdoc.org/foundations/mizar?PLMizarView" class="PLMizarView">
<text text-anchor="middle" x="514.5" y="-58.3" font-family="Times New Roman,serif" font-size="14.00">PLMizarView</text>
</a>
</g>
<!-- http://latin.omdoc.org/logics/proof_theory?Falsity&#45;&gt;http://latin.omdoc.org/logics/model_theory/kripke?Kripke -->
<g id="edge79" class="edge"><title>http://latin.omdoc.org/logics/proof_theory?Falsity&#45;&gt;http://latin.omdoc.org/logics/model_theory/kripke?Kripke</title>
<a xlink:href="http://latin.omdoc.org/logics/soundness/kripke?Falsity" class="graphview">
<path fill="none" stroke="black" d="M3098.32,-95.1848C3088.84,-92.2787 3078.07,-89.4796 3068,-88 2993.74,-77.0887 437.543,-92.6989 366,-70 354.131,-66.2341 354.28,-59.2742 343,-54 315.853,-41.3074 283.247,-32.477 257.737,-26.861"/>
<polygon fill="black" stroke="black" points="258.139,-23.3684 247.63,-24.7211 256.689,-30.2166 258.139,-23.3684"/>
</a>
<a xlink:href="http://latin.omdoc.org/logics/soundness/kripke?Falsity" class="Falsity">
<text text-anchor="middle" x="384.5" y="-58.3" font-family="Times New Roman,serif" font-size="14.00">Falsity</text>
</a>
</g>
<!-- http://latin.omdoc.org/logics/proof_theory?Falsity&#45;&gt;http://latin.omdoc.org/foundations/minimal?Bool -->
<g id="edge73" class="edge"><title>http://latin.omdoc.org/logics/proof_theory?Falsity&#45;&gt;http://latin.omdoc.org/foundations/minimal?Bool</title>
<a xlink:href="http://latin.omdoc.org/logics/soundness?Falsity" class="graphview">
<path fill="none" stroke="black" d="M3098.31,-95.3035C3088.82,-92.4061 3078.05,-89.5822 3068,-88 2938.44,-67.6131 865.573,-25.8981 555.643,-19.7608"/>
<polygon fill="black" stroke="black" points="555.435,-16.2561 545.368,-19.5576 555.297,-23.2548 555.435,-16.2561"/>
</a>
<a xlink:href="http://latin.omdoc.org/logics/soundness?Falsity" class="Falsity">
<text text-anchor="middle" x="2658.5" y="-58.3" font-family="Times New Roman,serif" font-size="14.00">Falsity</text>
</a>
</g>
<!-- http://latin.omdoc.org/logics/proof_theory?Falsity&#45;&gt;http://latin.omdoc.org/translations/prop_iprop?DN&#45;IPL -->
<g id="edge77" class="edge"><title>http://latin.omdoc.org/logics/proof_theory?Falsity&#45;&gt;http://latin.omdoc.org/translations/prop_iprop?DN&#45;IPL</title>
<a xlink:href="http://latin.omdoc.org/translations/prop_iprop?FalsityPF" class="graphview">
<path fill="none" stroke="black" d="M3125.77,-87.7145C3126.26,-77.4686 3127.99,-64.4808 3133,-54 3135.1,-49.6163 3137.95,-45.4172 3141.1,-41.5452"/>
<polygon fill="black" stroke="black" points="3143.72,-43.8626 3147.84,-34.1026 3138.53,-39.1616 3143.72,-43.8626"/>
</a>
<a xlink:href="http://latin.omdoc.org/translations/prop_iprop?FalsityPF" class="FalsityPF">
<text text-anchor="middle" x="3160" y="-58.3" font-family="Times New Roman,serif" font-size="14.00">FalsityPF</text>
</a>
</g>
<!-- http://latin.omdoc.org/logics/proof_theory?Falsity&#45;&gt;http://latin.omdoc.org/foundations/mizar?Mizar -->
<g id="edge75" class="edge"><title>http://latin.omdoc.org/logics/proof_theory?Falsity&#45;&gt;http://latin.omdoc.org/foundations/mizar?Mizar</title>
<a xlink:href="http://latin.omdoc.org/foundations/mizar?FalsityPFMizarView" class="graphview">
<path fill="none" stroke="black" d="M3097.98,-95.417C3088.56,-92.5645 3077.92,-89.7391 3068,-88 2855.78,-50.8022 2171.23,-26.1278 1996.11,-20.3191"/>
<polygon fill="black" stroke="black" points="1996.13,-16.818 1986.02,-19.9868 1995.9,-23.8142 1996.13,-16.818"/>
</a>
<a xlink:href="http://latin.omdoc.org/foundations/mizar?FalsityPFMizarView" class="FalsityPFMizarView">
<text text-anchor="middle" x="2966" y="-58.3" font-family="Times New Roman,serif" font-size="14.00">FalsityPFMizarView</text>
</a>
</g>
<!-- http://latin.omdoc.org/logics/syntax?Logic -->
<g id="node33" class="node"><title>http://latin.omdoc.org/logics/syntax?Logic</title>
<a xlink:href="http://latin.omdoc.org/logics/syntax?Logic" class="graphtheory">
<ellipse fill="gray" stroke="black" cx="287" cy="-194" rx="31.2735" ry="18"/>
<text text-anchor="middle" x="287" y="-190.3" font-family="Times New Roman,serif" font-size="14.00">Logic</text>
</a>
</g>
<!-- http://latin.omdoc.org/logics/syntax?Logic&#45;&gt;http://latin.omdoc.org/logics/syntax?Falsity -->
<g id="edge33" class="edge"><title>http://latin.omdoc.org/logics/syntax?Logic&#45;&gt;http://latin.omdoc.org/logics/syntax?Falsity</title>
<a class="graphinclude">
<path fill="none" stroke="black" d="M318.616,-194C876.518,-194 1434.42,-194 1992.32,-194"/>
<polygon fill="black" stroke="black" points="1992.6,-197.5 2002.6,-194 1992.6,-190.5 1992.6,-197.5"/>
</a>
</g>
<!-- http://latin.omdoc.org/logics/syntax?Logic&#45;&gt;http://latin.omdoc.org/logics/model_theory/kripke?PL -->
<g id="edge63" class="edge"><title>http://latin.omdoc.org/logics/syntax?Logic&#45;&gt;http://latin.omdoc.org/logics/model_theory/kripke?PL</title>
<a xlink:href="http://latin.omdoc.org/logics/model_theory/kripke?PL?[http://latin.omdoc.org/logics/syntax?Logic]" class="graphstructure">
<path fill="none" stroke="black" d="M306.049,-179.647C327.548,-164.582 359.613,-142.136 360,-142 415.669,-122.382 566.205,-129.198 625,-124 665.961,-120.379 712.851,-115.118 744.439,-111.41"/>
<polygon fill="black" stroke="black" points="745.014,-114.866 754.534,-110.216 744.192,-107.915 745.014,-114.866"/>
</a>
<a xlink:href="http://latin.omdoc.org/logics/model_theory/kripke?PL?[http://latin.omdoc.org/logics/syntax?Logic]" class="[http://latin.omdoc.org/logics/syntax?Logic]">
<text text-anchor="middle" x="482.5" y="-146.3" font-family="Times New Roman,serif" font-size="14.00">[http://latin.omdoc.org/logics/syntax?Logic]</text>
</a>
</g>
<!-- http://latin.omdoc.org/logics/syntax?Logic&#45;&gt;http://latin.omdoc.org/logics/model_theory/kripke?Kripke -->
<g id="edge57" class="edge"><title>http://latin.omdoc.org/logics/syntax?Logic&#45;&gt;http://latin.omdoc.org/logics/model_theory/kripke?Kripke</title>
<a xlink:href="http://latin.omdoc.org/logics/model_theory/kripke?Base" class="graphview">
<path fill="none" stroke="black" d="M264.03,-181.569C253.837,-175.624 242.299,-167.588 234,-158 223.07,-145.373 222.392,-140.113 218,-124 210.985,-98.2614 211.008,-67.6528 212.315,-46.1442"/>
<polygon fill="black" stroke="black" points="215.812,-46.3206 213.06,-36.0893 208.831,-45.8032 215.812,-46.3206"/>
</a>
<a xlink:href="http://latin.omdoc.org/logics/model_theory/kripke?Base" class="Base">
<text text-anchor="middle" x="232" y="-102.3" font-family="Times New Roman,serif" font-size="14.00">Base</text>
</a>
</g>
<!-- http://latin.omdoc.org/logics/syntax?Logic&#45;&gt;http://latin.omdoc.org/logics/model_theory/kripke?Kripke -->
<g id="edge59" class="edge"><title>http://latin.omdoc.org/logics/syntax?Logic&#45;&gt;http://latin.omdoc.org/logics/model_theory/kripke?Kripke</title>
<a xlink:href="http://latin.omdoc.org/logics/model_theory/kripke?BasePL" class="graphview">
<path fill="none" stroke="black" d="M260.488,-184.194C219.375,-168.782 142.616,-132.467 120,-70 110.822,-44.6506 142.038,-31.6821 171.102,-25.1869"/>
<polygon fill="black" stroke="black" points="172.111,-28.5542 181.223,-23.1498 170.729,-21.6918 172.111,-28.5542"/>
</a>
<a xlink:href="http://latin.omdoc.org/logics/model_theory/kripke?BasePL" class="BasePL">
<text text-anchor="middle" x="178" y="-102.3" font-family="Times New Roman,serif" font-size="14.00">BasePL</text>
</a>
</g>
<!-- http://latin.omdoc.org/logics/syntax?Logic&#45;&gt;http://latin.omdoc.org/foundations/hol?SFOL&#45;Syn -->
<g id="edge67" class="edge"><title>http://latin.omdoc.org/logics/syntax?Logic&#45;&gt;http://latin.omdoc.org/foundations/hol?SFOL&#45;Syn</title>
<a xlink:href="http://latin.omdoc.org/translations/prop_hol?Base" class="graphview">
<path fill="none" stroke="black" d="M258.569,-186.33C220.195,-176.524 150.581,-155.857 98,-124 65.2897,-104.182 47.5049,-104.501 31,-70 27.19,-62.0358 28.6924,-53.0912 32.1367,-44.9429"/>
<polygon fill="black" stroke="black" points="35.3574,-46.3359 36.8703,-35.8496 29.1483,-43.1037 35.3574,-46.3359"/>
</a>
<a xlink:href="http://latin.omdoc.org/translations/prop_hol?Base" class="Base">
<text text-anchor="middle" x="112" y="-102.3" font-family="Times New Roman,serif" font-size="14.00">Base</text>
</a>
</g>
<!-- http://latin.omdoc.org/logics/syntax?Logic&#45;&gt;http://latin.omdoc.org/foundations/minimal?Bool -->
<g id="edge69" class="edge"><title>http://latin.omdoc.org/logics/syntax?Logic&#45;&gt;http://latin.omdoc.org/foundations/minimal?Bool</title>
<a xlink:href="http://latin.omdoc.org/logics/model_theory?Base" class="graphview">
<path fill="none" stroke="black" d="M272.699,-177.835C264.454,-167.198 257.137,-152.974 265,-142 279.489,-121.778 294.735,-132.808 318,-124 356.752,-109.329 364.272,-99.7751 404,-88 446.878,-75.2912 470.016,-100.2 503,-70 509.717,-63.85 513.331,-54.8096 515.237,-46.0418"/>
<polygon fill="black" stroke="black" points="518.711,-46.4804 516.775,-36.0639 511.793,-45.414 518.711,-46.4804"/>
</a>
<a xlink:href="http://latin.omdoc.org/logics/model_theory?Base" class="Base">
<text text-anchor="middle" x="418" y="-102.3" font-family="Times New Roman,serif" font-size="14.00">Base</text>
</a>
</g>
<!-- http://latin.omdoc.org/logics/syntax?Logic&#45;&gt;http://latin.omdoc.org/translations/prop_iprop?DN&#45;IPL -->
<g id="edge61" class="edge"><title>http://latin.omdoc.org/logics/syntax?Logic&#45;&gt;http://latin.omdoc.org/translations/prop_iprop?DN&#45;IPL</title>
<a xlink:href="http://latin.omdoc.org/translations/prop_iprop?Base" class="graphview">
<path fill="none" stroke="black" d="M298.526,-177.073C308.145,-165.15 322.992,-149.636 340,-142 386.973,-120.912 520.167,-132.191 571,-124 636.981,-113.368 650.775,-96.9923 717,-88 962.347,-54.6854 2787.42,-24.8906 3115.55,-19.7736"/>
<polygon fill="black" stroke="black" points="3115.76,-23.2709 3125.7,-19.6157 3115.65,-16.2717 3115.76,-23.2709"/>
</a>
<a xlink:href="http://latin.omdoc.org/translations/prop_iprop?Base" class="Base">
<text text-anchor="middle" x="731" y="-102.3" font-family="Times New Roman,serif" font-size="14.00">Base</text>
</a>
</g>
<!-- http://latin.omdoc.org/logics/syntax?Logic&#45;&gt;http://latin.omdoc.org/logics/soundness/kripke?Falsity -->
<g id="edge55" class="edge"><title>http://latin.omdoc.org/logics/syntax?Logic&#45;&gt;http://latin.omdoc.org/logics/soundness/kripke?Falsity</title>
<a xlink:href="http://latin.omdoc.org/logics/soundness/kripke?Falsity?[http://latin.omdoc.org/logics/syntax?Logic]" class="graphstructure">
<path fill="none" stroke="black" d="M318.78,-192.919C464.83,-192.386 1067.82,-188.35 1146,-158 1156.29,-154.005 1154.79,-146.187 1165,-142 1237.01,-112.482 1469.25,-107.723 1567.48,-107.054"/>
<polygon fill="black" stroke="black" points="1567.68,-110.553 1577.66,-106.996 1567.64,-103.553 1567.68,-110.553"/>
</a>
<a xlink:href="http://latin.omdoc.org/logics/soundness/kripke?Falsity?[http://latin.omdoc.org/logics/syntax?Logic]" class="[http://latin.omdoc.org/logics/syntax?Logic]">
<text text-anchor="middle" x="1287.5" y="-146.3" font-family="Times New Roman,serif" font-size="14.00">[http://latin.omdoc.org/logics/syntax?Logic]</text>
</a>
</g>
<!-- http://latin.omdoc.org/logics/syntax?Logic&#45;&gt;http://latin.omdoc.org/logics/model_theory?PL -->
<g id="edge65" class="edge"><title>http://latin.omdoc.org/logics/syntax?Logic&#45;&gt;http://latin.omdoc.org/logics/model_theory?PL</title>
<a xlink:href="http://latin.omdoc.org/logics/model_theory?PL?[http://latin.omdoc.org/logics/syntax?Logic]" class="graphstructure">
<path fill="none" stroke="black" d="M318.267,-191.521C387.743,-187.919 552.929,-177.523 605,-158 616.66,-153.628 616.237,-146.086 628,-142 653.372,-133.186 1041.8,-114.453 1164.89,-108.71"/>
<polygon fill="black" stroke="black" points="1165.13,-112.202 1174.96,-108.241 1164.81,-105.21 1165.13,-112.202"/>
</a>
<a xlink:href="http://latin.omdoc.org/logics/model_theory?PL?[http://latin.omdoc.org/logics/syntax?Logic]" class="[http://latin.omdoc.org/logics/syntax?Logic]">
<text text-anchor="middle" x="750.5" y="-146.3" font-family="Times New Roman,serif" font-size="14.00">[http://latin.omdoc.org/logics/syntax?Logic]</text>
</a>
</g>
<!-- http://latin.omdoc.org/logics/syntax?Logic&#45;&gt;http://latin.omdoc.org/foundations/mizar?Mizar -->
<g id="edge53" class="edge"><title>http://latin.omdoc.org/logics/syntax?Logic&#45;&gt;http://latin.omdoc.org/foundations/mizar?Mizar</title>
<a xlink:href="http://latin.omdoc.org/foundations/mizar?BaseMizarView" class="graphview">
<path fill="none" stroke="black" d="M290.886,-176.099C294.429,-164.643 300.861,-150.155 312,-142 355.515,-110.142 381.953,-144.093 432,-124 457.747,-113.663 457.195,-98.1912 483,-88 537.252,-66.5747 557.787,-88.8109 613,-70 626.567,-65.3777 627.197,-57.8629 641,-54 765.811,-19.0692 1703.86,-18.5718 1913.52,-18.9027"/>
<polygon fill="black" stroke="black" points="1913.78,-22.4031 1923.79,-18.9205 1913.79,-15.4031 1913.78,-22.4031"/>
</a>
<a xlink:href="http://latin.omdoc.org/foundations/mizar?BaseMizarView" class="BaseMizarView">
<text text-anchor="middle" x="527" y="-102.3" font-family="Times New Roman,serif" font-size="14.00">BaseMizarView</text>
</a>
</g>
<!-- http://latin.omdoc.org/logics/syntax?Logic&#45;&gt;http://latin.omdoc.org/logics/syntax?PL -->
<g id="edge71" class="edge"><title>http://latin.omdoc.org/logics/syntax?Logic&#45;&gt;http://latin.omdoc.org/logics/syntax?PL</title>
<a class="graphinclude">
<path fill="none" stroke="black" d="M263.476,-181.592C254.406,-175.87 245.022,-168.001 240,-158 233.829,-145.71 242.651,-133.745 253.776,-124.496"/>
<polygon fill="black" stroke="black" points="256.186,-127.065 262.102,-118.276 251.996,-121.457 256.186,-127.065"/>
</a>
</g>
<!-- http://cds.omdoc.org/urtheories?LF -->
<g id="node35" class="node"><title>http://cds.omdoc.org/urtheories?LF</title>
<a xlink:href="http://cds.omdoc.org/urtheories?LF" class="graphtheory">
<ellipse fill="gray" stroke="black" cx="287" cy="-268" rx="27" ry="18"/>
<text text-anchor="middle" x="287" y="-264.3" font-family="Times New Roman,serif" font-size="14.00">LF</text>
</a>
</g>
<!-- http://cds.omdoc.org/urtheories?LF&#45;&gt;http://latin.omdoc.org/logics/syntax?Falsity -->
<g id="edge35" class="edge"><title>http://cds.omdoc.org/urtheories?LF&#45;&gt;http://latin.omdoc.org/logics/syntax?Falsity</title>
<a class="graphmeta">
<path fill="none" stroke="black" d="M313.976,-267.149C519.294,-268.171 1831.74,-272.597 1999,-220 2002.87,-218.782 2006.72,-217.045 2010.4,-215.047"/>
<polygon fill="black" stroke="black" points="2012.43,-217.908 2019.11,-209.688 2008.76,-211.946 2012.43,-217.908"/>
</a>
</g>
<!-- http://cds.omdoc.org/urtheories?LF&#45;&gt;http://latin.omdoc.org/logics/model_theory/kripke?Kripke -->
<g id="edge39" class="edge"><title>http://cds.omdoc.org/urtheories?LF&#45;&gt;http://latin.omdoc.org/logics/model_theory/kripke?Kripke</title>
<a class="graphmeta">
<path fill="none" stroke="black" d="M267.123,-255.542C232.365,-234.378 160.927,-185.636 126,-124 110.474,-96.6005 96.7769,-79.6851 115,-54 127.565,-36.2899 149.807,-27.4707 170.129,-23.1086"/>
<polygon fill="black" stroke="black" points="171.006,-26.5063 180.209,-21.258 169.742,-19.6214 171.006,-26.5063"/>
</a>
</g>
<!-- http://cds.omdoc.org/urtheories?LF&#45;&gt;http://latin.omdoc.org/foundations/hol?SFOL&#45;Syn -->
<g id="edge47" class="edge"><title>http://cds.omdoc.org/urtheories?LF&#45;&gt;http://latin.omdoc.org/foundations/hol?SFOL&#45;Syn</title>
<a class="graphmeta">
<path fill="none" stroke="black" d="M261.955,-260.861C210.164,-246.709 91.7258,-206.5 39,-124 21.9144,-97.2661 15.3176,-84.2137 25,-54 26.138,-50.4489 27.7833,-46.9514 29.6947,-43.6217"/>
<polygon fill="black" stroke="black" points="32.6153,-45.5505 35.2101,-35.2783 26.7758,-41.6903 32.6153,-45.5505"/>
</a>
</g>
<!-- http://cds.omdoc.org/urtheories?LF&#45;&gt;http://latin.omdoc.org/foundations/minimal?Bool -->
<g id="edge41" class="edge"><title>http://cds.omdoc.org/urtheories?LF&#45;&gt;http://latin.omdoc.org/foundations/minimal?Bool</title>
<a class="graphmeta">
<path fill="none" stroke="black" d="M271.469,-253.243C262.653,-244.571 252.177,-232.649 246,-220 229.806,-186.837 215.521,-80.6992 241,-54 272.732,-20.7489 409.825,-17.5934 478.084,-18.1631"/>
<polygon fill="black" stroke="black" points="478.382,-21.6667 488.422,-18.2825 478.463,-14.6672 478.382,-21.6667"/>
</a>
</g>
<!-- http://cds.omdoc.org/urtheories?LF&#45;&gt;http://latin.omdoc.org/translations/prop_iprop?DN&#45;IPL -->
<g id="edge43" class="edge"><title>http://cds.omdoc.org/urtheories?LF&#45;&gt;http://latin.omdoc.org/translations/prop_iprop?DN&#45;IPL</title>
<a class="graphmeta">
<path fill="none" stroke="black" d="M314.177,-266.95C596.98,-266.384 2994.53,-260.396 3138,-220 3207.14,-200.534 3248.38,-193.093 3268,-124 3272.37,-108.608 3275.5,-102.132 3268,-88 3254.78,-63.1044 3228.13,-45.5511 3205.38,-34.3802"/>
<polygon fill="black" stroke="black" points="3206.79,-31.1751 3196.25,-30.1239 3203.83,-37.5201 3206.79,-31.1751"/>
</a>
</g>
<!-- http://cds.omdoc.org/urtheories?LF&#45;&gt;http://latin.omdoc.org/foundations/mizar?Mizar -->
<g id="edge49" class="edge"><title>http://cds.omdoc.org/urtheories?LF&#45;&gt;http://latin.omdoc.org/foundations/mizar?Mizar</title>
<a class="graphmeta">
<path fill="none" stroke="black" d="M314.161,-266.72C503.33,-264.738 1643.83,-252.336 2572,-232 2724.53,-228.658 3186.83,-262.874 3250,-124 3256.62,-109.436 3260.48,-100.087 3250,-88 3231.47,-66.6325 3151.96,-74.3019 3124,-70 3080.81,-63.3544 3070.48,-58.2776 3027,-54 2821.43,-33.7779 2167.06,-22.3195 1996.15,-19.6226"/>
<polygon fill="black" stroke="black" points="1996.12,-16.1217 1986.06,-19.4647 1996.01,-23.1208 1996.12,-16.1217"/>
</a>
</g>
<!-- http://cds.omdoc.org/urtheories?LF&#45;&gt;http://latin.omdoc.org/logics/syntax?PL -->
<g id="edge45" class="edge"><title>http://cds.omdoc.org/urtheories?LF&#45;&gt;http://latin.omdoc.org/logics/syntax?PL</title>
<a class="graphmeta">
<path fill="none" stroke="black" d="M271.469,-253.243C262.653,-244.571 252.177,-232.649 246,-220 233.684,-194.779 236.679,-185.939 234,-158 233.321,-150.921 230.777,-148.339 234,-142 237.998,-134.137 244.683,-127.621 251.812,-122.43"/>
<polygon fill="black" stroke="black" points="253.776,-125.328 260.252,-116.943 249.96,-119.459 253.776,-125.328"/>
</a>
</g>
<!-- http://cds.omdoc.org/urtheories?LF&#45;&gt;http://latin.omdoc.org/logics/proof_theory?Falsity -->
<g id="edge37" class="edge"><title>http://cds.omdoc.org/urtheories?LF&#45;&gt;http://latin.omdoc.org/logics/proof_theory?Falsity</title>
<a class="graphmeta">
<path fill="none" stroke="black" d="M314.246,-267.061C602.881,-267.578 3089.63,-268.805 3194,-158 3208.08,-143.056 3186.77,-129.292 3164.38,-119.839"/>
<polygon fill="black" stroke="black" points="3165.41,-116.481 3154.82,-116.061 3162.83,-122.991 3165.41,-116.481"/>
</a>
</g>
<!-- http://cds.omdoc.org/urtheories?LF&#45;&gt;http://latin.omdoc.org/logics/syntax?Logic -->
<g id="edge51" class="edge"><title>http://cds.omdoc.org/urtheories?LF&#45;&gt;http://latin.omdoc.org/logics/syntax?Logic</title>
<a class="graphmeta">
<path fill="none" stroke="black" d="M287,-249.937C287,-241.807 287,-231.876 287,-222.705"/>
<polygon fill="black" stroke="black" points="290.5,-222.441 287,-212.441 283.5,-222.441 290.5,-222.441"/>
</a>
</g>
</g>
</svg>
