<?xml version="1.0" encoding="UTF-8" standalone="no"?>
<!DOCTYPE svg PUBLIC "-//W3C//DTD SVG 1.1//EN"
 "http://www.w3.org/Graphics/SVG/1.1/DTD/svg11.dtd">
<!-- Generated by graphviz version 2.28.0 (20110507.0327)
 -->
<!-- Title: MMT Pages: 1 -->
<svg width="997pt" height="368pt"
 viewBox="0.00 0.00 996.63 368.00" xmlns="http://www.w3.org/2000/svg" xmlns:xlink="http://www.w3.org/1999/xlink">
<g id="graph1" class="graph" transform="scale(1 1) rotate(0) translate(4 364)">
<title>MMT</title>
<polygon fill="white" stroke="white" points="-4,5 -4,-364 993.632,-364 993.632,5 -4,5"/>
<g id="graph2" class="cluster"><title>cluster_local</title>
<polygon fill="none" stroke="black" points="160,-168 160,-220 262,-220 262,-168 160,-168"/>
</g>
<!-- http://latin.omdoc.org/logics/syntax?FLminus -->
<g id="node2" class="node"><title>http://latin.omdoc.org/logics/syntax?FLminus</title>
<a xlink:href="http://latin.omdoc.org/logics/syntax?FLminus" class="graphtheory">
<ellipse fill="none" stroke="black" cx="211" cy="-194" rx="42.3456" ry="18"/>
<text text-anchor="middle" x="211" y="-190.3" font-family="Times New Roman,serif" font-size="14.00">FLminus</text>
</a>
</g>
<!-- http://latin.omdoc.org/logics/description/owl/owl2.omdoc?OWL2 -->
<g id="node3" class="node"><title>http://latin.omdoc.org/logics/description/owl/owl2.omdoc?OWL2</title>
<a xlink:href="http://latin.omdoc.org/logics/description/owl/owl2.omdoc?OWL2" class="graphtheory">
<ellipse fill="gray" stroke="black" cx="896" cy="-106" rx="36.096" ry="18"/>
<text text-anchor="middle" x="896" y="-102.3" font-family="Times New Roman,serif" font-size="14.00">OWL2</text>
</a>
</g>
<!-- http://latin.omdoc.org/logics/syntax?FLminus&#45;&gt;http://latin.omdoc.org/logics/description/owl/owl2.omdoc?OWL2 -->
<g id="edge3" class="edge"><title>http://latin.omdoc.org/logics/syntax?FLminus&#45;&gt;http://latin.omdoc.org/logics/description/owl/owl2.omdoc?OWL2</title>
<a xlink:href="http://latin.omdoc.org/logics/description/owl/owl2.omdoc?FLminustoOWL2" class="graphview">
<path fill="none" stroke="black" d="M233.026,-178.262C240.344,-174.137 248.74,-170.185 257,-168 312.114,-153.418 715.044,-173.169 770,-158 783.816,-154.186 784.978,-147.989 798,-142 816.696,-133.401 838.156,-125.525 856.22,-119.431"/>
<polygon fill="black" stroke="black" points="857.474,-122.703 865.866,-116.236 855.273,-116.058 857.474,-122.703"/>
</a>
<a xlink:href="http://latin.omdoc.org/logics/description/owl/owl2.omdoc?FLminustoOWL2" class="FLminustoOWL2">
<text text-anchor="middle" x="848" y="-146.3" font-family="Times New Roman,serif" font-size="14.00">FLminustoOWL2</text>
</a>
</g>
<!-- http://latin.omdoc.org/logics/syntax?FOLEQ -->
<g id="node5" class="node"><title>http://latin.omdoc.org/logics/syntax?FOLEQ</title>
<a xlink:href="http://latin.omdoc.org/logics/syntax?FOLEQ" class="graphtheory">
<ellipse fill="gray" stroke="black" cx="129" cy="-18" rx="39.9464" ry="18"/>
<text text-anchor="middle" x="129" y="-14.3" font-family="Times New Roman,serif" font-size="14.00">FOLEQ</text>
</a>
</g>
<!-- http://latin.omdoc.org/logics/syntax?FLminus&#45;&gt;http://latin.omdoc.org/logics/syntax?FOLEQ -->
<g id="edge5" class="edge"><title>http://latin.omdoc.org/logics/syntax?FLminus&#45;&gt;http://latin.omdoc.org/logics/syntax?FOLEQ</title>
<a xlink:href="http://latin.omdoc.org/logics/model_theory?FLminus" class="graphview">
<path fill="none" stroke="black" d="M207.145,-175.787C200.545,-148.533 185.381,-94.4013 161,-54 158.59,-50.0062 155.679,-46.0659 152.607,-42.351"/>
<polygon fill="black" stroke="black" points="155.018,-39.7941 145.758,-34.6453 149.786,-44.4447 155.018,-39.7941"/>
</a>
<a xlink:href="http://latin.omdoc.org/logics/model_theory?FLminus" class="FLminus">
<text text-anchor="middle" x="217" y="-102.3" font-family="Times New Roman,serif" font-size="14.00">FLminus</text>
</a>
</g>
<!-- http://latin.omdoc.org/logics/model_theory?AL -->
<g id="node7" class="node"><title>http://latin.omdoc.org/logics/model_theory?AL</title>
<a xlink:href="http://latin.omdoc.org/logics/model_theory?AL" class="graphtheory">
<ellipse fill="gray" stroke="black" cx="289" cy="-106" rx="27" ry="18"/>
<text text-anchor="middle" x="289" y="-102.3" font-family="Times New Roman,serif" font-size="14.00">AL</text>
</a>
</g>
<!-- http://latin.omdoc.org/logics/syntax?FLminus&#45;&gt;http://latin.omdoc.org/logics/model_theory?AL -->
<g id="edge7" class="edge"><title>http://latin.omdoc.org/logics/syntax?FLminus&#45;&gt;http://latin.omdoc.org/logics/model_theory?AL</title>
<a xlink:href="http://latin.omdoc.org/logics/model_theory?AL?[http://latin.omdoc.org/logics/syntax?FLminus]" class="graphstructure">
<path fill="none" stroke="black" d="M213.506,-175.886C215.793,-165.198 220.08,-151.679 228,-142 235.578,-132.74 246.293,-125.44 256.633,-119.958"/>
<polygon fill="black" stroke="black" points="258.468,-122.957 265.923,-115.429 255.401,-116.665 258.468,-122.957"/>
</a>
<a xlink:href="http://latin.omdoc.org/logics/model_theory?AL?[http://latin.omdoc.org/logics/syntax?FLminus]" class="[http://latin.omdoc.org/logics/syntax?FLminus]">
<text text-anchor="middle" x="359" y="-146.3" font-family="Times New Roman,serif" font-size="14.00">[http://latin.omdoc.org/logics/syntax?FLminus]</text>
</a>
</g>
<!-- http://latin.omdoc.org/logics/model_theory?ALC -->
<g id="node9" class="node"><title>http://latin.omdoc.org/logics/model_theory?ALC</title>
<a xlink:href="http://latin.omdoc.org/logics/model_theory?ALC" class="graphtheory">
<ellipse fill="gray" stroke="black" cx="512" cy="-106" rx="28.3955" ry="18"/>
<text text-anchor="middle" x="512" y="-102.3" font-family="Times New Roman,serif" font-size="14.00">ALC</text>
</a>
</g>
<!-- http://latin.omdoc.org/logics/syntax?FLminus&#45;&gt;http://latin.omdoc.org/logics/model_theory?ALC -->
<g id="edge9" class="edge"><title>http://latin.omdoc.org/logics/syntax?FLminus&#45;&gt;http://latin.omdoc.org/logics/model_theory?ALC</title>
<a xlink:href="http://latin.omdoc.org/logics/model_theory?ALC?[http://latin.omdoc.org/logics/syntax?FLminus]" class="graphstructure">
<path fill="none" stroke="black" d="M233.057,-178.378C240.377,-174.259 248.766,-170.282 257,-168 281.971,-161.079 468.66,-172.7 490,-158 498.164,-152.376 503.319,-143.043 506.565,-133.888"/>
<polygon fill="black" stroke="black" points="509.949,-134.787 509.39,-124.207 503.229,-132.826 509.949,-134.787"/>
</a>
<a xlink:href="http://latin.omdoc.org/logics/model_theory?ALC?[http://latin.omdoc.org/logics/syntax?FLminus]" class="[http://latin.omdoc.org/logics/syntax?FLminus]">
<text text-anchor="middle" x="635" y="-146.3" font-family="Times New Roman,serif" font-size="14.00">[http://latin.omdoc.org/logics/syntax?FLminus]</text>
</a>
</g>
<!-- http://latin.omdoc.org/logics/syntax?ALC -->
<g id="node11" class="node"><title>http://latin.omdoc.org/logics/syntax?ALC</title>
<a xlink:href="http://latin.omdoc.org/logics/syntax?ALC" class="graphtheory">
<ellipse fill="gray" stroke="black" cx="129" cy="-106" rx="28.3955" ry="18"/>
<text text-anchor="middle" x="129" y="-102.3" font-family="Times New Roman,serif" font-size="14.00">ALC</text>
</a>
</g>
<!-- http://latin.omdoc.org/logics/syntax?FLminus&#45;&gt;http://latin.omdoc.org/logics/syntax?ALC -->
<g id="edge11" class="edge"><title>http://latin.omdoc.org/logics/syntax?FLminus&#45;&gt;http://latin.omdoc.org/logics/syntax?ALC</title>
<a class="graphinclude">
<path fill="none" stroke="black" d="M195.576,-176.824C182.697,-163.317 164.212,-143.929 149.986,-129.01"/>
<polygon fill="black" stroke="black" points="152.421,-126.492 142.987,-121.669 147.355,-131.322 152.421,-126.492"/>
</a>
</g>
<!-- http://latin.omdoc.org/logics/syntax?AL -->
<g id="node13" class="node"><title>http://latin.omdoc.org/logics/syntax?AL</title>
<a xlink:href="http://latin.omdoc.org/logics/syntax?AL" class="graphtheory">
<ellipse fill="gray" stroke="black" cx="55" cy="-106" rx="27" ry="18"/>
<text text-anchor="middle" x="55" y="-102.3" font-family="Times New Roman,serif" font-size="14.00">AL</text>
</a>
</g>
<!-- http://latin.omdoc.org/logics/syntax?FLminus&#45;&gt;http://latin.omdoc.org/logics/syntax?AL -->
<g id="edge13" class="edge"><title>http://latin.omdoc.org/logics/syntax?FLminus&#45;&gt;http://latin.omdoc.org/logics/syntax?AL</title>
<a class="graphinclude">
<path fill="none" stroke="black" d="M185.936,-179.183C158.269,-163.93 113.777,-139.403 84.4631,-123.242"/>
<polygon fill="black" stroke="black" points="85.9667,-120.075 75.5196,-118.312 82.5872,-126.205 85.9667,-120.075"/>
</a>
</g>
<!-- http://latin.omdoc.org/logics/syntax?ALC&#45;&gt;http://latin.omdoc.org/logics/syntax?FOLEQ -->
<g id="edge35" class="edge"><title>http://latin.omdoc.org/logics/syntax?ALC&#45;&gt;http://latin.omdoc.org/logics/syntax?FOLEQ</title>
<a xlink:href="http://latin.omdoc.org/logics/model_theory?ALC" class="graphview">
<path fill="none" stroke="black" d="M129,-87.5966C129,-75.7459 129,-59.8169 129,-46.2917"/>
<polygon fill="black" stroke="black" points="132.5,-46.084 129,-36.084 125.5,-46.084 132.5,-46.084"/>
</a>
<a xlink:href="http://latin.omdoc.org/logics/model_theory?ALC" class="ALC">
<text text-anchor="middle" x="143" y="-58.3" font-family="Times New Roman,serif" font-size="14.00">ALC</text>
</a>
</g>
<!-- http://latin.omdoc.org/logics/syntax?AL&#45;&gt;http://latin.omdoc.org/logics/syntax?FOLEQ -->
<g id="edge33" class="edge"><title>http://latin.omdoc.org/logics/syntax?AL&#45;&gt;http://latin.omdoc.org/logics/syntax?FOLEQ</title>
<a xlink:href="http://latin.omdoc.org/logics/model_theory?AL" class="graphview">
<path fill="none" stroke="black" d="M67.8898,-90.0199C79.0703,-77.0264 95.4531,-57.987 108.442,-42.8915"/>
<polygon fill="black" stroke="black" points="111.385,-44.8374 115.255,-34.9744 106.079,-40.2717 111.385,-44.8374"/>
</a>
<a xlink:href="http://latin.omdoc.org/logics/model_theory?AL" class="AL">
<text text-anchor="middle" x="108.5" y="-58.3" font-family="Times New Roman,serif" font-size="14.00">AL</text>
</a>
</g>
<!-- http://latin.omdoc.org/logics/syntax?FL0 -->
<g id="node15" class="node"><title>http://latin.omdoc.org/logics/syntax?FL0</title>
<a xlink:href="http://latin.omdoc.org/logics/syntax?FL0" class="graphtheory">
<ellipse fill="gray" stroke="black" cx="701" cy="-268" rx="27" ry="18"/>
<text text-anchor="middle" x="701" y="-264.3" font-family="Times New Roman,serif" font-size="14.00">FL0</text>
</a>
</g>
<!-- http://latin.omdoc.org/logics/syntax?FL0&#45;&gt;http://latin.omdoc.org/logics/syntax?FLminus -->
<g id="edge15" class="edge"><title>http://latin.omdoc.org/logics/syntax?FL0&#45;&gt;http://latin.omdoc.org/logics/syntax?FLminus</title>
<a class="graphinclude">
<path fill="none" stroke="black" d="M673.997,-267.755C603.586,-268.961 409.284,-267.381 257,-220 252.259,-218.525 247.447,-216.541 242.81,-214.333"/>
<polygon fill="black" stroke="black" points="244.107,-211.063 233.617,-209.576 240.89,-217.28 244.107,-211.063"/>
</a>
</g>
<!-- http://latin.omdoc.org/logics/syntax?FL0&#45;&gt;http://latin.omdoc.org/logics/description/owl/owl2.omdoc?OWL2 -->
<g id="edge29" class="edge"><title>http://latin.omdoc.org/logics/syntax?FL0&#45;&gt;http://latin.omdoc.org/logics/description/owl/owl2.omdoc?OWL2</title>
<a xlink:href="http://latin.omdoc.org/logics/description/owl/owl2.omdoc?FL0toOWL2" class="graphview">
<path fill="none" stroke="black" d="M719.952,-254.696C750.94,-234.885 814.745,-195.374 872,-168 883.17,-162.66 890.991,-168.206 898,-158 902.727,-151.118 903.703,-142.394 903.05,-134.115"/>
<polygon fill="black" stroke="black" points="906.48,-133.396 901.51,-124.04 899.561,-134.454 906.48,-133.396"/>
</a>
<a xlink:href="http://latin.omdoc.org/logics/description/owl/owl2.omdoc?FL0toOWL2" class="FL0toOWL2">
<text text-anchor="middle" x="909" y="-190.3" font-family="Times New Roman,serif" font-size="14.00">FL0toOWL2</text>
</a>
</g>
<!-- http://latin.omdoc.org/logics/syntax?FL0&#45;&gt;http://latin.omdoc.org/logics/syntax?FOLEQ -->
<g id="edge31" class="edge"><title>http://latin.omdoc.org/logics/syntax?FL0&#45;&gt;http://latin.omdoc.org/logics/syntax?FOLEQ</title>
<a xlink:href="http://latin.omdoc.org/logics/model_theory?FL0" class="graphview">
<path fill="none" stroke="black" d="M727.947,-265.988C785.731,-263.193 918.548,-253.219 946,-220 957.724,-205.813 950.963,-98.1886 941,-88 887.681,-33.4756 348.183,-21.8501 179.277,-19.539"/>
<polygon fill="black" stroke="black" points="179.208,-16.0379 169.163,-19.4058 179.116,-23.0373 179.208,-16.0379"/>
</a>
<a xlink:href="http://latin.omdoc.org/logics/model_theory?FL0" class="FL0">
<text text-anchor="middle" x="963" y="-146.3" font-family="Times New Roman,serif" font-size="14.00">FL0</text>
</a>
</g>
<!-- http://cds.omdoc.org/urtheories?LF -->
<g id="node17" class="node"><title>http://cds.omdoc.org/urtheories?LF</title>
<a xlink:href="http://cds.omdoc.org/urtheories?LF" class="graphtheory">
<ellipse fill="gray" stroke="black" cx="151" cy="-342" rx="27" ry="18"/>
<text text-anchor="middle" x="151" y="-338.3" font-family="Times New Roman,serif" font-size="14.00">LF</text>
</a>
</g>
<!-- http://cds.omdoc.org/urtheories?LF&#45;&gt;http://latin.omdoc.org/logics/syntax?FLminus -->
<g id="edge17" class="edge"><title>http://cds.omdoc.org/urtheories?LF&#45;&gt;http://latin.omdoc.org/logics/syntax?FLminus</title>
<a class="graphmeta">
<path fill="none" stroke="black" d="M157.766,-324.536C168.064,-299.477 187.773,-251.518 200.106,-221.509"/>
<polygon fill="black" stroke="black" points="203.417,-222.66 203.981,-212.08 196.942,-219.999 203.417,-222.66"/>
</a>
</g>
<!-- http://cds.omdoc.org/urtheories?LF&#45;&gt;http://latin.omdoc.org/logics/description/owl/owl2.omdoc?OWL2 -->
<g id="edge25" class="edge"><title>http://cds.omdoc.org/urtheories?LF&#45;&gt;http://latin.omdoc.org/logics/description/owl/owl2.omdoc?OWL2</title>
<a class="graphmeta">
<path fill="none" stroke="black" d="M178.304,-341.043C304.064,-340.696 826.473,-333.103 946,-232 978.528,-204.486 1002.56,-177.499 979,-142 970.063,-128.532 954.812,-120.234 939.803,-115.126"/>
<polygon fill="black" stroke="black" points="940.627,-111.72 930.044,-112.208 938.622,-118.426 940.627,-111.72"/>
</a>
</g>
<!-- http://cds.omdoc.org/urtheories?LF&#45;&gt;http://latin.omdoc.org/logics/syntax?FOLEQ -->
<g id="edge23" class="edge"><title>http://cds.omdoc.org/urtheories?LF&#45;&gt;http://latin.omdoc.org/logics/syntax?FOLEQ</title>
<a class="graphmeta">
<path fill="none" stroke="black" d="M124.004,-339.964C80.5713,-336.695 0,-323.31 0,-269 0,-269 0,-269 0,-105 0,-63.6133 46.5367,-40.9179 83.7079,-29.3911"/>
<polygon fill="black" stroke="black" points="84.7879,-32.722 93.4087,-26.5631 82.8287,-26.0017 84.7879,-32.722"/>
</a>
</g>
<!-- http://cds.omdoc.org/urtheories?LF&#45;&gt;http://latin.omdoc.org/logics/syntax?ALC -->
<g id="edge21" class="edge"><title>http://cds.omdoc.org/urtheories?LF&#45;&gt;http://latin.omdoc.org/logics/syntax?ALC</title>
<a class="graphmeta">
<path fill="none" stroke="black" d="M149.382,-323.793C145.6,-283.562 136.153,-183.077 131.571,-134.351"/>
<polygon fill="black" stroke="black" points="135.041,-133.86 130.62,-124.232 128.072,-134.516 135.041,-133.86"/>
</a>
</g>
<!-- http://cds.omdoc.org/urtheories?LF&#45;&gt;http://latin.omdoc.org/logics/syntax?AL -->
<g id="edge27" class="edge"><title>http://cds.omdoc.org/urtheories?LF&#45;&gt;http://latin.omdoc.org/logics/syntax?AL</title>
<a class="graphmeta">
<path fill="none" stroke="black" d="M144.249,-324.546C127.794,-284.434 85.5074,-181.362 65.6277,-132.905"/>
<polygon fill="black" stroke="black" points="68.7768,-131.359 61.7431,-123.436 62.3006,-134.016 68.7768,-131.359"/>
</a>
</g>
<!-- http://cds.omdoc.org/urtheories?LF&#45;&gt;http://latin.omdoc.org/logics/syntax?FL0 -->
<g id="edge19" class="edge"><title>http://cds.omdoc.org/urtheories?LF&#45;&gt;http://latin.omdoc.org/logics/syntax?FL0</title>
<a class="graphmeta">
<path fill="none" stroke="black" d="M177.528,-337.527C267.563,-325.741 561.592,-287.25 664.797,-273.739"/>
<polygon fill="black" stroke="black" points="665.277,-277.206 674.739,-272.438 664.369,-270.266 665.277,-277.206"/>
</a>
</g>
</g>
</svg>
