<?xml version="1.0" encoding="UTF-8" standalone="no"?>
<!DOCTYPE svg PUBLIC "-//W3C//DTD SVG 1.1//EN"
 "http://www.w3.org/Graphics/SVG/1.1/DTD/svg11.dtd">
<!-- Generated by graphviz version 2.28.0 (20110507.0327)
 -->
<!-- Title: MMT Pages: 1 -->
<svg
 viewBox="0.00 0.00 1404.00 368.00" xmlns="http://www.w3.org/2000/svg" xmlns:xlink="http://www.w3.org/1999/xlink">
<g id="graph1" class="graph" transform="scale(1 1) rotate(0) translate(4 364)">
<title>MMT</title>
<polygon fill="white" stroke="white" points="-4,5 -4,-364 1401,-364 1401,5 -4,5"/>
<g id="graph2" class="cluster"><title>cluster_local</title>
<polygon fill="none" stroke="black" points="579,-80 579,-132 653,-132 653,-80 579,-80"/>
</g>
<!-- http://latin.omdoc.org/logics/syntax?FOL -->
<g id="node2" class="node"><title>http://latin.omdoc.org/logics/syntax?FOL</title>
<a xlink:href="http://latin.omdoc.org/logics/syntax?FOL" class="graphtheory">
<ellipse fill="none" stroke="black" cx="616" cy="-106" rx="28.3955" ry="18"/>
<text text-anchor="middle" x="616" y="-102.3" font-family="Times New Roman,serif" font-size="14.00">FOL</text>
</a>
</g>
<!-- http://latin.omdoc.org/logics/model_theory?FOLMOD -->
<g id="node3" class="node"><title>http://latin.omdoc.org/logics/model_theory?FOLMOD</title>
<a xlink:href="http://latin.omdoc.org/logics/model_theory?FOLMOD" class="graphtheory">
<ellipse fill="gray" stroke="black" cx="1212" cy="-18" rx="49.0941" ry="18"/>
<text text-anchor="middle" x="1212" y="-14.3" font-family="Times New Roman,serif" font-size="14.00">FOLMOD</text>
</a>
</g>
<!-- http://latin.omdoc.org/logics/syntax?FOL&#45;&gt;http://latin.omdoc.org/logics/model_theory?FOLMOD -->
<g id="edge3" class="edge"><title>http://latin.omdoc.org/logics/syntax?FOL&#45;&gt;http://latin.omdoc.org/logics/model_theory?FOLMOD</title>
<a xlink:href="http://latin.omdoc.org/logics/model_theory?FOL" class="graphview">
<path fill="none" stroke="black" d="M630.821,-90.564C635.886,-86.4546 641.837,-82.4367 648,-80 671.032,-70.8935 734.36,-72.4967 759,-70 902.194,-55.4911 1070.55,-35.8592 1156.05,-25.7047"/>
<polygon fill="black" stroke="black" points="1156.54,-29.1708 1166.06,-24.5143 1155.72,-22.2198 1156.54,-29.1708"/>
</a>
<a xlink:href="http://latin.omdoc.org/logics/model_theory?FOL" class="FOL">
<text text-anchor="middle" x="923" y="-58.3" font-family="Times New Roman,serif" font-size="14.00">FOL</text>
</a>
</g>
<!-- http://latin.omdoc.org/foundations/mizar?FOLEQMizarView -->
<g id="node5" class="node"><title>http://latin.omdoc.org/foundations/mizar?FOLEQMizarView</title>
<a xlink:href="http://latin.omdoc.org/foundations/mizar?FOLEQMizarView" class="graphtheory">
<ellipse fill="gray" stroke="black" cx="403" cy="-18" rx="78.9404" ry="18"/>
<text text-anchor="middle" x="403" y="-14.3" font-family="Times New Roman,serif" font-size="14.00">FOLEQMizarView</text>
</a>
</g>
<!-- http://latin.omdoc.org/logics/syntax?FOL&#45;&gt;http://latin.omdoc.org/foundations/mizar?FOLEQMizarView -->
<g id="edge5" class="edge"><title>http://latin.omdoc.org/logics/syntax?FOL&#45;&gt;http://latin.omdoc.org/foundations/mizar?FOLEQMizarView</title>
<a xlink:href="http://latin.omdoc.org/foundations/mizar?FOLEQMizarView?[http://latin.omdoc.org/logics/syntax?FOL]" class="graphstructure">
<path fill="none" stroke="black" d="M601.031,-90.6986C595.737,-86.4899 589.477,-82.3794 583,-80 564.302,-73.1308 417.828,-84.3381 404,-70 398.056,-63.8368 396.459,-55.0541 396.774,-46.5098"/>
<polygon fill="black" stroke="black" points="400.271,-46.7336 397.942,-36.398 393.317,-45.9303 400.271,-46.7336"/>
</a>
<a xlink:href="http://latin.omdoc.org/foundations/mizar?FOLEQMizarView?[http://latin.omdoc.org/logics/syntax?FOL]" class="[http://latin.omdoc.org/logics/syntax?FOL]">
<text text-anchor="middle" x="524" y="-58.3" font-family="Times New Roman,serif" font-size="14.00">[http://latin.omdoc.org/logics/syntax?FOL]</text>
</a>
</g>
<!-- http://latin.omdoc.org/logics/model_theory?FOLEQ -->
<g id="node7" class="node"><title>http://latin.omdoc.org/logics/model_theory?FOLEQ</title>
<a xlink:href="http://latin.omdoc.org/logics/model_theory?FOLEQ" class="graphtheory">
<ellipse fill="gray" stroke="black" cx="146" cy="-18" rx="39.9464" ry="18"/>
<text text-anchor="middle" x="146" y="-14.3" font-family="Times New Roman,serif" font-size="14.00">FOLEQ</text>
</a>
</g>
<!-- http://latin.omdoc.org/logics/syntax?FOL&#45;&gt;http://latin.omdoc.org/logics/model_theory?FOLEQ -->
<g id="edge7" class="edge"><title>http://latin.omdoc.org/logics/syntax?FOL&#45;&gt;http://latin.omdoc.org/logics/model_theory?FOLEQ</title>
<a xlink:href="http://latin.omdoc.org/logics/model_theory?FOLEQ?[http://latin.omdoc.org/logics/syntax?FOL]" class="graphstructure">
<path fill="none" stroke="black" d="M601.076,-90.5748C595.784,-86.358 589.515,-82.2739 583,-80 560.492,-72.1438 171.935,-85.7062 154,-70 147.312,-64.1433 144.606,-55.1689 143.8,-46.372"/>
<polygon fill="black" stroke="black" points="147.298,-46.253 143.602,-36.3241 140.3,-46.3912 147.298,-46.253"/>
</a>
<a xlink:href="http://latin.omdoc.org/logics/model_theory?FOLEQ?[http://latin.omdoc.org/logics/syntax?FOL]" class="[http://latin.omdoc.org/logics/syntax?FOL]">
<text text-anchor="middle" x="274" y="-58.3" font-family="Times New Roman,serif" font-size="14.00">[http://latin.omdoc.org/logics/syntax?FOL]</text>
</a>
</g>
<!-- http://latin.omdoc.org/foundations/mizar?Mizar -->
<g id="node9" class="node"><title>http://latin.omdoc.org/foundations/mizar?Mizar</title>
<a xlink:href="http://latin.omdoc.org/foundations/mizar?Mizar" class="graphtheory">
<ellipse fill="gray" stroke="black" cx="929" cy="-18" rx="31.2965" ry="18"/>
<text text-anchor="middle" x="929" y="-14.3" font-family="Times New Roman,serif" font-size="14.00">Mizar</text>
</a>
</g>
<!-- http://latin.omdoc.org/logics/syntax?FOL&#45;&gt;http://latin.omdoc.org/foundations/mizar?Mizar -->
<g id="edge9" class="edge"><title>http://latin.omdoc.org/logics/syntax?FOL&#45;&gt;http://latin.omdoc.org/foundations/mizar?Mizar</title>
<a xlink:href="http://latin.omdoc.org/foundations/mizar?FOLMizarView" class="graphview">
<path fill="none" stroke="black" d="M627.079,-89.3307C636.328,-77.5502 650.611,-62.1014 667,-54 704.897,-35.2663 823.953,-25.369 887.718,-21.2925"/>
<polygon fill="black" stroke="black" points="888.066,-24.7777 897.83,-20.6652 887.632,-17.7911 888.066,-24.7777"/>
</a>
<a xlink:href="http://latin.omdoc.org/foundations/mizar?FOLMizarView" class="FOLMizarView">
<text text-anchor="middle" x="711" y="-58.3" font-family="Times New Roman,serif" font-size="14.00">FOLMizarView</text>
</a>
</g>
<!-- http://latin.omdoc.org/translations/ml_fol?ML&#45;FOL -->
<g id="node19" class="node"><title>http://latin.omdoc.org/translations/ml_fol?ML&#45;FOL</title>
<a xlink:href="http://latin.omdoc.org/translations/ml_fol?ML-FOL" class="graphtheory">
<ellipse fill="gray" stroke="black" cx="44" cy="-18" rx="44.2946" ry="18"/>
<text text-anchor="middle" x="44" y="-14.3" font-family="Times New Roman,serif" font-size="14.00">ML&#45;FOL</text>
</a>
</g>
<!-- http://latin.omdoc.org/logics/syntax?FOL&#45;&gt;http://latin.omdoc.org/translations/ml_fol?ML&#45;FOL -->
<g id="edge19" class="edge"><title>http://latin.omdoc.org/logics/syntax?FOL&#45;&gt;http://latin.omdoc.org/translations/ml_fol?ML&#45;FOL</title>
<a class="graphinclude">
<path fill="none" stroke="black" d="M601.077,-90.5724C595.785,-86.3554 589.515,-82.2718 583,-80 536.72,-63.8629 189.474,-82.1856 142,-70 117.733,-63.7711 92.7154,-50.6205 74.0314,-39.2337"/>
<polygon fill="black" stroke="black" points="75.7312,-36.1684 65.3991,-33.8235 72.0138,-42.0998 75.7312,-36.1684"/>
</a>
</g>
<!-- http://latin.omdoc.org/logics/syntax?FOLEQ -->
<g id="node21" class="node"><title>http://latin.omdoc.org/logics/syntax?FOLEQ</title>
<a xlink:href="http://latin.omdoc.org/logics/syntax?FOLEQ" class="graphtheory">
<ellipse fill="gray" stroke="black" cx="1328" cy="-106" rx="39.9464" ry="18"/>
<text text-anchor="middle" x="1328" y="-102.3" font-family="Times New Roman,serif" font-size="14.00">FOLEQ</text>
</a>
</g>
<!-- http://latin.omdoc.org/logics/syntax?FOL&#45;&gt;http://latin.omdoc.org/logics/syntax?FOLEQ -->
<g id="edge21" class="edge"><title>http://latin.omdoc.org/logics/syntax?FOL&#45;&gt;http://latin.omdoc.org/logics/syntax?FOLEQ</title>
<a class="graphinclude">
<path fill="none" stroke="black" d="M625.348,-123.158C632.424,-134.215 643.265,-147.668 657,-154 710.682,-178.746 1130.7,-163.782 1189,-154 1224.47,-148.048 1263,-134.109 1290.48,-122.777"/>
<polygon fill="black" stroke="black" points="1291.85,-125.997 1299.71,-118.895 1289.14,-119.544 1291.85,-125.997"/>
</a>
</g>
<!-- http://latin.omdoc.org/logics/syntax?SForall -->
<g id="node11" class="node"><title>http://latin.omdoc.org/logics/syntax?SForall</title>
<a xlink:href="http://latin.omdoc.org/logics/syntax?SForall" class="graphtheory">
<ellipse fill="gray" stroke="black" cx="490" cy="-194" rx="37.0701" ry="18"/>
<text text-anchor="middle" x="490" y="-190.3" font-family="Times New Roman,serif" font-size="14.00">SForall</text>
</a>
</g>
<!-- http://latin.omdoc.org/logics/syntax?SForall&#45;&gt;http://latin.omdoc.org/logics/syntax?FOL -->
<g id="edge11" class="edge"><title>http://latin.omdoc.org/logics/syntax?SForall&#45;&gt;http://latin.omdoc.org/logics/syntax?FOL</title>
<a xlink:href="http://latin.omdoc.org/translations/sfol_fol?SForall" class="graphview">
<path fill="none" stroke="black" d="M491.897,-175.671C494.089,-164.325 498.814,-150.14 509,-142 534.926,-121.28 552.321,-144.658 583,-132 586.123,-130.712 589.211,-129.053 592.173,-127.205"/>
<polygon fill="black" stroke="black" points="594.433,-129.894 600.584,-121.267 590.396,-124.175 594.433,-129.894"/>
</a>
<a xlink:href="http://latin.omdoc.org/translations/sfol_fol?SForall" class="SForall">
<text text-anchor="middle" x="529.5" y="-146.3" font-family="Times New Roman,serif" font-size="14.00">SForall</text>
</a>
</g>
<!-- http://latin.omdoc.org/logics/syntax?SFOL -->
<g id="node17" class="node"><title>http://latin.omdoc.org/logics/syntax?SFOL</title>
<a xlink:href="http://latin.omdoc.org/logics/syntax?SFOL" class="graphtheory">
<ellipse fill="gray" stroke="black" cx="425" cy="-106" rx="33.1991" ry="18"/>
<text text-anchor="middle" x="425" y="-102.3" font-family="Times New Roman,serif" font-size="14.00">SFOL</text>
</a>
</g>
<!-- http://latin.omdoc.org/logics/syntax?SForall&#45;&gt;http://latin.omdoc.org/logics/syntax?SFOL -->
<g id="edge89" class="edge"><title>http://latin.omdoc.org/logics/syntax?SForall&#45;&gt;http://latin.omdoc.org/logics/syntax?SFOL</title>
<a class="graphinclude">
<path fill="none" stroke="black" d="M477.774,-176.824C467.998,-163.89 454.147,-145.564 443.088,-130.932"/>
<polygon fill="black" stroke="black" points="445.773,-128.68 436.952,-122.813 440.189,-132.901 445.773,-128.68"/>
</a>
</g>
<!-- http://latin.omdoc.org/logics/syntax?BaseSFOL -->
<g id="node13" class="node"><title>http://latin.omdoc.org/logics/syntax?BaseSFOL</title>
<a xlink:href="http://latin.omdoc.org/logics/syntax?BaseSFOL" class="graphtheory">
<ellipse fill="gray" stroke="black" cx="490" cy="-268" rx="51.0191" ry="18"/>
<text text-anchor="middle" x="490" y="-264.3" font-family="Times New Roman,serif" font-size="14.00">BaseSFOL</text>
</a>
</g>
<!-- http://latin.omdoc.org/logics/syntax?BaseSFOL&#45;&gt;http://latin.omdoc.org/logics/syntax?FOL -->
<g id="edge13" class="edge"><title>http://latin.omdoc.org/logics/syntax?BaseSFOL&#45;&gt;http://latin.omdoc.org/logics/syntax?FOL</title>
<a xlink:href="http://latin.omdoc.org/translations/sfol_fol?BaseSFOL" class="graphview">
<path fill="none" stroke="black" d="M504.293,-250.313C513.477,-239.493 525.592,-225.035 536,-212 557.994,-184.455 582.438,-152.106 598.448,-130.669"/>
<polygon fill="black" stroke="black" points="601.388,-132.581 604.557,-122.471 595.775,-128.398 601.388,-132.581"/>
</a>
<a xlink:href="http://latin.omdoc.org/translations/sfol_fol?BaseSFOL" class="BaseSFOL">
<text text-anchor="middle" x="595.5" y="-190.3" font-family="Times New Roman,serif" font-size="14.00">BaseSFOL</text>
</a>
</g>
<!-- http://latin.omdoc.org/logics/syntax?BaseSFOL&#45;&gt;http://latin.omdoc.org/logics/syntax?SForall -->
<g id="edge83" class="edge"><title>http://latin.omdoc.org/logics/syntax?BaseSFOL&#45;&gt;http://latin.omdoc.org/logics/syntax?SForall</title>
<a class="graphinclude">
<path fill="none" stroke="black" d="M490,-249.937C490,-241.807 490,-231.876 490,-222.705"/>
<polygon fill="black" stroke="black" points="493.5,-222.441 490,-212.441 486.5,-222.441 493.5,-222.441"/>
</a>
</g>
<!-- http://latin.omdoc.org/logics/syntax?SExists -->
<g id="node15" class="node"><title>http://latin.omdoc.org/logics/syntax?SExists</title>
<a xlink:href="http://latin.omdoc.org/logics/syntax?SExists" class="graphtheory">
<ellipse fill="gray" stroke="black" cx="359" cy="-194" rx="38.0212" ry="18"/>
<text text-anchor="middle" x="359" y="-190.3" font-family="Times New Roman,serif" font-size="14.00">SExists</text>
</a>
</g>
<!-- http://latin.omdoc.org/logics/syntax?BaseSFOL&#45;&gt;http://latin.omdoc.org/logics/syntax?SExists -->
<g id="edge85" class="edge"><title>http://latin.omdoc.org/logics/syntax?BaseSFOL&#45;&gt;http://latin.omdoc.org/logics/syntax?SExists</title>
<a class="graphinclude">
<path fill="none" stroke="black" d="M456.99,-254.129C442.545,-248.054 425.599,-240.315 411,-232 402.834,-227.349 394.372,-221.719 386.705,-216.269"/>
<polygon fill="black" stroke="black" points="388.279,-213.085 378.137,-210.023 384.156,-218.742 388.279,-213.085"/>
</a>
</g>
<!-- http://latin.omdoc.org/logics/syntax?BaseSFOL&#45;&gt;http://latin.omdoc.org/logics/syntax?SFOL -->
<g id="edge87" class="edge"><title>http://latin.omdoc.org/logics/syntax?BaseSFOL&#45;&gt;http://latin.omdoc.org/logics/syntax?SFOL</title>
<a class="graphinclude">
<path fill="none" stroke="black" d="M472.525,-250.796C462.615,-240.61 450.86,-226.656 444,-212 432.445,-187.312 427.896,-156.316 426.117,-134.42"/>
<polygon fill="black" stroke="black" points="429.591,-133.919 425.432,-124.175 422.607,-134.386 429.591,-133.919"/>
</a>
</g>
<!-- http://latin.omdoc.org/logics/syntax?SExists&#45;&gt;http://latin.omdoc.org/logics/syntax?FOL -->
<g id="edge15" class="edge"><title>http://latin.omdoc.org/logics/syntax?SExists&#45;&gt;http://latin.omdoc.org/logics/syntax?FOL</title>
<a xlink:href="http://latin.omdoc.org/translations/sfol_fol?SExists" class="graphview">
<path fill="none" stroke="black" d="M379.048,-178.53C396.96,-166.448 424.408,-149.961 451,-142 507.363,-125.126 527.978,-152.835 583,-132 586.159,-130.804 589.271,-129.204 592.246,-127.389"/>
<polygon fill="black" stroke="black" points="594.488,-130.092 600.671,-121.489 590.472,-124.358 594.488,-130.092"/>
</a>
<a xlink:href="http://latin.omdoc.org/translations/sfol_fol?SExists" class="SExists">
<text text-anchor="middle" x="472.5" y="-146.3" font-family="Times New Roman,serif" font-size="14.00">SExists</text>
</a>
</g>
<!-- http://latin.omdoc.org/logics/syntax?SExists&#45;&gt;http://latin.omdoc.org/logics/syntax?SFOL -->
<g id="edge81" class="edge"><title>http://latin.omdoc.org/logics/syntax?SExists&#45;&gt;http://latin.omdoc.org/logics/syntax?SFOL</title>
<a class="graphinclude">
<path fill="none" stroke="black" d="M349.409,-176.245C344.751,-165.7 341.429,-152.205 348,-142 356.203,-129.26 370.304,-121.104 384.214,-115.907"/>
<polygon fill="black" stroke="black" points="385.342,-119.22 393.74,-112.761 383.147,-112.573 385.342,-119.22"/>
</a>
</g>
<!-- http://latin.omdoc.org/logics/syntax?SFOL&#45;&gt;http://latin.omdoc.org/logics/syntax?FOL -->
<g id="edge17" class="edge"><title>http://latin.omdoc.org/logics/syntax?SFOL&#45;&gt;http://latin.omdoc.org/logics/syntax?FOL</title>
<a xlink:href="http://latin.omdoc.org/translations/sfol_fol?SFOL" class="graphview">
<path fill="none" stroke="black" d="M458.707,-106C491.9,-106 542.545,-106 577.351,-106"/>
<polygon fill="black" stroke="black" points="577.607,-109.5 587.607,-106 577.607,-102.5 577.607,-109.5"/>
</a>
<a xlink:href="http://latin.omdoc.org/translations/sfol_fol?SFOL" class="SFOL">
<text text-anchor="middle" x="522.701" y="-112.8" font-family="Times New Roman,serif" font-size="14.00">SFOL</text>
</a>
</g>
<!-- http://latin.omdoc.org/logics/syntax?FOLEQ&#45;&gt;http://latin.omdoc.org/logics/model_theory?FOLMOD -->
<g id="edge79" class="edge"><title>http://latin.omdoc.org/logics/syntax?FOLEQ&#45;&gt;http://latin.omdoc.org/logics/model_theory?FOLMOD</title>
<a xlink:href="http://latin.omdoc.org/logics/model_theory?FOLEQ" class="graphview">
<path fill="none" stroke="black" d="M1326.91,-87.8754C1325.35,-76.9096 1321.66,-63.0838 1313,-54 1300.8,-41.2012 1283.68,-33.0812 1267,-27.9301"/>
<polygon fill="black" stroke="black" points="1267.85,-24.532 1257.28,-25.2274 1265.97,-31.2765 1267.85,-24.532"/>
</a>
<a xlink:href="http://latin.omdoc.org/logics/model_theory?FOLEQ" class="FOLEQ">
<text text-anchor="middle" x="1346" y="-58.3" font-family="Times New Roman,serif" font-size="14.00">FOLEQ</text>
</a>
</g>
<!-- http://latin.omdoc.org/logics/syntax?FOLEQ&#45;&gt;http://latin.omdoc.org/foundations/mizar?Mizar -->
<g id="edge77" class="edge"><title>http://latin.omdoc.org/logics/syntax?FOLEQ&#45;&gt;http://latin.omdoc.org/foundations/mizar?Mizar</title>
<a xlink:href="http://latin.omdoc.org/foundations/mizar?FOLEQMizarView" class="graphview">
<path fill="none" stroke="black" d="M1303.32,-91.719C1294.32,-87.3759 1283.91,-82.922 1274,-80 1243.43,-70.9868 1233.92,-77.7094 1203,-70 1182.81,-64.966 1179.16,-59.1459 1159,-54 1093.83,-37.3663 1016.12,-27.5628 969.763,-22.7419"/>
<polygon fill="black" stroke="black" points="969.823,-19.2302 959.522,-21.7052 969.118,-26.1946 969.823,-19.2302"/>
</a>
<a xlink:href="http://latin.omdoc.org/foundations/mizar?FOLEQMizarView" class="FOLEQMizarView">
<text text-anchor="middle" x="1256" y="-58.3" font-family="Times New Roman,serif" font-size="14.00">FOLEQMizarView</text>
</a>
</g>
<!-- http://latin.omdoc.org/logics/syntax?Forall -->
<g id="node23" class="node"><title>http://latin.omdoc.org/logics/syntax?Forall</title>
<a xlink:href="http://latin.omdoc.org/logics/syntax?Forall" class="graphtheory">
<ellipse fill="gray" stroke="black" cx="824" cy="-194" rx="31.2735" ry="18"/>
<text text-anchor="middle" x="824" y="-190.3" font-family="Times New Roman,serif" font-size="14.00">Forall</text>
</a>
</g>
<!-- http://latin.omdoc.org/logics/syntax?Forall&#45;&gt;http://latin.omdoc.org/logics/syntax?FOL -->
<g id="edge23" class="edge"><title>http://latin.omdoc.org/logics/syntax?Forall&#45;&gt;http://latin.omdoc.org/logics/syntax?FOL</title>
<a class="graphinclude">
<path fill="none" stroke="black" d="M805.865,-178.925C788.024,-165.373 761.796,-146.314 750,-142 707.22,-126.356 690.293,-148.915 648,-132 644.923,-130.77 641.898,-129.148 639.008,-127.321"/>
<polygon fill="black" stroke="black" points="640.987,-124.432 630.833,-121.407 636.884,-130.104 640.987,-124.432"/>
</a>
</g>
<!-- http://latin.omdoc.org/logics/syntax?Forall&#45;&gt;http://latin.omdoc.org/logics/model_theory?FOLMOD -->
<g id="edge73" class="edge"><title>http://latin.omdoc.org/logics/syntax?Forall&#45;&gt;http://latin.omdoc.org/logics/model_theory?FOLMOD</title>
<a xlink:href="http://latin.omdoc.org/logics/model_theory?Forall" class="graphview">
<path fill="none" stroke="black" d="M841.917,-179.168C857.637,-166.945 881.041,-148.542 901,-132 928.17,-109.483 929.639,-96.1777 961,-80 1023.02,-48.005 1102.4,-32.3674 1155.1,-25.0233"/>
<polygon fill="black" stroke="black" points="1155.83,-28.4576 1165.28,-23.6627 1154.9,-21.5194 1155.83,-28.4576"/>
</a>
<a xlink:href="http://latin.omdoc.org/logics/model_theory?Forall" class="Forall">
<text text-anchor="middle" x="977.5" y="-102.3" font-family="Times New Roman,serif" font-size="14.00">Forall</text>
</a>
</g>
<!-- http://latin.omdoc.org/logics/syntax?Forall&#45;&gt;http://latin.omdoc.org/foundations/mizar?Mizar -->
<g id="edge75" class="edge"><title>http://latin.omdoc.org/logics/syntax?Forall&#45;&gt;http://latin.omdoc.org/foundations/mizar?Mizar</title>
<a xlink:href="http://latin.omdoc.org/foundations/mizar?ForallMizarView" class="graphview">
<path fill="none" stroke="black" d="M815.299,-176.286C804.467,-152.931 789.508,-110.032 808,-80 825.742,-51.1863 861.745,-35.4943 889.888,-27.2749"/>
<polygon fill="black" stroke="black" points="891.116,-30.5684 899.852,-24.5744 889.285,-23.8121 891.116,-30.5684"/>
</a>
<a xlink:href="http://latin.omdoc.org/foundations/mizar?ForallMizarView" class="ForallMizarView">
<text text-anchor="middle" x="854.5" y="-102.3" font-family="Times New Roman,serif" font-size="14.00">ForallMizarView</text>
</a>
</g>
<!-- http://latin.omdoc.org/logics/syntax?PL -->
<g id="node25" class="node"><title>http://latin.omdoc.org/logics/syntax?PL</title>
<a xlink:href="http://latin.omdoc.org/logics/syntax?PL" class="graphtheory">
<ellipse fill="gray" stroke="black" cx="671" cy="-194" rx="27" ry="18"/>
<text text-anchor="middle" x="671" y="-190.3" font-family="Times New Roman,serif" font-size="14.00">PL</text>
</a>
</g>
<!-- http://latin.omdoc.org/logics/syntax?PL&#45;&gt;http://latin.omdoc.org/logics/syntax?FOL -->
<g id="edge25" class="edge"><title>http://latin.omdoc.org/logics/syntax?PL&#45;&gt;http://latin.omdoc.org/logics/syntax?FOL</title>
<a class="graphinclude">
<path fill="none" stroke="black" d="M657.532,-178.231C652.358,-172.191 646.596,-164.989 642,-158 636.819,-150.122 631.908,-141.078 627.777,-132.815"/>
<polygon fill="black" stroke="black" points="630.821,-131.07 623.318,-123.59 624.519,-134.117 630.821,-131.07"/>
</a>
</g>
<!-- http://latin.omdoc.org/logics/syntax?PL&#45;&gt;http://latin.omdoc.org/foundations/mizar?Mizar -->
<g id="edge69" class="edge"><title>http://latin.omdoc.org/logics/syntax?PL&#45;&gt;http://latin.omdoc.org/foundations/mizar?Mizar</title>
<a xlink:href="http://latin.omdoc.org/foundations/mizar?PLMizarView" class="graphview">
<path fill="none" stroke="black" d="M673.553,-175.725C678.144,-150.887 690.157,-105.299 719,-80 731.484,-69.05 739.032,-74.5577 755,-70 802.387,-56.4745 856.885,-40.4197 892.077,-29.9869"/>
<polygon fill="black" stroke="black" points="893.318,-33.2696 901.909,-27.0695 891.327,-26.5588 893.318,-33.2696"/>
</a>
<a xlink:href="http://latin.omdoc.org/foundations/mizar?PLMizarView" class="PLMizarView">
<text text-anchor="middle" x="757.5" y="-102.3" font-family="Times New Roman,serif" font-size="14.00">PLMizarView</text>
</a>
</g>
<!-- http://latin.omdoc.org/logics/syntax?PL&#45;&gt;http://latin.omdoc.org/logics/syntax?SFOL -->
<g id="edge71" class="edge"><title>http://latin.omdoc.org/logics/syntax?PL&#45;&gt;http://latin.omdoc.org/logics/syntax?SFOL</title>
<a class="graphinclude">
<path fill="none" stroke="black" d="M649.665,-182.917C643.44,-180.317 636.549,-177.758 630,-176 571.114,-160.189 550.53,-180.845 494,-158 477.232,-151.224 460.85,-139.405 448.259,-128.85"/>
<polygon fill="black" stroke="black" points="450.409,-126.081 440.566,-122.162 445.816,-131.364 450.409,-126.081"/>
</a>
</g>
<!-- http://latin.omdoc.org/logics/syntax?Exists -->
<g id="node27" class="node"><title>http://latin.omdoc.org/logics/syntax?Exists</title>
<a xlink:href="http://latin.omdoc.org/logics/syntax?Exists" class="graphtheory">
<ellipse fill="gray" stroke="black" cx="1086" cy="-194" rx="32.2457" ry="18"/>
<text text-anchor="middle" x="1086" y="-190.3" font-family="Times New Roman,serif" font-size="14.00">Exists</text>
</a>
</g>
<!-- http://latin.omdoc.org/logics/syntax?Exists&#45;&gt;http://latin.omdoc.org/logics/syntax?FOL -->
<g id="edge27" class="edge"><title>http://latin.omdoc.org/logics/syntax?Exists&#45;&gt;http://latin.omdoc.org/logics/syntax?FOL</title>
<a class="graphinclude">
<path fill="none" stroke="black" d="M1056.1,-187.237C1000.8,-176.772 878.746,-154.568 775,-142 746.896,-138.595 674.385,-142.261 648,-132 644.912,-130.799 641.879,-129.196 638.985,-127.38"/>
<polygon fill="black" stroke="black" points="640.962,-124.491 630.805,-121.478 636.867,-130.167 640.962,-124.491"/>
</a>
</g>
<!-- http://latin.omdoc.org/logics/syntax?Exists&#45;&gt;http://latin.omdoc.org/logics/model_theory?FOLMOD -->
<g id="edge65" class="edge"><title>http://latin.omdoc.org/logics/syntax?Exists&#45;&gt;http://latin.omdoc.org/logics/model_theory?FOLMOD</title>
<a xlink:href="http://latin.omdoc.org/logics/model_theory?Exists" class="graphview">
<path fill="none" stroke="black" d="M1098.67,-177.177C1107.74,-165.28 1119.76,-148.294 1128,-132 1144.55,-99.2617 1132.03,-82.6015 1155,-54 1160.01,-47.7614 1166.45,-42.3455 1173.19,-37.7614"/>
<polygon fill="black" stroke="black" points="1175.17,-40.6562 1181.81,-32.4004 1171.47,-34.7134 1175.17,-40.6562"/>
</a>
<a xlink:href="http://latin.omdoc.org/logics/model_theory?Exists" class="Exists">
<text text-anchor="middle" x="1159" y="-102.3" font-family="Times New Roman,serif" font-size="14.00">Exists</text>
</a>
</g>
<!-- http://latin.omdoc.org/logics/syntax?Exists&#45;&gt;http://latin.omdoc.org/foundations/mizar?Mizar -->
<g id="edge67" class="edge"><title>http://latin.omdoc.org/logics/syntax?Exists&#45;&gt;http://latin.omdoc.org/foundations/mizar?Mizar</title>
<a xlink:href="http://latin.omdoc.org/foundations/mizar?ExistsMizarView" class="graphview">
<path fill="none" stroke="black" d="M1085.57,-175.608C1084.37,-164.529 1080.98,-150.678 1072,-142 1058.2,-128.665 1045.54,-143.25 1030,-132 1008.02,-116.091 1015.47,-100.768 998,-80 985.387,-65.0022 969.035,-50.3832 955.416,-39.218"/>
<polygon fill="black" stroke="black" points="957.336,-36.2712 947.347,-32.7399 952.954,-41.7297 957.336,-36.2712"/>
</a>
<a xlink:href="http://latin.omdoc.org/foundations/mizar?ExistsMizarView" class="ExistsMizarView">
<text text-anchor="middle" x="1077" y="-102.3" font-family="Times New Roman,serif" font-size="14.00">ExistsMizarView</text>
</a>
</g>
<!-- http://latin.omdoc.org/logics/syntax?UniverseLogic -->
<g id="node29" class="node"><title>http://latin.omdoc.org/logics/syntax?UniverseLogic</title>
<a xlink:href="http://latin.omdoc.org/logics/syntax?UniverseLogic" class="graphtheory">
<ellipse fill="gray" stroke="black" cx="906" cy="-268" rx="63.5411" ry="18"/>
<text text-anchor="middle" x="906" y="-264.3" font-family="Times New Roman,serif" font-size="14.00">UniverseLogic</text>
</a>
</g>
<!-- http://latin.omdoc.org/logics/syntax?UniverseLogic&#45;&gt;http://latin.omdoc.org/logics/syntax?FOL -->
<g id="edge29" class="edge"><title>http://latin.omdoc.org/logics/syntax?UniverseLogic&#45;&gt;http://latin.omdoc.org/logics/syntax?FOL</title>
<a class="graphinclude">
<path fill="none" stroke="black" d="M868.59,-253.409C843.489,-243.546 810.173,-228.989 783,-212 761.866,-198.787 760.922,-189.546 740,-176 710.967,-157.202 701.301,-156.713 670,-142 660.28,-137.431 657.185,-137.567 648,-132 645.513,-130.493 642.997,-128.822 640.525,-127.08"/>
<polygon fill="black" stroke="black" points="642.508,-124.192 632.401,-121.014 638.32,-129.801 642.508,-124.192"/>
</a>
</g>
<!-- http://latin.omdoc.org/logics/syntax?UniverseLogic&#45;&gt;http://latin.omdoc.org/logics/model_theory?FOLMOD -->
<g id="edge59" class="edge"><title>http://latin.omdoc.org/logics/syntax?UniverseLogic&#45;&gt;http://latin.omdoc.org/logics/model_theory?FOLMOD</title>
<a xlink:href="http://latin.omdoc.org/logics/model_theory?BaseFOL" class="graphview">
<path fill="none" stroke="black" d="M963.617,-260.341C1009.86,-253.233 1075.36,-239.103 1127,-212 1132.28,-209.229 1285.55,-75.4351 1288,-70 1295.7,-52.9488 1280.24,-40.7943 1261.3,-32.6391"/>
<polygon fill="black" stroke="black" points="1262.39,-29.3102 1251.8,-28.953 1259.86,-35.8355 1262.39,-29.3102"/>
</a>
<a xlink:href="http://latin.omdoc.org/logics/model_theory?BaseFOL" class="BaseFOL">
<text text-anchor="middle" x="1234.5" y="-146.3" font-family="Times New Roman,serif" font-size="14.00">BaseFOL</text>
</a>
</g>
<!-- http://latin.omdoc.org/logics/syntax?UniverseLogic&#45;&gt;http://latin.omdoc.org/foundations/mizar?Mizar -->
<g id="edge57" class="edge"><title>http://latin.omdoc.org/logics/syntax?UniverseLogic&#45;&gt;http://latin.omdoc.org/foundations/mizar?Mizar</title>
<a xlink:href="http://latin.omdoc.org/foundations/mizar?BaseFOLMizarView" class="graphview">
<path fill="none" stroke="black" d="M908.702,-249.799C913.541,-223.847 925.837,-174.291 953,-142 958.643,-135.292 965.648,-139.609 970,-132 981.474,-111.938 983.203,-98.9688 970,-80 962.69,-69.497 951.647,-79.4326 943,-70 937.001,-63.4562 933.536,-54.5804 931.547,-46.0676"/>
<polygon fill="black" stroke="black" points="934.964,-45.2864 929.782,-36.0451 928.07,-46.5006 934.964,-45.2864"/>
</a>
<a xlink:href="http://latin.omdoc.org/foundations/mizar?BaseFOLMizarView" class="BaseFOLMizarView">
<text text-anchor="middle" x="1010.5" y="-146.3" font-family="Times New Roman,serif" font-size="14.00">BaseFOLMizarView</text>
</a>
</g>
<!-- http://latin.omdoc.org/logics/syntax?UniverseLogic&#45;&gt;http://latin.omdoc.org/logics/syntax?Forall -->
<g id="edge61" class="edge"><title>http://latin.omdoc.org/logics/syntax?UniverseLogic&#45;&gt;http://latin.omdoc.org/logics/syntax?Forall</title>
<a class="graphinclude">
<path fill="none" stroke="black" d="M887.393,-250.662C875.842,-240.52 860.87,-227.374 848.377,-216.404"/>
<polygon fill="black" stroke="black" points="850.41,-213.531 840.586,-209.564 845.791,-218.792 850.41,-213.531"/>
</a>
</g>
<!-- http://latin.omdoc.org/logics/syntax?UniverseLogic&#45;&gt;http://latin.omdoc.org/logics/syntax?Exists -->
<g id="edge63" class="edge"><title>http://latin.omdoc.org/logics/syntax?UniverseLogic&#45;&gt;http://latin.omdoc.org/logics/syntax?Exists</title>
<a class="graphinclude">
<path fill="none" stroke="black" d="M941.133,-252.947C972.936,-240.226 1019.52,-221.592 1051.21,-208.914"/>
<polygon fill="black" stroke="black" points="1052.55,-212.148 1060.54,-205.184 1049.95,-205.649 1052.55,-212.148"/>
</a>
</g>
<!-- http://cds.omdoc.org/urtheories?LF -->
<g id="node31" class="node"><title>http://cds.omdoc.org/urtheories?LF</title>
<a xlink:href="http://cds.omdoc.org/urtheories?LF" class="graphtheory">
<ellipse fill="gray" stroke="black" cx="726" cy="-342" rx="27" ry="18"/>
<text text-anchor="middle" x="726" y="-338.3" font-family="Times New Roman,serif" font-size="14.00">LF</text>
</a>
</g>
<!-- http://cds.omdoc.org/urtheories?LF&#45;&gt;http://latin.omdoc.org/logics/syntax?FOL -->
<g id="edge31" class="edge"><title>http://cds.omdoc.org/urtheories?LF&#45;&gt;http://latin.omdoc.org/logics/syntax?FOL</title>
<a class="graphmeta">
<path fill="none" stroke="black" d="M729.032,-323.689C733.689,-291.401 739.003,-221.177 707,-176 696.429,-161.078 685.043,-168.398 670,-158 658.114,-149.784 646.288,-138.991 636.747,-129.449"/>
<polygon fill="black" stroke="black" points="639.111,-126.861 629.627,-122.139 634.097,-131.745 639.111,-126.861"/>
</a>
</g>
<!-- http://cds.omdoc.org/urtheories?LF&#45;&gt;http://latin.omdoc.org/logics/model_theory?FOLMOD -->
<g id="edge39" class="edge"><title>http://cds.omdoc.org/urtheories?LF&#45;&gt;http://latin.omdoc.org/logics/model_theory?FOLMOD</title>
<a class="graphmeta">
<path fill="none" stroke="black" d="M753.095,-340.983C878.441,-340.556 1396,-334.806 1396,-269 1396,-269 1396,-269 1396,-105 1396,-80.1349 1392.33,-69.6465 1373,-54 1357,-41.0434 1308.07,-31.5904 1268.32,-25.7981"/>
<polygon fill="black" stroke="black" points="1268.57,-22.2981 1258.17,-24.3688 1267.59,-29.2297 1268.57,-22.2981"/>
</a>
</g>
<!-- http://cds.omdoc.org/urtheories?LF&#45;&gt;http://latin.omdoc.org/foundations/mizar?Mizar -->
<g id="edge55" class="edge"><title>http://cds.omdoc.org/urtheories?LF&#45;&gt;http://latin.omdoc.org/foundations/mizar?Mizar</title>
<a class="graphmeta">
<path fill="none" stroke="black" d="M753.215,-340.229C862.034,-336.791 1260,-320.685 1260,-269 1260,-269 1260,-269 1260,-149 1260,-102.046 1221.75,-101.476 1180,-80 1111.17,-44.5954 1021.05,-29.2025 969.638,-22.9309"/>
<polygon fill="black" stroke="black" points="969.921,-19.4404 959.584,-21.761 969.112,-26.3934 969.921,-19.4404"/>
</a>
</g>
<!-- http://cds.omdoc.org/urtheories?LF&#45;&gt;http://latin.omdoc.org/logics/syntax?SForall -->
<g id="edge41" class="edge"><title>http://cds.omdoc.org/urtheories?LF&#45;&gt;http://latin.omdoc.org/logics/syntax?SForall</title>
<a class="graphmeta">
<path fill="none" stroke="black" d="M706.687,-329.052C665.751,-303.727 569.978,-244.478 520.616,-213.94"/>
<polygon fill="black" stroke="black" points="522.308,-210.871 511.962,-208.587 518.625,-216.824 522.308,-210.871"/>
</a>
</g>
<!-- http://cds.omdoc.org/urtheories?LF&#45;&gt;http://latin.omdoc.org/logics/syntax?BaseSFOL -->
<g id="edge53" class="edge"><title>http://cds.omdoc.org/urtheories?LF&#45;&gt;http://latin.omdoc.org/logics/syntax?BaseSFOL</title>
<a class="graphmeta">
<path fill="none" stroke="black" d="M700.923,-334.826C674.628,-328.218 632.18,-317.169 596,-306 575.382,-299.635 552.774,-291.856 533.753,-285.076"/>
<polygon fill="black" stroke="black" points="534.757,-281.718 524.162,-281.635 532.392,-288.307 534.757,-281.718"/>
</a>
</g>
<!-- http://cds.omdoc.org/urtheories?LF&#45;&gt;http://latin.omdoc.org/logics/syntax?SExists -->
<g id="edge35" class="edge"><title>http://cds.omdoc.org/urtheories?LF&#45;&gt;http://latin.omdoc.org/logics/syntax?SExists</title>
<a class="graphmeta">
<path fill="none" stroke="black" d="M699.494,-338.494C635.685,-332.081 475.451,-313.615 430,-286 404.192,-270.32 384.165,-241.566 372.056,-220.565"/>
<polygon fill="black" stroke="black" points="375.117,-218.867 367.208,-211.818 368.995,-222.261 375.117,-218.867"/>
</a>
</g>
<!-- http://cds.omdoc.org/urtheories?LF&#45;&gt;http://latin.omdoc.org/logics/syntax?SFOL -->
<g id="edge45" class="edge"><title>http://cds.omdoc.org/urtheories?LF&#45;&gt;http://latin.omdoc.org/logics/syntax?SFOL</title>
<a class="graphmeta">
<path fill="none" stroke="black" d="M699.366,-338.913C629.547,-333.09 442.904,-315.151 389,-286 336.508,-257.613 291.363,-231.995 312,-176 323.448,-144.938 357.779,-126.987 385.623,-117.227"/>
<polygon fill="black" stroke="black" points="386.737,-120.545 395.153,-114.108 384.56,-113.892 386.737,-120.545"/>
</a>
</g>
<!-- http://cds.omdoc.org/urtheories?LF&#45;&gt;http://latin.omdoc.org/translations/ml_fol?ML&#45;FOL -->
<g id="edge47" class="edge"><title>http://cds.omdoc.org/urtheories?LF&#45;&gt;http://latin.omdoc.org/translations/ml_fol?ML&#45;FOL</title>
<a class="graphmeta">
<path fill="none" stroke="black" d="M698.622,-341.013C571.966,-340.72 49,-335.486 49,-269 49,-269 49,-269 49,-105 49,-85.3706 47.6857,-63.2633 46.4048,-46.3787"/>
<polygon fill="black" stroke="black" points="49.8701,-45.8041 45.582,-36.1158 42.8924,-46.3635 49.8701,-45.8041"/>
</a>
</g>
<!-- http://cds.omdoc.org/urtheories?LF&#45;&gt;http://latin.omdoc.org/logics/syntax?FOLEQ -->
<g id="edge49" class="edge"><title>http://cds.omdoc.org/urtheories?LF&#45;&gt;http://latin.omdoc.org/logics/syntax?FOLEQ</title>
<a class="graphmeta">
<path fill="none" stroke="black" d="M753.054,-341.086C857.866,-341.176 1233.39,-339.165 1274,-306 1325.51,-263.939 1330.7,-178.141 1329.67,-134.224"/>
<polygon fill="black" stroke="black" points="1333.16,-133.88 1329.3,-124.014 1326.16,-134.134 1333.16,-133.88"/>
</a>
</g>
<!-- http://cds.omdoc.org/urtheories?LF&#45;&gt;http://latin.omdoc.org/logics/syntax?Forall -->
<g id="edge33" class="edge"><title>http://cds.omdoc.org/urtheories?LF&#45;&gt;http://latin.omdoc.org/logics/syntax?Forall</title>
<a class="graphmeta">
<path fill="none" stroke="black" d="M736.488,-325.375C753.492,-300.042 787.213,-249.806 807.47,-219.627"/>
<polygon fill="black" stroke="black" points="810.623,-221.208 813.291,-210.955 804.811,-217.307 810.623,-221.208"/>
</a>
</g>
<!-- http://cds.omdoc.org/urtheories?LF&#45;&gt;http://latin.omdoc.org/logics/syntax?PL -->
<g id="edge43" class="edge"><title>http://cds.omdoc.org/urtheories?LF&#45;&gt;http://latin.omdoc.org/logics/syntax?PL</title>
<a class="graphmeta">
<path fill="none" stroke="black" d="M719.215,-324.301C716.894,-318.518 714.302,-311.986 712,-306 700.873,-277.068 688.619,-243.679 680.432,-221.139"/>
<polygon fill="black" stroke="black" points="683.673,-219.81 676.975,-211.601 677.092,-222.195 683.673,-219.81"/>
</a>
</g>
<!-- http://cds.omdoc.org/urtheories?LF&#45;&gt;http://latin.omdoc.org/logics/syntax?Exists -->
<g id="edge51" class="edge"><title>http://cds.omdoc.org/urtheories?LF&#45;&gt;http://latin.omdoc.org/logics/syntax?Exists</title>
<a class="graphmeta">
<path fill="none" stroke="black" d="M752.768,-339.382C800.366,-335.612 901.87,-323.485 978,-286 1012.33,-269.097 1044.94,-238.984 1065.17,-218.049"/>
<polygon fill="black" stroke="black" points="1067.96,-220.19 1072.29,-210.521 1062.88,-215.378 1067.96,-220.19"/>
</a>
</g>
<!-- http://cds.omdoc.org/urtheories?LF&#45;&gt;http://latin.omdoc.org/logics/syntax?UniverseLogic -->
<g id="edge37" class="edge"><title>http://cds.omdoc.org/urtheories?LF&#45;&gt;http://latin.omdoc.org/logics/syntax?UniverseLogic</title>
<a class="graphmeta">
<path fill="none" stroke="black" d="M748.797,-331.881C776.9,-320.64 825.314,-301.274 861.008,-286.997"/>
<polygon fill="black" stroke="black" points="862.726,-290.079 870.711,-283.116 860.127,-283.58 862.726,-290.079"/>
</a>
</g>
</g>
</svg>
