<?xml version="1.0" encoding="UTF-8" standalone="no"?>
<!DOCTYPE svg PUBLIC "-//W3C//DTD SVG 1.1//EN"
 "http://www.w3.org/Graphics/SVG/1.1/DTD/svg11.dtd">
<!-- Generated by graphviz version 2.28.0 (20110507.0327)
 -->
<!-- Title: MMT Pages: 1 -->
<svg width="2156pt" height="294pt"
 viewBox="0.00 0.00 2155.90 294.00" xmlns="http://www.w3.org/2000/svg" xmlns:xlink="http://www.w3.org/1999/xlink">
<g id="graph1" class="graph" transform="scale(1 1) rotate(0) translate(4 290)">
<title>MMT</title>
<polygon fill="white" stroke="white" points="-4,5 -4,-290 2152.9,-290 2152.9,5 -4,5"/>
<g id="graph2" class="cluster"><title>cluster_local</title>
<polygon fill="none" stroke="black" points="1153.82,-168 1153.82,-220 1233.82,-220 1233.82,-168 1153.82,-168"/>
</g>
<!-- http://latin.omdoc.org/logics/syntax?Forall -->
<g id="node2" class="node"><title>http://latin.omdoc.org/logics/syntax?Forall</title>
<a xlink:href="http://latin.omdoc.org/logics/syntax?Forall" class="graphtheory">
<ellipse fill="none" stroke="black" cx="1193.82" cy="-194" rx="31.2735" ry="18"/>
<text text-anchor="middle" x="1193.82" y="-190.3" font-family="Times New Roman,serif" font-size="14.00">Forall</text>
</a>
</g>
<!-- http://latin.omdoc.org/translations/fol_ifol?DN&#45;IFOL -->
<g id="node3" class="node"><title>http://latin.omdoc.org/translations/fol_ifol?DN&#45;IFOL</title>
<a xlink:href="http://latin.omdoc.org/translations/fol_ifol?DN-IFOL" class="graphtheory">
<ellipse fill="gray" stroke="black" cx="1083.82" cy="-18" rx="46.1964" ry="18"/>
<text text-anchor="middle" x="1083.82" y="-14.3" font-family="Times New Roman,serif" font-size="14.00">DN&#45;IFOL</text>
</a>
</g>
<!-- http://latin.omdoc.org/logics/syntax?Forall&#45;&gt;http://latin.omdoc.org/translations/fol_ifol?DN&#45;IFOL -->
<g id="edge3" class="edge"><title>http://latin.omdoc.org/logics/syntax?Forall&#45;&gt;http://latin.omdoc.org/translations/fol_ifol?DN&#45;IFOL</title>
<a xlink:href="http://latin.omdoc.org/translations/fol_ifol?Forall" class="graphview">
<path fill="none" stroke="black" d="M1185.1,-176.329C1178.32,-164.982 1167.88,-150.529 1154.82,-142 1126.47,-123.499 1101.73,-150.613 1080.82,-124 1063.62,-102.116 1067.99,-69.0045 1074.33,-45.8315"/>
<polygon fill="black" stroke="black" points="1077.77,-46.5446 1077.31,-35.9598 1071.07,-44.5218 1077.77,-46.5446"/>
</a>
<a xlink:href="http://latin.omdoc.org/translations/fol_ifol?Forall" class="Forall">
<text text-anchor="middle" x="1097.32" y="-102.3" font-family="Times New Roman,serif" font-size="14.00">Forall</text>
</a>
</g>
<!-- http://latin.omdoc.org/translations/fol_ifol?ForallPF -->
<g id="node5" class="node"><title>http://latin.omdoc.org/translations/fol_ifol?ForallPF</title>
<a xlink:href="http://latin.omdoc.org/translations/fol_ifol?ForallPF" class="graphtheory">
<ellipse fill="gray" stroke="black" cx="148.816" cy="-106" rx="42.3701" ry="18"/>
<text text-anchor="middle" x="148.816" y="-102.3" font-family="Times New Roman,serif" font-size="14.00">ForallPF</text>
</a>
</g>
<!-- http://latin.omdoc.org/logics/syntax?Forall&#45;&gt;http://latin.omdoc.org/translations/fol_ifol?ForallPF -->
<g id="edge5" class="edge"><title>http://latin.omdoc.org/logics/syntax?Forall&#45;&gt;http://latin.omdoc.org/translations/fol_ifol?ForallPF</title>
<a xlink:href="http://latin.omdoc.org/translations/fol_ifol?ForallPF?[http://latin.omdoc.org/logics/syntax?Forall]" class="graphstructure">
<path fill="none" stroke="black" d="M1177.36,-178.508C1171.58,-174.287 1164.78,-170.217 1157.82,-168 1130.71,-159.366 153.832,-178.212 133.816,-158 127.068,-151.186 128.269,-141.502 132.078,-132.399"/>
<polygon fill="black" stroke="black" points="135.312,-133.764 136.767,-123.269 129.085,-130.566 135.312,-133.764"/>
</a>
<a xlink:href="http://latin.omdoc.org/translations/fol_ifol?ForallPF?[http://latin.omdoc.org/logics/syntax?Forall]" class="[http://latin.omdoc.org/logics/syntax?Forall]">
<text text-anchor="middle" x="256.316" y="-146.3" font-family="Times New Roman,serif" font-size="14.00">[http://latin.omdoc.org/logics/syntax?Forall]</text>
</a>
</g>
<!-- http://latin.omdoc.org/logics/model_theory?FOLMOD -->
<g id="node7" class="node"><title>http://latin.omdoc.org/logics/model_theory?FOLMOD</title>
<a xlink:href="http://latin.omdoc.org/logics/model_theory?FOLMOD" class="graphtheory">
<ellipse fill="gray" stroke="black" cx="1601.82" cy="-18" rx="49.0941" ry="18"/>
<text text-anchor="middle" x="1601.82" y="-14.3" font-family="Times New Roman,serif" font-size="14.00">FOLMOD</text>
</a>
</g>
<!-- http://latin.omdoc.org/logics/syntax?Forall&#45;&gt;http://latin.omdoc.org/logics/model_theory?FOLMOD -->
<g id="edge7" class="edge"><title>http://latin.omdoc.org/logics/syntax?Forall&#45;&gt;http://latin.omdoc.org/logics/model_theory?FOLMOD</title>
<a xlink:href="http://latin.omdoc.org/logics/model_theory?Forall" class="graphview">
<path fill="none" stroke="black" d="M1191.76,-175.838C1189.72,-165.131 1185.71,-151.608 1177.82,-142 1167.21,-129.091 1153.34,-138.366 1144.82,-124 1136.65,-110.242 1136.36,-101.586 1144.82,-88 1162.87,-58.9707 1180.9,-63.2473 1213.82,-54 1274.14,-37.0501 1450.43,-26.3001 1543.19,-21.6554"/>
<polygon fill="black" stroke="black" points="1543.45,-25.1472 1553.26,-21.1588 1543.1,-18.1557 1543.45,-25.1472"/>
</a>
<a xlink:href="http://latin.omdoc.org/logics/model_theory?Forall" class="Forall">
<text text-anchor="middle" x="1161.32" y="-102.3" font-family="Times New Roman,serif" font-size="14.00">Forall</text>
</a>
</g>
<!-- http://latin.omdoc.org/foundations/mizar?Mizar -->
<g id="node9" class="node"><title>http://latin.omdoc.org/foundations/mizar?Mizar</title>
<a xlink:href="http://latin.omdoc.org/foundations/mizar?Mizar" class="graphtheory">
<ellipse fill="gray" stroke="black" cx="1913.82" cy="-18" rx="31.2965" ry="18"/>
<text text-anchor="middle" x="1913.82" y="-14.3" font-family="Times New Roman,serif" font-size="14.00">Mizar</text>
</a>
</g>
<!-- http://latin.omdoc.org/logics/syntax?Forall&#45;&gt;http://latin.omdoc.org/foundations/mizar?Mizar -->
<g id="edge9" class="edge"><title>http://latin.omdoc.org/logics/syntax?Forall&#45;&gt;http://latin.omdoc.org/foundations/mizar?Mizar</title>
<a xlink:href="http://latin.omdoc.org/foundations/mizar?ForallMizarView" class="graphview">
<path fill="none" stroke="black" d="M1211.28,-178.856C1216.68,-174.954 1222.79,-170.98 1228.82,-168 1258.62,-153.258 1342.7,-140.044 1371.82,-124 1393.35,-112.136 1391.4,-98.0896 1413.82,-88 1496,-51.016 1768.89,-28.9195 1872.99,-21.6624"/>
<polygon fill="black" stroke="black" points="1873.37,-25.1449 1883.1,-20.9672 1872.89,-18.1614 1873.37,-25.1449"/>
</a>
<a xlink:href="http://latin.omdoc.org/foundations/mizar?ForallMizarView" class="ForallMizarView">
<text text-anchor="middle" x="1460.32" y="-102.3" font-family="Times New Roman,serif" font-size="14.00">ForallMizarView</text>
</a>
</g>
<!-- http://latin.omdoc.org/foundations/mizar?ForallPFMizarView -->
<g id="node11" class="node"><title>http://latin.omdoc.org/foundations/mizar?ForallPFMizarView</title>
<a xlink:href="http://latin.omdoc.org/foundations/mizar?ForallPFMizarView" class="graphtheory">
<ellipse fill="gray" stroke="black" cx="372.816" cy="-106" rx="81.3646" ry="18"/>
<text text-anchor="middle" x="372.816" y="-102.3" font-family="Times New Roman,serif" font-size="14.00">ForallPFMizarView</text>
</a>
</g>
<!-- http://latin.omdoc.org/logics/syntax?Forall&#45;&gt;http://latin.omdoc.org/foundations/mizar?ForallPFMizarView -->
<g id="edge11" class="edge"><title>http://latin.omdoc.org/logics/syntax?Forall&#45;&gt;http://latin.omdoc.org/foundations/mizar?ForallPFMizarView</title>
<a xlink:href="http://latin.omdoc.org/foundations/mizar?ForallPFMizarView?[http://latin.omdoc.org/logics/syntax?Forall]" class="graphstructure">
<path fill="none" stroke="black" d="M1177.36,-178.522C1171.57,-174.302 1164.77,-170.229 1157.82,-168 1137.66,-161.541 413.521,-169.603 395.816,-158 387.464,-152.526 382.11,-143.223 378.694,-134.05"/>
<polygon fill="black" stroke="black" points="381.99,-132.858 375.698,-124.333 375.301,-134.921 381.99,-132.858"/>
</a>
<a xlink:href="http://latin.omdoc.org/foundations/mizar?ForallPFMizarView?[http://latin.omdoc.org/logics/syntax?Forall]" class="[http://latin.omdoc.org/logics/syntax?Forall]">
<text text-anchor="middle" x="518.316" y="-146.3" font-family="Times New Roman,serif" font-size="14.00">[http://latin.omdoc.org/logics/syntax?Forall]</text>
</a>
</g>
<!-- http://latin.omdoc.org/logics/syntax?SecOL -->
<g id="node13" class="node"><title>http://latin.omdoc.org/logics/syntax?SecOL</title>
<a xlink:href="http://latin.omdoc.org/logics/syntax?SecOL" class="graphtheory">
<ellipse fill="gray" stroke="black" cx="51.816" cy="-106" rx="36.096" ry="18"/>
<text text-anchor="middle" x="51.816" y="-102.3" font-family="Times New Roman,serif" font-size="14.00">SecOL</text>
</a>
</g>
<!-- http://latin.omdoc.org/logics/syntax?Forall&#45;&gt;http://latin.omdoc.org/logics/syntax?SecOL -->
<g id="edge13" class="edge"><title>http://latin.omdoc.org/logics/syntax?Forall&#45;&gt;http://latin.omdoc.org/logics/syntax?SecOL</title>
<a xlink:href="http://latin.omdoc.org/logics/syntax?SecOL?ff" class="graphstructure">
<path fill="none" stroke="black" d="M1177.36,-178.508C1171.58,-174.286 1164.78,-170.217 1157.82,-168 1102.65,-150.434 170.37,-177.372 115.816,-158 99.7164,-152.283 84.6205,-140.684 73.1376,-129.99"/>
<polygon fill="black" stroke="black" points="75.3948,-127.302 65.7971,-122.815 70.5017,-132.308 75.3948,-127.302"/>
</a>
<a xlink:href="http://latin.omdoc.org/logics/syntax?SecOL?ff" class="ff">
<text text-anchor="middle" x="120.816" y="-146.3" font-family="Times New Roman,serif" font-size="14.00">ff</text>
</a>
</g>
<!-- http://latin.omdoc.org/logics/soundness?Forall -->
<g id="node15" class="node"><title>http://latin.omdoc.org/logics/soundness?Forall</title>
<a xlink:href="http://latin.omdoc.org/logics/soundness?Forall" class="graphtheory">
<ellipse fill="gray" stroke="black" cx="640.816" cy="-106" rx="31.2735" ry="18"/>
<text text-anchor="middle" x="640.816" y="-102.3" font-family="Times New Roman,serif" font-size="14.00">Forall</text>
</a>
</g>
<!-- http://latin.omdoc.org/logics/syntax?Forall&#45;&gt;http://latin.omdoc.org/logics/soundness?Forall -->
<g id="edge15" class="edge"><title>http://latin.omdoc.org/logics/syntax?Forall&#45;&gt;http://latin.omdoc.org/logics/soundness?Forall</title>
<a xlink:href="http://latin.omdoc.org/logics/soundness?Forall?[http://latin.omdoc.org/logics/syntax?Forall]" class="graphstructure">
<path fill="none" stroke="black" d="M1177.35,-178.55C1171.56,-174.331 1164.76,-170.252 1157.82,-168 1131.23,-159.382 676.873,-175.167 654.816,-158 647.446,-152.264 643.722,-143.034 641.911,-133.993"/>
<polygon fill="black" stroke="black" points="645.378,-133.511 640.586,-124.061 638.439,-134.436 645.378,-133.511"/>
</a>
<a xlink:href="http://latin.omdoc.org/logics/soundness?Forall?[http://latin.omdoc.org/logics/syntax?Forall]" class="[http://latin.omdoc.org/logics/syntax?Forall]">
<text text-anchor="middle" x="777.316" y="-146.3" font-family="Times New Roman,serif" font-size="14.00">[http://latin.omdoc.org/logics/syntax?Forall]</text>
</a>
</g>
<!-- http://latin.omdoc.org/foundations/mizar?FOLMizarView -->
<g id="node17" class="node"><title>http://latin.omdoc.org/foundations/mizar?FOLMizarView</title>
<a xlink:href="http://latin.omdoc.org/foundations/mizar?FOLMizarView" class="graphtheory">
<ellipse fill="gray" stroke="black" cx="908.816" cy="-106" rx="67.3907" ry="18"/>
<text text-anchor="middle" x="908.816" y="-102.3" font-family="Times New Roman,serif" font-size="14.00">FOLMizarView</text>
</a>
</g>
<!-- http://latin.omdoc.org/logics/syntax?Forall&#45;&gt;http://latin.omdoc.org/foundations/mizar?FOLMizarView -->
<g id="edge17" class="edge"><title>http://latin.omdoc.org/logics/syntax?Forall&#45;&gt;http://latin.omdoc.org/foundations/mizar?FOLMizarView</title>
<a xlink:href="http://latin.omdoc.org/foundations/mizar?FOLMizarView?[http://latin.omdoc.org/logics/syntax?Forall]" class="graphstructure">
<path fill="none" stroke="black" d="M1177.32,-178.633C1171.54,-174.42 1164.74,-170.323 1157.82,-168 1131.67,-159.23 929.114,-177.701 909.816,-158 903.669,-151.725 902.136,-142.656 902.563,-133.901"/>
<polygon fill="black" stroke="black" points="906.039,-134.31 903.807,-123.953 899.093,-133.442 906.039,-134.31"/>
</a>
<a xlink:href="http://latin.omdoc.org/foundations/mizar?FOLMizarView?[http://latin.omdoc.org/logics/syntax?Forall]" class="[http://latin.omdoc.org/logics/syntax?Forall]">
<text text-anchor="middle" x="1032.32" y="-146.3" font-family="Times New Roman,serif" font-size="14.00">[http://latin.omdoc.org/logics/syntax?Forall]</text>
</a>
</g>
<!-- http://latin.omdoc.org/logics/model_theory?FOL -->
<g id="node19" class="node"><title>http://latin.omdoc.org/logics/model_theory?FOL</title>
<a xlink:href="http://latin.omdoc.org/logics/model_theory?FOL" class="graphtheory">
<ellipse fill="gray" stroke="black" cx="1544.82" cy="-106" rx="28.3955" ry="18"/>
<text text-anchor="middle" x="1544.82" y="-102.3" font-family="Times New Roman,serif" font-size="14.00">FOL</text>
</a>
</g>
<!-- http://latin.omdoc.org/logics/syntax?Forall&#45;&gt;http://latin.omdoc.org/logics/model_theory?FOL -->
<g id="edge19" class="edge"><title>http://latin.omdoc.org/logics/syntax?Forall&#45;&gt;http://latin.omdoc.org/logics/model_theory?FOL</title>
<a xlink:href="http://latin.omdoc.org/logics/model_theory?FOL?[http://latin.omdoc.org/logics/syntax?Forall]" class="graphstructure">
<path fill="none" stroke="black" d="M1210.25,-178.655C1215.8,-174.551 1222.26,-170.513 1228.82,-168 1265.98,-153.752 1280.56,-172.016 1317.82,-158 1329.47,-153.615 1329.16,-146.382 1340.82,-142 1408.21,-116.665 1431.95,-141.389 1501.82,-124 1505.46,-123.094 1509.2,-121.951 1512.89,-120.69"/>
<polygon fill="black" stroke="black" points="1514.27,-123.913 1522.42,-117.15 1511.83,-117.351 1514.27,-123.913"/>
</a>
<a xlink:href="http://latin.omdoc.org/logics/model_theory?FOL?[http://latin.omdoc.org/logics/syntax?Forall]" class="[http://latin.omdoc.org/logics/syntax?Forall]">
<text text-anchor="middle" x="1463.32" y="-146.3" font-family="Times New Roman,serif" font-size="14.00">[http://latin.omdoc.org/logics/syntax?Forall]</text>
</a>
</g>
<!-- http://latin.omdoc.org/logics/syntax?FOL -->
<g id="node21" class="node"><title>http://latin.omdoc.org/logics/syntax?FOL</title>
<a xlink:href="http://latin.omdoc.org/logics/syntax?FOL" class="graphtheory">
<ellipse fill="gray" stroke="black" cx="1941.82" cy="-106" rx="28.3955" ry="18"/>
<text text-anchor="middle" x="1941.82" y="-102.3" font-family="Times New Roman,serif" font-size="14.00">FOL</text>
</a>
</g>
<!-- http://latin.omdoc.org/logics/syntax?Forall&#45;&gt;http://latin.omdoc.org/logics/syntax?FOL -->
<g id="edge21" class="edge"><title>http://latin.omdoc.org/logics/syntax?Forall&#45;&gt;http://latin.omdoc.org/logics/syntax?FOL</title>
<a class="graphinclude">
<path fill="none" stroke="black" d="M1210.11,-178.267C1215.66,-174.142 1222.15,-170.19 1228.82,-168 1247.27,-161.942 1912.46,-169.884 1927.82,-158 1935.2,-152.284 1938.93,-143.059 1940.74,-134.015"/>
<polygon fill="black" stroke="black" points="1944.21,-134.453 1942.06,-124.079 1937.27,-133.53 1944.21,-134.453"/>
</a>
</g>
<!-- http://latin.omdoc.org/logics/proof_theory?Forall -->
<g id="node23" class="node"><title>http://latin.omdoc.org/logics/proof_theory?Forall</title>
<a xlink:href="http://latin.omdoc.org/logics/proof_theory?Forall" class="graphtheory">
<ellipse fill="gray" stroke="black" cx="1218.82" cy="-106" rx="31.2735" ry="18"/>
<text text-anchor="middle" x="1218.82" y="-102.3" font-family="Times New Roman,serif" font-size="14.00">Forall</text>
</a>
</g>
<!-- http://latin.omdoc.org/logics/syntax?Forall&#45;&gt;http://latin.omdoc.org/logics/proof_theory?Forall -->
<g id="edge23" class="edge"><title>http://latin.omdoc.org/logics/syntax?Forall&#45;&gt;http://latin.omdoc.org/logics/proof_theory?Forall</title>
<a class="graphinclude">
<path fill="none" stroke="black" d="M1199.31,-175.948C1201.11,-170.254 1203.09,-163.866 1204.82,-158 1207.12,-150.161 1209.52,-141.608 1211.66,-133.786"/>
<polygon fill="black" stroke="black" points="1215.06,-134.612 1214.3,-124.044 1208.31,-132.778 1215.06,-134.612"/>
</a>
</g>
<!-- http://latin.omdoc.org/logics/syntax?FOL&#45;&gt;http://latin.omdoc.org/logics/model_theory?FOLMOD -->
<g id="edge59" class="edge"><title>http://latin.omdoc.org/logics/syntax?FOL&#45;&gt;http://latin.omdoc.org/logics/model_theory?FOLMOD</title>
<a xlink:href="http://latin.omdoc.org/logics/model_theory?FOL" class="graphview">
<path fill="none" stroke="black" d="M1921.1,-93.5422C1896.51,-80.1205 1856.83,-59.0676 1840.82,-54 1781.09,-35.0993 1709.7,-26.3392 1660.58,-22.3208"/>
<polygon fill="black" stroke="black" points="1660.69,-18.8189 1650.45,-21.5333 1660.15,-25.7979 1660.69,-18.8189"/>
</a>
<a xlink:href="http://latin.omdoc.org/logics/model_theory?FOL" class="FOL">
<text text-anchor="middle" x="1890.82" y="-58.3" font-family="Times New Roman,serif" font-size="14.00">FOL</text>
</a>
</g>
<!-- http://latin.omdoc.org/logics/syntax?FOL&#45;&gt;http://latin.omdoc.org/foundations/mizar?Mizar -->
<g id="edge61" class="edge"><title>http://latin.omdoc.org/logics/syntax?FOL&#45;&gt;http://latin.omdoc.org/foundations/mizar?Mizar</title>
<a xlink:href="http://latin.omdoc.org/foundations/mizar?FOLMizarView" class="graphview">
<path fill="none" stroke="black" d="M1927.08,-90.2576C1922.23,-84.4402 1917.41,-77.384 1914.82,-70 1912.19,-62.5338 1911.27,-54.0646 1911.2,-46.2029"/>
<polygon fill="black" stroke="black" points="1914.7,-46.1182 1911.53,-36.01 1907.7,-45.8912 1914.7,-46.1182"/>
</a>
<a xlink:href="http://latin.omdoc.org/foundations/mizar?FOLMizarView" class="FOLMizarView">
<text text-anchor="middle" x="1958.82" y="-58.3" font-family="Times New Roman,serif" font-size="14.00">FOLMizarView</text>
</a>
</g>
<!-- http://latin.omdoc.org/logics/proof_theory?Forall&#45;&gt;http://latin.omdoc.org/translations/fol_ifol?DN&#45;IFOL -->
<g id="edge57" class="edge"><title>http://latin.omdoc.org/logics/proof_theory?Forall&#45;&gt;http://latin.omdoc.org/translations/fol_ifol?DN&#45;IFOL</title>
<a xlink:href="http://latin.omdoc.org/translations/fol_ifol?ForallPF" class="graphview">
<path fill="none" stroke="black" d="M1193.67,-95.1783C1186.94,-92.6964 1179.64,-90.1329 1172.82,-88 1142.15,-78.4197 1126.69,-91.4921 1102.82,-70 1095.95,-63.8206 1091.56,-54.9245 1088.75,-46.2873"/>
<polygon fill="black" stroke="black" points="1092.09,-45.2079 1086.13,-36.4452 1085.32,-47.0091 1092.09,-45.2079"/>
</a>
<a xlink:href="http://latin.omdoc.org/translations/fol_ifol?ForallPF" class="ForallPF">
<text text-anchor="middle" x="1127.32" y="-58.3" font-family="Times New Roman,serif" font-size="14.00">ForallPF</text>
</a>
</g>
<!-- http://latin.omdoc.org/logics/proof_theory?Forall&#45;&gt;http://latin.omdoc.org/logics/model_theory?FOLMOD -->
<g id="edge55" class="edge"><title>http://latin.omdoc.org/logics/proof_theory?Forall&#45;&gt;http://latin.omdoc.org/logics/model_theory?FOLMOD</title>
<a xlink:href="http://latin.omdoc.org/logics/soundness?Forall" class="graphview">
<path fill="none" stroke="black" d="M1216.23,-87.9184C1215.57,-76.6825 1216.91,-62.5289 1225.82,-54 1248.2,-32.5717 1442.59,-23.7045 1542.73,-20.5324"/>
<polygon fill="black" stroke="black" points="1543.1,-24.0225 1552.99,-20.2167 1542.89,-17.0258 1543.1,-24.0225"/>
</a>
<a xlink:href="http://latin.omdoc.org/logics/soundness?Forall" class="Forall">
<text text-anchor="middle" x="1242.32" y="-58.3" font-family="Times New Roman,serif" font-size="14.00">Forall</text>
</a>
</g>
<!-- http://latin.omdoc.org/logics/proof_theory?Forall&#45;&gt;http://latin.omdoc.org/foundations/mizar?Mizar -->
<g id="edge53" class="edge"><title>http://latin.omdoc.org/logics/proof_theory?Forall&#45;&gt;http://latin.omdoc.org/foundations/mizar?Mizar</title>
<a xlink:href="http://latin.omdoc.org/foundations/mizar?ForallPFMizarView" class="graphview">
<path fill="none" stroke="black" d="M1235.6,-90.5067C1252.38,-76.1595 1276.46,-56.0418 1281.82,-54 1321.11,-39.0284 1617.84,-38.4041 1659.82,-36 1734.99,-31.6946 1822.61,-25.5899 1872.81,-21.988"/>
<polygon fill="black" stroke="black" points="1873.22,-25.4681 1882.94,-21.2589 1872.71,-18.4862 1873.22,-25.4681"/>
</a>
<a xlink:href="http://latin.omdoc.org/foundations/mizar?ForallPFMizarView" class="ForallPFMizarView">
<text text-anchor="middle" x="1336.32" y="-58.3" font-family="Times New Roman,serif" font-size="14.00">ForallPFMizarView</text>
</a>
</g>
<!-- http://latin.omdoc.org/logics/syntax?UniverseLogic -->
<g id="node25" class="node"><title>http://latin.omdoc.org/logics/syntax?UniverseLogic</title>
<a xlink:href="http://latin.omdoc.org/logics/syntax?UniverseLogic" class="graphtheory">
<ellipse fill="gray" stroke="black" cx="1691.82" cy="-194" rx="63.5411" ry="18"/>
<text text-anchor="middle" x="1691.82" y="-190.3" font-family="Times New Roman,serif" font-size="14.00">UniverseLogic</text>
</a>
</g>
<!-- http://latin.omdoc.org/logics/syntax?UniverseLogic&#45;&gt;http://latin.omdoc.org/logics/syntax?Forall -->
<g id="edge25" class="edge"><title>http://latin.omdoc.org/logics/syntax?UniverseLogic&#45;&gt;http://latin.omdoc.org/logics/syntax?Forall</title>
<a class="graphinclude">
<path fill="none" stroke="black" d="M1628.05,-194C1497.25,-194 1366.45,-194 1235.65,-194"/>
<polygon fill="black" stroke="black" points="1235.43,-190.5 1225.43,-194 1235.43,-197.5 1235.43,-190.5"/>
</a>
</g>
<!-- http://latin.omdoc.org/logics/syntax?UniverseLogic&#45;&gt;http://latin.omdoc.org/translations/fol_ifol?DN&#45;IFOL -->
<g id="edge47" class="edge"><title>http://latin.omdoc.org/logics/syntax?UniverseLogic&#45;&gt;http://latin.omdoc.org/translations/fol_ifol?DN&#45;IFOL</title>
<a xlink:href="http://latin.omdoc.org/translations/fol_ifol?UniverseLogic" class="graphview">
<path fill="none" stroke="black" d="M1628.53,-193.106C1535.32,-192.27 1366.49,-186.678 1313.82,-158 1279.07,-139.081 1290.55,-111.635 1258.82,-88 1258.1,-87.4659 1176.39,-55.3425 1124.89,-35.1197"/>
<polygon fill="black" stroke="black" points="1125.93,-31.7664 1115.34,-31.3697 1123.37,-38.2822 1125.93,-31.7664"/>
</a>
<a xlink:href="http://latin.omdoc.org/translations/fol_ifol?UniverseLogic" class="UniverseLogic">
<text text-anchor="middle" x="1326.82" y="-102.3" font-family="Times New Roman,serif" font-size="14.00">UniverseLogic</text>
</a>
</g>
<!-- http://latin.omdoc.org/logics/syntax?UniverseLogic&#45;&gt;http://latin.omdoc.org/logics/model_theory?FOLMOD -->
<g id="edge49" class="edge"><title>http://latin.omdoc.org/logics/syntax?UniverseLogic&#45;&gt;http://latin.omdoc.org/logics/model_theory?FOLMOD</title>
<a xlink:href="http://latin.omdoc.org/logics/model_theory?BaseFOL" class="graphview">
<path fill="none" stroke="black" d="M1754.99,-192.681C1817.72,-190.861 1907.64,-183.681 1929.82,-158 1934.46,-152.618 1934.27,-147.547 1929.82,-142 1906.74,-113.233 1883.93,-135.261 1848.82,-124 1772.23,-99.4407 1686.63,-60.2651 1638.99,-37.3484"/>
<polygon fill="black" stroke="black" points="1640.22,-34.0581 1629.7,-32.8535 1637.18,-40.3594 1640.22,-34.0581"/>
</a>
<a xlink:href="http://latin.omdoc.org/logics/model_theory?BaseFOL" class="BaseFOL">
<text text-anchor="middle" x="1876.32" y="-102.3" font-family="Times New Roman,serif" font-size="14.00">BaseFOL</text>
</a>
</g>
<!-- http://latin.omdoc.org/logics/syntax?UniverseLogic&#45;&gt;http://latin.omdoc.org/foundations/mizar?Mizar -->
<g id="edge45" class="edge"><title>http://latin.omdoc.org/logics/syntax?UniverseLogic&#45;&gt;http://latin.omdoc.org/foundations/mizar?Mizar</title>
<a xlink:href="http://latin.omdoc.org/foundations/mizar?BaseFOLMizarView" class="graphview">
<path fill="none" stroke="black" d="M1753.54,-189.929C1836.97,-185.168 1977.27,-174.767 1993.82,-158 2026.4,-124.974 2028.94,-92.3422 2002.82,-54 1991.85,-37.9073 1972.25,-29.2138 1954.23,-24.5175"/>
<polygon fill="black" stroke="black" points="1954.98,-21.0972 1944.45,-22.2981 1953.43,-27.9237 1954.98,-21.0972"/>
</a>
<a xlink:href="http://latin.omdoc.org/foundations/mizar?BaseFOLMizarView" class="BaseFOLMizarView">
<text text-anchor="middle" x="2078.32" y="-102.3" font-family="Times New Roman,serif" font-size="14.00">BaseFOLMizarView</text>
</a>
</g>
<!-- http://latin.omdoc.org/logics/syntax?UniverseLogic&#45;&gt;http://latin.omdoc.org/logics/model_theory?FOL -->
<g id="edge43" class="edge"><title>http://latin.omdoc.org/logics/syntax?UniverseLogic&#45;&gt;http://latin.omdoc.org/logics/model_theory?FOL</title>
<a xlink:href="http://latin.omdoc.org/logics/model_theory?FOL?[http://latin.omdoc.org/logics/syntax?UniverseLogic]" class="graphstructure">
<path fill="none" stroke="black" d="M1665.2,-177.426C1639.44,-162.358 1600.5,-139.579 1573.93,-124.035"/>
<polygon fill="black" stroke="black" points="1575.49,-120.892 1565.09,-118.863 1571.96,-126.934 1575.49,-120.892"/>
</a>
<a xlink:href="http://latin.omdoc.org/logics/model_theory?FOL?[http://latin.omdoc.org/logics/syntax?UniverseLogic]" class="[http://latin.omdoc.org/logics/syntax?UniverseLogic]">
<text text-anchor="middle" x="1778.82" y="-146.3" font-family="Times New Roman,serif" font-size="14.00">[http://latin.omdoc.org/logics/syntax?UniverseLogic]</text>
</a>
</g>
<!-- http://latin.omdoc.org/logics/syntax?UniverseLogic&#45;&gt;http://latin.omdoc.org/logics/syntax?FOL -->
<g id="edge51" class="edge"><title>http://latin.omdoc.org/logics/syntax?UniverseLogic&#45;&gt;http://latin.omdoc.org/logics/syntax?FOL</title>
<a class="graphinclude">
<path fill="none" stroke="black" d="M1753.54,-189.732C1833.15,-184.873 1963.21,-174.505 1977.82,-158 1986.49,-148.204 1978.98,-136.308 1968.62,-126.47"/>
<polygon fill="black" stroke="black" points="1970.63,-123.585 1960.76,-119.729 1966.07,-128.897 1970.63,-123.585"/>
</a>
</g>
<!-- http://cds.omdoc.org/urtheories?LF -->
<g id="node27" class="node"><title>http://cds.omdoc.org/urtheories?LF</title>
<a xlink:href="http://cds.omdoc.org/urtheories?LF" class="graphtheory">
<ellipse fill="gray" stroke="black" cx="1425.82" cy="-268" rx="27" ry="18"/>
<text text-anchor="middle" x="1425.82" y="-264.3" font-family="Times New Roman,serif" font-size="14.00">LF</text>
</a>
</g>
<!-- http://cds.omdoc.org/urtheories?LF&#45;&gt;http://latin.omdoc.org/logics/syntax?Forall -->
<g id="edge27" class="edge"><title>http://cds.omdoc.org/urtheories?LF&#45;&gt;http://latin.omdoc.org/logics/syntax?Forall</title>
<a class="graphmeta">
<path fill="none" stroke="black" d="M1398.88,-265.903C1361.76,-263.518 1293.48,-255.958 1240.82,-232 1232.39,-228.167 1224.14,-222.519 1216.95,-216.783"/>
<polygon fill="black" stroke="black" points="1218.96,-213.9 1209.07,-210.114 1214.44,-219.244 1218.96,-213.9"/>
</a>
</g>
<!-- http://cds.omdoc.org/urtheories?LF&#45;&gt;http://latin.omdoc.org/translations/fol_ifol?DN&#45;IFOL -->
<g id="edge41" class="edge"><title>http://cds.omdoc.org/urtheories?LF&#45;&gt;http://latin.omdoc.org/translations/fol_ifol?DN&#45;IFOL</title>
<a class="graphmeta">
<path fill="none" stroke="black" d="M1398.62,-267.142C1221.55,-267.922 235.848,-269.978 112.816,-220 53.9289,-196.079 32.5842,-182.103 6.81597,-124 0.32935,-109.374 -4.13009,-99.6698 6.81597,-88 42.0296,-50.4582 810.552,-26.5212 1027.34,-20.4986"/>
<polygon fill="black" stroke="black" points="1027.64,-23.9917 1037.54,-20.2172 1027.45,-16.9944 1027.64,-23.9917"/>
</a>
</g>
<!-- http://cds.omdoc.org/urtheories?LF&#45;&gt;http://latin.omdoc.org/logics/model_theory?FOLMOD -->
<g id="edge35" class="edge"><title>http://cds.omdoc.org/urtheories?LF&#45;&gt;http://latin.omdoc.org/logics/model_theory?FOLMOD</title>
<a class="graphmeta">
<path fill="none" stroke="black" d="M1449.07,-258.544C1485.16,-244.081 1553.82,-210.927 1585.82,-158 1606.52,-123.747 1607.2,-76.0063 1605.06,-46.3283"/>
<polygon fill="black" stroke="black" points="1608.53,-45.9244 1604.17,-36.2701 1601.56,-46.5386 1608.53,-45.9244"/>
</a>
</g>
<!-- http://cds.omdoc.org/urtheories?LF&#45;&gt;http://latin.omdoc.org/foundations/mizar?Mizar -->
<g id="edge37" class="edge"><title>http://cds.omdoc.org/urtheories?LF&#45;&gt;http://latin.omdoc.org/foundations/mizar?Mizar</title>
<a class="graphmeta">
<path fill="none" stroke="black" d="M1452.67,-265.845C1544.56,-261.69 1845.89,-246.336 1938.82,-220 2034.06,-193.007 2087.01,-207.74 2139.82,-124 2184.61,-52.9608 2031.53,-29.283 1954.9,-21.9869"/>
<polygon fill="black" stroke="black" points="1954.9,-18.4726 1944.62,-21.0629 1954.27,-25.4445 1954.9,-18.4726"/>
</a>
</g>
<!-- http://cds.omdoc.org/urtheories?LF&#45;&gt;http://latin.omdoc.org/logics/syntax?SecOL -->
<g id="edge29" class="edge"><title>http://cds.omdoc.org/urtheories?LF&#45;&gt;http://latin.omdoc.org/logics/syntax?SecOL</title>
<a class="graphmeta">
<path fill="none" stroke="black" d="M1398.7,-266.226C1218.84,-260.909 201.726,-227.888 84.816,-158 75.1756,-152.237 67.8451,-142.443 62.5709,-132.968"/>
<polygon fill="black" stroke="black" points="65.5723,-131.144 57.9729,-123.762 59.3099,-134.272 65.5723,-131.144"/>
</a>
</g>
<!-- http://cds.omdoc.org/urtheories?LF&#45;&gt;http://latin.omdoc.org/logics/syntax?FOL -->
<g id="edge33" class="edge"><title>http://cds.omdoc.org/urtheories?LF&#45;&gt;http://latin.omdoc.org/logics/syntax?FOL</title>
<a class="graphmeta">
<path fill="none" stroke="black" d="M1452.72,-266.33C1556.28,-263.119 1926.72,-245.578 1993.82,-158 2004,-144.703 1989.72,-131.511 1973.57,-121.877"/>
<polygon fill="black" stroke="black" points="1975,-118.666 1964.55,-116.912 1971.62,-124.799 1975,-118.666"/>
</a>
</g>
<!-- http://cds.omdoc.org/urtheories?LF&#45;&gt;http://latin.omdoc.org/logics/proof_theory?Forall -->
<g id="edge39" class="edge"><title>http://cds.omdoc.org/urtheories?LF&#45;&gt;http://latin.omdoc.org/logics/proof_theory?Forall</title>
<a class="graphmeta">
<path fill="none" stroke="black" d="M1406.62,-255.33C1376.17,-236.463 1315.47,-197.383 1268.82,-158 1258.6,-149.377 1248.12,-138.971 1239.41,-129.814"/>
<polygon fill="black" stroke="black" points="1241.94,-127.397 1232.56,-122.483 1236.83,-132.178 1241.94,-127.397"/>
</a>
</g>
<!-- http://cds.omdoc.org/urtheories?LF&#45;&gt;http://latin.omdoc.org/logics/syntax?UniverseLogic -->
<g id="edge31" class="edge"><title>http://cds.omdoc.org/urtheories?LF&#45;&gt;http://latin.omdoc.org/logics/syntax?UniverseLogic</title>
<a class="graphmeta">
<path fill="none" stroke="black" d="M1452.51,-264.235C1489.44,-259.916 1557.92,-250.122 1613.82,-232 1627.56,-227.543 1642.02,-221.195 1654.7,-215.012"/>
<polygon fill="black" stroke="black" points="1656.64,-217.957 1664.01,-210.35 1653.5,-211.698 1656.64,-217.957"/>
</a>
</g>
</g>
</svg>
