<?xml version="1.0" encoding="UTF-8" standalone="no"?>
<!DOCTYPE svg PUBLIC "-//W3C//DTD SVG 1.1//EN"
 "http://www.w3.org/Graphics/SVG/1.1/DTD/svg11.dtd">
<!-- Generated by graphviz version 2.28.0 (20110507.0327)
 -->
<!-- Title: MMT Pages: 1 -->
<svg width="221pt" height="260pt"
 viewBox="0.00 0.00 221.00 260.00" xmlns="http://www.w3.org/2000/svg" xmlns:xlink="http://www.w3.org/1999/xlink">
<g id="graph1" class="graph" transform="scale(1 1) rotate(0) translate(4 256)">
<title>MMT</title>
<polygon fill="white" stroke="white" points="-4,5 -4,-256 218,-256 218,5 -4,5"/>
<g id="graph2" class="cluster"><title>cluster_local</title>
<polygon fill="none" stroke="black" points="16,-64 16,-116 132,-116 132,-64 16,-64"/>
</g>
<!-- http://latin.omdoc.org/logics/syntax?HOL&#45;Base -->
<g id="node2" class="node"><title>http://latin.omdoc.org/logics/syntax?HOL&#45;Base</title>
<a xlink:href="http://latin.omdoc.org/logics/syntax?HOL-Base" class="graphtheory">
<ellipse fill="none" stroke="black" cx="74" cy="-90" rx="50.0684" ry="18"/>
<text text-anchor="middle" x="74" y="-86.3" font-family="Times New Roman,serif" font-size="14.00">HOL&#45;Base</text>
</a>
</g>
<!-- http://latin.omdoc.org/logics/syntax?HOL -->
<g id="node3" class="node"><title>http://latin.omdoc.org/logics/syntax?HOL</title>
<a xlink:href="http://latin.omdoc.org/logics/syntax?HOL" class="graphtheory">
<ellipse fill="gray" stroke="black" cx="29" cy="-18" rx="29.3722" ry="18"/>
<text text-anchor="middle" x="29" y="-14.3" font-family="Times New Roman,serif" font-size="14.00">HOL</text>
</a>
</g>
<!-- http://latin.omdoc.org/logics/syntax?HOL&#45;Base&#45;&gt;http://latin.omdoc.org/logics/syntax?HOL -->
<g id="edge3" class="edge"><title>http://latin.omdoc.org/logics/syntax?HOL&#45;Base&#45;&gt;http://latin.omdoc.org/logics/syntax?HOL</title>
<a class="graphinclude">
<path fill="none" stroke="black" d="M63.3356,-72.411C57.8208,-63.8323 50.9798,-53.1908 44.859,-43.6695"/>
<polygon fill="black" stroke="black" points="47.6298,-41.5072 39.2781,-34.9881 41.7416,-45.2926 47.6298,-41.5072"/>
</a>
</g>
<!-- http://latin.omdoc.org/logics/syntax?PrawitzHOL -->
<g id="node5" class="node"><title>http://latin.omdoc.org/logics/syntax?PrawitzHOL</title>
<a xlink:href="http://latin.omdoc.org/logics/syntax?PrawitzHOL" class="graphtheory">
<ellipse fill="gray" stroke="black" cx="158" cy="-18" rx="55.3436" ry="18"/>
<text text-anchor="middle" x="158" y="-14.3" font-family="Times New Roman,serif" font-size="14.00">PrawitzHOL</text>
</a>
</g>
<!-- http://latin.omdoc.org/logics/syntax?HOL&#45;Base&#45;&gt;http://latin.omdoc.org/logics/syntax?PrawitzHOL -->
<g id="edge5" class="edge"><title>http://latin.omdoc.org/logics/syntax?HOL&#45;Base&#45;&gt;http://latin.omdoc.org/logics/syntax?PrawitzHOL</title>
<a class="graphinclude">
<path fill="none" stroke="black" d="M93.0609,-73.1159C104.258,-63.7847 118.594,-51.8384 130.946,-41.545"/>
<polygon fill="black" stroke="black" points="133.282,-44.1542 138.724,-35.0635 128.801,-38.7766 133.282,-44.1542"/>
</a>
</g>
<!-- http://latin.omdoc.org/type_theories?SimpTypes -->
<g id="node7" class="node"><title>http://latin.omdoc.org/type_theories?SimpTypes</title>
<a xlink:href="http://latin.omdoc.org/type_theories?SimpTypes" class="graphtheory">
<ellipse fill="gray" stroke="black" cx="103" cy="-162" rx="52.4675" ry="18"/>
<text text-anchor="middle" x="103" y="-158.3" font-family="Times New Roman,serif" font-size="14.00">SimpTypes</text>
</a>
</g>
<!-- http://latin.omdoc.org/type_theories?SimpTypes&#45;&gt;http://latin.omdoc.org/logics/syntax?HOL&#45;Base -->
<g id="edge7" class="edge"><title>http://latin.omdoc.org/type_theories?SimpTypes&#45;&gt;http://latin.omdoc.org/logics/syntax?HOL&#45;Base</title>
<a class="graphinclude">
<path fill="none" stroke="black" d="M95.9799,-144.055C92.7158,-136.176 88.7554,-126.617 85.1004,-117.794"/>
<polygon fill="black" stroke="black" points="88.2179,-116.174 81.1569,-108.275 81.7509,-118.853 88.2179,-116.174"/>
</a>
</g>
<!-- http://cds.omdoc.org/urtheories?LF -->
<g id="node9" class="node"><title>http://cds.omdoc.org/urtheories?LF</title>
<a xlink:href="http://cds.omdoc.org/urtheories?LF" class="graphtheory">
<ellipse fill="gray" stroke="black" cx="62" cy="-234" rx="27" ry="18"/>
<text text-anchor="middle" x="62" y="-230.3" font-family="Times New Roman,serif" font-size="14.00">LF</text>
</a>
</g>
<!-- http://cds.omdoc.org/urtheories?LF&#45;&gt;http://latin.omdoc.org/logics/syntax?HOL&#45;Base -->
<g id="edge9" class="edge"><title>http://cds.omdoc.org/urtheories?LF&#45;&gt;http://latin.omdoc.org/logics/syntax?HOL&#45;Base</title>
<a class="graphmeta">
<path fill="none" stroke="black" d="M53.1966,-216.805C44.605,-198.878 33.7999,-169.186 41,-144 43.8304,-134.099 49.1045,-124.248 54.6189,-115.773"/>
<polygon fill="black" stroke="black" points="57.5372,-117.707 60.3602,-107.495 51.7851,-113.718 57.5372,-117.707"/>
</a>
</g>
<!-- http://cds.omdoc.org/urtheories?LF&#45;&gt;http://latin.omdoc.org/logics/syntax?HOL -->
<g id="edge15" class="edge"><title>http://cds.omdoc.org/urtheories?LF&#45;&gt;http://latin.omdoc.org/logics/syntax?HOL</title>
<a class="graphmeta">
<path fill="none" stroke="black" d="M52.3584,-217.085C39.8036,-195.239 18.6732,-154.301 12,-116 8.03305,-93.2319 7.84874,-86.7352 12,-64 13.134,-57.7895 15.0806,-51.3231 17.261,-45.2933"/>
<polygon fill="black" stroke="black" points="20.6392,-46.267 21.0491,-35.6801 14.1265,-43.7007 20.6392,-46.267"/>
</a>
</g>
<!-- http://cds.omdoc.org/urtheories?LF&#45;&gt;http://latin.omdoc.org/logics/syntax?PrawitzHOL -->
<g id="edge11" class="edge"><title>http://cds.omdoc.org/urtheories?LF&#45;&gt;http://latin.omdoc.org/logics/syntax?PrawitzHOL</title>
<a class="graphmeta">
<path fill="none" stroke="black" d="M87.7406,-227.62C112.171,-220.997 147.529,-207.12 164,-180 189.132,-138.618 177.535,-79.5916 167.388,-45.6999"/>
<polygon fill="black" stroke="black" points="170.683,-44.5127 164.328,-36.0361 164.01,-46.6261 170.683,-44.5127"/>
</a>
</g>
<!-- http://cds.omdoc.org/urtheories?LF&#45;&gt;http://latin.omdoc.org/type_theories?SimpTypes -->
<g id="edge13" class="edge"><title>http://cds.omdoc.org/urtheories?LF&#45;&gt;http://latin.omdoc.org/type_theories?SimpTypes</title>
<a class="graphmeta">
<path fill="none" stroke="black" d="M71.5093,-216.765C76.3351,-208.525 82.3145,-198.317 87.7623,-189.016"/>
<polygon fill="black" stroke="black" points="90.9363,-190.522 92.9703,-180.124 84.8961,-186.984 90.9363,-190.522"/>
</a>
</g>
</g>
</svg>
