<?xml version="1.0" encoding="UTF-8" standalone="no"?>
<!DOCTYPE svg PUBLIC "-//W3C//DTD SVG 1.1//EN"
 "http://www.w3.org/Graphics/SVG/1.1/DTD/svg11.dtd">
<!-- Generated by graphviz version 2.28.0 (20110507.0327)
 -->
<!-- Title: MMT Pages: 1 -->
<svg
 viewBox="0.00 0.00 571.00 280.00" xmlns="http://www.w3.org/2000/svg" xmlns:xlink="http://www.w3.org/1999/xlink">
<g id="graph1" class="graph" transform="scale(1 1) rotate(0) translate(4 276)">
<title>MMT</title>
<polygon fill="white" stroke="white" points="-4,5 -4,-276 568,-276 568,5 -4,5"/>
<g id="graph2" class="cluster"><title>cluster_local</title>
<polygon fill="none" stroke="black" points="281,-80 281,-132 355,-132 355,-80 281,-80"/>
</g>
<!-- http://latin.omdoc.org/logics/syntax?HOL -->
<g id="node2" class="node"><title>http://latin.omdoc.org/logics/syntax?HOL</title>
<a xlink:href="http://latin.omdoc.org/logics/syntax?HOL" class="graphtheory">
<ellipse fill="none" stroke="black" cx="318" cy="-106" rx="29.3722" ry="18"/>
<text text-anchor="middle" x="318" y="-102.3" font-family="Times New Roman,serif" font-size="14.00">HOL</text>
</a>
</g>
<!-- http://latin.omdoc.org/logics/syntax?STTHOL -->
<g id="node3" class="node"><title>http://latin.omdoc.org/logics/syntax?STTHOL</title>
<a xlink:href="http://latin.omdoc.org/logics/syntax?STTHOL" class="graphtheory">
<ellipse fill="gray" stroke="black" cx="192" cy="-18" rx="46.2191" ry="18"/>
<text text-anchor="middle" x="192" y="-14.3" font-family="Times New Roman,serif" font-size="14.00">STTHOL</text>
</a>
</g>
<!-- http://latin.omdoc.org/logics/syntax?HOL&#45;&gt;http://latin.omdoc.org/logics/syntax?STTHOL -->
<g id="edge3" class="edge"><title>http://latin.omdoc.org/logics/syntax?HOL&#45;&gt;http://latin.omdoc.org/logics/syntax?STTHOL</title>
<a xlink:href="http://latin.omdoc.org/logics/syntax?STTHOL?hol" class="graphstructure">
<path fill="none" stroke="black" d="M300.352,-91.2827C295.432,-87.5541 290.051,-83.5635 285,-80 264.933,-65.8421 241.85,-50.6952 223.701,-39.0367"/>
<polygon fill="black" stroke="black" points="225.532,-36.0536 215.222,-33.6133 221.76,-41.9504 225.532,-36.0536"/>
</a>
<a xlink:href="http://latin.omdoc.org/logics/syntax?STTHOL?hol" class="hol">
<text text-anchor="middle" x="280" y="-58.3" font-family="Times New Roman,serif" font-size="14.00">hol</text>
</a>
</g>
<!-- http://latin.omdoc.org/logics/syntax?LambdaPHOL -->
<g id="node5" class="node"><title>http://latin.omdoc.org/logics/syntax?LambdaPHOL</title>
<a xlink:href="http://latin.omdoc.org/logics/syntax?LambdaPHOL" class="graphtheory">
<ellipse fill="gray" stroke="black" cx="64" cy="-18" rx="64.0172" ry="18"/>
<text text-anchor="middle" x="64" y="-14.3" font-family="Times New Roman,serif" font-size="14.00">LambdaPHOL</text>
</a>
</g>
<!-- http://latin.omdoc.org/logics/syntax?HOL&#45;&gt;http://latin.omdoc.org/logics/syntax?LambdaPHOL -->
<g id="edge5" class="edge"><title>http://latin.omdoc.org/logics/syntax?HOL&#45;&gt;http://latin.omdoc.org/logics/syntax?LambdaPHOL</title>
<a xlink:href="http://latin.omdoc.org/logics/syntax?LambdaPHOL?hol" class="graphstructure">
<path fill="none" stroke="black" d="M302.195,-90.5968C297.039,-86.5913 291.069,-82.6244 285,-80 260.588,-69.4445 251.856,-76.2301 226,-70 186.903,-60.5795 143.482,-46.7207 111.442,-35.8268"/>
<polygon fill="black" stroke="black" points="112.477,-32.4814 101.882,-32.5494 110.206,-39.1031 112.477,-32.4814"/>
</a>
<a xlink:href="http://latin.omdoc.org/logics/syntax?LambdaPHOL?hol" class="hol">
<text text-anchor="middle" x="235" y="-58.3" font-family="Times New Roman,serif" font-size="14.00">hol</text>
</a>
</g>
<!-- http://latin.omdoc.org/logics/proof_theory?HOL -->
<g id="node7" class="node"><title>http://latin.omdoc.org/logics/proof_theory?HOL</title>
<a xlink:href="http://latin.omdoc.org/logics/proof_theory?HOL" class="graphtheory">
<ellipse fill="gray" stroke="black" cx="415" cy="-18" rx="29.3722" ry="18"/>
<text text-anchor="middle" x="415" y="-14.3" font-family="Times New Roman,serif" font-size="14.00">HOL</text>
</a>
</g>
<!-- http://latin.omdoc.org/logics/syntax?HOL&#45;&gt;http://latin.omdoc.org/logics/proof_theory?HOL -->
<g id="edge7" class="edge"><title>http://latin.omdoc.org/logics/syntax?HOL&#45;&gt;http://latin.omdoc.org/logics/proof_theory?HOL</title>
<a class="graphinclude">
<path fill="none" stroke="black" d="M334.018,-90.7988C349.603,-76.9807 373.471,-55.8194 391.263,-40.0451"/>
<polygon fill="black" stroke="black" points="393.798,-42.4753 398.959,-33.2222 389.154,-37.2374 393.798,-42.4753"/>
</a>
</g>
<!-- http://latin.omdoc.org/logics/proof_theory?LeibnizHOL -->
<g id="node9" class="node"><title>http://latin.omdoc.org/logics/proof_theory?LeibnizHOL</title>
<a xlink:href="http://latin.omdoc.org/logics/proof_theory?LeibnizHOL" class="graphtheory">
<ellipse fill="gray" stroke="black" cx="312" cy="-18" rx="55.3436" ry="18"/>
<text text-anchor="middle" x="312" y="-14.3" font-family="Times New Roman,serif" font-size="14.00">LeibnizHOL</text>
</a>
</g>
<!-- http://latin.omdoc.org/logics/syntax?HOL&#45;&gt;http://latin.omdoc.org/logics/proof_theory?LeibnizHOL -->
<g id="edge9" class="edge"><title>http://latin.omdoc.org/logics/syntax?HOL&#45;&gt;http://latin.omdoc.org/logics/proof_theory?LeibnizHOL</title>
<a class="graphinclude">
<path fill="none" stroke="black" d="M316.815,-88.0092C315.99,-76.1897 314.872,-60.1708 313.922,-46.5418"/>
<polygon fill="black" stroke="black" points="317.391,-45.982 313.203,-36.2499 310.408,-46.4693 317.391,-45.982"/>
</a>
</g>
<!-- http://latin.omdoc.org/foundations/hol?SFOL&#45;Syn -->
<g id="node11" class="node"><title>http://latin.omdoc.org/foundations/hol?SFOL&#45;Syn</title>
<a xlink:href="http://latin.omdoc.org/foundations/hol?SFOL-Syn" class="graphtheory">
<ellipse fill="gray" stroke="black" cx="513" cy="-18" rx="50.5427" ry="18"/>
<text text-anchor="middle" x="513" y="-14.3" font-family="Times New Roman,serif" font-size="14.00">SFOL&#45;Syn</text>
</a>
</g>
<!-- http://latin.omdoc.org/logics/syntax?HOL&#45;&gt;http://latin.omdoc.org/foundations/hol?SFOL&#45;Syn -->
<g id="edge11" class="edge"><title>http://latin.omdoc.org/logics/syntax?HOL&#45;&gt;http://latin.omdoc.org/foundations/hol?SFOL&#45;Syn</title>
<a class="graphinclude">
<path fill="none" stroke="black" d="M334.413,-90.9016C339.5,-87.0014 345.277,-83.0161 351,-80 363.433,-73.4471 367.775,-74.7562 381,-70 411.441,-59.0525 445.49,-45.8738 471.382,-35.6557"/>
<polygon fill="black" stroke="black" points="472.871,-38.8304 480.881,-31.8953 470.295,-32.3218 472.871,-38.8304"/>
</a>
</g>
<!-- http://latin.omdoc.org/logics/syntax?HOL&#45;Base -->
<g id="node13" class="node"><title>http://latin.omdoc.org/logics/syntax?HOL&#45;Base</title>
<a xlink:href="http://latin.omdoc.org/logics/syntax?HOL-Base" class="graphtheory">
<ellipse fill="gray" stroke="black" cx="368" cy="-180" rx="50.0684" ry="18"/>
<text text-anchor="middle" x="368" y="-176.3" font-family="Times New Roman,serif" font-size="14.00">HOL&#45;Base</text>
</a>
</g>
<!-- http://latin.omdoc.org/logics/syntax?HOL&#45;Base&#45;&gt;http://latin.omdoc.org/logics/syntax?HOL -->
<g id="edge13" class="edge"><title>http://latin.omdoc.org/logics/syntax?HOL&#45;Base&#45;&gt;http://latin.omdoc.org/logics/syntax?HOL</title>
<a class="graphinclude">
<path fill="none" stroke="black" d="M356.403,-162.301C350.067,-153.176 342.099,-141.702 335.065,-131.574"/>
<polygon fill="black" stroke="black" points="337.769,-129.331 329.19,-123.113 332.019,-133.323 337.769,-129.331"/>
</a>
</g>
<!-- http://cds.omdoc.org/urtheories?LF -->
<g id="node15" class="node"><title>http://cds.omdoc.org/urtheories?LF</title>
<a xlink:href="http://cds.omdoc.org/urtheories?LF" class="graphtheory">
<ellipse fill="gray" stroke="black" cx="290" cy="-254" rx="27" ry="18"/>
<text text-anchor="middle" x="290" y="-250.3" font-family="Times New Roman,serif" font-size="14.00">LF</text>
</a>
</g>
<!-- http://cds.omdoc.org/urtheories?LF&#45;&gt;http://latin.omdoc.org/logics/syntax?HOL -->
<g id="edge15" class="edge"><title>http://cds.omdoc.org/urtheories?LF&#45;&gt;http://latin.omdoc.org/logics/syntax?HOL</title>
<a class="graphmeta">
<path fill="none" stroke="black" d="M293.267,-235.966C298.072,-210.911 307.093,-163.872 312.811,-134.057"/>
<polygon fill="black" stroke="black" points="316.308,-134.406 314.754,-123.925 309.433,-133.087 316.308,-134.406"/>
</a>
</g>
<!-- http://cds.omdoc.org/urtheories?LF&#45;&gt;http://latin.omdoc.org/logics/syntax?STTHOL -->
<g id="edge21" class="edge"><title>http://cds.omdoc.org/urtheories?LF&#45;&gt;http://latin.omdoc.org/logics/syntax?STTHOL</title>
<a class="graphmeta">
<path fill="none" stroke="black" d="M278.88,-237.045C271.622,-226.28 262.194,-211.608 255,-198 226.063,-143.259 217.154,-129.495 200,-70 197.815,-62.4218 196.187,-54.0272 194.991,-46.273"/>
<polygon fill="black" stroke="black" points="198.441,-45.6656 193.616,-36.2328 191.505,-46.6152 198.441,-45.6656"/>
</a>
</g>
<!-- http://cds.omdoc.org/urtheories?LF&#45;&gt;http://latin.omdoc.org/logics/syntax?LambdaPHOL -->
<g id="edge17" class="edge"><title>http://cds.omdoc.org/urtheories?LF&#45;&gt;http://latin.omdoc.org/logics/syntax?LambdaPHOL</title>
<a class="graphmeta">
<path fill="none" stroke="black" d="M274.812,-238.713C263.22,-227.721 246.926,-212.078 233,-198 179.297,-143.71 118.232,-78.0061 86.2425,-43.2677"/>
<polygon fill="black" stroke="black" points="88.4736,-40.5231 79.1282,-35.5317 83.3211,-45.2616 88.4736,-40.5231"/>
</a>
</g>
<!-- http://cds.omdoc.org/urtheories?LF&#45;&gt;http://latin.omdoc.org/logics/proof_theory?HOL -->
<g id="edge19" class="edge"><title>http://cds.omdoc.org/urtheories?LF&#45;&gt;http://latin.omdoc.org/logics/proof_theory?HOL</title>
<a class="graphmeta">
<path fill="none" stroke="black" d="M316.878,-250.881C349.262,-246.722 402.38,-234.413 427,-198 458.254,-151.774 439.886,-82.5814 426.043,-45.2073"/>
<polygon fill="black" stroke="black" points="429.18,-43.6154 422.303,-35.5552 422.652,-46.1443 429.18,-43.6154"/>
</a>
</g>
<!-- http://cds.omdoc.org/urtheories?LF&#45;&gt;http://latin.omdoc.org/logics/proof_theory?LeibnizHOL -->
<g id="edge25" class="edge"><title>http://cds.omdoc.org/urtheories?LF&#45;&gt;http://latin.omdoc.org/logics/proof_theory?LeibnizHOL</title>
<a class="graphmeta">
<path fill="none" stroke="black" d="M282.15,-236.491C266.491,-201.016 235.4,-115.734 266,-54 268.507,-48.9426 272.133,-44.4178 276.265,-40.4359"/>
<polygon fill="black" stroke="black" points="278.701,-42.9617 284.118,-33.8568 274.205,-37.596 278.701,-42.9617"/>
</a>
</g>
<!-- http://cds.omdoc.org/urtheories?LF&#45;&gt;http://latin.omdoc.org/foundations/hol?SFOL&#45;Syn -->
<g id="edge23" class="edge"><title>http://cds.omdoc.org/urtheories?LF&#45;&gt;http://latin.omdoc.org/foundations/hol?SFOL&#45;Syn</title>
<a class="graphmeta">
<path fill="none" stroke="black" d="M317.188,-252.562C354.094,-250.325 418.888,-240.205 449,-198 482.933,-150.441 500.54,-83.0622 508.174,-46.0166"/>
<polygon fill="black" stroke="black" points="511.652,-46.4687 510.149,-35.981 504.783,-45.1168 511.652,-46.4687"/>
</a>
</g>
<!-- http://cds.omdoc.org/urtheories?LF&#45;&gt;http://latin.omdoc.org/logics/syntax?HOL&#45;Base -->
<g id="edge27" class="edge"><title>http://cds.omdoc.org/urtheories?LF&#45;&gt;http://latin.omdoc.org/logics/syntax?HOL&#45;Base</title>
<a class="graphmeta">
<path fill="none" stroke="black" d="M305.41,-238.775C316.22,-228.797 330.902,-215.244 343.329,-203.773"/>
<polygon fill="black" stroke="black" points="345.747,-206.304 350.721,-196.95 340.999,-201.161 345.747,-206.304"/>
</a>
</g>
</g>
</svg>
