<?xml version="1.0" encoding="UTF-8" standalone="no"?>
<!DOCTYPE svg PUBLIC "-//W3C//DTD SVG 1.1//EN"
 "http://www.w3.org/Graphics/SVG/1.1/DTD/svg11.dtd">
<!-- Generated by graphviz version 2.28.0 (20110507.0327)
 -->
<!-- Title: MMT Pages: 1 -->
<svg
 viewBox="0.00 0.00 2361.00 442.00" xmlns="http://www.w3.org/2000/svg" xmlns:xlink="http://www.w3.org/1999/xlink">
<g id="graph1" class="graph" transform="scale(1 1) rotate(0) translate(4 438)">
<title>MMT</title>
<polygon fill="white" stroke="white" points="-4,5 -4,-438 2358,-438 2358,5 -4,5"/>
<g id="graph2" class="cluster"><title>cluster_local</title>
<polygon fill="none" stroke="black" points="2102,-228 2102,-368 2226,-368 2226,-228 2102,-228"/>
</g>
<!-- http://latin.omdoc.org/math?Universe -->
<g id="node2" class="node"><title>http://latin.omdoc.org/math?Universe</title>
<a xlink:href="http://latin.omdoc.org/math?Universe" class="graphtheory">
<ellipse fill="none" stroke="black" cx="2173" cy="-342" rx="42.3701" ry="18"/>
<text text-anchor="middle" x="2173" y="-338.3" font-family="Times New Roman,serif" font-size="14.00">Universe</text>
</a>
</g>
<!-- http://latin.omdoc.org/logics/syntax?BaseSecOL -->
<g id="node3" class="node"><title>http://latin.omdoc.org/logics/syntax?BaseSecOL</title>
<a xlink:href="http://latin.omdoc.org/logics/syntax?BaseSecOL" class="graphtheory">
<ellipse fill="none" stroke="black" cx="2164" cy="-254" rx="53.4184" ry="18"/>
<text text-anchor="middle" x="2164" y="-250.3" font-family="Times New Roman,serif" font-size="14.00">BaseSecOL</text>
</a>
</g>
<!-- http://latin.omdoc.org/math?Universe&#45;&gt;http://latin.omdoc.org/logics/syntax?BaseSecOL -->
<g id="edge3" class="edge"><title>http://latin.omdoc.org/math?Universe&#45;&gt;http://latin.omdoc.org/logics/syntax?BaseSecOL</title>
<a xlink:href="http://latin.omdoc.org/logics/syntax?I2II" class="graphview">
<path fill="none" stroke="black" d="M2163.66,-324.419C2160.96,-318.756 2158.36,-312.267 2157,-306 2155.33,-298.315 2155.63,-289.888 2156.75,-282.135"/>
<polygon fill="black" stroke="black" points="2160.23,-282.597 2158.67,-272.117 2153.35,-281.277 2160.23,-282.597"/>
</a>
<a xlink:href="http://latin.omdoc.org/logics/syntax?I2II" class="I2II">
<text text-anchor="middle" x="2167.5" y="-294.3" font-family="Times New Roman,serif" font-size="14.00">I2II</text>
</a>
</g>
<!-- http://latin.omdoc.org/foundations/type_theory/church?IndexedUniverse -->
<g id="node5" class="node"><title>http://latin.omdoc.org/foundations/type_theory/church?IndexedUniverse</title>
<a xlink:href="http://latin.omdoc.org/foundations/type_theory/church?IndexedUniverse" class="graphtheory">
<ellipse fill="gray" stroke="black" cx="1121" cy="-254" rx="71.2405" ry="18"/>
<text text-anchor="middle" x="1121" y="-250.3" font-family="Times New Roman,serif" font-size="14.00">IndexedUniverse</text>
</a>
</g>
<!-- http://latin.omdoc.org/math?Universe&#45;&gt;http://latin.omdoc.org/foundations/type_theory/church?IndexedUniverse -->
<g id="edge5" class="edge"><title>http://latin.omdoc.org/math?Universe&#45;&gt;http://latin.omdoc.org/foundations/type_theory/church?IndexedUniverse</title>
<a xlink:href="http://latin.omdoc.org/foundations/type_theory/church?IndexedUniverse?types" class="graphstructure">
<path fill="none" stroke="black" d="M2144.22,-328.696C2138.6,-326.775 2132.69,-325.072 2127,-324 2074.25,-314.057 1209.04,-329.933 1161,-306 1150.05,-300.545 1141.19,-290.525 1134.61,-280.802"/>
<polygon fill="black" stroke="black" points="1137.46,-278.756 1129.22,-272.095 1131.51,-282.44 1137.46,-278.756"/>
</a>
<a xlink:href="http://latin.omdoc.org/foundations/type_theory/church?IndexedUniverse?types" class="types">
<text text-anchor="middle" x="1176.5" y="-294.3" font-family="Times New Roman,serif" font-size="14.00">types</text>
</a>
</g>
<!-- http://latin.omdoc.org/logics/model_theory?FOLMOD -->
<g id="node7" class="node"><title>http://latin.omdoc.org/logics/model_theory?FOLMOD</title>
<a xlink:href="http://latin.omdoc.org/logics/model_theory?FOLMOD" class="graphtheory">
<ellipse fill="gray" stroke="black" cx="49" cy="-254" rx="49.0941" ry="18"/>
<text text-anchor="middle" x="49" y="-250.3" font-family="Times New Roman,serif" font-size="14.00">FOLMOD</text>
</a>
</g>
<!-- http://latin.omdoc.org/math?Universe&#45;&gt;http://latin.omdoc.org/logics/model_theory?FOLMOD -->
<g id="edge7" class="edge"><title>http://latin.omdoc.org/math?Universe&#45;&gt;http://latin.omdoc.org/logics/model_theory?FOLMOD</title>
<a xlink:href="http://latin.omdoc.org/logics/model_theory?Universe" class="graphview">
<path fill="none" stroke="black" d="M2144.23,-328.652C2138.61,-326.735 2132.69,-325.045 2127,-324 2018.48,-304.08 247.697,-334.112 141,-306 128.716,-302.763 102.611,-287.982 81.3367,-275.16"/>
<polygon fill="black" stroke="black" points="82.9309,-272.033 72.5689,-269.824 79.2918,-278.013 82.9309,-272.033"/>
</a>
<a xlink:href="http://latin.omdoc.org/logics/model_theory?Universe" class="Universe">
<text text-anchor="middle" x="165.5" y="-294.3" font-family="Times New Roman,serif" font-size="14.00">Universe</text>
</a>
</g>
<!-- http://latin.omdoc.org/foundations/mizar?BaseFOLMizarView -->
<g id="node9" class="node"><title>http://latin.omdoc.org/foundations/mizar?BaseFOLMizarView</title>
<a xlink:href="http://latin.omdoc.org/foundations/mizar?BaseFOLMizarView" class="graphtheory">
<ellipse fill="gray" stroke="black" cx="1457" cy="-254" rx="85.2138" ry="18"/>
<text text-anchor="middle" x="1457" y="-250.3" font-family="Times New Roman,serif" font-size="14.00">BaseFOLMizarView</text>
</a>
</g>
<!-- http://latin.omdoc.org/math?Universe&#45;&gt;http://latin.omdoc.org/foundations/mizar?BaseFOLMizarView -->
<g id="edge9" class="edge"><title>http://latin.omdoc.org/math?Universe&#45;&gt;http://latin.omdoc.org/foundations/mizar?BaseFOLMizarView</title>
<a xlink:href="http://latin.omdoc.org/foundations/mizar?BaseFOLMizarView?[http://latin.omdoc.org/math?Universe]" class="graphstructure">
<path fill="none" stroke="black" d="M2144.22,-328.709C2138.6,-326.786 2132.69,-325.08 2127,-324 2104.04,-319.64 1302.34,-322.698 1286,-306 1281.03,-300.918 1281.5,-295.509 1286,-290 1289.3,-285.962 1338.45,-276.154 1383.21,-267.945"/>
<polygon fill="black" stroke="black" points="1384.06,-271.348 1393.27,-266.113 1382.8,-264.461 1384.06,-271.348"/>
</a>
<a xlink:href="http://latin.omdoc.org/foundations/mizar?BaseFOLMizarView?[http://latin.omdoc.org/math?Universe]" class="[http://latin.omdoc.org/math?Universe]">
<text text-anchor="middle" x="1394" y="-294.3" font-family="Times New Roman,serif" font-size="14.00">[http://latin.omdoc.org/math?Universe]</text>
</a>
</g>
<!-- http://latin.omdoc.org/logics/model_theory?BaseFOL -->
<g id="node11" class="node"><title>http://latin.omdoc.org/logics/model_theory?BaseFOL</title>
<a xlink:href="http://latin.omdoc.org/logics/model_theory?BaseFOL" class="graphtheory">
<ellipse fill="gray" stroke="black" cx="1606" cy="-254" rx="46.2191" ry="18"/>
<text text-anchor="middle" x="1606" y="-250.3" font-family="Times New Roman,serif" font-size="14.00">BaseFOL</text>
</a>
</g>
<!-- http://latin.omdoc.org/math?Universe&#45;&gt;http://latin.omdoc.org/logics/model_theory?BaseFOL -->
<g id="edge11" class="edge"><title>http://latin.omdoc.org/math?Universe&#45;&gt;http://latin.omdoc.org/logics/model_theory?BaseFOL</title>
<a xlink:href="http://latin.omdoc.org/logics/model_theory?BaseFOL?[http://latin.omdoc.org/math?Universe]" class="graphstructure">
<path fill="none" stroke="black" d="M2144.21,-328.745C2138.59,-326.818 2132.68,-325.102 2127,-324 2093.28,-317.461 1532.93,-330.639 1509,-306 1504.05,-300.899 1504.91,-295.819 1509,-290 1510.73,-287.543 1537.29,-278.045 1562.19,-269.563"/>
<polygon fill="black" stroke="black" points="1563.6,-272.78 1571.95,-266.258 1561.35,-266.149 1563.6,-272.78"/>
</a>
<a xlink:href="http://latin.omdoc.org/logics/model_theory?BaseFOL?[http://latin.omdoc.org/math?Universe]" class="[http://latin.omdoc.org/math?Universe]">
<text text-anchor="middle" x="1617" y="-294.3" font-family="Times New Roman,serif" font-size="14.00">[http://latin.omdoc.org/math?Universe]</text>
</a>
</g>
<!-- http://latin.omdoc.org/translations/fol_ifol?UniverseLogic -->
<g id="node13" class="node"><title>http://latin.omdoc.org/translations/fol_ifol?UniverseLogic</title>
<a xlink:href="http://latin.omdoc.org/translations/fol_ifol?UniverseLogic" class="graphtheory">
<ellipse fill="gray" stroke="black" cx="1772" cy="-254" rx="63.5411" ry="18"/>
<text text-anchor="middle" x="1772" y="-250.3" font-family="Times New Roman,serif" font-size="14.00">UniverseLogic</text>
</a>
</g>
<!-- http://latin.omdoc.org/math?Universe&#45;&gt;http://latin.omdoc.org/translations/fol_ifol?UniverseLogic -->
<g id="edge13" class="edge"><title>http://latin.omdoc.org/math?Universe&#45;&gt;http://latin.omdoc.org/translations/fol_ifol?UniverseLogic</title>
<a xlink:href="http://latin.omdoc.org/translations/fol_ifol?UniverseLogic?[http://latin.omdoc.org/math?Universe]" class="graphstructure">
<path fill="none" stroke="black" d="M2144.19,-328.842C2138.58,-326.906 2132.67,-325.162 2127,-324 2087.98,-316.005 1796.45,-334.861 1769,-306 1763.03,-299.717 1762.05,-290.797 1763.13,-282.169"/>
<polygon fill="black" stroke="black" points="1766.56,-282.852 1765.16,-272.351 1759.71,-281.434 1766.56,-282.852"/>
</a>
<a xlink:href="http://latin.omdoc.org/translations/fol_ifol?UniverseLogic?[http://latin.omdoc.org/math?Universe]" class="[http://latin.omdoc.org/math?Universe]">
<text text-anchor="middle" x="1877" y="-294.3" font-family="Times New Roman,serif" font-size="14.00">[http://latin.omdoc.org/math?Universe]</text>
</a>
</g>
<!-- http://latin.omdoc.org/foundations/mizar?Mizar -->
<g id="node15" class="node"><title>http://latin.omdoc.org/foundations/mizar?Mizar</title>
<a xlink:href="http://latin.omdoc.org/foundations/mizar?Mizar" class="graphtheory">
<ellipse fill="gray" stroke="black" cx="295" cy="-254" rx="31.2965" ry="18"/>
<text text-anchor="middle" x="295" y="-250.3" font-family="Times New Roman,serif" font-size="14.00">Mizar</text>
</a>
</g>
<!-- http://latin.omdoc.org/math?Universe&#45;&gt;http://latin.omdoc.org/foundations/mizar?Mizar -->
<g id="edge15" class="edge"><title>http://latin.omdoc.org/math?Universe&#45;&gt;http://latin.omdoc.org/foundations/mizar?Mizar</title>
<a xlink:href="http://latin.omdoc.org/foundations/mizar?UniverseMizarView" class="graphview">
<path fill="none" stroke="black" d="M2144.22,-328.665C2138.61,-326.746 2132.69,-325.053 2127,-324 1961.35,-293.355 778.248,-326.144 611,-306 579.746,-302.236 573.042,-295.232 542,-290 467.515,-277.445 447.567,-284.06 373,-272 359.829,-269.87 345.534,-266.938 332.823,-264.108"/>
<polygon fill="black" stroke="black" points="333.547,-260.684 323.02,-261.878 331.995,-267.509 333.547,-260.684"/>
</a>
<a xlink:href="http://latin.omdoc.org/foundations/mizar?UniverseMizarView" class="UniverseMizarView">
<text text-anchor="middle" x="665.5" y="-294.3" font-family="Times New Roman,serif" font-size="14.00">UniverseMizarView</text>
</a>
</g>
<!-- http://latin.omdoc.org/translations/fol_ifol?DN&#45;IFOL -->
<g id="node17" class="node"><title>http://latin.omdoc.org/translations/fol_ifol?DN&#45;IFOL</title>
<a xlink:href="http://latin.omdoc.org/translations/fol_ifol?DN-IFOL" class="graphtheory">
<ellipse fill="gray" stroke="black" cx="199" cy="-254" rx="46.1964" ry="18"/>
<text text-anchor="middle" x="199" y="-250.3" font-family="Times New Roman,serif" font-size="14.00">DN&#45;IFOL</text>
</a>
</g>
<!-- http://latin.omdoc.org/math?Universe&#45;&gt;http://latin.omdoc.org/translations/fol_ifol?DN&#45;IFOL -->
<g id="edge17" class="edge"><title>http://latin.omdoc.org/math?Universe&#45;&gt;http://latin.omdoc.org/translations/fol_ifol?DN&#45;IFOL</title>
<a xlink:href="http://latin.omdoc.org/translations/fol_ifol?Universe" class="graphview">
<path fill="none" stroke="black" d="M2144.22,-328.657C2138.61,-326.739 2132.69,-325.048 2127,-324 2028.59,-305.89 419.823,-340.775 326,-306 315.648,-302.163 316.653,-295.357 307,-290 301.148,-286.752 271.106,-277.099 244.188,-268.751"/>
<polygon fill="black" stroke="black" points="245.051,-265.354 234.463,-265.749 242.986,-272.043 245.051,-265.354"/>
</a>
<a xlink:href="http://latin.omdoc.org/translations/fol_ifol?Universe" class="Universe">
<text text-anchor="middle" x="350.5" y="-294.3" font-family="Times New Roman,serif" font-size="14.00">Universe</text>
</a>
</g>
<!-- http://latin.omdoc.org/logics/syntax?UniverseLogic -->
<g id="node19" class="node"><title>http://latin.omdoc.org/logics/syntax?UniverseLogic</title>
<a xlink:href="http://latin.omdoc.org/logics/syntax?UniverseLogic" class="graphtheory">
<ellipse fill="gray" stroke="black" cx="715" cy="-342" rx="63.5411" ry="18"/>
<text text-anchor="middle" x="715" y="-338.3" font-family="Times New Roman,serif" font-size="14.00">UniverseLogic</text>
</a>
</g>
<!-- http://latin.omdoc.org/math?Universe&#45;&gt;http://latin.omdoc.org/logics/syntax?UniverseLogic -->
<g id="edge19" class="edge"><title>http://latin.omdoc.org/math?Universe&#45;&gt;http://latin.omdoc.org/logics/syntax?UniverseLogic</title>
<a class="graphinclude">
<path fill="none" stroke="black" d="M2156.35,-358.9C2146.22,-367.95 2132.47,-378.2 2118,-383 2052.35,-404.777 941.61,-391.757 873,-383 836.6,-378.354 796.6,-367.919 765.954,-358.739"/>
<polygon fill="black" stroke="black" points="766.936,-355.379 756.35,-355.812 764.895,-362.075 766.936,-355.379"/>
</a>
</g>
<!-- http://latin.omdoc.org/math?EqUniverse -->
<g id="node21" class="node"><title>http://latin.omdoc.org/math?EqUniverse</title>
<a xlink:href="http://latin.omdoc.org/math?EqUniverse" class="graphtheory">
<ellipse fill="gray" stroke="black" cx="2082" cy="-18" rx="52.4675" ry="18"/>
<text text-anchor="middle" x="2082" y="-14.3" font-family="Times New Roman,serif" font-size="14.00">EqUniverse</text>
</a>
</g>
<!-- http://latin.omdoc.org/math?Universe&#45;&gt;http://latin.omdoc.org/math?EqUniverse -->
<g id="edge21" class="edge"><title>http://latin.omdoc.org/math?Universe&#45;&gt;http://latin.omdoc.org/math?EqUniverse</title>
<a class="graphinclude">
<path fill="none" stroke="black" d="M2151.89,-326.169C2125.01,-305.356 2082,-264.751 2082,-218 2082,-218 2082,-218 2082,-105 2082,-85.4036 2082,-63.2956 2082,-46.4023"/>
<polygon fill="black" stroke="black" points="2085.5,-46.1328 2082,-36.1328 2078.5,-46.1328 2085.5,-46.1328"/>
</a>
</g>
<!-- http://latin.omdoc.org/math?Points -->
<g id="node23" class="node"><title>http://latin.omdoc.org/math?Points</title>
<a xlink:href="http://latin.omdoc.org/math?Points" class="graphtheory">
<ellipse fill="gray" stroke="black" cx="1244" cy="-254" rx="33.1991" ry="18"/>
<text text-anchor="middle" x="1244" y="-250.3" font-family="Times New Roman,serif" font-size="14.00">Points</text>
</a>
</g>
<!-- http://latin.omdoc.org/math?Universe&#45;&gt;http://latin.omdoc.org/math?Points -->
<g id="edge23" class="edge"><title>http://latin.omdoc.org/math?Universe&#45;&gt;http://latin.omdoc.org/math?Points</title>
<a class="graphinclude">
<path fill="none" stroke="black" d="M2144.22,-328.7C2138.6,-326.778 2132.69,-325.075 2127,-324 2101.69,-319.219 1218.03,-324.387 1200,-306 1189.83,-295.629 1199.89,-283.315 1212.94,-273.385"/>
<polygon fill="black" stroke="black" points="1215.1,-276.144 1221.3,-267.549 1211.1,-270.404 1215.1,-276.144"/>
</a>
</g>
<!-- http://latin.omdoc.org/math?Equivalence -->
<g id="node25" class="node"><title>http://latin.omdoc.org/math?Equivalence</title>
<a xlink:href="http://latin.omdoc.org/math?Equivalence" class="graphtheory">
<ellipse fill="gray" stroke="black" cx="780" cy="-180" rx="53.4184" ry="18"/>
<text text-anchor="middle" x="780" y="-176.3" font-family="Times New Roman,serif" font-size="14.00">Equivalence</text>
</a>
</g>
<!-- http://latin.omdoc.org/math?Universe&#45;&gt;http://latin.omdoc.org/math?Equivalence -->
<g id="edge25" class="edge"><title>http://latin.omdoc.org/math?Universe&#45;&gt;http://latin.omdoc.org/math?Equivalence</title>
<a class="graphmeta">
<path fill="none" stroke="black" d="M2144.22,-328.707C2138.6,-326.784 2132.69,-325.079 2127,-324 2103.58,-319.557 1285.68,-323.032 1269,-306 1264.02,-300.919 1266.37,-296.608 1269,-290 1273.07,-279.775 1281.93,-282.225 1286,-272 1293.22,-253.828 1299.32,-242.313 1286,-228 1254.2,-193.838 913.267,-204.154 867,-198 856.138,-196.555 844.587,-194.599 833.572,-192.528"/>
<polygon fill="black" stroke="black" points="834.125,-189.07 823.642,-190.604 832.794,-195.942 834.125,-189.07"/>
</a>
</g>
<!-- http://latin.omdoc.org/math?Top -->
<g id="node27" class="node"><title>http://latin.omdoc.org/math?Top</title>
<a xlink:href="http://latin.omdoc.org/math?Top" class="graphtheory">
<ellipse fill="gray" stroke="black" cx="675" cy="-254" rx="27" ry="18"/>
<text text-anchor="middle" x="675" y="-250.3" font-family="Times New Roman,serif" font-size="14.00">Top</text>
</a>
</g>
<!-- http://latin.omdoc.org/math?Universe&#45;&gt;http://latin.omdoc.org/math?Top -->
<g id="edge27" class="edge"><title>http://latin.omdoc.org/math?Universe&#45;&gt;http://latin.omdoc.org/math?Top</title>
<a class="graphmeta">
<path fill="none" stroke="black" d="M2144.22,-328.678C2138.6,-326.758 2132.69,-325.061 2127,-324 1993.4,-299.087 1038.4,-326.162 904,-306 878.824,-302.223 873.917,-295.217 849,-290 788.46,-277.324 770.35,-289.417 711,-272 709.06,-271.431 707.094,-270.77 705.132,-270.045"/>
<polygon fill="black" stroke="black" points="706.084,-266.65 695.508,-266.025 703.386,-273.109 706.084,-266.65"/>
</a>
</g>
<!-- http://latin.omdoc.org/math?Bottom -->
<g id="node29" class="node"><title>http://latin.omdoc.org/math?Bottom</title>
<a xlink:href="http://latin.omdoc.org/math?Bottom" class="graphtheory">
<ellipse fill="gray" stroke="black" cx="886" cy="-254" rx="38.0212" ry="18"/>
<text text-anchor="middle" x="886" y="-250.3" font-family="Times New Roman,serif" font-size="14.00">Bottom</text>
</a>
</g>
<!-- http://latin.omdoc.org/math?Universe&#45;&gt;http://latin.omdoc.org/math?Bottom -->
<g id="edge29" class="edge"><title>http://latin.omdoc.org/math?Universe&#45;&gt;http://latin.omdoc.org/math?Bottom</title>
<a class="graphmeta">
<path fill="none" stroke="black" d="M2144.22,-328.689C2138.6,-326.768 2132.69,-325.068 2127,-324 1897.42,-280.903 1307.74,-335.37 1076,-306 1011.62,-297.84 996.228,-290.414 934,-272 930.906,-271.084 927.718,-270.084 924.527,-269.042"/>
<polygon fill="black" stroke="black" points="925.624,-265.719 915.03,-265.834 923.384,-272.351 925.624,-265.719"/>
</a>
</g>
<!-- http://latin.omdoc.org/math?Preorder -->
<g id="node31" class="node"><title>http://latin.omdoc.org/math?Preorder</title>
<a xlink:href="http://latin.omdoc.org/math?Preorder" class="graphtheory">
<ellipse fill="gray" stroke="black" cx="918" cy="-180" rx="42.3701" ry="18"/>
<text text-anchor="middle" x="918" y="-176.3" font-family="Times New Roman,serif" font-size="14.00">Preorder</text>
</a>
</g>
<!-- http://latin.omdoc.org/math?Universe&#45;&gt;http://latin.omdoc.org/math?Preorder -->
<g id="edge31" class="edge"><title>http://latin.omdoc.org/math?Universe&#45;&gt;http://latin.omdoc.org/math?Preorder</title>
<a class="graphmeta">
<path fill="none" stroke="black" d="M2144.22,-328.708C2138.6,-326.785 2132.69,-325.08 2127,-324 2103.85,-319.606 1295.48,-322.836 1279,-306 1253.49,-279.946 1309.8,-287.625 1320,-272 1330.69,-255.627 1333,-242.609 1320,-228 1297.11,-202.277 1073.58,-188.39 970.096,-183.295"/>
<polygon fill="black" stroke="black" points="970.028,-179.788 959.871,-182.801 969.69,-186.78 970.028,-179.788"/>
</a>
</g>
<!-- http://latin.omdoc.org/math?Congruence -->
<g id="node33" class="node"><title>http://latin.omdoc.org/math?Congruence</title>
<a xlink:href="http://latin.omdoc.org/math?Congruence" class="graphtheory">
<ellipse fill="gray" stroke="black" cx="775" cy="-254" rx="54.3924" ry="18"/>
<text text-anchor="middle" x="775" y="-250.3" font-family="Times New Roman,serif" font-size="14.00">Congruence</text>
</a>
</g>
<!-- http://latin.omdoc.org/math?Universe&#45;&gt;http://latin.omdoc.org/math?Congruence -->
<g id="edge33" class="edge"><title>http://latin.omdoc.org/math?Universe&#45;&gt;http://latin.omdoc.org/math?Congruence</title>
<a class="graphmeta">
<path fill="none" stroke="black" d="M2144.22,-328.683C2138.6,-326.763 2132.69,-325.065 2127,-324 2002.91,-300.789 1116.36,-320.856 991,-306 932.428,-299.059 866.672,-282.184 823.266,-269.737"/>
<polygon fill="black" stroke="black" points="824.123,-266.341 813.543,-266.915 822.172,-273.064 824.123,-266.341"/>
</a>
</g>
<!-- http://latin.omdoc.org/math?Infimum -->
<g id="node35" class="node"><title>http://latin.omdoc.org/math?Infimum</title>
<a xlink:href="http://latin.omdoc.org/math?Infimum" class="graphtheory">
<ellipse fill="gray" stroke="black" cx="1895" cy="-254" rx="40.4202" ry="18"/>
<text text-anchor="middle" x="1895" y="-250.3" font-family="Times New Roman,serif" font-size="14.00">Infimum</text>
</a>
</g>
<!-- http://latin.omdoc.org/math?Universe&#45;&gt;http://latin.omdoc.org/math?Infimum -->
<g id="edge35" class="edge"><title>http://latin.omdoc.org/math?Universe&#45;&gt;http://latin.omdoc.org/math?Infimum</title>
<a class="graphmeta">
<path fill="none" stroke="black" d="M2143.07,-329.037C2137.77,-327.179 2132.26,-325.411 2127,-324 2081.27,-311.742 2067.08,-320.471 2022,-306 2006.48,-301.018 2003.99,-296.407 1989,-290 1971.73,-282.619 1952.33,-275.246 1935.66,-269.184"/>
<polygon fill="black" stroke="black" points="1936.79,-265.871 1926.2,-265.776 1934.42,-272.457 1936.79,-265.871"/>
</a>
</g>
<!-- http://latin.omdoc.org/math?Relation -->
<g id="node37" class="node"><title>http://latin.omdoc.org/math?Relation</title>
<a xlink:href="http://latin.omdoc.org/math?Relation" class="graphtheory">
<ellipse fill="gray" stroke="black" cx="913" cy="-342" rx="39.9464" ry="18"/>
<text text-anchor="middle" x="913" y="-338.3" font-family="Times New Roman,serif" font-size="14.00">Relation</text>
</a>
</g>
<!-- http://latin.omdoc.org/math?Universe&#45;&gt;http://latin.omdoc.org/math?Relation -->
<g id="edge37" class="edge"><title>http://latin.omdoc.org/math?Universe&#45;&gt;http://latin.omdoc.org/math?Relation</title>
<a class="graphmeta">
<path fill="none" stroke="black" d="M2130.72,-342C1741.6,-342 1352.48,-342 963.359,-342"/>
<polygon fill="black" stroke="black" points="963.298,-338.5 953.298,-342 963.298,-345.5 963.298,-338.5"/>
</a>
</g>
<!-- http://latin.omdoc.org/math?Symmetric -->
<g id="node39" class="node"><title>http://latin.omdoc.org/math?Symmetric</title>
<a xlink:href="http://latin.omdoc.org/math?Symmetric" class="graphtheory">
<ellipse fill="gray" stroke="black" cx="432" cy="-254" rx="50.0684" ry="18"/>
<text text-anchor="middle" x="432" y="-250.3" font-family="Times New Roman,serif" font-size="14.00">Symmetric</text>
</a>
</g>
<!-- http://latin.omdoc.org/math?Universe&#45;&gt;http://latin.omdoc.org/math?Symmetric -->
<g id="edge39" class="edge"><title>http://latin.omdoc.org/math?Universe&#45;&gt;http://latin.omdoc.org/math?Symmetric</title>
<a class="graphmeta">
<path fill="none" stroke="black" d="M2144.22,-328.671C2138.61,-326.752 2132.69,-325.057 2127,-324 1977.87,-296.309 910.477,-337.004 762,-306 744.062,-302.254 741.809,-294.317 724,-290 623.059,-265.532 593.208,-290.474 491,-272 486.634,-271.211 482.127,-270.229 477.642,-269.138"/>
<polygon fill="black" stroke="black" points="478.478,-265.739 467.919,-266.607 476.715,-272.513 478.478,-265.739"/>
</a>
</g>
<!-- http://latin.omdoc.org/math?Equality -->
<g id="node41" class="node"><title>http://latin.omdoc.org/math?Equality</title>
<a xlink:href="http://latin.omdoc.org/math?Equality" class="graphtheory">
<ellipse fill="gray" stroke="black" cx="1593" cy="-106" rx="39.9464" ry="18"/>
<text text-anchor="middle" x="1593" y="-102.3" font-family="Times New Roman,serif" font-size="14.00">Equality</text>
</a>
</g>
<!-- http://latin.omdoc.org/math?Universe&#45;&gt;http://latin.omdoc.org/math?Equality -->
<g id="edge41" class="edge"><title>http://latin.omdoc.org/math?Universe&#45;&gt;http://latin.omdoc.org/math?Equality</title>
<a class="graphmeta">
<path fill="none" stroke="black" d="M2144.19,-328.835C2138.58,-326.901 2132.67,-325.158 2127,-324 1966.56,-291.237 1916.27,-351.601 1759,-306 1744.28,-301.732 1710.13,-282.532 1699,-272 1676,-250.238 1630.46,-172.988 1607.28,-132.376"/>
<polygon fill="black" stroke="black" points="1610.27,-130.561 1602.29,-123.595 1604.19,-134.019 1610.27,-130.561"/>
</a>
</g>
<!-- http://latin.omdoc.org/math?Supremum -->
<g id="node43" class="node"><title>http://latin.omdoc.org/math?Supremum</title>
<a xlink:href="http://latin.omdoc.org/math?Supremum" class="graphtheory">
<ellipse fill="gray" stroke="black" cx="2004" cy="-254" rx="50.0684" ry="18"/>
<text text-anchor="middle" x="2004" y="-250.3" font-family="Times New Roman,serif" font-size="14.00">Supremum</text>
</a>
</g>
<!-- http://latin.omdoc.org/math?Universe&#45;&gt;http://latin.omdoc.org/math?Supremum -->
<g id="edge43" class="edge"><title>http://latin.omdoc.org/math?Universe&#45;&gt;http://latin.omdoc.org/math?Supremum</title>
<a class="graphmeta">
<path fill="none" stroke="black" d="M2143.02,-329.209C2137.73,-327.332 2132.23,-325.513 2127,-324 2089.9,-313.279 2074.52,-326.824 2042,-306 2032.13,-299.683 2023.92,-289.842 2017.68,-280.484"/>
<polygon fill="black" stroke="black" points="2020.55,-278.462 2012.32,-271.79 2014.59,-282.138 2020.55,-278.462"/>
</a>
</g>
<!-- http://latin.omdoc.org/math?Transitive -->
<g id="node45" class="node"><title>http://latin.omdoc.org/math?Transitive</title>
<a xlink:href="http://latin.omdoc.org/math?Transitive" class="graphtheory">
<ellipse fill="gray" stroke="black" cx="546" cy="-254" rx="46.2191" ry="18"/>
<text text-anchor="middle" x="546" y="-250.3" font-family="Times New Roman,serif" font-size="14.00">Transitive</text>
</a>
</g>
<!-- http://latin.omdoc.org/math?Universe&#45;&gt;http://latin.omdoc.org/math?Transitive -->
<g id="edge45" class="edge"><title>http://latin.omdoc.org/math?Universe&#45;&gt;http://latin.omdoc.org/math?Transitive</title>
<a class="graphmeta">
<path fill="none" stroke="black" d="M2144.22,-328.675C2138.61,-326.755 2132.69,-325.059 2127,-324 1986.95,-297.933 986.645,-321.205 845,-306 809.381,-302.176 801.306,-296.072 766,-290 709.816,-280.338 695.273,-281.127 639,-272 625.315,-269.78 610.535,-267.175 596.874,-264.679"/>
<polygon fill="black" stroke="black" points="597.151,-261.171 586.682,-262.801 595.882,-268.055 597.151,-261.171"/>
</a>
</g>
<!-- http://latin.omdoc.org/math?Reflexive -->
<g id="node47" class="node"><title>http://latin.omdoc.org/math?Reflexive</title>
<a xlink:href="http://latin.omdoc.org/math?Reflexive" class="graphtheory">
<ellipse fill="gray" stroke="black" cx="987" cy="-254" rx="44.2946" ry="18"/>
<text text-anchor="middle" x="987" y="-250.3" font-family="Times New Roman,serif" font-size="14.00">Reflexive</text>
</a>
</g>
<!-- http://latin.omdoc.org/math?Universe&#45;&gt;http://latin.omdoc.org/math?Reflexive -->
<g id="edge47" class="edge"><title>http://latin.omdoc.org/math?Universe&#45;&gt;http://latin.omdoc.org/math?Reflexive</title>
<a class="graphmeta">
<path fill="none" stroke="black" d="M2144.22,-328.694C2138.6,-326.773 2132.69,-325.071 2127,-324 1911.2,-283.368 1355.39,-343.361 1139,-306 1099.15,-299.12 1055.58,-283.624 1025.34,-271.507"/>
<polygon fill="black" stroke="black" points="1026.6,-268.239 1016.02,-267.707 1023.96,-274.722 1026.6,-268.239"/>
</a>
</g>
<!-- http://latin.omdoc.org/logics/syntax?SecOL -->
<g id="node51" class="node"><title>http://latin.omdoc.org/logics/syntax?SecOL</title>
<a xlink:href="http://latin.omdoc.org/logics/syntax?SecOL" class="graphtheory">
<ellipse fill="gray" stroke="black" cx="2163" cy="-180" rx="36.096" ry="18"/>
<text text-anchor="middle" x="2163" y="-176.3" font-family="Times New Roman,serif" font-size="14.00">SecOL</text>
</a>
</g>
<!-- http://latin.omdoc.org/logics/syntax?BaseSecOL&#45;&gt;http://latin.omdoc.org/logics/syntax?SecOL -->
<g id="edge51" class="edge"><title>http://latin.omdoc.org/logics/syntax?BaseSecOL&#45;&gt;http://latin.omdoc.org/logics/syntax?SecOL</title>
<a class="graphinclude">
<path fill="none" stroke="black" d="M2163.76,-235.937C2163.65,-227.807 2163.51,-217.876 2163.38,-208.705"/>
<polygon fill="black" stroke="black" points="2166.88,-208.391 2163.24,-198.441 2159.88,-208.488 2166.88,-208.391"/>
</a>
</g>
<!-- http://latin.omdoc.org/logics/proof_theory?BaseSecOL -->
<g id="node53" class="node"><title>http://latin.omdoc.org/logics/proof_theory?BaseSecOL</title>
<a xlink:href="http://latin.omdoc.org/logics/proof_theory?BaseSecOL" class="graphtheory">
<ellipse fill="gray" stroke="black" cx="2271" cy="-180" rx="53.4184" ry="18"/>
<text text-anchor="middle" x="2271" y="-176.3" font-family="Times New Roman,serif" font-size="14.00">BaseSecOL</text>
</a>
</g>
<!-- http://latin.omdoc.org/logics/syntax?BaseSecOL&#45;&gt;http://latin.omdoc.org/logics/proof_theory?BaseSecOL -->
<g id="edge53" class="edge"><title>http://latin.omdoc.org/logics/syntax?BaseSecOL&#45;&gt;http://latin.omdoc.org/logics/proof_theory?BaseSecOL</title>
<a class="graphinclude">
<path fill="none" stroke="black" d="M2186.95,-237.554C2202.33,-227.209 2222.76,-213.459 2239.63,-202.107"/>
<polygon fill="black" stroke="black" points="2241.74,-204.907 2248.08,-196.42 2237.83,-199.099 2241.74,-204.907"/>
</a>
</g>
<!-- http://latin.omdoc.org/logics/syntax?UniverseLogic&#45;&gt;http://latin.omdoc.org/logics/syntax?BaseSecOL -->
<g id="edge55" class="edge"><title>http://latin.omdoc.org/logics/syntax?UniverseLogic&#45;&gt;http://latin.omdoc.org/logics/syntax?BaseSecOL</title>
<a class="graphinclude">
<path fill="none" stroke="black" d="M770.781,-333.329C798.713,-329.821 833.082,-326.006 864,-324 1113.51,-307.809 1741.75,-343.217 1989,-306 2034.77,-299.111 2085.36,-283.448 2120.32,-271.285"/>
<polygon fill="black" stroke="black" points="2121.49,-274.585 2129.75,-267.957 2119.16,-267.984 2121.49,-274.585"/>
</a>
</g>
<!-- http://latin.omdoc.org/logics/syntax?UniverseLogic&#45;&gt;http://latin.omdoc.org/logics/model_theory?FOLMOD -->
<g id="edge113" class="edge"><title>http://latin.omdoc.org/logics/syntax?UniverseLogic&#45;&gt;http://latin.omdoc.org/logics/model_theory?FOLMOD</title>
<a xlink:href="http://latin.omdoc.org/logics/model_theory?BaseFOL" class="graphview">
<path fill="none" stroke="black" d="M651.765,-339.975C489.703,-337.044 70.7257,-327.421 50,-306 43.8921,-299.687 42.3671,-290.61 42.7906,-281.859"/>
<polygon fill="black" stroke="black" points="46.2657,-282.275 44.025,-271.92 39.3191,-281.412 46.2657,-282.275"/>
</a>
<a xlink:href="http://latin.omdoc.org/logics/model_theory?BaseFOL" class="BaseFOL">
<text text-anchor="middle" x="77.5" y="-294.3" font-family="Times New Roman,serif" font-size="14.00">BaseFOL</text>
</a>
</g>
<!-- http://latin.omdoc.org/logics/syntax?UniverseLogic&#45;&gt;http://latin.omdoc.org/foundations/mizar?Mizar -->
<g id="edge109" class="edge"><title>http://latin.omdoc.org/logics/syntax?UniverseLogic&#45;&gt;http://latin.omdoc.org/foundations/mizar?Mizar</title>
<a xlink:href="http://latin.omdoc.org/foundations/mizar?BaseFOLMizarView" class="graphview">
<path fill="none" stroke="black" d="M653.272,-337.7C575.494,-332.922 446.592,-322.763 402,-306 390.344,-301.618 389.92,-295.984 379,-290 369.992,-285.064 348.463,-276.112 329.457,-268.498"/>
<polygon fill="black" stroke="black" points="330.698,-265.225 320.113,-264.779 328.11,-271.729 330.698,-265.225"/>
</a>
<a xlink:href="http://latin.omdoc.org/foundations/mizar?BaseFOLMizarView" class="BaseFOLMizarView">
<text text-anchor="middle" x="459.5" y="-294.3" font-family="Times New Roman,serif" font-size="14.00">BaseFOLMizarView</text>
</a>
</g>
<!-- http://latin.omdoc.org/logics/syntax?UniverseLogic&#45;&gt;http://latin.omdoc.org/translations/fol_ifol?DN&#45;IFOL -->
<g id="edge111" class="edge"><title>http://latin.omdoc.org/logics/syntax?UniverseLogic&#45;&gt;http://latin.omdoc.org/translations/fol_ifol?DN&#45;IFOL</title>
<a xlink:href="http://latin.omdoc.org/translations/fol_ifol?UniverseLogic" class="graphview">
<path fill="none" stroke="black" d="M651.394,-341.371C520.472,-341.472 230.524,-338.034 200,-306 194.093,-299.801 192.506,-291.01 192.817,-282.468"/>
<polygon fill="black" stroke="black" points="196.314,-282.699 193.976,-272.365 189.359,-281.901 196.314,-282.699"/>
</a>
<a xlink:href="http://latin.omdoc.org/translations/fol_ifol?UniverseLogic" class="UniverseLogic">
<text text-anchor="middle" x="241" y="-294.3" font-family="Times New Roman,serif" font-size="14.00">UniverseLogic</text>
</a>
</g>
<!-- http://latin.omdoc.org/math?Equivalence&#45;&gt;http://latin.omdoc.org/math?Equality -->
<g id="edge107" class="edge"><title>http://latin.omdoc.org/math?Equivalence&#45;&gt;http://latin.omdoc.org/math?Equality</title>
<a class="graphinclude">
<path fill="none" stroke="black" d="M823.646,-169.431C837.456,-166.684 852.816,-163.916 867,-162 1119.61,-127.871 1424.75,-113.382 1542.9,-108.769"/>
<polygon fill="black" stroke="black" points="1543.23,-112.259 1553.09,-108.378 1542.96,-105.264 1543.23,-112.259"/>
</a>
</g>
<!-- http://latin.omdoc.org/math?Congruence&#45;&gt;http://latin.omdoc.org/math?Equality -->
<g id="edge105" class="edge"><title>http://latin.omdoc.org/math?Congruence&#45;&gt;http://latin.omdoc.org/math?Equality</title>
<a class="graphinclude">
<path fill="none" stroke="black" d="M806.452,-239.175C816.678,-235.098 828.181,-230.945 839,-228 974.252,-191.185 1400.51,-132.632 1544.75,-113.371"/>
<polygon fill="black" stroke="black" points="1545.59,-116.79 1555.04,-112 1544.66,-109.851 1545.59,-116.79"/>
</a>
</g>
<!-- http://latin.omdoc.org/math?Relation&#45;&gt;http://latin.omdoc.org/math?Equivalence -->
<g id="edge89" class="edge"><title>http://latin.omdoc.org/math?Relation&#45;&gt;http://latin.omdoc.org/math?Equivalence</title>
<a class="graphinclude">
<path fill="none" stroke="black" d="M882.43,-330.262C874.848,-327.909 866.691,-325.636 859,-324 790.302,-309.388 768.743,-327.87 702,-306 688.38,-301.537 687.737,-294.091 674,-290 641.889,-280.437 395.973,-296.388 373,-272 359.591,-257.765 359.989,-242.599 373,-228 395.464,-202.793 608.503,-189.122 717.06,-183.742"/>
<polygon fill="black" stroke="black" points="717.412,-187.229 727.23,-183.247 717.071,-180.237 717.412,-187.229"/>
</a>
</g>
<!-- http://latin.omdoc.org/math?Relation&#45;&gt;http://latin.omdoc.org/math?Top -->
<g id="edge91" class="edge"><title>http://latin.omdoc.org/math?Relation&#45;&gt;http://latin.omdoc.org/math?Top</title>
<a class="graphinclude">
<path fill="none" stroke="black" d="M889.226,-327.36C862.937,-312.279 824.222,-290.078 824,-290 776.042,-273.081 759.59,-287.008 711,-272 709.068,-271.403 707.108,-270.721 705.151,-269.981"/>
<polygon fill="black" stroke="black" points="706.113,-266.588 695.539,-265.92 703.389,-273.036 706.113,-266.588"/>
</a>
</g>
<!-- http://latin.omdoc.org/math?Relation&#45;&gt;http://latin.omdoc.org/math?Bottom -->
<g id="edge93" class="edge"><title>http://latin.omdoc.org/math?Relation&#45;&gt;http://latin.omdoc.org/math?Bottom</title>
<a class="graphinclude">
<path fill="none" stroke="black" d="M910.24,-323.752C908.404,-313.753 905.654,-301.003 902,-290 901.021,-287.052 899.87,-284.019 898.641,-281.031"/>
<polygon fill="black" stroke="black" points="901.805,-279.531 894.569,-271.792 895.399,-282.355 901.805,-279.531"/>
</a>
</g>
<!-- http://latin.omdoc.org/math?Relation&#45;&gt;http://latin.omdoc.org/math?Preorder -->
<g id="edge95" class="edge"><title>http://latin.omdoc.org/math?Relation&#45;&gt;http://latin.omdoc.org/math?Preorder</title>
<a class="graphinclude">
<path fill="none" stroke="black" d="M884.485,-329.26C855.222,-317.653 808.14,-300.195 766,-290 738.295,-283.297 657.688,-293.523 639,-272 626.179,-257.234 626.223,-242.804 639,-228 646.449,-219.37 830.791,-200.079 842,-198 851.871,-196.169 862.409,-193.97 872.397,-191.771"/>
<polygon fill="black" stroke="black" points="873.164,-195.186 882.157,-189.585 871.634,-188.355 873.164,-195.186"/>
</a>
</g>
<!-- http://latin.omdoc.org/math?Relation&#45;&gt;http://latin.omdoc.org/math?Congruence -->
<g id="edge97" class="edge"><title>http://latin.omdoc.org/math?Relation&#45;&gt;http://latin.omdoc.org/math?Congruence</title>
<a class="graphinclude">
<path fill="none" stroke="black" d="M896.853,-325.414C885.068,-314.578 868.358,-300.29 852,-290 841.512,-283.403 829.574,-277.353 818.279,-272.205"/>
<polygon fill="black" stroke="black" points="819.551,-268.941 808.99,-268.101 816.723,-275.344 819.551,-268.941"/>
</a>
</g>
<!-- http://latin.omdoc.org/math?Relation&#45;&gt;http://latin.omdoc.org/math?Symmetric -->
<g id="edge99" class="edge"><title>http://latin.omdoc.org/math?Relation&#45;&gt;http://latin.omdoc.org/math?Symmetric</title>
<a class="graphinclude">
<path fill="none" stroke="black" d="M882.12,-330.29C874.62,-327.965 866.577,-325.696 859,-324 801.221,-311.064 783.066,-325.037 727,-306 713.428,-301.392 712.681,-294.273 699,-290 610.43,-262.336 582.233,-288.925 491,-272 486.637,-271.191 482.133,-270.195 477.65,-269.095"/>
<polygon fill="black" stroke="black" points="478.489,-265.697 467.929,-266.553 476.718,-272.469 478.489,-265.697"/>
</a>
</g>
<!-- http://latin.omdoc.org/math?Relation&#45;&gt;http://latin.omdoc.org/math?Transitive -->
<g id="edge101" class="edge"><title>http://latin.omdoc.org/math?Relation&#45;&gt;http://latin.omdoc.org/math?Transitive</title>
<a class="graphinclude">
<path fill="none" stroke="black" d="M881.728,-330.637C874.314,-328.324 866.408,-325.975 859,-324 822.947,-314.388 813.03,-315.697 777,-306 754.469,-299.936 749.725,-295.289 727,-290 674.046,-277.674 659.154,-283.434 606,-272 601.034,-270.932 595.872,-269.684 590.754,-268.358"/>
<polygon fill="black" stroke="black" points="591.593,-264.96 581.027,-265.74 589.773,-271.719 591.593,-264.96"/>
</a>
</g>
<!-- http://latin.omdoc.org/math?Relation&#45;&gt;http://latin.omdoc.org/math?Reflexive -->
<g id="edge103" class="edge"><title>http://latin.omdoc.org/math?Relation&#45;&gt;http://latin.omdoc.org/math?Reflexive</title>
<a class="graphinclude">
<path fill="none" stroke="black" d="M926.919,-324.824C938.082,-311.851 953.911,-293.454 966.52,-278.801"/>
<polygon fill="black" stroke="black" points="969.274,-280.966 973.144,-271.103 963.968,-276.401 969.274,-280.966"/>
</a>
</g>
<!-- http://latin.omdoc.org/math?Symmetric&#45;&gt;http://latin.omdoc.org/math?Equivalence -->
<g id="edge87" class="edge"><title>http://latin.omdoc.org/math?Symmetric&#45;&gt;http://latin.omdoc.org/math?Equivalence</title>
<a class="graphinclude">
<path fill="none" stroke="black" d="M460.907,-239.121C470.329,-235.041 480.953,-230.9 491,-228 567.941,-205.791 659.632,-193.117 718.779,-186.654"/>
<polygon fill="black" stroke="black" points="719.499,-190.097 729.071,-185.556 718.756,-183.136 719.499,-190.097"/>
</a>
</g>
<!-- http://latin.omdoc.org/math?Equality&#45;&gt;http://latin.omdoc.org/math?EqUniverse -->
<g id="edge85" class="edge"><title>http://latin.omdoc.org/math?Equality&#45;&gt;http://latin.omdoc.org/math?EqUniverse</title>
<a xlink:href="http://latin.omdoc.org/math?EqUniverse?eq" class="graphstructure">
<path fill="none" stroke="black" d="M1629.75,-98.536C1714.79,-83.5807 1925.52,-46.5194 2026.42,-28.7741"/>
<polygon fill="black" stroke="black" points="2027.18,-32.1951 2036.42,-27.0159 2025.97,-25.3009 2027.18,-32.1951"/>
</a>
<a xlink:href="http://latin.omdoc.org/math?EqUniverse?eq" class="eq">
<text text-anchor="middle" x="1889" y="-58.3" font-family="Times New Roman,serif" font-size="14.00">eq</text>
</a>
</g>
<!-- http://latin.omdoc.org/math?Transitive&#45;&gt;http://latin.omdoc.org/math?Equivalence -->
<g id="edge81" class="edge"><title>http://latin.omdoc.org/math?Transitive&#45;&gt;http://latin.omdoc.org/math?Equivalence</title>
<a class="graphinclude">
<path fill="none" stroke="black" d="M575.307,-239.887C584.978,-235.803 595.856,-231.467 606,-228 646.155,-214.277 692.595,-201.904 727.393,-193.302"/>
<polygon fill="black" stroke="black" points="728.459,-196.644 737.34,-190.867 726.795,-189.845 728.459,-196.644"/>
</a>
</g>
<!-- http://latin.omdoc.org/math?Transitive&#45;&gt;http://latin.omdoc.org/math?Preorder -->
<g id="edge83" class="edge"><title>http://latin.omdoc.org/math?Transitive&#45;&gt;http://latin.omdoc.org/math?Preorder</title>
<a class="graphinclude">
<path fill="none" stroke="black" d="M573.841,-239.573C583.787,-235.27 595.205,-230.879 606,-228 657.081,-214.378 789.925,-207.113 842,-198 851.889,-196.269 862.434,-194.113 872.424,-191.922"/>
<polygon fill="black" stroke="black" points="873.191,-195.337 882.184,-189.736 871.661,-188.507 873.191,-195.337"/>
</a>
</g>
<!-- http://latin.omdoc.org/math?Reflexive&#45;&gt;http://latin.omdoc.org/math?Equivalence -->
<g id="edge77" class="edge"><title>http://latin.omdoc.org/math?Reflexive&#45;&gt;http://latin.omdoc.org/math?Equivalence</title>
<a class="graphinclude">
<path fill="none" stroke="black" d="M961.867,-239.142C952.996,-234.857 942.788,-230.587 933,-228 907.129,-221.163 836.944,-229.947 813,-218 807.036,-215.024 801.66,-210.463 797.063,-205.548"/>
<polygon fill="black" stroke="black" points="799.608,-203.135 790.507,-197.71 794.239,-207.626 799.608,-203.135"/>
</a>
</g>
<!-- http://latin.omdoc.org/math?Reflexive&#45;&gt;http://latin.omdoc.org/math?Preorder -->
<g id="edge79" class="edge"><title>http://latin.omdoc.org/math?Reflexive&#45;&gt;http://latin.omdoc.org/math?Preorder</title>
<a class="graphinclude">
<path fill="none" stroke="black" d="M971.687,-237.021C962.485,-227.42 950.615,-215.033 940.376,-204.349"/>
<polygon fill="black" stroke="black" points="942.717,-201.733 933.271,-196.934 937.663,-206.576 942.717,-201.733"/>
</a>
</g>
<!-- http://cds.omdoc.org/urtheories?LF -->
<g id="node49" class="node"><title>http://cds.omdoc.org/urtheories?LF</title>
<a xlink:href="http://cds.omdoc.org/urtheories?LF" class="graphtheory">
<ellipse fill="gray" stroke="black" cx="2103" cy="-416" rx="27" ry="18"/>
<text text-anchor="middle" x="2103" y="-412.3" font-family="Times New Roman,serif" font-size="14.00">LF</text>
</a>
</g>
<!-- http://cds.omdoc.org/urtheories?LF&#45;&gt;http://latin.omdoc.org/math?Universe -->
<g id="edge49" class="edge"><title>http://cds.omdoc.org/urtheories?LF&#45;&gt;http://latin.omdoc.org/math?Universe</title>
<a class="graphmeta">
<path fill="none" stroke="black" d="M2117.17,-400.43C2126.71,-390.614 2139.5,-377.457 2150.43,-366.212"/>
<polygon fill="black" stroke="black" points="2153.18,-368.408 2157.64,-358.798 2148.16,-363.528 2153.18,-368.408"/>
</a>
</g>
<!-- http://cds.omdoc.org/urtheories?LF&#45;&gt;http://latin.omdoc.org/logics/syntax?BaseSecOL -->
<g id="edge57" class="edge"><title>http://cds.omdoc.org/urtheories?LF&#45;&gt;http://latin.omdoc.org/logics/syntax?BaseSecOL</title>
<a class="graphmeta">
<path fill="none" stroke="black" d="M2104.83,-397.727C2107.21,-379.039 2112.27,-348.616 2122,-324 2128.05,-308.677 2137.4,-292.886 2145.74,-280.284"/>
<polygon fill="black" stroke="black" points="2148.83,-281.958 2151.57,-271.723 2143.05,-278.017 2148.83,-281.958"/>
</a>
</g>
<!-- http://cds.omdoc.org/urtheories?LF&#45;&gt;http://latin.omdoc.org/foundations/type_theory/church?IndexedUniverse -->
<g id="edge67" class="edge"><title>http://cds.omdoc.org/urtheories?LF&#45;&gt;http://latin.omdoc.org/foundations/type_theory/church?IndexedUniverse</title>
<a class="graphmeta">
<path fill="none" stroke="black" d="M2075.79,-414.465C1936.41,-411.605 1305.89,-397.134 1224,-368 1179.95,-352.327 1166.92,-343.507 1139,-306 1133.74,-298.932 1129.92,-290.193 1127.18,-281.957"/>
<polygon fill="black" stroke="black" points="1130.53,-280.928 1124.37,-272.308 1123.81,-282.888 1130.53,-280.928"/>
</a>
</g>
<!-- http://cds.omdoc.org/urtheories?LF&#45;&gt;http://latin.omdoc.org/logics/model_theory?FOLMOD -->
<g id="edge65" class="edge"><title>http://cds.omdoc.org/urtheories?LF&#45;&gt;http://latin.omdoc.org/logics/model_theory?FOLMOD</title>
<a class="graphmeta">
<path fill="none" stroke="black" d="M2076.02,-414.87C1938.59,-414.084 1302.58,-408.974 783,-380 720.204,-376.498 704.617,-373.889 642,-368 374.211,-342.817 220.186,-505.696 40,-306 34.0484,-299.404 34.0321,-290.302 36.256,-281.611"/>
<polygon fill="black" stroke="black" points="39.5746,-282.723 39.5217,-272.128 32.9561,-280.443 39.5746,-282.723"/>
</a>
</g>
<!-- http://cds.omdoc.org/urtheories?LF&#45;&gt;http://latin.omdoc.org/foundations/mizar?Mizar -->
<g id="edge73" class="edge"><title>http://cds.omdoc.org/urtheories?LF&#45;&gt;http://latin.omdoc.org/foundations/mizar?Mizar</title>
<a class="graphmeta">
<path fill="none" stroke="black" d="M2075.94,-415.17C1904.97,-416.085 978.254,-418.667 864,-368 839.004,-356.915 845.843,-335.424 821,-324 765.158,-298.321 603.859,-323.701 545,-306 531.274,-301.872 530.62,-294.463 517,-290 450.257,-268.13 429.037,-284.918 360,-272 350.837,-270.285 341.06,-267.984 331.945,-265.63"/>
<polygon fill="black" stroke="black" points="332.568,-262.174 322.004,-262.978 330.764,-268.938 332.568,-262.174"/>
</a>
</g>
<!-- http://cds.omdoc.org/urtheories?LF&#45;&gt;http://latin.omdoc.org/translations/fol_ifol?DN&#45;IFOL -->
<g id="edge75" class="edge"><title>http://cds.omdoc.org/urtheories?LF&#45;&gt;http://latin.omdoc.org/translations/fol_ifol?DN&#45;IFOL</title>
<a class="graphmeta">
<path fill="none" stroke="black" d="M2075.91,-414.676C1920.2,-412.746 1137.8,-402.08 898,-380 863.511,-376.824 850.818,-385.621 821,-368 799.724,-355.426 808.974,-335.309 787,-324 739.842,-299.729 360.995,-320.577 310,-306 296.219,-302.061 294.849,-296.352 282,-290 268.576,-283.364 253.581,-276.795 240.069,-271.172"/>
<polygon fill="black" stroke="black" points="241.116,-267.818 230.536,-267.257 238.457,-274.294 241.116,-267.818"/>
</a>
</g>
<!-- http://cds.omdoc.org/urtheories?LF&#45;&gt;http://latin.omdoc.org/logics/syntax?UniverseLogic -->
<g id="edge61" class="edge"><title>http://cds.omdoc.org/urtheories?LF&#45;&gt;http://latin.omdoc.org/logics/syntax?UniverseLogic</title>
<a class="graphmeta">
<path fill="none" stroke="black" d="M2076.02,-414.949C1900.29,-414.53 921.819,-410.818 793,-380 778.221,-376.464 762.913,-369.925 749.814,-363.317"/>
<polygon fill="black" stroke="black" points="751.186,-360.084 740.705,-358.534 747.932,-366.282 751.186,-360.084"/>
</a>
</g>
<!-- http://cds.omdoc.org/urtheories?LF&#45;&gt;http://latin.omdoc.org/math?EqUniverse -->
<g id="edge71" class="edge"><title>http://cds.omdoc.org/urtheories?LF&#45;&gt;http://latin.omdoc.org/math?EqUniverse</title>
<a class="graphmeta">
<path fill="none" stroke="black" d="M2129.75,-412.997C2194.25,-407.437 2353,-389.07 2353,-343 2353,-343 2353,-343 2353,-105 2353,-60.8589 2220.73,-36.419 2141,-25.6973"/>
<polygon fill="black" stroke="black" points="2141.45,-22.2256 2131.08,-24.3964 2140.54,-29.1662 2141.45,-22.2256"/>
</a>
</g>
<!-- http://cds.omdoc.org/urtheories?LF&#45;&gt;http://latin.omdoc.org/math?Points -->
<g id="edge69" class="edge"><title>http://cds.omdoc.org/urtheories?LF&#45;&gt;http://latin.omdoc.org/math?Points</title>
<a class="graphmeta">
<path fill="none" stroke="black" d="M2075.81,-413.853C1930.77,-407.461 1252.4,-374.057 1192,-306 1181.24,-293.871 1194.31,-281.094 1210.03,-271.364"/>
<polygon fill="black" stroke="black" points="1211.96,-274.293 1218.91,-266.295 1208.49,-268.215 1211.96,-274.293"/>
</a>
</g>
<!-- http://cds.omdoc.org/urtheories?LF&#45;&gt;http://latin.omdoc.org/logics/syntax?SecOL -->
<g id="edge59" class="edge"><title>http://cds.omdoc.org/urtheories?LF&#45;&gt;http://latin.omdoc.org/logics/syntax?SecOL</title>
<a class="graphmeta">
<path fill="none" stroke="black" d="M2129.97,-413.62C2160.07,-410.466 2207.5,-400.318 2230,-368 2265.55,-316.935 2258.71,-283.204 2230,-228 2223.2,-214.914 2210.89,-204.713 2198.67,-197.209"/>
<polygon fill="black" stroke="black" points="2200.29,-194.104 2189.86,-192.218 2196.84,-200.194 2200.29,-194.104"/>
</a>
</g>
<!-- http://cds.omdoc.org/urtheories?LF&#45;&gt;http://latin.omdoc.org/logics/proof_theory?BaseSecOL -->
<g id="edge63" class="edge"><title>http://cds.omdoc.org/urtheories?LF&#45;&gt;http://latin.omdoc.org/logics/proof_theory?BaseSecOL</title>
<a class="graphmeta">
<path fill="none" stroke="black" d="M2130.3,-415.696C2165.89,-414.927 2226.89,-407.495 2255,-368 2289.01,-320.216 2283.1,-247.18 2276.6,-208.025"/>
<polygon fill="black" stroke="black" points="2280.04,-207.379 2274.83,-198.156 2273.15,-208.617 2280.04,-207.379"/>
</a>
</g>
</g>
</svg>
