<?xml version="1.0" encoding="UTF-8" standalone="no"?>
<!DOCTYPE svg PUBLIC "-//W3C//DTD SVG 1.1//EN"
 "http://www.w3.org/Graphics/SVG/1.1/DTD/svg11.dtd">
<!-- Generated by graphviz version 2.28.0 (20110507.0327)
 -->
<!-- Title: MMT Pages: 1 -->
<svg
 viewBox="0.00 0.00 1254.72 294.00" xmlns="http://www.w3.org/2000/svg" xmlns:xlink="http://www.w3.org/1999/xlink">
<g id="graph1" class="graph" transform="scale(1 1) rotate(0) translate(4 290)">
<title>MMT</title>
<polygon fill="white" stroke="white" points="-4,5 -4,-290 1251.72,-290 1251.72,5 -4,5"/>
<g id="graph2" class="cluster"><title>cluster_local</title>
<polygon fill="none" stroke="black" points="332.376,-168 332.376,-220 406.376,-220 406.376,-168 332.376,-168"/>
</g>
<!-- http://latin.omdoc.org/logics/syntax?MPL -->
<g id="node2" class="node"><title>http://latin.omdoc.org/logics/syntax?MPL</title>
<a xlink:href="http://latin.omdoc.org/logics/syntax?MPL" class="graphtheory">
<ellipse fill="none" stroke="black" cx="369.376" cy="-194" rx="29.3722" ry="18"/>
<text text-anchor="middle" x="369.376" y="-190.3" font-family="Times New Roman,serif" font-size="14.00">MPL</text>
</a>
</g>
<!-- http://latin.omdoc.org/logics/syntax?PL -->
<g id="node3" class="node"><title>http://latin.omdoc.org/logics/syntax?PL</title>
<a xlink:href="http://latin.omdoc.org/logics/syntax?PL" class="graphtheory">
<ellipse fill="gray" stroke="black" cx="217.376" cy="-106" rx="27" ry="18"/>
<text text-anchor="middle" x="217.376" y="-102.3" font-family="Times New Roman,serif" font-size="14.00">PL</text>
</a>
</g>
<!-- http://latin.omdoc.org/logics/syntax?MPL&#45;&gt;http://latin.omdoc.org/logics/syntax?PL -->
<g id="edge3" class="edge"><title>http://latin.omdoc.org/logics/syntax?MPL&#45;&gt;http://latin.omdoc.org/logics/syntax?PL</title>
<a xlink:href="http://latin.omdoc.org/logics/syntax?MPL-PL" class="graphview">
<path fill="none" stroke="black" d="M353.607,-178.515C348.451,-174.506 342.474,-170.558 336.376,-168 308.207,-156.184 295.671,-171.717 268.376,-158 255.487,-151.522 243.871,-140.547 234.991,-130.433"/>
<polygon fill="black" stroke="black" points="237.57,-128.06 228.485,-122.609 232.188,-132.536 237.57,-128.06"/>
</a>
<a xlink:href="http://latin.omdoc.org/logics/syntax?MPL-PL" class="MPL&#45;PL">
<text text-anchor="middle" x="293.376" y="-146.3" font-family="Times New Roman,serif" font-size="14.00">MPL&#45;PL</text>
</a>
</g>
<!-- http://latin.omdoc.org/logics/model_theory/kripke?Kripke -->
<g id="node5" class="node"><title>http://latin.omdoc.org/logics/model_theory/kripke?Kripke</title>
<a xlink:href="http://latin.omdoc.org/logics/model_theory/kripke?Kripke" class="graphtheory">
<ellipse fill="gray" stroke="black" cx="84.3765" cy="-18" rx="35.1455" ry="18"/>
<text text-anchor="middle" x="84.3765" y="-14.3" font-family="Times New Roman,serif" font-size="14.00">Kripke</text>
</a>
</g>
<!-- http://latin.omdoc.org/logics/syntax?MPL&#45;&gt;http://latin.omdoc.org/logics/model_theory/kripke?Kripke -->
<g id="edge5" class="edge"><title>http://latin.omdoc.org/logics/syntax?MPL&#45;&gt;http://latin.omdoc.org/logics/model_theory/kripke?Kripke</title>
<a xlink:href="http://latin.omdoc.org/logics/model_theory/kripke?MPL" class="graphview">
<path fill="none" stroke="black" d="M355.913,-177.785C346.077,-167.124 332.112,-152.892 318.376,-142 306.49,-132.574 301.263,-133.426 289.376,-124 271.647,-109.941 271.771,-101.177 253.376,-88 225.584,-68.0909 215.902,-67.2268 184.376,-54 164.536,-45.6756 141.948,-37.6509 123.265,-31.3901"/>
<polygon fill="black" stroke="black" points="124.203,-28.0137 113.61,-28.1939 122.003,-34.6591 124.203,-28.0137"/>
</a>
<a xlink:href="http://latin.omdoc.org/logics/model_theory/kripke?MPL" class="MPL">
<text text-anchor="middle" x="303.876" y="-102.3" font-family="Times New Roman,serif" font-size="14.00">MPL</text>
</a>
</g>
<!-- http://latin.omdoc.org/translations/ml_fol?ML -->
<g id="node7" class="node"><title>http://latin.omdoc.org/translations/ml_fol?ML</title>
<a xlink:href="http://latin.omdoc.org/translations/ml_fol?ML" class="graphtheory">
<ellipse fill="gray" stroke="black" cx="679.376" cy="-106" rx="27" ry="18"/>
<text text-anchor="middle" x="679.376" y="-102.3" font-family="Times New Roman,serif" font-size="14.00">ML</text>
</a>
</g>
<!-- http://latin.omdoc.org/logics/syntax?MPL&#45;&gt;http://latin.omdoc.org/translations/ml_fol?ML -->
<g id="edge7" class="edge"><title>http://latin.omdoc.org/logics/syntax?MPL&#45;&gt;http://latin.omdoc.org/translations/ml_fol?ML</title>
<a xlink:href="http://latin.omdoc.org/translations/ml_fol?ML?[http://latin.omdoc.org/logics/syntax?MPL]" class="graphstructure">
<path fill="none" stroke="black" d="M384.654,-178.372C389.877,-174.253 396.015,-170.277 402.376,-168 429.073,-158.443 633.996,-174.043 657.376,-158 665.551,-152.391 670.708,-143.061 673.953,-133.904"/>
<polygon fill="black" stroke="black" points="677.337,-134.8 676.775,-124.22 670.617,-132.841 677.337,-134.8"/>
</a>
<a xlink:href="http://latin.omdoc.org/translations/ml_fol?ML?[http://latin.omdoc.org/logics/syntax?MPL]" class="[http://latin.omdoc.org/logics/syntax?MPL]">
<text text-anchor="middle" x="791.876" y="-146.3" font-family="Times New Roman,serif" font-size="14.00">[http://latin.omdoc.org/logics/syntax?MPL]</text>
</a>
</g>
<!-- http://latin.omdoc.org/translations/ml_fol?ML&#45;FOL -->
<g id="node9" class="node"><title>http://latin.omdoc.org/translations/ml_fol?ML&#45;FOL</title>
<a xlink:href="http://latin.omdoc.org/translations/ml_fol?ML-FOL" class="graphtheory">
<ellipse fill="gray" stroke="black" cx="396.376" cy="-18" rx="44.2946" ry="18"/>
<text text-anchor="middle" x="396.376" y="-14.3" font-family="Times New Roman,serif" font-size="14.00">ML&#45;FOL</text>
</a>
</g>
<!-- http://latin.omdoc.org/logics/syntax?MPL&#45;&gt;http://latin.omdoc.org/translations/ml_fol?ML&#45;FOL -->
<g id="edge9" class="edge"><title>http://latin.omdoc.org/logics/syntax?MPL&#45;&gt;http://latin.omdoc.org/translations/ml_fol?ML&#45;FOL</title>
<a xlink:href="http://latin.omdoc.org/translations/ml_fol?MPL" class="graphview">
<path fill="none" stroke="black" d="M375.771,-176.214C384.271,-152.833 398.755,-108.941 403.376,-70 404.303,-62.1901 403.766,-53.7231 402.661,-45.9737"/>
<polygon fill="black" stroke="black" points="406.081,-45.2146 400.888,-35.9801 399.189,-46.4379 406.081,-45.2146"/>
</a>
<a xlink:href="http://latin.omdoc.org/translations/ml_fol?MPL" class="MPL">
<text text-anchor="middle" x="415.876" y="-102.3" font-family="Times New Roman,serif" font-size="14.00">MPL</text>
</a>
</g>
<!-- http://latin.omdoc.org/logics/proof_theory?MPL&#45;CPL -->
<g id="node11" class="node"><title>http://latin.omdoc.org/logics/proof_theory?MPL&#45;CPL</title>
<a xlink:href="http://latin.omdoc.org/logics/proof_theory?MPL-CPL" class="graphtheory">
<ellipse fill="gray" stroke="black" cx="943.376" cy="-106" rx="49.0941" ry="18"/>
<text text-anchor="middle" x="943.376" y="-102.3" font-family="Times New Roman,serif" font-size="14.00">MPL&#45;CPL</text>
</a>
</g>
<!-- http://latin.omdoc.org/logics/syntax?MPL&#45;&gt;http://latin.omdoc.org/logics/proof_theory?MPL&#45;CPL -->
<g id="edge11" class="edge"><title>http://latin.omdoc.org/logics/syntax?MPL&#45;&gt;http://latin.omdoc.org/logics/proof_theory?MPL&#45;CPL</title>
<a xlink:href="http://latin.omdoc.org/logics/proof_theory?MPL-CPL?[http://latin.omdoc.org/logics/syntax?MPL]" class="graphstructure">
<path fill="none" stroke="black" d="M384.628,-178.297C389.848,-174.173 395.993,-170.214 402.376,-168 429.36,-158.64 892.053,-172.969 916.376,-158 925.242,-152.544 931.359,-143.115 935.498,-133.837"/>
<polygon fill="black" stroke="black" points="938.806,-134.986 939.127,-124.397 932.272,-132.475 938.806,-134.986"/>
</a>
<a xlink:href="http://latin.omdoc.org/logics/proof_theory?MPL-CPL?[http://latin.omdoc.org/logics/syntax?MPL]" class="[http://latin.omdoc.org/logics/syntax?MPL]">
<text text-anchor="middle" x="1051.88" y="-146.3" font-family="Times New Roman,serif" font-size="14.00">[http://latin.omdoc.org/logics/syntax?MPL]</text>
</a>
</g>
<!-- http://latin.omdoc.org/logics/model_theory/kripke?ML -->
<g id="node13" class="node"><title>http://latin.omdoc.org/logics/model_theory/kripke?ML</title>
<a xlink:href="http://latin.omdoc.org/logics/model_theory/kripke?ML" class="graphtheory">
<ellipse fill="gray" stroke="black" cx="491.376" cy="-106" rx="27" ry="18"/>
<text text-anchor="middle" x="491.376" y="-102.3" font-family="Times New Roman,serif" font-size="14.00">ML</text>
</a>
</g>
<!-- http://latin.omdoc.org/logics/syntax?MPL&#45;&gt;http://latin.omdoc.org/logics/model_theory/kripke?ML -->
<g id="edge13" class="edge"><title>http://latin.omdoc.org/logics/syntax?MPL&#45;&gt;http://latin.omdoc.org/logics/model_theory/kripke?ML</title>
<a xlink:href="http://latin.omdoc.org/logics/model_theory/kripke?ML?[http://latin.omdoc.org/logics/syntax?MPL]" class="graphstructure">
<path fill="none" stroke="black" d="M381.2,-177.205C389.989,-166.27 402.77,-151.95 416.376,-142 423.794,-136.576 442.52,-127.836 459.404,-120.446"/>
<polygon fill="black" stroke="black" points="461.24,-123.466 469.032,-116.287 458.464,-117.04 461.24,-123.466"/>
</a>
<a xlink:href="http://latin.omdoc.org/logics/model_theory/kripke?ML?[http://latin.omdoc.org/logics/syntax?MPL]" class="[http://latin.omdoc.org/logics/syntax?MPL]">
<text text-anchor="middle" x="536.876" y="-146.3" font-family="Times New Roman,serif" font-size="14.00">[http://latin.omdoc.org/logics/syntax?MPL]</text>
</a>
</g>
<!-- http://latin.omdoc.org/logics/proof_theory?MPL -->
<g id="node15" class="node"><title>http://latin.omdoc.org/logics/proof_theory?MPL</title>
<a xlink:href="http://latin.omdoc.org/logics/proof_theory?MPL" class="graphtheory">
<ellipse fill="gray" stroke="black" cx="1202.38" cy="-106" rx="29.3722" ry="18"/>
<text text-anchor="middle" x="1202.38" y="-102.3" font-family="Times New Roman,serif" font-size="14.00">MPL</text>
</a>
</g>
<!-- http://latin.omdoc.org/logics/syntax?MPL&#45;&gt;http://latin.omdoc.org/logics/proof_theory?MPL -->
<g id="edge15" class="edge"><title>http://latin.omdoc.org/logics/syntax?MPL&#45;&gt;http://latin.omdoc.org/logics/proof_theory?MPL</title>
<a class="graphinclude">
<path fill="none" stroke="black" d="M384.287,-178.535C389.578,-174.316 395.85,-170.24 402.376,-168 443.051,-154.04 1139.85,-180.702 1176.38,-158 1185.27,-152.471 1191.25,-142.85 1195.2,-133.445"/>
<polygon fill="black" stroke="black" points="1198.55,-134.496 1198.63,-123.901 1191.96,-132.13 1198.55,-134.496"/>
</a>
</g>
<!-- http://latin.omdoc.org/logics/syntax?ML -->
<g id="node17" class="node"><title>http://latin.omdoc.org/logics/syntax?ML</title>
<a xlink:href="http://latin.omdoc.org/logics/syntax?ML" class="graphtheory">
<ellipse fill="gray" stroke="black" cx="354.376" cy="-106" rx="27" ry="18"/>
<text text-anchor="middle" x="354.376" y="-102.3" font-family="Times New Roman,serif" font-size="14.00">ML</text>
</a>
</g>
<!-- http://latin.omdoc.org/logics/syntax?MPL&#45;&gt;http://latin.omdoc.org/logics/syntax?ML -->
<g id="edge17" class="edge"><title>http://latin.omdoc.org/logics/syntax?MPL&#45;&gt;http://latin.omdoc.org/logics/syntax?ML</title>
<a class="graphinclude">
<path fill="none" stroke="black" d="M366.413,-176.009C364.317,-163.995 361.465,-147.641 359.063,-133.869"/>
<polygon fill="black" stroke="black" points="362.5,-133.205 357.334,-123.956 355.604,-134.408 362.5,-133.205"/>
</a>
</g>
<!-- http://latin.omdoc.org/logics/syntax?PL&#45;&gt;http://latin.omdoc.org/logics/model_theory/kripke?Kripke -->
<g id="edge47" class="edge"><title>http://latin.omdoc.org/logics/syntax?PL&#45;&gt;http://latin.omdoc.org/logics/model_theory/kripke?Kripke</title>
<a xlink:href="http://latin.omdoc.org/logics/model_theory/kripke?PL" class="graphview">
<path fill="none" stroke="black" d="M198.603,-92.8607C176.569,-78.6131 139.76,-54.8118 113.895,-38.087"/>
<polygon fill="black" stroke="black" points="115.542,-34.9845 105.245,-32.4936 111.741,-40.8627 115.542,-34.9845"/>
</a>
<a xlink:href="http://latin.omdoc.org/logics/model_theory/kripke?PL" class="PL">
<text text-anchor="middle" x="171.876" y="-58.3" font-family="Times New Roman,serif" font-size="14.00">PL</text>
</a>
</g>
<!-- http://latin.omdoc.org/logics/syntax?ML&#45;&gt;http://latin.omdoc.org/logics/model_theory/kripke?Kripke -->
<g id="edge45" class="edge"><title>http://latin.omdoc.org/logics/syntax?ML&#45;&gt;http://latin.omdoc.org/logics/model_theory/kripke?Kripke</title>
<a xlink:href="http://latin.omdoc.org/logics/model_theory/kripke?ML" class="graphview">
<path fill="none" stroke="black" d="M341.149,-89.9788C329.914,-78.2372 312.727,-62.5233 294.376,-54 241.309,-29.3516 173.568,-21.8036 129.596,-19.6323"/>
<polygon fill="black" stroke="black" points="129.636,-16.131 119.498,-19.2077 129.342,-23.1249 129.636,-16.131"/>
</a>
<a xlink:href="http://latin.omdoc.org/logics/model_theory/kripke?ML" class="ML">
<text text-anchor="middle" x="328.876" y="-58.3" font-family="Times New Roman,serif" font-size="14.00">ML</text>
</a>
</g>
<!-- http://latin.omdoc.org/logics/syntax?ML&#45;&gt;http://latin.omdoc.org/translations/ml_fol?ML&#45;FOL -->
<g id="edge43" class="edge"><title>http://latin.omdoc.org/logics/syntax?ML&#45;&gt;http://latin.omdoc.org/translations/ml_fol?ML&#45;FOL</title>
<a xlink:href="http://latin.omdoc.org/translations/ml_fol?ML" class="graphview">
<path fill="none" stroke="black" d="M362.474,-88.4183C368.479,-76.1244 376.78,-59.1265 383.665,-45.028"/>
<polygon fill="black" stroke="black" points="386.917,-46.3458 388.16,-35.8242 380.627,-43.2739 386.917,-46.3458"/>
</a>
<a xlink:href="http://latin.omdoc.org/translations/ml_fol?ML" class="ML">
<text text-anchor="middle" x="389.876" y="-58.3" font-family="Times New Roman,serif" font-size="14.00">ML</text>
</a>
</g>
<!-- http://latin.omdoc.org/logics/syntax?Logic -->
<g id="node19" class="node"><title>http://latin.omdoc.org/logics/syntax?Logic</title>
<a xlink:href="http://latin.omdoc.org/logics/syntax?Logic" class="graphtheory">
<ellipse fill="gray" stroke="black" cx="139.376" cy="-194" rx="31.2735" ry="18"/>
<text text-anchor="middle" x="139.376" y="-190.3" font-family="Times New Roman,serif" font-size="14.00">Logic</text>
</a>
</g>
<!-- http://latin.omdoc.org/logics/syntax?Logic&#45;&gt;http://latin.omdoc.org/logics/syntax?MPL -->
<g id="edge19" class="edge"><title>http://latin.omdoc.org/logics/syntax?Logic&#45;&gt;http://latin.omdoc.org/logics/syntax?MPL</title>
<a class="graphinclude">
<path fill="none" stroke="black" d="M170.822,-194C223.77,-194 276.718,-194 329.666,-194"/>
<polygon fill="black" stroke="black" points="329.904,-197.5 339.904,-194 329.903,-190.5 329.904,-197.5"/>
</a>
</g>
<!-- http://latin.omdoc.org/logics/syntax?Logic&#45;&gt;http://latin.omdoc.org/logics/syntax?PL -->
<g id="edge41" class="edge"><title>http://latin.omdoc.org/logics/syntax?Logic&#45;&gt;http://latin.omdoc.org/logics/syntax?PL</title>
<a class="graphinclude">
<path fill="none" stroke="black" d="M153.321,-177.625C165.561,-164.13 183.509,-144.341 197.295,-129.141"/>
<polygon fill="black" stroke="black" points="199.947,-131.426 204.073,-121.668 194.762,-126.724 199.947,-131.426"/>
</a>
</g>
<!-- http://latin.omdoc.org/logics/syntax?Logic&#45;&gt;http://latin.omdoc.org/logics/model_theory/kripke?Kripke -->
<g id="edge35" class="edge"><title>http://latin.omdoc.org/logics/syntax?Logic&#45;&gt;http://latin.omdoc.org/logics/model_theory/kripke?Kripke</title>
<a xlink:href="http://latin.omdoc.org/logics/model_theory/kripke?Base" class="graphview">
<path fill="none" stroke="black" d="M109.93,-187.423C78.3879,-179.582 30.6646,-161.787 14.3765,-124 8.04306,-109.307 8.20041,-102.76 14.3765,-88 22.713,-68.0768 39.9158,-50.9884 55.1805,-38.8013"/>
<polygon fill="black" stroke="black" points="57.5571,-41.3908 63.3929,-32.548 53.3165,-35.8215 57.5571,-41.3908"/>
</a>
<a xlink:href="http://latin.omdoc.org/logics/model_theory/kripke?Base" class="Base">
<text text-anchor="middle" x="28.3765" y="-102.3" font-family="Times New Roman,serif" font-size="14.00">Base</text>
</a>
</g>
<!-- http://latin.omdoc.org/logics/syntax?Logic&#45;&gt;http://latin.omdoc.org/logics/model_theory/kripke?Kripke -->
<g id="edge37" class="edge"><title>http://latin.omdoc.org/logics/syntax?Logic&#45;&gt;http://latin.omdoc.org/logics/model_theory/kripke?Kripke</title>
<a xlink:href="http://latin.omdoc.org/logics/model_theory/kripke?BasePL" class="graphview">
<path fill="none" stroke="black" d="M121.324,-179.094C106.613,-166.528 86.9261,-146.579 78.3765,-124 68.8193,-98.7599 72.2989,-67.6616 76.9468,-45.8846"/>
<polygon fill="black" stroke="black" points="80.3868,-46.5452 79.2703,-36.0094 73.5729,-44.9419 80.3868,-46.5452"/>
</a>
<a xlink:href="http://latin.omdoc.org/logics/model_theory/kripke?BasePL" class="BasePL">
<text text-anchor="middle" x="100.376" y="-102.3" font-family="Times New Roman,serif" font-size="14.00">BasePL</text>
</a>
</g>
<!-- http://latin.omdoc.org/logics/syntax?Logic&#45;&gt;http://latin.omdoc.org/translations/ml_fol?ML&#45;FOL -->
<g id="edge39" class="edge"><title>http://latin.omdoc.org/logics/syntax?Logic&#45;&gt;http://latin.omdoc.org/translations/ml_fol?ML&#45;FOL</title>
<a xlink:href="http://latin.omdoc.org/translations/ml_fol?Base" class="graphview">
<path fill="none" stroke="black" d="M136.418,-175.818C133.522,-152.926 132.197,-112.475 153.376,-88 178.386,-59.0994 281.983,-37.5674 345.563,-26.7672"/>
<polygon fill="black" stroke="black" points="346.5,-30.1595 355.789,-25.0638 345.35,-23.2546 346.5,-30.1595"/>
</a>
<a xlink:href="http://latin.omdoc.org/translations/ml_fol?Base" class="Base">
<text text-anchor="middle" x="167.376" y="-102.3" font-family="Times New Roman,serif" font-size="14.00">Base</text>
</a>
</g>
<!-- http://cds.omdoc.org/urtheories?LF -->
<g id="node21" class="node"><title>http://cds.omdoc.org/urtheories?LF</title>
<a xlink:href="http://cds.omdoc.org/urtheories?LF" class="graphtheory">
<ellipse fill="gray" stroke="black" cx="237.376" cy="-268" rx="27" ry="18"/>
<text text-anchor="middle" x="237.376" y="-264.3" font-family="Times New Roman,serif" font-size="14.00">LF</text>
</a>
</g>
<!-- http://cds.omdoc.org/urtheories?LF&#45;&gt;http://latin.omdoc.org/logics/syntax?MPL -->
<g id="edge21" class="edge"><title>http://cds.omdoc.org/urtheories?LF&#45;&gt;http://latin.omdoc.org/logics/syntax?MPL</title>
<a class="graphmeta">
<path fill="none" stroke="black" d="M260.075,-257.805C280.594,-249.128 311.333,-235.209 336.376,-220 338.995,-218.41 341.657,-216.656 344.274,-214.837"/>
<polygon fill="black" stroke="black" points="346.361,-217.647 352.379,-208.927 342.237,-211.991 346.361,-217.647"/>
</a>
</g>
<!-- http://cds.omdoc.org/urtheories?LF&#45;&gt;http://latin.omdoc.org/logics/syntax?PL -->
<g id="edge25" class="edge"><title>http://cds.omdoc.org/urtheories?LF&#45;&gt;http://latin.omdoc.org/logics/syntax?PL</title>
<a class="graphmeta">
<path fill="none" stroke="black" d="M229.519,-250.622C227.111,-244.865 224.74,-238.267 223.376,-232 216.182,-198.935 215.521,-159.835 216.106,-134.282"/>
<polygon fill="black" stroke="black" points="219.607,-134.321 216.418,-124.217 212.61,-134.104 219.607,-134.321"/>
</a>
</g>
<!-- http://cds.omdoc.org/urtheories?LF&#45;&gt;http://latin.omdoc.org/logics/model_theory/kripke?Kripke -->
<g id="edge23" class="edge"><title>http://cds.omdoc.org/urtheories?LF&#45;&gt;http://latin.omdoc.org/logics/model_theory/kripke?Kripke</title>
<a class="graphmeta">
<path fill="none" stroke="black" d="M212.132,-261.417C183.367,-254.401 135.537,-240.709 98.3765,-220 60.5985,-198.947 50.295,-191.85 23.3765,-158 -5.39433,-121.821 -9.07632,-87.8735 22.3765,-54 29.6306,-46.1876 39.0344,-39.6665 48.3159,-34.4534"/>
<polygon fill="black" stroke="black" points="50.2251,-37.4051 57.4725,-29.6769 46.9875,-31.1988 50.2251,-37.4051"/>
</a>
</g>
<!-- http://cds.omdoc.org/urtheories?LF&#45;&gt;http://latin.omdoc.org/translations/ml_fol?ML&#45;FOL -->
<g id="edge27" class="edge"><title>http://cds.omdoc.org/urtheories?LF&#45;&gt;http://latin.omdoc.org/translations/ml_fol?ML&#45;FOL</title>
<a class="graphmeta">
<path fill="none" stroke="black" d="M264.398,-266.708C389.072,-265.17 909.38,-256.635 1067.38,-220 1153.04,-200.137 1212.18,-207.29 1240.38,-124 1245.51,-108.845 1251.22,-99.7656 1240.38,-88 1186.86,-29.9334 628.723,-20.7321 450.651,-19.2743"/>
<polygon fill="black" stroke="black" points="450.496,-15.7731 440.469,-19.1961 450.442,-22.7729 450.496,-15.7731"/>
</a>
</g>
<!-- http://cds.omdoc.org/urtheories?LF&#45;&gt;http://latin.omdoc.org/logics/proof_theory?MPL -->
<g id="edge31" class="edge"><title>http://cds.omdoc.org/urtheories?LF&#45;&gt;http://latin.omdoc.org/logics/proof_theory?MPL</title>
<a class="graphmeta">
<path fill="none" stroke="black" d="M264.422,-265.922C413.423,-259.726 1129.92,-226.496 1197.38,-158 1203.5,-151.781 1205.67,-142.838 1206.01,-134.173"/>
<polygon fill="black" stroke="black" points="1209.5,-133.818 1205.66,-123.942 1202.5,-134.055 1209.5,-133.818"/>
</a>
</g>
<!-- http://cds.omdoc.org/urtheories?LF&#45;&gt;http://latin.omdoc.org/logics/syntax?ML -->
<g id="edge29" class="edge"><title>http://cds.omdoc.org/urtheories?LF&#45;&gt;http://latin.omdoc.org/logics/syntax?ML</title>
<a class="graphmeta">
<path fill="none" stroke="black" d="M233.328,-249.778C228.209,-223.35 222.87,-172.64 248.376,-142 267.555,-118.962 285.033,-133.759 313.376,-124 316.509,-122.921 319.747,-121.725 322.965,-120.482"/>
<polygon fill="black" stroke="black" points="324.462,-123.653 332.438,-116.679 321.854,-117.156 324.462,-123.653"/>
</a>
</g>
<!-- http://cds.omdoc.org/urtheories?LF&#45;&gt;http://latin.omdoc.org/logics/syntax?Logic -->
<g id="edge33" class="edge"><title>http://cds.omdoc.org/urtheories?LF&#45;&gt;http://latin.omdoc.org/logics/syntax?Logic</title>
<a class="graphmeta">
<path fill="none" stroke="black" d="M218.336,-254.743C208.376,-248.192 196.066,-239.874 185.376,-232 178.53,-226.957 171.29,-221.296 164.63,-215.948"/>
<polygon fill="black" stroke="black" points="166.548,-212.996 156.578,-209.411 162.135,-218.431 166.548,-212.996"/>
</a>
</g>
</g>
</svg>
