<?xml version="1.0" encoding="UTF-8" standalone="no"?>
<!DOCTYPE svg PUBLIC "-//W3C//DTD SVG 1.1//EN"
 "http://www.w3.org/Graphics/SVG/1.1/DTD/svg11.dtd">
<!-- Generated by graphviz version 2.28.0 (20110507.0327)
 -->
<!-- Title: MMT Pages: 1 -->
<svg width="253pt" height="260pt"
 viewBox="0.00 0.00 253.00 260.00" xmlns="http://www.w3.org/2000/svg" xmlns:xlink="http://www.w3.org/1999/xlink">
<g id="graph1" class="graph" transform="scale(1 1) rotate(0) translate(4 256)">
<title>MMT</title>
<polygon fill="white" stroke="white" points="-4,5 -4,-256 250,-256 250,5 -4,5"/>
<g id="graph2" class="cluster"><title>cluster_local</title>
<polygon fill="none" stroke="black" points="83,-64 83,-116 153,-116 153,-64 83,-64"/>
</g>
<!-- http://latin.omdoc.org/logics/syntax?N -->
<g id="node2" class="node"><title>http://latin.omdoc.org/logics/syntax?N</title>
<a xlink:href="http://latin.omdoc.org/logics/syntax?N" class="graphtheory">
<ellipse fill="none" stroke="black" cx="118" cy="-90" rx="27" ry="18"/>
<text text-anchor="middle" x="118" y="-86.3" font-family="Times New Roman,serif" font-size="14.00">N</text>
</a>
</g>
<!-- http://latin.omdoc.org/logics/syntax?ALN -->
<g id="node3" class="node"><title>http://latin.omdoc.org/logics/syntax?ALN</title>
<a xlink:href="http://latin.omdoc.org/logics/syntax?ALN" class="graphtheory">
<ellipse fill="gray" stroke="black" cx="28" cy="-18" rx="28.3955" ry="18"/>
<text text-anchor="middle" x="28" y="-14.3" font-family="Times New Roman,serif" font-size="14.00">ALN</text>
</a>
</g>
<!-- http://latin.omdoc.org/logics/syntax?N&#45;&gt;http://latin.omdoc.org/logics/syntax?ALN -->
<g id="edge3" class="edge"><title>http://latin.omdoc.org/logics/syntax?N&#45;&gt;http://latin.omdoc.org/logics/syntax?ALN</title>
<a class="graphinclude">
<path fill="none" stroke="black" d="M101.334,-75.4232C96.7122,-71.6951 91.6786,-67.6696 87,-64 76.2301,-55.5527 64.2369,-46.3657 53.891,-38.5081"/>
<polygon fill="black" stroke="black" points="55.7354,-35.5145 45.6509,-32.2659 51.5085,-41.0942 55.7354,-35.5145"/>
</a>
</g>
<!-- http://latin.omdoc.org/logics/syntax?SHOIN -->
<g id="node5" class="node"><title>http://latin.omdoc.org/logics/syntax?SHOIN</title>
<a xlink:href="http://latin.omdoc.org/logics/syntax?SHOIN" class="graphtheory">
<ellipse fill="gray" stroke="black" cx="129" cy="-18" rx="38.0212" ry="18"/>
<text text-anchor="middle" x="129" y="-14.3" font-family="Times New Roman,serif" font-size="14.00">SHOIN</text>
</a>
</g>
<!-- http://latin.omdoc.org/logics/syntax?N&#45;&gt;http://latin.omdoc.org/logics/syntax?SHOIN -->
<g id="edge5" class="edge"><title>http://latin.omdoc.org/logics/syntax?N&#45;&gt;http://latin.omdoc.org/logics/syntax?SHOIN</title>
<a class="graphinclude">
<path fill="none" stroke="black" d="M120.663,-72.055C121.874,-64.3456 123.339,-55.0269 124.7,-46.3642"/>
<polygon fill="black" stroke="black" points="128.19,-46.6974 126.285,-36.2753 121.275,-45.6107 128.19,-46.6974"/>
</a>
</g>
<!-- http://latin.omdoc.org/logics/syntax?Q -->
<g id="node7" class="node"><title>http://latin.omdoc.org/logics/syntax?Q</title>
<a xlink:href="http://latin.omdoc.org/logics/syntax?Q" class="graphtheory">
<ellipse fill="gray" stroke="black" cx="218" cy="-18" rx="27" ry="18"/>
<text text-anchor="middle" x="218" y="-14.3" font-family="Times New Roman,serif" font-size="14.00">Q</text>
</a>
</g>
<!-- http://latin.omdoc.org/logics/syntax?N&#45;&gt;http://latin.omdoc.org/logics/syntax?Q -->
<g id="edge7" class="edge"><title>http://latin.omdoc.org/logics/syntax?N&#45;&gt;http://latin.omdoc.org/logics/syntax?Q</title>
<a class="graphinclude">
<path fill="none" stroke="black" d="M134.169,-75.4516C138.876,-71.6477 144.078,-67.5761 149,-64 162.128,-54.4626 177.173,-44.5399 189.857,-36.4468"/>
<polygon fill="black" stroke="black" points="192.033,-39.2117 198.614,-30.9088 188.292,-33.2954 192.033,-39.2117"/>
</a>
</g>
<!-- http://latin.omdoc.org/logics/syntax?DLBase -->
<g id="node9" class="node"><title>http://latin.omdoc.org/logics/syntax?DLBase</title>
<a xlink:href="http://latin.omdoc.org/logics/syntax?DLBase" class="graphtheory">
<ellipse fill="gray" stroke="black" cx="118" cy="-162" rx="39.9464" ry="18"/>
<text text-anchor="middle" x="118" y="-158.3" font-family="Times New Roman,serif" font-size="14.00">DLBase</text>
</a>
</g>
<!-- http://latin.omdoc.org/logics/syntax?DLBase&#45;&gt;http://latin.omdoc.org/logics/syntax?N -->
<g id="edge9" class="edge"><title>http://latin.omdoc.org/logics/syntax?DLBase&#45;&gt;http://latin.omdoc.org/logics/syntax?N</title>
<a class="graphinclude">
<path fill="none" stroke="black" d="M118,-143.697C118,-135.983 118,-126.712 118,-118.112"/>
<polygon fill="black" stroke="black" points="121.5,-118.104 118,-108.104 114.5,-118.104 121.5,-118.104"/>
</a>
</g>
<!-- http://cds.omdoc.org/urtheories?LF -->
<g id="node11" class="node"><title>http://cds.omdoc.org/urtheories?LF</title>
<a xlink:href="http://cds.omdoc.org/urtheories?LF" class="graphtheory">
<ellipse fill="gray" stroke="black" cx="118" cy="-234" rx="27" ry="18"/>
<text text-anchor="middle" x="118" y="-230.3" font-family="Times New Roman,serif" font-size="14.00">LF</text>
</a>
</g>
<!-- http://cds.omdoc.org/urtheories?LF&#45;&gt;http://latin.omdoc.org/logics/syntax?N -->
<g id="edge11" class="edge"><title>http://cds.omdoc.org/urtheories?LF&#45;&gt;http://latin.omdoc.org/logics/syntax?N</title>
<a class="graphmeta">
<path fill="none" stroke="black" d="M100.383,-219.863C89.0498,-210.247 75.3035,-196.103 69,-180 63.1679,-165.101 63.1679,-158.899 69,-144 73.9246,-131.419 83.392,-120.035 92.7024,-111.071"/>
<polygon fill="black" stroke="black" points="95.3057,-113.436 100.383,-104.137 90.6149,-108.24 95.3057,-113.436"/>
</a>
</g>
<!-- http://cds.omdoc.org/urtheories?LF&#45;&gt;http://latin.omdoc.org/logics/syntax?ALN -->
<g id="edge17" class="edge"><title>http://cds.omdoc.org/urtheories?LF&#45;&gt;http://latin.omdoc.org/logics/syntax?ALN</title>
<a class="graphmeta">
<path fill="none" stroke="black" d="M99.4774,-220.579C86.6773,-211.001 70.3337,-196.61 61,-180 37.1397,-137.539 30.427,-80.1185 28.6027,-46.5685"/>
<polygon fill="black" stroke="black" points="32.0816,-46.0017 28.1537,-36.1619 25.0881,-46.3035 32.0816,-46.0017"/>
</a>
</g>
<!-- http://cds.omdoc.org/urtheories?LF&#45;&gt;http://latin.omdoc.org/logics/syntax?SHOIN -->
<g id="edge19" class="edge"><title>http://cds.omdoc.org/urtheories?LF&#45;&gt;http://latin.omdoc.org/logics/syntax?SHOIN</title>
<a class="graphmeta">
<path fill="none" stroke="black" d="M135.617,-219.863C146.95,-210.247 160.697,-196.103 167,-180 176.004,-156.996 161.848,-77.6835 157,-64 154.564,-57.1238 150.951,-50.1907 147.124,-43.8954"/>
<polygon fill="black" stroke="black" points="149.862,-41.685 141.476,-35.2094 143.994,-45.5009 149.862,-41.685"/>
</a>
</g>
<!-- http://cds.omdoc.org/urtheories?LF&#45;&gt;http://latin.omdoc.org/logics/syntax?Q -->
<g id="edge13" class="edge"><title>http://cds.omdoc.org/urtheories?LF&#45;&gt;http://latin.omdoc.org/logics/syntax?Q</title>
<a class="graphmeta">
<path fill="none" stroke="black" d="M138.141,-221.705C152.838,-212.406 172.033,-197.871 183,-180 208.65,-138.202 215.642,-80.1789 217.462,-46.4097"/>
<polygon fill="black" stroke="black" points="220.962,-46.4886 217.889,-36.3493 213.968,-46.192 220.962,-46.4886"/>
</a>
</g>
<!-- http://cds.omdoc.org/urtheories?LF&#45;&gt;http://latin.omdoc.org/logics/syntax?DLBase -->
<g id="edge15" class="edge"><title>http://cds.omdoc.org/urtheories?LF&#45;&gt;http://latin.omdoc.org/logics/syntax?DLBase</title>
<a class="graphmeta">
<path fill="none" stroke="black" d="M118,-215.697C118,-207.983 118,-198.712 118,-190.112"/>
<polygon fill="black" stroke="black" points="121.5,-190.104 118,-180.104 114.5,-190.104 121.5,-190.104"/>
</a>
</g>
</g>
</svg>
