<?xml version="1.0" encoding="UTF-8" standalone="no"?>
<!DOCTYPE svg PUBLIC "-//W3C//DTD SVG 1.1//EN"
 "http://www.w3.org/Graphics/SVG/1.1/DTD/svg11.dtd">
<!-- Generated by graphviz version 2.28.0 (20110507.0327)
 -->
<!-- Title: MMT Pages: 1 -->
<svg width="890pt" height="368pt"
 viewBox="0.00 0.00 890.00 368.00" xmlns="http://www.w3.org/2000/svg" xmlns:xlink="http://www.w3.org/1999/xlink">
<g id="graph1" class="graph" transform="scale(1 1) rotate(0) translate(4 364)">
<title>MMT</title>
<polygon fill="white" stroke="white" points="-4,5 -4,-364 887,-364 887,5 -4,5"/>
<g id="graph2" class="cluster"><title>cluster_local</title>
<polygon fill="none" stroke="black" points="88,-168 88,-220 196,-220 196,-168 88,-168"/>
</g>
<!-- http://latin.omdoc.org/logics/syntax?Necessity -->
<g id="node2" class="node"><title>http://latin.omdoc.org/logics/syntax?Necessity</title>
<a xlink:href="http://latin.omdoc.org/logics/syntax?Necessity" class="graphtheory">
<ellipse fill="none" stroke="black" cx="142" cy="-194" rx="46.2191" ry="18"/>
<text text-anchor="middle" x="142" y="-190.3" font-family="Times New Roman,serif" font-size="14.00">Necessity</text>
</a>
</g>
<!-- http://latin.omdoc.org/translations/ml_fol?ML&#45;FOL -->
<g id="node3" class="node"><title>http://latin.omdoc.org/translations/ml_fol?ML&#45;FOL</title>
<a xlink:href="http://latin.omdoc.org/translations/ml_fol?ML-FOL" class="graphtheory">
<ellipse fill="gray" stroke="black" cx="61" cy="-18" rx="44.2946" ry="18"/>
<text text-anchor="middle" x="61" y="-14.3" font-family="Times New Roman,serif" font-size="14.00">ML&#45;FOL</text>
</a>
</g>
<!-- http://latin.omdoc.org/logics/syntax?Necessity&#45;&gt;http://latin.omdoc.org/translations/ml_fol?ML&#45;FOL -->
<g id="edge3" class="edge"><title>http://latin.omdoc.org/logics/syntax?Necessity&#45;&gt;http://latin.omdoc.org/translations/ml_fol?ML&#45;FOL</title>
<a xlink:href="http://latin.omdoc.org/translations/ml_fol?Necessity" class="graphview">
<path fill="none" stroke="black" d="M117.935,-178.262C110.602,-172.723 103.131,-165.841 98,-158 75.4686,-123.572 66.6134,-75.8811 63.1634,-46.2614"/>
<polygon fill="black" stroke="black" points="66.6354,-45.8097 62.1216,-36.2246 59.6728,-46.5325 66.6354,-45.8097"/>
</a>
<a xlink:href="http://latin.omdoc.org/translations/ml_fol?Necessity" class="Necessity">
<text text-anchor="middle" x="108.5" y="-102.3" font-family="Times New Roman,serif" font-size="14.00">Necessity</text>
</a>
</g>
<!-- http://latin.omdoc.org/translations/ml_fol?ML -->
<g id="node5" class="node"><title>http://latin.omdoc.org/translations/ml_fol?ML</title>
<a xlink:href="http://latin.omdoc.org/translations/ml_fol?ML" class="graphtheory">
<ellipse fill="gray" stroke="black" cx="275" cy="-106" rx="27" ry="18"/>
<text text-anchor="middle" x="275" y="-102.3" font-family="Times New Roman,serif" font-size="14.00">ML</text>
</a>
</g>
<!-- http://latin.omdoc.org/logics/syntax?Necessity&#45;&gt;http://latin.omdoc.org/translations/ml_fol?ML -->
<g id="edge5" class="edge"><title>http://latin.omdoc.org/logics/syntax?Necessity&#45;&gt;http://latin.omdoc.org/translations/ml_fol?ML</title>
<a xlink:href="http://latin.omdoc.org/translations/ml_fol?ML?[http://latin.omdoc.org/logics/syntax?Necessity]" class="graphstructure">
<path fill="none" stroke="black" d="M137.353,-175.972C135.465,-165.047 135.264,-151.231 143,-142 169.483,-110.402 194.543,-135.954 234,-124 237.171,-123.039 240.434,-121.922 243.668,-120.727"/>
<polygon fill="black" stroke="black" points="245.138,-123.91 253.163,-116.992 242.575,-117.396 245.138,-123.91"/>
</a>
<a xlink:href="http://latin.omdoc.org/translations/ml_fol?ML?[http://latin.omdoc.org/logics/syntax?Necessity]" class="[http://latin.omdoc.org/logics/syntax?Necessity]">
<text text-anchor="middle" x="276.5" y="-146.3" font-family="Times New Roman,serif" font-size="14.00">[http://latin.omdoc.org/logics/syntax?Necessity]</text>
</a>
</g>
<!-- http://latin.omdoc.org/logics/model_theory/kripke?ML -->
<g id="node7" class="node"><title>http://latin.omdoc.org/logics/model_theory/kripke?ML</title>
<a xlink:href="http://latin.omdoc.org/logics/model_theory/kripke?ML" class="graphtheory">
<ellipse fill="gray" stroke="black" cx="432" cy="-106" rx="27" ry="18"/>
<text text-anchor="middle" x="432" y="-102.3" font-family="Times New Roman,serif" font-size="14.00">ML</text>
</a>
</g>
<!-- http://latin.omdoc.org/logics/syntax?Necessity&#45;&gt;http://latin.omdoc.org/logics/model_theory/kripke?ML -->
<g id="edge7" class="edge"><title>http://latin.omdoc.org/logics/syntax?Necessity&#45;&gt;http://latin.omdoc.org/logics/model_theory/kripke?ML</title>
<a xlink:href="http://latin.omdoc.org/logics/model_theory/kripke?ML?[http://latin.omdoc.org/logics/syntax?Necessity]" class="graphstructure">
<path fill="none" stroke="black" d="M165.867,-178.53C173.892,-174.365 183.078,-170.323 192,-168 215.465,-161.89 390.052,-171.785 410,-158 418.156,-152.364 423.309,-143.029 426.556,-133.875"/>
<polygon fill="black" stroke="black" points="429.939,-134.777 429.383,-124.197 423.22,-132.815 429.939,-134.777"/>
</a>
<a xlink:href="http://latin.omdoc.org/logics/model_theory/kripke?ML?[http://latin.omdoc.org/logics/syntax?Necessity]" class="[http://latin.omdoc.org/logics/syntax?Necessity]">
<text text-anchor="middle" x="557.5" y="-146.3" font-family="Times New Roman,serif" font-size="14.00">[http://latin.omdoc.org/logics/syntax?Necessity]</text>
</a>
</g>
<!-- http://latin.omdoc.org/logics/model_theory/kripke?Kripke -->
<g id="node9" class="node"><title>http://latin.omdoc.org/logics/model_theory/kripke?Kripke</title>
<a xlink:href="http://latin.omdoc.org/logics/model_theory/kripke?Kripke" class="graphtheory">
<ellipse fill="gray" stroke="black" cx="772" cy="-18" rx="35.1455" ry="18"/>
<text text-anchor="middle" x="772" y="-14.3" font-family="Times New Roman,serif" font-size="14.00">Kripke</text>
</a>
</g>
<!-- http://latin.omdoc.org/logics/syntax?Necessity&#45;&gt;http://latin.omdoc.org/logics/model_theory/kripke?Kripke -->
<g id="edge9" class="edge"><title>http://latin.omdoc.org/logics/syntax?Necessity&#45;&gt;http://latin.omdoc.org/logics/model_theory/kripke?Kripke</title>
<a xlink:href="http://latin.omdoc.org/logics/model_theory/kripke?Necessity" class="graphview">
<path fill="none" stroke="black" d="M134.467,-175.991C131.07,-165.843 128.682,-152.861 133,-142 145.196,-111.324 155.426,-104.531 184,-88 276.391,-34.5483 605.906,-22.4109 726.966,-19.7336"/>
<polygon fill="black" stroke="black" points="727.084,-23.232 737.009,-19.5229 726.937,-16.2336 727.084,-23.232"/>
</a>
<a xlink:href="http://latin.omdoc.org/logics/model_theory/kripke?Necessity" class="Necessity">
<text text-anchor="middle" x="211.5" y="-102.3" font-family="Times New Roman,serif" font-size="14.00">Necessity</text>
</a>
</g>
<!-- http://latin.omdoc.org/logics/syntax?ML -->
<g id="node11" class="node"><title>http://latin.omdoc.org/logics/syntax?ML</title>
<a xlink:href="http://latin.omdoc.org/logics/syntax?ML" class="graphtheory">
<ellipse fill="gray" stroke="black" cx="716" cy="-106" rx="27" ry="18"/>
<text text-anchor="middle" x="716" y="-102.3" font-family="Times New Roman,serif" font-size="14.00">ML</text>
</a>
</g>
<!-- http://latin.omdoc.org/logics/syntax?Necessity&#45;&gt;http://latin.omdoc.org/logics/syntax?ML -->
<g id="edge11" class="edge"><title>http://latin.omdoc.org/logics/syntax?Necessity&#45;&gt;http://latin.omdoc.org/logics/syntax?ML</title>
<a class="graphinclude">
<path fill="none" stroke="black" d="M165.579,-178.524C173.661,-174.304 182.954,-170.231 192,-168 219.137,-161.308 671.932,-173.783 695,-158 703.125,-152.441 708.111,-143.121 711.169,-133.958"/>
<polygon fill="black" stroke="black" points="714.559,-134.829 713.787,-124.262 707.801,-133.004 714.559,-134.829"/>
</a>
</g>
<!-- http://latin.omdoc.org/logics/syntax?ML&#45;&gt;http://latin.omdoc.org/translations/ml_fol?ML&#45;FOL -->
<g id="edge31" class="edge"><title>http://latin.omdoc.org/logics/syntax?ML&#45;&gt;http://latin.omdoc.org/translations/ml_fol?ML&#45;FOL</title>
<a xlink:href="http://latin.omdoc.org/translations/ml_fol?ML" class="graphview">
<path fill="none" stroke="black" d="M689.512,-101.522C591.059,-88.5955 245.096,-43.1714 112.893,-25.8134"/>
<polygon fill="black" stroke="black" points="113.002,-22.2978 102.632,-24.4662 112.091,-29.2383 113.002,-22.2978"/>
</a>
<a xlink:href="http://latin.omdoc.org/translations/ml_fol?ML" class="ML">
<text text-anchor="middle" x="458.5" y="-58.3" font-family="Times New Roman,serif" font-size="14.00">ML</text>
</a>
</g>
<!-- http://latin.omdoc.org/logics/syntax?ML&#45;&gt;http://latin.omdoc.org/logics/model_theory/kripke?Kripke -->
<g id="edge33" class="edge"><title>http://latin.omdoc.org/logics/syntax?ML&#45;&gt;http://latin.omdoc.org/logics/model_theory/kripke?Kripke</title>
<a xlink:href="http://latin.omdoc.org/logics/model_theory/kripke?ML" class="graphview">
<path fill="none" stroke="black" d="M721.073,-88.0972C724.625,-77.7474 729.989,-64.5167 737,-54 739.963,-49.5558 743.55,-45.2064 747.284,-41.1677"/>
<polygon fill="black" stroke="black" points="749.983,-43.4156 754.52,-33.8411 745.003,-38.4969 749.983,-43.4156"/>
</a>
<a xlink:href="http://latin.omdoc.org/logics/model_theory/kripke?ML" class="ML">
<text text-anchor="middle" x="747.5" y="-58.3" font-family="Times New Roman,serif" font-size="14.00">ML</text>
</a>
</g>
<!-- http://latin.omdoc.org/logics/syntax?Logic -->
<g id="node13" class="node"><title>http://latin.omdoc.org/logics/syntax?Logic</title>
<a xlink:href="http://latin.omdoc.org/logics/syntax?Logic" class="graphtheory">
<ellipse fill="gray" stroke="black" cx="782" cy="-268" rx="31.2735" ry="18"/>
<text text-anchor="middle" x="782" y="-264.3" font-family="Times New Roman,serif" font-size="14.00">Logic</text>
</a>
</g>
<!-- http://latin.omdoc.org/logics/syntax?Logic&#45;&gt;http://latin.omdoc.org/logics/syntax?Necessity -->
<g id="edge13" class="edge"><title>http://latin.omdoc.org/logics/syntax?Logic&#45;&gt;http://latin.omdoc.org/logics/syntax?Necessity</title>
<a class="graphinclude">
<path fill="none" stroke="black" d="M750.751,-266.085C644.636,-262.733 298.785,-249.734 192,-220 186.507,-218.471 180.902,-216.326 175.526,-213.93"/>
<polygon fill="black" stroke="black" points="176.697,-210.61 166.169,-209.423 173.659,-216.916 176.697,-210.61"/>
</a>
</g>
<!-- http://latin.omdoc.org/logics/syntax?Logic&#45;&gt;http://latin.omdoc.org/translations/ml_fol?ML&#45;FOL -->
<g id="edge29" class="edge"><title>http://latin.omdoc.org/logics/syntax?Logic&#45;&gt;http://latin.omdoc.org/translations/ml_fol?ML&#45;FOL</title>
<a xlink:href="http://latin.omdoc.org/translations/ml_fol?Base" class="graphview">
<path fill="none" stroke="black" d="M750.361,-266.809C621.26,-265.771 138.597,-259.275 84,-220 30.4152,-181.453 43.11,-91.178 53.6488,-45.8974"/>
<polygon fill="black" stroke="black" points="57.112,-46.4716 56.1067,-35.9246 50.3154,-44.7965 57.112,-46.4716"/>
</a>
<a xlink:href="http://latin.omdoc.org/translations/ml_fol?Base" class="Base">
<text text-anchor="middle" x="62" y="-146.3" font-family="Times New Roman,serif" font-size="14.00">Base</text>
</a>
</g>
<!-- http://latin.omdoc.org/logics/syntax?Logic&#45;&gt;http://latin.omdoc.org/logics/model_theory/kripke?Kripke -->
<g id="edge25" class="edge"><title>http://latin.omdoc.org/logics/syntax?Logic&#45;&gt;http://latin.omdoc.org/logics/model_theory/kripke?Kripke</title>
<a xlink:href="http://latin.omdoc.org/logics/model_theory/kripke?Base" class="graphview">
<path fill="none" stroke="black" d="M791.44,-250.669C803.978,-227.033 823.799,-181.762 817,-142 811.038,-107.133 795.705,-69.2208 784.591,-44.8403"/>
<polygon fill="black" stroke="black" points="787.67,-43.162 780.273,-35.5769 781.326,-46.1194 787.67,-43.162"/>
</a>
<a xlink:href="http://latin.omdoc.org/logics/model_theory/kripke?Base" class="Base">
<text text-anchor="middle" x="832" y="-146.3" font-family="Times New Roman,serif" font-size="14.00">Base</text>
</a>
</g>
<!-- http://latin.omdoc.org/logics/syntax?Logic&#45;&gt;http://latin.omdoc.org/logics/model_theory/kripke?Kripke -->
<g id="edge27" class="edge"><title>http://latin.omdoc.org/logics/syntax?Logic&#45;&gt;http://latin.omdoc.org/logics/model_theory/kripke?Kripke</title>
<a xlink:href="http://latin.omdoc.org/logics/model_theory/kripke?BasePL" class="graphview">
<path fill="none" stroke="black" d="M779.348,-250.064C776.144,-228.678 770.944,-190.722 769,-158 766.7,-119.286 768.468,-74.4139 770.105,-46.3635"/>
<polygon fill="black" stroke="black" points="773.613,-46.3337 770.74,-36.136 766.627,-45.9 773.613,-46.3337"/>
</a>
<a xlink:href="http://latin.omdoc.org/logics/model_theory/kripke?BasePL" class="BasePL">
<text text-anchor="middle" x="791" y="-146.3" font-family="Times New Roman,serif" font-size="14.00">BasePL</text>
</a>
</g>
<!-- http://cds.omdoc.org/urtheories?LF -->
<g id="node15" class="node"><title>http://cds.omdoc.org/urtheories?LF</title>
<a xlink:href="http://cds.omdoc.org/urtheories?LF" class="graphtheory">
<ellipse fill="gray" stroke="black" cx="722" cy="-342" rx="27" ry="18"/>
<text text-anchor="middle" x="722" y="-338.3" font-family="Times New Roman,serif" font-size="14.00">LF</text>
</a>
</g>
<!-- http://cds.omdoc.org/urtheories?LF&#45;&gt;http://latin.omdoc.org/logics/syntax?Necessity -->
<g id="edge15" class="edge"><title>http://cds.omdoc.org/urtheories?LF&#45;&gt;http://latin.omdoc.org/logics/syntax?Necessity</title>
<a class="graphmeta">
<path fill="none" stroke="black" d="M695.728,-337.284C617.392,-325.723 379.252,-287.093 192,-220 186.989,-218.205 181.831,-216.031 176.818,-213.724"/>
<polygon fill="black" stroke="black" points="177.96,-210.389 167.433,-209.186 174.913,-216.691 177.96,-210.389"/>
</a>
</g>
<!-- http://cds.omdoc.org/urtheories?LF&#45;&gt;http://latin.omdoc.org/translations/ml_fol?ML&#45;FOL -->
<g id="edge19" class="edge"><title>http://cds.omdoc.org/urtheories?LF&#45;&gt;http://latin.omdoc.org/translations/ml_fol?ML&#45;FOL</title>
<a class="graphmeta">
<path fill="none" stroke="black" d="M695.014,-341.196C563.942,-341.798 0,-340.251 0,-269 0,-269 0,-269 0,-105 0,-79.9878 17.3784,-57.1756 33.5837,-41.3406"/>
<polygon fill="black" stroke="black" points="36.3964,-43.5069 41.3634,-34.1485 31.6445,-38.3668 36.3964,-43.5069"/>
</a>
</g>
<!-- http://cds.omdoc.org/urtheories?LF&#45;&gt;http://latin.omdoc.org/logics/model_theory/kripke?Kripke -->
<g id="edge17" class="edge"><title>http://cds.omdoc.org/urtheories?LF&#45;&gt;http://latin.omdoc.org/logics/model_theory/kripke?Kripke</title>
<a class="graphmeta">
<path fill="none" stroke="black" d="M749.142,-340.616C794.791,-338.379 882,-326.571 882,-269 882,-269 882,-269 882,-105 882,-67.8734 842.628,-44.3887 810.995,-31.5113"/>
<polygon fill="black" stroke="black" points="812.068,-28.1741 801.478,-27.852 809.556,-34.7078 812.068,-28.1741"/>
</a>
</g>
<!-- http://cds.omdoc.org/urtheories?LF&#45;&gt;http://latin.omdoc.org/logics/syntax?ML -->
<g id="edge21" class="edge"><title>http://cds.omdoc.org/urtheories?LF&#45;&gt;http://latin.omdoc.org/logics/syntax?ML</title>
<a class="graphmeta">
<path fill="none" stroke="black" d="M721.559,-323.793C720.527,-283.562 717.951,-183.077 716.701,-134.351"/>
<polygon fill="black" stroke="black" points="720.197,-134.139 716.442,-124.232 713.199,-134.318 720.197,-134.139"/>
</a>
</g>
<!-- http://cds.omdoc.org/urtheories?LF&#45;&gt;http://latin.omdoc.org/logics/syntax?Logic -->
<g id="edge23" class="edge"><title>http://cds.omdoc.org/urtheories?LF&#45;&gt;http://latin.omdoc.org/logics/syntax?Logic</title>
<a class="graphmeta">
<path fill="none" stroke="black" d="M734.724,-325.731C742.729,-316.125 753.222,-303.534 762.289,-292.654"/>
<polygon fill="black" stroke="black" points="765.166,-294.668 768.879,-284.745 759.788,-290.187 765.166,-294.668"/>
</a>
</g>
</g>
</svg>
