<?xml version="1.0" encoding="UTF-8" standalone="no"?>
<!DOCTYPE svg PUBLIC "-//W3C//DTD SVG 1.1//EN"
 "http://www.w3.org/Graphics/SVG/1.1/DTD/svg11.dtd">
<!-- Generated by graphviz version 2.28.0 (20110507.0327)
 -->
<!-- Title: MMT Pages: 1 -->
<svg
 viewBox="0.00 0.00 196.00 280.00" xmlns="http://www.w3.org/2000/svg" xmlns:xlink="http://www.w3.org/1999/xlink">
<g id="graph1" class="graph" transform="scale(1 1) rotate(0) translate(4 276)">
<title>MMT</title>
<polygon fill="white" stroke="white" points="-4,5 -4,-276 193,-276 193,5 -4,5"/>
<g id="graph2" class="cluster"><title>cluster_local</title>
<polygon fill="none" stroke="black" points="96,-80 96,-132 166,-132 166,-80 96,-80"/>
</g>
<!-- http://latin.omdoc.org/logics/syntax?R -->
<g id="node2" class="node"><title>http://latin.omdoc.org/logics/syntax?R</title>
<a xlink:href="http://latin.omdoc.org/logics/syntax?R" class="graphtheory">
<ellipse fill="none" stroke="black" cx="131" cy="-106" rx="27" ry="18"/>
<text text-anchor="middle" x="131" y="-102.3" font-family="Times New Roman,serif" font-size="14.00">R</text>
</a>
</g>
<!-- http://latin.omdoc.org/logics/syntax?FOLEQ -->
<g id="node3" class="node"><title>http://latin.omdoc.org/logics/syntax?FOLEQ</title>
<a xlink:href="http://latin.omdoc.org/logics/syntax?FOLEQ" class="graphtheory">
<ellipse fill="gray" stroke="black" cx="40" cy="-18" rx="39.9464" ry="18"/>
<text text-anchor="middle" x="40" y="-14.3" font-family="Times New Roman,serif" font-size="14.00">FOLEQ</text>
</a>
</g>
<!-- http://latin.omdoc.org/logics/syntax?R&#45;&gt;http://latin.omdoc.org/logics/syntax?FOLEQ -->
<g id="edge3" class="edge"><title>http://latin.omdoc.org/logics/syntax?R&#45;&gt;http://latin.omdoc.org/logics/syntax?FOLEQ</title>
<a xlink:href="http://latin.omdoc.org/logics/model_theory?R" class="graphview">
<path fill="none" stroke="black" d="M115.973,-90.7988C101.917,-77.5152 80.6806,-57.4454 64.2303,-41.8989"/>
<polygon fill="black" stroke="black" points="66.2636,-39.0048 56.5916,-34.68 61.4555,-44.0924 66.2636,-39.0048"/>
</a>
<a xlink:href="http://latin.omdoc.org/logics/model_theory?R" class="R">
<text text-anchor="middle" x="99" y="-58.3" font-family="Times New Roman,serif" font-size="14.00">R</text>
</a>
</g>
<!-- http://latin.omdoc.org/logics/syntax?SROIQ -->
<g id="node5" class="node"><title>http://latin.omdoc.org/logics/syntax?SROIQ</title>
<a xlink:href="http://latin.omdoc.org/logics/syntax?SROIQ" class="graphtheory">
<ellipse fill="gray" stroke="black" cx="150" cy="-18" rx="38.4949" ry="18"/>
<text text-anchor="middle" x="150" y="-14.3" font-family="Times New Roman,serif" font-size="14.00">SROIQ</text>
</a>
</g>
<!-- http://latin.omdoc.org/logics/syntax?R&#45;&gt;http://latin.omdoc.org/logics/syntax?SROIQ -->
<g id="edge5" class="edge"><title>http://latin.omdoc.org/logics/syntax?R&#45;&gt;http://latin.omdoc.org/logics/syntax?SROIQ</title>
<a class="graphinclude">
<path fill="none" stroke="black" d="M134.754,-88.0092C137.408,-75.9947 141.021,-59.641 144.064,-45.8691"/>
<polygon fill="black" stroke="black" points="147.514,-46.4751 146.254,-35.9555 140.679,-44.965 147.514,-46.4751"/>
</a>
</g>
<!-- http://latin.omdoc.org/logics/syntax?DLBase -->
<g id="node7" class="node"><title>http://latin.omdoc.org/logics/syntax?DLBase</title>
<a xlink:href="http://latin.omdoc.org/logics/syntax?DLBase" class="graphtheory">
<ellipse fill="gray" stroke="black" cx="63" cy="-180" rx="39.9464" ry="18"/>
<text text-anchor="middle" x="63" y="-176.3" font-family="Times New Roman,serif" font-size="14.00">DLBase</text>
</a>
</g>
<!-- http://latin.omdoc.org/logics/syntax?DLBase&#45;&gt;http://latin.omdoc.org/logics/syntax?R -->
<g id="edge7" class="edge"><title>http://latin.omdoc.org/logics/syntax?DLBase&#45;&gt;http://latin.omdoc.org/logics/syntax?R</title>
<a class="graphinclude">
<path fill="none" stroke="black" d="M78.0914,-163.021C87.4111,-153.153 99.5101,-140.342 109.785,-129.462"/>
<polygon fill="black" stroke="black" points="112.558,-131.625 116.879,-121.951 107.469,-126.818 112.558,-131.625"/>
</a>
</g>
<!-- http://latin.omdoc.org/logics/syntax?DLBase&#45;&gt;http://latin.omdoc.org/logics/syntax?FOLEQ -->
<g id="edge17" class="edge"><title>http://latin.omdoc.org/logics/syntax?DLBase&#45;&gt;http://latin.omdoc.org/logics/syntax?FOLEQ</title>
<a xlink:href="http://latin.omdoc.org/logics/model_theory?DLBase" class="graphview">
<path fill="none" stroke="black" d="M55.4561,-161.94C51.9339,-153.17 48.0692,-142.205 46,-132 40.1357,-103.079 39.0876,-69.1924 39.2227,-46.1251"/>
<polygon fill="black" stroke="black" points="42.7234,-46.0896 39.3615,-36.0423 35.7241,-45.9931 42.7234,-46.0896"/>
</a>
<a xlink:href="http://latin.omdoc.org/logics/model_theory?DLBase" class="DLBase">
<text text-anchor="middle" x="69" y="-102.3" font-family="Times New Roman,serif" font-size="14.00">DLBase</text>
</a>
</g>
<!-- http://cds.omdoc.org/urtheories?LF -->
<g id="node9" class="node"><title>http://cds.omdoc.org/urtheories?LF</title>
<a xlink:href="http://cds.omdoc.org/urtheories?LF" class="graphtheory">
<ellipse fill="gray" stroke="black" cx="107" cy="-254" rx="27" ry="18"/>
<text text-anchor="middle" x="107" y="-250.3" font-family="Times New Roman,serif" font-size="14.00">LF</text>
</a>
</g>
<!-- http://cds.omdoc.org/urtheories?LF&#45;&gt;http://latin.omdoc.org/logics/syntax?R -->
<g id="edge9" class="edge"><title>http://cds.omdoc.org/urtheories?LF&#45;&gt;http://latin.omdoc.org/logics/syntax?R</title>
<a class="graphmeta">
<path fill="none" stroke="black" d="M109.8,-235.966C113.919,-210.911 121.651,-163.872 126.552,-134.057"/>
<polygon fill="black" stroke="black" points="130.049,-134.361 128.218,-123.925 123.142,-133.225 130.049,-134.361"/>
</a>
</g>
<!-- http://cds.omdoc.org/urtheories?LF&#45;&gt;http://latin.omdoc.org/logics/syntax?FOLEQ -->
<g id="edge15" class="edge"><title>http://cds.omdoc.org/urtheories?LF&#45;&gt;http://latin.omdoc.org/logics/syntax?FOLEQ</title>
<a class="graphmeta">
<path fill="none" stroke="black" d="M82.5788,-246.163C60.2641,-238.472 28.5913,-223.581 14,-198 -13.7321,-149.381 9.75741,-81.6896 26.5854,-45.0541"/>
<polygon fill="black" stroke="black" points="29.9558,-46.1183 31.107,-35.5862 23.6391,-43.1016 29.9558,-46.1183"/>
</a>
</g>
<!-- http://cds.omdoc.org/urtheories?LF&#45;&gt;http://latin.omdoc.org/logics/syntax?SROIQ -->
<g id="edge11" class="edge"><title>http://cds.omdoc.org/urtheories?LF&#45;&gt;http://latin.omdoc.org/logics/syntax?SROIQ</title>
<a class="graphmeta">
<path fill="none" stroke="black" d="M118.231,-237.56C133.524,-215.473 160.124,-172.984 170,-132 177.074,-102.643 168.76,-68.4368 160.8,-45.4147"/>
<polygon fill="black" stroke="black" points="164.07,-44.1645 157.341,-35.9809 157.498,-46.5745 164.07,-44.1645"/>
</a>
</g>
<!-- http://cds.omdoc.org/urtheories?LF&#45;&gt;http://latin.omdoc.org/logics/syntax?DLBase -->
<g id="edge13" class="edge"><title>http://cds.omdoc.org/urtheories?LF&#45;&gt;http://latin.omdoc.org/logics/syntax?DLBase</title>
<a class="graphmeta">
<path fill="none" stroke="black" d="M97.235,-237.021C91.6737,-227.921 84.5831,-216.318 78.2989,-206.035"/>
<polygon fill="black" stroke="black" points="81.2438,-204.141 73.0428,-197.434 75.2708,-207.792 81.2438,-204.141"/>
</a>
</g>
</g>
</svg>
