<?xml version="1.0" encoding="UTF-8" standalone="no"?>
<!DOCTYPE svg PUBLIC "-//W3C//DTD SVG 1.1//EN"
 "http://www.w3.org/Graphics/SVG/1.1/DTD/svg11.dtd">
<!-- Generated by graphviz version 2.28.0 (20110507.0327)
 -->
<!-- Title: MMT Pages: 1 -->
<svg width="278pt" height="280pt"
 viewBox="0.00 0.00 278.00 280.00" xmlns="http://www.w3.org/2000/svg" xmlns:xlink="http://www.w3.org/1999/xlink">
<g id="graph1" class="graph" transform="scale(1 1) rotate(0) translate(4 276)">
<title>MMT</title>
<polygon fill="white" stroke="white" points="-4,5 -4,-276 275,-276 275,5 -4,5"/>
<g id="graph2" class="cluster"><title>cluster_local</title>
<polygon fill="none" stroke="black" points="98,-80 98,-132 168,-132 168,-80 98,-80"/>
</g>
<!-- http://latin.omdoc.org/logics/syntax?S -->
<g id="node2" class="node"><title>http://latin.omdoc.org/logics/syntax?S</title>
<a xlink:href="http://latin.omdoc.org/logics/syntax?S" class="graphtheory">
<ellipse fill="none" stroke="black" cx="133" cy="-106" rx="27" ry="18"/>
<text text-anchor="middle" x="133" y="-102.3" font-family="Times New Roman,serif" font-size="14.00">S</text>
</a>
</g>
<!-- http://latin.omdoc.org/logics/syntax?FOLEQ -->
<g id="node3" class="node"><title>http://latin.omdoc.org/logics/syntax?FOLEQ</title>
<a xlink:href="http://latin.omdoc.org/logics/syntax?FOLEQ" class="graphtheory">
<ellipse fill="gray" stroke="black" cx="230" cy="-18" rx="39.9464" ry="18"/>
<text text-anchor="middle" x="230" y="-14.3" font-family="Times New Roman,serif" font-size="14.00">FOLEQ</text>
</a>
</g>
<!-- http://latin.omdoc.org/logics/syntax?S&#45;&gt;http://latin.omdoc.org/logics/syntax?FOLEQ -->
<g id="edge3" class="edge"><title>http://latin.omdoc.org/logics/syntax?S&#45;&gt;http://latin.omdoc.org/logics/syntax?FOLEQ</title>
<a xlink:href="http://latin.omdoc.org/logics/model_theory?S" class="graphview">
<path fill="none" stroke="black" d="M143.273,-89.0693C150.692,-78.3472 161.41,-64.3345 173,-54 179.864,-47.8796 187.936,-42.1964 195.812,-37.2656"/>
<polygon fill="black" stroke="black" points="197.765,-40.1758 204.546,-32.0352 194.169,-34.1703 197.765,-40.1758"/>
</a>
<a xlink:href="http://latin.omdoc.org/logics/model_theory?S" class="S">
<text text-anchor="middle" x="177.5" y="-58.3" font-family="Times New Roman,serif" font-size="14.00">S</text>
</a>
</g>
<!-- http://latin.omdoc.org/logics/syntax?SROIQ -->
<g id="node5" class="node"><title>http://latin.omdoc.org/logics/syntax?SROIQ</title>
<a xlink:href="http://latin.omdoc.org/logics/syntax?SROIQ" class="graphtheory">
<ellipse fill="gray" stroke="black" cx="133" cy="-18" rx="38.4949" ry="18"/>
<text text-anchor="middle" x="133" y="-14.3" font-family="Times New Roman,serif" font-size="14.00">SROIQ</text>
</a>
</g>
<!-- http://latin.omdoc.org/logics/syntax?S&#45;&gt;http://latin.omdoc.org/logics/syntax?SROIQ -->
<g id="edge5" class="edge"><title>http://latin.omdoc.org/logics/syntax?S&#45;&gt;http://latin.omdoc.org/logics/syntax?SROIQ</title>
<a class="graphinclude">
<path fill="none" stroke="black" d="M133,-87.5966C133,-75.7459 133,-59.8169 133,-46.2917"/>
<polygon fill="black" stroke="black" points="136.5,-46.084 133,-36.084 129.5,-46.084 136.5,-46.084"/>
</a>
</g>
<!-- http://latin.omdoc.org/logics/syntax?SHOIN -->
<g id="node7" class="node"><title>http://latin.omdoc.org/logics/syntax?SHOIN</title>
<a xlink:href="http://latin.omdoc.org/logics/syntax?SHOIN" class="graphtheory">
<ellipse fill="gray" stroke="black" cx="38" cy="-18" rx="38.0212" ry="18"/>
<text text-anchor="middle" x="38" y="-14.3" font-family="Times New Roman,serif" font-size="14.00">SHOIN</text>
</a>
</g>
<!-- http://latin.omdoc.org/logics/syntax?S&#45;&gt;http://latin.omdoc.org/logics/syntax?SHOIN -->
<g id="edge7" class="edge"><title>http://latin.omdoc.org/logics/syntax?S&#45;&gt;http://latin.omdoc.org/logics/syntax?SHOIN</title>
<a class="graphinclude">
<path fill="none" stroke="black" d="M117.313,-90.7988C102.414,-77.3117 79.7877,-56.8289 62.5096,-41.1877"/>
<polygon fill="black" stroke="black" points="64.7568,-38.5009 54.9944,-34.3844 60.059,-43.6903 64.7568,-38.5009"/>
</a>
</g>
<!-- http://latin.omdoc.org/logics/syntax?ALC -->
<g id="node9" class="node"><title>http://latin.omdoc.org/logics/syntax?ALC</title>
<a xlink:href="http://latin.omdoc.org/logics/syntax?ALC" class="graphtheory">
<ellipse fill="gray" stroke="black" cx="180" cy="-180" rx="28.3955" ry="18"/>
<text text-anchor="middle" x="180" y="-176.3" font-family="Times New Roman,serif" font-size="14.00">ALC</text>
</a>
</g>
<!-- http://latin.omdoc.org/logics/syntax?ALC&#45;&gt;http://latin.omdoc.org/logics/syntax?S -->
<g id="edge9" class="edge"><title>http://latin.omdoc.org/logics/syntax?ALC&#45;&gt;http://latin.omdoc.org/logics/syntax?S</title>
<a class="graphinclude">
<path fill="none" stroke="black" d="M169.569,-163.021C163.545,-153.792 155.841,-141.99 149.059,-131.601"/>
<polygon fill="black" stroke="black" points="151.799,-129.395 143.402,-122.934 145.937,-133.221 151.799,-129.395"/>
</a>
</g>
<!-- http://latin.omdoc.org/logics/syntax?ALC&#45;&gt;http://latin.omdoc.org/logics/syntax?FOLEQ -->
<g id="edge21" class="edge"><title>http://latin.omdoc.org/logics/syntax?ALC&#45;&gt;http://latin.omdoc.org/logics/syntax?FOLEQ</title>
<a xlink:href="http://latin.omdoc.org/logics/model_theory?ALC" class="graphview">
<path fill="none" stroke="black" d="M184.98,-162.148C190.841,-142.418 200.924,-108.774 210,-80 213.557,-68.7235 217.6,-56.3168 221.117,-45.6534"/>
<polygon fill="black" stroke="black" points="224.473,-46.651 224.293,-36.0577 217.828,-44.4511 224.473,-46.651"/>
</a>
<a xlink:href="http://latin.omdoc.org/logics/model_theory?ALC" class="ALC">
<text text-anchor="middle" x="224" y="-102.3" font-family="Times New Roman,serif" font-size="14.00">ALC</text>
</a>
</g>
<!-- http://cds.omdoc.org/urtheories?LF -->
<g id="node11" class="node"><title>http://cds.omdoc.org/urtheories?LF</title>
<a xlink:href="http://cds.omdoc.org/urtheories?LF" class="graphtheory">
<ellipse fill="gray" stroke="black" cx="123" cy="-254" rx="27" ry="18"/>
<text text-anchor="middle" x="123" y="-250.3" font-family="Times New Roman,serif" font-size="14.00">LF</text>
</a>
</g>
<!-- http://cds.omdoc.org/urtheories?LF&#45;&gt;http://latin.omdoc.org/logics/syntax?S -->
<g id="edge11" class="edge"><title>http://cds.omdoc.org/urtheories?LF&#45;&gt;http://latin.omdoc.org/logics/syntax?S</title>
<a class="graphmeta">
<path fill="none" stroke="black" d="M124.167,-235.966C125.874,-211.045 129.07,-164.374 131.114,-134.537"/>
<polygon fill="black" stroke="black" points="134.618,-134.594 131.81,-124.378 127.634,-134.115 134.618,-134.594"/>
</a>
</g>
<!-- http://cds.omdoc.org/urtheories?LF&#45;&gt;http://latin.omdoc.org/logics/syntax?FOLEQ -->
<g id="edge17" class="edge"><title>http://cds.omdoc.org/urtheories?LF&#45;&gt;http://latin.omdoc.org/logics/syntax?FOLEQ</title>
<a class="graphmeta">
<path fill="none" stroke="black" d="M146.39,-244.923C167.699,-236.418 198.574,-221.033 217,-198 251.871,-154.41 244.301,-84.1639 236.615,-45.9198"/>
<polygon fill="black" stroke="black" points="240.012,-45.0661 234.479,-36.0304 233.169,-46.5439 240.012,-45.0661"/>
</a>
</g>
<!-- http://cds.omdoc.org/urtheories?LF&#45;&gt;http://latin.omdoc.org/logics/syntax?SROIQ -->
<g id="edge13" class="edge"><title>http://cds.omdoc.org/urtheories?LF&#45;&gt;http://latin.omdoc.org/logics/syntax?SROIQ</title>
<a class="graphmeta">
<path fill="none" stroke="black" d="M115.392,-236.492C102.109,-205.374 77.5927,-136.122 94,-80 97.8578,-66.8042 105.538,-53.7492 113.071,-43.1235"/>
<polygon fill="black" stroke="black" points="116.094,-44.9251 119.276,-34.8194 110.486,-40.7349 116.094,-44.9251"/>
</a>
</g>
<!-- http://cds.omdoc.org/urtheories?LF&#45;&gt;http://latin.omdoc.org/logics/syntax?SHOIN -->
<g id="edge19" class="edge"><title>http://cds.omdoc.org/urtheories?LF&#45;&gt;http://latin.omdoc.org/logics/syntax?SHOIN</title>
<a class="graphmeta">
<path fill="none" stroke="black" d="M111.655,-237.282C104.375,-226.617 95.1642,-211.967 89,-198 66.2987,-146.562 50.8963,-82.3539 43.3582,-46.4982"/>
<polygon fill="black" stroke="black" points="46.7099,-45.4192 41.2719,-36.3264 39.8526,-46.8257 46.7099,-45.4192"/>
</a>
</g>
<!-- http://cds.omdoc.org/urtheories?LF&#45;&gt;http://latin.omdoc.org/logics/syntax?ALC -->
<g id="edge15" class="edge"><title>http://cds.omdoc.org/urtheories?LF&#45;&gt;http://latin.omdoc.org/logics/syntax?ALC</title>
<a class="graphmeta">
<path fill="none" stroke="black" d="M135.088,-237.731C142.692,-228.125 152.661,-215.534 161.274,-204.654"/>
<polygon fill="black" stroke="black" points="164.072,-206.758 167.535,-196.745 158.584,-202.413 164.072,-206.758"/>
</a>
</g>
</g>
</svg>
