<?xml version="1.0" encoding="UTF-8" standalone="no"?>
<!DOCTYPE svg PUBLIC "-//W3C//DTD SVG 1.1//EN"
 "http://www.w3.org/Graphics/SVG/1.1/DTD/svg11.dtd">
<!-- Generated by graphviz version 2.28.0 (20110507.0327)
 -->
<!-- Title: MMT Pages: 1 -->
<svg width="3193pt" height="294pt"
 viewBox="0.00 0.00 3193.41 294.00" xmlns="http://www.w3.org/2000/svg" xmlns:xlink="http://www.w3.org/1999/xlink">
<g id="graph1" class="graph" transform="scale(1 1) rotate(0) translate(4 290)">
<title>MMT</title>
<polygon fill="white" stroke="white" points="-4,5 -4,-290 3190.41,-290 3190.41,5 -4,5"/>
<g id="graph2" class="cluster"><title>cluster_local</title>
<polygon fill="none" stroke="black" points="324.919,-168 324.919,-220 416.919,-220 416.919,-168 324.919,-168"/>
</g>
<!-- http://latin.omdoc.org/logics/syntax?SExists -->
<g id="node2" class="node"><title>http://latin.omdoc.org/logics/syntax?SExists</title>
<a xlink:href="http://latin.omdoc.org/logics/syntax?SExists" class="graphtheory">
<ellipse fill="none" stroke="black" cx="370.919" cy="-194" rx="38.0212" ry="18"/>
<text text-anchor="middle" x="370.919" y="-190.3" font-family="Times New Roman,serif" font-size="14.00">SExists</text>
</a>
</g>
<!-- http://latin.omdoc.org/logics/model_theory?SFOLMOD -->
<g id="node3" class="node"><title>http://latin.omdoc.org/logics/model_theory?SFOLMOD</title>
<a xlink:href="http://latin.omdoc.org/logics/model_theory?SFOLMOD" class="graphtheory">
<ellipse fill="gray" stroke="black" cx="2865.92" cy="-18" rx="54.3924" ry="18"/>
<text text-anchor="middle" x="2865.92" y="-14.3" font-family="Times New Roman,serif" font-size="14.00">SFOLMOD</text>
</a>
</g>
<!-- http://latin.omdoc.org/logics/syntax?SExists&#45;&gt;http://latin.omdoc.org/logics/model_theory?SFOLMOD -->
<g id="edge3" class="edge"><title>http://latin.omdoc.org/logics/syntax?SExists&#45;&gt;http://latin.omdoc.org/logics/model_theory?SFOLMOD</title>
<a xlink:href="http://latin.omdoc.org/logics/model_theory?SExists" class="graphview">
<path fill="none" stroke="black" d="M346.866,-179.753C331.734,-169.681 316.821,-155.329 326.919,-142 344.762,-118.447 363.59,-135.233 390.919,-124 421.463,-111.445 424.067,-96.7195 455.919,-88 687.54,-24.5929 2440.55,-19.4184 2801.18,-19.0267"/>
<polygon fill="black" stroke="black" points="2801.44,-22.5265 2811.44,-19.0164 2801.43,-15.5265 2801.44,-22.5265"/>
</a>
<a xlink:href="http://latin.omdoc.org/logics/model_theory?SExists" class="SExists">
<text text-anchor="middle" x="477.419" y="-102.3" font-family="Times New Roman,serif" font-size="14.00">SExists</text>
</a>
</g>
<!-- http://latin.omdoc.org/logics/model_theory?SFOL -->
<g id="node5" class="node"><title>http://latin.omdoc.org/logics/model_theory?SFOL</title>
<a xlink:href="http://latin.omdoc.org/logics/model_theory?SFOL" class="graphtheory">
<ellipse fill="gray" stroke="black" cx="1715.92" cy="-106" rx="33.1991" ry="18"/>
<text text-anchor="middle" x="1715.92" y="-102.3" font-family="Times New Roman,serif" font-size="14.00">SFOL</text>
</a>
</g>
<!-- http://latin.omdoc.org/logics/syntax?SExists&#45;&gt;http://latin.omdoc.org/logics/model_theory?SFOL -->
<g id="edge5" class="edge"><title>http://latin.omdoc.org/logics/syntax?SExists&#45;&gt;http://latin.omdoc.org/logics/model_theory?SFOL</title>
<a xlink:href="http://latin.omdoc.org/logics/model_theory?SFOL?[http://latin.omdoc.org/logics/syntax?SExists]" class="graphstructure">
<path fill="none" stroke="black" d="M390.438,-178.485C397.208,-174.262 405.075,-170.197 412.919,-168 470.056,-151.994 1425.28,-178.604 1480.92,-158 1491.27,-154.167 1489.89,-146.605 1499.92,-142 1501.9,-141.09 1612.34,-123.451 1674.51,-113.569"/>
<polygon fill="black" stroke="black" points="1675.09,-117.021 1684.42,-111.995 1673.99,-110.108 1675.09,-117.021"/>
</a>
<a xlink:href="http://latin.omdoc.org/logics/model_theory?SFOL?[http://latin.omdoc.org/logics/syntax?SExists]" class="[http://latin.omdoc.org/logics/syntax?SExists]">
<text text-anchor="middle" x="1627.42" y="-146.3" font-family="Times New Roman,serif" font-size="14.00">[http://latin.omdoc.org/logics/syntax?SExists]</text>
</a>
</g>
<!-- http://latin.omdoc.org/foundations/minimal?SFOL&#45;ZF -->
<g id="node7" class="node"><title>http://latin.omdoc.org/foundations/minimal?SFOL&#45;ZF</title>
<a xlink:href="http://latin.omdoc.org/foundations/minimal?SFOL-ZF" class="graphtheory">
<ellipse fill="gray" stroke="black" cx="2220.92" cy="-106" rx="47.169" ry="18"/>
<text text-anchor="middle" x="2220.92" y="-102.3" font-family="Times New Roman,serif" font-size="14.00">SFOL&#45;ZF</text>
</a>
</g>
<!-- http://latin.omdoc.org/logics/syntax?SExists&#45;&gt;http://latin.omdoc.org/foundations/minimal?SFOL&#45;ZF -->
<g id="edge7" class="edge"><title>http://latin.omdoc.org/logics/syntax?SExists&#45;&gt;http://latin.omdoc.org/foundations/minimal?SFOL&#45;ZF</title>
<a xlink:href="http://latin.omdoc.org/foundations/minimal?SFOL-ZF?[http://latin.omdoc.org/logics/syntax?SExists]" class="graphstructure">
<path fill="none" stroke="black" d="M390.433,-178.47C397.203,-174.246 405.071,-170.185 412.919,-168 456.914,-155.753 2014.07,-173.787 2056.92,-158 2067.28,-154.184 2066.07,-146.984 2075.92,-142 2104.11,-127.736 2138.37,-119.118 2166.51,-114.004"/>
<polygon fill="black" stroke="black" points="2167.31,-117.418 2176.57,-112.275 2166.13,-110.519 2167.31,-117.418"/>
</a>
<a xlink:href="http://latin.omdoc.org/foundations/minimal?SFOL-ZF?[http://latin.omdoc.org/logics/syntax?SExists]" class="[http://latin.omdoc.org/logics/syntax?SExists]">
<text text-anchor="middle" x="2203.42" y="-146.3" font-family="Times New Roman,serif" font-size="14.00">[http://latin.omdoc.org/logics/syntax?SExists]</text>
</a>
</g>
<!-- http://latin.omdoc.org/translations/sfol_fol?SFOL -->
<g id="node9" class="node"><title>http://latin.omdoc.org/translations/sfol_fol?SFOL</title>
<a xlink:href="http://latin.omdoc.org/translations/sfol_fol?SFOL" class="graphtheory">
<ellipse fill="gray" stroke="black" cx="981.919" cy="-106" rx="33.1991" ry="18"/>
<text text-anchor="middle" x="981.919" y="-102.3" font-family="Times New Roman,serif" font-size="14.00">SFOL</text>
</a>
</g>
<!-- http://latin.omdoc.org/logics/syntax?SExists&#45;&gt;http://latin.omdoc.org/translations/sfol_fol?SFOL -->
<g id="edge9" class="edge"><title>http://latin.omdoc.org/logics/syntax?SExists&#45;&gt;http://latin.omdoc.org/translations/sfol_fol?SFOL</title>
<a xlink:href="http://latin.omdoc.org/translations/sfol_fol?SFOL?[http://latin.omdoc.org/logics/syntax?SExists]" class="graphstructure">
<path fill="none" stroke="black" d="M390.912,-178.393C397.588,-174.275 405.28,-170.295 412.919,-168 458.514,-154.304 581.838,-173.303 626.919,-158 638.711,-153.997 638.249,-146.345 649.919,-142 701.73,-122.71 860.698,-112.733 938.338,-108.902"/>
<polygon fill="black" stroke="black" points="938.914,-112.378 948.734,-108.401 938.577,-105.386 938.914,-112.378"/>
</a>
<a xlink:href="http://latin.omdoc.org/translations/sfol_fol?SFOL?[http://latin.omdoc.org/logics/syntax?SExists]" class="[http://latin.omdoc.org/logics/syntax?SExists]">
<text text-anchor="middle" x="777.419" y="-146.3" font-family="Times New Roman,serif" font-size="14.00">[http://latin.omdoc.org/logics/syntax?SExists]</text>
</a>
</g>
<!-- http://latin.omdoc.org/foundations/zfc?TypedZF -->
<g id="node11" class="node"><title>http://latin.omdoc.org/foundations/zfc?TypedZF</title>
<a xlink:href="http://latin.omdoc.org/foundations/zfc?TypedZF" class="graphtheory">
<ellipse fill="gray" stroke="black" cx="341.919" cy="-18" rx="45.244" ry="18"/>
<text text-anchor="middle" x="341.919" y="-14.3" font-family="Times New Roman,serif" font-size="14.00">TypedZF</text>
</a>
</g>
<!-- http://latin.omdoc.org/logics/syntax?SExists&#45;&gt;http://latin.omdoc.org/foundations/zfc?TypedZF -->
<g id="edge11" class="edge"><title>http://latin.omdoc.org/logics/syntax?SExists&#45;&gt;http://latin.omdoc.org/foundations/zfc?TypedZF</title>
<a xlink:href="http://latin.omdoc.org/foundations/minimal?SExists-ZF" class="graphview">
<path fill="none" stroke="black" d="M349.101,-178.991C342.725,-175.18 335.657,-171.22 328.919,-168 317.373,-162.482 309.229,-168.503 301.919,-158 297.857,-152.163 300.443,-148.956 301.919,-142 303.737,-133.436 306.754,-132.162 309.919,-124 319.067,-100.414 320.568,-94.2066 327.919,-70 330.294,-62.1809 332.709,-53.6344 334.85,-45.8113"/>
<polygon fill="black" stroke="black" points="338.254,-46.6324 337.48,-36.0659 331.496,-44.8085 338.254,-46.6324"/>
</a>
<a xlink:href="http://latin.omdoc.org/foundations/minimal?SExists-ZF" class="SExists&#45;ZF">
<text text-anchor="middle" x="354.919" y="-102.3" font-family="Times New Roman,serif" font-size="14.00">SExists&#45;ZF</text>
</a>
</g>
<!-- http://latin.omdoc.org/foundations/hol?SFOL&#45;Syn -->
<g id="node13" class="node"><title>http://latin.omdoc.org/foundations/hol?SFOL&#45;Syn</title>
<a xlink:href="http://latin.omdoc.org/foundations/hol?SFOL-Syn" class="graphtheory">
<ellipse fill="gray" stroke="black" cx="175.919" cy="-18" rx="50.5427" ry="18"/>
<text text-anchor="middle" x="175.919" y="-14.3" font-family="Times New Roman,serif" font-size="14.00">SFOL&#45;Syn</text>
</a>
</g>
<!-- http://latin.omdoc.org/logics/syntax?SExists&#45;&gt;http://latin.omdoc.org/foundations/hol?SFOL&#45;Syn -->
<g id="edge13" class="edge"><title>http://latin.omdoc.org/logics/syntax?SExists&#45;&gt;http://latin.omdoc.org/foundations/hol?SFOL&#45;Syn</title>
<a xlink:href="http://latin.omdoc.org/translations/sfol_hol?SExists" class="graphview">
<path fill="none" stroke="black" d="M349.656,-178.986C343.172,-175.088 335.906,-171.083 328.919,-168 314.898,-161.813 309.006,-165.975 295.919,-158 277.936,-147.042 276.738,-139.891 262.919,-124 249.618,-108.705 251.559,-99.5756 234.919,-88 213.111,-72.8285 194.04,-91.116 177.919,-70 172.853,-63.3641 171.245,-54.7046 171.236,-46.4099"/>
<polygon fill="black" stroke="black" points="174.738,-46.4966 171.94,-36.2781 167.755,-46.0115 174.738,-46.4966"/>
</a>
<a xlink:href="http://latin.omdoc.org/translations/sfol_hol?SExists" class="SExists">
<text text-anchor="middle" x="284.419" y="-102.3" font-family="Times New Roman,serif" font-size="14.00">SExists</text>
</a>
</g>
<!-- http://latin.omdoc.org/logics/syntax?FOL -->
<g id="node15" class="node"><title>http://latin.omdoc.org/logics/syntax?FOL</title>
<a xlink:href="http://latin.omdoc.org/logics/syntax?FOL" class="graphtheory">
<ellipse fill="gray" stroke="black" cx="3114.92" cy="-18" rx="28.3955" ry="18"/>
<text text-anchor="middle" x="3114.92" y="-14.3" font-family="Times New Roman,serif" font-size="14.00">FOL</text>
</a>
</g>
<!-- http://latin.omdoc.org/logics/syntax?SExists&#45;&gt;http://latin.omdoc.org/logics/syntax?FOL -->
<g id="edge15" class="edge"><title>http://latin.omdoc.org/logics/syntax?SExists&#45;&gt;http://latin.omdoc.org/logics/syntax?FOL</title>
<a xlink:href="http://latin.omdoc.org/translations/sfol_fol?SExists" class="graphview">
<path fill="none" stroke="black" d="M361.73,-176.427C356.992,-165.419 353.737,-151.327 361.919,-142 382.168,-118.917 471.903,-138.593 498.919,-124 517.497,-113.965 510.759,-96.8723 529.919,-88 590.946,-59.7411 2884.47,-80.3468 2950.92,-70 2997.78,-62.7039 3049.71,-44.7883 3082.33,-32.2648"/>
<polygon fill="black" stroke="black" points="3083.76,-35.4636 3091.81,-28.569 3081.22,-28.942 3083.76,-35.4636"/>
</a>
<a xlink:href="http://latin.omdoc.org/translations/sfol_fol?SExists" class="SExists">
<text text-anchor="middle" x="551.419" y="-102.3" font-family="Times New Roman,serif" font-size="14.00">SExists</text>
</a>
</g>
<!-- http://latin.omdoc.org/foundations/minimal?SExistsPF&#45;ZF -->
<g id="node17" class="node"><title>http://latin.omdoc.org/foundations/minimal?SExistsPF&#45;ZF</title>
<a xlink:href="http://latin.omdoc.org/foundations/minimal?SExistsPF-ZF" class="graphtheory">
<ellipse fill="gray" stroke="black" cx="643.919" cy="-106" rx="62.0922" ry="18"/>
<text text-anchor="middle" x="643.919" y="-102.3" font-family="Times New Roman,serif" font-size="14.00">SExistsPF&#45;ZF</text>
</a>
</g>
<!-- http://latin.omdoc.org/logics/syntax?SExists&#45;&gt;http://latin.omdoc.org/foundations/minimal?SExistsPF&#45;ZF -->
<g id="edge17" class="edge"><title>http://latin.omdoc.org/logics/syntax?SExists&#45;&gt;http://latin.omdoc.org/foundations/minimal?SExistsPF&#45;ZF</title>
<a xlink:href="http://latin.omdoc.org/foundations/minimal?SExistsPF-ZF?[http://latin.omdoc.org/logics/syntax?SExists]" class="graphstructure">
<path fill="none" stroke="black" d="M365.964,-175.7C363.945,-164.66 363.715,-150.817 371.919,-142 386.817,-125.99 546.315,-127.394 567.919,-124 574.47,-122.971 581.301,-121.712 588.063,-120.349"/>
<polygon fill="black" stroke="black" points="588.811,-123.769 597.882,-118.293 587.377,-116.917 588.811,-123.769"/>
</a>
<a xlink:href="http://latin.omdoc.org/foundations/minimal?SExistsPF-ZF?[http://latin.omdoc.org/logics/syntax?SExists]" class="[http://latin.omdoc.org/logics/syntax?SExists]">
<text text-anchor="middle" x="499.419" y="-146.3" font-family="Times New Roman,serif" font-size="14.00">[http://latin.omdoc.org/logics/syntax?SExists]</text>
</a>
</g>
<!-- http://latin.omdoc.org/translations/sfol_hol?SFOL -->
<g id="node19" class="node"><title>http://latin.omdoc.org/translations/sfol_hol?SFOL</title>
<a xlink:href="http://latin.omdoc.org/translations/sfol_hol?SFOL" class="graphtheory">
<ellipse fill="gray" stroke="black" cx="1566.92" cy="-106" rx="33.1991" ry="18"/>
<text text-anchor="middle" x="1566.92" y="-102.3" font-family="Times New Roman,serif" font-size="14.00">SFOL</text>
</a>
</g>
<!-- http://latin.omdoc.org/logics/syntax?SExists&#45;&gt;http://latin.omdoc.org/translations/sfol_hol?SFOL -->
<g id="edge19" class="edge"><title>http://latin.omdoc.org/logics/syntax?SExists&#45;&gt;http://latin.omdoc.org/translations/sfol_hol?SFOL</title>
<a xlink:href="http://latin.omdoc.org/translations/sfol_hol?SFOL?[http://latin.omdoc.org/logics/syntax?SExists]" class="graphstructure">
<path fill="none" stroke="black" d="M390.876,-178.272C397.55,-174.147 405.25,-170.194 412.919,-168 465.489,-152.962 852.916,-174.891 904.919,-158 916.762,-154.153 916.144,-146.05 927.919,-142 983.797,-122.782 1388.08,-111.334 1523.13,-108.014"/>
<polygon fill="black" stroke="black" points="1523.58,-111.504 1533.5,-107.762 1523.41,-104.506 1523.58,-111.504"/>
</a>
<a xlink:href="http://latin.omdoc.org/translations/sfol_hol?SFOL?[http://latin.omdoc.org/logics/syntax?SExists]" class="[http://latin.omdoc.org/logics/syntax?SExists]">
<text text-anchor="middle" x="1055.42" y="-146.3" font-family="Times New Roman,serif" font-size="14.00">[http://latin.omdoc.org/logics/syntax?SExists]</text>
</a>
</g>
<!-- http://latin.omdoc.org/logics/proof_theory?SExists -->
<g id="node21" class="node"><title>http://latin.omdoc.org/logics/proof_theory?SExists</title>
<a xlink:href="http://latin.omdoc.org/logics/proof_theory?SExists" class="graphtheory">
<ellipse fill="gray" stroke="black" cx="72.9192" cy="-106" rx="38.0212" ry="18"/>
<text text-anchor="middle" x="72.9192" y="-102.3" font-family="Times New Roman,serif" font-size="14.00">SExists</text>
</a>
</g>
<!-- http://latin.omdoc.org/logics/syntax?SExists&#45;&gt;http://latin.omdoc.org/logics/proof_theory?SExists -->
<g id="edge21" class="edge"><title>http://latin.omdoc.org/logics/syntax?SExists&#45;&gt;http://latin.omdoc.org/logics/proof_theory?SExists</title>
<a class="graphinclude">
<path fill="none" stroke="black" d="M350.867,-178.584C344.188,-174.475 336.509,-170.453 328.919,-168 280.944,-152.495 265.184,-168.723 215.919,-158 171.691,-148.373 162.535,-139.254 119.919,-124 117.239,-123.041 114.473,-122.048 111.688,-121.046"/>
<polygon fill="black" stroke="black" points="112.836,-117.739 102.242,-117.64 110.462,-124.325 112.836,-117.739"/>
</a>
</g>
<!-- http://latin.omdoc.org/logics/syntax?SFOL -->
<g id="node23" class="node"><title>http://latin.omdoc.org/logics/syntax?SFOL</title>
<a xlink:href="http://latin.omdoc.org/logics/syntax?SFOL" class="graphtheory">
<ellipse fill="gray" stroke="black" cx="2943.92" cy="-106" rx="33.1991" ry="18"/>
<text text-anchor="middle" x="2943.92" y="-102.3" font-family="Times New Roman,serif" font-size="14.00">SFOL</text>
</a>
</g>
<!-- http://latin.omdoc.org/logics/syntax?SExists&#45;&gt;http://latin.omdoc.org/logics/syntax?SFOL -->
<g id="edge23" class="edge"><title>http://latin.omdoc.org/logics/syntax?SExists&#45;&gt;http://latin.omdoc.org/logics/syntax?SFOL</title>
<a class="graphinclude">
<path fill="none" stroke="black" d="M390.431,-178.461C397.2,-174.236 405.069,-170.176 412.919,-168 429.797,-163.321 2921.52,-169.283 2934.92,-158 2941.74,-152.255 2944.63,-143.305 2945.6,-134.497"/>
<polygon fill="black" stroke="black" points="2949.1,-134.551 2945.99,-124.423 2942.11,-134.279 2949.1,-134.551"/>
</a>
</g>
<!-- http://latin.omdoc.org/translations/sfol_hol?SExistsPF -->
<g id="node25" class="node"><title>http://latin.omdoc.org/translations/sfol_hol?SExistsPF</title>
<a xlink:href="http://latin.omdoc.org/translations/sfol_hol?SExistsPF" class="graphtheory">
<ellipse fill="gray" stroke="black" cx="177.919" cy="-106" rx="48.6179" ry="18"/>
<text text-anchor="middle" x="177.919" y="-102.3" font-family="Times New Roman,serif" font-size="14.00">SExistsPF</text>
</a>
</g>
<!-- http://latin.omdoc.org/logics/syntax?SExists&#45;&gt;http://latin.omdoc.org/translations/sfol_hol?SExistsPF -->
<g id="edge25" class="edge"><title>http://latin.omdoc.org/logics/syntax?SExists&#45;&gt;http://latin.omdoc.org/translations/sfol_hol?SExistsPF</title>
<a class="graphinclude">
<path fill="none" stroke="black" d="M350.385,-178.486C343.804,-174.476 336.303,-170.534 328.919,-168 295.028,-156.367 282.279,-171.079 248.919,-158 232.113,-151.411 215.596,-139.935 202.728,-129.536"/>
<polygon fill="black" stroke="black" points="204.746,-126.66 194.833,-122.919 200.25,-132.025 204.746,-126.66"/>
</a>
</g>
<!-- http://latin.omdoc.org/logics/proof_theory?SExists&#45;&gt;http://latin.omdoc.org/foundations/zfc?TypedZF -->
<g id="edge71" class="edge"><title>http://latin.omdoc.org/logics/proof_theory?SExists&#45;&gt;http://latin.omdoc.org/foundations/zfc?TypedZF</title>
<a xlink:href="http://latin.omdoc.org/foundations/minimal?SExistsPF-ZF" class="graphview">
<path fill="none" stroke="black" d="M101.496,-93.7521C107.519,-91.6398 113.879,-89.5966 119.919,-88 165.694,-75.9002 181.105,-87.9479 224.919,-70 236.442,-65.2797 236.886,-59.7736 247.919,-54 263.507,-45.8426 281.432,-38.6726 297.422,-32.9812"/>
<polygon fill="black" stroke="black" points="298.785,-36.213 307.089,-29.6329 296.494,-29.5984 298.785,-36.213"/>
</a>
<a xlink:href="http://latin.omdoc.org/foundations/minimal?SExistsPF-ZF" class="SExistsPF&#45;ZF">
<text text-anchor="middle" x="287.919" y="-58.3" font-family="Times New Roman,serif" font-size="14.00">SExistsPF&#45;ZF</text>
</a>
</g>
<!-- http://latin.omdoc.org/logics/syntax?SFOL&#45;&gt;http://latin.omdoc.org/logics/model_theory?SFOLMOD -->
<g id="edge65" class="edge"><title>http://latin.omdoc.org/logics/syntax?SFOL&#45;&gt;http://latin.omdoc.org/logics/model_theory?SFOLMOD</title>
<a xlink:href="http://latin.omdoc.org/logics/model_theory?SFOL" class="graphview">
<path fill="none" stroke="black" d="M2929.97,-89.6249C2918.18,-76.624 2901.09,-57.7804 2887.53,-42.8268"/>
<polygon fill="black" stroke="black" points="2890.12,-40.4691 2880.81,-35.4132 2884.93,-45.1718 2890.12,-40.4691"/>
</a>
<a xlink:href="http://latin.omdoc.org/logics/model_theory?SFOL" class="SFOL">
<text text-anchor="middle" x="2928.92" y="-58.3" font-family="Times New Roman,serif" font-size="14.00">SFOL</text>
</a>
</g>
<!-- http://latin.omdoc.org/logics/syntax?SFOL&#45;&gt;http://latin.omdoc.org/foundations/zfc?TypedZF -->
<g id="edge67" class="edge"><title>http://latin.omdoc.org/logics/syntax?SFOL&#45;&gt;http://latin.omdoc.org/foundations/zfc?TypedZF</title>
<a xlink:href="http://latin.omdoc.org/foundations/minimal?SFOL-ZF" class="graphview">
<path fill="none" stroke="black" d="M2918.42,-94.3038C2911.26,-91.763 2903.39,-89.3888 2895.92,-88 2642.75,-40.9629 747.419,-22.4856 397.409,-19.4581"/>
<polygon fill="black" stroke="black" points="397.299,-15.9571 387.269,-19.371 397.238,-22.9569 397.299,-15.9571"/>
</a>
<a xlink:href="http://latin.omdoc.org/foundations/minimal?SFOL-ZF" class="SFOL&#45;ZF">
<text text-anchor="middle" x="2701.42" y="-58.3" font-family="Times New Roman,serif" font-size="14.00">SFOL&#45;ZF</text>
</a>
</g>
<!-- http://latin.omdoc.org/logics/syntax?SFOL&#45;&gt;http://latin.omdoc.org/foundations/hol?SFOL&#45;Syn -->
<g id="edge63" class="edge"><title>http://latin.omdoc.org/logics/syntax?SFOL&#45;&gt;http://latin.omdoc.org/foundations/hol?SFOL&#45;Syn</title>
<a xlink:href="http://latin.omdoc.org/translations/sfol_hol?SFOL" class="graphview">
<path fill="none" stroke="black" d="M2918.43,-94.2688C2911.27,-91.7279 2903.4,-89.3623 2895.92,-88 2824.63,-75.0164 360.115,-42.1722 287.919,-36 268.823,-34.3674 248.035,-31.5142 229.611,-28.6063"/>
<polygon fill="black" stroke="black" points="230.075,-25.136 219.644,-26.9926 228.956,-32.046 230.075,-25.136"/>
</a>
<a xlink:href="http://latin.omdoc.org/translations/sfol_hol?SFOL" class="SFOL">
<text text-anchor="middle" x="2198.92" y="-58.3" font-family="Times New Roman,serif" font-size="14.00">SFOL</text>
</a>
</g>
<!-- http://latin.omdoc.org/logics/syntax?SFOL&#45;&gt;http://latin.omdoc.org/logics/syntax?FOL -->
<g id="edge69" class="edge"><title>http://latin.omdoc.org/logics/syntax?SFOL&#45;&gt;http://latin.omdoc.org/logics/syntax?FOL</title>
<a xlink:href="http://latin.omdoc.org/translations/sfol_fol?SFOL" class="graphview">
<path fill="none" stroke="black" d="M2969.45,-94.3754C2985.05,-87.7124 3005.32,-78.7526 3022.92,-70 3044.36,-59.3332 3067.98,-46.2116 3085.91,-35.9494"/>
<polygon fill="black" stroke="black" points="3087.81,-38.8942 3094.73,-30.8717 3084.32,-32.8277 3087.81,-38.8942"/>
</a>
<a xlink:href="http://latin.omdoc.org/translations/sfol_fol?SFOL" class="SFOL">
<text text-anchor="middle" x="3068.92" y="-58.3" font-family="Times New Roman,serif" font-size="14.00">SFOL</text>
</a>
</g>
<!-- http://latin.omdoc.org/logics/syntax?BaseSFOL -->
<g id="node27" class="node"><title>http://latin.omdoc.org/logics/syntax?BaseSFOL</title>
<a xlink:href="http://latin.omdoc.org/logics/syntax?BaseSFOL" class="graphtheory">
<ellipse fill="gray" stroke="black" cx="2799.92" cy="-194" rx="51.0191" ry="18"/>
<text text-anchor="middle" x="2799.92" y="-190.3" font-family="Times New Roman,serif" font-size="14.00">BaseSFOL</text>
</a>
</g>
<!-- http://latin.omdoc.org/logics/syntax?BaseSFOL&#45;&gt;http://latin.omdoc.org/logics/syntax?SExists -->
<g id="edge27" class="edge"><title>http://latin.omdoc.org/logics/syntax?BaseSFOL&#45;&gt;http://latin.omdoc.org/logics/syntax?SExists</title>
<a class="graphinclude">
<path fill="none" stroke="black" d="M2748.56,-194C1972.19,-194 1195.82,-194 419.449,-194"/>
<polygon fill="black" stroke="black" points="419.169,-190.5 409.169,-194 419.169,-197.5 419.169,-190.5"/>
</a>
</g>
<!-- http://latin.omdoc.org/logics/syntax?BaseSFOL&#45;&gt;http://latin.omdoc.org/logics/model_theory?SFOLMOD -->
<g id="edge45" class="edge"><title>http://latin.omdoc.org/logics/syntax?BaseSFOL&#45;&gt;http://latin.omdoc.org/logics/model_theory?SFOLMOD</title>
<a xlink:href="http://latin.omdoc.org/logics/model_theory?BaseSFOL" class="graphview">
<path fill="none" stroke="black" d="M2849.04,-188.838C2890.52,-184.183 2945.28,-174.963 2958.92,-158 2963.37,-152.457 2963.56,-147.386 2958.92,-142 2923.42,-100.824 2873.42,-165.176 2837.92,-124 2818.67,-101.674 2833.35,-67.483 2847.71,-44.2297"/>
<polygon fill="black" stroke="black" points="2850.81,-45.89 2853.34,-35.601 2844.94,-42.0683 2850.81,-45.89"/>
</a>
<a xlink:href="http://latin.omdoc.org/logics/model_theory?BaseSFOL" class="BaseSFOL">
<text text-anchor="middle" x="2869.42" y="-102.3" font-family="Times New Roman,serif" font-size="14.00">BaseSFOL</text>
</a>
</g>
<!-- http://latin.omdoc.org/logics/syntax?BaseSFOL&#45;&gt;http://latin.omdoc.org/logics/model_theory?SFOL -->
<g id="edge55" class="edge"><title>http://latin.omdoc.org/logics/syntax?BaseSFOL&#45;&gt;http://latin.omdoc.org/logics/model_theory?SFOL</title>
<a xlink:href="http://latin.omdoc.org/logics/model_theory?SFOL?[http://latin.omdoc.org/logics/syntax?BaseSFOL]" class="graphstructure">
<path fill="none" stroke="black" d="M2748.73,-192.885C2647.23,-192.025 2424.17,-186.801 2353.92,-158 2343.7,-153.812 2345.18,-146.076 2334.92,-142 2308.23,-131.396 1895.76,-114.145 1759.34,-108.701"/>
<polygon fill="black" stroke="black" points="1759.39,-105.2 1749.26,-108.3 1759.11,-112.195 1759.39,-105.2"/>
</a>
<a xlink:href="http://latin.omdoc.org/logics/model_theory?SFOL?[http://latin.omdoc.org/logics/syntax?BaseSFOL]" class="[http://latin.omdoc.org/logics/syntax?BaseSFOL]">
<text text-anchor="middle" x="2491.42" y="-146.3" font-family="Times New Roman,serif" font-size="14.00">[http://latin.omdoc.org/logics/syntax?BaseSFOL]</text>
</a>
</g>
<!-- http://latin.omdoc.org/logics/syntax?BaseSFOL&#45;&gt;http://latin.omdoc.org/foundations/minimal?SFOL&#45;ZF -->
<g id="edge57" class="edge"><title>http://latin.omdoc.org/logics/syntax?BaseSFOL&#45;&gt;http://latin.omdoc.org/foundations/minimal?SFOL&#45;ZF</title>
<a xlink:href="http://latin.omdoc.org/foundations/minimal?SFOL-ZF?[http://latin.omdoc.org/logics/syntax?BaseSFOL]" class="graphstructure">
<path fill="none" stroke="black" d="M2753.42,-186.195C2724.49,-180.881 2687,-171.997 2655.92,-158 2644.56,-152.887 2644.63,-146.226 2632.92,-142 2631.88,-141.625 2388.82,-121.131 2276.57,-111.681"/>
<polygon fill="black" stroke="black" points="2276.71,-108.181 2266.45,-110.83 2276.12,-115.156 2276.71,-108.181"/>
</a>
<a xlink:href="http://latin.omdoc.org/foundations/minimal?SFOL-ZF?[http://latin.omdoc.org/logics/syntax?BaseSFOL]" class="[http://latin.omdoc.org/logics/syntax?BaseSFOL]">
<text text-anchor="middle" x="2793.42" y="-146.3" font-family="Times New Roman,serif" font-size="14.00">[http://latin.omdoc.org/logics/syntax?BaseSFOL]</text>
</a>
</g>
<!-- http://latin.omdoc.org/logics/syntax?BaseSFOL&#45;&gt;http://latin.omdoc.org/translations/sfol_fol?SFOL -->
<g id="edge59" class="edge"><title>http://latin.omdoc.org/logics/syntax?BaseSFOL&#45;&gt;http://latin.omdoc.org/translations/sfol_fol?SFOL</title>
<a xlink:href="http://latin.omdoc.org/translations/sfol_fol?SFOL?[http://latin.omdoc.org/logics/syntax?BaseSFOL]" class="graphstructure">
<path fill="none" stroke="black" d="M2748.54,-192.835C2483.01,-191.858 1275.83,-185.896 1201.92,-158 1191.59,-154.102 1192.93,-146.664 1182.92,-142 1132.31,-118.411 1067.81,-110.602 1025.72,-108.083"/>
<polygon fill="black" stroke="black" points="1025.69,-104.577 1015.52,-107.551 1025.33,-111.568 1025.69,-104.577"/>
</a>
<a xlink:href="http://latin.omdoc.org/translations/sfol_fol?SFOL?[http://latin.omdoc.org/logics/syntax?BaseSFOL]" class="[http://latin.omdoc.org/logics/syntax?BaseSFOL]">
<text text-anchor="middle" x="1339.42" y="-146.3" font-family="Times New Roman,serif" font-size="14.00">[http://latin.omdoc.org/logics/syntax?BaseSFOL]</text>
</a>
</g>
<!-- http://latin.omdoc.org/logics/syntax?BaseSFOL&#45;&gt;http://latin.omdoc.org/foundations/zfc?TypedZF -->
<g id="edge53" class="edge"><title>http://latin.omdoc.org/logics/syntax?BaseSFOL&#45;&gt;http://latin.omdoc.org/foundations/zfc?TypedZF</title>
<a xlink:href="http://latin.omdoc.org/foundations/minimal?BaseSFOL-ZF" class="graphview">
<path fill="none" stroke="black" d="M2850.98,-192.296C2909.32,-190.282 2999.51,-183.071 3020.92,-158 3039.01,-136.816 2976.66,-64.6471 2950.92,-54 2889.83,-28.7337 769.544,-20.4404 397.397,-19.178"/>
<polygon fill="black" stroke="black" points="397.165,-15.6773 387.153,-19.1435 397.141,-22.6772 397.165,-15.6773"/>
</a>
<a xlink:href="http://latin.omdoc.org/foundations/minimal?BaseSFOL-ZF" class="BaseSFOL&#45;ZF">
<text text-anchor="middle" x="3057.92" y="-102.3" font-family="Times New Roman,serif" font-size="14.00">BaseSFOL&#45;ZF</text>
</a>
</g>
<!-- http://latin.omdoc.org/logics/syntax?BaseSFOL&#45;&gt;http://latin.omdoc.org/foundations/hol?SFOL&#45;Syn -->
<g id="edge47" class="edge"><title>http://latin.omdoc.org/logics/syntax?BaseSFOL&#45;&gt;http://latin.omdoc.org/foundations/hol?SFOL&#45;Syn</title>
<a xlink:href="http://latin.omdoc.org/translations/sfol_hol?BaseSFOL" class="graphview">
<path fill="none" stroke="black" d="M2827.53,-178.785C2836.4,-174.738 2846.39,-170.7 2855.92,-168 2872.1,-163.414 2919.84,-170.651 2930.92,-158 2935.6,-152.65 2935.74,-147.231 2930.92,-142 2924.75,-135.295 2286.02,-88.4152 2276.92,-88 2219.87,-85.3983 272.874,-93.7198 220.919,-70 208.835,-64.4829 198.681,-53.9658 191.095,-43.9086"/>
<polygon fill="black" stroke="black" points="193.943,-41.8734 185.34,-35.6886 188.208,-45.888 193.943,-41.8734"/>
</a>
<a xlink:href="http://latin.omdoc.org/translations/sfol_hol?BaseSFOL" class="BaseSFOL">
<text text-anchor="middle" x="2772.42" y="-102.3" font-family="Times New Roman,serif" font-size="14.00">BaseSFOL</text>
</a>
</g>
<!-- http://latin.omdoc.org/logics/syntax?BaseSFOL&#45;&gt;http://latin.omdoc.org/logics/syntax?FOL -->
<g id="edge49" class="edge"><title>http://latin.omdoc.org/logics/syntax?BaseSFOL&#45;&gt;http://latin.omdoc.org/logics/syntax?FOL</title>
<a xlink:href="http://latin.omdoc.org/translations/sfol_fol?BaseSFOL" class="graphview">
<path fill="none" stroke="black" d="M2851.38,-193.368C2904.49,-192.075 2988.81,-185.288 3055.92,-158 3079.47,-148.424 3089.09,-145.951 3101.92,-124 3115.69,-100.421 3117.85,-68.8152 3117.24,-46.4588"/>
<polygon fill="black" stroke="black" points="3120.73,-46.1247 3116.76,-36.3024 3113.74,-46.4575 3120.73,-46.1247"/>
</a>
<a xlink:href="http://latin.omdoc.org/translations/sfol_fol?BaseSFOL" class="BaseSFOL">
<text text-anchor="middle" x="3145.42" y="-102.3" font-family="Times New Roman,serif" font-size="14.00">BaseSFOL</text>
</a>
</g>
<!-- http://latin.omdoc.org/logics/syntax?BaseSFOL&#45;&gt;http://latin.omdoc.org/translations/sfol_hol?SFOL -->
<g id="edge51" class="edge"><title>http://latin.omdoc.org/logics/syntax?BaseSFOL&#45;&gt;http://latin.omdoc.org/translations/sfol_hol?SFOL</title>
<a xlink:href="http://latin.omdoc.org/translations/sfol_hol?SFOL?[http://latin.omdoc.org/logics/syntax?BaseSFOL]" class="graphstructure">
<path fill="none" stroke="black" d="M2748.69,-192.935C2555.03,-192.455 1873.9,-188.591 1781.92,-158 1770.1,-154.07 1770.42,-146.781 1758.92,-142 1745.24,-136.314 1660.69,-122.068 1608.45,-113.608"/>
<polygon fill="black" stroke="black" points="1608.89,-110.134 1598.46,-111.997 1607.78,-117.045 1608.89,-110.134"/>
</a>
<a xlink:href="http://latin.omdoc.org/translations/sfol_hol?SFOL?[http://latin.omdoc.org/logics/syntax?BaseSFOL]" class="[http://latin.omdoc.org/logics/syntax?BaseSFOL]">
<text text-anchor="middle" x="1919.42" y="-146.3" font-family="Times New Roman,serif" font-size="14.00">[http://latin.omdoc.org/logics/syntax?BaseSFOL]</text>
</a>
</g>
<!-- http://latin.omdoc.org/logics/syntax?BaseSFOL&#45;&gt;http://latin.omdoc.org/logics/syntax?SFOL -->
<g id="edge61" class="edge"><title>http://latin.omdoc.org/logics/syntax?BaseSFOL&#45;&gt;http://latin.omdoc.org/logics/syntax?SFOL</title>
<a class="graphinclude">
<path fill="none" stroke="black" d="M2850.71,-191.618C2905.16,-188.939 2986.43,-181.074 3005.92,-158 3018.03,-143.659 3000.24,-130.293 2980.66,-120.844"/>
<polygon fill="black" stroke="black" points="2981.89,-117.56 2971.33,-116.662 2979.02,-123.947 2981.89,-117.56"/>
</a>
</g>
<!-- http://cds.omdoc.org/urtheories?LF -->
<g id="node29" class="node"><title>http://cds.omdoc.org/urtheories?LF</title>
<a xlink:href="http://cds.omdoc.org/urtheories?LF" class="graphtheory">
<ellipse fill="gray" stroke="black" cx="1284.92" cy="-268" rx="27" ry="18"/>
<text text-anchor="middle" x="1284.92" y="-264.3" font-family="Times New Roman,serif" font-size="14.00">LF</text>
</a>
</g>
<!-- http://cds.omdoc.org/urtheories?LF&#45;&gt;http://latin.omdoc.org/logics/syntax?SExists -->
<g id="edge29" class="edge"><title>http://cds.omdoc.org/urtheories?LF&#45;&gt;http://latin.omdoc.org/logics/syntax?SExists</title>
<a class="graphmeta">
<path fill="none" stroke="black" d="M1257.7,-267.277C1128.48,-268.325 576.455,-269.761 412.919,-220 408.507,-218.658 404.076,-216.759 399.832,-214.6"/>
<polygon fill="black" stroke="black" points="401.351,-211.438 390.922,-209.574 397.912,-217.535 401.351,-211.438"/>
</a>
</g>
<!-- http://cds.omdoc.org/urtheories?LF&#45;&gt;http://latin.omdoc.org/logics/model_theory?SFOLMOD -->
<g id="edge33" class="edge"><title>http://cds.omdoc.org/urtheories?LF&#45;&gt;http://latin.omdoc.org/logics/model_theory?SFOLMOD</title>
<a class="graphmeta">
<path fill="none" stroke="black" d="M1312.21,-266.782C1460,-265.511 2179.43,-258.188 2766.92,-232 2924.04,-224.996 3027.59,-261.52 3103.92,-124 3119.27,-96.3326 3115.52,-73.8959 3090.92,-54 3066.74,-34.4499 2987.32,-25.7106 2929.68,-21.8779"/>
<polygon fill="black" stroke="black" points="2929.75,-18.3754 2919.55,-21.2393 2929.31,-25.3616 2929.75,-18.3754"/>
</a>
</g>
<!-- http://cds.omdoc.org/urtheories?LF&#45;&gt;http://latin.omdoc.org/foundations/zfc?TypedZF -->
<g id="edge37" class="edge"><title>http://cds.omdoc.org/urtheories?LF&#45;&gt;http://latin.omdoc.org/foundations/zfc?TypedZF</title>
<a class="graphmeta">
<path fill="none" stroke="black" d="M1257.87,-266.702C1098.5,-264.837 285.431,-253.716 179.919,-220 103.092,-195.45 65.059,-194.521 25.9192,-124 18.1547,-110.01 15.8845,-100.462 25.9192,-88 34.293,-77.6004 204.689,-44.5599 291.706,-28.2664"/>
<polygon fill="black" stroke="black" points="292.447,-31.6886 301.635,-26.4123 291.162,-24.8076 292.447,-31.6886"/>
</a>
</g>
<!-- http://cds.omdoc.org/urtheories?LF&#45;&gt;http://latin.omdoc.org/foundations/hol?SFOL&#45;Syn -->
<g id="edge41" class="edge"><title>http://cds.omdoc.org/urtheories?LF&#45;&gt;http://latin.omdoc.org/foundations/hol?SFOL&#45;Syn</title>
<a class="graphmeta">
<path fill="none" stroke="black" d="M1257.88,-266.804C1082.04,-265.429 106.46,-256.18 55.9192,-220 6.0734,-184.318 -17.7687,-139.215 15.9192,-88 38.7885,-53.2324 83.2817,-35.906 119.555,-27.3158"/>
<polygon fill="black" stroke="black" points="120.529,-30.6852 129.543,-25.1174 119.025,-23.8489 120.529,-30.6852"/>
</a>
</g>
<!-- http://cds.omdoc.org/urtheories?LF&#45;&gt;http://latin.omdoc.org/logics/syntax?FOL -->
<g id="edge35" class="edge"><title>http://cds.omdoc.org/urtheories?LF&#45;&gt;http://latin.omdoc.org/logics/syntax?FOL</title>
<a class="graphmeta">
<path fill="none" stroke="black" d="M1311.9,-266.766C1527.41,-264.838 2963.67,-250.86 3048.92,-220 3117.13,-195.309 3148,-188.643 3180.92,-124 3196.81,-92.7989 3165.88,-58.8687 3141.2,-38.2665"/>
<polygon fill="black" stroke="black" points="3143.14,-35.3357 3133.15,-31.8138 3138.76,-40.7983 3143.14,-35.3357"/>
</a>
</g>
<!-- http://cds.omdoc.org/urtheories?LF&#45;&gt;http://latin.omdoc.org/logics/proof_theory?SExists -->
<g id="edge31" class="edge"><title>http://cds.omdoc.org/urtheories?LF&#45;&gt;http://latin.omdoc.org/logics/proof_theory?SExists</title>
<a class="graphmeta">
<path fill="none" stroke="black" d="M1257.74,-267C1120.83,-266.801 506.067,-263.46 320.919,-220 247.077,-202.667 230.346,-190.724 161.919,-158 142.128,-148.535 120.776,-136.37 103.947,-126.295"/>
<polygon fill="black" stroke="black" points="105.47,-123.126 95.1021,-120.943 101.846,-129.115 105.47,-123.126"/>
</a>
</g>
<!-- http://cds.omdoc.org/urtheories?LF&#45;&gt;http://latin.omdoc.org/logics/syntax?SFOL -->
<g id="edge39" class="edge"><title>http://cds.omdoc.org/urtheories?LF&#45;&gt;http://latin.omdoc.org/logics/syntax?SFOL</title>
<a class="graphmeta">
<path fill="none" stroke="black" d="M1312.11,-266.74C1508.14,-264.797 2702.45,-251.709 2859.92,-220 2935.09,-204.863 2977.52,-221.216 3020.92,-158 3024.94,-152.137 3024.77,-147.979 3020.92,-142 3018.33,-137.987 2998.51,-129.02 2979.63,-121.168"/>
<polygon fill="black" stroke="black" points="2980.8,-117.868 2970.22,-117.313 2978.15,-124.345 2980.8,-117.868"/>
</a>
</g>
<!-- http://cds.omdoc.org/urtheories?LF&#45;&gt;http://latin.omdoc.org/logics/syntax?BaseSFOL -->
<g id="edge43" class="edge"><title>http://cds.omdoc.org/urtheories?LF&#45;&gt;http://latin.omdoc.org/logics/syntax?BaseSFOL</title>
<a class="graphmeta">
<path fill="none" stroke="black" d="M1311.86,-265.72C1488.55,-257.322 2482.54,-210.083 2739.36,-197.878"/>
<polygon fill="black" stroke="black" points="2739.79,-201.362 2749.61,-197.391 2739.45,-194.37 2739.79,-201.362"/>
</a>
</g>
</g>
</svg>
