<?xml version="1.0" encoding="UTF-8" standalone="no"?>
<!DOCTYPE svg PUBLIC "-//W3C//DTD SVG 1.1//EN"
 "http://www.w3.org/Graphics/SVG/1.1/DTD/svg11.dtd">
<!-- Generated by graphviz version 2.28.0 (20110507.0327)
 -->
<!-- Title: MMT Pages: 1 -->
<svg width="2676pt" height="368pt"
 viewBox="0.00 0.00 2676.00 368.00" xmlns="http://www.w3.org/2000/svg" xmlns:xlink="http://www.w3.org/1999/xlink">
<g id="graph1" class="graph" transform="scale(1 1) rotate(0) translate(4 364)">
<title>MMT</title>
<polygon fill="white" stroke="white" points="-4,5 -4,-364 2673,-364 2673,5 -4,5"/>
<g id="graph2" class="cluster"><title>cluster_local</title>
<polygon fill="none" stroke="black" points="1496,-168 1496,-220 1580,-220 1580,-168 1496,-168"/>
</g>
<!-- http://latin.omdoc.org/logics/syntax?SFOL -->
<g id="node2" class="node"><title>http://latin.omdoc.org/logics/syntax?SFOL</title>
<a xlink:href="http://latin.omdoc.org/logics/syntax?SFOL" class="graphtheory">
<ellipse fill="none" stroke="black" cx="1538" cy="-194" rx="33.1991" ry="18"/>
<text text-anchor="middle" x="1538" y="-190.3" font-family="Times New Roman,serif" font-size="14.00">SFOL</text>
</a>
</g>
<!-- http://latin.omdoc.org/logics/model_theory?SFOLEQ -->
<g id="node3" class="node"><title>http://latin.omdoc.org/logics/model_theory?SFOLEQ</title>
<a xlink:href="http://latin.omdoc.org/logics/model_theory?SFOLEQ" class="graphtheory">
<ellipse fill="gray" stroke="black" cx="320" cy="-106" rx="46.2191" ry="18"/>
<text text-anchor="middle" x="320" y="-102.3" font-family="Times New Roman,serif" font-size="14.00">SFOLEQ</text>
</a>
</g>
<!-- http://latin.omdoc.org/logics/syntax?SFOL&#45;&gt;http://latin.omdoc.org/logics/model_theory?SFOLEQ -->
<g id="edge3" class="edge"><title>http://latin.omdoc.org/logics/syntax?SFOL&#45;&gt;http://latin.omdoc.org/logics/model_theory?SFOLEQ</title>
<a xlink:href="http://latin.omdoc.org/logics/model_theory?SFOLEQ?[http://latin.omdoc.org/logics/syntax?SFOL]" class="graphstructure">
<path fill="none" stroke="black" d="M1520.52,-178.492C1514.41,-174.269 1507.25,-170.203 1500,-168 1482.96,-162.826 230.542,-170.64 218,-158 212.991,-152.952 213.867,-147.787 218,-142 219.859,-139.396 248.822,-129.592 275.409,-121.02"/>
<polygon fill="black" stroke="black" points="276.587,-124.318 285.043,-117.934 274.452,-117.652 276.587,-124.318"/>
</a>
<a xlink:href="http://latin.omdoc.org/logics/model_theory?SFOLEQ?[http://latin.omdoc.org/logics/syntax?SFOL]" class="[http://latin.omdoc.org/logics/syntax?SFOL]">
<text text-anchor="middle" x="342" y="-146.3" font-family="Times New Roman,serif" font-size="14.00">[http://latin.omdoc.org/logics/syntax?SFOL]</text>
</a>
</g>
<!-- http://latin.omdoc.org/foundations/minimal?SIFOLPF&#45;ZF -->
<g id="node5" class="node"><title>http://latin.omdoc.org/foundations/minimal?SIFOLPF&#45;ZF</title>
<a xlink:href="http://latin.omdoc.org/foundations/minimal?SIFOLPF-ZF" class="graphtheory">
<ellipse fill="gray" stroke="black" cx="456" cy="-106" rx="61.1419" ry="18"/>
<text text-anchor="middle" x="456" y="-102.3" font-family="Times New Roman,serif" font-size="14.00">SIFOLPF&#45;ZF</text>
</a>
</g>
<!-- http://latin.omdoc.org/logics/syntax?SFOL&#45;&gt;http://latin.omdoc.org/foundations/minimal?SIFOLPF&#45;ZF -->
<g id="edge5" class="edge"><title>http://latin.omdoc.org/logics/syntax?SFOL&#45;&gt;http://latin.omdoc.org/foundations/minimal?SIFOLPF&#45;ZF</title>
<a xlink:href="http://latin.omdoc.org/foundations/minimal?SIFOLPF-ZF?[http://latin.omdoc.org/logics/syntax?SFOL]" class="graphstructure">
<path fill="none" stroke="black" d="M1520.52,-178.501C1514.41,-174.279 1507.25,-170.21 1500,-168 1473.03,-159.779 509.302,-172.298 485,-158 475.651,-152.499 469.061,-142.749 464.553,-133.237"/>
<polygon fill="black" stroke="black" points="467.775,-131.869 460.714,-123.97 461.308,-134.548 467.775,-131.869"/>
</a>
<a xlink:href="http://latin.omdoc.org/foundations/minimal?SIFOLPF-ZF?[http://latin.omdoc.org/logics/syntax?SFOL]" class="[http://latin.omdoc.org/logics/syntax?SFOL]">
<text text-anchor="middle" x="609" y="-146.3" font-family="Times New Roman,serif" font-size="14.00">[http://latin.omdoc.org/logics/syntax?SFOL]</text>
</a>
</g>
<!-- http://latin.omdoc.org/foundations/hol?SFOL&#45;Syn -->
<g id="node7" class="node"><title>http://latin.omdoc.org/foundations/hol?SFOL&#45;Syn</title>
<a xlink:href="http://latin.omdoc.org/foundations/hol?SFOL-Syn" class="graphtheory">
<ellipse fill="gray" stroke="black" cx="1970" cy="-106" rx="50.5427" ry="18"/>
<text text-anchor="middle" x="1970" y="-102.3" font-family="Times New Roman,serif" font-size="14.00">SFOL&#45;Syn</text>
</a>
</g>
<!-- http://latin.omdoc.org/logics/syntax?SFOL&#45;&gt;http://latin.omdoc.org/foundations/hol?SFOL&#45;Syn -->
<g id="edge7" class="edge"><title>http://latin.omdoc.org/logics/syntax?SFOL&#45;&gt;http://latin.omdoc.org/foundations/hol?SFOL&#45;Syn</title>
<a xlink:href="http://latin.omdoc.org/translations/sfol_hol?SFOL" class="graphview">
<path fill="none" stroke="black" d="M1555.95,-178.647C1561.75,-174.643 1568.38,-170.665 1575,-168 1576.96,-167.21 1722.91,-142.286 1725,-142 1804.66,-131.127 1825.87,-138.215 1905,-124 1910.53,-123.008 1916.27,-121.787 1921.96,-120.46"/>
<polygon fill="black" stroke="black" points="1923.19,-123.762 1932.07,-117.982 1921.52,-116.963 1923.19,-123.762"/>
</a>
<a xlink:href="http://latin.omdoc.org/translations/sfol_hol?SFOL" class="SFOL">
<text text-anchor="middle" x="1743" y="-146.3" font-family="Times New Roman,serif" font-size="14.00">SFOL</text>
</a>
</g>
<!-- http://latin.omdoc.org/translations/sfol_hol?SFOLEQ -->
<g id="node9" class="node"><title>http://latin.omdoc.org/translations/sfol_hol?SFOLEQ</title>
<a xlink:href="http://latin.omdoc.org/translations/sfol_hol?SFOLEQ" class="graphtheory">
<ellipse fill="gray" stroke="black" cx="727" cy="-106" rx="46.2191" ry="18"/>
<text text-anchor="middle" x="727" y="-102.3" font-family="Times New Roman,serif" font-size="14.00">SFOLEQ</text>
</a>
</g>
<!-- http://latin.omdoc.org/logics/syntax?SFOL&#45;&gt;http://latin.omdoc.org/translations/sfol_hol?SFOLEQ -->
<g id="edge9" class="edge"><title>http://latin.omdoc.org/logics/syntax?SFOL&#45;&gt;http://latin.omdoc.org/translations/sfol_hol?SFOLEQ</title>
<a xlink:href="http://latin.omdoc.org/translations/sfol_hol?SFOLEQ?[http://latin.omdoc.org/logics/syntax?SFOL]" class="graphstructure">
<path fill="none" stroke="black" d="M1520.52,-178.515C1514.4,-174.294 1507.25,-170.223 1500,-168 1480.08,-161.89 767.425,-169.422 750,-158 741.648,-152.525 736.295,-143.222 732.879,-134.049"/>
<polygon fill="black" stroke="black" points="736.174,-132.857 729.882,-124.333 729.485,-134.92 736.174,-132.857"/>
</a>
<a xlink:href="http://latin.omdoc.org/translations/sfol_hol?SFOLEQ?[http://latin.omdoc.org/logics/syntax?SFOL]" class="[http://latin.omdoc.org/logics/syntax?SFOL]">
<text text-anchor="middle" x="874" y="-146.3" font-family="Times New Roman,serif" font-size="14.00">[http://latin.omdoc.org/logics/syntax?SFOL]</text>
</a>
</g>
<!-- http://latin.omdoc.org/logics/model_theory?SFOLMOD -->
<g id="node11" class="node"><title>http://latin.omdoc.org/logics/model_theory?SFOLMOD</title>
<a xlink:href="http://latin.omdoc.org/logics/model_theory?SFOLMOD" class="graphtheory">
<ellipse fill="gray" stroke="black" cx="2400" cy="-106" rx="54.3924" ry="18"/>
<text text-anchor="middle" x="2400" y="-102.3" font-family="Times New Roman,serif" font-size="14.00">SFOLMOD</text>
</a>
</g>
<!-- http://latin.omdoc.org/logics/syntax?SFOL&#45;&gt;http://latin.omdoc.org/logics/model_theory?SFOLMOD -->
<g id="edge11" class="edge"><title>http://latin.omdoc.org/logics/syntax?SFOL&#45;&gt;http://latin.omdoc.org/logics/model_theory?SFOLMOD</title>
<a xlink:href="http://latin.omdoc.org/logics/model_theory?SFOL" class="graphview">
<path fill="none" stroke="black" d="M1555.35,-178.279C1561.22,-174.155 1568.05,-170.2 1575,-168 1630.62,-150.389 2043.88,-173.955 2100,-158 2113.42,-154.185 2113.73,-146.292 2127,-142 2211.07,-114.808 2237.72,-137.797 2325,-124 2332.52,-122.811 2340.41,-121.309 2348.13,-119.692"/>
<polygon fill="black" stroke="black" points="2349.11,-123.06 2358.14,-117.516 2347.63,-116.22 2349.11,-123.06"/>
</a>
<a xlink:href="http://latin.omdoc.org/logics/model_theory?SFOL" class="SFOL">
<text text-anchor="middle" x="2145" y="-146.3" font-family="Times New Roman,serif" font-size="14.00">SFOL</text>
</a>
</g>
<!-- http://latin.omdoc.org/foundations/minimal?SFOLEQ&#45;ZF -->
<g id="node13" class="node"><title>http://latin.omdoc.org/foundations/minimal?SFOLEQ&#45;ZF</title>
<a xlink:href="http://latin.omdoc.org/foundations/minimal?SFOLEQ-ZF" class="graphtheory">
<ellipse fill="gray" stroke="black" cx="998" cy="-106" rx="59.1941" ry="18"/>
<text text-anchor="middle" x="998" y="-102.3" font-family="Times New Roman,serif" font-size="14.00">SFOLEQ&#45;ZF</text>
</a>
</g>
<!-- http://latin.omdoc.org/logics/syntax?SFOL&#45;&gt;http://latin.omdoc.org/foundations/minimal?SFOLEQ&#45;ZF -->
<g id="edge13" class="edge"><title>http://latin.omdoc.org/logics/syntax?SFOL&#45;&gt;http://latin.omdoc.org/foundations/minimal?SFOLEQ&#45;ZF</title>
<a xlink:href="http://latin.omdoc.org/foundations/minimal?SFOLEQ-ZF?[http://latin.omdoc.org/logics/syntax?SFOL]" class="graphstructure">
<path fill="none" stroke="black" d="M1520.51,-178.546C1514.39,-174.327 1507.24,-170.249 1500,-168 1474.1,-159.955 1033.39,-174.662 1012,-158 1004.63,-152.261 1000.91,-143.031 999.097,-133.99"/>
<polygon fill="black" stroke="black" points="1002.56,-133.509 997.772,-124.059 995.625,-134.435 1002.56,-133.509"/>
</a>
<a xlink:href="http://latin.omdoc.org/foundations/minimal?SFOLEQ-ZF?[http://latin.omdoc.org/logics/syntax?SFOL]" class="[http://latin.omdoc.org/logics/syntax?SFOL]">
<text text-anchor="middle" x="1136" y="-146.3" font-family="Times New Roman,serif" font-size="14.00">[http://latin.omdoc.org/logics/syntax?SFOL]</text>
</a>
</g>
<!-- http://latin.omdoc.org/translations/sfol_fol?SFOLEQ -->
<g id="node15" class="node"><title>http://latin.omdoc.org/translations/sfol_fol?SFOLEQ</title>
<a xlink:href="http://latin.omdoc.org/translations/sfol_fol?SFOLEQ" class="graphtheory">
<ellipse fill="gray" stroke="black" cx="1269" cy="-106" rx="46.2191" ry="18"/>
<text text-anchor="middle" x="1269" y="-102.3" font-family="Times New Roman,serif" font-size="14.00">SFOLEQ</text>
</a>
</g>
<!-- http://latin.omdoc.org/logics/syntax?SFOL&#45;&gt;http://latin.omdoc.org/translations/sfol_fol?SFOLEQ -->
<g id="edge15" class="edge"><title>http://latin.omdoc.org/logics/syntax?SFOL&#45;&gt;http://latin.omdoc.org/translations/sfol_fol?SFOLEQ</title>
<a xlink:href="http://latin.omdoc.org/translations/sfol_fol?SFOLEQ?[http://latin.omdoc.org/logics/syntax?SFOL]" class="graphstructure">
<path fill="none" stroke="black" d="M1520.48,-178.643C1514.36,-174.431 1507.21,-170.332 1500,-168 1475.66,-160.131 1287.87,-176.302 1270,-158 1263.86,-151.715 1262.33,-142.644 1262.76,-133.89"/>
<polygon fill="black" stroke="black" points="1266.23,-134.301 1264,-123.944 1259.29,-133.434 1266.23,-134.301"/>
</a>
<a xlink:href="http://latin.omdoc.org/translations/sfol_fol?SFOLEQ?[http://latin.omdoc.org/logics/syntax?SFOL]" class="[http://latin.omdoc.org/logics/syntax?SFOL]">
<text text-anchor="middle" x="1394" y="-146.3" font-family="Times New Roman,serif" font-size="14.00">[http://latin.omdoc.org/logics/syntax?SFOL]</text>
</a>
</g>
<!-- http://latin.omdoc.org/foundations/zfc?TypedZF -->
<g id="node17" class="node"><title>http://latin.omdoc.org/foundations/zfc?TypedZF</title>
<a xlink:href="http://latin.omdoc.org/foundations/zfc?TypedZF" class="graphtheory">
<ellipse fill="gray" stroke="black" cx="1825" cy="-18" rx="45.244" ry="18"/>
<text text-anchor="middle" x="1825" y="-14.3" font-family="Times New Roman,serif" font-size="14.00">TypedZF</text>
</a>
</g>
<!-- http://latin.omdoc.org/logics/syntax?SFOL&#45;&gt;http://latin.omdoc.org/foundations/zfc?TypedZF -->
<g id="edge17" class="edge"><title>http://latin.omdoc.org/logics/syntax?SFOL&#45;&gt;http://latin.omdoc.org/foundations/zfc?TypedZF</title>
<a xlink:href="http://latin.omdoc.org/foundations/minimal?SFOL-ZF" class="graphview">
<path fill="none" stroke="black" d="M1532.78,-175.956C1526.96,-153.221 1520.81,-112.947 1541,-88 1569.62,-52.641 1697.49,-32.9629 1771.52,-24.3465"/>
<polygon fill="black" stroke="black" points="1772.05,-27.8087 1781.6,-23.2036 1771.27,-20.8533 1772.05,-27.8087"/>
</a>
<a xlink:href="http://latin.omdoc.org/foundations/minimal?SFOL-ZF" class="SFOL&#45;ZF">
<text text-anchor="middle" x="1569.5" y="-102.3" font-family="Times New Roman,serif" font-size="14.00">SFOL&#45;ZF</text>
</a>
</g>
<!-- http://latin.omdoc.org/logics/syntax?FOL -->
<g id="node19" class="node"><title>http://latin.omdoc.org/logics/syntax?FOL</title>
<a xlink:href="http://latin.omdoc.org/logics/syntax?FOL" class="graphtheory">
<ellipse fill="gray" stroke="black" cx="1748" cy="-106" rx="28.3955" ry="18"/>
<text text-anchor="middle" x="1748" y="-102.3" font-family="Times New Roman,serif" font-size="14.00">FOL</text>
</a>
</g>
<!-- http://latin.omdoc.org/logics/syntax?SFOL&#45;&gt;http://latin.omdoc.org/logics/syntax?FOL -->
<g id="edge19" class="edge"><title>http://latin.omdoc.org/logics/syntax?SFOL&#45;&gt;http://latin.omdoc.org/logics/syntax?FOL</title>
<a xlink:href="http://latin.omdoc.org/translations/sfol_fol?SFOL" class="graphview">
<path fill="none" stroke="black" d="M1550.09,-176.926C1559.8,-165.253 1574.51,-150.133 1591,-142 1638.97,-118.342 1658.67,-139.059 1710,-124 1712.28,-123.33 1714.61,-122.552 1716.92,-121.704"/>
<polygon fill="black" stroke="black" points="1718.32,-124.915 1726.28,-117.925 1715.7,-118.424 1718.32,-124.915"/>
</a>
<a xlink:href="http://latin.omdoc.org/translations/sfol_fol?SFOL" class="SFOL">
<text text-anchor="middle" x="1609" y="-146.3" font-family="Times New Roman,serif" font-size="14.00">SFOL</text>
</a>
</g>
<!-- http://latin.omdoc.org/logics/syntax?SFOLEQ -->
<g id="node21" class="node"><title>http://latin.omdoc.org/logics/syntax?SFOLEQ</title>
<a xlink:href="http://latin.omdoc.org/logics/syntax?SFOLEQ" class="graphtheory">
<ellipse fill="gray" stroke="black" cx="1920" cy="-194" rx="46.2191" ry="18"/>
<text text-anchor="middle" x="1920" y="-190.3" font-family="Times New Roman,serif" font-size="14.00">SFOLEQ</text>
</a>
</g>
<!-- http://latin.omdoc.org/logics/syntax?SFOL&#45;&gt;http://latin.omdoc.org/logics/syntax?SFOLEQ -->
<g id="edge21" class="edge"><title>http://latin.omdoc.org/logics/syntax?SFOL&#45;&gt;http://latin.omdoc.org/logics/syntax?SFOLEQ</title>
<a class="graphinclude">
<path fill="none" stroke="black" d="M1551.4,-210.844C1559.7,-219.875 1571.2,-230.125 1584,-235 1631.55,-253.117 1762.96,-244.259 1813,-235 1836.7,-230.614 1861.94,-221.195 1881.95,-212.489"/>
<polygon fill="black" stroke="black" points="1883.62,-215.575 1891.32,-208.298 1880.76,-209.185 1883.62,-215.575"/>
</a>
</g>
<!-- http://latin.omdoc.org/translations/fol&#45;sfol?FOL&#45;SFOL&#45;Sig -->
<g id="node23" class="node"><title>http://latin.omdoc.org/translations/fol&#45;sfol?FOL&#45;SFOL&#45;Sig</title>
<a xlink:href="http://latin.omdoc.org/translations/fol-sfol?FOL-SFOL-Sig" class="graphtheory">
<ellipse fill="gray" stroke="black" cx="187" cy="-106" rx="68.3417" ry="18"/>
<text text-anchor="middle" x="187" y="-102.3" font-family="Times New Roman,serif" font-size="14.00">FOL&#45;SFOL&#45;Sig</text>
</a>
</g>
<!-- http://latin.omdoc.org/logics/syntax?SFOL&#45;&gt;http://latin.omdoc.org/translations/fol&#45;sfol?FOL&#45;SFOL&#45;Sig -->
<g id="edge23" class="edge"><title>http://latin.omdoc.org/logics/syntax?SFOL&#45;&gt;http://latin.omdoc.org/translations/fol&#45;sfol?FOL&#45;SFOL&#45;Sig</title>
<a class="graphinclude">
<path fill="none" stroke="black" d="M1520.52,-178.492C1514.41,-174.269 1507.25,-170.203 1500,-168 1465.74,-157.595 241.158,-177.303 211,-158 202.526,-152.576 196.988,-143.283 193.394,-134.103"/>
<polygon fill="black" stroke="black" points="196.647,-132.791 190.21,-124.375 189.994,-134.968 196.647,-132.791"/>
</a>
</g>
<!-- http://latin.omdoc.org/logics/proof_theory?SIFOL -->
<g id="node25" class="node"><title>http://latin.omdoc.org/logics/proof_theory?SIFOL</title>
<a xlink:href="http://latin.omdoc.org/logics/proof_theory?SIFOL" class="graphtheory">
<ellipse fill="gray" stroke="black" cx="64" cy="-106" rx="36.096" ry="18"/>
<text text-anchor="middle" x="64" y="-102.3" font-family="Times New Roman,serif" font-size="14.00">SIFOL</text>
</a>
</g>
<!-- http://latin.omdoc.org/logics/syntax?SFOL&#45;&gt;http://latin.omdoc.org/logics/proof_theory?SIFOL -->
<g id="edge25" class="edge"><title>http://latin.omdoc.org/logics/syntax?SFOL&#45;&gt;http://latin.omdoc.org/logics/proof_theory?SIFOL</title>
<a class="graphinclude">
<path fill="none" stroke="black" d="M1520.52,-178.491C1514.41,-174.269 1507.25,-170.203 1500,-168 1430.57,-146.92 265.242,-171.757 194,-158 159.805,-151.397 123.054,-136.146 97.3811,-124.032"/>
<polygon fill="black" stroke="black" points="98.6409,-120.754 88.1127,-119.567 95.6028,-127.06 98.6409,-120.754"/>
</a>
</g>
<!-- http://latin.omdoc.org/translations/sfol_hol?SIFOLPF -->
<g id="node27" class="node"><title>http://latin.omdoc.org/translations/sfol_hol?SIFOLPF</title>
<a xlink:href="http://latin.omdoc.org/translations/sfol_hol?SIFOLPF" class="graphtheory">
<ellipse fill="gray" stroke="black" cx="1654" cy="-106" rx="47.169" ry="18"/>
<text text-anchor="middle" x="1654" y="-102.3" font-family="Times New Roman,serif" font-size="14.00">SIFOLPF</text>
</a>
</g>
<!-- http://latin.omdoc.org/logics/syntax?SFOL&#45;&gt;http://latin.omdoc.org/translations/sfol_hol?SIFOLPF -->
<g id="edge27" class="edge"><title>http://latin.omdoc.org/logics/syntax?SFOL&#45;&gt;http://latin.omdoc.org/translations/sfol_hol?SIFOLPF</title>
<a class="graphinclude">
<path fill="none" stroke="black" d="M1545.46,-176.442C1551.13,-165.44 1559.85,-151.351 1571,-142 1581.6,-133.112 1594.78,-126.188 1607.5,-120.931"/>
<polygon fill="black" stroke="black" points="1609.01,-124.098 1617.08,-117.231 1606.49,-117.568 1609.01,-124.098"/>
</a>
</g>
<!-- http://latin.omdoc.org/logics/syntax?SFOLEQ&#45;&gt;http://latin.omdoc.org/foundations/hol?SFOL&#45;Syn -->
<g id="edge95" class="edge"><title>http://latin.omdoc.org/logics/syntax?SFOLEQ&#45;&gt;http://latin.omdoc.org/foundations/hol?SFOL&#45;Syn</title>
<a xlink:href="http://latin.omdoc.org/translations/sfol_hol?SFOLEQ" class="graphview">
<path fill="none" stroke="black" d="M1917.52,-175.947C1916.82,-165.541 1917.44,-152.304 1923,-142 1925.91,-136.608 1930.05,-131.816 1934.68,-127.64"/>
<polygon fill="black" stroke="black" points="1937.15,-130.152 1942.81,-121.197 1932.8,-124.666 1937.15,-130.152"/>
</a>
<a xlink:href="http://latin.omdoc.org/translations/sfol_hol?SFOLEQ" class="SFOLEQ">
<text text-anchor="middle" x="1950.5" y="-146.3" font-family="Times New Roman,serif" font-size="14.00">SFOLEQ</text>
</a>
</g>
<!-- http://latin.omdoc.org/logics/syntax?SFOLEQ&#45;&gt;http://latin.omdoc.org/logics/model_theory?SFOLMOD -->
<g id="edge97" class="edge"><title>http://latin.omdoc.org/logics/syntax?SFOLEQ&#45;&gt;http://latin.omdoc.org/logics/model_theory?SFOLMOD</title>
<a xlink:href="http://latin.omdoc.org/logics/model_theory?SFOLEQ" class="graphview">
<path fill="none" stroke="black" d="M1955.79,-182.418C1974.71,-177.239 1998.43,-171.402 2020,-168 2084.68,-157.797 2102.17,-167.257 2167,-158 2199.88,-153.304 2207.53,-148.996 2240,-142 2277.75,-133.866 2287.28,-132.268 2325,-124 2332.08,-122.447 2339.54,-120.788 2346.88,-119.138"/>
<polygon fill="black" stroke="black" points="2347.81,-122.517 2356.79,-116.904 2346.27,-115.689 2347.81,-122.517"/>
</a>
<a xlink:href="http://latin.omdoc.org/logics/model_theory?SFOLEQ" class="SFOLEQ">
<text text-anchor="middle" x="2267.5" y="-146.3" font-family="Times New Roman,serif" font-size="14.00">SFOLEQ</text>
</a>
</g>
<!-- http://latin.omdoc.org/logics/syntax?SFOLEQ&#45;&gt;http://latin.omdoc.org/foundations/zfc?TypedZF -->
<g id="edge99" class="edge"><title>http://latin.omdoc.org/logics/syntax?SFOLEQ&#45;&gt;http://latin.omdoc.org/foundations/zfc?TypedZF</title>
<a xlink:href="http://latin.omdoc.org/foundations/minimal?SFOLEQ-ZF" class="graphview">
<path fill="none" stroke="black" d="M1880.18,-184.593C1865.06,-179.406 1849.07,-171.126 1839,-158 1814.3,-125.812 1815.9,-76.3404 1819.98,-45.9158"/>
<polygon fill="black" stroke="black" points="1823.44,-46.4206 1821.49,-36.0082 1816.52,-45.3686 1823.44,-46.4206"/>
</a>
<a xlink:href="http://latin.omdoc.org/foundations/minimal?SFOLEQ-ZF" class="SFOLEQ&#45;ZF">
<text text-anchor="middle" x="1861" y="-102.3" font-family="Times New Roman,serif" font-size="14.00">SFOLEQ&#45;ZF</text>
</a>
</g>
<!-- http://latin.omdoc.org/logics/proof_theory?SIFOL&#45;&gt;http://latin.omdoc.org/foundations/zfc?TypedZF -->
<g id="edge93" class="edge"><title>http://latin.omdoc.org/logics/proof_theory?SIFOL&#45;&gt;http://latin.omdoc.org/foundations/zfc?TypedZF</title>
<a xlink:href="http://latin.omdoc.org/foundations/minimal?SIFOLPF-ZF" class="graphview">
<path fill="none" stroke="black" d="M90.2319,-93.4819C96.2875,-91.2776 102.78,-89.2653 109,-88 437.343,-21.2036 1511.87,-18.5103 1769.24,-18.8477"/>
<polygon fill="black" stroke="black" points="1769.46,-22.3479 1779.47,-18.8633 1769.47,-15.3479 1769.46,-22.3479"/>
</a>
<a xlink:href="http://latin.omdoc.org/foundations/minimal?SIFOLPF-ZF" class="SIFOLPF&#45;ZF">
<text text-anchor="middle" x="431" y="-58.3" font-family="Times New Roman,serif" font-size="14.00">SIFOLPF&#45;ZF</text>
</a>
</g>
<!-- http://latin.omdoc.org/logics/syntax?PL -->
<g id="node29" class="node"><title>http://latin.omdoc.org/logics/syntax?PL</title>
<a xlink:href="http://latin.omdoc.org/logics/syntax?PL" class="graphtheory">
<ellipse fill="gray" stroke="black" cx="1608" cy="-268" rx="27" ry="18"/>
<text text-anchor="middle" x="1608" y="-264.3" font-family="Times New Roman,serif" font-size="14.00">PL</text>
</a>
</g>
<!-- http://latin.omdoc.org/logics/syntax?PL&#45;&gt;http://latin.omdoc.org/logics/syntax?SFOL -->
<g id="edge29" class="edge"><title>http://latin.omdoc.org/logics/syntax?PL&#45;&gt;http://latin.omdoc.org/logics/syntax?SFOL</title>
<a class="graphinclude">
<path fill="none" stroke="black" d="M1592.6,-252.98C1585.84,-246.692 1577.9,-239.105 1571,-232 1566.77,-227.649 1562.37,-222.889 1558.22,-218.276"/>
<polygon fill="black" stroke="black" points="1560.78,-215.895 1551.52,-210.749 1555.55,-220.547 1560.78,-215.895"/>
</a>
</g>
<!-- http://latin.omdoc.org/logics/syntax?PL&#45;&gt;http://latin.omdoc.org/foundations/hol?SFOL&#45;Syn -->
<g id="edge89" class="edge"><title>http://latin.omdoc.org/logics/syntax?PL&#45;&gt;http://latin.omdoc.org/foundations/hol?SFOL&#45;Syn</title>
<a xlink:href="http://latin.omdoc.org/translations/prop_hol?Prop" class="graphview">
<path fill="none" stroke="black" d="M1634.74,-265.453C1667.71,-262.17 1723.59,-251.929 1758,-220 1785.34,-194.625 1759.87,-165.298 1789,-142 1829.06,-109.964 1852.75,-134.319 1903,-124 1908.87,-122.794 1915.01,-121.411 1921.08,-119.966"/>
<polygon fill="black" stroke="black" points="1922.29,-123.273 1931.17,-117.496 1920.62,-116.473 1922.29,-123.273"/>
</a>
<a xlink:href="http://latin.omdoc.org/translations/prop_hol?Prop" class="Prop">
<text text-anchor="middle" x="1788" y="-190.3" font-family="Times New Roman,serif" font-size="14.00">Prop</text>
</a>
</g>
<!-- http://latin.omdoc.org/logics/syntax?PL&#45;&gt;http://latin.omdoc.org/logics/syntax?FOL -->
<g id="edge91" class="edge"><title>http://latin.omdoc.org/logics/syntax?PL&#45;&gt;http://latin.omdoc.org/logics/syntax?FOL</title>
<a class="graphinclude">
<path fill="none" stroke="black" d="M1609.29,-249.965C1611.43,-229.469 1616.97,-194.512 1631,-168 1649.8,-132.48 1672.51,-138.476 1710,-124 1712.08,-123.196 1714.21,-122.339 1716.35,-121.453"/>
<polygon fill="black" stroke="black" points="1717.85,-124.62 1725.66,-117.46 1715.09,-118.188 1717.85,-124.62"/>
</a>
</g>
<!-- http://latin.omdoc.org/logics/syntax?SForall -->
<g id="node31" class="node"><title>http://latin.omdoc.org/logics/syntax?SForall</title>
<a xlink:href="http://latin.omdoc.org/logics/syntax?SForall" class="graphtheory">
<ellipse fill="gray" stroke="black" cx="2066" cy="-194" rx="37.0701" ry="18"/>
<text text-anchor="middle" x="2066" y="-190.3" font-family="Times New Roman,serif" font-size="14.00">SForall</text>
</a>
</g>
<!-- http://latin.omdoc.org/logics/syntax?SForall&#45;&gt;http://latin.omdoc.org/logics/syntax?SFOL -->
<g id="edge31" class="edge"><title>http://latin.omdoc.org/logics/syntax?SForall&#45;&gt;http://latin.omdoc.org/logics/syntax?SFOL</title>
<a class="graphinclude">
<path fill="none" stroke="black" d="M2040.96,-207.473C2021.23,-217.285 1992.69,-229.74 1966,-235 1924.36,-243.206 1623.66,-250.111 1584,-235 1574.6,-231.42 1565.9,-224.941 1558.66,-218.175"/>
<polygon fill="black" stroke="black" points="1560.93,-215.489 1551.4,-210.844 1555.95,-220.413 1560.93,-215.489"/>
</a>
</g>
<!-- http://latin.omdoc.org/logics/syntax?SForall&#45;&gt;http://latin.omdoc.org/foundations/hol?SFOL&#45;Syn -->
<g id="edge81" class="edge"><title>http://latin.omdoc.org/logics/syntax?SForall&#45;&gt;http://latin.omdoc.org/foundations/hol?SFOL&#45;Syn</title>
<a xlink:href="http://latin.omdoc.org/translations/sfol_hol?SForall" class="graphview">
<path fill="none" stroke="black" d="M2061.89,-175.623C2058.58,-164.831 2052.98,-151.293 2044,-142 2036.29,-134.018 2026.4,-127.649 2016.37,-122.651"/>
<polygon fill="black" stroke="black" points="2017.73,-119.426 2007.18,-118.44 2014.82,-125.789 2017.73,-119.426"/>
</a>
<a xlink:href="http://latin.omdoc.org/translations/sfol_hol?SForall" class="SForall">
<text text-anchor="middle" x="2075.5" y="-146.3" font-family="Times New Roman,serif" font-size="14.00">SForall</text>
</a>
</g>
<!-- http://latin.omdoc.org/logics/syntax?SForall&#45;&gt;http://latin.omdoc.org/logics/model_theory?SFOLMOD -->
<g id="edge87" class="edge"><title>http://latin.omdoc.org/logics/syntax?SForall&#45;&gt;http://latin.omdoc.org/logics/model_theory?SFOLMOD</title>
<a xlink:href="http://latin.omdoc.org/logics/model_theory?SForall" class="graphview">
<path fill="none" stroke="black" d="M2100.24,-187.105C2133.74,-181.513 2186.25,-173.212 2232,-168 2260.57,-164.746 2335.73,-171.726 2361,-158 2371.65,-152.215 2380.29,-142.146 2386.7,-132.474"/>
<polygon fill="black" stroke="black" points="2389.75,-134.199 2391.96,-123.838 2383.77,-130.558 2389.75,-134.199"/>
</a>
<a xlink:href="http://latin.omdoc.org/logics/model_theory?SForall" class="SForall">
<text text-anchor="middle" x="2400.5" y="-146.3" font-family="Times New Roman,serif" font-size="14.00">SForall</text>
</a>
</g>
<!-- http://latin.omdoc.org/logics/syntax?SForall&#45;&gt;http://latin.omdoc.org/foundations/zfc?TypedZF -->
<g id="edge85" class="edge"><title>http://latin.omdoc.org/logics/syntax?SForall&#45;&gt;http://latin.omdoc.org/foundations/zfc?TypedZF</title>
<a xlink:href="http://latin.omdoc.org/foundations/minimal?SForall-ZF" class="graphview">
<path fill="none" stroke="black" d="M2100.66,-187.38C2151.39,-178.99 2240.41,-163.576 2245,-158 2249.52,-152.51 2249.26,-147.691 2245,-142 2200.52,-82.6228 1979.48,-42.2578 1877.15,-26.4528"/>
<polygon fill="black" stroke="black" points="1877.45,-22.9585 1867.04,-24.9116 1876.4,-29.8786 1877.45,-22.9585"/>
</a>
<a xlink:href="http://latin.omdoc.org/foundations/minimal?SForall-ZF" class="SForall&#45;ZF">
<text text-anchor="middle" x="2254" y="-102.3" font-family="Times New Roman,serif" font-size="14.00">SForall&#45;ZF</text>
</a>
</g>
<!-- http://latin.omdoc.org/logics/syntax?SForall&#45;&gt;http://latin.omdoc.org/logics/syntax?FOL -->
<g id="edge83" class="edge"><title>http://latin.omdoc.org/logics/syntax?SForall&#45;&gt;http://latin.omdoc.org/logics/syntax?FOL</title>
<a xlink:href="http://latin.omdoc.org/translations/sfol_fol?SForall" class="graphview">
<path fill="none" stroke="black" d="M2035.96,-183.368C2018.37,-178.075 1995.62,-171.825 1975,-168 1930.65,-159.773 1917.8,-168.795 1874,-158 1840.42,-149.724 1804,-134.211 1778.99,-122.458"/>
<polygon fill="black" stroke="black" points="1780.2,-119.157 1769.67,-118.002 1777.18,-125.472 1780.2,-119.157"/>
</a>
<a xlink:href="http://latin.omdoc.org/translations/sfol_fol?SForall" class="SForall">
<text text-anchor="middle" x="1894.5" y="-146.3" font-family="Times New Roman,serif" font-size="14.00">SForall</text>
</a>
</g>
<!-- http://latin.omdoc.org/logics/syntax?SExists -->
<g id="node33" class="node"><title>http://latin.omdoc.org/logics/syntax?SExists</title>
<a xlink:href="http://latin.omdoc.org/logics/syntax?SExists" class="graphtheory">
<ellipse fill="gray" stroke="black" cx="2472" cy="-194" rx="38.0212" ry="18"/>
<text text-anchor="middle" x="2472" y="-190.3" font-family="Times New Roman,serif" font-size="14.00">SExists</text>
</a>
</g>
<!-- http://latin.omdoc.org/logics/syntax?SExists&#45;&gt;http://latin.omdoc.org/logics/syntax?SFOL -->
<g id="edge33" class="edge"><title>http://latin.omdoc.org/logics/syntax?SExists&#45;&gt;http://latin.omdoc.org/logics/syntax?SFOL</title>
<a class="graphinclude">
<path fill="none" stroke="black" d="M2454.27,-210.082C2442.83,-219.341 2427.11,-230.089 2411,-235 2367.05,-248.397 1626.93,-251.357 1584,-235 1574.6,-231.42 1565.9,-224.941 1558.66,-218.175"/>
<polygon fill="black" stroke="black" points="1560.93,-215.489 1551.4,-210.844 1555.95,-220.413 1560.93,-215.489"/>
</a>
</g>
<!-- http://latin.omdoc.org/logics/syntax?SExists&#45;&gt;http://latin.omdoc.org/foundations/hol?SFOL&#45;Syn -->
<g id="edge77" class="edge"><title>http://latin.omdoc.org/logics/syntax?SExists&#45;&gt;http://latin.omdoc.org/foundations/hol?SFOL&#45;Syn</title>
<a xlink:href="http://latin.omdoc.org/translations/sfol_hol?SExists" class="graphview">
<path fill="none" stroke="black" d="M2448.62,-179.583C2439.9,-175.172 2429.75,-170.709 2420,-168 2374.41,-155.328 2357.64,-176.296 2314,-158 2303.82,-153.732 2305.15,-146.336 2295,-142 2248.7,-122.23 2110.49,-113.053 2029.99,-109.281"/>
<polygon fill="black" stroke="black" points="2030.14,-105.784 2019.99,-108.826 2029.82,-112.777 2030.14,-105.784"/>
</a>
<a xlink:href="http://latin.omdoc.org/translations/sfol_hol?SExists" class="SExists">
<text text-anchor="middle" x="2335.5" y="-146.3" font-family="Times New Roman,serif" font-size="14.00">SExists</text>
</a>
</g>
<!-- http://latin.omdoc.org/logics/syntax?SExists&#45;&gt;http://latin.omdoc.org/logics/model_theory?SFOLMOD -->
<g id="edge73" class="edge"><title>http://latin.omdoc.org/logics/syntax?SExists&#45;&gt;http://latin.omdoc.org/logics/model_theory?SFOLMOD</title>
<a xlink:href="http://latin.omdoc.org/logics/model_theory?SExists" class="graphview">
<path fill="none" stroke="black" d="M2467.33,-176.117C2463.81,-165.521 2458.16,-152.018 2450,-142 2445.68,-136.702 2440.37,-131.851 2434.83,-127.559"/>
<polygon fill="black" stroke="black" points="2436.81,-124.675 2426.65,-121.684 2432.73,-130.361 2436.81,-124.675"/>
</a>
<a xlink:href="http://latin.omdoc.org/logics/model_theory?SExists" class="SExists">
<text text-anchor="middle" x="2481.5" y="-146.3" font-family="Times New Roman,serif" font-size="14.00">SExists</text>
</a>
</g>
<!-- http://latin.omdoc.org/logics/syntax?SExists&#45;&gt;http://latin.omdoc.org/foundations/zfc?TypedZF -->
<g id="edge75" class="edge"><title>http://latin.omdoc.org/logics/syntax?SExists&#45;&gt;http://latin.omdoc.org/foundations/zfc?TypedZF</title>
<a xlink:href="http://latin.omdoc.org/foundations/minimal?SExists-ZF" class="graphview">
<path fill="none" stroke="black" d="M2491.86,-178.351C2497.89,-172.733 2503.78,-165.78 2507,-158 2509.72,-151.43 2509.38,-148.7 2507,-142 2496.62,-112.833 2490.21,-102.772 2463,-88 2363.04,-33.7296 2016.68,-22.1359 1880.55,-19.666"/>
<polygon fill="black" stroke="black" points="1880.41,-16.1631 1870.35,-19.491 1880.29,-23.1621 1880.41,-16.1631"/>
</a>
<a xlink:href="http://latin.omdoc.org/foundations/minimal?SExists-ZF" class="SExists&#45;ZF">
<text text-anchor="middle" x="2532" y="-102.3" font-family="Times New Roman,serif" font-size="14.00">SExists&#45;ZF</text>
</a>
</g>
<!-- http://latin.omdoc.org/logics/syntax?SExists&#45;&gt;http://latin.omdoc.org/logics/syntax?FOL -->
<g id="edge79" class="edge"><title>http://latin.omdoc.org/logics/syntax?SExists&#45;&gt;http://latin.omdoc.org/logics/syntax?FOL</title>
<a xlink:href="http://latin.omdoc.org/translations/sfol_fol?SExists" class="graphview">
<path fill="none" stroke="black" d="M2449.23,-179.468C2440.41,-174.929 2430.03,-170.411 2420,-168 2374.29,-157.013 2040.97,-174.639 1997,-158 1986.67,-154.093 1988.16,-146.311 1978,-142 1906.02,-111.466 1879.61,-139.621 1803,-124 1796.09,-122.591 1788.81,-120.668 1781.9,-118.621"/>
<polygon fill="black" stroke="black" points="1782.69,-115.202 1772.1,-115.578 1780.61,-121.887 1782.69,-115.202"/>
</a>
<a xlink:href="http://latin.omdoc.org/translations/sfol_fol?SExists" class="SExists">
<text text-anchor="middle" x="2018.5" y="-146.3" font-family="Times New Roman,serif" font-size="14.00">SExists</text>
</a>
</g>
<!-- http://latin.omdoc.org/logics/syntax?BaseSFOL -->
<g id="node35" class="node"><title>http://latin.omdoc.org/logics/syntax?BaseSFOL</title>
<a xlink:href="http://latin.omdoc.org/logics/syntax?BaseSFOL" class="graphtheory">
<ellipse fill="gray" stroke="black" cx="2201" cy="-268" rx="51.0191" ry="18"/>
<text text-anchor="middle" x="2201" y="-264.3" font-family="Times New Roman,serif" font-size="14.00">BaseSFOL</text>
</a>
</g>
<!-- http://latin.omdoc.org/logics/syntax?BaseSFOL&#45;&gt;http://latin.omdoc.org/logics/syntax?SFOL -->
<g id="edge35" class="edge"><title>http://latin.omdoc.org/logics/syntax?BaseSFOL&#45;&gt;http://latin.omdoc.org/logics/syntax?SFOL</title>
<a class="graphinclude">
<path fill="none" stroke="black" d="M2150.72,-264.487C2057.29,-259.629 1850.64,-248.003 1677,-232 1631.55,-227.811 1617.79,-235.894 1575,-220 1571.45,-218.681 1567.9,-216.954 1564.49,-215.023"/>
<polygon fill="black" stroke="black" points="1566.19,-211.956 1555.87,-209.577 1562.45,-217.875 1566.19,-211.956"/>
</a>
</g>
<!-- http://latin.omdoc.org/logics/syntax?BaseSFOL&#45;&gt;http://latin.omdoc.org/foundations/hol?SFOL&#45;Syn -->
<g id="edge63" class="edge"><title>http://latin.omdoc.org/logics/syntax?BaseSFOL&#45;&gt;http://latin.omdoc.org/foundations/hol?SFOL&#45;Syn</title>
<a xlink:href="http://latin.omdoc.org/translations/sfol_hol?BaseSFOL" class="graphview">
<path fill="none" stroke="black" d="M2206.98,-249.929C2215.05,-228.763 2231.1,-192.493 2254,-168 2259.73,-161.875 2265.93,-165.335 2270,-158 2273.45,-151.78 2274.73,-147.312 2270,-142 2254.33,-124.399 2112.76,-114.259 2029.82,-109.781"/>
<polygon fill="black" stroke="black" points="2029.93,-106.282 2019.76,-109.25 2029.56,-113.272 2029.93,-106.282"/>
</a>
<a xlink:href="http://latin.omdoc.org/translations/sfol_hol?BaseSFOL" class="BaseSFOL">
<text text-anchor="middle" x="2285.5" y="-190.3" font-family="Times New Roman,serif" font-size="14.00">BaseSFOL</text>
</a>
</g>
<!-- http://latin.omdoc.org/logics/syntax?BaseSFOL&#45;&gt;http://latin.omdoc.org/logics/model_theory?SFOLMOD -->
<g id="edge61" class="edge"><title>http://latin.omdoc.org/logics/syntax?BaseSFOL&#45;&gt;http://latin.omdoc.org/logics/model_theory?SFOLMOD</title>
<a xlink:href="http://latin.omdoc.org/logics/model_theory?BaseSFOL" class="graphview">
<path fill="none" stroke="black" d="M2241.49,-256.986C2266.12,-249.541 2297.28,-237.595 2321,-220 2344.64,-202.466 2336.61,-182.885 2362,-168 2386.46,-153.661 2406.59,-179.561 2425,-158 2431.6,-150.271 2428.83,-140.499 2423.17,-131.582"/>
<polygon fill="black" stroke="black" points="2425.85,-129.319 2417.07,-123.39 2420.24,-133.5 2425.85,-129.319"/>
</a>
<a xlink:href="http://latin.omdoc.org/logics/model_theory?BaseSFOL" class="BaseSFOL">
<text text-anchor="middle" x="2393.5" y="-190.3" font-family="Times New Roman,serif" font-size="14.00">BaseSFOL</text>
</a>
</g>
<!-- http://latin.omdoc.org/logics/syntax?BaseSFOL&#45;&gt;http://latin.omdoc.org/foundations/zfc?TypedZF -->
<g id="edge67" class="edge"><title>http://latin.omdoc.org/logics/syntax?BaseSFOL&#45;&gt;http://latin.omdoc.org/foundations/zfc?TypedZF</title>
<a xlink:href="http://latin.omdoc.org/foundations/minimal?BaseSFOL-ZF" class="graphview">
<path fill="none" stroke="black" d="M2251.78,-265.077C2330.47,-261.187 2477.18,-250.03 2519,-220 2569.83,-183.498 2607.73,-136.35 2568,-88 2524.52,-35.0804 2045.82,-22.5061 1880.65,-19.7331"/>
<polygon fill="black" stroke="black" points="1880.28,-16.2269 1870.23,-19.5643 1880.17,-23.226 1880.28,-16.2269"/>
</a>
<a xlink:href="http://latin.omdoc.org/foundations/minimal?BaseSFOL-ZF" class="BaseSFOL&#45;ZF">
<text text-anchor="middle" x="2626" y="-146.3" font-family="Times New Roman,serif" font-size="14.00">BaseSFOL&#45;ZF</text>
</a>
</g>
<!-- http://latin.omdoc.org/logics/syntax?BaseSFOL&#45;&gt;http://latin.omdoc.org/logics/syntax?FOL -->
<g id="edge65" class="edge"><title>http://latin.omdoc.org/logics/syntax?BaseSFOL&#45;&gt;http://latin.omdoc.org/logics/syntax?FOL</title>
<a xlink:href="http://latin.omdoc.org/translations/sfol_fol?BaseSFOL" class="graphview">
<path fill="none" stroke="black" d="M2149.75,-266.108C2026.52,-263.432 1721.52,-253.464 1691,-220 1667.27,-193.978 1682.56,-169.146 1705,-142 1709.61,-136.417 1715.23,-131.092 1720.86,-126.356"/>
<polygon fill="black" stroke="black" points="1723.36,-128.841 1729.01,-119.877 1719,-123.363 1723.36,-128.841"/>
</a>
<a xlink:href="http://latin.omdoc.org/translations/sfol_fol?BaseSFOL" class="BaseSFOL">
<text text-anchor="middle" x="1722.5" y="-190.3" font-family="Times New Roman,serif" font-size="14.00">BaseSFOL</text>
</a>
</g>
<!-- http://latin.omdoc.org/logics/syntax?BaseSFOL&#45;&gt;http://latin.omdoc.org/logics/syntax?SForall -->
<g id="edge69" class="edge"><title>http://latin.omdoc.org/logics/syntax?BaseSFOL&#45;&gt;http://latin.omdoc.org/logics/syntax?SForall</title>
<a class="graphinclude">
<path fill="none" stroke="black" d="M2174.01,-252.603C2152.5,-241.133 2122.29,-225.021 2099.29,-212.752"/>
<polygon fill="black" stroke="black" points="2100.7,-209.54 2090.23,-207.922 2097.41,-215.716 2100.7,-209.54"/>
</a>
</g>
<!-- http://latin.omdoc.org/logics/syntax?BaseSFOL&#45;&gt;http://latin.omdoc.org/logics/syntax?SExists -->
<g id="edge71" class="edge"><title>http://latin.omdoc.org/logics/syntax?BaseSFOL&#45;&gt;http://latin.omdoc.org/logics/syntax?SExists</title>
<a class="graphinclude">
<path fill="none" stroke="black" d="M2247.63,-260.434C2292.6,-253.303 2362.17,-240.159 2420,-220 2426.15,-217.858 2432.52,-215.193 2438.61,-212.408"/>
<polygon fill="black" stroke="black" points="2440.36,-215.454 2447.88,-207.992 2437.35,-209.134 2440.36,-215.454"/>
</a>
</g>
<!-- http://cds.omdoc.org/urtheories?LF -->
<g id="node37" class="node"><title>http://cds.omdoc.org/urtheories?LF</title>
<a xlink:href="http://cds.omdoc.org/urtheories?LF" class="graphtheory">
<ellipse fill="gray" stroke="black" cx="1755" cy="-342" rx="27" ry="18"/>
<text text-anchor="middle" x="1755" y="-338.3" font-family="Times New Roman,serif" font-size="14.00">LF</text>
</a>
</g>
<!-- http://cds.omdoc.org/urtheories?LF&#45;&gt;http://latin.omdoc.org/logics/syntax?SFOL -->
<g id="edge37" class="edge"><title>http://cds.omdoc.org/urtheories?LF&#45;&gt;http://latin.omdoc.org/logics/syntax?SFOL</title>
<a class="graphmeta">
<path fill="none" stroke="black" d="M1728.04,-340.15C1688.76,-337.485 1615.71,-326.93 1572,-286 1554.18,-269.311 1545.64,-242.397 1541.59,-222.159"/>
<polygon fill="black" stroke="black" points="1545.03,-221.517 1539.85,-212.274 1538.13,-222.729 1545.03,-221.517"/>
</a>
</g>
<!-- http://cds.omdoc.org/urtheories?LF&#45;&gt;http://latin.omdoc.org/foundations/hol?SFOL&#45;Syn -->
<g id="edge53" class="edge"><title>http://cds.omdoc.org/urtheories?LF&#45;&gt;http://latin.omdoc.org/foundations/hol?SFOL&#45;Syn</title>
<a class="graphmeta">
<path fill="none" stroke="black" d="M1763.02,-324.511C1773.96,-301.538 1793.58,-258.392 1806,-220 1816.95,-186.149 1798.81,-167.122 1824,-142 1849.5,-116.572 1867.99,-132.429 1903,-124 1908.68,-122.632 1914.62,-121.17 1920.52,-119.699"/>
<polygon fill="black" stroke="black" points="1921.51,-123.059 1930.36,-117.229 1919.81,-116.27 1921.51,-123.059"/>
</a>
</g>
<!-- http://cds.omdoc.org/urtheories?LF&#45;&gt;http://latin.omdoc.org/logics/model_theory?SFOLMOD -->
<g id="edge41" class="edge"><title>http://cds.omdoc.org/urtheories?LF&#45;&gt;http://latin.omdoc.org/logics/model_theory?SFOLMOD</title>
<a class="graphmeta">
<path fill="none" stroke="black" d="M1782.04,-341.523C1907.62,-343.286 2431.44,-343.114 2519,-220 2539.33,-191.418 2533.2,-165.318 2507,-142 2502.31,-137.823 2475.34,-129.013 2449.65,-121.278"/>
<polygon fill="black" stroke="black" points="2450.5,-117.879 2439.92,-118.378 2448.5,-124.588 2450.5,-117.879"/>
</a>
</g>
<!-- http://cds.omdoc.org/urtheories?LF&#45;&gt;http://latin.omdoc.org/foundations/zfc?TypedZF -->
<g id="edge47" class="edge"><title>http://cds.omdoc.org/urtheories?LF&#45;&gt;http://latin.omdoc.org/foundations/zfc?TypedZF</title>
<a class="graphmeta">
<path fill="none" stroke="black" d="M1727.79,-340.621C1505.75,-337.439 0,-314.194 0,-269 0,-269 0,-269 0,-105 0,-14.1413 1462.35,-17.0356 1769.01,-18.6415"/>
<polygon fill="black" stroke="black" points="1769.41,-22.1436 1779.43,-18.6979 1769.45,-15.1437 1769.41,-22.1436"/>
</a>
</g>
<!-- http://cds.omdoc.org/urtheories?LF&#45;&gt;http://latin.omdoc.org/logics/syntax?FOL -->
<g id="edge43" class="edge"><title>http://cds.omdoc.org/urtheories?LF&#45;&gt;http://latin.omdoc.org/logics/syntax?FOL</title>
<a class="graphmeta">
<path fill="none" stroke="black" d="M1741.33,-326.427C1722.33,-305.05 1688.81,-263.042 1676,-220 1665.96,-186.242 1665.71,-167.508 1690,-142 1697.48,-134.143 1707.1,-127.403 1716.35,-121.996"/>
<polygon fill="black" stroke="black" points="1718.3,-124.921 1725.38,-117.042 1714.93,-118.784 1718.3,-124.921"/>
</a>
</g>
<!-- http://cds.omdoc.org/urtheories?LF&#45;&gt;http://latin.omdoc.org/logics/syntax?SFOLEQ -->
<g id="edge59" class="edge"><title>http://cds.omdoc.org/urtheories?LF&#45;&gt;http://latin.omdoc.org/logics/syntax?SFOLEQ</title>
<a class="graphmeta">
<path fill="none" stroke="black" d="M1781.38,-337.743C1804.38,-333.715 1837.49,-324.906 1860,-306 1886.39,-283.838 1903.01,-246.994 1911.89,-221.883"/>
<polygon fill="black" stroke="black" points="1915.26,-222.836 1915.13,-212.242 1908.63,-220.607 1915.26,-222.836"/>
</a>
</g>
<!-- http://cds.omdoc.org/urtheories?LF&#45;&gt;http://latin.omdoc.org/translations/fol&#45;sfol?FOL&#45;SFOL&#45;Sig -->
<g id="edge55" class="edge"><title>http://cds.omdoc.org/urtheories?LF&#45;&gt;http://latin.omdoc.org/translations/fol&#45;sfol?FOL&#45;SFOL&#45;Sig</title>
<a class="graphmeta">
<path fill="none" stroke="black" d="M1728.15,-339.802C1530.78,-330.749 308.587,-270.351 194,-158 187.739,-151.861 185.249,-142.937 184.559,-134.264"/>
<polygon fill="black" stroke="black" points="188.057,-133.986 184.478,-124.014 181.057,-134.042 188.057,-133.986"/>
</a>
</g>
<!-- http://cds.omdoc.org/urtheories?LF&#45;&gt;http://latin.omdoc.org/logics/proof_theory?SIFOL -->
<g id="edge45" class="edge"><title>http://cds.omdoc.org/urtheories?LF&#45;&gt;http://latin.omdoc.org/logics/proof_theory?SIFOL</title>
<a class="graphmeta">
<path fill="none" stroke="black" d="M1727.64,-340.991C1598.67,-340.683 1038.54,-336.36 583,-286 413.926,-267.309 361.13,-289.786 206,-220 157.62,-198.236 111.452,-156.217 85.5151,-130.003"/>
<polygon fill="black" stroke="black" points="87.9259,-127.462 78.4431,-122.736 82.9096,-132.344 87.9259,-127.462"/>
</a>
</g>
<!-- http://cds.omdoc.org/urtheories?LF&#45;&gt;http://latin.omdoc.org/logics/syntax?PL -->
<g id="edge51" class="edge"><title>http://cds.omdoc.org/urtheories?LF&#45;&gt;http://latin.omdoc.org/logics/syntax?PL</title>
<a class="graphmeta">
<path fill="none" stroke="black" d="M1729.48,-335.349C1707.69,-329.853 1676,-320.233 1651,-306 1643.54,-301.751 1636.17,-296.105 1629.7,-290.506"/>
<polygon fill="black" stroke="black" points="1631.8,-287.683 1622.04,-283.547 1627.09,-292.863 1631.8,-287.683"/>
</a>
</g>
<!-- http://cds.omdoc.org/urtheories?LF&#45;&gt;http://latin.omdoc.org/logics/syntax?SForall -->
<g id="edge49" class="edge"><title>http://cds.omdoc.org/urtheories?LF&#45;&gt;http://latin.omdoc.org/logics/syntax?SForall</title>
<a class="graphmeta">
<path fill="none" stroke="black" d="M1780.44,-335.481C1805.16,-329.679 1843.49,-319.514 1875,-306 1935.44,-280.081 2000.6,-239.085 2037.05,-214.837"/>
<polygon fill="black" stroke="black" points="2039.32,-217.529 2045.67,-209.053 2035.42,-211.715 2039.32,-217.529"/>
</a>
</g>
<!-- http://cds.omdoc.org/urtheories?LF&#45;&gt;http://latin.omdoc.org/logics/syntax?SExists -->
<g id="edge39" class="edge"><title>http://cds.omdoc.org/urtheories?LF&#45;&gt;http://latin.omdoc.org/logics/syntax?SExists</title>
<a class="graphmeta">
<path fill="none" stroke="black" d="M1782.04,-340.541C1858.4,-338.717 2081.8,-329.741 2261,-286 2338.93,-266.977 2357.1,-255.577 2429,-220 2432.83,-218.104 2436.79,-216.007 2440.68,-213.857"/>
<polygon fill="black" stroke="black" points="2442.59,-216.799 2449.55,-208.815 2439.13,-210.714 2442.59,-216.799"/>
</a>
</g>
<!-- http://cds.omdoc.org/urtheories?LF&#45;&gt;http://latin.omdoc.org/logics/syntax?BaseSFOL -->
<g id="edge57" class="edge"><title>http://cds.omdoc.org/urtheories?LF&#45;&gt;http://latin.omdoc.org/logics/syntax?BaseSFOL</title>
<a class="graphmeta">
<path fill="none" stroke="black" d="M1781.65,-338.273C1830.34,-333.132 1936.91,-321.147 2026,-306 2067.94,-298.871 2115.1,-288.778 2149.89,-280.933"/>
<polygon fill="black" stroke="black" points="2150.83,-284.308 2159.81,-278.681 2149.28,-277.481 2150.83,-284.308"/>
</a>
</g>
</g>
</svg>
