<?xml version="1.0" encoding="UTF-8" standalone="no"?>
<!DOCTYPE svg PUBLIC "-//W3C//DTD SVG 1.1//EN"
 "http://www.w3.org/Graphics/SVG/1.1/DTD/svg11.dtd">
<!-- Generated by graphviz version 2.28.0 (20110507.0327)
 -->
<!-- Title: MMT Pages: 1 -->
<svg width="1056pt" height="368pt"
 viewBox="0.00 0.00 1055.83 368.00" xmlns="http://www.w3.org/2000/svg" xmlns:xlink="http://www.w3.org/1999/xlink">
<g id="graph1" class="graph" transform="scale(1 1) rotate(0) translate(4 364)">
<title>MMT</title>
<polygon fill="white" stroke="white" points="-4,5 -4,-364 1052.83,-364 1052.83,5 -4,5"/>
<g id="graph2" class="cluster"><title>cluster_local</title>
<polygon fill="none" stroke="black" points="258.827,-168 258.827,-220 366.827,-220 366.827,-168 258.827,-168"/>
</g>
<!-- http://latin.omdoc.org/logics/syntax?SFOLEQ -->
<g id="node2" class="node"><title>http://latin.omdoc.org/logics/syntax?SFOLEQ</title>
<a xlink:href="http://latin.omdoc.org/logics/syntax?SFOLEQ" class="graphtheory">
<ellipse fill="none" stroke="black" cx="312.827" cy="-194" rx="46.2191" ry="18"/>
<text text-anchor="middle" x="312.827" y="-190.3" font-family="Times New Roman,serif" font-size="14.00">SFOLEQ</text>
</a>
</g>
<!-- http://latin.omdoc.org/foundations/hol?SFOL&#45;Syn -->
<g id="node3" class="node"><title>http://latin.omdoc.org/foundations/hol?SFOL&#45;Syn</title>
<a xlink:href="http://latin.omdoc.org/foundations/hol?SFOL-Syn" class="graphtheory">
<ellipse fill="gray" stroke="black" cx="695.827" cy="-106" rx="50.5427" ry="18"/>
<text text-anchor="middle" x="695.827" y="-102.3" font-family="Times New Roman,serif" font-size="14.00">SFOL&#45;Syn</text>
</a>
</g>
<!-- http://latin.omdoc.org/logics/syntax?SFOLEQ&#45;&gt;http://latin.omdoc.org/foundations/hol?SFOL&#45;Syn -->
<g id="edge3" class="edge"><title>http://latin.omdoc.org/logics/syntax?SFOLEQ&#45;&gt;http://latin.omdoc.org/foundations/hol?SFOL&#45;Syn</title>
<a xlink:href="http://latin.omdoc.org/translations/sfol_hol?SFOLEQ" class="graphview">
<path fill="none" stroke="black" d="M336.694,-178.53C344.719,-174.365 353.905,-170.323 362.827,-168 409.757,-155.779 534.899,-173.569 580.827,-158 592.62,-154.002 592.815,-147.813 603.827,-142 618.332,-134.344 634.892,-127.509 649.928,-121.956"/>
<polygon fill="black" stroke="black" points="651.325,-125.173 659.551,-118.496 648.956,-118.585 651.325,-125.173"/>
</a>
<a xlink:href="http://latin.omdoc.org/translations/sfol_hol?SFOLEQ" class="SFOLEQ">
<text text-anchor="middle" x="631.327" y="-146.3" font-family="Times New Roman,serif" font-size="14.00">SFOLEQ</text>
</a>
</g>
<!-- http://latin.omdoc.org/logics/model_theory?SFOLMOD -->
<g id="node5" class="node"><title>http://latin.omdoc.org/logics/model_theory?SFOLMOD</title>
<a xlink:href="http://latin.omdoc.org/logics/model_theory?SFOLMOD" class="graphtheory">
<ellipse fill="gray" stroke="black" cx="842.827" cy="-106" rx="54.3924" ry="18"/>
<text text-anchor="middle" x="842.827" y="-102.3" font-family="Times New Roman,serif" font-size="14.00">SFOLMOD</text>
</a>
</g>
<!-- http://latin.omdoc.org/logics/syntax?SFOLEQ&#45;&gt;http://latin.omdoc.org/logics/model_theory?SFOLMOD -->
<g id="edge5" class="edge"><title>http://latin.omdoc.org/logics/syntax?SFOLEQ&#45;&gt;http://latin.omdoc.org/logics/model_theory?SFOLMOD</title>
<a xlink:href="http://latin.omdoc.org/logics/model_theory?SFOLEQ" class="graphview">
<path fill="none" stroke="black" d="M336.677,-178.464C344.701,-174.295 353.89,-170.267 362.827,-168 427.482,-151.595 597.337,-170.666 662.827,-158 683.257,-154.049 686.95,-148.156 706.827,-142 733.966,-133.595 764.578,-125.59 789.878,-119.362"/>
<polygon fill="black" stroke="black" points="790.765,-122.748 799.651,-116.979 789.107,-115.947 790.765,-122.748"/>
</a>
<a xlink:href="http://latin.omdoc.org/logics/model_theory?SFOLEQ" class="SFOLEQ">
<text text-anchor="middle" x="734.327" y="-146.3" font-family="Times New Roman,serif" font-size="14.00">SFOLEQ</text>
</a>
</g>
<!-- http://latin.omdoc.org/foundations/minimal?SExistsUnique&#45;ZF -->
<g id="node7" class="node"><title>http://latin.omdoc.org/foundations/minimal?SExistsUnique&#45;ZF</title>
<a xlink:href="http://latin.omdoc.org/foundations/minimal?SExistsUnique-ZF" class="graphtheory">
<ellipse fill="gray" stroke="black" cx="450.827" cy="-106" rx="77.0154" ry="18"/>
<text text-anchor="middle" x="450.827" y="-102.3" font-family="Times New Roman,serif" font-size="14.00">SExistsUnique&#45;ZF</text>
</a>
</g>
<!-- http://latin.omdoc.org/logics/syntax?SFOLEQ&#45;&gt;http://latin.omdoc.org/foundations/minimal?SExistsUnique&#45;ZF -->
<g id="edge7" class="edge"><title>http://latin.omdoc.org/logics/syntax?SFOLEQ&#45;&gt;http://latin.omdoc.org/foundations/minimal?SExistsUnique&#45;ZF</title>
<a xlink:href="http://latin.omdoc.org/foundations/minimal?SExistsUnique-ZF?[http://latin.omdoc.org/logics/syntax?SFOLEQ]" class="graphstructure">
<path fill="none" stroke="black" d="M308.27,-175.628C306.528,-164.838 306.457,-151.3 313.827,-142 318.594,-135.985 351.4,-127.494 383.711,-120.381"/>
<polygon fill="black" stroke="black" points="384.657,-123.758 393.691,-118.223 383.177,-116.916 384.657,-123.758"/>
</a>
<a xlink:href="http://latin.omdoc.org/foundations/minimal?SExistsUnique-ZF?[http://latin.omdoc.org/logics/syntax?SFOLEQ]" class="[http://latin.omdoc.org/logics/syntax?SFOLEQ]">
<text text-anchor="middle" x="447.327" y="-146.3" font-family="Times New Roman,serif" font-size="14.00">[http://latin.omdoc.org/logics/syntax?SFOLEQ]</text>
</a>
</g>
<!-- http://latin.omdoc.org/foundations/zfc?TypedZF -->
<g id="node9" class="node"><title>http://latin.omdoc.org/foundations/zfc?TypedZF</title>
<a xlink:href="http://latin.omdoc.org/foundations/zfc?TypedZF" class="graphtheory">
<ellipse fill="gray" stroke="black" cx="279.827" cy="-18" rx="45.244" ry="18"/>
<text text-anchor="middle" x="279.827" y="-14.3" font-family="Times New Roman,serif" font-size="14.00">TypedZF</text>
</a>
</g>
<!-- http://latin.omdoc.org/logics/syntax?SFOLEQ&#45;&gt;http://latin.omdoc.org/foundations/zfc?TypedZF -->
<g id="edge9" class="edge"><title>http://latin.omdoc.org/logics/syntax?SFOLEQ&#45;&gt;http://latin.omdoc.org/foundations/zfc?TypedZF</title>
<a xlink:href="http://latin.omdoc.org/foundations/minimal?SFOLEQ-ZF" class="graphview">
<path fill="none" stroke="black" d="M305.594,-176.042C300.052,-162.279 292.716,-142.234 288.827,-124 283.303,-98.0962 281.148,-67.9123 280.319,-46.5724"/>
<polygon fill="black" stroke="black" points="283.808,-46.1737 279.995,-36.2888 276.812,-46.3939 283.808,-46.1737"/>
</a>
<a xlink:href="http://latin.omdoc.org/foundations/minimal?SFOLEQ-ZF" class="SFOLEQ&#45;ZF">
<text text-anchor="middle" x="326.827" y="-102.3" font-family="Times New Roman,serif" font-size="14.00">SFOLEQ&#45;ZF</text>
</a>
</g>
<!-- http://latin.omdoc.org/logics/syntax?FOLEQ -->
<g id="node11" class="node"><title>http://latin.omdoc.org/logics/syntax?FOLEQ</title>
<a xlink:href="http://latin.omdoc.org/logics/syntax?FOLEQ" class="graphtheory">
<ellipse fill="gray" stroke="black" cx="203.827" cy="-106" rx="39.9464" ry="18"/>
<text text-anchor="middle" x="203.827" y="-102.3" font-family="Times New Roman,serif" font-size="14.00">FOLEQ</text>
</a>
</g>
<!-- http://latin.omdoc.org/logics/syntax?SFOLEQ&#45;&gt;http://latin.omdoc.org/logics/syntax?FOLEQ -->
<g id="edge11" class="edge"><title>http://latin.omdoc.org/logics/syntax?SFOLEQ&#45;&gt;http://latin.omdoc.org/logics/syntax?FOLEQ</title>
<a xlink:href="http://latin.omdoc.org/translations/sfol_fol?SFOLEQ" class="graphview">
<path fill="none" stroke="black" d="M287.713,-178.764C279.927,-174.814 271.191,-170.835 262.827,-168 240.538,-160.445 227.017,-175.081 210.827,-158 204.883,-151.728 202.43,-142.919 201.68,-134.384"/>
<polygon fill="black" stroke="black" points="205.177,-134.229 201.488,-124.297 198.179,-134.362 205.177,-134.229"/>
</a>
<a xlink:href="http://latin.omdoc.org/translations/sfol_fol?SFOLEQ" class="SFOLEQ">
<text text-anchor="middle" x="238.327" y="-146.3" font-family="Times New Roman,serif" font-size="14.00">SFOLEQ</text>
</a>
</g>
<!-- http://latin.omdoc.org/logics/syntax?SExistsUnique -->
<g id="node13" class="node"><title>http://latin.omdoc.org/logics/syntax?SExistsUnique</title>
<a xlink:href="http://latin.omdoc.org/logics/syntax?SExistsUnique" class="graphtheory">
<ellipse fill="gray" stroke="black" cx="81.8271" cy="-106" rx="63.5411" ry="18"/>
<text text-anchor="middle" x="81.8271" y="-102.3" font-family="Times New Roman,serif" font-size="14.00">SExistsUnique</text>
</a>
</g>
<!-- http://latin.omdoc.org/logics/syntax?SFOLEQ&#45;&gt;http://latin.omdoc.org/logics/syntax?SExistsUnique -->
<g id="edge13" class="edge"><title>http://latin.omdoc.org/logics/syntax?SFOLEQ&#45;&gt;http://latin.omdoc.org/logics/syntax?SExistsUnique</title>
<a class="graphinclude">
<path fill="none" stroke="black" d="M288.026,-178.725C280.177,-174.724 271.329,-170.728 262.827,-168 235.833,-159.337 227.052,-165.908 199.827,-158 172.448,-150.047 143.01,-137.332 120.385,-126.587"/>
<polygon fill="black" stroke="black" points="121.66,-123.316 111.132,-122.122 118.618,-129.62 121.66,-123.316"/>
</a>
</g>
<!-- http://latin.omdoc.org/logics/syntax?SExistsUnique&#45;&gt;http://latin.omdoc.org/foundations/zfc?TypedZF -->
<g id="edge49" class="edge"><title>http://latin.omdoc.org/logics/syntax?SExistsUnique&#45;&gt;http://latin.omdoc.org/foundations/zfc?TypedZF</title>
<a xlink:href="http://latin.omdoc.org/foundations/minimal?SExistsUnique-ZF" class="graphview">
<path fill="none" stroke="black" d="M103.601,-89.0011C119.405,-77.9709 141.644,-63.6201 162.827,-54 184.658,-44.0854 210.034,-36.1002 231.562,-30.2747"/>
<polygon fill="black" stroke="black" points="232.689,-33.5973 241.471,-27.6703 230.91,-26.8272 232.689,-33.5973"/>
</a>
<a xlink:href="http://latin.omdoc.org/foundations/minimal?SExistsUnique-ZF" class="SExistsUnique&#45;ZF">
<text text-anchor="middle" x="214.327" y="-58.3" font-family="Times New Roman,serif" font-size="14.00">SExistsUnique&#45;ZF</text>
</a>
</g>
<!-- http://latin.omdoc.org/logics/syntax?SEqual -->
<g id="node15" class="node"><title>http://latin.omdoc.org/logics/syntax?SEqual</title>
<a xlink:href="http://latin.omdoc.org/logics/syntax?SEqual" class="graphtheory">
<ellipse fill="gray" stroke="black" cx="554.827" cy="-268" rx="36.096" ry="18"/>
<text text-anchor="middle" x="554.827" y="-264.3" font-family="Times New Roman,serif" font-size="14.00">SEqual</text>
</a>
</g>
<!-- http://latin.omdoc.org/logics/syntax?SEqual&#45;&gt;http://latin.omdoc.org/logics/syntax?SFOLEQ -->
<g id="edge15" class="edge"><title>http://latin.omdoc.org/logics/syntax?SEqual&#45;&gt;http://latin.omdoc.org/logics/syntax?SFOLEQ</title>
<a class="graphinclude">
<path fill="none" stroke="black" d="M521.2,-261.135C482.332,-253.818 416.787,-239.811 362.827,-220 357.702,-218.119 352.416,-215.857 347.286,-213.473"/>
<polygon fill="black" stroke="black" points="348.814,-210.324 338.29,-209.106 345.757,-216.622 348.814,-210.324"/>
</a>
</g>
<!-- http://latin.omdoc.org/logics/syntax?SEqual&#45;&gt;http://latin.omdoc.org/foundations/hol?SFOL&#45;Syn -->
<g id="edge45" class="edge"><title>http://latin.omdoc.org/logics/syntax?SEqual&#45;&gt;http://latin.omdoc.org/foundations/hol?SFOL&#45;Syn</title>
<a xlink:href="http://latin.omdoc.org/translations/sfol_hol?SEqual" class="graphview">
<path fill="none" stroke="black" d="M570.673,-251.729C591.684,-231.187 629.523,-193.162 658.827,-158 665.584,-149.892 672.504,-140.652 678.503,-132.284"/>
<polygon fill="black" stroke="black" points="681.469,-134.151 684.377,-123.963 675.75,-130.114 681.469,-134.151"/>
</a>
<a xlink:href="http://latin.omdoc.org/translations/sfol_hol?SEqual" class="SEqual">
<text text-anchor="middle" x="670.827" y="-190.3" font-family="Times New Roman,serif" font-size="14.00">SEqual</text>
</a>
</g>
<!-- http://latin.omdoc.org/logics/syntax?SEqual&#45;&gt;http://latin.omdoc.org/logics/model_theory?SFOLMOD -->
<g id="edge47" class="edge"><title>http://latin.omdoc.org/logics/syntax?SEqual&#45;&gt;http://latin.omdoc.org/logics/model_theory?SFOLMOD</title>
<a xlink:href="http://latin.omdoc.org/logics/model_theory?SEqual" class="graphview">
<path fill="none" stroke="black" d="M586.899,-259.452C616.09,-251.846 659.839,-238.572 694.827,-220 741.867,-195.031 789.653,-155.404 817.745,-130.323"/>
<polygon fill="black" stroke="black" points="820.393,-132.649 825.469,-123.35 815.702,-127.453 820.393,-132.649"/>
</a>
<a xlink:href="http://latin.omdoc.org/logics/model_theory?SEqual" class="SEqual">
<text text-anchor="middle" x="792.827" y="-190.3" font-family="Times New Roman,serif" font-size="14.00">SEqual</text>
</a>
</g>
<!-- http://latin.omdoc.org/logics/syntax?SEqual&#45;&gt;http://latin.omdoc.org/foundations/zfc?TypedZF -->
<g id="edge43" class="edge"><title>http://latin.omdoc.org/logics/syntax?SEqual&#45;&gt;http://latin.omdoc.org/foundations/zfc?TypedZF</title>
<a xlink:href="http://latin.omdoc.org/foundations/minimal?SEqual-ZF" class="graphview">
<path fill="none" stroke="black" d="M518.747,-265.562C458.219,-262.608 332.649,-254.16 228.827,-232 211.92,-228.391 207.761,-226.706 191.827,-220 107.174,-184.371 56.3499,-202.595 8.82711,-124 -40.6831,-42.1182 131.874,-23.93 224.66,-20.0025"/>
<polygon fill="black" stroke="black" points="224.883,-23.4966 234.742,-19.6183 224.616,-16.5017 224.883,-23.4966"/>
</a>
<a xlink:href="http://latin.omdoc.org/foundations/minimal?SEqual-ZF" class="SEqual&#45;ZF">
<text text-anchor="middle" x="65.3271" y="-146.3" font-family="Times New Roman,serif" font-size="14.00">SEqual&#45;ZF</text>
</a>
</g>
<!-- http://latin.omdoc.org/logics/syntax?SEqual&#45;&gt;http://latin.omdoc.org/logics/syntax?FOLEQ -->
<g id="edge41" class="edge"><title>http://latin.omdoc.org/logics/syntax?SEqual&#45;&gt;http://latin.omdoc.org/logics/syntax?FOLEQ</title>
<a xlink:href="http://latin.omdoc.org/translations/sfol_fol?SEqual" class="graphview">
<path fill="none" stroke="black" d="M518.6,-266.967C440.311,-266.13 258.851,-259.827 214.827,-220 191.574,-198.964 192.973,-160.436 197.365,-134.28"/>
<polygon fill="black" stroke="black" points="200.842,-134.732 199.294,-124.251 193.968,-133.41 200.842,-134.732"/>
</a>
<a xlink:href="http://latin.omdoc.org/translations/sfol_fol?SEqual" class="SEqual">
<text text-anchor="middle" x="234.827" y="-190.3" font-family="Times New Roman,serif" font-size="14.00">SEqual</text>
</a>
</g>
<!-- http://latin.omdoc.org/logics/syntax?SFOL -->
<g id="node17" class="node"><title>http://latin.omdoc.org/logics/syntax?SFOL</title>
<a xlink:href="http://latin.omdoc.org/logics/syntax?SFOL" class="graphtheory">
<ellipse fill="gray" stroke="black" cx="851.827" cy="-268" rx="33.1991" ry="18"/>
<text text-anchor="middle" x="851.827" y="-264.3" font-family="Times New Roman,serif" font-size="14.00">SFOL</text>
</a>
</g>
<!-- http://latin.omdoc.org/logics/syntax?SFOL&#45;&gt;http://latin.omdoc.org/logics/syntax?SFOLEQ -->
<g id="edge17" class="edge"><title>http://latin.omdoc.org/logics/syntax?SFOL&#45;&gt;http://latin.omdoc.org/logics/syntax?SFOLEQ</title>
<a class="graphinclude">
<path fill="none" stroke="black" d="M818.767,-264.529C716.014,-256.749 406.477,-232.539 362.827,-220 357.347,-218.426 351.749,-216.257 346.375,-213.85"/>
<polygon fill="black" stroke="black" points="347.548,-210.53 337.02,-209.337 344.506,-216.835 347.548,-210.53"/>
</a>
</g>
<!-- http://latin.omdoc.org/logics/syntax?SFOL&#45;&gt;http://latin.omdoc.org/foundations/hol?SFOL&#45;Syn -->
<g id="edge35" class="edge"><title>http://latin.omdoc.org/logics/syntax?SFOL&#45;&gt;http://latin.omdoc.org/foundations/hol?SFOL&#45;Syn</title>
<a xlink:href="http://latin.omdoc.org/translations/sfol_hol?SFOL" class="graphview">
<path fill="none" stroke="black" d="M845.783,-250.118C842.667,-241.206 838.89,-230.06 835.827,-220 825.37,-185.656 839.919,-167.677 814.827,-142 805.31,-132.261 776.153,-123.602 749.085,-117.334"/>
<polygon fill="black" stroke="black" points="749.77,-113.9 739.247,-115.135 748.243,-120.732 749.77,-113.9"/>
</a>
<a xlink:href="http://latin.omdoc.org/translations/sfol_hol?SFOL" class="SFOL">
<text text-anchor="middle" x="853.827" y="-190.3" font-family="Times New Roman,serif" font-size="14.00">SFOL</text>
</a>
</g>
<!-- http://latin.omdoc.org/logics/syntax?SFOL&#45;&gt;http://latin.omdoc.org/logics/model_theory?SFOLMOD -->
<g id="edge37" class="edge"><title>http://latin.omdoc.org/logics/syntax?SFOL&#45;&gt;http://latin.omdoc.org/logics/model_theory?SFOLMOD</title>
<a xlink:href="http://latin.omdoc.org/logics/model_theory?SFOL" class="graphview">
<path fill="none" stroke="black" d="M862.522,-250.782C867.64,-242.051 873.213,-230.868 875.827,-220 881.232,-197.53 881.499,-190.404 875.827,-168 872.673,-155.542 866.413,-142.868 860.184,-132.324"/>
<polygon fill="black" stroke="black" points="863.052,-130.308 854.798,-123.666 857.109,-134.006 863.052,-130.308"/>
</a>
<a xlink:href="http://latin.omdoc.org/logics/model_theory?SFOL" class="SFOL">
<text text-anchor="middle" x="898.827" y="-190.3" font-family="Times New Roman,serif" font-size="14.00">SFOL</text>
</a>
</g>
<!-- http://latin.omdoc.org/logics/syntax?SFOL&#45;&gt;http://latin.omdoc.org/foundations/zfc?TypedZF -->
<g id="edge39" class="edge"><title>http://latin.omdoc.org/logics/syntax?SFOL&#45;&gt;http://latin.omdoc.org/foundations/zfc?TypedZF</title>
<a xlink:href="http://latin.omdoc.org/foundations/minimal?SFOL-ZF" class="graphview">
<path fill="none" stroke="black" d="M874.547,-254.648C892.625,-244.288 915.712,-229.674 920.827,-220 948.428,-167.804 949.125,-128.144 905.827,-88 864.279,-49.4787 479.628,-28.1025 334.711,-21.3608"/>
<polygon fill="black" stroke="black" points="334.85,-17.8636 324.7,-20.9007 334.528,-24.8562 334.85,-17.8636"/>
</a>
<a xlink:href="http://latin.omdoc.org/foundations/minimal?SFOL-ZF" class="SFOL&#45;ZF">
<text text-anchor="middle" x="969.327" y="-146.3" font-family="Times New Roman,serif" font-size="14.00">SFOL&#45;ZF</text>
</a>
</g>
<!-- http://cds.omdoc.org/urtheories?LF -->
<g id="node19" class="node"><title>http://cds.omdoc.org/urtheories?LF</title>
<a xlink:href="http://cds.omdoc.org/urtheories?LF" class="graphtheory">
<ellipse fill="gray" stroke="black" cx="716.827" cy="-342" rx="27" ry="18"/>
<text text-anchor="middle" x="716.827" y="-338.3" font-family="Times New Roman,serif" font-size="14.00">LF</text>
</a>
</g>
<!-- http://cds.omdoc.org/urtheories?LF&#45;&gt;http://latin.omdoc.org/logics/syntax?SFOLEQ -->
<g id="edge19" class="edge"><title>http://cds.omdoc.org/urtheories?LF&#45;&gt;http://latin.omdoc.org/logics/syntax?SFOLEQ</title>
<a class="graphmeta">
<path fill="none" stroke="black" d="M691.251,-335.612C651.753,-326.978 573.785,-308.685 509.827,-286 442.331,-262.059 427.536,-250.687 362.827,-220 358.232,-217.821 353.422,-215.486 348.679,-213.151"/>
<polygon fill="black" stroke="black" points="350.227,-210.011 339.713,-208.7 347.114,-216.281 350.227,-210.011"/>
</a>
</g>
<!-- http://cds.omdoc.org/urtheories?LF&#45;&gt;http://latin.omdoc.org/foundations/hol?SFOL&#45;Syn -->
<g id="edge31" class="edge"><title>http://cds.omdoc.org/urtheories?LF&#45;&gt;http://latin.omdoc.org/foundations/hol?SFOL&#45;Syn</title>
<a class="graphmeta">
<path fill="none" stroke="black" d="M727.557,-325.059C741.881,-302.72 766.524,-260.307 775.827,-220 781.025,-197.481 780.046,-190.723 775.827,-168 773.567,-155.827 774.149,-151.166 765.827,-142 758.909,-134.38 749.956,-128.205 740.778,-123.287"/>
<polygon fill="black" stroke="black" points="742.112,-120.043 731.592,-118.781 739.029,-126.327 742.112,-120.043"/>
</a>
</g>
<!-- http://cds.omdoc.org/urtheories?LF&#45;&gt;http://latin.omdoc.org/logics/model_theory?SFOLMOD -->
<g id="edge21" class="edge"><title>http://cds.omdoc.org/urtheories?LF&#45;&gt;http://latin.omdoc.org/logics/model_theory?SFOLMOD</title>
<a class="graphmeta">
<path fill="none" stroke="black" d="M743.709,-339.629C781.747,-336.302 851.365,-324.918 893.827,-286 933.488,-249.649 944.4,-216.361 920.827,-168 912.39,-150.69 896.402,-136.85 881.087,-126.756"/>
<polygon fill="black" stroke="black" points="882.553,-123.547 872.21,-121.249 878.862,-129.495 882.553,-123.547"/>
</a>
</g>
<!-- http://cds.omdoc.org/urtheories?LF&#45;&gt;http://latin.omdoc.org/foundations/zfc?TypedZF -->
<g id="edge25" class="edge"><title>http://cds.omdoc.org/urtheories?LF&#45;&gt;http://latin.omdoc.org/foundations/zfc?TypedZF</title>
<a class="graphmeta">
<path fill="none" stroke="black" d="M743.914,-340.859C822.967,-339.724 1047.83,-331.044 1047.83,-269 1047.83,-269 1047.83,-269 1047.83,-105 1047.83,-33.2251 511.219,-21.3528 335.091,-19.3891"/>
<polygon fill="black" stroke="black" points="335.038,-15.8885 325.002,-19.2832 334.964,-22.8881 335.038,-15.8885"/>
</a>
</g>
<!-- http://cds.omdoc.org/urtheories?LF&#45;&gt;http://latin.omdoc.org/logics/syntax?FOLEQ -->
<g id="edge33" class="edge"><title>http://cds.omdoc.org/urtheories?LF&#45;&gt;http://latin.omdoc.org/logics/syntax?FOLEQ</title>
<a class="graphmeta">
<path fill="none" stroke="black" d="M689.95,-339.203C591.509,-331.999 253.199,-301.559 191.827,-220 173.165,-195.2 181.972,-158.205 191.535,-133.37"/>
<polygon fill="black" stroke="black" points="194.88,-134.44 195.46,-123.861 188.409,-131.769 194.88,-134.44"/>
</a>
</g>
<!-- http://cds.omdoc.org/urtheories?LF&#45;&gt;http://latin.omdoc.org/logics/syntax?SExistsUnique -->
<g id="edge23" class="edge"><title>http://cds.omdoc.org/urtheories?LF&#45;&gt;http://latin.omdoc.org/logics/syntax?SExistsUnique</title>
<a class="graphmeta">
<path fill="none" stroke="black" d="M689.676,-340.626C598.975,-338.968 307.641,-330.24 226.827,-286 162.198,-250.62 115.494,-173.459 94.3876,-132.976"/>
<polygon fill="black" stroke="black" points="97.4664,-131.309 89.8087,-123.987 91.229,-134.486 97.4664,-131.309"/>
</a>
</g>
<!-- http://cds.omdoc.org/urtheories?LF&#45;&gt;http://latin.omdoc.org/logics/syntax?SEqual -->
<g id="edge29" class="edge"><title>http://cds.omdoc.org/urtheories?LF&#45;&gt;http://latin.omdoc.org/logics/syntax?SEqual</title>
<a class="graphmeta">
<path fill="none" stroke="black" d="M694.979,-331.29C668.133,-319.358 622.226,-298.955 590.297,-284.764"/>
<polygon fill="black" stroke="black" points="591.433,-281.439 580.873,-280.576 588.59,-287.836 591.433,-281.439"/>
</a>
</g>
<!-- http://cds.omdoc.org/urtheories?LF&#45;&gt;http://latin.omdoc.org/logics/syntax?SFOL -->
<g id="edge27" class="edge"><title>http://cds.omdoc.org/urtheories?LF&#45;&gt;http://latin.omdoc.org/logics/syntax?SFOL</title>
<a class="graphmeta">
<path fill="none" stroke="black" d="M740.903,-333.319C758.84,-327.126 783.618,-317.56 803.827,-306 811.704,-301.494 819.722,-295.824 826.892,-290.287"/>
<polygon fill="black" stroke="black" points="829.229,-292.899 834.859,-283.924 824.861,-287.429 829.229,-292.899"/>
</a>
</g>
</g>
</svg>
