<?xml version="1.0" encoding="UTF-8" standalone="no"?>
<!DOCTYPE svg PUBLIC "-//W3C//DTD SVG 1.1//EN"
 "http://www.w3.org/Graphics/SVG/1.1/DTD/svg11.dtd">
<!-- Generated by graphviz version 2.28.0 (20110507.0327)
 -->
<!-- Title: MMT Pages: 1 -->
<svg width="366pt" height="204pt"
 viewBox="0.00 0.00 365.87 204.00" xmlns="http://www.w3.org/2000/svg" xmlns:xlink="http://www.w3.org/1999/xlink">
<g id="graph1" class="graph" transform="scale(1 1) rotate(0) translate(4 200)">
<title>MMT</title>
<polygon fill="white" stroke="white" points="-4,5 -4,-200 362.865,-200 362.865,5 -4,5"/>
<g id="graph2" class="cluster"><title>cluster_local</title>
<polygon fill="none" stroke="black" points="104.865,-8 104.865,-60 196.865,-60 196.865,-8 104.865,-8"/>
</g>
<!-- http://latin.omdoc.org/logics/syntax?SHOIN -->
<g id="node2" class="node"><title>http://latin.omdoc.org/logics/syntax?SHOIN</title>
<a xlink:href="http://latin.omdoc.org/logics/syntax?SHOIN" class="graphtheory">
<ellipse fill="none" stroke="black" cx="150.865" cy="-34" rx="38.0212" ry="18"/>
<text text-anchor="middle" x="150.865" y="-30.3" font-family="Times New Roman,serif" font-size="14.00">SHOIN</text>
</a>
</g>
<!-- http://latin.omdoc.org/logics/syntax?O -->
<g id="node3" class="node"><title>http://latin.omdoc.org/logics/syntax?O</title>
<a xlink:href="http://latin.omdoc.org/logics/syntax?O" class="graphtheory">
<ellipse fill="gray" stroke="black" cx="42.8652" cy="-106" rx="27" ry="18"/>
<text text-anchor="middle" x="42.8652" y="-102.3" font-family="Times New Roman,serif" font-size="14.00">O</text>
</a>
</g>
<!-- http://latin.omdoc.org/logics/syntax?O&#45;&gt;http://latin.omdoc.org/logics/syntax?SHOIN -->
<g id="edge3" class="edge"><title>http://latin.omdoc.org/logics/syntax?O&#45;&gt;http://latin.omdoc.org/logics/syntax?SHOIN</title>
<a class="graphinclude">
<path fill="none" stroke="black" d="M61.6774,-92.8069C77.9552,-82.2565 101.789,-66.8089 120.724,-54.5362"/>
<polygon fill="black" stroke="black" points="122.814,-57.3524 129.302,-48.9763 119.007,-51.4783 122.814,-57.3524"/>
</a>
</g>
<!-- http://latin.omdoc.org/logics/syntax?S -->
<g id="node5" class="node"><title>http://latin.omdoc.org/logics/syntax?S</title>
<a xlink:href="http://latin.omdoc.org/logics/syntax?S" class="graphtheory">
<ellipse fill="gray" stroke="black" cx="114.865" cy="-106" rx="27" ry="18"/>
<text text-anchor="middle" x="114.865" y="-102.3" font-family="Times New Roman,serif" font-size="14.00">S</text>
</a>
</g>
<!-- http://latin.omdoc.org/logics/syntax?S&#45;&gt;http://latin.omdoc.org/logics/syntax?SHOIN -->
<g id="edge5" class="edge"><title>http://latin.omdoc.org/logics/syntax?S&#45;&gt;http://latin.omdoc.org/logics/syntax?SHOIN</title>
<a class="graphinclude">
<path fill="none" stroke="black" d="M123.215,-88.7646C127.514,-80.4043 132.857,-70.0159 137.696,-60.6059"/>
<polygon fill="black" stroke="black" points="140.85,-62.127 142.311,-51.6334 134.625,-58.9256 140.85,-62.127"/>
</a>
</g>
<!-- http://latin.omdoc.org/logics/syntax?H -->
<g id="node7" class="node"><title>http://latin.omdoc.org/logics/syntax?H</title>
<a xlink:href="http://latin.omdoc.org/logics/syntax?H" class="graphtheory">
<ellipse fill="gray" stroke="black" cx="186.865" cy="-106" rx="27" ry="18"/>
<text text-anchor="middle" x="186.865" y="-102.3" font-family="Times New Roman,serif" font-size="14.00">H</text>
</a>
</g>
<!-- http://latin.omdoc.org/logics/syntax?H&#45;&gt;http://latin.omdoc.org/logics/syntax?SHOIN -->
<g id="edge7" class="edge"><title>http://latin.omdoc.org/logics/syntax?H&#45;&gt;http://latin.omdoc.org/logics/syntax?SHOIN</title>
<a class="graphinclude">
<path fill="none" stroke="black" d="M178.516,-88.7646C174.216,-80.4043 168.873,-70.0159 164.034,-60.6059"/>
<polygon fill="black" stroke="black" points="167.106,-58.9256 159.42,-51.6334 160.881,-62.127 167.106,-58.9256"/>
</a>
</g>
<!-- http://latin.omdoc.org/logics/syntax?N -->
<g id="node9" class="node"><title>http://latin.omdoc.org/logics/syntax?N</title>
<a xlink:href="http://latin.omdoc.org/logics/syntax?N" class="graphtheory">
<ellipse fill="gray" stroke="black" cx="258.865" cy="-106" rx="27" ry="18"/>
<text text-anchor="middle" x="258.865" y="-102.3" font-family="Times New Roman,serif" font-size="14.00">N</text>
</a>
</g>
<!-- http://latin.omdoc.org/logics/syntax?N&#45;&gt;http://latin.omdoc.org/logics/syntax?SHOIN -->
<g id="edge9" class="edge"><title>http://latin.omdoc.org/logics/syntax?N&#45;&gt;http://latin.omdoc.org/logics/syntax?SHOIN</title>
<a class="graphinclude">
<path fill="none" stroke="black" d="M240.053,-92.8069C223.775,-82.2565 199.942,-66.8089 181.007,-54.5362"/>
<polygon fill="black" stroke="black" points="182.724,-51.4783 172.429,-48.9763 178.917,-57.3524 182.724,-51.4783"/>
</a>
</g>
<!-- http://latin.omdoc.org/logics/syntax?I -->
<g id="node11" class="node"><title>http://latin.omdoc.org/logics/syntax?I</title>
<a xlink:href="http://latin.omdoc.org/logics/syntax?I" class="graphtheory">
<ellipse fill="gray" stroke="black" cx="330.865" cy="-106" rx="27" ry="18"/>
<text text-anchor="middle" x="330.865" y="-102.3" font-family="Times New Roman,serif" font-size="14.00">I</text>
</a>
</g>
<!-- http://latin.omdoc.org/logics/syntax?I&#45;&gt;http://latin.omdoc.org/logics/syntax?SHOIN -->
<g id="edge11" class="edge"><title>http://latin.omdoc.org/logics/syntax?I&#45;&gt;http://latin.omdoc.org/logics/syntax?SHOIN</title>
<a class="graphinclude">
<path fill="none" stroke="black" d="M309.685,-94.6171C304.851,-92.354 299.71,-90.0307 294.865,-88 260.141,-73.4447 219.867,-58.8063 190.755,-48.6133"/>
<polygon fill="black" stroke="black" points="191.545,-45.1825 180.95,-45.2006 189.244,-51.7935 191.545,-45.1825"/>
</a>
</g>
<!-- http://cds.omdoc.org/urtheories?LF -->
<g id="node13" class="node"><title>http://cds.omdoc.org/urtheories?LF</title>
<a xlink:href="http://cds.omdoc.org/urtheories?LF" class="graphtheory">
<ellipse fill="gray" stroke="black" cx="150.865" cy="-178" rx="27" ry="18"/>
<text text-anchor="middle" x="150.865" y="-174.3" font-family="Times New Roman,serif" font-size="14.00">LF</text>
</a>
</g>
<!-- http://cds.omdoc.org/urtheories?LF&#45;&gt;http://latin.omdoc.org/logics/syntax?SHOIN -->
<g id="edge13" class="edge"><title>http://cds.omdoc.org/urtheories?LF&#45;&gt;http://latin.omdoc.org/logics/syntax?SHOIN</title>
<a class="graphmeta">
<path fill="none" stroke="black" d="M123.877,-175.846C90.0507,-172.777 33.3074,-161.909 6.8652,-124 -2.2884,-110.877 -2.2884,-101.123 6.8652,-88 28.4805,-57.0115 70.3438,-44.0918 103.385,-38.7314"/>
<polygon fill="black" stroke="black" points="103.926,-42.1898 113.324,-37.2989 102.927,-35.2614 103.926,-42.1898"/>
</a>
</g>
<!-- http://cds.omdoc.org/urtheories?LF&#45;&gt;http://latin.omdoc.org/logics/syntax?O -->
<g id="edge19" class="edge"><title>http://cds.omdoc.org/urtheories?LF&#45;&gt;http://latin.omdoc.org/logics/syntax?O</title>
<a class="graphmeta">
<path fill="none" stroke="black" d="M132.053,-164.807C114.863,-153.665 89.2468,-137.062 69.8719,-124.504"/>
<polygon fill="black" stroke="black" points="71.757,-121.555 61.4618,-119.053 67.9497,-127.429 71.757,-121.555"/>
</a>
</g>
<!-- http://cds.omdoc.org/urtheories?LF&#45;&gt;http://latin.omdoc.org/logics/syntax?S -->
<g id="edge23" class="edge"><title>http://cds.omdoc.org/urtheories?LF&#45;&gt;http://latin.omdoc.org/logics/syntax?S</title>
<a class="graphmeta">
<path fill="none" stroke="black" d="M142.516,-160.765C138.154,-152.283 132.718,-141.714 127.824,-132.197"/>
<polygon fill="black" stroke="black" points="130.856,-130.439 123.17,-123.147 124.631,-133.641 130.856,-130.439"/>
</a>
</g>
<!-- http://cds.omdoc.org/urtheories?LF&#45;&gt;http://latin.omdoc.org/logics/syntax?H -->
<g id="edge17" class="edge"><title>http://cds.omdoc.org/urtheories?LF&#45;&gt;http://latin.omdoc.org/logics/syntax?H</title>
<a class="graphmeta">
<path fill="none" stroke="black" d="M159.215,-160.765C163.577,-152.283 169.012,-141.714 173.907,-132.197"/>
<polygon fill="black" stroke="black" points="177.1,-133.641 178.561,-123.147 170.875,-130.439 177.1,-133.641"/>
</a>
</g>
<!-- http://cds.omdoc.org/urtheories?LF&#45;&gt;http://latin.omdoc.org/logics/syntax?N -->
<g id="edge15" class="edge"><title>http://cds.omdoc.org/urtheories?LF&#45;&gt;http://latin.omdoc.org/logics/syntax?N</title>
<a class="graphmeta">
<path fill="none" stroke="black" d="M169.677,-164.807C186.867,-153.665 212.484,-137.062 231.858,-124.504"/>
<polygon fill="black" stroke="black" points="233.781,-127.429 240.269,-119.053 229.973,-121.555 233.781,-127.429"/>
</a>
</g>
<!-- http://cds.omdoc.org/urtheories?LF&#45;&gt;http://latin.omdoc.org/logics/syntax?I -->
<g id="edge21" class="edge"><title>http://cds.omdoc.org/urtheories?LF&#45;&gt;http://latin.omdoc.org/logics/syntax?I</title>
<a class="graphmeta">
<path fill="none" stroke="black" d="M174.559,-169.002C203.302,-159.135 253.099,-141.507 294.865,-124 296.682,-123.238 298.54,-122.436 300.409,-121.611"/>
<polygon fill="black" stroke="black" points="302.037,-124.715 309.685,-117.383 299.134,-118.345 302.037,-124.715"/>
</a>
</g>
</g>
</svg>
