<?xml version="1.0" encoding="UTF-8" standalone="no"?>
<!DOCTYPE svg PUBLIC "-//W3C//DTD SVG 1.1//EN"
 "http://www.w3.org/Graphics/SVG/1.1/DTD/svg11.dtd">
<!-- Generated by graphviz version 2.28.0 (20110507.0327)
 -->
<!-- Title: MMT Pages: 1 -->
<svg
 viewBox="0.00 0.00 568.87 368.00" xmlns="http://www.w3.org/2000/svg" xmlns:xlink="http://www.w3.org/1999/xlink">
<g id="graph1" class="graph" transform="scale(1 1) rotate(0) translate(4 364)">
<title>MMT</title>
<polygon fill="white" stroke="white" points="-4,5 -4,-364 565.873,-364 565.873,5 -4,5"/>
<g id="graph2" class="cluster"><title>cluster_local</title>
<polygon fill="none" stroke="black" points="313.873,-168 313.873,-220 413.873,-220 413.873,-168 313.873,-168"/>
</g>
<!-- http://latin.omdoc.org/logics/syntax?SInequal -->
<g id="node2" class="node"><title>http://latin.omdoc.org/logics/syntax?SInequal</title>
<a xlink:href="http://latin.omdoc.org/logics/syntax?SInequal" class="graphtheory">
<ellipse fill="none" stroke="black" cx="363.873" cy="-194" rx="42.3701" ry="18"/>
<text text-anchor="middle" x="363.873" y="-190.3" font-family="Times New Roman,serif" font-size="14.00">SInequal</text>
</a>
</g>
<!-- http://latin.omdoc.org/foundations/minimal?SInequalPF&#45;ZF -->
<g id="node3" class="node"><title>http://latin.omdoc.org/foundations/minimal?SInequalPF&#45;ZF</title>
<a xlink:href="http://latin.omdoc.org/foundations/minimal?SInequalPF-ZF" class="graphtheory">
<ellipse fill="gray" stroke="black" cx="91.8735" cy="-106" rx="66.4165" ry="18"/>
<text text-anchor="middle" x="91.8735" y="-102.3" font-family="Times New Roman,serif" font-size="14.00">SInequalPF&#45;ZF</text>
</a>
</g>
<!-- http://latin.omdoc.org/logics/syntax?SInequal&#45;&gt;http://latin.omdoc.org/foundations/minimal?SInequalPF&#45;ZF -->
<g id="edge3" class="edge"><title>http://latin.omdoc.org/logics/syntax?SInequal&#45;&gt;http://latin.omdoc.org/foundations/minimal?SInequalPF&#45;ZF</title>
<a xlink:href="http://latin.omdoc.org/foundations/minimal?SInequalPF-ZF?[http://latin.omdoc.org/logics/syntax?SInequal]" class="graphstructure">
<path fill="none" stroke="black" d="M322.329,-190.735C248.84,-186.3 102.18,-175.362 86.8735,-158 81.1225,-151.477 80.4924,-142.499 81.9109,-133.893"/>
<polygon fill="black" stroke="black" points="85.3221,-134.678 84.3332,-124.13 78.5281,-132.993 85.3221,-134.678"/>
</a>
<a xlink:href="http://latin.omdoc.org/foundations/minimal?SInequalPF-ZF?[http://latin.omdoc.org/logics/syntax?SInequal]" class="[http://latin.omdoc.org/logics/syntax?SInequal]">
<text text-anchor="middle" x="217.873" y="-146.3" font-family="Times New Roman,serif" font-size="14.00">[http://latin.omdoc.org/logics/syntax?SInequal]</text>
</a>
</g>
<!-- http://latin.omdoc.org/foundations/zfc?TypedZF -->
<g id="node5" class="node"><title>http://latin.omdoc.org/foundations/zfc?TypedZF</title>
<a xlink:href="http://latin.omdoc.org/foundations/zfc?TypedZF" class="graphtheory">
<ellipse fill="gray" stroke="black" cx="393.873" cy="-18" rx="45.244" ry="18"/>
<text text-anchor="middle" x="393.873" y="-14.3" font-family="Times New Roman,serif" font-size="14.00">TypedZF</text>
</a>
</g>
<!-- http://latin.omdoc.org/logics/syntax?SInequal&#45;&gt;http://latin.omdoc.org/foundations/zfc?TypedZF -->
<g id="edge5" class="edge"><title>http://latin.omdoc.org/logics/syntax?SInequal&#45;&gt;http://latin.omdoc.org/foundations/zfc?TypedZF</title>
<a xlink:href="http://latin.omdoc.org/foundations/minimal?SInequal-ZF" class="graphview">
<path fill="none" stroke="black" d="M363.404,-175.72C363.168,-154.759 363.831,-118.446 369.873,-88 372.737,-73.57 377.933,-58.051 382.759,-45.3922"/>
<polygon fill="black" stroke="black" points="386.079,-46.5152 386.5,-35.9287 379.569,-43.9423 386.079,-46.5152"/>
</a>
<a xlink:href="http://latin.omdoc.org/foundations/minimal?SInequal-ZF" class="SInequal&#45;ZF">
<text text-anchor="middle" x="404.873" y="-102.3" font-family="Times New Roman,serif" font-size="14.00">SInequal&#45;ZF</text>
</a>
</g>
<!-- http://latin.omdoc.org/logics/proof_theory?SInequal -->
<g id="node7" class="node"><title>http://latin.omdoc.org/logics/proof_theory?SInequal</title>
<a xlink:href="http://latin.omdoc.org/logics/proof_theory?SInequal" class="graphtheory">
<ellipse fill="gray" stroke="black" cx="490.873" cy="-106" rx="42.3701" ry="18"/>
<text text-anchor="middle" x="490.873" y="-102.3" font-family="Times New Roman,serif" font-size="14.00">SInequal</text>
</a>
</g>
<!-- http://latin.omdoc.org/logics/syntax?SInequal&#45;&gt;http://latin.omdoc.org/logics/proof_theory?SInequal -->
<g id="edge7" class="edge"><title>http://latin.omdoc.org/logics/syntax?SInequal&#45;&gt;http://latin.omdoc.org/logics/proof_theory?SInequal</title>
<a class="graphinclude">
<path fill="none" stroke="black" d="M385.417,-178.411C406.125,-164.388 437.609,-143.069 460.787,-127.373"/>
<polygon fill="black" stroke="black" points="462.906,-130.165 469.224,-121.66 458.981,-124.369 462.906,-130.165"/>
</a>
</g>
<!-- http://latin.omdoc.org/logics/proof_theory?SInequal&#45;&gt;http://latin.omdoc.org/foundations/zfc?TypedZF -->
<g id="edge25" class="edge"><title>http://latin.omdoc.org/logics/proof_theory?SInequal&#45;&gt;http://latin.omdoc.org/foundations/zfc?TypedZF</title>
<a xlink:href="http://latin.omdoc.org/foundations/minimal?SInequalPF-ZF" class="graphview">
<path fill="none" stroke="black" d="M473.082,-89.2263C458.041,-75.8912 436.307,-56.6216 419.409,-41.6394"/>
<polygon fill="black" stroke="black" points="421.357,-38.6889 411.552,-34.6737 416.713,-43.9267 421.357,-38.6889"/>
</a>
<a xlink:href="http://latin.omdoc.org/foundations/minimal?SInequalPF-ZF" class="SInequalPF&#45;ZF">
<text text-anchor="middle" x="495.373" y="-58.3" font-family="Times New Roman,serif" font-size="14.00">SInequalPF&#45;ZF</text>
</a>
</g>
<!-- http://latin.omdoc.org/logics/syntax?SEqual -->
<g id="node9" class="node"><title>http://latin.omdoc.org/logics/syntax?SEqual</title>
<a xlink:href="http://latin.omdoc.org/logics/syntax?SEqual" class="graphtheory">
<ellipse fill="gray" stroke="black" cx="305.873" cy="-268" rx="36.096" ry="18"/>
<text text-anchor="middle" x="305.873" y="-264.3" font-family="Times New Roman,serif" font-size="14.00">SEqual</text>
</a>
</g>
<!-- http://latin.omdoc.org/logics/syntax?SEqual&#45;&gt;http://latin.omdoc.org/logics/syntax?SInequal -->
<g id="edge9" class="edge"><title>http://latin.omdoc.org/logics/syntax?SEqual&#45;&gt;http://latin.omdoc.org/logics/syntax?SInequal</title>
<a class="graphinclude">
<path fill="none" stroke="black" d="M318.746,-251.021C326.277,-241.671 335.936,-229.68 344.385,-219.193"/>
<polygon fill="black" stroke="black" points="347.289,-221.167 350.837,-211.183 341.838,-216.775 347.289,-221.167"/>
</a>
</g>
<!-- http://latin.omdoc.org/logics/syntax?SEqual&#45;&gt;http://latin.omdoc.org/foundations/zfc?TypedZF -->
<g id="edge23" class="edge"><title>http://latin.omdoc.org/logics/syntax?SEqual&#45;&gt;http://latin.omdoc.org/foundations/zfc?TypedZF</title>
<a xlink:href="http://latin.omdoc.org/foundations/minimal?SEqual-ZF" class="graphview">
<path fill="none" stroke="black" d="M272.459,-260.784C180.666,-242.319 -63.4206,-183.079 15.8735,-88 56.3349,-39.4841 243.831,-24.9881 338.65,-20.7293"/>
<polygon fill="black" stroke="black" points="339.068,-24.2148 348.91,-20.2923 338.77,-17.2211 339.068,-24.2148"/>
</a>
<a xlink:href="http://latin.omdoc.org/foundations/minimal?SEqual-ZF" class="SEqual&#45;ZF">
<text text-anchor="middle" x="44.3735" y="-146.3" font-family="Times New Roman,serif" font-size="14.00">SEqual&#45;ZF</text>
</a>
</g>
<!-- http://latin.omdoc.org/logics/syntax?NEG -->
<g id="node11" class="node"><title>http://latin.omdoc.org/logics/syntax?NEG</title>
<a xlink:href="http://latin.omdoc.org/logics/syntax?NEG" class="graphtheory">
<ellipse fill="gray" stroke="black" cx="389.873" cy="-268" rx="29.3722" ry="18"/>
<text text-anchor="middle" x="389.873" y="-264.3" font-family="Times New Roman,serif" font-size="14.00">NEG</text>
</a>
</g>
<!-- http://latin.omdoc.org/logics/syntax?NEG&#45;&gt;http://latin.omdoc.org/logics/syntax?SInequal -->
<g id="edge11" class="edge"><title>http://latin.omdoc.org/logics/syntax?NEG&#45;&gt;http://latin.omdoc.org/logics/syntax?SInequal</title>
<a class="graphinclude">
<path fill="none" stroke="black" d="M383.843,-250.301C380.77,-241.791 376.96,-231.239 373.494,-221.64"/>
<polygon fill="black" stroke="black" points="376.74,-220.325 370.052,-212.109 370.156,-222.703 376.74,-220.325"/>
</a>
</g>
<!-- http://cds.omdoc.org/urtheories?LF -->
<g id="node13" class="node"><title>http://cds.omdoc.org/urtheories?LF</title>
<a xlink:href="http://cds.omdoc.org/urtheories?LF" class="graphtheory">
<ellipse fill="gray" stroke="black" cx="446.873" cy="-342" rx="27" ry="18"/>
<text text-anchor="middle" x="446.873" y="-338.3" font-family="Times New Roman,serif" font-size="14.00">LF</text>
</a>
</g>
<!-- http://cds.omdoc.org/urtheories?LF&#45;&gt;http://latin.omdoc.org/logics/syntax?SInequal -->
<g id="edge13" class="edge"><title>http://cds.omdoc.org/urtheories?LF&#45;&gt;http://latin.omdoc.org/logics/syntax?SInequal</title>
<a class="graphmeta">
<path fill="none" stroke="black" d="M446.53,-323.721C445.44,-304.484 441.495,-273.07 427.873,-250 419.824,-236.367 407.167,-224.444 395.226,-215.216"/>
<polygon fill="black" stroke="black" points="397.268,-212.373 387.139,-209.269 393.122,-218.013 397.268,-212.373"/>
</a>
</g>
<!-- http://cds.omdoc.org/urtheories?LF&#45;&gt;http://latin.omdoc.org/foundations/zfc?TypedZF -->
<g id="edge15" class="edge"><title>http://cds.omdoc.org/urtheories?LF&#45;&gt;http://latin.omdoc.org/foundations/zfc?TypedZF</title>
<a class="graphmeta">
<path fill="none" stroke="black" d="M472.742,-336.499C506.377,-328.991 560.873,-310.433 560.873,-269 560.873,-269 560.873,-269 560.873,-105 560.873,-80.963 560.767,-70.0494 542.873,-54 528.68,-41.2693 483.577,-31.8131 446.679,-25.9607"/>
<polygon fill="black" stroke="black" points="446.936,-22.4594 436.521,-24.4058 445.877,-29.3788 446.936,-22.4594"/>
</a>
</g>
<!-- http://cds.omdoc.org/urtheories?LF&#45;&gt;http://latin.omdoc.org/logics/proof_theory?SInequal -->
<g id="edge19" class="edge"><title>http://cds.omdoc.org/urtheories?LF&#45;&gt;http://latin.omdoc.org/logics/proof_theory?SInequal</title>
<a class="graphmeta">
<path fill="none" stroke="black" d="M453.2,-324.44C455.231,-318.668 457.347,-312.107 458.873,-306 473.994,-245.489 483.572,-172.77 487.995,-134.178"/>
<polygon fill="black" stroke="black" points="491.474,-134.563 489.106,-124.236 484.517,-133.785 491.474,-134.563"/>
</a>
</g>
<!-- http://cds.omdoc.org/urtheories?LF&#45;&gt;http://latin.omdoc.org/logics/syntax?SEqual -->
<g id="edge17" class="edge"><title>http://cds.omdoc.org/urtheories?LF&#45;&gt;http://latin.omdoc.org/logics/syntax?SEqual</title>
<a class="graphmeta">
<path fill="none" stroke="black" d="M426.068,-330.376C403.318,-318.759 366.52,-299.968 339.626,-286.235"/>
<polygon fill="black" stroke="black" points="341.063,-283.039 330.565,-281.608 337.879,-289.273 341.063,-283.039"/>
</a>
</g>
<!-- http://cds.omdoc.org/urtheories?LF&#45;&gt;http://latin.omdoc.org/logics/syntax?NEG -->
<g id="edge21" class="edge"><title>http://cds.omdoc.org/urtheories?LF&#45;&gt;http://latin.omdoc.org/logics/syntax?NEG</title>
<a class="graphmeta">
<path fill="none" stroke="black" d="M434.785,-325.731C427.181,-316.125 417.213,-303.534 408.599,-292.654"/>
<polygon fill="black" stroke="black" points="411.29,-290.413 402.338,-284.745 405.801,-294.758 411.29,-290.413"/>
</a>
</g>
</g>
</svg>
