<?xml version="1.0" encoding="UTF-8" standalone="no"?>
<!DOCTYPE svg PUBLIC "-//W3C//DTD SVG 1.1//EN"
 "http://www.w3.org/Graphics/SVG/1.1/DTD/svg11.dtd">
<!-- Generated by graphviz version 2.28.0 (20110507.0327)
 -->
<!-- Title: MMT Pages: 1 -->
<svg width="207pt" height="280pt"
 viewBox="0.00 0.00 207.00 280.00" xmlns="http://www.w3.org/2000/svg" xmlns:xlink="http://www.w3.org/1999/xlink">
<g id="graph1" class="graph" transform="scale(1 1) rotate(0) translate(4 276)">
<title>MMT</title>
<polygon fill="white" stroke="white" points="-4,5 -4,-276 204,-276 204,5 -4,5"/>
<g id="graph2" class="cluster"><title>cluster_local</title>
<polygon fill="none" stroke="black" points="96,-80 96,-132 166,-132 166,-80 96,-80"/>
</g>
<!-- http://latin.omdoc.org/logics/syntax?U -->
<g id="node2" class="node"><title>http://latin.omdoc.org/logics/syntax?U</title>
<a xlink:href="http://latin.omdoc.org/logics/syntax?U" class="graphtheory">
<ellipse fill="none" stroke="black" cx="131" cy="-106" rx="27" ry="18"/>
<text text-anchor="middle" x="131" y="-102.3" font-family="Times New Roman,serif" font-size="14.00">U</text>
</a>
</g>
<!-- http://latin.omdoc.org/logics/syntax?FOLEQ -->
<g id="node3" class="node"><title>http://latin.omdoc.org/logics/syntax?FOLEQ</title>
<a xlink:href="http://latin.omdoc.org/logics/syntax?FOLEQ" class="graphtheory">
<ellipse fill="gray" stroke="black" cx="40" cy="-18" rx="39.9464" ry="18"/>
<text text-anchor="middle" x="40" y="-14.3" font-family="Times New Roman,serif" font-size="14.00">FOLEQ</text>
</a>
</g>
<!-- http://latin.omdoc.org/logics/syntax?U&#45;&gt;http://latin.omdoc.org/logics/syntax?FOLEQ -->
<g id="edge3" class="edge"><title>http://latin.omdoc.org/logics/syntax?U&#45;&gt;http://latin.omdoc.org/logics/syntax?FOLEQ</title>
<a xlink:href="http://latin.omdoc.org/logics/model_theory?U" class="graphview">
<path fill="none" stroke="black" d="M115.973,-90.7988C101.917,-77.5152 80.6806,-57.4454 64.2303,-41.8989"/>
<polygon fill="black" stroke="black" points="66.2636,-39.0048 56.5916,-34.68 61.4555,-44.0924 66.2636,-39.0048"/>
</a>
<a xlink:href="http://latin.omdoc.org/logics/model_theory?U" class="U">
<text text-anchor="middle" x="99" y="-58.3" font-family="Times New Roman,serif" font-size="14.00">U</text>
</a>
</g>
<!-- http://latin.omdoc.org/logics/proof_theory?U -->
<g id="node5" class="node"><title>http://latin.omdoc.org/logics/proof_theory?U</title>
<a xlink:href="http://latin.omdoc.org/logics/proof_theory?U" class="graphtheory">
<ellipse fill="gray" stroke="black" cx="172" cy="-18" rx="27" ry="18"/>
<text text-anchor="middle" x="172" y="-14.3" font-family="Times New Roman,serif" font-size="14.00">U</text>
</a>
</g>
<!-- http://latin.omdoc.org/logics/syntax?U&#45;&gt;http://latin.omdoc.org/logics/proof_theory?U -->
<g id="edge5" class="edge"><title>http://latin.omdoc.org/logics/syntax?U&#45;&gt;http://latin.omdoc.org/logics/proof_theory?U</title>
<a class="graphinclude">
<path fill="none" stroke="black" d="M138.905,-88.4183C144.804,-76.0451 152.975,-58.9069 159.721,-44.7555"/>
<polygon fill="black" stroke="black" points="162.975,-46.0636 164.119,-35.5308 156.656,-43.0512 162.975,-46.0636"/>
</a>
</g>
<!-- http://latin.omdoc.org/logics/syntax?DLBase -->
<g id="node7" class="node"><title>http://latin.omdoc.org/logics/syntax?DLBase</title>
<a xlink:href="http://latin.omdoc.org/logics/syntax?DLBase" class="graphtheory">
<ellipse fill="gray" stroke="black" cx="63" cy="-180" rx="39.9464" ry="18"/>
<text text-anchor="middle" x="63" y="-176.3" font-family="Times New Roman,serif" font-size="14.00">DLBase</text>
</a>
</g>
<!-- http://latin.omdoc.org/logics/syntax?DLBase&#45;&gt;http://latin.omdoc.org/logics/syntax?U -->
<g id="edge7" class="edge"><title>http://latin.omdoc.org/logics/syntax?DLBase&#45;&gt;http://latin.omdoc.org/logics/syntax?U</title>
<a class="graphinclude">
<path fill="none" stroke="black" d="M78.0914,-163.021C87.4111,-153.153 99.5101,-140.342 109.785,-129.462"/>
<polygon fill="black" stroke="black" points="112.558,-131.625 116.879,-121.951 107.469,-126.818 112.558,-131.625"/>
</a>
</g>
<!-- http://latin.omdoc.org/logics/syntax?DLBase&#45;&gt;http://latin.omdoc.org/logics/syntax?FOLEQ -->
<g id="edge17" class="edge"><title>http://latin.omdoc.org/logics/syntax?DLBase&#45;&gt;http://latin.omdoc.org/logics/syntax?FOLEQ</title>
<a xlink:href="http://latin.omdoc.org/logics/model_theory?DLBase" class="graphview">
<path fill="none" stroke="black" d="M55.4561,-161.94C51.9339,-153.17 48.0692,-142.205 46,-132 40.1357,-103.079 39.0876,-69.1924 39.2227,-46.1251"/>
<polygon fill="black" stroke="black" points="42.7234,-46.0896 39.3615,-36.0423 35.7241,-45.9931 42.7234,-46.0896"/>
</a>
<a xlink:href="http://latin.omdoc.org/logics/model_theory?DLBase" class="DLBase">
<text text-anchor="middle" x="69" y="-102.3" font-family="Times New Roman,serif" font-size="14.00">DLBase</text>
</a>
</g>
<!-- http://cds.omdoc.org/urtheories?LF -->
<g id="node9" class="node"><title>http://cds.omdoc.org/urtheories?LF</title>
<a xlink:href="http://cds.omdoc.org/urtheories?LF" class="graphtheory">
<ellipse fill="gray" stroke="black" cx="107" cy="-254" rx="27" ry="18"/>
<text text-anchor="middle" x="107" y="-250.3" font-family="Times New Roman,serif" font-size="14.00">LF</text>
</a>
</g>
<!-- http://cds.omdoc.org/urtheories?LF&#45;&gt;http://latin.omdoc.org/logics/syntax?U -->
<g id="edge9" class="edge"><title>http://cds.omdoc.org/urtheories?LF&#45;&gt;http://latin.omdoc.org/logics/syntax?U</title>
<a class="graphmeta">
<path fill="none" stroke="black" d="M109.8,-235.966C113.919,-210.911 121.651,-163.872 126.552,-134.057"/>
<polygon fill="black" stroke="black" points="130.049,-134.361 128.218,-123.925 123.142,-133.225 130.049,-134.361"/>
</a>
</g>
<!-- http://cds.omdoc.org/urtheories?LF&#45;&gt;http://latin.omdoc.org/logics/syntax?FOLEQ -->
<g id="edge13" class="edge"><title>http://cds.omdoc.org/urtheories?LF&#45;&gt;http://latin.omdoc.org/logics/syntax?FOLEQ</title>
<a class="graphmeta">
<path fill="none" stroke="black" d="M82.5788,-246.163C60.2641,-238.472 28.5913,-223.581 14,-198 -13.7321,-149.381 9.75741,-81.6896 26.5854,-45.0541"/>
<polygon fill="black" stroke="black" points="29.9558,-46.1183 31.107,-35.5862 23.6391,-43.1016 29.9558,-46.1183"/>
</a>
</g>
<!-- http://cds.omdoc.org/urtheories?LF&#45;&gt;http://latin.omdoc.org/logics/proof_theory?U -->
<g id="edge15" class="edge"><title>http://cds.omdoc.org/urtheories?LF&#45;&gt;http://latin.omdoc.org/logics/proof_theory?U</title>
<a class="graphmeta">
<path fill="none" stroke="black" d="M118.13,-237.536C133.303,-215.419 159.762,-172.895 170,-132 177.158,-103.409 176.604,-69.4657 174.924,-46.2945"/>
<polygon fill="black" stroke="black" points="178.398,-45.8298 174.068,-36.1602 171.423,-46.4195 178.398,-45.8298"/>
</a>
</g>
<!-- http://cds.omdoc.org/urtheories?LF&#45;&gt;http://latin.omdoc.org/logics/syntax?DLBase -->
<g id="edge11" class="edge"><title>http://cds.omdoc.org/urtheories?LF&#45;&gt;http://latin.omdoc.org/logics/syntax?DLBase</title>
<a class="graphmeta">
<path fill="none" stroke="black" d="M97.235,-237.021C91.6737,-227.921 84.5831,-216.318 78.2989,-206.035"/>
<polygon fill="black" stroke="black" points="81.2438,-204.141 73.0428,-197.434 75.2708,-207.792 81.2438,-204.141"/>
</a>
</g>
</g>
</svg>
