<?xml version="1.0" encoding="UTF-8" standalone="no"?>
<!DOCTYPE svg PUBLIC "-//W3C//DTD SVG 1.1//EN"
 "http://www.w3.org/Graphics/SVG/1.1/DTD/svg11.dtd">
<!-- Generated by graphviz version 2.28.0 (20110507.0327)
 -->
<!-- Title: MMT Pages: 1 -->
<svg width="374pt" height="296pt"
 viewBox="0.00 0.00 374.49 296.00" xmlns="http://www.w3.org/2000/svg" xmlns:xlink="http://www.w3.org/1999/xlink">
<g id="graph1" class="graph" transform="scale(1 1) rotate(0) translate(4 292)">
<title>MMT</title>
<polygon fill="white" stroke="white" points="-4,5 -4,-292 371.487,-292 371.487,5 -4,5"/>
<g id="graph2" class="cluster"><title>cluster_local</title>
<polygon fill="none" stroke="black" points="111.487,-8 111.487,-60 207.487,-60 207.487,-8 111.487,-8"/>
</g>
<!-- http://latin.omdoc.org/translations/stt_prop?CH&#45;IPL -->
<g id="node2" class="node"><title>http://latin.omdoc.org/translations/stt_prop?CH&#45;IPL</title>
<a xlink:href="http://latin.omdoc.org/translations/stt_prop?CH-IPL" class="graphtheory">
<ellipse fill="none" stroke="black" cx="159.487" cy="-34" rx="39.9464" ry="18"/>
<text text-anchor="middle" x="159.487" y="-30.3" font-family="Times New Roman,serif" font-size="14.00">CH&#45;IPL</text>
</a>
</g>
<!-- http://latin.omdoc.org/type_theories?TypesTerms -->
<g id="node3" class="node"><title>http://latin.omdoc.org/type_theories?TypesTerms</title>
<a xlink:href="http://latin.omdoc.org/type_theories?TypesTerms" class="graphtheory">
<ellipse fill="gray" stroke="black" cx="159.487" cy="-196" rx="57.2927" ry="18"/>
<text text-anchor="middle" x="159.487" y="-192.3" font-family="Times New Roman,serif" font-size="14.00">TypesTerms</text>
</a>
</g>
<!-- http://latin.omdoc.org/type_theories?TypesTerms&#45;&gt;http://latin.omdoc.org/translations/stt_prop?CH&#45;IPL -->
<g id="edge3" class="edge"><title>http://latin.omdoc.org/type_theories?TypesTerms&#45;&gt;http://latin.omdoc.org/translations/stt_prop?CH&#45;IPL</title>
<a xlink:href="http://latin.omdoc.org/translations/stt_prop?TypesTerms" class="graphview">
<path fill="none" stroke="black" d="M159.487,-177.877C159.487,-150.354 159.487,-96.0083 159.487,-62.8486"/>
<polygon fill="black" stroke="black" points="162.987,-62.4847 159.487,-52.4847 155.987,-62.4848 162.987,-62.4847"/>
</a>
<a xlink:href="http://latin.omdoc.org/translations/stt_prop?TypesTerms" class="TypesTerms">
<text text-anchor="middle" x="195.487" y="-118.3" font-family="Times New Roman,serif" font-size="14.00">TypesTerms</text>
</a>
</g>
<!-- http://latin.omdoc.org/type_theories?SimpTypes -->
<g id="node5" class="node"><title>http://latin.omdoc.org/type_theories?SimpTypes</title>
<a xlink:href="http://latin.omdoc.org/type_theories?SimpTypes" class="graphtheory">
<ellipse fill="gray" stroke="black" cx="70.4865" cy="-122" rx="52.4675" ry="18"/>
<text text-anchor="middle" x="70.4865" y="-118.3" font-family="Times New Roman,serif" font-size="14.00">SimpTypes</text>
</a>
</g>
<!-- http://latin.omdoc.org/type_theories?TypesTerms&#45;&gt;http://latin.omdoc.org/type_theories?SimpTypes -->
<g id="edge21" class="edge"><title>http://latin.omdoc.org/type_theories?TypesTerms&#45;&gt;http://latin.omdoc.org/type_theories?SimpTypes</title>
<a class="graphinclude">
<path fill="none" stroke="black" d="M139.735,-179.021C127.521,-169.14 111.66,-156.309 98.1997,-145.42"/>
<polygon fill="black" stroke="black" points="100.159,-142.503 90.1833,-138.934 95.7565,-147.945 100.159,-142.503"/>
</a>
</g>
<!-- http://latin.omdoc.org/type_theories?Product -->
<g id="node7" class="node"><title>http://latin.omdoc.org/type_theories?Product</title>
<a xlink:href="http://latin.omdoc.org/type_theories?Product" class="graphtheory">
<ellipse fill="gray" stroke="black" cx="289.487" cy="-122" rx="39.9464" ry="18"/>
<text text-anchor="middle" x="289.487" y="-118.3" font-family="Times New Roman,serif" font-size="14.00">Product</text>
</a>
</g>
<!-- http://latin.omdoc.org/type_theories?TypesTerms&#45;&gt;http://latin.omdoc.org/type_theories?Product -->
<g id="edge23" class="edge"><title>http://latin.omdoc.org/type_theories?TypesTerms&#45;&gt;http://latin.omdoc.org/type_theories?Product</title>
<a class="graphinclude">
<path fill="none" stroke="black" d="M186.423,-180.082C206.726,-168.837 234.679,-153.355 256.352,-141.351"/>
<polygon fill="black" stroke="black" points="258.163,-144.349 265.216,-136.442 254.772,-138.226 258.163,-144.349"/>
</a>
</g>
<!-- http://latin.omdoc.org/type_theories?SimpTypes&#45;&gt;http://latin.omdoc.org/translations/stt_prop?CH&#45;IPL -->
<g id="edge5" class="edge"><title>http://latin.omdoc.org/type_theories?SimpTypes&#45;&gt;http://latin.omdoc.org/translations/stt_prop?CH&#45;IPL</title>
<a xlink:href="http://latin.omdoc.org/translations/stt_prop?SimpTypes" class="graphview">
<path fill="none" stroke="black" d="M69.996,-103.73C70.5573,-92.9795 72.9436,-79.4491 80.4865,-70 89.1375,-59.1629 101.841,-51.5886 114.543,-46.3338"/>
<polygon fill="black" stroke="black" points="116.032,-49.5143 124.188,-42.752 113.595,-42.9522 116.032,-49.5143"/>
</a>
<a xlink:href="http://latin.omdoc.org/translations/stt_prop?SimpTypes" class="SimpTypes">
<text text-anchor="middle" x="112.987" y="-74.3" font-family="Times New Roman,serif" font-size="14.00">SimpTypes</text>
</a>
</g>
<!-- http://latin.omdoc.org/type_theories?Product&#45;&gt;http://latin.omdoc.org/translations/stt_prop?CH&#45;IPL -->
<g id="edge7" class="edge"><title>http://latin.omdoc.org/type_theories?Product&#45;&gt;http://latin.omdoc.org/translations/stt_prop?CH&#45;IPL</title>
<a xlink:href="http://latin.omdoc.org/translations/stt_prop?Product" class="graphview">
<path fill="none" stroke="black" d="M267.727,-106.606C246.355,-92.4668 213.567,-70.7766 189.678,-54.9727"/>
<polygon fill="black" stroke="black" points="191.588,-52.0398 181.317,-49.4414 187.726,-57.8779 191.588,-52.0398"/>
</a>
<a xlink:href="http://latin.omdoc.org/translations/stt_prop?Product" class="Product">
<text text-anchor="middle" x="259.487" y="-74.3" font-family="Times New Roman,serif" font-size="14.00">Product</text>
</a>
</g>
<!-- http://latin.omdoc.org/logics/proof_theory?IPL -->
<g id="node9" class="node"><title>http://latin.omdoc.org/logics/proof_theory?IPL</title>
<a xlink:href="http://latin.omdoc.org/logics/proof_theory?IPL" class="graphtheory">
<ellipse fill="gray" stroke="black" cx="339.487" cy="-196" rx="27" ry="18"/>
<text text-anchor="middle" x="339.487" y="-192.3" font-family="Times New Roman,serif" font-size="14.00">IPL</text>
</a>
</g>
<!-- http://latin.omdoc.org/logics/proof_theory?IPL&#45;&gt;http://latin.omdoc.org/translations/stt_prop?CH&#45;IPL -->
<g id="edge9" class="edge"><title>http://latin.omdoc.org/logics/proof_theory?IPL&#45;&gt;http://latin.omdoc.org/translations/stt_prop?CH&#45;IPL</title>
<a class="graphinclude">
<path fill="none" stroke="black" d="M343.806,-178.041C347.729,-158.813 351.168,-127.138 338.487,-104 313.665,-58.71 253.236,-42.9704 209.444,-37.5993"/>
<polygon fill="black" stroke="black" points="209.578,-34.0934 199.26,-36.4975 208.826,-41.0528 209.578,-34.0934"/>
</a>
</g>
<!-- http://cds.omdoc.org/urtheories?LF -->
<g id="node11" class="node"><title>http://cds.omdoc.org/urtheories?LF</title>
<a xlink:href="http://cds.omdoc.org/urtheories?LF" class="graphtheory">
<ellipse fill="gray" stroke="black" cx="159.487" cy="-270" rx="27" ry="18"/>
<text text-anchor="middle" x="159.487" y="-266.3" font-family="Times New Roman,serif" font-size="14.00">LF</text>
</a>
</g>
<!-- http://cds.omdoc.org/urtheories?LF&#45;&gt;http://latin.omdoc.org/translations/stt_prop?CH&#45;IPL -->
<g id="edge11" class="edge"><title>http://cds.omdoc.org/urtheories?LF&#45;&gt;http://latin.omdoc.org/translations/stt_prop?CH&#45;IPL</title>
<a class="graphmeta">
<path fill="none" stroke="black" d="M137.24,-259.276C86.3206,-235.579 -31.3429,-171.799 8.4865,-104 29.747,-67.81 75.6812,-50.4656 111.338,-42.237"/>
<polygon fill="black" stroke="black" points="112.513,-45.5653 121.564,-40.0573 111.054,-38.7191 112.513,-45.5653"/>
</a>
</g>
<!-- http://cds.omdoc.org/urtheories?LF&#45;&gt;http://latin.omdoc.org/type_theories?TypesTerms -->
<g id="edge13" class="edge"><title>http://cds.omdoc.org/urtheories?LF&#45;&gt;http://latin.omdoc.org/type_theories?TypesTerms</title>
<a class="graphmeta">
<path fill="none" stroke="black" d="M159.487,-251.937C159.487,-243.807 159.487,-233.876 159.487,-224.705"/>
<polygon fill="black" stroke="black" points="162.987,-224.441 159.487,-214.441 155.987,-224.441 162.987,-224.441"/>
</a>
</g>
<!-- http://cds.omdoc.org/urtheories?LF&#45;&gt;http://latin.omdoc.org/type_theories?SimpTypes -->
<g id="edge17" class="edge"><title>http://cds.omdoc.org/urtheories?LF&#45;&gt;http://latin.omdoc.org/type_theories?SimpTypes</title>
<a class="graphmeta">
<path fill="none" stroke="black" d="M139.827,-257.47C124.923,-247.727 105.087,-232.429 93.4865,-214 81.3112,-194.658 75.5732,-169.195 72.8734,-150.124"/>
<polygon fill="black" stroke="black" points="76.3232,-149.5 71.6367,-139.998 69.3748,-150.348 76.3232,-149.5"/>
</a>
</g>
<!-- http://cds.omdoc.org/urtheories?LF&#45;&gt;http://latin.omdoc.org/type_theories?Product -->
<g id="edge15" class="edge"><title>http://cds.omdoc.org/urtheories?LF&#45;&gt;http://latin.omdoc.org/type_theories?Product</title>
<a class="graphmeta">
<path fill="none" stroke="black" d="M177.113,-256.348C191.073,-245.866 210.63,-230.125 225.487,-214 244.269,-193.614 262.106,-167.486 274.155,-148.46"/>
<polygon fill="black" stroke="black" points="277.266,-150.086 279.584,-139.747 271.325,-146.384 277.266,-150.086"/>
</a>
</g>
<!-- http://cds.omdoc.org/urtheories?LF&#45;&gt;http://latin.omdoc.org/logics/proof_theory?IPL -->
<g id="edge19" class="edge"><title>http://cds.omdoc.org/urtheories?LF&#45;&gt;http://latin.omdoc.org/logics/proof_theory?IPL</title>
<a class="graphmeta">
<path fill="none" stroke="black" d="M185.242,-263.745C210.25,-258.139 248.95,-248.115 280.487,-234 291.724,-228.97 303.356,-222.088 313.292,-215.622"/>
<polygon fill="black" stroke="black" points="315.521,-218.342 321.879,-209.867 311.624,-212.527 315.521,-218.342"/>
</a>
</g>
</g>
</svg>
