<?xml version="1.0" encoding="UTF-8" standalone="no"?>
<!DOCTYPE svg PUBLIC "-//W3C//DTD SVG 1.1//EN"
 "http://www.w3.org/Graphics/SVG/1.1/DTD/svg11.dtd">
<!-- Generated by graphviz version 2.28.0 (20110507.0327)
 -->
<!-- Title: MMT Pages: 1 -->
<svg
 viewBox="0.00 0.00 1578.00 384.00" xmlns="http://www.w3.org/2000/svg" xmlns:xlink="http://www.w3.org/1999/xlink">
<g id="graph1" class="graph" transform="scale(1 1) rotate(0) translate(4 380)">
<title>MMT</title>
<polygon fill="white" stroke="white" points="-4,5 -4,-380 1575,-380 1575,5 -4,5"/>
<g id="graph2" class="cluster"><title>cluster_local</title>
<polygon fill="none" stroke="black" points="326,-8 326,-148 422,-148 422,-8 326,-8"/>
</g>
<!-- http://latin.omdoc.org/type_theories?Product -->
<g id="node2" class="node"><title>http://latin.omdoc.org/type_theories?Product</title>
<a xlink:href="http://latin.omdoc.org/type_theories?Product" class="graphtheory">
<ellipse fill="none" stroke="black" cx="374" cy="-122" rx="39.9464" ry="18"/>
<text text-anchor="middle" x="374" y="-118.3" font-family="Times New Roman,serif" font-size="14.00">Product</text>
</a>
</g>
<!-- http://latin.omdoc.org/translations/stt_prop?CH&#45;IPL -->
<g id="node3" class="node"><title>http://latin.omdoc.org/translations/stt_prop?CH&#45;IPL</title>
<a xlink:href="http://latin.omdoc.org/translations/stt_prop?CH-IPL" class="graphtheory">
<ellipse fill="none" stroke="black" cx="374" cy="-34" rx="39.9464" ry="18"/>
<text text-anchor="middle" x="374" y="-30.3" font-family="Times New Roman,serif" font-size="14.00">CH&#45;IPL</text>
</a>
</g>
<!-- http://latin.omdoc.org/type_theories?Product&#45;&gt;http://latin.omdoc.org/translations/stt_prop?CH&#45;IPL -->
<g id="edge3" class="edge"><title>http://latin.omdoc.org/type_theories?Product&#45;&gt;http://latin.omdoc.org/translations/stt_prop?CH&#45;IPL</title>
<a xlink:href="http://latin.omdoc.org/translations/stt_prop?Product" class="graphview">
<path fill="none" stroke="black" d="M374,-103.597C374,-91.7459 374,-75.8169 374,-62.2917"/>
<polygon fill="black" stroke="black" points="377.5,-62.084 374,-52.084 370.5,-62.084 377.5,-62.084"/>
</a>
<a xlink:href="http://latin.omdoc.org/translations/stt_prop?Product" class="Product">
<text text-anchor="middle" x="397" y="-74.3" font-family="Times New Roman,serif" font-size="14.00">Product</text>
</a>
</g>
<!-- http://latin.omdoc.org/type_theories?SIGMA -->
<g id="node5" class="node"><title>http://latin.omdoc.org/type_theories?SIGMA</title>
<a xlink:href="http://latin.omdoc.org/type_theories?SIGMA" class="graphtheory">
<ellipse fill="gray" stroke="black" cx="158" cy="-34" rx="39.9464" ry="18"/>
<text text-anchor="middle" x="158" y="-30.3" font-family="Times New Roman,serif" font-size="14.00">SIGMA</text>
</a>
</g>
<!-- http://latin.omdoc.org/type_theories?Product&#45;&gt;http://latin.omdoc.org/type_theories?SIGMA -->
<g id="edge5" class="edge"><title>http://latin.omdoc.org/type_theories?Product&#45;&gt;http://latin.omdoc.org/type_theories?SIGMA</title>
<a xlink:href="http://latin.omdoc.org/type_theories?Product-Sigma" class="graphview">
<path fill="none" stroke="black" d="M344.717,-109.545C327.348,-102.736 304.904,-93.9101 285,-86 255.176,-74.1477 221.469,-60.6049 196.279,-50.455"/>
<polygon fill="black" stroke="black" points="197.31,-47.097 186.727,-46.6042 194.693,-53.5893 197.31,-47.097"/>
</a>
<a xlink:href="http://latin.omdoc.org/type_theories?Product-Sigma" class="Product&#45;Sigma">
<text text-anchor="middle" x="327.5" y="-74.3" font-family="Times New Roman,serif" font-size="14.00">Product&#45;Sigma</text>
</a>
</g>
<!-- http://latin.omdoc.org/translations/tt_zfc?STT -->
<g id="node7" class="node"><title>http://latin.omdoc.org/translations/tt_zfc?STT</title>
<a xlink:href="http://latin.omdoc.org/translations/tt_zfc?STT" class="graphtheory">
<ellipse fill="gray" stroke="black" cx="1154" cy="-34" rx="27.4223" ry="18"/>
<text text-anchor="middle" x="1154" y="-30.3" font-family="Times New Roman,serif" font-size="14.00">STT</text>
</a>
</g>
<!-- http://latin.omdoc.org/type_theories?Product&#45;&gt;http://latin.omdoc.org/translations/tt_zfc?STT -->
<g id="edge7" class="edge"><title>http://latin.omdoc.org/type_theories?Product&#45;&gt;http://latin.omdoc.org/translations/tt_zfc?STT</title>
<a xlink:href="http://latin.omdoc.org/translations/tt_zfc?STT?[http://latin.omdoc.org/type_theories?Product]" class="graphstructure">
<path fill="none" stroke="black" d="M401.514,-108.794C406.888,-106.863 412.548,-105.133 418,-104 513.596,-84.1397 764.455,-117.12 857,-86 868.803,-82.031 868.379,-74.4731 880,-70 960.14,-39.1539 1062.22,-34.3355 1116.35,-34.2254"/>
<polygon fill="black" stroke="black" points="1116.5,-37.7258 1126.51,-34.2598 1116.52,-30.7259 1116.5,-37.7258"/>
</a>
<a xlink:href="http://latin.omdoc.org/translations/tt_zfc?STT?[http://latin.omdoc.org/type_theories?Product]" class="[http://latin.omdoc.org/type_theories?Product]">
<text text-anchor="middle" x="1010" y="-74.3" font-family="Times New Roman,serif" font-size="14.00">[http://latin.omdoc.org/type_theories?Product]</text>
</a>
</g>
<!-- http://latin.omdoc.org/foundations/zfc?Products -->
<g id="node9" class="node"><title>http://latin.omdoc.org/foundations/zfc?Products</title>
<a xlink:href="http://latin.omdoc.org/foundations/zfc?Products" class="graphtheory">
<ellipse fill="gray" stroke="black" cx="44" cy="-34" rx="44.2946" ry="18"/>
<text text-anchor="middle" x="44" y="-30.3" font-family="Times New Roman,serif" font-size="14.00">Products</text>
</a>
</g>
<!-- http://latin.omdoc.org/type_theories?Product&#45;&gt;http://latin.omdoc.org/foundations/zfc?Products -->
<g id="edge9" class="edge"><title>http://latin.omdoc.org/type_theories?Product&#45;&gt;http://latin.omdoc.org/foundations/zfc?Products</title>
<a xlink:href="http://latin.omdoc.org/translations/tt_zfc?Product" class="graphview">
<path fill="none" stroke="black" d="M345.916,-109.031C340.695,-107.127 335.235,-105.346 330,-104 272.228,-89.1494 255.104,-99.4906 197,-86 157.869,-76.9148 114.543,-61.9942 84.015,-50.6327"/>
<polygon fill="black" stroke="black" points="85.1664,-47.3264 74.5744,-47.0808 82.7014,-53.8781 85.1664,-47.3264"/>
</a>
<a xlink:href="http://latin.omdoc.org/translations/tt_zfc?Product" class="Product">
<text text-anchor="middle" x="220" y="-74.3" font-family="Times New Roman,serif" font-size="14.00">Product</text>
</a>
</g>
<!-- http://latin.omdoc.org/type_theories?STT&#45;MLTT -->
<g id="node11" class="node"><title>http://latin.omdoc.org/type_theories?STT&#45;MLTT</title>
<a xlink:href="http://latin.omdoc.org/type_theories?STT-MLTT" class="graphtheory">
<ellipse fill="gray" stroke="black" cx="623" cy="-34" rx="55.3436" ry="18"/>
<text text-anchor="middle" x="623" y="-30.3" font-family="Times New Roman,serif" font-size="14.00">STT&#45;MLTT</text>
</a>
</g>
<!-- http://latin.omdoc.org/type_theories?Product&#45;&gt;http://latin.omdoc.org/type_theories?STT&#45;MLTT -->
<g id="edge11" class="edge"><title>http://latin.omdoc.org/type_theories?Product&#45;&gt;http://latin.omdoc.org/type_theories?STT&#45;MLTT</title>
<a xlink:href="http://latin.omdoc.org/type_theories?STT-MLTT?[http://latin.omdoc.org/type_theories?Product]" class="graphstructure">
<path fill="none" stroke="black" d="M399.214,-107.655C421.151,-96.4489 454.038,-80.6121 484,-70 510.921,-60.4649 541.64,-52.4448 567.341,-46.4978"/>
<polygon fill="black" stroke="black" points="568.313,-49.8664 577.291,-44.2404 566.764,-43.0399 568.313,-49.8664"/>
</a>
<a xlink:href="http://latin.omdoc.org/type_theories?STT-MLTT?[http://latin.omdoc.org/type_theories?Product]" class="[http://latin.omdoc.org/type_theories?Product]">
<text text-anchor="middle" x="614" y="-74.3" font-family="Times New Roman,serif" font-size="14.00">[http://latin.omdoc.org/type_theories?Product]</text>
</a>
</g>
<!-- http://latin.omdoc.org/type_theories?STT -->
<g id="node17" class="node"><title>http://latin.omdoc.org/type_theories?STT</title>
<a xlink:href="http://latin.omdoc.org/type_theories?STT" class="graphtheory">
<ellipse fill="gray" stroke="black" cx="1519" cy="-34" rx="27.4223" ry="18"/>
<text text-anchor="middle" x="1519" y="-30.3" font-family="Times New Roman,serif" font-size="14.00">STT</text>
</a>
</g>
<!-- http://latin.omdoc.org/type_theories?Product&#45;&gt;http://latin.omdoc.org/type_theories?STT -->
<g id="edge17" class="edge"><title>http://latin.omdoc.org/type_theories?Product&#45;&gt;http://latin.omdoc.org/type_theories?STT</title>
<a class="graphinclude">
<path fill="none" stroke="black" d="M401.493,-108.689C406.868,-106.768 412.535,-105.068 418,-104 475.26,-92.8145 1414.29,-108.788 1468,-86 1481.46,-80.2884 1493.25,-69.1749 1502.1,-58.7764"/>
<polygon fill="black" stroke="black" points="1505.04,-60.7072 1508.54,-50.7072 1499.56,-56.3417 1505.04,-60.7072"/>
</a>
</g>
<!-- http://latin.omdoc.org/logics/syntax?CONJ -->
<g id="node13" class="node"><title>http://latin.omdoc.org/logics/syntax?CONJ</title>
<a xlink:href="http://latin.omdoc.org/logics/syntax?CONJ" class="graphtheory">
<ellipse fill="gray" stroke="black" cx="246" cy="-284" rx="33.1991" ry="18"/>
<text text-anchor="middle" x="246" y="-280.3" font-family="Times New Roman,serif" font-size="14.00">CONJ</text>
</a>
</g>
<!-- http://latin.omdoc.org/logics/syntax?CONJ&#45;&gt;http://latin.omdoc.org/type_theories?Product -->
<g id="edge13" class="edge"><title>http://latin.omdoc.org/logics/syntax?CONJ&#45;&gt;http://latin.omdoc.org/type_theories?Product</title>
<a xlink:href="http://latin.omdoc.org/translations/prop_stt?CONJ" class="graphview">
<path fill="none" stroke="black" d="M255.023,-266.472C265.639,-247.641 284.327,-216.328 304,-192 317.58,-175.207 334.842,-158.154 348.826,-145.202"/>
<polygon fill="black" stroke="black" points="351.189,-147.784 356.213,-138.456 346.468,-142.615 351.189,-147.784"/>
</a>
<a xlink:href="http://latin.omdoc.org/translations/prop_stt?CONJ" class="CONJ">
<text text-anchor="middle" x="322" y="-206.3" font-family="Times New Roman,serif" font-size="14.00">CONJ</text>
</a>
</g>
<!-- http://latin.omdoc.org/logics/proof_theory?CONJ -->
<g id="node15" class="node"><title>http://latin.omdoc.org/logics/proof_theory?CONJ</title>
<a xlink:href="http://latin.omdoc.org/logics/proof_theory?CONJ" class="graphtheory">
<ellipse fill="gray" stroke="black" cx="208" cy="-210" rx="33.1991" ry="18"/>
<text text-anchor="middle" x="208" y="-206.3" font-family="Times New Roman,serif" font-size="14.00">CONJ</text>
</a>
</g>
<!-- http://latin.omdoc.org/logics/syntax?CONJ&#45;&gt;http://latin.omdoc.org/logics/proof_theory?CONJ -->
<g id="edge63" class="edge"><title>http://latin.omdoc.org/logics/syntax?CONJ&#45;&gt;http://latin.omdoc.org/logics/proof_theory?CONJ</title>
<a class="graphinclude">
<path fill="none" stroke="black" d="M237.187,-266.301C232.534,-257.486 226.725,-246.48 221.517,-236.612"/>
<polygon fill="black" stroke="black" points="224.529,-234.819 216.766,-227.609 218.338,-238.086 224.529,-234.819"/>
</a>
</g>
<!-- http://latin.omdoc.org/logics/proof_theory?CONJ&#45;&gt;http://latin.omdoc.org/type_theories?Product -->
<g id="edge15" class="edge"><title>http://latin.omdoc.org/logics/proof_theory?CONJ&#45;&gt;http://latin.omdoc.org/type_theories?Product</title>
<a xlink:href="http://latin.omdoc.org/translations/prop_stt?CONJPF" class="graphview">
<path fill="none" stroke="black" d="M204.26,-192.023C202.873,-180.834 203.361,-166.694 212,-158 230.55,-139.333 304.864,-155.793 330,-148 334.684,-146.548 339.416,-144.541 343.954,-142.29"/>
<polygon fill="black" stroke="black" points="345.798,-145.272 352.917,-137.425 342.459,-139.119 345.798,-145.272"/>
</a>
<a xlink:href="http://latin.omdoc.org/translations/prop_stt?CONJPF" class="CONJPF">
<text text-anchor="middle" x="238" y="-162.3" font-family="Times New Roman,serif" font-size="14.00">CONJPF</text>
</a>
</g>
<!-- http://latin.omdoc.org/logics/proof_theory?IPL -->
<g id="node26" class="node"><title>http://latin.omdoc.org/logics/proof_theory?IPL</title>
<a xlink:href="http://latin.omdoc.org/logics/proof_theory?IPL" class="graphtheory">
<ellipse fill="gray" stroke="black" cx="163" cy="-122" rx="27" ry="18"/>
<text text-anchor="middle" x="163" y="-118.3" font-family="Times New Roman,serif" font-size="14.00">IPL</text>
</a>
</g>
<!-- http://latin.omdoc.org/logics/proof_theory?CONJ&#45;&gt;http://latin.omdoc.org/logics/proof_theory?IPL -->
<g id="edge61" class="edge"><title>http://latin.omdoc.org/logics/proof_theory?CONJ&#45;&gt;http://latin.omdoc.org/logics/proof_theory?IPL</title>
<a class="graphinclude">
<path fill="none" stroke="black" d="M198.423,-192.738C195.047,-186.877 191.278,-180.183 188,-174 183.684,-165.86 179.189,-156.867 175.219,-148.73"/>
<polygon fill="black" stroke="black" points="178.345,-147.153 170.844,-139.671 172.042,-150.198 178.345,-147.153"/>
</a>
</g>
<!-- http://latin.omdoc.org/type_theories?TypesTerms -->
<g id="node19" class="node"><title>http://latin.omdoc.org/type_theories?TypesTerms</title>
<a xlink:href="http://latin.omdoc.org/type_theories?TypesTerms" class="graphtheory">
<ellipse fill="gray" stroke="black" cx="450" cy="-210" rx="57.2927" ry="18"/>
<text text-anchor="middle" x="450" y="-206.3" font-family="Times New Roman,serif" font-size="14.00">TypesTerms</text>
</a>
</g>
<!-- http://latin.omdoc.org/type_theories?TypesTerms&#45;&gt;http://latin.omdoc.org/type_theories?Product -->
<g id="edge19" class="edge"><title>http://latin.omdoc.org/type_theories?TypesTerms&#45;&gt;http://latin.omdoc.org/type_theories?Product</title>
<a class="graphinclude">
<path fill="none" stroke="black" d="M435.346,-192.418C423.846,-179.404 407.687,-161.12 394.84,-146.583"/>
<polygon fill="black" stroke="black" points="397.339,-144.125 388.095,-138.949 392.094,-148.76 397.339,-144.125"/>
</a>
</g>
<!-- http://latin.omdoc.org/type_theories?TypesTerms&#45;&gt;http://latin.omdoc.org/translations/stt_prop?CH&#45;IPL -->
<g id="edge23" class="edge"><title>http://latin.omdoc.org/type_theories?TypesTerms&#45;&gt;http://latin.omdoc.org/translations/stt_prop?CH&#45;IPL</title>
<a xlink:href="http://latin.omdoc.org/translations/stt_prop?TypesTerms" class="graphview">
<path fill="none" stroke="black" d="M450.787,-191.665C451.226,-163.766 448.604,-108.177 424,-70 419.975,-63.7543 414.403,-58.3041 408.434,-53.6822"/>
<polygon fill="black" stroke="black" points="410.358,-50.7566 400.156,-47.8962 406.347,-56.4939 410.358,-50.7566"/>
</a>
<a xlink:href="http://latin.omdoc.org/translations/stt_prop?TypesTerms" class="TypesTerms">
<text text-anchor="middle" x="485" y="-118.3" font-family="Times New Roman,serif" font-size="14.00">TypesTerms</text>
</a>
</g>
<!-- http://latin.omdoc.org/type_theories?TypesTerms&#45;&gt;http://latin.omdoc.org/type_theories?SIGMA -->
<g id="edge59" class="edge"><title>http://latin.omdoc.org/type_theories?TypesTerms&#45;&gt;http://latin.omdoc.org/type_theories?SIGMA</title>
<a class="graphinclude">
<path fill="none" stroke="black" d="M415.48,-195.655C344.84,-168.073 188.986,-105.719 172,-86 166.291,-79.3727 162.893,-70.6153 160.875,-62.2309"/>
<polygon fill="black" stroke="black" points="164.308,-61.5476 159.037,-52.357 157.426,-62.8287 164.308,-61.5476"/>
</a>
</g>
<!-- http://latin.omdoc.org/type_theories?TypesTerms&#45;&gt;http://latin.omdoc.org/translations/tt_zfc?STT -->
<g id="edge53" class="edge"><title>http://latin.omdoc.org/type_theories?TypesTerms&#45;&gt;http://latin.omdoc.org/translations/tt_zfc?STT</title>
<a xlink:href="http://latin.omdoc.org/translations/tt_zfc?STT?[http://latin.omdoc.org/type_theories?TypesTerms]" class="graphstructure">
<path fill="none" stroke="black" d="M507.245,-209.961C611.596,-210.174 838.71,-203.491 1020,-148 1059.92,-135.78 1065.78,-122.913 1103,-104 1119.3,-95.7161 1128.32,-100.069 1140,-86 1145.59,-79.2704 1148.96,-70.4869 1150.98,-62.1099"/>
<polygon fill="black" stroke="black" points="1154.43,-62.7356 1152.85,-52.259 1147.55,-61.4332 1154.43,-62.7356"/>
</a>
<a xlink:href="http://latin.omdoc.org/translations/tt_zfc?STT?[http://latin.omdoc.org/type_theories?TypesTerms]" class="[http://latin.omdoc.org/type_theories?TypesTerms]">
<text text-anchor="middle" x="1246" y="-118.3" font-family="Times New Roman,serif" font-size="14.00">[http://latin.omdoc.org/type_theories?TypesTerms]</text>
</a>
</g>
<!-- http://latin.omdoc.org/type_theories?TypesTerms&#45;&gt;http://latin.omdoc.org/type_theories?STT&#45;MLTT -->
<g id="edge51" class="edge"><title>http://latin.omdoc.org/type_theories?TypesTerms&#45;&gt;http://latin.omdoc.org/type_theories?STT&#45;MLTT</title>
<a xlink:href="http://latin.omdoc.org/type_theories?STT-MLTT?[http://latin.omdoc.org/type_theories?TypesTerms]" class="graphstructure">
<path fill="none" stroke="black" d="M503.857,-204.018C572.999,-194.404 690.426,-166.487 744,-86 761.625,-59.521 724.091,-46.7557 686.291,-40.6212"/>
<polygon fill="black" stroke="black" points="686.594,-37.1281 676.19,-39.1304 685.572,-44.053 686.594,-37.1281"/>
</a>
<a xlink:href="http://latin.omdoc.org/type_theories?STT-MLTT?[http://latin.omdoc.org/type_theories?TypesTerms]" class="[http://latin.omdoc.org/type_theories?TypesTerms]">
<text text-anchor="middle" x="873" y="-118.3" font-family="Times New Roman,serif" font-size="14.00">[http://latin.omdoc.org/type_theories?TypesTerms]</text>
</a>
</g>
<!-- http://latin.omdoc.org/type_theories?TypesTerms&#45;&gt;http://latin.omdoc.org/type_theories?STT -->
<g id="edge57" class="edge"><title>http://latin.omdoc.org/type_theories?TypesTerms&#45;&gt;http://latin.omdoc.org/type_theories?STT</title>
<a class="graphinclude">
<path fill="none" stroke="black" d="M506.828,-207.845C722.054,-203.202 1476.76,-184.373 1512,-148 1533.76,-125.542 1531.18,-87.3598 1526.1,-61.6682"/>
<polygon fill="black" stroke="black" points="1529.51,-60.839 1523.92,-51.8341 1522.67,-62.3548 1529.51,-60.839"/>
</a>
</g>
<!-- http://latin.omdoc.org/type_theories?SimpTypes -->
<g id="node24" class="node"><title>http://latin.omdoc.org/type_theories?SimpTypes</title>
<a xlink:href="http://latin.omdoc.org/type_theories?SimpTypes" class="graphtheory">
<ellipse fill="gray" stroke="black" cx="1451" cy="-122" rx="52.4675" ry="18"/>
<text text-anchor="middle" x="1451" y="-118.3" font-family="Times New Roman,serif" font-size="14.00">SimpTypes</text>
</a>
</g>
<!-- http://latin.omdoc.org/type_theories?TypesTerms&#45;&gt;http://latin.omdoc.org/type_theories?SimpTypes -->
<g id="edge55" class="edge"><title>http://latin.omdoc.org/type_theories?TypesTerms&#45;&gt;http://latin.omdoc.org/type_theories?SimpTypes</title>
<a class="graphinclude">
<path fill="none" stroke="black" d="M506.381,-206.777C620.196,-202.118 885.528,-190.389 1108,-174 1230.88,-164.948 1263.91,-175.553 1384,-148 1392.7,-146.003 1401.81,-143.155 1410.4,-140.091"/>
<polygon fill="black" stroke="black" points="1411.68,-143.347 1419.83,-136.574 1409.23,-136.788 1411.68,-143.347"/>
</a>
</g>
<!-- http://cds.omdoc.org/urtheories?LF -->
<g id="node21" class="node"><title>http://cds.omdoc.org/urtheories?LF</title>
<a xlink:href="http://cds.omdoc.org/urtheories?LF" class="graphtheory">
<ellipse fill="gray" stroke="black" cx="108" cy="-358" rx="27" ry="18"/>
<text text-anchor="middle" x="108" y="-354.3" font-family="Times New Roman,serif" font-size="14.00">LF</text>
</a>
</g>
<!-- http://cds.omdoc.org/urtheories?LF&#45;&gt;http://latin.omdoc.org/type_theories?Product -->
<g id="edge21" class="edge"><title>http://cds.omdoc.org/urtheories?LF&#45;&gt;http://latin.omdoc.org/type_theories?Product</title>
<a class="graphmeta">
<path fill="none" stroke="black" d="M134.519,-354.344C171.898,-349.471 240.781,-336.241 288,-302 338.73,-265.213 360.776,-190.431 369.296,-150.15"/>
<polygon fill="black" stroke="black" points="372.751,-150.72 371.267,-140.23 365.886,-149.356 372.751,-150.72"/>
</a>
</g>
<!-- http://cds.omdoc.org/urtheories?LF&#45;&gt;http://latin.omdoc.org/translations/stt_prop?CH&#45;IPL -->
<g id="edge29" class="edge"><title>http://cds.omdoc.org/urtheories?LF&#45;&gt;http://latin.omdoc.org/translations/stt_prop?CH&#45;IPL</title>
<a class="graphmeta">
<path fill="none" stroke="black" d="M108,-339.834C108,-325.247 108,-303.75 108,-285 108,-285 108,-285 108,-121 108,-89.2572 129.414,-83.8009 158,-70 227.217,-36.5826 255.277,-70.0076 330,-52 332.053,-51.5054 334.138,-50.9379 336.229,-50.3174"/>
<polygon fill="black" stroke="black" points="337.555,-53.5652 345.949,-47.1002 335.356,-46.9197 337.555,-53.5652"/>
</a>
</g>
<!-- http://cds.omdoc.org/urtheories?LF&#45;&gt;http://latin.omdoc.org/type_theories?SIGMA -->
<g id="edge45" class="edge"><title>http://cds.omdoc.org/urtheories?LF&#45;&gt;http://latin.omdoc.org/type_theories?SIGMA</title>
<a class="graphmeta">
<path fill="none" stroke="black" d="M94.7094,-342.184C83.7513,-328.4 70,-306.767 70,-285 70,-285 70,-285 70,-121 70,-95.9489 76.831,-88.2423 94,-70 101.161,-62.3918 110.353,-56.0524 119.523,-50.9542"/>
<polygon fill="black" stroke="black" points="121.326,-53.9623 128.611,-46.2686 118.118,-47.7406 121.326,-53.9623"/>
</a>
</g>
<!-- http://cds.omdoc.org/urtheories?LF&#45;&gt;http://latin.omdoc.org/foundations/zfc?Products -->
<g id="edge47" class="edge"><title>http://cds.omdoc.org/urtheories?LF&#45;&gt;http://latin.omdoc.org/foundations/zfc?Products</title>
<a class="graphmeta">
<path fill="none" stroke="black" d="M86.0177,-347.543C63.572,-336.231 32,-314.989 32,-285 32,-285 32,-285 32,-121 32,-101.214 35.1543,-79.1105 38.2285,-62.267"/>
<polygon fill="black" stroke="black" points="41.7447,-62.5173 40.2031,-52.0352 34.8715,-61.1907 41.7447,-62.5173"/>
</a>
</g>
<!-- http://cds.omdoc.org/urtheories?LF&#45;&gt;http://latin.omdoc.org/logics/syntax?CONJ -->
<g id="edge41" class="edge"><title>http://cds.omdoc.org/urtheories?LF&#45;&gt;http://latin.omdoc.org/logics/syntax?CONJ</title>
<a class="graphmeta">
<path fill="none" stroke="black" d="M132.147,-349.704C150.768,-343.589 176.83,-333.948 198,-322 205.903,-317.54 213.93,-311.885 221.099,-306.347"/>
<polygon fill="black" stroke="black" points="223.439,-308.957 229.063,-299.978 219.067,-303.49 223.439,-308.957"/>
</a>
</g>
<!-- http://cds.omdoc.org/urtheories?LF&#45;&gt;http://latin.omdoc.org/logics/proof_theory?CONJ -->
<g id="edge39" class="edge"><title>http://cds.omdoc.org/urtheories?LF&#45;&gt;http://latin.omdoc.org/logics/proof_theory?CONJ</title>
<a class="graphmeta">
<path fill="none" stroke="black" d="M129.111,-346.515C139.508,-340.501 151.585,-332.128 160,-322 180.687,-297.101 193.867,-261.93 201.078,-237.892"/>
<polygon fill="black" stroke="black" points="204.517,-238.598 203.893,-228.022 197.785,-236.679 204.517,-238.598"/>
</a>
</g>
<!-- http://cds.omdoc.org/urtheories?LF&#45;&gt;http://latin.omdoc.org/type_theories?STT -->
<g id="edge35" class="edge"><title>http://cds.omdoc.org/urtheories?LF&#45;&gt;http://latin.omdoc.org/type_theories?STT</title>
<a class="graphmeta">
<path fill="none" stroke="black" d="M135.258,-357.13C335.399,-357.915 1570,-359.729 1570,-285 1570,-285 1570,-285 1570,-121 1570,-96.7578 1554.82,-73.3713 1541.03,-57.1215"/>
<polygon fill="black" stroke="black" points="1543.31,-54.4203 1534.03,-49.3078 1538.09,-59.0913 1543.31,-54.4203"/>
</a>
</g>
<!-- http://cds.omdoc.org/urtheories?LF&#45;&gt;http://latin.omdoc.org/type_theories?TypesTerms -->
<g id="edge37" class="edge"><title>http://cds.omdoc.org/urtheories?LF&#45;&gt;http://latin.omdoc.org/type_theories?TypesTerms</title>
<a class="graphmeta">
<path fill="none" stroke="black" d="M135.128,-355.999C193.522,-353.424 328.995,-345.073 368,-322 401.279,-302.314 425.187,-263.336 438.314,-237.213"/>
<polygon fill="black" stroke="black" points="441.616,-238.424 442.814,-227.897 435.313,-235.379 441.616,-238.424"/>
</a>
</g>
<!-- http://cds.omdoc.org/urtheories?LF&#45;&gt;http://latin.omdoc.org/type_theories?SimpTypes -->
<g id="edge43" class="edge"><title>http://cds.omdoc.org/urtheories?LF&#45;&gt;http://latin.omdoc.org/type_theories?SimpTypes</title>
<a class="graphmeta">
<path fill="none" stroke="black" d="M134.601,-354.009C183.753,-348.394 292.088,-335.61 383,-322 833.482,-254.562 956.361,-277.722 1393,-148 1399.5,-146.07 1406.24,-143.614 1412.73,-140.999"/>
<polygon fill="black" stroke="black" points="1414.14,-144.204 1421.99,-137.097 1411.42,-137.752 1414.14,-144.204"/>
</a>
</g>
<!-- http://cds.omdoc.org/urtheories?LF&#45;&gt;http://latin.omdoc.org/logics/proof_theory?IPL -->
<g id="edge49" class="edge"><title>http://cds.omdoc.org/urtheories?LF&#45;&gt;http://latin.omdoc.org/logics/proof_theory?IPL</title>
<a class="graphmeta">
<path fill="none" stroke="black" d="M115.307,-340.48C117.671,-334.711 120.155,-328.142 122,-322 140.136,-261.631 152.931,-188.576 159.004,-149.962"/>
<polygon fill="black" stroke="black" points="162.471,-150.441 160.537,-140.024 155.553,-149.373 162.471,-150.441"/>
</a>
</g>
<!-- http://latin.omdoc.org/type_theories?SimpTypes&#45;&gt;http://latin.omdoc.org/translations/stt_prop?CH&#45;IPL -->
<g id="edge25" class="edge"><title>http://latin.omdoc.org/type_theories?SimpTypes&#45;&gt;http://latin.omdoc.org/translations/stt_prop?CH&#45;IPL</title>
<a xlink:href="http://latin.omdoc.org/translations/stt_prop?SimpTypes" class="graphview">
<path fill="none" stroke="black" d="M1412.67,-109.746C1403.36,-107.44 1393.39,-105.317 1384,-104 1252.78,-85.5965 917.721,-113.019 788,-86 769.255,-82.0957 766.696,-74.1318 748,-70 604.576,-38.304 561.609,-82.8485 418,-52 415.788,-51.5249 413.541,-50.9543 411.293,-50.3145"/>
<polygon fill="black" stroke="black" points="412.119,-46.9031 401.527,-47.1466 409.959,-53.5615 412.119,-46.9031"/>
</a>
<a xlink:href="http://latin.omdoc.org/translations/stt_prop?SimpTypes" class="SimpTypes">
<text text-anchor="middle" x="820.5" y="-74.3" font-family="Times New Roman,serif" font-size="14.00">SimpTypes</text>
</a>
</g>
<!-- http://latin.omdoc.org/type_theories?SimpTypes&#45;&gt;http://latin.omdoc.org/translations/tt_zfc?STT -->
<g id="edge31" class="edge"><title>http://latin.omdoc.org/type_theories?SimpTypes&#45;&gt;http://latin.omdoc.org/translations/tt_zfc?STT</title>
<a xlink:href="http://latin.omdoc.org/translations/tt_zfc?STT?[http://latin.omdoc.org/type_theories?SimpTypes]" class="graphstructure">
<path fill="none" stroke="black" d="M1411.53,-109.967C1402.53,-107.738 1392.98,-105.592 1384,-104 1307.01,-90.3489 1280.23,-118.245 1209,-86 1195.01,-79.6664 1182.24,-68.3444 1172.53,-57.9744"/>
<polygon fill="black" stroke="black" points="1174.99,-55.4778 1165.73,-50.3283 1169.76,-60.128 1174.99,-55.4778"/>
</a>
<a xlink:href="http://latin.omdoc.org/translations/tt_zfc?STT?[http://latin.omdoc.org/type_theories?SimpTypes]" class="[http://latin.omdoc.org/type_theories?SimpTypes]">
<text text-anchor="middle" x="1349" y="-74.3" font-family="Times New Roman,serif" font-size="14.00">[http://latin.omdoc.org/type_theories?SimpTypes]</text>
</a>
</g>
<!-- http://latin.omdoc.org/type_theories?SimpTypes&#45;&gt;http://latin.omdoc.org/type_theories?STT -->
<g id="edge33" class="edge"><title>http://latin.omdoc.org/type_theories?SimpTypes&#45;&gt;http://latin.omdoc.org/type_theories?STT</title>
<a class="graphinclude">
<path fill="none" stroke="black" d="M1473.05,-105.419C1479.99,-99.8229 1487.31,-93.1208 1493,-86 1499.04,-78.4384 1504.24,-69.2519 1508.38,-60.7701"/>
<polygon fill="black" stroke="black" points="1511.59,-62.1661 1512.57,-51.6175 1505.22,-59.2475 1511.59,-62.1661"/>
</a>
</g>
<!-- http://latin.omdoc.org/logics/proof_theory?IPL&#45;&gt;http://latin.omdoc.org/translations/stt_prop?CH&#45;IPL -->
<g id="edge27" class="edge"><title>http://latin.omdoc.org/logics/proof_theory?IPL&#45;&gt;http://latin.omdoc.org/translations/stt_prop?CH&#45;IPL</title>
<a class="graphinclude">
<path fill="none" stroke="black" d="M160.088,-104.011C159.213,-92.8167 160.275,-78.6744 169,-70 194.53,-44.6172 295.031,-60.5581 330,-52 332.051,-51.4981 334.135,-50.9249 336.224,-50.2998"/>
<polygon fill="black" stroke="black" points="337.556,-53.5455 345.941,-47.0696 335.348,-46.9029 337.556,-53.5455"/>
</a>
</g>
</g>
</svg>
