<?xml version="1.0" encoding="UTF-8" standalone="no"?>
<!DOCTYPE svg PUBLIC "-//W3C//DTD SVG 1.1//EN"
 "http://www.w3.org/Graphics/SVG/1.1/DTD/svg11.dtd">
<!-- Generated by graphviz version 2.28.0 (20110507.0327)
 -->
<!-- Title: MMT Pages: 1 -->
<svg width="631pt" height="370pt"
 viewBox="0.00 0.00 631.00 370.00" xmlns="http://www.w3.org/2000/svg" xmlns:xlink="http://www.w3.org/1999/xlink">
<g id="graph1" class="graph" transform="scale(1 1) rotate(0) translate(4 366)">
<title>MMT</title>
<polygon fill="white" stroke="white" points="-4,5 -4,-366 628,-366 628,5 -4,5"/>
<g id="graph2" class="cluster"><title>cluster_local</title>
<polygon fill="none" stroke="black" points="126,-8 126,-148 250,-148 250,-8 126,-8"/>
</g>
<!-- http://latin.omdoc.org/logics/syntax?BaseSecOL -->
<g id="node2" class="node"><title>http://latin.omdoc.org/logics/syntax?BaseSecOL</title>
<a xlink:href="javascript:parent.navigate(&#39;http://latin.omdoc.org/logics/syntax?BaseSecOL&#39;)" xlink:title="theory http://latin.omdoc.org/logics/syntax?BaseSecOL">
<ellipse fill="none" stroke="black" cx="188" cy="-122" rx="53.4184" ry="18"/>
<text text-anchor="middle" x="188" y="-118.3" font-family="Times New Roman,serif" font-size="14.00">BaseSecOL</text>
</a>
</g>
<!-- http://latin.omdoc.org/logics/syntax?SecOL -->
<g id="node3" class="node"><title>http://latin.omdoc.org/logics/syntax?SecOL</title>
<a xlink:href="javascript:parent.navigate(&#39;http://latin.omdoc.org/logics/syntax?SecOL&#39;)" xlink:title="theory http://latin.omdoc.org/logics/syntax?SecOL">
<ellipse fill="none" stroke="black" cx="206" cy="-34" rx="36.096" ry="18"/>
<text text-anchor="middle" x="206" y="-30.3" font-family="Times New Roman,serif" font-size="14.00">SecOL</text>
</a>
</g>
<!-- http://latin.omdoc.org/logics/syntax?BaseSecOL&#45;&gt;http://latin.omdoc.org/logics/syntax?SecOL -->
<g id="edge15" class="edge"><title>http://latin.omdoc.org/logics/syntax?BaseSecOL&#45;&gt;http://latin.omdoc.org/logics/syntax?SecOL</title>
<a xlink:title="include">
<path fill="none" stroke="black" d="M191.556,-104.009C194.071,-91.9947 197.494,-75.641 200.376,-61.8691"/>
<polygon fill="black" stroke="black" points="203.828,-62.4605 202.451,-51.9555 196.977,-61.0264 203.828,-62.4605"/>
</a>
</g>
<!-- http://latin.omdoc.org/logics/proof_theory?BaseSecOL -->
<g id="node6" class="node"><title>http://latin.omdoc.org/logics/proof_theory?BaseSecOL</title>
<a xlink:href="javascript:parent.navigate(&#39;http://latin.omdoc.org/logics/proof_theory?BaseSecOL&#39;)" xlink:title="theory http://latin.omdoc.org/logics/proof_theory?BaseSecOL">
<ellipse fill="gray" stroke="black" cx="53" cy="-34" rx="53.4184" ry="18"/>
<text text-anchor="middle" x="53" y="-30.3" font-family="Times New Roman,serif" font-size="14.00">BaseSecOL</text>
</a>
</g>
<!-- http://latin.omdoc.org/logics/syntax?BaseSecOL&#45;&gt;http://latin.omdoc.org/logics/proof_theory?BaseSecOL -->
<g id="edge5" class="edge"><title>http://latin.omdoc.org/logics/syntax?BaseSecOL&#45;&gt;http://latin.omdoc.org/logics/proof_theory?BaseSecOL</title>
<a xlink:title="include">
<path fill="none" stroke="black" d="M164.175,-105.823C142.333,-91.9083 109.797,-71.1817 85.5594,-55.7416"/>
<polygon fill="black" stroke="black" points="87.355,-52.7356 77.0405,-50.3147 83.594,-58.6394 87.355,-52.7356"/>
</a>
</g>
<!-- http://latin.omdoc.org/math?Universe -->
<g id="node4" class="node"><title>http://latin.omdoc.org/math?Universe</title>
<a xlink:href="javascript:parent.navigate(&#39;http://latin.omdoc.org/math?Universe&#39;)" xlink:title="theory http://latin.omdoc.org/math?Universe">
<ellipse fill="gray" stroke="black" cx="188" cy="-270" rx="42.3701" ry="18"/>
<text text-anchor="middle" x="188" y="-266.3" font-family="Times New Roman,serif" font-size="14.00">Universe</text>
</a>
</g>
<!-- http://latin.omdoc.org/math?Universe&#45;&gt;http://latin.omdoc.org/logics/syntax?BaseSecOL -->
<g id="edge3" class="edge"><title>http://latin.omdoc.org/math?Universe&#45;&gt;http://latin.omdoc.org/logics/syntax?BaseSecOL</title>
<a xlink:href="javascript:parent.navigate(&#39;http://latin.omdoc.org/logics/syntax?I2II&#39;)" xlink:title="view http://latin.omdoc.org/logics/syntax?I2II">
<path fill="none" stroke="blue" stroke-dasharray="5,2" d="M187,-251.966C187,-227.045 187,-180.374 187,-150.537"/>
<path fill="none" stroke="blue" stroke-dasharray="5,2" d="M189,-251.966C189,-227.045 189,-180.374 189,-150.537"/>
<polygon fill="blue" stroke="blue" points="191.5,-150.378 188,-140.378 184.5,-150.378 191.5,-150.378"/>
</a>
<a xlink:href="javascript:parent.navigate(&#39;http://latin.omdoc.org/logics/syntax?I2II&#39;)" xlink:title="I2II">
<text text-anchor="middle" x="198.5" y="-192.3" font-family="Times New Roman,serif" font-size="14.00">I2II</text>
</a>
</g>
<!-- http://latin.omdoc.org/logics/syntax?UniverseLogic -->
<g id="node8" class="node"><title>http://latin.omdoc.org/logics/syntax?UniverseLogic</title>
<a xlink:href="javascript:parent.navigate(&#39;http://latin.omdoc.org/logics/syntax?UniverseLogic&#39;)" xlink:title="theory http://latin.omdoc.org/logics/syntax?UniverseLogic">
<ellipse fill="gray" stroke="black" cx="292" cy="-196" rx="63.5411" ry="18"/>
<text text-anchor="middle" x="292" y="-192.3" font-family="Times New Roman,serif" font-size="14.00">UniverseLogic</text>
</a>
</g>
<!-- http://latin.omdoc.org/math?Universe&#45;&gt;http://latin.omdoc.org/logics/syntax?UniverseLogic -->
<g id="edge41" class="edge"><title>http://latin.omdoc.org/math?Universe&#45;&gt;http://latin.omdoc.org/logics/syntax?UniverseLogic</title>
<a xlink:title="include">
<path fill="none" stroke="black" d="M209.297,-254.256C224.074,-244.026 244.004,-230.228 260.597,-218.74"/>
<polygon fill="black" stroke="black" points="262.695,-221.545 268.925,-212.975 258.711,-215.789 262.695,-221.545"/>
</a>
</g>
<!-- http://latin.omdoc.org/logics/syntax?UniverseLogic&#45;&gt;http://latin.omdoc.org/logics/syntax?BaseSecOL -->
<g id="edge7" class="edge"><title>http://latin.omdoc.org/logics/syntax?UniverseLogic&#45;&gt;http://latin.omdoc.org/logics/syntax?BaseSecOL</title>
<a xlink:title="include">
<path fill="none" stroke="black" d="M269.177,-179.199C254.445,-169.001 235.094,-155.604 218.981,-144.449"/>
<polygon fill="black" stroke="black" points="220.627,-141.331 210.412,-138.516 216.642,-147.086 220.627,-141.331"/>
</a>
</g>
<!-- http://latin.omdoc.org/logics/syntax?Exists -->
<g id="node12" class="node"><title>http://latin.omdoc.org/logics/syntax?Exists</title>
<a xlink:href="javascript:parent.navigate(&#39;http://latin.omdoc.org/logics/syntax?Exists&#39;)" xlink:title="theory http://latin.omdoc.org/logics/syntax?Exists">
<ellipse fill="gray" stroke="black" cx="374" cy="-122" rx="32.2457" ry="18"/>
<text text-anchor="middle" x="374" y="-118.3" font-family="Times New Roman,serif" font-size="14.00">Exists</text>
</a>
</g>
<!-- http://latin.omdoc.org/logics/syntax?UniverseLogic&#45;&gt;http://latin.omdoc.org/logics/syntax?Exists -->
<g id="edge37" class="edge"><title>http://latin.omdoc.org/logics/syntax?UniverseLogic&#45;&gt;http://latin.omdoc.org/logics/syntax?Exists</title>
<a xlink:title="include">
<path fill="none" stroke="black" d="M310.607,-178.662C322.158,-168.52 337.13,-155.374 349.623,-144.404"/>
<polygon fill="black" stroke="black" points="352.209,-146.792 357.414,-137.564 347.59,-141.531 352.209,-146.792"/>
</a>
</g>
<!-- http://latin.omdoc.org/logics/syntax?Forall -->
<g id="node14" class="node"><title>http://latin.omdoc.org/logics/syntax?Forall</title>
<a xlink:href="javascript:parent.navigate(&#39;http://latin.omdoc.org/logics/syntax?Forall&#39;)" xlink:title="theory http://latin.omdoc.org/logics/syntax?Forall">
<ellipse fill="gray" stroke="black" cx="292" cy="-122" rx="31.2735" ry="18"/>
<text text-anchor="middle" x="292" y="-118.3" font-family="Times New Roman,serif" font-size="14.00">Forall</text>
</a>
</g>
<!-- http://latin.omdoc.org/logics/syntax?UniverseLogic&#45;&gt;http://latin.omdoc.org/logics/syntax?Forall -->
<g id="edge39" class="edge"><title>http://latin.omdoc.org/logics/syntax?UniverseLogic&#45;&gt;http://latin.omdoc.org/logics/syntax?Forall</title>
<a xlink:title="include">
<path fill="none" stroke="black" d="M292,-177.937C292,-169.807 292,-159.876 292,-150.705"/>
<polygon fill="black" stroke="black" points="295.5,-150.441 292,-140.441 288.5,-150.441 295.5,-150.441"/>
</a>
</g>
<!-- http://cds.omdoc.org/urtheories?LF -->
<g id="node10" class="node"><title>http://cds.omdoc.org/urtheories?LF</title>
<a xlink:href="javascript:parent.navigate(&#39;http://cds.omdoc.org/urtheories?LF&#39;)" xlink:title="theory http://cds.omdoc.org/urtheories?LF">
<ellipse fill="gray" stroke="black" cx="434" cy="-344" rx="27" ry="18"/>
<text text-anchor="middle" x="434" y="-340.3" font-family="Times New Roman,serif" font-size="14.00">LF</text>
</a>
</g>
<!-- http://cds.omdoc.org/urtheories?LF&#45;&gt;http://latin.omdoc.org/logics/syntax?BaseSecOL -->
<g id="edge9" class="edge"><title>http://cds.omdoc.org/urtheories?LF&#45;&gt;http://latin.omdoc.org/logics/syntax?BaseSecOL</title>
<a xlink:title="meta">
<path fill="none" stroke="green" d="M406.786,-343.044C336.754,-342.459 153.776,-336.265 125,-288 97.2069,-241.383 137.963,-180.352 165.764,-147.123"/>
<polygon fill="green" stroke="green" points="168.628,-149.161 172.503,-139.3 163.325,-144.592 168.628,-149.161"/>
</a>
</g>
<!-- http://cds.omdoc.org/urtheories?LF&#45;&gt;http://latin.omdoc.org/logics/syntax?SecOL -->
<g id="edge21" class="edge"><title>http://cds.omdoc.org/urtheories?LF&#45;&gt;http://latin.omdoc.org/logics/syntax?SecOL</title>
<a xlink:title="meta">
<path fill="none" stroke="green" d="M434,-325.834C434,-311.247 434,-289.75 434,-271 434,-271 434,-271 434,-121 434,-82.1479 316.632,-54.7763 250.314,-42.4112"/>
<polygon fill="green" stroke="green" points="250.599,-38.9058 240.134,-40.5561 249.344,-45.7923 250.599,-38.9058"/>
</a>
</g>
<!-- http://cds.omdoc.org/urtheories?LF&#45;&gt;http://latin.omdoc.org/math?Universe -->
<g id="edge23" class="edge"><title>http://cds.omdoc.org/urtheories?LF&#45;&gt;http://latin.omdoc.org/math?Universe</title>
<a xlink:title="meta">
<path fill="none" stroke="green" d="M409.184,-336.593C383.147,-329.794 341.07,-318.592 305,-308 280.183,-300.713 252.591,-292.016 230.437,-284.885"/>
<polygon fill="green" stroke="green" points="231.262,-281.474 220.67,-281.73 229.11,-288.135 231.262,-281.474"/>
</a>
</g>
<!-- http://cds.omdoc.org/urtheories?LF&#45;&gt;http://latin.omdoc.org/logics/proof_theory?BaseSecOL -->
<g id="edge31" class="edge"><title>http://cds.omdoc.org/urtheories?LF&#45;&gt;http://latin.omdoc.org/logics/proof_theory?BaseSecOL</title>
<a xlink:title="meta">
<path fill="none" stroke="green" d="M407.364,-340.938C319.136,-333.757 42,-308.235 42,-271 42,-271 42,-271 42,-121 42,-101.244 44.8914,-79.14 47.7094,-62.2885"/>
<polygon fill="green" stroke="green" points="51.2249,-62.5074 49.5195,-52.0507 44.3319,-61.2886 51.2249,-62.5074"/>
</a>
</g>
<!-- http://cds.omdoc.org/urtheories?LF&#45;&gt;http://latin.omdoc.org/logics/syntax?UniverseLogic -->
<g id="edge29" class="edge"><title>http://cds.omdoc.org/urtheories?LF&#45;&gt;http://latin.omdoc.org/logics/syntax?UniverseLogic</title>
<a xlink:title="meta">
<path fill="none" stroke="green" d="M412.84,-332.76C401.236,-326.548 387.013,-317.915 376,-308 347.811,-282.622 322.613,-246.64 307.334,-222.595"/>
<polygon fill="green" stroke="green" points="310.242,-220.643 301.979,-214.011 304.303,-224.348 310.242,-220.643"/>
</a>
</g>
<!-- http://cds.omdoc.org/urtheories?LF&#45;&gt;http://latin.omdoc.org/logics/syntax?Exists -->
<g id="edge33" class="edge"><title>http://cds.omdoc.org/urtheories?LF&#45;&gt;http://latin.omdoc.org/logics/syntax?Exists</title>
<a xlink:title="meta">
<path fill="none" stroke="green" d="M426.835,-326.435C424.483,-320.663 421.969,-314.104 420,-308 402.148,-252.672 387.137,-186.169 379.473,-149.877"/>
<polygon fill="green" stroke="green" points="382.892,-149.127 377.423,-140.053 376.04,-150.557 382.892,-149.127"/>
</a>
</g>
<!-- http://cds.omdoc.org/urtheories?LF&#45;&gt;http://latin.omdoc.org/logics/syntax?Forall -->
<g id="edge25" class="edge"><title>http://cds.omdoc.org/urtheories?LF&#45;&gt;http://latin.omdoc.org/logics/syntax?Forall</title>
<a xlink:title="meta">
<path fill="none" stroke="green" d="M406.94,-342.223C340.32,-339.682 171.289,-329.222 137,-288 104.954,-249.475 177.21,-183.777 184,-178 209.781,-156.068 224.189,-164.031 254,-148 257.499,-146.118 261.091,-144.01 264.603,-141.838"/>
<polygon fill="green" stroke="green" points="266.551,-144.747 273.074,-136.398 262.768,-138.857 266.551,-144.747"/>
</a>
</g>
<!-- http://latin.omdoc.org/logics/syntax?FOLEQ -->
<g id="node17" class="node"><title>http://latin.omdoc.org/logics/syntax?FOLEQ</title>
<a xlink:href="javascript:parent.navigate(&#39;http://latin.omdoc.org/logics/syntax?FOLEQ&#39;)" xlink:title="theory http://latin.omdoc.org/logics/syntax?FOLEQ">
<ellipse fill="gray" stroke="black" cx="502" cy="-270" rx="39.9464" ry="18"/>
<text text-anchor="middle" x="502" y="-266.3" font-family="Times New Roman,serif" font-size="14.00">FOLEQ</text>
</a>
</g>
<!-- http://cds.omdoc.org/urtheories?LF&#45;&gt;http://latin.omdoc.org/logics/syntax?FOLEQ -->
<g id="edge27" class="edge"><title>http://cds.omdoc.org/urtheories?LF&#45;&gt;http://latin.omdoc.org/logics/syntax?FOLEQ</title>
<a xlink:title="meta">
<path fill="none" stroke="green" d="M447.761,-328.43C457.031,-318.614 469.458,-305.457 480.077,-294.212"/>
<polygon fill="green" stroke="green" points="482.758,-296.471 487.08,-286.798 477.669,-291.665 482.758,-296.471"/>
</a>
</g>
<!-- http://latin.omdoc.org/logics/syntax?Equiv -->
<g id="node19" class="node"><title>http://latin.omdoc.org/logics/syntax?Equiv</title>
<a xlink:href="javascript:parent.navigate(&#39;http://latin.omdoc.org/logics/syntax?Equiv&#39;)" xlink:title="theory http://latin.omdoc.org/logics/syntax?Equiv">
<ellipse fill="gray" stroke="black" cx="592" cy="-270" rx="31.2735" ry="18"/>
<text text-anchor="middle" x="592" y="-266.3" font-family="Times New Roman,serif" font-size="14.00">Equiv</text>
</a>
</g>
<!-- http://cds.omdoc.org/urtheories?LF&#45;&gt;http://latin.omdoc.org/logics/syntax?Equiv -->
<g id="edge35" class="edge"><title>http://cds.omdoc.org/urtheories?LF&#45;&gt;http://latin.omdoc.org/logics/syntax?Equiv</title>
<a xlink:title="meta">
<path fill="none" stroke="green" d="M455.638,-333.14C482.292,-320.993 527.848,-300.234 558.907,-286.08"/>
<polygon fill="green" stroke="green" points="560.395,-289.249 568.043,-281.917 557.492,-282.879 560.395,-289.249"/>
</a>
</g>
<!-- http://latin.omdoc.org/logics/syntax?Exists&#45;&gt;http://latin.omdoc.org/logics/syntax?SecOL -->
<g id="edge11" class="edge"><title>http://latin.omdoc.org/logics/syntax?Exists&#45;&gt;http://latin.omdoc.org/logics/syntax?SecOL</title>
<a xlink:href="javascript:parent.navigate(&#39;http://latin.omdoc.org/logics/syntax?SecOL?ee&#39;)" xlink:title="structure http://latin.omdoc.org/logics/syntax?SecOL?ee">
<path fill="none" stroke="red" stroke-width="2" d="M350.993,-109.222C322.202,-94.4844 272.671,-69.1293 239.629,-52.2147"/>
<polygon fill="red" stroke="red" points="240.858,-48.9119 230.361,-47.4707 237.668,-55.143 240.858,-48.9119"/>
</a>
<a xlink:href="javascript:parent.navigate(&#39;http://latin.omdoc.org/logics/syntax?SecOL?ee&#39;)" xlink:title="ee">
<text text-anchor="middle" x="312.5" y="-74.3" font-family="Times New Roman,serif" font-size="14.00">ee</text>
</a>
</g>
<!-- http://latin.omdoc.org/logics/syntax?Forall&#45;&gt;http://latin.omdoc.org/logics/syntax?SecOL -->
<g id="edge13" class="edge"><title>http://latin.omdoc.org/logics/syntax?Forall&#45;&gt;http://latin.omdoc.org/logics/syntax?SecOL</title>
<a xlink:href="javascript:parent.navigate(&#39;http://latin.omdoc.org/logics/syntax?SecOL?ff&#39;)" xlink:title="structure http://latin.omdoc.org/logics/syntax?SecOL?ff">
<path fill="none" stroke="red" stroke-width="2" d="M277.02,-106.02C263.62,-92.6204 243.791,-72.7911 228.488,-57.4882"/>
<polygon fill="red" stroke="red" points="230.933,-54.9837 221.387,-50.3875 225.984,-59.9335 230.933,-54.9837"/>
</a>
<a xlink:href="javascript:parent.navigate(&#39;http://latin.omdoc.org/logics/syntax?SecOL?ff&#39;)" xlink:title="ff">
<text text-anchor="middle" x="262" y="-74.3" font-family="Times New Roman,serif" font-size="14.00">ff</text>
</a>
</g>
<!-- http://latin.omdoc.org/logics/syntax?FOLEQ&#45;&gt;http://latin.omdoc.org/logics/syntax?SecOL -->
<g id="edge17" class="edge"><title>http://latin.omdoc.org/logics/syntax?FOLEQ&#45;&gt;http://latin.omdoc.org/logics/syntax?SecOL</title>
<a xlink:title="include">
<path fill="none" stroke="black" d="M503.053,-251.996C504.437,-213.174 501.871,-117.7 448,-70 419.834,-45.0596 314.662,-37.877 252.619,-35.8181"/>
<polygon fill="black" stroke="black" points="252.408,-32.3103 242.308,-35.5098 252.199,-39.3072 252.408,-32.3103"/>
</a>
</g>
<!-- http://latin.omdoc.org/logics/syntax?Equiv&#45;&gt;http://latin.omdoc.org/logics/syntax?SecOL -->
<g id="edge19" class="edge"><title>http://latin.omdoc.org/logics/syntax?Equiv&#45;&gt;http://latin.omdoc.org/logics/syntax?SecOL</title>
<a xlink:title="include">
<path fill="none" stroke="black" d="M587.635,-252.092C576.185,-211.71 541.074,-110.04 469,-70 432.785,-49.8813 317.617,-40.7554 252.328,-37.107"/>
<polygon fill="black" stroke="black" points="252.471,-33.6097 242.297,-36.5676 252.095,-40.5996 252.471,-33.6097"/>
</a>
</g>
</g>
</svg>
