<?xml version="1.0" encoding="UTF-8" standalone="no"?>
<!DOCTYPE svg PUBLIC "-//W3C//DTD SVG 1.1//EN"
 "http://www.w3.org/Graphics/SVG/1.1/DTD/svg11.dtd">
<!-- Generated by graphviz version 2.28.0 (20110507.0327)
 -->
<!-- Title: MMT Pages: 1 -->
<svg width="465pt" height="456pt"
 viewBox="0.00 0.00 465.00 456.00" xmlns="http://www.w3.org/2000/svg" xmlns:xlink="http://www.w3.org/1999/xlink">
<g id="graph1" class="graph" transform="scale(1 1) rotate(0) translate(4 452)">
<title>MMT</title>
<polygon fill="white" stroke="white" points="-4,5 -4,-452 462,-452 462,5 -4,5"/>
<g id="graph2" class="cluster"><title>cluster_local</title>
<polygon fill="none" stroke="black" points="209,-80 209,-132 313,-132 313,-80 209,-80"/>
</g>
<!-- http://latin.omdoc.org/translations/ml_fol?ML&#45;FOL -->
<g id="node2" class="node"><title>http://latin.omdoc.org/translations/ml_fol?ML&#45;FOL</title>
<a xlink:href="http://latin.omdoc.org/translations/ml_fol?ML-FOL" class="graphtheory">
<ellipse fill="none" stroke="black" cx="261" cy="-106" rx="44.2946" ry="18"/>
<text text-anchor="middle" x="261" y="-102.3" font-family="Times New Roman,serif" font-size="14.00">ML&#45;FOL</text>
</a>
</g>
<!-- http://latin.omdoc.org/translations/ml_fol?ML&#45;FOLMOD -->
<g id="node3" class="node"><title>http://latin.omdoc.org/translations/ml_fol?ML&#45;FOLMOD</title>
<a xlink:href="http://latin.omdoc.org/translations/ml_fol?ML-FOLMOD" class="graphtheory">
<ellipse fill="gray" stroke="black" cx="65" cy="-18" rx="65.4659" ry="18"/>
<text text-anchor="middle" x="65" y="-14.3" font-family="Times New Roman,serif" font-size="14.00">ML&#45;FOLMOD</text>
</a>
</g>
<!-- http://latin.omdoc.org/translations/ml_fol?ML&#45;FOL&#45;&gt;http://latin.omdoc.org/translations/ml_fol?ML&#45;FOLMOD -->
<g id="edge3" class="edge"><title>http://latin.omdoc.org/translations/ml_fol?ML&#45;FOL&#45;&gt;http://latin.omdoc.org/translations/ml_fol?ML&#45;FOLMOD</title>
<a xlink:href="http://latin.omdoc.org/translations/ml_fol?ML-FOLMOD?po" class="graphstructure">
<path fill="none" stroke="black" d="M235.553,-91.2087C228.329,-87.441 220.411,-83.4489 213,-80 179.383,-64.3558 140.608,-48.4497 111.181,-36.8038"/>
<polygon fill="black" stroke="black" points="112.168,-33.4309 101.581,-33.0241 109.604,-39.9443 112.168,-33.4309"/>
</a>
<a xlink:href="http://latin.omdoc.org/translations/ml_fol?ML-FOLMOD?po" class="po">
<text text-anchor="middle" x="198" y="-58.3" font-family="Times New Roman,serif" font-size="14.00">po</text>
</a>
</g>
<!-- http://latin.omdoc.org/logics/syntax?Possibility -->
<g id="node5" class="node"><title>http://latin.omdoc.org/logics/syntax?Possibility</title>
<a xlink:href="http://latin.omdoc.org/logics/syntax?Possibility" class="graphtheory">
<ellipse fill="gray" stroke="black" cx="114" cy="-282" rx="48.1437" ry="18"/>
<text text-anchor="middle" x="114" y="-278.3" font-family="Times New Roman,serif" font-size="14.00">Possibility</text>
</a>
</g>
<!-- http://latin.omdoc.org/logics/syntax?Possibility&#45;&gt;http://latin.omdoc.org/translations/ml_fol?ML&#45;FOL -->
<g id="edge5" class="edge"><title>http://latin.omdoc.org/logics/syntax?Possibility&#45;&gt;http://latin.omdoc.org/translations/ml_fol?ML&#45;FOL</title>
<a xlink:href="http://latin.omdoc.org/translations/ml_fol?Possibility" class="graphview">
<path fill="none" stroke="black" d="M98.2818,-264.818C79.1007,-243.06 51.5986,-203.889 72,-176 110.759,-123.016 152.112,-156.539 213,-132 217.553,-130.165 222.248,-128.037 226.836,-125.813"/>
<polygon fill="black" stroke="black" points="228.674,-128.806 236.024,-121.175 225.52,-122.557 228.674,-128.806"/>
</a>
<a xlink:href="http://latin.omdoc.org/translations/ml_fol?Possibility" class="Possibility">
<text text-anchor="middle" x="101" y="-190.3" font-family="Times New Roman,serif" font-size="14.00">Possibility</text>
</a>
</g>
<!-- http://latin.omdoc.org/logics/syntax?ML -->
<g id="node7" class="node"><title>http://latin.omdoc.org/logics/syntax?ML</title>
<a xlink:href="http://latin.omdoc.org/logics/syntax?ML" class="graphtheory">
<ellipse fill="gray" stroke="black" cx="166" cy="-194" rx="27" ry="18"/>
<text text-anchor="middle" x="166" y="-190.3" font-family="Times New Roman,serif" font-size="14.00">ML</text>
</a>
</g>
<!-- http://latin.omdoc.org/logics/syntax?Possibility&#45;&gt;http://latin.omdoc.org/logics/syntax?ML -->
<g id="edge43" class="edge"><title>http://latin.omdoc.org/logics/syntax?Possibility&#45;&gt;http://latin.omdoc.org/logics/syntax?ML</title>
<a class="graphinclude">
<path fill="none" stroke="black" d="M124.274,-264.009C131.897,-251.4 142.411,-234.012 150.977,-219.845"/>
<polygon fill="black" stroke="black" points="154.096,-221.451 156.275,-211.083 148.106,-217.829 154.096,-221.451"/>
</a>
</g>
<!-- http://latin.omdoc.org/logics/syntax?ML&#45;&gt;http://latin.omdoc.org/translations/ml_fol?ML&#45;FOL -->
<g id="edge7" class="edge"><title>http://latin.omdoc.org/logics/syntax?ML&#45;&gt;http://latin.omdoc.org/translations/ml_fol?ML&#45;FOL</title>
<a xlink:href="http://latin.omdoc.org/translations/ml_fol?ML" class="graphview">
<path fill="none" stroke="black" d="M172.22,-176.224C176.897,-165.405 184.186,-151.613 194,-142 194.18,-141.823 209.701,-133.712 225.757,-125.344"/>
<polygon fill="black" stroke="black" points="227.387,-128.441 234.638,-120.717 224.153,-122.233 227.387,-128.441"/>
</a>
<a xlink:href="http://latin.omdoc.org/translations/ml_fol?ML" class="ML">
<text text-anchor="middle" x="204.5" y="-146.3" font-family="Times New Roman,serif" font-size="14.00">ML</text>
</a>
</g>
<!-- http://latin.omdoc.org/logics/syntax?MPL -->
<g id="node9" class="node"><title>http://latin.omdoc.org/logics/syntax?MPL</title>
<a xlink:href="http://latin.omdoc.org/logics/syntax?MPL" class="graphtheory">
<ellipse fill="gray" stroke="black" cx="209" cy="-282" rx="29.3722" ry="18"/>
<text text-anchor="middle" x="209" y="-278.3" font-family="Times New Roman,serif" font-size="14.00">MPL</text>
</a>
</g>
<!-- http://latin.omdoc.org/logics/syntax?MPL&#45;&gt;http://latin.omdoc.org/translations/ml_fol?ML&#45;FOL -->
<g id="edge9" class="edge"><title>http://latin.omdoc.org/logics/syntax?MPL&#45;&gt;http://latin.omdoc.org/translations/ml_fol?ML&#45;FOL</title>
<a xlink:href="http://latin.omdoc.org/translations/ml_fol?MPL" class="graphview">
<path fill="none" stroke="black" d="M214.081,-263.999C223.129,-233.723 242.099,-170.245 252.943,-133.962"/>
<polygon fill="black" stroke="black" points="256.389,-134.653 255.899,-124.07 249.682,-132.649 256.389,-134.653"/>
</a>
<a xlink:href="http://latin.omdoc.org/translations/ml_fol?MPL" class="MPL">
<text text-anchor="middle" x="255.5" y="-190.3" font-family="Times New Roman,serif" font-size="14.00">MPL</text>
</a>
</g>
<!-- http://latin.omdoc.org/logics/syntax?MPL&#45;&gt;http://latin.omdoc.org/logics/syntax?ML -->
<g id="edge41" class="edge"><title>http://latin.omdoc.org/logics/syntax?MPL&#45;&gt;http://latin.omdoc.org/logics/syntax?ML</title>
<a class="graphinclude">
<path fill="none" stroke="black" d="M200.709,-264.418C194.483,-251.966 185.844,-234.687 178.742,-220.484"/>
<polygon fill="black" stroke="black" points="181.722,-218.618 174.12,-211.239 175.461,-221.749 181.722,-218.618"/>
</a>
</g>
<!-- http://latin.omdoc.org/logics/syntax?Necessity -->
<g id="node11" class="node"><title>http://latin.omdoc.org/logics/syntax?Necessity</title>
<a xlink:href="http://latin.omdoc.org/logics/syntax?Necessity" class="graphtheory">
<ellipse fill="gray" stroke="black" cx="302" cy="-282" rx="46.2191" ry="18"/>
<text text-anchor="middle" x="302" y="-278.3" font-family="Times New Roman,serif" font-size="14.00">Necessity</text>
</a>
</g>
<!-- http://latin.omdoc.org/logics/syntax?Necessity&#45;&gt;http://latin.omdoc.org/translations/ml_fol?ML&#45;FOL -->
<g id="edge11" class="edge"><title>http://latin.omdoc.org/logics/syntax?Necessity&#45;&gt;http://latin.omdoc.org/translations/ml_fol?ML&#45;FOL</title>
<a xlink:href="http://latin.omdoc.org/translations/ml_fol?Necessity" class="graphview">
<path fill="none" stroke="black" d="M297.994,-263.999C290.86,-233.723 275.903,-170.245 267.353,-133.962"/>
<polygon fill="black" stroke="black" points="270.722,-133 265.022,-124.07 263.909,-134.606 270.722,-133"/>
</a>
<a xlink:href="http://latin.omdoc.org/translations/ml_fol?Necessity" class="Necessity">
<text text-anchor="middle" x="313.5" y="-190.3" font-family="Times New Roman,serif" font-size="14.00">Necessity</text>
</a>
</g>
<!-- http://latin.omdoc.org/logics/syntax?Necessity&#45;&gt;http://latin.omdoc.org/logics/syntax?ML -->
<g id="edge39" class="edge"><title>http://latin.omdoc.org/logics/syntax?Necessity&#45;&gt;http://latin.omdoc.org/logics/syntax?ML</title>
<a class="graphinclude">
<path fill="none" stroke="black" d="M278.929,-266.411C255.441,-251.558 219.008,-228.52 193.909,-212.648"/>
<polygon fill="black" stroke="black" points="195.542,-209.54 185.22,-207.154 191.801,-215.456 195.542,-209.54"/>
</a>
</g>
<!-- http://latin.omdoc.org/logics/syntax?Logic -->
<g id="node13" class="node"><title>http://latin.omdoc.org/logics/syntax?Logic</title>
<a xlink:href="http://latin.omdoc.org/logics/syntax?Logic" class="graphtheory">
<ellipse fill="gray" stroke="black" cx="269" cy="-356" rx="31.2735" ry="18"/>
<text text-anchor="middle" x="269" y="-352.3" font-family="Times New Roman,serif" font-size="14.00">Logic</text>
</a>
</g>
<!-- http://latin.omdoc.org/logics/syntax?Logic&#45;&gt;http://latin.omdoc.org/translations/ml_fol?ML&#45;FOL -->
<g id="edge13" class="edge"><title>http://latin.omdoc.org/logics/syntax?Logic&#45;&gt;http://latin.omdoc.org/translations/ml_fol?ML&#45;FOL</title>
<a xlink:href="http://latin.omdoc.org/translations/ml_fol?Base" class="graphview">
<path fill="none" stroke="black" d="M295.87,-346.345C316.682,-338.06 344.074,-323.322 357,-300 364.756,-286.006 358.083,-279.963 357,-264 354.327,-224.618 364.247,-210.463 345,-176 333.454,-155.326 313.048,-138.343 295.241,-126.399"/>
<polygon fill="black" stroke="black" points="297.062,-123.409 286.757,-120.946 293.277,-129.297 297.062,-123.409"/>
</a>
<a xlink:href="http://latin.omdoc.org/translations/ml_fol?Base" class="Base">
<text text-anchor="middle" x="372" y="-234.3" font-family="Times New Roman,serif" font-size="14.00">Base</text>
</a>
</g>
<!-- http://latin.omdoc.org/logics/syntax?Logic&#45;&gt;http://latin.omdoc.org/logics/syntax?Possibility -->
<g id="edge33" class="edge"><title>http://latin.omdoc.org/logics/syntax?Logic&#45;&gt;http://latin.omdoc.org/logics/syntax?Possibility</title>
<a class="graphinclude">
<path fill="none" stroke="black" d="M245.459,-344.065C220.699,-332.564 181.353,-314.286 152.151,-300.722"/>
<polygon fill="black" stroke="black" points="153.601,-297.536 143.058,-296.498 150.652,-303.885 153.601,-297.536"/>
</a>
</g>
<!-- http://latin.omdoc.org/logics/syntax?Logic&#45;&gt;http://latin.omdoc.org/logics/syntax?MPL -->
<g id="edge35" class="edge"><title>http://latin.omdoc.org/logics/syntax?Logic&#45;&gt;http://latin.omdoc.org/logics/syntax?MPL</title>
<a class="graphinclude">
<path fill="none" stroke="black" d="M261.075,-338.43C257.521,-331.77 253.002,-324.214 248,-318 243.882,-312.884 238.985,-307.871 234.076,-303.309"/>
<polygon fill="black" stroke="black" points="236.268,-300.574 226.463,-296.561 231.625,-305.813 236.268,-300.574"/>
</a>
</g>
<!-- http://latin.omdoc.org/logics/syntax?Logic&#45;&gt;http://latin.omdoc.org/logics/syntax?Necessity -->
<g id="edge37" class="edge"><title>http://latin.omdoc.org/logics/syntax?Logic&#45;&gt;http://latin.omdoc.org/logics/syntax?Necessity</title>
<a class="graphinclude">
<path fill="none" stroke="black" d="M276.654,-338.301C280.595,-329.702 285.492,-319.016 289.929,-309.338"/>
<polygon fill="black" stroke="black" points="293.174,-310.658 294.159,-300.109 286.81,-307.741 293.174,-310.658"/>
</a>
</g>
<!-- http://latin.omdoc.org/logics/syntax?FOL -->
<g id="node15" class="node"><title>http://latin.omdoc.org/logics/syntax?FOL</title>
<a xlink:href="http://latin.omdoc.org/logics/syntax?FOL" class="graphtheory">
<ellipse fill="gray" stroke="black" cx="400" cy="-356" rx="28.3955" ry="18"/>
<text text-anchor="middle" x="400" y="-352.3" font-family="Times New Roman,serif" font-size="14.00">FOL</text>
</a>
</g>
<!-- http://latin.omdoc.org/logics/syntax?FOL&#45;&gt;http://latin.omdoc.org/translations/ml_fol?ML&#45;FOL -->
<g id="edge15" class="edge"><title>http://latin.omdoc.org/logics/syntax?FOL&#45;&gt;http://latin.omdoc.org/translations/ml_fol?ML&#45;FOL</title>
<a class="graphinclude">
<path fill="none" stroke="black" d="M400.521,-337.697C400.83,-313.273 399.839,-267.482 390,-230 383.285,-204.419 378.67,-198.64 365,-176 355.167,-159.715 353.912,-153.811 339,-142 328.626,-133.783 316.016,-127.044 303.986,-121.75"/>
<polygon fill="black" stroke="black" points="305.094,-118.421 294.517,-117.814 302.407,-124.885 305.094,-118.421"/>
</a>
</g>
<!-- http://cds.omdoc.org/urtheories?LF -->
<g id="node17" class="node"><title>http://cds.omdoc.org/urtheories?LF</title>
<a xlink:href="http://cds.omdoc.org/urtheories?LF" class="graphtheory">
<ellipse fill="gray" stroke="black" cx="230" cy="-430" rx="27" ry="18"/>
<text text-anchor="middle" x="230" y="-426.3" font-family="Times New Roman,serif" font-size="14.00">LF</text>
</a>
</g>
<!-- http://cds.omdoc.org/urtheories?LF&#45;&gt;http://latin.omdoc.org/translations/ml_fol?ML&#45;FOL -->
<g id="edge17" class="edge"><title>http://cds.omdoc.org/urtheories?LF&#45;&gt;http://latin.omdoc.org/translations/ml_fol?ML&#45;FOL</title>
<a class="graphmeta">
<path fill="none" stroke="black" d="M256.484,-426.263C316.364,-419.343 457,-398.655 457,-357 457,-357 457,-357 457,-193 457,-130.778 373.145,-113.16 315.133,-108.416"/>
<polygon fill="black" stroke="black" points="315.209,-104.913 304.986,-107.694 314.713,-111.895 315.209,-104.913"/>
</a>
</g>
<!-- http://cds.omdoc.org/urtheories?LF&#45;&gt;http://latin.omdoc.org/translations/ml_fol?ML&#45;FOLMOD -->
<g id="edge29" class="edge"><title>http://cds.omdoc.org/urtheories?LF&#45;&gt;http://latin.omdoc.org/translations/ml_fol?ML&#45;FOLMOD</title>
<a class="graphmeta">
<path fill="none" stroke="black" d="M203.166,-426.331C142.494,-419.556 0,-399.155 0,-357 0,-357 0,-357 0,-105 0,-79.8439 17.9194,-57.3957 34.9408,-41.747"/>
<polygon fill="black" stroke="black" points="37.388,-44.257 42.6307,-35.0502 32.7909,-38.9781 37.388,-44.257"/>
</a>
</g>
<!-- http://cds.omdoc.org/urtheories?LF&#45;&gt;http://latin.omdoc.org/logics/syntax?Possibility -->
<g id="edge25" class="edge"><title>http://cds.omdoc.org/urtheories?LF&#45;&gt;http://latin.omdoc.org/logics/syntax?Possibility</title>
<a class="graphmeta">
<path fill="none" stroke="black" d="M217.805,-413.651C197.707,-388.355 157.462,-337.702 133.414,-307.435"/>
<polygon fill="black" stroke="black" points="136.052,-305.129 127.091,-299.476 130.571,-309.483 136.052,-305.129"/>
</a>
</g>
<!-- http://cds.omdoc.org/urtheories?LF&#45;&gt;http://latin.omdoc.org/logics/syntax?ML -->
<g id="edge27" class="edge"><title>http://cds.omdoc.org/urtheories?LF&#45;&gt;http://latin.omdoc.org/logics/syntax?ML</title>
<a class="graphmeta">
<path fill="none" stroke="black" d="M207.139,-420.142C167.817,-403.491 88.5638,-363.386 57,-300 49.8679,-285.678 49.284,-278.017 57,-264 61.4781,-255.865 105.899,-229.312 136.632,-211.619"/>
<polygon fill="black" stroke="black" points="138.732,-214.449 145.671,-206.443 135.253,-208.375 138.732,-214.449"/>
</a>
</g>
<!-- http://cds.omdoc.org/urtheories?LF&#45;&gt;http://latin.omdoc.org/logics/syntax?MPL -->
<g id="edge19" class="edge"><title>http://cds.omdoc.org/urtheories?LF&#45;&gt;http://latin.omdoc.org/logics/syntax?MPL</title>
<a class="graphmeta">
<path fill="none" stroke="black" d="M227.55,-411.966C223.965,-387.045 217.252,-340.374 212.961,-310.537"/>
<polygon fill="black" stroke="black" points="216.388,-309.778 211.5,-300.378 209.459,-310.774 216.388,-309.778"/>
</a>
</g>
<!-- http://cds.omdoc.org/urtheories?LF&#45;&gt;http://latin.omdoc.org/logics/syntax?Necessity -->
<g id="edge21" class="edge"><title>http://cds.omdoc.org/urtheories?LF&#45;&gt;http://latin.omdoc.org/logics/syntax?Necessity</title>
<a class="graphmeta">
<path fill="none" stroke="black" d="M253.072,-420.121C271.932,-411.484 297.318,-396.368 309,-374 319.336,-354.21 316.173,-328.636 311.24,-309.641"/>
<polygon fill="black" stroke="black" points="314.544,-308.469 308.392,-299.844 307.823,-310.423 314.544,-308.469"/>
</a>
</g>
<!-- http://cds.omdoc.org/urtheories?LF&#45;&gt;http://latin.omdoc.org/logics/syntax?Logic -->
<g id="edge31" class="edge"><title>http://cds.omdoc.org/urtheories?LF&#45;&gt;http://latin.omdoc.org/logics/syntax?Logic</title>
<a class="graphmeta">
<path fill="none" stroke="black" d="M238.85,-412.662C243.618,-403.858 249.613,-392.792 254.998,-382.85"/>
<polygon fill="black" stroke="black" points="258.229,-384.233 259.915,-373.773 252.074,-380.899 258.229,-384.233"/>
</a>
</g>
<!-- http://cds.omdoc.org/urtheories?LF&#45;&gt;http://latin.omdoc.org/logics/syntax?FOL -->
<g id="edge23" class="edge"><title>http://cds.omdoc.org/urtheories?LF&#45;&gt;http://latin.omdoc.org/logics/syntax?FOL</title>
<a class="graphmeta">
<path fill="none" stroke="black" d="M256.063,-425.273C282.652,-420.698 324.506,-411.32 357,-394 364.577,-389.961 371.981,-384.381 378.45,-378.779"/>
<polygon fill="black" stroke="black" points="381.077,-381.12 386.088,-371.785 376.349,-375.957 381.077,-381.12"/>
</a>
</g>
</g>
</svg>
