<?xml version="1.0" encoding="UTF-8" standalone="no"?>
<!DOCTYPE svg PUBLIC "-//W3C//DTD SVG 1.1//EN"
 "http://www.w3.org/Graphics/SVG/1.1/DTD/svg11.dtd">
<!-- Generated by graphviz version 2.28.0 (20110507.0327)
 -->
<!-- Title: MMT Pages: 1 -->
<svg
 viewBox="0.00 0.00 2603.00 456.00" xmlns="http://www.w3.org/2000/svg" xmlns:xlink="http://www.w3.org/1999/xlink">
<g id="graph1" class="graph" transform="scale(1 1) rotate(0) translate(4 452)">
<title>MMT</title>
<polygon fill="white" stroke="white" points="-4,5 -4,-452 2600,-452 2600,5 -4,5"/>
<g id="graph2" class="cluster"><title>cluster_local</title>
<polygon fill="none" stroke="black" points="377,-80 377,-220 481,-220 481,-80 377,-80"/>
</g>
<!-- http://latin.omdoc.org/logics/syntax?MPL -->
<g id="node2" class="node"><title>http://latin.omdoc.org/logics/syntax?MPL</title>
<a xlink:href="http://latin.omdoc.org/logics/syntax?MPL" class="graphtheory">
<ellipse fill="none" stroke="black" cx="414" cy="-194" rx="29.3722" ry="18"/>
<text text-anchor="middle" x="414" y="-190.3" font-family="Times New Roman,serif" font-size="14.00">MPL</text>
</a>
</g>
<!-- http://latin.omdoc.org/translations/ml_fol?ML&#45;FOL -->
<g id="node3" class="node"><title>http://latin.omdoc.org/translations/ml_fol?ML&#45;FOL</title>
<a xlink:href="http://latin.omdoc.org/translations/ml_fol?ML-FOL" class="graphtheory">
<ellipse fill="none" stroke="black" cx="429" cy="-106" rx="44.2946" ry="18"/>
<text text-anchor="middle" x="429" y="-102.3" font-family="Times New Roman,serif" font-size="14.00">ML&#45;FOL</text>
</a>
</g>
<!-- http://latin.omdoc.org/logics/syntax?MPL&#45;&gt;http://latin.omdoc.org/translations/ml_fol?ML&#45;FOL -->
<g id="edge3" class="edge"><title>http://latin.omdoc.org/logics/syntax?MPL&#45;&gt;http://latin.omdoc.org/translations/ml_fol?ML&#45;FOL</title>
<a xlink:href="http://latin.omdoc.org/translations/ml_fol?MPL" class="graphview">
<path fill="none" stroke="black" d="M401.924,-177.285C395.669,-167.156 390.24,-153.732 395,-142 396.731,-137.734 399.259,-133.702 402.168,-129.997"/>
<polygon fill="black" stroke="black" points="404.882,-132.213 408.983,-122.444 399.685,-127.524 404.882,-132.213"/>
</a>
<a xlink:href="http://latin.omdoc.org/translations/ml_fol?MPL" class="MPL">
<text text-anchor="middle" x="409.5" y="-146.3" font-family="Times New Roman,serif" font-size="14.00">MPL</text>
</a>
</g>
<!-- http://latin.omdoc.org/logics/syntax?PL -->
<g id="node5" class="node"><title>http://latin.omdoc.org/logics/syntax?PL</title>
<a xlink:href="http://latin.omdoc.org/logics/syntax?PL" class="graphtheory">
<ellipse fill="gray" stroke="black" cx="417" cy="-282" rx="27" ry="18"/>
<text text-anchor="middle" x="417" y="-278.3" font-family="Times New Roman,serif" font-size="14.00">PL</text>
</a>
</g>
<!-- http://latin.omdoc.org/logics/syntax?MPL&#45;&gt;http://latin.omdoc.org/logics/syntax?PL -->
<g id="edge5" class="edge"><title>http://latin.omdoc.org/logics/syntax?MPL&#45;&gt;http://latin.omdoc.org/logics/syntax?PL</title>
<a xlink:href="http://latin.omdoc.org/logics/syntax?MPL-PL" class="graphview">
<path fill="none" stroke="black" d="M414.596,-212.084C415.007,-223.861 415.562,-239.774 416.035,-253.342"/>
<polygon fill="black" stroke="black" points="412.546,-253.725 416.393,-263.597 419.542,-253.481 412.546,-253.725"/>
</a>
<a xlink:href="http://latin.omdoc.org/logics/syntax?MPL-PL" class="MPL&#45;PL">
<text text-anchor="middle" x="441" y="-234.3" font-family="Times New Roman,serif" font-size="14.00">MPL&#45;PL</text>
</a>
</g>
<!-- http://latin.omdoc.org/logics/model_theory/kripke?Kripke -->
<g id="node7" class="node"><title>http://latin.omdoc.org/logics/model_theory/kripke?Kripke</title>
<a xlink:href="http://latin.omdoc.org/logics/model_theory/kripke?Kripke" class="graphtheory">
<ellipse fill="gray" stroke="black" cx="2320" cy="-106" rx="35.1455" ry="18"/>
<text text-anchor="middle" x="2320" y="-102.3" font-family="Times New Roman,serif" font-size="14.00">Kripke</text>
</a>
</g>
<!-- http://latin.omdoc.org/logics/syntax?MPL&#45;&gt;http://latin.omdoc.org/logics/model_theory/kripke?Kripke -->
<g id="edge7" class="edge"><title>http://latin.omdoc.org/logics/syntax?MPL&#45;&gt;http://latin.omdoc.org/logics/model_theory/kripke?Kripke</title>
<a xlink:href="http://latin.omdoc.org/logics/model_theory/kripke?MPL" class="graphview">
<path fill="none" stroke="black" d="M434.025,-180.886C438.181,-178.893 442.629,-177.116 447,-176 526.474,-155.704 1103.14,-163.242 1185,-158 1253.67,-153.602 1270.35,-146.785 1339,-142 1698.97,-116.908 2134.56,-109.38 2274.44,-107.527"/>
<polygon fill="black" stroke="black" points="2274.81,-111.022 2284.76,-107.393 2274.72,-104.023 2274.81,-111.022"/>
</a>
<a xlink:href="http://latin.omdoc.org/logics/model_theory/kripke?MPL" class="MPL">
<text text-anchor="middle" x="1353.5" y="-146.3" font-family="Times New Roman,serif" font-size="14.00">MPL</text>
</a>
</g>
<!-- http://latin.omdoc.org/translations/ml_fol?ML -->
<g id="node9" class="node"><title>http://latin.omdoc.org/translations/ml_fol?ML</title>
<a xlink:href="http://latin.omdoc.org/translations/ml_fol?ML" class="graphtheory">
<ellipse fill="gray" stroke="black" cx="1036" cy="-106" rx="27" ry="18"/>
<text text-anchor="middle" x="1036" y="-102.3" font-family="Times New Roman,serif" font-size="14.00">ML</text>
</a>
</g>
<!-- http://latin.omdoc.org/logics/syntax?MPL&#45;&gt;http://latin.omdoc.org/translations/ml_fol?ML -->
<g id="edge9" class="edge"><title>http://latin.omdoc.org/logics/syntax?MPL&#45;&gt;http://latin.omdoc.org/translations/ml_fol?ML</title>
<a xlink:href="http://latin.omdoc.org/translations/ml_fol?ML?[http://latin.omdoc.org/logics/syntax?MPL]" class="graphstructure">
<path fill="none" stroke="black" d="M433.573,-180.323C453.624,-168.072 486.145,-150.2 517,-142 608.04,-117.806 895.358,-109.801 998.599,-107.667"/>
<polygon fill="black" stroke="black" points="998.923,-111.161 1008.85,-107.462 998.783,-104.162 998.923,-111.161"/>
</a>
<a xlink:href="http://latin.omdoc.org/translations/ml_fol?ML?[http://latin.omdoc.org/logics/syntax?MPL]" class="[http://latin.omdoc.org/logics/syntax?MPL]">
<text text-anchor="middle" x="637.5" y="-146.3" font-family="Times New Roman,serif" font-size="14.00">[http://latin.omdoc.org/logics/syntax?MPL]</text>
</a>
</g>
<!-- http://latin.omdoc.org/logics/proof_theory?MPL&#45;CPL -->
<g id="node11" class="node"><title>http://latin.omdoc.org/logics/proof_theory?MPL&#45;CPL</title>
<a xlink:href="http://latin.omdoc.org/logics/proof_theory?MPL-CPL" class="graphtheory">
<ellipse fill="gray" stroke="black" cx="126" cy="-106" rx="49.0941" ry="18"/>
<text text-anchor="middle" x="126" y="-102.3" font-family="Times New Roman,serif" font-size="14.00">MPL&#45;CPL</text>
</a>
</g>
<!-- http://latin.omdoc.org/logics/syntax?MPL&#45;&gt;http://latin.omdoc.org/logics/proof_theory?MPL&#45;CPL -->
<g id="edge11" class="edge"><title>http://latin.omdoc.org/logics/syntax?MPL&#45;&gt;http://latin.omdoc.org/logics/proof_theory?MPL&#45;CPL</title>
<a xlink:href="http://latin.omdoc.org/logics/proof_theory?MPL-CPL?[http://latin.omdoc.org/logics/syntax?MPL]" class="graphstructure">
<path fill="none" stroke="black" d="M393.569,-180.897C389.52,-178.957 385.216,-177.197 381,-176 331.255,-161.88 191.317,-187.72 149,-158 140.828,-152.261 135.51,-142.905 132.072,-133.764"/>
<polygon fill="black" stroke="black" points="135.374,-132.598 129.033,-124.111 128.697,-134.7 135.374,-132.598"/>
</a>
<a xlink:href="http://latin.omdoc.org/logics/proof_theory?MPL-CPL?[http://latin.omdoc.org/logics/syntax?MPL]" class="[http://latin.omdoc.org/logics/syntax?MPL]">
<text text-anchor="middle" x="269.5" y="-146.3" font-family="Times New Roman,serif" font-size="14.00">[http://latin.omdoc.org/logics/syntax?MPL]</text>
</a>
</g>
<!-- http://latin.omdoc.org/logics/model_theory/kripke?ML -->
<g id="node13" class="node"><title>http://latin.omdoc.org/logics/model_theory/kripke?ML</title>
<a xlink:href="http://latin.omdoc.org/logics/model_theory/kripke?ML" class="graphtheory">
<ellipse fill="gray" stroke="black" cx="1309" cy="-106" rx="27" ry="18"/>
<text text-anchor="middle" x="1309" y="-102.3" font-family="Times New Roman,serif" font-size="14.00">ML</text>
</a>
</g>
<!-- http://latin.omdoc.org/logics/syntax?MPL&#45;&gt;http://latin.omdoc.org/logics/model_theory/kripke?ML -->
<g id="edge13" class="edge"><title>http://latin.omdoc.org/logics/syntax?MPL&#45;&gt;http://latin.omdoc.org/logics/model_theory/kripke?ML</title>
<a xlink:href="http://latin.omdoc.org/logics/model_theory/kripke?ML?[http://latin.omdoc.org/logics/syntax?MPL]" class="graphstructure">
<path fill="none" stroke="black" d="M434.412,-180.83C438.463,-178.896 442.773,-177.155 447,-176 513.778,-157.752 688.968,-163.191 758,-158 952.008,-143.411 1183.89,-119.988 1272.3,-110.838"/>
<polygon fill="black" stroke="black" points="1272.78,-114.307 1282.36,-109.794 1272.06,-107.345 1272.78,-114.307"/>
</a>
<a xlink:href="http://latin.omdoc.org/logics/model_theory/kripke?ML?[http://latin.omdoc.org/logics/syntax?MPL]" class="[http://latin.omdoc.org/logics/syntax?MPL]">
<text text-anchor="middle" x="1060.5" y="-146.3" font-family="Times New Roman,serif" font-size="14.00">[http://latin.omdoc.org/logics/syntax?MPL]</text>
</a>
</g>
<!-- http://latin.omdoc.org/logics/proof_theory?MPL -->
<g id="node15" class="node"><title>http://latin.omdoc.org/logics/proof_theory?MPL</title>
<a xlink:href="http://latin.omdoc.org/logics/proof_theory?MPL" class="graphtheory">
<ellipse fill="gray" stroke="black" cx="29" cy="-106" rx="29.3722" ry="18"/>
<text text-anchor="middle" x="29" y="-102.3" font-family="Times New Roman,serif" font-size="14.00">MPL</text>
</a>
</g>
<!-- http://latin.omdoc.org/logics/syntax?MPL&#45;&gt;http://latin.omdoc.org/logics/proof_theory?MPL -->
<g id="edge15" class="edge"><title>http://latin.omdoc.org/logics/syntax?MPL&#45;&gt;http://latin.omdoc.org/logics/proof_theory?MPL</title>
<a class="graphinclude">
<path fill="none" stroke="black" d="M393.574,-180.879C389.525,-178.941 385.219,-177.186 381,-176 274.181,-145.985 239.054,-187.163 132,-158 105.287,-150.723 77.2739,-136.353 57.2168,-124.716"/>
<polygon fill="black" stroke="black" points="58.98,-121.692 48.5945,-119.597 55.4064,-127.711 58.98,-121.692"/>
</a>
</g>
<!-- http://latin.omdoc.org/logics/syntax?ML -->
<g id="node17" class="node"><title>http://latin.omdoc.org/logics/syntax?ML</title>
<a xlink:href="http://latin.omdoc.org/logics/syntax?ML" class="graphtheory">
<ellipse fill="gray" stroke="black" cx="2019" cy="-194" rx="27" ry="18"/>
<text text-anchor="middle" x="2019" y="-190.3" font-family="Times New Roman,serif" font-size="14.00">ML</text>
</a>
</g>
<!-- http://latin.omdoc.org/logics/syntax?MPL&#45;&gt;http://latin.omdoc.org/logics/syntax?ML -->
<g id="edge17" class="edge"><title>http://latin.omdoc.org/logics/syntax?MPL&#45;&gt;http://latin.omdoc.org/logics/syntax?ML</title>
<a class="graphinclude">
<path fill="none" stroke="black" d="M423.675,-211.169C430.967,-222.231 442.085,-235.686 456,-242 494.272,-259.367 1930.01,-257.686 1969,-242 1981.21,-237.088 1992.11,-227.611 2000.6,-218.367"/>
<polygon fill="black" stroke="black" points="2003.27,-220.628 2007.13,-210.762 1997.96,-216.066 2003.27,-220.628"/>
</a>
</g>
<!-- http://latin.omdoc.org/translations/ml_fol?ML&#45;FOLMOD -->
<g id="node23" class="node"><title>http://latin.omdoc.org/translations/ml_fol?ML&#45;FOLMOD</title>
<a xlink:href="http://latin.omdoc.org/translations/ml_fol?ML-FOLMOD" class="graphtheory">
<ellipse fill="gray" stroke="black" cx="2319" cy="-18" rx="65.4659" ry="18"/>
<text text-anchor="middle" x="2319" y="-14.3" font-family="Times New Roman,serif" font-size="14.00">ML&#45;FOLMOD</text>
</a>
</g>
<!-- http://latin.omdoc.org/translations/ml_fol?ML&#45;FOL&#45;&gt;http://latin.omdoc.org/translations/ml_fol?ML&#45;FOLMOD -->
<g id="edge23" class="edge"><title>http://latin.omdoc.org/translations/ml_fol?ML&#45;FOL&#45;&gt;http://latin.omdoc.org/translations/ml_fol?ML&#45;FOLMOD</title>
<a xlink:href="http://latin.omdoc.org/translations/ml_fol?ML-FOLMOD?po" class="graphstructure">
<path fill="none" stroke="black" d="M452.075,-90.33C459.716,-86.208 468.457,-82.2419 477,-80 649.504,-34.7305 1918.68,-22.0447 2243.47,-19.5239"/>
<polygon fill="black" stroke="black" points="2243.74,-23.0221 2253.71,-19.4454 2243.68,-16.0223 2243.74,-23.0221"/>
</a>
<a xlink:href="http://latin.omdoc.org/translations/ml_fol?ML-FOLMOD?po" class="po">
<text text-anchor="middle" x="715" y="-58.3" font-family="Times New Roman,serif" font-size="14.00">po</text>
</a>
</g>
<!-- http://latin.omdoc.org/logics/syntax?PL&#45;&gt;http://latin.omdoc.org/logics/model_theory/kripke?Kripke -->
<g id="edge87" class="edge"><title>http://latin.omdoc.org/logics/syntax?PL&#45;&gt;http://latin.omdoc.org/logics/model_theory/kripke?Kripke</title>
<a xlink:href="http://latin.omdoc.org/logics/model_theory/kripke?PL" class="graphview">
<path fill="none" stroke="black" d="M443.853,-279.896C567.246,-274.666 1076.53,-251.331 1140,-220 1163.7,-208.301 1156.16,-187.417 1180,-176 1192.59,-169.969 2066.16,-121.101 2275.35,-109.475"/>
<polygon fill="black" stroke="black" points="2275.58,-112.968 2285.37,-108.919 2275.19,-105.979 2275.58,-112.968"/>
</a>
<a xlink:href="http://latin.omdoc.org/logics/model_theory/kripke?PL" class="PL">
<text text-anchor="middle" x="1188.5" y="-190.3" font-family="Times New Roman,serif" font-size="14.00">PL</text>
</a>
</g>
<!-- http://latin.omdoc.org/logics/syntax?FOL -->
<g id="node31" class="node"><title>http://latin.omdoc.org/logics/syntax?FOL</title>
<a xlink:href="http://latin.omdoc.org/logics/syntax?FOL" class="graphtheory">
<ellipse fill="gray" stroke="black" cx="337" cy="-194" rx="28.3955" ry="18"/>
<text text-anchor="middle" x="337" y="-190.3" font-family="Times New Roman,serif" font-size="14.00">FOL</text>
</a>
</g>
<!-- http://latin.omdoc.org/logics/syntax?PL&#45;&gt;http://latin.omdoc.org/logics/syntax?FOL -->
<g id="edge89" class="edge"><title>http://latin.omdoc.org/logics/syntax?PL&#45;&gt;http://latin.omdoc.org/logics/syntax?FOL</title>
<a class="graphinclude">
<path fill="none" stroke="black" d="M403.429,-266.411C390.978,-253.026 372.342,-232.993 357.975,-217.548"/>
<polygon fill="black" stroke="black" points="360.28,-214.887 350.906,-209.949 355.155,-219.655 360.28,-214.887"/>
</a>
</g>
<!-- http://latin.omdoc.org/logics/model_theory/kripke?Kripke&#45;&gt;http://latin.omdoc.org/translations/ml_fol?ML&#45;FOLMOD -->
<g id="edge85" class="edge"><title>http://latin.omdoc.org/logics/model_theory/kripke?Kripke&#45;&gt;http://latin.omdoc.org/translations/ml_fol?ML&#45;FOLMOD</title>
<a xlink:href="http://latin.omdoc.org/translations/ml_fol?Kripke" class="graphview">
<path fill="none" stroke="black" d="M2334.21,-89.3529C2341.44,-79.4757 2347.94,-66.3008 2344,-54 2342.92,-50.6267 2341.38,-47.3017 2339.59,-44.1231"/>
<polygon fill="black" stroke="black" points="2342.45,-42.0973 2334.05,-35.6334 2336.58,-45.9214 2342.45,-42.0973"/>
</a>
<a xlink:href="http://latin.omdoc.org/translations/ml_fol?Kripke" class="Kripke">
<text text-anchor="middle" x="2364" y="-58.3" font-family="Times New Roman,serif" font-size="14.00">Kripke</text>
</a>
</g>
<!-- http://latin.omdoc.org/logics/syntax?ML&#45;&gt;http://latin.omdoc.org/translations/ml_fol?ML&#45;FOL -->
<g id="edge27" class="edge"><title>http://latin.omdoc.org/logics/syntax?ML&#45;&gt;http://latin.omdoc.org/translations/ml_fol?ML&#45;FOL</title>
<a xlink:href="http://latin.omdoc.org/translations/ml_fol?ML" class="graphview">
<path fill="none" stroke="black" d="M1997.74,-182.596C1991.52,-179.991 1984.61,-177.51 1978,-176 1715.02,-115.933 1641.56,-152.269 1372,-142 1272.61,-138.214 574.853,-141.831 477,-124 474.32,-123.512 471.59,-122.895 468.861,-122.187"/>
<polygon fill="black" stroke="black" points="469.652,-118.771 459.07,-119.295 467.669,-125.485 469.652,-118.771"/>
</a>
<a xlink:href="http://latin.omdoc.org/translations/ml_fol?ML" class="ML">
<text text-anchor="middle" x="1887.5" y="-146.3" font-family="Times New Roman,serif" font-size="14.00">ML</text>
</a>
</g>
<!-- http://latin.omdoc.org/logics/syntax?ML&#45;&gt;http://latin.omdoc.org/logics/model_theory/kripke?Kripke -->
<g id="edge83" class="edge"><title>http://latin.omdoc.org/logics/syntax?ML&#45;&gt;http://latin.omdoc.org/logics/model_theory/kripke?Kripke</title>
<a xlink:href="http://latin.omdoc.org/logics/model_theory/kripke?ML" class="graphview">
<path fill="none" stroke="black" d="M2040.92,-183.276C2047.04,-180.739 2053.72,-178.124 2060,-176 2135.9,-150.323 2226.84,-128.072 2278.57,-116.188"/>
<polygon fill="black" stroke="black" points="2279.41,-119.587 2288.38,-113.951 2277.85,-112.762 2279.41,-119.587"/>
</a>
<a xlink:href="http://latin.omdoc.org/logics/model_theory/kripke?ML" class="ML">
<text text-anchor="middle" x="2183.5" y="-146.3" font-family="Times New Roman,serif" font-size="14.00">ML</text>
</a>
</g>
<!-- http://latin.omdoc.org/logics/syntax?Logic -->
<g id="node19" class="node"><title>http://latin.omdoc.org/logics/syntax?Logic</title>
<a xlink:href="http://latin.omdoc.org/logics/syntax?Logic" class="graphtheory">
<ellipse fill="gray" stroke="black" cx="722" cy="-356" rx="31.2735" ry="18"/>
<text text-anchor="middle" x="722" y="-352.3" font-family="Times New Roman,serif" font-size="14.00">Logic</text>
</a>
</g>
<!-- http://latin.omdoc.org/logics/syntax?Logic&#45;&gt;http://latin.omdoc.org/logics/syntax?MPL -->
<g id="edge19" class="edge"><title>http://latin.omdoc.org/logics/syntax?Logic&#45;&gt;http://latin.omdoc.org/logics/syntax?MPL</title>
<a class="graphinclude">
<path fill="none" stroke="black" d="M699.254,-343.236C655.295,-320.609 555.465,-269.745 470,-230 459.893,-225.3 456.622,-225.628 447,-220 444.355,-218.453 441.677,-216.728 439.048,-214.928"/>
<polygon fill="black" stroke="black" points="441.08,-212.077 430.929,-209.043 436.972,-217.745 441.08,-212.077"/>
</a>
</g>
<!-- http://latin.omdoc.org/logics/syntax?Logic&#45;&gt;http://latin.omdoc.org/translations/ml_fol?ML&#45;FOL -->
<g id="edge31" class="edge"><title>http://latin.omdoc.org/logics/syntax?Logic&#45;&gt;http://latin.omdoc.org/translations/ml_fol?ML&#45;FOL</title>
<a xlink:href="http://latin.omdoc.org/translations/ml_fol?Base" class="graphview">
<path fill="none" stroke="black" d="M727.332,-337.975C738.804,-297.589 760.742,-195.385 708,-142 689.907,-123.686 502.184,-129.343 477,-124 474.375,-123.443 471.697,-122.779 469.016,-122.041"/>
<polygon fill="black" stroke="black" points="469.969,-118.673 459.383,-119.106 467.929,-125.369 469.969,-118.673"/>
</a>
<a xlink:href="http://latin.omdoc.org/translations/ml_fol?Base" class="Base">
<text text-anchor="middle" x="756" y="-234.3" font-family="Times New Roman,serif" font-size="14.00">Base</text>
</a>
</g>
<!-- http://latin.omdoc.org/logics/syntax?Logic&#45;&gt;http://latin.omdoc.org/logics/syntax?PL -->
<g id="edge79" class="edge"><title>http://latin.omdoc.org/logics/syntax?Logic&#45;&gt;http://latin.omdoc.org/logics/syntax?PL</title>
<a class="graphinclude">
<path fill="none" stroke="black" d="M693.58,-348.291C637.522,-335.058 512.864,-305.63 451.913,-291.242"/>
<polygon fill="black" stroke="black" points="452.537,-287.793 442,-288.902 450.929,-294.606 452.537,-287.793"/>
</a>
</g>
<!-- http://latin.omdoc.org/logics/syntax?Logic&#45;&gt;http://latin.omdoc.org/logics/model_theory/kripke?Kripke -->
<g id="edge73" class="edge"><title>http://latin.omdoc.org/logics/syntax?Logic&#45;&gt;http://latin.omdoc.org/logics/model_theory/kripke?Kripke</title>
<a xlink:href="http://latin.omdoc.org/logics/model_theory/kripke?Base" class="graphview">
<path fill="none" stroke="black" d="M753.527,-355.264C977.686,-356.792 2324.35,-360.097 2428,-220 2439.63,-204.279 2437.39,-193.151 2428,-176 2413.28,-149.125 2383.14,-131.197 2358.43,-120.367"/>
<polygon fill="black" stroke="black" points="2359.51,-117.024 2348.93,-116.425 2356.83,-123.489 2359.51,-117.024"/>
</a>
<a xlink:href="http://latin.omdoc.org/logics/model_theory/kripke?Base" class="Base">
<text text-anchor="middle" x="2431" y="-234.3" font-family="Times New Roman,serif" font-size="14.00">Base</text>
</a>
</g>
<!-- http://latin.omdoc.org/logics/syntax?Logic&#45;&gt;http://latin.omdoc.org/logics/model_theory/kripke?Kripke -->
<g id="edge75" class="edge"><title>http://latin.omdoc.org/logics/syntax?Logic&#45;&gt;http://latin.omdoc.org/logics/model_theory/kripke?Kripke</title>
<a xlink:href="http://latin.omdoc.org/logics/model_theory/kripke?BasePL" class="graphview">
<path fill="none" stroke="black" d="M753.59,-354.691C897.124,-353.17 1502.25,-345.492 1998,-320 2200.86,-309.569 2327.02,-408.424 2449,-246 2477.89,-207.532 2457.9,-170.299 2419,-142 2402.13,-129.729 2380.56,-121.434 2361.86,-116.014"/>
<polygon fill="black" stroke="black" points="2362.67,-112.607 2352.1,-113.363 2360.84,-119.362 2362.67,-112.607"/>
</a>
<a xlink:href="http://latin.omdoc.org/logics/model_theory/kripke?BasePL" class="BasePL">
<text text-anchor="middle" x="2480" y="-234.3" font-family="Times New Roman,serif" font-size="14.00">BasePL</text>
</a>
</g>
<!-- http://latin.omdoc.org/logics/syntax?Possibility -->
<g id="node25" class="node"><title>http://latin.omdoc.org/logics/syntax?Possibility</title>
<a xlink:href="http://latin.omdoc.org/logics/syntax?Possibility" class="graphtheory">
<ellipse fill="gray" stroke="black" cx="2019" cy="-282" rx="48.1437" ry="18"/>
<text text-anchor="middle" x="2019" y="-278.3" font-family="Times New Roman,serif" font-size="14.00">Possibility</text>
</a>
</g>
<!-- http://latin.omdoc.org/logics/syntax?Logic&#45;&gt;http://latin.omdoc.org/logics/syntax?Possibility -->
<g id="edge77" class="edge"><title>http://latin.omdoc.org/logics/syntax?Logic&#45;&gt;http://latin.omdoc.org/logics/syntax?Possibility</title>
<a class="graphinclude">
<path fill="none" stroke="black" d="M753.099,-353.274C922.705,-343.858 1736.64,-298.675 1961.4,-286.198"/>
<polygon fill="black" stroke="black" points="1961.86,-289.678 1971.65,-285.629 1961.47,-282.688 1961.86,-289.678"/>
</a>
</g>
<!-- http://latin.omdoc.org/logics/syntax?Necessity -->
<g id="node28" class="node"><title>http://latin.omdoc.org/logics/syntax?Necessity</title>
<a xlink:href="http://latin.omdoc.org/logics/syntax?Necessity" class="graphtheory">
<ellipse fill="gray" stroke="black" cx="859" cy="-282" rx="46.2191" ry="18"/>
<text text-anchor="middle" x="859" y="-278.3" font-family="Times New Roman,serif" font-size="14.00">Necessity</text>
</a>
</g>
<!-- http://latin.omdoc.org/logics/syntax?Logic&#45;&gt;http://latin.omdoc.org/logics/syntax?Necessity -->
<g id="edge81" class="edge"><title>http://latin.omdoc.org/logics/syntax?Logic&#45;&gt;http://latin.omdoc.org/logics/syntax?Necessity</title>
<a class="graphinclude">
<path fill="none" stroke="black" d="M744.316,-343.272C765.696,-332.036 798.311,-314.895 823.302,-301.761"/>
<polygon fill="black" stroke="black" points="825.243,-304.695 832.467,-296.944 821.987,-298.498 825.243,-304.695"/>
</a>
</g>
<!-- http://cds.omdoc.org/urtheories?LF -->
<g id="node21" class="node"><title>http://cds.omdoc.org/urtheories?LF</title>
<a xlink:href="http://cds.omdoc.org/urtheories?LF" class="graphtheory">
<ellipse fill="gray" stroke="black" cx="67" cy="-430" rx="27" ry="18"/>
<text text-anchor="middle" x="67" y="-426.3" font-family="Times New Roman,serif" font-size="14.00">LF</text>
</a>
</g>
<!-- http://cds.omdoc.org/urtheories?LF&#45;&gt;http://latin.omdoc.org/logics/syntax?MPL -->
<g id="edge21" class="edge"><title>http://cds.omdoc.org/urtheories?LF&#45;&gt;http://latin.omdoc.org/logics/syntax?MPL</title>
<a class="graphmeta">
<path fill="none" stroke="black" d="M87.6456,-418.252C107.741,-407.595 138.971,-390.515 165,-374 249.501,-320.385 344.154,-249 388.495,-214.846"/>
<polygon fill="black" stroke="black" points="390.9,-217.411 396.674,-208.528 386.62,-211.871 390.9,-217.411"/>
</a>
</g>
<!-- http://cds.omdoc.org/urtheories?LF&#45;&gt;http://latin.omdoc.org/translations/ml_fol?ML&#45;FOL -->
<g id="edge35" class="edge"><title>http://cds.omdoc.org/urtheories?LF&#45;&gt;http://latin.omdoc.org/translations/ml_fol?ML&#45;FOL</title>
<a class="graphmeta">
<path fill="none" stroke="black" d="M67,-411.834C67,-397.247 67,-375.75 67,-357 67,-357 67,-357 67,-193 67,-76.2013 223.975,-156.857 381,-124 383.627,-123.45 386.306,-122.792 388.988,-122.058"/>
<polygon fill="black" stroke="black" points="390.071,-125.387 398.623,-119.132 388.037,-118.689 390.071,-125.387"/>
</a>
</g>
<!-- http://cds.omdoc.org/urtheories?LF&#45;&gt;http://latin.omdoc.org/logics/syntax?PL -->
<g id="edge63" class="edge"><title>http://cds.omdoc.org/urtheories?LF&#45;&gt;http://latin.omdoc.org/logics/syntax?PL</title>
<a class="graphmeta">
<path fill="none" stroke="black" d="M94.2097,-429.456C161.339,-430.038 332.555,-428.059 376,-394 401.605,-373.927 411.221,-336.207 414.831,-310.358"/>
<polygon fill="black" stroke="black" points="418.346,-310.433 416.04,-300.092 411.394,-309.614 418.346,-310.433"/>
</a>
</g>
<!-- http://cds.omdoc.org/urtheories?LF&#45;&gt;http://latin.omdoc.org/logics/model_theory/kripke?Kripke -->
<g id="edge55" class="edge"><title>http://cds.omdoc.org/urtheories?LF&#45;&gt;http://latin.omdoc.org/logics/model_theory/kripke?Kripke</title>
<a class="graphmeta">
<path fill="none" stroke="black" d="M94.1152,-428.953C363.962,-428.404 2557,-421.938 2557,-357 2557,-357 2557,-357 2557,-193 2557,-152.251 2431.63,-125.284 2363.26,-113.607"/>
<polygon fill="black" stroke="black" points="2363.64,-110.123 2353.2,-111.93 2362.49,-117.027 2363.64,-110.123"/>
</a>
</g>
<!-- http://cds.omdoc.org/urtheories?LF&#45;&gt;http://latin.omdoc.org/logics/proof_theory?MPL -->
<g id="edge67" class="edge"><title>http://cds.omdoc.org/urtheories?LF&#45;&gt;http://latin.omdoc.org/logics/proof_theory?MPL</title>
<a class="graphmeta">
<path fill="none" stroke="black" d="M53.7094,-414.184C42.7513,-400.4 29,-378.767 29,-357 29,-357 29,-357 29,-193 29,-173.404 29,-151.296 29,-134.402"/>
<polygon fill="black" stroke="black" points="32.5001,-134.133 29,-124.133 25.5001,-134.133 32.5001,-134.133"/>
</a>
</g>
<!-- http://cds.omdoc.org/urtheories?LF&#45;&gt;http://latin.omdoc.org/logics/syntax?ML -->
<g id="edge65" class="edge"><title>http://cds.omdoc.org/urtheories?LF&#45;&gt;http://latin.omdoc.org/logics/syntax?ML</title>
<a class="graphmeta">
<path fill="none" stroke="black" d="M93.9867,-428.321C327.928,-422.311 2005.6,-376.595 2076,-300 2099.43,-274.507 2068.07,-237.613 2043.41,-215.028"/>
<polygon fill="black" stroke="black" points="2045.52,-212.229 2035.71,-208.23 2040.89,-217.475 2045.52,-212.229"/>
</a>
</g>
<!-- http://cds.omdoc.org/urtheories?LF&#45;&gt;http://latin.omdoc.org/logics/syntax?Logic -->
<g id="edge71" class="edge"><title>http://cds.omdoc.org/urtheories?LF&#45;&gt;http://latin.omdoc.org/logics/syntax?Logic</title>
<a class="graphmeta">
<path fill="none" stroke="black" d="M94.2184,-428.412C205.332,-425.88 621.269,-415.064 676,-394 684.662,-390.666 692.953,-385.061 700.05,-379.208"/>
<polygon fill="black" stroke="black" points="702.627,-381.6 707.785,-372.345 697.982,-376.364 702.627,-381.6"/>
</a>
</g>
<!-- http://cds.omdoc.org/urtheories?LF&#45;&gt;http://latin.omdoc.org/translations/ml_fol?ML&#45;FOLMOD -->
<g id="edge69" class="edge"><title>http://cds.omdoc.org/urtheories?LF&#45;&gt;http://latin.omdoc.org/translations/ml_fol?ML&#45;FOLMOD</title>
<a class="graphmeta">
<path fill="none" stroke="black" d="M93.9858,-429.119C278.425,-429.821 1372.42,-432.169 2262,-394 2336.39,-390.808 2595,-431.455 2595,-357 2595,-357 2595,-357 2595,-105 2595,-61.8192 2470.3,-37.8325 2388.54,-26.7459"/>
<polygon fill="black" stroke="black" points="2388.92,-23.2655 2378.55,-25.4256 2388,-30.2052 2388.92,-23.2655"/>
</a>
</g>
<!-- http://cds.omdoc.org/urtheories?LF&#45;&gt;http://latin.omdoc.org/logics/syntax?Possibility -->
<g id="edge61" class="edge"><title>http://cds.omdoc.org/urtheories?LF&#45;&gt;http://latin.omdoc.org/logics/syntax?Possibility</title>
<a class="graphmeta">
<path fill="none" stroke="black" d="M93.8626,-427.764C180.623,-423.716 461.169,-410.181 693,-394 1185.54,-359.622 1779.89,-305.279 1962.76,-288.269"/>
<polygon fill="black" stroke="black" points="1963.31,-291.733 1972.94,-287.321 1962.66,-284.763 1963.31,-291.733"/>
</a>
</g>
<!-- http://cds.omdoc.org/urtheories?LF&#45;&gt;http://latin.omdoc.org/logics/syntax?Necessity -->
<g id="edge57" class="edge"><title>http://cds.omdoc.org/urtheories?LF&#45;&gt;http://latin.omdoc.org/logics/syntax?Necessity</title>
<a class="graphmeta">
<path fill="none" stroke="black" d="M94.0406,-427.229C149.848,-423.323 281.712,-412.787 391,-394 547.583,-367.083 729.929,-318.862 813.248,-295.873"/>
<polygon fill="black" stroke="black" points="814.206,-299.239 822.91,-293.198 812.338,-292.493 814.206,-299.239"/>
</a>
</g>
<!-- http://cds.omdoc.org/urtheories?LF&#45;&gt;http://latin.omdoc.org/logics/syntax?FOL -->
<g id="edge59" class="edge"><title>http://cds.omdoc.org/urtheories?LF&#45;&gt;http://latin.omdoc.org/logics/syntax?FOL</title>
<a class="graphmeta">
<path fill="none" stroke="black" d="M83.0812,-415.063C128.758,-375.476 259.449,-262.211 313.334,-215.511"/>
<polygon fill="black" stroke="black" points="315.738,-218.058 321.003,-208.864 311.154,-212.768 315.738,-218.058"/>
</a>
</g>
<!-- http://latin.omdoc.org/translations/ml_fol?ML&#45;FOLMOD&#45;&gt;http://latin.omdoc.org/logics/model_theory/kripke?Kripke -->
<g id="edge53" class="edge"><title>http://latin.omdoc.org/translations/ml_fol?ML&#45;FOLMOD&#45;&gt;http://latin.omdoc.org/logics/model_theory/kripke?Kripke</title>
<a xlink:href="http://latin.omdoc.org/translations/ml_fol?FOL-Kripke" class="graphview">
<path fill="none" stroke="black" d="M2291.47,-34.3435C2278.54,-43.708 2267.29,-56.458 2274,-70 2277.17,-76.4033 2282.14,-81.9526 2287.66,-86.6275"/>
<polygon fill="black" stroke="black" points="2285.89,-89.6714 2295.99,-92.8488 2290.07,-84.062 2285.89,-89.6714"/>
</a>
<a xlink:href="http://latin.omdoc.org/translations/ml_fol?FOL-Kripke" class="FOL&#45;Kripke">
<text text-anchor="middle" x="2309" y="-58.3" font-family="Times New Roman,serif" font-size="14.00">FOL&#45;Kripke</text>
</a>
</g>
<!-- http://latin.omdoc.org/logics/syntax?Possibility&#45;&gt;http://latin.omdoc.org/translations/ml_fol?ML&#45;FOL -->
<g id="edge25" class="edge"><title>http://latin.omdoc.org/logics/syntax?Possibility&#45;&gt;http://latin.omdoc.org/translations/ml_fol?ML&#45;FOL</title>
<a xlink:href="http://latin.omdoc.org/translations/ml_fol?Possibility" class="graphview">
<path fill="none" stroke="black" d="M1970.97,-280.307C1806.95,-277.542 1275.68,-265.149 1215,-220 1185.2,-197.828 1215.35,-163.415 1185,-142 1152.85,-119.314 515.69,-131.156 477,-124 474.321,-123.505 471.592,-122.882 468.864,-122.17"/>
<polygon fill="black" stroke="black" points="469.657,-118.755 459.075,-119.27 467.669,-125.467 469.657,-118.755"/>
</a>
<a xlink:href="http://latin.omdoc.org/translations/ml_fol?Possibility" class="Possibility">
<text text-anchor="middle" x="1244" y="-190.3" font-family="Times New Roman,serif" font-size="14.00">Possibility</text>
</a>
</g>
<!-- http://latin.omdoc.org/logics/syntax?Possibility&#45;&gt;http://latin.omdoc.org/logics/model_theory/kripke?Kripke -->
<g id="edge45" class="edge"><title>http://latin.omdoc.org/logics/syntax?Possibility&#45;&gt;http://latin.omdoc.org/logics/model_theory/kripke?Kripke</title>
<a xlink:href="http://latin.omdoc.org/logics/model_theory/kripke?Possibility" class="graphview">
<path fill="none" stroke="black" d="M2066.91,-279.623C2151.2,-276.08 2320.58,-263.582 2357,-220 2378.55,-194.212 2357.73,-155.522 2339.71,-130.77"/>
<polygon fill="black" stroke="black" points="2342.37,-128.482 2333.53,-122.641 2336.79,-132.719 2342.37,-128.482"/>
</a>
<a xlink:href="http://latin.omdoc.org/logics/model_theory/kripke?Possibility" class="Possibility">
<text text-anchor="middle" x="2395" y="-190.3" font-family="Times New Roman,serif" font-size="14.00">Possibility</text>
</a>
</g>
<!-- http://latin.omdoc.org/logics/syntax?Possibility&#45;&gt;http://latin.omdoc.org/translations/ml_fol?ML -->
<g id="edge49" class="edge"><title>http://latin.omdoc.org/logics/syntax?Possibility&#45;&gt;http://latin.omdoc.org/translations/ml_fol?ML</title>
<a xlink:href="http://latin.omdoc.org/translations/ml_fol?ML?[http://latin.omdoc.org/logics/syntax?Possibility]" class="graphstructure">
<path fill="none" stroke="black" d="M1971.18,-279.545C1878.25,-275.783 1677.85,-262.8 1626,-220 1597.59,-196.553 1627.53,-164.018 1598,-142 1569.01,-120.38 1309.09,-126.294 1273,-124 1202.15,-119.497 1119.45,-113.366 1072.86,-109.83"/>
<polygon fill="black" stroke="black" points="1072.88,-106.322 1062.65,-109.053 1072.35,-113.302 1072.88,-106.322"/>
</a>
<a xlink:href="http://latin.omdoc.org/translations/ml_fol?ML?[http://latin.omdoc.org/logics/syntax?Possibility]" class="[http://latin.omdoc.org/logics/syntax?Possibility]">
<text text-anchor="middle" x="1761.5" y="-190.3" font-family="Times New Roman,serif" font-size="14.00">[http://latin.omdoc.org/logics/syntax?Possibility]</text>
</a>
</g>
<!-- http://latin.omdoc.org/logics/syntax?Possibility&#45;&gt;http://latin.omdoc.org/logics/model_theory/kripke?ML -->
<g id="edge47" class="edge"><title>http://latin.omdoc.org/logics/syntax?Possibility&#45;&gt;http://latin.omdoc.org/logics/model_theory/kripke?ML</title>
<a xlink:href="http://latin.omdoc.org/logics/model_theory/kripke?ML?[http://latin.omdoc.org/logics/syntax?Possibility]" class="graphstructure">
<path fill="none" stroke="black" d="M2033.43,-264.756C2051.68,-242.209 2078.11,-201.348 2055,-176 2006.8,-123.139 1490.53,-110.175 1346.26,-107.574"/>
<polygon fill="black" stroke="black" points="1346.2,-104.072 1336.14,-107.398 1346.08,-111.071 1346.2,-104.072"/>
</a>
<a xlink:href="http://latin.omdoc.org/logics/model_theory/kripke?ML?[http://latin.omdoc.org/logics/syntax?Possibility]" class="[http://latin.omdoc.org/logics/syntax?Possibility]">
<text text-anchor="middle" x="2199.5" y="-190.3" font-family="Times New Roman,serif" font-size="14.00">[http://latin.omdoc.org/logics/syntax?Possibility]</text>
</a>
</g>
<!-- http://latin.omdoc.org/logics/syntax?Possibility&#45;&gt;http://latin.omdoc.org/logics/syntax?ML -->
<g id="edge51" class="edge"><title>http://latin.omdoc.org/logics/syntax?Possibility&#45;&gt;http://latin.omdoc.org/logics/syntax?ML</title>
<a class="graphinclude">
<path fill="none" stroke="black" d="M2019,-263.597C2019,-251.746 2019,-235.817 2019,-222.292"/>
<polygon fill="black" stroke="black" points="2022.5,-222.084 2019,-212.084 2015.5,-222.084 2022.5,-222.084"/>
</a>
</g>
<!-- http://latin.omdoc.org/logics/syntax?Necessity&#45;&gt;http://latin.omdoc.org/translations/ml_fol?ML&#45;FOL -->
<g id="edge29" class="edge"><title>http://latin.omdoc.org/logics/syntax?Necessity&#45;&gt;http://latin.omdoc.org/translations/ml_fol?ML&#45;FOL</title>
<a xlink:href="http://latin.omdoc.org/translations/ml_fol?Necessity" class="graphview">
<path fill="none" stroke="black" d="M841.597,-265.23C828.624,-253.221 810.687,-236.07 796,-220 765.937,-187.106 772.51,-162.609 733,-142 682.436,-115.625 532.832,-135.625 477,-124 474.372,-123.453 471.693,-122.796 469.011,-122.064"/>
<polygon fill="black" stroke="black" points="469.961,-118.695 459.375,-119.142 467.929,-125.394 469.961,-118.695"/>
</a>
<a xlink:href="http://latin.omdoc.org/translations/ml_fol?Necessity" class="Necessity">
<text text-anchor="middle" x="823.5" y="-190.3" font-family="Times New Roman,serif" font-size="14.00">Necessity</text>
</a>
</g>
<!-- http://latin.omdoc.org/logics/syntax?Necessity&#45;&gt;http://latin.omdoc.org/logics/model_theory/kripke?Kripke -->
<g id="edge41" class="edge"><title>http://latin.omdoc.org/logics/syntax?Necessity&#45;&gt;http://latin.omdoc.org/logics/model_theory/kripke?Kripke</title>
<a xlink:href="http://latin.omdoc.org/logics/model_theory/kripke?Necessity" class="graphview">
<path fill="none" stroke="black" d="M904.34,-278.467C1103.55,-267.323 1891.49,-223.067 1897,-220 1917.9,-208.367 1907.82,-188.84 1928,-176 1985.2,-139.608 2185.04,-118.465 2275.23,-110.576"/>
<polygon fill="black" stroke="black" points="2275.75,-114.045 2285.41,-109.701 2275.15,-107.07 2275.75,-114.045"/>
</a>
<a xlink:href="http://latin.omdoc.org/logics/model_theory/kripke?Necessity" class="Necessity">
<text text-anchor="middle" x="1955.5" y="-190.3" font-family="Times New Roman,serif" font-size="14.00">Necessity</text>
</a>
</g>
<!-- http://latin.omdoc.org/logics/syntax?Necessity&#45;&gt;http://latin.omdoc.org/translations/ml_fol?ML -->
<g id="edge37" class="edge"><title>http://latin.omdoc.org/logics/syntax?Necessity&#45;&gt;http://latin.omdoc.org/translations/ml_fol?ML</title>
<a xlink:href="http://latin.omdoc.org/translations/ml_fol?ML?[http://latin.omdoc.org/logics/syntax?Necessity]" class="graphstructure">
<path fill="none" stroke="black" d="M855.561,-263.709C852.014,-240.313 849.841,-198.875 873,-176 920.456,-129.125 971.482,-201.558 1022,-158 1028.9,-152.053 1032.55,-143.058 1034.44,-134.27"/>
<polygon fill="black" stroke="black" points="1037.92,-134.651 1035.94,-124.244 1031,-133.618 1037.92,-134.651"/>
</a>
<a xlink:href="http://latin.omdoc.org/translations/ml_fol?ML?[http://latin.omdoc.org/logics/syntax?Necessity]" class="[http://latin.omdoc.org/logics/syntax?Necessity]">
<text text-anchor="middle" x="1006.5" y="-190.3" font-family="Times New Roman,serif" font-size="14.00">[http://latin.omdoc.org/logics/syntax?Necessity]</text>
</a>
</g>
<!-- http://latin.omdoc.org/logics/syntax?Necessity&#45;&gt;http://latin.omdoc.org/logics/model_theory/kripke?ML -->
<g id="edge39" class="edge"><title>http://latin.omdoc.org/logics/syntax?Necessity&#45;&gt;http://latin.omdoc.org/logics/model_theory/kripke?ML</title>
<a xlink:href="http://latin.omdoc.org/logics/model_theory/kripke?ML?[http://latin.omdoc.org/logics/syntax?Necessity]" class="graphstructure">
<path fill="none" stroke="black" d="M905.24,-280.397C1002.21,-278.181 1222.41,-267.868 1277,-220 1301.28,-198.71 1307.77,-160.514 1309.18,-134.478"/>
<polygon fill="black" stroke="black" points="1312.69,-134.256 1309.51,-124.149 1305.69,-134.03 1312.69,-134.256"/>
</a>
<a xlink:href="http://latin.omdoc.org/logics/model_theory/kripke?ML?[http://latin.omdoc.org/logics/syntax?Necessity]" class="[http://latin.omdoc.org/logics/syntax?Necessity]">
<text text-anchor="middle" x="1436.5" y="-190.3" font-family="Times New Roman,serif" font-size="14.00">[http://latin.omdoc.org/logics/syntax?Necessity]</text>
</a>
</g>
<!-- http://latin.omdoc.org/logics/syntax?Necessity&#45;&gt;http://latin.omdoc.org/logics/syntax?ML -->
<g id="edge43" class="edge"><title>http://latin.omdoc.org/logics/syntax?Necessity&#45;&gt;http://latin.omdoc.org/logics/syntax?ML</title>
<a class="graphinclude">
<path fill="none" stroke="black" d="M905.08,-280.419C1037.15,-278.489 1428.3,-270.928 1752,-246 1852.81,-238.237 1882.38,-252.864 1978,-220 1983,-218.283 1988.03,-215.883 1992.78,-213.245"/>
<polygon fill="black" stroke="black" points="1994.72,-216.16 2001.47,-207.994 1991.1,-210.169 1994.72,-216.16"/>
</a>
</g>
<!-- http://latin.omdoc.org/logics/syntax?FOL&#45;&gt;http://latin.omdoc.org/translations/ml_fol?ML&#45;FOL -->
<g id="edge33" class="edge"><title>http://latin.omdoc.org/logics/syntax?FOL&#45;&gt;http://latin.omdoc.org/translations/ml_fol?ML&#45;FOL</title>
<a class="graphinclude">
<path fill="none" stroke="black" d="M352.192,-178.799C366.402,-165.515 387.872,-145.445 404.503,-129.899"/>
<polygon fill="black" stroke="black" points="407.311,-132.066 412.226,-122.68 402.531,-126.952 407.311,-132.066"/>
</a>
</g>
</g>
</svg>
