<?xml version="1.0" encoding="UTF-8" standalone="no"?>
<!DOCTYPE svg PUBLIC "-//W3C//DTD SVG 1.1//EN"
 "http://www.w3.org/Graphics/SVG/1.1/DTD/svg11.dtd">
<!-- Generated by graphviz version 2.28.0 (20110507.0327)
 -->
<!-- Title: MMT Pages: 1 -->
<svg width="1667pt" height="544pt"
 viewBox="0.00 0.00 1667.00 544.00" xmlns="http://www.w3.org/2000/svg" xmlns:xlink="http://www.w3.org/1999/xlink">
<g id="graph1" class="graph" transform="scale(1 1) rotate(0) translate(4 540)">
<title>MMT</title>
<polygon fill="white" stroke="white" points="-4,5 -4,-540 1664,-540 1664,5 -4,5"/>
<g id="graph2" class="cluster"><title>cluster_local</title>
<polygon fill="none" stroke="black" points="733,-80 733,-396 1065,-396 1065,-80 733,-80"/>
</g>
<!-- http://latin.omdoc.org/logics/proof_theory?SFOLExt -->
<g id="node2" class="node"><title>http://latin.omdoc.org/logics/proof_theory?SFOLExt</title>
<a xlink:href="http://latin.omdoc.org/logics/proof_theory?SFOLExt" class="graphtheory">
<ellipse fill="none" stroke="black" cx="1011" cy="-194" rx="46.2191" ry="18"/>
<text text-anchor="middle" x="1011" y="-190.3" font-family="Times New Roman,serif" font-size="14.00">SFOLExt</text>
</a>
</g>
<!-- http://latin.omdoc.org/logics/proof_theory?SFOLEQExt -->
<g id="node3" class="node"><title>http://latin.omdoc.org/logics/proof_theory?SFOLEQExt</title>
<a xlink:href="http://latin.omdoc.org/logics/proof_theory?SFOLEQExt" class="graphtheory">
<ellipse fill="none" stroke="black" cx="999" cy="-106" rx="57.2688" ry="18"/>
<text text-anchor="middle" x="999" y="-102.3" font-family="Times New Roman,serif" font-size="14.00">SFOLEQExt</text>
</a>
</g>
<!-- http://latin.omdoc.org/logics/proof_theory?SIFOLEQExt -->
<g id="node4" class="node"><title>http://latin.omdoc.org/logics/proof_theory?SIFOLEQExt</title>
<a xlink:href="http://latin.omdoc.org/logics/proof_theory?SIFOLEQExt" class="graphtheory">
<ellipse fill="none" stroke="black" cx="886" cy="-194" rx="61.1419" ry="18"/>
<text text-anchor="middle" x="886" y="-190.3" font-family="Times New Roman,serif" font-size="14.00">SIFOLEQExt</text>
</a>
</g>
<!-- http://latin.omdoc.org/logics/proof_theory?SIFOLEQExt&#45;&gt;http://latin.omdoc.org/logics/proof_theory?SFOLEQExt -->
<g id="edge11" class="edge"><title>http://latin.omdoc.org/logics/proof_theory?SIFOLEQExt&#45;&gt;http://latin.omdoc.org/logics/proof_theory?SFOLEQExt</title>
<a class="graphinclude">
<path fill="none" stroke="black" d="M931.351,-181.882C954.382,-175.362 979.136,-166.714 987,-158 992.892,-151.471 996.045,-142.599 997.688,-134.085"/>
<polygon fill="black" stroke="black" points="1001.17,-134.434 999.025,-124.059 994.234,-133.508 1001.17,-134.434"/>
</a>
</g>
<!-- http://latin.omdoc.org/foundations/minimal?STTIFOLEQ&#45;ZF -->
<g id="node19" class="node"><title>http://latin.omdoc.org/foundations/minimal?STTIFOLEQ&#45;ZF</title>
<a xlink:href="http://latin.omdoc.org/foundations/minimal?STTIFOLEQ-ZF" class="graphtheory">
<ellipse fill="gray" stroke="black" cx="651" cy="-106" rx="74.1402" ry="18"/>
<text text-anchor="middle" x="651" y="-102.3" font-family="Times New Roman,serif" font-size="14.00">STTIFOLEQ&#45;ZF</text>
</a>
</g>
<!-- http://latin.omdoc.org/logics/proof_theory?SIFOLEQExt&#45;&gt;http://latin.omdoc.org/foundations/minimal?STTIFOLEQ&#45;ZF -->
<g id="edge15" class="edge"><title>http://latin.omdoc.org/logics/proof_theory?SIFOLEQExt&#45;&gt;http://latin.omdoc.org/foundations/minimal?STTIFOLEQ&#45;ZF</title>
<a xlink:href="http://latin.omdoc.org/foundations/minimal?STTIFOLEQ-ZF?[http://latin.omdoc.org/logics/proof_theory?SIFOLEQExt]" class="graphstructure">
<path fill="none" stroke="black" d="M843.546,-180.935C836.075,-179.088 828.342,-177.351 821,-176 784.507,-169.287 680.844,-184.625 655,-158 649.019,-151.838 646.985,-143.056 646.77,-134.512"/>
<polygon fill="black" stroke="black" points="650.272,-134.559 647.267,-124.399 643.281,-134.216 650.272,-134.559"/>
</a>
<a xlink:href="http://latin.omdoc.org/foundations/minimal?STTIFOLEQ-ZF?[http://latin.omdoc.org/logics/proof_theory?SIFOLEQExt]" class="[http://latin.omdoc.org/logics/proof_theory?SIFOLEQExt]">
<text text-anchor="middle" x="819" y="-146.3" font-family="Times New Roman,serif" font-size="14.00">[http://latin.omdoc.org/logics/proof_theory?SIFOLEQExt]</text>
</a>
</g>
<!-- http://latin.omdoc.org/foundations/zfc?TypedZF -->
<g id="node21" class="node"><title>http://latin.omdoc.org/foundations/zfc?TypedZF</title>
<a xlink:href="http://latin.omdoc.org/foundations/zfc?TypedZF" class="graphtheory">
<ellipse fill="gray" stroke="black" cx="301" cy="-18" rx="45.244" ry="18"/>
<text text-anchor="middle" x="301" y="-14.3" font-family="Times New Roman,serif" font-size="14.00">TypedZF</text>
</a>
</g>
<!-- http://latin.omdoc.org/logics/proof_theory?SIFOLEQExt&#45;&gt;http://latin.omdoc.org/foundations/zfc?TypedZF -->
<g id="edge17" class="edge"><title>http://latin.omdoc.org/logics/proof_theory?SIFOLEQExt&#45;&gt;http://latin.omdoc.org/foundations/zfc?TypedZF</title>
<a xlink:href="http://latin.omdoc.org/foundations/minimal?SIFOLEQPFExt-ZF" class="graphview">
<path fill="none" stroke="black" d="M843.553,-180.894C836.082,-179.052 828.346,-177.326 821,-176 658.446,-146.659 588.526,-218.431 453,-124 423.418,-103.388 440.189,-76.4798 412,-54 395.174,-40.5821 373.136,-32.2708 353.135,-27.1396"/>
<polygon fill="black" stroke="black" points="353.743,-23.687 343.207,-24.8018 352.138,-30.5007 353.743,-23.687"/>
</a>
<a xlink:href="http://latin.omdoc.org/foundations/minimal?SIFOLEQPFExt-ZF" class="SIFOLEQPFExt&#45;ZF">
<text text-anchor="middle" x="510.5" y="-102.3" font-family="Times New Roman,serif" font-size="14.00">SIFOLEQPFExt&#45;ZF</text>
</a>
</g>
<!-- http://latin.omdoc.org/foundations/minimal?STTIFOLEQ -->
<g id="node23" class="node"><title>http://latin.omdoc.org/foundations/minimal?STTIFOLEQ</title>
<a xlink:href="http://latin.omdoc.org/foundations/minimal?STTIFOLEQ" class="graphtheory">
<ellipse fill="gray" stroke="black" cx="270" cy="-106" rx="60.1672" ry="18"/>
<text text-anchor="middle" x="270" y="-102.3" font-family="Times New Roman,serif" font-size="14.00">STTIFOLEQ</text>
</a>
</g>
<!-- http://latin.omdoc.org/logics/proof_theory?SIFOLEQExt&#45;&gt;http://latin.omdoc.org/foundations/minimal?STTIFOLEQ -->
<g id="edge19" class="edge"><title>http://latin.omdoc.org/logics/proof_theory?SIFOLEQExt&#45;&gt;http://latin.omdoc.org/foundations/minimal?STTIFOLEQ</title>
<a class="graphinclude">
<path fill="none" stroke="black" d="M844.311,-180.72C836.618,-178.848 828.611,-177.157 821,-176 649.015,-149.848 601.235,-188.68 430,-158 389.689,-150.778 345.443,-136.126 313.717,-124.373"/>
<polygon fill="black" stroke="black" points="314.884,-121.072 304.292,-120.83 312.421,-127.625 314.884,-121.072"/>
</a>
</g>
<!-- http://latin.omdoc.org/logics/proof_theory?SForallExt -->
<g id="node5" class="node"><title>http://latin.omdoc.org/logics/proof_theory?SForallExt</title>
<a xlink:href="http://latin.omdoc.org/logics/proof_theory?SForallExt" class="graphtheory">
<ellipse fill="none" stroke="black" cx="861" cy="-370" rx="49.0941" ry="18"/>
<text text-anchor="middle" x="861" y="-366.3" font-family="Times New Roman,serif" font-size="14.00">SForallExt</text>
</a>
</g>
<!-- http://latin.omdoc.org/logics/proof_theory?SIFOLExt -->
<g id="node9" class="node"><title>http://latin.omdoc.org/logics/proof_theory?SIFOLExt</title>
<a xlink:href="http://latin.omdoc.org/logics/proof_theory?SIFOLExt" class="graphtheory">
<ellipse fill="none" stroke="black" cx="790" cy="-282" rx="48.6179" ry="18"/>
<text text-anchor="middle" x="790" y="-278.3" font-family="Times New Roman,serif" font-size="14.00">SIFOLExt</text>
</a>
</g>
<!-- http://latin.omdoc.org/logics/proof_theory?SForallExt&#45;&gt;http://latin.omdoc.org/logics/proof_theory?SIFOLExt -->
<g id="edge57" class="edge"><title>http://latin.omdoc.org/logics/proof_theory?SForallExt&#45;&gt;http://latin.omdoc.org/logics/proof_theory?SIFOLExt</title>
<a class="graphinclude">
<path fill="none" stroke="black" d="M897.021,-357.706C904.258,-355.646 911.839,-353.634 919,-352 968.474,-340.708 1062.05,-355.626 1028,-318 1001.03,-288.194 887.458,-307.686 848,-300 843.829,-299.187 839.526,-298.206 835.237,-297.131"/>
<polygon fill="black" stroke="black" points="835.889,-293.682 825.324,-294.483 834.083,-300.445 835.889,-293.682"/>
</a>
</g>
<!-- http://latin.omdoc.org/foundations/minimal?SIFOLPFExt&#45;ZF -->
<g id="node29" class="node"><title>http://latin.omdoc.org/foundations/minimal?SIFOLPFExt&#45;ZF</title>
<a xlink:href="http://latin.omdoc.org/foundations/minimal?SIFOLPFExt-ZF" class="graphtheory">
<ellipse fill="gray" stroke="black" cx="630" cy="-282" rx="73.1654" ry="18"/>
<text text-anchor="middle" x="630" y="-278.3" font-family="Times New Roman,serif" font-size="14.00">SIFOLPFExt&#45;ZF</text>
</a>
</g>
<!-- http://latin.omdoc.org/logics/proof_theory?SForallExt&#45;&gt;http://latin.omdoc.org/foundations/minimal?SIFOLPFExt&#45;ZF -->
<g id="edge29" class="edge"><title>http://latin.omdoc.org/logics/proof_theory?SForallExt&#45;&gt;http://latin.omdoc.org/foundations/minimal?SIFOLPFExt&#45;ZF</title>
<a xlink:href="http://latin.omdoc.org/foundations/minimal?SIFOLPFExt-ZF?[http://latin.omdoc.org/logics/proof_theory?SForallExt]" class="graphstructure">
<path fill="none" stroke="black" d="M826.108,-357.148C820.104,-355.299 813.899,-353.505 808,-352 766.783,-341.485 753.698,-349.28 714,-334 695.233,-326.777 675.941,-315.393 660.585,-305.212"/>
<polygon fill="black" stroke="black" points="662.27,-302.126 652.032,-299.397 658.334,-307.914 662.27,-302.126"/>
</a>
<a xlink:href="http://latin.omdoc.org/foundations/minimal?SIFOLPFExt-ZF?[http://latin.omdoc.org/logics/proof_theory?SForallExt]" class="[http://latin.omdoc.org/logics/proof_theory?SForallExt]">
<text text-anchor="middle" x="869" y="-322.3" font-family="Times New Roman,serif" font-size="14.00">[http://latin.omdoc.org/logics/proof_theory?SForallExt]</text>
</a>
</g>
<!-- http://latin.omdoc.org/logics/proof_theory?SExistsUnique -->
<g id="node6" class="node"><title>http://latin.omdoc.org/logics/proof_theory?SExistsUnique</title>
<a xlink:href="http://latin.omdoc.org/logics/proof_theory?SExistsUnique" class="graphtheory">
<ellipse fill="none" stroke="black" cx="992" cy="-370" rx="63.5411" ry="18"/>
<text text-anchor="middle" x="992" y="-366.3" font-family="Times New Roman,serif" font-size="14.00">SExistsUnique</text>
</a>
</g>
<!-- http://latin.omdoc.org/logics/proof_theory?SExistsUnique&#45;&gt;http://latin.omdoc.org/logics/proof_theory?SIFOLExt -->
<g id="edge59" class="edge"><title>http://latin.omdoc.org/logics/proof_theory?SExistsUnique&#45;&gt;http://latin.omdoc.org/logics/proof_theory?SIFOLExt</title>
<a class="graphinclude">
<path fill="none" stroke="black" d="M1018.47,-353.573C1032.79,-343.324 1045.59,-329.659 1035,-318 1006.93,-287.098 888.992,-307.907 848,-300 843.827,-299.195 839.523,-298.219 835.234,-297.147"/>
<polygon fill="black" stroke="black" points="835.884,-293.698 825.32,-294.505 834.081,-300.462 835.884,-293.698"/>
</a>
</g>
<!-- http://latin.omdoc.org/logics/proof_theory?SEqualExt -->
<g id="node7" class="node"><title>http://latin.omdoc.org/logics/proof_theory?SEqualExt</title>
<a xlink:href="http://latin.omdoc.org/logics/proof_theory?SEqualExt" class="graphtheory">
<ellipse fill="none" stroke="black" cx="1008" cy="-282" rx="48.6179" ry="18"/>
<text text-anchor="middle" x="1008" y="-278.3" font-family="Times New Roman,serif" font-size="14.00">SEqualExt</text>
</a>
</g>
<!-- http://latin.omdoc.org/logics/proof_theory?SEqualExt&#45;&gt;http://latin.omdoc.org/logics/proof_theory?SIFOLEQExt -->
<g id="edge21" class="edge"><title>http://latin.omdoc.org/logics/proof_theory?SEqualExt&#45;&gt;http://latin.omdoc.org/logics/proof_theory?SIFOLEQExt</title>
<a class="graphinclude">
<path fill="none" stroke="black" d="M976.206,-268.387C963.174,-262.509 948.296,-254.85 936,-246 925.414,-238.38 915.086,-228.412 906.591,-219.312"/>
<polygon fill="black" stroke="black" points="908.94,-216.69 899.637,-211.619 903.747,-221.384 908.94,-216.69"/>
</a>
</g>
<!-- http://latin.omdoc.org/foundations/minimal?SIFOLEQPFExt&#45;ZF -->
<g id="node39" class="node"><title>http://latin.omdoc.org/foundations/minimal?SIFOLEQPFExt&#45;ZF</title>
<a xlink:href="http://latin.omdoc.org/foundations/minimal?SIFOLEQPFExt-ZF" class="graphtheory">
<ellipse fill="gray" stroke="black" cx="582" cy="-194" rx="85.2138" ry="18"/>
<text text-anchor="middle" x="582" y="-190.3" font-family="Times New Roman,serif" font-size="14.00">SIFOLEQPFExt&#45;ZF</text>
</a>
</g>
<!-- http://latin.omdoc.org/logics/proof_theory?SEqualExt&#45;&gt;http://latin.omdoc.org/foundations/minimal?SIFOLEQPFExt&#45;ZF -->
<g id="edge41" class="edge"><title>http://latin.omdoc.org/logics/proof_theory?SEqualExt&#45;&gt;http://latin.omdoc.org/foundations/minimal?SIFOLEQPFExt&#45;ZF</title>
<a xlink:href="http://latin.omdoc.org/foundations/minimal?SIFOLEQPFExt-ZF?[http://latin.omdoc.org/logics/proof_theory?SEqualExt]" class="graphstructure">
<path fill="none" stroke="black" d="M973.344,-269.416C965.73,-267.273 957.655,-265.303 950,-264 912.159,-257.558 636.689,-267.662 605,-246 596.756,-240.365 591.424,-231.03 587.995,-221.876"/>
<polygon fill="black" stroke="black" points="591.294,-220.7 584.973,-212.198 584.613,-222.786 591.294,-220.7"/>
</a>
<a xlink:href="http://latin.omdoc.org/foundations/minimal?SIFOLEQPFExt-ZF?[http://latin.omdoc.org/logics/proof_theory?SEqualExt]" class="[http://latin.omdoc.org/logics/proof_theory?SEqualExt]">
<text text-anchor="middle" x="760" y="-234.3" font-family="Times New Roman,serif" font-size="14.00">[http://latin.omdoc.org/logics/proof_theory?SEqualExt]</text>
</a>
</g>
<!-- http://latin.omdoc.org/logics/proof_theory?SInequal -->
<g id="node8" class="node"><title>http://latin.omdoc.org/logics/proof_theory?SInequal</title>
<a xlink:href="http://latin.omdoc.org/logics/proof_theory?SInequal" class="graphtheory">
<ellipse fill="none" stroke="black" cx="899" cy="-282" rx="42.3701" ry="18"/>
<text text-anchor="middle" x="899" y="-278.3" font-family="Times New Roman,serif" font-size="14.00">SInequal</text>
</a>
</g>
<!-- http://latin.omdoc.org/logics/proof_theory?SInequal&#45;&gt;http://latin.omdoc.org/logics/proof_theory?SIFOLEQExt -->
<g id="edge23" class="edge"><title>http://latin.omdoc.org/logics/proof_theory?SInequal&#45;&gt;http://latin.omdoc.org/logics/proof_theory?SIFOLEQExt</title>
<a class="graphinclude">
<path fill="none" stroke="black" d="M896.432,-264.009C894.627,-252.073 892.175,-235.853 890.102,-222.138"/>
<polygon fill="black" stroke="black" points="893.563,-221.614 888.608,-212.25 886.642,-222.661 893.563,-221.614"/>
</a>
</g>
<!-- http://latin.omdoc.org/logics/proof_theory?SIFOLExt&#45;&gt;http://latin.omdoc.org/logics/proof_theory?SFOLExt -->
<g id="edge5" class="edge"><title>http://latin.omdoc.org/logics/proof_theory?SIFOLExt&#45;&gt;http://latin.omdoc.org/logics/proof_theory?SFOLExt</title>
<a class="graphinclude">
<path fill="none" stroke="black" d="M824.903,-269.379C844.201,-262.805 868.545,-254.267 890,-246 917.67,-235.338 948.461,-222.344 972.058,-212.14"/>
<polygon fill="black" stroke="black" points="973.595,-215.288 981.374,-208.095 970.807,-208.867 973.595,-215.288"/>
</a>
</g>
<!-- http://latin.omdoc.org/logics/proof_theory?SIFOLExt&#45;&gt;http://latin.omdoc.org/logics/proof_theory?SIFOLEQExt -->
<g id="edge25" class="edge"><title>http://latin.omdoc.org/logics/proof_theory?SIFOLExt&#45;&gt;http://latin.omdoc.org/logics/proof_theory?SIFOLEQExt</title>
<a class="graphinclude">
<path fill="none" stroke="black" d="M825.145,-269.462C849.174,-261.244 877.322,-250.832 881,-246 886.077,-239.33 888.095,-230.662 888.617,-222.37"/>
<polygon fill="black" stroke="black" points="892.116,-222.238 888.596,-212.245 885.116,-222.253 892.116,-222.238"/>
</a>
</g>
<!-- http://latin.omdoc.org/logics/proof_theory?SFOL -->
<g id="node10" class="node"><title>http://latin.omdoc.org/logics/proof_theory?SFOL</title>
<a xlink:href="http://latin.omdoc.org/logics/proof_theory?SFOL" class="graphtheory">
<ellipse fill="gray" stroke="black" cx="1547" cy="-444" rx="33.1991" ry="18"/>
<text text-anchor="middle" x="1547" y="-440.3" font-family="Times New Roman,serif" font-size="14.00">SFOL</text>
</a>
</g>
<!-- http://latin.omdoc.org/logics/proof_theory?SFOL&#45;&gt;http://latin.omdoc.org/logics/proof_theory?SFOLExt -->
<g id="edge3" class="edge"><title>http://latin.omdoc.org/logics/proof_theory?SFOL&#45;&gt;http://latin.omdoc.org/logics/proof_theory?SFOLExt</title>
<a class="graphinclude">
<path fill="none" stroke="black" d="M1555.48,-426.361C1563.77,-407.698 1573.84,-376.797 1564,-352 1536.5,-282.744 1516.18,-262.232 1449,-230 1383.09,-198.377 1170.35,-194.487 1067.59,-194.529"/>
<polygon fill="black" stroke="black" points="1067.4,-191.029 1057.4,-194.546 1067.41,-198.029 1067.4,-191.029"/>
</a>
</g>
<!-- http://latin.omdoc.org/logics/proof_theory?SFOLEQ -->
<g id="node15" class="node"><title>http://latin.omdoc.org/logics/proof_theory?SFOLEQ</title>
<a xlink:href="http://latin.omdoc.org/logics/proof_theory?SFOLEQ" class="graphtheory">
<ellipse fill="gray" stroke="black" cx="1509" cy="-370" rx="46.2191" ry="18"/>
<text text-anchor="middle" x="1509" y="-366.3" font-family="Times New Roman,serif" font-size="14.00">SFOLEQ</text>
</a>
</g>
<!-- http://latin.omdoc.org/logics/proof_theory?SFOL&#45;&gt;http://latin.omdoc.org/logics/proof_theory?SFOLEQ -->
<g id="edge105" class="edge"><title>http://latin.omdoc.org/logics/proof_theory?SFOL&#45;&gt;http://latin.omdoc.org/logics/proof_theory?SFOLEQ</title>
<a class="graphinclude">
<path fill="none" stroke="black" d="M1538.19,-426.301C1533.6,-417.612 1527.89,-406.794 1522.74,-397.035"/>
<polygon fill="black" stroke="black" points="1525.79,-395.319 1518.03,-388.109 1519.6,-398.586 1525.79,-395.319"/>
</a>
</g>
<!-- http://cds.omdoc.org/urtheories?LF -->
<g id="node13" class="node"><title>http://cds.omdoc.org/urtheories?LF</title>
<a xlink:href="http://cds.omdoc.org/urtheories?LF" class="graphtheory">
<ellipse fill="gray" stroke="black" cx="1321" cy="-518" rx="27" ry="18"/>
<text text-anchor="middle" x="1321" y="-514.3" font-family="Times New Roman,serif" font-size="14.00">LF</text>
</a>
</g>
<!-- http://cds.omdoc.org/urtheories?LF&#45;&gt;http://latin.omdoc.org/logics/proof_theory?SFOLExt -->
<g id="edge7" class="edge"><title>http://cds.omdoc.org/urtheories?LF&#45;&gt;http://latin.omdoc.org/logics/proof_theory?SFOLExt</title>
<a class="graphmeta">
<path fill="none" stroke="black" d="M1346.87,-512.499C1380.5,-504.991 1435,-486.433 1435,-445 1435,-445 1435,-445 1435,-281 1435,-255.949 1431.8,-243.962 1411,-230 1378.67,-208.297 1099.24,-219.337 1061,-212 1058.17,-211.457 1055.29,-210.792 1052.4,-210.042"/>
<polygon fill="black" stroke="black" points="1053.23,-206.64 1042.65,-207.223 1051.29,-213.365 1053.23,-206.64"/>
</a>
</g>
<!-- http://cds.omdoc.org/urtheories?LF&#45;&gt;http://latin.omdoc.org/logics/proof_theory?SFOLEQExt -->
<g id="edge13" class="edge"><title>http://cds.omdoc.org/urtheories?LF&#45;&gt;http://latin.omdoc.org/logics/proof_theory?SFOLEQExt</title>
<a class="graphmeta">
<path fill="none" stroke="black" d="M1347.89,-516.261C1421.52,-513.512 1621,-500.906 1621,-445 1621,-445 1621,-445 1621,-193 1621,-137.464 1226.89,-115.85 1066.09,-109.343"/>
<polygon fill="black" stroke="black" points="1065.98,-105.836 1055.85,-108.936 1065.7,-112.83 1065.98,-105.836"/>
</a>
</g>
<!-- http://cds.omdoc.org/urtheories?LF&#45;&gt;http://latin.omdoc.org/logics/proof_theory?SIFOLEQExt -->
<g id="edge27" class="edge"><title>http://cds.omdoc.org/urtheories?LF&#45;&gt;http://latin.omdoc.org/logics/proof_theory?SIFOLEQExt</title>
<a class="graphmeta">
<path fill="none" stroke="black" d="M1342.98,-507.543C1365.43,-496.231 1397,-474.989 1397,-445 1397,-445 1397,-445 1397,-281 1397,-181.808 1053.28,-231.388 956,-212 950.993,-211.002 945.802,-209.89 940.614,-208.726"/>
<polygon fill="black" stroke="black" points="941.219,-205.273 930.689,-206.438 939.647,-212.095 941.219,-205.273"/>
</a>
</g>
<!-- http://cds.omdoc.org/urtheories?LF&#45;&gt;http://latin.omdoc.org/logics/proof_theory?SForallExt -->
<g id="edge33" class="edge"><title>http://cds.omdoc.org/urtheories?LF&#45;&gt;http://latin.omdoc.org/logics/proof_theory?SForallExt</title>
<a class="graphmeta">
<path fill="none" stroke="black" d="M1295.18,-512.531C1259.35,-506.235 1192.57,-494.158 1136,-482 1098.9,-474.026 1088.78,-474.637 1053,-462 996.246,-441.954 933.838,-410.492 896.04,-390.311"/>
<polygon fill="black" stroke="black" points="897.444,-387.092 886.98,-385.437 894.128,-393.257 897.444,-387.092"/>
</a>
</g>
<!-- http://cds.omdoc.org/urtheories?LF&#45;&gt;http://latin.omdoc.org/logics/proof_theory?SExistsUnique -->
<g id="edge39" class="edge"><title>http://cds.omdoc.org/urtheories?LF&#45;&gt;http://latin.omdoc.org/logics/proof_theory?SExistsUnique</title>
<a class="graphmeta">
<path fill="none" stroke="black" d="M1294.08,-515.721C1250.73,-512.515 1164.22,-501.288 1104,-462 1072.42,-441.395 1039.26,-413.562 1017.29,-394.123"/>
<polygon fill="black" stroke="black" points="1019.52,-391.42 1009.73,-387.37 1014.86,-396.641 1019.52,-391.42"/>
</a>
</g>
<!-- http://cds.omdoc.org/urtheories?LF&#45;&gt;http://latin.omdoc.org/logics/proof_theory?SEqualExt -->
<g id="edge45" class="edge"><title>http://cds.omdoc.org/urtheories?LF&#45;&gt;http://latin.omdoc.org/logics/proof_theory?SEqualExt</title>
<a class="graphmeta">
<path fill="none" stroke="black" d="M1329.08,-500.405C1343.53,-468.093 1369.21,-396.051 1335,-352 1296.86,-302.877 1120.68,-313.635 1060,-300 1057.18,-299.366 1054.29,-298.641 1051.39,-297.858"/>
<polygon fill="black" stroke="black" points="1052.17,-294.438 1041.59,-295.008 1050.21,-301.16 1052.17,-294.438"/>
</a>
</g>
<!-- http://cds.omdoc.org/urtheories?LF&#45;&gt;http://latin.omdoc.org/logics/proof_theory?SInequal -->
<g id="edge53" class="edge"><title>http://cds.omdoc.org/urtheories?LF&#45;&gt;http://latin.omdoc.org/logics/proof_theory?SInequal</title>
<a class="graphmeta">
<path fill="none" stroke="black" d="M1324.3,-499.938C1329.56,-467.448 1336.05,-396.02 1302,-352 1246.27,-279.955 1036.67,-317.111 950,-300 946.4,-299.289 942.704,-298.396 939.024,-297.393"/>
<polygon fill="black" stroke="black" points="939.988,-294.028 929.405,-294.532 937.992,-300.738 939.988,-294.028"/>
</a>
</g>
<!-- http://cds.omdoc.org/urtheories?LF&#45;&gt;http://latin.omdoc.org/logics/proof_theory?SIFOLExt -->
<g id="edge63" class="edge"><title>http://cds.omdoc.org/urtheories?LF&#45;&gt;http://latin.omdoc.org/logics/proof_theory?SIFOLExt</title>
<a class="graphmeta">
<path fill="none" stroke="black" d="M1294.28,-514.981C1234.54,-510.009 1085.94,-495.094 966,-462 890.658,-441.212 874.231,-428.168 803,-396 746.845,-370.64 711.393,-386.414 679,-334 675.261,-327.951 674.782,-323.725 679,-318 695.009,-296.27 711.26,-308.122 737,-300 739.589,-299.183 742.248,-298.341 744.93,-297.488"/>
<polygon fill="black" stroke="black" points="746.199,-300.758 754.664,-294.386 744.073,-294.088 746.199,-300.758"/>
</a>
</g>
<!-- http://cds.omdoc.org/urtheories?LF&#45;&gt;http://latin.omdoc.org/logics/proof_theory?SFOL -->
<g id="edge85" class="edge"><title>http://cds.omdoc.org/urtheories?LF&#45;&gt;http://latin.omdoc.org/logics/proof_theory?SFOL</title>
<a class="graphmeta">
<path fill="none" stroke="black" d="M1347.8,-515.561C1383.68,-512.795 1448.65,-504.812 1499,-482 1507.54,-478.13 1515.95,-472.47 1523.29,-466.735"/>
<polygon fill="black" stroke="black" points="1525.88,-469.14 1531.35,-460.072 1521.42,-463.744 1525.88,-469.14"/>
</a>
</g>
<!-- http://cds.omdoc.org/urtheories?LF&#45;&gt;http://latin.omdoc.org/logics/proof_theory?SFOLEQ -->
<g id="edge93" class="edge"><title>http://cds.omdoc.org/urtheories?LF&#45;&gt;http://latin.omdoc.org/logics/proof_theory?SFOLEQ</title>
<a class="graphmeta">
<path fill="none" stroke="black" d="M1348.02,-515.72C1376.01,-513.107 1419.68,-505.279 1449,-482 1476.14,-460.45 1492.65,-423.144 1501.3,-397.786"/>
<polygon fill="black" stroke="black" points="1504.7,-398.649 1504.44,-388.057 1498.04,-396.501 1504.7,-398.649"/>
</a>
</g>
<!-- http://cds.omdoc.org/urtheories?LF&#45;&gt;http://latin.omdoc.org/foundations/zfc?TypedZF -->
<g id="edge95" class="edge"><title>http://cds.omdoc.org/urtheories?LF&#45;&gt;http://latin.omdoc.org/foundations/zfc?TypedZF</title>
<a class="graphmeta">
<path fill="none" stroke="black" d="M1348.09,-516.981C1428.29,-516.202 1659,-508.447 1659,-445 1659,-445 1659,-445 1659,-105 1659,-38.5932 611.07,-22.4925 356.315,-19.5596"/>
<polygon fill="black" stroke="black" points="356.222,-16.0584 346.183,-19.4451 356.143,-23.0579 356.222,-16.0584"/>
</a>
</g>
<!-- http://cds.omdoc.org/urtheories?LF&#45;&gt;http://latin.omdoc.org/foundations/minimal?STTIFOLEQ -->
<g id="edge91" class="edge"><title>http://cds.omdoc.org/urtheories?LF&#45;&gt;http://latin.omdoc.org/foundations/minimal?STTIFOLEQ</title>
<a class="graphmeta">
<path fill="none" stroke="black" d="M1294.01,-516.986C1106.07,-516.713 0,-512.253 0,-445 0,-445 0,-445 0,-237 0,-207.866 2.3818,-195.531 24,-176 72.3139,-132.352 146.103,-116.073 200.267,-110.127"/>
<polygon fill="black" stroke="black" points="200.882,-113.583 210.483,-109.102 200.183,-106.618 200.882,-113.583"/>
</a>
</g>
<!-- http://latin.omdoc.org/logics/proof_theory?SForall -->
<g id="node31" class="node"><title>http://latin.omdoc.org/logics/proof_theory?SForall</title>
<a xlink:href="http://latin.omdoc.org/logics/proof_theory?SForall" class="graphtheory">
<ellipse fill="gray" stroke="black" cx="423" cy="-444" rx="37.0701" ry="18"/>
<text text-anchor="middle" x="423" y="-440.3" font-family="Times New Roman,serif" font-size="14.00">SForall</text>
</a>
</g>
<!-- http://cds.omdoc.org/urtheories?LF&#45;&gt;http://latin.omdoc.org/logics/proof_theory?SForall -->
<g id="edge101" class="edge"><title>http://cds.omdoc.org/urtheories?LF&#45;&gt;http://latin.omdoc.org/logics/proof_theory?SForall</title>
<a class="graphmeta">
<path fill="none" stroke="black" d="M1293.81,-516.559C1199.22,-514.834 875.743,-507.334 610,-482 546.992,-475.993 530.366,-477.503 469,-462 466.041,-461.253 463.009,-460.381 459.982,-459.435"/>
<polygon fill="black" stroke="black" points="461.023,-456.092 450.429,-456.22 458.79,-462.727 461.023,-456.092"/>
</a>
</g>
<!-- http://latin.omdoc.org/logics/proof_theory?SIFOLEQ -->
<g id="node34" class="node"><title>http://latin.omdoc.org/logics/proof_theory?SIFOLEQ</title>
<a xlink:href="http://latin.omdoc.org/logics/proof_theory?SIFOLEQ" class="graphtheory">
<ellipse fill="gray" stroke="black" cx="557" cy="-370" rx="48.6179" ry="18"/>
<text text-anchor="middle" x="557" y="-366.3" font-family="Times New Roman,serif" font-size="14.00">SIFOLEQ</text>
</a>
</g>
<!-- http://cds.omdoc.org/urtheories?LF&#45;&gt;http://latin.omdoc.org/logics/proof_theory?SIFOLEQ -->
<g id="edge103" class="edge"><title>http://cds.omdoc.org/urtheories?LF&#45;&gt;http://latin.omdoc.org/logics/proof_theory?SIFOLEQ</title>
<a class="graphmeta">
<path fill="none" stroke="black" d="M1293.77,-516.474C1142.24,-513.418 408.676,-496.851 377,-462 335.669,-416.525 435.591,-390.634 502.527,-378.847"/>
<polygon fill="black" stroke="black" points="503.279,-382.269 512.551,-377.142 502.106,-375.368 503.279,-382.269"/>
</a>
</g>
<!-- http://latin.omdoc.org/logics/syntax?SExistsUnique -->
<g id="node36" class="node"><title>http://latin.omdoc.org/logics/syntax?SExistsUnique</title>
<a xlink:href="http://latin.omdoc.org/logics/syntax?SExistsUnique" class="graphtheory">
<ellipse fill="gray" stroke="black" cx="542" cy="-444" rx="63.5411" ry="18"/>
<text text-anchor="middle" x="542" y="-440.3" font-family="Times New Roman,serif" font-size="14.00">SExistsUnique</text>
</a>
</g>
<!-- http://cds.omdoc.org/urtheories?LF&#45;&gt;http://latin.omdoc.org/logics/syntax?SExistsUnique -->
<g id="edge89" class="edge"><title>http://cds.omdoc.org/urtheories?LF&#45;&gt;http://latin.omdoc.org/logics/syntax?SExistsUnique</title>
<a class="graphmeta">
<path fill="none" stroke="black" d="M1293.75,-517.058C1181.03,-517.079 751.024,-514.955 620,-482 605.38,-478.323 590.207,-471.823 577.172,-465.287"/>
<polygon fill="black" stroke="black" points="578.584,-462.075 568.098,-460.56 575.35,-468.284 578.584,-462.075"/>
</a>
</g>
<!-- http://latin.omdoc.org/logics/proof_theory?SEqual -->
<g id="node41" class="node"><title>http://latin.omdoc.org/logics/proof_theory?SEqual</title>
<a xlink:href="http://latin.omdoc.org/logics/proof_theory?SEqual" class="graphtheory">
<ellipse fill="gray" stroke="black" cx="1169" cy="-444" rx="36.096" ry="18"/>
<text text-anchor="middle" x="1169" y="-440.3" font-family="Times New Roman,serif" font-size="14.00">SEqual</text>
</a>
</g>
<!-- http://cds.omdoc.org/urtheories?LF&#45;&gt;http://latin.omdoc.org/logics/proof_theory?SEqual -->
<g id="edge99" class="edge"><title>http://cds.omdoc.org/urtheories?LF&#45;&gt;http://latin.omdoc.org/logics/proof_theory?SEqual</title>
<a class="graphmeta">
<path fill="none" stroke="black" d="M1299.54,-506.837C1274.59,-495.014 1233.04,-475.334 1203.52,-461.353"/>
<polygon fill="black" stroke="black" points="1204.94,-458.149 1194.4,-457.032 1201.94,-464.476 1204.94,-458.149"/>
</a>
</g>
<!-- http://latin.omdoc.org/logics/syntax?SInequal -->
<g id="node45" class="node"><title>http://latin.omdoc.org/logics/syntax?SInequal</title>
<a xlink:href="http://latin.omdoc.org/logics/syntax?SInequal" class="graphtheory">
<ellipse fill="gray" stroke="black" cx="70" cy="-370" rx="42.3701" ry="18"/>
<text text-anchor="middle" x="70" y="-366.3" font-family="Times New Roman,serif" font-size="14.00">SInequal</text>
</a>
</g>
<!-- http://cds.omdoc.org/urtheories?LF&#45;&gt;http://latin.omdoc.org/logics/syntax?SInequal -->
<g id="edge83" class="edge"><title>http://cds.omdoc.org/urtheories?LF&#45;&gt;http://latin.omdoc.org/logics/syntax?SInequal</title>
<a class="graphmeta">
<path fill="none" stroke="black" d="M1293.89,-517.411C1187.66,-518.703 789.566,-520.536 465,-482 419.559,-476.605 408.762,-471.508 364,-462 257.901,-439.463 225.756,-450.587 126,-408 116.194,-403.814 106.244,-397.893 97.5051,-392.013"/>
<polygon fill="black" stroke="black" points="99.4195,-389.081 89.2205,-386.212 95.4044,-394.815 99.4195,-389.081"/>
</a>
</g>
<!-- http://latin.omdoc.org/logics/proof_theory?NEG -->
<g id="node47" class="node"><title>http://latin.omdoc.org/logics/proof_theory?NEG</title>
<a xlink:href="http://latin.omdoc.org/logics/proof_theory?NEG" class="graphtheory">
<ellipse fill="gray" stroke="black" cx="1264" cy="-370" rx="29.3722" ry="18"/>
<text text-anchor="middle" x="1264" y="-366.3" font-family="Times New Roman,serif" font-size="14.00">NEG</text>
</a>
</g>
<!-- http://cds.omdoc.org/urtheories?LF&#45;&gt;http://latin.omdoc.org/logics/proof_theory?NEG -->
<g id="edge97" class="edge"><title>http://cds.omdoc.org/urtheories?LF&#45;&gt;http://latin.omdoc.org/logics/proof_theory?NEG</title>
<a class="graphmeta">
<path fill="none" stroke="black" d="M1314.27,-500.28C1311.95,-494.496 1309.35,-487.968 1307,-482 1295.58,-452.984 1282.68,-419.61 1274.02,-397.096"/>
<polygon fill="black" stroke="black" points="1277.21,-395.649 1270.35,-387.571 1270.68,-398.161 1277.21,-395.649"/>
</a>
</g>
<!-- http://latin.omdoc.org/logics/proof_theory?PLExt -->
<g id="node53" class="node"><title>http://latin.omdoc.org/logics/proof_theory?PLExt</title>
<a xlink:href="http://latin.omdoc.org/logics/proof_theory?PLExt" class="graphtheory">
<ellipse fill="gray" stroke="black" cx="1107" cy="-370" rx="33.1991" ry="18"/>
<text text-anchor="middle" x="1107" y="-366.3" font-family="Times New Roman,serif" font-size="14.00">PLExt</text>
</a>
</g>
<!-- http://cds.omdoc.org/urtheories?LF&#45;&gt;http://latin.omdoc.org/logics/proof_theory?PLExt -->
<g id="edge87" class="edge"><title>http://cds.omdoc.org/urtheories?LF&#45;&gt;http://latin.omdoc.org/logics/proof_theory?PLExt</title>
<a class="graphmeta">
<path fill="none" stroke="black" d="M1293.84,-517.831C1251.04,-517.553 1168.25,-510.309 1124,-462 1108.36,-444.922 1104.94,-418.237 1104.94,-398.171"/>
<polygon fill="black" stroke="black" points="1108.44,-398.182 1105.22,-388.088 1101.44,-397.987 1108.44,-398.182"/>
</a>
</g>
<!-- http://latin.omdoc.org/logics/proof_theory?SFOLEQ&#45;&gt;http://latin.omdoc.org/logics/proof_theory?SFOLEQExt -->
<g id="edge9" class="edge"><title>http://latin.omdoc.org/logics/proof_theory?SFOLEQ&#45;&gt;http://latin.omdoc.org/logics/proof_theory?SFOLEQExt</title>
<a class="graphinclude">
<path fill="none" stroke="black" d="M1506.45,-351.646C1501.18,-322.176 1486.31,-262.399 1449,-230 1339.4,-134.83 1162.71,-112.629 1066.58,-107.873"/>
<polygon fill="black" stroke="black" points="1066.55,-104.368 1056.4,-107.42 1066.23,-111.361 1066.55,-104.368"/>
</a>
</g>
<!-- http://latin.omdoc.org/foundations/minimal?STTIFOLEQ&#45;&gt;http://latin.omdoc.org/foundations/zfc?TypedZF -->
<g id="edge81" class="edge"><title>http://latin.omdoc.org/foundations/minimal?STTIFOLEQ&#45;&gt;http://latin.omdoc.org/foundations/zfc?TypedZF</title>
<a xlink:href="http://latin.omdoc.org/foundations/minimal?STTIFOLEQ-ZF" class="graphview">
<path fill="none" stroke="black" d="M253.832,-88.2019C246.163,-78.1288 239.878,-65.1515 246,-54 249.707,-47.2472 255.33,-41.6111 261.59,-36.9752"/>
<polygon fill="black" stroke="black" points="263.912,-39.6404 270.398,-31.2626 260.104,-33.7673 263.912,-39.6404"/>
</a>
<a xlink:href="http://latin.omdoc.org/foundations/minimal?STTIFOLEQ-ZF" class="STTIFOLEQ&#45;ZF">
<text text-anchor="middle" x="295" y="-58.3" font-family="Times New Roman,serif" font-size="14.00">STTIFOLEQ&#45;ZF</text>
</a>
</g>
<!-- http://latin.omdoc.org/logics/proof_theory?SForall&#45;&gt;http://latin.omdoc.org/logics/proof_theory?SForallExt -->
<g id="edge31" class="edge"><title>http://latin.omdoc.org/logics/proof_theory?SForall&#45;&gt;http://latin.omdoc.org/logics/proof_theory?SForallExt</title>
<a class="graphinclude">
<path fill="none" stroke="black" d="M450.371,-431.536C456.416,-429.385 462.853,-427.382 469,-426 616.572,-392.825 662.005,-435.543 808,-396 813.913,-394.398 819.977,-392.167 825.794,-389.691"/>
<polygon fill="black" stroke="black" points="827.636,-392.697 835.279,-385.36 824.729,-386.329 827.636,-392.697"/>
</a>
</g>
<!-- http://latin.omdoc.org/logics/proof_theory?SForall&#45;&gt;http://latin.omdoc.org/foundations/zfc?TypedZF -->
<g id="edge79" class="edge"><title>http://latin.omdoc.org/logics/proof_theory?SForall&#45;&gt;http://latin.omdoc.org/foundations/zfc?TypedZF</title>
<a xlink:href="http://latin.omdoc.org/foundations/minimal?SForallPF-ZF" class="graphview">
<path fill="none" stroke="black" d="M387.449,-438.834C331.064,-431.972 226.041,-418.049 212,-408 145.541,-360.437 144.936,-325.257 125,-246 120.703,-228.917 134.099,-88.5069 168,-54 188.179,-33.4606 218.86,-24.5054 245.671,-20.7784"/>
<polygon fill="black" stroke="black" points="246.206,-24.2396 255.727,-19.5927 245.386,-17.2878 246.206,-24.2396"/>
</a>
<a xlink:href="http://latin.omdoc.org/foundations/minimal?SForallPF-ZF" class="SForallPF&#45;ZF">
<text text-anchor="middle" x="164.5" y="-234.3" font-family="Times New Roman,serif" font-size="14.00">SForallPF&#45;ZF</text>
</a>
</g>
<!-- http://latin.omdoc.org/logics/proof_theory?SIFOLEQ&#45;&gt;http://latin.omdoc.org/logics/proof_theory?SExistsUnique -->
<g id="edge35" class="edge"><title>http://latin.omdoc.org/logics/proof_theory?SIFOLEQ&#45;&gt;http://latin.omdoc.org/logics/proof_theory?SExistsUnique</title>
<a class="graphinclude">
<path fill="none" stroke="black" d="M592.795,-382.22C657.092,-402.396 796.062,-437.897 910,-411 926.519,-407.1 943.505,-399.335 957.702,-391.601"/>
<polygon fill="black" stroke="black" points="959.619,-394.538 966.596,-386.565 956.17,-388.447 959.619,-394.538"/>
</a>
</g>
<!-- http://latin.omdoc.org/logics/proof_theory?SIFOLEQ&#45;&gt;http://latin.omdoc.org/logics/proof_theory?SIFOLExt -->
<g id="edge55" class="edge"><title>http://latin.omdoc.org/logics/proof_theory?SIFOLEQ&#45;&gt;http://latin.omdoc.org/logics/proof_theory?SIFOLExt</title>
<a class="graphinclude">
<path fill="none" stroke="black" d="M573.112,-352.756C585.621,-341.154 603.986,-326.202 623,-318 670.099,-297.683 687.098,-311.868 737,-300 739.96,-299.296 742.993,-298.508 746.037,-297.668"/>
<polygon fill="black" stroke="black" points="747.101,-301.003 755.72,-294.842 745.14,-294.284 747.101,-301.003"/>
</a>
</g>
<!-- http://latin.omdoc.org/logics/proof_theory?SIFOLEQ&#45;&gt;http://latin.omdoc.org/foundations/zfc?TypedZF -->
<g id="edge75" class="edge"><title>http://latin.omdoc.org/logics/proof_theory?SIFOLEQ&#45;&gt;http://latin.omdoc.org/foundations/zfc?TypedZF</title>
<a xlink:href="http://latin.omdoc.org/foundations/minimal?SIFOLEQPF-ZF" class="graphview">
<path fill="none" stroke="black" d="M509.501,-366.417C433.874,-361.814 293.039,-351.044 278,-334 273.295,-328.668 275.812,-324.766 278,-318 290.145,-280.442 316.375,-283.047 330,-246 359.534,-165.699 380.737,-131.271 344,-54 341.458,-48.6537 337.656,-43.8562 333.346,-39.6524"/>
<polygon fill="black" stroke="black" points="335.618,-36.9901 325.745,-33.146 331.066,-42.3079 335.618,-36.9901"/>
</a>
<a xlink:href="http://latin.omdoc.org/foundations/minimal?SIFOLEQPF-ZF" class="SIFOLEQPF&#45;ZF">
<text text-anchor="middle" x="404.5" y="-190.3" font-family="Times New Roman,serif" font-size="14.00">SIFOLEQPF&#45;ZF</text>
</a>
</g>
<!-- http://latin.omdoc.org/logics/proof_theory?SIFOLEQ&#45;&gt;http://latin.omdoc.org/foundations/minimal?SIFOLPFExt&#45;ZF -->
<g id="edge77" class="edge"><title>http://latin.omdoc.org/logics/proof_theory?SIFOLEQ&#45;&gt;http://latin.omdoc.org/foundations/minimal?SIFOLPFExt&#45;ZF</title>
<a xlink:href="http://latin.omdoc.org/foundations/minimal?SIFOLPFExt-ZF?[http://latin.omdoc.org/logics/proof_theory?SIFOLEQ]" class="graphstructure">
<path fill="none" stroke="black" d="M509.495,-366.252C435.481,-361.479 299.563,-350.557 285,-334 280.304,-328.66 280.232,-323.276 285,-318 302.3,-298.857 451.143,-289.657 547.593,-285.668"/>
<polygon fill="black" stroke="black" points="547.777,-289.163 557.628,-285.263 547.495,-282.169 547.777,-289.163"/>
</a>
<a xlink:href="http://latin.omdoc.org/foundations/minimal?SIFOLPFExt-ZF?[http://latin.omdoc.org/logics/proof_theory?SIFOLEQ]" class="[http://latin.omdoc.org/logics/proof_theory?SIFOLEQ]">
<text text-anchor="middle" x="440" y="-322.3" font-family="Times New Roman,serif" font-size="14.00">[http://latin.omdoc.org/logics/proof_theory?SIFOLEQ]</text>
</a>
</g>
<!-- http://latin.omdoc.org/logics/syntax?SExistsUnique&#45;&gt;http://latin.omdoc.org/logics/proof_theory?SExistsUnique -->
<g id="edge37" class="edge"><title>http://latin.omdoc.org/logics/syntax?SExistsUnique&#45;&gt;http://latin.omdoc.org/logics/proof_theory?SExistsUnique</title>
<a class="graphinclude">
<path fill="none" stroke="black" d="M603.401,-439.243C678.58,-433.753 809.426,-421.308 919,-396 928.01,-393.919 937.469,-391.142 946.48,-388.197"/>
<polygon fill="black" stroke="black" points="947.69,-391.482 956.039,-384.959 945.445,-384.852 947.69,-391.482"/>
</a>
</g>
<!-- http://latin.omdoc.org/logics/syntax?SExistsUnique&#45;&gt;http://latin.omdoc.org/foundations/zfc?TypedZF -->
<g id="edge73" class="edge"><title>http://latin.omdoc.org/logics/syntax?SExistsUnique&#45;&gt;http://latin.omdoc.org/foundations/zfc?TypedZF</title>
<a xlink:href="http://latin.omdoc.org/foundations/minimal?SExistsUnique-ZF" class="graphview">
<path fill="none" stroke="black" d="M500.919,-430.159C434.486,-408.789 307.339,-365.196 272,-334 228.063,-295.213 173.345,-131.673 201,-80 212.65,-58.2319 235.741,-43.3913 256.801,-33.8033"/>
<polygon fill="black" stroke="black" points="258.458,-36.9016 266.286,-29.7616 255.714,-30.4619 258.458,-36.9016"/>
</a>
<a xlink:href="http://latin.omdoc.org/foundations/minimal?SExistsUnique-ZF" class="SExistsUnique&#45;ZF">
<text text-anchor="middle" x="273.5" y="-234.3" font-family="Times New Roman,serif" font-size="14.00">SExistsUnique&#45;ZF</text>
</a>
</g>
<!-- http://latin.omdoc.org/logics/proof_theory?SEqual&#45;&gt;http://latin.omdoc.org/logics/proof_theory?SEqualExt -->
<g id="edge43" class="edge"><title>http://latin.omdoc.org/logics/proof_theory?SEqual&#45;&gt;http://latin.omdoc.org/logics/proof_theory?SEqualExt</title>
<a class="graphinclude">
<path fill="none" stroke="black" d="M1177.93,-426.113C1190.55,-399.675 1209.27,-348.399 1183,-318 1164.94,-297.1 1086.89,-306.315 1060,-300 1057.23,-299.349 1054.39,-298.616 1051.54,-297.831"/>
<polygon fill="black" stroke="black" points="1052.47,-294.457 1041.89,-294.999 1050.5,-301.174 1052.47,-294.457"/>
</a>
</g>
<!-- http://latin.omdoc.org/logics/proof_theory?SEqual&#45;&gt;http://latin.omdoc.org/logics/proof_theory?SInequal -->
<g id="edge47" class="edge"><title>http://latin.omdoc.org/logics/proof_theory?SEqual&#45;&gt;http://latin.omdoc.org/logics/proof_theory?SInequal</title>
<a class="graphinclude">
<path fill="none" stroke="black" d="M1169.67,-425.917C1169.55,-405.984 1166.41,-373.077 1149,-352 1090.79,-281.518 1038.89,-321.314 950,-300 946.631,-299.192 943.166,-298.261 939.704,-297.26"/>
<polygon fill="black" stroke="black" points="940.626,-293.881 930.039,-294.294 938.573,-300.573 940.626,-293.881"/>
</a>
</g>
<!-- http://latin.omdoc.org/logics/proof_theory?SEqual&#45;&gt;http://latin.omdoc.org/logics/proof_theory?SFOLEQ -->
<g id="edge69" class="edge"><title>http://latin.omdoc.org/logics/proof_theory?SEqual&#45;&gt;http://latin.omdoc.org/logics/proof_theory?SFOLEQ</title>
<a class="graphinclude">
<path fill="none" stroke="black" d="M1201.6,-436.096C1261.4,-423.432 1388.96,-396.42 1459.51,-381.479"/>
<polygon fill="black" stroke="black" points="1460.44,-384.862 1469.5,-379.366 1458.99,-378.013 1460.44,-384.862"/>
</a>
</g>
<!-- http://latin.omdoc.org/logics/proof_theory?SEqual&#45;&gt;http://latin.omdoc.org/foundations/zfc?TypedZF -->
<g id="edge67" class="edge"><title>http://latin.omdoc.org/logics/proof_theory?SEqual&#45;&gt;http://latin.omdoc.org/foundations/zfc?TypedZF</title>
<a xlink:href="http://latin.omdoc.org/foundations/minimal?SEqualPF-ZF" class="graphview">
<path fill="none" stroke="black" d="M1133.45,-440.09C1035.6,-431.955 767.014,-408.742 729,-396 665.113,-374.586 659.966,-346.691 599,-318 577.251,-307.765 567.376,-314.225 548,-300 492.47,-259.231 496.549,-230.949 455,-176 413.879,-121.617 413.249,-98.9666 362,-54 354.856,-47.7315 346.416,-42.039 338.129,-37.1519"/>
<polygon fill="black" stroke="black" points="339.699,-34.0194 329.266,-32.1757 336.272,-40.1232 339.699,-34.0194"/>
</a>
<a xlink:href="http://latin.omdoc.org/foundations/minimal?SEqualPF-ZF" class="SEqualPF&#45;ZF">
<text text-anchor="middle" x="537" y="-234.3" font-family="Times New Roman,serif" font-size="14.00">SEqualPF&#45;ZF</text>
</a>
</g>
<!-- http://latin.omdoc.org/logics/proof_theory?SEqual&#45;&gt;http://latin.omdoc.org/logics/proof_theory?SIFOLEQ -->
<g id="edge71" class="edge"><title>http://latin.omdoc.org/logics/proof_theory?SEqual&#45;&gt;http://latin.omdoc.org/logics/proof_theory?SIFOLEQ</title>
<a class="graphinclude">
<path fill="none" stroke="black" d="M1133.26,-440.852C1052.27,-435.703 848.705,-421.182 680,-396 655.797,-392.387 629.159,-387.133 606.88,-382.373"/>
<polygon fill="black" stroke="black" points="607.489,-378.924 596.974,-380.229 606.007,-385.766 607.489,-378.924"/>
</a>
</g>
<!-- http://latin.omdoc.org/logics/syntax?SInequal&#45;&gt;http://latin.omdoc.org/logics/proof_theory?SInequal -->
<g id="edge49" class="edge"><title>http://latin.omdoc.org/logics/syntax?SInequal&#45;&gt;http://latin.omdoc.org/logics/proof_theory?SInequal</title>
<a class="graphinclude">
<path fill="none" stroke="black" d="M111.712,-367.293C188.392,-364.167 356.92,-357.352 499,-352 526.998,-350.945 983.545,-354.162 1003,-334 1007.94,-328.883 1007.15,-323.775 1003,-318 1002.87,-317.825 969.687,-306.674 940.841,-297.006"/>
<polygon fill="black" stroke="black" points="941.872,-293.66 931.278,-293.802 939.648,-300.298 941.872,-293.66"/>
</a>
</g>
<!-- http://latin.omdoc.org/logics/syntax?SInequal&#45;&gt;http://latin.omdoc.org/foundations/zfc?TypedZF -->
<g id="edge65" class="edge"><title>http://latin.omdoc.org/logics/syntax?SInequal&#45;&gt;http://latin.omdoc.org/foundations/zfc?TypedZF</title>
<a xlink:href="http://latin.omdoc.org/foundations/minimal?SInequal-ZF" class="graphview">
<path fill="none" stroke="black" d="M62.4063,-352.252C55.375,-335.195 46,-307.802 46,-283 46,-283 46,-283 46,-105 46,-62.6649 173.791,-37.1708 248.443,-25.8896"/>
<polygon fill="black" stroke="black" points="249.223,-29.3126 258.606,-24.3919 248.202,-22.3874 249.223,-29.3126"/>
</a>
<a xlink:href="http://latin.omdoc.org/foundations/minimal?SInequal-ZF" class="SInequal&#45;ZF">
<text text-anchor="middle" x="81" y="-190.3" font-family="Times New Roman,serif" font-size="14.00">SInequal&#45;ZF</text>
</a>
</g>
<!-- http://latin.omdoc.org/logics/proof_theory?NEG&#45;&gt;http://latin.omdoc.org/logics/proof_theory?SInequal -->
<g id="edge51" class="edge"><title>http://latin.omdoc.org/logics/proof_theory?NEG&#45;&gt;http://latin.omdoc.org/logics/proof_theory?SInequal</title>
<a class="graphinclude">
<path fill="none" stroke="black" d="M1247.24,-354.991C1231.67,-342.861 1207.3,-326.038 1183,-318 1084.39,-285.376 1051.81,-320.576 950,-300 946.404,-299.273 942.709,-298.369 939.031,-297.358"/>
<polygon fill="black" stroke="black" points="939.998,-293.994 929.415,-294.485 937.994,-300.701 939.998,-293.994"/>
</a>
</g>
<!-- http://latin.omdoc.org/logics/proof_theory?PLExt&#45;&gt;http://latin.omdoc.org/logics/proof_theory?SIFOLExt -->
<g id="edge61" class="edge"><title>http://latin.omdoc.org/logics/proof_theory?PLExt&#45;&gt;http://latin.omdoc.org/logics/proof_theory?SIFOLExt</title>
<a class="graphinclude">
<path fill="none" stroke="black" d="M1092.59,-353.621C1080.37,-341.671 1061.72,-325.853 1042,-318 961.549,-285.969 933.054,-316.253 848,-300 843.65,-299.169 839.158,-298.15 834.69,-297.027"/>
<polygon fill="black" stroke="black" points="835.572,-293.64 825.007,-294.437 833.763,-300.402 835.572,-293.64"/>
</a>
</g>
</g>
</svg>
