<?xml version="1.0" encoding="UTF-8" standalone="no"?>
<!DOCTYPE svg PUBLIC "-//W3C//DTD SVG 1.1//EN"
 "http://www.w3.org/Graphics/SVG/1.1/DTD/svg11.dtd">
<!-- Generated by graphviz version 2.28.0 (20110507.0327)
 -->
<!-- Title: MMT Pages: 1 -->
<svg width="2577pt" height="398pt"
 viewBox="0.00 0.00 2577.00 398.00" xmlns="http://www.w3.org/2000/svg" xmlns:xlink="http://www.w3.org/1999/xlink">
<g id="graph1" class="graph" transform="scale(1 1) rotate(0) translate(4 394)">
<title>MMT</title>
<polygon fill="white" stroke="white" points="-4,5 -4,-394 2574,-394 2574,5 -4,5"/>
<g id="graph2" class="cluster"><title>cluster_local</title>
<polygon fill="none" stroke="black" points="543,-8 543,-324 1004,-324 1004,-8 543,-8"/>
</g>
<!-- http://latin.omdoc.org/type_theories?LambdaP -->
<g id="node2" class="node"><title>http://latin.omdoc.org/type_theories?LambdaP</title>
<a xlink:href="http://latin.omdoc.org/type_theories?LambdaP" class="graphtheory">
<ellipse fill="none" stroke="black" cx="597" cy="-210" rx="46.2191" ry="18"/>
<text text-anchor="middle" x="597" y="-206.3" font-family="Times New Roman,serif" font-size="14.00">LambdaP</text>
</a>
</g>
<!-- http://latin.omdoc.org/type_theories?LambdaPOmega_ -->
<g id="node4" class="node"><title>http://latin.omdoc.org/type_theories?LambdaPOmega_</title>
<a xlink:href="http://latin.omdoc.org/type_theories?LambdaPOmega_" class="graphtheory">
<ellipse fill="none" stroke="black" cx="919" cy="-122" rx="76.5394" ry="18"/>
<text text-anchor="middle" x="919" y="-118.3" font-family="Times New Roman,serif" font-size="14.00">LambdaPOmega_</text>
</a>
</g>
<!-- http://latin.omdoc.org/type_theories?LambdaP&#45;&gt;http://latin.omdoc.org/type_theories?LambdaPOmega_ -->
<g id="edge29" class="edge"><title>http://latin.omdoc.org/type_theories?LambdaP&#45;&gt;http://latin.omdoc.org/type_theories?LambdaPOmega_</title>
<a class="graphinclude">
<path fill="none" stroke="black" d="M630.495,-197.635C637.539,-195.531 644.967,-193.521 652,-192 714.179,-178.556 732.469,-190.154 794,-174 823.119,-166.355 854.487,-153.542 878.516,-142.672"/>
<polygon fill="black" stroke="black" points="880.05,-145.819 887.674,-138.463 877.126,-139.459 880.05,-145.819"/>
</a>
</g>
<!-- http://latin.omdoc.org/type_theories?LambdaP2 -->
<g id="node5" class="node"><title>http://latin.omdoc.org/type_theories?LambdaP2</title>
<a xlink:href="http://latin.omdoc.org/type_theories?LambdaP2" class="graphtheory">
<ellipse fill="none" stroke="black" cx="624" cy="-122" rx="50.0684" ry="18"/>
<text text-anchor="middle" x="624" y="-118.3" font-family="Times New Roman,serif" font-size="14.00">LambdaP2</text>
</a>
</g>
<!-- http://latin.omdoc.org/type_theories?LambdaP&#45;&gt;http://latin.omdoc.org/type_theories?LambdaP2 -->
<g id="edge33" class="edge"><title>http://latin.omdoc.org/type_theories?LambdaP&#45;&gt;http://latin.omdoc.org/type_theories?LambdaP2</title>
<a class="graphinclude">
<path fill="none" stroke="black" d="M573.363,-194.298C560.683,-184.465 549.129,-170.993 557,-158 561.894,-149.922 569.331,-143.62 577.496,-138.733"/>
<polygon fill="black" stroke="black" points="579.332,-141.722 586.554,-133.97 576.074,-135.527 579.332,-141.722"/>
</a>
</g>
<!-- http://latin.omdoc.org/logics/syntax?LambdaPHOL -->
<g id="node15" class="node"><title>http://latin.omdoc.org/logics/syntax?LambdaPHOL</title>
<a xlink:href="http://latin.omdoc.org/logics/syntax?LambdaPHOL" class="graphtheory">
<ellipse fill="gray" stroke="black" cx="64" cy="-122" rx="64.0172" ry="18"/>
<text text-anchor="middle" x="64" y="-118.3" font-family="Times New Roman,serif" font-size="14.00">LambdaPHOL</text>
</a>
</g>
<!-- http://latin.omdoc.org/type_theories?LambdaP&#45;&gt;http://latin.omdoc.org/logics/syntax?LambdaPHOL -->
<g id="edge13" class="edge"><title>http://latin.omdoc.org/type_theories?LambdaP&#45;&gt;http://latin.omdoc.org/logics/syntax?LambdaPHOL</title>
<a class="graphinclude">
<path fill="none" stroke="black" d="M565.344,-196.791C559.33,-194.887 553.031,-193.166 547,-192 402.352,-164.026 360.704,-201.683 216,-174 178.38,-166.803 137.285,-152.607 107.321,-141.016"/>
<polygon fill="black" stroke="black" points="108.589,-137.754 98.0018,-137.357 106.031,-144.27 108.589,-137.754"/>
</a>
</g>
<!-- http://latin.omdoc.org/type_theories?Lambda2 -->
<g id="node3" class="node"><title>http://latin.omdoc.org/type_theories?Lambda2</title>
<a xlink:href="http://latin.omdoc.org/type_theories?Lambda2" class="graphtheory">
<ellipse fill="none" stroke="black" cx="706" cy="-210" rx="44.271" ry="18"/>
<text text-anchor="middle" x="706" y="-206.3" font-family="Times New Roman,serif" font-size="14.00">Lambda2</text>
</a>
</g>
<!-- http://latin.omdoc.org/type_theories?Lambda2&#45;&gt;http://latin.omdoc.org/type_theories?LambdaP2 -->
<g id="edge7" class="edge"><title>http://latin.omdoc.org/type_theories?Lambda2&#45;&gt;http://latin.omdoc.org/type_theories?LambdaP2</title>
<a xlink:href="http://latin.omdoc.org/type_theories?Lambda2ToP2" class="graphview">
<path fill="none" stroke="black" d="M672.074,-198.314C641.49,-188.602 601.125,-175.556 600,-174 594.238,-166.03 596.699,-156.458 601.815,-147.769"/>
<polygon fill="black" stroke="black" points="604.756,-149.671 607.609,-139.468 599.015,-145.665 604.756,-149.671"/>
</a>
<a xlink:href="http://latin.omdoc.org/type_theories?Lambda2ToP2" class="Lambda2ToP2">
<text text-anchor="middle" x="642.5" y="-162.3" font-family="Times New Roman,serif" font-size="14.00">Lambda2ToP2</text>
</a>
</g>
<!-- http://latin.omdoc.org/type_theories?LambdaOmega -->
<g id="node6" class="node"><title>http://latin.omdoc.org/type_theories?LambdaOmega</title>
<a xlink:href="http://latin.omdoc.org/type_theories?LambdaOmega" class="graphtheory">
<ellipse fill="none" stroke="black" cx="758" cy="-122" rx="65.9423" ry="18"/>
<text text-anchor="middle" x="758" y="-118.3" font-family="Times New Roman,serif" font-size="14.00">LambdaOmega</text>
</a>
</g>
<!-- http://latin.omdoc.org/type_theories?Lambda2&#45;&gt;http://latin.omdoc.org/type_theories?LambdaOmega -->
<g id="edge11" class="edge"><title>http://latin.omdoc.org/type_theories?Lambda2&#45;&gt;http://latin.omdoc.org/type_theories?LambdaOmega</title>
<a xlink:href="http://latin.omdoc.org/type_theories?Lambda2ToOmega" class="graphview">
<path fill="none" stroke="black" d="M695.17,-192.475C689.791,-182.022 685.657,-168.543 692,-158 695.953,-151.429 701.601,-146.026 707.949,-141.603"/>
<polygon fill="black" stroke="black" points="710.203,-144.33 716.948,-136.16 706.58,-138.341 710.203,-144.33"/>
</a>
<a xlink:href="http://latin.omdoc.org/type_theories?Lambda2ToOmega" class="Lambda2ToOmega">
<text text-anchor="middle" x="746.5" y="-162.3" font-family="Times New Roman,serif" font-size="14.00">Lambda2ToOmega</text>
</a>
</g>
<!-- http://latin.omdoc.org/type_theories?LambdaPOmega -->
<g id="node8" class="node"><title>http://latin.omdoc.org/type_theories?LambdaPOmega</title>
<a xlink:href="http://latin.omdoc.org/type_theories?LambdaPOmega" class="graphtheory">
<ellipse fill="none" stroke="black" cx="839" cy="-34" rx="71.2405" ry="18"/>
<text text-anchor="middle" x="839" y="-30.3" font-family="Times New Roman,serif" font-size="14.00">LambdaPOmega</text>
</a>
</g>
<!-- http://latin.omdoc.org/type_theories?LambdaPOmega_&#45;&gt;http://latin.omdoc.org/type_theories?LambdaPOmega -->
<g id="edge53" class="edge"><title>http://latin.omdoc.org/type_theories?LambdaPOmega_&#45;&gt;http://latin.omdoc.org/type_theories?LambdaPOmega</title>
<a class="graphinclude">
<path fill="none" stroke="black" d="M920.553,-103.884C920.643,-93.1961 919.056,-79.6764 912,-70 906.941,-63.062 900.139,-57.4421 892.714,-52.9064"/>
<polygon fill="black" stroke="black" points="894.239,-49.7518 883.779,-48.0658 890.904,-55.9067 894.239,-49.7518"/>
</a>
</g>
<!-- http://latin.omdoc.org/type_theories?LambdaP2&#45;&gt;http://latin.omdoc.org/type_theories?LambdaPOmega -->
<g id="edge55" class="edge"><title>http://latin.omdoc.org/type_theories?LambdaP2&#45;&gt;http://latin.omdoc.org/type_theories?LambdaPOmega</title>
<a class="graphinclude">
<path fill="none" stroke="black" d="M655.261,-107.91C680.286,-97.4871 716.315,-82.6074 748,-70 762.184,-64.3562 777.669,-58.345 791.777,-52.9258"/>
<polygon fill="black" stroke="black" points="793.205,-56.1267 801.291,-49.2804 790.701,-49.59 793.205,-56.1267"/>
</a>
</g>
<!-- http://latin.omdoc.org/type_theories?LambdaOmega&#45;&gt;http://latin.omdoc.org/type_theories?LambdaPOmega -->
<g id="edge3" class="edge"><title>http://latin.omdoc.org/type_theories?LambdaOmega&#45;&gt;http://latin.omdoc.org/type_theories?LambdaPOmega</title>
<a xlink:href="http://latin.omdoc.org/type_theories?LambdaOmegaToPOmega" class="graphview">
<path fill="none" stroke="black" d="M753.079,-104.038C751.041,-93.4113 750.46,-79.9021 757,-70 762.318,-61.9477 769.909,-55.7416 778.351,-50.9601"/>
<polygon fill="black" stroke="black" points="779.992,-54.0532 787.396,-46.4752 776.882,-47.7818 779.992,-54.0532"/>
</a>
<a xlink:href="http://latin.omdoc.org/type_theories?LambdaOmegaToPOmega" class="LambdaOmegaToPOmega">
<text text-anchor="middle" x="832.5" y="-74.3" font-family="Times New Roman,serif" font-size="14.00">LambdaOmegaToPOmega</text>
</a>
</g>
<!-- http://latin.omdoc.org/type_theories?LambdaOmega_ -->
<g id="node7" class="node"><title>http://latin.omdoc.org/type_theories?LambdaOmega_</title>
<a xlink:href="http://latin.omdoc.org/type_theories?LambdaOmega_" class="graphtheory">
<ellipse fill="none" stroke="black" cx="840" cy="-210" rx="71.2405" ry="18"/>
<text text-anchor="middle" x="840" y="-206.3" font-family="Times New Roman,serif" font-size="14.00">LambdaOmega_</text>
</a>
</g>
<!-- http://latin.omdoc.org/type_theories?LambdaOmega_&#45;&gt;http://latin.omdoc.org/type_theories?LambdaPOmega_ -->
<g id="edge5" class="edge"><title>http://latin.omdoc.org/type_theories?LambdaOmega_&#45;&gt;http://latin.omdoc.org/type_theories?LambdaPOmega_</title>
<a xlink:href="http://latin.omdoc.org/type_theories?LambdaOmega_ToPOmega_" class="graphview">
<path fill="none" stroke="black" d="M855.608,-192.009C867.369,-179.205 883.658,-161.473 896.779,-147.19"/>
<polygon fill="black" stroke="black" points="899.506,-149.395 903.693,-139.663 894.351,-144.66 899.506,-149.395"/>
</a>
<a xlink:href="http://latin.omdoc.org/type_theories?LambdaOmega_ToPOmega_" class="LambdaOmega_ToPOmega_">
<text text-anchor="middle" x="969" y="-162.3" font-family="Times New Roman,serif" font-size="14.00">LambdaOmega_ToPOmega_</text>
</a>
</g>
<!-- http://latin.omdoc.org/type_theories?LambdaOmega_&#45;&gt;http://latin.omdoc.org/type_theories?LambdaOmega -->
<g id="edge41" class="edge"><title>http://latin.omdoc.org/type_theories?LambdaOmega_&#45;&gt;http://latin.omdoc.org/type_theories?LambdaOmega</title>
<a class="graphinclude">
<path fill="none" stroke="black" d="M828.625,-192.128C821.293,-181.79 811.245,-168.56 801,-158 796.878,-153.751 792.255,-149.524 787.609,-145.553"/>
<polygon fill="black" stroke="black" points="789.795,-142.819 779.854,-139.153 785.34,-148.218 789.795,-142.819"/>
</a>
</g>
<!-- http://latin.omdoc.org/type_theories?LambdaOmegaToPOmega -->
<g id="node38" class="node"><title>http://latin.omdoc.org/type_theories?LambdaOmegaToPOmega</title>
<a xlink:href="http://latin.omdoc.org/type_theories?LambdaOmegaToPOmega" class="graphtheory">
<ellipse fill="gray" stroke="black" cx="255" cy="-122" rx="108.31" ry="18"/>
<text text-anchor="middle" x="255" y="-118.3" font-family="Times New Roman,serif" font-size="14.00">LambdaOmegaToPOmega</text>
</a>
</g>
<!-- http://latin.omdoc.org/type_theories?LambdaOmega_&#45;&gt;http://latin.omdoc.org/type_theories?LambdaOmegaToPOmega -->
<g id="edge45" class="edge"><title>http://latin.omdoc.org/type_theories?LambdaOmega_&#45;&gt;http://latin.omdoc.org/type_theories?LambdaOmegaToPOmega</title>
<a xlink:href="http://latin.omdoc.org/type_theories?LambdaOmegaToPOmega?[http://latin.omdoc.org/type_theories?LambdaOmega_]" class="graphstructure">
<path fill="none" stroke="black" d="M790.099,-197.149C779.865,-195.108 769.126,-193.246 759,-192 706.69,-185.564 330.245,-201.03 285,-174 275.837,-168.526 269.17,-159.094 264.482,-149.818"/>
<polygon fill="black" stroke="black" points="267.549,-148.101 260.292,-140.381 261.151,-150.941 267.549,-148.101"/>
</a>
<a xlink:href="http://latin.omdoc.org/type_theories?LambdaOmegaToPOmega?[http://latin.omdoc.org/type_theories?LambdaOmega_]" class="[http://latin.omdoc.org/type_theories?LambdaOmega_]">
<text text-anchor="middle" x="439" y="-162.3" font-family="Times New Roman,serif" font-size="14.00">[http://latin.omdoc.org/type_theories?LambdaOmega_]</text>
</a>
</g>
<!-- http://latin.omdoc.org/type_theories?LambdaArrow -->
<g id="node9" class="node"><title>http://latin.omdoc.org/type_theories?LambdaArrow</title>
<a xlink:href="http://latin.omdoc.org/type_theories?LambdaArrow" class="graphtheory">
<ellipse fill="none" stroke="black" cx="652" cy="-298" rx="63.5411" ry="18"/>
<text text-anchor="middle" x="652" y="-294.3" font-family="Times New Roman,serif" font-size="14.00">LambdaArrow</text>
</a>
</g>
<!-- http://latin.omdoc.org/type_theories?LambdaArrow&#45;&gt;http://latin.omdoc.org/type_theories?LambdaP -->
<g id="edge9" class="edge"><title>http://latin.omdoc.org/type_theories?LambdaArrow&#45;&gt;http://latin.omdoc.org/type_theories?LambdaP</title>
<a xlink:href="http://latin.omdoc.org/type_theories?LambdaArrowToP" class="graphview">
<path fill="none" stroke="black" d="M613.704,-283.521C604.319,-278.304 595.422,-271.287 590,-262 585.818,-254.837 585.588,-246.164 586.995,-238.018"/>
<polygon fill="black" stroke="black" points="590.436,-238.686 589.478,-228.134 583.647,-236.98 590.436,-238.686"/>
</a>
<a xlink:href="http://latin.omdoc.org/type_theories?LambdaArrowToP" class="LambdaArrowToP">
<text text-anchor="middle" x="643.5" y="-250.3" font-family="Times New Roman,serif" font-size="14.00">LambdaArrowToP</text>
</a>
</g>
<!-- http://latin.omdoc.org/type_theories?LambdaArrow&#45;&gt;http://latin.omdoc.org/type_theories?Lambda2 -->
<g id="edge23" class="edge"><title>http://latin.omdoc.org/type_theories?LambdaArrow&#45;&gt;http://latin.omdoc.org/type_theories?Lambda2</title>
<a class="graphinclude">
<path fill="none" stroke="black" d="M681.406,-282.033C689.002,-276.74 696.344,-270.055 701,-262 705.087,-254.931 706.886,-246.375 707.512,-238.307"/>
<polygon fill="black" stroke="black" points="711.015,-238.229 707.754,-228.149 704.017,-238.063 711.015,-238.229"/>
</a>
</g>
<!-- http://latin.omdoc.org/type_theories?LambdaArrow&#45;&gt;http://latin.omdoc.org/type_theories?LambdaOmega_ -->
<g id="edge49" class="edge"><title>http://latin.omdoc.org/type_theories?LambdaArrow&#45;&gt;http://latin.omdoc.org/type_theories?LambdaOmega_</title>
<a class="graphinclude">
<path fill="none" stroke="black" d="M681.45,-282.021C690.601,-276.507 700.298,-269.702 708,-262 713.93,-256.07 711.303,-251.047 718,-246 727.904,-238.537 752.684,-230.87 777.343,-224.622"/>
<polygon fill="black" stroke="black" points="778.25,-228.003 787.122,-222.212 776.575,-221.206 778.25,-228.003"/>
</a>
</g>
<!-- http://latin.omdoc.org/type_theories?Lambda2ToP2 -->
<g id="node47" class="node"><title>http://latin.omdoc.org/type_theories?Lambda2ToP2</title>
<a xlink:href="http://latin.omdoc.org/type_theories?Lambda2ToP2" class="graphtheory">
<ellipse fill="gray" stroke="black" cx="1078" cy="-210" rx="65.4659" ry="18"/>
<text text-anchor="middle" x="1078" y="-206.3" font-family="Times New Roman,serif" font-size="14.00">Lambda2ToP2</text>
</a>
</g>
<!-- http://latin.omdoc.org/type_theories?LambdaArrow&#45;&gt;http://latin.omdoc.org/type_theories?Lambda2ToP2 -->
<g id="edge59" class="edge"><title>http://latin.omdoc.org/type_theories?LambdaArrow&#45;&gt;http://latin.omdoc.org/type_theories?Lambda2ToP2</title>
<a xlink:href="http://latin.omdoc.org/type_theories?Lambda2ToP2?[http://latin.omdoc.org/type_theories?LambdaArrow]" class="graphstructure">
<path fill="none" stroke="black" d="M683.656,-282.259C710.741,-270.351 751.088,-254.262 788,-246 883.736,-224.571 911.148,-243.624 1008,-228 1012.76,-227.231 1017.68,-226.308 1022.6,-225.294"/>
<polygon fill="black" stroke="black" points="1023.62,-228.654 1032.65,-223.107 1022.13,-221.815 1023.62,-228.654"/>
</a>
<a xlink:href="http://latin.omdoc.org/type_theories?Lambda2ToP2?[http://latin.omdoc.org/type_theories?LambdaArrow]" class="[http://latin.omdoc.org/type_theories?LambdaArrow]">
<text text-anchor="middle" x="936.5" y="-250.3" font-family="Times New Roman,serif" font-size="14.00">[http://latin.omdoc.org/type_theories?LambdaArrow]</text>
</a>
</g>
<!-- http://latin.omdoc.org/type_theories?LambdaOmega_ToPOmega_ -->
<g id="node49" class="node"><title>http://latin.omdoc.org/type_theories?LambdaOmega_ToPOmega_</title>
<a xlink:href="http://latin.omdoc.org/type_theories?LambdaOmega_ToPOmega_" class="graphtheory">
<ellipse fill="gray" stroke="black" cx="1280" cy="-210" rx="117.935" ry="18"/>
<text text-anchor="middle" x="1280" y="-206.3" font-family="Times New Roman,serif" font-size="14.00">LambdaOmega_ToPOmega_</text>
</a>
</g>
<!-- http://latin.omdoc.org/type_theories?LambdaArrow&#45;&gt;http://latin.omdoc.org/type_theories?LambdaOmega_ToPOmega_ -->
<g id="edge61" class="edge"><title>http://latin.omdoc.org/type_theories?LambdaArrow&#45;&gt;http://latin.omdoc.org/type_theories?LambdaOmega_ToPOmega_</title>
<a xlink:href="http://latin.omdoc.org/type_theories?LambdaOmega_ToPOmega_?[http://latin.omdoc.org/type_theories?LambdaArrow]" class="graphstructure">
<path fill="none" stroke="black" d="M694.972,-284.605C702.901,-282.744 711.155,-281.088 719,-280 755.663,-274.917 1359.18,-288.524 1385,-262 1399.78,-246.811 1384.96,-235.52 1362.26,-227.478"/>
<polygon fill="black" stroke="black" points="1363.07,-224.064 1352.48,-224.337 1360.93,-230.728 1363.07,-224.064"/>
</a>
<a xlink:href="http://latin.omdoc.org/type_theories?LambdaOmega_ToPOmega_?[http://latin.omdoc.org/type_theories?LambdaArrow]" class="[http://latin.omdoc.org/type_theories?LambdaArrow]">
<text text-anchor="middle" x="1539.5" y="-250.3" font-family="Times New Roman,serif" font-size="14.00">[http://latin.omdoc.org/type_theories?LambdaArrow]</text>
</a>
</g>
<!-- http://latin.omdoc.org/type_theories?DepTypes -->
<g id="node17" class="node"><title>http://latin.omdoc.org/type_theories?DepTypes</title>
<a xlink:href="http://latin.omdoc.org/type_theories?DepTypes" class="graphtheory">
<ellipse fill="gray" stroke="black" cx="2475" cy="-210" rx="48.6179" ry="18"/>
<text text-anchor="middle" x="2475" y="-206.3" font-family="Times New Roman,serif" font-size="14.00">DepTypes</text>
</a>
</g>
<!-- http://latin.omdoc.org/type_theories?DepTypes&#45;&gt;http://latin.omdoc.org/type_theories?LambdaP -->
<g id="edge15" class="edge"><title>http://latin.omdoc.org/type_theories?DepTypes&#45;&gt;http://latin.omdoc.org/type_theories?LambdaP</title>
<a class="graphinclude">
<path fill="none" stroke="black" d="M2441.85,-223.297C2413.29,-234.002 2370.66,-248.187 2332,-254 2240.2,-267.804 749.656,-281.536 661,-254 647.25,-249.729 633.836,-241.366 622.869,-233.067"/>
<polygon fill="black" stroke="black" points="625,-230.29 614.995,-226.803 620.642,-235.768 625,-230.29"/>
</a>
</g>
<!-- http://latin.omdoc.org/type_theories?DepKinds -->
<g id="node19" class="node"><title>http://latin.omdoc.org/type_theories?DepKinds</title>
<a xlink:href="http://latin.omdoc.org/type_theories?DepKinds" class="graphtheory">
<ellipse fill="gray" stroke="black" cx="447" cy="-298" rx="47.169" ry="18"/>
<text text-anchor="middle" x="447" y="-294.3" font-family="Times New Roman,serif" font-size="14.00">DepKinds</text>
</a>
</g>
<!-- http://latin.omdoc.org/type_theories?DepKinds&#45;&gt;http://latin.omdoc.org/type_theories?LambdaP -->
<g id="edge17" class="edge"><title>http://latin.omdoc.org/type_theories?DepKinds&#45;&gt;http://latin.omdoc.org/type_theories?LambdaP</title>
<a class="graphinclude">
<path fill="none" stroke="black" d="M463.238,-280.914C474.933,-269.985 491.499,-255.791 508,-246 516.39,-241.022 535.832,-233.239 554.41,-226.275"/>
<polygon fill="black" stroke="black" points="555.823,-229.484 563.984,-222.727 553.391,-222.92 555.823,-229.484"/>
</a>
</g>
<!-- http://cds.omdoc.org/urtheories?LF -->
<g id="node21" class="node"><title>http://cds.omdoc.org/urtheories?LF</title>
<a xlink:href="http://cds.omdoc.org/urtheories?LF" class="graphtheory">
<ellipse fill="gray" stroke="black" cx="2161" cy="-372" rx="27" ry="18"/>
<text text-anchor="middle" x="2161" y="-368.3" font-family="Times New Roman,serif" font-size="14.00">LF</text>
</a>
</g>
<!-- http://cds.omdoc.org/urtheories?LF&#45;&gt;http://latin.omdoc.org/type_theories?LambdaP -->
<g id="edge19" class="edge"><title>http://cds.omdoc.org/urtheories?LF&#45;&gt;http://latin.omdoc.org/type_theories?LambdaP</title>
<a class="graphmeta">
<path fill="none" stroke="black" d="M2134.05,-370.859C1955.86,-369.856 945.096,-363.037 638,-336 603.061,-332.924 582.838,-350.62 560,-324 537.309,-297.551 552.482,-277.203 568,-246 569.898,-242.185 572.285,-238.421 574.871,-234.858"/>
<polygon fill="black" stroke="black" points="577.652,-236.985 581.129,-226.977 572.17,-232.632 577.652,-236.985"/>
</a>
</g>
<!-- http://cds.omdoc.org/urtheories?LF&#45;&gt;http://latin.omdoc.org/type_theories?Lambda2 -->
<g id="edge25" class="edge"><title>http://cds.omdoc.org/urtheories?LF&#45;&gt;http://latin.omdoc.org/type_theories?Lambda2</title>
<a class="graphmeta">
<path fill="none" stroke="black" d="M2134.04,-370.731C1927.75,-368.607 606.416,-353.849 579,-324 555.519,-298.435 560.206,-272.18 583,-246 603.811,-222.097 621.542,-236.761 652,-228 655.513,-226.99 659.144,-225.914 662.786,-224.814"/>
<polygon fill="black" stroke="black" points="663.843,-228.15 672.376,-221.87 661.789,-221.459 663.843,-228.15"/>
</a>
</g>
<!-- http://cds.omdoc.org/urtheories?LF&#45;&gt;http://latin.omdoc.org/type_theories?LambdaPOmega_ -->
<g id="edge31" class="edge"><title>http://cds.omdoc.org/urtheories?LF&#45;&gt;http://latin.omdoc.org/type_theories?LambdaPOmega_</title>
<a class="graphmeta">
<path fill="none" stroke="black" d="M2187.98,-370.242C2219.98,-368.172 2273.78,-360.903 2312,-336 2366.7,-300.357 2378.31,-245.57 2341,-192 2316.08,-156.23 2291.85,-165.984 2249,-158 2112.45,-132.559 1137.03,-155.51 999,-140 992.889,-139.313 986.555,-138.372 980.25,-137.283"/>
<polygon fill="black" stroke="black" points="980.869,-133.838 970.4,-135.464 979.598,-140.722 980.869,-133.838"/>
</a>
</g>
<!-- http://cds.omdoc.org/urtheories?LF&#45;&gt;http://latin.omdoc.org/type_theories?LambdaP2 -->
<g id="edge37" class="edge"><title>http://cds.omdoc.org/urtheories?LF&#45;&gt;http://latin.omdoc.org/type_theories?LambdaP2</title>
<a class="graphmeta">
<path fill="none" stroke="black" d="M2164.16,-353.827C2168.07,-326.516 2170.98,-273.469 2141,-246 1971.31,-90.4996 1338.72,-172.236 1109,-158 919.861,-146.279 870.04,-170.45 683,-140 678.56,-139.277 673.98,-138.331 669.427,-137.254"/>
<polygon fill="black" stroke="black" points="670.125,-133.82 659.569,-134.725 668.386,-140.6 670.125,-133.82"/>
</a>
</g>
<!-- http://cds.omdoc.org/urtheories?LF&#45;&gt;http://latin.omdoc.org/type_theories?LambdaOmega -->
<g id="edge43" class="edge"><title>http://cds.omdoc.org/urtheories?LF&#45;&gt;http://latin.omdoc.org/type_theories?LambdaOmega</title>
<a class="graphmeta">
<path fill="none" stroke="black" d="M2178.49,-357.84C2201.41,-339.377 2240.5,-303.372 2256,-262 2258.49,-255.341 2259.46,-252.214 2256,-246 2248.63,-232.743 2238.16,-238.27 2227,-228 2198.48,-201.762 2209.51,-175.643 2175,-158 2141.81,-141.028 870.021,-144.395 833,-140 826.823,-139.267 820.409,-138.237 814.051,-137.044"/>
<polygon fill="black" stroke="black" points="814.639,-133.592 804.145,-135.052 813.259,-140.455 814.639,-133.592"/>
</a>
</g>
<!-- http://cds.omdoc.org/urtheories?LF&#45;&gt;http://latin.omdoc.org/type_theories?LambdaOmega_ -->
<g id="edge51" class="edge"><title>http://cds.omdoc.org/urtheories?LF&#45;&gt;http://latin.omdoc.org/type_theories?LambdaOmega_</title>
<a class="graphmeta">
<path fill="none" stroke="black" d="M2133.85,-371.082C1945.71,-371.373 840.663,-368.524 743,-262 727.369,-244.951 748.459,-232.593 774.918,-224.316"/>
<polygon fill="black" stroke="black" points="776.213,-227.585 784.851,-221.45 774.273,-220.86 776.213,-227.585"/>
</a>
</g>
<!-- http://cds.omdoc.org/urtheories?LF&#45;&gt;http://latin.omdoc.org/type_theories?LambdaPOmega -->
<g id="edge57" class="edge"><title>http://cds.omdoc.org/urtheories?LF&#45;&gt;http://latin.omdoc.org/type_theories?LambdaPOmega</title>
<a class="graphmeta">
<path fill="none" stroke="black" d="M2187.73,-368.585C2249.71,-362.249 2398,-342.54 2398,-299 2398,-299 2398,-299 2398,-121 2398,-46.2715 1240.95,-36.4725 920.437,-35.1917"/>
<polygon fill="black" stroke="black" points="920.308,-31.6913 910.295,-35.1529 920.281,-38.6912 920.308,-31.6913"/>
</a>
</g>
<!-- http://cds.omdoc.org/urtheories?LF&#45;&gt;http://latin.omdoc.org/type_theories?LambdaArrow -->
<g id="edge65" class="edge"><title>http://cds.omdoc.org/urtheories?LF&#45;&gt;http://latin.omdoc.org/type_theories?LambdaArrow</title>
<a class="graphmeta">
<path fill="none" stroke="black" d="M2133.95,-371.015C1948.77,-371.028 871.352,-369.647 730,-336 715.217,-332.481 699.908,-325.946 686.81,-319.335"/>
<polygon fill="black" stroke="black" points="688.182,-316.102 677.701,-314.55 684.927,-322.299 688.182,-316.102"/>
</a>
</g>
<!-- http://cds.omdoc.org/urtheories?LF&#45;&gt;http://latin.omdoc.org/logics/syntax?LambdaPHOL -->
<g id="edge87" class="edge"><title>http://cds.omdoc.org/urtheories?LF&#45;&gt;http://latin.omdoc.org/logics/syntax?LambdaPHOL</title>
<a class="graphmeta">
<path fill="none" stroke="black" d="M2134.05,-370.764C1946.71,-369.074 836.117,-358.233 499,-336 450.809,-332.822 436.675,-339.691 391,-324 269.261,-282.179 145.061,-189.03 91.4265,-145.824"/>
<polygon fill="black" stroke="black" points="93.4045,-142.922 83.4355,-139.334 88.9914,-148.356 93.4045,-142.922"/>
</a>
</g>
<!-- http://cds.omdoc.org/urtheories?LF&#45;&gt;http://latin.omdoc.org/type_theories?DepTypes -->
<g id="edge91" class="edge"><title>http://cds.omdoc.org/urtheories?LF&#45;&gt;http://latin.omdoc.org/type_theories?DepTypes</title>
<a class="graphmeta">
<path fill="none" stroke="black" d="M2187.93,-370.343C2245.14,-368.461 2376.49,-361.417 2412,-336 2444.74,-312.568 2461.49,-267.12 2469.23,-237.961"/>
<polygon fill="black" stroke="black" points="2472.68,-238.574 2471.69,-228.026 2465.89,-236.892 2472.68,-238.574"/>
</a>
</g>
<!-- http://cds.omdoc.org/urtheories?LF&#45;&gt;http://latin.omdoc.org/type_theories?DepKinds -->
<g id="edge89" class="edge"><title>http://cds.omdoc.org/urtheories?LF&#45;&gt;http://latin.omdoc.org/type_theories?DepKinds</title>
<a class="graphmeta">
<path fill="none" stroke="black" d="M2133.8,-370.826C1925.51,-369.442 589.305,-359.661 508,-336 496.527,-332.661 485.039,-326.585 475.176,-320.308"/>
<polygon fill="black" stroke="black" points="476.874,-317.232 466.622,-314.56 472.97,-323.042 476.874,-317.232"/>
</a>
</g>
<!-- http://latin.omdoc.org/type_theories?UnivTypes -->
<g id="node23" class="node"><title>http://latin.omdoc.org/type_theories?UnivTypes</title>
<a xlink:href="http://latin.omdoc.org/type_theories?UnivTypes" class="graphtheory">
<ellipse fill="gray" stroke="black" cx="1516" cy="-298" rx="50.5427" ry="18"/>
<text text-anchor="middle" x="1516" y="-294.3" font-family="Times New Roman,serif" font-size="14.00">UnivTypes</text>
</a>
</g>
<!-- http://cds.omdoc.org/urtheories?LF&#45;&gt;http://latin.omdoc.org/type_theories?UnivTypes -->
<g id="edge79" class="edge"><title>http://cds.omdoc.org/urtheories?LF&#45;&gt;http://latin.omdoc.org/type_theories?UnivTypes</title>
<a class="graphmeta">
<path fill="none" stroke="black" d="M2134.51,-368.043C2038.63,-357.34 1708.26,-320.461 1573.7,-305.441"/>
<polygon fill="black" stroke="black" points="1573.92,-301.944 1563.6,-304.313 1573.15,-308.901 1573.92,-301.944"/>
</a>
</g>
<!-- http://latin.omdoc.org/type_theories?TypeOper -->
<g id="node27" class="node"><title>http://latin.omdoc.org/type_theories?TypeOper</title>
<a xlink:href="http://latin.omdoc.org/type_theories?TypeOper" class="graphtheory">
<ellipse fill="gray" stroke="black" cx="2284" cy="-210" rx="48.1437" ry="18"/>
<text text-anchor="middle" x="2284" y="-206.3" font-family="Times New Roman,serif" font-size="14.00">TypeOper</text>
</a>
</g>
<!-- http://cds.omdoc.org/urtheories?LF&#45;&gt;http://latin.omdoc.org/type_theories?TypeOper -->
<g id="edge85" class="edge"><title>http://cds.omdoc.org/urtheories?LF&#45;&gt;http://latin.omdoc.org/type_theories?TypeOper</title>
<a class="graphmeta">
<path fill="none" stroke="black" d="M2187.37,-368.077C2223.26,-363.493 2284.56,-353.304 2298,-336 2319.83,-307.891 2308.19,-264.907 2296.85,-237.382"/>
<polygon fill="black" stroke="black" points="2299.96,-235.758 2292.75,-227.997 2293.54,-238.562 2299.96,-235.758"/>
</a>
</g>
<!-- http://latin.omdoc.org/type_theories?PolyTypes -->
<g id="node32" class="node"><title>http://latin.omdoc.org/type_theories?PolyTypes</title>
<a xlink:href="http://latin.omdoc.org/type_theories?PolyTypes" class="graphtheory">
<ellipse fill="gray" stroke="black" cx="1466" cy="-210" rx="50.0684" ry="18"/>
<text text-anchor="middle" x="1466" y="-206.3" font-family="Times New Roman,serif" font-size="14.00">PolyTypes</text>
</a>
</g>
<!-- http://cds.omdoc.org/urtheories?LF&#45;&gt;http://latin.omdoc.org/type_theories?PolyTypes -->
<g id="edge77" class="edge"><title>http://cds.omdoc.org/urtheories?LF&#45;&gt;http://latin.omdoc.org/type_theories?PolyTypes</title>
<a class="graphmeta">
<path fill="none" stroke="black" d="M2153.97,-354.392C2151.62,-348.616 2149.08,-342.066 2147,-336 2133.47,-296.623 2153.6,-271.903 2121,-246 2097.93,-227.669 1683.94,-216.099 1526.28,-212.341"/>
<polygon fill="black" stroke="black" points="1525.91,-208.832 1515.83,-212.095 1525.74,-215.83 1525.91,-208.832"/>
</a>
</g>
<!-- http://latin.omdoc.org/type_theories?SimpKinds -->
<g id="node40" class="node"><title>http://latin.omdoc.org/type_theories?SimpKinds</title>
<a xlink:href="http://latin.omdoc.org/type_theories?SimpKinds" class="graphtheory">
<ellipse fill="gray" stroke="black" cx="1944" cy="-298" rx="51.0191" ry="18"/>
<text text-anchor="middle" x="1944" y="-294.3" font-family="Times New Roman,serif" font-size="14.00">SimpKinds</text>
</a>
</g>
<!-- http://cds.omdoc.org/urtheories?LF&#45;&gt;http://latin.omdoc.org/type_theories?SimpKinds -->
<g id="edge83" class="edge"><title>http://cds.omdoc.org/urtheories?LF&#45;&gt;http://latin.omdoc.org/type_theories?SimpKinds</title>
<a class="graphmeta">
<path fill="none" stroke="black" d="M2137.36,-363.158C2101.96,-351.409 2034.49,-329.023 1989.36,-314.051"/>
<polygon fill="black" stroke="black" points="1990.41,-310.71 1979.81,-310.882 1988.2,-317.354 1990.41,-310.71"/>
</a>
</g>
<!-- http://latin.omdoc.org/type_theories?SimpTypes -->
<g id="node51" class="node"><title>http://latin.omdoc.org/type_theories?SimpTypes</title>
<a xlink:href="http://latin.omdoc.org/type_theories?SimpTypes" class="graphtheory">
<ellipse fill="gray" stroke="black" cx="2517" cy="-298" rx="52.4675" ry="18"/>
<text text-anchor="middle" x="2517" y="-294.3" font-family="Times New Roman,serif" font-size="14.00">SimpTypes</text>
</a>
</g>
<!-- http://cds.omdoc.org/urtheories?LF&#45;&gt;http://latin.omdoc.org/type_theories?SimpTypes -->
<g id="edge81" class="edge"><title>http://cds.omdoc.org/urtheories?LF&#45;&gt;http://latin.omdoc.org/type_theories?SimpTypes</title>
<a class="graphmeta">
<path fill="none" stroke="black" d="M2188.03,-371.133C2240.06,-370.655 2357.18,-365.992 2450,-336 2462.25,-332.042 2474.82,-325.781 2485.72,-319.527"/>
<polygon fill="black" stroke="black" points="2487.64,-322.456 2494.44,-314.326 2484.05,-316.445 2487.64,-322.456"/>
</a>
</g>
<!-- http://latin.omdoc.org/type_theories?UnivTypes&#45;&gt;http://latin.omdoc.org/type_theories?Lambda2 -->
<g id="edge21" class="edge"><title>http://latin.omdoc.org/type_theories?UnivTypes&#45;&gt;http://latin.omdoc.org/type_theories?Lambda2</title>
<a class="graphinclude">
<path fill="none" stroke="black" d="M1465.97,-295.526C1303.69,-290.633 800.529,-274.525 768,-262 752.571,-256.059 738.128,-244.673 727.071,-234.164"/>
<polygon fill="black" stroke="black" points="729.541,-231.684 719.986,-227.106 724.6,-236.644 729.541,-231.684"/>
</a>
</g>
<!-- http://latin.omdoc.org/type_theories?UnivTypes&#45;&gt;http://latin.omdoc.org/type_theories?PolyTypes -->
<g id="edge75" class="edge"><title>http://latin.omdoc.org/type_theories?UnivTypes&#45;&gt;http://latin.omdoc.org/type_theories?PolyTypes</title>
<a xlink:href="http://latin.omdoc.org/type_theories?UnivToPoly" class="graphview">
<path fill="none" stroke="black" d="M1565.67,-294.954C1616.41,-291.699 1690.2,-283.335 1708,-262 1712.56,-256.539 1712.65,-251.376 1708,-246 1684.97,-219.399 1590.29,-212.572 1526.41,-211.065"/>
<polygon fill="black" stroke="black" points="1526.12,-207.559 1516.05,-210.86 1525.98,-214.557 1526.12,-207.559"/>
</a>
<a xlink:href="http://latin.omdoc.org/type_theories?UnivToPoly" class="UnivToPoly">
<text text-anchor="middle" x="1746.5" y="-250.3" font-family="Times New Roman,serif" font-size="14.00">UnivToPoly</text>
</a>
</g>
<!-- http://latin.omdoc.org/type_theories?UnivTypes&#45;&gt;http://latin.omdoc.org/type_theories?Lambda2ToP2 -->
<g id="edge73" class="edge"><title>http://latin.omdoc.org/type_theories?UnivTypes&#45;&gt;http://latin.omdoc.org/type_theories?Lambda2ToP2</title>
<a xlink:href="http://latin.omdoc.org/type_theories?Lambda2ToP2?[http://latin.omdoc.org/type_theories?UnivTypes]" class="graphstructure">
<path fill="none" stroke="black" d="M1466.08,-295.269C1363.84,-291.358 1137.66,-280.691 1108,-262 1098.97,-256.309 1092.33,-246.836 1087.62,-237.589"/>
<polygon fill="black" stroke="black" points="1090.7,-235.887 1083.4,-228.202 1084.31,-238.757 1090.7,-235.887"/>
</a>
<a xlink:href="http://latin.omdoc.org/type_theories?Lambda2ToP2?[http://latin.omdoc.org/type_theories?UnivTypes]" class="[http://latin.omdoc.org/type_theories?UnivTypes]">
<text text-anchor="middle" x="1246.5" y="-250.3" font-family="Times New Roman,serif" font-size="14.00">[http://latin.omdoc.org/type_theories?UnivTypes]</text>
</a>
</g>
<!-- http://latin.omdoc.org/type_theories?TypeOper&#45;&gt;http://latin.omdoc.org/type_theories?LambdaPOmega_ -->
<g id="edge27" class="edge"><title>http://latin.omdoc.org/type_theories?TypeOper&#45;&gt;http://latin.omdoc.org/type_theories?LambdaPOmega_</title>
<a class="graphinclude">
<path fill="none" stroke="black" d="M2270.08,-192.725C2258.58,-180.61 2241.1,-165.007 2222,-158 2158.2,-134.601 1066.53,-147.598 999,-140 992.889,-139.312 986.555,-138.371 980.25,-137.281"/>
<polygon fill="black" stroke="black" points="980.87,-133.836 970.4,-135.461 979.598,-140.72 980.87,-133.836"/>
</a>
</g>
<!-- http://latin.omdoc.org/type_theories?PolyTypes&#45;&gt;http://latin.omdoc.org/type_theories?LambdaP2 -->
<g id="edge35" class="edge"><title>http://latin.omdoc.org/type_theories?PolyTypes&#45;&gt;http://latin.omdoc.org/type_theories?LambdaP2</title>
<a class="graphinclude">
<path fill="none" stroke="black" d="M1430.09,-197.326C1422.54,-195.245 1414.56,-193.322 1407,-192 1286.78,-170.984 1253.93,-190.454 1133,-174 1098.37,-169.287 1090.67,-162.411 1056,-158 891.356,-137.053 846.733,-167.159 683,-140 678.562,-139.264 673.984,-138.308 669.432,-137.226"/>
<polygon fill="black" stroke="black" points="670.132,-133.792 659.575,-134.689 668.387,-140.571 670.132,-133.792"/>
</a>
</g>
<!-- http://latin.omdoc.org/type_theories?PolyTypes&#45;&gt;http://latin.omdoc.org/type_theories?LambdaOmega -->
<g id="edge39" class="edge"><title>http://latin.omdoc.org/type_theories?PolyTypes&#45;&gt;http://latin.omdoc.org/type_theories?LambdaOmega</title>
<a class="graphinclude">
<path fill="none" stroke="black" d="M1429.71,-197.576C1422.25,-195.502 1414.41,-193.518 1407,-192 1286.78,-167.381 1255.2,-169.236 1133,-158 999.988,-145.77 965.24,-158.826 833,-140 827.073,-139.156 820.92,-138.086 814.804,-136.896"/>
<polygon fill="black" stroke="black" points="815.091,-133.381 804.591,-134.796 813.681,-140.238 815.091,-133.381"/>
</a>
</g>
<!-- http://latin.omdoc.org/type_theories?SimpKinds&#45;&gt;http://latin.omdoc.org/type_theories?LambdaOmega_ -->
<g id="edge47" class="edge"><title>http://latin.omdoc.org/type_theories?SimpKinds&#45;&gt;http://latin.omdoc.org/type_theories?LambdaOmega_</title>
<a class="graphinclude">
<path fill="none" stroke="black" d="M1895.62,-291.874C1852.45,-286.618 1787.78,-277.056 1733,-262 1714.14,-256.816 1711.18,-249.84 1692,-246 1522.65,-212.091 1086.41,-249.195 915,-228 909.534,-227.324 903.883,-226.425 898.247,-225.391"/>
<polygon fill="black" stroke="black" points="898.652,-221.904 888.164,-223.406 897.299,-228.772 898.652,-221.904"/>
</a>
</g>
<!-- http://latin.omdoc.org/type_theories?SimpKinds&#45;&gt;http://latin.omdoc.org/type_theories?TypeOper -->
<g id="edge71" class="edge"><title>http://latin.omdoc.org/type_theories?SimpKinds&#45;&gt;http://latin.omdoc.org/type_theories?TypeOper</title>
<a xlink:href="http://latin.omdoc.org/type_theories?SimpToOper" class="graphview">
<path fill="none" stroke="black" d="M1989.71,-289.716C2026.51,-283.48 2079.42,-273.672 2125,-262 2164.66,-251.844 2208.95,-237.374 2240.69,-226.439"/>
<polygon fill="black" stroke="black" points="2242.23,-229.609 2250.53,-223.023 2239.94,-222.995 2242.23,-229.609"/>
</a>
<a xlink:href="http://latin.omdoc.org/type_theories?SimpToOper" class="SimpToOper">
<text text-anchor="middle" x="2214.5" y="-250.3" font-family="Times New Roman,serif" font-size="14.00">SimpToOper</text>
</a>
</g>
<!-- http://latin.omdoc.org/type_theories?SimpKinds&#45;&gt;http://latin.omdoc.org/type_theories?LambdaOmega_ToPOmega_ -->
<g id="edge69" class="edge"><title>http://latin.omdoc.org/type_theories?SimpKinds&#45;&gt;http://latin.omdoc.org/type_theories?LambdaOmega_ToPOmega_</title>
<a xlink:href="http://latin.omdoc.org/type_theories?LambdaOmega_ToPOmega_?[http://latin.omdoc.org/type_theories?SimpKinds]" class="graphstructure">
<path fill="none" stroke="black" d="M1909.4,-284.723C1870.31,-271.067 1809.03,-250.348 1785,-246 1619.5,-216.057 1574.5,-243.171 1407,-228 1395.69,-226.976 1383.84,-225.684 1372.12,-224.272"/>
<polygon fill="black" stroke="black" points="1372.22,-220.758 1361.87,-223.004 1371.36,-227.705 1372.22,-220.758"/>
</a>
<a xlink:href="http://latin.omdoc.org/type_theories?LambdaOmega_ToPOmega_?[http://latin.omdoc.org/type_theories?SimpKinds]" class="[http://latin.omdoc.org/type_theories?SimpKinds]">
<text text-anchor="middle" x="1978.5" y="-250.3" font-family="Times New Roman,serif" font-size="14.00">[http://latin.omdoc.org/type_theories?SimpKinds]</text>
</a>
</g>
<!-- http://latin.omdoc.org/type_theories?SimpTypes&#45;&gt;http://latin.omdoc.org/type_theories?LambdaArrow -->
<g id="edge63" class="edge"><title>http://latin.omdoc.org/type_theories?SimpTypes&#45;&gt;http://latin.omdoc.org/type_theories?LambdaArrow</title>
<a class="graphinclude">
<path fill="none" stroke="black" d="M2468.31,-304.793C2394.78,-314.675 2250.92,-332.54 2128,-339 2050.33,-343.082 803.41,-358.044 728,-339 712.765,-335.153 697.265,-327.583 684.272,-319.984"/>
<polygon fill="black" stroke="black" points="686.07,-316.981 675.71,-314.764 682.426,-322.958 686.07,-316.981"/>
</a>
</g>
<!-- http://latin.omdoc.org/type_theories?SimpTypes&#45;&gt;http://latin.omdoc.org/type_theories?DepTypes -->
<g id="edge67" class="edge"><title>http://latin.omdoc.org/type_theories?SimpTypes&#45;&gt;http://latin.omdoc.org/type_theories?DepTypes</title>
<a xlink:href="http://latin.omdoc.org/type_theories?SimpToDep" class="graphview">
<path fill="none" stroke="black" d="M2508.7,-280.009C2502.72,-267.759 2494.53,-250.998 2487.73,-237.062"/>
<polygon fill="black" stroke="black" points="2490.81,-235.405 2483.28,-227.956 2484.52,-238.477 2490.81,-235.405"/>
</a>
<a xlink:href="http://latin.omdoc.org/type_theories?SimpToDep" class="SimpToDep">
<text text-anchor="middle" x="2534" y="-250.3" font-family="Times New Roman,serif" font-size="14.00">SimpToDep</text>
</a>
</g>
</g>
</svg>
