<?xml version="1.0" encoding="UTF-8" standalone="no"?>
<!DOCTYPE svg PUBLIC "-//W3C//DTD SVG 1.1//EN"
 "http://www.w3.org/Graphics/SVG/1.1/DTD/svg11.dtd">
<!-- Generated by graphviz version 2.28.0 (20110507.0327)
 -->
<!-- Title: MMT Pages: 1 -->
<svg
 viewBox="0.00 0.00 760.00 296.00" xmlns="http://www.w3.org/2000/svg" xmlns:xlink="http://www.w3.org/1999/xlink">
<g id="graph1" class="graph" transform="scale(1 1) rotate(0) translate(4 292)">
<title>MMT</title>
<polygon fill="white" stroke="white" points="-4,5 -4,-292 757,-292 757,5 -4,5"/>
<g id="graph2" class="cluster"><title>cluster_local</title>
<polygon fill="none" stroke="black" points="8,-8 8,-60 96,-60 96,-8 8,-8"/>
</g>
<!-- http://latin.omdoc.org/type_theories?MLTT -->
<g id="node2" class="node"><title>http://latin.omdoc.org/type_theories?MLTT</title>
<a xlink:href="http://latin.omdoc.org/type_theories?MLTT" class="graphtheory">
<ellipse fill="none" stroke="black" cx="52" cy="-34" rx="35.6194" ry="18"/>
<text text-anchor="middle" x="52" y="-30.3" font-family="Times New Roman,serif" font-size="14.00">MLTT</text>
</a>
</g>
<!-- http://latin.omdoc.org/type_theories?STT -->
<g id="node3" class="node"><title>http://latin.omdoc.org/type_theories?STT</title>
<a xlink:href="http://latin.omdoc.org/type_theories?STT" class="graphtheory">
<ellipse fill="gray" stroke="black" cx="52" cy="-122" rx="27.4223" ry="18"/>
<text text-anchor="middle" x="52" y="-118.3" font-family="Times New Roman,serif" font-size="14.00">STT</text>
</a>
</g>
<!-- http://latin.omdoc.org/type_theories?STT&#45;&gt;http://latin.omdoc.org/type_theories?MLTT -->
<g id="edge3" class="edge"><title>http://latin.omdoc.org/type_theories?STT&#45;&gt;http://latin.omdoc.org/type_theories?MLTT</title>
<a xlink:href="http://latin.omdoc.org/type_theories?STT-MLTT" class="graphview">
<path fill="none" stroke="black" d="M52,-103.597C52,-91.7459 52,-75.8169 52,-62.2917"/>
<polygon fill="black" stroke="black" points="55.5001,-62.084 52,-52.084 48.5001,-62.084 55.5001,-62.084"/>
</a>
<a xlink:href="http://latin.omdoc.org/type_theories?STT-MLTT" class="STT&#45;MLTT">
<text text-anchor="middle" x="87" y="-74.3" font-family="Times New Roman,serif" font-size="14.00">STT&#45;MLTT</text>
</a>
</g>
<!-- http://latin.omdoc.org/type_theories?VOID -->
<g id="node5" class="node"><title>http://latin.omdoc.org/type_theories?VOID</title>
<a xlink:href="http://latin.omdoc.org/type_theories?VOID" class="graphtheory">
<ellipse fill="gray" stroke="black" cx="83" cy="-196" rx="33.2209" ry="18"/>
<text text-anchor="middle" x="83" y="-192.3" font-family="Times New Roman,serif" font-size="14.00">VOID</text>
</a>
</g>
<!-- http://latin.omdoc.org/type_theories?VOID&#45;&gt;http://latin.omdoc.org/type_theories?MLTT -->
<g id="edge5" class="edge"><title>http://latin.omdoc.org/type_theories?VOID&#45;&gt;http://latin.omdoc.org/type_theories?MLTT</title>
<a class="graphinclude">
<path fill="none" stroke="black" d="M91.6493,-178.49C106.57,-148.965 134.492,-88.4778 123,-70 116.128,-58.9502 104.626,-51.2862 92.8594,-46.0151"/>
<polygon fill="black" stroke="black" points="94.0355,-42.7163 83.4496,-42.2818 91.454,-49.223 94.0355,-42.7163"/>
</a>
</g>
<!-- http://latin.omdoc.org/type_theories?DepTypes -->
<g id="node7" class="node"><title>http://latin.omdoc.org/type_theories?DepTypes</title>
<a xlink:href="http://latin.omdoc.org/type_theories?DepTypes" class="graphtheory">
<ellipse fill="gray" stroke="black" cx="185" cy="-122" rx="48.6179" ry="18"/>
<text text-anchor="middle" x="185" y="-118.3" font-family="Times New Roman,serif" font-size="14.00">DepTypes</text>
</a>
</g>
<!-- http://latin.omdoc.org/type_theories?DepTypes&#45;&gt;http://latin.omdoc.org/type_theories?MLTT -->
<g id="edge7" class="edge"><title>http://latin.omdoc.org/type_theories?DepTypes&#45;&gt;http://latin.omdoc.org/type_theories?MLTT</title>
<a class="graphinclude">
<path fill="none" stroke="black" d="M177.12,-103.746C171.303,-92.7262 162.421,-78.8881 151,-70 134.658,-57.283 113.329,-48.9606 94.654,-43.6367"/>
<polygon fill="black" stroke="black" points="95.4499,-40.2269 84.887,-41.0487 93.6569,-46.9934 95.4499,-40.2269"/>
</a>
</g>
<!-- http://latin.omdoc.org/type_theories?KindsTypesTerms -->
<g id="node9" class="node"><title>http://latin.omdoc.org/type_theories?KindsTypesTerms</title>
<a xlink:href="http://latin.omdoc.org/type_theories?KindsTypesTerms" class="graphtheory">
<ellipse fill="gray" stroke="black" cx="251" cy="-196" rx="78.4642" ry="18"/>
<text text-anchor="middle" x="251" y="-192.3" font-family="Times New Roman,serif" font-size="14.00">KindsTypesTerms</text>
</a>
</g>
<!-- http://latin.omdoc.org/type_theories?KindsTypesTerms&#45;&gt;http://latin.omdoc.org/type_theories?MLTT -->
<g id="edge9" class="edge"><title>http://latin.omdoc.org/type_theories?KindsTypesTerms&#45;&gt;http://latin.omdoc.org/type_theories?MLTT</title>
<a class="graphinclude">
<path fill="none" stroke="black" d="M253.924,-177.906C256.317,-158.264 257.186,-125.925 242,-104 209.743,-57.4296 142.619,-42.1553 97.4265,-37.2256"/>
<polygon fill="black" stroke="black" points="97.5806,-33.7244 87.2917,-36.252 96.9112,-40.6923 97.5806,-33.7244"/>
</a>
</g>
<!-- http://latin.omdoc.org/type_theories?KindsTypesTerms&#45;&gt;http://latin.omdoc.org/type_theories?DepTypes -->
<g id="edge41" class="edge"><title>http://latin.omdoc.org/type_theories?KindsTypesTerms&#45;&gt;http://latin.omdoc.org/type_theories?DepTypes</title>
<a class="graphinclude">
<path fill="none" stroke="black" d="M235.692,-178.301C227.196,-169.032 216.477,-157.339 207.087,-147.095"/>
<polygon fill="black" stroke="black" points="209.562,-144.615 200.225,-139.609 204.402,-149.345 209.562,-144.615"/>
</a>
</g>
<!-- http://latin.omdoc.org/type_theories?DepKinds -->
<g id="node19" class="node"><title>http://latin.omdoc.org/type_theories?DepKinds</title>
<a xlink:href="http://latin.omdoc.org/type_theories?DepKinds" class="graphtheory">
<ellipse fill="gray" stroke="black" cx="387" cy="-122" rx="47.169" ry="18"/>
<text text-anchor="middle" x="387" y="-118.3" font-family="Times New Roman,serif" font-size="14.00">DepKinds</text>
</a>
</g>
<!-- http://latin.omdoc.org/type_theories?KindsTypesTerms&#45;&gt;http://latin.omdoc.org/type_theories?DepKinds -->
<g id="edge43" class="edge"><title>http://latin.omdoc.org/type_theories?KindsTypesTerms&#45;&gt;http://latin.omdoc.org/type_theories?DepKinds</title>
<a class="graphinclude">
<path fill="none" stroke="black" d="M280.846,-179.199C301.645,-168.188 329.485,-153.449 351.436,-141.828"/>
<polygon fill="black" stroke="black" points="353.245,-144.831 360.445,-137.059 349.969,-138.644 353.245,-144.831"/>
</a>
</g>
<!-- http://latin.omdoc.org/type_theories?DUNION -->
<g id="node11" class="node"><title>http://latin.omdoc.org/type_theories?DUNION</title>
<a xlink:href="http://latin.omdoc.org/type_theories?DUNION" class="graphtheory">
<ellipse fill="gray" stroke="black" cx="394" cy="-196" rx="46.2191" ry="18"/>
<text text-anchor="middle" x="394" y="-192.3" font-family="Times New Roman,serif" font-size="14.00">DUNION</text>
</a>
</g>
<!-- http://latin.omdoc.org/type_theories?DUNION&#45;&gt;http://latin.omdoc.org/type_theories?MLTT -->
<g id="edge11" class="edge"><title>http://latin.omdoc.org/type_theories?DUNION&#45;&gt;http://latin.omdoc.org/type_theories?MLTT</title>
<a class="graphinclude">
<path fill="none" stroke="black" d="M375.528,-179.301C339.566,-149.03 260.887,-84.3078 229,-70 186.732,-51.0339 134.224,-42.3003 97.4171,-38.3064"/>
<polygon fill="black" stroke="black" points="97.3016,-34.7771 87.0011,-37.2569 96.5998,-41.7418 97.3016,-34.7771"/>
</a>
</g>
<!-- http://latin.omdoc.org/type_theories?UNIT -->
<g id="node13" class="node"><title>http://latin.omdoc.org/type_theories?UNIT</title>
<a xlink:href="http://latin.omdoc.org/type_theories?UNIT" class="graphtheory">
<ellipse fill="gray" stroke="black" cx="528" cy="-196" rx="32.2457" ry="18"/>
<text text-anchor="middle" x="528" y="-192.3" font-family="Times New Roman,serif" font-size="14.00">UNIT</text>
</a>
</g>
<!-- http://latin.omdoc.org/type_theories?UNIT&#45;&gt;http://latin.omdoc.org/type_theories?MLTT -->
<g id="edge13" class="edge"><title>http://latin.omdoc.org/type_theories?UNIT&#45;&gt;http://latin.omdoc.org/type_theories?MLTT</title>
<a class="graphinclude">
<path fill="none" stroke="black" d="M516.787,-179.071C501.965,-159.057 474.07,-124.819 443,-104 407.478,-80.1984 394.549,-80.1009 353,-70 264.026,-48.3696 156.901,-39.9731 97.4341,-36.8139"/>
<polygon fill="black" stroke="black" points="97.4161,-33.3086 87.2523,-36.2997 97.063,-40.2997 97.4161,-33.3086"/>
</a>
</g>
<!-- http://latin.omdoc.org/type_theories?SIGMA -->
<g id="node15" class="node"><title>http://latin.omdoc.org/type_theories?SIGMA</title>
<a xlink:href="http://latin.omdoc.org/type_theories?SIGMA" class="graphtheory">
<ellipse fill="gray" stroke="black" cx="619" cy="-196" rx="39.9464" ry="18"/>
<text text-anchor="middle" x="619" y="-192.3" font-family="Times New Roman,serif" font-size="14.00">SIGMA</text>
</a>
</g>
<!-- http://latin.omdoc.org/type_theories?SIGMA&#45;&gt;http://latin.omdoc.org/type_theories?MLTT -->
<g id="edge15" class="edge"><title>http://latin.omdoc.org/type_theories?SIGMA&#45;&gt;http://latin.omdoc.org/type_theories?MLTT</title>
<a class="graphinclude">
<path fill="none" stroke="black" d="M598.525,-180.234C571.528,-161.155 522.156,-127.594 477,-104 442.032,-85.7294 433.252,-79.6604 395,-70 290.883,-43.7056 164.244,-37.0762 97.7829,-35.463"/>
<polygon fill="black" stroke="black" points="97.7186,-31.9609 87.6456,-35.245 97.568,-38.9593 97.7186,-31.9609"/>
</a>
</g>
<!-- http://latin.omdoc.org/type_theories?IDENT -->
<g id="node17" class="node"><title>http://latin.omdoc.org/type_theories?IDENT</title>
<a xlink:href="http://latin.omdoc.org/type_theories?IDENT" class="graphtheory">
<ellipse fill="gray" stroke="black" cx="715" cy="-196" rx="37.5442" ry="18"/>
<text text-anchor="middle" x="715" y="-192.3" font-family="Times New Roman,serif" font-size="14.00">IDENT</text>
</a>
</g>
<!-- http://latin.omdoc.org/type_theories?IDENT&#45;&gt;http://latin.omdoc.org/type_theories?MLTT -->
<g id="edge17" class="edge"><title>http://latin.omdoc.org/type_theories?IDENT&#45;&gt;http://latin.omdoc.org/type_theories?MLTT</title>
<a class="graphinclude">
<path fill="none" stroke="black" d="M689.696,-182.518C652.743,-164.445 581.696,-130.279 520,-104 481.425,-87.5694 472.822,-79.5699 432,-70 313.499,-42.2199 169.379,-36.2867 97.4378,-35.151"/>
<polygon fill="black" stroke="black" points="97.4049,-31.6504 87.3589,-35.0162 97.3112,-38.6497 97.4049,-31.6504"/>
</a>
</g>
<!-- http://latin.omdoc.org/type_theories?DepKinds&#45;&gt;http://latin.omdoc.org/type_theories?MLTT -->
<g id="edge19" class="edge"><title>http://latin.omdoc.org/type_theories?DepKinds&#45;&gt;http://latin.omdoc.org/type_theories?MLTT</title>
<a class="graphinclude">
<path fill="none" stroke="black" d="M372.649,-104.824C361.24,-93.0968 344.217,-77.9544 326,-70 285.952,-52.5128 164.056,-42.1856 97.1471,-37.6867"/>
<polygon fill="black" stroke="black" points="97.1094,-34.1768 86.9017,-37.0145 96.6511,-41.1618 97.1094,-34.1768"/>
</a>
</g>
<!-- http://cds.omdoc.org/urtheories?LF -->
<g id="node21" class="node"><title>http://cds.omdoc.org/urtheories?LF</title>
<a xlink:href="http://cds.omdoc.org/urtheories?LF" class="graphtheory">
<ellipse fill="gray" stroke="black" cx="307" cy="-270" rx="27" ry="18"/>
<text text-anchor="middle" x="307" y="-266.3" font-family="Times New Roman,serif" font-size="14.00">LF</text>
</a>
</g>
<!-- http://cds.omdoc.org/urtheories?LF&#45;&gt;http://latin.omdoc.org/type_theories?MLTT -->
<g id="edge21" class="edge"><title>http://cds.omdoc.org/urtheories?LF&#45;&gt;http://latin.omdoc.org/type_theories?MLTT</title>
<a class="graphmeta">
<path fill="none" stroke="black" d="M279.914,-268.133C215.809,-265.421 57.9875,-254.663 29,-214 0.392187,-173.87 2.99318,-151.798 15,-104 18.9439,-88.2996 27.2259,-72.2742 34.9561,-59.624"/>
<polygon fill="black" stroke="black" points="37.9905,-61.3753 40.4176,-51.0622 32.0889,-57.6108 37.9905,-61.3753"/>
</a>
</g>
<!-- http://cds.omdoc.org/urtheories?LF&#45;&gt;http://latin.omdoc.org/type_theories?STT -->
<g id="edge27" class="edge"><title>http://cds.omdoc.org/urtheories?LF&#45;&gt;http://latin.omdoc.org/type_theories?STT</title>
<a class="graphmeta">
<path fill="none" stroke="black" d="M279.963,-267.658C218.315,-263.966 70.3982,-251.324 41,-214 26.5956,-195.712 32.2451,-168.611 39.7333,-148.74"/>
<polygon fill="black" stroke="black" points="43.0226,-149.944 43.5983,-139.365 36.551,-147.276 43.0226,-149.944"/>
</a>
</g>
<!-- http://cds.omdoc.org/urtheories?LF&#45;&gt;http://latin.omdoc.org/type_theories?VOID -->
<g id="edge31" class="edge"><title>http://cds.omdoc.org/urtheories?LF&#45;&gt;http://latin.omdoc.org/type_theories?VOID</title>
<a class="graphmeta">
<path fill="none" stroke="black" d="M280.011,-267.585C244.228,-264.85 179.803,-256.905 130,-234 121.591,-230.133 113.341,-224.474 106.158,-218.739"/>
<polygon fill="black" stroke="black" points="108.168,-215.855 98.2699,-212.075 103.65,-221.202 108.168,-215.855"/>
</a>
</g>
<!-- http://cds.omdoc.org/urtheories?LF&#45;&gt;http://latin.omdoc.org/type_theories?DepTypes -->
<g id="edge35" class="edge"><title>http://cds.omdoc.org/urtheories?LF&#45;&gt;http://latin.omdoc.org/type_theories?DepTypes</title>
<a class="graphmeta">
<path fill="none" stroke="black" d="M279.977,-267.461C246.114,-263.912 189.331,-252.243 163,-214 149.613,-194.557 158.496,-167.886 168.69,-148.446"/>
<polygon fill="black" stroke="black" points="171.845,-149.977 173.707,-139.547 165.747,-146.539 171.845,-149.977"/>
</a>
</g>
<!-- http://cds.omdoc.org/urtheories?LF&#45;&gt;http://latin.omdoc.org/type_theories?KindsTypesTerms -->
<g id="edge23" class="edge"><title>http://cds.omdoc.org/urtheories?LF&#45;&gt;http://latin.omdoc.org/type_theories?KindsTypesTerms</title>
<a class="graphmeta">
<path fill="none" stroke="black" d="M295.124,-253.731C287.929,-244.48 278.58,-232.46 270.34,-221.866"/>
<polygon fill="black" stroke="black" points="272.935,-219.501 264.032,-213.756 267.409,-223.798 272.935,-219.501"/>
</a>
</g>
<!-- http://cds.omdoc.org/urtheories?LF&#45;&gt;http://latin.omdoc.org/type_theories?DUNION -->
<g id="edge39" class="edge"><title>http://cds.omdoc.org/urtheories?LF&#45;&gt;http://latin.omdoc.org/type_theories?DUNION</title>
<a class="graphmeta">
<path fill="none" stroke="black" d="M323.364,-255.457C335.708,-245.242 352.906,-231.009 367.242,-219.145"/>
<polygon fill="black" stroke="black" points="369.82,-221.554 375.293,-212.482 365.357,-216.161 369.82,-221.554"/>
</a>
</g>
<!-- http://cds.omdoc.org/urtheories?LF&#45;&gt;http://latin.omdoc.org/type_theories?UNIT -->
<g id="edge29" class="edge"><title>http://cds.omdoc.org/urtheories?LF&#45;&gt;http://latin.omdoc.org/type_theories?UNIT</title>
<a class="graphmeta">
<path fill="none" stroke="black" d="M334.025,-267.58C369.505,-264.844 433.023,-256.901 482,-234 490.274,-230.131 498.363,-224.471 505.392,-218.737"/>
<polygon fill="black" stroke="black" points="507.826,-221.259 513.105,-212.073 503.249,-215.963 507.826,-221.259"/>
</a>
</g>
<!-- http://cds.omdoc.org/urtheories?LF&#45;&gt;http://latin.omdoc.org/type_theories?SIGMA -->
<g id="edge37" class="edge"><title>http://cds.omdoc.org/urtheories?LF&#45;&gt;http://latin.omdoc.org/type_theories?SIGMA</title>
<a class="graphmeta">
<path fill="none" stroke="black" d="M332.965,-264.967C369.691,-259.093 438.823,-247.411 497,-234 529.363,-226.54 537.265,-223.794 569,-214 572.154,-213.027 575.41,-211.991 578.676,-210.929"/>
<polygon fill="black" stroke="black" points="580.023,-214.17 588.416,-207.705 577.823,-207.525 580.023,-214.17"/>
</a>
</g>
<!-- http://cds.omdoc.org/urtheories?LF&#45;&gt;http://latin.omdoc.org/type_theories?IDENT -->
<g id="edge25" class="edge"><title>http://cds.omdoc.org/urtheories?LF&#45;&gt;http://latin.omdoc.org/type_theories?IDENT</title>
<a class="graphmeta">
<path fill="none" stroke="black" d="M333.626,-266.744C393.903,-261.246 545.121,-245.262 668,-214 671.014,-213.233 674.106,-212.348 677.194,-211.392"/>
<polygon fill="black" stroke="black" points="678.556,-214.628 686.947,-208.159 676.353,-207.983 678.556,-214.628"/>
</a>
</g>
<!-- http://cds.omdoc.org/urtheories?LF&#45;&gt;http://latin.omdoc.org/type_theories?DepKinds -->
<g id="edge33" class="edge"><title>http://cds.omdoc.org/urtheories?LF&#45;&gt;http://latin.omdoc.org/type_theories?DepKinds</title>
<a class="graphmeta">
<path fill="none" stroke="black" d="M333.95,-267.303C367.39,-263.584 423.151,-251.732 449,-214 458.043,-200.8 455.562,-192.593 449,-178 442.827,-164.272 431.346,-152.58 419.926,-143.551"/>
<polygon fill="black" stroke="black" points="421.817,-140.597 411.698,-137.457 417.651,-146.222 421.817,-140.597"/>
</a>
</g>
</g>
</svg>
