<?xml version="1.0" encoding="UTF-8" standalone="no"?>
<!DOCTYPE svg PUBLIC "-//W3C//DTD SVG 1.1//EN"
 "http://www.w3.org/Graphics/SVG/1.1/DTD/svg11.dtd">
<!-- Generated by graphviz version 2.28.0 (20110507.0327)
 -->
<!-- Title: MMT Pages: 1 -->
<svg width="2070pt" height="382pt"
 viewBox="0.00 0.00 2070.00 382.00" xmlns="http://www.w3.org/2000/svg" xmlns:xlink="http://www.w3.org/1999/xlink">
<g id="graph1" class="graph" transform="scale(1 1) rotate(0) translate(4 378)">
<title>MMT</title>
<polygon fill="white" stroke="white" points="-4,5 -4,-378 2067,-378 2067,5 -4,5"/>
<g id="graph2" class="cluster"><title>cluster_local</title>
<polygon fill="none" stroke="black" points="524,-80 524,-220 1090,-220 1090,-80 524,-80"/>
</g>
<!-- http://latin.omdoc.org/type_theories?VOID -->
<g id="node2" class="node"><title>http://latin.omdoc.org/type_theories?VOID</title>
<a xlink:href="http://latin.omdoc.org/type_theories?VOID" class="graphtheory">
<ellipse fill="none" stroke="black" cx="955" cy="-194" rx="33.2209" ry="18"/>
<text text-anchor="middle" x="955" y="-190.3" font-family="Times New Roman,serif" font-size="14.00">VOID</text>
</a>
</g>
<!-- http://latin.omdoc.org/foundations/zfc?TypedZFBase -->
<g id="node12" class="node"><title>http://latin.omdoc.org/foundations/zfc?TypedZFBase</title>
<a xlink:href="http://latin.omdoc.org/foundations/zfc?TypedZFBase" class="graphtheory">
<ellipse fill="gray" stroke="black" cx="1736" cy="-106" rx="63.0666" ry="18"/>
<text text-anchor="middle" x="1736" y="-102.3" font-family="Times New Roman,serif" font-size="14.00">TypedZFBase</text>
</a>
</g>
<!-- http://latin.omdoc.org/type_theories?VOID&#45;&gt;http://latin.omdoc.org/foundations/zfc?TypedZFBase -->
<g id="edge5" class="edge"><title>http://latin.omdoc.org/type_theories?VOID&#45;&gt;http://latin.omdoc.org/foundations/zfc?TypedZFBase</title>
<a xlink:href="http://latin.omdoc.org/translations/tt_zfc?VOID" class="graphview">
<path fill="none" stroke="black" d="M979.416,-181.43C985.071,-179.228 991.15,-177.23 997,-176 1127.97,-148.461 1467.65,-183.688 1599,-158 1632.72,-151.406 1669.09,-137.524 1695.87,-125.906"/>
<polygon fill="black" stroke="black" points="1697.55,-128.99 1705.28,-121.746 1694.72,-122.588 1697.55,-128.99"/>
</a>
<a xlink:href="http://latin.omdoc.org/translations/tt_zfc?VOID" class="VOID">
<text text-anchor="middle" x="1669.5" y="-146.3" font-family="Times New Roman,serif" font-size="14.00">VOID</text>
</a>
</g>
<!-- http://latin.omdoc.org/type_theories?MLTT -->
<g id="node14" class="node"><title>http://latin.omdoc.org/type_theories?MLTT</title>
<a xlink:href="http://latin.omdoc.org/type_theories?MLTT" class="graphtheory">
<ellipse fill="gray" stroke="black" cx="249" cy="-18" rx="35.6194" ry="18"/>
<text text-anchor="middle" x="249" y="-14.3" font-family="Times New Roman,serif" font-size="14.00">MLTT</text>
</a>
</g>
<!-- http://latin.omdoc.org/type_theories?VOID&#45;&gt;http://latin.omdoc.org/type_theories?MLTT -->
<g id="edge7" class="edge"><title>http://latin.omdoc.org/type_theories?VOID&#45;&gt;http://latin.omdoc.org/type_theories?MLTT</title>
<a class="graphinclude">
<path fill="none" stroke="black" d="M979.472,-181.677C985.124,-179.463 991.187,-177.397 997,-176 1041.68,-165.261 1171.95,-191.878 1203,-158 1207.8,-152.757 1205.99,-148.454 1203,-142 1185.13,-103.368 1169.43,-96.05 1130,-80 976.439,-17.4853 453.522,-17.0615 294.954,-18.4349"/>
<polygon fill="black" stroke="black" points="294.576,-14.9382 284.609,-18.5317 294.641,-21.9379 294.576,-14.9382"/>
</a>
</g>
<!-- http://latin.omdoc.org/type_theories?Naturals -->
<g id="node3" class="node"><title>http://latin.omdoc.org/type_theories?Naturals</title>
<a xlink:href="http://latin.omdoc.org/type_theories?Naturals" class="graphtheory">
<ellipse fill="none" stroke="black" cx="572" cy="-194" rx="39.9464" ry="18"/>
<text text-anchor="middle" x="572" y="-190.3" font-family="Times New Roman,serif" font-size="14.00">Naturals</text>
</a>
</g>
<!-- http://latin.omdoc.org/type_theories?NatTypes -->
<g id="node7" class="node"><title>http://latin.omdoc.org/type_theories?NatTypes</title>
<a xlink:href="http://latin.omdoc.org/type_theories?NatTypes" class="graphtheory">
<ellipse fill="none" stroke="black" cx="578" cy="-106" rx="46.2191" ry="18"/>
<text text-anchor="middle" x="578" y="-102.3" font-family="Times New Roman,serif" font-size="14.00">NatTypes</text>
</a>
</g>
<!-- http://latin.omdoc.org/type_theories?Naturals&#45;&gt;http://latin.omdoc.org/type_theories?NatTypes -->
<g id="edge35" class="edge"><title>http://latin.omdoc.org/type_theories?Naturals&#45;&gt;http://latin.omdoc.org/type_theories?NatTypes</title>
<a class="graphinclude">
<path fill="none" stroke="black" d="M573.214,-175.597C574.041,-163.746 575.152,-147.817 576.096,-134.292"/>
<polygon fill="black" stroke="black" points="579.604,-134.303 576.808,-124.084 572.621,-133.816 579.604,-134.303"/>
</a>
</g>
<!-- http://latin.omdoc.org/type_theories?DUNION -->
<g id="node4" class="node"><title>http://latin.omdoc.org/type_theories?DUNION</title>
<a xlink:href="http://latin.omdoc.org/type_theories?DUNION" class="graphtheory">
<ellipse fill="none" stroke="black" cx="760" cy="-194" rx="46.2191" ry="18"/>
<text text-anchor="middle" x="760" y="-190.3" font-family="Times New Roman,serif" font-size="14.00">DUNION</text>
</a>
</g>
<!-- http://latin.omdoc.org/type_theories?Option -->
<g id="node5" class="node"><title>http://latin.omdoc.org/type_theories?Option</title>
<a xlink:href="http://latin.omdoc.org/type_theories?Option" class="graphtheory">
<ellipse fill="none" stroke="black" cx="777" cy="-106" rx="36.096" ry="18"/>
<text text-anchor="middle" x="777" y="-102.3" font-family="Times New Roman,serif" font-size="14.00">Option</text>
</a>
</g>
<!-- http://latin.omdoc.org/type_theories?DUNION&#45;&gt;http://latin.omdoc.org/type_theories?Option -->
<g id="edge23" class="edge"><title>http://latin.omdoc.org/type_theories?DUNION&#45;&gt;http://latin.omdoc.org/type_theories?Option</title>
<a class="graphinclude">
<path fill="none" stroke="black" d="M760.686,-175.846C761.331,-165.878 762.581,-153.128 765,-142 765.614,-139.175 766.383,-136.262 767.233,-133.379"/>
<polygon fill="black" stroke="black" points="770.563,-134.456 770.332,-123.864 763.907,-132.289 770.563,-134.456"/>
</a>
</g>
<!-- http://latin.omdoc.org/foundations/zfc?DisjUnion -->
<g id="node22" class="node"><title>http://latin.omdoc.org/foundations/zfc?DisjUnion</title>
<a xlink:href="http://latin.omdoc.org/foundations/zfc?DisjUnion" class="graphtheory">
<ellipse fill="gray" stroke="black" cx="1242" cy="-18" rx="46.1964" ry="18"/>
<text text-anchor="middle" x="1242" y="-14.3" font-family="Times New Roman,serif" font-size="14.00">DisjUnion</text>
</a>
</g>
<!-- http://latin.omdoc.org/type_theories?DUNION&#45;&gt;http://latin.omdoc.org/foundations/zfc?DisjUnion -->
<g id="edge17" class="edge"><title>http://latin.omdoc.org/type_theories?DUNION&#45;&gt;http://latin.omdoc.org/foundations/zfc?DisjUnion</title>
<a xlink:href="http://latin.omdoc.org/translations/tt_zfc?DUNION" class="graphview">
<path fill="none" stroke="black" d="M792.032,-181.053C819.979,-170.655 861.633,-155.221 898,-142 1006.29,-102.63 1134.13,-57.1935 1199.23,-34.1283"/>
<polygon fill="black" stroke="black" points="1200.49,-37.3947 1208.75,-30.7569 1198.16,-30.7964 1200.49,-37.3947"/>
</a>
<a xlink:href="http://latin.omdoc.org/translations/tt_zfc?DUNION" class="DUNION">
<text text-anchor="middle" x="1098.5" y="-102.3" font-family="Times New Roman,serif" font-size="14.00">DUNION</text>
</a>
</g>
<!-- http://latin.omdoc.org/type_theories?UNIT -->
<g id="node6" class="node"><title>http://latin.omdoc.org/type_theories?UNIT</title>
<a xlink:href="http://latin.omdoc.org/type_theories?UNIT" class="graphtheory">
<ellipse fill="none" stroke="black" cx="663" cy="-194" rx="32.2457" ry="18"/>
<text text-anchor="middle" x="663" y="-190.3" font-family="Times New Roman,serif" font-size="14.00">UNIT</text>
</a>
</g>
<!-- http://latin.omdoc.org/type_theories?UNIT&#45;&gt;http://latin.omdoc.org/type_theories?Option -->
<g id="edge27" class="edge"><title>http://latin.omdoc.org/type_theories?UNIT&#45;&gt;http://latin.omdoc.org/type_theories?Option</title>
<a class="graphinclude">
<path fill="none" stroke="black" d="M681.316,-179.183C699.874,-165.182 728.792,-143.368 749.981,-127.382"/>
<polygon fill="black" stroke="black" points="752.094,-130.173 757.969,-121.357 747.878,-124.585 752.094,-130.173"/>
</a>
</g>
<!-- http://latin.omdoc.org/type_theories?SIGMA -->
<g id="node8" class="node"><title>http://latin.omdoc.org/type_theories?SIGMA</title>
<a xlink:href="http://latin.omdoc.org/type_theories?SIGMA" class="graphtheory">
<ellipse fill="none" stroke="black" cx="682" cy="-106" rx="39.9464" ry="18"/>
<text text-anchor="middle" x="682" y="-102.3" font-family="Times New Roman,serif" font-size="14.00">SIGMA</text>
</a>
</g>
<!-- http://latin.omdoc.org/foundations/zfc?DependentProducts -->
<g id="node34" class="node"><title>http://latin.omdoc.org/foundations/zfc?DependentProducts</title>
<a xlink:href="http://latin.omdoc.org/foundations/zfc?DependentProducts" class="graphtheory">
<ellipse fill="gray" stroke="black" cx="83" cy="-18" rx="83.2892" ry="18"/>
<text text-anchor="middle" x="83" y="-14.3" font-family="Times New Roman,serif" font-size="14.00">DependentProducts</text>
</a>
</g>
<!-- http://latin.omdoc.org/type_theories?SIGMA&#45;&gt;http://latin.omdoc.org/foundations/zfc?DependentProducts -->
<g id="edge39" class="edge"><title>http://latin.omdoc.org/type_theories?SIGMA&#45;&gt;http://latin.omdoc.org/foundations/zfc?DependentProducts</title>
<a xlink:href="http://latin.omdoc.org/translations/tt_zfc?SIGMA" class="graphview">
<path fill="none" stroke="black" d="M658.808,-90.9514C650.882,-86.7597 641.793,-82.5952 633,-80 449.172,-25.7451 394.268,-59.1151 204,-36 189.628,-34.2539 174.318,-32.2306 159.593,-30.2019"/>
<polygon fill="black" stroke="black" points="159.898,-26.7107 149.511,-28.7999 158.934,-33.6439 159.898,-26.7107"/>
</a>
<a xlink:href="http://latin.omdoc.org/translations/tt_zfc?SIGMA" class="SIGMA">
<text text-anchor="middle" x="615" y="-58.3" font-family="Times New Roman,serif" font-size="14.00">SIGMA</text>
</a>
</g>
<!-- http://latin.omdoc.org/type_theories?Product -->
<g id="node9" class="node"><title>http://latin.omdoc.org/type_theories?Product</title>
<a xlink:href="http://latin.omdoc.org/type_theories?Product" class="graphtheory">
<ellipse fill="none" stroke="black" cx="864" cy="-194" rx="39.9464" ry="18"/>
<text text-anchor="middle" x="864" y="-190.3" font-family="Times New Roman,serif" font-size="14.00">Product</text>
</a>
</g>
<!-- http://latin.omdoc.org/type_theories?Product&#45;&gt;http://latin.omdoc.org/type_theories?SIGMA -->
<g id="edge3" class="edge"><title>http://latin.omdoc.org/type_theories?Product&#45;&gt;http://latin.omdoc.org/type_theories?SIGMA</title>
<a xlink:href="http://latin.omdoc.org/type_theories?Product-Sigma" class="graphview">
<path fill="none" stroke="black" d="M834.18,-181.774C827.903,-179.66 821.28,-177.611 815,-176 768.713,-164.128 747.723,-186 709,-158 700.773,-152.051 694.828,-142.819 690.648,-133.837"/>
<polygon fill="black" stroke="black" points="693.798,-132.292 686.78,-124.354 687.316,-134.936 693.798,-132.292"/>
</a>
<a xlink:href="http://latin.omdoc.org/type_theories?Product-Sigma" class="Product&#45;Sigma">
<text text-anchor="middle" x="751.5" y="-146.3" font-family="Times New Roman,serif" font-size="14.00">Product&#45;Sigma</text>
</a>
</g>
<!-- http://latin.omdoc.org/translations/stt_prop?CH&#45;IPL -->
<g id="node38" class="node"><title>http://latin.omdoc.org/translations/stt_prop?CH&#45;IPL</title>
<a xlink:href="http://latin.omdoc.org/translations/stt_prop?CH-IPL" class="graphtheory">
<ellipse fill="gray" stroke="black" cx="163" cy="-106" rx="39.9464" ry="18"/>
<text text-anchor="middle" x="163" y="-102.3" font-family="Times New Roman,serif" font-size="14.00">CH&#45;IPL</text>
</a>
</g>
<!-- http://latin.omdoc.org/type_theories?Product&#45;&gt;http://latin.omdoc.org/translations/stt_prop?CH&#45;IPL -->
<g id="edge45" class="edge"><title>http://latin.omdoc.org/type_theories?Product&#45;&gt;http://latin.omdoc.org/translations/stt_prop?CH&#45;IPL</title>
<a xlink:href="http://latin.omdoc.org/translations/stt_prop?Product" class="graphview">
<path fill="none" stroke="black" d="M835.083,-181.513C828.569,-179.336 821.622,-177.328 815,-176 687.948,-150.528 653.111,-169.022 524,-158 385.018,-146.135 348.088,-154.61 212,-124 208.648,-123.246 205.207,-122.339 201.777,-121.342"/>
<polygon fill="black" stroke="black" points="202.816,-118 192.227,-118.343 200.719,-124.678 202.816,-118"/>
</a>
<a xlink:href="http://latin.omdoc.org/translations/stt_prop?Product" class="Product">
<text text-anchor="middle" x="547" y="-146.3" font-family="Times New Roman,serif" font-size="14.00">Product</text>
</a>
</g>
<!-- http://latin.omdoc.org/translations/tt_zfc?STT -->
<g id="node40" class="node"><title>http://latin.omdoc.org/translations/tt_zfc?STT</title>
<a xlink:href="http://latin.omdoc.org/translations/tt_zfc?STT" class="graphtheory">
<ellipse fill="gray" stroke="black" cx="1358" cy="-106" rx="27.4223" ry="18"/>
<text text-anchor="middle" x="1358" y="-102.3" font-family="Times New Roman,serif" font-size="14.00">STT</text>
</a>
</g>
<!-- http://latin.omdoc.org/type_theories?Product&#45;&gt;http://latin.omdoc.org/translations/tt_zfc?STT -->
<g id="edge47" class="edge"><title>http://latin.omdoc.org/type_theories?Product&#45;&gt;http://latin.omdoc.org/translations/tt_zfc?STT</title>
<a xlink:href="http://latin.omdoc.org/translations/tt_zfc?STT?[http://latin.omdoc.org/type_theories?Product]" class="graphstructure">
<path fill="none" stroke="black" d="M886.098,-178.867C906.477,-166.654 938.024,-149.778 968,-142 1117.48,-103.214 1164.1,-156.82 1315,-124 1318.86,-123.16 1322.83,-122.015 1326.71,-120.713"/>
<polygon fill="black" stroke="black" points="1327.95,-123.989 1336.11,-117.237 1325.52,-117.423 1327.95,-123.989"/>
</a>
<a xlink:href="http://latin.omdoc.org/translations/tt_zfc?STT?[http://latin.omdoc.org/type_theories?Product]" class="[http://latin.omdoc.org/type_theories?Product]">
<text text-anchor="middle" x="1098" y="-146.3" font-family="Times New Roman,serif" font-size="14.00">[http://latin.omdoc.org/type_theories?Product]</text>
</a>
</g>
<!-- http://latin.omdoc.org/foundations/zfc?Products -->
<g id="node42" class="node"><title>http://latin.omdoc.org/foundations/zfc?Products</title>
<a xlink:href="http://latin.omdoc.org/foundations/zfc?Products" class="graphtheory">
<ellipse fill="gray" stroke="black" cx="1735" cy="-18" rx="44.2946" ry="18"/>
<text text-anchor="middle" x="1735" y="-14.3" font-family="Times New Roman,serif" font-size="14.00">Products</text>
</a>
</g>
<!-- http://latin.omdoc.org/type_theories?Product&#45;&gt;http://latin.omdoc.org/foundations/zfc?Products -->
<g id="edge49" class="edge"><title>http://latin.omdoc.org/type_theories?Product&#45;&gt;http://latin.omdoc.org/foundations/zfc?Products</title>
<a xlink:href="http://latin.omdoc.org/translations/tt_zfc?Product" class="graphview">
<path fill="none" stroke="black" d="M877.685,-176.614C888.617,-164.776 905.041,-149.588 923,-142 1008.07,-106.058 1039.33,-141.502 1130,-124 1196.13,-111.236 1209.18,-94.2515 1275,-80 1420.65,-48.4648 1595.99,-30.6536 1682.06,-23.1982"/>
<polygon fill="black" stroke="black" points="1682.44,-26.6785 1692.11,-22.3401 1681.85,-19.7039 1682.44,-26.6785"/>
</a>
<a xlink:href="http://latin.omdoc.org/translations/tt_zfc?Product" class="Product">
<text text-anchor="middle" x="1298" y="-102.3" font-family="Times New Roman,serif" font-size="14.00">Product</text>
</a>
</g>
<!-- http://latin.omdoc.org/type_theories?STT&#45;MLTT -->
<g id="node44" class="node"><title>http://latin.omdoc.org/type_theories?STT&#45;MLTT</title>
<a xlink:href="http://latin.omdoc.org/type_theories?STT-MLTT" class="graphtheory">
<ellipse fill="gray" stroke="black" cx="1489" cy="-106" rx="55.3436" ry="18"/>
<text text-anchor="middle" x="1489" y="-102.3" font-family="Times New Roman,serif" font-size="14.00">STT&#45;MLTT</text>
</a>
</g>
<!-- http://latin.omdoc.org/type_theories?Product&#45;&gt;http://latin.omdoc.org/type_theories?STT&#45;MLTT -->
<g id="edge51" class="edge"><title>http://latin.omdoc.org/type_theories?Product&#45;&gt;http://latin.omdoc.org/type_theories?STT&#45;MLTT</title>
<a xlink:href="http://latin.omdoc.org/type_theories?STT-MLTT?[http://latin.omdoc.org/type_theories?Product]" class="graphstructure">
<path fill="none" stroke="black" d="M892.912,-181.49C899.427,-179.314 906.375,-177.312 913,-176 981.778,-162.379 1161.97,-181.576 1228,-158 1239.39,-153.935 1238.76,-146.446 1250,-142 1309.98,-118.282 1330.23,-133.684 1394,-124 1406.42,-122.114 1419.71,-119.875 1432.3,-117.652"/>
<polygon fill="black" stroke="black" points="1432.98,-121.084 1442.21,-115.879 1431.75,-114.194 1432.98,-121.084"/>
</a>
<a xlink:href="http://latin.omdoc.org/type_theories?STT-MLTT?[http://latin.omdoc.org/type_theories?Product]" class="[http://latin.omdoc.org/type_theories?Product]">
<text text-anchor="middle" x="1380" y="-146.3" font-family="Times New Roman,serif" font-size="14.00">[http://latin.omdoc.org/type_theories?Product]</text>
</a>
</g>
<!-- http://latin.omdoc.org/type_theories?STT -->
<g id="node50" class="node"><title>http://latin.omdoc.org/type_theories?STT</title>
<a xlink:href="http://latin.omdoc.org/type_theories?STT" class="graphtheory">
<ellipse fill="gray" stroke="black" cx="249" cy="-106" rx="27.4223" ry="18"/>
<text text-anchor="middle" x="249" y="-102.3" font-family="Times New Roman,serif" font-size="14.00">STT</text>
</a>
</g>
<!-- http://latin.omdoc.org/type_theories?Product&#45;&gt;http://latin.omdoc.org/type_theories?STT -->
<g id="edge57" class="edge"><title>http://latin.omdoc.org/type_theories?Product&#45;&gt;http://latin.omdoc.org/type_theories?STT</title>
<a class="graphinclude">
<path fill="none" stroke="black" d="M834.498,-181.633C828.14,-179.503 821.404,-177.483 815,-176 763.455,-164.06 403.238,-123.938 285.872,-111.034"/>
<polygon fill="black" stroke="black" points="286.247,-107.554 275.924,-109.941 285.482,-114.512 286.247,-107.554"/>
</a>
</g>
<!-- http://latin.omdoc.org/type_theories?IDENT -->
<g id="node10" class="node"><title>http://latin.omdoc.org/type_theories?IDENT</title>
<a xlink:href="http://latin.omdoc.org/type_theories?IDENT" class="graphtheory">
<ellipse fill="none" stroke="black" cx="1044" cy="-194" rx="37.5442" ry="18"/>
<text text-anchor="middle" x="1044" y="-190.3" font-family="Times New Roman,serif" font-size="14.00">IDENT</text>
</a>
</g>
<!-- http://latin.omdoc.org/foundations/zfc?Boolean -->
<g id="node54" class="node"><title>http://latin.omdoc.org/foundations/zfc?Boolean</title>
<a xlink:href="http://latin.omdoc.org/foundations/zfc?Boolean" class="graphtheory">
<ellipse fill="gray" stroke="black" cx="1611" cy="-106" rx="39.9464" ry="18"/>
<text text-anchor="middle" x="1611" y="-102.3" font-family="Times New Roman,serif" font-size="14.00">Boolean</text>
</a>
</g>
<!-- http://latin.omdoc.org/type_theories?IDENT&#45;&gt;http://latin.omdoc.org/foundations/zfc?Boolean -->
<g id="edge63" class="edge"><title>http://latin.omdoc.org/type_theories?IDENT&#45;&gt;http://latin.omdoc.org/foundations/zfc?Boolean</title>
<a xlink:href="http://latin.omdoc.org/translations/tt_zfc?IDENT" class="graphview">
<path fill="none" stroke="black" d="M1069.58,-180.791C1074.59,-178.86 1079.88,-177.131 1085,-176 1178.17,-155.41 1421.86,-182.806 1514,-158 1538.16,-151.496 1563.09,-138.22 1581.62,-126.843"/>
<polygon fill="black" stroke="black" points="1583.59,-129.743 1590.18,-121.449 1579.85,-123.822 1583.59,-129.743"/>
</a>
<a xlink:href="http://latin.omdoc.org/translations/tt_zfc?IDENT" class="IDENT">
<text text-anchor="middle" x="1574" y="-146.3" font-family="Times New Roman,serif" font-size="14.00">IDENT</text>
</a>
</g>
<!-- http://latin.omdoc.org/foundations/zfc?TypedZFBase&#45;&gt;http://latin.omdoc.org/foundations/zfc?DisjUnion -->
<g id="edge107" class="edge"><title>http://latin.omdoc.org/foundations/zfc?TypedZFBase&#45;&gt;http://latin.omdoc.org/foundations/zfc?DisjUnion</title>
<a class="graphinclude">
<path fill="none" stroke="black" d="M1698.87,-91.3633C1686.62,-87.2485 1672.84,-83.0257 1660,-80 1531.74,-49.7844 1377.6,-31.9333 1297.1,-23.9754"/>
<polygon fill="black" stroke="black" points="1297,-20.4495 1286.71,-22.9631 1296.32,-27.4165 1297,-20.4495"/>
</a>
</g>
<!-- http://latin.omdoc.org/foundations/zfc?TypedZFBase&#45;&gt;http://latin.omdoc.org/foundations/zfc?Products -->
<g id="edge109" class="edge"><title>http://latin.omdoc.org/foundations/zfc?TypedZFBase&#45;&gt;http://latin.omdoc.org/foundations/zfc?Products</title>
<a class="graphinclude">
<path fill="none" stroke="black" d="M1736.74,-87.9982C1737.07,-78.0809 1737.32,-65.3309 1737,-54 1736.93,-51.4448 1736.82,-48.7859 1736.7,-46.1262"/>
<polygon fill="black" stroke="black" points="1740.2,-45.8826 1736.17,-36.0815 1733.21,-46.2525 1740.2,-45.8826"/>
</a>
</g>
<!-- http://latin.omdoc.org/type_theories?TypesTerms -->
<g id="node16" class="node"><title>http://latin.omdoc.org/type_theories?TypesTerms</title>
<a xlink:href="http://latin.omdoc.org/type_theories?TypesTerms" class="graphtheory">
<ellipse fill="gray" stroke="black" cx="682" cy="-282" rx="57.2927" ry="18"/>
<text text-anchor="middle" x="682" y="-278.3" font-family="Times New Roman,serif" font-size="14.00">TypesTerms</text>
</a>
</g>
<!-- http://latin.omdoc.org/type_theories?TypesTerms&#45;&gt;http://latin.omdoc.org/type_theories?VOID -->
<g id="edge9" class="edge"><title>http://latin.omdoc.org/type_theories?TypesTerms&#45;&gt;http://latin.omdoc.org/type_theories?VOID</title>
<a class="graphinclude">
<path fill="none" stroke="black" d="M738.367,-278.954C826.67,-275.162 989.415,-265.58 1007,-246 1011.75,-240.709 1010.34,-236.277 1007,-230 1004.44,-225.183 995.899,-218.768 986.463,-212.747"/>
<polygon fill="black" stroke="black" points="988.048,-209.613 977.69,-207.385 984.398,-215.586 988.048,-209.613"/>
</a>
</g>
<!-- http://latin.omdoc.org/type_theories?TypesTerms&#45;&gt;http://latin.omdoc.org/type_theories?Naturals -->
<g id="edge13" class="edge"><title>http://latin.omdoc.org/type_theories?TypesTerms&#45;&gt;http://latin.omdoc.org/type_theories?Naturals</title>
<a class="graphinclude">
<path fill="none" stroke="black" d="M661.568,-265.026C644.032,-251.316 618.613,-231.443 599.33,-216.367"/>
<polygon fill="black" stroke="black" points="601.251,-213.427 591.218,-210.025 596.94,-218.941 601.251,-213.427"/>
</a>
</g>
<!-- http://latin.omdoc.org/type_theories?TypesTerms&#45;&gt;http://latin.omdoc.org/type_theories?DUNION -->
<g id="edge19" class="edge"><title>http://latin.omdoc.org/type_theories?TypesTerms&#45;&gt;http://latin.omdoc.org/type_theories?DUNION</title>
<a class="graphinclude">
<path fill="none" stroke="black" d="M738.079,-278.25C818.739,-273.711 959.569,-263.385 975,-246 979.721,-240.682 979.869,-235.183 975,-230 962.804,-217.018 832.283,-224.312 815,-220 808.299,-218.328 801.407,-215.862 794.865,-213.122"/>
<polygon fill="black" stroke="black" points="796.151,-209.863 785.594,-208.97 793.29,-216.252 796.151,-209.863"/>
</a>
</g>
<!-- http://latin.omdoc.org/type_theories?TypesTerms&#45;&gt;http://latin.omdoc.org/type_theories?Option -->
<g id="edge25" class="edge"><title>http://latin.omdoc.org/type_theories?TypesTerms&#45;&gt;http://latin.omdoc.org/type_theories?Option</title>
<a class="graphinclude">
<path fill="none" stroke="black" d="M628.09,-275.787C591.802,-269.156 546.448,-254.11 523,-220 511.922,-203.885 510.965,-191.414 523,-176 581.642,-100.892 639.952,-152.113 731,-124 733.916,-123.1 736.917,-122.118 739.922,-121.096"/>
<polygon fill="black" stroke="black" points="741.17,-124.367 749.437,-117.741 738.842,-117.766 741.17,-124.367"/>
</a>
</g>
<!-- http://latin.omdoc.org/type_theories?TypesTerms&#45;&gt;http://latin.omdoc.org/type_theories?UNIT -->
<g id="edge31" class="edge"><title>http://latin.omdoc.org/type_theories?TypesTerms&#45;&gt;http://latin.omdoc.org/type_theories?UNIT</title>
<a class="graphinclude">
<path fill="none" stroke="black" d="M678.246,-264.009C675.592,-251.995 671.979,-235.641 668.936,-221.869"/>
<polygon fill="black" stroke="black" points="672.321,-220.965 666.746,-211.956 665.486,-222.475 672.321,-220.965"/>
</a>
</g>
<!-- http://latin.omdoc.org/type_theories?TypesTerms&#45;&gt;http://latin.omdoc.org/type_theories?SIGMA -->
<g id="edge41" class="edge"><title>http://latin.omdoc.org/type_theories?TypesTerms&#45;&gt;http://latin.omdoc.org/type_theories?SIGMA</title>
<a class="graphinclude">
<path fill="none" stroke="black" d="M627.784,-275.913C582.11,-270.66 521.224,-261.081 502,-246 465.392,-217.281 459.222,-176.895 490,-142 511.186,-117.98 601.812,-131.289 633,-124 636.2,-123.252 639.484,-122.372 642.763,-121.412"/>
<polygon fill="black" stroke="black" points="644.006,-124.69 652.493,-118.348 641.904,-118.013 644.006,-124.69"/>
</a>
</g>
<!-- http://latin.omdoc.org/type_theories?TypesTerms&#45;&gt;http://latin.omdoc.org/type_theories?Product -->
<g id="edge59" class="edge"><title>http://latin.omdoc.org/type_theories?TypesTerms&#45;&gt;http://latin.omdoc.org/type_theories?Product</title>
<a class="graphinclude">
<path fill="none" stroke="black" d="M738.342,-278.613C822.892,-274.446 974.502,-264.472 991,-246 995.737,-240.696 995.698,-235.338 991,-230 979.456,-216.881 929.697,-225.158 913,-220 907.525,-218.309 901.925,-216.037 896.559,-213.549"/>
<polygon fill="black" stroke="black" points="897.744,-210.23 887.231,-208.918 894.631,-216.5 897.744,-210.23"/>
</a>
</g>
<!-- http://latin.omdoc.org/type_theories?TypesTerms&#45;&gt;http://latin.omdoc.org/type_theories?IDENT -->
<g id="edge65" class="edge"><title>http://latin.omdoc.org/type_theories?TypesTerms&#45;&gt;http://latin.omdoc.org/type_theories?IDENT</title>
<a class="graphinclude">
<path fill="none" stroke="black" d="M738.105,-278.37C829.029,-273.647 1000.7,-262.643 1023,-246 1030.81,-240.174 1035.72,-230.926 1038.82,-221.895"/>
<polygon fill="black" stroke="black" points="1042.26,-222.558 1041.59,-211.985 1035.52,-220.672 1042.26,-222.558"/>
</a>
</g>
<!-- http://latin.omdoc.org/type_theories?TypesTerms&#45;&gt;http://latin.omdoc.org/foundations/zfc?TypedZFBase -->
<g id="edge99" class="edge"><title>http://latin.omdoc.org/type_theories?TypesTerms&#45;&gt;http://latin.omdoc.org/foundations/zfc?TypedZFBase</title>
<a xlink:href="http://latin.omdoc.org/translations/tt_zfc?TypesTerms" class="graphview">
<path fill="none" stroke="black" d="M739.019,-279.865C954.062,-275.309 1705.53,-256.801 1740,-220 1761.32,-197.233 1754.63,-159.191 1746.49,-133.61"/>
<polygon fill="black" stroke="black" points="1749.8,-132.462 1743.24,-124.146 1743.18,-134.74 1749.8,-132.462"/>
</a>
<a xlink:href="http://latin.omdoc.org/translations/tt_zfc?TypesTerms" class="TypesTerms">
<text text-anchor="middle" x="1790" y="-190.3" font-family="Times New Roman,serif" font-size="14.00">TypesTerms</text>
</a>
</g>
<!-- http://latin.omdoc.org/type_theories?TypesTerms&#45;&gt;http://latin.omdoc.org/translations/stt_prop?CH&#45;IPL -->
<g id="edge97" class="edge"><title>http://latin.omdoc.org/type_theories?TypesTerms&#45;&gt;http://latin.omdoc.org/translations/stt_prop?CH&#45;IPL</title>
<a xlink:href="http://latin.omdoc.org/translations/stt_prop?TypesTerms" class="graphview">
<path fill="none" stroke="black" d="M626.934,-277.185C530.072,-269.757 333.709,-251.278 273,-220 232.985,-199.383 198.996,-158.639 179.799,-132.124"/>
<polygon fill="black" stroke="black" points="182.496,-129.876 173.868,-123.727 176.778,-133.915 182.496,-129.876"/>
</a>
<a xlink:href="http://latin.omdoc.org/translations/stt_prop?TypesTerms" class="TypesTerms">
<text text-anchor="middle" x="309" y="-190.3" font-family="Times New Roman,serif" font-size="14.00">TypesTerms</text>
</a>
</g>
<!-- http://latin.omdoc.org/type_theories?TypesTerms&#45;&gt;http://latin.omdoc.org/translations/tt_zfc?STT -->
<g id="edge103" class="edge"><title>http://latin.omdoc.org/type_theories?TypesTerms&#45;&gt;http://latin.omdoc.org/translations/tt_zfc?STT</title>
<a xlink:href="http://latin.omdoc.org/translations/tt_zfc?STT?[http://latin.omdoc.org/type_theories?TypesTerms]" class="graphstructure">
<path fill="none" stroke="black" d="M739.2,-281.973C811.443,-281.734 938.885,-276.396 1043,-246 1067.42,-238.87 1073.98,-235.698 1094,-220 1114.33,-204.057 1108.77,-187.308 1132,-176 1169.91,-157.551 1481.91,-188.51 1511,-158 1515.91,-152.854 1515.49,-147.514 1511,-142 1486.07,-111.381 1462.46,-132.927 1424,-124 1413.8,-121.633 1402.76,-118.87 1392.69,-116.269"/>
<polygon fill="black" stroke="black" points="1393.56,-112.88 1383,-113.742 1391.8,-119.653 1393.56,-112.88"/>
</a>
<a xlink:href="http://latin.omdoc.org/translations/tt_zfc?STT?[http://latin.omdoc.org/type_theories?TypesTerms]" class="[http://latin.omdoc.org/type_theories?TypesTerms]">
<text text-anchor="middle" x="1275" y="-190.3" font-family="Times New Roman,serif" font-size="14.00">[http://latin.omdoc.org/type_theories?TypesTerms]</text>
</a>
</g>
<!-- http://latin.omdoc.org/type_theories?TypesTerms&#45;&gt;http://latin.omdoc.org/type_theories?STT&#45;MLTT -->
<g id="edge101" class="edge"><title>http://latin.omdoc.org/type_theories?TypesTerms&#45;&gt;http://latin.omdoc.org/type_theories?STT&#45;MLTT</title>
<a xlink:href="http://latin.omdoc.org/type_theories?STT-MLTT?[http://latin.omdoc.org/type_theories?TypesTerms]" class="graphstructure">
<path fill="none" stroke="black" d="M738.401,-278.856C900.234,-272.352 1358.34,-251.353 1418,-220 1440.37,-208.245 1431.88,-188.209 1454,-176 1482.43,-160.311 1577.5,-182.333 1599,-158 1603.71,-152.671 1603.2,-147.74 1599,-142 1595.19,-136.795 1567.42,-127.978 1540.73,-120.496"/>
<polygon fill="black" stroke="black" points="1541.56,-117.096 1530.99,-117.809 1539.7,-123.843 1541.56,-117.096"/>
</a>
<a xlink:href="http://latin.omdoc.org/type_theories?STT-MLTT?[http://latin.omdoc.org/type_theories?TypesTerms]" class="[http://latin.omdoc.org/type_theories?TypesTerms]">
<text text-anchor="middle" x="1597" y="-190.3" font-family="Times New Roman,serif" font-size="14.00">[http://latin.omdoc.org/type_theories?TypesTerms]</text>
</a>
</g>
<!-- http://latin.omdoc.org/type_theories?TypesTerms&#45;&gt;http://latin.omdoc.org/type_theories?STT -->
<g id="edge105" class="edge"><title>http://latin.omdoc.org/type_theories?TypesTerms&#45;&gt;http://latin.omdoc.org/type_theories?STT</title>
<a class="graphinclude">
<path fill="none" stroke="black" d="M626.974,-276.709C586.22,-272.254 529.87,-263.378 483,-246 401.102,-215.635 315.471,-156.648 274.199,-126.206"/>
<polygon fill="black" stroke="black" points="276.194,-123.327 266.083,-120.163 272.014,-128.942 276.194,-123.327"/>
</a>
</g>
<!-- http://cds.omdoc.org/urtheories?LF -->
<g id="node18" class="node"><title>http://cds.omdoc.org/urtheories?LF</title>
<a xlink:href="http://cds.omdoc.org/urtheories?LF" class="graphtheory">
<ellipse fill="gray" stroke="black" cx="547" cy="-356" rx="27" ry="18"/>
<text text-anchor="middle" x="547" y="-352.3" font-family="Times New Roman,serif" font-size="14.00">LF</text>
</a>
</g>
<!-- http://cds.omdoc.org/urtheories?LF&#45;&gt;http://latin.omdoc.org/type_theories?VOID -->
<g id="edge11" class="edge"><title>http://cds.omdoc.org/urtheories?LF&#45;&gt;http://latin.omdoc.org/type_theories?VOID</title>
<a class="graphmeta">
<path fill="none" stroke="black" d="M573.807,-353.506C653.971,-348.715 890.586,-332.141 960,-300 997.982,-282.413 1046.7,-264.502 1023,-230 1015.99,-219.794 1008.14,-225.408 997,-220 992.852,-217.986 988.572,-215.7 984.404,-213.349"/>
<polygon fill="black" stroke="black" points="985.95,-210.199 975.55,-208.178 982.42,-216.244 985.95,-210.199"/>
</a>
</g>
<!-- http://cds.omdoc.org/urtheories?LF&#45;&gt;http://latin.omdoc.org/type_theories?Naturals -->
<g id="edge15" class="edge"><title>http://cds.omdoc.org/urtheories?LF&#45;&gt;http://latin.omdoc.org/type_theories?Naturals</title>
<a class="graphmeta">
<path fill="none" stroke="black" d="M538.97,-338.657C536.549,-332.903 534.213,-326.298 533,-320 525.436,-280.722 516.701,-266.528 533,-230 535.271,-224.911 538.687,-220.254 542.572,-216.113"/>
<polygon fill="black" stroke="black" points="545.011,-218.624 549.922,-209.235 540.228,-213.512 545.011,-218.624"/>
</a>
</g>
<!-- http://cds.omdoc.org/urtheories?LF&#45;&gt;http://latin.omdoc.org/type_theories?DUNION -->
<g id="edge21" class="edge"><title>http://cds.omdoc.org/urtheories?LF&#45;&gt;http://latin.omdoc.org/type_theories?DUNION</title>
<a class="graphmeta">
<path fill="none" stroke="black" d="M556.082,-338.655C567.77,-318.837 589.732,-285.435 616,-264 624.848,-256.779 681.973,-230.264 721.556,-212.286"/>
<polygon fill="black" stroke="black" points="723.039,-215.456 730.704,-208.141 720.15,-209.08 723.039,-215.456"/>
</a>
</g>
<!-- http://cds.omdoc.org/urtheories?LF&#45;&gt;http://latin.omdoc.org/type_theories?Option -->
<g id="edge29" class="edge"><title>http://cds.omdoc.org/urtheories?LF&#45;&gt;http://latin.omdoc.org/type_theories?Option</title>
<a class="graphmeta">
<path fill="none" stroke="black" d="M537.015,-338.799C530.988,-328.172 523.767,-313.747 520,-300 501.336,-231.883 475.197,-176.185 537,-142 574.887,-121.044 688.778,-133.586 731,-124 734.155,-123.284 737.387,-122.405 740.603,-121.429"/>
<polygon fill="black" stroke="black" points="741.727,-124.744 750.114,-118.27 739.521,-118.101 741.727,-124.744"/>
</a>
</g>
<!-- http://cds.omdoc.org/urtheories?LF&#45;&gt;http://latin.omdoc.org/type_theories?UNIT -->
<g id="edge33" class="edge"><title>http://cds.omdoc.org/urtheories?LF&#45;&gt;http://latin.omdoc.org/type_theories?UNIT</title>
<a class="graphmeta">
<path fill="none" stroke="black" d="M546.888,-337.79C547.685,-310.911 553.28,-259.042 583,-230 595.491,-217.795 604.895,-226.754 621,-220 625.46,-218.129 630.017,-215.852 634.405,-213.443"/>
<polygon fill="black" stroke="black" points="636.203,-216.446 643.093,-208.398 632.687,-210.393 636.203,-216.446"/>
</a>
</g>
<!-- http://cds.omdoc.org/urtheories?LF&#45;&gt;http://latin.omdoc.org/type_theories?NatTypes -->
<g id="edge37" class="edge"><title>http://cds.omdoc.org/urtheories?LF&#45;&gt;http://latin.omdoc.org/type_theories?NatTypes</title>
<a class="graphmeta">
<path fill="none" stroke="black" d="M519.823,-354.618C468.635,-353.262 360.997,-347.168 338,-320 312.444,-289.808 311.382,-171.259 338,-142 366.54,-110.628 486.53,-132.887 528,-124 530.774,-123.406 533.607,-122.707 536.445,-121.937"/>
<polygon fill="black" stroke="black" points="537.44,-125.293 546.034,-119.097 535.452,-118.581 537.44,-125.293"/>
</a>
</g>
<!-- http://cds.omdoc.org/urtheories?LF&#45;&gt;http://latin.omdoc.org/type_theories?SIGMA -->
<g id="edge43" class="edge"><title>http://cds.omdoc.org/urtheories?LF&#45;&gt;http://latin.omdoc.org/type_theories?SIGMA</title>
<a class="graphmeta">
<path fill="none" stroke="black" d="M520.506,-351.839C485.542,-347.06 426.901,-336.735 414,-320 374.926,-269.313 381.582,-231.182 414,-176 464.673,-89.7436 535.453,-146.192 633,-124 636.205,-123.271 639.492,-122.404 642.772,-121.454"/>
<polygon fill="black" stroke="black" points="644.009,-124.734 652.507,-118.406 641.918,-118.054 644.009,-124.734"/>
</a>
</g>
<!-- http://cds.omdoc.org/urtheories?LF&#45;&gt;http://latin.omdoc.org/type_theories?Product -->
<g id="edge61" class="edge"><title>http://cds.omdoc.org/urtheories?LF&#45;&gt;http://latin.omdoc.org/type_theories?Product</title>
<a class="graphmeta">
<path fill="none" stroke="black" d="M573.778,-352.887C663.679,-345.188 952.149,-315.367 1007,-246 1011.41,-240.422 1011.75,-235.288 1007,-230 992.954,-214.38 933.136,-225.984 913,-220 907.507,-218.368 901.898,-216.127 896.528,-213.653"/>
<polygon fill="black" stroke="black" points="897.712,-210.334 887.197,-209.029 894.603,-216.606 897.712,-210.334"/>
</a>
</g>
<!-- http://cds.omdoc.org/urtheories?LF&#45;&gt;http://latin.omdoc.org/type_theories?IDENT -->
<g id="edge67" class="edge"><title>http://cds.omdoc.org/urtheories?LF&#45;&gt;http://latin.omdoc.org/type_theories?IDENT</title>
<a class="graphmeta">
<path fill="none" stroke="black" d="M574.148,-354.833C661.426,-353.83 933.297,-346.922 1005,-300 1029.56,-283.931 1033.87,-273.89 1043,-246 1045.42,-238.594 1046.3,-230.253 1046.41,-222.495"/>
<polygon fill="black" stroke="black" points="1049.9,-222.326 1046.15,-212.42 1042.91,-222.508 1049.9,-222.326"/>
</a>
</g>
<!-- http://cds.omdoc.org/urtheories?LF&#45;&gt;http://latin.omdoc.org/foundations/zfc?TypedZFBase -->
<g id="edge79" class="edge"><title>http://cds.omdoc.org/urtheories?LF&#45;&gt;http://latin.omdoc.org/foundations/zfc?TypedZFBase</title>
<a class="graphmeta">
<path fill="none" stroke="black" d="M573.951,-354.723C731.455,-353.028 1534.3,-343.358 1780,-320 1835.14,-314.758 1854.9,-327.453 1903,-300 1954.05,-270.863 1971.89,-230.142 1949,-176 1940.56,-156.025 1933.21,-152.063 1914,-142 1881.38,-124.915 1841.44,-116.135 1807.66,-111.638"/>
<polygon fill="black" stroke="black" points="1807.74,-108.122 1797.39,-110.376 1806.88,-115.07 1807.74,-108.122"/>
</a>
</g>
<!-- http://cds.omdoc.org/urtheories?LF&#45;&gt;http://latin.omdoc.org/type_theories?MLTT -->
<g id="edge89" class="edge"><title>http://cds.omdoc.org/urtheories?LF&#45;&gt;http://latin.omdoc.org/type_theories?MLTT</title>
<a class="graphmeta">
<path fill="none" stroke="black" d="M520.236,-353.611C422.704,-348.201 92,-326.637 92,-283 92,-283 92,-283 92,-105 92,-78.089 163.849,-48.2311 210.337,-31.7289"/>
<polygon fill="black" stroke="black" points="211.548,-35.0137 219.837,-28.4161 209.243,-28.404 211.548,-35.0137"/>
</a>
</g>
<!-- http://cds.omdoc.org/urtheories?LF&#45;&gt;http://latin.omdoc.org/type_theories?TypesTerms -->
<g id="edge81" class="edge"><title>http://cds.omdoc.org/urtheories?LF&#45;&gt;http://latin.omdoc.org/type_theories?TypesTerms</title>
<a class="graphmeta">
<path fill="none" stroke="black" d="M567.504,-344.065C588.131,-333.063 620.384,-315.862 645.408,-302.516"/>
<polygon fill="black" stroke="black" points="647.089,-305.586 654.266,-297.792 643.795,-299.409 647.089,-305.586"/>
</a>
</g>
<!-- http://cds.omdoc.org/urtheories?LF&#45;&gt;http://latin.omdoc.org/foundations/zfc?DisjUnion -->
<g id="edge95" class="edge"><title>http://cds.omdoc.org/urtheories?LF&#45;&gt;http://latin.omdoc.org/foundations/zfc?DisjUnion</title>
<a class="graphmeta">
<path fill="none" stroke="black" d="M574.217,-355.144C775.406,-356.037 2024,-358.534 2024,-283 2024,-283 2024,-283 2024,-105 2024,22.8039 1867.82,-69.8276 1741,-54 1581.1,-34.0444 1390.86,-24.6299 1298.25,-20.9594"/>
<polygon fill="black" stroke="black" points="1298.38,-17.462 1288.26,-20.5705 1298.11,-24.4567 1298.38,-17.462"/>
</a>
</g>
<!-- http://cds.omdoc.org/urtheories?LF&#45;&gt;http://latin.omdoc.org/foundations/zfc?DependentProducts -->
<g id="edge87" class="edge"><title>http://cds.omdoc.org/urtheories?LF&#45;&gt;http://latin.omdoc.org/foundations/zfc?DependentProducts</title>
<a class="graphmeta">
<path fill="none" stroke="black" d="M520.144,-353.936C417.266,-349.511 54,-330.52 54,-283 54,-283 54,-283 54,-105 54,-84.0573 61.8174,-61.6788 69.3346,-45.0008"/>
<polygon fill="black" stroke="black" points="72.5315,-46.4278 73.6646,-35.8938 66.2097,-43.4221 72.5315,-46.4278"/>
</a>
</g>
<!-- http://cds.omdoc.org/urtheories?LF&#45;&gt;http://latin.omdoc.org/translations/stt_prop?CH&#45;IPL -->
<g id="edge91" class="edge"><title>http://cds.omdoc.org/urtheories?LF&#45;&gt;http://latin.omdoc.org/translations/stt_prop?CH&#45;IPL</title>
<a class="graphmeta">
<path fill="none" stroke="black" d="M520.088,-353.626C452.839,-349.676 279.797,-336.158 237,-300 186.567,-257.39 170.403,-176.339 165.3,-134.111"/>
<polygon fill="black" stroke="black" points="168.763,-133.58 164.204,-124.016 161.804,-134.336 168.763,-133.58"/>
</a>
</g>
<!-- http://cds.omdoc.org/urtheories?LF&#45;&gt;http://latin.omdoc.org/foundations/zfc?Products -->
<g id="edge93" class="edge"><title>http://cds.omdoc.org/urtheories?LF&#45;&gt;http://latin.omdoc.org/foundations/zfc?Products</title>
<a class="graphmeta">
<path fill="none" stroke="black" d="M574.263,-355.178C778.56,-356.34 2062,-360.555 2062,-283 2062,-283 2062,-283 2062,-105 2062,-49.1269 1881.18,-28.7952 1788.46,-22.0424"/>
<polygon fill="black" stroke="black" points="1788.64,-18.5464 1778.42,-21.339 1788.15,-25.5293 1788.64,-18.5464"/>
</a>
</g>
<!-- http://latin.omdoc.org/logics/syntax?CONJ -->
<g id="node46" class="node"><title>http://latin.omdoc.org/logics/syntax?CONJ</title>
<a xlink:href="http://latin.omdoc.org/logics/syntax?CONJ" class="graphtheory">
<ellipse fill="gray" stroke="black" cx="1795" cy="-282" rx="33.1991" ry="18"/>
<text text-anchor="middle" x="1795" y="-278.3" font-family="Times New Roman,serif" font-size="14.00">CONJ</text>
</a>
</g>
<!-- http://cds.omdoc.org/urtheories?LF&#45;&gt;http://latin.omdoc.org/logics/syntax?CONJ -->
<g id="edge85" class="edge"><title>http://cds.omdoc.org/urtheories?LF&#45;&gt;http://latin.omdoc.org/logics/syntax?CONJ</title>
<a class="graphmeta">
<path fill="none" stroke="black" d="M573.935,-353.446C733.429,-344.244 1553.87,-296.911 1751.93,-285.485"/>
<polygon fill="black" stroke="black" points="1752.18,-288.977 1761.96,-284.906 1751.77,-281.988 1752.18,-288.977"/>
</a>
</g>
<!-- http://latin.omdoc.org/logics/proof_theory?CONJ -->
<g id="node48" class="node"><title>http://latin.omdoc.org/logics/proof_theory?CONJ</title>
<a xlink:href="http://latin.omdoc.org/logics/proof_theory?CONJ" class="graphtheory">
<ellipse fill="gray" stroke="black" cx="1886" cy="-194" rx="33.1991" ry="18"/>
<text text-anchor="middle" x="1886" y="-190.3" font-family="Times New Roman,serif" font-size="14.00">CONJ</text>
</a>
</g>
<!-- http://cds.omdoc.org/urtheories?LF&#45;&gt;http://latin.omdoc.org/logics/proof_theory?CONJ -->
<g id="edge83" class="edge"><title>http://cds.omdoc.org/urtheories?LF&#45;&gt;http://latin.omdoc.org/logics/proof_theory?CONJ</title>
<a class="graphmeta">
<path fill="none" stroke="black" d="M574.172,-354.638C755.327,-352.123 1782.6,-336.294 1837,-300 1863.36,-282.415 1875.83,-246.724 1881.53,-221.862"/>
<polygon fill="black" stroke="black" points="1884.98,-222.455 1883.57,-211.954 1878.12,-221.039 1884.98,-222.455"/>
</a>
</g>
<!-- http://cds.omdoc.org/urtheories?LF&#45;&gt;http://latin.omdoc.org/type_theories?STT -->
<g id="edge77" class="edge"><title>http://cds.omdoc.org/urtheories?LF&#45;&gt;http://latin.omdoc.org/type_theories?STT</title>
<a class="graphmeta">
<path fill="none" stroke="black" d="M520.007,-355.067C478.094,-354.208 395.666,-348.621 333,-320 269.85,-291.158 242.447,-282.87 213,-220 199.2,-190.535 216.154,-154.39 231.153,-131.038"/>
<polygon fill="black" stroke="black" points="234.249,-132.707 236.946,-122.461 228.448,-128.789 234.249,-132.707"/>
</a>
</g>
<!-- http://cds.omdoc.org/urtheories?LF&#45;&gt;http://latin.omdoc.org/foundations/zfc?Boolean -->
<g id="edge75" class="edge"><title>http://cds.omdoc.org/urtheories?LF&#45;&gt;http://latin.omdoc.org/foundations/zfc?Boolean</title>
<a class="graphmeta">
<path fill="none" stroke="black" d="M574.196,-355.205C702.428,-355.955 1259.42,-356.825 1714,-320 1781.48,-314.534 1806.17,-333.502 1865,-300 1918.72,-269.408 1967.26,-223.748 1928,-176 1852.05,-83.6284 1779.8,-153.868 1664,-124 1659.95,-122.955 1655.75,-121.776 1651.57,-120.54"/>
<polygon fill="black" stroke="black" points="1652.52,-117.17 1641.93,-117.586 1650.47,-123.863 1652.52,-117.17"/>
</a>
</g>
<!-- http://latin.omdoc.org/foundations/zfc?Products&#45;&gt;http://latin.omdoc.org/foundations/zfc?TypedZFBase -->
<g id="edge73" class="edge"><title>http://latin.omdoc.org/foundations/zfc?Products&#45;&gt;http://latin.omdoc.org/foundations/zfc?TypedZFBase</title>
<a xlink:href="http://latin.omdoc.org/foundations/zfc?_P" class="graphview">
<path fill="none" stroke="black" d="M1726.23,-35.8656C1722.14,-45.7374 1718.64,-58.4874 1721,-70 1721.59,-72.8534 1722.41,-75.7615 1723.38,-78.6208"/>
<polygon fill="black" stroke="black" points="1720.16,-79.9845 1727.08,-88.0044 1726.67,-77.4175 1720.16,-79.9845"/>
</a>
<a xlink:href="http://latin.omdoc.org/foundations/zfc?_P" class="_P">
<text text-anchor="middle" x="1729" y="-58.3" font-family="Times New Roman,serif" font-size="14.00">_P</text>
</a>
</g>
<!-- http://latin.omdoc.org/logics/syntax?CONJ&#45;&gt;http://latin.omdoc.org/type_theories?Product -->
<g id="edge53" class="edge"><title>http://latin.omdoc.org/logics/syntax?CONJ&#45;&gt;http://latin.omdoc.org/type_theories?Product</title>
<a xlink:href="http://latin.omdoc.org/translations/prop_stt?CONJ" class="graphview">
<path fill="none" stroke="black" d="M1762.14,-278.749C1602.52,-267.815 915.614,-220.725 913,-220 907.222,-218.398 901.331,-216.079 895.73,-213.49"/>
<polygon fill="black" stroke="black" points="897.159,-210.291 886.649,-208.957 894.033,-216.554 897.159,-210.291"/>
</a>
<a xlink:href="http://latin.omdoc.org/translations/prop_stt?CONJ" class="CONJ">
<text text-anchor="middle" x="1295" y="-234.3" font-family="Times New Roman,serif" font-size="14.00">CONJ</text>
</a>
</g>
<!-- http://latin.omdoc.org/logics/syntax?CONJ&#45;&gt;http://latin.omdoc.org/logics/proof_theory?CONJ -->
<g id="edge71" class="edge"><title>http://latin.omdoc.org/logics/syntax?CONJ&#45;&gt;http://latin.omdoc.org/logics/proof_theory?CONJ</title>
<a class="graphinclude">
<path fill="none" stroke="black" d="M1812.35,-266.259C1819.47,-260.102 1827.72,-252.808 1835,-246 1844.72,-236.911 1855.15,-226.581 1864.04,-217.606"/>
<polygon fill="black" stroke="black" points="1866.57,-220.026 1871.08,-210.443 1861.58,-215.116 1866.57,-220.026"/>
</a>
</g>
<!-- http://latin.omdoc.org/logics/proof_theory?CONJ&#45;&gt;http://latin.omdoc.org/type_theories?Product -->
<g id="edge55" class="edge"><title>http://latin.omdoc.org/logics/proof_theory?CONJ&#45;&gt;http://latin.omdoc.org/type_theories?Product</title>
<a xlink:href="http://latin.omdoc.org/translations/prop_stt?CONJPF" class="graphview">
<path fill="none" stroke="black" d="M1864.93,-208.225C1856.86,-212.901 1847.35,-217.53 1838,-220 1745.17,-244.53 1070.01,-236.528 974,-237.5 950.89,-237.734 943.925,-244.808 922,-237.5 909.499,-233.333 897.523,-225.3 887.733,-217.259"/>
<polygon fill="black" stroke="black" points="889.904,-214.508 880.061,-210.588 885.311,-219.79 889.904,-214.508"/>
</a>
<a xlink:href="http://latin.omdoc.org/translations/prop_stt?CONJPF" class="CONJPF">
<text text-anchor="middle" x="948" y="-234.3" font-family="Times New Roman,serif" font-size="14.00">CONJPF</text>
</a>
</g>
<!-- http://latin.omdoc.org/type_theories?STT&#45;&gt;http://latin.omdoc.org/type_theories?MLTT -->
<g id="edge69" class="edge"><title>http://latin.omdoc.org/type_theories?STT&#45;&gt;http://latin.omdoc.org/type_theories?MLTT</title>
<a xlink:href="http://latin.omdoc.org/type_theories?STT-MLTT" class="graphview">
<path fill="none" stroke="black" d="M249,-87.5966C249,-75.7459 249,-59.8169 249,-46.2917"/>
<polygon fill="black" stroke="black" points="252.5,-46.084 249,-36.084 245.5,-46.084 252.5,-46.084"/>
</a>
<a xlink:href="http://latin.omdoc.org/type_theories?STT-MLTT" class="STT&#45;MLTT">
<text text-anchor="middle" x="284" y="-58.3" font-family="Times New Roman,serif" font-size="14.00">STT&#45;MLTT</text>
</a>
</g>
</g>
</svg>
