<?xml version="1.0" encoding="UTF-8" standalone="no"?>
<!DOCTYPE svg PUBLIC "-//W3C//DTD SVG 1.1//EN"
 "http://www.w3.org/Graphics/SVG/1.1/DTD/svg11.dtd">
<!-- Generated by graphviz version 2.28.0 (20110507.0327)
 -->
<!-- Title: MMT Pages: 1 -->
<svg
 viewBox="0.00 0.00 385.00 354.00" xmlns="http://www.w3.org/2000/svg" xmlns:xlink="http://www.w3.org/1999/xlink">
<g id="graph1" class="graph" transform="scale(1 1) rotate(0) translate(4 350)">
<title>MMT</title>
<polygon fill="white" stroke="white" points="-4,5 -4,-350 382,-350 382,5 -4,5"/>
<g id="graph2" class="cluster"><title>cluster_local</title>
<polygon fill="none" stroke="black" points="131,-80 131,-132 203,-132 203,-80 131,-80"/>
</g>
<!-- http://latin.omdoc.org/type_theories?STT -->
<g id="node2" class="node"><title>http://latin.omdoc.org/type_theories?STT</title>
<a xlink:href="http://latin.omdoc.org/type_theories?STT" class="graphtheory">
<ellipse fill="none" stroke="black" cx="167" cy="-106" rx="27.4223" ry="18"/>
<text text-anchor="middle" x="167" y="-102.3" font-family="Times New Roman,serif" font-size="14.00">STT</text>
</a>
</g>
<!-- http://latin.omdoc.org/type_theories?MLTT -->
<g id="node3" class="node"><title>http://latin.omdoc.org/type_theories?MLTT</title>
<a xlink:href="http://latin.omdoc.org/type_theories?MLTT" class="graphtheory">
<ellipse fill="gray" stroke="black" cx="35" cy="-18" rx="35.6194" ry="18"/>
<text text-anchor="middle" x="35" y="-14.3" font-family="Times New Roman,serif" font-size="14.00">MLTT</text>
</a>
</g>
<!-- http://latin.omdoc.org/type_theories?STT&#45;&gt;http://latin.omdoc.org/type_theories?MLTT -->
<g id="edge3" class="edge"><title>http://latin.omdoc.org/type_theories?STT&#45;&gt;http://latin.omdoc.org/type_theories?MLTT</title>
<a xlink:href="http://latin.omdoc.org/type_theories?STT-MLTT" class="graphview">
<path fill="none" stroke="black" d="M151.698,-90.6698C146.698,-86.6673 140.905,-82.6837 135,-80 113.575,-70.262 103.621,-81.3417 83,-70 71.1808,-63.4995 60.5913,-53.0556 52.3853,-43.3068"/>
<polygon fill="black" stroke="black" points="55.0443,-41.0273 46.0781,-35.3831 49.5675,-45.3868 55.0443,-41.0273"/>
</a>
<a xlink:href="http://latin.omdoc.org/type_theories?STT-MLTT" class="STT&#45;MLTT">
<text text-anchor="middle" x="118" y="-58.3" font-family="Times New Roman,serif" font-size="14.00">STT&#45;MLTT</text>
</a>
</g>
<!-- http://latin.omdoc.org/foundations/zfc?TypedZF -->
<g id="node5" class="node"><title>http://latin.omdoc.org/foundations/zfc?TypedZF</title>
<a xlink:href="http://latin.omdoc.org/foundations/zfc?TypedZF" class="graphtheory">
<ellipse fill="gray" stroke="black" cx="150" cy="-18" rx="45.244" ry="18"/>
<text text-anchor="middle" x="150" y="-14.3" font-family="Times New Roman,serif" font-size="14.00">TypedZF</text>
</a>
</g>
<!-- http://latin.omdoc.org/type_theories?STT&#45;&gt;http://latin.omdoc.org/foundations/zfc?TypedZF -->
<g id="edge5" class="edge"><title>http://latin.omdoc.org/type_theories?STT&#45;&gt;http://latin.omdoc.org/foundations/zfc?TypedZF</title>
<a xlink:href="http://latin.omdoc.org/translations/tt_zfc?STT" class="graphview">
<path fill="none" stroke="black" d="M163.641,-88.0092C161.266,-75.9947 158.034,-59.641 155.311,-45.8691"/>
<polygon fill="black" stroke="black" points="158.725,-45.087 153.352,-35.9555 151.857,-46.4445 158.725,-45.087"/>
</a>
<a xlink:href="http://latin.omdoc.org/translations/tt_zfc?STT" class="STT">
<text text-anchor="middle" x="174.5" y="-58.3" font-family="Times New Roman,serif" font-size="14.00">STT</text>
</a>
</g>
<!-- http://latin.omdoc.org/logics/syntax?STTHOL -->
<g id="node7" class="node"><title>http://latin.omdoc.org/logics/syntax?STTHOL</title>
<a xlink:href="http://latin.omdoc.org/logics/syntax?STTHOL" class="graphtheory">
<ellipse fill="gray" stroke="black" cx="306" cy="-18" rx="46.2191" ry="18"/>
<text text-anchor="middle" x="306" y="-14.3" font-family="Times New Roman,serif" font-size="14.00">STTHOL</text>
</a>
</g>
<!-- http://latin.omdoc.org/type_theories?STT&#45;&gt;http://latin.omdoc.org/logics/syntax?STTHOL -->
<g id="edge7" class="edge"><title>http://latin.omdoc.org/type_theories?STT&#45;&gt;http://latin.omdoc.org/logics/syntax?STTHOL</title>
<a class="graphinclude">
<path fill="none" stroke="black" d="M186.327,-93.0421C208.846,-79.1096 246.412,-55.8672 273.454,-39.1365"/>
<polygon fill="black" stroke="black" points="275.522,-41.9729 282.184,-33.735 271.839,-36.0201 275.522,-41.9729"/>
</a>
</g>
<!-- http://latin.omdoc.org/type_theories?SimpTypes -->
<g id="node9" class="node"><title>http://latin.omdoc.org/type_theories?SimpTypes</title>
<a xlink:href="http://latin.omdoc.org/type_theories?SimpTypes" class="graphtheory">
<ellipse fill="gray" stroke="black" cx="160" cy="-180" rx="52.4675" ry="18"/>
<text text-anchor="middle" x="160" y="-176.3" font-family="Times New Roman,serif" font-size="14.00">SimpTypes</text>
</a>
</g>
<!-- http://latin.omdoc.org/type_theories?SimpTypes&#45;&gt;http://latin.omdoc.org/type_theories?STT -->
<g id="edge9" class="edge"><title>http://latin.omdoc.org/type_theories?SimpTypes&#45;&gt;http://latin.omdoc.org/type_theories?STT</title>
<a class="graphinclude">
<path fill="none" stroke="black" d="M161.659,-161.937C162.458,-153.719 163.436,-143.66 164.336,-134.406"/>
<polygon fill="black" stroke="black" points="167.82,-134.732 165.304,-124.441 160.853,-134.055 167.82,-134.732"/>
</a>
</g>
<!-- http://latin.omdoc.org/type_theories?TypesTerms -->
<g id="node11" class="node"><title>http://latin.omdoc.org/type_theories?TypesTerms</title>
<a xlink:href="http://latin.omdoc.org/type_theories?TypesTerms" class="graphtheory">
<ellipse fill="gray" stroke="black" cx="224" cy="-254" rx="57.2927" ry="18"/>
<text text-anchor="middle" x="224" y="-250.3" font-family="Times New Roman,serif" font-size="14.00">TypesTerms</text>
</a>
</g>
<!-- http://latin.omdoc.org/type_theories?TypesTerms&#45;&gt;http://latin.omdoc.org/type_theories?STT -->
<g id="edge11" class="edge"><title>http://latin.omdoc.org/type_theories?TypesTerms&#45;&gt;http://latin.omdoc.org/type_theories?STT</title>
<a class="graphinclude">
<path fill="none" stroke="black" d="M227.024,-235.768C229.545,-216.849 231.267,-185.976 221,-162 215.039,-148.08 203.798,-135.72 193.108,-126.261"/>
<polygon fill="black" stroke="black" points="195.06,-123.331 185.138,-119.615 190.577,-128.707 195.06,-123.331"/>
</a>
</g>
<!-- http://latin.omdoc.org/type_theories?TypesTerms&#45;&gt;http://latin.omdoc.org/type_theories?SimpTypes -->
<g id="edge29" class="edge"><title>http://latin.omdoc.org/type_theories?TypesTerms&#45;&gt;http://latin.omdoc.org/type_theories?SimpTypes</title>
<a class="graphinclude">
<path fill="none" stroke="black" d="M209.156,-236.301C200.917,-227.032 190.524,-215.339 181.418,-205.095"/>
<polygon fill="black" stroke="black" points="184.023,-202.757 174.763,-197.609 178.791,-207.408 184.023,-202.757"/>
</a>
</g>
<!-- http://latin.omdoc.org/type_theories?Product -->
<g id="node13" class="node"><title>http://latin.omdoc.org/type_theories?Product</title>
<a xlink:href="http://latin.omdoc.org/type_theories?Product" class="graphtheory">
<ellipse fill="gray" stroke="black" cx="309" cy="-180" rx="39.9464" ry="18"/>
<text text-anchor="middle" x="309" y="-176.3" font-family="Times New Roman,serif" font-size="14.00">Product</text>
</a>
</g>
<!-- http://latin.omdoc.org/type_theories?TypesTerms&#45;&gt;http://latin.omdoc.org/type_theories?Product -->
<g id="edge31" class="edge"><title>http://latin.omdoc.org/type_theories?TypesTerms&#45;&gt;http://latin.omdoc.org/type_theories?Product</title>
<a class="graphinclude">
<path fill="none" stroke="black" d="M243.288,-236.662C255.132,-226.629 270.446,-213.657 283.311,-202.76"/>
<polygon fill="black" stroke="black" points="285.583,-205.423 290.951,-196.289 281.058,-200.081 285.583,-205.423"/>
</a>
</g>
<!-- http://latin.omdoc.org/type_theories?Product&#45;&gt;http://latin.omdoc.org/type_theories?STT -->
<g id="edge13" class="edge"><title>http://latin.omdoc.org/type_theories?Product&#45;&gt;http://latin.omdoc.org/type_theories?STT</title>
<a class="graphinclude">
<path fill="none" stroke="black" d="M289.662,-164.198C279.653,-156.944 267.035,-148.414 255,-142 237.817,-132.843 217.7,-124.668 201.041,-118.527"/>
<polygon fill="black" stroke="black" points="201.767,-115.068 191.173,-114.975 199.396,-121.654 201.767,-115.068"/>
</a>
</g>
<!-- http://cds.omdoc.org/urtheories?LF -->
<g id="node15" class="node"><title>http://cds.omdoc.org/urtheories?LF</title>
<a xlink:href="http://cds.omdoc.org/urtheories?LF" class="graphtheory">
<ellipse fill="gray" stroke="black" cx="139" cy="-328" rx="27" ry="18"/>
<text text-anchor="middle" x="139" y="-324.3" font-family="Times New Roman,serif" font-size="14.00">LF</text>
</a>
</g>
<!-- http://cds.omdoc.org/urtheories?LF&#45;&gt;http://latin.omdoc.org/type_theories?STT -->
<g id="edge15" class="edge"><title>http://cds.omdoc.org/urtheories?LF&#45;&gt;http://latin.omdoc.org/type_theories?STT</title>
<a class="graphmeta">
<path fill="none" stroke="black" d="M128.281,-311.265C109.135,-281.043 73.2768,-213.323 98,-162 98.6254,-160.702 122.363,-141.921 141.822,-126.662"/>
<polygon fill="black" stroke="black" points="144.104,-129.321 149.819,-120.4 139.788,-123.809 144.104,-129.321"/>
</a>
</g>
<!-- http://cds.omdoc.org/urtheories?LF&#45;&gt;http://latin.omdoc.org/type_theories?MLTT -->
<g id="edge27" class="edge"><title>http://cds.omdoc.org/urtheories?LF&#45;&gt;http://latin.omdoc.org/type_theories?MLTT</title>
<a class="graphmeta">
<path fill="none" stroke="black" d="M112.131,-324.701C72.4962,-319.675 3,-303.89 3,-255 3,-255 3,-255 3,-105 3,-83.6928 11.7349,-61.1749 20.0774,-44.5275"/>
<polygon fill="black" stroke="black" points="23.293,-45.9338 24.875,-35.4577 17.1053,-42.6607 23.293,-45.9338"/>
</a>
</g>
<!-- http://cds.omdoc.org/urtheories?LF&#45;&gt;http://latin.omdoc.org/foundations/zfc?TypedZF -->
<g id="edge23" class="edge"><title>http://cds.omdoc.org/urtheories?LF&#45;&gt;http://latin.omdoc.org/foundations/zfc?TypedZF</title>
<a class="graphmeta">
<path fill="none" stroke="black" d="M114.27,-320.56C85.2388,-311.332 41,-291.313 41,-255 41,-255 41,-255 41,-105 41,-80.8114 43.0186,-71.2255 60,-54 70.9017,-42.9416 85.6966,-35.3035 100.14,-30.0584"/>
<polygon fill="black" stroke="black" points="101.63,-33.2524 110.031,-26.7968 99.4383,-26.6045 101.63,-33.2524"/>
</a>
</g>
<!-- http://cds.omdoc.org/urtheories?LF&#45;&gt;http://latin.omdoc.org/logics/syntax?STTHOL -->
<g id="edge25" class="edge"><title>http://cds.omdoc.org/urtheories?LF&#45;&gt;http://latin.omdoc.org/logics/syntax?STTHOL</title>
<a class="graphmeta">
<path fill="none" stroke="black" d="M165.839,-324.607C228.082,-318.32 377,-298.708 377,-255 377,-255 377,-255 377,-105 377,-78.233 356.293,-55.2952 337.245,-39.8572"/>
<polygon fill="black" stroke="black" points="339.31,-37.0297 329.248,-33.7107 335.044,-42.5798 339.31,-37.0297"/>
</a>
</g>
<!-- http://cds.omdoc.org/urtheories?LF&#45;&gt;http://latin.omdoc.org/type_theories?SimpTypes -->
<g id="edge21" class="edge"><title>http://cds.omdoc.org/urtheories?LF&#45;&gt;http://latin.omdoc.org/type_theories?SimpTypes</title>
<a class="graphmeta">
<path fill="none" stroke="black" d="M141.45,-309.966C145.035,-285.045 151.748,-238.374 156.039,-208.537"/>
<polygon fill="black" stroke="black" points="159.541,-208.774 157.5,-198.378 152.612,-207.778 159.541,-208.774"/>
</a>
</g>
<!-- http://cds.omdoc.org/urtheories?LF&#45;&gt;http://latin.omdoc.org/type_theories?TypesTerms -->
<g id="edge17" class="edge"><title>http://cds.omdoc.org/urtheories?LF&#45;&gt;http://latin.omdoc.org/type_theories?TypesTerms</title>
<a class="graphmeta">
<path fill="none" stroke="black" d="M154.988,-313.457C166.887,-303.378 183.403,-289.388 197.295,-277.621"/>
<polygon fill="black" stroke="black" points="199.748,-280.13 205.116,-270.996 195.223,-274.789 199.748,-280.13"/>
</a>
</g>
<!-- http://cds.omdoc.org/urtheories?LF&#45;&gt;http://latin.omdoc.org/type_theories?Product -->
<g id="edge19" class="edge"><title>http://cds.omdoc.org/urtheories?LF&#45;&gt;http://latin.omdoc.org/type_theories?Product</title>
<a class="graphmeta">
<path fill="none" stroke="black" d="M165.771,-324.982C199.884,-320.919 258.221,-308.699 290,-272 305.065,-254.602 309.242,-228.353 309.987,-208.51"/>
<polygon fill="black" stroke="black" points="313.489,-208.278 310.095,-198.242 306.49,-208.205 313.489,-208.278"/>
</a>
</g>
</g>
</svg>
