<?xml version="1.0" encoding="UTF-8" standalone="no"?>
<!DOCTYPE svg PUBLIC "-//W3C//DTD SVG 1.1//EN"
 "http://www.w3.org/Graphics/SVG/1.1/DTD/svg11.dtd">
<!-- Generated by graphviz version 2.28.0 (20110507.0327)
 -->
<!-- Title: MMT Pages: 1 -->
<svg
 viewBox="0.00 0.00 226.00 294.00" xmlns="http://www.w3.org/2000/svg" xmlns:xlink="http://www.w3.org/1999/xlink">
<g id="graph1" class="graph" transform="scale(1 1) rotate(0) translate(4 290)">
<title>MMT</title>
<polygon fill="white" stroke="white" points="-4,5 -4,-290 223,-290 223,5 -4,5"/>
<g id="graph2" class="cluster"><title>cluster_local</title>
<polygon fill="none" stroke="black" points="88,-80 88,-132 182,-132 182,-80 88,-80"/>
</g>
<!-- http://latin.omdoc.org/category_theory/lf_based?CatTop -->
<g id="node2" class="node"><title>http://latin.omdoc.org/category_theory/lf_based?CatTop</title>
<a xlink:href="http://latin.omdoc.org/category_theory/lf_based?CatTop" class="graphtheory">
<ellipse fill="none" stroke="black" cx="135" cy="-106" rx="38.4949" ry="18"/>
<text text-anchor="middle" x="135" y="-102.3" font-family="Times New Roman,serif" font-size="14.00">CatTop</text>
</a>
</g>
<!-- http://latin.omdoc.org/category_theory/lf_based?ProdTop -->
<g id="node3" class="node"><title>http://latin.omdoc.org/category_theory/lf_based?ProdTop</title>
<a xlink:href="http://latin.omdoc.org/category_theory/lf_based?ProdTop" class="graphtheory">
<ellipse fill="gray" stroke="black" cx="44" cy="-18" rx="44.2946" ry="18"/>
<text text-anchor="middle" x="44" y="-14.3" font-family="Times New Roman,serif" font-size="14.00">ProdTop</text>
</a>
</g>
<!-- http://latin.omdoc.org/category_theory/lf_based?CatTop&#45;&gt;http://latin.omdoc.org/category_theory/lf_based?ProdTop -->
<g id="edge3" class="edge"><title>http://latin.omdoc.org/category_theory/lf_based?CatTop&#45;&gt;http://latin.omdoc.org/category_theory/lf_based?ProdTop</title>
<a xlink:href="http://latin.omdoc.org/category_theory/lf_based?ProdTop?cat_top" class="graphstructure">
<path fill="none" stroke="black" d="M118.731,-89.6249C104.672,-76.3386 84.1568,-56.9504 68.1763,-41.8479"/>
<polygon fill="black" stroke="black" points="70.4158,-39.1486 60.7438,-34.8238 65.6077,-44.2362 70.4158,-39.1486"/>
</a>
<a xlink:href="http://latin.omdoc.org/category_theory/lf_based?ProdTop?cat_top" class="cat_top">
<text text-anchor="middle" x="119.5" y="-58.3" font-family="Times New Roman,serif" font-size="14.00">cat_top</text>
</a>
</g>
<!-- http://latin.omdoc.org/category_theory/lf_based?CoprodTop -->
<g id="node5" class="node"><title>http://latin.omdoc.org/category_theory/lf_based?CoprodTop</title>
<a xlink:href="http://latin.omdoc.org/category_theory/lf_based?CoprodTop" class="graphtheory">
<ellipse fill="gray" stroke="black" cx="163" cy="-18" rx="55.3682" ry="18"/>
<text text-anchor="middle" x="163" y="-14.3" font-family="Times New Roman,serif" font-size="14.00">CoprodTop</text>
</a>
</g>
<!-- http://latin.omdoc.org/category_theory/lf_based?CatTop&#45;&gt;http://latin.omdoc.org/category_theory/lf_based?CoprodTop -->
<g id="edge5" class="edge"><title>http://latin.omdoc.org/category_theory/lf_based?CatTop&#45;&gt;http://latin.omdoc.org/category_theory/lf_based?CoprodTop</title>
<a xlink:href="http://latin.omdoc.org/category_theory/lf_based?CoprodTop?cat_top" class="graphstructure">
<path fill="none" stroke="black" d="M140.532,-88.0092C144.482,-75.8769 149.873,-59.3199 154.384,-45.4648"/>
<polygon fill="black" stroke="black" points="157.712,-46.5478 157.48,-35.9555 151.056,-44.3807 157.712,-46.5478"/>
</a>
<a xlink:href="http://latin.omdoc.org/category_theory/lf_based?CoprodTop?cat_top" class="cat_top">
<text text-anchor="middle" x="173.5" y="-58.3" font-family="Times New Roman,serif" font-size="14.00">cat_top</text>
</a>
</g>
<!-- http://latin.omdoc.org/category_theory/lf_based?Category -->
<g id="node7" class="node"><title>http://latin.omdoc.org/category_theory/lf_based?Category</title>
<a xlink:href="http://latin.omdoc.org/category_theory/lf_based?Category" class="graphtheory">
<ellipse fill="gray" stroke="black" cx="113" cy="-194" rx="44.2946" ry="18"/>
<text text-anchor="middle" x="113" y="-190.3" font-family="Times New Roman,serif" font-size="14.00">Category</text>
</a>
</g>
<!-- http://latin.omdoc.org/category_theory/lf_based?Category&#45;&gt;http://latin.omdoc.org/category_theory/lf_based?CatTop -->
<g id="edge7" class="edge"><title>http://latin.omdoc.org/category_theory/lf_based?Category&#45;&gt;http://latin.omdoc.org/category_theory/lf_based?CatTop</title>
<a xlink:href="http://latin.omdoc.org/category_theory/lf_based?CatTop?cat" class="graphstructure">
<path fill="none" stroke="black" d="M117.346,-176.009C120.42,-163.995 124.603,-147.641 128.127,-133.869"/>
<polygon fill="black" stroke="black" points="131.575,-134.511 130.663,-123.956 124.793,-132.776 131.575,-134.511"/>
</a>
<a xlink:href="http://latin.omdoc.org/category_theory/lf_based?CatTop?cat" class="cat">
<text text-anchor="middle" x="134.5" y="-146.3" font-family="Times New Roman,serif" font-size="14.00">cat</text>
</a>
</g>
<!-- http://cds.omdoc.org/urtheories?LF -->
<g id="node9" class="node"><title>http://cds.omdoc.org/urtheories?LF</title>
<a xlink:href="http://cds.omdoc.org/urtheories?LF" class="graphtheory">
<ellipse fill="gray" stroke="black" cx="160" cy="-268" rx="27" ry="18"/>
<text text-anchor="middle" x="160" y="-264.3" font-family="Times New Roman,serif" font-size="14.00">LF</text>
</a>
</g>
<!-- http://cds.omdoc.org/urtheories?LF&#45;&gt;http://latin.omdoc.org/category_theory/lf_based?CatTop -->
<g id="edge9" class="edge"><title>http://cds.omdoc.org/urtheories?LF&#45;&gt;http://latin.omdoc.org/category_theory/lf_based?CatTop</title>
<a class="graphmeta">
<path fill="none" stroke="black" d="M163.876,-250.026C167.449,-231.595 171.441,-201.389 166,-176 162.776,-160.958 156.012,-145.235 149.622,-132.603"/>
<polygon fill="black" stroke="black" points="152.638,-130.818 144.874,-123.609 146.447,-134.086 152.638,-130.818"/>
</a>
</g>
<!-- http://cds.omdoc.org/urtheories?LF&#45;&gt;http://latin.omdoc.org/category_theory/lf_based?ProdTop -->
<g id="edge15" class="edge"><title>http://cds.omdoc.org/urtheories?LF&#45;&gt;http://latin.omdoc.org/category_theory/lf_based?ProdTop</title>
<a class="graphmeta">
<path fill="none" stroke="black" d="M135.192,-260.679C111.566,-253.247 77.1417,-238.432 60,-212 26.9873,-161.095 32.5659,-86.0569 38.7331,-46.2026"/>
<polygon fill="black" stroke="black" points="42.2128,-46.6148 40.415,-36.1736 35.3092,-45.457 42.2128,-46.6148"/>
</a>
</g>
<!-- http://cds.omdoc.org/urtheories?LF&#45;&gt;http://latin.omdoc.org/category_theory/lf_based?CoprodTop -->
<g id="edge13" class="edge"><title>http://cds.omdoc.org/urtheories?LF&#45;&gt;http://latin.omdoc.org/category_theory/lf_based?CoprodTop</title>
<a class="graphmeta">
<path fill="none" stroke="black" d="M171.366,-251.329C175.034,-245.523 178.734,-238.714 181,-232 204.169,-163.362 194.994,-142.332 199,-70 199.393,-62.8998 201.767,-60.5505 199,-54 197.196,-49.7292 194.587,-45.7222 191.586,-42.0538"/>
<polygon fill="black" stroke="black" points="193.958,-39.4671 184.551,-34.5929 188.865,-44.2696 193.958,-39.4671"/>
</a>
</g>
<!-- http://cds.omdoc.org/urtheories?LF&#45;&gt;http://latin.omdoc.org/category_theory/lf_based?Category -->
<g id="edge11" class="edge"><title>http://cds.omdoc.org/urtheories?LF&#45;&gt;http://latin.omdoc.org/category_theory/lf_based?Category</title>
<a class="graphmeta">
<path fill="none" stroke="black" d="M149.569,-251.021C143.671,-241.985 136.161,-230.481 129.484,-220.252"/>
<polygon fill="black" stroke="black" points="132.289,-218.146 123.892,-211.685 126.427,-221.972 132.289,-218.146"/>
</a>
</g>
</g>
</svg>
