<?xml version="1.0" encoding="UTF-8" standalone="no"?>
<!DOCTYPE svg PUBLIC "-//W3C//DTD SVG 1.1//EN"
 "http://www.w3.org/Graphics/SVG/1.1/DTD/svg11.dtd">
<!-- Generated by graphviz version 2.28.0 (20110507.0327)
 -->
<!-- Title: MMT Pages: 1 -->
<svg
 viewBox="0.00 0.00 169.00 294.00" xmlns="http://www.w3.org/2000/svg" xmlns:xlink="http://www.w3.org/1999/xlink">
<g id="graph1" class="graph" transform="scale(1 1) rotate(0) translate(4 290)">
<title>MMT</title>
<polygon fill="white" stroke="white" points="-4,5 -4,-290 166,-290 166,5 -4,5"/>
<g id="graph2" class="cluster"><title>cluster_local</title>
<polygon fill="none" stroke="black" points="8,-80 8,-132 130,-132 130,-80 8,-80"/>
</g>
<!-- http://latin.omdoc.org/category_theory/lf_based?Exponential -->
<g id="node2" class="node"><title>http://latin.omdoc.org/category_theory/lf_based?Exponential</title>
<a xlink:href="http://latin.omdoc.org/category_theory/lf_based?Exponential" class="graphtheory">
<ellipse fill="none" stroke="black" cx="69" cy="-106" rx="52.9443" ry="18"/>
<text text-anchor="middle" x="69" y="-102.3" font-family="Times New Roman,serif" font-size="14.00">Exponential</text>
</a>
</g>
<!-- http://latin.omdoc.org/category_theory/lf_based?ExpTop -->
<g id="node3" class="node"><title>http://latin.omdoc.org/category_theory/lf_based?ExpTop</title>
<a xlink:href="http://latin.omdoc.org/category_theory/lf_based?ExpTop" class="graphtheory">
<ellipse fill="gray" stroke="black" cx="121" cy="-18" rx="40.4202" ry="18"/>
<text text-anchor="middle" x="121" y="-14.3" font-family="Times New Roman,serif" font-size="14.00">ExpTop</text>
</a>
</g>
<!-- http://latin.omdoc.org/category_theory/lf_based?Exponential&#45;&gt;http://latin.omdoc.org/category_theory/lf_based?ExpTop -->
<g id="edge3" class="edge"><title>http://latin.omdoc.org/category_theory/lf_based?Exponential&#45;&gt;http://latin.omdoc.org/category_theory/lf_based?ExpTop</title>
<a xlink:href="http://latin.omdoc.org/category_theory/lf_based?ExpTop?exp" class="graphstructure">
<path fill="none" stroke="black" d="M79.2735,-88.0092C86.8003,-75.561 97.1437,-58.4547 105.649,-44.3882"/>
<polygon fill="black" stroke="black" points="108.746,-46.0312 110.925,-35.6629 102.755,-42.4093 108.746,-46.0312"/>
</a>
<a xlink:href="http://latin.omdoc.org/category_theory/lf_based?ExpTop?exp" class="exp">
<text text-anchor="middle" x="110.5" y="-58.3" font-family="Times New Roman,serif" font-size="14.00">exp</text>
</a>
</g>
<!-- http://latin.omdoc.org/category_theory/lf_based?Product -->
<g id="node5" class="node"><title>http://latin.omdoc.org/category_theory/lf_based?Product</title>
<a xlink:href="http://latin.omdoc.org/category_theory/lf_based?Product" class="graphtheory">
<ellipse fill="gray" stroke="black" cx="82" cy="-194" rx="39.9464" ry="18"/>
<text text-anchor="middle" x="82" y="-190.3" font-family="Times New Roman,serif" font-size="14.00">Product</text>
</a>
</g>
<!-- http://latin.omdoc.org/category_theory/lf_based?Product&#45;&gt;http://latin.omdoc.org/category_theory/lf_based?Exponential -->
<g id="edge5" class="edge"><title>http://latin.omdoc.org/category_theory/lf_based?Product&#45;&gt;http://latin.omdoc.org/category_theory/lf_based?Exponential</title>
<a xlink:href="http://latin.omdoc.org/category_theory/lf_based?Exponential?prod" class="graphstructure">
<path fill="none" stroke="black" d="M79.4316,-176.009C77.6273,-164.073 75.1755,-147.853 73.1022,-134.138"/>
<polygon fill="black" stroke="black" points="76.563,-133.614 71.6075,-124.25 69.6416,-134.661 76.563,-133.614"/>
</a>
<a xlink:href="http://latin.omdoc.org/category_theory/lf_based?Exponential?prod" class="prod">
<text text-anchor="middle" x="91" y="-146.3" font-family="Times New Roman,serif" font-size="14.00">prod</text>
</a>
</g>
<!-- http://cds.omdoc.org/urtheories?LF -->
<g id="node7" class="node"><title>http://cds.omdoc.org/urtheories?LF</title>
<a xlink:href="http://cds.omdoc.org/urtheories?LF" class="graphtheory">
<ellipse fill="gray" stroke="black" cx="82" cy="-268" rx="27" ry="18"/>
<text text-anchor="middle" x="82" y="-264.3" font-family="Times New Roman,serif" font-size="14.00">LF</text>
</a>
</g>
<!-- http://cds.omdoc.org/urtheories?LF&#45;&gt;http://latin.omdoc.org/category_theory/lf_based?Exponential -->
<g id="edge7" class="edge"><title>http://cds.omdoc.org/urtheories?LF&#45;&gt;http://latin.omdoc.org/category_theory/lf_based?Exponential</title>
<a class="graphmeta">
<path fill="none" stroke="black" d="M64.8602,-253.662C53.4293,-243.612 39.3721,-228.731 33,-212 22.6778,-184.896 36.9344,-153.371 50.438,-131.99"/>
<polygon fill="black" stroke="black" points="53.4697,-133.753 56.1053,-123.491 47.6456,-129.869 53.4697,-133.753"/>
</a>
</g>
<!-- http://cds.omdoc.org/urtheories?LF&#45;&gt;http://latin.omdoc.org/category_theory/lf_based?ExpTop -->
<g id="edge9" class="edge"><title>http://cds.omdoc.org/urtheories?LF&#45;&gt;http://latin.omdoc.org/category_theory/lf_based?ExpTop</title>
<a class="graphmeta">
<path fill="none" stroke="black" d="M98.9473,-253.587C110.288,-243.501 124.315,-228.609 131,-212 153.385,-156.379 139.646,-84.3674 129.308,-45.9503"/>
<polygon fill="black" stroke="black" points="132.598,-44.7217 126.515,-36.0471 125.861,-46.6218 132.598,-44.7217"/>
</a>
</g>
<!-- http://cds.omdoc.org/urtheories?LF&#45;&gt;http://latin.omdoc.org/category_theory/lf_based?Product -->
<g id="edge11" class="edge"><title>http://cds.omdoc.org/urtheories?LF&#45;&gt;http://latin.omdoc.org/category_theory/lf_based?Product</title>
<a class="graphmeta">
<path fill="none" stroke="black" d="M82,-249.937C82,-241.807 82,-231.876 82,-222.705"/>
<polygon fill="black" stroke="black" points="85.5001,-222.441 82,-212.441 78.5001,-222.441 85.5001,-222.441"/>
</a>
</g>
</g>
</svg>
