<?xml version="1.0" encoding="UTF-8" standalone="no"?>
<!DOCTYPE svg PUBLIC "-//W3C//DTD SVG 1.1//EN"
 "http://www.w3.org/Graphics/SVG/1.1/DTD/svg11.dtd">
<!-- Generated by graphviz version 2.28.0 (20110507.0327)
 -->
<!-- Title: MMT Pages: 1 -->
<svg width="357pt" height="294pt"
 viewBox="0.00 0.00 357.15 294.00" xmlns="http://www.w3.org/2000/svg" xmlns:xlink="http://www.w3.org/1999/xlink">
<g id="graph1" class="graph" transform="scale(1 1) rotate(0) translate(4 290)">
<title>MMT</title>
<polygon fill="white" stroke="white" points="-4,5 -4,-290 354.146,-290 354.146,5 -4,5"/>
<g id="graph2" class="cluster"><title>cluster_local</title>
<polygon fill="none" stroke="black" points="60,-80 60,-132 156,-132 156,-80 60,-80"/>
</g>
<!-- http://latin.omdoc.org/category_theory/lf_based?Product -->
<g id="node2" class="node"><title>http://latin.omdoc.org/category_theory/lf_based?Product</title>
<a xlink:href="http://latin.omdoc.org/category_theory/lf_based?Product" class="graphtheory">
<ellipse fill="none" stroke="black" cx="108" cy="-106" rx="39.9464" ry="18"/>
<text text-anchor="middle" x="108" y="-102.3" font-family="Times New Roman,serif" font-size="14.00">Product</text>
</a>
</g>
<!-- http://latin.omdoc.org/category_theory/lf_based?Exponential -->
<g id="node3" class="node"><title>http://latin.omdoc.org/category_theory/lf_based?Exponential</title>
<a xlink:href="http://latin.omdoc.org/category_theory/lf_based?Exponential" class="graphtheory">
<ellipse fill="gray" stroke="black" cx="53" cy="-18" rx="52.9443" ry="18"/>
<text text-anchor="middle" x="53" y="-14.3" font-family="Times New Roman,serif" font-size="14.00">Exponential</text>
</a>
</g>
<!-- http://latin.omdoc.org/category_theory/lf_based?Product&#45;&gt;http://latin.omdoc.org/category_theory/lf_based?Exponential -->
<g id="edge3" class="edge"><title>http://latin.omdoc.org/category_theory/lf_based?Product&#45;&gt;http://latin.omdoc.org/category_theory/lf_based?Exponential</title>
<a xlink:href="http://latin.omdoc.org/category_theory/lf_based?Exponential?prod" class="graphstructure">
<path fill="none" stroke="black" d="M97.3954,-88.4183C89.4574,-76.0062 78.4529,-58.7992 69.3862,-44.6221"/>
<polygon fill="black" stroke="black" points="72.096,-42.363 63.7597,-35.8242 66.1989,-46.1344 72.096,-42.363"/>
</a>
<a xlink:href="http://latin.omdoc.org/category_theory/lf_based?Exponential?prod" class="prod">
<text text-anchor="middle" x="100" y="-58.3" font-family="Times New Roman,serif" font-size="14.00">prod</text>
</a>
</g>
<!-- http://latin.omdoc.org/category_theory/lf_based?ProdTop -->
<g id="node7" class="node"><title>http://latin.omdoc.org/category_theory/lf_based?ProdTop</title>
<a xlink:href="http://latin.omdoc.org/category_theory/lf_based?ProdTop" class="graphtheory">
<ellipse fill="gray" stroke="black" cx="175" cy="-18" rx="44.2946" ry="18"/>
<text text-anchor="middle" x="175" y="-14.3" font-family="Times New Roman,serif" font-size="14.00">ProdTop</text>
</a>
</g>
<!-- http://latin.omdoc.org/category_theory/lf_based?Product&#45;&gt;http://latin.omdoc.org/category_theory/lf_based?ProdTop -->
<g id="edge7" class="edge"><title>http://latin.omdoc.org/category_theory/lf_based?Product&#45;&gt;http://latin.omdoc.org/category_theory/lf_based?ProdTop</title>
<a xlink:href="http://latin.omdoc.org/category_theory/lf_based?ProdTop?prod" class="graphstructure">
<path fill="none" stroke="black" d="M120.602,-88.8241C130.552,-76.0525 144.597,-58.0245 155.923,-43.4863"/>
<polygon fill="black" stroke="black" points="158.842,-45.4354 162.227,-35.3958 153.32,-41.1334 158.842,-45.4354"/>
</a>
<a xlink:href="http://latin.omdoc.org/category_theory/lf_based?ProdTop?prod" class="prod">
<text text-anchor="middle" x="162" y="-58.3" font-family="Times New Roman,serif" font-size="14.00">prod</text>
</a>
</g>
<!-- http://latin.omdoc.org/category_theory/lf_based?Coproduct -->
<g id="node9" class="node"><title>http://latin.omdoc.org/category_theory/lf_based?Coproduct</title>
<a xlink:href="http://latin.omdoc.org/category_theory/lf_based?Coproduct" class="graphtheory">
<ellipse fill="gray" stroke="black" cx="279" cy="-106" rx="50.5427" ry="18"/>
<text text-anchor="middle" x="279" y="-102.3" font-family="Times New Roman,serif" font-size="14.00">Coproduct</text>
</a>
</g>
<!-- http://latin.omdoc.org/category_theory/lf_based?Product&#45;&gt;http://latin.omdoc.org/category_theory/lf_based?Coproduct -->
<g id="edge11" class="edge"><title>http://latin.omdoc.org/category_theory/lf_based?Product&#45;&gt;http://latin.omdoc.org/category_theory/lf_based?Coproduct</title>
<a xlink:href="http://latin.omdoc.org/category_theory/lf_based?CoprodOp" class="graphview">
<path fill="none" stroke="black" d="M148.525,-106C169.344,-106 195.138,-106 218.281,-106"/>
<polygon fill="black" stroke="black" points="218.356,-109.5 228.356,-106 218.356,-102.5 218.356,-109.5"/>
</a>
<a xlink:href="http://latin.omdoc.org/category_theory/lf_based?CoprodOp" class="CoprodOp">
<text text-anchor="middle" x="188.152" y="-112.8" font-family="Times New Roman,serif" font-size="14.00">CoprodOp</text>
</a>
</g>
<!-- http://latin.omdoc.org/category_theory/lf_based?Category -->
<g id="node5" class="node"><title>http://latin.omdoc.org/category_theory/lf_based?Category</title>
<a xlink:href="http://latin.omdoc.org/category_theory/lf_based?Category" class="graphtheory">
<ellipse fill="gray" stroke="black" cx="185" cy="-194" rx="44.2946" ry="18"/>
<text text-anchor="middle" x="185" y="-190.3" font-family="Times New Roman,serif" font-size="14.00">Category</text>
</a>
</g>
<!-- http://latin.omdoc.org/category_theory/lf_based?Category&#45;&gt;http://latin.omdoc.org/category_theory/lf_based?Product -->
<g id="edge5" class="edge"><title>http://latin.omdoc.org/category_theory/lf_based?Category&#45;&gt;http://latin.omdoc.org/category_theory/lf_based?Product</title>
<a xlink:href="http://latin.omdoc.org/category_theory/lf_based?Product?cat" class="graphstructure">
<path fill="none" stroke="black" d="M170.517,-176.824C158.902,-163.851 142.43,-145.454 129.31,-130.801"/>
<polygon fill="black" stroke="black" points="131.696,-128.219 122.418,-123.103 126.481,-132.888 131.696,-128.219"/>
</a>
<a xlink:href="http://latin.omdoc.org/category_theory/lf_based?Product?cat" class="cat">
<text text-anchor="middle" x="162.5" y="-146.3" font-family="Times New Roman,serif" font-size="14.00">cat</text>
</a>
</g>
<!-- http://latin.omdoc.org/category_theory/lf_based?Category&#45;&gt;http://latin.omdoc.org/category_theory/lf_based?Coproduct -->
<g id="edge23" class="edge"><title>http://latin.omdoc.org/category_theory/lf_based?Category&#45;&gt;http://latin.omdoc.org/category_theory/lf_based?Coproduct</title>
<a xlink:href="http://latin.omdoc.org/category_theory/lf_based?Coproduct?cat" class="graphstructure">
<path fill="none" stroke="black" d="M199.835,-176.872C209.538,-166.577 222.659,-153.125 235,-142 239.853,-137.625 245.176,-133.145 250.392,-128.914"/>
<polygon fill="black" stroke="black" points="252.776,-131.49 258.417,-122.522 248.415,-126.015 252.776,-131.49"/>
</a>
<a xlink:href="http://latin.omdoc.org/category_theory/lf_based?Coproduct?cat" class="cat">
<text text-anchor="middle" x="243.5" y="-146.3" font-family="Times New Roman,serif" font-size="14.00">cat</text>
</a>
</g>
<!-- http://latin.omdoc.org/category_theory/lf_based?Coproduct&#45;&gt;http://latin.omdoc.org/category_theory/lf_based?Product -->
<g id="edge9" class="edge"><title>http://latin.omdoc.org/category_theory/lf_based?Coproduct&#45;&gt;http://latin.omdoc.org/category_theory/lf_based?Product</title>
<a xlink:href="http://latin.omdoc.org/category_theory/lf_based?ProdOp" class="graphview">
<path fill="none" stroke="black" d="M228.356,-106C206.364,-106 180.66,-106 158.666,-106"/>
<polygon fill="black" stroke="black" points="158.525,-102.5 148.525,-106 158.525,-109.5 158.525,-102.5"/>
</a>
<a xlink:href="http://latin.omdoc.org/category_theory/lf_based?ProdOp" class="ProdOp">
<text text-anchor="middle" x="188.152" y="-112.8" font-family="Times New Roman,serif" font-size="14.00">ProdOp</text>
</a>
</g>
<!-- http://cds.omdoc.org/urtheories?LF -->
<g id="node12" class="node"><title>http://cds.omdoc.org/urtheories?LF</title>
<a xlink:href="http://cds.omdoc.org/urtheories?LF" class="graphtheory">
<ellipse fill="gray" stroke="black" cx="185" cy="-268" rx="27" ry="18"/>
<text text-anchor="middle" x="185" y="-264.3" font-family="Times New Roman,serif" font-size="14.00">LF</text>
</a>
</g>
<!-- http://cds.omdoc.org/urtheories?LF&#45;&gt;http://latin.omdoc.org/category_theory/lf_based?Product -->
<g id="edge13" class="edge"><title>http://cds.omdoc.org/urtheories?LF&#45;&gt;http://latin.omdoc.org/category_theory/lf_based?Product</title>
<a class="graphmeta">
<path fill="none" stroke="black" d="M168.16,-253.847C156.285,-243.673 140.958,-228.563 132,-212 118.851,-187.688 112.885,-156.446 110.191,-134.382"/>
<polygon fill="black" stroke="black" points="113.662,-133.927 109.114,-124.358 106.702,-134.675 113.662,-133.927"/>
</a>
</g>
<!-- http://cds.omdoc.org/urtheories?LF&#45;&gt;http://latin.omdoc.org/category_theory/lf_based?Exponential -->
<g id="edge15" class="edge"><title>http://cds.omdoc.org/urtheories?LF&#45;&gt;http://latin.omdoc.org/category_theory/lf_based?Exponential</title>
<a class="graphmeta">
<path fill="none" stroke="black" d="M165.735,-255.03C134.815,-234.45 75.5955,-189.023 56,-132 46.3647,-103.961 47.0569,-69.6625 49.2429,-46.257"/>
<polygon fill="black" stroke="black" points="52.7539,-46.3451 50.3588,-36.0246 45.7952,-45.5862 52.7539,-46.3451"/>
</a>
</g>
<!-- http://cds.omdoc.org/urtheories?LF&#45;&gt;http://latin.omdoc.org/category_theory/lf_based?Category -->
<g id="edge17" class="edge"><title>http://cds.omdoc.org/urtheories?LF&#45;&gt;http://latin.omdoc.org/category_theory/lf_based?Category</title>
<a class="graphmeta">
<path fill="none" stroke="black" d="M185,-249.937C185,-241.807 185,-231.876 185,-222.705"/>
<polygon fill="black" stroke="black" points="188.5,-222.441 185,-212.441 181.5,-222.441 188.5,-222.441"/>
</a>
</g>
<!-- http://cds.omdoc.org/urtheories?LF&#45;&gt;http://latin.omdoc.org/category_theory/lf_based?ProdTop -->
<g id="edge21" class="edge"><title>http://cds.omdoc.org/urtheories?LF&#45;&gt;http://latin.omdoc.org/category_theory/lf_based?ProdTop</title>
<a class="graphmeta">
<path fill="none" stroke="black" d="M205.865,-256.512C258.165,-228.824 387.243,-151.007 338,-80 313.526,-44.7089 265.981,-29.8021 228.528,-23.5231"/>
<polygon fill="black" stroke="black" points="228.671,-20.005 218.26,-21.9711 227.624,-26.9264 228.671,-20.005"/>
</a>
</g>
<!-- http://cds.omdoc.org/urtheories?LF&#45;&gt;http://latin.omdoc.org/category_theory/lf_based?Coproduct -->
<g id="edge19" class="edge"><title>http://cds.omdoc.org/urtheories?LF&#45;&gt;http://latin.omdoc.org/category_theory/lf_based?Coproduct</title>
<a class="graphmeta">
<path fill="none" stroke="black" d="M201.129,-253.427C212.649,-243.045 227.845,-227.857 238,-212 253.761,-187.387 265.087,-155.756 271.788,-133.672"/>
<polygon fill="black" stroke="black" points="275.179,-134.544 274.623,-123.964 268.46,-132.582 275.179,-134.544"/>
</a>
</g>
</g>
</svg>
