<?xml version="1.0" encoding="UTF-8" standalone="no"?>
<!DOCTYPE svg PUBLIC "-//W3C//DTD SVG 1.1//EN"
 "http://www.w3.org/Graphics/SVG/1.1/DTD/svg11.dtd">
<!-- Generated by graphviz version 2.28.0 (20110507.0327)
 -->
<!-- Title: MMT Pages: 1 -->
<svg
 viewBox="0.00 0.00 290.99 296.00" xmlns="http://www.w3.org/2000/svg" xmlns:xlink="http://www.w3.org/1999/xlink">
<g id="graph1" class="graph" transform="scale(1 1) rotate(0) translate(4 292)">
<title>MMT</title>
<polygon fill="white" stroke="white" points="-4,5 -4,-292 287.988,-292 287.988,5 -4,5"/>
<g id="graph2" class="cluster"><title>cluster_local</title>
<polygon fill="none" stroke="black" points="21.988,-8 21.988,-60 125.988,-60 125.988,-8 21.988,-8"/>
</g>
<!-- http://latin.omdoc.org/logics/model_theory?CLMOD -->
<g id="node2" class="node"><title>http://latin.omdoc.org/logics/model_theory?CLMOD</title>
<a xlink:href="http://latin.omdoc.org/logics/model_theory?CLMOD" class="graphtheory">
<ellipse fill="none" stroke="black" cx="73.988" cy="-34" rx="43.319" ry="18"/>
<text text-anchor="middle" x="73.988" y="-30.3" font-family="Times New Roman,serif" font-size="14.00">CLMOD</text>
</a>
</g>
<!-- http://latin.omdoc.org/foundations/minimal?List -->
<g id="node3" class="node"><title>http://latin.omdoc.org/foundations/minimal?List</title>
<a xlink:href="http://latin.omdoc.org/foundations/minimal?List" class="graphtheory">
<ellipse fill="gray" stroke="black" cx="42.988" cy="-122" rx="27" ry="18"/>
<text text-anchor="middle" x="42.988" y="-118.3" font-family="Times New Roman,serif" font-size="14.00">List</text>
</a>
</g>
<!-- http://latin.omdoc.org/foundations/minimal?List&#45;&gt;http://latin.omdoc.org/logics/model_theory?CLMOD -->
<g id="edge3" class="edge"><title>http://latin.omdoc.org/foundations/minimal?List&#45;&gt;http://latin.omdoc.org/logics/model_theory?CLMOD</title>
<a xlink:href="http://latin.omdoc.org/logics/model_theory?CLMOD?udlist" class="graphstructure">
<path fill="none" stroke="black" d="M44.8798,-103.585C46.3437,-93.53 48.8437,-80.78 52.988,-70 54.2466,-66.7259 55.8037,-63.4094 57.4967,-60.1893"/>
<polygon fill="black" stroke="black" points="60.5504,-61.8999 62.4931,-51.4847 54.4794,-58.4152 60.5504,-61.8999"/>
</a>
<a xlink:href="http://latin.omdoc.org/logics/model_theory?CLMOD?udlist" class="udlist">
<text text-anchor="middle" x="68.488" y="-74.3" font-family="Times New Roman,serif" font-size="14.00">udlist</text>
</a>
</g>
<!-- http://latin.omdoc.org/foundations/minimal?Universes -->
<g id="node5" class="node"><title>http://latin.omdoc.org/foundations/minimal?Universes</title>
<a xlink:href="http://latin.omdoc.org/foundations/minimal?Universes" class="graphtheory">
<ellipse fill="gray" stroke="black" cx="97.988" cy="-196" rx="46.2191" ry="18"/>
<text text-anchor="middle" x="97.988" y="-192.3" font-family="Times New Roman,serif" font-size="14.00">Universes</text>
</a>
</g>
<!-- http://latin.omdoc.org/foundations/minimal?Universes&#45;&gt;http://latin.omdoc.org/logics/model_theory?CLMOD -->
<g id="edge5" class="edge"><title>http://latin.omdoc.org/foundations/minimal?Universes&#45;&gt;http://latin.omdoc.org/logics/model_theory?CLMOD</title>
<a class="graphinclude">
<path fill="none" stroke="black" d="M96.9776,-177.879C95.3441,-153.67 91.5165,-108.134 83.988,-70 83.4555,-67.3031 82.8153,-64.5121 82.1193,-61.7369"/>
<polygon fill="black" stroke="black" points="85.4577,-60.6756 79.4469,-51.9509 78.705,-62.5198 85.4577,-60.6756"/>
</a>
</g>
<!-- http://latin.omdoc.org/foundations/minimal?Universes&#45;&gt;http://latin.omdoc.org/foundations/minimal?List -->
<g id="edge17" class="edge"><title>http://latin.omdoc.org/foundations/minimal?Universes&#45;&gt;http://latin.omdoc.org/foundations/minimal?List</title>
<a class="graphinclude">
<path fill="none" stroke="black" d="M85.5076,-178.662C78.2051,-169.102 68.8644,-156.875 60.7986,-146.316"/>
<polygon fill="black" stroke="black" points="63.5186,-144.111 54.6668,-138.289 57.9558,-148.36 63.5186,-144.111"/>
</a>
</g>
<!-- http://latin.omdoc.org/foundations/minimal?STTIFOLEQ -->
<g id="node7" class="node"><title>http://latin.omdoc.org/foundations/minimal?STTIFOLEQ</title>
<a xlink:href="http://latin.omdoc.org/foundations/minimal?STTIFOLEQ" class="graphtheory">
<ellipse fill="gray" stroke="black" cx="222.988" cy="-196" rx="60.1672" ry="18"/>
<text text-anchor="middle" x="222.988" y="-192.3" font-family="Times New Roman,serif" font-size="14.00">STTIFOLEQ</text>
</a>
</g>
<!-- http://latin.omdoc.org/foundations/minimal?STTIFOLEQ&#45;&gt;http://latin.omdoc.org/logics/model_theory?CLMOD -->
<g id="edge7" class="edge"><title>http://latin.omdoc.org/foundations/minimal?STTIFOLEQ&#45;&gt;http://latin.omdoc.org/logics/model_theory?CLMOD</title>
<a class="graphinclude">
<path fill="none" stroke="black" d="M207.604,-178.48C181.033,-149.948 126.463,-91.3493 95.922,-58.5534"/>
<polygon fill="black" stroke="black" points="98.4432,-56.1249 89.0668,-51.192 93.3205,-60.8955 98.4432,-56.1249"/>
</a>
</g>
<!-- http://cds.omdoc.org/urtheories?LF -->
<g id="node9" class="node"><title>http://cds.omdoc.org/urtheories?LF</title>
<a xlink:href="http://cds.omdoc.org/urtheories?LF" class="graphtheory">
<ellipse fill="gray" stroke="black" cx="47.988" cy="-270" rx="27" ry="18"/>
<text text-anchor="middle" x="47.988" y="-266.3" font-family="Times New Roman,serif" font-size="14.00">LF</text>
</a>
</g>
<!-- http://cds.omdoc.org/urtheories?LF&#45;&gt;http://latin.omdoc.org/logics/model_theory?CLMOD -->
<g id="edge9" class="edge"><title>http://cds.omdoc.org/urtheories?LF&#45;&gt;http://latin.omdoc.org/logics/model_theory?CLMOD</title>
<a class="graphmeta">
<path fill="none" stroke="black" d="M37.5876,-253.066C19.3994,-223.071 -14.3141,-156.517 6.98796,-104 14.6479,-85.1158 30.2323,-68.5547 44.4443,-56.3939"/>
<polygon fill="black" stroke="black" points="47.0446,-58.7897 52.5833,-49.7579 42.6212,-53.3644 47.0446,-58.7897"/>
</a>
</g>
<!-- http://cds.omdoc.org/urtheories?LF&#45;&gt;http://latin.omdoc.org/foundations/minimal?List -->
<g id="edge15" class="edge"><title>http://cds.omdoc.org/urtheories?LF&#45;&gt;http://latin.omdoc.org/foundations/minimal?List</title>
<a class="graphmeta">
<path fill="none" stroke="black" d="M46.0088,-251.688C44.8729,-240.871 43.5615,-226.643 42.988,-214 42.017,-192.596 42.0748,-168.33 42.3439,-150.243"/>
<polygon fill="black" stroke="black" points="45.8455,-150.179 42.5259,-140.118 38.8466,-150.053 45.8455,-150.179"/>
</a>
</g>
<!-- http://cds.omdoc.org/urtheories?LF&#45;&gt;http://latin.omdoc.org/foundations/minimal?Universes -->
<g id="edge11" class="edge"><title>http://cds.omdoc.org/urtheories?LF&#45;&gt;http://latin.omdoc.org/foundations/minimal?Universes</title>
<a class="graphmeta">
<path fill="none" stroke="black" d="M58.8372,-253.377C65.2098,-244.201 73.4115,-232.39 80.6602,-221.952"/>
<polygon fill="black" stroke="black" points="83.6348,-223.805 86.464,-213.595 77.8852,-219.812 83.6348,-223.805"/>
</a>
</g>
<!-- http://cds.omdoc.org/urtheories?LF&#45;&gt;http://latin.omdoc.org/foundations/minimal?STTIFOLEQ -->
<g id="edge13" class="edge"><title>http://cds.omdoc.org/urtheories?LF&#45;&gt;http://latin.omdoc.org/foundations/minimal?STTIFOLEQ</title>
<a class="graphmeta">
<path fill="none" stroke="black" d="M70.5079,-259.735C98.016,-248.417 145.153,-229.023 179.754,-214.788"/>
<polygon fill="black" stroke="black" points="181.238,-217.962 189.154,-210.92 178.574,-211.488 181.238,-217.962"/>
</a>
</g>
</g>
</svg>
