<?xml version="1.0" encoding="UTF-8" standalone="no"?>
<!DOCTYPE svg PUBLIC "-//W3C//DTD SVG 1.1//EN"
 "http://www.w3.org/Graphics/SVG/1.1/DTD/svg11.dtd">
<!-- Generated by graphviz version 2.28.0 (20110507.0327)
 -->
<!-- Title: MMT Pages: 1 -->
<svg width="153pt" height="204pt"
 viewBox="0.00 0.00 153.00 204.00" xmlns="http://www.w3.org/2000/svg" xmlns:xlink="http://www.w3.org/1999/xlink">
<g id="graph1" class="graph" transform="scale(1 1) rotate(0) translate(4 200)">
<title>MMT</title>
<polygon fill="white" stroke="white" points="-4,5 -4,-200 150,-200 150,5 -4,5"/>
<g id="graph2" class="cluster"><title>cluster_local</title>
<polygon fill="none" stroke="black" points="8,-8 8,-60 134,-60 134,-8 8,-8"/>
</g>
<!-- http://latin.omdoc.org/logics/model_theory?CASLMOD -->
<g id="node2" class="node"><title>http://latin.omdoc.org/logics/model_theory?CASLMOD</title>
<a xlink:href="http://latin.omdoc.org/logics/model_theory?CASLMOD" class="graphtheory">
<ellipse fill="none" stroke="black" cx="71" cy="-34" rx="55.3682" ry="18"/>
<text text-anchor="middle" x="71" y="-30.3" font-family="Times New Roman,serif" font-size="14.00">CASLMOD</text>
</a>
</g>
<!-- http://latin.omdoc.org/foundations/zfc?Boolean -->
<g id="node3" class="node"><title>http://latin.omdoc.org/foundations/zfc?Boolean</title>
<a xlink:href="http://latin.omdoc.org/foundations/zfc?Boolean" class="graphtheory">
<ellipse fill="gray" stroke="black" cx="105" cy="-106" rx="39.9464" ry="18"/>
<text text-anchor="middle" x="105" y="-102.3" font-family="Times New Roman,serif" font-size="14.00">Boolean</text>
</a>
</g>
<!-- http://latin.omdoc.org/foundations/zfc?Boolean&#45;&gt;http://latin.omdoc.org/logics/model_theory?CASLMOD -->
<g id="edge3" class="edge"><title>http://latin.omdoc.org/foundations/zfc?Boolean&#45;&gt;http://latin.omdoc.org/logics/model_theory?CASLMOD</title>
<a class="graphinclude">
<path fill="none" stroke="black" d="M96.7695,-88.055C92.9016,-80.0915 88.1995,-70.4107 83.8761,-61.5097"/>
<polygon fill="black" stroke="black" points="86.9082,-59.7412 79.3909,-52.2753 80.6117,-62.7996 86.9082,-59.7412"/>
</a>
</g>
<!-- http://cds.omdoc.org/urtheories?LF -->
<g id="node5" class="node"><title>http://cds.omdoc.org/urtheories?LF</title>
<a xlink:href="http://cds.omdoc.org/urtheories?LF" class="graphtheory">
<ellipse fill="gray" stroke="black" cx="71" cy="-178" rx="27" ry="18"/>
<text text-anchor="middle" x="71" y="-174.3" font-family="Times New Roman,serif" font-size="14.00">LF</text>
</a>
</g>
<!-- http://cds.omdoc.org/urtheories?LF&#45;&gt;http://latin.omdoc.org/logics/model_theory?CASLMOD -->
<g id="edge5" class="edge"><title>http://cds.omdoc.org/urtheories?LF&#45;&gt;http://latin.omdoc.org/logics/model_theory?CASLMOD</title>
<a class="graphmeta">
<path fill="none" stroke="black" d="M64.9177,-160.07C61.5503,-149.789 57.7089,-136.314 56,-124 53.8005,-108.152 53.8005,-103.848 56,-88 57.2149,-79.2458 59.5077,-69.9046 61.9417,-61.5413"/>
<polygon fill="black" stroke="black" points="65.3032,-62.5179 64.9177,-51.9301 58.6164,-60.4474 65.3032,-62.5179"/>
</a>
</g>
<!-- http://cds.omdoc.org/urtheories?LF&#45;&gt;http://latin.omdoc.org/foundations/zfc?Boolean -->
<g id="edge7" class="edge"><title>http://cds.omdoc.org/urtheories?LF&#45;&gt;http://latin.omdoc.org/foundations/zfc?Boolean</title>
<a class="graphmeta">
<path fill="none" stroke="black" d="M78.8857,-160.765C82.9042,-152.491 87.8872,-142.232 92.4198,-132.9"/>
<polygon fill="black" stroke="black" points="95.7001,-134.158 96.9209,-123.633 89.4035,-131.099 95.7001,-134.158"/>
</a>
</g>
</g>
</svg>
