<?xml version="1.0" encoding="UTF-8" standalone="no"?>
<!DOCTYPE svg PUBLIC "-//W3C//DTD SVG 1.1//EN"
 "http://www.w3.org/Graphics/SVG/1.1/DTD/svg11.dtd">
<!-- Generated by graphviz version 2.28.0 (20110507.0327)
 -->
<!-- Title: MMT Pages: 1 -->
<svg
 viewBox="0.00 0.00 444.95 354.00" xmlns="http://www.w3.org/2000/svg" xmlns:xlink="http://www.w3.org/1999/xlink">
<g id="graph1" class="graph" transform="scale(1 1) rotate(0) translate(4 350)">
<title>MMT</title>
<polygon fill="white" stroke="white" points="-4,5 -4,-350 441.953,-350 441.953,5 -4,5"/>
<g id="graph2" class="cluster"><title>cluster_local</title>
<polygon fill="none" stroke="black" points="35.9533,-80 35.9533,-280 167.953,-280 167.953,-80 35.9533,-80"/>
</g>
<!-- http://latin.omdoc.org/logics/syntax?Typing -->
<g id="node2" class="node"><title>http://latin.omdoc.org/logics/syntax?Typing</title>
<a xlink:href="http://latin.omdoc.org/logics/syntax?Typing" class="graphtheory">
<ellipse fill="none" stroke="black" cx="101.953" cy="-106" rx="36.096" ry="18"/>
<text text-anchor="middle" x="101.953" y="-102.3" font-family="Times New Roman,serif" font-size="14.00">Typing</text>
</a>
</g>
<!-- http://latin.omdoc.org/logics/syntax?CASLSorts -->
<g id="node3" class="node"><title>http://latin.omdoc.org/logics/syntax?CASLSorts</title>
<a xlink:href="http://latin.omdoc.org/logics/syntax?CASLSorts" class="graphtheory">
<ellipse fill="none" stroke="black" cx="101.953" cy="-254" rx="53.4184" ry="18"/>
<text text-anchor="middle" x="101.953" y="-250.3" font-family="Times New Roman,serif" font-size="14.00">CASLSorts</text>
</a>
</g>
<!-- http://latin.omdoc.org/logics/syntax?CASLSorted -->
<g id="node4" class="node"><title>http://latin.omdoc.org/logics/syntax?CASLSorted</title>
<a xlink:href="http://latin.omdoc.org/logics/syntax?CASLSorted" class="graphtheory">
<ellipse fill="none" stroke="black" cx="101.953" cy="-180" rx="58.2422" ry="18"/>
<text text-anchor="middle" x="101.953" y="-176.3" font-family="Times New Roman,serif" font-size="14.00">CASLSorted</text>
</a>
</g>
<!-- http://latin.omdoc.org/logics/syntax?CASLSorts&#45;&gt;http://latin.omdoc.org/logics/syntax?CASLSorted -->
<g id="edge15" class="edge"><title>http://latin.omdoc.org/logics/syntax?CASLSorts&#45;&gt;http://latin.omdoc.org/logics/syntax?CASLSorted</title>
<a class="graphinclude">
<path fill="none" stroke="black" d="M101.953,-235.937C101.953,-227.807 101.953,-217.876 101.953,-208.705"/>
<polygon fill="black" stroke="black" points="105.453,-208.441 101.953,-198.441 98.4534,-208.441 105.453,-208.441"/>
</a>
</g>
<!-- http://latin.omdoc.org/logics/syntax?Subsorted&#45;Sorted -->
<g id="node8" class="node"><title>http://latin.omdoc.org/logics/syntax?Subsorted&#45;Sorted</title>
<a xlink:href="http://latin.omdoc.org/logics/syntax?Subsorted-Sorted" class="graphtheory">
<ellipse fill="gray" stroke="black" cx="248.953" cy="-18" rx="75.0904" ry="18"/>
<text text-anchor="middle" x="248.953" y="-14.3" font-family="Times New Roman,serif" font-size="14.00">Subsorted&#45;Sorted</text>
</a>
</g>
<!-- http://latin.omdoc.org/logics/syntax?CASLSorts&#45;&gt;http://latin.omdoc.org/logics/syntax?Subsorted&#45;Sorted -->
<g id="edge7" class="edge"><title>http://latin.omdoc.org/logics/syntax?CASLSorts&#45;&gt;http://latin.omdoc.org/logics/syntax?Subsorted&#45;Sorted</title>
<a class="graphinclude">
<path fill="none" stroke="black" d="M74.2848,-238.34C59.677,-228.949 43.1238,-215.278 34.9533,-198 19.8715,-166.107 54.8647,-82.1859 56.9533,-80 86.0093,-49.5909 130.134,-34.2905 168.759,-26.6145"/>
<polygon fill="black" stroke="black" points="169.767,-29.9878 178.967,-24.734 168.499,-23.1036 169.767,-29.9878"/>
</a>
</g>
<!-- http://latin.omdoc.org/logics/syntax?CASLSorted&#45;&gt;http://latin.omdoc.org/logics/syntax?Typing -->
<g id="edge3" class="edge"><title>http://latin.omdoc.org/logics/syntax?CASLSorted&#45;&gt;http://latin.omdoc.org/logics/syntax?Typing</title>
<a class="graphinclude">
<path fill="none" stroke="black" d="M101.953,-161.937C101.953,-153.807 101.953,-143.876 101.953,-134.705"/>
<polygon fill="black" stroke="black" points="105.453,-134.441 101.953,-124.441 98.4534,-134.441 105.453,-134.441"/>
</a>
</g>
<!-- http://latin.omdoc.org/logics/proof_theory?CASL -->
<g id="node11" class="node"><title>http://latin.omdoc.org/logics/proof_theory?CASL</title>
<a xlink:href="http://latin.omdoc.org/logics/proof_theory?CASL" class="graphtheory">
<ellipse fill="gray" stroke="black" cx="374.953" cy="-106" rx="34.1708" ry="18"/>
<text text-anchor="middle" x="374.953" y="-102.3" font-family="Times New Roman,serif" font-size="14.00">CASL</text>
</a>
</g>
<!-- http://latin.omdoc.org/logics/syntax?CASLSorted&#45;&gt;http://latin.omdoc.org/logics/proof_theory?CASL -->
<g id="edge11" class="edge"><title>http://latin.omdoc.org/logics/syntax?CASLSorted&#45;&gt;http://latin.omdoc.org/logics/proof_theory?CASL</title>
<a class="graphinclude">
<path fill="none" stroke="black" d="M143.575,-167.318C150.372,-165.488 157.349,-163.656 163.953,-162 237.787,-143.487 258.149,-146.219 330.953,-124 333.58,-123.198 336.273,-122.315 338.97,-121.385"/>
<polygon fill="black" stroke="black" points="340.438,-124.576 348.646,-117.878 338.052,-117.996 340.438,-124.576"/>
</a>
</g>
<!-- http://latin.omdoc.org/logics/syntax?CASLSubSorted -->
<g id="node13" class="node"><title>http://latin.omdoc.org/logics/syntax?CASLSubSorted</title>
<a xlink:href="http://latin.omdoc.org/logics/syntax?CASLSubSorted" class="graphtheory">
<ellipse fill="gray" stroke="black" cx="248.953" cy="-106" rx="73.1654" ry="18"/>
<text text-anchor="middle" x="248.953" y="-102.3" font-family="Times New Roman,serif" font-size="14.00">CASLSubSorted</text>
</a>
</g>
<!-- http://latin.omdoc.org/logics/syntax?CASLSorted&#45;&gt;http://latin.omdoc.org/logics/syntax?CASLSubSorted -->
<g id="edge13" class="edge"><title>http://latin.omdoc.org/logics/syntax?CASLSorted&#45;&gt;http://latin.omdoc.org/logics/syntax?CASLSubSorted</title>
<a class="graphinclude">
<path fill="none" stroke="black" d="M131.701,-164.43C153.869,-153.572 184.387,-138.625 208.73,-126.701"/>
<polygon fill="black" stroke="black" points="210.287,-129.836 217.728,-122.294 207.208,-123.55 210.287,-129.836"/>
</a>
</g>
<!-- http://cds.omdoc.org/urtheories?LF -->
<g id="node6" class="node"><title>http://cds.omdoc.org/urtheories?LF</title>
<a xlink:href="http://cds.omdoc.org/urtheories?LF" class="graphtheory">
<ellipse fill="gray" stroke="black" cx="183.953" cy="-328" rx="27" ry="18"/>
<text text-anchor="middle" x="183.953" y="-324.3" font-family="Times New Roman,serif" font-size="14.00">LF</text>
</a>
</g>
<!-- http://cds.omdoc.org/urtheories?LF&#45;&gt;http://latin.omdoc.org/logics/syntax?Typing -->
<g id="edge5" class="edge"><title>http://cds.omdoc.org/urtheories?LF&#45;&gt;http://latin.omdoc.org/logics/syntax?Typing</title>
<a class="graphmeta">
<path fill="none" stroke="black" d="M157.489,-324.106C126.22,-319.501 74.0249,-307.963 38.9533,-280 13.8629,-259.995 10.4823,-248.935 1.95333,-218 -9.29492,-177.202 34.4156,-143.32 67.5987,-124.11"/>
<polygon fill="black" stroke="black" points="69.5882,-127.009 76.6245,-119.088 66.1844,-120.892 69.5882,-127.009"/>
</a>
</g>
<!-- http://cds.omdoc.org/urtheories?LF&#45;&gt;http://latin.omdoc.org/logics/syntax?CASLSorts -->
<g id="edge9" class="edge"><title>http://cds.omdoc.org/urtheories?LF&#45;&gt;http://latin.omdoc.org/logics/syntax?CASLSorts</title>
<a class="graphmeta">
<path fill="none" stroke="black" d="M168.143,-313.118C156.812,-303.169 141.29,-289.54 128.126,-277.981"/>
<polygon fill="black" stroke="black" points="130.116,-275.07 120.292,-271.102 125.497,-280.33 130.116,-275.07"/>
</a>
</g>
<!-- http://cds.omdoc.org/urtheories?LF&#45;&gt;http://latin.omdoc.org/logics/syntax?CASLSorted -->
<g id="edge17" class="edge"><title>http://cds.omdoc.org/urtheories?LF&#45;&gt;http://latin.omdoc.org/logics/syntax?CASLSorted</title>
<a class="graphmeta">
<path fill="none" stroke="black" d="M183.315,-309.753C181.919,-290.546 177.545,-259.158 163.953,-236 156.452,-223.218 144.95,-211.819 133.881,-202.758"/>
<polygon fill="black" stroke="black" points="136.001,-199.972 125.961,-196.587 131.699,-205.494 136.001,-199.972"/>
</a>
</g>
<!-- http://cds.omdoc.org/urtheories?LF&#45;&gt;http://latin.omdoc.org/logics/syntax?Subsorted&#45;Sorted -->
<g id="edge25" class="edge"><title>http://cds.omdoc.org/urtheories?LF&#45;&gt;http://latin.omdoc.org/logics/syntax?Subsorted&#45;Sorted</title>
<a class="graphmeta">
<path fill="none" stroke="black" d="M211.029,-325.061C276.296,-319.644 436.953,-301.581 436.953,-255 436.953,-255 436.953,-255 436.953,-105 436.953,-55.0319 381.354,-33.9775 330.627,-25.1666"/>
<polygon fill="black" stroke="black" points="330.991,-21.6805 320.564,-23.5628 329.889,-28.5933 330.991,-21.6805"/>
</a>
</g>
<!-- http://cds.omdoc.org/urtheories?LF&#45;&gt;http://latin.omdoc.org/logics/proof_theory?CASL -->
<g id="edge23" class="edge"><title>http://cds.omdoc.org/urtheories?LF&#45;&gt;http://latin.omdoc.org/logics/proof_theory?CASL</title>
<a class="graphmeta">
<path fill="none" stroke="black" d="M197.082,-311.879C229.839,-274.148 315.362,-175.64 354.664,-130.37"/>
<polygon fill="black" stroke="black" points="357.309,-132.662 361.222,-122.816 352.023,-128.073 357.309,-132.662"/>
</a>
</g>
<!-- http://cds.omdoc.org/urtheories?LF&#45;&gt;http://latin.omdoc.org/logics/syntax?CASLSubSorted -->
<g id="edge21" class="edge"><title>http://cds.omdoc.org/urtheories?LF&#45;&gt;http://latin.omdoc.org/logics/syntax?CASLSubSorted</title>
<a class="graphmeta">
<path fill="none" stroke="black" d="M189.866,-310.323C191.864,-304.542 194.065,-298.005 195.953,-292 213.512,-236.159 231.862,-170.1 241.695,-133.964"/>
<polygon fill="black" stroke="black" points="245.11,-134.744 244.349,-124.176 238.354,-132.912 245.11,-134.744"/>
</a>
</g>
<!-- http://latin.omdoc.org/logics/syntax?CASLSubSorted&#45;&gt;http://latin.omdoc.org/logics/syntax?Subsorted&#45;Sorted -->
<g id="edge19" class="edge"><title>http://latin.omdoc.org/logics/syntax?CASLSubSorted&#45;&gt;http://latin.omdoc.org/logics/syntax?Subsorted&#45;Sorted</title>
<a xlink:href="http://latin.omdoc.org/logics/syntax?Subsorted-Sorted?ss" class="graphstructure">
<path fill="none" stroke="black" d="M248.953,-87.5966C248.953,-75.7459 248.953,-59.8169 248.953,-46.2917"/>
<polygon fill="black" stroke="black" points="252.453,-46.084 248.953,-36.084 245.453,-46.084 252.453,-46.084"/>
</a>
<a xlink:href="http://latin.omdoc.org/logics/syntax?Subsorted-Sorted?ss" class="ss">
<text text-anchor="middle" x="255.453" y="-58.3" font-family="Times New Roman,serif" font-size="14.00">ss</text>
</a>
</g>
</g>
</svg>
