<?xml version="1.0" encoding="UTF-8" standalone="no"?>
<!DOCTYPE svg PUBLIC "-//W3C//DTD SVG 1.1//EN"
 "http://www.w3.org/Graphics/SVG/1.1/DTD/svg11.dtd">
<!-- Generated by graphviz version 2.28.0 (20110507.0327)
 -->
<!-- Title: MMT Pages: 1 -->
<svg width="221pt" height="164pt"
 viewBox="0.00 0.00 221.00 164.00" xmlns="http://www.w3.org/2000/svg" xmlns:xlink="http://www.w3.org/1999/xlink">
<g id="graph1" class="graph" transform="scale(1 1) rotate(0) translate(4 160)">
<title>MMT</title>
<polygon fill="white" stroke="white" points="-4,5 -4,-160 218,-160 218,5 -4,5"/>
<g id="graph2" class="cluster"><title>cluster_local</title>
<polygon fill="none" stroke="black" points="8,-8 8,-148 82,-148 82,-8 8,-8"/>
</g>
<!-- http://latin.omdoc.org/foundations/isabelle?Pure -->
<g id="node2" class="node"><title>http://latin.omdoc.org/foundations/isabelle?Pure</title>
<a xlink:href="javascript:parent.navigate(&#39;http://latin.omdoc.org/foundations/isabelle?Pure&#39;)" xlink:title="theory http://latin.omdoc.org/foundations/isabelle?Pure">
<ellipse fill="none" stroke="black" cx="44" cy="-122" rx="26.949" ry="18"/>
<text text-anchor="middle" x="44" y="-118.3" font-family="Times New Roman,serif" font-size="14.00">Pure</text>
</a>
</g>
<!-- http://latin.omdoc.org/foundations/isabelle?HOL -->
<g id="node3" class="node"><title>http://latin.omdoc.org/foundations/isabelle?HOL</title>
<a xlink:href="javascript:parent.navigate(&#39;http://latin.omdoc.org/foundations/isabelle?HOL&#39;)" xlink:title="theory http://latin.omdoc.org/foundations/isabelle?HOL">
<ellipse fill="none" stroke="black" cx="45" cy="-34" rx="29.3722" ry="18"/>
<text text-anchor="middle" x="45" y="-30.3" font-family="Times New Roman,serif" font-size="14.00">HOL</text>
</a>
</g>
<!-- http://latin.omdoc.org/foundations/isabelle?Pure&#45;&gt;http://latin.omdoc.org/foundations/isabelle?HOL -->
<g id="edge7" class="edge"><title>http://latin.omdoc.org/foundations/isabelle?Pure&#45;&gt;http://latin.omdoc.org/foundations/isabelle?HOL</title>
<a xlink:title="include">
<path fill="none" stroke="black" d="M44.2024,-103.597C44.3402,-91.7459 44.5254,-75.8169 44.6827,-62.2917"/>
<polygon fill="black" stroke="black" points="48.1847,-62.1241 44.8013,-52.084 41.1852,-62.0426 48.1847,-62.1241"/>
</a>
</g>
<!-- http://latin.omdoc.org/foundations/isabelle?NesetZFC -->
<g id="node4" class="node"><title>http://latin.omdoc.org/foundations/isabelle?NesetZFC</title>
<a xlink:href="javascript:parent.navigate(&#39;http://latin.omdoc.org/foundations/isabelle?NesetZFC&#39;)" xlink:title="theory http://latin.omdoc.org/foundations/isabelle?NesetZFC">
<ellipse fill="gray" stroke="black" cx="165" cy="-34" rx="48.1437" ry="18"/>
<text text-anchor="middle" x="165" y="-30.3" font-family="Times New Roman,serif" font-size="14.00">NesetZFC</text>
</a>
</g>
<!-- http://latin.omdoc.org/foundations/isabelle?Pure&#45;&gt;http://latin.omdoc.org/foundations/isabelle?NesetZFC -->
<g id="edge3" class="edge"><title>http://latin.omdoc.org/foundations/isabelle?Pure&#45;&gt;http://latin.omdoc.org/foundations/isabelle?NesetZFC</title>
<a xlink:href="javascript:parent.navigate(&#39;http://latin.omdoc.org/foundations/isabelle?PureSemantics&#39;)" xlink:title="view http://latin.omdoc.org/foundations/isabelle?PureSemantics">
<path fill="none" stroke="blue" stroke-dasharray="5,2" d="M54.7206,-104.573C63.3258,-93.5903 75.8249,-79.2682 89.4054,-69.196 99.3601,-61.8462 110.952,-55.5382 122.097,-50.3314"/>
<path fill="none" stroke="blue" stroke-dasharray="5,2" d="M56.295,-105.806C64.8327,-94.9054 77.3317,-80.5832 90.5946,-70.804 100.316,-63.6029 111.908,-57.2949 122.943,-52.1435"/>
<polygon fill="blue" stroke="blue" points="123.962,-54.4267 131.668,-47.156 121.11,-48.0341 123.962,-54.4267"/>
</a>
<a xlink:href="javascript:parent.navigate(&#39;http://latin.omdoc.org/foundations/isabelle?PureSemantics&#39;)" xlink:title="PureSemantics">
<text text-anchor="middle" x="131.5" y="-74.3" font-family="Times New Roman,serif" font-size="14.00">PureSemantics</text>
</a>
</g>
<!-- http://cds.omdoc.org/urtheories?LF -->
<g id="node6" class="node"><title>http://cds.omdoc.org/urtheories?LF</title>
<a xlink:href="javascript:parent.navigate(&#39;http://cds.omdoc.org/urtheories?LF&#39;)" xlink:title="theory http://cds.omdoc.org/urtheories?LF">
<ellipse fill="gray" stroke="black" cx="166" cy="-122" rx="27" ry="18"/>
<text text-anchor="middle" x="166" y="-118.3" font-family="Times New Roman,serif" font-size="14.00">LF</text>
</a>
</g>
<!-- http://cds.omdoc.org/urtheories?LF&#45;&gt;http://latin.omdoc.org/foundations/isabelle?Pure -->
<g id="edge5" class="edge"><title>http://cds.omdoc.org/urtheories?LF&#45;&gt;http://latin.omdoc.org/foundations/isabelle?Pure</title>
<a xlink:title="meta">
<path fill="none" stroke="green" d="M138.957,-122C119.714,-122 100.47,-122 81.2271,-122"/>
<polygon fill="green" stroke="green" points="81.1641,-118.5 71.1641,-122 81.164,-125.5 81.1641,-118.5"/>
</a>
</g>
<!-- http://cds.omdoc.org/urtheories?LF&#45;&gt;http://latin.omdoc.org/foundations/isabelle?HOL -->
<g id="edge9" class="edge"><title>http://cds.omdoc.org/urtheories?LF&#45;&gt;http://latin.omdoc.org/foundations/isabelle?HOL</title>
<a xlink:title="meta">
<path fill="none" stroke="green" d="M165.56,-103.622C164.349,-92.5493 160.958,-78.6994 152,-70 127.718,-46.4191 109.712,-63.8335 78,-52 77.1283,-51.6747 76.2499,-51.332 75.3684,-50.975"/>
<polygon fill="green" stroke="green" points="76.5201,-47.655 65.9653,-46.7354 73.6429,-54.0364 76.5201,-47.655"/>
</a>
</g>
<!-- http://cds.omdoc.org/urtheories?LF&#45;&gt;http://latin.omdoc.org/foundations/isabelle?NesetZFC -->
<g id="edge11" class="edge"><title>http://cds.omdoc.org/urtheories?LF&#45;&gt;http://latin.omdoc.org/foundations/isabelle?NesetZFC</title>
<a xlink:title="meta">
<path fill="none" stroke="green" d="M172.778,-104.539C176.069,-94.585 178.936,-81.6149 177,-70 176.55,-67.3012 175.918,-64.5315 175.176,-61.7893"/>
<polygon fill="green" stroke="green" points="178.484,-60.6403 172.142,-52.1534 171.807,-62.7429 178.484,-60.6403"/>
</a>
</g>
</g>
</svg>
