<?xml version="1.0" encoding="UTF-8" standalone="no"?>
<!DOCTYPE svg PUBLIC "-//W3C//DTD SVG 1.1//EN"
 "http://www.w3.org/Graphics/SVG/1.1/DTD/svg11.dtd">
<!-- Generated by graphviz version 2.28.0 (20110507.0327)
 -->
<!-- Title: MMT Pages: 1 -->
<svg
 viewBox="0.00 0.00 804.00 384.00" xmlns="http://www.w3.org/2000/svg" xmlns:xlink="http://www.w3.org/1999/xlink">
<g id="graph1" class="graph" transform="scale(1 1) rotate(0) translate(4 380)">
<title>MMT</title>
<polygon fill="white" stroke="white" points="-4,5 -4,-380 801,-380 801,5 -4,5"/>
<g id="graph2" class="cluster"><title>cluster_local</title>
<polygon fill="none" stroke="black" points="83,-8 83,-310 345,-310 345,-8 83,-8"/>
</g>
<!-- http://latin.omdoc.org/math?Multiplication -->
<g id="node2" class="node"><title>http://latin.omdoc.org/math?Multiplication</title>
<a xlink:href="http://latin.omdoc.org/math?Multiplication" class="graphtheory">
<ellipse fill="none" stroke="black" cx="151" cy="-34" rx="59.1941" ry="18"/>
<text text-anchor="middle" x="151" y="-30.3" font-family="Times New Roman,serif" font-size="14.00">Multiplication</text>
</a>
</g>
<!-- http://latin.omdoc.org/math?Addition -->
<g id="node3" class="node"><title>http://latin.omdoc.org/math?Addition</title>
<a xlink:href="http://latin.omdoc.org/math?Addition" class="graphtheory">
<ellipse fill="none" stroke="black" cx="151" cy="-122" rx="42.3701" ry="18"/>
<text text-anchor="middle" x="151" y="-118.3" font-family="Times New Roman,serif" font-size="14.00">Addition</text>
</a>
</g>
<!-- http://latin.omdoc.org/math?Addition&#45;&gt;http://latin.omdoc.org/math?Multiplication -->
<g id="edge7" class="edge"><title>http://latin.omdoc.org/math?Addition&#45;&gt;http://latin.omdoc.org/math?Multiplication</title>
<a class="graphinclude">
<path fill="none" stroke="black" d="M151,-103.597C151,-91.7459 151,-75.8169 151,-62.2917"/>
<polygon fill="black" stroke="black" points="154.5,-62.084 151,-52.084 147.5,-62.084 154.5,-62.084"/>
</a>
</g>
<!-- http://latin.omdoc.org/math?OrderedNat -->
<g id="node6" class="node"><title>http://latin.omdoc.org/math?OrderedNat</title>
<a xlink:href="http://latin.omdoc.org/math?OrderedNat" class="graphtheory">
<ellipse fill="none" stroke="black" cx="283" cy="-34" rx="53.4184" ry="18"/>
<text text-anchor="middle" x="283" y="-30.3" font-family="Times New Roman,serif" font-size="14.00">OrderedNat</text>
</a>
</g>
<!-- http://latin.omdoc.org/math?Addition&#45;&gt;http://latin.omdoc.org/math?OrderedNat -->
<g id="edge31" class="edge"><title>http://latin.omdoc.org/math?Addition&#45;&gt;http://latin.omdoc.org/math?OrderedNat</title>
<a class="graphinclude">
<path fill="none" stroke="black" d="M160.69,-104.35C167.848,-93.3071 178.495,-79.2064 191,-70 203.188,-61.0273 217.953,-54.074 232.055,-48.8167"/>
<polygon fill="black" stroke="black" points="233.393,-52.0564 241.671,-45.4441 231.076,-45.4509 233.393,-52.0564"/>
</a>
</g>
<!-- http://latin.omdoc.org/math?Nat -->
<g id="node4" class="node"><title>http://latin.omdoc.org/math?Nat</title>
<a xlink:href="http://latin.omdoc.org/math?Nat" class="graphtheory">
<ellipse fill="none" stroke="black" cx="144" cy="-284" rx="27" ry="18"/>
<text text-anchor="middle" x="144" y="-280.3" font-family="Times New Roman,serif" font-size="14.00">Nat</text>
</a>
</g>
<!-- http://latin.omdoc.org/math?Nat&#45;&gt;http://latin.omdoc.org/math?Addition -->
<g id="edge15" class="edge"><title>http://latin.omdoc.org/math?Nat&#45;&gt;http://latin.omdoc.org/math?Addition</title>
<a class="graphinclude">
<path fill="none" stroke="black" d="M143.925,-265.994C143.929,-241.923 144.34,-196.548 147,-158 147.177,-155.437 147.403,-152.774 147.658,-150.111"/>
<polygon fill="black" stroke="black" points="151.15,-150.379 148.739,-140.062 144.19,-149.63 151.15,-150.379"/>
</a>
</g>
<!-- http://latin.omdoc.org/math?Recursion -->
<g id="node5" class="node"><title>http://latin.omdoc.org/math?Recursion</title>
<a xlink:href="http://latin.omdoc.org/math?Recursion" class="graphtheory">
<ellipse fill="none" stroke="black" cx="205" cy="-210" rx="48.1437" ry="18"/>
<text text-anchor="middle" x="205" y="-206.3" font-family="Times New Roman,serif" font-size="14.00">Recursion</text>
</a>
</g>
<!-- http://latin.omdoc.org/math?Nat&#45;&gt;http://latin.omdoc.org/math?Recursion -->
<g id="edge25" class="edge"><title>http://latin.omdoc.org/math?Nat&#45;&gt;http://latin.omdoc.org/math?Recursion</title>
<a class="graphinclude">
<path fill="none" stroke="black" d="M155.351,-267.226C160.304,-260.549 166.279,-252.767 172,-246 175.202,-242.214 178.693,-238.301 182.168,-234.524"/>
<polygon fill="black" stroke="black" points="184.893,-236.735 189.179,-227.046 179.786,-231.947 184.893,-236.735"/>
</a>
</g>
<!-- http://latin.omdoc.org/math?Recursion&#45;&gt;http://latin.omdoc.org/math?Addition -->
<g id="edge17" class="edge"><title>http://latin.omdoc.org/math?Recursion&#45;&gt;http://latin.omdoc.org/math?Addition</title>
<a class="graphinclude">
<path fill="none" stroke="black" d="M177.39,-195.256C169.169,-189.783 161.023,-182.689 156,-174 151.913,-166.931 150.114,-158.375 149.488,-150.307"/>
<polygon fill="black" stroke="black" points="152.983,-150.063 149.246,-140.149 145.985,-150.229 152.983,-150.063"/>
</a>
</g>
<!-- http://latin.omdoc.org/math?Magma -->
<g id="node7" class="node"><title>http://latin.omdoc.org/math?Magma</title>
<a xlink:href="http://latin.omdoc.org/math?Magma" class="graphtheory">
<ellipse fill="gray" stroke="black" cx="37" cy="-210" rx="37.5442" ry="18"/>
<text text-anchor="middle" x="37" y="-206.3" font-family="Times New Roman,serif" font-size="14.00">Magma</text>
</a>
</g>
<!-- http://latin.omdoc.org/math?Magma&#45;&gt;http://latin.omdoc.org/math?Multiplication -->
<g id="edge3" class="edge"><title>http://latin.omdoc.org/math?Magma&#45;&gt;http://latin.omdoc.org/math?Multiplication</title>
<a xlink:href="http://latin.omdoc.org/math?Multiplication?*magma" class="graphstructure">
<path fill="none" stroke="black" d="M35.6753,-191.98C34.79,-169.984 36.1128,-131.281 53,-104 66.4515,-82.2691 89.5541,-65.5073 109.951,-53.9486"/>
<polygon fill="black" stroke="black" points="111.663,-57.0014 118.788,-49.1597 108.328,-50.847 111.663,-57.0014"/>
</a>
<a xlink:href="http://latin.omdoc.org/math?Multiplication?*magma" class="*magma">
<text text-anchor="middle" x="76.5" y="-118.3" font-family="Times New Roman,serif" font-size="14.00">*magma</text>
</a>
</g>
<!-- http://latin.omdoc.org/math?Magma&#45;&gt;http://latin.omdoc.org/math?Addition -->
<g id="edge11" class="edge"><title>http://latin.omdoc.org/math?Magma&#45;&gt;http://latin.omdoc.org/math?Addition</title>
<a xlink:href="http://latin.omdoc.org/math?Addition?+magma" class="graphstructure">
<path fill="none" stroke="black" d="M49.3448,-192.924C58.1832,-182.136 70.8104,-168.106 84,-158 92.9327,-151.156 103.399,-144.97 113.368,-139.769"/>
<polygon fill="black" stroke="black" points="114.955,-142.889 122.326,-135.279 111.818,-136.631 114.955,-142.889"/>
</a>
<a xlink:href="http://latin.omdoc.org/math?Addition?+magma" class="+magma">
<text text-anchor="middle" x="108.5" y="-162.3" font-family="Times New Roman,serif" font-size="14.00">+magma</text>
</a>
</g>
<!-- http://latin.omdoc.org/math?CommutativeSemigroup -->
<g id="node9" class="node"><title>http://latin.omdoc.org/math?CommutativeSemigroup</title>
<a xlink:href="http://latin.omdoc.org/math?CommutativeSemigroup" class="graphtheory">
<ellipse fill="gray" stroke="black" cx="452" cy="-210" rx="98.1881" ry="18"/>
<text text-anchor="middle" x="452" y="-206.3" font-family="Times New Roman,serif" font-size="14.00">CommutativeSemigroup</text>
</a>
</g>
<!-- http://latin.omdoc.org/math?CommutativeSemigroup&#45;&gt;http://latin.omdoc.org/math?Multiplication -->
<g id="edge5" class="edge"><title>http://latin.omdoc.org/math?CommutativeSemigroup&#45;&gt;http://latin.omdoc.org/math?Multiplication</title>
<a xlink:href="http://latin.omdoc.org/math?Multiplication?*commutativeSemigroup" class="graphstructure">
<path fill="none" stroke="black" d="M404.818,-194.115C345.347,-175.252 249.978,-144.623 243,-140 226.062,-128.779 191.851,-87.2209 170.255,-59.874"/>
<polygon fill="black" stroke="black" points="172.919,-57.5984 163.992,-51.8926 167.412,-61.9201 172.919,-57.5984"/>
</a>
<a xlink:href="http://latin.omdoc.org/math?Multiplication?*commutativeSemigroup" class="*commutativeSemigroup">
<text text-anchor="middle" x="312.5" y="-118.3" font-family="Times New Roman,serif" font-size="14.00">*commutativeSemigroup</text>
</a>
</g>
<!-- http://latin.omdoc.org/math?CommutativeSemigroup&#45;&gt;http://latin.omdoc.org/math?Addition -->
<g id="edge13" class="edge"><title>http://latin.omdoc.org/math?CommutativeSemigroup&#45;&gt;http://latin.omdoc.org/math?Addition</title>
<a xlink:href="http://latin.omdoc.org/math?Addition?+semigroupCommut" class="graphstructure">
<path fill="none" stroke="black" d="M383.385,-197.088C371.92,-195.266 360.137,-193.497 349,-192 310.693,-186.851 207.695,-196.122 176,-174 167.687,-168.198 162.018,-158.83 158.212,-149.697"/>
<polygon fill="black" stroke="black" points="161.43,-148.301 154.774,-140.058 154.837,-150.652 161.43,-148.301"/>
</a>
<a xlink:href="http://latin.omdoc.org/math?Addition?+semigroupCommut" class="+semigroupCommut">
<text text-anchor="middle" x="234" y="-162.3" font-family="Times New Roman,serif" font-size="14.00">+semigroupCommut</text>
</a>
</g>
<!-- http://latin.omdoc.org/logics/proof_theory?FOLEQ -->
<g id="node12" class="node"><title>http://latin.omdoc.org/logics/proof_theory?FOLEQ</title>
<a xlink:href="http://latin.omdoc.org/logics/proof_theory?FOLEQ" class="graphtheory">
<ellipse fill="gray" stroke="black" cx="609" cy="-210" rx="39.9464" ry="18"/>
<text text-anchor="middle" x="609" y="-206.3" font-family="Times New Roman,serif" font-size="14.00">FOLEQ</text>
</a>
</g>
<!-- http://latin.omdoc.org/logics/proof_theory?FOLEQ&#45;&gt;http://latin.omdoc.org/math?Multiplication -->
<g id="edge9" class="edge"><title>http://latin.omdoc.org/logics/proof_theory?FOLEQ&#45;&gt;http://latin.omdoc.org/math?Multiplication</title>
<a class="graphmeta">
<path fill="none" stroke="black" d="M577.958,-198.398C524.969,-180.239 422.058,-144.678 415,-140 396.908,-128.009 400.395,-115.521 382,-104 366.701,-94.4177 267.113,-66.4141 203.79,-49.1695"/>
<polygon fill="black" stroke="black" points="204.525,-45.7423 193.957,-46.4987 202.69,-52.4976 204.525,-45.7423"/>
</a>
</g>
<!-- http://latin.omdoc.org/logics/proof_theory?FOLEQ&#45;&gt;http://latin.omdoc.org/math?Addition -->
<g id="edge19" class="edge"><title>http://latin.omdoc.org/logics/proof_theory?FOLEQ&#45;&gt;http://latin.omdoc.org/math?Addition</title>
<a class="graphmeta">
<path fill="none" stroke="black" d="M579.436,-197.718C572.792,-195.529 565.719,-193.464 559,-192 481.74,-175.165 460.269,-185.241 382,-174 343.517,-168.473 334.237,-165.033 296,-158 252.016,-149.91 240.138,-151.796 197,-140 194.865,-139.416 192.689,-138.775 190.502,-138.096"/>
<polygon fill="black" stroke="black" points="191.537,-134.751 180.943,-134.918 189.329,-141.394 191.537,-134.751"/>
</a>
</g>
<!-- http://latin.omdoc.org/logics/proof_theory?FOLEQ&#45;&gt;http://latin.omdoc.org/math?OrderedNat -->
<g id="edge37" class="edge"><title>http://latin.omdoc.org/logics/proof_theory?FOLEQ&#45;&gt;http://latin.omdoc.org/math?OrderedNat</title>
<a class="graphmeta">
<path fill="none" stroke="black" d="M614.209,-191.965C620.015,-169.241 626.154,-128.98 606,-104 573.865,-64.1717 429.516,-46.3392 345.056,-39.1921"/>
<polygon fill="black" stroke="black" points="345.318,-35.7019 335.065,-38.3727 344.745,-42.6785 345.318,-35.7019"/>
</a>
</g>
<!-- http://latin.omdoc.org/logics/proof_theory?NEGExt -->
<g id="node19" class="node"><title>http://latin.omdoc.org/logics/proof_theory?NEGExt</title>
<a xlink:href="http://latin.omdoc.org/logics/proof_theory?NEGExt" class="graphtheory">
<ellipse fill="gray" stroke="black" cx="96" cy="-358" rx="41.394" ry="18"/>
<text text-anchor="middle" x="96" y="-354.3" font-family="Times New Roman,serif" font-size="14.00">NEGExt</text>
</a>
</g>
<!-- http://latin.omdoc.org/logics/proof_theory?NEGExt&#45;&gt;http://latin.omdoc.org/math?Nat -->
<g id="edge21" class="edge"><title>http://latin.omdoc.org/logics/proof_theory?NEGExt&#45;&gt;http://latin.omdoc.org/math?Nat</title>
<a class="graphinclude">
<path fill="none" stroke="black" d="M107.133,-340.301C113.302,-331.047 121.081,-319.378 127.902,-309.147"/>
<polygon fill="black" stroke="black" points="130.95,-310.885 133.585,-300.623 125.125,-307.002 130.95,-310.885"/>
</a>
</g>
<!-- http://latin.omdoc.org/logics/proof_theory?InEqLogic -->
<g id="node21" class="node"><title>http://latin.omdoc.org/logics/proof_theory?InEqLogic</title>
<a xlink:href="http://latin.omdoc.org/logics/proof_theory?InEqLogic" class="graphtheory">
<ellipse fill="gray" stroke="black" cx="205" cy="-358" rx="49.0941" ry="18"/>
<text text-anchor="middle" x="205" y="-354.3" font-family="Times New Roman,serif" font-size="14.00">InEqLogic</text>
</a>
</g>
<!-- http://latin.omdoc.org/logics/proof_theory?InEqLogic&#45;&gt;http://latin.omdoc.org/math?Nat -->
<g id="edge23" class="edge"><title>http://latin.omdoc.org/logics/proof_theory?InEqLogic&#45;&gt;http://latin.omdoc.org/math?Nat</title>
<a class="graphmeta">
<path fill="none" stroke="black" d="M191.158,-340.662C182.979,-331.008 172.494,-318.632 163.488,-308.003"/>
<polygon fill="black" stroke="black" points="166.088,-305.656 156.953,-300.289 160.747,-310.181 166.088,-305.656"/>
</a>
</g>
<!-- http://latin.omdoc.org/logics/proof_theory?InEqLogic&#45;&gt;http://latin.omdoc.org/math?Recursion -->
<g id="edge27" class="edge"><title>http://latin.omdoc.org/logics/proof_theory?InEqLogic&#45;&gt;http://latin.omdoc.org/math?Recursion</title>
<a class="graphmeta">
<path fill="none" stroke="black" d="M205,-339.966C205,-315.045 205,-268.374 205,-238.537"/>
<polygon fill="black" stroke="black" points="208.5,-238.378 205,-228.378 201.5,-238.378 208.5,-238.378"/>
</a>
</g>
<!-- http://latin.omdoc.org/math?RelationEqLogic -->
<g id="node25" class="node"><title>http://latin.omdoc.org/math?RelationEqLogic</title>
<a xlink:href="http://latin.omdoc.org/math?RelationEqLogic" class="graphtheory">
<ellipse fill="gray" stroke="black" cx="725" cy="-122" rx="71.2405" ry="18"/>
<text text-anchor="middle" x="725" y="-118.3" font-family="Times New Roman,serif" font-size="14.00">RelationEqLogic</text>
</a>
</g>
<!-- http://latin.omdoc.org/math?RelationEqLogic&#45;&gt;http://latin.omdoc.org/math?OrderedNat -->
<g id="edge29" class="edge"><title>http://latin.omdoc.org/math?RelationEqLogic&#45;&gt;http://latin.omdoc.org/math?OrderedNat</title>
<a xlink:href="http://latin.omdoc.org/math?OrderedNat?leq" class="graphstructure">
<path fill="none" stroke="black" d="M703.939,-104.72C687.484,-92.9387 663.531,-77.7736 640,-70 587.03,-52.5007 433.355,-42.3528 345.87,-37.8373"/>
<polygon fill="black" stroke="black" points="345.965,-34.3377 335.8,-37.3273 345.611,-41.3287 345.965,-34.3377"/>
</a>
<a xlink:href="http://latin.omdoc.org/math?OrderedNat?leq" class="leq">
<text text-anchor="middle" x="682.5" y="-74.3" font-family="Times New Roman,serif" font-size="14.00">leq</text>
</a>
</g>
<!-- http://latin.omdoc.org/logics/proof_theory?Inequal -->
<g id="node28" class="node"><title>http://latin.omdoc.org/logics/proof_theory?Inequal</title>
<a xlink:href="http://latin.omdoc.org/logics/proof_theory?Inequal" class="graphtheory">
<ellipse fill="gray" stroke="black" cx="461" cy="-122" rx="37.0701" ry="18"/>
<text text-anchor="middle" x="461" y="-118.3" font-family="Times New Roman,serif" font-size="14.00">Inequal</text>
</a>
</g>
<!-- http://latin.omdoc.org/logics/proof_theory?Inequal&#45;&gt;http://latin.omdoc.org/math?OrderedNat -->
<g id="edge33" class="edge"><title>http://latin.omdoc.org/logics/proof_theory?Inequal&#45;&gt;http://latin.omdoc.org/math?OrderedNat</title>
<a class="graphinclude">
<path fill="none" stroke="black" d="M448.809,-104.988C439.378,-93.6583 425.367,-78.9451 410,-70 388.908,-57.7224 363.334,-49.599 340.678,-44.2998"/>
<polygon fill="black" stroke="black" points="341.356,-40.8651 330.836,-42.1284 339.848,-47.7007 341.356,-40.8651"/>
</a>
</g>
<!-- http://latin.omdoc.org/logics/proof_theory?DISJExt -->
<g id="node30" class="node"><title>http://latin.omdoc.org/logics/proof_theory?DISJExt</title>
<a xlink:href="http://latin.omdoc.org/logics/proof_theory?DISJExt" class="graphtheory">
<ellipse fill="gray" stroke="black" cx="557" cy="-122" rx="40.4202" ry="18"/>
<text text-anchor="middle" x="557" y="-118.3" font-family="Times New Roman,serif" font-size="14.00">DISJExt</text>
</a>
</g>
<!-- http://latin.omdoc.org/logics/proof_theory?DISJExt&#45;&gt;http://latin.omdoc.org/math?OrderedNat -->
<g id="edge35" class="edge"><title>http://latin.omdoc.org/logics/proof_theory?DISJExt&#45;&gt;http://latin.omdoc.org/math?OrderedNat</title>
<a class="graphinclude">
<path fill="none" stroke="black" d="M530.125,-108.342C505.524,-97.1211 467.899,-80.8741 434,-70 402.827,-60.0001 367.181,-51.6004 338.353,-45.5382"/>
<polygon fill="black" stroke="black" points="338.961,-42.0899 328.459,-43.4926 337.544,-48.9449 338.961,-42.0899"/>
</a>
</g>
</g>
</svg>
