<?xml version="1.0" encoding="UTF-8" standalone="no"?>
<!DOCTYPE svg PUBLIC "-//W3C//DTD SVG 1.1//EN"
 "http://www.w3.org/Graphics/SVG/1.1/DTD/svg11.dtd">
<!-- Generated by graphviz version 2.28.0 (20110507.0327)
 -->
<!-- Title: MMT Pages: 1 -->
<svg
 viewBox="0.00 0.00 499.00 222.00" xmlns="http://www.w3.org/2000/svg" xmlns:xlink="http://www.w3.org/1999/xlink">
<g id="graph1" class="graph" transform="scale(1 1) rotate(0) translate(4 218)">
<title>MMT</title>
<polygon fill="white" stroke="white" points="-4,5 -4,-218 496,-218 496,5 -4,5"/>
<g id="graph2" class="cluster"><title>cluster_local</title>
<polygon fill="none" stroke="black" points="250,-8 250,-148 406,-148 406,-8 250,-8"/>
</g>
<!-- http://latin.omdoc.org/math?Monotonous -->
<g id="node2" class="node"><title>http://latin.omdoc.org/math?Monotonous</title>
<a xlink:href="http://latin.omdoc.org/math?Monotonous" class="graphtheory">
<ellipse fill="none" stroke="black" cx="328" cy="-122" rx="57.2688" ry="18"/>
<text text-anchor="middle" x="328" y="-118.3" font-family="Times New Roman,serif" font-size="14.00">Monotonous</text>
</a>
</g>
<!-- http://latin.omdoc.org/math?OrderedMonoid -->
<g id="node3" class="node"><title>http://latin.omdoc.org/math?OrderedMonoid</title>
<a xlink:href="http://latin.omdoc.org/math?OrderedMonoid" class="graphtheory">
<ellipse fill="none" stroke="black" cx="328" cy="-34" rx="69.3156" ry="18"/>
<text text-anchor="middle" x="328" y="-30.3" font-family="Times New Roman,serif" font-size="14.00">OrderedMonoid</text>
</a>
</g>
<!-- http://latin.omdoc.org/math?Monotonous&#45;&gt;http://latin.omdoc.org/math?OrderedMonoid -->
<g id="edge15" class="edge"><title>http://latin.omdoc.org/math?Monotonous&#45;&gt;http://latin.omdoc.org/math?OrderedMonoid</title>
<a class="graphinclude">
<path fill="none" stroke="black" d="M328,-103.597C328,-91.7459 328,-75.8169 328,-62.2917"/>
<polygon fill="black" stroke="black" points="331.5,-62.084 328,-52.084 324.5,-62.084 331.5,-62.084"/>
</a>
</g>
<!-- http://latin.omdoc.org/math?Rat -->
<g id="node4" class="node"><title>http://latin.omdoc.org/math?Rat</title>
<a xlink:href="http://latin.omdoc.org/math?Rat" class="graphtheory">
<ellipse fill="gray" stroke="black" cx="443" cy="-34" rx="27" ry="18"/>
<text text-anchor="middle" x="443" y="-30.3" font-family="Times New Roman,serif" font-size="14.00">Rat</text>
</a>
</g>
<!-- http://latin.omdoc.org/math?Monotonous&#45;&gt;http://latin.omdoc.org/math?Rat -->
<g id="edge3" class="edge"><title>http://latin.omdoc.org/math?Monotonous&#45;&gt;http://latin.omdoc.org/math?Rat</title>
<a xlink:href="http://latin.omdoc.org/math?Rat?+monotonous" class="graphstructure">
<path fill="none" stroke="black" d="M332.628,-103.653C336.414,-92.593 342.834,-78.7461 353,-70 373.139,-52.674 385.436,-62.1196 410,-52 411.173,-51.5167 412.361,-51.0072 413.554,-50.4784"/>
<polygon fill="black" stroke="black" points="415.123,-53.6082 422.659,-46.1605 412.123,-47.2834 415.123,-53.6082"/>
</a>
<a xlink:href="http://latin.omdoc.org/math?Rat?+monotonous" class="+monotonous">
<text text-anchor="middle" x="392.5" y="-74.3" font-family="Times New Roman,serif" font-size="14.00">+monotonous</text>
</a>
</g>
<!-- http://latin.omdoc.org/math?Relation -->
<g id="node6" class="node"><title>http://latin.omdoc.org/math?Relation</title>
<a xlink:href="http://latin.omdoc.org/math?Relation" class="graphtheory">
<ellipse fill="gray" stroke="black" cx="431" cy="-196" rx="39.9464" ry="18"/>
<text text-anchor="middle" x="431" y="-192.3" font-family="Times New Roman,serif" font-size="14.00">Relation</text>
</a>
</g>
<!-- http://latin.omdoc.org/math?Relation&#45;&gt;http://latin.omdoc.org/math?Monotonous -->
<g id="edge5" class="edge"><title>http://latin.omdoc.org/math?Relation&#45;&gt;http://latin.omdoc.org/math?Monotonous</title>
<a class="graphinclude">
<path fill="none" stroke="black" d="M410.156,-180.43C395.44,-170.142 375.471,-156.184 358.906,-144.604"/>
<polygon fill="black" stroke="black" points="360.801,-141.659 350.6,-138.798 356.791,-147.396 360.801,-141.659"/>
</a>
</g>
<!-- http://latin.omdoc.org/math?Bottom -->
<g id="node12" class="node"><title>http://latin.omdoc.org/math?Bottom</title>
<a xlink:href="http://latin.omdoc.org/math?Bottom" class="graphtheory">
<ellipse fill="gray" stroke="black" cx="453" cy="-122" rx="38.0212" ry="18"/>
<text text-anchor="middle" x="453" y="-118.3" font-family="Times New Roman,serif" font-size="14.00">Bottom</text>
</a>
</g>
<!-- http://latin.omdoc.org/math?Relation&#45;&gt;http://latin.omdoc.org/math?Bottom -->
<g id="edge23" class="edge"><title>http://latin.omdoc.org/math?Relation&#45;&gt;http://latin.omdoc.org/math?Bottom</title>
<a class="graphinclude">
<path fill="none" stroke="black" d="M436.214,-177.937C438.789,-169.508 441.956,-159.143 444.843,-149.696"/>
<polygon fill="black" stroke="black" points="448.249,-150.527 447.824,-139.941 441.554,-148.481 448.249,-150.527"/>
</a>
</g>
<!-- http://latin.omdoc.org/math?Magma -->
<g id="node8" class="node"><title>http://latin.omdoc.org/math?Magma</title>
<a xlink:href="http://latin.omdoc.org/math?Magma" class="graphtheory">
<ellipse fill="gray" stroke="black" cx="328" cy="-196" rx="37.5442" ry="18"/>
<text text-anchor="middle" x="328" y="-192.3" font-family="Times New Roman,serif" font-size="14.00">Magma</text>
</a>
</g>
<!-- http://latin.omdoc.org/math?Magma&#45;&gt;http://latin.omdoc.org/math?Monotonous -->
<g id="edge7" class="edge"><title>http://latin.omdoc.org/math?Magma&#45;&gt;http://latin.omdoc.org/math?Monotonous</title>
<a class="graphinclude">
<path fill="none" stroke="black" d="M328,-177.937C328,-169.807 328,-159.876 328,-150.705"/>
<polygon fill="black" stroke="black" points="331.5,-150.441 328,-140.441 324.5,-150.441 331.5,-150.441"/>
</a>
</g>
<!-- http://latin.omdoc.org/math?EqUniverse -->
<g id="node10" class="node"><title>http://latin.omdoc.org/math?EqUniverse</title>
<a xlink:href="http://latin.omdoc.org/math?EqUniverse" class="graphtheory">
<ellipse fill="gray" stroke="black" cx="52" cy="-196" rx="52.4675" ry="18"/>
<text text-anchor="middle" x="52" y="-192.3" font-family="Times New Roman,serif" font-size="14.00">EqUniverse</text>
</a>
</g>
<!-- http://latin.omdoc.org/math?EqUniverse&#45;&gt;http://latin.omdoc.org/math?Monotonous -->
<g id="edge9" class="edge"><title>http://latin.omdoc.org/math?EqUniverse&#45;&gt;http://latin.omdoc.org/math?Monotonous</title>
<a class="graphmeta">
<path fill="none" stroke="black" d="M98.0783,-187.185C141.812,-179.229 209.124,-165.577 266,-148 272.705,-145.928 279.702,-143.44 286.478,-140.848"/>
<polygon fill="black" stroke="black" points="288.174,-143.941 296.189,-137.012 285.603,-137.431 288.174,-143.941"/>
</a>
</g>
<!-- http://latin.omdoc.org/math?EqUniverse&#45;&gt;http://latin.omdoc.org/math?OrderedMonoid -->
<g id="edge19" class="edge"><title>http://latin.omdoc.org/math?EqUniverse&#45;&gt;http://latin.omdoc.org/math?OrderedMonoid</title>
<a class="graphmeta">
<path fill="none" stroke="black" d="M50.616,-177.846C49.9681,-157.535 52.1673,-123.953 71,-104 96.5625,-76.9175 191.86,-56.58 258.918,-45.2334"/>
<polygon fill="black" stroke="black" points="259.717,-48.6487 269.008,-43.5574 258.57,-41.7433 259.717,-48.6487"/>
</a>
</g>
<!-- http://latin.omdoc.org/math?Order -->
<g id="node14" class="node"><title>http://latin.omdoc.org/math?Order</title>
<a xlink:href="http://latin.omdoc.org/math?Order" class="graphtheory">
<ellipse fill="gray" stroke="black" cx="112" cy="-122" rx="32.2457" ry="18"/>
<text text-anchor="middle" x="112" y="-118.3" font-family="Times New Roman,serif" font-size="14.00">Order</text>
</a>
</g>
<!-- http://latin.omdoc.org/math?EqUniverse&#45;&gt;http://latin.omdoc.org/math?Order -->
<g id="edge21" class="edge"><title>http://latin.omdoc.org/math?EqUniverse&#45;&gt;http://latin.omdoc.org/math?Order</title>
<a class="graphmeta">
<path fill="none" stroke="black" d="M65.916,-178.301C73.783,-168.86 83.7451,-156.906 92.3927,-146.529"/>
<polygon fill="black" stroke="black" points="95.2678,-148.546 98.9809,-138.623 89.8902,-144.065 95.2678,-148.546"/>
</a>
</g>
<!-- http://latin.omdoc.org/math?Bottom&#45;&gt;http://latin.omdoc.org/math?OrderedMonoid -->
<g id="edge11" class="edge"><title>http://latin.omdoc.org/math?Bottom&#45;&gt;http://latin.omdoc.org/math?OrderedMonoid</title>
<a xlink:href="http://latin.omdoc.org/math?OrderedMonoid?unit" class="graphstructure">
<path fill="none" stroke="black" d="M449.75,-103.754C446.84,-92.7369 441.507,-78.8996 432,-70 424.65,-63.1192 405.638,-55.9534 385.849,-49.9112"/>
<polygon fill="black" stroke="black" points="386.701,-46.5135 376.119,-47.0415 384.721,-53.2276 386.701,-46.5135"/>
</a>
<a xlink:href="http://latin.omdoc.org/math?OrderedMonoid?unit" class="unit">
<text text-anchor="middle" x="453.5" y="-74.3" font-family="Times New Roman,serif" font-size="14.00">unit</text>
</a>
</g>
<!-- http://latin.omdoc.org/math?Order&#45;&gt;http://latin.omdoc.org/math?OrderedMonoid -->
<g id="edge13" class="edge"><title>http://latin.omdoc.org/math?Order&#45;&gt;http://latin.omdoc.org/math?OrderedMonoid</title>
<a class="graphinclude">
<path fill="none" stroke="black" d="M137.124,-110.502C142.363,-108.335 147.857,-106.08 153,-104 196.448,-86.4284 246.178,-66.8742 281.492,-53.0821"/>
<polygon fill="black" stroke="black" points="283.01,-56.247 291.054,-49.3512 280.465,-49.7259 283.01,-56.247"/>
</a>
</g>
<!-- http://latin.omdoc.org/math?Monoid -->
<g id="node17" class="node"><title>http://latin.omdoc.org/math?Monoid</title>
<a xlink:href="http://latin.omdoc.org/math?Monoid" class="graphtheory">
<ellipse fill="gray" stroke="black" cx="202" cy="-122" rx="39.4691" ry="18"/>
<text text-anchor="middle" x="202" y="-118.3" font-family="Times New Roman,serif" font-size="14.00">Monoid</text>
</a>
</g>
<!-- http://latin.omdoc.org/math?Monoid&#45;&gt;http://latin.omdoc.org/math?OrderedMonoid -->
<g id="edge17" class="edge"><title>http://latin.omdoc.org/math?Monoid&#45;&gt;http://latin.omdoc.org/math?OrderedMonoid</title>
<a class="graphinclude">
<path fill="none" stroke="black" d="M223.09,-106.606C242.968,-93.0376 273.035,-72.5156 295.892,-56.9147"/>
<polygon fill="black" stroke="black" points="297.977,-59.7295 304.263,-51.2012 294.031,-53.9478 297.977,-59.7295"/>
</a>
</g>
</g>
</svg>
