<?xml version="1.0" encoding="UTF-8" standalone="no"?>
<!DOCTYPE svg PUBLIC "-//W3C//DTD SVG 1.1//EN"
 "http://www.w3.org/Graphics/SVG/1.1/DTD/svg11.dtd">
<!-- Generated by graphviz version 2.28.0 (20110507.0327)
 -->
<!-- Title: MMT Pages: 1 -->
<svg
 viewBox="0.00 0.00 1316.00 236.00" xmlns="http://www.w3.org/2000/svg" xmlns:xlink="http://www.w3.org/1999/xlink">
<g id="graph1" class="graph" transform="scale(1 1) rotate(0) translate(4 232)">
<title>MMT</title>
<polygon fill="white" stroke="white" points="-4,5 -4,-232 1313,-232 1313,5 -4,5"/>
<g id="graph2" class="cluster"><title>cluster_local</title>
<polygon fill="none" stroke="black" points="301,-8 301,-148 808,-148 808,-8 301,-8"/>
</g>
<!-- http://latin.omdoc.org/math?MagmaFOL -->
<g id="node2" class="node"><title>http://latin.omdoc.org/math?MagmaFOL</title>
<a xlink:href="http://latin.omdoc.org/math?MagmaFOL" class="graphtheory">
<ellipse fill="none" stroke="black" cx="561" cy="-122" rx="55.3682" ry="18"/>
<text text-anchor="middle" x="561" y="-118.3" font-family="Times New Roman,serif" font-size="14.00">MagmaFOL</text>
</a>
</g>
<!-- http://latin.omdoc.org/math?CommutativeFOL -->
<g id="node3" class="node"><title>http://latin.omdoc.org/math?CommutativeFOL</title>
<a xlink:href="http://latin.omdoc.org/math?CommutativeFOL" class="graphtheory">
<ellipse fill="none" stroke="black" cx="723" cy="-34" rx="76.5394" ry="18"/>
<text text-anchor="middle" x="723" y="-30.3" font-family="Times New Roman,serif" font-size="14.00">CommutativeFOL</text>
</a>
</g>
<!-- http://latin.omdoc.org/math?MagmaFOL&#45;&gt;http://latin.omdoc.org/math?CommutativeFOL -->
<g id="edge17" class="edge"><title>http://latin.omdoc.org/math?MagmaFOL&#45;&gt;http://latin.omdoc.org/math?CommutativeFOL</title>
<a class="graphinclude">
<path fill="none" stroke="black" d="M586.755,-105.833C604.624,-95.4518 629.063,-81.5328 651,-70 660.602,-64.9518 671.043,-59.7282 680.917,-54.9056"/>
<polygon fill="black" stroke="black" points="682.693,-57.9344 690.165,-50.4234 679.64,-51.6352 682.693,-57.9344"/>
</a>
</g>
<!-- http://latin.omdoc.org/math?SemigroupFOL -->
<g id="node4" class="node"><title>http://latin.omdoc.org/math?SemigroupFOL</title>
<a xlink:href="http://latin.omdoc.org/math?SemigroupFOL" class="graphtheory">
<ellipse fill="none" stroke="black" cx="561" cy="-34" rx="67.3907" ry="18"/>
<text text-anchor="middle" x="561" y="-30.3" font-family="Times New Roman,serif" font-size="14.00">SemigroupFOL</text>
</a>
</g>
<!-- http://latin.omdoc.org/math?MagmaFOL&#45;&gt;http://latin.omdoc.org/math?SemigroupFOL -->
<g id="edge23" class="edge"><title>http://latin.omdoc.org/math?MagmaFOL&#45;&gt;http://latin.omdoc.org/math?SemigroupFOL</title>
<a class="graphinclude">
<path fill="none" stroke="black" d="M561,-103.597C561,-91.7459 561,-75.8169 561,-62.2917"/>
<polygon fill="black" stroke="black" points="564.5,-62.084 561,-52.084 557.5,-62.084 564.5,-62.084"/>
</a>
</g>
<!-- http://latin.omdoc.org/math?NeutralElementFOL -->
<g id="node5" class="node"><title>http://latin.omdoc.org/math?NeutralElementFOL</title>
<a xlink:href="http://latin.omdoc.org/math?NeutralElementFOL" class="graphtheory">
<ellipse fill="none" stroke="black" cx="392" cy="-34" rx="83.2892" ry="18"/>
<text text-anchor="middle" x="392" y="-30.3" font-family="Times New Roman,serif" font-size="14.00">NeutralElementFOL</text>
</a>
</g>
<!-- http://latin.omdoc.org/math?MagmaFOL&#45;&gt;http://latin.omdoc.org/math?NeutralElementFOL -->
<g id="edge29" class="edge"><title>http://latin.omdoc.org/math?MagmaFOL&#45;&gt;http://latin.omdoc.org/math?NeutralElementFOL</title>
<a class="graphinclude">
<path fill="none" stroke="black" d="M534.804,-105.994C516.313,-95.5601 490.86,-81.5141 468,-70 457.868,-64.8969 446.846,-59.6502 436.419,-54.8224"/>
<polygon fill="black" stroke="black" points="437.601,-51.5141 427.053,-50.5227 434.68,-57.8757 437.601,-51.5141"/>
</a>
</g>
<!-- http://latin.omdoc.org/math?Relation -->
<g id="node6" class="node"><title>http://latin.omdoc.org/math?Relation</title>
<a xlink:href="http://latin.omdoc.org/math?Relation" class="graphtheory">
<ellipse fill="gray" stroke="black" cx="561" cy="-210" rx="39.9464" ry="18"/>
<text text-anchor="middle" x="561" y="-206.3" font-family="Times New Roman,serif" font-size="14.00">Relation</text>
</a>
</g>
<!-- http://latin.omdoc.org/math?Relation&#45;&gt;http://latin.omdoc.org/math?MagmaFOL -->
<g id="edge3" class="edge"><title>http://latin.omdoc.org/math?Relation&#45;&gt;http://latin.omdoc.org/math?MagmaFOL</title>
<a xlink:href="http://latin.omdoc.org/math?OMRelation" class="graphview">
<path fill="none" stroke="black" d="M561,-191.597C561,-179.746 561,-163.817 561,-150.292"/>
<polygon fill="black" stroke="black" points="564.5,-150.084 561,-140.084 557.5,-150.084 564.5,-150.084"/>
</a>
<a xlink:href="http://latin.omdoc.org/math?OMRelation" class="OMRelation">
<text text-anchor="middle" x="595.5" y="-162.3" font-family="Times New Roman,serif" font-size="14.00">OMRelation</text>
</a>
</g>
<!-- http://latin.omdoc.org/math?Bottom -->
<g id="node8" class="node"><title>http://latin.omdoc.org/math?Bottom</title>
<a xlink:href="http://latin.omdoc.org/math?Bottom" class="graphtheory">
<ellipse fill="gray" stroke="black" cx="38" cy="-122" rx="38.0212" ry="18"/>
<text text-anchor="middle" x="38" y="-118.3" font-family="Times New Roman,serif" font-size="14.00">Bottom</text>
</a>
</g>
<!-- http://latin.omdoc.org/math?Relation&#45;&gt;http://latin.omdoc.org/math?Bottom -->
<g id="edge33" class="edge"><title>http://latin.omdoc.org/math?Relation&#45;&gt;http://latin.omdoc.org/math?Bottom</title>
<a class="graphinclude">
<path fill="none" stroke="black" d="M520.668,-209.255C437.172,-208.62 240.296,-201.068 86,-148 80.669,-146.166 75.2001,-143.819 69.951,-141.3"/>
<polygon fill="black" stroke="black" points="71.3167,-138.067 60.8168,-136.652 68.1423,-144.306 71.3167,-138.067"/>
</a>
</g>
<!-- http://latin.omdoc.org/math?Transitive -->
<g id="node10" class="node"><title>http://latin.omdoc.org/math?Transitive</title>
<a xlink:href="http://latin.omdoc.org/math?Transitive" class="graphtheory">
<ellipse fill="gray" stroke="black" cx="247" cy="-122" rx="46.2191" ry="18"/>
<text text-anchor="middle" x="247" y="-118.3" font-family="Times New Roman,serif" font-size="14.00">Transitive</text>
</a>
</g>
<!-- http://latin.omdoc.org/math?Relation&#45;&gt;http://latin.omdoc.org/math?Transitive -->
<g id="edge35" class="edge"><title>http://latin.omdoc.org/math?Relation&#45;&gt;http://latin.omdoc.org/math?Transitive</title>
<a class="graphinclude">
<path fill="none" stroke="black" d="M523.477,-203.211C471.557,-194.558 375.346,-176.187 297,-148 291.992,-146.198 286.834,-144.021 281.822,-141.712"/>
<polygon fill="black" stroke="black" points="282.965,-138.377 272.438,-137.173 279.916,-144.678 282.965,-138.377"/>
</a>
</g>
<!-- http://latin.omdoc.org/math?Reflexive -->
<g id="node12" class="node"><title>http://latin.omdoc.org/math?Reflexive</title>
<a xlink:href="http://latin.omdoc.org/math?Reflexive" class="graphtheory">
<ellipse fill="gray" stroke="black" cx="139" cy="-122" rx="44.2946" ry="18"/>
<text text-anchor="middle" x="139" y="-118.3" font-family="Times New Roman,serif" font-size="14.00">Reflexive</text>
</a>
</g>
<!-- http://latin.omdoc.org/math?Relation&#45;&gt;http://latin.omdoc.org/math?Reflexive -->
<g id="edge37" class="edge"><title>http://latin.omdoc.org/math?Relation&#45;&gt;http://latin.omdoc.org/math?Reflexive</title>
<a class="graphinclude">
<path fill="none" stroke="black" d="M521.567,-206.397C453.052,-201.019 308.227,-185.85 192,-148 185.969,-146.036 179.732,-143.546 173.748,-140.902"/>
<polygon fill="black" stroke="black" points="175.162,-137.7 164.616,-136.676 172.221,-144.053 175.162,-137.7"/>
</a>
</g>
<!-- http://latin.omdoc.org/math?Bottom&#45;&gt;http://latin.omdoc.org/math?NeutralElementFOL -->
<g id="edge5" class="edge"><title>http://latin.omdoc.org/math?Bottom&#45;&gt;http://latin.omdoc.org/math?NeutralElementFOL</title>
<a xlink:href="http://latin.omdoc.org/math?OMBottom" class="graphview">
<path fill="none" stroke="black" d="M57.1847,-106.128C73.4914,-94.3089 98.0117,-78.4123 122,-70 179.093,-49.9783 246.594,-41.2283 299.82,-37.4838"/>
<polygon fill="black" stroke="black" points="300.178,-40.9679 309.927,-36.8205 299.719,-33.983 300.178,-40.9679"/>
</a>
<a xlink:href="http://latin.omdoc.org/math?OMBottom" class="OMBottom">
<text text-anchor="middle" x="154.5" y="-74.3" font-family="Times New Roman,serif" font-size="14.00">OMBottom</text>
</a>
</g>
<!-- http://latin.omdoc.org/math?Transitive&#45;&gt;http://latin.omdoc.org/math?SemigroupFOL -->
<g id="edge7" class="edge"><title>http://latin.omdoc.org/math?Transitive&#45;&gt;http://latin.omdoc.org/math?SemigroupFOL</title>
<a xlink:href="http://latin.omdoc.org/math?OMTransitive" class="graphview">
<path fill="none" stroke="black" d="M279.973,-109.414C285.63,-107.534 291.468,-105.661 297,-104 367.118,-82.9467 448.786,-62.167 502.507,-49.0028"/>
<polygon fill="black" stroke="black" points="503.651,-52.3265 512.535,-46.5544 501.99,-45.5263 503.651,-52.3265"/>
</a>
<a xlink:href="http://latin.omdoc.org/math?OMTransitive" class="OMTransitive">
<text text-anchor="middle" x="452" y="-74.3" font-family="Times New Roman,serif" font-size="14.00">OMTransitive</text>
</a>
</g>
<!-- http://latin.omdoc.org/math?Reflexive&#45;&gt;http://latin.omdoc.org/math?NeutralElementFOL -->
<g id="edge9" class="edge"><title>http://latin.omdoc.org/math?Reflexive&#45;&gt;http://latin.omdoc.org/math?NeutralElementFOL</title>
<a xlink:href="http://latin.omdoc.org/math?OMReflexive" class="graphview">
<path fill="none" stroke="black" d="M158.814,-105.861C174.788,-94.3736 198.262,-79.0596 221,-70 249.581,-58.6125 282.389,-50.7524 311.575,-45.4128"/>
<polygon fill="black" stroke="black" points="312.491,-48.8056 321.734,-43.6277 311.279,-41.9112 312.491,-48.8056"/>
</a>
<a xlink:href="http://latin.omdoc.org/math?OMReflexive" class="OMReflexive">
<text text-anchor="middle" x="258.5" y="-74.3" font-family="Times New Roman,serif" font-size="14.00">OMReflexive</text>
</a>
</g>
<!-- http://latin.omdoc.org/math?Magma -->
<g id="node14" class="node"><title>http://latin.omdoc.org/math?Magma</title>
<a xlink:href="http://latin.omdoc.org/math?Magma" class="graphtheory">
<ellipse fill="gray" stroke="black" cx="657" cy="-210" rx="37.5442" ry="18"/>
<text text-anchor="middle" x="657" y="-206.3" font-family="Times New Roman,serif" font-size="14.00">Magma</text>
</a>
</g>
<!-- http://latin.omdoc.org/math?Magma&#45;&gt;http://latin.omdoc.org/math?MagmaFOL -->
<g id="edge11" class="edge"><title>http://latin.omdoc.org/math?Magma&#45;&gt;http://latin.omdoc.org/math?MagmaFOL</title>
<a xlink:href="http://latin.omdoc.org/math?MagmaFOL?Magma" class="graphstructure">
<path fill="none" stroke="black" d="M652.661,-192.116C649.145,-181.252 643.231,-167.449 634,-158 629.052,-152.935 616.693,-146.436 603.521,-140.416"/>
<polygon fill="black" stroke="black" points="604.914,-137.205 594.354,-136.348 602.075,-143.603 604.914,-137.205"/>
</a>
<a xlink:href="http://latin.omdoc.org/math?MagmaFOL?Magma" class="Magma">
<text text-anchor="middle" x="665" y="-162.3" font-family="Times New Roman,serif" font-size="14.00">Magma</text>
</a>
</g>
<!-- http://latin.omdoc.org/logics/proof_theory?IFOLEQ -->
<g id="node16" class="node"><title>http://latin.omdoc.org/logics/proof_theory?IFOLEQ</title>
<a xlink:href="http://latin.omdoc.org/logics/proof_theory?IFOLEQ" class="graphtheory">
<ellipse fill="gray" stroke="black" cx="1128" cy="-122" rx="43.319" ry="18"/>
<text text-anchor="middle" x="1128" y="-118.3" font-family="Times New Roman,serif" font-size="14.00">IFOLEQ</text>
</a>
</g>
<!-- http://latin.omdoc.org/logics/proof_theory?IFOLEQ&#45;&gt;http://latin.omdoc.org/math?MagmaFOL -->
<g id="edge13" class="edge"><title>http://latin.omdoc.org/logics/proof_theory?IFOLEQ&#45;&gt;http://latin.omdoc.org/math?MagmaFOL</title>
<a class="graphmeta">
<path fill="none" stroke="black" d="M1112.45,-138.838C1100.89,-150.058 1084.03,-163.835 1066,-170 1020.06,-185.707 675.28,-184.689 629,-170 613.445,-165.063 598.38,-155.14 586.4,-145.591"/>
<polygon fill="black" stroke="black" points="588.551,-142.828 578.631,-139.106 584.065,-148.201 588.551,-142.828"/>
</a>
</g>
<!-- http://latin.omdoc.org/logics/proof_theory?IFOLEQ&#45;&gt;http://latin.omdoc.org/math?CommutativeFOL -->
<g id="edge19" class="edge"><title>http://latin.omdoc.org/logics/proof_theory?IFOLEQ&#45;&gt;http://latin.omdoc.org/math?CommutativeFOL</title>
<a class="graphmeta">
<path fill="none" stroke="black" d="M1126.22,-103.527C1124.07,-92.1166 1119.36,-77.915 1109,-70 1085.66,-52.1692 914.568,-42.3791 808.149,-37.9565"/>
<polygon fill="black" stroke="black" points="808.194,-34.4555 798.06,-37.5452 807.909,-41.4497 808.194,-34.4555"/>
</a>
</g>
<!-- http://latin.omdoc.org/logics/proof_theory?IFOLEQ&#45;&gt;http://latin.omdoc.org/math?SemigroupFOL -->
<g id="edge25" class="edge"><title>http://latin.omdoc.org/logics/proof_theory?IFOLEQ&#45;&gt;http://latin.omdoc.org/math?SemigroupFOL</title>
<a class="graphmeta">
<path fill="none" stroke="black" d="M1105.83,-106.343C1086.07,-94.1425 1055.88,-77.5853 1027,-70 943.087,-47.9593 722.992,-63.5128 637,-52 630.844,-51.1758 624.45,-50.1 618.102,-48.8894"/>
<polygon fill="black" stroke="black" points="618.699,-45.4395 608.204,-46.893 617.315,-52.3013 618.699,-45.4395"/>
</a>
</g>
<!-- http://latin.omdoc.org/logics/proof_theory?IFOLEQ&#45;&gt;http://latin.omdoc.org/math?NeutralElementFOL -->
<g id="edge31" class="edge"><title>http://latin.omdoc.org/logics/proof_theory?IFOLEQ&#45;&gt;http://latin.omdoc.org/math?NeutralElementFOL</title>
<a class="graphmeta">
<path fill="none" stroke="black" d="M1096.33,-109.679C1089.38,-107.52 1082,-105.476 1075,-104 934.626,-74.3802 896.934,-82.3295 754,-70 634.179,-59.6642 603.333,-66.9518 484,-52 476.408,-51.0487 468.494,-49.8719 460.635,-48.5847"/>
<polygon fill="black" stroke="black" points="461.181,-45.1275 450.737,-46.9039 460.009,-52.0287 461.181,-45.1275"/>
</a>
</g>
<!-- http://latin.omdoc.org/math?Commutative -->
<g id="node18" class="node"><title>http://latin.omdoc.org/math?Commutative</title>
<a xlink:href="http://latin.omdoc.org/math?Commutative" class="graphtheory">
<ellipse fill="gray" stroke="black" cx="1249" cy="-122" rx="59.2173" ry="18"/>
<text text-anchor="middle" x="1249" y="-118.3" font-family="Times New Roman,serif" font-size="14.00">Commutative</text>
</a>
</g>
<!-- http://latin.omdoc.org/math?Commutative&#45;&gt;http://latin.omdoc.org/math?CommutativeFOL -->
<g id="edge15" class="edge"><title>http://latin.omdoc.org/math?Commutative&#45;&gt;http://latin.omdoc.org/math?CommutativeFOL</title>
<a xlink:href="http://latin.omdoc.org/math?CommutativeFOL?Commutative" class="graphstructure">
<path fill="none" stroke="black" d="M1220.54,-105.995C1196.55,-94.0965 1160.97,-78.1581 1128,-70 1020.47,-43.3957 892.559,-36.2574 809.676,-34.7162"/>
<polygon fill="black" stroke="black" points="809.6,-31.2146 799.545,-34.5516 809.486,-38.2137 809.6,-31.2146"/>
</a>
<a xlink:href="http://latin.omdoc.org/math?CommutativeFOL?Commutative" class="Commutative">
<text text-anchor="middle" x="1212.5" y="-74.3" font-family="Times New Roman,serif" font-size="14.00">Commutative</text>
</a>
</g>
<!-- http://latin.omdoc.org/math?Semigroup -->
<g id="node22" class="node"><title>http://latin.omdoc.org/math?Semigroup</title>
<a xlink:href="http://latin.omdoc.org/math?Semigroup" class="graphtheory">
<ellipse fill="gray" stroke="black" cx="1016" cy="-122" rx="50.0684" ry="18"/>
<text text-anchor="middle" x="1016" y="-118.3" font-family="Times New Roman,serif" font-size="14.00">Semigroup</text>
</a>
</g>
<!-- http://latin.omdoc.org/math?Semigroup&#45;&gt;http://latin.omdoc.org/math?SemigroupFOL -->
<g id="edge21" class="edge"><title>http://latin.omdoc.org/math?Semigroup&#45;&gt;http://latin.omdoc.org/math?SemigroupFOL</title>
<a xlink:href="http://latin.omdoc.org/math?SemigroupFOL?Semigroup" class="graphstructure">
<path fill="none" stroke="black" d="M995.065,-105.471C977.578,-93.4345 951.478,-77.5719 926,-70 802.639,-33.3385 764.414,-70.1026 637,-52 631.083,-51.1593 624.943,-50.1021 618.835,-48.9282"/>
<polygon fill="black" stroke="black" points="619.123,-45.4157 608.628,-46.8601 617.733,-52.2763 619.123,-45.4157"/>
</a>
<a xlink:href="http://latin.omdoc.org/math?SemigroupFOL?Semigroup" class="Semigroup">
<text text-anchor="middle" x="992.5" y="-74.3" font-family="Times New Roman,serif" font-size="14.00">Semigroup</text>
</a>
</g>
<!-- http://latin.omdoc.org/math?NeutralElement -->
<g id="node26" class="node"><title>http://latin.omdoc.org/math?NeutralElement</title>
<a xlink:href="http://latin.omdoc.org/math?NeutralElement" class="graphtheory">
<ellipse fill="gray" stroke="black" cx="882" cy="-122" rx="65.4659" ry="18"/>
<text text-anchor="middle" x="882" y="-118.3" font-family="Times New Roman,serif" font-size="14.00">NeutralElement</text>
</a>
</g>
<!-- http://latin.omdoc.org/math?NeutralElement&#45;&gt;http://latin.omdoc.org/math?NeutralElementFOL -->
<g id="edge27" class="edge"><title>http://latin.omdoc.org/math?NeutralElement&#45;&gt;http://latin.omdoc.org/math?NeutralElementFOL</title>
<a xlink:href="http://latin.omdoc.org/math?NeutralElementFOL?Neutral" class="graphstructure">
<path fill="none" stroke="black" d="M835.804,-109.221C827.888,-107.363 819.725,-105.548 812,-104 667.278,-75.0042 629.471,-76.9674 484,-52 477.224,-50.837 470.173,-49.5938 463.124,-48.3288"/>
<polygon fill="black" stroke="black" points="463.294,-44.8027 452.83,-46.4666 462.048,-51.6909 463.294,-44.8027"/>
</a>
<a xlink:href="http://latin.omdoc.org/math?NeutralElementFOL?Neutral" class="Neutral">
<text text-anchor="middle" x="730" y="-74.3" font-family="Times New Roman,serif" font-size="14.00">Neutral</text>
</a>
</g>
</g>
</svg>
