<?xml version="1.0" encoding="UTF-8" standalone="no"?>
<!DOCTYPE svg PUBLIC "-//W3C//DTD SVG 1.1//EN"
 "http://www.w3.org/Graphics/SVG/1.1/DTD/svg11.dtd">
<!-- Generated by graphviz version 2.28.0 (20110507.0327)
 -->
<!-- Title: MMT Pages: 1 -->
<svg width="253pt" height="296pt"
 viewBox="0.00 0.00 253.15 296.00" xmlns="http://www.w3.org/2000/svg" xmlns:xlink="http://www.w3.org/1999/xlink">
<g id="graph1" class="graph" transform="scale(1 1) rotate(0) translate(4 292)">
<title>MMT</title>
<polygon fill="white" stroke="white" points="-4,5 -4,-292 250.15,-292 250.15,5 -4,5"/>
<g id="graph2" class="cluster"><title>cluster_local</title>
<polygon fill="none" stroke="black" points="133.15,-8 133.15,-148 237.15,-148 237.15,-8 133.15,-8"/>
</g>
<!-- http://latin.omdoc.org/math?PointsEq -->
<g id="node2" class="node"><title>http://latin.omdoc.org/math?PointsEq</title>
<a xlink:href="http://latin.omdoc.org/math?PointsEq" class="graphtheory">
<ellipse fill="none" stroke="black" cx="185.15" cy="-34" rx="44.2946" ry="18"/>
<text text-anchor="middle" x="185.15" y="-30.3" font-family="Times New Roman,serif" font-size="14.00">PointsEq</text>
</a>
</g>
<!-- http://latin.omdoc.org/math?Points -->
<g id="node3" class="node"><title>http://latin.omdoc.org/math?Points</title>
<a xlink:href="http://latin.omdoc.org/math?Points" class="graphtheory">
<ellipse fill="none" stroke="black" cx="185.15" cy="-122" rx="33.1991" ry="18"/>
<text text-anchor="middle" x="185.15" y="-118.3" font-family="Times New Roman,serif" font-size="14.00">Points</text>
</a>
</g>
<!-- http://latin.omdoc.org/math?Points&#45;&gt;http://latin.omdoc.org/math?PointsEq -->
<g id="edge7" class="edge"><title>http://latin.omdoc.org/math?Points&#45;&gt;http://latin.omdoc.org/math?PointsEq</title>
<a class="graphinclude">
<path fill="none" stroke="black" d="M185.15,-103.597C185.15,-91.7459 185.15,-75.8169 185.15,-62.2917"/>
<polygon fill="black" stroke="black" points="188.65,-62.084 185.15,-52.084 181.65,-62.084 188.65,-62.084"/>
</a>
</g>
<!-- http://latin.omdoc.org/math?EqUniverse -->
<g id="node4" class="node"><title>http://latin.omdoc.org/math?EqUniverse</title>
<a xlink:href="http://latin.omdoc.org/math?EqUniverse" class="graphtheory">
<ellipse fill="gray" stroke="black" cx="71.1498" cy="-122" rx="52.4675" ry="18"/>
<text text-anchor="middle" x="71.1498" y="-118.3" font-family="Times New Roman,serif" font-size="14.00">EqUniverse</text>
</a>
</g>
<!-- http://latin.omdoc.org/math?EqUniverse&#45;&gt;http://latin.omdoc.org/math?PointsEq -->
<g id="edge3" class="edge"><title>http://latin.omdoc.org/math?EqUniverse&#45;&gt;http://latin.omdoc.org/math?PointsEq</title>
<a xlink:href="http://latin.omdoc.org/math?PointsEq?pointwiseEqUniverse" class="graphstructure">
<path fill="none" stroke="black" d="M62.5068,-103.827C58.4534,-93.1155 55.9228,-79.5918 63.1498,-70 78.8246,-49.196 106.037,-40.1422 130.79,-36.4229"/>
<polygon fill="black" stroke="black" points="131.352,-39.88 140.844,-35.1726 130.489,-32.9335 131.352,-39.88"/>
</a>
<a xlink:href="http://latin.omdoc.org/math?PointsEq?pointwiseEqUniverse" class="pointwiseEqUniverse">
<text text-anchor="middle" x="122.15" y="-74.3" font-family="Times New Roman,serif" font-size="14.00">pointwiseEqUniverse</text>
</a>
</g>
<!-- http://latin.omdoc.org/math?EqUniverse&#45;&gt;http://latin.omdoc.org/math?PointsEq -->
<g id="edge5" class="edge"><title>http://latin.omdoc.org/math?EqUniverse&#45;&gt;http://latin.omdoc.org/math?PointsEq</title>
<a class="graphinclude">
<path fill="none" stroke="black" d="M58.8384,-104.491C52.4684,-93.7845 47.473,-80.017 55.1498,-70 64.932,-57.2358 101.76,-48.081 133.731,-42.3434"/>
<polygon fill="black" stroke="black" points="134.635,-45.7396 143.9,-40.6004 133.452,-38.8402 134.635,-45.7396"/>
</a>
</g>
<!-- http://cds.omdoc.org/urtheories?LF -->
<g id="node8" class="node"><title>http://cds.omdoc.org/urtheories?LF</title>
<a xlink:href="http://cds.omdoc.org/urtheories?LF" class="graphtheory">
<ellipse fill="gray" stroke="black" cx="185.15" cy="-270" rx="27" ry="18"/>
<text text-anchor="middle" x="185.15" y="-266.3" font-family="Times New Roman,serif" font-size="14.00">LF</text>
</a>
</g>
<!-- http://cds.omdoc.org/urtheories?LF&#45;&gt;http://latin.omdoc.org/math?PointsEq -->
<g id="edge9" class="edge"><title>http://cds.omdoc.org/urtheories?LF&#45;&gt;http://latin.omdoc.org/math?PointsEq</title>
<a class="graphmeta">
<path fill="none" stroke="black" d="M159.663,-263.507C137.091,-258.009 103.7,-248.3 77.1498,-234 19.7428,-203.079 -17.8479,-163.353 9.14976,-104 29.6989,-58.8236 87.3833,-42.9427 131.161,-37.5108"/>
<polygon fill="black" stroke="black" points="131.553,-40.9889 141.114,-36.4228 130.792,-34.0303 131.553,-40.9889"/>
</a>
</g>
<!-- http://cds.omdoc.org/urtheories?LF&#45;&gt;http://latin.omdoc.org/math?Points -->
<g id="edge13" class="edge"><title>http://cds.omdoc.org/urtheories?LF&#45;&gt;http://latin.omdoc.org/math?Points</title>
<a class="graphmeta">
<path fill="none" stroke="black" d="M185.15,-251.966C185.15,-227.045 185.15,-180.374 185.15,-150.537"/>
<polygon fill="black" stroke="black" points="188.65,-150.378 185.15,-140.378 181.65,-150.378 188.65,-150.378"/>
</a>
</g>
<!-- http://cds.omdoc.org/urtheories?LF&#45;&gt;http://latin.omdoc.org/math?EqUniverse -->
<g id="edge19" class="edge"><title>http://cds.omdoc.org/urtheories?LF&#45;&gt;http://latin.omdoc.org/math?EqUniverse</title>
<a class="graphmeta">
<path fill="none" stroke="black" d="M159.009,-265.427C130.148,-259.933 85.0124,-246.4 64.1498,-214 51.9336,-195.028 55.4746,-169.004 61.0223,-149.645"/>
<polygon fill="black" stroke="black" points="64.416,-150.523 64.1281,-139.932 57.7486,-148.391 64.416,-150.523"/>
</a>
</g>
<!-- http://latin.omdoc.org/math?Universe -->
<g id="node10" class="node"><title>http://latin.omdoc.org/math?Universe</title>
<a xlink:href="http://latin.omdoc.org/math?Universe" class="graphtheory">
<ellipse fill="gray" stroke="black" cx="115.15" cy="-196" rx="42.3701" ry="18"/>
<text text-anchor="middle" x="115.15" y="-192.3" font-family="Times New Roman,serif" font-size="14.00">Universe</text>
</a>
</g>
<!-- http://cds.omdoc.org/urtheories?LF&#45;&gt;http://latin.omdoc.org/math?Universe -->
<g id="edge17" class="edge"><title>http://cds.omdoc.org/urtheories?LF&#45;&gt;http://latin.omdoc.org/math?Universe</title>
<a class="graphmeta">
<path fill="none" stroke="black" d="M170.984,-254.43C161.441,-244.614 148.649,-231.457 137.717,-220.212"/>
<polygon fill="black" stroke="black" points="139.989,-217.528 130.509,-212.798 134.97,-222.408 139.989,-217.528"/>
</a>
</g>
<!-- http://latin.omdoc.org/math?Universe&#45;&gt;http://latin.omdoc.org/math?Points -->
<g id="edge11" class="edge"><title>http://latin.omdoc.org/math?Universe&#45;&gt;http://latin.omdoc.org/math?Points</title>
<a class="graphinclude">
<path fill="none" stroke="black" d="M130.685,-179.021C140.149,-169.286 152.398,-156.688 162.881,-145.905"/>
<polygon fill="black" stroke="black" points="165.677,-148.05 170.138,-138.44 160.658,-143.17 165.677,-148.05"/>
</a>
</g>
<!-- http://latin.omdoc.org/math?Universe&#45;&gt;http://latin.omdoc.org/math?EqUniverse -->
<g id="edge15" class="edge"><title>http://latin.omdoc.org/math?Universe&#45;&gt;http://latin.omdoc.org/math?EqUniverse</title>
<a class="graphinclude">
<path fill="none" stroke="black" d="M104.945,-178.301C99.5801,-169.522 92.8871,-158.57 86.8761,-148.734"/>
<polygon fill="black" stroke="black" points="89.8061,-146.816 81.605,-140.109 83.8331,-150.467 89.8061,-146.816"/>
</a>
</g>
</g>
</svg>
