<?xml version="1.0" encoding="UTF-8" standalone="no"?>
<!DOCTYPE svg PUBLIC "-//W3C//DTD SVG 1.1//EN"
 "http://www.w3.org/Graphics/SVG/1.1/DTD/svg11.dtd">
<!-- Generated by graphviz version 2.28.0 (20110507.0327)
 -->
<!-- Title: MMT Pages: 1 -->
<svg width="752pt" height="222pt"
 viewBox="0.00 0.00 752.00 222.00" xmlns="http://www.w3.org/2000/svg" xmlns:xlink="http://www.w3.org/1999/xlink">
<g id="graph1" class="graph" transform="scale(1 1) rotate(0) translate(4 218)">
<title>MMT</title>
<polygon fill="white" stroke="white" points="-4,5 -4,-218 749,-218 749,5 -4,5"/>
<g id="graph2" class="cluster"><title>cluster_local</title>
<polygon fill="none" stroke="black" points="255,-8 255,-60 325,-60 325,-8 255,-8"/>
</g>
<!-- http://latin.omdoc.org/math?Rat -->
<g id="node2" class="node"><title>http://latin.omdoc.org/math?Rat</title>
<a xlink:href="http://latin.omdoc.org/math?Rat" class="graphtheory">
<ellipse fill="none" stroke="black" cx="290" cy="-34" rx="27" ry="18"/>
<text text-anchor="middle" x="290" y="-30.3" font-family="Times New Roman,serif" font-size="14.00">Rat</text>
</a>
</g>
<!-- http://latin.omdoc.org/math?Monotonous -->
<g id="node3" class="node"><title>http://latin.omdoc.org/math?Monotonous</title>
<a xlink:href="http://latin.omdoc.org/math?Monotonous" class="graphtheory">
<ellipse fill="gray" stroke="black" cx="57" cy="-122" rx="57.2688" ry="18"/>
<text text-anchor="middle" x="57" y="-118.3" font-family="Times New Roman,serif" font-size="14.00">Monotonous</text>
</a>
</g>
<!-- http://latin.omdoc.org/math?Monotonous&#45;&gt;http://latin.omdoc.org/math?Rat -->
<g id="edge3" class="edge"><title>http://latin.omdoc.org/math?Monotonous&#45;&gt;http://latin.omdoc.org/math?Rat</title>
<a xlink:href="http://latin.omdoc.org/math?Rat?+monotonous" class="graphstructure">
<path fill="none" stroke="black" d="M52.2162,-103.854C50.2697,-92.8799 50.0554,-79.0521 58,-70 82.9672,-41.5525 193.948,-35.9628 252.902,-35.0356"/>
<polygon fill="black" stroke="black" points="252.972,-38.5351 262.929,-34.915 252.887,-31.5356 252.972,-38.5351"/>
</a>
<a xlink:href="http://latin.omdoc.org/math?Rat?+monotonous" class="+monotonous">
<text text-anchor="middle" x="97.5" y="-74.3" font-family="Times New Roman,serif" font-size="14.00">+monotonous</text>
</a>
</g>
<!-- http://latin.omdoc.org/math?Total -->
<g id="node5" class="node"><title>http://latin.omdoc.org/math?Total</title>
<a xlink:href="http://latin.omdoc.org/math?Total" class="graphtheory">
<ellipse fill="gray" stroke="black" cx="209" cy="-122" rx="29.3479" ry="18"/>
<text text-anchor="middle" x="209" y="-118.3" font-family="Times New Roman,serif" font-size="14.00">Total</text>
</a>
</g>
<!-- http://latin.omdoc.org/math?Total&#45;&gt;http://latin.omdoc.org/math?Rat -->
<g id="edge5" class="edge"><title>http://latin.omdoc.org/math?Total&#45;&gt;http://latin.omdoc.org/math?Rat</title>
<a class="graphinclude">
<path fill="none" stroke="black" d="M223.109,-106.02C235.847,-92.4963 254.752,-72.4233 269.219,-57.0643"/>
<polygon fill="black" stroke="black" points="272.014,-59.2011 276.322,-49.5218 266.918,-54.4017 272.014,-59.2011"/>
</a>
</g>
<!-- http://latin.omdoc.org/math?Dense -->
<g id="node7" class="node"><title>http://latin.omdoc.org/math?Dense</title>
<a xlink:href="http://latin.omdoc.org/math?Dense" class="graphtheory">
<ellipse fill="gray" stroke="black" cx="290" cy="-122" rx="33.2209" ry="18"/>
<text text-anchor="middle" x="290" y="-118.3" font-family="Times New Roman,serif" font-size="14.00">Dense</text>
</a>
</g>
<!-- http://latin.omdoc.org/math?Dense&#45;&gt;http://latin.omdoc.org/math?Rat -->
<g id="edge7" class="edge"><title>http://latin.omdoc.org/math?Dense&#45;&gt;http://latin.omdoc.org/math?Rat</title>
<a class="graphinclude">
<path fill="none" stroke="black" d="M290,-103.597C290,-91.7459 290,-75.8169 290,-62.2917"/>
<polygon fill="black" stroke="black" points="293.5,-62.084 290,-52.084 286.5,-62.084 293.5,-62.084"/>
</a>
</g>
<!-- http://latin.omdoc.org/math?Field -->
<g id="node9" class="node"><title>http://latin.omdoc.org/math?Field</title>
<a xlink:href="http://latin.omdoc.org/math?Field" class="graphtheory">
<ellipse fill="gray" stroke="black" cx="716" cy="-122" rx="28.3955" ry="18"/>
<text text-anchor="middle" x="716" y="-118.3" font-family="Times New Roman,serif" font-size="14.00">Field</text>
</a>
</g>
<!-- http://latin.omdoc.org/math?Field&#45;&gt;http://latin.omdoc.org/math?Rat -->
<g id="edge9" class="edge"><title>http://latin.omdoc.org/math?Field&#45;&gt;http://latin.omdoc.org/math?Rat</title>
<a class="graphinclude">
<path fill="none" stroke="black" d="M694.065,-110.369C688.585,-108.013 682.656,-105.711 677,-104 551.489,-66.0325 396.381,-46.189 326.804,-38.6513"/>
<polygon fill="black" stroke="black" points="327.094,-35.1625 316.78,-37.587 326.355,-42.1234 327.094,-35.1625"/>
</a>
</g>
<!-- http://latin.omdoc.org/math?UnboundedBelow -->
<g id="node11" class="node"><title>http://latin.omdoc.org/math?UnboundedBelow</title>
<a xlink:href="http://latin.omdoc.org/math?UnboundedBelow" class="graphtheory">
<ellipse fill="gray" stroke="black" cx="418" cy="-122" rx="76.5394" ry="18"/>
<text text-anchor="middle" x="418" y="-118.3" font-family="Times New Roman,serif" font-size="14.00">UnboundedBelow</text>
</a>
</g>
<!-- http://latin.omdoc.org/math?UnboundedBelow&#45;&gt;http://latin.omdoc.org/math?Rat -->
<g id="edge11" class="edge"><title>http://latin.omdoc.org/math?UnboundedBelow&#45;&gt;http://latin.omdoc.org/math?Rat</title>
<a class="graphinclude">
<path fill="none" stroke="black" d="M393.924,-104.824C372.059,-90.1336 339.843,-68.4885 317.087,-53.1993"/>
<polygon fill="black" stroke="black" points="318.824,-50.1496 308.572,-47.4778 314.92,-55.96 318.824,-50.1496"/>
</a>
</g>
<!-- http://latin.omdoc.org/math?UnboundedAbove -->
<g id="node13" class="node"><title>http://latin.omdoc.org/math?UnboundedAbove</title>
<a xlink:href="http://latin.omdoc.org/math?UnboundedAbove" class="graphtheory">
<ellipse fill="gray" stroke="black" cx="591" cy="-122" rx="77.4897" ry="18"/>
<text text-anchor="middle" x="591" y="-118.3" font-family="Times New Roman,serif" font-size="14.00">UnboundedAbove</text>
</a>
</g>
<!-- http://latin.omdoc.org/math?UnboundedAbove&#45;&gt;http://latin.omdoc.org/math?Rat -->
<g id="edge13" class="edge"><title>http://latin.omdoc.org/math?UnboundedAbove&#45;&gt;http://latin.omdoc.org/math?Rat</title>
<a class="graphinclude">
<path fill="none" stroke="black" d="M543.969,-107.563C482.923,-90.1208 377.856,-60.1018 324,-44.7142"/>
<polygon fill="black" stroke="black" points="324.827,-41.3105 314.25,-41.9286 322.904,-48.0412 324.827,-41.3105"/>
</a>
</g>
<!-- http://latin.omdoc.org/logics/proof_theory?IFOLEQ -->
<g id="node15" class="node"><title>http://latin.omdoc.org/logics/proof_theory?IFOLEQ</title>
<a xlink:href="http://latin.omdoc.org/logics/proof_theory?IFOLEQ" class="graphtheory">
<ellipse fill="gray" stroke="black" cx="290" cy="-196" rx="43.319" ry="18"/>
<text text-anchor="middle" x="290" y="-192.3" font-family="Times New Roman,serif" font-size="14.00">IFOLEQ</text>
</a>
</g>
<!-- http://latin.omdoc.org/logics/proof_theory?IFOLEQ&#45;&gt;http://latin.omdoc.org/math?Rat -->
<g id="edge15" class="edge"><title>http://latin.omdoc.org/logics/proof_theory?IFOLEQ&#45;&gt;http://latin.omdoc.org/math?Rat</title>
<a class="graphmeta">
<path fill="none" stroke="black" d="M250.552,-188.361C222.821,-181.413 187.637,-167.485 170,-140 143.244,-98.3042 212.543,-63.5908 256.673,-46.4747"/>
<polygon fill="black" stroke="black" points="258.069,-49.6891 266.201,-42.8978 255.609,-43.1357 258.069,-49.6891"/>
</a>
</g>
<!-- http://latin.omdoc.org/logics/proof_theory?IFOLEQ&#45;&gt;http://latin.omdoc.org/math?Total -->
<g id="edge21" class="edge"><title>http://latin.omdoc.org/logics/proof_theory?IFOLEQ&#45;&gt;http://latin.omdoc.org/math?Total</title>
<a class="graphmeta">
<path fill="none" stroke="black" d="M272.424,-179.377C260.788,-169.033 245.386,-155.343 232.675,-144.044"/>
<polygon fill="black" stroke="black" points="234.964,-141.397 225.165,-137.369 230.314,-146.629 234.964,-141.397"/>
</a>
</g>
<!-- http://latin.omdoc.org/logics/proof_theory?IFOLEQ&#45;&gt;http://latin.omdoc.org/math?Dense -->
<g id="edge23" class="edge"><title>http://latin.omdoc.org/logics/proof_theory?IFOLEQ&#45;&gt;http://latin.omdoc.org/math?Dense</title>
<a class="graphmeta">
<path fill="none" stroke="black" d="M290,-177.937C290,-169.807 290,-159.876 290,-150.705"/>
<polygon fill="black" stroke="black" points="293.5,-150.441 290,-140.441 286.5,-150.441 293.5,-150.441"/>
</a>
</g>
<!-- http://latin.omdoc.org/logics/proof_theory?IFOLEQ&#45;&gt;http://latin.omdoc.org/math?UnboundedBelow -->
<g id="edge17" class="edge"><title>http://latin.omdoc.org/logics/proof_theory?IFOLEQ&#45;&gt;http://latin.omdoc.org/math?UnboundedBelow</title>
<a class="graphmeta">
<path fill="none" stroke="black" d="M314.68,-181.118C333.495,-170.534 359.714,-155.786 381.031,-143.795"/>
<polygon fill="black" stroke="black" points="382.831,-146.798 389.831,-138.845 379.399,-140.697 382.831,-146.798"/>
</a>
</g>
<!-- http://latin.omdoc.org/logics/proof_theory?IFOLEQ&#45;&gt;http://latin.omdoc.org/math?UnboundedAbove -->
<g id="edge19" class="edge"><title>http://latin.omdoc.org/logics/proof_theory?IFOLEQ&#45;&gt;http://latin.omdoc.org/math?UnboundedAbove</title>
<a class="graphmeta">
<path fill="none" stroke="black" d="M326.608,-186.243C376.919,-174.209 468.125,-152.392 529.137,-137.798"/>
<polygon fill="black" stroke="black" points="530.122,-141.161 539.033,-135.431 528.493,-134.353 530.122,-141.161"/>
</a>
</g>
</g>
</svg>
