<?xml version="1.0" encoding="UTF-8" standalone="no"?>
<!DOCTYPE svg PUBLIC "-//W3C//DTD SVG 1.1//EN"
 "http://www.w3.org/Graphics/SVG/1.1/DTD/svg11.dtd">
<!-- Generated by graphviz version 2.28.0 (20110507.0327)
 -->
<!-- Title: MMT Pages: 1 -->
<svg
 viewBox="0.00 0.00 1023.00 720.00" xmlns="http://www.w3.org/2000/svg" xmlns:xlink="http://www.w3.org/1999/xlink">
<g id="graph1" class="graph" transform="scale(1 1) rotate(0) translate(4 716)">
<title>MMT</title>
<polygon fill="white" stroke="white" points="-4,5 -4,-716 1020,-716 1020,5 -4,5"/>
<g id="graph2" class="cluster"><title>cluster_local</title>
<polygon fill="none" stroke="black" points="400,-66 400,-632 884,-632 884,-66 400,-66"/>
</g>
<!-- http://latin.omdoc.org/math?RingUnit -->
<g id="node2" class="node"><title>http://latin.omdoc.org/math?RingUnit</title>
<a xlink:href="http://latin.omdoc.org/math?RingUnit" class="graphtheory">
<ellipse fill="none" stroke="black" cx="597" cy="-342" rx="42.3456" ry="18"/>
<text text-anchor="middle" x="597" y="-338.3" font-family="Times New Roman,serif" font-size="14.00">RingUnit</text>
</a>
</g>
<!-- http://latin.omdoc.org/math?RingUnitCommut -->
<g id="node6" class="node"><title>http://latin.omdoc.org/math?RingUnitCommut</title>
<a xlink:href="http://latin.omdoc.org/math?RingUnitCommut" class="graphtheory">
<ellipse fill="none" stroke="black" cx="781" cy="-254" rx="74.6146" ry="18"/>
<text text-anchor="middle" x="781" y="-250.3" font-family="Times New Roman,serif" font-size="14.00">RingUnitCommut</text>
</a>
</g>
<!-- http://latin.omdoc.org/math?RingUnit&#45;&gt;http://latin.omdoc.org/math?RingUnitCommut -->
<g id="edge35" class="edge"><title>http://latin.omdoc.org/math?RingUnit&#45;&gt;http://latin.omdoc.org/math?RingUnitCommut</title>
<a class="graphinclude">
<path fill="none" stroke="black" d="M624.547,-328.125C654.787,-313.991 703.699,-291.13 738.786,-274.731"/>
<polygon fill="black" stroke="black" points="740.711,-277.694 748.288,-270.289 737.747,-271.353 740.711,-277.694"/>
</a>
</g>
<!-- http://latin.omdoc.org/math?DifferentialRing -->
<g id="node7" class="node"><title>http://latin.omdoc.org/math?DifferentialRing</title>
<a xlink:href="http://latin.omdoc.org/math?DifferentialRing" class="graphtheory">
<ellipse fill="none" stroke="black" cx="621" cy="-254" rx="67.3907" ry="18"/>
<text text-anchor="middle" x="621" y="-250.3" font-family="Times New Roman,serif" font-size="14.00">DifferentialRing</text>
</a>
</g>
<!-- http://latin.omdoc.org/math?RingUnit&#45;&gt;http://latin.omdoc.org/math?DifferentialRing -->
<g id="edge41" class="edge"><title>http://latin.omdoc.org/math?RingUnit&#45;&gt;http://latin.omdoc.org/math?DifferentialRing</title>
<a class="graphinclude">
<path fill="none" stroke="black" d="M601.742,-324.009C605.095,-311.995 609.658,-295.641 613.502,-281.869"/>
<polygon fill="black" stroke="black" points="616.951,-282.528 616.268,-271.956 610.209,-280.647 616.951,-282.528"/>
</a>
</g>
<!-- http://latin.omdoc.org/math?RingUnitLogic -->
<g id="node14" class="node"><title>http://latin.omdoc.org/math?RingUnitLogic</title>
<a xlink:href="http://latin.omdoc.org/math?RingUnitLogic" class="graphtheory">
<ellipse fill="none" stroke="black" cx="472" cy="-254" rx="63.5411" ry="18"/>
<text text-anchor="middle" x="472" y="-250.3" font-family="Times New Roman,serif" font-size="14.00">RingUnitLogic</text>
</a>
</g>
<!-- http://latin.omdoc.org/math?RingUnit&#45;&gt;http://latin.omdoc.org/math?RingUnitLogic -->
<g id="edge81" class="edge"><title>http://latin.omdoc.org/math?RingUnit&#45;&gt;http://latin.omdoc.org/math?RingUnitLogic</title>
<a xlink:href="http://latin.omdoc.org/math?RingUnitLogic?ring" class="graphstructure">
<path fill="none" stroke="black" d="M575.512,-326.216C555.792,-312.649 526.321,-292.373 503.862,-276.921"/>
<polygon fill="black" stroke="black" points="505.551,-273.835 495.328,-271.05 501.583,-279.601 505.551,-273.835"/>
</a>
<a xlink:href="http://latin.omdoc.org/math?RingUnitLogic?ring" class="ring">
<text text-anchor="middle" x="557" y="-294.3" font-family="Times New Roman,serif" font-size="14.00">ring</text>
</a>
</g>
<!-- http://latin.omdoc.org/math?LieRing -->
<g id="node3" class="node"><title>http://latin.omdoc.org/math?LieRing</title>
<a xlink:href="http://latin.omdoc.org/math?LieRing" class="graphtheory">
<ellipse fill="none" stroke="black" cx="682" cy="-430" rx="38.4949" ry="18"/>
<text text-anchor="middle" x="682" y="-426.3" font-family="Times New Roman,serif" font-size="14.00">LieRing</text>
</a>
</g>
<!-- http://latin.omdoc.org/math?Field -->
<g id="node4" class="node"><title>http://latin.omdoc.org/math?Field</title>
<a xlink:href="http://latin.omdoc.org/math?Field" class="graphtheory">
<ellipse fill="none" stroke="black" cx="615" cy="-92" rx="28.3955" ry="18"/>
<text text-anchor="middle" x="615" y="-88.3" font-family="Times New Roman,serif" font-size="14.00">Field</text>
</a>
</g>
<!-- http://latin.omdoc.org/math?Rat -->
<g id="node27" class="node"><title>http://latin.omdoc.org/math?Rat</title>
<a xlink:href="http://latin.omdoc.org/math?Rat" class="graphtheory">
<ellipse fill="gray" stroke="black" cx="615" cy="-18" rx="27" ry="18"/>
<text text-anchor="middle" x="615" y="-14.3" font-family="Times New Roman,serif" font-size="14.00">Rat</text>
</a>
</g>
<!-- http://latin.omdoc.org/math?Field&#45;&gt;http://latin.omdoc.org/math?Rat -->
<g id="edge19" class="edge"><title>http://latin.omdoc.org/math?Field&#45;&gt;http://latin.omdoc.org/math?Rat</title>
<a class="graphinclude">
<path fill="none" stroke="black" d="M615,-73.937C615,-65.8072 615,-55.8761 615,-46.7047"/>
<polygon fill="black" stroke="black" points="618.5,-46.4406 615,-36.4407 611.5,-46.4407 618.5,-46.4406"/>
</a>
</g>
<!-- http://latin.omdoc.org/math?Distrib -->
<g id="node5" class="node"><title>http://latin.omdoc.org/math?Distrib</title>
<a xlink:href="http://latin.omdoc.org/math?Distrib" class="graphtheory">
<ellipse fill="none" stroke="black" cx="682" cy="-518" rx="35.1455" ry="18"/>
<text text-anchor="middle" x="682" y="-514.3" font-family="Times New Roman,serif" font-size="14.00">Distrib</text>
</a>
</g>
<!-- http://latin.omdoc.org/math?Distrib&#45;&gt;http://latin.omdoc.org/math?LieRing -->
<g id="edge11" class="edge"><title>http://latin.omdoc.org/math?Distrib&#45;&gt;http://latin.omdoc.org/math?LieRing</title>
<a xlink:href="http://latin.omdoc.org/math?LieRing?bilinearity" class="graphstructure">
<path fill="none" stroke="black" d="M682,-499.597C682,-487.746 682,-471.817 682,-458.292"/>
<polygon fill="black" stroke="black" points="685.5,-458.084 682,-448.084 678.5,-458.084 685.5,-458.084"/>
</a>
<a xlink:href="http://latin.omdoc.org/math?LieRing?bilinearity" class="bilinearity">
<text text-anchor="middle" x="709" y="-470.3" font-family="Times New Roman,serif" font-size="14.00">bilinearity</text>
</a>
</g>
<!-- http://latin.omdoc.org/math?JordanRing -->
<g id="node8" class="node"><title>http://latin.omdoc.org/math?JordanRing</title>
<a xlink:href="http://latin.omdoc.org/math?JordanRing" class="graphtheory">
<ellipse fill="none" stroke="black" cx="791" cy="-430" rx="51.4931" ry="18"/>
<text text-anchor="middle" x="791" y="-426.3" font-family="Times New Roman,serif" font-size="14.00">JordanRing</text>
</a>
</g>
<!-- http://latin.omdoc.org/math?Distrib&#45;&gt;http://latin.omdoc.org/math?JordanRing -->
<g id="edge45" class="edge"><title>http://latin.omdoc.org/math?Distrib&#45;&gt;http://latin.omdoc.org/math?JordanRing</title>
<a xlink:href="http://latin.omdoc.org/math?JordanRing?bilinearity" class="graphstructure">
<path fill="none" stroke="black" d="M700.49,-502.411C717.603,-488.909 743.29,-468.642 762.933,-453.145"/>
<polygon fill="black" stroke="black" points="765.256,-455.77 770.938,-446.829 760.92,-450.275 765.256,-455.77"/>
</a>
<a xlink:href="http://latin.omdoc.org/math?JordanRing?bilinearity" class="bilinearity">
<text text-anchor="middle" x="771" y="-470.3" font-family="Times New Roman,serif" font-size="14.00">bilinearity</text>
</a>
</g>
<!-- http://latin.omdoc.org/math?Ring -->
<g id="node13" class="node"><title>http://latin.omdoc.org/math?Ring</title>
<a xlink:href="http://latin.omdoc.org/math?Ring" class="graphtheory">
<ellipse fill="none" stroke="black" cx="597" cy="-430" rx="27.4223" ry="18"/>
<text text-anchor="middle" x="597" y="-426.3" font-family="Times New Roman,serif" font-size="14.00">Ring</text>
</a>
</g>
<!-- http://latin.omdoc.org/math?Distrib&#45;&gt;http://latin.omdoc.org/math?Ring -->
<g id="edge75" class="edge"><title>http://latin.omdoc.org/math?Distrib&#45;&gt;http://latin.omdoc.org/math?Ring</title>
<a xlink:href="http://latin.omdoc.org/math?Ring?dis" class="graphstructure">
<path fill="none" stroke="black" d="M666.804,-501.625C653.466,-488.13 633.907,-468.341 618.883,-453.141"/>
<polygon fill="black" stroke="black" points="621.016,-450.32 611.497,-445.668 616.038,-455.241 621.016,-450.32"/>
</a>
<a xlink:href="http://latin.omdoc.org/math?Ring?dis" class="dis">
<text text-anchor="middle" x="656.5" y="-470.3" font-family="Times New Roman,serif" font-size="14.00">dis</text>
</a>
</g>
<!-- http://latin.omdoc.org/math?IntegralDomain -->
<g id="node9" class="node"><title>http://latin.omdoc.org/math?IntegralDomain</title>
<a xlink:href="http://latin.omdoc.org/math?IntegralDomain" class="graphtheory">
<ellipse fill="none" stroke="black" cx="474" cy="-166" rx="65.4659" ry="18"/>
<text text-anchor="middle" x="474" y="-162.3" font-family="Times New Roman,serif" font-size="14.00">IntegralDomain</text>
</a>
</g>
<!-- http://latin.omdoc.org/math?RightDistrib -->
<g id="node10" class="node"><title>http://latin.omdoc.org/math?RightDistrib</title>
<a xlink:href="http://latin.omdoc.org/math?RightDistrib" class="graphtheory">
<ellipse fill="none" stroke="black" cx="786" cy="-606" rx="54.3924" ry="18"/>
<text text-anchor="middle" x="786" y="-602.3" font-family="Times New Roman,serif" font-size="14.00">RightDistrib</text>
</a>
</g>
<!-- http://latin.omdoc.org/math?RightDistrib&#45;&gt;http://latin.omdoc.org/math?Distrib -->
<g id="edge29" class="edge"><title>http://latin.omdoc.org/math?RightDistrib&#45;&gt;http://latin.omdoc.org/math?Distrib</title>
<a xlink:href="http://latin.omdoc.org/math?Distrib?right" class="graphstructure">
<path fill="none" stroke="black" d="M760.996,-589.962C751.897,-584.112 741.714,-577.112 733,-570 722.541,-561.464 711.846,-551.072 702.969,-541.902"/>
<polygon fill="black" stroke="black" points="705.411,-539.391 695.985,-534.554 700.337,-544.213 705.411,-539.391"/>
</a>
<a xlink:href="http://latin.omdoc.org/math?Distrib?right" class="right">
<text text-anchor="middle" x="745.5" y="-558.3" font-family="Times New Roman,serif" font-size="14.00">right</text>
</a>
</g>
<!-- http://latin.omdoc.org/math?RightDistrib&#45;&gt;http://latin.omdoc.org/math?Distrib -->
<g id="edge31" class="edge"><title>http://latin.omdoc.org/math?RightDistrib&#45;&gt;http://latin.omdoc.org/math?Distrib</title>
<a xlink:href="http://latin.omdoc.org/math?Distrib?left" class="graphstructure">
<path fill="none" stroke="black" d="M779.936,-588.061C775.324,-577.173 768.05,-563.365 758,-554 756.242,-552.362 735.99,-543.063 716.836,-534.463"/>
<polygon fill="black" stroke="black" points="718.164,-531.223 707.607,-530.333 715.305,-537.612 718.164,-531.223"/>
</a>
<a xlink:href="http://latin.omdoc.org/math?Distrib?left" class="left">
<text text-anchor="middle" x="778" y="-558.3" font-family="Times New Roman,serif" font-size="14.00">left</text>
</a>
</g>
<!-- http://latin.omdoc.org/math?RingDivision -->
<g id="node11" class="node"><title>http://latin.omdoc.org/math?RingDivision</title>
<a xlink:href="http://latin.omdoc.org/math?RingDivision" class="graphtheory">
<ellipse fill="none" stroke="black" cx="615" cy="-166" rx="57.2688" ry="18"/>
<text text-anchor="middle" x="615" y="-162.3" font-family="Times New Roman,serif" font-size="14.00">RingDivision</text>
</a>
</g>
<!-- http://latin.omdoc.org/math?RingDivision&#45;&gt;http://latin.omdoc.org/math?Field -->
<g id="edge21" class="edge"><title>http://latin.omdoc.org/math?RingDivision&#45;&gt;http://latin.omdoc.org/math?Field</title>
<a class="graphinclude">
<path fill="none" stroke="black" d="M615,-147.937C615,-139.807 615,-129.876 615,-120.705"/>
<polygon fill="black" stroke="black" points="618.5,-120.441 615,-110.441 611.5,-120.441 618.5,-120.441"/>
</a>
</g>
<!-- http://latin.omdoc.org/math?RingCommut -->
<g id="node12" class="node"><title>http://latin.omdoc.org/math?RingCommut</title>
<a xlink:href="http://latin.omdoc.org/math?RingCommut" class="graphtheory">
<ellipse fill="none" stroke="black" cx="781" cy="-342" rx="59.1941" ry="18"/>
<text text-anchor="middle" x="781" y="-338.3" font-family="Times New Roman,serif" font-size="14.00">RingCommut</text>
</a>
</g>
<!-- http://latin.omdoc.org/math?RingCommut&#45;&gt;http://latin.omdoc.org/math?Field -->
<g id="edge17" class="edge"><title>http://latin.omdoc.org/math?RingCommut&#45;&gt;http://latin.omdoc.org/math?Field</title>
<a xlink:href="http://latin.omdoc.org/math?Field?com" class="graphstructure">
<path fill="none" stroke="black" d="M808.14,-325.847C839.414,-306.305 884.081,-270.69 864,-236 817.822,-156.228 708.456,-117.091 651.267,-101.505"/>
<polygon fill="black" stroke="black" points="652.117,-98.1093 641.556,-98.9483 650.335,-104.879 652.117,-98.1093"/>
</a>
<a xlink:href="http://latin.omdoc.org/math?Field?com" class="com">
<text text-anchor="middle" x="862.5" y="-206.3" font-family="Times New Roman,serif" font-size="14.00">com</text>
</a>
</g>
<!-- http://latin.omdoc.org/math?RingCommut&#45;&gt;http://latin.omdoc.org/math?RingUnitCommut -->
<g id="edge37" class="edge"><title>http://latin.omdoc.org/math?RingCommut&#45;&gt;http://latin.omdoc.org/math?RingUnitCommut</title>
<a class="graphinclude">
<path fill="none" stroke="black" d="M781,-323.597C781,-311.746 781,-295.817 781,-282.292"/>
<polygon fill="black" stroke="black" points="784.5,-282.084 781,-272.084 777.5,-282.084 784.5,-282.084"/>
</a>
</g>
<!-- http://latin.omdoc.org/math?Ring&#45;&gt;http://latin.omdoc.org/math?RingUnit -->
<g id="edge5" class="edge"><title>http://latin.omdoc.org/math?Ring&#45;&gt;http://latin.omdoc.org/math?RingUnit</title>
<a class="graphinclude">
<path fill="none" stroke="black" d="M597,-411.597C597,-399.746 597,-383.817 597,-370.292"/>
<polygon fill="black" stroke="black" points="600.5,-370.084 597,-360.084 593.5,-370.084 600.5,-370.084"/>
</a>
</g>
<!-- http://latin.omdoc.org/math?Ring&#45;&gt;http://latin.omdoc.org/math?RingCommut -->
<g id="edge69" class="edge"><title>http://latin.omdoc.org/math?Ring&#45;&gt;http://latin.omdoc.org/math?RingCommut</title>
<a class="graphinclude">
<path fill="none" stroke="black" d="M617.457,-417.983C637.511,-407.323 669.052,-390.926 697,-378 709.798,-372.081 723.882,-366.035 736.8,-360.67"/>
<polygon fill="black" stroke="black" points="738.496,-363.757 746.41,-356.714 735.831,-357.284 738.496,-363.757"/>
</a>
</g>
<!-- http://latin.omdoc.org/math?RingUnitLogic&#45;&gt;http://latin.omdoc.org/math?IntegralDomain -->
<g id="edge53" class="edge"><title>http://latin.omdoc.org/math?RingUnitLogic&#45;&gt;http://latin.omdoc.org/math?IntegralDomain</title>
<a class="graphinclude">
<path fill="none" stroke="black" d="M472.405,-235.597C472.68,-223.746 473.051,-207.817 473.365,-194.292"/>
<polygon fill="black" stroke="black" points="476.869,-194.163 473.603,-184.084 469.871,-194 476.869,-194.163"/>
</a>
</g>
<!-- http://latin.omdoc.org/math?RingUnitLogic&#45;&gt;http://latin.omdoc.org/math?RingDivision -->
<g id="edge63" class="edge"><title>http://latin.omdoc.org/math?RingUnitLogic&#45;&gt;http://latin.omdoc.org/math?RingDivision</title>
<a class="graphinclude">
<path fill="none" stroke="black" d="M497.896,-237.426C521.079,-223.484 555.24,-202.939 580.69,-187.634"/>
<polygon fill="black" stroke="black" points="582.531,-190.611 589.296,-182.458 578.923,-184.613 582.531,-190.611"/>
</a>
</g>
<!-- http://latin.omdoc.org/math?Monoid -->
<g id="node15" class="node"><title>http://latin.omdoc.org/math?Monoid</title>
<a xlink:href="http://latin.omdoc.org/math?Monoid" class="graphtheory">
<ellipse fill="gray" stroke="black" cx="218" cy="-430" rx="39.4691" ry="18"/>
<text text-anchor="middle" x="218" y="-426.3" font-family="Times New Roman,serif" font-size="14.00">Monoid</text>
</a>
</g>
<!-- http://latin.omdoc.org/math?Monoid&#45;&gt;http://latin.omdoc.org/math?RingUnit -->
<g id="edge3" class="edge"><title>http://latin.omdoc.org/math?Monoid&#45;&gt;http://latin.omdoc.org/math?RingUnit</title>
<a xlink:href="http://latin.omdoc.org/math?RingUnit?mon" class="graphstructure">
<path fill="none" stroke="black" d="M223.009,-411.715C227.354,-400.079 234.892,-385.533 247,-378 304.272,-342.368 483.936,-373.612 550,-360 552.619,-359.46 555.288,-358.805 557.957,-358.068"/>
<polygon fill="black" stroke="black" points="559.013,-361.405 567.537,-355.112 556.949,-354.716 559.013,-361.405"/>
</a>
<a xlink:href="http://latin.omdoc.org/math?RingUnit?mon" class="mon">
<text text-anchor="middle" x="259.5" y="-382.3" font-family="Times New Roman,serif" font-size="14.00">mon</text>
</a>
</g>
<!-- http://latin.omdoc.org/math?EqUniverse -->
<g id="node18" class="node"><title>http://latin.omdoc.org/math?EqUniverse</title>
<a xlink:href="http://latin.omdoc.org/math?EqUniverse" class="graphtheory">
<ellipse fill="gray" stroke="black" cx="264" cy="-694" rx="52.4675" ry="18"/>
<text text-anchor="middle" x="264" y="-690.3" font-family="Times New Roman,serif" font-size="14.00">EqUniverse</text>
</a>
</g>
<!-- http://latin.omdoc.org/math?EqUniverse&#45;&gt;http://latin.omdoc.org/math?RingUnit -->
<g id="edge7" class="edge"><title>http://latin.omdoc.org/math?EqUniverse&#45;&gt;http://latin.omdoc.org/math?RingUnit</title>
<a class="graphmeta">
<path fill="none" stroke="black" d="M233.386,-679.366C224.919,-673.995 216.756,-666.934 212,-658 171.882,-582.638 163.435,-531.663 218,-466 232.562,-448.477 248.344,-462.401 266,-448 294.476,-424.774 278.525,-396.964 310,-378 355.811,-350.399 497.703,-371.199 550,-360 552.614,-359.44 555.28,-358.769 557.947,-358.021"/>
<polygon fill="black" stroke="black" points="559.014,-361.355 567.522,-355.04 556.933,-354.671 559.014,-361.355"/>
</a>
</g>
<!-- http://latin.omdoc.org/math?EqUniverse&#45;&gt;http://latin.omdoc.org/math?LieRing -->
<g id="edge15" class="edge"><title>http://latin.omdoc.org/math?EqUniverse&#45;&gt;http://latin.omdoc.org/math?LieRing</title>
<a class="graphmeta">
<path fill="none" stroke="black" d="M279.757,-676.808C306.292,-649.149 360.918,-590.495 401,-536 422.634,-506.587 413.015,-485.316 444,-466 479.803,-443.681 591.776,-456.978 633,-448 636.599,-447.216 640.299,-446.249 643.976,-445.176"/>
<polygon fill="black" stroke="black" points="645.087,-448.496 653.569,-442.147 642.979,-441.821 645.087,-448.496"/>
</a>
</g>
<!-- http://latin.omdoc.org/math?EqUniverse&#45;&gt;http://latin.omdoc.org/math?Distrib -->
<g id="edge33" class="edge"><title>http://latin.omdoc.org/math?EqUniverse&#45;&gt;http://latin.omdoc.org/math?Distrib</title>
<a class="graphmeta">
<path fill="none" stroke="black" d="M315.602,-690.297C358.692,-686.65 421.073,-678.087 472,-658 491.649,-650.25 601.292,-574.998 653.869,-538.568"/>
<polygon fill="black" stroke="black" points="655.872,-541.438 662.094,-532.863 651.882,-535.686 655.872,-541.438"/>
</a>
</g>
<!-- http://latin.omdoc.org/math?EqUniverse&#45;&gt;http://latin.omdoc.org/math?RingUnitCommut -->
<g id="edge39" class="edge"><title>http://latin.omdoc.org/math?EqUniverse&#45;&gt;http://latin.omdoc.org/math?RingUnitCommut</title>
<a class="graphmeta">
<path fill="none" stroke="black" d="M225.723,-681.708C192.604,-669.3 150,-645.799 150,-607 150,-607 150,-607 150,-341 150,-279.741 636.433,-281.186 697,-272 703.721,-270.981 710.718,-269.784 717.68,-268.505"/>
<polygon fill="black" stroke="black" points="718.643,-271.885 727.816,-266.584 717.339,-265.007 718.643,-271.885"/>
</a>
</g>
<!-- http://latin.omdoc.org/math?EqUniverse&#45;&gt;http://latin.omdoc.org/math?DifferentialRing -->
<g id="edge43" class="edge"><title>http://latin.omdoc.org/math?EqUniverse&#45;&gt;http://latin.omdoc.org/math?DifferentialRing</title>
<a class="graphmeta">
<path fill="none" stroke="black" d="M213.503,-689.187C187.842,-684.952 157.604,-676.158 136,-658 116.823,-641.882 112,-632.051 112,-607 112,-607 112,-607 112,-341 112,-315.949 115.15,-303.886 136,-290 173.768,-264.847 499.01,-277.914 544,-272 550.324,-271.169 556.897,-270.077 563.419,-268.847"/>
<polygon fill="black" stroke="black" points="564.46,-272.208 573.581,-266.818 563.09,-265.344 564.46,-272.208"/>
</a>
</g>
<!-- http://latin.omdoc.org/math?EqUniverse&#45;&gt;http://latin.omdoc.org/math?JordanRing -->
<g id="edge51" class="edge"><title>http://latin.omdoc.org/math?EqUniverse&#45;&gt;http://latin.omdoc.org/math?JordanRing</title>
<a class="graphmeta">
<path fill="none" stroke="black" d="M287.991,-677.997C368.726,-627.514 625.657,-466.901 628,-466 670.56,-449.64 684.523,-458.039 729,-448 733.59,-446.964 738.349,-445.808 743.098,-444.6"/>
<polygon fill="black" stroke="black" points="743.984,-447.986 752.772,-442.069 742.212,-441.214 743.984,-447.986"/>
</a>
</g>
<!-- http://latin.omdoc.org/math?EqUniverse&#45;&gt;http://latin.omdoc.org/math?RightDistrib -->
<g id="edge61" class="edge"><title>http://latin.omdoc.org/math?EqUniverse&#45;&gt;http://latin.omdoc.org/math?RightDistrib</title>
<a class="graphmeta">
<path fill="none" stroke="black" d="M315.635,-690.915C402.173,-686.38 581.325,-672.528 727,-632 733.625,-630.157 740.49,-627.746 747.094,-625.15"/>
<polygon fill="black" stroke="black" points="748.615,-628.308 756.523,-621.257 745.944,-621.838 748.615,-628.308"/>
</a>
</g>
<!-- http://latin.omdoc.org/math?EqUniverse&#45;&gt;http://latin.omdoc.org/math?RingCommut -->
<g id="edge71" class="edge"><title>http://latin.omdoc.org/math?EqUniverse&#45;&gt;http://latin.omdoc.org/math?RingCommut</title>
<a class="graphmeta">
<path fill="none" stroke="black" d="M257.838,-676.11C255.995,-670.427 254.159,-664.004 253,-658 250.804,-646.62 251.445,-643.581 251,-632 248.043,-555.005 232.796,-501.849 301,-466 438.206,-393.882 620.06,-362.35 715.739,-349.998"/>
<polygon fill="black" stroke="black" points="716.365,-353.447 725.849,-348.723 715.489,-346.502 716.365,-353.447"/>
</a>
</g>
<!-- http://latin.omdoc.org/math?EqUniverse&#45;&gt;http://latin.omdoc.org/math?Ring -->
<g id="edge79" class="edge"><title>http://latin.omdoc.org/math?EqUniverse&#45;&gt;http://latin.omdoc.org/math?Ring</title>
<a class="graphmeta">
<path fill="none" stroke="black" d="M260.435,-675.824C253.931,-639.533 244.14,-553.96 283,-500 332.613,-431.109 539.717,-455.483 565,-448 566.056,-447.688 567.116,-447.338 568.177,-446.959"/>
<polygon fill="black" stroke="black" points="569.767,-450.085 577.556,-442.903 566.989,-443.66 569.767,-450.085"/>
</a>
</g>
<!-- http://latin.omdoc.org/math?Magma -->
<g id="node20" class="node"><title>http://latin.omdoc.org/math?Magma</title>
<a xlink:href="http://latin.omdoc.org/math?Magma" class="graphtheory">
<ellipse fill="gray" stroke="black" cx="682" cy="-694" rx="37.5442" ry="18"/>
<text text-anchor="middle" x="682" y="-690.3" font-family="Times New Roman,serif" font-size="14.00">Magma</text>
</a>
</g>
<!-- http://latin.omdoc.org/math?Magma&#45;&gt;http://latin.omdoc.org/math?LieRing -->
<g id="edge9" class="edge"><title>http://latin.omdoc.org/math?Magma&#45;&gt;http://latin.omdoc.org/math?LieRing</title>
<a xlink:href="http://latin.omdoc.org/math?LieRing?mult" class="graphstructure">
<path fill="none" stroke="black" d="M657.516,-680.398C648.197,-674.613 638.12,-667.019 631,-658 606.02,-626.357 612.848,-610.131 609,-570 604.515,-523.227 601.307,-504.669 628,-466 632.73,-459.147 639.283,-453.318 646.197,-448.498"/>
<polygon fill="black" stroke="black" points="648.441,-451.221 655.037,-442.929 644.71,-445.298 648.441,-451.221"/>
</a>
<a xlink:href="http://latin.omdoc.org/math?LieRing?mult" class="mult">
<text text-anchor="middle" x="621.5" y="-558.3" font-family="Times New Roman,serif" font-size="14.00">mult</text>
</a>
</g>
<!-- http://latin.omdoc.org/math?Magma&#45;&gt;http://latin.omdoc.org/math?Distrib -->
<g id="edge25" class="edge"><title>http://latin.omdoc.org/math?Magma&#45;&gt;http://latin.omdoc.org/math?Distrib</title>
<a xlink:href="http://latin.omdoc.org/math?Distrib?mag2" class="graphstructure">
<path fill="none" stroke="black" d="M663.451,-678.109C651.082,-666.917 635.876,-650.398 629,-632 622.154,-613.682 622.709,-606.516 629,-588 634.899,-570.636 647.123,-554.223 658.346,-541.764"/>
<polygon fill="black" stroke="black" points="661.186,-543.854 665.5,-534.178 656.093,-539.052 661.186,-543.854"/>
</a>
<a xlink:href="http://latin.omdoc.org/math?Distrib?mag2" class="mag2">
<text text-anchor="middle" x="644.5" y="-602.3" font-family="Times New Roman,serif" font-size="14.00">mag2</text>
</a>
</g>
<!-- http://latin.omdoc.org/math?Magma&#45;&gt;http://latin.omdoc.org/math?Distrib -->
<g id="edge27" class="edge"><title>http://latin.omdoc.org/math?Magma&#45;&gt;http://latin.omdoc.org/math?Distrib</title>
<a xlink:href="http://latin.omdoc.org/math?Distrib?mag1" class="graphstructure">
<path fill="none" stroke="black" d="M682,-675.999C682,-645.853 682,-582.79 682,-546.43"/>
<polygon fill="black" stroke="black" points="685.5,-546.07 682,-536.07 678.5,-546.07 685.5,-546.07"/>
</a>
<a xlink:href="http://latin.omdoc.org/math?Distrib?mag1" class="mag1">
<text text-anchor="middle" x="697.5" y="-602.3" font-family="Times New Roman,serif" font-size="14.00">mag1</text>
</a>
</g>
<!-- http://latin.omdoc.org/math?Magma&#45;&gt;http://latin.omdoc.org/math?RightDistrib -->
<g id="edge57" class="edge"><title>http://latin.omdoc.org/math?Magma&#45;&gt;http://latin.omdoc.org/math?RightDistrib</title>
<a xlink:href="http://latin.omdoc.org/math?RightDistrib?mag1" class="graphstructure">
<path fill="none" stroke="black" d="M717.109,-687.225C735.828,-682.41 757.852,-673.686 772,-658 777.946,-651.408 781.398,-642.52 783.391,-634.011"/>
<polygon fill="black" stroke="black" points="786.866,-634.458 785.169,-624 779.974,-633.234 786.866,-634.458"/>
</a>
<a xlink:href="http://latin.omdoc.org/math?RightDistrib?mag1" class="mag1">
<text text-anchor="middle" x="795.5" y="-646.3" font-family="Times New Roman,serif" font-size="14.00">mag1</text>
</a>
</g>
<!-- http://latin.omdoc.org/math?Magma&#45;&gt;http://latin.omdoc.org/math?RightDistrib -->
<g id="edge59" class="edge"><title>http://latin.omdoc.org/math?Magma&#45;&gt;http://latin.omdoc.org/math?RightDistrib</title>
<a xlink:href="http://latin.omdoc.org/math?RightDistrib?mag2" class="graphstructure">
<path fill="none" stroke="black" d="M697.877,-677.264C708.609,-666.885 723.274,-653.19 737,-642 742.553,-637.473 748.644,-632.862 754.588,-628.535"/>
<polygon fill="black" stroke="black" points="757.01,-631.106 763.11,-622.444 752.94,-625.411 757.01,-631.106"/>
</a>
<a xlink:href="http://latin.omdoc.org/math?RightDistrib?mag2" class="mag2">
<text text-anchor="middle" x="752.5" y="-646.3" font-family="Times New Roman,serif" font-size="14.00">mag2</text>
</a>
</g>
<!-- http://latin.omdoc.org/math?AbelianGroup -->
<g id="node23" class="node"><title>http://latin.omdoc.org/math?AbelianGroup</title>
<a xlink:href="http://latin.omdoc.org/math?AbelianGroup" class="graphtheory">
<ellipse fill="gray" stroke="black" cx="954" cy="-518" rx="61.6163" ry="18"/>
<text text-anchor="middle" x="954" y="-514.3" font-family="Times New Roman,serif" font-size="14.00">AbelianGroup</text>
</a>
</g>
<!-- http://latin.omdoc.org/math?AbelianGroup&#45;&gt;http://latin.omdoc.org/math?LieRing -->
<g id="edge13" class="edge"><title>http://latin.omdoc.org/math?AbelianGroup&#45;&gt;http://latin.omdoc.org/math?LieRing</title>
<a class="graphinclude">
<path fill="none" stroke="black" d="M935.673,-500.574C921.515,-488.879 900.87,-473.89 880,-466 817.193,-442.257 795.378,-463.301 730,-448 726.772,-447.245 723.46,-446.346 720.157,-445.361"/>
<polygon fill="black" stroke="black" points="720.964,-441.944 710.373,-442.212 718.819,-448.608 720.964,-441.944"/>
</a>
</g>
<!-- http://latin.omdoc.org/math?AbelianGroup&#45;&gt;http://latin.omdoc.org/math?JordanRing -->
<g id="edge49" class="edge"><title>http://latin.omdoc.org/math?AbelianGroup&#45;&gt;http://latin.omdoc.org/math?JordanRing</title>
<a class="graphinclude">
<path fill="none" stroke="black" d="M945.287,-499.894C938.706,-488.648 928.652,-474.491 916,-466 889.327,-448.099 876.91,-456.746 846,-448 843.25,-447.222 840.429,-446.406 837.585,-445.569"/>
<polygon fill="black" stroke="black" points="838.492,-442.187 827.909,-442.675 836.487,-448.894 838.492,-442.187"/>
</a>
</g>
<!-- http://latin.omdoc.org/math?AbelianGroup&#45;&gt;http://latin.omdoc.org/math?Ring -->
<g id="edge77" class="edge"><title>http://latin.omdoc.org/math?AbelianGroup&#45;&gt;http://latin.omdoc.org/math?Ring</title>
<a class="graphinclude">
<path fill="none" stroke="black" d="M919.589,-503.062C889.169,-491.321 843.333,-475.036 802,-466 728.639,-449.962 706.399,-467.937 634,-448 631.7,-447.367 629.363,-446.605 627.039,-445.759"/>
<polygon fill="black" stroke="black" points="628.268,-442.48 617.687,-441.928 625.614,-448.958 628.268,-442.48"/>
</a>
</g>
<!-- http://latin.omdoc.org/logics/proof_theory?InEqLogic -->
<g id="node30" class="node"><title>http://latin.omdoc.org/logics/proof_theory?InEqLogic</title>
<a xlink:href="http://latin.omdoc.org/logics/proof_theory?InEqLogic" class="graphtheory">
<ellipse fill="gray" stroke="black" cx="341" cy="-254" rx="49.0941" ry="18"/>
<text text-anchor="middle" x="341" y="-250.3" font-family="Times New Roman,serif" font-size="14.00">InEqLogic</text>
</a>
</g>
<!-- http://latin.omdoc.org/logics/proof_theory?InEqLogic&#45;&gt;http://latin.omdoc.org/math?Field -->
<g id="edge23" class="edge"><title>http://latin.omdoc.org/logics/proof_theory?InEqLogic&#45;&gt;http://latin.omdoc.org/math?Field</title>
<a class="graphmeta">
<path fill="none" stroke="black" d="M345.702,-236.008C353.083,-212.572 369.664,-170.661 399,-148 451.276,-107.618 529.877,-96.6355 576.451,-93.7998"/>
<polygon fill="black" stroke="black" points="576.916,-97.2807 586.725,-93.2754 576.559,-90.2898 576.916,-97.2807"/>
</a>
</g>
<!-- http://latin.omdoc.org/logics/proof_theory?InEqLogic&#45;&gt;http://latin.omdoc.org/math?IntegralDomain -->
<g id="edge55" class="edge"><title>http://latin.omdoc.org/logics/proof_theory?InEqLogic&#45;&gt;http://latin.omdoc.org/math?IntegralDomain</title>
<a class="graphmeta">
<path fill="none" stroke="black" d="M364.167,-238.02C385.378,-224.305 417.007,-203.853 440.883,-188.414"/>
<polygon fill="black" stroke="black" points="442.798,-191.343 449.295,-182.974 438.998,-185.465 442.798,-191.343"/>
</a>
</g>
<!-- http://latin.omdoc.org/logics/proof_theory?InEqLogic&#45;&gt;http://latin.omdoc.org/math?RingDivision -->
<g id="edge65" class="edge"><title>http://latin.omdoc.org/logics/proof_theory?InEqLogic&#45;&gt;http://latin.omdoc.org/math?RingDivision</title>
<a class="graphmeta">
<path fill="none" stroke="black" d="M377.102,-241.669C425.531,-226.468 511.704,-199.421 565.969,-182.389"/>
<polygon fill="black" stroke="black" points="567.221,-185.665 575.714,-179.331 565.125,-178.986 567.221,-185.665"/>
</a>
</g>
<!-- http://latin.omdoc.org/math?Commutative -->
<g id="node43" class="node"><title>http://latin.omdoc.org/math?Commutative</title>
<a xlink:href="http://latin.omdoc.org/math?Commutative" class="graphtheory">
<ellipse fill="gray" stroke="black" cx="951" cy="-430" rx="59.2173" ry="18"/>
<text text-anchor="middle" x="951" y="-426.3" font-family="Times New Roman,serif" font-size="14.00">Commutative</text>
</a>
</g>
<!-- http://latin.omdoc.org/math?Commutative&#45;&gt;http://latin.omdoc.org/math?JordanRing -->
<g id="edge47" class="edge"><title>http://latin.omdoc.org/math?Commutative&#45;&gt;http://latin.omdoc.org/math?JordanRing</title>
<a xlink:href="http://latin.omdoc.org/math?JordanRing?mult" class="graphstructure">
<path fill="none" stroke="black" d="M891.798,-430C879.031,-430 865.505,-430 852.647,-430"/>
<polygon fill="black" stroke="black" points="852.506,-426.5 842.506,-430 852.506,-433.5 852.506,-426.5"/>
</a>
<a xlink:href="http://latin.omdoc.org/math?JordanRing?mult" class="mult">
<text text-anchor="middle" x="866.928" y="-436.8" font-family="Times New Roman,serif" font-size="14.00">mult</text>
</a>
</g>
<!-- http://latin.omdoc.org/math?Commutative&#45;&gt;http://latin.omdoc.org/math?RingCommut -->
<g id="edge67" class="edge"><title>http://latin.omdoc.org/math?Commutative&#45;&gt;http://latin.omdoc.org/math?RingCommut</title>
<a xlink:href="http://latin.omdoc.org/math?RingCommut?mc" class="graphstructure">
<path fill="none" stroke="black" d="M921.776,-414.216C893.471,-399.897 850.393,-378.105 819.346,-362.399"/>
<polygon fill="black" stroke="black" points="820.63,-359.126 810.127,-357.735 817.47,-365.372 820.63,-359.126"/>
</a>
<a xlink:href="http://latin.omdoc.org/math?RingCommut?mc" class="mc">
<text text-anchor="middle" x="890" y="-382.3" font-family="Times New Roman,serif" font-size="14.00">mc</text>
</a>
</g>
<!-- http://latin.omdoc.org/math?Semigroup -->
<g id="node57" class="node"><title>http://latin.omdoc.org/math?Semigroup</title>
<a xlink:href="http://latin.omdoc.org/math?Semigroup" class="graphtheory">
<ellipse fill="gray" stroke="black" cx="342" cy="-518" rx="50.0684" ry="18"/>
<text text-anchor="middle" x="342" y="-514.3" font-family="Times New Roman,serif" font-size="14.00">Semigroup</text>
</a>
</g>
<!-- http://latin.omdoc.org/math?Semigroup&#45;&gt;http://latin.omdoc.org/math?Ring -->
<g id="edge73" class="edge"><title>http://latin.omdoc.org/math?Semigroup&#45;&gt;http://latin.omdoc.org/math?Ring</title>
<a xlink:href="http://latin.omdoc.org/math?Ring?mult" class="graphstructure">
<path fill="none" stroke="black" d="M350.366,-499.749C356.978,-488.128 367.364,-473.587 381,-466 452.803,-426.05 486.332,-471.726 565,-448 566.054,-447.682 567.113,-447.328 568.173,-446.945"/>
<polygon fill="black" stroke="black" points="569.772,-450.066 577.546,-442.868 566.98,-443.647 569.772,-450.066"/>
</a>
<a xlink:href="http://latin.omdoc.org/math?Ring?mult" class="mult">
<text text-anchor="middle" x="393.5" y="-470.3" font-family="Times New Roman,serif" font-size="14.00">mult</text>
</a>
</g>
<!-- http://latin.omdoc.org/logics/proof_theory?EqLogic -->
<g id="node63" class="node"><title>http://latin.omdoc.org/logics/proof_theory?EqLogic</title>
<a xlink:href="http://latin.omdoc.org/logics/proof_theory?EqLogic" class="graphtheory">
<ellipse fill="gray" stroke="black" cx="42" cy="-342" rx="42.3701" ry="18"/>
<text text-anchor="middle" x="42" y="-338.3" font-family="Times New Roman,serif" font-size="14.00">EqLogic</text>
</a>
</g>
<!-- http://latin.omdoc.org/logics/proof_theory?EqLogic&#45;&gt;http://latin.omdoc.org/math?RingUnitLogic -->
<g id="edge83" class="edge"><title>http://latin.omdoc.org/logics/proof_theory?EqLogic&#45;&gt;http://latin.omdoc.org/math?RingUnitLogic</title>
<a class="graphmeta">
<path fill="none" stroke="black" d="M54.757,-324.478C65.0122,-312.57 80.5497,-297.352 98,-290 160.774,-263.554 336.666,-282.305 404,-272 408.714,-271.279 413.578,-270.38 418.436,-269.375"/>
<polygon fill="black" stroke="black" points="419.339,-272.76 428.348,-267.185 417.829,-265.924 419.339,-272.76"/>
</a>
</g>
<!-- http://latin.omdoc.org/logics/proof_theory?EqLogic&#45;&gt;http://latin.omdoc.org/logics/proof_theory?InEqLogic -->
<g id="edge85" class="edge"><title>http://latin.omdoc.org/logics/proof_theory?EqLogic&#45;&gt;http://latin.omdoc.org/logics/proof_theory?InEqLogic</title>
<a class="graphinclude">
<path fill="none" stroke="black" d="M46.1694,-324.009C49.9137,-312.511 56.623,-298.01 68,-290 101.355,-266.517 211.65,-258.789 281.42,-256.247"/>
<polygon fill="black" stroke="black" points="281.953,-259.731 291.829,-255.895 281.716,-252.735 281.953,-259.731"/>
</a>
</g>
</g>
</svg>
