<?xml version="1.0" encoding="UTF-8" standalone="no"?>
<!DOCTYPE svg PUBLIC "-//W3C//DTD SVG 1.1//EN"
 "http://www.w3.org/Graphics/SVG/1.1/DTD/svg11.dtd">
<!-- Generated by graphviz version 2.28.0 (20110507.0327)
 -->
<!-- Title: MMT Pages: 1 -->
<svg width="889pt" height="204pt"
 viewBox="0.00 0.00 888.79 204.00" xmlns="http://www.w3.org/2000/svg" xmlns:xlink="http://www.w3.org/1999/xlink">
<g id="graph1" class="graph" transform="scale(1 1) rotate(0) translate(4 200)">
<title>MMT</title>
<polygon fill="white" stroke="white" points="-4,5 -4,-200 885.794,-200 885.794,5 -4,5"/>
<g id="graph2" class="cluster"><title>cluster_local</title>
<polygon fill="none" stroke="black" points="8,-8 8,-132 800,-132 800,-8 8,-8"/>
</g>
<!-- http://latin.omdoc.org/math?Closeness -->
<g id="node2" class="node"><title>http://latin.omdoc.org/math?Closeness</title>
<a xlink:href="http://latin.omdoc.org/math?Closeness" class="graphtheory">
<ellipse fill="none" stroke="black" cx="64" cy="-106" rx="48.1437" ry="18"/>
<text text-anchor="middle" x="64" y="-102.3" font-family="Times New Roman,serif" font-size="14.00">Closeness</text>
</a>
</g>
<!-- http://latin.omdoc.org/math?ClosenessTopology -->
<g id="node5" class="node"><title>http://latin.omdoc.org/math?ClosenessTopology</title>
<a xlink:href="http://latin.omdoc.org/math?ClosenessTopology" class="graphtheory">
<ellipse fill="none" stroke="black" cx="204" cy="-34" rx="83.2649" ry="18"/>
<text text-anchor="middle" x="204" y="-30.3" font-family="Times New Roman,serif" font-size="14.00">ClosenessTopology</text>
</a>
</g>
<!-- http://latin.omdoc.org/math?Closeness&#45;&gt;http://latin.omdoc.org/math?ClosenessTopology -->
<g id="edge9" class="edge"><title>http://latin.omdoc.org/math?Closeness&#45;&gt;http://latin.omdoc.org/math?ClosenessTopology</title>
<a class="graphinclude">
<path fill="none" stroke="black" d="M91.6595,-91.1703C112.111,-80.9447 140.285,-66.8573 163.302,-55.3488"/>
<polygon fill="black" stroke="black" points="165.11,-58.3584 172.489,-50.7557 161.979,-52.0974 165.11,-58.3584"/>
</a>
</g>
<!-- http://latin.omdoc.org/math?ClosureOperator -->
<g id="node3" class="node"><title>http://latin.omdoc.org/math?ClosureOperator</title>
<a xlink:href="http://latin.omdoc.org/math?ClosureOperator" class="graphtheory">
<ellipse fill="none" stroke="black" cx="419" cy="-106" rx="71.2405" ry="18"/>
<text text-anchor="middle" x="419" y="-102.3" font-family="Times New Roman,serif" font-size="14.00">ClosureOperator</text>
</a>
</g>
<!-- http://latin.omdoc.org/math?ClosureTopology -->
<g id="node7" class="node"><title>http://latin.omdoc.org/math?ClosureTopology</title>
<a xlink:href="http://latin.omdoc.org/math?ClosureTopology" class="graphtheory">
<ellipse fill="none" stroke="black" cx="452" cy="-34" rx="75.0904" ry="18"/>
<text text-anchor="middle" x="452" y="-30.3" font-family="Times New Roman,serif" font-size="14.00">ClosureTopology</text>
</a>
</g>
<!-- http://latin.omdoc.org/math?ClosureOperator&#45;&gt;http://latin.omdoc.org/math?ClosureTopology -->
<g id="edge17" class="edge"><title>http://latin.omdoc.org/math?ClosureOperator&#45;&gt;http://latin.omdoc.org/math?ClosureTopology</title>
<a class="graphinclude">
<path fill="none" stroke="black" d="M426.988,-88.055C430.743,-80.0915 435.306,-70.4107 439.503,-61.5097"/>
<polygon fill="black" stroke="black" points="442.758,-62.8131 443.856,-52.2753 436.426,-59.8281 442.758,-62.8131"/>
</a>
</g>
<!-- http://latin.omdoc.org/math?NeighborhoodTopology -->
<g id="node4" class="node"><title>http://latin.omdoc.org/math?NeighborhoodTopology</title>
<a xlink:href="http://latin.omdoc.org/math?NeighborhoodTopology" class="graphtheory">
<ellipse fill="none" stroke="black" cx="230" cy="-106" rx="99.1619" ry="18"/>
<text text-anchor="middle" x="230" y="-102.3" font-family="Times New Roman,serif" font-size="14.00">NeighborhoodTopology</text>
</a>
</g>
<!-- http://latin.omdoc.org/math?ClosedTopology -->
<g id="node6" class="node"><title>http://latin.omdoc.org/math?ClosedTopology</title>
<a xlink:href="http://latin.omdoc.org/math?ClosedTopology" class="graphtheory">
<ellipse fill="none" stroke="black" cx="685" cy="-34" rx="72.192" ry="18"/>
<text text-anchor="middle" x="685" y="-30.3" font-family="Times New Roman,serif" font-size="14.00">ClosedTopology</text>
</a>
</g>
<!-- http://latin.omdoc.org/math?ClosureSystem -->
<g id="node8" class="node"><title>http://latin.omdoc.org/math?ClosureSystem</title>
<a xlink:href="http://latin.omdoc.org/math?ClosureSystem" class="graphtheory">
<ellipse fill="none" stroke="black" cx="574" cy="-106" rx="65.4659" ry="18"/>
<text text-anchor="middle" x="574" y="-102.3" font-family="Times New Roman,serif" font-size="14.00">ClosureSystem</text>
</a>
</g>
<!-- http://latin.omdoc.org/math?ClosureSystem&#45;&gt;http://latin.omdoc.org/math?ClosedTopology -->
<g id="edge13" class="edge"><title>http://latin.omdoc.org/math?ClosureSystem&#45;&gt;http://latin.omdoc.org/math?ClosedTopology</title>
<a class="graphinclude">
<path fill="none" stroke="black" d="M598.911,-89.2906C614.369,-79.5421 634.432,-66.8899 651.3,-56.2523"/>
<polygon fill="black" stroke="black" points="653.197,-59.1939 659.789,-50.8991 649.463,-53.2729 653.197,-59.1939"/>
</a>
</g>
<!-- http://latin.omdoc.org/math?OpenTopology -->
<g id="node9" class="node"><title>http://latin.omdoc.org/math?OpenTopology</title>
<a xlink:href="http://latin.omdoc.org/math?OpenTopology" class="graphtheory">
<ellipse fill="none" stroke="black" cx="725" cy="-106" rx="66.4165" ry="18"/>
<text text-anchor="middle" x="725" y="-102.3" font-family="Times New Roman,serif" font-size="14.00">OpenTopology</text>
</a>
</g>
<!-- http://latin.omdoc.org/logics/syntax?PowerSorts -->
<g id="node10" class="node"><title>http://latin.omdoc.org/logics/syntax?PowerSorts</title>
<a xlink:href="http://latin.omdoc.org/logics/syntax?PowerSorts" class="graphtheory">
<ellipse fill="gray" stroke="black" cx="725" cy="-178" rx="53.4184" ry="18"/>
<text text-anchor="middle" x="725" y="-174.3" font-family="Times New Roman,serif" font-size="14.00">PowerSorts</text>
</a>
</g>
<!-- http://latin.omdoc.org/logics/syntax?PowerSorts&#45;&gt;http://latin.omdoc.org/math?Closeness -->
<g id="edge3" class="edge"><title>http://latin.omdoc.org/logics/syntax?PowerSorts&#45;&gt;http://latin.omdoc.org/math?Closeness</title>
<a class="graphmeta">
<path fill="none" stroke="black" d="M671.941,-175.295C544.798,-170.848 225.608,-157.435 122,-132 114.825,-130.239 107.41,-127.673 100.377,-124.848"/>
<polygon fill="black" stroke="black" points="101.655,-121.588 91.0829,-120.886 98.9098,-128.027 101.655,-121.588"/>
</a>
</g>
<!-- http://latin.omdoc.org/logics/syntax?PowerSorts&#45;&gt;http://latin.omdoc.org/math?ClosureOperator -->
<g id="edge5" class="edge"><title>http://latin.omdoc.org/logics/syntax?PowerSorts&#45;&gt;http://latin.omdoc.org/math?ClosureOperator</title>
<a class="graphmeta">
<path fill="none" stroke="black" d="M677.927,-169.133C631.982,-161.101 560.249,-147.621 499,-132 489.582,-129.598 479.632,-126.747 470.069,-123.846"/>
<polygon fill="black" stroke="black" points="470.87,-120.43 460.282,-120.82 468.802,-127.118 470.87,-120.43"/>
</a>
</g>
<!-- http://latin.omdoc.org/logics/syntax?PowerSorts&#45;&gt;http://latin.omdoc.org/math?NeighborhoodTopology -->
<g id="edge7" class="edge"><title>http://latin.omdoc.org/logics/syntax?PowerSorts&#45;&gt;http://latin.omdoc.org/math?NeighborhoodTopology</title>
<a class="graphmeta">
<path fill="none" stroke="black" d="M673.544,-172.805C599.311,-166.346 458.011,-152.522 339,-132 324.776,-129.547 309.621,-126.411 295.275,-123.194"/>
<polygon fill="black" stroke="black" points="296.022,-119.775 285.494,-120.962 294.465,-126.6 296.022,-119.775"/>
</a>
</g>
<!-- http://latin.omdoc.org/logics/syntax?PowerSorts&#45;&gt;http://latin.omdoc.org/math?ClosenessTopology -->
<g id="edge11" class="edge"><title>http://latin.omdoc.org/logics/syntax?PowerSorts&#45;&gt;http://latin.omdoc.org/math?ClosenessTopology</title>
<a class="graphmeta">
<path fill="none" stroke="black" d="M761.148,-164.54C775.942,-157.449 791.546,-146.932 800,-132 809.635,-114.983 813.241,-102.391 800,-88 767.386,-52.5552 415.957,-56.4834 368,-52 341.707,-49.542 313.067,-46.6478 287.185,-43.9511"/>
<polygon fill="black" stroke="black" points="287.346,-40.4489 277.036,-42.8891 286.618,-47.4109 287.346,-40.4489"/>
</a>
</g>
<!-- http://latin.omdoc.org/logics/syntax?PowerSorts&#45;&gt;http://latin.omdoc.org/math?ClosedTopology -->
<g id="edge15" class="edge"><title>http://latin.omdoc.org/logics/syntax?PowerSorts&#45;&gt;http://latin.omdoc.org/math?ClosedTopology</title>
<a class="graphmeta">
<path fill="none" stroke="black" d="M778.116,-175.758C810.865,-171.898 850.573,-160.968 872,-132 883.629,-116.278 883.793,-103.6 872,-88 857.609,-68.9637 802.038,-54.784 755.183,-45.9052"/>
<polygon fill="black" stroke="black" points="755.803,-42.4607 745.335,-44.0912 754.535,-49.3449 755.803,-42.4607"/>
</a>
</g>
<!-- http://latin.omdoc.org/logics/syntax?PowerSorts&#45;&gt;http://latin.omdoc.org/math?ClosureTopology -->
<g id="edge19" class="edge"><title>http://latin.omdoc.org/logics/syntax?PowerSorts&#45;&gt;http://latin.omdoc.org/math?ClosureTopology</title>
<a class="graphmeta">
<path fill="none" stroke="black" d="M772.755,-169.758C795.328,-163.676 820.282,-152.504 834,-132 844.874,-115.747 846.843,-102.747 834,-88 828.99,-82.2467 637.385,-57.8089 527.491,-44.2165"/>
<polygon fill="black" stroke="black" points="527.799,-40.7281 517.446,-42.9761 526.941,-47.6753 527.799,-40.7281"/>
</a>
</g>
<!-- http://latin.omdoc.org/logics/syntax?PowerSorts&#45;&gt;http://latin.omdoc.org/math?ClosureSystem -->
<g id="edge21" class="edge"><title>http://latin.omdoc.org/logics/syntax?PowerSorts&#45;&gt;http://latin.omdoc.org/math?ClosureSystem</title>
<a class="graphmeta">
<path fill="none" stroke="black" d="M694.806,-163.003C671.987,-152.425 640.407,-137.785 615.258,-126.126"/>
<polygon fill="black" stroke="black" points="616.511,-122.849 605.966,-121.819 613.567,-129.2 616.511,-122.849"/>
</a>
</g>
<!-- http://latin.omdoc.org/logics/syntax?PowerSorts&#45;&gt;http://latin.omdoc.org/math?OpenTopology -->
<g id="edge23" class="edge"><title>http://latin.omdoc.org/logics/syntax?PowerSorts&#45;&gt;http://latin.omdoc.org/math?OpenTopology</title>
<a class="graphmeta">
<path fill="none" stroke="black" d="M725,-159.697C725,-151.983 725,-142.712 725,-134.112"/>
<polygon fill="black" stroke="black" points="728.5,-134.104 725,-124.104 721.5,-134.104 728.5,-134.104"/>
</a>
</g>
</g>
</svg>
