<?xml version="1.0" encoding="UTF-8" standalone="no"?>
<!DOCTYPE svg PUBLIC "-//W3C//DTD SVG 1.1//EN"
 "http://www.w3.org/Graphics/SVG/1.1/DTD/svg11.dtd">
<!-- Generated by graphviz version 2.28.0 (20110507.0327)
 -->
<!-- Title: MMT Pages: 1 -->
<svg width="437pt" height="382pt"
 viewBox="0.00 0.00 437.00 382.00" xmlns="http://www.w3.org/2000/svg" xmlns:xlink="http://www.w3.org/1999/xlink">
<g id="graph1" class="graph" transform="scale(1 1) rotate(0) translate(4 378)">
<title>MMT</title>
<polygon fill="white" stroke="white" points="-4,5 -4,-378 434,-378 434,5 -4,5"/>
<!-- http://latin.omdoc.org/logics/syntax?SExists -->
<g id="node2" class="node"><title>http://latin.omdoc.org/logics/syntax?SExists</title>
<a xlink:href="javascript:parent.navigate(&#39;http://latin.omdoc.org/logics/syntax?SExists&#39;)" xlink:title="theory http://latin.omdoc.org/logics/syntax?SExists">
<ellipse fill="gray" stroke="black" cx="215" cy="-282" rx="38.0212" ry="18"/>
<text text-anchor="middle" x="215" y="-278.3" font-family="Times New Roman,serif" font-size="14.00">SExists</text>
</a>
</g>
<!-- http://latin.omdoc.org/logics/syntax?FOL -->
<g id="node3" class="node"><title>http://latin.omdoc.org/logics/syntax?FOL</title>
<a xlink:href="javascript:parent.navigate(&#39;http://latin.omdoc.org/logics/syntax?FOL&#39;)" xlink:title="theory http://latin.omdoc.org/logics/syntax?FOL">
<ellipse fill="gray" stroke="black" cx="206" cy="-106" rx="28.3955" ry="18"/>
<text text-anchor="middle" x="206" y="-102.3" font-family="Times New Roman,serif" font-size="14.00">FOL</text>
</a>
</g>
<!-- http://latin.omdoc.org/logics/syntax?SExists&#45;&gt;http://latin.omdoc.org/logics/syntax?FOL -->
<g id="edge3" class="edge"><title>http://latin.omdoc.org/logics/syntax?SExists&#45;&gt;http://latin.omdoc.org/logics/syntax?FOL</title>
<a xlink:href="javascript:parent.navigate(&#39;http://latin.omdoc.org/translations/sfol_fol?SExists&#39;)" xlink:title="view http://latin.omdoc.org/translations/sfol_fol?SExists">
<path fill="none" stroke="blue" stroke-dasharray="5,2" d="M213.122,-264.051C211.563,-233.905 208.301,-170.841 206.42,-134.482"/>
<path fill="none" stroke="blue" stroke-dasharray="5,2" d="M215.119,-263.948C213.56,-233.801 210.298,-170.738 208.417,-134.379"/>
<polygon fill="blue" stroke="blue" points="210.895,-133.875 206.883,-124.07 203.904,-134.237 210.895,-133.875"/>
</a>
<a xlink:href="javascript:parent.navigate(&#39;http://latin.omdoc.org/translations/sfol_fol?SExists&#39;)" xlink:title="SExists">
<text text-anchor="middle" x="233.5" y="-190.3" font-family="Times New Roman,serif" font-size="14.00">SExists</text>
</a>
</g>
<!-- http://latin.omdoc.org/logics/syntax?SFOL -->
<g id="node14" class="node"><title>http://latin.omdoc.org/logics/syntax?SFOL</title>
<a xlink:href="javascript:parent.navigate(&#39;http://latin.omdoc.org/logics/syntax?SFOL&#39;)" xlink:title="theory http://latin.omdoc.org/logics/syntax?SFOL">
<ellipse fill="gray" stroke="black" cx="301" cy="-194" rx="33.1991" ry="18"/>
<text text-anchor="middle" x="301" y="-190.3" font-family="Times New Roman,serif" font-size="14.00">SFOL</text>
</a>
</g>
<!-- http://latin.omdoc.org/logics/syntax?SExists&#45;&gt;http://latin.omdoc.org/logics/syntax?SFOL -->
<g id="edge31" class="edge"><title>http://latin.omdoc.org/logics/syntax?SExists&#45;&gt;http://latin.omdoc.org/logics/syntax?SFOL</title>
<a xlink:title="include">
<path fill="none" stroke="black" d="M230.774,-265.226C244.153,-251.847 263.505,-232.495 278.509,-217.491"/>
<polygon fill="black" stroke="black" points="281.307,-219.643 285.903,-210.097 276.357,-214.693 281.307,-219.643"/>
</a>
</g>
<!-- http://latin.omdoc.org/logics/syntax?FOLEQ -->
<g id="node8" class="node"><title>http://latin.omdoc.org/logics/syntax?FOLEQ</title>
<a xlink:href="javascript:parent.navigate(&#39;http://latin.omdoc.org/logics/syntax?FOLEQ&#39;)" xlink:title="theory http://latin.omdoc.org/logics/syntax?FOLEQ">
<ellipse fill="gray" stroke="black" cx="307" cy="-18" rx="39.9464" ry="18"/>
<text text-anchor="middle" x="307" y="-14.3" font-family="Times New Roman,serif" font-size="14.00">FOLEQ</text>
</a>
</g>
<!-- http://latin.omdoc.org/logics/syntax?FOL&#45;&gt;http://latin.omdoc.org/logics/syntax?FOLEQ -->
<g id="edge29" class="edge"><title>http://latin.omdoc.org/logics/syntax?FOL&#45;&gt;http://latin.omdoc.org/logics/syntax?FOLEQ</title>
<a xlink:title="include">
<path fill="none" stroke="black" d="M222.227,-91.1826C238.16,-77.6164 262.71,-56.7127 281.297,-40.8854"/>
<polygon fill="black" stroke="black" points="283.766,-43.3806 289.11,-34.2327 279.228,-38.0509 283.766,-43.3806"/>
</a>
</g>
<!-- http://latin.omdoc.org/logics/syntax?SForall -->
<g id="node5" class="node"><title>http://latin.omdoc.org/logics/syntax?SForall</title>
<a xlink:href="javascript:parent.navigate(&#39;http://latin.omdoc.org/logics/syntax?SForall&#39;)" xlink:title="theory http://latin.omdoc.org/logics/syntax?SForall">
<ellipse fill="gray" stroke="black" cx="122" cy="-282" rx="37.0701" ry="18"/>
<text text-anchor="middle" x="122" y="-278.3" font-family="Times New Roman,serif" font-size="14.00">SForall</text>
</a>
</g>
<!-- http://latin.omdoc.org/logics/syntax?SForall&#45;&gt;http://latin.omdoc.org/logics/syntax?FOL -->
<g id="edge5" class="edge"><title>http://latin.omdoc.org/logics/syntax?SForall&#45;&gt;http://latin.omdoc.org/logics/syntax?FOL</title>
<a xlink:href="javascript:parent.navigate(&#39;http://latin.omdoc.org/translations/sfol_fol?SForall&#39;)" xlink:title="view http://latin.omdoc.org/translations/sfol_fol?SForall">
<path fill="none" stroke="blue" stroke-dasharray="5,2" d="M127.165,-263.586C134.902,-242.509 149.04,-205.788 164.105,-175.554 171.692,-160.339 181.312,-144.026 189.346,-131.049"/>
<path fill="none" stroke="blue" stroke-dasharray="5,2" d="M129.042,-264.275C136.768,-243.228 150.906,-206.506 165.895,-176.446 173.415,-161.355 183.034,-145.042 191.046,-132.102"/>
<polygon fill="blue" stroke="blue" points="193.353,-133.128 195.703,-122.797 187.424,-129.408 193.353,-133.128"/>
</a>
<a xlink:href="javascript:parent.navigate(&#39;http://latin.omdoc.org/translations/sfol_fol?SForall&#39;)" xlink:title="SForall">
<text text-anchor="middle" x="185.5" y="-190.3" font-family="Times New Roman,serif" font-size="14.00">SForall</text>
</a>
</g>
<!-- http://latin.omdoc.org/logics/syntax?SForall&#45;&gt;http://latin.omdoc.org/logics/syntax?SFOL -->
<g id="edge27" class="edge"><title>http://latin.omdoc.org/logics/syntax?SForall&#45;&gt;http://latin.omdoc.org/logics/syntax?SFOL</title>
<a xlink:title="include">
<path fill="none" stroke="black" d="M147.646,-268.678C179.192,-253.522 232.82,-227.757 267.568,-211.062"/>
<polygon fill="black" stroke="black" points="269.337,-214.096 276.835,-206.61 266.305,-207.786 269.337,-214.096"/>
</a>
</g>
<!-- http://latin.omdoc.org/logics/syntax?SEqual -->
<g id="node7" class="node"><title>http://latin.omdoc.org/logics/syntax?SEqual</title>
<a xlink:href="javascript:parent.navigate(&#39;http://latin.omdoc.org/logics/syntax?SEqual&#39;)" xlink:title="theory http://latin.omdoc.org/logics/syntax?SEqual">
<ellipse fill="gray" stroke="black" cx="389" cy="-194" rx="36.096" ry="18"/>
<text text-anchor="middle" x="389" y="-190.3" font-family="Times New Roman,serif" font-size="14.00">SEqual</text>
</a>
</g>
<!-- http://latin.omdoc.org/logics/syntax?SEqual&#45;&gt;http://latin.omdoc.org/logics/syntax?FOLEQ -->
<g id="edge7" class="edge"><title>http://latin.omdoc.org/logics/syntax?SEqual&#45;&gt;http://latin.omdoc.org/logics/syntax?FOLEQ</title>
<a xlink:href="javascript:parent.navigate(&#39;http://latin.omdoc.org/translations/sfol_fol?SEqual&#39;)" xlink:title="view http://latin.omdoc.org/translations/sfol_fol?SEqual">
<path fill="none" stroke="blue" stroke-dasharray="5,2" d="M389.543,-175.871C391.184,-147.925 390.677,-91.5665 365.174,-54.5644 360.182,-47.1955 352.78,-41.0117 345.067,-36.144"/>
<path fill="none" stroke="blue" stroke-dasharray="5,2" d="M391.539,-175.988C393.183,-147.907 392.677,-91.5485 366.826,-53.4356 361.464,-45.6606 354.063,-39.4769 346.136,-34.4537"/>
<polygon fill="blue" stroke="blue" points="347.115,-32.1331 336.692,-30.2334 343.656,-38.2184 347.115,-32.1331"/>
</a>
<a xlink:href="javascript:parent.navigate(&#39;http://latin.omdoc.org/translations/sfol_fol?SEqual&#39;)" xlink:title="SEqual">
<text text-anchor="middle" x="409" y="-102.3" font-family="Times New Roman,serif" font-size="14.00">SEqual</text>
</a>
</g>
<!-- http://latin.omdoc.org/logics/syntax?SFOLEQ -->
<g id="node12" class="node"><title>http://latin.omdoc.org/logics/syntax?SFOLEQ</title>
<a xlink:href="javascript:parent.navigate(&#39;http://latin.omdoc.org/logics/syntax?SFOLEQ&#39;)" xlink:title="theory http://latin.omdoc.org/logics/syntax?SFOLEQ">
<ellipse fill="gray" stroke="black" cx="307" cy="-106" rx="46.2191" ry="18"/>
<text text-anchor="middle" x="307" y="-102.3" font-family="Times New Roman,serif" font-size="14.00">SFOLEQ</text>
</a>
</g>
<!-- http://latin.omdoc.org/logics/syntax?SEqual&#45;&gt;http://latin.omdoc.org/logics/syntax?SFOLEQ -->
<g id="edge25" class="edge"><title>http://latin.omdoc.org/logics/syntax?SEqual&#45;&gt;http://latin.omdoc.org/logics/syntax?SFOLEQ</title>
<a xlink:title="include">
<path fill="none" stroke="black" d="M373.96,-177.226C361.518,-164.178 343.658,-145.447 329.512,-130.611"/>
<polygon fill="black" stroke="black" points="331.936,-128.08 322.502,-123.258 326.87,-132.911 331.936,-128.08"/>
</a>
</g>
<!-- http://latin.omdoc.org/logics/syntax?BaseSFOL -->
<g id="node10" class="node"><title>http://latin.omdoc.org/logics/syntax?BaseSFOL</title>
<a xlink:href="javascript:parent.navigate(&#39;http://latin.omdoc.org/logics/syntax?BaseSFOL&#39;)" xlink:title="theory http://latin.omdoc.org/logics/syntax?BaseSFOL">
<ellipse fill="gray" stroke="black" cx="51" cy="-356" rx="51.0191" ry="18"/>
<text text-anchor="middle" x="51" y="-352.3" font-family="Times New Roman,serif" font-size="14.00">BaseSFOL</text>
</a>
</g>
<!-- http://latin.omdoc.org/logics/syntax?BaseSFOL&#45;&gt;http://latin.omdoc.org/logics/syntax?SExists -->
<g id="edge23" class="edge"><title>http://latin.omdoc.org/logics/syntax?BaseSFOL&#45;&gt;http://latin.omdoc.org/logics/syntax?SExists</title>
<a xlink:title="include">
<path fill="none" stroke="black" d="M81.8471,-341.457C109.357,-329.38 149.656,-311.688 178.707,-298.933"/>
<polygon fill="black" stroke="black" points="180.344,-302.037 188.094,-294.812 177.53,-295.628 180.344,-302.037"/>
</a>
</g>
<!-- http://latin.omdoc.org/logics/syntax?BaseSFOL&#45;&gt;http://latin.omdoc.org/logics/syntax?FOL -->
<g id="edge9" class="edge"><title>http://latin.omdoc.org/logics/syntax?BaseSFOL&#45;&gt;http://latin.omdoc.org/logics/syntax?FOL</title>
<a xlink:href="javascript:parent.navigate(&#39;http://latin.omdoc.org/translations/sfol_fol?BaseSFOL&#39;)" xlink:title="view http://latin.omdoc.org/translations/sfol_fol?BaseSFOL">
<path fill="none" stroke="blue" stroke-dasharray="5,2" d="M48.8968,-337.726C48.0507,-312.433 49.3885,-264.773 68.1182,-229.528 93.6156,-182.051 144.371,-144.003 176.582,-123.252"/>
<path fill="none" stroke="blue" stroke-dasharray="5,2" d="M50.8957,-337.659C50.0499,-312.489 51.3877,-264.829 69.8818,-230.472 94.8152,-183.652 145.57,-145.603 177.665,-124.934"/>
<polygon fill="blue" stroke="blue" points="179.064,-127.007 185.663,-118.718 175.335,-121.083 179.064,-127.007"/>
</a>
<a xlink:href="javascript:parent.navigate(&#39;http://latin.omdoc.org/translations/sfol_fol?BaseSFOL&#39;)" xlink:title="BaseSFOL">
<text text-anchor="middle" x="100.5" y="-234.3" font-family="Times New Roman,serif" font-size="14.00">BaseSFOL</text>
</a>
</g>
<!-- http://latin.omdoc.org/logics/syntax?BaseSFOL&#45;&gt;http://latin.omdoc.org/logics/syntax?SForall -->
<g id="edge17" class="edge"><title>http://latin.omdoc.org/logics/syntax?BaseSFOL&#45;&gt;http://latin.omdoc.org/logics/syntax?SForall</title>
<a xlink:title="include">
<path fill="none" stroke="black" d="M67.111,-338.662C76.5928,-329.047 88.7367,-316.732 99.19,-306.131"/>
<polygon fill="black" stroke="black" points="101.911,-308.356 106.441,-298.778 96.9271,-303.441 101.911,-308.356"/>
</a>
</g>
<!-- http://latin.omdoc.org/logics/syntax?BaseSFOL&#45;&gt;http://latin.omdoc.org/logics/syntax?SEqual -->
<g id="edge21" class="edge"><title>http://latin.omdoc.org/logics/syntax?BaseSFOL&#45;&gt;http://latin.omdoc.org/logics/syntax?SEqual</title>
<a xlink:title="include">
<path fill="none" stroke="black" d="M102.406,-354.786C154.275,-352.09 234.309,-340.874 289,-300 320.787,-276.243 351.345,-241.93 370.135,-219.069"/>
<polygon fill="black" stroke="black" points="372.93,-221.179 376.505,-211.206 367.491,-216.772 372.93,-221.179"/>
</a>
</g>
<!-- http://latin.omdoc.org/logics/syntax?BaseSFOL&#45;&gt;http://latin.omdoc.org/logics/syntax?SFOL -->
<g id="edge19" class="edge"><title>http://latin.omdoc.org/logics/syntax?BaseSFOL&#45;&gt;http://latin.omdoc.org/logics/syntax?SFOL</title>
<a xlink:title="include">
<path fill="none" stroke="black" d="M102.382,-354.509C149.424,-351.365 218.194,-339.605 262,-300 284.141,-279.983 293.752,-246.222 297.898,-222.395"/>
<polygon fill="black" stroke="black" points="301.401,-222.644 299.444,-212.231 294.48,-221.591 301.401,-222.644"/>
</a>
</g>
<!-- http://latin.omdoc.org/logics/syntax?SFOLEQ&#45;&gt;http://latin.omdoc.org/logics/syntax?FOLEQ -->
<g id="edge11" class="edge"><title>http://latin.omdoc.org/logics/syntax?SFOLEQ&#45;&gt;http://latin.omdoc.org/logics/syntax?FOLEQ</title>
<a xlink:href="javascript:parent.navigate(&#39;http://latin.omdoc.org/translations/sfol_fol?SFOLEQ&#39;)" xlink:title="view http://latin.omdoc.org/translations/sfol_fol?SFOLEQ">
<path fill="none" stroke="blue" stroke-dasharray="5,2" d="M306,-87.5966C306,-75.7459 306,-59.8169 306,-46.2917"/>
<path fill="none" stroke="blue" stroke-dasharray="5,2" d="M308,-87.5966C308,-75.7459 308,-59.8169 308,-46.2917"/>
<polygon fill="blue" stroke="blue" points="310.5,-46.084 307,-36.084 303.5,-46.084 310.5,-46.084"/>
</a>
<a xlink:href="javascript:parent.navigate(&#39;http://latin.omdoc.org/translations/sfol_fol?SFOLEQ&#39;)" xlink:title="SFOLEQ">
<text text-anchor="middle" x="334.5" y="-58.3" font-family="Times New Roman,serif" font-size="14.00">SFOLEQ</text>
</a>
</g>
<!-- http://latin.omdoc.org/logics/syntax?SFOL&#45;&gt;http://latin.omdoc.org/logics/syntax?FOL -->
<g id="edge13" class="edge"><title>http://latin.omdoc.org/logics/syntax?SFOL&#45;&gt;http://latin.omdoc.org/logics/syntax?FOL</title>
<a xlink:href="javascript:parent.navigate(&#39;http://latin.omdoc.org/translations/sfol_fol?SFOL&#39;)" xlink:title="view http://latin.omdoc.org/translations/sfol_fol?SFOL">
<path fill="none" stroke="blue" stroke-dasharray="5,2" d="M283.781,-178.761C268.614,-165.031 245.989,-144.549 228.928,-129.104"/>
<path fill="none" stroke="blue" stroke-dasharray="5,2" d="M285.123,-177.279C269.956,-163.548 247.331,-143.067 230.27,-127.622"/>
<polygon fill="blue" stroke="blue" points="231.49,-125.354 221.727,-121.237 226.792,-130.543 231.49,-125.354"/>
</a>
<a xlink:href="javascript:parent.navigate(&#39;http://latin.omdoc.org/translations/sfol_fol?SFOL&#39;)" xlink:title="SFOL">
<text text-anchor="middle" x="281" y="-146.3" font-family="Times New Roman,serif" font-size="14.00">SFOL</text>
</a>
</g>
<!-- http://latin.omdoc.org/logics/syntax?SFOL&#45;&gt;http://latin.omdoc.org/logics/syntax?SFOLEQ -->
<g id="edge15" class="edge"><title>http://latin.omdoc.org/logics/syntax?SFOL&#45;&gt;http://latin.omdoc.org/logics/syntax?SFOLEQ</title>
<a xlink:title="include">
<path fill="none" stroke="black" d="M302.185,-176.009C303.01,-164.19 304.128,-148.171 305.078,-134.542"/>
<polygon fill="black" stroke="black" points="308.592,-134.469 305.797,-124.25 301.609,-133.982 308.592,-134.469"/>
</a>
</g>
</g>
</svg>
