<?xml version="1.0" encoding="UTF-8" standalone="no"?>
<!DOCTYPE svg PUBLIC "-//W3C//DTD SVG 1.1//EN"
 "http://www.w3.org/Graphics/SVG/1.1/DTD/svg11.dtd">
<!-- Generated by graphviz version 2.28.0 (20110507.0327)
 -->
<!-- Title: MMT Pages: 1 -->
<svg width="1049pt" height="370pt"
 viewBox="0.00 0.00 1049.00 370.00" xmlns="http://www.w3.org/2000/svg" xmlns:xlink="http://www.w3.org/1999/xlink">
<g id="graph1" class="graph" transform="scale(1 1) rotate(0) translate(4 366)">
<title>MMT</title>
<polygon fill="white" stroke="white" points="-4,5 -4,-366 1046,-366 1046,5 -4,5"/>
<g id="graph2" class="cluster"><title>cluster_local</title>
<polygon fill="none" stroke="black" points="170,-8 170,-296 439,-296 439,-8 170,-8"/>
</g>
<!-- http://latin.omdoc.org/logics/description/owl/owl.omdoc?OWLBase -->
<g id="node2" class="node"><title>http://latin.omdoc.org/logics/description/owl/owl.omdoc?OWLBase</title>
<a xlink:href="javascript:parent.navigate(&#39;http://latin.omdoc.org/logics/description/owl/owl.omdoc?OWLBase&#39;)" xlink:title="theory http://latin.omdoc.org/logics/description/owl/owl.omdoc?OWLBase">
<ellipse fill="none" stroke="black" cx="227" cy="-270" rx="49.0941" ry="18"/>
<text text-anchor="middle" x="227" y="-266.3" font-family="Times New Roman,serif" font-size="14.00">OWLBase</text>
</a>
</g>
<!-- http://latin.omdoc.org/logics/description/owl/owl.omdoc?OWLLite -->
<g id="node3" class="node"><title>http://latin.omdoc.org/logics/description/owl/owl.omdoc?OWLLite</title>
<a xlink:href="javascript:parent.navigate(&#39;http://latin.omdoc.org/logics/description/owl/owl.omdoc?OWLLite&#39;)" xlink:title="theory http://latin.omdoc.org/logics/description/owl/owl.omdoc?OWLLite">
<ellipse fill="none" stroke="black" cx="227" cy="-182" rx="45.244" ry="18"/>
<text text-anchor="middle" x="227" y="-178.3" font-family="Times New Roman,serif" font-size="14.00">OWLLite</text>
</a>
</g>
<!-- http://latin.omdoc.org/logics/description/owl/owl.omdoc?OWLBase&#45;&gt;http://latin.omdoc.org/logics/description/owl/owl.omdoc?OWLLite -->
<g id="edge13" class="edge"><title>http://latin.omdoc.org/logics/description/owl/owl.omdoc?OWLBase&#45;&gt;http://latin.omdoc.org/logics/description/owl/owl.omdoc?OWLLite</title>
<a xlink:title="include">
<path fill="none" stroke="black" d="M227,-251.597C227,-239.746 227,-223.817 227,-210.292"/>
<polygon fill="black" stroke="black" points="230.5,-210.084 227,-200.084 223.5,-210.084 230.5,-210.084"/>
</a>
</g>
<!-- http://latin.omdoc.org/logics/description/owl/owl.omdoc?FOLEQD -->
<g id="node7" class="node"><title>http://latin.omdoc.org/logics/description/owl/owl.omdoc?FOLEQD</title>
<a xlink:href="javascript:parent.navigate(&#39;http://latin.omdoc.org/logics/description/owl/owl.omdoc?FOLEQD&#39;)" xlink:title="theory http://latin.omdoc.org/logics/description/owl/owl.omdoc?FOLEQD">
<ellipse fill="gray" stroke="black" cx="712" cy="-182" rx="46.1964" ry="18"/>
<text text-anchor="middle" x="712" y="-178.3" font-family="Times New Roman,serif" font-size="14.00">FOLEQD</text>
</a>
</g>
<!-- http://latin.omdoc.org/logics/description/owl/owl.omdoc?OWLBase&#45;&gt;http://latin.omdoc.org/logics/description/owl/owl.omdoc?FOLEQD -->
<g id="edge3" class="edge"><title>http://latin.omdoc.org/logics/description/owl/owl.omdoc?OWLBase&#45;&gt;http://latin.omdoc.org/logics/description/owl/owl.omdoc?FOLEQD</title>
<a xlink:href="javascript:parent.navigate(&#39;http://latin.omdoc.org/logics/description/owl/owl.omdoc?OWLBaseFOLEQD&#39;)" xlink:title="view http://latin.omdoc.org/logics/description/owl/owl.omdoc?OWLBaseFOLEQD">
<path fill="none" stroke="blue" stroke-dasharray="5,2" d="M261.996,-256.442C269.774,-254.291 277.986,-252.324 285.836,-251.014 365.562,-237.768 572.769,-261.475 647.647,-233.065 651.873,-231.52 669.516,-217.352 685.128,-204.39"/>
<path fill="none" stroke="blue" stroke-dasharray="5,2" d="M262.529,-258.37C270.24,-256.236 278.452,-254.269 286.164,-252.986 365.335,-239.755 572.541,-263.462 648.353,-234.935 653.125,-233.08 670.768,-218.912 686.405,-205.929"/>
<polygon fill="blue" stroke="blue" points="688.241,-207.654 693.673,-198.558 683.754,-202.281 688.241,-207.654"/>
</a>
<a xlink:href="javascript:parent.navigate(&#39;http://latin.omdoc.org/logics/description/owl/owl.omdoc?OWLBaseFOLEQD&#39;)" xlink:title="OWLBaseFOLEQD">
<text text-anchor="middle" x="725.5" y="-222.3" font-family="Times New Roman,serif" font-size="14.00">OWLBaseFOLEQD</text>
</a>
</g>
<!-- http://latin.omdoc.org/logics/description/owl/owl2.omdoc?OWL2SUB -->
<g id="node9" class="node"><title>http://latin.omdoc.org/logics/description/owl/owl2.omdoc?OWL2SUB</title>
<a xlink:href="javascript:parent.navigate(&#39;http://latin.omdoc.org/logics/description/owl/owl2.omdoc?OWL2SUB&#39;)" xlink:title="theory http://latin.omdoc.org/logics/description/owl/owl2.omdoc?OWL2SUB">
<ellipse fill="gray" stroke="black" cx="959" cy="-108" rx="53.4184" ry="18"/>
<text text-anchor="middle" x="959" y="-104.3" font-family="Times New Roman,serif" font-size="14.00">OWL2SUB</text>
</a>
</g>
<!-- http://latin.omdoc.org/logics/description/owl/owl.omdoc?OWLBase&#45;&gt;http://latin.omdoc.org/logics/description/owl/owl2.omdoc?OWL2SUB -->
<g id="edge5" class="edge"><title>http://latin.omdoc.org/logics/description/owl/owl.omdoc?OWLBase&#45;&gt;http://latin.omdoc.org/logics/description/owl/owl2.omdoc?OWL2SUB</title>
<a xlink:title="include">
<path fill="none" stroke="black" d="M263.326,-257.761C270.782,-255.673 278.611,-253.637 286,-252 431.821,-219.705 483.964,-265.887 618,-200 638.878,-189.737 635.247,-174.515 656,-164 732.348,-125.316 831.698,-113.506 895.426,-110.086"/>
<polygon fill="black" stroke="black" points="895.908,-113.567 905.727,-109.59 895.571,-106.575 895.908,-113.567"/>
</a>
</g>
<!-- http://latin.omdoc.org/logics/description/owl/owl.omdoc?OWLLiteFOLEQD -->
<g id="node11" class="node"><title>http://latin.omdoc.org/logics/description/owl/owl.omdoc?OWLLiteFOLEQD</title>
<a xlink:href="javascript:parent.navigate(&#39;http://latin.omdoc.org/logics/description/owl/owl.omdoc?OWLLiteFOLEQD&#39;)" xlink:title="theory http://latin.omdoc.org/logics/description/owl/owl.omdoc?OWLLiteFOLEQD">
<ellipse fill="gray" stroke="black" cx="528" cy="-182" rx="81.3646" ry="18"/>
<text text-anchor="middle" x="528" y="-178.3" font-family="Times New Roman,serif" font-size="14.00">OWLLiteFOLEQD</text>
</a>
</g>
<!-- http://latin.omdoc.org/logics/description/owl/owl.omdoc?OWLBase&#45;&gt;http://latin.omdoc.org/logics/description/owl/owl.omdoc?OWLLiteFOLEQD -->
<g id="edge7" class="edge"><title>http://latin.omdoc.org/logics/description/owl/owl.omdoc?OWLBase&#45;&gt;http://latin.omdoc.org/logics/description/owl/owl.omdoc?OWLLiteFOLEQD</title>
<a xlink:title="include">
<path fill="none" stroke="black" d="M264.449,-258.193C271.603,-256.133 279.032,-253.997 286,-252 349.061,-233.925 421.402,-213.315 470.442,-199.363"/>
<polygon fill="black" stroke="black" points="471.574,-202.679 480.235,-196.577 469.659,-195.946 471.574,-202.679"/>
</a>
</g>
<!-- http://latin.omdoc.org/logics/description/owl/owl.omdoc?OWLDL -->
<g id="node6" class="node"><title>http://latin.omdoc.org/logics/description/owl/owl.omdoc?OWLDL</title>
<a xlink:href="javascript:parent.navigate(&#39;http://latin.omdoc.org/logics/description/owl/owl.omdoc?OWLDL&#39;)" xlink:title="theory http://latin.omdoc.org/logics/description/owl/owl.omdoc?OWLDL">
<ellipse fill="none" stroke="black" cx="386" cy="-108" rx="43.319" ry="18"/>
<text text-anchor="middle" x="386" y="-104.3" font-family="Times New Roman,serif" font-size="14.00">OWLDL</text>
</a>
</g>
<!-- http://latin.omdoc.org/logics/description/owl/owl.omdoc?OWLLite&#45;&gt;http://latin.omdoc.org/logics/description/owl/owl.omdoc?OWLDL -->
<g id="edge29" class="edge"><title>http://latin.omdoc.org/logics/description/owl/owl.omdoc?OWLLite&#45;&gt;http://latin.omdoc.org/logics/description/owl/owl.omdoc?OWLDL</title>
<a xlink:title="include">
<path fill="none" stroke="black" d="M255.794,-167.961C281.764,-156.201 320.123,-138.831 348.485,-125.988"/>
<polygon fill="black" stroke="black" points="350.022,-129.134 357.688,-121.821 347.134,-122.757 350.022,-129.134"/>
</a>
</g>
<!-- http://latin.omdoc.org/logics/description/owl/owl.omdoc?OWLDLFOLEQD -->
<g id="node15" class="node"><title>http://latin.omdoc.org/logics/description/owl/owl.omdoc?OWLDLFOLEQD</title>
<a xlink:href="javascript:parent.navigate(&#39;http://latin.omdoc.org/logics/description/owl/owl.omdoc?OWLDLFOLEQD&#39;)" xlink:title="theory http://latin.omdoc.org/logics/description/owl/owl.omdoc?OWLDLFOLEQD">
<ellipse fill="gray" stroke="black" cx="83" cy="-108" rx="78.9404" ry="18"/>
<text text-anchor="middle" x="83" y="-104.3" font-family="Times New Roman,serif" font-size="14.00">OWLDLFOLEQD</text>
</a>
</g>
<!-- http://latin.omdoc.org/logics/description/owl/owl.omdoc?OWLLite&#45;&gt;http://latin.omdoc.org/logics/description/owl/owl.omdoc?OWLDLFOLEQD -->
<g id="edge11" class="edge"><title>http://latin.omdoc.org/logics/description/owl/owl.omdoc?OWLLite&#45;&gt;http://latin.omdoc.org/logics/description/owl/owl.omdoc?OWLDLFOLEQD</title>
<a xlink:title="include">
<path fill="none" stroke="black" d="M199.915,-167.457C178.314,-156.657 147.734,-141.367 123.266,-129.133"/>
<polygon fill="black" stroke="black" points="124.729,-125.951 114.22,-124.61 121.599,-132.212 124.729,-125.951"/>
</a>
</g>
<!-- http://latin.omdoc.org/logics/description/owl/owl.omdoc?OWLFull -->
<g id="node4" class="node"><title>http://latin.omdoc.org/logics/description/owl/owl.omdoc?OWLFull</title>
<a xlink:href="javascript:parent.navigate(&#39;http://latin.omdoc.org/logics/description/owl/owl.omdoc?OWLFull&#39;)" xlink:title="theory http://latin.omdoc.org/logics/description/owl/owl.omdoc?OWLFull">
<ellipse fill="none" stroke="black" cx="386" cy="-34" rx="45.244" ry="18"/>
<text text-anchor="middle" x="386" y="-30.3" font-family="Times New Roman,serif" font-size="14.00">OWLFull</text>
</a>
</g>
<!-- http://latin.omdoc.org/logics/description/owl/owl.omdoc?OWL1Datatype -->
<g id="node5" class="node"><title>http://latin.omdoc.org/logics/description/owl/owl.omdoc?OWL1Datatype</title>
<a xlink:href="javascript:parent.navigate(&#39;http://latin.omdoc.org/logics/description/owl/owl.omdoc?OWL1Datatype&#39;)" xlink:title="theory http://latin.omdoc.org/logics/description/owl/owl.omdoc?OWL1Datatype">
<ellipse fill="none" stroke="black" cx="363" cy="-270" rx="68.3664" ry="18"/>
<text text-anchor="middle" x="363" y="-266.3" font-family="Times New Roman,serif" font-size="14.00">OWL1Datatype</text>
</a>
</g>
<!-- http://latin.omdoc.org/logics/description/owl/owl.omdoc?OWL1Datatype&#45;&gt;http://latin.omdoc.org/logics/description/owl/owl.omdoc?OWLLite -->
<g id="edge15" class="edge"><title>http://latin.omdoc.org/logics/description/owl/owl.omdoc?OWL1Datatype&#45;&gt;http://latin.omdoc.org/logics/description/owl/owl.omdoc?OWLLite</title>
<a xlink:title="include">
<path fill="none" stroke="black" d="M335.603,-253.503C325.296,-247.547 313.527,-240.593 303,-234 287.645,-224.383 270.891,-213.215 257.031,-203.786"/>
<polygon fill="black" stroke="black" points="258.614,-200.629 248.384,-197.874 254.664,-206.408 258.614,-200.629"/>
</a>
</g>
<!-- http://latin.omdoc.org/logics/description/owl/owl2.omdoc?OWL2Datatype -->
<g id="node22" class="node"><title>http://latin.omdoc.org/logics/description/owl/owl2.omdoc?OWL2Datatype</title>
<a xlink:href="javascript:parent.navigate(&#39;http://latin.omdoc.org/logics/description/owl/owl2.omdoc?OWL2Datatype&#39;)" xlink:title="theory http://latin.omdoc.org/logics/description/owl/owl2.omdoc?OWL2Datatype">
<ellipse fill="gray" stroke="black" cx="845" cy="-182" rx="68.3664" ry="18"/>
<text text-anchor="middle" x="845" y="-178.3" font-family="Times New Roman,serif" font-size="14.00">OWL2Datatype</text>
</a>
</g>
<!-- http://latin.omdoc.org/logics/description/owl/owl.omdoc?OWL1Datatype&#45;&gt;http://latin.omdoc.org/logics/description/owl/owl2.omdoc?OWL2Datatype -->
<g id="edge23" class="edge"><title>http://latin.omdoc.org/logics/description/owl/owl.omdoc?OWL1Datatype&#45;&gt;http://latin.omdoc.org/logics/description/owl/owl2.omdoc?OWL2Datatype</title>
<a xlink:title="include">
<path fill="none" stroke="black" d="M409.242,-256.78C417.757,-254.902 426.608,-253.194 435,-252 512.983,-240.904 716.29,-264.293 789,-234 802.832,-228.237 815.446,-217.5 825.185,-207.358"/>
<polygon fill="black" stroke="black" points="827.909,-209.565 832.045,-199.811 822.729,-204.857 827.909,-209.565"/>
</a>
</g>
<!-- http://latin.omdoc.org/logics/description/owl/owl.omdoc?OWLDL&#45;&gt;http://latin.omdoc.org/logics/description/owl/owl.omdoc?OWLFull -->
<g id="edge19" class="edge"><title>http://latin.omdoc.org/logics/description/owl/owl.omdoc?OWLDL&#45;&gt;http://latin.omdoc.org/logics/description/owl/owl.omdoc?OWLFull</title>
<a xlink:title="include">
<path fill="none" stroke="black" d="M386,-89.937C386,-81.8072 386,-71.8761 386,-62.7047"/>
<polygon fill="black" stroke="black" points="389.5,-62.4406 386,-52.4407 382.5,-62.4407 389.5,-62.4406"/>
</a>
</g>
<!-- http://latin.omdoc.org/logics/description/owl/owl.omdoc?OWLFullFOLEQD -->
<g id="node25" class="node"><title>http://latin.omdoc.org/logics/description/owl/owl.omdoc?OWLFullFOLEQD</title>
<a xlink:href="javascript:parent.navigate(&#39;http://latin.omdoc.org/logics/description/owl/owl.omdoc?OWLFullFOLEQD&#39;)" xlink:title="theory http://latin.omdoc.org/logics/description/owl/owl.omdoc?OWLFullFOLEQD">
<ellipse fill="gray" stroke="black" cx="81" cy="-34" rx="81.3646" ry="18"/>
<text text-anchor="middle" x="81" y="-30.3" font-family="Times New Roman,serif" font-size="14.00">OWLFullFOLEQD</text>
</a>
</g>
<!-- http://latin.omdoc.org/logics/description/owl/owl.omdoc?OWLDL&#45;&gt;http://latin.omdoc.org/logics/description/owl/owl.omdoc?OWLFullFOLEQD -->
<g id="edge27" class="edge"><title>http://latin.omdoc.org/logics/description/owl/owl.omdoc?OWLDL&#45;&gt;http://latin.omdoc.org/logics/description/owl/owl.omdoc?OWLFullFOLEQD</title>
<a xlink:title="include">
<path fill="none" stroke="black" d="M354.946,-95.3428C349.346,-93.4294 343.529,-91.5637 338,-90 319.874,-84.8741 218.202,-63.4771 148.306,-48.9326"/>
<polygon fill="black" stroke="black" points="148.741,-45.4482 138.237,-46.8392 147.316,-52.3017 148.741,-45.4482"/>
</a>
</g>
<!-- http://cds.omdoc.org/urtheories?LF -->
<g id="node13" class="node"><title>http://cds.omdoc.org/urtheories?LF</title>
<a xlink:href="javascript:parent.navigate(&#39;http://cds.omdoc.org/urtheories?LF&#39;)" xlink:title="theory http://cds.omdoc.org/urtheories?LF">
<ellipse fill="gray" stroke="black" cx="825" cy="-344" rx="27" ry="18"/>
<text text-anchor="middle" x="825" y="-340.3" font-family="Times New Roman,serif" font-size="14.00">LF</text>
</a>
</g>
<!-- http://cds.omdoc.org/urtheories?LF&#45;&gt;http://latin.omdoc.org/logics/description/owl/owl.omdoc?OWLBase -->
<g id="edge9" class="edge"><title>http://cds.omdoc.org/urtheories?LF&#45;&gt;http://latin.omdoc.org/logics/description/owl/owl.omdoc?OWLBase</title>
<a xlink:title="meta">
<path fill="none" stroke="green" d="M797.872,-343.603C718.063,-344.747 477.647,-343.689 286,-296 278.801,-294.209 271.349,-291.654 264.264,-288.855"/>
<polygon fill="green" stroke="green" points="265.465,-285.564 254.889,-284.937 262.765,-292.023 265.465,-285.564"/>
</a>
</g>
<!-- http://cds.omdoc.org/urtheories?LF&#45;&gt;http://latin.omdoc.org/logics/description/owl/owl.omdoc?OWLLite -->
<g id="edge17" class="edge"><title>http://cds.omdoc.org/urtheories?LF&#45;&gt;http://latin.omdoc.org/logics/description/owl/owl.omdoc?OWLLite</title>
<a xlink:title="meta">
<path fill="none" stroke="green" d="M797.668,-343.181C678.991,-343.689 212.376,-342.687 169,-296 144.244,-269.354 175.464,-230.137 200.807,-205.608"/>
<polygon fill="green" stroke="green" points="203.499,-207.882 208.415,-198.497 198.72,-202.768 203.499,-207.882"/>
</a>
</g>
<!-- http://cds.omdoc.org/urtheories?LF&#45;&gt;http://latin.omdoc.org/logics/description/owl/owl.omdoc?OWLFull -->
<g id="edge21" class="edge"><title>http://cds.omdoc.org/urtheories?LF&#45;&gt;http://latin.omdoc.org/logics/description/owl/owl.omdoc?OWLFull</title>
<a xlink:title="meta">
<path fill="none" stroke="green" d="M851.486,-339.846C909.164,-332.239 1041,-310.528 1041,-271 1041,-271 1041,-271 1041,-107 1041,-46.9259 600.038,-36.9616 441.735,-35.3199"/>
<polygon fill="green" stroke="green" points="441.312,-31.8158 431.279,-35.2195 441.245,-38.8155 441.312,-31.8158"/>
</a>
</g>
<!-- http://cds.omdoc.org/urtheories?LF&#45;&gt;http://latin.omdoc.org/logics/description/owl/owl.omdoc?OWL1Datatype -->
<g id="edge25" class="edge"><title>http://cds.omdoc.org/urtheories?LF&#45;&gt;http://latin.omdoc.org/logics/description/owl/owl.omdoc?OWL1Datatype</title>
<a xlink:title="meta">
<path fill="none" stroke="green" d="M798.179,-341.748C734.448,-338.347 569.224,-327.013 435,-296 426.382,-294.009 417.356,-291.353 408.722,-288.516"/>
<polygon fill="green" stroke="green" points="409.778,-285.178 399.184,-285.26 407.517,-291.803 409.778,-285.178"/>
</a>
</g>
<!-- http://cds.omdoc.org/urtheories?LF&#45;&gt;http://latin.omdoc.org/logics/description/owl/owl.omdoc?OWLDL -->
<g id="edge31" class="edge"><title>http://cds.omdoc.org/urtheories?LF&#45;&gt;http://latin.omdoc.org/logics/description/owl/owl.omdoc?OWLDL</title>
<a xlink:title="meta">
<path fill="none" stroke="green" d="M842.017,-329.932C881.184,-298.362 970.731,-216.665 922,-164 884.988,-124 486.274,-137.483 433,-126 430.514,-125.464 427.98,-124.828 425.444,-124.122"/>
<polygon fill="green" stroke="green" points="426.322,-120.73 415.734,-121.113 424.25,-127.416 426.322,-120.73"/>
</a>
</g>
<!-- http://cds.omdoc.org/urtheories?LF&#45;&gt;http://latin.omdoc.org/logics/description/owl/owl.omdoc?FOLEQD -->
<g id="edge35" class="edge"><title>http://cds.omdoc.org/urtheories?LF&#45;&gt;http://latin.omdoc.org/logics/description/owl/owl.omdoc?FOLEQD</title>
<a xlink:title="meta">
<path fill="none" stroke="green" d="M823.954,-325.962C821.497,-299.779 813.297,-249.394 786,-218 778.355,-209.208 768.017,-202.457 757.495,-197.342"/>
<polygon fill="green" stroke="green" points="758.825,-194.104 748.264,-193.259 755.993,-200.505 758.825,-194.104"/>
</a>
</g>
<!-- http://cds.omdoc.org/urtheories?LF&#45;&gt;http://latin.omdoc.org/logics/description/owl/owl2.omdoc?OWL2SUB -->
<g id="edge39" class="edge"><title>http://cds.omdoc.org/urtheories?LF&#45;&gt;http://latin.omdoc.org/logics/description/owl/owl2.omdoc?OWL2SUB</title>
<a xlink:title="meta">
<path fill="none" stroke="green" d="M852.228,-343.45C881.762,-342.391 928.26,-335.952 955,-308 1006.59,-254.076 1018.01,-213.566 991,-144 989.458,-140.028 987.232,-136.232 984.661,-132.702"/>
<polygon fill="green" stroke="green" points="987.304,-130.408 978.197,-124.994 981.941,-134.906 987.304,-130.408"/>
</a>
</g>
<!-- http://cds.omdoc.org/urtheories?LF&#45;&gt;http://latin.omdoc.org/logics/description/owl/owl2.omdoc?OWL2Datatype -->
<g id="edge37" class="edge"><title>http://cds.omdoc.org/urtheories?LF&#45;&gt;http://latin.omdoc.org/logics/description/owl/owl2.omdoc?OWL2Datatype</title>
<a xlink:title="meta">
<path fill="none" stroke="green" d="M827.14,-325.877C830.599,-298.209 837.446,-243.435 841.584,-210.327"/>
<polygon fill="green" stroke="green" points="845.108,-210.357 842.875,-200 838.162,-209.488 845.108,-210.357"/>
</a>
</g>
<!-- http://latin.omdoc.org/logics/description/owl/owl2.omdoc?OWL2Datatype&#45;&gt;http://latin.omdoc.org/logics/description/owl/owl2.omdoc?OWL2SUB -->
<g id="edge33" class="edge"><title>http://latin.omdoc.org/logics/description/owl/owl2.omdoc?OWL2Datatype&#45;&gt;http://latin.omdoc.org/logics/description/owl/owl2.omdoc?OWL2SUB</title>
<a xlink:title="include">
<path fill="none" stroke="black" d="M903.342,-172.653C934.23,-166.912 967.675,-158.12 977,-146 979.695,-142.497 980.036,-138.526 979.003,-134.517"/>
<polygon fill="black" stroke="black" points="982.056,-132.789 974.561,-125.3 975.75,-135.828 982.056,-132.789"/>
</a>
</g>
</g>
</svg>
