<?xml version="1.0" encoding="UTF-8" standalone="no"?>
<!DOCTYPE svg PUBLIC "-//W3C//DTD SVG 1.1//EN"
 "http://www.w3.org/Graphics/SVG/1.1/DTD/svg11.dtd">
<!-- Generated by graphviz version 2.28.0 (20110507.0327)
 -->
<!-- Title: MMT Pages: 1 -->
<svg width="1145pt" height="586pt"
 viewBox="0.00 0.00 1145.00 586.00" xmlns="http://www.w3.org/2000/svg" xmlns:xlink="http://www.w3.org/1999/xlink">
<g id="graph1" class="graph" transform="scale(1 1) rotate(0) translate(4 582)">
<title>MMT</title>
<polygon fill="white" stroke="white" points="-4,5 -4,-582 1142,-582 1142,5 -4,5"/>
<g id="graph2" class="cluster"><title>cluster_local</title>
<polygon fill="none" stroke="black" points="8,-8 8,-512 336,-512 336,-8 8,-8"/>
</g>
<!-- http://latin.omdoc.org/logics/description/owl/owl2.omdoc?OWL2EL -->
<g id="node2" class="node"><title>http://latin.omdoc.org/logics/description/owl/owl2.omdoc?OWL2EL</title>
<a xlink:href="javascript:parent.navigate(&#39;http://latin.omdoc.org/logics/description/owl/owl2.omdoc?OWL2EL&#39;)" xlink:title="theory http://latin.omdoc.org/logics/description/owl/owl2.omdoc?OWL2EL">
<ellipse fill="none" stroke="black" cx="100" cy="-284" rx="46.1964" ry="18"/>
<text text-anchor="middle" x="100" y="-280.3" font-family="Times New Roman,serif" font-size="14.00">OWL2EL</text>
</a>
</g>
<!-- http://latin.omdoc.org/logics/description/owl/owl2.omdoc?OWL2 -->
<g id="node12" class="node"><title>http://latin.omdoc.org/logics/description/owl/owl2.omdoc?OWL2</title>
<a xlink:href="javascript:parent.navigate(&#39;http://latin.omdoc.org/logics/description/owl/owl2.omdoc?OWL2&#39;)" xlink:title="theory http://latin.omdoc.org/logics/description/owl/owl2.omdoc?OWL2">
<ellipse fill="none" stroke="black" cx="189" cy="-34" rx="36.096" ry="18"/>
<text text-anchor="middle" x="189" y="-30.3" font-family="Times New Roman,serif" font-size="14.00">OWL2</text>
</a>
</g>
<!-- http://latin.omdoc.org/logics/description/owl/owl2.omdoc?OWL2EL&#45;&gt;http://latin.omdoc.org/logics/description/owl/owl2.omdoc?OWL2 -->
<g id="edge59" class="edge"><title>http://latin.omdoc.org/logics/description/owl/owl2.omdoc?OWL2EL&#45;&gt;http://latin.omdoc.org/logics/description/owl/owl2.omdoc?OWL2</title>
<a xlink:title="include">
<path fill="none" stroke="black" d="M61.5909,-273.719C48.2955,-268.466 34.7875,-260.37 27,-248 18.4758,-234.46 23.6785,-227.651 27,-212 42.6107,-138.439 55.3178,-109.994 119,-70 129.877,-63.169 142.266,-56.6104 153.567,-51.0546"/>
<polygon fill="black" stroke="black" points="155.252,-54.1279 162.747,-46.6395 152.218,-47.8196 155.252,-54.1279"/>
</a>
</g>
<!-- http://latin.omdoc.org/logics/description/owl/owl2.omdoc?OWL2Datatype -->
<g id="node3" class="node"><title>http://latin.omdoc.org/logics/description/owl/owl2.omdoc?OWL2Datatype</title>
<a xlink:href="javascript:parent.navigate(&#39;http://latin.omdoc.org/logics/description/owl/owl2.omdoc?OWL2Datatype&#39;)" xlink:title="theory http://latin.omdoc.org/logics/description/owl/owl2.omdoc?OWL2Datatype">
<ellipse fill="none" stroke="black" cx="220" cy="-486" rx="68.3664" ry="18"/>
<text text-anchor="middle" x="220" y="-482.3" font-family="Times New Roman,serif" font-size="14.00">OWL2Datatype</text>
</a>
</g>
<!-- http://latin.omdoc.org/logics/description/owl/owl2.omdoc?OWL2SUB -->
<g id="node7" class="node"><title>http://latin.omdoc.org/logics/description/owl/owl2.omdoc?OWL2SUB</title>
<a xlink:href="javascript:parent.navigate(&#39;http://latin.omdoc.org/logics/description/owl/owl2.omdoc?OWL2SUB&#39;)" xlink:title="theory http://latin.omdoc.org/logics/description/owl/owl2.omdoc?OWL2SUB">
<ellipse fill="none" stroke="black" cx="220" cy="-412" rx="53.4184" ry="18"/>
<text text-anchor="middle" x="220" y="-408.3" font-family="Times New Roman,serif" font-size="14.00">OWL2SUB</text>
</a>
</g>
<!-- http://latin.omdoc.org/logics/description/owl/owl2.omdoc?OWL2Datatype&#45;&gt;http://latin.omdoc.org/logics/description/owl/owl2.omdoc?OWL2SUB -->
<g id="edge25" class="edge"><title>http://latin.omdoc.org/logics/description/owl/owl2.omdoc?OWL2Datatype&#45;&gt;http://latin.omdoc.org/logics/description/owl/owl2.omdoc?OWL2SUB</title>
<a xlink:title="include">
<path fill="none" stroke="black" d="M220,-467.937C220,-459.807 220,-449.876 220,-440.705"/>
<polygon fill="black" stroke="black" points="223.5,-440.441 220,-430.441 216.5,-440.441 223.5,-440.441"/>
</a>
</g>
<!-- http://latin.omdoc.org/logics/description/owl/owl2.omdoc?OWL2ELRL -->
<g id="node4" class="node"><title>http://latin.omdoc.org/logics/description/owl/owl2.omdoc?OWL2ELRL</title>
<a xlink:href="javascript:parent.navigate(&#39;http://latin.omdoc.org/logics/description/owl/owl2.omdoc?OWL2ELRL&#39;)" xlink:title="theory http://latin.omdoc.org/logics/description/owl/owl2.omdoc?OWL2ELRL">
<ellipse fill="none" stroke="black" cx="129" cy="-176" rx="58.2422" ry="18"/>
<text text-anchor="middle" x="129" y="-172.3" font-family="Times New Roman,serif" font-size="14.00">OWL2ELRL</text>
</a>
</g>
<!-- http://latin.omdoc.org/logics/description/owl/owl2.omdoc?OWL2ELRL&#45;&gt;http://latin.omdoc.org/logics/description/owl/owl2.omdoc?OWL2 -->
<g id="edge51" class="edge"><title>http://latin.omdoc.org/logics/description/owl/owl2.omdoc?OWL2ELRL&#45;&gt;http://latin.omdoc.org/logics/description/owl/owl2.omdoc?OWL2</title>
<a xlink:title="include">
<path fill="none" stroke="black" d="M136.237,-158.113C146.553,-134.042 165.581,-89.6452 177.746,-61.26"/>
<polygon fill="black" stroke="black" points="181.015,-62.5174 181.737,-51.9472 174.581,-59.7599 181.015,-62.5174"/>
</a>
</g>
<!-- http://latin.omdoc.org/logics/description/owl/owl2.omdoc?OWL2QLRL -->
<g id="node5" class="node"><title>http://latin.omdoc.org/logics/description/owl/owl2.omdoc?OWL2QLRL</title>
<a xlink:href="javascript:parent.navigate(&#39;http://latin.omdoc.org/logics/description/owl/owl2.omdoc?OWL2QLRL&#39;)" xlink:title="theory http://latin.omdoc.org/logics/description/owl/owl2.omdoc?OWL2QLRL">
<ellipse fill="none" stroke="black" cx="239" cy="-284" rx="59.1941" ry="18"/>
<text text-anchor="middle" x="239" y="-280.3" font-family="Times New Roman,serif" font-size="14.00">OWL2QLRL</text>
</a>
</g>
<!-- http://latin.omdoc.org/logics/description/owl/owl2.omdoc?OWL2QLRL&#45;&gt;http://latin.omdoc.org/logics/description/owl/owl2.omdoc?OWL2 -->
<g id="edge53" class="edge"><title>http://latin.omdoc.org/logics/description/owl/owl2.omdoc?OWL2QLRL&#45;&gt;http://latin.omdoc.org/logics/description/owl/owl2.omdoc?OWL2</title>
<a xlink:title="include">
<path fill="none" stroke="black" d="M217.368,-266.921C211.714,-261.563 206.289,-255.123 203,-248 188.093,-215.714 187.669,-112.126 188.39,-62.2889"/>
<polygon fill="black" stroke="black" points="191.891,-62.2945 188.562,-52.236 184.892,-62.1746 191.891,-62.2945"/>
</a>
</g>
<!-- http://latin.omdoc.org/logics/description/owl/owl2.omdoc?OWL2Full -->
<g id="node6" class="node"><title>http://latin.omdoc.org/logics/description/owl/owl2.omdoc?OWL2Full</title>
<a xlink:href="javascript:parent.navigate(&#39;http://latin.omdoc.org/logics/description/owl/owl2.omdoc?OWL2Full&#39;)" xlink:title="theory http://latin.omdoc.org/logics/description/owl/owl2.omdoc?OWL2Full">
<ellipse fill="none" stroke="black" cx="258" cy="-122" rx="50.0684" ry="18"/>
<text text-anchor="middle" x="258" y="-118.3" font-family="Times New Roman,serif" font-size="14.00">OWL2Full</text>
</a>
</g>
<!-- http://latin.omdoc.org/logics/description/owl/owl2.omdoc?OWL2Full&#45;&gt;http://latin.omdoc.org/logics/description/owl/owl2.omdoc?OWL2 -->
<g id="edge55" class="edge"><title>http://latin.omdoc.org/logics/description/owl/owl2.omdoc?OWL2Full&#45;&gt;http://latin.omdoc.org/logics/description/owl/owl2.omdoc?OWL2</title>
<a xlink:title="include">
<path fill="none" stroke="black" d="M244.696,-104.418C234.351,-91.5249 219.856,-73.4577 208.246,-58.9873"/>
<polygon fill="black" stroke="black" points="210.784,-56.5588 201.796,-50.9493 205.325,-60.9394 210.784,-56.5588"/>
</a>
</g>
<!-- http://latin.omdoc.org/logics/description/owl/owl2.omdoc?OWL2SUB&#45;&gt;http://latin.omdoc.org/logics/description/owl/owl2.omdoc?OWL2EL -->
<g id="edge3" class="edge"><title>http://latin.omdoc.org/logics/description/owl/owl2.omdoc?OWL2SUB&#45;&gt;http://latin.omdoc.org/logics/description/owl/owl2.omdoc?OWL2EL</title>
<a xlink:title="include">
<path fill="none" stroke="black" d="M183.503,-398.616C171.159,-393.12 157.988,-385.665 148,-376 129.442,-358.043 116.536,-331.345 108.817,-311.506"/>
<polygon fill="black" stroke="black" points="112.096,-310.281 105.347,-302.113 105.53,-312.707 112.096,-310.281"/>
</a>
</g>
<!-- http://latin.omdoc.org/logics/description/owl/owl2.omdoc?OWL2SUB&#45;&gt;http://latin.omdoc.org/logics/description/owl/owl2.omdoc?OWL2ELRL -->
<g id="edge11" class="edge"><title>http://latin.omdoc.org/logics/description/owl/owl2.omdoc?OWL2SUB&#45;&gt;http://latin.omdoc.org/logics/description/owl/owl2.omdoc?OWL2ELRL</title>
<a xlink:title="include">
<path fill="none" stroke="black" d="M209.424,-394.313C206.114,-388.644 202.641,-382.178 200,-376 186.51,-344.451 185.724,-335.431 178,-302 168.871,-262.489 181.294,-248.191 163,-212 161.022,-208.087 158.455,-204.327 155.617,-200.816"/>
<polygon fill="black" stroke="black" points="157.96,-198.189 148.654,-193.124 152.77,-202.887 157.96,-198.189"/>
</a>
</g>
<!-- http://latin.omdoc.org/logics/description/owl/owl2.omdoc?OWL2SUB&#45;&gt;http://latin.omdoc.org/logics/description/owl/owl2.omdoc?OWL2QLRL -->
<g id="edge15" class="edge"><title>http://latin.omdoc.org/logics/description/owl/owl2.omdoc?OWL2SUB&#45;&gt;http://latin.omdoc.org/logics/description/owl/owl2.omdoc?OWL2QLRL</title>
<a xlink:title="include">
<path fill="none" stroke="black" d="M211.171,-393.939C202.725,-375.17 192.679,-344.428 203,-320 204.765,-315.822 207.3,-311.897 210.219,-308.294"/>
<polygon fill="black" stroke="black" points="212.809,-310.648 217.071,-300.948 207.69,-305.873 212.809,-310.648"/>
</a>
</g>
<!-- http://latin.omdoc.org/logics/description/owl/owl2.omdoc?OWL2RL -->
<g id="node8" class="node"><title>http://latin.omdoc.org/logics/description/owl/owl2.omdoc?OWL2RL</title>
<a xlink:href="javascript:parent.navigate(&#39;http://latin.omdoc.org/logics/description/owl/owl2.omdoc?OWL2RL&#39;)" xlink:title="theory http://latin.omdoc.org/logics/description/owl/owl2.omdoc?OWL2RL">
<ellipse fill="none" stroke="black" cx="260" cy="-338" rx="48.1437" ry="18"/>
<text text-anchor="middle" x="260" y="-334.3" font-family="Times New Roman,serif" font-size="14.00">OWL2RL</text>
</a>
</g>
<!-- http://latin.omdoc.org/logics/description/owl/owl2.omdoc?OWL2SUB&#45;&gt;http://latin.omdoc.org/logics/description/owl/owl2.omdoc?OWL2RL -->
<g id="edge29" class="edge"><title>http://latin.omdoc.org/logics/description/owl/owl2.omdoc?OWL2SUB&#45;&gt;http://latin.omdoc.org/logics/description/owl/owl2.omdoc?OWL2RL</title>
<a xlink:title="include">
<path fill="none" stroke="black" d="M229.479,-393.937C234.311,-385.239 240.289,-374.48 245.67,-364.795"/>
<polygon fill="black" stroke="black" points="248.792,-366.382 250.589,-355.941 242.673,-362.982 248.792,-366.382"/>
</a>
</g>
<!-- http://latin.omdoc.org/logics/description/owl/owl2.omdoc?OWL2ELQL -->
<g id="node9" class="node"><title>http://latin.omdoc.org/logics/description/owl/owl2.omdoc?OWL2ELQL</title>
<a xlink:href="javascript:parent.navigate(&#39;http://latin.omdoc.org/logics/description/owl/owl2.omdoc?OWL2ELQL&#39;)" xlink:title="theory http://latin.omdoc.org/logics/description/owl/owl2.omdoc?OWL2ELQL">
<ellipse fill="none" stroke="black" cx="95" cy="-230" rx="59.2173" ry="18"/>
<text text-anchor="middle" x="95" y="-226.3" font-family="Times New Roman,serif" font-size="14.00">OWL2ELQL</text>
</a>
</g>
<!-- http://latin.omdoc.org/logics/description/owl/owl2.omdoc?OWL2SUB&#45;&gt;http://latin.omdoc.org/logics/description/owl/owl2.omdoc?OWL2ELQL -->
<g id="edge33" class="edge"><title>http://latin.omdoc.org/logics/description/owl/owl2.omdoc?OWL2SUB&#45;&gt;http://latin.omdoc.org/logics/description/owl/owl2.omdoc?OWL2ELQL</title>
<a xlink:title="include">
<path fill="none" stroke="black" d="M190.338,-396.803C181.916,-391.406 173.539,-384.47 168,-376 140.805,-334.412 175.377,-307.468 148,-266 144.372,-260.505 139.552,-255.668 134.295,-251.483"/>
<polygon fill="black" stroke="black" points="135.961,-248.374 125.78,-245.44 131.91,-254.082 135.961,-248.374"/>
</a>
</g>
<!-- http://latin.omdoc.org/logics/description/owl/owl2.omdoc?OWL2QL -->
<g id="node11" class="node"><title>http://latin.omdoc.org/logics/description/owl/owl2.omdoc?OWL2QL</title>
<a xlink:href="javascript:parent.navigate(&#39;http://latin.omdoc.org/logics/description/owl/owl2.omdoc?OWL2QL&#39;)" xlink:title="theory http://latin.omdoc.org/logics/description/owl/owl2.omdoc?OWL2QL">
<ellipse fill="none" stroke="black" cx="280" cy="-176" rx="48.1437" ry="18"/>
<text text-anchor="middle" x="280" y="-172.3" font-family="Times New Roman,serif" font-size="14.00">OWL2QL</text>
</a>
</g>
<!-- http://latin.omdoc.org/logics/description/owl/owl2.omdoc?OWL2SUB&#45;&gt;http://latin.omdoc.org/logics/description/owl/owl2.omdoc?OWL2QL -->
<g id="edge41" class="edge"><title>http://latin.omdoc.org/logics/description/owl/owl2.omdoc?OWL2SUB&#45;&gt;http://latin.omdoc.org/logics/description/owl/owl2.omdoc?OWL2QL</title>
<a xlink:title="include">
<path fill="none" stroke="black" d="M259.145,-399.558C280.277,-391.161 304.527,-377.411 317,-356 333.108,-328.35 329.655,-241.391 317,-212 315.048,-207.467 312.189,-203.247 308.91,-199.419"/>
<polygon fill="black" stroke="black" points="311.256,-196.813 301.749,-192.137 306.265,-201.721 311.256,-196.813"/>
</a>
</g>
<!-- http://latin.omdoc.org/logics/description/owl/owl2.omdoc?OWL2DL -->
<g id="node10" class="node"><title>http://latin.omdoc.org/logics/description/owl/owl2.omdoc?OWL2DL</title>
<a xlink:href="javascript:parent.navigate(&#39;http://latin.omdoc.org/logics/description/owl/owl2.omdoc?OWL2DL&#39;)" xlink:title="theory http://latin.omdoc.org/logics/description/owl/owl2.omdoc?OWL2DL">
<ellipse fill="none" stroke="black" cx="260" cy="-230" rx="48.1437" ry="18"/>
<text text-anchor="middle" x="260" y="-226.3" font-family="Times New Roman,serif" font-size="14.00">OWL2DL</text>
</a>
</g>
<!-- http://latin.omdoc.org/logics/description/owl/owl2.omdoc?OWL2RL&#45;&gt;http://latin.omdoc.org/logics/description/owl/owl2.omdoc?OWL2DL -->
<g id="edge37" class="edge"><title>http://latin.omdoc.org/logics/description/owl/owl2.omdoc?OWL2RL&#45;&gt;http://latin.omdoc.org/logics/description/owl/owl2.omdoc?OWL2DL</title>
<a xlink:title="include">
<path fill="none" stroke="black" d="M283.475,-322.181C290.071,-316.716 296.416,-309.899 300,-302 306.611,-287.43 306.611,-280.57 300,-266 297.816,-261.187 294.607,-256.775 290.94,-252.826"/>
<polygon fill="black" stroke="black" points="293.162,-250.112 283.475,-245.819 288.371,-255.215 293.162,-250.112"/>
</a>
</g>
<!-- http://latin.omdoc.org/logics/description/owl/owl2.omdoc?OWL2ELQL&#45;&gt;http://latin.omdoc.org/logics/description/owl/owl2.omdoc?OWL2 -->
<g id="edge57" class="edge"><title>http://latin.omdoc.org/logics/description/owl/owl2.omdoc?OWL2ELQL&#45;&gt;http://latin.omdoc.org/logics/description/owl/owl2.omdoc?OWL2</title>
<a xlink:title="include">
<path fill="none" stroke="black" d="M79.9469,-212.367C75.915,-206.902 72.0965,-200.542 70,-194 65.1172,-178.763 63.9994,-172.832 70,-158 87.9514,-113.628 130.434,-76.393 159.465,-54.8841"/>
<polygon fill="black" stroke="black" points="161.576,-57.6763 167.632,-48.9825 157.477,-52.0026 161.576,-57.6763"/>
</a>
</g>
<!-- http://latin.omdoc.org/logics/description/owl/owl2.omdoc?OWL2DL&#45;&gt;http://latin.omdoc.org/logics/description/owl/owl2.omdoc?OWL2Full -->
<g id="edge19" class="edge"><title>http://latin.omdoc.org/logics/description/owl/owl2.omdoc?OWL2DL&#45;&gt;http://latin.omdoc.org/logics/description/owl/owl2.omdoc?OWL2Full</title>
<a xlink:title="include">
<path fill="none" stroke="black" d="M242.88,-213.075C238.093,-207.551 233.515,-200.978 231,-194 225.574,-178.948 225.837,-173.144 231,-158 232.237,-154.373 234.018,-150.829 236.085,-147.473"/>
<polygon fill="black" stroke="black" points="239.094,-149.282 242.044,-139.106 233.392,-145.221 239.094,-149.282"/>
</a>
</g>
<!-- http://latin.omdoc.org/logics/description/owl/owl2.omdoc?OWL2QL&#45;&gt;http://latin.omdoc.org/logics/description/owl/owl2.omdoc?OWL2 -->
<g id="edge61" class="edge"><title>http://latin.omdoc.org/logics/description/owl/owl2.omdoc?OWL2QL&#45;&gt;http://latin.omdoc.org/logics/description/owl/owl2.omdoc?OWL2</title>
<a xlink:title="include">
<path fill="none" stroke="black" d="M301.749,-159.863C307.851,-154.381 313.713,-147.634 317,-140 323.328,-125.304 325.201,-117.738 317,-104 298.514,-73.0347 260.803,-55.1424 231.078,-45.3751"/>
<polygon fill="black" stroke="black" points="231.93,-41.9753 221.343,-42.3671 229.864,-48.6633 231.93,-41.9753"/>
</a>
</g>
<!-- http://cds.omdoc.org/urtheories?LF -->
<g id="node14" class="node"><title>http://cds.omdoc.org/urtheories?LF</title>
<a xlink:href="javascript:parent.navigate(&#39;http://cds.omdoc.org/urtheories?LF&#39;)" xlink:title="theory http://cds.omdoc.org/urtheories?LF">
<ellipse fill="gray" stroke="black" cx="622" cy="-560" rx="27" ry="18"/>
<text text-anchor="middle" x="622" y="-556.3" font-family="Times New Roman,serif" font-size="14.00">LF</text>
</a>
</g>
<!-- http://cds.omdoc.org/urtheories?LF&#45;&gt;http://latin.omdoc.org/logics/description/owl/owl2.omdoc?OWL2EL -->
<g id="edge5" class="edge"><title>http://cds.omdoc.org/urtheories?LF&#45;&gt;http://latin.omdoc.org/logics/description/owl/owl2.omdoc?OWL2EL</title>
<a xlink:title="meta">
<path fill="none" stroke="green" d="M596.132,-554.499C562.497,-546.991 508,-528.433 508,-487 508,-487 508,-487 508,-374 508,-297.204 245.555,-315.752 170,-302 162.557,-300.645 154.723,-298.982 147.098,-297.231"/>
<polygon fill="green" stroke="green" points="147.784,-293.796 137.246,-294.897 146.17,-300.608 147.784,-293.796"/>
</a>
</g>
<!-- http://cds.omdoc.org/urtheories?LF&#45;&gt;http://latin.omdoc.org/logics/description/owl/owl2.omdoc?OWL2Datatype -->
<g id="edge9" class="edge"><title>http://cds.omdoc.org/urtheories?LF&#45;&gt;http://latin.omdoc.org/logics/description/owl/owl2.omdoc?OWL2Datatype</title>
<a xlink:title="meta">
<path fill="none" stroke="green" d="M594.92,-558.886C539.113,-558.034 407.674,-552.838 302,-524 286.942,-519.891 271.144,-513.351 257.479,-506.905"/>
<polygon fill="green" stroke="green" points="258.918,-503.713 248.394,-502.488 255.857,-510.008 258.918,-503.713"/>
</a>
</g>
<!-- http://cds.omdoc.org/urtheories?LF&#45;&gt;http://latin.omdoc.org/logics/description/owl/owl2.omdoc?OWL2ELRL -->
<g id="edge13" class="edge"><title>http://cds.omdoc.org/urtheories?LF&#45;&gt;http://latin.omdoc.org/logics/description/owl/owl2.omdoc?OWL2ELRL</title>
<a xlink:title="meta">
<path fill="none" stroke="green" d="M635.291,-544.184C646.249,-530.4 660,-508.767 660,-487 660,-487 660,-487 660,-283 660,-264.903 640.265,-271.424 623,-266 450.669,-211.861 400.765,-226.073 223,-194 211.766,-191.973 199.776,-189.807 188.251,-187.723"/>
<polygon fill="green" stroke="green" points="188.735,-184.254 178.272,-185.919 187.489,-191.142 188.735,-184.254"/>
</a>
</g>
<!-- http://cds.omdoc.org/urtheories?LF&#45;&gt;http://latin.omdoc.org/logics/description/owl/owl2.omdoc?OWL2QLRL -->
<g id="edge17" class="edge"><title>http://cds.omdoc.org/urtheories?LF&#45;&gt;http://latin.omdoc.org/logics/description/owl/owl2.omdoc?OWL2QLRL</title>
<a xlink:title="meta">
<path fill="none" stroke="green" d="M600.018,-549.543C577.572,-538.231 546,-516.989 546,-487 546,-487 546,-487 546,-374 546,-260.933 413.387,-321.419 302,-302 297.919,-301.289 293.719,-300.434 289.517,-299.491"/>
<polygon fill="green" stroke="green" points="290.304,-296.08 279.764,-297.157 288.674,-302.888 290.304,-296.08"/>
</a>
</g>
<!-- http://cds.omdoc.org/urtheories?LF&#45;&gt;http://latin.omdoc.org/logics/description/owl/owl2.omdoc?OWL2Full -->
<g id="edge21" class="edge"><title>http://cds.omdoc.org/urtheories?LF&#45;&gt;http://latin.omdoc.org/logics/description/owl/owl2.omdoc?OWL2Full</title>
<a xlink:title="meta">
<path fill="none" stroke="green" d="M647.868,-554.499C681.503,-546.991 736,-528.433 736,-487 736,-487 736,-487 736,-229 736,-210.903 716.249,-217.474 699,-212 532.245,-159.077 481.749,-182.345 312,-140 309.044,-139.263 306.012,-138.454 302.965,-137.604"/>
<polygon fill="green" stroke="green" points="303.843,-134.214 293.263,-134.775 301.884,-140.934 303.843,-134.214"/>
</a>
</g>
<!-- http://cds.omdoc.org/urtheories?LF&#45;&gt;http://latin.omdoc.org/logics/description/owl/owl2.omdoc?OWL2SUB -->
<g id="edge27" class="edge"><title>http://cds.omdoc.org/urtheories?LF&#45;&gt;http://latin.omdoc.org/logics/description/owl/owl2.omdoc?OWL2SUB</title>
<a xlink:title="meta">
<path fill="none" stroke="green" d="M595.017,-556.934C532.464,-551.773 379.496,-536.912 335,-512 312.454,-499.377 316.093,-485.41 297,-468 283.429,-455.625 267.026,-443.569 252.853,-433.914"/>
<polygon fill="green" stroke="green" points="254.619,-430.884 244.362,-428.231 250.726,-436.702 254.619,-430.884"/>
</a>
</g>
<!-- http://cds.omdoc.org/urtheories?LF&#45;&gt;http://latin.omdoc.org/logics/description/owl/owl2.omdoc?OWL2RL -->
<g id="edge31" class="edge"><title>http://cds.omdoc.org/urtheories?LF&#45;&gt;http://latin.omdoc.org/logics/description/owl/owl2.omdoc?OWL2RL</title>
<a xlink:title="meta">
<path fill="none" stroke="green" d="M595.432,-556.725C568.01,-553.297 524.982,-544.809 494,-524 467.95,-506.504 473.853,-489.504 451,-468 402.201,-422.082 335.518,-381.04 295.228,-358.142"/>
<polygon fill="green" stroke="green" points="296.746,-354.98 286.314,-353.128 293.314,-361.081 296.746,-354.98"/>
</a>
</g>
<!-- http://cds.omdoc.org/urtheories?LF&#45;&gt;http://latin.omdoc.org/logics/description/owl/owl2.omdoc?OWL2ELQL -->
<g id="edge35" class="edge"><title>http://cds.omdoc.org/urtheories?LF&#45;&gt;http://latin.omdoc.org/logics/description/owl/owl2.omdoc?OWL2ELQL</title>
<a xlink:title="meta">
<path fill="none" stroke="green" d="M608.709,-544.184C597.751,-530.4 584,-508.767 584,-487 584,-487 584,-487 584,-337 584,-320.105 565.921,-325.653 550,-320 445.742,-282.984 415.62,-287.019 307,-266 278.931,-260.568 208.471,-249.093 156.447,-240.759"/>
<polygon fill="green" stroke="green" points="156.733,-237.261 146.306,-239.137 155.628,-244.173 156.733,-237.261"/>
</a>
</g>
<!-- http://cds.omdoc.org/urtheories?LF&#45;&gt;http://latin.omdoc.org/logics/description/owl/owl2.omdoc?OWL2DL -->
<g id="edge39" class="edge"><title>http://cds.omdoc.org/urtheories?LF&#45;&gt;http://latin.omdoc.org/logics/description/owl/owl2.omdoc?OWL2DL</title>
<a xlink:title="meta">
<path fill="none" stroke="green" d="M622,-541.834C622,-527.247 622,-505.75 622,-487 622,-487 622,-487 622,-337 622,-303.69 624.44,-286.26 598,-266 572.726,-246.633 343.271,-253.995 312,-248 308.973,-247.42 305.877,-246.713 302.78,-245.922"/>
<polygon fill="green" stroke="green" points="303.534,-242.498 292.959,-243.157 301.636,-249.236 303.534,-242.498"/>
</a>
</g>
<!-- http://cds.omdoc.org/urtheories?LF&#45;&gt;http://latin.omdoc.org/logics/description/owl/owl2.omdoc?OWL2QL -->
<g id="edge43" class="edge"><title>http://cds.omdoc.org/urtheories?LF&#45;&gt;http://latin.omdoc.org/logics/description/owl/owl2.omdoc?OWL2QL</title>
<a xlink:title="meta">
<path fill="none" stroke="green" d="M643.982,-549.543C666.428,-538.231 698,-516.989 698,-487 698,-487 698,-487 698,-283 698,-249.69 700.543,-232.124 674,-212 643.677,-189.01 369.408,-200.973 332,-194 328.97,-193.435 325.872,-192.74 322.773,-191.958"/>
<polygon fill="green" stroke="green" points="323.523,-188.533 312.949,-189.209 321.637,-195.274 323.523,-188.533"/>
</a>
</g>
<!-- http://cds.omdoc.org/urtheories?LF&#45;&gt;http://latin.omdoc.org/logics/description/owl/owl2.omdoc?OWL2 -->
<g id="edge63" class="edge"><title>http://cds.omdoc.org/urtheories?LF&#45;&gt;http://latin.omdoc.org/logics/description/owl/owl2.omdoc?OWL2</title>
<a xlink:title="meta">
<path fill="none" stroke="green" d="M649.175,-558.028C692.895,-554.853 774,-541.603 774,-487 774,-487 774,-487 774,-121 774,-66.6616 373.819,-43.3782 235.425,-36.9507"/>
<polygon fill="green" stroke="green" points="235.302,-33.4416 225.153,-36.4825 234.983,-40.4343 235.302,-33.4416"/>
</a>
</g>
<!-- http://latin.omdoc.org/logics/description/owl/owl.omdoc?OWL1Datatype -->
<g id="node16" class="node"><title>http://latin.omdoc.org/logics/description/owl/owl.omdoc?OWL1Datatype</title>
<a xlink:href="javascript:parent.navigate(&#39;http://latin.omdoc.org/logics/description/owl/owl.omdoc?OWL1Datatype&#39;)" xlink:title="theory http://latin.omdoc.org/logics/description/owl/owl.omdoc?OWL1Datatype">
<ellipse fill="gray" stroke="black" cx="1069" cy="-486" rx="68.3664" ry="18"/>
<text text-anchor="middle" x="1069" y="-482.3" font-family="Times New Roman,serif" font-size="14.00">OWL1Datatype</text>
</a>
</g>
<!-- http://cds.omdoc.org/urtheories?LF&#45;&gt;http://latin.omdoc.org/logics/description/owl/owl.omdoc?OWL1Datatype -->
<g id="edge75" class="edge"><title>http://cds.omdoc.org/urtheories?LF&#45;&gt;http://latin.omdoc.org/logics/description/owl/owl.omdoc?OWL1Datatype</title>
<a xlink:title="meta">
<path fill="none" stroke="green" d="M649.092,-559.402C710.389,-559.668 863.953,-556.698 987,-524 1002.08,-519.991 1017.89,-513.474 1031.55,-507.017"/>
<polygon fill="green" stroke="green" points="1033.18,-510.118 1040.63,-502.588 1030.11,-503.826 1033.18,-510.118"/>
</a>
</g>
<!-- http://latin.omdoc.org/logics/description/owl/owl.omdoc?OWLBase -->
<g id="node25" class="node"><title>http://latin.omdoc.org/logics/description/owl/owl.omdoc?OWLBase</title>
<a xlink:href="javascript:parent.navigate(&#39;http://latin.omdoc.org/logics/description/owl/owl.omdoc?OWLBase&#39;)" xlink:title="theory http://latin.omdoc.org/logics/description/owl/owl.omdoc?OWLBase">
<ellipse fill="gray" stroke="black" cx="393" cy="-486" rx="49.0941" ry="18"/>
<text text-anchor="middle" x="393" y="-482.3" font-family="Times New Roman,serif" font-size="14.00">OWLBase</text>
</a>
</g>
<!-- http://cds.omdoc.org/urtheories?LF&#45;&gt;http://latin.omdoc.org/logics/description/owl/owl.omdoc?OWLBase -->
<g id="edge69" class="edge"><title>http://cds.omdoc.org/urtheories?LF&#45;&gt;http://latin.omdoc.org/logics/description/owl/owl.omdoc?OWLBase</title>
<a xlink:title="meta">
<path fill="none" stroke="green" d="M595.37,-556.076C561.937,-551.803 503.242,-542.292 456,-524 444.951,-519.722 433.578,-513.64 423.588,-507.64"/>
<polygon fill="green" stroke="green" points="425.192,-504.516 414.852,-502.207 421.495,-510.46 425.192,-504.516"/>
</a>
</g>
<!-- http://latin.omdoc.org/logics/syntax?DLBase -->
<g id="node37" class="node"><title>http://latin.omdoc.org/logics/syntax?DLBase</title>
<a xlink:href="javascript:parent.navigate(&#39;http://latin.omdoc.org/logics/syntax?DLBase&#39;)" xlink:title="theory http://latin.omdoc.org/logics/syntax?DLBase">
<ellipse fill="gray" stroke="black" cx="842" cy="-338" rx="39.9464" ry="18"/>
<text text-anchor="middle" x="842" y="-334.3" font-family="Times New Roman,serif" font-size="14.00">DLBase</text>
</a>
</g>
<!-- http://cds.omdoc.org/urtheories?LF&#45;&gt;http://latin.omdoc.org/logics/syntax?DLBase -->
<g id="edge73" class="edge"><title>http://cds.omdoc.org/urtheories?LF&#45;&gt;http://latin.omdoc.org/logics/syntax?DLBase</title>
<a xlink:title="meta">
<path fill="none" stroke="green" d="M648.612,-556.69C690.224,-552.549 768.016,-542.517 788,-524 832.513,-482.756 841.058,-407.093 842.257,-366.484"/>
<polygon fill="green" stroke="green" points="845.76,-366.308 842.424,-356.252 838.761,-366.194 845.76,-366.308"/>
</a>
</g>
<!-- http://latin.omdoc.org/logics/syntax?FL0 -->
<g id="node39" class="node"><title>http://latin.omdoc.org/logics/syntax?FL0</title>
<a xlink:href="javascript:parent.navigate(&#39;http://latin.omdoc.org/logics/syntax?FL0&#39;)" xlink:title="theory http://latin.omdoc.org/logics/syntax?FL0">
<ellipse fill="gray" stroke="black" cx="914" cy="-230" rx="27" ry="18"/>
<text text-anchor="middle" x="914" y="-226.3" font-family="Times New Roman,serif" font-size="14.00">FL0</text>
</a>
</g>
<!-- http://cds.omdoc.org/urtheories?LF&#45;&gt;http://latin.omdoc.org/logics/syntax?FL0 -->
<g id="edge77" class="edge"><title>http://cds.omdoc.org/urtheories?LF&#45;&gt;http://latin.omdoc.org/logics/syntax?FL0</title>
<a xlink:title="meta">
<path fill="none" stroke="green" d="M649.022,-558.034C721.015,-554.73 912,-540.886 912,-487 912,-487 912,-487 912,-337 912,-310.232 912.645,-279.669 913.203,-258.261"/>
<polygon fill="green" stroke="green" points="916.702,-258.348 913.475,-248.257 909.704,-258.158 916.702,-258.348"/>
</a>
</g>
<!-- http://latin.omdoc.org/logics/syntax?FLminus -->
<g id="node41" class="node"><title>http://latin.omdoc.org/logics/syntax?FLminus</title>
<a xlink:href="javascript:parent.navigate(&#39;http://latin.omdoc.org/logics/syntax?FLminus&#39;)" xlink:title="theory http://latin.omdoc.org/logics/syntax?FLminus">
<ellipse fill="gray" stroke="black" cx="1025" cy="-122" rx="42.3456" ry="18"/>
<text text-anchor="middle" x="1025" y="-118.3" font-family="Times New Roman,serif" font-size="14.00">FLminus</text>
</a>
</g>
<!-- http://cds.omdoc.org/urtheories?LF&#45;&gt;http://latin.omdoc.org/logics/syntax?FLminus -->
<g id="edge71" class="edge"><title>http://cds.omdoc.org/urtheories?LF&#45;&gt;http://latin.omdoc.org/logics/syntax?FLminus</title>
<a xlink:title="meta">
<path fill="none" stroke="green" d="M649.25,-559.194C731.719,-559.058 973,-553.016 973,-487 973,-487 973,-487 973,-229 973,-198.509 990.556,-167.664 1005.27,-147.171"/>
<polygon fill="green" stroke="green" points="1008.15,-149.157 1011.34,-139.053 1002.55,-144.965 1008.15,-149.157"/>
</a>
</g>
<!-- http://latin.omdoc.org/logics/description/owl/owl.omdoc?OWL1Datatype&#45;&gt;http://latin.omdoc.org/logics/description/owl/owl2.omdoc?OWL2Datatype -->
<g id="edge7" class="edge"><title>http://latin.omdoc.org/logics/description/owl/owl.omdoc?OWL1Datatype&#45;&gt;http://latin.omdoc.org/logics/description/owl/owl2.omdoc?OWL2Datatype</title>
<a xlink:title="include">
<path fill="none" stroke="black" d="M1040.57,-502.58C1023.15,-511.769 1000.02,-522.268 978,-527 904.456,-542.803 374.167,-544.463 301,-527 284.777,-523.128 268.126,-515.452 254.172,-507.777"/>
<polygon fill="black" stroke="black" points="255.842,-504.701 245.424,-502.775 252.367,-510.777 255.842,-504.701"/>
</a>
</g>
<!-- http://latin.omdoc.org/logics/description/owl/owl.omdoc?OWLBase&#45;&gt;http://latin.omdoc.org/logics/description/owl/owl2.omdoc?OWL2SUB -->
<g id="edge23" class="edge"><title>http://latin.omdoc.org/logics/description/owl/owl.omdoc?OWLBase&#45;&gt;http://latin.omdoc.org/logics/description/owl/owl2.omdoc?OWL2SUB</title>
<a xlink:title="include">
<path fill="none" stroke="black" d="M370.321,-470.017C358.613,-462.718 343.901,-454.2 330,-448 323.948,-445.301 294.79,-436.049 268.015,-427.735"/>
<polygon fill="black" stroke="black" points="268.893,-424.343 258.306,-424.729 266.823,-431.03 268.893,-424.343"/>
</a>
</g>
<!-- http://latin.omdoc.org/logics/syntax?DLBase&#45;&gt;http://latin.omdoc.org/logics/description/owl/owl2.omdoc?OWL2 -->
<g id="edge45" class="edge"><title>http://latin.omdoc.org/logics/syntax?DLBase&#45;&gt;http://latin.omdoc.org/logics/description/owl/owl2.omdoc?OWL2</title>
<a xlink:href="javascript:parent.navigate(&#39;http://latin.omdoc.org/logics/description/owl/owl2.omdoc?DLBasetoOWL2&#39;)" xlink:title="view http://latin.omdoc.org/logics/description/owl/owl2.omdoc?DLBasetoOWL2">
<path fill="none" stroke="blue" stroke-dasharray="5,2" d="M836.739,-320.142C830.103,-293.384 817.167,-239.957 808.019,-194.196 797.334,-138.485 828.916,-106.601 787.333,-70.7447 747.213,-34.4478 369.194,-34.3307 235.551,-35.4535"/>
<path fill="none" stroke="blue" stroke-dasharray="5,2" d="M838.68,-319.661C832.047,-292.914 819.111,-239.487 809.981,-193.804 798.755,-139.892 830.337,-108.008 788.667,-69.2553 747.214,-32.4478 369.195,-32.3307 235.535,-33.4536"/>
<polygon fill="blue" stroke="blue" points="235.202,-30.9564 225.234,-34.5468 235.265,-37.9561 235.202,-30.9564"/>
</a>
<a xlink:href="javascript:parent.navigate(&#39;http://latin.omdoc.org/logics/description/owl/owl2.omdoc?DLBasetoOWL2&#39;)" xlink:title="DLBasetoOWL2">
<text text-anchor="middle" x="857" y="-172.3" font-family="Times New Roman,serif" font-size="14.00">DLBasetoOWL2</text>
</a>
</g>
<!-- http://latin.omdoc.org/logics/syntax?DLBase&#45;&gt;http://latin.omdoc.org/logics/syntax?FL0 -->
<g id="edge67" class="edge"><title>http://latin.omdoc.org/logics/syntax?DLBase&#45;&gt;http://latin.omdoc.org/logics/syntax?FL0</title>
<a xlink:title="include">
<path fill="none" stroke="black" d="M853.25,-320.438C865.171,-302.888 884.108,-275.007 897.671,-255.04"/>
<polygon fill="black" stroke="black" points="900.575,-256.994 903.299,-246.755 894.784,-253.06 900.575,-256.994"/>
</a>
</g>
<!-- http://latin.omdoc.org/logics/syntax?FL0&#45;&gt;http://latin.omdoc.org/logics/description/owl/owl2.omdoc?OWL2 -->
<g id="edge47" class="edge"><title>http://latin.omdoc.org/logics/syntax?FL0&#45;&gt;http://latin.omdoc.org/logics/description/owl/owl2.omdoc?OWL2</title>
<a xlink:href="javascript:parent.navigate(&#39;http://latin.omdoc.org/logics/description/owl/owl2.omdoc?FL0toOWL2&#39;)" xlink:title="view http://latin.omdoc.org/logics/description/owl/owl2.omdoc?FL0toOWL2">
<path fill="none" stroke="blue" stroke-dasharray="5,2" d="M914.931,-211.82C915.891,-197.022 915.543,-175.217 908.084,-158.402 897.469,-134.058 849.644,-81.9988 825.579,-70.907 772.929,-46.3631 373.682,-38.5536 235.718,-36.5761"/>
<path fill="none" stroke="blue" stroke-dasharray="5,2" d="M916.927,-211.949C917.891,-196.991 917.542,-175.186 909.916,-157.598 898.941,-132.705 851.117,-80.6458 826.421,-69.093 772.968,-44.3635 373.722,-36.5539 235.747,-34.5763"/>
<polygon fill="blue" stroke="blue" points="235.54,-32.0732 225.492,-35.4333 235.442,-39.0726 235.54,-32.0732"/>
</a>
<a xlink:href="javascript:parent.navigate(&#39;http://latin.omdoc.org/logics/description/owl/owl2.omdoc?FL0toOWL2&#39;)" xlink:title="FL0toOWL2">
<text text-anchor="middle" x="934" y="-118.3" font-family="Times New Roman,serif" font-size="14.00">FL0toOWL2</text>
</a>
</g>
<!-- http://latin.omdoc.org/logics/syntax?FL0&#45;&gt;http://latin.omdoc.org/logics/syntax?FLminus -->
<g id="edge65" class="edge"><title>http://latin.omdoc.org/logics/syntax?FL0&#45;&gt;http://latin.omdoc.org/logics/syntax?FLminus</title>
<a xlink:title="include">
<path fill="none" stroke="black" d="M923.651,-212.916C934.781,-194.715 952.73,-166.494 962,-158 969.395,-151.225 978.335,-145.261 987.128,-140.265"/>
<polygon fill="black" stroke="black" points="989.01,-143.227 996.167,-135.415 985.701,-137.059 989.01,-143.227"/>
</a>
</g>
<!-- http://latin.omdoc.org/logics/syntax?FLminus&#45;&gt;http://latin.omdoc.org/logics/description/owl/owl2.omdoc?OWL2 -->
<g id="edge49" class="edge"><title>http://latin.omdoc.org/logics/syntax?FLminus&#45;&gt;http://latin.omdoc.org/logics/description/owl/owl2.omdoc?OWL2</title>
<a xlink:href="javascript:parent.navigate(&#39;http://latin.omdoc.org/logics/description/owl/owl2.omdoc?FLminustoOWL2&#39;)" xlink:title="view http://latin.omdoc.org/logics/description/owl/owl2.omdoc?FLminustoOWL2">
<path fill="none" stroke="blue" stroke-dasharray="5,2" d="M999.452,-108.238C975.603,-96.0154 938.257,-78.8044 903.778,-70.975 776.143,-41.8871 373.306,-36.9882 235.649,-36.1655"/>
<path fill="none" stroke="blue" stroke-dasharray="5,2" d="M1000.36,-106.458C976.44,-94.199 939.094,-76.988 904.222,-69.025 776.167,-39.8872 373.33,-34.9883 235.661,-34.1655"/>
<polygon fill="blue" stroke="blue" points="235.464,-31.6645 225.445,-35.1092 235.426,-38.6644 235.464,-31.6645"/>
</a>
<a xlink:href="javascript:parent.navigate(&#39;http://latin.omdoc.org/logics/description/owl/owl2.omdoc?FLminustoOWL2&#39;)" xlink:title="FLminustoOWL2">
<text text-anchor="middle" x="1001" y="-74.3" font-family="Times New Roman,serif" font-size="14.00">FLminustoOWL2</text>
</a>
</g>
</g>
</svg>
