<?xml version="1.0" encoding="UTF-8" standalone="no"?>
<!DOCTYPE svg PUBLIC "-//W3C//DTD SVG 1.1//EN"
 "http://www.w3.org/Graphics/SVG/1.1/DTD/svg11.dtd">
<!-- Generated by graphviz version 2.28.0 (20110507.0327)
 -->
<!-- Title: MMT Pages: 1 -->
<svg width="583pt" height="368pt"
 viewBox="0.00 0.00 583.00 368.00" xmlns="http://www.w3.org/2000/svg" xmlns:xlink="http://www.w3.org/1999/xlink">
<g id="graph1" class="graph" transform="scale(1 1) rotate(0) translate(4 364)">
<title>MMT</title>
<polygon fill="white" stroke="white" points="-4,5 -4,-364 580,-364 580,5 -4,5"/>
<!-- http://latin.omdoc.org/logics/description/owl/owl.omdoc?OWLFull -->
<g id="node2" class="node"><title>http://latin.omdoc.org/logics/description/owl/owl.omdoc?OWLFull</title>
<a xlink:href="javascript:parent.navigate(&#39;http://latin.omdoc.org/logics/description/owl/owl.omdoc?OWLFull&#39;)" xlink:title="theory http://latin.omdoc.org/logics/description/owl/owl.omdoc?OWLFull">
<ellipse fill="gray" stroke="black" cx="242" cy="-106" rx="45.244" ry="18"/>
<text text-anchor="middle" x="242" y="-102.3" font-family="Times New Roman,serif" font-size="14.00">OWLFull</text>
</a>
</g>
<!-- http://latin.omdoc.org/logics/description/owl/owl.omdoc?FOLEQD -->
<g id="node3" class="node"><title>http://latin.omdoc.org/logics/description/owl/owl.omdoc?FOLEQD</title>
<a xlink:href="javascript:parent.navigate(&#39;http://latin.omdoc.org/logics/description/owl/owl.omdoc?FOLEQD&#39;)" xlink:title="theory http://latin.omdoc.org/logics/description/owl/owl.omdoc?FOLEQD">
<ellipse fill="gray" stroke="black" cx="202" cy="-18" rx="46.1964" ry="18"/>
<text text-anchor="middle" x="202" y="-14.3" font-family="Times New Roman,serif" font-size="14.00">FOLEQD</text>
</a>
</g>
<!-- http://latin.omdoc.org/logics/description/owl/owl.omdoc?OWLFull&#45;&gt;http://latin.omdoc.org/logics/description/owl/owl.omdoc?FOLEQD -->
<g id="edge3" class="edge"><title>http://latin.omdoc.org/logics/description/owl/owl.omdoc?OWLFull&#45;&gt;http://latin.omdoc.org/logics/description/owl/owl.omdoc?FOLEQD</title>
<a xlink:href="javascript:parent.navigate(&#39;http://latin.omdoc.org/logics/description/owl/owl.omdoc?OWLFullFOLEQD&#39;)" xlink:title="view http://latin.omdoc.org/logics/description/owl/owl.omdoc?OWLFullFOLEQD">
<path fill="none" stroke="blue" stroke-dasharray="5,2" d="M218.543,-90.7932C212.027,-85.2341 205.823,-78.4499 202.091,-70.4164 198.713,-62.9359 197.596,-54.5483 197.531,-46.5535"/>
<path fill="none" stroke="blue" stroke-dasharray="5,2" d="M219.84,-89.2706C213.503,-83.8844 207.299,-77.1002 203.909,-69.5836 200.695,-62.672 199.579,-54.2844 199.531,-46.539"/>
<polygon fill="blue" stroke="blue" points="202.039,-46.4465 199.004,-36.2956 195.046,-46.1233 202.039,-46.4465"/>
</a>
<a xlink:href="javascript:parent.navigate(&#39;http://latin.omdoc.org/logics/description/owl/owl.omdoc?OWLFullFOLEQD&#39;)" xlink:title="OWLFullFOLEQD">
<text text-anchor="middle" x="257.5" y="-58.3" font-family="Times New Roman,serif" font-size="14.00">OWLFullFOLEQD</text>
</a>
</g>
<!-- http://latin.omdoc.org/logics/description/owl/owl.omdoc?OWLDL -->
<g id="node5" class="node"><title>http://latin.omdoc.org/logics/description/owl/owl.omdoc?OWLDL</title>
<a xlink:href="javascript:parent.navigate(&#39;http://latin.omdoc.org/logics/description/owl/owl.omdoc?OWLDL&#39;)" xlink:title="theory http://latin.omdoc.org/logics/description/owl/owl.omdoc?OWLDL">
<ellipse fill="gray" stroke="black" cx="326" cy="-194" rx="43.319" ry="18"/>
<text text-anchor="middle" x="326" y="-190.3" font-family="Times New Roman,serif" font-size="14.00">OWLDL</text>
</a>
</g>
<!-- http://latin.omdoc.org/logics/description/owl/owl.omdoc?OWLDL&#45;&gt;http://latin.omdoc.org/logics/description/owl/owl.omdoc?OWLFull -->
<g id="edge19" class="edge"><title>http://latin.omdoc.org/logics/description/owl/owl.omdoc?OWLDL&#45;&gt;http://latin.omdoc.org/logics/description/owl/owl.omdoc?OWLFull</title>
<a xlink:title="include">
<path fill="none" stroke="black" d="M312.687,-176.404C304.235,-166.17 292.877,-152.953 282,-142 277.751,-137.722 273.065,-133.347 268.443,-129.204"/>
<polygon fill="black" stroke="black" points="270.635,-126.472 260.81,-122.508 266.019,-131.734 270.635,-126.472"/>
</a>
</g>
<!-- http://latin.omdoc.org/logics/description/owl/owl.omdoc?OWLDL&#45;&gt;http://latin.omdoc.org/logics/description/owl/owl.omdoc?FOLEQD -->
<g id="edge5" class="edge"><title>http://latin.omdoc.org/logics/description/owl/owl.omdoc?OWLDL&#45;&gt;http://latin.omdoc.org/logics/description/owl/owl.omdoc?FOLEQD</title>
<a xlink:href="javascript:parent.navigate(&#39;http://latin.omdoc.org/logics/description/owl/owl.omdoc?OWLDLFOLEQD&#39;)" xlink:title="view http://latin.omdoc.org/logics/description/owl/owl.omdoc?OWLDLFOLEQD">
<path fill="none" stroke="blue" stroke-dasharray="5,2" d="M328.74,-175.649C333.878,-147.057 339.579,-89.1243 311.223,-54.63 298.215,-38.4052 277.019,-29.5676 256.954,-24.9323"/>
<path fill="none" stroke="blue" stroke-dasharray="5,2" d="M330.709,-176.003C335.869,-147.253 341.569,-89.3202 312.777,-53.37 298.985,-36.5592 277.789,-27.7216 257.406,-22.984"/>
<polygon fill="blue" stroke="blue" points="257.863,-20.5255 247.368,-21.9755 256.477,-27.3869 257.863,-20.5255"/>
</a>
<a xlink:href="javascript:parent.navigate(&#39;http://latin.omdoc.org/logics/description/owl/owl.omdoc?OWLDLFOLEQD&#39;)" xlink:title="OWLDLFOLEQD">
<text text-anchor="middle" x="387" y="-102.3" font-family="Times New Roman,serif" font-size="14.00">OWLDLFOLEQD</text>
</a>
</g>
<!-- http://latin.omdoc.org/logics/description/owl/owl.omdoc?OWL1Datatype -->
<g id="node7" class="node"><title>http://latin.omdoc.org/logics/description/owl/owl.omdoc?OWL1Datatype</title>
<a xlink:href="javascript:parent.navigate(&#39;http://latin.omdoc.org/logics/description/owl/owl.omdoc?OWL1Datatype&#39;)" xlink:title="theory http://latin.omdoc.org/logics/description/owl/owl.omdoc?OWL1Datatype">
<ellipse fill="gray" stroke="black" cx="68" cy="-342" rx="68.3664" ry="18"/>
<text text-anchor="middle" x="68" y="-338.3" font-family="Times New Roman,serif" font-size="14.00">OWL1Datatype</text>
</a>
</g>
<!-- http://latin.omdoc.org/logics/description/owl/owl.omdoc?OWL1Datatype&#45;&gt;http://latin.omdoc.org/logics/description/owl/owl.omdoc?FOLEQD -->
<g id="edge7" class="edge"><title>http://latin.omdoc.org/logics/description/owl/owl.omdoc?OWL1Datatype&#45;&gt;http://latin.omdoc.org/logics/description/owl/owl.omdoc?FOLEQD</title>
<a xlink:href="javascript:parent.navigate(&#39;http://latin.omdoc.org/logics/description/owl/owl.omdoc?D1FOLEQD&#39;)" xlink:title="view http://latin.omdoc.org/logics/description/owl/owl.omdoc?D1FOLEQD">
<path fill="none" stroke="blue" stroke-dasharray="5,2" d="M67,-323.834C67,-309.247 67,-287.75 67,-269 67,-269 67,-269 67,-105 67.5586,-62.8678 113.056,-40.4877 151.18,-28.9302"/>
<path fill="none" stroke="blue" stroke-dasharray="5,2" d="M69,-323.834C69,-309.247 69,-287.75 69,-269 69,-269 69,-269 69,-105 68.4414,-64.6624 113.939,-42.2824 151.76,-30.8443"/>
<polygon fill="blue" stroke="blue" points="152.768,-33.1573 161.432,-27.0599 150.856,-26.4233 152.768,-33.1573"/>
</a>
<a xlink:href="javascript:parent.navigate(&#39;http://latin.omdoc.org/logics/description/owl/owl.omdoc?D1FOLEQD&#39;)" xlink:title="D1FOLEQD">
<text text-anchor="middle" x="104.5" y="-190.3" font-family="Times New Roman,serif" font-size="14.00">D1FOLEQD</text>
</a>
</g>
<!-- http://latin.omdoc.org/logics/description/owl/owl.omdoc?OWLLite -->
<g id="node11" class="node"><title>http://latin.omdoc.org/logics/description/owl/owl.omdoc?OWLLite</title>
<a xlink:href="javascript:parent.navigate(&#39;http://latin.omdoc.org/logics/description/owl/owl.omdoc?OWLLite&#39;)" xlink:title="theory http://latin.omdoc.org/logics/description/owl/owl.omdoc?OWLLite">
<ellipse fill="gray" stroke="black" cx="169" cy="-268" rx="45.244" ry="18"/>
<text text-anchor="middle" x="169" y="-264.3" font-family="Times New Roman,serif" font-size="14.00">OWLLite</text>
</a>
</g>
<!-- http://latin.omdoc.org/logics/description/owl/owl.omdoc?OWL1Datatype&#45;&gt;http://latin.omdoc.org/logics/description/owl/owl.omdoc?OWLLite -->
<g id="edge17" class="edge"><title>http://latin.omdoc.org/logics/description/owl/owl.omdoc?OWL1Datatype&#45;&gt;http://latin.omdoc.org/logics/description/owl/owl.omdoc?OWLLite</title>
<a xlink:title="include">
<path fill="none" stroke="black" d="M90.6664,-324.842C105.094,-314.557 123.929,-301.13 139.514,-290.02"/>
<polygon fill="black" stroke="black" points="141.678,-292.775 147.79,-284.12 137.615,-287.075 141.678,-292.775"/>
</a>
</g>
<!-- http://latin.omdoc.org/logics/description/owl/owl.omdoc?OWLBase -->
<g id="node9" class="node"><title>http://latin.omdoc.org/logics/description/owl/owl.omdoc?OWLBase</title>
<a xlink:href="javascript:parent.navigate(&#39;http://latin.omdoc.org/logics/description/owl/owl.omdoc?OWLBase&#39;)" xlink:title="theory http://latin.omdoc.org/logics/description/owl/owl.omdoc?OWLBase">
<ellipse fill="gray" stroke="black" cx="460" cy="-342" rx="49.0941" ry="18"/>
<text text-anchor="middle" x="460" y="-338.3" font-family="Times New Roman,serif" font-size="14.00">OWLBase</text>
</a>
</g>
<!-- http://latin.omdoc.org/logics/description/owl/owl.omdoc?OWLBase&#45;&gt;http://latin.omdoc.org/logics/description/owl/owl.omdoc?FOLEQD -->
<g id="edge9" class="edge"><title>http://latin.omdoc.org/logics/description/owl/owl.omdoc?OWLBase&#45;&gt;http://latin.omdoc.org/logics/description/owl/owl.omdoc?FOLEQD</title>
<a xlink:href="javascript:parent.navigate(&#39;http://latin.omdoc.org/logics/description/owl/owl.omdoc?OWLBaseFOLEQD&#39;)" xlink:title="view http://latin.omdoc.org/logics/description/owl/owl.omdoc?OWLBaseFOLEQD">
<path fill="none" stroke="blue" stroke-dasharray="5,2" d="M459,-323.834C459,-309.247 459,-287.75 459,-269 459,-269 459,-269 459,-105 459.807,-63.3114 331.193,-38.0241 255.627,-26.8527"/>
<path fill="none" stroke="blue" stroke-dasharray="5,2" d="M461,-323.834C461,-309.247 461,-287.75 461,-269 461,-269 461,-269 461,-105 460.193,-61.349 331.579,-36.0617 255.919,-24.8742"/>
<polygon fill="blue" stroke="blue" points="255.871,-22.3415 245.474,-24.3792 254.873,-29.2699 255.871,-22.3415"/>
</a>
<a xlink:href="javascript:parent.navigate(&#39;http://latin.omdoc.org/logics/description/owl/owl.omdoc?OWLBaseFOLEQD&#39;)" xlink:title="OWLBaseFOLEQD">
<text text-anchor="middle" x="517.5" y="-190.3" font-family="Times New Roman,serif" font-size="14.00">OWLBaseFOLEQD</text>
</a>
</g>
<!-- http://latin.omdoc.org/logics/description/owl/owl.omdoc?OWLBase&#45;&gt;http://latin.omdoc.org/logics/description/owl/owl.omdoc?OWLLite -->
<g id="edge15" class="edge"><title>http://latin.omdoc.org/logics/description/owl/owl.omdoc?OWLBase&#45;&gt;http://latin.omdoc.org/logics/description/owl/owl.omdoc?OWLLite</title>
<a xlink:title="include">
<path fill="none" stroke="black" d="M420.452,-331.215C367.383,-318.084 273.243,-294.792 216.429,-280.735"/>
<polygon fill="black" stroke="black" points="217.164,-277.311 206.616,-278.307 215.482,-284.106 217.164,-277.311"/>
</a>
</g>
<!-- http://latin.omdoc.org/logics/description/owl/owl.omdoc?OWLLite&#45;&gt;http://latin.omdoc.org/logics/description/owl/owl.omdoc?FOLEQD -->
<g id="edge11" class="edge"><title>http://latin.omdoc.org/logics/description/owl/owl.omdoc?OWLLite&#45;&gt;http://latin.omdoc.org/logics/description/owl/owl.omdoc?FOLEQD</title>
<a xlink:href="javascript:parent.navigate(&#39;http://latin.omdoc.org/logics/description/owl/owl.omdoc?OWLLiteFOLEQD&#39;)" xlink:title="view http://latin.omdoc.org/logics/description/owl/owl.omdoc?OWLLiteFOLEQD">
<path fill="none" stroke="blue" stroke-dasharray="5,2" d="M166.596,-249.993C164.925,-225.813 162.953,-180.341 168.009,-141.869 172.49,-107.962 183.528,-70.3081 191.627,-45.6308"/>
<path fill="none" stroke="blue" stroke-dasharray="5,2" d="M168.592,-249.855C166.923,-225.726 164.951,-180.254 169.991,-142.131 174.409,-108.525 185.447,-70.8707 193.527,-46.2545"/>
<polygon fill="blue" stroke="blue" points="195.975,-46.8194 195.836,-36.2255 189.338,-44.5937 195.975,-46.8194"/>
</a>
<a xlink:href="javascript:parent.navigate(&#39;http://latin.omdoc.org/logics/description/owl/owl.omdoc?OWLLiteFOLEQD&#39;)" xlink:title="OWLLiteFOLEQD">
<text text-anchor="middle" x="223.5" y="-146.3" font-family="Times New Roman,serif" font-size="14.00">OWLLiteFOLEQD</text>
</a>
</g>
<!-- http://latin.omdoc.org/logics/description/owl/owl.omdoc?OWLLite&#45;&gt;http://latin.omdoc.org/logics/description/owl/owl.omdoc?OWLDL -->
<g id="edge13" class="edge"><title>http://latin.omdoc.org/logics/description/owl/owl.omdoc?OWLLite&#45;&gt;http://latin.omdoc.org/logics/description/owl/owl.omdoc?OWLDL</title>
<a xlink:title="include">
<path fill="none" stroke="black" d="M197.432,-253.961C222.963,-242.253 260.623,-224.982 288.591,-212.156"/>
<polygon fill="black" stroke="black" points="290.413,-215.171 298.044,-207.821 287.495,-208.808 290.413,-215.171"/>
</a>
</g>
</g>
</svg>
