<?xml version="1.0" encoding="UTF-8" standalone="no"?>
<!DOCTYPE svg PUBLIC "-//W3C//DTD SVG 1.1//EN"
 "http://www.w3.org/Graphics/SVG/1.1/DTD/svg11.dtd">
<!-- Generated by graphviz version 2.28.0 (20110507.0327)
 -->
<!-- Title: MMT Pages: 1 -->
<svg width="1332pt" height="382pt"
 viewBox="0.00 0.00 1332.00 382.00" xmlns="http://www.w3.org/2000/svg" xmlns:xlink="http://www.w3.org/1999/xlink">
<g id="graph1" class="graph" transform="scale(1 1) rotate(0) translate(4 378)">
<title>MMT</title>
<polygon fill="white" stroke="white" points="-4,5 -4,-378 1329,-378 1329,5 -4,5"/>
<g id="graph2" class="cluster"><title>cluster_local</title>
<polygon fill="none" stroke="black" points="166,-80 166,-220 270,-220 270,-80 166,-80"/>
</g>
<!-- http://latin.omdoc.org/type_theories?Product -->
<g id="node2" class="node"><title>http://latin.omdoc.org/type_theories?Product</title>
<a xlink:href="http://latin.omdoc.org/type_theories?Product" class="graphtheory">
<ellipse fill="none" stroke="black" cx="222" cy="-194" rx="39.9464" ry="18"/>
<text text-anchor="middle" x="222" y="-190.3" font-family="Times New Roman,serif" font-size="14.00">Product</text>
</a>
</g>
<!-- http://latin.omdoc.org/foundations/zfc?Products -->
<g id="node3" class="node"><title>http://latin.omdoc.org/foundations/zfc?Products</title>
<a xlink:href="http://latin.omdoc.org/foundations/zfc?Products" class="graphtheory">
<ellipse fill="none" stroke="black" cx="218" cy="-106" rx="44.2946" ry="18"/>
<text text-anchor="middle" x="218" y="-102.3" font-family="Times New Roman,serif" font-size="14.00">Products</text>
</a>
</g>
<!-- http://latin.omdoc.org/type_theories?Product&#45;&gt;http://latin.omdoc.org/foundations/zfc?Products -->
<g id="edge3" class="edge"><title>http://latin.omdoc.org/type_theories?Product&#45;&gt;http://latin.omdoc.org/foundations/zfc?Products</title>
<a xlink:href="http://latin.omdoc.org/translations/tt_zfc?Product" class="graphview">
<path fill="none" stroke="black" d="M221.191,-175.597C220.639,-163.746 219.898,-147.817 219.269,-134.292"/>
<polygon fill="black" stroke="black" points="222.756,-133.911 218.795,-124.084 215.763,-134.236 222.756,-133.911"/>
</a>
<a xlink:href="http://latin.omdoc.org/translations/tt_zfc?Product" class="Product">
<text text-anchor="middle" x="245" y="-146.3" font-family="Times New Roman,serif" font-size="14.00">Product</text>
</a>
</g>
<!-- http://latin.omdoc.org/type_theories?SIGMA -->
<g id="node5" class="node"><title>http://latin.omdoc.org/type_theories?SIGMA</title>
<a xlink:href="http://latin.omdoc.org/type_theories?SIGMA" class="graphtheory">
<ellipse fill="gray" stroke="black" cx="990" cy="-106" rx="39.9464" ry="18"/>
<text text-anchor="middle" x="990" y="-102.3" font-family="Times New Roman,serif" font-size="14.00">SIGMA</text>
</a>
</g>
<!-- http://latin.omdoc.org/type_theories?Product&#45;&gt;http://latin.omdoc.org/type_theories?SIGMA -->
<g id="edge5" class="edge"><title>http://latin.omdoc.org/type_theories?Product&#45;&gt;http://latin.omdoc.org/type_theories?SIGMA</title>
<a xlink:href="http://latin.omdoc.org/type_theories?Product-Sigma" class="graphview">
<path fill="none" stroke="black" d="M249.505,-180.748C254.879,-178.822 260.542,-177.104 266,-176 522.262,-124.147 597.484,-208.581 854,-158 863.908,-156.046 914.665,-136.57 951.271,-122.264"/>
<polygon fill="black" stroke="black" points="952.671,-125.474 960.706,-118.569 950.119,-118.956 952.671,-125.474"/>
</a>
<a xlink:href="http://latin.omdoc.org/type_theories?Product-Sigma" class="Product&#45;Sigma">
<text text-anchor="middle" x="940.5" y="-146.3" font-family="Times New Roman,serif" font-size="14.00">Product&#45;Sigma</text>
</a>
</g>
<!-- http://latin.omdoc.org/translations/stt_prop?CH&#45;IPL -->
<g id="node7" class="node"><title>http://latin.omdoc.org/translations/stt_prop?CH&#45;IPL</title>
<a xlink:href="http://latin.omdoc.org/translations/stt_prop?CH-IPL" class="graphtheory">
<ellipse fill="gray" stroke="black" cx="1195" cy="-106" rx="39.9464" ry="18"/>
<text text-anchor="middle" x="1195" y="-102.3" font-family="Times New Roman,serif" font-size="14.00">CH&#45;IPL</text>
</a>
</g>
<!-- http://latin.omdoc.org/type_theories?Product&#45;&gt;http://latin.omdoc.org/translations/stt_prop?CH&#45;IPL -->
<g id="edge7" class="edge"><title>http://latin.omdoc.org/type_theories?Product&#45;&gt;http://latin.omdoc.org/translations/stt_prop?CH&#45;IPL</title>
<a xlink:href="http://latin.omdoc.org/translations/stt_prop?Product" class="graphview">
<path fill="none" stroke="black" d="M249.499,-180.718C254.874,-178.795 260.538,-177.086 266,-176 430.385,-143.313 854.373,-183.663 1020,-158 1067.53,-150.635 1120.31,-134.037 1155.35,-121.766"/>
<polygon fill="black" stroke="black" points="1156.94,-124.918 1165.19,-118.272 1154.59,-118.322 1156.94,-124.918"/>
</a>
<a xlink:href="http://latin.omdoc.org/translations/stt_prop?Product" class="Product">
<text text-anchor="middle" x="1112" y="-146.3" font-family="Times New Roman,serif" font-size="14.00">Product</text>
</a>
</g>
<!-- http://latin.omdoc.org/translations/tt_zfc?STT -->
<g id="node9" class="node"><title>http://latin.omdoc.org/translations/tt_zfc?STT</title>
<a xlink:href="http://latin.omdoc.org/translations/tt_zfc?STT" class="graphtheory">
<ellipse fill="gray" stroke="black" cx="480" cy="-106" rx="27.4223" ry="18"/>
<text text-anchor="middle" x="480" y="-102.3" font-family="Times New Roman,serif" font-size="14.00">STT</text>
</a>
</g>
<!-- http://latin.omdoc.org/type_theories?Product&#45;&gt;http://latin.omdoc.org/translations/tt_zfc?STT -->
<g id="edge9" class="edge"><title>http://latin.omdoc.org/type_theories?Product&#45;&gt;http://latin.omdoc.org/translations/tt_zfc?STT</title>
<a xlink:href="http://latin.omdoc.org/translations/tt_zfc?STT?[http://latin.omdoc.org/type_theories?Product]" class="graphstructure">
<path fill="none" stroke="black" d="M240.066,-177.853C257.118,-163.682 280.824,-144.347 286,-142 336.932,-118.908 401.881,-111.036 442.205,-108.361"/>
<polygon fill="black" stroke="black" points="442.62,-111.843 452.397,-107.762 442.209,-104.855 442.62,-111.843"/>
</a>
<a xlink:href="http://latin.omdoc.org/translations/tt_zfc?STT?[http://latin.omdoc.org/type_theories?Product]" class="[http://latin.omdoc.org/type_theories?Product]">
<text text-anchor="middle" x="416" y="-146.3" font-family="Times New Roman,serif" font-size="14.00">[http://latin.omdoc.org/type_theories?Product]</text>
</a>
</g>
<!-- http://latin.omdoc.org/type_theories?STT&#45;MLTT -->
<g id="node11" class="node"><title>http://latin.omdoc.org/type_theories?STT&#45;MLTT</title>
<a xlink:href="http://latin.omdoc.org/type_theories?STT-MLTT" class="graphtheory">
<ellipse fill="gray" stroke="black" cx="673" cy="-106" rx="55.3436" ry="18"/>
<text text-anchor="middle" x="673" y="-102.3" font-family="Times New Roman,serif" font-size="14.00">STT&#45;MLTT</text>
</a>
</g>
<!-- http://latin.omdoc.org/type_theories?Product&#45;&gt;http://latin.omdoc.org/type_theories?STT&#45;MLTT -->
<g id="edge11" class="edge"><title>http://latin.omdoc.org/type_theories?Product&#45;&gt;http://latin.omdoc.org/type_theories?STT&#45;MLTT</title>
<a xlink:href="http://latin.omdoc.org/type_theories?STT-MLTT?[http://latin.omdoc.org/type_theories?Product]" class="graphstructure">
<path fill="none" stroke="black" d="M249.535,-180.892C254.907,-178.952 260.561,-177.193 266,-176 389.537,-148.894 426.803,-186.609 550,-158 558.48,-156.031 599.565,-138.722 631.95,-124.807"/>
<polygon fill="black" stroke="black" points="633.446,-127.973 641.246,-120.803 630.677,-121.544 633.446,-127.973"/>
</a>
<a xlink:href="http://latin.omdoc.org/type_theories?STT-MLTT?[http://latin.omdoc.org/type_theories?Product]" class="[http://latin.omdoc.org/type_theories?Product]">
<text text-anchor="middle" x="720" y="-146.3" font-family="Times New Roman,serif" font-size="14.00">[http://latin.omdoc.org/type_theories?Product]</text>
</a>
</g>
<!-- http://latin.omdoc.org/type_theories?STT -->
<g id="node17" class="node"><title>http://latin.omdoc.org/type_theories?STT</title>
<a xlink:href="http://latin.omdoc.org/type_theories?STT" class="graphtheory">
<ellipse fill="gray" stroke="black" cx="1076" cy="-106" rx="27.4223" ry="18"/>
<text text-anchor="middle" x="1076" y="-102.3" font-family="Times New Roman,serif" font-size="14.00">STT</text>
</a>
</g>
<!-- http://latin.omdoc.org/type_theories?Product&#45;&gt;http://latin.omdoc.org/type_theories?STT -->
<g id="edge17" class="edge"><title>http://latin.omdoc.org/type_theories?Product&#45;&gt;http://latin.omdoc.org/type_theories?STT</title>
<a class="graphinclude">
<path fill="none" stroke="black" d="M249.5,-180.723C254.874,-178.799 260.539,-177.089 266,-176 423.178,-144.657 832.649,-201.16 987,-158 1010.08,-151.548 1033.48,-137.79 1050.49,-126.188"/>
<polygon fill="black" stroke="black" points="1052.6,-128.983 1058.77,-120.368 1048.58,-123.256 1052.6,-128.983"/>
</a>
</g>
<!-- http://latin.omdoc.org/foundations/zfc?TypedZF -->
<g id="node23" class="node"><title>http://latin.omdoc.org/foundations/zfc?TypedZF</title>
<a xlink:href="http://latin.omdoc.org/foundations/zfc?TypedZF" class="graphtheory">
<ellipse fill="gray" stroke="black" cx="544" cy="-18" rx="45.244" ry="18"/>
<text text-anchor="middle" x="544" y="-14.3" font-family="Times New Roman,serif" font-size="14.00">TypedZF</text>
</a>
</g>
<!-- http://latin.omdoc.org/foundations/zfc?Products&#45;&gt;http://latin.omdoc.org/foundations/zfc?TypedZF -->
<g id="edge23" class="edge"><title>http://latin.omdoc.org/foundations/zfc?Products&#45;&gt;http://latin.omdoc.org/foundations/zfc?TypedZF</title>
<a class="graphinclude">
<path fill="none" stroke="black" d="M242.346,-90.7356C249.758,-86.8307 258.051,-82.8844 266,-80 342.085,-52.3915 434.622,-35.1394 491.406,-26.294"/>
<polygon fill="black" stroke="black" points="492.224,-29.7097 501.581,-24.7396 491.167,-22.79 492.224,-29.7097"/>
</a>
</g>
<!-- http://latin.omdoc.org/foundations/zfc?TypedZFBase -->
<g id="node25" class="node"><title>http://latin.omdoc.org/foundations/zfc?TypedZFBase</title>
<a xlink:href="http://latin.omdoc.org/foundations/zfc?TypedZFBase" class="graphtheory">
<ellipse fill="gray" stroke="black" cx="63" cy="-194" rx="63.0666" ry="18"/>
<text text-anchor="middle" x="63" y="-190.3" font-family="Times New Roman,serif" font-size="14.00">TypedZFBase</text>
</a>
</g>
<!-- http://latin.omdoc.org/foundations/zfc?Products&#45;&gt;http://latin.omdoc.org/foundations/zfc?TypedZFBase -->
<g id="edge27" class="edge"><title>http://latin.omdoc.org/foundations/zfc?Products&#45;&gt;http://latin.omdoc.org/foundations/zfc?TypedZFBase</title>
<a xlink:href="http://latin.omdoc.org/foundations/zfc?_P" class="graphview">
<path fill="none" stroke="black" d="M186.387,-118.693C180.952,-120.56 175.335,-122.402 170,-124 137.989,-133.59 124.346,-122.795 97,-142 87.9869,-148.33 80.7042,-157.878 75.226,-167.007"/>
<polygon fill="black" stroke="black" points="72.108,-165.413 70.3521,-175.862 78.2404,-168.789 72.108,-165.413"/>
</a>
<a xlink:href="http://latin.omdoc.org/foundations/zfc?_P" class="_P">
<text text-anchor="middle" x="105" y="-146.3" font-family="Times New Roman,serif" font-size="14.00">_P</text>
</a>
</g>
<!-- http://latin.omdoc.org/logics/syntax?CONJ -->
<g id="node13" class="node"><title>http://latin.omdoc.org/logics/syntax?CONJ</title>
<a xlink:href="http://latin.omdoc.org/logics/syntax?CONJ" class="graphtheory">
<ellipse fill="gray" stroke="black" cx="413" cy="-282" rx="33.1991" ry="18"/>
<text text-anchor="middle" x="413" y="-278.3" font-family="Times New Roman,serif" font-size="14.00">CONJ</text>
</a>
</g>
<!-- http://latin.omdoc.org/logics/syntax?CONJ&#45;&gt;http://latin.omdoc.org/type_theories?Product -->
<g id="edge13" class="edge"><title>http://latin.omdoc.org/logics/syntax?CONJ&#45;&gt;http://latin.omdoc.org/type_theories?Product</title>
<a xlink:href="http://latin.omdoc.org/translations/prop_stt?CONJ" class="graphview">
<path fill="none" stroke="black" d="M386.831,-270.593C350.88,-256.219 288.151,-230.838 266,-220 261.985,-218.036 257.828,-215.865 253.744,-213.647"/>
<polygon fill="black" stroke="black" points="255.443,-210.587 245.004,-208.779 252.037,-216.702 255.443,-210.587"/>
</a>
<a xlink:href="http://latin.omdoc.org/translations/prop_stt?CONJ" class="CONJ">
<text text-anchor="middle" x="342" y="-234.3" font-family="Times New Roman,serif" font-size="14.00">CONJ</text>
</a>
</g>
<!-- http://latin.omdoc.org/logics/proof_theory?CONJ -->
<g id="node15" class="node"><title>http://latin.omdoc.org/logics/proof_theory?CONJ</title>
<a xlink:href="http://latin.omdoc.org/logics/proof_theory?CONJ" class="graphtheory">
<ellipse fill="gray" stroke="black" cx="1148" cy="-194" rx="33.1991" ry="18"/>
<text text-anchor="middle" x="1148" y="-190.3" font-family="Times New Roman,serif" font-size="14.00">CONJ</text>
</a>
</g>
<!-- http://latin.omdoc.org/logics/syntax?CONJ&#45;&gt;http://latin.omdoc.org/logics/proof_theory?CONJ -->
<g id="edge63" class="edge"><title>http://latin.omdoc.org/logics/syntax?CONJ&#45;&gt;http://latin.omdoc.org/logics/proof_theory?CONJ</title>
<a class="graphinclude">
<path fill="none" stroke="black" d="M446.411,-280.624C559.007,-279.123 923.892,-272.298 1038,-246 1066.41,-239.452 1096.28,-225.061 1117.71,-213.23"/>
<polygon fill="black" stroke="black" points="1119.66,-216.15 1126.64,-208.18 1116.21,-210.057 1119.66,-216.15"/>
</a>
</g>
<!-- http://latin.omdoc.org/logics/proof_theory?CONJ&#45;&gt;http://latin.omdoc.org/type_theories?Product -->
<g id="edge15" class="edge"><title>http://latin.omdoc.org/logics/proof_theory?CONJ&#45;&gt;http://latin.omdoc.org/type_theories?Product</title>
<a xlink:href="http://latin.omdoc.org/translations/prop_stt?CONJPF" class="graphview">
<path fill="none" stroke="black" d="M1126.88,-208.024C1118.8,-212.678 1109.3,-217.345 1100,-220 975.416,-255.588 938.509,-233.609 809,-237.5 688.325,-241.125 381.871,-253.905 266,-220 261.348,-218.639 256.678,-216.675 252.21,-214.427"/>
<polygon fill="black" stroke="black" points="253.83,-211.323 243.391,-209.517 250.425,-217.44 253.83,-211.323"/>
</a>
<a xlink:href="http://latin.omdoc.org/translations/prop_stt?CONJPF" class="CONJPF">
<text text-anchor="middle" x="783" y="-234.3" font-family="Times New Roman,serif" font-size="14.00">CONJPF</text>
</a>
</g>
<!-- http://latin.omdoc.org/type_theories?STT&#45;&gt;http://latin.omdoc.org/foundations/zfc?TypedZF -->
<g id="edge61" class="edge"><title>http://latin.omdoc.org/type_theories?STT&#45;&gt;http://latin.omdoc.org/foundations/zfc?TypedZF</title>
<a xlink:href="http://latin.omdoc.org/translations/tt_zfc?STT" class="graphview">
<path fill="none" stroke="black" d="M1059.61,-91.4934C1053.49,-87.1291 1046.26,-82.7195 1039,-80 959.19,-50.1037 709.426,-30.1162 598.277,-22.4762"/>
<polygon fill="black" stroke="black" points="598.496,-18.9832 588.282,-21.7969 598.022,-25.967 598.496,-18.9832"/>
</a>
<a xlink:href="http://latin.omdoc.org/translations/tt_zfc?STT" class="STT">
<text text-anchor="middle" x="1013.5" y="-58.3" font-family="Times New Roman,serif" font-size="14.00">STT</text>
</a>
</g>
<!-- http://latin.omdoc.org/type_theories?TypesTerms -->
<g id="node19" class="node"><title>http://latin.omdoc.org/type_theories?TypesTerms</title>
<a xlink:href="http://latin.omdoc.org/type_theories?TypesTerms" class="graphtheory">
<ellipse fill="gray" stroke="black" cx="304" cy="-282" rx="57.2927" ry="18"/>
<text text-anchor="middle" x="304" y="-278.3" font-family="Times New Roman,serif" font-size="14.00">TypesTerms</text>
</a>
</g>
<!-- http://latin.omdoc.org/type_theories?TypesTerms&#45;&gt;http://latin.omdoc.org/type_theories?Product -->
<g id="edge19" class="edge"><title>http://latin.omdoc.org/type_theories?TypesTerms&#45;&gt;http://latin.omdoc.org/type_theories?Product</title>
<a class="graphinclude">
<path fill="none" stroke="black" d="M264.9,-268.726C253.465,-263.398 241.922,-256.018 234,-246 228.684,-239.278 225.656,-230.596 223.951,-222.307"/>
<polygon fill="black" stroke="black" points="227.378,-221.561 222.427,-212.195 220.456,-222.604 227.378,-221.561"/>
</a>
</g>
<!-- http://latin.omdoc.org/type_theories?TypesTerms&#45;&gt;http://latin.omdoc.org/type_theories?SIGMA -->
<g id="edge59" class="edge"><title>http://latin.omdoc.org/type_theories?TypesTerms&#45;&gt;http://latin.omdoc.org/type_theories?SIGMA</title>
<a class="graphinclude">
<path fill="none" stroke="black" d="M344.212,-269.203C352.664,-267.131 361.572,-265.242 370,-264 492.617,-245.925 819.841,-283.967 926,-220 948.132,-206.664 945.293,-193.824 964,-176 973.398,-167.046 980.974,-169.497 987,-158 990.779,-150.79 992.234,-142.194 992.545,-134.133"/>
<polygon fill="black" stroke="black" points="996.043,-133.953 992.396,-124.006 989.044,-134.057 996.043,-133.953"/>
</a>
</g>
<!-- http://latin.omdoc.org/type_theories?TypesTerms&#45;&gt;http://latin.omdoc.org/translations/stt_prop?CH&#45;IPL -->
<g id="edge49" class="edge"><title>http://latin.omdoc.org/type_theories?TypesTerms&#45;&gt;http://latin.omdoc.org/translations/stt_prop?CH&#45;IPL</title>
<a xlink:href="http://latin.omdoc.org/translations/stt_prop?TypesTerms" class="graphview">
<path fill="none" stroke="black" d="M344.204,-269.147C352.656,-267.079 361.567,-265.206 370,-264 493.474,-246.337 808.983,-271.877 931,-246 961.034,-239.631 970.051,-237.893 995,-220 1016,-204.941 1010.49,-188.689 1033,-176 1074.63,-152.534 1096.04,-178.934 1139,-158 1152.38,-151.482 1164.87,-140.761 1174.64,-130.827"/>
<polygon fill="black" stroke="black" points="1177.26,-133.151 1181.56,-123.467 1172.16,-128.358 1177.26,-133.151"/>
</a>
<a xlink:href="http://latin.omdoc.org/translations/stt_prop?TypesTerms" class="TypesTerms">
<text text-anchor="middle" x="1069" y="-190.3" font-family="Times New Roman,serif" font-size="14.00">TypesTerms</text>
</a>
</g>
<!-- http://latin.omdoc.org/type_theories?TypesTerms&#45;&gt;http://latin.omdoc.org/translations/tt_zfc?STT -->
<g id="edge55" class="edge"><title>http://latin.omdoc.org/type_theories?TypesTerms&#45;&gt;http://latin.omdoc.org/translations/tt_zfc?STT</title>
<a xlink:href="http://latin.omdoc.org/translations/tt_zfc?STT?[http://latin.omdoc.org/type_theories?TypesTerms]" class="graphstructure">
<path fill="none" stroke="black" d="M300.49,-263.968C296.752,-240.484 294.239,-198.517 318,-176 354.891,-141.041 511.505,-195.326 546,-158 560.426,-142.391 536.613,-127.915 513.668,-118.405"/>
<polygon fill="black" stroke="black" points="514.924,-115.138 504.336,-114.767 512.382,-121.66 514.924,-115.138"/>
</a>
<a xlink:href="http://latin.omdoc.org/translations/tt_zfc?STT?[http://latin.omdoc.org/type_theories?TypesTerms]" class="[http://latin.omdoc.org/type_theories?TypesTerms]">
<text text-anchor="middle" x="461" y="-190.3" font-family="Times New Roman,serif" font-size="14.00">[http://latin.omdoc.org/type_theories?TypesTerms]</text>
</a>
</g>
<!-- http://latin.omdoc.org/type_theories?TypesTerms&#45;&gt;http://latin.omdoc.org/type_theories?STT&#45;MLTT -->
<g id="edge53" class="edge"><title>http://latin.omdoc.org/type_theories?TypesTerms&#45;&gt;http://latin.omdoc.org/type_theories?STT&#45;MLTT</title>
<a xlink:href="http://latin.omdoc.org/type_theories?STT-MLTT?[http://latin.omdoc.org/type_theories?TypesTerms]" class="graphstructure">
<path fill="none" stroke="black" d="M346.15,-269.7C354.053,-267.707 362.262,-265.722 370,-264 473.295,-241.012 512.989,-273.995 604,-220 625.73,-207.108 617.641,-187.768 640,-176 682.231,-153.772 821.7,-193.131 854,-158 890.495,-118.306 804.558,-108.602 738.978,-106.714"/>
<polygon fill="black" stroke="black" points="738.728,-103.207 728.649,-106.474 738.565,-110.205 738.728,-103.207"/>
</a>
<a xlink:href="http://latin.omdoc.org/type_theories?STT-MLTT?[http://latin.omdoc.org/type_theories?TypesTerms]" class="[http://latin.omdoc.org/type_theories?TypesTerms]">
<text text-anchor="middle" x="783" y="-190.3" font-family="Times New Roman,serif" font-size="14.00">[http://latin.omdoc.org/type_theories?TypesTerms]</text>
</a>
</g>
<!-- http://latin.omdoc.org/type_theories?TypesTerms&#45;&gt;http://latin.omdoc.org/type_theories?STT -->
<g id="edge57" class="edge"><title>http://latin.omdoc.org/type_theories?TypesTerms&#45;&gt;http://latin.omdoc.org/type_theories?STT</title>
<a class="graphinclude">
<path fill="none" stroke="black" d="M344.207,-269.164C352.658,-267.094 361.568,-265.217 370,-264 599.318,-230.908 663.919,-292.001 891,-246 922.712,-239.576 931.954,-237.76 959,-220 981.856,-204.991 982.44,-195.107 1002,-176 1018.75,-159.637 1038.12,-141.604 1052.84,-128.079"/>
<polygon fill="black" stroke="black" points="1055.49,-130.403 1060.5,-121.067 1050.76,-125.241 1055.49,-130.403"/>
</a>
</g>
<!-- http://latin.omdoc.org/type_theories?TypesTerms&#45;&gt;http://latin.omdoc.org/foundations/zfc?TypedZFBase -->
<g id="edge51" class="edge"><title>http://latin.omdoc.org/type_theories?TypesTerms&#45;&gt;http://latin.omdoc.org/foundations/zfc?TypedZFBase</title>
<a xlink:href="http://latin.omdoc.org/translations/tt_zfc?TypesTerms" class="graphview">
<path fill="none" stroke="black" d="M253.597,-273.405C223.2,-267.867 184.088,-259.027 151,-246 131.314,-238.25 110.779,-226.583 94.5023,-216.363"/>
<polygon fill="black" stroke="black" points="96.2377,-213.318 85.93,-210.868 92.4603,-219.212 96.2377,-213.318"/>
</a>
<a xlink:href="http://latin.omdoc.org/translations/tt_zfc?TypesTerms" class="TypesTerms">
<text text-anchor="middle" x="187" y="-234.3" font-family="Times New Roman,serif" font-size="14.00">TypesTerms</text>
</a>
</g>
<!-- http://cds.omdoc.org/urtheories?LF -->
<g id="node21" class="node"><title>http://cds.omdoc.org/urtheories?LF</title>
<a xlink:href="http://cds.omdoc.org/urtheories?LF" class="graphtheory">
<ellipse fill="gray" stroke="black" cx="154" cy="-356" rx="27" ry="18"/>
<text text-anchor="middle" x="154" y="-352.3" font-family="Times New Roman,serif" font-size="14.00">LF</text>
</a>
</g>
<!-- http://cds.omdoc.org/urtheories?LF&#45;&gt;http://latin.omdoc.org/type_theories?Product -->
<g id="edge21" class="edge"><title>http://cds.omdoc.org/urtheories?LF&#45;&gt;http://latin.omdoc.org/type_theories?Product</title>
<a class="graphmeta">
<path fill="none" stroke="black" d="M161.021,-338.48C172.768,-310.839 196.508,-254.981 210.652,-221.701"/>
<polygon fill="black" stroke="black" points="214.019,-222.726 214.71,-212.154 207.577,-219.988 214.019,-222.726"/>
</a>
</g>
<!-- http://cds.omdoc.org/urtheories?LF&#45;&gt;http://latin.omdoc.org/foundations/zfc?Products -->
<g id="edge29" class="edge"><title>http://cds.omdoc.org/urtheories?LF&#45;&gt;http://latin.omdoc.org/foundations/zfc?Products</title>
<a class="graphmeta">
<path fill="none" stroke="black" d="M153.205,-337.885C152.253,-305.33 152.835,-232.678 173,-176 178.687,-160.016 188.766,-144.03 197.945,-131.475"/>
<polygon fill="black" stroke="black" points="200.836,-133.456 204.092,-123.374 195.259,-129.225 200.836,-133.456"/>
</a>
</g>
<!-- http://cds.omdoc.org/urtheories?LF&#45;&gt;http://latin.omdoc.org/type_theories?SIGMA -->
<g id="edge45" class="edge"><title>http://cds.omdoc.org/urtheories?LF&#45;&gt;http://latin.omdoc.org/type_theories?SIGMA</title>
<a class="graphmeta">
<path fill="none" stroke="black" d="M181.135,-355.183C280.786,-355.409 635.653,-352.259 922,-300 1044.28,-277.683 1115.91,-319.808 1190,-220 1201.66,-204.298 1202.58,-190.971 1190,-176 1160.1,-140.423 1130.99,-172.994 1087,-158 1063.79,-150.087 1039.36,-137.212 1020.82,-126.378"/>
<polygon fill="black" stroke="black" points="1022.61,-123.369 1012.23,-121.254 1019.02,-129.381 1022.61,-123.369"/>
</a>
</g>
<!-- http://cds.omdoc.org/urtheories?LF&#45;&gt;http://latin.omdoc.org/translations/stt_prop?CH&#45;IPL -->
<g id="edge47" class="edge"><title>http://cds.omdoc.org/urtheories?LF&#45;&gt;http://latin.omdoc.org/translations/stt_prop?CH&#45;IPL</title>
<a class="graphmeta">
<path fill="none" stroke="black" d="M181.378,-355.327C319.246,-356.691 938.022,-359.348 1119,-300 1175.76,-281.387 1211.55,-277.701 1227,-220 1232.06,-201.11 1231.21,-195.096 1227,-176 1223.67,-160.895 1216.69,-145.166 1210.09,-132.547"/>
<polygon fill="black" stroke="black" points="1213.05,-130.668 1205.19,-123.566 1206.91,-134.02 1213.05,-130.668"/>
</a>
</g>
<!-- http://cds.omdoc.org/urtheories?LF&#45;&gt;http://latin.omdoc.org/logics/syntax?CONJ -->
<g id="edge41" class="edge"><title>http://cds.omdoc.org/urtheories?LF&#45;&gt;http://latin.omdoc.org/logics/syntax?CONJ</title>
<a class="graphmeta">
<path fill="none" stroke="black" d="M179.571,-349.597C220.308,-340.742 302.256,-321.918 370,-300 372.561,-299.171 375.189,-298.268 377.822,-297.324"/>
<polygon fill="black" stroke="black" points="379.133,-300.571 387.272,-293.787 376.679,-294.015 379.133,-300.571"/>
</a>
</g>
<!-- http://cds.omdoc.org/urtheories?LF&#45;&gt;http://latin.omdoc.org/logics/proof_theory?CONJ -->
<g id="edge39" class="edge"><title>http://cds.omdoc.org/urtheories?LF&#45;&gt;http://latin.omdoc.org/logics/proof_theory?CONJ</title>
<a class="graphmeta">
<path fill="none" stroke="black" d="M181.045,-353.552C314.536,-346.142 903.57,-310.283 1074,-246 1092.13,-239.16 1110.09,-226.95 1123.78,-216.192"/>
<polygon fill="black" stroke="black" points="1126.16,-218.767 1131.71,-209.742 1121.74,-213.336 1126.16,-218.767"/>
</a>
</g>
<!-- http://cds.omdoc.org/urtheories?LF&#45;&gt;http://latin.omdoc.org/type_theories?STT -->
<g id="edge33" class="edge"><title>http://cds.omdoc.org/urtheories?LF&#45;&gt;http://latin.omdoc.org/type_theories?STT</title>
<a class="graphmeta">
<path fill="none" stroke="black" d="M181.332,-354.52C312.362,-352.038 876.914,-339.216 1048,-300 1113.41,-285.007 1135.19,-286.098 1189,-246 1214.94,-226.666 1229.62,-200.938 1209,-176 1181.9,-143.215 1151.18,-180.363 1115,-158 1104.69,-151.629 1096.11,-141.471 1089.64,-131.892"/>
<polygon fill="black" stroke="black" points="1092.58,-129.997 1084.3,-123.383 1086.65,-133.715 1092.58,-129.997"/>
</a>
</g>
<!-- http://cds.omdoc.org/urtheories?LF&#45;&gt;http://latin.omdoc.org/type_theories?TypesTerms -->
<g id="edge37" class="edge"><title>http://cds.omdoc.org/urtheories?LF&#45;&gt;http://latin.omdoc.org/type_theories?TypesTerms</title>
<a class="graphmeta">
<path fill="none" stroke="black" d="M175.491,-344.684C198.708,-333.54 236.2,-315.544 264.711,-301.859"/>
<polygon fill="black" stroke="black" points="266.501,-304.882 274.002,-297.399 263.472,-298.571 266.501,-304.882"/>
</a>
</g>
<!-- http://cds.omdoc.org/urtheories?LF&#45;&gt;http://latin.omdoc.org/foundations/zfc?TypedZF -->
<g id="edge43" class="edge"><title>http://cds.omdoc.org/urtheories?LF&#45;&gt;http://latin.omdoc.org/foundations/zfc?TypedZF</title>
<a class="graphmeta">
<path fill="none" stroke="black" d="M181.199,-354.791C356.869,-353.27 1324,-342.208 1324,-283 1324,-283 1324,-283 1324,-105 1324,-32.0339 777.758,-20.9638 599.514,-19.2939"/>
<polygon fill="black" stroke="black" points="599.338,-15.7923 589.308,-19.2048 599.277,-22.792 599.338,-15.7923"/>
</a>
</g>
<!-- http://cds.omdoc.org/urtheories?LF&#45;&gt;http://latin.omdoc.org/foundations/zfc?TypedZFBase -->
<g id="edge35" class="edge"><title>http://cds.omdoc.org/urtheories?LF&#45;&gt;http://latin.omdoc.org/foundations/zfc?TypedZFBase</title>
<a class="graphmeta">
<path fill="none" stroke="black" d="M144.774,-338.778C128.996,-311.037 96.7062,-254.264 77.764,-220.959"/>
<polygon fill="black" stroke="black" points="80.7863,-219.193 72.8,-212.231 74.7015,-222.654 80.7863,-219.193"/>
</a>
</g>
<!-- http://latin.omdoc.org/foundations/zfc?TypedZFBase&#45;&gt;http://latin.omdoc.org/foundations/zfc?Products -->
<g id="edge25" class="edge"><title>http://latin.omdoc.org/foundations/zfc?TypedZFBase&#45;&gt;http://latin.omdoc.org/foundations/zfc?Products</title>
<a class="graphinclude">
<path fill="none" stroke="black" d="M85.9657,-177.225C101.699,-166.702 123.22,-152.86 143,-142 154.628,-135.616 167.623,-129.285 179.487,-123.798"/>
<polygon fill="black" stroke="black" points="181.064,-126.926 188.712,-119.595 178.161,-120.557 181.064,-126.926"/>
</a>
</g>
<!-- http://latin.omdoc.org/foundations/zfc?TypedZFBase&#45;&gt;http://latin.omdoc.org/foundations/zfc?TypedZF -->
<g id="edge31" class="edge"><title>http://latin.omdoc.org/foundations/zfc?TypedZFBase&#45;&gt;http://latin.omdoc.org/foundations/zfc?TypedZF</title>
<a class="graphinclude">
<path fill="none" stroke="black" d="M65.2328,-175.721C67.2462,-165.229 71.016,-151.982 78,-142 104.601,-103.981 119.476,-98.5681 162,-80 270.896,-32.4509 411.734,-21.4897 488.348,-19.2547"/>
<polygon fill="black" stroke="black" points="488.813,-22.7442 498.722,-18.9944 488.638,-15.7465 488.813,-22.7442"/>
</a>
</g>
</g>
</svg>
