<?xml version="1.0" encoding="UTF-8" standalone="no"?>
<!DOCTYPE svg PUBLIC "-//W3C//DTD SVG 1.1//EN"
 "http://www.w3.org/Graphics/SVG/1.1/DTD/svg11.dtd">
<!-- Generated by graphviz version 2.28.0 (20110507.0327)
 -->
<!-- Title: MMT Pages: 1 -->
<svg width="1345pt" height="456pt"
 viewBox="0.00 0.00 1345.00 456.00" xmlns="http://www.w3.org/2000/svg" xmlns:xlink="http://www.w3.org/1999/xlink">
<g id="graph1" class="graph" transform="scale(1 1) rotate(0) translate(4 452)">
<title>MMT</title>
<polygon fill="white" stroke="white" points="-4,5 -4,-452 1342,-452 1342,5 -4,5"/>
<g id="graph2" class="cluster"><title>cluster_local</title>
<polygon fill="none" stroke="black" points="466,-242 466,-382 608,-382 608,-242 466,-242"/>
</g>
<!-- http://latin.omdoc.org/type_theories?UNIT -->
<g id="node2" class="node"><title>http://latin.omdoc.org/type_theories?UNIT</title>
<a xlink:href="http://latin.omdoc.org/type_theories?UNIT" class="graphtheory">
<ellipse fill="none" stroke="black" cx="568" cy="-356" rx="32.2457" ry="18"/>
<text text-anchor="middle" x="568" y="-352.3" font-family="Times New Roman,serif" font-size="14.00">UNIT</text>
</a>
</g>
<!-- http://latin.omdoc.org/foundations/zfc?TypedZFBase -->
<g id="node3" class="node"><title>http://latin.omdoc.org/foundations/zfc?TypedZFBase</title>
<a xlink:href="http://latin.omdoc.org/foundations/zfc?TypedZFBase" class="graphtheory">
<ellipse fill="none" stroke="black" cx="537" cy="-268" rx="63.0666" ry="18"/>
<text text-anchor="middle" x="537" y="-264.3" font-family="Times New Roman,serif" font-size="14.00">TypedZFBase</text>
</a>
</g>
<!-- http://latin.omdoc.org/type_theories?UNIT&#45;&gt;http://latin.omdoc.org/foundations/zfc?TypedZFBase -->
<g id="edge3" class="edge"><title>http://latin.omdoc.org/type_theories?UNIT&#45;&gt;http://latin.omdoc.org/foundations/zfc?TypedZFBase</title>
<a xlink:href="http://latin.omdoc.org/translations/tt_zfc?UNIT" class="graphview">
<path fill="none" stroke="black" d="M561.875,-338.009C557.502,-325.877 551.534,-309.32 546.54,-295.465"/>
<polygon fill="black" stroke="black" points="549.796,-294.176 543.112,-285.956 543.21,-296.55 549.796,-294.176"/>
</a>
<a xlink:href="http://latin.omdoc.org/translations/tt_zfc?UNIT" class="UNIT">
<text text-anchor="middle" x="579" y="-308.3" font-family="Times New Roman,serif" font-size="14.00">UNIT</text>
</a>
</g>
<!-- http://latin.omdoc.org/type_theories?MLTT -->
<g id="node5" class="node"><title>http://latin.omdoc.org/type_theories?MLTT</title>
<a xlink:href="http://latin.omdoc.org/type_theories?MLTT" class="graphtheory">
<ellipse fill="gray" stroke="black" cx="995" cy="-180" rx="35.6194" ry="18"/>
<text text-anchor="middle" x="995" y="-176.3" font-family="Times New Roman,serif" font-size="14.00">MLTT</text>
</a>
</g>
<!-- http://latin.omdoc.org/type_theories?UNIT&#45;&gt;http://latin.omdoc.org/type_theories?MLTT -->
<g id="edge5" class="edge"><title>http://latin.omdoc.org/type_theories?UNIT&#45;&gt;http://latin.omdoc.org/type_theories?MLTT</title>
<a class="graphinclude">
<path fill="none" stroke="black" d="M582.559,-339.885C608.186,-314.407 664.23,-263.582 723,-242 779.477,-221.26 799.223,-244.845 858,-232 893.994,-224.134 933.221,-208.789 960.44,-196.977"/>
<polygon fill="black" stroke="black" points="962.16,-200.043 969.896,-192.805 959.334,-193.639 962.16,-200.043"/>
</a>
</g>
<!-- http://latin.omdoc.org/type_theories?Option -->
<g id="node7" class="node"><title>http://latin.omdoc.org/type_theories?Option</title>
<a xlink:href="http://latin.omdoc.org/type_theories?Option" class="graphtheory">
<ellipse fill="gray" stroke="black" cx="768" cy="-268" rx="36.096" ry="18"/>
<text text-anchor="middle" x="768" y="-264.3" font-family="Times New Roman,serif" font-size="14.00">Option</text>
</a>
</g>
<!-- http://latin.omdoc.org/type_theories?UNIT&#45;&gt;http://latin.omdoc.org/type_theories?Option -->
<g id="edge7" class="edge"><title>http://latin.omdoc.org/type_theories?UNIT&#45;&gt;http://latin.omdoc.org/type_theories?Option</title>
<a class="graphinclude">
<path fill="none" stroke="black" d="M590.917,-343.231C595.195,-341.307 599.68,-339.467 604,-338 639.742,-325.863 652.056,-334.272 687,-320 692.553,-317.732 717.605,-301.801 738.396,-288.34"/>
<polygon fill="black" stroke="black" points="740.496,-291.15 746.977,-282.769 736.684,-285.279 740.496,-291.15"/>
</a>
</g>
<!-- http://latin.omdoc.org/foundations/isabelle?NesetZFC -->
<g id="node13" class="node"><title>http://latin.omdoc.org/foundations/isabelle?NesetZFC</title>
<a xlink:href="http://latin.omdoc.org/foundations/isabelle?NesetZFC" class="graphtheory">
<ellipse fill="gray" stroke="black" cx="1156" cy="-180" rx="48.1437" ry="18"/>
<text text-anchor="middle" x="1156" y="-176.3" font-family="Times New Roman,serif" font-size="14.00">NesetZFC</text>
</a>
</g>
<!-- http://latin.omdoc.org/foundations/zfc?TypedZFBase&#45;&gt;http://latin.omdoc.org/foundations/isabelle?NesetZFC -->
<g id="edge13" class="edge"><title>http://latin.omdoc.org/foundations/zfc?TypedZFBase&#45;&gt;http://latin.omdoc.org/foundations/isabelle?NesetZFC</title>
<a class="graphinclude">
<path fill="none" stroke="black" d="M569.447,-252.529C580.229,-248.365 592.436,-244.323 604,-242 714.764,-219.75 745.639,-243.776 858,-232 945.592,-222.82 1046.38,-203.764 1105.44,-191.722"/>
<polygon fill="black" stroke="black" points="1106.17,-195.146 1115.26,-189.706 1104.76,-188.289 1106.17,-195.146"/>
</a>
</g>
<!-- http://latin.omdoc.org/foundations/zfc?UniversalQuantifier -->
<g id="node21" class="node"><title>http://latin.omdoc.org/foundations/zfc?UniversalQuantifier</title>
<a xlink:href="http://latin.omdoc.org/foundations/zfc?UniversalQuantifier" class="graphtheory">
<ellipse fill="gray" stroke="black" cx="1229" cy="-268" rx="79.4147" ry="18"/>
<text text-anchor="middle" x="1229" y="-264.3" font-family="Times New Roman,serif" font-size="14.00">UniversalQuantifier</text>
</a>
</g>
<!-- http://latin.omdoc.org/foundations/zfc?TypedZFBase&#45;&gt;http://latin.omdoc.org/foundations/zfc?UniversalQuantifier -->
<g id="edge25" class="edge"><title>http://latin.omdoc.org/foundations/zfc?TypedZFBase&#45;&gt;http://latin.omdoc.org/foundations/zfc?UniversalQuantifier</title>
<a class="graphinclude">
<path fill="none" stroke="black" d="M559.212,-285.069C573.668,-295.069 593.417,-306.74 613,-312 812.016,-365.454 1059.42,-313.842 1170.37,-284.797"/>
<polygon fill="black" stroke="black" points="1171.27,-288.179 1180.04,-282.232 1169.48,-281.413 1171.27,-288.179"/>
</a>
</g>
<!-- http://latin.omdoc.org/foundations/zfc?TypedZF -->
<g id="node24" class="node"><title>http://latin.omdoc.org/foundations/zfc?TypedZF</title>
<a xlink:href="http://latin.omdoc.org/foundations/zfc?TypedZF" class="graphtheory">
<ellipse fill="gray" stroke="black" cx="696" cy="-18" rx="45.244" ry="18"/>
<text text-anchor="middle" x="696" y="-14.3" font-family="Times New Roman,serif" font-size="14.00">TypedZF</text>
</a>
</g>
<!-- http://latin.omdoc.org/foundations/zfc?TypedZFBase&#45;&gt;http://latin.omdoc.org/foundations/zfc?TypedZF -->
<g id="edge27" class="edge"><title>http://latin.omdoc.org/foundations/zfc?TypedZFBase&#45;&gt;http://latin.omdoc.org/foundations/zfc?TypedZF</title>
<a class="graphinclude">
<path fill="none" stroke="black" d="M522.544,-250.443C518.3,-244.886 513.998,-238.453 511,-232 491.518,-190.075 491.522,-170.8 509,-128 519.999,-101.066 523.03,-91.8551 546,-74 575.344,-51.1898 615.066,-37.1898 646.262,-29.0266"/>
<polygon fill="black" stroke="black" points="647.213,-32.3966 656.067,-26.5775 645.517,-25.6052 647.213,-32.3966"/>
</a>
</g>
<!-- http://latin.omdoc.org/foundations/zfc?BigInter -->
<g id="node26" class="node"><title>http://latin.omdoc.org/foundations/zfc?BigInter</title>
<a xlink:href="http://latin.omdoc.org/foundations/zfc?BigInter" class="graphtheory">
<ellipse fill="gray" stroke="black" cx="605" cy="-180" rx="39.4691" ry="18"/>
<text text-anchor="middle" x="605" y="-176.3" font-family="Times New Roman,serif" font-size="14.00">BigInter</text>
</a>
</g>
<!-- http://latin.omdoc.org/foundations/zfc?TypedZFBase&#45;&gt;http://latin.omdoc.org/foundations/zfc?BigInter -->
<g id="edge29" class="edge"><title>http://latin.omdoc.org/foundations/zfc?TypedZFBase&#45;&gt;http://latin.omdoc.org/foundations/zfc?BigInter</title>
<a class="graphinclude">
<path fill="none" stroke="black" d="M550.435,-250.009C560.594,-237.16 574.678,-219.348 585.992,-205.039"/>
<polygon fill="black" stroke="black" points="588.826,-207.098 592.283,-197.083 583.335,-202.756 588.826,-207.098"/>
</a>
</g>
<!-- http://latin.omdoc.org/foundations/zfc?DisjUnion -->
<g id="node28" class="node"><title>http://latin.omdoc.org/foundations/zfc?DisjUnion</title>
<a xlink:href="http://latin.omdoc.org/foundations/zfc?DisjUnion" class="graphtheory">
<ellipse fill="gray" stroke="black" cx="894" cy="-180" rx="46.1964" ry="18"/>
<text text-anchor="middle" x="894" y="-176.3" font-family="Times New Roman,serif" font-size="14.00">DisjUnion</text>
</a>
</g>
<!-- http://latin.omdoc.org/foundations/zfc?TypedZFBase&#45;&gt;http://latin.omdoc.org/foundations/zfc?DisjUnion -->
<g id="edge31" class="edge"><title>http://latin.omdoc.org/foundations/zfc?TypedZFBase&#45;&gt;http://latin.omdoc.org/foundations/zfc?DisjUnion</title>
<a class="graphinclude">
<path fill="none" stroke="black" d="M569.454,-252.563C580.236,-248.4 592.442,-244.351 604,-242 653.263,-231.979 782.925,-249.64 830,-232 845.782,-226.086 860.68,-214.702 872.125,-204.188"/>
<polygon fill="black" stroke="black" points="874.685,-206.581 879.464,-197.125 869.832,-201.537 874.685,-206.581"/>
</a>
</g>
<!-- http://latin.omdoc.org/foundations/zfc?ExistentialQuantifier -->
<g id="node30" class="node"><title>http://latin.omdoc.org/foundations/zfc?ExistentialQuantifier</title>
<a xlink:href="http://latin.omdoc.org/foundations/zfc?ExistentialQuantifier" class="graphtheory">
<ellipse fill="gray" stroke="black" cx="83" cy="-180" rx="83.2892" ry="18"/>
<text text-anchor="middle" x="83" y="-176.3" font-family="Times New Roman,serif" font-size="14.00">ExistentialQuantifier</text>
</a>
</g>
<!-- http://latin.omdoc.org/foundations/zfc?TypedZFBase&#45;&gt;http://latin.omdoc.org/foundations/zfc?ExistentialQuantifier -->
<g id="edge35" class="edge"><title>http://latin.omdoc.org/foundations/zfc?TypedZFBase&#45;&gt;http://latin.omdoc.org/foundations/zfc?ExistentialQuantifier</title>
<a class="graphinclude">
<path fill="none" stroke="black" d="M504.56,-252.492C493.779,-248.325 481.57,-244.291 470,-242 405.656,-229.257 238.216,-249.498 175,-232 153.268,-225.985 131.096,-213.907 113.966,-203.015"/>
<polygon fill="black" stroke="black" points="115.779,-200.019 105.496,-197.466 111.942,-205.874 115.779,-200.019"/>
</a>
</g>
<!-- http://latin.omdoc.org/foundations/zfc?Products -->
<g id="node33" class="node"><title>http://latin.omdoc.org/foundations/zfc?Products</title>
<a xlink:href="http://latin.omdoc.org/foundations/zfc?Products" class="graphtheory">
<ellipse fill="gray" stroke="black" cx="228" cy="-180" rx="44.2946" ry="18"/>
<text text-anchor="middle" x="228" y="-176.3" font-family="Times New Roman,serif" font-size="14.00">Products</text>
</a>
</g>
<!-- http://latin.omdoc.org/foundations/zfc?TypedZFBase&#45;&gt;http://latin.omdoc.org/foundations/zfc?Products -->
<g id="edge39" class="edge"><title>http://latin.omdoc.org/foundations/zfc?TypedZFBase&#45;&gt;http://latin.omdoc.org/foundations/zfc?Products</title>
<a class="graphinclude">
<path fill="none" stroke="black" d="M504.184,-252.534C493.485,-248.423 481.419,-244.411 470,-242 433.191,-234.227 336.537,-244.349 301,-232 283.223,-225.822 265.845,-213.987 252.507,-203.273"/>
<polygon fill="black" stroke="black" points="254.678,-200.526 244.757,-196.807 250.194,-205.901 254.678,-200.526"/>
</a>
</g>
<!-- http://latin.omdoc.org/foundations/zfc?PredSubTypes -->
<g id="node36" class="node"><title>http://latin.omdoc.org/foundations/zfc?PredSubTypes</title>
<a xlink:href="http://latin.omdoc.org/foundations/zfc?PredSubTypes" class="graphtheory">
<ellipse fill="gray" stroke="black" cx="356" cy="-180" rx="65.4659" ry="18"/>
<text text-anchor="middle" x="356" y="-176.3" font-family="Times New Roman,serif" font-size="14.00">PredSubTypes</text>
</a>
</g>
<!-- http://latin.omdoc.org/foundations/zfc?TypedZFBase&#45;&gt;http://latin.omdoc.org/foundations/zfc?PredSubTypes -->
<g id="edge43" class="edge"><title>http://latin.omdoc.org/foundations/zfc?TypedZFBase&#45;&gt;http://latin.omdoc.org/foundations/zfc?PredSubTypes</title>
<a class="graphinclude">
<path fill="none" stroke="black" d="M503.392,-252.74C492.86,-248.74 481.088,-244.741 470,-242 436.071,-233.613 421.944,-250.024 392,-232 382.149,-226.07 374.28,-216.296 368.442,-206.883"/>
<polygon fill="black" stroke="black" points="371.443,-205.08 363.469,-198.105 365.353,-208.531 371.443,-205.08"/>
</a>
</g>
<!-- http://latin.omdoc.org/foundations/zfc?ImageTypes -->
<g id="node39" class="node"><title>http://latin.omdoc.org/foundations/zfc?ImageTypes</title>
<a xlink:href="http://latin.omdoc.org/foundations/zfc?ImageTypes" class="graphtheory">
<ellipse fill="gray" stroke="black" cx="611" cy="-92" rx="55.3436" ry="18"/>
<text text-anchor="middle" x="611" y="-88.3" font-family="Times New Roman,serif" font-size="14.00">ImageTypes</text>
</a>
</g>
<!-- http://latin.omdoc.org/foundations/zfc?TypedZFBase&#45;&gt;http://latin.omdoc.org/foundations/zfc?ImageTypes -->
<g id="edge47" class="edge"><title>http://latin.omdoc.org/foundations/zfc?TypedZFBase&#45;&gt;http://latin.omdoc.org/foundations/zfc?ImageTypes</title>
<a class="graphinclude">
<path fill="none" stroke="black" d="M537.542,-249.876C538.782,-228.44 542.833,-191.016 556,-162 563.53,-145.407 575.936,-129.337 587.061,-116.887"/>
<polygon fill="black" stroke="black" points="589.898,-118.975 594.123,-109.259 584.761,-114.219 589.898,-118.975"/>
</a>
</g>
<!-- http://latin.omdoc.org/foundations/zfc?ConditionalTerms -->
<g id="node42" class="node"><title>http://latin.omdoc.org/foundations/zfc?ConditionalTerms</title>
<a xlink:href="http://latin.omdoc.org/foundations/zfc?ConditionalTerms" class="graphtheory">
<ellipse fill="gray" stroke="black" cx="948" cy="-92" rx="76.0649" ry="18"/>
<text text-anchor="middle" x="948" y="-88.3" font-family="Times New Roman,serif" font-size="14.00">ConditionalTerms</text>
</a>
</g>
<!-- http://latin.omdoc.org/foundations/zfc?TypedZFBase&#45;&gt;http://latin.omdoc.org/foundations/zfc?ConditionalTerms -->
<g id="edge49" class="edge"><title>http://latin.omdoc.org/foundations/zfc?TypedZFBase&#45;&gt;http://latin.omdoc.org/foundations/zfc?ConditionalTerms</title>
<a class="graphinclude">
<path fill="none" stroke="black" d="M571.409,-252.905C581.767,-249.005 593.242,-245.019 604,-242 626.659,-235.642 632.991,-236.945 656,-232 719.869,-218.273 741.342,-228.711 799,-198 819.82,-186.91 819.262,-176.329 838,-162 861.137,-144.308 888.938,-126.899 910.802,-113.994"/>
<polygon fill="black" stroke="black" points="912.605,-116.994 919.473,-108.927 909.073,-110.95 912.605,-116.994"/>
</a>
</g>
<!-- http://latin.omdoc.org/foundations/zfc?BigUnion -->
<g id="node44" class="node"><title>http://latin.omdoc.org/foundations/zfc?BigUnion</title>
<a xlink:href="http://latin.omdoc.org/foundations/zfc?BigUnion" class="graphtheory">
<ellipse fill="gray" stroke="black" cx="746" cy="-180" rx="44.271" ry="18"/>
<text text-anchor="middle" x="746" y="-176.3" font-family="Times New Roman,serif" font-size="14.00">BigUnion</text>
</a>
</g>
<!-- http://latin.omdoc.org/foundations/zfc?TypedZFBase&#45;&gt;http://latin.omdoc.org/foundations/zfc?BigUnion -->
<g id="edge51" class="edge"><title>http://latin.omdoc.org/foundations/zfc?TypedZFBase&#45;&gt;http://latin.omdoc.org/foundations/zfc?BigUnion</title>
<a class="graphinclude">
<path fill="none" stroke="black" d="M571.512,-252.799C608.601,-237.538 667.457,-213.319 706.403,-197.293"/>
<polygon fill="black" stroke="black" points="707.934,-200.448 715.85,-193.406 705.271,-193.975 707.934,-200.448"/>
</a>
</g>
<!-- http://latin.omdoc.org/type_theories?TypesTerms -->
<g id="node9" class="node"><title>http://latin.omdoc.org/type_theories?TypesTerms</title>
<a xlink:href="http://latin.omdoc.org/type_theories?TypesTerms" class="graphtheory">
<ellipse fill="gray" stroke="black" cx="789" cy="-356" rx="57.2927" ry="18"/>
<text text-anchor="middle" x="789" y="-352.3" font-family="Times New Roman,serif" font-size="14.00">TypesTerms</text>
</a>
</g>
<!-- http://latin.omdoc.org/type_theories?TypesTerms&#45;&gt;http://latin.omdoc.org/type_theories?UNIT -->
<g id="edge9" class="edge"><title>http://latin.omdoc.org/type_theories?TypesTerms&#45;&gt;http://latin.omdoc.org/type_theories?UNIT</title>
<a class="graphinclude">
<path fill="none" stroke="black" d="M731.896,-356C691.395,-356 650.893,-356 610.391,-356"/>
<polygon fill="black" stroke="black" points="610.373,-352.5 600.373,-356 610.373,-359.5 610.373,-352.5"/>
</a>
</g>
<!-- http://latin.omdoc.org/type_theories?TypesTerms&#45;&gt;http://latin.omdoc.org/foundations/zfc?TypedZFBase -->
<g id="edge21" class="edge"><title>http://latin.omdoc.org/type_theories?TypesTerms&#45;&gt;http://latin.omdoc.org/foundations/zfc?TypedZFBase</title>
<a xlink:href="http://latin.omdoc.org/translations/tt_zfc?TypesTerms" class="graphview">
<path fill="none" stroke="black" d="M751.817,-342.31C707.755,-327.274 634.211,-302.175 585.657,-285.605"/>
<polygon fill="black" stroke="black" points="586.59,-282.225 575.995,-282.308 584.329,-288.85 586.59,-282.225"/>
</a>
<a xlink:href="http://latin.omdoc.org/translations/tt_zfc?TypesTerms" class="TypesTerms">
<text text-anchor="middle" x="722" y="-308.3" font-family="Times New Roman,serif" font-size="14.00">TypesTerms</text>
</a>
</g>
<!-- http://latin.omdoc.org/type_theories?TypesTerms&#45;&gt;http://latin.omdoc.org/type_theories?Option -->
<g id="edge121" class="edge"><title>http://latin.omdoc.org/type_theories?TypesTerms&#45;&gt;http://latin.omdoc.org/type_theories?Option</title>
<a class="graphinclude">
<path fill="none" stroke="black" d="M834.288,-344.834C860.91,-336.62 886.866,-323.238 873,-304 859.518,-285.295 835.605,-276.435 814.002,-272.301"/>
<polygon fill="black" stroke="black" points="814.394,-268.819 803.963,-270.672 813.273,-275.729 814.394,-268.819"/>
</a>
</g>
<!-- http://latin.omdoc.org/type_theories?VOID -->
<g id="node18" class="node"><title>http://latin.omdoc.org/type_theories?VOID</title>
<a xlink:href="http://latin.omdoc.org/type_theories?VOID" class="graphtheory">
<ellipse fill="gray" stroke="black" cx="930" cy="-268" rx="33.2209" ry="18"/>
<text text-anchor="middle" x="930" y="-264.3" font-family="Times New Roman,serif" font-size="14.00">VOID</text>
</a>
</g>
<!-- http://latin.omdoc.org/type_theories?TypesTerms&#45;&gt;http://latin.omdoc.org/type_theories?VOID -->
<g id="edge119" class="edge"><title>http://latin.omdoc.org/type_theories?TypesTerms&#45;&gt;http://latin.omdoc.org/type_theories?VOID</title>
<a class="graphinclude">
<path fill="none" stroke="black" d="M834.356,-344.927C852.444,-339.485 872.777,-331.464 889,-320 898.945,-312.973 907.749,-302.889 914.625,-293.541"/>
<polygon fill="black" stroke="black" points="917.54,-295.479 920.375,-285.271 911.793,-291.483 917.54,-295.479"/>
</a>
</g>
<!-- http://cds.omdoc.org/urtheories?LF -->
<g id="node11" class="node"><title>http://cds.omdoc.org/urtheories?LF</title>
<a xlink:href="http://cds.omdoc.org/urtheories?LF" class="graphtheory">
<ellipse fill="gray" stroke="black" cx="508" cy="-430" rx="27" ry="18"/>
<text text-anchor="middle" x="508" y="-426.3" font-family="Times New Roman,serif" font-size="14.00">LF</text>
</a>
</g>
<!-- http://cds.omdoc.org/urtheories?LF&#45;&gt;http://latin.omdoc.org/type_theories?UNIT -->
<g id="edge11" class="edge"><title>http://cds.omdoc.org/urtheories?LF&#45;&gt;http://latin.omdoc.org/type_theories?UNIT</title>
<a class="graphmeta">
<path fill="none" stroke="black" d="M520.724,-413.731C528.729,-404.125 539.222,-391.534 548.289,-380.654"/>
<polygon fill="black" stroke="black" points="551.166,-382.668 554.879,-372.745 545.788,-378.187 551.166,-382.668"/>
</a>
</g>
<!-- http://cds.omdoc.org/urtheories?LF&#45;&gt;http://latin.omdoc.org/foundations/zfc?TypedZFBase -->
<g id="edge55" class="edge"><title>http://cds.omdoc.org/urtheories?LF&#45;&gt;http://latin.omdoc.org/foundations/zfc?TypedZFBase</title>
<a class="graphmeta">
<path fill="none" stroke="black" d="M511.104,-411.877C516.14,-384.089 526.132,-328.959 532.125,-295.896"/>
<polygon fill="black" stroke="black" points="535.579,-296.464 533.919,-286 528.691,-295.215 535.579,-296.464"/>
</a>
</g>
<!-- http://cds.omdoc.org/urtheories?LF&#45;&gt;http://latin.omdoc.org/type_theories?MLTT -->
<g id="edge101" class="edge"><title>http://cds.omdoc.org/urtheories?LF&#45;&gt;http://latin.omdoc.org/type_theories?MLTT</title>
<a class="graphmeta">
<path fill="none" stroke="black" d="M535.094,-428.686C635.704,-427.229 983.636,-419.496 1014,-382 1054.95,-331.438 1026.52,-248.526 1007.8,-206.758"/>
<polygon fill="black" stroke="black" points="1010.91,-205.142 1003.53,-197.544 1004.56,-208.089 1010.91,-205.142"/>
</a>
</g>
<!-- http://cds.omdoc.org/urtheories?LF&#45;&gt;http://latin.omdoc.org/type_theories?Option -->
<g id="edge113" class="edge"><title>http://cds.omdoc.org/urtheories?LF&#45;&gt;http://latin.omdoc.org/type_theories?Option</title>
<a class="graphmeta">
<path fill="none" stroke="black" d="M535.16,-429.644C571.25,-429.211 635.614,-423.833 680,-394 719.899,-367.183 711.624,-342.806 740,-304 742.708,-300.296 745.655,-296.441 748.586,-292.702"/>
<polygon fill="black" stroke="black" points="751.385,-294.805 754.879,-284.803 745.91,-290.443 751.385,-294.805"/>
</a>
</g>
<!-- http://cds.omdoc.org/urtheories?LF&#45;&gt;http://latin.omdoc.org/type_theories?TypesTerms -->
<g id="edge87" class="edge"><title>http://cds.omdoc.org/urtheories?LF&#45;&gt;http://latin.omdoc.org/type_theories?TypesTerms</title>
<a class="graphmeta">
<path fill="none" stroke="black" d="M534.839,-427.239C575.413,-423.978 654.38,-415.279 718,-394 730.69,-389.756 743.875,-383.471 755.39,-377.282"/>
<polygon fill="black" stroke="black" points="757.179,-380.291 764.224,-372.379 753.782,-374.171 757.179,-380.291"/>
</a>
</g>
<!-- http://cds.omdoc.org/urtheories?LF&#45;&gt;http://latin.omdoc.org/foundations/isabelle?NesetZFC -->
<g id="edge117" class="edge"><title>http://cds.omdoc.org/urtheories?LF&#45;&gt;http://latin.omdoc.org/foundations/isabelle?NesetZFC</title>
<a class="graphmeta">
<path fill="none" stroke="black" d="M535.177,-429.21C645.09,-429.815 1052.94,-429.626 1097,-394 1098.86,-392.499 1133.52,-264.486 1148.83,-207.661"/>
<polygon fill="black" stroke="black" points="1152.23,-208.492 1151.45,-197.926 1145.47,-206.672 1152.23,-208.492"/>
</a>
</g>
<!-- http://latin.omdoc.org/foundations/zfc?Curry -->
<g id="node15" class="node"><title>http://latin.omdoc.org/foundations/zfc?Curry</title>
<a xlink:href="http://latin.omdoc.org/foundations/zfc?Curry" class="graphtheory">
<ellipse fill="gray" stroke="black" cx="422" cy="-356" rx="31.2735" ry="18"/>
<text text-anchor="middle" x="422" y="-352.3" font-family="Times New Roman,serif" font-size="14.00">Curry</text>
</a>
</g>
<!-- http://cds.omdoc.org/urtheories?LF&#45;&gt;http://latin.omdoc.org/foundations/zfc?Curry -->
<g id="edge111" class="edge"><title>http://cds.omdoc.org/urtheories?LF&#45;&gt;http://latin.omdoc.org/foundations/zfc?Curry</title>
<a class="graphmeta">
<path fill="none" stroke="black" d="M491.824,-415.457C479.215,-404.901 461.483,-390.055 447.044,-377.967"/>
<polygon fill="black" stroke="black" points="448.9,-374.957 438.986,-371.221 444.407,-380.324 448.9,-374.957"/>
</a>
</g>
<!-- http://cds.omdoc.org/urtheories?LF&#45;&gt;http://latin.omdoc.org/type_theories?VOID -->
<g id="edge95" class="edge"><title>http://cds.omdoc.org/urtheories?LF&#45;&gt;http://latin.omdoc.org/type_theories?VOID</title>
<a class="graphmeta">
<path fill="none" stroke="black" d="M535.122,-428.377C625.281,-426.096 911.173,-417.091 945,-394 980.582,-369.711 1001.07,-342.12 981,-304 977.095,-296.584 970.831,-290.437 964.009,-285.474"/>
<polygon fill="black" stroke="black" points="965.51,-282.278 955.205,-279.815 961.724,-288.166 965.51,-282.278"/>
</a>
</g>
<!-- http://cds.omdoc.org/urtheories?LF&#45;&gt;http://latin.omdoc.org/foundations/zfc?UniversalQuantifier -->
<g id="edge97" class="edge"><title>http://cds.omdoc.org/urtheories?LF&#45;&gt;http://latin.omdoc.org/foundations/zfc?UniversalQuantifier</title>
<a class="graphmeta">
<path fill="none" stroke="black" d="M535.034,-428.824C648.338,-427.909 1081.58,-422.556 1135,-394 1175.23,-372.495 1203.14,-325.378 1217.58,-295.53"/>
<polygon fill="black" stroke="black" points="1220.91,-296.674 1221.95,-286.131 1214.56,-293.719 1220.91,-296.674"/>
</a>
</g>
<!-- http://cds.omdoc.org/urtheories?LF&#45;&gt;http://latin.omdoc.org/foundations/zfc?TypedZF -->
<g id="edge99" class="edge"><title>http://cds.omdoc.org/urtheories?LF&#45;&gt;http://latin.omdoc.org/foundations/zfc?TypedZF</title>
<a class="graphmeta">
<path fill="none" stroke="black" d="M535.076,-428.899C623.791,-428.274 913.632,-423.916 1151,-394 1234.62,-383.461 1337,-441.286 1337,-357 1337,-357 1337,-357 1337,-91 1337,-32.3313 907.469,-21.4674 751.629,-19.4565"/>
<polygon fill="black" stroke="black" points="751.371,-15.9532 741.329,-19.3314 751.286,-22.9527 751.371,-15.9532"/>
</a>
</g>
<!-- http://cds.omdoc.org/urtheories?LF&#45;&gt;http://latin.omdoc.org/foundations/zfc?BigInter -->
<g id="edge91" class="edge"><title>http://cds.omdoc.org/urtheories?LF&#45;&gt;http://latin.omdoc.org/foundations/zfc?BigInter</title>
<a class="graphmeta">
<path fill="none" stroke="black" d="M535.047,-428.424C607.327,-426.41 803.012,-417.713 855,-382 880.904,-364.205 881.2,-350.444 889,-320 901.012,-273.113 855.825,-264.556 813,-242 760.906,-214.562 694.796,-197.877 651.26,-189.051"/>
<polygon fill="black" stroke="black" points="651.732,-185.576 641.244,-187.078 650.379,-192.445 651.732,-185.576"/>
</a>
</g>
<!-- http://cds.omdoc.org/urtheories?LF&#45;&gt;http://latin.omdoc.org/foundations/zfc?DisjUnion -->
<g id="edge109" class="edge"><title>http://cds.omdoc.org/urtheories?LF&#45;&gt;http://latin.omdoc.org/foundations/zfc?DisjUnion</title>
<a class="graphmeta">
<path fill="none" stroke="black" d="M535.123,-428.577C632.598,-426.763 960.891,-418.002 989,-382 1027.57,-332.596 1010.38,-291.558 972,-242 959.682,-226.093 942.325,-211.981 927.111,-201.348"/>
<polygon fill="black" stroke="black" points="928.701,-198.199 918.455,-195.502 924.783,-203.999 928.701,-198.199"/>
</a>
</g>
<!-- http://cds.omdoc.org/urtheories?LF&#45;&gt;http://latin.omdoc.org/foundations/zfc?ExistentialQuantifier -->
<g id="edge115" class="edge"><title>http://cds.omdoc.org/urtheories?LF&#45;&gt;http://latin.omdoc.org/foundations/zfc?ExistentialQuantifier</title>
<a class="graphmeta">
<path fill="none" stroke="black" d="M481.02,-427.908C415.283,-424.77 249.001,-413.815 205,-382 143.445,-337.492 106.917,-251.488 91.5554,-207.83"/>
<polygon fill="black" stroke="black" points="94.8081,-206.524 88.267,-198.189 88.1829,-208.784 94.8081,-206.524"/>
</a>
</g>
<!-- http://cds.omdoc.org/urtheories?LF&#45;&gt;http://latin.omdoc.org/foundations/zfc?Products -->
<g id="edge105" class="edge"><title>http://cds.omdoc.org/urtheories?LF&#45;&gt;http://latin.omdoc.org/foundations/zfc?Products</title>
<a class="graphmeta">
<path fill="none" stroke="black" d="M480.887,-427.992C420.505,-425.164 277.7,-415.058 245,-382 193.263,-329.697 190.934,-303.822 175,-232 173.46,-225.058 171.631,-222.262 175,-216 178.556,-209.391 183.967,-203.822 189.996,-199.207"/>
<polygon fill="black" stroke="black" points="192.14,-201.984 198.484,-193.498 188.233,-196.175 192.14,-201.984"/>
</a>
</g>
<!-- http://cds.omdoc.org/urtheories?LF&#45;&gt;http://latin.omdoc.org/foundations/zfc?PredSubTypes -->
<g id="edge85" class="edge"><title>http://cds.omdoc.org/urtheories?LF&#45;&gt;http://latin.omdoc.org/foundations/zfc?PredSubTypes</title>
<a class="graphmeta">
<path fill="none" stroke="black" d="M480.836,-428.024C422.585,-425.3 288.693,-415.459 261,-382 229.011,-343.35 267.082,-259.662 301,-216 305.199,-210.595 310.482,-205.791 316.104,-201.605"/>
<polygon fill="black" stroke="black" points="318.182,-204.425 324.496,-195.917 314.255,-198.631 318.182,-204.425"/>
</a>
</g>
<!-- http://cds.omdoc.org/urtheories?LF&#45;&gt;http://latin.omdoc.org/foundations/zfc?ImageTypes -->
<g id="edge107" class="edge"><title>http://cds.omdoc.org/urtheories?LF&#45;&gt;http://latin.omdoc.org/foundations/zfc?ImageTypes</title>
<a class="graphmeta">
<path fill="none" stroke="black" d="M533.824,-424.177C557.703,-418.343 592.372,-406.134 612,-382 674.756,-304.837 676.975,-258.528 653,-162 649.017,-145.965 639.805,-130.076 631.02,-117.594"/>
<polygon fill="black" stroke="black" points="633.83,-115.506 625.076,-109.537 628.197,-119.662 633.83,-115.506"/>
</a>
</g>
<!-- http://cds.omdoc.org/urtheories?LF&#45;&gt;http://latin.omdoc.org/foundations/zfc?ConditionalTerms -->
<g id="edge93" class="edge"><title>http://cds.omdoc.org/urtheories?LF&#45;&gt;http://latin.omdoc.org/foundations/zfc?ConditionalTerms</title>
<a class="graphmeta">
<path fill="none" stroke="black" d="M534.945,-428.808C638.401,-427.781 1005.97,-421.367 1038,-382 1073.99,-337.761 1044,-171.235 1039,-162 1027.84,-141.379 1007.57,-125.084 988.985,-113.52"/>
<polygon fill="black" stroke="black" points="990.713,-110.475 980.327,-108.383 987.141,-116.496 990.713,-110.475"/>
</a>
</g>
<!-- http://cds.omdoc.org/urtheories?LF&#45;&gt;http://latin.omdoc.org/foundations/zfc?BigUnion -->
<g id="edge89" class="edge"><title>http://cds.omdoc.org/urtheories?LF&#45;&gt;http://latin.omdoc.org/foundations/zfc?BigUnion</title>
<a class="graphmeta">
<path fill="none" stroke="black" d="M535.122,-428.403C564.51,-426.407 611.302,-419.132 642,-394 672.971,-368.644 716.926,-258.831 736.248,-207.558"/>
<polygon fill="black" stroke="black" points="739.551,-208.719 739.773,-198.126 732.994,-206.268 739.551,-208.719"/>
</a>
</g>
<!-- http://latin.omdoc.org/foundations/zfc?Operations -->
<g id="node46" class="node"><title>http://latin.omdoc.org/foundations/zfc?Operations</title>
<a xlink:href="http://latin.omdoc.org/foundations/zfc?Operations" class="graphtheory">
<ellipse fill="gray" stroke="black" cx="321" cy="-356" rx="50.5427" ry="18"/>
<text text-anchor="middle" x="321" y="-352.3" font-family="Times New Roman,serif" font-size="14.00">Operations</text>
</a>
</g>
<!-- http://cds.omdoc.org/urtheories?LF&#45;&gt;http://latin.omdoc.org/foundations/zfc?Operations -->
<g id="edge103" class="edge"><title>http://cds.omdoc.org/urtheories?LF&#45;&gt;http://latin.omdoc.org/foundations/zfc?Operations</title>
<a class="graphmeta">
<path fill="none" stroke="black" d="M484.485,-420.619C458.911,-411.429 416.882,-396.109 381,-382 374.65,-379.503 367.951,-376.791 361.424,-374.104"/>
<polygon fill="black" stroke="black" points="362.622,-370.812 352.044,-370.215 359.941,-377.278 362.622,-370.812"/>
</a>
</g>
<!-- http://latin.omdoc.org/foundations/zfc?Curry&#45;&gt;http://latin.omdoc.org/foundations/zfc?TypedZFBase -->
<g id="edge15" class="edge"><title>http://latin.omdoc.org/foundations/zfc?Curry&#45;&gt;http://latin.omdoc.org/foundations/zfc?TypedZFBase</title>
<a xlink:href="http://latin.omdoc.org/foundations/zfc?TypesAsSets" class="graphview">
<path fill="none" stroke="black" d="M415.417,-338.262C412.345,-327.46 410.764,-313.671 418,-304 420.146,-301.131 452.227,-291.785 482.535,-283.472"/>
<polygon fill="black" stroke="black" points="483.545,-286.825 492.273,-280.819 481.705,-280.071 483.545,-286.825"/>
</a>
<a xlink:href="http://latin.omdoc.org/foundations/zfc?TypesAsSets" class="TypesAsSets">
<text text-anchor="middle" x="456" y="-308.3" font-family="Times New Roman,serif" font-size="14.00">TypesAsSets</text>
</a>
</g>
<!-- http://latin.omdoc.org/foundations/zfc?Curry&#45;&gt;http://latin.omdoc.org/foundations/zfc?TypedZFBase -->
<g id="edge17" class="edge"><title>http://latin.omdoc.org/foundations/zfc?Curry&#45;&gt;http://latin.omdoc.org/foundations/zfc?TypedZFBase</title>
<a xlink:href="http://latin.omdoc.org/foundations/zfc?TypesAsClasses" class="graphview">
<path fill="none" stroke="black" d="M397.303,-344.457C391.662,-342.202 385.661,-339.922 380,-338 351.616,-328.361 333.149,-343.858 315,-320 310.695,-314.34 310.271,-309.31 315,-304 338.062,-278.105 435.897,-292.278 470,-286 474.367,-285.196 478.871,-284.269 483.381,-283.272"/>
<polygon fill="black" stroke="black" points="484.261,-286.661 493.215,-280.997 482.684,-279.841 484.261,-286.661"/>
</a>
<a xlink:href="http://latin.omdoc.org/foundations/zfc?TypesAsClasses" class="TypesAsClasses">
<text text-anchor="middle" x="362" y="-308.3" font-family="Times New Roman,serif" font-size="14.00">TypesAsClasses</text>
</a>
</g>
<!-- http://latin.omdoc.org/type_theories?VOID&#45;&gt;http://latin.omdoc.org/foundations/zfc?TypedZFBase -->
<g id="edge19" class="edge"><title>http://latin.omdoc.org/type_theories?VOID&#45;&gt;http://latin.omdoc.org/foundations/zfc?TypedZFBase</title>
<a xlink:href="http://latin.omdoc.org/translations/tt_zfc?VOID" class="graphview">
<path fill="none" stroke="black" d="M914.876,-284.416C903.982,-294.966 888.295,-307.738 871.5,-313.5 856.786,-318.548 852.029,-314.415 836.5,-313.5 732.627,-307.378 706.179,-305.661 604,-286 599.875,-285.206 595.631,-284.295 591.376,-283.312"/>
<polygon fill="black" stroke="black" points="592.023,-279.868 581.48,-280.913 590.374,-286.671 592.023,-279.868"/>
</a>
<a xlink:href="http://latin.omdoc.org/translations/tt_zfc?VOID" class="VOID">
<text text-anchor="middle" x="854" y="-308.3" font-family="Times New Roman,serif" font-size="14.00">VOID</text>
</a>
</g>
<!-- http://latin.omdoc.org/type_theories?VOID&#45;&gt;http://latin.omdoc.org/type_theories?MLTT -->
<g id="edge83" class="edge"><title>http://latin.omdoc.org/type_theories?VOID&#45;&gt;http://latin.omdoc.org/type_theories?MLTT</title>
<a class="graphinclude">
<path fill="none" stroke="black" d="M942.226,-250.824C951.94,-237.971 965.678,-219.795 976.703,-205.209"/>
<polygon fill="black" stroke="black" points="979.591,-207.191 982.829,-197.103 974.007,-202.971 979.591,-207.191"/>
</a>
</g>
<!-- http://latin.omdoc.org/foundations/zfc?UniversalQuantifier&#45;&gt;http://latin.omdoc.org/foundations/zfc?TypedZFBase -->
<g id="edge23" class="edge"><title>http://latin.omdoc.org/foundations/zfc?UniversalQuantifier&#45;&gt;http://latin.omdoc.org/foundations/zfc?TypedZFBase</title>
<a xlink:href="http://latin.omdoc.org/foundations/zfc?_UQ" class="graphview">
<path fill="none" stroke="black" d="M1174.01,-281.005C1123.82,-292.168 1047.4,-307.393 980,-313.5 896.563,-321.061 686.562,-300.228 604,-286 599.608,-285.243 595.087,-284.329 590.564,-283.319"/>
<polygon fill="black" stroke="black" points="591.251,-279.885 580.712,-280.978 589.632,-286.695 591.251,-279.885"/>
</a>
<a xlink:href="http://latin.omdoc.org/foundations/zfc?_UQ" class="_UQ">
<text text-anchor="middle" x="966" y="-308.3" font-family="Times New Roman,serif" font-size="14.00">_UQ</text>
</a>
</g>
<!-- http://latin.omdoc.org/foundations/zfc?UniversalQuantifier&#45;&gt;http://latin.omdoc.org/foundations/isabelle?NesetZFC -->
<g id="edge81" class="edge"><title>http://latin.omdoc.org/foundations/zfc?UniversalQuantifier&#45;&gt;http://latin.omdoc.org/foundations/isabelle?NesetZFC</title>
<a class="graphinclude">
<path fill="none" stroke="black" d="M1214.58,-250.009C1203.74,-237.242 1188.74,-219.575 1176.64,-205.313"/>
<polygon fill="black" stroke="black" points="1179.04,-202.731 1169.9,-197.372 1173.7,-207.261 1179.04,-202.731"/>
</a>
</g>
<!-- http://latin.omdoc.org/foundations/zfc?UniversalQuantifier&#45;&gt;http://latin.omdoc.org/foundations/zfc?TypedZF -->
<g id="edge79" class="edge"><title>http://latin.omdoc.org/foundations/zfc?UniversalQuantifier&#45;&gt;http://latin.omdoc.org/foundations/zfc?TypedZF</title>
<a class="graphinclude">
<path fill="none" stroke="black" d="M1230.95,-249.927C1232.57,-227.523 1232.11,-188.005 1213,-162 1160.28,-90.238 1117.85,-101.017 1033,-74 936.154,-43.1644 817.874,-28.9624 750.308,-22.9448"/>
<polygon fill="black" stroke="black" points="750.577,-19.4551 740.313,-22.0816 749.975,-26.4291 750.577,-19.4551"/>
</a>
</g>
<!-- http://latin.omdoc.org/foundations/zfc?BigInter&#45;&gt;http://latin.omdoc.org/foundations/zfc?TypedZF -->
<g id="edge77" class="edge"><title>http://latin.omdoc.org/foundations/zfc?BigInter&#45;&gt;http://latin.omdoc.org/foundations/zfc?TypedZF</title>
<a class="graphinclude">
<path fill="none" stroke="black" d="M625.284,-164.291C641.207,-151.662 662.678,-132.045 675,-110 686.029,-90.2688 691.274,-65.04 693.763,-46.1533"/>
<polygon fill="black" stroke="black" points="697.251,-46.4546 694.908,-36.1223 690.296,-45.6609 697.251,-46.4546"/>
</a>
</g>
<!-- http://latin.omdoc.org/foundations/zfc?BigInter&#45;&gt;http://latin.omdoc.org/foundations/zfc?ImageTypes -->
<g id="edge75" class="edge"><title>http://latin.omdoc.org/foundations/zfc?BigInter&#45;&gt;http://latin.omdoc.org/foundations/zfc?ImageTypes</title>
<a xlink:href="http://latin.omdoc.org/foundations/zfc?_BI" class="graphview">
<path fill="none" stroke="black" d="M606.214,-161.597C607.041,-149.746 608.152,-133.817 609.096,-120.292"/>
<polygon fill="black" stroke="black" points="612.604,-120.303 609.808,-110.084 605.621,-119.816 612.604,-120.303"/>
</a>
<a xlink:href="http://latin.omdoc.org/foundations/zfc?_BI" class="_BI">
<text text-anchor="middle" x="620" y="-132.3" font-family="Times New Roman,serif" font-size="14.00">_BI</text>
</a>
</g>
<!-- http://latin.omdoc.org/foundations/zfc?DisjUnion&#45;&gt;http://latin.omdoc.org/foundations/zfc?TypedZF -->
<g id="edge73" class="edge"><title>http://latin.omdoc.org/foundations/zfc?DisjUnion&#45;&gt;http://latin.omdoc.org/foundations/zfc?TypedZF</title>
<a class="graphinclude">
<path fill="none" stroke="black" d="M874.654,-163.367C839.15,-134.677 763.522,-73.563 722.986,-40.807"/>
<polygon fill="black" stroke="black" points="725.11,-38.0236 715.133,-34.4607 720.711,-43.4682 725.11,-38.0236"/>
</a>
</g>
<!-- http://latin.omdoc.org/foundations/zfc?DisjUnion&#45;&gt;http://latin.omdoc.org/foundations/zfc?ConditionalTerms -->
<g id="edge71" class="edge"><title>http://latin.omdoc.org/foundations/zfc?DisjUnion&#45;&gt;http://latin.omdoc.org/foundations/zfc?ConditionalTerms</title>
<a xlink:href="http://latin.omdoc.org/foundations/zfc?_DU" class="graphview">
<path fill="none" stroke="black" d="M904.412,-162.418C912.155,-150.086 922.871,-133.021 931.739,-118.897"/>
<polygon fill="black" stroke="black" points="934.897,-120.45 937.251,-110.119 928.969,-116.727 934.897,-120.45"/>
</a>
<a xlink:href="http://latin.omdoc.org/foundations/zfc?_DU" class="_DU">
<text text-anchor="middle" x="940" y="-132.3" font-family="Times New Roman,serif" font-size="14.00">_DU</text>
</a>
</g>
<!-- http://latin.omdoc.org/foundations/zfc?ExistentialQuantifier&#45;&gt;http://latin.omdoc.org/foundations/zfc?TypedZFBase -->
<g id="edge33" class="edge"><title>http://latin.omdoc.org/foundations/zfc?ExistentialQuantifier&#45;&gt;http://latin.omdoc.org/foundations/zfc?TypedZFBase</title>
<a xlink:href="http://latin.omdoc.org/foundations/zfc?_EQ" class="graphview">
<path fill="none" stroke="black" d="M120.017,-196.18C151.377,-208.268 197.838,-224.381 240,-232 340.688,-250.194 369.727,-221.643 470,-242 478.308,-243.687 486.95,-246.252 495.158,-249.108"/>
<polygon fill="black" stroke="black" points="493.954,-252.394 504.547,-252.558 496.368,-245.823 493.954,-252.394"/>
</a>
<a xlink:href="http://latin.omdoc.org/foundations/zfc?_EQ" class="_EQ">
<text text-anchor="middle" x="253.5" y="-220.3" font-family="Times New Roman,serif" font-size="14.00">_EQ</text>
</a>
</g>
<!-- http://latin.omdoc.org/foundations/zfc?ExistentialQuantifier&#45;&gt;http://latin.omdoc.org/foundations/zfc?TypedZF -->
<g id="edge69" class="edge"><title>http://latin.omdoc.org/foundations/zfc?ExistentialQuantifier&#45;&gt;http://latin.omdoc.org/foundations/zfc?TypedZF</title>
<a class="graphinclude">
<path fill="none" stroke="black" d="M112.834,-163.171C156.958,-140.369 242.741,-98.3514 320,-74 430.724,-39.1007 566.89,-26.1924 641.203,-21.5325"/>
<polygon fill="black" stroke="black" points="641.496,-25.0213 651.269,-20.9283 641.077,-18.0338 641.496,-25.0213"/>
</a>
</g>
<!-- http://latin.omdoc.org/foundations/zfc?Products&#45;&gt;http://latin.omdoc.org/foundations/zfc?TypedZFBase -->
<g id="edge37" class="edge"><title>http://latin.omdoc.org/foundations/zfc?Products&#45;&gt;http://latin.omdoc.org/foundations/zfc?TypedZFBase</title>
<a xlink:href="http://latin.omdoc.org/foundations/zfc?_P" class="graphview">
<path fill="none" stroke="black" d="M254.979,-194.559C280.177,-206.557 319.178,-223.45 355,-232 404.902,-243.911 419.954,-230.707 470,-242 478.007,-243.807 486.348,-246.348 494.315,-249.124"/>
<polygon fill="black" stroke="black" points="493.207,-252.445 503.801,-252.592 495.611,-245.871 493.207,-252.445"/>
</a>
<a xlink:href="http://latin.omdoc.org/foundations/zfc?_P" class="_P">
<text text-anchor="middle" x="363" y="-220.3" font-family="Times New Roman,serif" font-size="14.00">_P</text>
</a>
</g>
<!-- http://latin.omdoc.org/foundations/zfc?Products&#45;&gt;http://latin.omdoc.org/foundations/zfc?TypedZF -->
<g id="edge67" class="edge"><title>http://latin.omdoc.org/foundations/zfc?Products&#45;&gt;http://latin.omdoc.org/foundations/zfc?TypedZF</title>
<a class="graphinclude">
<path fill="none" stroke="black" d="M247.567,-163.656C276.013,-141.825 330.974,-101.412 382,-74 464.491,-29.6849 575.105,-19.9226 640.632,-18.3972"/>
<polygon fill="black" stroke="black" points="640.814,-21.8947 650.751,-18.2191 640.691,-14.8958 640.814,-21.8947"/>
</a>
</g>
<!-- http://latin.omdoc.org/foundations/zfc?PredSubTypes&#45;&gt;http://latin.omdoc.org/foundations/zfc?TypedZFBase -->
<g id="edge41" class="edge"><title>http://latin.omdoc.org/foundations/zfc?PredSubTypes&#45;&gt;http://latin.omdoc.org/foundations/zfc?TypedZFBase</title>
<a xlink:href="http://latin.omdoc.org/foundations/zfc?_F" class="graphview">
<path fill="none" stroke="black" d="M372.144,-197.517C384.264,-208.942 401.834,-223.556 420,-232 440.551,-241.552 448.203,-235.797 470,-242 477.39,-244.103 485.122,-246.65 492.599,-249.304"/>
<polygon fill="black" stroke="black" points="491.637,-252.679 502.231,-252.825 494.041,-246.104 491.637,-252.679"/>
</a>
<a xlink:href="http://latin.omdoc.org/foundations/zfc?_F" class="_F">
<text text-anchor="middle" x="428" y="-220.3" font-family="Times New Roman,serif" font-size="14.00">_F</text>
</a>
</g>
<!-- http://latin.omdoc.org/foundations/zfc?PredSubTypes&#45;&gt;http://latin.omdoc.org/foundations/zfc?TypedZF -->
<g id="edge65" class="edge"><title>http://latin.omdoc.org/foundations/zfc?PredSubTypes&#45;&gt;http://latin.omdoc.org/foundations/zfc?TypedZF</title>
<a class="graphinclude">
<path fill="none" stroke="black" d="M361.61,-161.853C371.671,-134.077 395.592,-79.766 436,-54 468.99,-32.9639 574.806,-24.3992 640.838,-21.041"/>
<polygon fill="black" stroke="black" points="641.258,-24.5249 651.077,-20.5456 640.919,-17.5331 641.258,-24.5249"/>
</a>
</g>
<!-- http://latin.omdoc.org/foundations/zfc?ImageTypes&#45;&gt;http://latin.omdoc.org/foundations/zfc?TypedZFBase -->
<g id="edge45" class="edge"><title>http://latin.omdoc.org/foundations/zfc?ImageTypes&#45;&gt;http://latin.omdoc.org/foundations/zfc?TypedZFBase</title>
<a xlink:href="http://latin.omdoc.org/foundations/zfc?_I" class="graphview">
<path fill="none" stroke="black" d="M566.566,-102.799C551.142,-108.081 534.779,-116.063 523,-128 493.947,-157.443 509.817,-209.345 523.649,-240.716"/>
<polygon fill="black" stroke="black" points="520.629,-242.524 528.009,-250.126 526.98,-239.581 520.629,-242.524"/>
</a>
<a xlink:href="http://latin.omdoc.org/foundations/zfc?_I" class="_I">
<text text-anchor="middle" x="516.5" y="-176.3" font-family="Times New Roman,serif" font-size="14.00">_I</text>
</a>
</g>
<!-- http://latin.omdoc.org/foundations/zfc?ImageTypes&#45;&gt;http://latin.omdoc.org/foundations/zfc?TypedZF -->
<g id="edge63" class="edge"><title>http://latin.omdoc.org/foundations/zfc?ImageTypes&#45;&gt;http://latin.omdoc.org/foundations/zfc?TypedZF</title>
<a class="graphinclude">
<path fill="none" stroke="black" d="M629.864,-75.0209C641.61,-65.0714 656.888,-52.1303 669.8,-41.1931"/>
<polygon fill="black" stroke="black" points="672.113,-43.8209 677.481,-34.6867 667.588,-38.4796 672.113,-43.8209"/>
</a>
</g>
<!-- http://latin.omdoc.org/foundations/zfc?ConditionalTerms&#45;&gt;http://latin.omdoc.org/foundations/zfc?TypedZF -->
<g id="edge61" class="edge"><title>http://latin.omdoc.org/foundations/zfc?ConditionalTerms&#45;&gt;http://latin.omdoc.org/foundations/zfc?TypedZF</title>
<a class="graphinclude">
<path fill="none" stroke="black" d="M914.756,-75.6798C897.994,-68.3828 877.197,-59.9682 858,-54 821.554,-42.6693 779.384,-33.684 747.206,-27.6555"/>
<polygon fill="black" stroke="black" points="747.598,-24.1689 737.13,-25.8028 746.332,-31.0535 747.598,-24.1689"/>
</a>
</g>
<!-- http://latin.omdoc.org/foundations/zfc?BigUnion&#45;&gt;http://latin.omdoc.org/foundations/zfc?TypedZF -->
<g id="edge59" class="edge"><title>http://latin.omdoc.org/foundations/zfc?BigUnion&#45;&gt;http://latin.omdoc.org/foundations/zfc?TypedZF</title>
<a class="graphinclude">
<path fill="none" stroke="black" d="M744.201,-161.818C742.934,-151.84 740.934,-139.09 738,-128 729.005,-94.0053 722.753,-86.7706 710,-54 708.932,-51.2555 707.807,-48.3944 706.678,-45.5424"/>
<polygon fill="black" stroke="black" points="709.854,-44.0581 702.9,-36.0645 703.351,-46.6497 709.854,-44.0581"/>
</a>
</g>
<!-- http://latin.omdoc.org/foundations/zfc?BigUnion&#45;&gt;http://latin.omdoc.org/foundations/zfc?ImageTypes -->
<g id="edge57" class="edge"><title>http://latin.omdoc.org/foundations/zfc?BigUnion&#45;&gt;http://latin.omdoc.org/foundations/zfc?ImageTypes</title>
<a xlink:href="http://latin.omdoc.org/foundations/zfc?_BU" class="graphview">
<path fill="none" stroke="black" d="M729.551,-163.258C717.758,-152.486 701.164,-138.339 685,-128 675.185,-121.722 664.067,-115.875 653.487,-110.827"/>
<polygon fill="black" stroke="black" points="654.919,-107.634 644.375,-106.607 651.977,-113.985 654.919,-107.634"/>
</a>
<a xlink:href="http://latin.omdoc.org/foundations/zfc?_BU" class="_BU">
<text text-anchor="middle" x="720.5" y="-132.3" font-family="Times New Roman,serif" font-size="14.00">_BU</text>
</a>
</g>
<!-- http://latin.omdoc.org/foundations/zfc?Operations&#45;&gt;http://latin.omdoc.org/foundations/zfc?TypedZFBase -->
<g id="edge53" class="edge"><title>http://latin.omdoc.org/foundations/zfc?Operations&#45;&gt;http://latin.omdoc.org/foundations/zfc?TypedZFBase</title>
<a class="graphinclude">
<path fill="none" stroke="black" d="M309.646,-337.991C303.899,-327.074 299.712,-313.259 308,-304 332.157,-277.01 434.361,-292.469 470,-286 474.369,-285.207 478.874,-284.288 483.386,-283.296"/>
<polygon fill="black" stroke="black" points="484.263,-286.686 493.221,-281.029 482.69,-279.865 484.263,-286.686"/>
</a>
</g>
</g>
</svg>
