<?xml version="1.0" encoding="UTF-8" standalone="no"?>
<!DOCTYPE svg PUBLIC "-//W3C//DTD SVG 1.1//EN"
 "http://www.w3.org/Graphics/SVG/1.1/DTD/svg11.dtd">
<!-- Generated by graphviz version 2.28.0 (20110507.0327)
 -->
<!-- Title: MMT Pages: 1 -->
<svg width="361pt" height="368pt"
 viewBox="0.00 0.00 361.00 368.00" xmlns="http://www.w3.org/2000/svg" xmlns:xlink="http://www.w3.org/1999/xlink">
<g id="graph1" class="graph" transform="scale(1 1) rotate(0) translate(4 364)">
<title>MMT</title>
<polygon fill="white" stroke="white" points="-4,5 -4,-364 358,-364 358,5 -4,5"/>
<!-- http://latin.omdoc.org/logics/proof_theory?Forall -->
<g id="node2" class="node"><title>http://latin.omdoc.org/logics/proof_theory?Forall</title>
<a xlink:href="javascript:parent.navigate(&#39;http://latin.omdoc.org/logics/proof_theory?Forall&#39;)" xlink:title="theory http://latin.omdoc.org/logics/proof_theory?Forall">
<ellipse fill="gray" stroke="black" cx="31" cy="-268" rx="31.2735" ry="18"/>
<text text-anchor="middle" x="31" y="-264.3" font-family="Times New Roman,serif" font-size="14.00">Forall</text>
</a>
</g>
<!-- http://latin.omdoc.org/logics/model_theory?FOLMOD -->
<g id="node3" class="node"><title>http://latin.omdoc.org/logics/model_theory?FOLMOD</title>
<a xlink:href="javascript:parent.navigate(&#39;http://latin.omdoc.org/logics/model_theory?FOLMOD&#39;)" xlink:title="theory http://latin.omdoc.org/logics/model_theory?FOLMOD">
<ellipse fill="gray" stroke="black" cx="183" cy="-18" rx="49.0941" ry="18"/>
<text text-anchor="middle" x="183" y="-14.3" font-family="Times New Roman,serif" font-size="14.00">FOLMOD</text>
</a>
</g>
<!-- http://latin.omdoc.org/logics/proof_theory?Forall&#45;&gt;http://latin.omdoc.org/logics/model_theory?FOLMOD -->
<g id="edge3" class="edge"><title>http://latin.omdoc.org/logics/proof_theory?Forall&#45;&gt;http://latin.omdoc.org/logics/model_theory?FOLMOD</title>
<a xlink:href="javascript:parent.navigate(&#39;http://latin.omdoc.org/logics/soundness?Forall&#39;)" xlink:title="view http://latin.omdoc.org/logics/soundness?Forall">
<path fill="none" stroke="blue" stroke-dasharray="5,2" d="M27.4625,-249.939C23.3684,-216.268 18.6075,-140.52 49.1347,-87.4987 66.7763,-57.3797 101.627,-39.9604 131.464,-30.0072"/>
<path fill="none" stroke="blue" stroke-dasharray="5,2" d="M29.4479,-249.698C25.3644,-216.142 20.6036,-140.395 50.8653,-88.5013 67.6705,-59.1687 102.521,-41.7494 132.096,-31.9046"/>
<polygon fill="blue" stroke="blue" points="133.123,-34.2033 141.624,-27.8803 131.035,-27.5218 133.123,-34.2033"/>
</a>
<a xlink:href="javascript:parent.navigate(&#39;http://latin.omdoc.org/logics/soundness?Forall&#39;)" xlink:title="Forall">
<text text-anchor="middle" x="47.5" y="-146.3" font-family="Times New Roman,serif" font-size="14.00">Forall</text>
</a>
</g>
<!-- http://latin.omdoc.org/logics/proof_theory?IFOL -->
<g id="node11" class="node"><title>http://latin.omdoc.org/logics/proof_theory?IFOL</title>
<a xlink:href="javascript:parent.navigate(&#39;http://latin.omdoc.org/logics/proof_theory?IFOL&#39;)" xlink:title="theory http://latin.omdoc.org/logics/proof_theory?IFOL">
<ellipse fill="gray" stroke="black" cx="153" cy="-194" rx="31.2965" ry="18"/>
<text text-anchor="middle" x="153" y="-190.3" font-family="Times New Roman,serif" font-size="14.00">IFOL</text>
</a>
</g>
<!-- http://latin.omdoc.org/logics/proof_theory?Forall&#45;&gt;http://latin.omdoc.org/logics/proof_theory?IFOL -->
<g id="edge25" class="edge"><title>http://latin.omdoc.org/logics/proof_theory?Forall&#45;&gt;http://latin.omdoc.org/logics/proof_theory?IFOL</title>
<a xlink:title="include">
<path fill="none" stroke="black" d="M52.2508,-254.459C71.9315,-242.844 101.39,-225.459 123.376,-212.483"/>
<polygon fill="black" stroke="black" points="125.16,-215.495 131.993,-207.398 121.602,-209.466 125.16,-215.495"/>
</a>
</g>
<!-- http://latin.omdoc.org/logics/proof_theory?FOL -->
<g id="node5" class="node"><title>http://latin.omdoc.org/logics/proof_theory?FOL</title>
<a xlink:href="javascript:parent.navigate(&#39;http://latin.omdoc.org/logics/proof_theory?FOL&#39;)" xlink:title="theory http://latin.omdoc.org/logics/proof_theory?FOL">
<ellipse fill="gray" stroke="black" cx="88" cy="-106" rx="28.3955" ry="18"/>
<text text-anchor="middle" x="88" y="-102.3" font-family="Times New Roman,serif" font-size="14.00">FOL</text>
</a>
</g>
<!-- http://latin.omdoc.org/logics/proof_theory?FOL&#45;&gt;http://latin.omdoc.org/logics/model_theory?FOLMOD -->
<g id="edge5" class="edge"><title>http://latin.omdoc.org/logics/proof_theory?FOL&#45;&gt;http://latin.omdoc.org/logics/model_theory?FOLMOD</title>
<a xlink:href="javascript:parent.navigate(&#39;http://latin.omdoc.org/logics/soundness?FOL&#39;)" xlink:title="view http://latin.omdoc.org/logics/soundness?FOL">
<path fill="none" stroke="blue" stroke-dasharray="5,2" d="M91.4043,-87.824C94.9599,-76.8816 100.876,-63.0802 110.283,-53.3032 118.013,-45.3816 127.657,-39.0918 137.501,-34.0543"/>
<path fill="none" stroke="blue" stroke-dasharray="5,2" d="M93.3066,-88.4414C96.7981,-77.6695 102.714,-63.8681 111.717,-54.6968 119.106,-47.0568 128.749,-40.767 138.412,-35.8352"/>
<polygon fill="blue" stroke="blue" points="139.719,-37.9838 147.277,-30.5594 136.739,-31.6498 139.719,-37.9838"/>
</a>
<a xlink:href="javascript:parent.navigate(&#39;http://latin.omdoc.org/logics/soundness?FOL&#39;)" xlink:title="FOL">
<text text-anchor="middle" x="125" y="-58.3" font-family="Times New Roman,serif" font-size="14.00">FOL</text>
</a>
</g>
<!-- http://latin.omdoc.org/logics/proof_theory?Exists -->
<g id="node7" class="node"><title>http://latin.omdoc.org/logics/proof_theory?Exists</title>
<a xlink:href="javascript:parent.navigate(&#39;http://latin.omdoc.org/logics/proof_theory?Exists&#39;)" xlink:title="theory http://latin.omdoc.org/logics/proof_theory?Exists">
<ellipse fill="gray" stroke="black" cx="202" cy="-268" rx="32.2457" ry="18"/>
<text text-anchor="middle" x="202" y="-264.3" font-family="Times New Roman,serif" font-size="14.00">Exists</text>
</a>
</g>
<!-- http://latin.omdoc.org/logics/proof_theory?Exists&#45;&gt;http://latin.omdoc.org/logics/model_theory?FOLMOD -->
<g id="edge7" class="edge"><title>http://latin.omdoc.org/logics/proof_theory?Exists&#45;&gt;http://latin.omdoc.org/logics/model_theory?FOLMOD</title>
<a xlink:href="javascript:parent.navigate(&#39;http://latin.omdoc.org/logics/soundness?Exists&#39;)" xlink:title="view http://latin.omdoc.org/logics/soundness?Exists">
<path fill="none" stroke="blue" stroke-dasharray="5,2" d="M201.909,-249.843C203.338,-217.905 205.262,-147.048 198.007,-88.122 196.301,-74.1995 192.904,-58.8726 189.689,-46.2626"/>
<path fill="none" stroke="blue" stroke-dasharray="5,2" d="M203.907,-249.932C205.338,-217.959 207.261,-147.102 199.993,-87.878 198.253,-73.7668 194.856,-58.4398 191.627,-45.7685"/>
<polygon fill="blue" stroke="blue" points="193.979,-44.8856 188.032,-36.1169 187.213,-46.68 193.979,-44.8856"/>
</a>
<a xlink:href="javascript:parent.navigate(&#39;http://latin.omdoc.org/logics/soundness?Exists&#39;)" xlink:title="Exists">
<text text-anchor="middle" x="221" y="-146.3" font-family="Times New Roman,serif" font-size="14.00">Exists</text>
</a>
</g>
<!-- http://latin.omdoc.org/logics/proof_theory?Exists&#45;&gt;http://latin.omdoc.org/logics/proof_theory?IFOL -->
<g id="edge23" class="edge"><title>http://latin.omdoc.org/logics/proof_theory?Exists&#45;&gt;http://latin.omdoc.org/logics/proof_theory?IFOL</title>
<a xlink:title="include">
<path fill="none" stroke="black" d="M191.125,-251.021C184.781,-241.699 176.651,-229.752 169.528,-219.287"/>
<polygon fill="black" stroke="black" points="172.364,-217.232 163.844,-210.934 166.577,-221.171 172.364,-217.232"/>
</a>
</g>
<!-- http://latin.omdoc.org/logics/proof_theory?BaseFOL -->
<g id="node9" class="node"><title>http://latin.omdoc.org/logics/proof_theory?BaseFOL</title>
<a xlink:href="javascript:parent.navigate(&#39;http://latin.omdoc.org/logics/proof_theory?BaseFOL&#39;)" xlink:title="theory http://latin.omdoc.org/logics/proof_theory?BaseFOL">
<ellipse fill="gray" stroke="black" cx="262" cy="-342" rx="46.2191" ry="18"/>
<text text-anchor="middle" x="262" y="-338.3" font-family="Times New Roman,serif" font-size="14.00">BaseFOL</text>
</a>
</g>
<!-- http://latin.omdoc.org/logics/proof_theory?BaseFOL&#45;&gt;http://latin.omdoc.org/logics/proof_theory?Forall -->
<g id="edge21" class="edge"><title>http://latin.omdoc.org/logics/proof_theory?BaseFOL&#45;&gt;http://latin.omdoc.org/logics/proof_theory?Forall</title>
<a xlink:title="include">
<path fill="none" stroke="black" d="M227.167,-330.143C184.253,-316.767 111.665,-294.142 67.8471,-280.485"/>
<polygon fill="black" stroke="black" points="68.7473,-277.099 58.1588,-277.465 66.6643,-283.782 68.7473,-277.099"/>
</a>
</g>
<!-- http://latin.omdoc.org/logics/proof_theory?BaseFOL&#45;&gt;http://latin.omdoc.org/logics/model_theory?FOLMOD -->
<g id="edge9" class="edge"><title>http://latin.omdoc.org/logics/proof_theory?BaseFOL&#45;&gt;http://latin.omdoc.org/logics/model_theory?FOLMOD</title>
<a xlink:href="javascript:parent.navigate(&#39;http://latin.omdoc.org/logics/soundness?BaseFOL&#39;)" xlink:title="view http://latin.omdoc.org/logics/soundness?BaseFOL">
<path fill="none" stroke="blue" stroke-dasharray="5,2" d="M261,-323.834C261,-309.247 261,-287.75 261,-269 261,-269 261,-269 261,-105 261.297,-77.6114 238.14,-54.7298 217.025,-39.757"/>
<path fill="none" stroke="blue" stroke-dasharray="5,2" d="M263,-323.834C263,-309.247 263,-287.75 263,-269 263,-269 263,-269 263,-105 262.703,-76.1888 239.546,-53.3072 218.183,-38.1261"/>
<polygon fill="blue" stroke="blue" points="219.556,-36.0366 209.306,-33.3561 215.647,-41.8436 219.556,-36.0366"/>
</a>
<a xlink:href="javascript:parent.navigate(&#39;http://latin.omdoc.org/logics/soundness?BaseFOL&#39;)" xlink:title="BaseFOL">
<text text-anchor="middle" x="289.5" y="-190.3" font-family="Times New Roman,serif" font-size="14.00">BaseFOL</text>
</a>
</g>
<!-- http://latin.omdoc.org/logics/proof_theory?BaseFOL&#45;&gt;http://latin.omdoc.org/logics/proof_theory?Exists -->
<g id="edge19" class="edge"><title>http://latin.omdoc.org/logics/proof_theory?BaseFOL&#45;&gt;http://latin.omdoc.org/logics/proof_theory?Exists</title>
<a xlink:title="include">
<path fill="none" stroke="black" d="M248.385,-324.662C240.528,-315.233 230.508,-303.209 221.792,-292.751"/>
<polygon fill="black" stroke="black" points="224.239,-290.22 215.149,-284.778 218.862,-294.701 224.239,-290.22"/>
</a>
</g>
<!-- http://latin.omdoc.org/logics/proof_theory?Equal -->
<g id="node13" class="node"><title>http://latin.omdoc.org/logics/proof_theory?Equal</title>
<a xlink:href="javascript:parent.navigate(&#39;http://latin.omdoc.org/logics/proof_theory?Equal&#39;)" xlink:title="theory http://latin.omdoc.org/logics/proof_theory?Equal">
<ellipse fill="gray" stroke="black" cx="321" cy="-106" rx="31.2965" ry="18"/>
<text text-anchor="middle" x="321" y="-102.3" font-family="Times New Roman,serif" font-size="14.00">Equal</text>
</a>
</g>
<!-- http://latin.omdoc.org/logics/proof_theory?BaseFOL&#45;&gt;http://latin.omdoc.org/logics/proof_theory?Equal -->
<g id="edge17" class="edge"><title>http://latin.omdoc.org/logics/proof_theory?BaseFOL&#45;&gt;http://latin.omdoc.org/logics/proof_theory?Equal</title>
<a xlink:title="include">
<path fill="none" stroke="black" d="M272.496,-324.3C286.79,-300.467 311.67,-254.832 321,-212 326.676,-185.944 325.865,-155.381 324.127,-133.97"/>
<polygon fill="black" stroke="black" points="327.608,-133.598 323.194,-123.967 320.638,-134.249 327.608,-133.598"/>
</a>
</g>
<!-- http://latin.omdoc.org/logics/proof_theory?IFOL&#45;&gt;http://latin.omdoc.org/logics/model_theory?FOLMOD -->
<g id="edge11" class="edge"><title>http://latin.omdoc.org/logics/proof_theory?IFOL&#45;&gt;http://latin.omdoc.org/logics/model_theory?FOLMOD</title>
<a xlink:href="javascript:parent.navigate(&#39;http://latin.omdoc.org/logics/soundness?IFOL&#39;)" xlink:title="view http://latin.omdoc.org/logics/soundness?IFOL">
<path fill="none" stroke="blue" stroke-dasharray="5,2" d="M153.787,-175.717C156.069,-154.849 160.404,-118.639 166.016,-87.8208 168.556,-73.8847 172.036,-58.5705 175.108,-45.8924"/>
<path fill="none" stroke="blue" stroke-dasharray="5,2" d="M155.775,-175.935C158.054,-155.087 162.389,-118.876 167.984,-88.1792 170.506,-74.3279 173.986,-59.0137 177.051,-46.3634"/>
<polygon fill="blue" stroke="blue" points="179.531,-46.7501 178.53,-36.2027 172.735,-45.0721 179.531,-46.7501"/>
</a>
<a xlink:href="javascript:parent.navigate(&#39;http://latin.omdoc.org/logics/soundness?IFOL&#39;)" xlink:title="IFOL">
<text text-anchor="middle" x="183" y="-102.3" font-family="Times New Roman,serif" font-size="14.00">IFOL</text>
</a>
</g>
<!-- http://latin.omdoc.org/logics/proof_theory?IFOL&#45;&gt;http://latin.omdoc.org/logics/proof_theory?FOL -->
<g id="edge15" class="edge"><title>http://latin.omdoc.org/logics/proof_theory?IFOL&#45;&gt;http://latin.omdoc.org/logics/proof_theory?FOL</title>
<a xlink:title="include">
<path fill="none" stroke="black" d="M141.078,-177.226C131.274,-164.255 117.226,-145.668 106.045,-130.875"/>
<polygon fill="black" stroke="black" points="108.668,-128.541 99.8464,-122.674 103.084,-132.762 108.668,-128.541"/>
</a>
</g>
<!-- http://latin.omdoc.org/logics/proof_theory?Equal&#45;&gt;http://latin.omdoc.org/logics/model_theory?FOLMOD -->
<g id="edge13" class="edge"><title>http://latin.omdoc.org/logics/proof_theory?Equal&#45;&gt;http://latin.omdoc.org/logics/model_theory?FOLMOD</title>
<a xlink:href="javascript:parent.navigate(&#39;http://latin.omdoc.org/logics/soundness?Equal&#39;)" xlink:title="view http://latin.omdoc.org/logics/soundness?Equal">
<path fill="none" stroke="blue" stroke-dasharray="5,2" d="M309.234,-89.4541C301.027,-78.4064 288.845,-64.0338 275.432,-54.8231 262.313,-45.7523 246.325,-38.6138 231.45,-33.2706"/>
<path fill="none" stroke="blue" stroke-dasharray="5,2" d="M310.839,-88.2612C302.553,-77.1132 290.37,-62.7406 276.568,-53.1769 263.128,-43.926 247.141,-36.7876 232.126,-31.3885"/>
<polygon fill="blue" stroke="blue" points="232.751,-28.9601 222.156,-29.0516 230.495,-35.5869 232.751,-28.9601"/>
</a>
<a xlink:href="javascript:parent.navigate(&#39;http://latin.omdoc.org/logics/soundness?Equal&#39;)" xlink:title="Equal">
<text text-anchor="middle" x="311" y="-58.3" font-family="Times New Roman,serif" font-size="14.00">Equal</text>
</a>
</g>
</g>
</svg>
