<?xml version="1.0" encoding="UTF-8" standalone="no"?>
<!DOCTYPE svg PUBLIC "-//W3C//DTD SVG 1.1//EN"
 "http://www.w3.org/Graphics/SVG/1.1/DTD/svg11.dtd">
<!-- Generated by graphviz version 2.28.0 (20110507.0327)
 -->
<!-- Title: MMT Pages: 1 -->
<svg width="804pt" height="294pt"
 viewBox="0.00 0.00 804.06 294.00" xmlns="http://www.w3.org/2000/svg" xmlns:xlink="http://www.w3.org/1999/xlink">
<g id="graph1" class="graph" transform="scale(1 1) rotate(0) translate(4 290)">
<title>MMT</title>
<polygon fill="white" stroke="white" points="-4,5 -4,-290 801.058,-290 801.058,5 -4,5"/>
<g id="graph2" class="cluster"><title>cluster_local</title>
<polygon fill="none" stroke="black" points="201.619,-168 201.619,-220 275.619,-220 275.619,-168 201.619,-168"/>
</g>
<!-- http://latin.omdoc.org/logics/syntax?MPL -->
<g id="node2" class="node"><title>http://latin.omdoc.org/logics/syntax?MPL</title>
<a xlink:href="javascript:parent.navigate(&#39;http://latin.omdoc.org/logics/syntax?MPL&#39;)" xlink:title="theory http://latin.omdoc.org/logics/syntax?MPL">
<ellipse fill="none" stroke="black" cx="238.619" cy="-194" rx="29.3722" ry="18"/>
<text text-anchor="middle" x="238.619" y="-190.3" font-family="Times New Roman,serif" font-size="14.00">MPL</text>
</a>
</g>
<!-- http://latin.omdoc.org/logics/syntax?PL -->
<g id="node3" class="node"><title>http://latin.omdoc.org/logics/syntax?PL</title>
<a xlink:href="javascript:parent.navigate(&#39;http://latin.omdoc.org/logics/syntax?PL&#39;)" xlink:title="theory http://latin.omdoc.org/logics/syntax?PL">
<ellipse fill="gray" stroke="black" cx="214.619" cy="-106" rx="27" ry="18"/>
<text text-anchor="middle" x="214.619" y="-102.3" font-family="Times New Roman,serif" font-size="14.00">PL</text>
</a>
</g>
<!-- http://latin.omdoc.org/logics/syntax?MPL&#45;&gt;http://latin.omdoc.org/logics/syntax?PL -->
<g id="edge3" class="edge"><title>http://latin.omdoc.org/logics/syntax?MPL&#45;&gt;http://latin.omdoc.org/logics/syntax?PL</title>
<a xlink:href="javascript:parent.navigate(&#39;http://latin.omdoc.org/logics/syntax?MPL-PL&#39;)" xlink:title="view http://latin.omdoc.org/logics/syntax?MPL&#45;PL">
<path fill="none" stroke="blue" stroke-dasharray="5,2" d="M224.984,-178.16C220.886,-172.307 216.906,-165.447 214.663,-158.296 212.317,-150.656 211.478,-142.303 211.365,-134.46"/>
<path fill="none" stroke="blue" stroke-dasharray="5,2" d="M226.622,-177.012C222.616,-171.303 218.636,-164.443 216.574,-157.704 214.307,-150.456 213.468,-142.103 213.365,-134.433"/>
<polygon fill="blue" stroke="blue" points="215.866,-134.459 212.602,-124.379 208.868,-134.294 215.866,-134.459"/>
</a>
<a xlink:href="javascript:parent.navigate(&#39;http://latin.omdoc.org/logics/syntax?MPL-PL&#39;)" xlink:title="MPL&#45;PL">
<text text-anchor="middle" x="240.619" y="-146.3" font-family="Times New Roman,serif" font-size="14.00">MPL&#45;PL</text>
</a>
</g>
<!-- http://latin.omdoc.org/translations/ml_fol?ML&#45;FOL -->
<g id="node5" class="node"><title>http://latin.omdoc.org/translations/ml_fol?ML&#45;FOL</title>
<a xlink:href="javascript:parent.navigate(&#39;http://latin.omdoc.org/translations/ml_fol?ML-FOL&#39;)" xlink:title="theory http://latin.omdoc.org/translations/ml_fol?ML&#45;FOL">
<ellipse fill="gray" stroke="black" cx="393.619" cy="-18" rx="44.2946" ry="18"/>
<text text-anchor="middle" x="393.619" y="-14.3" font-family="Times New Roman,serif" font-size="14.00">ML&#45;FOL</text>
</a>
</g>
<!-- http://latin.omdoc.org/logics/syntax?MPL&#45;&gt;http://latin.omdoc.org/translations/ml_fol?ML&#45;FOL -->
<g id="edge5" class="edge"><title>http://latin.omdoc.org/logics/syntax?MPL&#45;&gt;http://latin.omdoc.org/translations/ml_fol?ML&#45;FOL</title>
<a xlink:href="javascript:parent.navigate(&#39;http://latin.omdoc.org/translations/ml_fol?MPL&#39;)" xlink:title="view http://latin.omdoc.org/translations/ml_fol?MPL">
<path fill="none" stroke="blue" stroke-dasharray="5,2" d="M253.88,-177.962C259.094,-173.923 265.047,-169.921 271.203,-167.091 291.662,-158.334 299.063,-164.213 318.291,-157.055 351.166,-145.832 366.512,-149.73 386.838,-123.375 404.025,-102.273 402.809,-69.1386 399.002,-46.0529"/>
<path fill="none" stroke="blue" stroke-dasharray="5,2" d="M255.105,-179.542C260.21,-175.583 266.163,-171.58 272.035,-168.909 290.418,-159.9 297.818,-165.779 318.946,-158.945 350.674,-147.77 366.019,-151.668 388.4,-124.625 406.024,-102.2 404.808,-69.0652 400.975,-45.7281"/>
<polygon fill="blue" stroke="blue" points="403.414,-45.1705 398.107,-36.0005 396.537,-46.4784 403.414,-45.1705"/>
</a>
<a xlink:href="javascript:parent.navigate(&#39;http://latin.omdoc.org/translations/ml_fol?MPL&#39;)" xlink:title="MPL">
<text text-anchor="middle" x="416.119" y="-102.3" font-family="Times New Roman,serif" font-size="14.00">MPL</text>
</a>
</g>
<!-- http://latin.omdoc.org/logics/model_theory/kripke?Kripke -->
<g id="node7" class="node"><title>http://latin.omdoc.org/logics/model_theory/kripke?Kripke</title>
<a xlink:href="javascript:parent.navigate(&#39;http://latin.omdoc.org/logics/model_theory/kripke?Kripke&#39;)" xlink:title="theory http://latin.omdoc.org/logics/model_theory/kripke?Kripke">
<ellipse fill="gray" stroke="black" cx="81.6186" cy="-18" rx="35.1455" ry="18"/>
<text text-anchor="middle" x="81.6186" y="-14.3" font-family="Times New Roman,serif" font-size="14.00">Kripke</text>
</a>
</g>
<!-- http://latin.omdoc.org/logics/syntax?MPL&#45;&gt;http://latin.omdoc.org/logics/model_theory/kripke?Kripke -->
<g id="edge7" class="edge"><title>http://latin.omdoc.org/logics/syntax?MPL&#45;&gt;http://latin.omdoc.org/logics/model_theory/kripke?Kripke</title>
<a xlink:href="javascript:parent.navigate(&#39;http://latin.omdoc.org/logics/model_theory/kripke?MPL&#39;)" xlink:title="view http://latin.omdoc.org/logics/model_theory/kripke?MPL">
<path fill="none" stroke="blue" stroke-dasharray="5,2" d="M252.666,-177.644C257.466,-171.908 262.266,-164.847 264.672,-157.677 272.253,-136.231 254.256,-93.8919 249.849,-88.638 219.042,-51.2089 163.864,-33.8859 125.188,-26.1125"/>
<path fill="none" stroke="blue" stroke-dasharray="5,2" d="M254.201,-178.926C259.121,-173.033 263.92,-165.971 266.565,-158.323 274.093,-135.448 256.097,-93.1095 251.389,-87.362 219.641,-49.3007 164.463,-31.9778 125.583,-24.1517"/>
<polygon fill="blue" stroke="blue" points="125.885,-21.6649 115.411,-23.2615 124.595,-28.5449 125.885,-21.6649"/>
</a>
<a xlink:href="javascript:parent.navigate(&#39;http://latin.omdoc.org/logics/model_theory/kripke?MPL&#39;)" xlink:title="MPL">
<text text-anchor="middle" x="279.119" y="-102.3" font-family="Times New Roman,serif" font-size="14.00">MPL</text>
</a>
</g>
<!-- http://latin.omdoc.org/logics/proof_theory?MPL&#45;CPL -->
<g id="node9" class="node"><title>http://latin.omdoc.org/logics/proof_theory?MPL&#45;CPL</title>
<a xlink:href="javascript:parent.navigate(&#39;http://latin.omdoc.org/logics/proof_theory?MPL-CPL&#39;)" xlink:title="theory http://latin.omdoc.org/logics/proof_theory?MPL&#45;CPL">
<ellipse fill="gray" stroke="black" cx="582.619" cy="-106" rx="49.0941" ry="18"/>
<text text-anchor="middle" x="582.619" y="-102.3" font-family="Times New Roman,serif" font-size="14.00">MPL&#45;CPL</text>
</a>
</g>
<!-- http://latin.omdoc.org/logics/syntax?MPL&#45;&gt;http://latin.omdoc.org/logics/proof_theory?MPL&#45;CPL -->
<g id="edge9" class="edge"><title>http://latin.omdoc.org/logics/syntax?MPL&#45;&gt;http://latin.omdoc.org/logics/proof_theory?MPL&#45;CPL</title>
<a xlink:title="include">
<path fill="none" stroke="black" d="M253.917,-178.43C259.141,-174.313 265.275,-170.325 271.619,-168 310.067,-153.908 415.639,-166.86 455.619,-158 487.296,-150.98 521.314,-136.938 546.163,-125.363"/>
<polygon fill="black" stroke="black" points="547.681,-128.517 555.214,-121.067 544.679,-122.193 547.681,-128.517"/>
</a>
</g>
<!-- http://latin.omdoc.org/logics/model_theory/kripke?ML -->
<g id="node11" class="node"><title>http://latin.omdoc.org/logics/model_theory/kripke?ML</title>
<a xlink:href="javascript:parent.navigate(&#39;http://latin.omdoc.org/logics/model_theory/kripke?ML&#39;)" xlink:title="theory http://latin.omdoc.org/logics/model_theory/kripke?ML">
<ellipse fill="gray" stroke="black" cx="676.619" cy="-106" rx="27" ry="18"/>
<text text-anchor="middle" x="676.619" y="-102.3" font-family="Times New Roman,serif" font-size="14.00">ML</text>
</a>
</g>
<!-- http://latin.omdoc.org/logics/syntax?MPL&#45;&gt;http://latin.omdoc.org/logics/model_theory/kripke?ML -->
<g id="edge11" class="edge"><title>http://latin.omdoc.org/logics/syntax?MPL&#45;&gt;http://latin.omdoc.org/logics/model_theory/kripke?ML</title>
<a xlink:title="include">
<path fill="none" stroke="black" d="M253.904,-178.394C259.127,-174.275 265.264,-170.295 271.619,-168 318.275,-151.15 445.477,-164.765 494.619,-158 560.621,-148.914 577.697,-145.904 640.619,-124 642.528,-123.335 644.471,-122.601 646.415,-121.821"/>
<polygon fill="black" stroke="black" points="648.218,-124.853 655.993,-117.656 645.427,-118.434 648.218,-124.853"/>
</a>
</g>
<!-- http://latin.omdoc.org/translations/ml_fol?ML -->
<g id="node13" class="node"><title>http://latin.omdoc.org/translations/ml_fol?ML</title>
<a xlink:href="javascript:parent.navigate(&#39;http://latin.omdoc.org/translations/ml_fol?ML&#39;)" xlink:title="theory http://latin.omdoc.org/translations/ml_fol?ML">
<ellipse fill="gray" stroke="black" cx="488.619" cy="-106" rx="27" ry="18"/>
<text text-anchor="middle" x="488.619" y="-102.3" font-family="Times New Roman,serif" font-size="14.00">ML</text>
</a>
</g>
<!-- http://latin.omdoc.org/logics/syntax?MPL&#45;&gt;http://latin.omdoc.org/translations/ml_fol?ML -->
<g id="edge13" class="edge"><title>http://latin.omdoc.org/logics/syntax?MPL&#45;&gt;http://latin.omdoc.org/translations/ml_fol?ML</title>
<a xlink:title="include">
<path fill="none" stroke="black" d="M253.93,-178.465C259.154,-174.351 265.286,-170.355 271.619,-168 337.154,-143.633 363.793,-184.197 428.619,-158 443.918,-151.817 458.129,-140.127 468.876,-129.497"/>
<polygon fill="black" stroke="black" points="471.643,-131.67 476.056,-122.039 466.599,-126.816 471.643,-131.67"/>
</a>
</g>
<!-- http://latin.omdoc.org/logics/syntax?ML -->
<g id="node15" class="node"><title>http://latin.omdoc.org/logics/syntax?ML</title>
<a xlink:href="javascript:parent.navigate(&#39;http://latin.omdoc.org/logics/syntax?ML&#39;)" xlink:title="theory http://latin.omdoc.org/logics/syntax?ML">
<ellipse fill="gray" stroke="black" cx="351.619" cy="-106" rx="27" ry="18"/>
<text text-anchor="middle" x="351.619" y="-102.3" font-family="Times New Roman,serif" font-size="14.00">ML</text>
</a>
</g>
<!-- http://latin.omdoc.org/logics/syntax?MPL&#45;&gt;http://latin.omdoc.org/logics/syntax?ML -->
<g id="edge15" class="edge"><title>http://latin.omdoc.org/logics/syntax?MPL&#45;&gt;http://latin.omdoc.org/logics/syntax?ML</title>
<a xlink:title="include">
<path fill="none" stroke="black" d="M255.581,-179.015C260.588,-175.204 266.185,-171.238 271.619,-168 280.845,-162.501 284.599,-163.832 293.619,-158 306.54,-149.646 319.53,-138.534 329.933,-128.816"/>
<polygon fill="black" stroke="black" points="332.536,-131.168 337.338,-121.724 327.695,-126.112 332.536,-131.168"/>
</a>
</g>
<!-- http://latin.omdoc.org/logics/proof_theory?MPL -->
<g id="node17" class="node"><title>http://latin.omdoc.org/logics/proof_theory?MPL</title>
<a xlink:href="javascript:parent.navigate(&#39;http://latin.omdoc.org/logics/proof_theory?MPL&#39;)" xlink:title="theory http://latin.omdoc.org/logics/proof_theory?MPL">
<ellipse fill="gray" stroke="black" cx="750.619" cy="-106" rx="29.3722" ry="18"/>
<text text-anchor="middle" x="750.619" y="-102.3" font-family="Times New Roman,serif" font-size="14.00">MPL</text>
</a>
</g>
<!-- http://latin.omdoc.org/logics/syntax?MPL&#45;&gt;http://latin.omdoc.org/logics/proof_theory?MPL -->
<g id="edge17" class="edge"><title>http://latin.omdoc.org/logics/syntax?MPL&#45;&gt;http://latin.omdoc.org/logics/proof_theory?MPL</title>
<a xlink:title="include">
<path fill="none" stroke="black" d="M253.891,-178.358C259.113,-174.238 265.253,-170.266 271.619,-168 301.052,-157.524 521.611,-161.817 552.619,-158 624.773,-149.118 643.497,-146.525 712.619,-124 714.74,-123.309 716.903,-122.537 719.066,-121.714"/>
<polygon fill="black" stroke="black" points="720.503,-124.907 728.423,-117.871 717.843,-118.432 720.503,-124.907"/>
</a>
</g>
<!-- http://latin.omdoc.org/logics/syntax?PL&#45;&gt;http://latin.omdoc.org/logics/model_theory/kripke?Kripke -->
<g id="edge47" class="edge"><title>http://latin.omdoc.org/logics/syntax?PL&#45;&gt;http://latin.omdoc.org/logics/model_theory/kripke?Kripke</title>
<a xlink:href="javascript:parent.navigate(&#39;http://latin.omdoc.org/logics/model_theory/kripke?PL&#39;)" xlink:title="view http://latin.omdoc.org/logics/model_theory/kripke?PL">
<path fill="none" stroke="blue" stroke-dasharray="5,2" d="M195.302,-93.7004C173.268,-79.4528 136.459,-55.6515 110.594,-38.9267"/>
<path fill="none" stroke="blue" stroke-dasharray="5,2" d="M196.388,-92.021C174.354,-77.7734 137.545,-53.972 111.68,-37.2473"/>
<polygon fill="blue" stroke="blue" points="112.785,-34.9845 102.487,-32.4936 108.984,-40.8627 112.785,-34.9845"/>
</a>
<a xlink:href="javascript:parent.navigate(&#39;http://latin.omdoc.org/logics/model_theory/kripke?PL&#39;)" xlink:title="PL">
<text text-anchor="middle" x="169.119" y="-58.3" font-family="Times New Roman,serif" font-size="14.00">PL</text>
</a>
</g>
<!-- http://latin.omdoc.org/logics/syntax?ML&#45;&gt;http://latin.omdoc.org/translations/ml_fol?ML&#45;FOL -->
<g id="edge45" class="edge"><title>http://latin.omdoc.org/logics/syntax?ML&#45;&gt;http://latin.omdoc.org/translations/ml_fol?ML&#45;FOL</title>
<a xlink:href="javascript:parent.navigate(&#39;http://latin.omdoc.org/translations/ml_fol?ML&#39;)" xlink:title="view http://latin.omdoc.org/translations/ml_fol?ML">
<path fill="none" stroke="blue" stroke-dasharray="5,2" d="M358.818,-87.9795C364.822,-75.6855 373.123,-58.6876 380.009,-44.5892"/>
<path fill="none" stroke="blue" stroke-dasharray="5,2" d="M360.615,-88.8572C366.619,-76.5632 374.921,-59.5653 381.806,-45.4668"/>
<polygon fill="blue" stroke="blue" points="384.159,-46.3458 385.402,-35.8242 377.869,-43.2739 384.159,-46.3458"/>
</a>
<a xlink:href="javascript:parent.navigate(&#39;http://latin.omdoc.org/translations/ml_fol?ML&#39;)" xlink:title="ML">
<text text-anchor="middle" x="387.119" y="-58.3" font-family="Times New Roman,serif" font-size="14.00">ML</text>
</a>
</g>
<!-- http://latin.omdoc.org/logics/syntax?ML&#45;&gt;http://latin.omdoc.org/logics/model_theory/kripke?Kripke -->
<g id="edge43" class="edge"><title>http://latin.omdoc.org/logics/syntax?ML&#45;&gt;http://latin.omdoc.org/logics/model_theory/kripke?Kripke</title>
<a xlink:href="javascript:parent.navigate(&#39;http://latin.omdoc.org/logics/model_theory/kripke?ML&#39;)" xlink:title="view http://latin.omdoc.org/logics/model_theory/kripke?ML">
<path fill="none" stroke="blue" stroke-dasharray="5,2" d="M337.668,-90.6702C326.481,-78.9752 309.294,-63.2613 291.197,-54.9069 238.44,-30.3454 170.7,-22.7975 126.789,-20.6311"/>
<path fill="none" stroke="blue" stroke-dasharray="5,2" d="M339.113,-89.2875C327.83,-77.4992 310.644,-61.7853 292.04,-53.0931 238.661,-28.3577 170.921,-20.8098 126.887,-18.6335"/>
<polygon fill="blue" stroke="blue" points="126.879,-16.131 116.74,-19.2077 126.584,-23.1249 126.879,-16.131"/>
</a>
<a xlink:href="javascript:parent.navigate(&#39;http://latin.omdoc.org/logics/model_theory/kripke?ML&#39;)" xlink:title="ML">
<text text-anchor="middle" x="326.119" y="-58.3" font-family="Times New Roman,serif" font-size="14.00">ML</text>
</a>
</g>
<!-- http://latin.omdoc.org/logics/syntax?Logic -->
<g id="node19" class="node"><title>http://latin.omdoc.org/logics/syntax?Logic</title>
<a xlink:href="javascript:parent.navigate(&#39;http://latin.omdoc.org/logics/syntax?Logic&#39;)" xlink:title="theory http://latin.omdoc.org/logics/syntax?Logic">
<ellipse fill="gray" stroke="black" cx="83.6186" cy="-194" rx="31.2735" ry="18"/>
<text text-anchor="middle" x="83.6186" y="-190.3" font-family="Times New Roman,serif" font-size="14.00">Logic</text>
</a>
</g>
<!-- http://latin.omdoc.org/logics/syntax?Logic&#45;&gt;http://latin.omdoc.org/logics/syntax?MPL -->
<g id="edge19" class="edge"><title>http://latin.omdoc.org/logics/syntax?Logic&#45;&gt;http://latin.omdoc.org/logics/syntax?MPL</title>
<a xlink:title="include">
<path fill="none" stroke="black" d="M115.103,-194C143.034,-194 170.965,-194 198.897,-194"/>
<polygon fill="black" stroke="black" points="199.187,-197.5 209.187,-194 199.187,-190.5 199.187,-197.5"/>
</a>
</g>
<!-- http://latin.omdoc.org/logics/syntax?Logic&#45;&gt;http://latin.omdoc.org/logics/syntax?PL -->
<g id="edge41" class="edge"><title>http://latin.omdoc.org/logics/syntax?Logic&#45;&gt;http://latin.omdoc.org/logics/syntax?PL</title>
<a xlink:title="include">
<path fill="none" stroke="black" d="M97.7982,-177.826C108.548,-166.912 124.078,-152.353 139.619,-142 147.266,-136.906 165.992,-128.165 182.819,-120.694"/>
<polygon fill="black" stroke="black" points="184.662,-123.707 192.408,-116.479 181.845,-117.299 184.662,-123.707"/>
</a>
</g>
<!-- http://latin.omdoc.org/logics/syntax?Logic&#45;&gt;http://latin.omdoc.org/translations/ml_fol?ML&#45;FOL -->
<g id="edge35" class="edge"><title>http://latin.omdoc.org/logics/syntax?Logic&#45;&gt;http://latin.omdoc.org/translations/ml_fol?ML&#45;FOL</title>
<a xlink:href="javascript:parent.navigate(&#39;http://latin.omdoc.org/translations/ml_fol?Base&#39;)" xlink:title="view http://latin.omdoc.org/translations/ml_fol?Base">
<path fill="none" stroke="blue" stroke-dasharray="5,2" d="M91.4068,-175.963C105.555,-149.505 133.613,-99.5164 150.022,-87.1978 206.656,-45.1708 287.402,-28.6816 340.204,-22.186"/>
<path fill="none" stroke="blue" stroke-dasharray="5,2" d="M93.1705,-176.906C107.299,-150.484 135.357,-100.495 151.216,-88.8022 207.056,-47.1304 287.802,-30.6411 340.448,-24.1711"/>
<polygon fill="blue" stroke="blue" points="340.946,-26.6303 350.481,-22.0108 340.147,-19.6761 340.946,-26.6303"/>
</a>
<a xlink:href="javascript:parent.navigate(&#39;http://latin.omdoc.org/translations/ml_fol?Base&#39;)" xlink:title="Base">
<text text-anchor="middle" x="164.619" y="-102.3" font-family="Times New Roman,serif" font-size="14.00">Base</text>
</a>
</g>
<!-- http://latin.omdoc.org/logics/syntax?Logic&#45;&gt;http://latin.omdoc.org/logics/model_theory/kripke?Kripke -->
<g id="edge37" class="edge"><title>http://latin.omdoc.org/logics/syntax?Logic&#45;&gt;http://latin.omdoc.org/logics/model_theory/kripke?Kripke</title>
<a xlink:href="javascript:parent.navigate(&#39;http://latin.omdoc.org/logics/model_theory/kripke?Base&#39;)" xlink:title="view http://latin.omdoc.org/logics/model_theory/kripke?Base">
<path fill="none" stroke="blue" stroke-dasharray="5,2" d="M62.5103,-181.133C45.0596,-169.017 21.3724,-149.13 10.6988,-124.392 4.33891,-109.268 4.44266,-102.744 10.6961,-87.614 19.2504,-67.3674 36.4532,-50.2789 51.7987,-38.0198"/>
<path fill="none" stroke="blue" stroke-dasharray="5,2" d="M63.6506,-179.489C46.3457,-167.486 22.6584,-147.598 12.5384,-123.608 6.33866,-109.3 6.44241,-102.776 12.5411,-88.386 20.6599,-68.7863 37.8626,-51.6978 53.0466,-39.5828"/>
<polygon fill="blue" stroke="blue" points="54.7993,-41.3908 60.6351,-32.548 50.5586,-35.8215 54.7993,-41.3908"/>
</a>
<a xlink:href="javascript:parent.navigate(&#39;http://latin.omdoc.org/logics/model_theory/kripke?Base&#39;)" xlink:title="Base">
<text text-anchor="middle" x="25.6186" y="-102.3" font-family="Times New Roman,serif" font-size="14.00">Base</text>
</a>
</g>
<!-- http://latin.omdoc.org/logics/syntax?Logic&#45;&gt;http://latin.omdoc.org/logics/model_theory/kripke?Kripke -->
<g id="edge39" class="edge"><title>http://latin.omdoc.org/logics/syntax?Logic&#45;&gt;http://latin.omdoc.org/logics/model_theory/kripke?Kripke</title>
<a xlink:href="javascript:parent.navigate(&#39;http://latin.omdoc.org/logics/model_theory/kripke?BasePL&#39;)" xlink:title="view http://latin.omdoc.org/logics/model_theory/kripke?BasePL">
<path fill="none" stroke="blue" stroke-dasharray="5,2" d="M80.1077,-176.172C78.1687,-162.219 75.6557,-141.941 74.6203,-124.058 73.0964,-97.5412 75.2148,-67.4208 77.3461,-46.1979"/>
<path fill="none" stroke="blue" stroke-dasharray="5,2" d="M82.0886,-175.896C80.1535,-161.973 77.6405,-141.695 76.6169,-123.942 75.0915,-97.6815 77.2099,-67.5611 79.3361,-46.3978"/>
<polygon fill="blue" stroke="blue" points="81.8488,-46.4124 79.436,-36.096 74.8888,-45.6654 81.8488,-46.4124"/>
</a>
<a xlink:href="javascript:parent.navigate(&#39;http://latin.omdoc.org/logics/model_theory/kripke?BasePL&#39;)" xlink:title="BasePL">
<text text-anchor="middle" x="97.6186" y="-102.3" font-family="Times New Roman,serif" font-size="14.00">BasePL</text>
</a>
</g>
<!-- http://cds.omdoc.org/urtheories?LF -->
<g id="node21" class="node"><title>http://cds.omdoc.org/urtheories?LF</title>
<a xlink:href="javascript:parent.navigate(&#39;http://cds.omdoc.org/urtheories?LF&#39;)" xlink:title="theory http://cds.omdoc.org/urtheories?LF">
<ellipse fill="gray" stroke="black" cx="181.619" cy="-268" rx="27" ry="18"/>
<text text-anchor="middle" x="181.619" y="-264.3" font-family="Times New Roman,serif" font-size="14.00">LF</text>
</a>
</g>
<!-- http://cds.omdoc.org/urtheories?LF&#45;&gt;http://latin.omdoc.org/logics/syntax?MPL -->
<g id="edge21" class="edge"><title>http://cds.omdoc.org/urtheories?LF&#45;&gt;http://latin.omdoc.org/logics/syntax?MPL</title>
<a xlink:title="meta">
<path fill="none" stroke="green" d="M193.707,-251.731C201.311,-242.125 211.279,-229.534 219.893,-218.654"/>
<polygon fill="green" stroke="green" points="222.691,-220.758 226.154,-210.745 217.203,-216.413 222.691,-220.758"/>
</a>
</g>
<!-- http://cds.omdoc.org/urtheories?LF&#45;&gt;http://latin.omdoc.org/logics/syntax?PL -->
<g id="edge27" class="edge"><title>http://cds.omdoc.org/urtheories?LF&#45;&gt;http://latin.omdoc.org/logics/syntax?PL</title>
<a xlink:title="meta">
<path fill="none" stroke="green" d="M173.589,-250.657C171.167,-244.903 168.831,-238.298 167.619,-232 160.054,-192.722 149.669,-177.747 167.619,-142 171.406,-134.457 177.676,-128.126 184.42,-123.015"/>
<polygon fill="green" stroke="green" points="186.726,-125.682 193.067,-117.194 182.817,-119.876 186.726,-125.682"/>
</a>
</g>
<!-- http://cds.omdoc.org/urtheories?LF&#45;&gt;http://latin.omdoc.org/translations/ml_fol?ML&#45;FOL -->
<g id="edge25" class="edge"><title>http://cds.omdoc.org/urtheories?LF&#45;&gt;http://latin.omdoc.org/translations/ml_fol?ML&#45;FOL</title>
<a xlink:title="meta">
<path fill="none" stroke="green" d="M208.615,-265.142C317.04,-257.05 718.37,-220.838 788.619,-124 798.014,-111.049 798.913,-100.249 788.619,-88 745.727,-36.9669 545.931,-23.6734 448.007,-20.2144"/>
<polygon fill="green" stroke="green" points="447.832,-16.7067 437.721,-19.8741 447.6,-23.7029 447.832,-16.7067"/>
</a>
</g>
<!-- http://cds.omdoc.org/urtheories?LF&#45;&gt;http://latin.omdoc.org/logics/model_theory/kripke?Kripke -->
<g id="edge23" class="edge"><title>http://cds.omdoc.org/urtheories?LF&#45;&gt;http://latin.omdoc.org/logics/model_theory/kripke?Kripke</title>
<a xlink:title="meta">
<path fill="none" stroke="green" d="M154.954,-264.596C124.197,-260.48 73.8645,-249.431 42.6186,-220 9.09481,-188.424 12.4491,-169.199 3.6186,-124 -2.50069,-92.6787 -2.09652,-77.3864 19.6186,-54 26.8727,-46.1876 36.2765,-39.6665 45.558,-34.4534"/>
<polygon fill="green" stroke="green" points="47.4672,-37.4051 54.7146,-29.6769 44.2297,-31.1988 47.4672,-37.4051"/>
</a>
</g>
<!-- http://cds.omdoc.org/urtheories?LF&#45;&gt;http://latin.omdoc.org/logics/syntax?ML -->
<g id="edge33" class="edge"><title>http://cds.omdoc.org/urtheories?LF&#45;&gt;http://latin.omdoc.org/logics/syntax?ML</title>
<a xlink:title="meta">
<path fill="none" stroke="green" d="M179.482,-249.835C177.108,-222.036 177.198,-167.689 209.619,-142 240.908,-117.207 258.972,-134.007 297.619,-124 304.395,-122.245 311.58,-120.151 318.422,-118.042"/>
<polygon fill="green" stroke="green" points="319.633,-121.33 328.114,-114.98 317.524,-114.656 319.633,-121.33"/>
</a>
</g>
<!-- http://cds.omdoc.org/urtheories?LF&#45;&gt;http://latin.omdoc.org/logics/proof_theory?MPL -->
<g id="edge31" class="edge"><title>http://cds.omdoc.org/urtheories?LF&#45;&gt;http://latin.omdoc.org/logics/proof_theory?MPL</title>
<a xlink:title="meta">
<path fill="none" stroke="green" d="M207.209,-261.381C274.473,-246.434 461.61,-203.706 614.619,-158 658.792,-144.805 669.759,-140.985 712.619,-124 714.483,-123.261 716.39,-122.483 718.308,-121.682"/>
<polygon fill="green" stroke="green" points="720.048,-124.743 727.848,-117.572 717.279,-118.314 720.048,-124.743"/>
</a>
</g>
<!-- http://cds.omdoc.org/urtheories?LF&#45;&gt;http://latin.omdoc.org/logics/syntax?Logic -->
<g id="edge29" class="edge"><title>http://cds.omdoc.org/urtheories?LF&#45;&gt;http://latin.omdoc.org/logics/syntax?Logic</title>
<a xlink:title="meta">
<path fill="none" stroke="green" d="M162.578,-254.743C152.619,-248.192 140.308,-239.874 129.619,-232 122.772,-226.957 115.532,-221.296 108.872,-215.948"/>
<polygon fill="green" stroke="green" points="110.79,-212.996 100.82,-209.411 106.378,-218.431 110.79,-212.996"/>
</a>
</g>
</g>
</svg>
