<?xml version="1.0" encoding="UTF-8" standalone="no"?>
<!DOCTYPE svg PUBLIC "-//W3C//DTD SVG 1.1//EN"
 "http://www.w3.org/Graphics/SVG/1.1/DTD/svg11.dtd">
<!-- Generated by graphviz version 2.28.0 (20110507.0327)
 -->
<!-- Title: MMT Pages: 1 -->
<svg
 viewBox="0.00 0.00 249.00 204.00" xmlns="http://www.w3.org/2000/svg" xmlns:xlink="http://www.w3.org/1999/xlink">
<g id="graph1" class="graph" transform="scale(1 1) rotate(0) translate(4 200)">
<title>MMT</title>
<polygon fill="white" stroke="white" points="-4,5 -4,-200 246,-200 246,5 -4,5"/>
<g id="graph2" class="cluster"><title>cluster_local</title>
<polygon fill="none" stroke="black" points="8,-8 8,-60 132,-60 132,-8 8,-8"/>
</g>
<!-- http://latin.omdoc.org/logics/proof_theory?BaseSecOL -->
<g id="node2" class="node"><title>http://latin.omdoc.org/logics/proof_theory?BaseSecOL</title>
<a xlink:href="http://latin.omdoc.org/logics/proof_theory?BaseSecOL" class="graphtheory">
<ellipse fill="none" stroke="black" cx="70" cy="-34" rx="53.4184" ry="18"/>
<text text-anchor="middle" x="70" y="-30.3" font-family="Times New Roman,serif" font-size="14.00">BaseSecOL</text>
</a>
</g>
<!-- http://latin.omdoc.org/logics/proof_theory?BaseFOL -->
<g id="node3" class="node"><title>http://latin.omdoc.org/logics/proof_theory?BaseFOL</title>
<a xlink:href="http://latin.omdoc.org/logics/proof_theory?BaseFOL" class="graphtheory">
<ellipse fill="gray" stroke="black" cx="70" cy="-106" rx="46.2191" ry="18"/>
<text text-anchor="middle" x="70" y="-102.3" font-family="Times New Roman,serif" font-size="14.00">BaseFOL</text>
</a>
</g>
<!-- http://latin.omdoc.org/logics/proof_theory?BaseFOL&#45;&gt;http://latin.omdoc.org/logics/proof_theory?BaseSecOL -->
<g id="edge3" class="edge"><title>http://latin.omdoc.org/logics/proof_theory?BaseFOL&#45;&gt;http://latin.omdoc.org/logics/proof_theory?BaseSecOL</title>
<a class="graphinclude">
<path fill="none" stroke="black" d="M70,-87.6966C70,-79.9827 70,-70.7125 70,-62.1124"/>
<polygon fill="black" stroke="black" points="73.5001,-62.1043 70,-52.1043 66.5001,-62.1044 73.5001,-62.1043"/>
</a>
</g>
<!-- http://latin.omdoc.org/logics/syntax?BaseSecOL -->
<g id="node5" class="node"><title>http://latin.omdoc.org/logics/syntax?BaseSecOL</title>
<a xlink:href="http://latin.omdoc.org/logics/syntax?BaseSecOL" class="graphtheory">
<ellipse fill="gray" stroke="black" cx="188" cy="-106" rx="53.4184" ry="18"/>
<text text-anchor="middle" x="188" y="-102.3" font-family="Times New Roman,serif" font-size="14.00">BaseSecOL</text>
</a>
</g>
<!-- http://latin.omdoc.org/logics/syntax?BaseSecOL&#45;&gt;http://latin.omdoc.org/logics/proof_theory?BaseSecOL -->
<g id="edge5" class="edge"><title>http://latin.omdoc.org/logics/syntax?BaseSecOL&#45;&gt;http://latin.omdoc.org/logics/proof_theory?BaseSecOL</title>
<a class="graphinclude">
<path fill="none" stroke="black" d="M162.686,-89.9832C145.576,-79.8334 122.783,-66.3118 104.081,-55.2177"/>
<polygon fill="black" stroke="black" points="105.658,-52.0838 95.2721,-49.9919 102.087,-58.1042 105.658,-52.0838"/>
</a>
</g>
<!-- http://cds.omdoc.org/urtheories?LF -->
<g id="node7" class="node"><title>http://cds.omdoc.org/urtheories?LF</title>
<a xlink:href="http://cds.omdoc.org/urtheories?LF" class="graphtheory">
<ellipse fill="gray" stroke="black" cx="70" cy="-178" rx="27" ry="18"/>
<text text-anchor="middle" x="70" y="-174.3" font-family="Times New Roman,serif" font-size="14.00">LF</text>
</a>
</g>
<!-- http://cds.omdoc.org/urtheories?LF&#45;&gt;http://latin.omdoc.org/logics/proof_theory?BaseSecOL -->
<g id="edge7" class="edge"><title>http://cds.omdoc.org/urtheories?LF&#45;&gt;http://latin.omdoc.org/logics/proof_theory?BaseSecOL</title>
<a class="graphmeta">
<path fill="none" stroke="black" d="M51.1034,-164.94C38.2567,-155.538 22.3148,-141.207 15,-124 8.74047,-109.275 8.74047,-102.725 15,-88 20.0662,-76.0824 29.2707,-65.5447 38.7191,-57.0683"/>
<polygon fill="black" stroke="black" points="41.2063,-59.5508 46.6276,-50.448 36.713,-54.1832 41.2063,-59.5508"/>
</a>
</g>
<!-- http://cds.omdoc.org/urtheories?LF&#45;&gt;http://latin.omdoc.org/logics/proof_theory?BaseFOL -->
<g id="edge11" class="edge"><title>http://cds.omdoc.org/urtheories?LF&#45;&gt;http://latin.omdoc.org/logics/proof_theory?BaseFOL</title>
<a class="graphmeta">
<path fill="none" stroke="black" d="M70,-159.697C70,-151.983 70,-142.712 70,-134.112"/>
<polygon fill="black" stroke="black" points="73.5001,-134.104 70,-124.104 66.5001,-134.104 73.5001,-134.104"/>
</a>
</g>
<!-- http://cds.omdoc.org/urtheories?LF&#45;&gt;http://latin.omdoc.org/logics/syntax?BaseSecOL -->
<g id="edge9" class="edge"><title>http://cds.omdoc.org/urtheories?LF&#45;&gt;http://latin.omdoc.org/logics/syntax?BaseSecOL</title>
<a class="graphmeta">
<path fill="none" stroke="black" d="M89.4853,-165.441C107.012,-155.044 133.149,-139.539 154.098,-127.112"/>
<polygon fill="black" stroke="black" points="155.903,-130.11 162.718,-121.998 152.331,-124.09 155.903,-130.11"/>
</a>
</g>
</g>
</svg>
