<?xml version="1.0" encoding="UTF-8" standalone="no"?>
<!DOCTYPE svg PUBLIC "-//W3C//DTD SVG 1.1//EN"
 "http://www.w3.org/Graphics/SVG/1.1/DTD/svg11.dtd">
<!-- Generated by graphviz version 2.28.0 (20110507.0327)
 -->
<!-- Title: MMT Pages: 1 -->
<svg width="300pt" height="354pt"
 viewBox="0.00 0.00 299.83 354.00" xmlns="http://www.w3.org/2000/svg" xmlns:xlink="http://www.w3.org/1999/xlink">
<g id="graph1" class="graph" transform="scale(1 1) rotate(0) translate(4 350)">
<title>MMT</title>
<polygon fill="white" stroke="white" points="-4,5 -4,-350 296.833,-350 296.833,5 -4,5"/>
<g id="graph2" class="cluster"><title>cluster_local</title>
<polygon fill="none" stroke="black" points="56,-80 56,-206 208,-206 208,-80 56,-80"/>
</g>
<!-- http://latin.omdoc.org/logics/tptp?TFF&#45;Arithmetic -->
<g id="node2" class="node"><title>http://latin.omdoc.org/logics/tptp?TFF&#45;Arithmetic</title>
<a xlink:href="http://latin.omdoc.org/logics/tptp?TFF-Arithmetic" class="graphtheory">
<ellipse fill="none" stroke="black" cx="132" cy="-106" rx="67.3907" ry="18"/>
<text text-anchor="middle" x="132" y="-102.3" font-family="Times New Roman,serif" font-size="14.00">TFF&#45;Arithmetic</text>
</a>
</g>
<!-- http://latin.omdoc.org/logics/tptp?THF&#45;Arithmetic -->
<g id="node4" class="node"><title>http://latin.omdoc.org/logics/tptp?THF&#45;Arithmetic</title>
<a xlink:href="http://latin.omdoc.org/logics/tptp?THF-Arithmetic" class="graphtheory">
<ellipse fill="gray" stroke="black" cx="68" cy="-18" rx="68.3417" ry="18"/>
<text text-anchor="middle" x="68" y="-14.3" font-family="Times New Roman,serif" font-size="14.00">THF&#45;Arithmetic</text>
</a>
</g>
<!-- http://latin.omdoc.org/logics/tptp?TFF&#45;Arithmetic&#45;&gt;http://latin.omdoc.org/logics/tptp?THF&#45;Arithmetic -->
<g id="edge3" class="edge"><title>http://latin.omdoc.org/logics/tptp?TFF&#45;Arithmetic&#45;&gt;http://latin.omdoc.org/logics/tptp?THF&#45;Arithmetic</title>
<a xlink:href="http://latin.omdoc.org/logics/tptp?FirstToHigherArithmetic" class="graphview">
<path fill="none" stroke="black" d="M119.356,-88.0092C110.064,-75.5235 97.285,-58.3517 86.799,-44.2612"/>
<polygon fill="black" stroke="black" points="89.396,-41.8883 80.6181,-35.9555 83.7804,-46.0674 89.396,-41.8883"/>
</a>
<a xlink:href="http://latin.omdoc.org/logics/tptp?FirstToHigherArithmetic" class="FirstToHigherArithmetic">
<text text-anchor="middle" x="174.5" y="-58.3" font-family="Times New Roman,serif" font-size="14.00">FirstToHigherArithmetic</text>
</a>
</g>
<!-- http://latin.omdoc.org/logics/tptp?Arithmetic -->
<g id="node3" class="node"><title>http://latin.omdoc.org/logics/tptp?Arithmetic</title>
<a xlink:href="http://latin.omdoc.org/logics/tptp?Arithmetic" class="graphtheory">
<ellipse fill="none" stroke="black" cx="132" cy="-180" rx="48.1437" ry="18"/>
<text text-anchor="middle" x="132" y="-176.3" font-family="Times New Roman,serif" font-size="14.00">Arithmetic</text>
</a>
</g>
<!-- http://latin.omdoc.org/logics/tptp?Arithmetic&#45;&gt;http://latin.omdoc.org/logics/tptp?TFF&#45;Arithmetic -->
<g id="edge7" class="edge"><title>http://latin.omdoc.org/logics/tptp?Arithmetic&#45;&gt;http://latin.omdoc.org/logics/tptp?TFF&#45;Arithmetic</title>
<a class="graphinclude">
<path fill="none" stroke="black" d="M132,-161.937C132,-153.807 132,-143.876 132,-134.705"/>
<polygon fill="black" stroke="black" points="135.5,-134.441 132,-124.441 128.5,-134.441 135.5,-134.441"/>
</a>
</g>
<!-- http://latin.omdoc.org/logics/tptp?TFF -->
<g id="node6" class="node"><title>http://latin.omdoc.org/logics/tptp?TFF</title>
<a xlink:href="http://latin.omdoc.org/logics/tptp?TFF" class="graphtheory">
<ellipse fill="gray" stroke="black" cx="243" cy="-180" rx="26.949" ry="18"/>
<text text-anchor="middle" x="243" y="-176.3" font-family="Times New Roman,serif" font-size="14.00">TFF</text>
</a>
</g>
<!-- http://latin.omdoc.org/logics/tptp?TFF&#45;&gt;http://latin.omdoc.org/logics/tptp?TFF&#45;Arithmetic -->
<g id="edge5" class="edge"><title>http://latin.omdoc.org/logics/tptp?TFF&#45;&gt;http://latin.omdoc.org/logics/tptp?TFF&#45;Arithmetic</title>
<a class="graphinclude">
<path fill="none" stroke="black" d="M224.17,-166.786C207.972,-156.279 184.229,-140.878 164.898,-128.34"/>
<polygon fill="black" stroke="black" points="166.664,-125.313 156.37,-122.808 162.855,-131.186 166.664,-125.313"/>
</a>
</g>
<!-- http://cds.omdoc.org/urtheories?LF -->
<g id="node9" class="node"><title>http://cds.omdoc.org/urtheories?LF</title>
<a xlink:href="http://cds.omdoc.org/urtheories?LF" class="graphtheory">
<ellipse fill="gray" stroke="black" cx="132" cy="-328" rx="27" ry="18"/>
<text text-anchor="middle" x="132" y="-324.3" font-family="Times New Roman,serif" font-size="14.00">LF</text>
</a>
</g>
<!-- http://cds.omdoc.org/urtheories?LF&#45;&gt;http://latin.omdoc.org/logics/tptp?TFF&#45;Arithmetic -->
<g id="edge9" class="edge"><title>http://cds.omdoc.org/urtheories?LF&#45;&gt;http://latin.omdoc.org/logics/tptp?TFF&#45;Arithmetic</title>
<a class="graphmeta">
<path fill="none" stroke="black" d="M158.371,-323.442C187.525,-317.962 233.238,-304.441 255,-272 282.876,-230.445 307.517,-203.118 279,-162 261.705,-137.064 231.638,-123.415 203.184,-115.952"/>
<polygon fill="black" stroke="black" points="203.75,-112.488 193.21,-113.561 202.119,-119.296 203.75,-112.488"/>
</a>
</g>
<!-- http://cds.omdoc.org/urtheories?LF&#45;&gt;http://latin.omdoc.org/logics/tptp?Arithmetic -->
<g id="edge13" class="edge"><title>http://cds.omdoc.org/urtheories?LF&#45;&gt;http://latin.omdoc.org/logics/tptp?Arithmetic</title>
<a class="graphmeta">
<path fill="none" stroke="black" d="M132,-309.966C132,-285.045 132,-238.374 132,-208.537"/>
<polygon fill="black" stroke="black" points="135.5,-208.378 132,-198.378 128.5,-208.378 135.5,-208.378"/>
</a>
</g>
<!-- http://cds.omdoc.org/urtheories?LF&#45;&gt;http://latin.omdoc.org/logics/tptp?THF&#45;Arithmetic -->
<g id="edge19" class="edge"><title>http://cds.omdoc.org/urtheories?LF&#45;&gt;http://latin.omdoc.org/logics/tptp?THF&#45;Arithmetic</title>
<a class="graphmeta">
<path fill="none" stroke="black" d="M107.527,-320.323C79.0844,-310.9 36,-290.729 36,-255 36,-255 36,-255 36,-105 36,-83.9591 44.5179,-61.7376 52.7644,-45.1546"/>
<polygon fill="black" stroke="black" points="55.9719,-46.5746 57.522,-36.0938 49.7743,-43.3204 55.9719,-46.5746"/>
</a>
</g>
<!-- http://cds.omdoc.org/urtheories?LF&#45;&gt;http://latin.omdoc.org/logics/tptp?TFF -->
<g id="edge17" class="edge"><title>http://cds.omdoc.org/urtheories?LF&#45;&gt;http://latin.omdoc.org/logics/tptp?TFF</title>
<a class="graphmeta">
<path fill="none" stroke="black" d="M157.344,-321.126C181.932,-313.979 218.075,-299.326 236,-272 248.319,-253.219 249.142,-227.337 247.423,-207.975"/>
<polygon fill="black" stroke="black" points="250.892,-207.506 246.263,-197.976 243.939,-208.312 250.892,-207.506"/>
</a>
</g>
<!-- http://latin.omdoc.org/logics/tptp?Types -->
<g id="node11" class="node"><title>http://latin.omdoc.org/logics/tptp?Types</title>
<a xlink:href="http://latin.omdoc.org/logics/tptp?Types" class="graphtheory">
<ellipse fill="gray" stroke="black" cx="194" cy="-254" rx="33.1991" ry="18"/>
<text text-anchor="middle" x="194" y="-250.3" font-family="Times New Roman,serif" font-size="14.00">Types</text>
</a>
</g>
<!-- http://cds.omdoc.org/urtheories?LF&#45;&gt;http://latin.omdoc.org/logics/tptp?Types -->
<g id="edge21" class="edge"><title>http://cds.omdoc.org/urtheories?LF&#45;&gt;http://latin.omdoc.org/logics/tptp?Types</title>
<a class="graphmeta">
<path fill="none" stroke="black" d="M144.846,-312.082C153.238,-302.337 164.369,-289.41 173.916,-278.323"/>
<polygon fill="black" stroke="black" points="176.654,-280.508 180.527,-270.647 171.349,-275.94 176.654,-280.508"/>
</a>
</g>
<!-- http://latin.omdoc.org/logics/tptp?Types&#45;&gt;http://latin.omdoc.org/logics/tptp?Arithmetic -->
<g id="edge11" class="edge"><title>http://latin.omdoc.org/logics/tptp?Types&#45;&gt;http://latin.omdoc.org/logics/tptp?Arithmetic</title>
<a class="graphinclude">
<path fill="none" stroke="black" d="M180.547,-237.377C172.43,-227.951 161.92,-215.746 152.756,-205.104"/>
<polygon fill="black" stroke="black" points="155.25,-202.636 146.072,-197.342 149.945,-207.204 155.25,-202.636"/>
</a>
</g>
<!-- http://latin.omdoc.org/logics/tptp?Types&#45;&gt;http://latin.omdoc.org/logics/tptp?TFF -->
<g id="edge15" class="edge"><title>http://latin.omdoc.org/logics/tptp?Types&#45;&gt;http://latin.omdoc.org/logics/tptp?TFF</title>
<a class="graphinclude">
<path fill="none" stroke="black" d="M205.119,-236.662C211.472,-227.327 219.557,-215.447 226.625,-205.062"/>
<polygon fill="black" stroke="black" points="229.529,-207.015 232.262,-196.778 223.742,-203.076 229.529,-207.015"/>
</a>
</g>
</g>
</svg>
