<?xml version="1.0" encoding="UTF-8" standalone="no"?>
<!DOCTYPE svg PUBLIC "-//W3C//DTD SVG 1.1//EN"
 "http://www.w3.org/Graphics/SVG/1.1/DTD/svg11.dtd">
<!-- Generated by graphviz version 2.28.0 (20110507.0327)
 -->
<!-- Title: MMT Pages: 1 -->
<svg
 viewBox="0.00 0.00 617.00 206.00" xmlns="http://www.w3.org/2000/svg" xmlns:xlink="http://www.w3.org/1999/xlink">
<g id="graph1" class="graph" transform="scale(1 1) rotate(0) translate(4 202)">
<title>MMT</title>
<polygon fill="white" stroke="white" points="-4,5 -4,-202 614,-202 614,5 -4,5"/>
<g id="graph2" class="cluster"><title>cluster_local</title>
<polygon fill="none" stroke="black" points="132,-80 132,-132 260,-132 260,-80 132,-80"/>
</g>
<!-- http://latin.omdoc.org/logics/syntax/focused?Linear_SYN -->
<g id="node2" class="node"><title>http://latin.omdoc.org/logics/syntax/focused?Linear_SYN</title>
<a xlink:href="http://latin.omdoc.org/logics/syntax/focused?Linear_SYN" class="graphtheory">
<ellipse fill="none" stroke="black" cx="196" cy="-106" rx="55.3436" ry="18"/>
<text text-anchor="middle" x="196" y="-102.3" font-family="Times New Roman,serif" font-size="14.00">Linear_SYN</text>
</a>
</g>
<!-- http://latin.omdoc.org/logics/syntax/focused?Linear_MOD -->
<g id="node3" class="node"><title>http://latin.omdoc.org/logics/syntax/focused?Linear_MOD</title>
<a xlink:href="http://latin.omdoc.org/logics/syntax/focused?Linear_MOD" class="graphtheory">
<ellipse fill="gray" stroke="black" cx="59" cy="-18" rx="59.2173" ry="18"/>
<text text-anchor="middle" x="59" y="-14.3" font-family="Times New Roman,serif" font-size="14.00">Linear_MOD</text>
</a>
</g>
<!-- http://latin.omdoc.org/logics/syntax/focused?Linear_SYN&#45;&gt;http://latin.omdoc.org/logics/syntax/focused?Linear_MOD -->
<g id="edge3" class="edge"><title>http://latin.omdoc.org/logics/syntax/focused?Linear_SYN&#45;&gt;http://latin.omdoc.org/logics/syntax/focused?Linear_MOD</title>
<a xlink:href="http://latin.omdoc.org/logics/syntax/focused?Linear_model" class="graphview">
<path fill="none" stroke="black" d="M163.482,-91.3488C143.303,-82.7772 120.4,-72.8275 116,-70 104.012,-62.2966 92.0585,-52.0898 82.2171,-42.8321"/>
<polygon fill="black" stroke="black" points="84.4389,-40.1119 74.8169,-35.6771 79.5732,-45.1443 84.4389,-40.1119"/>
</a>
<a xlink:href="http://latin.omdoc.org/logics/syntax/focused?Linear_model" class="Linear_model">
<text text-anchor="middle" x="154.5" y="-58.3" font-family="Times New Roman,serif" font-size="14.00">Linear_model</text>
</a>
</g>
<!-- http://latin.omdoc.org/logics/syntax/focused?Sigma_model -->
<g id="node5" class="node"><title>http://latin.omdoc.org/logics/syntax/focused?Sigma_model</title>
<a xlink:href="http://latin.omdoc.org/logics/syntax/focused?Sigma_model" class="graphtheory">
<ellipse fill="gray" stroke="black" cx="197" cy="-18" rx="60.1672" ry="18"/>
<text text-anchor="middle" x="197" y="-14.3" font-family="Times New Roman,serif" font-size="14.00">Sigma_model</text>
</a>
</g>
<!-- http://latin.omdoc.org/logics/syntax/focused?Linear_SYN&#45;&gt;http://latin.omdoc.org/logics/syntax/focused?Sigma_model -->
<g id="edge5" class="edge"><title>http://latin.omdoc.org/logics/syntax/focused?Linear_SYN&#45;&gt;http://latin.omdoc.org/logics/syntax/focused?Sigma_model</title>
<a xlink:href="http://latin.omdoc.org/logics/syntax/focused?Sigma_model?[http://latin.omdoc.org/logics/syntax/focused?Linear_SYN]" class="graphstructure">
<path fill="none" stroke="black" d="M196.202,-87.5966C196.34,-75.7459 196.525,-59.8169 196.683,-46.2917"/>
<polygon fill="black" stroke="black" points="200.185,-46.1241 196.801,-36.084 193.185,-46.0426 200.185,-46.1241"/>
</a>
<a xlink:href="http://latin.omdoc.org/logics/syntax/focused?Sigma_model?[http://latin.omdoc.org/logics/syntax/focused?Linear_SYN]" class="[http://latin.omdoc.org/logics/syntax/focused?Linear_SYN]">
<text text-anchor="middle" x="362.5" y="-58.3" font-family="Times New Roman,serif" font-size="14.00">[http://latin.omdoc.org/logics/syntax/focused?Linear_SYN]</text>
</a>
</g>
<!-- http://latin.omdoc.org/logics/syntax/focused?Sigma_SYN -->
<g id="node7" class="node"><title>http://latin.omdoc.org/logics/syntax/focused?Sigma_SYN</title>
<a xlink:href="http://latin.omdoc.org/logics/syntax/focused?Sigma_SYN" class="graphtheory">
<ellipse fill="gray" stroke="black" cx="554" cy="-18" rx="55.3436" ry="18"/>
<text text-anchor="middle" x="554" y="-14.3" font-family="Times New Roman,serif" font-size="14.00">Sigma_SYN</text>
</a>
</g>
<!-- http://latin.omdoc.org/logics/syntax/focused?Linear_SYN&#45;&gt;http://latin.omdoc.org/logics/syntax/focused?Sigma_SYN -->
<g id="edge7" class="edge"><title>http://latin.omdoc.org/logics/syntax/focused?Linear_SYN&#45;&gt;http://latin.omdoc.org/logics/syntax/focused?Sigma_SYN</title>
<a class="graphinclude">
<path fill="none" stroke="black" d="M224.414,-90.4939C233.899,-86.3269 244.683,-82.293 255,-80 284.631,-73.4143 502.412,-86.328 528,-70 536.705,-64.4451 542.627,-54.9976 546.591,-45.7326"/>
<polygon fill="black" stroke="black" points="549.888,-46.908 550.048,-36.3143 543.316,-44.4962 549.888,-46.908"/>
</a>
</g>
<!-- http://cds.omdoc.org/urtheories?LF -->
<g id="node9" class="node"><title>http://cds.omdoc.org/urtheories?LF</title>
<a xlink:href="http://cds.omdoc.org/urtheories?LF" class="graphtheory">
<ellipse fill="gray" stroke="black" cx="196" cy="-180" rx="27" ry="18"/>
<text text-anchor="middle" x="196" y="-176.3" font-family="Times New Roman,serif" font-size="14.00">LF</text>
</a>
</g>
<!-- http://cds.omdoc.org/urtheories?LF&#45;&gt;http://latin.omdoc.org/logics/syntax/focused?Linear_SYN -->
<g id="edge9" class="edge"><title>http://cds.omdoc.org/urtheories?LF&#45;&gt;http://latin.omdoc.org/logics/syntax/focused?Linear_SYN</title>
<a class="graphmeta">
<path fill="none" stroke="black" d="M196,-161.937C196,-153.807 196,-143.876 196,-134.705"/>
<polygon fill="black" stroke="black" points="199.5,-134.441 196,-124.441 192.5,-134.441 199.5,-134.441"/>
</a>
</g>
<!-- http://cds.omdoc.org/urtheories?LF&#45;&gt;http://latin.omdoc.org/logics/syntax/focused?Linear_MOD -->
<g id="edge13" class="edge"><title>http://cds.omdoc.org/urtheories?LF&#45;&gt;http://latin.omdoc.org/logics/syntax/focused?Linear_MOD</title>
<a class="graphmeta">
<path fill="none" stroke="black" d="M175.575,-167.971C161.115,-159.472 141.898,-146.707 128,-132 103.331,-105.894 83.0699,-69.5572 71.0266,-45.2053"/>
<polygon fill="black" stroke="black" points="74.1747,-43.6757 66.6739,-36.1932 67.8714,-46.7201 74.1747,-43.6757"/>
</a>
</g>
<!-- http://cds.omdoc.org/urtheories?LF&#45;&gt;http://latin.omdoc.org/logics/syntax/focused?Sigma_SYN -->
<g id="edge11" class="edge"><title>http://cds.omdoc.org/urtheories?LF&#45;&gt;http://latin.omdoc.org/logics/syntax/focused?Sigma_SYN</title>
<a class="graphmeta">
<path fill="none" stroke="black" d="M223.041,-179.879C290.373,-180.441 466.064,-171.618 549,-70 554.3,-63.506 556.376,-54.884 556.883,-46.5799"/>
<polygon fill="black" stroke="black" points="560.382,-46.3906 556.811,-36.4156 553.382,-46.4402 560.382,-46.3906"/>
</a>
</g>
</g>
</svg>
