<?xml version="1.0" encoding="UTF-8" standalone="no"?>
<!DOCTYPE svg PUBLIC "-//W3C//DTD SVG 1.1//EN"
 "http://www.w3.org/Graphics/SVG/1.1/DTD/svg11.dtd">
<!-- Generated by graphviz version 2.28.0 (20110507.0327)
 -->
<!-- Title: MMT Pages: 1 -->
<svg
 viewBox="0.00 0.00 688.41 294.00" xmlns="http://www.w3.org/2000/svg" xmlns:xlink="http://www.w3.org/1999/xlink">
<g id="graph1" class="graph" transform="scale(1 1) rotate(0) translate(4 290)">
<title>MMT</title>
<polygon fill="white" stroke="white" points="-4,5 -4,-290 685.413,-290 685.413,5 -4,5"/>
<g id="graph2" class="cluster"><title>cluster_local</title>
<polygon fill="none" stroke="black" points="117,-80 117,-220 251,-220 251,-80 117,-80"/>
</g>
<!-- http://latin.omdoc.org/logics/syntax/focused?Linear_SYN -->
<g id="node2" class="node"><title>http://latin.omdoc.org/logics/syntax/focused?Linear_SYN</title>
<a xlink:href="http://latin.omdoc.org/logics/syntax/focused?Linear_SYN" class="graphtheory">
<ellipse fill="none" stroke="black" cx="183" cy="-194" rx="55.3436" ry="18"/>
<text text-anchor="middle" x="183" y="-190.3" font-family="Times New Roman,serif" font-size="14.00">Linear_SYN</text>
</a>
</g>
<!-- http://latin.omdoc.org/logics/syntax/focused?Linear_MOD -->
<g id="node3" class="node"><title>http://latin.omdoc.org/logics/syntax/focused?Linear_MOD</title>
<a xlink:href="http://latin.omdoc.org/logics/syntax/focused?Linear_MOD" class="graphtheory">
<ellipse fill="none" stroke="black" cx="184" cy="-106" rx="59.2173" ry="18"/>
<text text-anchor="middle" x="184" y="-102.3" font-family="Times New Roman,serif" font-size="14.00">Linear_MOD</text>
</a>
</g>
<!-- http://latin.omdoc.org/logics/syntax/focused?Linear_SYN&#45;&gt;http://latin.omdoc.org/logics/syntax/focused?Linear_MOD -->
<g id="edge3" class="edge"><title>http://latin.omdoc.org/logics/syntax/focused?Linear_SYN&#45;&gt;http://latin.omdoc.org/logics/syntax/focused?Linear_MOD</title>
<a xlink:href="http://latin.omdoc.org/logics/syntax/focused?Linear_model" class="graphview">
<path fill="none" stroke="black" d="M183.202,-175.597C183.34,-163.746 183.525,-147.817 183.683,-134.292"/>
<polygon fill="black" stroke="black" points="187.185,-134.124 183.801,-124.084 180.185,-134.043 187.185,-134.124"/>
</a>
<a xlink:href="http://latin.omdoc.org/logics/syntax/focused?Linear_model" class="Linear_model">
<text text-anchor="middle" x="222.5" y="-146.3" font-family="Times New Roman,serif" font-size="14.00">Linear_model</text>
</a>
</g>
<!-- http://latin.omdoc.org/logics/syntax/focused?Sigma_model -->
<g id="node5" class="node"><title>http://latin.omdoc.org/logics/syntax/focused?Sigma_model</title>
<a xlink:href="http://latin.omdoc.org/logics/syntax/focused?Sigma_model" class="graphtheory">
<ellipse fill="gray" stroke="black" cx="322" cy="-106" rx="60.1672" ry="18"/>
<text text-anchor="middle" x="322" y="-102.3" font-family="Times New Roman,serif" font-size="14.00">Sigma_model</text>
</a>
</g>
<!-- http://latin.omdoc.org/logics/syntax/focused?Linear_SYN&#45;&gt;http://latin.omdoc.org/logics/syntax/focused?Sigma_model -->
<g id="edge5" class="edge"><title>http://latin.omdoc.org/logics/syntax/focused?Linear_SYN&#45;&gt;http://latin.omdoc.org/logics/syntax/focused?Sigma_model</title>
<a xlink:href="http://latin.omdoc.org/logics/syntax/focused?Sigma_model?[http://latin.omdoc.org/logics/syntax/focused?Linear_SYN]" class="graphstructure">
<path fill="none" stroke="black" d="M210.023,-178.163C220.727,-172.113 233.065,-164.922 244,-158 254.521,-151.34 256.634,-148.9 267,-142 273.89,-137.414 281.331,-132.592 288.447,-128.044"/>
<polygon fill="black" stroke="black" points="290.658,-130.785 297.22,-122.466 286.903,-124.878 290.658,-130.785"/>
</a>
<a xlink:href="http://latin.omdoc.org/logics/syntax/focused?Sigma_model?[http://latin.omdoc.org/logics/syntax/focused?Linear_SYN]" class="[http://latin.omdoc.org/logics/syntax/focused?Linear_SYN]">
<text text-anchor="middle" x="432.5" y="-146.3" font-family="Times New Roman,serif" font-size="14.00">[http://latin.omdoc.org/logics/syntax/focused?Linear_SYN]</text>
</a>
</g>
<!-- http://latin.omdoc.org/logics/syntax/focused?Sigma_SYN -->
<g id="node7" class="node"><title>http://latin.omdoc.org/logics/syntax/focused?Sigma_SYN</title>
<a xlink:href="http://latin.omdoc.org/logics/syntax/focused?Sigma_SYN" class="graphtheory">
<ellipse fill="gray" stroke="black" cx="601" cy="-106" rx="55.3436" ry="18"/>
<text text-anchor="middle" x="601" y="-102.3" font-family="Times New Roman,serif" font-size="14.00">Sigma_SYN</text>
</a>
</g>
<!-- http://latin.omdoc.org/logics/syntax/focused?Linear_SYN&#45;&gt;http://latin.omdoc.org/logics/syntax/focused?Sigma_SYN -->
<g id="edge7" class="edge"><title>http://latin.omdoc.org/logics/syntax/focused?Linear_SYN&#45;&gt;http://latin.omdoc.org/logics/syntax/focused?Sigma_SYN</title>
<a class="graphinclude">
<path fill="none" stroke="black" d="M220.79,-180.723C227.778,-178.851 235.061,-177.159 242,-176 281.065,-169.474 569.879,-185.89 598,-158 604.246,-151.805 606.103,-142.754 606.033,-133.991"/>
<polygon fill="black" stroke="black" points="609.521,-133.704 605.215,-124.024 602.545,-134.277 609.521,-133.704"/>
</a>
</g>
<!-- http://latin.omdoc.org/logics/syntax/focused?Sigma_MOD -->
<g id="node11" class="node"><title>http://latin.omdoc.org/logics/syntax/focused?Sigma_MOD</title>
<a xlink:href="http://latin.omdoc.org/logics/syntax/focused?Sigma_MOD" class="graphtheory">
<ellipse fill="gray" stroke="black" cx="593" cy="-18" rx="59.2173" ry="18"/>
<text text-anchor="middle" x="593" y="-14.3" font-family="Times New Roman,serif" font-size="14.00">Sigma_MOD</text>
</a>
</g>
<!-- http://latin.omdoc.org/logics/syntax/focused?Linear_MOD&#45;&gt;http://latin.omdoc.org/logics/syntax/focused?Sigma_MOD -->
<g id="edge11" class="edge"><title>http://latin.omdoc.org/logics/syntax/focused?Linear_MOD&#45;&gt;http://latin.omdoc.org/logics/syntax/focused?Sigma_MOD</title>
<a class="graphinclude">
<path fill="none" stroke="black" d="M216.262,-90.7393C225.999,-86.8345 236.811,-82.8874 247,-80 343.347,-52.6976 458.42,-35.3258 528.575,-26.3763"/>
<polygon fill="black" stroke="black" points="529.107,-29.837 538.592,-25.1168 528.234,-22.8917 529.107,-29.837"/>
</a>
</g>
<!-- http://latin.omdoc.org/logics/syntax/focused?Sigma_SYN&#45;&gt;http://latin.omdoc.org/logics/syntax/focused?Sigma_MOD -->
<g id="edge23" class="edge"><title>http://latin.omdoc.org/logics/syntax/focused?Sigma_SYN&#45;&gt;http://latin.omdoc.org/logics/syntax/focused?Sigma_MOD</title>
<a xlink:href="http://latin.omdoc.org/logics/syntax/focused?Sigma_model" class="graphview">
<path fill="none" stroke="black" d="M596.97,-88.0045C595.79,-82.3142 594.644,-75.9139 594,-70 593.156,-62.2527 592.774,-53.8053 592.636,-46.0545"/>
<polygon fill="black" stroke="black" points="596.136,-46.0282 592.579,-36.0484 589.137,-46.0682 596.136,-46.0282"/>
</a>
<a xlink:href="http://latin.omdoc.org/logics/syntax/focused?Sigma_model" class="Sigma_model">
<text text-anchor="middle" x="632.5" y="-58.3" font-family="Times New Roman,serif" font-size="14.00">Sigma_model</text>
</a>
</g>
<!-- http://cds.omdoc.org/urtheories?LF -->
<g id="node9" class="node"><title>http://cds.omdoc.org/urtheories?LF</title>
<a xlink:href="http://cds.omdoc.org/urtheories?LF" class="graphtheory">
<ellipse fill="gray" stroke="black" cx="27" cy="-268" rx="27" ry="18"/>
<text text-anchor="middle" x="27" y="-264.3" font-family="Times New Roman,serif" font-size="14.00">LF</text>
</a>
</g>
<!-- http://cds.omdoc.org/urtheories?LF&#45;&gt;http://latin.omdoc.org/logics/syntax/focused?Linear_SYN -->
<g id="edge9" class="edge"><title>http://cds.omdoc.org/urtheories?LF&#45;&gt;http://latin.omdoc.org/logics/syntax/focused?Linear_SYN</title>
<a class="graphmeta">
<path fill="none" stroke="black" d="M48.6911,-256.989C73.0163,-245.762 112.986,-227.314 143.011,-213.457"/>
<polygon fill="black" stroke="black" points="144.764,-216.502 152.377,-209.134 141.831,-210.146 144.764,-216.502"/>
</a>
</g>
<!-- http://cds.omdoc.org/urtheories?LF&#45;&gt;http://latin.omdoc.org/logics/syntax/focused?Linear_MOD -->
<g id="edge15" class="edge"><title>http://cds.omdoc.org/urtheories?LF&#45;&gt;http://latin.omdoc.org/logics/syntax/focused?Linear_MOD</title>
<a class="graphmeta">
<path fill="none" stroke="black" d="M26.3254,-249.748C26.4401,-229.957 29.4512,-197.478 46,-176 66.784,-149.025 100.957,-131.826 130.097,-121.345"/>
<polygon fill="black" stroke="black" points="131.428,-124.589 139.759,-118.044 129.164,-117.965 131.428,-124.589"/>
</a>
</g>
<!-- http://cds.omdoc.org/urtheories?LF&#45;&gt;http://latin.omdoc.org/logics/syntax/focused?Sigma_SYN -->
<g id="edge19" class="edge"><title>http://cds.omdoc.org/urtheories?LF&#45;&gt;http://latin.omdoc.org/logics/syntax/focused?Sigma_SYN</title>
<a class="graphmeta">
<path fill="none" stroke="black" d="M53.9211,-266.36C159.341,-263.234 541.892,-245.906 615,-158 620.864,-150.949 620.021,-141.638 616.813,-132.902"/>
<polygon fill="black" stroke="black" points="619.974,-131.399 612.608,-123.784 613.617,-134.331 619.974,-131.399"/>
</a>
</g>
<!-- http://cds.omdoc.org/urtheories?LF&#45;&gt;http://latin.omdoc.org/logics/syntax/focused?Sigma_MOD -->
<g id="edge21" class="edge"><title>http://cds.omdoc.org/urtheories?LF&#45;&gt;http://latin.omdoc.org/logics/syntax/focused?Sigma_MOD</title>
<a class="graphmeta">
<path fill="none" stroke="black" d="M54.1493,-266.688C148.478,-265.277 461.229,-257.79 553,-220 613.622,-195.036 636.6,-183.091 665,-124 678.526,-95.8566 687.968,-80.2123 671,-54 665.435,-45.4028 657.203,-38.8974 648.146,-33.9807"/>
<polygon fill="black" stroke="black" points="649.417,-30.7094 638.883,-29.575 646.411,-37.0309 649.417,-30.7094"/>
</a>
</g>
<!-- http://latin.omdoc.org/logics/syntax/focused?FF -->
<g id="node13" class="node"><title>http://latin.omdoc.org/logics/syntax/focused?FF</title>
<a xlink:href="http://latin.omdoc.org/logics/syntax/focused?FF" class="graphtheory">
<ellipse fill="gray" stroke="black" cx="82" cy="-194" rx="27" ry="18"/>
<text text-anchor="middle" x="82" y="-190.3" font-family="Times New Roman,serif" font-size="14.00">FF</text>
</a>
</g>
<!-- http://cds.omdoc.org/urtheories?LF&#45;&gt;http://latin.omdoc.org/logics/syntax/focused?FF -->
<g id="edge17" class="edge"><title>http://cds.omdoc.org/urtheories?LF&#45;&gt;http://latin.omdoc.org/logics/syntax/focused?FF</title>
<a class="graphmeta">
<path fill="none" stroke="black" d="M38.6641,-251.731C46.1019,-241.994 55.8841,-229.188 64.2721,-218.207"/>
<polygon fill="black" stroke="black" points="67.0636,-220.319 70.3527,-210.247 61.5009,-216.069 67.0636,-220.319"/>
</a>
</g>
<!-- http://latin.omdoc.org/logics/syntax/focused?FF&#45;&gt;http://latin.omdoc.org/logics/syntax/focused?Linear_MOD -->
<g id="edge13" class="edge"><title>http://latin.omdoc.org/logics/syntax/focused?FF&#45;&gt;http://latin.omdoc.org/logics/syntax/focused?Linear_MOD</title>
<a class="graphinclude">
<path fill="none" stroke="black" d="M98.3881,-179.183C114.184,-165.865 138.367,-145.475 157.007,-129.759"/>
<polygon fill="black" stroke="black" points="159.483,-132.249 164.873,-123.127 154.971,-126.897 159.483,-132.249"/>
</a>
</g>
</g>
</svg>
