<?xml version="1.0" encoding="UTF-8" standalone="no"?>
<!DOCTYPE svg PUBLIC "-//W3C//DTD SVG 1.1//EN"
 "http://www.w3.org/Graphics/SVG/1.1/DTD/svg11.dtd">
<!-- Generated by graphviz version 2.28.0 (20110507.0327)
 -->
<!-- Title: MMT Pages: 1 -->
<svg width="287pt" height="280pt"
 viewBox="0.00 0.00 287.00 280.00" xmlns="http://www.w3.org/2000/svg" xmlns:xlink="http://www.w3.org/1999/xlink">
<g id="graph1" class="graph" transform="scale(1 1) rotate(0) translate(4 276)">
<title>MMT</title>
<polygon fill="white" stroke="white" points="-4,5 -4,-276 284,-276 284,5 -4,5"/>
<g id="graph2" class="cluster"><title>cluster_local</title>
<polygon fill="none" stroke="black" points="87,-66 87,-118 221,-118 221,-66 87,-66"/>
</g>
<!-- http://latin.omdoc.org/logics/syntax/focused?Linear_MOD -->
<g id="node2" class="node"><title>http://latin.omdoc.org/logics/syntax/focused?Linear_MOD</title>
<a xlink:href="http://latin.omdoc.org/logics/syntax/focused?Linear_MOD" class="graphtheory">
<ellipse fill="none" stroke="black" cx="154" cy="-92" rx="59.2173" ry="18"/>
<text text-anchor="middle" x="154" y="-88.3" font-family="Times New Roman,serif" font-size="14.00">Linear_MOD</text>
</a>
</g>
<!-- http://latin.omdoc.org/logics/syntax/focused?Sigma_MOD -->
<g id="node5" class="node"><title>http://latin.omdoc.org/logics/syntax/focused?Sigma_MOD</title>
<a xlink:href="http://latin.omdoc.org/logics/syntax/focused?Sigma_MOD" class="graphtheory">
<ellipse fill="gray" stroke="black" cx="219" cy="-18" rx="59.2173" ry="18"/>
<text text-anchor="middle" x="219" y="-14.3" font-family="Times New Roman,serif" font-size="14.00">Sigma_MOD</text>
</a>
</g>
<!-- http://latin.omdoc.org/logics/syntax/focused?Linear_MOD&#45;&gt;http://latin.omdoc.org/logics/syntax/focused?Sigma_MOD -->
<g id="edge5" class="edge"><title>http://latin.omdoc.org/logics/syntax/focused?Linear_MOD&#45;&gt;http://latin.omdoc.org/logics/syntax/focused?Sigma_MOD</title>
<a class="graphinclude">
<path fill="none" stroke="black" d="M169.076,-74.3008C177.444,-65.0317 188,-53.339 197.247,-43.0954"/>
<polygon fill="black" stroke="black" points="199.903,-45.3767 204.006,-35.6087 194.707,-40.686 199.903,-45.3767"/>
</a>
</g>
<!-- http://latin.omdoc.org/logics/syntax/focused?Linear_SYN -->
<g id="node3" class="node"><title>http://latin.omdoc.org/logics/syntax/focused?Linear_SYN</title>
<a xlink:href="http://latin.omdoc.org/logics/syntax/focused?Linear_SYN" class="graphtheory">
<ellipse fill="gray" stroke="black" cx="55" cy="-180" rx="55.3436" ry="18"/>
<text text-anchor="middle" x="55" y="-176.3" font-family="Times New Roman,serif" font-size="14.00">Linear_SYN</text>
</a>
</g>
<!-- http://latin.omdoc.org/logics/syntax/focused?Linear_SYN&#45;&gt;http://latin.omdoc.org/logics/syntax/focused?Linear_MOD -->
<g id="edge3" class="edge"><title>http://latin.omdoc.org/logics/syntax/focused?Linear_SYN&#45;&gt;http://latin.omdoc.org/logics/syntax/focused?Linear_MOD</title>
<a xlink:href="http://latin.omdoc.org/logics/syntax/focused?Linear_model" class="graphview">
<path fill="none" stroke="black" d="M48.8995,-161.882C46.2389,-151.192 45.0931,-137.672 52,-128 61.0588,-115.314 75.0148,-107.178 89.7241,-101.974"/>
<polygon fill="black" stroke="black" points="90.9389,-105.262 99.4552,-98.959 88.8673,-98.5752 90.9389,-105.262"/>
</a>
<a xlink:href="http://latin.omdoc.org/logics/syntax/focused?Linear_model" class="Linear_model">
<text text-anchor="middle" x="90.5" y="-132.3" font-family="Times New Roman,serif" font-size="14.00">Linear_model</text>
</a>
</g>
<!-- http://latin.omdoc.org/logics/syntax/focused?FF -->
<g id="node7" class="node"><title>http://latin.omdoc.org/logics/syntax/focused?FF</title>
<a xlink:href="http://latin.omdoc.org/logics/syntax/focused?FF" class="graphtheory">
<ellipse fill="gray" stroke="black" cx="198" cy="-180" rx="27" ry="18"/>
<text text-anchor="middle" x="198" y="-176.3" font-family="Times New Roman,serif" font-size="14.00">FF</text>
</a>
</g>
<!-- http://latin.omdoc.org/logics/syntax/focused?FF&#45;&gt;http://latin.omdoc.org/logics/syntax/focused?Linear_MOD -->
<g id="edge7" class="edge"><title>http://latin.omdoc.org/logics/syntax/focused?FF&#45;&gt;http://latin.omdoc.org/logics/syntax/focused?Linear_MOD</title>
<a class="graphinclude">
<path fill="none" stroke="black" d="M189.724,-162.824C183.454,-150.569 174.707,-133.473 167.438,-119.266"/>
<polygon fill="black" stroke="black" points="170.361,-117.294 162.691,-109.986 164.129,-120.483 170.361,-117.294"/>
</a>
</g>
<!-- http://cds.omdoc.org/urtheories?LF -->
<g id="node9" class="node"><title>http://cds.omdoc.org/urtheories?LF</title>
<a xlink:href="http://cds.omdoc.org/urtheories?LF" class="graphtheory">
<ellipse fill="gray" stroke="black" cx="163" cy="-254" rx="27" ry="18"/>
<text text-anchor="middle" x="163" y="-250.3" font-family="Times New Roman,serif" font-size="14.00">LF</text>
</a>
</g>
<!-- http://cds.omdoc.org/urtheories?LF&#45;&gt;http://latin.omdoc.org/logics/syntax/focused?Linear_MOD -->
<g id="edge9" class="edge"><title>http://cds.omdoc.org/urtheories?LF&#45;&gt;http://latin.omdoc.org/logics/syntax/focused?Linear_MOD</title>
<a class="graphmeta">
<path fill="none" stroke="black" d="M162.037,-235.877C160.481,-208.209 157.399,-153.435 155.537,-120.327"/>
<polygon fill="black" stroke="black" points="159.012,-119.787 154.956,-110 152.023,-120.181 159.012,-119.787"/>
</a>
</g>
<!-- http://cds.omdoc.org/urtheories?LF&#45;&gt;http://latin.omdoc.org/logics/syntax/focused?Linear_SYN -->
<g id="edge15" class="edge"><title>http://cds.omdoc.org/urtheories?LF&#45;&gt;http://latin.omdoc.org/logics/syntax/focused?Linear_SYN</title>
<a class="graphmeta">
<path fill="none" stroke="black" d="M144.188,-240.459C128.327,-229.885 105.294,-214.529 86.6076,-202.072"/>
<polygon fill="black" stroke="black" points="88.3644,-199.036 78.1024,-196.402 84.4815,-204.861 88.3644,-199.036"/>
</a>
</g>
<!-- http://cds.omdoc.org/urtheories?LF&#45;&gt;http://latin.omdoc.org/logics/syntax/focused?Sigma_MOD -->
<g id="edge13" class="edge"><title>http://cds.omdoc.org/urtheories?LF&#45;&gt;http://latin.omdoc.org/logics/syntax/focused?Sigma_MOD</title>
<a class="graphmeta">
<path fill="none" stroke="black" d="M184.823,-242.956C201.698,-233.865 223.841,-218.72 234,-198 258.282,-148.475 241.851,-81.9386 229.373,-45.5382"/>
<polygon fill="black" stroke="black" points="232.663,-44.3436 225.996,-36.1097 226.073,-46.7042 232.663,-44.3436"/>
</a>
</g>
<!-- http://cds.omdoc.org/urtheories?LF&#45;&gt;http://latin.omdoc.org/logics/syntax/focused?FF -->
<g id="edge11" class="edge"><title>http://cds.omdoc.org/urtheories?LF&#45;&gt;http://latin.omdoc.org/logics/syntax/focused?FF</title>
<a class="graphmeta">
<path fill="none" stroke="black" d="M170.942,-236.662C175.283,-227.733 180.755,-216.475 185.641,-206.424"/>
<polygon fill="black" stroke="black" points="188.865,-207.797 190.089,-197.273 182.57,-204.737 188.865,-207.797"/>
</a>
</g>
</g>
</svg>
