<?xml version="1.0" encoding="UTF-8" standalone="no"?>
<!DOCTYPE svg PUBLIC "-//W3C//DTD SVG 1.1//EN"
 "http://www.w3.org/Graphics/SVG/1.1/DTD/svg11.dtd">
<!-- Generated by graphviz version 2.28.0 (20110507.0327)
 -->
<!-- Title: MMT Pages: 1 -->
<svg
 viewBox="0.00 0.00 275.00 222.00" xmlns="http://www.w3.org/2000/svg" xmlns:xlink="http://www.w3.org/1999/xlink">
<g id="graph1" class="graph" transform="scale(1 1) rotate(0) translate(4 218)">
<title>MMT</title>
<polygon fill="white" stroke="white" points="-4,5 -4,-218 272,-218 272,5 -4,5"/>
<g id="graph2" class="cluster"><title>cluster_local</title>
<polygon fill="none" stroke="black" points="8,-8 8,-60 142,-60 142,-8 8,-8"/>
</g>
<!-- http://latin.omdoc.org/logics/syntax/focused?Sigma_MOD -->
<g id="node2" class="node"><title>http://latin.omdoc.org/logics/syntax/focused?Sigma_MOD</title>
<a xlink:href="http://latin.omdoc.org/logics/syntax/focused?Sigma_MOD" class="graphtheory">
<ellipse fill="none" stroke="black" cx="75" cy="-34" rx="59.2173" ry="18"/>
<text text-anchor="middle" x="75" y="-30.3" font-family="Times New Roman,serif" font-size="14.00">Sigma_MOD</text>
</a>
</g>
<!-- http://latin.omdoc.org/logics/syntax/focused?Sigma_SYN -->
<g id="node3" class="node"><title>http://latin.omdoc.org/logics/syntax/focused?Sigma_SYN</title>
<a xlink:href="http://latin.omdoc.org/logics/syntax/focused?Sigma_SYN" class="graphtheory">
<ellipse fill="gray" stroke="black" cx="75" cy="-122" rx="55.3436" ry="18"/>
<text text-anchor="middle" x="75" y="-118.3" font-family="Times New Roman,serif" font-size="14.00">Sigma_SYN</text>
</a>
</g>
<!-- http://latin.omdoc.org/logics/syntax/focused?Sigma_SYN&#45;&gt;http://latin.omdoc.org/logics/syntax/focused?Sigma_MOD -->
<g id="edge3" class="edge"><title>http://latin.omdoc.org/logics/syntax/focused?Sigma_SYN&#45;&gt;http://latin.omdoc.org/logics/syntax/focused?Sigma_MOD</title>
<a xlink:href="http://latin.omdoc.org/logics/syntax/focused?Sigma_model" class="graphview">
<path fill="none" stroke="black" d="M75,-103.597C75,-91.7459 75,-75.8169 75,-62.2917"/>
<polygon fill="black" stroke="black" points="78.5001,-62.084 75,-52.084 71.5001,-62.084 78.5001,-62.084"/>
</a>
<a xlink:href="http://latin.omdoc.org/logics/syntax/focused?Sigma_model" class="Sigma_model">
<text text-anchor="middle" x="113.5" y="-74.3" font-family="Times New Roman,serif" font-size="14.00">Sigma_model</text>
</a>
</g>
<!-- http://latin.omdoc.org/logics/syntax/focused?Linear_MOD -->
<g id="node5" class="node"><title>http://latin.omdoc.org/logics/syntax/focused?Linear_MOD</title>
<a xlink:href="http://latin.omdoc.org/logics/syntax/focused?Linear_MOD" class="graphtheory">
<ellipse fill="gray" stroke="black" cx="208" cy="-122" rx="59.2173" ry="18"/>
<text text-anchor="middle" x="208" y="-118.3" font-family="Times New Roman,serif" font-size="14.00">Linear_MOD</text>
</a>
</g>
<!-- http://latin.omdoc.org/logics/syntax/focused?Linear_MOD&#45;&gt;http://latin.omdoc.org/logics/syntax/focused?Sigma_MOD -->
<g id="edge5" class="edge"><title>http://latin.omdoc.org/logics/syntax/focused?Linear_MOD&#45;&gt;http://latin.omdoc.org/logics/syntax/focused?Sigma_MOD</title>
<a class="graphinclude">
<path fill="none" stroke="black" d="M193.843,-104.211C184.057,-93.3873 170.273,-79.5933 156,-70 145.67,-63.0567 133.738,-56.9951 122.261,-51.9551"/>
<polygon fill="black" stroke="black" points="123.347,-48.6152 112.773,-47.9647 120.634,-55.0678 123.347,-48.6152"/>
</a>
</g>
<!-- http://cds.omdoc.org/urtheories?LF -->
<g id="node7" class="node"><title>http://cds.omdoc.org/urtheories?LF</title>
<a xlink:href="http://cds.omdoc.org/urtheories?LF" class="graphtheory">
<ellipse fill="gray" stroke="black" cx="75" cy="-196" rx="27" ry="18"/>
<text text-anchor="middle" x="75" y="-192.3" font-family="Times New Roman,serif" font-size="14.00">LF</text>
</a>
</g>
<!-- http://cds.omdoc.org/urtheories?LF&#45;&gt;http://latin.omdoc.org/logics/syntax/focused?Sigma_MOD -->
<g id="edge7" class="edge"><title>http://cds.omdoc.org/urtheories?LF&#45;&gt;http://latin.omdoc.org/logics/syntax/focused?Sigma_MOD</title>
<a class="graphmeta">
<path fill="none" stroke="black" d="M54.34,-184.107C38.9454,-174.715 19.0807,-159.579 10,-140 3.26803,-125.485 4.0983,-118.872 10,-104 17.2058,-85.8421 31.7043,-69.688 45.1833,-57.5835"/>
<polygon fill="black" stroke="black" points="47.6213,-60.1037 52.9389,-50.94 43.0673,-54.7875 47.6213,-60.1037"/>
</a>
</g>
<!-- http://cds.omdoc.org/urtheories?LF&#45;&gt;http://latin.omdoc.org/logics/syntax/focused?Sigma_SYN -->
<g id="edge9" class="edge"><title>http://cds.omdoc.org/urtheories?LF&#45;&gt;http://latin.omdoc.org/logics/syntax/focused?Sigma_SYN</title>
<a class="graphmeta">
<path fill="none" stroke="black" d="M75,-177.937C75,-169.807 75,-159.876 75,-150.705"/>
<polygon fill="black" stroke="black" points="78.5001,-150.441 75,-140.441 71.5001,-150.441 78.5001,-150.441"/>
</a>
</g>
<!-- http://cds.omdoc.org/urtheories?LF&#45;&gt;http://latin.omdoc.org/logics/syntax/focused?Linear_MOD -->
<g id="edge11" class="edge"><title>http://cds.omdoc.org/urtheories?LF&#45;&gt;http://latin.omdoc.org/logics/syntax/focused?Linear_MOD</title>
<a class="graphmeta">
<path fill="none" stroke="black" d="M95.4898,-183.908C115.649,-172.995 146.872,-156.092 171.317,-142.859"/>
<polygon fill="black" stroke="black" points="173.188,-145.825 180.316,-137.987 169.856,-139.67 173.188,-145.825"/>
</a>
</g>
</g>
</svg>
