<?xml version="1.0" encoding="UTF-8" standalone="no"?>
<!DOCTYPE svg PUBLIC "-//W3C//DTD SVG 1.1//EN"
 "http://www.w3.org/Graphics/SVG/1.1/DTD/svg11.dtd">
<!-- Generated by graphviz version 2.28.0 (20110507.0327)
 -->
<!-- Title: MMT Pages: 1 -->
<svg width="735pt" height="546pt"
 viewBox="0.00 0.00 735.00 546.00" xmlns="http://www.w3.org/2000/svg" xmlns:xlink="http://www.w3.org/1999/xlink">
<g id="graph1" class="graph" transform="scale(1 1) rotate(0) translate(4 542)">
<title>MMT</title>
<polygon fill="white" stroke="white" points="-4,5 -4,-542 732,-542 732,5 -4,5"/>
<g id="graph2" class="cluster"><title>cluster_local</title>
<polygon fill="none" stroke="black" points="320,-8 320,-60 430,-60 430,-8 320,-8"/>
</g>
<!-- http://latin.omdoc.org/translations/fol_ifol?DN&#45;IFOL -->
<g id="node2" class="node"><title>http://latin.omdoc.org/translations/fol_ifol?DN&#45;IFOL</title>
<a xlink:href="http://latin.omdoc.org/translations/fol_ifol?DN-IFOL" class="graphtheory">
<ellipse fill="none" stroke="black" cx="375" cy="-34" rx="46.1964" ry="18"/>
<text text-anchor="middle" x="375" y="-30.3" font-family="Times New Roman,serif" font-size="14.00">DN&#45;IFOL</text>
</a>
</g>
<!-- http://latin.omdoc.org/logics/syntax?Forall -->
<g id="node3" class="node"><title>http://latin.omdoc.org/logics/syntax?Forall</title>
<a xlink:href="http://latin.omdoc.org/logics/syntax?Forall" class="graphtheory">
<ellipse fill="gray" stroke="black" cx="239" cy="-298" rx="31.2735" ry="18"/>
<text text-anchor="middle" x="239" y="-294.3" font-family="Times New Roman,serif" font-size="14.00">Forall</text>
</a>
</g>
<!-- http://latin.omdoc.org/logics/syntax?Forall&#45;&gt;http://latin.omdoc.org/translations/fol_ifol?DN&#45;IFOL -->
<g id="edge3" class="edge"><title>http://latin.omdoc.org/logics/syntax?Forall&#45;&gt;http://latin.omdoc.org/translations/fol_ifol?DN&#45;IFOL</title>
<a xlink:href="http://latin.omdoc.org/translations/fol_ifol?Forall" class="graphview">
<path fill="none" stroke="black" d="M235.57,-280.094C230.896,-253.262 224.734,-199.697 240,-158 257.412,-110.443 305.65,-74.348 339.47,-53.9253"/>
<polygon fill="black" stroke="black" points="341.304,-56.9073 348.159,-48.8288 337.762,-50.8694 341.304,-56.9073"/>
</a>
<a xlink:href="http://latin.omdoc.org/translations/fol_ifol?Forall" class="Forall">
<text text-anchor="middle" x="256.5" y="-162.3" font-family="Times New Roman,serif" font-size="14.00">Forall</text>
</a>
</g>
<!-- http://latin.omdoc.org/logics/proof_theory?Forall -->
<g id="node5" class="node"><title>http://latin.omdoc.org/logics/proof_theory?Forall</title>
<a xlink:href="http://latin.omdoc.org/logics/proof_theory?Forall" class="graphtheory">
<ellipse fill="gray" stroke="black" cx="425" cy="-210" rx="31.2735" ry="18"/>
<text text-anchor="middle" x="425" y="-206.3" font-family="Times New Roman,serif" font-size="14.00">Forall</text>
</a>
</g>
<!-- http://latin.omdoc.org/logics/syntax?Forall&#45;&gt;http://latin.omdoc.org/logics/proof_theory?Forall -->
<g id="edge65" class="edge"><title>http://latin.omdoc.org/logics/syntax?Forall&#45;&gt;http://latin.omdoc.org/logics/proof_theory?Forall</title>
<a class="graphinclude">
<path fill="none" stroke="black" d="M262.935,-285.933C295.72,-270.775 354.738,-243.487 391.785,-226.357"/>
<polygon fill="black" stroke="black" points="393.549,-229.398 401.156,-222.024 390.611,-223.044 393.549,-229.398"/>
</a>
</g>
<!-- http://latin.omdoc.org/logics/proof_theory?Forall&#45;&gt;http://latin.omdoc.org/translations/fol_ifol?DN&#45;IFOL -->
<g id="edge5" class="edge"><title>http://latin.omdoc.org/logics/proof_theory?Forall&#45;&gt;http://latin.omdoc.org/translations/fol_ifol?DN&#45;IFOL</title>
<a xlink:href="http://latin.omdoc.org/translations/fol_ifol?ForallPF" class="graphview">
<path fill="none" stroke="black" d="M420.692,-191.834C415.398,-170.985 406.006,-134.782 397,-104 392.877,-89.9075 387.937,-74.3136 383.784,-61.5208"/>
<polygon fill="black" stroke="black" points="387.088,-60.3609 380.653,-51.9439 380.434,-62.5364 387.088,-60.3609"/>
</a>
<a xlink:href="http://latin.omdoc.org/translations/fol_ifol?ForallPF" class="ForallPF">
<text text-anchor="middle" x="431.5" y="-118.3" font-family="Times New Roman,serif" font-size="14.00">ForallPF</text>
</a>
</g>
<!-- http://latin.omdoc.org/logics/proof_theory?IFOL -->
<g id="node19" class="node"><title>http://latin.omdoc.org/logics/proof_theory?IFOL</title>
<a xlink:href="http://latin.omdoc.org/logics/proof_theory?IFOL" class="graphtheory">
<ellipse fill="gray" stroke="black" cx="517" cy="-122" rx="31.2965" ry="18"/>
<text text-anchor="middle" x="517" y="-118.3" font-family="Times New Roman,serif" font-size="14.00">IFOL</text>
</a>
</g>
<!-- http://latin.omdoc.org/logics/proof_theory?Forall&#45;&gt;http://latin.omdoc.org/logics/proof_theory?IFOL -->
<g id="edge63" class="edge"><title>http://latin.omdoc.org/logics/proof_theory?Forall&#45;&gt;http://latin.omdoc.org/logics/proof_theory?IFOL</title>
<a class="graphinclude">
<path fill="none" stroke="black" d="M437.979,-193.124C446.828,-182.686 459.065,-168.978 471,-158 476.687,-152.769 483.114,-147.518 489.323,-142.733"/>
<polygon fill="black" stroke="black" points="491.67,-145.347 497.562,-136.542 487.465,-139.751 491.67,-145.347"/>
</a>
</g>
<!-- http://latin.omdoc.org/logics/proof_theory?IFOLExt -->
<g id="node7" class="node"><title>http://latin.omdoc.org/logics/proof_theory?IFOLExt</title>
<a xlink:href="http://latin.omdoc.org/logics/proof_theory?IFOLExt" class="graphtheory">
<ellipse fill="gray" stroke="black" cx="557" cy="-446" rx="43.319" ry="18"/>
<text text-anchor="middle" x="557" y="-442.3" font-family="Times New Roman,serif" font-size="14.00">IFOLExt</text>
</a>
</g>
<!-- http://latin.omdoc.org/logics/proof_theory?IFOLExt&#45;&gt;http://latin.omdoc.org/translations/fol_ifol?DN&#45;IFOL -->
<g id="edge7" class="edge"><title>http://latin.omdoc.org/logics/proof_theory?IFOLExt&#45;&gt;http://latin.omdoc.org/translations/fol_ifol?DN&#45;IFOL</title>
<a class="graphinclude">
<path fill="none" stroke="black" d="M564.075,-428.164C569.477,-413.778 576,-392.392 576,-373 576,-373 576,-373 576,-121 576,-57.7614 490.862,-40.41 431.405,-36.003"/>
<polygon fill="black" stroke="black" points="431.569,-32.5063 421.366,-35.3617 431.122,-39.4921 431.569,-32.5063"/>
</a>
</g>
<!-- http://latin.omdoc.org/logics/proof_theory?Exists -->
<g id="node9" class="node"><title>http://latin.omdoc.org/logics/proof_theory?Exists</title>
<a xlink:href="http://latin.omdoc.org/logics/proof_theory?Exists" class="graphtheory">
<ellipse fill="gray" stroke="black" cx="343" cy="-210" rx="32.2457" ry="18"/>
<text text-anchor="middle" x="343" y="-206.3" font-family="Times New Roman,serif" font-size="14.00">Exists</text>
</a>
</g>
<!-- http://latin.omdoc.org/logics/proof_theory?Exists&#45;&gt;http://latin.omdoc.org/translations/fol_ifol?DN&#45;IFOL -->
<g id="edge9" class="edge"><title>http://latin.omdoc.org/logics/proof_theory?Exists&#45;&gt;http://latin.omdoc.org/translations/fol_ifol?DN&#45;IFOL</title>
<a xlink:href="http://latin.omdoc.org/translations/fol_ifol?ExistsPF" class="graphview">
<path fill="none" stroke="black" d="M350.015,-192.202C352.045,-186.525 353.986,-180.083 355,-174 356.169,-166.986 356.634,-164.921 355,-158 352.945,-149.295 348.055,-148.705 346,-140 342.324,-124.428 342.838,-119.684 346,-104 349.008,-89.0787 355.335,-73.3656 361.314,-60.7095"/>
<polygon fill="black" stroke="black" points="364.478,-62.2082 365.758,-51.691 358.198,-59.1143 364.478,-62.2082"/>
</a>
<a xlink:href="http://latin.omdoc.org/translations/fol_ifol?ExistsPF" class="ExistsPF">
<text text-anchor="middle" x="371.5" y="-118.3" font-family="Times New Roman,serif" font-size="14.00">ExistsPF</text>
</a>
</g>
<!-- http://latin.omdoc.org/logics/proof_theory?Exists&#45;&gt;http://latin.omdoc.org/logics/proof_theory?IFOL -->
<g id="edge61" class="edge"><title>http://latin.omdoc.org/logics/proof_theory?Exists&#45;&gt;http://latin.omdoc.org/logics/proof_theory?IFOL</title>
<a class="graphinclude">
<path fill="none" stroke="black" d="M366.466,-197.402C397.076,-182.273 450.757,-155.741 485.056,-138.788"/>
<polygon fill="black" stroke="black" points="486.767,-141.847 494.181,-134.278 483.666,-135.571 486.767,-141.847"/>
</a>
</g>
<!-- http://latin.omdoc.org/logics/syntax?Exists -->
<g id="node11" class="node"><title>http://latin.omdoc.org/logics/syntax?Exists</title>
<a xlink:href="http://latin.omdoc.org/logics/syntax?Exists" class="graphtheory">
<ellipse fill="gray" stroke="black" cx="157" cy="-298" rx="32.2457" ry="18"/>
<text text-anchor="middle" x="157" y="-294.3" font-family="Times New Roman,serif" font-size="14.00">Exists</text>
</a>
</g>
<!-- http://latin.omdoc.org/logics/syntax?Exists&#45;&gt;http://latin.omdoc.org/translations/fol_ifol?DN&#45;IFOL -->
<g id="edge11" class="edge"><title>http://latin.omdoc.org/logics/syntax?Exists&#45;&gt;http://latin.omdoc.org/translations/fol_ifol?DN&#45;IFOL</title>
<a xlink:href="http://latin.omdoc.org/translations/fol_ifol?Exists" class="graphview">
<path fill="none" stroke="black" d="M159.624,-279.832C164.3,-252.641 175.744,-198.593 198,-158 225.513,-107.819 242.129,-98.0703 292,-70 304.831,-62.7782 319.45,-56.1344 332.807,-50.6203"/>
<polygon fill="black" stroke="black" points="334.296,-53.7937 342.266,-46.8127 331.682,-47.3001 334.296,-53.7937"/>
</a>
<a xlink:href="http://latin.omdoc.org/translations/fol_ifol?Exists" class="Exists">
<text text-anchor="middle" x="215" y="-162.3" font-family="Times New Roman,serif" font-size="14.00">Exists</text>
</a>
</g>
<!-- http://latin.omdoc.org/logics/syntax?Exists&#45;&gt;http://latin.omdoc.org/logics/proof_theory?Exists -->
<g id="edge59" class="edge"><title>http://latin.omdoc.org/logics/syntax?Exists&#45;&gt;http://latin.omdoc.org/logics/proof_theory?Exists</title>
<a class="graphinclude">
<path fill="none" stroke="black" d="M180.935,-285.933C213.63,-270.816 272.414,-243.637 309.48,-226.499"/>
<polygon fill="black" stroke="black" points="311.254,-229.534 318.862,-222.161 308.316,-223.181 311.254,-229.534"/>
</a>
</g>
<!-- http://latin.omdoc.org/logics/syntax?UniverseLogic -->
<g id="node13" class="node"><title>http://latin.omdoc.org/logics/syntax?UniverseLogic</title>
<a xlink:href="http://latin.omdoc.org/logics/syntax?UniverseLogic" class="graphtheory">
<ellipse fill="gray" stroke="black" cx="221" cy="-372" rx="63.5411" ry="18"/>
<text text-anchor="middle" x="221" y="-368.3" font-family="Times New Roman,serif" font-size="14.00">UniverseLogic</text>
</a>
</g>
<!-- http://latin.omdoc.org/logics/syntax?UniverseLogic&#45;&gt;http://latin.omdoc.org/translations/fol_ifol?DN&#45;IFOL -->
<g id="edge13" class="edge"><title>http://latin.omdoc.org/logics/syntax?UniverseLogic&#45;&gt;http://latin.omdoc.org/translations/fol_ifol?DN&#45;IFOL</title>
<a xlink:href="http://latin.omdoc.org/translations/fol_ifol?UniverseLogic" class="graphview">
<path fill="none" stroke="black" d="M180.321,-358.088C158.57,-349.322 132.87,-335.69 116,-316 97.5542,-294.471 73.2357,-217.315 86,-192 131.82,-101.128 253.926,-60.688 323.882,-44.5045"/>
<polygon fill="black" stroke="black" points="324.812,-47.8832 333.81,-42.2897 323.288,-41.0511 324.812,-47.8832"/>
</a>
<a xlink:href="http://latin.omdoc.org/translations/fol_ifol?UniverseLogic" class="UniverseLogic">
<text text-anchor="middle" x="127" y="-206.3" font-family="Times New Roman,serif" font-size="14.00">UniverseLogic</text>
</a>
</g>
<!-- http://latin.omdoc.org/logics/syntax?UniverseLogic&#45;&gt;http://latin.omdoc.org/logics/syntax?Forall -->
<g id="edge53" class="edge"><title>http://latin.omdoc.org/logics/syntax?UniverseLogic&#45;&gt;http://latin.omdoc.org/logics/syntax?Forall</title>
<a class="graphinclude">
<path fill="none" stroke="black" d="M225.266,-353.937C227.373,-345.508 229.964,-335.143 232.326,-325.696"/>
<polygon fill="black" stroke="black" points="235.735,-326.491 234.765,-315.941 228.944,-324.793 235.735,-326.491"/>
</a>
</g>
<!-- http://latin.omdoc.org/logics/syntax?UniverseLogic&#45;&gt;http://latin.omdoc.org/logics/syntax?Exists -->
<g id="edge55" class="edge"><title>http://latin.omdoc.org/logics/syntax?UniverseLogic&#45;&gt;http://latin.omdoc.org/logics/syntax?Exists</title>
<a class="graphinclude">
<path fill="none" stroke="black" d="M206.156,-354.301C197.682,-344.767 186.928,-332.669 177.641,-322.221"/>
<polygon fill="black" stroke="black" points="180.147,-319.772 170.887,-314.623 174.915,-324.422 180.147,-319.772"/>
</a>
</g>
<!-- http://latin.omdoc.org/logics/proof_theory?BaseFOL -->
<g id="node17" class="node"><title>http://latin.omdoc.org/logics/proof_theory?BaseFOL</title>
<a xlink:href="http://latin.omdoc.org/logics/proof_theory?BaseFOL" class="graphtheory">
<ellipse fill="gray" stroke="black" cx="335" cy="-298" rx="46.2191" ry="18"/>
<text text-anchor="middle" x="335" y="-294.3" font-family="Times New Roman,serif" font-size="14.00">BaseFOL</text>
</a>
</g>
<!-- http://latin.omdoc.org/logics/syntax?UniverseLogic&#45;&gt;http://latin.omdoc.org/logics/proof_theory?BaseFOL -->
<g id="edge57" class="edge"><title>http://latin.omdoc.org/logics/syntax?UniverseLogic&#45;&gt;http://latin.omdoc.org/logics/proof_theory?BaseFOL</title>
<a class="graphinclude">
<path fill="none" stroke="black" d="M245.736,-355.377C262.619,-344.714 285.133,-330.495 303.326,-319.005"/>
<polygon fill="black" stroke="black" points="305.28,-321.91 311.866,-313.611 301.542,-315.992 305.28,-321.91"/>
</a>
</g>
<!-- http://latin.omdoc.org/math?Universe -->
<g id="node15" class="node"><title>http://latin.omdoc.org/math?Universe</title>
<a xlink:href="http://latin.omdoc.org/math?Universe" class="graphtheory">
<ellipse fill="gray" stroke="black" cx="42" cy="-446" rx="42.3701" ry="18"/>
<text text-anchor="middle" x="42" y="-442.3" font-family="Times New Roman,serif" font-size="14.00">Universe</text>
</a>
</g>
<!-- http://latin.omdoc.org/math?Universe&#45;&gt;http://latin.omdoc.org/translations/fol_ifol?DN&#45;IFOL -->
<g id="edge15" class="edge"><title>http://latin.omdoc.org/math?Universe&#45;&gt;http://latin.omdoc.org/translations/fol_ifol?DN&#45;IFOL</title>
<a xlink:href="http://latin.omdoc.org/translations/fol_ifol?Universe" class="graphview">
<path fill="none" stroke="black" d="M38.6487,-427.909C36.0899,-413.367 33,-391.896 33,-373 33,-373 33,-373 33,-121 33,-62.7412 222.014,-43.574 319.009,-37.5735"/>
<polygon fill="black" stroke="black" points="319.455,-41.0533 329.231,-36.9688 319.042,-34.0655 319.455,-41.0533"/>
</a>
<a xlink:href="http://latin.omdoc.org/translations/fol_ifol?Universe" class="Universe">
<text text-anchor="middle" x="57.5" y="-250.3" font-family="Times New Roman,serif" font-size="14.00">Universe</text>
</a>
</g>
<!-- http://latin.omdoc.org/math?Universe&#45;&gt;http://latin.omdoc.org/logics/syntax?UniverseLogic -->
<g id="edge51" class="edge"><title>http://latin.omdoc.org/math?Universe&#45;&gt;http://latin.omdoc.org/logics/syntax?UniverseLogic</title>
<a class="graphinclude">
<path fill="none" stroke="black" d="M71.5582,-433.111C100.117,-421.623 143.747,-404.074 176.504,-390.898"/>
<polygon fill="black" stroke="black" points="177.891,-394.113 185.862,-387.134 175.279,-387.618 177.891,-394.113"/>
</a>
</g>
<!-- http://latin.omdoc.org/logics/proof_theory?BaseFOL&#45;&gt;http://latin.omdoc.org/translations/fol_ifol?DN&#45;IFOL -->
<g id="edge17" class="edge"><title>http://latin.omdoc.org/logics/proof_theory?BaseFOL&#45;&gt;http://latin.omdoc.org/translations/fol_ifol?DN&#45;IFOL</title>
<a xlink:href="http://latin.omdoc.org/translations/fol_ifol?BaseFOLPF" class="graphview">
<path fill="none" stroke="black" d="M320.392,-280.503C299.358,-254.664 264.663,-202.948 280,-158 293.7,-117.85 326.406,-80.6221 349.604,-57.8714"/>
<polygon fill="black" stroke="black" points="352.263,-60.1713 357.066,-50.7276 347.422,-55.115 352.263,-60.1713"/>
</a>
<a xlink:href="http://latin.omdoc.org/translations/fol_ifol?BaseFOLPF" class="BaseFOLPF">
<text text-anchor="middle" x="315.5" y="-162.3" font-family="Times New Roman,serif" font-size="14.00">BaseFOLPF</text>
</a>
</g>
<!-- http://latin.omdoc.org/logics/proof_theory?BaseFOL&#45;&gt;http://latin.omdoc.org/logics/proof_theory?Forall -->
<g id="edge49" class="edge"><title>http://latin.omdoc.org/logics/proof_theory?BaseFOL&#45;&gt;http://latin.omdoc.org/logics/proof_theory?Forall</title>
<a class="graphinclude">
<path fill="none" stroke="black" d="M351.928,-280.824C366.106,-267.276 386.474,-247.814 402.106,-232.876"/>
<polygon fill="black" stroke="black" points="404.54,-235.392 409.352,-225.952 399.704,-230.331 404.54,-235.392"/>
</a>
</g>
<!-- http://latin.omdoc.org/logics/proof_theory?BaseFOL&#45;&gt;http://latin.omdoc.org/logics/proof_theory?Exists -->
<g id="edge47" class="edge"><title>http://latin.omdoc.org/logics/proof_theory?BaseFOL&#45;&gt;http://latin.omdoc.org/logics/proof_theory?Exists</title>
<a class="graphinclude">
<path fill="none" stroke="black" d="M336.581,-280.009C337.68,-268.19 339.17,-252.171 340.438,-238.542"/>
<polygon fill="black" stroke="black" points="343.954,-238.531 341.395,-228.25 336.984,-237.883 343.954,-238.531"/>
</a>
</g>
<!-- http://latin.omdoc.org/logics/proof_theory?IFOL&#45;&gt;http://latin.omdoc.org/translations/fol_ifol?DN&#45;IFOL -->
<g id="edge19" class="edge"><title>http://latin.omdoc.org/logics/proof_theory?IFOL&#45;&gt;http://latin.omdoc.org/translations/fol_ifol?DN&#45;IFOL</title>
<a xlink:href="http://latin.omdoc.org/translations/fol_ifol?IFOLPF" class="graphview">
<path fill="none" stroke="black" d="M504.85,-105.402C495.506,-94.2777 481.734,-79.6406 467,-70 453.276,-61.0197 436.911,-53.8535 421.814,-48.4034"/>
<polygon fill="black" stroke="black" points="422.712,-45.011 412.118,-45.0679 420.435,-51.6304 422.712,-45.011"/>
</a>
<a xlink:href="http://latin.omdoc.org/translations/fol_ifol?IFOLPF" class="IFOLPF">
<text text-anchor="middle" x="511.5" y="-74.3" font-family="Times New Roman,serif" font-size="14.00">IFOLPF</text>
</a>
</g>
<!-- http://latin.omdoc.org/logics/proof_theory?IFOL&#45;&gt;http://latin.omdoc.org/translations/fol_ifol?DN&#45;IFOL -->
<g id="edge21" class="edge"><title>http://latin.omdoc.org/logics/proof_theory?IFOL&#45;&gt;http://latin.omdoc.org/translations/fol_ifol?DN&#45;IFOL</title>
<a class="graphinclude">
<path fill="none" stroke="black" d="M496.297,-108.409C479.301,-98.0777 454.601,-83.075 433,-70 424.799,-65.0357 415.939,-59.6842 407.673,-54.6953"/>
<polygon fill="black" stroke="black" points="409.365,-51.6287 398.995,-49.4598 405.749,-57.6224 409.365,-51.6287"/>
</a>
</g>
<!-- http://latin.omdoc.org/translations/prop_iprop?DN&#45;IPL -->
<g id="node22" class="node"><title>http://latin.omdoc.org/translations/prop_iprop?DN&#45;IPL</title>
<a xlink:href="http://latin.omdoc.org/translations/prop_iprop?DN-IPL" class="graphtheory">
<ellipse fill="gray" stroke="black" cx="659" cy="-446" rx="39.9464" ry="18"/>
<text text-anchor="middle" x="659" y="-442.3" font-family="Times New Roman,serif" font-size="14.00">DN&#45;IPL</text>
</a>
</g>
<!-- http://latin.omdoc.org/translations/prop_iprop?DN&#45;IPL&#45;&gt;http://latin.omdoc.org/translations/fol_ifol?DN&#45;IFOL -->
<g id="edge23" class="edge"><title>http://latin.omdoc.org/translations/prop_iprop?DN&#45;IPL&#45;&gt;http://latin.omdoc.org/translations/fol_ifol?DN&#45;IFOL</title>
<a class="graphinclude">
<path fill="none" stroke="black" d="M650.808,-428.274C644.553,-413.955 637,-392.606 637,-373 637,-373 637,-373 637,-121 637,-83.9295 604.889,-85.0244 571,-70 526.378,-50.2177 471.349,-41.61 430.969,-37.8681"/>
<polygon fill="black" stroke="black" points="431.036,-34.3611 420.774,-36.9974 430.44,-41.3358 431.036,-34.3611"/>
</a>
</g>
<!-- http://cds.omdoc.org/urtheories?LF -->
<g id="node24" class="node"><title>http://cds.omdoc.org/urtheories?LF</title>
<a xlink:href="http://cds.omdoc.org/urtheories?LF" class="graphtheory">
<ellipse fill="gray" stroke="black" cx="409" cy="-520" rx="27" ry="18"/>
<text text-anchor="middle" x="409" y="-516.3" font-family="Times New Roman,serif" font-size="14.00">LF</text>
</a>
</g>
<!-- http://cds.omdoc.org/urtheories?LF&#45;&gt;http://latin.omdoc.org/translations/fol_ifol?DN&#45;IFOL -->
<g id="edge25" class="edge"><title>http://cds.omdoc.org/urtheories?LF&#45;&gt;http://latin.omdoc.org/translations/fol_ifol?DN&#45;IFOL</title>
<a class="graphmeta">
<path fill="none" stroke="black" d="M436.113,-518.618C513.014,-516.81 727,-506.436 727,-447 727,-447 727,-447 727,-121 727,-60.8492 530.58,-42.5749 431.192,-37.1783"/>
<polygon fill="black" stroke="black" points="431.185,-33.6734 421.018,-36.6525 430.824,-40.6641 431.185,-33.6734"/>
</a>
</g>
<!-- http://cds.omdoc.org/urtheories?LF&#45;&gt;http://latin.omdoc.org/logics/syntax?Forall -->
<g id="edge27" class="edge"><title>http://cds.omdoc.org/urtheories?LF&#45;&gt;http://latin.omdoc.org/logics/syntax?Forall</title>
<a class="graphmeta">
<path fill="none" stroke="black" d="M398.357,-503.169C374.188,-467.337 315.522,-381.041 293,-354 283.446,-342.529 271.963,-330.611 262.048,-320.813"/>
<polygon fill="black" stroke="black" points="264.433,-318.251 254.829,-313.777 259.547,-323.264 264.433,-318.251"/>
</a>
</g>
<!-- http://cds.omdoc.org/urtheories?LF&#45;&gt;http://latin.omdoc.org/logics/proof_theory?Forall -->
<g id="edge45" class="edge"><title>http://cds.omdoc.org/urtheories?LF&#45;&gt;http://latin.omdoc.org/logics/proof_theory?Forall</title>
<a class="graphmeta">
<path fill="none" stroke="black" d="M422.291,-504.184C433.249,-490.4 447,-468.767 447,-447 447,-447 447,-447 447,-297 447,-276.58 441.106,-254.26 435.42,-237.476"/>
<polygon fill="black" stroke="black" points="438.625,-236.045 431.961,-227.808 432.034,-238.403 438.625,-236.045"/>
</a>
</g>
<!-- http://cds.omdoc.org/urtheories?LF&#45;&gt;http://latin.omdoc.org/logics/proof_theory?IFOLExt -->
<g id="edge35" class="edge"><title>http://cds.omdoc.org/urtheories?LF&#45;&gt;http://latin.omdoc.org/logics/proof_theory?IFOLExt</title>
<a class="graphmeta">
<path fill="none" stroke="black" d="M432.86,-511.167C451.326,-504.764 477.32,-494.996 499,-484 508.507,-479.178 518.435,-473.221 527.334,-467.507"/>
<polygon fill="black" stroke="black" points="529.399,-470.338 535.837,-461.924 525.557,-464.487 529.399,-470.338"/>
</a>
</g>
<!-- http://cds.omdoc.org/urtheories?LF&#45;&gt;http://latin.omdoc.org/logics/proof_theory?Exists -->
<g id="edge43" class="edge"><title>http://cds.omdoc.org/urtheories?LF&#45;&gt;http://latin.omdoc.org/logics/proof_theory?Exists</title>
<a class="graphmeta">
<path fill="none" stroke="black" d="M409,-501.834C409,-487.247 409,-465.75 409,-447 409,-447 409,-447 409,-297 409,-270.234 388.631,-246.665 370.524,-231.002"/>
<polygon fill="black" stroke="black" points="372.398,-228.012 362.445,-224.379 367.959,-233.425 372.398,-228.012"/>
</a>
</g>
<!-- http://cds.omdoc.org/urtheories?LF&#45;&gt;http://latin.omdoc.org/logics/syntax?Exists -->
<g id="edge41" class="edge"><title>http://cds.omdoc.org/urtheories?LF&#45;&gt;http://latin.omdoc.org/logics/syntax?Exists</title>
<a class="graphmeta">
<path fill="none" stroke="black" d="M382.312,-515.927C325.397,-507.71 193.58,-479.381 148,-390 137.837,-370.072 141.589,-344.512 147.016,-325.558"/>
<polygon fill="black" stroke="black" points="150.429,-326.375 150.126,-315.785 143.758,-324.253 150.429,-326.375"/>
</a>
</g>
<!-- http://cds.omdoc.org/urtheories?LF&#45;&gt;http://latin.omdoc.org/logics/syntax?UniverseLogic -->
<g id="edge31" class="edge"><title>http://cds.omdoc.org/urtheories?LF&#45;&gt;http://latin.omdoc.org/logics/syntax?UniverseLogic</title>
<a class="graphmeta">
<path fill="none" stroke="black" d="M383.09,-514.739C360.76,-510.082 328.503,-500.915 305,-484 273.866,-461.594 249.048,-424.302 234.683,-399.196"/>
<polygon fill="black" stroke="black" points="237.615,-397.267 229.697,-390.227 231.497,-400.668 237.615,-397.267"/>
</a>
</g>
<!-- http://cds.omdoc.org/urtheories?LF&#45;&gt;http://latin.omdoc.org/math?Universe -->
<g id="edge29" class="edge"><title>http://cds.omdoc.org/urtheories?LF&#45;&gt;http://latin.omdoc.org/math?Universe</title>
<a class="graphmeta">
<path fill="none" stroke="black" d="M382.166,-517.594C316.653,-513.903 150.099,-502.898 98,-484 87.8125,-480.305 77.6364,-474.411 68.8078,-468.404"/>
<polygon fill="black" stroke="black" points="70.6455,-465.416 60.4779,-462.437 66.5689,-471.106 70.6455,-465.416"/>
</a>
</g>
<!-- http://cds.omdoc.org/urtheories?LF&#45;&gt;http://latin.omdoc.org/logics/proof_theory?BaseFOL -->
<g id="edge39" class="edge"><title>http://cds.omdoc.org/urtheories?LF&#45;&gt;http://latin.omdoc.org/logics/proof_theory?BaseFOL</title>
<a class="graphmeta">
<path fill="none" stroke="black" d="M402.077,-502.353C399.744,-496.574 397.182,-490.031 395,-484 374.826,-428.225 354.088,-361.888 343.058,-325.745"/>
<polygon fill="black" stroke="black" points="346.342,-324.514 340.086,-315.964 339.644,-326.549 346.342,-324.514"/>
</a>
</g>
<!-- http://cds.omdoc.org/urtheories?LF&#45;&gt;http://latin.omdoc.org/logics/proof_theory?IFOL -->
<g id="edge37" class="edge"><title>http://cds.omdoc.org/urtheories?LF&#45;&gt;http://latin.omdoc.org/logics/proof_theory?IFOL</title>
<a class="graphmeta">
<path fill="none" stroke="black" d="M430.982,-509.543C453.428,-498.231 485,-476.989 485,-447 485,-447 485,-447 485,-209 485,-187.56 493.844,-164.893 502.234,-148.216"/>
<polygon fill="black" stroke="black" points="505.453,-149.617 507.05,-139.143 499.27,-146.335 505.453,-149.617"/>
</a>
</g>
<!-- http://cds.omdoc.org/urtheories?LF&#45;&gt;http://latin.omdoc.org/translations/prop_iprop?DN&#45;IPL -->
<g id="edge33" class="edge"><title>http://cds.omdoc.org/urtheories?LF&#45;&gt;http://latin.omdoc.org/translations/prop_iprop?DN&#45;IPL</title>
<a class="graphmeta">
<path fill="none" stroke="black" d="M433.768,-512.694C471.694,-502.926 546.349,-483.247 609,-464 612.155,-463.031 615.412,-461.998 618.679,-460.939"/>
<polygon fill="black" stroke="black" points="620.024,-464.18 628.42,-457.718 617.827,-457.534 620.024,-464.18"/>
</a>
</g>
</g>
</svg>
