<?xml version="1.0" encoding="UTF-8" standalone="no"?>
<!DOCTYPE svg PUBLIC "-//W3C//DTD SVG 1.1//EN"
 "http://www.w3.org/Graphics/SVG/1.1/DTD/svg11.dtd">
<!-- Generated by graphviz version 2.28.0 (20110507.0327)
 -->
<!-- Title: MMT Pages: 1 -->
<svg width="217pt" height="354pt"
 viewBox="0.00 0.00 217.28 354.00" xmlns="http://www.w3.org/2000/svg" xmlns:xlink="http://www.w3.org/1999/xlink">
<g id="graph1" class="graph" transform="scale(1 1) rotate(0) translate(4 350)">
<title>MMT</title>
<polygon fill="white" stroke="white" points="-4,5 -4,-350 214.276,-350 214.276,5 -4,5"/>
<g id="graph2" class="cluster"><title>cluster_local</title>
<polygon fill="none" stroke="black" points="21.2763,-154 21.2763,-206 183.276,-206 183.276,-154 21.2763,-154"/>
</g>
<!-- http://latin.omdoc.org/foundations/minimal?STTIFOLEQExt -->
<g id="node2" class="node"><title>http://latin.omdoc.org/foundations/minimal?STTIFOLEQExt</title>
<a xlink:href="http://latin.omdoc.org/foundations/minimal?STTIFOLEQExt" class="graphtheory">
<ellipse fill="none" stroke="black" cx="102.276" cy="-180" rx="72.192" ry="18"/>
<text text-anchor="middle" x="102.276" y="-176.3" font-family="Times New Roman,serif" font-size="14.00">STTIFOLEQExt</text>
</a>
</g>
<!-- http://latin.omdoc.org/logics/model_theory/kripke?Kripke -->
<g id="node3" class="node"><title>http://latin.omdoc.org/logics/model_theory/kripke?Kripke</title>
<a xlink:href="http://latin.omdoc.org/logics/model_theory/kripke?Kripke" class="graphtheory">
<ellipse fill="gray" stroke="black" cx="37.2763" cy="-106" rx="35.1455" ry="18"/>
<text text-anchor="middle" x="37.2763" y="-102.3" font-family="Times New Roman,serif" font-size="14.00">Kripke</text>
</a>
</g>
<!-- http://latin.omdoc.org/foundations/minimal?STTIFOLEQExt&#45;&gt;http://latin.omdoc.org/logics/model_theory/kripke?Kripke -->
<g id="edge3" class="edge"><title>http://latin.omdoc.org/foundations/minimal?STTIFOLEQExt&#45;&gt;http://latin.omdoc.org/logics/model_theory/kripke?Kripke</title>
<a class="graphinclude">
<path fill="none" stroke="black" d="M87.2006,-162.301C78.5937,-152.767 67.6718,-140.669 58.2397,-130.221"/>
<polygon fill="black" stroke="black" points="60.6794,-127.7 51.3804,-122.623 55.4835,-132.391 60.6794,-127.7"/>
</a>
</g>
<!-- http://latin.omdoc.org/translations/ml_fol?ML&#45;FOLMOD -->
<g id="node5" class="node"><title>http://latin.omdoc.org/translations/ml_fol?ML&#45;FOLMOD</title>
<a xlink:href="http://latin.omdoc.org/translations/ml_fol?ML-FOLMOD" class="graphtheory">
<ellipse fill="gray" stroke="black" cx="113.276" cy="-18" rx="65.4659" ry="18"/>
<text text-anchor="middle" x="113.276" y="-14.3" font-family="Times New Roman,serif" font-size="14.00">ML&#45;FOLMOD</text>
</a>
</g>
<!-- http://latin.omdoc.org/foundations/minimal?STTIFOLEQExt&#45;&gt;http://latin.omdoc.org/translations/ml_fol?ML&#45;FOLMOD -->
<g id="edge5" class="edge"><title>http://latin.omdoc.org/foundations/minimal?STTIFOLEQExt&#45;&gt;http://latin.omdoc.org/translations/ml_fol?ML&#45;FOLMOD</title>
<a class="graphinclude">
<path fill="none" stroke="black" d="M110.756,-161.784C120.609,-140.735 136.281,-103.739 142.276,-70 143.52,-62.9986 144.688,-60.6898 142.276,-54 140.997,-50.4506 139.184,-47.0061 137.081,-43.7512"/>
<polygon fill="black" stroke="black" points="139.801,-41.5438 131.006,-35.6362 134.197,-45.739 139.801,-41.5438"/>
</a>
</g>
<!-- http://latin.omdoc.org/logics/model_theory/kripke?Kripke&#45;&gt;http://latin.omdoc.org/translations/ml_fol?ML&#45;FOLMOD -->
<g id="edge19" class="edge"><title>http://latin.omdoc.org/logics/model_theory/kripke?Kripke&#45;&gt;http://latin.omdoc.org/translations/ml_fol?ML&#45;FOLMOD</title>
<a xlink:href="http://latin.omdoc.org/translations/ml_fol?Kripke" class="graphview">
<path fill="none" stroke="black" d="M24.1337,-89.2995C16.9222,-78.6801 10.8184,-64.6957 18.2763,-54 25.4951,-43.6473 36.1383,-36.3487 47.7169,-31.2053"/>
<polygon fill="black" stroke="black" points="49.1102,-34.4188 57.1558,-27.5253 46.5674,-27.8969 49.1102,-34.4188"/>
</a>
<a xlink:href="http://latin.omdoc.org/translations/ml_fol?Kripke" class="Kripke">
<text text-anchor="middle" x="37.2763" y="-58.3" font-family="Times New Roman,serif" font-size="14.00">Kripke</text>
</a>
</g>
<!-- http://latin.omdoc.org/translations/ml_fol?ML&#45;FOLMOD&#45;&gt;http://latin.omdoc.org/logics/model_theory/kripke?Kripke -->
<g id="edge17" class="edge"><title>http://latin.omdoc.org/translations/ml_fol?ML&#45;FOLMOD&#45;&gt;http://latin.omdoc.org/logics/model_theory/kripke?Kripke</title>
<a xlink:href="http://latin.omdoc.org/translations/ml_fol?FOL-Kripke" class="graphview">
<path fill="none" stroke="black" d="M92.2924,-35.0998C85.5549,-40.7304 78.2867,-47.3219 72.2763,-54 65.1318,-61.9383 58.2561,-71.4058 52.5186,-80.0163"/>
<polygon fill="black" stroke="black" points="49.4736,-78.2799 46.988,-88.5791 55.3537,-82.0779 49.4736,-78.2799"/>
</a>
<a xlink:href="http://latin.omdoc.org/translations/ml_fol?FOL-Kripke" class="FOL&#45;Kripke">
<text text-anchor="middle" x="107.276" y="-58.3" font-family="Times New Roman,serif" font-size="14.00">FOL&#45;Kripke</text>
</a>
</g>
<!-- http://latin.omdoc.org/foundations/minimal?STTIFOLEQ -->
<g id="node7" class="node"><title>http://latin.omdoc.org/foundations/minimal?STTIFOLEQ</title>
<a xlink:href="http://latin.omdoc.org/foundations/minimal?STTIFOLEQ" class="graphtheory">
<ellipse fill="gray" stroke="black" cx="83.2763" cy="-254" rx="60.1672" ry="18"/>
<text text-anchor="middle" x="83.2763" y="-250.3" font-family="Times New Roman,serif" font-size="14.00">STTIFOLEQ</text>
</a>
</g>
<!-- http://latin.omdoc.org/foundations/minimal?STTIFOLEQ&#45;&gt;http://latin.omdoc.org/foundations/minimal?STTIFOLEQExt -->
<g id="edge7" class="edge"><title>http://latin.omdoc.org/foundations/minimal?STTIFOLEQ&#45;&gt;http://latin.omdoc.org/foundations/minimal?STTIFOLEQExt</title>
<a class="graphinclude">
<path fill="none" stroke="black" d="M87.7791,-235.937C89.9478,-227.719 92.6022,-217.66 95.0442,-208.406"/>
<polygon fill="black" stroke="black" points="98.5065,-209.003 97.6739,-198.441 91.7382,-207.217 98.5065,-209.003"/>
</a>
</g>
<!-- http://cds.omdoc.org/urtheories?LF -->
<g id="node9" class="node"><title>http://cds.omdoc.org/urtheories?LF</title>
<a xlink:href="http://cds.omdoc.org/urtheories?LF" class="graphtheory">
<ellipse fill="gray" stroke="black" cx="142.276" cy="-328" rx="27" ry="18"/>
<text text-anchor="middle" x="142.276" y="-324.3" font-family="Times New Roman,serif" font-size="14.00">LF</text>
</a>
</g>
<!-- http://cds.omdoc.org/urtheories?LF&#45;&gt;http://latin.omdoc.org/foundations/minimal?STTIFOLEQExt -->
<g id="edge9" class="edge"><title>http://cds.omdoc.org/urtheories?LF&#45;&gt;http://latin.omdoc.org/foundations/minimal?STTIFOLEQExt</title>
<a class="graphmeta">
<path fill="none" stroke="black" d="M148.643,-310.291C154.761,-291.566 161.79,-260.609 152.276,-236 147.696,-224.152 139.245,-213.283 130.578,-204.393"/>
<polygon fill="black" stroke="black" points="132.958,-201.826 123.326,-197.412 128.103,-206.869 132.958,-201.826"/>
</a>
</g>
<!-- http://cds.omdoc.org/urtheories?LF&#45;&gt;http://latin.omdoc.org/logics/model_theory/kripke?Kripke -->
<g id="edge11" class="edge"><title>http://cds.omdoc.org/urtheories?LF&#45;&gt;http://latin.omdoc.org/logics/model_theory/kripke?Kripke</title>
<a class="graphmeta">
<path fill="none" stroke="black" d="M115.766,-324.088C85.3427,-319.171 36.762,-306.135 14.2763,-272 -13.6718,-229.572 7.56368,-167.682 23.6448,-133.016"/>
<polygon fill="black" stroke="black" points="27.0002,-134.117 28.2041,-123.59 20.6988,-131.068 27.0002,-134.117"/>
</a>
</g>
<!-- http://cds.omdoc.org/urtheories?LF&#45;&gt;http://latin.omdoc.org/translations/ml_fol?ML&#45;FOLMOD -->
<g id="edge15" class="edge"><title>http://cds.omdoc.org/urtheories?LF&#45;&gt;http://latin.omdoc.org/translations/ml_fol?ML&#45;FOLMOD</title>
<a class="graphmeta">
<path fill="none" stroke="black" d="M162.743,-316.195C182.446,-304.146 209.276,-282.661 209.276,-255 209.276,-255 209.276,-255 209.276,-105 209.276,-74.6753 182.373,-52.3562 157.05,-38.0651"/>
<polygon fill="black" stroke="black" points="158.676,-34.9656 148.206,-33.3449 155.38,-41.1411 158.676,-34.9656"/>
</a>
</g>
<!-- http://cds.omdoc.org/urtheories?LF&#45;&gt;http://latin.omdoc.org/foundations/minimal?STTIFOLEQ -->
<g id="edge13" class="edge"><title>http://cds.omdoc.org/urtheories?LF&#45;&gt;http://latin.omdoc.org/foundations/minimal?STTIFOLEQ</title>
<a class="graphmeta">
<path fill="none" stroke="black" d="M129.764,-311.731C122.109,-302.389 112.138,-290.221 103.395,-279.552"/>
<polygon fill="black" stroke="black" points="106.052,-277.272 97.0069,-271.756 100.638,-281.709 106.052,-277.272"/>
</a>
</g>
</g>
</svg>
