<?xml version="1.0" encoding="UTF-8" standalone="no"?>
<!DOCTYPE svg PUBLIC "-//W3C//DTD SVG 1.1//EN"
 "http://www.w3.org/Graphics/SVG/1.1/DTD/svg11.dtd">
<!-- Generated by graphviz version 2.28.0 (20110507.0327)
 -->
<!-- Title: MMT Pages: 1 -->
<svg width="2299pt" height="456pt"
 viewBox="0.00 0.00 2299.00 456.00" xmlns="http://www.w3.org/2000/svg" xmlns:xlink="http://www.w3.org/1999/xlink">
<g id="graph1" class="graph" transform="scale(1 1) rotate(0) translate(4 452)">
<title>MMT</title>
<polygon fill="white" stroke="white" points="-4,5 -4,-452 2296,-452 2296,5 -4,5"/>
<g id="graph2" class="cluster"><title>cluster_local</title>
<polygon fill="none" stroke="black" points="466,-256 466,-308 584,-308 584,-256 466,-256"/>
</g>
<!-- http://latin.omdoc.org/logics/proof_theory?BaseSFOL -->
<g id="node2" class="node"><title>http://latin.omdoc.org/logics/proof_theory?BaseSFOL</title>
<a xlink:href="http://latin.omdoc.org/logics/proof_theory?BaseSFOL" class="graphtheory">
<ellipse fill="none" stroke="black" cx="525" cy="-282" rx="51.0191" ry="18"/>
<text text-anchor="middle" x="525" y="-278.3" font-family="Times New Roman,serif" font-size="14.00">BaseSFOL</text>
</a>
</g>
<!-- http://latin.omdoc.org/foundations/minimal?SEqualPF&#45;ZF -->
<g id="node3" class="node"><title>http://latin.omdoc.org/foundations/minimal?SEqualPF&#45;ZF</title>
<a xlink:href="http://latin.omdoc.org/foundations/minimal?SEqualPF-ZF" class="graphtheory">
<ellipse fill="gray" stroke="black" cx="888" cy="-194" rx="61.1419" ry="18"/>
<text text-anchor="middle" x="888" y="-190.3" font-family="Times New Roman,serif" font-size="14.00">SEqualPF&#45;ZF</text>
</a>
</g>
<!-- http://latin.omdoc.org/logics/proof_theory?BaseSFOL&#45;&gt;http://latin.omdoc.org/foundations/minimal?SEqualPF&#45;ZF -->
<g id="edge3" class="edge"><title>http://latin.omdoc.org/logics/proof_theory?BaseSFOL&#45;&gt;http://latin.omdoc.org/foundations/minimal?SEqualPF&#45;ZF</title>
<a xlink:href="http://latin.omdoc.org/foundations/minimal?SEqualPF-ZF?[http://latin.omdoc.org/logics/proof_theory?BaseSFOL]" class="graphstructure">
<path fill="none" stroke="black" d="M534.581,-264.108C542.252,-252.341 554.167,-237.465 569,-230 617.565,-205.557 759.227,-220.032 813,-212 819.565,-211.019 826.409,-209.778 833.176,-208.415"/>
<polygon fill="black" stroke="black" points="833.93,-211.833 842.994,-206.347 832.487,-204.984 833.93,-211.833"/>
</a>
<a xlink:href="http://latin.omdoc.org/foundations/minimal?SEqualPF-ZF?[http://latin.omdoc.org/logics/proof_theory?BaseSFOL]" class="[http://latin.omdoc.org/logics/proof_theory?BaseSFOL]">
<text text-anchor="middle" x="725.5" y="-234.3" font-family="Times New Roman,serif" font-size="14.00">[http://latin.omdoc.org/logics/proof_theory?BaseSFOL]</text>
</a>
</g>
<!-- http://latin.omdoc.org/logics/model_theory?SFOLMOD -->
<g id="node5" class="node"><title>http://latin.omdoc.org/logics/model_theory?SFOLMOD</title>
<a xlink:href="http://latin.omdoc.org/logics/model_theory?SFOLMOD" class="graphtheory">
<ellipse fill="gray" stroke="black" cx="2083" cy="-106" rx="54.3924" ry="18"/>
<text text-anchor="middle" x="2083" y="-102.3" font-family="Times New Roman,serif" font-size="14.00">SFOLMOD</text>
</a>
</g>
<!-- http://latin.omdoc.org/logics/proof_theory?BaseSFOL&#45;&gt;http://latin.omdoc.org/logics/model_theory?SFOLMOD -->
<g id="edge5" class="edge"><title>http://latin.omdoc.org/logics/proof_theory?BaseSFOL&#45;&gt;http://latin.omdoc.org/logics/model_theory?SFOLMOD</title>
<a xlink:href="http://latin.omdoc.org/logics/soundness?BaseSFOL" class="graphview">
<path fill="none" stroke="black" d="M551.074,-266.449C559.974,-262.224 570.167,-258.167 580,-256 599.125,-251.786 1973.82,-257.037 1990,-246 2017.68,-227.116 1995.05,-200.415 2018,-176 2030.8,-162.383 2042.49,-170.917 2056,-158 2063.23,-151.084 2068.93,-141.802 2073.19,-133.052"/>
<polygon fill="black" stroke="black" points="2076.39,-134.464 2077.25,-123.905 2070,-131.622 2076.39,-134.464"/>
</a>
<a xlink:href="http://latin.omdoc.org/logics/soundness?BaseSFOL" class="BaseSFOL">
<text text-anchor="middle" x="2049.5" y="-190.3" font-family="Times New Roman,serif" font-size="14.00">BaseSFOL</text>
</a>
</g>
<!-- http://latin.omdoc.org/foundations/minimal?SForallPF&#45;ZF -->
<g id="node7" class="node"><title>http://latin.omdoc.org/foundations/minimal?SForallPF&#45;ZF</title>
<a xlink:href="http://latin.omdoc.org/foundations/minimal?SForallPF-ZF" class="graphtheory">
<ellipse fill="gray" stroke="black" cx="1029" cy="-194" rx="61.6163" ry="18"/>
<text text-anchor="middle" x="1029" y="-190.3" font-family="Times New Roman,serif" font-size="14.00">SForallPF&#45;ZF</text>
</a>
</g>
<!-- http://latin.omdoc.org/logics/proof_theory?BaseSFOL&#45;&gt;http://latin.omdoc.org/foundations/minimal?SForallPF&#45;ZF -->
<g id="edge7" class="edge"><title>http://latin.omdoc.org/logics/proof_theory?BaseSFOL&#45;&gt;http://latin.omdoc.org/foundations/minimal?SForallPF&#45;ZF</title>
<a xlink:href="http://latin.omdoc.org/foundations/minimal?SForallPF-ZF?[http://latin.omdoc.org/logics/proof_theory?BaseSFOL]" class="graphstructure">
<path fill="none" stroke="black" d="M551.387,-266.467C560.222,-262.298 570.298,-258.27 580,-256 645.382,-240.701 818.27,-267.151 882,-246 893.818,-242.078 893.741,-235.32 905,-230 917.474,-224.106 946.716,-215.765 973.671,-208.705"/>
<polygon fill="black" stroke="black" points="974.66,-212.064 983.463,-206.169 972.905,-205.288 974.66,-212.064"/>
</a>
<a xlink:href="http://latin.omdoc.org/foundations/minimal?SForallPF-ZF?[http://latin.omdoc.org/logics/proof_theory?BaseSFOL]" class="[http://latin.omdoc.org/logics/proof_theory?BaseSFOL]">
<text text-anchor="middle" x="1061.5" y="-234.3" font-family="Times New Roman,serif" font-size="14.00">[http://latin.omdoc.org/logics/proof_theory?BaseSFOL]</text>
</a>
</g>
<!-- http://latin.omdoc.org/foundations/minimal?SExistsPF&#45;ZF -->
<g id="node9" class="node"><title>http://latin.omdoc.org/foundations/minimal?SExistsPF&#45;ZF</title>
<a xlink:href="http://latin.omdoc.org/foundations/minimal?SExistsPF-ZF" class="graphtheory">
<ellipse fill="gray" stroke="black" cx="1240" cy="-194" rx="62.0922" ry="18"/>
<text text-anchor="middle" x="1240" y="-190.3" font-family="Times New Roman,serif" font-size="14.00">SExistsPF&#45;ZF</text>
</a>
</g>
<!-- http://latin.omdoc.org/logics/proof_theory?BaseSFOL&#45;&gt;http://latin.omdoc.org/foundations/minimal?SExistsPF&#45;ZF -->
<g id="edge9" class="edge"><title>http://latin.omdoc.org/logics/proof_theory?BaseSFOL&#45;&gt;http://latin.omdoc.org/foundations/minimal?SExistsPF&#45;ZF</title>
<a xlink:href="http://latin.omdoc.org/foundations/minimal?SExistsPF-ZF?[http://latin.omdoc.org/logics/proof_theory?BaseSFOL]" class="graphstructure">
<path fill="none" stroke="black" d="M551.085,-266.498C559.986,-262.276 570.176,-258.209 580,-256 614.585,-248.224 1188.54,-265.711 1218,-246 1226.24,-240.487 1231.41,-231.177 1234.65,-222.008"/>
<polygon fill="black" stroke="black" points="1238.04,-222.88 1237.45,-212.301 1231.31,-220.935 1238.04,-222.88"/>
</a>
<a xlink:href="http://latin.omdoc.org/foundations/minimal?SExistsPF-ZF?[http://latin.omdoc.org/logics/proof_theory?BaseSFOL]" class="[http://latin.omdoc.org/logics/proof_theory?BaseSFOL]">
<text text-anchor="middle" x="1388.5" y="-234.3" font-family="Times New Roman,serif" font-size="14.00">[http://latin.omdoc.org/logics/proof_theory?BaseSFOL]</text>
</a>
</g>
<!-- http://latin.omdoc.org/foundations/hol?SFOL&#45;Pf -->
<g id="node11" class="node"><title>http://latin.omdoc.org/foundations/hol?SFOL&#45;Pf</title>
<a xlink:href="http://latin.omdoc.org/foundations/hol?SFOL-Pf" class="graphtheory">
<ellipse fill="gray" stroke="black" cx="348" cy="-18" rx="44.271" ry="18"/>
<text text-anchor="middle" x="348" y="-14.3" font-family="Times New Roman,serif" font-size="14.00">SFOL&#45;Pf</text>
</a>
</g>
<!-- http://latin.omdoc.org/logics/proof_theory?BaseSFOL&#45;&gt;http://latin.omdoc.org/foundations/hol?SFOL&#45;Pf -->
<g id="edge11" class="edge"><title>http://latin.omdoc.org/logics/proof_theory?BaseSFOL&#45;&gt;http://latin.omdoc.org/foundations/hol?SFOL&#45;Pf</title>
<a xlink:href="http://latin.omdoc.org/translations/sfol_hol?BaseSFOLPF" class="graphview">
<path fill="none" stroke="black" d="M497.944,-266.636C489.239,-262.582 479.408,-258.578 470,-256 430.333,-245.131 414.772,-264.424 378,-246 330.204,-222.053 315.584,-207.743 296,-158 280.261,-118.023 307.088,-71.1505 327.707,-43.3271"/>
<polygon fill="black" stroke="black" points="330.533,-45.3938 333.853,-35.3325 324.983,-41.1276 330.533,-45.3938"/>
</a>
<a xlink:href="http://latin.omdoc.org/translations/sfol_hol?BaseSFOLPF" class="BaseSFOLPF">
<text text-anchor="middle" x="335.5" y="-146.3" font-family="Times New Roman,serif" font-size="14.00">BaseSFOLPF</text>
</a>
</g>
<!-- http://latin.omdoc.org/foundations/zfc?TypedZF -->
<g id="node13" class="node"><title>http://latin.omdoc.org/foundations/zfc?TypedZF</title>
<a xlink:href="http://latin.omdoc.org/foundations/zfc?TypedZF" class="graphtheory">
<ellipse fill="gray" stroke="black" cx="1784" cy="-18" rx="45.244" ry="18"/>
<text text-anchor="middle" x="1784" y="-14.3" font-family="Times New Roman,serif" font-size="14.00">TypedZF</text>
</a>
</g>
<!-- http://latin.omdoc.org/logics/proof_theory?BaseSFOL&#45;&gt;http://latin.omdoc.org/foundations/zfc?TypedZF -->
<g id="edge13" class="edge"><title>http://latin.omdoc.org/logics/proof_theory?BaseSFOL&#45;&gt;http://latin.omdoc.org/foundations/zfc?TypedZF</title>
<a xlink:href="http://latin.omdoc.org/foundations/minimal?BaseSFOLPF-ZF" class="graphview">
<path fill="none" stroke="black" d="M551.075,-266.451C559.974,-262.226 570.167,-258.168 580,-256 616.214,-248.014 1882.14,-263.184 1915,-246 1944.14,-230.76 1958,-202.848 1939,-176 1925.12,-156.378 1903.37,-176.482 1888,-158 1867.86,-133.785 1893.3,-114.944 1877,-88 1863.82,-66.2226 1840.93,-49.1088 1821.16,-37.3723"/>
<polygon fill="black" stroke="black" points="1822.76,-34.2583 1812.34,-32.3609 1819.3,-40.3444 1822.76,-34.2583"/>
</a>
<a xlink:href="http://latin.omdoc.org/foundations/minimal?BaseSFOLPF-ZF" class="BaseSFOLPF&#45;ZF">
<text text-anchor="middle" x="1938" y="-146.3" font-family="Times New Roman,serif" font-size="14.00">BaseSFOLPF&#45;ZF</text>
</a>
</g>
<!-- http://latin.omdoc.org/logics/soundness?SForall -->
<g id="node15" class="node"><title>http://latin.omdoc.org/logics/soundness?SForall</title>
<a xlink:href="http://latin.omdoc.org/logics/soundness?SForall" class="graphtheory">
<ellipse fill="gray" stroke="black" cx="1576" cy="-194" rx="37.0701" ry="18"/>
<text text-anchor="middle" x="1576" y="-190.3" font-family="Times New Roman,serif" font-size="14.00">SForall</text>
</a>
</g>
<!-- http://latin.omdoc.org/logics/proof_theory?BaseSFOL&#45;&gt;http://latin.omdoc.org/logics/soundness?SForall -->
<g id="edge15" class="edge"><title>http://latin.omdoc.org/logics/proof_theory?BaseSFOL&#45;&gt;http://latin.omdoc.org/logics/soundness?SForall</title>
<a xlink:href="http://latin.omdoc.org/logics/soundness?SForall?[http://latin.omdoc.org/logics/proof_theory?BaseSFOL]" class="graphstructure">
<path fill="none" stroke="black" d="M551.078,-266.468C559.978,-262.244 570.17,-258.182 580,-256 606.278,-250.166 1526.01,-260.003 1549,-246 1558.02,-240.507 1564.19,-230.893 1568.32,-221.483"/>
<polygon fill="black" stroke="black" points="1571.67,-222.522 1571.93,-211.93 1565.12,-220.047 1571.67,-222.522"/>
</a>
<a xlink:href="http://latin.omdoc.org/logics/soundness?SForall?[http://latin.omdoc.org/logics/proof_theory?BaseSFOL]" class="[http://latin.omdoc.org/logics/proof_theory?BaseSFOL]">
<text text-anchor="middle" x="1720.5" y="-234.3" font-family="Times New Roman,serif" font-size="14.00">[http://latin.omdoc.org/logics/proof_theory?BaseSFOL]</text>
</a>
</g>
<!-- http://latin.omdoc.org/logics/proof_theory?FOL -->
<g id="node17" class="node"><title>http://latin.omdoc.org/logics/proof_theory?FOL</title>
<a xlink:href="http://latin.omdoc.org/logics/proof_theory?FOL" class="graphtheory">
<ellipse fill="gray" stroke="black" cx="251" cy="-194" rx="28.3955" ry="18"/>
<text text-anchor="middle" x="251" y="-190.3" font-family="Times New Roman,serif" font-size="14.00">FOL</text>
</a>
</g>
<!-- http://latin.omdoc.org/logics/proof_theory?BaseSFOL&#45;&gt;http://latin.omdoc.org/logics/proof_theory?FOL -->
<g id="edge17" class="edge"><title>http://latin.omdoc.org/logics/proof_theory?BaseSFOL&#45;&gt;http://latin.omdoc.org/logics/proof_theory?FOL</title>
<a xlink:href="http://latin.omdoc.org/translations/sfol_fol?BaseSFOLPF" class="graphview">
<path fill="none" stroke="black" d="M498.605,-266.502C489.769,-262.336 479.695,-258.3 470,-256 456.205,-252.728 224.827,-256.22 215,-246 205.784,-236.415 213.67,-224.304 224.382,-214.289"/>
<polygon fill="black" stroke="black" points="226.724,-216.892 232.075,-207.747 222.189,-211.559 226.724,-216.892"/>
</a>
<a xlink:href="http://latin.omdoc.org/translations/sfol_fol?BaseSFOLPF" class="BaseSFOLPF">
<text text-anchor="middle" x="254.5" y="-234.3" font-family="Times New Roman,serif" font-size="14.00">BaseSFOLPF</text>
</a>
</g>
<!-- http://latin.omdoc.org/logics/proof_theory?SEqual -->
<g id="node19" class="node"><title>http://latin.omdoc.org/logics/proof_theory?SEqual</title>
<a xlink:href="http://latin.omdoc.org/logics/proof_theory?SEqual" class="graphtheory">
<ellipse fill="gray" stroke="black" cx="410" cy="-194" rx="36.096" ry="18"/>
<text text-anchor="middle" x="410" y="-190.3" font-family="Times New Roman,serif" font-size="14.00">SEqual</text>
</a>
</g>
<!-- http://latin.omdoc.org/logics/proof_theory?BaseSFOL&#45;&gt;http://latin.omdoc.org/logics/proof_theory?SEqual -->
<g id="edge19" class="edge"><title>http://latin.omdoc.org/logics/proof_theory?BaseSFOL&#45;&gt;http://latin.omdoc.org/logics/proof_theory?SEqual</title>
<a class="graphinclude">
<path fill="none" stroke="black" d="M499.139,-266.393C489.161,-260.432 477.809,-253.242 468,-246 456.138,-237.242 443.764,-226.597 433.507,-217.303"/>
<polygon fill="black" stroke="black" points="435.851,-214.703 426.12,-210.513 431.114,-219.857 435.851,-214.703"/>
</a>
</g>
<!-- http://latin.omdoc.org/translations/sfol_hol?SEqualPF -->
<g id="node21" class="node"><title>http://latin.omdoc.org/translations/sfol_hol?SEqualPF</title>
<a xlink:href="http://latin.omdoc.org/translations/sfol_hol?SEqualPF" class="graphtheory">
<ellipse fill="gray" stroke="black" cx="1791" cy="-194" rx="47.169" ry="18"/>
<text text-anchor="middle" x="1791" y="-190.3" font-family="Times New Roman,serif" font-size="14.00">SEqualPF</text>
</a>
</g>
<!-- http://latin.omdoc.org/logics/proof_theory?BaseSFOL&#45;&gt;http://latin.omdoc.org/translations/sfol_hol?SEqualPF -->
<g id="edge21" class="edge"><title>http://latin.omdoc.org/logics/proof_theory?BaseSFOL&#45;&gt;http://latin.omdoc.org/translations/sfol_hol?SEqualPF</title>
<a class="graphinclude">
<path fill="none" stroke="black" d="M551.075,-266.452C559.975,-262.227 570.167,-258.169 580,-256 597.646,-252.107 1868.27,-258.826 1881,-246 1886.01,-240.952 1885.01,-235.869 1881,-230 1878.04,-225.68 1856.56,-217.247 1835.32,-209.741"/>
<polygon fill="black" stroke="black" points="1836.24,-206.356 1825.65,-206.375 1833.94,-212.967 1836.24,-206.356"/>
</a>
</g>
<!-- http://latin.omdoc.org/logics/proof_theory?SForall -->
<g id="node23" class="node"><title>http://latin.omdoc.org/logics/proof_theory?SForall</title>
<a xlink:href="http://latin.omdoc.org/logics/proof_theory?SForall" class="graphtheory">
<ellipse fill="gray" stroke="black" cx="1893" cy="-194" rx="37.0701" ry="18"/>
<text text-anchor="middle" x="1893" y="-190.3" font-family="Times New Roman,serif" font-size="14.00">SForall</text>
</a>
</g>
<!-- http://latin.omdoc.org/logics/proof_theory?BaseSFOL&#45;&gt;http://latin.omdoc.org/logics/proof_theory?SForall -->
<g id="edge23" class="edge"><title>http://latin.omdoc.org/logics/proof_theory?BaseSFOL&#45;&gt;http://latin.omdoc.org/logics/proof_theory?SForall</title>
<a class="graphinclude">
<path fill="none" stroke="black" d="M551.075,-266.452C559.975,-262.227 570.167,-258.169 580,-256 597.863,-252.06 1884.11,-258.984 1897,-246 1903.21,-239.747 1904,-230.684 1902.65,-221.926"/>
<polygon fill="black" stroke="black" points="1906,-220.885 1900.27,-211.973 1899.19,-222.513 1906,-220.885"/>
</a>
</g>
<!-- http://latin.omdoc.org/logics/proof_theory?SIFOL -->
<g id="node25" class="node"><title>http://latin.omdoc.org/logics/proof_theory?SIFOL</title>
<a xlink:href="http://latin.omdoc.org/logics/proof_theory?SIFOL" class="graphtheory">
<ellipse fill="gray" stroke="black" cx="459" cy="-106" rx="36.096" ry="18"/>
<text text-anchor="middle" x="459" y="-102.3" font-family="Times New Roman,serif" font-size="14.00">SIFOL</text>
</a>
</g>
<!-- http://latin.omdoc.org/logics/proof_theory?BaseSFOL&#45;&gt;http://latin.omdoc.org/logics/proof_theory?SIFOL -->
<g id="edge25" class="edge"><title>http://latin.omdoc.org/logics/proof_theory?BaseSFOL&#45;&gt;http://latin.omdoc.org/logics/proof_theory?SIFOL</title>
<a class="graphinclude">
<path fill="none" stroke="black" d="M495.425,-267.255C487.225,-263.526 478.296,-259.542 470,-256 423.466,-236.13 392.918,-254.199 365,-212 342.446,-177.908 389.366,-143.594 424.686,-123.867"/>
<polygon fill="black" stroke="black" points="426.681,-126.768 433.819,-118.939 423.356,-120.608 426.681,-126.768"/>
</a>
</g>
<!-- http://latin.omdoc.org/logics/proof_theory?SExists -->
<g id="node27" class="node"><title>http://latin.omdoc.org/logics/proof_theory?SExists</title>
<a xlink:href="http://latin.omdoc.org/logics/proof_theory?SExists" class="graphtheory">
<ellipse fill="gray" stroke="black" cx="503" cy="-194" rx="38.0212" ry="18"/>
<text text-anchor="middle" x="503" y="-190.3" font-family="Times New Roman,serif" font-size="14.00">SExists</text>
</a>
</g>
<!-- http://latin.omdoc.org/logics/proof_theory?BaseSFOL&#45;&gt;http://latin.omdoc.org/logics/proof_theory?SExists -->
<g id="edge27" class="edge"><title>http://latin.omdoc.org/logics/proof_theory?BaseSFOL&#45;&gt;http://latin.omdoc.org/logics/proof_theory?SExists</title>
<a class="graphinclude">
<path fill="none" stroke="black" d="M494.961,-267.249C486.656,-261.872 478.653,-254.837 474,-246 469.109,-236.712 472.856,-226.636 479.079,-217.913"/>
<polygon fill="black" stroke="black" points="481.922,-219.968 485.603,-210.033 476.53,-215.504 481.922,-219.968"/>
</a>
</g>
<!-- http://latin.omdoc.org/logics/proof_theory?SFOL -->
<g id="node29" class="node"><title>http://latin.omdoc.org/logics/proof_theory?SFOL</title>
<a xlink:href="http://latin.omdoc.org/logics/proof_theory?SFOL" class="graphtheory">
<ellipse fill="gray" stroke="black" cx="38" cy="-18" rx="33.1991" ry="18"/>
<text text-anchor="middle" x="38" y="-14.3" font-family="Times New Roman,serif" font-size="14.00">SFOL</text>
</a>
</g>
<!-- http://latin.omdoc.org/logics/proof_theory?BaseSFOL&#45;&gt;http://latin.omdoc.org/logics/proof_theory?SFOL -->
<g id="edge29" class="edge"><title>http://latin.omdoc.org/logics/proof_theory?BaseSFOL&#45;&gt;http://latin.omdoc.org/logics/proof_theory?SFOL</title>
<a class="graphinclude">
<path fill="none" stroke="black" d="M473.822,-280.793C410.085,-279.311 298.446,-272.665 207,-246 174.179,-236.43 165.047,-232.911 138,-212 97.1158,-180.391 85.3367,-170.109 62,-124 49.5184,-99.3388 43.4492,-68.1509 40.5486,-46.1948"/>
<polygon fill="black" stroke="black" points="44.0198,-45.7445 39.365,-36.227 37.0686,-46.5699 44.0198,-45.7445"/>
</a>
</g>
<!-- http://latin.omdoc.org/translations/sfol_hol?SExistsPF -->
<g id="node31" class="node"><title>http://latin.omdoc.org/translations/sfol_hol?SExistsPF</title>
<a xlink:href="http://latin.omdoc.org/translations/sfol_hol?SExistsPF" class="graphtheory">
<ellipse fill="gray" stroke="black" cx="608" cy="-194" rx="48.6179" ry="18"/>
<text text-anchor="middle" x="608" y="-190.3" font-family="Times New Roman,serif" font-size="14.00">SExistsPF</text>
</a>
</g>
<!-- http://latin.omdoc.org/logics/proof_theory?BaseSFOL&#45;&gt;http://latin.omdoc.org/translations/sfol_hol?SExistsPF -->
<g id="edge31" class="edge"><title>http://latin.omdoc.org/logics/proof_theory?BaseSFOL&#45;&gt;http://latin.omdoc.org/translations/sfol_hol?SExistsPF</title>
<a class="graphinclude">
<path fill="none" stroke="black" d="M507.567,-264.623C498.645,-254.229 491.154,-240.76 499,-230 501.016,-227.235 532.426,-217.311 561.011,-208.733"/>
<polygon fill="black" stroke="black" points="562.368,-211.981 570.951,-205.769 560.367,-205.272 562.368,-211.981"/>
</a>
</g>
<!-- http://latin.omdoc.org/translations/sfol_hol?SForallPF -->
<g id="node33" class="node"><title>http://latin.omdoc.org/translations/sfol_hol?SForallPF</title>
<a xlink:href="http://latin.omdoc.org/translations/sfol_hol?SForallPF" class="graphtheory">
<ellipse fill="gray" stroke="black" cx="723" cy="-194" rx="48.1437" ry="18"/>
<text text-anchor="middle" x="723" y="-190.3" font-family="Times New Roman,serif" font-size="14.00">SForallPF</text>
</a>
</g>
<!-- http://latin.omdoc.org/logics/proof_theory?BaseSFOL&#45;&gt;http://latin.omdoc.org/translations/sfol_hol?SForallPF -->
<g id="edge33" class="edge"><title>http://latin.omdoc.org/logics/proof_theory?BaseSFOL&#45;&gt;http://latin.omdoc.org/translations/sfol_hol?SForallPF</title>
<a class="graphinclude">
<path fill="none" stroke="black" d="M519.3,-263.846C516.821,-252.868 516.041,-239.04 524,-230 544.874,-206.292 634.081,-218.463 665,-212 669.16,-211.131 673.455,-210.111 677.739,-209.01"/>
<polygon fill="black" stroke="black" points="678.907,-212.32 687.644,-206.327 677.077,-205.563 678.907,-212.32"/>
</a>
</g>
<!-- http://latin.omdoc.org/translations/sfol_hol?SIFOLPF -->
<g id="node35" class="node"><title>http://latin.omdoc.org/translations/sfol_hol?SIFOLPF</title>
<a xlink:href="http://latin.omdoc.org/translations/sfol_hol?SIFOLPF" class="graphtheory">
<ellipse fill="gray" stroke="black" cx="885" cy="-106" rx="47.169" ry="18"/>
<text text-anchor="middle" x="885" y="-102.3" font-family="Times New Roman,serif" font-size="14.00">SIFOLPF</text>
</a>
</g>
<!-- http://latin.omdoc.org/logics/proof_theory?BaseSFOL&#45;&gt;http://latin.omdoc.org/translations/sfol_hol?SIFOLPF -->
<g id="edge35" class="edge"><title>http://latin.omdoc.org/logics/proof_theory?BaseSFOL&#45;&gt;http://latin.omdoc.org/translations/sfol_hol?SIFOLPF</title>
<a class="graphinclude">
<path fill="none" stroke="black" d="M528.374,-263.871C531.606,-252.308 537.727,-237.785 549,-230 591.369,-200.742 733.232,-233.538 780,-212 785.154,-209.626 832.891,-160.845 862.195,-130.618"/>
<polygon fill="black" stroke="black" points="864.769,-132.991 869.211,-123.372 859.74,-128.121 864.769,-132.991"/>
</a>
</g>
<!-- http://latin.omdoc.org/logics/proof_theory?SEqual&#45;&gt;http://latin.omdoc.org/foundations/hol?SFOL&#45;Pf -->
<g id="edge95" class="edge"><title>http://latin.omdoc.org/logics/proof_theory?SEqual&#45;&gt;http://latin.omdoc.org/foundations/hol?SFOL&#45;Pf</title>
<a xlink:href="http://latin.omdoc.org/translations/sfol_hol?SEqualPF" class="graphview">
<path fill="none" stroke="black" d="M393.98,-177.648C381.54,-164.646 365.089,-144.841 357,-124 347.259,-98.9034 345.742,-67.9686 346.214,-46.1977"/>
<polygon fill="black" stroke="black" points="349.718,-46.1437 346.593,-36.0202 342.723,-45.8829 349.718,-46.1437"/>
</a>
<a xlink:href="http://latin.omdoc.org/translations/sfol_hol?SEqualPF" class="SEqualPF">
<text text-anchor="middle" x="385.5" y="-102.3" font-family="Times New Roman,serif" font-size="14.00">SEqualPF</text>
</a>
</g>
<!-- http://latin.omdoc.org/logics/proof_theory?SEqual&#45;&gt;http://latin.omdoc.org/foundations/zfc?TypedZF -->
<g id="edge97" class="edge"><title>http://latin.omdoc.org/logics/proof_theory?SEqual&#45;&gt;http://latin.omdoc.org/foundations/zfc?TypedZF</title>
<a xlink:href="http://latin.omdoc.org/foundations/minimal?SEqualPF-ZF" class="graphview">
<path fill="none" stroke="black" d="M431.935,-179.562C451.943,-166.712 481.698,-146.073 504,-124 518.215,-109.931 513.63,-97.9136 531,-88 538.476,-83.7334 830.416,-54.6319 839,-54 1176.38,-29.164 1582.88,-21.6338 1728.65,-19.6408"/>
<polygon fill="black" stroke="black" points="1728.74,-23.14 1738.69,-19.5067 1728.65,-16.1407 1728.74,-23.14"/>
</a>
<a xlink:href="http://latin.omdoc.org/foundations/minimal?SEqualPF-ZF" class="SEqualPF&#45;ZF">
<text text-anchor="middle" x="570" y="-102.3" font-family="Times New Roman,serif" font-size="14.00">SEqualPF&#45;ZF</text>
</a>
</g>
<!-- http://latin.omdoc.org/logics/proof_theory?SForall&#45;&gt;http://latin.omdoc.org/logics/model_theory?SFOLMOD -->
<g id="edge85" class="edge"><title>http://latin.omdoc.org/logics/proof_theory?SForall&#45;&gt;http://latin.omdoc.org/logics/model_theory?SFOLMOD</title>
<a xlink:href="http://latin.omdoc.org/logics/soundness?SForall" class="graphview">
<path fill="none" stroke="black" d="M1924.66,-184.187C1944.55,-178.078 1970.43,-169.063 1992,-158 2003.08,-152.318 2004.33,-148.419 2015,-142 2024.31,-136.398 2034.62,-130.801 2044.34,-125.778"/>
<polygon fill="black" stroke="black" points="2046.09,-128.811 2053.42,-121.156 2042.92,-122.573 2046.09,-128.811"/>
</a>
<a xlink:href="http://latin.omdoc.org/logics/soundness?SForall" class="SForall">
<text text-anchor="middle" x="2035.5" y="-146.3" font-family="Times New Roman,serif" font-size="14.00">SForall</text>
</a>
</g>
<!-- http://latin.omdoc.org/logics/proof_theory?SForall&#45;&gt;http://latin.omdoc.org/foundations/hol?SFOL&#45;Pf -->
<g id="edge87" class="edge"><title>http://latin.omdoc.org/logics/proof_theory?SForall&#45;&gt;http://latin.omdoc.org/foundations/hol?SFOL&#45;Pf</title>
<a xlink:href="http://latin.omdoc.org/translations/sfol_hol?SForallPF" class="graphview">
<path fill="none" stroke="black" d="M1865.61,-181.61C1859.57,-179.456 1853.14,-177.431 1847,-176 1293.42,-46.8643 599.934,-23.8387 402.618,-19.8265"/>
<polygon fill="black" stroke="black" points="402.573,-16.325 392.506,-19.6289 402.436,-23.3237 402.573,-16.325"/>
</a>
<a xlink:href="http://latin.omdoc.org/translations/sfol_hol?SForallPF" class="SForallPF">
<text text-anchor="middle" x="1608" y="-102.3" font-family="Times New Roman,serif" font-size="14.00">SForallPF</text>
</a>
</g>
<!-- http://latin.omdoc.org/logics/proof_theory?SForall&#45;&gt;http://latin.omdoc.org/foundations/zfc?TypedZF -->
<g id="edge89" class="edge"><title>http://latin.omdoc.org/logics/proof_theory?SForall&#45;&gt;http://latin.omdoc.org/foundations/zfc?TypedZF</title>
<a xlink:href="http://latin.omdoc.org/foundations/minimal?SForallPF-ZF" class="graphview">
<path fill="none" stroke="black" d="M1866.56,-181.266C1844.38,-169.949 1813.87,-150.614 1798,-124 1784,-100.515 1781.54,-68.8946 1781.94,-46.5087"/>
<polygon fill="black" stroke="black" points="1785.44,-46.4629 1782.32,-36.3371 1778.45,-46.1969 1785.44,-46.4629"/>
</a>
<a xlink:href="http://latin.omdoc.org/foundations/minimal?SForallPF-ZF" class="SForallPF&#45;ZF">
<text text-anchor="middle" x="1837.5" y="-102.3" font-family="Times New Roman,serif" font-size="14.00">SForallPF&#45;ZF</text>
</a>
</g>
<!-- http://latin.omdoc.org/logics/proof_theory?SForall&#45;&gt;http://latin.omdoc.org/logics/proof_theory?SIFOL -->
<g id="edge91" class="edge"><title>http://latin.omdoc.org/logics/proof_theory?SForall&#45;&gt;http://latin.omdoc.org/logics/proof_theory?SIFOL</title>
<a class="graphinclude">
<path fill="none" stroke="black" d="M1866.19,-181.387C1860,-179.188 1853.36,-177.201 1847,-176 1745.99,-156.916 1024.66,-163.22 922,-158 738.061,-148.648 689.322,-161.481 509,-124 504.859,-123.139 500.588,-122.037 496.367,-120.808"/>
<polygon fill="black" stroke="black" points="497.284,-117.427 486.695,-117.764 495.183,-124.105 497.284,-117.427"/>
</a>
</g>
<!-- http://latin.omdoc.org/logics/proof_theory?SForall&#45;&gt;http://latin.omdoc.org/translations/sfol_hol?SIFOLPF -->
<g id="edge93" class="edge"><title>http://latin.omdoc.org/logics/proof_theory?SForall&#45;&gt;http://latin.omdoc.org/translations/sfol_hol?SIFOLPF</title>
<a class="graphinclude">
<path fill="none" stroke="black" d="M1866.18,-181.39C1859.99,-179.191 1853.36,-177.203 1847,-176 1749.49,-157.542 1047.94,-190.002 954,-158 936.997,-152.208 920.702,-140.556 908.222,-129.851"/>
<polygon fill="black" stroke="black" points="910.385,-127.09 900.602,-123.024 905.714,-132.303 910.385,-127.09"/>
</a>
</g>
<!-- http://latin.omdoc.org/logics/proof_theory?SIFOL&#45;&gt;http://latin.omdoc.org/foundations/hol?SFOL&#45;Pf -->
<g id="edge81" class="edge"><title>http://latin.omdoc.org/logics/proof_theory?SIFOL&#45;&gt;http://latin.omdoc.org/foundations/hol?SFOL&#45;Pf</title>
<a xlink:href="http://latin.omdoc.org/translations/sfol_hol?SIFOLPF" class="graphview">
<path fill="none" stroke="black" d="M442.412,-89.7143C430.83,-79.28 414.845,-65.3464 400,-54 393.495,-49.0282 386.323,-43.9558 379.437,-39.2713"/>
<polygon fill="black" stroke="black" points="381.196,-36.2372 370.939,-33.5819 377.301,-42.0538 381.196,-36.2372"/>
</a>
<a xlink:href="http://latin.omdoc.org/translations/sfol_hol?SIFOLPF" class="SIFOLPF">
<text text-anchor="middle" x="447.5" y="-58.3" font-family="Times New Roman,serif" font-size="14.00">SIFOLPF</text>
</a>
</g>
<!-- http://latin.omdoc.org/logics/proof_theory?SIFOL&#45;&gt;http://latin.omdoc.org/foundations/zfc?TypedZF -->
<g id="edge79" class="edge"><title>http://latin.omdoc.org/logics/proof_theory?SIFOL&#45;&gt;http://latin.omdoc.org/foundations/zfc?TypedZF</title>
<a xlink:href="http://latin.omdoc.org/foundations/minimal?SIFOLPF-ZF" class="graphview">
<path fill="none" stroke="black" d="M484.03,-92.8383C510.96,-80.4383 555.399,-61.931 596,-54 707.697,-32.1811 1509.22,-21.9746 1728.61,-19.5704"/>
<polygon fill="black" stroke="black" points="1728.65,-23.0703 1738.61,-19.4618 1728.57,-16.0707 1728.65,-23.0703"/>
</a>
<a xlink:href="http://latin.omdoc.org/foundations/minimal?SIFOLPF-ZF" class="SIFOLPF&#45;ZF">
<text text-anchor="middle" x="635" y="-58.3" font-family="Times New Roman,serif" font-size="14.00">SIFOLPF&#45;ZF</text>
</a>
</g>
<!-- http://latin.omdoc.org/logics/proof_theory?SIFOL&#45;&gt;http://latin.omdoc.org/logics/proof_theory?SFOL -->
<g id="edge83" class="edge"><title>http://latin.omdoc.org/logics/proof_theory?SIFOL&#45;&gt;http://latin.omdoc.org/logics/proof_theory?SFOL</title>
<a class="graphinclude">
<path fill="none" stroke="black" d="M430.659,-94.5745C423.64,-92.2121 416.096,-89.8559 409,-88 291.439,-57.2531 149.478,-34.8394 80.1864,-24.8238"/>
<polygon fill="black" stroke="black" points="80.4979,-21.3328 70.1028,-23.3799 79.5057,-28.2621 80.4979,-21.3328"/>
</a>
</g>
<!-- http://latin.omdoc.org/logics/proof_theory?SExists&#45;&gt;http://latin.omdoc.org/foundations/hol?SFOL&#45;Pf -->
<g id="edge73" class="edge"><title>http://latin.omdoc.org/logics/proof_theory?SExists&#45;&gt;http://latin.omdoc.org/foundations/hol?SFOL&#45;Pf</title>
<a xlink:href="http://latin.omdoc.org/translations/sfol_hol?SExistsPF" class="graphview">
<path fill="none" stroke="black" d="M531.259,-181.876C572.885,-163.862 642.708,-126.434 613,-88 599.706,-70.8012 470.144,-42.9579 397.233,-28.4587"/>
<polygon fill="black" stroke="black" points="397.828,-25.0086 387.339,-26.5038 396.471,-31.8759 397.828,-25.0086"/>
</a>
<a xlink:href="http://latin.omdoc.org/translations/sfol_hol?SExistsPF" class="SExistsPF">
<text text-anchor="middle" x="650.5" y="-102.3" font-family="Times New Roman,serif" font-size="14.00">SExistsPF</text>
</a>
</g>
<!-- http://latin.omdoc.org/logics/proof_theory?SExists&#45;&gt;http://latin.omdoc.org/foundations/zfc?TypedZF -->
<g id="edge71" class="edge"><title>http://latin.omdoc.org/logics/proof_theory?SExists&#45;&gt;http://latin.omdoc.org/foundations/zfc?TypedZF</title>
<a xlink:href="http://latin.omdoc.org/foundations/minimal?SExistsPF-ZF" class="graphview">
<path fill="none" stroke="black" d="M532.302,-182.301C538.157,-180.191 544.268,-178.01 550,-176 573.476,-167.769 579.739,-166.82 603,-158 639.507,-144.158 648.871,-141.039 684,-124 713.713,-109.588 717.319,-97.3223 749,-88 935.194,-33.211 1541.6,-21.7682 1728.59,-19.52"/>
<polygon fill="black" stroke="black" points="1728.78,-23.0181 1738.74,-19.4021 1728.7,-16.0186 1728.78,-23.0181"/>
</a>
<a xlink:href="http://latin.omdoc.org/foundations/minimal?SExistsPF-ZF" class="SExistsPF&#45;ZF">
<text text-anchor="middle" x="789" y="-102.3" font-family="Times New Roman,serif" font-size="14.00">SExistsPF&#45;ZF</text>
</a>
</g>
<!-- http://latin.omdoc.org/logics/proof_theory?SExists&#45;&gt;http://latin.omdoc.org/logics/proof_theory?SIFOL -->
<g id="edge75" class="edge"><title>http://latin.omdoc.org/logics/proof_theory?SExists&#45;&gt;http://latin.omdoc.org/logics/proof_theory?SIFOL</title>
<a class="graphinclude">
<path fill="none" stroke="black" d="M494.516,-176.418C488.186,-164.045 479.418,-146.907 472.177,-132.755"/>
<polygon fill="black" stroke="black" points="475.128,-130.839 467.458,-123.531 468.897,-134.027 475.128,-130.839"/>
</a>
</g>
<!-- http://latin.omdoc.org/logics/proof_theory?SExists&#45;&gt;http://latin.omdoc.org/translations/sfol_hol?SIFOLPF -->
<g id="edge77" class="edge"><title>http://latin.omdoc.org/logics/proof_theory?SExists&#45;&gt;http://latin.omdoc.org/translations/sfol_hol?SIFOLPF</title>
<a class="graphinclude">
<path fill="none" stroke="black" d="M530.982,-181.541C537.158,-179.391 543.73,-177.386 550,-176 638.874,-156.356 666.582,-183.349 754,-158 768.891,-153.682 770.759,-148.132 785,-142 802.512,-134.46 822.238,-127.288 839.513,-121.422"/>
<polygon fill="black" stroke="black" points="840.993,-124.617 849.366,-118.126 838.772,-117.979 840.993,-124.617"/>
</a>
</g>
<!-- http://latin.omdoc.org/logics/proof_theory?Base -->
<g id="node37" class="node"><title>http://latin.omdoc.org/logics/proof_theory?Base</title>
<a xlink:href="http://latin.omdoc.org/logics/proof_theory?Base" class="graphtheory">
<ellipse fill="gray" stroke="black" cx="328" cy="-356" rx="28.3955" ry="18"/>
<text text-anchor="middle" x="328" y="-352.3" font-family="Times New Roman,serif" font-size="14.00">Base</text>
</a>
</g>
<!-- http://latin.omdoc.org/logics/proof_theory?Base&#45;&gt;http://latin.omdoc.org/logics/proof_theory?BaseSFOL -->
<g id="edge37" class="edge"><title>http://latin.omdoc.org/logics/proof_theory?Base&#45;&gt;http://latin.omdoc.org/logics/proof_theory?BaseSFOL</title>
<a class="graphinclude">
<path fill="none" stroke="black" d="M353.17,-347.562C381.781,-338.902 429.738,-323.761 470,-308 475.444,-305.869 481.124,-303.481 486.68,-301.049"/>
<polygon fill="black" stroke="black" points="488.147,-304.227 495.849,-296.951 485.291,-297.836 488.147,-304.227"/>
</a>
</g>
<!-- http://latin.omdoc.org/logics/proof_theory?Base&#45;&gt;http://latin.omdoc.org/foundations/hol?SFOL&#45;Pf -->
<g id="edge69" class="edge"><title>http://latin.omdoc.org/logics/proof_theory?Base&#45;&gt;http://latin.omdoc.org/foundations/hol?SFOL&#45;Pf</title>
<a xlink:href="http://latin.omdoc.org/translations/prop_hol?BasePF" class="graphview">
<path fill="none" stroke="black" d="M305.538,-344.869C254.032,-320.075 134.415,-252.738 169,-176 198.256,-111.087 269.179,-62.4499 312.454,-37.5736"/>
<polygon fill="black" stroke="black" points="314.244,-40.5823 321.244,-32.6286 310.812,-34.4814 314.244,-40.5823"/>
</a>
<a xlink:href="http://latin.omdoc.org/translations/prop_hol?BasePF" class="BasePF">
<text text-anchor="middle" x="191" y="-190.3" font-family="Times New Roman,serif" font-size="14.00">BasePF</text>
</a>
</g>
<!-- http://latin.omdoc.org/logics/syntax?BaseSFOL -->
<g id="node39" class="node"><title>http://latin.omdoc.org/logics/syntax?BaseSFOL</title>
<a xlink:href="http://latin.omdoc.org/logics/syntax?BaseSFOL" class="graphtheory">
<ellipse fill="gray" stroke="black" cx="2044" cy="-356" rx="51.0191" ry="18"/>
<text text-anchor="middle" x="2044" y="-352.3" font-family="Times New Roman,serif" font-size="14.00">BaseSFOL</text>
</a>
</g>
<!-- http://latin.omdoc.org/logics/syntax?BaseSFOL&#45;&gt;http://latin.omdoc.org/logics/proof_theory?BaseSFOL -->
<g id="edge39" class="edge"><title>http://latin.omdoc.org/logics/syntax?BaseSFOL&#45;&gt;http://latin.omdoc.org/logics/proof_theory?BaseSFOL</title>
<a class="graphinclude">
<path fill="none" stroke="black" d="M1992.96,-354.549C1750.34,-352.247 719.683,-340.612 580,-308 573.632,-306.513 567.104,-304.268 560.871,-301.722"/>
<polygon fill="black" stroke="black" points="561.948,-298.371 551.385,-297.539 559.123,-304.776 561.948,-298.371"/>
</a>
</g>
<!-- http://latin.omdoc.org/logics/syntax?BaseSFOL&#45;&gt;http://latin.omdoc.org/logics/model_theory?SFOLMOD -->
<g id="edge65" class="edge"><title>http://latin.omdoc.org/logics/syntax?BaseSFOL&#45;&gt;http://latin.omdoc.org/logics/model_theory?SFOLMOD</title>
<a xlink:href="http://latin.omdoc.org/logics/model_theory?BaseSFOL" class="graphview">
<path fill="none" stroke="black" d="M2041.43,-337.911C2038.49,-312.537 2036.35,-264.22 2056,-230 2062.82,-218.127 2074.64,-224.126 2081,-212 2093.59,-187.993 2092.23,-156.457 2088.88,-134.233"/>
<polygon fill="black" stroke="black" points="2092.28,-133.399 2087.12,-124.146 2085.39,-134.597 2092.28,-133.399"/>
</a>
<a xlink:href="http://latin.omdoc.org/logics/model_theory?BaseSFOL" class="BaseSFOL">
<text text-anchor="middle" x="2087.5" y="-234.3" font-family="Times New Roman,serif" font-size="14.00">BaseSFOL</text>
</a>
</g>
<!-- http://latin.omdoc.org/logics/syntax?BaseSFOL&#45;&gt;http://latin.omdoc.org/foundations/zfc?TypedZF -->
<g id="edge67" class="edge"><title>http://latin.omdoc.org/logics/syntax?BaseSFOL&#45;&gt;http://latin.omdoc.org/foundations/zfc?TypedZF</title>
<a xlink:href="http://latin.omdoc.org/foundations/minimal?BaseSFOL-ZF" class="graphview">
<path fill="none" stroke="black" d="M2091.6,-349.225C2130.46,-341.537 2179,-323.773 2179,-283 2179,-283 2179,-283 2179,-105 2179,-36.3304 1948.2,-22.3925 1839.44,-19.6366"/>
<polygon fill="black" stroke="black" points="1839.39,-16.1345 1829.31,-19.4033 1839.23,-23.1327 1839.39,-16.1345"/>
</a>
<a xlink:href="http://latin.omdoc.org/foundations/minimal?BaseSFOL-ZF" class="BaseSFOL&#45;ZF">
<text text-anchor="middle" x="2221" y="-190.3" font-family="Times New Roman,serif" font-size="14.00">BaseSFOL&#45;ZF</text>
</a>
</g>
<!-- http://cds.omdoc.org/urtheories?LF -->
<g id="node41" class="node"><title>http://cds.omdoc.org/urtheories?LF</title>
<a xlink:href="http://cds.omdoc.org/urtheories?LF" class="graphtheory">
<ellipse fill="gray" stroke="black" cx="410" cy="-430" rx="27" ry="18"/>
<text text-anchor="middle" x="410" y="-426.3" font-family="Times New Roman,serif" font-size="14.00">LF</text>
</a>
</g>
<!-- http://cds.omdoc.org/urtheories?LF&#45;&gt;http://latin.omdoc.org/logics/proof_theory?BaseSFOL -->
<g id="edge41" class="edge"><title>http://cds.omdoc.org/urtheories?LF&#45;&gt;http://latin.omdoc.org/logics/proof_theory?BaseSFOL</title>
<a class="graphmeta">
<path fill="none" stroke="black" d="M426.761,-415.508C433.978,-409.318 442.282,-401.661 449,-394 472.925,-366.716 495.804,-331.662 510.094,-308.321"/>
<polygon fill="black" stroke="black" points="513.133,-310.058 515.313,-299.69 507.143,-306.436 513.133,-310.058"/>
</a>
</g>
<!-- http://cds.omdoc.org/urtheories?LF&#45;&gt;http://latin.omdoc.org/logics/model_theory?SFOLMOD -->
<g id="edge47" class="edge"><title>http://cds.omdoc.org/urtheories?LF&#45;&gt;http://latin.omdoc.org/logics/model_theory?SFOLMOD</title>
<a class="graphmeta">
<path fill="none" stroke="black" d="M437.011,-428.939C618.945,-428.449 1667.92,-424.325 1986,-394 2053.07,-387.606 2133,-424.371 2133,-357 2133,-357 2133,-357 2133,-193 2133,-169.763 2119.19,-147.196 2106.08,-131.013"/>
<polygon fill="black" stroke="black" points="2108.53,-128.489 2099.37,-123.163 2103.21,-133.038 2108.53,-128.489"/>
</a>
</g>
<!-- http://cds.omdoc.org/urtheories?LF&#45;&gt;http://latin.omdoc.org/foundations/hol?SFOL&#45;Pf -->
<g id="edge63" class="edge"><title>http://cds.omdoc.org/urtheories?LF&#45;&gt;http://latin.omdoc.org/foundations/hol?SFOL&#45;Pf</title>
<a class="graphmeta">
<path fill="none" stroke="black" d="M382.786,-428.598C334.243,-427.182 230.022,-420.954 147,-394 129.22,-388.228 121.001,-389.114 110,-374 95.6363,-354.266 102.232,-344.306 100,-320 94.1486,-256.268 73.4928,-234.253 100,-176 137.186,-94.2791 240.66,-50.6781 301.562,-31.4351"/>
<polygon fill="black" stroke="black" points="302.783,-34.7217 311.318,-28.4454 300.732,-28.0289 302.783,-34.7217"/>
</a>
</g>
<!-- http://cds.omdoc.org/urtheories?LF&#45;&gt;http://latin.omdoc.org/foundations/zfc?TypedZF -->
<g id="edge51" class="edge"><title>http://cds.omdoc.org/urtheories?LF&#45;&gt;http://latin.omdoc.org/foundations/zfc?TypedZF</title>
<a class="graphmeta">
<path fill="none" stroke="black" d="M437.165,-428.954C624.813,-428.559 1730.97,-424.93 2066,-394 2166.91,-384.684 2291,-458.343 2291,-357 2291,-357 2291,-357 2291,-105 2291,-38.36 2215.02,-68.6209 2150,-54 2041.67,-29.6395 1911.58,-22.2247 1839.31,-19.9741"/>
<polygon fill="black" stroke="black" points="1839.18,-16.4688 1829.08,-19.6781 1838.97,-23.4659 1839.18,-16.4688"/>
</a>
</g>
<!-- http://cds.omdoc.org/urtheories?LF&#45;&gt;http://latin.omdoc.org/logics/proof_theory?FOL -->
<g id="edge55" class="edge"><title>http://cds.omdoc.org/urtheories?LF&#45;&gt;http://latin.omdoc.org/logics/proof_theory?FOL</title>
<a class="graphmeta">
<path fill="none" stroke="black" d="M383.654,-425.844C332.901,-418.183 222.493,-393.468 176,-320 153.377,-284.251 182.461,-264.463 207,-230 211.437,-223.768 217.282,-218.072 223.256,-213.167"/>
<polygon fill="black" stroke="black" points="225.527,-215.836 231.363,-206.993 221.286,-210.267 225.527,-215.836"/>
</a>
</g>
<!-- http://cds.omdoc.org/urtheories?LF&#45;&gt;http://latin.omdoc.org/logics/proof_theory?SEqual -->
<g id="edge59" class="edge"><title>http://cds.omdoc.org/urtheories?LF&#45;&gt;http://latin.omdoc.org/logics/proof_theory?SEqual</title>
<a class="graphmeta">
<path fill="none" stroke="black" d="M410,-411.793C410,-371.562 410,-271.077 410,-222.351"/>
<polygon fill="black" stroke="black" points="413.5,-222.232 410,-212.232 406.5,-222.232 413.5,-222.232"/>
</a>
</g>
<!-- http://cds.omdoc.org/urtheories?LF&#45;&gt;http://latin.omdoc.org/logics/proof_theory?SForall -->
<g id="edge61" class="edge"><title>http://cds.omdoc.org/urtheories?LF&#45;&gt;http://latin.omdoc.org/logics/proof_theory?SForall</title>
<a class="graphmeta">
<path fill="none" stroke="black" d="M436.96,-427.831C631.223,-419.138 1812.52,-361.693 1915,-246 1921.78,-238.342 1919.17,-228.272 1913.77,-219.104"/>
<polygon fill="black" stroke="black" points="1916.53,-216.94 1907.97,-210.7 1910.77,-220.918 1916.53,-216.94"/>
</a>
</g>
<!-- http://cds.omdoc.org/urtheories?LF&#45;&gt;http://latin.omdoc.org/logics/proof_theory?SIFOL -->
<g id="edge49" class="edge"><title>http://cds.omdoc.org/urtheories?LF&#45;&gt;http://latin.omdoc.org/logics/proof_theory?SIFOL</title>
<a class="graphmeta">
<path fill="none" stroke="black" d="M382.947,-428.167C309.876,-425.189 114,-412.069 114,-357 114,-357 114,-357 114,-193 114,-123.726 351.15,-142.165 418,-124 419.896,-123.485 421.821,-122.903 423.751,-122.274"/>
<polygon fill="black" stroke="black" points="425.107,-125.506 433.323,-118.816 422.728,-118.923 425.107,-125.506"/>
</a>
</g>
<!-- http://cds.omdoc.org/urtheories?LF&#45;&gt;http://latin.omdoc.org/logics/proof_theory?SExists -->
<g id="edge45" class="edge"><title>http://cds.omdoc.org/urtheories?LF&#45;&gt;http://latin.omdoc.org/logics/proof_theory?SExists</title>
<a class="graphmeta">
<path fill="none" stroke="black" d="M415.346,-412.292C417.171,-406.508 419.204,-399.978 421,-394 442.813,-321.382 429.522,-295.334 468,-230 470.657,-225.488 474.033,-221.141 477.634,-217.136"/>
<polygon fill="black" stroke="black" points="480.218,-219.499 484.707,-209.902 475.214,-214.605 480.218,-219.499"/>
</a>
</g>
<!-- http://cds.omdoc.org/urtheories?LF&#45;&gt;http://latin.omdoc.org/logics/proof_theory?SFOL -->
<g id="edge43" class="edge"><title>http://cds.omdoc.org/urtheories?LF&#45;&gt;http://latin.omdoc.org/logics/proof_theory?SFOL</title>
<a class="graphmeta">
<path fill="none" stroke="black" d="M383.099,-427.134C291.885,-420.453 0,-396.026 0,-357 0,-357 0,-357 0,-105 0,-82.826 10.7,-59.9691 20.7443,-43.3977"/>
<polygon fill="black" stroke="black" points="23.7502,-45.1936 26.1849,-34.8823 17.8514,-41.4248 23.7502,-45.1936"/>
</a>
</g>
<!-- http://cds.omdoc.org/urtheories?LF&#45;&gt;http://latin.omdoc.org/logics/proof_theory?Base -->
<g id="edge53" class="edge"><title>http://cds.omdoc.org/urtheories?LF&#45;&gt;http://latin.omdoc.org/logics/proof_theory?Base</title>
<a class="graphmeta">
<path fill="none" stroke="black" d="M394.19,-415.118C382.129,-404.528 365.321,-389.77 351.661,-377.776"/>
<polygon fill="black" stroke="black" points="353.865,-375.053 344.042,-371.085 349.247,-380.313 353.865,-375.053"/>
</a>
</g>
<!-- http://cds.omdoc.org/urtheories?LF&#45;&gt;http://latin.omdoc.org/logics/syntax?BaseSFOL -->
<g id="edge57" class="edge"><title>http://cds.omdoc.org/urtheories?LF&#45;&gt;http://latin.omdoc.org/logics/syntax?BaseSFOL</title>
<a class="graphmeta">
<path fill="none" stroke="black" d="M437.233,-429.09C632.299,-429.639 1813.69,-431.398 1968,-394 1982.8,-390.412 1998.1,-383.65 2011.05,-376.879"/>
<polygon fill="black" stroke="black" points="2012.92,-379.847 2020.03,-371.991 2009.57,-373.699 2012.92,-379.847"/>
</a>
</g>
</g>
</svg>
