<?xml version="1.0" encoding="UTF-8" standalone="no"?>
<!DOCTYPE svg PUBLIC "-//W3C//DTD SVG 1.1//EN"
 "http://www.w3.org/Graphics/SVG/1.1/DTD/svg11.dtd">
<!-- Generated by graphviz version 2.28.0 (20110507.0327)
 -->
<!-- Title: MMT Pages: 1 -->
<svg
 viewBox="0.00 0.00 420.00 354.00" xmlns="http://www.w3.org/2000/svg" xmlns:xlink="http://www.w3.org/1999/xlink">
<g id="graph1" class="graph" transform="scale(1 1) rotate(0) translate(4 350)">
<title>MMT</title>
<polygon fill="white" stroke="white" points="-4,5 -4,-350 417,-350 417,5 -4,5"/>
<g id="graph2" class="cluster"><title>cluster_local</title>
<polygon fill="none" stroke="black" points="138,-154 138,-206 234,-206 234,-154 138,-154"/>
</g>
<!-- http://latin.omdoc.org/logics/proof_theory?DLBase -->
<g id="node2" class="node"><title>http://latin.omdoc.org/logics/proof_theory?DLBase</title>
<a xlink:href="http://latin.omdoc.org/logics/proof_theory?DLBase" class="graphtheory">
<ellipse fill="none" stroke="black" cx="186" cy="-180" rx="39.9464" ry="18"/>
<text text-anchor="middle" x="186" y="-176.3" font-family="Times New Roman,serif" font-size="14.00">DLBase</text>
</a>
</g>
<!-- http://latin.omdoc.org/logics/proof_theory?FOL -->
<g id="node3" class="node"><title>http://latin.omdoc.org/logics/proof_theory?FOL</title>
<a xlink:href="http://latin.omdoc.org/logics/proof_theory?FOL" class="graphtheory">
<ellipse fill="gray" stroke="black" cx="211" cy="-92" rx="28.3955" ry="18"/>
<text text-anchor="middle" x="211" y="-88.3" font-family="Times New Roman,serif" font-size="14.00">FOL</text>
</a>
</g>
<!-- http://latin.omdoc.org/logics/proof_theory?DLBase&#45;&gt;http://latin.omdoc.org/logics/proof_theory?FOL -->
<g id="edge3" class="edge"><title>http://latin.omdoc.org/logics/proof_theory?DLBase&#45;&gt;http://latin.omdoc.org/logics/proof_theory?FOL</title>
<a xlink:href="http://latin.omdoc.org/logics/soundness?DLBase" class="graphview">
<path fill="none" stroke="black" d="M184.403,-161.6C184.037,-151.55 184.537,-138.8 188,-128 189.179,-124.322 190.86,-120.663 192.782,-117.174"/>
<polygon fill="black" stroke="black" points="195.913,-118.769 198.26,-108.437 189.982,-115.051 195.913,-118.769"/>
</a>
<a xlink:href="http://latin.omdoc.org/logics/soundness?DLBase" class="DLBase">
<text text-anchor="middle" x="211" y="-132.3" font-family="Times New Roman,serif" font-size="14.00">DLBase</text>
</a>
</g>
<!-- http://latin.omdoc.org/logics/proof_theory?DL -->
<g id="node5" class="node"><title>http://latin.omdoc.org/logics/proof_theory?DL</title>
<a xlink:href="http://latin.omdoc.org/logics/proof_theory?DL" class="graphtheory">
<ellipse fill="gray" stroke="black" cx="193" cy="-18" rx="27" ry="18"/>
<text text-anchor="middle" x="193" y="-14.3" font-family="Times New Roman,serif" font-size="14.00">DL</text>
</a>
</g>
<!-- http://latin.omdoc.org/logics/proof_theory?DLBase&#45;&gt;http://latin.omdoc.org/logics/proof_theory?DL -->
<g id="edge5" class="edge"><title>http://latin.omdoc.org/logics/proof_theory?DLBase&#45;&gt;http://latin.omdoc.org/logics/proof_theory?DL</title>
<a class="graphinclude">
<path fill="none" stroke="black" d="M180.75,-161.824C175.093,-140.965 167.582,-104.753 173,-74 174.716,-64.258 178.02,-53.971 181.455,-44.9626"/>
<polygon fill="black" stroke="black" points="184.805,-46.0149 185.312,-35.4322 178.316,-43.3889 184.805,-46.0149"/>
</a>
</g>
<!-- http://latin.omdoc.org/logics/proof_theory?FL0 -->
<g id="node7" class="node"><title>http://latin.omdoc.org/logics/proof_theory?FL0</title>
<a xlink:href="http://latin.omdoc.org/logics/proof_theory?FL0" class="graphtheory">
<ellipse fill="gray" stroke="black" cx="27" cy="-92" rx="27" ry="18"/>
<text text-anchor="middle" x="27" y="-88.3" font-family="Times New Roman,serif" font-size="14.00">FL0</text>
</a>
</g>
<!-- http://latin.omdoc.org/logics/proof_theory?DLBase&#45;&gt;http://latin.omdoc.org/logics/proof_theory?FL0 -->
<g id="edge7" class="edge"><title>http://latin.omdoc.org/logics/proof_theory?DLBase&#45;&gt;http://latin.omdoc.org/logics/proof_theory?FL0</title>
<a class="graphinclude">
<path fill="none" stroke="black" d="M162.322,-165.38C155.762,-161.652 148.623,-157.637 142,-154 113.272,-138.224 80.1882,-120.746 56.9022,-108.558"/>
<polygon fill="black" stroke="black" points="58.3563,-105.369 47.8724,-103.839 55.1144,-111.573 58.3563,-105.369"/>
</a>
</g>
<!-- http://latin.omdoc.org/logics/proof_theory?E -->
<g id="node9" class="node"><title>http://latin.omdoc.org/logics/proof_theory?E</title>
<a xlink:href="http://latin.omdoc.org/logics/proof_theory?E" class="graphtheory">
<ellipse fill="gray" stroke="black" cx="357" cy="-92" rx="27" ry="18"/>
<text text-anchor="middle" x="357" y="-88.3" font-family="Times New Roman,serif" font-size="14.00">E</text>
</a>
</g>
<!-- http://latin.omdoc.org/logics/proof_theory?DLBase&#45;&gt;http://latin.omdoc.org/logics/proof_theory?E -->
<g id="edge9" class="edge"><title>http://latin.omdoc.org/logics/proof_theory?DLBase&#45;&gt;http://latin.omdoc.org/logics/proof_theory?E</title>
<a class="graphinclude">
<path fill="none" stroke="black" d="M208.921,-165.047C215.601,-161.237 222.991,-157.263 230,-154 241.601,-148.599 245.28,-149.138 257,-144 281.235,-133.375 307.894,-119.674 327.587,-109.149"/>
<polygon fill="black" stroke="black" points="329.511,-112.088 336.654,-104.264 326.191,-105.925 329.511,-112.088"/>
</a>
</g>
<!-- http://latin.omdoc.org/logics/proof_theory?U -->
<g id="node11" class="node"><title>http://latin.omdoc.org/logics/proof_theory?U</title>
<a xlink:href="http://latin.omdoc.org/logics/proof_theory?U" class="graphtheory">
<ellipse fill="gray" stroke="black" cx="99" cy="-92" rx="27" ry="18"/>
<text text-anchor="middle" x="99" y="-88.3" font-family="Times New Roman,serif" font-size="14.00">U</text>
</a>
</g>
<!-- http://latin.omdoc.org/logics/proof_theory?DLBase&#45;&gt;http://latin.omdoc.org/logics/proof_theory?U -->
<g id="edge11" class="edge"><title>http://latin.omdoc.org/logics/proof_theory?DLBase&#45;&gt;http://latin.omdoc.org/logics/proof_theory?U</title>
<a class="graphinclude">
<path fill="none" stroke="black" d="M166.117,-164.014C158.622,-158.061 150.179,-150.976 143,-144 134.139,-135.389 125.098,-125.199 117.534,-116.2"/>
<polygon fill="black" stroke="black" points="120.117,-113.831 111.05,-108.349 114.719,-118.289 120.117,-113.831"/>
</a>
</g>
<!-- http://latin.omdoc.org/logics/proof_theory?C -->
<g id="node13" class="node"><title>http://latin.omdoc.org/logics/proof_theory?C</title>
<a xlink:href="http://latin.omdoc.org/logics/proof_theory?C" class="graphtheory">
<ellipse fill="gray" stroke="black" cx="285" cy="-92" rx="27" ry="18"/>
<text text-anchor="middle" x="285" y="-88.3" font-family="Times New Roman,serif" font-size="14.00">C</text>
</a>
</g>
<!-- http://latin.omdoc.org/logics/proof_theory?DLBase&#45;&gt;http://latin.omdoc.org/logics/proof_theory?C -->
<g id="edge13" class="edge"><title>http://latin.omdoc.org/logics/proof_theory?DLBase&#45;&gt;http://latin.omdoc.org/logics/proof_theory?C</title>
<a class="graphinclude">
<path fill="none" stroke="black" d="M207.571,-164.353C216.036,-158.329 225.693,-151.107 234,-144 244.407,-135.096 255.23,-124.491 264.215,-115.264"/>
<polygon fill="black" stroke="black" points="266.88,-117.542 271.28,-107.905 261.83,-112.695 266.88,-117.542"/>
</a>
</g>
<!-- http://latin.omdoc.org/logics/proof_theory?FL0&#45;&gt;http://latin.omdoc.org/logics/proof_theory?DL -->
<g id="edge41" class="edge"><title>http://latin.omdoc.org/logics/proof_theory?FL0&#45;&gt;http://latin.omdoc.org/logics/proof_theory?DL</title>
<a class="graphinclude">
<path fill="none" stroke="black" d="M48.2537,-80.7872C53.0843,-78.5152 58.2051,-76.1454 63,-74 96.1249,-59.1791 134.426,-43.1014 160.831,-32.18"/>
<polygon fill="black" stroke="black" points="162.424,-35.3092 170.333,-28.2601 159.754,-28.8382 162.424,-35.3092"/>
</a>
</g>
<!-- http://latin.omdoc.org/logics/proof_theory?E&#45;&gt;http://latin.omdoc.org/logics/proof_theory?DL -->
<g id="edge39" class="edge"><title>http://latin.omdoc.org/logics/proof_theory?E&#45;&gt;http://latin.omdoc.org/logics/proof_theory?DL</title>
<a class="graphinclude">
<path fill="none" stroke="black" d="M335.737,-80.807C330.907,-78.5341 325.789,-76.1588 321,-74 288.348,-59.2809 250.642,-43.1872 224.654,-32.2342"/>
<polygon fill="black" stroke="black" points="225.878,-28.9519 215.303,-28.3017 223.164,-35.4046 225.878,-28.9519"/>
</a>
</g>
<!-- http://latin.omdoc.org/logics/proof_theory?U&#45;&gt;http://latin.omdoc.org/logics/proof_theory?DL -->
<g id="edge37" class="edge"><title>http://latin.omdoc.org/logics/proof_theory?U&#45;&gt;http://latin.omdoc.org/logics/proof_theory?DL</title>
<a class="graphinclude">
<path fill="none" stroke="black" d="M113.717,-76.7321C121.326,-69.6144 130.903,-61.0443 140,-54 147.875,-47.9019 156.791,-41.7497 165.034,-36.3408"/>
<polygon fill="black" stroke="black" points="167.121,-39.1595 173.631,-30.801 163.33,-33.2751 167.121,-39.1595"/>
</a>
</g>
<!-- http://latin.omdoc.org/logics/proof_theory?C&#45;&gt;http://latin.omdoc.org/logics/proof_theory?DL -->
<g id="edge35" class="edge"><title>http://latin.omdoc.org/logics/proof_theory?C&#45;&gt;http://latin.omdoc.org/logics/proof_theory?DL</title>
<a class="graphinclude">
<path fill="none" stroke="black" d="M268.126,-77.7941C253.99,-66.7313 233.621,-50.7901 217.657,-38.2969"/>
<polygon fill="black" stroke="black" points="219.799,-35.529 209.767,-32.1222 215.485,-41.0416 219.799,-35.529"/>
</a>
</g>
<!-- http://latin.omdoc.org/logics/syntax?DLBase -->
<g id="node15" class="node"><title>http://latin.omdoc.org/logics/syntax?DLBase</title>
<a xlink:href="http://latin.omdoc.org/logics/syntax?DLBase" class="graphtheory">
<ellipse fill="gray" stroke="black" cx="167" cy="-254" rx="39.9464" ry="18"/>
<text text-anchor="middle" x="167" y="-250.3" font-family="Times New Roman,serif" font-size="14.00">DLBase</text>
</a>
</g>
<!-- http://latin.omdoc.org/logics/syntax?DLBase&#45;&gt;http://latin.omdoc.org/logics/proof_theory?DLBase -->
<g id="edge15" class="edge"><title>http://latin.omdoc.org/logics/syntax?DLBase&#45;&gt;http://latin.omdoc.org/logics/proof_theory?DLBase</title>
<a class="graphinclude">
<path fill="none" stroke="black" d="M171.503,-235.937C173.727,-227.508 176.462,-217.143 178.955,-207.696"/>
<polygon fill="black" stroke="black" points="182.362,-208.503 181.53,-197.941 175.594,-206.716 182.362,-208.503"/>
</a>
</g>
<!-- http://latin.omdoc.org/logics/syntax?DLBase&#45;&gt;http://latin.omdoc.org/logics/proof_theory?FL0 -->
<g id="edge33" class="edge"><title>http://latin.omdoc.org/logics/syntax?DLBase&#45;&gt;http://latin.omdoc.org/logics/proof_theory?FL0</title>
<a class="graphinclude">
<path fill="none" stroke="black" d="M153.064,-237.074C128.071,-208.509 75.5573,-148.494 46.8227,-115.655"/>
<polygon fill="black" stroke="black" points="49.2799,-113.148 40.0608,-107.927 44.0119,-117.757 49.2799,-113.148"/>
</a>
</g>
<!-- http://cds.omdoc.org/urtheories?LF -->
<g id="node17" class="node"><title>http://cds.omdoc.org/urtheories?LF</title>
<a xlink:href="http://cds.omdoc.org/urtheories?LF" class="graphtheory">
<ellipse fill="gray" stroke="black" cx="254" cy="-328" rx="27" ry="18"/>
<text text-anchor="middle" x="254" y="-324.3" font-family="Times New Roman,serif" font-size="14.00">LF</text>
</a>
</g>
<!-- http://cds.omdoc.org/urtheories?LF&#45;&gt;http://latin.omdoc.org/logics/proof_theory?DLBase -->
<g id="edge17" class="edge"><title>http://cds.omdoc.org/urtheories?LF&#45;&gt;http://latin.omdoc.org/logics/proof_theory?DLBase</title>
<a class="graphmeta">
<path fill="none" stroke="black" d="M247.642,-310.333C240.476,-291.909 228.223,-261.468 216,-236 211.32,-226.248 205.748,-215.772 200.684,-206.607"/>
<polygon fill="black" stroke="black" points="203.589,-204.63 195.649,-197.615 197.481,-208.05 203.589,-204.63"/>
</a>
</g>
<!-- http://cds.omdoc.org/urtheories?LF&#45;&gt;http://latin.omdoc.org/logics/proof_theory?FOL -->
<g id="edge27" class="edge"><title>http://cds.omdoc.org/urtheories?LF&#45;&gt;http://latin.omdoc.org/logics/proof_theory?FOL</title>
<a class="graphmeta">
<path fill="none" stroke="black" d="M255.88,-310.006C259.104,-274.673 263.121,-191.305 238,-128 236.376,-123.907 234.124,-119.891 231.606,-116.123"/>
<polygon fill="black" stroke="black" points="234.216,-113.769 225.422,-107.86 228.612,-117.963 234.216,-113.769"/>
</a>
</g>
<!-- http://cds.omdoc.org/urtheories?LF&#45;&gt;http://latin.omdoc.org/logics/proof_theory?DL -->
<g id="edge21" class="edge"><title>http://cds.omdoc.org/urtheories?LF&#45;&gt;http://latin.omdoc.org/logics/proof_theory?DL</title>
<a class="graphmeta">
<path fill="none" stroke="black" d="M281.161,-326.474C326.336,-324.002 412,-311.822 412,-255 412,-255 412,-255 412,-91 412,-53.0713 291.955,-31.8384 229.621,-23.3698"/>
<polygon fill="black" stroke="black" points="229.788,-19.8616 219.417,-22.0274 228.875,-26.8019 229.788,-19.8616"/>
</a>
</g>
<!-- http://cds.omdoc.org/urtheories?LF&#45;&gt;http://latin.omdoc.org/logics/proof_theory?FL0 -->
<g id="edge23" class="edge"><title>http://cds.omdoc.org/urtheories?LF&#45;&gt;http://latin.omdoc.org/logics/proof_theory?FL0</title>
<a class="graphmeta">
<path fill="none" stroke="black" d="M227.085,-325.426C191.763,-321.851 130.355,-310.165 97,-272 57.9286,-227.294 39.3535,-158.258 31.6582,-120.312"/>
<polygon fill="black" stroke="black" points="35.0086,-119.199 29.6881,-110.037 28.1338,-120.517 35.0086,-119.199"/>
</a>
</g>
<!-- http://cds.omdoc.org/urtheories?LF&#45;&gt;http://latin.omdoc.org/logics/proof_theory?E -->
<g id="edge19" class="edge"><title>http://cds.omdoc.org/urtheories?LF&#45;&gt;http://latin.omdoc.org/logics/proof_theory?E</title>
<a class="graphmeta">
<path fill="none" stroke="black" d="M274.121,-315.691C283.533,-309.624 294.331,-301.449 302,-292 343.16,-241.288 353.591,-161.947 356.185,-120.425"/>
<polygon fill="black" stroke="black" points="359.69,-120.414 356.709,-110.247 352.699,-120.054 359.69,-120.414"/>
</a>
</g>
<!-- http://cds.omdoc.org/urtheories?LF&#45;&gt;http://latin.omdoc.org/logics/proof_theory?U -->
<g id="edge29" class="edge"><title>http://cds.omdoc.org/urtheories?LF&#45;&gt;http://latin.omdoc.org/logics/proof_theory?U</title>
<a class="graphmeta">
<path fill="none" stroke="black" d="M227.372,-324.295C195.791,-319.556 144.146,-306.671 118,-272 84.5196,-227.602 88.402,-158.446 93.883,-120.398"/>
<polygon fill="black" stroke="black" points="97.4076,-120.518 95.5185,-110.093 90.4941,-119.421 97.4076,-120.518"/>
</a>
</g>
<!-- http://cds.omdoc.org/urtheories?LF&#45;&gt;http://latin.omdoc.org/logics/proof_theory?C -->
<g id="edge31" class="edge"><title>http://cds.omdoc.org/urtheories?LF&#45;&gt;http://latin.omdoc.org/logics/proof_theory?C</title>
<a class="graphmeta">
<path fill="none" stroke="black" d="M270.998,-313.837C277.278,-307.922 283.671,-300.383 287,-292 309.952,-234.201 299.639,-159.301 291.493,-119.922"/>
<polygon fill="black" stroke="black" points="294.886,-119.051 289.334,-110.027 288.046,-120.543 294.886,-119.051"/>
</a>
</g>
<!-- http://cds.omdoc.org/urtheories?LF&#45;&gt;http://latin.omdoc.org/logics/syntax?DLBase -->
<g id="edge25" class="edge"><title>http://cds.omdoc.org/urtheories?LF&#45;&gt;http://latin.omdoc.org/logics/syntax?DLBase</title>
<a class="graphmeta">
<path fill="none" stroke="black" d="M237.636,-313.457C225.21,-303.174 207.864,-288.819 193.472,-276.908"/>
<polygon fill="black" stroke="black" points="195.334,-273.906 185.399,-270.227 190.871,-279.299 195.334,-273.906"/>
</a>
</g>
</g>
</svg>
