<?xml version="1.0" encoding="UTF-8" standalone="no"?>
<!DOCTYPE svg PUBLIC "-//W3C//DTD SVG 1.1//EN"
 "http://www.w3.org/Graphics/SVG/1.1/DTD/svg11.dtd">
<!-- Generated by graphviz version 2.28.0 (20110507.0327)
 -->
<!-- Title: MMT Pages: 1 -->
<svg
 viewBox="0.00 0.00 422.00 260.00" xmlns="http://www.w3.org/2000/svg" xmlns:xlink="http://www.w3.org/1999/xlink">
<g id="graph1" class="graph" transform="scale(1 1) rotate(0) translate(4 256)">
<title>MMT</title>
<polygon fill="white" stroke="white" points="-4,5 -4,-256 419,-256 419,5 -4,5"/>
<g id="graph2" class="cluster"><title>cluster_local</title>
<polygon fill="none" stroke="black" points="168,-64 168,-116 268,-116 268,-64 168,-64"/>
</g>
<!-- http://latin.omdoc.org/logics/proof_theory?EqLogic -->
<g id="node2" class="node"><title>http://latin.omdoc.org/logics/proof_theory?EqLogic</title>
<a xlink:href="http://latin.omdoc.org/logics/proof_theory?EqLogic" class="graphtheory">
<ellipse fill="none" stroke="black" cx="218" cy="-90" rx="42.3701" ry="18"/>
<text text-anchor="middle" x="218" y="-86.3" font-family="Times New Roman,serif" font-size="14.00">EqLogic</text>
</a>
</g>
<!-- http://latin.omdoc.org/logics/proof_theory?InEqLogic -->
<g id="node3" class="node"><title>http://latin.omdoc.org/logics/proof_theory?InEqLogic</title>
<a xlink:href="http://latin.omdoc.org/logics/proof_theory?InEqLogic" class="graphtheory">
<ellipse fill="gray" stroke="black" cx="365" cy="-18" rx="49.0941" ry="18"/>
<text text-anchor="middle" x="365" y="-14.3" font-family="Times New Roman,serif" font-size="14.00">InEqLogic</text>
</a>
</g>
<!-- http://latin.omdoc.org/logics/proof_theory?EqLogic&#45;&gt;http://latin.omdoc.org/logics/proof_theory?InEqLogic -->
<g id="edge3" class="edge"><title>http://latin.omdoc.org/logics/proof_theory?EqLogic&#45;&gt;http://latin.omdoc.org/logics/proof_theory?InEqLogic</title>
<a class="graphinclude">
<path fill="none" stroke="black" d="M242.641,-75.1453C249.499,-71.4162 256.99,-67.4596 264,-64 283.643,-54.3052 305.841,-44.3123 324.415,-36.2133"/>
<polygon fill="black" stroke="black" points="325.98,-39.3496 333.764,-32.1623 323.197,-32.9266 325.98,-39.3496"/>
</a>
</g>
<!-- http://latin.omdoc.org/math?RelationEqLogic -->
<g id="node9" class="node"><title>http://latin.omdoc.org/math?RelationEqLogic</title>
<a xlink:href="http://latin.omdoc.org/math?RelationEqLogic" class="graphtheory">
<ellipse fill="gray" stroke="black" cx="71" cy="-18" rx="71.2405" ry="18"/>
<text text-anchor="middle" x="71" y="-14.3" font-family="Times New Roman,serif" font-size="14.00">RelationEqLogic</text>
</a>
</g>
<!-- http://latin.omdoc.org/logics/proof_theory?EqLogic&#45;&gt;http://latin.omdoc.org/math?RelationEqLogic -->
<g id="edge9" class="edge"><title>http://latin.omdoc.org/logics/proof_theory?EqLogic&#45;&gt;http://latin.omdoc.org/math?RelationEqLogic</title>
<a class="graphmeta">
<path fill="none" stroke="black" d="M191.038,-76.1609C168.989,-65.6614 137.448,-50.6419 112.23,-38.6335"/>
<polygon fill="black" stroke="black" points="113.442,-35.3337 102.908,-34.1943 110.432,-41.6538 113.442,-35.3337"/>
</a>
</g>
<!-- http://latin.omdoc.org/math?RingUnitLogic -->
<g id="node11" class="node"><title>http://latin.omdoc.org/math?RingUnitLogic</title>
<a xlink:href="http://latin.omdoc.org/math?RingUnitLogic" class="graphtheory">
<ellipse fill="gray" stroke="black" cx="224" cy="-18" rx="63.5411" ry="18"/>
<text text-anchor="middle" x="224" y="-14.3" font-family="Times New Roman,serif" font-size="14.00">RingUnitLogic</text>
</a>
</g>
<!-- http://latin.omdoc.org/logics/proof_theory?EqLogic&#45;&gt;http://latin.omdoc.org/math?RingUnitLogic -->
<g id="edge11" class="edge"><title>http://latin.omdoc.org/logics/proof_theory?EqLogic&#45;&gt;http://latin.omdoc.org/math?RingUnitLogic</title>
<a class="graphmeta">
<path fill="none" stroke="black" d="M219.483,-71.6966C220.144,-63.9827 220.939,-54.7125 221.676,-46.1124"/>
<polygon fill="black" stroke="black" points="225.167,-46.3667 222.534,-36.1043 218.193,-45.7689 225.167,-46.3667"/>
</a>
</g>
<!-- http://latin.omdoc.org/logics/syntax?UniverseLogic -->
<g id="node5" class="node"><title>http://latin.omdoc.org/logics/syntax?UniverseLogic</title>
<a xlink:href="http://latin.omdoc.org/logics/syntax?UniverseLogic" class="graphtheory">
<ellipse fill="gray" stroke="black" cx="213" cy="-162" rx="63.5411" ry="18"/>
<text text-anchor="middle" x="213" y="-158.3" font-family="Times New Roman,serif" font-size="14.00">UniverseLogic</text>
</a>
</g>
<!-- http://latin.omdoc.org/logics/syntax?UniverseLogic&#45;&gt;http://latin.omdoc.org/logics/proof_theory?EqLogic -->
<g id="edge5" class="edge"><title>http://latin.omdoc.org/logics/syntax?UniverseLogic&#45;&gt;http://latin.omdoc.org/logics/proof_theory?EqLogic</title>
<a class="graphinclude">
<path fill="none" stroke="black" d="M214.236,-143.697C214.787,-135.983 215.449,-126.712 216.063,-118.112"/>
<polygon fill="black" stroke="black" points="219.557,-118.328 216.778,-108.104 212.575,-117.83 219.557,-118.328"/>
</a>
</g>
<!-- http://latin.omdoc.org/logics/proof_theory?Equal -->
<g id="node7" class="node"><title>http://latin.omdoc.org/logics/proof_theory?Equal</title>
<a xlink:href="http://latin.omdoc.org/logics/proof_theory?Equal" class="graphtheory">
<ellipse fill="gray" stroke="black" cx="326" cy="-162" rx="31.2965" ry="18"/>
<text text-anchor="middle" x="326" y="-158.3" font-family="Times New Roman,serif" font-size="14.00">Equal</text>
</a>
</g>
<!-- http://latin.omdoc.org/logics/proof_theory?Equal&#45;&gt;http://latin.omdoc.org/logics/proof_theory?EqLogic -->
<g id="edge7" class="edge"><title>http://latin.omdoc.org/logics/proof_theory?Equal&#45;&gt;http://latin.omdoc.org/logics/proof_theory?EqLogic</title>
<a class="graphinclude">
<path fill="none" stroke="black" d="M305.939,-147.998C289.898,-137.6 267.136,-122.848 248.79,-110.956"/>
<polygon fill="black" stroke="black" points="250.482,-107.882 240.186,-105.38 246.674,-113.756 250.482,-107.882"/>
</a>
</g>
<!-- http://cds.omdoc.org/urtheories?LF -->
<g id="node13" class="node"><title>http://cds.omdoc.org/urtheories?LF</title>
<a xlink:href="http://cds.omdoc.org/urtheories?LF" class="graphtheory">
<ellipse fill="gray" stroke="black" cx="269" cy="-234" rx="27" ry="18"/>
<text text-anchor="middle" x="269" y="-230.3" font-family="Times New Roman,serif" font-size="14.00">LF</text>
</a>
</g>
<!-- http://cds.omdoc.org/urtheories?LF&#45;&gt;http://latin.omdoc.org/logics/proof_theory?EqLogic -->
<g id="edge13" class="edge"><title>http://cds.omdoc.org/urtheories?LF&#45;&gt;http://latin.omdoc.org/logics/proof_theory?EqLogic</title>
<a class="graphmeta">
<path fill="none" stroke="black" d="M242.324,-230.574C211.704,-226.2 162.782,-213.99 140,-180 131.092,-166.709 132.513,-158.14 140,-144 148.375,-128.184 163.819,-116.211 178.769,-107.684"/>
<polygon fill="black" stroke="black" points="180.752,-110.594 187.946,-102.815 177.472,-104.41 180.752,-110.594"/>
</a>
</g>
<!-- http://cds.omdoc.org/urtheories?LF&#45;&gt;http://latin.omdoc.org/logics/proof_theory?InEqLogic -->
<g id="edge17" class="edge"><title>http://cds.omdoc.org/urtheories?LF&#45;&gt;http://latin.omdoc.org/logics/proof_theory?InEqLogic</title>
<a class="graphmeta">
<path fill="none" stroke="black" d="M293.961,-227.111C317.208,-220.155 350.532,-206.078 366,-180 390.576,-138.566 381.608,-79.9494 373.123,-46.0656"/>
<polygon fill="black" stroke="black" points="376.393,-44.7432 370.428,-35.9866 369.63,-46.5513 376.393,-44.7432"/>
</a>
</g>
<!-- http://cds.omdoc.org/urtheories?LF&#45;&gt;http://latin.omdoc.org/logics/syntax?UniverseLogic -->
<g id="edge15" class="edge"><title>http://cds.omdoc.org/urtheories?LF&#45;&gt;http://latin.omdoc.org/logics/syntax?UniverseLogic</title>
<a class="graphmeta">
<path fill="none" stroke="black" d="M256.849,-217.811C249.812,-209.015 240.784,-197.73 232.751,-187.688"/>
<polygon fill="black" stroke="black" points="235.282,-185.25 226.302,-179.628 229.816,-189.623 235.282,-185.25"/>
</a>
</g>
<!-- http://cds.omdoc.org/urtheories?LF&#45;&gt;http://latin.omdoc.org/logics/proof_theory?Equal -->
<g id="edge19" class="edge"><title>http://cds.omdoc.org/urtheories?LF&#45;&gt;http://latin.omdoc.org/logics/proof_theory?Equal</title>
<a class="graphmeta">
<path fill="none" stroke="black" d="M281.368,-217.811C288.809,-208.673 298.437,-196.849 306.845,-186.524"/>
<polygon fill="black" stroke="black" points="309.661,-188.608 313.261,-178.644 304.233,-184.188 309.661,-188.608"/>
</a>
</g>
</g>
</svg>
