<?xml version="1.0" encoding="UTF-8" standalone="no"?>
<!DOCTYPE svg PUBLIC "-//W3C//DTD SVG 1.1//EN"
 "http://www.w3.org/Graphics/SVG/1.1/DTD/svg11.dtd">
<!-- Generated by graphviz version 2.28.0 (20110507.0327)
 -->
<!-- Title: MMT Pages: 1 -->
<svg width="1190pt" height="368pt"
 viewBox="0.00 0.00 1190.00 368.00" xmlns="http://www.w3.org/2000/svg" xmlns:xlink="http://www.w3.org/1999/xlink">
<g id="graph1" class="graph" transform="scale(1 1) rotate(0) translate(4 364)">
<title>MMT</title>
<polygon fill="white" stroke="white" points="-4,5 -4,-364 1187,-364 1187,5 -4,5"/>
<g id="graph2" class="cluster"><title>cluster_local</title>
<polygon fill="none" stroke="black" points="497,-168 497,-220 577,-220 577,-168 497,-168"/>
</g>
<!-- http://latin.omdoc.org/logics/proof_theory?Equiv -->
<g id="node2" class="node"><title>http://latin.omdoc.org/logics/proof_theory?Equiv</title>
<a xlink:href="http://latin.omdoc.org/logics/proof_theory?Equiv" class="graphtheory">
<ellipse fill="none" stroke="black" cx="537" cy="-194" rx="31.2735" ry="18"/>
<text text-anchor="middle" x="537" y="-190.3" font-family="Times New Roman,serif" font-size="14.00">Equiv</text>
</a>
</g>
<!-- http://latin.omdoc.org/foundations/mizar?IPLPFExtMizarView -->
<g id="node3" class="node"><title>http://latin.omdoc.org/foundations/mizar?IPLPFExtMizarView</title>
<a xlink:href="http://latin.omdoc.org/foundations/mizar?IPLPFExtMizarView" class="graphtheory">
<ellipse fill="gray" stroke="black" cx="688" cy="-106" rx="86.1637" ry="18"/>
<text text-anchor="middle" x="688" y="-102.3" font-family="Times New Roman,serif" font-size="14.00">IPLPFExtMizarView</text>
</a>
</g>
<!-- http://latin.omdoc.org/logics/proof_theory?Equiv&#45;&gt;http://latin.omdoc.org/foundations/mizar?IPLPFExtMizarView -->
<g id="edge3" class="edge"><title>http://latin.omdoc.org/logics/proof_theory?Equiv&#45;&gt;http://latin.omdoc.org/foundations/mizar?IPLPFExtMizarView</title>
<a xlink:href="http://latin.omdoc.org/foundations/mizar?IPLPFExtMizarView?[http://latin.omdoc.org/logics/proof_theory?Equiv]" class="graphstructure">
<path fill="none" stroke="black" d="M520.302,-178.704C509.769,-167.962 499.754,-153.229 509,-142 510.795,-139.82 566.185,-129.199 614.875,-120.223"/>
<polygon fill="black" stroke="black" points="615.621,-123.645 624.823,-118.394 614.355,-116.76 615.621,-123.645"/>
</a>
<a xlink:href="http://latin.omdoc.org/foundations/mizar?IPLPFExtMizarView?[http://latin.omdoc.org/logics/proof_theory?Equiv]" class="[http://latin.omdoc.org/logics/proof_theory?Equiv]">
<text text-anchor="middle" x="650.5" y="-146.3" font-family="Times New Roman,serif" font-size="14.00">[http://latin.omdoc.org/logics/proof_theory?Equiv]</text>
</a>
</g>
<!-- http://latin.omdoc.org/foundations/mizar?Mizar -->
<g id="node5" class="node"><title>http://latin.omdoc.org/foundations/mizar?Mizar</title>
<a xlink:href="http://latin.omdoc.org/foundations/mizar?Mizar" class="graphtheory">
<ellipse fill="gray" stroke="black" cx="881" cy="-18" rx="31.2965" ry="18"/>
<text text-anchor="middle" x="881" y="-14.3" font-family="Times New Roman,serif" font-size="14.00">Mizar</text>
</a>
</g>
<!-- http://latin.omdoc.org/logics/proof_theory?Equiv&#45;&gt;http://latin.omdoc.org/foundations/mizar?Mizar -->
<g id="edge5" class="edge"><title>http://latin.omdoc.org/logics/proof_theory?Equiv&#45;&gt;http://latin.omdoc.org/foundations/mizar?Mizar</title>
<a xlink:href="http://latin.omdoc.org/foundations/mizar?EquivPFMizarView" class="graphview">
<path fill="none" stroke="black" d="M519.892,-178.527C496.554,-157.061 460.208,-116.284 484,-88 495.514,-74.312 742.081,-38.4468 840.73,-24.5828"/>
<polygon fill="black" stroke="black" points="841.488,-28.0108 850.906,-23.157 840.517,-21.0785 841.488,-28.0108"/>
</a>
<a xlink:href="http://latin.omdoc.org/foundations/mizar?EquivPFMizarView" class="EquivPFMizarView">
<text text-anchor="middle" x="538.5" y="-102.3" font-family="Times New Roman,serif" font-size="14.00">EquivPFMizarView</text>
</a>
</g>
<!-- http://latin.omdoc.org/foundations/mizar?PLPFExtMizarView -->
<g id="node7" class="node"><title>http://latin.omdoc.org/foundations/mizar?PLPFExtMizarView</title>
<a xlink:href="http://latin.omdoc.org/foundations/mizar?PLPFExtMizarView" class="graphtheory">
<ellipse fill="gray" stroke="black" cx="83" cy="-18" rx="83.2892" ry="18"/>
<text text-anchor="middle" x="83" y="-14.3" font-family="Times New Roman,serif" font-size="14.00">PLPFExtMizarView</text>
</a>
</g>
<!-- http://latin.omdoc.org/logics/proof_theory?Equiv&#45;&gt;http://latin.omdoc.org/foundations/mizar?PLPFExtMizarView -->
<g id="edge7" class="edge"><title>http://latin.omdoc.org/logics/proof_theory?Equiv&#45;&gt;http://latin.omdoc.org/foundations/mizar?PLPFExtMizarView</title>
<a xlink:href="http://latin.omdoc.org/foundations/mizar?PLPFExtMizarView?[http://latin.omdoc.org/logics/proof_theory?Equiv]" class="graphstructure">
<path fill="none" stroke="black" d="M505.385,-193.358C410.466,-193.694 131.051,-189.044 75,-124 56.621,-102.672 63.2492,-69.0073 71.4488,-45.5664"/>
<polygon fill="black" stroke="black" points="74.7229,-46.8035 74.9908,-36.212 68.1764,-44.3247 74.7229,-46.8035"/>
</a>
<a xlink:href="http://latin.omdoc.org/foundations/mizar?PLPFExtMizarView?[http://latin.omdoc.org/logics/proof_theory?Equiv]" class="[http://latin.omdoc.org/logics/proof_theory?Equiv]">
<text text-anchor="middle" x="216.5" y="-102.3" font-family="Times New Roman,serif" font-size="14.00">[http://latin.omdoc.org/logics/proof_theory?Equiv]</text>
</a>
</g>
<!-- http://latin.omdoc.org/logics/proof_theory?IPLExt -->
<g id="node9" class="node"><title>http://latin.omdoc.org/logics/proof_theory?IPLExt</title>
<a xlink:href="http://latin.omdoc.org/logics/proof_theory?IPLExt" class="graphtheory">
<ellipse fill="gray" stroke="black" cx="403" cy="-106" rx="36.096" ry="18"/>
<text text-anchor="middle" x="403" y="-102.3" font-family="Times New Roman,serif" font-size="14.00">IPLExt</text>
</a>
</g>
<!-- http://latin.omdoc.org/logics/proof_theory?Equiv&#45;&gt;http://latin.omdoc.org/logics/proof_theory?IPLExt -->
<g id="edge9" class="edge"><title>http://latin.omdoc.org/logics/proof_theory?Equiv&#45;&gt;http://latin.omdoc.org/logics/proof_theory?IPLExt</title>
<a class="graphinclude">
<path fill="none" stroke="black" d="M519.455,-178.927C513.817,-174.935 507.375,-170.893 501,-168 484.313,-160.428 477.228,-166.513 461,-158 447.564,-150.952 434.674,-140.17 424.472,-130.332"/>
<polygon fill="black" stroke="black" points="426.77,-127.68 417.23,-123.071 421.814,-132.623 426.77,-127.68"/>
</a>
</g>
<!-- http://latin.omdoc.org/logics/proof_theory?IPLExt&#45;&gt;http://latin.omdoc.org/foundations/mizar?Mizar -->
<g id="edge35" class="edge"><title>http://latin.omdoc.org/logics/proof_theory?IPLExt&#45;&gt;http://latin.omdoc.org/foundations/mizar?Mizar</title>
<a xlink:href="http://latin.omdoc.org/foundations/mizar?IPLPFExtMizarView" class="graphview">
<path fill="none" stroke="black" d="M401.849,-87.7152C402.114,-76.3886 404.575,-62.21 414,-54 445.705,-26.3832 731.099,-20.5449 839.492,-19.321"/>
<polygon fill="black" stroke="black" points="839.753,-22.8186 849.715,-19.2135 839.679,-15.819 839.753,-22.8186"/>
</a>
<a xlink:href="http://latin.omdoc.org/foundations/mizar?IPLPFExtMizarView" class="IPLPFExtMizarView">
<text text-anchor="middle" x="472.5" y="-58.3" font-family="Times New Roman,serif" font-size="14.00">IPLPFExtMizarView</text>
</a>
</g>
<!-- http://latin.omdoc.org/logics/proof_theory?IPLExt&#45;&gt;http://latin.omdoc.org/foundations/mizar?PLPFExtMizarView -->
<g id="edge37" class="edge"><title>http://latin.omdoc.org/logics/proof_theory?IPLExt&#45;&gt;http://latin.omdoc.org/foundations/mizar?PLPFExtMizarView</title>
<a xlink:href="http://latin.omdoc.org/foundations/mizar?PLPFExtMizarView?[http://latin.omdoc.org/logics/proof_theory?IPLExt]" class="graphstructure">
<path fill="none" stroke="black" d="M375.317,-94.179C368.148,-91.7684 360.369,-89.4891 353,-88 325.376,-82.4181 122.263,-87.2798 100,-70 92.6075,-64.2622 88.398,-55.1956 86.0121,-46.2879"/>
<polygon fill="black" stroke="black" points="89.4414,-45.5874 84.0208,-36.4842 82.5814,-46.9809 89.4414,-45.5874"/>
</a>
<a xlink:href="http://latin.omdoc.org/foundations/mizar?PLPFExtMizarView?[http://latin.omdoc.org/logics/proof_theory?IPLExt]" class="[http://latin.omdoc.org/logics/proof_theory?IPLExt]">
<text text-anchor="middle" x="245.5" y="-58.3" font-family="Times New Roman,serif" font-size="14.00">[http://latin.omdoc.org/logics/proof_theory?IPLExt]</text>
</a>
</g>
<!-- http://latin.omdoc.org/logics/proof_theory?CONJ -->
<g id="node11" class="node"><title>http://latin.omdoc.org/logics/proof_theory?CONJ</title>
<a xlink:href="http://latin.omdoc.org/logics/proof_theory?CONJ" class="graphtheory">
<ellipse fill="gray" stroke="black" cx="721" cy="-268" rx="33.1991" ry="18"/>
<text text-anchor="middle" x="721" y="-264.3" font-family="Times New Roman,serif" font-size="14.00">CONJ</text>
</a>
</g>
<!-- http://latin.omdoc.org/logics/proof_theory?CONJ&#45;&gt;http://latin.omdoc.org/logics/proof_theory?Equiv -->
<g id="edge11" class="edge"><title>http://latin.omdoc.org/logics/proof_theory?CONJ&#45;&gt;http://latin.omdoc.org/logics/proof_theory?Equiv</title>
<a class="graphinclude">
<path fill="none" stroke="black" d="M690.527,-260.374C659.63,-252.979 610.953,-239.44 572,-220 568.993,-218.499 565.962,-216.754 563.008,-214.896"/>
<polygon fill="black" stroke="black" points="564.721,-211.829 554.479,-209.117 560.794,-217.624 564.721,-211.829"/>
</a>
</g>
<!-- http://latin.omdoc.org/logics/proof_theory?CONJ&#45;&gt;http://latin.omdoc.org/foundations/mizar?Mizar -->
<g id="edge33" class="edge"><title>http://latin.omdoc.org/logics/proof_theory?CONJ&#45;&gt;http://latin.omdoc.org/foundations/mizar?Mizar</title>
<a xlink:href="http://latin.omdoc.org/foundations/mizar?CONJPFMizarView" class="graphview">
<path fill="none" stroke="black" d="M731.625,-250.775C745.542,-229.503 770.681,-191.011 792,-158 817.699,-118.207 847.32,-71.8445 865.082,-43.9905"/>
<polygon fill="black" stroke="black" points="868.204,-45.6039 870.628,-35.2901 862.301,-41.8412 868.204,-45.6039"/>
</a>
<a xlink:href="http://latin.omdoc.org/foundations/mizar?CONJPFMizarView" class="CONJPFMizarView">
<text text-anchor="middle" x="859" y="-146.3" font-family="Times New Roman,serif" font-size="14.00">CONJPFMizarView</text>
</a>
</g>
<!-- http://latin.omdoc.org/logics/proof_theory?IMP -->
<g id="node13" class="node"><title>http://latin.omdoc.org/logics/proof_theory?IMP</title>
<a xlink:href="http://latin.omdoc.org/logics/proof_theory?IMP" class="graphtheory">
<ellipse fill="gray" stroke="black" cx="974" cy="-268" rx="27" ry="18"/>
<text text-anchor="middle" x="974" y="-264.3" font-family="Times New Roman,serif" font-size="14.00">IMP</text>
</a>
</g>
<!-- http://latin.omdoc.org/logics/proof_theory?IMP&#45;&gt;http://latin.omdoc.org/logics/proof_theory?Equiv -->
<g id="edge13" class="edge"><title>http://latin.omdoc.org/logics/proof_theory?IMP&#45;&gt;http://latin.omdoc.org/logics/proof_theory?Equiv</title>
<a class="graphinclude">
<path fill="none" stroke="black" d="M947.972,-262.712C874.445,-250.597 664.815,-216.059 576.739,-201.547"/>
<polygon fill="black" stroke="black" points="577.301,-198.093 566.865,-199.921 576.163,-205 577.301,-198.093"/>
</a>
</g>
<!-- http://latin.omdoc.org/logics/proof_theory?IMP&#45;&gt;http://latin.omdoc.org/foundations/mizar?Mizar -->
<g id="edge31" class="edge"><title>http://latin.omdoc.org/logics/proof_theory?IMP&#45;&gt;http://latin.omdoc.org/foundations/mizar?Mizar</title>
<a xlink:href="http://latin.omdoc.org/foundations/mizar?IMPPFMizarView" class="graphview">
<path fill="none" stroke="black" d="M988.582,-252.681C1010.46,-229.375 1047.36,-181.835 1029,-142 1005.64,-91.3077 949.733,-54.3938 913.713,-34.8647"/>
<polygon fill="black" stroke="black" points="915.049,-31.6126 904.57,-30.0482 911.786,-37.8057 915.049,-31.6126"/>
</a>
<a xlink:href="http://latin.omdoc.org/foundations/mizar?IMPPFMizarView" class="IMPPFMizarView">
<text text-anchor="middle" x="1085" y="-146.3" font-family="Times New Roman,serif" font-size="14.00">IMPPFMizarView</text>
</a>
</g>
<!-- http://latin.omdoc.org/logics/syntax?Equiv -->
<g id="node15" class="node"><title>http://latin.omdoc.org/logics/syntax?Equiv</title>
<a xlink:href="http://latin.omdoc.org/logics/syntax?Equiv" class="graphtheory">
<ellipse fill="gray" stroke="black" cx="805" cy="-268" rx="31.2735" ry="18"/>
<text text-anchor="middle" x="805" y="-264.3" font-family="Times New Roman,serif" font-size="14.00">Equiv</text>
</a>
</g>
<!-- http://latin.omdoc.org/logics/syntax?Equiv&#45;&gt;http://latin.omdoc.org/logics/proof_theory?Equiv -->
<g id="edge15" class="edge"><title>http://latin.omdoc.org/logics/syntax?Equiv&#45;&gt;http://latin.omdoc.org/logics/proof_theory?Equiv</title>
<a class="graphinclude">
<path fill="none" stroke="black" d="M780.897,-256.148C775.122,-253.856 768.913,-251.638 763,-250 721.594,-238.532 611.771,-236.256 572,-220 568.721,-218.66 565.455,-216.958 562.311,-215.074"/>
<polygon fill="black" stroke="black" points="564.12,-212.073 553.859,-209.434 560.234,-217.896 564.12,-212.073"/>
</a>
</g>
<!-- http://latin.omdoc.org/logics/syntax?Equiv&#45;&gt;http://latin.omdoc.org/foundations/mizar?Mizar -->
<g id="edge29" class="edge"><title>http://latin.omdoc.org/logics/syntax?Equiv&#45;&gt;http://latin.omdoc.org/foundations/mizar?Mizar</title>
<a xlink:href="http://latin.omdoc.org/foundations/mizar?EquivMizarView" class="graphview">
<path fill="none" stroke="black" d="M827.313,-255.087C856.573,-238.037 906.58,-203.628 927,-158 944.427,-119.06 919.232,-71.4331 899.811,-43.2474"/>
<polygon fill="black" stroke="black" points="902.438,-40.9056 893.769,-34.8149 896.748,-44.9824 902.438,-40.9056"/>
</a>
<a xlink:href="http://latin.omdoc.org/foundations/mizar?EquivMizarView" class="EquivMizarView">
<text text-anchor="middle" x="978.5" y="-146.3" font-family="Times New Roman,serif" font-size="14.00">EquivMizarView</text>
</a>
</g>
<!-- http://cds.omdoc.org/urtheories?LF -->
<g id="node17" class="node"><title>http://cds.omdoc.org/urtheories?LF</title>
<a xlink:href="http://cds.omdoc.org/urtheories?LF" class="graphtheory">
<ellipse fill="gray" stroke="black" cx="756" cy="-342" rx="27" ry="18"/>
<text text-anchor="middle" x="756" y="-338.3" font-family="Times New Roman,serif" font-size="14.00">LF</text>
</a>
</g>
<!-- http://cds.omdoc.org/urtheories?LF&#45;&gt;http://latin.omdoc.org/logics/proof_theory?Equiv -->
<g id="edge17" class="edge"><title>http://cds.omdoc.org/urtheories?LF&#45;&gt;http://latin.omdoc.org/logics/proof_theory?Equiv</title>
<a class="graphmeta">
<path fill="none" stroke="black" d="M737.034,-328.87C703.487,-307.339 631.599,-260.859 572,-220 569.434,-218.241 566.777,-216.393 564.126,-214.53"/>
<polygon fill="black" stroke="black" points="565.98,-211.554 555.797,-208.628 561.932,-217.266 565.98,-211.554"/>
</a>
</g>
<!-- http://cds.omdoc.org/urtheories?LF&#45;&gt;http://latin.omdoc.org/foundations/mizar?Mizar -->
<g id="edge25" class="edge"><title>http://cds.omdoc.org/urtheories?LF&#45;&gt;http://latin.omdoc.org/foundations/mizar?Mizar</title>
<a class="graphmeta">
<path fill="none" stroke="black" d="M782.971,-339.308C876.615,-333.078 1182,-309.645 1182,-269 1182,-269 1182,-269 1182,-105 1182,-51.513 1004.06,-29.4351 921.805,-22.0869"/>
<polygon fill="black" stroke="black" points="922.062,-18.5961 911.798,-21.2235 921.46,-25.5702 922.062,-18.5961"/>
</a>
</g>
<!-- http://cds.omdoc.org/urtheories?LF&#45;&gt;http://latin.omdoc.org/logics/proof_theory?IPLExt -->
<g id="edge23" class="edge"><title>http://cds.omdoc.org/urtheories?LF&#45;&gt;http://latin.omdoc.org/logics/proof_theory?IPLExt</title>
<a class="graphmeta">
<path fill="none" stroke="black" d="M731.499,-333.909C682.472,-318.872 570.378,-280.151 493,-220 463.209,-196.842 458.022,-187.896 435,-158 428.818,-149.972 422.729,-140.711 417.55,-132.302"/>
<polygon fill="black" stroke="black" points="420.477,-130.378 412.325,-123.611 414.477,-133.984 420.477,-130.378"/>
</a>
</g>
<!-- http://cds.omdoc.org/urtheories?LF&#45;&gt;http://latin.omdoc.org/logics/proof_theory?CONJ -->
<g id="edge19" class="edge"><title>http://cds.omdoc.org/urtheories?LF&#45;&gt;http://latin.omdoc.org/logics/proof_theory?CONJ</title>
<a class="graphmeta">
<path fill="none" stroke="black" d="M748.058,-324.662C743.778,-315.858 738.399,-304.792 733.566,-294.85"/>
<polygon fill="black" stroke="black" points="736.673,-293.236 729.153,-285.773 730.378,-296.297 736.673,-293.236"/>
</a>
</g>
<!-- http://cds.omdoc.org/urtheories?LF&#45;&gt;http://latin.omdoc.org/logics/proof_theory?IMP -->
<g id="edge27" class="edge"><title>http://cds.omdoc.org/urtheories?LF&#45;&gt;http://latin.omdoc.org/logics/proof_theory?IMP</title>
<a class="graphmeta">
<path fill="none" stroke="black" d="M779.745,-333.158C818.649,-320.309 896.075,-294.737 940.53,-280.054"/>
<polygon fill="black" stroke="black" points="941.887,-283.292 950.284,-276.833 939.691,-276.645 941.887,-283.292"/>
</a>
</g>
<!-- http://cds.omdoc.org/urtheories?LF&#45;&gt;http://latin.omdoc.org/logics/syntax?Equiv -->
<g id="edge21" class="edge"><title>http://cds.omdoc.org/urtheories?LF&#45;&gt;http://latin.omdoc.org/logics/syntax?Equiv</title>
<a class="graphmeta">
<path fill="none" stroke="black" d="M766.632,-325.377C772.965,-316.071 781.142,-304.057 788.318,-293.512"/>
<polygon fill="black" stroke="black" points="791.316,-295.327 794.049,-285.091 785.529,-291.389 791.316,-295.327"/>
</a>
</g>
</g>
</svg>
