<?xml version="1.0" encoding="UTF-8" standalone="no"?>
<!DOCTYPE svg PUBLIC "-//W3C//DTD SVG 1.1//EN"
 "http://www.w3.org/Graphics/SVG/1.1/DTD/svg11.dtd">
<!-- Generated by graphviz version 2.28.0 (20110507.0327)
 -->
<!-- Title: MMT Pages: 1 -->
<svg
 viewBox="0.00 0.00 537.57 368.00" xmlns="http://www.w3.org/2000/svg" xmlns:xlink="http://www.w3.org/1999/xlink">
<g id="graph1" class="graph" transform="scale(1 1) rotate(0) translate(4 364)">
<title>MMT</title>
<polygon fill="white" stroke="white" points="-4,5 -4,-364 534.574,-364 534.574,5 -4,5"/>
<g id="graph2" class="cluster"><title>cluster_local</title>
<polygon fill="none" stroke="black" points="171.574,-168 171.574,-220 303.574,-220 303.574,-168 171.574,-168"/>
</g>
<!-- http://latin.omdoc.org/logics/proof_theory?ExistsUnique -->
<g id="node2" class="node"><title>http://latin.omdoc.org/logics/proof_theory?ExistsUnique</title>
<a xlink:href="http://latin.omdoc.org/logics/proof_theory?ExistsUnique" class="graphtheory">
<ellipse fill="none" stroke="black" cx="237.574" cy="-194" rx="58.2422" ry="18"/>
<text text-anchor="middle" x="237.574" y="-190.3" font-family="Times New Roman,serif" font-size="14.00">ExistsUnique</text>
</a>
</g>
<!-- http://latin.omdoc.org/foundations/mizar?Mizar -->
<g id="node3" class="node"><title>http://latin.omdoc.org/foundations/mizar?Mizar</title>
<a xlink:href="http://latin.omdoc.org/foundations/mizar?Mizar" class="graphtheory">
<ellipse fill="gray" stroke="black" cx="201.574" cy="-18" rx="31.2965" ry="18"/>
<text text-anchor="middle" x="201.574" y="-14.3" font-family="Times New Roman,serif" font-size="14.00">Mizar</text>
</a>
</g>
<!-- http://latin.omdoc.org/logics/proof_theory?ExistsUnique&#45;&gt;http://latin.omdoc.org/foundations/mizar?Mizar -->
<g id="edge3" class="edge"><title>http://latin.omdoc.org/logics/proof_theory?ExistsUnique&#45;&gt;http://latin.omdoc.org/foundations/mizar?Mizar</title>
<a xlink:href="http://latin.omdoc.org/foundations/mizar?ExistsUniquePFMizarView" class="graphview">
<path fill="none" stroke="black" d="M231.205,-175.934C226.272,-162.109 219.618,-142.035 215.574,-124 209.722,-97.9029 206.001,-67.5709 203.878,-46.2376"/>
<polygon fill="black" stroke="black" points="207.36,-45.8862 202.936,-36.2593 200.391,-46.5439 207.36,-45.8862"/>
</a>
<a xlink:href="http://latin.omdoc.org/foundations/mizar?ExistsUniquePFMizarView" class="ExistsUniquePFMizarView">
<text text-anchor="middle" x="291.074" y="-102.3" font-family="Times New Roman,serif" font-size="14.00">ExistsUniquePFMizarView</text>
</a>
</g>
<!-- http://latin.omdoc.org/logics/proof_theory?IFOLExt -->
<g id="node5" class="node"><title>http://latin.omdoc.org/logics/proof_theory?IFOLExt</title>
<a xlink:href="http://latin.omdoc.org/logics/proof_theory?IFOLExt" class="graphtheory">
<ellipse fill="gray" stroke="black" cx="101.574" cy="-106" rx="43.319" ry="18"/>
<text text-anchor="middle" x="101.574" y="-102.3" font-family="Times New Roman,serif" font-size="14.00">IFOLExt</text>
</a>
</g>
<!-- http://latin.omdoc.org/logics/proof_theory?ExistsUnique&#45;&gt;http://latin.omdoc.org/logics/proof_theory?IFOLExt -->
<g id="edge5" class="edge"><title>http://latin.omdoc.org/logics/proof_theory?ExistsUnique&#45;&gt;http://latin.omdoc.org/logics/proof_theory?IFOLExt</title>
<a class="graphinclude">
<path fill="none" stroke="black" d="M215.225,-177.146C200.466,-166.84 180.595,-153.274 162.574,-142 153.97,-136.617 144.522,-131.04 135.685,-125.962"/>
<polygon fill="black" stroke="black" points="137.181,-122.786 126.759,-120.88 133.717,-128.869 137.181,-122.786"/>
</a>
</g>
<!-- http://latin.omdoc.org/logics/proof_theory?IFOLExt&#45;&gt;http://latin.omdoc.org/foundations/mizar?Mizar -->
<g id="edge27" class="edge"><title>http://latin.omdoc.org/logics/proof_theory?IFOLExt&#45;&gt;http://latin.omdoc.org/foundations/mizar?Mizar</title>
<a xlink:href="http://latin.omdoc.org/foundations/mizar?IFOLPFExtMizarView" class="graphview">
<path fill="none" stroke="black" d="M77.9129,-90.7923C63.9561,-80.6063 50.7756,-66.5281 60.574,-54 72.8953,-38.2463 124.062,-28.5792 161.217,-23.5034"/>
<polygon fill="black" stroke="black" points="161.817,-26.9548 171.281,-22.1922 160.913,-20.0135 161.817,-26.9548"/>
</a>
<a xlink:href="http://latin.omdoc.org/foundations/mizar?IFOLPFExtMizarView" class="IFOLPFExtMizarView">
<text text-anchor="middle" x="124.074" y="-58.3" font-family="Times New Roman,serif" font-size="14.00">IFOLPFExtMizarView</text>
</a>
</g>
<!-- http://latin.omdoc.org/logics/proof_theory?IFOLEQ -->
<g id="node7" class="node"><title>http://latin.omdoc.org/logics/proof_theory?IFOLEQ</title>
<a xlink:href="http://latin.omdoc.org/logics/proof_theory?IFOLEQ" class="graphtheory">
<ellipse fill="gray" stroke="black" cx="158.574" cy="-268" rx="43.319" ry="18"/>
<text text-anchor="middle" x="158.574" y="-264.3" font-family="Times New Roman,serif" font-size="14.00">IFOLEQ</text>
</a>
</g>
<!-- http://latin.omdoc.org/logics/proof_theory?IFOLEQ&#45;&gt;http://latin.omdoc.org/logics/proof_theory?ExistsUnique -->
<g id="edge7" class="edge"><title>http://latin.omdoc.org/logics/proof_theory?IFOLEQ&#45;&gt;http://latin.omdoc.org/logics/proof_theory?ExistsUnique</title>
<a class="graphinclude">
<path fill="none" stroke="black" d="M175.716,-251.377C186.362,-241.674 200.24,-229.026 212.153,-218.169"/>
<polygon fill="black" stroke="black" points="214.61,-220.665 219.643,-211.342 209.895,-215.491 214.61,-220.665"/>
</a>
</g>
<!-- http://latin.omdoc.org/logics/proof_theory?IFOLEQ&#45;&gt;http://latin.omdoc.org/foundations/mizar?Mizar -->
<g id="edge23" class="edge"><title>http://latin.omdoc.org/logics/proof_theory?IFOLEQ&#45;&gt;http://latin.omdoc.org/foundations/mizar?Mizar</title>
<a xlink:href="http://latin.omdoc.org/foundations/mizar?IFOLEQPFMizarView" class="graphview">
<path fill="none" stroke="black" d="M124.03,-256.825C74.6705,-240.052 -8.52517,-202.321 6.57405,-142 17.3407,-98.9872 18.4438,-81.0534 53.574,-54 84.1151,-30.4807 127.957,-22.404 159.995,-19.8056"/>
<polygon fill="black" stroke="black" points="160.624,-23.2717 170.371,-19.12 160.162,-16.287 160.624,-23.2717"/>
</a>
<a xlink:href="http://latin.omdoc.org/foundations/mizar?IFOLEQPFMizarView" class="IFOLEQPFMizarView">
<text text-anchor="middle" x="70.074" y="-146.3" font-family="Times New Roman,serif" font-size="14.00">IFOLEQPFMizarView</text>
</a>
</g>
<!-- http://latin.omdoc.org/logics/proof_theory?IFOLEQ&#45;&gt;http://latin.omdoc.org/logics/proof_theory?IFOLExt -->
<g id="edge25" class="edge"><title>http://latin.omdoc.org/logics/proof_theory?IFOLEQ&#45;&gt;http://latin.omdoc.org/logics/proof_theory?IFOLExt</title>
<a class="graphinclude">
<path fill="none" stroke="black" d="M158.984,-249.766C158.878,-224.627 155.969,-177.079 137.574,-142 135.267,-137.6 132.202,-133.424 128.832,-129.59"/>
<polygon fill="black" stroke="black" points="131.128,-126.933 121.629,-122.241 126.129,-131.833 131.128,-126.933"/>
</a>
</g>
<!-- http://latin.omdoc.org/logics/syntax?ExistsUnique -->
<g id="node9" class="node"><title>http://latin.omdoc.org/logics/syntax?ExistsUnique</title>
<a xlink:href="http://latin.omdoc.org/logics/syntax?ExistsUnique" class="graphtheory">
<ellipse fill="gray" stroke="black" cx="319.574" cy="-268" rx="58.2422" ry="18"/>
<text text-anchor="middle" x="319.574" y="-264.3" font-family="Times New Roman,serif" font-size="14.00">ExistsUnique</text>
</a>
</g>
<!-- http://latin.omdoc.org/logics/syntax?ExistsUnique&#45;&gt;http://latin.omdoc.org/logics/proof_theory?ExistsUnique -->
<g id="edge9" class="edge"><title>http://latin.omdoc.org/logics/syntax?ExistsUnique&#45;&gt;http://latin.omdoc.org/logics/proof_theory?ExistsUnique</title>
<a class="graphinclude">
<path fill="none" stroke="black" d="M300.967,-250.662C289.959,-240.996 275.843,-228.602 263.728,-217.964"/>
<polygon fill="black" stroke="black" points="265.931,-215.241 256.107,-211.273 261.313,-220.501 265.931,-215.241"/>
</a>
</g>
<!-- http://latin.omdoc.org/logics/syntax?ExistsUnique&#45;&gt;http://latin.omdoc.org/foundations/mizar?Mizar -->
<g id="edge21" class="edge"><title>http://latin.omdoc.org/logics/syntax?ExistsUnique&#45;&gt;http://latin.omdoc.org/foundations/mizar?Mizar</title>
<a xlink:href="http://latin.omdoc.org/foundations/mizar?ExistsUniqueMizarView" class="graphview">
<path fill="none" stroke="black" d="M332.222,-250.237C355.85,-216.713 401.294,-140.153 366.574,-88 339.091,-46.717 281.67,-30.0885 242.368,-23.4201"/>
<polygon fill="black" stroke="black" points="242.719,-19.9327 232.301,-21.8606 241.647,-26.8502 242.719,-19.9327"/>
</a>
<a xlink:href="http://latin.omdoc.org/foundations/mizar?ExistsUniqueMizarView" class="ExistsUniqueMizarView">
<text text-anchor="middle" x="446.574" y="-146.3" font-family="Times New Roman,serif" font-size="14.00">ExistsUniqueMizarView</text>
</a>
</g>
<!-- http://cds.omdoc.org/urtheories?LF -->
<g id="node11" class="node"><title>http://cds.omdoc.org/urtheories?LF</title>
<a xlink:href="http://cds.omdoc.org/urtheories?LF" class="graphtheory">
<ellipse fill="gray" stroke="black" cx="233.574" cy="-342" rx="27" ry="18"/>
<text text-anchor="middle" x="233.574" y="-338.3" font-family="Times New Roman,serif" font-size="14.00">LF</text>
</a>
</g>
<!-- http://cds.omdoc.org/urtheories?LF&#45;&gt;http://latin.omdoc.org/logics/proof_theory?ExistsUnique -->
<g id="edge11" class="edge"><title>http://cds.omdoc.org/urtheories?LF&#45;&gt;http://latin.omdoc.org/logics/proof_theory?ExistsUnique</title>
<a class="graphmeta">
<path fill="none" stroke="black" d="M234.041,-323.966C234.724,-299.045 236.002,-252.374 236.82,-222.537"/>
<polygon fill="black" stroke="black" points="240.323,-222.47 237.098,-212.378 233.325,-222.278 240.323,-222.47"/>
</a>
</g>
<!-- http://cds.omdoc.org/urtheories?LF&#45;&gt;http://latin.omdoc.org/foundations/mizar?Mizar -->
<g id="edge17" class="edge"><title>http://cds.omdoc.org/urtheories?LF&#45;&gt;http://latin.omdoc.org/foundations/mizar?Mizar</title>
<a class="graphmeta">
<path fill="none" stroke="black" d="M260.627,-340.167C333.698,-337.189 529.574,-324.069 529.574,-269 529.574,-269 529.574,-269 529.574,-105 529.574,-46.3089 330.589,-26.8721 242.592,-21.1461"/>
<polygon fill="black" stroke="black" points="242.63,-17.6418 232.431,-20.5141 242.195,-24.6283 242.63,-17.6418"/>
</a>
</g>
<!-- http://cds.omdoc.org/urtheories?LF&#45;&gt;http://latin.omdoc.org/logics/proof_theory?IFOLExt -->
<g id="edge15" class="edge"><title>http://cds.omdoc.org/urtheories?LF&#45;&gt;http://latin.omdoc.org/logics/proof_theory?IFOLExt</title>
<a class="graphmeta">
<path fill="none" stroke="black" d="M209.217,-334.223C182.113,-325.884 137.885,-309.833 105.574,-286 46.5857,-242.489 25.4918,-227.288 1.57405,-158 -7.04394,-133.034 21.4869,-120.209 50.2499,-113.667"/>
<polygon fill="black" stroke="black" points="51.2726,-117.03 60.3729,-111.605 49.8755,-110.171 51.2726,-117.03"/>
</a>
</g>
<!-- http://cds.omdoc.org/urtheories?LF&#45;&gt;http://latin.omdoc.org/logics/proof_theory?IFOLEQ -->
<g id="edge13" class="edge"><title>http://cds.omdoc.org/urtheories?LF&#45;&gt;http://latin.omdoc.org/logics/proof_theory?IFOLEQ</title>
<a class="graphmeta">
<path fill="none" stroke="black" d="M218.756,-326.775C208.391,-316.824 194.321,-303.317 182.393,-291.866"/>
<polygon fill="black" stroke="black" points="184.561,-289.096 174.923,-284.695 179.713,-294.145 184.561,-289.096"/>
</a>
</g>
<!-- http://cds.omdoc.org/urtheories?LF&#45;&gt;http://latin.omdoc.org/logics/syntax?ExistsUnique -->
<g id="edge19" class="edge"><title>http://cds.omdoc.org/urtheories?LF&#45;&gt;http://latin.omdoc.org/logics/syntax?ExistsUnique</title>
<a class="graphmeta">
<path fill="none" stroke="black" d="M249.75,-327.457C261.708,-317.446 278.274,-303.577 292.27,-291.86"/>
<polygon fill="black" stroke="black" points="294.738,-294.358 300.158,-285.255 290.244,-288.991 294.738,-294.358"/>
</a>
</g>
</g>
</svg>
