<?xml version="1.0" encoding="UTF-8" standalone="no"?>
<!DOCTYPE svg PUBLIC "-//W3C//DTD SVG 1.1//EN"
 "http://www.w3.org/Graphics/SVG/1.1/DTD/svg11.dtd">
<!-- Generated by graphviz version 2.28.0 (20110507.0327)
 -->
<!-- Title: MMT Pages: 1 -->
<svg
 viewBox="0.00 0.00 2178.42 280.00" xmlns="http://www.w3.org/2000/svg" xmlns:xlink="http://www.w3.org/1999/xlink">
<g id="graph1" class="graph" transform="scale(1 1) rotate(0) translate(4 276)">
<title>MMT</title>
<polygon fill="white" stroke="white" points="-4,5 -4,-276 2175.42,-276 2175.42,5 -4,5"/>
<g id="graph2" class="cluster"><title>cluster_local</title>
<polygon fill="none" stroke="black" points="650.348,-80 650.348,-132 730.348,-132 730.348,-80 650.348,-80"/>
</g>
<!-- http://latin.omdoc.org/logics/proof_theory?Exists -->
<g id="node2" class="node"><title>http://latin.omdoc.org/logics/proof_theory?Exists</title>
<a xlink:href="http://latin.omdoc.org/logics/proof_theory?Exists" class="graphtheory">
<ellipse fill="none" stroke="black" cx="690.348" cy="-106" rx="32.2457" ry="18"/>
<text text-anchor="middle" x="690.348" y="-102.3" font-family="Times New Roman,serif" font-size="14.00">Exists</text>
</a>
</g>
<!-- http://latin.omdoc.org/foundations/mizar?IFOLPFMizarView -->
<g id="node3" class="node"><title>http://latin.omdoc.org/foundations/mizar?IFOLPFMizarView</title>
<a xlink:href="http://latin.omdoc.org/foundations/mizar?IFOLPFMizarView" class="graphtheory">
<ellipse fill="gray" stroke="black" cx="1613.35" cy="-18" rx="81.3646" ry="18"/>
<text text-anchor="middle" x="1613.35" y="-14.3" font-family="Times New Roman,serif" font-size="14.00">IFOLPFMizarView</text>
</a>
</g>
<!-- http://latin.omdoc.org/logics/proof_theory?Exists&#45;&gt;http://latin.omdoc.org/foundations/mizar?IFOLPFMizarView -->
<g id="edge3" class="edge"><title>http://latin.omdoc.org/logics/proof_theory?Exists&#45;&gt;http://latin.omdoc.org/foundations/mizar?IFOLPFMizarView</title>
<a xlink:href="http://latin.omdoc.org/foundations/mizar?IFOLPFMizarView?[http://latin.omdoc.org/logics/proof_theory?Exists]" class="graphstructure">
<path fill="none" stroke="black" d="M707.172,-90.2689C712.877,-86.1437 719.54,-82.191 726.348,-80 760.093,-69.1411 1329.11,-73.8509 1364.35,-70 1429.39,-62.8918 1502.63,-46.907 1552.74,-34.7139"/>
<polygon fill="black" stroke="black" points="1553.88,-38.0374 1562.76,-32.2519 1552.21,-31.2396 1553.88,-38.0374"/>
</a>
<a xlink:href="http://latin.omdoc.org/foundations/mizar?IFOLPFMizarView?[http://latin.omdoc.org/logics/proof_theory?Exists]" class="[http://latin.omdoc.org/logics/proof_theory?Exists]">
<text text-anchor="middle" x="1603.85" y="-58.3" font-family="Times New Roman,serif" font-size="14.00">[http://latin.omdoc.org/logics/proof_theory?Exists]</text>
</a>
</g>
<!-- http://latin.omdoc.org/foundations/mizar?Mizar -->
<g id="node5" class="node"><title>http://latin.omdoc.org/foundations/mizar?Mizar</title>
<a xlink:href="http://latin.omdoc.org/foundations/mizar?Mizar" class="graphtheory">
<ellipse fill="gray" stroke="black" cx="521.348" cy="-18" rx="31.2965" ry="18"/>
<text text-anchor="middle" x="521.348" y="-14.3" font-family="Times New Roman,serif" font-size="14.00">Mizar</text>
</a>
</g>
<!-- http://latin.omdoc.org/logics/proof_theory?Exists&#45;&gt;http://latin.omdoc.org/foundations/mizar?Mizar -->
<g id="edge5" class="edge"><title>http://latin.omdoc.org/logics/proof_theory?Exists&#45;&gt;http://latin.omdoc.org/foundations/mizar?Mizar</title>
<a xlink:href="http://latin.omdoc.org/foundations/mizar?ExistsPFMizarView" class="graphview">
<path fill="none" stroke="black" d="M672.858,-90.8054C667.222,-86.8084 660.767,-82.7938 654.348,-80 635.165,-71.6503 627.124,-79.2315 608.348,-70 598.441,-65.1288 598.536,-60.1202 589.348,-54 578.471,-46.7542 565.904,-39.9057 554.556,-34.2204"/>
<polygon fill="black" stroke="black" points="555.895,-30.9794 545.374,-29.7351 552.823,-37.2691 555.895,-30.9794"/>
</a>
<a xlink:href="http://latin.omdoc.org/foundations/mizar?ExistsPFMizarView" class="ExistsPFMizarView">
<text text-anchor="middle" x="663.848" y="-58.3" font-family="Times New Roman,serif" font-size="14.00">ExistsPFMizarView</text>
</a>
</g>
<!-- http://latin.omdoc.org/translations/fol_ifol?IFOLPF -->
<g id="node7" class="node"><title>http://latin.omdoc.org/translations/fol_ifol?IFOLPF</title>
<a xlink:href="http://latin.omdoc.org/translations/fol_ifol?IFOLPF" class="graphtheory">
<ellipse fill="gray" stroke="black" cx="745.348" cy="-18" rx="42.3701" ry="18"/>
<text text-anchor="middle" x="745.348" y="-14.3" font-family="Times New Roman,serif" font-size="14.00">IFOLPF</text>
</a>
</g>
<!-- http://latin.omdoc.org/logics/proof_theory?Exists&#45;&gt;http://latin.omdoc.org/translations/fol_ifol?IFOLPF -->
<g id="edge7" class="edge"><title>http://latin.omdoc.org/logics/proof_theory?Exists&#45;&gt;http://latin.omdoc.org/translations/fol_ifol?IFOLPF</title>
<a xlink:href="http://latin.omdoc.org/translations/fol_ifol?IFOLPF?[http://latin.omdoc.org/logics/proof_theory?Exists]" class="graphstructure">
<path fill="none" stroke="black" d="M706.388,-90.3113C712.236,-84.3944 718.577,-77.2573 723.348,-70 728.245,-62.5533 732.473,-53.8363 735.878,-45.7367"/>
<polygon fill="black" stroke="black" points="739.19,-46.8766 739.611,-36.2901 732.68,-44.3035 739.19,-46.8766"/>
</a>
<a xlink:href="http://latin.omdoc.org/translations/fol_ifol?IFOLPF?[http://latin.omdoc.org/logics/proof_theory?Exists]" class="[http://latin.omdoc.org/logics/proof_theory?Exists]">
<text text-anchor="middle" x="874.848" y="-58.3" font-family="Times New Roman,serif" font-size="14.00">[http://latin.omdoc.org/logics/proof_theory?Exists]</text>
</a>
</g>
<!-- http://latin.omdoc.org/logics/soundness?IFOL -->
<g id="node9" class="node"><title>http://latin.omdoc.org/logics/soundness?IFOL</title>
<a xlink:href="http://latin.omdoc.org/logics/soundness?IFOL" class="graphtheory">
<ellipse fill="gray" stroke="black" cx="1268.35" cy="-18" rx="31.2965" ry="18"/>
<text text-anchor="middle" x="1268.35" y="-14.3" font-family="Times New Roman,serif" font-size="14.00">IFOL</text>
</a>
</g>
<!-- http://latin.omdoc.org/logics/proof_theory?Exists&#45;&gt;http://latin.omdoc.org/logics/soundness?IFOL -->
<g id="edge9" class="edge"><title>http://latin.omdoc.org/logics/proof_theory?Exists&#45;&gt;http://latin.omdoc.org/logics/soundness?IFOL</title>
<a xlink:href="http://latin.omdoc.org/logics/soundness?IFOL?[http://latin.omdoc.org/logics/proof_theory?Exists]" class="graphstructure">
<path fill="none" stroke="black" d="M707.196,-90.3433C712.903,-86.2221 719.56,-82.253 726.348,-80 788.603,-59.3394 956.507,-79.9011 1021.35,-70 1047.78,-65.9636 1053.29,-59.9957 1079.35,-54 1130.48,-42.2366 1190.09,-31.7211 1228.48,-25.3575"/>
<polygon fill="black" stroke="black" points="1229.42,-28.75 1238.72,-23.6752 1228.29,-21.8426 1229.42,-28.75"/>
</a>
<a xlink:href="http://latin.omdoc.org/logics/soundness?IFOL?[http://latin.omdoc.org/logics/proof_theory?Exists]" class="[http://latin.omdoc.org/logics/proof_theory?Exists]">
<text text-anchor="middle" x="1221.85" y="-58.3" font-family="Times New Roman,serif" font-size="14.00">[http://latin.omdoc.org/logics/proof_theory?Exists]</text>
</a>
</g>
<!-- http://latin.omdoc.org/logics/model_theory?FOLMOD -->
<g id="node11" class="node"><title>http://latin.omdoc.org/logics/model_theory?FOLMOD</title>
<a xlink:href="http://latin.omdoc.org/logics/model_theory?FOLMOD" class="graphtheory">
<ellipse fill="gray" stroke="black" cx="240.348" cy="-18" rx="49.0941" ry="18"/>
<text text-anchor="middle" x="240.348" y="-14.3" font-family="Times New Roman,serif" font-size="14.00">FOLMOD</text>
</a>
</g>
<!-- http://latin.omdoc.org/logics/proof_theory?Exists&#45;&gt;http://latin.omdoc.org/logics/model_theory?FOLMOD -->
<g id="edge11" class="edge"><title>http://latin.omdoc.org/logics/proof_theory?Exists&#45;&gt;http://latin.omdoc.org/logics/model_theory?FOLMOD</title>
<a xlink:href="http://latin.omdoc.org/logics/soundness?Exists" class="graphview">
<path fill="none" stroke="black" d="M673.412,-90.5984C667.7,-86.4908 661.063,-82.4653 654.348,-80 611.174,-64.1476 596.699,-77.6592 551.348,-70 521.587,-64.9736 514.989,-59.6964 485.348,-54 421.004,-41.6343 346.383,-31.5814 296.559,-25.4737"/>
<polygon fill="black" stroke="black" points="296.975,-21.9985 286.626,-24.268 296.132,-28.9475 296.975,-21.9985"/>
</a>
<a xlink:href="http://latin.omdoc.org/logics/soundness?Exists" class="Exists">
<text text-anchor="middle" x="568.348" y="-58.3" font-family="Times New Roman,serif" font-size="14.00">Exists</text>
</a>
</g>
<!-- http://latin.omdoc.org/translations/fol_ifol?DN&#45;IFOL -->
<g id="node13" class="node"><title>http://latin.omdoc.org/translations/fol_ifol?DN&#45;IFOL</title>
<a xlink:href="http://latin.omdoc.org/translations/fol_ifol?DN-IFOL" class="graphtheory">
<ellipse fill="gray" stroke="black" cx="78.3485" cy="-18" rx="46.1964" ry="18"/>
<text text-anchor="middle" x="78.3485" y="-14.3" font-family="Times New Roman,serif" font-size="14.00">DN&#45;IFOL</text>
</a>
</g>
<!-- http://latin.omdoc.org/logics/proof_theory?Exists&#45;&gt;http://latin.omdoc.org/translations/fol_ifol?DN&#45;IFOL -->
<g id="edge13" class="edge"><title>http://latin.omdoc.org/logics/proof_theory?Exists&#45;&gt;http://latin.omdoc.org/translations/fol_ifol?DN&#45;IFOL</title>
<a xlink:href="http://latin.omdoc.org/translations/fol_ifol?ExistsPF" class="graphview">
<path fill="none" stroke="black" d="M673.509,-90.3186C667.803,-86.1961 661.144,-82.2325 654.348,-80 616.438,-67.5453 334.92,-75.1469 295.348,-70 235.179,-62.1739 167.315,-44.8041 123.752,-32.5163"/>
<polygon fill="black" stroke="black" points="124.605,-29.1203 114.029,-29.7442 122.686,-35.852 124.605,-29.1203"/>
</a>
<a xlink:href="http://latin.omdoc.org/translations/fol_ifol?ExistsPF" class="ExistsPF">
<text text-anchor="middle" x="320.848" y="-58.3" font-family="Times New Roman,serif" font-size="14.00">ExistsPF</text>
</a>
</g>
<!-- http://latin.omdoc.org/logics/proof_theory?IFOL -->
<g id="node15" class="node"><title>http://latin.omdoc.org/logics/proof_theory?IFOL</title>
<a xlink:href="http://latin.omdoc.org/logics/proof_theory?IFOL" class="graphtheory">
<ellipse fill="gray" stroke="black" cx="47.3485" cy="-106" rx="31.2965" ry="18"/>
<text text-anchor="middle" x="47.3485" y="-102.3" font-family="Times New Roman,serif" font-size="14.00">IFOL</text>
</a>
</g>
<!-- http://latin.omdoc.org/logics/proof_theory?Exists&#45;&gt;http://latin.omdoc.org/logics/proof_theory?IFOL -->
<g id="edge15" class="edge"><title>http://latin.omdoc.org/logics/proof_theory?Exists&#45;&gt;http://latin.omdoc.org/logics/proof_theory?IFOL</title>
<a class="graphinclude">
<path fill="none" stroke="black" d="M677.31,-122.836C669.214,-131.865 657.964,-142.115 645.348,-147 617.166,-157.914 129.991,-156.642 101.348,-147 90.074,-143.205 79.2855,-136.016 70.3564,-128.705"/>
<polygon fill="black" stroke="black" points="72.5572,-125.981 62.7183,-122.05 67.9588,-131.258 72.5572,-125.981"/>
</a>
</g>
<!-- http://latin.omdoc.org/logics/proof_theory?ExistsExt -->
<g id="node17" class="node"><title>http://latin.omdoc.org/logics/proof_theory?ExistsExt</title>
<a xlink:href="http://latin.omdoc.org/logics/proof_theory?ExistsExt" class="graphtheory">
<ellipse fill="gray" stroke="black" cx="1984.35" cy="-18" rx="44.271" ry="18"/>
<text text-anchor="middle" x="1984.35" y="-14.3" font-family="Times New Roman,serif" font-size="14.00">ExistsExt</text>
</a>
</g>
<!-- http://latin.omdoc.org/logics/proof_theory?Exists&#45;&gt;http://latin.omdoc.org/logics/proof_theory?ExistsExt -->
<g id="edge17" class="edge"><title>http://latin.omdoc.org/logics/proof_theory?Exists&#45;&gt;http://latin.omdoc.org/logics/proof_theory?ExistsExt</title>
<a class="graphinclude">
<path fill="none" stroke="black" d="M706.801,-90.5083C712.586,-86.287 719.388,-82.2171 726.348,-80 780.556,-62.7327 1693.81,-76.3687 1750.35,-70 1816.94,-62.4982 1892.43,-44.2272 1939.23,-31.7208"/>
<polygon fill="black" stroke="black" points="1940.31,-35.0545 1949.05,-29.0674 1938.48,-28.2967 1940.31,-35.0545"/>
</a>
</g>
<!-- http://latin.omdoc.org/logics/proof_theory?IFOL&#45;&gt;http://latin.omdoc.org/foundations/mizar?Mizar -->
<g id="edge57" class="edge"><title>http://latin.omdoc.org/logics/proof_theory?IFOL&#45;&gt;http://latin.omdoc.org/foundations/mizar?Mizar</title>
<a xlink:href="http://latin.omdoc.org/foundations/mizar?IFOLPFMizarView" class="graphview">
<path fill="none" stroke="black" d="M66.6361,-91.6752C74.2928,-87.101 83.3978,-82.5053 92.3485,-80 147.601,-64.5345 295.944,-88.2268 350.348,-70 362.156,-66.0443 361.978,-59.0777 373.348,-54 407.961,-38.5424 450.301,-29.4144 480.813,-24.3782"/>
<polygon fill="black" stroke="black" points="481.746,-27.7747 491.081,-22.7639 480.658,-20.8597 481.746,-27.7747"/>
</a>
<a xlink:href="http://latin.omdoc.org/foundations/mizar?IFOLPFMizarView" class="IFOLPFMizarView">
<text text-anchor="middle" x="427.848" y="-58.3" font-family="Times New Roman,serif" font-size="14.00">IFOLPFMizarView</text>
</a>
</g>
<!-- http://latin.omdoc.org/logics/proof_theory?IFOL&#45;&gt;http://latin.omdoc.org/logics/model_theory?FOLMOD -->
<g id="edge55" class="edge"><title>http://latin.omdoc.org/logics/proof_theory?IFOL&#45;&gt;http://latin.omdoc.org/logics/model_theory?FOLMOD</title>
<a xlink:href="http://latin.omdoc.org/logics/soundness?IFOL" class="graphview">
<path fill="none" stroke="black" d="M68.5971,-92.5306C76.0144,-88.3566 84.4582,-83.8019 92.3485,-80 127.101,-63.2544 167.679,-46.7342 197.548,-35.1182"/>
<polygon fill="black" stroke="black" points="199.175,-38.2417 207.243,-31.3737 196.653,-31.7118 199.175,-38.2417"/>
</a>
<a xlink:href="http://latin.omdoc.org/logics/soundness?IFOL" class="IFOL">
<text text-anchor="middle" x="165.348" y="-58.3" font-family="Times New Roman,serif" font-size="14.00">IFOL</text>
</a>
</g>
<!-- http://latin.omdoc.org/logics/proof_theory?IFOL&#45;&gt;http://latin.omdoc.org/translations/fol_ifol?DN&#45;IFOL -->
<g id="edge59" class="edge"><title>http://latin.omdoc.org/logics/proof_theory?IFOL&#45;&gt;http://latin.omdoc.org/translations/fol_ifol?DN&#45;IFOL</title>
<a xlink:href="http://latin.omdoc.org/translations/fol_ifol?IFOLPF" class="graphview">
<path fill="none" stroke="black" d="M44.3826,-87.9193C43.3312,-77.746 43.2674,-64.7627 47.3485,-54 48.8702,-49.9869 51.0857,-46.1384 53.6436,-42.5578"/>
<polygon fill="black" stroke="black" points="56.4246,-44.6864 60.0679,-34.7377 51.0157,-40.243 56.4246,-44.6864"/>
</a>
<a xlink:href="http://latin.omdoc.org/translations/fol_ifol?IFOLPF" class="IFOLPF">
<text text-anchor="middle" x="71.8485" y="-58.3" font-family="Times New Roman,serif" font-size="14.00">IFOLPF</text>
</a>
</g>
<!-- http://latin.omdoc.org/logics/proof_theory?IFOL&#45;&gt;http://latin.omdoc.org/translations/fol_ifol?DN&#45;IFOL -->
<g id="edge61" class="edge"><title>http://latin.omdoc.org/logics/proof_theory?IFOL&#45;&gt;http://latin.omdoc.org/translations/fol_ifol?DN&#45;IFOL</title>
<a class="graphinclude">
<path fill="none" stroke="black" d="M40.678,-88.2995C37.6202,-78.0258 35.6111,-64.8041 40.3485,-54 42.3587,-49.4155 45.2986,-45.1663 48.6673,-41.3243"/>
<polygon fill="black" stroke="black" points="51.3853,-43.5582 56.0236,-34.0326 46.4574,-38.5866 51.3853,-43.5582"/>
</a>
</g>
<!-- http://latin.omdoc.org/logics/syntax?Exists -->
<g id="node19" class="node"><title>http://latin.omdoc.org/logics/syntax?Exists</title>
<a xlink:href="http://latin.omdoc.org/logics/syntax?Exists" class="graphtheory">
<ellipse fill="gray" stroke="black" cx="417.348" cy="-180" rx="32.2457" ry="18"/>
<text text-anchor="middle" x="417.348" y="-176.3" font-family="Times New Roman,serif" font-size="14.00">Exists</text>
</a>
</g>
<!-- http://latin.omdoc.org/logics/syntax?Exists&#45;&gt;http://latin.omdoc.org/logics/proof_theory?Exists -->
<g id="edge19" class="edge"><title>http://latin.omdoc.org/logics/syntax?Exists&#45;&gt;http://latin.omdoc.org/logics/proof_theory?Exists</title>
<a class="graphinclude">
<path fill="none" stroke="black" d="M445.282,-170.762C474.671,-162.379 522.393,-149.575 564.348,-142 603.954,-134.849 616.666,-146.133 654.348,-132 657.906,-130.666 661.446,-128.9 664.839,-126.924"/>
<polygon fill="black" stroke="black" points="666.927,-129.74 673.391,-121.346 663.103,-123.877 666.927,-129.74"/>
</a>
</g>
<!-- http://latin.omdoc.org/logics/syntax?Exists&#45;&gt;http://latin.omdoc.org/foundations/mizar?Mizar -->
<g id="edge53" class="edge"><title>http://latin.omdoc.org/logics/syntax?Exists&#45;&gt;http://latin.omdoc.org/foundations/mizar?Mizar</title>
<a xlink:href="http://latin.omdoc.org/foundations/mizar?ExistsMizarView" class="graphview">
<path fill="none" stroke="black" d="M414.341,-161.781C411.567,-139.776 410.566,-101.917 431.348,-80 447.242,-63.2389 462.727,-82.1869 482.348,-70 492.643,-63.6063 501.227,-53.4451 507.698,-43.8695"/>
<polygon fill="black" stroke="black" points="510.683,-45.6959 513.034,-35.3651 504.754,-41.9754 510.683,-45.6959"/>
</a>
<a xlink:href="http://latin.omdoc.org/foundations/mizar?ExistsMizarView" class="ExistsMizarView">
<text text-anchor="middle" x="478.348" y="-102.3" font-family="Times New Roman,serif" font-size="14.00">ExistsMizarView</text>
</a>
</g>
<!-- http://latin.omdoc.org/logics/syntax?Exists&#45;&gt;http://latin.omdoc.org/logics/model_theory?FOLMOD -->
<g id="edge49" class="edge"><title>http://latin.omdoc.org/logics/syntax?Exists&#45;&gt;http://latin.omdoc.org/logics/model_theory?FOLMOD</title>
<a xlink:href="http://latin.omdoc.org/logics/model_theory?Exists" class="graphview">
<path fill="none" stroke="black" d="M384.865,-179.521C347.351,-178.212 286.666,-169.854 254.348,-132 234.245,-108.453 233.5,-71.4206 235.951,-46.2183"/>
<polygon fill="black" stroke="black" points="239.435,-46.5609 237.151,-36.2154 232.485,-45.7277 239.435,-46.5609"/>
</a>
<a xlink:href="http://latin.omdoc.org/logics/model_theory?Exists" class="Exists">
<text text-anchor="middle" x="271.348" y="-102.3" font-family="Times New Roman,serif" font-size="14.00">Exists</text>
</a>
</g>
<!-- http://latin.omdoc.org/logics/syntax?Exists&#45;&gt;http://latin.omdoc.org/translations/fol_ifol?DN&#45;IFOL -->
<g id="edge51" class="edge"><title>http://latin.omdoc.org/logics/syntax?Exists&#45;&gt;http://latin.omdoc.org/translations/fol_ifol?DN&#45;IFOL</title>
<a xlink:href="http://latin.omdoc.org/translations/fol_ifol?Exists" class="graphview">
<path fill="none" stroke="black" d="M385.322,-176.966C341.21,-173.114 260.193,-162.211 198.348,-132 155.89,-111.259 118.277,-70.2596 96.9249,-43.7661"/>
<polygon fill="black" stroke="black" points="99.5187,-41.4029 90.5782,-35.7181 94.0222,-45.7375 99.5187,-41.4029"/>
</a>
<a xlink:href="http://latin.omdoc.org/translations/fol_ifol?Exists" class="Exists">
<text text-anchor="middle" x="215.348" y="-102.3" font-family="Times New Roman,serif" font-size="14.00">Exists</text>
</a>
</g>
<!-- http://latin.omdoc.org/logics/proof_theory?BaseFOL -->
<g id="node21" class="node"><title>http://latin.omdoc.org/logics/proof_theory?BaseFOL</title>
<a xlink:href="http://latin.omdoc.org/logics/proof_theory?BaseFOL" class="graphtheory">
<ellipse fill="gray" stroke="black" cx="690.348" cy="-180" rx="46.2191" ry="18"/>
<text text-anchor="middle" x="690.348" y="-176.3" font-family="Times New Roman,serif" font-size="14.00">BaseFOL</text>
</a>
</g>
<!-- http://latin.omdoc.org/logics/proof_theory?BaseFOL&#45;&gt;http://latin.omdoc.org/logics/proof_theory?Exists -->
<g id="edge21" class="edge"><title>http://latin.omdoc.org/logics/proof_theory?BaseFOL&#45;&gt;http://latin.omdoc.org/logics/proof_theory?Exists</title>
<a class="graphinclude">
<path fill="none" stroke="black" d="M690.348,-161.937C690.348,-153.807 690.348,-143.876 690.348,-134.705"/>
<polygon fill="black" stroke="black" points="693.849,-134.441 690.348,-124.441 686.849,-134.441 693.849,-134.441"/>
</a>
</g>
<!-- http://latin.omdoc.org/logics/proof_theory?BaseFOL&#45;&gt;http://latin.omdoc.org/foundations/mizar?IFOLPFMizarView -->
<g id="edge47" class="edge"><title>http://latin.omdoc.org/logics/proof_theory?BaseFOL&#45;&gt;http://latin.omdoc.org/foundations/mizar?IFOLPFMizarView</title>
<a xlink:href="http://latin.omdoc.org/foundations/mizar?IFOLPFMizarView?[http://latin.omdoc.org/logics/proof_theory?BaseFOL]" class="graphstructure">
<path fill="none" stroke="black" d="M736.494,-178.876C946.166,-178.092 1800.55,-172.418 1839.35,-132 1855.35,-115.327 1853.4,-98.3481 1839.35,-80 1821.1,-56.1717 1748.67,-39.5332 1690.66,-29.7203"/>
<polygon fill="black" stroke="black" points="1691.19,-26.2599 1680.75,-28.0857 1690.05,-33.1666 1691.19,-26.2599"/>
</a>
<a xlink:href="http://latin.omdoc.org/foundations/mizar?IFOLPFMizarView?[http://latin.omdoc.org/logics/proof_theory?BaseFOL]" class="[http://latin.omdoc.org/logics/proof_theory?BaseFOL]">
<text text-anchor="middle" x="2002.85" y="-102.3" font-family="Times New Roman,serif" font-size="14.00">[http://latin.omdoc.org/logics/proof_theory?BaseFOL]</text>
</a>
</g>
<!-- http://latin.omdoc.org/logics/proof_theory?BaseFOL&#45;&gt;http://latin.omdoc.org/foundations/mizar?Mizar -->
<g id="edge43" class="edge"><title>http://latin.omdoc.org/logics/proof_theory?BaseFOL&#45;&gt;http://latin.omdoc.org/foundations/mizar?Mizar</title>
<a xlink:href="http://latin.omdoc.org/foundations/mizar?BaseFOLPFMizarView" class="graphview">
<path fill="none" stroke="black" d="M736.151,-177.428C897.652,-171.105 1426.3,-143.407 1339.35,-54 1326.85,-41.1505 712.237,-37.1271 694.348,-36 648.901,-33.1364 596.926,-27.7425 561.908,-23.796"/>
<polygon fill="black" stroke="black" points="561.942,-20.2773 551.61,-22.622 561.149,-27.2323 561.942,-20.2773"/>
</a>
<a xlink:href="http://latin.omdoc.org/foundations/mizar?BaseFOLPFMizarView" class="BaseFOLPFMizarView">
<text text-anchor="middle" x="1413.85" y="-102.3" font-family="Times New Roman,serif" font-size="14.00">BaseFOLPFMizarView</text>
</a>
</g>
<!-- http://latin.omdoc.org/logics/proof_theory?BaseFOL&#45;&gt;http://latin.omdoc.org/logics/soundness?IFOL -->
<g id="edge45" class="edge"><title>http://latin.omdoc.org/logics/proof_theory?BaseFOL&#45;&gt;http://latin.omdoc.org/logics/soundness?IFOL</title>
<a xlink:href="http://latin.omdoc.org/logics/soundness?IFOL?[http://latin.omdoc.org/logics/proof_theory?BaseFOL]" class="graphstructure">
<path fill="none" stroke="black" d="M736.308,-178.197C895.218,-175.158 1415.41,-162.925 1483.35,-132 1512.81,-118.589 1504.97,-93.6041 1534.35,-80 1562.25,-67.0785 1651.41,-92.5134 1672.35,-70 1677.19,-64.7931 1677.15,-59.2408 1672.35,-54 1666.25,-47.3523 1410.87,-28.9083 1309.34,-21.8228"/>
<polygon fill="black" stroke="black" points="1309.38,-18.3169 1299.16,-21.1142 1308.89,-25.3 1309.38,-18.3169"/>
</a>
<a xlink:href="http://latin.omdoc.org/logics/soundness?IFOL?[http://latin.omdoc.org/logics/proof_theory?BaseFOL]" class="[http://latin.omdoc.org/logics/proof_theory?BaseFOL]">
<text text-anchor="middle" x="1686.85" y="-102.3" font-family="Times New Roman,serif" font-size="14.00">[http://latin.omdoc.org/logics/proof_theory?BaseFOL]</text>
</a>
</g>
<!-- http://latin.omdoc.org/logics/proof_theory?BaseFOL&#45;&gt;http://latin.omdoc.org/logics/model_theory?FOLMOD -->
<g id="edge41" class="edge"><title>http://latin.omdoc.org/logics/proof_theory?BaseFOL&#45;&gt;http://latin.omdoc.org/logics/model_theory?FOLMOD</title>
<a xlink:href="http://latin.omdoc.org/logics/soundness?BaseFOL" class="graphview">
<path fill="none" stroke="black" d="M658.945,-166.533C638.924,-158.002 612.805,-145.77 591.348,-132 561.081,-112.575 562.893,-92.9697 529.348,-80 477.49,-59.9491 328.692,-95.6238 279.348,-70 268.594,-64.4152 259.94,-54.3759 253.542,-44.6727"/>
<polygon fill="black" stroke="black" points="256.469,-42.7475 248.305,-35.9936 250.475,-46.3639 256.469,-42.7475"/>
</a>
<a xlink:href="http://latin.omdoc.org/logics/soundness?BaseFOL" class="BaseFOL">
<text text-anchor="middle" x="618.848" y="-102.3" font-family="Times New Roman,serif" font-size="14.00">BaseFOL</text>
</a>
</g>
<!-- http://latin.omdoc.org/logics/proof_theory?BaseFOL&#45;&gt;http://latin.omdoc.org/translations/fol_ifol?DN&#45;IFOL -->
<g id="edge39" class="edge"><title>http://latin.omdoc.org/logics/proof_theory?BaseFOL&#45;&gt;http://latin.omdoc.org/translations/fol_ifol?DN&#45;IFOL</title>
<a xlink:href="http://latin.omdoc.org/translations/fol_ifol?BaseFOLPF" class="graphview">
<path fill="none" stroke="black" d="M644.926,-176.652C562.302,-171.776 391.079,-158.711 338.348,-132 309.747,-117.512 317.378,-93.6102 288.348,-80 232.269,-53.7075 207.587,-91.0848 149.348,-70 139.931,-66.5903 121.35,-53.1389 105.559,-40.9072"/>
<polygon fill="black" stroke="black" points="107.647,-38.0974 97.6182,-34.6816 103.328,-43.6061 107.647,-38.0974"/>
</a>
<a xlink:href="http://latin.omdoc.org/translations/fol_ifol?BaseFOLPF" class="BaseFOLPF">
<text text-anchor="middle" x="373.848" y="-102.3" font-family="Times New Roman,serif" font-size="14.00">BaseFOLPF</text>
</a>
</g>
<!-- http://cds.omdoc.org/urtheories?LF -->
<g id="node23" class="node"><title>http://cds.omdoc.org/urtheories?LF</title>
<a xlink:href="http://cds.omdoc.org/urtheories?LF" class="graphtheory">
<ellipse fill="gray" stroke="black" cx="491.348" cy="-254" rx="27" ry="18"/>
<text text-anchor="middle" x="491.348" y="-250.3" font-family="Times New Roman,serif" font-size="14.00">LF</text>
</a>
</g>
<!-- http://cds.omdoc.org/urtheories?LF&#45;&gt;http://latin.omdoc.org/logics/proof_theory?Exists -->
<g id="edge23" class="edge"><title>http://cds.omdoc.org/urtheories?LF&#45;&gt;http://latin.omdoc.org/logics/proof_theory?Exists</title>
<a class="graphmeta">
<path fill="none" stroke="black" d="M509.141,-240.052C518.192,-233.458 529.363,-225.311 539.348,-218 582.596,-186.337 632.713,-149.459 662.949,-127.19"/>
<polygon fill="black" stroke="black" points="665.321,-129.79 671.296,-121.042 661.169,-124.154 665.321,-129.79"/>
</a>
</g>
<!-- http://cds.omdoc.org/urtheories?LF&#45;&gt;http://latin.omdoc.org/foundations/mizar?Mizar -->
<g id="edge35" class="edge"><title>http://cds.omdoc.org/urtheories?LF&#45;&gt;http://latin.omdoc.org/foundations/mizar?Mizar</title>
<a class="graphmeta">
<path fill="none" stroke="black" d="M497.557,-236.474C505.84,-213.457 520.075,-170.261 525.348,-132 528.504,-109.105 526.105,-103.099 525.348,-80 524.987,-68.9783 524.261,-56.8544 523.524,-46.3388"/>
<polygon fill="black" stroke="black" points="526.994,-45.7921 522.768,-36.0762 520.012,-46.3063 526.994,-45.7921"/>
</a>
</g>
<!-- http://cds.omdoc.org/urtheories?LF&#45;&gt;http://latin.omdoc.org/logics/model_theory?FOLMOD -->
<g id="edge27" class="edge"><title>http://cds.omdoc.org/urtheories?LF&#45;&gt;http://latin.omdoc.org/logics/model_theory?FOLMOD</title>
<a class="graphmeta">
<path fill="none" stroke="black" d="M464.891,-249.756C410.229,-241.475 285.515,-214.053 232.348,-132 215.692,-106.293 222.264,-70.0395 229.966,-45.5877"/>
<polygon fill="black" stroke="black" points="233.356,-46.4906 233.271,-35.8961 226.73,-44.2309 233.356,-46.4906"/>
</a>
</g>
<!-- http://cds.omdoc.org/urtheories?LF&#45;&gt;http://latin.omdoc.org/translations/fol_ifol?DN&#45;IFOL -->
<g id="edge37" class="edge"><title>http://cds.omdoc.org/urtheories?LF&#45;&gt;http://latin.omdoc.org/translations/fol_ifol?DN&#45;IFOL</title>
<a class="graphmeta">
<path fill="none" stroke="black" d="M464.514,-251.39C386.523,-246.382 161.265,-229.495 95.3485,-198 51.2362,-176.923 29.2122,-175.728 7.34847,-132 -2.98714,-111.329 -1.69678,-101.268 7.34847,-80 14.6325,-62.8735 29.6086,-48.8625 43.9367,-38.607"/>
<polygon fill="black" stroke="black" points="45.9033,-41.5023 52.235,-33.0075 41.9879,-35.6997 45.9033,-41.5023"/>
</a>
</g>
<!-- http://cds.omdoc.org/urtheories?LF&#45;&gt;http://latin.omdoc.org/logics/proof_theory?IFOL -->
<g id="edge29" class="edge"><title>http://cds.omdoc.org/urtheories?LF&#45;&gt;http://latin.omdoc.org/logics/proof_theory?IFOL</title>
<a class="graphmeta">
<path fill="none" stroke="black" d="M464.374,-251.95C398.541,-249.071 231.312,-239.774 180.348,-218 133.729,-198.082 90.8402,-156.27 66.9809,-130.031"/>
<polygon fill="black" stroke="black" points="69.4712,-127.565 60.2041,-122.429 64.2461,-132.223 69.4712,-127.565"/>
</a>
</g>
<!-- http://cds.omdoc.org/urtheories?LF&#45;&gt;http://latin.omdoc.org/logics/proof_theory?ExistsExt -->
<g id="edge25" class="edge"><title>http://cds.omdoc.org/urtheories?LF&#45;&gt;http://latin.omdoc.org/logics/proof_theory?ExistsExt</title>
<a class="graphmeta">
<path fill="none" stroke="black" d="M518.491,-253.199C724.961,-254.435 2042.74,-257.369 2159.35,-132 2175.09,-115.077 2172.73,-98.8405 2159.35,-80 2132.12,-41.6744 2078.96,-27.2265 2038.35,-21.8847"/>
<polygon fill="black" stroke="black" points="2038.65,-18.3967 2028.31,-20.7138 2037.84,-25.3495 2038.65,-18.3967"/>
</a>
</g>
<!-- http://cds.omdoc.org/urtheories?LF&#45;&gt;http://latin.omdoc.org/logics/syntax?Exists -->
<g id="edge33" class="edge"><title>http://cds.omdoc.org/urtheories?LF&#45;&gt;http://latin.omdoc.org/logics/syntax?Exists</title>
<a class="graphmeta">
<path fill="none" stroke="black" d="M476.728,-238.775C466.294,-228.622 452.055,-214.768 440.136,-203.172"/>
<polygon fill="black" stroke="black" points="442.31,-200.404 432.702,-195.939 437.429,-205.421 442.31,-200.404"/>
</a>
</g>
<!-- http://cds.omdoc.org/urtheories?LF&#45;&gt;http://latin.omdoc.org/logics/proof_theory?BaseFOL -->
<g id="edge31" class="edge"><title>http://cds.omdoc.org/urtheories?LF&#45;&gt;http://latin.omdoc.org/logics/proof_theory?BaseFOL</title>
<a class="graphmeta">
<path fill="none" stroke="black" d="M514.733,-244.709C534.599,-237.65 563.865,-227.218 589.348,-218 608.848,-210.946 630.435,-203.05 648.629,-196.37"/>
<polygon fill="black" stroke="black" points="649.898,-199.632 658.078,-192.898 647.484,-193.062 649.898,-199.632"/>
</a>
</g>
</g>
</svg>
