<?xml version="1.0" encoding="UTF-8" standalone="no"?>
<!DOCTYPE svg PUBLIC "-//W3C//DTD SVG 1.1//EN"
 "http://www.w3.org/Graphics/SVG/1.1/DTD/svg11.dtd">
<!-- Generated by graphviz version 2.28.0 (20110507.0327)
 -->
<!-- Title: MMT Pages: 1 -->
<svg
 viewBox="0.00 0.00 148.00 260.00" xmlns="http://www.w3.org/2000/svg" xmlns:xlink="http://www.w3.org/1999/xlink">
<g id="graph1" class="graph" transform="scale(1 1) rotate(0) translate(4 256)">
<title>MMT</title>
<polygon fill="white" stroke="white" points="-4,5 -4,-256 145,-256 145,5 -4,5"/>
<g id="graph2" class="cluster"><title>cluster_local</title>
<polygon fill="none" stroke="black" points="8,-64 8,-116 114,-116 114,-64 8,-64"/>
</g>
<!-- http://latin.omdoc.org/logics/proof_theory?ExistsExt -->
<g id="node2" class="node"><title>http://latin.omdoc.org/logics/proof_theory?ExistsExt</title>
<a xlink:href="http://latin.omdoc.org/logics/proof_theory?ExistsExt" class="graphtheory">
<ellipse fill="none" stroke="black" cx="61" cy="-90" rx="44.271" ry="18"/>
<text text-anchor="middle" x="61" y="-86.3" font-family="Times New Roman,serif" font-size="14.00">ExistsExt</text>
</a>
</g>
<!-- http://latin.omdoc.org/logics/proof_theory?IFOLExt -->
<g id="node3" class="node"><title>http://latin.omdoc.org/logics/proof_theory?IFOLExt</title>
<a xlink:href="http://latin.omdoc.org/logics/proof_theory?IFOLExt" class="graphtheory">
<ellipse fill="gray" stroke="black" cx="97" cy="-18" rx="43.319" ry="18"/>
<text text-anchor="middle" x="97" y="-14.3" font-family="Times New Roman,serif" font-size="14.00">IFOLExt</text>
</a>
</g>
<!-- http://latin.omdoc.org/logics/proof_theory?ExistsExt&#45;&gt;http://latin.omdoc.org/logics/proof_theory?IFOLExt -->
<g id="edge3" class="edge"><title>http://latin.omdoc.org/logics/proof_theory?ExistsExt&#45;&gt;http://latin.omdoc.org/logics/proof_theory?IFOLExt</title>
<a class="graphinclude">
<path fill="none" stroke="black" d="M69.7146,-72.055C73.9154,-63.8866 79.0455,-53.9116 83.7189,-44.8244"/>
<polygon fill="black" stroke="black" points="86.9046,-46.2826 88.3657,-35.789 80.6796,-43.0812 86.9046,-46.2826"/>
</a>
</g>
<!-- http://latin.omdoc.org/logics/proof_theory?Exists -->
<g id="node5" class="node"><title>http://latin.omdoc.org/logics/proof_theory?Exists</title>
<a xlink:href="http://latin.omdoc.org/logics/proof_theory?Exists" class="graphtheory">
<ellipse fill="gray" stroke="black" cx="74" cy="-162" rx="32.2457" ry="18"/>
<text text-anchor="middle" x="74" y="-158.3" font-family="Times New Roman,serif" font-size="14.00">Exists</text>
</a>
</g>
<!-- http://latin.omdoc.org/logics/proof_theory?Exists&#45;&gt;http://latin.omdoc.org/logics/proof_theory?ExistsExt -->
<g id="edge5" class="edge"><title>http://latin.omdoc.org/logics/proof_theory?Exists&#45;&gt;http://latin.omdoc.org/logics/proof_theory?ExistsExt</title>
<a class="graphinclude">
<path fill="none" stroke="black" d="M70.8531,-144.055C69.4213,-136.346 67.6907,-127.027 66.0819,-118.364"/>
<polygon fill="black" stroke="black" points="69.4754,-117.468 64.2083,-108.275 62.5931,-118.746 69.4754,-117.468"/>
</a>
</g>
<!-- http://cds.omdoc.org/urtheories?LF -->
<g id="node7" class="node"><title>http://cds.omdoc.org/urtheories?LF</title>
<a xlink:href="http://cds.omdoc.org/urtheories?LF" class="graphtheory">
<ellipse fill="gray" stroke="black" cx="74" cy="-234" rx="27" ry="18"/>
<text text-anchor="middle" x="74" y="-230.3" font-family="Times New Roman,serif" font-size="14.00">LF</text>
</a>
</g>
<!-- http://cds.omdoc.org/urtheories?LF&#45;&gt;http://latin.omdoc.org/logics/proof_theory?ExistsExt -->
<g id="edge7" class="edge"><title>http://cds.omdoc.org/urtheories?LF&#45;&gt;http://latin.omdoc.org/logics/proof_theory?ExistsExt</title>
<a class="graphmeta">
<path fill="none" stroke="black" d="M58.7911,-218.85C49.3666,-208.994 38.115,-194.972 33,-180 25.6865,-158.593 34.6854,-134.056 44.3755,-116.174"/>
<polygon fill="black" stroke="black" points="47.4281,-117.887 49.423,-107.482 41.3746,-114.372 47.4281,-117.887"/>
</a>
</g>
<!-- http://cds.omdoc.org/urtheories?LF&#45;&gt;http://latin.omdoc.org/logics/proof_theory?IFOLExt -->
<g id="edge9" class="edge"><title>http://cds.omdoc.org/urtheories?LF&#45;&gt;http://latin.omdoc.org/logics/proof_theory?IFOLExt</title>
<a class="graphmeta">
<path fill="none" stroke="black" d="M88.9788,-218.768C98.3061,-208.878 109.536,-194.848 115,-180 132.812,-131.601 129.17,-114.349 118,-64 116.579,-57.5928 114.146,-51.017 111.428,-44.9394"/>
<polygon fill="black" stroke="black" points="114.551,-43.3565 107.029,-35.8949 108.256,-46.4185 114.551,-43.3565"/>
</a>
</g>
<!-- http://cds.omdoc.org/urtheories?LF&#45;&gt;http://latin.omdoc.org/logics/proof_theory?Exists -->
<g id="edge11" class="edge"><title>http://cds.omdoc.org/urtheories?LF&#45;&gt;http://latin.omdoc.org/logics/proof_theory?Exists</title>
<a class="graphmeta">
<path fill="none" stroke="black" d="M74,-215.697C74,-207.983 74,-198.712 74,-190.112"/>
<polygon fill="black" stroke="black" points="77.5001,-190.104 74,-180.104 70.5001,-190.104 77.5001,-190.104"/>
</a>
</g>
</g>
</svg>
