<?xml version="1.0" encoding="UTF-8" standalone="no"?>
<!DOCTYPE svg PUBLIC "-//W3C//DTD SVG 1.1//EN"
 "http://www.w3.org/Graphics/SVG/1.1/DTD/svg11.dtd">
<!-- Generated by graphviz version 2.28.0 (20110507.0327)
 -->
<!-- Title: MMT Pages: 1 -->
<svg width="227pt" height="332pt"
 viewBox="0.00 0.00 226.55 332.00" xmlns="http://www.w3.org/2000/svg" xmlns:xlink="http://www.w3.org/1999/xlink">
<g id="graph1" class="graph" transform="scale(1 1) rotate(0) translate(4 328)">
<title>MMT</title>
<polygon fill="white" stroke="white" points="-4,5 -4,-328 223.551,-328 223.551,5 -4,5"/>
<g id="graph2" class="cluster"><title>cluster_local</title>
<polygon fill="none" stroke="black" points="36.5506,-64 36.5506,-116 106.551,-116 106.551,-64 36.5506,-64"/>
</g>
<!-- http://latin.omdoc.org/logics/proof_theory?FL0 -->
<g id="node2" class="node"><title>http://latin.omdoc.org/logics/proof_theory?FL0</title>
<a xlink:href="http://latin.omdoc.org/logics/proof_theory?FL0" class="graphtheory">
<ellipse fill="none" stroke="black" cx="71.5506" cy="-90" rx="27" ry="18"/>
<text text-anchor="middle" x="71.5506" y="-86.3" font-family="Times New Roman,serif" font-size="14.00">FL0</text>
</a>
</g>
<!-- http://latin.omdoc.org/logics/proof_theory?DL -->
<g id="node3" class="node"><title>http://latin.omdoc.org/logics/proof_theory?DL</title>
<a xlink:href="http://latin.omdoc.org/logics/proof_theory?DL" class="graphtheory">
<ellipse fill="gray" stroke="black" cx="71.5506" cy="-18" rx="27" ry="18"/>
<text text-anchor="middle" x="71.5506" y="-14.3" font-family="Times New Roman,serif" font-size="14.00">DL</text>
</a>
</g>
<!-- http://latin.omdoc.org/logics/proof_theory?FL0&#45;&gt;http://latin.omdoc.org/logics/proof_theory?DL -->
<g id="edge3" class="edge"><title>http://latin.omdoc.org/logics/proof_theory?FL0&#45;&gt;http://latin.omdoc.org/logics/proof_theory?DL</title>
<a class="graphinclude">
<path fill="none" stroke="black" d="M71.5506,-71.6966C71.5506,-63.9827 71.5506,-54.7125 71.5506,-46.1124"/>
<polygon fill="black" stroke="black" points="75.0507,-46.1043 71.5506,-36.1043 68.0507,-46.1044 75.0507,-46.1043"/>
</a>
</g>
<!-- http://latin.omdoc.org/logics/syntax?FL0 -->
<g id="node5" class="node"><title>http://latin.omdoc.org/logics/syntax?FL0</title>
<a xlink:href="http://latin.omdoc.org/logics/syntax?FL0" class="graphtheory">
<ellipse fill="gray" stroke="black" cx="54.5506" cy="-162" rx="27" ry="18"/>
<text text-anchor="middle" x="54.5506" y="-158.3" font-family="Times New Roman,serif" font-size="14.00">FL0</text>
</a>
</g>
<!-- http://latin.omdoc.org/logics/syntax?FL0&#45;&gt;http://latin.omdoc.org/logics/proof_theory?FL0 -->
<g id="edge5" class="edge"><title>http://latin.omdoc.org/logics/syntax?FL0&#45;&gt;http://latin.omdoc.org/logics/proof_theory?FL0</title>
<a class="graphinclude">
<path fill="none" stroke="black" d="M58.6658,-144.055C60.5586,-136.261 62.851,-126.822 64.9743,-118.079"/>
<polygon fill="black" stroke="black" points="68.3962,-118.819 67.3551,-108.275 61.594,-117.167 68.3962,-118.819"/>
</a>
</g>
<!-- http://latin.omdoc.org/logics/proof_theory?DLBase -->
<g id="node7" class="node"><title>http://latin.omdoc.org/logics/proof_theory?DLBase</title>
<a xlink:href="http://latin.omdoc.org/logics/proof_theory?DLBase" class="graphtheory">
<ellipse fill="gray" stroke="black" cx="177.551" cy="-162" rx="39.9464" ry="18"/>
<text text-anchor="middle" x="177.551" y="-158.3" font-family="Times New Roman,serif" font-size="14.00">DLBase</text>
</a>
</g>
<!-- http://latin.omdoc.org/logics/proof_theory?DLBase&#45;&gt;http://latin.omdoc.org/logics/proof_theory?FL0 -->
<g id="edge7" class="edge"><title>http://latin.omdoc.org/logics/proof_theory?DLBase&#45;&gt;http://latin.omdoc.org/logics/proof_theory?FL0</title>
<a class="graphinclude">
<path fill="none" stroke="black" d="M153.034,-147.436C138.117,-138.905 118.86,-127.388 102.551,-116 100.368,-114.476 98.1409,-112.845 95.9318,-111.174"/>
<polygon fill="black" stroke="black" points="97.6636,-108.084 87.6345,-104.668 93.3446,-113.593 97.6636,-108.084"/>
</a>
</g>
<!-- http://latin.omdoc.org/logics/proof_theory?DLBase&#45;&gt;http://latin.omdoc.org/logics/proof_theory?DL -->
<g id="edge25" class="edge"><title>http://latin.omdoc.org/logics/proof_theory?DLBase&#45;&gt;http://latin.omdoc.org/logics/proof_theory?DL</title>
<a class="graphinclude">
<path fill="none" stroke="black" d="M166.937,-144.479C154.151,-124.856 131.738,-91.3404 110.551,-64 104.725,-56.482 98.0491,-48.5559 91.8872,-41.4858"/>
<polygon fill="black" stroke="black" points="94.2143,-38.8335 84.9712,-33.6552 88.9677,-43.4674 94.2143,-38.8335"/>
</a>
</g>
<!-- http://latin.omdoc.org/logics/syntax?DLBase -->
<g id="node9" class="node"><title>http://latin.omdoc.org/logics/syntax?DLBase</title>
<a xlink:href="http://latin.omdoc.org/logics/syntax?DLBase" class="graphtheory">
<ellipse fill="gray" stroke="black" cx="109.551" cy="-234" rx="39.9464" ry="18"/>
<text text-anchor="middle" x="109.551" y="-230.3" font-family="Times New Roman,serif" font-size="14.00">DLBase</text>
</a>
</g>
<!-- http://latin.omdoc.org/logics/syntax?DLBase&#45;&gt;http://latin.omdoc.org/logics/proof_theory?FL0 -->
<g id="edge9" class="edge"><title>http://latin.omdoc.org/logics/syntax?DLBase&#45;&gt;http://latin.omdoc.org/logics/proof_theory?FL0</title>
<a class="graphinclude">
<path fill="none" stroke="black" d="M106.581,-215.771C103.304,-197.719 97.5569,-168.618 90.5506,-144 88.012,-135.08 84.7455,-125.493 81.6391,-116.957"/>
<polygon fill="black" stroke="black" points="84.8943,-115.669 78.1195,-107.523 78.336,-118.116 84.8943,-115.669"/>
</a>
</g>
<!-- http://latin.omdoc.org/logics/syntax?DLBase&#45;&gt;http://latin.omdoc.org/logics/syntax?FL0 -->
<g id="edge21" class="edge"><title>http://latin.omdoc.org/logics/syntax?DLBase&#45;&gt;http://latin.omdoc.org/logics/syntax?FL0</title>
<a class="graphinclude">
<path fill="none" stroke="black" d="M96.7942,-216.765C89.6542,-207.677 80.6315,-196.194 72.7598,-186.175"/>
<polygon fill="black" stroke="black" points="75.4151,-183.89 66.4848,-178.189 69.9109,-188.215 75.4151,-183.89"/>
</a>
</g>
<!-- http://latin.omdoc.org/logics/syntax?DLBase&#45;&gt;http://latin.omdoc.org/logics/proof_theory?DLBase -->
<g id="edge23" class="edge"><title>http://latin.omdoc.org/logics/syntax?DLBase&#45;&gt;http://latin.omdoc.org/logics/proof_theory?DLBase</title>
<a class="graphinclude">
<path fill="none" stroke="black" d="M124.981,-217.116C133.849,-207.987 145.148,-196.355 154.997,-186.217"/>
<polygon fill="black" stroke="black" points="157.724,-188.433 162.181,-178.821 152.703,-183.555 157.724,-188.433"/>
</a>
</g>
<!-- http://cds.omdoc.org/urtheories?LF -->
<g id="node11" class="node"><title>http://cds.omdoc.org/urtheories?LF</title>
<a xlink:href="http://cds.omdoc.org/urtheories?LF" class="graphtheory">
<ellipse fill="gray" stroke="black" cx="41.5506" cy="-306" rx="27" ry="18"/>
<text text-anchor="middle" x="41.5506" y="-302.3" font-family="Times New Roman,serif" font-size="14.00">LF</text>
</a>
</g>
<!-- http://cds.omdoc.org/urtheories?LF&#45;&gt;http://latin.omdoc.org/logics/proof_theory?FL0 -->
<g id="edge11" class="edge"><title>http://cds.omdoc.org/urtheories?LF&#45;&gt;http://latin.omdoc.org/logics/proof_theory?FL0</title>
<a class="graphmeta">
<path fill="none" stroke="black" d="M33.6589,-288.297C20.6343,-258.242 -1.97917,-193.563 18.5506,-144 24.1061,-130.588 34.885,-118.8 45.2795,-109.768"/>
<polygon fill="black" stroke="black" points="47.5266,-112.452 53.0605,-103.417 43.1003,-107.029 47.5266,-112.452"/>
</a>
</g>
<!-- http://cds.omdoc.org/urtheories?LF&#45;&gt;http://latin.omdoc.org/logics/proof_theory?DL -->
<g id="edge17" class="edge"><title>http://cds.omdoc.org/urtheories?LF&#45;&gt;http://latin.omdoc.org/logics/proof_theory?DL</title>
<a class="graphmeta">
<path fill="none" stroke="black" d="M28.996,-289.858C21.4897,-279.805 12.6398,-265.937 8.55058,-252 -4.96374,-205.94 0.308783,-191.453 7.55058,-144 13.1705,-107.175 14.4146,-96.5383 32.5506,-64 37.1088,-55.822 43.3227,-47.7985 49.4504,-40.8436"/>
<polygon fill="black" stroke="black" points="52.2773,-42.942 56.4998,-33.2249 47.1393,-38.1879 52.2773,-42.942"/>
</a>
</g>
<!-- http://cds.omdoc.org/urtheories?LF&#45;&gt;http://latin.omdoc.org/logics/syntax?FL0 -->
<g id="edge13" class="edge"><title>http://cds.omdoc.org/urtheories?LF&#45;&gt;http://latin.omdoc.org/logics/syntax?FL0</title>
<a class="graphmeta">
<path fill="none" stroke="black" d="M43.1187,-287.871C45.3343,-263.67 49.4045,-219.211 52.0427,-190.393"/>
<polygon fill="black" stroke="black" points="55.5506,-190.467 52.9769,-180.189 48.5797,-189.829 55.5506,-190.467"/>
</a>
</g>
<!-- http://cds.omdoc.org/urtheories?LF&#45;&gt;http://latin.omdoc.org/logics/proof_theory?DLBase -->
<g id="edge15" class="edge"><title>http://cds.omdoc.org/urtheories?LF&#45;&gt;http://latin.omdoc.org/logics/proof_theory?DLBase</title>
<a class="graphmeta">
<path fill="none" stroke="black" d="M67.6291,-300.307C94.555,-294.057 135.755,-280.311 158.551,-252 172.448,-234.74 176.821,-209.678 177.934,-190.544"/>
<polygon fill="black" stroke="black" points="181.438,-190.446 178.258,-180.34 174.442,-190.223 181.438,-190.446"/>
</a>
</g>
<!-- http://cds.omdoc.org/urtheories?LF&#45;&gt;http://latin.omdoc.org/logics/syntax?DLBase -->
<g id="edge19" class="edge"><title>http://cds.omdoc.org/urtheories?LF&#45;&gt;http://latin.omdoc.org/logics/syntax?DLBase</title>
<a class="graphmeta">
<path fill="none" stroke="black" d="M55.6402,-290.496C64.6557,-281.215 76.5548,-268.966 86.8801,-258.337"/>
<polygon fill="black" stroke="black" points="89.5991,-260.561 94.0565,-250.95 84.5781,-255.684 89.5991,-260.561"/>
</a>
</g>
</g>
</svg>
