<?xml version="1.0" encoding="UTF-8" standalone="no"?>
<!DOCTYPE svg PUBLIC "-//W3C//DTD SVG 1.1//EN"
 "http://www.w3.org/Graphics/SVG/1.1/DTD/svg11.dtd">
<!-- Generated by graphviz version 2.28.0 (20110507.0327)
 -->
<!-- Title: MMT Pages: 1 -->
<svg width="475pt" height="294pt"
 viewBox="0.00 0.00 474.64 294.00" xmlns="http://www.w3.org/2000/svg" xmlns:xlink="http://www.w3.org/1999/xlink">
<g id="graph1" class="graph" transform="scale(1 1) rotate(0) translate(4 290)">
<title>MMT</title>
<polygon fill="white" stroke="white" points="-4,5 -4,-290 471.641,-290 471.641,5 -4,5"/>
<g id="graph2" class="cluster"><title>cluster_local</title>
<polygon fill="none" stroke="black" points="159.972,-80 159.972,-132 233.972,-132 233.972,-80 159.972,-80"/>
</g>
<!-- http://latin.omdoc.org/logics/proof_theory?FOL -->
<g id="node2" class="node"><title>http://latin.omdoc.org/logics/proof_theory?FOL</title>
<a xlink:href="http://latin.omdoc.org/logics/proof_theory?FOL" class="graphtheory">
<ellipse fill="none" stroke="black" cx="196.972" cy="-106" rx="28.3955" ry="18"/>
<text text-anchor="middle" x="196.972" y="-102.3" font-family="Times New Roman,serif" font-size="14.00">FOL</text>
</a>
</g>
<!-- http://latin.omdoc.org/logics/model_theory?FOLMOD -->
<g id="node3" class="node"><title>http://latin.omdoc.org/logics/model_theory?FOLMOD</title>
<a xlink:href="http://latin.omdoc.org/logics/model_theory?FOLMOD" class="graphtheory">
<ellipse fill="gray" stroke="black" cx="380.972" cy="-18" rx="49.0941" ry="18"/>
<text text-anchor="middle" x="380.972" y="-14.3" font-family="Times New Roman,serif" font-size="14.00">FOLMOD</text>
</a>
</g>
<!-- http://latin.omdoc.org/logics/proof_theory?FOL&#45;&gt;http://latin.omdoc.org/logics/model_theory?FOLMOD -->
<g id="edge3" class="edge"><title>http://latin.omdoc.org/logics/proof_theory?FOL&#45;&gt;http://latin.omdoc.org/logics/model_theory?FOLMOD</title>
<a xlink:href="http://latin.omdoc.org/logics/soundness?FOL" class="graphview">
<path fill="none" stroke="black" d="M212.951,-91.0908C217.886,-87.1958 223.473,-83.166 228.972,-80 262.77,-60.5398 303.983,-44.4221 334.964,-33.6512"/>
<polygon fill="black" stroke="black" points="336.31,-36.8901 344.641,-30.3446 334.047,-30.2661 336.31,-36.8901"/>
</a>
<a xlink:href="http://latin.omdoc.org/logics/soundness?FOL" class="FOL">
<text text-anchor="middle" x="295.972" y="-58.3" font-family="Times New Roman,serif" font-size="14.00">FOL</text>
</a>
</g>
<!-- http://latin.omdoc.org/logics/proof_theory?FOLExt -->
<g id="node9" class="node"><title>http://latin.omdoc.org/logics/proof_theory?FOLExt</title>
<a xlink:href="http://latin.omdoc.org/logics/proof_theory?FOLExt" class="graphtheory">
<ellipse fill="gray" stroke="black" cx="244.972" cy="-18" rx="39.9464" ry="18"/>
<text text-anchor="middle" x="244.972" y="-14.3" font-family="Times New Roman,serif" font-size="14.00">FOLExt</text>
</a>
</g>
<!-- http://latin.omdoc.org/logics/proof_theory?FOL&#45;&gt;http://latin.omdoc.org/logics/proof_theory?FOLExt -->
<g id="edge9" class="edge"><title>http://latin.omdoc.org/logics/proof_theory?FOL&#45;&gt;http://latin.omdoc.org/logics/proof_theory?FOLExt</title>
<a class="graphinclude">
<path fill="none" stroke="black" d="M206,-88.8241C212.951,-76.371 222.691,-58.9205 230.694,-44.5805"/>
<polygon fill="black" stroke="black" points="233.839,-46.1278 235.656,-35.69 227.726,-42.7162 233.839,-46.1278"/>
</a>
</g>
<!-- http://latin.omdoc.org/logics/proof_theory?FOLEQ -->
<g id="node11" class="node"><title>http://latin.omdoc.org/logics/proof_theory?FOLEQ</title>
<a xlink:href="http://latin.omdoc.org/logics/proof_theory?FOLEQ" class="graphtheory">
<ellipse fill="gray" stroke="black" cx="135.972" cy="-18" rx="39.9464" ry="18"/>
<text text-anchor="middle" x="135.972" y="-14.3" font-family="Times New Roman,serif" font-size="14.00">FOLEQ</text>
</a>
</g>
<!-- http://latin.omdoc.org/logics/proof_theory?FOL&#45;&gt;http://latin.omdoc.org/logics/proof_theory?FOLEQ -->
<g id="edge11" class="edge"><title>http://latin.omdoc.org/logics/proof_theory?FOL&#45;&gt;http://latin.omdoc.org/logics/proof_theory?FOLEQ</title>
<a class="graphinclude">
<path fill="none" stroke="black" d="M185.783,-89.2263C176.698,-76.417 163.728,-58.132 153.301,-43.4311"/>
<polygon fill="black" stroke="black" points="156.144,-41.3897 147.504,-35.2581 150.434,-45.4395 156.144,-41.3897"/>
</a>
</g>
<!-- http://latin.omdoc.org/logics/proof_theory?DLBase -->
<g id="node5" class="node"><title>http://latin.omdoc.org/logics/proof_theory?DLBase</title>
<a xlink:href="http://latin.omdoc.org/logics/proof_theory?DLBase" class="graphtheory">
<ellipse fill="gray" stroke="black" cx="67.9717" cy="-194" rx="39.9464" ry="18"/>
<text text-anchor="middle" x="67.9717" y="-190.3" font-family="Times New Roman,serif" font-size="14.00">DLBase</text>
</a>
</g>
<!-- http://latin.omdoc.org/logics/proof_theory?DLBase&#45;&gt;http://latin.omdoc.org/logics/proof_theory?FOL -->
<g id="edge5" class="edge"><title>http://latin.omdoc.org/logics/proof_theory?DLBase&#45;&gt;http://latin.omdoc.org/logics/proof_theory?FOL</title>
<a xlink:href="http://latin.omdoc.org/logics/soundness?DLBase" class="graphview">
<path fill="none" stroke="black" d="M86.8637,-177.847C100.264,-167.345 118.839,-153.279 135.972,-142 145.888,-135.472 157.071,-128.854 167.129,-123.155"/>
<polygon fill="black" stroke="black" points="168.958,-126.143 175.98,-118.21 165.543,-120.032 168.958,-126.143"/>
</a>
<a xlink:href="http://latin.omdoc.org/logics/soundness?DLBase" class="DLBase">
<text text-anchor="middle" x="158.972" y="-146.3" font-family="Times New Roman,serif" font-size="14.00">DLBase</text>
</a>
</g>
<!-- http://latin.omdoc.org/logics/proof_theory?BaseSFOL -->
<g id="node7" class="node"><title>http://latin.omdoc.org/logics/proof_theory?BaseSFOL</title>
<a xlink:href="http://latin.omdoc.org/logics/proof_theory?BaseSFOL" class="graphtheory">
<ellipse fill="gray" stroke="black" cx="177.972" cy="-194" rx="51.0191" ry="18"/>
<text text-anchor="middle" x="177.972" y="-190.3" font-family="Times New Roman,serif" font-size="14.00">BaseSFOL</text>
</a>
</g>
<!-- http://latin.omdoc.org/logics/proof_theory?BaseSFOL&#45;&gt;http://latin.omdoc.org/logics/proof_theory?FOL -->
<g id="edge7" class="edge"><title>http://latin.omdoc.org/logics/proof_theory?BaseSFOL&#45;&gt;http://latin.omdoc.org/logics/proof_theory?FOL</title>
<a xlink:href="http://latin.omdoc.org/translations/sfol_fol?BaseSFOLPF" class="graphview">
<path fill="none" stroke="black" d="M181.726,-176.009C184.38,-163.995 187.993,-147.641 191.036,-133.869"/>
<polygon fill="black" stroke="black" points="194.486,-134.475 193.226,-123.956 187.651,-132.965 194.486,-134.475"/>
</a>
<a xlink:href="http://latin.omdoc.org/translations/sfol_fol?BaseSFOLPF" class="BaseSFOLPF">
<text text-anchor="middle" x="229.472" y="-146.3" font-family="Times New Roman,serif" font-size="14.00">BaseSFOLPF</text>
</a>
</g>
<!-- http://latin.omdoc.org/logics/proof_theory?IFOL -->
<g id="node13" class="node"><title>http://latin.omdoc.org/logics/proof_theory?IFOL</title>
<a xlink:href="http://latin.omdoc.org/logics/proof_theory?IFOL" class="graphtheory">
<ellipse fill="gray" stroke="black" cx="381.972" cy="-194" rx="31.2965" ry="18"/>
<text text-anchor="middle" x="381.972" y="-190.3" font-family="Times New Roman,serif" font-size="14.00">IFOL</text>
</a>
</g>
<!-- http://latin.omdoc.org/logics/proof_theory?IFOL&#45;&gt;http://latin.omdoc.org/logics/proof_theory?FOL -->
<g id="edge13" class="edge"><title>http://latin.omdoc.org/logics/proof_theory?IFOL&#45;&gt;http://latin.omdoc.org/logics/proof_theory?FOL</title>
<a class="graphinclude">
<path fill="none" stroke="black" d="M363.168,-179.49C345.799,-167.696 318.848,-151.086 292.972,-142 265.808,-132.462 255.386,-143.452 228.972,-132 226.089,-130.75 223.241,-129.178 220.502,-127.434"/>
<polygon fill="black" stroke="black" points="222.375,-124.469 212.217,-121.458 218.28,-130.147 222.375,-124.469"/>
</a>
</g>
<!-- http://latin.omdoc.org/logics/proof_theory?IFOL&#45;&gt;http://latin.omdoc.org/logics/model_theory?FOLMOD -->
<g id="edge31" class="edge"><title>http://latin.omdoc.org/logics/proof_theory?IFOL&#45;&gt;http://latin.omdoc.org/logics/model_theory?FOLMOD</title>
<a xlink:href="http://latin.omdoc.org/logics/soundness?IFOL" class="graphview">
<path fill="none" stroke="black" d="M381.874,-175.999C381.701,-145.853 381.338,-82.7897 381.129,-46.4303"/>
<polygon fill="black" stroke="black" points="384.627,-46.0494 381.07,-36.0697 377.627,-46.0897 384.627,-46.0494"/>
</a>
<a xlink:href="http://latin.omdoc.org/logics/soundness?IFOL" class="IFOL">
<text text-anchor="middle" x="397.972" y="-102.3" font-family="Times New Roman,serif" font-size="14.00">IFOL</text>
</a>
</g>
<!-- http://latin.omdoc.org/logics/proof_theory?IFOL/Classical -->
<g id="node15" class="node"><title>http://latin.omdoc.org/logics/proof_theory?IFOL/Classical</title>
<a xlink:href="http://latin.omdoc.org/logics/proof_theory?IFOL/Classical" class="graphtheory">
<ellipse fill="gray" stroke="black" cx="289.972" cy="-194" rx="42.3456" ry="18"/>
<text text-anchor="middle" x="289.972" y="-190.3" font-family="Times New Roman,serif" font-size="14.00">Classical</text>
</a>
</g>
<!-- http://latin.omdoc.org/logics/proof_theory?IFOL/Classical&#45;&gt;http://latin.omdoc.org/logics/proof_theory?FOL -->
<g id="edge15" class="edge"><title>http://latin.omdoc.org/logics/proof_theory?IFOL/Classical&#45;&gt;http://latin.omdoc.org/logics/proof_theory?FOL</title>
<a class="graphinclude">
<path fill="none" stroke="black" d="M288.549,-175.995C286.71,-164.793 282.515,-150.649 272.972,-142 258.112,-128.533 247.087,-140.602 228.972,-132 226.134,-130.652 223.314,-129.016 220.593,-127.233"/>
<polygon fill="black" stroke="black" points="222.473,-124.272 212.33,-121.209 218.348,-129.929 222.473,-124.272"/>
</a>
</g>
<!-- http://cds.omdoc.org/urtheories?LF -->
<g id="node17" class="node"><title>http://cds.omdoc.org/urtheories?LF</title>
<a xlink:href="http://cds.omdoc.org/urtheories?LF" class="graphtheory">
<ellipse fill="gray" stroke="black" cx="177.972" cy="-268" rx="27" ry="18"/>
<text text-anchor="middle" x="177.972" y="-264.3" font-family="Times New Roman,serif" font-size="14.00">LF</text>
</a>
</g>
<!-- http://cds.omdoc.org/urtheories?LF&#45;&gt;http://latin.omdoc.org/logics/proof_theory?FOL -->
<g id="edge17" class="edge"><title>http://cds.omdoc.org/urtheories?LF&#45;&gt;http://latin.omdoc.org/logics/proof_theory?FOL</title>
<a class="graphmeta">
<path fill="none" stroke="black" d="M151.706,-263.104C97.9624,-253.98 -16.6122,-227.958 18.9717,-176 50.2206,-130.372 116.355,-114.911 158.622,-109.675"/>
<polygon fill="black" stroke="black" points="159.261,-113.126 168.818,-108.552 158.495,-106.168 159.261,-113.126"/>
</a>
</g>
<!-- http://cds.omdoc.org/urtheories?LF&#45;&gt;http://latin.omdoc.org/logics/model_theory?FOLMOD -->
<g id="edge25" class="edge"><title>http://cds.omdoc.org/urtheories?LF&#45;&gt;http://latin.omdoc.org/logics/model_theory?FOLMOD</title>
<a class="graphmeta">
<path fill="none" stroke="black" d="M204.79,-265.864C266.677,-262.595 416.29,-250.759 443.972,-212 478.07,-164.258 469.893,-132.127 442.972,-80 435.185,-64.9221 422.286,-51.3267 410.265,-40.818"/>
<polygon fill="black" stroke="black" points="412.472,-38.1009 402.554,-34.3734 407.982,-43.472 412.472,-38.1009"/>
</a>
</g>
<!-- http://cds.omdoc.org/urtheories?LF&#45;&gt;http://latin.omdoc.org/logics/proof_theory?DLBase -->
<g id="edge19" class="edge"><title>http://cds.omdoc.org/urtheories?LF&#45;&gt;http://latin.omdoc.org/logics/proof_theory?DLBase</title>
<a class="graphmeta">
<path fill="none" stroke="black" d="M159.312,-254.786C142.621,-243.861 117.849,-227.647 98.3117,-214.859"/>
<polygon fill="black" stroke="black" points="100.035,-211.804 89.7514,-209.256 96.2016,-217.661 100.035,-211.804"/>
</a>
</g>
<!-- http://cds.omdoc.org/urtheories?LF&#45;&gt;http://latin.omdoc.org/logics/proof_theory?BaseSFOL -->
<g id="edge27" class="edge"><title>http://cds.omdoc.org/urtheories?LF&#45;&gt;http://latin.omdoc.org/logics/proof_theory?BaseSFOL</title>
<a class="graphmeta">
<path fill="none" stroke="black" d="M177.972,-249.937C177.972,-241.807 177.972,-231.876 177.972,-222.705"/>
<polygon fill="black" stroke="black" points="181.472,-222.441 177.972,-212.441 174.472,-222.441 181.472,-222.441"/>
</a>
</g>
<!-- http://cds.omdoc.org/urtheories?LF&#45;&gt;http://latin.omdoc.org/logics/proof_theory?FOLExt -->
<g id="edge23" class="edge"><title>http://cds.omdoc.org/urtheories?LF&#45;&gt;http://latin.omdoc.org/logics/proof_theory?FOLExt</title>
<a class="graphmeta">
<path fill="none" stroke="black" d="M204.861,-265.053C262.515,-260.261 394.987,-245.744 421.972,-212 437.261,-192.881 452.779,-127.071 417.972,-80 402.492,-59.0662 336.216,-39.9897 290.344,-28.9372"/>
<polygon fill="black" stroke="black" points="291.14,-25.5292 280.604,-26.6363 289.531,-32.3417 291.14,-25.5292"/>
</a>
</g>
<!-- http://cds.omdoc.org/urtheories?LF&#45;&gt;http://latin.omdoc.org/logics/proof_theory?FOLEQ -->
<g id="edge21" class="edge"><title>http://cds.omdoc.org/urtheories?LF&#45;&gt;http://latin.omdoc.org/logics/proof_theory?FOLEQ</title>
<a class="graphmeta">
<path fill="none" stroke="black" d="M151.782,-262.893C107.836,-255.341 22.6937,-237.64 8.97174,-212 -26.4694,-145.778 57.8894,-73.17 105.75,-38.9507"/>
<polygon fill="black" stroke="black" points="107.76,-41.816 113.943,-33.2119 103.744,-36.0827 107.76,-41.816"/>
</a>
</g>
<!-- http://cds.omdoc.org/urtheories?LF&#45;&gt;http://latin.omdoc.org/logics/proof_theory?IFOL -->
<g id="edge29" class="edge"><title>http://cds.omdoc.org/urtheories?LF&#45;&gt;http://latin.omdoc.org/logics/proof_theory?IFOL</title>
<a class="graphmeta">
<path fill="none" stroke="black" d="M201.905,-259.484C233.839,-249.329 292.042,-230.375 340.972,-212 343.37,-211.099 345.837,-210.146 348.315,-209.168"/>
<polygon fill="black" stroke="black" points="349.835,-212.329 357.798,-205.341 347.215,-205.838 349.835,-212.329"/>
</a>
</g>
</g>
</svg>
