<?xml version="1.0" encoding="UTF-8" standalone="no"?>
<!DOCTYPE svg PUBLIC "-//W3C//DTD SVG 1.1//EN"
 "http://www.w3.org/Graphics/SVG/1.1/DTD/svg11.dtd">
<!-- Generated by graphviz version 2.28.0 (20110507.0327)
 -->
<!-- Title: MMT Pages: 1 -->
<svg
 viewBox="0.00 0.00 183.59 204.00" xmlns="http://www.w3.org/2000/svg" xmlns:xlink="http://www.w3.org/1999/xlink">
<g id="graph1" class="graph" transform="scale(1 1) rotate(0) translate(4 200)">
<title>MMT</title>
<polygon fill="white" stroke="white" points="-4,5 -4,-200 180.592,-200 180.592,5 -4,5"/>
<g id="graph2" class="cluster"><title>cluster_local</title>
<polygon fill="none" stroke="black" points="9.5922,-8 9.5922,-60 105.592,-60 105.592,-8 9.5922,-8"/>
</g>
<!-- http://latin.omdoc.org/logics/proof_theory?FOLExt -->
<g id="node2" class="node"><title>http://latin.omdoc.org/logics/proof_theory?FOLExt</title>
<a xlink:href="http://latin.omdoc.org/logics/proof_theory?FOLExt" class="graphtheory">
<ellipse fill="none" stroke="black" cx="57.5922" cy="-34" rx="39.9464" ry="18"/>
<text text-anchor="middle" x="57.5922" y="-30.3" font-family="Times New Roman,serif" font-size="14.00">FOLExt</text>
</a>
</g>
<!-- http://latin.omdoc.org/logics/proof_theory?IFOLExt -->
<g id="node3" class="node"><title>http://latin.omdoc.org/logics/proof_theory?IFOLExt</title>
<a xlink:href="http://latin.omdoc.org/logics/proof_theory?IFOLExt" class="graphtheory">
<ellipse fill="gray" stroke="black" cx="57.5922" cy="-106" rx="43.319" ry="18"/>
<text text-anchor="middle" x="57.5922" y="-102.3" font-family="Times New Roman,serif" font-size="14.00">IFOLExt</text>
</a>
</g>
<!-- http://latin.omdoc.org/logics/proof_theory?IFOLExt&#45;&gt;http://latin.omdoc.org/logics/proof_theory?FOLExt -->
<g id="edge3" class="edge"><title>http://latin.omdoc.org/logics/proof_theory?IFOLExt&#45;&gt;http://latin.omdoc.org/logics/proof_theory?FOLExt</title>
<a class="graphinclude">
<path fill="none" stroke="black" d="M57.5922,-87.6966C57.5922,-79.9827 57.5922,-70.7125 57.5922,-62.1124"/>
<polygon fill="black" stroke="black" points="61.0923,-62.1043 57.5922,-52.1043 54.0923,-62.1044 61.0923,-62.1043"/>
</a>
</g>
<!-- http://latin.omdoc.org/logics/proof_theory?FOL -->
<g id="node5" class="node"><title>http://latin.omdoc.org/logics/proof_theory?FOL</title>
<a xlink:href="http://latin.omdoc.org/logics/proof_theory?FOL" class="graphtheory">
<ellipse fill="gray" stroke="black" cx="147.592" cy="-106" rx="28.3955" ry="18"/>
<text text-anchor="middle" x="147.592" y="-102.3" font-family="Times New Roman,serif" font-size="14.00">FOL</text>
</a>
</g>
<!-- http://latin.omdoc.org/logics/proof_theory?FOL&#45;&gt;http://latin.omdoc.org/logics/proof_theory?FOLExt -->
<g id="edge5" class="edge"><title>http://latin.omdoc.org/logics/proof_theory?FOL&#45;&gt;http://latin.omdoc.org/logics/proof_theory?FOLExt</title>
<a class="graphinclude">
<path fill="none" stroke="black" d="M130.239,-91.5033C117.429,-81.54 99.7394,-67.7812 85.0232,-56.3352"/>
<polygon fill="black" stroke="black" points="86.8039,-53.2862 76.7615,-49.9095 82.5062,-58.8116 86.8039,-53.2862"/>
</a>
</g>
<!-- http://cds.omdoc.org/urtheories?LF -->
<g id="node7" class="node"><title>http://cds.omdoc.org/urtheories?LF</title>
<a xlink:href="http://cds.omdoc.org/urtheories?LF" class="graphtheory">
<ellipse fill="gray" stroke="black" cx="57.5922" cy="-178" rx="27" ry="18"/>
<text text-anchor="middle" x="57.5922" y="-174.3" font-family="Times New Roman,serif" font-size="14.00">LF</text>
</a>
</g>
<!-- http://cds.omdoc.org/urtheories?LF&#45;&gt;http://latin.omdoc.org/logics/proof_theory?FOLExt -->
<g id="edge7" class="edge"><title>http://cds.omdoc.org/urtheories?LF&#45;&gt;http://latin.omdoc.org/logics/proof_theory?FOLExt</title>
<a class="graphmeta">
<path fill="none" stroke="black" d="M39.1022,-164.583C26.7611,-155.104 11.5639,-140.831 4.5922,-124 -1.53073,-109.218 -1.53073,-102.782 4.5922,-88 9.64977,-75.79 19.0362,-64.9262 28.5208,-56.2623"/>
<polygon fill="black" stroke="black" points="31.0847,-58.6754 36.418,-49.5208 26.5399,-53.3514 31.0847,-58.6754"/>
</a>
</g>
<!-- http://cds.omdoc.org/urtheories?LF&#45;&gt;http://latin.omdoc.org/logics/proof_theory?IFOLExt -->
<g id="edge9" class="edge"><title>http://cds.omdoc.org/urtheories?LF&#45;&gt;http://latin.omdoc.org/logics/proof_theory?IFOLExt</title>
<a class="graphmeta">
<path fill="none" stroke="black" d="M57.5922,-159.697C57.5922,-151.983 57.5922,-142.712 57.5922,-134.112"/>
<polygon fill="black" stroke="black" points="61.0923,-134.104 57.5922,-124.104 54.0923,-134.104 61.0923,-134.104"/>
</a>
</g>
<!-- http://cds.omdoc.org/urtheories?LF&#45;&gt;http://latin.omdoc.org/logics/proof_theory?FOL -->
<g id="edge11" class="edge"><title>http://cds.omdoc.org/urtheories?LF&#45;&gt;http://latin.omdoc.org/logics/proof_theory?FOL</title>
<a class="graphmeta">
<path fill="none" stroke="black" d="M74.5205,-163.834C88.011,-153.341 107.106,-138.489 122.393,-126.6"/>
<polygon fill="black" stroke="black" points="124.689,-129.248 130.434,-120.345 120.391,-123.722 124.689,-129.248"/>
</a>
</g>
</g>
</svg>
