<?xml version="1.0" encoding="UTF-8" standalone="no"?>
<!DOCTYPE svg PUBLIC "-//W3C//DTD SVG 1.1//EN"
 "http://www.w3.org/Graphics/SVG/1.1/DTD/svg11.dtd">
<!-- Generated by graphviz version 2.28.0 (20110507.0327)
 -->
<!-- Title: MMT Pages: 1 -->
<svg width="1187pt" height="368pt"
 viewBox="0.00 0.00 1187.38 368.00" xmlns="http://www.w3.org/2000/svg" xmlns:xlink="http://www.w3.org/1999/xlink">
<g id="graph1" class="graph" transform="scale(1 1) rotate(0) translate(4 364)">
<title>MMT</title>
<polygon fill="white" stroke="white" points="-4,5 -4,-364 1184.38,-364 1184.38,5 -4,5"/>
<g id="graph2" class="cluster"><title>cluster_local</title>
<polygon fill="none" stroke="black" points="459.382,-242 459.382,-294 533.382,-294 533.382,-242 459.382,-242"/>
</g>
<!-- http://latin.omdoc.org/logics/proof_theory?HOL -->
<g id="node2" class="node"><title>http://latin.omdoc.org/logics/proof_theory?HOL</title>
<a xlink:href="http://latin.omdoc.org/logics/proof_theory?HOL" class="graphtheory">
<ellipse fill="none" stroke="black" cx="496.382" cy="-268" rx="29.3722" ry="18"/>
<text text-anchor="middle" x="496.382" y="-264.3" font-family="Times New Roman,serif" font-size="14.00">HOL</text>
</a>
</g>
<!-- http://latin.omdoc.org/foundations/hol?FunctionalExtensionality -->
<g id="node3" class="node"><title>http://latin.omdoc.org/foundations/hol?FunctionalExtensionality</title>
<a xlink:href="http://latin.omdoc.org/foundations/hol?FunctionalExtensionality" class="graphtheory">
<ellipse fill="gray" stroke="black" cx="113.382" cy="-194" rx="98.1881" ry="18"/>
<text text-anchor="middle" x="113.382" y="-190.3" font-family="Times New Roman,serif" font-size="14.00">FunctionalExtensionality</text>
</a>
</g>
<!-- http://latin.omdoc.org/logics/proof_theory?HOL&#45;&gt;http://latin.omdoc.org/foundations/hol?FunctionalExtensionality -->
<g id="edge3" class="edge"><title>http://latin.omdoc.org/logics/proof_theory?HOL&#45;&gt;http://latin.omdoc.org/foundations/hol?FunctionalExtensionality</title>
<a class="graphinclude">
<path fill="none" stroke="black" d="M481.079,-252.442C475.855,-248.326 469.722,-244.335 463.382,-242 427.038,-228.615 327.774,-237.109 289.382,-232 252.497,-227.091 211.813,-218.735 178.861,-211.204"/>
<polygon fill="black" stroke="black" points="179.426,-207.742 168.895,-208.898 177.848,-214.562 179.426,-207.742"/>
</a>
</g>
<!-- http://latin.omdoc.org/foundations/hol?Choice -->
<g id="node5" class="node"><title>http://latin.omdoc.org/foundations/hol?Choice</title>
<a xlink:href="http://latin.omdoc.org/foundations/hol?Choice" class="graphtheory">
<ellipse fill="gray" stroke="black" cx="579.382" cy="-18" rx="36.096" ry="18"/>
<text text-anchor="middle" x="579.382" y="-14.3" font-family="Times New Roman,serif" font-size="14.00">Choice</text>
</a>
</g>
<!-- http://latin.omdoc.org/logics/proof_theory?HOL&#45;&gt;http://latin.omdoc.org/foundations/hol?Choice -->
<g id="edge5" class="edge"><title>http://latin.omdoc.org/logics/proof_theory?HOL&#45;&gt;http://latin.omdoc.org/foundations/hol?Choice</title>
<a class="graphinclude">
<path fill="none" stroke="black" d="M493.377,-249.856C490.764,-231.279 488.386,-200.949 495.382,-176 502.961,-148.972 542.061,-81.2794 564.145,-44.2203"/>
<polygon fill="black" stroke="black" points="567.23,-45.8799 569.363,-35.5019 561.224,-42.2847 567.23,-45.8799"/>
</a>
</g>
<!-- http://latin.omdoc.org/foundations/hol?Types&#45;Nonempty -->
<g id="node7" class="node"><title>http://latin.omdoc.org/foundations/hol?Types&#45;Nonempty</title>
<a xlink:href="http://latin.omdoc.org/foundations/hol?Types-Nonempty" class="graphtheory">
<ellipse fill="gray" stroke="black" cx="952.382" cy="-194" rx="74.6146" ry="18"/>
<text text-anchor="middle" x="952.382" y="-190.3" font-family="Times New Roman,serif" font-size="14.00">Types&#45;Nonempty</text>
</a>
</g>
<!-- http://latin.omdoc.org/logics/proof_theory?HOL&#45;&gt;http://latin.omdoc.org/foundations/hol?Types&#45;Nonempty -->
<g id="edge7" class="edge"><title>http://latin.omdoc.org/logics/proof_theory?HOL&#45;&gt;http://latin.omdoc.org/foundations/hol?Types&#45;Nonempty</title>
<a class="graphinclude">
<path fill="none" stroke="black" d="M511.729,-252.559C516.955,-248.449 523.078,-244.432 529.382,-242 564.66,-228.386 830.959,-217.425 868.382,-212 875.109,-211.025 882.111,-209.856 889.075,-208.594"/>
<polygon fill="black" stroke="black" points="890.031,-211.976 899.214,-206.69 888.739,-205.096 890.031,-211.976"/>
</a>
</g>
<!-- http://latin.omdoc.org/logics/proof_theory?PropositionalExtensionality -->
<g id="node9" class="node"><title>http://latin.omdoc.org/logics/proof_theory?PropositionalExtensionality</title>
<a xlink:href="http://latin.omdoc.org/logics/proof_theory?PropositionalExtensionality" class="graphtheory">
<ellipse fill="gray" stroke="black" cx="633.382" cy="-194" rx="109.286" ry="18"/>
<text text-anchor="middle" x="633.382" y="-190.3" font-family="Times New Roman,serif" font-size="14.00">PropositionalExtensionality</text>
</a>
</g>
<!-- http://latin.omdoc.org/logics/proof_theory?HOL&#45;&gt;http://latin.omdoc.org/logics/proof_theory?PropositionalExtensionality -->
<g id="edge9" class="edge"><title>http://latin.omdoc.org/logics/proof_theory?HOL&#45;&gt;http://latin.omdoc.org/logics/proof_theory?PropositionalExtensionality</title>
<a class="graphinclude">
<path fill="none" stroke="black" d="M513.34,-253.008C518.347,-249.197 523.945,-245.232 529.382,-242 546.338,-231.919 565.836,-222.57 583.334,-214.909"/>
<polygon fill="black" stroke="black" points="585.014,-217.996 592.82,-210.832 582.25,-211.565 585.014,-217.996"/>
</a>
</g>
<!-- http://latin.omdoc.org/foundations/hol?Classical -->
<g id="node11" class="node"><title>http://latin.omdoc.org/foundations/hol?Classical</title>
<a xlink:href="http://latin.omdoc.org/foundations/hol?Classical" class="graphtheory">
<ellipse fill="gray" stroke="black" cx="349.382" cy="-194" rx="42.3456" ry="18"/>
<text text-anchor="middle" x="349.382" y="-190.3" font-family="Times New Roman,serif" font-size="14.00">Classical</text>
</a>
</g>
<!-- http://latin.omdoc.org/logics/proof_theory?HOL&#45;&gt;http://latin.omdoc.org/foundations/hol?Classical -->
<g id="edge11" class="edge"><title>http://latin.omdoc.org/logics/proof_theory?HOL&#45;&gt;http://latin.omdoc.org/foundations/hol?Classical</title>
<a class="graphinclude">
<path fill="none" stroke="black" d="M480.568,-252.618C475.41,-248.614 469.444,-244.642 463.382,-242 439.803,-231.724 430.317,-241.414 406.382,-232 396.253,-228.017 386.023,-222.099 377.079,-216.159"/>
<polygon fill="black" stroke="black" points="378.826,-213.111 368.616,-210.283 374.833,-218.861 378.826,-213.111"/>
</a>
</g>
<!-- http://latin.omdoc.org/foundations/hol?BooleanExtensionality -->
<g id="node13" class="node"><title>http://latin.omdoc.org/foundations/hol?BooleanExtensionality</title>
<a xlink:href="http://latin.omdoc.org/foundations/hol?BooleanExtensionality" class="graphtheory">
<ellipse fill="gray" stroke="black" cx="258.382" cy="-106" rx="90.4879" ry="18"/>
<text text-anchor="middle" x="258.382" y="-102.3" font-family="Times New Roman,serif" font-size="14.00">BooleanExtensionality</text>
</a>
</g>
<!-- http://latin.omdoc.org/logics/proof_theory?HOL&#45;&gt;http://latin.omdoc.org/foundations/hol?BooleanExtensionality -->
<g id="edge13" class="edge"><title>http://latin.omdoc.org/logics/proof_theory?HOL&#45;&gt;http://latin.omdoc.org/foundations/hol?BooleanExtensionality</title>
<a class="graphinclude">
<path fill="none" stroke="black" d="M479.295,-253.216C474.286,-249.409 468.719,-245.394 463.382,-242 455.329,-236.879 451.713,-238.108 444.382,-232 420.064,-211.739 422.037,-199.086 400.382,-176 384.877,-159.471 381.966,-153.403 362.382,-142 349.875,-134.718 335.632,-128.675 321.786,-123.778"/>
<polygon fill="black" stroke="black" points="322.883,-120.455 312.289,-120.57 320.643,-127.087 322.883,-120.455"/>
</a>
</g>
<!-- http://latin.omdoc.org/foundations/hol?SFOL&#45;Pf1 -->
<g id="node15" class="node"><title>http://latin.omdoc.org/foundations/hol?SFOL&#45;Pf1</title>
<a xlink:href="http://latin.omdoc.org/foundations/hol?SFOL-Pf1" class="graphtheory">
<ellipse fill="gray" stroke="black" cx="810.382" cy="-194" rx="49.0941" ry="18"/>
<text text-anchor="middle" x="810.382" y="-190.3" font-family="Times New Roman,serif" font-size="14.00">SFOL&#45;Pf1</text>
</a>
</g>
<!-- http://latin.omdoc.org/logics/proof_theory?HOL&#45;&gt;http://latin.omdoc.org/foundations/hol?SFOL&#45;Pf1 -->
<g id="edge15" class="edge"><title>http://latin.omdoc.org/logics/proof_theory?HOL&#45;&gt;http://latin.omdoc.org/foundations/hol?SFOL&#45;Pf1</title>
<a class="graphinclude">
<path fill="none" stroke="black" d="M512.133,-252.471C517.288,-248.46 523.269,-244.522 529.382,-242 575.4,-223.012 702.667,-222.252 751.382,-212 755.548,-211.123 759.85,-210.106 764.144,-209.014"/>
<polygon fill="black" stroke="black" points="765.324,-212.322 774.082,-206.36 763.518,-205.559 765.324,-212.322"/>
</a>
</g>
<!-- http://latin.omdoc.org/foundations/hol?Description -->
<g id="node17" class="node"><title>http://latin.omdoc.org/foundations/hol?Description</title>
<a xlink:href="http://latin.omdoc.org/foundations/hol?Description" class="graphtheory">
<ellipse fill="gray" stroke="black" cx="696.382" cy="-106" rx="52.4675" ry="18"/>
<text text-anchor="middle" x="696.382" y="-102.3" font-family="Times New Roman,serif" font-size="14.00">Description</text>
</a>
</g>
<!-- http://latin.omdoc.org/logics/proof_theory?HOL&#45;&gt;http://latin.omdoc.org/foundations/hol?Description -->
<g id="edge17" class="edge"><title>http://latin.omdoc.org/logics/proof_theory?HOL&#45;&gt;http://latin.omdoc.org/foundations/hol?Description</title>
<a class="graphinclude">
<path fill="none" stroke="black" d="M495.34,-249.804C495.071,-229.763 497.681,-196.752 515.382,-176 545.963,-140.147 597.295,-122.871 637.499,-114.576"/>
<polygon fill="black" stroke="black" points="638.305,-117.985 647.461,-112.655 636.979,-111.112 638.305,-117.985"/>
</a>
</g>
<!-- http://latin.omdoc.org/foundations/hol?Eta -->
<g id="node19" class="node"><title>http://latin.omdoc.org/foundations/hol?Eta</title>
<a xlink:href="http://latin.omdoc.org/foundations/hol?Eta" class="graphtheory">
<ellipse fill="gray" stroke="black" cx="111.382" cy="-106" rx="27" ry="18"/>
<text text-anchor="middle" x="111.382" y="-102.3" font-family="Times New Roman,serif" font-size="14.00">Eta</text>
</a>
</g>
<!-- http://latin.omdoc.org/logics/proof_theory?HOL&#45;&gt;http://latin.omdoc.org/foundations/hol?Eta -->
<g id="edge19" class="edge"><title>http://latin.omdoc.org/logics/proof_theory?HOL&#45;&gt;http://latin.omdoc.org/foundations/hol?Eta</title>
<a class="graphinclude">
<path fill="none" stroke="black" d="M480.598,-252.548C475.442,-248.541 469.468,-244.585 463.382,-242 436.883,-230.745 427.735,-236.993 399.382,-232 353.885,-223.988 340.717,-228.004 297.382,-212 265.312,-200.157 182.949,-150.903 139.377,-124.273"/>
<polygon fill="black" stroke="black" points="141.055,-121.197 130.7,-118.956 137.397,-127.165 141.055,-121.197"/>
</a>
</g>
<!-- http://latin.omdoc.org/foundations/hol?FunctionalExtensionality&#45;&gt;http://latin.omdoc.org/foundations/hol?Eta -->
<g id="edge57" class="edge"><title>http://latin.omdoc.org/foundations/hol?FunctionalExtensionality&#45;&gt;http://latin.omdoc.org/foundations/hol?Eta</title>
<a xlink:href="http://latin.omdoc.org/foundations/hol?FE" class="graphview">
<path fill="none" stroke="black" d="M112.977,-175.597C112.701,-163.746 112.331,-147.817 112.016,-134.292"/>
<polygon fill="black" stroke="black" points="115.511,-134 111.779,-124.084 108.513,-134.163 115.511,-134"/>
</a>
<a xlink:href="http://latin.omdoc.org/foundations/hol?FE" class="FE">
<text text-anchor="middle" x="121.882" y="-146.3" font-family="Times New Roman,serif" font-size="14.00">FE</text>
</a>
</g>
<!-- http://latin.omdoc.org/foundations/hol?Types&#45;Nonempty&#45;&gt;http://latin.omdoc.org/foundations/hol?Description -->
<g id="edge55" class="edge"><title>http://latin.omdoc.org/foundations/hol?Types&#45;Nonempty&#45;&gt;http://latin.omdoc.org/foundations/hol?Description</title>
<a xlink:href="http://latin.omdoc.org/foundations/hol?TC" class="graphview">
<path fill="none" stroke="black" d="M910.681,-178.991C864.421,-163.451 790.013,-138.454 742.169,-122.382"/>
<polygon fill="black" stroke="black" points="743.271,-119.06 732.677,-119.193 741.042,-125.695 743.271,-119.06"/>
</a>
<a xlink:href="http://latin.omdoc.org/foundations/hol?TC" class="TC">
<text text-anchor="middle" x="855.882" y="-146.3" font-family="Times New Roman,serif" font-size="14.00">TC</text>
</a>
</g>
<!-- http://latin.omdoc.org/foundations/hol?Classical&#45;&gt;http://latin.omdoc.org/foundations/hol?Choice -->
<g id="edge51" class="edge"><title>http://latin.omdoc.org/foundations/hol?Classical&#45;&gt;http://latin.omdoc.org/foundations/hol?Choice</title>
<a xlink:href="http://latin.omdoc.org/foundations/hol?DiaconescuTheorem" class="graphview">
<path fill="none" stroke="black" d="M355.622,-176.176C365.664,-149.867 385.669,-100.679 399.382,-88 437.473,-52.7827 495.428,-34.9161 535.228,-26.3002"/>
<polygon fill="black" stroke="black" points="536.092,-29.6958 545.183,-24.2552 534.683,-22.839 536.092,-29.6958"/>
</a>
<a xlink:href="http://latin.omdoc.org/foundations/hol?DiaconescuTheorem" class="DiaconescuTheorem">
<text text-anchor="middle" x="457.382" y="-102.3" font-family="Times New Roman,serif" font-size="14.00">DiaconescuTheorem</text>
</a>
</g>
<!-- http://latin.omdoc.org/foundations/hol?Classical&#45;&gt;http://latin.omdoc.org/foundations/hol?BooleanExtensionality -->
<g id="edge53" class="edge"><title>http://latin.omdoc.org/foundations/hol?Classical&#45;&gt;http://latin.omdoc.org/foundations/hol?BooleanExtensionality</title>
<a xlink:href="http://latin.omdoc.org/foundations/hol?CB" class="graphview">
<path fill="none" stroke="black" d="M329.656,-177.848C322.181,-171.875 313.71,-164.82 306.382,-158 297.522,-149.756 288.296,-140.213 280.328,-131.628"/>
<polygon fill="black" stroke="black" points="282.746,-129.086 273.41,-124.077 277.584,-133.815 282.746,-129.086"/>
</a>
<a xlink:href="http://latin.omdoc.org/foundations/hol?CB" class="CB">
<text text-anchor="middle" x="315.882" y="-146.3" font-family="Times New Roman,serif" font-size="14.00">CB</text>
</a>
</g>
<!-- http://latin.omdoc.org/foundations/hol?BooleanExtensionality&#45;&gt;http://latin.omdoc.org/foundations/hol?Classical -->
<g id="edge49" class="edge"><title>http://latin.omdoc.org/foundations/hol?BooleanExtensionality&#45;&gt;http://latin.omdoc.org/foundations/hol?Classical</title>
<a xlink:href="http://latin.omdoc.org/foundations/hol?BC" class="graphview">
<path fill="none" stroke="black" d="M301.626,-122.028C311.731,-127.13 321.756,-133.703 329.382,-142 335.58,-148.744 339.946,-157.632 342.98,-166.097"/>
<polygon fill="black" stroke="black" points="339.649,-167.174 345.96,-175.685 346.334,-165.096 339.649,-167.174"/>
</a>
<a xlink:href="http://latin.omdoc.org/foundations/hol?BC" class="BC">
<text text-anchor="middle" x="348.882" y="-146.3" font-family="Times New Roman,serif" font-size="14.00">BC</text>
</a>
</g>
<!-- http://latin.omdoc.org/foundations/hol?Description&#45;&gt;http://latin.omdoc.org/foundations/hol?Choice -->
<g id="edge47" class="edge"><title>http://latin.omdoc.org/foundations/hol?Description&#45;&gt;http://latin.omdoc.org/foundations/hol?Choice</title>
<a xlink:href="http://latin.omdoc.org/foundations/hol?DC" class="graphview">
<path fill="none" stroke="black" d="M675.194,-89.426C656.094,-75.387 627.887,-54.6538 607.021,-39.3159"/>
<polygon fill="black" stroke="black" points="608.987,-36.4176 598.857,-33.3151 604.841,-42.0578 608.987,-36.4176"/>
</a>
<a xlink:href="http://latin.omdoc.org/foundations/hol?DC" class="DC">
<text text-anchor="middle" x="658.382" y="-58.3" font-family="Times New Roman,serif" font-size="14.00">DC</text>
</a>
</g>
<!-- http://latin.omdoc.org/foundations/hol?Eta&#45;&gt;http://latin.omdoc.org/foundations/hol?FunctionalExtensionality -->
<g id="edge45" class="edge"><title>http://latin.omdoc.org/foundations/hol?Eta&#45;&gt;http://latin.omdoc.org/foundations/hol?FunctionalExtensionality</title>
<a xlink:href="http://latin.omdoc.org/foundations/hol?EF" class="graphview">
<path fill="none" stroke="black" d="M97.1998,-121.745C89.3808,-131.706 82.0547,-145.307 86.3817,-158 87.5308,-161.371 89.1506,-164.67 91.0325,-167.812"/>
<polygon fill="black" stroke="black" points="88.2727,-169.974 96.8578,-176.182 94.0183,-165.975 88.2727,-169.974"/>
</a>
<a xlink:href="http://latin.omdoc.org/foundations/hol?EF" class="EF">
<text text-anchor="middle" x="94.8817" y="-146.3" font-family="Times New Roman,serif" font-size="14.00">EF</text>
</a>
</g>
<!-- http://latin.omdoc.org/logics/syntax?HOL -->
<g id="node21" class="node"><title>http://latin.omdoc.org/logics/syntax?HOL</title>
<a xlink:href="http://latin.omdoc.org/logics/syntax?HOL" class="graphtheory">
<ellipse fill="gray" stroke="black" cx="1150.38" cy="-268" rx="29.3722" ry="18"/>
<text text-anchor="middle" x="1150.38" y="-264.3" font-family="Times New Roman,serif" font-size="14.00">HOL</text>
</a>
</g>
<!-- http://latin.omdoc.org/logics/syntax?HOL&#45;&gt;http://latin.omdoc.org/logics/proof_theory?HOL -->
<g id="edge21" class="edge"><title>http://latin.omdoc.org/logics/syntax?HOL&#45;&gt;http://latin.omdoc.org/logics/proof_theory?HOL</title>
<a class="graphinclude">
<path fill="none" stroke="black" d="M1121.1,-268C926.047,-268 730.991,-268 535.935,-268"/>
<polygon fill="black" stroke="black" points="535.761,-264.5 525.761,-268 535.761,-271.5 535.761,-264.5"/>
</a>
</g>
<!-- http://cds.omdoc.org/urtheories?LF -->
<g id="node23" class="node"><title>http://cds.omdoc.org/urtheories?LF</title>
<a xlink:href="http://cds.omdoc.org/urtheories?LF" class="graphtheory">
<ellipse fill="gray" stroke="black" cx="633.382" cy="-342" rx="27" ry="18"/>
<text text-anchor="middle" x="633.382" y="-338.3" font-family="Times New Roman,serif" font-size="14.00">LF</text>
</a>
</g>
<!-- http://cds.omdoc.org/urtheories?LF&#45;&gt;http://latin.omdoc.org/logics/proof_theory?HOL -->
<g id="edge23" class="edge"><title>http://cds.omdoc.org/urtheories?LF&#45;&gt;http://latin.omdoc.org/logics/proof_theory?HOL</title>
<a class="graphmeta">
<path fill="none" stroke="black" d="M610.334,-332.319C588.757,-323.793 555.95,-309.796 529.382,-294 526.748,-292.434 524.077,-290.697 521.453,-288.888"/>
<polygon fill="black" stroke="black" points="523.487,-286.04 513.34,-282.992 519.372,-291.703 523.487,-286.04"/>
</a>
</g>
<!-- http://cds.omdoc.org/urtheories?LF&#45;&gt;http://latin.omdoc.org/foundations/hol?FunctionalExtensionality -->
<g id="edge31" class="edge"><title>http://cds.omdoc.org/urtheories?LF&#45;&gt;http://latin.omdoc.org/foundations/hol?FunctionalExtensionality</title>
<a class="graphmeta">
<path fill="none" stroke="black" d="M606.376,-341.034C526.769,-340.769 294.356,-337.267 226.382,-306 185.53,-287.209 150.763,-247.137 130.975,-220.636"/>
<polygon fill="black" stroke="black" points="133.565,-218.247 124.851,-212.22 127.904,-222.365 133.565,-218.247"/>
</a>
</g>
<!-- http://cds.omdoc.org/urtheories?LF&#45;&gt;http://latin.omdoc.org/foundations/hol?Choice -->
<g id="edge25" class="edge"><title>http://cds.omdoc.org/urtheories?LF&#45;&gt;http://latin.omdoc.org/foundations/hol?Choice</title>
<a class="graphmeta">
<path fill="none" stroke="black" d="M660.439,-339.642C759.043,-334.339 1093.38,-313.105 1093.38,-269 1093.38,-269 1093.38,-269 1093.38,-105 1093.38,-57.7536 751.191,-30.353 625.216,-21.8664"/>
<polygon fill="black" stroke="black" points="625.327,-18.3662 615.117,-21.1955 624.863,-25.3508 625.327,-18.3662"/>
</a>
</g>
<!-- http://cds.omdoc.org/urtheories?LF&#45;&gt;http://latin.omdoc.org/foundations/hol?Types&#45;Nonempty -->
<g id="edge39" class="edge"><title>http://cds.omdoc.org/urtheories?LF&#45;&gt;http://latin.omdoc.org/foundations/hol?Types&#45;Nonempty</title>
<a class="graphmeta">
<path fill="none" stroke="black" d="M655.088,-331.108C675.936,-321.604 708.318,-306.834 736.382,-294 796.67,-266.429 866.388,-234.459 909.937,-214.479"/>
<polygon fill="black" stroke="black" points="911.457,-217.632 919.087,-210.281 908.538,-211.27 911.457,-217.632"/>
</a>
</g>
<!-- http://cds.omdoc.org/urtheories?LF&#45;&gt;http://latin.omdoc.org/logics/proof_theory?PropositionalExtensionality -->
<g id="edge33" class="edge"><title>http://cds.omdoc.org/urtheories?LF&#45;&gt;http://latin.omdoc.org/logics/proof_theory?PropositionalExtensionality</title>
<a class="graphmeta">
<path fill="none" stroke="black" d="M633.382,-323.966C633.382,-299.045 633.382,-252.374 633.382,-222.537"/>
<polygon fill="black" stroke="black" points="636.882,-222.378 633.382,-212.378 629.882,-222.378 636.882,-222.378"/>
</a>
</g>
<!-- http://cds.omdoc.org/urtheories?LF&#45;&gt;http://latin.omdoc.org/foundations/hol?Classical -->
<g id="edge37" class="edge"><title>http://cds.omdoc.org/urtheories?LF&#45;&gt;http://latin.omdoc.org/foundations/hol?Classical</title>
<a class="graphmeta">
<path fill="none" stroke="black" d="M606.831,-338.109C570.662,-333.284 504.761,-321.279 455.382,-294 420.636,-274.805 388.488,-241.71 368.913,-219.113"/>
<polygon fill="black" stroke="black" points="371.428,-216.667 362.289,-211.307 366.091,-221.197 371.428,-216.667"/>
</a>
</g>
<!-- http://cds.omdoc.org/urtheories?LF&#45;&gt;http://latin.omdoc.org/foundations/hol?BooleanExtensionality -->
<g id="edge43" class="edge"><title>http://cds.omdoc.org/urtheories?LF&#45;&gt;http://latin.omdoc.org/foundations/hol?BooleanExtensionality</title>
<a class="graphmeta">
<path fill="none" stroke="black" d="M606.381,-340.568C559.413,-338.82 460.683,-330.669 387.382,-294 338.987,-269.79 327.657,-256.851 297.382,-212 281.133,-187.929 270.57,-156.207 264.588,-133.954"/>
<polygon fill="black" stroke="black" points="267.953,-132.984 262.087,-124.162 261.171,-134.717 267.953,-132.984"/>
</a>
</g>
<!-- http://cds.omdoc.org/urtheories?LF&#45;&gt;http://latin.omdoc.org/foundations/hol?SFOL&#45;Pf1 -->
<g id="edge27" class="edge"><title>http://cds.omdoc.org/urtheories?LF&#45;&gt;http://latin.omdoc.org/foundations/hol?SFOL&#45;Pf1</title>
<a class="graphmeta">
<path fill="none" stroke="black" d="M649.716,-327.526C680.269,-302.325 746.327,-247.836 783.523,-217.154"/>
<polygon fill="black" stroke="black" points="785.952,-219.688 791.44,-210.625 781.498,-214.288 785.952,-219.688"/>
</a>
</g>
<!-- http://cds.omdoc.org/urtheories?LF&#45;&gt;http://latin.omdoc.org/foundations/hol?Description -->
<g id="edge35" class="edge"><title>http://cds.omdoc.org/urtheories?LF&#45;&gt;http://latin.omdoc.org/foundations/hol?Description</title>
<a class="graphmeta">
<path fill="none" stroke="black" d="M659.501,-336.753C741.391,-322.845 990.344,-275.871 1035.38,-212 1044.6,-198.924 1045.5,-188.397 1035.38,-176 1001.05,-133.922 846.058,-116.861 758.008,-110.47"/>
<polygon fill="black" stroke="black" points="758.096,-106.967 747.876,-109.76 757.607,-113.95 758.096,-106.967"/>
</a>
</g>
<!-- http://cds.omdoc.org/urtheories?LF&#45;&gt;http://latin.omdoc.org/foundations/hol?Eta -->
<g id="edge29" class="edge"><title>http://cds.omdoc.org/urtheories?LF&#45;&gt;http://latin.omdoc.org/foundations/hol?Eta</title>
<a class="graphmeta">
<path fill="none" stroke="black" d="M606.467,-340.146C517.175,-337.042 231.511,-324.88 145.382,-294 77.5029,-269.664 41.2412,-274.561 5.38173,-212 -17.1213,-172.741 40.4494,-138.167 79.2878,-120.166"/>
<polygon fill="black" stroke="black" points="81.0009,-123.234 88.6983,-115.954 78.1409,-116.845 81.0009,-123.234"/>
</a>
</g>
<!-- http://cds.omdoc.org/urtheories?LF&#45;&gt;http://latin.omdoc.org/logics/syntax?HOL -->
<g id="edge41" class="edge"><title>http://cds.omdoc.org/urtheories?LF&#45;&gt;http://latin.omdoc.org/logics/syntax?HOL</title>
<a class="graphmeta">
<path fill="none" stroke="black" d="M660.573,-341.206C748.737,-341.533 1025.7,-339.78 1107.38,-306 1115.44,-302.666 1123.08,-297.208 1129.61,-291.496"/>
<polygon fill="black" stroke="black" points="1132.39,-293.681 1137.25,-284.265 1127.58,-288.598 1132.39,-293.681"/>
</a>
</g>
</g>
</svg>
