<?xml version="1.0" encoding="UTF-8" standalone="no"?>
<!DOCTYPE svg PUBLIC "-//W3C//DTD SVG 1.1//EN"
 "http://www.w3.org/Graphics/SVG/1.1/DTD/svg11.dtd">
<!-- Generated by graphviz version 2.28.0 (20110507.0327)
 -->
<!-- Title: MMT Pages: 1 -->
<svg width="513pt" height="260pt"
 viewBox="0.00 0.00 512.64 260.00" xmlns="http://www.w3.org/2000/svg" xmlns:xlink="http://www.w3.org/1999/xlink">
<g id="graph1" class="graph" transform="scale(1 1) rotate(0) translate(4 256)">
<title>MMT</title>
<polygon fill="white" stroke="white" points="-4,5 -4,-256 509.643,-256 509.643,5 -4,5"/>
<g id="graph2" class="cluster"><title>cluster_local</title>
<polygon fill="none" stroke="black" points="178.643,-64 178.643,-116 306.643,-116 306.643,-64 178.643,-64"/>
</g>
<!-- http://latin.omdoc.org/logics/proof_theory?IFOLEQExt -->
<g id="node2" class="node"><title>http://latin.omdoc.org/logics/proof_theory?IFOLEQExt</title>
<a xlink:href="http://latin.omdoc.org/logics/proof_theory?IFOLEQExt" class="graphtheory">
<ellipse fill="none" stroke="black" cx="242.643" cy="-90" rx="55.3436" ry="18"/>
<text text-anchor="middle" x="242.643" y="-86.3" font-family="Times New Roman,serif" font-size="14.00">IFOLEQExt</text>
</a>
</g>
<!-- http://latin.omdoc.org/logics/proof_theory?FOLEQExt -->
<g id="node3" class="node"><title>http://latin.omdoc.org/logics/proof_theory?FOLEQExt</title>
<a xlink:href="http://latin.omdoc.org/logics/proof_theory?FOLEQExt" class="graphtheory">
<ellipse fill="gray" stroke="black" cx="452.643" cy="-18" rx="52.4675" ry="18"/>
<text text-anchor="middle" x="452.643" y="-14.3" font-family="Times New Roman,serif" font-size="14.00">FOLEQExt</text>
</a>
</g>
<!-- http://latin.omdoc.org/logics/proof_theory?IFOLEQExt&#45;&gt;http://latin.omdoc.org/logics/proof_theory?FOLEQExt -->
<g id="edge3" class="edge"><title>http://latin.omdoc.org/logics/proof_theory?IFOLEQExt&#45;&gt;http://latin.omdoc.org/logics/proof_theory?FOLEQExt</title>
<a class="graphinclude">
<path fill="none" stroke="black" d="M273.925,-74.9816C282.804,-71.2116 292.535,-67.2752 301.643,-64 334.945,-52.0241 373.153,-40.6597 402.802,-32.3475"/>
<polygon fill="black" stroke="black" points="403.813,-35.6994 412.51,-29.6491 401.938,-28.9552 403.813,-35.6994"/>
</a>
</g>
<!-- http://latin.omdoc.org/foundations/zfc?ZFC_FOL -->
<g id="node13" class="node"><title>http://latin.omdoc.org/foundations/zfc?ZFC_FOL</title>
<a xlink:href="http://latin.omdoc.org/foundations/zfc?ZFC_FOL" class="graphtheory">
<ellipse fill="gray" stroke="black" cx="242.643" cy="-18" rx="50.0684" ry="18"/>
<text text-anchor="middle" x="242.643" y="-14.3" font-family="Times New Roman,serif" font-size="14.00">ZFC_FOL</text>
</a>
</g>
<!-- http://latin.omdoc.org/logics/proof_theory?IFOLEQExt&#45;&gt;http://latin.omdoc.org/foundations/zfc?ZFC_FOL -->
<g id="edge13" class="edge"><title>http://latin.omdoc.org/logics/proof_theory?IFOLEQExt&#45;&gt;http://latin.omdoc.org/foundations/zfc?ZFC_FOL</title>
<a class="graphmeta">
<path fill="none" stroke="black" d="M242.643,-71.6966C242.643,-63.9827 242.643,-54.7125 242.643,-46.1124"/>
<polygon fill="black" stroke="black" points="246.143,-46.1043 242.643,-36.1043 239.143,-46.1044 246.143,-46.1043"/>
</a>
</g>
<!-- http://latin.omdoc.org/logics/proof_theory?IFOLExt -->
<g id="node5" class="node"><title>http://latin.omdoc.org/logics/proof_theory?IFOLExt</title>
<a xlink:href="http://latin.omdoc.org/logics/proof_theory?IFOLExt" class="graphtheory">
<ellipse fill="gray" stroke="black" cx="63.6429" cy="-162" rx="43.319" ry="18"/>
<text text-anchor="middle" x="63.6429" y="-158.3" font-family="Times New Roman,serif" font-size="14.00">IFOLExt</text>
</a>
</g>
<!-- http://latin.omdoc.org/logics/proof_theory?IFOLExt&#45;&gt;http://latin.omdoc.org/logics/proof_theory?IFOLEQExt -->
<g id="edge5" class="edge"><title>http://latin.omdoc.org/logics/proof_theory?IFOLExt&#45;&gt;http://latin.omdoc.org/logics/proof_theory?IFOLEQExt</title>
<a class="graphinclude">
<path fill="none" stroke="black" d="M94.0078,-149.125C122.753,-137.884 166.229,-120.882 198.746,-108.166"/>
<polygon fill="black" stroke="black" points="200.419,-111.27 208.457,-104.369 197.869,-104.751 200.419,-111.27"/>
</a>
</g>
<!-- http://latin.omdoc.org/logics/proof_theory?StructuredProofs -->
<g id="node7" class="node"><title>http://latin.omdoc.org/logics/proof_theory?StructuredProofs</title>
<a xlink:href="http://latin.omdoc.org/logics/proof_theory?StructuredProofs" class="graphtheory">
<ellipse fill="gray" stroke="black" cx="198.643" cy="-162" rx="73.1654" ry="18"/>
<text text-anchor="middle" x="198.643" y="-158.3" font-family="Times New Roman,serif" font-size="14.00">StructuredProofs</text>
</a>
</g>
<!-- http://latin.omdoc.org/logics/proof_theory?StructuredProofs&#45;&gt;http://latin.omdoc.org/logics/proof_theory?IFOLEQExt -->
<g id="edge7" class="edge"><title>http://latin.omdoc.org/logics/proof_theory?StructuredProofs&#45;&gt;http://latin.omdoc.org/logics/proof_theory?IFOLEQExt</title>
<a class="graphinclude">
<path fill="none" stroke="black" d="M209.294,-144.055C214.483,-135.801 220.831,-125.701 226.591,-116.538"/>
<polygon fill="black" stroke="black" points="229.731,-118.118 232.09,-107.789 223.805,-114.393 229.731,-118.118"/>
</a>
</g>
<!-- http://latin.omdoc.org/logics/proof_theory?EqualExt -->
<g id="node9" class="node"><title>http://latin.omdoc.org/logics/proof_theory?EqualExt</title>
<a xlink:href="http://latin.omdoc.org/logics/proof_theory?EqualExt" class="graphtheory">
<ellipse fill="gray" stroke="black" cx="333.643" cy="-162" rx="43.319" ry="18"/>
<text text-anchor="middle" x="333.643" y="-158.3" font-family="Times New Roman,serif" font-size="14.00">EqualExt</text>
</a>
</g>
<!-- http://latin.omdoc.org/logics/proof_theory?EqualExt&#45;&gt;http://latin.omdoc.org/logics/proof_theory?IFOLEQExt -->
<g id="edge9" class="edge"><title>http://latin.omdoc.org/logics/proof_theory?EqualExt&#45;&gt;http://latin.omdoc.org/logics/proof_theory?IFOLEQExt</title>
<a class="graphinclude">
<path fill="none" stroke="black" d="M313.897,-145.811C301.517,-136.288 285.343,-123.846 271.535,-113.224"/>
<polygon fill="black" stroke="black" points="273.358,-110.211 263.298,-106.888 269.09,-115.76 273.358,-110.211"/>
</a>
</g>
<!-- http://latin.omdoc.org/logics/proof_theory?Inequal -->
<g id="node11" class="node"><title>http://latin.omdoc.org/logics/proof_theory?Inequal</title>
<a xlink:href="http://latin.omdoc.org/logics/proof_theory?Inequal" class="graphtheory">
<ellipse fill="gray" stroke="black" cx="432.643" cy="-162" rx="37.0701" ry="18"/>
<text text-anchor="middle" x="432.643" y="-158.3" font-family="Times New Roman,serif" font-size="14.00">Inequal</text>
</a>
</g>
<!-- http://latin.omdoc.org/logics/proof_theory?Inequal&#45;&gt;http://latin.omdoc.org/logics/proof_theory?IFOLEQExt -->
<g id="edge11" class="edge"><title>http://latin.omdoc.org/logics/proof_theory?Inequal&#45;&gt;http://latin.omdoc.org/logics/proof_theory?IFOLEQExt</title>
<a class="graphinclude">
<path fill="none" stroke="black" d="M403.851,-150.456C397.844,-148.292 391.544,-146.05 385.643,-144 348.47,-131.084 338.455,-129.91 301.643,-116 295.77,-113.781 289.619,-111.325 283.598,-108.845"/>
<polygon fill="black" stroke="black" points="284.878,-105.587 274.302,-104.958 282.177,-112.045 284.878,-105.587"/>
</a>
</g>
<!-- http://cds.omdoc.org/urtheories?LF -->
<g id="node15" class="node"><title>http://cds.omdoc.org/urtheories?LF</title>
<a xlink:href="http://cds.omdoc.org/urtheories?LF" class="graphtheory">
<ellipse fill="gray" stroke="black" cx="265.643" cy="-234" rx="27" ry="18"/>
<text text-anchor="middle" x="265.643" y="-230.3" font-family="Times New Roman,serif" font-size="14.00">LF</text>
</a>
</g>
<!-- http://cds.omdoc.org/urtheories?LF&#45;&gt;http://latin.omdoc.org/logics/proof_theory?IFOLEQExt -->
<g id="edge15" class="edge"><title>http://cds.omdoc.org/urtheories?LF&#45;&gt;http://latin.omdoc.org/logics/proof_theory?IFOLEQExt</title>
<a class="graphmeta">
<path fill="none" stroke="black" d="M238.471,-231.536C178.767,-227.694 39.1781,-215.076 10.6429,-180 -37.8856,-120.348 93.6499,-100.617 178.019,-94.1346"/>
<polygon fill="black" stroke="black" points="178.338,-97.6208 188.059,-93.4079 177.833,-90.6391 178.338,-97.6208"/>
</a>
</g>
<!-- http://cds.omdoc.org/urtheories?LF&#45;&gt;http://latin.omdoc.org/logics/proof_theory?FOLEQExt -->
<g id="edge23" class="edge"><title>http://cds.omdoc.org/urtheories?LF&#45;&gt;http://latin.omdoc.org/logics/proof_theory?FOLEQExt</title>
<a class="graphmeta">
<path fill="none" stroke="black" d="M292.263,-230.392C344.153,-224.702 455.762,-209.272 478.643,-180 509.245,-140.851 485.669,-79.7129 467.817,-45.134"/>
<polygon fill="black" stroke="black" points="470.795,-43.2823 462.983,-36.1256 464.627,-46.5921 470.795,-43.2823"/>
</a>
</g>
<!-- http://cds.omdoc.org/urtheories?LF&#45;&gt;http://latin.omdoc.org/logics/proof_theory?IFOLExt -->
<g id="edge21" class="edge"><title>http://cds.omdoc.org/urtheories?LF&#45;&gt;http://latin.omdoc.org/logics/proof_theory?IFOLExt</title>
<a class="graphmeta">
<path fill="none" stroke="black" d="M242.076,-224.833C208.546,-213.214 146.563,-191.735 105.211,-177.405"/>
<polygon fill="black" stroke="black" points="106.284,-174.072 95.6888,-174.105 103.992,-180.686 106.284,-174.072"/>
</a>
</g>
<!-- http://cds.omdoc.org/urtheories?LF&#45;&gt;http://latin.omdoc.org/logics/proof_theory?StructuredProofs -->
<g id="edge19" class="edge"><title>http://cds.omdoc.org/urtheories?LF&#45;&gt;http://latin.omdoc.org/logics/proof_theory?StructuredProofs</title>
<a class="graphmeta">
<path fill="none" stroke="black" d="M251.76,-218.496C243.063,-209.409 231.641,-197.475 221.618,-187.004"/>
<polygon fill="black" stroke="black" points="224.069,-184.503 214.626,-179.699 219.012,-189.343 224.069,-184.503"/>
</a>
</g>
<!-- http://cds.omdoc.org/urtheories?LF&#45;&gt;http://latin.omdoc.org/logics/proof_theory?EqualExt -->
<g id="edge25" class="edge"><title>http://cds.omdoc.org/urtheories?LF&#45;&gt;http://latin.omdoc.org/logics/proof_theory?EqualExt</title>
<a class="graphmeta">
<path fill="none" stroke="black" d="M279.733,-218.496C288.748,-209.215 300.647,-196.966 310.972,-186.337"/>
<polygon fill="black" stroke="black" points="313.691,-188.561 318.149,-178.95 308.671,-183.684 313.691,-188.561"/>
</a>
</g>
<!-- http://cds.omdoc.org/urtheories?LF&#45;&gt;http://latin.omdoc.org/logics/proof_theory?Inequal -->
<g id="edge17" class="edge"><title>http://cds.omdoc.org/urtheories?LF&#45;&gt;http://latin.omdoc.org/logics/proof_theory?Inequal</title>
<a class="graphmeta">
<path fill="none" stroke="black" d="M287.819,-223.705C315.437,-212.128 363.002,-192.191 396.053,-178.337"/>
<polygon fill="black" stroke="black" points="397.513,-181.52 405.383,-174.426 394.807,-175.064 397.513,-181.52"/>
</a>
</g>
</g>
</svg>
