<?xml version="1.0" encoding="UTF-8" standalone="no"?>
<!DOCTYPE svg PUBLIC "-//W3C//DTD SVG 1.1//EN"
 "http://www.w3.org/Graphics/SVG/1.1/DTD/svg11.dtd">
<!-- Generated by graphviz version 2.28.0 (20110507.0327)
 -->
<!-- Title: MMT Pages: 1 -->
<svg width="3004pt" height="294pt"
 viewBox="0.00 0.00 3004.12 294.00" xmlns="http://www.w3.org/2000/svg" xmlns:xlink="http://www.w3.org/1999/xlink">
<g id="graph1" class="graph" transform="scale(1 1) rotate(0) translate(4 290)">
<title>MMT</title>
<polygon fill="white" stroke="white" points="-4,5 -4,-290 3001.12,-290 3001.12,5 -4,5"/>
<g id="graph2" class="cluster"><title>cluster_local</title>
<polygon fill="none" stroke="black" points="1569.58,-168 1569.58,-220 1639.58,-220 1639.58,-168 1569.58,-168"/>
</g>
<!-- http://latin.omdoc.org/logics/proof_theory?IMP -->
<g id="node2" class="node"><title>http://latin.omdoc.org/logics/proof_theory?IMP</title>
<a xlink:href="http://latin.omdoc.org/logics/proof_theory?IMP" class="graphtheory">
<ellipse fill="none" stroke="black" cx="1604.58" cy="-194" rx="27" ry="18"/>
<text text-anchor="middle" x="1604.58" y="-190.3" font-family="Times New Roman,serif" font-size="14.00">IMP</text>
</a>
</g>
<!-- http://latin.omdoc.org/foundations/mizar?EquivPFMizarView -->
<g id="node3" class="node"><title>http://latin.omdoc.org/foundations/mizar?EquivPFMizarView</title>
<a xlink:href="http://latin.omdoc.org/foundations/mizar?EquivPFMizarView" class="graphtheory">
<ellipse fill="gray" stroke="black" cx="2486.58" cy="-106" rx="81.3646" ry="18"/>
<text text-anchor="middle" x="2486.58" y="-102.3" font-family="Times New Roman,serif" font-size="14.00">EquivPFMizarView</text>
</a>
</g>
<!-- http://latin.omdoc.org/logics/proof_theory?IMP&#45;&gt;http://latin.omdoc.org/foundations/mizar?EquivPFMizarView -->
<g id="edge3" class="edge"><title>http://latin.omdoc.org/logics/proof_theory?IMP&#45;&gt;http://latin.omdoc.org/foundations/mizar?EquivPFMizarView</title>
<a xlink:href="http://latin.omdoc.org/foundations/mizar?EquivPFMizarView?[http://latin.omdoc.org/logics/proof_theory?IMP]" class="graphstructure">
<path fill="none" stroke="black" d="M1618.45,-178.555C1623.41,-174.336 1629.33,-170.257 1635.58,-168 1704.65,-143.028 2226.66,-180.51 2296.58,-158 2308.43,-154.184 2308.14,-146.932 2319.58,-142 2328.83,-138.009 2375.44,-128.37 2417.07,-120.216"/>
<polygon fill="black" stroke="black" points="2417.82,-123.636 2426.97,-118.287 2416.48,-116.765 2417.82,-123.636"/>
</a>
<a xlink:href="http://latin.omdoc.org/foundations/mizar?EquivPFMizarView?[http://latin.omdoc.org/logics/proof_theory?IMP]" class="[http://latin.omdoc.org/logics/proof_theory?IMP]">
<text text-anchor="middle" x="2457.58" y="-146.3" font-family="Times New Roman,serif" font-size="14.00">[http://latin.omdoc.org/logics/proof_theory?IMP]</text>
</a>
</g>
<!-- http://latin.omdoc.org/foundations/minimal?Bool -->
<g id="node5" class="node"><title>http://latin.omdoc.org/foundations/minimal?Bool</title>
<a xlink:href="http://latin.omdoc.org/foundations/minimal?Bool" class="graphtheory">
<ellipse fill="gray" stroke="black" cx="524.576" cy="-106" rx="28.3955" ry="18"/>
<text text-anchor="middle" x="524.576" y="-102.3" font-family="Times New Roman,serif" font-size="14.00">Bool</text>
</a>
</g>
<!-- http://latin.omdoc.org/logics/proof_theory?IMP&#45;&gt;http://latin.omdoc.org/foundations/minimal?Bool -->
<g id="edge5" class="edge"><title>http://latin.omdoc.org/logics/proof_theory?IMP&#45;&gt;http://latin.omdoc.org/foundations/minimal?Bool</title>
<a xlink:href="http://latin.omdoc.org/logics/soundness?IMP" class="graphview">
<path fill="none" stroke="black" d="M1590.7,-178.544C1585.74,-174.326 1579.82,-170.248 1573.58,-168 1531.23,-152.759 808.302,-162.998 763.576,-158 724.577,-153.642 617.145,-128.952 560.543,-115.59"/>
<polygon fill="black" stroke="black" points="561.131,-112.132 550.594,-113.234 559.518,-118.944 561.131,-112.132"/>
</a>
<a xlink:href="http://latin.omdoc.org/logics/soundness?IMP" class="IMP">
<text text-anchor="middle" x="776.076" y="-146.3" font-family="Times New Roman,serif" font-size="14.00">IMP</text>
</a>
</g>
<!-- http://latin.omdoc.org/logics/soundness?IPL -->
<g id="node7" class="node"><title>http://latin.omdoc.org/logics/soundness?IPL</title>
<a xlink:href="http://latin.omdoc.org/logics/soundness?IPL" class="graphtheory">
<ellipse fill="gray" stroke="black" cx="2617.58" cy="-106" rx="27" ry="18"/>
<text text-anchor="middle" x="2617.58" y="-102.3" font-family="Times New Roman,serif" font-size="14.00">IPL</text>
</a>
</g>
<!-- http://latin.omdoc.org/logics/proof_theory?IMP&#45;&gt;http://latin.omdoc.org/logics/soundness?IPL -->
<g id="edge7" class="edge"><title>http://latin.omdoc.org/logics/proof_theory?IMP&#45;&gt;http://latin.omdoc.org/logics/soundness?IPL</title>
<a xlink:href="http://latin.omdoc.org/logics/soundness?IPL?[http://latin.omdoc.org/logics/proof_theory?IMP]" class="graphstructure">
<path fill="none" stroke="black" d="M1618.45,-178.537C1623.41,-174.318 1629.33,-170.242 1635.58,-168 1660.68,-158.992 2573.37,-172.77 2595.58,-158 2603.83,-152.509 2609,-143.203 2612.24,-134.031"/>
<polygon fill="black" stroke="black" points="2615.63,-134.897 2615.04,-124.319 2608.91,-132.956 2615.63,-134.897"/>
</a>
<a xlink:href="http://latin.omdoc.org/logics/soundness?IPL?[http://latin.omdoc.org/logics/proof_theory?IMP]" class="[http://latin.omdoc.org/logics/proof_theory?IMP]">
<text text-anchor="middle" x="2747.58" y="-146.3" font-family="Times New Roman,serif" font-size="14.00">[http://latin.omdoc.org/logics/proof_theory?IMP]</text>
</a>
</g>
<!-- http://latin.omdoc.org/type_theories?SimpTypes -->
<g id="node9" class="node"><title>http://latin.omdoc.org/type_theories?SimpTypes</title>
<a xlink:href="http://latin.omdoc.org/type_theories?SimpTypes" class="graphtheory">
<ellipse fill="gray" stroke="black" cx="1230.58" cy="-106" rx="52.4675" ry="18"/>
<text text-anchor="middle" x="1230.58" y="-102.3" font-family="Times New Roman,serif" font-size="14.00">SimpTypes</text>
</a>
</g>
<!-- http://latin.omdoc.org/logics/proof_theory?IMP&#45;&gt;http://latin.omdoc.org/type_theories?SimpTypes -->
<g id="edge9" class="edge"><title>http://latin.omdoc.org/logics/proof_theory?IMP&#45;&gt;http://latin.omdoc.org/type_theories?SimpTypes</title>
<a xlink:href="http://latin.omdoc.org/translations/prop_stt?IMPPF" class="graphview">
<path fill="none" stroke="black" d="M1590.64,-178.352C1578.22,-166.331 1558.91,-150.03 1538.58,-142 1495.1,-124.836 1368.82,-114.85 1292.13,-110.204"/>
<polygon fill="black" stroke="black" points="1292.3,-106.708 1282.11,-109.61 1291.88,-113.696 1292.3,-106.708"/>
</a>
<a xlink:href="http://latin.omdoc.org/translations/prop_stt?IMPPF" class="IMPPF">
<text text-anchor="middle" x="1587.58" y="-146.3" font-family="Times New Roman,serif" font-size="14.00">IMPPF</text>
</a>
</g>
<!-- http://latin.omdoc.org/foundations/mizar?IPLPFMizarView -->
<g id="node11" class="node"><title>http://latin.omdoc.org/foundations/mizar?IPLPFMizarView</title>
<a xlink:href="http://latin.omdoc.org/foundations/mizar?IPLPFMizarView" class="graphtheory">
<ellipse fill="gray" stroke="black" cx="1085.58" cy="-106" rx="74.1402" ry="18"/>
<text text-anchor="middle" x="1085.58" y="-102.3" font-family="Times New Roman,serif" font-size="14.00">IPLPFMizarView</text>
</a>
</g>
<!-- http://latin.omdoc.org/logics/proof_theory?IMP&#45;&gt;http://latin.omdoc.org/foundations/mizar?IPLPFMizarView -->
<g id="edge11" class="edge"><title>http://latin.omdoc.org/logics/proof_theory?IMP&#45;&gt;http://latin.omdoc.org/foundations/mizar?IPLPFMizarView</title>
<a xlink:href="http://latin.omdoc.org/foundations/mizar?IPLPFMizarView?[http://latin.omdoc.org/logics/proof_theory?IMP]" class="graphstructure">
<path fill="none" stroke="black" d="M1590.37,-178.336C1585.47,-174.214 1579.67,-170.247 1573.58,-168 1535.4,-153.936 1247.35,-166.546 1207.58,-158 1203.41,-157.106 1163.1,-140.12 1129.94,-125.994"/>
<polygon fill="black" stroke="black" points="1130.94,-122.616 1120.37,-121.913 1128.2,-129.055 1130.94,-122.616"/>
</a>
<a xlink:href="http://latin.omdoc.org/foundations/mizar?IPLPFMizarView?[http://latin.omdoc.org/logics/proof_theory?IMP]" class="[http://latin.omdoc.org/logics/proof_theory?IMP]">
<text text-anchor="middle" x="1345.58" y="-146.3" font-family="Times New Roman,serif" font-size="14.00">[http://latin.omdoc.org/logics/proof_theory?IMP]</text>
</a>
</g>
<!-- http://latin.omdoc.org/translations/prop_iprop?DN&#45;IPL -->
<g id="node13" class="node"><title>http://latin.omdoc.org/translations/prop_iprop?DN&#45;IPL</title>
<a xlink:href="http://latin.omdoc.org/translations/prop_iprop?DN-IPL" class="graphtheory">
<ellipse fill="gray" stroke="black" cx="158.576" cy="-106" rx="39.9464" ry="18"/>
<text text-anchor="middle" x="158.576" y="-102.3" font-family="Times New Roman,serif" font-size="14.00">DN&#45;IPL</text>
</a>
</g>
<!-- http://latin.omdoc.org/logics/proof_theory?IMP&#45;&gt;http://latin.omdoc.org/translations/prop_iprop?DN&#45;IPL -->
<g id="edge13" class="edge"><title>http://latin.omdoc.org/logics/proof_theory?IMP&#45;&gt;http://latin.omdoc.org/translations/prop_iprop?DN&#45;IPL</title>
<a xlink:href="http://latin.omdoc.org/translations/prop_iprop?IMPPF" class="graphview">
<path fill="none" stroke="black" d="M1590.71,-178.53C1585.75,-174.31 1579.83,-170.236 1573.58,-168 1511.48,-145.787 448.431,-180.87 386.576,-158 376.222,-154.171 377.622,-146.578 367.576,-142 320.5,-120.548 303.589,-132.604 252.576,-124 237.164,-121.4 220.358,-118.411 205.275,-115.671"/>
<polygon fill="black" stroke="black" points="205.613,-112.174 195.147,-113.821 204.355,-119.06 205.613,-112.174"/>
</a>
<a xlink:href="http://latin.omdoc.org/translations/prop_iprop?IMPPF" class="IMPPF">
<text text-anchor="middle" x="407.576" y="-146.3" font-family="Times New Roman,serif" font-size="14.00">IMPPF</text>
</a>
</g>
<!-- http://latin.omdoc.org/foundations/mizar?IMPPFExtMizarView -->
<g id="node15" class="node"><title>http://latin.omdoc.org/foundations/mizar?IMPPFExtMizarView</title>
<a xlink:href="http://latin.omdoc.org/foundations/mizar?IMPPFExtMizarView" class="graphtheory">
<ellipse fill="gray" stroke="black" cx="1695.58" cy="-106" rx="89.0632" ry="18"/>
<text text-anchor="middle" x="1695.58" y="-102.3" font-family="Times New Roman,serif" font-size="14.00">IMPPFExtMizarView</text>
</a>
</g>
<!-- http://latin.omdoc.org/logics/proof_theory?IMP&#45;&gt;http://latin.omdoc.org/foundations/mizar?IMPPFExtMizarView -->
<g id="edge15" class="edge"><title>http://latin.omdoc.org/logics/proof_theory?IMP&#45;&gt;http://latin.omdoc.org/foundations/mizar?IMPPFExtMizarView</title>
<a xlink:href="http://latin.omdoc.org/foundations/mizar?IMPPFExtMizarView?[http://latin.omdoc.org/logics/proof_theory?IMP]" class="graphstructure">
<path fill="none" stroke="black" d="M1620.06,-179.162C1624.84,-175.269 1630.25,-171.223 1635.58,-168 1645.11,-162.227 1649.89,-164.98 1658.58,-158 1667.28,-151.013 1674.92,-141.498 1680.96,-132.578"/>
<polygon fill="black" stroke="black" points="1684.02,-134.284 1686.45,-123.972 1678.12,-130.518 1684.02,-134.284"/>
</a>
<a xlink:href="http://latin.omdoc.org/foundations/mizar?IMPPFExtMizarView?[http://latin.omdoc.org/logics/proof_theory?IMP]" class="[http://latin.omdoc.org/logics/proof_theory?IMP]">
<text text-anchor="middle" x="1811.58" y="-146.3" font-family="Times New Roman,serif" font-size="14.00">[http://latin.omdoc.org/logics/proof_theory?IMP]</text>
</a>
</g>
<!-- http://latin.omdoc.org/foundations/hol?SFOL&#45;Pf -->
<g id="node17" class="node"><title>http://latin.omdoc.org/foundations/hol?SFOL&#45;Pf</title>
<a xlink:href="http://latin.omdoc.org/foundations/hol?SFOL-Pf" class="graphtheory">
<ellipse fill="gray" stroke="black" cx="306.576" cy="-106" rx="44.271" ry="18"/>
<text text-anchor="middle" x="306.576" y="-102.3" font-family="Times New Roman,serif" font-size="14.00">SFOL&#45;Pf</text>
</a>
</g>
<!-- http://latin.omdoc.org/logics/proof_theory?IMP&#45;&gt;http://latin.omdoc.org/foundations/hol?SFOL&#45;Pf -->
<g id="edge17" class="edge"><title>http://latin.omdoc.org/logics/proof_theory?IMP&#45;&gt;http://latin.omdoc.org/foundations/hol?SFOL&#45;Pf</title>
<a xlink:href="http://latin.omdoc.org/translations/prop_hol?IMPPF" class="graphview">
<path fill="none" stroke="black" d="M1590.71,-178.538C1585.74,-174.319 1579.82,-170.243 1573.58,-168 1524.58,-150.41 687.383,-169.347 636.576,-158 619.884,-154.272 618.045,-146.619 601.576,-142 578.854,-135.627 437.825,-120.476 359.275,-112.356"/>
<polygon fill="black" stroke="black" points="359.396,-108.85 349.09,-111.307 358.678,-115.813 359.396,-108.85"/>
</a>
<a xlink:href="http://latin.omdoc.org/translations/prop_hol?IMPPF" class="IMPPF">
<text text-anchor="middle" x="657.576" y="-146.3" font-family="Times New Roman,serif" font-size="14.00">IMPPF</text>
</a>
</g>
<!-- http://latin.omdoc.org/translations/prop_iprop?IPLPF -->
<g id="node19" class="node"><title>http://latin.omdoc.org/translations/prop_iprop?IPLPF</title>
<a xlink:href="http://latin.omdoc.org/translations/prop_iprop?IPLPF" class="graphtheory">
<ellipse fill="gray" stroke="black" cx="1994.58" cy="-106" rx="35.1455" ry="18"/>
<text text-anchor="middle" x="1994.58" y="-102.3" font-family="Times New Roman,serif" font-size="14.00">IPLPF</text>
</a>
</g>
<!-- http://latin.omdoc.org/logics/proof_theory?IMP&#45;&gt;http://latin.omdoc.org/translations/prop_iprop?IPLPF -->
<g id="edge19" class="edge"><title>http://latin.omdoc.org/logics/proof_theory?IMP&#45;&gt;http://latin.omdoc.org/translations/prop_iprop?IPLPF</title>
<a xlink:href="http://latin.omdoc.org/translations/prop_iprop?IPLPF?[http://latin.omdoc.org/logics/proof_theory?IMP]" class="graphstructure">
<path fill="none" stroke="black" d="M1618.79,-178.351C1623.68,-174.23 1629.48,-170.259 1635.58,-168 1668.72,-155.711 1921.94,-173.775 1953.58,-158 1964.9,-152.354 1974.13,-141.967 1980.95,-132.034"/>
<polygon fill="black" stroke="black" points="1983.92,-133.875 1986.31,-123.552 1978.01,-130.136 1983.92,-133.875"/>
</a>
<a xlink:href="http://latin.omdoc.org/translations/prop_iprop?IPLPF?[http://latin.omdoc.org/logics/proof_theory?IMP]" class="[http://latin.omdoc.org/logics/proof_theory?IMP]">
<text text-anchor="middle" x="2111.58" y="-146.3" font-family="Times New Roman,serif" font-size="14.00">[http://latin.omdoc.org/logics/proof_theory?IMP]</text>
</a>
</g>
<!-- http://latin.omdoc.org/foundations/mizar?Mizar -->
<g id="node21" class="node"><title>http://latin.omdoc.org/foundations/mizar?Mizar</title>
<a xlink:href="http://latin.omdoc.org/foundations/mizar?Mizar" class="graphtheory">
<ellipse fill="gray" stroke="black" cx="2285.58" cy="-18" rx="31.2965" ry="18"/>
<text text-anchor="middle" x="2285.58" y="-14.3" font-family="Times New Roman,serif" font-size="14.00">Mizar</text>
</a>
</g>
<!-- http://latin.omdoc.org/logics/proof_theory?IMP&#45;&gt;http://latin.omdoc.org/foundations/mizar?Mizar -->
<g id="edge21" class="edge"><title>http://latin.omdoc.org/logics/proof_theory?IMP&#45;&gt;http://latin.omdoc.org/foundations/mizar?Mizar</title>
<a xlink:href="http://latin.omdoc.org/foundations/mizar?IMPPFMizarView" class="graphview">
<path fill="none" stroke="black" d="M1618.45,-178.558C1623.42,-174.34 1629.34,-170.26 1635.58,-168 1667.86,-156.309 2226.88,-179.601 2253.58,-158 2286.44,-131.408 2289.7,-78.4757 2288.23,-46.1544"/>
<polygon fill="black" stroke="black" points="2291.72,-45.8079 2287.59,-36.0512 2284.73,-46.2539 2291.72,-45.8079"/>
</a>
<a xlink:href="http://latin.omdoc.org/foundations/mizar?IMPPFMizarView" class="IMPPFMizarView">
<text text-anchor="middle" x="2337.58" y="-102.3" font-family="Times New Roman,serif" font-size="14.00">IMPPFMizarView</text>
</a>
</g>
<!-- http://latin.omdoc.org/logics/model_theory/kripke?Kripke -->
<g id="node23" class="node"><title>http://latin.omdoc.org/logics/model_theory/kripke?Kripke</title>
<a xlink:href="http://latin.omdoc.org/logics/model_theory/kripke?Kripke" class="graphtheory">
<ellipse fill="gray" stroke="black" cx="1549.58" cy="-106" rx="35.1455" ry="18"/>
<text text-anchor="middle" x="1549.58" y="-102.3" font-family="Times New Roman,serif" font-size="14.00">Kripke</text>
</a>
</g>
<!-- http://latin.omdoc.org/logics/proof_theory?IMP&#45;&gt;http://latin.omdoc.org/logics/model_theory/kripke?Kripke -->
<g id="edge23" class="edge"><title>http://latin.omdoc.org/logics/proof_theory?IMP&#45;&gt;http://latin.omdoc.org/logics/model_theory/kripke?Kripke</title>
<a xlink:href="http://latin.omdoc.org/logics/soundness/kripke?IMP" class="graphview">
<path fill="none" stroke="black" d="M1618.06,-178.029C1625.85,-167.483 1632.81,-153.289 1625.58,-142 1620.96,-134.791 1604.48,-126.801 1588.05,-120.277"/>
<polygon fill="black" stroke="black" points="1589.05,-116.915 1578.46,-116.622 1586.56,-123.456 1589.05,-116.915"/>
</a>
<a xlink:href="http://latin.omdoc.org/logics/soundness/kripke?IMP" class="IMP">
<text text-anchor="middle" x="1642.08" y="-146.3" font-family="Times New Roman,serif" font-size="14.00">IMP</text>
</a>
</g>
<!-- http://latin.omdoc.org/logics/proof_theory?IPL -->
<g id="node25" class="node"><title>http://latin.omdoc.org/logics/proof_theory?IPL</title>
<a xlink:href="http://latin.omdoc.org/logics/proof_theory?IPL" class="graphtheory">
<ellipse fill="gray" stroke="black" cx="234.576" cy="-194" rx="27" ry="18"/>
<text text-anchor="middle" x="234.576" y="-190.3" font-family="Times New Roman,serif" font-size="14.00">IPL</text>
</a>
</g>
<!-- http://latin.omdoc.org/logics/proof_theory?IMP&#45;&gt;http://latin.omdoc.org/logics/proof_theory?IPL -->
<g id="edge25" class="edge"><title>http://latin.omdoc.org/logics/proof_theory?IMP&#45;&gt;http://latin.omdoc.org/logics/proof_theory?IPL</title>
<a class="graphinclude">
<path fill="none" stroke="black" d="M1593.37,-210.792C1586.31,-219.806 1576.31,-230.056 1564.58,-235 1509.39,-258.26 546.271,-239.824 486.576,-235 408.988,-228.729 319.262,-211.768 270.563,-201.734"/>
<polygon fill="black" stroke="black" points="271.03,-198.256 260.527,-199.644 269.603,-205.11 271.03,-198.256"/>
</a>
</g>
<!-- http://latin.omdoc.org/logics/proof_theory?Equiv -->
<g id="node27" class="node"><title>http://latin.omdoc.org/logics/proof_theory?Equiv</title>
<a xlink:href="http://latin.omdoc.org/logics/proof_theory?Equiv" class="graphtheory">
<ellipse fill="gray" stroke="black" cx="2854.58" cy="-106" rx="31.2735" ry="18"/>
<text text-anchor="middle" x="2854.58" y="-102.3" font-family="Times New Roman,serif" font-size="14.00">Equiv</text>
</a>
</g>
<!-- http://latin.omdoc.org/logics/proof_theory?IMP&#45;&gt;http://latin.omdoc.org/logics/proof_theory?Equiv -->
<g id="edge27" class="edge"><title>http://latin.omdoc.org/logics/proof_theory?IMP&#45;&gt;http://latin.omdoc.org/logics/proof_theory?Equiv</title>
<a class="graphinclude">
<path fill="none" stroke="black" d="M1618.44,-178.528C1623.4,-174.308 1629.33,-170.234 1635.58,-168 1651.98,-162.137 2877.31,-170.365 2889.58,-158 2898.64,-148.859 2891.54,-137.094 2881.42,-127.167"/>
<polygon fill="black" stroke="black" points="2883.52,-124.345 2873.71,-120.328 2878.87,-129.582 2883.52,-124.345"/>
</a>
</g>
<!-- http://latin.omdoc.org/translations/prop_hol?IPLPF -->
<g id="node29" class="node"><title>http://latin.omdoc.org/translations/prop_hol?IPLPF</title>
<a xlink:href="http://latin.omdoc.org/translations/prop_hol?IPLPF" class="graphtheory">
<ellipse fill="gray" stroke="black" cx="958.576" cy="-106" rx="35.1455" ry="18"/>
<text text-anchor="middle" x="958.576" y="-102.3" font-family="Times New Roman,serif" font-size="14.00">IPLPF</text>
</a>
</g>
<!-- http://latin.omdoc.org/logics/proof_theory?IMP&#45;&gt;http://latin.omdoc.org/translations/prop_hol?IPLPF -->
<g id="edge29" class="edge"><title>http://latin.omdoc.org/logics/proof_theory?IMP&#45;&gt;http://latin.omdoc.org/translations/prop_hol?IPLPF</title>
<a class="graphinclude">
<path fill="none" stroke="black" d="M1590.38,-178.318C1585.48,-174.195 1579.68,-170.232 1573.58,-168 1526.81,-150.904 1174.11,-169.135 1125.58,-158 1108.91,-154.175 1106.84,-147.303 1090.58,-142 1052.62,-129.622 1040.88,-135.233 1002.58,-124 999.941,-123.227 997.242,-122.365 994.54,-121.451"/>
<polygon fill="black" stroke="black" points="995.449,-118.059 984.855,-117.974 993.084,-124.647 995.449,-118.059"/>
</a>
</g>
<!-- http://latin.omdoc.org/logics/proof_theory?IMPExt -->
<g id="node31" class="node"><title>http://latin.omdoc.org/logics/proof_theory?IMPExt</title>
<a xlink:href="http://latin.omdoc.org/logics/proof_theory?IMPExt" class="graphtheory">
<ellipse fill="gray" stroke="black" cx="2943.58" cy="-106" rx="38.4949" ry="18"/>
<text text-anchor="middle" x="2943.58" y="-102.3" font-family="Times New Roman,serif" font-size="14.00">IMPExt</text>
</a>
</g>
<!-- http://latin.omdoc.org/logics/proof_theory?IMP&#45;&gt;http://latin.omdoc.org/logics/proof_theory?IMPExt -->
<g id="edge31" class="edge"><title>http://latin.omdoc.org/logics/proof_theory?IMP&#45;&gt;http://latin.omdoc.org/logics/proof_theory?IMPExt</title>
<a class="graphinclude">
<path fill="none" stroke="black" d="M1631.63,-192.95C1813.12,-192.527 2848.19,-188.771 2906.58,-158 2917.17,-152.416 2925.47,-142.28 2931.5,-132.507"/>
<polygon fill="black" stroke="black" points="2934.56,-134.209 2936.4,-123.775 2928.46,-130.783 2934.56,-134.209"/>
</a>
</g>
<!-- http://latin.omdoc.org/logics/proof_theory?IPL&#45;&gt;http://latin.omdoc.org/foundations/minimal?Bool -->
<g id="edge91" class="edge"><title>http://latin.omdoc.org/logics/proof_theory?IPL&#45;&gt;http://latin.omdoc.org/foundations/minimal?Bool</title>
<a xlink:href="http://latin.omdoc.org/logics/soundness?IPL" class="graphview">
<path fill="none" stroke="black" d="M261.536,-191.895C300.614,-189.493 374.655,-181.903 432.576,-158 444.087,-153.25 444.887,-148.387 455.576,-142 467.586,-134.824 481.245,-127.693 493.224,-121.759"/>
<polygon fill="black" stroke="black" points="494.954,-124.809 502.406,-117.279 491.884,-118.518 494.954,-124.809"/>
</a>
<a xlink:href="http://latin.omdoc.org/logics/soundness?IPL" class="IPL">
<text text-anchor="middle" x="466.576" y="-146.3" font-family="Times New Roman,serif" font-size="14.00">IPL</text>
</a>
</g>
<!-- http://latin.omdoc.org/logics/proof_theory?IPL&#45;&gt;http://latin.omdoc.org/translations/prop_iprop?DN&#45;IPL -->
<g id="edge93" class="edge"><title>http://latin.omdoc.org/logics/proof_theory?IPL&#45;&gt;http://latin.omdoc.org/translations/prop_iprop?DN&#45;IPL</title>
<a xlink:href="http://latin.omdoc.org/translations/prop_iprop?IPLPF" class="graphview">
<path fill="none" stroke="black" d="M207.677,-192.345C158.719,-190.525 58.1118,-183.676 36.5765,-158 32.0067,-152.552 32.239,-147.635 36.5765,-142 55.6458,-117.226 74.5472,-132.696 104.576,-124 108.665,-122.816 112.917,-121.546 117.158,-120.253"/>
<polygon fill="black" stroke="black" points="118.436,-123.521 126.956,-117.224 116.368,-116.834 118.436,-123.521"/>
</a>
<a xlink:href="http://latin.omdoc.org/translations/prop_iprop?IPLPF" class="IPLPF">
<text text-anchor="middle" x="55.5765" y="-146.3" font-family="Times New Roman,serif" font-size="14.00">IPLPF</text>
</a>
</g>
<!-- http://latin.omdoc.org/logics/proof_theory?IPL&#45;&gt;http://latin.omdoc.org/translations/prop_iprop?DN&#45;IPL -->
<g id="edge95" class="edge"><title>http://latin.omdoc.org/logics/proof_theory?IPL&#45;&gt;http://latin.omdoc.org/translations/prop_iprop?DN&#45;IPL</title>
<a class="graphinclude">
<path fill="none" stroke="black" d="M208.279,-189.809C173.575,-184.995 115.371,-174.63 102.576,-158 92.6984,-145.161 105.294,-132.869 121.022,-123.571"/>
<polygon fill="black" stroke="black" points="122.834,-126.57 129.959,-118.728 119.499,-120.415 122.834,-126.57"/>
</a>
</g>
<!-- http://latin.omdoc.org/logics/proof_theory?IPL&#45;&gt;http://latin.omdoc.org/foundations/hol?SFOL&#45;Pf -->
<g id="edge89" class="edge"><title>http://latin.omdoc.org/logics/proof_theory?IPL&#45;&gt;http://latin.omdoc.org/foundations/hol?SFOL&#45;Pf</title>
<a xlink:href="http://latin.omdoc.org/translations/prop_hol?IPLPF" class="graphview">
<path fill="none" stroke="black" d="M231.533,-176.065C230.546,-165.448 231.063,-151.941 237.576,-142 243.434,-133.06 252.317,-126.296 261.778,-121.22"/>
<polygon fill="black" stroke="black" points="263.422,-124.313 270.946,-116.853 260.413,-117.993 263.422,-124.313"/>
</a>
<a xlink:href="http://latin.omdoc.org/translations/prop_hol?IPLPF" class="IPLPF">
<text text-anchor="middle" x="256.576" y="-146.3" font-family="Times New Roman,serif" font-size="14.00">IPLPF</text>
</a>
</g>
<!-- http://latin.omdoc.org/logics/proof_theory?IPL&#45;&gt;http://latin.omdoc.org/foundations/mizar?Mizar -->
<g id="edge87" class="edge"><title>http://latin.omdoc.org/logics/proof_theory?IPL&#45;&gt;http://latin.omdoc.org/foundations/mizar?Mizar</title>
<a xlink:href="http://latin.omdoc.org/foundations/mizar?IPLPFMizarView" class="graphview">
<path fill="none" stroke="black" d="M207.81,-191.342C158.928,-187.849 57.6549,-178.322 29.5765,-158 3.55395,-139.166 -10.5762,-111.263 11.5765,-88 51.6392,-45.9295 1939.73,-22.8981 2244.3,-19.4539"/>
<polygon fill="black" stroke="black" points="2244.5,-22.9519 2254.46,-19.3396 2244.42,-15.9524 2244.5,-22.9519"/>
</a>
<a xlink:href="http://latin.omdoc.org/foundations/mizar?IPLPFMizarView" class="IPLPFMizarView">
<text text-anchor="middle" x="60.5765" y="-102.3" font-family="Times New Roman,serif" font-size="14.00">IPLPFMizarView</text>
</a>
</g>
<!-- http://latin.omdoc.org/logics/proof_theory?Equiv&#45;&gt;http://latin.omdoc.org/foundations/mizar?Mizar -->
<g id="edge85" class="edge"><title>http://latin.omdoc.org/logics/proof_theory?Equiv&#45;&gt;http://latin.omdoc.org/foundations/mizar?Mizar</title>
<a xlink:href="http://latin.omdoc.org/foundations/mizar?EquivPFMizarView" class="graphview">
<path fill="none" stroke="black" d="M2824.39,-100.437C2728.89,-86.0031 2433.33,-41.3321 2325.49,-25.0319"/>
<polygon fill="black" stroke="black" points="2325.76,-21.534 2315.35,-23.5001 2324.72,-28.4554 2325.76,-21.534"/>
</a>
<a xlink:href="http://latin.omdoc.org/foundations/mizar?EquivPFMizarView" class="EquivPFMizarView">
<text text-anchor="middle" x="2676.08" y="-58.3" font-family="Times New Roman,serif" font-size="14.00">EquivPFMizarView</text>
</a>
</g>
<!-- http://latin.omdoc.org/logics/proof_theory?IMPExt&#45;&gt;http://latin.omdoc.org/foundations/mizar?Mizar -->
<g id="edge83" class="edge"><title>http://latin.omdoc.org/logics/proof_theory?IMPExt&#45;&gt;http://latin.omdoc.org/foundations/mizar?Mizar</title>
<a xlink:href="http://latin.omdoc.org/foundations/mizar?IMPPFExtMizarView" class="graphview">
<path fill="none" stroke="black" d="M2914.23,-94.1513C2907.8,-91.9628 2901,-89.788 2894.58,-88 2824.54,-68.4923 2806.53,-64.403 2734.58,-54 2585.16,-32.3973 2405.72,-23.4713 2326.54,-20.3886"/>
<polygon fill="black" stroke="black" points="2326.61,-16.8891 2316.49,-20.0081 2326.35,-23.8841 2326.61,-16.8891"/>
</a>
<a xlink:href="http://latin.omdoc.org/foundations/mizar?IMPPFExtMizarView" class="IMPPFExtMizarView">
<text text-anchor="middle" x="2887.08" y="-58.3" font-family="Times New Roman,serif" font-size="14.00">IMPPFExtMizarView</text>
</a>
</g>
<!-- http://latin.omdoc.org/logics/proof_theory?Base -->
<g id="node33" class="node"><title>http://latin.omdoc.org/logics/proof_theory?Base</title>
<a xlink:href="http://latin.omdoc.org/logics/proof_theory?Base" class="graphtheory">
<ellipse fill="gray" stroke="black" cx="693.576" cy="-194" rx="28.3955" ry="18"/>
<text text-anchor="middle" x="693.576" y="-190.3" font-family="Times New Roman,serif" font-size="14.00">Base</text>
</a>
</g>
<!-- http://latin.omdoc.org/logics/proof_theory?Base&#45;&gt;http://latin.omdoc.org/logics/proof_theory?IMP -->
<g id="edge33" class="edge"><title>http://latin.omdoc.org/logics/proof_theory?Base&#45;&gt;http://latin.omdoc.org/logics/proof_theory?IMP</title>
<a class="graphinclude">
<path fill="none" stroke="black" d="M721.282,-197.807C786.41,-206.541 954.399,-227.819 1095.58,-235 1147.62,-237.647 1516.56,-255.239 1564.58,-235 1573.01,-231.447 1580.54,-225.152 1586.74,-218.546"/>
<polygon fill="black" stroke="black" points="1589.53,-220.666 1593.37,-210.792 1584.21,-216.116 1589.53,-220.666"/>
</a>
</g>
<!-- http://latin.omdoc.org/logics/proof_theory?Base&#45;&gt;http://latin.omdoc.org/foundations/minimal?Bool -->
<g id="edge79" class="edge"><title>http://latin.omdoc.org/logics/proof_theory?Base&#45;&gt;http://latin.omdoc.org/foundations/minimal?Bool</title>
<a xlink:href="http://latin.omdoc.org/logics/soundness?Base" class="graphview">
<path fill="none" stroke="black" d="M665.337,-191.258C622.209,-187.947 543.076,-179.096 525.576,-158 520.11,-151.41 518.63,-142.523 518.905,-134.014"/>
<polygon fill="black" stroke="black" points="522.392,-134.314 519.961,-124.002 515.431,-133.58 522.392,-134.314"/>
</a>
<a xlink:href="http://latin.omdoc.org/logics/soundness?Base" class="Base">
<text text-anchor="middle" x="539.576" y="-146.3" font-family="Times New Roman,serif" font-size="14.00">Base</text>
</a>
</g>
<!-- http://latin.omdoc.org/logics/proof_theory?Base&#45;&gt;http://latin.omdoc.org/foundations/mizar?IPLPFMizarView -->
<g id="edge71" class="edge"><title>http://latin.omdoc.org/logics/proof_theory?Base&#45;&gt;http://latin.omdoc.org/foundations/mizar?IPLPFMizarView</title>
<a xlink:href="http://latin.omdoc.org/foundations/mizar?IPLPFMizarView?[http://latin.omdoc.org/logics/proof_theory?Base]" class="graphstructure">
<path fill="none" stroke="black" d="M716.9,-183.611C746.709,-172.002 800.14,-152.493 847.576,-142 915.291,-127.021 934.097,-134.968 1002.58,-124 1008.87,-122.992 1015.4,-121.839 1021.93,-120.618"/>
<polygon fill="black" stroke="black" points="1022.96,-123.983 1032.12,-118.656 1021.64,-117.109 1022.96,-123.983"/>
</a>
<a xlink:href="http://latin.omdoc.org/foundations/mizar?IPLPFMizarView?[http://latin.omdoc.org/logics/proof_theory?Base]" class="[http://latin.omdoc.org/logics/proof_theory?Base]">
<text text-anchor="middle" x="986.576" y="-146.3" font-family="Times New Roman,serif" font-size="14.00">[http://latin.omdoc.org/logics/proof_theory?Base]</text>
</a>
</g>
<!-- http://latin.omdoc.org/logics/proof_theory?Base&#45;&gt;http://latin.omdoc.org/translations/prop_iprop?DN&#45;IPL -->
<g id="edge77" class="edge"><title>http://latin.omdoc.org/logics/proof_theory?Base&#45;&gt;http://latin.omdoc.org/translations/prop_iprop?DN&#45;IPL</title>
<a xlink:href="http://latin.omdoc.org/translations/prop_iprop?BasePF" class="graphview">
<path fill="none" stroke="black" d="M665.325,-191.333C550.362,-184.539 123.754,-159.252 122.576,-158 114.115,-149.004 120.32,-137.912 129.81,-128.372"/>
<polygon fill="black" stroke="black" points="132.424,-130.728 137.519,-121.439 127.743,-125.523 132.424,-130.728"/>
</a>
<a xlink:href="http://latin.omdoc.org/translations/prop_iprop?BasePF" class="BasePF">
<text text-anchor="middle" x="144.576" y="-146.3" font-family="Times New Roman,serif" font-size="14.00">BasePF</text>
</a>
</g>
<!-- http://latin.omdoc.org/logics/proof_theory?Base&#45;&gt;http://latin.omdoc.org/foundations/hol?SFOL&#45;Pf -->
<g id="edge73" class="edge"><title>http://latin.omdoc.org/logics/proof_theory?Base&#45;&gt;http://latin.omdoc.org/foundations/hol?SFOL&#45;Pf</title>
<a xlink:href="http://latin.omdoc.org/translations/prop_hol?BasePF" class="graphview">
<path fill="none" stroke="black" d="M665.186,-192.079C583.189,-189.175 350.156,-179.13 323.576,-158 316.33,-152.239 312.147,-143.286 309.741,-134.48"/>
<polygon fill="black" stroke="black" points="313.111,-133.492 307.656,-124.409 306.256,-134.911 313.111,-133.492"/>
</a>
<a xlink:href="http://latin.omdoc.org/translations/prop_hol?BasePF" class="BasePF">
<text text-anchor="middle" x="345.576" y="-146.3" font-family="Times New Roman,serif" font-size="14.00">BasePF</text>
</a>
</g>
<!-- http://latin.omdoc.org/logics/proof_theory?Base&#45;&gt;http://latin.omdoc.org/foundations/mizar?Mizar -->
<g id="edge75" class="edge"><title>http://latin.omdoc.org/logics/proof_theory?Base&#45;&gt;http://latin.omdoc.org/foundations/mizar?Mizar</title>
<a xlink:href="http://latin.omdoc.org/foundations/mizar?BasePFMizarView" class="graphview">
<path fill="none" stroke="black" d="M686.949,-176.222C679.164,-153.422 669.762,-112.672 690.576,-88 748.434,-19.4193 800.273,-62.7026 889.576,-54 1162.48,-27.4052 2043.04,-20.4825 2244.33,-19.2312"/>
<polygon fill="black" stroke="black" points="2244.5,-22.7304 2254.48,-19.1694 2244.46,-15.7305 2244.5,-22.7304"/>
</a>
<a xlink:href="http://latin.omdoc.org/foundations/mizar?BasePFMizarView" class="BasePFMizarView">
<text text-anchor="middle" x="742.576" y="-102.3" font-family="Times New Roman,serif" font-size="14.00">BasePFMizarView</text>
</a>
</g>
<!-- http://latin.omdoc.org/logics/proof_theory?Base&#45;&gt;http://latin.omdoc.org/translations/prop_hol?IPLPF -->
<g id="edge81" class="edge"><title>http://latin.omdoc.org/logics/proof_theory?Base&#45;&gt;http://latin.omdoc.org/translations/prop_hol?IPLPF</title>
<a class="graphinclude">
<path fill="none" stroke="black" d="M697.665,-175.893C701.372,-164.34 708.069,-149.821 719.576,-142 754.654,-118.162 868.134,-133.015 909.576,-124 913.684,-123.106 917.924,-121.973 922.11,-120.718"/>
<polygon fill="black" stroke="black" points="923.254,-124.026 931.694,-117.621 921.102,-117.365 923.254,-124.026"/>
</a>
</g>
<!-- http://latin.omdoc.org/logics/syntax?IMP -->
<g id="node35" class="node"><title>http://latin.omdoc.org/logics/syntax?IMP</title>
<a xlink:href="http://latin.omdoc.org/logics/syntax?IMP" class="graphtheory">
<ellipse fill="gray" stroke="black" cx="1122.58" cy="-194" rx="27" ry="18"/>
<text text-anchor="middle" x="1122.58" y="-190.3" font-family="Times New Roman,serif" font-size="14.00">IMP</text>
</a>
</g>
<!-- http://latin.omdoc.org/logics/syntax?IMP&#45;&gt;http://latin.omdoc.org/logics/proof_theory?IMP -->
<g id="edge35" class="edge"><title>http://latin.omdoc.org/logics/syntax?IMP&#45;&gt;http://latin.omdoc.org/logics/proof_theory?IMP</title>
<a class="graphinclude">
<path fill="none" stroke="black" d="M1149.88,-194C1289.07,-194 1428.27,-194 1567.47,-194"/>
<polygon fill="black" stroke="black" points="1567.49,-197.5 1577.49,-194 1567.49,-190.5 1567.49,-197.5"/>
</a>
</g>
<!-- http://latin.omdoc.org/logics/syntax?IMP&#45;&gt;http://latin.omdoc.org/foundations/minimal?Bool -->
<g id="edge63" class="edge"><title>http://latin.omdoc.org/logics/syntax?IMP&#45;&gt;http://latin.omdoc.org/foundations/minimal?Bool</title>
<a xlink:href="http://latin.omdoc.org/logics/model_theory?IMP" class="graphview">
<path fill="none" stroke="black" d="M1095.52,-191.273C985.43,-184.247 576.952,-158.168 576.576,-158 569.141,-154.681 556.026,-141.794 544.828,-129.805"/>
<polygon fill="black" stroke="black" points="547.163,-127.173 537.825,-122.167 542.003,-131.903 547.163,-127.173"/>
</a>
<a xlink:href="http://latin.omdoc.org/logics/model_theory?IMP" class="IMP">
<text text-anchor="middle" x="589.076" y="-146.3" font-family="Times New Roman,serif" font-size="14.00">IMP</text>
</a>
</g>
<!-- http://latin.omdoc.org/logics/syntax?IMP&#45;&gt;http://latin.omdoc.org/type_theories?SimpTypes -->
<g id="edge65" class="edge"><title>http://latin.omdoc.org/logics/syntax?IMP&#45;&gt;http://latin.omdoc.org/type_theories?SimpTypes</title>
<a xlink:href="http://latin.omdoc.org/translations/prop_stt?IMP" class="graphview">
<path fill="none" stroke="black" d="M1124.12,-175.942C1125.95,-165.005 1129.92,-151.186 1138.58,-142 1145.11,-135.062 1163.42,-127.525 1182,-121.228"/>
<polygon fill="black" stroke="black" points="1183.27,-124.496 1191.68,-118.058 1181.09,-117.844 1183.27,-124.496"/>
</a>
<a xlink:href="http://latin.omdoc.org/translations/prop_stt?IMP" class="IMP">
<text text-anchor="middle" x="1151.08" y="-146.3" font-family="Times New Roman,serif" font-size="14.00">IMP</text>
</a>
</g>
<!-- http://latin.omdoc.org/logics/syntax?IMP&#45;&gt;http://latin.omdoc.org/translations/prop_iprop?DN&#45;IPL -->
<g id="edge69" class="edge"><title>http://latin.omdoc.org/logics/syntax?IMP&#45;&gt;http://latin.omdoc.org/translations/prop_iprop?DN&#45;IPL</title>
<a xlink:href="http://latin.omdoc.org/translations/prop_iprop?IMP" class="graphview">
<path fill="none" stroke="black" d="M1095.98,-190.892C1032.71,-185.967 868.21,-173.692 730.576,-168 701.318,-166.79 230.152,-170.298 203.576,-158 191.521,-152.421 181.37,-141.897 173.779,-131.85"/>
<polygon fill="black" stroke="black" points="176.628,-129.818 168.019,-123.643 170.899,-133.839 176.628,-129.818"/>
</a>
<a xlink:href="http://latin.omdoc.org/translations/prop_iprop?IMP" class="IMP">
<text text-anchor="middle" x="216.076" y="-146.3" font-family="Times New Roman,serif" font-size="14.00">IMP</text>
</a>
</g>
<!-- http://latin.omdoc.org/logics/syntax?IMP&#45;&gt;http://latin.omdoc.org/foundations/mizar?Mizar -->
<g id="edge61" class="edge"><title>http://latin.omdoc.org/logics/syntax?IMP&#45;&gt;http://latin.omdoc.org/foundations/mizar?Mizar</title>
<a xlink:href="http://latin.omdoc.org/foundations/mizar?IMPMizarView" class="graphview">
<path fill="none" stroke="black" d="M1095.6,-192.166C1020.42,-189.568 812.733,-180.407 792.576,-158 780.995,-145.125 808.871,-99.5472 829.576,-88 956.035,-17.477 2020.1,-17.9021 2244.24,-18.7844"/>
<polygon fill="black" stroke="black" points="2244.25,-22.2844 2254.27,-18.8265 2244.28,-15.2844 2244.25,-22.2844"/>
</a>
<a xlink:href="http://latin.omdoc.org/foundations/mizar?IMPMizarView" class="IMPMizarView">
<text text-anchor="middle" x="872.076" y="-102.3" font-family="Times New Roman,serif" font-size="14.00">IMPMizarView</text>
</a>
</g>
<!-- http://latin.omdoc.org/logics/syntax?IMP&#45;&gt;http://latin.omdoc.org/logics/model_theory/kripke?Kripke -->
<g id="edge67" class="edge"><title>http://latin.omdoc.org/logics/syntax?IMP&#45;&gt;http://latin.omdoc.org/logics/model_theory/kripke?Kripke</title>
<a xlink:href="http://latin.omdoc.org/logics/model_theory/kripke?IMP" class="graphview">
<path fill="none" stroke="black" d="M1149.54,-192.444C1223.19,-190.607 1426.32,-183.322 1487.58,-158 1491.99,-156.175 1509.46,-141.677 1524.73,-128.604"/>
<polygon fill="black" stroke="black" points="1527.14,-131.148 1532.44,-121.972 1522.58,-125.842 1527.14,-131.148"/>
</a>
<a xlink:href="http://latin.omdoc.org/logics/model_theory/kripke?IMP" class="IMP">
<text text-anchor="middle" x="1521.08" y="-146.3" font-family="Times New Roman,serif" font-size="14.00">IMP</text>
</a>
</g>
<!-- http://cds.omdoc.org/urtheories?LF -->
<g id="node37" class="node"><title>http://cds.omdoc.org/urtheories?LF</title>
<a xlink:href="http://cds.omdoc.org/urtheories?LF" class="graphtheory">
<ellipse fill="gray" stroke="black" cx="1157.58" cy="-268" rx="27" ry="18"/>
<text text-anchor="middle" x="1157.58" y="-264.3" font-family="Times New Roman,serif" font-size="14.00">LF</text>
</a>
</g>
<!-- http://cds.omdoc.org/urtheories?LF&#45;&gt;http://latin.omdoc.org/logics/proof_theory?IMP -->
<g id="edge37" class="edge"><title>http://cds.omdoc.org/urtheories?LF&#45;&gt;http://latin.omdoc.org/logics/proof_theory?IMP</title>
<a class="graphmeta">
<path fill="none" stroke="black" d="M1184.74,-266.892C1264.25,-266.228 1495.21,-261.722 1563.58,-232 1571.37,-228.613 1578.68,-223.14 1584.9,-217.429"/>
<polygon fill="black" stroke="black" points="1587.54,-219.74 1592.17,-210.207 1582.61,-214.775 1587.54,-219.74"/>
</a>
</g>
<!-- http://cds.omdoc.org/urtheories?LF&#45;&gt;http://latin.omdoc.org/foundations/minimal?Bool -->
<g id="edge43" class="edge"><title>http://cds.omdoc.org/urtheories?LF&#45;&gt;http://latin.omdoc.org/foundations/minimal?Bool</title>
<a class="graphmeta">
<path fill="none" stroke="black" d="M1130.38,-267.503C1054.11,-268.269 832.177,-266.059 655.576,-220 589.728,-202.826 552.696,-215.035 515.576,-158 510.783,-150.634 510.962,-141.457 513.015,-132.927"/>
<polygon fill="black" stroke="black" points="516.363,-133.949 516.101,-123.357 509.701,-131.8 516.363,-133.949"/>
</a>
</g>
<!-- http://cds.omdoc.org/urtheories?LF&#45;&gt;http://latin.omdoc.org/type_theories?SimpTypes -->
<g id="edge47" class="edge"><title>http://cds.omdoc.org/urtheories?LF&#45;&gt;http://latin.omdoc.org/type_theories?SimpTypes</title>
<a class="graphmeta">
<path fill="none" stroke="black" d="M1159.12,-250.022C1162.06,-224.79 1170.21,-176.65 1191.58,-142 1194.31,-137.564 1197.77,-133.361 1201.5,-129.509"/>
<polygon fill="black" stroke="black" points="1204,-131.967 1208.88,-122.563 1199.2,-126.87 1204,-131.967"/>
</a>
</g>
<!-- http://cds.omdoc.org/urtheories?LF&#45;&gt;http://latin.omdoc.org/translations/prop_iprop?DN&#45;IPL -->
<g id="edge49" class="edge"><title>http://cds.omdoc.org/urtheories?LF&#45;&gt;http://latin.omdoc.org/translations/prop_iprop?DN&#45;IPL</title>
<a class="graphmeta">
<path fill="none" stroke="black" d="M1130.54,-267.244C1021.89,-267.947 606.638,-267.989 267.576,-232 157.422,-220.308 92.9973,-248.821 29.5765,-158 25.5052,-152.17 25.1738,-147.584 29.5765,-142 50.8,-115.08 71.541,-133.152 104.576,-124 108.679,-122.863 112.939,-121.625 117.186,-120.351"/>
<polygon fill="black" stroke="black" points="118.455,-123.623 126.991,-117.348 116.404,-116.93 118.455,-123.623"/>
</a>
</g>
<!-- http://cds.omdoc.org/urtheories?LF&#45;&gt;http://latin.omdoc.org/foundations/hol?SFOL&#45;Pf -->
<g id="edge53" class="edge"><title>http://cds.omdoc.org/urtheories?LF&#45;&gt;http://latin.omdoc.org/foundations/hol?SFOL&#45;Pf</title>
<a class="graphmeta">
<path fill="none" stroke="black" d="M1130.57,-267.062C1042.13,-266.829 753.4,-262.623 519.576,-220 423.838,-202.548 370.103,-234.204 309.576,-158 304.379,-151.456 302.601,-142.821 302.429,-134.52"/>
<polygon fill="black" stroke="black" points="305.933,-134.529 302.935,-124.367 298.942,-134.181 305.933,-134.529"/>
</a>
</g>
<!-- http://cds.omdoc.org/urtheories?LF&#45;&gt;http://latin.omdoc.org/foundations/mizar?Mizar -->
<g id="edge55" class="edge"><title>http://cds.omdoc.org/urtheories?LF&#45;&gt;http://latin.omdoc.org/foundations/mizar?Mizar</title>
<a class="graphmeta">
<path fill="none" stroke="black" d="M1184.67,-266.566C1326.9,-264.234 2001.81,-252.538 2553.58,-232 2753.5,-224.558 2899.57,-302.166 2990.58,-124 3006.78,-92.2845 2984.59,-67.3671 2951.58,-54 2893.85,-30.6256 2462.76,-21.8192 2326.64,-19.6038"/>
<polygon fill="black" stroke="black" points="2326.67,-16.1039 2316.61,-19.4439 2326.56,-23.103 2326.67,-16.1039"/>
</a>
</g>
<!-- http://cds.omdoc.org/urtheories?LF&#45;&gt;http://latin.omdoc.org/logics/model_theory/kripke?Kripke -->
<g id="edge39" class="edge"><title>http://cds.omdoc.org/urtheories?LF&#45;&gt;http://latin.omdoc.org/logics/model_theory/kripke?Kripke</title>
<a class="graphmeta">
<path fill="none" stroke="black" d="M1184.64,-267.609C1253.54,-267.62 1437.09,-257.759 1535.58,-158 1541.81,-151.682 1545.34,-142.862 1547.31,-134.331"/>
<polygon fill="black" stroke="black" points="1550.79,-134.699 1549.01,-124.255 1543.89,-133.529 1550.79,-134.699"/>
</a>
</g>
<!-- http://cds.omdoc.org/urtheories?LF&#45;&gt;http://latin.omdoc.org/logics/proof_theory?IPL -->
<g id="edge57" class="edge"><title>http://cds.omdoc.org/urtheories?LF&#45;&gt;http://latin.omdoc.org/logics/proof_theory?IPL</title>
<a class="graphmeta">
<path fill="none" stroke="black" d="M1130.22,-267.018C990.097,-266.963 356.292,-264.887 275.576,-232 267.71,-228.795 260.378,-223.377 254.152,-217.661"/>
<polygon fill="black" stroke="black" points="256.447,-215.006 246.902,-210.407 251.496,-219.954 256.447,-215.006"/>
</a>
</g>
<!-- http://cds.omdoc.org/urtheories?LF&#45;&gt;http://latin.omdoc.org/logics/proof_theory?Equiv -->
<g id="edge45" class="edge"><title>http://cds.omdoc.org/urtheories?LF&#45;&gt;http://latin.omdoc.org/logics/proof_theory?Equiv</title>
<a class="graphmeta">
<path fill="none" stroke="black" d="M1184.71,-266.357C1401.45,-261.091 2844.92,-223.614 2906.58,-158 2917.9,-145.948 2904.08,-132.9 2887.86,-123.019"/>
<polygon fill="black" stroke="black" points="2889.17,-119.741 2878.74,-117.881 2885.73,-125.839 2889.17,-119.741"/>
</a>
</g>
<!-- http://cds.omdoc.org/urtheories?LF&#45;&gt;http://latin.omdoc.org/logics/proof_theory?IMPExt -->
<g id="edge59" class="edge"><title>http://cds.omdoc.org/urtheories?LF&#45;&gt;http://latin.omdoc.org/logics/proof_theory?IMPExt</title>
<a class="graphmeta">
<path fill="none" stroke="black" d="M1184.65,-266.868C1361.43,-265.9 2353.51,-258.791 2653.58,-220 2775.68,-204.215 2830.32,-238.386 2923.58,-158 2930.8,-151.774 2935.43,-142.602 2938.4,-133.746"/>
<polygon fill="black" stroke="black" points="2941.78,-134.628 2941.08,-124.056 2935.04,-132.758 2941.78,-134.628"/>
</a>
</g>
<!-- http://cds.omdoc.org/urtheories?LF&#45;&gt;http://latin.omdoc.org/logics/proof_theory?Base -->
<g id="edge51" class="edge"><title>http://cds.omdoc.org/urtheories?LF&#45;&gt;http://latin.omdoc.org/logics/proof_theory?Base</title>
<a class="graphmeta">
<path fill="none" stroke="black" d="M1131.64,-262.975C1053.8,-250.896 821.999,-214.928 730.918,-200.794"/>
<polygon fill="black" stroke="black" points="731.197,-197.296 720.779,-199.221 730.124,-204.213 731.197,-197.296"/>
</a>
</g>
<!-- http://cds.omdoc.org/urtheories?LF&#45;&gt;http://latin.omdoc.org/logics/syntax?IMP -->
<g id="edge41" class="edge"><title>http://cds.omdoc.org/urtheories?LF&#45;&gt;http://latin.omdoc.org/logics/syntax?IMP</title>
<a class="graphmeta">
<path fill="none" stroke="black" d="M1149.63,-250.662C1145.29,-241.733 1139.82,-230.475 1134.94,-220.424"/>
<polygon fill="black" stroke="black" points="1138.01,-218.737 1130.49,-211.273 1131.71,-221.797 1138.01,-218.737"/>
</a>
</g>
</g>
</svg>
