<?xml version="1.0" encoding="UTF-8" standalone="no"?>
<!DOCTYPE svg PUBLIC "-//W3C//DTD SVG 1.1//EN"
 "http://www.w3.org/Graphics/SVG/1.1/DTD/svg11.dtd">
<!-- Generated by graphviz version 2.28.0 (20110507.0327)
 -->
<!-- Title: MMT Pages: 1 -->
<svg width="1077pt" height="368pt"
 viewBox="0.00 0.00 1077.00 368.00" xmlns="http://www.w3.org/2000/svg" xmlns:xlink="http://www.w3.org/1999/xlink">
<g id="graph1" class="graph" transform="scale(1 1) rotate(0) translate(4 364)">
<title>MMT</title>
<polygon fill="white" stroke="white" points="-4,5 -4,-364 1074,-364 1074,5 -4,5"/>
<g id="graph2" class="cluster"><title>cluster_local</title>
<polygon fill="none" stroke="black" points="425,-168 425,-220 519,-220 519,-168 425,-168"/>
</g>
<!-- http://latin.omdoc.org/logics/proof_theory?IMPExt -->
<g id="node2" class="node"><title>http://latin.omdoc.org/logics/proof_theory?IMPExt</title>
<a xlink:href="http://latin.omdoc.org/logics/proof_theory?IMPExt" class="graphtheory">
<ellipse fill="none" stroke="black" cx="472" cy="-194" rx="38.4949" ry="18"/>
<text text-anchor="middle" x="472" y="-190.3" font-family="Times New Roman,serif" font-size="14.00">IMPExt</text>
</a>
</g>
<!-- http://latin.omdoc.org/foundations/mizar?PLPFExtMizarView -->
<g id="node3" class="node"><title>http://latin.omdoc.org/foundations/mizar?PLPFExtMizarView</title>
<a xlink:href="http://latin.omdoc.org/foundations/mizar?PLPFExtMizarView" class="graphtheory">
<ellipse fill="gray" stroke="black" cx="249" cy="-18" rx="83.2892" ry="18"/>
<text text-anchor="middle" x="249" y="-14.3" font-family="Times New Roman,serif" font-size="14.00">PLPFExtMizarView</text>
</a>
</g>
<!-- http://latin.omdoc.org/logics/proof_theory?IMPExt&#45;&gt;http://latin.omdoc.org/foundations/mizar?PLPFExtMizarView -->
<g id="edge3" class="edge"><title>http://latin.omdoc.org/logics/proof_theory?IMPExt&#45;&gt;http://latin.omdoc.org/foundations/mizar?PLPFExtMizarView</title>
<a xlink:href="http://latin.omdoc.org/foundations/mizar?PLPFExtMizarView?[http://latin.omdoc.org/logics/proof_theory?IMPExt]" class="graphstructure">
<path fill="none" stroke="black" d="M476.159,-175.833C482.109,-146.644 489.169,-87.2815 458,-54 441.678,-36.5715 388.173,-27.8188 339.389,-23.4246"/>
<polygon fill="black" stroke="black" points="339.647,-19.934 329.387,-22.577 339.056,-26.909 339.647,-19.934"/>
</a>
<a xlink:href="http://latin.omdoc.org/foundations/mizar?PLPFExtMizarView?[http://latin.omdoc.org/logics/proof_theory?IMPExt]" class="[http://latin.omdoc.org/logics/proof_theory?IMPExt]">
<text text-anchor="middle" x="629.5" y="-102.3" font-family="Times New Roman,serif" font-size="14.00">[http://latin.omdoc.org/logics/proof_theory?IMPExt]</text>
</a>
</g>
<!-- http://latin.omdoc.org/foundations/mizar?IPLPFExtMizarView -->
<g id="node5" class="node"><title>http://latin.omdoc.org/foundations/mizar?IPLPFExtMizarView</title>
<a xlink:href="http://latin.omdoc.org/foundations/mizar?IPLPFExtMizarView" class="graphtheory">
<ellipse fill="gray" stroke="black" cx="177" cy="-106" rx="86.1637" ry="18"/>
<text text-anchor="middle" x="177" y="-102.3" font-family="Times New Roman,serif" font-size="14.00">IPLPFExtMizarView</text>
</a>
</g>
<!-- http://latin.omdoc.org/logics/proof_theory?IMPExt&#45;&gt;http://latin.omdoc.org/foundations/mizar?IPLPFExtMizarView -->
<g id="edge5" class="edge"><title>http://latin.omdoc.org/logics/proof_theory?IMPExt&#45;&gt;http://latin.omdoc.org/foundations/mizar?IPLPFExtMizarView</title>
<a xlink:href="http://latin.omdoc.org/foundations/mizar?IPLPFExtMizarView?[http://latin.omdoc.org/logics/proof_theory?IMPExt]" class="graphstructure">
<path fill="none" stroke="black" d="M451.936,-178.614C445,-174.4 436.962,-170.308 429,-168 414.796,-163.883 173.259,-168.651 163,-158 156.639,-151.395 157.372,-142.181 160.632,-133.399"/>
<polygon fill="black" stroke="black" points="163.876,-134.725 164.945,-124.184 157.536,-131.757 163.876,-134.725"/>
</a>
<a xlink:href="http://latin.omdoc.org/foundations/mizar?IPLPFExtMizarView?[http://latin.omdoc.org/logics/proof_theory?IMPExt]" class="[http://latin.omdoc.org/logics/proof_theory?IMPExt]">
<text text-anchor="middle" x="310.5" y="-146.3" font-family="Times New Roman,serif" font-size="14.00">[http://latin.omdoc.org/logics/proof_theory?IMPExt]</text>
</a>
</g>
<!-- http://latin.omdoc.org/foundations/mizar?Mizar -->
<g id="node7" class="node"><title>http://latin.omdoc.org/foundations/mizar?Mizar</title>
<a xlink:href="http://latin.omdoc.org/foundations/mizar?Mizar" class="graphtheory">
<ellipse fill="gray" stroke="black" cx="877" cy="-18" rx="31.2965" ry="18"/>
<text text-anchor="middle" x="877" y="-14.3" font-family="Times New Roman,serif" font-size="14.00">Mizar</text>
</a>
</g>
<!-- http://latin.omdoc.org/logics/proof_theory?IMPExt&#45;&gt;http://latin.omdoc.org/foundations/mizar?Mizar -->
<g id="edge7" class="edge"><title>http://latin.omdoc.org/logics/proof_theory?IMPExt&#45;&gt;http://latin.omdoc.org/foundations/mizar?Mizar</title>
<a xlink:href="http://latin.omdoc.org/foundations/mizar?IMPPFExtMizarView" class="graphview">
<path fill="none" stroke="black" d="M510.31,-191.753C571.479,-188.229 693.24,-174.823 781,-124 790.329,-118.597 831.583,-71.729 856.878,-42.465"/>
<polygon fill="black" stroke="black" points="859.671,-44.5861 863.55,-34.7269 854.369,-40.0151 859.671,-44.5861"/>
</a>
<a xlink:href="http://latin.omdoc.org/foundations/mizar?IMPPFExtMizarView" class="IMPPFExtMizarView">
<text text-anchor="middle" x="877.5" y="-102.3" font-family="Times New Roman,serif" font-size="14.00">IMPPFExtMizarView</text>
</a>
</g>
<!-- http://latin.omdoc.org/logics/proof_theory?IPLExt -->
<g id="node9" class="node"><title>http://latin.omdoc.org/logics/proof_theory?IPLExt</title>
<a xlink:href="http://latin.omdoc.org/logics/proof_theory?IPLExt" class="graphtheory">
<ellipse fill="gray" stroke="black" cx="36" cy="-106" rx="36.096" ry="18"/>
<text text-anchor="middle" x="36" y="-102.3" font-family="Times New Roman,serif" font-size="14.00">IPLExt</text>
</a>
</g>
<!-- http://latin.omdoc.org/logics/proof_theory?IMPExt&#45;&gt;http://latin.omdoc.org/logics/proof_theory?IPLExt -->
<g id="edge9" class="edge"><title>http://latin.omdoc.org/logics/proof_theory?IMPExt&#45;&gt;http://latin.omdoc.org/logics/proof_theory?IPLExt</title>
<a class="graphinclude">
<path fill="none" stroke="black" d="M451.938,-178.609C445.001,-174.395 436.963,-170.303 429,-168 370.47,-151.071 214.452,-171.337 155,-158 124.351,-151.124 91.7028,-136.558 68.3713,-124.746"/>
<polygon fill="black" stroke="black" points="69.778,-121.533 59.2877,-120.048 66.5622,-127.751 69.778,-121.533"/>
</a>
</g>
<!-- http://latin.omdoc.org/logics/proof_theory?IPLExt&#45;&gt;http://latin.omdoc.org/foundations/mizar?PLPFExtMizarView -->
<g id="edge25" class="edge"><title>http://latin.omdoc.org/logics/proof_theory?IPLExt&#45;&gt;http://latin.omdoc.org/foundations/mizar?PLPFExtMizarView</title>
<a xlink:href="http://latin.omdoc.org/foundations/mizar?PLPFExtMizarView?[http://latin.omdoc.org/logics/proof_theory?IPLExt]" class="graphstructure">
<path fill="none" stroke="black" d="M26.888,-88.494C22.1837,-77.5151 18.9386,-63.4319 27,-54 43.9389,-34.1814 103.689,-25.5165 156.938,-21.7611"/>
<polygon fill="black" stroke="black" points="157.389,-25.2392 167.139,-21.0945 156.932,-18.2541 157.389,-25.2392"/>
</a>
<a xlink:href="http://latin.omdoc.org/foundations/mizar?PLPFExtMizarView?[http://latin.omdoc.org/logics/proof_theory?IPLExt]" class="[http://latin.omdoc.org/logics/proof_theory?IPLExt]">
<text text-anchor="middle" x="172.5" y="-58.3" font-family="Times New Roman,serif" font-size="14.00">[http://latin.omdoc.org/logics/proof_theory?IPLExt]</text>
</a>
</g>
<!-- http://latin.omdoc.org/logics/proof_theory?IPLExt&#45;&gt;http://latin.omdoc.org/foundations/mizar?Mizar -->
<g id="edge23" class="edge"><title>http://latin.omdoc.org/logics/proof_theory?IPLExt&#45;&gt;http://latin.omdoc.org/foundations/mizar?Mizar</title>
<a xlink:href="http://latin.omdoc.org/foundations/mizar?IPLPFExtMizarView" class="graphview">
<path fill="none" stroke="black" d="M62.8687,-93.6533C69.0561,-91.4402 75.6784,-89.3809 82,-88 184.77,-65.551 213.173,-78.779 318,-70 512.263,-53.7309 744.253,-31.7469 836.393,-22.9132"/>
<polygon fill="black" stroke="black" points="836.793,-26.391 846.413,-21.9515 836.124,-19.423 836.793,-26.391"/>
</a>
<a xlink:href="http://latin.omdoc.org/foundations/mizar?IPLPFExtMizarView" class="IPLPFExtMizarView">
<text text-anchor="middle" x="546.5" y="-58.3" font-family="Times New Roman,serif" font-size="14.00">IPLPFExtMizarView</text>
</a>
</g>
<!-- http://latin.omdoc.org/logics/proof_theory?IMP -->
<g id="node11" class="node"><title>http://latin.omdoc.org/logics/proof_theory?IMP</title>
<a xlink:href="http://latin.omdoc.org/logics/proof_theory?IMP" class="graphtheory">
<ellipse fill="gray" stroke="black" cx="527" cy="-268" rx="27" ry="18"/>
<text text-anchor="middle" x="527" y="-264.3" font-family="Times New Roman,serif" font-size="14.00">IMP</text>
</a>
</g>
<!-- http://latin.omdoc.org/logics/proof_theory?IMP&#45;&gt;http://latin.omdoc.org/logics/proof_theory?IMPExt -->
<g id="edge11" class="edge"><title>http://latin.omdoc.org/logics/proof_theory?IMP&#45;&gt;http://latin.omdoc.org/logics/proof_theory?IMPExt</title>
<a class="graphinclude">
<path fill="none" stroke="black" d="M515.336,-251.731C508.17,-242.35 498.828,-230.12 490.653,-219.419"/>
<polygon fill="black" stroke="black" points="493.263,-217.07 484.412,-211.248 487.701,-221.319 493.263,-217.07"/>
</a>
</g>
<!-- http://latin.omdoc.org/logics/proof_theory?IMP&#45;&gt;http://latin.omdoc.org/foundations/mizar?Mizar -->
<g id="edge21" class="edge"><title>http://latin.omdoc.org/logics/proof_theory?IMP&#45;&gt;http://latin.omdoc.org/foundations/mizar?Mizar</title>
<a xlink:href="http://latin.omdoc.org/foundations/mizar?IMPPFMizarView" class="graphview">
<path fill="none" stroke="black" d="M554.223,-267.323C630.468,-266.568 846.515,-252.695 938,-124 957.95,-95.936 927.616,-60.9432 903.038,-39.2853"/>
<polygon fill="black" stroke="black" points="905.222,-36.5479 895.332,-32.7478 900.694,-41.8859 905.222,-36.5479"/>
</a>
<a xlink:href="http://latin.omdoc.org/foundations/mizar?IMPPFMizarView" class="IMPPFMizarView">
<text text-anchor="middle" x="973" y="-146.3" font-family="Times New Roman,serif" font-size="14.00">IMPPFMizarView</text>
</a>
</g>
<!-- http://cds.omdoc.org/urtheories?LF -->
<g id="node13" class="node"><title>http://cds.omdoc.org/urtheories?LF</title>
<a xlink:href="http://cds.omdoc.org/urtheories?LF" class="graphtheory">
<ellipse fill="gray" stroke="black" cx="492" cy="-342" rx="27" ry="18"/>
<text text-anchor="middle" x="492" y="-338.3" font-family="Times New Roman,serif" font-size="14.00">LF</text>
</a>
</g>
<!-- http://cds.omdoc.org/urtheories?LF&#45;&gt;http://latin.omdoc.org/logics/proof_theory?IMPExt -->
<g id="edge13" class="edge"><title>http://cds.omdoc.org/urtheories?LF&#45;&gt;http://latin.omdoc.org/logics/proof_theory?IMPExt</title>
<a class="graphmeta">
<path fill="none" stroke="black" d="M489.667,-323.966C486.253,-299.045 479.859,-252.374 475.772,-222.537"/>
<polygon fill="black" stroke="black" points="479.205,-221.81 474.381,-212.378 472.27,-222.76 479.205,-221.81"/>
</a>
</g>
<!-- http://cds.omdoc.org/urtheories?LF&#45;&gt;http://latin.omdoc.org/foundations/mizar?Mizar -->
<g id="edge17" class="edge"><title>http://cds.omdoc.org/urtheories?LF&#45;&gt;http://latin.omdoc.org/foundations/mizar?Mizar</title>
<a class="graphmeta">
<path fill="none" stroke="black" d="M519.056,-340.509C633.131,-338.086 1069,-325.154 1069,-269 1069,-269 1069,-269 1069,-105 1069,-39.4979 974.775,-23.5644 918.342,-19.8955"/>
<polygon fill="black" stroke="black" points="918.452,-16.3964 908.275,-19.344 918.069,-23.3859 918.452,-16.3964"/>
</a>
</g>
<!-- http://cds.omdoc.org/urtheories?LF&#45;&gt;http://latin.omdoc.org/logics/proof_theory?IPLExt -->
<g id="edge15" class="edge"><title>http://cds.omdoc.org/urtheories?LF&#45;&gt;http://latin.omdoc.org/logics/proof_theory?IPLExt</title>
<a class="graphmeta">
<path fill="none" stroke="black" d="M469.312,-332.196C408.24,-308.099 236.064,-237.542 104,-158 89.4153,-149.216 74.1649,-137.99 61.8112,-128.308"/>
<polygon fill="black" stroke="black" points="63.7682,-125.393 53.7652,-121.901 59.4076,-130.869 63.7682,-125.393"/>
</a>
</g>
<!-- http://cds.omdoc.org/urtheories?LF&#45;&gt;http://latin.omdoc.org/logics/proof_theory?IMP -->
<g id="edge19" class="edge"><title>http://cds.omdoc.org/urtheories?LF&#45;&gt;http://latin.omdoc.org/logics/proof_theory?IMP</title>
<a class="graphmeta">
<path fill="none" stroke="black" d="M499.942,-324.662C504.283,-315.733 509.755,-304.475 514.641,-294.424"/>
<polygon fill="black" stroke="black" points="517.865,-295.797 519.089,-285.273 511.57,-292.737 517.865,-295.797"/>
</a>
</g>
</g>
</svg>
