<?xml version="1.0" encoding="UTF-8" standalone="no"?>
<!DOCTYPE svg PUBLIC "-//W3C//DTD SVG 1.1//EN"
 "http://www.w3.org/Graphics/SVG/1.1/DTD/svg11.dtd">
<!-- Generated by graphviz version 2.28.0 (20110507.0327)
 -->
<!-- Title: MMT Pages: 1 -->
<svg
 viewBox="0.00 0.00 152.00 204.00" xmlns="http://www.w3.org/2000/svg" xmlns:xlink="http://www.w3.org/1999/xlink">
<g id="graph1" class="graph" transform="scale(1 1) rotate(0) translate(4 200)">
<title>MMT</title>
<polygon fill="white" stroke="white" points="-4,5 -4,-200 149,-200 149,5 -4,5"/>
<g id="graph2" class="cluster"><title>cluster_local</title>
<polygon fill="none" stroke="black" points="8,-8 8,-60 136,-60 136,-8 8,-8"/>
</g>
<!-- http://latin.omdoc.org/logics/proof_theory?LeibnizHOL -->
<g id="node2" class="node"><title>http://latin.omdoc.org/logics/proof_theory?LeibnizHOL</title>
<a xlink:href="http://latin.omdoc.org/logics/proof_theory?LeibnizHOL" class="graphtheory">
<ellipse fill="none" stroke="black" cx="72" cy="-34" rx="55.3436" ry="18"/>
<text text-anchor="middle" x="72" y="-30.3" font-family="Times New Roman,serif" font-size="14.00">LeibnizHOL</text>
</a>
</g>
<!-- http://latin.omdoc.org/logics/syntax?HOL -->
<g id="node3" class="node"><title>http://latin.omdoc.org/logics/syntax?HOL</title>
<a xlink:href="http://latin.omdoc.org/logics/syntax?HOL" class="graphtheory">
<ellipse fill="gray" stroke="black" cx="101" cy="-106" rx="29.3722" ry="18"/>
<text text-anchor="middle" x="101" y="-102.3" font-family="Times New Roman,serif" font-size="14.00">HOL</text>
</a>
</g>
<!-- http://latin.omdoc.org/logics/syntax?HOL&#45;&gt;http://latin.omdoc.org/logics/proof_theory?LeibnizHOL -->
<g id="edge3" class="edge"><title>http://latin.omdoc.org/logics/syntax?HOL&#45;&gt;http://latin.omdoc.org/logics/proof_theory?LeibnizHOL</title>
<a class="graphinclude">
<path fill="none" stroke="black" d="M94.1274,-88.411C90.7817,-80.3352 86.6786,-70.4312 82.9184,-61.3547"/>
<polygon fill="black" stroke="black" points="86.0857,-59.8552 79.0247,-51.9562 79.6187,-62.5344 86.0857,-59.8552"/>
</a>
</g>
<!-- http://cds.omdoc.org/urtheories?LF -->
<g id="node5" class="node"><title>http://cds.omdoc.org/urtheories?LF</title>
<a xlink:href="http://cds.omdoc.org/urtheories?LF" class="graphtheory">
<ellipse fill="gray" stroke="black" cx="72" cy="-178" rx="27" ry="18"/>
<text text-anchor="middle" x="72" y="-174.3" font-family="Times New Roman,serif" font-size="14.00">LF</text>
</a>
</g>
<!-- http://cds.omdoc.org/urtheories?LF&#45;&gt;http://latin.omdoc.org/logics/proof_theory?LeibnizHOL -->
<g id="edge5" class="edge"><title>http://cds.omdoc.org/urtheories?LF&#45;&gt;http://latin.omdoc.org/logics/proof_theory?LeibnizHOL</title>
<a class="graphmeta">
<path fill="none" stroke="black" d="M68.3462,-159.908C66.3242,-149.569 64.0192,-136.09 63,-124 61.6559,-108.057 61.6559,-103.943 63,-88 63.7166,-79.4991 65.0689,-70.3119 66.5116,-62.0122"/>
<polygon fill="black" stroke="black" points="69.9691,-62.5623 68.3462,-52.0925 63.0858,-61.2892 69.9691,-62.5623"/>
</a>
</g>
<!-- http://cds.omdoc.org/urtheories?LF&#45;&gt;http://latin.omdoc.org/logics/syntax?HOL -->
<g id="edge7" class="edge"><title>http://cds.omdoc.org/urtheories?LF&#45;&gt;http://latin.omdoc.org/logics/syntax?HOL</title>
<a class="graphmeta">
<path fill="none" stroke="black" d="M78.8726,-160.411C82.2183,-152.335 86.3214,-142.431 90.0816,-133.355"/>
<polygon fill="black" stroke="black" points="93.3813,-134.534 93.9753,-123.956 86.9143,-131.855 93.3813,-134.534"/>
</a>
</g>
</g>
</svg>
