<?xml version="1.0" encoding="UTF-8" standalone="no"?>
<!DOCTYPE svg PUBLIC "-//W3C//DTD SVG 1.1//EN"
 "http://www.w3.org/Graphics/SVG/1.1/DTD/svg11.dtd">
<!-- Generated by graphviz version 2.28.0 (20110507.0327)
 -->
<!-- Title: MMT Pages: 1 -->
<svg
 viewBox="0.00 0.00 161.00 204.00" xmlns="http://www.w3.org/2000/svg" xmlns:xlink="http://www.w3.org/1999/xlink">
<g id="graph1" class="graph" transform="scale(1 1) rotate(0) translate(4 200)">
<title>MMT</title>
<polygon fill="white" stroke="white" points="-4,5 -4,-200 158,-200 158,5 -4,5"/>
<g id="graph2" class="cluster"><title>cluster_local</title>
<polygon fill="none" stroke="black" points="8,-8 8,-60 116,-60 116,-8 8,-8"/>
</g>
<!-- http://latin.omdoc.org/logics/proof_theory?Linear_Pf -->
<g id="node2" class="node"><title>http://latin.omdoc.org/logics/proof_theory?Linear_Pf</title>
<a xlink:href="http://latin.omdoc.org/logics/proof_theory?Linear_Pf" class="graphtheory">
<ellipse fill="none" stroke="black" cx="62" cy="-34" rx="46.2191" ry="18"/>
<text text-anchor="middle" x="62" y="-30.3" font-family="Times New Roman,serif" font-size="14.00">Linear_Pf</text>
</a>
</g>
<!-- http://latin.omdoc.org/logics/syntax?Linear_Syn -->
<g id="node3" class="node"><title>http://latin.omdoc.org/logics/syntax?Linear_Syn</title>
<a xlink:href="http://latin.omdoc.org/logics/syntax?Linear_Syn" class="graphtheory">
<ellipse fill="gray" stroke="black" cx="102" cy="-106" rx="51.4931" ry="18"/>
<text text-anchor="middle" x="102" y="-102.3" font-family="Times New Roman,serif" font-size="14.00">Linear_Syn</text>
</a>
</g>
<!-- http://latin.omdoc.org/logics/syntax?Linear_Syn&#45;&gt;http://latin.omdoc.org/logics/proof_theory?Linear_Pf -->
<g id="edge3" class="edge"><title>http://latin.omdoc.org/logics/syntax?Linear_Syn&#45;&gt;http://latin.omdoc.org/logics/proof_theory?Linear_Pf</title>
<a class="graphinclude">
<path fill="none" stroke="black" d="M92.3171,-88.055C87.6004,-79.8006 81.8294,-69.7014 76.593,-60.5378"/>
<polygon fill="black" stroke="black" points="79.594,-58.7349 71.5937,-51.789 73.5163,-62.2079 79.594,-58.7349"/>
</a>
</g>
<!-- http://cds.omdoc.org/urtheories?LF -->
<g id="node5" class="node"><title>http://cds.omdoc.org/urtheories?LF</title>
<a xlink:href="http://cds.omdoc.org/urtheories?LF" class="graphtheory">
<ellipse fill="gray" stroke="black" cx="62" cy="-178" rx="27" ry="18"/>
<text text-anchor="middle" x="62" y="-174.3" font-family="Times New Roman,serif" font-size="14.00">LF</text>
</a>
</g>
<!-- http://cds.omdoc.org/urtheories?LF&#45;&gt;http://latin.omdoc.org/logics/proof_theory?Linear_Pf -->
<g id="edge5" class="edge"><title>http://cds.omdoc.org/urtheories?LF&#45;&gt;http://latin.omdoc.org/logics/proof_theory?Linear_Pf</title>
<a class="graphmeta">
<path fill="none" stroke="black" d="M53.7163,-160.774C48.9564,-150.523 43.4497,-136.833 41,-124 37.9999,-108.284 37.9999,-103.716 41,-88 42.734,-78.9162 45.9998,-69.4028 49.4482,-60.9836"/>
<polygon fill="black" stroke="black" points="52.7101,-62.2595 53.4994,-51.6941 46.2937,-59.4613 52.7101,-62.2595"/>
</a>
</g>
<!-- http://cds.omdoc.org/urtheories?LF&#45;&gt;http://latin.omdoc.org/logics/syntax?Linear_Syn -->
<g id="edge7" class="edge"><title>http://cds.omdoc.org/urtheories?LF&#45;&gt;http://latin.omdoc.org/logics/syntax?Linear_Syn</title>
<a class="graphmeta">
<path fill="none" stroke="black" d="M71.2773,-160.765C75.9854,-152.525 81.8191,-142.317 87.1339,-133.016"/>
<polygon fill="black" stroke="black" points="90.2923,-134.543 92.2149,-124.124 84.2146,-131.07 90.2923,-134.543"/>
</a>
</g>
</g>
</svg>
