<?xml version="1.0" encoding="UTF-8" standalone="no"?>
<!DOCTYPE svg PUBLIC "-//W3C//DTD SVG 1.1//EN"
 "http://www.w3.org/Graphics/SVG/1.1/DTD/svg11.dtd">
<!-- Generated by graphviz version 2.28.0 (20110507.0327)
 -->
<!-- Title: MMT Pages: 1 -->
<svg
 viewBox="0.00 0.00 1028.28 382.00" xmlns="http://www.w3.org/2000/svg" xmlns:xlink="http://www.w3.org/1999/xlink">
<g id="graph1" class="graph" transform="scale(1 1) rotate(0) translate(4 378)">
<title>MMT</title>
<polygon fill="white" stroke="white" points="-4,5 -4,-378 1025.28,-378 1025.28,5 -4,5"/>
<g id="graph2" class="cluster"><title>cluster_local</title>
<polygon fill="none" stroke="black" points="273,-168 273,-308 367,-308 367,-168 273,-168"/>
</g>
<!-- http://latin.omdoc.org/logics/proof_theory?MPL -->
<g id="node2" class="node"><title>http://latin.omdoc.org/logics/proof_theory?MPL</title>
<a xlink:href="http://latin.omdoc.org/logics/proof_theory?MPL" class="graphtheory">
<ellipse fill="none" stroke="black" cx="310" cy="-282" rx="29.3722" ry="18"/>
<text text-anchor="middle" x="310" y="-278.3" font-family="Times New Roman,serif" font-size="14.00">MPL</text>
</a>
</g>
<!-- http://latin.omdoc.org/logics/proof_theory?CPL -->
<g id="node3" class="node"><title>http://latin.omdoc.org/logics/proof_theory?CPL</title>
<a xlink:href="http://latin.omdoc.org/logics/proof_theory?CPL" class="graphtheory">
<ellipse fill="none" stroke="black" cx="331" cy="-194" rx="27.4223" ry="18"/>
<text text-anchor="middle" x="331" y="-190.3" font-family="Times New Roman,serif" font-size="14.00">CPL</text>
</a>
</g>
<!-- http://latin.omdoc.org/logics/proof_theory?MPL&#45;&gt;http://latin.omdoc.org/logics/proof_theory?CPL -->
<g id="edge3" class="edge"><title>http://latin.omdoc.org/logics/proof_theory?MPL&#45;&gt;http://latin.omdoc.org/logics/proof_theory?CPL</title>
<a xlink:href="http://latin.omdoc.org/logics/proof_theory?MPL-CPL" class="graphview">
<path fill="none" stroke="black" d="M314.149,-264.009C317.083,-251.995 321.076,-235.641 324.439,-221.869"/>
<polygon fill="black" stroke="black" points="327.888,-222.5 326.86,-211.956 321.087,-220.84 327.888,-222.5"/>
</a>
<a xlink:href="http://latin.omdoc.org/logics/proof_theory?MPL-CPL" class="MPL&#45;CPL">
<text text-anchor="middle" x="353" y="-234.3" font-family="Times New Roman,serif" font-size="14.00">MPL&#45;CPL</text>
</a>
</g>
<!-- http://latin.omdoc.org/logics/proof_theory?MLPf -->
<g id="node5" class="node"><title>http://latin.omdoc.org/logics/proof_theory?MLPf</title>
<a xlink:href="http://latin.omdoc.org/logics/proof_theory?MLPf" class="graphtheory">
<ellipse fill="gray" stroke="black" cx="233" cy="-194" rx="32.2457" ry="18"/>
<text text-anchor="middle" x="233" y="-190.3" font-family="Times New Roman,serif" font-size="14.00">MLPf</text>
</a>
</g>
<!-- http://latin.omdoc.org/logics/proof_theory?MPL&#45;&gt;http://latin.omdoc.org/logics/proof_theory?MLPf -->
<g id="edge5" class="edge"><title>http://latin.omdoc.org/logics/proof_theory?MPL&#45;&gt;http://latin.omdoc.org/logics/proof_theory?MLPf</title>
<a class="graphinclude">
<path fill="none" stroke="black" d="M296.588,-266.02C284.699,-252.742 267.159,-233.151 253.509,-217.907"/>
<polygon fill="black" stroke="black" points="256.055,-215.503 246.777,-210.387 250.84,-220.172 256.055,-215.503"/>
</a>
</g>
<!-- http://latin.omdoc.org/translations/prop_iprop?DN&#45;IPL -->
<g id="node11" class="node"><title>http://latin.omdoc.org/translations/prop_iprop?DN&#45;IPL</title>
<a xlink:href="http://latin.omdoc.org/translations/prop_iprop?DN-IPL" class="graphtheory">
<ellipse fill="gray" stroke="black" cx="586" cy="-106" rx="39.9464" ry="18"/>
<text text-anchor="middle" x="586" y="-102.3" font-family="Times New Roman,serif" font-size="14.00">DN&#45;IPL</text>
</a>
</g>
<!-- http://latin.omdoc.org/logics/proof_theory?CPL&#45;&gt;http://latin.omdoc.org/translations/prop_iprop?DN&#45;IPL -->
<g id="edge11" class="edge"><title>http://latin.omdoc.org/logics/proof_theory?CPL&#45;&gt;http://latin.omdoc.org/translations/prop_iprop?DN&#45;IPL</title>
<a xlink:href="http://latin.omdoc.org/translations/prop_iprop?CPLPF" class="graphview">
<path fill="none" stroke="black" d="M346.209,-178.668C350.982,-174.761 356.459,-170.831 362,-168 364.055,-166.95 477.882,-136.164 542.456,-118.739"/>
<polygon fill="black" stroke="black" points="543.629,-122.048 552.373,-116.064 541.806,-115.289 543.629,-122.048"/>
</a>
<a xlink:href="http://latin.omdoc.org/translations/prop_iprop?CPLPF" class="CPLPF">
<text text-anchor="middle" x="477.5" y="-146.3" font-family="Times New Roman,serif" font-size="14.00">CPLPF</text>
</a>
</g>
<!-- http://latin.omdoc.org/foundations/minimal?Bool -->
<g id="node13" class="node"><title>http://latin.omdoc.org/foundations/minimal?Bool</title>
<a xlink:href="http://latin.omdoc.org/foundations/minimal?Bool" class="graphtheory">
<ellipse fill="gray" stroke="black" cx="862" cy="-106" rx="28.3955" ry="18"/>
<text text-anchor="middle" x="862" y="-102.3" font-family="Times New Roman,serif" font-size="14.00">Bool</text>
</a>
</g>
<!-- http://latin.omdoc.org/logics/proof_theory?CPL&#45;&gt;http://latin.omdoc.org/foundations/minimal?Bool -->
<g id="edge13" class="edge"><title>http://latin.omdoc.org/logics/proof_theory?CPL&#45;&gt;http://latin.omdoc.org/foundations/minimal?Bool</title>
<a xlink:href="http://latin.omdoc.org/logics/soundness?CPL" class="graphview">
<path fill="none" stroke="black" d="M345.202,-178.329C350.1,-174.208 355.9,-170.241 362,-168 402.792,-153.012 711.702,-171.534 753,-158 764.833,-154.122 765.055,-147.939 776,-142 792.544,-133.023 811.887,-124.954 828.035,-118.832"/>
<polygon fill="black" stroke="black" points="829.461,-122.036 837.622,-115.281 827.029,-115.472 829.461,-122.036"/>
</a>
<a xlink:href="http://latin.omdoc.org/logics/soundness?CPL" class="CPL">
<text text-anchor="middle" x="789.5" y="-146.3" font-family="Times New Roman,serif" font-size="14.00">CPL</text>
</a>
</g>
<!-- http://latin.omdoc.org/foundations/mizar?PLPFExtMizarView -->
<g id="node15" class="node"><title>http://latin.omdoc.org/foundations/mizar?PLPFExtMizarView</title>
<a xlink:href="http://latin.omdoc.org/foundations/mizar?PLPFExtMizarView" class="graphtheory">
<ellipse fill="gray" stroke="black" cx="168" cy="-106" rx="83.2892" ry="18"/>
<text text-anchor="middle" x="168" y="-102.3" font-family="Times New Roman,serif" font-size="14.00">PLPFExtMizarView</text>
</a>
</g>
<!-- http://latin.omdoc.org/logics/proof_theory?CPL&#45;&gt;http://latin.omdoc.org/foundations/mizar?PLPFExtMizarView -->
<g id="edge15" class="edge"><title>http://latin.omdoc.org/logics/proof_theory?CPL&#45;&gt;http://latin.omdoc.org/foundations/mizar?PLPFExtMizarView</title>
<a xlink:href="http://latin.omdoc.org/foundations/mizar?PLPFExtMizarView?[http://latin.omdoc.org/logics/proof_theory?CPL]" class="graphstructure">
<path fill="none" stroke="black" d="M316.56,-178.672C311.43,-174.462 305.344,-170.357 299,-168 277.415,-159.98 107.885,-174.671 92,-158 79.651,-145.04 92.8893,-133.61 111.586,-124.873"/>
<polygon fill="black" stroke="black" points="112.984,-128.082 120.8,-120.929 110.229,-121.647 112.984,-128.082"/>
</a>
<a xlink:href="http://latin.omdoc.org/foundations/mizar?PLPFExtMizarView?[http://latin.omdoc.org/logics/proof_theory?CPL]" class="[http://latin.omdoc.org/logics/proof_theory?CPL]">
<text text-anchor="middle" x="230.5" y="-146.3" font-family="Times New Roman,serif" font-size="14.00">[http://latin.omdoc.org/logics/proof_theory?CPL]</text>
</a>
</g>
<!-- http://latin.omdoc.org/foundations/mizar?Mizar -->
<g id="node17" class="node"><title>http://latin.omdoc.org/foundations/mizar?Mizar</title>
<a xlink:href="http://latin.omdoc.org/foundations/mizar?Mizar" class="graphtheory">
<ellipse fill="gray" stroke="black" cx="514" cy="-18" rx="31.2965" ry="18"/>
<text text-anchor="middle" x="514" y="-14.3" font-family="Times New Roman,serif" font-size="14.00">Mizar</text>
</a>
</g>
<!-- http://latin.omdoc.org/logics/proof_theory?CPL&#45;&gt;http://latin.omdoc.org/foundations/mizar?Mizar -->
<g id="edge17" class="edge"><title>http://latin.omdoc.org/logics/proof_theory?CPL&#45;&gt;http://latin.omdoc.org/foundations/mizar?Mizar</title>
<a xlink:href="http://latin.omdoc.org/foundations/mizar?CPLPFMizarView" class="graphview">
<path fill="none" stroke="black" d="M348.518,-179.759C355.597,-173.728 363.401,-166.123 369,-158 388.016,-130.411 375.178,-113.428 397,-88 419.061,-62.2936 453.203,-43.7108 478.922,-32.351"/>
<polygon fill="black" stroke="black" points="480.492,-35.4867 488.324,-28.3512 477.751,-29.0454 480.492,-35.4867"/>
</a>
<a xlink:href="http://latin.omdoc.org/foundations/mizar?CPLPFMizarView" class="CPLPFMizarView">
<text text-anchor="middle" x="448.5" y="-102.3" font-family="Times New Roman,serif" font-size="14.00">CPLPFMizarView</text>
</a>
</g>
<!-- http://latin.omdoc.org/logics/proof_theory?PLExt -->
<g id="node19" class="node"><title>http://latin.omdoc.org/logics/proof_theory?PLExt</title>
<a xlink:href="http://latin.omdoc.org/logics/proof_theory?PLExt" class="graphtheory">
<ellipse fill="gray" stroke="black" cx="33" cy="-106" rx="33.1991" ry="18"/>
<text text-anchor="middle" x="33" y="-102.3" font-family="Times New Roman,serif" font-size="14.00">PLExt</text>
</a>
</g>
<!-- http://latin.omdoc.org/logics/proof_theory?CPL&#45;&gt;http://latin.omdoc.org/logics/proof_theory?PLExt -->
<g id="edge19" class="edge"><title>http://latin.omdoc.org/logics/proof_theory?CPL&#45;&gt;http://latin.omdoc.org/logics/proof_theory?PLExt</title>
<a class="graphinclude">
<path fill="none" stroke="black" d="M316.562,-178.666C311.433,-174.455 305.346,-170.351 299,-168 254.15,-151.382 127.751,-177.325 84,-158 70.8046,-152.171 59.1573,-141.261 50.337,-131.022"/>
<polygon fill="black" stroke="black" points="52.907,-128.634 43.8938,-123.065 47.4668,-133.039 52.907,-128.634"/>
</a>
</g>
<!-- http://latin.omdoc.org/logics/syntax?MPL -->
<g id="node7" class="node"><title>http://latin.omdoc.org/logics/syntax?MPL</title>
<a xlink:href="http://latin.omdoc.org/logics/syntax?MPL" class="graphtheory">
<ellipse fill="gray" stroke="black" cx="404" cy="-282" rx="29.3722" ry="18"/>
<text text-anchor="middle" x="404" y="-278.3" font-family="Times New Roman,serif" font-size="14.00">MPL</text>
</a>
</g>
<!-- http://latin.omdoc.org/logics/syntax?MPL&#45;&gt;http://latin.omdoc.org/logics/proof_theory?MPL -->
<g id="edge7" class="edge"><title>http://latin.omdoc.org/logics/syntax?MPL&#45;&gt;http://latin.omdoc.org/logics/proof_theory?MPL</title>
<a class="graphinclude">
<path fill="none" stroke="black" d="M374.717,-282C366.342,-282 357.966,-282 349.591,-282"/>
<polygon fill="black" stroke="black" points="349.375,-278.5 339.375,-282 349.375,-285.5 349.375,-278.5"/>
</a>
</g>
<!-- http://cds.omdoc.org/urtheories?LF -->
<g id="node9" class="node"><title>http://cds.omdoc.org/urtheories?LF</title>
<a xlink:href="http://cds.omdoc.org/urtheories?LF" class="graphtheory">
<ellipse fill="gray" stroke="black" cx="461" cy="-356" rx="27" ry="18"/>
<text text-anchor="middle" x="461" y="-352.3" font-family="Times New Roman,serif" font-size="14.00">LF</text>
</a>
</g>
<!-- http://cds.omdoc.org/urtheories?LF&#45;&gt;http://latin.omdoc.org/logics/proof_theory?MPL -->
<g id="edge9" class="edge"><title>http://cds.omdoc.org/urtheories?LF&#45;&gt;http://latin.omdoc.org/logics/proof_theory?MPL</title>
<a class="graphmeta">
<path fill="none" stroke="black" d="M437.085,-347.594C412.621,-339.538 373.921,-325.446 343,-308 340.271,-306.46 337.515,-304.72 334.819,-302.892"/>
<polygon fill="black" stroke="black" points="336.679,-299.918 326.525,-296.893 332.577,-305.59 336.679,-299.918"/>
</a>
</g>
<!-- http://cds.omdoc.org/urtheories?LF&#45;&gt;http://latin.omdoc.org/logics/proof_theory?CPL -->
<g id="edge25" class="edge"><title>http://cds.omdoc.org/urtheories?LF&#45;&gt;http://latin.omdoc.org/logics/proof_theory?CPL</title>
<a class="graphmeta">
<path fill="none" stroke="black" d="M461.308,-337.66C460.825,-318.083 457.445,-286.088 442,-264 436.571,-256.236 390.982,-229.234 359.944,-211.401"/>
<polygon fill="black" stroke="black" points="361.648,-208.344 351.23,-206.415 358.171,-214.419 361.648,-208.344"/>
</a>
</g>
<!-- http://cds.omdoc.org/urtheories?LF&#45;&gt;http://latin.omdoc.org/logics/proof_theory?MLPf -->
<g id="edge53" class="edge"><title>http://cds.omdoc.org/urtheories?LF&#45;&gt;http://latin.omdoc.org/logics/proof_theory?MLPf</title>
<a class="graphmeta">
<path fill="none" stroke="black" d="M434.416,-351.726C387.544,-345.443 292.89,-330.31 269,-308 245.299,-285.866 237.135,-248.195 234.361,-222.483"/>
<polygon fill="black" stroke="black" points="237.827,-221.935 233.473,-212.276 230.853,-222.542 237.827,-221.935"/>
</a>
</g>
<!-- http://cds.omdoc.org/urtheories?LF&#45;&gt;http://latin.omdoc.org/logics/syntax?MPL -->
<g id="edge43" class="edge"><title>http://cds.omdoc.org/urtheories?LF&#45;&gt;http://latin.omdoc.org/logics/syntax?MPL</title>
<a class="graphmeta">
<path fill="none" stroke="black" d="M448.912,-339.731C441.308,-330.125 431.339,-317.534 422.726,-306.654"/>
<polygon fill="black" stroke="black" points="425.416,-304.413 416.465,-298.745 419.928,-308.758 425.416,-304.413"/>
</a>
</g>
<!-- http://cds.omdoc.org/urtheories?LF&#45;&gt;http://latin.omdoc.org/translations/prop_iprop?DN&#45;IPL -->
<g id="edge51" class="edge"><title>http://cds.omdoc.org/urtheories?LF&#45;&gt;http://latin.omdoc.org/translations/prop_iprop?DN&#45;IPL</title>
<a class="graphmeta">
<path fill="none" stroke="black" d="M484.777,-347.254C498.374,-341.681 514.717,-332.857 525,-320 569.409,-264.477 581.49,-178.093 584.775,-134.356"/>
<polygon fill="black" stroke="black" points="588.279,-134.406 585.434,-124.2 581.293,-133.952 588.279,-134.406"/>
</a>
</g>
<!-- http://cds.omdoc.org/urtheories?LF&#45;&gt;http://latin.omdoc.org/foundations/minimal?Bool -->
<g id="edge45" class="edge"><title>http://cds.omdoc.org/urtheories?LF&#45;&gt;http://latin.omdoc.org/foundations/minimal?Bool</title>
<a class="graphmeta">
<path fill="none" stroke="black" d="M488.125,-354.59C569.791,-352.95 811.908,-345.008 880,-308 960.678,-264.151 1059.57,-214.329 1003,-142 990.395,-125.883 937.132,-116.137 899.81,-111.16"/>
<polygon fill="black" stroke="black" points="900.115,-107.67 889.753,-109.881 899.232,-114.614 900.115,-107.67"/>
</a>
</g>
<!-- http://cds.omdoc.org/urtheories?LF&#45;&gt;http://latin.omdoc.org/foundations/mizar?Mizar -->
<g id="edge55" class="edge"><title>http://cds.omdoc.org/urtheories?LF&#45;&gt;http://latin.omdoc.org/foundations/mizar?Mizar</title>
<a class="graphmeta">
<path fill="none" stroke="black" d="M468.505,-338.536C470.884,-332.772 473.328,-326.192 475,-320 501.608,-221.484 510.277,-99.7687 512.922,-46.33"/>
<polygon fill="black" stroke="black" points="516.42,-46.4385 513.386,-36.2874 509.428,-46.1149 516.42,-46.4385"/>
</a>
</g>
<!-- http://cds.omdoc.org/urtheories?LF&#45;&gt;http://latin.omdoc.org/logics/proof_theory?PLExt -->
<g id="edge47" class="edge"><title>http://cds.omdoc.org/urtheories?LF&#45;&gt;http://latin.omdoc.org/logics/proof_theory?PLExt</title>
<a class="graphmeta">
<path fill="none" stroke="black" d="M433.904,-353.927C390.577,-351.217 304.066,-341.664 240,-308 147.209,-259.242 122.98,-240.25 58,-158 52.2005,-150.659 47.2659,-141.755 43.3518,-133.454"/>
<polygon fill="black" stroke="black" points="46.4718,-131.854 39.2349,-124.116 40.0667,-134.678 46.4718,-131.854"/>
</a>
</g>
<!-- http://latin.omdoc.org/logics/proof_theory?IPL -->
<g id="node21" class="node"><title>http://latin.omdoc.org/logics/proof_theory?IPL</title>
<a xlink:href="http://latin.omdoc.org/logics/proof_theory?IPL" class="graphtheory">
<ellipse fill="gray" stroke="black" cx="619" cy="-282" rx="27" ry="18"/>
<text text-anchor="middle" x="619" y="-278.3" font-family="Times New Roman,serif" font-size="14.00">IPL</text>
</a>
</g>
<!-- http://cds.omdoc.org/urtheories?LF&#45;&gt;http://latin.omdoc.org/logics/proof_theory?IPL -->
<g id="edge57" class="edge"><title>http://cds.omdoc.org/urtheories?LF&#45;&gt;http://latin.omdoc.org/logics/proof_theory?IPL</title>
<a class="graphmeta">
<path fill="none" stroke="black" d="M485.6,-348.464C506.704,-342.414 537.634,-332.48 563,-320 573.301,-314.932 583.966,-308.286 593.191,-302.026"/>
<polygon fill="black" stroke="black" points="595.335,-304.798 601.535,-296.207 591.33,-299.056 595.335,-304.798"/>
</a>
</g>
<!-- http://latin.omdoc.org/logics/proof_theory?TND -->
<g id="node23" class="node"><title>http://latin.omdoc.org/logics/proof_theory?TND</title>
<a xlink:href="http://latin.omdoc.org/logics/proof_theory?TND" class="graphtheory">
<ellipse fill="gray" stroke="black" cx="842" cy="-282" rx="29.3722" ry="18"/>
<text text-anchor="middle" x="842" y="-278.3" font-family="Times New Roman,serif" font-size="14.00">TND</text>
</a>
</g>
<!-- http://cds.omdoc.org/urtheories?LF&#45;&gt;http://latin.omdoc.org/logics/proof_theory?TND -->
<g id="edge49" class="edge"><title>http://cds.omdoc.org/urtheories?LF&#45;&gt;http://latin.omdoc.org/logics/proof_theory?TND</title>
<a class="graphmeta">
<path fill="none" stroke="black" d="M486.59,-350.164C552.243,-337.757 726.906,-304.75 804.244,-290.135"/>
<polygon fill="black" stroke="black" points="805.313,-293.495 814.489,-288.199 804.013,-286.617 805.313,-293.495"/>
</a>
</g>
<!-- http://latin.omdoc.org/logics/proof_theory?PLExt&#45;&gt;http://latin.omdoc.org/foundations/mizar?Mizar -->
<g id="edge41" class="edge"><title>http://latin.omdoc.org/logics/proof_theory?PLExt&#45;&gt;http://latin.omdoc.org/foundations/mizar?Mizar</title>
<a xlink:href="http://latin.omdoc.org/foundations/mizar?PLPFExtMizarView" class="graphview">
<path fill="none" stroke="black" d="M58.1873,-94.1153C63.9675,-91.8782 70.1385,-89.6924 76,-88 218.332,-46.9045 394.194,-28.6022 472.738,-22.0478"/>
<polygon fill="black" stroke="black" points="473.478,-25.4992 483.161,-21.1998 472.91,-18.5223 473.478,-25.4992"/>
</a>
<a xlink:href="http://latin.omdoc.org/foundations/mizar?PLPFExtMizarView" class="PLPFExtMizarView">
<text text-anchor="middle" x="275" y="-58.3" font-family="Times New Roman,serif" font-size="14.00">PLPFExtMizarView</text>
</a>
</g>
<!-- http://latin.omdoc.org/logics/proof_theory?IPL&#45;&gt;http://latin.omdoc.org/logics/proof_theory?CPL -->
<g id="edge21" class="edge"><title>http://latin.omdoc.org/logics/proof_theory?IPL&#45;&gt;http://latin.omdoc.org/logics/proof_theory?CPL</title>
<a class="graphinclude">
<path fill="none" stroke="black" d="M596.454,-271.815C567.916,-260.509 517.04,-241.408 472,-230 423.977,-217.836 408.835,-228.142 362,-212 361.282,-211.752 360.561,-211.489 359.839,-211.212"/>
<polygon fill="black" stroke="black" points="361.105,-207.944 350.552,-207.011 358.22,-214.322 361.105,-207.944"/>
</a>
</g>
<!-- http://latin.omdoc.org/logics/proof_theory?IPL&#45;&gt;http://latin.omdoc.org/translations/prop_iprop?DN&#45;IPL -->
<g id="edge37" class="edge"><title>http://latin.omdoc.org/logics/proof_theory?IPL&#45;&gt;http://latin.omdoc.org/translations/prop_iprop?DN&#45;IPL</title>
<a xlink:href="http://latin.omdoc.org/translations/prop_iprop?IPLPF" class="graphview">
<path fill="none" stroke="black" d="M618.285,-263.58C616.849,-236.952 612.678,-184.72 601,-142 600.216,-139.13 599.243,-136.188 598.174,-133.287"/>
<polygon fill="black" stroke="black" points="601.304,-131.695 594.293,-123.752 594.821,-134.333 601.304,-131.695"/>
</a>
<a xlink:href="http://latin.omdoc.org/translations/prop_iprop?IPLPF" class="IPLPF">
<text text-anchor="middle" x="633" y="-190.3" font-family="Times New Roman,serif" font-size="14.00">IPLPF</text>
</a>
</g>
<!-- http://latin.omdoc.org/logics/proof_theory?IPL&#45;&gt;http://latin.omdoc.org/translations/prop_iprop?DN&#45;IPL -->
<g id="edge39" class="edge"><title>http://latin.omdoc.org/logics/proof_theory?IPL&#45;&gt;http://latin.omdoc.org/translations/prop_iprop?DN&#45;IPL</title>
<a class="graphinclude">
<path fill="none" stroke="black" d="M615.091,-264.03C611.933,-250.089 607.461,-229.81 604,-212 598.87,-185.596 593.759,-155.306 590.302,-134.066"/>
<polygon fill="black" stroke="black" points="593.748,-133.452 588.699,-124.138 586.838,-134.568 593.748,-133.452"/>
</a>
</g>
<!-- http://latin.omdoc.org/logics/proof_theory?IPL&#45;&gt;http://latin.omdoc.org/foundations/minimal?Bool -->
<g id="edge35" class="edge"><title>http://latin.omdoc.org/logics/proof_theory?IPL&#45;&gt;http://latin.omdoc.org/foundations/minimal?Bool</title>
<a xlink:href="http://latin.omdoc.org/logics/soundness?IPL" class="graphview">
<path fill="none" stroke="black" d="M643.769,-274.687C663.462,-269.001 691.224,-259.458 713,-246 720.194,-241.554 799.798,-166.173 839.606,-128.325"/>
<polygon fill="black" stroke="black" points="842.171,-130.717 847.004,-121.288 837.346,-125.645 842.171,-130.717"/>
</a>
<a xlink:href="http://latin.omdoc.org/logics/soundness?IPL" class="IPL">
<text text-anchor="middle" x="807" y="-190.3" font-family="Times New Roman,serif" font-size="14.00">IPL</text>
</a>
</g>
<!-- http://latin.omdoc.org/logics/proof_theory?IPL&#45;&gt;http://latin.omdoc.org/foundations/mizar?Mizar -->
<g id="edge33" class="edge"><title>http://latin.omdoc.org/logics/proof_theory?IPL&#45;&gt;http://latin.omdoc.org/foundations/mizar?Mizar</title>
<a xlink:href="http://latin.omdoc.org/foundations/mizar?IPLPFMizarView" class="graphview">
<path fill="none" stroke="black" d="M630.222,-265.478C639.183,-252.065 651.033,-231.775 656,-212 660.764,-193.034 660.493,-187.032 656,-168 654.858,-163.164 652.677,-162.678 651,-158 640.232,-127.958 654.023,-113.624 635,-88 614.073,-59.8127 577.97,-41.4054 550.632,-30.7504"/>
<polygon fill="black" stroke="black" points="551.594,-27.3741 541.001,-27.1719 549.156,-33.9358 551.594,-27.3741"/>
</a>
<a xlink:href="http://latin.omdoc.org/foundations/mizar?IPLPFMizarView" class="IPLPFMizarView">
<text text-anchor="middle" x="700" y="-146.3" font-family="Times New Roman,serif" font-size="14.00">IPLPFMizarView</text>
</a>
</g>
<!-- http://latin.omdoc.org/logics/proof_theory?TND&#45;&gt;http://latin.omdoc.org/logics/proof_theory?CPL -->
<g id="edge23" class="edge"><title>http://latin.omdoc.org/logics/proof_theory?TND&#45;&gt;http://latin.omdoc.org/logics/proof_theory?CPL</title>
<a class="graphinclude">
<path fill="none" stroke="black" d="M814.318,-276.372C757.786,-266.996 624.953,-245.345 513,-230 446.04,-220.822 426.362,-232.626 362,-212 361.131,-211.721 360.257,-211.418 359.384,-211.093"/>
<polygon fill="black" stroke="black" points="360.727,-207.86 350.169,-206.978 357.873,-214.251 360.727,-207.86"/>
</a>
</g>
<!-- http://latin.omdoc.org/logics/proof_theory?TND&#45;&gt;http://latin.omdoc.org/translations/prop_iprop?DN&#45;IPL -->
<g id="edge31" class="edge"><title>http://latin.omdoc.org/logics/proof_theory?TND&#45;&gt;http://latin.omdoc.org/translations/prop_iprop?DN&#45;IPL</title>
<a xlink:href="http://latin.omdoc.org/translations/prop_iprop?TND" class="graphview">
<path fill="none" stroke="black" d="M840.348,-263.788C836.688,-229.857 826.625,-156.373 807,-142 780.52,-122.607 692.705,-113.566 636.066,-109.661"/>
<polygon fill="black" stroke="black" points="636.083,-106.154 625.875,-108.99 635.623,-113.139 636.083,-106.154"/>
</a>
<a xlink:href="http://latin.omdoc.org/translations/prop_iprop?TND" class="TND">
<text text-anchor="middle" x="847.5" y="-190.3" font-family="Times New Roman,serif" font-size="14.00">TND</text>
</a>
</g>
<!-- http://latin.omdoc.org/logics/proof_theory?TND&#45;&gt;http://latin.omdoc.org/foundations/minimal?Bool -->
<g id="edge29" class="edge"><title>http://latin.omdoc.org/logics/proof_theory?TND&#45;&gt;http://latin.omdoc.org/foundations/minimal?Bool</title>
<a xlink:href="http://latin.omdoc.org/logics/soundness?TND" class="graphview">
<path fill="none" stroke="black" d="M852.182,-265.027C860.162,-251.504 870.623,-231.295 875,-212 880.971,-185.676 875.803,-154.974 870.317,-133.595"/>
<polygon fill="black" stroke="black" points="873.679,-132.619 867.646,-123.909 866.93,-134.48 873.679,-132.619"/>
</a>
<a xlink:href="http://latin.omdoc.org/logics/soundness?TND" class="TND">
<text text-anchor="middle" x="891.5" y="-190.3" font-family="Times New Roman,serif" font-size="14.00">TND</text>
</a>
</g>
<!-- http://latin.omdoc.org/logics/proof_theory?TND&#45;&gt;http://latin.omdoc.org/foundations/mizar?Mizar -->
<g id="edge27" class="edge"><title>http://latin.omdoc.org/logics/proof_theory?TND&#45;&gt;http://latin.omdoc.org/foundations/mizar?Mizar</title>
<a xlink:href="http://latin.omdoc.org/foundations/mizar?TNDMizarView" class="graphview">
<path fill="none" stroke="black" d="M861.327,-268.369C877.936,-256.215 900.643,-236.152 910,-212 919.859,-186.553 899.764,-88.7962 899,-88 852.065,-39.1154 644.279,-24.5144 554.996,-20.4534"/>
<polygon fill="black" stroke="black" points="555.108,-16.9551 544.966,-20.0192 554.805,-23.9485 555.108,-16.9551"/>
</a>
<a xlink:href="http://latin.omdoc.org/foundations/mizar?TNDMizarView" class="TNDMizarView">
<text text-anchor="middle" x="954.5" y="-146.3" font-family="Times New Roman,serif" font-size="14.00">TNDMizarView</text>
</a>
</g>
</g>
</svg>
