<?xml version="1.0" encoding="UTF-8" standalone="no"?>
<!DOCTYPE svg PUBLIC "-//W3C//DTD SVG 1.1//EN"
 "http://www.w3.org/Graphics/SVG/1.1/DTD/svg11.dtd">
<!-- Generated by graphviz version 2.28.0 (20110507.0327)
 -->
<!-- Title: MMT Pages: 1 -->
<svg width="260pt" height="260pt"
 viewBox="0.00 0.00 259.63 260.00" xmlns="http://www.w3.org/2000/svg" xmlns:xlink="http://www.w3.org/1999/xlink">
<g id="graph1" class="graph" transform="scale(1 1) rotate(0) translate(4 256)">
<title>MMT</title>
<polygon fill="white" stroke="white" points="-4,5 -4,-256 256.631,-256 256.631,5 -4,5"/>
<g id="graph2" class="cluster"><title>cluster_local</title>
<polygon fill="none" stroke="black" points="8,-64 8,-116 242,-116 242,-64 8,-64"/>
</g>
<!-- http://latin.omdoc.org/logics/proof_theory?PropositionalExtensionality -->
<g id="node2" class="node"><title>http://latin.omdoc.org/logics/proof_theory?PropositionalExtensionality</title>
<a xlink:href="http://latin.omdoc.org/logics/proof_theory?PropositionalExtensionality" class="graphtheory">
<ellipse fill="none" stroke="black" cx="125" cy="-90" rx="109.286" ry="18"/>
<text text-anchor="middle" x="125" y="-86.3" font-family="Times New Roman,serif" font-size="14.00">PropositionalExtensionality</text>
</a>
</g>
<!-- http://latin.omdoc.org/foundations/hol?SFOL&#45;Pf -->
<g id="node3" class="node"><title>http://latin.omdoc.org/foundations/hol?SFOL&#45;Pf</title>
<a xlink:href="http://latin.omdoc.org/foundations/hol?SFOL-Pf" class="graphtheory">
<ellipse fill="gray" stroke="black" cx="193" cy="-18" rx="44.271" ry="18"/>
<text text-anchor="middle" x="193" y="-14.3" font-family="Times New Roman,serif" font-size="14.00">SFOL&#45;Pf</text>
</a>
</g>
<!-- http://latin.omdoc.org/logics/proof_theory?PropositionalExtensionality&#45;&gt;http://latin.omdoc.org/foundations/hol?SFOL&#45;Pf -->
<g id="edge3" class="edge"><title>http://latin.omdoc.org/logics/proof_theory?PropositionalExtensionality&#45;&gt;http://latin.omdoc.org/foundations/hol?SFOL&#45;Pf</title>
<a class="graphinclude">
<path fill="none" stroke="black" d="M141.461,-72.055C150.021,-63.243 160.624,-52.3285 169.983,-42.6943"/>
<polygon fill="black" stroke="black" points="172.702,-44.9186 177.159,-35.307 167.681,-40.0411 172.702,-44.9186"/>
</a>
</g>
<!-- http://latin.omdoc.org/logics/proof_theory?HOL -->
<g id="node5" class="node"><title>http://latin.omdoc.org/logics/proof_theory?HOL</title>
<a xlink:href="http://latin.omdoc.org/logics/proof_theory?HOL" class="graphtheory">
<ellipse fill="gray" stroke="black" cx="182" cy="-162" rx="29.3722" ry="18"/>
<text text-anchor="middle" x="182" y="-158.3" font-family="Times New Roman,serif" font-size="14.00">HOL</text>
</a>
</g>
<!-- http://latin.omdoc.org/logics/proof_theory?HOL&#45;&gt;http://latin.omdoc.org/logics/proof_theory?PropositionalExtensionality -->
<g id="edge5" class="edge"><title>http://latin.omdoc.org/logics/proof_theory?HOL&#45;&gt;http://latin.omdoc.org/logics/proof_theory?PropositionalExtensionality</title>
<a class="graphinclude">
<path fill="none" stroke="black" d="M169.35,-145.465C162.278,-136.78 153.296,-125.75 145.268,-115.891"/>
<polygon fill="black" stroke="black" points="147.84,-113.506 138.812,-107.962 142.412,-117.926 147.84,-113.506"/>
</a>
</g>
<!-- http://cds.omdoc.org/urtheories?LF -->
<g id="node7" class="node"><title>http://cds.omdoc.org/urtheories?LF</title>
<a xlink:href="http://cds.omdoc.org/urtheories?LF" class="graphtheory">
<ellipse fill="gray" stroke="black" cx="182" cy="-234" rx="27" ry="18"/>
<text text-anchor="middle" x="182" y="-230.3" font-family="Times New Roman,serif" font-size="14.00">LF</text>
</a>
</g>
<!-- http://cds.omdoc.org/urtheories?LF&#45;&gt;http://latin.omdoc.org/logics/proof_theory?PropositionalExtensionality -->
<g id="edge7" class="edge"><title>http://cds.omdoc.org/urtheories?LF&#45;&gt;http://latin.omdoc.org/logics/proof_theory?PropositionalExtensionality</title>
<a class="graphmeta">
<path fill="none" stroke="black" d="M168.882,-218.265C160.56,-208.161 150.225,-194.084 144,-180 135.284,-160.281 130.462,-136.298 127.858,-118.198"/>
<polygon fill="black" stroke="black" points="131.298,-117.505 126.539,-108.039 124.356,-118.407 131.298,-117.505"/>
</a>
</g>
<!-- http://cds.omdoc.org/urtheories?LF&#45;&gt;http://latin.omdoc.org/foundations/hol?SFOL&#45;Pf -->
<g id="edge11" class="edge"><title>http://cds.omdoc.org/urtheories?LF&#45;&gt;http://latin.omdoc.org/foundations/hol?SFOL&#45;Pf</title>
<a class="graphmeta">
<path fill="none" stroke="black" d="M194.32,-217.869C202.305,-207.599 212.564,-193.484 220,-180 234.826,-153.115 240.113,-146.132 246,-116 250.431,-93.3177 255.706,-84.9741 246,-64 241.552,-54.3874 233.926,-46.0775 225.823,-39.3066"/>
<polygon fill="black" stroke="black" points="227.729,-36.3581 217.662,-33.0575 223.474,-41.9159 227.729,-36.3581"/>
</a>
</g>
<!-- http://cds.omdoc.org/urtheories?LF&#45;&gt;http://latin.omdoc.org/logics/proof_theory?HOL -->
<g id="edge9" class="edge"><title>http://cds.omdoc.org/urtheories?LF&#45;&gt;http://latin.omdoc.org/logics/proof_theory?HOL</title>
<a class="graphmeta">
<path fill="none" stroke="black" d="M182,-215.697C182,-207.983 182,-198.712 182,-190.112"/>
<polygon fill="black" stroke="black" points="185.5,-190.104 182,-180.104 178.5,-190.104 185.5,-190.104"/>
</a>
</g>
</g>
</svg>
