<?xml version="1.0" encoding="UTF-8" standalone="no"?>
<!DOCTYPE svg PUBLIC "-//W3C//DTD SVG 1.1//EN"
 "http://www.w3.org/Graphics/SVG/1.1/DTD/svg11.dtd">
<!-- Generated by graphviz version 2.28.0 (20110507.0327)
 -->
<!-- Title: MMT Pages: 1 -->
<svg width="106pt" height="204pt"
 viewBox="0.00 0.00 106.00 204.00" xmlns="http://www.w3.org/2000/svg" xmlns:xlink="http://www.w3.org/1999/xlink">
<g id="graph1" class="graph" transform="scale(1 1) rotate(0) translate(4 200)">
<title>MMT</title>
<polygon fill="white" stroke="white" points="-4,5 -4,-200 103,-200 103,5 -4,5"/>
<g id="graph2" class="cluster"><title>cluster_local</title>
<polygon fill="none" stroke="black" points="8,-8 8,-60 78,-60 78,-8 8,-8"/>
</g>
<!-- http://latin.omdoc.org/logics/proof_theory?S5 -->
<g id="node2" class="node"><title>http://latin.omdoc.org/logics/proof_theory?S5</title>
<a xlink:href="http://latin.omdoc.org/logics/proof_theory?S5" class="graphtheory">
<ellipse fill="none" stroke="black" cx="43" cy="-34" rx="27" ry="18"/>
<text text-anchor="middle" x="43" y="-30.3" font-family="Times New Roman,serif" font-size="14.00">S5</text>
</a>
</g>
<!-- http://latin.omdoc.org/logics/proof_theory?T -->
<g id="node3" class="node"><title>http://latin.omdoc.org/logics/proof_theory?T</title>
<a xlink:href="http://latin.omdoc.org/logics/proof_theory?T" class="graphtheory">
<ellipse fill="gray" stroke="black" cx="71" cy="-106" rx="27" ry="18"/>
<text text-anchor="middle" x="71" y="-102.3" font-family="Times New Roman,serif" font-size="14.00">T</text>
</a>
</g>
<!-- http://latin.omdoc.org/logics/proof_theory?T&#45;&gt;http://latin.omdoc.org/logics/proof_theory?S5 -->
<g id="edge3" class="edge"><title>http://latin.omdoc.org/logics/proof_theory?T&#45;&gt;http://latin.omdoc.org/logics/proof_theory?S5</title>
<a class="graphinclude">
<path fill="none" stroke="black" d="M64.3644,-88.411C61.0866,-80.2164 57.0558,-70.1395 53.3819,-60.9548"/>
<polygon fill="black" stroke="black" points="56.5516,-59.4548 49.588,-51.4699 50.0523,-62.0546 56.5516,-59.4548"/>
</a>
</g>
<!-- http://cds.omdoc.org/urtheories?LF -->
<g id="node5" class="node"><title>http://cds.omdoc.org/urtheories?LF</title>
<a xlink:href="http://cds.omdoc.org/urtheories?LF" class="graphtheory">
<ellipse fill="gray" stroke="black" cx="43" cy="-178" rx="27" ry="18"/>
<text text-anchor="middle" x="43" y="-174.3" font-family="Times New Roman,serif" font-size="14.00">LF</text>
</a>
</g>
<!-- http://cds.omdoc.org/urtheories?LF&#45;&gt;http://latin.omdoc.org/logics/proof_theory?S5 -->
<g id="edge5" class="edge"><title>http://cds.omdoc.org/urtheories?LF&#45;&gt;http://latin.omdoc.org/logics/proof_theory?S5</title>
<a class="graphmeta">
<path fill="none" stroke="black" d="M39.7517,-159.888C37.9542,-149.542 35.9053,-136.063 35,-124 33.8026,-108.045 33.8026,-103.955 35,-88 35.6366,-79.5179 36.8384,-70.3361 38.1208,-62.0356"/>
<polygon fill="black" stroke="black" points="41.5836,-62.5472 39.7517,-52.1119 34.6763,-61.412 41.5836,-62.5472"/>
</a>
</g>
<!-- http://cds.omdoc.org/urtheories?LF&#45;&gt;http://latin.omdoc.org/logics/proof_theory?T -->
<g id="edge7" class="edge"><title>http://cds.omdoc.org/urtheories?LF&#45;&gt;http://latin.omdoc.org/logics/proof_theory?T</title>
<a class="graphmeta">
<path fill="none" stroke="black" d="M49.6356,-160.411C52.9134,-152.216 56.9442,-142.14 60.6181,-132.955"/>
<polygon fill="black" stroke="black" points="63.9477,-134.055 64.412,-123.47 57.4484,-131.455 63.9477,-134.055"/>
</a>
</g>
</g>
</svg>
