<?xml version="1.0" encoding="UTF-8" standalone="no"?>
<!DOCTYPE svg PUBLIC "-//W3C//DTD SVG 1.1//EN"
 "http://www.w3.org/Graphics/SVG/1.1/DTD/svg11.dtd">
<!-- Generated by graphviz version 2.28.0 (20110507.0327)
 -->
<!-- Title: MMT Pages: 1 -->
<svg width="818pt" height="368pt"
 viewBox="0.00 0.00 817.95 368.00" xmlns="http://www.w3.org/2000/svg" xmlns:xlink="http://www.w3.org/1999/xlink">
<g id="graph1" class="graph" transform="scale(1 1) rotate(0) translate(4 364)">
<title>MMT</title>
<polygon fill="white" stroke="white" points="-4,5 -4,-364 814.948,-364 814.948,5 -4,5"/>
<g id="graph2" class="cluster"><title>cluster_local</title>
<polygon fill="none" stroke="black" points="426.948,-168 426.948,-220 570.948,-220 570.948,-168 426.948,-168"/>
</g>
<!-- http://latin.omdoc.org/logics/proof_theory?SExistsUnique -->
<g id="node2" class="node"><title>http://latin.omdoc.org/logics/proof_theory?SExistsUnique</title>
<a xlink:href="http://latin.omdoc.org/logics/proof_theory?SExistsUnique" class="graphtheory">
<ellipse fill="none" stroke="black" cx="498.948" cy="-194" rx="63.5411" ry="18"/>
<text text-anchor="middle" x="498.948" y="-190.3" font-family="Times New Roman,serif" font-size="14.00">SExistsUnique</text>
</a>
</g>
<!-- http://latin.omdoc.org/foundations/minimal?SIFOLPFExt&#45;ZF -->
<g id="node3" class="node"><title>http://latin.omdoc.org/foundations/minimal?SIFOLPFExt&#45;ZF</title>
<a xlink:href="http://latin.omdoc.org/foundations/minimal?SIFOLPFExt-ZF" class="graphtheory">
<ellipse fill="gray" stroke="black" cx="123.948" cy="-106" rx="73.1654" ry="18"/>
<text text-anchor="middle" x="123.948" y="-102.3" font-family="Times New Roman,serif" font-size="14.00">SIFOLPFExt&#45;ZF</text>
</a>
</g>
<!-- http://latin.omdoc.org/logics/proof_theory?SExistsUnique&#45;&gt;http://latin.omdoc.org/foundations/minimal?SIFOLPFExt&#45;ZF -->
<g id="edge3" class="edge"><title>http://latin.omdoc.org/logics/proof_theory?SExistsUnique&#45;&gt;http://latin.omdoc.org/foundations/minimal?SIFOLPFExt&#45;ZF</title>
<a xlink:href="http://latin.omdoc.org/foundations/minimal?SIFOLPFExt-ZF?[http://latin.omdoc.org/logics/proof_theory?SExistsUnique]" class="graphstructure">
<path fill="none" stroke="black" d="M466.005,-178.498C455.062,-174.331 442.674,-170.296 430.948,-168 415.128,-164.902 153.861,-167.65 140.948,-158 133.343,-152.317 129.098,-143.099 126.743,-134.051"/>
<polygon fill="black" stroke="black" points="130.154,-133.255 124.809,-124.107 123.282,-134.591 130.154,-133.255"/>
</a>
<a xlink:href="http://latin.omdoc.org/foundations/minimal?SIFOLPFExt-ZF?[http://latin.omdoc.org/logics/proof_theory?SExistsUnique]" class="[http://latin.omdoc.org/logics/proof_theory?SExistsUnique]">
<text text-anchor="middle" x="307.448" y="-146.3" font-family="Times New Roman,serif" font-size="14.00">[http://latin.omdoc.org/logics/proof_theory?SExistsUnique]</text>
</a>
</g>
<!-- http://latin.omdoc.org/foundations/zfc?TypedZF -->
<g id="node5" class="node"><title>http://latin.omdoc.org/foundations/zfc?TypedZF</title>
<a xlink:href="http://latin.omdoc.org/foundations/zfc?TypedZF" class="graphtheory">
<ellipse fill="gray" stroke="black" cx="555.948" cy="-18" rx="45.244" ry="18"/>
<text text-anchor="middle" x="555.948" y="-14.3" font-family="Times New Roman,serif" font-size="14.00">TypedZF</text>
</a>
</g>
<!-- http://latin.omdoc.org/logics/proof_theory?SExistsUnique&#45;&gt;http://latin.omdoc.org/foundations/zfc?TypedZF -->
<g id="edge5" class="edge"><title>http://latin.omdoc.org/logics/proof_theory?SExistsUnique&#45;&gt;http://latin.omdoc.org/foundations/zfc?TypedZF</title>
<a xlink:href="http://latin.omdoc.org/foundations/minimal?SExistsUniquePF-ZF" class="graphview">
<path fill="none" stroke="black" d="M494.374,-175.589C490.612,-164.502 484.196,-150.649 473.948,-142 452.346,-123.769 429.872,-146.64 412.948,-124 403.368,-111.185 404.441,-101.551 412.948,-88 433.204,-55.7353 473.266,-38.1975 505.845,-28.8892"/>
<polygon fill="black" stroke="black" points="506.93,-32.2223 515.686,-26.2574 505.121,-25.4599 506.93,-32.2223"/>
</a>
<a xlink:href="http://latin.omdoc.org/foundations/minimal?SExistsUniquePF-ZF" class="SExistsUniquePF&#45;ZF">
<text text-anchor="middle" x="472.948" y="-102.3" font-family="Times New Roman,serif" font-size="14.00">SExistsUniquePF&#45;ZF</text>
</a>
</g>
<!-- http://latin.omdoc.org/logics/proof_theory?SIFOLExt -->
<g id="node7" class="node"><title>http://latin.omdoc.org/logics/proof_theory?SIFOLExt</title>
<a xlink:href="http://latin.omdoc.org/logics/proof_theory?SIFOLExt" class="graphtheory">
<ellipse fill="gray" stroke="black" cx="590.948" cy="-106" rx="48.6179" ry="18"/>
<text text-anchor="middle" x="590.948" y="-102.3" font-family="Times New Roman,serif" font-size="14.00">SIFOLExt</text>
</a>
</g>
<!-- http://latin.omdoc.org/logics/proof_theory?SExistsUnique&#45;&gt;http://latin.omdoc.org/logics/proof_theory?SIFOLExt -->
<g id="edge7" class="edge"><title>http://latin.omdoc.org/logics/proof_theory?SExistsUnique&#45;&gt;http://latin.omdoc.org/logics/proof_theory?SIFOLExt</title>
<a class="graphinclude">
<path fill="none" stroke="black" d="M516.686,-176.418C530.866,-163.163 550.895,-144.44 566.58,-129.779"/>
<polygon fill="black" stroke="black" points="568.971,-132.335 573.886,-122.949 564.19,-127.221 568.971,-132.335"/>
</a>
</g>
<!-- http://latin.omdoc.org/logics/proof_theory?SIFOLExt&#45;&gt;http://latin.omdoc.org/foundations/zfc?TypedZF -->
<g id="edge31" class="edge"><title>http://latin.omdoc.org/logics/proof_theory?SIFOLExt&#45;&gt;http://latin.omdoc.org/foundations/zfc?TypedZF</title>
<a xlink:href="http://latin.omdoc.org/foundations/minimal?SIFOLPFExt-ZF" class="graphview">
<path fill="none" stroke="black" d="M571.017,-89.5203C565.413,-84.0202 560.014,-77.3492 556.948,-70 553.9,-62.6953 552.859,-54.2749 552.794,-46.4082"/>
<polygon fill="black" stroke="black" points="556.301,-46.3161 553.215,-36.1807 549.307,-46.0285 556.301,-46.3161"/>
</a>
<a xlink:href="http://latin.omdoc.org/foundations/minimal?SIFOLPFExt-ZF" class="SIFOLPFExt&#45;ZF">
<text text-anchor="middle" x="605.448" y="-58.3" font-family="Times New Roman,serif" font-size="14.00">SIFOLPFExt&#45;ZF</text>
</a>
</g>
<!-- http://latin.omdoc.org/logics/proof_theory?SIFOLEQ -->
<g id="node9" class="node"><title>http://latin.omdoc.org/logics/proof_theory?SIFOLEQ</title>
<a xlink:href="http://latin.omdoc.org/logics/proof_theory?SIFOLEQ" class="graphtheory">
<ellipse fill="gray" stroke="black" cx="484.948" cy="-268" rx="48.6179" ry="18"/>
<text text-anchor="middle" x="484.948" y="-264.3" font-family="Times New Roman,serif" font-size="14.00">SIFOLEQ</text>
</a>
</g>
<!-- http://latin.omdoc.org/logics/proof_theory?SIFOLEQ&#45;&gt;http://latin.omdoc.org/logics/proof_theory?SExistsUnique -->
<g id="edge9" class="edge"><title>http://latin.omdoc.org/logics/proof_theory?SIFOLEQ&#45;&gt;http://latin.omdoc.org/logics/proof_theory?SExistsUnique</title>
<a class="graphinclude">
<path fill="none" stroke="black" d="M488.266,-249.937C489.864,-241.719 491.82,-231.66 493.619,-222.406"/>
<polygon fill="black" stroke="black" points="497.084,-222.925 495.557,-212.441 490.212,-221.589 497.084,-222.925"/>
</a>
</g>
<!-- http://latin.omdoc.org/logics/proof_theory?SIFOLEQ&#45;&gt;http://latin.omdoc.org/foundations/minimal?SIFOLPFExt&#45;ZF -->
<g id="edge27" class="edge"><title>http://latin.omdoc.org/logics/proof_theory?SIFOLEQ&#45;&gt;http://latin.omdoc.org/foundations/minimal?SIFOLPFExt&#45;ZF</title>
<a xlink:href="http://latin.omdoc.org/foundations/minimal?SIFOLPFExt-ZF?[http://latin.omdoc.org/logics/proof_theory?SIFOLEQ]" class="graphstructure">
<path fill="none" stroke="black" d="M437.43,-264.451C341.952,-258.842 134.096,-243.988 112.948,-220 92.2346,-196.505 101.474,-158.639 111.463,-133.295"/>
<polygon fill="black" stroke="black" points="114.752,-134.502 115.411,-123.928 108.302,-131.783 114.752,-134.502"/>
</a>
<a xlink:href="http://latin.omdoc.org/foundations/minimal?SIFOLPFExt-ZF?[http://latin.omdoc.org/logics/proof_theory?SIFOLEQ]" class="[http://latin.omdoc.org/logics/proof_theory?SIFOLEQ]">
<text text-anchor="middle" x="267.948" y="-190.3" font-family="Times New Roman,serif" font-size="14.00">[http://latin.omdoc.org/logics/proof_theory?SIFOLEQ]</text>
</a>
</g>
<!-- http://latin.omdoc.org/logics/proof_theory?SIFOLEQ&#45;&gt;http://latin.omdoc.org/foundations/zfc?TypedZF -->
<g id="edge25" class="edge"><title>http://latin.omdoc.org/logics/proof_theory?SIFOLEQ&#45;&gt;http://latin.omdoc.org/foundations/zfc?TypedZF</title>
<a xlink:href="http://latin.omdoc.org/foundations/minimal?SIFOLEQPF-ZF" class="graphview">
<path fill="none" stroke="black" d="M437.069,-265.079C346.957,-260.833 155.915,-248.66 96.9479,-220 48.1217,-196.269 -13.7548,-193.654 2.94787,-142 12.0564,-113.831 16.5461,-103.205 41.9479,-88 118.532,-42.1579 384.796,-25.9359 500.998,-20.9506"/>
<polygon fill="black" stroke="black" points="501.254,-24.443 511.099,-20.5294 500.962,-17.4491 501.254,-24.443"/>
</a>
<a xlink:href="http://latin.omdoc.org/foundations/minimal?SIFOLEQPF-ZF" class="SIFOLEQPF&#45;ZF">
<text text-anchor="middle" x="51.4479" y="-146.3" font-family="Times New Roman,serif" font-size="14.00">SIFOLEQPF&#45;ZF</text>
</a>
</g>
<!-- http://latin.omdoc.org/logics/proof_theory?SIFOLEQ&#45;&gt;http://latin.omdoc.org/logics/proof_theory?SIFOLExt -->
<g id="edge29" class="edge"><title>http://latin.omdoc.org/logics/proof_theory?SIFOLEQ&#45;&gt;http://latin.omdoc.org/logics/proof_theory?SIFOLExt</title>
<a class="graphinclude">
<path fill="none" stroke="black" d="M522.453,-256.462C541.172,-249.249 562.437,-237.708 574.948,-220 592.676,-194.909 594.798,-158.758 593.716,-134.15"/>
<polygon fill="black" stroke="black" points="597.201,-133.81 593.065,-124.056 590.216,-134.261 597.201,-133.81"/>
</a>
</g>
<!-- http://latin.omdoc.org/logics/syntax?SExistsUnique -->
<g id="node11" class="node"><title>http://latin.omdoc.org/logics/syntax?SExistsUnique</title>
<a xlink:href="http://latin.omdoc.org/logics/syntax?SExistsUnique" class="graphtheory">
<ellipse fill="gray" stroke="black" cx="653.948" cy="-268" rx="63.5411" ry="18"/>
<text text-anchor="middle" x="653.948" y="-264.3" font-family="Times New Roman,serif" font-size="14.00">SExistsUnique</text>
</a>
</g>
<!-- http://latin.omdoc.org/logics/syntax?SExistsUnique&#45;&gt;http://latin.omdoc.org/logics/proof_theory?SExistsUnique -->
<g id="edge11" class="edge"><title>http://latin.omdoc.org/logics/syntax?SExistsUnique&#45;&gt;http://latin.omdoc.org/logics/proof_theory?SExistsUnique</title>
<a class="graphinclude">
<path fill="none" stroke="black" d="M622.879,-252.12C608.607,-245.321 591.445,-237.197 575.948,-230 564.503,-224.685 552.064,-218.994 540.59,-213.779"/>
<polygon fill="black" stroke="black" points="541.773,-210.472 531.221,-209.528 538.881,-216.847 541.773,-210.472"/>
</a>
</g>
<!-- http://latin.omdoc.org/logics/syntax?SExistsUnique&#45;&gt;http://latin.omdoc.org/foundations/zfc?TypedZF -->
<g id="edge23" class="edge"><title>http://latin.omdoc.org/logics/syntax?SExistsUnique&#45;&gt;http://latin.omdoc.org/foundations/zfc?TypedZF</title>
<a xlink:href="http://latin.omdoc.org/foundations/minimal?SExistsUnique-ZF" class="graphview">
<path fill="none" stroke="black" d="M659.97,-249.853C672.467,-210.934 696.658,-114.606 653.948,-54 643.595,-39.3095 626.491,-30.7511 609.445,-25.7773"/>
<polygon fill="black" stroke="black" points="610.021,-22.3125 599.467,-23.2438 608.298,-29.0972 610.021,-22.3125"/>
</a>
<a xlink:href="http://latin.omdoc.org/foundations/minimal?SExistsUnique-ZF" class="SExistsUnique&#45;ZF">
<text text-anchor="middle" x="730.448" y="-146.3" font-family="Times New Roman,serif" font-size="14.00">SExistsUnique&#45;ZF</text>
</a>
</g>
<!-- http://cds.omdoc.org/urtheories?LF -->
<g id="node13" class="node"><title>http://cds.omdoc.org/urtheories?LF</title>
<a xlink:href="http://cds.omdoc.org/urtheories?LF" class="graphtheory">
<ellipse fill="gray" stroke="black" cx="653.948" cy="-342" rx="27" ry="18"/>
<text text-anchor="middle" x="653.948" y="-338.3" font-family="Times New Roman,serif" font-size="14.00">LF</text>
</a>
</g>
<!-- http://cds.omdoc.org/urtheories?LF&#45;&gt;http://latin.omdoc.org/logics/proof_theory?SExistsUnique -->
<g id="edge13" class="edge"><title>http://cds.omdoc.org/urtheories?LF&#45;&gt;http://latin.omdoc.org/logics/proof_theory?SExistsUnique</title>
<a class="graphmeta">
<path fill="none" stroke="black" d="M635.488,-328.576C620.252,-317.981 598.383,-301.969 580.948,-286 558.134,-265.105 534.769,-238.572 518.847,-219.556"/>
<polygon fill="black" stroke="black" points="521.37,-217.116 512.293,-211.651 515.981,-221.583 521.37,-217.116"/>
</a>
</g>
<!-- http://cds.omdoc.org/urtheories?LF&#45;&gt;http://latin.omdoc.org/foundations/zfc?TypedZF -->
<g id="edge17" class="edge"><title>http://cds.omdoc.org/urtheories?LF&#45;&gt;http://latin.omdoc.org/foundations/zfc?TypedZF</title>
<a class="graphmeta">
<path fill="none" stroke="black" d="M681.121,-340.329C725.816,-337.622 809.948,-325.078 809.948,-269 809.948,-269 809.948,-269 809.948,-105 809.948,-62.8695 682.993,-37.3252 608.592,-25.9726"/>
<polygon fill="black" stroke="black" points="608.868,-22.4752 598.462,-24.4647 607.837,-29.3989 608.868,-22.4752"/>
</a>
</g>
<!-- http://cds.omdoc.org/urtheories?LF&#45;&gt;http://latin.omdoc.org/logics/proof_theory?SIFOLExt -->
<g id="edge19" class="edge"><title>http://cds.omdoc.org/urtheories?LF&#45;&gt;http://latin.omdoc.org/logics/proof_theory?SIFOLExt</title>
<a class="graphmeta">
<path fill="none" stroke="black" d="M674.749,-330.278C691.091,-320.794 713.156,-305.451 725.948,-286 761.971,-231.222 799.279,-192.892 757.948,-142 744.16,-125.023 690.716,-115.986 647.951,-111.378"/>
<polygon fill="black" stroke="black" points="648.201,-107.885 637.898,-110.353 647.492,-114.849 648.201,-107.885"/>
</a>
</g>
<!-- http://cds.omdoc.org/urtheories?LF&#45;&gt;http://latin.omdoc.org/logics/proof_theory?SIFOLEQ -->
<g id="edge21" class="edge"><title>http://cds.omdoc.org/urtheories?LF&#45;&gt;http://latin.omdoc.org/logics/proof_theory?SIFOLEQ</title>
<a class="graphmeta">
<path fill="none" stroke="black" d="M629.397,-334.499C607.548,-328.339 574.962,-318.225 547.948,-306 537.331,-301.195 526.22,-295.074 516.337,-289.199"/>
<polygon fill="black" stroke="black" points="518.019,-286.125 507.656,-283.919 514.381,-292.106 518.019,-286.125"/>
</a>
</g>
<!-- http://cds.omdoc.org/urtheories?LF&#45;&gt;http://latin.omdoc.org/logics/syntax?SExistsUnique -->
<g id="edge15" class="edge"><title>http://cds.omdoc.org/urtheories?LF&#45;&gt;http://latin.omdoc.org/logics/syntax?SExistsUnique</title>
<a class="graphmeta">
<path fill="none" stroke="black" d="M653.948,-323.937C653.948,-315.807 653.948,-305.876 653.948,-296.705"/>
<polygon fill="black" stroke="black" points="657.448,-296.441 653.948,-286.441 650.448,-296.441 657.448,-296.441"/>
</a>
</g>
</g>
</svg>
