<?xml version="1.0" encoding="UTF-8" standalone="no"?>
<!DOCTYPE svg PUBLIC "-//W3C//DTD SVG 1.1//EN"
 "http://www.w3.org/Graphics/SVG/1.1/DTD/svg11.dtd">
<!-- Generated by graphviz version 2.28.0 (20110507.0327)
 -->
<!-- Title: MMT Pages: 1 -->
<svg
 viewBox="0.00 0.00 227.87 260.00" xmlns="http://www.w3.org/2000/svg" xmlns:xlink="http://www.w3.org/1999/xlink">
<g id="graph1" class="graph" transform="scale(1 1) rotate(0) translate(4 256)">
<title>MMT</title>
<polygon fill="white" stroke="white" points="-4,5 -4,-256 224.866,-256 224.866,5 -4,5"/>
<g id="graph2" class="cluster"><title>cluster_local</title>
<polygon fill="none" stroke="black" points="33.8655,-64 33.8655,-116 141.866,-116 141.866,-64 33.8655,-64"/>
</g>
<!-- http://latin.omdoc.org/logics/proof_theory?SFOLEQ -->
<g id="node2" class="node"><title>http://latin.omdoc.org/logics/proof_theory?SFOLEQ</title>
<a xlink:href="http://latin.omdoc.org/logics/proof_theory?SFOLEQ" class="graphtheory">
<ellipse fill="none" stroke="black" cx="87.8655" cy="-90" rx="46.2191" ry="18"/>
<text text-anchor="middle" x="87.8655" y="-86.3" font-family="Times New Roman,serif" font-size="14.00">SFOLEQ</text>
</a>
</g>
<!-- http://latin.omdoc.org/logics/proof_theory?SFOLEQExt -->
<g id="node3" class="node"><title>http://latin.omdoc.org/logics/proof_theory?SFOLEQExt</title>
<a xlink:href="http://latin.omdoc.org/logics/proof_theory?SFOLEQExt" class="graphtheory">
<ellipse fill="gray" stroke="black" cx="162.866" cy="-18" rx="57.2688" ry="18"/>
<text text-anchor="middle" x="162.866" y="-14.3" font-family="Times New Roman,serif" font-size="14.00">SFOLEQExt</text>
</a>
</g>
<!-- http://latin.omdoc.org/logics/proof_theory?SFOLEQ&#45;&gt;http://latin.omdoc.org/logics/proof_theory?SFOLEQExt -->
<g id="edge3" class="edge"><title>http://latin.omdoc.org/logics/proof_theory?SFOLEQ&#45;&gt;http://latin.omdoc.org/logics/proof_theory?SFOLEQExt</title>
<a class="graphinclude">
<path fill="none" stroke="black" d="M104.884,-73.1159C114.622,-64.0273 127.018,-52.458 137.846,-42.3513"/>
<polygon fill="black" stroke="black" points="140.471,-44.6889 145.394,-35.307 135.695,-39.5715 140.471,-44.6889"/>
</a>
</g>
<!-- http://latin.omdoc.org/logics/proof_theory?SEqual -->
<g id="node5" class="node"><title>http://latin.omdoc.org/logics/proof_theory?SEqual</title>
<a xlink:href="http://latin.omdoc.org/logics/proof_theory?SEqual" class="graphtheory">
<ellipse fill="gray" stroke="black" cx="50.8655" cy="-162" rx="36.096" ry="18"/>
<text text-anchor="middle" x="50.8655" y="-158.3" font-family="Times New Roman,serif" font-size="14.00">SEqual</text>
</a>
</g>
<!-- http://latin.omdoc.org/logics/proof_theory?SEqual&#45;&gt;http://latin.omdoc.org/logics/proof_theory?SFOLEQ -->
<g id="edge5" class="edge"><title>http://latin.omdoc.org/logics/proof_theory?SEqual&#45;&gt;http://latin.omdoc.org/logics/proof_theory?SFOLEQ</title>
<a class="graphinclude">
<path fill="none" stroke="black" d="M59.634,-144.411C63.9481,-136.249 69.2491,-126.22 74.0882,-117.065"/>
<polygon fill="black" stroke="black" points="77.3242,-118.433 78.903,-107.956 71.1355,-115.162 77.3242,-118.433"/>
</a>
</g>
<!-- http://latin.omdoc.org/logics/proof_theory?SFOL -->
<g id="node7" class="node"><title>http://latin.omdoc.org/logics/proof_theory?SFOL</title>
<a xlink:href="http://latin.omdoc.org/logics/proof_theory?SFOL" class="graphtheory">
<ellipse fill="gray" stroke="black" cx="138.866" cy="-162" rx="33.1991" ry="18"/>
<text text-anchor="middle" x="138.866" y="-158.3" font-family="Times New Roman,serif" font-size="14.00">SFOL</text>
</a>
</g>
<!-- http://latin.omdoc.org/logics/proof_theory?SFOL&#45;&gt;http://latin.omdoc.org/logics/proof_theory?SFOLEQ -->
<g id="edge7" class="edge"><title>http://latin.omdoc.org/logics/proof_theory?SFOL&#45;&gt;http://latin.omdoc.org/logics/proof_theory?SFOLEQ</title>
<a class="graphinclude">
<path fill="none" stroke="black" d="M127.037,-144.765C120.755,-136.143 112.903,-125.365 105.881,-115.727"/>
<polygon fill="black" stroke="black" points="108.702,-113.655 99.9842,-107.633 103.044,-117.777 108.702,-113.655"/>
</a>
</g>
<!-- http://cds.omdoc.org/urtheories?LF -->
<g id="node9" class="node"><title>http://cds.omdoc.org/urtheories?LF</title>
<a xlink:href="http://cds.omdoc.org/urtheories?LF" class="graphtheory">
<ellipse fill="gray" stroke="black" cx="94.8655" cy="-234" rx="27" ry="18"/>
<text text-anchor="middle" x="94.8655" y="-230.3" font-family="Times New Roman,serif" font-size="14.00">LF</text>
</a>
</g>
<!-- http://cds.omdoc.org/urtheories?LF&#45;&gt;http://latin.omdoc.org/logics/proof_theory?SFOLEQ -->
<g id="edge9" class="edge"><title>http://cds.omdoc.org/urtheories?LF&#45;&gt;http://latin.omdoc.org/logics/proof_theory?SFOLEQ</title>
<a class="graphmeta">
<path fill="none" stroke="black" d="M70.2553,-225.93C48.9779,-218.366 19.5506,-204.077 5.86554,-180 -2.04068,-166.09 -1.78418,-158.053 5.86554,-144 14.6727,-127.821 30.779,-115.827 46.4004,-107.381"/>
<polygon fill="black" stroke="black" points="48.1219,-110.433 55.4831,-102.813 44.9767,-104.179 48.1219,-110.433"/>
</a>
</g>
<!-- http://cds.omdoc.org/urtheories?LF&#45;&gt;http://latin.omdoc.org/logics/proof_theory?SFOLEQExt -->
<g id="edge13" class="edge"><title>http://cds.omdoc.org/urtheories?LF&#45;&gt;http://latin.omdoc.org/logics/proof_theory?SFOLEQExt</title>
<a class="graphmeta">
<path fill="none" stroke="black" d="M119.075,-225.543C139.62,-217.784 167.784,-203.429 180.866,-180 204.475,-137.716 188.182,-79.4768 174.982,-45.8746"/>
<polygon fill="black" stroke="black" points="178.076,-44.1966 171.033,-36.2822 171.604,-46.8617 178.076,-44.1966"/>
</a>
</g>
<!-- http://cds.omdoc.org/urtheories?LF&#45;&gt;http://latin.omdoc.org/logics/proof_theory?SEqual -->
<g id="edge15" class="edge"><title>http://cds.omdoc.org/urtheories?LF&#45;&gt;http://latin.omdoc.org/logics/proof_theory?SEqual</title>
<a class="graphmeta">
<path fill="none" stroke="black" d="M84.8813,-217.116C79.4457,-208.469 72.5986,-197.575 66.4749,-187.833"/>
<polygon fill="black" stroke="black" points="69.4006,-185.911 61.1157,-179.307 63.4742,-189.636 69.4006,-185.911"/>
</a>
</g>
<!-- http://cds.omdoc.org/urtheories?LF&#45;&gt;http://latin.omdoc.org/logics/proof_theory?SFOL -->
<g id="edge11" class="edge"><title>http://cds.omdoc.org/urtheories?LF&#45;&gt;http://latin.omdoc.org/logics/proof_theory?SFOL</title>
<a class="graphmeta">
<path fill="none" stroke="black" d="M104.85,-217.116C110.285,-208.469 117.132,-197.575 123.256,-187.833"/>
<polygon fill="black" stroke="black" points="126.257,-189.636 128.615,-179.307 120.33,-185.911 126.257,-189.636"/>
</a>
</g>
</g>
</svg>
