<?xml version="1.0" encoding="UTF-8" standalone="no"?>
<!DOCTYPE svg PUBLIC "-//W3C//DTD SVG 1.1//EN"
 "http://www.w3.org/Graphics/SVG/1.1/DTD/svg11.dtd">
<!-- Generated by graphviz version 2.28.0 (20110507.0327)
 -->
<!-- Title: MMT Pages: 1 -->
<svg width="285pt" height="332pt"
 viewBox="0.00 0.00 285.34 332.00" xmlns="http://www.w3.org/2000/svg" xmlns:xlink="http://www.w3.org/1999/xlink">
<g id="graph1" class="graph" transform="scale(1 1) rotate(0) translate(4 328)">
<title>MMT</title>
<polygon fill="white" stroke="white" points="-4,5 -4,-328 282.337,-328 282.337,5 -4,5"/>
<g id="graph2" class="cluster"><title>cluster_local</title>
<polygon fill="none" stroke="black" points="122.337,-64 122.337,-116 206.337,-116 206.337,-64 122.337,-64"/>
</g>
<!-- http://latin.omdoc.org/logics/proof_theory?SFOL -->
<g id="node2" class="node"><title>http://latin.omdoc.org/logics/proof_theory?SFOL</title>
<a xlink:href="http://latin.omdoc.org/logics/proof_theory?SFOL" class="graphtheory">
<ellipse fill="none" stroke="black" cx="164.337" cy="-90" rx="33.1991" ry="18"/>
<text text-anchor="middle" x="164.337" y="-86.3" font-family="Times New Roman,serif" font-size="14.00">SFOL</text>
</a>
</g>
<!-- http://latin.omdoc.org/logics/proof_theory?SFOLExt -->
<g id="node3" class="node"><title>http://latin.omdoc.org/logics/proof_theory?SFOLExt</title>
<a xlink:href="http://latin.omdoc.org/logics/proof_theory?SFOLExt" class="graphtheory">
<ellipse fill="gray" stroke="black" cx="86.337" cy="-18" rx="46.2191" ry="18"/>
<text text-anchor="middle" x="86.337" y="-14.3" font-family="Times New Roman,serif" font-size="14.00">SFOLExt</text>
</a>
</g>
<!-- http://latin.omdoc.org/logics/proof_theory?SFOL&#45;&gt;http://latin.omdoc.org/logics/proof_theory?SFOLExt -->
<g id="edge3" class="edge"><title>http://latin.omdoc.org/logics/proof_theory?SFOL&#45;&gt;http://latin.omdoc.org/logics/proof_theory?SFOLExt</title>
<a class="graphinclude">
<path fill="none" stroke="black" d="M147.795,-74.1548C137.23,-64.6735 123.33,-52.1988 111.422,-41.5119"/>
<polygon fill="black" stroke="black" points="113.719,-38.8709 103.939,-34.7966 109.044,-44.0806 113.719,-38.8709"/>
</a>
</g>
<!-- http://latin.omdoc.org/logics/proof_theory?SFOLEQ -->
<g id="node5" class="node"><title>http://latin.omdoc.org/logics/proof_theory?SFOLEQ</title>
<a xlink:href="http://latin.omdoc.org/logics/proof_theory?SFOLEQ" class="graphtheory">
<ellipse fill="gray" stroke="black" cx="230.337" cy="-18" rx="46.2191" ry="18"/>
<text text-anchor="middle" x="230.337" y="-14.3" font-family="Times New Roman,serif" font-size="14.00">SFOLEQ</text>
</a>
</g>
<!-- http://latin.omdoc.org/logics/proof_theory?SFOL&#45;&gt;http://latin.omdoc.org/logics/proof_theory?SFOLEQ -->
<g id="edge5" class="edge"><title>http://latin.omdoc.org/logics/proof_theory?SFOL&#45;&gt;http://latin.omdoc.org/logics/proof_theory?SFOLEQ</title>
<a class="graphinclude">
<path fill="none" stroke="black" d="M178.985,-73.4647C187.458,-64.4776 198.299,-52.9799 207.834,-42.8666"/>
<polygon fill="black" stroke="black" points="210.497,-45.1442 214.811,-35.4672 205.404,-40.342 210.497,-45.1442"/>
</a>
</g>
<!-- http://latin.omdoc.org/logics/proof_theory?SIFOL -->
<g id="node7" class="node"><title>http://latin.omdoc.org/logics/proof_theory?SIFOL</title>
<a xlink:href="http://latin.omdoc.org/logics/proof_theory?SIFOL" class="graphtheory">
<ellipse fill="gray" stroke="black" cx="81.337" cy="-162" rx="36.096" ry="18"/>
<text text-anchor="middle" x="81.337" y="-158.3" font-family="Times New Roman,serif" font-size="14.00">SIFOL</text>
</a>
</g>
<!-- http://latin.omdoc.org/logics/proof_theory?SIFOL&#45;&gt;http://latin.omdoc.org/logics/proof_theory?SFOL -->
<g id="edge7" class="edge"><title>http://latin.omdoc.org/logics/proof_theory?SIFOL&#45;&gt;http://latin.omdoc.org/logics/proof_theory?SFOL</title>
<a class="graphinclude">
<path fill="none" stroke="black" d="M98.9392,-146.155C110.682,-136.251 126.298,-123.081 139.326,-112.094"/>
<polygon fill="black" stroke="black" points="141.657,-114.706 147.045,-105.584 137.144,-109.355 141.657,-114.706"/>
</a>
</g>
<!-- http://latin.omdoc.org/logics/proof_theory?TND -->
<g id="node9" class="node"><title>http://latin.omdoc.org/logics/proof_theory?TND</title>
<a xlink:href="http://latin.omdoc.org/logics/proof_theory?TND" class="graphtheory">
<ellipse fill="gray" stroke="black" cx="183.337" cy="-234" rx="29.3722" ry="18"/>
<text text-anchor="middle" x="183.337" y="-230.3" font-family="Times New Roman,serif" font-size="14.00">TND</text>
</a>
</g>
<!-- http://latin.omdoc.org/logics/proof_theory?TND&#45;&gt;http://latin.omdoc.org/logics/proof_theory?SFOL -->
<g id="edge9" class="edge"><title>http://latin.omdoc.org/logics/proof_theory?TND&#45;&gt;http://latin.omdoc.org/logics/proof_theory?SFOL</title>
<a class="graphinclude">
<path fill="none" stroke="black" d="M181.045,-215.871C177.807,-191.67 171.858,-147.211 168.002,-118.393"/>
<polygon fill="black" stroke="black" points="171.432,-117.637 166.637,-108.189 164.494,-118.565 171.432,-117.637"/>
</a>
</g>
<!-- http://latin.omdoc.org/logics/proof_theory?BaseSFOL -->
<g id="node11" class="node"><title>http://latin.omdoc.org/logics/proof_theory?BaseSFOL</title>
<a xlink:href="http://latin.omdoc.org/logics/proof_theory?BaseSFOL" class="graphtheory">
<ellipse fill="gray" stroke="black" cx="84.337" cy="-234" rx="51.0191" ry="18"/>
<text text-anchor="middle" x="84.337" y="-230.3" font-family="Times New Roman,serif" font-size="14.00">BaseSFOL</text>
</a>
</g>
<!-- http://latin.omdoc.org/logics/proof_theory?BaseSFOL&#45;&gt;http://latin.omdoc.org/logics/proof_theory?SFOL -->
<g id="edge11" class="edge"><title>http://latin.omdoc.org/logics/proof_theory?BaseSFOL&#45;&gt;http://latin.omdoc.org/logics/proof_theory?SFOL</title>
<a class="graphinclude">
<path fill="none" stroke="black" d="M99.1724,-216.653C107.823,-206.578 118.532,-193.115 126.337,-180 138.226,-160.022 148.365,-135.638 155.172,-117.448"/>
<polygon fill="black" stroke="black" points="158.462,-118.642 158.601,-108.048 151.886,-116.243 158.462,-118.642"/>
</a>
</g>
<!-- http://latin.omdoc.org/logics/proof_theory?BaseSFOL&#45;&gt;http://latin.omdoc.org/logics/proof_theory?SIFOL -->
<g id="edge25" class="edge"><title>http://latin.omdoc.org/logics/proof_theory?BaseSFOL&#45;&gt;http://latin.omdoc.org/logics/proof_theory?SIFOL</title>
<a class="graphinclude">
<path fill="none" stroke="black" d="M83.5954,-215.697C83.2648,-207.983 82.8675,-198.712 82.499,-190.112"/>
<polygon fill="black" stroke="black" points="85.9951,-189.945 82.0701,-180.104 79.0015,-190.245 85.9951,-189.945"/>
</a>
</g>
<!-- http://cds.omdoc.org/urtheories?LF -->
<g id="node13" class="node"><title>http://cds.omdoc.org/urtheories?LF</title>
<a xlink:href="http://cds.omdoc.org/urtheories?LF" class="graphtheory">
<ellipse fill="gray" stroke="black" cx="133.337" cy="-306" rx="27" ry="18"/>
<text text-anchor="middle" x="133.337" y="-302.3" font-family="Times New Roman,serif" font-size="14.00">LF</text>
</a>
</g>
<!-- http://cds.omdoc.org/urtheories?LF&#45;&gt;http://latin.omdoc.org/logics/proof_theory?SFOL -->
<g id="edge13" class="edge"><title>http://cds.omdoc.org/urtheories?LF&#45;&gt;http://latin.omdoc.org/logics/proof_theory?SFOL</title>
<a class="graphmeta">
<path fill="none" stroke="black" d="M157.68,-297.851C178.724,-290.234 207.825,-275.912 221.337,-252 247.182,-206.264 209.954,-146.722 184.576,-114.388"/>
<polygon fill="black" stroke="black" points="187.122,-111.97 178.109,-106.4 181.681,-116.375 187.122,-111.97"/>
</a>
</g>
<!-- http://cds.omdoc.org/urtheories?LF&#45;&gt;http://latin.omdoc.org/logics/proof_theory?SFOLExt -->
<g id="edge21" class="edge"><title>http://cds.omdoc.org/urtheories?LF&#45;&gt;http://latin.omdoc.org/logics/proof_theory?SFOLExt</title>
<a class="graphmeta">
<path fill="none" stroke="black" d="M107.093,-301.511C78.9304,-296.213 35.5289,-283.204 15.337,-252 -28.5835,-184.126 32.6915,-87.6837 66.5381,-43.1956"/>
<polygon fill="black" stroke="black" points="69.3306,-45.3061 72.705,-35.2629 63.8041,-41.0098 69.3306,-45.3061"/>
</a>
</g>
<!-- http://cds.omdoc.org/urtheories?LF&#45;&gt;http://latin.omdoc.org/logics/proof_theory?SFOLEQ -->
<g id="edge19" class="edge"><title>http://cds.omdoc.org/urtheories?LF&#45;&gt;http://latin.omdoc.org/logics/proof_theory?SFOLEQ</title>
<a class="graphmeta">
<path fill="none" stroke="black" d="M159.335,-300.237C184.954,-294.01 222.737,-280.358 240.337,-252 280.631,-187.075 256.08,-91.2454 240.394,-45.3636"/>
<polygon fill="black" stroke="black" points="243.659,-44.1007 237.019,-35.8455 237.062,-46.4402 243.659,-44.1007"/>
</a>
</g>
<!-- http://cds.omdoc.org/urtheories?LF&#45;&gt;http://latin.omdoc.org/logics/proof_theory?SIFOL -->
<g id="edge17" class="edge"><title>http://cds.omdoc.org/urtheories?LF&#45;&gt;http://latin.omdoc.org/logics/proof_theory?SIFOL</title>
<a class="graphmeta">
<path fill="none" stroke="black" d="M107.355,-300.499C81.2648,-294.446 42.4184,-280.897 24.337,-252 15.8501,-238.436 17.9465,-230.668 24.337,-216 30.0571,-202.871 40.8106,-191.528 51.4494,-182.744"/>
<polygon fill="black" stroke="black" points="53.7065,-185.423 59.4773,-176.537 49.4251,-179.885 53.7065,-185.423"/>
</a>
</g>
<!-- http://cds.omdoc.org/urtheories?LF&#45;&gt;http://latin.omdoc.org/logics/proof_theory?TND -->
<g id="edge15" class="edge"><title>http://cds.omdoc.org/urtheories?LF&#45;&gt;http://latin.omdoc.org/logics/proof_theory?TND</title>
<a class="graphmeta">
<path fill="none" stroke="black" d="M144.434,-289.465C150.753,-280.617 158.811,-269.337 165.952,-259.339"/>
<polygon fill="black" stroke="black" points="168.96,-261.149 171.925,-250.977 163.264,-257.08 168.96,-261.149"/>
</a>
</g>
<!-- http://cds.omdoc.org/urtheories?LF&#45;&gt;http://latin.omdoc.org/logics/proof_theory?BaseSFOL -->
<g id="edge23" class="edge"><title>http://cds.omdoc.org/urtheories?LF&#45;&gt;http://latin.omdoc.org/logics/proof_theory?BaseSFOL</title>
<a class="graphmeta">
<path fill="none" stroke="black" d="M122.462,-289.465C116.444,-280.867 108.816,-269.97 101.968,-260.187"/>
<polygon fill="black" stroke="black" points="104.812,-258.147 96.2103,-251.962 99.0776,-262.161 104.812,-258.147"/>
</a>
</g>
</g>
</svg>
