<?xml version="1.0" encoding="UTF-8" standalone="no"?>
<!DOCTYPE svg PUBLIC "-//W3C//DTD SVG 1.1//EN"
 "http://www.w3.org/Graphics/SVG/1.1/DTD/svg11.dtd">
<!-- Generated by graphviz version 2.28.0 (20110507.0327)
 -->
<!-- Title: MMT Pages: 1 -->
<svg width="1390pt" height="368pt"
 viewBox="0.00 0.00 1390.00 368.00" xmlns="http://www.w3.org/2000/svg" xmlns:xlink="http://www.w3.org/1999/xlink">
<g id="graph1" class="graph" transform="scale(1 1) rotate(0) translate(4 364)">
<title>MMT</title>
<polygon fill="white" stroke="white" points="-4,5 -4,-364 1387,-364 1387,5 -4,5"/>
<g id="graph2" class="cluster"><title>cluster_local</title>
<polygon fill="none" stroke="black" points="703,-168 703,-220 793,-220 793,-168 703,-168"/>
</g>
<!-- http://latin.omdoc.org/logics/proof_theory?SForall -->
<g id="node2" class="node"><title>http://latin.omdoc.org/logics/proof_theory?SForall</title>
<a xlink:href="http://latin.omdoc.org/logics/proof_theory?SForall" class="graphtheory">
<ellipse fill="none" stroke="black" cx="748" cy="-194" rx="37.0701" ry="18"/>
<text text-anchor="middle" x="748" y="-190.3" font-family="Times New Roman,serif" font-size="14.00">SForall</text>
</a>
</g>
<!-- http://latin.omdoc.org/logics/model_theory?SFOLMOD -->
<g id="node3" class="node"><title>http://latin.omdoc.org/logics/model_theory?SFOLMOD</title>
<a xlink:href="http://latin.omdoc.org/logics/model_theory?SFOLMOD" class="graphtheory">
<ellipse fill="gray" stroke="black" cx="1211" cy="-106" rx="54.3924" ry="18"/>
<text text-anchor="middle" x="1211" y="-102.3" font-family="Times New Roman,serif" font-size="14.00">SFOLMOD</text>
</a>
</g>
<!-- http://latin.omdoc.org/logics/proof_theory?SForall&#45;&gt;http://latin.omdoc.org/logics/model_theory?SFOLMOD -->
<g id="edge3" class="edge"><title>http://latin.omdoc.org/logics/proof_theory?SForall&#45;&gt;http://latin.omdoc.org/logics/model_theory?SFOLMOD</title>
<a xlink:href="http://latin.omdoc.org/logics/soundness?SForall" class="graphview">
<path fill="none" stroke="black" d="M767.456,-178.334C773.97,-174.213 781.492,-170.246 789,-168 852.268,-149.078 1021.42,-171.8 1086,-158 1116.76,-151.428 1149.61,-137.733 1173.92,-126.188"/>
<polygon fill="black" stroke="black" points="1175.65,-129.239 1183.12,-121.726 1172.6,-122.94 1175.65,-129.239"/>
</a>
<a xlink:href="http://latin.omdoc.org/logics/soundness?SForall" class="SForall">
<text text-anchor="middle" x="1156.5" y="-146.3" font-family="Times New Roman,serif" font-size="14.00">SForall</text>
</a>
</g>
<!-- http://latin.omdoc.org/foundations/hol?SFOL&#45;Pf -->
<g id="node5" class="node"><title>http://latin.omdoc.org/foundations/hol?SFOL&#45;Pf</title>
<a xlink:href="http://latin.omdoc.org/foundations/hol?SFOL-Pf" class="graphtheory">
<ellipse fill="gray" stroke="black" cx="105" cy="-18" rx="44.271" ry="18"/>
<text text-anchor="middle" x="105" y="-14.3" font-family="Times New Roman,serif" font-size="14.00">SFOL&#45;Pf</text>
</a>
</g>
<!-- http://latin.omdoc.org/logics/proof_theory?SForall&#45;&gt;http://latin.omdoc.org/foundations/hol?SFOL&#45;Pf -->
<g id="edge5" class="edge"><title>http://latin.omdoc.org/logics/proof_theory?SForall&#45;&gt;http://latin.omdoc.org/foundations/hol?SFOL&#45;Pf</title>
<a xlink:href="http://latin.omdoc.org/translations/sfol_hol?SForallPF" class="graphview">
<path fill="none" stroke="black" d="M767.464,-178.361C773.978,-174.241 781.499,-170.268 789,-168 815.823,-159.89 1021.58,-178.204 1041,-158 1045.93,-152.873 1045.42,-147.571 1041,-142 1019.16,-114.465 998.086,-132.56 964,-124 904.19,-108.979 890.686,-98.9598 830,-88 700.724,-64.6528 303.627,-33.7452 158.677,-22.9341"/>
<polygon fill="black" stroke="black" points="158.509,-19.412 148.277,-22.1606 157.99,-26.3927 158.509,-19.412"/>
</a>
<a xlink:href="http://latin.omdoc.org/translations/sfol_hol?SForallPF" class="SForallPF">
<text text-anchor="middle" x="993" y="-102.3" font-family="Times New Roman,serif" font-size="14.00">SForallPF</text>
</a>
</g>
<!-- http://latin.omdoc.org/foundations/zfc?TypedZF -->
<g id="node7" class="node"><title>http://latin.omdoc.org/foundations/zfc?TypedZF</title>
<a xlink:href="http://latin.omdoc.org/foundations/zfc?TypedZF" class="graphtheory">
<ellipse fill="gray" stroke="black" cx="384" cy="-18" rx="45.244" ry="18"/>
<text text-anchor="middle" x="384" y="-14.3" font-family="Times New Roman,serif" font-size="14.00">TypedZF</text>
</a>
</g>
<!-- http://latin.omdoc.org/logics/proof_theory?SForall&#45;&gt;http://latin.omdoc.org/foundations/zfc?TypedZF -->
<g id="edge7" class="edge"><title>http://latin.omdoc.org/logics/proof_theory?SForall&#45;&gt;http://latin.omdoc.org/foundations/zfc?TypedZF</title>
<a xlink:href="http://latin.omdoc.org/foundations/minimal?SForallPF-ZF" class="graphview">
<path fill="none" stroke="black" d="M728.538,-178.355C722.024,-174.234 714.503,-170.262 707,-168 651.216,-151.18 498.722,-180.555 445,-158 402.28,-140.064 389.467,-81.2046 385.631,-46.0908"/>
<polygon fill="black" stroke="black" points="389.107,-45.6649 384.706,-36.0274 382.136,-46.3059 389.107,-45.6649"/>
</a>
<a xlink:href="http://latin.omdoc.org/foundations/minimal?SForallPF-ZF" class="SForallPF&#45;ZF">
<text text-anchor="middle" x="447.5" y="-102.3" font-family="Times New Roman,serif" font-size="14.00">SForallPF&#45;ZF</text>
</a>
</g>
<!-- http://latin.omdoc.org/foundations/minimal?SIFOLPF&#45;ZF -->
<g id="node9" class="node"><title>http://latin.omdoc.org/foundations/minimal?SIFOLPF&#45;ZF</title>
<a xlink:href="http://latin.omdoc.org/foundations/minimal?SIFOLPF-ZF" class="graphtheory">
<ellipse fill="gray" stroke="black" cx="558" cy="-106" rx="61.1419" ry="18"/>
<text text-anchor="middle" x="558" y="-102.3" font-family="Times New Roman,serif" font-size="14.00">SIFOLPF&#45;ZF</text>
</a>
</g>
<!-- http://latin.omdoc.org/logics/proof_theory?SForall&#45;&gt;http://latin.omdoc.org/foundations/minimal?SIFOLPF&#45;ZF -->
<g id="edge9" class="edge"><title>http://latin.omdoc.org/logics/proof_theory?SForall&#45;&gt;http://latin.omdoc.org/foundations/minimal?SIFOLPF&#45;ZF</title>
<a xlink:href="http://latin.omdoc.org/foundations/minimal?SIFOLPF-ZF?[http://latin.omdoc.org/logics/proof_theory?SForall]" class="graphstructure">
<path fill="none" stroke="black" d="M728.537,-178.359C722.022,-174.239 714.502,-170.266 707,-168 679.856,-159.8 471.653,-178.439 452,-158 447.071,-152.874 447.834,-147.763 452,-142 458.252,-133.351 478.743,-125.666 500.064,-119.717"/>
<polygon fill="black" stroke="black" points="501.107,-123.061 509.871,-117.108 499.307,-116.296 501.107,-123.061"/>
</a>
<a xlink:href="http://latin.omdoc.org/foundations/minimal?SIFOLPF-ZF?[http://latin.omdoc.org/logics/proof_theory?SForall]" class="[http://latin.omdoc.org/logics/proof_theory?SForall]">
<text text-anchor="middle" x="598" y="-146.3" font-family="Times New Roman,serif" font-size="14.00">[http://latin.omdoc.org/logics/proof_theory?SForall]</text>
</a>
</g>
<!-- http://latin.omdoc.org/foundations/minimal?SForallPFExt&#45;ZF -->
<g id="node11" class="node"><title>http://latin.omdoc.org/foundations/minimal?SForallPFExt&#45;ZF</title>
<a xlink:href="http://latin.omdoc.org/foundations/minimal?SForallPFExt-ZF" class="graphtheory">
<ellipse fill="gray" stroke="black" cx="748" cy="-106" rx="73.1654" ry="18"/>
<text text-anchor="middle" x="748" y="-102.3" font-family="Times New Roman,serif" font-size="14.00">SForallPFExt&#45;ZF</text>
</a>
</g>
<!-- http://latin.omdoc.org/logics/proof_theory?SForall&#45;&gt;http://latin.omdoc.org/foundations/minimal?SForallPFExt&#45;ZF -->
<g id="edge11" class="edge"><title>http://latin.omdoc.org/logics/proof_theory?SForall&#45;&gt;http://latin.omdoc.org/foundations/minimal?SForallPFExt&#45;ZF</title>
<a xlink:href="http://latin.omdoc.org/foundations/minimal?SForallPFExt-ZF?[http://latin.omdoc.org/logics/proof_theory?SForall]" class="graphstructure">
<path fill="none" stroke="black" d="M748,-175.597C748,-163.746 748,-147.817 748,-134.292"/>
<polygon fill="black" stroke="black" points="751.5,-134.084 748,-124.084 744.5,-134.084 751.5,-134.084"/>
</a>
<a xlink:href="http://latin.omdoc.org/foundations/minimal?SForallPFExt-ZF?[http://latin.omdoc.org/logics/proof_theory?SForall]" class="[http://latin.omdoc.org/logics/proof_theory?SForall]">
<text text-anchor="middle" x="894" y="-146.3" font-family="Times New Roman,serif" font-size="14.00">[http://latin.omdoc.org/logics/proof_theory?SForall]</text>
</a>
</g>
<!-- http://latin.omdoc.org/logics/proof_theory?SIFOL -->
<g id="node13" class="node"><title>http://latin.omdoc.org/logics/proof_theory?SIFOL</title>
<a xlink:href="http://latin.omdoc.org/logics/proof_theory?SIFOL" class="graphtheory">
<ellipse fill="gray" stroke="black" cx="177" cy="-106" rx="36.096" ry="18"/>
<text text-anchor="middle" x="177" y="-102.3" font-family="Times New Roman,serif" font-size="14.00">SIFOL</text>
</a>
</g>
<!-- http://latin.omdoc.org/logics/proof_theory?SForall&#45;&gt;http://latin.omdoc.org/logics/proof_theory?SIFOL -->
<g id="edge13" class="edge"><title>http://latin.omdoc.org/logics/proof_theory?SForall&#45;&gt;http://latin.omdoc.org/logics/proof_theory?SIFOL</title>
<a class="graphinclude">
<path fill="none" stroke="black" d="M728.976,-178.538C722.369,-174.318 714.683,-170.242 707,-168 680.809,-160.356 240.335,-170.336 216,-158 205.115,-152.482 196.407,-142.356 190.005,-132.572"/>
<polygon fill="black" stroke="black" points="192.912,-130.614 184.778,-123.826 186.904,-134.205 192.912,-130.614"/>
</a>
</g>
<!-- http://latin.omdoc.org/logics/proof_theory?SForallExt -->
<g id="node15" class="node"><title>http://latin.omdoc.org/logics/proof_theory?SForallExt</title>
<a xlink:href="http://latin.omdoc.org/logics/proof_theory?SForallExt" class="graphtheory">
<ellipse fill="gray" stroke="black" cx="1080" cy="-106" rx="49.0941" ry="18"/>
<text text-anchor="middle" x="1080" y="-102.3" font-family="Times New Roman,serif" font-size="14.00">SForallExt</text>
</a>
</g>
<!-- http://latin.omdoc.org/logics/proof_theory?SForall&#45;&gt;http://latin.omdoc.org/logics/proof_theory?SForallExt -->
<g id="edge15" class="edge"><title>http://latin.omdoc.org/logics/proof_theory?SForall&#45;&gt;http://latin.omdoc.org/logics/proof_theory?SForallExt</title>
<a class="graphinclude">
<path fill="none" stroke="black" d="M767.459,-178.345C773.973,-174.224 781.495,-170.255 789,-168 818.496,-159.139 1041.85,-177.113 1066,-158 1073.32,-152.204 1077.04,-142.962 1078.85,-133.928"/>
<polygon fill="black" stroke="black" points="1082.32,-134.389 1080.19,-124.011 1075.39,-133.454 1082.32,-134.389"/>
</a>
</g>
<!-- http://latin.omdoc.org/translations/sfol_hol?SIFOLPF -->
<g id="node17" class="node"><title>http://latin.omdoc.org/translations/sfol_hol?SIFOLPF</title>
<a xlink:href="http://latin.omdoc.org/translations/sfol_hol?SIFOLPF" class="graphtheory">
<ellipse fill="gray" stroke="black" cx="317" cy="-106" rx="47.169" ry="18"/>
<text text-anchor="middle" x="317" y="-102.3" font-family="Times New Roman,serif" font-size="14.00">SIFOLPF</text>
</a>
</g>
<!-- http://latin.omdoc.org/logics/proof_theory?SForall&#45;&gt;http://latin.omdoc.org/translations/sfol_hol?SIFOLPF -->
<g id="edge17" class="edge"><title>http://latin.omdoc.org/logics/proof_theory?SForall&#45;&gt;http://latin.omdoc.org/translations/sfol_hol?SIFOLPF</title>
<a class="graphinclude">
<path fill="none" stroke="black" d="M728.547,-178.324C722.034,-174.202 714.511,-170.237 707,-168 639.241,-147.817 456.026,-180.5 389,-158 379.354,-154.762 360.331,-141.151 344.26,-128.805"/>
<polygon fill="black" stroke="black" points="346.232,-125.905 336.191,-122.526 341.933,-131.429 346.232,-125.905"/>
</a>
</g>
<!-- http://latin.omdoc.org/logics/proof_theory?SIFOL&#45;&gt;http://latin.omdoc.org/foundations/hol?SFOL&#45;Pf -->
<g id="edge57" class="edge"><title>http://latin.omdoc.org/logics/proof_theory?SIFOL&#45;&gt;http://latin.omdoc.org/foundations/hol?SFOL&#45;Pf</title>
<a xlink:href="http://latin.omdoc.org/translations/sfol_hol?SIFOLPF" class="graphview">
<path fill="none" stroke="black" d="M163.794,-89.2263C152.97,-76.2973 137.475,-57.7898 125.11,-43.0199"/>
<polygon fill="black" stroke="black" points="127.714,-40.6789 118.611,-35.2581 122.347,-45.1725 127.714,-40.6789"/>
</a>
<a xlink:href="http://latin.omdoc.org/translations/sfol_hol?SIFOLPF" class="SIFOLPF">
<text text-anchor="middle" x="176.5" y="-58.3" font-family="Times New Roman,serif" font-size="14.00">SIFOLPF</text>
</a>
</g>
<!-- http://latin.omdoc.org/logics/proof_theory?SIFOL&#45;&gt;http://latin.omdoc.org/foundations/zfc?TypedZF -->
<g id="edge55" class="edge"><title>http://latin.omdoc.org/logics/proof_theory?SIFOL&#45;&gt;http://latin.omdoc.org/foundations/zfc?TypedZF</title>
<a xlink:href="http://latin.omdoc.org/foundations/minimal?SIFOLPF-ZF" class="graphview">
<path fill="none" stroke="black" d="M199.954,-91.9987C219.917,-81.0079 249.826,-65.2934 277,-54 296.826,-45.7603 319.34,-38.1474 338.583,-32.1405"/>
<polygon fill="black" stroke="black" points="339.785,-35.4328 348.317,-29.1509 337.73,-28.7413 339.785,-35.4328"/>
</a>
<a xlink:href="http://latin.omdoc.org/foundations/minimal?SIFOLPF-ZF" class="SIFOLPF&#45;ZF">
<text text-anchor="middle" x="316" y="-58.3" font-family="Times New Roman,serif" font-size="14.00">SIFOLPF&#45;ZF</text>
</a>
</g>
<!-- http://latin.omdoc.org/logics/proof_theory?SForallExt&#45;&gt;http://latin.omdoc.org/foundations/zfc?TypedZF -->
<g id="edge53" class="edge"><title>http://latin.omdoc.org/logics/proof_theory?SForallExt&#45;&gt;http://latin.omdoc.org/foundations/zfc?TypedZF</title>
<a xlink:href="http://latin.omdoc.org/foundations/minimal?SForallPFExt-ZF" class="graphview">
<path fill="none" stroke="black" d="M1035.9,-97.9619C1015.29,-94.7621 990.414,-91.0244 968,-88 772.853,-61.6687 540.258,-35.8471 437.417,-24.714"/>
<polygon fill="black" stroke="black" points="437.605,-21.214 427.287,-23.6195 436.853,-28.1735 437.605,-21.214"/>
</a>
<a xlink:href="http://latin.omdoc.org/foundations/minimal?SForallPFExt-ZF" class="SForallPFExt&#45;ZF">
<text text-anchor="middle" x="873.5" y="-58.3" font-family="Times New Roman,serif" font-size="14.00">SForallPFExt&#45;ZF</text>
</a>
</g>
<!-- http://latin.omdoc.org/logics/syntax?SForall -->
<g id="node19" class="node"><title>http://latin.omdoc.org/logics/syntax?SForall</title>
<a xlink:href="http://latin.omdoc.org/logics/syntax?SForall" class="graphtheory">
<ellipse fill="gray" stroke="black" cx="1284" cy="-268" rx="37.0701" ry="18"/>
<text text-anchor="middle" x="1284" y="-264.3" font-family="Times New Roman,serif" font-size="14.00">SForall</text>
</a>
</g>
<!-- http://latin.omdoc.org/logics/syntax?SForall&#45;&gt;http://latin.omdoc.org/logics/proof_theory?SForall -->
<g id="edge19" class="edge"><title>http://latin.omdoc.org/logics/syntax?SForall&#45;&gt;http://latin.omdoc.org/logics/proof_theory?SForall</title>
<a class="graphinclude">
<path fill="none" stroke="black" d="M1250.23,-260.58C1203.75,-252.029 1117.37,-237.15 1043,-230 986.771,-224.594 843.073,-236.34 789,-220 784.663,-218.689 780.32,-216.809 776.168,-214.659"/>
<polygon fill="black" stroke="black" points="777.875,-211.603 767.464,-209.64 774.379,-217.667 777.875,-211.603"/>
</a>
</g>
<!-- http://latin.omdoc.org/logics/syntax?SForall&#45;&gt;http://latin.omdoc.org/logics/model_theory?SFOLMOD -->
<g id="edge51" class="edge"><title>http://latin.omdoc.org/logics/syntax?SForall&#45;&gt;http://latin.omdoc.org/logics/model_theory?SFOLMOD</title>
<a xlink:href="http://latin.omdoc.org/logics/model_theory?SForall" class="graphview">
<path fill="none" stroke="black" d="M1278.13,-250.007C1269.46,-225.566 1252.16,-179.324 1233,-142 1231.38,-138.839 1229.56,-135.593 1227.68,-132.411"/>
<polygon fill="black" stroke="black" points="1230.57,-130.427 1222.35,-123.743 1224.61,-134.094 1230.57,-130.427"/>
</a>
<a xlink:href="http://latin.omdoc.org/logics/model_theory?SForall" class="SForall">
<text text-anchor="middle" x="1287.5" y="-190.3" font-family="Times New Roman,serif" font-size="14.00">SForall</text>
</a>
</g>
<!-- http://latin.omdoc.org/logics/syntax?SForall&#45;&gt;http://latin.omdoc.org/foundations/zfc?TypedZF -->
<g id="edge49" class="edge"><title>http://latin.omdoc.org/logics/syntax?SForall&#45;&gt;http://latin.omdoc.org/foundations/zfc?TypedZF</title>
<a xlink:href="http://latin.omdoc.org/foundations/minimal?SForall-ZF" class="graphview">
<path fill="none" stroke="black" d="M1296.46,-251.032C1302.42,-242.37 1308.92,-231.172 1312,-220 1328.2,-161.14 1323.96,-123.092 1274,-88 1205.77,-40.0742 623.348,-23.965 439.421,-20.0473"/>
<polygon fill="black" stroke="black" points="439.238,-16.5428 429.167,-19.8328 439.091,-23.5413 439.238,-16.5428"/>
</a>
<a xlink:href="http://latin.omdoc.org/foundations/minimal?SForall-ZF" class="SForall&#45;ZF">
<text text-anchor="middle" x="1351" y="-146.3" font-family="Times New Roman,serif" font-size="14.00">SForall&#45;ZF</text>
</a>
</g>
<!-- http://latin.omdoc.org/logics/proof_theory?BaseSFOL -->
<g id="node21" class="node"><title>http://latin.omdoc.org/logics/proof_theory?BaseSFOL</title>
<a xlink:href="http://latin.omdoc.org/logics/proof_theory?BaseSFOL" class="graphtheory">
<ellipse fill="gray" stroke="black" cx="350" cy="-268" rx="51.0191" ry="18"/>
<text text-anchor="middle" x="350" y="-264.3" font-family="Times New Roman,serif" font-size="14.00">BaseSFOL</text>
</a>
</g>
<!-- http://latin.omdoc.org/logics/proof_theory?BaseSFOL&#45;&gt;http://latin.omdoc.org/logics/proof_theory?SForall -->
<g id="edge21" class="edge"><title>http://latin.omdoc.org/logics/proof_theory?BaseSFOL&#45;&gt;http://latin.omdoc.org/logics/proof_theory?SForall</title>
<a class="graphinclude">
<path fill="none" stroke="black" d="M401.199,-266.854C471.939,-265.193 602.656,-256.82 707,-220 711.068,-218.564 715.168,-216.688 719.119,-214.607"/>
<polygon fill="black" stroke="black" points="721.072,-217.521 727.985,-209.492 717.574,-211.457 721.072,-217.521"/>
</a>
</g>
<!-- http://latin.omdoc.org/logics/proof_theory?BaseSFOL&#45;&gt;http://latin.omdoc.org/logics/model_theory?SFOLMOD -->
<g id="edge39" class="edge"><title>http://latin.omdoc.org/logics/proof_theory?BaseSFOL&#45;&gt;http://latin.omdoc.org/logics/model_theory?SFOLMOD</title>
<a xlink:href="http://latin.omdoc.org/logics/soundness?BaseSFOL" class="graphview">
<path fill="none" stroke="black" d="M398.4,-261.949C463.372,-255.165 582.387,-242.719 684,-232 734.226,-226.702 746.942,-226.704 797,-220 818.364,-217.139 1162.12,-170.038 1180,-158 1188.93,-151.987 1195.72,-142.454 1200.63,-133.248"/>
<polygon fill="black" stroke="black" points="1203.93,-134.466 1205.09,-123.934 1197.61,-131.446 1203.93,-134.466"/>
</a>
<a xlink:href="http://latin.omdoc.org/logics/soundness?BaseSFOL" class="BaseSFOL">
<text text-anchor="middle" x="1171.5" y="-190.3" font-family="Times New Roman,serif" font-size="14.00">BaseSFOL</text>
</a>
</g>
<!-- http://latin.omdoc.org/logics/proof_theory?BaseSFOL&#45;&gt;http://latin.omdoc.org/foundations/hol?SFOL&#45;Pf -->
<g id="edge41" class="edge"><title>http://latin.omdoc.org/logics/proof_theory?BaseSFOL&#45;&gt;http://latin.omdoc.org/foundations/hol?SFOL&#45;Pf</title>
<a xlink:href="http://latin.omdoc.org/translations/sfol_hol?BaseSFOLPF" class="graphview">
<path fill="none" stroke="black" d="M300.299,-263.339C238.2,-255.652 135.531,-231.83 98,-158 79.9592,-122.511 88.0408,-75.1248 96.0924,-45.8571"/>
<polygon fill="black" stroke="black" points="99.5425,-46.5311 99.009,-35.9497 92.8274,-44.5542 99.5425,-46.5311"/>
</a>
<a xlink:href="http://latin.omdoc.org/translations/sfol_hol?BaseSFOLPF" class="BaseSFOLPF">
<text text-anchor="middle" x="137.5" y="-146.3" font-family="Times New Roman,serif" font-size="14.00">BaseSFOLPF</text>
</a>
</g>
<!-- http://latin.omdoc.org/logics/proof_theory?BaseSFOL&#45;&gt;http://latin.omdoc.org/foundations/zfc?TypedZF -->
<g id="edge43" class="edge"><title>http://latin.omdoc.org/logics/proof_theory?BaseSFOL&#45;&gt;http://latin.omdoc.org/foundations/zfc?TypedZF</title>
<a xlink:href="http://latin.omdoc.org/foundations/minimal?BaseSFOLPF-ZF" class="graphview">
<path fill="none" stroke="black" d="M319.874,-253.439C280.804,-233.599 219.078,-193.372 232,-142 238.645,-115.581 239.045,-104.128 261,-88 295.281,-62.8168 320.417,-94.7667 355,-70 363.482,-63.926 369.818,-54.5487 374.369,-45.4836"/>
<polygon fill="black" stroke="black" points="377.588,-46.8587 378.48,-36.3014 371.199,-43.9984 377.588,-46.8587"/>
</a>
<a xlink:href="http://latin.omdoc.org/foundations/minimal?BaseSFOLPF-ZF" class="BaseSFOLPF&#45;ZF">
<text text-anchor="middle" x="282" y="-146.3" font-family="Times New Roman,serif" font-size="14.00">BaseSFOLPF&#45;ZF</text>
</a>
</g>
<!-- http://latin.omdoc.org/logics/proof_theory?BaseSFOL&#45;&gt;http://latin.omdoc.org/logics/proof_theory?SIFOL -->
<g id="edge45" class="edge"><title>http://latin.omdoc.org/logics/proof_theory?BaseSFOL&#45;&gt;http://latin.omdoc.org/logics/proof_theory?SIFOL</title>
<a class="graphinclude">
<path fill="none" stroke="black" d="M299.698,-264.253C273.37,-260.356 242.278,-251.543 221,-232 193.355,-206.608 183.076,-162.809 179.256,-134.379"/>
<polygon fill="black" stroke="black" points="182.716,-133.835 178.085,-124.306 175.763,-134.643 182.716,-133.835"/>
</a>
</g>
<!-- http://latin.omdoc.org/logics/proof_theory?BaseSFOL&#45;&gt;http://latin.omdoc.org/translations/sfol_hol?SIFOLPF -->
<g id="edge47" class="edge"><title>http://latin.omdoc.org/logics/proof_theory?BaseSFOL&#45;&gt;http://latin.omdoc.org/translations/sfol_hol?SIFOLPF</title>
<a class="graphinclude">
<path fill="none" stroke="black" d="M350.142,-249.998C349.893,-225.546 347.717,-179.291 336,-142 335.056,-138.997 333.847,-135.955 332.497,-132.982"/>
<polygon fill="black" stroke="black" points="335.51,-131.185 327.856,-123.86 329.271,-134.36 335.51,-131.185"/>
</a>
</g>
<!-- http://cds.omdoc.org/urtheories?LF -->
<g id="node23" class="node"><title>http://cds.omdoc.org/urtheories?LF</title>
<a xlink:href="http://cds.omdoc.org/urtheories?LF" class="graphtheory">
<ellipse fill="gray" stroke="black" cx="855" cy="-342" rx="27" ry="18"/>
<text text-anchor="middle" x="855" y="-338.3" font-family="Times New Roman,serif" font-size="14.00">LF</text>
</a>
</g>
<!-- http://cds.omdoc.org/urtheories?LF&#45;&gt;http://latin.omdoc.org/logics/proof_theory?SForall -->
<g id="edge23" class="edge"><title>http://cds.omdoc.org/urtheories?LF&#45;&gt;http://latin.omdoc.org/logics/proof_theory?SForall</title>
<a class="graphmeta">
<path fill="none" stroke="black" d="M843.549,-325.375C825.001,-300.067 788.238,-249.904 766.113,-219.715"/>
<polygon fill="black" stroke="black" points="768.755,-217.399 760.021,-211.402 763.109,-221.537 768.755,-217.399"/>
</a>
</g>
<!-- http://cds.omdoc.org/urtheories?LF&#45;&gt;http://latin.omdoc.org/logics/model_theory?SFOLMOD -->
<g id="edge25" class="edge"><title>http://cds.omdoc.org/urtheories?LF&#45;&gt;http://latin.omdoc.org/logics/model_theory?SFOLMOD</title>
<a class="graphmeta">
<path fill="none" stroke="black" d="M882.191,-341.031C949.832,-339.47 1125.9,-325.025 1205,-220 1223.41,-195.558 1221.64,-159.03 1217.43,-134.17"/>
<polygon fill="black" stroke="black" points="1220.86,-133.456 1215.53,-124.299 1213.98,-134.78 1220.86,-133.456"/>
</a>
</g>
<!-- http://cds.omdoc.org/urtheories?LF&#45;&gt;http://latin.omdoc.org/foundations/hol?SFOL&#45;Pf -->
<g id="edge37" class="edge"><title>http://cds.omdoc.org/urtheories?LF&#45;&gt;http://latin.omdoc.org/foundations/hol?SFOL&#45;Pf</title>
<a class="graphmeta">
<path fill="none" stroke="black" d="M827.804,-340.641C696.638,-338.8 132.621,-329.564 58,-306 28.8428,-296.793 0,-299.576 0,-269 0,-269 0,-269 0,-105 0,-70.8743 33.605,-47.8362 62.7924,-34.2625"/>
<polygon fill="black" stroke="black" points="64.3196,-37.4144 72.0654,-30.1859 61.5024,-31.0063 64.3196,-37.4144"/>
</a>
</g>
<!-- http://cds.omdoc.org/urtheories?LF&#45;&gt;http://latin.omdoc.org/foundations/zfc?TypedZF -->
<g id="edge29" class="edge"><title>http://cds.omdoc.org/urtheories?LF&#45;&gt;http://latin.omdoc.org/foundations/zfc?TypedZF</title>
<a class="graphmeta">
<path fill="none" stroke="black" d="M827.931,-341.627C745.493,-342.849 490.906,-341.539 290,-286 187.558,-257.681 132.867,-254.35 88,-158 69.9605,-119.26 81.0264,-90.1978 131,-54 161.679,-31.7783 264.105,-23.6283 328.841,-20.6651"/>
<polygon fill="black" stroke="black" points="329.05,-24.1595 338.891,-20.2328 328.749,-17.166 329.05,-24.1595"/>
</a>
</g>
<!-- http://cds.omdoc.org/urtheories?LF&#45;&gt;http://latin.omdoc.org/logics/proof_theory?SIFOL -->
<g id="edge27" class="edge"><title>http://cds.omdoc.org/urtheories?LF&#45;&gt;http://latin.omdoc.org/logics/proof_theory?SIFOL</title>
<a class="graphmeta">
<path fill="none" stroke="black" d="M827.817,-340.842C691.637,-339.921 89.0335,-334.253 62,-306 48.4025,-291.789 123.962,-181.43 159.413,-131.452"/>
<polygon fill="black" stroke="black" points="162.385,-133.312 165.337,-123.137 156.684,-129.251 162.385,-133.312"/>
</a>
</g>
<!-- http://cds.omdoc.org/urtheories?LF&#45;&gt;http://latin.omdoc.org/logics/proof_theory?SForallExt -->
<g id="edge35" class="edge"><title>http://cds.omdoc.org/urtheories?LF&#45;&gt;http://latin.omdoc.org/logics/proof_theory?SForallExt</title>
<a class="graphmeta">
<path fill="none" stroke="black" d="M877.296,-331.621C926.099,-309.698 1041.56,-249.892 1086,-158 1089.6,-150.551 1089.8,-141.799 1088.6,-133.669"/>
<polygon fill="black" stroke="black" points="1092.01,-132.878 1086.47,-123.848 1085.17,-134.363 1092.01,-132.878"/>
</a>
</g>
<!-- http://cds.omdoc.org/urtheories?LF&#45;&gt;http://latin.omdoc.org/logics/syntax?SForall -->
<g id="edge31" class="edge"><title>http://cds.omdoc.org/urtheories?LF&#45;&gt;http://latin.omdoc.org/logics/syntax?SForall</title>
<a class="graphmeta">
<path fill="none" stroke="black" d="M882.027,-340.347C957.388,-338.236 1168.54,-330.26 1233,-306 1242.32,-302.491 1251.47,-296.797 1259.38,-290.916"/>
<polygon fill="black" stroke="black" points="1261.75,-293.501 1267.43,-284.556 1257.41,-288.008 1261.75,-293.501"/>
</a>
</g>
<!-- http://cds.omdoc.org/urtheories?LF&#45;&gt;http://latin.omdoc.org/logics/proof_theory?BaseSFOL -->
<g id="edge33" class="edge"><title>http://cds.omdoc.org/urtheories?LF&#45;&gt;http://latin.omdoc.org/logics/proof_theory?BaseSFOL</title>
<a class="graphmeta">
<path fill="none" stroke="black" d="M828.912,-337.281C750.55,-326.108 515.943,-292.659 406.889,-277.111"/>
<polygon fill="black" stroke="black" points="407.131,-273.61 396.737,-275.663 406.142,-280.54 407.131,-273.61"/>
</a>
</g>
</g>
</svg>
