<?xml version="1.0" encoding="UTF-8" standalone="no"?>
<!DOCTYPE svg PUBLIC "-//W3C//DTD SVG 1.1//EN"
 "http://www.w3.org/Graphics/SVG/1.1/DTD/svg11.dtd">
<!-- Generated by graphviz version 2.28.0 (20110507.0327)
 -->
<!-- Title: MMT Pages: 1 -->
<svg
 viewBox="0.00 0.00 609.15 368.00" xmlns="http://www.w3.org/2000/svg" xmlns:xlink="http://www.w3.org/1999/xlink">
<g id="graph1" class="graph" transform="scale(1 1) rotate(0) translate(4 364)">
<title>MMT</title>
<polygon fill="white" stroke="white" points="-4,5 -4,-364 606.149,-364 606.149,5 -4,5"/>
<g id="graph2" class="cluster"><title>cluster_local</title>
<polygon fill="none" stroke="black" points="77.1485,-168 77.1485,-220 191.149,-220 191.149,-168 77.1485,-168"/>
</g>
<!-- http://latin.omdoc.org/logics/proof_theory?SForallExt -->
<g id="node2" class="node"><title>http://latin.omdoc.org/logics/proof_theory?SForallExt</title>
<a xlink:href="http://latin.omdoc.org/logics/proof_theory?SForallExt" class="graphtheory">
<ellipse fill="none" stroke="black" cx="134.149" cy="-194" rx="49.0941" ry="18"/>
<text text-anchor="middle" x="134.149" y="-190.3" font-family="Times New Roman,serif" font-size="14.00">SForallExt</text>
</a>
</g>
<!-- http://latin.omdoc.org/foundations/zfc?TypedZF -->
<g id="node3" class="node"><title>http://latin.omdoc.org/foundations/zfc?TypedZF</title>
<a xlink:href="http://latin.omdoc.org/foundations/zfc?TypedZF" class="graphtheory">
<ellipse fill="gray" stroke="black" cx="354.149" cy="-18" rx="45.244" ry="18"/>
<text text-anchor="middle" x="354.149" y="-14.3" font-family="Times New Roman,serif" font-size="14.00">TypedZF</text>
</a>
</g>
<!-- http://latin.omdoc.org/logics/proof_theory?SForallExt&#45;&gt;http://latin.omdoc.org/foundations/zfc?TypedZF -->
<g id="edge3" class="edge"><title>http://latin.omdoc.org/logics/proof_theory?SForallExt&#45;&gt;http://latin.omdoc.org/foundations/zfc?TypedZF</title>
<a xlink:href="http://latin.omdoc.org/foundations/minimal?SForallPFExt-ZF" class="graphview">
<path fill="none" stroke="black" d="M182.971,-191.323C269.827,-187.835 443.843,-178.363 462.149,-158 498.56,-117.496 431.93,-66.0197 388.082,-38.4793"/>
<polygon fill="black" stroke="black" points="389.738,-35.3891 379.385,-33.1394 386.075,-41.3545 389.738,-35.3891"/>
</a>
<a xlink:href="http://latin.omdoc.org/foundations/minimal?SForallPFExt-ZF" class="SForallPFExt&#45;ZF">
<text text-anchor="middle" x="520.649" y="-102.3" font-family="Times New Roman,serif" font-size="14.00">SForallPFExt&#45;ZF</text>
</a>
</g>
<!-- http://latin.omdoc.org/foundations/minimal?SIFOLPFExt&#45;ZF -->
<g id="node5" class="node"><title>http://latin.omdoc.org/foundations/minimal?SIFOLPFExt&#45;ZF</title>
<a xlink:href="http://latin.omdoc.org/foundations/minimal?SIFOLPFExt-ZF" class="graphtheory">
<ellipse fill="gray" stroke="black" cx="241.149" cy="-106" rx="73.1654" ry="18"/>
<text text-anchor="middle" x="241.149" y="-102.3" font-family="Times New Roman,serif" font-size="14.00">SIFOLPFExt&#45;ZF</text>
</a>
</g>
<!-- http://latin.omdoc.org/logics/proof_theory?SForallExt&#45;&gt;http://latin.omdoc.org/foundations/minimal?SIFOLPFExt&#45;ZF -->
<g id="edge5" class="edge"><title>http://latin.omdoc.org/logics/proof_theory?SForallExt&#45;&gt;http://latin.omdoc.org/foundations/minimal?SIFOLPFExt&#45;ZF</title>
<a xlink:href="http://latin.omdoc.org/foundations/minimal?SIFOLPFExt-ZF?[http://latin.omdoc.org/logics/proof_theory?SForallExt]" class="graphstructure">
<path fill="none" stroke="black" d="M136.46,-175.944C138.754,-165.007 143.28,-151.188 152.149,-142 159.997,-133.869 169.963,-127.588 180.366,-122.747"/>
<polygon fill="black" stroke="black" points="181.729,-125.971 189.578,-118.854 179.004,-119.523 181.729,-125.971"/>
</a>
<a xlink:href="http://latin.omdoc.org/foundations/minimal?SIFOLPFExt-ZF?[http://latin.omdoc.org/logics/proof_theory?SForallExt]" class="[http://latin.omdoc.org/logics/proof_theory?SForallExt]">
<text text-anchor="middle" x="307.149" y="-146.3" font-family="Times New Roman,serif" font-size="14.00">[http://latin.omdoc.org/logics/proof_theory?SForallExt]</text>
</a>
</g>
<!-- http://latin.omdoc.org/logics/proof_theory?SIFOLExt -->
<g id="node7" class="node"><title>http://latin.omdoc.org/logics/proof_theory?SIFOLExt</title>
<a xlink:href="http://latin.omdoc.org/logics/proof_theory?SIFOLExt" class="graphtheory">
<ellipse fill="gray" stroke="black" cx="101.149" cy="-106" rx="48.6179" ry="18"/>
<text text-anchor="middle" x="101.149" y="-102.3" font-family="Times New Roman,serif" font-size="14.00">SIFOLExt</text>
</a>
</g>
<!-- http://latin.omdoc.org/logics/proof_theory?SForallExt&#45;&gt;http://latin.omdoc.org/logics/proof_theory?SIFOLExt -->
<g id="edge7" class="edge"><title>http://latin.omdoc.org/logics/proof_theory?SForallExt&#45;&gt;http://latin.omdoc.org/logics/proof_theory?SIFOLExt</title>
<a class="graphinclude">
<path fill="none" stroke="black" d="M127.629,-176.009C122.973,-163.877 116.62,-147.32 111.304,-133.465"/>
<polygon fill="black" stroke="black" points="114.505,-132.038 107.655,-123.956 107.97,-134.546 114.505,-132.038"/>
</a>
</g>
<!-- http://latin.omdoc.org/logics/proof_theory?SIFOLExt&#45;&gt;http://latin.omdoc.org/foundations/zfc?TypedZF -->
<g id="edge21" class="edge"><title>http://latin.omdoc.org/logics/proof_theory?SIFOLExt&#45;&gt;http://latin.omdoc.org/foundations/zfc?TypedZF</title>
<a xlink:href="http://latin.omdoc.org/foundations/minimal?SIFOLPFExt-ZF" class="graphview">
<path fill="none" stroke="black" d="M135.533,-93.3122C181.131,-77.8122 261.607,-50.4568 311.166,-33.6107"/>
<polygon fill="black" stroke="black" points="312.304,-36.9204 320.646,-30.3882 310.052,-30.2929 312.304,-36.9204"/>
</a>
<a xlink:href="http://latin.omdoc.org/foundations/minimal?SIFOLPFExt-ZF" class="SIFOLPFExt&#45;ZF">
<text text-anchor="middle" x="299.649" y="-58.3" font-family="Times New Roman,serif" font-size="14.00">SIFOLPFExt&#45;ZF</text>
</a>
</g>
<!-- http://latin.omdoc.org/logics/proof_theory?SForall -->
<g id="node9" class="node"><title>http://latin.omdoc.org/logics/proof_theory?SForall</title>
<a xlink:href="http://latin.omdoc.org/logics/proof_theory?SForall" class="graphtheory">
<ellipse fill="gray" stroke="black" cx="69.1485" cy="-268" rx="37.0701" ry="18"/>
<text text-anchor="middle" x="69.1485" y="-264.3" font-family="Times New Roman,serif" font-size="14.00">SForall</text>
</a>
</g>
<!-- http://latin.omdoc.org/logics/proof_theory?SForall&#45;&gt;http://latin.omdoc.org/logics/proof_theory?SForallExt -->
<g id="edge9" class="edge"><title>http://latin.omdoc.org/logics/proof_theory?SForall&#45;&gt;http://latin.omdoc.org/logics/proof_theory?SForallExt</title>
<a class="graphinclude">
<path fill="none" stroke="black" d="M83.5741,-251.021C92.0385,-241.645 102.901,-229.612 112.388,-219.104"/>
<polygon fill="black" stroke="black" points="115.209,-221.202 119.313,-211.434 110.014,-216.511 115.209,-221.202"/>
</a>
</g>
<!-- http://latin.omdoc.org/logics/proof_theory?SForall&#45;&gt;http://latin.omdoc.org/foundations/zfc?TypedZF -->
<g id="edge19" class="edge"><title>http://latin.omdoc.org/logics/proof_theory?SForall&#45;&gt;http://latin.omdoc.org/foundations/zfc?TypedZF</title>
<a xlink:href="http://latin.omdoc.org/foundations/minimal?SForallPF-ZF" class="graphview">
<path fill="none" stroke="black" d="M59.0382,-250.428C38.9537,-215.173 -0.433655,-132.346 43.1485,-88 78.4402,-52.0898 220.85,-32.3569 300.154,-23.9548"/>
<polygon fill="black" stroke="black" points="300.852,-27.4014 310.439,-22.8912 300.132,-20.4385 300.852,-27.4014"/>
</a>
<a xlink:href="http://latin.omdoc.org/foundations/minimal?SForallPF-ZF" class="SForallPF&#45;ZF">
<text text-anchor="middle" x="64.6485" y="-146.3" font-family="Times New Roman,serif" font-size="14.00">SForallPF&#45;ZF</text>
</a>
</g>
<!-- http://cds.omdoc.org/urtheories?LF -->
<g id="node11" class="node"><title>http://cds.omdoc.org/urtheories?LF</title>
<a xlink:href="http://cds.omdoc.org/urtheories?LF" class="graphtheory">
<ellipse fill="gray" stroke="black" cx="111.149" cy="-342" rx="27" ry="18"/>
<text text-anchor="middle" x="111.149" y="-338.3" font-family="Times New Roman,serif" font-size="14.00">LF</text>
</a>
</g>
<!-- http://cds.omdoc.org/urtheories?LF&#45;&gt;http://latin.omdoc.org/logics/proof_theory?SForallExt -->
<g id="edge11" class="edge"><title>http://cds.omdoc.org/urtheories?LF&#45;&gt;http://latin.omdoc.org/logics/proof_theory?SForallExt</title>
<a class="graphmeta">
<path fill="none" stroke="black" d="M113.832,-323.966C117.758,-299.045 125.11,-252.374 129.81,-222.537"/>
<polygon fill="black" stroke="black" points="133.312,-222.801 131.411,-212.378 126.397,-221.711 133.312,-222.801"/>
</a>
</g>
<!-- http://cds.omdoc.org/urtheories?LF&#45;&gt;http://latin.omdoc.org/foundations/zfc?TypedZF -->
<g id="edge13" class="edge"><title>http://cds.omdoc.org/urtheories?LF&#45;&gt;http://latin.omdoc.org/foundations/zfc?TypedZF</title>
<a class="graphmeta">
<path fill="none" stroke="black" d="M138.191,-339.904C240.914,-335.387 601.149,-316.183 601.149,-269 601.149,-269 601.149,-269 601.149,-105 601.149,-64.156 479.168,-38.2467 406.649,-26.4524"/>
<polygon fill="black" stroke="black" points="406.754,-22.9253 396.329,-24.8146 405.656,-29.8388 406.754,-22.9253"/>
</a>
</g>
<!-- http://cds.omdoc.org/urtheories?LF&#45;&gt;http://latin.omdoc.org/logics/proof_theory?SIFOLExt -->
<g id="edge17" class="edge"><title>http://cds.omdoc.org/urtheories?LF&#45;&gt;http://latin.omdoc.org/logics/proof_theory?SIFOLExt</title>
<a class="graphmeta">
<path fill="none" stroke="black" d="M88.0934,-332.486C67.9159,-323.843 39.3645,-308.513 23.1485,-286 -10.5456,-239.222 5.25113,-215.566 2.1485,-158 1.76579,-150.899 -1.95715,-147.806 2.1485,-142 12.2667,-127.691 28.7462,-119.193 45.3825,-114.16"/>
<polygon fill="black" stroke="black" points="46.3752,-117.518 55.149,-111.579 44.5866,-110.75 46.3752,-117.518"/>
</a>
</g>
<!-- http://cds.omdoc.org/urtheories?LF&#45;&gt;http://latin.omdoc.org/logics/proof_theory?SForall -->
<g id="edge15" class="edge"><title>http://cds.omdoc.org/urtheories?LF&#45;&gt;http://latin.omdoc.org/logics/proof_theory?SForall</title>
<a class="graphmeta">
<path fill="none" stroke="black" d="M101.827,-325.021C96.5725,-316.013 89.8872,-304.552 83.934,-294.347"/>
<polygon fill="black" stroke="black" points="86.7968,-292.308 78.7348,-285.434 80.7503,-295.835 86.7968,-292.308"/>
</a>
</g>
</g>
</svg>
