<?xml version="1.0" encoding="UTF-8" standalone="no"?>
<!DOCTYPE svg PUBLIC "-//W3C//DTD SVG 1.1//EN"
 "http://www.w3.org/Graphics/SVG/1.1/DTD/svg11.dtd">
<!-- Generated by graphviz version 2.28.0 (20110507.0327)
 -->
<!-- Title: MMT Pages: 1 -->
<svg
 viewBox="0.00 0.00 835.94 368.00" xmlns="http://www.w3.org/2000/svg" xmlns:xlink="http://www.w3.org/1999/xlink">
<g id="graph1" class="graph" transform="scale(1 1) rotate(0) translate(4 364)">
<title>MMT</title>
<polygon fill="white" stroke="white" points="-4,5 -4,-364 832.936,-364 832.936,5 -4,5"/>
<g id="graph2" class="cluster"><title>cluster_local</title>
<polygon fill="none" stroke="black" points="228.936,-168 228.936,-220 366.936,-220 366.936,-168 228.936,-168"/>
</g>
<!-- http://latin.omdoc.org/logics/proof_theory?SIFOLEQExt -->
<g id="node2" class="node"><title>http://latin.omdoc.org/logics/proof_theory?SIFOLEQExt</title>
<a xlink:href="http://latin.omdoc.org/logics/proof_theory?SIFOLEQExt" class="graphtheory">
<ellipse fill="none" stroke="black" cx="297.936" cy="-194" rx="61.1419" ry="18"/>
<text text-anchor="middle" x="297.936" y="-190.3" font-family="Times New Roman,serif" font-size="14.00">SIFOLEQExt</text>
</a>
</g>
<!-- http://latin.omdoc.org/foundations/minimal?STTIFOLEQ&#45;ZF -->
<g id="node3" class="node"><title>http://latin.omdoc.org/foundations/minimal?STTIFOLEQ&#45;ZF</title>
<a xlink:href="http://latin.omdoc.org/foundations/minimal?STTIFOLEQ-ZF" class="graphtheory">
<ellipse fill="gray" stroke="black" cx="474.936" cy="-106" rx="74.1402" ry="18"/>
<text text-anchor="middle" x="474.936" y="-102.3" font-family="Times New Roman,serif" font-size="14.00">STTIFOLEQ&#45;ZF</text>
</a>
</g>
<!-- http://latin.omdoc.org/logics/proof_theory?SIFOLEQExt&#45;&gt;http://latin.omdoc.org/foundations/minimal?STTIFOLEQ&#45;ZF -->
<g id="edge3" class="edge"><title>http://latin.omdoc.org/logics/proof_theory?SIFOLEQExt&#45;&gt;http://latin.omdoc.org/foundations/minimal?STTIFOLEQ&#45;ZF</title>
<a xlink:href="http://latin.omdoc.org/foundations/minimal?STTIFOLEQ-ZF?[http://latin.omdoc.org/logics/proof_theory?SIFOLEQExt]" class="graphstructure">
<path fill="none" stroke="black" d="M299.696,-175.953C301.757,-164.733 306.229,-150.584 315.936,-142 319.648,-138.717 367.019,-128.526 409.095,-119.981"/>
<polygon fill="black" stroke="black" points="409.979,-123.373 419.088,-117.962 408.593,-116.512 409.979,-123.373"/>
</a>
<a xlink:href="http://latin.omdoc.org/foundations/minimal?STTIFOLEQ-ZF?[http://latin.omdoc.org/logics/proof_theory?SIFOLEQExt]" class="[http://latin.omdoc.org/logics/proof_theory?SIFOLEQExt]">
<text text-anchor="middle" x="479.936" y="-146.3" font-family="Times New Roman,serif" font-size="14.00">[http://latin.omdoc.org/logics/proof_theory?SIFOLEQExt]</text>
</a>
</g>
<!-- http://latin.omdoc.org/foundations/zfc?TypedZF -->
<g id="node5" class="node"><title>http://latin.omdoc.org/foundations/zfc?TypedZF</title>
<a xlink:href="http://latin.omdoc.org/foundations/zfc?TypedZF" class="graphtheory">
<ellipse fill="gray" stroke="black" cx="359.936" cy="-18" rx="45.244" ry="18"/>
<text text-anchor="middle" x="359.936" y="-14.3" font-family="Times New Roman,serif" font-size="14.00">TypedZF</text>
</a>
</g>
<!-- http://latin.omdoc.org/logics/proof_theory?SIFOLEQExt&#45;&gt;http://latin.omdoc.org/foundations/zfc?TypedZF -->
<g id="edge5" class="edge"><title>http://latin.omdoc.org/logics/proof_theory?SIFOLEQExt&#45;&gt;http://latin.omdoc.org/foundations/zfc?TypedZF</title>
<a xlink:href="http://latin.omdoc.org/foundations/minimal?SIFOLEQPFExt-ZF" class="graphview">
<path fill="none" stroke="black" d="M288.25,-175.854C277.504,-154.396 263.356,-116.948 276.936,-88 286.852,-66.8602 306.78,-49.952 324.624,-38.1645"/>
<polygon fill="black" stroke="black" points="326.562,-41.0803 333.163,-32.7932 322.835,-35.1551 326.562,-41.0803"/>
</a>
<a xlink:href="http://latin.omdoc.org/foundations/minimal?SIFOLEQPFExt-ZF" class="SIFOLEQPFExt&#45;ZF">
<text text-anchor="middle" x="334.436" y="-102.3" font-family="Times New Roman,serif" font-size="14.00">SIFOLEQPFExt&#45;ZF</text>
</a>
</g>
<!-- http://latin.omdoc.org/foundations/minimal?STTIFOLEQ -->
<g id="node7" class="node"><title>http://latin.omdoc.org/foundations/minimal?STTIFOLEQ</title>
<a xlink:href="http://latin.omdoc.org/foundations/minimal?STTIFOLEQ" class="graphtheory">
<ellipse fill="gray" stroke="black" cx="627.936" cy="-106" rx="60.1672" ry="18"/>
<text text-anchor="middle" x="627.936" y="-102.3" font-family="Times New Roman,serif" font-size="14.00">STTIFOLEQ</text>
</a>
</g>
<!-- http://latin.omdoc.org/logics/proof_theory?SIFOLEQExt&#45;&gt;http://latin.omdoc.org/foundations/minimal?STTIFOLEQ -->
<g id="edge7" class="edge"><title>http://latin.omdoc.org/logics/proof_theory?SIFOLEQExt&#45;&gt;http://latin.omdoc.org/foundations/minimal?STTIFOLEQ</title>
<a class="graphinclude">
<path fill="none" stroke="black" d="M329.372,-178.499C339.829,-174.332 351.682,-170.297 362.936,-168 378.241,-164.876 633.088,-169.24 643.936,-158 650.536,-151.161 649.294,-141.631 645.428,-132.658"/>
<polygon fill="black" stroke="black" points="648.433,-130.853 640.668,-123.644 642.243,-134.122 648.433,-130.853"/>
</a>
</g>
<!-- http://latin.omdoc.org/logics/proof_theory?SFOLEQExt -->
<g id="node9" class="node"><title>http://latin.omdoc.org/logics/proof_theory?SFOLEQExt</title>
<a xlink:href="http://latin.omdoc.org/logics/proof_theory?SFOLEQExt" class="graphtheory">
<ellipse fill="gray" stroke="black" cx="120.936" cy="-106" rx="57.2688" ry="18"/>
<text text-anchor="middle" x="120.936" y="-102.3" font-family="Times New Roman,serif" font-size="14.00">SFOLEQExt</text>
</a>
</g>
<!-- http://latin.omdoc.org/logics/proof_theory?SIFOLEQExt&#45;&gt;http://latin.omdoc.org/logics/proof_theory?SFOLEQExt -->
<g id="edge9" class="edge"><title>http://latin.omdoc.org/logics/proof_theory?SIFOLEQExt&#45;&gt;http://latin.omdoc.org/logics/proof_theory?SFOLEQExt</title>
<a class="graphinclude">
<path fill="none" stroke="black" d="M241.569,-187.065C215.415,-182.275 184.891,-173.623 160.936,-158 151.079,-151.572 142.6,-141.884 136.018,-132.674"/>
<polygon fill="black" stroke="black" points="138.767,-130.488 130.306,-124.111 132.944,-134.372 138.767,-130.488"/>
</a>
</g>
<!-- http://latin.omdoc.org/foundations/minimal?STTIFOLEQ&#45;&gt;http://latin.omdoc.org/foundations/zfc?TypedZF -->
<g id="edge37" class="edge"><title>http://latin.omdoc.org/foundations/minimal?STTIFOLEQ&#45;&gt;http://latin.omdoc.org/foundations/zfc?TypedZF</title>
<a xlink:href="http://latin.omdoc.org/foundations/minimal?STTIFOLEQ-ZF" class="graphview">
<path fill="none" stroke="black" d="M588.391,-92.3104C539.114,-76.4975 455.162,-49.5577 403.907,-33.1102"/>
<polygon fill="black" stroke="black" points="404.703,-29.69 394.112,-29.967 402.564,-36.3552 404.703,-29.69"/>
</a>
<a xlink:href="http://latin.omdoc.org/foundations/minimal?STTIFOLEQ-ZF" class="STTIFOLEQ&#45;ZF">
<text text-anchor="middle" x="567.936" y="-58.3" font-family="Times New Roman,serif" font-size="14.00">STTIFOLEQ&#45;ZF</text>
</a>
</g>
<!-- http://latin.omdoc.org/logics/proof_theory?SEqualExt -->
<g id="node11" class="node"><title>http://latin.omdoc.org/logics/proof_theory?SEqualExt</title>
<a xlink:href="http://latin.omdoc.org/logics/proof_theory?SEqualExt" class="graphtheory">
<ellipse fill="gray" stroke="black" cx="134.936" cy="-268" rx="48.6179" ry="18"/>
<text text-anchor="middle" x="134.936" y="-264.3" font-family="Times New Roman,serif" font-size="14.00">SEqualExt</text>
</a>
</g>
<!-- http://latin.omdoc.org/logics/proof_theory?SEqualExt&#45;&gt;http://latin.omdoc.org/logics/proof_theory?SIFOLEQExt -->
<g id="edge11" class="edge"><title>http://latin.omdoc.org/logics/proof_theory?SEqualExt&#45;&gt;http://latin.omdoc.org/logics/proof_theory?SIFOLEQExt</title>
<a class="graphinclude">
<path fill="none" stroke="black" d="M164.832,-253.794C190.43,-242.487 227.565,-226.084 256.111,-213.475"/>
<polygon fill="black" stroke="black" points="257.7,-216.599 265.434,-209.357 254.872,-210.196 257.7,-216.599"/>
</a>
</g>
<!-- http://latin.omdoc.org/logics/proof_theory?SEqualExt&#45;&gt;http://latin.omdoc.org/foundations/zfc?TypedZF -->
<g id="edge35" class="edge"><title>http://latin.omdoc.org/logics/proof_theory?SEqualExt&#45;&gt;http://latin.omdoc.org/foundations/zfc?TypedZF</title>
<a xlink:href="http://latin.omdoc.org/foundations/minimal?SEqualPFExt-ZF" class="graphview">
<path fill="none" stroke="black" d="M115.26,-251.409C92.7972,-232.218 57.306,-197.305 42.9357,-158 35.5699,-137.853 44.6515,-97.4796 53.9357,-88 88.5345,-52.673 228.025,-32.7448 306.184,-24.1452"/>
<polygon fill="black" stroke="black" points="306.757,-27.6038 316.326,-23.055 306.009,-20.6439 306.757,-27.6038"/>
</a>
<a xlink:href="http://latin.omdoc.org/foundations/minimal?SEqualPFExt-ZF" class="SEqualPFExt&#45;ZF">
<text text-anchor="middle" x="91.4357" y="-146.3" font-family="Times New Roman,serif" font-size="14.00">SEqualPFExt&#45;ZF</text>
</a>
</g>
<!-- http://latin.omdoc.org/logics/proof_theory?SInequal -->
<g id="node13" class="node"><title>http://latin.omdoc.org/logics/proof_theory?SInequal</title>
<a xlink:href="http://latin.omdoc.org/logics/proof_theory?SInequal" class="graphtheory">
<ellipse fill="gray" stroke="black" cx="243.936" cy="-268" rx="42.3701" ry="18"/>
<text text-anchor="middle" x="243.936" y="-264.3" font-family="Times New Roman,serif" font-size="14.00">SInequal</text>
</a>
</g>
<!-- http://latin.omdoc.org/logics/proof_theory?SInequal&#45;&gt;http://latin.omdoc.org/logics/proof_theory?SIFOLEQExt -->
<g id="edge13" class="edge"><title>http://latin.omdoc.org/logics/proof_theory?SInequal&#45;&gt;http://latin.omdoc.org/logics/proof_theory?SIFOLEQExt</title>
<a class="graphinclude">
<path fill="none" stroke="black" d="M256.189,-250.662C262.996,-241.586 271.607,-230.105 279.238,-219.931"/>
<polygon fill="black" stroke="black" points="282.156,-221.873 285.356,-211.773 276.556,-217.673 282.156,-221.873"/>
</a>
</g>
<!-- http://latin.omdoc.org/logics/proof_theory?SInequal&#45;&gt;http://latin.omdoc.org/foundations/zfc?TypedZF -->
<g id="edge33" class="edge"><title>http://latin.omdoc.org/logics/proof_theory?SInequal&#45;&gt;http://latin.omdoc.org/foundations/zfc?TypedZF</title>
<a xlink:href="http://latin.omdoc.org/foundations/minimal?SInequalPF-ZF" class="graphview">
<path fill="none" stroke="black" d="M227.079,-251.28C203.889,-227.651 166.946,-181.535 184.936,-142 209.959,-87.0076 273.858,-52.2344 317.113,-34.1919"/>
<polygon fill="black" stroke="black" points="318.584,-37.3725 326.547,-30.3838 315.964,-30.8814 318.584,-37.3725"/>
</a>
<a xlink:href="http://latin.omdoc.org/foundations/minimal?SInequalPF-ZF" class="SInequalPF&#45;ZF">
<text text-anchor="middle" x="228.436" y="-146.3" font-family="Times New Roman,serif" font-size="14.00">SInequalPF&#45;ZF</text>
</a>
</g>
<!-- http://latin.omdoc.org/logics/proof_theory?SIFOLExt -->
<g id="node15" class="node"><title>http://latin.omdoc.org/logics/proof_theory?SIFOLExt</title>
<a xlink:href="http://latin.omdoc.org/logics/proof_theory?SIFOLExt" class="graphtheory">
<ellipse fill="gray" stroke="black" cx="390.936" cy="-268" rx="48.6179" ry="18"/>
<text text-anchor="middle" x="390.936" y="-264.3" font-family="Times New Roman,serif" font-size="14.00">SIFOLExt</text>
</a>
</g>
<!-- http://latin.omdoc.org/logics/proof_theory?SIFOLExt&#45;&gt;http://latin.omdoc.org/logics/proof_theory?SIFOLEQExt -->
<g id="edge15" class="edge"><title>http://latin.omdoc.org/logics/proof_theory?SIFOLExt&#45;&gt;http://latin.omdoc.org/logics/proof_theory?SIFOLEQExt</title>
<a class="graphinclude">
<path fill="none" stroke="black" d="M370.756,-251.377C357.895,-241.42 341.028,-228.362 326.766,-217.32"/>
<polygon fill="black" stroke="black" points="328.77,-214.445 318.72,-211.091 324.485,-219.98 328.77,-214.445"/>
</a>
</g>
<!-- http://latin.omdoc.org/logics/proof_theory?SIFOLExt&#45;&gt;http://latin.omdoc.org/foundations/zfc?TypedZF -->
<g id="edge31" class="edge"><title>http://latin.omdoc.org/logics/proof_theory?SIFOLExt&#45;&gt;http://latin.omdoc.org/foundations/zfc?TypedZF</title>
<a xlink:href="http://latin.omdoc.org/foundations/minimal?SIFOLPFExt-ZF" class="graphview">
<path fill="none" stroke="black" d="M435.064,-260.392C534.941,-243.462 764.555,-192.328 696.936,-88 666.707,-41.3604 502.286,-26.0658 414.787,-21.1913"/>
<polygon fill="black" stroke="black" points="414.94,-17.6946 404.769,-20.66 414.569,-24.6847 414.94,-17.6946"/>
</a>
<a xlink:href="http://latin.omdoc.org/foundations/minimal?SIFOLPFExt-ZF" class="SIFOLPFExt&#45;ZF">
<text text-anchor="middle" x="754.436" y="-146.3" font-family="Times New Roman,serif" font-size="14.00">SIFOLPFExt&#45;ZF</text>
</a>
</g>
<!-- http://cds.omdoc.org/urtheories?LF -->
<g id="node17" class="node"><title>http://cds.omdoc.org/urtheories?LF</title>
<a xlink:href="http://cds.omdoc.org/urtheories?LF" class="graphtheory">
<ellipse fill="gray" stroke="black" cx="313.936" cy="-342" rx="27" ry="18"/>
<text text-anchor="middle" x="313.936" y="-338.3" font-family="Times New Roman,serif" font-size="14.00">LF</text>
</a>
</g>
<!-- http://cds.omdoc.org/urtheories?LF&#45;&gt;http://latin.omdoc.org/logics/proof_theory?SIFOLEQExt -->
<g id="edge17" class="edge"><title>http://cds.omdoc.org/urtheories?LF&#45;&gt;http://latin.omdoc.org/logics/proof_theory?SIFOLEQExt</title>
<a class="graphmeta">
<path fill="none" stroke="black" d="M312.069,-323.966C309.338,-299.045 304.223,-252.374 300.953,-222.537"/>
<polygon fill="black" stroke="black" points="304.409,-221.937 299.84,-212.378 297.45,-222.7 304.409,-221.937"/>
</a>
</g>
<!-- http://cds.omdoc.org/urtheories?LF&#45;&gt;http://latin.omdoc.org/foundations/zfc?TypedZF -->
<g id="edge25" class="edge"><title>http://cds.omdoc.org/urtheories?LF&#45;&gt;http://latin.omdoc.org/foundations/zfc?TypedZF</title>
<a class="graphmeta">
<path fill="none" stroke="black" d="M340.847,-340.096C446.606,-336.192 827.936,-318.672 827.936,-269 827.936,-269 827.936,-269 827.936,-105 827.936,-63.3176 537.051,-33.9055 413.939,-23.3239"/>
<polygon fill="black" stroke="black" points="414.224,-19.8356 403.964,-22.4762 413.632,-26.8105 414.224,-19.8356"/>
</a>
</g>
<!-- http://cds.omdoc.org/urtheories?LF&#45;&gt;http://latin.omdoc.org/foundations/minimal?STTIFOLEQ -->
<g id="edge23" class="edge"><title>http://cds.omdoc.org/urtheories?LF&#45;&gt;http://latin.omdoc.org/foundations/minimal?STTIFOLEQ</title>
<a class="graphmeta">
<path fill="none" stroke="black" d="M340.072,-336.85C408.373,-324.411 591.684,-280.41 660.936,-158 666.051,-148.957 662.343,-139.322 655.844,-130.889"/>
<polygon fill="black" stroke="black" points="658.245,-128.324 648.955,-123.23 653.041,-133.006 658.245,-128.324"/>
</a>
</g>
<!-- http://cds.omdoc.org/urtheories?LF&#45;&gt;http://latin.omdoc.org/logics/proof_theory?SFOLEQExt -->
<g id="edge21" class="edge"><title>http://cds.omdoc.org/urtheories?LF&#45;&gt;http://latin.omdoc.org/logics/proof_theory?SFOLEQExt</title>
<a class="graphmeta">
<path fill="none" stroke="black" d="M286.764,-341.638C223.715,-341.399 69.1779,-330.449 20.9357,-232 3.26504,-195.939 -10.6808,-174.479 12.9357,-142 23.2552,-127.808 39.4586,-119.254 56.2056,-114.133"/>
<polygon fill="black" stroke="black" points="57.3276,-117.456 66.0883,-111.498 55.5241,-110.692 57.3276,-117.456"/>
</a>
</g>
<!-- http://cds.omdoc.org/urtheories?LF&#45;&gt;http://latin.omdoc.org/logics/proof_theory?SEqualExt -->
<g id="edge19" class="edge"><title>http://cds.omdoc.org/urtheories?LF&#45;&gt;http://latin.omdoc.org/logics/proof_theory?SEqualExt</title>
<a class="graphmeta">
<path fill="none" stroke="black" d="M291.265,-331.881C262.372,-320.259 211.891,-299.954 176.118,-285.565"/>
<polygon fill="black" stroke="black" points="177.032,-282.16 166.448,-281.675 174.42,-288.654 177.032,-282.16"/>
</a>
</g>
<!-- http://cds.omdoc.org/urtheories?LF&#45;&gt;http://latin.omdoc.org/logics/proof_theory?SInequal -->
<g id="edge27" class="edge"><title>http://cds.omdoc.org/urtheories?LF&#45;&gt;http://latin.omdoc.org/logics/proof_theory?SInequal</title>
<a class="graphmeta">
<path fill="none" stroke="black" d="M299.77,-326.43C290.227,-316.614 277.435,-303.457 266.503,-292.212"/>
<polygon fill="black" stroke="black" points="268.775,-289.528 259.295,-284.798 263.756,-294.408 268.775,-289.528"/>
</a>
</g>
<!-- http://cds.omdoc.org/urtheories?LF&#45;&gt;http://latin.omdoc.org/logics/proof_theory?SIFOLExt -->
<g id="edge29" class="edge"><title>http://cds.omdoc.org/urtheories?LF&#45;&gt;http://latin.omdoc.org/logics/proof_theory?SIFOLExt</title>
<a class="graphmeta">
<path fill="none" stroke="black" d="M329.148,-326.775C339.719,-316.891 354.04,-303.5 366.234,-292.098"/>
<polygon fill="black" stroke="black" points="368.964,-294.336 373.878,-284.95 364.184,-289.223 368.964,-294.336"/>
</a>
</g>
</g>
</svg>
