<?xml version="1.0" encoding="UTF-8" standalone="no"?>
<!DOCTYPE svg PUBLIC "-//W3C//DTD SVG 1.1//EN"
 "http://www.w3.org/Graphics/SVG/1.1/DTD/svg11.dtd">
<!-- Generated by graphviz version 2.28.0 (20110507.0327)
 -->
<!-- Title: MMT Pages: 1 -->
<svg
 viewBox="0.00 0.00 860.00 442.00" xmlns="http://www.w3.org/2000/svg" xmlns:xlink="http://www.w3.org/1999/xlink">
<g id="graph1" class="graph" transform="scale(1 1) rotate(0) translate(4 438)">
<title>MMT</title>
<polygon fill="white" stroke="white" points="-4,5 -4,-438 857,-438 857,5 -4,5"/>
<g id="graph2" class="cluster"><title>cluster_local</title>
<polygon fill="none" stroke="black" points="281,-168 281,-220 395,-220 395,-168 281,-168"/>
</g>
<!-- http://latin.omdoc.org/logics/proof_theory?SIFOLExt -->
<g id="node2" class="node"><title>http://latin.omdoc.org/logics/proof_theory?SIFOLExt</title>
<a xlink:href="http://latin.omdoc.org/logics/proof_theory?SIFOLExt" class="graphtheory">
<ellipse fill="none" stroke="black" cx="338" cy="-194" rx="48.6179" ry="18"/>
<text text-anchor="middle" x="338" y="-190.3" font-family="Times New Roman,serif" font-size="14.00">SIFOLExt</text>
</a>
</g>
<!-- http://latin.omdoc.org/foundations/zfc?TypedZF -->
<g id="node3" class="node"><title>http://latin.omdoc.org/foundations/zfc?TypedZF</title>
<a xlink:href="http://latin.omdoc.org/foundations/zfc?TypedZF" class="graphtheory">
<ellipse fill="gray" stroke="black" cx="246" cy="-18" rx="45.244" ry="18"/>
<text text-anchor="middle" x="246" y="-14.3" font-family="Times New Roman,serif" font-size="14.00">TypedZF</text>
</a>
</g>
<!-- http://latin.omdoc.org/logics/proof_theory?SIFOLExt&#45;&gt;http://latin.omdoc.org/foundations/zfc?TypedZF -->
<g id="edge3" class="edge"><title>http://latin.omdoc.org/logics/proof_theory?SIFOLExt&#45;&gt;http://latin.omdoc.org/foundations/zfc?TypedZF</title>
<a xlink:href="http://latin.omdoc.org/foundations/minimal?SIFOLPFExt-ZF" class="graphview">
<path fill="none" stroke="black" d="M333.631,-175.852C324.635,-140.934 304.281,-64.0264 297,-54 292.803,-48.2203 287.344,-43.0812 281.562,-38.64"/>
<polygon fill="black" stroke="black" points="283.172,-35.4953 272.969,-32.6391 279.164,-41.2343 283.172,-35.4953"/>
</a>
<a xlink:href="http://latin.omdoc.org/foundations/minimal?SIFOLPFExt-ZF" class="SIFOLPFExt&#45;ZF">
<text text-anchor="middle" x="368.5" y="-102.3" font-family="Times New Roman,serif" font-size="14.00">SIFOLPFExt&#45;ZF</text>
</a>
</g>
<!-- http://latin.omdoc.org/foundations/minimal?SIFOLEQPFExt&#45;ZF -->
<g id="node5" class="node"><title>http://latin.omdoc.org/foundations/minimal?SIFOLEQPFExt&#45;ZF</title>
<a xlink:href="http://latin.omdoc.org/foundations/minimal?SIFOLEQPFExt-ZF" class="graphtheory">
<ellipse fill="gray" stroke="black" cx="511" cy="-106" rx="85.2138" ry="18"/>
<text text-anchor="middle" x="511" y="-102.3" font-family="Times New Roman,serif" font-size="14.00">SIFOLEQPFExt&#45;ZF</text>
</a>
</g>
<!-- http://latin.omdoc.org/logics/proof_theory?SIFOLExt&#45;&gt;http://latin.omdoc.org/foundations/minimal?SIFOLEQPFExt&#45;ZF -->
<g id="edge5" class="edge"><title>http://latin.omdoc.org/logics/proof_theory?SIFOLExt&#45;&gt;http://latin.omdoc.org/foundations/minimal?SIFOLEQPFExt&#45;ZF</title>
<a xlink:href="http://latin.omdoc.org/foundations/minimal?SIFOLEQPFExt-ZF?[http://latin.omdoc.org/logics/proof_theory?SIFOLExt]" class="graphstructure">
<path fill="none" stroke="black" d="M335.713,-175.751C335.26,-164.733 336.718,-150.896 345,-142 348.433,-138.313 395.627,-128.567 438.817,-120.293"/>
<polygon fill="black" stroke="black" points="439.645,-123.698 448.814,-118.39 438.336,-116.822 439.645,-123.698"/>
</a>
<a xlink:href="http://latin.omdoc.org/foundations/minimal?SIFOLEQPFExt-ZF?[http://latin.omdoc.org/logics/proof_theory?SIFOLExt]" class="[http://latin.omdoc.org/logics/proof_theory?SIFOLExt]">
<text text-anchor="middle" x="500" y="-146.3" font-family="Times New Roman,serif" font-size="14.00">[http://latin.omdoc.org/logics/proof_theory?SIFOLExt]</text>
</a>
</g>
<!-- http://latin.omdoc.org/logics/proof_theory?SFOLExt -->
<g id="node7" class="node"><title>http://latin.omdoc.org/logics/proof_theory?SFOLExt</title>
<a xlink:href="http://latin.omdoc.org/logics/proof_theory?SFOLExt" class="graphtheory">
<ellipse fill="gray" stroke="black" cx="777" cy="-106" rx="46.2191" ry="18"/>
<text text-anchor="middle" x="777" y="-102.3" font-family="Times New Roman,serif" font-size="14.00">SFOLExt</text>
</a>
</g>
<!-- http://latin.omdoc.org/logics/proof_theory?SIFOLExt&#45;&gt;http://latin.omdoc.org/logics/proof_theory?SFOLExt -->
<g id="edge7" class="edge"><title>http://latin.omdoc.org/logics/proof_theory?SIFOLExt&#45;&gt;http://latin.omdoc.org/logics/proof_theory?SFOLExt</title>
<a class="graphinclude">
<path fill="none" stroke="black" d="M362.872,-178.489C371.221,-174.322 380.763,-170.289 390,-168 447.2,-153.824 598.339,-174.197 655,-158 668.781,-154.061 670.019,-148.076 683,-142 699.065,-134.48 717.227,-127.404 733.275,-121.608"/>
<polygon fill="black" stroke="black" points="734.702,-124.815 742.956,-118.172 732.361,-118.218 734.702,-124.815"/>
</a>
</g>
<!-- http://latin.omdoc.org/logics/proof_theory?SIFOLEQExt -->
<g id="node9" class="node"><title>http://latin.omdoc.org/logics/proof_theory?SIFOLEQExt</title>
<a xlink:href="http://latin.omdoc.org/logics/proof_theory?SIFOLEQExt" class="graphtheory">
<ellipse fill="gray" stroke="black" cx="214" cy="-106" rx="61.1419" ry="18"/>
<text text-anchor="middle" x="214" y="-102.3" font-family="Times New Roman,serif" font-size="14.00">SIFOLEQExt</text>
</a>
</g>
<!-- http://latin.omdoc.org/logics/proof_theory?SIFOLExt&#45;&gt;http://latin.omdoc.org/logics/proof_theory?SIFOLEQExt -->
<g id="edge9" class="edge"><title>http://latin.omdoc.org/logics/proof_theory?SIFOLExt&#45;&gt;http://latin.omdoc.org/logics/proof_theory?SIFOLEQExt</title>
<a class="graphinclude">
<path fill="none" stroke="black" d="M318.801,-177.222C305.861,-166.825 288.249,-153.127 272,-142 264.816,-137.081 256.937,-132.08 249.365,-127.456"/>
<polygon fill="black" stroke="black" points="251.051,-124.385 240.678,-122.228 247.441,-130.383 251.051,-124.385"/>
</a>
</g>
<!-- http://latin.omdoc.org/logics/proof_theory?SIFOLEQExt&#45;&gt;http://latin.omdoc.org/foundations/zfc?TypedZF -->
<g id="edge43" class="edge"><title>http://latin.omdoc.org/logics/proof_theory?SIFOLEQExt&#45;&gt;http://latin.omdoc.org/foundations/zfc?TypedZF</title>
<a xlink:href="http://latin.omdoc.org/foundations/minimal?SIFOLEQPFExt-ZF" class="graphview">
<path fill="none" stroke="black" d="M193.339,-88.5923C183.43,-78.6575 175.07,-65.6886 182,-54 186.838,-45.8402 194.324,-39.459 202.495,-34.5141"/>
<polygon fill="black" stroke="black" points="204.357,-37.4877 211.536,-29.696 201.065,-31.3101 204.357,-37.4877"/>
</a>
<a xlink:href="http://latin.omdoc.org/foundations/minimal?SIFOLEQPFExt-ZF" class="SIFOLEQPFExt&#45;ZF">
<text text-anchor="middle" x="239.5" y="-58.3" font-family="Times New Roman,serif" font-size="14.00">SIFOLEQPFExt&#45;ZF</text>
</a>
</g>
<!-- http://latin.omdoc.org/logics/proof_theory?SIFOLEQ -->
<g id="node11" class="node"><title>http://latin.omdoc.org/logics/proof_theory?SIFOLEQ</title>
<a xlink:href="http://latin.omdoc.org/logics/proof_theory?SIFOLEQ" class="graphtheory">
<ellipse fill="gray" stroke="black" cx="121" cy="-342" rx="48.6179" ry="18"/>
<text text-anchor="middle" x="121" y="-338.3" font-family="Times New Roman,serif" font-size="14.00">SIFOLEQ</text>
</a>
</g>
<!-- http://latin.omdoc.org/logics/proof_theory?SIFOLEQ&#45;&gt;http://latin.omdoc.org/logics/proof_theory?SIFOLExt -->
<g id="edge11" class="edge"><title>http://latin.omdoc.org/logics/proof_theory?SIFOLEQ&#45;&gt;http://latin.omdoc.org/logics/proof_theory?SIFOLExt</title>
<a class="graphinclude">
<path fill="none" stroke="black" d="M143.405,-325.925C182.49,-299.629 263.175,-245.343 307.384,-215.599"/>
<polygon fill="black" stroke="black" points="309.373,-218.479 315.716,-209.993 305.466,-212.671 309.373,-218.479"/>
</a>
</g>
<!-- http://latin.omdoc.org/logics/proof_theory?SIFOLEQ&#45;&gt;http://latin.omdoc.org/foundations/zfc?TypedZF -->
<g id="edge39" class="edge"><title>http://latin.omdoc.org/logics/proof_theory?SIFOLEQ&#45;&gt;http://latin.omdoc.org/foundations/zfc?TypedZF</title>
<a xlink:href="http://latin.omdoc.org/foundations/minimal?SIFOLEQPF-ZF" class="graphview">
<path fill="none" stroke="black" d="M77.9992,-333.576C43.2204,-324.813 0,-306.4 0,-269 0,-269 0,-269 0,-105 0,-64.3034 121.487,-38.3344 193.712,-26.4915"/>
<polygon fill="black" stroke="black" points="194.669,-29.8829 203.991,-24.8466 193.563,-22.9709 194.669,-29.8829"/>
</a>
<a xlink:href="http://latin.omdoc.org/foundations/minimal?SIFOLEQPF-ZF" class="SIFOLEQPF&#45;ZF">
<text text-anchor="middle" x="48.5" y="-190.3" font-family="Times New Roman,serif" font-size="14.00">SIFOLEQPF&#45;ZF</text>
</a>
</g>
<!-- http://latin.omdoc.org/logics/proof_theory?SExistsUnique -->
<g id="node15" class="node"><title>http://latin.omdoc.org/logics/proof_theory?SExistsUnique</title>
<a xlink:href="http://latin.omdoc.org/logics/proof_theory?SExistsUnique" class="graphtheory">
<ellipse fill="gray" stroke="black" cx="128" cy="-268" rx="63.5411" ry="18"/>
<text text-anchor="middle" x="128" y="-264.3" font-family="Times New Roman,serif" font-size="14.00">SExistsUnique</text>
</a>
</g>
<!-- http://latin.omdoc.org/logics/proof_theory?SIFOLEQ&#45;&gt;http://latin.omdoc.org/logics/proof_theory?SExistsUnique -->
<g id="edge41" class="edge"><title>http://latin.omdoc.org/logics/proof_theory?SIFOLEQ&#45;&gt;http://latin.omdoc.org/logics/proof_theory?SExistsUnique</title>
<a class="graphinclude">
<path fill="none" stroke="black" d="M122.659,-323.937C123.458,-315.719 124.436,-305.66 125.336,-296.406"/>
<polygon fill="black" stroke="black" points="128.82,-296.732 126.304,-286.441 121.853,-296.055 128.82,-296.732"/>
</a>
</g>
<!-- http://latin.omdoc.org/logics/proof_theory?SForallExt -->
<g id="node13" class="node"><title>http://latin.omdoc.org/logics/proof_theory?SForallExt</title>
<a xlink:href="http://latin.omdoc.org/logics/proof_theory?SForallExt" class="graphtheory">
<ellipse fill="gray" stroke="black" cx="462" cy="-268" rx="49.0941" ry="18"/>
<text text-anchor="middle" x="462" y="-264.3" font-family="Times New Roman,serif" font-size="14.00">SForallExt</text>
</a>
</g>
<!-- http://latin.omdoc.org/logics/proof_theory?SForallExt&#45;&gt;http://latin.omdoc.org/logics/proof_theory?SIFOLExt -->
<g id="edge13" class="edge"><title>http://latin.omdoc.org/logics/proof_theory?SForallExt&#45;&gt;http://latin.omdoc.org/logics/proof_theory?SIFOLExt</title>
<a class="graphinclude">
<path fill="none" stroke="black" d="M437.199,-252.356C425.61,-245.534 411.615,-237.323 399,-230 390.301,-224.95 380.883,-219.526 372.111,-214.491"/>
<polygon fill="black" stroke="black" points="373.676,-211.354 363.26,-209.417 370.195,-217.427 373.676,-211.354"/>
</a>
</g>
<!-- http://latin.omdoc.org/logics/proof_theory?SForallExt&#45;&gt;http://latin.omdoc.org/foundations/zfc?TypedZF -->
<g id="edge37" class="edge"><title>http://latin.omdoc.org/logics/proof_theory?SForallExt&#45;&gt;http://latin.omdoc.org/foundations/zfc?TypedZF</title>
<a xlink:href="http://latin.omdoc.org/foundations/minimal?SForallPFExt-ZF" class="graphview">
<path fill="none" stroke="black" d="M505.403,-259.52C571.714,-245.774 687.715,-211.324 659,-142 646.011,-110.642 634.985,-103.903 605,-88 506.935,-35.9902 375.3,-22.84 301.736,-19.7278"/>
<polygon fill="black" stroke="black" points="301.439,-16.2143 291.315,-19.3381 301.177,-23.2095 301.439,-16.2143"/>
</a>
<a xlink:href="http://latin.omdoc.org/foundations/minimal?SForallPFExt-ZF" class="SForallPFExt&#45;ZF">
<text text-anchor="middle" x="712.5" y="-146.3" font-family="Times New Roman,serif" font-size="14.00">SForallPFExt&#45;ZF</text>
</a>
</g>
<!-- http://latin.omdoc.org/logics/proof_theory?SExistsUnique&#45;&gt;http://latin.omdoc.org/logics/proof_theory?SIFOLExt -->
<g id="edge15" class="edge"><title>http://latin.omdoc.org/logics/proof_theory?SExistsUnique&#45;&gt;http://latin.omdoc.org/logics/proof_theory?SIFOLExt</title>
<a class="graphinclude">
<path fill="none" stroke="black" d="M156.072,-251.667C171.31,-243.995 190.723,-235.249 209,-230 241.745,-220.596 252.313,-229.605 285,-220 290.815,-218.291 296.795,-216.024 302.546,-213.55"/>
<polygon fill="black" stroke="black" points="304.303,-216.596 311.942,-209.255 301.392,-210.229 304.303,-216.596"/>
</a>
</g>
<!-- http://latin.omdoc.org/logics/proof_theory?SExistsUnique&#45;&gt;http://latin.omdoc.org/foundations/zfc?TypedZF -->
<g id="edge35" class="edge"><title>http://latin.omdoc.org/logics/proof_theory?SExistsUnique&#45;&gt;http://latin.omdoc.org/foundations/zfc?TypedZF</title>
<a xlink:href="http://latin.omdoc.org/foundations/minimal?SExistsUniquePF-ZF" class="graphview">
<path fill="none" stroke="black" d="M124.976,-249.777C119.989,-216.092 113.398,-140.223 144,-88 157.903,-64.2739 183.585,-46.9709 205.699,-35.6261"/>
<polygon fill="black" stroke="black" points="207.463,-38.6599 214.914,-31.1275 204.392,-32.3696 207.463,-38.6599"/>
</a>
<a xlink:href="http://latin.omdoc.org/foundations/minimal?SExistsUniquePF-ZF" class="SExistsUniquePF&#45;ZF">
<text text-anchor="middle" x="185" y="-146.3" font-family="Times New Roman,serif" font-size="14.00">SExistsUniquePF&#45;ZF</text>
</a>
</g>
<!-- http://latin.omdoc.org/logics/proof_theory?PLExt -->
<g id="node17" class="node"><title>http://latin.omdoc.org/logics/proof_theory?PLExt</title>
<a xlink:href="http://latin.omdoc.org/logics/proof_theory?PLExt" class="graphtheory">
<ellipse fill="gray" stroke="black" cx="323" cy="-342" rx="33.1991" ry="18"/>
<text text-anchor="middle" x="323" y="-338.3" font-family="Times New Roman,serif" font-size="14.00">PLExt</text>
</a>
</g>
<!-- http://latin.omdoc.org/logics/proof_theory?PLExt&#45;&gt;http://latin.omdoc.org/logics/proof_theory?SIFOLExt -->
<g id="edge17" class="edge"><title>http://latin.omdoc.org/logics/proof_theory?PLExt&#45;&gt;http://latin.omdoc.org/logics/proof_theory?SIFOLExt</title>
<a class="graphinclude">
<path fill="none" stroke="black" d="M324.75,-323.966C327.31,-299.045 332.105,-252.374 335.171,-222.537"/>
<polygon fill="black" stroke="black" points="338.674,-222.683 336.215,-212.378 331.711,-221.968 338.674,-222.683"/>
</a>
</g>
<!-- http://cds.omdoc.org/urtheories?LF -->
<g id="node19" class="node"><title>http://cds.omdoc.org/urtheories?LF</title>
<a xlink:href="http://cds.omdoc.org/urtheories?LF" class="graphtheory">
<ellipse fill="gray" stroke="black" cx="363" cy="-416" rx="27" ry="18"/>
<text text-anchor="middle" x="363" y="-412.3" font-family="Times New Roman,serif" font-size="14.00">LF</text>
</a>
</g>
<!-- http://cds.omdoc.org/urtheories?LF&#45;&gt;http://latin.omdoc.org/logics/proof_theory?SIFOLExt -->
<g id="edge19" class="edge"><title>http://cds.omdoc.org/urtheories?LF&#45;&gt;http://latin.omdoc.org/logics/proof_theory?SIFOLExt</title>
<a class="graphmeta">
<path fill="none" stroke="black" d="M363.792,-397.665C364.246,-386.839 364.771,-372.61 365,-360 365.291,-344.003 366.347,-339.943 365,-324 361.432,-281.772 358.932,-271.198 349,-230 348.351,-227.306 347.604,-224.518 346.813,-221.744"/>
<polygon fill="black" stroke="black" points="350.096,-220.51 343.84,-211.96 343.398,-222.545 350.096,-220.51"/>
</a>
</g>
<!-- http://cds.omdoc.org/urtheories?LF&#45;&gt;http://latin.omdoc.org/foundations/zfc?TypedZF -->
<g id="edge23" class="edge"><title>http://cds.omdoc.org/urtheories?LF&#45;&gt;http://latin.omdoc.org/foundations/zfc?TypedZF</title>
<a class="graphmeta">
<path fill="none" stroke="black" d="M389.987,-413.898C492.501,-409.36 852,-390.089 852,-343 852,-343 852,-343 852,-105 852,-49.6766 450.976,-27.4516 301.381,-21.0855"/>
<polygon fill="black" stroke="black" points="301.191,-17.5746 291.053,-20.6543 300.899,-24.5685 301.191,-17.5746"/>
</a>
</g>
<!-- http://cds.omdoc.org/urtheories?LF&#45;&gt;http://latin.omdoc.org/logics/proof_theory?SFOLExt -->
<g id="edge25" class="edge"><title>http://cds.omdoc.org/urtheories?LF&#45;&gt;http://latin.omdoc.org/logics/proof_theory?SFOLExt</title>
<a class="graphmeta">
<path fill="none" stroke="black" d="M389.861,-413.568C486.953,-408.04 814,-386.213 814,-343 814,-343 814,-343 814,-193 814,-171.195 803.839,-148.625 794.166,-132.081"/>
<polygon fill="black" stroke="black" points="797.137,-130.23 788.911,-123.553 791.178,-133.903 797.137,-130.23"/>
</a>
</g>
<!-- http://cds.omdoc.org/urtheories?LF&#45;&gt;http://latin.omdoc.org/logics/proof_theory?SIFOLEQExt -->
<g id="edge29" class="edge"><title>http://cds.omdoc.org/urtheories?LF&#45;&gt;http://latin.omdoc.org/logics/proof_theory?SIFOLEQExt</title>
<a class="graphmeta">
<path fill="none" stroke="black" d="M338.048,-409.104C307.851,-400.31 261,-380.607 261,-343 261,-343 261,-343 261,-193 261,-169.495 258.515,-162.492 247,-142 244.883,-138.232 242.273,-134.558 239.456,-131.092"/>
<polygon fill="black" stroke="black" points="241.908,-128.582 232.643,-123.441 236.68,-133.237 241.908,-128.582"/>
</a>
</g>
<!-- http://cds.omdoc.org/urtheories?LF&#45;&gt;http://latin.omdoc.org/logics/proof_theory?SIFOLEQ -->
<g id="edge33" class="edge"><title>http://cds.omdoc.org/urtheories?LF&#45;&gt;http://latin.omdoc.org/logics/proof_theory?SIFOLEQ</title>
<a class="graphmeta">
<path fill="none" stroke="black" d="M336.449,-412.633C300.809,-408.828 235.969,-399.684 184,-380 172.92,-375.803 161.539,-369.743 151.551,-363.739"/>
<polygon fill="black" stroke="black" points="153.156,-360.615 142.818,-358.294 149.452,-366.555 153.156,-360.615"/>
</a>
</g>
<!-- http://cds.omdoc.org/urtheories?LF&#45;&gt;http://latin.omdoc.org/logics/proof_theory?SForallExt -->
<g id="edge27" class="edge"><title>http://cds.omdoc.org/urtheories?LF&#45;&gt;http://latin.omdoc.org/logics/proof_theory?SForallExt</title>
<a class="graphmeta">
<path fill="none" stroke="black" d="M379.051,-401.237C385.666,-395.117 393.137,-387.588 399,-380 419.746,-353.151 438.213,-318.708 449.706,-295.361"/>
<polygon fill="black" stroke="black" points="452.987,-296.616 454.191,-286.09 446.686,-293.568 452.987,-296.616"/>
</a>
</g>
<!-- http://cds.omdoc.org/urtheories?LF&#45;&gt;http://latin.omdoc.org/logics/proof_theory?SExistsUnique -->
<g id="edge31" class="edge"><title>http://cds.omdoc.org/urtheories?LF&#45;&gt;http://latin.omdoc.org/logics/proof_theory?SExistsUnique</title>
<a class="graphmeta">
<path fill="none" stroke="black" d="M336.75,-410.639C312.3,-405.776 275.448,-396.358 247,-380 225.866,-367.848 179.146,-321.636 150.941,-292.808"/>
<polygon fill="black" stroke="black" points="153.34,-290.254 143.855,-285.533 148.325,-295.138 153.34,-290.254"/>
</a>
</g>
<!-- http://cds.omdoc.org/urtheories?LF&#45;&gt;http://latin.omdoc.org/logics/proof_theory?PLExt -->
<g id="edge21" class="edge"><title>http://cds.omdoc.org/urtheories?LF&#45;&gt;http://latin.omdoc.org/logics/proof_theory?PLExt</title>
<a class="graphmeta">
<path fill="none" stroke="black" d="M353.923,-398.662C348.982,-389.768 342.757,-378.563 337.19,-368.543"/>
<polygon fill="black" stroke="black" points="340.234,-366.815 332.318,-359.773 334.115,-370.214 340.234,-366.815"/>
</a>
</g>
</g>
</svg>
