<?xml version="1.0" encoding="UTF-8" standalone="no"?>
<!DOCTYPE svg PUBLIC "-//W3C//DTD SVG 1.1//EN"
 "http://www.w3.org/Graphics/SVG/1.1/DTD/svg11.dtd">
<!-- Generated by graphviz version 2.28.0 (20110507.0327)
 -->
<!-- Title: MMT Pages: 1 -->
<svg width="623pt" height="368pt"
 viewBox="0.00 0.00 623.00 368.00" xmlns="http://www.w3.org/2000/svg" xmlns:xlink="http://www.w3.org/1999/xlink">
<g id="graph1" class="graph" transform="scale(1 1) rotate(0) translate(4 364)">
<title>MMT</title>
<polygon fill="white" stroke="white" points="-4,5 -4,-364 620,-364 620,5 -4,5"/>
<g id="graph2" class="cluster"><title>cluster_local</title>
<polygon fill="none" stroke="black" points="161,-168 161,-220 261,-220 261,-168 161,-168"/>
</g>
<!-- http://latin.omdoc.org/logics/proof_theory?SInequal -->
<g id="node2" class="node"><title>http://latin.omdoc.org/logics/proof_theory?SInequal</title>
<a xlink:href="http://latin.omdoc.org/logics/proof_theory?SInequal" class="graphtheory">
<ellipse fill="none" stroke="black" cx="211" cy="-194" rx="42.3701" ry="18"/>
<text text-anchor="middle" x="211" y="-190.3" font-family="Times New Roman,serif" font-size="14.00">SInequal</text>
</a>
</g>
<!-- http://latin.omdoc.org/foundations/minimal?SIFOLEQPFExt&#45;ZF -->
<g id="node3" class="node"><title>http://latin.omdoc.org/foundations/minimal?SIFOLEQPFExt&#45;ZF</title>
<a xlink:href="http://latin.omdoc.org/foundations/minimal?SIFOLEQPFExt-ZF" class="graphtheory">
<ellipse fill="gray" stroke="black" cx="362" cy="-106" rx="85.2138" ry="18"/>
<text text-anchor="middle" x="362" y="-102.3" font-family="Times New Roman,serif" font-size="14.00">SIFOLEQPFExt&#45;ZF</text>
</a>
</g>
<!-- http://latin.omdoc.org/logics/proof_theory?SInequal&#45;&gt;http://latin.omdoc.org/foundations/minimal?SIFOLEQPFExt&#45;ZF -->
<g id="edge3" class="edge"><title>http://latin.omdoc.org/logics/proof_theory?SInequal&#45;&gt;http://latin.omdoc.org/foundations/minimal?SIFOLEQPFExt&#45;ZF</title>
<a xlink:href="http://latin.omdoc.org/foundations/minimal?SIFOLEQPFExt-ZF?[http://latin.omdoc.org/logics/proof_theory?SInequal]" class="graphstructure">
<path fill="none" stroke="black" d="M206.457,-176.058C204.613,-165.169 204.421,-151.361 212,-142 217.268,-135.493 253.275,-126.978 288.687,-119.975"/>
<polygon fill="black" stroke="black" points="289.484,-123.386 298.633,-118.043 288.149,-116.514 289.484,-123.386"/>
</a>
<a xlink:href="http://latin.omdoc.org/foundations/minimal?SIFOLEQPFExt-ZF?[http://latin.omdoc.org/logics/proof_theory?SInequal]" class="[http://latin.omdoc.org/logics/proof_theory?SInequal]">
<text text-anchor="middle" x="362" y="-146.3" font-family="Times New Roman,serif" font-size="14.00">[http://latin.omdoc.org/logics/proof_theory?SInequal]</text>
</a>
</g>
<!-- http://latin.omdoc.org/foundations/zfc?TypedZF -->
<g id="node5" class="node"><title>http://latin.omdoc.org/foundations/zfc?TypedZF</title>
<a xlink:href="http://latin.omdoc.org/foundations/zfc?TypedZF" class="graphtheory">
<ellipse fill="gray" stroke="black" cx="172" cy="-18" rx="45.244" ry="18"/>
<text text-anchor="middle" x="172" y="-14.3" font-family="Times New Roman,serif" font-size="14.00">TypedZF</text>
</a>
</g>
<!-- http://latin.omdoc.org/logics/proof_theory?SInequal&#45;&gt;http://latin.omdoc.org/foundations/zfc?TypedZF -->
<g id="edge5" class="edge"><title>http://latin.omdoc.org/logics/proof_theory?SInequal&#45;&gt;http://latin.omdoc.org/foundations/zfc?TypedZF</title>
<a xlink:href="http://latin.omdoc.org/foundations/minimal?SInequalPF-ZF" class="graphview">
<path fill="none" stroke="black" d="M201.877,-176.249C194.903,-162.603 185.71,-142.615 181,-124 174.435,-98.0533 172.434,-67.4744 171.925,-46.0296"/>
<polygon fill="black" stroke="black" points="175.424,-45.957 171.78,-36.0088 168.425,-46.0585 175.424,-45.957"/>
</a>
<a xlink:href="http://latin.omdoc.org/foundations/minimal?SInequalPF-ZF" class="SInequalPF&#45;ZF">
<text text-anchor="middle" x="224.5" y="-102.3" font-family="Times New Roman,serif" font-size="14.00">SInequalPF&#45;ZF</text>
</a>
</g>
<!-- http://latin.omdoc.org/logics/proof_theory?SIFOLEQExt -->
<g id="node7" class="node"><title>http://latin.omdoc.org/logics/proof_theory?SIFOLEQExt</title>
<a xlink:href="http://latin.omdoc.org/logics/proof_theory?SIFOLEQExt" class="graphtheory">
<ellipse fill="gray" stroke="black" cx="526" cy="-106" rx="61.1419" ry="18"/>
<text text-anchor="middle" x="526" y="-102.3" font-family="Times New Roman,serif" font-size="14.00">SIFOLEQExt</text>
</a>
</g>
<!-- http://latin.omdoc.org/logics/proof_theory?SInequal&#45;&gt;http://latin.omdoc.org/logics/proof_theory?SIFOLEQExt -->
<g id="edge7" class="edge"><title>http://latin.omdoc.org/logics/proof_theory?SInequal&#45;&gt;http://latin.omdoc.org/logics/proof_theory?SIFOLEQExt</title>
<a class="graphinclude">
<path fill="none" stroke="black" d="M233.052,-178.36C240.372,-174.239 248.762,-170.267 257,-168 284.339,-160.478 489.793,-175.631 512,-158 519.314,-152.193 523.027,-142.949 524.844,-133.916"/>
<polygon fill="black" stroke="black" points="528.313,-134.38 526.183,-124.001 521.376,-133.443 528.313,-134.38"/>
</a>
</g>
<!-- http://latin.omdoc.org/logics/proof_theory?SIFOLEQExt&#45;&gt;http://latin.omdoc.org/foundations/zfc?TypedZF -->
<g id="edge31" class="edge"><title>http://latin.omdoc.org/logics/proof_theory?SIFOLEQExt&#45;&gt;http://latin.omdoc.org/foundations/zfc?TypedZF</title>
<a xlink:href="http://latin.omdoc.org/foundations/minimal?SIFOLEQPFExt-ZF" class="graphview">
<path fill="none" stroke="black" d="M480.445,-93.9331C413.216,-77.6006 288.027,-47.1872 219.628,-30.5706"/>
<polygon fill="black" stroke="black" points="220.102,-27.0842 209.559,-28.1245 218.45,-33.8863 220.102,-27.0842"/>
</a>
<a xlink:href="http://latin.omdoc.org/foundations/minimal?SIFOLEQPFExt-ZF" class="SIFOLEQPFExt&#45;ZF">
<text text-anchor="middle" x="438.5" y="-58.3" font-family="Times New Roman,serif" font-size="14.00">SIFOLEQPFExt&#45;ZF</text>
</a>
</g>
<!-- http://latin.omdoc.org/logics/proof_theory?SEqual -->
<g id="node9" class="node"><title>http://latin.omdoc.org/logics/proof_theory?SEqual</title>
<a xlink:href="http://latin.omdoc.org/logics/proof_theory?SEqual" class="graphtheory">
<ellipse fill="gray" stroke="black" cx="36" cy="-268" rx="36.096" ry="18"/>
<text text-anchor="middle" x="36" y="-264.3" font-family="Times New Roman,serif" font-size="14.00">SEqual</text>
</a>
</g>
<!-- http://latin.omdoc.org/logics/proof_theory?SEqual&#45;&gt;http://latin.omdoc.org/logics/proof_theory?SInequal -->
<g id="edge9" class="edge"><title>http://latin.omdoc.org/logics/proof_theory?SEqual&#45;&gt;http://latin.omdoc.org/logics/proof_theory?SInequal</title>
<a class="graphinclude">
<path fill="none" stroke="black" d="M62.9602,-255.908C92.1933,-243.88 139.109,-224.578 172.28,-210.93"/>
<polygon fill="black" stroke="black" points="173.755,-214.108 181.671,-207.067 171.092,-207.635 173.755,-214.108"/>
</a>
</g>
<!-- http://latin.omdoc.org/logics/proof_theory?SEqual&#45;&gt;http://latin.omdoc.org/foundations/zfc?TypedZF -->
<g id="edge29" class="edge"><title>http://latin.omdoc.org/logics/proof_theory?SEqual&#45;&gt;http://latin.omdoc.org/foundations/zfc?TypedZF</title>
<a xlink:href="http://latin.omdoc.org/foundations/minimal?SEqualPF-ZF" class="graphview">
<path fill="none" stroke="black" d="M30.2011,-249.893C22.7722,-224.911 12.6826,-177.558 29,-142 50.8778,-94.3245 101.366,-58.1541 136.094,-37.7572"/>
<polygon fill="black" stroke="black" points="138.049,-40.6709 144.995,-32.6701 134.576,-34.5935 138.049,-40.6709"/>
</a>
<a xlink:href="http://latin.omdoc.org/foundations/minimal?SEqualPF-ZF" class="SEqualPF&#45;ZF">
<text text-anchor="middle" x="68" y="-146.3" font-family="Times New Roman,serif" font-size="14.00">SEqualPF&#45;ZF</text>
</a>
</g>
<!-- http://latin.omdoc.org/logics/syntax?SInequal -->
<g id="node11" class="node"><title>http://latin.omdoc.org/logics/syntax?SInequal</title>
<a xlink:href="http://latin.omdoc.org/logics/syntax?SInequal" class="graphtheory">
<ellipse fill="gray" stroke="black" cx="133" cy="-268" rx="42.3701" ry="18"/>
<text text-anchor="middle" x="133" y="-264.3" font-family="Times New Roman,serif" font-size="14.00">SInequal</text>
</a>
</g>
<!-- http://latin.omdoc.org/logics/syntax?SInequal&#45;&gt;http://latin.omdoc.org/logics/proof_theory?SInequal -->
<g id="edge11" class="edge"><title>http://latin.omdoc.org/logics/syntax?SInequal&#45;&gt;http://latin.omdoc.org/logics/proof_theory?SInequal</title>
<a class="graphinclude">
<path fill="none" stroke="black" d="M149.925,-251.377C160.657,-241.47 174.715,-228.494 186.638,-217.488"/>
<polygon fill="black" stroke="black" points="189.134,-219.947 194.108,-210.592 184.386,-214.803 189.134,-219.947"/>
</a>
</g>
<!-- http://latin.omdoc.org/logics/syntax?SInequal&#45;&gt;http://latin.omdoc.org/foundations/zfc?TypedZF -->
<g id="edge27" class="edge"><title>http://latin.omdoc.org/logics/syntax?SInequal&#45;&gt;http://latin.omdoc.org/foundations/zfc?TypedZF</title>
<a xlink:href="http://latin.omdoc.org/foundations/minimal?SInequal-ZF" class="graphview">
<path fill="none" stroke="black" d="M126.145,-249.882C117.383,-225.677 104.324,-180.146 113,-142 121.161,-106.118 141.149,-68.4824 155.602,-44.44"/>
<polygon fill="black" stroke="black" points="158.769,-45.9719 161.024,-35.62 152.805,-42.3059 158.769,-45.9719"/>
</a>
<a xlink:href="http://latin.omdoc.org/foundations/minimal?SInequal-ZF" class="SInequal&#45;ZF">
<text text-anchor="middle" x="148" y="-146.3" font-family="Times New Roman,serif" font-size="14.00">SInequal&#45;ZF</text>
</a>
</g>
<!-- http://latin.omdoc.org/logics/proof_theory?NEG -->
<g id="node13" class="node"><title>http://latin.omdoc.org/logics/proof_theory?NEG</title>
<a xlink:href="http://latin.omdoc.org/logics/proof_theory?NEG" class="graphtheory">
<ellipse fill="gray" stroke="black" cx="222" cy="-268" rx="29.3722" ry="18"/>
<text text-anchor="middle" x="222" y="-264.3" font-family="Times New Roman,serif" font-size="14.00">NEG</text>
</a>
</g>
<!-- http://latin.omdoc.org/logics/proof_theory?NEG&#45;&gt;http://latin.omdoc.org/logics/proof_theory?SInequal -->
<g id="edge13" class="edge"><title>http://latin.omdoc.org/logics/proof_theory?NEG&#45;&gt;http://latin.omdoc.org/logics/proof_theory?SInequal</title>
<a class="graphinclude">
<path fill="none" stroke="black" d="M219.393,-249.937C218.138,-241.719 216.601,-231.66 215.187,-222.406"/>
<polygon fill="black" stroke="black" points="218.635,-221.797 213.665,-212.441 211.715,-222.855 218.635,-221.797"/>
</a>
</g>
<!-- http://cds.omdoc.org/urtheories?LF -->
<g id="node15" class="node"><title>http://cds.omdoc.org/urtheories?LF</title>
<a xlink:href="http://cds.omdoc.org/urtheories?LF" class="graphtheory">
<ellipse fill="gray" stroke="black" cx="258" cy="-342" rx="27" ry="18"/>
<text text-anchor="middle" x="258" y="-338.3" font-family="Times New Roman,serif" font-size="14.00">LF</text>
</a>
</g>
<!-- http://cds.omdoc.org/urtheories?LF&#45;&gt;http://latin.omdoc.org/logics/proof_theory?SInequal -->
<g id="edge15" class="edge"><title>http://cds.omdoc.org/urtheories?LF&#45;&gt;http://latin.omdoc.org/logics/proof_theory?SInequal</title>
<a class="graphmeta">
<path fill="none" stroke="black" d="M262.096,-323.916C265.767,-305.126 269.28,-274.367 260,-250 255.306,-237.675 246.443,-226.355 237.53,-217.23"/>
<polygon fill="black" stroke="black" points="239.757,-214.516 230.123,-210.108 234.906,-219.562 239.757,-214.516"/>
</a>
</g>
<!-- http://cds.omdoc.org/urtheories?LF&#45;&gt;http://latin.omdoc.org/foundations/zfc?TypedZF -->
<g id="edge19" class="edge"><title>http://cds.omdoc.org/urtheories?LF&#45;&gt;http://latin.omdoc.org/foundations/zfc?TypedZF</title>
<a class="graphmeta">
<path fill="none" stroke="black" d="M285.126,-341.288C368.437,-341.453 615,-336.258 615,-269 615,-269 615,-269 615,-105 615,-26.9534 346.674,-18.2989 227.681,-18.298"/>
<polygon fill="black" stroke="black" points="227.319,-14.7987 217.327,-18.32 227.334,-21.7987 227.319,-14.7987"/>
</a>
</g>
<!-- http://cds.omdoc.org/urtheories?LF&#45;&gt;http://latin.omdoc.org/logics/proof_theory?SIFOLEQExt -->
<g id="edge21" class="edge"><title>http://cds.omdoc.org/urtheories?LF&#45;&gt;http://latin.omdoc.org/logics/proof_theory?SIFOLEQExt</title>
<a class="graphmeta">
<path fill="none" stroke="black" d="M282.159,-333.61C338.418,-314.929 477.519,-259.901 532,-158 535.901,-150.703 536.185,-141.993 534.962,-133.855"/>
<polygon fill="black" stroke="black" points="538.357,-132.999 532.765,-124 531.525,-134.522 538.357,-132.999"/>
</a>
</g>
<!-- http://cds.omdoc.org/urtheories?LF&#45;&gt;http://latin.omdoc.org/logics/proof_theory?SEqual -->
<g id="edge25" class="edge"><title>http://cds.omdoc.org/urtheories?LF&#45;&gt;http://latin.omdoc.org/logics/proof_theory?SEqual</title>
<a class="graphmeta">
<path fill="none" stroke="black" d="M233.674,-333.827C199.597,-323.682 135.785,-304.329 82,-286 79.2801,-285.073 76.4779,-284.095 73.6623,-283.096"/>
<polygon fill="black" stroke="black" points="74.7324,-279.761 64.1381,-279.658 72.3557,-286.345 74.7324,-279.761"/>
</a>
</g>
<!-- http://cds.omdoc.org/urtheories?LF&#45;&gt;http://latin.omdoc.org/logics/syntax?SInequal -->
<g id="edge17" class="edge"><title>http://cds.omdoc.org/urtheories?LF&#45;&gt;http://latin.omdoc.org/logics/syntax?SInequal</title>
<a class="graphmeta">
<path fill="none" stroke="black" d="M238.193,-329.591C218.746,-318.39 188.734,-301.103 165.737,-287.856"/>
<polygon fill="black" stroke="black" points="167.403,-284.777 156.99,-282.818 163.909,-290.843 167.403,-284.777"/>
</a>
</g>
<!-- http://cds.omdoc.org/urtheories?LF&#45;&gt;http://latin.omdoc.org/logics/proof_theory?NEG -->
<g id="edge23" class="edge"><title>http://cds.omdoc.org/urtheories?LF&#45;&gt;http://latin.omdoc.org/logics/proof_theory?NEG</title>
<a class="graphmeta">
<path fill="none" stroke="black" d="M249.831,-324.662C245.429,-315.858 239.896,-304.792 234.925,-294.85"/>
<polygon fill="black" stroke="black" points="237.989,-293.152 230.386,-285.773 231.728,-296.282 237.989,-293.152"/>
</a>
</g>
</g>
</svg>
