<?xml version="1.0" encoding="UTF-8" standalone="no"?>
<!DOCTYPE svg PUBLIC "-//W3C//DTD SVG 1.1//EN"
 "http://www.w3.org/Graphics/SVG/1.1/DTD/svg11.dtd">
<!-- Generated by graphviz version 2.28.0 (20110507.0327)
 -->
<!-- Title: MMT Pages: 1 -->
<svg
 viewBox="0.00 0.00 202.00 260.00" xmlns="http://www.w3.org/2000/svg" xmlns:xlink="http://www.w3.org/1999/xlink">
<g id="graph1" class="graph" transform="scale(1 1) rotate(0) translate(4 256)">
<title>MMT</title>
<polygon fill="white" stroke="white" points="-4,5 -4,-256 199,-256 199,5 -4,5"/>
<g id="graph2" class="cluster"><title>cluster_local</title>
<polygon fill="none" stroke="black" points="8,-64 8,-116 170,-116 170,-64 8,-64"/>
</g>
<!-- http://latin.omdoc.org/logics/proof_theory?StructuredProofs -->
<g id="node2" class="node"><title>http://latin.omdoc.org/logics/proof_theory?StructuredProofs</title>
<a xlink:href="http://latin.omdoc.org/logics/proof_theory?StructuredProofs" class="graphtheory">
<ellipse fill="none" stroke="black" cx="89" cy="-90" rx="73.1654" ry="18"/>
<text text-anchor="middle" x="89" y="-86.3" font-family="Times New Roman,serif" font-size="14.00">StructuredProofs</text>
</a>
</g>
<!-- http://latin.omdoc.org/logics/proof_theory?IFOLEQExt -->
<g id="node3" class="node"><title>http://latin.omdoc.org/logics/proof_theory?IFOLEQExt</title>
<a xlink:href="http://latin.omdoc.org/logics/proof_theory?IFOLEQExt" class="graphtheory">
<ellipse fill="gray" stroke="black" cx="139" cy="-18" rx="55.3436" ry="18"/>
<text text-anchor="middle" x="139" y="-14.3" font-family="Times New Roman,serif" font-size="14.00">IFOLEQExt</text>
</a>
</g>
<!-- http://latin.omdoc.org/logics/proof_theory?StructuredProofs&#45;&gt;http://latin.omdoc.org/logics/proof_theory?IFOLEQExt -->
<g id="edge3" class="edge"><title>http://latin.omdoc.org/logics/proof_theory?StructuredProofs&#45;&gt;http://latin.omdoc.org/logics/proof_theory?IFOLEQExt</title>
<a class="graphinclude">
<path fill="none" stroke="black" d="M101.104,-72.055C107.122,-63.6287 114.514,-53.2798 121.167,-43.9663"/>
<polygon fill="black" stroke="black" points="124.044,-45.9607 127.008,-35.789 118.347,-41.892 124.044,-45.9607"/>
</a>
</g>
<!-- http://latin.omdoc.org/logics/proof_theory?BaseFOL -->
<g id="node5" class="node"><title>http://latin.omdoc.org/logics/proof_theory?BaseFOL</title>
<a xlink:href="http://latin.omdoc.org/logics/proof_theory?BaseFOL" class="graphtheory">
<ellipse fill="gray" stroke="black" cx="116" cy="-162" rx="46.2191" ry="18"/>
<text text-anchor="middle" x="116" y="-158.3" font-family="Times New Roman,serif" font-size="14.00">BaseFOL</text>
</a>
</g>
<!-- http://latin.omdoc.org/logics/proof_theory?BaseFOL&#45;&gt;http://latin.omdoc.org/logics/proof_theory?StructuredProofs -->
<g id="edge5" class="edge"><title>http://latin.omdoc.org/logics/proof_theory?BaseFOL&#45;&gt;http://latin.omdoc.org/logics/proof_theory?StructuredProofs</title>
<a class="graphinclude">
<path fill="none" stroke="black" d="M109.464,-144.055C106.425,-136.176 102.738,-126.617 99.3348,-117.794"/>
<polygon fill="black" stroke="black" points="102.528,-116.346 95.6633,-108.275 95.9966,-118.865 102.528,-116.346"/>
</a>
</g>
<!-- http://cds.omdoc.org/urtheories?LF -->
<g id="node7" class="node"><title>http://cds.omdoc.org/urtheories?LF</title>
<a xlink:href="http://cds.omdoc.org/urtheories?LF" class="graphtheory">
<ellipse fill="gray" stroke="black" cx="116" cy="-234" rx="27" ry="18"/>
<text text-anchor="middle" x="116" y="-230.3" font-family="Times New Roman,serif" font-size="14.00">LF</text>
</a>
</g>
<!-- http://cds.omdoc.org/urtheories?LF&#45;&gt;http://latin.omdoc.org/logics/proof_theory?StructuredProofs -->
<g id="edge7" class="edge"><title>http://cds.omdoc.org/urtheories?LF&#45;&gt;http://latin.omdoc.org/logics/proof_theory?StructuredProofs</title>
<a class="graphmeta">
<path fill="none" stroke="black" d="M97.1034,-220.94C84.2567,-211.538 68.3148,-197.207 61,-180 52.15,-159.181 61.2889,-134.59 71.4234,-116.539"/>
<polygon fill="black" stroke="black" points="74.5568,-118.12 76.7239,-107.749 68.5624,-114.505 74.5568,-118.12"/>
</a>
</g>
<!-- http://cds.omdoc.org/urtheories?LF&#45;&gt;http://latin.omdoc.org/logics/proof_theory?IFOLEQExt -->
<g id="edge9" class="edge"><title>http://cds.omdoc.org/urtheories?LF&#45;&gt;http://latin.omdoc.org/logics/proof_theory?IFOLEQExt</title>
<a class="graphmeta">
<path fill="none" stroke="black" d="M134.654,-220.834C147.383,-211.379 163.284,-197.031 171,-180 192.282,-133.023 190.737,-112.781 174,-64 171.483,-56.6628 167.226,-49.6004 162.531,-43.3322"/>
<polygon fill="black" stroke="black" points="165.021,-40.8485 155.98,-35.3258 159.604,-45.2815 165.021,-40.8485"/>
</a>
</g>
<!-- http://cds.omdoc.org/urtheories?LF&#45;&gt;http://latin.omdoc.org/logics/proof_theory?BaseFOL -->
<g id="edge11" class="edge"><title>http://cds.omdoc.org/urtheories?LF&#45;&gt;http://latin.omdoc.org/logics/proof_theory?BaseFOL</title>
<a class="graphmeta">
<path fill="none" stroke="black" d="M116,-215.697C116,-207.983 116,-198.712 116,-190.112"/>
<polygon fill="black" stroke="black" points="119.5,-190.104 116,-180.104 112.5,-190.104 119.5,-190.104"/>
</a>
</g>
</g>
</svg>
