<?xml version="1.0" encoding="UTF-8" standalone="no"?>
<!DOCTYPE svg PUBLIC "-//W3C//DTD SVG 1.1//EN"
 "http://www.w3.org/Graphics/SVG/1.1/DTD/svg11.dtd">
<!-- Generated by graphviz version 2.28.0 (20110507.0327)
 -->
<!-- Title: MMT Pages: 1 -->
<svg width="156pt" height="260pt"
 viewBox="0.00 0.00 156.00 260.00" xmlns="http://www.w3.org/2000/svg" xmlns:xlink="http://www.w3.org/1999/xlink">
<g id="graph1" class="graph" transform="scale(1 1) rotate(0) translate(4 256)">
<title>MMT</title>
<polygon fill="white" stroke="white" points="-4,5 -4,-256 153,-256 153,5 -4,5"/>
<g id="graph2" class="cluster"><title>cluster_local</title>
<polygon fill="none" stroke="black" points="24,-64 24,-116 94,-116 94,-64 24,-64"/>
</g>
<!-- http://latin.omdoc.org/logics/proof_theory?T -->
<g id="node2" class="node"><title>http://latin.omdoc.org/logics/proof_theory?T</title>
<a xlink:href="http://latin.omdoc.org/logics/proof_theory?T" class="graphtheory">
<ellipse fill="none" stroke="black" cx="59" cy="-90" rx="27" ry="18"/>
<text text-anchor="middle" x="59" y="-86.3" font-family="Times New Roman,serif" font-size="14.00">T</text>
</a>
</g>
<!-- http://latin.omdoc.org/logics/proof_theory?S5 -->
<g id="node3" class="node"><title>http://latin.omdoc.org/logics/proof_theory?S5</title>
<a xlink:href="http://latin.omdoc.org/logics/proof_theory?S5" class="graphtheory">
<ellipse fill="gray" stroke="black" cx="27" cy="-18" rx="27" ry="18"/>
<text text-anchor="middle" x="27" y="-14.3" font-family="Times New Roman,serif" font-size="14.00">S5</text>
</a>
</g>
<!-- http://latin.omdoc.org/logics/proof_theory?T&#45;&gt;http://latin.omdoc.org/logics/proof_theory?S5 -->
<g id="edge3" class="edge"><title>http://latin.omdoc.org/logics/proof_theory?T&#45;&gt;http://latin.omdoc.org/logics/proof_theory?S5</title>
<a class="graphinclude">
<path fill="none" stroke="black" d="M51.4164,-72.411C47.6305,-64.1292 42.9657,-53.9249 38.7312,-44.662"/>
<polygon fill="black" stroke="black" points="41.8699,-43.1095 34.5291,-35.4699 35.5036,-46.0199 41.8699,-43.1095"/>
</a>
</g>
<!-- http://latin.omdoc.org/logics/proof_theory?S4 -->
<g id="node5" class="node"><title>http://latin.omdoc.org/logics/proof_theory?S4</title>
<a xlink:href="http://latin.omdoc.org/logics/proof_theory?S4" class="graphtheory">
<ellipse fill="gray" stroke="black" cx="121" cy="-18" rx="27" ry="18"/>
<text text-anchor="middle" x="121" y="-14.3" font-family="Times New Roman,serif" font-size="14.00">S4</text>
</a>
</g>
<!-- http://latin.omdoc.org/logics/proof_theory?T&#45;&gt;http://latin.omdoc.org/logics/proof_theory?S4 -->
<g id="edge5" class="edge"><title>http://latin.omdoc.org/logics/proof_theory?T&#45;&gt;http://latin.omdoc.org/logics/proof_theory?S4</title>
<a class="graphinclude">
<path fill="none" stroke="black" d="M72.1486,-74.1548C80.533,-64.6885 91.5603,-52.2384 101.016,-41.5628"/>
<polygon fill="black" stroke="black" points="103.86,-43.6303 107.87,-33.8238 98.6199,-38.9891 103.86,-43.6303"/>
</a>
</g>
<!-- http://latin.omdoc.org/logics/syntax?ML -->
<g id="node7" class="node"><title>http://latin.omdoc.org/logics/syntax?ML</title>
<a xlink:href="http://latin.omdoc.org/logics/syntax?ML" class="graphtheory">
<ellipse fill="gray" stroke="black" cx="89" cy="-162" rx="27" ry="18"/>
<text text-anchor="middle" x="89" y="-158.3" font-family="Times New Roman,serif" font-size="14.00">ML</text>
</a>
</g>
<!-- http://latin.omdoc.org/logics/syntax?ML&#45;&gt;http://latin.omdoc.org/logics/proof_theory?T -->
<g id="edge7" class="edge"><title>http://latin.omdoc.org/logics/syntax?ML&#45;&gt;http://latin.omdoc.org/logics/proof_theory?T</title>
<a class="graphinclude">
<path fill="none" stroke="black" d="M81.8904,-144.411C78.3411,-136.129 73.9678,-125.925 69.998,-116.662"/>
<polygon fill="black" stroke="black" points="73.2148,-115.283 66.0585,-107.47 66.7808,-118.04 73.2148,-115.283"/>
</a>
</g>
<!-- http://cds.omdoc.org/urtheories?LF -->
<g id="node9" class="node"><title>http://cds.omdoc.org/urtheories?LF</title>
<a xlink:href="http://cds.omdoc.org/urtheories?LF" class="graphtheory">
<ellipse fill="gray" stroke="black" cx="61" cy="-234" rx="27" ry="18"/>
<text text-anchor="middle" x="61" y="-230.3" font-family="Times New Roman,serif" font-size="14.00">LF</text>
</a>
</g>
<!-- http://cds.omdoc.org/urtheories?LF&#45;&gt;http://latin.omdoc.org/logics/proof_theory?T -->
<g id="edge9" class="edge"><title>http://cds.omdoc.org/urtheories?LF&#45;&gt;http://latin.omdoc.org/logics/proof_theory?T</title>
<a class="graphmeta">
<path fill="none" stroke="black" d="M57.7517,-215.888C55.9542,-205.542 53.9053,-192.063 53,-180 51.4452,-159.282 53.1677,-135.837 55.1596,-118.212"/>
<polygon fill="black" stroke="black" points="58.6604,-118.42 56.4078,-108.067 51.7128,-117.565 58.6604,-118.42"/>
</a>
</g>
<!-- http://cds.omdoc.org/urtheories?LF&#45;&gt;http://latin.omdoc.org/logics/proof_theory?S5 -->
<g id="edge11" class="edge"><title>http://cds.omdoc.org/urtheories?LF&#45;&gt;http://latin.omdoc.org/logics/proof_theory?S5</title>
<a class="graphmeta">
<path fill="none" stroke="black" d="M53.1811,-216.425C43.1573,-194.172 26.3178,-153.133 20,-116 16.1235,-93.2163 18.2185,-87.0423 20,-64 20.4495,-58.1863 21.2209,-51.9876 22.0915,-46.1082"/>
<polygon fill="black" stroke="black" points="25.5812,-46.4519 23.7176,-36.0223 18.6705,-45.3377 25.5812,-46.4519"/>
</a>
</g>
<!-- http://cds.omdoc.org/urtheories?LF&#45;&gt;http://latin.omdoc.org/logics/proof_theory?S4 -->
<g id="edge15" class="edge"><title>http://cds.omdoc.org/urtheories?LF&#45;&gt;http://latin.omdoc.org/logics/proof_theory?S4</title>
<a class="graphmeta">
<path fill="none" stroke="black" d="M81.9549,-222.238C97.0146,-213.219 116.16,-198.799 125,-180 145.399,-136.621 136.681,-79.1345 128.697,-45.8923"/>
<polygon fill="black" stroke="black" points="132.036,-44.8215 126.168,-35.9999 125.254,-46.5552 132.036,-44.8215"/>
</a>
</g>
<!-- http://cds.omdoc.org/urtheories?LF&#45;&gt;http://latin.omdoc.org/logics/syntax?ML -->
<g id="edge13" class="edge"><title>http://cds.omdoc.org/urtheories?LF&#45;&gt;http://latin.omdoc.org/logics/syntax?ML</title>
<a class="graphmeta">
<path fill="none" stroke="black" d="M67.6356,-216.411C70.9134,-208.216 74.9442,-198.14 78.6181,-188.955"/>
<polygon fill="black" stroke="black" points="81.9477,-190.055 82.412,-179.47 75.4484,-187.455 81.9477,-190.055"/>
</a>
</g>
</g>
</svg>
