<?xml version="1.0" encoding="UTF-8" standalone="no"?>
<!DOCTYPE svg PUBLIC "-//W3C//DTD SVG 1.1//EN"
 "http://www.w3.org/Graphics/SVG/1.1/DTD/svg11.dtd">
<!-- Generated by graphviz version 2.28.0 (20110507.0327)
 -->
<!-- Title: MMT Pages: 1 -->
<svg
 viewBox="0.00 0.00 188.00 260.00" xmlns="http://www.w3.org/2000/svg" xmlns:xlink="http://www.w3.org/1999/xlink">
<g id="graph1" class="graph" transform="scale(1 1) rotate(0) translate(4 256)">
<title>MMT</title>
<polygon fill="white" stroke="white" points="-4,5 -4,-256 185,-256 185,5 -4,5"/>
<g id="graph2" class="cluster"><title>cluster_local</title>
<polygon fill="none" stroke="black" points="20,-64 20,-116 90,-116 90,-64 20,-64"/>
</g>
<!-- http://latin.omdoc.org/logics/proof_theory?U -->
<g id="node2" class="node"><title>http://latin.omdoc.org/logics/proof_theory?U</title>
<a xlink:href="http://latin.omdoc.org/logics/proof_theory?U" class="graphtheory">
<ellipse fill="none" stroke="black" cx="55" cy="-90" rx="27" ry="18"/>
<text text-anchor="middle" x="55" y="-86.3" font-family="Times New Roman,serif" font-size="14.00">U</text>
</a>
</g>
<!-- http://latin.omdoc.org/logics/proof_theory?DL -->
<g id="node3" class="node"><title>http://latin.omdoc.org/logics/proof_theory?DL</title>
<a xlink:href="http://latin.omdoc.org/logics/proof_theory?DL" class="graphtheory">
<ellipse fill="gray" stroke="black" cx="55" cy="-18" rx="27" ry="18"/>
<text text-anchor="middle" x="55" y="-14.3" font-family="Times New Roman,serif" font-size="14.00">DL</text>
</a>
</g>
<!-- http://latin.omdoc.org/logics/proof_theory?U&#45;&gt;http://latin.omdoc.org/logics/proof_theory?DL -->
<g id="edge3" class="edge"><title>http://latin.omdoc.org/logics/proof_theory?U&#45;&gt;http://latin.omdoc.org/logics/proof_theory?DL</title>
<a class="graphinclude">
<path fill="none" stroke="black" d="M55,-71.6966C55,-63.9827 55,-54.7125 55,-46.1124"/>
<polygon fill="black" stroke="black" points="58.5001,-46.1043 55,-36.1043 51.5001,-46.1044 58.5001,-46.1043"/>
</a>
</g>
<!-- http://latin.omdoc.org/logics/proof_theory?DLBase -->
<g id="node5" class="node"><title>http://latin.omdoc.org/logics/proof_theory?DLBase</title>
<a xlink:href="http://latin.omdoc.org/logics/proof_theory?DLBase" class="graphtheory">
<ellipse fill="gray" stroke="black" cx="140" cy="-162" rx="39.9464" ry="18"/>
<text text-anchor="middle" x="140" y="-158.3" font-family="Times New Roman,serif" font-size="14.00">DLBase</text>
</a>
</g>
<!-- http://latin.omdoc.org/logics/proof_theory?DLBase&#45;&gt;http://latin.omdoc.org/logics/proof_theory?U -->
<g id="edge5" class="edge"><title>http://latin.omdoc.org/logics/proof_theory?DLBase&#45;&gt;http://latin.omdoc.org/logics/proof_theory?U</title>
<a class="graphinclude">
<path fill="none" stroke="black" d="M121.556,-145.811C109.183,-135.622 92.7544,-122.092 79.3152,-111.024"/>
<polygon fill="black" stroke="black" points="81.341,-108.159 71.3967,-104.503 76.8911,-113.562 81.341,-108.159"/>
</a>
</g>
<!-- http://latin.omdoc.org/logics/proof_theory?DLBase&#45;&gt;http://latin.omdoc.org/logics/proof_theory?DL -->
<g id="edge17" class="edge"><title>http://latin.omdoc.org/logics/proof_theory?DLBase&#45;&gt;http://latin.omdoc.org/logics/proof_theory?DL</title>
<a class="graphinclude">
<path fill="none" stroke="black" d="M133.64,-144.144C125.752,-124.199 111.221,-90.3737 94,-64 88.8812,-56.1606 82.5034,-48.2362 76.3979,-41.268"/>
<polygon fill="black" stroke="black" points="78.7531,-38.6545 69.4474,-33.5895 73.5635,-43.3521 78.7531,-38.6545"/>
</a>
</g>
<!-- http://latin.omdoc.org/logics/syntax?U -->
<g id="node7" class="node"><title>http://latin.omdoc.org/logics/syntax?U</title>
<a xlink:href="http://latin.omdoc.org/logics/syntax?U" class="graphtheory">
<ellipse fill="gray" stroke="black" cx="55" cy="-162" rx="27" ry="18"/>
<text text-anchor="middle" x="55" y="-158.3" font-family="Times New Roman,serif" font-size="14.00">U</text>
</a>
</g>
<!-- http://latin.omdoc.org/logics/syntax?U&#45;&gt;http://latin.omdoc.org/logics/proof_theory?U -->
<g id="edge7" class="edge"><title>http://latin.omdoc.org/logics/syntax?U&#45;&gt;http://latin.omdoc.org/logics/proof_theory?U</title>
<a class="graphinclude">
<path fill="none" stroke="black" d="M55,-143.697C55,-135.983 55,-126.712 55,-118.112"/>
<polygon fill="black" stroke="black" points="58.5001,-118.104 55,-108.104 51.5001,-118.104 58.5001,-118.104"/>
</a>
</g>
<!-- http://cds.omdoc.org/urtheories?LF -->
<g id="node9" class="node"><title>http://cds.omdoc.org/urtheories?LF</title>
<a xlink:href="http://cds.omdoc.org/urtheories?LF" class="graphtheory">
<ellipse fill="gray" stroke="black" cx="27" cy="-234" rx="27" ry="18"/>
<text text-anchor="middle" x="27" y="-230.3" font-family="Times New Roman,serif" font-size="14.00">LF</text>
</a>
</g>
<!-- http://cds.omdoc.org/urtheories?LF&#45;&gt;http://latin.omdoc.org/logics/proof_theory?U -->
<g id="edge9" class="edge"><title>http://cds.omdoc.org/urtheories?LF&#45;&gt;http://latin.omdoc.org/logics/proof_theory?U</title>
<a class="graphmeta">
<path fill="none" stroke="black" d="M21.7456,-216.201C16.9083,-198.005 11.5218,-168.319 19,-144 22.2858,-133.315 28.5399,-122.851 34.9254,-114.081"/>
<polygon fill="black" stroke="black" points="37.8844,-115.977 41.2496,-105.931 32.354,-111.686 37.8844,-115.977"/>
</a>
</g>
<!-- http://cds.omdoc.org/urtheories?LF&#45;&gt;http://latin.omdoc.org/logics/proof_theory?DL -->
<g id="edge15" class="edge"><title>http://cds.omdoc.org/urtheories?LF&#45;&gt;http://latin.omdoc.org/logics/proof_theory?DL</title>
<a class="graphmeta">
<path fill="none" stroke="black" d="M20.9177,-216.07C17.5503,-205.789 13.7089,-192.314 12,-180 8.35485,-153.735 14.0219,-68.9236 16,-64 19.4904,-55.3124 25.3919,-47.1398 31.5619,-40.2052"/>
<polygon fill="black" stroke="black" points="34.3925,-42.3111 38.7998,-32.6764 29.3462,-37.4597 34.3925,-42.3111"/>
</a>
</g>
<!-- http://cds.omdoc.org/urtheories?LF&#45;&gt;http://latin.omdoc.org/logics/proof_theory?DLBase -->
<g id="edge11" class="edge"><title>http://cds.omdoc.org/urtheories?LF&#45;&gt;http://latin.omdoc.org/logics/proof_theory?DLBase</title>
<a class="graphmeta">
<path fill="none" stroke="black" d="M46.1689,-221.125C63.2823,-210.524 88.6664,-194.8 108.719,-182.378"/>
<polygon fill="black" stroke="black" points="110.568,-185.349 117.226,-177.108 106.882,-179.398 110.568,-185.349"/>
</a>
</g>
<!-- http://cds.omdoc.org/urtheories?LF&#45;&gt;http://latin.omdoc.org/logics/syntax?U -->
<g id="edge13" class="edge"><title>http://cds.omdoc.org/urtheories?LF&#45;&gt;http://latin.omdoc.org/logics/syntax?U</title>
<a class="graphmeta">
<path fill="none" stroke="black" d="M33.6356,-216.411C36.9134,-208.216 40.9442,-198.14 44.6181,-188.955"/>
<polygon fill="black" stroke="black" points="47.9477,-190.055 48.412,-179.47 41.4484,-187.455 47.9477,-190.055"/>
</a>
</g>
</g>
</svg>
