<?xml version="1.0" encoding="UTF-8" standalone="no"?>
<!DOCTYPE svg PUBLIC "-//W3C//DTD SVG 1.1//EN"
 "http://www.w3.org/Graphics/SVG/1.1/DTD/svg11.dtd">
<!-- Generated by graphviz version 2.28.0 (20110507.0327)
 -->
<!-- Title: MMT Pages: 1 -->
<svg width="836pt" height="368pt"
 viewBox="0.00 0.00 836.00 368.00" xmlns="http://www.w3.org/2000/svg" xmlns:xlink="http://www.w3.org/1999/xlink">
<g id="graph1" class="graph" transform="scale(1 1) rotate(0) translate(4 364)">
<title>MMT</title>
<polygon fill="white" stroke="white" points="-4,5 -4,-364 833,-364 833,5 -4,5"/>
<g id="graph2" class="cluster"><title>cluster_local</title>
<polygon fill="none" stroke="black" points="406,-80 406,-220 628,-220 628,-80 406,-80"/>
</g>
<!-- http://latin.omdoc.org/logics/syntax?ML -->
<g id="node2" class="node"><title>http://latin.omdoc.org/logics/syntax?ML</title>
<a xlink:href="javascript:parent.navigate(&#39;http://latin.omdoc.org/logics/syntax?ML&#39;)" xlink:title="theory http://latin.omdoc.org/logics/syntax?ML">
<ellipse fill="none" stroke="black" cx="574" cy="-106" rx="27" ry="18"/>
<text text-anchor="middle" x="574" y="-102.3" font-family="Times New Roman,serif" font-size="14.00">ML</text>
</a>
</g>
<!-- http://latin.omdoc.org/logics/model_theory/kripke?Kripke -->
<g id="node5" class="node"><title>http://latin.omdoc.org/logics/model_theory/kripke?Kripke</title>
<a xlink:href="javascript:parent.navigate(&#39;http://latin.omdoc.org/logics/model_theory/kripke?Kripke&#39;)" xlink:title="theory http://latin.omdoc.org/logics/model_theory/kripke?Kripke">
<ellipse fill="gray" stroke="black" cx="76" cy="-18" rx="35.1455" ry="18"/>
<text text-anchor="middle" x="76" y="-14.3" font-family="Times New Roman,serif" font-size="14.00">Kripke</text>
</a>
</g>
<!-- http://latin.omdoc.org/logics/syntax?ML&#45;&gt;http://latin.omdoc.org/logics/model_theory/kripke?Kripke -->
<g id="edge3" class="edge"><title>http://latin.omdoc.org/logics/syntax?ML&#45;&gt;http://latin.omdoc.org/logics/model_theory/kripke?Kripke</title>
<a xlink:href="javascript:parent.navigate(&#39;http://latin.omdoc.org/logics/model_theory/kripke?ML&#39;)" xlink:title="view http://latin.omdoc.org/logics/model_theory/kripke?ML">
<path fill="none" stroke="blue" stroke-dasharray="5,2" d="M559.021,-91.439C554.184,-87.3874 548.414,-83.3457 542.611,-80.9213 509.375,-66.3495 497.469,-75.4623 459.874,-70.9921 336.18,-55.3271 190.261,-35.6051 119.168,-25.9163"/>
<path fill="none" stroke="blue" stroke-dasharray="5,2" d="M560.305,-89.905C555.332,-85.7493 549.562,-81.7075 543.389,-79.0787 508.159,-64.7613 496.253,-73.8741 460.126,-69.0079 336.448,-53.3451 190.529,-33.6231 119.438,-23.9346"/>
<polygon fill="blue" stroke="blue" points="119.75,-21.4541 109.369,-23.5705 118.804,-28.3899 119.75,-21.4541"/>
</a>
<a xlink:href="javascript:parent.navigate(&#39;http://latin.omdoc.org/logics/model_theory/kripke?ML&#39;)" xlink:title="ML">
<text text-anchor="middle" x="470.5" y="-58.3" font-family="Times New Roman,serif" font-size="14.00">ML</text>
</a>
</g>
<!-- http://latin.omdoc.org/translations/ml_fol?ML&#45;FOL -->
<g id="node7" class="node"><title>http://latin.omdoc.org/translations/ml_fol?ML&#45;FOL</title>
<a xlink:href="javascript:parent.navigate(&#39;http://latin.omdoc.org/translations/ml_fol?ML-FOL&#39;)" xlink:title="theory http://latin.omdoc.org/translations/ml_fol?ML&#45;FOL">
<ellipse fill="gray" stroke="black" cx="320" cy="-18" rx="44.2946" ry="18"/>
<text text-anchor="middle" x="320" y="-14.3" font-family="Times New Roman,serif" font-size="14.00">ML&#45;FOL</text>
</a>
</g>
<!-- http://latin.omdoc.org/logics/syntax?ML&#45;&gt;http://latin.omdoc.org/translations/ml_fol?ML&#45;FOL -->
<g id="edge5" class="edge"><title>http://latin.omdoc.org/logics/syntax?ML&#45;&gt;http://latin.omdoc.org/translations/ml_fol?ML&#45;FOL</title>
<a xlink:href="javascript:parent.navigate(&#39;http://latin.omdoc.org/translations/ml_fol?ML&#39;)" xlink:title="view http://latin.omdoc.org/translations/ml_fol?ML">
<path fill="none" stroke="blue" stroke-dasharray="5,2" d="M558.47,-91.7041C553.674,-87.7509 548.077,-83.7074 542.545,-80.8903 487.343,-52.6194 417.212,-36.2303 370.594,-27.7266"/>
<path fill="none" stroke="blue" stroke-dasharray="5,2" d="M559.741,-90.1603C554.845,-86.1298 549.249,-82.0863 543.455,-79.1097 487.798,-50.6719 417.667,-34.2828 370.953,-25.7591"/>
<polygon fill="blue" stroke="blue" points="371.352,-23.291 360.895,-24.9944 370.132,-30.1838 371.352,-23.291"/>
</a>
<a xlink:href="javascript:parent.navigate(&#39;http://latin.omdoc.org/translations/ml_fol?ML&#39;)" xlink:title="ML">
<text text-anchor="middle" x="531.5" y="-58.3" font-family="Times New Roman,serif" font-size="14.00">ML</text>
</a>
</g>
<!-- http://latin.omdoc.org/logics/proof_theory?MLPf -->
<g id="node9" class="node"><title>http://latin.omdoc.org/logics/proof_theory?MLPf</title>
<a xlink:href="javascript:parent.navigate(&#39;http://latin.omdoc.org/logics/proof_theory?MLPf&#39;)" xlink:title="theory http://latin.omdoc.org/logics/proof_theory?MLPf">
<ellipse fill="gray" stroke="black" cx="608" cy="-18" rx="32.2457" ry="18"/>
<text text-anchor="middle" x="608" y="-14.3" font-family="Times New Roman,serif" font-size="14.00">MLPf</text>
</a>
</g>
<!-- http://latin.omdoc.org/logics/syntax?ML&#45;&gt;http://latin.omdoc.org/logics/proof_theory?MLPf -->
<g id="edge7" class="edge"><title>http://latin.omdoc.org/logics/syntax?ML&#45;&gt;http://latin.omdoc.org/logics/proof_theory?MLPf</title>
<a xlink:title="include">
<path fill="none" stroke="black" d="M580.556,-88.4183C585.369,-76.2426 592.007,-59.4529 597.549,-45.4355"/>
<polygon fill="black" stroke="black" points="600.927,-46.4106 601.349,-35.8242 594.417,-43.837 600.927,-46.4106"/>
</a>
</g>
<!-- http://latin.omdoc.org/logics/proof_theory?D -->
<g id="node11" class="node"><title>http://latin.omdoc.org/logics/proof_theory?D</title>
<a xlink:href="javascript:parent.navigate(&#39;http://latin.omdoc.org/logics/proof_theory?D&#39;)" xlink:title="theory http://latin.omdoc.org/logics/proof_theory?D">
<ellipse fill="gray" stroke="black" cx="709" cy="-18" rx="27" ry="18"/>
<text text-anchor="middle" x="709" y="-14.3" font-family="Times New Roman,serif" font-size="14.00">D</text>
</a>
</g>
<!-- http://latin.omdoc.org/logics/syntax?ML&#45;&gt;http://latin.omdoc.org/logics/proof_theory?D -->
<g id="edge9" class="edge"><title>http://latin.omdoc.org/logics/syntax?ML&#45;&gt;http://latin.omdoc.org/logics/proof_theory?D</title>
<a xlink:title="include">
<path fill="none" stroke="black" d="M590.062,-91.2995C594.767,-87.4932 599.994,-83.4583 605,-80 629.303,-63.21 658.415,-46.3949 679.648,-34.6842"/>
<polygon fill="black" stroke="black" points="681.42,-37.7046 688.516,-29.8373 678.063,-31.5621 681.42,-37.7046"/>
</a>
</g>
<!-- http://latin.omdoc.org/logics/proof_theory?T -->
<g id="node13" class="node"><title>http://latin.omdoc.org/logics/proof_theory?T</title>
<a xlink:href="javascript:parent.navigate(&#39;http://latin.omdoc.org/logics/proof_theory?T&#39;)" xlink:title="theory http://latin.omdoc.org/logics/proof_theory?T">
<ellipse fill="gray" stroke="black" cx="801" cy="-18" rx="27" ry="18"/>
<text text-anchor="middle" x="801" y="-14.3" font-family="Times New Roman,serif" font-size="14.00">T</text>
</a>
</g>
<!-- http://latin.omdoc.org/logics/syntax?ML&#45;&gt;http://latin.omdoc.org/logics/proof_theory?T -->
<g id="edge11" class="edge"><title>http://latin.omdoc.org/logics/syntax?ML&#45;&gt;http://latin.omdoc.org/logics/proof_theory?T</title>
<a xlink:title="include">
<path fill="none" stroke="black" d="M588.836,-90.8157C593.68,-86.8191 599.29,-82.8022 605,-80 622.226,-71.5467 628.542,-75.2433 647,-70 689.292,-57.9863 737.27,-41.6603 768.272,-30.7484"/>
<polygon fill="black" stroke="black" points="769.453,-34.0433 777.713,-27.4082 767.118,-27.4442 769.453,-34.0433"/>
</a>
</g>
<!-- http://latin.omdoc.org/logics/syntax?Possibility -->
<g id="node3" class="node"><title>http://latin.omdoc.org/logics/syntax?Possibility</title>
<a xlink:href="javascript:parent.navigate(&#39;http://latin.omdoc.org/logics/syntax?Possibility&#39;)" xlink:title="theory http://latin.omdoc.org/logics/syntax?Possibility">
<ellipse fill="none" stroke="black" cx="462" cy="-194" rx="48.1437" ry="18"/>
<text text-anchor="middle" x="462" y="-190.3" font-family="Times New Roman,serif" font-size="14.00">Possibility</text>
</a>
</g>
<!-- http://latin.omdoc.org/logics/syntax?Possibility&#45;&gt;http://latin.omdoc.org/logics/syntax?ML -->
<g id="edge15" class="edge"><title>http://latin.omdoc.org/logics/syntax?Possibility&#45;&gt;http://latin.omdoc.org/logics/syntax?ML</title>
<a xlink:title="include">
<path fill="none" stroke="black" d="M483.65,-177.514C491.949,-171.499 501.471,-164.503 510,-158 523.183,-147.949 537.643,-136.465 549.479,-126.943"/>
<polygon fill="black" stroke="black" points="551.995,-129.41 557.577,-120.405 547.598,-123.964 551.995,-129.41"/>
</a>
</g>
<!-- http://latin.omdoc.org/logics/model_theory/kripke?ML -->
<g id="node21" class="node"><title>http://latin.omdoc.org/logics/model_theory/kripke?ML</title>
<a xlink:href="javascript:parent.navigate(&#39;http://latin.omdoc.org/logics/model_theory/kripke?ML&#39;)" xlink:title="theory http://latin.omdoc.org/logics/model_theory/kripke?ML">
<ellipse fill="gray" stroke="black" cx="299" cy="-106" rx="27" ry="18"/>
<text text-anchor="middle" x="299" y="-102.3" font-family="Times New Roman,serif" font-size="14.00">ML</text>
</a>
</g>
<!-- http://latin.omdoc.org/logics/syntax?Possibility&#45;&gt;http://latin.omdoc.org/logics/model_theory/kripke?ML -->
<g id="edge21" class="edge"><title>http://latin.omdoc.org/logics/syntax?Possibility&#45;&gt;http://latin.omdoc.org/logics/model_theory/kripke?ML</title>
<a xlink:title="include">
<path fill="none" stroke="black" d="M435.448,-178.991C406.181,-163.549 359.216,-138.771 328.735,-122.688"/>
<polygon fill="black" stroke="black" points="330.32,-119.567 319.842,-117.996 327.053,-125.758 330.32,-119.567"/>
</a>
</g>
<!-- http://latin.omdoc.org/translations/ml_fol?ML -->
<g id="node23" class="node"><title>http://latin.omdoc.org/translations/ml_fol?ML</title>
<a xlink:href="javascript:parent.navigate(&#39;http://latin.omdoc.org/translations/ml_fol?ML&#39;)" xlink:title="theory http://latin.omdoc.org/translations/ml_fol?ML">
<ellipse fill="gray" stroke="black" cx="371" cy="-106" rx="27" ry="18"/>
<text text-anchor="middle" x="371" y="-102.3" font-family="Times New Roman,serif" font-size="14.00">ML</text>
</a>
</g>
<!-- http://latin.omdoc.org/logics/syntax?Possibility&#45;&gt;http://latin.omdoc.org/translations/ml_fol?ML -->
<g id="edge23" class="edge"><title>http://latin.omdoc.org/logics/syntax?Possibility&#45;&gt;http://latin.omdoc.org/translations/ml_fol?ML</title>
<a xlink:title="include">
<path fill="none" stroke="black" d="M448.589,-176.704C439.757,-166.342 427.702,-152.879 416,-142 409.986,-136.409 403.143,-130.765 396.641,-125.691"/>
<polygon fill="black" stroke="black" points="398.748,-122.896 388.675,-119.614 394.503,-128.462 398.748,-122.896"/>
</a>
</g>
<!-- http://latin.omdoc.org/logics/syntax?Necessity -->
<g id="node4" class="node"><title>http://latin.omdoc.org/logics/syntax?Necessity</title>
<a xlink:href="javascript:parent.navigate(&#39;http://latin.omdoc.org/logics/syntax?Necessity&#39;)" xlink:title="theory http://latin.omdoc.org/logics/syntax?Necessity">
<ellipse fill="none" stroke="black" cx="574" cy="-194" rx="46.2191" ry="18"/>
<text text-anchor="middle" x="574" y="-190.3" font-family="Times New Roman,serif" font-size="14.00">Necessity</text>
</a>
</g>
<!-- http://latin.omdoc.org/logics/syntax?Necessity&#45;&gt;http://latin.omdoc.org/logics/syntax?ML -->
<g id="edge17" class="edge"><title>http://latin.omdoc.org/logics/syntax?Necessity&#45;&gt;http://latin.omdoc.org/logics/syntax?ML</title>
<a xlink:title="include">
<path fill="none" stroke="black" d="M574,-175.597C574,-163.746 574,-147.817 574,-134.292"/>
<polygon fill="black" stroke="black" points="577.5,-134.084 574,-124.084 570.5,-134.084 577.5,-134.084"/>
</a>
</g>
<!-- http://latin.omdoc.org/logics/syntax?MPL -->
<g id="node15" class="node"><title>http://latin.omdoc.org/logics/syntax?MPL</title>
<a xlink:href="javascript:parent.navigate(&#39;http://latin.omdoc.org/logics/syntax?MPL&#39;)" xlink:title="theory http://latin.omdoc.org/logics/syntax?MPL">
<ellipse fill="gray" stroke="black" cx="367" cy="-194" rx="29.3722" ry="18"/>
<text text-anchor="middle" x="367" y="-190.3" font-family="Times New Roman,serif" font-size="14.00">MPL</text>
</a>
</g>
<!-- http://latin.omdoc.org/logics/syntax?MPL&#45;&gt;http://latin.omdoc.org/logics/syntax?ML -->
<g id="edge13" class="edge"><title>http://latin.omdoc.org/logics/syntax?MPL&#45;&gt;http://latin.omdoc.org/logics/syntax?ML</title>
<a xlink:title="include">
<path fill="none" stroke="black" d="M389.066,-181.874C393.324,-179.844 397.774,-177.8 402,-176 463.449,-149.822 482.217,-151.69 543,-124 543.691,-123.685 544.388,-123.361 545.088,-123.029"/>
<polygon fill="black" stroke="black" points="546.866,-126.052 554.211,-118.417 543.708,-119.805 546.866,-126.052"/>
</a>
</g>
<!-- http://latin.omdoc.org/logics/syntax?MPL&#45;&gt;http://latin.omdoc.org/logics/model_theory/kripke?Kripke -->
<g id="edge57" class="edge"><title>http://latin.omdoc.org/logics/syntax?MPL&#45;&gt;http://latin.omdoc.org/logics/model_theory/kripke?Kripke</title>
<a xlink:href="javascript:parent.navigate(&#39;http://latin.omdoc.org/logics/model_theory/kripke?MPL&#39;)" xlink:title="view http://latin.omdoc.org/logics/model_theory/kripke?MPL">
<path fill="none" stroke="blue" stroke-dasharray="5,2" d="M339.527,-188.534C314.413,-182.956 276.554,-173.108 245.583,-158.909 183.979,-130.57 126.189,-74.8985 96.327,-43.1846"/>
<path fill="none" stroke="blue" stroke-dasharray="5,2" d="M339.96,-186.582C314.917,-181.02 277.057,-171.172 246.417,-157.091 185.367,-129.13 127.576,-73.4582 97.7832,-41.8136"/>
<polygon fill="blue" stroke="blue" points="99.4572,-39.9422 90.0892,-34.9934 94.3264,-44.704 99.4572,-39.9422"/>
</a>
<a xlink:href="javascript:parent.navigate(&#39;http://latin.omdoc.org/logics/model_theory/kripke?MPL&#39;)" xlink:title="MPL">
<text text-anchor="middle" x="201.5" y="-102.3" font-family="Times New Roman,serif" font-size="14.00">MPL</text>
</a>
</g>
<!-- http://latin.omdoc.org/logics/syntax?MPL&#45;&gt;http://latin.omdoc.org/translations/ml_fol?ML&#45;FOL -->
<g id="edge55" class="edge"><title>http://latin.omdoc.org/logics/syntax?MPL&#45;&gt;http://latin.omdoc.org/translations/ml_fol?ML&#45;FOL</title>
<a xlink:href="javascript:parent.navigate(&#39;http://latin.omdoc.org/translations/ml_fol?MPL&#39;)" xlink:title="view http://latin.omdoc.org/translations/ml_fol?MPL">
<path fill="none" stroke="blue" stroke-dasharray="5,2" d="M339.31,-188.566C307.447,-180.654 256.566,-162.621 233.145,-124.519 222.85,-107.171 224.03,-97.2552 233.112,-79.5409 243.343,-59.9534 262.477,-45.4638 280.287,-35.3744"/>
<path fill="none" stroke="blue" stroke-dasharray="5,2" d="M339.792,-186.625C308.115,-178.769 257.234,-160.736 234.855,-123.481 224.836,-107.407 226.016,-97.4915 234.888,-80.4591 244.55,-61.5479 263.684,-47.0582 281.272,-37.1151"/>
<polygon fill="blue" stroke="blue" points="282.669,-39.2043 289.848,-31.4132 279.377,-33.0264 282.669,-39.2043"/>
</a>
<a xlink:href="javascript:parent.navigate(&#39;http://latin.omdoc.org/translations/ml_fol?MPL&#39;)" xlink:title="MPL">
<text text-anchor="middle" x="248.5" y="-102.3" font-family="Times New Roman,serif" font-size="14.00">MPL</text>
</a>
</g>
<!-- http://latin.omdoc.org/logics/syntax?MPL&#45;&gt;http://latin.omdoc.org/logics/model_theory/kripke?ML -->
<g id="edge59" class="edge"><title>http://latin.omdoc.org/logics/syntax?MPL&#45;&gt;http://latin.omdoc.org/logics/model_theory/kripke?ML</title>
<a xlink:title="include">
<path fill="none" stroke="black" d="M354.843,-177.625C344.4,-164.417 329.188,-145.179 317.278,-130.116"/>
<polygon fill="black" stroke="black" points="320,-127.915 311.052,-122.242 314.509,-132.257 320,-127.915"/>
</a>
</g>
<!-- http://latin.omdoc.org/logics/syntax?MPL&#45;&gt;http://latin.omdoc.org/translations/ml_fol?ML -->
<g id="edge61" class="edge"><title>http://latin.omdoc.org/logics/syntax?MPL&#45;&gt;http://latin.omdoc.org/translations/ml_fol?ML</title>
<a xlink:title="include">
<path fill="none" stroke="black" d="M367.809,-175.597C368.361,-163.746 369.102,-147.817 369.731,-134.292"/>
<polygon fill="black" stroke="black" points="373.237,-134.236 370.205,-124.084 366.244,-133.911 373.237,-134.236"/>
</a>
</g>
<!-- http://cds.omdoc.org/urtheories?LF -->
<g id="node19" class="node"><title>http://cds.omdoc.org/urtheories?LF</title>
<a xlink:href="javascript:parent.navigate(&#39;http://cds.omdoc.org/urtheories?LF&#39;)" xlink:title="theory http://cds.omdoc.org/urtheories?LF">
<ellipse fill="gray" stroke="black" cx="574" cy="-342" rx="27" ry="18"/>
<text text-anchor="middle" x="574" y="-338.3" font-family="Times New Roman,serif" font-size="14.00">LF</text>
</a>
</g>
<!-- http://cds.omdoc.org/urtheories?LF&#45;&gt;http://latin.omdoc.org/logics/syntax?ML -->
<g id="edge19" class="edge"><title>http://cds.omdoc.org/urtheories?LF&#45;&gt;http://latin.omdoc.org/logics/syntax?ML</title>
<a xlink:title="meta">
<path fill="none" stroke="green" d="M586.183,-325.479C607.633,-296.174 648.142,-230.724 629,-176 622.591,-157.679 609.054,-140.591 597.014,-128.003"/>
<polygon fill="green" stroke="green" points="599.333,-125.373 589.788,-120.777 594.383,-130.323 599.333,-125.373"/>
</a>
</g>
<!-- http://cds.omdoc.org/urtheories?LF&#45;&gt;http://latin.omdoc.org/logics/syntax?Possibility -->
<g id="edge27" class="edge"><title>http://cds.omdoc.org/urtheories?LF&#45;&gt;http://latin.omdoc.org/logics/syntax?Possibility</title>
<a xlink:title="meta">
<path fill="none" stroke="green" d="M564.818,-324.715C551.814,-302.296 526.636,-261.162 500,-230 496.52,-225.928 492.595,-221.852 488.624,-217.994"/>
<polygon fill="green" stroke="green" points="490.729,-215.171 481.031,-210.904 485.951,-220.287 490.729,-215.171"/>
</a>
</g>
<!-- http://cds.omdoc.org/urtheories?LF&#45;&gt;http://latin.omdoc.org/logics/syntax?Necessity -->
<g id="edge31" class="edge"><title>http://cds.omdoc.org/urtheories?LF&#45;&gt;http://latin.omdoc.org/logics/syntax?Necessity</title>
<a xlink:title="meta">
<path fill="none" stroke="green" d="M574,-323.966C574,-299.045 574,-252.374 574,-222.537"/>
<polygon fill="green" stroke="green" points="577.5,-222.378 574,-212.378 570.5,-222.378 577.5,-222.378"/>
</a>
</g>
<!-- http://cds.omdoc.org/urtheories?LF&#45;&gt;http://latin.omdoc.org/logics/model_theory/kripke?Kripke -->
<g id="edge41" class="edge"><title>http://cds.omdoc.org/urtheories?LF&#45;&gt;http://latin.omdoc.org/logics/model_theory/kripke?Kripke</title>
<a xlink:title="meta">
<path fill="none" stroke="green" d="M547.085,-340.494C433.603,-338.01 0,-324.866 0,-269 0,-269 0,-269 0,-105 0,-76.4548 23.8009,-52.9256 44.764,-37.738"/>
<polygon fill="green" stroke="green" points="46.9371,-40.4915 53.1975,-31.9441 42.9733,-34.7219 46.9371,-40.4915"/>
</a>
</g>
<!-- http://cds.omdoc.org/urtheories?LF&#45;&gt;http://latin.omdoc.org/translations/ml_fol?ML&#45;FOL -->
<g id="edge43" class="edge"><title>http://cds.omdoc.org/urtheories?LF&#45;&gt;http://latin.omdoc.org/translations/ml_fol?ML&#45;FOL</title>
<a xlink:title="meta">
<path fill="none" stroke="green" d="M592.467,-328.802C605.904,-318.904 623.368,-303.716 633,-286 676.734,-205.564 691.75,-149.373 632,-80 599.08,-41.7786 454.1,-27.0394 373.874,-21.7353"/>
<polygon fill="green" stroke="green" points="373.677,-18.2158 363.476,-21.0766 373.234,-25.2018 373.677,-18.2158"/>
</a>
</g>
<!-- http://cds.omdoc.org/urtheories?LF&#45;&gt;http://latin.omdoc.org/logics/proof_theory?MLPf -->
<g id="edge49" class="edge"><title>http://cds.omdoc.org/urtheories?LF&#45;&gt;http://latin.omdoc.org/logics/proof_theory?MLPf</title>
<a xlink:title="meta">
<path fill="none" stroke="green" d="M600.817,-339.9C643.962,-336.537 724,-323.017 724,-269 724,-269 724,-269 724,-105 724,-65.5258 680.116,-42.0757 646.332,-29.8713"/>
<polygon fill="green" stroke="green" points="647.269,-26.493 636.674,-26.5813 645.011,-33.1191 647.269,-26.493"/>
</a>
</g>
<!-- http://cds.omdoc.org/urtheories?LF&#45;&gt;http://latin.omdoc.org/logics/proof_theory?D -->
<g id="edge47" class="edge"><title>http://cds.omdoc.org/urtheories?LF&#45;&gt;http://latin.omdoc.org/logics/proof_theory?D</title>
<a xlink:title="meta">
<path fill="none" stroke="green" d="M600.147,-337.213C654.359,-328.626 774,-305.535 774,-269 774,-269 774,-269 774,-105 774,-77.8963 753.199,-53.9361 735.131,-38.2366"/>
<polygon fill="green" stroke="green" points="737.049,-35.2821 727.106,-31.623 732.597,-40.684 737.049,-35.2821"/>
</a>
</g>
<!-- http://cds.omdoc.org/urtheories?LF&#45;&gt;http://latin.omdoc.org/logics/proof_theory?T -->
<g id="edge45" class="edge"><title>http://cds.omdoc.org/urtheories?LF&#45;&gt;http://latin.omdoc.org/logics/proof_theory?T</title>
<a xlink:title="meta">
<path fill="none" stroke="green" d="M600.839,-338.607C663.082,-332.32 812,-312.708 812,-269 812,-269 812,-269 812,-105 812,-85.244 809.109,-63.14 806.291,-46.2885"/>
<polygon fill="green" stroke="green" points="809.668,-45.2886 804.48,-36.0507 802.775,-46.5074 809.668,-45.2886"/>
</a>
</g>
<!-- http://cds.omdoc.org/urtheories?LF&#45;&gt;http://latin.omdoc.org/logics/syntax?MPL -->
<g id="edge53" class="edge"><title>http://cds.omdoc.org/urtheories?LF&#45;&gt;http://latin.omdoc.org/logics/syntax?MPL</title>
<a xlink:title="meta">
<path fill="none" stroke="green" d="M558.197,-327.262C545.727,-316.3 527.995,-300.442 513,-286 496.927,-270.52 496.571,-262.373 478,-250 447.779,-229.865 433.902,-237.35 402,-220 398.888,-218.308 395.728,-216.384 392.644,-214.373"/>
<polygon fill="green" stroke="green" points="394.478,-211.386 384.258,-208.593 390.505,-217.15 394.478,-211.386"/>
</a>
</g>
<!-- http://latin.omdoc.org/logics/syntax?Logic -->
<g id="node25" class="node"><title>http://latin.omdoc.org/logics/syntax?Logic</title>
<a xlink:href="javascript:parent.navigate(&#39;http://latin.omdoc.org/logics/syntax?Logic&#39;)" xlink:title="theory http://latin.omdoc.org/logics/syntax?Logic">
<ellipse fill="gray" stroke="black" cx="438" cy="-268" rx="31.2735" ry="18"/>
<text text-anchor="middle" x="438" y="-264.3" font-family="Times New Roman,serif" font-size="14.00">Logic</text>
</a>
</g>
<!-- http://cds.omdoc.org/urtheories?LF&#45;&gt;http://latin.omdoc.org/logics/syntax?Logic -->
<g id="edge51" class="edge"><title>http://cds.omdoc.org/urtheories?LF&#45;&gt;http://latin.omdoc.org/logics/syntax?Logic</title>
<a xlink:title="meta">
<path fill="none" stroke="green" d="M549.782,-333.828C531.124,-327.779 505.046,-318.166 484,-306 476.219,-301.502 468.372,-295.745 461.416,-290.118"/>
<polygon fill="green" stroke="green" points="463.628,-287.405 453.718,-283.656 459.127,-292.766 463.628,-287.405"/>
</a>
</g>
<!-- http://latin.omdoc.org/logics/syntax?Logic&#45;&gt;http://latin.omdoc.org/logics/syntax?Possibility -->
<g id="edge25" class="edge"><title>http://latin.omdoc.org/logics/syntax?Logic&#45;&gt;http://latin.omdoc.org/logics/syntax?Possibility</title>
<a xlink:title="include">
<path fill="none" stroke="black" d="M443.688,-249.937C446.497,-241.508 449.952,-231.143 453.101,-221.696"/>
<polygon fill="black" stroke="black" points="456.511,-222.534 456.353,-211.941 449.87,-220.321 456.511,-222.534"/>
</a>
</g>
<!-- http://latin.omdoc.org/logics/syntax?Logic&#45;&gt;http://latin.omdoc.org/logics/syntax?Necessity -->
<g id="edge29" class="edge"><title>http://latin.omdoc.org/logics/syntax?Logic&#45;&gt;http://latin.omdoc.org/logics/syntax?Necessity</title>
<a xlink:title="include">
<path fill="none" stroke="black" d="M460.458,-255.111C481.731,-243.848 514.011,-226.759 538.722,-213.677"/>
<polygon fill="black" stroke="black" points="540.583,-216.652 547.783,-208.88 537.307,-210.465 540.583,-216.652"/>
</a>
</g>
<!-- http://latin.omdoc.org/logics/syntax?Logic&#45;&gt;http://latin.omdoc.org/logics/model_theory/kripke?Kripke -->
<g id="edge35" class="edge"><title>http://latin.omdoc.org/logics/syntax?Logic&#45;&gt;http://latin.omdoc.org/logics/model_theory/kripke?Kripke</title>
<a xlink:href="javascript:parent.navigate(&#39;http://latin.omdoc.org/logics/model_theory/kripke?Base&#39;)" xlink:title="view http://latin.omdoc.org/logics/model_theory/kripke?Base">
<path fill="none" stroke="blue" stroke-dasharray="5,2" d="M406.633,-266.556C363.57,-263.386 284.926,-253.278 226.514,-220.874 154.129,-180.434 106.216,-90.1873 85.9775,-45.4642"/>
<path fill="none" stroke="blue" stroke-dasharray="5,2" d="M406.78,-264.562C363.824,-261.403 285.181,-251.294 227.486,-219.126 155.896,-179.496 107.983,-89.2494 87.7997,-44.6397"/>
<polygon fill="blue" stroke="blue" points="90.0193,-43.477 82.7799,-35.7412 83.6151,-46.303 90.0193,-43.477"/>
</a>
<a xlink:href="javascript:parent.navigate(&#39;http://latin.omdoc.org/logics/model_theory/kripke?Base&#39;)" xlink:title="Base">
<text text-anchor="middle" x="169" y="-146.3" font-family="Times New Roman,serif" font-size="14.00">Base</text>
</a>
</g>
<!-- http://latin.omdoc.org/logics/syntax?Logic&#45;&gt;http://latin.omdoc.org/logics/model_theory/kripke?Kripke -->
<g id="edge37" class="edge"><title>http://latin.omdoc.org/logics/syntax?Logic&#45;&gt;http://latin.omdoc.org/logics/model_theory/kripke?Kripke</title>
<a xlink:href="javascript:parent.navigate(&#39;http://latin.omdoc.org/logics/model_theory/kripke?BasePL&#39;)" xlink:title="view http://latin.omdoc.org/logics/model_theory/kripke?BasePL">
<path fill="none" stroke="blue" stroke-dasharray="5,2" d="M406.398,-267.864C354.213,-266.494 247.936,-258.823 167.573,-220.904 129.367,-202.841 115.842,-195.922 95.1231,-158.481 75.7784,-122.988 72.9791,-75.7877 73.4468,-46.3287"/>
<path fill="none" stroke="blue" stroke-dasharray="5,2" d="M406.45,-265.864C354.357,-264.499 248.08,-256.828 168.427,-219.096 130.278,-201.06 116.753,-194.141 96.8769,-157.519 77.7749,-122.869 74.9756,-75.6693 75.4466,-46.3607"/>
<polygon fill="blue" stroke="blue" points="77.955,-46.1192 74.7592,-36.0178 70.9582,-45.9074 77.955,-46.1192"/>
</a>
<a xlink:href="javascript:parent.navigate(&#39;http://latin.omdoc.org/logics/model_theory/kripke?BasePL&#39;)" xlink:title="BasePL">
<text text-anchor="middle" x="118" y="-146.3" font-family="Times New Roman,serif" font-size="14.00">BasePL</text>
</a>
</g>
<!-- http://latin.omdoc.org/logics/syntax?Logic&#45;&gt;http://latin.omdoc.org/translations/ml_fol?ML&#45;FOL -->
<g id="edge33" class="edge"><title>http://latin.omdoc.org/logics/syntax?Logic&#45;&gt;http://latin.omdoc.org/translations/ml_fol?ML&#45;FOL</title>
<a xlink:href="javascript:parent.navigate(&#39;http://latin.omdoc.org/translations/ml_fol?Base&#39;)" xlink:title="view http://latin.omdoc.org/translations/ml_fol?Base">
<path fill="none" stroke="blue" stroke-dasharray="5,2" d="M407.683,-263.553C357.408,-254.326 258.195,-227.896 217.138,-158.506 193.248,-117.232 201.267,-85.368 236.327,-53.2602 247.051,-43.5501 260.57,-36.3637 273.723,-31.0298"/>
<path fill="none" stroke="blue" stroke-dasharray="5,2" d="M408.044,-261.586C357.923,-252.394 258.709,-225.963 218.862,-157.494 195.188,-117.72 203.207,-85.8561 237.673,-54.7398 247.99,-45.3161 261.508,-38.1297 274.474,-32.8835"/>
<polygon fill="blue" stroke="blue" points="275.347,-35.2266 283.477,-28.433 272.885,-28.6738 275.347,-35.2266"/>
</a>
<a xlink:href="javascript:parent.navigate(&#39;http://latin.omdoc.org/translations/ml_fol?Base&#39;)" xlink:title="Base">
<text text-anchor="middle" x="232" y="-146.3" font-family="Times New Roman,serif" font-size="14.00">Base</text>
</a>
</g>
<!-- http://latin.omdoc.org/logics/syntax?Logic&#45;&gt;http://latin.omdoc.org/logics/syntax?MPL -->
<g id="edge39" class="edge"><title>http://latin.omdoc.org/logics/syntax?Logic&#45;&gt;http://latin.omdoc.org/logics/syntax?MPL</title>
<a xlink:title="include">
<path fill="none" stroke="black" d="M423.289,-252.082C413.388,-242.042 400.157,-228.624 389.01,-217.32"/>
<polygon fill="black" stroke="black" points="391.206,-214.562 381.692,-209.899 386.222,-219.477 391.206,-214.562"/>
</a>
</g>
</g>
</svg>
