<?xml version="1.0" encoding="UTF-8" standalone="no"?>
<!DOCTYPE svg PUBLIC "-//W3C//DTD SVG 1.1//EN"
 "http://www.w3.org/Graphics/SVG/1.1/DTD/svg11.dtd">
<!-- Generated by graphviz version 2.28.0 (20110507.0327)
 -->
<!-- Title: MMT Pages: 1 -->
<svg width="1593pt" height="384pt"
 viewBox="0.00 0.00 1593.00 384.00" xmlns="http://www.w3.org/2000/svg" xmlns:xlink="http://www.w3.org/1999/xlink">
<g id="graph1" class="graph" transform="scale(1 1) rotate(0) translate(4 380)">
<title>MMT</title>
<polygon fill="white" stroke="white" points="-4,5 -4,-380 1590,-380 1590,5 -4,5"/>
<g id="graph2" class="cluster"><title>cluster_local</title>
<polygon fill="none" stroke="black" points="905,-8 905,-310 1174,-310 1174,-8 905,-8"/>
</g>
<!-- http://latin.omdoc.org/logics/description/owl/owl.omdoc?OWL1Datatype -->
<g id="node2" class="node"><title>http://latin.omdoc.org/logics/description/owl/owl.omdoc?OWL1Datatype</title>
<a xlink:href="http://latin.omdoc.org/logics/description/owl/owl.omdoc?OWL1Datatype" class="graphtheory">
<ellipse fill="none" stroke="black" cx="981" cy="-284" rx="68.3664" ry="18"/>
<text text-anchor="middle" x="981" y="-280.3" font-family="Times New Roman,serif" font-size="14.00">OWL1Datatype</text>
</a>
</g>
<!-- http://latin.omdoc.org/logics/description/owl/owl.omdoc?OWLLite -->
<g id="node4" class="node"><title>http://latin.omdoc.org/logics/description/owl/owl.omdoc?OWLLite</title>
<a xlink:href="http://latin.omdoc.org/logics/description/owl/owl.omdoc?OWLLite" class="graphtheory">
<ellipse fill="none" stroke="black" cx="1121" cy="-196" rx="45.244" ry="18"/>
<text text-anchor="middle" x="1121" y="-192.3" font-family="Times New Roman,serif" font-size="14.00">OWLLite</text>
</a>
</g>
<!-- http://latin.omdoc.org/logics/description/owl/owl.omdoc?OWL1Datatype&#45;&gt;http://latin.omdoc.org/logics/description/owl/owl.omdoc?OWLLite -->
<g id="edge17" class="edge"><title>http://latin.omdoc.org/logics/description/owl/owl.omdoc?OWL1Datatype&#45;&gt;http://latin.omdoc.org/logics/description/owl/owl.omdoc?OWLLite</title>
<a class="graphinclude">
<path fill="none" stroke="black" d="M1030.5,-271.564C1067.82,-262.722 1113.07,-251.427 1116,-248 1121.59,-241.462 1123.67,-232.588 1124.1,-224.075"/>
<polygon fill="black" stroke="black" points="1127.59,-223.987 1123.92,-214.051 1120.6,-224.111 1127.59,-223.987"/>
</a>
</g>
<!-- http://latin.omdoc.org/logics/description/owl/owl.omdoc?OWLLiteFOLEQD -->
<g id="node7" class="node"><title>http://latin.omdoc.org/logics/description/owl/owl.omdoc?OWLLiteFOLEQD</title>
<a xlink:href="http://latin.omdoc.org/logics/description/owl/owl.omdoc?OWLLiteFOLEQD" class="graphtheory">
<ellipse fill="gray" stroke="black" cx="413" cy="-196" rx="81.3646" ry="18"/>
<text text-anchor="middle" x="413" y="-192.3" font-family="Times New Roman,serif" font-size="14.00">OWLLiteFOLEQD</text>
</a>
</g>
<!-- http://latin.omdoc.org/logics/description/owl/owl.omdoc?OWL1Datatype&#45;&gt;http://latin.omdoc.org/logics/description/owl/owl.omdoc?OWLLiteFOLEQD -->
<g id="edge3" class="edge"><title>http://latin.omdoc.org/logics/description/owl/owl.omdoc?OWL1Datatype&#45;&gt;http://latin.omdoc.org/logics/description/owl/owl.omdoc?OWLLiteFOLEQD</title>
<a xlink:href="http://latin.omdoc.org/logics/description/owl/owl.omdoc?OWLLiteFOLEQD?[http://latin.omdoc.org/logics/description/owl/owl.omdoc?OWL1Datatype]" class="graphstructure">
<path fill="none" stroke="black" d="M934.78,-270.615C926.263,-268.754 917.406,-267.094 909,-266 872.296,-261.222 268.817,-274.524 243,-248 238.04,-242.904 238.507,-237.512 243,-232 244.696,-229.919 297.208,-219.305 343.421,-210.305"/>
<polygon fill="black" stroke="black" points="344.32,-213.696 353.47,-208.354 342.986,-206.824 344.32,-213.696"/>
</a>
<a xlink:href="http://latin.omdoc.org/logics/description/owl/owl.omdoc?OWLLiteFOLEQD?[http://latin.omdoc.org/logics/description/owl/owl.omdoc?OWL1Datatype]" class="[http://latin.omdoc.org/logics/description/owl/owl.omdoc?OWL1Datatype]">
<text text-anchor="middle" x="452.5" y="-236.3" font-family="Times New Roman,serif" font-size="14.00">[http://latin.omdoc.org/logics/description/owl/owl.omdoc?OWL1Datatype]</text>
</a>
</g>
<!-- http://latin.omdoc.org/logics/description/owl/owl.omdoc?OWLDLFOLEQD -->
<g id="node9" class="node"><title>http://latin.omdoc.org/logics/description/owl/owl.omdoc?OWLDLFOLEQD</title>
<a xlink:href="http://latin.omdoc.org/logics/description/owl/owl.omdoc?OWLDLFOLEQD" class="graphtheory">
<ellipse fill="gray" stroke="black" cx="671" cy="-196" rx="78.9404" ry="18"/>
<text text-anchor="middle" x="671" y="-192.3" font-family="Times New Roman,serif" font-size="14.00">OWLDLFOLEQD</text>
</a>
</g>
<!-- http://latin.omdoc.org/logics/description/owl/owl.omdoc?OWL1Datatype&#45;&gt;http://latin.omdoc.org/logics/description/owl/owl.omdoc?OWLDLFOLEQD -->
<g id="edge5" class="edge"><title>http://latin.omdoc.org/logics/description/owl/owl.omdoc?OWL1Datatype&#45;&gt;http://latin.omdoc.org/logics/description/owl/owl.omdoc?OWLDLFOLEQD</title>
<a xlink:href="http://latin.omdoc.org/logics/description/owl/owl.omdoc?OWLDLFOLEQD?[http://latin.omdoc.org/logics/description/owl/owl.omdoc?OWL1Datatype]" class="graphstructure">
<path fill="none" stroke="black" d="M934.345,-270.868C925.952,-269.005 917.25,-267.279 909,-266 882.903,-261.953 690.142,-267.191 672,-248 666.118,-241.778 664.536,-232.981 664.846,-224.441"/>
<polygon fill="black" stroke="black" points="668.342,-224.676 665.999,-214.343 661.387,-223.881 668.342,-224.676"/>
</a>
<a xlink:href="http://latin.omdoc.org/logics/description/owl/owl.omdoc?OWLDLFOLEQD?[http://latin.omdoc.org/logics/description/owl/owl.omdoc?OWL1Datatype]" class="[http://latin.omdoc.org/logics/description/owl/owl.omdoc?OWL1Datatype]">
<text text-anchor="middle" x="881.5" y="-236.3" font-family="Times New Roman,serif" font-size="14.00">[http://latin.omdoc.org/logics/description/owl/owl.omdoc?OWL1Datatype]</text>
</a>
</g>
<!-- http://latin.omdoc.org/logics/description/owl/owl.omdoc?FOLEQD -->
<g id="node11" class="node"><title>http://latin.omdoc.org/logics/description/owl/owl.omdoc?FOLEQD</title>
<a xlink:href="http://latin.omdoc.org/logics/description/owl/owl.omdoc?FOLEQD" class="graphtheory">
<ellipse fill="gray" stroke="black" cx="267" cy="-196" rx="46.1964" ry="18"/>
<text text-anchor="middle" x="267" y="-192.3" font-family="Times New Roman,serif" font-size="14.00">FOLEQD</text>
</a>
</g>
<!-- http://latin.omdoc.org/logics/description/owl/owl.omdoc?OWL1Datatype&#45;&gt;http://latin.omdoc.org/logics/description/owl/owl.omdoc?FOLEQD -->
<g id="edge7" class="edge"><title>http://latin.omdoc.org/logics/description/owl/owl.omdoc?OWL1Datatype&#45;&gt;http://latin.omdoc.org/logics/description/owl/owl.omdoc?FOLEQD</title>
<a xlink:href="http://latin.omdoc.org/logics/description/owl/owl.omdoc?D1FOLEQD" class="graphview">
<path fill="none" stroke="black" d="M935.17,-270.68C926.534,-268.786 917.535,-267.098 909,-266 888.441,-263.354 177.479,-262.833 163,-248 158.033,-242.911 158.85,-237.775 163,-232 164.906,-229.348 194.622,-219.491 221.802,-210.911"/>
<polygon fill="black" stroke="black" points="223.151,-214.156 231.645,-207.823 221.056,-207.477 223.151,-214.156"/>
</a>
<a xlink:href="http://latin.omdoc.org/logics/description/owl/owl.omdoc?D1FOLEQD" class="D1FOLEQD">
<text text-anchor="middle" x="199.5" y="-236.3" font-family="Times New Roman,serif" font-size="14.00">D1FOLEQD</text>
</a>
</g>
<!-- http://latin.omdoc.org/logics/description/owl/owl2.omdoc?OWL2Datatype -->
<g id="node13" class="node"><title>http://latin.omdoc.org/logics/description/owl/owl2.omdoc?OWL2Datatype</title>
<a xlink:href="http://latin.omdoc.org/logics/description/owl/owl2.omdoc?OWL2Datatype" class="graphtheory">
<ellipse fill="gray" stroke="black" cx="134" cy="-196" rx="68.3664" ry="18"/>
<text text-anchor="middle" x="134" y="-192.3" font-family="Times New Roman,serif" font-size="14.00">OWL2Datatype</text>
</a>
</g>
<!-- http://latin.omdoc.org/logics/description/owl/owl.omdoc?OWL1Datatype&#45;&gt;http://latin.omdoc.org/logics/description/owl/owl2.omdoc?OWL2Datatype -->
<g id="edge9" class="edge"><title>http://latin.omdoc.org/logics/description/owl/owl.omdoc?OWL1Datatype&#45;&gt;http://latin.omdoc.org/logics/description/owl/owl2.omdoc?OWL2Datatype</title>
<a class="graphinclude">
<path fill="none" stroke="black" d="M935.17,-270.678C926.534,-268.785 917.535,-267.097 909,-266 867.496,-260.663 190.684,-271.41 156,-248 147.783,-242.454 142.617,-233.136 139.378,-223.972"/>
<polygon fill="black" stroke="black" points="142.712,-222.902 136.565,-214.272 135.989,-224.852 142.712,-222.902"/>
</a>
</g>
<!-- http://latin.omdoc.org/logics/description/owl/owl.omdoc?OWLBase -->
<g id="node3" class="node"><title>http://latin.omdoc.org/logics/description/owl/owl.omdoc?OWLBase</title>
<a xlink:href="http://latin.omdoc.org/logics/description/owl/owl.omdoc?OWLBase" class="graphtheory">
<ellipse fill="none" stroke="black" cx="1117" cy="-284" rx="49.0941" ry="18"/>
<text text-anchor="middle" x="1117" y="-280.3" font-family="Times New Roman,serif" font-size="14.00">OWLBase</text>
</a>
</g>
<!-- http://latin.omdoc.org/logics/description/owl/owl.omdoc?OWLBase&#45;&gt;http://latin.omdoc.org/logics/description/owl/owl.omdoc?OWLLite -->
<g id="edge19" class="edge"><title>http://latin.omdoc.org/logics/description/owl/owl.omdoc?OWLBase&#45;&gt;http://latin.omdoc.org/logics/description/owl/owl.omdoc?OWLLite</title>
<a class="graphinclude">
<path fill="none" stroke="black" d="M1120.51,-265.985C1121.53,-260.293 1122.5,-253.897 1123,-248 1123.66,-240.23 1123.63,-231.776 1123.31,-224.026"/>
<polygon fill="black" stroke="black" points="1126.8,-223.802 1122.72,-214.024 1119.81,-224.212 1126.8,-223.802"/>
</a>
</g>
<!-- http://latin.omdoc.org/logics/description/owl/owl2.omdoc?OWL2SUB -->
<g id="node17" class="node"><title>http://latin.omdoc.org/logics/description/owl/owl2.omdoc?OWL2SUB</title>
<a xlink:href="http://latin.omdoc.org/logics/description/owl/owl2.omdoc?OWL2SUB" class="graphtheory">
<ellipse fill="gray" stroke="black" cx="134" cy="-122" rx="53.4184" ry="18"/>
<text text-anchor="middle" x="134" y="-118.3" font-family="Times New Roman,serif" font-size="14.00">OWL2SUB</text>
</a>
</g>
<!-- http://latin.omdoc.org/logics/description/owl/owl.omdoc?OWLBase&#45;&gt;http://latin.omdoc.org/logics/description/owl/owl2.omdoc?OWL2SUB -->
<g id="edge13" class="edge"><title>http://latin.omdoc.org/logics/description/owl/owl.omdoc?OWLBase&#45;&gt;http://latin.omdoc.org/logics/description/owl/owl2.omdoc?OWL2SUB</title>
<a class="graphinclude">
<path fill="none" stroke="black" d="M1112.58,-265.634C1108.77,-254.272 1102.08,-240.083 1091,-232 970.23,-143.891 907.337,-196.565 759,-178 553.57,-152.29 308.665,-134.439 196.139,-126.949"/>
<polygon fill="black" stroke="black" points="196.202,-123.446 185.993,-126.278 195.74,-130.431 196.202,-123.446"/>
</a>
</g>
<!-- http://latin.omdoc.org/logics/description/owl/owl.omdoc?OWLDL -->
<g id="node5" class="node"><title>http://latin.omdoc.org/logics/description/owl/owl.omdoc?OWLDL</title>
<a xlink:href="http://latin.omdoc.org/logics/description/owl/owl.omdoc?OWLDL" class="graphtheory">
<ellipse fill="none" stroke="black" cx="1121" cy="-122" rx="43.319" ry="18"/>
<text text-anchor="middle" x="1121" y="-118.3" font-family="Times New Roman,serif" font-size="14.00">OWLDL</text>
</a>
</g>
<!-- http://latin.omdoc.org/logics/description/owl/owl.omdoc?OWLLite&#45;&gt;http://latin.omdoc.org/logics/description/owl/owl.omdoc?OWLDL -->
<g id="edge25" class="edge"><title>http://latin.omdoc.org/logics/description/owl/owl.omdoc?OWLLite&#45;&gt;http://latin.omdoc.org/logics/description/owl/owl.omdoc?OWLDL</title>
<a class="graphinclude">
<path fill="none" stroke="black" d="M1121,-177.937C1121,-169.807 1121,-159.876 1121,-150.705"/>
<polygon fill="black" stroke="black" points="1124.5,-150.441 1121,-140.441 1117.5,-150.441 1124.5,-150.441"/>
</a>
</g>
<!-- http://latin.omdoc.org/logics/description/owl/owl.omdoc?OWLFull -->
<g id="node6" class="node"><title>http://latin.omdoc.org/logics/description/owl/owl.omdoc?OWLFull</title>
<a xlink:href="http://latin.omdoc.org/logics/description/owl/owl.omdoc?OWLFull" class="graphtheory">
<ellipse fill="none" stroke="black" cx="999" cy="-34" rx="45.244" ry="18"/>
<text text-anchor="middle" x="999" y="-30.3" font-family="Times New Roman,serif" font-size="14.00">OWLFull</text>
</a>
</g>
<!-- http://latin.omdoc.org/logics/description/owl/owl.omdoc?OWLDL&#45;&gt;http://latin.omdoc.org/logics/description/owl/owl.omdoc?OWLFull -->
<g id="edge29" class="edge"><title>http://latin.omdoc.org/logics/description/owl/owl.omdoc?OWLDL&#45;&gt;http://latin.omdoc.org/logics/description/owl/owl.omdoc?OWLFull</title>
<a class="graphinclude">
<path fill="none" stroke="black" d="M1100.03,-106.216C1080.42,-92.3947 1050.94,-71.61 1028.87,-56.0571"/>
<polygon fill="black" stroke="black" points="1030.71,-53.0695 1020.52,-50.1686 1026.68,-58.7909 1030.71,-53.0695"/>
</a>
</g>
<!-- http://latin.omdoc.org/logics/description/owl/owl.omdoc?OWLFullFOLEQD -->
<g id="node23" class="node"><title>http://latin.omdoc.org/logics/description/owl/owl.omdoc?OWLFullFOLEQD</title>
<a xlink:href="http://latin.omdoc.org/logics/description/owl/owl.omdoc?OWLFullFOLEQD" class="graphtheory">
<ellipse fill="gray" stroke="black" cx="1263" cy="-34" rx="81.3646" ry="18"/>
<text text-anchor="middle" x="1263" y="-30.3" font-family="Times New Roman,serif" font-size="14.00">OWLFullFOLEQD</text>
</a>
</g>
<!-- http://latin.omdoc.org/logics/description/owl/owl.omdoc?OWLDL&#45;&gt;http://latin.omdoc.org/logics/description/owl/owl.omdoc?OWLFullFOLEQD -->
<g id="edge23" class="edge"><title>http://latin.omdoc.org/logics/description/owl/owl.omdoc?OWLDL&#45;&gt;http://latin.omdoc.org/logics/description/owl/owl.omdoc?OWLFullFOLEQD</title>
<a xlink:href="http://latin.omdoc.org/logics/description/owl/owl.omdoc?OWLFullFOLEQD?[http://latin.omdoc.org/logics/description/owl/owl.omdoc?OWLDL]" class="graphstructure">
<path fill="none" stroke="black" d="M1144.45,-106.799C1167,-93.1425 1201.39,-72.3138 1227.33,-56.6013"/>
<polygon fill="black" stroke="black" points="1229.38,-59.4512 1236.12,-51.277 1225.76,-53.4637 1229.38,-59.4512"/>
</a>
<a xlink:href="http://latin.omdoc.org/logics/description/owl/owl.omdoc?OWLFullFOLEQD?[http://latin.omdoc.org/logics/description/owl/owl.omdoc?OWLDL]" class="[http://latin.omdoc.org/logics/description/owl/owl.omdoc?OWLDL]">
<text text-anchor="middle" x="1394.5" y="-74.3" font-family="Times New Roman,serif" font-size="14.00">[http://latin.omdoc.org/logics/description/owl/owl.omdoc?OWLDL]</text>
</a>
</g>
<!-- http://latin.omdoc.org/logics/description/owl/owl2.omdoc?OWL2Datatype&#45;&gt;http://latin.omdoc.org/logics/description/owl/owl2.omdoc?OWL2SUB -->
<g id="edge39" class="edge"><title>http://latin.omdoc.org/logics/description/owl/owl2.omdoc?OWL2Datatype&#45;&gt;http://latin.omdoc.org/logics/description/owl/owl2.omdoc?OWL2SUB</title>
<a class="graphinclude">
<path fill="none" stroke="black" d="M134,-177.937C134,-169.807 134,-159.876 134,-150.705"/>
<polygon fill="black" stroke="black" points="137.5,-150.441 134,-140.441 130.5,-150.441 137.5,-150.441"/>
</a>
</g>
<!-- http://cds.omdoc.org/urtheories?LF -->
<g id="node15" class="node"><title>http://cds.omdoc.org/urtheories?LF</title>
<a xlink:href="http://cds.omdoc.org/urtheories?LF" class="graphtheory">
<ellipse fill="gray" stroke="black" cx="1117" cy="-358" rx="27" ry="18"/>
<text text-anchor="middle" x="1117" y="-354.3" font-family="Times New Roman,serif" font-size="14.00">LF</text>
</a>
</g>
<!-- http://cds.omdoc.org/urtheories?LF&#45;&gt;http://latin.omdoc.org/logics/description/owl/owl.omdoc?OWL1Datatype -->
<g id="edge11" class="edge"><title>http://cds.omdoc.org/urtheories?LF&#45;&gt;http://latin.omdoc.org/logics/description/owl/owl.omdoc?OWL1Datatype</title>
<a class="graphmeta">
<path fill="none" stroke="black" d="M1096.34,-346.065C1075.83,-335.203 1043.9,-318.299 1018.83,-305.028"/>
<polygon fill="black" stroke="black" points="1020.41,-301.906 1009.94,-300.32 1017.14,-308.092 1020.41,-301.906"/>
</a>
</g>
<!-- http://cds.omdoc.org/urtheories?LF&#45;&gt;http://latin.omdoc.org/logics/description/owl/owl.omdoc?OWLBase -->
<g id="edge15" class="edge"><title>http://cds.omdoc.org/urtheories?LF&#45;&gt;http://latin.omdoc.org/logics/description/owl/owl.omdoc?OWLBase</title>
<a class="graphmeta">
<path fill="none" stroke="black" d="M1117,-339.937C1117,-331.807 1117,-321.876 1117,-312.705"/>
<polygon fill="black" stroke="black" points="1120.5,-312.441 1117,-302.441 1113.5,-312.441 1120.5,-312.441"/>
</a>
</g>
<!-- http://cds.omdoc.org/urtheories?LF&#45;&gt;http://latin.omdoc.org/logics/description/owl/owl.omdoc?OWLLite -->
<g id="edge21" class="edge"><title>http://cds.omdoc.org/urtheories?LF&#45;&gt;http://latin.omdoc.org/logics/description/owl/owl.omdoc?OWLLite</title>
<a class="graphmeta">
<path fill="none" stroke="black" d="M1137.99,-346.364C1151.29,-338.361 1167.36,-326.028 1175,-310 1183.42,-292.348 1181.37,-284.488 1175,-266 1169.06,-248.777 1156.86,-232.567 1145.56,-220.192"/>
<polygon fill="black" stroke="black" points="1147.77,-217.447 1138.33,-212.641 1142.72,-222.286 1147.77,-217.447"/>
</a>
</g>
<!-- http://cds.omdoc.org/urtheories?LF&#45;&gt;http://latin.omdoc.org/logics/description/owl/owl.omdoc?OWLDL -->
<g id="edge27" class="edge"><title>http://cds.omdoc.org/urtheories?LF&#45;&gt;http://latin.omdoc.org/logics/description/owl/owl.omdoc?OWLDL</title>
<a class="graphmeta">
<path fill="none" stroke="black" d="M1141.6,-350.373C1160.26,-343.739 1183.88,-331.369 1191,-310 1209.69,-253.937 1202.19,-230.471 1175,-178 1168.59,-165.625 1158.45,-154.215 1148.69,-145.034"/>
<polygon fill="black" stroke="black" points="1150.8,-142.228 1141.02,-138.172 1146.14,-147.447 1150.8,-142.228"/>
</a>
</g>
<!-- http://cds.omdoc.org/urtheories?LF&#45;&gt;http://latin.omdoc.org/logics/description/owl/owl.omdoc?OWLFull -->
<g id="edge31" class="edge"><title>http://cds.omdoc.org/urtheories?LF&#45;&gt;http://latin.omdoc.org/logics/description/owl/owl.omdoc?OWLFull</title>
<a class="graphmeta">
<path fill="none" stroke="black" d="M1089.94,-356.713C919.358,-354.728 0,-341.415 0,-285 0,-285 0,-285 0,-121 0,-73.2276 734.73,-44.1437 943.991,-36.829"/>
<polygon fill="black" stroke="black" points="944.262,-40.3218 954.134,-36.4772 944.019,-33.326 944.262,-40.3218"/>
</a>
</g>
<!-- http://cds.omdoc.org/urtheories?LF&#45;&gt;http://latin.omdoc.org/logics/description/owl/owl.omdoc?FOLEQD -->
<g id="edge33" class="edge"><title>http://cds.omdoc.org/urtheories?LF&#45;&gt;http://latin.omdoc.org/logics/description/owl/owl.omdoc?FOLEQD</title>
<a class="graphmeta">
<path fill="none" stroke="black" d="M1089.81,-356.03C940.054,-350.412 220.098,-319.779 156,-248 151.264,-242.696 151.795,-237.735 156,-232 156.537,-231.267 191.554,-220.296 222.112,-210.83"/>
<polygon fill="black" stroke="black" points="223.309,-214.123 231.828,-207.824 221.24,-207.436 223.309,-214.123"/>
</a>
</g>
<!-- http://cds.omdoc.org/urtheories?LF&#45;&gt;http://latin.omdoc.org/logics/description/owl/owl2.omdoc?OWL2Datatype -->
<g id="edge37" class="edge"><title>http://cds.omdoc.org/urtheories?LF&#45;&gt;http://latin.omdoc.org/logics/description/owl/owl2.omdoc?OWL2Datatype</title>
<a class="graphmeta">
<path fill="none" stroke="black" d="M1089.58,-356.921C944.726,-356.33 272.126,-351.361 190,-310 158.133,-293.951 152.666,-280.96 139,-248 135.955,-240.655 134.426,-232.222 133.727,-224.357"/>
<polygon fill="black" stroke="black" points="137.211,-223.953 133.222,-214.138 130.22,-224.299 137.211,-223.953"/>
</a>
</g>
<!-- http://cds.omdoc.org/urtheories?LF&#45;&gt;http://latin.omdoc.org/logics/description/owl/owl2.omdoc?OWL2SUB -->
<g id="edge35" class="edge"><title>http://cds.omdoc.org/urtheories?LF&#45;&gt;http://latin.omdoc.org/logics/description/owl/owl2.omdoc?OWL2SUB</title>
<a class="graphmeta">
<path fill="none" stroke="black" d="M1089.63,-357.082C940.357,-357.347 228.22,-356.166 143,-310 81.434,-276.648 24.9604,-240.259 57,-178 64.906,-162.637 79.3119,-150.615 93.5428,-141.78"/>
<polygon fill="black" stroke="black" points="95.4258,-144.734 102.321,-136.691 91.9146,-138.679 95.4258,-144.734"/>
</a>
</g>
</g>
</svg>
