<?xml version="1.0" encoding="UTF-8" standalone="no"?>
<!DOCTYPE svg PUBLIC "-//W3C//DTD SVG 1.1//EN"
 "http://www.w3.org/Graphics/SVG/1.1/DTD/svg11.dtd">
<!-- Generated by graphviz version 2.28.0 (20110507.0327)
 -->
<!-- Title: MMT Pages: 1 -->
<svg
 viewBox="0.00 0.00 145.00 204.00" xmlns="http://www.w3.org/2000/svg" xmlns:xlink="http://www.w3.org/1999/xlink">
<g id="graph1" class="graph" transform="scale(1 1) rotate(0) translate(4 200)">
<title>MMT</title>
<polygon fill="white" stroke="white" points="-4,5 -4,-200 142,-200 142,5 -4,5"/>
<g id="graph2" class="cluster"><title>cluster_local</title>
<polygon fill="none" stroke="black" points="8,-8 8,-60 110,-60 110,-8 8,-8"/>
</g>
<!-- http://latin.omdoc.org/logics/model_theory/categorical?Classical -->
<g id="node2" class="node"><title>http://latin.omdoc.org/logics/model_theory/categorical?Classical</title>
<a xlink:href="http://latin.omdoc.org/logics/model_theory/categorical?Classical" class="graphtheory">
<ellipse fill="none" stroke="black" cx="59" cy="-34" rx="42.3456" ry="18"/>
<text text-anchor="middle" x="59" y="-30.3" font-family="Times New Roman,serif" font-size="14.00">Classical</text>
</a>
</g>
<!-- http://latin.omdoc.org/logics/model_theory/categorical?Negation -->
<g id="node3" class="node"><title>http://latin.omdoc.org/logics/model_theory/categorical?Negation</title>
<a xlink:href="http://latin.omdoc.org/logics/model_theory/categorical?Negation" class="graphtheory">
<ellipse fill="gray" stroke="black" cx="95" cy="-106" rx="42.3456" ry="18"/>
<text text-anchor="middle" x="95" y="-102.3" font-family="Times New Roman,serif" font-size="14.00">Negation</text>
</a>
</g>
<!-- http://latin.omdoc.org/logics/model_theory/categorical?Negation&#45;&gt;http://latin.omdoc.org/logics/model_theory/categorical?Classical -->
<g id="edge3" class="edge"><title>http://latin.omdoc.org/logics/model_theory/categorical?Negation&#45;&gt;http://latin.omdoc.org/logics/model_theory/categorical?Classical</title>
<a class="graphinclude">
<path fill="none" stroke="black" d="M86.2854,-88.055C82.0846,-79.8866 76.9545,-69.9116 72.2811,-60.8244"/>
<polygon fill="black" stroke="black" points="75.3204,-59.0812 67.6343,-51.789 69.0954,-62.2826 75.3204,-59.0812"/>
</a>
</g>
<!-- http://cds.omdoc.org/urtheories?LF -->
<g id="node5" class="node"><title>http://cds.omdoc.org/urtheories?LF</title>
<a xlink:href="http://cds.omdoc.org/urtheories?LF" class="graphtheory">
<ellipse fill="gray" stroke="black" cx="59" cy="-178" rx="27" ry="18"/>
<text text-anchor="middle" x="59" y="-174.3" font-family="Times New Roman,serif" font-size="14.00">LF</text>
</a>
</g>
<!-- http://cds.omdoc.org/urtheories?LF&#45;&gt;http://latin.omdoc.org/logics/model_theory/categorical?Classical -->
<g id="edge5" class="edge"><title>http://cds.omdoc.org/urtheories?LF&#45;&gt;http://latin.omdoc.org/logics/model_theory/categorical?Classical</title>
<a class="graphmeta">
<path fill="none" stroke="black" d="M52.5139,-160.104C48.9226,-149.835 44.8251,-136.361 43,-124 40.6629,-108.172 40.6629,-103.828 43,-88 44.2976,-79.2121 46.7436,-69.8616 49.3398,-61.5001"/>
<polygon fill="black" stroke="black" points="52.6991,-62.4889 52.5139,-51.8957 46.0527,-60.2923 52.6991,-62.4889"/>
</a>
</g>
<!-- http://cds.omdoc.org/urtheories?LF&#45;&gt;http://latin.omdoc.org/logics/model_theory/categorical?Negation -->
<g id="edge7" class="edge"><title>http://cds.omdoc.org/urtheories?LF&#45;&gt;http://latin.omdoc.org/logics/model_theory/categorical?Negation</title>
<a class="graphmeta">
<path fill="none" stroke="black" d="M67.3496,-160.765C71.6492,-152.404 76.9918,-142.016 81.8312,-132.606"/>
<polygon fill="black" stroke="black" points="84.9847,-134.127 86.4457,-123.633 78.7596,-130.926 84.9847,-134.127"/>
</a>
</g>
</g>
</svg>
