<?xml version="1.0" encoding="UTF-8" standalone="no"?>
<!DOCTYPE svg PUBLIC "-//W3C//DTD SVG 1.1//EN"
 "http://www.w3.org/Graphics/SVG/1.1/DTD/svg11.dtd">
<!-- Generated by graphviz version 2.28.0 (20110507.0327)
 -->
<!-- Title: MMT Pages: 1 -->
<svg width="307pt" height="404pt"
 viewBox="0.00 0.00 307.00 404.00" xmlns="http://www.w3.org/2000/svg" xmlns:xlink="http://www.w3.org/1999/xlink">
<g id="graph1" class="graph" transform="scale(1 1) rotate(0) translate(4 400)">
<title>MMT</title>
<polygon fill="white" stroke="white" points="-4,5 -4,-400 304,-400 304,5 -4,5"/>
<g id="graph2" class="cluster"><title>cluster_local</title>
<polygon fill="none" stroke="black" points="113,-64 113,-116 193,-116 193,-64 113,-64"/>
</g>
<!-- http://latin.omdoc.org/logics/model_theory/categorical?IProp -->
<g id="node2" class="node"><title>http://latin.omdoc.org/logics/model_theory/categorical?IProp</title>
<a xlink:href="http://latin.omdoc.org/logics/model_theory/categorical?IProp" class="graphtheory">
<ellipse fill="none" stroke="black" cx="153" cy="-90" rx="31.2735" ry="18"/>
<text text-anchor="middle" x="153" y="-86.3" font-family="Times New Roman,serif" font-size="14.00">IProp</text>
</a>
</g>
<!-- http://latin.omdoc.org/logics/model_theory/categorical?IS4 -->
<g id="node3" class="node"><title>http://latin.omdoc.org/logics/model_theory/categorical?IS4</title>
<a xlink:href="http://latin.omdoc.org/logics/model_theory/categorical?IS4" class="graphtheory">
<ellipse fill="gray" stroke="black" cx="153" cy="-18" rx="27" ry="18"/>
<text text-anchor="middle" x="153" y="-14.3" font-family="Times New Roman,serif" font-size="14.00">IS4</text>
</a>
</g>
<!-- http://latin.omdoc.org/logics/model_theory/categorical?IProp&#45;&gt;http://latin.omdoc.org/logics/model_theory/categorical?IS4 -->
<g id="edge3" class="edge"><title>http://latin.omdoc.org/logics/model_theory/categorical?IProp&#45;&gt;http://latin.omdoc.org/logics/model_theory/categorical?IS4</title>
<a class="graphinclude">
<path fill="none" stroke="black" d="M153,-71.6966C153,-63.9827 153,-54.7125 153,-46.1124"/>
<polygon fill="black" stroke="black" points="156.5,-46.1043 153,-36.1043 149.5,-46.1044 156.5,-46.1043"/>
</a>
</g>
<!-- http://latin.omdoc.org/logics/model_theory/categorical?CoCartesianAlt -->
<g id="node5" class="node"><title>http://latin.omdoc.org/logics/model_theory/categorical?CoCartesianAlt</title>
<a xlink:href="http://latin.omdoc.org/logics/model_theory/categorical?CoCartesianAlt" class="graphtheory">
<ellipse fill="gray" stroke="black" cx="176" cy="-234" rx="65.9423" ry="18"/>
<text text-anchor="middle" x="176" y="-230.3" font-family="Times New Roman,serif" font-size="14.00">CoCartesianAlt</text>
</a>
</g>
<!-- http://latin.omdoc.org/logics/model_theory/categorical?CoCartesianAlt&#45;&gt;http://latin.omdoc.org/logics/model_theory/categorical?IProp -->
<g id="edge5" class="edge"><title>http://latin.omdoc.org/logics/model_theory/categorical?CoCartesianAlt&#45;&gt;http://latin.omdoc.org/logics/model_theory/categorical?IProp</title>
<a class="graphinclude">
<path fill="none" stroke="black" d="M188.308,-215.993C199.819,-197.874 213.869,-168.489 204,-144 198.916,-131.383 189.232,-120.09 179.657,-111.203"/>
<polygon fill="black" stroke="black" points="181.931,-108.542 172.092,-104.612 177.333,-113.82 181.931,-108.542"/>
</a>
</g>
<!-- http://latin.omdoc.org/logics/model_theory/categorical?Negation -->
<g id="node7" class="node"><title>http://latin.omdoc.org/logics/model_theory/categorical?Negation</title>
<a xlink:href="http://latin.omdoc.org/logics/model_theory/categorical?Negation" class="graphtheory">
<ellipse fill="gray" stroke="black" cx="153" cy="-162" rx="42.3456" ry="18"/>
<text text-anchor="middle" x="153" y="-158.3" font-family="Times New Roman,serif" font-size="14.00">Negation</text>
</a>
</g>
<!-- http://latin.omdoc.org/logics/model_theory/categorical?CoCartesianAlt&#45;&gt;http://latin.omdoc.org/logics/model_theory/categorical?Negation -->
<g id="edge29" class="edge"><title>http://latin.omdoc.org/logics/model_theory/categorical?CoCartesianAlt&#45;&gt;http://latin.omdoc.org/logics/model_theory/categorical?Negation</title>
<a class="graphinclude">
<path fill="none" stroke="black" d="M170.432,-216.055C167.844,-208.176 164.703,-198.617 161.804,-189.794"/>
<polygon fill="black" stroke="black" points="165.123,-188.683 158.676,-180.275 158.473,-190.868 165.123,-188.683"/>
</a>
</g>
<!-- http://latin.omdoc.org/logics/model_theory/categorical?Negation&#45;&gt;http://latin.omdoc.org/logics/model_theory/categorical?IProp -->
<g id="edge7" class="edge"><title>http://latin.omdoc.org/logics/model_theory/categorical?Negation&#45;&gt;http://latin.omdoc.org/logics/model_theory/categorical?IProp</title>
<a class="graphinclude">
<path fill="none" stroke="black" d="M153,-143.697C153,-135.983 153,-126.712 153,-118.112"/>
<polygon fill="black" stroke="black" points="156.5,-118.104 153,-108.104 149.5,-118.104 156.5,-118.104"/>
</a>
</g>
<!-- http://latin.omdoc.org/logics/model_theory/categorical?CatLog -->
<g id="node9" class="node"><title>http://latin.omdoc.org/logics/model_theory/categorical?CatLog</title>
<a xlink:href="http://latin.omdoc.org/logics/model_theory/categorical?CatLog" class="graphtheory">
<ellipse fill="gray" stroke="black" cx="38" cy="-378" rx="38.0212" ry="18"/>
<text text-anchor="middle" x="38" y="-374.3" font-family="Times New Roman,serif" font-size="14.00">CatLog</text>
</a>
</g>
<!-- http://latin.omdoc.org/logics/model_theory/categorical?CatLog&#45;&gt;http://latin.omdoc.org/logics/model_theory/categorical?IProp -->
<g id="edge9" class="edge"><title>http://latin.omdoc.org/logics/model_theory/categorical?CatLog&#45;&gt;http://latin.omdoc.org/logics/model_theory/categorical?IProp</title>
<a class="graphinclude">
<path fill="none" stroke="black" d="M37.5937,-359.815C37.369,-349.444 37.1129,-335.963 37,-324 36.8491,-308.001 34.3878,-303.785 37,-288 48.037,-221.303 47.0085,-199.226 86,-144 95.7304,-130.218 110.042,-118.22 122.942,-109.141"/>
<polygon fill="black" stroke="black" points="125.229,-111.821 131.574,-103.336 121.323,-106.012 125.229,-111.821"/>
</a>
</g>
<!-- http://latin.omdoc.org/logics/model_theory/categorical?CatLog&#45;&gt;http://latin.omdoc.org/logics/model_theory/categorical?CoCartesianAlt -->
<g id="edge23" class="edge"><title>http://latin.omdoc.org/logics/model_theory/categorical?CatLog&#45;&gt;http://latin.omdoc.org/logics/model_theory/categorical?CoCartesianAlt</title>
<a class="graphinclude">
<path fill="none" stroke="black" d="M41.6112,-360.046C46.5003,-340.613 56.8954,-308.777 76,-288 89.9301,-272.85 109.202,-261.225 127.112,-252.777"/>
<polygon fill="black" stroke="black" points="128.627,-255.933 136.318,-248.646 125.761,-249.547 128.627,-255.933"/>
</a>
</g>
<!-- http://latin.omdoc.org/logics/model_theory/categorical?CatLog&#45;&gt;http://latin.omdoc.org/logics/model_theory/categorical?Negation -->
<g id="edge25" class="edge"><title>http://latin.omdoc.org/logics/model_theory/categorical?CatLog&#45;&gt;http://latin.omdoc.org/logics/model_theory/categorical?Negation</title>
<a class="graphinclude">
<path fill="none" stroke="black" d="M37.9054,-359.996C38.3411,-341.626 40.6308,-311.791 50,-288 66.3635,-246.448 102.064,-208.345 126.812,-185.402"/>
<polygon fill="black" stroke="black" points="129.366,-187.811 134.424,-178.501 124.664,-182.625 129.366,-187.811"/>
</a>
</g>
<!-- http://latin.omdoc.org/logics/model_theory/categorical?CartesianClosed -->
<g id="node11" class="node"><title>http://latin.omdoc.org/logics/model_theory/categorical?CartesianClosed</title>
<a xlink:href="http://latin.omdoc.org/logics/model_theory/categorical?CartesianClosed" class="graphtheory">
<ellipse fill="gray" stroke="black" cx="155" cy="-306" rx="70.2909" ry="18"/>
<text text-anchor="middle" x="155" y="-302.3" font-family="Times New Roman,serif" font-size="14.00">CartesianClosed</text>
</a>
</g>
<!-- http://latin.omdoc.org/logics/model_theory/categorical?CatLog&#45;&gt;http://latin.omdoc.org/logics/model_theory/categorical?CartesianClosed -->
<g id="edge27" class="edge"><title>http://latin.omdoc.org/logics/model_theory/categorical?CatLog&#45;&gt;http://latin.omdoc.org/logics/model_theory/categorical?CartesianClosed</title>
<a class="graphinclude">
<path fill="none" stroke="black" d="M60.8365,-363.337C77.6003,-353.308 100.682,-339.498 119.797,-328.061"/>
<polygon fill="black" stroke="black" points="121.756,-330.968 128.54,-322.831 118.162,-324.962 121.756,-330.968"/>
</a>
</g>
<!-- http://latin.omdoc.org/logics/model_theory/categorical?CartesianClosed&#45;&gt;http://latin.omdoc.org/logics/model_theory/categorical?IProp -->
<g id="edge11" class="edge"><title>http://latin.omdoc.org/logics/model_theory/categorical?CartesianClosed&#45;&gt;http://latin.omdoc.org/logics/model_theory/categorical?IProp</title>
<a class="graphinclude">
<path fill="none" stroke="black" d="M131.482,-289.012C119.963,-279.715 107.253,-266.898 101,-252 82.4242,-207.74 82.8426,-188.433 101,-144 106.233,-131.195 116.216,-119.812 126.047,-110.909"/>
<polygon fill="black" stroke="black" points="128.449,-113.462 133.806,-104.321 123.918,-108.126 128.449,-113.462"/>
</a>
</g>
<!-- http://latin.omdoc.org/logics/model_theory/categorical?CartesianClosed&#45;&gt;http://latin.omdoc.org/logics/model_theory/categorical?CoCartesianAlt -->
<g id="edge21" class="edge"><title>http://latin.omdoc.org/logics/model_theory/categorical?CartesianClosed&#45;&gt;http://latin.omdoc.org/logics/model_theory/categorical?CoCartesianAlt</title>
<a class="graphinclude">
<path fill="none" stroke="black" d="M160.191,-287.697C162.531,-279.898 165.347,-270.509 167.951,-261.829"/>
<polygon fill="black" stroke="black" points="171.348,-262.688 170.869,-252.104 164.643,-260.677 171.348,-262.688"/>
</a>
</g>
<!-- http://cds.omdoc.org/urtheories?LF -->
<g id="node13" class="node"><title>http://cds.omdoc.org/urtheories?LF</title>
<a xlink:href="http://cds.omdoc.org/urtheories?LF" class="graphtheory">
<ellipse fill="gray" stroke="black" cx="272" cy="-378" rx="27" ry="18"/>
<text text-anchor="middle" x="272" y="-374.3" font-family="Times New Roman,serif" font-size="14.00">LF</text>
</a>
</g>
<!-- http://cds.omdoc.org/urtheories?LF&#45;&gt;http://latin.omdoc.org/logics/model_theory/categorical?IProp -->
<g id="edge13" class="edge"><title>http://cds.omdoc.org/urtheories?LF&#45;&gt;http://latin.omdoc.org/logics/model_theory/categorical?IProp</title>
<a class="graphmeta">
<path fill="none" stroke="black" d="M279.499,-360.689C283.808,-350.406 288.79,-336.712 291,-324 299.322,-276.127 294.595,-260.011 274,-216 257.046,-179.771 247.918,-172.646 220,-144 208.141,-131.832 193.478,-119.94 180.896,-110.515"/>
<polygon fill="black" stroke="black" points="182.711,-107.505 172.578,-104.41 178.569,-113.148 182.711,-107.505"/>
</a>
</g>
<!-- http://cds.omdoc.org/urtheories?LF&#45;&gt;http://latin.omdoc.org/logics/model_theory/categorical?CoCartesianAlt -->
<g id="edge19" class="edge"><title>http://cds.omdoc.org/urtheories?LF&#45;&gt;http://latin.omdoc.org/logics/model_theory/categorical?CoCartesianAlt</title>
<a class="graphmeta">
<path fill="none" stroke="black" d="M267.195,-360.169C261.324,-341.416 250.136,-310.748 234,-288 226.091,-276.851 215.487,-266.309 205.509,-257.608"/>
<polygon fill="black" stroke="black" points="207.612,-254.803 197.705,-251.047 203.107,-260.161 207.612,-254.803"/>
</a>
</g>
<!-- http://cds.omdoc.org/urtheories?LF&#45;&gt;http://latin.omdoc.org/logics/model_theory/categorical?Negation -->
<g id="edge15" class="edge"><title>http://cds.omdoc.org/urtheories?LF&#45;&gt;http://latin.omdoc.org/logics/model_theory/categorical?Negation</title>
<a class="graphmeta">
<path fill="none" stroke="black" d="M274.526,-359.713C278.181,-328.15 281.505,-260.363 251,-216 238.191,-197.372 216.652,-184.706 197.023,-176.441"/>
<polygon fill="black" stroke="black" points="198.174,-173.133 187.587,-172.73 195.613,-179.647 198.174,-173.133"/>
</a>
</g>
<!-- http://cds.omdoc.org/urtheories?LF&#45;&gt;http://latin.omdoc.org/logics/model_theory/categorical?CartesianClosed -->
<g id="edge17" class="edge"><title>http://cds.omdoc.org/urtheories?LF&#45;&gt;http://latin.omdoc.org/logics/model_theory/categorical?CartesianClosed</title>
<a class="graphmeta">
<path fill="none" stroke="black" d="M252.417,-365.284C235.417,-355.113 210.392,-340.141 189.963,-327.918"/>
<polygon fill="black" stroke="black" points="191.615,-324.828 181.237,-322.697 188.021,-330.835 191.615,-324.828"/>
</a>
</g>
</g>
</svg>
