<?xml version="1.0" encoding="UTF-8" standalone="no"?>
<!DOCTYPE svg PUBLIC "-//W3C//DTD SVG 1.1//EN"
 "http://www.w3.org/Graphics/SVG/1.1/DTD/svg11.dtd">
<!-- Generated by graphviz version 2.28.0 (20110507.0327)
 -->
<!-- Title: MMT Pages: 1 -->
<svg
 viewBox="0.00 0.00 172.00 188.00" xmlns="http://www.w3.org/2000/svg" xmlns:xlink="http://www.w3.org/1999/xlink">
<g id="graph1" class="graph" transform="scale(1 1) rotate(0) translate(4 184)">
<title>MMT</title>
<polygon fill="white" stroke="white" points="-4,5 -4,-184 169,-184 169,5 -4,5"/>
<g id="graph2" class="cluster"><title>cluster_local</title>
<polygon fill="none" stroke="black" points="27,-64 27,-116 133,-116 133,-64 27,-64"/>
</g>
<!-- http://latin.omdoc.org/logics/model_theory/categorical?Monoidal -->
<g id="node2" class="node"><title>http://latin.omdoc.org/logics/model_theory/categorical?Monoidal</title>
<a xlink:href="http://latin.omdoc.org/logics/model_theory/categorical?Monoidal" class="graphtheory">
<ellipse fill="none" stroke="black" cx="80" cy="-90" rx="45.244" ry="18"/>
<text text-anchor="middle" x="80" y="-86.3" font-family="Times New Roman,serif" font-size="14.00">Monoidal</text>
</a>
</g>
<!-- http://latin.omdoc.org/logics/model_theory/categorical?MonoidalClosed -->
<g id="node3" class="node"><title>http://latin.omdoc.org/logics/model_theory/categorical?MonoidalClosed</title>
<a xlink:href="http://latin.omdoc.org/logics/model_theory/categorical?MonoidalClosed" class="graphtheory">
<ellipse fill="gray" stroke="black" cx="80" cy="-18" rx="71.2405" ry="18"/>
<text text-anchor="middle" x="80" y="-14.3" font-family="Times New Roman,serif" font-size="14.00">MonoidalClosed</text>
</a>
</g>
<!-- http://latin.omdoc.org/logics/model_theory/categorical?Monoidal&#45;&gt;http://latin.omdoc.org/logics/model_theory/categorical?MonoidalClosed -->
<g id="edge3" class="edge"><title>http://latin.omdoc.org/logics/model_theory/categorical?Monoidal&#45;&gt;http://latin.omdoc.org/logics/model_theory/categorical?MonoidalClosed</title>
<a class="graphinclude">
<path fill="none" stroke="black" d="M80,-71.6966C80,-63.9827 80,-54.7125 80,-46.1124"/>
<polygon fill="black" stroke="black" points="83.5001,-46.1043 80,-36.1043 76.5001,-46.1044 83.5001,-46.1043"/>
</a>
</g>
<!-- http://latin.omdoc.org/logics/model_theory/categorical?CatLog -->
<g id="node5" class="node"><title>http://latin.omdoc.org/logics/model_theory/categorical?CatLog</title>
<a xlink:href="http://latin.omdoc.org/logics/model_theory/categorical?CatLog" class="graphtheory">
<ellipse fill="gray" stroke="black" cx="38" cy="-162" rx="38.0212" ry="18"/>
<text text-anchor="middle" x="38" y="-158.3" font-family="Times New Roman,serif" font-size="14.00">CatLog</text>
</a>
</g>
<!-- http://latin.omdoc.org/logics/model_theory/categorical?CatLog&#45;&gt;http://latin.omdoc.org/logics/model_theory/categorical?Monoidal -->
<g id="edge5" class="edge"><title>http://latin.omdoc.org/logics/model_theory/categorical?CatLog&#45;&gt;http://latin.omdoc.org/logics/model_theory/categorical?Monoidal</title>
<a class="graphinclude">
<path fill="none" stroke="black" d="M47.9534,-144.411C52.902,-136.163 58.9946,-126.009 64.5341,-116.777"/>
<polygon fill="black" stroke="black" points="67.6825,-118.332 69.8263,-107.956 61.68,-114.73 67.6825,-118.332"/>
</a>
</g>
<!-- http://latin.omdoc.org/logics/model_theory/categorical?CatLog&#45;&gt;http://latin.omdoc.org/logics/model_theory/categorical?MonoidalClosed -->
<g id="edge11" class="edge"><title>http://latin.omdoc.org/logics/model_theory/categorical?CatLog&#45;&gt;http://latin.omdoc.org/logics/model_theory/categorical?MonoidalClosed</title>
<a class="graphinclude">
<path fill="none" stroke="black" d="M29.7818,-144.34C21.1268,-124.29 10.3669,-90.069 23,-64 27.4536,-54.8097 34.7954,-46.9301 42.7517,-40.4518"/>
<polygon fill="black" stroke="black" points="44.8939,-43.2205 50.8288,-34.4439 40.7161,-37.6039 44.8939,-43.2205"/>
</a>
</g>
<!-- http://cds.omdoc.org/urtheories?LF -->
<g id="node7" class="node"><title>http://cds.omdoc.org/urtheories?LF</title>
<a xlink:href="http://cds.omdoc.org/urtheories?LF" class="graphtheory">
<ellipse fill="gray" stroke="black" cx="137" cy="-162" rx="27" ry="18"/>
<text text-anchor="middle" x="137" y="-158.3" font-family="Times New Roman,serif" font-size="14.00">LF</text>
</a>
</g>
<!-- http://cds.omdoc.org/urtheories?LF&#45;&gt;http://latin.omdoc.org/logics/model_theory/categorical?Monoidal -->
<g id="edge7" class="edge"><title>http://cds.omdoc.org/urtheories?LF&#45;&gt;http://latin.omdoc.org/logics/model_theory/categorical?Monoidal</title>
<a class="graphmeta">
<path fill="none" stroke="black" d="M124.632,-145.811C117.398,-136.927 108.096,-125.504 99.8584,-115.388"/>
<polygon fill="black" stroke="black" points="102.568,-113.172 93.5398,-107.628 97.1401,-117.592 102.568,-113.172"/>
</a>
</g>
<!-- http://cds.omdoc.org/urtheories?LF&#45;&gt;http://latin.omdoc.org/logics/model_theory/categorical?MonoidalClosed -->
<g id="edge9" class="edge"><title>http://cds.omdoc.org/urtheories?LF&#45;&gt;http://latin.omdoc.org/logics/model_theory/categorical?MonoidalClosed</title>
<a class="graphmeta">
<path fill="none" stroke="black" d="M141.3,-143.88C145.436,-123.681 149.411,-89.6113 137,-64 132.546,-54.8097 125.205,-46.9301 117.248,-40.4518"/>
<polygon fill="black" stroke="black" points="119.284,-37.6039 109.171,-34.4439 115.106,-43.2205 119.284,-37.6039"/>
</a>
</g>
</g>
</svg>
