<?xml version="1.0" encoding="UTF-8" standalone="no"?>
<!DOCTYPE svg PUBLIC "-//W3C//DTD SVG 1.1//EN"
 "http://www.w3.org/Graphics/SVG/1.1/DTD/svg11.dtd">
<!-- Generated by graphviz version 2.28.0 (20110507.0327)
 -->
<!-- Title: MMT Pages: 1 -->
<svg
 viewBox="0.00 0.00 118.00 204.00" xmlns="http://www.w3.org/2000/svg" xmlns:xlink="http://www.w3.org/1999/xlink">
<g id="graph1" class="graph" transform="scale(1 1) rotate(0) translate(4 200)">
<title>MMT</title>
<polygon fill="white" stroke="white" points="-4,5 -4,-200 115,-200 115,5 -4,5"/>
<g id="graph2" class="cluster"><title>cluster_local</title>
<polygon fill="none" stroke="black" points="8,-8 8,-60 82,-60 82,-8 8,-8"/>
</g>
<!-- http://latin.omdoc.org/foundations/hollight?HOL -->
<g id="node2" class="node"><title>http://latin.omdoc.org/foundations/hollight?HOL</title>
<a xlink:href="http://latin.omdoc.org/foundations/hollight?HOL" class="graphtheory">
<ellipse fill="none" stroke="black" cx="45" cy="-34" rx="29.3722" ry="18"/>
<text text-anchor="middle" x="45" y="-30.3" font-family="Times New Roman,serif" font-size="14.00">HOL</text>
</a>
</g>
<!-- http://latin.omdoc.org/foundations/hollight?Kernel -->
<g id="node3" class="node"><title>http://latin.omdoc.org/foundations/hollight?Kernel</title>
<a xlink:href="http://latin.omdoc.org/foundations/hollight?Kernel" class="graphtheory">
<ellipse fill="gray" stroke="black" cx="76" cy="-106" rx="34.1708" ry="18"/>
<text text-anchor="middle" x="76" y="-102.3" font-family="Times New Roman,serif" font-size="14.00">Kernel</text>
</a>
</g>
<!-- http://latin.omdoc.org/foundations/hollight?Kernel&#45;&gt;http://latin.omdoc.org/foundations/hollight?HOL -->
<g id="edge3" class="edge"><title>http://latin.omdoc.org/foundations/hollight?Kernel&#45;&gt;http://latin.omdoc.org/foundations/hollight?HOL</title>
<a class="graphinclude">
<path fill="none" stroke="black" d="M68.6534,-88.411C64.9858,-80.1292 60.4667,-69.9249 56.3646,-60.662"/>
<polygon fill="black" stroke="black" points="59.5434,-59.1962 52.2938,-51.4699 53.1429,-62.0307 59.5434,-59.1962"/>
</a>
</g>
<!-- http://cds.omdoc.org/urtheories?LF -->
<g id="node5" class="node"><title>http://cds.omdoc.org/urtheories?LF</title>
<a xlink:href="http://cds.omdoc.org/urtheories?LF" class="graphtheory">
<ellipse fill="gray" stroke="black" cx="45" cy="-178" rx="27" ry="18"/>
<text text-anchor="middle" x="45" y="-174.3" font-family="Times New Roman,serif" font-size="14.00">LF</text>
</a>
</g>
<!-- http://cds.omdoc.org/urtheories?LF&#45;&gt;http://latin.omdoc.org/foundations/hollight?HOL -->
<g id="edge5" class="edge"><title>http://cds.omdoc.org/urtheories?LF&#45;&gt;http://latin.omdoc.org/foundations/hollight?HOL</title>
<a class="graphmeta">
<path fill="none" stroke="black" d="M40.1309,-159.979C37.4358,-149.665 34.3626,-136.189 33,-124 31.2224,-108.099 31.2224,-103.901 33,-88 33.9581,-79.4299 35.7618,-70.2228 37.6852,-61.9264"/>
<polygon fill="black" stroke="black" points="41.1318,-62.5684 40.1309,-52.0209 34.3358,-60.8904 41.1318,-62.5684"/>
</a>
</g>
<!-- http://cds.omdoc.org/urtheories?LF&#45;&gt;http://latin.omdoc.org/foundations/hollight?Kernel -->
<g id="edge7" class="edge"><title>http://cds.omdoc.org/urtheories?LF&#45;&gt;http://latin.omdoc.org/foundations/hollight?Kernel</title>
<a class="graphmeta">
<path fill="none" stroke="black" d="M52.3466,-160.411C55.923,-152.335 60.309,-142.431 64.3286,-133.355"/>
<polygon fill="black" stroke="black" points="67.6417,-134.517 68.4908,-123.956 61.2413,-131.682 67.6417,-134.517"/>
</a>
</g>
</g>
</svg>
