<?xml version="1.0" encoding="UTF-8" standalone="no"?>
<!DOCTYPE svg PUBLIC "-//W3C//DTD SVG 1.1//EN"
 "http://www.w3.org/Graphics/SVG/1.1/DTD/svg11.dtd">
<!-- Generated by graphviz version 2.28.0 (20110507.0327)
 -->
<!-- Title: MMT Pages: 1 -->
<svg width="552pt" height="368pt"
 viewBox="0.00 0.00 552.00 368.00" xmlns="http://www.w3.org/2000/svg" xmlns:xlink="http://www.w3.org/1999/xlink">
<g id="graph1" class="graph" transform="scale(1 1) rotate(0) translate(4 364)">
<title>MMT</title>
<polygon fill="white" stroke="white" points="-4,5 -4,-364 549,-364 549,5 -4,5"/>
<g id="graph2" class="cluster"><title>cluster_local</title>
<polygon fill="none" stroke="black" points="72,-80 72,-294 156,-294 156,-80 72,-80"/>
</g>
<!-- http://latin.omdoc.org/logics/tptp?TFF -->
<g id="node2" class="node"><title>http://latin.omdoc.org/logics/tptp?TFF</title>
<a xlink:href="javascript:parent.navigate(&#39;http://latin.omdoc.org/logics/tptp?TFF&#39;)" xlink:title="theory http://latin.omdoc.org/logics/tptp?TFF">
<ellipse fill="none" stroke="black" cx="121" cy="-194" rx="26.949" ry="18"/>
<text text-anchor="middle" x="121" y="-190.3" font-family="Times New Roman,serif" font-size="14.00">TFF</text>
</a>
</g>
<!-- http://latin.omdoc.org/logics/tptp?PFF -->
<g id="node4" class="node"><title>http://latin.omdoc.org/logics/tptp?PFF</title>
<a xlink:href="javascript:parent.navigate(&#39;http://latin.omdoc.org/logics/tptp?PFF&#39;)" xlink:title="theory http://latin.omdoc.org/logics/tptp?PFF">
<ellipse fill="none" stroke="black" cx="114" cy="-106" rx="27" ry="18"/>
<text text-anchor="middle" x="114" y="-102.3" font-family="Times New Roman,serif" font-size="14.00">PFF</text>
</a>
</g>
<!-- http://latin.omdoc.org/logics/tptp?TFF&#45;&gt;http://latin.omdoc.org/logics/tptp?PFF -->
<g id="edge17" class="edge"><title>http://latin.omdoc.org/logics/tptp?TFF&#45;&gt;http://latin.omdoc.org/logics/tptp?PFF</title>
<a xlink:title="include">
<path fill="none" stroke="black" d="M133.656,-177.541C140.294,-167.514 146.247,-154.108 142,-142 140.451,-137.585 138.086,-133.313 135.372,-129.361"/>
<polygon fill="black" stroke="black" points="137.976,-127.009 129.058,-121.288 132.462,-131.321 137.976,-127.009"/>
</a>
</g>
<!-- http://latin.omdoc.org/logics/tptp?THF0 -->
<g id="node5" class="node"><title>http://latin.omdoc.org/logics/tptp?THF0</title>
<a xlink:href="javascript:parent.navigate(&#39;http://latin.omdoc.org/logics/tptp?THF0&#39;)" xlink:title="theory http://latin.omdoc.org/logics/tptp?THF0">
<ellipse fill="gray" stroke="black" cx="32" cy="-106" rx="32.2457" ry="18"/>
<text text-anchor="middle" x="32" y="-102.3" font-family="Times New Roman,serif" font-size="14.00">THF0</text>
</a>
</g>
<!-- http://latin.omdoc.org/logics/tptp?TFF&#45;&gt;http://latin.omdoc.org/logics/tptp?THF0 -->
<g id="edge3" class="edge"><title>http://latin.omdoc.org/logics/tptp?TFF&#45;&gt;http://latin.omdoc.org/logics/tptp?THF0</title>
<a xlink:href="javascript:parent.navigate(&#39;http://latin.omdoc.org/logics/tptp?FirstToHigher&#39;)" xlink:title="view http://latin.omdoc.org/logics/tptp?FirstToHigher">
<path fill="none" stroke="blue" stroke-dasharray="5,2" d="M97.8554,-184.91C85.0438,-178.958 69.5438,-170.208 58.2834,-158.697 51.3436,-151.532 45.8099,-142.483 41.5219,-133.875"/>
<path fill="none" stroke="blue" stroke-dasharray="5,2" d="M98.6976,-183.096C86.0269,-177.217 70.5269,-168.467 59.7166,-157.303 53.0499,-150.489 47.5162,-141.439 43.3125,-132.984"/>
<polygon fill="blue" stroke="blue" points="45.5162,-131.79 38.1717,-124.154 39.1513,-134.703 45.5162,-131.79"/>
</a>
<a xlink:href="javascript:parent.navigate(&#39;http://latin.omdoc.org/logics/tptp?FirstToHigher&#39;)" xlink:title="FirstToHigher">
<text text-anchor="middle" x="98.5" y="-146.3" font-family="Times New Roman,serif" font-size="14.00">FirstToHigher</text>
</a>
</g>
<!-- http://latin.omdoc.org/logics/tptp?TFF&#45;Arithmetic -->
<g id="node7" class="node"><title>http://latin.omdoc.org/logics/tptp?TFF&#45;Arithmetic</title>
<a xlink:href="javascript:parent.navigate(&#39;http://latin.omdoc.org/logics/tptp?TFF-Arithmetic&#39;)" xlink:title="theory http://latin.omdoc.org/logics/tptp?TFF&#45;Arithmetic">
<ellipse fill="gray" stroke="black" cx="448" cy="-106" rx="67.3907" ry="18"/>
<text text-anchor="middle" x="448" y="-102.3" font-family="Times New Roman,serif" font-size="14.00">TFF&#45;Arithmetic</text>
</a>
</g>
<!-- http://latin.omdoc.org/logics/tptp?TFF&#45;&gt;http://latin.omdoc.org/logics/tptp?TFF&#45;Arithmetic -->
<g id="edge5" class="edge"><title>http://latin.omdoc.org/logics/tptp?TFF&#45;&gt;http://latin.omdoc.org/logics/tptp?TFF&#45;Arithmetic</title>
<a xlink:title="include">
<path fill="none" stroke="black" d="M140.628,-181.199C144.323,-179.278 148.216,-177.447 152,-176 163.1,-171.755 305.199,-139.306 388.402,-120.456"/>
<polygon fill="black" stroke="black" points="389.263,-123.85 398.244,-118.228 387.718,-117.023 389.263,-123.85"/>
</a>
</g>
<!-- http://latin.omdoc.org/logics/tptp?FirstToHigherArithmetic -->
<g id="node9" class="node"><title>http://latin.omdoc.org/logics/tptp?FirstToHigherArithmetic</title>
<a xlink:href="javascript:parent.navigate(&#39;http://latin.omdoc.org/logics/tptp?FirstToHigherArithmetic&#39;)" xlink:title="theory http://latin.omdoc.org/logics/tptp?FirstToHigherArithmetic">
<ellipse fill="gray" stroke="black" cx="263" cy="-106" rx="99.1619" ry="18"/>
<text text-anchor="middle" x="263" y="-102.3" font-family="Times New Roman,serif" font-size="14.00">FirstToHigherArithmetic</text>
</a>
</g>
<!-- http://latin.omdoc.org/logics/tptp?TFF&#45;&gt;http://latin.omdoc.org/logics/tptp?FirstToHigherArithmetic -->
<g id="edge7" class="edge"><title>http://latin.omdoc.org/logics/tptp?TFF&#45;&gt;http://latin.omdoc.org/logics/tptp?FirstToHigherArithmetic</title>
<a xlink:title="include">
<path fill="none" stroke="black" d="M140.447,-181.222C162.791,-167.69 199.914,-145.207 227.458,-128.525"/>
<polygon fill="black" stroke="black" points="229.293,-131.506 236.034,-123.332 225.667,-125.518 229.293,-131.506"/>
</a>
</g>
<!-- http://latin.omdoc.org/logics/tptp?Types -->
<g id="node3" class="node"><title>http://latin.omdoc.org/logics/tptp?Types</title>
<a xlink:href="javascript:parent.navigate(&#39;http://latin.omdoc.org/logics/tptp?Types&#39;)" xlink:title="theory http://latin.omdoc.org/logics/tptp?Types">
<ellipse fill="none" stroke="black" cx="114" cy="-268" rx="33.1991" ry="18"/>
<text text-anchor="middle" x="114" y="-264.3" font-family="Times New Roman,serif" font-size="14.00">Types</text>
</a>
</g>
<!-- http://latin.omdoc.org/logics/tptp?Types&#45;&gt;http://latin.omdoc.org/logics/tptp?TFF -->
<g id="edge9" class="edge"><title>http://latin.omdoc.org/logics/tptp?Types&#45;&gt;http://latin.omdoc.org/logics/tptp?TFF</title>
<a xlink:title="include">
<path fill="none" stroke="black" d="M115.659,-249.937C116.458,-241.719 117.436,-231.66 118.336,-222.406"/>
<polygon fill="black" stroke="black" points="121.82,-222.732 119.304,-212.441 114.853,-222.055 121.82,-222.732"/>
</a>
</g>
<!-- http://latin.omdoc.org/logics/tptp?PTHF -->
<g id="node15" class="node"><title>http://latin.omdoc.org/logics/tptp?PTHF</title>
<a xlink:href="javascript:parent.navigate(&#39;http://latin.omdoc.org/logics/tptp?PTHF&#39;)" xlink:title="theory http://latin.omdoc.org/logics/tptp?PTHF">
<ellipse fill="gray" stroke="black" cx="114" cy="-18" rx="33.1991" ry="18"/>
<text text-anchor="middle" x="114" y="-14.3" font-family="Times New Roman,serif" font-size="14.00">PTHF</text>
</a>
</g>
<!-- http://latin.omdoc.org/logics/tptp?PFF&#45;&gt;http://latin.omdoc.org/logics/tptp?PTHF -->
<g id="edge15" class="edge"><title>http://latin.omdoc.org/logics/tptp?PFF&#45;&gt;http://latin.omdoc.org/logics/tptp?PTHF</title>
<a xlink:href="javascript:parent.navigate(&#39;http://latin.omdoc.org/logics/tptp?PTHF?pff&#39;)" xlink:title="structure http://latin.omdoc.org/logics/tptp?PTHF?pff">
<path fill="none" stroke="red" stroke-width="2" d="M114,-87.5966C114,-75.7459 114,-59.8169 114,-46.2917"/>
<polygon fill="red" stroke="red" points="117.5,-46.084 114,-36.084 110.5,-46.084 117.5,-46.084"/>
</a>
<a xlink:href="javascript:parent.navigate(&#39;http://latin.omdoc.org/logics/tptp?PTHF?pff&#39;)" xlink:title="pff">
<text text-anchor="middle" x="122.5" y="-58.3" font-family="Times New Roman,serif" font-size="14.00">pff</text>
</a>
</g>
<!-- http://latin.omdoc.org/logics/tptp?THF0&#45;&gt;http://latin.omdoc.org/logics/tptp?PTHF -->
<g id="edge27" class="edge"><title>http://latin.omdoc.org/logics/tptp?THF0&#45;&gt;http://latin.omdoc.org/logics/tptp?PTHF</title>
<a xlink:title="include">
<path fill="none" stroke="black" d="M46.66,-89.6249C59.37,-76.2949 77.9366,-56.8225 92.357,-41.6988"/>
<polygon fill="black" stroke="black" points="95.0993,-43.8946 99.467,-34.242 90.0331,-39.0641 95.0993,-43.8946"/>
</a>
</g>
<!-- http://cds.omdoc.org/urtheories?LF -->
<g id="node12" class="node"><title>http://cds.omdoc.org/urtheories?LF</title>
<a xlink:href="javascript:parent.navigate(&#39;http://cds.omdoc.org/urtheories?LF&#39;)" xlink:title="theory http://cds.omdoc.org/urtheories?LF">
<ellipse fill="gray" stroke="black" cx="114" cy="-342" rx="27" ry="18"/>
<text text-anchor="middle" x="114" y="-338.3" font-family="Times New Roman,serif" font-size="14.00">LF</text>
</a>
</g>
<!-- http://cds.omdoc.org/urtheories?LF&#45;&gt;http://latin.omdoc.org/logics/tptp?TFF -->
<g id="edge11" class="edge"><title>http://cds.omdoc.org/urtheories?LF&#45;&gt;http://latin.omdoc.org/logics/tptp?TFF</title>
<a xlink:title="meta">
<path fill="none" stroke="green" d="M130.821,-327.71C140.175,-319.203 150.927,-307.291 156,-294 162.974,-275.73 161.467,-268.776 156,-250 152.739,-238.801 146.431,-227.704 140.058,-218.443"/>
<polygon fill="green" stroke="green" points="142.749,-216.195 134.025,-210.183 137.096,-220.323 142.749,-216.195"/>
</a>
</g>
<!-- http://cds.omdoc.org/urtheories?LF&#45;&gt;http://latin.omdoc.org/logics/tptp?Types -->
<g id="edge13" class="edge"><title>http://cds.omdoc.org/urtheories?LF&#45;&gt;http://latin.omdoc.org/logics/tptp?Types</title>
<a xlink:title="meta">
<path fill="none" stroke="green" d="M114,-323.937C114,-315.807 114,-305.876 114,-296.705"/>
<polygon fill="green" stroke="green" points="117.5,-296.441 114,-286.441 110.5,-296.441 117.5,-296.441"/>
</a>
</g>
<!-- http://cds.omdoc.org/urtheories?LF&#45;&gt;http://latin.omdoc.org/logics/tptp?PFF -->
<g id="edge19" class="edge"><title>http://cds.omdoc.org/urtheories?LF&#45;&gt;http://latin.omdoc.org/logics/tptp?PFF</title>
<a xlink:title="meta">
<path fill="none" stroke="green" d="M97.7218,-327.374C88.4789,-318.748 77.4918,-306.828 71,-294 40.019,-232.78 7.02074,-199.795 44,-142 54.2889,-125.919 65.9538,-132.595 83,-124 83.6783,-123.658 84.3634,-123.309 85.0531,-122.956"/>
<polygon fill="green" stroke="green" points="86.8891,-125.944 94.0968,-118.179 83.6197,-119.754 86.8891,-125.944"/>
</a>
</g>
<!-- http://cds.omdoc.org/urtheories?LF&#45;&gt;http://latin.omdoc.org/logics/tptp?THF0 -->
<g id="edge25" class="edge"><title>http://cds.omdoc.org/urtheories?LF&#45;&gt;http://latin.omdoc.org/logics/tptp?THF0</title>
<a xlink:title="meta">
<path fill="none" stroke="green" d="M91.7968,-331.48C76.1331,-323.641 55.8968,-311.045 44,-294 10.4715,-245.963 18.1736,-172.982 25.6921,-133.916"/>
<polygon fill="green" stroke="green" points="29.1769,-134.347 27.7734,-123.845 22.3218,-132.93 29.1769,-134.347"/>
</a>
</g>
<!-- http://cds.omdoc.org/urtheories?LF&#45;&gt;http://latin.omdoc.org/logics/tptp?TFF&#45;Arithmetic -->
<g id="edge23" class="edge"><title>http://cds.omdoc.org/urtheories?LF&#45;&gt;http://latin.omdoc.org/logics/tptp?TFF&#45;Arithmetic</title>
<a xlink:title="meta">
<path fill="none" stroke="green" d="M132.448,-328.414C142.153,-321.774 154.24,-313.475 165,-306 256.862,-242.184 364.832,-165.907 416.864,-129.068"/>
<polygon fill="green" stroke="green" points="419.18,-131.717 425.318,-123.081 415.135,-126.004 419.18,-131.717"/>
</a>
</g>
<!-- http://cds.omdoc.org/urtheories?LF&#45;&gt;http://latin.omdoc.org/logics/tptp?PTHF -->
<g id="edge21" class="edge"><title>http://cds.omdoc.org/urtheories?LF&#45;&gt;http://latin.omdoc.org/logics/tptp?PTHF</title>
<a xlink:title="meta">
<path fill="none" stroke="green" d="M140.898,-339.355C235.036,-333.245 544,-310.063 544,-269 544,-269 544,-269 544,-105 544,-26.7306 266.599,-18.7118 157.41,-18.5871"/>
<polygon fill="green" stroke="green" points="157.38,-15.0871 147.384,-18.5976 157.387,-22.0871 157.38,-15.0871"/>
</a>
</g>
</g>
</svg>
