<?xml version="1.0" encoding="UTF-8" standalone="no"?>
<!DOCTYPE svg PUBLIC "-//W3C//DTD SVG 1.1//EN"
 "http://www.w3.org/Graphics/SVG/1.1/DTD/svg11.dtd">
<!-- Generated by graphviz version 2.28.0 (20110507.0327)
 -->
<!-- Title: MMT Pages: 1 -->
<svg width="514pt" height="280pt"
 viewBox="0.00 0.00 514.00 280.00" xmlns="http://www.w3.org/2000/svg" xmlns:xlink="http://www.w3.org/1999/xlink">
<g id="graph1" class="graph" transform="scale(1 1) rotate(0) translate(4 276)">
<title>MMT</title>
<polygon fill="white" stroke="white" points="-4,5 -4,-276 511,-276 511,5 -4,5"/>
<g id="graph2" class="cluster"><title>cluster_local</title>
<polygon fill="none" stroke="black" points="184,-80 184,-206 268,-206 268,-80 184,-80"/>
</g>
<!-- http://latin.omdoc.org/logics/tptp?TFF -->
<g id="node2" class="node"><title>http://latin.omdoc.org/logics/tptp?TFF</title>
<a xlink:href="javascript:parent.navigate(&#39;http://latin.omdoc.org/logics/tptp?TFF&#39;)" xlink:title="theory http://latin.omdoc.org/logics/tptp?TFF">
<ellipse fill="none" stroke="black" cx="226" cy="-106" rx="26.949" ry="18"/>
<text text-anchor="middle" x="226" y="-102.3" font-family="Times New Roman,serif" font-size="14.00">TFF</text>
</a>
</g>
<!-- http://latin.omdoc.org/logics/tptp?THF0 -->
<g id="node4" class="node"><title>http://latin.omdoc.org/logics/tptp?THF0</title>
<a xlink:href="javascript:parent.navigate(&#39;http://latin.omdoc.org/logics/tptp?THF0&#39;)" xlink:title="theory http://latin.omdoc.org/logics/tptp?THF0">
<ellipse fill="gray" stroke="black" cx="32" cy="-18" rx="32.2457" ry="18"/>
<text text-anchor="middle" x="32" y="-14.3" font-family="Times New Roman,serif" font-size="14.00">THF0</text>
</a>
</g>
<!-- http://latin.omdoc.org/logics/tptp?TFF&#45;&gt;http://latin.omdoc.org/logics/tptp?THF0 -->
<g id="edge3" class="edge"><title>http://latin.omdoc.org/logics/tptp?TFF&#45;&gt;http://latin.omdoc.org/logics/tptp?THF0</title>
<a xlink:href="javascript:parent.navigate(&#39;http://latin.omdoc.org/logics/tptp?FirstToHigher&#39;)" xlink:title="view http://latin.omdoc.org/logics/tptp?FirstToHigher">
<path fill="none" stroke="blue" stroke-dasharray="5,2" d="M211.008,-91.4724C206.169,-87.4218 200.402,-83.3727 194.607,-80.9195 164.028,-67.0864 151.383,-81.9039 117.674,-70.9453 96.3051,-63.5511 74.6171,-50.6447 58.2721,-39.6141"/>
<path fill="none" stroke="blue" stroke-dasharray="5,2" d="M212.29,-89.9381C207.318,-85.785 201.551,-81.7358 195.393,-79.0805 162.507,-65.7882 149.862,-80.6056 118.326,-69.0547 97.3279,-61.8324 75.6399,-48.926 59.391,-37.9564"/>
<polygon fill="blue" stroke="blue" points="60.5819,-35.7399 50.3698,-32.9178 56.5932,-41.4923 60.5819,-35.7399"/>
</a>
<a xlink:href="javascript:parent.navigate(&#39;http://latin.omdoc.org/logics/tptp?FirstToHigher&#39;)" xlink:title="FirstToHigher">
<text text-anchor="middle" x="157.5" y="-58.3" font-family="Times New Roman,serif" font-size="14.00">FirstToHigher</text>
</a>
</g>
<!-- http://latin.omdoc.org/logics/tptp?TFF&#45;Arithmetic -->
<g id="node6" class="node"><title>http://latin.omdoc.org/logics/tptp?TFF&#45;Arithmetic</title>
<a xlink:href="javascript:parent.navigate(&#39;http://latin.omdoc.org/logics/tptp?TFF-Arithmetic&#39;)" xlink:title="theory http://latin.omdoc.org/logics/tptp?TFF&#45;Arithmetic">
<ellipse fill="gray" stroke="black" cx="439" cy="-18" rx="67.3907" ry="18"/>
<text text-anchor="middle" x="439" y="-14.3" font-family="Times New Roman,serif" font-size="14.00">TFF&#45;Arithmetic</text>
</a>
</g>
<!-- http://latin.omdoc.org/logics/tptp?TFF&#45;&gt;http://latin.omdoc.org/logics/tptp?TFF&#45;Arithmetic -->
<g id="edge5" class="edge"><title>http://latin.omdoc.org/logics/tptp?TFF&#45;&gt;http://latin.omdoc.org/logics/tptp?TFF&#45;Arithmetic</title>
<a xlink:title="include">
<path fill="none" stroke="black" d="M241.315,-90.8674C246.09,-86.9661 251.542,-82.9889 257,-80 295.739,-58.7847 343.15,-43.1862 379.869,-33.0753"/>
<polygon fill="black" stroke="black" points="381.179,-36.3473 389.926,-30.3689 379.36,-29.5878 381.179,-36.3473"/>
</a>
</g>
<!-- http://latin.omdoc.org/logics/tptp?FirstToHigherArithmetic -->
<g id="node8" class="node"><title>http://latin.omdoc.org/logics/tptp?FirstToHigherArithmetic</title>
<a xlink:href="javascript:parent.navigate(&#39;http://latin.omdoc.org/logics/tptp?FirstToHigherArithmetic&#39;)" xlink:title="theory http://latin.omdoc.org/logics/tptp?FirstToHigherArithmetic">
<ellipse fill="gray" stroke="black" cx="182" cy="-18" rx="99.1619" ry="18"/>
<text text-anchor="middle" x="182" y="-14.3" font-family="Times New Roman,serif" font-size="14.00">FirstToHigherArithmetic</text>
</a>
</g>
<!-- http://latin.omdoc.org/logics/tptp?TFF&#45;&gt;http://latin.omdoc.org/logics/tptp?FirstToHigherArithmetic -->
<g id="edge7" class="edge"><title>http://latin.omdoc.org/logics/tptp?TFF&#45;&gt;http://latin.omdoc.org/logics/tptp?FirstToHigherArithmetic</title>
<a xlink:title="include">
<path fill="none" stroke="black" d="M217.724,-88.8241C211.454,-76.5687 202.707,-59.4732 195.438,-45.2657"/>
<polygon fill="black" stroke="black" points="198.361,-43.2943 190.691,-35.986 192.129,-46.4827 198.361,-43.2943"/>
</a>
</g>
<!-- http://latin.omdoc.org/logics/tptp?PFF -->
<g id="node10" class="node"><title>http://latin.omdoc.org/logics/tptp?PFF</title>
<a xlink:href="javascript:parent.navigate(&#39;http://latin.omdoc.org/logics/tptp?PFF&#39;)" xlink:title="theory http://latin.omdoc.org/logics/tptp?PFF">
<ellipse fill="gray" stroke="black" cx="326" cy="-18" rx="27" ry="18"/>
<text text-anchor="middle" x="326" y="-14.3" font-family="Times New Roman,serif" font-size="14.00">PFF</text>
</a>
</g>
<!-- http://latin.omdoc.org/logics/tptp?TFF&#45;&gt;http://latin.omdoc.org/logics/tptp?PFF -->
<g id="edge9" class="edge"><title>http://latin.omdoc.org/logics/tptp?TFF&#45;&gt;http://latin.omdoc.org/logics/tptp?PFF</title>
<a xlink:title="include">
<path fill="none" stroke="black" d="M238.99,-89.9244C248.465,-79.3294 261.89,-65.1191 275,-54 282.259,-47.8429 290.606,-41.7535 298.417,-36.423"/>
<polygon fill="black" stroke="black" points="300.535,-39.2178 306.921,-30.7641 296.657,-33.3901 300.535,-39.2178"/>
</a>
</g>
<!-- http://latin.omdoc.org/logics/tptp?Types -->
<g id="node3" class="node"><title>http://latin.omdoc.org/logics/tptp?Types</title>
<a xlink:href="javascript:parent.navigate(&#39;http://latin.omdoc.org/logics/tptp?Types&#39;)" xlink:title="theory http://latin.omdoc.org/logics/tptp?Types">
<ellipse fill="none" stroke="black" cx="226" cy="-180" rx="33.1991" ry="18"/>
<text text-anchor="middle" x="226" y="-176.3" font-family="Times New Roman,serif" font-size="14.00">Types</text>
</a>
</g>
<!-- http://latin.omdoc.org/logics/tptp?Types&#45;&gt;http://latin.omdoc.org/logics/tptp?TFF -->
<g id="edge11" class="edge"><title>http://latin.omdoc.org/logics/tptp?Types&#45;&gt;http://latin.omdoc.org/logics/tptp?TFF</title>
<a xlink:title="include">
<path fill="none" stroke="black" d="M226,-161.937C226,-153.807 226,-143.876 226,-134.705"/>
<polygon fill="black" stroke="black" points="229.5,-134.441 226,-124.441 222.5,-134.441 229.5,-134.441"/>
</a>
</g>
<!-- http://cds.omdoc.org/urtheories?LF -->
<g id="node13" class="node"><title>http://cds.omdoc.org/urtheories?LF</title>
<a xlink:href="javascript:parent.navigate(&#39;http://cds.omdoc.org/urtheories?LF&#39;)" xlink:title="theory http://cds.omdoc.org/urtheories?LF">
<ellipse fill="gray" stroke="black" cx="226" cy="-254" rx="27" ry="18"/>
<text text-anchor="middle" x="226" y="-250.3" font-family="Times New Roman,serif" font-size="14.00">LF</text>
</a>
</g>
<!-- http://cds.omdoc.org/urtheories?LF&#45;&gt;http://latin.omdoc.org/logics/tptp?TFF -->
<g id="edge13" class="edge"><title>http://cds.omdoc.org/urtheories?LF&#45;&gt;http://latin.omdoc.org/logics/tptp?TFF</title>
<a xlink:title="meta">
<path fill="none" stroke="green" d="M242.821,-239.71C252.175,-231.203 262.927,-219.291 268,-206 274.974,-187.73 274.264,-180.525 268,-162 263.892,-149.852 255.909,-138.273 247.996,-128.901"/>
<polygon fill="green" stroke="green" points="250.44,-126.383 241.159,-121.273 245.227,-131.056 250.44,-126.383"/>
</a>
</g>
<!-- http://cds.omdoc.org/urtheories?LF&#45;&gt;http://latin.omdoc.org/logics/tptp?Types -->
<g id="edge15" class="edge"><title>http://cds.omdoc.org/urtheories?LF&#45;&gt;http://latin.omdoc.org/logics/tptp?Types</title>
<a xlink:title="meta">
<path fill="none" stroke="green" d="M226,-235.937C226,-227.807 226,-217.876 226,-208.705"/>
<polygon fill="green" stroke="green" points="229.5,-208.441 226,-198.441 222.5,-208.441 229.5,-208.441"/>
</a>
</g>
<!-- http://cds.omdoc.org/urtheories?LF&#45;&gt;http://latin.omdoc.org/logics/tptp?THF0 -->
<g id="edge21" class="edge"><title>http://cds.omdoc.org/urtheories?LF&#45;&gt;http://latin.omdoc.org/logics/tptp?THF0</title>
<a xlink:title="meta">
<path fill="none" stroke="green" d="M211.089,-238.562C201.88,-229.452 189.961,-217.31 180,-206 130.345,-149.622 76.7263,-79.217 49.7091,-42.9939"/>
<polygon fill="green" stroke="green" points="52.5155,-40.9024 43.7399,-34.9659 46.8981,-45.0791 52.5155,-40.9024"/>
</a>
</g>
<!-- http://cds.omdoc.org/urtheories?LF&#45;&gt;http://latin.omdoc.org/logics/tptp?TFF&#45;Arithmetic -->
<g id="edge19" class="edge"><title>http://cds.omdoc.org/urtheories?LF&#45;&gt;http://latin.omdoc.org/logics/tptp?TFF&#45;Arithmetic</title>
<a xlink:title="meta">
<path fill="none" stroke="green" d="M247.833,-243.154C261.289,-236.712 278.654,-227.71 293,-218 359.172,-173.213 406.408,-88.0854 427.185,-45.1506"/>
<polygon fill="green" stroke="green" points="430.438,-46.4601 431.555,-35.9244 424.111,-43.4636 430.438,-46.4601"/>
</a>
</g>
<!-- http://cds.omdoc.org/urtheories?LF&#45;&gt;http://latin.omdoc.org/logics/tptp?PFF -->
<g id="edge17" class="edge"><title>http://cds.omdoc.org/urtheories?LF&#45;&gt;http://latin.omdoc.org/logics/tptp?PFF</title>
<a xlink:title="meta">
<path fill="none" stroke="green" d="M247.544,-242.849C261.338,-234.99 277.93,-222.632 285,-206 307.957,-151.991 318.751,-83.5245 323.238,-46.2374"/>
<polygon fill="green" stroke="green" points="326.733,-46.4829 324.389,-36.1507 319.778,-45.6897 326.733,-46.4829"/>
</a>
</g>
</g>
</svg>
