<?xml version="1.0" encoding="UTF-8" standalone="no"?>
<!DOCTYPE svg PUBLIC "-//W3C//DTD SVG 1.1//EN"
 "http://www.w3.org/Graphics/SVG/1.1/DTD/svg11.dtd">
<!-- Generated by graphviz version 2.28.0 (20110507.0327)
 -->
<!-- Title: MMT Pages: 1 -->
<svg width="232pt" height="280pt"
 viewBox="0.00 0.00 231.61 280.00" xmlns="http://www.w3.org/2000/svg" xmlns:xlink="http://www.w3.org/1999/xlink">
<g id="graph1" class="graph" transform="scale(1 1) rotate(0) translate(4 276)">
<title>MMT</title>
<polygon fill="white" stroke="white" points="-4,5 -4,-276 228.611,-276 228.611,5 -4,5"/>
<g id="graph2" class="cluster"><title>cluster_local</title>
<polygon fill="none" stroke="black" points="34,-154 34,-206 146,-206 146,-154 34,-154"/>
</g>
<!-- http://latin.omdoc.org/logics/tptp?Arithmetic -->
<g id="node2" class="node"><title>http://latin.omdoc.org/logics/tptp?Arithmetic</title>
<a xlink:href="javascript:parent.navigate(&#39;http://latin.omdoc.org/logics/tptp?Arithmetic&#39;)" xlink:title="theory http://latin.omdoc.org/logics/tptp?Arithmetic">
<ellipse fill="none" stroke="black" cx="90" cy="-180" rx="48.1437" ry="18"/>
<text text-anchor="middle" x="90" y="-176.3" font-family="Times New Roman,serif" font-size="14.00">Arithmetic</text>
</a>
</g>
<!-- http://latin.omdoc.org/logics/tptp?TFF&#45;Arithmetic -->
<g id="node3" class="node"><title>http://latin.omdoc.org/logics/tptp?TFF&#45;Arithmetic</title>
<a xlink:href="javascript:parent.navigate(&#39;http://latin.omdoc.org/logics/tptp?TFF-Arithmetic&#39;)" xlink:title="theory http://latin.omdoc.org/logics/tptp?TFF&#45;Arithmetic">
<ellipse fill="gray" stroke="black" cx="124" cy="-106" rx="67.3907" ry="18"/>
<text text-anchor="middle" x="124" y="-102.3" font-family="Times New Roman,serif" font-size="14.00">TFF&#45;Arithmetic</text>
</a>
</g>
<!-- http://latin.omdoc.org/logics/tptp?Arithmetic&#45;&gt;http://latin.omdoc.org/logics/tptp?TFF&#45;Arithmetic -->
<g id="edge3" class="edge"><title>http://latin.omdoc.org/logics/tptp?Arithmetic&#45;&gt;http://latin.omdoc.org/logics/tptp?TFF&#45;Arithmetic</title>
<a xlink:title="include">
<path fill="none" stroke="black" d="M98.0575,-161.937C102.122,-153.329 107.141,-142.702 111.678,-133.095"/>
<polygon fill="black" stroke="black" points="114.895,-134.478 116,-123.941 108.565,-131.488 114.895,-134.478"/>
</a>
</g>
<!-- http://latin.omdoc.org/logics/tptp?THF&#45;Arithmetic -->
<g id="node5" class="node"><title>http://latin.omdoc.org/logics/tptp?THF&#45;Arithmetic</title>
<a xlink:href="javascript:parent.navigate(&#39;http://latin.omdoc.org/logics/tptp?THF-Arithmetic&#39;)" xlink:title="theory http://latin.omdoc.org/logics/tptp?THF&#45;Arithmetic">
<ellipse fill="gray" stroke="black" cx="68" cy="-18" rx="68.3417" ry="18"/>
<text text-anchor="middle" x="68" y="-14.3" font-family="Times New Roman,serif" font-size="14.00">THF&#45;Arithmetic</text>
</a>
</g>
<!-- http://latin.omdoc.org/logics/tptp?Arithmetic&#45;&gt;http://latin.omdoc.org/logics/tptp?THF&#45;Arithmetic -->
<g id="edge5" class="edge"><title>http://latin.omdoc.org/logics/tptp?Arithmetic&#45;&gt;http://latin.omdoc.org/logics/tptp?THF&#45;Arithmetic</title>
<a xlink:title="include">
<path fill="none" stroke="black" d="M72.7338,-162.971C63.1407,-152.848 52.1323,-138.897 47,-124 38.0611,-98.0536 46.4143,-67.1164 55.0891,-45.5719"/>
<polygon fill="black" stroke="black" points="58.4274,-46.6687 59.1674,-36.0997 51.998,-43.9004 58.4274,-46.6687"/>
</a>
</g>
<!-- http://latin.omdoc.org/logics/tptp?TFF&#45;Arithmetic&#45;&gt;http://latin.omdoc.org/logics/tptp?THF&#45;Arithmetic -->
<g id="edge13" class="edge"><title>http://latin.omdoc.org/logics/tptp?TFF&#45;Arithmetic&#45;&gt;http://latin.omdoc.org/logics/tptp?THF&#45;Arithmetic</title>
<a xlink:href="javascript:parent.navigate(&#39;http://latin.omdoc.org/logics/tptp?FirstToHigherArithmetic&#39;)" xlink:title="view http://latin.omdoc.org/logics/tptp?FirstToHigherArithmetic">
<path fill="none" stroke="blue" stroke-dasharray="5,2" d="M89.2226,-91.2675C80.8836,-85.9763 73.1124,-79.2419 68.1282,-70.4898 64.0296,-63.0587 62.7747,-54.4981 62.7921,-46.2828"/>
<path fill="none" stroke="blue" stroke-dasharray="5,2" d="M90.2922,-89.5775C82.1934,-84.4648 74.4222,-77.7304 69.8718,-69.5102 66.0085,-62.7686 64.7535,-54.208 64.7921,-46.2897"/>
<polygon fill="blue" stroke="blue" points="67.2961,-46.3361 64.4467,-36.1316 60.3106,-45.8857 67.2961,-46.3361"/>
</a>
<a xlink:href="javascript:parent.navigate(&#39;http://latin.omdoc.org/logics/tptp?FirstToHigherArithmetic&#39;)" xlink:title="FirstToHigherArithmetic">
<text text-anchor="middle" x="137.5" y="-58.3" font-family="Times New Roman,serif" font-size="14.00">FirstToHigherArithmetic</text>
</a>
</g>
<!-- http://cds.omdoc.org/urtheories?LF -->
<g id="node7" class="node"><title>http://cds.omdoc.org/urtheories?LF</title>
<a xlink:href="javascript:parent.navigate(&#39;http://cds.omdoc.org/urtheories?LF&#39;)" xlink:title="theory http://cds.omdoc.org/urtheories?LF">
<ellipse fill="gray" stroke="black" cx="166" cy="-254" rx="27" ry="18"/>
<text text-anchor="middle" x="166" y="-250.3" font-family="Times New Roman,serif" font-size="14.00">LF</text>
</a>
</g>
<!-- http://cds.omdoc.org/urtheories?LF&#45;&gt;http://latin.omdoc.org/logics/tptp?Arithmetic -->
<g id="edge7" class="edge"><title>http://cds.omdoc.org/urtheories?LF&#45;&gt;http://latin.omdoc.org/logics/tptp?Arithmetic</title>
<a xlink:title="meta">
<path fill="none" stroke="green" d="M150.985,-238.775C140.552,-228.891 126.416,-215.5 114.381,-204.098"/>
<polygon fill="green" stroke="green" points="116.503,-201.286 106.836,-196.95 111.688,-206.368 116.503,-201.286"/>
</a>
</g>
<!-- http://cds.omdoc.org/urtheories?LF&#45;&gt;http://latin.omdoc.org/logics/tptp?TFF&#45;Arithmetic -->
<g id="edge9" class="edge"><title>http://cds.omdoc.org/urtheories?LF&#45;&gt;http://latin.omdoc.org/logics/tptp?TFF&#45;Arithmetic</title>
<a xlink:title="meta">
<path fill="none" stroke="green" d="M165.015,-235.748C163.459,-215.642 159.555,-181.645 150,-154 147.585,-147.013 144.172,-139.845 140.611,-133.28"/>
<polygon fill="green" stroke="green" points="143.402,-131.111 135.387,-124.182 137.332,-134.597 143.402,-131.111"/>
</a>
</g>
<!-- http://cds.omdoc.org/urtheories?LF&#45;&gt;http://latin.omdoc.org/logics/tptp?THF&#45;Arithmetic -->
<g id="edge11" class="edge"><title>http://cds.omdoc.org/urtheories?LF&#45;&gt;http://latin.omdoc.org/logics/tptp?THF&#45;Arithmetic</title>
<a xlink:title="meta">
<path fill="none" stroke="green" d="M176.595,-237.403C199.784,-201.151 249.604,-110.043 206,-54 197.102,-42.5639 167.408,-34.2616 137.833,-28.6214"/>
<polygon fill="green" stroke="green" points="138.302,-25.1494 127.838,-26.81 137.054,-32.0372 138.302,-25.1494"/>
</a>
</g>
</g>
</svg>
