<?xml version="1.0" encoding="UTF-8" standalone="no"?>
<!DOCTYPE svg PUBLIC "-//W3C//DTD SVG 1.1//EN"
 "http://www.w3.org/Graphics/SVG/1.1/DTD/svg11.dtd">
<!-- Generated by graphviz version 2.28.0 (20110507.0327)
 -->
<!-- Title: MMT Pages: 1 -->
<svg width="661pt" height="458pt"
 viewBox="0.00 0.00 660.76 458.00" xmlns="http://www.w3.org/2000/svg" xmlns:xlink="http://www.w3.org/1999/xlink">
<g id="graph1" class="graph" transform="scale(1 1) rotate(0) translate(4 454)">
<title>MMT</title>
<polygon fill="white" stroke="white" points="-4,5 -4,-454 657.761,-454 657.761,5 -4,5"/>
<g id="graph2" class="cluster"><title>cluster_local</title>
<polygon fill="none" stroke="black" points="269.761,-8 269.761,-60 395.761,-60 395.761,-8 269.761,-8"/>
</g>
<!-- http://latin.omdoc.org/logics/model_theory?SFOLMOD -->
<g id="node2" class="node"><title>http://latin.omdoc.org/logics/model_theory?SFOLMOD</title>
<a xlink:href="http://latin.omdoc.org/logics/model_theory?SFOLMOD" class="graphtheory">
<ellipse fill="none" stroke="black" cx="332.761" cy="-34" rx="54.3924" ry="18"/>
<text text-anchor="middle" x="332.761" y="-30.3" font-family="Times New Roman,serif" font-size="14.00">SFOLMOD</text>
</a>
</g>
<!-- http://latin.omdoc.org/logics/syntax?SExists -->
<g id="node3" class="node"><title>http://latin.omdoc.org/logics/syntax?SExists</title>
<a xlink:href="http://latin.omdoc.org/logics/syntax?SExists" class="graphtheory">
<ellipse fill="gray" stroke="black" cx="378.761" cy="-284" rx="38.0212" ry="18"/>
<text text-anchor="middle" x="378.761" y="-280.3" font-family="Times New Roman,serif" font-size="14.00">SExists</text>
</a>
</g>
<!-- http://latin.omdoc.org/logics/syntax?SExists&#45;&gt;http://latin.omdoc.org/logics/model_theory?SFOLMOD -->
<g id="edge3" class="edge"><title>http://latin.omdoc.org/logics/syntax?SExists&#45;&gt;http://latin.omdoc.org/logics/model_theory?SFOLMOD</title>
<a xlink:href="http://latin.omdoc.org/logics/model_theory?SExists" class="graphview">
<path fill="none" stroke="black" d="M379.174,-265.672C379.255,-247.198 378.352,-217.195 372.761,-192 370.901,-183.62 368.224,-182.223 365.761,-174 356.632,-143.52 358.112,-134.957 350.761,-104 347.454,-90.0728 343.462,-74.6505 340.079,-61.9248"/>
<polygon fill="black" stroke="black" points="343.378,-60.7145 337.408,-51.9615 336.617,-62.5267 343.378,-60.7145"/>
</a>
<a xlink:href="http://latin.omdoc.org/logics/model_theory?SExists" class="SExists">
<text text-anchor="middle" x="387.261" y="-162.3" font-family="Times New Roman,serif" font-size="14.00">SExists</text>
</a>
</g>
<!-- http://latin.omdoc.org/logics/syntax?SFOL -->
<g id="node11" class="node"><title>http://latin.omdoc.org/logics/syntax?SFOL</title>
<a xlink:href="http://latin.omdoc.org/logics/syntax?SFOL" class="graphtheory">
<ellipse fill="gray" stroke="black" cx="330.761" cy="-210" rx="33.1991" ry="18"/>
<text text-anchor="middle" x="330.761" y="-206.3" font-family="Times New Roman,serif" font-size="14.00">SFOL</text>
</a>
</g>
<!-- http://latin.omdoc.org/logics/syntax?SExists&#45;&gt;http://latin.omdoc.org/logics/syntax?SFOL -->
<g id="edge61" class="edge"><title>http://latin.omdoc.org/logics/syntax?SExists&#45;&gt;http://latin.omdoc.org/logics/syntax?SFOL</title>
<a class="graphinclude">
<path fill="none" stroke="black" d="M367.869,-266.662C361.793,-257.548 354.101,-246.01 347.297,-235.804"/>
<polygon fill="black" stroke="black" points="350.069,-233.652 341.61,-227.273 344.245,-237.535 350.069,-233.652"/>
</a>
</g>
<!-- http://latin.omdoc.org/logics/proof_theory?BaseSFOL -->
<g id="node5" class="node"><title>http://latin.omdoc.org/logics/proof_theory?BaseSFOL</title>
<a xlink:href="http://latin.omdoc.org/logics/proof_theory?BaseSFOL" class="graphtheory">
<ellipse fill="gray" stroke="black" cx="65.7608" cy="-284" rx="51.0191" ry="18"/>
<text text-anchor="middle" x="65.7608" y="-280.3" font-family="Times New Roman,serif" font-size="14.00">BaseSFOL</text>
</a>
</g>
<!-- http://latin.omdoc.org/logics/proof_theory?BaseSFOL&#45;&gt;http://latin.omdoc.org/logics/model_theory?SFOLMOD -->
<g id="edge5" class="edge"><title>http://latin.omdoc.org/logics/proof_theory?BaseSFOL&#45;&gt;http://latin.omdoc.org/logics/model_theory?SFOLMOD</title>
<a xlink:href="http://latin.omdoc.org/logics/soundness?BaseSFOL" class="graphview">
<path fill="none" stroke="black" d="M53.5769,-266.35C37.3134,-241.939 12.3572,-195.289 28.7608,-158 52.0671,-105.019 72.7522,-95.4012 124.761,-70 169.692,-48.0554 225.871,-39.5633 268.515,-36.4161"/>
<polygon fill="black" stroke="black" points="268.749,-39.9084 278.497,-35.7581 268.288,-32.9235 268.749,-39.9084"/>
</a>
<a xlink:href="http://latin.omdoc.org/logics/soundness?BaseSFOL" class="BaseSFOL">
<text text-anchor="middle" x="60.2608" y="-162.3" font-family="Times New Roman,serif" font-size="14.00">BaseSFOL</text>
</a>
</g>
<!-- http://latin.omdoc.org/logics/proof_theory?SForall -->
<g id="node9" class="node"><title>http://latin.omdoc.org/logics/proof_theory?SForall</title>
<a xlink:href="http://latin.omdoc.org/logics/proof_theory?SForall" class="graphtheory">
<ellipse fill="gray" stroke="black" cx="94.7608" cy="-210" rx="37.0701" ry="18"/>
<text text-anchor="middle" x="94.7608" y="-206.3" font-family="Times New Roman,serif" font-size="14.00">SForall</text>
</a>
</g>
<!-- http://latin.omdoc.org/logics/proof_theory?BaseSFOL&#45;&gt;http://latin.omdoc.org/logics/proof_theory?SForall -->
<g id="edge59" class="edge"><title>http://latin.omdoc.org/logics/proof_theory?BaseSFOL&#45;&gt;http://latin.omdoc.org/logics/proof_theory?SForall</title>
<a class="graphinclude">
<path fill="none" stroke="black" d="M72.6334,-265.937C76.0644,-257.419 80.292,-246.923 84.1294,-237.395"/>
<polygon fill="black" stroke="black" points="87.448,-238.524 87.9376,-227.941 80.9549,-235.909 87.448,-238.524"/>
</a>
</g>
<!-- http://latin.omdoc.org/logics/syntax?BaseSFOL -->
<g id="node7" class="node"><title>http://latin.omdoc.org/logics/syntax?BaseSFOL</title>
<a xlink:href="http://latin.omdoc.org/logics/syntax?BaseSFOL" class="graphtheory">
<ellipse fill="gray" stroke="black" cx="308.761" cy="-358" rx="51.0191" ry="18"/>
<text text-anchor="middle" x="308.761" y="-354.3" font-family="Times New Roman,serif" font-size="14.00">BaseSFOL</text>
</a>
</g>
<!-- http://latin.omdoc.org/logics/syntax?BaseSFOL&#45;&gt;http://latin.omdoc.org/logics/model_theory?SFOLMOD -->
<g id="edge7" class="edge"><title>http://latin.omdoc.org/logics/syntax?BaseSFOL&#45;&gt;http://latin.omdoc.org/logics/model_theory?SFOLMOD</title>
<a xlink:href="http://latin.omdoc.org/logics/model_theory?BaseSFOL" class="graphview">
<path fill="none" stroke="black" d="M290.807,-340.932C261.109,-312.303 206.733,-250.016 224.761,-192 241.272,-138.864 282.704,-87.7818 309.185,-58.9894"/>
<polygon fill="black" stroke="black" points="311.941,-61.1668 316.224,-51.4763 306.833,-56.3807 311.941,-61.1668"/>
</a>
<a xlink:href="http://latin.omdoc.org/logics/model_theory?BaseSFOL" class="BaseSFOL">
<text text-anchor="middle" x="256.261" y="-206.3" font-family="Times New Roman,serif" font-size="14.00">BaseSFOL</text>
</a>
</g>
<!-- http://latin.omdoc.org/logics/syntax?BaseSFOL&#45;&gt;http://latin.omdoc.org/logics/syntax?SExists -->
<g id="edge53" class="edge"><title>http://latin.omdoc.org/logics/syntax?BaseSFOL&#45;&gt;http://latin.omdoc.org/logics/syntax?SExists</title>
<a class="graphinclude">
<path fill="none" stroke="black" d="M324.645,-340.662C333.993,-331.047 345.966,-318.732 356.272,-308.131"/>
<polygon fill="black" stroke="black" points="358.959,-310.388 363.421,-300.778 353.94,-305.509 358.959,-310.388"/>
</a>
</g>
<!-- http://latin.omdoc.org/logics/syntax?BaseSFOL&#45;&gt;http://latin.omdoc.org/logics/proof_theory?BaseSFOL -->
<g id="edge55" class="edge"><title>http://latin.omdoc.org/logics/syntax?BaseSFOL&#45;&gt;http://latin.omdoc.org/logics/proof_theory?BaseSFOL</title>
<a class="graphinclude">
<path fill="none" stroke="black" d="M271.059,-345.829C228.584,-333.244 159.469,-312.765 113.32,-299.091"/>
<polygon fill="black" stroke="black" points="114.134,-295.682 103.551,-296.197 112.145,-302.394 114.134,-295.682"/>
</a>
</g>
<!-- http://latin.omdoc.org/logics/syntax?BaseSFOL&#45;&gt;http://latin.omdoc.org/logics/syntax?SFOL -->
<g id="edge57" class="edge"><title>http://latin.omdoc.org/logics/syntax?BaseSFOL&#45;&gt;http://latin.omdoc.org/logics/syntax?SFOL</title>
<a class="graphinclude">
<path fill="none" stroke="black" d="M311.328,-339.966C315.083,-315.045 322.115,-268.374 326.611,-238.537"/>
<polygon fill="black" stroke="black" points="330.113,-238.788 328.142,-228.378 323.191,-237.745 330.113,-238.788"/>
</a>
</g>
<!-- http://latin.omdoc.org/logics/syntax?SForall -->
<g id="node15" class="node"><title>http://latin.omdoc.org/logics/syntax?SForall</title>
<a xlink:href="http://latin.omdoc.org/logics/syntax?SForall" class="graphtheory">
<ellipse fill="gray" stroke="black" cx="171.761" cy="-284" rx="37.0701" ry="18"/>
<text text-anchor="middle" x="171.761" y="-280.3" font-family="Times New Roman,serif" font-size="14.00">SForall</text>
</a>
</g>
<!-- http://latin.omdoc.org/logics/syntax?BaseSFOL&#45;&gt;http://latin.omdoc.org/logics/syntax?SForall -->
<g id="edge49" class="edge"><title>http://latin.omdoc.org/logics/syntax?BaseSFOL&#45;&gt;http://latin.omdoc.org/logics/syntax?SForall</title>
<a class="graphinclude">
<path fill="none" stroke="black" d="M285.795,-341.896C274.783,-334.899 261.289,-326.676 248.761,-320 235.852,-313.121 221.332,-306.297 208.407,-300.525"/>
<polygon fill="black" stroke="black" points="209.451,-297.161 198.889,-296.334 206.63,-303.567 209.451,-297.161"/>
</a>
</g>
<!-- http://latin.omdoc.org/logics/syntax?SEqual -->
<g id="node17" class="node"><title>http://latin.omdoc.org/logics/syntax?SEqual</title>
<a xlink:href="http://latin.omdoc.org/logics/syntax?SEqual" class="graphtheory">
<ellipse fill="gray" stroke="black" cx="471.761" cy="-284" rx="36.096" ry="18"/>
<text text-anchor="middle" x="471.761" y="-280.3" font-family="Times New Roman,serif" font-size="14.00">SEqual</text>
</a>
</g>
<!-- http://latin.omdoc.org/logics/syntax?BaseSFOL&#45;&gt;http://latin.omdoc.org/logics/syntax?SEqual -->
<g id="edge51" class="edge"><title>http://latin.omdoc.org/logics/syntax?BaseSFOL&#45;&gt;http://latin.omdoc.org/logics/syntax?SEqual</title>
<a class="graphinclude">
<path fill="none" stroke="black" d="M339.42,-343.457C366.928,-331.307 407.301,-313.473 436.213,-300.702"/>
<polygon fill="black" stroke="black" points="437.811,-303.823 445.544,-296.581 434.982,-297.42 437.811,-303.823"/>
</a>
</g>
<!-- http://latin.omdoc.org/logics/proof_theory?SForall&#45;&gt;http://latin.omdoc.org/logics/model_theory?SFOLMOD -->
<g id="edge9" class="edge"><title>http://latin.omdoc.org/logics/proof_theory?SForall&#45;&gt;http://latin.omdoc.org/logics/model_theory?SFOLMOD</title>
<a xlink:href="http://latin.omdoc.org/logics/soundness?SForall" class="graphview">
<path fill="none" stroke="black" d="M94.5575,-191.763C95.0435,-169.877 98.439,-131.645 114.761,-104 126.796,-83.6152 134.381,-80.164 155.761,-70 191.422,-53.0464 234.88,-44.3027 269.81,-39.7943"/>
<polygon fill="black" stroke="black" points="270.38,-43.251 279.889,-38.5792 269.542,-36.3014 270.38,-43.251"/>
</a>
<a xlink:href="http://latin.omdoc.org/logics/soundness?SForall" class="SForall">
<text text-anchor="middle" x="135.261" y="-118.3" font-family="Times New Roman,serif" font-size="14.00">SForall</text>
</a>
</g>
<!-- http://latin.omdoc.org/logics/syntax?SFOL&#45;&gt;http://latin.omdoc.org/logics/model_theory?SFOLMOD -->
<g id="edge11" class="edge"><title>http://latin.omdoc.org/logics/syntax?SFOL&#45;&gt;http://latin.omdoc.org/logics/model_theory?SFOLMOD</title>
<a xlink:href="http://latin.omdoc.org/logics/model_theory?SFOL" class="graphview">
<path fill="none" stroke="black" d="M325.207,-191.939C319.137,-171.193 310.772,-135.092 314.761,-104 316.57,-89.8978 320.378,-74.5622 324.028,-61.9377"/>
<polygon fill="black" stroke="black" points="327.471,-62.6423 327.009,-52.0575 320.77,-60.6201 327.471,-62.6423"/>
</a>
<a xlink:href="http://latin.omdoc.org/logics/model_theory?SFOL" class="SFOL">
<text text-anchor="middle" x="332.761" y="-118.3" font-family="Times New Roman,serif" font-size="14.00">SFOL</text>
</a>
</g>
<!-- http://latin.omdoc.org/logics/syntax?SFOLEQ -->
<g id="node13" class="node"><title>http://latin.omdoc.org/logics/syntax?SFOLEQ</title>
<a xlink:href="http://latin.omdoc.org/logics/syntax?SFOLEQ" class="graphtheory">
<ellipse fill="gray" stroke="black" cx="504.761" cy="-122" rx="46.2191" ry="18"/>
<text text-anchor="middle" x="504.761" y="-118.3" font-family="Times New Roman,serif" font-size="14.00">SFOLEQ</text>
</a>
</g>
<!-- http://latin.omdoc.org/logics/syntax?SFOL&#45;&gt;http://latin.omdoc.org/logics/syntax?SFOLEQ -->
<g id="edge47" class="edge"><title>http://latin.omdoc.org/logics/syntax?SFOL&#45;&gt;http://latin.omdoc.org/logics/syntax?SFOLEQ</title>
<a class="graphinclude">
<path fill="none" stroke="black" d="M364.131,-207.588C394.673,-204.804 439.838,-196.785 471.761,-174 480.645,-167.659 487.74,-158.109 493.039,-148.981"/>
<polygon fill="black" stroke="black" points="496.141,-150.602 497.741,-140.129 489.959,-147.319 496.141,-150.602"/>
</a>
</g>
<!-- http://latin.omdoc.org/logics/syntax?SFOLEQ&#45;&gt;http://latin.omdoc.org/logics/model_theory?SFOLMOD -->
<g id="edge13" class="edge"><title>http://latin.omdoc.org/logics/syntax?SFOLEQ&#45;&gt;http://latin.omdoc.org/logics/model_theory?SFOLMOD</title>
<a xlink:href="http://latin.omdoc.org/logics/model_theory?SFOLEQ" class="graphview">
<path fill="none" stroke="black" d="M489.293,-104.766C477.896,-93.6246 461.524,-79.238 444.761,-70 426.909,-60.1616 405.902,-52.6671 386.933,-47.1873"/>
<polygon fill="black" stroke="black" points="387.799,-43.7953 377.228,-44.5036 385.933,-50.5421 387.799,-43.7953"/>
</a>
<a xlink:href="http://latin.omdoc.org/logics/model_theory?SFOLEQ" class="SFOLEQ">
<text text-anchor="middle" x="496.261" y="-74.3" font-family="Times New Roman,serif" font-size="14.00">SFOLEQ</text>
</a>
</g>
<!-- http://latin.omdoc.org/logics/syntax?SForall&#45;&gt;http://latin.omdoc.org/logics/model_theory?SFOLMOD -->
<g id="edge15" class="edge"><title>http://latin.omdoc.org/logics/syntax?SForall&#45;&gt;http://latin.omdoc.org/logics/model_theory?SFOLMOD</title>
<a xlink:href="http://latin.omdoc.org/logics/model_theory?SForall" class="graphview">
<path fill="none" stroke="black" d="M168.735,-265.78C162.587,-224.506 153.747,-119.682 211.761,-70 228.466,-55.6944 250.72,-47.2271 271.586,-42.2188"/>
<polygon fill="black" stroke="black" points="272.34,-45.6367 281.367,-40.0901 270.852,-38.7968 272.34,-45.6367"/>
</a>
<a xlink:href="http://latin.omdoc.org/logics/model_theory?SForall" class="SForall">
<text text-anchor="middle" x="189.261" y="-162.3" font-family="Times New Roman,serif" font-size="14.00">SForall</text>
</a>
</g>
<!-- http://latin.omdoc.org/logics/syntax?SForall&#45;&gt;http://latin.omdoc.org/logics/proof_theory?SForall -->
<g id="edge43" class="edge"><title>http://latin.omdoc.org/logics/syntax?SForall&#45;&gt;http://latin.omdoc.org/logics/proof_theory?SForall</title>
<a class="graphinclude">
<path fill="none" stroke="black" d="M155.431,-267.731C144.712,-257.708 130.515,-244.432 118.549,-233.243"/>
<polygon fill="black" stroke="black" points="120.762,-230.521 111.067,-226.247 115.981,-235.634 120.762,-230.521"/>
</a>
</g>
<!-- http://latin.omdoc.org/logics/syntax?SForall&#45;&gt;http://latin.omdoc.org/logics/syntax?SFOL -->
<g id="edge45" class="edge"><title>http://latin.omdoc.org/logics/syntax?SForall&#45;&gt;http://latin.omdoc.org/logics/syntax?SFOL</title>
<a class="graphinclude">
<path fill="none" stroke="black" d="M189.221,-268.066C198.657,-260.6 210.8,-251.919 222.761,-246 247.713,-233.652 256.298,-236.65 282.761,-228 286.529,-226.768 290.45,-225.446 294.355,-224.104"/>
<polygon fill="black" stroke="black" points="295.641,-227.362 303.93,-220.763 293.335,-220.753 295.641,-227.362"/>
</a>
</g>
<!-- http://latin.omdoc.org/logics/syntax?SEqual&#45;&gt;http://latin.omdoc.org/logics/model_theory?SFOLMOD -->
<g id="edge17" class="edge"><title>http://latin.omdoc.org/logics/syntax?SEqual&#45;&gt;http://latin.omdoc.org/logics/model_theory?SFOLMOD</title>
<a xlink:href="http://latin.omdoc.org/logics/model_theory?SEqual" class="graphview">
<path fill="none" stroke="black" d="M464.088,-266.125C447.088,-229.33 404.145,-139.605 358.761,-70 356.59,-66.6711 354.217,-63.2356 351.814,-59.8772"/>
<polygon fill="black" stroke="black" points="354.62,-57.7852 345.883,-51.7925 348.976,-61.9258 354.62,-57.7852"/>
</a>
<a xlink:href="http://latin.omdoc.org/logics/model_theory?SEqual" class="SEqual">
<text text-anchor="middle" x="438.761" y="-162.3" font-family="Times New Roman,serif" font-size="14.00">SEqual</text>
</a>
</g>
<!-- http://latin.omdoc.org/logics/syntax?SEqual&#45;&gt;http://latin.omdoc.org/logics/syntax?SFOLEQ -->
<g id="edge41" class="edge"><title>http://latin.omdoc.org/logics/syntax?SEqual&#45;&gt;http://latin.omdoc.org/logics/syntax?SFOLEQ</title>
<a class="graphinclude">
<path fill="none" stroke="black" d="M475.292,-265.877C481.024,-238.089 492.394,-182.959 499.213,-149.896"/>
<polygon fill="black" stroke="black" points="502.662,-150.501 501.255,-140 495.807,-149.087 502.662,-150.501"/>
</a>
</g>
<!-- http://latin.omdoc.org/foundations/minimal?Universes -->
<g id="node19" class="node"><title>http://latin.omdoc.org/foundations/minimal?Universes</title>
<a xlink:href="http://latin.omdoc.org/foundations/minimal?Universes" class="graphtheory">
<ellipse fill="gray" stroke="black" cx="578.761" cy="-358" rx="46.2191" ry="18"/>
<text text-anchor="middle" x="578.761" y="-354.3" font-family="Times New Roman,serif" font-size="14.00">Universes</text>
</a>
</g>
<!-- http://latin.omdoc.org/foundations/minimal?Universes&#45;&gt;http://latin.omdoc.org/logics/model_theory?SFOLMOD -->
<g id="edge19" class="edge"><title>http://latin.omdoc.org/foundations/minimal?Universes&#45;&gt;http://latin.omdoc.org/logics/model_theory?SFOLMOD</title>
<a class="graphinclude">
<path fill="none" stroke="black" d="M578.761,-339.834C578.761,-325.247 578.761,-303.75 578.761,-285 578.761,-285 578.761,-285 578.761,-121 578.761,-88.9445 556.172,-84.8451 527.761,-70 487.378,-48.8995 436.575,-40.2646 396.948,-36.8443"/>
<polygon fill="black" stroke="black" points="397.108,-33.3463 386.868,-36.0649 396.568,-40.3255 397.108,-33.3463"/>
</a>
</g>
<!-- http://cds.omdoc.org/urtheories?LF -->
<g id="node21" class="node"><title>http://cds.omdoc.org/urtheories?LF</title>
<a xlink:href="http://cds.omdoc.org/urtheories?LF" class="graphtheory">
<ellipse fill="gray" stroke="black" cx="361.761" cy="-432" rx="27" ry="18"/>
<text text-anchor="middle" x="361.761" y="-428.3" font-family="Times New Roman,serif" font-size="14.00">LF</text>
</a>
</g>
<!-- http://cds.omdoc.org/urtheories?LF&#45;&gt;http://latin.omdoc.org/logics/model_theory?SFOLMOD -->
<g id="edge21" class="edge"><title>http://cds.omdoc.org/urtheories?LF&#45;&gt;http://latin.omdoc.org/logics/model_theory?SFOLMOD</title>
<a class="graphmeta">
<path fill="none" stroke="black" d="M388.616,-430.064C460.655,-426.829 652.761,-413.126 652.761,-359 652.761,-359 652.761,-359 652.761,-121 652.761,-68.3241 488.999,-47.0029 395.777,-39.133"/>
<polygon fill="black" stroke="black" points="395.854,-35.6278 385.602,-38.3037 395.285,-42.6046 395.854,-35.6278"/>
</a>
</g>
<!-- http://cds.omdoc.org/urtheories?LF&#45;&gt;http://latin.omdoc.org/logics/syntax?SExists -->
<g id="edge25" class="edge"><title>http://cds.omdoc.org/urtheories?LF&#45;&gt;http://latin.omdoc.org/logics/syntax?SExists</title>
<a class="graphmeta">
<path fill="none" stroke="black" d="M364.044,-413.67C365.45,-402.846 367.265,-388.617 368.761,-376 371.299,-354.595 373.954,-330.329 375.89,-312.242"/>
<polygon fill="black" stroke="black" points="379.39,-312.432 376.968,-302.117 372.429,-311.691 379.39,-312.432"/>
</a>
</g>
<!-- http://cds.omdoc.org/urtheories?LF&#45;&gt;http://latin.omdoc.org/logics/proof_theory?BaseSFOL -->
<g id="edge29" class="edge"><title>http://cds.omdoc.org/urtheories?LF&#45;&gt;http://latin.omdoc.org/logics/proof_theory?BaseSFOL</title>
<a class="graphmeta">
<path fill="none" stroke="black" d="M334.868,-429.419C300.577,-426.523 240.17,-418.422 193.761,-396 150.077,-374.895 109.55,-334.908 86.2446,-309.132"/>
<polygon fill="black" stroke="black" points="88.8368,-306.78 79.5805,-301.625 83.6019,-311.427 88.8368,-306.78"/>
</a>
</g>
<!-- http://cds.omdoc.org/urtheories?LF&#45;&gt;http://latin.omdoc.org/logics/syntax?BaseSFOL -->
<g id="edge35" class="edge"><title>http://cds.omdoc.org/urtheories?LF&#45;&gt;http://latin.omdoc.org/logics/syntax?BaseSFOL</title>
<a class="graphmeta">
<path fill="none" stroke="black" d="M350.261,-415.377C343.506,-406.201 334.812,-394.39 327.128,-383.952"/>
<polygon fill="black" stroke="black" points="329.723,-381.573 320.976,-375.595 324.086,-385.723 329.723,-381.573"/>
</a>
</g>
<!-- http://cds.omdoc.org/urtheories?LF&#45;&gt;http://latin.omdoc.org/logics/proof_theory?SForall -->
<g id="edge37" class="edge"><title>http://cds.omdoc.org/urtheories?LF&#45;&gt;http://latin.omdoc.org/logics/proof_theory?SForall</title>
<a class="graphmeta">
<path fill="none" stroke="black" d="M334.599,-431.862C262.81,-432.427 69.2065,-422.382 5.76084,-302 -1.69908,-287.846 -2.03088,-279.975 5.76084,-266 16.4303,-246.864 36.804,-233.551 55.3684,-224.821"/>
<polygon fill="black" stroke="black" points="56.8175,-228.007 64.5673,-220.783 54.0038,-221.598 56.8175,-228.007"/>
</a>
</g>
<!-- http://cds.omdoc.org/urtheories?LF&#45;&gt;http://latin.omdoc.org/logics/syntax?SFOL -->
<g id="edge31" class="edge"><title>http://cds.omdoc.org/urtheories?LF&#45;&gt;http://latin.omdoc.org/logics/syntax?SFOL</title>
<a class="graphmeta">
<path fill="none" stroke="black" d="M335.82,-426.55C308.774,-420.377 267.735,-406.337 248.761,-376 218.139,-327.04 271.483,-265.079 305.597,-232.801"/>
<polygon fill="black" stroke="black" points="308.395,-234.982 313.378,-225.632 303.652,-229.834 308.395,-234.982"/>
</a>
</g>
<!-- http://cds.omdoc.org/urtheories?LF&#45;&gt;http://latin.omdoc.org/logics/syntax?SFOLEQ -->
<g id="edge39" class="edge"><title>http://cds.omdoc.org/urtheories?LF&#45;&gt;http://latin.omdoc.org/logics/syntax?SFOLEQ</title>
<a class="graphmeta">
<path fill="none" stroke="black" d="M383.235,-421.05C418.964,-403.131 489.388,-361.665 516.761,-302 539.634,-252.143 525.357,-186.168 514.219,-149.848"/>
<polygon fill="black" stroke="black" points="517.446,-148.45 511.051,-140.003 510.782,-150.594 517.446,-148.45"/>
</a>
</g>
<!-- http://cds.omdoc.org/urtheories?LF&#45;&gt;http://latin.omdoc.org/logics/syntax?SForall -->
<g id="edge27" class="edge"><title>http://cds.omdoc.org/urtheories?LF&#45;&gt;http://latin.omdoc.org/logics/syntax?SForall</title>
<a class="graphmeta">
<path fill="none" stroke="black" d="M335.196,-428.692C294.113,-424.582 217.895,-414.623 198.761,-396 176.5,-374.335 171.372,-337.63 170.745,-312.399"/>
<polygon fill="black" stroke="black" points="174.245,-312.355 170.715,-302.365 167.245,-312.376 174.245,-312.355"/>
</a>
</g>
<!-- http://cds.omdoc.org/urtheories?LF&#45;&gt;http://latin.omdoc.org/logics/syntax?SEqual -->
<g id="edge33" class="edge"><title>http://cds.omdoc.org/urtheories?LF&#45;&gt;http://latin.omdoc.org/logics/syntax?SEqual</title>
<a class="graphmeta">
<path fill="none" stroke="black" d="M373.325,-415.651C392.403,-390.33 430.623,-339.601 453.419,-309.344"/>
<polygon fill="black" stroke="black" points="456.464,-311.12 459.686,-301.027 450.873,-306.908 456.464,-311.12"/>
</a>
</g>
<!-- http://cds.omdoc.org/urtheories?LF&#45;&gt;http://latin.omdoc.org/foundations/minimal?Universes -->
<g id="edge23" class="edge"><title>http://cds.omdoc.org/urtheories?LF&#45;&gt;http://latin.omdoc.org/foundations/minimal?Universes</title>
<a class="graphmeta">
<path fill="none" stroke="black" d="M388.12,-427.855C419.977,-423.442 474.779,-413.872 518.761,-396 529.243,-391.741 539.979,-385.732 549.42,-379.793"/>
<polygon fill="black" stroke="black" points="551.56,-382.576 558.022,-374.18 547.735,-376.713 551.56,-382.576"/>
</a>
</g>
</g>
</svg>
